<svg xmlns="http://www.w3.org/2000/svg" width="1420" height="2400" viewBox="0 0 1420 2400">
<rect x="0" y="0" width="1420" height="2400" fill="white" />
<text x="40" y="30" font-family="monospace" font-size="16">Warm starts (raw) (n=8)</text>
<g transform="translate(40.000 520.000) scale(56.977317771 -56.977317771) translate(3.394448607 3.277031029)">
<path d="M 0.000000000 0.800000000 0.125000000 0.500000000 0.062500000 0.500000000 0.200000000 0.250000000 0.100000000 0.250000000 0.350000000 0.000000000 0.075000000 0.000000000 0.075000000 -0.200000000 -0.075000000 -0.200000000 -0.075000000 0.000000000 -0.350000000 0.000000000 -0.100000000 0.250000000 -0.200000000 0.250000000 -0.062500000 0.500000000 -0.125000000 0.500000000 Z" fill="none" stroke="#222" stroke-width="0.01" />
<path d="M 0.000000000 0.800000000 0.125000000 0.500000000 0.062500000 0.500000000 0.200000000 0.250000000 0.100000000 0.250000000 0.350000000 0.000000000 0.075000000 0.000000000 0.075000000 -0.200000000 -0.075000000 -0.200000000 -0.075000000 0.000000000 -0.350000000 0.000000000 -0.100000000 0.250000000 -0.200000000 0.250000000 -0.062500000 0.500000000 -0.125000000 0.500000000 Z" fill="none" stroke="#222" stroke-width="0.01" />
<path d="M 0.000000000 0.800000000 0.125000000 0.500000000 0.062500000 0.500000000 0.200000000 0.250000000 0.100000000 0.250000000 0.350000000 0.000000000 0.075000000 0.000000000 0.075000000 -0.200000000 -0.075000000 -0.200000000 -0.075000000 0.000000000 -0.350000000 0.000000000 -0.100000000 0.250000000 -0.200000000 0.250000000 -0.062500000 0.500000000 -0.125000000 0.500000000 Z" fill="none" stroke="#222" stroke-width="0.01" />
<path d="M 0.000000000 0.800000000 0.125000000 0.500000000 0.062500000 0.500000000 0.200000000 0.250000000 0.100000000 0.250000000 0.350000000 0.000000000 0.075000000 0.000000000 0.075000000 -0.200000000 -0.075000000 -0.200000000 -0.075000000 0.000000000 -0.350000000 0.000000000 -0.100000000 0.250000000 -0.200000000 0.250000000 -0.062500000 0.500000000 -0.125000000 0.500000000 Z" fill="none" stroke="#222" stroke-width="0.01" />
<path d="M 0.000000000 0.800000000 0.125000000 0.500000000 0.062500000 0.500000000 0.200000000 0.250000000 0.100000000 0.250000000 0.350000000 0.000000000 0.075000000 0.000000000 0.075000000 -0.200000000 -0.075000000 -0.200000000 -0.075000000 0.000000000 -0.350000000 0.000000000 -0.100000000 0.250000000 -0.200000000 0.250000000 -0.062500000 0.500000000 -0.125000000 0.500000000 Z" fill="none" stroke="#222" stroke-width="0.01" />
<path d="M 0.000000000 0.800000000 0.125000000 0.500000000 0.062500000 0.500000000 0.200000000 0.250000000 0.100000000 0.250000000 0.350000000 0.000000000 0.075000000 0.000000000 0.075000000 -0.200000000 -0.075000000 -0.200000000 -0.075000000 0.000000000 -0.350000000 0.000000000 -0.100000000 0.250000000 -0.200000000 0.250000000 -0.062500000 0.500000000 -0.125000000 0.500000000 Z" fill="none" stroke="#222" stroke-width="0.01" />
<path d="M 0.000000000 0.800000000 0.125000000 0.500000000 0.062500000 0.500000000 0.200000000 0.250000000 0.100000000 0.250000000 0.350000000 0.000000000 0.075000000 0.000000000 0.075000000 -0.200000000 -0.075000000 -0.200000000 -0.075000000 0.000000000 -0.350000000 0.000000000 -0.100000000 0.250000000 -0.200000000 0.250000000 -0.062500000 0.500000000 -0.125000000 0.500000000 Z" fill="none" stroke="#222" stroke-width="0.01" />
<path d="M 0.000000000 0.800000000 0.125000000 0.500000000 0.062500000 0.500000000 0.200000000 0.250000000 0.100000000 0.250000000 0.350000000 0.000000000 0.075000000 0.000000000 0.075000000 -0.200000000 -0.075000000 -0.200000000 -0.075000000 0.000000000 -0.350000000 0.000000000 -0.100000000 0.250000000 -0.200000000 0.250000000 -0.062500000 0.500000000 -0.125000000 0.500000000 Z" fill="none" stroke="#222" stroke-width="0.01" />
<rect x="-0.500000000" y="-0.200000000" width="1.000000000" height="1.000000000" fill="none" stroke="#000" stroke-width="0.01" />
</g>
<text x="40" y="92" font-family="monospace" font-size="12">centered</text>
<g transform="translate(500.000 520.000) scale(56.977317771 -56.977317771) translate(3.394448607 3.277031029)">
<path d="M -0.720000000 -0.220000000 -0.595000000 -0.520000000 -0.657500000 -0.520000000 -0.520000000 -0.770000000 -0.620000000 -0.770000000 -0.370000000 -1.020000000 -0.645000000 -1.020000000 -0.645000000 -1.220000000 -0.795000000 -1.220000000 -0.795000000 -1.020000000 -1.070000000 -1.020000000 -0.820000000 -0.770000000 -0.920000000 -0.770000000 -0.782500000 -0.520000000 -0.845000000 -0.520000000 Z" fill="none" stroke="#222" stroke-width="0.01" />
<path d="M 0.000000000 -0.220000000 0.125000000 -0.520000000 0.062500000 -0.520000000 0.200000000 -0.770000000 0.100000000 -0.770000000 0.350000000 -1.020000000 0.075000000 -1.020000000 0.075000000 -1.220000000 -0.075000000 -1.220000000 -0.075000000 -1.020000000 -0.350000000 -1.020000000 -0.100000000 -0.770000000 -0.200000000 -0.770000000 -0.062500000 -0.520000000 -0.125000000 -0.520000000 Z" fill="none" stroke="#222" stroke-width="0.01" />
<path d="M 0.720000000 -0.220000000 0.845000000 -0.520000000 0.782500000 -0.520000000 0.920000000 -0.770000000 0.820000000 -0.770000000 1.070000000 -1.020000000 0.795000000 -1.020000000 0.795000000 -1.220000000 0.645000000 -1.220000000 0.645000000 -1.020000000 0.370000000 -1.020000000 0.620000000 -0.770000000 0.520000000 -0.770000000 0.657500000 -0.520000000 0.595000000 -0.520000000 Z" fill="none" stroke="#222" stroke-width="0.01" />
<path d="M -0.720000000 0.800000000 -0.595000000 0.500000000 -0.657500000 0.500000000 -0.520000000 0.250000000 -0.620000000 0.250000000 -0.370000000 0.000000000 -0.645000000 0.000000000 -0.645000000 -0.200000000 -0.795000000 -0.200000000 -0.795000000 0.000000000 -1.070000000 0.000000000 -0.820000000 0.250000000 -0.920000000 0.250000000 -0.782500000 0.500000000 -0.845000000 0.500000000 Z" fill="none" stroke="#222" stroke-width="0.01" />
<path d="M 0.000000000 0.800000000 0.125000000 0.500000000 0.062500000 0.500000000 0.200000000 0.250000000 0.100000000 0.250000000 0.350000000 0.000000000 0.075000000 0.000000000 0.075000000 -0.200000000 -0.075000000 -0.200000000 -0.075000000 0.000000000 -0.350000000 0.000000000 -0.100000000 0.250000000 -0.200000000 0.250000000 -0.062500000 0.500000000 -0.125000000 0.500000000 Z" fill="none" stroke="#222" stroke-width="0.01" />
<path d="M 0.720000000 0.800000000 0.845000000 0.500000000 0.782500000 0.500000000 0.920000000 0.250000000 0.820000000 0.250000000 1.070000000 0.000000000 0.795000000 0.000000000 0.795000000 -0.200000000 0.645000000 -0.200000000 0.645000000 0.000000000 0.370000000 0.000000000 0.620000000 0.250000000 0.520000000 0.250000000 0.657500000 0.500000000 0.595000000 0.500000000 Z" fill="none" stroke="#222" stroke-width="0.01" />
<path d="M -0.720000000 1.820000000 -0.595000000 1.520000000 -0.657500000 1.520000000 -0.520000000 1.270000000 -0.620000000 1.270000000 -0.370000000 1.020000000 -0.645000000 1.020000000 -0.645000000 0.820000000 -0.795000000 0.820000000 -0.795000000 1.020000000 -1.070000000 1.020000000 -0.820000000 1.270000000 -0.920000000 1.270000000 -0.782500000 1.520000000 -0.845000000 1.520000000 Z" fill="none" stroke="#222" stroke-width="0.01" />
<path d="M 0.000000000 1.820000000 0.125000000 1.520000000 0.062500000 1.520000000 0.200000000 1.270000000 0.100000000 1.270000000 0.350000000 1.020000000 0.075000000 1.020000000 0.075000000 0.820000000 -0.075000000 0.820000000 -0.075000000 1.020000000 -0.350000000 1.020000000 -0.100000000 1.270000000 -0.200000000 1.270000000 -0.062500000 1.520000000 -0.125000000 1.520000000 Z" fill="none" stroke="#222" stroke-width="0.01" />
<rect x="-1.520000000" y="-1.220000000" width="3.040000000" height="3.040000000" fill="none" stroke="#000" stroke-width="0.01" />
</g>
<text x="500" y="92" font-family="monospace" font-size="12">grid</text>
<g transform="translate(960.000 520.000) scale(56.977317771 -56.977317771) translate(3.394448607 3.277031029)">
<path d="M -0.720000000 -0.220000000 -0.595000000 -0.520000000 -0.657500000 -0.520000000 -0.520000000 -0.770000000 -0.620000000 -0.770000000 -0.370000000 -1.020000000 -0.645000000 -1.020000000 -0.645000000 -1.220000000 -0.795000000 -1.220000000 -0.795000000 -1.020000000 -1.070000000 -1.020000000 -0.820000000 -0.770000000 -0.920000000 -0.770000000 -0.782500000 -0.520000000 -0.845000000 -0.520000000 Z" fill="none" stroke="#222" stroke-width="0.01" />
<path d="M -0.000000000 -1.820000000 -0.125000000 -1.520000000 -0.062500000 -1.520000000 -0.200000000 -1.270000000 -0.100000000 -1.270000000 -0.350000000 -1.020000000 -0.075000000 -1.020000000 -0.075000000 -0.820000000 0.075000000 -0.820000000 0.075000000 -1.020000000 0.350000000 -1.020000000 0.100000000 -1.270000000 0.200000000 -1.270000000 0.062500000 -1.520000000 0.125000000 -1.520000000 Z" fill="none" stroke="#222" stroke-width="0.01" />
<path d="M 0.720000000 -0.220000000 0.845000000 -0.520000000 0.782500000 -0.520000000 0.920000000 -0.770000000 0.820000000 -0.770000000 1.070000000 -1.020000000 0.795000000 -1.020000000 0.795000000 -1.220000000 0.645000000 -1.220000000 0.645000000 -1.020000000 0.370000000 -1.020000000 0.620000000 -0.770000000 0.520000000 -0.770000000 0.657500000 -0.520000000 0.595000000 -0.520000000 Z" fill="none" stroke="#222" stroke-width="0.01" />
<path d="M -0.720000000 -0.800000000 -0.845000000 -0.500000000 -0.782500000 -0.500000000 -0.920000000 -0.250000000 -0.820000000 -0.250000000 -1.070000000 0.000000000 -0.795000000 0.000000000 -0.795000000 0.200000000 -0.645000000 0.200000000 -0.645000000 -0.000000000 -0.370000000 -0.000000000 -0.620000000 -0.250000000 -0.520000000 -0.250000000 -0.657500000 -0.500000000 -0.595000000 -0.500000000 Z" fill="none" stroke="#222" stroke-width="0.01" />
<path d="M 0.000000000 0.800000000 0.125000000 0.500000000 0.062500000 0.500000000 0.200000000 0.250000000 0.100000000 0.250000000 0.350000000 0.000000000 0.075000000 0.000000000 0.075000000 -0.200000000 -0.075000000 -0.200000000 -0.075000000 0.000000000 -0.350000000 0.000000000 -0.100000000 0.250000000 -0.200000000 0.250000000 -0.062500000 0.500000000 -0.125000000 0.500000000 Z" fill="none" stroke="#222" stroke-width="0.01" />
<path d="M 0.720000000 -0.800000000 0.595000000 -0.500000000 0.657500000 -0.500000000 0.520000000 -0.250000000 0.620000000 -0.250000000 0.370000000 0.000000000 0.645000000 0.000000000 0.645000000 0.200000000 0.795000000 0.200000000 0.795000000 -0.000000000 1.070000000 -0.000000000 0.820000000 -0.250000000 0.920000000 -0.250000000 0.782500000 -0.500000000 0.845000000 -0.500000000 Z" fill="none" stroke="#222" stroke-width="0.01" />
<path d="M -0.720000000 1.820000000 -0.595000000 1.520000000 -0.657500000 1.520000000 -0.520000000 1.270000000 -0.620000000 1.270000000 -0.370000000 1.020000000 -0.645000000 1.020000000 -0.645000000 0.820000000 -0.795000000 0.820000000 -0.795000000 1.020000000 -1.070000000 1.020000000 -0.820000000 1.270000000 -0.920000000 1.270000000 -0.782500000 1.520000000 -0.845000000 1.520000000 Z" fill="none" stroke="#222" stroke-width="0.01" />
<path d="M -0.000000000 0.220000000 -0.125000000 0.520000000 -0.062500000 0.520000000 -0.200000000 0.770000000 -0.100000000 0.770000000 -0.350000000 1.020000000 -0.075000000 1.020000000 -0.075000000 1.220000000 0.075000000 1.220000000 0.075000000 1.020000000 0.350000000 1.020000000 0.100000000 0.770000000 0.200000000 0.770000000 0.062500000 0.520000000 0.125000000 0.520000000 Z" fill="none" stroke="#222" stroke-width="0.01" />
<rect x="-1.820000000" y="-1.820000000" width="3.640000000" height="3.640000000" fill="none" stroke="#000" stroke-width="0.01" />
</g>
<text x="960" y="92" font-family="monospace" font-size="12">grid_alt180</text>
<g transform="translate(40.000 980.000) scale(56.977317771 -56.977317771) translate(3.394448607 3.277031029)">
<path d="M -0.254314575 -0.554314575 -0.378058262 -0.854834957 -0.422252436 -0.810640783 -0.501801948 -1.084644661 -0.572512627 -1.013933983 -0.572512627 -1.367487373 -0.766966991 -1.173033009 -0.908388348 -1.314454365 -1.014454365 -1.208388348 -0.873033009 -1.066966991 -1.067487373 -0.872512627 -0.713933983 -0.872512627 -0.784644661 -0.801801948 -0.510640783 -0.722252436 -0.554834957 -0.678058262 Z" fill="none" stroke="#222" stroke-width="0.01" />
<path d="M -0.565685425 -0.554314575 -0.265165043 -0.678058262 -0.309359217 -0.722252436 -0.035355339 -0.801801948 -0.106066017 -0.872512627 0.247487373 -0.872512627 0.053033009 -1.066966991 0.194454365 -1.208388348 0.088388348 -1.314454365 -0.053033009 -1.173033009 -0.247487373 -1.367487373 -0.247487373 -1.013933983 -0.318198052 -1.084644661 -0.397747564 -0.810640783 -0.441941738 -0.854834957 Z" fill="none" stroke="#222" stroke-width="0.01" />
<path d="M 1.385685425 -0.554314575 1.261941738 -0.854834957 1.217747564 -0.810640783 1.138198052 -1.084644661 1.067487373 -1.013933983 1.067487373 -1.367487373 0.873033009 -1.173033009 0.731611652 -1.314454365 0.625545635 -1.208388348 0.766966991 -1.066966991 0.572512627 -0.872512627 0.926066017 -0.872512627 0.855355339 -0.801801948 1.129359217 -0.722252436 1.085165043 -0.678058262 Z" fill="none" stroke="#222" stroke-width="0.01" />
<path d="M -1.385685425 0.565685425 -1.085165043 0.441941738 -1.129359217 0.397747564 -0.855355339 0.318198052 -0.926066017 0.247487373 -0.572512627 0.247487373 -0.766966991 0.053033009 -0.625545635 -0.088388348 -0.731611652 -0.194454365 -0.873033009 -0.053033009 -1.067487373 -0.247487373 -1.067487373 0.106066017 -1.138198052 0.035355339 -1.217747564 0.309359217 -1.261941738 0.265165043 Z" fill="none" stroke="#222" stroke-width="0.01" />
<path d="M 0.565685425 0.565685425 0.441941738 0.265165043 0.397747564 0.309359217 0.318198052 0.035355339 0.247487373 0.106066017 0.247487373 -0.247487373 0.053033009 -0.053033009 -0.088388348 -0.194454365 -0.194454365 -0.088388348 -0.053033009 0.053033009 -0.247487373 0.247487373 0.106066017 0.247487373 0.035355339 0.318198052 0.309359217 0.397747564 0.265165043 0.441941738 Z" fill="none" stroke="#222" stroke-width="0.01" />
<path d="M 0.254314575 0.565685425 0.554834957 0.441941738 0.510640783 0.397747564 0.784644661 0.318198052 0.713933983 0.247487373 1.067487373 0.247487373 0.873033009 0.053033009 1.014454365 -0.088388348 0.908388348 -0.194454365 0.766966991 -0.053033009 0.572512627 -0.247487373 0.572512627 0.106066017 0.501801948 0.035355339 0.422252436 0.309359217 0.378058262 0.265165043 Z" fill="none" stroke="#222" stroke-width="0.01" />
<path d="M -0.254314575 1.685685425 -0.378058262 1.385165043 -0.422252436 1.429359217 -0.501801948 1.155355339 -0.572512627 1.226066017 -0.572512627 0.872512627 -0.766966991 1.066966991 -0.908388348 0.925545635 -1.014454365 1.031611652 -0.873033009 1.173033009 -1.067487373 1.367487373 -0.713933983 1.367487373 -0.784644661 1.438198052 -0.510640783 1.517747564 -0.554834957 1.561941738 Z" fill="none" stroke="#222" stroke-width="0.01" />
<path d="M -0.565685425 1.685685425 -0.265165043 1.561941738 -0.309359217 1.517747564 -0.035355339 1.438198052 -0.106066017 1.367487373 0.247487373 1.367487373 0.053033009 1.173033009 0.194454365 1.031611652 0.088388348 0.925545635 -0.053033009 1.066966991 -0.247487373 0.872512627 -0.247487373 1.226066017 -0.318198052 1.155355339 -0.397747564 1.429359217 -0.441941738 1.385165043 Z" fill="none" stroke="#222" stroke-width="0.01" />
<rect x="-1.526586399" y="-1.367487373" width="3.053172798" height="3.053172798" fill="none" stroke="#000" stroke-width="0.01" />
</g>
<text x="40" y="552" font-family="monospace" font-size="12">grid_alt45</text>
<g transform="translate(500.000 980.000) scale(56.977317771 -56.977317771) translate(3.394448607 3.277031029)">
<path d="M -1.385685425 -0.554314575 -1.085165043 -0.678058262 -1.129359217 -0.722252436 -0.855355339 -0.801801948 -0.926066017 -0.872512627 -0.572512627 -0.872512627 -0.766966991 -1.066966991 -0.625545635 -1.208388348 -0.731611652 -1.314454365 -0.873033009 -1.173033009 -1.067487373 -1.367487373 -1.067487373 -1.013933983 -1.138198052 -1.084644661 -1.217747564 -0.810640783 -1.261941738 -0.854834957 Z" fill="none" stroke="#222" stroke-width="0.01" />
<path d="M 0.565685425 -1.685685425 0.265165043 -1.561941738 0.309359217 -1.517747564 0.035355339 -1.438198052 0.106066017 -1.367487373 -0.247487373 -1.367487373 -0.053033009 -1.173033009 -0.194454365 -1.031611652 -0.088388348 -0.925545635 0.053033009 -1.066966991 0.247487373 -0.872512627 0.247487373 -1.226066017 0.318198052 -1.155355339 0.397747564 -1.429359217 0.441941738 -1.385165043 Z" fill="none" stroke="#222" stroke-width="0.01" />
<path d="M 0.254314575 -0.554314575 0.554834957 -0.678058262 0.510640783 -0.722252436 0.784644661 -0.801801948 0.713933983 -0.872512627 1.067487373 -0.872512627 0.873033009 -1.066966991 1.014454365 -1.208388348 0.908388348 -1.314454365 0.766966991 -1.173033009 0.572512627 -1.367487373 0.572512627 -1.013933983 0.501801948 -1.084644661 0.422252436 -0.810640783 0.378058262 -0.854834957 Z" fill="none" stroke="#222" stroke-width="0.01" />
<path d="M -0.254314575 -0.565685425 -0.554834957 -0.441941738 -0.510640783 -0.397747564 -0.784644661 -0.318198052 -0.713933983 -0.247487373 -1.067487373 -0.247487373 -0.873033009 -0.053033009 -1.014454365 0.088388348 -0.908388348 0.194454365 -0.766966991 0.053033009 -0.572512627 0.247487373 -0.572512627 -0.106066017 -0.501801948 -0.035355339 -0.422252436 -0.309359217 -0.378058262 -0.265165043 Z" fill="none" stroke="#222" stroke-width="0.01" />
<path d="M -0.565685425 0.565685425 -0.265165043 0.441941738 -0.309359217 0.397747564 -0.035355339 0.318198052 -0.106066017 0.247487373 0.247487373 0.247487373 0.053033009 0.053033009 0.194454365 -0.088388348 0.088388348 -0.194454365 -0.053033009 -0.053033009 -0.247487373 -0.247487373 -0.247487373 0.106066017 -0.318198052 0.035355339 -0.397747564 0.309359217 -0.441941738 0.265165043 Z" fill="none" stroke="#222" stroke-width="0.01" />
<path d="M 1.385685425 -0.565685425 1.085165043 -0.441941738 1.129359217 -0.397747564 0.855355339 -0.318198052 0.926066017 -0.247487373 0.572512627 -0.247487373 0.766966991 -0.053033009 0.625545635 0.088388348 0.731611652 0.194454365 0.873033009 0.053033009 1.067487373 0.247487373 1.067487373 -0.106066017 1.138198052 -0.035355339 1.217747564 -0.309359217 1.261941738 -0.265165043 Z" fill="none" stroke="#222" stroke-width="0.01" />
<path d="M -1.385685425 1.685685425 -1.085165043 1.561941738 -1.129359217 1.517747564 -0.855355339 1.438198052 -0.926066017 1.367487373 -0.572512627 1.367487373 -0.766966991 1.173033009 -0.625545635 1.031611652 -0.731611652 0.925545635 -0.873033009 1.066966991 -1.067487373 0.872512627 -1.067487373 1.226066017 -1.138198052 1.155355339 -1.217747564 1.429359217 -1.261941738 1.385165043 Z" fill="none" stroke="#222" stroke-width="0.01" />
<path d="M 0.565685425 0.554314575 0.265165043 0.678058262 0.309359217 0.722252436 0.035355339 0.801801948 0.106066017 0.872512627 -0.247487373 0.872512627 -0.053033009 1.066966991 -0.194454365 1.208388348 -0.088388348 1.314454365 0.053033009 1.173033009 0.247487373 1.367487373 0.247487373 1.013933983 0.318198052 1.084644661 0.397747564 0.810640783 0.441941738 0.854834957 Z" fill="none" stroke="#222" stroke-width="0.01" />
<rect x="-1.685685425" y="-1.685685425" width="3.371370850" height="3.371370850" fill="none" stroke="#000" stroke-width="0.01" />
</g>
<text x="500" y="552" font-family="monospace" font-size="12">alternating</text>
<g transform="translate(960.000 980.000) scale(56.977317771 -56.977317771) translate(3.394448607 3.277031029)">
<path d="M -0.720000000 -0.220000000 -0.595000000 -0.520000000 -0.657500000 -0.520000000 -0.520000000 -0.770000000 -0.620000000 -0.770000000 -0.370000000 -1.020000000 -0.645000000 -1.020000000 -0.645000000 -1.220000000 -0.795000000 -1.220000000 -0.795000000 -1.020000000 -1.070000000 -1.020000000 -0.820000000 -0.770000000 -0.920000000 -0.770000000 -0.782500000 -0.520000000 -0.845000000 -0.520000000 Z" fill="none" stroke="#222" stroke-width="0.01" />
<path d="M -0.000000000 -1.820000000 -0.125000000 -1.520000000 -0.062500000 -1.520000000 -0.200000000 -1.270000000 -0.100000000 -1.270000000 -0.350000000 -1.020000000 -0.075000000 -1.020000000 -0.075000000 -0.820000000 0.075000000 -0.820000000 0.075000000 -1.020000000 0.350000000 -1.020000000 0.100000000 -1.270000000 0.200000000 -1.270000000 0.062500000 -1.520000000 0.125000000 -1.520000000 Z" fill="none" stroke="#222" stroke-width="0.01" />
<path d="M 0.720000000 -0.220000000 0.845000000 -0.520000000 0.782500000 -0.520000000 0.920000000 -0.770000000 0.820000000 -0.770000000 1.070000000 -1.020000000 0.795000000 -1.020000000 0.795000000 -1.220000000 0.645000000 -1.220000000 0.645000000 -1.020000000 0.370000000 -1.020000000 0.620000000 -0.770000000 0.520000000 -0.770000000 0.657500000 -0.520000000 0.595000000 -0.520000000 Z" fill="none" stroke="#222" stroke-width="0.01" />
<path d="M -0.036000000 -0.800000000 -0.161000000 -0.500000000 -0.098500000 -0.500000000 -0.236000000 -0.250000000 -0.136000000 -0.250000000 -0.386000000 0.000000000 -0.111000000 0.000000000 -0.111000000 0.200000000 0.039000000 0.200000000 0.039000000 -0.000000000 0.314000000 -0.000000000 0.064000000 -0.250000000 0.164000000 -0.250000000 0.026500000 -0.500000000 0.089000000 -0.500000000 Z" fill="none" stroke="#222" stroke-width="0.01" />
<path d="M 0.684000000 0.800000000 0.809000000 0.500000000 0.746500000 0.500000000 0.884000000 0.250000000 0.784000000 0.250000000 1.034000000 0.000000000 0.759000000 0.000000000 0.759000000 -0.200000000 0.609000000 -0.200000000 0.609000000 0.000000000 0.334000000 0.000000000 0.584000000 0.250000000 0.484000000 0.250000000 0.621500000 0.500000000 0.559000000 0.500000000 Z" fill="none" stroke="#222" stroke-width="0.01" />
<path d="M 1.404000000 -0.800000000 1.279000000 -0.500000000 1.341500000 -0.500000000 1.204000000 -0.250000000 1.304000000 -0.250000000 1.054000000 0.000000000 1.329000000 0.000000000 1.329000000 0.200000000 1.479000000 0.200000000 1.479000000 -0.000000000 1.754000000 -0.000000000 1.504000000 -0.250000000 1.604000000 -0.250000000 1.466500000 -0.500000000 1.529000000 -0.500000000 Z" fill="none" stroke="#222" stroke-width="0.01" />
<path d="M -0.072000000 1.820000000 0.053000000 1.520000000 -0.009500000 1.520000000 0.128000000 1.270000000 0.028000000 1.270000000 0.278000000 1.020000000 0.003000000 1.020000000 0.003000000 0.820000000 -0.147000000 0.820000000 -0.147000000 1.020000000 -0.422000000 1.020000000 -0.172000000 1.270000000 -0.272000000 1.270000000 -0.134500000 1.520000000 -0.197000000 1.520000000 Z" fill="none" stroke="#222" stroke-width="0.01" />
<path d="M 0.648000000 0.220000000 0.523000000 0.520000000 0.585500000 0.520000000 0.448000000 0.770000000 0.548000000 0.770000000 0.298000000 1.020000000 0.573000000 1.020000000 0.573000000 1.220000000 0.723000000 1.220000000 0.723000000 1.020000000 0.998000000 1.020000000 0.748000000 0.770000000 0.848000000 0.770000000 0.710500000 0.520000000 0.773000000 0.520000000 Z" fill="none" stroke="#222" stroke-width="0.01" />
<rect x="-1.478000000" y="-1.820000000" width="3.640000000" height="3.640000000" fill="none" stroke="#000" stroke-width="0.01" />
</g>
<text x="960" y="552" font-family="monospace" font-size="12">sheared_brick</text>
<g transform="translate(40.000 1440.000) scale(56.977317771 -56.977317771) translate(3.394448607 3.277031029)">
<path d="M -1.265448677 0.565685425 -0.964928295 0.441941738 -1.009122469 0.397747564 -0.735118591 0.318198052 -0.805829270 0.247487373 -0.452275879 0.247487373 -0.646730244 0.053033009 -0.505308888 -0.088388348 -0.611374905 -0.194454365 -0.752796261 -0.053033009 -0.947250626 -0.247487373 -0.947250626 0.106066017 -1.017961304 0.035355339 -1.097510817 0.309359217 -1.141704991 0.265165043 Z" fill="none" stroke="#222" stroke-width="0.01" />
<path d="M 0.215803799 -0.066002678 -0.084716583 0.057741009 -0.040522409 0.101935183 -0.314526287 0.181484695 -0.243815609 0.252195374 -0.597369000 0.252195374 -0.402914635 0.446649738 -0.544335991 0.588071095 -0.438269974 0.694137112 -0.296848618 0.552715756 -0.102394253 0.747170120 -0.102394253 0.393616730 -0.031683575 0.464327408 0.047865938 0.190323530 0.092060112 0.234517704 Z" fill="none" stroke="#222" stroke-width="0.01" />
<path d="M -0.565685425 1.565050919 -0.265165043 1.441307232 -0.309359217 1.397113058 -0.035355339 1.317563546 -0.106066017 1.246852867 0.247487373 1.246852867 0.053033009 1.052398503 0.194454365 0.910977146 0.088388348 0.804911129 -0.053033009 0.946332485 -0.247487373 0.751878121 -0.247487373 1.105431511 -0.318198052 1.034720833 -0.397747564 1.308724711 -0.441941738 1.264530537 Z" fill="none" stroke="#222" stroke-width="0.01" />
<path d="M 0.215803799 -1.065368172 -0.084716583 -0.941624485 -0.040522409 -0.897430311 -0.314526287 -0.817880799 -0.243815609 -0.747170120 -0.597369000 -0.747170120 -0.402914635 -0.552715756 -0.544335991 -0.411294399 -0.438269974 -0.305228382 -0.296848618 -0.446649738 -0.102394253 -0.252195374 -0.102394253 -0.605748764 -0.031683575 -0.535038086 0.047865938 -0.809041964 0.092060112 -0.764847790 Z" fill="none" stroke="#222" stroke-width="0.01" />
<path d="M -0.565685425 0.565685425 -0.265165043 0.441941738 -0.309359217 0.397747564 -0.035355339 0.318198052 -0.106066017 0.247487373 0.247487373 0.247487373 0.053033009 0.053033009 0.194454365 -0.088388348 0.088388348 -0.194454365 -0.053033009 -0.053033009 -0.247487373 -0.247487373 -0.247487373 0.106066017 -0.318198052 0.035355339 -0.397747564 0.309359217 -0.441941738 0.265165043 Z" fill="none" stroke="#222" stroke-width="0.01" />
<path d="M 0.915567051 -0.066002678 0.615046669 0.057741009 0.659240843 0.101935183 0.385236965 0.181484695 0.455947643 0.252195374 0.102394253 0.252195374 0.296848618 0.446649738 0.155427261 0.588071095 0.261493279 0.694137112 0.402914635 0.552715756 0.597369000 0.747170120 0.597369000 0.393616730 0.668079678 0.464327408 0.747629191 0.190323530 0.791823364 0.234517704 Z" fill="none" stroke="#222" stroke-width="0.01" />
<path d="M -0.565685425 -0.433680069 -0.265165043 -0.557423756 -0.309359217 -0.601617930 -0.035355339 -0.681167442 -0.106066017 -0.751878121 0.247487373 -0.751878121 0.053033009 -0.946332485 0.194454365 -1.087753842 0.088388348 -1.193819859 -0.053033009 -1.052398503 -0.247487373 -1.246852867 -0.247487373 -0.893299477 -0.318198052 -0.964010155 -0.397747564 -0.690006277 -0.441941738 -0.734200451 Z" fill="none" stroke="#222" stroke-width="0.01" />
<path d="M 0.915567051 -1.065368172 0.615046669 -0.941624485 0.659240843 -0.897430311 0.385236965 -0.817880799 0.455947643 -0.747170120 0.102394253 -0.747170120 0.296848618 -0.552715756 0.155427261 -0.411294399 0.261493279 -0.305228382 0.402914635 -0.446649738 0.597369000 -0.252195374 0.597369000 -0.605748764 0.668079678 -0.535038086 0.747629191 -0.809041964 0.791823364 -0.764847790 Z" fill="none" stroke="#222" stroke-width="0.01" />
<rect x="-1.580892706" y="-1.246852867" width="2.811903786" height="2.811903786" fill="none" stroke="#000" stroke-width="0.01" />
</g>
<text x="40" y="1012" font-family="monospace" font-size="12">diamond_lattice</text>
<g transform="translate(500.000 1440.000) scale(56.977317771 -56.977317771) translate(3.394448607 3.277031029)">
<path d="M -0.820000000 -0.170000000 -0.695000000 -0.470000000 -0.757500000 -0.470000000 -0.620000000 -0.720000000 -0.720000000 -0.720000000 -0.470000000 -0.970000000 -0.745000000 -0.970000000 -0.745000000 -1.170000000 -0.895000000 -1.170000000 -0.895000000 -0.970000000 -1.170000000 -0.970000000 -0.920000000 -0.720000000 -1.020000000 -0.720000000 -0.882500000 -0.470000000 -0.945000000 -0.470000000 Z" fill="none" stroke="#222" stroke-width="0.01" />
<path d="M 0.000000000 -0.092400000 0.125000000 -0.392400000 0.062500000 -0.392400000 0.200000000 -0.642400000 0.100000000 -0.642400000 0.350000000 -0.892400000 0.075000000 -0.892400000 0.075000000 -1.092400000 -0.075000000 -1.092400000 -0.075000000 -0.892400000 -0.350000000 -0.892400000 -0.100000000 -0.642400000 -0.200000000 -0.642400000 -0.062500000 -0.392400000 -0.125000000 -0.392400000 Z" fill="none" stroke="#222" stroke-width="0.01" />
<path d="M 0.820000000 -0.170000000 0.945000000 -0.470000000 0.882500000 -0.470000000 1.020000000 -0.720000000 0.920000000 -0.720000000 1.170000000 -0.970000000 0.895000000 -0.970000000 0.895000000 -1.170000000 0.745000000 -1.170000000 0.745000000 -0.970000000 0.470000000 -0.970000000 0.720000000 -0.720000000 0.620000000 -0.720000000 0.757500000 -0.470000000 0.695000000 -0.470000000 Z" fill="none" stroke="#222" stroke-width="0.01" />
<path d="M -1.210000000 0.000000000 -0.910000000 0.125000000 -0.910000000 0.062500000 -0.660000000 0.200000000 -0.660000000 0.100000000 -0.410000000 0.350000000 -0.410000000 0.075000000 -0.210000000 0.075000000 -0.210000000 -0.075000000 -0.410000000 -0.075000000 -0.410000000 -0.350000000 -0.660000000 -0.100000000 -0.660000000 -0.200000000 -0.910000000 -0.062500000 -0.910000000 -0.125000000 Z" fill="none" stroke="#222" stroke-width="0.01" />
<path d="M -0.390000000 0.077600000 -0.090000000 0.202600000 -0.090000000 0.140100000 0.160000000 0.277600000 0.160000000 0.177600000 0.410000000 0.427600000 0.410000000 0.152600000 0.610000000 0.152600000 0.610000000 0.002600000 0.410000000 0.002600000 0.410000000 -0.272400000 0.160000000 -0.022400000 0.160000000 -0.122400000 -0.090000000 0.015100000 -0.090000000 -0.047400000 Z" fill="none" stroke="#222" stroke-width="0.01" />
<path d="M 0.430000000 0.000000000 0.730000000 0.125000000 0.730000000 0.062500000 0.980000000 0.200000000 0.980000000 0.100000000 1.230000000 0.350000000 1.230000000 0.075000000 1.430000000 0.075000000 1.430000000 -0.075000000 1.230000000 -0.075000000 1.230000000 -0.350000000 0.980000000 -0.100000000 0.980000000 -0.200000000 0.730000000 -0.062500000 0.730000000 -0.125000000 Z" fill="none" stroke="#222" stroke-width="0.01" />
<path d="M -0.820000000 1.770000000 -0.695000000 1.470000000 -0.757500000 1.470000000 -0.620000000 1.220000000 -0.720000000 1.220000000 -0.470000000 0.970000000 -0.745000000 0.970000000 -0.745000000 0.770000000 -0.895000000 0.770000000 -0.895000000 0.970000000 -1.170000000 0.970000000 -0.920000000 1.220000000 -1.020000000 1.220000000 -0.882500000 1.470000000 -0.945000000 1.470000000 Z" fill="none" stroke="#222" stroke-width="0.01" />
<path d="M 0.000000000 1.847600000 0.125000000 1.547600000 0.062500000 1.547600000 0.200000000 1.297600000 0.100000000 1.297600000 0.350000000 1.047600000 0.075000000 1.047600000 0.075000000 0.847600000 -0.075000000 0.847600000 -0.075000000 1.047600000 -0.350000000 1.047600000 -0.100000000 1.297600000 -0.200000000 1.297600000 -0.062500000 1.547600000 -0.125000000 1.547600000 Z" fill="none" stroke="#222" stroke-width="0.01" />
<rect x="-1.398800000" y="-1.170000000" width="3.017600000" height="3.017600000" fill="none" stroke="#000" stroke-width="0.01" />
</g>
<text x="500" y="1012" font-family="monospace" font-size="12">herringbone</text>
<g transform="translate(960.000 1440.000) scale(56.977317771 -56.977317771) translate(3.394448607 3.277031029)">
<path d="M 1.497605704 0.800000000 1.622605704 0.500000000 1.560105704 0.500000000 1.697605704 0.250000000 1.597605704 0.250000000 1.847605704 0.000000000 1.572605704 0.000000000 1.572605704 -0.200000000 1.422605704 -0.200000000 1.422605704 0.000000000 1.147605704 0.000000000 1.397605704 0.250000000 1.297605704 0.250000000 1.435105704 0.500000000 1.372605704 0.500000000 Z" fill="none" stroke="#222" stroke-width="0.01" />
<path d="M 0.493281724 1.624652574 0.793802106 1.500908887 0.749607932 1.456714713 1.023611810 1.377165200 0.952901132 1.306454522 1.306454522 1.306454522 1.112000157 1.112000157 1.253421514 0.970578801 1.147355497 0.864512784 1.005934140 1.005934140 0.811479775 0.811479775 0.811479775 1.165033166 0.740769097 1.094322488 0.661219584 1.368326366 0.617025411 1.324132192 Z" fill="none" stroke="#222" stroke-width="0.01" />
<path d="M -0.800000000 1.497605704 -0.500000000 1.622605704 -0.500000000 1.560105704 -0.250000000 1.697605704 -0.250000000 1.597605704 0.000000000 1.847605704 0.000000000 1.572605704 0.200000000 1.572605704 0.200000000 1.422605704 0.000000000 1.422605704 0.000000000 1.147605704 -0.250000000 1.397605704 -0.250000000 1.297605704 -0.500000000 1.435105704 -0.500000000 1.372605704 Z" fill="none" stroke="#222" stroke-width="0.01" />
<path d="M -1.624652574 0.493281724 -1.500908887 0.793802106 -1.456714713 0.749607932 -1.377165200 1.023611810 -1.306454522 0.952901132 -1.306454522 1.306454522 -1.112000157 1.112000157 -0.970578801 1.253421514 -0.864512784 1.147355497 -1.005934140 1.005934140 -0.811479775 0.811479775 -1.165033166 0.811479775 -1.094322488 0.740769097 -1.368326366 0.661219584 -1.324132192 0.617025411 Z" fill="none" stroke="#222" stroke-width="0.01" />
<path d="M -1.497605704 -0.800000000 -1.622605704 -0.500000000 -1.560105704 -0.500000000 -1.697605704 -0.250000000 -1.597605704 -0.250000000 -1.847605704 0.000000000 -1.572605704 0.000000000 -1.572605704 0.200000000 -1.422605704 0.200000000 -1.422605704 0.000000000 -1.147605704 0.000000000 -1.397605704 -0.250000000 -1.297605704 -0.250000000 -1.435105704 -0.500000000 -1.372605704 -0.500000000 Z" fill="none" stroke="#222" stroke-width="0.01" />
<path d="M -0.493281724 -1.624652574 -0.793802106 -1.500908887 -0.749607932 -1.456714713 -1.023611810 -1.377165200 -0.952901132 -1.306454522 -1.306454522 -1.306454522 -1.112000157 -1.112000157 -1.253421514 -0.970578801 -1.147355497 -0.864512784 -1.005934140 -1.005934140 -0.811479775 -0.811479775 -0.811479775 -1.165033166 -0.740769097 -1.094322488 -0.661219584 -1.368326366 -0.617025411 -1.324132192 Z" fill="none" stroke="#222" stroke-width="0.01" />
<path d="M 0.800000000 -1.497605704 0.500000000 -1.622605704 0.500000000 -1.560105704 0.250000000 -1.697605704 0.250000000 -1.597605704 -0.000000000 -1.847605704 -0.000000000 -1.572605704 -0.200000000 -1.572605704 -0.200000000 -1.422605704 -0.000000000 -1.422605704 -0.000000000 -1.147605704 0.250000000 -1.397605704 0.250000000 -1.297605704 0.500000000 -1.435105704 0.500000000 -1.372605704 Z" fill="none" stroke="#222" stroke-width="0.01" />
<path d="M 1.624652574 -0.493281724 1.500908887 -0.793802106 1.456714713 -0.749607932 1.377165200 -1.023611810 1.306454522 -0.952901132 1.306454522 -1.306454522 1.112000157 -1.112000157 0.970578801 -1.253421514 0.864512784 -1.147355497 1.005934140 -1.005934140 0.811479775 -0.811479775 1.165033166 -0.811479775 1.094322488 -0.740769097 1.368326366 -0.661219584 1.324132192 -0.617025411 Z" fill="none" stroke="#222" stroke-width="0.01" />
<rect x="-1.847605704" y="-1.847605704" width="3.695211408" height="3.695211408" fill="none" stroke="#000" stroke-width="0.01" />
</g>
<text x="960" y="1012" font-family="monospace" font-size="12">circle_ring</text>
<g transform="translate(40.000 1900.000) scale(56.977317771 -56.977317771) translate(3.394448607 3.277031029)">
<path d="M 0.000000000 0.800000000 0.125000000 0.500000000 0.062500000 0.500000000 0.200000000 0.250000000 0.100000000 0.250000000 0.350000000 0.000000000 0.075000000 0.000000000 0.075000000 -0.200000000 -0.075000000 -0.200000000 -0.075000000 0.000000000 -0.350000000 0.000000000 -0.100000000 0.250000000 -0.200000000 0.250000000 -0.062500000 0.500000000 -0.125000000 0.500000000 Z" fill="none" stroke="#222" stroke-width="0.01" />
<path d="M -0.356830560 0.805960267 -0.048948545 0.701875373 -0.090197492 0.654920348 0.188370292 0.593225617 0.122371977 0.518097577 0.475187865 0.540921892 0.293692500 0.334319780 0.443948581 0.202323151 0.344951109 0.089631090 0.194695028 0.221627720 0.013199663 0.015025608 -0.009624652 0.367841496 -0.075622966 0.292713455 -0.172695385 0.561010298 -0.213944332 0.514055272 Z" fill="none" stroke="#222" stroke-width="0.01" />
<path d="M -0.860750892 0.415821960 -0.579357011 0.578433409 -0.571304230 0.516454358 -0.341104145 0.685019393 -0.328219696 0.585852912 -0.112514617 0.865980239 -0.077082381 0.593272416 0.121250581 0.619041315 0.140577256 0.470291593 -0.057755706 0.444522694 -0.022323471 0.171814871 -0.302450797 0.387519950 -0.289566347 0.288353469 -0.555198668 0.392496257 -0.547145887 0.330517207 Z" fill="none" stroke="#222" stroke-width="0.01" />
<path d="M -0.978094085 -0.306646311 -0.914545662 0.012080214 -0.862667316 -0.022775018 -0.837378748 0.261419877 -0.754373394 0.205651505 -0.822465849 0.552585818 -0.594201127 0.399222796 -0.482664383 0.565233503 -0.358156353 0.481580945 -0.469693096 0.315570238 -0.241428374 0.162207216 -0.588362687 0.094114762 -0.505357334 0.038346390 -0.758910624 -0.092485483 -0.707032278 -0.127340715 Z" fill="none" stroke="#222" stroke-width="0.01" />
<path d="M -0.510997781 -0.962538970 -0.708509886 -0.704442150 -0.648084999 -0.688470831 -0.844905026 -0.481908184 -0.748225206 -0.456354074 -1.053810030 -0.278539801 -0.787940527 -0.208265998 -0.839048747 -0.014906360 -0.694029018 0.023424806 -0.642920798 -0.169934833 -0.377051295 -0.099661030 -0.554865568 -0.405245853 -0.458185748 -0.379691743 -0.527235224 -0.656528193 -0.466810337 -0.640556874 Z" fill="none" stroke="#222" stroke-width="0.01" />
<path d="M 0.346923165 -1.097335098 0.022665421 -1.075382521 0.050545889 -1.019445686 -0.234538480 -1.030984850 -0.189929731 -0.941485915 -0.525198943 -1.053711382 -0.402524884 -0.807589308 -0.581522755 -0.718371810 -0.514609632 -0.584123406 -0.335611760 -0.673340904 -0.212937701 -0.427218831 -0.100712233 -0.762488043 -0.056103484 -0.672989107 0.106306825 -0.907572016 0.134187293 -0.851635182 Z" fill="none" stroke="#222" stroke-width="0.01" />
<path d="M 1.083217209 -0.536694026 0.852720022 -0.765814184 0.829096413 -0.707950766 0.649614683 -0.929744721 0.611816908 -0.837163253 0.474857673 -1.163111359 0.370913794 -0.908512321 0.185750858 -0.984107870 0.129054196 -0.845235668 0.314217133 -0.769640119 0.210273253 -0.515041081 0.536221360 -0.652000316 0.498423585 -0.559418848 0.781849196 -0.592223931 0.758225587 -0.534360514 Z" fill="none" stroke="#222" stroke-width="0.01" />
<path d="M 1.186736054 0.435841185 1.206745281 0.111457722 1.147682445 0.131898648 1.195856980 -0.149322732 1.101356443 -0.116617250 1.255844081 -0.434632296 0.995967605 -0.344692222 0.930556642 -0.533693296 0.788805836 -0.484635074 0.854216799 -0.295634000 0.594340323 -0.205693926 0.912355369 -0.051206287 0.817854832 -0.018500806 1.029556774 0.172780500 0.970493938 0.193221426 Z" fill="none" stroke="#222" stroke-width="0.01" />
<rect x="-1.053810030" y="-1.303392616" width="2.309654111" height="2.309654111" fill="none" stroke="#000" stroke-width="0.01" />
</g>
<text x="40" y="1472" font-family="monospace" font-size="12">spiral</text>
<g transform="translate(500.000 1900.000) scale(56.977317771 -56.977317771) translate(3.394448607 3.277031029)">
<path d="M -0.800000000 0.000000000 -0.500000000 0.125000000 -0.500000000 0.062500000 -0.250000000 0.200000000 -0.250000000 0.100000000 0.000000000 0.350000000 0.000000000 0.075000000 0.200000000 0.075000000 0.200000000 -0.075000000 -0.000000000 -0.075000000 -0.000000000 -0.350000000 -0.250000000 -0.100000000 -0.250000000 -0.200000000 -0.500000000 -0.062500000 -0.500000000 -0.125000000 Z" fill="none" stroke="#222" stroke-width="0.01" />
<path d="M 0.272826485 -0.249931409 -0.032820465 -0.139455430 0.009397678 -0.093369875 -0.267824457 -0.025885523 -0.200275427 0.047851365 -0.553490221 0.032381719 -0.367730390 0.235158161 -0.515204165 0.370256220 -0.413880621 0.480861551 -0.266406846 0.345763492 -0.080647015 0.548539934 -0.065177369 0.195325141 0.002371661 0.269062029 0.093833965 -0.001198766 0.136052108 0.044886789 Z" fill="none" stroke="#222" stroke-width="0.01" />
<path d="M -0.016775962 0.191153436 0.133973135 -0.096769660 0.071712445 -0.102233768 0.230542395 -0.339255491 0.130925291 -0.347998064 0.401824482 -0.575184393 0.127877446 -0.599226467 0.145362591 -0.798460675 -0.004063066 -0.811574534 -0.021548210 -0.612340326 -0.295495247 -0.636382400 -0.068308918 -0.365483209 -0.167926022 -0.374225781 -0.052808935 -0.113161984 -0.115069625 -0.118626092 Z" fill="none" stroke="#222" stroke-width="0.01" />
<path d="M -0.033596870 -0.043821168 0.049734694 0.270313916 0.099334741 0.232286487 0.142324353 0.514347018 0.221684428 0.453503132 0.175393956 0.804013035 0.393634162 0.636692348 0.515321935 0.795412498 0.634362047 0.704146669 0.512674275 0.545426519 0.730914482 0.378105832 0.380404579 0.331815360 0.459764654 0.270971474 0.198534835 0.156231629 0.248134882 0.118204200 Z" fill="none" stroke="#222" stroke-width="0.01" />
<path d="M -0.059082809 -0.010450917 -0.332724111 -0.185794688 -0.343610483 -0.124250095 -0.565838836 -0.303193687 -0.583257031 -0.204722338 -0.785889915 -0.494446197 -0.833789951 -0.223649989 -1.030732648 -0.258486379 -1.056859941 -0.110779356 -0.859917244 -0.075942966 -0.907817280 0.194853243 -0.618093421 -0.007779641 -0.635511616 0.090691707 -0.365383227 -0.001160909 -0.376269599 0.060383684 Z" fill="none" stroke="#222" stroke-width="0.01" />
<path d="M 0.136274268 -0.086686535 0.456491863 -0.142235539 0.422946360 -0.194970245 0.707685291 -0.213135905 0.654012486 -0.297511434 0.999133323 -0.220754624 0.851533108 -0.452787330 1.020284167 -0.560132940 0.939774959 -0.686696234 0.771023900 -0.579350624 0.623423686 -0.811383330 0.546666875 -0.466262493 0.492994070 -0.550638023 0.355855353 -0.300439656 0.322309850 -0.353174362 Z" fill="none" stroke="#222" stroke-width="0.01" />
<path d="M -0.065752731 0.244596883 -0.264348407 0.501860867 -0.203991215 0.518086136 -0.401678114 0.723819313 -0.305106606 0.749779744 -0.611436451 0.926307436 -0.345864806 0.997698620 -0.397785667 1.190841635 -0.252928406 1.229782280 -0.201007545 1.036639266 0.064564101 1.108030449 -0.111963592 0.801700605 -0.015392084 0.827661035 -0.083276831 0.550536675 -0.022919639 0.566761944 Z" fill="none" stroke="#222" stroke-width="0.01" />
<path d="M -0.155635887 -0.299667430 -0.182976941 -0.623515337 -0.238442468 -0.594708648 -0.231645065 -0.879945471 -0.320389908 -0.833854769 -0.213754557 -1.170943632 -0.457802875 -1.044194200 -0.549984280 -1.221683886 -0.683101544 -1.152547832 -0.590920139 -0.975058147 -0.834968457 -0.848308715 -0.497879594 -0.741673364 -0.586624437 -0.695582661 -0.349373521 -0.537095270 -0.404839048 -0.508288581 Z" fill="none" stroke="#222" stroke-width="0.01" />
<rect x="-1.244020970" y="-1.221683886" width="2.451466167" height="2.451466167" fill="none" stroke="#000" stroke-width="0.01" />
</g>
<text x="500" y="1472" font-family="monospace" font-size="12">sunflower</text>
<g transform="translate(960.000 1900.000) scale(56.977317771 -56.977317771) translate(3.394448607 3.277031029)">
<path d="M -0.360000000 0.290000000 -0.235000000 -0.010000000 -0.297500000 -0.010000000 -0.160000000 -0.260000000 -0.260000000 -0.260000000 -0.010000000 -0.510000000 -0.285000000 -0.510000000 -0.285000000 -0.710000000 -0.435000000 -0.710000000 -0.435000000 -0.510000000 -0.710000000 -0.510000000 -0.460000000 -0.260000000 -0.560000000 -0.260000000 -0.422500000 -0.010000000 -0.485000000 -0.010000000 Z" fill="none" stroke="#222" stroke-width="0.01" />
<path d="M 0.360000000 -1.310000000 0.235000000 -1.010000000 0.297500000 -1.010000000 0.160000000 -0.760000000 0.260000000 -0.760000000 0.010000000 -0.510000000 0.285000000 -0.510000000 0.285000000 -0.310000000 0.435000000 -0.310000000 0.435000000 -0.510000000 0.710000000 -0.510000000 0.460000000 -0.760000000 0.560000000 -0.760000000 0.422500000 -1.010000000 0.485000000 -1.010000000 Z" fill="none" stroke="#222" stroke-width="0.01" />
<path d="M 0.324000000 -0.290000000 0.199000000 0.010000000 0.261500000 0.010000000 0.124000000 0.260000000 0.224000000 0.260000000 -0.026000000 0.510000000 0.249000000 0.510000000 0.249000000 0.710000000 0.399000000 0.710000000 0.399000000 0.510000000 0.674000000 0.510000000 0.424000000 0.260000000 0.524000000 0.260000000 0.386500000 0.010000000 0.449000000 0.010000000 Z" fill="none" stroke="#222" stroke-width="0.01" />
<path d="M 1.044000000 1.310000000 1.169000000 1.010000000 1.106500000 1.010000000 1.244000000 0.760000000 1.144000000 0.760000000 1.394000000 0.510000000 1.119000000 0.510000000 1.119000000 0.310000000 0.969000000 0.310000000 0.969000000 0.510000000 0.694000000 0.510000000 0.944000000 0.760000000 0.844000000 0.760000000 0.981500000 1.010000000 0.919000000 1.010000000 Z" fill="none" stroke="#222" stroke-width="0.01" />
<path d="M 1.249700409 0.000000000 1.549700409 0.125000000 1.549700409 0.062500000 1.799700409 0.200000000 1.799700409 0.100000000 2.049700409 0.350000000 2.049700409 0.075000000 2.249700409 0.075000000 2.249700409 -0.075000000 2.049700409 -0.075000000 2.049700409 -0.350000000 1.799700409 -0.100000000 1.799700409 -0.200000000 1.549700409 -0.062500000 1.549700409 -0.125000000 Z" fill="none" stroke="#222" stroke-width="0.01" />
<path d="M -0.614883895 0.876584031 -0.920530845 0.987060010 -0.878312702 1.033145565 -1.155534837 1.100629917 -1.087985807 1.174366805 -1.441200600 1.158897159 -1.255440769 1.361673601 -1.402914545 1.496771660 -1.301591001 1.607376991 -1.154117225 1.472278932 -0.968357394 1.675055374 -0.952887748 1.321840581 -0.885338719 1.395577469 -0.793876415 1.125316674 -0.751658271 1.171402229 Z" fill="none" stroke="#222" stroke-width="0.01" />
<path d="M 0.469575438 -1.453656314 0.620324535 -1.741579411 0.558063845 -1.747043518 0.716893795 -1.984065241 0.617276691 -1.992807814 0.888175882 -2.219994143 0.614228846 -2.244036217 0.631713991 -2.443270425 0.482288335 -2.456384284 0.464803190 -2.257150076 0.190856153 -2.281192150 0.418042482 -2.010292959 0.318425378 -2.019035531 0.433542465 -1.757971734 0.371281775 -1.763435842 Z" fill="none" stroke="#222" stroke-width="0.01" />
<path d="M 1.305280541 1.256428887 1.388612105 1.570563970 1.438212152 1.532536541 1.481201764 1.814597073 1.560561839 1.753753187 1.514271367 2.104263090 1.732511573 1.936942403 1.854199346 2.095662553 1.973239458 2.004396724 1.851551686 1.845676574 2.069791893 1.678355887 1.719281990 1.632065414 1.798642065 1.571221528 1.537412246 1.456481684 1.587012293 1.418454255 Z" fill="none" stroke="#222" stroke-width="0.01" />
<rect x="-1.876073782" y="-2.456384284" width="4.560647374" height="4.560647374" fill="none" stroke="#000" stroke-width="0.01" />
</g>
<text x="960" y="1472" font-family="monospace" font-size="12">core_plus_spiral</text>
<g transform="translate(40.000 2360.000) scale(56.977317771 -56.977317771) translate(3.394448607 3.277031029)">
<path d="M 0.576501557 2.370907329 0.701501557 2.070907329 0.639001557 2.070907329 0.776501557 1.820907329 0.676501557 1.820907329 0.926501557 1.570907329 0.651501557 1.570907329 0.651501557 1.370907329 0.501501557 1.370907329 0.501501557 1.570907329 0.226501557 1.570907329 0.476501557 1.820907329 0.376501557 1.820907329 0.514001557 2.070907329 0.451501557 2.070907329 Z" fill="none" stroke="#222" stroke-width="0.01" />
<path d="M -1.469613324 2.555117437 -1.169613324 2.680117437 -1.169613324 2.617617437 -0.919613324 2.755117437 -0.919613324 2.655117437 -0.669613324 2.905117437 -0.669613324 2.630117437 -0.469613324 2.630117437 -0.469613324 2.480117437 -0.669613324 2.480117437 -0.669613324 2.205117437 -0.919613324 2.455117437 -0.919613324 2.355117437 -1.169613324 2.492617437 -1.169613324 2.430117437 Z" fill="none" stroke="#222" stroke-width="0.01" />
<path d="M -0.519005877 3.456643723 -0.394005877 3.156643723 -0.456505877 3.156643723 -0.319005877 2.906643723 -0.419005877 2.906643723 -0.169005877 2.656643723 -0.444005877 2.656643723 -0.444005877 2.456643723 -0.594005877 2.456643723 -0.594005877 2.656643723 -0.869005877 2.656643723 -0.619005877 2.906643723 -0.719005877 2.906643723 -0.581505877 3.156643723 -0.644005877 3.156643723 Z" fill="none" stroke="#222" stroke-width="0.01" />
<path d="M -2.756768996 -1.402982366 -2.456768996 -1.277982366 -2.456768996 -1.340482366 -2.206768996 -1.202982366 -2.206768996 -1.302982366 -1.956768996 -1.052982366 -1.956768996 -1.327982366 -1.756768996 -1.327982366 -1.756768996 -1.477982366 -1.956768996 -1.477982366 -1.956768996 -1.752982366 -2.206768996 -1.502982366 -2.206768996 -1.602982366 -2.456768996 -1.465482366 -2.456768996 -1.527982366 Z" fill="none" stroke="#222" stroke-width="0.01" />
<path d="M 0.034841427 -1.639351418 0.159841427 -1.939351418 0.097341427 -1.939351418 0.234841427 -2.189351418 0.134841427 -2.189351418 0.384841427 -2.439351418 0.109841427 -2.439351418 0.109841427 -2.639351418 -0.040158573 -2.639351418 -0.040158573 -2.439351418 -0.315158573 -2.439351418 -0.065158573 -2.189351418 -0.165158573 -2.189351418 -0.027658573 -1.939351418 -0.090158573 -1.939351418 Z" fill="none" stroke="#222" stroke-width="0.01" />
<path d="M 0.192370053 2.323878916 0.492370053 2.448878916 0.492370053 2.386378916 0.742370053 2.523878916 0.742370053 2.423878916 0.992370053 2.673878916 0.992370053 2.398878916 1.192370053 2.398878916 1.192370053 2.248878916 0.992370053 2.248878916 0.992370053 1.973878916 0.742370053 2.223878916 0.742370053 2.123878916 0.492370053 2.261378916 0.492370053 2.198878916 Z" fill="none" stroke="#222" stroke-width="0.01" />
<path d="M 0.931671566 -0.018350214 1.056671566 -0.318350214 0.994171566 -0.318350214 1.131671566 -0.568350214 1.031671566 -0.568350214 1.281671566 -0.818350214 1.006671566 -0.818350214 1.006671566 -1.018350214 0.856671566 -1.018350214 0.856671566 -0.818350214 0.581671566 -0.818350214 0.831671566 -0.568350214 0.731671566 -0.568350214 0.869171566 -0.318350214 0.806671566 -0.318350214 Z" fill="none" stroke="#222" stroke-width="0.01" />
<path d="M -2.019067083 1.149757199 -1.719067083 1.274757199 -1.719067083 1.212257199 -1.469067083 1.349757199 -1.469067083 1.249757199 -1.219067083 1.499757199 -1.219067083 1.224757199 -1.019067083 1.224757199 -1.019067083 1.074757199 -1.219067083 1.074757199 -1.219067083 0.799757199 -1.469067083 1.049757199 -1.469067083 0.949757199 -1.719067083 1.087257199 -1.719067083 1.024757199 Z" fill="none" stroke="#222" stroke-width="0.01" />
<rect x="-3.785546286" y="-2.639351418" width="6.095995141" height="6.095995141" fill="none" stroke="#000" stroke-width="0.01" />
</g>
<text x="40" y="1932" font-family="monospace" font-size="12">random_box</text>
</svg>
