<svg xmlns="http://www.w3.org/2000/svg" width="1420" height="2400" viewBox="0 0 1420 2400">
<rect x="0" y="0" width="1420" height="2400" fill="white" />
<text x="40" y="30" font-family="monospace" font-size="16">After compactification (center attractor) (n=6)</text>
<g transform="translate(40.000 520.000) scale(119.414947260 -119.414947260) translate(1.930567962 1.642552593)">
<path d="M 0.406033778 1.420813315 0.531033778 1.120813315 0.468533778 1.120813315 0.606033778 0.870813315 0.506033778 0.870813315 0.756033778 0.620813315 0.481033778 0.620813315 0.481033778 0.420813315 0.331033778 0.420813315 0.331033778 0.620813315 0.056033778 0.620813315 0.306033778 0.870813315 0.206033778 0.870813315 0.343533778 1.120813315 0.281033778 1.120813315 Z" fill="none" stroke="#222" stroke-width="0.01" />
<path d="M 0.291436060 0.515847772 0.416436060 0.215847772 0.353936060 0.215847772 0.491436060 -0.034152228 0.391436060 -0.034152228 0.641436060 -0.284152228 0.366436060 -0.284152228 0.366436060 -0.484152228 0.216436060 -0.484152228 0.216436060 -0.284152228 -0.058563940 -0.284152228 0.191436060 -0.034152228 0.091436060 -0.034152228 0.228936060 0.215847772 0.166436060 0.215847772 Z" fill="none" stroke="#222" stroke-width="0.01" />
<path d="M -0.143253626 0.975537567 -0.018253626 0.675537567 -0.080753626 0.675537567 0.056746374 0.425537567 -0.043253626 0.425537567 0.206746374 0.175537567 -0.068253626 0.175537567 -0.068253626 -0.024462433 -0.218253626 -0.024462433 -0.218253626 0.175537567 -0.493253626 0.175537567 -0.243253626 0.425537567 -0.343253626 0.425537567 -0.205753626 0.675537567 -0.268253626 0.675537567 Z" fill="none" stroke="#222" stroke-width="0.01" />
<path d="M -0.498208872 0.187430157 -0.373208872 -0.112569843 -0.435708872 -0.112569843 -0.298208872 -0.362569843 -0.398208872 -0.362569843 -0.148208872 -0.612569843 -0.423208872 -0.612569843 -0.423208872 -0.812569843 -0.573208872 -0.812569843 -0.573208872 -0.612569843 -0.848208872 -0.612569843 -0.598208872 -0.362569843 -0.698208872 -0.362569843 -0.560708872 -0.112569843 -0.623208872 -0.112569843 Z" fill="none" stroke="#222" stroke-width="0.01" />
<path d="M -0.850479606 0.987303532 -0.725479606 0.687303532 -0.787979606 0.687303532 -0.650479606 0.437303532 -0.750479606 0.437303532 -0.500479606 0.187303532 -0.775479606 0.187303532 -0.775479606 -0.012696468 -0.925479606 -0.012696468 -0.925479606 0.187303532 -1.200479606 0.187303532 -0.950479606 0.437303532 -1.050479606 0.437303532 -0.912979606 0.687303532 -0.975479606 0.687303532 Z" fill="none" stroke="#222" stroke-width="0.01" />
<path d="M 0.794473473 0.713068630 0.919473473 0.413068630 0.856973473 0.413068630 0.994473473 0.163068630 0.894473473 0.163068630 1.144473473 -0.086931370 0.869473473 -0.086931370 0.869473473 -0.286931370 0.719473473 -0.286931370 0.719473473 -0.086931370 0.444473473 -0.086931370 0.694473473 0.163068630 0.594473473 0.163068630 0.731973473 0.413068630 0.669473473 0.413068630 Z" fill="none" stroke="#222" stroke-width="0.01" />
<rect x="-1.200479606" y="-0.868354804" width="2.344953080" height="2.344953080" fill="none" stroke="#000" stroke-width="0.01" />
</g>
<text x="40" y="92" font-family="monospace" font-size="12">centered</text>
<g transform="translate(500.000 520.000) scale(119.414947260 -119.414947260) translate(1.930567962 1.642552593)">
<path d="M -0.500921783 0.296355152 -0.375921783 -0.003644848 -0.438421783 -0.003644848 -0.300921783 -0.253644848 -0.400921783 -0.253644848 -0.150921783 -0.503644848 -0.425921783 -0.503644848 -0.425921783 -0.703644848 -0.575921783 -0.703644848 -0.575921783 -0.503644848 -0.850921783 -0.503644848 -0.600921783 -0.253644848 -0.700921783 -0.253644848 -0.563421783 -0.003644848 -0.625921783 -0.003644848 Z" fill="none" stroke="#222" stroke-width="0.01" />
<path d="M 0.000000078 0.097277013 0.125000078 -0.202722987 0.062500078 -0.202722987 0.200000078 -0.452722987 0.100000078 -0.452722987 0.350000078 -0.702722987 0.075000078 -0.702722987 0.075000078 -0.902722987 -0.074999922 -0.902722987 -0.074999922 -0.702722987 -0.349999922 -0.702722987 -0.099999922 -0.452722987 -0.199999922 -0.452722987 -0.062499922 -0.202722987 -0.124999922 -0.202722987 Z" fill="none" stroke="#222" stroke-width="0.01" />
<path d="M 0.500921850 0.296355241 0.625921850 -0.003644759 0.563421850 -0.003644759 0.700921850 -0.253644759 0.600921850 -0.253644759 0.850921850 -0.503644759 0.575921850 -0.503644759 0.575921850 -0.703644759 0.425921850 -0.703644759 0.425921850 -0.503644759 0.150921850 -0.503644759 0.400921850 -0.253644759 0.300921850 -0.253644759 0.438421850 -0.003644759 0.375921850 -0.003644759 Z" fill="none" stroke="#222" stroke-width="0.01" />
<path d="M -0.500921966 1.303644650 -0.375921966 1.003644650 -0.438421966 1.003644650 -0.300921966 0.753644650 -0.400921966 0.753644650 -0.150921966 0.503644650 -0.425921966 0.503644650 -0.425921966 0.303644650 -0.575921966 0.303644650 -0.575921966 0.503644650 -0.850921966 0.503644650 -0.600921966 0.753644650 -0.700921966 0.753644650 -0.563421966 1.003644650 -0.625921966 1.003644650 Z" fill="none" stroke="#222" stroke-width="0.01" />
<path d="M -0.000000112 1.502722796 0.124999888 1.202722796 0.062499888 1.202722796 0.199999888 0.952722796 0.099999888 0.952722796 0.349999888 0.702722796 0.074999888 0.702722796 0.074999888 0.502722796 -0.075000112 0.502722796 -0.075000112 0.702722796 -0.350000112 0.702722796 -0.100000112 0.952722796 -0.200000112 0.952722796 -0.062500112 1.202722796 -0.125000112 1.202722796 Z" fill="none" stroke="#222" stroke-width="0.01" />
<path d="M 0.500921653 1.303644562 0.625921653 1.003644562 0.563421653 1.003644562 0.700921653 0.753644562 0.600921653 0.753644562 0.850921653 0.503644562 0.575921653 0.503644562 0.575921653 0.303644562 0.425921653 0.303644562 0.425921653 0.503644562 0.150921653 0.503644562 0.400921653 0.753644562 0.300921653 0.753644562 0.438421653 1.003644562 0.375921653 1.003644562 Z" fill="none" stroke="#222" stroke-width="0.01" />
<rect x="-1.202722949" y="-0.902722987" width="2.405445783" height="2.405445783" fill="none" stroke="#000" stroke-width="0.01" />
</g>
<text x="500" y="92" font-family="monospace" font-size="12">grid</text>
<g transform="translate(960.000 520.000) scale(119.414947260 -119.414947260) translate(1.930567962 1.642552593)">
<path d="M -0.435920063 0.181132798 -0.310920063 -0.118867202 -0.373420063 -0.118867202 -0.235920063 -0.368867202 -0.335920063 -0.368867202 -0.085920063 -0.618867202 -0.360920063 -0.618867202 -0.360920063 -0.818867202 -0.510920063 -0.818867202 -0.510920063 -0.618867202 -0.785920063 -0.618867202 -0.535920063 -0.368867202 -0.635920063 -0.368867202 -0.498420063 -0.118867202 -0.560920063 -0.118867202 Z" fill="none" stroke="#222" stroke-width="0.01" />
<path d="M -0.017073069 -0.926950341 -0.142073069 -0.626950341 -0.079573069 -0.626950341 -0.217073069 -0.376950341 -0.117073069 -0.376950341 -0.367073069 -0.126950341 -0.092073069 -0.126950341 -0.092073069 0.073049659 0.057926931 0.073049659 0.057926931 -0.126950341 0.332926931 -0.126950341 0.082926931 -0.376950341 0.182926931 -0.376950341 0.045426931 -0.626950341 0.107926931 -0.626950341 Z" fill="none" stroke="#222" stroke-width="0.01" />
<path d="M 0.439954699 0.430077427 0.564954699 0.130077427 0.502454699 0.130077427 0.639954699 -0.119922573 0.539954699 -0.119922573 0.789954699 -0.369922573 0.514954699 -0.369922573 0.514954699 -0.569922573 0.364954699 -0.569922573 0.364954699 -0.369922573 0.089954699 -0.369922573 0.339954699 -0.119922573 0.239954699 -0.119922573 0.377454699 0.130077427 0.314954699 0.130077427 Z" fill="none" stroke="#222" stroke-width="0.01" />
<path d="M -0.691406289 -0.480126111 -0.816406289 -0.180126111 -0.753906289 -0.180126111 -0.891406289 0.069873889 -0.791406289 0.069873889 -1.041406289 0.319873889 -0.766406289 0.319873889 -0.766406289 0.519873889 -0.616406289 0.519873889 -0.616406289 0.319873889 -0.341406289 0.319873889 -0.591406289 0.069873889 -0.491406289 0.069873889 -0.628906289 -0.180126111 -0.566406289 -0.180126111 Z" fill="none" stroke="#222" stroke-width="0.01" />
<path d="M -0.003909206 1.079573680 0.121090794 0.779573680 0.058590794 0.779573680 0.196090794 0.529573680 0.096090794 0.529573680 0.346090794 0.279573680 0.071090794 0.279573680 0.071090794 0.079573680 -0.078909206 0.079573680 -0.078909206 0.279573680 -0.353909206 0.279573680 -0.103909206 0.529573680 -0.203909206 0.529573680 -0.066409206 0.779573680 -0.128909206 0.779573680 Z" fill="none" stroke="#222" stroke-width="0.01" />
<path d="M 0.708354127 -0.283707813 0.583354127 0.016292187 0.645854127 0.016292187 0.508354127 0.266292187 0.608354127 0.266292187 0.358354127 0.516292187 0.633354127 0.516292187 0.633354127 0.716292187 0.783354127 0.716292187 0.783354127 0.516292187 1.058354127 0.516292187 0.808354127 0.266292187 0.908354127 0.266292187 0.770854127 0.016292187 0.833354127 0.016292187 Z" fill="none" stroke="#222" stroke-width="0.01" />
<rect x="-1.041406289" y="-0.973568539" width="2.099760416" height="2.099760416" fill="none" stroke="#000" stroke-width="0.01" />
</g>
<text x="960" y="92" font-family="monospace" font-size="12">grid_alt180</text>
<g transform="translate(40.000 980.000) scale(119.414947260 -119.414947260) translate(1.930567962 1.642552593)">
<path d="M -0.130262209 0.331526810 -0.254005896 0.031006428 -0.298200070 0.075200602 -0.377749583 -0.198803276 -0.448460261 -0.128092598 -0.448460261 -0.481645988 -0.642914626 -0.287191624 -0.784335982 -0.428612980 -0.890401999 -0.322546963 -0.748980643 -0.181125606 -0.943435008 0.013328758 -0.589881617 0.013328758 -0.660592295 0.084039436 -0.386588417 0.163588949 -0.430782591 0.207783123 Z" fill="none" stroke="#222" stroke-width="0.01" />
<path d="M -0.237403943 0.060845253 0.063116439 -0.062898434 0.018922265 -0.107092607 0.292926142 -0.186642120 0.222215464 -0.257352798 0.575768855 -0.257352798 0.381314490 -0.451807163 0.522735846 -0.593228519 0.416669829 -0.699294537 0.275248473 -0.557873180 0.080794108 -0.752327545 0.080794108 -0.398774155 0.010083430 -0.469484833 -0.069466083 -0.195480955 -0.113660257 -0.239675129 Z" fill="none" stroke="#222" stroke-width="0.01" />
<path d="M 1.197595944 0.252190963 1.073852257 -0.048329419 1.029658083 -0.004135245 0.950108570 -0.278139123 0.879397892 -0.207428445 0.879397892 -0.560981835 0.684943527 -0.366527471 0.543522171 -0.507948827 0.437456154 -0.401882810 0.578877510 -0.260461453 0.384423145 -0.066007089 0.737976536 -0.066007089 0.667265858 0.004703589 0.941269735 0.084253102 0.897075561 0.128447276 Z" fill="none" stroke="#222" stroke-width="0.01" />
<path d="M -1.175225614 0.884904957 -0.874705232 0.761161270 -0.918899406 0.716967096 -0.644895528 0.637417584 -0.715606206 0.566706905 -0.362052816 0.566706905 -0.556507181 0.372252541 -0.415085824 0.230831184 -0.521151842 0.124765167 -0.662573198 0.266186523 -0.857027563 0.071732159 -0.857027563 0.425285549 -0.927738241 0.354574871 -1.007287754 0.628578749 -1.051481927 0.584384575 Z" fill="none" stroke="#222" stroke-width="0.01" />
<path d="M 0.258660159 1.077364780 0.134916473 0.776844398 0.090722299 0.821038572 0.011172786 0.547034694 -0.059537892 0.617745373 -0.059537892 0.264191982 -0.253992257 0.458646347 -0.395413613 0.317224991 -0.501479630 0.423291008 -0.360058274 0.564712364 -0.554512639 0.759166729 -0.200959248 0.759166729 -0.271669927 0.829877407 0.002333951 0.909426920 -0.041860223 0.953621094 Z" fill="none" stroke="#222" stroke-width="0.01" />
<path d="M 0.086635400 0.787278902 0.387155782 0.663535215 0.342961608 0.619341041 0.616965486 0.539791529 0.546254808 0.469080850 0.899808198 0.469080850 0.705353834 0.274626486 0.846775190 0.133205129 0.740709173 0.027139112 0.599287816 0.168560468 0.404833452 -0.025893896 0.404833452 0.327659494 0.334122773 0.256948816 0.254573261 0.530952694 0.210379087 0.486758520 Z" fill="none" stroke="#222" stroke-width="0.01" />
<rect x="-1.175225614" y="-1.023892161" width="2.372821558" height="2.372821558" fill="none" stroke="#000" stroke-width="0.01" />
</g>
<text x="40" y="552" font-family="monospace" font-size="12">grid_alt45</text>
<g transform="translate(500.000 980.000) scale(119.414947260 -119.414947260) translate(1.930567962 1.642552593)">
<path d="M -0.948283268 0.229990322 -0.647762886 0.106246636 -0.691957060 0.062052462 -0.417953182 -0.017497051 -0.488663860 -0.088207729 -0.135110470 -0.088207729 -0.329564835 -0.282662094 -0.188143478 -0.424083450 -0.294209496 -0.530149467 -0.435630852 -0.388728111 -0.630085217 -0.583182476 -0.630085217 -0.229629085 -0.700795895 -0.300339764 -0.780345408 -0.026335886 -0.824539582 -0.070530060 Z" fill="none" stroke="#222" stroke-width="0.01" />
<path d="M 0.432103186 -0.936718494 0.131582804 -0.812974807 0.175776978 -0.768780633 -0.098226900 -0.689231120 -0.027516222 -0.618520442 -0.381069612 -0.618520442 -0.186615247 -0.424066077 -0.328036604 -0.282644721 -0.221970586 -0.176578704 -0.080549230 -0.318000060 0.113905135 -0.123545695 0.113905135 -0.477099086 0.184615813 -0.406388408 0.264165326 -0.680392285 0.308359499 -0.636198112 Z" fill="none" stroke="#222" stroke-width="0.01" />
<path d="M -0.063898446 0.170384531 0.236621936 0.046640844 0.192427762 0.002446670 0.466431640 -0.077102843 0.395720962 -0.147813521 0.749274352 -0.147813521 0.554819988 -0.342267886 0.696241344 -0.483689242 0.590175327 -0.589755259 0.448753970 -0.448333903 0.254299606 -0.642788268 0.254299606 -0.289234877 0.183588927 -0.359945555 0.104039415 -0.085941677 0.059845241 -0.130135851 Z" fill="none" stroke="#222" stroke-width="0.01" />
<path d="M 0.063508026 -0.168684135 -0.237012356 -0.044940448 -0.192818182 -0.000746275 -0.466822060 0.078803238 -0.396111382 0.149513916 -0.749664772 0.149513916 -0.555210408 0.343968281 -0.696631764 0.485389637 -0.590565747 0.591455655 -0.449144390 0.450034298 -0.254690026 0.644488663 -0.254690026 0.290935273 -0.183979347 0.361645951 -0.104429835 0.087642073 -0.060235661 0.131836247 Z" fill="none" stroke="#222" stroke-width="0.01" />
<path d="M -0.432493635 0.934869426 -0.131973253 0.811125739 -0.176167427 0.766931565 0.097836451 0.687382052 0.027125772 0.616671374 0.380679163 0.616671374 0.186224798 0.422217009 0.327646154 0.280795653 0.221580137 0.174729636 0.080158781 0.316150992 -0.114295584 0.121696627 -0.114295584 0.475250018 -0.185006262 0.404539340 -0.264555775 0.678543218 -0.308749949 0.634349044 Z" fill="none" stroke="#222" stroke-width="0.01" />
<path d="M 0.949064031 -0.229841574 0.648543649 -0.106097887 0.692737823 -0.061903714 0.418733945 0.017645799 0.489444623 0.088356477 0.135891233 0.088356477 0.330345597 0.282810842 0.188924241 0.424232198 0.294990258 0.530298216 0.436411615 0.388876859 0.630865979 0.583331224 0.630865979 0.229777834 0.701576657 0.300488512 0.781126170 0.026484634 0.825320344 0.070678808 Z" fill="none" stroke="#222" stroke-width="0.01" />
<rect x="-0.948283268" y="-0.949598183" width="1.897347299" height="1.897347299" fill="none" stroke="#000" stroke-width="0.01" />
</g>
<text x="500" y="552" font-family="monospace" font-size="12">alternating</text>
<g transform="translate(960.000 980.000) scale(119.414947260 -119.414947260) translate(1.930567962 1.642552593)">
<path d="M -0.497138784 0.571530310 -0.372138784 0.271530310 -0.434638784 0.271530310 -0.297138784 0.021530310 -0.397138784 0.021530310 -0.147138784 -0.228469690 -0.422138784 -0.228469690 -0.422138784 -0.428469690 -0.572138784 -0.428469690 -0.572138784 -0.228469690 -0.847138784 -0.228469690 -0.597138784 0.021530310 -0.697138784 0.021530310 -0.559638784 0.271530310 -0.622138784 0.271530310 Z" fill="none" stroke="#222" stroke-width="0.01" />
<path d="M -0.223230405 -1.231554154 -0.348230405 -0.931554154 -0.285730405 -0.931554154 -0.423230405 -0.681554154 -0.323230405 -0.681554154 -0.573230405 -0.431554154 -0.298230405 -0.431554154 -0.298230405 -0.231554154 -0.148230405 -0.231554154 -0.148230405 -0.431554154 0.126769595 -0.431554154 -0.123230405 -0.681554154 -0.023230405 -0.681554154 -0.160730405 -0.931554154 -0.098230405 -0.931554154 Z" fill="none" stroke="#222" stroke-width="0.01" />
<path d="M 0.203060854 0.369819101 0.328060854 0.069819101 0.265560854 0.069819101 0.403060854 -0.180180899 0.303060854 -0.180180899 0.553060854 -0.430180899 0.278060854 -0.430180899 0.278060854 -0.630180899 0.128060854 -0.630180899 0.128060854 -0.430180899 -0.146939146 -0.430180899 0.103060854 -0.180180899 0.003060854 -0.180180899 0.140560854 0.069819101 0.078060854 0.069819101 Z" fill="none" stroke="#222" stroke-width="0.01" />
<path d="M -0.087918759 -0.370461349 -0.212918759 -0.070461349 -0.150418759 -0.070461349 -0.287918759 0.179538651 -0.187918759 0.179538651 -0.437918759 0.429538651 -0.162918759 0.429538651 -0.162918759 0.629538651 -0.012918759 0.629538651 -0.012918759 0.429538651 0.262081241 0.429538651 0.012081241 0.179538651 0.112081241 0.179538651 -0.025418759 -0.070461349 0.037081241 -0.070461349 Z" fill="none" stroke="#222" stroke-width="0.01" />
<path d="M 0.338131122 1.230898654 0.463131122 0.930898654 0.400631122 0.930898654 0.538131122 0.680898654 0.438131122 0.680898654 0.688131122 0.430898654 0.413131122 0.430898654 0.413131122 0.230898654 0.263131122 0.230898654 0.263131122 0.430898654 -0.011868878 0.430898654 0.238131122 0.680898654 0.138131122 0.680898654 0.275631122 0.930898654 0.213131122 0.930898654 Z" fill="none" stroke="#222" stroke-width="0.01" />
<path d="M 0.611458232 -0.570231920 0.486458232 -0.270231920 0.548958232 -0.270231920 0.411458232 -0.020231920 0.511458232 -0.020231920 0.261458232 0.229768080 0.536458232 0.229768080 0.536458232 0.429768080 0.686458232 0.429768080 0.686458232 0.229768080 0.961458232 0.229768080 0.711458232 -0.020231920 0.811458232 -0.020231920 0.673958232 -0.270231920 0.736458232 -0.270231920 Z" fill="none" stroke="#222" stroke-width="0.01" />
<rect x="-1.174066680" y="-1.231554154" width="2.462452808" height="2.462452808" fill="none" stroke="#000" stroke-width="0.01" />
</g>
<text x="960" y="552" font-family="monospace" font-size="12">sheared_brick</text>
<g transform="translate(40.000 1440.000) scale(119.414947260 -119.414947260) translate(1.930567962 1.642552593)">
<path d="M -1.157989684 0.312486411 -0.857469302 0.188742724 -0.901663476 0.144548550 -0.627659598 0.064999037 -0.698370276 -0.005711641 -0.344816886 -0.005711641 -0.539271251 -0.200166006 -0.397849894 -0.341587362 -0.503915912 -0.447653379 -0.645337268 -0.306232023 -0.839791633 -0.500686388 -0.839791633 -0.147132997 -0.910502311 -0.217843675 -0.990051824 0.056160203 -1.034245998 0.011966029 Z" fill="none" stroke="#222" stroke-width="0.01" />
<path d="M 0.413308393 -0.161843663 0.112788011 -0.038099976 0.156982185 0.006094198 -0.117021693 0.085643711 -0.046311015 0.156354389 -0.399864406 0.156354389 -0.205410041 0.350808754 -0.346831397 0.492230110 -0.240765380 0.598296127 -0.099344024 0.456874771 0.095110341 0.651329136 0.095110341 0.297775745 0.165821019 0.368486423 0.245370532 0.094482546 0.289564706 0.138676719 Z" fill="none" stroke="#222" stroke-width="0.01" />
<path d="M -0.416886229 1.270703416 -0.116365847 1.146959729 -0.160560020 1.102765555 0.113443857 1.023216042 0.042733179 0.952505364 0.396286570 0.952505364 0.201832205 0.758050999 0.343253561 0.616629643 0.237187544 0.510563626 0.095766188 0.651984982 -0.098688177 0.457530617 -0.098688177 0.811084008 -0.169398855 0.740373330 -0.248948368 1.014377208 -0.293142542 0.970183034 Z" fill="none" stroke="#222" stroke-width="0.01" />
<path d="M 0.416914586 -1.270680342 0.116394204 -1.146936655 0.160588377 -1.102742482 -0.113415500 -1.023192969 -0.042704822 -0.952482291 -0.396258213 -0.952482291 -0.201803848 -0.758027926 -0.343225204 -0.616606569 -0.237159187 -0.510540552 -0.095737831 -0.651961909 0.098716534 -0.457507544 0.098716534 -0.811060934 0.169427212 -0.740350256 0.248976725 -1.014354134 0.293170899 -0.970159960 Z" fill="none" stroke="#222" stroke-width="0.01" />
<path d="M -0.413319285 0.161827488 -0.112798903 0.038083801 -0.156993076 -0.006110373 0.117010801 -0.085659886 0.046300123 -0.156370564 0.399853514 -0.156370564 0.205399149 -0.350824929 0.346820505 -0.492246285 0.240754488 -0.598312302 0.099333132 -0.456890946 -0.095121233 -0.651345311 -0.095121233 -0.297791920 -0.165831911 -0.368502598 -0.245381424 -0.094498721 -0.289575598 -0.138692894 Z" fill="none" stroke="#222" stroke-width="0.01" />
<path d="M 1.157970375 -0.312493731 0.857449993 -0.188750044 0.901644167 -0.144555870 0.627640289 -0.065006357 0.698350967 0.005704321 0.344797577 0.005704321 0.539251942 0.200158686 0.397830585 0.341580042 0.503896603 0.447646059 0.645317959 0.306224703 0.839772324 0.500679068 0.839772324 0.147125677 0.910483002 0.217836355 0.990032515 -0.056167522 1.034226688 -0.011973349 Z" fill="none" stroke="#222" stroke-width="0.01" />
<rect x="-1.270701533" y="-1.270680342" width="2.541383758" height="2.541383758" fill="none" stroke="#000" stroke-width="0.01" />
</g>
<text x="40" y="1012" font-family="monospace" font-size="12">diamond_lattice</text>
<g transform="translate(500.000 1440.000) scale(119.414947260 -119.414947260) translate(1.930567962 1.642552593)">
<path d="M -0.641450080 0.114749946 -0.516450080 -0.185250054 -0.578950080 -0.185250054 -0.441450080 -0.435250054 -0.541450080 -0.435250054 -0.291450080 -0.685250054 -0.566450080 -0.685250054 -0.566450080 -0.885250054 -0.716450080 -0.885250054 -0.716450080 -0.685250054 -0.991450080 -0.685250054 -0.741450080 -0.435250054 -0.841450080 -0.435250054 -0.703950080 -0.185250054 -0.766450080 -0.185250054 Z" fill="none" stroke="#222" stroke-width="0.01" />
<path d="M -0.101468680 0.522446634 0.023531320 0.222446634 -0.038968680 0.222446634 0.098531320 -0.027553366 -0.001468680 -0.027553366 0.248531320 -0.277553366 -0.026468680 -0.277553366 -0.026468680 -0.477553366 -0.176468680 -0.477553366 -0.176468680 -0.277553366 -0.451468680 -0.277553366 -0.201468680 -0.027553366 -0.301468680 -0.027553366 -0.163968680 0.222446634 -0.226468680 0.222446634 Z" fill="none" stroke="#222" stroke-width="0.01" />
<path d="M 0.414859030 0.338774343 0.539859030 0.038774343 0.477359030 0.038774343 0.614859030 -0.211225657 0.514859030 -0.211225657 0.764859030 -0.461225657 0.489859030 -0.461225657 0.489859030 -0.661225657 0.339859030 -0.661225657 0.339859030 -0.461225657 0.064859030 -0.461225657 0.314859030 -0.211225657 0.214859030 -0.211225657 0.352359030 0.038774343 0.289859030 0.038774343 Z" fill="none" stroke="#222" stroke-width="0.01" />
<path d="M -1.226468680 0.271781458 -0.926468680 0.396781458 -0.926468680 0.334281458 -0.676468680 0.471781458 -0.676468680 0.371781458 -0.426468680 0.621781458 -0.426468680 0.346781458 -0.226468680 0.346781458 -0.226468680 0.196781458 -0.426468680 0.196781458 -0.426468680 -0.078218542 -0.676468680 0.171781458 -0.676468680 0.071781458 -0.926468680 0.209281458 -0.926468680 0.146781458 Z" fill="none" stroke="#222" stroke-width="0.01" />
<path d="M -0.732305728 0.747669477 -0.432305728 0.872669477 -0.432305728 0.810169477 -0.182305728 0.947669477 -0.182305728 0.847669477 0.067694272 1.097669477 0.067694272 0.822669477 0.267694272 0.822669477 0.267694272 0.672669477 0.067694272 0.672669477 0.067694272 0.397669477 -0.182305728 0.647669477 -0.182305728 0.547669477 -0.432305728 0.685169477 -0.432305728 0.622669477 Z" fill="none" stroke="#222" stroke-width="0.01" />
<path d="M 0.093249390 0.430622703 0.393249390 0.555622703 0.393249390 0.493122703 0.643249390 0.630622703 0.643249390 0.530622703 0.893249390 0.780622703 0.893249390 0.505622703 1.093249390 0.505622703 1.093249390 0.355622703 0.893249390 0.355622703 0.893249390 0.080622703 0.643249390 0.330622703 0.643249390 0.230622703 0.393249390 0.368122703 0.393249390 0.305622703 Z" fill="none" stroke="#222" stroke-width="0.01" />
<rect x="-1.226468680" y="-1.053649323" width="2.319718070" height="2.319718070" fill="none" stroke="#000" stroke-width="0.01" />
</g>
<text x="500" y="1012" font-family="monospace" font-size="12">herringbone</text>
<g transform="translate(960.000 1440.000) scale(119.414947260 -119.414947260) translate(1.930567962 1.642552593)">
<path d="M 0.482111104 0.963809054 0.607111104 0.663809054 0.544611104 0.663809054 0.682111104 0.413809054 0.582111104 0.413809054 0.832111104 0.163809054 0.557111104 0.163809054 0.557111104 -0.036190946 0.407111104 -0.036190946 0.407111104 0.163809054 0.132111104 0.163809054 0.382111104 0.413809054 0.282111104 0.413809054 0.419611104 0.663809054 0.357111104 0.663809054 Z" fill="none" stroke="#222" stroke-width="0.01" />
<path d="M -0.593607322 0.899415304 -0.271299701 0.857668480 -0.302549701 0.803541892 -0.017293350 0.797620385 -0.067293350 0.711017845 0.274213001 0.802524196 0.136713001 0.564367210 0.309918081 0.464367210 0.234918081 0.334463399 0.061713001 0.434463399 -0.075786999 0.196306413 -0.167293350 0.537812764 -0.217293350 0.451210223 -0.365049701 0.695288716 -0.396299701 0.641162129 Z" fill="none" stroke="#222" stroke-width="0.01" />
<path d="M -1.075774106 -0.064413040 -0.878466485 0.193840135 -0.847216485 0.139713547 -0.699460134 0.383792040 -0.649460134 0.297189500 -0.557953783 0.638695851 -0.420453783 0.400538865 -0.247248702 0.500538865 -0.172248702 0.370635054 -0.345453783 0.270635054 -0.207953783 0.032478068 -0.549460134 0.123984419 -0.499460134 0.037381879 -0.784716485 0.031460372 -0.753466485 -0.022666216 Z" fill="none" stroke="#222" stroke-width="0.01" />
<path d="M -0.482099329 -0.963814629 -0.607099329 -0.663814629 -0.544599329 -0.663814629 -0.682099329 -0.413814629 -0.582099329 -0.413814629 -0.832099329 -0.163814629 -0.557099329 -0.163814629 -0.557099329 0.036185371 -0.407099329 0.036185371 -0.407099329 -0.163814629 -0.132099329 -0.163814629 -0.382099329 -0.413814629 -0.282099329 -0.413814629 -0.419599329 -0.663814629 -0.357099329 -0.663814629 Z" fill="none" stroke="#222" stroke-width="0.01" />
<path d="M 0.593641453 -0.899401659 0.271333832 -0.857654834 0.302583832 -0.803528246 0.017327481 -0.797606740 0.067327481 -0.711004199 -0.274178870 -0.802510550 -0.136678870 -0.564353564 -0.309883951 -0.464353564 -0.234883951 -0.334449753 -0.061678870 -0.434449753 0.075821130 -0.196292767 0.167327481 -0.537799118 0.217327481 -0.451196578 0.365083832 -0.695275071 0.396333832 -0.641148483 Z" fill="none" stroke="#222" stroke-width="0.01" />
<path d="M 1.075727174 0.064406051 0.878419553 -0.193847124 0.847169553 -0.139720537 0.699413202 -0.383799030 0.649413202 -0.297196489 0.557906851 -0.638702840 0.420406851 -0.400545854 0.247201770 -0.500545854 0.172201770 -0.370642044 0.345406851 -0.270642044 0.207906851 -0.032485058 0.549413202 -0.123991408 0.499413202 -0.037388868 0.784669553 -0.031467361 0.753419553 0.022659227 Z" fill="none" stroke="#222" stroke-width="0.01" />
<rect x="-1.075774106" y="-1.075753428" width="2.151501280" height="2.151501280" fill="none" stroke="#000" stroke-width="0.01" />
</g>
<text x="960" y="1012" font-family="monospace" font-size="12">circle_ring</text>
<g transform="translate(40.000 1900.000) scale(119.414947260 -119.414947260) translate(1.930567962 1.642552593)">
<path d="M 0.092629483 0.633190804 0.217629483 0.333190804 0.155129483 0.333190804 0.292629483 0.083190804 0.192629483 0.083190804 0.442629483 -0.166809196 0.167629483 -0.166809196 0.167629483 -0.366809196 0.017629483 -0.366809196 0.017629483 -0.166809196 -0.257370517 -0.166809196 -0.007370517 0.083190804 -0.107370517 0.083190804 0.030129483 0.333190804 -0.032370517 0.333190804 Z" fill="none" stroke="#222" stroke-width="0.01" />
<path d="M -0.081868251 0.890333953 0.226013764 0.786249060 0.184764817 0.739294035 0.463332601 0.677599304 0.397334286 0.602471263 0.750150174 0.625295578 0.568654809 0.418693467 0.718910890 0.286696838 0.619913418 0.174004777 0.469657337 0.306001406 0.288161972 0.099399295 0.265337657 0.452215182 0.199339343 0.377087142 0.102266924 0.645383984 0.061017977 0.598428959 Z" fill="none" stroke="#222" stroke-width="0.01" />
<path d="M -0.966951361 0.441080985 -0.685557479 0.603692434 -0.677504699 0.541713384 -0.447304614 0.710278419 -0.434420164 0.611111938 -0.218715085 0.891239264 -0.183282849 0.618531441 0.015050113 0.644300340 0.034376787 0.495550618 -0.163956175 0.469781719 -0.128523939 0.197073896 -0.408651266 0.412778976 -0.395766816 0.313612494 -0.661399137 0.417755282 -0.653346356 0.355776232 Z" fill="none" stroke="#222" stroke-width="0.01" />
<path d="M -0.909840198 -0.550966810 -0.846291775 -0.232240285 -0.794413429 -0.267095517 -0.769124861 0.017099377 -0.686119507 -0.038668994 -0.754211962 0.308265319 -0.525947240 0.154902297 -0.414410496 0.320913004 -0.289902466 0.237260446 -0.401439209 0.071249739 -0.173174487 -0.082113283 -0.520108800 -0.150205738 -0.437103447 -0.205974109 -0.690656737 -0.336805982 -0.638778391 -0.371661214 Z" fill="none" stroke="#222" stroke-width="0.01" />
<path d="M -0.116660020 -1.093598314 -0.314172124 -0.835501494 -0.253747237 -0.819530175 -0.450567264 -0.612967529 -0.353887445 -0.587413419 -0.659472269 -0.409599146 -0.393602766 -0.339325343 -0.444710986 -0.145965704 -0.299691257 -0.107634539 -0.248583037 -0.300994178 0.017286466 -0.230720375 -0.160527807 -0.536305198 -0.063847987 -0.510751088 -0.132897463 -0.787587538 -0.072472576 -0.771616219 Z" fill="none" stroke="#222" stroke-width="0.01" />
<path d="M 0.821009634 -0.851771464 0.496751891 -0.829818887 0.524632359 -0.773882052 0.239547989 -0.785421216 0.284156738 -0.695922281 -0.051112474 -0.808147748 0.071561586 -0.562025674 -0.107436286 -0.472808176 -0.040523162 -0.338559772 0.138474710 -0.427777270 0.261148769 -0.181655197 0.373374236 -0.516924409 0.417982985 -0.427425473 0.580393295 -0.662008382 0.608273763 -0.606071547 Z" fill="none" stroke="#222" stroke-width="0.01" />
<rect x="-1.065389652" y="-1.093598314" width="1.984837578" height="1.984837578" fill="none" stroke="#000" stroke-width="0.01" />
</g>
<text x="40" y="1472" font-family="monospace" font-size="12">spiral</text>
<g transform="translate(500.000 1900.000) scale(119.414947260 -119.414947260) translate(1.930567962 1.642552593)">
<path d="M -1.022769006 0.080232862 -0.722769006 0.205232862 -0.722769006 0.142732862 -0.472769006 0.280232862 -0.472769006 0.180232862 -0.222769006 0.430232862 -0.222769006 0.155232862 -0.022769006 0.155232862 -0.022769006 0.005232862 -0.222769006 0.005232862 -0.222769006 -0.269767138 -0.472769006 -0.019767138 -0.472769006 -0.119767138 -0.722769006 0.017732862 -0.722769006 -0.044767138 Z" fill="none" stroke="#222" stroke-width="0.01" />
<path d="M 0.183808386 0.238824581 -0.121838564 0.349300559 -0.079620421 0.395386114 -0.356842556 0.462870467 -0.289293526 0.536607355 -0.642508319 0.521137709 -0.456748488 0.723914151 -0.604222264 0.859012209 -0.502898720 0.969617541 -0.355424944 0.834519482 -0.169665113 1.037295924 -0.154195467 0.684081131 -0.086646438 0.757818018 0.004815866 0.487557224 0.047034010 0.533642779 Z" fill="none" stroke="#222" stroke-width="0.01" />
<path d="M 0.065043176 -0.014121204 0.215792274 -0.302044300 0.153531584 -0.307508408 0.312361533 -0.544530131 0.212744429 -0.553272704 0.483643620 -0.780459033 0.209696584 -0.804501107 0.227181729 -1.003735315 0.077756073 -1.016849174 0.060270928 -0.817614966 -0.213676108 -0.841657040 0.013510221 -0.570757849 -0.086106883 -0.579500421 0.029010204 -0.318436624 -0.033250487 -0.323900732 Z" fill="none" stroke="#222" stroke-width="0.01" />
<path d="M 0.159025603 0.071250811 0.242357167 0.385385894 0.291957214 0.347358465 0.334946826 0.629418997 0.414306901 0.568575110 0.368016428 0.919085014 0.586256635 0.751764327 0.707944407 0.910484477 0.826984520 0.819218648 0.705296748 0.660498498 0.923536954 0.493177811 0.573027051 0.446887338 0.652387126 0.386043452 0.391157308 0.271303608 0.440757355 0.233276179 Z" fill="none" stroke="#222" stroke-width="0.01" />
<path d="M -0.041450691 -0.310259399 -0.315091993 -0.485603170 -0.325978365 -0.424058577 -0.548206718 -0.603002169 -0.565624913 -0.504530820 -0.768257797 -0.794254679 -0.816157833 -0.523458471 -1.013100530 -0.558294861 -1.039227823 -0.410587838 -0.842285126 -0.375751448 -0.890185162 -0.104955239 -0.600461303 -0.307588123 -0.617879498 -0.209116774 -0.347751109 -0.300969391 -0.358637481 -0.239424798 Z" fill="none" stroke="#222" stroke-width="0.01" />
<path d="M 0.028102226 0.058994626 0.348319821 0.003445623 0.314774318 -0.049289083 0.599513249 -0.067454744 0.545840443 -0.151830273 0.890961280 -0.075073462 0.743361066 -0.307106169 0.912112125 -0.414451779 0.831602917 -0.541015073 0.662851858 -0.433669463 0.515251643 -0.665702169 0.438494833 -0.320581332 0.384822028 -0.404956861 0.247683311 -0.154758495 0.214137808 -0.207493201 Z" fill="none" stroke="#222" stroke-width="0.01" />
<rect x="-1.084917983" y="-1.016849174" width="2.054145098" height="2.054145098" fill="none" stroke="#000" stroke-width="0.01" />
</g>
<text x="500" y="1472" font-family="monospace" font-size="12">sunflower</text>
<g transform="translate(960.000 1900.000) scale(119.414947260 -119.414947260) translate(1.930567962 1.642552593)">
<path d="M -0.208342342 0.549564924 -0.083342342 0.249564924 -0.145842342 0.249564924 -0.008342342 -0.000435076 -0.108342342 -0.000435076 0.141657658 -0.250435076 -0.133342342 -0.250435076 -0.133342342 -0.450435076 -0.283342342 -0.450435076 -0.283342342 -0.250435076 -0.558342342 -0.250435076 -0.308342342 -0.000435076 -0.408342342 -0.000435076 -0.270842342 0.249564924 -0.333342342 0.249564924 Z" fill="none" stroke="#222" stroke-width="0.01" />
<path d="M 0.378771188 -1.095622732 0.253771188 -0.795622732 0.316271188 -0.795622732 0.178771188 -0.545622732 0.278771188 -0.545622732 0.028771188 -0.295622732 0.303771188 -0.295622732 0.303771188 -0.095622732 0.453771188 -0.095622732 0.453771188 -0.295622732 0.728771188 -0.295622732 0.478771188 -0.545622732 0.578771188 -0.545622732 0.441271188 -0.795622732 0.503771188 -0.795622732 Z" fill="none" stroke="#222" stroke-width="0.01" />
<path d="M 0.047214378 -0.124339217 -0.077785622 0.175660783 -0.015285622 0.175660783 -0.152785622 0.425660783 -0.052785622 0.425660783 -0.302785622 0.675660783 -0.027785622 0.675660783 -0.027785622 0.875660783 0.122214378 0.875660783 0.122214378 0.675660783 0.397214378 0.675660783 0.147214378 0.425660783 0.247214378 0.425660783 0.109714378 0.175660783 0.172214378 0.175660783 Z" fill="none" stroke="#222" stroke-width="0.01" />
<path d="M 0.118416925 0.029377268 0.418416925 0.154377268 0.418416925 0.091877268 0.668416925 0.229377268 0.668416925 0.129377268 0.918416925 0.379377268 0.918416925 0.104377268 1.118416925 0.104377268 1.118416925 -0.045622732 0.918416925 -0.045622732 0.918416925 -0.320622732 0.668416925 -0.070622732 0.668416925 -0.170622732 0.418416925 -0.033122732 0.418416925 -0.095622732 Z" fill="none" stroke="#222" stroke-width="0.01" />
<path d="M -0.389383462 0.059147280 -0.695030412 0.169623258 -0.652812269 0.215708813 -0.930034404 0.283193166 -0.862485375 0.356930054 -1.215700168 0.341460408 -1.029940337 0.544236849 -1.177414112 0.679334908 -1.076090568 0.789940240 -0.928616793 0.654842181 -0.742856962 0.857618622 -0.727387316 0.504403829 -0.659838286 0.578140717 -0.568375982 0.307879923 -0.526157839 0.353965478 Z" fill="none" stroke="#222" stroke-width="0.01" />
<path d="M -0.066884040 -0.264353422 0.083865058 -0.552276518 0.021604368 -0.557740626 0.180434317 -0.794762349 0.080817213 -0.803504922 0.351716405 -1.030691251 0.077769368 -1.054733325 0.095254513 -1.253967533 -0.054171143 -1.267081392 -0.071656288 -1.067847184 -0.345603324 -1.091889258 -0.118416995 -0.820990067 -0.218034099 -0.829732639 -0.102917012 -0.568668842 -0.165177702 -0.574132949 Z" fill="none" stroke="#222" stroke-width="0.01" />
<rect x="-1.215700168" y="-1.362768851" width="2.334117093" height="2.334117093" fill="none" stroke="#000" stroke-width="0.01" />
</g>
<text x="960" y="1472" font-family="monospace" font-size="12">core_plus_spiral</text>
<g transform="translate(40.000 2360.000) scale(119.414947260 -119.414947260) translate(1.930567962 1.642552593)">
<path d="M -0.071330209 0.639765042 0.053669791 0.339765042 -0.008830209 0.339765042 0.128669791 0.089765042 0.028669791 0.089765042 0.278669791 -0.160234958 0.003669791 -0.160234958 0.003669791 -0.360234958 -0.146330209 -0.360234958 -0.146330209 -0.160234958 -0.421330209 -0.160234958 -0.171330209 0.089765042 -0.271330209 0.089765042 -0.133830209 0.339765042 -0.196330209 0.339765042 Z" fill="none" stroke="#222" stroke-width="0.01" />
<path d="M -1.558695711 0.477757460 -1.258695711 0.602757460 -1.258695711 0.540257460 -1.008695711 0.677757460 -1.008695711 0.577757460 -0.758695711 0.827757460 -0.758695711 0.552757460 -0.558695711 0.552757460 -0.558695711 0.402757460 -0.758695711 0.402757460 -0.758695711 0.127757460 -1.008695711 0.377757460 -1.008695711 0.277757460 -1.258695711 0.415257460 -1.258695711 0.352757460 Z" fill="none" stroke="#222" stroke-width="0.01" />
<path d="M 0.401189006 1.030638982 0.526189006 0.730638982 0.463689006 0.730638982 0.601189006 0.480638982 0.501189006 0.480638982 0.751189006 0.230638982 0.476189006 0.230638982 0.476189006 0.030638982 0.326189006 0.030638982 0.326189006 0.230638982 0.051189006 0.230638982 0.301189006 0.480638982 0.201189006 0.480638982 0.338689006 0.730638982 0.276189006 0.730638982 Z" fill="none" stroke="#222" stroke-width="0.01" />
<path d="M -0.333997798 -0.485240066 -0.033997798 -0.360240066 -0.033997798 -0.422740066 0.216002202 -0.285240066 0.216002202 -0.385240066 0.466002202 -0.135240066 0.466002202 -0.410240066 0.666002202 -0.410240066 0.666002202 -0.560240066 0.466002202 -0.560240066 0.466002202 -0.835240066 0.216002202 -0.585240066 0.216002202 -0.685240066 -0.033997798 -0.547740066 -0.033997798 -0.610240066 Z" fill="none" stroke="#222" stroke-width="0.01" />
<path d="M -0.446080378 -0.100834502 -0.321080378 -0.400834502 -0.383580378 -0.400834502 -0.246080378 -0.650834502 -0.346080378 -0.650834502 -0.096080378 -0.900834502 -0.371080378 -0.900834502 -0.371080378 -1.100834502 -0.521080378 -1.100834502 -0.521080378 -0.900834502 -0.796080378 -0.900834502 -0.546080378 -0.650834502 -0.646080378 -0.650834502 -0.508580378 -0.400834502 -0.571080378 -0.400834502 Z" fill="none" stroke="#222" stroke-width="0.01" />
<path d="M -1.359503479 -0.023050292 -1.059503479 0.101949708 -1.059503479 0.039449708 -0.809503479 0.176949708 -0.809503479 0.076949708 -0.559503479 0.326949708 -0.559503479 0.051949708 -0.359503479 0.051949708 -0.359503479 -0.098050292 -0.559503479 -0.098050292 -0.559503479 -0.373050292 -0.809503479 -0.123050292 -0.809503479 -0.223050292 -1.059503479 -0.085550292 -1.059503479 -0.148050292 Z" fill="none" stroke="#222" stroke-width="0.01" />
<rect x="-1.558695711" y="-1.190040118" width="2.309884716" height="2.309884716" fill="none" stroke="#000" stroke-width="0.01" />
</g>
<text x="40" y="1932" font-family="monospace" font-size="12">random_box</text>
</svg>
