<svg xmlns="http://www.w3.org/2000/svg" width="1420" height="2400" viewBox="0 0 1420 2400">
<rect x="0" y="0" width="1420" height="2400" fill="white" />
<text x="40" y="30" font-family="monospace" font-size="16">After compactification (corner shove) (n=2)</text>
<g transform="translate(40.000 520.000) scale(122.075514884 -122.075514884) translate(2.691016233 2.717252258)">
<path d="M -0.826796260 0.156655365 -0.701796260 -0.143344635 -0.764296260 -0.143344635 -0.626796260 -0.393344635 -0.726796260 -0.393344635 -0.476796260 -0.643344635 -0.751796260 -0.643344635 -0.751796260 -0.843344635 -0.901796260 -0.843344635 -0.901796260 -0.643344635 -1.176796260 -0.643344635 -0.926796260 -0.393344635 -1.026796260 -0.393344635 -0.889296260 -0.143344635 -0.951796260 -0.143344635 Z" fill="none" stroke="#222" stroke-width="0.01" />
<path d="M -1.326796260 0.356655365 -1.201796260 0.056655365 -1.264296260 0.056655365 -1.126796260 -0.193344635 -1.226796260 -0.193344635 -0.976796260 -0.443344635 -1.251796260 -0.443344635 -1.251796260 -0.643344635 -1.401796260 -0.643344635 -1.401796260 -0.443344635 -1.676796260 -0.443344635 -1.426796260 -0.193344635 -1.526796260 -0.193344635 -1.389296260 0.056655365 -1.451796260 0.056655365 Z" fill="none" stroke="#222" stroke-width="0.01" />
<rect x="-1.676796260" y="-0.843344635" width="1.200000000" height="1.200000000" fill="none" stroke="#000" stroke-width="0.01" />
</g>
<text x="40" y="92" font-family="monospace" font-size="12">centered</text>
<g transform="translate(500.000 520.000) scale(122.075514884 -122.075514884) translate(2.691016233 2.717252258)">
<path d="M -1.356646569 0.326806045 -1.231646569 0.026806045 -1.294146569 0.026806045 -1.156646569 -0.223193955 -1.256646569 -0.223193955 -1.006646569 -0.473193955 -1.281646569 -0.473193955 -1.281646569 -0.673193955 -1.431646569 -0.673193955 -1.431646569 -0.473193955 -1.706646569 -0.473193955 -1.456646569 -0.223193955 -1.556646569 -0.223193955 -1.419146569 0.026806045 -1.481646569 0.026806045 Z" fill="none" stroke="#222" stroke-width="0.01" />
<path d="M -0.856646569 0.126806045 -0.731646569 -0.173193955 -0.794146569 -0.173193955 -0.656646569 -0.423193955 -0.756646569 -0.423193955 -0.506646569 -0.673193955 -0.781646569 -0.673193955 -0.781646569 -0.873193955 -0.931646569 -0.873193955 -0.931646569 -0.673193955 -1.206646569 -0.673193955 -0.956646569 -0.423193955 -1.056646569 -0.423193955 -0.919146569 -0.173193955 -0.981646569 -0.173193955 Z" fill="none" stroke="#222" stroke-width="0.01" />
<rect x="-1.706646569" y="-0.873193955" width="1.200000000" height="1.200000000" fill="none" stroke="#000" stroke-width="0.01" />
</g>
<text x="500" y="92" font-family="monospace" font-size="12">grid</text>
<g transform="translate(960.000 520.000) scale(122.075514884 -122.075514884) translate(2.691016233 2.717252258)">
<path d="M -1.635369207 -0.622540025 -1.510369207 -0.922540025 -1.572869207 -0.922540025 -1.435369207 -1.172540025 -1.535369207 -1.172540025 -1.285369207 -1.422540025 -1.560369207 -1.422540025 -1.560369207 -1.622540025 -1.710369207 -1.622540025 -1.710369207 -1.422540025 -1.985369207 -1.422540025 -1.735369207 -1.172540025 -1.835369207 -1.172540025 -1.697869207 -0.922540025 -1.760369207 -0.922540025 Z" fill="none" stroke="#222" stroke-width="0.01" />
<path d="M -1.209709852 -2.222540025 -1.334709852 -1.922540025 -1.272209852 -1.922540025 -1.409709852 -1.672540025 -1.309709852 -1.672540025 -1.559709852 -1.422540025 -1.284709852 -1.422540025 -1.284709852 -1.222540025 -1.134709852 -1.222540025 -1.134709852 -1.422540025 -0.859709852 -1.422540025 -1.109709852 -1.672540025 -1.009709852 -1.672540025 -1.147209852 -1.922540025 -1.084709852 -1.922540025 Z" fill="none" stroke="#222" stroke-width="0.01" />
<rect x="-2.222539530" y="-2.222540025" width="1.600000000" height="1.600000000" fill="none" stroke="#000" stroke-width="0.01" />
</g>
<text x="960" y="92" font-family="monospace" font-size="12">grid_alt180</text>
<g transform="translate(40.000 980.000) scale(122.075514884 -122.075514884) translate(2.691016233 2.717252258)">
<path d="M -1.282736247 -0.366579519 -1.406479933 -0.667099901 -1.450674107 -0.622905727 -1.530223620 -0.896909605 -1.600934298 -0.826198927 -1.600934298 -1.179752318 -1.795388663 -0.985297953 -1.936810019 -1.126719309 -2.042876037 -1.020653292 -1.901454680 -0.879231936 -2.095909045 -0.684777571 -1.742355655 -0.684777571 -1.813066333 -0.614066893 -1.539062455 -0.534517380 -1.583256629 -0.490323206 Z" fill="none" stroke="#222" stroke-width="0.01" />
<path d="M -1.441863831 -0.660838869 -1.141343449 -0.784582556 -1.185537623 -0.828776730 -0.911533745 -0.908326243 -0.982244423 -0.979036921 -0.628691032 -0.979036921 -0.823145397 -1.173491286 -0.681724041 -1.314912642 -0.787790058 -1.420978659 -0.929211414 -1.279557303 -1.123665779 -1.474011668 -1.123665779 -1.120458277 -1.194376457 -1.191168955 -1.273925970 -0.917165078 -1.318120144 -0.961359251 Z" fill="none" stroke="#222" stroke-width="0.01" />
<rect x="-2.095909045" y="-1.653904600" width="1.467218013" height="1.467218013" fill="none" stroke="#000" stroke-width="0.01" />
</g>
<text x="40" y="552" font-family="monospace" font-size="12">grid_alt45</text>
<g transform="translate(500.000 980.000) scale(122.075514884 -122.075514884) translate(2.691016233 2.717252258)">
<path d="M -2.056172663 -0.782873426 -1.755652281 -0.906617113 -1.799846455 -0.950811286 -1.525842577 -1.030360799 -1.596553256 -1.101071477 -1.242999865 -1.101071477 -1.437454230 -1.295525842 -1.296032874 -1.436947198 -1.402098891 -1.543013216 -1.543520247 -1.401591859 -1.737974612 -1.596046224 -1.737974612 -1.242492834 -1.808685290 -1.313203512 -1.888234803 -1.039199634 -1.932428977 -1.083393808 Z" fill="none" stroke="#222" stroke-width="0.01" />
<path d="M -0.676633694 -1.949932962 -0.977154076 -1.826189275 -0.932959902 -1.781995102 -1.206963780 -1.702445589 -1.136253102 -1.631734911 -1.489806492 -1.631734911 -1.295352128 -1.437280546 -1.436773484 -1.295859189 -1.330707467 -1.189793172 -1.189286110 -1.331214529 -0.994831746 -1.136760164 -0.994831746 -1.490313554 -0.924121067 -1.419602876 -0.844571555 -1.693606754 -0.800377381 -1.649412580 Z" fill="none" stroke="#222" stroke-width="0.01" />
<rect x="-2.056172663" y="-2.056172679" width="1.379538969" height="1.379538969" fill="none" stroke="#000" stroke-width="0.01" />
</g>
<text x="500" y="552" font-family="monospace" font-size="12">alternating</text>
<g transform="translate(960.000 980.000) scale(122.075514884 -122.075514884) translate(2.691016233 2.717252258)">
<path d="M -1.635369768 -0.622539499 -1.510369768 -0.922539499 -1.572869768 -0.922539499 -1.435369768 -1.172539499 -1.535369768 -1.172539499 -1.285369768 -1.422539499 -1.560369768 -1.422539499 -1.560369768 -1.622539499 -1.710369768 -1.622539499 -1.710369768 -1.422539499 -1.985369768 -1.422539499 -1.735369768 -1.172539499 -1.835369768 -1.172539499 -1.697869768 -0.922539499 -1.760369768 -0.922539499 Z" fill="none" stroke="#222" stroke-width="0.01" />
<path d="M -1.209710401 -2.222539499 -1.334710401 -1.922539499 -1.272210401 -1.922539499 -1.409710401 -1.672539499 -1.309710401 -1.672539499 -1.559710401 -1.422539499 -1.284710401 -1.422539499 -1.284710401 -1.222539499 -1.134710401 -1.222539499 -1.134710401 -1.422539499 -0.859710401 -1.422539499 -1.109710401 -1.672539499 -1.009710401 -1.672539499 -1.147210401 -1.922539499 -1.084710401 -1.922539499 Z" fill="none" stroke="#222" stroke-width="0.01" />
<rect x="-2.222540084" y="-2.222539499" width="1.600000000" height="1.600000000" fill="none" stroke="#000" stroke-width="0.01" />
</g>
<text x="960" y="552" font-family="monospace" font-size="12">sheared_brick</text>
<g transform="translate(40.000 1440.000) scale(122.075514884 -122.075514884) translate(2.691016233 2.717252258)">
<path d="M -1.809963420 -0.854872596 -1.509443038 -0.978616283 -1.553637211 -1.022810457 -1.279633334 -1.102359969 -1.350344012 -1.173070648 -0.996790621 -1.173070648 -1.191244986 -1.367525012 -1.049823630 -1.508946369 -1.155889647 -1.615012386 -1.297311003 -1.473591030 -1.491765368 -1.668045394 -1.491765368 -1.314492004 -1.562476046 -1.385202682 -1.642025559 -1.111198804 -1.686219733 -1.155392978 Z" fill="none" stroke="#222" stroke-width="0.01" />
<path d="M -0.536179007 -1.491268699 -0.836699389 -1.367525012 -0.792505216 -1.323330839 -1.066509093 -1.243781326 -0.995798415 -1.173070648 -1.349351806 -1.173070648 -1.154897441 -0.978616283 -1.296318797 -0.837194926 -1.190252780 -0.731128909 -1.048831424 -0.872550266 -0.854377059 -0.678095901 -0.854377059 -1.031649291 -0.783666381 -0.960938613 -0.704116868 -1.234942491 -0.659922694 -1.190748317 Z" fill="none" stroke="#222" stroke-width="0.01" />
<rect x="-1.809963420" y="-1.809962854" width="1.273784412" height="1.273784412" fill="none" stroke="#000" stroke-width="0.01" />
</g>
<text x="40" y="1012" font-family="monospace" font-size="12">diamond_lattice</text>
<g transform="translate(500.000 1440.000) scale(122.075514884 -122.075514884) translate(2.691016233 2.717252258)">
<path d="M -1.365970462 0.156281636 -1.240970462 -0.143718364 -1.303470462 -0.143718364 -1.165970462 -0.393718364 -1.265970462 -0.393718364 -1.015970462 -0.643718364 -1.290970462 -0.643718364 -1.290970462 -0.843718364 -1.440970462 -0.843718364 -1.440970462 -0.643718364 -1.715970462 -0.643718364 -1.465970462 -0.393718364 -1.565970462 -0.393718364 -1.428470462 -0.143718364 -1.490970462 -0.143718364 Z" fill="none" stroke="#222" stroke-width="0.01" />
<path d="M -0.865970462 0.356281636 -0.740970462 0.056281636 -0.803470462 0.056281636 -0.665970462 -0.193718364 -0.765970462 -0.193718364 -0.515970462 -0.443718364 -0.790970462 -0.443718364 -0.790970462 -0.643718364 -0.940970462 -0.643718364 -0.940970462 -0.443718364 -1.215970462 -0.443718364 -0.965970462 -0.193718364 -1.065970462 -0.193718364 -0.928470462 0.056281636 -0.990970462 0.056281636 Z" fill="none" stroke="#222" stroke-width="0.01" />
<rect x="-1.715970462" y="-0.843718364" width="1.200000000" height="1.200000000" fill="none" stroke="#000" stroke-width="0.01" />
</g>
<text x="500" y="1012" font-family="monospace" font-size="12">herringbone</text>
<g transform="translate(960.000 1440.000) scale(122.075514884 -122.075514884) translate(2.691016233 2.717252258)">
<path d="M -1.337889448 -0.750666508 -1.212889448 -1.050666508 -1.275389448 -1.050666508 -1.137889448 -1.300666508 -1.237889448 -1.300666508 -0.987889448 -1.550666508 -1.262889448 -1.550666508 -1.262889448 -1.750666508 -1.412889448 -1.750666508 -1.412889448 -1.550666508 -1.687889448 -1.550666508 -1.437889448 -1.300666508 -1.537889448 -1.300666508 -1.400389448 -1.050666508 -1.462889448 -1.050666508 Z" fill="none" stroke="#222" stroke-width="0.01" />
<path d="M -1.763443642 -2.350666508 -1.888443642 -2.050666508 -1.825943642 -2.050666508 -1.963443642 -1.800666508 -1.863443642 -1.800666508 -2.113443642 -1.550666508 -1.838443642 -1.550666508 -1.838443642 -1.350666508 -1.688443642 -1.350666508 -1.688443642 -1.550666508 -1.413443642 -1.550666508 -1.663443642 -1.800666508 -1.563443642 -1.800666508 -1.700943642 -2.050666508 -1.638443642 -2.050666508 Z" fill="none" stroke="#222" stroke-width="0.01" />
<rect x="-2.350666545" y="-2.350666508" width="1.600000000" height="1.600000000" fill="none" stroke="#000" stroke-width="0.01" />
</g>
<text x="960" y="1012" font-family="monospace" font-size="12">circle_ring</text>
<g transform="translate(40.000 1900.000) scale(122.075514884 -122.075514884) translate(2.691016233 2.717252258)">
<path d="M -1.319328764 0.011139278 -1.194328764 -0.288860722 -1.256828764 -0.288860722 -1.119328764 -0.538860722 -1.219328764 -0.538860722 -0.969328764 -0.788860722 -1.244328764 -0.788860722 -1.244328764 -0.988860722 -1.394328764 -0.988860722 -1.394328764 -0.788860722 -1.669328764 -0.788860722 -1.419328764 -0.538860722 -1.519328764 -0.538860722 -1.381828764 -0.288860722 -1.444328764 -0.288860722 Z" fill="none" stroke="#222" stroke-width="0.01" />
<path d="M -1.349440043 0.077784160 -1.041558029 -0.026300733 -1.082806975 -0.073255759 -0.804239191 -0.134950489 -0.870237506 -0.210078530 -0.517421618 -0.187254215 -0.698916983 -0.393856326 -0.548660902 -0.525852956 -0.647658374 -0.638545016 -0.797914455 -0.506548387 -0.979409820 -0.713150499 -1.002234135 -0.360334611 -1.068232450 -0.435462651 -1.165304868 -0.167165809 -1.206553815 -0.214120834 Z" fill="none" stroke="#222" stroke-width="0.01" />
<rect x="-1.669328764" y="-1.031491854" width="1.151907145" height="1.151907145" fill="none" stroke="#000" stroke-width="0.01" />
</g>
<text x="40" y="1472" font-family="monospace" font-size="12">spiral</text>
<g transform="translate(500.000 1900.000) scale(122.075514884 -122.075514884) translate(2.691016233 2.717252258)">
<path d="M -2.321236998 -1.426310189 -2.021236998 -1.301310189 -2.021236998 -1.363810189 -1.771236998 -1.226310189 -1.771236998 -1.326310189 -1.521236998 -1.076310189 -1.521236998 -1.351310189 -1.321236998 -1.351310189 -1.321236998 -1.501310189 -1.521236998 -1.501310189 -1.521236998 -1.776310189 -1.771236998 -1.526310189 -1.771236998 -1.626310189 -2.021236998 -1.488810189 -2.021236998 -1.551310189 Z" fill="none" stroke="#222" stroke-width="0.01" />
<path d="M -0.962826360 -1.370356721 -1.268473310 -1.259880743 -1.226255167 -1.213795188 -1.503477302 -1.146310835 -1.435928272 -1.072573947 -1.789143066 -1.088043593 -1.603383235 -0.885267152 -1.750857010 -0.750169093 -1.649533466 -0.639563761 -1.502059690 -0.774661820 -1.316299860 -0.571885379 -1.300830214 -0.925100172 -1.233281184 -0.851363284 -1.141818880 -1.121624078 -1.099600737 -1.075538523 Z" fill="none" stroke="#222" stroke-width="0.01" />
<rect x="-2.321236998" y="-1.853303103" width="1.358410638" height="1.358410638" fill="none" stroke="#000" stroke-width="0.01" />
</g>
<text x="500" y="1472" font-family="monospace" font-size="12">sunflower</text>
<g transform="translate(960.000 1900.000) scale(122.075514884 -122.075514884) translate(2.691016233 2.717252258)">
<path d="M -2.324430483 -1.429231228 -2.024430483 -1.304231228 -2.024430483 -1.366731228 -1.774430483 -1.229231228 -1.774430483 -1.329231228 -1.524430483 -1.079231228 -1.524430483 -1.354231228 -1.324430483 -1.354231228 -1.324430483 -1.504231228 -1.524430483 -1.504231228 -1.524430483 -1.779231228 -1.774430483 -1.529231228 -1.774430483 -1.629231228 -2.024430483 -1.491731228 -2.024430483 -1.554231228 Z" fill="none" stroke="#222" stroke-width="0.01" />
<path d="M -0.965448833 -1.373252753 -1.271095783 -1.262776774 -1.228877640 -1.216691219 -1.506099774 -1.149206866 -1.438550745 -1.075469978 -1.791765538 -1.090939624 -1.606005707 -0.888163183 -1.753479483 -0.753065124 -1.652155939 -0.642459792 -1.504682163 -0.777557851 -1.318922332 -0.574781410 -1.303452686 -0.927996203 -1.235903657 -0.854259315 -1.144441353 -1.124520109 -1.102223209 -1.078434554 Z" fill="none" stroke="#222" stroke-width="0.01" />
<rect x="-2.324430483" y="-1.856497144" width="1.358981650" height="1.358981650" fill="none" stroke="#000" stroke-width="0.01" />
</g>
<text x="960" y="1472" font-family="monospace" font-size="12">core_plus_spiral</text>
<g transform="translate(40.000 2360.000) scale(122.075514884 -122.075514884) translate(2.691016233 2.717252258)">
<path d="M -0.754641058 -0.124286853 -0.629641058 -0.424286853 -0.692141058 -0.424286853 -0.554641058 -0.674286853 -0.654641058 -0.674286853 -0.404641058 -0.924286853 -0.679641058 -0.924286853 -0.679641058 -1.124286853 -0.829641058 -1.124286853 -0.829641058 -0.924286853 -1.104641058 -0.924286853 -0.854641058 -0.674286853 -0.954641058 -0.674286853 -0.817141058 -0.424286853 -0.879641058 -0.424286853 Z" fill="none" stroke="#222" stroke-width="0.01" />
<path d="M -1.945882159 -0.582444282 -1.645882159 -0.457444282 -1.645882159 -0.519944282 -1.395882159 -0.382444282 -1.395882159 -0.482444282 -1.145882159 -0.232444282 -1.145882159 -0.507444282 -0.945882159 -0.507444282 -0.945882159 -0.657444282 -1.145882159 -0.657444282 -1.145882159 -0.932444282 -1.395882159 -0.682444282 -1.395882159 -0.782444282 -1.645882159 -0.644944282 -1.645882159 -0.707444282 Z" fill="none" stroke="#222" stroke-width="0.01" />
<rect x="-1.945882159" y="-1.394907404" width="1.541241101" height="1.541241101" fill="none" stroke="#000" stroke-width="0.01" />
</g>
<text x="40" y="1932" font-family="monospace" font-size="12">random_box</text>
</svg>
