<?xml version="1.0" encoding="UTF-8"?>
<svg xmlns="http://www.w3.org/2000/svg" width="1100" height="1100" viewBox="0 0 1100 1100">
  <rect x="0" y="0" width="1100" height="1100" fill="white"/>
  <text x="10.0" y="18.0" font-family="monospace" font-size="12">L=1.17649717951 feas=0.000e+00 N=3</text>
  <rect x="40.000000" y="40.000000" width="1020.000000" height="1020.000000" fill="none" stroke="#000" stroke-width="2"/>
  <path d="M190.516566 1056.911910 L361.751239 833.143619 L388.808135 880.091216 L517.073352 668.578921 L560.364384 743.695076 L639.927190 447.677108 L758.977529 654.246533 L909.209839 567.664468 L974.146388 680.338700 L823.914078 766.920766 L942.964418 973.490191 L646.946449 893.927386 L690.237482 969.043540 L442.921925 973.986409 L469.978821 1020.934006 Z" fill="#888" fill-opacity="0.18" stroke="#000" stroke-width="1"/>
  <path d="M242.448340 44.511716 L523.959900 56.545132 L501.001929 105.627553 L747.839147 89.478109 L711.106394 168.009982 L999.267959 63.512181 L898.252889 279.474832 L1055.316635 352.940337 L1000.217506 470.738147 L843.153760 397.272641 L742.138690 613.235293 L637.640889 325.073728 L600.908136 403.605601 L455.085989 203.792394 L432.128018 252.874815 Z" fill="#888" fill-opacity="0.18" stroke="#000" stroke-width="1"/>
  <path d="M46.242015 1030.729093 L49.695427 748.981625 L99.454340 770.433967 L75.794096 524.203162 L155.408358 558.526908 L42.182070 273.681888 L261.121289 368.072190 L329.768782 208.843667 L449.190174 260.329287 L380.542682 419.557810 L599.481901 513.948112 L314.636881 627.174400 L394.251143 661.498147 L198.972167 813.338650 L248.731081 834.790991 Z" fill="#888" fill-opacity="0.18" stroke="#000" stroke-width="1"/>
</svg>
