<?xml version="1.0" encoding="UTF-8"?>
<svg xmlns="http://www.w3.org/2000/svg" width="1100" height="1100" viewBox="0 0 1100 1100">
  <rect x="0" y="0" width="1100" height="1100" fill="white"/>
  <text x="10.0" y="18.0" font-family="monospace" font-size="12">L=2.89294981742 feas=0.000e+00 N=15</text>
  <rect x="40.000000" y="40.000000" width="1020.000000" height="1020.000000" fill="none" stroke="#000" stroke-width="2"/>
  <path d="M73.950999 64.732625 L188.532443 63.423504 L180.289872 83.860233 L280.170446 71.869710 L266.982333 104.568478 L381.699534 55.791841 L345.432224 145.713452 L410.829758 172.089678 L391.047589 221.137829 L325.650054 194.761603 L289.382744 284.683214 L240.606108 169.966013 L227.417995 202.664780 L163.804731 124.733693 L155.562161 145.170422 Z" fill="#888" fill-opacity="0.18" stroke="#000" stroke-width="1"/>
  <path d="M357.001051 829.865443 L386.204773 719.060373 L403.714273 732.440107 L418.712308 632.966690 L446.727509 654.374264 L430.208442 530.817327 L507.250245 589.688156 L550.065393 533.657755 L592.088194 565.769116 L549.273046 621.799518 L626.314848 680.670347 L502.757910 697.189413 L530.773111 718.596987 L438.733274 759.199575 L456.242774 772.579309 Z" fill="#888" fill-opacity="0.18" stroke="#000" stroke-width="1"/>
  <path d="M573.675207 881.134083 L478.711218 945.262560 L474.351428 923.661817 L397.539991 988.622611 L390.564327 954.061421 L321.600512 1057.903554 L302.417437 962.860282 L233.295058 976.811609 L222.831563 924.969825 L291.953942 911.018498 L272.770868 815.975226 L376.613001 884.939042 L369.637337 850.377852 L465.631849 880.460330 L461.272059 858.859586 Z" fill="#888" fill-opacity="0.18" stroke="#000" stroke-width="1"/>
  <path d="M743.440159 674.268588 L649.901858 608.077900 L668.570198 596.369229 L580.665165 547.454947 L610.534509 528.721073 L489.026465 500.882400 L571.167159 449.364246 L533.699411 389.625560 L578.503426 361.524748 L615.971175 421.263435 L698.111869 369.745282 L670.273196 491.253325 L700.142539 472.519451 L705.906877 572.951887 L724.575216 561.243215 Z" fill="#888" fill-opacity="0.18" stroke="#000" stroke-width="1"/>
  <path d="M50.945153 859.740300 L122.812048 770.489136 L133.339852 789.847990 L187.614103 705.147297 L204.458588 736.121464 L239.782793 616.574834 L286.105127 701.753793 L348.053461 668.064823 L373.320189 714.526074 L311.371855 748.215044 L357.694189 833.394004 L238.147558 798.069799 L254.992043 829.043966 L154.395458 828.565699 L164.923261 847.924554 Z" fill="#888" fill-opacity="0.18" stroke="#000" stroke-width="1"/>
  <path d="M530.502909 327.540488 L492.437173 435.622034 L476.066612 420.870605 L453.076131 518.805989 L426.883234 495.203704 L433.359761 619.691659 L361.329296 554.785373 L314.124725 607.171166 L274.835380 571.767737 L322.039951 519.381945 L250.009486 454.475659 L374.497441 447.999132 L348.304545 424.396846 L443.325492 391.367748 L426.954932 376.616320 Z" fill="#888" fill-opacity="0.18" stroke="#000" stroke-width="1"/>
  <path d="M1057.350399 687.609472 L951.581700 643.523157 L967.230802 628.008470 L870.744031 599.544373 L895.782594 574.720875 L771.127441 574.183214 L839.983489 505.918593 L790.336492 455.841467 L827.894336 418.606219 L877.541333 468.683345 L946.397381 400.418724 L945.859720 525.073878 L970.898283 500.250379 L998.529005 596.979097 L1014.178107 581.464410 Z" fill="#888" fill-opacity="0.18" stroke="#000" stroke-width="1"/>
  <path d="M495.688900 796.341038 L597.207803 743.194700 L599.133270 765.146749 L682.705440 709.150374 L685.786187 744.273653 L765.892517 648.763589 L774.364570 745.352606 L844.611128 739.191113 L849.232248 791.876031 L778.985690 798.037524 L787.457743 894.626541 L691.947680 814.520210 L695.028426 849.643489 L602.984203 809.050847 L604.909670 831.002897 Z" fill="#888" fill-opacity="0.18" stroke="#000" stroke-width="1"/>
  <path d="M988.352644 698.959375 L991.384486 813.508180 L970.826130 805.573832 L984.317122 905.262823 L951.423752 892.567866 L1001.919785 1006.538683 L911.463017 971.627552 L886.073104 1037.414292 L836.733049 1018.371856 L862.122963 952.585116 L771.666195 917.673985 L885.637012 867.177952 L852.743642 854.482996 L929.709418 789.705136 L909.151061 781.770788 Z" fill="#888" fill-opacity="0.18" stroke="#000" stroke-width="1"/>
  <path d="M501.039242 278.425050 L609.687764 242.009124 L608.115996 263.989330 L699.494707 221.919949 L696.979879 257.088278 L791.187772 175.454527 L784.271993 272.167431 L854.608651 277.197088 L850.836408 329.949581 L780.499751 324.919924 L773.583972 421.632828 L691.950222 327.424935 L689.435393 362.593264 L604.972460 307.949741 L603.400692 329.929946 Z" fill="#888" fill-opacity="0.18" stroke="#000" stroke-width="1"/>
  <path d="M365.511478 361.633254 L396.595148 251.340795 L413.874603 265.016333 L430.561952 165.812331 L458.209080 187.693191 L443.793411 63.873221 L519.823012 124.045586 L563.584732 68.751330 L605.055424 101.572620 L561.293704 156.866876 L637.323306 217.039241 L513.503336 231.454911 L541.150464 253.335771 L448.433513 292.367408 L465.712968 306.042945 Z" fill="#888" fill-opacity="0.18" stroke="#000" stroke-width="1"/>
  <path d="M1003.937888 412.291920 L928.742245 325.826688 L949.652911 318.873707 L875.837521 250.527604 L909.294586 239.402833 L797.839997 183.572097 L889.846926 152.978978 L867.597385 86.064848 L917.782983 69.377693 L940.032523 136.291823 L1032.039452 105.698704 L976.208716 217.153293 L1009.665781 206.028522 L991.474242 304.967744 L1012.384908 298.014763 Z" fill="#888" fill-opacity="0.18" stroke="#000" stroke-width="1"/>
  <path d="M90.763830 157.123938 L192.573909 209.710331 L175.708715 223.893600 L269.545217 260.151185 L242.560907 282.844415 L366.754759 293.572115 L292.547905 355.978499 L337.934366 409.947119 L297.457900 443.986965 L252.071440 390.018344 L177.864586 452.424728 L188.592286 328.230876 L161.607976 350.924106 L141.978327 252.260138 L125.113133 266.443407 Z" fill="#888" fill-opacity="0.18" stroke="#000" stroke-width="1"/>
  <path d="M429.705944 1059.811670 L508.226917 976.354628 L517.234012 996.466121 L577.864372 916.192457 L592.275724 948.370845 L636.693313 831.896495 L676.324532 920.387061 L740.681307 891.564356 L762.298336 939.831938 L697.941560 968.654642 L737.572779 1057.145209 L621.098429 1012.727620 L635.509781 1044.906008 L535.248202 1036.689105 L544.255298 1056.800598 Z" fill="#888" fill-opacity="0.18" stroke="#000" stroke-width="1"/>
  <path d="M84.276393 325.074195 L157.587257 413.143134 L136.531317 419.642923 L208.853539 489.567152 L175.164034 499.966813 L285.386949 558.191424 L192.740810 586.790491 L213.540132 654.169502 L163.005874 669.768993 L142.206552 602.389983 L49.560413 630.989050 L107.785023 520.766135 L74.095518 531.165796 L94.419435 432.642499 L73.363494 439.142287 Z" fill="#888" fill-opacity="0.18" stroke="#000" stroke-width="1"/>
</svg>
