<?xml version="1.0" encoding="UTF-8"?>
<svg xmlns="http://www.w3.org/2000/svg" width="1100" height="1100" viewBox="0 0 1100 1100">
  <rect x="0" y="0" width="1100" height="1100" fill="white"/>
  <text x="10.0" y="18.0" font-family="monospace" font-size="12">L=3.24173572032 feas=0.000e+00 N=19</text>
  <rect x="40.000000" y="40.000000" width="1020.000000" height="1020.000000" fill="none" stroke="#000" stroke-width="2"/>
  <path d="M563.129129 352.443864 L497.001031 274.442653 L515.738532 268.473258 L450.638450 206.655925 L480.618451 197.104893 L381.790869 146.032472 L464.235871 119.767134 L445.133806 59.807133 L490.103807 45.480584 L509.205871 105.440585 L591.650873 79.175247 L540.578452 178.002829 L570.558453 168.451797 L553.213532 256.534467 L571.951033 250.565072 Z" fill="#888" fill-opacity="0.18" stroke="#000" stroke-width="1"/>
  <path d="M44.851855 537.467228 L129.475043 594.878292 L113.024618 605.653779 L192.317501 647.749406 L165.996822 664.990186 L274.900469 687.689936 L202.518601 735.102080 L237.000160 787.743439 L197.519140 813.604608 L163.037581 760.963249 L90.655713 808.375393 L113.355463 699.471745 L87.034783 716.712524 L80.123769 627.204754 L63.673344 637.980241 Z" fill="#888" fill-opacity="0.18" stroke="#000" stroke-width="1"/>
  <path d="M128.700621 173.196284 L177.438615 263.094683 L157.875438 265.097108 L208.924127 338.944481 L177.623044 342.148361 L263.885451 412.391369 L177.807473 421.202039 L184.215233 483.804205 L137.263608 488.610025 L130.855848 426.007859 L44.777870 434.818528 L115.020878 348.556121 L83.719795 351.760001 L118.749084 269.101958 L99.185907 271.104383 Z" fill="#888" fill-opacity="0.18" stroke="#000" stroke-width="1"/>
  <path d="M317.986527 804.485703 L273.984834 896.794777 L260.853170 882.156231 L231.188646 966.887685 L210.177985 943.466011 L204.150455 1054.546847 L146.371137 990.137246 L99.527791 1032.158568 L68.011799 997.026058 L114.855146 955.004736 L57.075828 890.595135 L168.156663 896.622665 L147.146002 873.200992 L234.589844 852.879140 L221.458181 838.240594 Z" fill="#888" fill-opacity="0.18" stroke="#000" stroke-width="1"/>
  <path d="M562.193029 700.896440 L537.945901 601.552638 L557.374322 604.596328 L526.806557 520.186525 L557.892031 525.056429 L492.353108 435.167983 L577.838161 448.560221 L587.577970 386.389274 L634.206181 393.694131 L624.466372 455.865078 L709.951424 469.257316 L620.062978 534.796239 L651.148452 539.666144 L596.231164 610.683709 L615.659585 613.727399 Z" fill="#888" fill-opacity="0.18" stroke="#000" stroke-width="1"/>
  <path d="M574.782958 382.627916 L472.790051 375.241364 L481.645127 357.682457 L391.928331 360.891747 L406.096453 332.797496 L300.440519 367.612819 L339.402855 290.353628 L283.214352 262.017384 L304.466535 219.876006 L360.655038 248.212251 L399.617373 170.953059 L434.432697 276.608993 L448.600819 248.514741 L499.355280 322.564642 L508.210356 305.005735 Z" fill="#888" fill-opacity="0.18" stroke="#000" stroke-width="1"/>
  <path d="M513.535862 615.816428 L538.053355 715.093852 L518.616720 712.103065 L549.414170 796.429337 L518.315553 791.644078 L584.098946 881.353767 L498.577751 868.194304 L489.007233 930.391537 L442.359308 923.213648 L451.929827 861.016416 L366.408631 847.856953 L456.118320 782.073560 L425.019704 777.288301 L479.743450 706.121491 L460.306814 703.130704 Z" fill="#888" fill-opacity="0.18" stroke="#000" stroke-width="1"/>
  <path d="M842.664403 677.232346 L850.399883 575.265309 L867.928389 584.180412 L865.026086 494.453160 L893.071697 508.717324 L858.618082 402.942887 L935.743510 442.169339 L964.271839 386.078118 L1006.340255 407.474365 L977.811926 463.565586 L1054.937355 502.792038 L949.162917 537.245653 L977.208528 551.509817 L902.985402 602.010617 L920.513909 610.925720 Z" fill="#888" fill-opacity="0.18" stroke="#000" stroke-width="1"/>
  <path d="M240.865281 367.619132 L208.838288 270.503809 L228.446555 272.001630 L191.299652 190.273356 L222.672879 192.669870 L150.231096 108.245518 L236.507470 114.835931 L241.300498 52.089477 L288.360338 55.684247 L283.567311 118.430701 L369.843685 125.021114 L285.419333 197.462897 L316.792560 199.859411 L267.663089 274.997272 L287.271356 276.495093 Z" fill="#888" fill-opacity="0.18" stroke="#000" stroke-width="1"/>
  <path d="M854.867766 528.246526 L775.621195 463.616075 L792.955489 454.328995 L717.671723 405.423395 L745.406593 390.564067 L638.921098 358.375211 L715.191991 317.512060 L685.473336 262.042319 L727.075641 239.753328 L756.794297 295.223068 L833.065190 254.359917 L800.876334 360.845412 L828.611204 345.986084 L827.624077 435.754835 L844.958371 426.467756 Z" fill="#888" fill-opacity="0.18" stroke="#000" stroke-width="1"/>
  <path d="M1039.358607 642.925109 L1042.934317 745.122607 L1024.528274 738.198362 L1037.324589 827.055874 L1007.874920 815.977082 L1053.802112 917.298235 L972.815522 886.831557 L950.657938 945.730896 L906.483434 929.112708 L928.641018 870.213369 L847.654428 839.746691 L948.975581 793.819498 L919.525912 782.740706 L987.716187 724.349872 L969.310144 717.425627 Z" fill="#888" fill-opacity="0.18" stroke="#000" stroke-width="1"/>
  <path d="M1050.080245 396.339161 L973.319223 328.775414 L990.990378 320.146516 L917.598244 268.445473 L945.872092 254.639236 L840.671880 218.470210 L918.424961 180.503057 L890.812486 123.955362 L933.223258 103.246006 L960.835732 159.793701 L1038.588813 121.826549 L1002.419787 227.026761 L1030.693635 213.220524 L1026.332688 302.888719 L1044.003842 294.259821 Z" fill="#888" fill-opacity="0.18" stroke="#000" stroke-width="1"/>
  <path d="M459.727425 372.582813 L410.928835 462.448334 L398.585739 447.139005 L364.503232 530.191915 L344.754278 505.696988 L332.889345 616.306691 L278.579722 548.945641 L229.589867 588.443549 L199.966436 551.701158 L248.956290 512.203250 L194.646667 444.842200 L305.256370 456.707133 L285.507416 432.212206 L373.899546 416.520346 L361.556450 401.211016 Z" fill="#888" fill-opacity="0.18" stroke="#000" stroke-width="1"/>
  <path d="M917.356266 656.180469 L873.008348 748.323708 L859.931731 733.635968 L829.949329 818.255462 L809.026742 794.755078 L802.582250 905.812503 L745.045137 841.186448 L698.044370 883.031621 L666.660490 847.781046 L713.661257 805.935873 L656.124145 741.309818 L767.181570 747.754311 L746.258983 724.253927 L833.778498 704.260489 L820.701882 689.572749 Z" fill="#888" fill-opacity="0.18" stroke="#000" stroke-width="1"/>
  <path d="M1034.399754 1053.039764 L932.139826 1053.186091 L939.677455 1035.022618 L850.440780 1044.831743 L862.500986 1015.770187 L759.696579 1058.273563 L792.862146 978.354282 L734.739033 954.233870 L752.829342 910.641534 L810.952455 934.761947 L844.118022 854.842666 L886.621398 957.647073 L898.681605 928.585517 L954.752713 998.695672 L962.290342 980.532200 Z" fill="#888" fill-opacity="0.18" stroke="#000" stroke-width="1"/>
  <path d="M573.292385 117.584433 L671.958812 90.713438 L669.430999 110.215688 L753.001189 77.421992 L748.956687 108.625592 L837.076942 40.727847 L825.954562 126.537747 L888.361762 134.626750 L882.295009 181.432150 L819.887809 173.343147 L808.765429 259.153047 L740.867684 171.032792 L736.823182 202.236392 L664.375372 149.220188 L661.847558 168.722438 Z" fill="#888" fill-opacity="0.18" stroke="#000" stroke-width="1"/>
  <path d="M480.838604 1056.231998 L538.561610 971.821283 L549.276307 988.311366 L591.664308 909.174393 L608.807823 935.558527 L631.909368 826.739403 L679.054037 899.295770 L731.822304 865.008739 L757.537578 904.584939 L704.769310 938.871971 L751.913979 1011.428339 L643.094855 988.326794 L660.238371 1014.710928 L570.705702 1021.291534 L581.420400 1037.781617 Z" fill="#888" fill-opacity="0.18" stroke="#000" stroke-width="1"/>
  <path d="M496.812988 557.400206 L452.199663 649.415234 L439.165436 634.689864 L408.939253 719.222585 L388.084490 695.661992 L381.319915 806.700381 L323.969318 741.908751 L276.848132 783.618276 L245.565988 748.277387 L292.687174 706.567862 L235.336577 641.776232 L346.374965 648.540807 L325.520202 624.980214 L413.096983 605.239123 L400.062756 590.513752 Z" fill="#888" fill-opacity="0.18" stroke="#000" stroke-width="1"/>
  <path d="M585.008469 769.232799 L622.629765 674.144670 L636.726674 687.856152 L660.559403 601.303254 L683.114458 623.241626 L681.572750 512.008059 L743.599151 572.338581 L787.475894 527.228471 L821.308476 560.136029 L777.431733 605.246139 L839.458134 665.576660 L728.224568 667.118369 L750.779623 689.056740 L664.920493 715.279117 L679.017402 728.990599 Z" fill="#888" fill-opacity="0.18" stroke="#000" stroke-width="1"/>
</svg>
