<?xml version="1.0" encoding="UTF-8"?>
<svg xmlns="http://www.w3.org/2000/svg" width="1100" height="1100" viewBox="0 0 1100 1100">
  <rect x="0" y="0" width="1100" height="1100" fill="white"/>
  <text x="10.0" y="18.0" font-family="monospace" font-size="12">L=0.962857748267 feas=0.000e+00 N=2</text>
  <rect x="40.000000" y="40.000000" width="1020.000000" height="1020.000000" fill="none" stroke="#000" stroke-width="2"/>
  <path d="M1040.617189 40.850712 L803.921347 290.868794 L777.046528 230.359319 L594.133229 470.979441 L551.133518 374.164280 L416.594894 723.701458 L298.345690 457.459767 L104.715369 543.459188 L40.215803 398.236448 L233.846124 312.237027 L115.596920 45.995336 L465.134097 180.533960 L422.134386 83.718799 L723.296889 109.340368 L696.422070 48.830893 Z" fill="#888" fill-opacity="0.18" stroke="#000" stroke-width="1"/>
  <path d="M49.198885 1040.075335 L291.271472 795.259432 L316.825139 856.338583 L504.923672 619.749784 L545.809540 717.476424 L687.911472 370.945155 L800.347607 639.693416 L995.800888 557.921681 L1057.129689 704.511641 L861.676408 786.283376 L974.112544 1055.031637 L627.581274 912.929705 L668.467142 1010.656345 L367.932473 978.496883 L393.486140 1039.576033 Z" fill="#888" fill-opacity="0.18" stroke="#000" stroke-width="1"/>
</svg>
