<svg xmlns="http://www.w3.org/2000/svg" width="1420" height="2400" viewBox="0 0 1420 2400">
<rect x="0" y="0" width="1420" height="2400" fill="white" />
<text x="40" y="30" font-family="monospace" font-size="16">After compactification (corner shove) (n=1)</text>
<g transform="translate(40.000 520.000) scale(138.895679458 -138.895679458) translate(2.560391138 1.617798954)">
<path d="M -0.889087724 0.444364872 -0.764087724 0.144364872 -0.826587724 0.144364872 -0.689087724 -0.105635128 -0.789087724 -0.105635128 -0.539087724 -0.355635128 -0.814087724 -0.355635128 -0.814087724 -0.555635128 -0.964087724 -0.555635128 -0.964087724 -0.355635128 -1.239087724 -0.355635128 -0.989087724 -0.105635128 -1.089087724 -0.105635128 -0.951587724 0.144364872 -1.014087724 0.144364872 Z" fill="none" stroke="#222" stroke-width="0.01" />
<rect x="-1.389087724" y="-0.555635128" width="1.000000000" height="1.000000000" fill="none" stroke="#000" stroke-width="0.01" />
</g>
<text x="40" y="92" font-family="monospace" font-size="12">centered</text>
<g transform="translate(500.000 520.000) scale(138.895679458 -138.895679458) translate(2.560391138 1.617798954)">
<path d="M -0.889087677 0.444365222 -0.764087677 0.144365222 -0.826587677 0.144365222 -0.689087677 -0.105634778 -0.789087677 -0.105634778 -0.539087677 -0.355634778 -0.814087677 -0.355634778 -0.814087677 -0.555634778 -0.964087677 -0.555634778 -0.964087677 -0.355634778 -1.239087677 -0.355634778 -0.989087677 -0.105634778 -1.089087677 -0.105634778 -0.951587677 0.144365222 -1.014087677 0.144365222 Z" fill="none" stroke="#222" stroke-width="0.01" />
<rect x="-1.389087677" y="-0.555634778" width="1.000000000" height="1.000000000" fill="none" stroke="#000" stroke-width="0.01" />
</g>
<text x="500" y="92" font-family="monospace" font-size="12">grid</text>
<g transform="translate(960.000 520.000) scale(138.895679458 -138.895679458) translate(2.560391138 1.617798954)">
<path d="M -0.889086961 0.444365198 -0.764086961 0.144365198 -0.826586961 0.144365198 -0.689086961 -0.105634802 -0.789086961 -0.105634802 -0.539086961 -0.355634802 -0.814086961 -0.355634802 -0.814086961 -0.555634802 -0.964086961 -0.555634802 -0.964086961 -0.355634802 -1.239086961 -0.355634802 -0.989086961 -0.105634802 -1.089086961 -0.105634802 -0.951586961 0.144365198 -1.014086961 0.144365198 Z" fill="none" stroke="#222" stroke-width="0.01" />
<rect x="-1.389086961" y="-0.555634802" width="1.000000000" height="1.000000000" fill="none" stroke="#000" stroke-width="0.01" />
</g>
<text x="960" y="92" font-family="monospace" font-size="12">grid_alt180</text>
<g transform="translate(40.000 980.000) scale(138.895679458 -138.895679458) translate(2.560391138 1.617798954)">
<path d="M 0.125609146 0.125609144 0.001865460 -0.174911238 -0.042328714 -0.130717064 -0.121878227 -0.404720942 -0.192588905 -0.334010264 -0.192588905 -0.687563654 -0.387043270 -0.493109290 -0.528464626 -0.634530646 -0.634530643 -0.528464629 -0.493109287 -0.387043272 -0.687563652 -0.192588908 -0.334010261 -0.192588908 -0.404720939 -0.121878230 -0.130717062 -0.042328717 -0.174911236 0.001865457 Z" fill="none" stroke="#222" stroke-width="0.01" />
<rect x="-0.687563652" y="-0.687563654" width="0.813172798" height="0.813172798" fill="none" stroke="#000" stroke-width="0.01" />
</g>
<text x="40" y="552" font-family="monospace" font-size="12">grid_alt45</text>
<g transform="translate(500.000 980.000) scale(138.895679458 -138.895679458) translate(2.560391138 1.617798954)">
<path d="M -1.571572417 0.125609815 -1.271052035 0.001866129 -1.315246208 -0.042328045 -1.041242331 -0.121877558 -1.111953009 -0.192588236 -0.758399618 -0.192588236 -0.952853983 -0.387042601 -0.811432627 -0.528463957 -0.917498644 -0.634529974 -1.058920000 -0.493108618 -1.253374365 -0.687562983 -1.253374365 -0.334009592 -1.324085043 -0.404720271 -1.403634556 -0.130716393 -1.447828730 -0.174910567 Z" fill="none" stroke="#222" stroke-width="0.01" />
<rect x="-1.571572417" y="-0.687562983" width="0.813172798" height="0.813172798" fill="none" stroke="#000" stroke-width="0.01" />
</g>
<text x="500" y="552" font-family="monospace" font-size="12">alternating</text>
<g transform="translate(960.000 980.000) scale(138.895679458 -138.895679458) translate(2.560391138 1.617798954)">
<path d="M -0.889087331 0.444365347 -0.764087331 0.144365347 -0.826587331 0.144365347 -0.689087331 -0.105634653 -0.789087331 -0.105634653 -0.539087331 -0.355634653 -0.814087331 -0.355634653 -0.814087331 -0.555634653 -0.964087331 -0.555634653 -0.964087331 -0.355634653 -1.239087331 -0.355634653 -0.989087331 -0.105634653 -1.089087331 -0.105634653 -0.951587331 0.144365347 -1.014087331 0.144365347 Z" fill="none" stroke="#222" stroke-width="0.01" />
<rect x="-1.389087331" y="-0.555634653" width="1.000000000" height="1.000000000" fill="none" stroke="#000" stroke-width="0.01" />
</g>
<text x="960" y="552" font-family="monospace" font-size="12">sheared_brick</text>
<g transform="translate(40.000 1440.000) scale(138.895679458 -138.895679458) translate(2.560391138 1.617798954)">
<path d="M -1.571572946 0.125608588 -1.271052564 0.001864902 -1.315246738 -0.042329272 -1.041242860 -0.121878785 -1.111953538 -0.192589463 -0.758400147 -0.192589463 -0.952854512 -0.387043828 -0.811433156 -0.528465184 -0.917499173 -0.634531201 -1.058920529 -0.493109845 -1.253374894 -0.687564210 -1.253374894 -0.334010819 -1.324085572 -0.404721498 -1.403635085 -0.130717620 -1.447829259 -0.174911794 Z" fill="none" stroke="#222" stroke-width="0.01" />
<rect x="-1.571572946" y="-0.687564210" width="0.813172798" height="0.813172798" fill="none" stroke="#000" stroke-width="0.01" />
</g>
<text x="40" y="1012" font-family="monospace" font-size="12">diamond_lattice</text>
<g transform="translate(500.000 1440.000) scale(138.895679458 -138.895679458) translate(2.560391138 1.617798954)">
<path d="M -0.889087170 0.444364753 -0.764087170 0.144364753 -0.826587170 0.144364753 -0.689087170 -0.105635247 -0.789087170 -0.105635247 -0.539087170 -0.355635247 -0.814087170 -0.355635247 -0.814087170 -0.555635247 -0.964087170 -0.555635247 -0.964087170 -0.355635247 -1.239087170 -0.355635247 -0.989087170 -0.105635247 -1.089087170 -0.105635247 -0.951587170 0.144364753 -1.014087170 0.144364753 Z" fill="none" stroke="#222" stroke-width="0.01" />
<rect x="-1.389087170" y="-0.555635247" width="1.000000000" height="1.000000000" fill="none" stroke="#000" stroke-width="0.01" />
</g>
<text x="500" y="1012" font-family="monospace" font-size="12">herringbone</text>
<g transform="translate(960.000 1440.000) scale(138.895679458 -138.895679458) translate(2.560391138 1.617798954)">
<path d="M -0.889087917 0.444365199 -0.764087917 0.144365199 -0.826587917 0.144365199 -0.689087917 -0.105634801 -0.789087917 -0.105634801 -0.539087917 -0.355634801 -0.814087917 -0.355634801 -0.814087917 -0.555634801 -0.964087917 -0.555634801 -0.964087917 -0.355634801 -1.239087917 -0.355634801 -0.989087917 -0.105634801 -1.089087917 -0.105634801 -0.951587917 0.144365199 -1.014087917 0.144365199 Z" fill="none" stroke="#222" stroke-width="0.01" />
<rect x="-1.389087917" y="-0.555634801" width="1.000000000" height="1.000000000" fill="none" stroke="#000" stroke-width="0.01" />
</g>
<text x="960" y="1012" font-family="monospace" font-size="12">circle_ring</text>
<g transform="translate(40.000 1900.000) scale(138.895679458 -138.895679458) translate(2.560391138 1.617798954)">
<path d="M -0.889087379 0.444364808 -0.764087379 0.144364808 -0.826587379 0.144364808 -0.689087379 -0.105635192 -0.789087379 -0.105635192 -0.539087379 -0.355635192 -0.814087379 -0.355635192 -0.814087379 -0.555635192 -0.964087379 -0.555635192 -0.964087379 -0.355635192 -1.239087379 -0.355635192 -0.989087379 -0.105635192 -1.089087379 -0.105635192 -0.951587379 0.144364808 -1.014087379 0.144364808 Z" fill="none" stroke="#222" stroke-width="0.01" />
<rect x="-1.389087379" y="-0.555635192" width="1.000000000" height="1.000000000" fill="none" stroke="#000" stroke-width="0.01" />
</g>
<text x="40" y="1472" font-family="monospace" font-size="12">spiral</text>
<g transform="translate(500.000 1900.000) scale(138.895679458 -138.895679458) translate(2.560391138 1.617798954)">
<path d="M -2.222539265 -0.889087516 -1.922539265 -0.764087516 -1.922539265 -0.826587516 -1.672539265 -0.689087516 -1.672539265 -0.789087516 -1.422539265 -0.539087516 -1.422539265 -0.814087516 -1.222539265 -0.814087516 -1.222539265 -0.964087516 -1.422539265 -0.964087516 -1.422539265 -1.239087516 -1.672539265 -0.989087516 -1.672539265 -1.089087516 -1.922539265 -0.951587516 -1.922539265 -1.014087516 Z" fill="none" stroke="#222" stroke-width="0.01" />
<rect x="-2.222539265" y="-1.389087516" width="1.000000000" height="1.000000000" fill="none" stroke="#000" stroke-width="0.01" />
</g>
<text x="500" y="1472" font-family="monospace" font-size="12">sunflower</text>
<g transform="translate(960.000 1900.000) scale(138.895679458 -138.895679458) translate(2.560391138 1.617798954)">
<path d="M -2.222539024 -0.889086946 -1.922539024 -0.764086946 -1.922539024 -0.826586946 -1.672539024 -0.689086946 -1.672539024 -0.789086946 -1.422539024 -0.539086946 -1.422539024 -0.814086946 -1.222539024 -0.814086946 -1.222539024 -0.964086946 -1.422539024 -0.964086946 -1.422539024 -1.239086946 -1.672539024 -0.989086946 -1.672539024 -1.089086946 -1.922539024 -0.951586946 -1.922539024 -1.014086946 Z" fill="none" stroke="#222" stroke-width="0.01" />
<rect x="-2.222539024" y="-1.389086946" width="1.000000000" height="1.000000000" fill="none" stroke="#000" stroke-width="0.01" />
</g>
<text x="960" y="1472" font-family="monospace" font-size="12">core_plus_spiral</text>
<g transform="translate(40.000 2360.000) scale(138.895679458 -138.895679458) translate(2.560391138 1.617798954)">
<path d="M -0.891705433 -0.279947081 -0.766705433 -0.579947081 -0.829205433 -0.579947081 -0.691705433 -0.829947081 -0.791705433 -0.829947081 -0.541705433 -1.079947081 -0.816705433 -1.079947081 -0.816705433 -1.279947081 -0.966705433 -1.279947081 -0.966705433 -1.079947081 -1.241705433 -1.079947081 -0.991705433 -0.829947081 -1.091705433 -0.829947081 -0.954205433 -0.579947081 -1.016705433 -0.579947081 Z" fill="none" stroke="#222" stroke-width="0.01" />
<rect x="-1.391705433" y="-1.279947081" width="1.000000000" height="1.000000000" fill="none" stroke="#000" stroke-width="0.01" />
</g>
<text x="40" y="1932" font-family="monospace" font-size="12">random_box</text>
</svg>
