<svg xmlns="http://www.w3.org/2000/svg" width="1420" height="2400" viewBox="0 0 1420 2400">
<rect x="0" y="0" width="1420" height="2400" fill="white" />
<text x="40" y="30" font-family="monospace" font-size="16">After compactification (center attractor) (n=8)</text>
<g transform="translate(40.000 520.000) scale(106.524891660 -106.524891660) translate(1.916915352 1.846059598)">
<path d="M -0.731010596 0.645864342 -0.606010596 0.345864342 -0.668510596 0.345864342 -0.531010596 0.095864342 -0.631010596 0.095864342 -0.381010596 -0.154135658 -0.656010596 -0.154135658 -0.656010596 -0.354135658 -0.806010596 -0.354135658 -0.806010596 -0.154135658 -1.081010596 -0.154135658 -0.831010596 0.095864342 -0.931010596 0.095864342 -0.793510596 0.345864342 -0.856010596 0.345864342 Z" fill="none" stroke="#222" stroke-width="0.01" />
<path d="M -0.296349318 0.186166476 -0.171349318 -0.113833524 -0.233849318 -0.113833524 -0.096349318 -0.363833524 -0.196349318 -0.363833524 0.053650682 -0.613833524 -0.221349318 -0.613833524 -0.221349318 -0.813833524 -0.371349318 -0.813833524 -0.371349318 -0.613833524 -0.646349318 -0.613833524 -0.396349318 -0.363833524 -0.496349318 -0.363833524 -0.358849318 -0.113833524 -0.421349318 -0.113833524 Z" fill="none" stroke="#222" stroke-width="0.01" />
<path d="M 0.138343479 0.645815937 0.263343479 0.345815937 0.200843479 0.345815937 0.338343479 0.095815937 0.238343479 0.095815937 0.488343479 -0.154184063 0.213343479 -0.154184063 0.213343479 -0.354184063 0.063343479 -0.354184063 0.063343479 -0.154184063 -0.211656521 -0.154184063 0.038343479 0.095815937 -0.061656521 0.095815937 0.075843479 0.345815937 0.013343479 0.345815937 Z" fill="none" stroke="#222" stroke-width="0.01" />
<path d="M 0.540493725 1.320621830 0.665493725 1.020621830 0.602993725 1.020621830 0.740493725 0.770621830 0.640493725 0.770621830 0.890493725 0.520621830 0.615493725 0.520621830 0.615493725 0.320621830 0.465493725 0.320621830 0.465493725 0.520621830 0.190493725 0.520621830 0.440493725 0.770621830 0.340493725 0.770621830 0.477993725 1.020621830 0.415493725 1.020621830 Z" fill="none" stroke="#222" stroke-width="0.01" />
<path d="M 0.975175807 0.860945435 1.100175807 0.560945435 1.037675807 0.560945435 1.175175807 0.310945435 1.075175807 0.310945435 1.325175807 0.060945435 1.050175807 0.060945435 1.050175807 -0.139054565 0.900175807 -0.139054565 0.900175807 0.060945435 0.625175807 0.060945435 0.875175807 0.310945435 0.775175807 0.310945435 0.912675807 0.560945435 0.850175807 0.560945435 Z" fill="none" stroke="#222" stroke-width="0.01" />
<path d="M -1.165691872 1.105544528 -1.040691872 0.805544528 -1.103191872 0.805544528 -0.965691872 0.555544528 -1.065691872 0.555544528 -0.815691872 0.305544528 -1.090691872 0.305544528 -1.090691872 0.105544528 -1.240691872 0.105544528 -1.240691872 0.305544528 -1.515691872 0.305544528 -1.265691872 0.555544528 -1.365691872 0.555544528 -1.228191872 0.805544528 -1.290691872 0.805544528 Z" fill="none" stroke="#222" stroke-width="0.01" />
<path d="M -0.033974680 1.448913228 0.091025320 1.148913228 0.028525320 1.148913228 0.166025320 0.898913228 0.066025320 0.898913228 0.316025320 0.648913228 0.041025320 0.648913228 0.041025320 0.448913228 -0.108974680 0.448913228 -0.108974680 0.648913228 -0.383974680 0.648913228 -0.133974680 0.898913228 -0.233974680 0.898913228 -0.096474680 1.148913228 -0.158974680 1.148913228 Z" fill="none" stroke="#222" stroke-width="0.01" />
<path d="M 0.573013469 0.186128072 0.698013469 -0.113871928 0.635513469 -0.113871928 0.773013469 -0.363871928 0.673013469 -0.363871928 0.923013469 -0.613871928 0.648013469 -0.613871928 0.648013469 -0.813871928 0.498013469 -0.813871928 0.498013469 -0.613871928 0.223013469 -0.613871928 0.473013469 -0.363871928 0.373013469 -0.363871928 0.510513469 -0.113871928 0.448013469 -0.113871928 Z" fill="none" stroke="#222" stroke-width="0.01" />
<rect x="-1.515691872" y="-1.102913189" width="2.840867679" height="2.840867679" fill="none" stroke="#000" stroke-width="0.01" />
</g>
<text x="40" y="92" font-family="monospace" font-size="12">centered</text>
<g transform="translate(500.000 520.000) scale(106.524891660 -106.524891660) translate(1.916915352 1.846059598)">
<path d="M -0.457735528 0.063141482 -0.332735528 -0.236858518 -0.395235528 -0.236858518 -0.257735528 -0.486858518 -0.357735528 -0.486858518 -0.107735528 -0.736858518 -0.382735528 -0.736858518 -0.382735528 -0.936858518 -0.532735528 -0.936858518 -0.532735528 -0.736858518 -0.807735528 -0.736858518 -0.557735528 -0.486858518 -0.657735528 -0.486858518 -0.520235528 -0.236858518 -0.582735528 -0.236858518 Z" fill="none" stroke="#222" stroke-width="0.01" />
<path d="M 0.100725988 -0.087772121 0.225725988 -0.387772121 0.163225988 -0.387772121 0.300725988 -0.637772121 0.200725988 -0.637772121 0.450725988 -0.887772121 0.175725988 -0.887772121 0.175725988 -1.087772121 0.025725988 -1.087772121 0.025725988 -0.887772121 -0.249274012 -0.887772121 0.000725988 -0.637772121 -0.099274012 -0.637772121 0.038225988 -0.387772121 -0.024274012 -0.387772121 Z" fill="none" stroke="#222" stroke-width="0.01" />
<path d="M 0.615500415 0.226274377 0.740500415 -0.073725623 0.678000415 -0.073725623 0.815500415 -0.323725623 0.715500415 -0.323725623 0.965500415 -0.573725623 0.690500415 -0.573725623 0.690500415 -0.773725623 0.540500415 -0.773725623 0.540500415 -0.573725623 0.265500415 -0.573725623 0.515500415 -0.323725623 0.415500415 -0.323725623 0.553000415 -0.073725623 0.490500415 -0.073725623 Z" fill="none" stroke="#222" stroke-width="0.01" />
<path d="M -0.614302862 0.867824041 -0.489302862 0.567824041 -0.551802862 0.567824041 -0.414302862 0.317824041 -0.514302862 0.317824041 -0.264302862 0.067824041 -0.539302862 0.067824041 -0.539302862 -0.132175959 -0.689302862 -0.132175959 -0.689302862 0.067824041 -0.964302862 0.067824041 -0.714302862 0.317824041 -0.814302862 0.317824041 -0.676802862 0.567824041 -0.739302862 0.567824041 Z" fill="none" stroke="#222" stroke-width="0.01" />
<path d="M -0.051483463 0.728136526 0.073516537 0.428136526 0.011016537 0.428136526 0.148516537 0.178136526 0.048516537 0.178136526 0.298516537 -0.071863474 0.023516537 -0.071863474 0.023516537 -0.271863474 -0.126483463 -0.271863474 -0.126483463 -0.071863474 -0.401483463 -0.071863474 -0.151483463 0.178136526 -0.251483463 0.178136526 -0.113983463 0.428136526 -0.176483463 0.428136526 Z" fill="none" stroke="#222" stroke-width="0.01" />
<path d="M 0.630520879 1.231141169 0.755520879 0.931141169 0.693020879 0.931141169 0.830520879 0.681141169 0.730520879 0.681141169 0.980520879 0.431141169 0.705520879 0.431141169 0.705520879 0.231141169 0.555520879 0.231141169 0.555520879 0.431141169 0.280520879 0.431141169 0.530520879 0.681141169 0.430520879 0.681141169 0.568020879 0.931141169 0.505520879 0.931141169 Z" fill="none" stroke="#222" stroke-width="0.01" />
<path d="M -0.450790926 1.671277604 -0.325790926 1.371277604 -0.388290926 1.371277604 -0.250790926 1.121277604 -0.350790926 1.121277604 -0.100790926 0.871277604 -0.375790926 0.871277604 -0.375790926 0.671277604 -0.525790926 0.671277604 -0.525790926 0.871277604 -0.800790926 0.871277604 -0.550790926 1.121277604 -0.650790926 1.121277604 -0.513290926 1.371277604 -0.575790926 1.371277604 Z" fill="none" stroke="#222" stroke-width="0.01" />
<path d="M 0.106735396 1.528803925 0.231735396 1.228803925 0.169235396 1.228803925 0.306735396 0.978803925 0.206735396 0.978803925 0.456735396 0.728803925 0.181735396 0.728803925 0.181735396 0.528803925 0.031735396 0.528803925 0.031735396 0.728803925 -0.243264604 0.728803925 0.006735396 0.978803925 -0.093264604 0.978803925 0.044235396 1.228803925 -0.018264604 1.228803925 Z" fill="none" stroke="#222" stroke-width="0.01" />
<rect x="-1.371415853" y="-1.087772121" width="2.759049724" height="2.759049724" fill="none" stroke="#000" stroke-width="0.01" />
</g>
<text x="500" y="92" font-family="monospace" font-size="12">grid</text>
<g transform="translate(960.000 520.000) scale(106.524891660 -106.524891660) translate(1.916915352 1.846059598)">
<path d="M -0.727011693 0.226202496 -0.602011693 -0.073797504 -0.664511693 -0.073797504 -0.527011693 -0.323797504 -0.627011693 -0.323797504 -0.377011693 -0.573797504 -0.652011693 -0.573797504 -0.652011693 -0.773797504 -0.802011693 -0.773797504 -0.802011693 -0.573797504 -1.077011693 -0.573797504 -0.827011693 -0.323797504 -0.927011693 -0.323797504 -0.789511693 -0.073797504 -0.852011693 -0.073797504 Z" fill="none" stroke="#222" stroke-width="0.01" />
<path d="M 0.091754534 -1.350994799 -0.033245466 -1.050994799 0.029254534 -1.050994799 -0.108245466 -0.800994799 -0.008245466 -0.800994799 -0.258245466 -0.550994799 0.016754534 -0.550994799 0.016754534 -0.350994799 0.166754534 -0.350994799 0.166754534 -0.550994799 0.441754534 -0.550994799 0.191754534 -0.800994799 0.291754534 -0.800994799 0.154254534 -1.050994799 0.216754534 -1.050994799 Z" fill="none" stroke="#222" stroke-width="0.01" />
<path d="M 0.801650580 0.243086740 0.926650580 -0.056913260 0.864150580 -0.056913260 1.001650580 -0.306913260 0.901650580 -0.306913260 1.151650580 -0.556913260 0.876650580 -0.556913260 0.876650580 -0.756913260 0.726650580 -0.756913260 0.726650580 -0.556913260 0.451650580 -0.556913260 0.701650580 -0.306913260 0.601650580 -0.306913260 0.739150580 -0.056913260 0.676650580 -0.056913260 Z" fill="none" stroke="#222" stroke-width="0.01" />
<path d="M -0.324351007 -0.699353030 -0.449351007 -0.399353030 -0.386851007 -0.399353030 -0.524351007 -0.149353030 -0.424351007 -0.149353030 -0.674351007 0.100646970 -0.399351007 0.100646970 -0.399351007 0.300646970 -0.249351007 0.300646970 -0.249351007 0.100646970 0.025648993 0.100646970 -0.224351007 -0.149353030 -0.124351007 -0.149353030 -0.261851007 -0.399353030 -0.199351007 -0.399353030 Z" fill="none" stroke="#222" stroke-width="0.01" />
<path d="M 0.128231063 0.652802606 0.253231063 0.352802606 0.190731063 0.352802606 0.328231063 0.102802606 0.228231063 0.102802606 0.478231063 -0.147197394 0.203231063 -0.147197394 0.203231063 -0.347197394 0.053231063 -0.347197394 0.053231063 -0.147197394 -0.221768937 -0.147197394 0.028231063 0.102802606 -0.071768937 0.102802606 0.065731063 0.352802606 0.003231063 0.352802606 Z" fill="none" stroke="#222" stroke-width="0.01" />
<path d="M 0.541918247 -0.449226130 0.416918247 -0.149226130 0.479418247 -0.149226130 0.341918247 0.100773870 0.441918247 0.100773870 0.191918247 0.350773870 0.466918247 0.350773870 0.466918247 0.550773870 0.616918247 0.550773870 0.616918247 0.350773870 0.891918247 0.350773870 0.641918247 0.100773870 0.741918247 0.100773870 0.604418247 -0.149226130 0.666918247 -0.149226130 Z" fill="none" stroke="#222" stroke-width="0.01" />
<path d="M -0.532583122 1.101265491 -0.407583122 0.801265491 -0.470083122 0.801265491 -0.332583122 0.551265491 -0.432583122 0.551265491 -0.182583122 0.301265491 -0.457583122 0.301265491 -0.457583122 0.101265491 -0.607583122 0.101265491 -0.607583122 0.301265491 -0.882583122 0.301265491 -0.632583122 0.551265491 -0.732583122 0.551265491 -0.595083122 0.801265491 -0.657583122 0.801265491 Z" fill="none" stroke="#222" stroke-width="0.01" />
<path d="M -0.100437651 0.105041730 -0.225437651 0.405041730 -0.162937651 0.405041730 -0.300437651 0.655041730 -0.200437651 0.655041730 -0.450437651 0.905041730 -0.175437651 0.905041730 -0.175437651 1.105041730 -0.025437651 1.105041730 -0.025437651 0.905041730 0.249562349 0.905041730 -0.000437651 0.655041730 0.099562349 0.655041730 -0.037937651 0.405041730 0.024562349 0.405041730 Z" fill="none" stroke="#222" stroke-width="0.01" />
<rect x="-1.190698821" y="-1.350994799" width="2.456036529" height="2.456036529" fill="none" stroke="#000" stroke-width="0.01" />
</g>
<text x="960" y="92" font-family="monospace" font-size="12">grid_alt180</text>
<g transform="translate(40.000 980.000) scale(106.524891660 -106.524891660) translate(1.916915352 1.846059598)">
<path d="M -0.193990206 -0.022160454 -0.317733893 -0.322680836 -0.361928067 -0.278486662 -0.441477580 -0.552490540 -0.512188258 -0.481779862 -0.512188258 -0.835333252 -0.706642623 -0.640878887 -0.848063979 -0.782300244 -0.954129996 -0.676234226 -0.812708640 -0.534812870 -1.007163005 -0.340358505 -0.653609614 -0.340358505 -0.724320292 -0.269647827 -0.450316415 -0.190098314 -0.494510588 -0.145904141 Z" fill="none" stroke="#222" stroke-width="0.01" />
<path d="M -0.199032815 -0.091160886 0.101487567 -0.214904573 0.057293393 -0.259098747 0.331297271 -0.338648260 0.260586593 -0.409358938 0.614139983 -0.409358938 0.419685618 -0.603813303 0.561106975 -0.745234659 0.455040957 -0.851300676 0.313619601 -0.709879320 0.119165236 -0.904333685 0.119165236 -0.550780294 0.048454558 -0.621490972 -0.031094955 -0.347487095 -0.075289128 -0.391681268 Z" fill="none" stroke="#222" stroke-width="0.01" />
<path d="M 1.280063880 0.056090352 1.156320193 -0.244430030 1.112126020 -0.200235856 1.032576507 -0.474239734 0.961865829 -0.403529056 0.961865829 -0.757082447 0.767411464 -0.562628082 0.625990108 -0.704049438 0.519924090 -0.597983421 0.661345447 -0.456562065 0.466891082 -0.262107700 0.820444472 -0.262107700 0.749733794 -0.191397022 1.023737672 -0.111847509 0.979543498 -0.067653335 Z" fill="none" stroke="#222" stroke-width="0.01" />
<path d="M -1.230832692 0.534696630 -0.930312310 0.410952943 -0.974506484 0.366758770 -0.700502606 0.287209257 -0.771213284 0.216498579 -0.417659893 0.216498579 -0.612114258 0.022044214 -0.470692902 -0.119377143 -0.576758919 -0.225443160 -0.718180275 -0.084021803 -0.912634640 -0.278476168 -0.912634640 0.075077222 -0.983345318 0.004366544 -1.062894831 0.278370422 -1.107089005 0.234176248 Z" fill="none" stroke="#222" stroke-width="0.01" />
<path d="M 0.268223138 0.661988734 0.144479451 0.361468352 0.100285277 0.405662526 0.020735764 0.131658648 -0.049974914 0.202369326 -0.049974914 -0.151184064 -0.244429279 0.043270300 -0.385850635 -0.098151056 -0.491916652 0.007914961 -0.350495296 0.149336318 -0.544949661 0.343790682 -0.191396270 0.343790682 -0.262106948 0.414501361 0.011896930 0.494050873 -0.032297244 0.538245047 Z" fill="none" stroke="#222" stroke-width="0.01" />
<path d="M 0.257279624 0.624296353 0.557800006 0.500552666 0.513605832 0.456358492 0.787609709 0.376808979 0.716899031 0.306098301 1.070452422 0.306098301 0.875998057 0.111643937 1.017419413 -0.029777420 0.911353396 -0.135843437 0.769932040 0.005577919 0.575477675 -0.188876445 0.575477675 0.164676945 0.504766997 0.093966267 0.425217484 0.367970145 0.381023310 0.323775971 Z" fill="none" stroke="#222" stroke-width="0.01" />
<path d="M -0.111129006 1.159175879 -0.234872693 0.858655497 -0.279066867 0.902849671 -0.358616380 0.628845793 -0.429327058 0.699556471 -0.429327058 0.346003080 -0.623781423 0.540457445 -0.765202779 0.399036089 -0.871268796 0.505102106 -0.729847440 0.646523462 -0.924301805 0.840977827 -0.570748414 0.840977827 -0.641459092 0.911688505 -0.367455214 0.991238018 -0.411649388 1.035432192 Z" fill="none" stroke="#222" stroke-width="0.01" />
<path d="M -0.208193008 1.414600887 0.092327374 1.290857201 0.048133201 1.246663027 0.322137078 1.167113514 0.251426400 1.096402836 0.604979791 1.096402836 0.410525426 0.901948471 0.551946782 0.760527115 0.445880765 0.654461098 0.304459409 0.795882454 0.110005044 0.601428089 0.110005044 0.954981480 0.039294366 0.884270802 -0.040255147 1.158274679 -0.084449321 1.114080505 Z" fill="none" stroke="#222" stroke-width="0.01" />
<rect x="-1.230832692" y="-1.000314685" width="2.510896572" height="2.510896572" fill="none" stroke="#000" stroke-width="0.01" />
</g>
<text x="40" y="552" font-family="monospace" font-size="12">grid_alt45</text>
<g transform="translate(500.000 980.000) scale(106.524891660 -106.524891660) translate(1.916915352 1.846059598)">
<path d="M -1.040587389 0.043272463 -0.740067007 -0.080471224 -0.784261181 -0.124665398 -0.510257304 -0.204214911 -0.580967982 -0.274925589 -0.227414591 -0.274925589 -0.421868956 -0.469379954 -0.280447600 -0.610801310 -0.386513617 -0.716867327 -0.527934973 -0.575445971 -0.722389338 -0.769900336 -0.722389338 -0.416346945 -0.793100016 -0.487057623 -0.872649529 -0.213053745 -0.916843703 -0.257247919 Z" fill="none" stroke="#222" stroke-width="0.01" />
<path d="M 0.418170666 -1.049125759 0.117650284 -0.925382072 0.161844458 -0.881187898 -0.112159420 -0.801638385 -0.041448741 -0.730927707 -0.395002132 -0.730927707 -0.200547767 -0.536473342 -0.341969123 -0.395051986 -0.235903106 -0.288985969 -0.094481750 -0.430407325 0.099972615 -0.235952960 0.099972615 -0.589506351 0.170683293 -0.518795673 0.250232806 -0.792799551 0.294426980 -0.748605377 Z" fill="none" stroke="#222" stroke-width="0.01" />
<path d="M 0.068993476 -0.154748331 0.369513858 -0.278492018 0.325319685 -0.322686191 0.599323562 -0.402235704 0.528612884 -0.472946382 0.882166275 -0.472946382 0.687711910 -0.667400747 0.829133266 -0.808822103 0.723067249 -0.914888121 0.581645893 -0.773466764 0.387191528 -0.967921129 0.387191528 -0.614367739 0.316480850 -0.685078417 0.236931337 -0.411074539 0.192737163 -0.455268713 Z" fill="none" stroke="#222" stroke-width="0.01" />
<path d="M -0.047167524 -0.347784030 -0.347687906 -0.224040344 -0.303493732 -0.179846170 -0.577497610 -0.100296657 -0.506786932 -0.029585979 -0.860340323 -0.029585979 -0.665885958 0.164868386 -0.807307314 0.306289742 -0.701241297 0.412355759 -0.559819941 0.270934403 -0.365365576 0.465388768 -0.365365576 0.111835377 -0.294654898 0.182546056 -0.215105385 -0.091457822 -0.170911211 -0.047263648 Z" fill="none" stroke="#222" stroke-width="0.01" />
<path d="M -0.391866351 0.530154774 -0.091345969 0.406411087 -0.135540142 0.362216913 0.138463735 0.282667401 0.067753057 0.211956722 0.421306448 0.211956722 0.226852083 0.017502358 0.368273439 -0.123918999 0.262207422 -0.229985016 0.120786066 -0.088563660 -0.073668299 -0.283018024 -0.073668299 0.070535366 -0.144378977 -0.000175312 -0.223928490 0.273828566 -0.268122664 0.229634392 Z" fill="none" stroke="#222" stroke-width="0.01" />
<path d="M 1.080192422 -0.552804980 0.779672040 -0.429061293 0.823866214 -0.384867119 0.549862336 -0.305317607 0.620573014 -0.234606928 0.267019624 -0.234606928 0.461473988 -0.040152564 0.320052632 0.101268793 0.426118649 0.207334810 0.567540006 0.065913454 0.761994370 0.260367818 0.761994370 -0.093185572 0.832705049 -0.022474894 0.912254561 -0.296478772 0.956448735 -0.252284598 Z" fill="none" stroke="#222" stroke-width="0.01" />
<path d="M -0.848329110 1.211545758 -0.547808728 1.087802071 -0.592002902 1.043607897 -0.317999024 0.964058384 -0.388709702 0.893347706 -0.035156312 0.893347706 -0.229610677 0.698893341 -0.088189320 0.557471985 -0.194255338 0.451405968 -0.335676694 0.592827324 -0.530131059 0.398372959 -0.530131059 0.751926350 -0.600841737 0.681215672 -0.680391250 0.955219550 -0.724585423 0.911025376 Z" fill="none" stroke="#222" stroke-width="0.01" />
<path d="M 0.622983430 0.131533694 0.322463048 0.255277380 0.366657222 0.299471554 0.092653344 0.379021067 0.163364023 0.449731745 -0.190189368 0.449731745 0.004264997 0.644186110 -0.137156359 0.785607466 -0.031090342 0.891673483 0.110331014 0.750252127 0.304785379 0.944706492 0.304785379 0.591153101 0.375496057 0.661863780 0.455045570 0.387859902 0.499239744 0.432054076 Z" fill="none" stroke="#222" stroke-width="0.01" />
<rect x="-1.110533242" y="-1.049125759" width="2.260671517" height="2.260671517" fill="none" stroke="#000" stroke-width="0.01" />
</g>
<text x="500" y="552" font-family="monospace" font-size="12">alternating</text>
<g transform="translate(960.000 980.000) scale(106.524891660 -106.524891660) translate(1.916915352 1.846059598)">
<path d="M -0.746652138 0.368066186 -0.621652138 0.068066186 -0.684152138 0.068066186 -0.546652138 -0.181933814 -0.646652138 -0.181933814 -0.396652138 -0.431933814 -0.671652138 -0.431933814 -0.671652138 -0.631933814 -0.821652138 -0.631933814 -0.821652138 -0.431933814 -1.096652138 -0.431933814 -0.846652138 -0.181933814 -0.946652138 -0.181933814 -0.809152138 0.068066186 -0.871652138 0.068066186 Z" fill="none" stroke="#222" stroke-width="0.01" />
<path d="M -0.149920962 -1.444836119 -0.274920962 -1.144836119 -0.212420962 -1.144836119 -0.349920962 -0.894836119 -0.249920962 -0.894836119 -0.499920962 -0.644836119 -0.224920962 -0.644836119 -0.224920962 -0.444836119 -0.074920962 -0.444836119 -0.074920962 -0.644836119 0.200079038 -0.644836119 -0.049920962 -0.894836119 0.050079038 -0.894836119 -0.087420962 -1.144836119 -0.024920962 -1.144836119 Z" fill="none" stroke="#222" stroke-width="0.01" />
<path d="M 0.276386894 0.157114161 0.401386894 -0.142885839 0.338886894 -0.142885839 0.476386894 -0.392885839 0.376386894 -0.392885839 0.626386894 -0.642885839 0.351386894 -0.642885839 0.351386894 -0.842885839 0.201386894 -0.842885839 0.201386894 -0.642885839 -0.073613106 -0.642885839 0.176386894 -0.392885839 0.076386894 -0.392885839 0.213886894 -0.142885839 0.151386894 -0.142885839 Z" fill="none" stroke="#222" stroke-width="0.01" />
<path d="M -0.310520783 -0.638649024 -0.435520783 -0.338649024 -0.373020783 -0.338649024 -0.510520783 -0.088649024 -0.410520783 -0.088649024 -0.660520783 0.161350976 -0.385520783 0.161350976 -0.385520783 0.361350976 -0.235520783 0.361350976 -0.235520783 0.161350976 0.039479217 0.161350976 -0.210520783 -0.088649024 -0.110520783 -0.088649024 -0.248020783 -0.338649024 -0.185520783 -0.338649024 Z" fill="none" stroke="#222" stroke-width="0.01" />
<path d="M 0.560407553 0.959013298 0.685407553 0.659013298 0.622907553 0.659013298 0.760407553 0.409013298 0.660407553 0.409013298 0.910407553 0.159013298 0.635407553 0.159013298 0.635407553 -0.040986702 0.485407553 -0.040986702 0.485407553 0.159013298 0.210407553 0.159013298 0.460407553 0.409013298 0.360407553 0.409013298 0.497907553 0.659013298 0.435407553 0.659013298 Z" fill="none" stroke="#222" stroke-width="0.01" />
<path d="M 0.986626140 -0.808741324 0.861626140 -0.508741324 0.924126140 -0.508741324 0.786626140 -0.258741324 0.886626140 -0.258741324 0.636626140 -0.008741324 0.911626140 -0.008741324 0.911626140 0.191258676 1.061626140 0.191258676 1.061626140 -0.008741324 1.336626140 -0.008741324 1.086626140 -0.258741324 1.186626140 -0.258741324 1.049126140 -0.508741324 1.111626140 -0.508741324 Z" fill="none" stroke="#222" stroke-width="0.01" />
<path d="M -0.300888394 1.418429101 -0.175888394 1.118429101 -0.238388394 1.118429101 -0.100888394 0.868429101 -0.200888394 0.868429101 0.049111606 0.618429101 -0.225888394 0.618429101 -0.225888394 0.418429101 -0.375888394 0.418429101 -0.375888394 0.618429101 -0.650888394 0.618429101 -0.400888394 0.868429101 -0.500888394 0.868429101 -0.363388394 1.118429101 -0.425888394 1.118429101 Z" fill="none" stroke="#222" stroke-width="0.01" />
<path d="M 0.125586242 -0.181570895 0.000586242 0.118429105 0.063086242 0.118429105 -0.074413758 0.368429105 0.025586242 0.368429105 -0.224413758 0.618429105 0.050586242 0.618429105 0.050586242 0.818429105 0.200586242 0.818429105 0.200586242 0.618429105 0.475586242 0.618429105 0.225586242 0.368429105 0.325586242 0.368429105 0.188086242 0.118429105 0.250586242 0.118429105 Z" fill="none" stroke="#222" stroke-width="0.01" />
<rect x="-1.311645609" y="-1.444836119" width="2.863265220" height="2.863265220" fill="none" stroke="#000" stroke-width="0.01" />
</g>
<text x="960" y="552" font-family="monospace" font-size="12">sheared_brick</text>
<g transform="translate(40.000 1440.000) scale(106.524891660 -106.524891660) translate(1.916915352 1.846059598)">
<path d="M -1.089035532 0.410559546 -0.788515150 0.286815859 -0.832709324 0.242621685 -0.558705447 0.163072172 -0.629416125 0.092361494 -0.275862734 0.092361494 -0.470317099 -0.102092870 -0.328895743 -0.243514227 -0.434961760 -0.349580244 -0.576383116 -0.208158888 -0.770837481 -0.402613253 -0.770837481 -0.049059862 -0.841548159 -0.119770540 -0.921097672 0.154233338 -0.965291846 0.110039164 Z" fill="none" stroke="#222" stroke-width="0.01" />
<path d="M 0.343885037 -0.419261585 0.043364655 -0.295517898 0.087558828 -0.251323724 -0.186445049 -0.171774211 -0.115734371 -0.101063533 -0.469287762 -0.101063533 -0.274833397 0.093390832 -0.416254753 0.234812188 -0.310188736 0.340878205 -0.168767380 0.199456849 0.025686985 0.393911214 0.025686985 0.040357823 0.096397663 0.111068501 0.175947176 -0.162935376 0.220141350 -0.118741203 Z" fill="none" stroke="#222" stroke-width="0.01" />
<path d="M -0.313611426 1.589747077 -0.013091044 1.466003390 -0.057285218 1.421809216 0.216718660 1.342259704 0.146007981 1.271549025 0.499561372 1.271549025 0.305107007 1.077094661 0.446528363 0.935673304 0.340462346 0.829607287 0.199040990 0.971028643 0.004586625 0.776574279 0.004586625 1.130127669 -0.066124053 1.059416991 -0.145673566 1.333420869 -0.189867740 1.289226695 Z" fill="none" stroke="#222" stroke-width="0.01" />
<path d="M 0.359588526 -1.051092807 0.059068144 -0.927349120 0.103262318 -0.883154946 -0.170741560 -0.803605433 -0.100030882 -0.732894755 -0.453584273 -0.732894755 -0.259129908 -0.538440390 -0.400551264 -0.397019034 -0.294485247 -0.290953017 -0.153063891 -0.432374373 0.041390474 -0.237920008 0.041390474 -0.591473399 0.112101152 -0.520762721 0.191650665 -0.794766598 0.235844839 -0.750572425 Z" fill="none" stroke="#222" stroke-width="0.01" />
<path d="M -0.487209377 1.012874338 -0.186688995 0.889130651 -0.230883169 0.844936477 0.043120709 0.765386964 -0.027589970 0.694676286 0.325963421 0.694676286 0.131509056 0.500221921 0.272930412 0.358800565 0.166864395 0.252734548 0.025443039 0.394155904 -0.169011326 0.199701539 -0.169011326 0.553254930 -0.239722004 0.482544252 -0.319271517 0.756548129 -0.363465691 0.712353956 Z" fill="none" stroke="#222" stroke-width="0.01" />
<path d="M 0.905559413 -0.145394324 0.605039031 -0.021650637 0.649233205 0.022543537 0.375229327 0.102093050 0.445940005 0.172803728 0.092386615 0.172803728 0.286840980 0.367258093 0.145419623 0.508679449 0.251485640 0.614745466 0.392906997 0.473324110 0.587361362 0.667778475 0.587361362 0.314225084 0.658072040 0.384935762 0.737621553 0.110931884 0.781815726 0.155126058 Z" fill="none" stroke="#222" stroke-width="0.01" />
<path d="M -0.859858089 -0.521426913 -0.559337707 -0.645170600 -0.603531881 -0.689364773 -0.329528003 -0.768914286 -0.400238682 -0.839624964 -0.046685291 -0.839624964 -0.241139656 -1.034079329 -0.099718300 -1.175500685 -0.205784317 -1.281566703 -0.347205673 -1.140145346 -0.541660038 -1.334599711 -0.541660038 -0.981046321 -0.612370716 -1.051756999 -0.691920229 -0.777753121 -0.736114403 -0.821947295 Z" fill="none" stroke="#222" stroke-width="0.01" />
<path d="M 1.023249245 -0.876004914 0.722728863 -0.752261227 0.766923037 -0.708067053 0.492919159 -0.628517541 0.563629837 -0.557806862 0.210076447 -0.557806862 0.404530811 -0.363352498 0.263109455 -0.221931141 0.369175472 -0.115865124 0.510596829 -0.257286480 0.705051193 -0.062832116 0.705051193 -0.416385506 0.775761872 -0.345674828 0.855311384 -0.619678706 0.899505558 -0.575484532 Z" fill="none" stroke="#222" stroke-width="0.01" />
<rect x="-1.495066538" y="-1.334599711" width="2.924346788" height="2.924346788" fill="none" stroke="#000" stroke-width="0.01" />
</g>
<text x="40" y="1012" font-family="monospace" font-size="12">diamond_lattice</text>
<g transform="translate(500.000 1440.000) scale(106.524891660 -106.524891660) translate(1.916915352 1.846059598)">
<path d="M -0.657493839 -0.006020303 -0.532493839 -0.306020303 -0.594993839 -0.306020303 -0.457493839 -0.556020303 -0.557493839 -0.556020303 -0.307493839 -0.806020303 -0.582493839 -0.806020303 -0.582493839 -1.006020303 -0.732493839 -1.006020303 -0.732493839 -0.806020303 -1.007493839 -0.806020303 -0.757493839 -0.556020303 -0.857493839 -0.556020303 -0.719993839 -0.306020303 -0.782493839 -0.306020303 Z" fill="none" stroke="#222" stroke-width="0.01" />
<path d="M -0.134291371 0.292702473 -0.009291371 -0.007297527 -0.071791371 -0.007297527 0.065708629 -0.257297527 -0.034291371 -0.257297527 0.215708629 -0.507297527 -0.059291371 -0.507297527 -0.059291371 -0.707297527 -0.209291371 -0.707297527 -0.209291371 -0.507297527 -0.484291371 -0.507297527 -0.234291371 -0.257297527 -0.334291371 -0.257297527 -0.196791371 -0.007297527 -0.259291371 -0.007297527 Z" fill="none" stroke="#222" stroke-width="0.01" />
<path d="M 0.365708629 0.092702473 0.490708629 -0.207297527 0.428208629 -0.207297527 0.565708629 -0.457297527 0.465708629 -0.457297527 0.715708629 -0.707297527 0.440708629 -0.707297527 0.440708629 -0.907297527 0.290708629 -0.907297527 0.290708629 -0.707297527 0.015708629 -0.707297527 0.265708629 -0.457297527 0.165708629 -0.457297527 0.303208629 -0.207297527 0.240708629 -0.207297527 Z" fill="none" stroke="#222" stroke-width="0.01" />
<path d="M -1.235488758 0.127823895 -0.935488758 0.252823895 -0.935488758 0.190323895 -0.685488758 0.327823895 -0.685488758 0.227823895 -0.435488758 0.477823895 -0.435488758 0.202823895 -0.235488758 0.202823895 -0.235488758 0.052823895 -0.435488758 0.052823895 -0.435488758 -0.222176105 -0.685488758 0.027823895 -0.685488758 -0.072176105 -0.935488758 0.065323895 -0.935488758 0.002823895 Z" fill="none" stroke="#222" stroke-width="0.01" />
<path d="M -0.381783970 0.407960605 -0.081783970 0.532960605 -0.081783970 0.470460605 0.168216030 0.607960605 0.168216030 0.507960605 0.418216030 0.757960605 0.418216030 0.482960605 0.618216030 0.482960605 0.618216030 0.332960605 0.418216030 0.332960605 0.418216030 0.057960605 0.168216030 0.307960605 0.168216030 0.207960605 -0.081783970 0.345460605 -0.081783970 0.282960605 Z" fill="none" stroke="#222" stroke-width="0.01" />
<path d="M 0.394849850 0.048224697 0.694849850 0.173224697 0.694849850 0.110724697 0.944849850 0.248224697 0.944849850 0.148224697 1.194849850 0.398224697 1.194849850 0.123224697 1.394849850 0.123224697 1.394849850 -0.026775303 1.194849850 -0.026775303 1.194849850 -0.301775303 0.944849850 -0.051775303 0.944849850 -0.151775303 0.694849850 -0.014275303 0.694849850 -0.076775303 Z" fill="none" stroke="#222" stroke-width="0.01" />
<path d="M -0.615554983 1.377447748 -0.490554983 1.077447748 -0.553054983 1.077447748 -0.415554983 0.827447748 -0.515554983 0.827447748 -0.265554983 0.577447748 -0.540554983 0.577447748 -0.540554983 0.377447748 -0.690554983 0.377447748 -0.690554983 0.577447748 -0.965554983 0.577447748 -0.715554983 0.827447748 -0.815554983 0.827447748 -0.678054983 1.077447748 -0.740554983 1.077447748 Z" fill="none" stroke="#222" stroke-width="0.01" />
<path d="M -0.067139822 1.535442967 0.057860178 1.235442967 -0.004639822 1.235442967 0.132860178 0.985442967 0.032860178 0.985442967 0.282860178 0.735442967 0.007860178 0.735442967 0.007860178 0.535442967 -0.142139822 0.535442967 -0.142139822 0.735442967 -0.417139822 0.735442967 -0.167139822 0.985442967 -0.267139822 0.985442967 -0.129639822 1.235442967 -0.192139822 1.235442967 Z" fill="none" stroke="#222" stroke-width="0.01" />
<rect x="-1.235488758" y="-1.050457972" width="2.630338608" height="2.630338608" fill="none" stroke="#000" stroke-width="0.01" />
</g>
<text x="500" y="1012" font-family="monospace" font-size="12">herringbone</text>
<g transform="translate(960.000 1440.000) scale(106.524891660 -106.524891660) translate(1.916915352 1.846059598)">
<path d="M 0.613969298 1.097246136 0.738969298 0.797246136 0.676469298 0.797246136 0.813969298 0.547246136 0.713969298 0.547246136 0.963969298 0.297246136 0.688969298 0.297246136 0.688969298 0.097246136 0.538969298 0.097246136 0.538969298 0.297246136 0.263969298 0.297246136 0.513969298 0.547246136 0.413969298 0.547246136 0.551469298 0.797246136 0.488969298 0.797246136 Z" fill="none" stroke="#222" stroke-width="0.01" />
<path d="M -0.341440301 1.209940492 -0.040919919 1.086196805 -0.085114093 1.042002631 0.188889785 0.962453118 0.118179107 0.891742440 0.471732498 0.891742440 0.277278133 0.697288075 0.418699489 0.555866719 0.312633472 0.449800702 0.171212116 0.591222058 -0.023242249 0.396767693 -0.023242249 0.750321084 -0.093952927 0.679610406 -0.173502440 0.953614283 -0.217696614 0.909420110 Z" fill="none" stroke="#222" stroke-width="0.01" />
<path d="M -1.097216076 0.613953346 -0.797216076 0.738953346 -0.797216076 0.676453346 -0.547216076 0.813953346 -0.547216076 0.713953346 -0.297216076 0.963953346 -0.297216076 0.688953346 -0.097216076 0.688953346 -0.097216076 0.538953346 -0.297216076 0.538953346 -0.297216076 0.263953346 -0.547216076 0.513953346 -0.547216076 0.413953346 -0.797216076 0.551453346 -0.797216076 0.488953346 Z" fill="none" stroke="#222" stroke-width="0.01" />
<path d="M -1.209991237 -0.341693375 -1.086247550 -0.041172993 -1.042053376 -0.085367167 -0.962503863 0.188636711 -0.891793185 0.117926033 -0.891793185 0.471479423 -0.697338820 0.277025058 -0.555917464 0.418446415 -0.449851447 0.312380397 -0.591272803 0.170959041 -0.396818438 -0.023495324 -0.750371829 -0.023495324 -0.679661151 -0.094206002 -0.953665028 -0.173755515 -0.909470855 -0.217949688 Z" fill="none" stroke="#222" stroke-width="0.01" />
<path d="M -0.614204394 -1.096996889 -0.739204394 -0.796996889 -0.676704394 -0.796996889 -0.814204394 -0.546996889 -0.714204394 -0.546996889 -0.964204394 -0.296996889 -0.689204394 -0.296996889 -0.689204394 -0.096996889 -0.539204394 -0.096996889 -0.539204394 -0.296996889 -0.264204394 -0.296996889 -0.514204394 -0.546996889 -0.414204394 -0.546996889 -0.551704394 -0.796996889 -0.489204394 -0.796996889 Z" fill="none" stroke="#222" stroke-width="0.01" />
<path d="M 0.341591778 -1.210068840 0.041071396 -1.086325153 0.085265570 -1.042130980 -0.188738308 -0.962581467 -0.118027630 -0.891870789 -0.471581020 -0.891870789 -0.277126655 -0.697416424 -0.418548012 -0.555995068 -0.312481995 -0.449929050 -0.171060638 -0.591350407 0.023393727 -0.396896042 0.023393727 -0.750449432 0.094104405 -0.679738754 0.173653918 -0.953742632 0.217848091 -0.909548458 Z" fill="none" stroke="#222" stroke-width="0.01" />
<path d="M 1.097192521 -0.614216512 0.797192521 -0.739216512 0.797192521 -0.676716512 0.547192521 -0.814216512 0.547192521 -0.714216512 0.297192521 -0.964216512 0.297192521 -0.689216512 0.097192521 -0.689216512 0.097192521 -0.539216512 0.297192521 -0.539216512 0.297192521 -0.264216512 0.547192521 -0.514216512 0.547192521 -0.414216512 0.797192521 -0.551716512 0.797192521 -0.489216512 Z" fill="none" stroke="#222" stroke-width="0.01" />
<path d="M 1.210099041 0.341836024 1.086355354 0.041315642 1.042161181 0.085509816 0.962611668 -0.188494061 0.891900990 -0.117783383 0.891900990 -0.471336774 0.697446625 -0.276882409 0.556025269 -0.418303765 0.449959251 -0.312237748 0.591380608 -0.170816392 0.396926243 0.023637973 0.750479633 0.023637973 0.679768955 0.094348651 0.953772833 0.173898164 0.909578659 0.218092338 Z" fill="none" stroke="#222" stroke-width="0.01" />
<rect x="-1.209991237" y="-1.210109313" width="2.420090278" height="2.420090278" fill="none" stroke="#000" stroke-width="0.01" />
</g>
<text x="960" y="1012" font-family="monospace" font-size="12">circle_ring</text>
<g transform="translate(40.000 1900.000) scale(106.524891660 -106.524891660) translate(1.916915352 1.846059598)">
<path d="M -0.033779248 0.579924592 0.091220752 0.279924592 0.028720752 0.279924592 0.166220752 0.029924592 0.066220752 0.029924592 0.316220752 -0.220075408 0.041220752 -0.220075408 0.041220752 -0.420075408 -0.108779248 -0.420075408 -0.108779248 -0.220075408 -0.383779248 -0.220075408 -0.133779248 0.029924592 -0.233779248 0.029924592 -0.096279248 0.279924592 -0.158779248 0.279924592 Z" fill="none" stroke="#222" stroke-width="0.01" />
<path d="M -0.284501729 1.084519664 0.023380286 0.980434771 -0.017868661 0.933479745 0.260699123 0.871785015 0.194700809 0.796656974 0.547516696 0.819481289 0.366021331 0.612879178 0.516277412 0.480882548 0.417279940 0.368190488 0.267023859 0.500187117 0.085528494 0.293585005 0.062704179 0.646400893 -0.003294135 0.571272853 -0.100366554 0.839569695 -0.141615501 0.792614669 Z" fill="none" stroke="#222" stroke-width="0.01" />
<path d="M -1.066260178 0.451477986 -0.784866297 0.614089435 -0.776813516 0.552110385 -0.546613431 0.720675420 -0.533728982 0.621508939 -0.318023903 0.901636265 -0.282591667 0.628928442 -0.084258705 0.654697341 -0.064932030 0.505947619 -0.263264993 0.480178720 -0.227832757 0.207470897 -0.507960083 0.423175976 -0.495075633 0.324009495 -0.760707954 0.428152283 -0.752655173 0.366173233 Z" fill="none" stroke="#222" stroke-width="0.01" />
<path d="M -0.955135103 -0.498684731 -0.891586680 -0.179958206 -0.839708334 -0.214813439 -0.814419766 0.069381456 -0.731414412 0.013613085 -0.799506867 0.360547398 -0.571242145 0.207184375 -0.459705401 0.373195083 -0.335197371 0.289542525 -0.446734114 0.123531818 -0.218469392 -0.029831204 -0.565403705 -0.097923659 -0.482398352 -0.153692031 -0.735951642 -0.284523903 -0.684073296 -0.319379136 Z" fill="none" stroke="#222" stroke-width="0.01" />
<path d="M -0.242725609 -1.146927161 -0.440237713 -0.888830341 -0.379812826 -0.872859022 -0.576632853 -0.666296375 -0.479953034 -0.640742265 -0.785537858 -0.462927992 -0.519668355 -0.392654189 -0.570776575 -0.199294551 -0.425756846 -0.160963386 -0.374648626 -0.354323024 -0.108779123 -0.284049221 -0.286593395 -0.589634045 -0.189913576 -0.564079935 -0.258963052 -0.840916384 -0.198538165 -0.824945065 Z" fill="none" stroke="#222" stroke-width="0.01" />
<path d="M 0.702403806 -0.908373743 0.378146062 -0.886421165 0.406026530 -0.830484330 0.120942161 -0.842023495 0.165550910 -0.752524559 -0.169718302 -0.864750026 -0.047044243 -0.618627952 -0.226042114 -0.529410455 -0.159128991 -0.395162051 0.019868881 -0.484379549 0.142542941 -0.238257475 0.254768408 -0.573526687 0.299377157 -0.484027751 0.461787466 -0.718610661 0.489667934 -0.662673826 Z" fill="none" stroke="#222" stroke-width="0.01" />
<path d="M 1.140981461 -0.059420580 0.910484274 -0.288540738 0.886860665 -0.230677320 0.707378934 -0.452471275 0.669581160 -0.359889806 0.532621925 -0.685837913 0.428678046 -0.431238875 0.243515109 -0.506834424 0.186818448 -0.367962221 0.371981384 -0.292366673 0.268037505 -0.037767635 0.593985611 -0.174726870 0.556187837 -0.082145402 0.839613447 -0.114950485 0.815989838 -0.057087067 Z" fill="none" stroke="#222" stroke-width="0.01" />
<path d="M 0.792367009 0.829597181 0.812376236 0.505213719 0.753313400 0.525654645 0.801487935 0.244433265 0.706987398 0.277138747 0.861475036 -0.040876299 0.601598560 0.049063775 0.536187597 -0.139937299 0.394436791 -0.090879077 0.459847754 0.098121997 0.199971278 0.188062071 0.517986324 0.342549710 0.423485787 0.375255191 0.635187729 0.566536497 0.576124893 0.586977423 Z" fill="none" stroke="#222" stroke-width="0.01" />
<rect x="-1.078362771" y="-1.146927161" width="2.231446825" height="2.231446825" fill="none" stroke="#000" stroke-width="0.01" />
</g>
<text x="40" y="1472" font-family="monospace" font-size="12">spiral</text>
<g transform="translate(500.000 1900.000) scale(106.524891660 -106.524891660) translate(1.916915352 1.846059598)">
<path d="M -1.002122131 -0.046474020 -0.702122131 0.078525980 -0.702122131 0.016025980 -0.452122131 0.153525980 -0.452122131 0.053525980 -0.202122131 0.303525980 -0.202122131 0.028525980 -0.002122131 0.028525980 -0.002122131 -0.121474020 -0.202122131 -0.121474020 -0.202122131 -0.396474020 -0.452122131 -0.146474020 -0.452122131 -0.246474020 -0.702122131 -0.108974020 -0.702122131 -0.171474020 Z" fill="none" stroke="#222" stroke-width="0.01" />
<path d="M 0.116018771 0.133645195 -0.189628180 0.244121173 -0.147410036 0.290206728 -0.424632171 0.357691081 -0.357083142 0.431427969 -0.710297935 0.415958323 -0.524538104 0.618734764 -0.672011880 0.753832823 -0.570688335 0.864438155 -0.423214560 0.729340096 -0.237454729 0.932116537 -0.221985083 0.578901744 -0.154436053 0.652638632 -0.062973749 0.382377838 -0.020755606 0.428463393 Z" fill="none" stroke="#222" stroke-width="0.01" />
<path d="M 0.255295631 0.056432698 0.406044728 -0.231490399 0.343784038 -0.236954507 0.502613988 -0.473976230 0.402996884 -0.482718802 0.673896075 -0.709905131 0.399949039 -0.733947206 0.417434184 -0.933181414 0.268008528 -0.946295273 0.250523383 -0.747061064 -0.023423654 -0.771103139 0.203762675 -0.500203947 0.104145571 -0.508946520 0.219262658 -0.247882722 0.157001968 -0.253346830 Z" fill="none" stroke="#222" stroke-width="0.01" />
<path d="M 0.097821343 0.024971072 0.181152907 0.339106155 0.230752954 0.301078726 0.273742566 0.583139257 0.353102642 0.522295371 0.306812169 0.872805274 0.525052376 0.705484587 0.646740148 0.864204738 0.765780260 0.772938908 0.644092488 0.614218758 0.862332695 0.446898071 0.511822792 0.400607599 0.591182867 0.339763713 0.329953048 0.225023868 0.379553095 0.186996440 Z" fill="none" stroke="#222" stroke-width="0.01" />
<path d="M -0.155221227 -0.406947350 -0.428862528 -0.582291121 -0.439748900 -0.520746528 -0.661977254 -0.699690120 -0.679395449 -0.601218771 -0.882028332 -0.890942630 -0.929928369 -0.620146422 -1.126871066 -0.654982812 -1.152998358 -0.507275789 -0.956055661 -0.472439399 -1.003955698 -0.201643191 -0.714231839 -0.404276074 -0.731650034 -0.305804726 -0.461521644 -0.397657342 -0.472408016 -0.336112750 Z" fill="none" stroke="#222" stroke-width="0.01" />
<path d="M 0.230975859 0.097457539 0.551193454 0.041908535 0.517647951 -0.010826171 0.802386882 -0.028991831 0.748714077 -0.113367360 1.093834914 -0.036610550 0.946234699 -0.268643256 1.114985758 -0.375988866 1.034476550 -0.502552161 0.865725491 -0.395206550 0.718125277 -0.627239256 0.641368466 -0.282118419 0.587695661 -0.366493949 0.450556944 -0.116295583 0.417011441 -0.169030289 Z" fill="none" stroke="#222" stroke-width="0.01" />
<path d="M 0.166138456 0.332287331 -0.032457220 0.589551316 0.027899972 0.605776585 -0.169786927 0.811509761 -0.073215419 0.837470192 -0.379545264 1.013997884 -0.113973618 1.085389068 -0.165894479 1.278532083 -0.021037218 1.317472729 0.030883643 1.124329714 0.296455288 1.195720898 0.119927596 0.889391053 0.216499103 0.915351483 0.148614357 0.638227123 0.208971549 0.654452392 Z" fill="none" stroke="#222" stroke-width="0.01" />
<path d="M 0.105377732 -0.127798868 0.078036678 -0.451646775 0.022571152 -0.422840086 0.029368554 -0.708076909 -0.059376289 -0.661986207 0.047259063 -0.999075070 -0.196789255 -0.872325638 -0.288970660 -1.049815324 -0.422087925 -0.980679270 -0.329906520 -0.803189585 -0.573954838 -0.676440153 -0.236865974 -0.569804802 -0.325610817 -0.523714099 -0.088359902 -0.365226708 -0.143825429 -0.336420019 Z" fill="none" stroke="#222" stroke-width="0.01" />
<rect x="-1.202650327" y="-1.049815324" width="2.367288053" height="2.367288053" fill="none" stroke="#000" stroke-width="0.01" />
</g>
<text x="500" y="1472" font-family="monospace" font-size="12">sunflower</text>
<g transform="translate(960.000 1900.000) scale(106.524891660 -106.524891660) translate(1.916915352 1.846059598)">
<path d="M -0.576845008 0.185641265 -0.451845008 -0.114358735 -0.514345008 -0.114358735 -0.376845008 -0.364358735 -0.476845008 -0.364358735 -0.226845008 -0.614358735 -0.501845008 -0.614358735 -0.501845008 -0.814358735 -0.651845008 -0.814358735 -0.651845008 -0.614358735 -0.926845008 -0.614358735 -0.676845008 -0.364358735 -0.776845008 -0.364358735 -0.639345008 -0.114358735 -0.701845008 -0.114358735 Z" fill="none" stroke="#222" stroke-width="0.01" />
<path d="M -0.121978210 -1.169225533 -0.246978210 -0.869225533 -0.184478210 -0.869225533 -0.321978210 -0.619225533 -0.221978210 -0.619225533 -0.471978210 -0.369225533 -0.196978210 -0.369225533 -0.196978210 -0.169225533 -0.046978210 -0.169225533 -0.046978210 -0.369225533 0.228021790 -0.369225533 -0.021978210 -0.619225533 0.078021790 -0.619225533 -0.059478210 -0.869225533 0.003021790 -0.869225533 Z" fill="none" stroke="#222" stroke-width="0.01" />
<path d="M -0.162843322 -0.026802013 -0.287843322 0.273197987 -0.225343322 0.273197987 -0.362843322 0.523197987 -0.262843322 0.523197987 -0.512843322 0.773197987 -0.237843322 0.773197987 -0.237843322 0.973197987 -0.087843322 0.973197987 -0.087843322 0.773197987 0.187156678 0.773197987 -0.062843322 0.523197987 0.037156678 0.523197987 -0.100343322 0.273197987 -0.037843322 0.273197987 Z" fill="none" stroke="#222" stroke-width="0.01" />
<path d="M 0.267319450 0.964302548 0.392319450 0.664302548 0.329819450 0.664302548 0.467319450 0.414302548 0.367319450 0.414302548 0.617319450 0.164302548 0.342319450 0.164302548 0.342319450 -0.035697452 0.192319450 -0.035697452 0.192319450 0.164302548 -0.082680550 0.164302548 0.167319450 0.414302548 0.067319450 0.414302548 0.204819450 0.664302548 0.142319450 0.664302548 Z" fill="none" stroke="#222" stroke-width="0.01" />
<path d="M -0.057200375 -0.160697452 0.242799625 -0.035697452 0.242799625 -0.098197452 0.492799625 0.039302548 0.492799625 -0.060697452 0.742799625 0.189302548 0.742799625 -0.085697452 0.942799625 -0.085697452 0.942799625 -0.235697452 0.742799625 -0.235697452 0.742799625 -0.510697452 0.492799625 -0.260697452 0.492799625 -0.360697452 0.242799625 -0.223197452 0.242799625 -0.285697452 Z" fill="none" stroke="#222" stroke-width="0.01" />
<path d="M -0.179545774 0.008868913 -0.485192724 0.119344892 -0.442974581 0.165430446 -0.720196716 0.232914799 -0.652647686 0.306651687 -1.005862479 0.291182041 -0.820102649 0.493958483 -0.967576424 0.629056541 -0.866252880 0.739661873 -0.718779104 0.604563814 -0.533019273 0.807340256 -0.517549628 0.454125463 -0.450000598 0.527862351 -0.358538294 0.257601556 -0.316320151 0.303687111 Z" fill="none" stroke="#222" stroke-width="0.01" />
<path d="M 0.269494236 -0.238522144 0.420243333 -0.526445241 0.357982643 -0.531909348 0.516812593 -0.768931071 0.417195489 -0.777673644 0.688094680 -1.004859973 0.414147644 -1.028902047 0.431632789 -1.228136255 0.282207133 -1.241250114 0.264721988 -1.042015906 -0.009225049 -1.066057980 0.217961280 -0.795158789 0.118344176 -0.803901361 0.233461263 -0.542837564 0.171200573 -0.548301672 Z" fill="none" stroke="#222" stroke-width="0.01" />
<path d="M 0.557444355 0.235598775 0.640775919 0.549733858 0.690375966 0.511706429 0.733365578 0.793766961 0.812725653 0.732923074 0.766435180 1.083432978 0.984675387 0.916112291 1.106363159 1.074832441 1.225403272 0.983566612 1.103715500 0.824846462 1.321955706 0.657525775 0.971445803 0.611235302 1.050805878 0.550391416 0.789576060 0.435651572 0.839176107 0.397624143 Z" fill="none" stroke="#222" stroke-width="0.01" />
<rect x="-1.005862479" y="-1.242817661" width="2.327818186" height="2.327818186" fill="none" stroke="#000" stroke-width="0.01" />
</g>
<text x="960" y="1472" font-family="monospace" font-size="12">core_plus_spiral</text>
<g transform="translate(40.000 2360.000) scale(106.524891660 -106.524891660) translate(1.916915352 1.846059598)">
<path d="M 0.020457775 0.871294228 0.145457775 0.571294228 0.082957775 0.571294228 0.220457775 0.321294228 0.120457775 0.321294228 0.370457775 0.071294228 0.095457775 0.071294228 0.095457775 -0.128705772 -0.054542225 -0.128705772 -0.054542225 0.071294228 -0.329542225 0.071294228 -0.079542225 0.321294228 -0.179542225 0.321294228 -0.042042225 0.571294228 -0.104542225 0.571294228 Z" fill="none" stroke="#222" stroke-width="0.01" />
<path d="M -1.277806387 0.819997195 -0.977806387 0.944997195 -0.977806387 0.882497195 -0.727806387 1.019997195 -0.727806387 0.919997195 -0.477806387 1.169997195 -0.477806387 0.894997195 -0.277806387 0.894997195 -0.277806387 0.744997195 -0.477806387 0.744997195 -0.477806387 0.469997195 -0.727806387 0.719997195 -0.727806387 0.619997195 -0.977806387 0.757497195 -0.977806387 0.694997195 Z" fill="none" stroke="#222" stroke-width="0.01" />
<path d="M -0.127806522 1.695457379 -0.002806522 1.395457379 -0.065306522 1.395457379 0.072193478 1.145457379 -0.027806522 1.145457379 0.222193478 0.895457379 -0.052806522 0.895457379 -0.052806522 0.695457379 -0.202806522 0.695457379 -0.202806522 0.895457379 -0.477806522 0.895457379 -0.227806522 1.145457379 -0.327806522 1.145457379 -0.190306522 1.395457379 -0.252806522 1.395457379 Z" fill="none" stroke="#222" stroke-width="0.01" />
<path d="M -1.375369939 -0.482434864 -1.075369939 -0.357434864 -1.075369939 -0.419934864 -0.825369939 -0.282434864 -0.825369939 -0.382434864 -0.575369939 -0.132434864 -0.575369939 -0.407434864 -0.375369939 -0.407434864 -0.375369939 -0.557434864 -0.575369939 -0.557434864 -0.575369939 -0.832434864 -0.825369939 -0.582434864 -0.825369939 -0.682434864 -1.075369939 -0.544934864 -1.075369939 -0.607434864 Z" fill="none" stroke="#222" stroke-width="0.01" />
<path d="M -0.014130691 -0.136621782 0.110869309 -0.436621782 0.048369309 -0.436621782 0.185869309 -0.686621782 0.085869309 -0.686621782 0.335869309 -0.936621782 0.060869309 -0.936621782 0.060869309 -1.136621782 -0.089130691 -1.136621782 -0.089130691 -0.936621782 -0.364130691 -0.936621782 -0.114130691 -0.686621782 -0.214130691 -0.686621782 -0.076630691 -0.436621782 -0.139130691 -0.436621782 Z" fill="none" stroke="#222" stroke-width="0.01" />
<path d="M 0.085390321 0.718670501 0.385390321 0.843670501 0.385390321 0.781170501 0.635390321 0.918670501 0.635390321 0.818670501 0.885390321 1.068670501 0.885390321 0.793670501 1.085390321 0.793670501 1.085390321 0.643670501 0.885390321 0.643670501 0.885390321 0.368670501 0.635390321 0.618670501 0.635390321 0.518670501 0.385390321 0.656170501 0.385390321 0.593670501 Z" fill="none" stroke="#222" stroke-width="0.01" />
<path d="M 0.499862743 0.492939624 0.624862743 0.192939624 0.562362743 0.192939624 0.699862743 -0.057060376 0.599862743 -0.057060376 0.849862743 -0.307060376 0.574862743 -0.307060376 0.574862743 -0.507060376 0.424862743 -0.507060376 0.424862743 -0.307060376 0.149862743 -0.307060376 0.399862743 -0.057060376 0.299862743 -0.057060376 0.437362743 0.192939624 0.374862743 0.192939624 Z" fill="none" stroke="#222" stroke-width="0.01" />
<path d="M -1.317547775 0.159742703 -1.017547775 0.284742703 -1.017547775 0.222242703 -0.767547775 0.359742703 -0.767547775 0.259742703 -0.517547775 0.509742703 -0.517547775 0.234742703 -0.317547775 0.234742703 -0.317547775 0.084742703 -0.517547775 0.084742703 -0.517547775 -0.190257297 -0.767547775 0.059742703 -0.767547775 -0.040257297 -1.017547775 0.097242703 -1.017547775 0.034742703 Z" fill="none" stroke="#222" stroke-width="0.01" />
<rect x="-1.561029389" y="-1.136621782" width="2.832079161" height="2.832079161" fill="none" stroke="#000" stroke-width="0.01" />
</g>
<text x="40" y="1932" font-family="monospace" font-size="12">random_box</text>
</svg>
