<?xml version="1.0" encoding="UTF-8"?>
<svg xmlns="http://www.w3.org/2000/svg" width="1560" height="1000" viewBox="0 0 1560 1000">
<rect x="0" y="0" width="1560" height="1000" fill="white"/>
<text x="12" y="24" font-family="sans-serif" font-size="16" fill="#000">Warm-start comparison (N=8) — shared world scale</text>
<rect x="1.0" y="41.0" width="518.0" height="478.0" fill="none" stroke="#ddd"/>
<text x="12.0" y="62.0" font-family="sans-serif" font-size="14" fill="#000">grid0</text>
<rect x="18.0" y="76.0" width="484.0" height="428.0" fill="none" stroke="#f2f2f2"/>
<rect x="154.85" y="170.09" width="206.24" height="206.24" fill="none" stroke="#888" stroke-width="1.0"/>
<polyline fill="none" stroke="#000" stroke-width="1.1" points="175.30,170.09 181.68,185.40 178.49,185.40 185.51,198.16 180.41,198.16 193.16,210.91 179.13,210.91 179.13,221.12 171.48,221.12 171.48,210.91 157.44,210.91 170.20,198.16 165.10,198.16 172.12,185.40 168.93,185.40 175.30,170.09"/>
<circle cx="175.30" cy="210.91" r="2.2" fill="#000"/>
<polyline fill="none" stroke="#000" stroke-width="1.1" points="257.97,170.14 264.35,185.45 261.16,185.45 268.18,198.21 263.07,198.21 275.83,210.97 261.80,210.97 261.80,221.17 254.14,221.17 254.14,210.97 240.11,210.97 252.87,198.21 247.76,198.21 254.78,185.45 251.59,185.45 257.97,170.14"/>
<circle cx="257.97" cy="210.97" r="2.2" fill="#000"/>
<polyline fill="none" stroke="#000" stroke-width="1.1" points="340.64,170.11 347.01,185.42 343.82,185.42 350.84,198.18 345.74,198.18 358.50,210.93 344.46,210.93 344.46,221.14 336.81,221.14 336.81,210.93 322.78,210.93 335.53,198.18 330.43,198.18 337.45,185.42 334.26,185.42 340.64,170.11"/>
<circle cx="340.64" cy="210.93" r="2.2" fill="#000"/>
<polyline fill="none" stroke="#000" stroke-width="1.1" points="175.31,252.76 181.69,268.06 178.50,268.06 185.51,280.82 180.41,280.82 193.17,293.58 179.14,293.58 179.14,303.78 171.48,303.78 171.48,293.58 157.45,293.58 170.21,280.82 165.10,280.82 172.12,268.06 168.93,268.06 175.31,252.76"/>
<circle cx="175.31" cy="293.58" r="2.2" fill="#000"/>
<polyline fill="none" stroke="#000" stroke-width="1.1" points="257.97,252.81 264.35,268.12 261.16,268.12 268.18,280.87 263.08,280.87 275.83,293.63 261.80,293.63 261.80,303.84 254.15,303.84 254.15,293.63 240.11,293.63 252.87,280.87 247.77,280.87 254.78,268.12 251.60,268.12 257.97,252.81"/>
<circle cx="257.97" cy="293.63" r="2.2" fill="#000"/>
<polyline fill="none" stroke="#000" stroke-width="1.1" points="340.64,252.78 347.02,268.09 343.83,268.09 350.85,280.84 345.74,280.84 358.50,293.60 344.47,293.60 344.47,303.81 336.81,303.81 336.81,293.60 322.78,293.60 335.54,280.84 330.43,280.84 337.45,268.09 334.26,268.09 340.64,252.78"/>
<circle cx="340.64" cy="293.60" r="2.2" fill="#000"/>
<polyline fill="none" stroke="#000" stroke-width="1.1" points="217.13,325.31 223.51,340.61 220.32,340.61 227.34,353.37 222.24,353.37 234.99,366.13 220.96,366.13 220.96,376.33 213.31,376.33 213.31,366.13 199.27,366.13 212.03,353.37 206.93,353.37 213.95,340.61 210.76,340.61 217.13,325.31"/>
<circle cx="217.13" cy="366.13" r="2.2" fill="#000"/>
<polyline fill="none" stroke="#000" stroke-width="1.1" points="299.80,325.28 306.18,340.59 302.99,340.59 310.01,353.34 304.91,353.34 317.66,366.10 303.63,366.10 303.63,376.31 295.98,376.31 295.98,366.10 281.94,366.10 294.70,353.34 289.60,353.34 296.61,340.59 293.42,340.59 299.80,325.28"/>
<circle cx="299.80" cy="366.10" r="2.2" fill="#000"/>
<rect x="521.0" y="41.0" width="518.0" height="478.0" fill="none" stroke="#ddd"/>
<text x="532.0" y="62.0" font-family="sans-serif" font-size="14" fill="#000">alt45</text>
<rect x="538.0" y="76.0" width="484.0" height="428.0" fill="none" stroke="#f2f2f2"/>
<rect x="665.70" y="176.65" width="223.58" height="223.58" fill="none" stroke="#888" stroke-width="1.0"/>
<polyline fill="none" stroke="#000" stroke-width="1.1" points="665.70,182.25 681.04,188.56 678.78,190.82 692.77,194.88 689.16,198.49 707.20,198.49 697.28,208.41 704.49,215.62 699.08,221.04 691.86,213.82 681.94,223.74 681.94,205.70 678.33,209.31 674.27,195.33 672.02,197.58 665.70,182.25"/>
<circle cx="694.57" cy="211.11" r="2.2" fill="#000"/>
<polyline fill="none" stroke="#000" stroke-width="1.1" points="806.10,239.90 790.77,233.59 793.02,231.33 779.04,227.27 782.65,223.66 764.61,223.66 774.53,213.74 767.31,206.52 772.72,201.11 779.94,208.33 789.86,198.41 789.86,216.45 793.47,212.84 797.53,226.82 799.79,224.57 806.10,239.90"/>
<circle cx="777.24" cy="211.04" r="2.2" fill="#000"/>
<polyline fill="none" stroke="#000" stroke-width="1.1" points="831.03,182.97 846.37,189.28 844.11,191.54 858.09,195.60 854.48,199.20 872.53,199.20 862.60,209.13 869.82,216.34 864.41,221.76 857.19,214.54 847.27,224.46 847.27,206.42 843.66,210.03 839.60,196.05 837.35,198.30 831.03,182.97"/>
<circle cx="859.90" cy="211.83" r="2.2" fill="#000"/>
<polyline fill="none" stroke="#000" stroke-width="1.1" points="723.66,322.65 708.33,316.33 710.58,314.08 696.60,310.02 700.21,306.41 682.17,306.41 692.09,296.49 684.87,289.27 690.29,283.86 697.50,291.07 707.42,281.15 707.42,299.19 711.03,295.58 715.09,309.57 717.35,307.31 723.66,322.65"/>
<circle cx="694.80" cy="293.78" r="2.2" fill="#000"/>
<polyline fill="none" stroke="#000" stroke-width="1.1" points="748.59,264.84 763.93,271.15 761.67,273.41 775.66,277.47 772.05,281.07 790.09,281.07 780.17,291.00 787.38,298.21 781.97,303.62 774.75,296.41 764.83,306.33 764.83,288.29 761.22,291.90 757.16,277.92 754.91,280.17 748.59,264.84"/>
<circle cx="777.46" cy="293.70" r="2.2" fill="#000"/>
<polyline fill="none" stroke="#000" stroke-width="1.1" points="889.28,323.36 873.95,317.05 876.20,314.79 862.22,310.73 865.83,307.13 847.79,307.13 857.71,297.20 850.49,289.99 855.90,284.57 863.12,291.79 873.04,281.87 873.04,299.91 876.65,296.30 880.71,310.28 882.97,308.03 889.28,323.36"/>
<circle cx="860.41" cy="294.50" r="2.2" fill="#000"/>
<polyline fill="none" stroke="#000" stroke-width="1.1" points="707.00,337.34 722.34,343.65 720.08,345.91 734.07,349.97 730.46,353.58 748.50,353.58 738.58,363.50 745.79,370.72 740.38,376.13 733.16,368.91 723.24,378.83 723.24,360.79 719.63,364.40 715.57,350.42 713.32,352.67 707.00,337.34"/>
<circle cx="735.87" cy="366.21" r="2.2" fill="#000"/>
<polyline fill="none" stroke="#000" stroke-width="1.1" points="847.40,394.63 832.06,388.32 834.32,386.06 820.34,382.00 823.95,378.40 805.90,378.40 815.83,368.47 808.61,361.26 814.02,355.84 821.24,363.06 831.16,353.14 831.16,371.18 834.77,367.57 838.83,381.55 841.09,379.30 847.40,394.63"/>
<circle cx="818.53" cy="365.77" r="2.2" fill="#000"/>
<rect x="1041.0" y="41.0" width="518.0" height="478.0" fill="none" stroke="#ddd"/>
<text x="1052.0" y="62.0" font-family="sans-serif" font-size="14" fill="#000">circle</text>
<rect x="1058.0" y="76.0" width="484.0" height="428.0" fill="none" stroke="#f2f2f2"/>
<rect x="1190.36" y="180.36" width="216.36" height="216.36" fill="none" stroke="#888" stroke-width="1.0"/>
<polyline fill="none" stroke="#000" stroke-width="1.1" points="1381.20,263.02 1387.58,278.33 1384.39,278.33 1391.41,291.09 1386.31,291.09 1399.06,303.85 1385.03,303.85 1385.03,314.05 1377.38,314.05 1377.38,303.85 1363.34,303.85 1376.10,291.09 1371.00,291.09 1378.01,278.33 1374.82,278.33 1381.20,263.02"/>
<circle cx="1381.20" cy="303.85" r="2.2" fill="#000"/>
<polyline fill="none" stroke="#000" stroke-width="1.1" points="1381.20,180.36 1387.58,195.67 1384.39,195.67 1391.41,208.42 1386.31,208.42 1399.06,221.18 1385.03,221.18 1385.03,231.39 1377.38,231.39 1377.38,221.18 1363.34,221.18 1376.10,208.42 1371.00,208.42 1378.01,195.67 1374.82,195.67 1381.20,180.36"/>
<circle cx="1381.20" cy="221.18" r="2.2" fill="#000"/>
<polyline fill="none" stroke="#000" stroke-width="1.1" points="1298.54,180.36 1304.92,195.67 1301.73,195.67 1308.74,208.42 1303.64,208.42 1316.40,221.18 1302.36,221.18 1302.36,231.39 1294.71,231.39 1294.71,221.18 1280.68,221.18 1293.43,208.42 1288.33,208.42 1295.35,195.67 1292.16,195.67 1298.54,180.36"/>
<circle cx="1298.54" cy="221.18" r="2.2" fill="#000"/>
<polyline fill="none" stroke="#000" stroke-width="1.1" points="1215.87,180.36 1222.25,195.67 1219.06,195.67 1226.08,208.42 1220.97,208.42 1233.73,221.18 1219.70,221.18 1219.70,231.39 1212.04,231.39 1212.04,221.18 1198.01,221.18 1210.77,208.42 1205.67,208.42 1212.68,195.67 1209.49,195.67 1215.87,180.36"/>
<circle cx="1215.87" cy="221.18" r="2.2" fill="#000"/>
<polyline fill="none" stroke="#000" stroke-width="1.1" points="1215.87,263.02 1222.25,278.33 1219.06,278.33 1226.08,291.09 1220.97,291.09 1233.73,303.85 1219.70,303.85 1219.70,314.05 1212.04,314.05 1212.04,303.85 1198.01,303.85 1210.77,291.09 1205.67,291.09 1212.68,278.33 1209.49,278.33 1215.87,263.02"/>
<circle cx="1215.87" cy="303.85" r="2.2" fill="#000"/>
<polyline fill="none" stroke="#000" stroke-width="1.1" points="1215.87,345.69 1222.25,361.00 1219.06,361.00 1226.08,373.75 1220.97,373.75 1233.73,386.51 1219.70,386.51 1219.70,396.72 1212.04,396.72 1212.04,386.51 1198.01,386.51 1210.77,373.75 1205.67,373.75 1212.68,361.00 1209.49,361.00 1215.87,345.69"/>
<circle cx="1215.87" cy="386.51" r="2.2" fill="#000"/>
<polyline fill="none" stroke="#000" stroke-width="1.1" points="1298.54,345.69 1304.92,361.00 1301.73,361.00 1308.74,373.75 1303.64,373.75 1316.40,386.51 1302.36,386.51 1302.36,396.72 1294.71,396.72 1294.71,386.51 1280.68,386.51 1293.43,373.75 1288.33,373.75 1295.35,361.00 1292.16,361.00 1298.54,345.69"/>
<circle cx="1298.54" cy="386.51" r="2.2" fill="#000"/>
<polyline fill="none" stroke="#000" stroke-width="1.1" points="1381.20,345.69 1387.58,361.00 1384.39,361.00 1391.41,373.75 1386.31,373.75 1399.06,386.51 1385.03,386.51 1385.03,396.72 1377.38,396.72 1377.38,386.51 1363.34,386.51 1376.10,373.75 1371.00,373.75 1378.01,361.00 1374.82,361.00 1381.20,345.69"/>
<circle cx="1381.20" cy="386.51" r="2.2" fill="#000"/>
<rect x="1.0" y="521.0" width="518.0" height="478.0" fill="none" stroke="#ddd"/>
<text x="12.0" y="542.0" font-family="sans-serif" font-size="14" fill="#000">spiral</text>
<rect x="18.0" y="556.0" width="484.0" height="428.0" fill="none" stroke="#f2f2f2"/>
<rect x="87.42" y="597.42" width="345.16" height="345.16" fill="none" stroke="#888" stroke-width="1.0"/>
<polyline fill="none" stroke="#000" stroke-width="1.1" points="264.25,730.77 270.63,746.07 267.44,746.07 274.46,758.83 269.35,758.83 282.11,771.59 268.08,771.59 268.08,781.79 260.42,781.79 260.42,771.59 246.39,771.59 259.15,758.83 254.04,758.83 261.06,746.07 257.87,746.07 264.25,730.77"/>
<circle cx="264.25" cy="771.59" r="2.2" fill="#000"/>
<polyline fill="none" stroke="#000" stroke-width="1.1" points="174.43,744.61 180.74,729.28 183.00,731.53 187.06,717.55 190.67,721.16 190.67,703.12 200.59,713.04 207.81,705.83 213.22,711.24 206.00,718.45 215.92,728.38 197.88,728.38 201.49,731.99 187.51,736.04 189.76,738.30 174.43,744.61"/>
<circle cx="203.30" cy="715.75" r="2.2" fill="#000"/>
<polyline fill="none" stroke="#000" stroke-width="1.1" points="305.77,854.25 290.46,860.63 290.46,857.44 277.70,864.46 277.70,859.35 264.94,872.11 264.94,858.08 254.74,858.08 254.74,850.42 264.94,850.42 264.94,836.39 277.70,849.15 277.70,844.05 290.46,851.06 290.46,847.87 305.77,854.25"/>
<circle cx="264.94" cy="854.25" r="2.2" fill="#000"/>
<polyline fill="none" stroke="#000" stroke-width="1.1" points="294.97,649.16 310.31,655.47 308.05,657.73 322.04,661.78 318.43,665.39 336.47,665.39 326.55,675.32 333.76,682.53 328.35,687.94 321.13,680.73 311.21,690.65 311.21,672.61 307.60,676.22 303.54,662.24 301.29,664.49 294.97,649.16"/>
<circle cx="323.84" cy="678.02" r="2.2" fill="#000"/>
<polyline fill="none" stroke="#000" stroke-width="1.1" points="132.42,827.93 126.04,812.62 129.23,812.62 122.22,799.87 127.32,799.87 114.56,787.11 128.59,787.11 128.59,776.90 136.25,776.90 136.25,787.11 150.28,787.11 137.52,799.87 142.63,799.87 135.61,812.62 138.80,812.62 132.42,827.93"/>
<circle cx="132.42" cy="787.11" r="2.2" fill="#000"/>
<polyline fill="none" stroke="#000" stroke-width="1.1" points="405.44,812.18 399.12,827.51 396.87,825.25 392.81,839.24 389.20,835.63 389.20,853.67 379.28,843.75 372.06,850.96 366.65,845.55 373.87,838.33 363.94,828.41 381.99,828.41 378.38,824.80 392.36,820.74 390.10,818.49 405.44,812.18"/>
<circle cx="376.57" cy="841.04" r="2.2" fill="#000"/>
<polyline fill="none" stroke="#000" stroke-width="1.1" points="176.03,615.28 191.34,608.90 191.34,612.09 204.10,605.07 204.10,610.18 216.85,597.42 216.85,611.45 227.06,611.45 227.06,619.11 216.85,619.11 216.85,633.14 204.10,620.38 204.10,625.48 191.34,618.47 191.34,621.66 176.03,615.28"/>
<circle cx="216.85" cy="615.28" r="2.2" fill="#000"/>
<polyline fill="none" stroke="#000" stroke-width="1.1" points="208.77,942.58 193.44,936.27 195.69,934.01 181.71,929.95 185.32,926.34 167.28,926.34 177.20,916.42 169.98,909.20 175.40,903.79 182.61,911.01 192.54,901.09 192.54,919.13 196.14,915.52 200.20,929.50 202.46,927.25 208.77,942.58"/>
<circle cx="179.91" cy="913.71" r="2.2" fill="#000"/>
<rect x="521.0" y="521.0" width="518.0" height="478.0" fill="none" stroke="#ddd"/>
<text x="532.0" y="542.0" font-family="sans-serif" font-size="14" fill="#000">hex</text>
<rect x="538.0" y="556.0" width="484.0" height="428.0" fill="none" stroke="#f2f2f2"/>
<rect x="657.34" y="647.34" width="242.39" height="242.39" fill="none" stroke="#888" stroke-width="1.0"/>
<polyline fill="none" stroke="#000" stroke-width="1.1" points="675.20,656.00 681.58,671.31 678.39,671.31 685.41,684.06 680.31,684.06 693.06,696.82 679.03,696.82 679.03,707.03 671.38,707.03 671.38,696.82 657.34,696.82 670.10,684.06 665.00,684.06 672.01,671.31 668.83,671.31 675.20,656.00"/>
<circle cx="675.20" cy="696.82" r="2.2" fill="#000"/>
<polyline fill="none" stroke="#000" stroke-width="1.1" points="757.87,737.64 751.49,722.34 754.68,722.34 747.67,709.58 752.77,709.58 740.01,696.82 754.04,696.82 754.04,686.62 761.70,686.62 761.70,696.82 775.73,696.82 762.97,709.58 768.08,709.58 761.06,722.34 764.25,722.34 757.87,737.64"/>
<circle cx="757.87" cy="696.82" r="2.2" fill="#000"/>
<polyline fill="none" stroke="#000" stroke-width="1.1" points="840.54,656.00 846.92,671.31 843.73,671.31 850.74,684.06 845.64,684.06 858.40,696.82 844.36,696.82 844.36,707.03 836.71,707.03 836.71,696.82 822.68,696.82 835.43,684.06 830.33,684.06 837.35,671.31 834.16,671.31 840.54,656.00"/>
<circle cx="840.54" cy="696.82" r="2.2" fill="#000"/>
<polyline fill="none" stroke="#000" stroke-width="1.1" points="716.54,809.36 710.16,794.05 713.35,794.05 706.33,781.29 711.43,781.29 698.68,768.54 712.71,768.54 712.71,758.33 720.36,758.33 720.36,768.54 734.40,768.54 721.64,781.29 726.74,781.29 719.73,794.05 722.92,794.05 716.54,809.36"/>
<circle cx="716.54" cy="768.54" r="2.2" fill="#000"/>
<polyline fill="none" stroke="#000" stroke-width="1.1" points="799.20,727.71 805.58,743.02 802.39,743.02 809.41,755.78 804.31,755.78 817.06,768.54 803.03,768.54 803.03,778.74 795.38,778.74 795.38,768.54 781.34,768.54 794.10,755.78 789.00,755.78 796.01,743.02 792.83,743.02 799.20,727.71"/>
<circle cx="799.20" cy="768.54" r="2.2" fill="#000"/>
<polyline fill="none" stroke="#000" stroke-width="1.1" points="881.87,809.36 875.49,794.05 878.68,794.05 871.66,781.29 876.77,781.29 864.01,768.54 878.04,768.54 878.04,758.33 885.70,758.33 885.70,768.54 899.73,768.54 886.97,781.29 892.08,781.29 885.06,794.05 888.25,794.05 881.87,809.36"/>
<circle cx="881.87" cy="768.54" r="2.2" fill="#000"/>
<polyline fill="none" stroke="#000" stroke-width="1.1" points="675.20,799.43 681.58,814.74 678.39,814.74 685.41,827.50 680.31,827.50 693.06,840.25 679.03,840.25 679.03,850.46 671.38,850.46 671.38,840.25 657.34,840.25 670.10,827.50 665.00,827.50 672.01,814.74 668.83,814.74 675.20,799.43"/>
<circle cx="675.20" cy="840.25" r="2.2" fill="#000"/>
<polyline fill="none" stroke="#000" stroke-width="1.1" points="757.87,881.08 751.49,865.77 754.68,865.77 747.67,853.01 752.77,853.01 740.01,840.25 754.04,840.25 754.04,830.05 761.70,830.05 761.70,840.25 775.73,840.25 762.97,853.01 768.08,853.01 761.06,865.77 764.25,865.77 757.87,881.08"/>
<circle cx="757.87" cy="840.25" r="2.2" fill="#000"/>
<rect x="1041.0" y="521.0" width="518.0" height="478.0" fill="none" stroke="#ddd"/>
<text x="1052.0" y="542.0" font-family="sans-serif" font-size="14" fill="#000">halton</text>
<rect x="1058.0" y="556.0" width="484.0" height="428.0" fill="none" stroke="#f2f2f2"/>
<rect x="1180.58" y="652.28" width="227.32" height="227.32" fill="none" stroke="#888" stroke-width="1.0"/>
<polyline fill="none" stroke="#000" stroke-width="1.1" points="1320.23,746.90 1326.60,762.21 1323.42,762.21 1330.43,774.96 1325.33,774.96 1338.09,787.72 1324.05,787.72 1324.05,797.93 1316.40,797.93 1316.40,787.72 1302.37,787.72 1315.12,774.96 1310.02,774.96 1317.04,762.21 1313.85,762.21 1320.23,746.90"/>
<circle cx="1320.23" cy="787.72" r="2.2" fill="#000"/>
<polyline fill="none" stroke="#000" stroke-width="1.1" points="1230.89,751.63 1237.20,736.29 1239.46,738.55 1243.52,724.56 1247.13,728.17 1247.13,710.13 1257.05,720.05 1264.27,712.84 1269.68,718.25 1262.46,725.47 1272.38,735.39 1254.34,735.39 1257.95,739.00 1243.97,743.06 1246.22,745.31 1230.89,751.63"/>
<circle cx="1259.76" cy="722.76" r="2.2" fill="#000"/>
<polyline fill="none" stroke="#000" stroke-width="1.1" points="1407.90,858.02 1392.59,864.40 1392.59,861.21 1379.84,868.22 1379.84,863.12 1367.08,875.88 1367.08,861.84 1356.87,861.84 1356.87,854.19 1367.08,854.19 1367.08,840.16 1379.84,852.91 1379.84,847.81 1392.59,854.83 1392.59,851.64 1407.90,858.02"/>
<circle cx="1367.08" cy="858.02" r="2.2" fill="#000"/>
<polyline fill="none" stroke="#000" stroke-width="1.1" points="1180.58,759.49 1195.92,765.80 1193.66,768.06 1207.64,772.12 1204.04,775.73 1222.08,775.73 1212.15,785.65 1219.37,792.87 1213.96,798.28 1206.74,791.06 1196.82,800.98 1196.82,782.94 1193.21,786.55 1189.15,772.57 1186.90,774.82 1180.58,759.49"/>
<circle cx="1209.45" cy="788.36" r="2.2" fill="#000"/>
<polyline fill="none" stroke="#000" stroke-width="1.1" points="1338.43,738.21 1332.05,722.90 1335.24,722.90 1328.22,710.14 1333.33,710.14 1320.57,697.39 1334.60,697.39 1334.60,687.18 1342.26,687.18 1342.26,697.39 1356.29,697.39 1343.53,710.14 1348.64,710.14 1341.62,722.90 1344.81,722.90 1338.43,738.21"/>
<circle cx="1338.43" cy="697.39" r="2.2" fill="#000"/>
<polyline fill="none" stroke="#000" stroke-width="1.1" points="1294.03,820.56 1287.72,835.89 1285.46,833.64 1281.40,847.62 1277.79,844.01 1277.79,862.05 1267.87,852.13 1260.65,859.35 1255.24,853.93 1262.46,846.72 1252.54,836.79 1270.58,836.79 1266.97,833.19 1280.95,829.13 1278.70,826.87 1294.03,820.56"/>
<circle cx="1265.16" cy="849.42" r="2.2" fill="#000"/>
<polyline fill="none" stroke="#000" stroke-width="1.1" points="1356.81,755.08 1372.12,748.70 1372.12,751.89 1384.88,744.87 1384.88,749.97 1397.64,737.22 1397.64,751.25 1407.84,751.25 1407.84,758.90 1397.64,758.90 1397.64,772.94 1384.88,760.18 1384.88,765.28 1372.12,758.27 1372.12,761.46 1356.81,755.08"/>
<circle cx="1397.64" cy="755.08" r="2.2" fill="#000"/>
<polyline fill="none" stroke="#000" stroke-width="1.1" points="1226.14,697.50 1210.80,691.19 1213.06,688.93 1199.08,684.87 1202.69,681.26 1184.64,681.26 1194.57,671.34 1187.35,664.12 1192.76,658.71 1199.98,665.93 1209.90,656.01 1209.90,674.05 1213.51,670.44 1217.57,684.42 1219.83,682.17 1226.14,697.50"/>
<circle cx="1197.27" cy="668.63" r="2.2" fill="#000"/>
</svg>
