<svg xmlns="http://www.w3.org/2000/svg" width="1420" height="2400" viewBox="0 0 1420 2400">
<rect x="0" y="0" width="1420" height="2400" fill="white" />
<text x="40" y="30" font-family="monospace" font-size="16">After compactification (corner shove) (n=8)</text>
<g transform="translate(40.000 520.000) scale(76.066230660 -76.066230660) translate(5.775425742 4.725328982)">
<path d="M -1.755040836 -1.797993483 -1.630040836 -2.097993483 -1.692540836 -2.097993483 -1.555040836 -2.347993483 -1.655040836 -2.347993483 -1.405040836 -2.597993483 -1.680040836 -2.597993483 -1.680040836 -2.797993483 -1.830040836 -2.797993483 -1.830040836 -2.597993483 -2.105040836 -2.597993483 -1.855040836 -2.347993483 -1.955040836 -2.347993483 -1.817540836 -2.097993483 -1.880040836 -2.097993483 Z" fill="none" stroke="#222" stroke-width="0.01" />
<path d="M -2.032430476 -0.535879590 -1.907430476 -0.835879590 -1.969930476 -0.835879590 -1.832430476 -1.085879590 -1.932430476 -1.085879590 -1.682430476 -1.335879590 -1.957430476 -1.335879590 -1.957430476 -1.535879590 -2.107430476 -1.535879590 -2.107430476 -1.335879590 -2.382430476 -1.335879590 -2.132430476 -1.085879590 -2.232430476 -1.085879590 -2.094930476 -0.835879590 -2.157430476 -0.835879590 Z" fill="none" stroke="#222" stroke-width="0.01" />
<path d="M -1.597717519 -0.995563997 -1.472717519 -1.295563997 -1.535217519 -1.295563997 -1.397717519 -1.545563997 -1.497717519 -1.545563997 -1.247717519 -1.795563997 -1.522717519 -1.795563997 -1.522717519 -1.995563997 -1.672717519 -1.995563997 -1.672717519 -1.795563997 -1.947717519 -1.795563997 -1.697717519 -1.545563997 -1.797717519 -1.545563997 -1.660217519 -1.295563997 -1.722717519 -1.295563997 Z" fill="none" stroke="#222" stroke-width="0.01" />
<path d="M -3.059084454 -1.338341467 -2.934084454 -1.638341467 -2.996584454 -1.638341467 -2.859084454 -1.888341467 -2.959084454 -1.888341467 -2.709084454 -2.138341467 -2.984084454 -2.138341467 -2.984084454 -2.338341467 -3.134084454 -2.338341467 -3.134084454 -2.138341467 -3.409084454 -2.138341467 -3.159084454 -1.888341467 -3.259084454 -1.888341467 -3.121584454 -1.638341467 -3.184084454 -1.638341467 Z" fill="none" stroke="#222" stroke-width="0.01" />
<path d="M -3.216601763 -0.536285458 -3.091601763 -0.836285458 -3.154101763 -0.836285458 -3.016601763 -1.086285458 -3.116601763 -1.086285458 -2.866601763 -1.336285458 -3.141601763 -1.336285458 -3.141601763 -1.536285458 -3.291601763 -1.536285458 -3.291601763 -1.336285458 -3.566601763 -1.336285458 -3.316601763 -1.086285458 -3.416601763 -1.086285458 -3.279101763 -0.836285458 -3.341601763 -0.836285458 Z" fill="none" stroke="#222" stroke-width="0.01" />
<path d="M -2.189733467 -1.338349005 -2.064733467 -1.638349005 -2.127233467 -1.638349005 -1.989733467 -1.888349005 -2.089733467 -1.888349005 -1.839733467 -2.138349005 -2.114733467 -2.138349005 -2.114733467 -2.338349005 -2.264733467 -2.338349005 -2.264733467 -2.138349005 -2.539733467 -2.138349005 -2.289733467 -1.888349005 -2.389733467 -1.888349005 -2.252233467 -1.638349005 -2.314733467 -1.638349005 Z" fill="none" stroke="#222" stroke-width="0.01" />
<path d="M -2.624412973 -0.878671501 -2.499412973 -1.178671501 -2.561912973 -1.178671501 -2.424412973 -1.428671501 -2.524412973 -1.428671501 -2.274412973 -1.678671501 -2.549412973 -1.678671501 -2.549412973 -1.878671501 -2.699412973 -1.878671501 -2.699412973 -1.678671501 -2.974412973 -1.678671501 -2.724412973 -1.428671501 -2.824412973 -1.428671501 -2.686912973 -1.178671501 -2.749412973 -1.178671501 Z" fill="none" stroke="#222" stroke-width="0.01" />
<path d="M -3.559084454 -1.538341467 -3.434084454 -1.838341467 -3.496584454 -1.838341467 -3.359084454 -2.088341467 -3.459084454 -2.088341467 -3.209084454 -2.338341467 -3.484084454 -2.338341467 -3.484084454 -2.538341467 -3.634084454 -2.538341467 -3.634084454 -2.338341467 -3.909084454 -2.338341467 -3.659084454 -2.088341467 -3.759084454 -2.088341467 -3.621584454 -1.838341467 -3.684084454 -1.838341467 Z" fill="none" stroke="#222" stroke-width="0.01" />
<rect x="-3.909084454" y="-2.997620004" width="2.661366935" height="2.661366935" fill="none" stroke="#000" stroke-width="0.01" />
</g>
<text x="40" y="92" font-family="monospace" font-size="12">centered</text>
<g transform="translate(500.000 520.000) scale(76.066230660 -76.066230660) translate(5.775425742 4.725328982)">
<path d="M -3.119278233 -2.098685609 -2.994278233 -2.398685609 -3.056778233 -2.398685609 -2.919278233 -2.648685609 -3.019278233 -2.648685609 -2.769278233 -2.898685609 -3.044278233 -2.898685609 -3.044278233 -3.098685609 -3.194278233 -3.098685609 -3.194278233 -2.898685609 -3.469278233 -2.898685609 -3.219278233 -2.648685609 -3.319278233 -2.648685609 -3.181778233 -2.398685609 -3.244278233 -2.398685609 Z" fill="none" stroke="#222" stroke-width="0.01" />
<path d="M -2.557674002 -2.242037187 -2.432674002 -2.542037187 -2.495174002 -2.542037187 -2.357674002 -2.792037187 -2.457674002 -2.792037187 -2.207674002 -3.042037187 -2.482674002 -3.042037187 -2.482674002 -3.242037187 -2.632674002 -3.242037187 -2.632674002 -3.042037187 -2.907674002 -3.042037187 -2.657674002 -2.792037187 -2.757674002 -2.792037187 -2.620174002 -2.542037187 -2.682674002 -2.542037187 Z" fill="none" stroke="#222" stroke-width="0.01" />
<path d="M -2.042174081 -1.929309771 -1.917174081 -2.229309771 -1.979674081 -2.229309771 -1.842174081 -2.479309771 -1.942174081 -2.479309771 -1.692174081 -2.729309771 -1.967174081 -2.729309771 -1.967174081 -2.929309771 -2.117174081 -2.929309771 -2.117174081 -2.729309771 -2.392174081 -2.729309771 -2.142174081 -2.479309771 -2.242174081 -2.479309771 -2.104674081 -2.229309771 -2.167174081 -2.229309771 Z" fill="none" stroke="#222" stroke-width="0.01" />
<path d="M -3.274996422 -1.292166722 -3.149996422 -1.592166722 -3.212496422 -1.592166722 -3.074996422 -1.842166722 -3.174996422 -1.842166722 -2.924996422 -2.092166722 -3.199996422 -2.092166722 -3.199996422 -2.292166722 -3.349996422 -2.292166722 -3.349996422 -2.092166722 -3.624996422 -2.092166722 -3.374996422 -1.842166722 -3.474996422 -1.842166722 -3.337496422 -1.592166722 -3.399996422 -1.592166722 Z" fill="none" stroke="#222" stroke-width="0.01" />
<path d="M -2.712994694 -1.433766103 -2.587994694 -1.733766103 -2.650494694 -1.733766103 -2.512994694 -1.983766103 -2.612994694 -1.983766103 -2.362994694 -2.233766103 -2.637994694 -2.233766103 -2.637994694 -2.433766103 -2.787994694 -2.433766103 -2.787994694 -2.233766103 -3.062994694 -2.233766103 -2.812994694 -1.983766103 -2.912994694 -1.983766103 -2.775494694 -1.733766103 -2.837994694 -1.733766103 Z" fill="none" stroke="#222" stroke-width="0.01" />
<path d="M -2.029180345 -0.925748659 -1.904180345 -1.225748659 -1.966680345 -1.225748659 -1.829180345 -1.475748659 -1.929180345 -1.475748659 -1.679180345 -1.725748659 -1.954180345 -1.725748659 -1.954180345 -1.925748659 -2.104180345 -1.925748659 -2.104180345 -1.725748659 -2.379180345 -1.725748659 -2.129180345 -1.475748659 -2.229180345 -1.475748659 -2.091680345 -1.225748659 -2.154180345 -1.225748659 Z" fill="none" stroke="#222" stroke-width="0.01" />
<path d="M -3.114046676 -0.490569840 -2.989046676 -0.790569840 -3.051546676 -0.790569840 -2.914046676 -1.040569840 -3.014046676 -1.040569840 -2.764046676 -1.290569840 -3.039046676 -1.290569840 -3.039046676 -1.490569840 -3.189046676 -1.490569840 -3.189046676 -1.290569840 -3.464046676 -1.290569840 -3.214046676 -1.040569840 -3.314046676 -1.040569840 -3.176546676 -0.790569840 -3.239046676 -0.790569840 Z" fill="none" stroke="#222" stroke-width="0.01" />
<path d="M -2.554680715 -0.631203878 -2.429680715 -0.931203878 -2.492180715 -0.931203878 -2.354680715 -1.181203878 -2.454680715 -1.181203878 -2.204680715 -1.431203878 -2.479680715 -1.431203878 -2.479680715 -1.631203878 -2.629680715 -1.631203878 -2.629680715 -1.431203878 -2.904680715 -1.431203878 -2.654680715 -1.181203878 -2.754680715 -1.181203878 -2.617180715 -0.931203878 -2.679680715 -0.931203878 Z" fill="none" stroke="#222" stroke-width="0.01" />
<rect x="-4.027822057" y="-3.242037187" width="2.751467347" height="2.751467347" fill="none" stroke="#000" stroke-width="0.01" />
</g>
<text x="500" y="92" font-family="monospace" font-size="12">grid</text>
<g transform="translate(960.000 520.000) scale(76.066230660 -76.066230660) translate(5.775425742 4.725328982)">
<path d="M -3.351105541 -2.436699926 -3.226105541 -2.736699926 -3.288605541 -2.736699926 -3.151105541 -2.986699926 -3.251105541 -2.986699926 -3.001105541 -3.236699926 -3.276105541 -3.236699926 -3.276105541 -3.436699926 -3.426105541 -3.436699926 -3.426105541 -3.236699926 -3.701105541 -3.236699926 -3.451105541 -2.986699926 -3.551105541 -2.986699926 -3.413605541 -2.736699926 -3.476105541 -2.736699926 Z" fill="none" stroke="#222" stroke-width="0.01" />
<path d="M -2.647779519 -4.166400397 -2.772779519 -3.866400397 -2.710279519 -3.866400397 -2.847779519 -3.616400397 -2.747779519 -3.616400397 -2.997779519 -3.366400397 -2.722779519 -3.366400397 -2.722779519 -3.166400397 -2.572779519 -3.166400397 -2.572779519 -3.366400397 -2.297779519 -3.366400397 -2.547779519 -3.616400397 -2.447779519 -3.616400397 -2.585279519 -3.866400397 -2.522779519 -3.866400397 Z" fill="none" stroke="#222" stroke-width="0.01" />
<path d="M -1.925038769 -2.591718597 -1.800038769 -2.891718597 -1.862538769 -2.891718597 -1.725038769 -3.141718597 -1.825038769 -3.141718597 -1.575038769 -3.391718597 -1.850038769 -3.391718597 -1.850038769 -3.591718597 -2.000038769 -3.591718597 -2.000038769 -3.391718597 -2.275038769 -3.391718597 -2.025038769 -3.141718597 -2.125038769 -3.141718597 -1.987538769 -2.891718597 -2.050038769 -2.891718597 Z" fill="none" stroke="#222" stroke-width="0.01" />
<path d="M -3.080736352 -3.154915279 -3.205736352 -2.854915279 -3.143236352 -2.854915279 -3.280736352 -2.604915279 -3.180736352 -2.604915279 -3.430736352 -2.354915279 -3.155736352 -2.354915279 -3.155736352 -2.154915279 -3.005736352 -2.154915279 -3.005736352 -2.354915279 -2.730736352 -2.354915279 -2.980736352 -2.604915279 -2.880736352 -2.604915279 -3.018236352 -2.854915279 -2.955736352 -2.854915279 Z" fill="none" stroke="#222" stroke-width="0.01" />
<path d="M -2.651977569 -2.166398197 -2.526977569 -2.466398197 -2.589477569 -2.466398197 -2.451977569 -2.716398197 -2.551977569 -2.716398197 -2.301977569 -2.966398197 -2.576977569 -2.966398197 -2.576977569 -3.166398197 -2.726977569 -3.166398197 -2.726977569 -2.966398197 -3.001977569 -2.966398197 -2.751977569 -2.716398197 -2.851977569 -2.716398197 -2.714477569 -2.466398197 -2.776977569 -2.466398197 Z" fill="none" stroke="#222" stroke-width="0.01" />
<path d="M -2.218624104 -3.302529020 -2.343624104 -3.002529020 -2.281124104 -3.002529020 -2.418624104 -2.752529020 -2.318624104 -2.752529020 -2.568624104 -2.502529020 -2.293624104 -2.502529020 -2.293624104 -2.302529020 -2.143624104 -2.302529020 -2.143624104 -2.502529020 -1.868624104 -2.502529020 -2.118624104 -2.752529020 -2.018624104 -2.752529020 -2.156124104 -3.002529020 -2.093624104 -3.002529020 Z" fill="none" stroke="#222" stroke-width="0.01" />
<path d="M -2.919616741 -1.354489870 -2.794616741 -1.654489870 -2.857116741 -1.654489870 -2.719616741 -1.904489870 -2.819616741 -1.904489870 -2.569616741 -2.154489870 -2.844616741 -2.154489870 -2.844616741 -2.354489870 -2.994616741 -2.354489870 -2.994616741 -2.154489870 -3.269616741 -2.154489870 -3.019616741 -1.904489870 -3.119616741 -1.904489870 -2.982116741 -1.654489870 -3.044616741 -1.654489870 Z" fill="none" stroke="#222" stroke-width="0.01" />
<path d="M -2.479427168 -2.499996939 -2.604427168 -2.199996939 -2.541927168 -2.199996939 -2.679427168 -1.949996939 -2.579427168 -1.949996939 -2.829427168 -1.699996939 -2.554427168 -1.699996939 -2.554427168 -1.499996939 -2.404427168 -1.499996939 -2.404427168 -1.699996939 -2.129427168 -1.699996939 -2.379427168 -1.949996939 -2.279427168 -1.949996939 -2.416927168 -2.199996939 -2.354427168 -2.199996939 Z" fill="none" stroke="#222" stroke-width="0.01" />
<rect x="-4.044027418" y="-4.166400397" width="2.811910526" height="2.811910526" fill="none" stroke="#000" stroke-width="0.01" />
</g>
<text x="960" y="92" font-family="monospace" font-size="12">grid_alt180</text>
<g transform="translate(40.000 980.000) scale(76.066230660 -76.066230660) translate(5.775425742 4.725328982)">
<path d="M -2.558968502 -2.053136933 -2.682712189 -2.353657315 -2.726906363 -2.309463141 -2.806455876 -2.583467019 -2.877166554 -2.512756340 -2.877166554 -2.866309731 -3.071620919 -2.671855366 -3.213042275 -2.813276722 -3.319108292 -2.707210705 -3.177686936 -2.565789349 -3.372141301 -2.371334984 -3.018587910 -2.371334984 -3.089298588 -2.300624306 -2.815294711 -2.221074793 -2.859488884 -2.176880619 Z" fill="none" stroke="#222" stroke-width="0.01" />
<path d="M -2.576898078 -2.113902711 -2.276377696 -2.237646398 -2.320571870 -2.281840572 -2.046567992 -2.361390085 -2.117278670 -2.432100763 -1.763725280 -2.432100763 -1.958179645 -2.626555128 -1.816758288 -2.767976484 -1.922824306 -2.874042501 -2.064245662 -2.732621145 -2.258700027 -2.927075510 -2.258700027 -2.573522119 -2.329410705 -2.644232797 -2.408960218 -2.370228920 -2.453154391 -2.414423093 Z" fill="none" stroke="#222" stroke-width="0.01" />
<path d="M -1.088129312 -1.975320856 -1.211872999 -2.275841238 -1.256067173 -2.231647064 -1.335616686 -2.505650942 -1.406327364 -2.434940264 -1.406327364 -2.788493654 -1.600781729 -2.594039289 -1.742203085 -2.735460646 -1.848269102 -2.629394628 -1.706847746 -2.487973272 -1.901302111 -2.293518907 -1.547748720 -2.293518907 -1.618459398 -2.222808229 -1.344455520 -2.143258716 -1.388649694 -2.099064543 Z" fill="none" stroke="#222" stroke-width="0.01" />
<path d="M -3.674499191 -1.314613018 -3.373978809 -1.438356705 -3.418172982 -1.482550879 -3.144169105 -1.562100392 -3.214879783 -1.632811070 -2.861326392 -1.632811070 -3.055780757 -1.827265435 -2.914359401 -1.968686791 -3.020425418 -2.074752808 -3.161846774 -1.933331452 -3.356301139 -2.127785817 -3.356301139 -1.774232426 -3.427011817 -1.844943104 -3.506561330 -1.570939226 -3.550755504 -1.615133400 Z" fill="none" stroke="#222" stroke-width="0.01" />
<path d="M -2.095962381 -1.367739532 -2.219706067 -1.668259914 -2.263900241 -1.624065740 -2.343449754 -1.898069618 -2.414160432 -1.827358940 -2.414160432 -2.180912330 -2.608614797 -1.986457965 -2.750036153 -2.127879322 -2.856102170 -2.021813304 -2.714680814 -1.880391948 -2.909135179 -1.685937583 -2.555581788 -1.685937583 -2.626292467 -1.615226905 -2.352288589 -1.535677392 -2.396482763 -1.491483219 Z" fill="none" stroke="#222" stroke-width="0.01" />
<path d="M -2.106075989 -1.402277275 -1.805555607 -1.526020962 -1.849749781 -1.570215136 -1.575745903 -1.649764649 -1.646456581 -1.720475327 -1.292903191 -1.720475327 -1.487357556 -1.914929691 -1.345936199 -2.056351048 -1.452002217 -2.162417065 -1.593423573 -2.020995709 -1.787877938 -2.215450074 -1.787877938 -1.861896683 -1.858588616 -1.932607361 -1.938138129 -1.658603483 -1.982332302 -1.702797657 Z" fill="none" stroke="#222" stroke-width="0.01" />
<path d="M -2.414859491 -0.863806029 -2.538603177 -1.164326411 -2.582797351 -1.120132237 -2.662346864 -1.394136115 -2.733057542 -1.323425437 -2.733057542 -1.676978828 -2.927511907 -1.482524463 -3.068933263 -1.623945819 -3.174999280 -1.517879802 -3.033577924 -1.376458446 -3.228032289 -1.182004081 -2.874478898 -1.182004081 -2.945189576 -1.111293403 -2.671185699 -1.031743890 -2.715379873 -0.987549716 Z" fill="none" stroke="#222" stroke-width="0.01" />
<path d="M -2.509148044 -0.587226438 -2.208627662 -0.710970125 -2.252821835 -0.755164299 -1.978817958 -0.834713812 -2.049528636 -0.905424490 -1.695975245 -0.905424490 -1.890429610 -1.099878855 -1.749008254 -1.241300211 -1.855074271 -1.347366228 -1.996495627 -1.205944872 -2.190949992 -1.400399237 -2.190949992 -1.046845846 -2.261660670 -1.117556524 -2.341210183 -0.843552646 -2.385404357 -0.887746820 Z" fill="none" stroke="#222" stroke-width="0.01" />
<rect x="-3.674499191" y="-3.050335913" width="2.586369878" height="2.586369878" fill="none" stroke="#000" stroke-width="0.01" />
</g>
<text x="40" y="552" font-family="monospace" font-size="12">grid_alt45</text>
<g transform="translate(500.000 980.000) scale(76.066230660 -76.066230660) translate(5.775425742 4.725328982)">
<path d="M -3.274352199 -2.141582496 -2.973831817 -2.265326183 -3.018025991 -2.309520357 -2.744022113 -2.389069870 -2.814732791 -2.459780548 -2.461179401 -2.459780548 -2.655633765 -2.654234913 -2.514212409 -2.795656269 -2.620278426 -2.901722286 -2.761699783 -2.760300930 -2.956154147 -2.954755295 -2.956154147 -2.601201904 -3.026864826 -2.671912582 -3.106414338 -2.397908705 -3.150608512 -2.442102878 Z" fill="none" stroke="#222" stroke-width="0.01" />
<path d="M -1.804661474 -3.232642537 -2.105181856 -3.108898850 -2.060987682 -3.064704676 -2.334991560 -2.985155163 -2.264280882 -2.914444485 -2.617834272 -2.914444485 -2.423379907 -2.719990120 -2.564801264 -2.578568764 -2.458735246 -2.472502747 -2.317313890 -2.613924103 -2.122859525 -2.419469738 -2.122859525 -2.773023129 -2.052148847 -2.702312451 -1.972599334 -2.976316328 -1.928405160 -2.932122155 Z" fill="none" stroke="#222" stroke-width="0.01" />
<path d="M -2.141414943 -2.357584261 -1.840894561 -2.481327947 -1.885088735 -2.525522121 -1.611084857 -2.605071634 -1.681795535 -2.675782312 -1.328242144 -2.675782312 -1.522696509 -2.870236677 -1.381275153 -3.011658033 -1.487341170 -3.117724050 -1.628762526 -2.976302694 -1.823216891 -3.170757059 -1.823216891 -2.817203668 -1.893927569 -2.887914346 -1.973477082 -2.613910469 -2.017671256 -2.658104643 Z" fill="none" stroke="#222" stroke-width="0.01" />
<path d="M -2.278279389 -2.532327736 -2.578799771 -2.408584049 -2.534605597 -2.364389875 -2.808609475 -2.284840363 -2.737898797 -2.214129684 -3.091452187 -2.214129684 -2.896997822 -2.019675320 -3.038419179 -1.878253963 -2.932353161 -1.772187946 -2.790931805 -1.913609302 -2.596477440 -1.719154938 -2.596477440 -2.072708328 -2.525766762 -2.001997650 -2.446217249 -2.276001528 -2.402023075 -2.231807354 Z" fill="none" stroke="#222" stroke-width="0.01" />
<path d="M -2.586634464 -1.661041057 -2.286114082 -1.784784744 -2.330308255 -1.828978918 -2.056304378 -1.908528431 -2.127015056 -1.979239109 -1.773461665 -1.979239109 -1.967916030 -2.173693474 -1.826494674 -2.315114830 -1.932560691 -2.421180847 -2.073982047 -2.279759491 -2.268436412 -2.474213856 -2.268436412 -2.120660465 -2.339147090 -2.191371143 -2.418696603 -1.917367266 -2.462890777 -1.961561439 Z" fill="none" stroke="#222" stroke-width="0.01" />
<path d="M -1.131686668 -2.752386457 -1.432207050 -2.628642771 -1.388012876 -2.584448597 -1.662016754 -2.504899084 -1.591306075 -2.434188406 -1.944859466 -2.434188406 -1.750405101 -2.239734041 -1.891826457 -2.098312685 -1.785760440 -1.992246667 -1.644339084 -2.133668024 -1.449884719 -1.939213659 -1.449884719 -2.292767049 -1.379174041 -2.222056371 -1.299624528 -2.496060249 -1.255430354 -2.451866075 Z" fill="none" stroke="#222" stroke-width="0.01" />
<path d="M -3.127570911 -0.941091529 -2.827050529 -1.064835216 -2.871244703 -1.109029390 -2.597240825 -1.188578902 -2.667951503 -1.259289581 -2.314398112 -1.259289581 -2.508852477 -1.453743945 -2.367431121 -1.595165302 -2.473497138 -1.701231319 -2.614918494 -1.559809963 -2.809372859 -1.754264327 -2.809372859 -1.400710937 -2.880083537 -1.471421615 -2.959633050 -1.197417737 -3.003827224 -1.241611911 Z" fill="none" stroke="#222" stroke-width="0.01" />
<path d="M -1.596800159 -2.044047381 -1.897320541 -1.920303695 -1.853126367 -1.876109521 -2.127130245 -1.796560008 -2.056419567 -1.725849330 -2.409972957 -1.725849330 -2.215518592 -1.531394965 -2.356939949 -1.389973609 -2.250873931 -1.283907591 -2.109452575 -1.425328948 -1.914998210 -1.230874583 -1.914998210 -1.584427973 -1.844287532 -1.513717295 -1.764738019 -1.787721173 -1.720543846 -1.743526999 Z" fill="none" stroke="#222" stroke-width="0.01" />
<rect x="-3.348794937" y="-3.232642537" width="2.291551007" height="2.291551007" fill="none" stroke="#000" stroke-width="0.01" />
</g>
<text x="500" y="552" font-family="monospace" font-size="12">alternating</text>
<g transform="translate(960.000 980.000) scale(76.066230660 -76.066230660) translate(5.775425742 4.725328982)">
<path d="M -3.115634001 -2.401792033 -2.990634001 -2.701792033 -3.053134001 -2.701792033 -2.915634001 -2.951792033 -3.015634001 -2.951792033 -2.765634001 -3.201792033 -3.040634001 -3.201792033 -3.040634001 -3.401792033 -3.190634001 -3.401792033 -3.190634001 -3.201792033 -3.465634001 -3.201792033 -3.215634001 -2.951792033 -3.315634001 -2.951792033 -3.178134001 -2.701792033 -3.240634001 -2.701792033 Z" fill="none" stroke="#222" stroke-width="0.01" />
<path d="M -2.517216732 -4.215225255 -2.642216732 -3.915225255 -2.579716732 -3.915225255 -2.717216732 -3.665225255 -2.617216732 -3.665225255 -2.867216732 -3.415225255 -2.592216732 -3.415225255 -2.592216732 -3.215225255 -2.442216732 -3.215225255 -2.442216732 -3.415225255 -2.167216732 -3.415225255 -2.417216732 -3.665225255 -2.317216732 -3.665225255 -2.454716732 -3.915225255 -2.392216732 -3.915225255 Z" fill="none" stroke="#222" stroke-width="0.01" />
<path d="M -2.091383853 -2.615225255 -1.966383853 -2.915225255 -2.028883853 -2.915225255 -1.891383853 -3.165225255 -1.991383853 -3.165225255 -1.741383853 -3.415225255 -2.016383853 -3.415225255 -2.016383853 -3.615225255 -2.166383853 -3.615225255 -2.166383853 -3.415225255 -2.441383853 -3.415225255 -2.191383853 -3.165225255 -2.291383853 -3.165225255 -2.153883853 -2.915225255 -2.216383853 -2.915225255 Z" fill="none" stroke="#222" stroke-width="0.01" />
<path d="M -2.676978311 -3.414367627 -2.801978311 -3.114367627 -2.739478311 -3.114367627 -2.876978311 -2.864367627 -2.776978311 -2.864367627 -3.026978311 -2.614367627 -2.751978311 -2.614367627 -2.751978311 -2.414367627 -2.601978311 -2.414367627 -2.601978311 -2.614367627 -2.326978311 -2.614367627 -2.576978311 -2.864367627 -2.476978311 -2.864367627 -2.614478311 -3.114367627 -2.551978311 -3.114367627 Z" fill="none" stroke="#222" stroke-width="0.01" />
<path d="M -1.806979424 -1.814482505 -1.681979424 -2.114482505 -1.744479424 -2.114482505 -1.606979424 -2.364482505 -1.706979424 -2.364482505 -1.456979424 -2.614482505 -1.731979424 -2.614482505 -1.731979424 -2.814482505 -1.881979424 -2.814482505 -1.881979424 -2.614482505 -2.156979424 -2.614482505 -1.906979424 -2.364482505 -2.006979424 -2.364482505 -1.869479424 -2.114482505 -1.931979424 -2.114482505 Z" fill="none" stroke="#222" stroke-width="0.01" />
<path d="M -1.381573503 -3.580305281 -1.506573503 -3.280305281 -1.444073503 -3.280305281 -1.581573503 -3.030305281 -1.481573503 -3.030305281 -1.731573503 -2.780305281 -1.456573503 -2.780305281 -1.456573503 -2.580305281 -1.306573503 -2.580305281 -1.306573503 -2.780305281 -1.031573503 -2.780305281 -1.281573503 -3.030305281 -1.181573503 -3.030305281 -1.319073503 -3.280305281 -1.256573503 -3.280305281 Z" fill="none" stroke="#222" stroke-width="0.01" />
<path d="M -2.668032529 -1.355038247 -2.543032529 -1.655038247 -2.605532529 -1.655038247 -2.468032529 -1.905038247 -2.568032529 -1.905038247 -2.318032529 -2.155038247 -2.593032529 -2.155038247 -2.593032529 -2.355038247 -2.743032529 -2.355038247 -2.743032529 -2.155038247 -3.018032529 -2.155038247 -2.768032529 -1.905038247 -2.868032529 -1.905038247 -2.730532529 -1.655038247 -2.793032529 -1.655038247 Z" fill="none" stroke="#222" stroke-width="0.01" />
<path d="M -2.242109471 -2.955038247 -2.367109471 -2.655038247 -2.304609471 -2.655038247 -2.442109471 -2.405038247 -2.342109471 -2.405038247 -2.592109471 -2.155038247 -2.317109471 -2.155038247 -2.317109471 -1.955038247 -2.167109471 -1.955038247 -2.167109471 -2.155038247 -1.892109471 -2.155038247 -2.142109471 -2.405038247 -2.042109471 -2.405038247 -2.179609471 -2.655038247 -2.117109471 -2.655038247 Z" fill="none" stroke="#222" stroke-width="0.01" />
<rect x="-3.678697256" y="-4.215225255" width="2.860187008" height="2.860187008" fill="none" stroke="#000" stroke-width="0.01" />
</g>
<text x="960" y="552" font-family="monospace" font-size="12">sheared_brick</text>
<g transform="translate(40.000 1440.000) scale(76.066230660 -76.066230660) translate(5.775425742 4.725328982)">
<path d="M -3.689002651 -1.698324468 -3.388482269 -1.822068155 -3.432676443 -1.866262329 -3.158672565 -1.945811841 -3.229383243 -2.016522520 -2.875829852 -2.016522520 -3.070284217 -2.210976884 -2.928862861 -2.352398241 -3.034928878 -2.458464258 -3.176350234 -2.317042902 -3.370804599 -2.511497266 -3.370804599 -2.157943876 -3.441515277 -2.228654554 -3.521064790 -1.954650676 -3.565258964 -1.998844850 Z" fill="none" stroke="#222" stroke-width="0.01" />
<path d="M -2.026539200 -2.676836045 -2.327059582 -2.553092358 -2.282865408 -2.508898184 -2.556869286 -2.429348671 -2.486158607 -2.358637993 -2.839711998 -2.358637993 -2.645257633 -2.164183628 -2.786678989 -2.022762272 -2.680612972 -1.916696255 -2.539191616 -2.058117611 -2.344737251 -1.863663246 -2.344737251 -2.217216637 -2.274026573 -2.146505959 -2.194477060 -2.420509837 -2.150282886 -2.376315663 Z" fill="none" stroke="#222" stroke-width="0.01" />
<path d="M -2.981014048 -0.801965895 -2.680493666 -0.925709581 -2.724687840 -0.969903755 -2.450683962 -1.049453268 -2.521394641 -1.120163946 -2.167841250 -1.120163946 -2.362295615 -1.314618311 -2.220874259 -1.456039667 -2.326940276 -1.562105684 -2.468361632 -1.420684328 -2.662815997 -1.615138693 -2.662815997 -1.261585302 -2.733526675 -1.332295981 -2.813076188 -1.058292103 -2.857270362 -1.102486277 Z" fill="none" stroke="#222" stroke-width="0.01" />
<path d="M -2.323208404 -3.171834634 -2.623728786 -3.048090947 -2.579534612 -3.003896774 -2.853538490 -2.924347261 -2.782827812 -2.853636583 -3.136381202 -2.853636583 -2.941926838 -2.659182218 -3.083348194 -2.517760862 -2.977282177 -2.411694844 -2.835860820 -2.553116201 -2.641406456 -2.358661836 -2.641406456 -2.712215226 -2.570695777 -2.641504548 -2.491146265 -2.915508426 -2.446952091 -2.871314252 Z" fill="none" stroke="#222" stroke-width="0.01" />
<path d="M -3.193950073 -1.296940642 -2.893429691 -1.420684328 -2.937623864 -1.464878502 -2.663619987 -1.544428015 -2.734330665 -1.615138693 -2.380777274 -1.615138693 -2.575231639 -1.809593058 -2.433810283 -1.951014414 -2.539876300 -2.057080431 -2.681297656 -1.915659075 -2.875752021 -2.110113440 -2.875752021 -1.756560049 -2.946462699 -1.827270727 -3.026012212 -1.553266850 -3.070206386 -1.597461024 Z" fill="none" stroke="#222" stroke-width="0.01" />
<path d="M -1.531486622 -2.464704011 -1.832007004 -2.340960324 -1.787812830 -2.296766150 -2.061816707 -2.217216637 -1.991106029 -2.146505959 -2.344659420 -2.146505959 -2.150205055 -1.952051594 -2.291626411 -1.810630238 -2.185560394 -1.704564221 -2.044139038 -1.845985577 -1.849684673 -1.651531212 -1.849684673 -2.005084603 -1.778973995 -1.934373925 -1.699424482 -2.208377802 -1.655230308 -2.164183628 Z" fill="none" stroke="#222" stroke-width="0.01" />
<path d="M -3.431111693 -2.674736389 -3.130591311 -2.798480076 -3.174785485 -2.842674250 -2.900781607 -2.922223762 -2.971492285 -2.992934441 -2.617938895 -2.992934441 -2.812393259 -3.187388805 -2.670971903 -3.328810162 -2.777037920 -3.434876179 -2.918459277 -3.293454823 -3.112913641 -3.487909187 -3.112913641 -3.134355797 -3.183624320 -3.205066475 -3.263173833 -2.931062597 -3.307368006 -2.975256771 Z" fill="none" stroke="#222" stroke-width="0.01" />
<path d="M -1.563840191 -3.359211482 -1.864360573 -3.235467795 -1.820166400 -3.191273622 -2.094170277 -3.111724109 -2.023459599 -3.041013431 -2.377012990 -3.041013431 -2.182558625 -2.846559066 -2.323979981 -2.705137710 -2.217913964 -2.599071692 -2.076492608 -2.740493049 -1.882038243 -2.546038684 -1.882038243 -2.899592074 -1.811327565 -2.828881396 -1.731778052 -3.102885274 -1.687583878 -3.058691100 Z" fill="none" stroke="#222" stroke-width="0.01" />
<rect x="-3.953216282" y="-3.487909187" width="2.685943293" height="2.685943293" fill="none" stroke="#000" stroke-width="0.01" />
</g>
<text x="40" y="1012" font-family="monospace" font-size="12">diamond_lattice</text>
<g transform="translate(500.000 1440.000) scale(76.066230660 -76.066230660) translate(5.775425742 4.725328982)">
<path d="M -2.879503156 -1.932467656 -2.754503156 -2.232467656 -2.817003156 -2.232467656 -2.679503156 -2.482467656 -2.779503156 -2.482467656 -2.529503156 -2.732467656 -2.804503156 -2.732467656 -2.804503156 -2.932467656 -2.954503156 -2.932467656 -2.954503156 -2.732467656 -3.229503156 -2.732467656 -2.979503156 -2.482467656 -3.079503156 -2.482467656 -2.942003156 -2.232467656 -3.004503156 -2.232467656 Z" fill="none" stroke="#222" stroke-width="0.01" />
<path d="M -2.356848811 -1.632748285 -2.231848811 -1.932748285 -2.294348811 -1.932748285 -2.156848811 -2.182748285 -2.256848811 -2.182748285 -2.006848811 -2.432748285 -2.281848811 -2.432748285 -2.281848811 -2.632748285 -2.431848811 -2.632748285 -2.431848811 -2.432748285 -2.706848811 -2.432748285 -2.456848811 -2.182748285 -2.556848811 -2.182748285 -2.419348811 -1.932748285 -2.481848811 -1.932748285 Z" fill="none" stroke="#222" stroke-width="0.01" />
<path d="M -1.856848811 -1.832748285 -1.731848811 -2.132748285 -1.794348811 -2.132748285 -1.656848811 -2.382748285 -1.756848811 -2.382748285 -1.506848811 -2.632748285 -1.781848811 -2.632748285 -1.781848811 -2.832748285 -1.931848811 -2.832748285 -1.931848811 -2.632748285 -2.206848811 -2.632748285 -1.956848811 -2.382748285 -2.056848811 -2.382748285 -1.919348811 -2.132748285 -1.981848811 -2.132748285 Z" fill="none" stroke="#222" stroke-width="0.01" />
<path d="M -3.457126867 -1.797681736 -3.157126867 -1.672681736 -3.157126867 -1.735181736 -2.907126867 -1.597681736 -2.907126867 -1.697681736 -2.657126867 -1.447681736 -2.657126867 -1.722681736 -2.457126867 -1.722681736 -2.457126867 -1.872681736 -2.657126867 -1.872681736 -2.657126867 -2.147681736 -2.907126867 -1.897681736 -2.907126867 -1.997681736 -3.157126867 -1.860181736 -3.157126867 -1.922681736 Z" fill="none" stroke="#222" stroke-width="0.01" />
<path d="M -2.610432653 -1.521189698 -2.310432653 -1.396189698 -2.310432653 -1.458689698 -2.060432653 -1.321189698 -2.060432653 -1.421189698 -1.810432653 -1.171189698 -1.810432653 -1.446189698 -1.610432653 -1.446189698 -1.610432653 -1.596189698 -1.810432653 -1.596189698 -1.810432653 -1.871189698 -2.060432653 -1.621189698 -2.060432653 -1.721189698 -2.310432653 -1.583689698 -2.310432653 -1.646189698 Z" fill="none" stroke="#222" stroke-width="0.01" />
<path d="M -1.835392847 -1.881589778 -1.535392847 -1.756589778 -1.535392847 -1.819089778 -1.285392847 -1.681589778 -1.285392847 -1.781589778 -1.035392847 -1.531589778 -1.035392847 -1.806589778 -0.835392847 -1.806589778 -0.835392847 -1.956589778 -1.035392847 -1.956589778 -1.035392847 -2.231589778 -1.285392847 -1.981589778 -1.285392847 -2.081589778 -1.535392847 -1.944089778 -1.535392847 -2.006589778 Z" fill="none" stroke="#222" stroke-width="0.01" />
<path d="M -2.838347359 -0.552954984 -2.713347359 -0.852954984 -2.775847359 -0.852954984 -2.638347359 -1.102954984 -2.738347359 -1.102954984 -2.488347359 -1.352954984 -2.763347359 -1.352954984 -2.763347359 -1.552954984 -2.913347359 -1.552954984 -2.913347359 -1.352954984 -3.188347359 -1.352954984 -2.938347359 -1.102954984 -3.038347359 -1.102954984 -2.900847359 -0.852954984 -2.963347359 -0.852954984 Z" fill="none" stroke="#222" stroke-width="0.01" />
<path d="M -2.291229765 -0.396189698 -2.166229765 -0.696189698 -2.228729765 -0.696189698 -2.091229765 -0.946189698 -2.191229765 -0.946189698 -1.941229765 -1.196189698 -2.216229765 -1.196189698 -2.216229765 -1.396189698 -2.366229765 -1.396189698 -2.366229765 -1.196189698 -2.641229765 -1.196189698 -2.391229765 -0.946189698 -2.491229765 -0.946189698 -2.353729765 -0.696189698 -2.416229765 -0.696189698 Z" fill="none" stroke="#222" stroke-width="0.01" />
<rect x="-3.457126867" y="-2.975195687" width="2.621734021" height="2.621734021" fill="none" stroke="#000" stroke-width="0.01" />
</g>
<text x="500" y="1012" font-family="monospace" font-size="12">herringbone</text>
<g transform="translate(960.000 1440.000) scale(76.066230660 -76.066230660) translate(5.775425742 4.725328982)">
<path d="M -1.694801133 -1.211668021 -1.569801133 -1.511668021 -1.632301133 -1.511668021 -1.494801133 -1.761668021 -1.594801133 -1.761668021 -1.344801133 -2.011668021 -1.619801133 -2.011668021 -1.619801133 -2.211668021 -1.769801133 -2.211668021 -1.769801133 -2.011668021 -2.044801133 -2.011668021 -1.794801133 -1.761668021 -1.894801133 -1.761668021 -1.757301133 -1.511668021 -1.819801133 -1.511668021 Z" fill="none" stroke="#222" stroke-width="0.01" />
<path d="M -2.650515552 -1.098801110 -2.349995170 -1.222544797 -2.394189344 -1.266738971 -2.120185466 -1.346288484 -2.190896144 -1.416999162 -1.837342753 -1.416999162 -2.031797118 -1.611453527 -1.890375762 -1.752874883 -1.996441779 -1.858940900 -2.137863135 -1.717519544 -2.332317500 -1.911973909 -2.332317500 -1.558420518 -2.403028178 -1.629131196 -2.482577691 -1.355127319 -2.526771865 -1.399321492 Z" fill="none" stroke="#222" stroke-width="0.01" />
<path d="M -3.406028471 -1.694951152 -3.106028471 -1.569951152 -3.106028471 -1.632451152 -2.856028471 -1.494951152 -2.856028471 -1.594951152 -2.606028471 -1.344951152 -2.606028471 -1.619951152 -2.406028471 -1.619951152 -2.406028471 -1.769951152 -2.606028471 -1.769951152 -2.606028471 -2.044951152 -2.856028471 -1.794951152 -2.856028471 -1.894951152 -3.106028471 -1.757451152 -3.106028471 -1.819951152 Z" fill="none" stroke="#222" stroke-width="0.01" />
<path d="M -3.518794673 -2.650510925 -3.395050986 -2.349990543 -3.350856812 -2.394184716 -3.271307299 -2.120180839 -3.200596621 -2.190891517 -3.200596621 -1.837338126 -3.006142256 -2.031792491 -2.864720900 -1.890371135 -2.758654883 -1.996437152 -2.900076239 -2.137858508 -2.705621874 -2.332312873 -3.059175265 -2.332312873 -2.988464587 -2.403023551 -3.262468465 -2.482573064 -3.218274291 -2.526767238 Z" fill="none" stroke="#222" stroke-width="0.01" />
<path d="M -2.922658338 -3.406255441 -3.047658338 -3.106255441 -2.985158338 -3.106255441 -3.122658338 -2.856255441 -3.022658338 -2.856255441 -3.272658338 -2.606255441 -2.997658338 -2.606255441 -2.997658338 -2.406255441 -2.847658338 -2.406255441 -2.847658338 -2.606255441 -2.572658338 -2.606255441 -2.822658338 -2.856255441 -2.722658338 -2.856255441 -2.860158338 -3.106255441 -2.797658338 -3.106255441 Z" fill="none" stroke="#222" stroke-width="0.01" />
<path d="M -1.967133459 -3.518868355 -2.267653841 -3.395124668 -2.223459667 -3.350930494 -2.497463545 -3.271380981 -2.426752867 -3.200670303 -2.780306257 -3.200670303 -2.585851893 -3.006215938 -2.727273249 -2.864794582 -2.621207232 -2.758728565 -2.479785875 -2.900149921 -2.285331511 -2.705695556 -2.285331511 -3.059248947 -2.214620832 -2.988538269 -2.135071320 -3.262542147 -2.090877146 -3.218347973 Z" fill="none" stroke="#222" stroke-width="0.01" />
<path d="M -1.211447358 -2.922600758 -1.511447358 -3.047600758 -1.511447358 -2.985100758 -1.761447358 -3.122600758 -1.761447358 -3.022600758 -2.011447358 -3.272600758 -2.011447358 -2.997600758 -2.211447358 -2.997600758 -2.211447358 -2.847600758 -2.011447358 -2.847600758 -2.011447358 -2.572600758 -1.761447358 -2.822600758 -1.761447358 -2.722600758 -1.511447358 -2.860100758 -1.511447358 -2.797600758 Z" fill="none" stroke="#222" stroke-width="0.01" />
<path d="M -1.098844777 -1.966998207 -1.222588464 -2.267518589 -1.266782638 -2.223324415 -1.346332151 -2.497328293 -1.417042829 -2.426617615 -1.417042829 -2.780171005 -1.611497194 -2.585716640 -1.752918550 -2.727137997 -1.858984567 -2.621071980 -1.717563211 -2.479650623 -1.912017576 -2.285196258 -1.558464185 -2.285196258 -1.629174863 -2.214485580 -1.355170986 -2.134936067 -1.399365159 -2.090741894 Z" fill="none" stroke="#222" stroke-width="0.01" />
<rect x="-3.518853347" y="-3.518868355" width="2.420067244" height="2.420067244" fill="none" stroke="#000" stroke-width="0.01" />
</g>
<text x="960" y="1012" font-family="monospace" font-size="12">circle_ring</text>
<g transform="translate(40.000 1900.000) scale(76.066230660 -76.066230660) translate(5.775425742 4.725328982)">
<path d="M -1.933509990 -1.515796750 -1.808509990 -1.815796750 -1.871009990 -1.815796750 -1.733509990 -2.065796750 -1.833509990 -2.065796750 -1.583509990 -2.315796750 -1.858509990 -2.315796750 -1.858509990 -2.515796750 -2.008509990 -2.515796750 -2.008509990 -2.315796750 -2.283509990 -2.315796750 -2.033509990 -2.065796750 -2.133509990 -2.065796750 -1.996009990 -1.815796750 -2.058509990 -1.815796750 Z" fill="none" stroke="#222" stroke-width="0.01" />
<path d="M -2.186643383 -1.005414818 -1.878761369 -1.109499711 -1.920010315 -1.156454736 -1.641442531 -1.218149467 -1.707440846 -1.293277507 -1.354624958 -1.270453192 -1.536120323 -1.477055304 -1.385864242 -1.609051933 -1.484861714 -1.721743994 -1.635117795 -1.589747365 -1.816613160 -1.796349476 -1.839437475 -1.443533588 -1.905435790 -1.518661629 -2.002508208 -1.250364787 -2.043757155 -1.297319812 Z" fill="none" stroke="#222" stroke-width="0.01" />
<path d="M -2.966391848 -1.644868242 -2.684997966 -1.482256792 -2.676945185 -1.544235843 -2.446745101 -1.375670808 -2.433860651 -1.474837289 -2.218155572 -1.194709962 -2.182723336 -1.467417785 -1.984390374 -1.441648886 -1.965063700 -1.590398608 -2.163396662 -1.616167507 -2.127964426 -1.888875330 -2.408091752 -1.673170251 -2.395207303 -1.772336732 -2.660839624 -1.668193944 -2.652786843 -1.730172995 Z" fill="none" stroke="#222" stroke-width="0.01" />
<path d="M -2.856800992 -2.593854968 -2.793252568 -2.275128442 -2.741374223 -2.309983675 -2.716085654 -2.025788780 -2.633080301 -2.081557151 -2.701172755 -1.734622838 -2.472908033 -1.887985861 -2.361371290 -1.721975153 -2.236863259 -1.805627711 -2.348400003 -1.971638418 -2.120135281 -2.125001440 -2.467069594 -2.193093895 -2.384064240 -2.248862267 -2.637617531 -2.379694139 -2.585739185 -2.414549372 Z" fill="none" stroke="#222" stroke-width="0.01" />
<path d="M -2.142456112 -3.241098964 -2.339968217 -2.983002144 -2.279543330 -2.967030825 -2.476363357 -2.760468179 -2.379683537 -2.734914069 -2.685268361 -2.557099796 -2.419398858 -2.486825993 -2.470507078 -2.293466354 -2.325487350 -2.255135189 -2.274379129 -2.448494828 -2.008509626 -2.378221025 -2.186323899 -2.683805848 -2.089644080 -2.658251738 -2.158693556 -2.935088188 -2.098268669 -2.919116869 Z" fill="none" stroke="#222" stroke-width="0.01" />
<path d="M -1.202639140 -3.001584193 -1.526896884 -2.979631615 -1.499016415 -2.923694780 -1.784100785 -2.935233945 -1.739492036 -2.845735009 -2.074761248 -2.957960476 -1.952087188 -2.711838402 -2.131085060 -2.622620905 -2.064171936 -2.488372501 -1.885174065 -2.577589999 -1.762500005 -2.331467925 -1.650274538 -2.666737137 -1.605665789 -2.577238201 -1.443255479 -2.811821111 -1.415375011 -2.755884276 Z" fill="none" stroke="#222" stroke-width="0.01" />
<path d="M -0.764025427 -2.152616710 -0.994522614 -2.381736868 -1.018146223 -2.323873451 -1.197627954 -2.545667405 -1.235425728 -2.453085937 -1.372384963 -2.779034043 -1.476328842 -2.524435006 -1.661491779 -2.600030554 -1.718188440 -2.461158352 -1.533025504 -2.385562803 -1.636969383 -2.130963766 -1.311021277 -2.267923001 -1.348819051 -2.175341532 -1.065393441 -2.208146616 -1.089017050 -2.150283198 Z" fill="none" stroke="#222" stroke-width="0.01" />
<path d="M -1.112640290 -1.263598697 -1.092631063 -1.587982160 -1.151693899 -1.567541234 -1.103519364 -1.848762613 -1.198019901 -1.816057132 -1.043532263 -2.134072178 -1.303408739 -2.044132104 -1.368819702 -2.233133177 -1.510570508 -2.184074955 -1.445159545 -1.995073881 -1.705036021 -1.905133807 -1.387020975 -1.750646169 -1.481521512 -1.717940687 -1.269819570 -1.526659382 -1.328882406 -1.506218456 Z" fill="none" stroke="#222" stroke-width="0.01" />
<rect x="-2.983050711" y="-3.241098964" width="2.235684147" height="2.235684147" fill="none" stroke="#000" stroke-width="0.01" />
</g>
<text x="40" y="1472" font-family="monospace" font-size="12">spiral</text>
<g transform="translate(500.000 1900.000) scale(76.066230660 -76.066230660) translate(5.775425742 4.725328982)">
<path d="M -3.415182034 -2.122902142 -3.115182034 -1.997902142 -3.115182034 -2.060402142 -2.865182034 -1.922902142 -2.865182034 -2.022902142 -2.615182034 -1.772902142 -2.615182034 -2.047902142 -2.415182034 -2.047902142 -2.415182034 -2.197902142 -2.615182034 -2.197902142 -2.615182034 -2.472902142 -2.865182034 -2.222902142 -2.865182034 -2.322902142 -3.115182034 -2.185402142 -3.115182034 -2.247902142 Z" fill="none" stroke="#222" stroke-width="0.01" />
<path d="M -2.166365138 -1.974592816 -2.472012088 -1.864116837 -2.429793945 -1.818031283 -2.707016080 -1.750546930 -2.639467050 -1.676810042 -2.992681843 -1.692279688 -2.806922012 -1.489503246 -2.954395788 -1.354405188 -2.853072244 -1.243799856 -2.705598468 -1.378897915 -2.519838637 -1.176121473 -2.504368991 -1.529336266 -2.436819962 -1.455599378 -2.345357658 -1.725860173 -2.303139515 -1.679774618 Z" fill="none" stroke="#222" stroke-width="0.01" />
<path d="M -2.215673817 -2.014810764 -2.064924720 -2.302733861 -2.127185410 -2.308197969 -1.968355461 -2.545219692 -2.067972565 -2.553962264 -1.797073373 -2.781148593 -2.071020409 -2.805190668 -2.053535264 -3.004424876 -2.202960921 -3.017538735 -2.220446066 -2.818304526 -2.494393102 -2.842346601 -2.267206773 -2.571447409 -2.366823877 -2.580189982 -2.251706790 -2.319126184 -2.313967480 -2.324590292 Z" fill="none" stroke="#222" stroke-width="0.01" />
<path d="M -2.104677153 -2.073497047 -2.021345589 -1.759361964 -1.971745542 -1.797389392 -1.928755930 -1.515328861 -1.849395855 -1.576172747 -1.895686327 -1.225662844 -1.677446121 -1.392983531 -1.555758348 -1.234263381 -1.436718236 -1.325529210 -1.558406008 -1.484249360 -1.340165801 -1.651570047 -1.690675704 -1.697860519 -1.611315629 -1.758704406 -1.872545448 -1.873444250 -1.822945401 -1.911471679 Z" fill="none" stroke="#222" stroke-width="0.01" />
<path d="M -2.625184305 -2.475616325 -2.898825607 -2.650960096 -2.909711979 -2.589415503 -3.131940332 -2.768359095 -3.149358527 -2.669887746 -3.351991411 -2.959611605 -3.399891447 -2.688815397 -3.596834144 -2.723651787 -3.622961437 -2.575944764 -3.426018739 -2.541108374 -3.473918776 -2.270312165 -3.184194917 -2.472945049 -3.201613112 -2.374473701 -2.931484722 -2.466326317 -2.942371094 -2.404781724 Z" fill="none" stroke="#222" stroke-width="0.01" />
<path d="M -2.186274416 -2.067142373 -1.866056821 -2.122691377 -1.899602324 -2.175426083 -1.614863393 -2.193591743 -1.668536199 -2.277967273 -1.323415362 -2.201210462 -1.471015576 -2.433243168 -1.302264517 -2.540588779 -1.382773725 -2.667152073 -1.551524784 -2.559806463 -1.699124999 -2.791839169 -1.775881809 -2.446718332 -1.829554614 -2.531093861 -1.966693331 -2.280895495 -2.000238834 -2.333630201 Z" fill="none" stroke="#222" stroke-width="0.01" />
<path d="M -2.043840733 -1.817674469 -2.242436409 -1.560410485 -2.182079217 -1.544185216 -2.379766116 -1.338452039 -2.283194608 -1.312491609 -2.589524453 -1.135963917 -2.323952808 -1.064572733 -2.375873669 -0.871429718 -2.231016407 -0.832489072 -2.179095546 -1.025632087 -1.913523901 -0.954240903 -2.090051593 -1.260570748 -1.993480086 -1.234610317 -2.061364832 -1.511734678 -2.001007640 -1.495509409 Z" fill="none" stroke="#222" stroke-width="0.01" />
<path d="M -2.365077519 -2.197820284 -2.392418572 -2.521668191 -2.447884099 -2.492861502 -2.441086696 -2.778098325 -2.529831539 -2.732007623 -2.423196188 -3.069096486 -2.667244506 -2.942347054 -2.759425911 -3.119836740 -2.892543175 -3.050700687 -2.800361771 -2.873211001 -3.044410089 -2.746461569 -2.707321225 -2.639826218 -2.796066068 -2.593735515 -2.558815153 -2.435248124 -2.614280680 -2.406441435 Z" fill="none" stroke="#222" stroke-width="0.01" />
<rect x="-3.622961437" y="-3.136511366" width="2.320696919" height="2.320696919" fill="none" stroke="#000" stroke-width="0.01" />
</g>
<text x="500" y="1472" font-family="monospace" font-size="12">sunflower</text>
<g transform="translate(960.000 1900.000) scale(76.066230660 -76.066230660) translate(5.775425742 4.725328982)">
<path d="M -2.808252924 -2.539675430 -2.683252924 -2.839675430 -2.745752924 -2.839675430 -2.608252924 -3.089675430 -2.708252924 -3.089675430 -2.458252924 -3.339675430 -2.733252924 -3.339675430 -2.733252924 -3.539675430 -2.883252924 -3.539675430 -2.883252924 -3.339675430 -3.158252924 -3.339675430 -2.908252924 -3.089675430 -3.008252924 -3.089675430 -2.870752924 -2.839675430 -2.933252924 -2.839675430 Z" fill="none" stroke="#222" stroke-width="0.01" />
<path d="M -2.294140143 -3.953788424 -2.419140143 -3.653788424 -2.356640143 -3.653788424 -2.494140143 -3.403788424 -2.394140143 -3.403788424 -2.644140143 -3.153788424 -2.369140143 -3.153788424 -2.369140143 -2.953788424 -2.219140143 -2.953788424 -2.219140143 -3.153788424 -1.944140143 -3.153788424 -2.194140143 -3.403788424 -2.094140143 -3.403788424 -2.231640143 -3.653788424 -2.169140143 -3.653788424 Z" fill="none" stroke="#222" stroke-width="0.01" />
<path d="M -2.390842419 -3.002256687 -2.515842419 -2.702256687 -2.453342419 -2.702256687 -2.590842419 -2.452256687 -2.490842419 -2.452256687 -2.740842419 -2.202256687 -2.465842419 -2.202256687 -2.465842419 -2.002256687 -2.315842419 -2.002256687 -2.315842419 -2.202256687 -2.040842419 -2.202256687 -2.290842419 -2.452256687 -2.190842419 -2.452256687 -2.328342419 -2.702256687 -2.265842419 -2.702256687 Z" fill="none" stroke="#222" stroke-width="0.01" />
<path d="M -1.931534784 -1.642949052 -1.806534784 -1.942949052 -1.869034784 -1.942949052 -1.731534784 -2.192949052 -1.831534784 -2.192949052 -1.581534784 -2.442949052 -1.856534784 -2.442949052 -1.856534784 -2.642949052 -2.006534784 -2.642949052 -2.006534784 -2.442949052 -2.281534784 -2.442949052 -2.031534784 -2.192949052 -2.131534784 -2.192949052 -1.994034784 -1.942949052 -2.056534784 -1.942949052 Z" fill="none" stroke="#222" stroke-width="0.01" />
<path d="M -2.214804708 -2.767949052 -1.914804708 -2.642949052 -1.914804708 -2.705449052 -1.664804708 -2.567949052 -1.664804708 -2.667949052 -1.414804708 -2.417949052 -1.414804708 -2.692949052 -1.214804708 -2.692949052 -1.214804708 -2.842949052 -1.414804708 -2.842949052 -1.414804708 -3.117949052 -1.664804708 -2.867949052 -1.664804708 -2.967949052 -1.914804708 -2.830449052 -1.914804708 -2.892949052 Z" fill="none" stroke="#222" stroke-width="0.01" />
<path d="M -2.476835474 -2.702197368 -2.782482424 -2.591721389 -2.740264281 -2.545635834 -3.017486416 -2.478151481 -2.949937386 -2.404414594 -3.303152179 -2.419884239 -3.117392349 -2.217107798 -3.264866124 -2.082009739 -3.163542580 -1.971404407 -3.016068804 -2.106502466 -2.830308973 -1.903726025 -2.814839328 -2.256940818 -2.747290298 -2.183203930 -2.655827994 -2.453464724 -2.613609851 -2.407379170 Z" fill="none" stroke="#222" stroke-width="0.01" />
<path d="M -1.897819567 -2.844009078 -1.747070470 -3.131932175 -1.809331160 -3.137396283 -1.650501210 -3.374418006 -1.750118314 -3.383160578 -1.479219123 -3.610346907 -1.753166159 -3.634388981 -1.735681014 -3.833623190 -1.885106670 -3.846737048 -1.902591815 -3.647502840 -2.176538852 -3.671544914 -1.949352523 -3.400645723 -2.048969627 -3.409388296 -1.933852540 -3.148324498 -1.996113230 -3.153788606 Z" fill="none" stroke="#222" stroke-width="0.01" />
<path d="M -1.689118890 -2.334687311 -1.605787326 -2.020552228 -1.556187279 -2.058579657 -1.513197667 -1.776519126 -1.433837592 -1.837363012 -1.480128065 -1.486853109 -1.261887858 -1.654173796 -1.140200086 -1.495453646 -1.021159973 -1.586719475 -1.142847745 -1.745439625 -0.924607539 -1.912760312 -1.275117442 -1.959050784 -1.195757367 -2.019894670 -1.456987185 -2.134634515 -1.407387138 -2.172661944 Z" fill="none" stroke="#222" stroke-width="0.01" />
<rect x="-3.347347517" y="-3.953788424" width="2.466935315" height="2.466935315" fill="none" stroke="#000" stroke-width="0.01" />
</g>
<text x="960" y="1472" font-family="monospace" font-size="12">core_plus_spiral</text>
<g transform="translate(40.000 2360.000) scale(76.066230660 -76.066230660) translate(5.775425742 4.725328982)">
<path d="M -4.048291308 -1.754493715 -3.923291308 -2.054493715 -3.985791308 -2.054493715 -3.848291308 -2.304493715 -3.948291308 -2.304493715 -3.698291308 -2.554493715 -3.973291308 -2.554493715 -3.973291308 -2.754493715 -4.123291308 -2.754493715 -4.123291308 -2.554493715 -4.398291308 -2.554493715 -4.148291308 -2.304493715 -4.248291308 -2.304493715 -4.110791308 -2.054493715 -4.173291308 -2.054493715 Z" fill="none" stroke="#222" stroke-width="0.01" />
<path d="M -5.092505107 -1.783697692 -4.792505107 -1.658697692 -4.792505107 -1.721197692 -4.542505107 -1.583697692 -4.542505107 -1.683697692 -4.292505107 -1.433697692 -4.292505107 -1.708697692 -4.092505107 -1.708697692 -4.092505107 -1.858697692 -4.292505107 -1.858697692 -4.292505107 -2.133697692 -4.542505107 -1.883697692 -4.542505107 -1.983697692 -4.792505107 -1.846197692 -4.792505107 -1.908697692 Z" fill="none" stroke="#222" stroke-width="0.01" />
<path d="M -3.923147035 -0.873573830 -3.798147035 -1.173573830 -3.860647035 -1.173573830 -3.723147035 -1.423573830 -3.823147035 -1.423573830 -3.573147035 -1.673573830 -3.848147035 -1.673573830 -3.848147035 -1.873573830 -3.998147035 -1.873573830 -3.998147035 -1.673573830 -4.273147035 -1.673573830 -4.023147035 -1.423573830 -4.123147035 -1.423573830 -3.985647035 -1.173573830 -4.048147035 -1.173573830 Z" fill="none" stroke="#222" stroke-width="0.01" />
<path d="M -5.265322015 -3.010880782 -4.965322015 -2.885880782 -4.965322015 -2.948380782 -4.715322015 -2.810880782 -4.715322015 -2.910880782 -4.465322015 -2.660880782 -4.465322015 -2.935880782 -4.265322015 -2.935880782 -4.265322015 -3.085880782 -4.465322015 -3.085880782 -4.465322015 -3.360880782 -4.715322015 -3.110880782 -4.715322015 -3.210880782 -4.965322015 -3.073380782 -4.965322015 -3.135880782 Z" fill="none" stroke="#222" stroke-width="0.01" />
<path d="M -3.918024263 -2.622690158 -3.793024263 -2.922690158 -3.855524263 -2.922690158 -3.718024263 -3.172690158 -3.818024263 -3.172690158 -3.568024263 -3.422690158 -3.843024263 -3.422690158 -3.843024263 -3.622690158 -3.993024263 -3.622690158 -3.993024263 -3.422690158 -4.268024263 -3.422690158 -4.018024263 -3.172690158 -4.118024263 -3.172690158 -3.980524263 -2.922690158 -4.043024263 -2.922690158 Z" fill="none" stroke="#222" stroke-width="0.01" />
<path d="M -3.943319027 -1.913491310 -3.643319027 -1.788491310 -3.643319027 -1.850991310 -3.393319027 -1.713491310 -3.393319027 -1.813491310 -3.143319027 -1.563491310 -3.143319027 -1.838491310 -2.943319027 -1.838491310 -2.943319027 -1.988491310 -3.143319027 -1.988491310 -3.143319027 -2.263491310 -3.393319027 -2.013491310 -3.393319027 -2.113491310 -3.643319027 -1.975991310 -3.643319027 -2.038491310 Z" fill="none" stroke="#222" stroke-width="0.01" />
<path d="M -3.462205158 -2.076656011 -3.337205158 -2.376656011 -3.399705158 -2.376656011 -3.262205158 -2.626656011 -3.362205158 -2.626656011 -3.112205158 -2.876656011 -3.387205158 -2.876656011 -3.387205158 -3.076656011 -3.537205158 -3.076656011 -3.537205158 -2.876656011 -3.812205158 -2.876656011 -3.562205158 -2.626656011 -3.662205158 -2.626656011 -3.524705158 -2.376656011 -3.587205158 -2.376656011 Z" fill="none" stroke="#222" stroke-width="0.01" />
<path d="M -5.248461609 -2.327741190 -4.948461609 -2.202741190 -4.948461609 -2.265241190 -4.698461609 -2.127741190 -4.698461609 -2.227741190 -4.448461609 -1.977741190 -4.448461609 -2.252741190 -4.248461609 -2.252741190 -4.248461609 -2.402741190 -4.448461609 -2.402741190 -4.448461609 -2.677741190 -4.698461609 -2.427741190 -4.698461609 -2.527741190 -4.948461609 -2.390241190 -4.948461609 -2.452741190 Z" fill="none" stroke="#222" stroke-width="0.01" />
<rect x="-5.478878685" y="-3.622690158" width="2.749116328" height="2.749116328" fill="none" stroke="#000" stroke-width="0.01" />
</g>
<text x="40" y="1932" font-family="monospace" font-size="12">random_box</text>
</svg>
