<svg xmlns="http://www.w3.org/2000/svg" width="1420" height="2400" viewBox="0 0 1420 2400">
<rect x="0" y="0" width="1420" height="2400" fill="white" />
<text x="40" y="30" font-family="monospace" font-size="16">After compactification (corner shove) (n=3)</text>
<g transform="translate(40.000 520.000) scale(95.124822273 -95.124822273) translate(3.587490001 3.860398877)">
<path d="M -1.008239479 -0.182653789 -0.883239479 -0.482653789 -0.945739479 -0.482653789 -0.808239479 -0.732653789 -0.908239479 -0.732653789 -0.658239479 -0.982653789 -0.933239479 -0.982653789 -0.933239479 -1.182653789 -1.083239479 -1.182653789 -1.083239479 -0.982653789 -1.358239479 -0.982653789 -1.108239479 -0.732653789 -1.208239479 -0.732653789 -1.070739479 -0.482653789 -1.133239479 -0.482653789 Z" fill="none" stroke="#222" stroke-width="0.01" />
<path d="M -2.008239479 -0.182653789 -1.883239479 -0.482653789 -1.945739479 -0.482653789 -1.808239479 -0.732653789 -1.908239479 -0.732653789 -1.658239479 -0.982653789 -1.933239479 -0.982653789 -1.933239479 -1.182653789 -2.083239479 -1.182653789 -2.083239479 -0.982653789 -2.358239479 -0.982653789 -2.108239479 -0.732653789 -2.208239479 -0.732653789 -2.070739479 -0.482653789 -2.133239479 -0.482653789 Z" fill="none" stroke="#222" stroke-width="0.01" />
<path d="M -1.508239479 0.017346211 -1.383239479 -0.282653789 -1.445739479 -0.282653789 -1.308239479 -0.532653789 -1.408239479 -0.532653789 -1.158239479 -0.782653789 -1.433239479 -0.782653789 -1.433239479 -0.982653789 -1.583239479 -0.982653789 -1.583239479 -0.782653789 -1.858239479 -0.782653789 -1.608239479 -0.532653789 -1.708239479 -0.532653789 -1.570739479 -0.282653789 -1.633239479 -0.282653789 Z" fill="none" stroke="#222" stroke-width="0.01" />
<rect x="-2.358239479" y="-1.432653789" width="1.699999999" height="1.699999999" fill="none" stroke="#000" stroke-width="0.01" />
</g>
<text x="40" y="92" font-family="monospace" font-size="12">centered</text>
<g transform="translate(500.000 520.000) scale(95.124822273 -95.124822273) translate(3.587490001 3.860398877)">
<path d="M -1.952529311 -0.681171536 -1.827529311 -0.981171536 -1.890029311 -0.981171536 -1.752529311 -1.231171536 -1.852529311 -1.231171536 -1.602529311 -1.481171536 -1.877529311 -1.481171536 -1.877529311 -1.681171536 -2.027529311 -1.681171536 -2.027529311 -1.481171536 -2.302529311 -1.481171536 -2.052529311 -1.231171536 -2.152529311 -1.231171536 -2.015029311 -0.981171536 -2.077529311 -0.981171536 Z" fill="none" stroke="#222" stroke-width="0.01" />
<path d="M -1.375169152 -0.512309804 -1.250169152 -0.812309804 -1.312669152 -0.812309804 -1.175169152 -1.062309804 -1.275169152 -1.062309804 -1.025169152 -1.312309804 -1.300169152 -1.312309804 -1.300169152 -1.512309804 -1.450169152 -1.512309804 -1.450169152 -1.312309804 -1.725169152 -1.312309804 -1.475169152 -1.062309804 -1.575169152 -1.062309804 -1.437669152 -0.812309804 -1.500169152 -0.812309804 Z" fill="none" stroke="#222" stroke-width="0.01" />
<path d="M -1.794605885 0.121042036 -1.669605885 -0.178957964 -1.732105885 -0.178957964 -1.594605885 -0.428957964 -1.694605885 -0.428957964 -1.444605885 -0.678957964 -1.719605885 -0.678957964 -1.719605885 -0.878957964 -1.869605885 -0.878957964 -1.869605885 -0.678957964 -2.144605885 -0.678957964 -1.894605885 -0.428957964 -1.994605885 -0.428957964 -1.857105885 -0.178957964 -1.919605885 -0.178957964 Z" fill="none" stroke="#222" stroke-width="0.01" />
<rect x="-2.564956017" y="-1.681171536" width="1.802213572" height="1.802213572" fill="none" stroke="#000" stroke-width="0.01" />
</g>
<text x="500" y="92" font-family="monospace" font-size="12">grid</text>
<g transform="translate(960.000 520.000) scale(95.124822273 -95.124822273) translate(3.587490001 3.860398877)">
<path d="M -2.048383597 -1.562169162 -1.923383597 -1.862169162 -1.985883597 -1.862169162 -1.848383597 -2.112169162 -1.948383597 -2.112169162 -1.698383597 -2.362169162 -1.973383597 -2.362169162 -1.973383597 -2.562169162 -2.123383597 -2.562169162 -2.123383597 -2.362169162 -2.398383597 -2.362169162 -2.148383597 -2.112169162 -2.248383597 -2.112169162 -2.110883597 -1.862169162 -2.173383597 -1.862169162 Z" fill="none" stroke="#222" stroke-width="0.01" />
<path d="M -1.420136506 -3.090416253 -1.545136506 -2.790416253 -1.482636506 -2.790416253 -1.620136506 -2.540416253 -1.520136506 -2.540416253 -1.770136506 -2.290416253 -1.495136506 -2.290416253 -1.495136506 -2.090416253 -1.345136506 -2.090416253 -1.345136506 -2.290416253 -1.070136506 -2.290416253 -1.320136506 -2.540416253 -1.220136506 -2.540416253 -1.357636506 -2.790416253 -1.295136506 -2.790416253 Z" fill="none" stroke="#222" stroke-width="0.01" />
<path d="M -1.739090438 -2.284762783 -1.864090438 -1.984762783 -1.801590438 -1.984762783 -1.939090438 -1.734762783 -1.839090438 -1.734762783 -2.089090438 -1.484762783 -1.814090438 -1.484762783 -1.814090438 -1.284762783 -1.664090438 -1.284762783 -1.664090438 -1.484762783 -1.389090438 -1.484762783 -1.639090438 -1.734762783 -1.539090438 -1.734762783 -1.676590438 -1.984762783 -1.614090438 -1.984762783 Z" fill="none" stroke="#222" stroke-width="0.01" />
<rect x="-2.637086787" y="-3.090416253" width="1.805653470" height="1.805653470" fill="none" stroke="#000" stroke-width="0.01" />
</g>
<text x="960" y="92" font-family="monospace" font-size="12">grid_alt180</text>
<g transform="translate(40.000 980.000) scale(95.124822273 -95.124822273) translate(3.587490001 3.860398877)">
<path d="M -1.419845415 -0.870379081 -1.543589102 -1.170899463 -1.587783276 -1.126705289 -1.667332789 -1.400709167 -1.738043467 -1.329998489 -1.738043467 -1.683551879 -1.932497832 -1.489097514 -2.073919188 -1.630518871 -2.179985205 -1.524452854 -2.038563849 -1.383031497 -2.233018214 -1.188577132 -1.879464823 -1.188577132 -1.950175501 -1.117866454 -1.676171624 -1.038316941 -1.720365797 -0.994122768 Z" fill="none" stroke="#222" stroke-width="0.01" />
<path d="M -1.446197835 -0.956948658 -1.145677453 -1.080692345 -1.189871627 -1.124886519 -0.915867749 -1.204436032 -0.986578428 -1.275146710 -0.633025037 -1.275146710 -0.827479402 -1.469601075 -0.686058046 -1.611022431 -0.792124063 -1.717088448 -0.933545419 -1.575667092 -1.127999784 -1.770121457 -1.127999784 -1.416568066 -1.198710462 -1.487278744 -1.278259975 -1.213274866 -1.322454149 -1.257469040 Z" fill="none" stroke="#222" stroke-width="0.01" />
<path d="M -2.318643750 -0.207145770 -2.018123368 -0.330889456 -2.062317542 -0.375083630 -1.788313665 -0.454633143 -1.859024343 -0.525343821 -1.505470952 -0.525343821 -1.699925317 -0.719798186 -1.558503961 -0.861219542 -1.664569978 -0.967285559 -1.805991334 -0.825864203 -2.000445699 -1.020318568 -2.000445699 -0.666765177 -2.071156377 -0.737475856 -2.150705890 -0.463471978 -2.194900064 -0.507666152 Z" fill="none" stroke="#222" stroke-width="0.01" />
<rect x="-2.318643750" y="-1.831442970" width="1.685618713" height="1.685618713" fill="none" stroke="#000" stroke-width="0.01" />
</g>
<text x="40" y="552" font-family="monospace" font-size="12">grid_alt45</text>
<g transform="translate(500.000 980.000) scale(95.124822273 -95.124822273) translate(3.587490001 3.860398877)">
<path d="M -2.081507836 -1.329159095 -1.780987454 -1.452902782 -1.825181628 -1.497096956 -1.551177750 -1.576646469 -1.621888429 -1.647357147 -1.268335038 -1.647357147 -1.462789403 -1.841811511 -1.321368047 -1.983232868 -1.427434064 -2.089298885 -1.568855420 -1.947877529 -1.763309785 -2.142331893 -1.763309785 -1.788778503 -1.834020463 -1.859489181 -1.913569976 -1.585485303 -1.957764150 -1.629679477 Z" fill="none" stroke="#222" stroke-width="0.01" />
<path d="M -0.570944664 -2.518745381 -0.871465046 -2.395001694 -0.827270872 -2.350807520 -1.101274749 -2.271258008 -1.030564071 -2.200547329 -1.384117462 -2.200547329 -1.189663097 -2.006092965 -1.331084453 -1.864671608 -1.225018436 -1.758605591 -1.083597080 -1.900026947 -0.889142715 -1.705572583 -0.889142715 -2.059125973 -0.818432037 -1.988415295 -0.738882524 -2.262419173 -0.694688350 -2.218224999 Z" fill="none" stroke="#222" stroke-width="0.01" />
<path d="M -1.005516428 -1.815754114 -1.306036810 -1.692010428 -1.261842636 -1.647816254 -1.535846514 -1.568266741 -1.465135836 -1.497556063 -1.818689226 -1.497556063 -1.624234861 -1.303101698 -1.765656218 -1.161680342 -1.659590201 -1.055614325 -1.518168844 -1.197035681 -1.323714479 -1.002581316 -1.323714479 -1.356134707 -1.253003801 -1.285424028 -1.173454288 -1.559427906 -1.129260115 -1.515233732 Z" fill="none" stroke="#222" stroke-width="0.01" />
<rect x="-2.084308282" y="-2.518745381" width="1.516164065" height="1.516164065" fill="none" stroke="#000" stroke-width="0.01" />
</g>
<text x="500" y="552" font-family="monospace" font-size="12">alternating</text>
<g transform="translate(960.000 980.000) scale(95.124822273 -95.124822273) translate(3.587490001 3.860398877)">
<path d="M -1.963127143 -1.607441987 -1.838127143 -1.907441987 -1.900627143 -1.907441987 -1.763127143 -2.157441987 -1.863127143 -2.157441987 -1.613127143 -2.407441987 -1.888127143 -2.407441987 -1.888127143 -2.607441987 -2.038127143 -2.607441987 -2.038127143 -2.407441987 -2.313127143 -2.407441987 -2.063127143 -2.157441987 -2.163127143 -2.157441987 -2.025627143 -1.907441987 -2.088127143 -1.907441987 Z" fill="none" stroke="#222" stroke-width="0.01" />
<path d="M -1.702383086 -3.426588439 -1.827383086 -3.126588439 -1.764883086 -3.126588439 -1.902383086 -2.876588439 -1.802383086 -2.876588439 -2.052383086 -2.626588439 -1.777383086 -2.626588439 -1.777383086 -2.426588439 -1.627383086 -2.426588439 -1.627383086 -2.626588439 -1.352383086 -2.626588439 -1.602383086 -2.876588439 -1.502383086 -2.876588439 -1.639883086 -3.126588439 -1.577383086 -3.126588439 Z" fill="none" stroke="#222" stroke-width="0.01" />
<path d="M -1.522538793 -2.623072437 -1.647538793 -2.323072437 -1.585038793 -2.323072437 -1.722538793 -2.073072437 -1.622538793 -2.073072437 -1.872538793 -1.823072437 -1.597538793 -1.823072437 -1.597538793 -1.623072437 -1.447538793 -1.623072437 -1.447538793 -1.823072437 -1.172538793 -1.823072437 -1.422538793 -2.073072437 -1.322538793 -2.073072437 -1.460038793 -2.323072437 -1.397538793 -2.323072437 Z" fill="none" stroke="#222" stroke-width="0.01" />
<rect x="-2.652406193" y="-3.426588439" width="1.819146451" height="1.819146451" fill="none" stroke="#000" stroke-width="0.01" />
</g>
<text x="960" y="552" font-family="monospace" font-size="12">sheared_brick</text>
<g transform="translate(40.000 1440.000) scale(95.124822273 -95.124822273) translate(3.587490001 3.860398877)">
<path d="M -2.338390738 -1.150666402 -2.037870356 -1.274410088 -2.082064530 -1.318604262 -1.808060653 -1.398153775 -1.878771331 -1.468864453 -1.525217940 -1.468864453 -1.719672305 -1.663318818 -1.578250949 -1.804740174 -1.684316966 -1.910806191 -1.825738322 -1.769384835 -2.020192687 -1.963839200 -2.020192687 -1.610285809 -2.090903365 -1.680996487 -2.170452878 -1.406992610 -2.214647052 -1.451186784 Z" fill="none" stroke="#222" stroke-width="0.01" />
<path d="M -0.968599116 -1.787062505 -1.269119498 -1.663318818 -1.224925324 -1.619124644 -1.498929202 -1.539575131 -1.428218524 -1.468864453 -1.781771914 -1.468864453 -1.587317549 -1.274410088 -1.728738906 -1.132988732 -1.622672888 -1.026922715 -1.481251532 -1.168344071 -1.286797167 -0.973889706 -1.286797167 -1.327443097 -1.216086489 -1.256732419 -1.136536976 -1.530736296 -1.092342802 -1.486542123 Z" fill="none" stroke="#222" stroke-width="0.01" />
<path d="M -0.868798845 -2.512098450 -1.169319227 -2.388354763 -1.125125053 -2.344160590 -1.399128931 -2.264611077 -1.328418253 -2.193900399 -1.681971644 -2.193900399 -1.487517279 -1.999446034 -1.628938635 -1.858024678 -1.522872618 -1.751958660 -1.381451262 -1.893380017 -1.186996897 -1.698925652 -1.186996897 -2.052479042 -1.116286219 -1.981768364 -1.036736706 -2.255772242 -0.992542532 -2.211578068 Z" fill="none" stroke="#222" stroke-width="0.01" />
<rect x="-2.372699164" y="-2.512098450" width="1.538208744" height="1.538208744" fill="none" stroke="#000" stroke-width="0.01" />
</g>
<text x="40" y="1012" font-family="monospace" font-size="12">diamond_lattice</text>
<g transform="translate(500.000 1440.000) scale(95.124822273 -95.124822273) translate(3.587490001 3.860398877)">
<path d="M -1.735856187 -0.830784583 -1.610856187 -1.130784583 -1.673356187 -1.130784583 -1.535856187 -1.380784583 -1.635856187 -1.380784583 -1.385856187 -1.630784583 -1.660856187 -1.630784583 -1.660856187 -1.830784583 -1.810856187 -1.830784583 -1.810856187 -1.630784583 -2.085856187 -1.630784583 -1.835856187 -1.380784583 -1.935856187 -1.380784583 -1.798356187 -1.130784583 -1.860856187 -1.130784583 Z" fill="none" stroke="#222" stroke-width="0.01" />
<path d="M -1.182261565 -0.530215287 -1.057261565 -0.830215287 -1.119761565 -0.830215287 -0.982261565 -1.080215287 -1.082261565 -1.080215287 -0.832261565 -1.330215287 -1.107261565 -1.330215287 -1.107261565 -1.530215287 -1.257261565 -1.530215287 -1.257261565 -1.330215287 -1.532261565 -1.330215287 -1.282261565 -1.080215287 -1.382261565 -1.080215287 -1.244761565 -0.830215287 -1.307261565 -0.830215287 Z" fill="none" stroke="#222" stroke-width="0.01" />
<path d="M -2.257256837 -0.633667733 -1.957256837 -0.508667733 -1.957256837 -0.571167733 -1.707256837 -0.433667733 -1.707256837 -0.533667733 -1.457256837 -0.283667733 -1.457256837 -0.558667733 -1.257256837 -0.558667733 -1.257256837 -0.708667733 -1.457256837 -0.708667733 -1.457256837 -0.983667733 -1.707256837 -0.733667733 -1.707256837 -0.833667733 -1.957256837 -0.696167733 -1.957256837 -0.758667733 Z" fill="none" stroke="#222" stroke-width="0.01" />
<rect x="-2.318317626" y="-1.830784583" width="1.547116850" height="1.547116850" fill="none" stroke="#000" stroke-width="0.01" />
</g>
<text x="500" y="1012" font-family="monospace" font-size="12">herringbone</text>
<g transform="translate(960.000 1440.000) scale(95.124822273 -95.124822273) translate(3.587490001 3.860398877)">
<path d="M -1.442408859 -0.669827985 -1.317408859 -0.969827985 -1.379908859 -0.969827985 -1.242408859 -1.219827985 -1.342408859 -1.219827985 -1.092408859 -1.469827985 -1.367408859 -1.469827985 -1.367408859 -1.669827985 -1.517408859 -1.669827985 -1.517408859 -1.469827985 -1.792408859 -1.469827985 -1.542408859 -1.219827985 -1.642408859 -1.219827985 -1.504908859 -0.969827985 -1.567408859 -0.969827985 Z" fill="none" stroke="#222" stroke-width="0.01" />
<path d="M -2.549713454 -1.758206127 -2.352405833 -1.499952951 -2.321155833 -1.554079539 -2.173399482 -1.310001046 -2.123399482 -1.396603586 -2.031893131 -1.055097235 -1.894393131 -1.293254221 -1.721188050 -1.193254221 -1.646188050 -1.323158032 -1.819393131 -1.423158032 -1.681893131 -1.661315018 -2.023399482 -1.569808667 -1.973399482 -1.656411207 -2.258655833 -1.662332714 -2.227405833 -1.716459302 Z" fill="none" stroke="#222" stroke-width="0.01" />
<path d="M -1.053498104 -2.172971085 -1.375805725 -2.131224260 -1.344555725 -2.077097672 -1.629812076 -2.071176165 -1.579812076 -1.984573625 -1.921318427 -2.076079976 -1.783818427 -1.837922990 -1.957023507 -1.737922990 -1.882023507 -1.608019179 -1.708818427 -1.708019179 -1.571318427 -1.469862193 -1.479812076 -1.811368544 -1.429812076 -1.724766004 -1.282055725 -1.968844497 -1.250805725 -1.914717909 Z" fill="none" stroke="#222" stroke-width="0.01" />
<rect x="-2.553177328" y="-2.172971085" width="1.503143100" height="1.503143100" fill="none" stroke="#000" stroke-width="0.01" />
</g>
<text x="960" y="1012" font-family="monospace" font-size="12">circle_ring</text>
<g transform="translate(40.000 1900.000) scale(95.124822273 -95.124822273) translate(3.587490001 3.860398877)">
<path d="M -2.007237878 -0.710216590 -1.882237878 -1.010216590 -1.944737878 -1.010216590 -1.807237878 -1.260216590 -1.907237878 -1.260216590 -1.657237878 -1.510216590 -1.932237878 -1.510216590 -1.932237878 -1.710216590 -2.082237878 -1.710216590 -2.082237878 -1.510216590 -2.357237878 -1.510216590 -2.107237878 -1.260216590 -2.207237878 -1.260216590 -2.069737878 -1.010216590 -2.132237878 -1.010216590 Z" fill="none" stroke="#222" stroke-width="0.01" />
<path d="M -2.181582456 -0.453441015 -1.873700442 -0.557525908 -1.914949388 -0.604480934 -1.636381604 -0.666175664 -1.702379919 -0.741303705 -1.349564031 -0.718479390 -1.531059396 -0.925081502 -1.380803315 -1.057078131 -1.479800787 -1.169770192 -1.630056868 -1.037773562 -1.811552233 -1.244375674 -1.834376548 -0.891559786 -1.900374863 -0.966687827 -1.997447281 -0.698390984 -2.038696228 -0.745346010 Z" fill="none" stroke="#222" stroke-width="0.01" />
<path d="M -3.122052113 -1.155775165 -2.840658232 -0.993163715 -2.832605451 -1.055142766 -2.602405366 -0.886577731 -2.589520917 -0.985744212 -2.373815838 -0.705616885 -2.338383602 -0.978324708 -2.140050640 -0.952555809 -2.120723965 -1.101305531 -2.319056928 -1.127074430 -2.283624692 -1.399782253 -2.563752018 -1.184077174 -2.550867568 -1.283243655 -2.816499889 -1.179100867 -2.808447108 -1.241079918 Z" fill="none" stroke="#222" stroke-width="0.01" />
<rect x="-3.122052113" y="-1.968072844" width="1.772488082" height="1.772488082" fill="none" stroke="#000" stroke-width="0.01" />
</g>
<text x="40" y="1472" font-family="monospace" font-size="12">spiral</text>
<g transform="translate(500.000 1900.000) scale(95.124822273 -95.124822273) translate(3.587490001 3.860398877)">
<path d="M -2.902578859 -1.522762042 -2.602578859 -1.397762042 -2.602578859 -1.460262042 -2.352578859 -1.322762042 -2.352578859 -1.422762042 -2.102578859 -1.172762042 -2.102578859 -1.447762042 -1.902578859 -1.447762042 -1.902578859 -1.597762042 -2.102578859 -1.597762042 -2.102578859 -1.872762042 -2.352578859 -1.622762042 -2.352578859 -1.722762042 -2.602578859 -1.585262042 -2.602578859 -1.647762042 Z" fill="none" stroke="#222" stroke-width="0.01" />
<path d="M -1.228458712 -1.513308680 -1.534105662 -1.402832701 -1.491887519 -1.356747146 -1.769109654 -1.289262794 -1.701560625 -1.215525906 -2.054775418 -1.230995552 -1.869015587 -1.028219110 -2.016489362 -0.893121051 -1.915165818 -0.782515720 -1.767692043 -0.917613779 -1.581932212 -0.714837337 -1.566462566 -1.068052130 -1.498913536 -0.994315242 -1.407451232 -1.264576037 -1.365233089 -1.218490482 Z" fill="none" stroke="#222" stroke-width="0.01" />
<path d="M -1.804285197 -1.224558981 -1.653536099 -1.512482077 -1.715796789 -1.517946185 -1.556966840 -1.754967908 -1.656583944 -1.763710481 -1.385684753 -1.990896810 -1.659631789 -2.014938884 -1.642146644 -2.214173092 -1.791572300 -2.227286951 -1.809057445 -2.028052743 -2.083004481 -2.052094817 -1.855818152 -1.781195626 -1.955435256 -1.789938198 -1.840318169 -1.528874401 -1.902578859 -1.534338509 Z" fill="none" stroke="#222" stroke-width="0.01" />
<rect x="-2.902578859" y="-2.308122218" width="1.674120147" height="1.674120147" fill="none" stroke="#000" stroke-width="0.01" />
</g>
<text x="500" y="1472" font-family="monospace" font-size="12">sunflower</text>
<g transform="translate(960.000 1900.000) scale(95.124822273 -95.124822273) translate(3.587490001 3.860398877)">
<path d="M -1.944955044 -0.910074301 -1.819955044 -1.210074301 -1.882455044 -1.210074301 -1.744955044 -1.460074301 -1.844955044 -1.460074301 -1.594955044 -1.710074301 -1.869955044 -1.710074301 -1.869955044 -1.910074301 -2.019955044 -1.910074301 -2.019955044 -1.710074301 -2.294955044 -1.710074301 -2.044955044 -1.460074301 -2.144955044 -1.460074301 -2.007455044 -1.210074301 -2.069955044 -1.210074301 Z" fill="none" stroke="#222" stroke-width="0.01" />
<path d="M -1.865282793 -1.822710863 -1.565282793 -1.697710863 -1.565282793 -1.760210863 -1.315282793 -1.622710863 -1.315282793 -1.722710863 -1.065282793 -1.472710863 -1.065282793 -1.747710863 -0.865282793 -1.747710863 -0.865282793 -1.897710863 -1.065282793 -1.897710863 -1.065282793 -2.172710863 -1.315282793 -1.922710863 -1.315282793 -2.022710863 -1.565282793 -1.885210863 -1.565282793 -1.947710863 Z" fill="none" stroke="#222" stroke-width="0.01" />
<path d="M -2.118793398 -1.523816920 -2.424440348 -1.413340942 -2.382222205 -1.367255387 -2.659444340 -1.299771034 -2.591895310 -1.226034146 -2.945110103 -1.241503792 -2.759350272 -1.038727351 -2.906824048 -0.903629292 -2.805500504 -0.793023960 -2.658026728 -0.928122019 -2.472266897 -0.725345577 -2.456797251 -1.078560371 -2.389248222 -1.004823483 -2.297785918 -1.275084277 -2.255567774 -1.228998722 Z" fill="none" stroke="#222" stroke-width="0.01" />
<rect x="-2.945110103" y="-2.488941875" width="2.079827310" height="2.079827310" fill="none" stroke="#000" stroke-width="0.01" />
</g>
<text x="960" y="1472" font-family="monospace" font-size="12">core_plus_spiral</text>
<g transform="translate(40.000 2360.000) scale(95.124822273 -95.124822273) translate(3.587490001 3.860398877)">
<path d="M -2.003679563 -0.098423509 -1.878679563 -0.398423509 -1.941179563 -0.398423509 -1.803679563 -0.648423509 -1.903679563 -0.648423509 -1.653679563 -0.898423509 -1.928679563 -0.898423509 -1.928679563 -1.098423509 -2.078679563 -1.098423509 -2.078679563 -0.898423509 -2.353679563 -0.898423509 -2.103679563 -0.648423509 -2.203679563 -0.648423509 -2.066179563 -0.398423509 -2.128679563 -0.398423509 Z" fill="none" stroke="#222" stroke-width="0.01" />
<path d="M -3.153679563 -1.148777397 -2.853679563 -1.023777397 -2.853679563 -1.086277397 -2.603679563 -0.948777397 -2.603679563 -1.048777397 -2.353679563 -0.798777397 -2.353679563 -1.073777397 -2.153679563 -1.073777397 -2.153679563 -1.223777397 -2.353679563 -1.223777397 -2.353679563 -1.498777397 -2.603679563 -1.248777397 -2.603679563 -1.348777397 -2.853679563 -1.211277397 -2.853679563 -1.273777397 Z" fill="none" stroke="#222" stroke-width="0.01" />
<path d="M -1.844695521 -0.914907692 -1.719695521 -1.214907692 -1.782195521 -1.214907692 -1.644695521 -1.464907692 -1.744695521 -1.464907692 -1.494695521 -1.714907692 -1.769695521 -1.714907692 -1.769695521 -1.914907692 -1.919695521 -1.914907692 -1.919695521 -1.714907692 -2.194695521 -1.714907692 -1.944695521 -1.464907692 -2.044695521 -1.464907692 -1.907195521 -1.214907692 -1.969695521 -1.214907692 Z" fill="none" stroke="#222" stroke-width="0.01" />
<rect x="-3.232429634" y="-1.914907692" width="1.816484183" height="1.816484183" fill="none" stroke="#000" stroke-width="0.01" />
</g>
<text x="40" y="1932" font-family="monospace" font-size="12">random_box</text>
</svg>
