<?xml version="1.0" encoding="UTF-8"?>
<svg xmlns="http://www.w3.org/2000/svg" width="1100" height="1100" viewBox="0 0 1100 1100">
  <rect x="0" y="0" width="1100" height="1100" fill="white"/>
  <text x="10.0" y="18.0" font-family="monospace" font-size="12">L=1.74922734967 feas=0.000e+00 N=6</text>
  <rect x="40.000000" y="40.000000" width="1020.000000" height="1020.000000" fill="none" stroke="#000" stroke-width="2"/>
  <path d="M183.063666 48.442968 L278.166532 212.364703 L242.033764 217.122480 L340.556962 351.186446 L282.744532 358.798889 L446.306715 484.298855 L287.322533 505.233074 L302.547419 620.857933 L215.828774 632.276598 L200.603888 516.651738 L41.619706 537.585957 L167.119673 374.023775 L109.307243 381.636218 L169.768226 226.638034 L133.635458 231.395811 Z" fill="#888" fill-opacity="0.18" stroke="#000" stroke-width="1"/>
  <path d="M496.858004 948.921757 L498.176171 759.414098 L531.719086 773.664930 L514.928004 608.141437 L568.596668 630.942769 L491.428338 439.767776 L639.017166 502.471441 L684.619831 395.134112 L765.122828 429.336110 L719.520163 536.673439 L867.108990 599.377104 L675.933997 676.545434 L729.602662 699.346767 L598.804917 802.166596 L632.347832 816.417429 Z" fill="#888" fill-opacity="0.18" stroke="#000" stroke-width="1"/>
  <path d="M1051.700745 653.325715 L913.392550 523.765946 L946.621222 508.797018 L813.642435 408.813972 L866.808310 384.863688 L674.017913 311.824711 L820.224069 245.961430 L772.323501 139.629681 L852.072313 103.704255 L899.972881 210.036005 L1046.179036 144.172724 L973.140059 336.963120 L1026.305934 313.012837 L1013.078565 478.859163 L1046.307237 463.890236 Z" fill="#888" fill-opacity="0.18" stroke="#000" stroke-width="1"/>
  <path d="M43.092603 557.666152 L210.431584 646.618702 L182.264047 669.744516 L336.735884 731.537873 L291.667824 768.539176 L496.841228 788.706068 L372.904065 890.459649 L446.906669 980.595768 L379.304581 1036.097721 L305.301976 945.961602 L181.364813 1047.715183 L201.531706 842.541780 L156.463647 879.543082 L125.928973 715.996144 L97.761436 739.121957 Z" fill="#888" fill-opacity="0.18" stroke="#000" stroke-width="1"/>
  <path d="M484.310307 984.431363 L631.643086 865.234289 L641.904935 900.204388 L759.209266 782.222773 L775.628224 838.174932 L874.461226 657.247138 L919.613362 811.115576 L1031.517681 778.277659 L1056.146118 862.205898 L944.241800 895.043815 L989.393935 1048.912253 L808.466141 950.079251 L824.885100 1006.031410 L662.428633 970.144587 L672.690483 1005.114687 Z" fill="#888" fill-opacity="0.18" stroke="#000" stroke-width="1"/>
  <path d="M847.787308 48.291429 L717.702430 186.105851 L702.859994 152.820487 L602.371894 285.418033 L578.623997 232.161450 L504.852282 424.672653 L439.545564 278.217048 L333.032397 325.712844 L297.410550 245.827969 L403.923717 198.332173 L338.616998 51.876569 L531.128201 125.648283 L507.380303 72.391700 L673.175121 86.249757 L658.332685 52.964393 Z" fill="#888" fill-opacity="0.18" stroke="#000" stroke-width="1"/>
</svg>
