<?xml version="1.0" encoding="UTF-8"?>
<svg xmlns="http://www.w3.org/2000/svg" width="1100" height="1100" viewBox="0 0 1100 1100">
  <rect x="0" y="0" width="1100" height="1100" fill="white"/>
  <text x="10.0" y="18.0" font-family="monospace" font-size="12">L=0.975969818319 feas=0.000e+00 N=2</text>
  <rect x="40.000000" y="40.000000" width="1020.000000" height="1020.000000" fill="none" stroke="#000" stroke-width="2"/>
  <path d="M40.084883 1027.928392 L52.677950 688.499775 L112.000111 715.840898 L90.855848 418.401785 L185.771306 462.147581 L57.847154 115.494448 L318.864661 235.795388 L406.356254 45.964473 L548.729439 111.583168 L461.237847 301.414082 L722.255354 421.715022 L375.602220 549.639174 L470.517677 593.384971 L230.644433 770.523143 L289.966593 797.864266 Z" fill="#888" fill-opacity="0.18" stroke="#000" stroke-width="1"/>
  <path d="M1046.167487 76.885019 L1030.728349 416.196092 L971.637562 388.358444 L990.286700 685.964417 L895.741441 641.424180 L1020.753995 989.137921 L760.754533 866.652268 L671.674059 1055.742786 L529.856171 988.932430 L618.936645 799.841913 L358.937183 677.356260 L706.650923 552.343706 L612.105664 507.803469 L853.455988 332.683148 L794.365201 304.845499 Z" fill="#888" fill-opacity="0.18" stroke="#000" stroke-width="1"/>
</svg>
