<?xml version="1.0" encoding="UTF-8"?>
<svg xmlns="http://www.w3.org/2000/svg" width="1100" height="1100" viewBox="0 0 1100 1100">
  <rect x="0" y="0" width="1100" height="1100" fill="white"/>
  <text x="10.0" y="18.0" font-family="monospace" font-size="12">L=2.28306684314 feas=0.000e+00 N=10</text>
  <rect x="40.000000" y="40.000000" width="1020.000000" height="1020.000000" fill="none" stroke="#000" stroke-width="2"/>
  <path d="M493.858875 956.340439 L351.246756 983.628848 L356.950893 956.294714 L235.065253 993.613260 L244.191873 949.878645 L112.038786 1036.398633 L137.136991 916.128441 L49.667761 897.875202 L63.357691 832.273279 L150.826921 850.526519 L175.925125 730.256328 L262.445113 862.409415 L271.571733 818.674800 L368.359168 901.626445 L374.063305 874.292311 Z" fill="#888" fill-opacity="0.18" stroke="#000" stroke-width="1"/>
  <path d="M329.801804 821.787820 L473.277653 799.481887 L466.625167 826.600819 L589.736367 793.549110 L579.092389 836.939403 L714.178064 755.073615 L684.907126 874.396919 L771.687711 895.684874 L755.721745 960.770312 L668.941160 939.482358 L639.670223 1058.805662 L557.804435 923.719988 L547.160458 967.110280 L453.320195 880.838685 L446.667709 907.957618 Z" fill="#888" fill-opacity="0.18" stroke="#000" stroke-width="1"/>
  <path d="M592.322270 91.513380 L736.979800 78.980502 L728.505050 105.586342 L853.572858 80.952496 L840.013257 123.521839 L980.335616 50.997482 L943.046715 168.063176 L1028.185401 195.182376 L1007.846001 259.036391 L922.707314 231.917190 L885.418413 348.982884 L812.894057 208.660525 L799.334456 251.229868 L711.555549 158.798020 L703.080799 185.403860 Z" fill="#888" fill-opacity="0.18" stroke="#000" stroke-width="1"/>
  <path d="M123.769633 40.065844 L233.659596 134.971429 L208.684495 147.458879 L313.579518 219.886893 L273.619356 239.866813 L423.469561 289.817417 L313.579116 344.762197 L353.538956 424.682521 L293.598714 454.652401 L253.638873 374.732078 L143.748429 429.676858 L193.699032 279.826653 L153.738871 299.806574 L158.734293 172.433779 L133.759192 184.921229 Z" fill="#888" fill-opacity="0.18" stroke="#000" stroke-width="1"/>
  <path d="M1018.822245 1057.628525 L902.353641 970.922481 L926.359788 956.660750 L816.499339 892.011970 L854.909174 869.193200 L701.837660 830.215536 L807.464708 767.463918 L761.827168 690.644247 L819.441921 656.416092 L865.079461 733.235763 L970.706509 670.484146 L931.728845 823.555660 L970.138681 800.736889 L974.372082 928.137287 L998.378230 913.875556 Z" fill="#888" fill-opacity="0.18" stroke="#000" stroke-width="1"/>
  <path d="M50.885479 347.968849 L158.797855 445.117154 L133.570909 457.087672 L236.952260 531.660317 L196.589146 550.813144 L345.378999 603.838858 L234.380438 656.509135 L272.686094 737.235361 L212.141424 765.964603 L173.835768 685.238377 L62.837206 737.908653 L115.862920 589.118800 L75.499806 608.271628 L83.117017 481.028707 L57.890072 492.999224 Z" fill="#888" fill-opacity="0.18" stroke="#000" stroke-width="1"/>
  <path d="M336.472196 386.557147 L477.860225 353.507195 L473.269386 381.050184 L593.541190 338.818963 L586.195848 382.887746 L714.731162 291.079144 L694.531471 412.268298 L782.669038 426.958983 L771.651024 493.062158 L683.513457 478.371473 L663.313766 599.560628 L571.505163 471.025313 L564.159821 515.094097 L464.087708 436.136164 L459.496869 463.679153 Z" fill="#888" fill-opacity="0.18" stroke="#000" stroke-width="1"/>
  <path d="M709.468810 684.117020 L747.036146 543.861648 L769.154900 560.904324 L788.664345 434.935421 L824.054351 462.203702 L803.750038 305.557982 L901.072556 380.545756 L955.609119 309.765743 L1008.694129 350.668165 L954.157566 421.448178 L1051.480084 496.435952 L894.834364 516.740265 L930.224371 544.008546 L813.392408 594.989676 L835.511163 612.032352 Z" fill="#888" fill-opacity="0.18" stroke="#000" stroke-width="1"/>
  <path d="M209.304037 67.741997 L354.496867 66.357795 L344.003469 92.234052 L470.593973 77.279880 L453.804536 118.681891 L599.283157 57.150456 L553.112205 171.005987 L635.916227 204.584861 L610.732071 266.687878 L527.928049 233.109003 L481.757097 346.964534 L420.225662 201.485913 L403.436224 242.887924 L323.016673 143.986566 L312.523274 169.862823 Z" fill="#888" fill-opacity="0.18" stroke="#000" stroke-width="1"/>
  <path d="M231.466383 793.544308 L332.588495 689.346457 L343.605709 715.004069 L421.998289 614.488466 L439.625831 655.540646 L498.187426 508.841341 L546.663167 621.734836 L628.767527 586.479751 L655.208840 648.058022 L573.104480 683.313106 L621.580221 796.206601 L474.880915 737.645006 L492.508457 778.697186 L365.640137 766.319294 L376.657351 791.976907 Z" fill="#888" fill-opacity="0.18" stroke="#000" stroke-width="1"/>
</svg>
