<?xml version="1.0" encoding="UTF-8"?>
<svg xmlns="http://www.w3.org/2000/svg" width="1100" height="1100" viewBox="0 0 1100 1100">
  <rect x="0" y="0" width="1100" height="1100" fill="white"/>
  <text x="10.0" y="18.0" font-family="monospace" font-size="12">L=2.04141784919 feas=0.000e+00 N=8</text>
  <rect x="40.000000" y="40.000000" width="1020.000000" height="1020.000000" fill="none" stroke="#000" stroke-width="2"/>
  <path d="M858.926896 1054.895632 L702.821804 1010.165525 L722.308294 985.763002 L581.827923 961.502592 L613.006307 922.458555 L437.450253 942.122687 L523.190810 834.751584 L445.102736 772.394816 L491.870313 713.828760 L569.958387 776.185529 L655.698944 668.814426 L675.363076 844.370480 L706.541461 805.326443 L761.281275 936.957956 L780.767765 912.555432 Z" fill="#888" fill-opacity="0.18" stroke="#000" stroke-width="1"/>
  <path d="M447.391654 484.160428 L297.154273 422.529985 L319.206820 400.419092 L182.247644 360.852865 L217.531720 325.475436 L40.877958 325.708816 L137.909168 228.420888 L67.154311 157.852735 L120.080426 104.786592 L190.835283 175.354745 L287.866493 78.066817 L288.099873 254.720579 L323.383950 219.343151 L363.311916 356.197306 L385.364464 334.086413 Z" fill="#888" fill-opacity="0.18" stroke="#000" stroke-width="1"/>
  <path d="M619.146279 573.590268 L773.951616 622.629943 L753.796250 646.482986 L893.550226 674.627759 L861.301640 712.792627 L1037.335277 698.001925 L948.651663 802.955311 L1024.981399 867.452485 L976.608518 924.699787 L900.278782 860.202613 L811.595169 965.156000 L796.804466 789.122363 L764.555879 827.287231 L713.485516 694.189071 L693.330149 718.042113 Z" fill="#888" fill-opacity="0.18" stroke="#000" stroke-width="1"/>
  <path d="M560.740967 583.967239 L414.420861 654.394569 L412.741461 623.211464 L291.703719 698.531895 L289.016679 648.638926 L171.001857 780.088947 L163.612498 642.883284 L63.826560 648.257363 L59.796001 573.417910 L159.581938 568.043831 L152.192579 430.838167 L283.642600 548.852989 L280.955560 498.960021 L409.382661 560.845253 L407.703261 529.662148 Z" fill="#888" fill-opacity="0.18" stroke="#000" stroke-width="1"/>
  <path d="M1055.041327 207.575661 L1013.632818 364.594506 L988.822409 345.630063 L967.547536 486.593470 L927.850883 456.250361 L951.234744 631.349765 L842.068948 547.906217 L781.382731 627.299523 L721.837751 581.784860 L782.523969 502.391554 L673.358173 418.948005 L848.457577 395.564144 L808.760924 365.221035 L939.201593 307.701177 L914.391185 288.736734 Z" fill="#888" fill-opacity="0.18" stroke="#000" stroke-width="1"/>
  <path d="M492.954774 558.048055 L424.879294 410.619051 L456.085291 409.439159 L382.712525 287.210932 L432.642122 285.323103 L303.098560 165.218683 L440.404950 160.027155 L436.629293 60.167962 L511.523688 57.336219 L515.299345 157.195412 L652.605735 152.003884 L532.501315 281.547446 L582.430911 279.659618 L518.497287 407.079373 L549.703285 405.899481 Z" fill="#888" fill-opacity="0.18" stroke="#000" stroke-width="1"/>
  <path d="M551.150459 469.842071 L587.783684 311.640968 L613.157162 329.845172 L630.152328 188.302010 L670.749893 217.428737 L642.072798 43.118008 L753.716101 123.216507 L811.969555 42.021377 L872.865902 85.711467 L814.612448 166.906597 L926.255752 247.005096 L751.945022 275.682191 L792.542587 304.808918 L663.904118 366.253581 L689.277596 384.457785 Z" fill="#888" fill-opacity="0.18" stroke="#000" stroke-width="1"/>
  <path d="M461.777628 639.663298 L397.728423 788.885554 L375.976633 766.478724 L334.203251 902.780913 L299.400386 866.929985 L296.780227 1043.564469 L201.072348 944.974416 L129.370491 1014.580146 L77.166193 960.803753 L148.868050 891.198023 L53.160171 792.607969 L229.794655 795.228128 L194.991790 759.377199 L332.473051 721.665063 L310.721261 699.258233 Z" fill="#888" fill-opacity="0.18" stroke="#000" stroke-width="1"/>
</svg>
