<?xml version="1.0" encoding="UTF-8"?>
<svg xmlns="http://www.w3.org/2000/svg" width="1100" height="1100" viewBox="0 0 1100 1100">
  <rect x="0" y="0" width="1100" height="1100" fill="white"/>
  <text x="10.0" y="18.0" font-family="monospace" font-size="12">L=3.06957358505 feas=0.000e+00 N=17</text>
  <rect x="40.000000" y="40.000000" width="1020.000000" height="1020.000000" fill="none" stroke="#000" stroke-width="2"/>
  <path d="M993.755506 472.340039 L926.768751 387.629986 L946.760680 382.004382 L880.276021 314.412993 L912.263108 305.412027 L809.792977 247.946724 L897.757466 223.194069 L879.755534 159.219895 L927.736165 145.718446 L945.738096 209.692620 L1033.702585 184.939965 L976.237282 287.410096 L1008.224369 278.409130 L986.744538 370.753175 L1006.736468 365.127572 Z" fill="#888" fill-opacity="0.18" stroke="#000" stroke-width="1"/>
  <path d="M699.794132 1053.069552 L776.207534 976.754347 L784.102733 995.963472 L843.569796 922.122601 L856.202114 952.857201 L901.457819 844.439905 L936.196694 928.960055 L997.665894 903.695419 L1016.614372 949.797319 L955.145172 975.061955 L989.884047 1059.582106 L881.466751 1014.326401 L894.099069 1045.061001 L799.893131 1034.381722 L807.788330 1053.590847 Z" fill="#888" fill-opacity="0.18" stroke="#000" stroke-width="1"/>
  <path d="M42.653039 1045.562247 L114.328170 964.780478 L123.366714 983.478857 L178.275432 906.188247 L192.737103 936.105654 L231.376442 825.157962 L271.146036 907.430829 L330.980849 878.507488 L352.673354 923.383597 L292.838542 952.306938 L332.608136 1034.579805 L221.660444 995.940466 L236.122114 1025.857872 L141.443802 1020.875615 L150.482346 1039.573994 Z" fill="#888" fill-opacity="0.18" stroke="#000" stroke-width="1"/>
  <path d="M71.384374 172.424432 L162.119838 230.991437 L145.012125 242.766445 L229.749126 285.292279 L202.376785 304.132291 L317.907669 325.463110 L242.633732 377.273146 L280.313758 432.017827 L239.255247 460.277846 L201.575221 405.533165 L126.301285 457.343200 L147.632104 341.812317 L120.259764 360.652330 L110.796700 266.316461 L93.688987 278.091469 Z" fill="#888" fill-opacity="0.18" stroke="#000" stroke-width="1"/>
  <path d="M697.665691 498.258199 L623.433619 419.819573 L642.848174 412.443955 L570.633685 351.012096 L601.696972 339.211108 L494.536286 291.055359 L579.960325 258.602644 L556.358350 196.476069 L602.953281 178.774588 L626.555256 240.901162 L711.979295 208.448447 L663.823547 315.609133 L694.886834 303.808146 L681.677283 397.692721 L701.091837 390.317104 Z" fill="#888" fill-opacity="0.18" stroke="#000" stroke-width="1"/>
  <path d="M518.937072 60.964803 L512.410559 168.762870 L493.757538 159.631087 L498.267055 254.333094 L468.422221 239.722242 L506.507177 350.861457 L424.433883 310.681614 L395.212179 370.371282 L350.444928 348.455005 L379.666632 288.765336 L297.593338 248.585494 L408.732553 210.500538 L378.887719 195.889687 L456.451495 141.367523 L437.798474 132.235740 Z" fill="#888" fill-opacity="0.18" stroke="#000" stroke-width="1"/>
  <path d="M695.795220 992.328086 L589.159558 1009.411823 L594.014195 989.218825 L502.562003 1014.224871 L510.329422 981.916075 L410.138883 1043.269516 L431.499287 954.420327 L366.881695 938.885488 L378.532824 890.422294 L443.150416 905.957133 L464.510820 817.107944 L525.864261 917.298483 L533.631681 884.989687 L603.723469 948.832830 L608.578106 928.639833 Z" fill="#888" fill-opacity="0.18" stroke="#000" stroke-width="1"/>
  <path d="M996.449130 569.616423 L893.405116 537.290739 L906.765002 521.389855 L813.769719 502.932256 L835.145536 477.490842 L718.102458 487.654834 L776.885955 417.690946 L726.003127 374.939311 L758.066853 336.777190 L808.949681 379.528825 L867.733178 309.564936 L877.897170 426.608014 L899.272987 401.166600 L933.484774 489.588087 L946.844659 473.687204 Z" fill="#888" fill-opacity="0.18" stroke="#000" stroke-width="1"/>
  <path d="M827.000012 848.897434 L755.669476 767.811225 L775.339405 761.146501 L705.406663 697.129180 L736.878549 686.465620 L631.539936 634.444804 L718.087622 605.120015 L696.760504 542.176243 L743.968333 526.180904 L765.295451 589.124676 L851.843138 559.799888 L799.822321 665.138502 L831.294207 654.474942 L814.679262 747.817052 L834.349191 741.152327 Z" fill="#888" fill-opacity="0.18" stroke="#000" stroke-width="1"/>
  <path d="M173.713090 446.667417 L256.346930 516.199188 L237.892041 525.725034 L316.596182 578.587725 L287.068360 593.829079 L398.991299 629.545246 L317.789791 671.458971 L348.272500 730.514613 L303.980768 753.376645 L273.498059 694.321002 L192.296551 736.234727 L228.012718 624.311788 L198.484897 639.553142 L200.982265 544.776727 L182.527377 554.302574 Z" fill="#888" fill-opacity="0.18" stroke="#000" stroke-width="1"/>
  <path d="M831.194017 870.022335 L723.224056 872.368812 L730.793465 853.028991 L636.781479 865.298960 L648.892534 834.355246 L541.255610 881.436893 L574.561012 796.341679 L512.673584 772.119569 L530.840166 725.703998 L592.727595 749.926108 L626.032997 664.830894 L673.114644 772.467817 L685.225699 741.524103 L745.932284 814.349348 L753.501694 795.009527 Z" fill="#888" fill-opacity="0.18" stroke="#000" stroke-width="1"/>
  <path d="M607.748985 410.738185 L518.768530 471.938651 L514.485936 451.616643 L442.619606 513.455436 L435.767457 480.940222 L371.609796 579.358632 L352.766384 489.941793 L287.735956 503.646092 L277.457731 454.873271 L342.488159 441.168972 L323.644748 351.752133 L422.063157 415.909794 L415.211008 383.394580 L505.920749 410.972625 L501.638155 390.650616 Z" fill="#888" fill-opacity="0.18" stroke="#000" stroke-width="1"/>
  <path d="M965.028904 82.937487 L883.926639 154.249767 L877.266342 134.578338 L813.233280 204.496666 L802.576806 173.022380 L750.532276 278.349280 L721.226972 191.794994 L658.278401 213.107942 L642.293690 165.896514 L705.242261 144.583565 L675.936958 58.029279 L781.263857 110.073809 L770.607383 78.599523 L863.945750 95.235481 L857.285454 75.564052 Z" fill="#888" fill-opacity="0.18" stroke="#000" stroke-width="1"/>
  <path d="M490.078797 70.390065 L408.181754 140.788167 L401.742523 121.043270 L336.929243 190.238967 L326.626474 158.647132 L273.403810 263.383644 L245.071193 176.506097 L181.887523 197.111636 L166.433369 149.723884 L229.617039 129.118345 L201.284423 42.240798 L306.020934 95.463462 L295.718165 63.871627 L388.864061 81.553476 L382.424830 61.808579 Z" fill="#888" fill-opacity="0.18" stroke="#000" stroke-width="1"/>
  <path d="M841.720716 905.741785 L838.341452 797.799212 L857.752801 805.183260 L844.584028 711.292956 L875.642187 723.107434 L827.532985 615.925843 L912.942921 648.415657 L936.571877 586.299340 L983.159115 604.021057 L959.530159 666.137374 L1044.940096 698.627189 L937.758504 746.736390 L968.816663 758.550868 L896.575500 819.951358 L915.986849 827.335407 Z" fill="#888" fill-opacity="0.18" stroke="#000" stroke-width="1"/>
  <path d="M690.883166 564.155725 L614.496510 640.497702 L606.594581 621.291345 L547.153396 695.153049 L534.510309 664.422877 L489.292598 772.856025 L454.524108 688.348052 L393.063765 713.634227 L374.099134 667.538969 L435.559477 642.252795 L400.790987 557.744823 L509.224134 602.962534 L496.581047 572.232362 L590.790721 582.878630 L582.888792 563.672273 Z" fill="#888" fill-opacity="0.18" stroke="#000" stroke-width="1"/>
  <path d="M58.794046 578.542952 L135.839717 654.219786 L116.707316 662.299133 L191.115989 721.054176 L160.504147 733.981132 L269.351143 778.193349 L185.168576 813.742477 L211.022488 874.966163 L165.104723 894.356597 L139.250812 833.132911 L55.068244 868.682040 L99.280461 759.835043 L68.668618 772.761999 L78.442512 678.457828 L59.310110 686.537176 Z" fill="#888" fill-opacity="0.18" stroke="#000" stroke-width="1"/>
</svg>
