<?xml version="1.0" encoding="UTF-8"?>
<svg xmlns="http://www.w3.org/2000/svg" width="1100" height="1100" viewBox="0 0 1100 1100">
  <rect x="0" y="0" width="1100" height="1100" fill="white"/>
  <text x="10.0" y="18.0" font-family="monospace" font-size="12">L=1.56880068589 feas=0.000e+00 N=6</text>
  <rect x="40.000000" y="40.000000" width="1020.000000" height="1020.000000" fill="none" stroke="#000" stroke-width="2"/>
  <path d="M468.454618 147.893011 L636.164409 276.440514 L600.940755 296.703531 L759.484863 393.019508 L703.127017 425.440336 L925.073701 485.282881 L770.089625 574.440157 L834.931280 687.155849 L750.394511 735.787091 L685.552856 623.071399 L530.568780 712.228675 L590.411325 490.281991 L534.053479 522.702819 L530.493448 337.229566 L495.269794 357.492583 Z" fill="#888" fill-opacity="0.18" stroke="#000" stroke-width="1"/>
  <path d="M50.216217 1024.738614 L50.851434 813.431655 L88.314561 829.173628 L68.863574 644.688777 L128.804578 669.875934 L41.919960 457.055530 L206.757722 526.320213 L257.132036 406.438204 L347.043543 444.218940 L296.669228 564.100949 L461.506990 633.365631 L248.686586 720.250248 L308.627590 745.437406 L163.240817 860.657575 L200.703944 876.399548 Z" fill="#888" fill-opacity="0.18" stroke="#000" stroke-width="1"/>
  <path d="M87.888333 1006.893733 L235.574614 855.765320 L251.478601 893.159957 L366.068375 747.275807 L391.514755 807.107226 L477.477351 593.912731 L547.454896 758.449131 L667.117732 707.556372 L705.287302 797.303499 L585.624465 848.196259 L655.602009 1012.732659 L442.407514 926.770063 L467.853894 986.601481 L283.286576 967.949230 L299.190563 1005.343866 Z" fill="#888" fill-opacity="0.18" stroke="#000" stroke-width="1"/>
  <path d="M1057.586145 447.165890 L1051.340015 658.381468 L1014.308118 641.650234 L1028.853355 826.586540 L969.602318 799.816565 L1050.804971 1014.869094 L887.864622 941.251662 L834.324671 1059.753734 L745.448117 1019.598772 L798.988067 901.096699 L636.047717 827.479268 L851.100246 746.276615 L791.849210 719.506640 L940.244322 608.187765 L903.212425 591.456530 Z" fill="#888" fill-opacity="0.18" stroke="#000" stroke-width="1"/>
  <path d="M439.630826 41.525918 L650.914265 44.741895 L634.715908 82.009963 L819.424565 64.813642 L793.507194 124.442551 L1007.372893 40.163707 L936.100123 204.143206 L1055.357940 255.977948 L1016.481883 345.421311 L897.224066 293.586568 L825.951295 457.566067 L741.672452 243.700368 L715.755081 303.329276 L602.319194 156.546099 L586.120837 193.814167 Z" fill="#888" fill-opacity="0.18" stroke="#000" stroke-width="1"/>
  <path d="M543.926669 610.748469 L368.880290 492.385470 L402.838690 470.066808 L238.855560 383.334262 L293.189002 347.624403 L68.080751 301.065448 L217.497714 202.863335 L146.077995 94.196453 L227.578157 40.631664 L298.997875 149.298546 L448.414838 51.096433 L401.855884 276.204684 L456.189325 240.494825 L470.755491 425.429484 L504.713892 403.110822 Z" fill="#888" fill-opacity="0.18" stroke="#000" stroke-width="1"/>
</svg>
