<?xml version="1.0" encoding="UTF-8"?>
<svg xmlns="http://www.w3.org/2000/svg" width="1100" height="1100" viewBox="0 0 1100 1100">
  <rect x="0" y="0" width="1100" height="1100" fill="white"/>
  <text x="10.0" y="18.0" font-family="monospace" font-size="12">prefix=job5046009_pid11694 run_id=0 L=1.1768090237 feas=0.000e+00 N=3</text>
  <rect x="40.000000" y="40.000000" width="1020.000000" height="1020.000000" fill="none" stroke="#000" stroke-width="2"/>
  <path d="M41.645933 1045.342843 L48.293301 763.727320 L97.792553 785.736877 L76.932426 539.318845 L156.131229 574.534136 L46.172449 288.498901 L263.969157 385.340951 L334.399738 226.943345 L453.197943 279.766281 L382.767361 438.163887 L600.564069 535.005937 L314.528835 644.964717 L393.727638 680.180008 L196.791057 829.755991 L246.290309 851.765547 Z" fill="#888" fill-opacity="0.18" stroke="#000" stroke-width="1"/>
  <path d="M107.987012 1000.381619 L313.130867 807.333726 L332.226361 858.028485 L492.995310 670.118037 L523.548101 751.229651 L649.945159 472.068636 L733.965336 695.125576 L896.188565 634.019993 L942.017752 755.687415 L779.794523 816.792998 L863.814699 1039.849938 L584.653684 913.452880 L615.206476 994.564495 L370.417351 959.418004 L389.512845 1010.112763 Z" fill="#888" fill-opacity="0.18" stroke="#000" stroke-width="1"/>
  <path d="M266.390223 53.799013 L546.405811 84.503419 L520.244112 131.939292 L767.543341 132.227165 L725.684624 208.124562 L1020.074910 123.027864 L904.963437 331.745705 L1056.758230 415.463141 L993.970154 529.309236 L842.175360 445.591801 L727.063887 654.309642 L641.967188 359.919356 L600.108471 435.816753 L467.920715 226.811039 L441.759017 274.246912 Z" fill="#888" fill-opacity="0.18" stroke="#000" stroke-width="1"/>
</svg>
