<svg xmlns="http://www.w3.org/2000/svg" width="1420" height="2400" viewBox="0 0 1420 2400">
<rect x="0" y="0" width="1420" height="2400" fill="white" />
<text x="40" y="30" font-family="monospace" font-size="16">After compactification (corner shove) (n=4)</text>
<g transform="translate(40.000 520.000) scale(92.007818746 -92.007818746) translate(4.394206342 4.092345113)">
<path d="M -1.591763168 -1.167113696 -1.466763168 -1.467113696 -1.529263168 -1.467113696 -1.391763168 -1.717113696 -1.491763168 -1.717113696 -1.241763168 -1.967113696 -1.516763168 -1.967113696 -1.516763168 -2.167113696 -1.666763168 -2.167113696 -1.666763168 -1.967113696 -1.941763168 -1.967113696 -1.691763168 -1.717113696 -1.791763168 -1.717113696 -1.654263168 -1.467113696 -1.716763168 -1.467113696 Z" fill="none" stroke="#222" stroke-width="0.01" />
<path d="M -2.450072503 -0.587056296 -2.325072503 -0.887056296 -2.387572503 -0.887056296 -2.250072503 -1.137056296 -2.350072503 -1.137056296 -2.100072503 -1.387056296 -2.375072503 -1.387056296 -2.375072503 -1.587056296 -2.525072503 -1.587056296 -2.525072503 -1.387056296 -2.800072503 -1.387056296 -2.550072503 -1.137056296 -2.650072503 -1.137056296 -2.512572503 -0.887056296 -2.575072503 -0.887056296 Z" fill="none" stroke="#222" stroke-width="0.01" />
<path d="M -1.221841550 -0.414925645 -1.096841550 -0.714925645 -1.159341550 -0.714925645 -1.021841550 -0.964925645 -1.121841550 -0.964925645 -0.871841550 -1.214925645 -1.146841550 -1.214925645 -1.146841550 -1.414925645 -1.296841550 -1.414925645 -1.296841550 -1.214925645 -1.571841550 -1.214925645 -1.321841550 -0.964925645 -1.421841550 -0.964925645 -1.284341550 -0.714925645 -1.346841550 -0.714925645 Z" fill="none" stroke="#222" stroke-width="0.01" />
<path d="M -1.950072536 -0.387056282 -1.825072536 -0.687056282 -1.887572536 -0.687056282 -1.750072536 -0.937056282 -1.850072536 -0.937056282 -1.600072536 -1.187056282 -1.875072536 -1.187056282 -1.875072536 -1.387056282 -2.025072536 -1.387056282 -2.025072536 -1.187056282 -2.300072536 -1.187056282 -2.050072536 -0.937056282 -2.150072536 -0.937056282 -2.012572536 -0.687056282 -2.075072536 -0.687056282 Z" fill="none" stroke="#222" stroke-width="0.01" />
<rect x="-2.800072503" y="-2.241200466" width="1.928230954" height="1.928230954" fill="none" stroke="#000" stroke-width="0.01" />
</g>
<text x="40" y="92" font-family="monospace" font-size="12">centered</text>
<g transform="translate(500.000 520.000) scale(92.007818746 -92.007818746) translate(4.394206342 4.092345113)">
<path d="M -2.159659576 -0.987231499 -2.034659576 -1.287231499 -2.097159576 -1.287231499 -1.959659576 -1.537231499 -2.059659576 -1.537231499 -1.809659576 -1.787231499 -2.084659576 -1.787231499 -2.084659576 -1.987231499 -2.234659576 -1.987231499 -2.234659576 -1.787231499 -2.509659576 -1.787231499 -2.259659576 -1.537231499 -2.359659576 -1.537231499 -2.222159576 -1.287231499 -2.284659576 -1.287231499 Z" fill="none" stroke="#222" stroke-width="0.01" />
<path d="M -1.466117683 -0.980773393 -1.341117683 -1.280773393 -1.403617683 -1.280773393 -1.266117683 -1.530773393 -1.366117683 -1.530773393 -1.116117683 -1.780773393 -1.391117683 -1.780773393 -1.391117683 -1.980773393 -1.541117683 -1.980773393 -1.541117683 -1.780773393 -1.816117683 -1.780773393 -1.566117683 -1.530773393 -1.666117683 -1.530773393 -1.528617683 -1.280773393 -1.591117683 -1.280773393 Z" fill="none" stroke="#222" stroke-width="0.01" />
<path d="M -2.159659502 0.028358161 -2.034659502 -0.271641839 -2.097159502 -0.271641839 -1.959659502 -0.521641839 -2.059659502 -0.521641839 -1.809659502 -0.771641839 -2.084659502 -0.771641839 -2.084659502 -0.971641839 -2.234659502 -0.971641839 -2.234659502 -0.771641839 -2.509659502 -0.771641839 -2.259659502 -0.521641839 -2.359659502 -0.521641839 -2.222159502 -0.271641839 -2.284659502 -0.271641839 Z" fill="none" stroke="#222" stroke-width="0.01" />
<path d="M -1.466117702 0.021899961 -1.341117702 -0.278100039 -1.403617702 -0.278100039 -1.266117702 -0.528100039 -1.366117702 -0.528100039 -1.116117702 -0.778100039 -1.391117702 -0.778100039 -1.391117702 -0.978100039 -1.541117702 -0.978100039 -1.541117702 -0.778100039 -1.816117702 -0.778100039 -1.566117702 -0.528100039 -1.666117702 -0.528100039 -1.528617702 -0.278100039 -1.591117702 -0.278100039 Z" fill="none" stroke="#222" stroke-width="0.01" />
<rect x="-2.820683460" y="-1.987231499" width="2.015589660" height="2.015589660" fill="none" stroke="#000" stroke-width="0.01" />
</g>
<text x="500" y="92" font-family="monospace" font-size="12">grid</text>
<g transform="translate(960.000 520.000) scale(92.007818746 -92.007818746) translate(4.394206342 4.092345113)">
<path d="M -2.148746906 -1.519350754 -2.023746906 -1.819350754 -2.086246906 -1.819350754 -1.948746906 -2.069350754 -2.048746906 -2.069350754 -1.798746906 -2.319350754 -2.073746906 -2.319350754 -2.073746906 -2.519350754 -2.223746906 -2.519350754 -2.223746906 -2.319350754 -2.498746906 -2.319350754 -2.248746906 -2.069350754 -2.348746906 -2.069350754 -2.211246906 -1.819350754 -2.273746906 -1.819350754 Z" fill="none" stroke="#222" stroke-width="0.01" />
<path d="M -1.676407473 -2.875552673 -1.801407473 -2.575552673 -1.738907473 -2.575552673 -1.876407473 -2.325552673 -1.776407473 -2.325552673 -2.026407473 -2.075552673 -1.751407473 -2.075552673 -1.751407473 -1.875552673 -1.601407473 -1.875552673 -1.601407473 -2.075552673 -1.326407473 -2.075552673 -1.576407473 -2.325552673 -1.476407473 -2.325552673 -1.613907473 -2.575552673 -1.551407473 -2.575552673 Z" fill="none" stroke="#222" stroke-width="0.01" />
<path d="M -2.435977234 -2.239786557 -2.560977234 -1.939786557 -2.498477234 -1.939786557 -2.635977234 -1.689786557 -2.535977234 -1.689786557 -2.785977234 -1.439786557 -2.510977234 -1.439786557 -2.510977234 -1.239786557 -2.360977234 -1.239786557 -2.360977234 -1.439786557 -2.085977234 -1.439786557 -2.335977234 -1.689786557 -2.235977234 -1.689786557 -2.373477234 -1.939786557 -2.310977234 -1.939786557 Z" fill="none" stroke="#222" stroke-width="0.01" />
<path d="M -1.729166939 -0.867068557 -1.604166939 -1.167068557 -1.666666939 -1.167068557 -1.529166939 -1.417068557 -1.629166939 -1.417068557 -1.379166939 -1.667068557 -1.654166939 -1.667068557 -1.654166939 -1.867068557 -1.804166939 -1.867068557 -1.804166939 -1.667068557 -2.079166939 -1.667068557 -1.829166939 -1.417068557 -1.929166939 -1.417068557 -1.791666939 -1.167068557 -1.854166939 -1.167068557 Z" fill="none" stroke="#222" stroke-width="0.01" />
<rect x="-3.060434411" y="-2.875552673" width="2.008484116" height="2.008484116" fill="none" stroke="#000" stroke-width="0.01" />
</g>
<text x="960" y="92" font-family="monospace" font-size="12">grid_alt180</text>
<g transform="translate(40.000 980.000) scale(92.007818746 -92.007818746) translate(4.394206342 4.092345113)">
<path d="M -1.466150028 -0.922458188 -1.589893715 -1.222978570 -1.634087889 -1.178784397 -1.713637401 -1.452788274 -1.784348080 -1.382077596 -1.784348080 -1.735630987 -1.978802444 -1.541176622 -2.120223801 -1.682597978 -2.226289818 -1.576531961 -2.084868462 -1.435110605 -2.279322826 -1.240656240 -1.925769436 -1.240656240 -1.996480114 -1.169945562 -1.722476236 -1.090396049 -1.766670410 -1.046201875 Z" fill="none" stroke="#222" stroke-width="0.01" />
<path d="M -1.562583553 -1.174378090 -1.262063171 -1.298121777 -1.306257344 -1.342315950 -1.032253467 -1.421865463 -1.102964145 -1.492576141 -0.749410754 -1.492576141 -0.943865119 -1.687030506 -0.802443763 -1.828451862 -0.908509780 -1.934517880 -1.049931136 -1.793096523 -1.244385501 -1.987550888 -1.244385501 -1.633997498 -1.315096179 -1.704708176 -1.394645692 -1.430704298 -1.438839866 -1.474898472 Z" fill="none" stroke="#222" stroke-width="0.01" />
<path d="M -2.363409901 -0.258550412 -2.062889519 -0.382294098 -2.107083693 -0.426488272 -1.833079815 -0.506037785 -1.903790493 -0.576748463 -1.550237103 -0.576748463 -1.744691467 -0.771202828 -1.603270111 -0.912624184 -1.709336128 -1.018690201 -1.850757485 -0.877268845 -2.045211849 -1.071723210 -2.045211849 -0.718169819 -2.115922528 -0.788880497 -2.195472040 -0.514876620 -2.239666214 -0.559070794 Z" fill="none" stroke="#222" stroke-width="0.01" />
<path d="M -0.783920727 -0.464441790 -0.907664414 -0.764962172 -0.951858587 -0.720767998 -1.031408100 -0.994771876 -1.102118778 -0.924061198 -1.102118778 -1.277614588 -1.296573143 -1.083160224 -1.437994499 -1.224581580 -1.544060517 -1.118515563 -1.402639160 -0.977094206 -1.597093525 -0.782639842 -1.243540135 -0.782639842 -1.314250813 -0.711929163 -1.040246935 -0.632379651 -1.084441109 -0.588185477 Z" fill="none" stroke="#222" stroke-width="0.01" />
<rect x="-2.420910566" y="-1.987550888" width="1.729000477" height="1.729000477" fill="none" stroke="#000" stroke-width="0.01" />
</g>
<text x="40" y="552" font-family="monospace" font-size="12">grid_alt45</text>
<g transform="translate(500.000 980.000) scale(92.007818746 -92.007818746) translate(4.394206342 4.092345113)">
<path d="M -2.414876086 -1.438692498 -2.114355704 -1.562436185 -2.158549878 -1.606630359 -1.884546001 -1.686179871 -1.955256679 -1.756890550 -1.601703288 -1.756890550 -1.796157653 -1.951344914 -1.654736297 -2.092766271 -1.760802314 -2.198832288 -1.902223670 -2.057410932 -2.096678035 -2.251865296 -2.096678035 -1.898311906 -2.167388713 -1.969022584 -2.246938226 -1.695018706 -2.291132400 -1.739212880 Z" fill="none" stroke="#222" stroke-width="0.01" />
<path d="M -0.946239917 -2.517602527 -1.246760299 -2.393858840 -1.202566125 -2.349664666 -1.476570003 -2.270115153 -1.405859325 -2.199404475 -1.759412716 -2.199404475 -1.564958351 -2.004950110 -1.706379707 -1.863528754 -1.600313690 -1.757462737 -1.458892334 -1.898884093 -1.264437969 -1.704429728 -1.264437969 -2.057983119 -1.193727291 -1.987272441 -1.114177778 -2.261276319 -1.069983604 -2.217082145 Z" fill="none" stroke="#222" stroke-width="0.01" />
<path d="M -1.401931633 -1.837439453 -1.702452015 -1.713695766 -1.658257841 -1.669501592 -1.932261719 -1.589952080 -1.861551040 -1.519241401 -2.215104431 -1.519241401 -2.020650066 -1.324787037 -2.162071422 -1.183365680 -2.056005405 -1.077299663 -1.914584049 -1.218721019 -1.720129684 -1.024266655 -1.720129684 -1.377820045 -1.649419006 -1.307109367 -1.569869493 -1.581113245 -1.525675319 -1.536919071 Z" fill="none" stroke="#222" stroke-width="0.01" />
<path d="M -1.888724313 -0.764955348 -1.588203931 -0.888699035 -1.632398105 -0.932893209 -1.358394227 -1.012442721 -1.429104905 -1.083153400 -1.075551515 -1.083153400 -1.270005880 -1.277607764 -1.128584523 -1.419029121 -1.234650540 -1.525095138 -1.376071897 -1.383673782 -1.570526262 -1.578128146 -1.570526262 -1.224574756 -1.641236940 -1.295285434 -1.720786453 -1.021281556 -1.764980626 -1.065475730 Z" fill="none" stroke="#222" stroke-width="0.01" />
<rect x="-2.556881591" y="-2.517602527" width="1.752647179" height="1.752647179" fill="none" stroke="#000" stroke-width="0.01" />
</g>
<text x="500" y="552" font-family="monospace" font-size="12">alternating</text>
<g transform="translate(960.000 980.000) scale(92.007818746 -92.007818746) translate(4.394206342 4.092345113)">
<path d="M -2.194591383 -1.737697822 -2.069591383 -2.037697822 -2.132091383 -2.037697822 -1.994591383 -2.287697822 -2.094591383 -2.287697822 -1.844591383 -2.537697822 -2.119591383 -2.537697822 -2.119591383 -2.737697822 -2.269591383 -2.737697822 -2.269591383 -2.537697822 -2.544591383 -2.537697822 -2.294591383 -2.287697822 -2.394591383 -2.287697822 -2.257091383 -2.037697822 -2.319591383 -2.037697822 Z" fill="none" stroke="#222" stroke-width="0.01" />
<path d="M -1.775058865 -3.648218945 -1.900058865 -3.348218945 -1.837558865 -3.348218945 -1.975058865 -3.098218945 -1.875058865 -3.098218945 -2.125058865 -2.848218945 -1.850058865 -2.848218945 -1.850058865 -2.648218945 -1.700058865 -2.648218945 -1.700058865 -2.848218945 -1.425058865 -2.848218945 -1.675058865 -3.098218945 -1.575058865 -3.098218945 -1.712558865 -3.348218945 -1.650058865 -3.348218945 Z" fill="none" stroke="#222" stroke-width="0.01" />
<path d="M -1.800540394 -2.642040669 -1.925540394 -2.342040669 -1.863040394 -2.342040669 -2.000540394 -2.092040669 -1.900540394 -2.092040669 -2.150540394 -1.842040669 -1.875540394 -1.842040669 -1.875540394 -1.642040669 -1.725540394 -1.642040669 -1.725540394 -1.842040669 -1.450540394 -1.842040669 -1.700540394 -2.092040669 -1.600540394 -2.092040669 -1.738040394 -2.342040669 -1.675540394 -2.342040669 Z" fill="none" stroke="#222" stroke-width="0.01" />
<path d="M -1.348593962 -1.290094237 -1.223593962 -1.590094237 -1.286093962 -1.590094237 -1.148593962 -1.840094237 -1.248593962 -1.840094237 -0.998593962 -2.090094237 -1.273593962 -2.090094237 -1.273593962 -2.290094237 -1.423593962 -2.290094237 -1.423593962 -2.090094237 -1.698593962 -2.090094237 -1.448593962 -1.840094237 -1.548593962 -1.840094237 -1.411093962 -1.590094237 -1.473593962 -1.590094237 Z" fill="none" stroke="#222" stroke-width="0.01" />
<rect x="-2.950655027" y="-3.648218945" width="2.358124708" height="2.358124708" fill="none" stroke="#000" stroke-width="0.01" />
</g>
<text x="960" y="552" font-family="monospace" font-size="12">sheared_brick</text>
<g transform="translate(40.000 1440.000) scale(92.007818746 -92.007818746) translate(4.394206342 4.092345113)">
<path d="M -2.767800045 -1.277578514 -2.467279663 -1.401322200 -2.511473836 -1.445516374 -2.237469959 -1.525065887 -2.308180637 -1.595776565 -1.954627246 -1.595776565 -2.149081611 -1.790230930 -2.007660255 -1.931652286 -2.113726272 -2.037718303 -2.255147628 -1.896296947 -2.449601993 -2.090751312 -2.449601993 -1.737197921 -2.520312671 -1.807908600 -2.599862184 -1.533904722 -2.644056358 -1.578098896 Z" fill="none" stroke="#222" stroke-width="0.01" />
<path d="M -1.054809243 -1.742104826 -1.355329625 -1.618361140 -1.311135451 -1.574166966 -1.585139328 -1.494617453 -1.514428650 -1.423906775 -1.867982041 -1.423906775 -1.673527676 -1.229452410 -1.814949032 -1.088031054 -1.708883015 -0.981965037 -1.567461659 -1.123386393 -1.373007294 -0.928932028 -1.373007294 -1.282485419 -1.302296616 -1.211774741 -1.222747103 -1.485778618 -1.178552929 -1.441584444 Z" fill="none" stroke="#222" stroke-width="0.01" />
<path d="M -1.318401607 -2.681143405 -1.618921989 -2.557399719 -1.574727815 -2.513205545 -1.848731693 -2.433656032 -1.778021015 -2.362945354 -2.131574405 -2.362945354 -1.937120041 -2.168490989 -2.078541397 -2.027069633 -1.972475380 -1.921003616 -1.831054023 -2.062424972 -1.636599659 -1.867970607 -1.636599659 -2.221523998 -1.565888980 -2.150813319 -1.486339468 -2.424817197 -1.442145294 -2.380623023 Z" fill="none" stroke="#222" stroke-width="0.01" />
<path d="M -2.148864266 -1.248864364 -1.848343884 -1.372608051 -1.892538058 -1.416802225 -1.618534180 -1.496351738 -1.689244858 -1.567062416 -1.335691468 -1.567062416 -1.530145832 -1.761516781 -1.388724476 -1.902938137 -1.494790493 -2.009004154 -1.636211850 -1.867582798 -1.830666214 -2.062037163 -1.830666214 -1.708483772 -1.901376892 -1.779194450 -1.980926405 -1.505190573 -2.025120579 -1.549384746 Z" fill="none" stroke="#222" stroke-width="0.01" />
<rect x="-2.787410332" y="-2.681143405" width="1.752211377" height="1.752211377" fill="none" stroke="#000" stroke-width="0.01" />
</g>
<text x="40" y="1012" font-family="monospace" font-size="12">diamond_lattice</text>
<g transform="translate(500.000 1440.000) scale(92.007818746 -92.007818746) translate(4.394206342 4.092345113)">
<path d="M -2.056421843 -1.276391010 -1.931421843 -1.576391010 -1.993921843 -1.576391010 -1.856421843 -1.826391010 -1.956421843 -1.826391010 -1.706421843 -2.076391010 -1.981421843 -2.076391010 -1.981421843 -2.276391010 -2.131421843 -2.276391010 -2.131421843 -2.076391010 -2.406421843 -2.076391010 -2.156421843 -1.826391010 -2.256421843 -1.826391010 -2.118921843 -1.576391010 -2.181421843 -1.576391010 Z" fill="none" stroke="#222" stroke-width="0.01" />
<path d="M -1.516488545 -1.036457712 -1.391488545 -1.336457712 -1.453988545 -1.336457712 -1.316488545 -1.586457712 -1.416488545 -1.586457712 -1.166488545 -1.836457712 -1.441488545 -1.836457712 -1.441488545 -2.036457712 -1.591488545 -2.036457712 -1.591488545 -1.836457712 -1.866488545 -1.836457712 -1.616488545 -1.586457712 -1.716488545 -1.586457712 -1.578988545 -1.336457712 -1.641488545 -1.336457712 Z" fill="none" stroke="#222" stroke-width="0.01" />
<path d="M -2.585736704 -1.078323533 -2.285736704 -0.953323533 -2.285736704 -1.015823533 -2.035736704 -0.878323533 -2.035736704 -0.978323533 -1.785736704 -0.728323533 -1.785736704 -1.003323533 -1.585736704 -1.003323533 -1.585736704 -1.153323533 -1.785736704 -1.153323533 -1.785736704 -1.428323533 -2.035736704 -1.178323533 -2.035736704 -1.278323533 -2.285736704 -1.140823533 -2.285736704 -1.203323533 Z" fill="none" stroke="#222" stroke-width="0.01" />
<path d="M -1.746711042 -0.918914080 -1.446711042 -0.793914080 -1.446711042 -0.856414080 -1.196711042 -0.718914080 -1.196711042 -0.818914080 -0.946711042 -0.568914080 -0.946711042 -0.843914080 -0.746711042 -0.843914080 -0.746711042 -0.993914080 -0.946711042 -0.993914080 -0.946711042 -1.268914080 -1.196711042 -1.018914080 -1.196711042 -1.118914080 -1.446711042 -0.981414080 -1.446711042 -1.043914080 Z" fill="none" stroke="#222" stroke-width="0.01" />
<rect x="-2.585736704" y="-2.342165375" width="1.839025662" height="1.839025662" fill="none" stroke="#000" stroke-width="0.01" />
</g>
<text x="500" y="1012" font-family="monospace" font-size="12">herringbone</text>
<g transform="translate(960.000 1440.000) scale(92.007818746 -92.007818746) translate(4.394206342 4.092345113)">
<path d="M -1.361638048 -0.811438902 -1.236638048 -1.111438902 -1.299138048 -1.111438902 -1.161638048 -1.361438902 -1.261638048 -1.361438902 -1.011638048 -1.611438902 -1.286638048 -1.611438902 -1.286638048 -1.811438902 -1.436638048 -1.811438902 -1.436638048 -1.611438902 -1.711638048 -1.611438902 -1.461638048 -1.361438902 -1.561638048 -1.361438902 -1.424138048 -1.111438902 -1.486638048 -1.111438902 Z" fill="none" stroke="#222" stroke-width="0.01" />
<path d="M -2.561638048 -1.361638683 -2.261638048 -1.236638683 -2.261638048 -1.299138683 -2.011638048 -1.161638683 -2.011638048 -1.261638683 -1.761638048 -1.011638683 -1.761638048 -1.286638683 -1.561638048 -1.286638683 -1.561638048 -1.436638683 -1.761638048 -1.436638683 -1.761638048 -1.711638683 -2.011638048 -1.461638683 -2.011638048 -1.561638683 -2.261638048 -1.424138683 -2.261638048 -1.486638683 Z" fill="none" stroke="#222" stroke-width="0.01" />
<path d="M -2.011438390 -2.561638683 -2.136438390 -2.261638683 -2.073938390 -2.261638683 -2.211438390 -2.011638683 -2.111438390 -2.011638683 -2.361438390 -1.761638683 -2.086438390 -1.761638683 -2.086438390 -1.561638683 -1.936438390 -1.561638683 -1.936438390 -1.761638683 -1.661438390 -1.761638683 -1.911438390 -2.011638683 -1.811438390 -2.011638683 -1.948938390 -2.261638683 -1.886438390 -2.261638683 Z" fill="none" stroke="#222" stroke-width="0.01" />
<path d="M -0.811438390 -2.011438902 -1.111438390 -2.136438902 -1.111438390 -2.073938902 -1.361438390 -2.211438902 -1.361438390 -2.111438902 -1.611438390 -2.361438902 -1.611438390 -2.086438902 -1.811438390 -2.086438902 -1.811438390 -1.936438902 -1.611438390 -1.936438902 -1.611438390 -1.661438902 -1.361438390 -1.911438902 -1.361438390 -1.811438902 -1.111438390 -1.948938902 -1.111438390 -1.886438902 Z" fill="none" stroke="#222" stroke-width="0.01" />
<rect x="-2.561638109" y="-2.561638683" width="1.750199781" height="1.750199781" fill="none" stroke="#000" stroke-width="0.01" />
</g>
<text x="960" y="1012" font-family="monospace" font-size="12">circle_ring</text>
<g transform="translate(40.000 1900.000) scale(92.007818746 -92.007818746) translate(4.394206342 4.092345113)">
<path d="M -1.720476805 -0.883455748 -1.595476805 -1.183455748 -1.657976805 -1.183455748 -1.520476805 -1.433455748 -1.620476805 -1.433455748 -1.370476805 -1.683455748 -1.645476805 -1.683455748 -1.645476805 -1.883455748 -1.795476805 -1.883455748 -1.795476805 -1.683455748 -2.070476805 -1.683455748 -1.820476805 -1.433455748 -1.920476805 -1.433455748 -1.782976805 -1.183455748 -1.845476805 -1.183455748 Z" fill="none" stroke="#222" stroke-width="0.01" />
<path d="M -1.943829774 -0.509060036 -1.635947759 -0.613144929 -1.677196706 -0.660099954 -1.398628922 -0.721794685 -1.464627237 -0.796922726 -1.111811349 -0.774098411 -1.293306714 -0.980700522 -1.143050633 -1.112697151 -1.242048105 -1.225389212 -1.392304186 -1.093392583 -1.573799551 -1.299994694 -1.596623866 -0.947178807 -1.662622181 -1.022306847 -1.759694599 -0.754010005 -1.800943546 -0.800965030 Z" fill="none" stroke="#222" stroke-width="0.01" />
<path d="M -2.747651710 -0.999640058 -2.466257829 -0.837028608 -2.458205048 -0.899007659 -2.228004963 -0.730442624 -2.215120514 -0.829609105 -1.999415435 -0.549481779 -1.963983199 -0.822189602 -1.765650237 -0.796420703 -1.746323563 -0.945170425 -1.944656525 -0.970939323 -1.909224289 -1.243647146 -2.189351615 -1.027942067 -2.176467166 -1.127108548 -2.442099486 -1.022965760 -2.434046705 -1.084944811 Z" fill="none" stroke="#222" stroke-width="0.01" />
<path d="M -2.618954101 -1.963988503 -2.555405678 -1.645261977 -2.503527332 -1.680117210 -2.478238764 -1.395922315 -2.395233410 -1.451690686 -2.463325865 -1.104756373 -2.235061142 -1.258119396 -2.123524399 -1.092108689 -1.999016369 -1.175761246 -2.110553112 -1.341771953 -1.882288390 -1.495134975 -2.229222703 -1.563227430 -2.146217350 -1.618995802 -2.399770640 -1.749827674 -2.347892294 -1.784682907 Z" fill="none" stroke="#222" stroke-width="0.01" />
<rect x="-2.747651710" y="-2.054444450" width="1.635840361" height="1.635840361" fill="none" stroke="#000" stroke-width="0.01" />
</g>
<text x="40" y="1472" font-family="monospace" font-size="12">spiral</text>
<g transform="translate(500.000 1900.000) scale(92.007818746 -92.007818746) translate(4.394206342 4.092345113)">
<path d="M -3.157954177 -2.052756338 -2.857954177 -1.927756338 -2.857954177 -1.990256338 -2.607954177 -1.852756338 -2.607954177 -1.952756338 -2.357954177 -1.702756338 -2.357954177 -1.977756338 -2.157954177 -1.977756338 -2.157954177 -2.127756338 -2.357954177 -2.127756338 -2.357954177 -2.402756338 -2.607954177 -2.152756338 -2.607954177 -2.252756338 -2.857954177 -2.115256338 -2.857954177 -2.177756338 Z" fill="none" stroke="#222" stroke-width="0.01" />
<path d="M -1.677658566 -1.984208225 -1.983305516 -1.873732246 -1.941087372 -1.827646691 -2.218309507 -1.760162339 -2.150760478 -1.686425451 -2.503975271 -1.701895097 -2.318215440 -1.499118655 -2.465689216 -1.364020596 -2.364365672 -1.253415265 -2.216891896 -1.388513324 -2.031132065 -1.185736882 -2.015662419 -1.538951675 -1.948113390 -1.465214787 -1.856651086 -1.735475582 -1.814432942 -1.689390027 Z" fill="none" stroke="#222" stroke-width="0.01" />
<path d="M -2.059660515 -1.804859889 -1.908911417 -2.092782986 -1.971172107 -2.098247094 -1.812342158 -2.335268817 -1.911959262 -2.344011389 -1.641060071 -2.571197718 -1.915007107 -2.595239792 -1.897521962 -2.794474001 -2.046947618 -2.807587859 -2.064432763 -2.608353651 -2.338379799 -2.632395725 -2.111193470 -2.361496534 -2.210810574 -2.370239106 -2.095693487 -2.109175309 -2.157954177 -2.114639417 Z" fill="none" stroke="#222" stroke-width="0.01" />
<path d="M -1.820829926 -2.377566151 -1.737498362 -2.063431068 -1.687898315 -2.101458496 -1.644908703 -1.819397965 -1.565548628 -1.880241851 -1.611839100 -1.529731948 -1.393598894 -1.697052635 -1.271911121 -1.538332485 -1.152871009 -1.629598314 -1.274558781 -1.788318464 -1.056318574 -1.955639151 -1.406828477 -2.001929623 -1.327468402 -2.062773510 -1.588698221 -2.177513354 -1.539098174 -2.215540783 Z" fill="none" stroke="#222" stroke-width="0.01" />
<rect x="-3.157954177" y="-3.047480172" width="2.101635603" height="2.101635603" fill="none" stroke="#000" stroke-width="0.01" />
</g>
<text x="500" y="1472" font-family="monospace" font-size="12">sunflower</text>
<g transform="translate(960.000 1900.000) scale(92.007818746 -92.007818746) translate(4.394206342 4.092345113)">
<path d="M -2.212359228 -1.494405212 -2.087359228 -1.794405212 -2.149859228 -1.794405212 -2.012359228 -2.044405212 -2.112359228 -2.044405212 -1.862359228 -2.294405212 -2.137359228 -2.294405212 -2.137359228 -2.494405212 -2.287359228 -2.494405212 -2.287359228 -2.294405212 -2.562359228 -2.294405212 -2.312359228 -2.044405212 -2.412359228 -2.044405212 -2.274859228 -1.794405212 -2.337359228 -1.794405212 Z" fill="none" stroke="#222" stroke-width="0.01" />
<path d="M -1.784199974 -3.095486829 -1.909199974 -2.795486829 -1.846699974 -2.795486829 -1.984199974 -2.545486829 -1.884199974 -2.545486829 -2.134199974 -2.295486829 -1.859199974 -2.295486829 -1.859199974 -2.095486829 -1.709199974 -2.095486829 -1.709199974 -2.295486829 -1.434199974 -2.295486829 -1.684199974 -2.545486829 -1.584199974 -2.545486829 -1.721699974 -2.795486829 -1.659199974 -2.795486829 Z" fill="none" stroke="#222" stroke-width="0.01" />
<path d="M -2.136629349 -1.817343521 -1.836629349 -1.692343521 -1.836629349 -1.754843521 -1.586629349 -1.617343521 -1.586629349 -1.717343521 -1.336629349 -1.467343521 -1.336629349 -1.742343521 -1.136629349 -1.742343521 -1.136629349 -1.892343521 -1.336629349 -1.892343521 -1.336629349 -2.167343521 -1.586629349 -1.917343521 -1.586629349 -2.017343521 -1.836629349 -1.879843521 -1.836629349 -1.942343521 Z" fill="none" stroke="#222" stroke-width="0.01" />
<path d="M -2.370227298 -1.934148613 -2.675874248 -1.823672634 -2.633656105 -1.777587080 -2.910878240 -1.710102727 -2.843329211 -1.636365839 -3.196544004 -1.651835485 -3.010784173 -1.449059043 -3.158257948 -1.313960985 -3.056934404 -1.203355653 -2.909460629 -1.338453712 -2.723700798 -1.135677270 -2.708231152 -1.488892063 -2.640682122 -1.415155175 -2.549219818 -1.685415970 -2.507001675 -1.639330415 Z" fill="none" stroke="#222" stroke-width="0.01" />
<rect x="-3.196544004" y="-3.145539377" width="2.059914654" height="2.059914654" fill="none" stroke="#000" stroke-width="0.01" />
</g>
<text x="960" y="1472" font-family="monospace" font-size="12">core_plus_spiral</text>
<g transform="translate(40.000 2360.000) scale(92.007818746 -92.007818746) translate(4.394206342 4.092345113)">
<path d="M -2.310537014 -1.347652384 -2.185537014 -1.647652384 -2.248037014 -1.647652384 -2.110537014 -1.897652384 -2.210537014 -1.897652384 -1.960537014 -2.147652384 -2.235537014 -2.147652384 -2.235537014 -2.347652384 -2.385537014 -2.347652384 -2.385537014 -2.147652384 -2.660537014 -2.147652384 -2.410537014 -1.897652384 -2.510537014 -1.897652384 -2.373037014 -1.647652384 -2.435537014 -1.647652384 Z" fill="none" stroke="#222" stroke-width="0.01" />
<path d="M -2.932553854 -2.594669698 -2.632553854 -2.469669698 -2.632553854 -2.532169698 -2.382553854 -2.394669698 -2.382553854 -2.494669698 -2.132553854 -2.244669698 -2.132553854 -2.519669698 -1.932553854 -2.519669698 -1.932553854 -2.669669698 -2.132553854 -2.669669698 -2.132553854 -2.944669698 -2.382553854 -2.694669698 -2.382553854 -2.794669698 -2.632553854 -2.657169698 -2.632553854 -2.719669698 Z" fill="none" stroke="#222" stroke-width="0.01" />
<path d="M -2.800080175 -0.987730860 -2.675080175 -1.287730860 -2.737580175 -1.287730860 -2.600080175 -1.537730860 -2.700080175 -1.537730860 -2.450080175 -1.787730860 -2.725080175 -1.787730860 -2.725080175 -1.987730860 -2.875080175 -1.987730860 -2.875080175 -1.787730860 -3.150080175 -1.787730860 -2.900080175 -1.537730860 -3.000080175 -1.537730860 -2.862580175 -1.287730860 -2.925080175 -1.287730860 Z" fill="none" stroke="#222" stroke-width="0.01" />
<path d="M -3.950080173 -2.098808228 -3.650080173 -1.973808228 -3.650080173 -2.036308228 -3.400080173 -1.898808228 -3.400080173 -1.998808228 -3.150080173 -1.748808228 -3.150080173 -2.023808228 -2.950080173 -2.023808228 -2.950080173 -2.173808228 -3.150080173 -2.173808228 -3.150080173 -2.448808228 -3.400080173 -2.198808228 -3.400080173 -2.298808228 -3.650080173 -2.161308228 -3.650080173 -2.223808228 Z" fill="none" stroke="#222" stroke-width="0.01" />
<rect x="-3.950080173" y="-2.974963439" width="2.017526320" height="2.017526320" fill="none" stroke="#000" stroke-width="0.01" />
</g>
<text x="40" y="1932" font-family="monospace" font-size="12">random_box</text>
</svg>
