<svg xmlns="http://www.w3.org/2000/svg" width="1420" height="2400" viewBox="0 0 1420 2400">
<rect x="0" y="0" width="1420" height="2400" fill="white" />
<text x="40" y="30" font-family="monospace" font-size="16">After compactification (corner shove) (n=5)</text>
<g transform="translate(40.000 520.000) scale(91.469949107 -91.469949107) translate(4.268104389 4.148872297)">
<path d="M -1.948652374 -1.174374357 -1.823652374 -1.474374357 -1.886152374 -1.474374357 -1.748652374 -1.724374357 -1.848652374 -1.724374357 -1.598652374 -1.974374357 -1.873652374 -1.974374357 -1.873652374 -2.174374357 -2.023652374 -2.174374357 -2.023652374 -1.974374357 -2.298652374 -1.974374357 -2.048652374 -1.724374357 -2.148652374 -1.724374357 -2.011152374 -1.474374357 -2.073652374 -1.474374357 Z" fill="none" stroke="#222" stroke-width="0.01" />
<path d="M -1.479737598 -0.776946730 -1.354737598 -1.076946730 -1.417237598 -1.076946730 -1.279737598 -1.326946730 -1.379737598 -1.326946730 -1.129737598 -1.576946730 -1.404737598 -1.576946730 -1.404737598 -1.776946730 -1.554737598 -1.776946730 -1.554737598 -1.576946730 -1.829737598 -1.576946730 -1.579737598 -1.326946730 -1.679737598 -1.326946730 -1.542237598 -1.076946730 -1.604737598 -1.076946730 Z" fill="none" stroke="#222" stroke-width="0.01" />
<path d="M -2.379708274 -0.568908524 -2.254708274 -0.868908524 -2.317208274 -0.868908524 -2.179708274 -1.118908524 -2.279708274 -1.118908524 -2.029708274 -1.368908524 -2.304708274 -1.368908524 -2.304708274 -1.568908524 -2.454708274 -1.568908524 -2.454708274 -1.368908524 -2.729708274 -1.368908524 -2.479708274 -1.118908524 -2.579708274 -1.118908524 -2.442208274 -0.868908524 -2.504708274 -0.868908524 Z" fill="none" stroke="#222" stroke-width="0.01" />
<path d="M -1.910772292 -0.171317460 -1.785772292 -0.471317460 -1.848272292 -0.471317460 -1.710772292 -0.721317460 -1.810772292 -0.721317460 -1.560772292 -0.971317460 -1.835772292 -0.971317460 -1.835772292 -1.171317460 -1.985772292 -1.171317460 -1.985772292 -0.971317460 -2.260772292 -0.971317460 -2.010772292 -0.721317460 -2.110772292 -0.721317460 -1.973272292 -0.471317460 -2.035772292 -0.471317460 Z" fill="none" stroke="#222" stroke-width="0.01" />
<path d="M -1.045017047 -0.317347740 -0.920017047 -0.617347740 -0.982517047 -0.617347740 -0.845017047 -0.867347740 -0.945017047 -0.867347740 -0.695017047 -1.117347740 -0.970017047 -1.117347740 -0.970017047 -1.317347740 -1.120017047 -1.317347740 -1.120017047 -1.117347740 -1.395017047 -1.117347740 -1.145017047 -0.867347740 -1.245017047 -0.867347740 -1.107517047 -0.617347740 -1.170017047 -0.617347740 Z" fill="none" stroke="#222" stroke-width="0.01" />
<rect x="-2.729708274" y="-2.190191522" width="2.034691228" height="2.034691228" fill="none" stroke="#000" stroke-width="0.01" />
</g>
<text x="40" y="92" font-family="monospace" font-size="12">centered</text>
<g transform="translate(500.000 520.000) scale(91.469949107 -91.469949107) translate(4.268104389 4.148872297)">
<path d="M -2.295377689 -1.115444567 -2.170377689 -1.415444567 -2.232877689 -1.415444567 -2.095377689 -1.665444567 -2.195377689 -1.665444567 -1.945377689 -1.915444567 -2.220377689 -1.915444567 -2.220377689 -2.115444567 -2.370377689 -2.115444567 -2.370377689 -1.915444567 -2.645377689 -1.915444567 -2.395377689 -1.665444567 -2.495377689 -1.665444567 -2.357877689 -1.415444567 -2.420377689 -1.415444567 Z" fill="none" stroke="#222" stroke-width="0.01" />
<path d="M -1.794118919 -0.914185797 -1.669118919 -1.214185797 -1.731618919 -1.214185797 -1.594118919 -1.464185797 -1.694118919 -1.464185797 -1.444118919 -1.714185797 -1.719118919 -1.714185797 -1.719118919 -1.914185797 -1.869118919 -1.914185797 -1.869118919 -1.714185797 -2.144118919 -1.714185797 -1.894118919 -1.464185797 -1.994118919 -1.464185797 -1.856618919 -1.214185797 -1.919118919 -1.214185797 Z" fill="none" stroke="#222" stroke-width="0.01" />
<path d="M -1.293823489 -0.713983509 -1.168823489 -1.013983509 -1.231323489 -1.013983509 -1.093823489 -1.263983509 -1.193823489 -1.263983509 -0.943823489 -1.513983509 -1.218823489 -1.513983509 -1.218823489 -1.713983509 -1.368823489 -1.713983509 -1.368823489 -1.513983509 -1.643823489 -1.513983509 -1.393823489 -1.263983509 -1.493823489 -1.263983509 -1.356323489 -1.013983509 -1.418823489 -1.013983509 Z" fill="none" stroke="#222" stroke-width="0.01" />
<path d="M -2.272304182 -0.112002726 -2.147304182 -0.412002726 -2.209804182 -0.412002726 -2.072304182 -0.662002726 -2.172304182 -0.662002726 -1.922304182 -0.912002726 -2.197304182 -0.912002726 -2.197304182 -1.112002726 -2.347304182 -1.112002726 -2.347304182 -0.912002726 -2.622304182 -0.912002726 -2.372304182 -0.662002726 -2.472304182 -0.662002726 -2.334804182 -0.412002726 -2.397304182 -0.412002726 Z" fill="none" stroke="#222" stroke-width="0.01" />
<path d="M -1.681129189 -0.003177719 -1.556129189 -0.303177719 -1.618629189 -0.303177719 -1.481129189 -0.553177719 -1.581129189 -0.553177719 -1.331129189 -0.803177719 -1.606129189 -0.803177719 -1.606129189 -1.003177719 -1.756129189 -1.003177719 -1.756129189 -0.803177719 -2.031129189 -0.803177719 -1.781129189 -0.553177719 -1.881129189 -0.553177719 -1.743629189 -0.303177719 -1.806129189 -0.303177719 Z" fill="none" stroke="#222" stroke-width="0.01" />
<rect x="-2.850734013" y="-2.115444567" width="2.112266849" height="2.112266849" fill="none" stroke="#000" stroke-width="0.01" />
</g>
<text x="500" y="92" font-family="monospace" font-size="12">grid</text>
<g transform="translate(960.000 520.000) scale(91.469949107 -91.469949107) translate(4.268104389 4.148872297)">
<path d="M -2.263217307 -1.353061983 -2.138217307 -1.653061983 -2.200717307 -1.653061983 -2.063217307 -1.903061983 -2.163217307 -1.903061983 -1.913217307 -2.153061983 -2.188217307 -2.153061983 -2.188217307 -2.353061983 -2.338217307 -2.353061983 -2.338217307 -2.153061983 -2.613217307 -2.153061983 -2.363217307 -1.903061983 -2.463217307 -1.903061983 -2.325717307 -1.653061983 -2.388217307 -1.653061983 Z" fill="none" stroke="#222" stroke-width="0.01" />
<path d="M -1.809937007 -2.706342283 -1.934937007 -2.406342283 -1.872437007 -2.406342283 -2.009937007 -2.156342283 -1.909937007 -2.156342283 -2.159937007 -1.906342283 -1.884937007 -1.906342283 -1.884937007 -1.706342283 -1.734937007 -1.706342283 -1.734937007 -1.906342283 -1.459937007 -1.906342283 -1.709937007 -2.156342283 -1.609937007 -2.156342283 -1.747437007 -2.406342283 -1.684937007 -2.406342283 Z" fill="none" stroke="#222" stroke-width="0.01" />
<path d="M -1.356001449 -1.352406725 -1.231001449 -1.652406725 -1.293501449 -1.652406725 -1.156001449 -1.902406725 -1.256001449 -1.902406725 -1.006001449 -2.152406725 -1.281001449 -2.152406725 -1.281001449 -2.352406725 -1.431001449 -2.352406725 -1.431001449 -2.152406725 -1.706001449 -2.152406725 -1.456001449 -1.902406725 -1.556001449 -1.902406725 -1.418501449 -1.652406725 -1.481001449 -1.652406725 Z" fill="none" stroke="#222" stroke-width="0.01" />
<path d="M -2.535072701 -2.073922448 -2.660072701 -1.773922448 -2.597572701 -1.773922448 -2.735072701 -1.523922448 -2.635072701 -1.523922448 -2.885072701 -1.273922448 -2.610072701 -1.273922448 -2.610072701 -1.073922448 -2.460072701 -1.073922448 -2.460072701 -1.273922448 -2.185072701 -1.273922448 -2.435072701 -1.523922448 -2.335072701 -1.523922448 -2.472572701 -1.773922448 -2.410072701 -1.773922448 Z" fill="none" stroke="#222" stroke-width="0.01" />
<path d="M -1.847744219 -0.706213356 -1.722744219 -1.006213356 -1.785244219 -1.006213356 -1.647744219 -1.256213356 -1.747744219 -1.256213356 -1.497744219 -1.506213356 -1.772744219 -1.506213356 -1.772744219 -1.706213356 -1.922744219 -1.706213356 -1.922744219 -1.506213356 -2.197744219 -1.506213356 -1.947744219 -1.256213356 -2.047744219 -1.256213356 -1.910244219 -1.006213356 -1.972744219 -1.006213356 Z" fill="none" stroke="#222" stroke-width="0.01" />
<rect x="-2.945601539" y="-2.706342283" width="2.000128927" height="2.000128927" fill="none" stroke="#000" stroke-width="0.01" />
</g>
<text x="960" y="92" font-family="monospace" font-size="12">grid_alt180</text>
<g transform="translate(40.000 980.000) scale(91.469949107 -91.469949107) translate(4.268104389 4.148872297)">
<path d="M -2.093450854 -1.359315659 -2.217194540 -1.659836041 -2.261388714 -1.615641867 -2.340938227 -1.889645745 -2.411648905 -1.818935067 -2.411648905 -2.172488457 -2.606103270 -1.978034092 -2.747524626 -2.119455449 -2.853590643 -2.013389431 -2.712169287 -1.871968075 -2.906623652 -1.677513710 -2.553070261 -1.677513710 -2.623780939 -1.606803032 -2.349777062 -1.527253519 -2.393971236 -1.483059346 Z" fill="none" stroke="#222" stroke-width="0.01" />
<path d="M -2.198502278 -1.617982178 -1.897981896 -1.741725864 -1.942176070 -1.785920038 -1.668172193 -1.865469551 -1.738882871 -1.936180229 -1.385329480 -1.936180229 -1.579783845 -2.130634594 -1.438362489 -2.272055950 -1.544428506 -2.378121967 -1.685849862 -2.236700611 -1.880304227 -2.431154976 -1.880304227 -2.077601585 -1.951014905 -2.148312264 -2.030564418 -1.874308386 -2.074758592 -1.918502560 Z" fill="none" stroke="#222" stroke-width="0.01" />
<path d="M -0.765630108 -1.423727498 -0.889373794 -1.724247880 -0.933567968 -1.680053706 -1.013117481 -1.954057584 -1.083828159 -1.883346906 -1.083828159 -2.236900296 -1.278282524 -2.042445931 -1.419703880 -2.183867288 -1.525769897 -2.077801270 -1.384348541 -1.936379914 -1.578802906 -1.741925549 -1.225249515 -1.741925549 -1.295960194 -1.671214871 -1.021956316 -1.591665358 -1.066150490 -1.547471185 Z" fill="none" stroke="#222" stroke-width="0.01" />
<path d="M -2.890525353 -0.657429512 -2.590004971 -0.781173199 -2.634199145 -0.825367373 -2.360195268 -0.904916886 -2.430905946 -0.975627564 -2.077352555 -0.975627564 -2.271806920 -1.170081929 -2.130385564 -1.311503285 -2.236451581 -1.417569302 -2.377872937 -1.276147946 -2.572327302 -1.470602311 -2.572327302 -1.117048920 -2.643037980 -1.187759598 -2.722587493 -0.913755720 -2.766781667 -0.957949894 Z" fill="none" stroke="#222" stroke-width="0.01" />
<path d="M -1.315735735 -0.950725218 -1.439479422 -1.251245600 -1.483673596 -1.207051426 -1.563223108 -1.481055304 -1.633933787 -1.410344626 -1.633933787 -1.763898017 -1.828388151 -1.569443652 -1.969809508 -1.710865008 -2.075875525 -1.604798991 -1.934454169 -1.463377635 -2.128908533 -1.268923270 -1.775355143 -1.268923270 -1.846065821 -1.198212592 -1.572061943 -1.118663079 -1.616256117 -1.074468905 Z" fill="none" stroke="#222" stroke-width="0.01" />
<rect x="-2.906623652" y="-2.614789016" width="2.140993544" height="2.140993544" fill="none" stroke="#000" stroke-width="0.01" />
</g>
<text x="40" y="552" font-family="monospace" font-size="12">grid_alt45</text>
<g transform="translate(500.000 980.000) scale(91.469949107 -91.469949107) translate(4.268104389 4.148872297)">
<path d="M -2.811139561 -1.445320452 -2.510619179 -1.569064139 -2.554813353 -1.613258313 -2.280809475 -1.692807825 -2.351520154 -1.763518504 -1.997966763 -1.763518504 -2.192421128 -1.957972868 -2.050999772 -2.099394225 -2.157065789 -2.205460242 -2.298487145 -2.064038886 -2.492941510 -2.258493250 -2.492941510 -1.904939860 -2.563652188 -1.975650538 -2.643201701 -1.701646660 -2.687395875 -1.745840834 Z" fill="none" stroke="#222" stroke-width="0.01" />
<path d="M -1.373394358 -2.556926510 -1.673914740 -2.433182824 -1.629720566 -2.388988650 -1.903724444 -2.309439137 -1.833013766 -2.238728459 -2.186567156 -2.238728459 -1.992112791 -2.044274094 -2.133534148 -1.902852738 -2.027468130 -1.796786721 -1.886046774 -1.938208077 -1.691592409 -1.743753712 -1.691592409 -2.097307103 -1.620881731 -2.026596424 -1.541332218 -2.300600302 -1.497138045 -2.256406128 Z" fill="none" stroke="#222" stroke-width="0.01" />
<path d="M -1.889542262 -1.378947451 -1.589021880 -1.502691138 -1.633216054 -1.546885312 -1.359212176 -1.626434824 -1.429922854 -1.697145503 -1.076369463 -1.697145503 -1.270823828 -1.891599867 -1.129402472 -2.033021224 -1.235468489 -2.139087241 -1.376889845 -1.997665885 -1.571344210 -2.192120249 -1.571344210 -1.838566859 -1.642054888 -1.909277537 -1.721604401 -1.635273659 -1.765798575 -1.679467833 Z" fill="none" stroke="#222" stroke-width="0.01" />
<path d="M -1.798143105 -1.845173786 -2.098663487 -1.721430099 -2.054469314 -1.677235925 -2.328473191 -1.597686412 -2.257762513 -1.526975734 -2.611315904 -1.526975734 -2.416861539 -1.332521369 -2.558282895 -1.191100013 -2.452216878 -1.085033996 -2.310795522 -1.226455352 -2.116341157 -1.032000987 -2.116341157 -1.385554378 -2.045630479 -1.314843700 -1.966080966 -1.588847577 -1.921886792 -1.544653404 Z" fill="none" stroke="#222" stroke-width="0.01" />
<path d="M -2.315795190 -0.666424338 -2.015274808 -0.790168025 -2.059468982 -0.834362199 -1.785465104 -0.913911712 -1.856175782 -0.984622390 -1.502622392 -0.984622390 -1.697076757 -1.179076755 -1.555655400 -1.320498111 -1.661721418 -1.426564128 -1.803142774 -1.285142772 -1.997597139 -1.479597137 -1.997597139 -1.126043746 -2.068307817 -1.196754424 -2.147857330 -0.922750546 -2.192051504 -0.966944720 Z" fill="none" stroke="#222" stroke-width="0.01" />
<rect x="-2.889005598" y="-2.556926510" width="1.890502172" height="1.890502172" fill="none" stroke="#000" stroke-width="0.01" />
</g>
<text x="500" y="552" font-family="monospace" font-size="12">alternating</text>
<g transform="translate(960.000 980.000) scale(91.469949107 -91.469949107) translate(4.268104389 4.148872297)">
<path d="M -2.715703123 -1.675263551 -2.590703123 -1.975263551 -2.653203123 -1.975263551 -2.515703123 -2.225263551 -2.615703123 -2.225263551 -2.365703123 -2.475263551 -2.640703123 -2.475263551 -2.640703123 -2.675263551 -2.790703123 -2.675263551 -2.790703123 -2.475263551 -3.065703123 -2.475263551 -2.815703123 -2.225263551 -2.915703123 -2.225263551 -2.778203123 -1.975263551 -2.840703123 -1.975263551 Z" fill="none" stroke="#222" stroke-width="0.01" />
<path d="M -2.442384116 -3.480977061 -2.567384116 -3.180977061 -2.504884116 -3.180977061 -2.642384116 -2.930977061 -2.542384116 -2.930977061 -2.792384116 -2.680977061 -2.517384116 -2.680977061 -2.517384116 -2.480977061 -2.367384116 -2.480977061 -2.367384116 -2.680977061 -2.092384116 -2.680977061 -2.342384116 -2.930977061 -2.242384116 -2.930977061 -2.379884116 -3.180977061 -2.317384116 -3.180977061 Z" fill="none" stroke="#222" stroke-width="0.01" />
<path d="M -2.007946248 -1.880977006 -1.882946248 -2.180977006 -1.945446248 -2.180977006 -1.807946248 -2.430977006 -1.907946248 -2.430977006 -1.657946248 -2.680977006 -1.932946248 -2.680977006 -1.932946248 -2.880977006 -2.082946248 -2.880977006 -2.082946248 -2.680977006 -2.357946248 -2.680977006 -2.107946248 -2.430977006 -2.207946248 -2.430977006 -2.070446248 -2.180977006 -2.132946248 -2.180977006 Z" fill="none" stroke="#222" stroke-width="0.01" />
<path d="M -2.306022542 -2.610782256 -2.431022542 -2.310782256 -2.368522542 -2.310782256 -2.506022542 -2.060782256 -2.406022542 -2.060782256 -2.656022542 -1.810782256 -2.381022542 -1.810782256 -2.381022542 -1.610782256 -2.231022542 -1.610782256 -2.231022542 -1.810782256 -1.956022542 -1.810782256 -2.206022542 -2.060782256 -2.106022542 -2.060782256 -2.243522542 -2.310782256 -2.181022542 -2.310782256 Z" fill="none" stroke="#222" stroke-width="0.01" />
<path d="M -1.875298155 -1.010782167 -1.750298155 -1.310782167 -1.812798155 -1.310782167 -1.675298155 -1.560782167 -1.775298155 -1.560782167 -1.525298155 -1.810782167 -1.800298155 -1.810782167 -1.800298155 -2.010782167 -1.950298155 -2.010782167 -1.950298155 -1.810782167 -2.225298155 -1.810782167 -1.975298155 -1.560782167 -2.075298155 -1.560782167 -1.937798155 -1.310782167 -2.000298155 -1.310782167 Z" fill="none" stroke="#222" stroke-width="0.01" />
<rect x="-3.530598086" y="-3.480977061" width="2.470194894" height="2.470194894" fill="none" stroke="#000" stroke-width="0.01" />
</g>
<text x="960" y="552" font-family="monospace" font-size="12">sheared_brick</text>
<g transform="translate(40.000 1440.000) scale(91.469949107 -91.469949107) translate(4.268104389 4.148872297)">
<path d="M -3.822127012 -1.819797444 -3.521606630 -1.943541131 -3.565800804 -1.987735305 -3.291796926 -2.067284818 -3.362507605 -2.137995496 -3.008954214 -2.137995496 -3.203408579 -2.332449861 -3.061987223 -2.473871217 -3.168053240 -2.579937234 -3.309474596 -2.438515878 -3.503928961 -2.632970243 -3.503928961 -2.279416852 -3.574639639 -2.350127530 -3.654189152 -2.076123653 -3.698383326 -2.120317826 Z" fill="none" stroke="#222" stroke-width="0.01" />
<path d="M -2.097033879 -2.304987368 -2.397554261 -2.181243681 -2.353360087 -2.137049507 -2.627363964 -2.057499995 -2.556653286 -1.986789316 -2.910206677 -1.986789316 -2.715752312 -1.792334952 -2.857173668 -1.650913595 -2.751107651 -1.544847578 -2.609686295 -1.686268934 -2.415231930 -1.491814570 -2.415231930 -1.845367960 -2.344521252 -1.774657282 -2.264971739 -2.048661160 -2.220777565 -2.004466986 Z" fill="none" stroke="#222" stroke-width="0.01" />
<path d="M -2.927813248 -0.873018683 -2.627292866 -0.996762370 -2.671487040 -1.040956544 -2.397483162 -1.120506057 -2.468193840 -1.191216735 -2.114640449 -1.191216735 -2.309094814 -1.385671099 -2.167673458 -1.527092456 -2.273739475 -1.633158473 -2.415160831 -1.491737117 -2.609615196 -1.686191481 -2.609615196 -1.332638091 -2.680325874 -1.403348769 -2.759875387 -1.129344891 -2.804069561 -1.173539065 Z" fill="none" stroke="#222" stroke-width="0.01" />
<path d="M -2.273351839 -3.339034564 -2.573872221 -3.215290878 -2.529678047 -3.171096704 -2.803681924 -3.091547191 -2.732971246 -3.020836513 -3.086524637 -3.020836513 -2.892070272 -2.826382148 -3.033491628 -2.684960792 -2.927425611 -2.578894775 -2.786004255 -2.720316131 -2.591549890 -2.525861766 -2.591549890 -2.879415157 -2.520839212 -2.808704479 -2.441289699 -3.082708356 -2.397095525 -3.038514182 Z" fill="none" stroke="#222" stroke-width="0.01" />
<path d="M -3.104055522 -1.906996548 -2.803535140 -2.030740235 -2.847729314 -2.074934408 -2.573725436 -2.154483921 -2.644436114 -2.225194599 -2.290882724 -2.225194599 -2.485337088 -2.419648964 -2.343915732 -2.561070320 -2.449981749 -2.667136338 -2.591403106 -2.525714981 -2.785857470 -2.720169346 -2.785857470 -2.366615956 -2.856568148 -2.437326634 -2.936117661 -2.163322756 -2.980311835 -2.207516930 Z" fill="none" stroke="#222" stroke-width="0.01" />
<rect x="-4.192588386" y="-3.339034564" width="2.466015881" height="2.466015881" fill="none" stroke="#000" stroke-width="0.01" />
</g>
<text x="40" y="1012" font-family="monospace" font-size="12">diamond_lattice</text>
<g transform="translate(500.000 1440.000) scale(91.469949107 -91.469949107) translate(4.268104389 4.148872297)">
<path d="M -2.648533956 -1.407381491 -2.523533956 -1.707381491 -2.586033956 -1.707381491 -2.448533956 -1.957381491 -2.548533956 -1.957381491 -2.298533956 -2.207381491 -2.573533956 -2.207381491 -2.573533956 -2.407381491 -2.723533956 -2.407381491 -2.723533956 -2.207381491 -2.998533956 -2.207381491 -2.748533956 -1.957381491 -2.848533956 -1.957381491 -2.711033956 -1.707381491 -2.773533956 -1.707381491 Z" fill="none" stroke="#222" stroke-width="0.01" />
<path d="M -2.142345578 -1.201193113 -2.017345578 -1.501193113 -2.079845578 -1.501193113 -1.942345578 -1.751193113 -2.042345578 -1.751193113 -1.792345578 -2.001193113 -2.067345578 -2.001193113 -2.067345578 -2.201193113 -2.217345578 -2.201193113 -2.217345578 -2.001193113 -2.492345578 -2.001193113 -2.242345578 -1.751193113 -2.342345578 -1.751193113 -2.204845578 -1.501193113 -2.267345578 -1.501193113 Z" fill="none" stroke="#222" stroke-width="0.01" />
<path d="M -1.503017197 -1.140521494 -1.378017197 -1.440521494 -1.440517197 -1.440521494 -1.303017197 -1.690521494 -1.403017197 -1.690521494 -1.153017197 -1.940521494 -1.428017197 -1.940521494 -1.428017197 -2.140521494 -1.578017197 -2.140521494 -1.578017197 -1.940521494 -1.853017197 -1.940521494 -1.603017197 -1.690521494 -1.703017197 -1.690521494 -1.565517197 -1.440521494 -1.628017197 -1.440521494 Z" fill="none" stroke="#222" stroke-width="0.01" />
<path d="M -3.219318864 -1.257265272 -2.919318864 -1.132265272 -2.919318864 -1.194765272 -2.669318864 -1.057265272 -2.669318864 -1.157265272 -2.419318864 -0.907265272 -2.419318864 -1.182265272 -2.219318864 -1.182265272 -2.219318864 -1.332265272 -2.419318864 -1.332265272 -2.419318864 -1.607265272 -2.669318864 -1.357265272 -2.669318864 -1.457265272 -2.919318864 -1.319765272 -2.919318864 -1.382265272 Z" fill="none" stroke="#222" stroke-width="0.01" />
<path d="M -2.418408209 -1.063195186 -2.118408209 -0.938195186 -2.118408209 -1.000695186 -1.868408209 -0.863195186 -1.868408209 -0.963195186 -1.618408209 -0.713195186 -1.618408209 -0.988195186 -1.418408209 -0.988195186 -1.418408209 -1.138195186 -1.618408209 -1.138195186 -1.618408209 -1.413195186 -1.868408209 -1.163195186 -1.868408209 -1.263195186 -2.118408209 -1.125695186 -2.118408209 -1.188195186 Z" fill="none" stroke="#222" stroke-width="0.01" />
<rect x="-3.219318864" y="-2.593439172" width="2.066301668" height="2.066301668" fill="none" stroke="#000" stroke-width="0.01" />
</g>
<text x="500" y="1012" font-family="monospace" font-size="12">herringbone</text>
<g transform="translate(960.000 1440.000) scale(91.469949107 -91.469949107) translate(4.268104389 4.148872297)">
<path d="M -1.359583602 -0.954624278 -1.234583602 -1.254624278 -1.297083602 -1.254624278 -1.159583602 -1.504624278 -1.259583602 -1.504624278 -1.009583602 -1.754624278 -1.284583602 -1.754624278 -1.284583602 -1.954624278 -1.434583602 -1.954624278 -1.434583602 -1.754624278 -1.709583602 -1.754624278 -1.459583602 -1.504624278 -1.559583602 -1.504624278 -1.422083602 -1.254624278 -1.484583602 -1.254624278 Z" fill="none" stroke="#222" stroke-width="0.01" />
<path d="M -2.517035167 -1.215289217 -2.193091087 -1.189112251 -2.212404650 -1.248553283 -1.932150684 -1.195037261 -1.963052383 -1.290142912 -1.648034006 -1.129633032 -1.733013679 -1.391173574 -1.542802376 -1.452976973 -1.589154925 -1.595635450 -1.779366228 -1.533832051 -1.864345902 -1.795372593 -2.024855782 -1.480354216 -2.055757481 -1.575459867 -2.251031774 -1.367435348 -2.270345336 -1.426876380 Z" fill="none" stroke="#222" stroke-width="0.01" />
<path d="M -2.627337349 -2.396250763 -2.552128897 -2.080072508 -2.501565335 -2.116809086 -2.465858859 -1.833734366 -2.384957159 -1.892512891 -2.440265095 -1.543312329 -2.217785422 -1.704953274 -2.100228371 -1.543149875 -1.978875822 -1.631317663 -2.096432872 -1.793121061 -1.873953199 -1.954762006 -2.223153761 -2.010069941 -2.142252061 -2.068848467 -2.400438211 -2.190282243 -2.349874649 -2.227018821 Z" fill="none" stroke="#222" stroke-width="0.01" />
<path d="M -1.538116205 -2.865986052 -1.815578905 -2.696754110 -1.765015343 -2.660017532 -2.023201493 -2.538583755 -1.942299793 -2.479805230 -2.291500355 -2.424497295 -2.069020681 -2.262856350 -2.186577732 -2.101052951 -2.065225183 -2.012885163 -1.947668132 -2.174688562 -1.725188459 -2.013047618 -1.780496394 -2.362248180 -1.699594695 -2.303469654 -1.663888218 -2.586544375 -1.613324656 -2.549807797 Z" fill="none" stroke="#222" stroke-width="0.01" />
<path d="M -0.754898945 -1.974876234 -1.001588775 -2.186463397 -1.020902338 -2.127022365 -1.216176630 -2.335046884 -1.247078329 -2.239941233 -1.407588210 -2.554959610 -1.492567883 -2.293419068 -1.682779187 -2.355222467 -1.729131736 -2.212563990 -1.538920432 -2.150760591 -1.623900106 -1.889220049 -1.308881728 -2.049729929 -1.339783428 -1.954624278 -1.059529462 -2.008140300 -1.078843024 -1.948699268 Z" fill="none" stroke="#222" stroke-width="0.01" />
<rect x="-2.646799034" y="-2.865986052" width="1.911361774" height="1.911361774" fill="none" stroke="#000" stroke-width="0.01" />
</g>
<text x="960" y="1012" font-family="monospace" font-size="12">circle_ring</text>
<g transform="translate(40.000 1900.000) scale(91.469949107 -91.469949107) translate(4.268104389 4.148872297)">
<path d="M -1.964978698 -1.500811834 -1.839978698 -1.800811834 -1.902478698 -1.800811834 -1.764978698 -2.050811834 -1.864978698 -2.050811834 -1.614978698 -2.300811834 -1.889978698 -2.300811834 -1.889978698 -2.500811834 -2.039978698 -2.500811834 -2.039978698 -2.300811834 -2.314978698 -2.300811834 -2.064978698 -2.050811834 -2.164978698 -2.050811834 -2.027478698 -1.800811834 -2.089978698 -1.800811834 Z" fill="none" stroke="#222" stroke-width="0.01" />
<path d="M -2.140131005 -1.242097710 -1.832248990 -1.346182603 -1.873497937 -1.393137629 -1.594930153 -1.454832359 -1.660928468 -1.529960400 -1.308112580 -1.507136085 -1.489607945 -1.713738197 -1.339351864 -1.845734826 -1.438349336 -1.958426887 -1.588605417 -1.826430257 -1.770100782 -2.033032369 -1.792925097 -1.680216481 -1.858923412 -1.755344522 -1.955995830 -1.487047679 -1.997244777 -1.534002705 Z" fill="none" stroke="#222" stroke-width="0.01" />
<path d="M -3.014705782 -1.668485637 -2.733311900 -1.505874188 -2.725259119 -1.567853238 -2.495059035 -1.399288203 -2.482174585 -1.498454684 -2.266469506 -1.218327358 -2.231037270 -1.491035181 -2.032704308 -1.465266282 -2.013377634 -1.614016004 -2.211710596 -1.639784903 -2.176278360 -1.912492725 -2.456405686 -1.696787646 -2.443521237 -1.795954127 -2.709153558 -1.691811340 -2.701100777 -1.753790390 Z" fill="none" stroke="#222" stroke-width="0.01" />
<path d="M -2.904866975 -2.617103547 -2.841318552 -2.298377022 -2.789440206 -2.333232254 -2.764151638 -2.049037359 -2.681146284 -2.104805731 -2.749238739 -1.757871418 -2.520974016 -1.911234440 -2.409437273 -1.745223733 -2.284929243 -1.828876291 -2.396465986 -1.994886998 -2.168201264 -2.148250020 -2.515135577 -2.216342475 -2.432130224 -2.272110846 -2.685683514 -2.402942719 -2.633805168 -2.437797951 Z" fill="none" stroke="#222" stroke-width="0.01" />
<path d="M -2.173925184 -3.255831875 -2.371437289 -2.997735054 -2.311012402 -2.981763736 -2.507832429 -2.775201089 -2.411152609 -2.749646979 -2.716737433 -2.571832706 -2.450867930 -2.501558903 -2.501976150 -2.308199265 -2.356956421 -2.269868099 -2.305848201 -2.463227738 -2.039978698 -2.392953935 -2.217792971 -2.698538758 -2.121113152 -2.672984648 -2.190162627 -2.949821098 -2.129737740 -2.933849779 Z" fill="none" stroke="#222" stroke-width="0.01" />
<rect x="-3.180161439" y="-3.255831875" width="2.037504516" height="2.037504516" fill="none" stroke="#000" stroke-width="0.01" />
</g>
<text x="40" y="1472" font-family="monospace" font-size="12">spiral</text>
<g transform="translate(500.000 1900.000) scale(91.469949107 -91.469949107) translate(4.268104389 4.148872297)">
<path d="M -2.737825720 -1.683092107 -2.437825720 -1.558092107 -2.437825720 -1.620592107 -2.187825720 -1.483092107 -2.187825720 -1.583092107 -1.937825720 -1.333092107 -1.937825720 -1.608092107 -1.737825720 -1.608092107 -1.737825720 -1.758092107 -1.937825720 -1.758092107 -1.937825720 -2.033092107 -2.187825720 -1.783092107 -2.187825720 -1.883092107 -2.437825720 -1.745592107 -2.437825720 -1.808092107 Z" fill="none" stroke="#222" stroke-width="0.01" />
<path d="M -1.396873810 -1.627903274 -1.702520760 -1.517427296 -1.660302617 -1.471341741 -1.937524751 -1.403857388 -1.869975722 -1.330120500 -2.223190515 -1.345590146 -2.037430684 -1.142813705 -2.184904460 -1.007715646 -2.083580916 -0.897110314 -1.936107140 -1.032208373 -1.750347309 -0.829431932 -1.734877663 -1.182646725 -1.667328634 -1.108909837 -1.575866330 -1.379170631 -1.533648186 -1.333085076 Z" fill="none" stroke="#222" stroke-width="0.01" />
<path d="M -1.695944920 -1.662594579 -1.545195822 -1.950517676 -1.607456512 -1.955981784 -1.448626563 -2.193003507 -1.548243667 -2.201746079 -1.277344476 -2.428932409 -1.551291512 -2.452974483 -1.533806367 -2.652208691 -1.683232023 -2.665322550 -1.700717168 -2.466088342 -1.974664204 -2.490130416 -1.747477875 -2.219231224 -1.847094979 -2.227973797 -1.731977892 -1.966910000 -1.794238582 -1.972374107 Z" fill="none" stroke="#222" stroke-width="0.01" />
<path d="M -1.543801112 -2.046523151 -1.460469548 -1.732388068 -1.410869501 -1.770415496 -1.367879889 -1.488354965 -1.288519814 -1.549198851 -1.334810286 -1.198688948 -1.116570080 -1.366009635 -0.994882308 -1.207289485 -0.875842195 -1.298555314 -0.997529967 -1.457275464 -0.779289761 -1.624596151 -1.129799664 -1.670886624 -1.050439588 -1.731730510 -1.311669407 -1.846470354 -1.262069360 -1.884497783 Z" fill="none" stroke="#222" stroke-width="0.01" />
<path d="M -1.796272266 -2.064704023 -2.069913568 -2.240047794 -2.080799940 -2.178503201 -2.303028293 -2.357446793 -2.320446488 -2.258975445 -2.523079372 -2.548699303 -2.570979408 -2.277903095 -2.767922105 -2.312739485 -2.794049398 -2.165032462 -2.597106701 -2.130196072 -2.645006737 -1.859399864 -2.355282878 -2.062032748 -2.372701073 -1.963561399 -2.102572684 -2.055414016 -2.113459056 -1.993869423 Z" fill="none" stroke="#222" stroke-width="0.01" />
<rect x="-2.794049398" y="-2.754757059" width="2.014759637" height="2.014759637" fill="none" stroke="#000" stroke-width="0.01" />
</g>
<text x="500" y="1472" font-family="monospace" font-size="12">sunflower</text>
<g transform="translate(960.000 1900.000) scale(91.469949107 -91.469949107) translate(4.268104389 4.148872297)">
<path d="M -2.265946368 -2.102894921 -2.140946368 -2.402894921 -2.203446368 -2.402894921 -2.065946368 -2.652894921 -2.165946368 -2.652894921 -1.915946368 -2.902894921 -2.190946368 -2.902894921 -2.190946368 -3.102894921 -2.340946368 -3.102894921 -2.340946368 -2.902894921 -2.615946368 -2.902894921 -2.365946368 -2.652894921 -2.465946368 -2.652894921 -2.328446368 -2.402894921 -2.390946368 -2.402894921 Z" fill="none" stroke="#222" stroke-width="0.01" />
<path d="M -1.835340363 -3.702894921 -1.960340363 -3.402894921 -1.897840363 -3.402894921 -2.035340363 -3.152894921 -1.935340363 -3.152894921 -2.185340363 -2.902894921 -1.910340363 -2.902894921 -1.910340363 -2.702894921 -1.760340363 -2.702894921 -1.760340363 -2.902894921 -1.485340363 -2.902894921 -1.735340363 -3.152894921 -1.635340363 -3.152894921 -1.772840363 -3.402894921 -1.710340363 -3.402894921 Z" fill="none" stroke="#222" stroke-width="0.01" />
<path d="M -2.044584531 -2.634163329 -2.169584531 -2.334163329 -2.107084531 -2.334163329 -2.244584531 -2.084163329 -2.144584531 -2.084163329 -2.394584531 -1.834163329 -2.119584531 -1.834163329 -2.119584531 -1.634163329 -1.969584531 -1.634163329 -1.969584531 -1.834163329 -1.694584531 -1.834163329 -1.944584531 -2.084163329 -1.844584531 -2.084163329 -1.982084531 -2.334163329 -1.919584531 -2.334163329 Z" fill="none" stroke="#222" stroke-width="0.01" />
<path d="M -2.010307244 -2.596890978 -1.710307244 -2.471890978 -1.710307244 -2.534390978 -1.460307244 -2.396890978 -1.460307244 -2.496890978 -1.210307244 -2.246890978 -1.210307244 -2.521890978 -1.010307244 -2.521890978 -1.010307244 -2.671890978 -1.210307244 -2.671890978 -1.210307244 -2.946890978 -1.460307244 -2.696890978 -1.460307244 -2.796890978 -1.710307244 -2.659390978 -1.710307244 -2.721890978 Z" fill="none" stroke="#222" stroke-width="0.01" />
<path d="M -2.372400481 -2.474373124 -2.678047431 -2.363897146 -2.635829287 -2.317811591 -2.913051422 -2.250327238 -2.845502393 -2.176590350 -3.198717186 -2.192059996 -3.012957355 -1.989283555 -3.160431131 -1.854185496 -3.059107587 -1.743580164 -2.911633811 -1.878678223 -2.725873980 -1.675901781 -2.710404334 -2.029116574 -2.642855305 -1.955379687 -2.551393001 -2.225640481 -2.509174857 -2.179554926 Z" fill="none" stroke="#222" stroke-width="0.01" />
<rect x="-3.198717186" y="-3.762734096" width="2.188409942" height="2.188409942" fill="none" stroke="#000" stroke-width="0.01" />
</g>
<text x="960" y="1472" font-family="monospace" font-size="12">core_plus_spiral</text>
<g transform="translate(40.000 2360.000) scale(91.469949107 -91.469949107) translate(4.268104389 4.148872297)">
<path d="M -2.510136606 -1.087619096 -2.385136606 -1.387619096 -2.447636606 -1.387619096 -2.310136606 -1.637619096 -2.410136606 -1.637619096 -2.160136606 -1.887619096 -2.435136606 -1.887619096 -2.435136606 -2.087619096 -2.585136606 -2.087619096 -2.585136606 -1.887619096 -2.860136606 -1.887619096 -2.610136606 -1.637619096 -2.710136606 -1.637619096 -2.572636606 -1.387619096 -2.635136606 -1.387619096 Z" fill="none" stroke="#222" stroke-width="0.01" />
<path d="M -3.083377586 -2.291409044 -2.783377586 -2.166409044 -2.783377586 -2.228909044 -2.533377586 -2.091409044 -2.533377586 -2.191409044 -2.283377586 -1.941409044 -2.283377586 -2.216409044 -2.083377586 -2.216409044 -2.083377586 -2.366409044 -2.283377586 -2.366409044 -2.283377586 -2.641409044 -2.533377586 -2.391409044 -2.533377586 -2.491409044 -2.783377586 -2.353909044 -2.783377586 -2.416409044 Z" fill="none" stroke="#222" stroke-width="0.01" />
<path d="M -1.933049702 -1.408531450 -1.808049702 -1.708531450 -1.870549702 -1.708531450 -1.733049702 -1.958531450 -1.833049702 -1.958531450 -1.583049702 -2.208531450 -1.858049702 -2.208531450 -1.858049702 -2.408531450 -2.008049702 -2.408531450 -2.008049702 -2.208531450 -2.283049702 -2.208531450 -2.033049702 -1.958531450 -2.133049702 -1.958531450 -1.995549702 -1.708531450 -2.058049702 -1.708531450 Z" fill="none" stroke="#222" stroke-width="0.01" />
<path d="M -3.736410780 -1.683941254 -3.436410780 -1.558941254 -3.436410780 -1.621441254 -3.186410780 -1.483941254 -3.186410780 -1.583941254 -2.936410780 -1.333941254 -2.936410780 -1.608941254 -2.736410780 -1.608941254 -2.736410780 -1.758941254 -2.936410780 -1.758941254 -2.936410780 -2.033941254 -3.186410780 -1.783941254 -3.186410780 -1.883941254 -3.436410780 -1.746441254 -3.436410780 -1.808941254 Z" fill="none" stroke="#222" stroke-width="0.01" />
<path d="M -2.767468569 -2.378656913 -2.642468569 -2.678656913 -2.704968569 -2.678656913 -2.567468569 -2.928656913 -2.667468569 -2.928656913 -2.417468569 -3.178656913 -2.692468569 -3.178656913 -2.692468569 -3.378656913 -2.842468569 -3.378656913 -2.842468569 -3.178656913 -3.117468569 -3.178656913 -2.867468569 -2.928656913 -2.967468569 -2.928656913 -2.829968569 -2.678656913 -2.892468569 -2.678656913 Z" fill="none" stroke="#222" stroke-width="0.01" />
<rect x="-3.805249149" y="-3.378656913" width="2.291037817" height="2.291037817" fill="none" stroke="#000" stroke-width="0.01" />
</g>
<text x="40" y="1932" font-family="monospace" font-size="12">random_box</text>
</svg>
