<?xml version="1.0" encoding="UTF-8"?>
<svg xmlns="http://www.w3.org/2000/svg" width="1560" height="1000" viewBox="0 0 1560 1000">
<rect x="0" y="0" width="1560" height="1000" fill="white"/>
<text x="12" y="24" font-family="sans-serif" font-size="16" fill="#000">Warm-start comparison (N=10) — shared world scale</text>
<rect x="1.0" y="41.0" width="518.0" height="478.0" fill="none" stroke="#ddd"/>
<text x="12.0" y="62.0" font-family="sans-serif" font-size="14" fill="#000">grid0</text>
<rect x="18.0" y="76.0" width="484.0" height="428.0" fill="none" stroke="#f2f2f2"/>
<rect x="141.37" y="154.92" width="237.25" height="237.25" fill="none" stroke="#888" stroke-width="1.0"/>
<polyline fill="none" stroke="#000" stroke-width="1.1" points="166.41,154.92 172.66,169.94 169.53,169.94 176.42,182.45 171.41,182.45 183.93,194.97 170.16,194.97 170.16,204.98 162.65,204.98 162.65,194.97 148.88,194.97 161.40,182.45 156.39,182.45 163.28,169.94 160.15,169.94 166.41,154.92"/>
<circle cx="166.41" cy="194.97" r="2.2" fill="#000"/>
<polyline fill="none" stroke="#000" stroke-width="1.1" points="276.49,154.92 282.75,169.94 279.62,169.94 286.50,182.45 281.50,182.45 294.01,194.97 280.25,194.97 280.25,204.98 272.74,204.98 272.74,194.97 258.97,194.97 271.49,182.45 266.48,182.45 273.36,169.94 270.23,169.94 276.49,154.92"/>
<circle cx="276.49" cy="194.97" r="2.2" fill="#000"/>
<polyline fill="none" stroke="#000" stroke-width="1.1" points="353.59,235.46 359.85,250.48 356.72,250.48 363.61,263.00 358.60,263.00 371.12,275.51 357.35,275.51 357.35,285.53 349.84,285.53 349.84,275.51 336.07,275.51 348.59,263.00 343.58,263.00 350.47,250.48 347.34,250.48 353.59,235.46"/>
<circle cx="353.59" cy="275.51" r="2.2" fill="#000"/>
<polyline fill="none" stroke="#000" stroke-width="1.1" points="353.59,154.92 359.85,169.94 356.72,169.94 363.61,182.45 358.60,182.45 371.12,194.97 357.35,194.97 357.35,204.98 349.84,204.98 349.84,194.97 336.07,194.97 348.59,182.45 343.58,182.45 350.47,169.94 347.34,169.94 353.59,154.92"/>
<circle cx="353.59" cy="194.97" r="2.2" fill="#000"/>
<polyline fill="none" stroke="#000" stroke-width="1.1" points="166.41,263.03 172.66,278.05 169.53,278.05 176.42,290.56 171.41,290.56 183.93,303.08 170.16,303.08 170.16,313.09 162.65,313.09 162.65,303.08 148.88,303.08 161.40,290.56 156.39,290.56 163.28,278.05 160.15,278.05 166.41,263.03"/>
<circle cx="166.41" cy="303.08" r="2.2" fill="#000"/>
<polyline fill="none" stroke="#000" stroke-width="1.1" points="224.71,211.10 230.97,226.12 227.84,226.12 234.72,238.63 229.71,238.63 242.23,251.15 228.46,251.15 228.46,261.16 220.95,261.16 220.95,251.15 207.19,251.15 219.70,238.63 214.70,238.63 221.58,226.12 218.45,226.12 224.71,211.10"/>
<circle cx="224.71" cy="251.15" r="2.2" fill="#000"/>
<polyline fill="none" stroke="#000" stroke-width="1.1" points="281.07,269.09 287.33,284.11 284.20,284.11 291.08,296.63 286.07,296.63 298.59,309.14 284.82,309.14 284.82,319.15 277.31,319.15 277.31,309.14 263.55,309.14 276.06,296.63 271.05,296.63 277.94,284.11 274.81,284.11 281.07,269.09"/>
<circle cx="281.07" cy="309.14" r="2.2" fill="#000"/>
<polyline fill="none" stroke="#000" stroke-width="1.1" points="342.69,331.21 348.95,346.23 345.82,346.23 352.70,358.75 347.70,358.75 360.21,371.27 346.44,371.27 346.44,381.28 338.93,381.28 338.93,371.27 325.17,371.27 337.68,358.75 332.68,358.75 339.56,346.23 336.43,346.23 342.69,331.21"/>
<circle cx="342.69" cy="371.27" r="2.2" fill="#000"/>
<polyline fill="none" stroke="#000" stroke-width="1.1" points="166.41,342.11 172.66,357.13 169.53,357.13 176.42,369.64 171.41,369.64 183.93,382.16 170.16,382.16 170.16,392.17 162.65,392.17 162.65,382.16 148.88,382.16 161.40,369.64 156.39,369.64 163.28,357.13 160.15,357.13 166.41,342.11"/>
<circle cx="166.41" cy="382.16" r="2.2" fill="#000"/>
<polyline fill="none" stroke="#000" stroke-width="1.1" points="247.28,342.11 253.54,357.13 250.41,357.13 257.30,369.64 252.29,369.64 264.80,382.16 251.04,382.16 251.04,392.17 243.53,392.17 243.53,382.16 229.76,382.16 242.28,369.64 237.27,369.64 244.15,357.13 241.02,357.13 247.28,342.11"/>
<circle cx="247.28" cy="382.16" r="2.2" fill="#000"/>
<rect x="521.0" y="41.0" width="518.0" height="478.0" fill="none" stroke="#ddd"/>
<text x="532.0" y="62.0" font-family="sans-serif" font-size="14" fill="#000">alt45</text>
<rect x="538.0" y="76.0" width="484.0" height="428.0" fill="none" stroke="#f2f2f2"/>
<rect x="657.21" y="164.33" width="249.59" height="249.59" fill="none" stroke="#888" stroke-width="1.0"/>
<polyline fill="none" stroke="#000" stroke-width="1.1" points="660.16,190.36 675.21,196.55 673.00,198.77 686.71,202.75 683.17,206.29 700.87,206.29 691.14,216.02 698.22,223.10 692.91,228.41 685.83,221.33 676.09,231.07 676.09,213.37 672.55,216.91 668.57,203.19 666.36,205.40 660.16,190.36"/>
<circle cx="688.48" cy="218.68" r="2.2" fill="#000"/>
<polyline fill="none" stroke="#000" stroke-width="1.1" points="793.66,218.05 778.61,211.85 780.82,209.64 767.11,205.66 770.65,202.12 752.95,202.12 762.68,192.38 755.60,185.30 760.91,179.99 767.99,187.07 777.73,177.34 777.73,195.04 781.27,191.50 785.25,205.21 787.46,203.00 793.66,218.05"/>
<circle cx="765.34" cy="189.73" r="2.2" fill="#000"/>
<polyline fill="none" stroke="#000" stroke-width="1.1" points="818.04,164.98 833.09,171.18 830.87,173.39 844.59,177.38 841.05,180.92 858.75,180.92 849.02,190.65 856.10,197.73 850.79,203.04 843.71,195.96 833.97,205.70 833.97,188.00 830.43,191.54 826.45,177.82 824.24,180.03 818.04,164.98"/>
<circle cx="846.36" cy="193.31" r="2.2" fill="#000"/>
<polyline fill="none" stroke="#000" stroke-width="1.1" points="906.80,296.10 891.75,289.90 893.97,287.69 880.25,283.71 883.79,280.17 866.09,280.17 875.82,270.43 868.74,263.35 874.05,258.04 881.13,265.12 890.87,255.39 890.87,273.09 894.41,269.55 898.39,283.27 900.60,281.05 906.80,296.10"/>
<circle cx="878.48" cy="267.78" r="2.2" fill="#000"/>
<polyline fill="none" stroke="#000" stroke-width="1.1" points="711.40,328.52 696.35,322.33 698.57,320.11 684.85,316.13 688.39,312.59 670.69,312.59 680.42,302.85 673.34,295.77 678.65,290.46 685.73,297.54 695.47,287.81 695.47,305.51 699.01,301.97 702.99,315.69 705.20,313.48 711.40,328.52"/>
<circle cx="683.08" cy="300.20" r="2.2" fill="#000"/>
<polyline fill="none" stroke="#000" stroke-width="1.1" points="730.25,242.23 745.29,248.42 743.08,250.63 756.80,254.62 753.26,258.16 770.96,258.16 761.22,267.89 768.30,274.97 762.99,280.28 755.91,273.20 746.18,282.94 746.18,265.24 742.64,268.78 738.65,255.06 736.44,257.27 730.25,242.23"/>
<circle cx="758.57" cy="270.55" r="2.2" fill="#000"/>
<polyline fill="none" stroke="#000" stroke-width="1.1" points="848.10,352.07 833.06,345.87 835.27,343.66 821.55,339.68 825.09,336.14 807.39,336.14 817.13,326.40 810.05,319.32 815.36,314.01 822.44,321.09 832.17,311.36 832.17,329.06 835.71,325.52 839.69,339.23 841.91,337.02 848.10,352.07"/>
<circle cx="819.78" cy="323.75" r="2.2" fill="#000"/>
<polyline fill="none" stroke="#000" stroke-width="1.1" points="846.42,355.07 861.47,361.26 859.25,363.48 872.97,367.46 869.43,371.00 887.13,371.00 877.40,380.73 884.48,387.81 879.17,393.12 872.09,386.04 862.35,395.78 862.35,378.08 858.81,381.62 854.83,367.90 852.62,370.11 846.42,355.07"/>
<circle cx="874.74" cy="383.39" r="2.2" fill="#000"/>
<polyline fill="none" stroke="#000" stroke-width="1.1" points="657.21,352.95 672.25,359.14 670.04,361.35 683.76,365.34 680.22,368.88 697.92,368.88 688.18,378.61 695.26,385.69 689.95,391.00 682.87,383.92 673.14,393.66 673.14,375.96 669.60,379.50 665.62,365.78 663.40,367.99 657.21,352.95"/>
<circle cx="685.53" cy="381.27" r="2.2" fill="#000"/>
<polyline fill="none" stroke="#000" stroke-width="1.1" points="794.87,413.26 779.82,407.06 782.04,404.85 768.32,400.87 771.86,397.33 754.16,397.33 763.89,387.59 756.81,380.51 762.12,375.20 769.20,382.28 778.94,372.55 778.94,390.25 782.48,386.71 786.46,400.42 788.67,398.21 794.87,413.26"/>
<circle cx="766.55" cy="384.94" r="2.2" fill="#000"/>
<rect x="1041.0" y="41.0" width="518.0" height="478.0" fill="none" stroke="#ddd"/>
<text x="1052.0" y="62.0" font-family="sans-serif" font-size="14" fill="#000">circle</text>
<rect x="1058.0" y="76.0" width="484.0" height="428.0" fill="none" stroke="#f2f2f2"/>
<rect x="1150.15" y="138.72" width="299.77" height="299.77" fill="none" stroke="#888" stroke-width="1.0"/>
<polyline fill="none" stroke="#000" stroke-width="1.1" points="1431.32,263.37 1437.58,278.39 1434.45,278.39 1441.33,290.91 1436.32,290.91 1448.84,303.42 1435.07,303.42 1435.07,313.43 1427.56,313.43 1427.56,303.42 1413.80,303.42 1426.31,290.91 1421.31,290.91 1428.19,278.39 1425.06,278.39 1431.32,263.37"/>
<circle cx="1431.32" cy="303.42" r="2.2" fill="#000"/>
<polyline fill="none" stroke="#000" stroke-width="1.1" points="1406.13,186.28 1412.39,201.30 1409.26,201.30 1416.14,213.81 1411.14,213.81 1423.65,226.33 1409.89,226.33 1409.89,236.34 1402.38,236.34 1402.38,226.33 1388.61,226.33 1401.13,213.81 1396.12,213.81 1403.00,201.30 1399.87,201.30 1406.13,186.28"/>
<circle cx="1406.13" cy="226.33" r="2.2" fill="#000"/>
<polyline fill="none" stroke="#000" stroke-width="1.1" points="1340.43,138.72 1346.69,153.74 1343.56,153.74 1350.45,166.26 1345.44,166.26 1357.96,178.77 1344.19,178.77 1344.19,188.78 1336.68,188.78 1336.68,178.77 1322.91,178.77 1335.43,166.26 1330.42,166.26 1337.31,153.74 1334.18,153.74 1340.43,138.72"/>
<circle cx="1340.43" cy="178.77" r="2.2" fill="#000"/>
<polyline fill="none" stroke="#000" stroke-width="1.1" points="1259.33,138.80 1265.59,153.82 1262.46,153.82 1269.34,166.34 1264.34,166.34 1276.85,178.85 1263.09,178.85 1263.09,188.86 1255.58,188.86 1255.58,178.85 1241.81,178.85 1254.32,166.34 1249.32,166.34 1256.20,153.82 1253.07,153.82 1259.33,138.80"/>
<circle cx="1259.33" cy="178.85" r="2.2" fill="#000"/>
<polyline fill="none" stroke="#000" stroke-width="1.1" points="1193.76,186.53 1200.02,201.55 1196.89,201.55 1203.77,214.07 1198.77,214.07 1211.28,226.58 1197.51,226.58 1197.51,236.59 1190.01,236.59 1190.01,226.58 1176.24,226.58 1188.75,214.07 1183.75,214.07 1190.63,201.55 1187.50,201.55 1193.76,186.53"/>
<circle cx="1193.76" cy="226.58" r="2.2" fill="#000"/>
<polyline fill="none" stroke="#000" stroke-width="1.1" points="1168.77,263.69 1175.02,278.71 1171.89,278.71 1178.78,291.22 1173.77,291.22 1186.29,303.74 1172.52,303.74 1172.52,313.75 1165.01,313.75 1165.01,303.74 1151.24,303.74 1163.76,291.22 1158.75,291.22 1165.64,278.71 1162.51,278.71 1168.77,263.69"/>
<circle cx="1168.77" cy="303.74" r="2.2" fill="#000"/>
<polyline fill="none" stroke="#000" stroke-width="1.1" points="1193.89,340.80 1200.15,355.82 1197.02,355.82 1203.90,368.34 1198.90,368.34 1211.41,380.85 1197.64,380.85 1197.64,390.86 1190.14,390.86 1190.14,380.85 1176.37,380.85 1188.88,368.34 1183.88,368.34 1190.76,355.82 1187.63,355.82 1193.89,340.80"/>
<circle cx="1193.89" cy="380.85" r="2.2" fill="#000"/>
<polyline fill="none" stroke="#000" stroke-width="1.1" points="1259.53,388.43 1265.79,403.45 1262.66,403.45 1269.55,415.97 1264.54,415.97 1277.06,428.48 1263.29,428.48 1263.29,438.49 1255.78,438.49 1255.78,428.48 1242.01,428.48 1254.53,415.97 1249.52,415.97 1256.40,403.45 1253.28,403.45 1259.53,388.43"/>
<circle cx="1259.53" cy="428.48" r="2.2" fill="#000"/>
<polyline fill="none" stroke="#000" stroke-width="1.1" points="1340.64,388.23 1346.90,403.25 1343.77,403.25 1350.65,415.76 1345.64,415.76 1358.16,428.28 1344.39,428.28 1344.39,438.29 1336.88,438.29 1336.88,428.28 1323.11,428.28 1335.63,415.76 1330.62,415.76 1337.51,403.25 1334.38,403.25 1340.64,388.23"/>
<circle cx="1340.64" cy="428.28" r="2.2" fill="#000"/>
<polyline fill="none" stroke="#000" stroke-width="1.1" points="1406.20,340.48 1412.46,355.50 1409.33,355.50 1416.21,368.02 1411.20,368.02 1423.72,380.54 1409.95,380.54 1409.95,390.55 1402.44,390.55 1402.44,380.54 1388.68,380.54 1401.19,368.02 1396.18,368.02 1403.07,355.50 1399.94,355.50 1406.20,340.48"/>
<circle cx="1406.20" cy="380.54" r="2.2" fill="#000"/>
<rect x="1.0" y="521.0" width="518.0" height="478.0" fill="none" stroke="#ddd"/>
<text x="12.0" y="542.0" font-family="sans-serif" font-size="14" fill="#000">spiral</text>
<rect x="18.0" y="556.0" width="484.0" height="428.0" fill="none" stroke="#f2f2f2"/>
<rect x="73.83" y="583.83" width="372.34" height="372.34" fill="none" stroke="#888" stroke-width="1.0"/>
<polyline fill="none" stroke="#000" stroke-width="1.1" points="270.61,731.51 276.87,746.53 273.74,746.53 280.62,759.04 275.62,759.04 288.13,771.56 274.36,771.56 274.36,781.57 266.85,781.57 266.85,771.56 253.09,771.56 265.60,759.04 260.60,759.04 267.48,746.53 264.35,746.53 270.61,731.51"/>
<circle cx="270.61" cy="771.56" r="2.2" fill="#000"/>
<polyline fill="none" stroke="#000" stroke-width="1.1" points="182.49,745.09 188.68,730.05 190.89,732.26 194.88,718.54 198.42,722.08 198.42,704.38 208.15,714.12 215.23,707.04 220.54,712.35 213.46,719.43 223.20,729.16 205.50,729.16 209.04,732.70 195.32,736.69 197.53,738.90 182.49,745.09"/>
<circle cx="210.81" cy="716.77" r="2.2" fill="#000"/>
<polyline fill="none" stroke="#000" stroke-width="1.1" points="311.34,852.66 296.32,858.92 296.32,855.79 283.81,862.67 283.81,857.67 271.29,870.18 271.29,856.41 261.28,856.41 261.28,848.90 271.29,848.90 271.29,835.14 283.81,847.65 283.81,842.65 296.32,849.53 296.32,846.40 311.34,852.66"/>
<circle cx="271.29" cy="852.66" r="2.2" fill="#000"/>
<polyline fill="none" stroke="#000" stroke-width="1.1" points="300.75,651.44 315.80,657.63 313.59,659.85 327.30,663.83 323.76,667.37 341.46,667.37 331.73,677.10 338.81,684.19 333.50,689.50 326.42,682.41 316.68,692.15 316.68,674.45 313.14,677.99 309.16,664.27 306.95,666.48 300.75,651.44"/>
<circle cx="329.07" cy="679.76" r="2.2" fill="#000"/>
<polyline fill="none" stroke="#000" stroke-width="1.1" points="141.27,826.84 135.01,811.82 138.14,811.82 131.26,799.30 136.27,799.30 123.75,786.79 137.52,786.79 137.52,776.77 145.03,776.77 145.03,786.79 158.79,786.79 146.28,799.30 151.28,799.30 144.40,811.82 147.53,811.82 141.27,826.84"/>
<circle cx="141.27" cy="786.79" r="2.2" fill="#000"/>
<polyline fill="none" stroke="#000" stroke-width="1.1" points="409.13,811.38 402.93,826.42 400.72,824.21 396.74,837.93 393.20,834.39 393.20,852.09 383.46,842.35 376.38,849.43 371.07,844.12 378.15,837.04 368.42,827.31 386.12,827.31 382.58,823.77 396.30,819.79 394.08,817.57 409.13,811.38"/>
<circle cx="380.81" cy="839.70" r="2.2" fill="#000"/>
<polyline fill="none" stroke="#000" stroke-width="1.1" points="184.06,618.20 199.08,611.95 199.08,615.07 211.59,608.19 211.59,613.20 224.11,600.68 224.11,614.45 234.12,614.45 234.12,621.96 224.11,621.96 224.11,635.73 211.59,623.21 211.59,628.22 199.08,621.33 199.08,624.46 184.06,618.20"/>
<circle cx="224.11" cy="618.20" r="2.2" fill="#000"/>
<polyline fill="none" stroke="#000" stroke-width="1.1" points="216.18,939.32 201.13,933.12 203.35,930.91 189.63,926.93 193.17,923.39 175.47,923.39 185.20,913.65 178.12,906.57 183.43,901.26 190.51,908.34 200.25,898.61 200.25,916.31 203.79,912.77 207.77,926.49 209.98,924.27 216.18,939.32"/>
<circle cx="187.86" cy="911.00" r="2.2" fill="#000"/>
<polyline fill="none" stroke="#000" stroke-width="1.1" points="428.65,664.82 434.91,679.84 431.78,679.84 438.66,692.36 433.65,692.36 446.17,704.87 432.40,704.87 432.40,714.89 424.89,714.89 424.89,704.87 411.13,704.87 423.64,692.36 418.63,692.36 425.52,679.84 422.39,679.84 428.65,664.82"/>
<circle cx="428.65" cy="704.87" r="2.2" fill="#000"/>
<polyline fill="none" stroke="#000" stroke-width="1.1" points="91.35,734.09 85.09,719.07 88.22,719.07 81.34,706.56 86.35,706.56 73.83,694.04 87.60,694.04 87.60,684.03 95.11,684.03 95.11,694.04 108.87,694.04 96.36,706.56 101.37,706.56 94.48,719.07 97.61,719.07 91.35,734.09"/>
<circle cx="91.35" cy="694.04" r="2.2" fill="#000"/>
<rect x="521.0" y="521.0" width="518.0" height="478.0" fill="none" stroke="#ddd"/>
<text x="532.0" y="542.0" font-family="sans-serif" font-size="14" fill="#000">hex</text>
<rect x="538.0" y="556.0" width="484.0" height="428.0" fill="none" stroke="#f2f2f2"/>
<rect x="620.54" y="609.11" width="318.91" height="318.91" fill="none" stroke="#888" stroke-width="1.0"/>
<polyline fill="none" stroke="#000" stroke-width="1.1" points="638.07,658.15 644.33,673.17 641.20,673.17 648.08,685.69 643.07,685.69 655.59,698.20 641.82,698.20 641.82,708.22 634.31,708.22 634.31,698.20 620.54,698.20 633.06,685.69 628.05,685.69 634.94,673.17 631.81,673.17 638.07,658.15"/>
<circle cx="638.07" cy="698.20" r="2.2" fill="#000"/>
<polyline fill="none" stroke="#000" stroke-width="1.1" points="719.17,738.26 712.91,723.24 716.04,723.24 709.16,710.72 714.17,710.72 701.65,698.20 715.42,698.20 715.42,688.19 722.93,688.19 722.93,698.20 736.69,698.20 724.18,710.72 729.18,710.72 722.30,723.24 725.43,723.24 719.17,738.26"/>
<circle cx="719.17" cy="698.20" r="2.2" fill="#000"/>
<polyline fill="none" stroke="#000" stroke-width="1.1" points="800.28,658.15 806.53,673.17 803.41,673.17 810.29,685.69 805.28,685.69 817.80,698.20 804.03,698.20 804.03,708.22 796.52,708.22 796.52,698.20 782.75,698.20 795.27,685.69 790.26,685.69 797.15,673.17 794.02,673.17 800.28,658.15"/>
<circle cx="800.28" cy="698.20" r="2.2" fill="#000"/>
<polyline fill="none" stroke="#000" stroke-width="1.1" points="881.38,738.26 875.12,723.24 878.25,723.24 871.37,710.72 876.37,710.72 863.86,698.20 877.63,698.20 877.63,688.19 885.14,688.19 885.14,698.20 898.90,698.20 886.39,710.72 891.39,710.72 884.51,723.24 887.64,723.24 881.38,738.26"/>
<circle cx="881.38" cy="698.20" r="2.2" fill="#000"/>
<polyline fill="none" stroke="#000" stroke-width="1.1" points="678.62,728.51 684.88,743.53 681.75,743.53 688.63,756.05 683.63,756.05 696.14,768.56 682.37,768.56 682.37,778.58 674.86,778.58 674.86,768.56 661.10,768.56 673.61,756.05 668.61,756.05 675.49,743.53 672.36,743.53 678.62,728.51"/>
<circle cx="678.62" cy="768.56" r="2.2" fill="#000"/>
<polyline fill="none" stroke="#000" stroke-width="1.1" points="759.72,808.62 753.47,793.60 756.59,793.60 749.71,781.08 754.72,781.08 742.20,768.56 755.97,768.56 755.97,758.55 763.48,758.55 763.48,768.56 777.25,768.56 764.73,781.08 769.74,781.08 762.85,793.60 765.98,793.60 759.72,808.62"/>
<circle cx="759.72" cy="768.56" r="2.2" fill="#000"/>
<polyline fill="none" stroke="#000" stroke-width="1.1" points="840.83,728.51 847.09,743.53 843.96,743.53 850.84,756.05 845.83,756.05 858.35,768.56 844.58,768.56 844.58,778.58 837.07,778.58 837.07,768.56 823.31,768.56 835.82,756.05 830.82,756.05 837.70,743.53 834.57,743.53 840.83,728.51"/>
<circle cx="840.83" cy="768.56" r="2.2" fill="#000"/>
<polyline fill="none" stroke="#000" stroke-width="1.1" points="921.93,808.62 915.67,793.60 918.80,793.60 911.92,781.08 916.93,781.08 904.41,768.56 918.18,768.56 918.18,758.55 925.69,758.55 925.69,768.56 939.46,768.56 926.94,781.08 931.95,781.08 925.06,793.60 928.19,793.60 921.93,808.62"/>
<circle cx="921.93" cy="768.56" r="2.2" fill="#000"/>
<polyline fill="none" stroke="#000" stroke-width="1.1" points="638.07,798.87 644.33,813.89 641.20,813.89 648.08,826.41 643.07,826.41 655.59,838.93 641.82,838.93 641.82,848.94 634.31,848.94 634.31,838.93 620.54,838.93 633.06,826.41 628.05,826.41 634.94,813.89 631.81,813.89 638.07,798.87"/>
<circle cx="638.07" cy="838.93" r="2.2" fill="#000"/>
<polyline fill="none" stroke="#000" stroke-width="1.1" points="719.17,878.98 712.91,863.96 716.04,863.96 709.16,851.44 714.17,851.44 701.65,838.93 715.42,838.93 715.42,828.91 722.93,828.91 722.93,838.93 736.69,838.93 724.18,851.44 729.18,851.44 722.30,863.96 725.43,863.96 719.17,878.98"/>
<circle cx="719.17" cy="838.93" r="2.2" fill="#000"/>
<rect x="1041.0" y="521.0" width="518.0" height="478.0" fill="none" stroke="#ddd"/>
<text x="1052.0" y="542.0" font-family="sans-serif" font-size="14" fill="#000">halton</text>
<rect x="1058.0" y="556.0" width="484.0" height="428.0" fill="none" stroke="#f2f2f2"/>
<rect x="1163.24" y="631.54" width="273.31" height="273.31" fill="none" stroke="#888" stroke-width="1.0"/>
<polyline fill="none" stroke="#000" stroke-width="1.1" points="1348.88,748.51 1355.14,763.53 1352.01,763.53 1358.90,776.05 1353.89,776.05 1366.41,788.56 1352.64,788.56 1352.64,798.58 1345.13,798.58 1345.13,788.56 1331.36,788.56 1343.88,776.05 1338.87,776.05 1345.76,763.53 1342.63,763.53 1348.88,748.51"/>
<circle cx="1348.88" cy="788.56" r="2.2" fill="#000"/>
<polyline fill="none" stroke="#000" stroke-width="1.1" points="1232.26,737.81 1238.46,722.76 1240.67,724.97 1244.65,711.26 1248.19,714.80 1248.19,697.10 1257.93,706.83 1265.01,699.75 1270.32,705.06 1263.24,712.14 1272.97,721.88 1255.27,721.88 1258.81,725.42 1245.09,729.40 1247.31,731.61 1232.26,737.81"/>
<circle cx="1260.58" cy="709.49" r="2.2" fill="#000"/>
<polyline fill="none" stroke="#000" stroke-width="1.1" points="1436.55,854.21 1421.54,860.47 1421.54,857.34 1409.02,864.23 1409.02,859.22 1396.50,871.74 1396.50,857.97 1386.49,857.97 1386.49,850.46 1396.50,850.46 1396.50,836.69 1409.02,849.21 1409.02,844.20 1421.54,851.09 1421.54,847.96 1436.55,854.21"/>
<circle cx="1396.50" cy="854.21" r="2.2" fill="#000"/>
<polyline fill="none" stroke="#000" stroke-width="1.1" points="1163.24,736.97 1178.29,743.16 1176.08,745.38 1189.79,749.36 1186.25,752.90 1203.95,752.90 1194.22,762.63 1201.30,769.71 1195.99,775.02 1188.91,767.94 1179.17,777.68 1179.17,759.98 1175.63,763.52 1171.65,749.80 1169.44,752.01 1163.24,736.97"/>
<circle cx="1191.56" cy="765.29" r="2.2" fill="#000"/>
<polyline fill="none" stroke="#000" stroke-width="1.1" points="1339.50,730.83 1333.24,715.81 1336.37,715.81 1329.49,703.30 1334.49,703.30 1321.98,690.78 1335.74,690.78 1335.74,680.77 1343.25,680.77 1343.25,690.78 1357.02,690.78 1344.51,703.30 1349.51,703.30 1342.63,715.81 1345.76,715.81 1339.50,730.83"/>
<circle cx="1339.50" cy="690.78" r="2.2" fill="#000"/>
<polyline fill="none" stroke="#000" stroke-width="1.1" points="1262.34,838.09 1256.15,853.14 1253.94,850.93 1249.95,864.65 1246.41,861.11 1246.41,878.81 1236.68,869.07 1229.60,876.15 1224.29,870.84 1231.37,863.76 1221.63,854.02 1239.33,854.02 1235.79,850.48 1249.51,846.50 1247.30,844.29 1262.34,838.09"/>
<circle cx="1234.02" cy="866.42" r="2.2" fill="#000"/>
<polyline fill="none" stroke="#000" stroke-width="1.1" points="1368.39,733.51 1383.40,727.25 1383.40,730.38 1395.92,723.49 1395.92,728.50 1408.44,715.98 1408.44,729.75 1418.45,729.75 1418.45,737.26 1408.44,737.26 1408.44,751.03 1395.92,738.51 1395.92,743.52 1383.40,736.63 1383.40,739.76 1368.39,733.51"/>
<circle cx="1408.44" cy="733.51" r="2.2" fill="#000"/>
<polyline fill="none" stroke="#000" stroke-width="1.1" points="1223.33,690.08 1208.28,683.88 1210.50,681.67 1196.78,677.69 1200.32,674.15 1182.62,674.15 1192.35,664.41 1185.27,657.33 1190.58,652.02 1197.66,659.10 1207.40,649.37 1207.40,667.07 1210.94,663.53 1214.92,677.25 1217.14,675.03 1223.33,690.08"/>
<circle cx="1195.01" cy="661.76" r="2.2" fill="#000"/>
<polyline fill="none" stroke="#000" stroke-width="1.1" points="1316.32,836.95 1322.58,851.97 1319.45,851.97 1326.33,864.49 1321.33,864.49 1333.84,877.00 1320.07,877.00 1320.07,887.01 1312.57,887.01 1312.57,877.00 1298.80,877.00 1311.31,864.49 1306.31,864.49 1313.19,851.97 1310.06,851.97 1316.32,836.95"/>
<circle cx="1316.32" cy="877.00" r="2.2" fill="#000"/>
<polyline fill="none" stroke="#000" stroke-width="1.1" points="1239.57,821.04 1245.76,805.99 1247.97,808.21 1251.96,794.49 1255.50,798.03 1255.50,780.33 1265.23,790.06 1272.31,782.98 1277.62,788.29 1270.54,795.37 1280.28,805.11 1262.58,805.11 1266.12,808.65 1252.40,812.63 1254.61,814.84 1239.57,821.04"/>
<circle cx="1267.89" cy="792.72" r="2.2" fill="#000"/>
</svg>
