<svg xmlns="http://www.w3.org/2000/svg" width="1420" height="2400" viewBox="0 0 1420 2400">
<rect x="0" y="0" width="1420" height="2400" fill="white" />
<text x="40" y="30" font-family="monospace" font-size="16">Warm starts (raw) (n=10)</text>
<g transform="translate(40.000 520.000) scale(53.960078944 -53.960078944) translate(3.665651076 3.431711333)">
<path d="M 0.000000000 0.800000000 0.125000000 0.500000000 0.062500000 0.500000000 0.200000000 0.250000000 0.100000000 0.250000000 0.350000000 0.000000000 0.075000000 0.000000000 0.075000000 -0.200000000 -0.075000000 -0.200000000 -0.075000000 0.000000000 -0.350000000 0.000000000 -0.100000000 0.250000000 -0.200000000 0.250000000 -0.062500000 0.500000000 -0.125000000 0.500000000 Z" fill="none" stroke="#222" stroke-width="0.01" />
<path d="M 0.000000000 0.800000000 0.125000000 0.500000000 0.062500000 0.500000000 0.200000000 0.250000000 0.100000000 0.250000000 0.350000000 0.000000000 0.075000000 0.000000000 0.075000000 -0.200000000 -0.075000000 -0.200000000 -0.075000000 0.000000000 -0.350000000 0.000000000 -0.100000000 0.250000000 -0.200000000 0.250000000 -0.062500000 0.500000000 -0.125000000 0.500000000 Z" fill="none" stroke="#222" stroke-width="0.01" />
<path d="M 0.000000000 0.800000000 0.125000000 0.500000000 0.062500000 0.500000000 0.200000000 0.250000000 0.100000000 0.250000000 0.350000000 0.000000000 0.075000000 0.000000000 0.075000000 -0.200000000 -0.075000000 -0.200000000 -0.075000000 0.000000000 -0.350000000 0.000000000 -0.100000000 0.250000000 -0.200000000 0.250000000 -0.062500000 0.500000000 -0.125000000 0.500000000 Z" fill="none" stroke="#222" stroke-width="0.01" />
<path d="M 0.000000000 0.800000000 0.125000000 0.500000000 0.062500000 0.500000000 0.200000000 0.250000000 0.100000000 0.250000000 0.350000000 0.000000000 0.075000000 0.000000000 0.075000000 -0.200000000 -0.075000000 -0.200000000 -0.075000000 0.000000000 -0.350000000 0.000000000 -0.100000000 0.250000000 -0.200000000 0.250000000 -0.062500000 0.500000000 -0.125000000 0.500000000 Z" fill="none" stroke="#222" stroke-width="0.01" />
<path d="M 0.000000000 0.800000000 0.125000000 0.500000000 0.062500000 0.500000000 0.200000000 0.250000000 0.100000000 0.250000000 0.350000000 0.000000000 0.075000000 0.000000000 0.075000000 -0.200000000 -0.075000000 -0.200000000 -0.075000000 0.000000000 -0.350000000 0.000000000 -0.100000000 0.250000000 -0.200000000 0.250000000 -0.062500000 0.500000000 -0.125000000 0.500000000 Z" fill="none" stroke="#222" stroke-width="0.01" />
<path d="M 0.000000000 0.800000000 0.125000000 0.500000000 0.062500000 0.500000000 0.200000000 0.250000000 0.100000000 0.250000000 0.350000000 0.000000000 0.075000000 0.000000000 0.075000000 -0.200000000 -0.075000000 -0.200000000 -0.075000000 0.000000000 -0.350000000 0.000000000 -0.100000000 0.250000000 -0.200000000 0.250000000 -0.062500000 0.500000000 -0.125000000 0.500000000 Z" fill="none" stroke="#222" stroke-width="0.01" />
<path d="M 0.000000000 0.800000000 0.125000000 0.500000000 0.062500000 0.500000000 0.200000000 0.250000000 0.100000000 0.250000000 0.350000000 0.000000000 0.075000000 0.000000000 0.075000000 -0.200000000 -0.075000000 -0.200000000 -0.075000000 0.000000000 -0.350000000 0.000000000 -0.100000000 0.250000000 -0.200000000 0.250000000 -0.062500000 0.500000000 -0.125000000 0.500000000 Z" fill="none" stroke="#222" stroke-width="0.01" />
<path d="M 0.000000000 0.800000000 0.125000000 0.500000000 0.062500000 0.500000000 0.200000000 0.250000000 0.100000000 0.250000000 0.350000000 0.000000000 0.075000000 0.000000000 0.075000000 -0.200000000 -0.075000000 -0.200000000 -0.075000000 0.000000000 -0.350000000 0.000000000 -0.100000000 0.250000000 -0.200000000 0.250000000 -0.062500000 0.500000000 -0.125000000 0.500000000 Z" fill="none" stroke="#222" stroke-width="0.01" />
<path d="M 0.000000000 0.800000000 0.125000000 0.500000000 0.062500000 0.500000000 0.200000000 0.250000000 0.100000000 0.250000000 0.350000000 0.000000000 0.075000000 0.000000000 0.075000000 -0.200000000 -0.075000000 -0.200000000 -0.075000000 0.000000000 -0.350000000 0.000000000 -0.100000000 0.250000000 -0.200000000 0.250000000 -0.062500000 0.500000000 -0.125000000 0.500000000 Z" fill="none" stroke="#222" stroke-width="0.01" />
<path d="M 0.000000000 0.800000000 0.125000000 0.500000000 0.062500000 0.500000000 0.200000000 0.250000000 0.100000000 0.250000000 0.350000000 0.000000000 0.075000000 0.000000000 0.075000000 -0.200000000 -0.075000000 -0.200000000 -0.075000000 0.000000000 -0.350000000 0.000000000 -0.100000000 0.250000000 -0.200000000 0.250000000 -0.062500000 0.500000000 -0.125000000 0.500000000 Z" fill="none" stroke="#222" stroke-width="0.01" />
<rect x="-0.500000000" y="-0.200000000" width="1.000000000" height="1.000000000" fill="none" stroke="#000" stroke-width="0.01" />
</g>
<text x="40" y="92" font-family="monospace" font-size="12">centered</text>
<g transform="translate(500.000 520.000) scale(53.960078944 -53.960078944) translate(3.665651076 3.431711333)">
<path d="M -1.080000000 -0.220000000 -0.955000000 -0.520000000 -1.017500000 -0.520000000 -0.880000000 -0.770000000 -0.980000000 -0.770000000 -0.730000000 -1.020000000 -1.005000000 -1.020000000 -1.005000000 -1.220000000 -1.155000000 -1.220000000 -1.155000000 -1.020000000 -1.430000000 -1.020000000 -1.180000000 -0.770000000 -1.280000000 -0.770000000 -1.142500000 -0.520000000 -1.205000000 -0.520000000 Z" fill="none" stroke="#222" stroke-width="0.01" />
<path d="M -0.360000000 -0.220000000 -0.235000000 -0.520000000 -0.297500000 -0.520000000 -0.160000000 -0.770000000 -0.260000000 -0.770000000 -0.010000000 -1.020000000 -0.285000000 -1.020000000 -0.285000000 -1.220000000 -0.435000000 -1.220000000 -0.435000000 -1.020000000 -0.710000000 -1.020000000 -0.460000000 -0.770000000 -0.560000000 -0.770000000 -0.422500000 -0.520000000 -0.485000000 -0.520000000 Z" fill="none" stroke="#222" stroke-width="0.01" />
<path d="M 0.360000000 -0.220000000 0.485000000 -0.520000000 0.422500000 -0.520000000 0.560000000 -0.770000000 0.460000000 -0.770000000 0.710000000 -1.020000000 0.435000000 -1.020000000 0.435000000 -1.220000000 0.285000000 -1.220000000 0.285000000 -1.020000000 0.010000000 -1.020000000 0.260000000 -0.770000000 0.160000000 -0.770000000 0.297500000 -0.520000000 0.235000000 -0.520000000 Z" fill="none" stroke="#222" stroke-width="0.01" />
<path d="M 1.080000000 -0.220000000 1.205000000 -0.520000000 1.142500000 -0.520000000 1.280000000 -0.770000000 1.180000000 -0.770000000 1.430000000 -1.020000000 1.155000000 -1.020000000 1.155000000 -1.220000000 1.005000000 -1.220000000 1.005000000 -1.020000000 0.730000000 -1.020000000 0.980000000 -0.770000000 0.880000000 -0.770000000 1.017500000 -0.520000000 0.955000000 -0.520000000 Z" fill="none" stroke="#222" stroke-width="0.01" />
<path d="M -1.080000000 0.800000000 -0.955000000 0.500000000 -1.017500000 0.500000000 -0.880000000 0.250000000 -0.980000000 0.250000000 -0.730000000 0.000000000 -1.005000000 0.000000000 -1.005000000 -0.200000000 -1.155000000 -0.200000000 -1.155000000 0.000000000 -1.430000000 0.000000000 -1.180000000 0.250000000 -1.280000000 0.250000000 -1.142500000 0.500000000 -1.205000000 0.500000000 Z" fill="none" stroke="#222" stroke-width="0.01" />
<path d="M -0.360000000 0.800000000 -0.235000000 0.500000000 -0.297500000 0.500000000 -0.160000000 0.250000000 -0.260000000 0.250000000 -0.010000000 0.000000000 -0.285000000 0.000000000 -0.285000000 -0.200000000 -0.435000000 -0.200000000 -0.435000000 0.000000000 -0.710000000 0.000000000 -0.460000000 0.250000000 -0.560000000 0.250000000 -0.422500000 0.500000000 -0.485000000 0.500000000 Z" fill="none" stroke="#222" stroke-width="0.01" />
<path d="M 0.360000000 0.800000000 0.485000000 0.500000000 0.422500000 0.500000000 0.560000000 0.250000000 0.460000000 0.250000000 0.710000000 0.000000000 0.435000000 0.000000000 0.435000000 -0.200000000 0.285000000 -0.200000000 0.285000000 0.000000000 0.010000000 0.000000000 0.260000000 0.250000000 0.160000000 0.250000000 0.297500000 0.500000000 0.235000000 0.500000000 Z" fill="none" stroke="#222" stroke-width="0.01" />
<path d="M 1.080000000 0.800000000 1.205000000 0.500000000 1.142500000 0.500000000 1.280000000 0.250000000 1.180000000 0.250000000 1.430000000 0.000000000 1.155000000 0.000000000 1.155000000 -0.200000000 1.005000000 -0.200000000 1.005000000 0.000000000 0.730000000 0.000000000 0.980000000 0.250000000 0.880000000 0.250000000 1.017500000 0.500000000 0.955000000 0.500000000 Z" fill="none" stroke="#222" stroke-width="0.01" />
<path d="M -1.080000000 1.820000000 -0.955000000 1.520000000 -1.017500000 1.520000000 -0.880000000 1.270000000 -0.980000000 1.270000000 -0.730000000 1.020000000 -1.005000000 1.020000000 -1.005000000 0.820000000 -1.155000000 0.820000000 -1.155000000 1.020000000 -1.430000000 1.020000000 -1.180000000 1.270000000 -1.280000000 1.270000000 -1.142500000 1.520000000 -1.205000000 1.520000000 Z" fill="none" stroke="#222" stroke-width="0.01" />
<path d="M -0.360000000 1.820000000 -0.235000000 1.520000000 -0.297500000 1.520000000 -0.160000000 1.270000000 -0.260000000 1.270000000 -0.010000000 1.020000000 -0.285000000 1.020000000 -0.285000000 0.820000000 -0.435000000 0.820000000 -0.435000000 1.020000000 -0.710000000 1.020000000 -0.460000000 1.270000000 -0.560000000 1.270000000 -0.422500000 1.520000000 -0.485000000 1.520000000 Z" fill="none" stroke="#222" stroke-width="0.01" />
<rect x="-1.520000000" y="-1.220000000" width="3.040000000" height="3.040000000" fill="none" stroke="#000" stroke-width="0.01" />
</g>
<text x="500" y="92" font-family="monospace" font-size="12">grid</text>
<g transform="translate(960.000 520.000) scale(53.960078944 -53.960078944) translate(3.665651076 3.431711333)">
<path d="M -1.080000000 -0.220000000 -0.955000000 -0.520000000 -1.017500000 -0.520000000 -0.880000000 -0.770000000 -0.980000000 -0.770000000 -0.730000000 -1.020000000 -1.005000000 -1.020000000 -1.005000000 -1.220000000 -1.155000000 -1.220000000 -1.155000000 -1.020000000 -1.430000000 -1.020000000 -1.180000000 -0.770000000 -1.280000000 -0.770000000 -1.142500000 -0.520000000 -1.205000000 -0.520000000 Z" fill="none" stroke="#222" stroke-width="0.01" />
<path d="M -0.360000000 -1.820000000 -0.485000000 -1.520000000 -0.422500000 -1.520000000 -0.560000000 -1.270000000 -0.460000000 -1.270000000 -0.710000000 -1.020000000 -0.435000000 -1.020000000 -0.435000000 -0.820000000 -0.285000000 -0.820000000 -0.285000000 -1.020000000 -0.010000000 -1.020000000 -0.260000000 -1.270000000 -0.160000000 -1.270000000 -0.297500000 -1.520000000 -0.235000000 -1.520000000 Z" fill="none" stroke="#222" stroke-width="0.01" />
<path d="M 0.360000000 -0.220000000 0.485000000 -0.520000000 0.422500000 -0.520000000 0.560000000 -0.770000000 0.460000000 -0.770000000 0.710000000 -1.020000000 0.435000000 -1.020000000 0.435000000 -1.220000000 0.285000000 -1.220000000 0.285000000 -1.020000000 0.010000000 -1.020000000 0.260000000 -0.770000000 0.160000000 -0.770000000 0.297500000 -0.520000000 0.235000000 -0.520000000 Z" fill="none" stroke="#222" stroke-width="0.01" />
<path d="M 1.080000000 -1.820000000 0.955000000 -1.520000000 1.017500000 -1.520000000 0.880000000 -1.270000000 0.980000000 -1.270000000 0.730000000 -1.020000000 1.005000000 -1.020000000 1.005000000 -0.820000000 1.155000000 -0.820000000 1.155000000 -1.020000000 1.430000000 -1.020000000 1.180000000 -1.270000000 1.280000000 -1.270000000 1.142500000 -1.520000000 1.205000000 -1.520000000 Z" fill="none" stroke="#222" stroke-width="0.01" />
<path d="M -1.080000000 -0.800000000 -1.205000000 -0.500000000 -1.142500000 -0.500000000 -1.280000000 -0.250000000 -1.180000000 -0.250000000 -1.430000000 0.000000000 -1.155000000 0.000000000 -1.155000000 0.200000000 -1.005000000 0.200000000 -1.005000000 -0.000000000 -0.730000000 -0.000000000 -0.980000000 -0.250000000 -0.880000000 -0.250000000 -1.017500000 -0.500000000 -0.955000000 -0.500000000 Z" fill="none" stroke="#222" stroke-width="0.01" />
<path d="M -0.360000000 0.800000000 -0.235000000 0.500000000 -0.297500000 0.500000000 -0.160000000 0.250000000 -0.260000000 0.250000000 -0.010000000 0.000000000 -0.285000000 0.000000000 -0.285000000 -0.200000000 -0.435000000 -0.200000000 -0.435000000 0.000000000 -0.710000000 0.000000000 -0.460000000 0.250000000 -0.560000000 0.250000000 -0.422500000 0.500000000 -0.485000000 0.500000000 Z" fill="none" stroke="#222" stroke-width="0.01" />
<path d="M 0.360000000 -0.800000000 0.235000000 -0.500000000 0.297500000 -0.500000000 0.160000000 -0.250000000 0.260000000 -0.250000000 0.010000000 0.000000000 0.285000000 0.000000000 0.285000000 0.200000000 0.435000000 0.200000000 0.435000000 -0.000000000 0.710000000 -0.000000000 0.460000000 -0.250000000 0.560000000 -0.250000000 0.422500000 -0.500000000 0.485000000 -0.500000000 Z" fill="none" stroke="#222" stroke-width="0.01" />
<path d="M 1.080000000 0.800000000 1.205000000 0.500000000 1.142500000 0.500000000 1.280000000 0.250000000 1.180000000 0.250000000 1.430000000 0.000000000 1.155000000 0.000000000 1.155000000 -0.200000000 1.005000000 -0.200000000 1.005000000 0.000000000 0.730000000 0.000000000 0.980000000 0.250000000 0.880000000 0.250000000 1.017500000 0.500000000 0.955000000 0.500000000 Z" fill="none" stroke="#222" stroke-width="0.01" />
<path d="M -1.080000000 1.820000000 -0.955000000 1.520000000 -1.017500000 1.520000000 -0.880000000 1.270000000 -0.980000000 1.270000000 -0.730000000 1.020000000 -1.005000000 1.020000000 -1.005000000 0.820000000 -1.155000000 0.820000000 -1.155000000 1.020000000 -1.430000000 1.020000000 -1.180000000 1.270000000 -1.280000000 1.270000000 -1.142500000 1.520000000 -1.205000000 1.520000000 Z" fill="none" stroke="#222" stroke-width="0.01" />
<path d="M -0.360000000 0.220000000 -0.485000000 0.520000000 -0.422500000 0.520000000 -0.560000000 0.770000000 -0.460000000 0.770000000 -0.710000000 1.020000000 -0.435000000 1.020000000 -0.435000000 1.220000000 -0.285000000 1.220000000 -0.285000000 1.020000000 -0.010000000 1.020000000 -0.260000000 0.770000000 -0.160000000 0.770000000 -0.297500000 0.520000000 -0.235000000 0.520000000 Z" fill="none" stroke="#222" stroke-width="0.01" />
<rect x="-1.820000000" y="-1.820000000" width="3.640000000" height="3.640000000" fill="none" stroke="#000" stroke-width="0.01" />
</g>
<text x="960" y="92" font-family="monospace" font-size="12">grid_alt180</text>
<g transform="translate(40.000 980.000) scale(53.960078944 -53.960078944) translate(3.665651076 3.431711333)">
<path d="M -0.664314575 -0.554314575 -0.788058262 -0.854834957 -0.832252436 -0.810640783 -0.911801948 -1.084644661 -0.982512627 -1.013933983 -0.982512627 -1.367487373 -1.176966991 -1.173033009 -1.318388348 -1.314454365 -1.424454365 -1.208388348 -1.283033009 -1.066966991 -1.477487373 -0.872512627 -1.123933983 -0.872512627 -1.194644661 -0.801801948 -0.920640783 -0.722252436 -0.964834957 -0.678058262 Z" fill="none" stroke="#222" stroke-width="0.01" />
<path d="M -0.975685425 -0.554314575 -0.675165043 -0.678058262 -0.719359217 -0.722252436 -0.445355339 -0.801801948 -0.516066017 -0.872512627 -0.162512627 -0.872512627 -0.356966991 -1.066966991 -0.215545635 -1.208388348 -0.321611652 -1.314454365 -0.463033009 -1.173033009 -0.657487373 -1.367487373 -0.657487373 -1.013933983 -0.728198052 -1.084644661 -0.807747564 -0.810640783 -0.851941738 -0.854834957 Z" fill="none" stroke="#222" stroke-width="0.01" />
<path d="M 0.975685425 -0.554314575 0.851941738 -0.854834957 0.807747564 -0.810640783 0.728198052 -1.084644661 0.657487373 -1.013933983 0.657487373 -1.367487373 0.463033009 -1.173033009 0.321611652 -1.314454365 0.215545635 -1.208388348 0.356966991 -1.066966991 0.162512627 -0.872512627 0.516066017 -0.872512627 0.445355339 -0.801801948 0.719359217 -0.722252436 0.675165043 -0.678058262 Z" fill="none" stroke="#222" stroke-width="0.01" />
<path d="M 0.664314575 -0.554314575 0.964834957 -0.678058262 0.920640783 -0.722252436 1.194644661 -0.801801948 1.123933983 -0.872512627 1.477487373 -0.872512627 1.283033009 -1.066966991 1.424454365 -1.208388348 1.318388348 -1.314454365 1.176966991 -1.173033009 0.982512627 -1.367487373 0.982512627 -1.013933983 0.911801948 -1.084644661 0.832252436 -0.810640783 0.788058262 -0.854834957 Z" fill="none" stroke="#222" stroke-width="0.01" />
<path d="M -1.795685425 0.565685425 -1.495165043 0.441941738 -1.539359217 0.397747564 -1.265355339 0.318198052 -1.336066017 0.247487373 -0.982512627 0.247487373 -1.176966991 0.053033009 -1.035545635 -0.088388348 -1.141611652 -0.194454365 -1.283033009 -0.053033009 -1.477487373 -0.247487373 -1.477487373 0.106066017 -1.548198052 0.035355339 -1.627747564 0.309359217 -1.671941738 0.265165043 Z" fill="none" stroke="#222" stroke-width="0.01" />
<path d="M 0.155685425 0.565685425 0.031941738 0.265165043 -0.012252436 0.309359217 -0.091801948 0.035355339 -0.162512627 0.106066017 -0.162512627 -0.247487373 -0.356966991 -0.053033009 -0.498388348 -0.194454365 -0.604454365 -0.088388348 -0.463033009 0.053033009 -0.657487373 0.247487373 -0.303933983 0.247487373 -0.374644661 0.318198052 -0.100640783 0.397747564 -0.144834957 0.441941738 Z" fill="none" stroke="#222" stroke-width="0.01" />
<path d="M -0.155685425 0.565685425 0.144834957 0.441941738 0.100640783 0.397747564 0.374644661 0.318198052 0.303933983 0.247487373 0.657487373 0.247487373 0.463033009 0.053033009 0.604454365 -0.088388348 0.498388348 -0.194454365 0.356966991 -0.053033009 0.162512627 -0.247487373 0.162512627 0.106066017 0.091801948 0.035355339 0.012252436 0.309359217 -0.031941738 0.265165043 Z" fill="none" stroke="#222" stroke-width="0.01" />
<path d="M 1.795685425 0.565685425 1.671941738 0.265165043 1.627747564 0.309359217 1.548198052 0.035355339 1.477487373 0.106066017 1.477487373 -0.247487373 1.283033009 -0.053033009 1.141611652 -0.194454365 1.035545635 -0.088388348 1.176966991 0.053033009 0.982512627 0.247487373 1.336066017 0.247487373 1.265355339 0.318198052 1.539359217 0.397747564 1.495165043 0.441941738 Z" fill="none" stroke="#222" stroke-width="0.01" />
<path d="M -0.664314575 1.685685425 -0.788058262 1.385165043 -0.832252436 1.429359217 -0.911801948 1.155355339 -0.982512627 1.226066017 -0.982512627 0.872512627 -1.176966991 1.066966991 -1.318388348 0.925545635 -1.424454365 1.031611652 -1.283033009 1.173033009 -1.477487373 1.367487373 -1.123933983 1.367487373 -1.194644661 1.438198052 -0.920640783 1.517747564 -0.964834957 1.561941738 Z" fill="none" stroke="#222" stroke-width="0.01" />
<path d="M -0.975685425 1.685685425 -0.675165043 1.561941738 -0.719359217 1.517747564 -0.445355339 1.438198052 -0.516066017 1.367487373 -0.162512627 1.367487373 -0.356966991 1.173033009 -0.215545635 1.031611652 -0.321611652 0.925545635 -0.463033009 1.066966991 -0.657487373 0.872512627 -0.657487373 1.226066017 -0.728198052 1.155355339 -0.807747564 1.429359217 -0.851941738 1.385165043 Z" fill="none" stroke="#222" stroke-width="0.01" />
<rect x="-1.795685425" y="-1.636586399" width="3.591370850" height="3.591370850" fill="none" stroke="#000" stroke-width="0.01" />
</g>
<text x="40" y="552" font-family="monospace" font-size="12">grid_alt45</text>
<g transform="translate(500.000 980.000) scale(53.960078944 -53.960078944) translate(3.665651076 3.431711333)">
<path d="M -1.795685425 -0.554314575 -1.495165043 -0.678058262 -1.539359217 -0.722252436 -1.265355339 -0.801801948 -1.336066017 -0.872512627 -0.982512627 -0.872512627 -1.176966991 -1.066966991 -1.035545635 -1.208388348 -1.141611652 -1.314454365 -1.283033009 -1.173033009 -1.477487373 -1.367487373 -1.477487373 -1.013933983 -1.548198052 -1.084644661 -1.627747564 -0.810640783 -1.671941738 -0.854834957 Z" fill="none" stroke="#222" stroke-width="0.01" />
<path d="M 0.155685425 -1.685685425 -0.144834957 -1.561941738 -0.100640783 -1.517747564 -0.374644661 -1.438198052 -0.303933983 -1.367487373 -0.657487373 -1.367487373 -0.463033009 -1.173033009 -0.604454365 -1.031611652 -0.498388348 -0.925545635 -0.356966991 -1.066966991 -0.162512627 -0.872512627 -0.162512627 -1.226066017 -0.091801948 -1.155355339 -0.012252436 -1.429359217 0.031941738 -1.385165043 Z" fill="none" stroke="#222" stroke-width="0.01" />
<path d="M -0.155685425 -0.554314575 0.144834957 -0.678058262 0.100640783 -0.722252436 0.374644661 -0.801801948 0.303933983 -0.872512627 0.657487373 -0.872512627 0.463033009 -1.066966991 0.604454365 -1.208388348 0.498388348 -1.314454365 0.356966991 -1.173033009 0.162512627 -1.367487373 0.162512627 -1.013933983 0.091801948 -1.084644661 0.012252436 -0.810640783 -0.031941738 -0.854834957 Z" fill="none" stroke="#222" stroke-width="0.01" />
<path d="M 1.795685425 -1.685685425 1.495165043 -1.561941738 1.539359217 -1.517747564 1.265355339 -1.438198052 1.336066017 -1.367487373 0.982512627 -1.367487373 1.176966991 -1.173033009 1.035545635 -1.031611652 1.141611652 -0.925545635 1.283033009 -1.066966991 1.477487373 -0.872512627 1.477487373 -1.226066017 1.548198052 -1.155355339 1.627747564 -1.429359217 1.671941738 -1.385165043 Z" fill="none" stroke="#222" stroke-width="0.01" />
<path d="M -0.664314575 -0.565685425 -0.964834957 -0.441941738 -0.920640783 -0.397747564 -1.194644661 -0.318198052 -1.123933983 -0.247487373 -1.477487373 -0.247487373 -1.283033009 -0.053033009 -1.424454365 0.088388348 -1.318388348 0.194454365 -1.176966991 0.053033009 -0.982512627 0.247487373 -0.982512627 -0.106066017 -0.911801948 -0.035355339 -0.832252436 -0.309359217 -0.788058262 -0.265165043 Z" fill="none" stroke="#222" stroke-width="0.01" />
<path d="M -0.975685425 0.565685425 -0.675165043 0.441941738 -0.719359217 0.397747564 -0.445355339 0.318198052 -0.516066017 0.247487373 -0.162512627 0.247487373 -0.356966991 0.053033009 -0.215545635 -0.088388348 -0.321611652 -0.194454365 -0.463033009 -0.053033009 -0.657487373 -0.247487373 -0.657487373 0.106066017 -0.728198052 0.035355339 -0.807747564 0.309359217 -0.851941738 0.265165043 Z" fill="none" stroke="#222" stroke-width="0.01" />
<path d="M 0.975685425 -0.565685425 0.675165043 -0.441941738 0.719359217 -0.397747564 0.445355339 -0.318198052 0.516066017 -0.247487373 0.162512627 -0.247487373 0.356966991 -0.053033009 0.215545635 0.088388348 0.321611652 0.194454365 0.463033009 0.053033009 0.657487373 0.247487373 0.657487373 -0.106066017 0.728198052 -0.035355339 0.807747564 -0.309359217 0.851941738 -0.265165043 Z" fill="none" stroke="#222" stroke-width="0.01" />
<path d="M 0.664314575 0.565685425 0.964834957 0.441941738 0.920640783 0.397747564 1.194644661 0.318198052 1.123933983 0.247487373 1.477487373 0.247487373 1.283033009 0.053033009 1.424454365 -0.088388348 1.318388348 -0.194454365 1.176966991 -0.053033009 0.982512627 -0.247487373 0.982512627 0.106066017 0.911801948 0.035355339 0.832252436 0.309359217 0.788058262 0.265165043 Z" fill="none" stroke="#222" stroke-width="0.01" />
<path d="M -1.795685425 1.685685425 -1.495165043 1.561941738 -1.539359217 1.517747564 -1.265355339 1.438198052 -1.336066017 1.367487373 -0.982512627 1.367487373 -1.176966991 1.173033009 -1.035545635 1.031611652 -1.141611652 0.925545635 -1.283033009 1.066966991 -1.477487373 0.872512627 -1.477487373 1.226066017 -1.548198052 1.155355339 -1.627747564 1.429359217 -1.671941738 1.385165043 Z" fill="none" stroke="#222" stroke-width="0.01" />
<path d="M 0.155685425 0.554314575 -0.144834957 0.678058262 -0.100640783 0.722252436 -0.374644661 0.801801948 -0.303933983 0.872512627 -0.657487373 0.872512627 -0.463033009 1.066966991 -0.604454365 1.208388348 -0.498388348 1.314454365 -0.356966991 1.173033009 -0.162512627 1.367487373 -0.162512627 1.013933983 -0.091801948 1.084644661 -0.012252436 0.810640783 0.031941738 0.854834957 Z" fill="none" stroke="#222" stroke-width="0.01" />
<rect x="-1.795685425" y="-1.795685425" width="3.591370850" height="3.591370850" fill="none" stroke="#000" stroke-width="0.01" />
</g>
<text x="500" y="552" font-family="monospace" font-size="12">alternating</text>
<g transform="translate(960.000 980.000) scale(53.960078944 -53.960078944) translate(3.665651076 3.431711333)">
<path d="M -1.080000000 -0.220000000 -0.955000000 -0.520000000 -1.017500000 -0.520000000 -0.880000000 -0.770000000 -0.980000000 -0.770000000 -0.730000000 -1.020000000 -1.005000000 -1.020000000 -1.005000000 -1.220000000 -1.155000000 -1.220000000 -1.155000000 -1.020000000 -1.430000000 -1.020000000 -1.180000000 -0.770000000 -1.280000000 -0.770000000 -1.142500000 -0.520000000 -1.205000000 -0.520000000 Z" fill="none" stroke="#222" stroke-width="0.01" />
<path d="M -0.360000000 -1.820000000 -0.485000000 -1.520000000 -0.422500000 -1.520000000 -0.560000000 -1.270000000 -0.460000000 -1.270000000 -0.710000000 -1.020000000 -0.435000000 -1.020000000 -0.435000000 -0.820000000 -0.285000000 -0.820000000 -0.285000000 -1.020000000 -0.010000000 -1.020000000 -0.260000000 -1.270000000 -0.160000000 -1.270000000 -0.297500000 -1.520000000 -0.235000000 -1.520000000 Z" fill="none" stroke="#222" stroke-width="0.01" />
<path d="M 0.360000000 -0.220000000 0.485000000 -0.520000000 0.422500000 -0.520000000 0.560000000 -0.770000000 0.460000000 -0.770000000 0.710000000 -1.020000000 0.435000000 -1.020000000 0.435000000 -1.220000000 0.285000000 -1.220000000 0.285000000 -1.020000000 0.010000000 -1.020000000 0.260000000 -0.770000000 0.160000000 -0.770000000 0.297500000 -0.520000000 0.235000000 -0.520000000 Z" fill="none" stroke="#222" stroke-width="0.01" />
<path d="M 1.080000000 -1.820000000 0.955000000 -1.520000000 1.017500000 -1.520000000 0.880000000 -1.270000000 0.980000000 -1.270000000 0.730000000 -1.020000000 1.005000000 -1.020000000 1.005000000 -0.820000000 1.155000000 -0.820000000 1.155000000 -1.020000000 1.430000000 -1.020000000 1.180000000 -1.270000000 1.280000000 -1.270000000 1.142500000 -1.520000000 1.205000000 -1.520000000 Z" fill="none" stroke="#222" stroke-width="0.01" />
<path d="M -0.396000000 -0.800000000 -0.521000000 -0.500000000 -0.458500000 -0.500000000 -0.596000000 -0.250000000 -0.496000000 -0.250000000 -0.746000000 0.000000000 -0.471000000 0.000000000 -0.471000000 0.200000000 -0.321000000 0.200000000 -0.321000000 -0.000000000 -0.046000000 -0.000000000 -0.296000000 -0.250000000 -0.196000000 -0.250000000 -0.333500000 -0.500000000 -0.271000000 -0.500000000 Z" fill="none" stroke="#222" stroke-width="0.01" />
<path d="M 0.324000000 0.800000000 0.449000000 0.500000000 0.386500000 0.500000000 0.524000000 0.250000000 0.424000000 0.250000000 0.674000000 0.000000000 0.399000000 0.000000000 0.399000000 -0.200000000 0.249000000 -0.200000000 0.249000000 0.000000000 -0.026000000 0.000000000 0.224000000 0.250000000 0.124000000 0.250000000 0.261500000 0.500000000 0.199000000 0.500000000 Z" fill="none" stroke="#222" stroke-width="0.01" />
<path d="M 1.044000000 -0.800000000 0.919000000 -0.500000000 0.981500000 -0.500000000 0.844000000 -0.250000000 0.944000000 -0.250000000 0.694000000 0.000000000 0.969000000 0.000000000 0.969000000 0.200000000 1.119000000 0.200000000 1.119000000 -0.000000000 1.394000000 -0.000000000 1.144000000 -0.250000000 1.244000000 -0.250000000 1.106500000 -0.500000000 1.169000000 -0.500000000 Z" fill="none" stroke="#222" stroke-width="0.01" />
<path d="M 1.764000000 0.800000000 1.889000000 0.500000000 1.826500000 0.500000000 1.964000000 0.250000000 1.864000000 0.250000000 2.114000000 0.000000000 1.839000000 0.000000000 1.839000000 -0.200000000 1.689000000 -0.200000000 1.689000000 0.000000000 1.414000000 0.000000000 1.664000000 0.250000000 1.564000000 0.250000000 1.701500000 0.500000000 1.639000000 0.500000000 Z" fill="none" stroke="#222" stroke-width="0.01" />
<path d="M -0.432000000 1.820000000 -0.307000000 1.520000000 -0.369500000 1.520000000 -0.232000000 1.270000000 -0.332000000 1.270000000 -0.082000000 1.020000000 -0.357000000 1.020000000 -0.357000000 0.820000000 -0.507000000 0.820000000 -0.507000000 1.020000000 -0.782000000 1.020000000 -0.532000000 1.270000000 -0.632000000 1.270000000 -0.494500000 1.520000000 -0.557000000 1.520000000 Z" fill="none" stroke="#222" stroke-width="0.01" />
<path d="M 0.288000000 0.220000000 0.163000000 0.520000000 0.225500000 0.520000000 0.088000000 0.770000000 0.188000000 0.770000000 -0.062000000 1.020000000 0.213000000 1.020000000 0.213000000 1.220000000 0.363000000 1.220000000 0.363000000 1.020000000 0.638000000 1.020000000 0.388000000 0.770000000 0.488000000 0.770000000 0.350500000 0.520000000 0.413000000 0.520000000 Z" fill="none" stroke="#222" stroke-width="0.01" />
<rect x="-1.478000000" y="-1.820000000" width="3.640000000" height="3.640000000" fill="none" stroke="#000" stroke-width="0.01" />
</g>
<text x="960" y="552" font-family="monospace" font-size="12">sheared_brick</text>
<g transform="translate(40.000 1440.000) scale(53.960078944 -53.960078944) translate(3.665651076 3.431711333)">
<path d="M -1.440389490 0.315844051 -1.139869108 0.192100365 -1.184063282 0.147906191 -0.910059404 0.068356678 -0.980770083 -0.002354000 -0.627216692 -0.002354000 -0.821671057 -0.196808365 -0.680249701 -0.338229721 -0.786315718 -0.444295738 -0.927737074 -0.302874382 -1.122191439 -0.497328747 -1.122191439 -0.143775356 -1.192902117 -0.214486034 -1.272451630 0.059517843 -1.316645804 0.015323669 Z" fill="none" stroke="#222" stroke-width="0.01" />
<path d="M 0.040862986 -0.315844051 -0.259657396 -0.192100365 -0.215463222 -0.147906191 -0.489467100 -0.068356678 -0.418756422 0.002354000 -0.772309813 0.002354000 -0.577855448 0.196808365 -0.719276804 0.338229721 -0.613210787 0.444295738 -0.471789431 0.302874382 -0.277335066 0.497328747 -0.277335066 0.143775356 -0.206624388 0.214486034 -0.127074875 -0.059517843 -0.082880701 -0.015323669 Z" fill="none" stroke="#222" stroke-width="0.01" />
<path d="M -0.740626238 1.315209545 -0.440105856 1.191465859 -0.484300030 1.147271685 -0.210296152 1.067722172 -0.281006830 0.997011494 0.072546560 0.997011494 -0.121907804 0.802557129 0.019513552 0.661135773 -0.086552465 0.555069756 -0.227973822 0.696491112 -0.422428187 0.502036747 -0.422428187 0.855590138 -0.493138865 0.784879460 -0.572688378 1.058883337 -0.616882551 1.014689163 Z" fill="none" stroke="#222" stroke-width="0.01" />
<path d="M 0.740626238 0.683521443 0.440105856 0.807265129 0.484300030 0.851459303 0.210296152 0.931008816 0.281006830 1.001719494 -0.072546560 1.001719494 0.121907804 1.196173859 -0.019513552 1.337595215 0.086552465 1.443661232 0.227973822 1.302239876 0.422428187 1.496694241 0.422428187 1.143140850 0.493138865 1.213851528 0.572688378 0.939847651 0.616882551 0.984041825 Z" fill="none" stroke="#222" stroke-width="0.01" />
<path d="M 0.040862986 -1.315209545 -0.259657396 -1.191465859 -0.215463222 -1.147271685 -0.489467100 -1.067722172 -0.418756422 -0.997011494 -0.772309813 -0.997011494 -0.577855448 -0.802557129 -0.719276804 -0.661135773 -0.613210787 -0.555069756 -0.471789431 -0.696491112 -0.277335066 -0.502036747 -0.277335066 -0.855590138 -0.206624388 -0.784879460 -0.127074875 -1.058883337 -0.082880701 -1.014689163 Z" fill="none" stroke="#222" stroke-width="0.01" />
<path d="M -0.740626238 0.315844051 -0.440105856 0.192100365 -0.484300030 0.147906191 -0.210296152 0.068356678 -0.281006830 -0.002354000 0.072546560 -0.002354000 -0.121907804 -0.196808365 0.019513552 -0.338229721 -0.086552465 -0.444295738 -0.227973822 -0.302874382 -0.422428187 -0.497328747 -0.422428187 -0.143775356 -0.493138865 -0.214486034 -0.572688378 0.059517843 -0.616882551 0.015323669 Z" fill="none" stroke="#222" stroke-width="0.01" />
<path d="M 0.740626238 -0.315844051 0.440105856 -0.192100365 0.484300030 -0.147906191 0.210296152 -0.068356678 0.281006830 0.002354000 -0.072546560 0.002354000 0.121907804 0.196808365 -0.019513552 0.338229721 0.086552465 0.444295738 0.227973822 0.302874382 0.422428187 0.497328747 0.422428187 0.143775356 0.493138865 0.214486034 0.572688378 -0.059517843 0.616882551 -0.015323669 Z" fill="none" stroke="#222" stroke-width="0.01" />
<path d="M -0.040862986 1.315209545 0.259657396 1.191465859 0.215463222 1.147271685 0.489467100 1.067722172 0.418756422 0.997011494 0.772309813 0.997011494 0.577855448 0.802557129 0.719276804 0.661135773 0.613210787 0.555069756 0.471789431 0.696491112 0.277335066 0.502036747 0.277335066 0.855590138 0.206624388 0.784879460 0.127074875 1.058883337 0.082880701 1.014689163 Z" fill="none" stroke="#222" stroke-width="0.01" />
<path d="M -0.740626238 -0.683521443 -0.440105856 -0.807265129 -0.484300030 -0.851459303 -0.210296152 -0.931008816 -0.281006830 -1.001719494 0.072546560 -1.001719494 -0.121907804 -1.196173859 0.019513552 -1.337595215 -0.086552465 -1.443661232 -0.227973822 -1.302239876 -0.422428187 -1.496694241 -0.422428187 -1.143140850 -0.493138865 -1.213851528 -0.572688378 -0.939847651 -0.616882551 -0.984041825 Z" fill="none" stroke="#222" stroke-width="0.01" />
<path d="M 0.740626238 -1.315209545 0.440105856 -1.191465859 0.484300030 -1.147271685 0.210296152 -1.067722172 0.281006830 -0.997011494 -0.072546560 -0.997011494 0.121907804 -0.802557129 -0.019513552 -0.661135773 0.086552465 -0.555069756 0.227973822 -0.696491112 0.422428187 -0.502036747 0.422428187 -0.855590138 0.493138865 -0.784879460 0.572688378 -1.058883337 0.616882551 -1.014689163 Z" fill="none" stroke="#222" stroke-width="0.01" />
<rect x="-1.830734080" y="-1.496694241" width="2.993388482" height="2.993388482" fill="none" stroke="#000" stroke-width="0.01" />
</g>
<text x="40" y="1012" font-family="monospace" font-size="12">diamond_lattice</text>
<g transform="translate(500.000 1440.000) scale(53.960078944 -53.960078944) translate(3.665651076 3.431711333)">
<path d="M -1.230000000 -0.170000000 -1.105000000 -0.470000000 -1.167500000 -0.470000000 -1.030000000 -0.720000000 -1.130000000 -0.720000000 -0.880000000 -0.970000000 -1.155000000 -0.970000000 -1.155000000 -1.170000000 -1.305000000 -1.170000000 -1.305000000 -0.970000000 -1.580000000 -0.970000000 -1.330000000 -0.720000000 -1.430000000 -0.720000000 -1.292500000 -0.470000000 -1.355000000 -0.470000000 Z" fill="none" stroke="#222" stroke-width="0.01" />
<path d="M -0.410000000 -0.092400000 -0.285000000 -0.392400000 -0.347500000 -0.392400000 -0.210000000 -0.642400000 -0.310000000 -0.642400000 -0.060000000 -0.892400000 -0.335000000 -0.892400000 -0.335000000 -1.092400000 -0.485000000 -1.092400000 -0.485000000 -0.892400000 -0.760000000 -0.892400000 -0.510000000 -0.642400000 -0.610000000 -0.642400000 -0.472500000 -0.392400000 -0.535000000 -0.392400000 Z" fill="none" stroke="#222" stroke-width="0.01" />
<path d="M 0.410000000 -0.170000000 0.535000000 -0.470000000 0.472500000 -0.470000000 0.610000000 -0.720000000 0.510000000 -0.720000000 0.760000000 -0.970000000 0.485000000 -0.970000000 0.485000000 -1.170000000 0.335000000 -1.170000000 0.335000000 -0.970000000 0.060000000 -0.970000000 0.310000000 -0.720000000 0.210000000 -0.720000000 0.347500000 -0.470000000 0.285000000 -0.470000000 Z" fill="none" stroke="#222" stroke-width="0.01" />
<path d="M 1.230000000 -0.092400000 1.355000000 -0.392400000 1.292500000 -0.392400000 1.430000000 -0.642400000 1.330000000 -0.642400000 1.580000000 -0.892400000 1.305000000 -0.892400000 1.305000000 -1.092400000 1.155000000 -1.092400000 1.155000000 -0.892400000 0.880000000 -0.892400000 1.130000000 -0.642400000 1.030000000 -0.642400000 1.167500000 -0.392400000 1.105000000 -0.392400000 Z" fill="none" stroke="#222" stroke-width="0.01" />
<path d="M -1.620000000 0.000000000 -1.320000000 0.125000000 -1.320000000 0.062500000 -1.070000000 0.200000000 -1.070000000 0.100000000 -0.820000000 0.350000000 -0.820000000 0.075000000 -0.620000000 0.075000000 -0.620000000 -0.075000000 -0.820000000 -0.075000000 -0.820000000 -0.350000000 -1.070000000 -0.100000000 -1.070000000 -0.200000000 -1.320000000 -0.062500000 -1.320000000 -0.125000000 Z" fill="none" stroke="#222" stroke-width="0.01" />
<path d="M -0.800000000 0.077600000 -0.500000000 0.202600000 -0.500000000 0.140100000 -0.250000000 0.277600000 -0.250000000 0.177600000 0.000000000 0.427600000 0.000000000 0.152600000 0.200000000 0.152600000 0.200000000 0.002600000 0.000000000 0.002600000 0.000000000 -0.272400000 -0.250000000 -0.022400000 -0.250000000 -0.122400000 -0.500000000 0.015100000 -0.500000000 -0.047400000 Z" fill="none" stroke="#222" stroke-width="0.01" />
<path d="M 0.020000000 0.000000000 0.320000000 0.125000000 0.320000000 0.062500000 0.570000000 0.200000000 0.570000000 0.100000000 0.820000000 0.350000000 0.820000000 0.075000000 1.020000000 0.075000000 1.020000000 -0.075000000 0.820000000 -0.075000000 0.820000000 -0.350000000 0.570000000 -0.100000000 0.570000000 -0.200000000 0.320000000 -0.062500000 0.320000000 -0.125000000 Z" fill="none" stroke="#222" stroke-width="0.01" />
<path d="M 0.840000000 0.077600000 1.140000000 0.202600000 1.140000000 0.140100000 1.390000000 0.277600000 1.390000000 0.177600000 1.640000000 0.427600000 1.640000000 0.152600000 1.840000000 0.152600000 1.840000000 0.002600000 1.640000000 0.002600000 1.640000000 -0.272400000 1.390000000 -0.022400000 1.390000000 -0.122400000 1.140000000 0.015100000 1.140000000 -0.047400000 Z" fill="none" stroke="#222" stroke-width="0.01" />
<path d="M -1.230000000 1.770000000 -1.105000000 1.470000000 -1.167500000 1.470000000 -1.030000000 1.220000000 -1.130000000 1.220000000 -0.880000000 0.970000000 -1.155000000 0.970000000 -1.155000000 0.770000000 -1.305000000 0.770000000 -1.305000000 0.970000000 -1.580000000 0.970000000 -1.330000000 1.220000000 -1.430000000 1.220000000 -1.292500000 1.470000000 -1.355000000 1.470000000 Z" fill="none" stroke="#222" stroke-width="0.01" />
<path d="M -0.410000000 1.847600000 -0.285000000 1.547600000 -0.347500000 1.547600000 -0.210000000 1.297600000 -0.310000000 1.297600000 -0.060000000 1.047600000 -0.335000000 1.047600000 -0.335000000 0.847600000 -0.485000000 0.847600000 -0.485000000 1.047600000 -0.760000000 1.047600000 -0.510000000 1.297600000 -0.610000000 1.297600000 -0.472500000 1.547600000 -0.535000000 1.547600000 Z" fill="none" stroke="#222" stroke-width="0.01" />
<rect x="-1.620000000" y="-1.391200000" width="3.460000000" height="3.460000000" fill="none" stroke="#000" stroke-width="0.01" />
</g>
<text x="500" y="1012" font-family="monospace" font-size="12">herringbone</text>
<g transform="translate(960.000 1440.000) scale(53.960078944 -53.960078944) translate(3.665651076 3.431711333)">
<path d="M 1.704507130 0.800000000 1.829507130 0.500000000 1.767007130 0.500000000 1.904507130 0.250000000 1.804507130 0.250000000 2.054507130 0.000000000 1.779507130 0.000000000 1.779507130 -0.200000000 1.629507130 -0.200000000 1.629507130 0.000000000 1.354507130 0.000000000 1.604507130 0.250000000 1.504507130 0.250000000 1.642007130 0.500000000 1.579507130 0.500000000 Z" fill="none" stroke="#222" stroke-width="0.01" />
<path d="M 0.908747033 1.649097749 1.186209733 1.479865807 1.135646171 1.443129229 1.393832321 1.321695453 1.312930622 1.262916927 1.662131183 1.207608992 1.439651510 1.045968047 1.557208560 0.884164649 1.435856011 0.795996861 1.318298961 0.957800260 1.095819287 0.796159315 1.151127223 1.145359877 1.070225523 1.086581352 1.034519047 1.369656072 0.983955485 1.332919494 Z" fill="none" stroke="#222" stroke-width="0.01" />
<path d="M -0.234123543 1.868296209 0.089820536 1.894473175 0.070506974 1.835032143 0.350760940 1.888548165 0.319859241 1.793442513 0.634877618 1.953952394 0.549897945 1.692411852 0.740109248 1.630608453 0.693756699 1.487949976 0.503545396 1.549753374 0.418565722 1.288212832 0.258055842 1.603231210 0.227154142 1.508125558 0.031879850 1.716150078 0.012566288 1.656709046 Z" fill="none" stroke="#222" stroke-width="0.01" />
<path d="M -1.287566883 1.373869018 -1.040877053 1.585456181 -1.021563491 1.526015148 -0.826289198 1.734039668 -0.795387499 1.638934016 -0.634877618 1.953952394 -0.549897945 1.692411852 -0.359686642 1.754215251 -0.313334092 1.611556773 -0.503545396 1.549753374 -0.418565722 1.288212832 -0.733584100 1.448722713 -0.702682400 1.353617061 -0.982936366 1.407133084 -0.963622804 1.347692051 Z" fill="none" stroke="#222" stroke-width="0.01" />
<path d="M -1.849203437 0.354670558 -1.773994986 0.670848813 -1.723431424 0.634112235 -1.687724947 0.917186955 -1.606823248 0.858408430 -1.662131183 1.207608992 -1.439651510 1.045968047 -1.322094459 1.207771446 -1.200741910 1.119603658 -1.318298961 0.957800260 -1.095819287 0.796159315 -1.445019849 0.740851380 -1.364118149 0.682072854 -1.622304299 0.560639078 -1.571740737 0.523902500 Z" fill="none" stroke="#222" stroke-width="0.01" />
<path d="M -1.704507130 -0.800000000 -1.829507130 -0.500000000 -1.767007130 -0.500000000 -1.904507130 -0.250000000 -1.804507130 -0.250000000 -2.054507130 0.000000000 -1.779507130 0.000000000 -1.779507130 0.200000000 -1.629507130 0.200000000 -1.629507130 0.000000000 -1.354507130 0.000000000 -1.604507130 -0.250000000 -1.504507130 -0.250000000 -1.642007130 -0.500000000 -1.579507130 -0.500000000 Z" fill="none" stroke="#222" stroke-width="0.01" />
<path d="M -0.908747033 -1.649097749 -1.186209733 -1.479865807 -1.135646171 -1.443129229 -1.393832321 -1.321695453 -1.312930622 -1.262916927 -1.662131183 -1.207608992 -1.439651510 -1.045968047 -1.557208560 -0.884164649 -1.435856011 -0.795996861 -1.318298961 -0.957800260 -1.095819287 -0.796159315 -1.151127223 -1.145359877 -1.070225523 -1.086581352 -1.034519047 -1.369656072 -0.983955485 -1.332919494 Z" fill="none" stroke="#222" stroke-width="0.01" />
<path d="M 0.234123543 -1.868296209 -0.089820536 -1.894473175 -0.070506974 -1.835032143 -0.350760940 -1.888548165 -0.319859241 -1.793442513 -0.634877618 -1.953952394 -0.549897945 -1.692411852 -0.740109248 -1.630608453 -0.693756699 -1.487949976 -0.503545396 -1.549753374 -0.418565722 -1.288212832 -0.258055842 -1.603231210 -0.227154142 -1.508125558 -0.031879850 -1.716150078 -0.012566288 -1.656709046 Z" fill="none" stroke="#222" stroke-width="0.01" />
<path d="M 1.287566883 -1.373869018 1.040877053 -1.585456181 1.021563491 -1.526015148 0.826289198 -1.734039668 0.795387499 -1.638934016 0.634877618 -1.953952394 0.549897945 -1.692411852 0.359686642 -1.754215251 0.313334092 -1.611556773 0.503545396 -1.549753374 0.418565722 -1.288212832 0.733584100 -1.448722713 0.702682400 -1.353617061 0.982936366 -1.407133084 0.963622804 -1.347692051 Z" fill="none" stroke="#222" stroke-width="0.01" />
<path d="M 1.849203437 -0.354670558 1.773994986 -0.670848813 1.723431424 -0.634112235 1.687724947 -0.917186955 1.606823248 -0.858408430 1.662131183 -1.207608992 1.439651510 -1.045968047 1.322094459 -1.207771446 1.200741910 -1.119603658 1.318298961 -0.957800260 1.095819287 -0.796159315 1.445019849 -0.740851380 1.364118149 -0.682072854 1.622304299 -0.560639078 1.571740737 -0.523902500 Z" fill="none" stroke="#222" stroke-width="0.01" />
<rect x="-2.054507130" y="-2.054507130" width="4.109014260" height="4.109014260" fill="none" stroke="#000" stroke-width="0.01" />
</g>
<text x="960" y="1012" font-family="monospace" font-size="12">circle_ring</text>
<g transform="translate(40.000 1900.000) scale(53.960078944 -53.960078944) translate(3.665651076 3.431711333)">
<path d="M 0.000000000 0.800000000 0.125000000 0.500000000 0.062500000 0.500000000 0.200000000 0.250000000 0.100000000 0.250000000 0.350000000 0.000000000 0.075000000 0.000000000 0.075000000 -0.200000000 -0.075000000 -0.200000000 -0.075000000 0.000000000 -0.350000000 0.000000000 -0.100000000 0.250000000 -0.200000000 0.250000000 -0.062500000 0.500000000 -0.125000000 0.500000000 Z" fill="none" stroke="#222" stroke-width="0.01" />
<path d="M -0.356830560 0.805960267 -0.048948545 0.701875373 -0.090197492 0.654920348 0.188370292 0.593225617 0.122371977 0.518097577 0.475187865 0.540921892 0.293692500 0.334319780 0.443948581 0.202323151 0.344951109 0.089631090 0.194695028 0.221627720 0.013199663 0.015025608 -0.009624652 0.367841496 -0.075622966 0.292713455 -0.172695385 0.561010298 -0.213944332 0.514055272 Z" fill="none" stroke="#222" stroke-width="0.01" />
<path d="M -0.860750892 0.415821960 -0.579357011 0.578433409 -0.571304230 0.516454358 -0.341104145 0.685019393 -0.328219696 0.585852912 -0.112514617 0.865980239 -0.077082381 0.593272416 0.121250581 0.619041315 0.140577256 0.470291593 -0.057755706 0.444522694 -0.022323471 0.171814871 -0.302450797 0.387519950 -0.289566347 0.288353469 -0.555198668 0.392496257 -0.547145887 0.330517207 Z" fill="none" stroke="#222" stroke-width="0.01" />
<path d="M -0.978094085 -0.306646311 -0.914545662 0.012080214 -0.862667316 -0.022775018 -0.837378748 0.261419877 -0.754373394 0.205651505 -0.822465849 0.552585818 -0.594201127 0.399222796 -0.482664383 0.565233503 -0.358156353 0.481580945 -0.469693096 0.315570238 -0.241428374 0.162207216 -0.588362687 0.094114762 -0.505357334 0.038346390 -0.758910624 -0.092485483 -0.707032278 -0.127340715 Z" fill="none" stroke="#222" stroke-width="0.01" />
<path d="M -0.510997781 -0.962538970 -0.708509886 -0.704442150 -0.648084999 -0.688470831 -0.844905026 -0.481908184 -0.748225206 -0.456354074 -1.053810030 -0.278539801 -0.787940527 -0.208265998 -0.839048747 -0.014906360 -0.694029018 0.023424806 -0.642920798 -0.169934833 -0.377051295 -0.099661030 -0.554865568 -0.405245853 -0.458185748 -0.379691743 -0.527235224 -0.656528193 -0.466810337 -0.640556874 Z" fill="none" stroke="#222" stroke-width="0.01" />
<path d="M 0.346923165 -1.097335098 0.022665421 -1.075382521 0.050545889 -1.019445686 -0.234538480 -1.030984850 -0.189929731 -0.941485915 -0.525198943 -1.053711382 -0.402524884 -0.807589308 -0.581522755 -0.718371810 -0.514609632 -0.584123406 -0.335611760 -0.673340904 -0.212937701 -0.427218831 -0.100712233 -0.762488043 -0.056103484 -0.672989107 0.106306825 -0.907572016 0.134187293 -0.851635182 Z" fill="none" stroke="#222" stroke-width="0.01" />
<path d="M 1.083217209 -0.536694026 0.852720022 -0.765814184 0.829096413 -0.707950766 0.649614683 -0.929744721 0.611816908 -0.837163253 0.474857673 -1.163111359 0.370913794 -0.908512321 0.185750858 -0.984107870 0.129054196 -0.845235668 0.314217133 -0.769640119 0.210273253 -0.515041081 0.536221360 -0.652000316 0.498423585 -0.559418848 0.781849196 -0.592223931 0.758225587 -0.534360514 Z" fill="none" stroke="#222" stroke-width="0.01" />
<path d="M 1.186736054 0.435841185 1.206745281 0.111457722 1.147682445 0.131898648 1.195856980 -0.149322732 1.101356443 -0.116617250 1.255844081 -0.434632296 0.995967605 -0.344692222 0.930556642 -0.533693296 0.788805836 -0.484635074 0.854216799 -0.295634000 0.594340323 -0.205693926 0.912355369 -0.051206287 0.817854832 -0.018500806 1.029556774 0.172780500 0.970493938 0.193221426 Z" fill="none" stroke="#222" stroke-width="0.01" />
<path d="M 0.514549473 1.212616526 0.771458165 1.013561448 0.717120822 0.982679363 0.960191315 0.833270577 0.873251565 0.783859242 1.214129276 0.690038207 0.975044966 0.554157035 1.073867636 0.380277537 0.943458013 0.306160534 0.844635342 0.480040033 0.605551033 0.344158861 0.699372067 0.685036571 0.612432318 0.635625236 0.608446136 0.920915195 0.554108792 0.890033110 Z" fill="none" stroke="#222" stroke-width="0.01" />
<path d="M -0.558561513 1.249043248 -0.239459926 1.310680718 -0.252120552 1.249476481 0.020549770 1.333483298 0.000292769 1.235556520 0.295752218 1.429730963 0.240045464 1.160432322 0.435899021 1.119918320 0.405513519 0.973028153 0.209659962 1.013542155 0.153953209 0.744243515 -0.040221233 1.039702964 -0.060478235 0.941776185 -0.277441804 1.127068008 -0.290102429 1.065863772 Z" fill="none" stroke="#222" stroke-width="0.01" />
<rect x="-1.195404135" y="-1.163111359" width="2.592842322" height="2.592842322" fill="none" stroke="#000" stroke-width="0.01" />
</g>
<text x="40" y="1472" font-family="monospace" font-size="12">spiral</text>
<g transform="translate(500.000 1900.000) scale(53.960078944 -53.960078944) translate(3.665651076 3.431711333)">
<path d="M -0.800000000 0.000000000 -0.500000000 0.125000000 -0.500000000 0.062500000 -0.250000000 0.200000000 -0.250000000 0.100000000 0.000000000 0.350000000 0.000000000 0.075000000 0.200000000 0.075000000 0.200000000 -0.075000000 -0.000000000 -0.075000000 -0.000000000 -0.350000000 -0.250000000 -0.100000000 -0.250000000 -0.200000000 -0.500000000 -0.062500000 -0.500000000 -0.125000000 Z" fill="none" stroke="#222" stroke-width="0.01" />
<path d="M 0.272826485 -0.249931409 -0.032820465 -0.139455430 0.009397678 -0.093369875 -0.267824457 -0.025885523 -0.200275427 0.047851365 -0.553490221 0.032381719 -0.367730390 0.235158161 -0.515204165 0.370256220 -0.413880621 0.480861551 -0.266406846 0.345763492 -0.080647015 0.548539934 -0.065177369 0.195325141 0.002371661 0.269062029 0.093833965 -0.001198766 0.136052108 0.044886789 Z" fill="none" stroke="#222" stroke-width="0.01" />
<path d="M -0.016775962 0.191153436 0.133973135 -0.096769660 0.071712445 -0.102233768 0.230542395 -0.339255491 0.130925291 -0.347998064 0.401824482 -0.575184393 0.127877446 -0.599226467 0.145362591 -0.798460675 -0.004063066 -0.811574534 -0.021548210 -0.612340326 -0.295495247 -0.636382400 -0.068308918 -0.365483209 -0.167926022 -0.374225781 -0.052808935 -0.113161984 -0.115069625 -0.118626092 Z" fill="none" stroke="#222" stroke-width="0.01" />
<path d="M -0.033596870 -0.043821168 0.049734694 0.270313916 0.099334741 0.232286487 0.142324353 0.514347018 0.221684428 0.453503132 0.175393956 0.804013035 0.393634162 0.636692348 0.515321935 0.795412498 0.634362047 0.704146669 0.512674275 0.545426519 0.730914482 0.378105832 0.380404579 0.331815360 0.459764654 0.270971474 0.198534835 0.156231629 0.248134882 0.118204200 Z" fill="none" stroke="#222" stroke-width="0.01" />
<path d="M -0.059082809 -0.010450917 -0.332724111 -0.185794688 -0.343610483 -0.124250095 -0.565838836 -0.303193687 -0.583257031 -0.204722338 -0.785889915 -0.494446197 -0.833789951 -0.223649989 -1.030732648 -0.258486379 -1.056859941 -0.110779356 -0.859917244 -0.075942966 -0.907817280 0.194853243 -0.618093421 -0.007779641 -0.635511616 0.090691707 -0.365383227 -0.001160909 -0.376269599 0.060383684 Z" fill="none" stroke="#222" stroke-width="0.01" />
<path d="M 0.136274268 -0.086686535 0.456491863 -0.142235539 0.422946360 -0.194970245 0.707685291 -0.213135905 0.654012486 -0.297511434 0.999133323 -0.220754624 0.851533108 -0.452787330 1.020284167 -0.560132940 0.939774959 -0.686696234 0.771023900 -0.579350624 0.623423686 -0.811383330 0.546666875 -0.466262493 0.492994070 -0.550638023 0.355855353 -0.300439656 0.322309850 -0.353174362 Z" fill="none" stroke="#222" stroke-width="0.01" />
<path d="M -0.065752731 0.244596883 -0.264348407 0.501860867 -0.203991215 0.518086136 -0.401678114 0.723819313 -0.305106606 0.749779744 -0.611436451 0.926307436 -0.345864806 0.997698620 -0.397785667 1.190841635 -0.252928406 1.229782280 -0.201007545 1.036639266 0.064564101 1.108030449 -0.111963592 0.801700605 -0.015392084 0.827661035 -0.083276831 0.550536675 -0.022919639 0.566761944 Z" fill="none" stroke="#222" stroke-width="0.01" />
<path d="M -0.155635887 -0.299667430 -0.182976941 -0.623515337 -0.238442468 -0.594708648 -0.231645065 -0.879945471 -0.320389908 -0.833854769 -0.213754557 -1.170943632 -0.457802875 -1.044194200 -0.549984280 -1.221683886 -0.683101544 -1.152547832 -0.590920139 -0.975058147 -0.834968457 -0.848308715 -0.497879594 -0.741673364 -0.586624437 -0.695582661 -0.349373521 -0.537095270 -0.404839048 -0.508288581 Z" fill="none" stroke="#222" stroke-width="0.01" />
<path d="M 0.390967751 0.142780796 0.629884311 0.363107547 0.651324226 0.304399966 0.838986738 0.519316302 0.873290601 0.425384172 1.022361268 0.745974154 1.116696891 0.487660798 1.304561150 0.556268524 1.356016945 0.415370329 1.168152686 0.346762603 1.262488309 0.088449247 0.941898327 0.237519913 0.976202190 0.143587783 0.694204055 0.186984804 0.715643969 0.128277223 Z" fill="none" stroke="#222" stroke-width="0.01" />
<path d="M -0.452929323 0.186962640 -0.777927540 0.185886368 -0.754080265 0.243657965 -1.037630660 0.211949554 -0.999475019 0.304384109 -1.325950510 0.168686822 -1.221022498 0.422881850 -1.405891609 0.499193132 -1.348658148 0.637844965 -1.163789037 0.561533684 -1.058861024 0.815728712 -0.923163738 0.489253220 -0.885008097 0.581687776 -0.706385714 0.359201160 -0.682538438 0.416972757 Z" fill="none" stroke="#222" stroke-width="0.01" />
<rect x="-1.405891609" y="-1.376905080" width="2.761908554" height="2.761908554" fill="none" stroke="#000" stroke-width="0.01" />
</g>
<text x="500" y="1472" font-family="monospace" font-size="12">sunflower</text>
<g transform="translate(960.000 1900.000) scale(53.960078944 -53.960078944) translate(3.665651076 3.431711333)">
<path d="M -0.720000000 0.290000000 -0.595000000 -0.010000000 -0.657500000 -0.010000000 -0.520000000 -0.260000000 -0.620000000 -0.260000000 -0.370000000 -0.510000000 -0.645000000 -0.510000000 -0.645000000 -0.710000000 -0.795000000 -0.710000000 -0.795000000 -0.510000000 -1.070000000 -0.510000000 -0.820000000 -0.260000000 -0.920000000 -0.260000000 -0.782500000 -0.010000000 -0.845000000 -0.010000000 Z" fill="none" stroke="#222" stroke-width="0.01" />
<path d="M -0.000000000 -1.310000000 -0.125000000 -1.010000000 -0.062500000 -1.010000000 -0.200000000 -0.760000000 -0.100000000 -0.760000000 -0.350000000 -0.510000000 -0.075000000 -0.510000000 -0.075000000 -0.310000000 0.075000000 -0.310000000 0.075000000 -0.510000000 0.350000000 -0.510000000 0.100000000 -0.760000000 0.200000000 -0.760000000 0.062500000 -1.010000000 0.125000000 -1.010000000 Z" fill="none" stroke="#222" stroke-width="0.01" />
<path d="M 0.720000000 0.290000000 0.845000000 -0.010000000 0.782500000 -0.010000000 0.920000000 -0.260000000 0.820000000 -0.260000000 1.070000000 -0.510000000 0.795000000 -0.510000000 0.795000000 -0.710000000 0.645000000 -0.710000000 0.645000000 -0.510000000 0.370000000 -0.510000000 0.620000000 -0.260000000 0.520000000 -0.260000000 0.657500000 -0.010000000 0.595000000 -0.010000000 Z" fill="none" stroke="#222" stroke-width="0.01" />
<path d="M -0.036000000 -0.290000000 -0.161000000 0.010000000 -0.098500000 0.010000000 -0.236000000 0.260000000 -0.136000000 0.260000000 -0.386000000 0.510000000 -0.111000000 0.510000000 -0.111000000 0.710000000 0.039000000 0.710000000 0.039000000 0.510000000 0.314000000 0.510000000 0.064000000 0.260000000 0.164000000 0.260000000 0.026500000 0.010000000 0.089000000 0.010000000 Z" fill="none" stroke="#222" stroke-width="0.01" />
<path d="M 0.684000000 1.310000000 0.809000000 1.010000000 0.746500000 1.010000000 0.884000000 0.760000000 0.784000000 0.760000000 1.034000000 0.510000000 0.759000000 0.510000000 0.759000000 0.310000000 0.609000000 0.310000000 0.609000000 0.510000000 0.334000000 0.510000000 0.584000000 0.760000000 0.484000000 0.760000000 0.621500000 1.010000000 0.559000000 1.010000000 Z" fill="none" stroke="#222" stroke-width="0.01" />
<path d="M 1.404000000 -0.290000000 1.279000000 0.010000000 1.341500000 0.010000000 1.204000000 0.260000000 1.304000000 0.260000000 1.054000000 0.510000000 1.329000000 0.510000000 1.329000000 0.710000000 1.479000000 0.710000000 1.479000000 0.510000000 1.754000000 0.510000000 1.504000000 0.260000000 1.604000000 0.260000000 1.466500000 0.010000000 1.529000000 0.010000000 Z" fill="none" stroke="#222" stroke-width="0.01" />
<path d="M 1.560110351 0.000000000 1.860110351 0.125000000 1.860110351 0.062500000 2.110110351 0.200000000 2.110110351 0.100000000 2.360110351 0.350000000 2.360110351 0.075000000 2.560110351 0.075000000 2.560110351 -0.075000000 2.360110351 -0.075000000 2.360110351 -0.350000000 2.110110351 -0.100000000 2.110110351 -0.200000000 1.860110351 -0.062500000 1.860110351 -0.125000000 Z" fill="none" stroke="#222" stroke-width="0.01" />
<path d="M -0.843770526 1.086262934 -1.149417476 1.196738913 -1.107199332 1.242824468 -1.384421467 1.310308821 -1.316872438 1.384045708 -1.670087231 1.368576063 -1.484327400 1.571352504 -1.631801176 1.706450563 -1.530477632 1.817055895 -1.383003856 1.681957836 -1.197244025 1.884734277 -1.181774379 1.531519484 -1.114225350 1.605256372 -1.022763046 1.334995578 -0.980544902 1.381081132 Z" fill="none" stroke="#222" stroke-width="0.01" />
<path d="M 0.496713252 -1.762877709 0.647462350 -2.050800806 0.585201660 -2.056264914 0.744031609 -2.293286637 0.644414505 -2.302029209 0.915313696 -2.529215538 0.641366660 -2.553257613 0.658851805 -2.752491821 0.509426149 -2.765605679 0.491941004 -2.566371471 0.217993968 -2.590413546 0.445180297 -2.319514354 0.345563192 -2.328256927 0.460680279 -2.067193129 0.398419589 -2.072657237 Z" fill="none" stroke="#222" stroke-width="0.01" />
<path d="M 1.494146013 1.502770451 1.577477577 1.816905534 1.627077624 1.778878105 1.670067236 2.060938636 1.749427311 2.000094750 1.703136839 2.350604653 1.921377045 2.183283966 2.043064817 2.342004117 2.162104930 2.250738287 2.040417158 2.092018137 2.258657364 1.924697450 1.908147461 1.878406978 1.987507537 1.817563092 1.726277718 1.702823247 1.775877765 1.664795818 Z" fill="none" stroke="#222" stroke-width="0.01" />
<rect x="-2.113093606" y="-2.765605679" width="5.116210332" height="5.116210332" fill="none" stroke="#000" stroke-width="0.01" />
</g>
<text x="960" y="1472" font-family="monospace" font-size="12">core_plus_spiral</text>
<g transform="translate(40.000 2360.000) scale(53.960078944 -53.960078944) translate(3.665651076 3.431711333)">
<path d="M 2.837189131 -1.355378557 2.962189131 -1.655378557 2.899689131 -1.655378557 3.037189131 -1.905378557 2.937189131 -1.905378557 3.187189131 -2.155378557 2.912189131 -2.155378557 2.912189131 -2.355378557 2.762189131 -2.355378557 2.762189131 -2.155378557 2.487189131 -2.155378557 2.737189131 -1.905378557 2.637189131 -1.905378557 2.774689131 -1.655378557 2.712189131 -1.655378557 Z" fill="none" stroke="#222" stroke-width="0.01" />
<path d="M 2.366690868 1.943595438 2.666690868 2.068595438 2.666690868 2.006095438 2.916690868 2.143595438 2.916690868 2.043595438 3.166690868 2.293595438 3.166690868 2.018595438 3.366690868 2.018595438 3.366690868 1.868595438 3.166690868 1.868595438 3.166690868 1.593595438 2.916690868 1.843595438 2.916690868 1.743595438 2.666690868 1.881095438 2.666690868 1.818595438 Z" fill="none" stroke="#222" stroke-width="0.01" />
<path d="M 0.272415857 1.156539670 0.397415857 0.856539670 0.334915857 0.856539670 0.472415857 0.606539670 0.372415857 0.606539670 0.622415857 0.356539670 0.347415857 0.356539670 0.347415857 0.156539670 0.197415857 0.156539670 0.197415857 0.356539670 -0.077584143 0.356539670 0.172415857 0.606539670 0.072415857 0.606539670 0.209915857 0.856539670 0.147415857 0.856539670 Z" fill="none" stroke="#222" stroke-width="0.01" />
<path d="M 2.389609450 -1.899421479 2.689609450 -1.774421479 2.689609450 -1.836921479 2.939609450 -1.699421479 2.939609450 -1.799421479 3.189609450 -1.549421479 3.189609450 -1.824421479 3.389609450 -1.824421479 3.389609450 -1.974421479 3.189609450 -1.974421479 3.189609450 -2.249421479 2.939609450 -1.999421479 2.939609450 -2.099421479 2.689609450 -1.961921479 2.689609450 -2.024421479 Z" fill="none" stroke="#222" stroke-width="0.01" />
<path d="M -2.103239650 1.696488802 -1.978239650 1.396488802 -2.040739650 1.396488802 -1.903239650 1.146488802 -2.003239650 1.146488802 -1.753239650 0.896488802 -2.028239650 0.896488802 -2.028239650 0.696488802 -2.178239650 0.696488802 -2.178239650 0.896488802 -2.453239650 0.896488802 -2.203239650 1.146488802 -2.303239650 1.146488802 -2.165739650 1.396488802 -2.228239650 1.396488802 Z" fill="none" stroke="#222" stroke-width="0.01" />
<path d="M 1.498752485 2.741326076 1.798752485 2.866326076 1.798752485 2.803826076 2.048752485 2.941326076 2.048752485 2.841326076 2.298752485 3.091326076 2.298752485 2.816326076 2.498752485 2.816326076 2.498752485 2.666326076 2.298752485 2.666326076 2.298752485 2.391326076 2.048752485 2.641326076 2.048752485 2.541326076 1.798752485 2.678826076 1.798752485 2.616326076 Z" fill="none" stroke="#222" stroke-width="0.01" />
<path d="M 2.056936093 1.015670421 2.181936093 0.715670421 2.119436093 0.715670421 2.256936093 0.465670421 2.156936093 0.465670421 2.406936093 0.215670421 2.131936093 0.215670421 2.131936093 0.015670421 1.981936093 0.015670421 1.981936093 0.215670421 1.706936093 0.215670421 1.956936093 0.465670421 1.856936093 0.465670421 1.994436093 0.715670421 1.931936093 0.715670421 Z" fill="none" stroke="#222" stroke-width="0.01" />
<path d="M 0.208382688 0.815191617 0.508382688 0.940191617 0.508382688 0.877691617 0.758382688 1.015191617 0.758382688 0.915191617 1.008382688 1.165191617 1.008382688 0.890191617 1.208382688 0.890191617 1.208382688 0.740191617 1.008382688 0.740191617 1.008382688 0.465191617 0.758382688 0.715191617 0.758382688 0.615191617 0.508382688 0.752691617 0.508382688 0.690191617 Z" fill="none" stroke="#222" stroke-width="0.01" />
<path d="M -0.128341122 3.685714991 -0.003341122 3.385714991 -0.065841122 3.385714991 0.071658878 3.135714991 -0.028341122 3.135714991 0.221658878 2.885714991 -0.053341122 2.885714991 -0.053341122 2.685714991 -0.203341122 2.685714991 -0.203341122 2.885714991 -0.478341122 2.885714991 -0.228341122 3.135714991 -0.328341122 3.135714991 -0.190841122 3.385714991 -0.253341122 3.385714991 Z" fill="none" stroke="#222" stroke-width="0.01" />
<path d="M -2.999545422 2.434026082 -2.699545422 2.559026082 -2.699545422 2.496526082 -2.449545422 2.634026082 -2.449545422 2.534026082 -2.199545422 2.784026082 -2.199545422 2.509026082 -1.999545422 2.509026082 -1.999545422 2.359026082 -2.199545422 2.359026082 -2.199545422 2.084026082 -2.449545422 2.334026082 -2.449545422 2.234026082 -2.699545422 2.371526082 -2.699545422 2.309026082 Z" fill="none" stroke="#222" stroke-width="0.01" />
<rect x="-2.999545422" y="-2.529409219" width="6.389154872" height="6.389154872" fill="none" stroke="#000" stroke-width="0.01" />
</g>
<text x="40" y="1932" font-family="monospace" font-size="12">random_box</text>
</svg>
