<?xml version="1.0" encoding="UTF-8"?>
<svg xmlns="http://www.w3.org/2000/svg" width="1100" height="1100" viewBox="0 0 1100 1100">
  <rect x="0" y="0" width="1100" height="1100" fill="white"/>
  <text x="10.0" y="18.0" font-family="monospace" font-size="12">prefix=N200_job5490050_task2 run_id=2 L=10.2249055194 feas=9.858e-05 N=200</text>
  <rect x="40.000000" y="40.000000" width="1020.000000" height="1020.000000" fill="none" stroke="#000" stroke-width="2"/>
  <path d="M151.175589 222.672288 L128.461505 245.806269 L126.034917 240.063090 L108.400694 262.404436 L104.518153 253.215350 L91.251789 285.894419 L80.574801 260.624431 L62.196628 268.389513 L56.372816 254.605883 L74.750990 246.840801 L64.074002 221.570812 L96.753071 234.837176 L92.870530 225.648090 L121.181741 228.576731 L118.755153 222.833552 Z" fill="#888" fill-opacity="0.18" stroke="#000" stroke-width="1"/>
  <path d="M313.471320 212.692751 L327.341940 183.388884 L331.517877 188.018570 L340.849561 161.129516 L347.531059 168.537013 L349.346057 133.314524 L367.720177 153.685142 L382.535172 140.322145 L392.557420 151.433392 L377.742425 164.796388 L396.116545 185.167007 L360.894055 183.352008 L367.575554 190.759506 L339.869750 197.277942 L344.045686 201.907628 Z" fill="#888" fill-opacity="0.18" stroke="#000" stroke-width="1"/>
  <path d="M183.310554 114.677345 L215.381306 109.925762 L213.852685 115.970244 L241.393577 108.786868 L238.947783 118.458039 L269.240193 100.394597 L262.514261 126.990315 L281.856601 131.881902 L278.187911 146.388657 L258.845570 141.497070 L252.119639 168.092788 L234.056197 137.800379 L231.610403 147.471549 L210.795443 128.059207 L209.266823 134.103688 Z" fill="#888" fill-opacity="0.18" stroke="#000" stroke-width="1"/>
  <path d="M774.367468 1048.826373 L742.083233 1051.799404 L743.943363 1045.848576 L716.047765 1051.499877 L719.023974 1041.978553 L687.780141 1058.341344 L695.964714 1032.157701 L676.922064 1026.205285 L681.386377 1011.923298 L700.429026 1017.875714 L708.613598 991.692071 L724.976390 1022.935903 L727.952598 1013.414579 L747.663624 1033.946920 L749.523754 1027.996093 Z" fill="#888" fill-opacity="0.18" stroke="#000" stroke-width="1"/>
  <path d="M396.083097 60.181290 L428.469833 61.667914 L425.810467 67.307081 L454.217742 65.538378 L449.962756 74.561046 L483.156890 62.641842 L471.455678 87.454178 L489.501014 95.964151 L483.118534 109.498152 L465.073199 100.988180 L453.371987 125.800516 L441.452783 92.606382 L437.197797 101.629049 L420.491734 78.585416 L417.832368 84.224583 Z" fill="#888" fill-opacity="0.18" stroke="#000" stroke-width="1"/>
  <path d="M723.833849 180.644941 L697.112218 199.004275 L695.829616 192.902851 L674.245645 211.456389 L672.193482 201.694111 L652.918193 231.230211 L647.274747 204.383947 L627.750191 208.488271 L624.671948 193.844854 L644.196504 189.740530 L638.553058 162.894266 L668.089158 182.169555 L666.036996 172.407277 L693.264414 180.700004 L691.981812 174.598580 Z" fill="#888" fill-opacity="0.18" stroke="#000" stroke-width="1"/>
  <path d="M587.435474 77.831006 L557.175835 89.469945 L557.347890 83.237543 L532.039760 96.260606 L532.315049 86.288763 L506.697220 110.530150 L507.454263 83.107581 L487.510577 82.557005 L487.923509 67.599240 L507.867196 68.149817 L508.624239 40.727248 L532.865626 66.345077 L533.140914 56.373234 L557.692000 70.772739 L557.864056 64.540337 Z" fill="#888" fill-opacity="0.18" stroke="#000" stroke-width="1"/>
  <path d="M107.729636 408.625995 L111.442495 376.418459 L116.885189 379.459761 L117.076468 350.998120 L125.784779 355.864202 L116.179207 321.928218 L140.127063 335.309945 L149.859228 317.893323 L162.921694 325.192447 L153.189529 342.609069 L177.137385 355.990795 L143.201401 365.596367 L151.909712 370.462449 L127.770578 385.542364 L133.213273 388.583665 Z" fill="#888" fill-opacity="0.18" stroke="#000" stroke-width="1"/>
  <path d="M968.433102 901.918780 L1000.462056 906.944392 L997.200930 912.258288 L1025.630993 913.612220 L1020.413192 922.114454 L1054.713281 913.903372 L1040.364327 937.284516 L1057.368795 947.720119 L1049.542093 960.473470 L1032.537625 950.037867 L1018.188671 973.419012 L1009.977589 939.118922 L1004.759787 947.621157 L990.678679 922.886081 L987.417553 928.199977 Z" fill="#888" fill-opacity="0.18" stroke="#000" stroke-width="1"/>
  <path d="M668.829386 320.897718 L691.577998 297.797689 L693.996005 303.544486 L711.663578 281.229503 L715.532389 290.424378 L728.847549 257.765160 L739.486781 283.051068 L757.876532 275.313444 L763.679750 289.105757 L745.289999 296.843381 L755.929231 322.129288 L723.270013 308.814129 L727.138825 318.009004 L698.832020 315.038080 L701.250027 320.784877 Z" fill="#888" fill-opacity="0.18" stroke="#000" stroke-width="1"/>
  <path d="M662.240125 475.129804 L663.489316 507.526567 L657.646015 505.352106 L661.803435 533.509120 L652.454154 530.029984 L667.129514 562.101027 L641.418992 552.533401 L634.460719 571.231962 L620.436798 566.013257 L627.395071 547.314696 L601.684550 537.747070 L633.755593 523.071711 L624.406312 519.592574 L645.959415 501.003185 L640.116114 498.828725 Z" fill="#888" fill-opacity="0.18" stroke="#000" stroke-width="1"/>
  <path d="M1053.446465 433.200517 L1030.546687 410.250335 L1036.314454 407.882784 L1014.155163 390.020326 L1023.383591 386.232245 L990.842318 372.631379 L1016.220495 362.214155 L1008.644333 343.757300 L1022.486974 338.075178 L1030.063137 356.532034 L1055.441313 346.114810 L1041.840447 378.656083 L1051.068875 374.868002 L1047.849989 403.147683 L1053.617757 400.780132 Z" fill="#888" fill-opacity="0.18" stroke="#000" stroke-width="1"/>
  <path d="M618.072753 54.307470 L640.145663 78.053993 L634.297692 80.215861 L655.810701 98.851634 L646.453948 102.310623 L678.493305 117.055033 L652.762233 126.567254 L659.680212 145.280760 L645.645082 150.469244 L638.727103 131.755738 L612.996032 141.267959 L627.740442 109.228602 L618.383688 112.687592 L622.601751 84.539598 L616.753780 86.701466 Z" fill="#888" fill-opacity="0.18" stroke="#000" stroke-width="1"/>
  <path d="M796.528464 699.082465 L809.283507 728.888833 L803.049016 728.948429 L817.003280 753.755285 L807.028094 753.850638 L832.204443 778.550221 L804.772680 778.812443 L804.963387 798.762816 L790.000607 798.905846 L789.809900 778.955473 L762.378137 779.217694 L787.077721 754.041344 L777.102534 754.136698 L790.580033 729.067621 L784.345541 729.127216 Z" fill="#888" fill-opacity="0.18" stroke="#000" stroke-width="1"/>
  <path d="M841.497067 276.293223 L862.500218 300.990962 L856.562517 302.892577 L877.231917 322.459832 L867.731594 325.502415 L899.088858 341.646765 L872.962970 350.013867 L879.048136 369.014512 L864.797652 373.578386 L858.712486 354.577741 L832.586599 362.944843 L848.730949 331.587580 L839.230627 334.630163 L844.687114 306.695805 L838.749412 308.597419 Z" fill="#888" fill-opacity="0.18" stroke="#000" stroke-width="1"/>
  <path d="M185.529639 356.816301 L180.569826 388.855511 L175.249243 385.605307 L173.953711 414.038090 L165.440777 408.837764 L173.722295 443.120915 L150.311727 428.820017 L139.911074 445.845885 L127.141673 438.045395 L137.542326 421.019527 L114.131758 406.718629 L148.414909 398.437111 L139.901975 393.236784 L164.608075 379.104898 L159.287492 375.854694 Z" fill="#888" fill-opacity="0.18" stroke="#000" stroke-width="1"/>
  <path d="M159.084470 213.162009 L131.146616 196.712479 L136.133060 192.969778 L110.192079 181.257944 L118.170389 175.269622 L83.253808 170.294650 L105.194162 153.826765 L93.217519 137.870143 L105.184985 128.887661 L117.161628 144.844282 L139.101983 128.376397 L134.127011 163.292978 L142.105321 157.304656 L146.105949 185.484376 L151.092393 181.741674 Z" fill="#888" fill-opacity="0.18" stroke="#000" stroke-width="1"/>
  <path d="M823.379013 442.064068 L831.961937 473.328171 L825.777264 472.539333 L836.228193 499.013466 L826.332717 497.751326 L847.916055 525.645366 L820.703497 522.174480 L818.179216 541.965431 L803.336003 540.072221 L805.860283 520.281269 L778.647725 516.810383 L806.541765 495.227045 L796.646289 493.964904 L813.407919 470.961658 L807.223247 470.172820 Z" fill="#888" fill-opacity="0.18" stroke="#000" stroke-width="1"/>
  <path d="M224.189485 192.599323 L242.300936 219.489582 L236.187913 220.715708 L254.541067 242.470324 L244.760230 244.432125 L274.116826 263.979715 L247.219524 269.374668 L251.143127 288.936343 L236.471871 291.879045 L232.548268 272.317370 L205.650966 277.712324 L225.198556 248.355728 L215.417719 250.317529 L223.961866 223.167960 L217.848843 224.394086 Z" fill="#888" fill-opacity="0.18" stroke="#000" stroke-width="1"/>
  <path d="M343.278197 197.045786 L375.482563 193.305529 L373.764534 199.298927 L401.517788 192.985568 L398.768941 202.575004 L429.614647 185.473529 L422.055320 211.844478 L441.234192 217.342171 L437.110923 231.726325 L417.932051 226.228632 L410.372724 252.599582 L393.271249 221.753876 L390.522403 231.343312 L370.328476 211.285722 L368.610447 217.279119 Z" fill="#888" fill-opacity="0.18" stroke="#000" stroke-width="1"/>
  <path d="M90.122287 64.868124 L121.508109 56.741568 L120.629256 62.914092 L147.252829 52.849950 L145.846665 62.725989 L174.052172 41.551303 L170.185220 68.710409 L189.937298 71.522738 L187.828051 86.336796 L168.075974 83.524467 L164.209022 110.683574 L143.034336 82.478066 L141.628172 92.354105 L118.871551 75.259141 L117.992698 81.431665 Z" fill="#888" fill-opacity="0.18" stroke="#000" stroke-width="1"/>
  <path d="M983.799299 820.172692 L1011.472795 837.063173 L1006.427629 840.726332 L1032.179630 852.848048 L1024.107364 858.709102 L1058.940665 864.237132 L1036.741933 880.355032 L1048.464042 896.499564 L1036.355642 905.291146 L1024.633534 889.146613 L1002.434802 905.264512 L1007.962832 870.431211 L999.890565 876.292265 L996.337296 848.052650 L991.292129 851.715809 Z" fill="#888" fill-opacity="0.18" stroke="#000" stroke-width="1"/>
  <path d="M685.609884 154.373615 L713.320771 137.544549 L714.258557 143.708395 L736.850810 126.396789 L738.351268 136.258942 L759.255506 107.852413 L763.381766 134.973335 L783.106072 131.972418 L785.356759 146.765648 L765.632453 149.766564 L769.758713 176.887485 L741.352185 155.983248 L742.852643 165.845401 L716.134130 156.036086 L717.071916 162.199932 Z" fill="#888" fill-opacity="0.18" stroke="#000" stroke-width="1"/>
  <path d="M739.200447 402.062889 L707.387950 408.313949 L708.631290 402.204404 L681.457761 410.672044 L683.447105 400.896772 L654.035564 420.361594 L659.506259 393.479594 L639.955715 389.500907 L642.939730 374.837999 L662.490275 378.816686 L667.960970 351.934687 L687.425792 381.346227 L689.415136 371.570954 L711.117969 389.985313 L712.361309 383.875768 Z" fill="#888" fill-opacity="0.18" stroke="#000" stroke-width="1"/>
  <path d="M762.911209 184.019415 L795.307576 182.760013 L793.134957 188.603999 L821.290660 184.437705 L817.814470 193.788082 L849.880886 179.102615 L840.321364 204.816150 L859.022118 211.768530 L853.807833 225.794095 L835.107080 218.841715 L825.547558 244.555251 L810.862091 212.488835 L807.385901 221.839212 L788.789720 200.291969 L786.617101 206.135955 Z" fill="#888" fill-opacity="0.18" stroke="#000" stroke-width="1"/>
  <path d="M256.982264 97.136739 L283.928444 79.108592 L285.135646 85.225380 L306.946955 66.939638 L308.878479 76.726499 L328.516824 47.430537 L333.828513 74.344406 L353.402236 70.481359 L356.299521 85.161652 L336.725798 89.024698 L342.037487 115.938567 L312.741525 96.300222 L314.673049 106.087083 L287.550051 97.458957 L288.757253 103.575746 Z" fill="#888" fill-opacity="0.18" stroke="#000" stroke-width="1"/>
  <path d="M677.109206 307.443006 L679.792626 275.133411 L685.329580 277.999521 L684.612722 249.546266 L693.471847 254.132041 L682.788473 220.519789 L707.151068 233.130672 L716.322619 215.412422 L729.611307 222.291085 L720.439755 240.009336 L744.802350 252.620219 L711.190098 263.303593 L720.049223 267.889368 L696.403486 283.731740 L701.940440 286.597850 Z" fill="#888" fill-opacity="0.18" stroke="#000" stroke-width="1"/>
  <path d="M579.109622 364.810153 L564.824587 335.706056 L571.047581 335.322921 L555.824455 311.273845 L565.781245 310.660829 L539.356732 287.301396 L566.737902 285.615602 L565.511870 265.702024 L580.447054 264.782500 L581.673086 284.696078 L609.054256 283.010284 L585.694823 309.434797 L595.651612 308.821781 L583.493567 334.556651 L589.716560 334.173516 Z" fill="#888" fill-opacity="0.18" stroke="#000" stroke-width="1"/>
  <path d="M1046.096891 538.570241 L1023.967471 514.876371 L1029.810275 512.700576 L1008.252930 494.116108 L1017.601416 490.634838 L985.527024 475.966799 L1011.235361 466.393304 L1004.272819 447.696332 L1018.295549 442.474426 L1025.258090 461.171398 L1050.966427 451.597904 L1036.298388 483.672296 L1045.646874 480.191025 L1041.495883 508.348988 L1047.338686 506.173194 Z" fill="#888" fill-opacity="0.18" stroke="#000" stroke-width="1"/>
  <path d="M198.328749 372.226982 L227.457792 386.461079 L222.776515 390.579097 L249.547399 400.244568 L242.057355 406.833397 L277.254539 409.086435 L256.656917 427.205716 L269.834576 442.185805 L258.599509 452.069049 L245.421850 437.088960 L224.824228 455.208241 L227.077266 420.011056 L219.587221 426.599885 L213.413959 398.815134 L208.732681 402.933152 Z" fill="#888" fill-opacity="0.18" stroke="#000" stroke-width="1"/>
  <path d="M53.554649 509.943691 L79.040998 489.904811 L80.713111 495.911181 L101.059942 476.008718 L103.735322 485.618909 L121.072351 454.904980 L128.429646 481.333007 L147.650029 475.982247 L151.663099 490.397534 L132.442716 495.748294 L139.800011 522.176321 L109.086082 504.839292 L111.761462 514.449484 L84.057336 507.923920 L85.729448 513.930290 Z" fill="#888" fill-opacity="0.18" stroke="#000" stroke-width="1"/>
  <path d="M207.706536 350.228646 L183.476922 328.687139 L189.092990 325.979331 L165.906409 309.472240 L174.892116 305.139747 L141.596614 293.506711 L166.307310 281.592354 L157.642324 263.620939 L171.120886 257.122199 L179.785872 275.093615 L204.496568 263.179259 L192.863532 296.474761 L201.849239 292.142267 L200.325124 320.563715 L205.941191 317.855906 Z" fill="#888" fill-opacity="0.18" stroke="#000" stroke-width="1"/>
  <path d="M1053.723463 741.258281 L1051.725051 773.617469 L1046.128628 770.869290 L1047.448043 799.300976 L1038.493767 794.903890 L1049.886743 828.282297 L1025.262482 816.190310 L1016.468310 834.098864 L1003.036895 827.503235 L1011.831067 809.594681 L987.206806 797.502694 L1020.585213 786.109718 L1011.630936 781.712632 L1034.935782 765.372933 L1029.339359 762.624754 Z" fill="#888" fill-opacity="0.18" stroke="#000" stroke-width="1"/>
  <path d="M187.870641 661.584365 L167.239579 636.574967 L173.205083 634.762456 L152.830929 614.887964 L162.375736 611.987946 L131.263674 595.375974 L157.511892 587.400925 L151.711857 568.311311 L166.029067 563.961284 L171.829103 583.050898 L198.077321 575.075848 L181.465349 606.187910 L191.010156 603.287892 L185.136092 631.137433 L191.101596 629.324922 Z" fill="#888" fill-opacity="0.18" stroke="#000" stroke-width="1"/>
  <path d="M306.131062 175.300106 L311.328981 207.301548 L305.263790 205.857285 L312.830157 233.295428 L303.125852 230.984607 L321.609563 261.022423 L294.922723 254.667665 L290.301081 274.076277 L275.744623 270.610045 L280.366265 251.201434 L253.679425 244.846676 L283.717241 226.362965 L274.012935 224.052144 L293.133408 202.968759 L287.068217 201.524496 Z" fill="#888" fill-opacity="0.18" stroke="#000" stroke-width="1"/>
  <path d="M351.690714 347.431460 L331.963860 373.160081 L328.855736 367.755268 L314.074357 392.078352 L309.101359 383.430652 L299.914603 417.482399 L286.238858 393.701222 L268.943456 403.647219 L261.483959 390.675668 L278.779360 380.729671 L265.103615 356.948495 L299.155362 366.135250 L294.182364 357.487550 L322.639488 356.945642 L319.531364 351.540829 Z" fill="#888" fill-opacity="0.18" stroke="#000" stroke-width="1"/>
  <path d="M305.774450 278.406843 L331.880945 259.182857 L333.362533 265.239039 L354.327765 245.989088 L356.698306 255.678978 L374.996680 225.527900 L381.515667 252.175098 L400.895448 247.434016 L404.451259 261.968852 L385.071478 266.709934 L391.590466 293.357132 L361.439388 275.058759 L363.809929 284.748649 L336.325709 277.351402 L337.807297 283.407583 Z" fill="#888" fill-opacity="0.18" stroke="#000" stroke-width="1"/>
  <path d="M458.141349 347.374119 L430.115193 331.075489 L435.081382 327.305952 L409.077618 315.734181 L417.023520 309.702921 L382.080618 304.916317 L403.931846 288.330353 L391.869327 272.438551 L403.788179 263.391661 L415.850698 279.283464 L437.701926 262.697500 L432.915322 297.640402 L440.861224 291.609143 L445.013758 319.766878 L449.979947 315.997341 Z" fill="#888" fill-opacity="0.18" stroke="#000" stroke-width="1"/>
  <path d="M585.476196 118.721888 L605.789593 143.989983 L599.801662 145.726969 L619.923056 165.857322 L610.342367 168.636501 L641.242036 185.640277 L614.895141 193.283018 L620.453498 212.444397 L606.082464 216.613165 L600.524107 197.451786 L574.177211 205.094527 L591.180988 174.194858 L581.600299 176.974036 L587.825800 149.200943 L581.837870 150.937929 Z" fill="#888" fill-opacity="0.18" stroke="#000" stroke-width="1"/>
  <path d="M593.740282 351.077530 L600.240745 319.315057 L605.398250 322.818280 L608.064632 294.481167 L616.316641 300.086325 L609.699514 265.443409 L632.392537 280.857592 L643.602853 264.353575 L655.980866 272.761312 L644.770550 289.265329 L667.463574 304.679513 L632.820658 311.296640 L641.072667 316.901798 L615.713261 329.824727 L620.870766 333.327951 Z" fill="#888" fill-opacity="0.18" stroke="#000" stroke-width="1"/>
  <path d="M613.920386 68.697637 L601.198439 98.518146 L596.845830 94.054153 L588.565599 121.285374 L581.601425 114.142986 L581.155891 149.409393 L562.004410 129.767825 L547.719634 143.696175 L537.273372 132.982592 L551.558148 119.054243 L532.406668 99.412675 L567.673075 99.858209 L560.708901 92.715821 L588.140612 85.126168 L583.788002 80.662175 Z" fill="#888" fill-opacity="0.18" stroke="#000" stroke-width="1"/>
  <path d="M455.015507 327.953788 L486.363356 319.681964 L485.513099 325.858492 L512.089777 315.671157 L510.729366 325.553602 L538.836506 304.248517 L535.095376 331.425241 L554.860266 334.146062 L552.819650 348.969730 L533.054760 346.248908 L529.313630 373.425632 L508.008544 345.318493 L506.648134 355.200938 L483.812586 338.211549 L482.962329 344.388077 Z" fill="#888" fill-opacity="0.18" stroke="#000" stroke-width="1"/>
  <path d="M722.161945 492.462488 L728.678932 460.703401 L733.834614 464.209308 L736.515740 435.873586 L744.764831 441.483036 L738.165729 406.836682 L760.850730 422.262671 L772.069631 405.764489 L784.443268 414.178664 L773.224367 430.676847 L795.909367 446.102835 L761.263013 452.701937 L769.512104 458.311388 L744.145978 471.221121 L749.301660 474.727028 Z" fill="#888" fill-opacity="0.18" stroke="#000" stroke-width="1"/>
  <path d="M331.575452 1057.897535 L350.643575 1031.676982 L353.887746 1037.001246 L368.047624 1012.311178 L373.238299 1020.830000 L381.558667 986.556257 L395.833023 1009.983018 L412.870668 999.601669 L420.656680 1012.379902 L403.619036 1022.761252 L417.893392 1046.188013 L383.619649 1037.867645 L388.810324 1046.386467 L360.376090 1047.649774 L363.620262 1052.974038 Z" fill="#888" fill-opacity="0.18" stroke="#000" stroke-width="1"/>
  <path d="M676.512805 689.064644 L683.835345 657.481561 L688.900201 661.117447 L692.301061 632.859072 L700.404831 638.676489 L694.688949 603.873520 L716.974318 619.871418 L728.609153 603.663877 L740.764808 612.390004 L729.129973 628.597544 L751.415341 644.595442 L716.612372 650.311324 L724.716142 656.128742 L699.029914 668.389219 L704.094771 672.025105 Z" fill="#888" fill-opacity="0.18" stroke="#000" stroke-width="1"/>
  <path d="M791.692170 401.000493 L774.306422 373.635434 L780.450053 372.573249 L762.685327 350.335531 L772.515136 348.636036 L743.691874 328.310251 L770.723850 323.636638 L767.324859 303.977019 L782.069573 301.427776 L785.468564 321.087395 L812.500540 316.413783 L792.174755 345.237045 L802.004564 343.537550 L792.737315 370.448880 L798.880946 369.386695 Z" fill="#888" fill-opacity="0.18" stroke="#000" stroke-width="1"/>
  <path d="M281.463740 40.068265 L261.062116 65.265177 L258.098287 59.779910 L242.677642 83.702813 L237.935516 74.926386 L227.849763 108.722770 L214.808916 84.587595 L197.256061 94.071847 L190.142871 80.907206 L207.695726 71.422953 L194.654879 47.287778 L228.451263 57.373531 L223.709137 48.597104 L252.170629 48.809376 L249.206800 43.324109 Z" fill="#888" fill-opacity="0.18" stroke="#000" stroke-width="1"/>
  <path d="M356.087993 344.946249 L323.671465 345.474882 L325.975297 339.681369 L297.732814 343.211770 L301.418945 333.942149 L269.029564 347.900874 L279.166425 322.409416 L260.627183 315.037153 L266.156379 301.132722 L284.695622 308.504984 L294.832482 283.013526 L308.791207 315.402906 L312.477339 306.133285 L330.582961 328.094342 L332.886793 322.300829 Z" fill="#888" fill-opacity="0.18" stroke="#000" stroke-width="1"/>
  <path d="M249.580934 175.542813 L270.794492 151.025561 L273.577617 156.604688 L289.771249 133.198110 L294.224249 142.124713 L305.408256 108.675707 L317.654005 133.223864 L335.507210 124.317865 L342.186710 137.707769 L324.333504 146.613768 L336.579253 171.161925 L303.130248 159.977918 L307.583248 168.904520 L279.143867 167.762941 L281.926991 173.342068 Z" fill="#888" fill-opacity="0.18" stroke="#000" stroke-width="1"/>
  <path d="M880.524720 799.845478 L912.112106 792.541525 L911.072321 798.688987 L937.949695 789.323714 L936.286038 799.159652 L965.035027 778.728949 L960.459970 805.777779 L980.131847 809.105093 L977.636361 823.859001 L957.964485 820.531687 L953.389428 847.580518 L932.958724 818.831529 L931.295067 828.667468 L908.992750 810.983910 L907.952964 817.131371 Z" fill="#888" fill-opacity="0.18" stroke="#000" stroke-width="1"/>
  <path d="M722.190309 836.013082 L752.970175 825.829243 L752.501340 832.046367 L778.401273 820.244036 L777.651137 830.191434 L804.394974 807.198279 L802.332099 834.553624 L822.226895 836.053897 L821.101691 850.974995 L801.206894 849.474722 L799.144019 876.830068 L776.150864 850.086231 L775.400728 860.033629 L751.563669 844.480615 L751.094834 850.697739 Z" fill="#888" fill-opacity="0.18" stroke="#000" stroke-width="1"/>
  <path d="M499.226365 182.008494 L495.253948 214.185047 L489.835951 211.099962 L489.415201 239.559135 L480.746407 234.622999 L490.078051 268.635326 L466.238867 255.060950 L456.366593 272.398538 L443.363402 264.994333 L453.235675 247.656745 L429.396491 234.082369 L463.408819 224.750725 L454.740024 219.814588 L478.999958 204.929791 L473.581962 201.844705 Z" fill="#888" fill-opacity="0.18" stroke="#000" stroke-width="1"/>
  <path d="M861.360662 108.055287 L833.381198 124.433942 L832.543232 118.255734 L809.673928 135.199657 L808.333181 125.314525 L786.972217 153.379221 L783.285164 126.195108 L763.514900 128.876601 L761.503780 114.048902 L781.274045 111.367409 L777.586992 84.183296 L805.651689 105.544260 L804.310942 95.659128 L830.867299 105.899319 L830.029332 99.721111 Z" fill="#888" fill-opacity="0.18" stroke="#000" stroke-width="1"/>
  <path d="M462.303237 325.690718 L474.660714 295.717339 L479.067418 300.127940 L487.015074 272.797804 L494.065799 279.854765 L494.081389 244.585547 L513.470884 263.992191 L527.584807 249.890740 L538.160896 260.476182 L524.046973 274.577633 L543.436469 293.984277 L508.167251 293.968688 L515.217977 301.025650 L487.880825 308.949142 L492.287528 313.359743 Z" fill="#888" fill-opacity="0.18" stroke="#000" stroke-width="1"/>
  <path d="M966.825450 321.810192 L970.622502 354.007911 L964.626083 352.300455 L970.988383 380.042531 L961.394114 377.310602 L978.549967 408.126097 L952.165726 400.613294 L946.701870 419.801833 L932.310465 415.703941 L937.774322 396.515402 L911.390081 389.002599 L942.205575 371.846746 L932.611305 369.114818 L952.633246 348.885545 L946.636828 347.178090 Z" fill="#888" fill-opacity="0.18" stroke="#000" stroke-width="1"/>
  <path d="M877.720328 604.366943 L860.662511 576.796278 L866.818385 575.807513 L849.320405 553.359300 L859.169803 551.777277 L830.591251 531.108839 L857.677095 526.758276 L854.513050 507.059480 L869.287147 504.686445 L872.451193 524.385241 L899.537037 520.034678 L878.868600 548.613231 L888.717998 547.031208 L879.130133 573.829985 L885.286007 572.841220 Z" fill="#888" fill-opacity="0.18" stroke="#000" stroke-width="1"/>
  <path d="M901.281678 219.530561 L931.252014 231.895416 L926.840329 236.301034 L954.168508 244.255417 L947.109811 251.304405 L982.379025 251.328676 L962.967608 270.713395 L977.065585 284.830788 L966.477540 295.404271 L952.379563 281.286877 L932.968147 300.671596 L932.992418 265.402382 L925.933721 272.451371 L918.016958 245.112270 L913.605272 249.517887 Z" fill="#888" fill-opacity="0.18" stroke="#000" stroke-width="1"/>
  <path d="M999.239466 135.624561 L967.449582 129.259504 L970.930797 124.087117 L942.582579 121.541508 L948.152523 113.265690 L913.538118 120.030377 L928.855463 97.271876 L912.303826 86.131989 L920.658742 73.718262 L937.210378 84.858149 L952.527723 62.099649 L959.292410 96.714053 L964.862353 88.438235 L977.893226 113.742344 L981.374441 108.569958 Z" fill="#888" fill-opacity="0.18" stroke="#000" stroke-width="1"/>
  <path d="M734.937716 216.443055 L765.771870 226.461322 L761.712846 231.193845 L789.572787 237.018389 L783.078349 244.590425 L818.244532 241.896429 L800.384829 262.719527 L815.528900 275.708402 L805.787244 287.066455 L790.643173 274.077580 L772.783470 294.900678 L770.089475 259.734496 L763.595037 267.306531 L753.594800 240.658889 L749.535776 245.391411 Z" fill="#888" fill-opacity="0.18" stroke="#000" stroke-width="1"/>
  <path d="M781.469092 392.141867 L750.018609 384.269265 L753.742331 379.268632 L725.547611 375.375135 L731.505566 367.374123 L696.608146 372.481765 L712.992524 350.478980 L696.990499 338.563069 L705.927432 326.561550 L721.929457 338.477461 L738.313836 316.474677 L743.421478 351.372098 L749.379434 343.371085 L761.189776 369.267367 L764.913498 364.266734 Z" fill="#888" fill-opacity="0.18" stroke="#000" stroke-width="1"/>
  <path d="M214.630368 281.497337 L234.767988 306.905740 L228.768152 308.601146 L248.749415 328.870599 L239.149677 331.583248 L269.930645 348.800971 L243.531365 356.260756 L248.956663 375.460232 L234.557056 379.529206 L229.131758 360.329730 L202.732478 367.789515 L219.950200 337.008547 L210.350462 339.721196 L216.768479 311.991958 L210.768643 313.687363 Z" fill="#888" fill-opacity="0.18" stroke="#000" stroke-width="1"/>
  <path d="M50.801069 429.098180 L50.835181 396.677361 L56.587833 399.081406 L53.548180 370.781899 L62.752423 374.628371 L49.357995 342.001583 L74.669664 352.579381 L82.362608 334.170895 L96.168973 339.940603 L88.476029 358.349089 L113.787697 368.926888 L81.160909 382.321315 L90.365152 386.167787 L68.093137 403.889496 L73.845789 406.293541 Z" fill="#888" fill-opacity="0.18" stroke="#000" stroke-width="1"/>
  <path d="M890.296147 695.280733 L904.668944 724.341590 L898.447136 724.743502 L913.742764 748.746530 L903.787870 749.389590 L930.282755 772.669175 L902.906796 774.437590 L904.192916 794.347377 L889.260575 795.311967 L887.974455 775.402179 L860.598497 777.170594 L883.878082 750.675709 L873.923189 751.318769 L886.003518 725.547327 L879.781709 725.949239 Z" fill="#888" fill-opacity="0.18" stroke="#000" stroke-width="1"/>
  <path d="M816.874114 42.410417 L849.061736 46.292125 L845.991934 51.718796 L874.452181 52.059328 L869.540498 60.742001 L903.526388 51.314527 L890.019259 75.191877 L907.384605 85.015243 L900.017080 98.039253 L882.651734 88.215886 L869.144606 112.093237 L859.717131 78.107347 L854.805448 86.790020 L839.852330 62.572137 L836.782528 67.998807 Z" fill="#888" fill-opacity="0.18" stroke="#000" stroke-width="1"/>
  <path d="M149.054838 497.897577 L160.263740 467.476019 L164.834956 471.715880 L171.737726 444.103322 L179.051671 450.887100 L177.726252 415.642791 L197.839602 434.298181 L211.407158 419.670290 L222.378076 429.845957 L208.810520 444.473847 L228.923870 463.129236 L193.679562 464.454655 L200.993507 471.238433 L173.977388 480.195602 L178.548604 484.435463 Z" fill="#888" fill-opacity="0.18" stroke="#000" stroke-width="1"/>
  <path d="M443.944624 350.418454 L411.850639 355.010491 L413.409300 348.973686 L385.833026 356.020013 L388.326884 346.361125 L357.945020 364.273701 L364.803128 337.711760 L345.485353 332.724045 L349.226139 318.235713 L368.543915 323.223428 L375.402023 296.661487 L393.314599 327.043350 L395.808456 317.384462 L416.526622 336.900076 L418.085283 330.863272 Z" fill="#888" fill-opacity="0.18" stroke="#000" stroke-width="1"/>
  <path d="M479.936866 498.036741 L447.885106 493.158690 L451.121724 487.829831 L422.685728 486.606847 L427.864317 478.080673 L393.602407 486.449635 L407.843529 463.002655 L390.791180 452.645476 L398.559064 439.856214 L415.611413 450.213393 L429.852534 426.766414 L438.221496 461.028324 L443.400086 452.502149 L457.594961 477.172113 L460.831580 471.843254 Z" fill="#888" fill-opacity="0.18" stroke="#000" stroke-width="1"/>
  <path d="M532.577721 395.232463 L515.546047 422.819286 L511.908717 417.755467 L499.655564 443.445189 L493.835837 435.343078 L488.129878 470.147676 L472.125626 447.866870 L455.921404 459.506326 L447.191812 447.353159 L463.396035 435.713703 L447.391783 413.432897 L482.196381 419.138856 L476.376653 411.036744 L504.634057 407.627828 L500.996727 402.564008 Z" fill="#888" fill-opacity="0.18" stroke="#000" stroke-width="1"/>
  <path d="M671.816531 247.394976 L641.662135 259.303927 L641.778475 253.070236 L616.587764 266.318998 L616.773908 256.345093 L591.373786 280.814498 L591.885680 253.386258 L571.937869 253.013971 L572.217084 238.053113 L592.164895 238.425400 L592.676789 210.997160 L617.146194 236.397282 L617.332338 226.423376 L642.011154 240.602855 L642.127494 234.369164 Z" fill="#888" fill-opacity="0.18" stroke="#000" stroke-width="1"/>
  <path d="M710.312640 511.924287 L695.900524 482.882910 L702.121783 482.472577 L686.793681 458.490273 L696.747696 457.833740 L670.221328 434.590036 L697.594868 432.784571 L696.281802 412.876542 L711.212824 411.891743 L712.525889 431.799772 L739.899429 429.994307 L716.655725 456.520675 L726.609739 455.864143 L714.564301 481.651911 L720.785560 481.241578 Z" fill="#888" fill-opacity="0.18" stroke="#000" stroke-width="1"/>
  <path d="M387.645923 131.055533 L419.588944 136.601173 L416.241861 141.861351 L444.646156 143.677289 L439.290824 152.093575 L473.719867 144.441192 L458.992704 167.585976 L475.825274 178.296641 L467.792276 190.921069 L450.959705 180.210404 L436.232542 203.355189 L428.580159 168.926145 L423.224827 177.342430 L409.547696 152.381708 L406.200613 157.641886 Z" fill="#888" fill-opacity="0.18" stroke="#000" stroke-width="1"/>
  <path d="M1050.069082 1059.112700 L1025.874330 1037.532046 L1031.494768 1034.833321 L1008.334907 1018.288762 L1017.327608 1013.970803 L984.050959 1002.283947 L1008.780887 990.409561 L1000.144969 972.424159 L1013.634021 965.947221 L1022.269938 983.932623 L1046.999866 972.058237 L1035.313010 1005.334886 L1044.305711 1001.016927 L1042.735644 1029.435873 L1048.356082 1026.737149 Z" fill="#888" fill-opacity="0.18" stroke="#000" stroke-width="1"/>
  <path d="M836.476883 838.932540 L847.193078 869.531133 L840.968758 869.170206 L853.218559 894.861527 L843.259645 894.284045 L866.713224 920.625033 L839.326212 919.036958 L838.171248 938.954785 L823.232878 938.088562 L824.387842 918.170735 L797.000831 916.582660 L823.341819 893.129081 L813.382905 892.551600 L828.520116 868.448354 L822.295795 868.087428 Z" fill="#888" fill-opacity="0.18" stroke="#000" stroke-width="1"/>
  <path d="M1017.900840 615.068825 L986.018125 609.186382 L989.420534 603.961821 L961.036986 601.846218 L966.480842 593.486919 L931.972956 600.775527 L946.943558 577.787455 L930.224961 566.899744 L938.390744 554.360796 L955.109342 565.248507 L970.079944 542.260436 L977.368553 576.768321 L982.812408 568.409023 L996.225354 593.512697 L999.627763 588.288135 Z" fill="#888" fill-opacity="0.18" stroke="#000" stroke-width="1"/>
  <path d="M1059.905768 670.660296 L1034.313950 690.564305 L1032.673580 684.549189 L1012.221929 704.343925 L1009.597337 694.719739 L992.098353 725.341684 L984.880724 698.875173 L965.632352 704.124357 L961.695464 689.688078 L980.943836 684.438894 L973.726207 657.972383 L1004.348153 675.471367 L1001.723561 665.847181 L1029.392840 672.518956 L1027.752470 666.503840 Z" fill="#888" fill-opacity="0.18" stroke="#000" stroke-width="1"/>
  <path d="M981.764987 307.479431 L954.583248 325.150419 L953.456870 319.018232 L931.406157 337.014555 L929.603952 327.203057 L909.580719 356.237314 L904.624655 329.255694 L885.001659 332.860104 L882.298351 318.142857 L901.921348 314.538447 L896.965284 287.556827 L925.999542 307.580060 L924.197337 297.768562 L951.204114 306.753860 L950.077736 300.621673 Z" fill="#888" fill-opacity="0.18" stroke="#000" stroke-width="1"/>
  <path d="M918.541150 727.031504 L950.861365 729.583835 L948.017740 735.132369 L976.467853 734.300093 L971.918053 743.177748 L1005.486690 732.358110 L992.974741 756.771661 L1010.730051 765.871261 L1003.905351 779.187744 L986.150041 770.088144 L973.638091 794.501696 L962.818453 760.933058 L958.268653 769.810713 L942.330490 746.229438 L939.486865 751.777973 Z" fill="#888" fill-opacity="0.18" stroke="#000" stroke-width="1"/>
  <path d="M178.481373 503.530843 L206.130049 520.461920 L201.079512 524.117671 L226.813696 536.277168 L218.732837 542.126369 L253.557987 547.705515 L231.335624 563.790818 L243.034025 579.952537 L230.912736 588.726338 L219.214335 572.564619 L196.991971 588.649921 L202.571118 553.824771 L194.490258 559.673971 L190.978438 531.429172 L185.927901 535.084922 Z" fill="#888" fill-opacity="0.18" stroke="#000" stroke-width="1"/>
  <path d="M128.497245 1024.660251 L158.105071 1011.450884 L158.260001 1017.683735 L182.850559 1003.351742 L183.098447 1013.324304 L207.410131 987.773178 L208.091824 1015.197724 L228.036948 1014.701947 L228.408780 1029.660790 L208.463657 1030.156566 L209.145349 1057.581112 L183.594224 1033.269428 L183.842112 1043.241990 L158.569861 1030.149438 L158.724791 1036.382289 Z" fill="#888" fill-opacity="0.18" stroke="#000" stroke-width="1"/>
  <path d="M187.973204 623.459274 L213.133910 603.013013 L214.902425 608.991708 L234.926472 588.764520 L237.756096 598.330432 L254.596816 567.341593 L262.378281 593.647851 L281.510105 587.988604 L285.754540 602.337471 L266.622717 607.996719 L274.404182 634.302976 L243.415343 617.462256 L246.244967 627.028168 L218.439454 620.949098 L220.207969 626.927793 Z" fill="#888" fill-opacity="0.18" stroke="#000" stroke-width="1"/>
  <path d="M164.002119 172.343967 L182.735499 198.804715 L176.652720 200.173011 L195.508018 221.493877 L185.775572 223.683151 L215.579873 242.541083 L188.815645 248.561586 L193.194192 268.026479 L178.595522 271.310390 L174.216974 251.845497 L147.452746 257.866000 L166.310678 228.061698 L156.578231 230.250972 L164.487161 202.909604 L158.404382 204.277900 Z" fill="#888" fill-opacity="0.18" stroke="#000" stroke-width="1"/>
  <path d="M387.659585 496.823451 L367.298743 471.593571 L373.283400 469.845336 L353.124216 449.752828 L362.699666 446.955652 L331.768100 430.009967 L358.100588 422.317732 L352.506236 403.166832 L366.869411 398.971068 L372.463763 418.121968 L398.796251 410.429734 L381.850566 441.361299 L391.426016 438.564123 L385.252712 466.348866 L391.237369 464.600631 Z" fill="#888" fill-opacity="0.18" stroke="#000" stroke-width="1"/>
  <path d="M344.238967 407.679894 L327.301750 435.324810 L323.647121 430.273461 L311.481909 456.004944 L305.634503 447.922786 L300.047622 482.746696 L283.967255 460.520761 L267.802939 472.215573 L259.031830 460.092336 L275.196146 448.397524 L259.115780 426.171589 L293.939690 431.758469 L288.092284 423.676311 L316.337863 420.170763 L312.683235 415.119415 Z" fill="#888" fill-opacity="0.18" stroke="#000" stroke-width="1"/>
  <path d="M643.049037 321.929570 L641.703437 354.322472 L636.052745 351.687683 L637.945115 380.086988 L628.904007 375.871327 L640.967623 409.013251 L616.104576 397.420182 L607.673252 415.502398 L594.111590 409.178906 L602.542913 391.096690 L577.679866 379.503620 L610.821790 367.440004 L601.780682 363.224342 L624.751360 346.418106 L619.100667 343.783318 Z" fill="#888" fill-opacity="0.18" stroke="#000" stroke-width="1"/>
  <path d="M587.959797 454.155388 L562.642574 474.407523 L560.920096 468.415402 L540.741066 488.487979 L537.985102 478.900586 L520.906532 509.758980 L513.327629 483.393650 L494.152843 488.905579 L490.018896 474.524490 L509.193682 469.012561 L501.614779 442.647231 L532.473172 459.725801 L529.717208 450.138408 L557.475141 456.431162 L555.752663 450.439041 Z" fill="#888" fill-opacity="0.18" stroke="#000" stroke-width="1"/>
  <path d="M540.561874 1016.515952 L511.641485 1031.169341 L511.179373 1024.951713 L487.325508 1040.478938 L486.586131 1030.530734 L463.564066 1057.249688 L461.530776 1029.892128 L441.634369 1031.370884 L440.525302 1016.448578 L460.421710 1014.969822 L458.388421 987.612262 L485.107375 1010.634327 L484.367997 1000.686123 L510.255151 1012.516458 L509.793040 1006.298831 Z" fill="#888" fill-opacity="0.18" stroke="#000" stroke-width="1"/>
  <path d="M514.026074 545.177328 L539.876648 525.610557 L541.438015 531.646663 L562.147431 512.121763 L564.645617 521.779532 L582.544573 491.389643 L589.414587 517.948508 L608.730125 512.952134 L612.477405 527.438788 L593.161867 532.435161 L600.031880 558.994026 L569.641991 541.095070 L572.140177 550.752839 L544.560748 543.718874 L546.122115 549.754980 Z" fill="#888" fill-opacity="0.18" stroke="#000" stroke-width="1"/>
  <path d="M964.418380 194.765322 L980.413310 166.564739 L984.236274 171.489918 L995.526468 145.362669 L1001.643210 153.242955 L1006.052070 118.250386 L1022.873110 139.921172 L1038.633682 127.687688 L1047.808795 139.508117 L1032.048223 151.741601 L1048.869264 173.412387 L1013.876694 169.003527 L1019.993436 176.883813 L991.882201 181.340275 L995.705165 186.265454 Z" fill="#888" fill-opacity="0.18" stroke="#000" stroke-width="1"/>
  <path d="M1012.989288 387.093730 L1004.489070 418.380421 L999.563934 414.557402 L995.107158 442.668587 L987.226940 436.551757 L991.635409 471.544376 L969.964811 454.723094 L957.731150 470.483529 L945.910824 461.308284 L958.144484 445.547849 L936.473886 428.726566 L971.466505 424.318097 L963.586287 418.201267 L989.713662 406.911364 L984.788526 403.088346 Z" fill="#888" fill-opacity="0.18" stroke="#000" stroke-width="1"/>
  <path d="M1049.882249 628.193058 L1028.548733 603.780114 L1034.460315 601.798791 L1013.529542 582.511377 L1022.988072 579.341259 L991.416453 563.620227 L1017.427412 554.902404 L1011.087177 535.985344 L1025.274972 531.230168 L1031.615207 550.147228 L1057.626165 541.429405 L1041.905133 573.001025 L1051.363663 569.830907 L1046.283478 597.836144 L1052.195059 595.854821 Z" fill="#888" fill-opacity="0.18" stroke="#000" stroke-width="1"/>
  <path d="M193.593282 824.555222 L221.627570 808.270586 L222.444792 814.451572 L245.370848 797.584517 L246.678402 807.474094 L268.133459 779.481264 L271.729234 806.677601 L291.508389 804.062492 L293.469721 818.896858 L273.690567 821.511967 L277.286342 848.708305 L249.293512 827.253249 L250.601067 837.142826 L224.079236 826.813544 L224.896457 832.994530 Z" fill="#888" fill-opacity="0.18" stroke="#000" stroke-width="1"/>
  <path d="M168.697229 491.186171 L199.635242 481.493388 L199.067540 487.702265 L225.151992 476.313545 L224.243669 486.247748 L251.349985 463.683050 L248.852095 491.002108 L268.720501 492.818755 L267.358015 507.720060 L247.489610 505.903412 L244.991720 533.222470 L222.427021 506.116154 L221.518698 516.050357 L197.932135 500.120019 L197.364433 506.328896 Z" fill="#888" fill-opacity="0.18" stroke="#000" stroke-width="1"/>
  <path d="M196.626455 750.674008 L194.972796 718.295372 L200.842795 720.396692 L196.334080 692.293791 L205.726079 695.655904 L190.651366 663.770625 L216.479361 673.016436 L223.203588 654.232439 L237.291585 659.275609 L230.567359 678.059606 L256.395355 687.305417 L224.510076 702.380130 L233.902074 705.742243 L212.582793 724.599334 L218.452792 726.700654 Z" fill="#888" fill-opacity="0.18" stroke="#000" stroke-width="1"/>
  <path d="M533.508209 394.510739 L501.751354 401.038591 L502.941444 394.918450 L475.842683 403.622401 L477.746826 393.830176 L448.505905 413.550381 L453.742299 386.621761 L434.157848 382.813475 L437.014063 368.125137 L456.598514 371.933423 L461.834908 345.004804 L481.555113 374.245725 L483.459256 364.453500 L505.321623 382.678168 L506.511712 376.558027 Z" fill="#888" fill-opacity="0.18" stroke="#000" stroke-width="1"/>
  <path d="M854.022426 361.078067 L848.948355 393.099380 L843.639400 389.830217 L842.242450 418.258199 L833.748121 413.027538 L841.907292 447.340013 L818.547887 432.955696 L808.086565 449.944354 L795.345072 442.098363 L805.806393 425.109704 L782.446988 410.725387 L816.759463 402.566216 L808.265134 397.335556 L833.021488 383.291891 L827.712533 380.022728 Z" fill="#888" fill-opacity="0.18" stroke="#000" stroke-width="1"/>
  <path d="M691.538791 147.007134 L674.554206 119.391295 L680.712682 118.418872 L663.274340 95.924299 L673.127902 94.368421 L644.604303 73.624210 L671.701598 69.345547 L668.589843 49.638423 L683.370186 47.304606 L686.481941 67.011730 L713.579237 62.733066 L692.835026 91.256666 L702.688588 89.700788 L693.029635 116.474025 L699.188111 115.501601 Z" fill="#888" fill-opacity="0.18" stroke="#000" stroke-width="1"/>
  <path d="M353.137491 374.109679 L384.971423 367.968712 L383.706955 374.073920 L410.909615 365.700337 L408.886466 375.468669 L438.365168 356.105713 L432.801508 382.968625 L452.338171 387.014924 L449.303447 401.667422 L429.766784 397.621123 L424.203123 424.484035 L404.840167 395.005332 L402.817017 404.773664 L381.178018 386.284334 L379.913550 392.389542 Z" fill="#888" fill-opacity="0.18" stroke="#000" stroke-width="1"/>
  <path d="M465.836818 599.922883 L439.398619 618.688073 L438.023008 612.606944 L416.724835 631.487871 L414.523858 621.758065 L395.701785 651.585025 L389.649097 624.828056 L370.189484 629.230011 L366.888018 614.635301 L386.347631 610.233346 L380.294943 583.476378 L410.121903 602.298451 L407.920926 592.568645 L435.271787 600.444686 L433.896176 594.363556 Z" fill="#888" fill-opacity="0.18" stroke="#000" stroke-width="1"/>
  <path d="M472.889782 585.455541 L470.861695 553.098199 L476.755608 555.131478 L471.922115 527.082611 L481.352377 530.335857 L465.909840 498.627088 L491.843058 507.573516 L498.349551 488.712993 L512.494943 493.592863 L505.988450 512.453386 L531.921668 521.399813 L500.212899 536.842350 L509.643160 540.095597 L488.543435 559.198036 L494.437348 561.231315 Z" fill="#888" fill-opacity="0.18" stroke="#000" stroke-width="1"/>
  <path d="M840.350181 547.195307 L836.960342 579.438441 L831.487437 576.451847 L831.581453 604.913975 L822.824805 600.135425 L832.770051 633.973422 L808.689267 620.832409 L799.132167 638.345707 L785.997194 631.177882 L795.554294 613.664584 L771.473510 600.523571 L805.311507 590.578325 L796.554858 585.799775 L820.541626 570.478659 L815.068720 567.492065 Z" fill="#888" fill-opacity="0.18" stroke="#000" stroke-width="1"/>
  <path d="M561.438914 351.155459 L580.226131 377.578010 L574.146150 378.958688 L593.044821 400.241118 L583.316852 402.450204 L613.159488 421.247413 L586.407573 427.322398 L590.825744 446.778336 L576.233790 450.091964 L571.815620 430.636026 L545.063705 436.711010 L563.860914 406.868374 L554.132945 409.077460 L561.986189 381.720045 L555.906208 383.100723 Z" fill="#888" fill-opacity="0.18" stroke="#000" stroke-width="1"/>
  <path d="M423.780652 636.144278 L447.081991 613.601911 L449.360123 619.405578 L467.562901 597.524983 L471.207912 606.810851 L485.310053 574.483655 L495.333834 600.019790 L513.905568 592.729768 L519.373085 606.658569 L500.801350 613.948591 L510.825130 639.484727 L478.497934 625.382586 L482.142945 634.668453 L453.916386 631.012913 L456.194518 636.816580 Z" fill="#888" fill-opacity="0.18" stroke="#000" stroke-width="1"/>
  <path d="M797.958652 642.415695 L829.706772 648.985899 L826.192230 654.135698 L854.523419 656.864309 L848.900152 665.103987 L883.557517 658.562959 L868.093531 681.222075 L884.572888 692.468610 L876.137987 704.828128 L859.658630 693.581593 L844.194645 716.240709 L837.653617 681.583344 L832.030349 689.823023 L819.163146 664.435296 L815.648604 669.585095 Z" fill="#888" fill-opacity="0.18" stroke="#000" stroke-width="1"/>
  <path d="M634.342876 579.885342 L651.048034 607.671101 L644.880062 608.581354 L662.090611 631.250685 L652.221856 632.707090 L680.534755 653.737966 L653.395679 657.743078 L656.308488 677.480588 L641.505356 679.665195 L638.592547 659.927685 L611.453470 663.932798 L632.484346 635.619899 L622.615591 637.076304 L632.544118 610.401860 L626.376146 611.312113 Z" fill="#888" fill-opacity="0.18" stroke="#000" stroke-width="1"/>
  <path d="M795.690187 696.859228 L826.345982 707.410671 L822.205504 712.072096 L849.960255 718.378872 L843.335490 725.837152 L878.543101 723.753363 L860.324999 744.263633 L875.241558 757.513161 L865.304412 768.700581 L850.387852 755.451052 L832.169750 775.961321 L830.085962 740.753711 L823.461197 748.211991 L813.924549 721.394945 L809.784071 726.056370 Z" fill="#888" fill-opacity="0.18" stroke="#000" stroke-width="1"/>
  <path d="M386.885714 523.199905 L356.554952 511.747589 L360.831307 507.210495 L333.274949 500.086682 L340.117117 492.827331 L304.863319 493.870288 L323.679282 473.907073 L309.160580 460.222737 L319.423832 449.333711 L333.942534 463.018047 L352.758497 443.054832 L353.801453 478.308630 L360.643621 471.049279 L369.384017 498.136307 L373.660372 493.599212 Z" fill="#888" fill-opacity="0.18" stroke="#000" stroke-width="1"/>
  <path d="M131.815434 417.568567 L112.412367 443.542239 L109.236794 438.176778 L94.761210 462.683085 L89.680293 454.098347 L80.920741 488.262484 L66.948219 464.654455 L49.778744 474.816288 L42.157369 461.939182 L59.326844 451.777348 L45.354323 428.169319 L79.518460 436.928871 L74.437543 428.344134 L102.885648 427.445856 L99.710075 422.080395 Z" fill="#888" fill-opacity="0.18" stroke="#000" stroke-width="1"/>
  <path d="M184.376853 659.289782 L151.982875 657.970346 L154.613099 652.317527 L126.215331 654.232833 L130.423689 645.188323 L97.291519 657.278704 L108.864503 632.406301 L90.775483 623.989585 L97.088020 610.422820 L115.177040 618.839536 L126.750024 593.967133 L138.840405 627.099303 L143.048763 618.054793 L159.873546 641.011889 L162.503770 635.359070 Z" fill="#888" fill-opacity="0.18" stroke="#000" stroke-width="1"/>
  <path d="M378.509981 652.894354 L346.827135 646.016274 L350.391502 640.900834 L322.088135 637.897334 L327.791122 629.712630 L293.071894 635.916923 L308.755108 613.408987 L292.385701 602.003013 L300.940181 589.725957 L317.309589 601.131931 L332.992803 578.623995 L339.197096 613.343222 L344.900083 605.158518 L357.520235 630.669954 L361.084602 625.554514 Z" fill="#888" fill-opacity="0.18" stroke="#000" stroke-width="1"/>
  <path d="M170.336907 510.238904 L158.773542 540.527503 L154.252146 536.234554 L147.027419 563.764627 L139.793185 556.895908 L140.706971 592.153290 L120.812829 573.264312 L107.075390 587.732779 L96.224040 577.429700 L109.961478 562.961233 L90.067336 544.072255 L125.324718 543.158469 L118.090484 536.289750 L145.209354 527.648655 L140.687958 523.355705 Z" fill="#888" fill-opacity="0.18" stroke="#000" stroke-width="1"/>
  <path d="M406.283130 537.119661 L375.528574 547.379682 L375.982014 541.161416 L350.111383 553.027841 L350.836887 543.078616 L324.150064 566.137920 L326.145200 538.777550 L306.246749 537.326543 L307.335005 522.402705 L327.233455 523.853712 L329.228590 496.493343 L352.287894 523.180165 L353.013398 513.230940 L376.888894 528.724884 L377.342333 522.506618 Z" fill="#888" fill-opacity="0.18" stroke="#000" stroke-width="1"/>
  <path d="M323.615370 792.517157 L329.197906 760.580564 L334.454215 763.933721 L336.302964 735.531543 L344.713057 740.896594 L337.100452 706.458733 L360.228208 721.212624 L370.958310 704.392437 L383.573450 712.440014 L372.843348 729.260200 L395.971104 744.014091 L361.533244 751.626696 L369.943337 756.991747 L344.966831 770.640035 L350.223139 773.993192 Z" fill="#888" fill-opacity="0.18" stroke="#000" stroke-width="1"/>
  <path d="M443.680149 594.909165 L428.850698 566.078658 L435.065392 565.578645 L419.393013 541.819897 L429.336523 541.019876 L402.477694 518.161152 L429.822349 515.961094 L428.222307 496.074073 L443.137573 494.874042 L444.737615 514.761063 L472.082270 512.561006 L449.223545 539.419835 L459.167056 538.619814 L447.494780 564.578619 L453.709475 564.078606 Z" fill="#888" fill-opacity="0.18" stroke="#000" stroke-width="1"/>
  <path d="M456.908067 794.616151 L460.934840 762.446354 L466.347617 765.540589 L466.816447 737.082167 L475.476889 742.032942 L466.202722 708.004898 L490.018938 721.619530 L499.920489 704.298645 L512.911153 711.724808 L503.009602 729.045693 L526.825818 742.660325 L492.797774 751.934493 L501.458216 756.885268 L477.173170 771.729058 L482.585946 774.823293 Z" fill="#888" fill-opacity="0.18" stroke="#000" stroke-width="1"/>
  <path d="M466.341401 787.530983 L469.413725 819.805919 L463.457203 817.964103 L469.194285 845.842185 L459.663851 842.895279 L476.122671 874.088631 L449.913976 865.984639 L444.020164 885.045508 L429.724512 880.625148 L435.618324 861.564279 L409.409629 853.460287 L440.602981 837.001466 L431.072547 834.054560 L451.544160 814.280470 L445.587639 812.438653 Z" fill="#888" fill-opacity="0.18" stroke="#000" stroke-width="1"/>
  <path d="M79.897366 177.250623 L66.240336 147.846606 L72.470119 147.597134 L57.766709 123.226838 L67.734363 122.827684 L41.817343 98.906436 L69.228390 97.808761 L68.430081 77.873455 L83.381561 77.274723 L84.179870 97.210030 L111.590917 96.112355 L87.669670 122.029375 L97.637323 121.630220 L84.929686 147.098191 L91.159469 146.848720 Z" fill="#888" fill-opacity="0.18" stroke="#000" stroke-width="1"/>
  <path d="M571.956071 480.711992 L593.182436 456.205827 L595.962645 461.786407 L612.168505 438.388293 L616.616840 447.317221 L627.818322 413.874064 L640.051243 438.428616 L657.909099 429.531946 L664.581602 442.925338 L646.723746 451.822008 L658.956667 476.376560 L625.513510 465.175077 L629.961845 474.104005 L601.523064 472.947567 L604.303274 478.528147 Z" fill="#888" fill-opacity="0.18" stroke="#000" stroke-width="1"/>
  <path d="M746.755778 597.773384 L714.850647 603.533010 L716.188075 597.443369 L688.887171 605.490866 L691.027056 595.747441 L661.318780 614.756291 L667.203464 587.961872 L647.716614 583.682102 L650.926442 569.066964 L670.413292 573.346735 L676.297976 546.552316 L695.306826 576.260591 L697.446711 566.517166 L718.862931 585.264088 L720.200360 579.174447 Z" fill="#888" fill-opacity="0.18" stroke="#000" stroke-width="1"/>
  <path d="M912.045008 824.479496 L879.862492 828.403313 L881.546320 822.400217 L853.829514 828.871715 L856.523640 819.266762 L825.775943 836.543832 L833.184787 810.130210 L813.974881 804.741960 L818.016068 790.334530 L837.225975 795.722780 L844.634819 769.309159 L861.911890 800.056855 L864.606015 790.451901 L884.913976 810.394025 L886.597805 804.390929 Z" fill="#888" fill-opacity="0.18" stroke="#000" stroke-width="1"/>
  <path d="M902.568368 1043.240645 L876.639198 1023.778147 L882.011917 1020.614870 L857.538825 1006.083203 L866.135176 1001.021959 L831.991189 992.184191 L855.631154 978.265771 L845.508666 961.073069 L858.403192 953.481203 L868.525680 970.673905 L892.165645 956.755484 L883.327878 990.899471 L891.924228 985.838227 L892.757356 1014.288315 L898.130075 1011.125038 Z" fill="#888" fill-opacity="0.18" stroke="#000" stroke-width="1"/>
  <path d="M49.758455 639.479835 L79.712497 651.884111 L75.295019 656.283920 L102.612709 664.274252 L95.544744 671.313947 L130.813895 671.384621 L111.376991 690.743783 L125.456382 704.879713 L114.854435 715.439256 L100.775044 701.303326 L81.338140 720.662488 L81.408814 685.393338 L74.340849 692.433033 L66.460063 665.083539 L62.042585 669.483349 Z" fill="#888" fill-opacity="0.18" stroke="#000" stroke-width="1"/>
  <path d="M192.143229 754.395574 L162.222438 741.911305 L166.651657 737.523315 L139.355414 729.460019 L146.442164 722.439234 L111.173328 722.274321 L130.661891 702.967163 L116.620322 688.793663 L127.250446 678.262487 L141.292015 692.435987 L160.780578 673.128829 L160.615664 708.397665 L167.702414 701.376881 L175.510094 728.747334 L179.939313 724.359344 Z" fill="#888" fill-opacity="0.18" stroke="#000" stroke-width="1"/>
  <path d="M523.415689 617.346873 L551.065145 600.417068 L552.025358 606.577460 L574.554458 589.183748 L576.090798 599.040375 L596.891515 570.557956 L601.116451 597.663681 L620.829705 594.591001 L623.134215 609.375941 L603.420961 612.448622 L607.645897 639.554346 L579.163478 618.753629 L580.699818 628.610256 L553.945783 618.898244 L554.905996 625.058636 Z" fill="#888" fill-opacity="0.18" stroke="#000" stroke-width="1"/>
  <path d="M569.399264 989.633157 L583.270524 960.329594 L587.446359 964.959371 L596.778631 938.070520 L603.459967 945.478164 L605.275735 910.255714 L623.649410 930.626734 L638.464697 917.264061 L648.486702 928.375526 L633.671415 941.738199 L652.045090 962.109219 L616.822640 960.293451 L623.503976 967.701094 L595.798030 974.218925 L599.973865 978.848703 Z" fill="#888" fill-opacity="0.18" stroke="#000" stroke-width="1"/>
  <path d="M569.788641 172.029388 L562.926054 203.715593 L557.808871 200.153728 L554.819212 228.458560 L546.631720 222.759576 L552.852989 257.475765 L530.337387 241.803559 L518.939419 258.178542 L506.658182 249.630066 L518.056150 233.255083 L495.540548 217.582876 L530.256737 211.361607 L522.069246 205.662623 L547.574507 193.029997 L542.457325 189.468132 Z" fill="#888" fill-opacity="0.18" stroke="#000" stroke-width="1"/>
  <path d="M952.626540 51.017527 L984.208155 58.346395 L980.571254 63.410523 L1008.828947 66.817045 L1003.009906 74.919649 L1037.814020 69.210741 L1021.811656 91.492903 L1038.016865 103.130986 L1029.288303 115.284892 L1013.083094 103.646810 L997.080731 125.928972 L991.371823 91.124858 L985.552782 99.227462 L973.297452 73.538778 L969.660552 78.602906 Z" fill="#888" fill-opacity="0.18" stroke="#000" stroke-width="1"/>
  <path d="M321.665644 652.160676 L354.066691 651.028052 L351.871222 656.863491 L380.043012 652.807404 L376.530260 662.144106 L408.653895 647.584228 L398.993829 673.260161 L417.667234 680.285664 L412.398107 694.290717 L393.724702 687.265215 L384.064635 712.941147 L369.504757 680.817512 L365.992006 690.154214 L347.480282 668.534369 L345.284813 674.369808 Z" fill="#888" fill-opacity="0.18" stroke="#000" stroke-width="1"/>
  <path d="M511.497022 610.835127 L533.904859 634.265867 L528.088171 636.510547 L549.863602 654.839001 L540.556902 658.430488 L572.802369 672.718519 L547.208945 682.595109 L554.391920 701.208508 L540.431870 706.595739 L533.248896 687.982340 L507.655472 697.858930 L521.943503 665.613463 L512.636803 669.204950 L516.454797 640.999906 L510.638110 643.244585 Z" fill="#888" fill-opacity="0.18" stroke="#000" stroke-width="1"/>
  <path d="M779.480718 617.894950 L776.251158 650.154532 L770.763478 647.195174 L770.998940 675.656483 L762.218652 670.921510 L772.331939 704.709665 L748.186146 691.688488 L738.716199 709.249064 L725.545766 702.146604 L735.015713 684.586027 L710.869920 671.564850 L744.658075 661.451563 L735.877787 656.716589 L759.788117 641.276457 L754.300437 638.317098 Z" fill="#888" fill-opacity="0.18" stroke="#000" stroke-width="1"/>
  <path d="M929.641753 555.857625 L945.633175 527.655052 L949.456752 532.579755 L960.743696 506.451103 L966.861418 514.330628 L971.265925 479.337510 L988.089661 501.006203 L1003.848711 488.770759 L1013.025295 500.590047 L997.266245 512.825491 L1014.089981 534.494185 L979.096863 530.089678 L985.214585 537.969203 L957.103904 542.429161 L960.927481 547.353864 Z" fill="#888" fill-opacity="0.18" stroke="#000" stroke-width="1"/>
  <path d="M558.651317 718.178057 L586.365005 735.002509 L581.328587 738.677686 L607.109416 750.737969 L599.051147 756.618253 L633.897530 762.063216 L611.737289 778.233997 L623.497857 794.350535 L611.410453 803.170961 L599.649886 787.054422 L577.489646 803.225203 L582.934609 768.378821 L574.876340 774.259104 L571.255750 746.028041 L566.219332 749.703219 Z" fill="#888" fill-opacity="0.18" stroke="#000" stroke-width="1"/>
  <path d="M520.189887 202.488653 L500.881367 176.444618 L506.932714 174.943404 L487.614895 154.040689 L497.297050 151.638747 L467.086808 133.438217 L493.712732 126.832875 L488.908848 107.468567 L503.432079 103.865653 L508.235964 123.229962 L534.861888 116.624620 L516.661358 146.834862 L526.343513 144.432919 L519.035407 171.940976 L525.086753 170.439762 Z" fill="#888" fill-opacity="0.18" stroke="#000" stroke-width="1"/>
  <path d="M715.618459 745.835345 L726.222879 776.472855 L719.999917 776.089208 L732.155846 801.825077 L722.199107 801.211243 L745.556368 827.637676 L718.175336 825.949631 L716.947667 845.863108 L702.012559 844.942357 L703.240228 825.028879 L675.859197 823.340834 L702.285630 799.983574 L692.328891 799.369739 L707.553993 775.321915 L701.331032 774.938268 Z" fill="#888" fill-opacity="0.18" stroke="#000" stroke-width="1"/>
  <path d="M551.040122 880.577706 L521.624620 866.945431 L526.220253 862.732049 L499.256330 853.618957 L506.609343 846.877545 L471.373280 845.348541 L491.594067 826.809658 L478.111243 812.103632 L489.140763 801.991514 L502.623587 816.697541 L522.844374 798.158658 L521.315370 833.394721 L528.668383 826.653309 L535.411520 854.305284 L540.007153 850.091902 Z" fill="#888" fill-opacity="0.18" stroke="#000" stroke-width="1"/>
  <path d="M930.160873 1056.924981 L916.457759 1027.542412 L922.687144 1027.283174 L907.945544 1002.935960 L917.912560 1002.521178 L891.958068 978.640593 L919.367360 977.499944 L918.537797 957.565914 L933.488320 956.943742 L934.317883 976.877772 L961.727175 975.737123 L937.846590 1001.691615 L947.813606 1001.276834 L935.145913 1026.764697 L941.375298 1026.505459 Z" fill="#888" fill-opacity="0.18" stroke="#000" stroke-width="1"/>
  <path d="M71.275105 332.412232 L88.523624 304.960469 L92.120940 310.052792 L104.576137 284.460417 L110.331843 292.608134 L116.311871 257.849578 L132.140062 280.255799 L148.435496 268.744388 L157.069054 280.965963 L140.773620 292.477375 L156.601811 314.883596 L121.843254 308.903568 L127.598960 317.051285 L99.315572 320.237438 L102.912888 325.329761 Z" fill="#888" fill-opacity="0.18" stroke="#000" stroke-width="1"/>
  <path d="M814.136813 182.779443 L831.879132 155.644211 L835.383736 160.800779 L848.299879 135.437916 L853.907245 143.688425 L860.515103 109.043740 L875.935358 131.732638 L892.436375 120.517907 L900.847423 132.893670 L884.346406 144.108401 L899.766661 166.797299 L865.121976 160.189442 L870.729341 168.439950 L842.392942 171.113915 L845.897546 176.270483 Z" fill="#888" fill-opacity="0.18" stroke="#000" stroke-width="1"/>
  <path d="M665.743814 461.866641 L688.947105 484.509918 L683.211368 486.954047 L705.606503 504.519909 L696.429325 508.430515 L729.148785 521.596946 L703.911545 532.351112 L711.732757 550.705469 L697.966990 556.571378 L690.145778 538.217021 L664.908538 548.971187 L678.074969 516.251727 L668.897790 520.162333 L671.739896 491.842304 L666.004159 494.286433 Z" fill="#888" fill-opacity="0.18" stroke="#000" stroke-width="1"/>
  <path d="M287.508083 488.387346 L298.532224 518.876345 L292.304581 518.578189 L304.812774 544.144704 L294.848545 543.667655 L318.566496 569.770850 L291.164866 568.458966 L290.210768 588.387425 L275.264425 587.671852 L276.218522 567.743393 L248.816892 566.431509 L274.920086 542.713558 L264.955857 542.236509 L279.849294 517.981878 L273.621651 517.683723 Z" fill="#888" fill-opacity="0.18" stroke="#000" stroke-width="1"/>
  <path d="M291.345264 598.963790 L296.770776 630.927434 L290.695461 629.526368 L298.456889 656.909973 L288.736385 654.668267 L307.433380 684.573791 L280.701994 678.409100 L276.218582 697.850107 L261.637827 694.487548 L266.121239 675.046541 L239.389853 668.881849 L269.295378 650.184855 L259.574874 647.943149 L278.544831 626.724235 L272.469517 625.323169 Z" fill="#888" fill-opacity="0.18" stroke="#000" stroke-width="1"/>
  <path d="M451.017624 942.949604 L461.370934 912.226328 L466.058992 916.336625 L472.186452 888.541736 L479.687346 895.118212 L477.376301 859.924789 L498.003759 878.010096 L511.156710 863.008309 L522.408051 872.873022 L509.255099 887.874810 L529.882557 905.960118 L494.689134 908.271163 L502.190028 914.847639 L475.435110 924.557219 L480.123168 928.667517 Z" fill="#888" fill-opacity="0.18" stroke="#000" stroke-width="1"/>
  <path d="M49.955522 905.517580 L74.608806 884.462265 L76.522968 890.395934 L96.046485 869.685215 L99.109144 879.179084 L115.187170 847.787762 L123.609483 873.895903 L142.597222 867.770585 L147.191211 882.011389 L128.203472 888.136708 L136.625785 914.244849 L105.234463 898.166823 L108.297122 907.660693 L80.351292 902.263271 L82.265454 908.196939 Z" fill="#888" fill-opacity="0.18" stroke="#000" stroke-width="1"/>
  <path d="M592.370289 564.996354 L565.673328 583.391544 L564.382537 577.291847 L542.823492 595.874343 L540.758227 586.114829 L521.522605 615.676779 L515.843125 588.838115 L496.324096 592.968646 L493.226198 578.329375 L512.745226 574.198844 L507.065746 547.360180 L536.627695 566.595801 L534.562430 556.836287 L561.800955 565.092455 L560.510164 558.992758 Z" fill="#888" fill-opacity="0.18" stroke="#000" stroke-width="1"/>
  <path d="M749.507089 1007.803673 L719.850273 994.704667 L724.369092 990.409005 L697.245042 981.784186 L704.475152 974.911127 L669.217228 974.018500 L689.100031 955.117586 L675.353913 940.657366 L686.199078 930.347777 L699.945197 944.807997 L719.828000 925.907084 L718.935373 961.165008 L726.165483 954.291948 L733.406730 981.817681 L737.925549 977.522019 Z" fill="#888" fill-opacity="0.18" stroke="#000" stroke-width="1"/>
  <path d="M242.586668 792.893763 L243.882976 760.498852 L249.537671 763.125039 L247.602090 734.728646 L256.649603 738.930546 L244.535571 705.807016 L269.416230 717.362239 L277.820029 699.267215 L291.391297 705.570064 L282.987498 723.665089 L307.868157 735.220312 L274.744628 747.334345 L283.792140 751.536244 L260.847062 768.377413 L266.501757 771.003600 Z" fill="#888" fill-opacity="0.18" stroke="#000" stroke-width="1"/>
  <path d="M651.332120 885.111461 L620.934354 896.384727 L621.181538 890.154853 L595.718235 902.871841 L596.113729 892.904042 L570.205495 916.834804 L571.293104 889.423356 L551.357506 888.632368 L551.950747 873.680669 L571.886346 874.471657 L572.973955 847.060209 L596.904718 872.968443 L597.300212 863.000644 L621.675906 877.695103 L621.923089 871.465229 Z" fill="#888" fill-opacity="0.18" stroke="#000" stroke-width="1"/>
  <path d="M1055.403586 233.905597 L1045.930762 264.911666 L1041.127379 260.936751 L1035.795164 288.895097 L1028.109751 282.535233 L1031.423626 317.648425 L1010.288739 300.158801 L997.569012 315.529627 L986.040892 305.989832 L998.760619 290.619006 L977.625732 273.129382 L1012.738924 269.815507 L1005.053511 263.455643 L1031.520612 252.986922 L1026.717229 249.012008 Z" fill="#888" fill-opacity="0.18" stroke="#000" stroke-width="1"/>
  <path d="M412.035020 644.769850 L435.648554 666.984974 L429.958478 669.533595 L452.671130 686.686933 L443.567008 690.764727 L476.521798 703.330548 L451.485462 714.544481 L459.641050 732.752725 L445.984867 738.869415 L437.829279 720.661171 L412.792944 731.875105 L425.358764 698.920315 L416.254642 702.998109 L418.578325 674.630837 L412.888249 677.179459 Z" fill="#888" fill-opacity="0.18" stroke="#000" stroke-width="1"/>
  <path d="M1037.552465 642.273971 L1007.018865 653.173970 L1007.342356 646.947591 L981.725161 659.351659 L982.242747 649.389453 L956.043267 673.001003 L957.466629 645.604937 L937.542217 644.569765 L938.318596 629.626456 L958.243008 630.661628 L959.666369 603.265563 L983.277919 629.465042 L983.795505 619.502836 L1007.989338 634.494834 L1008.312830 628.268455 Z" fill="#888" fill-opacity="0.18" stroke="#000" stroke-width="1"/>
  <path d="M432.665340 828.992637 L417.621269 800.273538 L423.832061 799.727187 L407.982912 776.085992 L417.920179 775.211830 L390.891605 752.554068 L418.219090 750.150121 L416.470765 730.275587 L431.376666 728.964343 L433.124991 748.838877 L460.452476 746.434930 L437.794714 773.463505 L447.731981 772.589342 L436.253645 798.634483 L442.464437 798.088132 Z" fill="#888" fill-opacity="0.18" stroke="#000" stroke-width="1"/>
  <path d="M420.775290 537.707040 L403.528848 565.160108 L399.931147 560.068057 L387.477886 585.661374 L381.721564 577.514093 L375.744166 612.273102 L359.914280 589.868078 L343.619717 601.380722 L334.985234 589.159800 L351.279797 577.647156 L335.449911 555.242131 L370.208920 561.219530 L364.452598 553.072249 L392.735745 549.883955 L389.138043 544.791905 Z" fill="#888" fill-opacity="0.18" stroke="#000" stroke-width="1"/>
  <path d="M320.370878 770.113445 L306.200689 740.953259 L312.425145 740.594659 L297.296945 716.485757 L307.256073 715.911998 L280.923854 692.448575 L308.311457 690.870737 L307.163938 670.952480 L322.102631 670.091841 L323.250150 690.010098 L350.637753 688.432260 L327.174330 714.764479 L337.133458 714.190720 L324.874055 739.877460 L331.098510 739.518861 Z" fill="#888" fill-opacity="0.18" stroke="#000" stroke-width="1"/>
  <path d="M170.709775 994.913748 L191.359928 969.920111 L194.269291 975.434460 L209.926092 951.665443 L214.581071 960.488402 L225.001020 926.793557 L237.802213 951.056694 L255.448132 941.746735 L262.430601 954.981174 L244.784682 964.291133 L257.585876 988.554270 L223.891030 978.134321 L228.546009 986.957280 L200.088015 986.463159 L202.997377 991.977509 Z" fill="#888" fill-opacity="0.18" stroke="#000" stroke-width="1"/>
  <path d="M854.419379 479.476155 L886.821359 478.370547 L884.621025 484.204153 L912.796187 480.171556 L909.275652 489.505327 L941.411416 474.972238 L931.729944 500.640107 L950.397486 507.681177 L945.116683 521.681833 L926.449142 514.640763 L916.767671 540.308632 L902.234582 508.172868 L898.714047 517.506639 L880.220356 495.871367 L878.020022 501.704973 Z" fill="#888" fill-opacity="0.18" stroke="#000" stroke-width="1"/>
  <path d="M1051.134953 191.339116 L1031.530718 217.161290 L1028.396918 211.771324 L1013.731416 236.164451 L1008.717335 227.540506 L999.692673 261.635571 L985.903951 237.919721 L968.656060 247.947883 L961.134939 235.011965 L978.382830 224.983803 L964.594108 201.267953 L998.689173 210.292615 L993.675093 201.668670 L1022.129317 200.991393 L1018.995516 195.601427 Z" fill="#888" fill-opacity="0.18" stroke="#000" stroke-width="1"/>
  <path d="M266.573709 923.755039 L282.575615 895.558414 L286.397360 900.484538 L297.694017 874.360083 L303.808810 882.241882 L308.226326 847.250404 L325.042005 868.925351 L340.805603 856.695766 L349.977791 868.518464 L334.214194 880.748049 L351.029873 902.422995 L316.038395 898.005480 L322.153187 905.887278 L294.040851 910.336786 L297.862596 915.262911 Z" fill="#888" fill-opacity="0.18" stroke="#000" stroke-width="1"/>
  <path d="M421.619060 845.190895 L393.374831 829.273161 L398.289535 825.436740 L372.131502 814.218053 L379.995028 808.079779 L344.990529 803.766650 L366.615224 786.886397 L354.338676 771.159346 L366.133964 761.951935 L378.410512 777.678986 L400.035207 760.798733 L395.722078 795.803231 L403.585604 789.664957 L408.118941 817.763898 L413.033645 813.927476 Z" fill="#888" fill-opacity="0.18" stroke="#000" stroke-width="1"/>
  <path d="M791.603921 448.251276 L786.944696 480.335576 L781.593875 477.135396 L780.564959 505.579076 L772.003646 500.458787 L780.606206 534.662792 L757.062595 520.581997 L746.822017 537.704623 L733.980048 530.024190 L744.220626 512.901564 L720.677015 498.820769 L754.881020 490.218209 L746.319707 485.097920 L770.892234 470.735035 L765.541414 467.534854 Z" fill="#888" fill-opacity="0.18" stroke="#000" stroke-width="1"/>
  <path d="M536.281628 799.332931 L568.701322 799.605249 L566.255075 805.340083 L594.576152 802.508437 L590.662157 811.684170 L623.386478 798.529824 L612.622991 823.763091 L630.974458 831.591081 L625.103465 845.354681 L606.751999 837.526691 L595.988512 862.759958 L582.834167 830.035637 L578.920172 839.211370 L561.362582 816.809749 L558.916335 822.544583 Z" fill="#888" fill-opacity="0.18" stroke="#000" stroke-width="1"/>
  <path d="M982.661384 136.886152 L960.757648 160.788809 L958.134671 155.132624 L941.280478 178.068137 L937.083716 169.018241 L924.950881 202.134888 L913.409784 177.247673 L895.309991 185.641197 L889.014848 172.066353 L907.114641 163.672828 L895.573544 138.785613 L928.690191 150.918448 L924.493429 141.868552 L952.888718 143.820253 L950.265742 138.164068 Z" fill="#888" fill-opacity="0.18" stroke="#000" stroke-width="1"/>
  <path d="M832.179759 636.961043 L859.220232 619.074637 L860.395299 625.197680 L882.302324 607.026718 L884.182431 616.823587 L903.974336 587.631148 L909.144629 614.572537 L928.738367 610.812324 L931.558527 625.507627 L911.964789 629.267841 L917.135083 656.209230 L887.942644 636.417325 L889.822751 646.214193 L862.745432 637.443766 L863.920499 643.566809 Z" fill="#888" fill-opacity="0.18" stroke="#000" stroke-width="1"/>
  <path d="M750.328460 630.469265 L747.561236 598.166739 L753.500089 600.064756 L748.026681 572.133709 L757.528845 575.170536 L741.365502 543.823058 L767.496453 552.174332 L773.570107 533.170004 L787.823353 537.725245 L781.749699 556.729573 L807.880650 565.080847 L776.533173 581.244190 L786.035337 584.281017 L765.377794 603.860790 L771.316646 605.758807 Z" fill="#888" fill-opacity="0.18" stroke="#000" stroke-width="1"/>
  <path d="M814.019259 55.530268 L788.837119 75.950125 L787.074877 69.969578 L767.029623 90.175749 L764.210036 80.606875 L747.336817 111.578031 L739.582952 85.263625 L720.445202 90.902800 L716.215821 76.549488 L735.353570 70.910313 L727.599705 44.595907 L758.570860 61.469125 L755.751273 51.900250 L783.550393 58.008484 L781.788151 52.027937 Z" fill="#888" fill-opacity="0.18" stroke="#000" stroke-width="1"/>
  <path d="M876.552557 941.291591 L904.020914 924.069511 L905.046405 930.219373 L927.389774 912.587713 L929.030560 922.427493 L949.528046 893.726081 L954.040205 920.785475 L973.719764 917.503904 L976.180942 932.263574 L956.501383 935.545144 L961.013542 962.604538 L932.312130 942.107052 L933.952915 951.946832 L907.097387 942.519098 L908.122877 948.668960 Z" fill="#888" fill-opacity="0.18" stroke="#000" stroke-width="1"/>
  <path d="M844.017515 962.152074 L811.836830 966.090884 L813.517861 960.087004 L785.804074 966.571415 L788.493724 956.965208 L757.754080 974.256602 L765.150617 947.839531 L745.938202 942.460231 L749.972677 928.050920 L769.185092 933.430220 L776.581629 907.013149 L793.873023 937.752793 L796.562673 928.146585 L816.879923 948.079245 L818.560955 942.075365 Z" fill="#888" fill-opacity="0.18" stroke="#000" stroke-width="1"/>
  <path d="M58.009976 716.921939 L79.359280 741.321076 L73.448981 743.306224 L94.392227 762.580093 L84.935749 765.756329 L116.517532 781.456933 L90.512219 790.191582 L96.864691 809.104537 L82.679975 813.868890 L76.327503 794.955935 L50.322190 803.690583 L66.022794 772.108800 L56.566317 775.285036 L61.628384 747.276518 L55.718086 749.261666 Z" fill="#888" fill-opacity="0.18" stroke="#000" stroke-width="1"/>
  <path d="M70.696117 523.860612 L85.608263 552.648432 L79.395030 553.166282 L95.135543 576.879945 L85.194370 577.708505 L112.118704 600.490038 L84.780477 602.768579 L86.437597 622.650925 L71.525837 623.893765 L69.868717 604.011419 L42.530490 606.289959 L65.312023 579.365625 L55.370850 580.194185 L66.968563 554.201982 L60.755330 554.719832 Z" fill="#888" fill-opacity="0.18" stroke="#000" stroke-width="1"/>
  <path d="M77.266637 861.464906 L92.582132 832.889632 L96.521863 837.721915 L107.183586 811.331968 L113.487155 819.063620 L117.057362 783.975565 L134.392179 805.237609 L149.855483 792.630470 L159.310838 804.227948 L143.847533 816.835088 L161.182350 838.097131 L126.094295 834.526925 L132.397865 842.258577 L104.401326 847.386480 L108.341057 852.218763 Z" fill="#888" fill-opacity="0.18" stroke="#000" stroke-width="1"/>
  <path d="M476.190507 798.952344 L498.655108 775.576023 L501.143168 781.292840 L518.536704 758.763604 L522.517600 767.910511 L535.432629 735.091005 L546.380092 760.244999 L564.673906 752.283208 L570.645249 766.003569 L552.351435 773.965360 L563.298898 799.119354 L530.479391 786.204325 L534.460287 795.351233 L506.119288 792.726474 L508.607347 798.443291 Z" fill="#888" fill-opacity="0.18" stroke="#000" stroke-width="1"/>
  <path d="M517.420830 1058.745942 L531.975583 1029.775787 L536.041679 1034.502234 L546.002055 1007.839667 L552.507809 1015.401982 L555.149213 980.231810 L573.040035 1001.028177 L588.164665 988.016670 L597.923296 999.360142 L582.798666 1012.371649 L600.689488 1033.168016 L565.519316 1030.526612 L572.025070 1038.088927 L544.173871 1043.955128 L548.239967 1048.681575 Z" fill="#888" fill-opacity="0.18" stroke="#000" stroke-width="1"/>
  <path d="M315.921601 1053.829346 L284.251518 1046.892738 L287.825330 1041.783892 L259.527561 1038.728103 L265.245660 1030.553950 L230.515029 1036.694083 L246.239803 1014.215163 L229.891497 1002.778963 L238.468647 990.517734 L254.816953 1001.953934 L270.541727 979.475013 L276.681860 1014.205645 L282.399959 1006.031492 L294.972954 1031.566201 L298.546767 1026.457356 Z" fill="#888" fill-opacity="0.18" stroke="#000" stroke-width="1"/>
  <path d="M476.810648 877.989979 L463.371565 907.494246 L459.128136 902.926342 L450.192063 929.949446 L443.402577 922.640799 L442.104675 957.886132 L423.433588 937.787353 L408.816294 951.366325 L398.632065 940.403355 L413.249359 926.824383 L394.578272 906.725604 L429.823604 908.023506 L423.034118 900.714859 L450.641279 893.790533 L446.397850 889.222629 Z" fill="#888" fill-opacity="0.18" stroke="#000" stroke-width="1"/>
  <path d="M338.933721 993.477582 L307.865304 984.211293 L311.808167 979.381565 L283.814958 974.235512 L290.123540 966.507948 L255.033177 970.055404 L272.381776 948.804604 L256.926649 936.187441 L266.389521 924.596096 L281.844648 937.213258 L299.193247 915.962458 L302.740703 951.052821 L309.049284 943.325257 L319.693894 969.722111 L323.636757 964.892383 Z" fill="#888" fill-opacity="0.18" stroke="#000" stroke-width="1"/>
  <path d="M340.706853 930.110522 L354.235575 900.647250 L358.465096 905.228034 L367.483286 878.232223 L374.250520 885.561478 L375.655571 850.320254 L394.265466 870.475705 L408.923976 856.941236 L419.074827 867.935118 L404.416318 881.469587 L423.026213 901.625038 L387.784989 900.219987 L394.552224 907.549242 L366.924139 914.389603 L371.153661 918.970387 Z" fill="#888" fill-opacity="0.18" stroke="#000" stroke-width="1"/>
  <path d="M216.798032 230.734739 L196.129415 205.756368 L202.092189 203.934896 L181.688195 184.091039 L191.228634 181.176683 L160.091647 164.611478 L186.327853 156.596998 L180.499140 137.516121 L194.809798 133.144586 L200.638510 152.225463 L226.874716 144.210984 L210.309511 175.347971 L219.849949 172.433614 L214.017737 200.291950 L219.980511 198.470478 Z" fill="#888" fill-opacity="0.18" stroke="#000" stroke-width="1"/>
  <path d="M552.355892 719.394928 L561.971953 688.432983 L566.756909 692.430061 L572.218317 664.496665 L579.874247 670.891989 L576.722734 635.763853 L597.776541 653.350996 L610.567190 638.039136 L622.051085 647.632123 L609.260436 662.943983 L630.314243 680.531125 L595.186107 683.682638 L602.842037 690.077963 L576.326822 700.424216 L581.111778 704.421294 Z" fill="#888" fill-opacity="0.18" stroke="#000" stroke-width="1"/>
  <path d="M441.569725 106.236932 L411.017949 117.085881 L411.351847 110.860052 L385.713955 123.221285 L386.248192 113.259958 L360.009283 136.827683 L361.478434 109.434035 L341.555781 108.365562 L342.357135 93.423572 L362.279789 94.492045 L363.748939 67.098396 L387.316665 93.337304 L387.850901 83.375978 L412.019643 98.408393 L412.353541 92.182564 Z" fill="#888" fill-opacity="0.18" stroke="#000" stroke-width="1"/>
  <path d="M924.263313 909.944708 L894.925671 896.145670 L899.545148 891.958443 L872.633392 882.692432 L880.024555 875.992870 L844.797740 874.263867 L865.123440 855.840070 L851.724315 841.057742 L862.811060 831.008399 L876.210185 845.790726 L896.535886 827.366929 L894.806883 862.593745 L902.198046 855.894182 L908.784103 883.583990 L913.403580 879.396763 Z" fill="#888" fill-opacity="0.18" stroke="#000" stroke-width="1"/>
  <path d="M523.948963 908.163609 L531.119412 939.781569 L524.976398 938.715823 L534.228047 965.632520 L524.399224 963.927327 L544.708298 992.762366 L517.679036 988.073086 L514.268650 1007.730731 L499.525416 1005.172942 L502.935802 985.515296 L475.906539 980.826016 L504.741578 960.516941 L494.912756 958.811748 L512.690369 936.584332 L506.547355 935.518586 Z" fill="#888" fill-opacity="0.18" stroke="#000" stroke-width="1"/>
  <path d="M898.903924 827.129577 L928.805090 839.660778 L924.368992 844.041813 L951.652549 852.147928 L944.554792 859.157585 L979.823326 859.377837 L960.304494 878.654392 L974.323807 892.849906 L963.677171 903.364391 L949.657858 889.168876 L930.139026 908.445432 L930.359278 873.176898 L923.261521 880.186554 L915.496796 852.803884 L911.060697 857.184919 Z" fill="#888" fill-opacity="0.18" stroke="#000" stroke-width="1"/>
  <path d="M123.549507 914.868041 L147.748780 936.443626 L142.128908 939.143527 L165.292234 955.683234 L156.300438 960.003077 L189.579535 971.682960 L164.852096 983.562528 L173.491781 1001.546120 L160.004087 1008.025884 L151.364401 990.042292 L126.636962 1001.921859 L138.316846 968.642762 L129.325049 972.962605 L130.889162 944.543331 L125.269290 947.243232 Z" fill="#888" fill-opacity="0.18" stroke="#000" stroke-width="1"/>
  <path d="M295.993461 859.431111 L272.195354 881.448395 L270.047176 875.595382 L251.361115 897.064726 L247.924029 887.699904 L233.104690 919.704672 L223.652704 893.951413 L204.923061 900.825584 L199.767432 886.778352 L218.497075 879.904181 L209.045090 854.150922 L241.049858 868.970261 L237.612772 859.605440 L265.750818 863.889355 L263.602640 858.036342 Z" fill="#888" fill-opacity="0.18" stroke="#000" stroke-width="1"/>
  <path d="M736.196830 846.322147 L747.086070 876.859585 L740.859806 876.533900 L753.254846 902.155464 L743.292824 901.634368 L766.895140 927.842166 L739.499577 926.409151 L738.457385 946.333197 L723.514351 945.551552 L724.556543 925.627507 L697.160981 924.194492 L723.368778 900.592176 L713.406755 900.071080 L728.407277 875.882530 L722.181013 875.556845 Z" fill="#888" fill-opacity="0.18" stroke="#000" stroke-width="1"/>
  <path d="M188.660964 934.573025 L170.434270 907.760746 L176.541974 906.508395 L158.095620 884.832749 L167.867947 882.828988 L138.427725 863.407574 L165.301625 857.897229 L161.294101 838.352575 L175.952592 835.346932 L179.960115 854.891587 L206.834015 849.381242 L187.412602 878.821464 L197.184929 876.817702 L188.757383 904.003693 L194.865088 902.751342 Z" fill="#888" fill-opacity="0.18" stroke="#000" stroke-width="1"/>
  <path d="M501.190521 947.442735 L480.048073 972.021335 L477.248798 966.450293 L461.123038 989.903682 L456.644198 980.990016 L445.557132 1014.471279 L433.240324 989.958698 L415.412992 998.916376 L408.694734 985.545877 L426.522065 976.588199 L414.205257 952.075618 L447.686520 963.162684 L443.207681 954.249019 L471.650249 955.308211 L468.850975 949.737170 Z" fill="#888" fill-opacity="0.18" stroke="#000" stroke-width="1"/>
  <path d="M711.812433 707.648095 L681.697250 719.655862 L681.793148 713.421823 L656.646017 726.753117 L656.799454 716.778654 L631.479706 741.331218 L631.901658 713.901447 L611.952733 713.594573 L612.182889 698.632880 L632.131813 698.939753 L632.553764 671.509982 L657.106328 696.829730 L657.259765 686.855268 L681.984945 700.953746 L682.080843 694.719707 Z" fill="#888" fill-opacity="0.18" stroke="#000" stroke-width="1"/>
  <path d="M667.235234 965.892411 L663.109788 998.049702 L657.706529 994.938876 L657.150395 1023.395726 L648.505182 1018.418405 L657.674913 1052.474741 L633.900576 1038.787109 L623.945934 1056.077535 L610.978114 1048.611554 L620.932756 1031.321127 L597.158419 1017.633494 L631.214755 1008.463763 L622.569542 1003.486442 L646.900013 988.717225 L641.496754 985.606399 Z" fill="#888" fill-opacity="0.18" stroke="#000" stroke-width="1"/>
  <path d="M425.234778 636.838086 L457.341809 641.338005 L454.168226 646.704644 L482.616663 647.592370 L477.538931 656.178991 L511.699816 647.406768 L497.736052 671.019978 L514.909296 681.175442 L507.292697 694.055375 L490.119454 683.899910 L476.155690 707.513120 L467.383466 673.352235 L462.305734 681.938857 L447.821061 657.437921 L444.647478 662.804560 Z" fill="#888" fill-opacity="0.18" stroke="#000" stroke-width="1"/>
  <path d="M890.675830 179.108573 L900.560587 209.985786 L894.348303 209.456659 L905.898819 235.469871 L895.959166 234.623268 L918.691790 261.588908 L891.357745 259.260750 L889.664538 279.140056 L874.755059 277.870151 L876.448265 257.990845 L849.114219 255.662686 L876.079859 232.930062 L866.140206 232.083459 L881.923737 208.398405 L875.711454 207.869278 Z" fill="#888" fill-opacity="0.18" stroke="#000" stroke-width="1"/>
  <path d="M527.794510 870.191026 L552.412042 891.288131 L546.846170 894.097671 L570.329244 910.180171 L561.423849 914.675434 L594.925493 925.700764 L570.435657 938.062736 L579.426183 955.873525 L566.068091 962.616419 L557.077565 944.805630 L532.587730 957.167602 L543.613060 923.665959 L534.707666 928.161221 L535.714427 899.716749 L530.148555 902.526288 Z" fill="#888" fill-opacity="0.18" stroke="#000" stroke-width="1"/>
  <path d="M701.072439 911.956077 L673.987571 894.136968 L679.154045 890.646985 L653.827869 877.659052 L662.094227 872.075079 L627.468398 865.369116 L650.200884 850.013190 L639.032937 833.480473 L651.432475 825.104513 L662.600422 841.637230 L685.332907 826.281303 L678.626944 860.907132 L686.893303 855.323159 L689.486993 883.667018 L694.653467 880.177035 Z" fill="#888" fill-opacity="0.18" stroke="#000" stroke-width="1"/>
  <path d="M990.671208 734.743269 L958.389647 731.741346 L961.310222 726.232928 L932.851281 726.669149 L937.524201 717.855679 L903.808226 728.207055 L916.658756 703.970011 L899.031815 694.624171 L906.041195 681.403966 L923.668136 690.749806 L936.518666 666.512763 L946.870041 700.228738 L951.542961 691.415268 L967.151372 715.216090 L970.071947 709.707671 Z" fill="#888" fill-opacity="0.18" stroke="#000" stroke-width="1"/>
  <path d="M881.215021 362.324877 L898.441651 389.790381 L892.291958 390.816891 L909.927319 413.157339 L900.087811 414.799754 L928.792618 435.292486 L901.733971 439.809127 L905.018801 459.488143 L890.259539 461.951765 L886.974710 442.272750 L859.916063 446.789391 L880.408795 418.084584 L870.569288 419.726999 L879.992574 392.869909 L873.842881 393.896418 Z" fill="#888" fill-opacity="0.18" stroke="#000" stroke-width="1"/>
  <path d="M733.527766 796.200188 L727.948669 764.262994 L734.030649 765.634840 L726.137679 738.288860 L735.868847 740.483814 L717.028314 710.668511 L743.789024 716.704635 L748.178932 697.242300 L762.775683 700.534732 L758.385775 719.997066 L785.146485 726.033190 L755.331181 744.873723 L765.062348 747.068677 L746.194608 768.378533 L752.276587 769.750379 Z" fill="#888" fill-opacity="0.18" stroke="#000" stroke-width="1"/>
  <path d="M711.848892 726.994264 L702.525923 758.045721 L697.703399 754.094050 L692.506270 782.077821 L684.790232 775.755149 L688.273647 810.851927 L667.054541 793.464577 L654.409196 808.896654 L642.835138 799.412645 L655.480483 783.980568 L634.261377 766.593219 L669.358155 763.109804 L661.642116 756.787131 L688.058351 746.190710 L683.235826 742.239039 Z" fill="#888" fill-opacity="0.18" stroke="#000" stroke-width="1"/>
  <path d="M774.582568 1059.581128 L778.289415 1027.372899 L783.732677 1030.413184 L783.918642 1001.951508 L792.627861 1006.815965 L783.015955 972.881775 L806.966308 986.259031 L816.695222 968.840593 L829.759050 976.137278 L820.030137 993.555716 L843.980490 1006.932972 L810.046300 1016.544878 L818.755519 1021.409335 L794.619201 1036.493755 L800.062463 1039.534041 Z" fill="#888" fill-opacity="0.18" stroke="#000" stroke-width="1"/>
  <path d="M121.797972 742.087628 L153.457888 749.070492 L149.876617 754.174112 L178.169892 757.271235 L172.439858 765.437026 L207.179421 759.347635 L191.421827 781.803560 L207.753409 793.263629 L199.158357 805.512316 L182.826775 794.052247 L167.069180 816.508172 L160.979789 781.768609 L155.249754 789.934400 L142.714074 764.381351 L139.132802 769.484970 Z" fill="#888" fill-opacity="0.18" stroke="#000" stroke-width="1"/>
  <path d="M307.662018 930.568158 L340.082837 930.533220 L337.691050 936.290979 L365.984018 933.191059 L362.157158 942.403474 L394.755345 928.939587 L384.231480 954.273727 L402.656309 961.927447 L396.916019 975.746069 L378.491190 968.092349 L367.967325 993.426489 L354.503438 960.828303 L350.676578 970.040717 L332.907475 947.806497 L330.515687 953.564256 Z" fill="#888" fill-opacity="0.18" stroke="#000" stroke-width="1"/>
  <path d="M105.663528 932.301499 L116.583333 962.828022 L110.356745 962.508570 L122.777429 988.117713 L112.814890 987.606589 L136.443431 1013.790746 L109.046447 1012.385157 L108.024201 1032.310236 L93.080392 1031.543551 L94.102638 1011.618473 L66.705654 1010.212884 L92.889811 986.584343 L82.927272 986.073220 L97.903571 961.869666 L91.676984 961.550214 Z" fill="#888" fill-opacity="0.18" stroke="#000" stroke-width="1"/>
  <path d="M290.543491 773.278577 L319.532738 787.795266 L314.811636 791.867566 L341.487264 801.792913 L333.933500 808.308594 L369.107111 810.903799 L348.334262 828.821922 L361.365625 843.929449 L350.034980 853.702970 L337.003618 838.595444 L316.230769 856.513567 L318.825974 821.339956 L311.272211 827.855637 L305.369432 800.012168 L300.648330 804.084469 Z" fill="#888" fill-opacity="0.18" stroke="#000" stroke-width="1"/>
</svg>
