<?xml version="1.0" encoding="UTF-8"?>
<svg xmlns="http://www.w3.org/2000/svg" width="1100" height="1100" viewBox="0 0 1100 1100">
  <rect x="0" y="0" width="1100" height="1100" fill="white"/>
  <text x="10.0" y="18.0" font-family="monospace" font-size="12">prefix=N200_job5490051_task1 run_id=1 L=14.6940353 feas=1.272e+00 N=200</text>
  <rect x="40.000000" y="40.000000" width="1020.000000" height="1020.000000" fill="none" stroke="#000" stroke-width="2"/>
  <path d="M107.028912 121.478610 L129.005871 126.575149 L126.475646 130.099422 L146.139233 132.466925 L142.090871 138.105761 L166.308865 134.129574 L155.175871 149.636374 L166.453543 157.733096 L160.381001 166.191350 L149.103329 158.094628 L137.970336 173.601427 L133.994149 149.383433 L129.945787 155.022270 L121.415194 137.147967 L118.884968 140.672239 Z" fill="#888" fill-opacity="0.18" stroke="#000" stroke-width="1"/>
  <path d="M147.125248 143.085194 L169.530622 145.723503 L167.405081 149.505647 L187.209848 149.687095 L183.808983 155.738525 L207.439724 149.112113 L198.087343 165.753547 L210.190204 172.555279 L205.088905 181.632425 L192.986044 174.830693 L183.633663 191.472128 L177.007251 167.841387 L173.606385 173.892817 L163.153999 157.069936 L161.028458 160.852080 Z" fill="#888" fill-opacity="0.18" stroke="#000" stroke-width="1"/>
  <path d="M191.671198 177.010524 L207.515212 160.950365 L209.194233 164.950793 L221.502100 149.433765 L224.188534 155.834451 L233.474162 133.116652 L240.861856 150.718537 L253.663226 145.345668 L257.692878 154.946696 L244.891507 160.319565 L252.279201 177.921449 L229.561402 168.635821 L232.247836 175.036507 L212.552276 172.951650 L214.231297 176.952078 Z" fill="#888" fill-opacity="0.18" stroke="#000" stroke-width="1"/>
  <path d="M241.224442 207.659611 L250.001258 186.876710 L253.041358 189.971922 L258.733985 171.002058 L263.598144 175.954397 L263.818592 151.413152 L277.195030 165.032083 L287.099707 155.303764 L294.395945 162.732272 L284.491269 172.460590 L297.867707 186.079521 L273.326463 185.859073 L278.190622 190.811412 L259.121557 196.162345 L262.161656 199.257556 Z" fill="#888" fill-opacity="0.18" stroke="#000" stroke-width="1"/>
  <path d="M310.437574 215.543659 L305.844350 193.456020 L310.104968 194.274356 L304.004952 175.431545 L310.821941 176.740883 L297.052813 156.425067 L315.799532 160.025745 L318.418207 146.391767 L328.643690 148.355774 L326.025015 161.989751 L344.771735 165.590429 L324.455919 179.359558 L331.272908 180.668895 L318.626204 195.911028 L322.886822 196.729364 Z" fill="#888" fill-opacity="0.18" stroke="#000" stroke-width="1"/>
  <path d="M410.872678 164.656102 L389.110038 170.601601 L389.664286 166.298655 L371.233153 173.548143 L372.119951 166.663429 L352.691171 181.658220 L355.129865 162.725256 L341.360436 160.951660 L342.690633 150.624589 L356.460061 152.398184 L358.898755 133.465220 L373.893547 152.894000 L374.780344 146.009286 L390.772783 157.692762 L391.327032 153.389816 Z" fill="#888" fill-opacity="0.18" stroke="#000" stroke-width="1"/>
  <path d="M460.000190 180.381695 L437.445576 180.882543 L439.024908 176.841721 L419.387086 179.414200 L421.914018 172.948883 L399.433397 182.794843 L406.382460 165.015223 L393.451828 159.961359 L397.242226 150.263384 L410.172859 155.317249 L417.121923 137.537629 L426.967883 160.018251 L429.494815 153.552934 L442.183574 168.760075 L443.762906 164.719253 Z" fill="#888" fill-opacity="0.18" stroke="#000" stroke-width="1"/>
  <path d="M507.018875 159.869029 L488.420308 172.638320 L487.529203 168.392325 L472.505653 181.297931 L471.079886 174.504339 L457.660324 195.052736 L453.739465 176.370359 L440.152281 179.221893 L438.013631 169.031505 L451.600815 166.179971 L447.679956 147.497594 L468.228353 160.917156 L466.802586 154.123564 L485.746995 159.900335 L484.855890 155.654340 Z" fill="#888" fill-opacity="0.18" stroke="#000" stroke-width="1"/>
  <path d="M460.790262 214.151933 L461.172740 191.595001 L465.148640 193.331308 L463.346892 173.607834 L469.708331 176.385927 L460.749965 153.537099 L478.243922 161.176853 L483.800107 148.453975 L493.342265 152.621114 L487.786080 165.343991 L505.280037 172.983745 L482.431209 181.942112 L488.792648 184.720204 L473.100438 196.803924 L477.076337 198.540232 Z" fill="#888" fill-opacity="0.18" stroke="#000" stroke-width="1"/>
  <path d="M514.529589 110.481322 L530.966301 125.934346 L527.007427 127.709131 L542.816086 139.640100 L536.481889 142.479755 L559.416520 151.216112 L541.997476 159.025163 L547.676786 171.693558 L538.175490 175.953041 L532.496180 163.284645 L515.077136 171.093696 L523.813493 148.159064 L517.479295 150.998719 L519.089680 131.258699 L515.130806 133.033484 Z" fill="#888" fill-opacity="0.18" stroke="#000" stroke-width="1"/>
  <path d="M538.105569 111.320138 L557.097123 123.497262 L553.530803 125.967869 L571.259135 134.797815 L565.553023 138.750786 L589.700732 143.133639 L574.008923 154.004310 L581.914865 165.416535 L573.355696 171.345992 L565.449754 159.933767 L549.757944 170.804437 L554.140798 146.656728 L548.434685 150.609699 L546.398162 130.909083 L542.831842 133.379690 Z" fill="#888" fill-opacity="0.18" stroke="#000" stroke-width="1"/>
  <path d="M670.957335 182.666203 L648.406649 183.320426 L649.958465 179.268956 L630.338591 181.974926 L632.821496 175.492574 L610.408353 185.491189 L617.236344 167.664722 L604.271641 162.698911 L607.995999 152.975384 L620.960702 157.941195 L627.788692 140.114728 L637.787307 162.527871 L640.270213 156.045520 L653.062097 171.166017 L654.613913 167.114547 Z" fill="#888" fill-opacity="0.18" stroke="#000" stroke-width="1"/>
  <path d="M597.661760 151.338847 L620.122845 149.226707 L618.836458 153.370106 L638.240102 149.400177 L636.181883 156.029614 L657.901023 144.601568 L652.240921 162.832520 L665.499795 166.948958 L662.412467 176.893114 L649.153593 172.776676 L643.493491 191.007628 L632.065445 169.288488 L630.007226 175.917925 L616.263684 161.656902 L614.977297 165.800300 Z" fill="#888" fill-opacity="0.18" stroke="#000" stroke-width="1"/>
  <path d="M651.420697 129.442805 L673.404520 134.509659 L670.879056 138.037346 L690.545822 140.378291 L686.505080 146.022590 L710.717681 142.013700 L699.605640 157.535520 L710.894236 165.617005 L704.833123 174.083452 L693.544526 166.001967 L682.432485 181.523788 L678.423595 157.311186 L674.382853 162.955484 L665.828128 145.092718 L663.302664 148.620405 Z" fill="#888" fill-opacity="0.18" stroke="#000" stroke-width="1"/>
  <path d="M752.325620 216.693708 L736.252578 200.862764 L740.251640 199.180489 L724.724605 186.885249 L731.123103 184.193609 L708.397759 174.926463 L725.993628 167.524454 L720.610348 154.727458 L730.208095 150.689998 L735.591375 163.486994 L753.187244 156.084984 L743.920099 178.810329 L750.318597 176.118689 L748.249762 195.815939 L752.248823 194.133664 Z" fill="#888" fill-opacity="0.18" stroke="#000" stroke-width="1"/>
  <path d="M211.032321 218.663325 L190.124414 227.138047 L190.166468 222.799755 L172.720784 232.175778 L172.788071 225.234512 L155.266688 242.419460 L155.451727 223.330978 L141.569195 223.196404 L141.670126 212.784505 L155.552658 212.919079 L155.737698 193.830598 L172.922645 211.351980 L172.989932 204.410714 L190.250577 214.123173 L190.292632 209.784882 Z" fill="#888" fill-opacity="0.18" stroke="#000" stroke-width="1"/>
  <path d="M149.057639 268.068280 L158.043688 247.374987 L161.052405 250.500712 L166.936130 231.589247 L171.750078 236.590408 L172.218112 212.052637 L185.456467 225.805830 L195.458789 216.177936 L202.679710 223.679677 L192.677388 233.307572 L205.915743 247.060765 L181.377972 246.592731 L186.191920 251.593892 L167.069839 256.752164 L170.078556 259.877889 Z" fill="#888" fill-opacity="0.18" stroke="#000" stroke-width="1"/>
  <path d="M273.494870 268.186061 L254.920985 255.380896 L258.567899 253.030884 L241.144640 243.613252 L246.979703 239.853234 L222.991999 234.665623 L239.038422 224.325571 L231.518384 212.655446 L240.270978 207.015417 L247.791016 218.685543 L263.837439 208.345491 L258.649829 232.333196 L264.484892 228.573177 L265.861728 248.330860 L269.508642 245.980848 Z" fill="#888" fill-opacity="0.18" stroke="#000" stroke-width="1"/>
  <path d="M249.817530 180.040791 L266.865752 194.816433 L262.981894 196.749872 L279.260137 208.031739 L273.045964 211.125241 L296.315152 218.926919 L279.226176 227.434049 L285.413180 239.862396 L276.091920 244.502649 L269.904916 232.074302 L252.815940 240.581433 L260.617618 217.312245 L254.403445 220.405747 L255.214178 200.616749 L251.330320 202.550188 Z" fill="#888" fill-opacity="0.18" stroke="#000" stroke-width="1"/>
  <path d="M334.911627 235.770389 L313.761179 243.620232 L313.932098 239.285105 L296.215568 248.138708 L296.489038 241.202505 L278.464854 257.859337 L279.216898 238.784778 L265.344492 238.237837 L265.754697 227.833532 L279.627104 228.380473 L280.379147 209.305914 L297.035979 227.330099 L297.309450 220.393895 L314.273936 230.614851 L314.444855 226.279724 Z" fill="#888" fill-opacity="0.18" stroke="#000" stroke-width="1"/>
  <path d="M344.243197 262.831240 L346.769565 240.412968 L350.562278 242.519592 L350.644805 222.714165 L356.713146 226.084764 L349.968789 202.487414 L366.656728 211.756560 L373.397924 199.619877 L382.500436 204.675774 L375.759240 216.812457 L392.447179 226.081603 L368.849829 232.825960 L374.918171 236.196559 L358.147705 246.732840 L361.940419 248.839464 Z" fill="#888" fill-opacity="0.18" stroke="#000" stroke-width="1"/>
  <path d="M356.539112 185.423233 L377.928888 192.595331 L375.073650 195.861852 L394.421256 200.096455 L389.852877 205.322889 L414.339910 203.677754 L401.776865 218.050446 L412.229733 227.187206 L405.377163 235.026856 L394.924296 225.890097 L382.361251 240.262789 L380.716117 215.775756 L376.147737 221.002189 L369.363175 202.394894 L366.507938 205.661415 Z" fill="#888" fill-opacity="0.18" stroke="#000" stroke-width="1"/>
  <path d="M416.474211 180.839785 L433.939628 195.119865 L430.112882 197.164016 L446.708327 207.973869 L440.585533 211.244510 L464.069121 218.374892 L447.231438 227.369155 L453.772721 239.614743 L444.588530 244.520706 L438.047247 232.275118 L421.209563 241.269381 L428.339945 217.785793 L422.217151 221.056434 L422.459389 201.252317 L418.632643 203.296468 Z" fill="#888" fill-opacity="0.18" stroke="#000" stroke-width="1"/>
  <path d="M441.316721 212.855487 L463.439222 208.433221 L462.587960 212.687383 L481.477383 206.733275 L480.115364 213.539934 L500.537059 199.928335 L496.791507 218.646647 L510.404824 221.370685 L508.361796 231.580673 L494.748478 228.856635 L491.002925 247.574947 L477.391326 227.153252 L476.029307 233.959911 L460.885436 221.195707 L460.034174 225.449869 Z" fill="#888" fill-opacity="0.18" stroke="#000" stroke-width="1"/>
  <path d="M540.777196 173.035007 L543.858514 195.383765 L539.663371 194.277729 L544.468546 213.491579 L537.756316 211.721923 L550.112749 232.926636 L531.654119 228.060082 L528.114807 241.484540 L518.046463 238.830056 L521.585775 225.405598 L503.127146 220.539043 L524.331858 208.182611 L517.619629 206.412955 L531.273085 192.065659 L527.077941 190.959624 Z" fill="#888" fill-opacity="0.18" stroke="#000" stroke-width="1"/>
  <path d="M632.908639 216.147264 L613.573489 227.771095 L612.940201 223.479069 L597.165329 235.454674 L596.152070 228.587433 L581.517115 248.288685 L578.730651 229.403771 L564.996168 231.430290 L563.476279 221.129428 L577.210762 219.102909 L574.424298 200.217995 L594.125551 214.852950 L593.112291 207.985708 L611.673627 214.895017 L611.040340 210.602991 Z" fill="#888" fill-opacity="0.18" stroke="#000" stroke-width="1"/>
  <path d="M630.025421 163.997581 L629.473521 186.551004 L625.510776 184.784881 L627.164324 204.521332 L620.823932 201.695535 L629.610421 224.611008 L612.174342 216.840067 L606.522749 229.520852 L597.012160 225.282157 L602.663753 212.601372 L585.227675 204.830431 L608.143147 196.043942 L601.802755 193.218145 L617.585286 181.252635 L613.622541 179.486512 Z" fill="#888" fill-opacity="0.18" stroke="#000" stroke-width="1"/>
  <path d="M709.839143 243.322705 L687.622107 239.402912 L689.961200 235.748985 L670.199487 234.431251 L673.942036 228.584968 L649.969955 233.844303 L660.261966 217.767025 L648.569399 210.281926 L654.183223 201.512502 L665.875789 208.997600 L676.167799 192.920321 L681.427135 216.892402 L685.169684 211.046119 L694.639387 228.441131 L696.978480 224.787204 Z" fill="#888" fill-opacity="0.18" stroke="#000" stroke-width="1"/>
  <path d="M725.593860 277.015682 L707.433054 263.631117 L711.152267 261.397288 L694.034681 251.434860 L699.985423 247.860733 L676.173253 241.919197 L692.537791 232.090348 L685.389538 220.188866 L694.315650 214.827676 L701.463903 226.729158 L717.828441 216.900310 L711.886905 240.712480 L717.837646 237.138353 L718.590694 256.929630 L722.309907 254.695801 Z" fill="#888" fill-opacity="0.18" stroke="#000" stroke-width="1"/>
  <path d="M785.020447 242.418502 L762.520996 244.072639 L763.891523 239.956306 L744.411033 243.530131 L746.603876 236.943999 L724.656437 247.927223 L730.686755 229.815358 L717.514490 225.429672 L720.803754 215.550474 L733.976020 219.936159 L740.006337 201.824295 L750.989562 223.771733 L753.182404 217.185601 L766.632577 231.723640 L768.003104 227.607308 Z" fill="#888" fill-opacity="0.18" stroke="#000" stroke-width="1"/>
  <path d="M138.999765 328.908855 L128.638493 308.868758 L132.962273 308.511734 L122.021863 292.002065 L128.939911 291.430828 L110.216698 275.563801 L129.241330 273.992898 L128.098855 260.156802 L138.475928 259.299946 L139.618402 273.136042 L158.643034 271.565140 L142.776008 290.288353 L149.694056 289.717116 L141.609833 307.797688 L145.933613 307.440664 Z" fill="#888" fill-opacity="0.18" stroke="#000" stroke-width="1"/>
  <path d="M163.515127 325.161768 L172.792085 304.597247 L175.756426 307.765088 L181.906242 288.938472 L186.649188 294.007019 L187.463190 269.478287 L200.506291 283.416790 L210.643385 273.930899 L217.757803 281.533719 L207.620710 291.019611 L220.663811 304.958114 L196.135080 304.144112 L200.878026 309.212659 L181.685108 314.100772 L184.649449 317.268613 Z" fill="#888" fill-opacity="0.18" stroke="#000" stroke-width="1"/>
  <path d="M288.212070 250.055611 L275.412458 268.633323 L273.061356 264.987111 L263.648933 282.413184 L259.887170 276.579246 L254.706730 300.568500 L244.361882 284.525168 L232.694005 292.048694 L227.051361 283.297786 L238.719238 275.774260 L228.374390 259.730929 L252.363644 264.911368 L248.601881 259.077429 L268.359152 257.694688 L266.008050 254.048476 Z" fill="#888" fill-opacity="0.18" stroke="#000" stroke-width="1"/>
  <path d="M274.332662 223.951075 L282.364731 245.032994 L278.028290 244.899492 L287.034450 262.538960 L280.096145 262.325356 L296.907897 280.205128 L277.827559 279.617717 L277.400351 293.494327 L266.992894 293.173921 L267.420102 279.297311 L248.339763 278.709900 L266.219535 261.898148 L259.281230 261.684544 L269.355409 244.632487 L265.018969 244.498985 Z" fill="#888" fill-opacity="0.18" stroke="#000" stroke-width="1"/>
  <path d="M261.090566 286.613317 L280.126951 274.506396 L280.868092 278.781118 L296.336470 266.412166 L297.522296 273.251721 L311.656621 253.188268 L314.917641 271.997046 L328.596752 269.625395 L330.375490 279.884728 L316.696379 282.256379 L319.957400 301.065157 L299.893947 286.930832 L301.079773 293.770388 L282.350374 287.330563 L283.091515 291.605285 Z" fill="#888" fill-opacity="0.18" stroke="#000" stroke-width="1"/>
  <path d="M413.152314 259.307355 L400.156807 277.748566 L397.844426 274.077676 L388.248107 291.403160 L384.548296 285.529737 L379.114264 309.462822 L368.939785 293.310908 L357.192938 300.710529 L351.643222 291.900394 L363.390069 284.500772 L353.215590 268.348858 L377.148675 273.782890 L373.448864 267.909467 L393.219663 266.735897 L390.907281 263.065008 Z" fill="#888" fill-opacity="0.18" stroke="#000" stroke-width="1"/>
  <path d="M408.653978 230.880484 L414.627923 252.635333 L410.324256 252.086710 L417.597833 270.508350 L410.711965 269.630553 L425.732143 289.039714 L406.796007 286.625774 L405.040414 300.397509 L394.711612 299.080815 L396.467205 285.309079 L377.531069 282.895139 L396.940230 267.874960 L390.054362 266.997164 L401.716921 250.989465 L397.413254 250.440842 Z" fill="#888" fill-opacity="0.18" stroke="#000" stroke-width="1"/>
  <path d="M490.476962 327.827600 L470.465228 317.411652 L473.794370 314.629684 L455.342382 307.433444 L460.669011 302.982294 L436.224566 300.793598 L450.872794 288.552936 L441.970494 277.899680 L449.960437 271.222955 L458.862736 281.876212 L473.510964 269.635550 L471.322267 294.079995 L476.648895 289.628845 L480.452656 309.065747 L483.781798 306.283778 Z" fill="#888" fill-opacity="0.18" stroke="#000" stroke-width="1"/>
  <path d="M492.442543 227.140213 L502.363911 247.401702 L498.033368 247.664261 L508.610797 264.408803 L501.681929 264.828897 L520.054336 281.100834 L500.999946 282.256093 L501.840134 296.113830 L491.446831 296.743971 L490.606643 282.886234 L471.552254 284.041492 L487.824191 265.669085 L480.895322 266.089179 L489.372282 248.189378 L485.041739 248.451937 Z" fill="#888" fill-opacity="0.18" stroke="#000" stroke-width="1"/>
  <path d="M504.284267 335.065798 L501.948784 312.626837 L506.104774 313.871941 L501.942010 294.508751 L508.591595 296.500917 L496.948048 274.896540 L515.234406 280.374996 L519.218738 267.075827 L529.193115 270.064076 L525.208783 283.363245 L543.495141 288.841702 L521.890764 300.485249 L528.540349 302.477415 L514.416755 316.362148 L518.572746 317.607252 Z" fill="#888" fill-opacity="0.18" stroke="#000" stroke-width="1"/>
  <path d="M601.281200 233.852416 L599.762140 256.361390 L595.878820 254.426869 L596.684040 274.216092 L590.470729 271.120859 L598.265924 294.392219 L581.179319 285.880329 L574.988853 298.306951 L565.668886 293.664101 L571.859353 281.237479 L554.772747 272.725588 L578.044107 264.930393 L571.830796 261.835160 L588.112182 250.557828 L584.228862 248.623307 Z" fill="#888" fill-opacity="0.18" stroke="#000" stroke-width="1"/>
  <path d="M593.104573 325.178819 L594.123703 302.641675 L598.049000 304.489534 L596.804784 284.723056 L603.085259 287.679631 L594.775509 264.587007 L612.046815 272.717587 L617.959965 260.156637 L627.380677 264.591499 L621.467528 277.152449 L638.738834 285.283030 L615.646209 293.592781 L621.926684 296.549356 L605.899594 308.185253 L609.824891 310.033112 Z" fill="#888" fill-opacity="0.18" stroke="#000" stroke-width="1"/>
  <path d="M627.726042 333.437263 L633.919136 311.743783 L637.311981 314.447696 L640.663375 294.927709 L646.091926 299.253970 L643.336201 274.866940 L658.264717 286.764158 L666.917239 275.907055 L675.060065 282.396447 L666.407543 293.253549 L681.336059 305.150767 L656.949029 307.906492 L662.377580 312.232753 L644.097670 319.855522 L647.490514 322.559435 Z" fill="#888" fill-opacity="0.18" stroke="#000" stroke-width="1"/>
  <path d="M645.889114 262.907462 L668.367786 260.991535 L667.045268 265.123542 L686.482838 261.323199 L684.366809 267.934411 L706.184911 256.696454 L700.365831 274.877286 L713.588255 279.109345 L710.414211 289.026163 L697.191787 284.794104 L691.372707 302.974937 L680.134750 281.156834 L678.018721 287.768046 L664.400232 273.387557 L663.077713 277.519564 Z" fill="#888" fill-opacity="0.18" stroke="#000" stroke-width="1"/>
  <path d="M682.525868 274.936017 L704.192658 268.650185 L703.705913 272.961289 L722.021169 265.423840 L721.242377 272.321607 L740.433773 257.024170 L738.292095 275.993028 L752.087628 277.550612 L750.919440 287.897262 L737.123907 286.339678 L734.982229 305.308537 L719.684793 286.117140 L718.906001 293.014906 L702.732423 281.583497 L702.245678 285.894601 Z" fill="#888" fill-opacity="0.18" stroke="#000" stroke-width="1"/>
  <path d="M193.288680 393.573762 L174.011249 381.854456 L177.517445 379.299239 L159.582948 370.895933 L165.192861 366.807586 L140.947212 363.003670 L156.374473 351.760717 L148.197780 340.540891 L156.612650 334.408371 L164.789343 345.628197 L180.216604 334.385245 L176.412687 358.630893 L182.022600 354.542547 L184.529836 374.188806 L188.036032 371.633589 Z" fill="#888" fill-opacity="0.18" stroke="#000" stroke-width="1"/>
  <path d="M165.986936 293.039016 L185.967057 303.515478 L182.629510 306.287359 L201.059636 313.539408 L195.719561 317.974417 L220.157270 320.237080 L205.472065 332.433355 L214.342084 343.113504 L206.331972 349.766018 L197.461954 339.085869 L182.776749 351.282144 L185.039412 326.844435 L179.699338 331.279444 L175.954417 311.831121 L172.616871 314.603001 Z" fill="#888" fill-opacity="0.18" stroke="#000" stroke-width="1"/>
  <path d="M293.705920 375.049497 L271.214517 373.289314 L273.190541 369.426948 L253.393825 370.020058 L256.555464 363.840272 L233.201905 371.385640 L241.896410 354.391231 L229.536840 348.067954 L234.279297 338.798276 L246.638867 345.121553 L255.333372 328.127143 L262.878740 351.480702 L266.040378 345.300917 L277.142589 361.702217 L279.118613 357.839851 Z" fill="#888" fill-opacity="0.18" stroke="#000" stroke-width="1"/>
  <path d="M302.973717 285.632762 L304.644302 308.130997 L300.526969 306.763480 L304.115035 326.241353 L297.527301 324.053325 L308.526568 345.992728 L290.410299 339.975653 L286.034245 353.151121 L276.152644 349.869080 L280.528698 336.693613 L262.412430 330.676538 L284.351833 319.677271 L277.764099 317.489244 L292.292301 304.028446 L288.174968 302.660929 Z" fill="#888" fill-opacity="0.18" stroke="#000" stroke-width="1"/>
  <path d="M346.269442 291.087356 L343.563843 313.484704 L339.788101 311.347811 L339.547164 331.151944 L333.505976 327.732916 L340.061376 351.383455 L323.448110 341.981129 L316.610054 354.063504 L307.548272 348.934962 L314.386328 336.852587 L297.773062 327.450260 L321.423601 320.894860 L315.382413 317.475832 L332.236616 307.074026 L328.460874 304.937134 Z" fill="#888" fill-opacity="0.18" stroke="#000" stroke-width="1"/>
  <path d="M315.590072 333.338369 L337.244515 327.010133 L336.766211 331.322182 L355.066676 323.748892 L354.301388 330.648170 L373.462801 315.313193 L371.358262 334.286208 L385.156818 335.816782 L384.008887 346.165699 L370.210331 344.635125 L368.105791 363.608139 L352.770814 344.446726 L352.005527 351.346004 L335.809602 339.946279 L335.331297 344.258328 Z" fill="#888" fill-opacity="0.18" stroke="#000" stroke-width="1"/>
  <path d="M367.216070 294.797649 L387.053640 305.541592 L383.679155 308.268384 L402.010188 315.767380 L396.611013 320.130247 L421.016119 322.721018 L406.168386 334.718902 L414.894120 345.517253 L406.795357 352.061553 L398.069623 341.263202 L383.221891 353.261086 L385.812662 328.855981 L380.413487 333.218847 L376.930186 313.721967 L373.555701 316.448759 Z" fill="#888" fill-opacity="0.18" stroke="#000" stroke-width="1"/>
  <path d="M482.572564 312.308009 L470.397329 331.300774 L467.926367 327.734699 L459.098184 345.463909 L455.144645 339.758190 L450.764193 363.906335 L439.891962 348.215606 L428.480523 356.122683 L422.550215 347.564104 L433.961654 339.657027 L423.089424 323.966298 L447.237569 328.346751 L443.284030 322.641031 L462.984444 320.602550 L460.513483 317.036475 Z" fill="#888" fill-opacity="0.18" stroke="#000" stroke-width="1"/>
  <path d="M523.242214 381.173920 L502.698054 371.851959 L505.872378 368.894561 L487.059272 362.703538 L492.138191 357.971701 L467.611301 357.103996 L481.578329 344.091444 L472.114655 333.933606 L479.733033 326.835850 L489.196707 336.993689 L503.163735 323.981137 L502.296030 348.508027 L507.374949 343.776191 L512.221027 362.979764 L515.395352 360.022366 Z" fill="#888" fill-opacity="0.18" stroke="#000" stroke-width="1"/>
  <path d="M585.035533 283.234959 L566.363046 295.895911 L565.496641 291.644808 L550.398319 304.462857 L549.012070 297.661091 L535.473277 318.131127 L531.661094 299.426271 L518.057562 302.198768 L515.978190 291.996119 L529.581721 289.223622 L525.769538 270.518767 L546.239573 284.057560 L544.853325 277.255794 L563.763831 283.142601 L562.897425 278.891497 Z" fill="#888" fill-opacity="0.18" stroke="#000" stroke-width="1"/>
  <path d="M559.053535 295.876049 L573.876136 312.883458 L569.760723 314.256745 L584.307777 327.697166 L577.723117 329.894425 L599.677914 340.862931 L581.570097 346.905391 L585.964614 360.074713 L576.087623 363.370600 L571.693106 350.201279 L553.585289 356.243739 L564.553795 334.288941 L557.969134 336.486200 L561.529897 317.003318 L557.414484 318.376604 Z" fill="#888" fill-opacity="0.18" stroke="#000" stroke-width="1"/>
  <path d="M624.752869 387.113784 L610.994925 369.234175 L615.186420 368.114392 L601.486002 353.811935 L608.192393 352.020283 L586.947285 339.733434 L605.389862 334.806392 L601.806558 321.393609 L611.866145 318.706132 L615.449449 332.118914 L633.892025 327.191872 L621.605176 348.436980 L628.311568 346.645328 L623.569409 365.874828 L627.760903 364.755045 Z" fill="#888" fill-opacity="0.18" stroke="#000" stroke-width="1"/>
  <path d="M659.195574 292.657359 L667.448527 313.653793 L663.110924 313.565824 L672.301774 331.109769 L665.361608 330.969018 L682.360144 348.671308 L663.274690 348.284243 L662.993188 362.164573 L652.582940 361.953446 L652.864442 348.073116 L633.778988 347.686051 L651.481278 330.687516 L644.541113 330.546765 L654.435718 313.389885 L650.098114 313.301916 Z" fill="#888" fill-opacity="0.18" stroke="#000" stroke-width="1"/>
  <path d="M651.718810 292.152883 L672.499610 300.934674 L669.403670 303.974032 L688.372171 309.671200 L683.418668 314.534174 L707.959859 314.760497 L694.337726 328.133674 L704.063673 338.040680 L696.633419 345.335140 L686.907472 335.428135 L673.285340 348.801312 L673.511662 324.260121 L668.558160 329.123095 L663.211792 310.052749 L660.115853 313.092108 Z" fill="#888" fill-opacity="0.18" stroke="#000" stroke-width="1"/>
  <path d="M704.139319 395.603555 L705.922388 373.113955 L709.782741 375.093908 L709.209776 355.296599 L715.386341 358.464524 L707.864741 335.103299 L724.850294 343.815093 L731.186144 331.461963 L740.450991 336.213850 L734.115142 348.566980 L751.100695 357.278773 L727.739471 364.800373 L733.916036 367.968298 L717.503447 379.053814 L721.363800 381.033767 Z" fill="#888" fill-opacity="0.18" stroke="#000" stroke-width="1"/>
  <path d="M119.792786 449.224511 L125.846665 427.491770 L129.256776 430.173874 L132.482949 410.632801 L137.939127 414.924168 L135.027100 390.555307 L150.031588 402.356566 L158.614322 391.444211 L166.798588 397.881261 L158.215854 408.793616 L173.220342 420.594875 L148.851481 423.506902 L154.307659 427.798268 L136.076998 435.538083 L139.487109 438.220187 Z" fill="#888" fill-opacity="0.18" stroke="#000" stroke-width="1"/>
  <path d="M176.102178 451.114109 L179.342463 428.787846 L183.066039 431.014395 L183.780370 411.221683 L189.738091 414.784162 L183.749986 390.983661 L200.133720 400.780478 L207.258678 388.865036 L216.195260 394.208754 L209.070302 406.124197 L225.454035 415.921015 L201.653534 421.909120 L207.611256 425.471599 L190.513191 435.467494 L194.236767 437.694044 Z" fill="#888" fill-opacity="0.18" stroke="#000" stroke-width="1"/>
  <path d="M241.345275 339.883813 L247.971376 361.448976 L243.653145 361.030151 L251.477952 379.224494 L244.568781 378.554373 L260.166406 397.502602 L241.166187 395.659769 L239.825945 409.478111 L229.462189 408.472929 L230.802431 394.654588 L211.802211 392.811756 L230.750440 377.214131 L223.841269 376.544010 L235.016681 360.192500 L230.698450 359.773674 Z" fill="#888" fill-opacity="0.18" stroke="#000" stroke-width="1"/>
  <path d="M297.782835 342.831456 L299.310597 365.339841 L295.202026 363.946220 L298.666399 383.446473 L292.092685 381.216679 L302.952487 403.225449 L284.874772 397.093517 L280.415185 410.240946 L270.554613 406.896255 L275.014200 393.748826 L256.936486 387.616894 L278.945256 376.757092 L272.371541 374.527298 L286.984883 361.158978 L282.876311 359.765357 Z" fill="#888" fill-opacity="0.18" stroke="#000" stroke-width="1"/>
  <path d="M316.419218 351.330195 L325.015972 372.188223 L320.677509 372.171520 L330.155317 389.562117 L323.213776 389.535393 L340.500818 406.956055 L321.411581 406.882564 L321.358133 420.765645 L310.945822 420.725560 L310.999270 406.842478 L291.910033 406.768987 L309.330695 389.481945 L302.389154 389.455221 L312.000583 372.138115 L307.662120 372.121413 Z" fill="#888" fill-opacity="0.18" stroke="#000" stroke-width="1"/>
  <path d="M326.199548 362.827294 L346.966426 371.641954 L343.865682 374.676410 L362.825145 380.403583 L357.863954 385.258713 L382.404756 385.523864 L368.761482 398.875472 L378.471742 408.797853 L371.029956 416.080549 L361.319696 406.158167 L347.676422 419.509775 L347.941573 394.968973 L342.980382 399.824103 L337.664194 380.745323 L334.563450 383.779779 Z" fill="#888" fill-opacity="0.18" stroke="#000" stroke-width="1"/>
  <path d="M394.505053 351.055236 L404.712677 371.174030 L400.386292 371.497958 L411.200050 388.090858 L404.277834 388.609143 L422.879086 404.618973 L403.842991 406.044255 L404.879559 419.888689 L394.496234 420.666115 L393.459666 406.821682 L374.423570 408.246964 L390.433401 389.645711 L383.511184 390.163996 L391.733521 372.145813 L387.407135 372.469741 Z" fill="#888" fill-opacity="0.18" stroke="#000" stroke-width="1"/>
  <path d="M491.021378 419.021719 L468.517954 420.620903 L469.898530 416.507930 L450.409370 420.034170 L452.618291 413.453412 L430.644095 424.383004 L436.718627 406.285920 L423.557112 401.868079 L426.870493 391.996942 L440.032008 396.414784 L446.106541 378.317701 L457.036132 400.291897 L459.245053 393.711139 L472.659681 408.281983 L474.040257 404.169010 Z" fill="#888" fill-opacity="0.18" stroke="#000" stroke-width="1"/>
  <path d="M450.002645 348.047504 L468.255813 361.305834 L464.552177 363.565395 L481.738423 373.408904 L475.812605 377.024203 L499.665397 382.800501 L483.369397 392.742572 L490.599995 404.594208 L481.711268 410.017156 L474.480671 398.165520 L458.184672 408.107592 L463.960970 384.254800 L458.035152 387.870099 L457.144905 368.084519 L453.441268 370.344080 Z" fill="#888" fill-opacity="0.18" stroke="#000" stroke-width="1"/>
  <path d="M566.595837 351.834637 L560.230020 373.478062 L556.858836 370.747190 L553.351953 390.239843 L547.958059 385.870448 L550.519307 410.278669 L535.686099 398.262834 L526.947309 409.050621 L518.856469 402.496529 L527.595258 391.708741 L512.762050 379.692906 L537.170272 377.131658 L531.776378 372.762263 L550.116469 365.285447 L546.745285 362.554575 Z" fill="#888" fill-opacity="0.18" stroke="#000" stroke-width="1"/>
  <path d="M588.042225 449.407579 L573.872875 431.852210 L578.037242 430.635415 L564.008455 416.654898 L570.671441 414.708025 L549.146794 402.917740 L567.470007 397.563841 L563.576263 384.237868 L573.570742 381.317559 L577.464487 394.643532 L595.787700 389.289634 L583.997414 410.814281 L590.660401 408.867408 L586.365975 428.201824 L590.530342 426.985029 Z" fill="#888" fill-opacity="0.18" stroke="#000" stroke-width="1"/>
  <path d="M653.377348 375.228347 L641.826653 394.607277 L639.240948 391.123505 L630.994412 409.130625 L626.857283 403.556590 L623.265017 427.834499 L611.887913 412.505902 L600.739843 420.780160 L594.534150 412.419107 L605.682220 404.144850 L594.305116 388.816253 L618.583026 392.408519 L614.445897 386.834484 L634.069537 384.155961 L631.483832 380.672189 Z" fill="#888" fill-opacity="0.18" stroke="#000" stroke-width="1"/>
  <path d="M623.267031 444.650968 L631.644398 423.703863 L634.743191 426.740312 L640.071640 407.664952 L645.029709 412.523270 L644.780330 387.982302 L658.415021 401.342676 L668.131656 391.426537 L675.568760 398.714014 L665.852125 408.630152 L679.486815 421.990526 L654.945848 422.239905 L659.903917 427.098223 L640.940778 432.813209 L644.039571 435.849658 Z" fill="#888" fill-opacity="0.18" stroke="#000" stroke-width="1"/>
  <path d="M800.208901 389.945259 L778.522741 383.726583 L781.230654 380.336930 L761.714634 376.962515 L766.047295 371.539070 L741.657031 374.266030 L753.571848 359.351557 L742.724959 350.686235 L749.223950 342.551068 L760.070839 351.216390 L771.985656 336.301917 L774.712616 360.692181 L779.045277 355.268736 L786.646480 373.557624 L789.354393 370.167971 Z" fill="#888" fill-opacity="0.18" stroke="#000" stroke-width="1"/>
  <path d="M687.892393 427.494567 L699.452579 408.121297 L702.036578 411.606336 L710.291934 393.603258 L714.426332 399.179319 L718.030491 374.903172 L729.400084 390.237340 L740.552206 381.968545 L746.753803 390.332637 L735.601680 398.601432 L746.971274 413.935600 L722.695127 410.331441 L726.829524 415.907502 L707.204575 418.576412 L709.788573 422.061450 Z" fill="#888" fill-opacity="0.18" stroke="#000" stroke-width="1"/>
  <path d="M101.358755 463.959835 L121.115614 453.068188 L121.587736 457.380918 L137.799987 446.004422 L138.555383 452.904790 L153.917813 433.765380 L155.995152 452.741392 L169.795888 451.230600 L170.928982 461.581152 L157.128246 463.091944 L159.205585 482.067956 L140.066175 466.705526 L140.821571 473.605894 L122.531981 466.006378 L123.004104 470.319108 Z" fill="#888" fill-opacity="0.18" stroke="#000" stroke-width="1"/>
  <path d="M207.352159 510.136577 L194.118262 491.865686 L198.340454 490.867871 L185.060371 476.174297 L191.815878 474.577793 L170.935849 461.680286 L189.513493 457.289899 L186.320485 443.778885 L196.453745 441.384128 L199.646754 454.895142 L218.224398 450.504755 L205.326892 471.384784 L212.082399 469.788279 L206.784838 488.872241 L211.007030 487.874425 Z" fill="#888" fill-opacity="0.18" stroke="#000" stroke-width="1"/>
  <path d="M250.880480 397.719964 L255.178557 419.866928 L250.929238 418.991811 L256.777271 437.914343 L249.978361 436.514156 L263.475169 457.011899 L244.778166 453.161384 L241.977792 466.759204 L231.779427 464.658924 L234.579801 451.061103 L215.882798 447.210589 L236.380541 433.713782 L229.581631 432.313595 L242.430600 417.241577 L238.181282 416.366460 Z" fill="#888" fill-opacity="0.18" stroke="#000" stroke-width="1"/>
  <path d="M294.426449 406.905497 L297.736319 429.221550 L293.530077 428.158506 L298.531631 447.322174 L291.801643 445.621302 L304.374434 466.698451 L285.866968 462.021054 L282.465224 475.481030 L272.370243 472.929723 L275.771986 459.469747 L257.264519 454.792350 L278.341668 442.219559 L271.611680 440.518687 L285.117592 426.032416 L280.911350 424.969371 Z" fill="#888" fill-opacity="0.18" stroke="#000" stroke-width="1"/>
  <path d="M295.814071 409.985606 L310.051760 427.485597 L305.892169 428.718620 L319.975359 442.644333 L313.320014 444.617169 L334.890467 456.323442 L316.588267 461.748741 L320.533939 475.059432 L310.550921 478.018686 L306.605250 464.707995 L288.303050 470.133294 L300.009323 448.562841 L293.353978 450.535677 L297.572988 431.184665 L293.413397 432.417687 Z" fill="#888" fill-opacity="0.18" stroke="#000" stroke-width="1"/>
  <path d="M407.428079 355.205430 L411.508766 377.393477 L407.268233 376.476732 L412.930424 395.455702 L406.145572 393.988910 L419.440721 414.618022 L400.782377 410.584343 L397.848792 424.154047 L387.671513 421.953858 L390.605099 408.384154 L371.946755 404.350474 L392.575867 391.055325 L385.791015 389.588532 L398.787168 374.643241 L394.546635 373.726496 Z" fill="#888" fill-opacity="0.18" stroke="#000" stroke-width="1"/>
  <path d="M356.951250 421.186151 L377.649780 430.160129 L374.525810 433.170669 L393.440703 439.043364 L388.442351 443.860227 L412.980390 444.313950 L399.234921 457.560324 L408.868647 467.557030 L401.371118 474.782325 L391.737392 464.785619 L377.991922 478.031994 L378.445645 453.493954 L373.447293 458.310817 L368.277869 439.191748 L365.153899 442.202288 Z" fill="#888" fill-opacity="0.18" stroke="#000" stroke-width="1"/>
  <path d="M404.106735 426.154117 L426.571863 428.222809 L424.543018 432.057692 L444.346009 431.736331 L441.099856 437.872143 L464.554769 430.647993 L455.627850 447.521478 L467.899475 454.013783 L463.030246 463.217502 L450.758621 456.725196 L441.831701 473.598681 L434.607551 450.143768 L431.361399 456.279581 L420.485327 439.727457 L418.456482 443.562340 Z" fill="#888" fill-opacity="0.18" stroke="#000" stroke-width="1"/>
  <path d="M453.324182 414.065603 L474.419893 422.061380 L471.440190 425.214777 L490.609124 430.196113 L485.841600 435.241549 L510.373998 434.546770 L497.263307 448.421717 L507.354178 457.956765 L500.202892 465.524918 L490.112021 455.989870 L477.001331 469.864817 L476.306552 445.332419 L471.539028 450.377855 L465.480785 431.521571 L462.501083 434.674968 Z" fill="#888" fill-opacity="0.18" stroke="#000" stroke-width="1"/>
  <path d="M486.166349 432.828681 L507.940154 438.733163 L505.281533 442.161613 L524.844301 445.253508 L520.590507 450.739029 L544.938794 447.659713 L533.240860 462.744894 L544.211901 471.252483 L537.831210 479.480764 L526.860169 470.973175 L515.162235 486.058357 L512.082918 461.710070 L507.829124 467.195590 L499.964290 449.018514 L497.305668 452.446964 Z" fill="#888" fill-opacity="0.18" stroke="#000" stroke-width="1"/>
  <path d="M557.351521 403.513615 L572.801216 419.953457 L568.740172 421.480042 L583.780808 434.365731 L577.283138 436.808267 L599.633653 446.946104 L581.765059 453.663077 L586.650131 466.658418 L576.903625 470.322221 L572.018554 457.326880 L554.149960 464.043854 L564.287797 441.693338 L557.790126 444.135874 L560.618084 424.533211 L556.557040 426.059796 Z" fill="#888" fill-opacity="0.18" stroke="#000" stroke-width="1"/>
  <path d="M579.322163 495.323608 L588.921974 474.907803 L591.836036 478.121956 L598.281712 459.394570 L602.944211 464.537215 L604.144575 440.024353 L616.966449 454.166627 L627.251739 444.841628 L634.245489 452.555595 L623.960199 461.880595 L636.782073 476.022868 L612.269211 474.822505 L616.931710 479.965150 L597.664161 484.550262 L600.578223 487.764415 Z" fill="#888" fill-opacity="0.18" stroke="#000" stroke-width="1"/>
  <path d="M716.149366 476.564367 L694.236078 481.928067 L694.904747 477.641411 L676.287050 484.397378 L677.356921 477.538728 L657.535619 492.010677 L660.477764 473.149389 L646.760464 471.009648 L648.365270 460.721673 L662.082570 462.861415 L665.024714 444.000127 L679.496662 463.821429 L680.566533 456.962779 L696.242085 469.068099 L696.910754 464.781443 Z" fill="#888" fill-opacity="0.18" stroke="#000" stroke-width="1"/>
  <path d="M705.009295 406.837655 L708.894340 429.060794 L704.662049 428.106724 L710.156809 447.134844 L703.385143 445.608331 L716.498027 466.353777 L697.875945 462.155868 L694.822920 475.699200 L684.665421 473.409432 L687.718446 459.866099 L669.096364 455.668190 L689.841811 442.555306 L683.070145 441.028794 L696.197467 426.198583 L691.965175 425.244513 Z" fill="#888" fill-opacity="0.18" stroke="#000" stroke-width="1"/>
  <path d="M792.198419 487.951715 L769.866297 484.752057 L772.086068 481.024436 L752.292089 480.346119 L755.843722 474.381925 L732.054156 480.413325 L741.821147 464.011794 L729.892761 456.908527 L735.220211 447.962237 L747.148597 455.065504 L756.915589 438.663972 L762.946989 462.453539 L766.498622 456.489345 L776.525610 473.569194 L778.745381 469.841574 Z" fill="#888" fill-opacity="0.18" stroke="#000" stroke-width="1"/>
  <path d="M60.806646 613.637144 L58.471163 591.198183 L62.627153 592.443287 L58.464389 573.080097 L65.113974 575.072263 L53.470427 553.467886 L71.756785 558.946343 L75.741117 545.647173 L85.715494 548.635422 L81.731162 561.934592 L100.017520 567.413048 L78.413143 579.056595 L85.062728 581.048761 L70.939134 594.933494 L75.095124 596.178598 Z" fill="#888" fill-opacity="0.18" stroke="#000" stroke-width="1"/>
  <path d="M179.517721 474.005565 L192.887766 492.177064 L188.673148 493.206399 L202.062649 507.800336 L195.319259 509.447272 L216.295073 522.188405 L197.750752 526.717480 L201.044624 540.204259 L190.929540 542.674663 L187.635668 529.187884 L169.091346 533.716958 L181.832480 512.741144 L175.089091 514.388080 L180.243911 495.265069 L176.029292 496.294404 Z" fill="#888" fill-opacity="0.18" stroke="#000" stroke-width="1"/>
  <path d="M270.304376 471.087178 L262.315669 492.185567 L259.161273 489.206921 L254.186361 508.377523 L249.139328 503.611691 L249.842328 528.143854 L235.962988 515.037814 L226.431323 525.131880 L218.860774 517.983131 L228.392439 507.889065 L214.513099 494.783025 L239.045263 494.080025 L233.998230 489.314192 L252.852482 483.249630 L249.698087 480.270985 Z" fill="#888" fill-opacity="0.18" stroke="#000" stroke-width="1"/>
  <path d="M325.081543 496.298125 L313.661549 515.754363 L311.052453 512.288075 L302.927309 530.350294 L298.752756 524.804232 L295.323985 549.105771 L283.843962 533.854100 L272.751838 542.203208 L266.490008 533.884115 L277.582132 525.535007 L266.102109 510.283337 L290.403648 513.712108 L286.229095 508.166046 L305.834261 505.355497 L303.225165 501.889208 Z" fill="#888" fill-opacity="0.18" stroke="#000" stroke-width="1"/>
  <path d="M344.213063 467.680251 L341.596363 490.088159 L337.812171 487.966267 L337.649823 507.771200 L331.595116 504.376172 L338.244314 528.000511 L321.593868 518.664184 L314.803812 530.773599 L305.721750 525.681057 L312.511807 513.571641 L295.861361 504.235314 L319.485700 497.586115 L313.430993 494.191087 L330.243786 483.722482 L326.459594 481.600589 Z" fill="#888" fill-opacity="0.18" stroke="#000" stroke-width="1"/>
  <path d="M399.748977 561.657236 L379.063272 552.653733 L382.191535 549.647654 L363.285040 543.747976 L368.290261 538.938250 L343.752893 538.449515 L357.517249 525.222767 L347.897796 515.212326 L355.405627 507.997736 L365.025080 518.008177 L378.789436 504.781429 L378.300702 529.318797 L383.305922 524.509070 L388.448060 543.635495 L391.576323 540.629416 Z" fill="#888" fill-opacity="0.18" stroke="#000" stroke-width="1"/>
  <path d="M355.593445 539.659721 L370.211519 522.476200 L372.180629 526.342095 L383.312165 509.960684 L386.462742 516.146116 L394.049879 492.806094 L402.713966 509.816031 L415.084830 503.514877 L419.810695 512.793025 L407.439832 519.094179 L416.103918 536.104116 L392.763897 528.516979 L395.914474 534.702411 L376.118851 534.073885 L378.087961 537.939780 Z" fill="#888" fill-opacity="0.18" stroke="#000" stroke-width="1"/>
  <path d="M475.151296 572.102180 L458.104083 557.325374 L461.988073 555.392201 L445.710600 544.109222 L451.924984 541.016144 L428.656329 533.212878 L445.745886 524.706914 L439.559730 512.278146 L448.881307 507.638529 L455.067462 520.067297 L472.157019 511.561334 L464.353753 534.829989 L470.568137 531.736911 L469.756053 551.525853 L473.640043 549.592680 Z" fill="#888" fill-opacity="0.18" stroke="#000" stroke-width="1"/>
  <path d="M429.382068 543.883864 L446.467965 529.151803 L447.819374 533.274452 L461.336870 518.798990 L463.499124 525.395228 L474.584084 503.498997 L480.530283 521.638652 L493.722759 517.314144 L496.966141 527.208501 L483.773664 531.533009 L489.719863 549.672664 L467.823632 538.587704 L469.985886 545.183942 L450.522191 541.519750 L451.873600 545.642399 Z" fill="#888" fill-opacity="0.18" stroke="#000" stroke-width="1"/>
  <path d="M468.899181 517.746032 L490.458249 511.100127 L490.043390 515.418741 L508.230538 507.577225 L507.566764 514.487009 L526.500658 498.871987 L524.675278 517.873891 L538.494845 519.201440 L537.499183 529.566115 L523.679616 528.238566 L521.854237 547.240470 L506.239215 528.306575 L505.575440 535.216359 L489.213672 524.055970 L488.798813 528.374585 Z" fill="#888" fill-opacity="0.18" stroke="#000" stroke-width="1"/>
  <path d="M576.189300 570.543978 L564.261844 551.394637 L568.543344 550.693709 L556.320331 535.109753 L563.170730 533.988267 L543.241018 519.665983 L562.079616 516.581898 L559.836645 502.881099 L570.112244 501.198870 L572.355216 514.899669 L591.193814 511.815584 L576.871529 531.745296 L583.721929 530.623811 L577.106343 549.291852 L581.387843 548.590923 Z" fill="#888" fill-opacity="0.18" stroke="#000" stroke-width="1"/>
  <path d="M583.194687 563.348388 L588.961081 541.537607 L592.406309 544.174450 L595.374182 524.592483 L600.886546 528.811432 L597.653009 504.483146 L612.812012 516.085258 L621.249912 505.060529 L629.518459 511.388954 L621.080559 522.413683 L636.239562 534.015795 L611.911276 537.249332 L617.423640 541.468282 L599.296764 549.448137 L602.741992 552.084981 Z" fill="#888" fill-opacity="0.18" stroke="#000" stroke-width="1"/>
  <path d="M674.628845 573.961641 L656.780005 560.163801 L660.549506 558.015918 L643.665072 547.663257 L649.696273 544.226644 L626.026737 537.740171 L642.612542 528.289486 L635.739316 516.227083 L644.786119 511.072164 L651.659344 523.134567 L668.245149 513.683882 L661.758677 537.353418 L667.789878 533.916806 L668.088508 553.720152 L671.858009 551.572269 Z" fill="#888" fill-opacity="0.18" stroke="#000" stroke-width="1"/>
  <path d="M677.117416 474.719953 L690.455604 492.914849 L686.239188 493.936798 L699.603099 508.554172 L692.856834 510.189291 L713.810293 522.967156 L695.258065 527.463732 L698.528303 540.956262 L688.408906 543.408940 L685.138668 529.916411 L666.586440 534.412987 L679.364305 513.459528 L672.618040 515.094647 L677.806357 495.980697 L673.589942 497.002646 Z" fill="#888" fill-opacity="0.18" stroke="#000" stroke-width="1"/>
  <path d="M708.733731 564.739115 L712.381086 542.475731 L716.063391 544.769890 L717.138957 524.993518 L723.030646 528.664174 L717.478063 504.758315 L733.680206 514.852616 L741.021516 503.069240 L749.859049 508.575222 L742.517738 520.358599 L758.719881 530.452901 L734.814022 536.005484 L740.705711 539.676139 L723.428001 549.358209 L727.110307 551.652369 Z" fill="#888" fill-opacity="0.18" stroke="#000" stroke-width="1"/>
  <path d="M170.274877 596.898200 L160.536808 617.248420 L157.644614 614.014575 L151.072060 632.697810 L146.444550 627.523657 L145.077944 652.027813 L132.352291 637.798894 L122.003987 647.053915 L115.062721 639.292686 L125.411026 630.037666 L112.685373 615.808747 L137.189529 617.175353 L132.562019 612.001200 L151.860226 607.546885 L148.968033 604.313040 Z" fill="#888" fill-opacity="0.18" stroke="#000" stroke-width="1"/>
  <path d="M231.140308 540.276067 L223.392773 561.464204 L220.204607 558.521732 L215.448683 577.747832 L210.347618 573.039877 L211.330392 597.562426 L197.302464 584.615549 L187.886554 594.817678 L180.234957 587.755746 L189.650868 577.553616 L175.622940 564.606740 L200.145489 563.623966 L195.044425 558.916011 L213.828277 552.636788 L210.640111 549.694316 Z" fill="#888" fill-opacity="0.18" stroke="#000" stroke-width="1"/>
  <path d="M271.472094 621.779114 L250.630350 613.142958 L253.704945 610.082010 L234.697041 604.517719 L239.616392 599.620201 L215.074219 599.565619 L228.602434 586.097444 L218.807398 576.258741 L226.186424 568.912464 L235.981461 578.751166 L249.509677 565.282991 L249.455095 589.825164 L254.374446 584.927646 L259.854134 603.960112 L262.928728 600.899163 Z" fill="#888" fill-opacity="0.18" stroke="#000" stroke-width="1"/>
  <path d="M237.530239 549.139725 L258.601126 557.200692 L255.611687 560.344861 L274.765127 565.385443 L269.982026 570.416114 L294.516455 569.797192 L281.362926 583.631535 L291.424266 593.197738 L284.249614 600.743743 L274.188273 591.177540 L261.034744 605.011883 L260.415823 580.477454 L255.632721 585.508124 L249.632811 566.633199 L246.643372 569.777368 Z" fill="#888" fill-opacity="0.18" stroke="#000" stroke-width="1"/>
  <path d="M293.444278 534.921415 L309.649023 550.617519 L305.664157 552.333147 L321.293374 564.498232 L314.917587 567.243236 L337.719564 576.320192 L320.186151 583.868954 L325.676159 596.620527 L316.112479 600.738033 L310.622471 587.986460 L293.089058 595.535221 L302.166014 572.733245 L295.790227 575.478249 L297.694424 555.764402 L293.709557 557.480029 Z" fill="#888" fill-opacity="0.18" stroke="#000" stroke-width="1"/>
  <path d="M311.939860 565.871465 L334.499659 565.741229 L332.854153 569.755560 L352.531588 567.506054 L349.898780 573.928983 L372.538124 564.453682 L365.297900 582.116738 L378.143759 587.382355 L374.194546 597.016749 L361.348687 591.751131 L354.108463 609.414187 L344.633162 586.774842 L342.000353 593.197771 L329.563142 577.784222 L327.917637 581.798552 Z" fill="#888" fill-opacity="0.18" stroke="#000" stroke-width="1"/>
  <path d="M357.656620 583.635310 L378.826160 575.837101 L378.644663 580.171798 L396.382744 571.361452 L396.092349 578.296967 L414.157125 561.684166 L413.358539 580.756833 L427.229569 581.337623 L426.793977 591.740896 L412.922947 591.160106 L412.124360 610.232773 L395.511560 592.167998 L395.221165 599.103513 L378.281669 588.841192 L378.100173 593.175889 Z" fill="#888" fill-opacity="0.18" stroke="#000" stroke-width="1"/>
  <path d="M493.535467 599.532164 L471.091560 597.244695 L473.157672 593.429761 L453.352490 593.558169 L456.658269 587.454274 L433.134085 594.449563 L442.224978 577.663853 L430.017189 571.052295 L434.975857 561.896454 L447.183646 568.508012 L456.274538 551.722302 L463.269827 575.246485 L466.575606 569.142591 L477.289896 585.799893 L479.356008 581.984959 Z" fill="#888" fill-opacity="0.18" stroke="#000" stroke-width="1"/>
  <path d="M446.048708 544.322892 L467.183049 552.215997 L464.218715 555.383845 L483.411644 560.271913 L478.668710 565.340471 L503.197440 564.526411 L490.154372 578.464945 L500.291487 587.950813 L493.177087 595.553650 L483.039971 586.067782 L469.996902 600.006316 L469.182842 575.477587 L464.439909 580.546145 L458.290048 561.719543 L455.325714 564.887391 Z" fill="#888" fill-opacity="0.18" stroke="#000" stroke-width="1"/>
  <path d="M511.024919 525.284642 L527.078631 541.135187 L523.077520 542.812581 L538.589540 555.126759 L532.187762 557.810589 L554.901781 567.105458 L537.296893 574.485991 L542.664553 587.289546 L533.061886 591.315291 L527.694226 578.511736 L510.089337 585.892269 L519.384207 563.178249 L512.982429 565.862079 L515.075298 546.167369 L511.074187 547.844762 Z" fill="#888" fill-opacity="0.18" stroke="#000" stroke-width="1"/>
  <path d="M620.440567 566.489571 L602.487072 580.150957 L601.389895 575.953489 L587.013810 589.576627 L585.258327 582.860677 L572.857160 604.039259 L568.029582 585.570397 L554.597682 589.081363 L551.964458 579.007439 L565.396357 575.496473 L560.568779 557.027611 L581.747361 569.428778 L579.991878 562.712828 L599.195541 567.558551 L598.098365 563.361083 Z" fill="#888" fill-opacity="0.18" stroke="#000" stroke-width="1"/>
  <path d="M649.222843 541.135900 L641.268763 562.247368 L638.109485 559.273902 L633.166034 578.452641 L628.111188 573.695095 L628.854438 598.226073 L614.953613 585.142822 L605.438522 595.252513 L597.856254 588.116195 L607.371345 578.006504 L593.470520 564.923254 L618.001497 564.180004 L612.946652 559.422459 L631.790928 553.326970 L628.631650 550.353504 Z" fill="#888" fill-opacity="0.18" stroke="#000" stroke-width="1"/>
  <path d="M604.285443 565.490464 L625.865552 558.913205 L625.436951 563.230477 L643.648963 555.446882 L642.963201 562.354518 L661.946695 546.799833 L660.060850 565.795831 L673.876122 567.167355 L672.847479 577.528808 L659.032208 576.157285 L657.146363 595.153283 L641.591678 576.169789 L640.905916 583.077425 L624.579749 571.865022 L624.151148 576.182294 Z" fill="#888" fill-opacity="0.18" stroke="#000" stroke-width="1"/>
  <path d="M663.589234 542.663818 L684.366120 551.454864 L681.268827 554.492843 L700.234788 560.198460 L695.279120 565.059226 L719.820208 565.296480 L706.192120 578.663589 L715.913654 588.574925 L708.480151 595.866075 L698.758618 585.954739 L685.130530 599.321848 L685.367784 574.780760 L680.412115 579.641527 L675.074242 560.568802 L671.976950 563.606781 Z" fill="#888" fill-opacity="0.18" stroke="#000" stroke-width="1"/>
  <path d="M788.253393 544.646773 L774.150301 562.255415 L772.067635 558.449493 L761.425813 575.153186 L758.093547 569.063712 L751.200526 592.618064 L742.036794 575.872008 L729.857844 582.536541 L724.859445 573.402328 L737.038394 566.737796 L727.874663 549.991740 L751.429015 556.884762 L748.096749 550.795287 L767.902302 550.837650 L765.819636 547.031728 Z" fill="#888" fill-opacity="0.18" stroke="#000" stroke-width="1"/>
  <path d="M156.654297 691.839378 L145.822194 672.049809 L150.136326 671.590676 L138.808704 655.344240 L145.711315 654.609627 L126.618255 639.189630 L145.600436 637.169445 L144.131211 623.364222 L154.485128 622.262303 L155.954354 636.067526 L174.936535 634.047341 L159.516538 653.140402 L166.419150 652.405789 L158.764591 670.672410 L163.078723 670.213278 Z" fill="#888" fill-opacity="0.18" stroke="#000" stroke-width="1"/>
  <path d="M173.451486 705.775174 L185.777044 686.879616 L188.219631 690.465186 L197.188216 672.806584 L201.096356 678.543495 L205.668283 654.430869 L216.415667 670.207373 L227.889489 662.391094 L233.751699 670.996460 L222.277877 678.812739 L233.025261 694.589244 L208.912635 690.017316 L212.820775 695.754227 L193.104806 697.636324 L195.547393 701.221893 Z" fill="#888" fill-opacity="0.18" stroke="#000" stroke-width="1"/>
  <path d="M250.897585 585.420355 L250.137726 607.967730 L246.191436 606.165138 L247.662908 625.915999 L241.348844 623.031852 L249.923637 646.027378 L232.559962 638.095975 L226.791669 650.724103 L217.320573 646.397883 L223.088866 633.769756 L205.725191 625.838353 L228.720716 617.263560 L222.406653 614.379413 L238.298856 602.559955 L234.352566 600.757364 Z" fill="#888" fill-opacity="0.18" stroke="#000" stroke-width="1"/>
  <path d="M345.197816 633.980317 L331.217134 651.686305 L329.108133 647.894913 L318.582365 664.671978 L315.207964 658.605751 L308.478398 682.207323 L299.198795 665.525196 L287.066339 672.273999 L282.004738 663.174657 L294.137193 656.425855 L284.857590 639.743729 L308.459162 646.473295 L305.084761 640.407068 L324.890132 640.312128 L322.781131 636.520736 Z" fill="#888" fill-opacity="0.18" stroke="#000" stroke-width="1"/>
  <path d="M292.726677 590.374931 L307.775101 607.182857 L303.678397 608.610986 L318.403660 621.855922 L311.848932 624.140928 L333.948264 634.815234 L315.922763 641.098998 L320.492774 654.208453 L310.660682 657.635960 L306.090672 644.526505 L288.065171 650.810269 L298.739477 628.710938 L292.184750 630.995943 L295.484987 611.467242 L291.388283 612.895370 Z" fill="#888" fill-opacity="0.18" stroke="#000" stroke-width="1"/>
  <path d="M414.125658 637.793649 L392.579501 644.481294 L392.985995 640.161884 L374.814068 648.038607 L375.464459 641.127551 L356.560841 656.779212 L358.349418 637.773808 L344.527306 636.473025 L345.502893 626.106441 L359.325005 627.407224 L361.113582 608.401821 L376.765242 627.305439 L377.415634 620.394384 L393.798985 631.523064 L394.205480 627.203654 Z" fill="#888" fill-opacity="0.18" stroke="#000" stroke-width="1"/>
  <path d="M381.493980 591.225159 L397.602652 607.019847 L393.607392 608.711128 L409.162091 620.971351 L402.769674 623.677401 L425.515842 632.893318 L407.936695 640.334956 L413.348796 653.119790 L403.760171 657.178865 L398.348070 644.394032 L380.768924 651.835670 L389.984840 629.089502 L383.592423 631.795552 L385.616871 612.093691 L381.621610 613.784972 Z" fill="#888" fill-opacity="0.18" stroke="#000" stroke-width="1"/>
  <path d="M508.178221 636.560737 L486.935823 644.158238 L487.158338 639.825452 L469.337665 648.467522 L469.693688 641.535066 L451.472490 657.976148 L452.451554 638.911894 L438.586641 638.199847 L439.120676 627.801163 L452.985588 628.513209 L453.964652 609.448955 L470.405735 627.670153 L470.761758 620.737697 L487.603367 631.159882 L487.825881 626.827097 Z" fill="#888" fill-opacity="0.18" stroke="#000" stroke-width="1"/>
  <path d="M521.836250 605.162807 L512.439236 625.672746 L509.493464 622.487630 L503.233698 641.277974 L498.520462 636.181788 L497.563086 660.705342 L484.601688 646.690831 L474.409316 656.117302 L467.339463 648.473023 L477.531835 639.046552 L464.570437 625.032040 L489.093991 625.989416 L484.380756 620.893230 L503.601920 616.117397 L500.656147 612.932281 Z" fill="#888" fill-opacity="0.18" stroke="#000" stroke-width="1"/>
  <path d="M520.768522 585.422702 L535.315655 602.666321 L531.178686 603.973236 L545.507680 617.645897 L538.888530 619.736962 L560.664068 631.057175 L542.461405 636.807604 L546.643535 650.045904 L536.714810 653.182502 L532.532680 639.944202 L514.330017 645.694630 L525.650230 623.919093 L519.031079 626.010158 L522.904748 606.587068 L518.767779 607.893983 Z" fill="#888" fill-opacity="0.18" stroke="#000" stroke-width="1"/>
  <path d="M611.984162 597.225124 L604.407050 618.474802 L601.195355 615.558031 L596.593999 634.821708 L591.455287 630.154874 L592.634982 654.668739 L578.503524 641.834946 L569.169856 652.112370 L561.461788 645.112118 L570.795456 634.834694 L556.663998 622.000901 L581.177863 620.821206 L576.039151 616.154372 L594.771965 609.724489 L591.560270 606.807717 Z" fill="#888" fill-opacity="0.18" stroke="#000" stroke-width="1"/>
  <path d="M573.132562 675.528447 L583.696391 655.594380 L586.453635 658.944029 L593.786295 640.545828 L598.197885 645.905267 L600.567508 621.477697 L612.699378 636.216153 L623.418255 627.392974 L630.035639 635.432132 L619.316762 644.255311 L631.448633 658.993766 L607.021063 656.624144 L611.432653 661.983582 L591.968121 665.643328 L594.725365 668.992977 Z" fill="#888" fill-opacity="0.18" stroke="#000" stroke-width="1"/>
  <path d="M627.681828 596.496587 L643.908064 612.170475 L639.925551 613.891560 L655.571420 626.035221 L649.199401 628.788958 L672.013792 637.834665 L654.490738 645.407441 L659.998212 658.151481 L650.440182 662.282086 L644.932708 649.538047 L627.409654 657.110823 L636.455361 634.296432 L630.083342 637.050169 L631.960527 617.333731 L627.978014 619.054817 Z" fill="#888" fill-opacity="0.18" stroke="#000" stroke-width="1"/>
  <path d="M645.282346 674.233411 L657.321640 655.154185 L659.818005 658.702523 L668.519355 640.910720 L672.513539 646.588062 L676.721433 622.409251 L687.705437 638.021939 L699.060119 630.033572 L705.051394 638.549583 L693.696712 646.537950 L704.680716 662.150638 L680.501905 657.942744 L684.496089 663.620085 L664.810734 665.799199 L667.307099 669.347537 Z" fill="#888" fill-opacity="0.18" stroke="#000" stroke-width="1"/>
  <path d="M683.336662 608.704460 L705.715176 611.561658 L703.552766 615.322844 L723.354813 615.697876 L719.894957 621.715774 L743.589343 615.320671 L734.074737 631.869890 L746.110532 638.789603 L740.920747 647.816450 L728.884952 640.896736 L719.370346 657.445955 L712.975243 633.751569 L709.515387 639.769467 L699.227945 622.845216 L697.065535 626.606402 Z" fill="#888" fill-opacity="0.18" stroke="#000" stroke-width="1"/>
  <path d="M149.660089 639.519460 L162.588845 658.007531 L158.350670 658.935115 L171.384993 673.847129 L164.603914 675.331264 L185.266952 688.573625 L166.618982 692.654998 L169.587253 706.217157 L159.415633 708.443360 L156.447362 694.881201 L137.799393 698.962573 L151.041754 678.299535 L144.260674 679.783670 L149.874320 660.790285 L145.636146 661.717869 Z" fill="#888" fill-opacity="0.18" stroke="#000" stroke-width="1"/>
  <path d="M241.334374 674.093661 L224.613355 689.238594 L223.161667 685.150178 L210.001718 699.951444 L207.679018 693.409979 L197.132107 715.570393 L190.744680 697.581364 L177.661751 702.226766 L174.177700 692.414568 L187.260629 687.769167 L180.873203 669.780139 L203.033617 680.327049 L200.710916 673.785584 L220.258292 676.973347 L218.806604 672.884932 Z" fill="#888" fill-opacity="0.18" stroke="#000" stroke-width="1"/>
  <path d="M265.949960 741.515856 L245.436702 732.126090 L248.620777 729.179192 L229.828222 722.926066 L234.922742 718.211030 L210.398851 717.262318 L224.408783 704.295970 L214.978711 694.106929 L222.620492 687.034375 L232.050563 697.223416 L246.060495 684.257067 L245.111783 708.780958 L250.206303 704.065922 L254.988927 723.285398 L258.173003 720.338500 Z" fill="#888" fill-opacity="0.18" stroke="#000" stroke-width="1"/>
  <path d="M271.084200 754.682883 L268.329167 732.291562 L272.507732 733.458666 L267.983303 714.176776 L274.669008 716.044142 L262.623161 694.661466 L281.008848 699.796722 L284.743580 686.425313 L294.772137 689.226362 L291.037405 702.597771 L309.423093 707.733027 L288.040417 719.778874 L294.726122 721.646240 L280.864863 735.792873 L285.043429 736.959977 Z" fill="#888" fill-opacity="0.18" stroke="#000" stroke-width="1"/>
  <path d="M302.082310 760.992429 L299.398983 738.592402 L303.573790 739.772878 L299.111121 720.476601 L305.790813 722.365364 L293.813490 700.944229 L312.182642 706.138326 L315.960167 692.778943 L325.979704 695.612087 L322.202179 708.971470 L340.571330 714.165567 L319.150195 726.142889 L325.829887 728.031652 L311.923405 742.133832 L316.098212 743.314308 Z" fill="#888" fill-opacity="0.18" stroke="#000" stroke-width="1"/>
  <path d="M299.183566 714.186058 L318.398614 702.364748 L319.075840 706.650061 L334.727194 694.513469 L335.810755 701.369970 L350.243102 681.519815 L353.222896 700.375191 L366.935897 698.208067 L368.561239 708.492818 L354.848239 710.659941 L357.828033 729.515317 L337.977879 715.082970 L339.061440 721.939470 L320.430292 715.220686 L321.107518 719.505999 Z" fill="#888" fill-opacity="0.18" stroke="#000" stroke-width="1"/>
  <path d="M347.604217 677.353713 L370.137554 678.453810 L368.275604 682.372442 L388.046424 681.199253 L385.067304 687.469065 L408.189635 679.242336 L399.997053 696.484319 L412.536677 702.442560 L408.067996 711.847278 L395.528373 705.889037 L387.335791 723.131020 L379.109063 700.008688 L376.129942 706.278500 L364.551703 690.209707 L362.689752 694.128340 Z" fill="#888" fill-opacity="0.18" stroke="#000" stroke-width="1"/>
  <path d="M505.386119 680.811486 L490.007820 697.318133 L488.215094 693.367351 L476.355965 709.229974 L473.487604 702.908723 L464.855381 725.882752 L456.967388 708.499314 L444.324887 714.236036 L440.022345 704.754161 L452.664846 699.017438 L444.776853 681.634000 L467.750881 690.266223 L464.882520 683.944972 L484.629643 685.465789 L482.836917 681.515007 Z" fill="#888" fill-opacity="0.18" stroke="#000" stroke-width="1"/>
  <path d="M539.059349 673.973665 L526.409484 692.653664 L524.029149 689.026469 L514.757106 706.527639 L510.948570 700.724127 L505.961131 724.754248 L495.487655 708.794590 L483.880631 716.411663 L478.167827 707.706395 L489.774851 700.089322 L479.301376 684.129664 L503.331497 689.117103 L499.522960 683.313591 L519.268478 681.772079 L516.888143 678.144884 Z" fill="#888" fill-opacity="0.18" stroke="#000" stroke-width="1"/>
  <path d="M471.982715 719.087076 L488.841753 704.095934 L490.255932 708.197475 L503.550901 693.517369 L505.813588 700.079834 L516.563034 678.016954 L522.785422 696.063734 L535.910353 691.538360 L539.304383 701.382058 L526.179452 705.907432 L532.401841 723.954211 L510.338961 713.204764 L512.601647 719.767230 L493.084290 716.400557 L494.498469 720.502097 Z" fill="#888" fill-opacity="0.18" stroke="#000" stroke-width="1"/>
  <path d="M511.102377 702.280790 L532.620635 695.503915 L532.232043 699.824972 L550.371174 691.873012 L549.749427 698.786704 L568.588023 683.056841 L566.878220 702.069493 L580.705603 703.312986 L579.772984 713.683524 L565.945600 712.440031 L564.235797 731.452683 L548.505934 712.614087 L547.884188 719.527779 L531.454860 708.467087 L531.066268 712.788144 Z" fill="#888" fill-opacity="0.18" stroke="#000" stroke-width="1"/>
  <path d="M570.561089 727.522021 L579.816380 706.947740 L582.784056 710.112457 L588.914038 691.279373 L593.662321 696.342921 L594.450485 671.813346 L607.508261 685.738103 L617.635357 676.241539 L624.757780 683.836861 L614.630684 693.333425 L627.688460 707.258182 L603.158885 706.470017 L607.907167 711.533565 L588.719409 716.441892 L591.687085 719.606610 Z" fill="#888" fill-opacity="0.18" stroke="#000" stroke-width="1"/>
  <path d="M606.948985 710.979703 L625.285130 697.836367 L626.262043 702.063444 L641.021143 688.856223 L642.584204 695.619547 L655.584861 674.803587 L659.883277 693.402726 L673.409924 690.276605 L675.754515 700.421590 L662.227868 703.547711 L666.526284 722.146851 L645.710325 709.146193 L647.273385 715.909517 L628.215868 710.517599 L629.192781 714.744676 Z" fill="#888" fill-opacity="0.18" stroke="#000" stroke-width="1"/>
  <path d="M709.257557 646.689713 L715.314883 668.421494 L711.009144 667.889378 L718.353309 686.282990 L711.464126 685.431606 L726.558623 704.783025 L707.613369 702.441718 L705.910600 716.220084 L695.576825 714.943007 L697.279594 701.164641 L678.334340 698.823334 L697.685760 683.728837 L690.796576 682.877452 L702.397664 666.825148 L698.091925 666.293032 Z" fill="#888" fill-opacity="0.18" stroke="#000" stroke-width="1"/>
  <path d="M681.992489 729.313428 L698.055307 713.472110 L699.679297 717.495193 L712.198851 702.148451 L714.797235 708.585384 L724.393606 685.997092 L731.539162 703.698657 L744.413028 698.501889 L748.310604 708.157288 L735.436738 713.354056 L742.582294 731.055621 L719.994003 721.459249 L722.592387 727.896182 L702.927277 725.541359 L704.551267 729.564442 Z" fill="#888" fill-opacity="0.18" stroke="#000" stroke-width="1"/>
  <path d="M193.157364 803.209931 L171.874517 795.726488 L174.777114 792.501977 L155.493357 787.985513 L160.137512 782.826296 L135.629081 784.113952 L148.400507 769.926104 L138.082072 760.637793 L145.048305 752.898967 L155.366740 762.187277 L168.138166 747.999429 L169.425822 772.507861 L174.069977 767.348643 L180.582308 786.052955 L183.484905 782.828444 Z" fill="#888" fill-opacity="0.18" stroke="#000" stroke-width="1"/>
  <path d="M193.537019 820.343214 L185.356238 799.318554 L189.693513 799.421423 L180.562982 781.846010 L187.502623 782.010600 L170.564996 764.250024 L189.649007 764.702646 L189.978187 750.823365 L200.387648 751.070250 L200.058468 764.949531 L219.142480 765.402153 L201.381904 782.339780 L208.321544 782.504370 L198.368064 799.627160 L202.705339 799.730029 Z" fill="#888" fill-opacity="0.18" stroke="#000" stroke-width="1"/>
  <path d="M290.997639 756.063725 L271.072857 766.645055 L270.668241 762.325469 L254.280051 773.447023 L253.632665 766.535685 L237.972785 785.432495 L236.192474 766.426315 L222.369798 767.721087 L221.398719 757.354080 L235.221395 756.059308 L233.441084 737.053129 L252.337894 752.713009 L251.690508 745.801671 L269.859008 753.686296 L269.454392 749.366710 Z" fill="#888" fill-opacity="0.18" stroke="#000" stroke-width="1"/>
  <path d="M331.444178 755.759936 L310.788858 764.832928 L310.706028 760.495224 L293.537436 770.369493 L293.404908 763.429166 L276.385411 781.111303 L276.020959 762.025404 L262.140305 762.290460 L261.941513 751.879970 L275.822167 751.614914 L275.457715 732.529015 L293.139852 749.548512 L293.007324 742.608186 L310.540368 751.819815 L310.457538 747.482111 Z" fill="#888" fill-opacity="0.18" stroke="#000" stroke-width="1"/>
  <path d="M282.844805 795.665325 L294.708389 776.476348 L297.237232 780.001613 L305.774836 762.130657 L309.820985 767.771080 L313.806670 743.554648 L324.933581 759.065813 L336.214428 750.973514 L342.283652 759.434149 L331.002805 767.526448 L342.129716 783.037613 L317.913284 779.051927 L321.959433 784.692351 L302.294919 787.052142 L304.823762 790.577407 Z" fill="#888" fill-opacity="0.18" stroke="#000" stroke-width="1"/>
  <path d="M413.839423 748.132779 L396.793201 762.910729 L395.430712 758.791729 L381.952188 773.303487 L379.772205 766.713086 L368.746162 788.639045 L362.751208 770.515444 L349.570408 774.875410 L346.300433 764.989810 L359.481234 760.629844 L353.486280 742.506243 L375.412239 753.532286 L373.232255 746.941886 L392.705733 750.553728 L391.343243 746.434728 Z" fill="#888" fill-opacity="0.18" stroke="#000" stroke-width="1"/>
  <path d="M410.872537 702.588491 L418.348712 723.873892 L414.017267 723.626660 L422.557518 741.496350 L415.627206 741.100779 L431.964057 759.415488 L412.905699 758.327666 L412.114556 772.188290 L401.719088 771.594933 L402.510231 757.734309 L383.451873 756.646487 L401.766582 740.309636 L394.836270 739.914065 L405.354377 723.132195 L401.022932 722.884963 Z" fill="#888" fill-opacity="0.18" stroke="#000" stroke-width="1"/>
  <path d="M506.076749 770.568848 L483.574968 772.190993 L484.951347 768.076613 L465.465794 771.622736 L467.668000 765.039728 L445.704967 775.991734 L451.761031 757.888463 L438.595015 753.484052 L441.898323 743.609540 L455.064339 748.013951 L461.120403 729.910679 L472.072410 751.873712 L474.274615 745.290704 L487.704103 759.847853 L489.080481 755.733473 Z" fill="#888" fill-opacity="0.18" stroke="#000" stroke-width="1"/>
  <path d="M494.040785 710.861300 L516.239205 714.885181 L513.883011 718.528105 L533.638331 719.938446 L529.868422 725.767124 L553.864890 720.620204 L543.497639 736.649067 L555.154994 744.188886 L549.500130 752.931903 L537.842775 745.392084 L527.475524 761.420948 L522.328603 737.424480 L518.558693 743.253157 L509.170625 725.813952 L506.814431 729.456875 Z" fill="#888" fill-opacity="0.18" stroke="#000" stroke-width="1"/>
  <path d="M470.193922 790.937547 L485.389739 774.262757 L487.225810 778.193582 L498.909753 762.201483 L501.847466 768.490803 L510.226481 745.423220 L518.305193 762.718849 L530.883833 756.843422 L535.290403 766.277401 L522.711764 772.152828 L530.790476 789.448457 L507.722893 781.069442 L510.660607 787.358762 L490.897952 786.055231 L492.734023 789.986056 Z" fill="#888" fill-opacity="0.18" stroke="#000" stroke-width="1"/>
  <path d="M545.533154 808.239238 L548.383588 785.859862 L552.145428 788.021135 L552.514474 768.218975 L558.533418 771.677013 L552.131153 747.984561 L568.683247 757.494164 L575.599322 745.456278 L584.627737 750.643334 L577.711662 762.681221 L594.263756 772.190824 L570.571304 778.593088 L576.590247 782.051126 L559.669107 792.343682 L563.430946 794.504956 Z" fill="#888" fill-opacity="0.18" stroke="#000" stroke-width="1"/>
  <path d="M629.105491 706.971864 L631.415570 729.413455 L627.260991 728.163647 L631.401832 747.531537 L624.754507 745.531845 L636.373589 767.149389 L618.093445 761.650234 L614.094060 774.944885 L604.123072 771.945346 L608.122457 758.650696 L589.842313 753.151541 L611.459857 741.532460 L604.812532 739.532767 L618.951835 725.664032 L614.797257 724.414224 Z" fill="#888" fill-opacity="0.18" stroke="#000" stroke-width="1"/>
  <path d="M695.232031 796.162451 L675.872405 784.579431 L679.360488 781.999544 L661.367155 773.722967 L666.948087 769.595147 L642.676207 765.962368 L658.023769 754.610862 L649.768128 743.448998 L658.139526 737.257268 L666.395167 748.419131 L681.742730 737.067625 L678.109951 761.339506 L683.690883 757.211686 L686.336652 776.839768 L689.824735 774.259880 Z" fill="#888" fill-opacity="0.18" stroke="#000" stroke-width="1"/>
  <path d="M729.187034 809.644113 L709.217687 799.147130 L712.558079 796.378680 L694.135414 789.107701 L699.480042 784.678180 L675.044671 782.390411 L689.742398 770.209230 L680.883357 759.519974 L688.900299 752.875693 L697.759340 763.564949 L712.457067 751.383767 L710.169298 775.819139 L715.513926 771.389618 L719.238864 790.841779 L722.579257 788.073329 Z" fill="#888" fill-opacity="0.18" stroke="#000" stroke-width="1"/>
  <path d="M789.255826 766.752492 L768.584419 775.788774 L768.509295 771.450929 L751.323188 781.294681 L751.202991 774.354130 L734.152106 792.006002 L733.821563 772.919486 L719.940460 773.159881 L719.760164 762.749054 L733.641266 762.508659 L733.310723 743.422142 L750.962596 760.473027 L750.842398 753.532476 L768.359048 762.775240 L768.283925 758.437395 Z" fill="#888" fill-opacity="0.18" stroke="#000" stroke-width="1"/>
  <path d="M203.125607 829.385921 L181.047104 834.022856 L181.857004 829.760627 L163.026305 835.897928 L164.322146 829.078361 L144.033625 842.887676 L147.597188 824.133866 L133.958054 821.542184 L135.901816 811.312833 L149.540950 813.904516 L153.104514 795.150706 L166.913828 815.439227 L168.209670 808.619660 L183.476806 821.236168 L184.286707 816.973938 Z" fill="#888" fill-opacity="0.18" stroke="#000" stroke-width="1"/>
  <path d="M206.171767 864.257717 L192.799555 846.087812 L197.014051 845.057975 L183.622811 830.465634 L190.366004 828.817894 L169.388671 816.079261 L187.932453 811.547976 L184.636973 798.061590 L194.751763 795.589980 L198.047242 809.076366 L216.591024 804.545082 L203.852390 825.522415 L210.595584 823.874675 L205.443043 842.998300 L209.657538 841.968463 Z" fill="#888" fill-opacity="0.18" stroke="#000" stroke-width="1"/>
  <path d="M242.466919 881.016459 L230.964796 861.608660 L235.260716 861.002351 L223.384456 845.152551 L230.257929 844.182457 L210.649013 829.424012 L229.551061 826.756253 L227.610872 813.009309 L237.921081 811.554167 L239.861269 825.301111 L258.763317 822.633352 L244.004873 842.242268 L250.878345 841.272174 L243.852556 859.789734 L248.148476 859.183425 Z" fill="#888" fill-opacity="0.18" stroke="#000" stroke-width="1"/>
  <path d="M241.446235 772.652813 L259.485955 786.200137 L255.746806 788.400433 L272.774118 798.516378 L266.791480 802.036852 L290.549261 808.192264 L274.097005 817.873567 L281.137952 829.838845 L272.163994 835.119555 L265.123047 823.154278 L248.670790 832.835581 L254.826202 809.077800 L248.843564 812.598274 L248.268507 792.801026 L244.529358 795.001322 Z" fill="#888" fill-opacity="0.18" stroke="#000" stroke-width="1"/>
  <path d="M320.600297 882.593844 L309.118744 863.173870 L313.415304 862.572113 L301.555845 846.709738 L308.430341 845.746927 L288.837074 830.967714 L307.741938 828.319984 L305.816316 814.570991 L316.128061 813.126775 L318.053682 826.875767 L336.958547 824.228038 L322.179333 843.821305 L329.053829 842.858494 L322.008424 861.368599 L326.304984 860.766843 Z" fill="#888" fill-opacity="0.18" stroke="#000" stroke-width="1"/>
  <path d="M380.954758 877.209618 L365.110764 861.149441 L369.133576 859.524780 L353.784747 847.007785 L360.221246 844.408328 L337.631355 834.815722 L355.331729 827.667215 L350.132815 814.794216 L359.787564 810.895031 L364.986478 823.768030 L382.686852 816.619524 L373.094245 839.209414 L379.530745 836.609958 L377.179200 856.275459 L381.202012 854.650799 Z" fill="#888" fill-opacity="0.18" stroke="#000" stroke-width="1"/>
  <path d="M442.001080 852.571517 L421.061299 844.175859 L424.100453 841.079719 L405.029754 835.734612 L409.892400 830.780788 L385.351224 831.008734 L398.723501 817.385717 L388.815852 807.660425 L396.109821 800.229689 L406.017470 809.954981 L419.389746 796.331964 L419.617692 820.873139 L424.480338 815.919315 L430.178761 834.887439 L433.217914 831.791298 Z" fill="#888" fill-opacity="0.18" stroke="#000" stroke-width="1"/>
  <path d="M429.915454 767.174090 L443.311301 785.326577 L439.098149 786.361899 L452.508368 800.936799 L445.767325 802.593314 L466.761218 815.304636 L448.223350 819.860050 L451.536378 833.342136 L441.424813 835.826907 L438.111785 822.344821 L419.573916 826.900235 L432.285239 805.906342 L425.544196 807.562856 L430.671845 788.432541 L426.458693 789.467862 Z" fill="#888" fill-opacity="0.18" stroke="#000" stroke-width="1"/>
  <path d="M526.474108 866.212596 L508.038855 853.208637 L511.710804 850.897938 L494.389721 841.293679 L500.264840 837.596561 L476.334248 832.151560 L492.490824 821.984485 L485.096588 810.234247 L493.909266 804.688570 L501.303502 816.438808 L517.460078 806.271733 L512.015077 830.202325 L517.890196 826.505207 L519.054703 846.276541 L522.726652 843.965842 Z" fill="#888" fill-opacity="0.18" stroke="#000" stroke-width="1"/>
  <path d="M499.512195 849.398394 L507.790200 828.411825 L510.903348 831.433554 L516.141341 812.333157 L521.122378 817.167925 L520.756704 792.628415 L534.454555 805.924024 L544.124089 795.961951 L551.595644 803.214102 L541.926110 813.176175 L555.623961 826.471785 L531.084451 826.837459 L536.065488 831.672226 L517.129644 837.477013 L520.242792 840.498743 Z" fill="#888" fill-opacity="0.18" stroke="#000" stroke-width="1"/>
  <path d="M514.281222 833.974132 L529.852451 817.649357 L531.598622 821.620934 L543.643355 805.898780 L546.437228 812.253303 L555.338853 789.382310 L563.022006 806.857250 L575.731053 801.269503 L579.921864 810.801288 L567.212816 816.389036 L574.895969 833.863976 L552.024976 824.962351 L554.818849 831.316875 L535.090964 829.564089 L536.837135 833.535666 Z" fill="#888" fill-opacity="0.18" stroke="#000" stroke-width="1"/>
  <path d="M674.068164 797.487467 L656.289446 811.375543 L655.139101 807.192332 L640.937019 820.996774 L639.096468 814.303638 L626.965007 835.637858 L621.903489 817.231733 L608.517217 820.912837 L605.756390 810.873133 L619.142662 807.192029 L614.081144 788.785905 L635.415364 800.917366 L633.574812 794.224230 L652.838411 798.825912 L651.688066 794.642702 Z" fill="#888" fill-opacity="0.18" stroke="#000" stroke-width="1"/>
  <path d="M705.912801 847.239940 L683.990431 841.913483 L686.557433 838.415907 L666.919723 835.842566 L671.026926 830.246444 L646.768613 833.968741 L658.063422 818.579405 L646.871178 810.364999 L653.031983 801.970816 L664.224227 810.185222 L675.519036 794.795886 L679.241333 819.054200 L683.348536 813.458078 L691.691437 831.420754 L694.258439 827.923178 Z" fill="#888" fill-opacity="0.18" stroke="#000" stroke-width="1"/>
  <path d="M658.706613 777.266295 L677.583263 789.620790 L673.993955 792.057881 L691.638794 801.053512 L685.895902 804.952857 L710.001495 809.561726 L694.208541 820.284924 L702.007231 831.770708 L693.392892 837.619726 L685.594203 826.133941 L669.801249 836.857140 L674.410117 812.751547 L668.667225 816.650892 L666.815340 796.932062 L663.226032 799.369152 Z" fill="#888" fill-opacity="0.18" stroke="#000" stroke-width="1"/>
  <path d="M754.460355 864.239773 L737.267520 849.632655 L741.132158 847.661081 L724.743655 836.539990 L730.927077 833.385470 L707.582223 825.813213 L724.586634 817.138285 L718.277595 804.771441 L727.552728 800.039662 L733.861767 812.406506 L750.866178 803.731578 L743.293921 827.076432 L749.477343 823.921912 L748.861436 843.717932 L752.726075 841.746357 Z" fill="#888" fill-opacity="0.18" stroke="#000" stroke-width="1"/>
  <path d="M215.471721 855.964131 L197.881820 870.090590 L196.675193 865.923266 L182.660476 879.917888 L180.729872 873.250169 L168.887085 894.745975 L163.577925 876.409749 L150.242488 880.270956 L147.346583 870.269378 L160.682020 866.408171 L155.372860 848.071945 L176.868665 859.914732 L174.938062 853.247014 L194.261938 857.588618 L193.055311 853.421294 Z" fill="#888" fill-opacity="0.18" stroke="#000" stroke-width="1"/>
  <path d="M166.286903 934.244870 L166.523648 911.685938 L170.510682 913.396524 L168.581552 893.685101 L174.960806 896.422039 L165.855016 873.631561 L183.397963 881.158140 L188.871838 868.399633 L198.440718 872.505039 L192.966843 885.263546 L210.509790 892.790124 L187.719313 901.895914 L194.098566 904.632852 L178.484749 916.817696 L182.471782 918.528282 Z" fill="#888" fill-opacity="0.18" stroke="#000" stroke-width="1"/>
  <path d="M179.000941 873.625581 L200.329482 866.273385 L200.057051 870.603318 L217.976132 862.167190 L217.540242 869.095083 L235.949699 852.865075 L234.751002 871.916781 L248.606788 872.788561 L247.952953 883.180400 L234.097167 882.308620 L232.898470 901.360326 L216.668462 882.950869 L216.232572 889.878762 L199.512188 879.263184 L199.239757 883.593117 Z" fill="#888" fill-opacity="0.18" stroke="#000" stroke-width="1"/>
  <path d="M296.484671 842.478800 L287.498280 863.171945 L284.489615 860.046169 L278.605577 878.957537 L273.791712 873.956296 L273.323272 898.494060 L260.085144 884.740648 L250.082663 894.368377 L242.861866 886.866516 L252.864347 877.238787 L239.626219 863.485375 L264.163983 863.953815 L259.350118 858.952574 L278.472284 853.794618 L275.463618 850.668843 Z" fill="#888" fill-opacity="0.18" stroke="#000" stroke-width="1"/>
  <path d="M368.776077 844.617921 L355.620805 862.945504 L353.340411 859.254658 L343.593895 876.496095 L339.945264 870.590742 L334.303457 894.475701 L324.269723 878.235979 L312.459017 885.533240 L306.986071 876.675210 L318.796778 869.377950 L308.763044 853.138228 L332.648003 858.780035 L328.999373 852.874682 L348.779623 851.872966 L346.499229 848.182121 Z" fill="#888" fill-opacity="0.18" stroke="#000" stroke-width="1"/>
  <path d="M301.298371 869.550494 L323.548172 865.821173 L322.564487 870.046679 L341.630619 864.685308 L340.056723 871.446117 L360.893490 858.478835 L356.565273 877.071062 L370.086893 880.218856 L367.726047 890.360071 L354.204428 887.212277 L349.876211 905.804504 L336.908929 884.967737 L335.335032 891.728547 L320.597115 878.497691 L319.613430 882.723197 Z" fill="#888" fill-opacity="0.18" stroke="#000" stroke-width="1"/>
  <path d="M358.589173 861.096401 L381.147841 861.357102 L379.433022 865.342317 L399.146483 863.434120 L396.402772 869.810464 L419.202906 860.728880 L411.657704 878.263825 L424.410390 883.751245 L420.294825 893.315760 L407.542138 887.828340 L399.996935 905.363285 L390.915352 882.563150 L388.171642 888.939494 L376.003385 873.312746 L374.288566 877.297961 Z" fill="#888" fill-opacity="0.18" stroke="#000" stroke-width="1"/>
  <path d="M481.553860 840.895084 L471.902705 861.286667 L468.996740 858.065191 L462.503959 876.776298 L457.854415 871.621937 L456.592371 896.131700 L443.806125 881.957206 L433.497402 891.256294 L426.523086 883.524751 L436.831809 874.225664 L424.045563 860.051169 L448.555327 861.313213 L443.905783 856.158852 L463.184810 851.622239 L460.278845 848.400763 Z" fill="#888" fill-opacity="0.18" stroke="#000" stroke-width="1"/>
  <path d="M498.779198 929.299435 L484.772806 911.613779 L488.948247 910.435548 L475.049352 896.325890 L481.730058 894.440720 L460.315368 882.451879 L478.687310 877.267662 L474.916971 863.906250 L484.938030 861.078495 L488.708370 874.439908 L507.080312 869.255691 L495.091470 890.670381 L501.772177 888.785211 L497.299130 908.079085 L501.474571 906.900854 Z" fill="#888" fill-opacity="0.18" stroke="#000" stroke-width="1"/>
  <path d="M519.785668 832.020699 L531.275680 851.435670 L526.979383 852.039298 L538.845752 867.896505 L531.971676 868.862311 L551.571380 883.632986 L532.667671 886.288952 L534.599283 900.037104 L524.288169 901.485813 L522.356557 887.737661 L503.452848 890.393627 L518.223524 870.793923 L511.349448 871.759728 L518.386788 853.246555 L514.090490 853.850184 Z" fill="#888" fill-opacity="0.18" stroke="#000" stroke-width="1"/>
  <path d="M512.488219 876.679588 L534.505874 871.761832 L533.750324 876.034031 L552.501330 869.657395 L551.292449 876.492913 L571.403447 862.426320 L568.079025 881.223995 L581.750061 883.641756 L579.936740 893.895033 L566.265704 891.477272 L562.941282 910.274947 L548.874688 890.163950 L547.665807 896.999468 L532.239223 884.578429 L531.483672 888.850628 Z" fill="#888" fill-opacity="0.18" stroke="#000" stroke-width="1"/>
  <path d="M599.995152 827.169137 L610.369965 847.202228 L606.046427 847.562173 L616.997991 864.064445 L610.080331 864.640357 L628.814263 880.494727 L609.790696 882.078486 L610.942521 895.913807 L600.566030 896.777676 L599.414206 882.942355 L580.390639 884.526114 L596.245010 865.792182 L589.327349 866.368094 L597.399352 848.282063 L593.075814 848.642009 Z" fill="#888" fill-opacity="0.18" stroke="#000" stroke-width="1"/>
  <path d="M640.454770 934.311240 L634.727788 912.490077 L639.024960 913.087444 L631.960649 894.584546 L638.836125 895.540333 L624.036904 875.962174 L642.944463 878.590590 L644.856038 864.839638 L655.169253 866.273319 L653.257678 880.024271 L672.165237 882.652687 L652.587078 897.451909 L659.462554 898.407696 L647.619305 914.282178 L651.916478 914.879546 Z" fill="#888" fill-opacity="0.18" stroke="#000" stroke-width="1"/>
  <path d="M749.967292 871.691211 L730.677268 883.389778 L730.027376 879.100235 L714.298966 891.136798 L713.259139 884.273529 L698.700534 904.031269 L695.841010 885.157279 L682.114472 887.236933 L680.554731 876.942030 L694.281269 874.862376 L691.421745 855.988386 L711.179485 870.546991 L710.139658 863.683722 L728.727593 870.521149 L728.077701 866.231606 Z" fill="#888" fill-opacity="0.18" stroke="#000" stroke-width="1"/>
  <path d="M739.635861 962.599994 L729.493368 942.448286 L733.820779 942.138355 L723.060750 925.510562 L729.984606 925.014671 L711.435238 908.944755 L730.475845 907.581057 L729.484064 893.733343 L739.869849 892.989507 L740.861630 906.837221 L759.902236 905.473522 L743.832320 924.022890 L750.756177 923.527000 L742.475600 941.518492 L746.803011 941.208560 Z" fill="#888" fill-opacity="0.18" stroke="#000" stroke-width="1"/>
  <path d="M200.762981 903.235883 L186.363768 920.603213 L184.345841 916.762574 L173.422725 933.283690 L170.194041 927.138668 L162.903195 950.572934 L154.024314 933.674122 L141.734269 940.131490 L136.891243 930.913956 L149.181288 924.456588 L140.302407 907.557777 L163.736673 914.848623 L160.507989 908.703600 L180.309986 909.081296 L178.292058 905.240657 Z" fill="#888" fill-opacity="0.18" stroke="#000" stroke-width="1"/>
  <path d="M176.415992 995.407798 L175.735485 972.857890 L179.788761 974.404982 L177.059924 954.788276 L183.545165 957.263624 L173.520433 934.862151 L191.354846 941.669358 L196.305542 928.698875 L206.033404 932.411897 L201.082708 945.382380 L218.917121 952.189587 L196.515648 962.214320 L203.000889 964.689668 L187.895312 977.499167 L191.948588 979.046260 Z" fill="#888" fill-opacity="0.18" stroke="#000" stroke-width="1"/>
  <path d="M281.888392 943.092570 L259.490713 945.795429 L260.667548 941.619594 L241.375170 946.099089 L243.258107 939.417753 L221.847425 951.413751 L227.025501 933.040077 L213.662829 929.274203 L216.487235 919.252199 L229.849907 923.018073 L235.027983 904.644399 L247.023981 926.055081 L248.906918 919.373745 L263.021219 933.267924 L264.198055 929.092089 Z" fill="#888" fill-opacity="0.18" stroke="#000" stroke-width="1"/>
  <path d="M333.996053 947.486039 L311.489819 949.045180 L312.877711 944.934669 L293.382308 948.426225 L295.602934 941.849409 L273.609326 952.739884 L279.716049 934.653638 L266.562416 930.212384 L269.893356 920.347159 L283.046989 924.788413 L289.153713 906.702166 L300.044188 928.695775 L302.264815 922.118958 L315.653495 936.713648 L317.041386 932.603138 Z" fill="#888" fill-opacity="0.18" stroke="#000" stroke-width="1"/>
  <path d="M370.274349 982.061925 L348.758171 975.278451 L351.553771 971.960747 L332.132635 968.077294 L336.605596 962.768968 L312.152379 964.857381 L324.453021 950.259485 L313.836369 941.313564 L320.545810 933.351075 L331.162462 942.296996 L343.463103 927.699099 L345.551517 952.152316 L350.024478 946.843990 L357.144972 965.325340 L359.940572 962.007636 Z" fill="#888" fill-opacity="0.18" stroke="#000" stroke-width="1"/>
</svg>
