<?xml version="1.0" encoding="UTF-8"?>
<svg xmlns="http://www.w3.org/2000/svg" width="1100" height="1100" viewBox="0 0 1100 1100">
  <rect x="0" y="0" width="1100" height="1100" fill="white"/>
  <text x="10.0" y="18.0" font-family="monospace" font-size="12">prefix=N200_job5490050_task2 run_id=2 L=9.74352537098 feas=4.940e-05 N=200</text>
  <rect x="40.000000" y="40.000000" width="1020.000000" height="1020.000000" fill="none" stroke="#000" stroke-width="2"/>
  <path d="M58.041772 445.914368 L52.885870 412.284715 L59.236984 413.856867 L51.553138 384.993676 L61.714921 387.509118 L42.599069 355.816054 L70.543973 362.733521 L75.574858 342.409954 L90.817532 346.183118 L85.786648 366.506684 L113.731552 373.424150 L82.038488 392.540003 L92.200271 395.055445 L71.939213 417.001170 L78.290328 418.573321 Z" fill="#888" fill-opacity="0.18" stroke="#000" stroke-width="1"/>
  <path d="M473.030825 177.932115 L451.823510 204.536375 L448.669449 198.803992 L432.678853 224.031480 L427.632355 214.859667 L417.319069 250.405444 L403.441199 225.182960 L385.097574 235.275956 L377.527827 221.518237 L395.871452 211.425241 L381.993582 186.202756 L417.539358 196.516042 L412.492860 187.344230 L442.361326 187.339227 L439.207265 181.606844 Z" fill="#888" fill-opacity="0.18" stroke="#000" stroke-width="1"/>
  <path d="M301.686048 447.386743 L271.807641 431.113523 L276.906320 427.013304 L249.288353 415.639070 L257.446239 409.078721 L220.650650 405.084880 L243.084836 387.043919 L229.964137 370.728147 L242.200965 360.887623 L255.321665 377.203394 L277.755851 359.162433 L273.762010 395.958021 L281.919896 389.397672 L287.103677 418.812867 L292.202356 414.712648 Z" fill="#888" fill-opacity="0.18" stroke="#000" stroke-width="1"/>
  <path d="M983.673937 674.189174 L1011.337684 693.994576 L1005.775797 697.440404 L1031.795260 712.107130 L1022.896241 717.620455 L1058.927100 726.084691 L1034.454797 741.246333 L1045.481446 759.044371 L1032.132918 767.314358 L1021.106269 749.516320 L996.633966 764.677963 L1005.098203 728.647104 L996.199184 734.160428 L994.652024 704.332059 L989.090137 707.777887 Z" fill="#888" fill-opacity="0.18" stroke="#000" stroke-width="1"/>
  <path d="M587.382786 41.241481 L565.030730 66.891480 L562.130734 61.026470 L545.050686 85.529475 L540.410693 76.145459 L528.550637 111.205482 L515.790655 85.399439 L497.022624 94.679425 L490.062634 80.603401 L508.830665 71.323415 L496.070684 45.517372 L531.130706 57.377428 L526.490713 47.993412 L556.330743 49.296451 L553.430747 43.431441 Z" fill="#888" fill-opacity="0.18" stroke="#000" stroke-width="1"/>
  <path d="M525.136528 104.616967 L495.985825 122.160437 L495.027716 115.688162 L471.246455 133.759601 L469.713482 123.403961 L447.656815 153.125495 L443.441138 124.647485 L422.729858 127.713432 L420.430398 112.179972 L441.141678 109.114025 L436.926001 80.636015 L466.647535 102.692681 L465.114561 92.337041 L493.111500 102.743612 L492.153391 96.271337 Z" fill="#888" fill-opacity="0.18" stroke="#000" stroke-width="1"/>
  <path d="M654.219256 152.105738 L678.964233 128.755727 L681.278956 134.875399 L700.665251 112.153232 L704.368807 121.944706 L719.588601 88.207131 L729.773380 115.133685 L749.356328 107.726573 L754.911662 122.413783 L735.328714 129.820895 L745.513493 156.747448 L711.775919 141.527654 L715.479475 151.319128 L685.908401 147.114741 L688.223123 153.234412 Z" fill="#888" fill-opacity="0.18" stroke="#000" stroke-width="1"/>
  <path d="M230.350505 408.997213 L260.589781 424.589617 L255.585266 428.804251 L283.453737 439.550116 L275.446513 446.293531 L312.323111 449.453053 L290.303245 467.997445 L303.790075 484.011893 L291.779239 494.127016 L278.292409 478.112568 L256.272542 496.656960 L259.432065 459.780361 L251.424840 466.523777 L245.576236 437.233520 L240.571721 441.448155 Z" fill="#888" fill-opacity="0.18" stroke="#000" stroke-width="1"/>
  <path d="M911.518434 1026.455730 L916.570604 992.810338 L922.169477 996.195737 L923.393553 966.352364 L932.351750 971.769003 L923.497853 935.831911 L948.132897 950.727668 L958.966175 932.811272 L972.403472 940.936230 L961.570194 958.852626 L986.205238 973.748383 L950.268146 982.602281 L959.226344 988.018920 L933.367225 1002.966536 L938.966098 1006.351935 Z" fill="#888" fill-opacity="0.18" stroke="#000" stroke-width="1"/>
  <path d="M631.941735 327.113920 L612.516538 299.181885 L618.911663 297.799604 L599.313266 275.260125 L609.545465 273.048475 L578.435844 252.997102 L606.574391 246.915066 L602.151092 226.450668 L617.499391 223.133194 L621.922689 243.597592 L650.061236 237.515556 L630.009863 268.625177 L640.242061 266.413527 L631.701911 295.035043 L638.097036 293.652762 Z" fill="#888" fill-opacity="0.18" stroke="#000" stroke-width="1"/>
  <path d="M635.224148 591.329354 L638.281930 625.214260 L632.040691 623.250781 L637.917504 652.535391 L627.931521 649.393826 L645.042564 682.212696 L617.581111 673.573391 L611.297980 693.545357 L596.319006 688.833009 L602.602137 668.861043 L575.140684 660.221738 L607.959555 643.110695 L597.973572 639.969129 L619.558212 619.323825 L613.316973 617.360346 Z" fill="#888" fill-opacity="0.18" stroke="#000" stroke-width="1"/>
  <path d="M1052.559997 532.185465 L1019.023859 526.452730 L1022.521988 520.923588 L992.709537 519.095184 L998.306543 510.248557 L962.197460 518.372609 L977.589227 494.044385 L959.895974 482.850372 L968.291483 469.580432 L985.984737 480.774444 L1001.376504 456.446220 L1009.500556 492.555304 L1015.097562 483.708677 L1029.518246 509.865304 L1033.016375 504.336163 Z" fill="#888" fill-opacity="0.18" stroke="#000" stroke-width="1"/>
  <path d="M1057.983866 207.367337 L1032.971383 184.304108 L1038.915482 181.569883 L1014.901559 163.808779 L1024.412119 159.434018 L989.698816 146.594521 L1015.852856 134.563928 L1007.103333 115.542808 L1021.369173 108.980666 L1030.118696 128.001786 L1056.272736 115.971192 L1043.433239 150.684495 L1052.943799 146.309734 L1050.803682 176.101431 L1056.747782 173.367205 Z" fill="#888" fill-opacity="0.18" stroke="#000" stroke-width="1"/>
  <path d="M738.727488 792.325107 L757.080798 820.972844 L750.637908 822.111912 L769.368542 845.377523 L759.059917 847.200033 L789.387754 868.415320 L761.039035 873.427222 L764.684055 894.044472 L749.221118 896.778237 L745.576098 876.160987 L717.227380 881.172889 L738.442667 850.845053 L728.134043 852.667563 L737.752127 824.390050 L731.309236 825.529118 Z" fill="#888" fill-opacity="0.18" stroke="#000" stroke-width="1"/>
  <path d="M545.043120 178.859311 L577.830165 169.773798 L577.017901 176.265989 L604.773646 165.232227 L603.474023 175.619732 L632.691844 152.900027 L629.117880 181.465666 L649.892891 184.064913 L647.943456 199.646171 L627.168446 197.046924 L623.594482 225.612564 L600.874777 196.394743 L599.575153 206.782248 L575.393372 189.250371 L574.581107 195.742562 Z" fill="#888" fill-opacity="0.18" stroke="#000" stroke-width="1"/>
  <path d="M278.208266 350.596518 L308.478202 366.129317 L303.482000 370.353802 L331.371588 381.044742 L323.377664 387.803919 L360.260416 390.890785 L338.277126 409.478522 L351.795481 425.466369 L339.804596 435.605135 L326.286241 419.617288 L304.302952 438.205025 L307.389817 401.322274 L299.395894 408.081451 L293.489596 378.802774 L288.493394 383.027260 Z" fill="#888" fill-opacity="0.18" stroke="#000" stroke-width="1"/>
  <path d="M329.455238 1048.113134 L354.295152 1024.864144 L356.584920 1030.993196 L376.063638 1008.350210 L379.727267 1018.156693 L395.084403 984.481413 L405.159382 1011.449242 L424.772348 1004.121984 L430.267791 1018.831709 L410.654825 1026.158966 L420.729804 1053.126795 L387.054524 1037.769659 L390.718153 1047.576142 L361.164456 1043.251300 L363.454224 1049.380352 Z" fill="#888" fill-opacity="0.18" stroke="#000" stroke-width="1"/>
  <path d="M798.480921 469.319456 L766.630593 457.357288 L771.109848 452.588159 L742.178972 445.163221 L749.345781 437.532615 L712.352245 438.692108 L732.060968 417.707942 L716.799757 403.374325 L727.549970 391.928417 L742.811181 406.262034 L762.519904 385.277868 L763.679398 422.271404 L770.846206 414.640798 L780.068359 443.049902 L784.547614 438.280773 Z" fill="#888" fill-opacity="0.18" stroke="#000" stroke-width="1"/>
  <path d="M1046.528440 197.553862 L1045.982569 231.572075 L1039.984208 228.959035 L1042.728441 258.701168 L1033.131063 254.520304 L1046.672347 288.965909 L1020.279558 277.468532 L1011.917829 296.663287 L997.521762 290.391991 L1005.883491 271.197235 L979.490702 259.699858 L1013.936308 246.158575 L1004.338930 241.977710 L1027.987486 223.732955 L1021.989125 221.119914 Z" fill="#888" fill-opacity="0.18" stroke="#000" stroke-width="1"/>
  <path d="M283.866836 190.036177 L317.092116 182.713771 L315.934460 189.153347 L344.239610 179.616901 L342.387361 189.920224 L372.776290 168.792539 L367.682606 197.126677 L388.289251 200.831175 L385.510878 216.286159 L364.904232 212.581661 L359.810547 240.915799 L338.682863 210.526869 L336.830614 220.830192 L313.619149 202.032501 L312.461494 208.472078 Z" fill="#888" fill-opacity="0.18" stroke="#000" stroke-width="1"/>
  <path d="M357.648905 141.469229 L327.673819 157.563671 L327.033909 151.052232 L302.395956 167.937035 L301.372101 157.518733 L277.885985 186.124125 L275.070383 157.473795 L254.233780 159.521505 L252.697997 143.894053 L273.534601 141.846343 L270.718999 113.196014 L299.324391 136.682130 L298.300536 126.263828 L325.754090 138.029355 L325.114181 131.517917 Z" fill="#888" fill-opacity="0.18" stroke="#000" stroke-width="1"/>
  <path d="M769.251870 762.970465 L801.087916 750.970339 L800.863378 757.509291 L827.513170 744.021744 L827.153910 754.484068 L854.207869 729.226407 L853.219905 757.997798 L874.144553 758.716317 L873.605663 774.409803 L852.681016 773.691284 L851.693052 802.462674 L826.435391 775.408716 L826.076132 785.871040 L800.414304 770.587196 L800.189767 777.126148 Z" fill="#888" fill-opacity="0.18" stroke="#000" stroke-width="1"/>
  <path d="M763.757240 245.219692 L736.661604 224.643897 L742.318227 221.355899 L716.721664 205.963002 L725.772261 200.702206 L689.993777 191.227705 L714.882919 176.760514 L704.361325 158.659320 L717.937221 150.768125 L728.458814 168.869319 L753.347956 154.402128 L743.873455 190.180612 L752.924052 184.919816 L753.631473 214.779903 L759.288096 211.491905 Z" fill="#888" fill-opacity="0.18" stroke="#000" stroke-width="1"/>
  <path d="M736.504547 388.415527 L702.552395 390.603737 L704.675209 384.414878 L675.249582 389.539111 L678.646085 379.636936 L645.399392 395.901115 L654.739775 368.670136 L634.935426 361.877131 L640.030180 347.023869 L659.834529 353.816874 L669.174911 326.585895 L685.439090 359.832588 L688.835593 349.930413 L708.920838 372.037160 L711.043652 365.848301 Z" fill="#888" fill-opacity="0.18" stroke="#000" stroke-width="1"/>
  <path d="M532.221860 168.726834 L555.994858 193.065722 L549.915987 195.485567 L572.968882 214.477389 L563.242690 218.349142 L597.237551 232.985243 L570.490522 243.632561 L578.234026 263.084946 L563.644737 268.892575 L555.901233 249.440189 L529.154203 260.087508 L543.790304 226.092646 L534.064112 229.964398 L537.758246 200.325257 L531.679376 202.745102 Z" fill="#888" fill-opacity="0.18" stroke="#000" stroke-width="1"/>
  <path d="M44.723019 140.859979 L48.328547 107.028972 L54.067370 110.171300 L54.011270 80.302886 L63.193387 85.330610 L52.807406 49.806006 L78.058228 63.632249 L88.113677 45.268015 L101.886853 52.809602 L91.831403 71.173836 L117.082225 85.000078 L81.557621 95.386059 L90.739738 100.413784 L65.545016 116.455955 L71.283839 119.598283 Z" fill="#888" fill-opacity="0.18" stroke="#000" stroke-width="1"/>
  <path d="M611.924345 351.093822 L582.524669 333.970857 L587.738781 330.018471 L560.458192 317.857274 L568.800770 311.533456 L532.134780 306.486553 L555.076871 289.096055 L542.429236 272.410898 L554.943104 262.925171 L567.590739 279.610329 L590.532831 262.219831 L585.485928 298.885821 L593.828506 292.562004 L598.167005 322.113700 L603.381116 318.161314 Z" fill="#888" fill-opacity="0.18" stroke="#000" stroke-width="1"/>
  <path d="M606.717267 453.716991 L577.248855 436.712594 L582.447003 432.739236 L555.117647 420.688029 L563.434685 414.330657 L526.748662 409.431493 L549.620514 391.948721 L536.905771 375.314646 L549.381327 365.778588 L562.096071 382.412663 L584.967923 364.929890 L580.068759 401.615913 L588.385797 395.258542 L592.843300 424.792521 L598.041448 420.819164 Z" fill="#888" fill-opacity="0.18" stroke="#000" stroke-width="1"/>
  <path d="M1046.372919 517.343613 L1024.533369 491.255859 L1030.779682 489.308583 L1009.248690 468.607336 L1019.242792 465.491695 L986.468435 448.295543 L1013.952214 439.727530 L1007.720932 419.739327 L1022.712085 415.065865 L1028.943367 435.054069 L1056.427146 426.486056 L1039.230995 459.260413 L1049.225097 456.144771 L1043.272310 485.414032 L1049.518623 483.466756 Z" fill="#888" fill-opacity="0.18" stroke="#000" stroke-width="1"/>
  <path d="M142.127360 268.857767 L123.086187 297.052989 L119.489488 291.587454 L105.540083 317.998425 L99.785366 309.253568 L92.310018 345.502503 L76.484545 321.454147 L58.994832 332.963582 L50.362756 319.846297 L67.852469 308.336862 L52.026997 284.288507 L88.275931 291.763855 L82.521214 283.018998 L112.296092 280.656383 L108.699394 275.190848 Z" fill="#888" fill-opacity="0.18" stroke="#000" stroke-width="1"/>
  <path d="M116.445362 565.998838 L129.611069 534.626860 L134.206265 539.284380 L142.726916 510.657055 L150.079229 518.109087 L150.328529 481.098225 L170.547388 501.591314 L185.451453 486.886689 L196.479922 498.064738 L181.575857 512.769363 L201.794716 533.262453 L164.783854 533.013152 L172.136166 540.465185 L143.396655 548.599421 L147.991850 553.256941 Z" fill="#888" fill-opacity="0.18" stroke="#000" stroke-width="1"/>
  <path d="M263.473124 110.624300 L292.846342 93.455989 L293.721396 99.940015 L317.732382 82.174942 L319.132469 92.549384 L341.568358 63.113063 L345.418595 91.642779 L366.167479 88.842606 L368.267608 104.404269 L347.518724 107.204442 L351.368962 135.734157 L321.932641 113.298268 L323.332727 123.672710 L295.471504 112.908068 L296.346558 119.392094 Z" fill="#888" fill-opacity="0.18" stroke="#000" stroke-width="1"/>
  <path d="M939.226226 585.220848 L969.772383 600.203142 L964.853473 604.517379 L992.932022 614.701698 L985.061766 621.604477 L1021.994354 624.023169 L1000.351150 643.005811 L1014.156708 658.746323 L1002.351324 669.100492 L988.545766 653.359980 L966.902562 672.342622 L969.321255 635.410035 L961.450999 642.312814 L955.015653 613.145853 L950.096743 617.460090 Z" fill="#888" fill-opacity="0.18" stroke="#000" stroke-width="1"/>
  <path d="M51.269099 677.138279 L79.689476 658.434830 L80.907516 664.863258 L103.941542 645.848555 L105.890406 656.134041 L126.731960 625.548167 L132.091336 653.833252 L152.662308 649.935524 L155.585604 665.363753 L135.014633 669.261481 L140.374009 697.546566 L109.788134 676.705012 L111.736998 686.990498 L83.343596 677.720116 L84.561636 684.148544 Z" fill="#888" fill-opacity="0.18" stroke="#000" stroke-width="1"/>
  <path d="M361.675871 292.453745 L395.633914 294.548527 L392.750370 300.421643 L422.586630 299.034967 L417.972959 308.431952 L452.999599 296.473668 L440.312003 322.315376 L459.105973 331.542718 L452.185466 345.638196 L433.391496 336.410853 L420.703900 362.252562 L408.745616 327.225922 L404.131945 336.622906 L386.983281 312.167874 L384.099736 318.040990 Z" fill="#888" fill-opacity="0.18" stroke="#000" stroke-width="1"/>
  <path d="M414.022497 465.385589 L417.031749 431.496339 L422.825015 434.537127 L422.242983 404.674332 L431.512208 409.539593 L420.502299 374.203380 L445.992667 387.582847 L455.723189 369.044398 L469.627025 376.342290 L459.896503 394.880739 L485.386871 408.260207 L450.050657 419.270115 L459.319881 424.135376 L434.411545 440.618704 L440.204810 443.659492 Z" fill="#888" fill-opacity="0.18" stroke="#000" stroke-width="1"/>
  <path d="M469.756099 376.187300 L463.207922 342.800802 L469.618852 344.107819 L460.742874 315.588662 L471.000362 317.679889 L450.584711 286.808102 L478.792802 292.558977 L482.975257 272.044001 L498.361489 275.180842 L494.179034 295.695818 L522.387125 301.446693 L491.515338 321.862344 L501.772825 323.953572 L482.440711 346.721853 L488.851641 348.028870 Z" fill="#888" fill-opacity="0.18" stroke="#000" stroke-width="1"/>
  <path d="M552.648732 468.732483 L523.039090 451.975217 L528.203815 447.958510 L500.774594 436.136366 L509.038153 429.709635 L472.312427 425.117563 L495.037216 407.444053 L482.183755 390.916934 L494.579094 381.276837 L507.432556 397.803957 L530.157345 380.130447 L525.565273 416.856173 L533.828832 410.429443 L538.533265 439.925097 L543.697990 435.908390 Z" fill="#888" fill-opacity="0.18" stroke="#000" stroke-width="1"/>
  <path d="M1042.186428 1045.863082 L1008.430520 1050.114613 L1010.172549 1043.807977 L981.113543 1050.714459 L983.900790 1040.623842 L951.706132 1058.882267 L959.371060 1031.133071 L939.189827 1025.558578 L943.370697 1010.422653 L963.551930 1015.997146 L971.216858 988.247951 L989.475283 1020.442609 L992.262530 1010.351992 L1013.656607 1031.194706 L1015.398636 1024.888071 Z" fill="#888" fill-opacity="0.18" stroke="#000" stroke-width="1"/>
  <path d="M537.814150 301.202860 L511.582260 279.536647 L517.368562 276.482629 L492.422626 260.056262 L501.680709 255.169833 L466.319429 244.240698 L491.779157 230.803018 L482.006299 212.286852 L495.893424 204.957209 L505.666282 223.473375 L531.126010 210.035695 L520.196874 245.396975 L529.454957 240.510546 L528.941166 270.374593 L534.727467 267.320575 Z" fill="#888" fill-opacity="0.18" stroke="#000" stroke-width="1"/>
  <path d="M860.845829 136.362189 L869.746301 103.524430 L874.917170 107.533224 L879.576433 78.030401 L887.849824 84.444471 L883.201522 47.725819 L905.953346 65.364512 L918.781486 48.817730 L931.191572 58.438836 L918.363432 74.985617 L941.115257 92.624310 L904.396605 97.272611 L912.669995 103.686681 L885.258908 115.550811 L890.429777 119.559605 Z" fill="#888" fill-opacity="0.18" stroke="#000" stroke-width="1"/>
  <path d="M476.751156 488.829627 L509.479565 479.535104 L508.708740 486.032345 L536.393520 474.821714 L535.160200 485.217300 L564.232465 462.311635 L560.840835 490.899497 L581.632007 493.366137 L579.782027 508.959516 L558.990855 506.492876 L555.599225 535.080738 L532.693560 506.008473 L531.460240 516.404059 L507.167090 499.026828 L506.396265 505.524069 Z" fill="#888" fill-opacity="0.18" stroke="#000" stroke-width="1"/>
  <path d="M695.748077 497.853391 L679.045873 468.212655 L685.542912 467.440129 L668.159321 443.151529 L678.554584 441.915487 L649.476322 419.017435 L678.063295 415.618320 L675.591211 394.827795 L691.184105 392.973732 L693.656189 413.764257 L722.243162 410.365142 L699.345109 439.443404 L709.740372 438.207362 L698.536991 465.895076 L705.034030 465.122550 Z" fill="#888" fill-opacity="0.18" stroke="#000" stroke-width="1"/>
  <path d="M202.900373 904.440406 L229.451263 883.166312 L231.263906 889.453015 L252.422905 868.371694 L255.323134 878.430420 L273.219374 846.033033 L281.195005 873.694528 L301.312456 867.894069 L305.662800 882.982157 L285.545349 888.782616 L293.520979 916.444111 L261.123593 898.547870 L264.023822 908.606596 L234.889193 902.026422 L236.701836 908.313125 Z" fill="#888" fill-opacity="0.18" stroke="#000" stroke-width="1"/>
  <path d="M693.882657 749.276298 L660.087751 753.205819 L661.889826 746.916078 L632.766297 753.545207 L635.649617 743.481621 L603.282353 761.432284 L611.211484 733.757424 L591.084313 727.990784 L595.409293 712.895406 L615.536464 718.662046 L623.465595 690.987186 L641.416258 723.354451 L644.299578 713.290865 L665.493976 734.336596 L667.296052 728.046855 Z" fill="#888" fill-opacity="0.18" stroke="#000" stroke-width="1"/>
  <path d="M745.091662 382.744965 L771.603580 361.422322 L773.427724 367.705698 L794.548111 346.585696 L797.466741 356.639097 L815.303670 324.209018 L823.329903 351.855872 L843.436707 346.018612 L847.814652 361.098715 L827.707848 366.935975 L835.734081 394.582830 L803.304002 376.745901 L806.222632 386.799302 L777.076011 380.272451 L778.900155 386.555827 Z" fill="#888" fill-opacity="0.18" stroke="#000" stroke-width="1"/>
  <path d="M816.647601 40.909073 L793.966725 66.268779 L791.142581 60.366870 L773.748061 84.647644 L769.229431 75.204589 L756.918369 110.108798 L744.492138 84.140399 L725.606029 93.177658 L718.828085 79.013076 L737.714194 69.975817 L725.287963 44.007418 L760.192173 56.318480 L755.673543 46.875426 L785.494295 48.563052 L782.670151 42.661143 Z" fill="#888" fill-opacity="0.18" stroke="#000" stroke-width="1"/>
  <path d="M226.620535 144.081118 L226.680843 110.058579 L232.715887 112.585744 L229.547454 82.885806 L239.203523 86.929271 L225.172012 52.680435 L251.726203 63.799964 L259.813134 44.487825 L274.297238 50.553022 L266.210308 69.865161 L292.764499 80.984690 L258.515662 95.016201 L268.171732 99.059666 L244.785974 117.640076 L250.821017 120.167241 Z" fill="#888" fill-opacity="0.18" stroke="#000" stroke-width="1"/>
  <path d="M1055.381030 642.562081 L1029.539992 620.431162 L1035.379876 617.480898 L1010.731072 600.611940 L1020.074888 595.891517 L984.914291 584.333034 L1010.609785 571.351871 L1001.168939 552.664240 L1015.184662 545.583605 L1024.625508 564.271237 L1050.321002 551.290074 L1038.762520 586.450671 L1048.106336 581.730248 L1047.059646 611.580369 L1052.899531 608.630104 Z" fill="#888" fill-opacity="0.18" stroke="#000" stroke-width="1"/>
  <path d="M878.576436 684.851637 L911.132626 674.970781 L910.478622 681.480819 L937.957583 669.774752 L936.911176 680.190813 L965.567345 656.766678 L962.689727 685.410845 L983.521848 687.503658 L981.952238 703.127749 L961.120117 701.034936 L958.242498 729.679103 L934.818363 701.022934 L933.771956 711.438995 L909.170614 694.500895 L908.516610 701.010933 Z" fill="#888" fill-opacity="0.18" stroke="#000" stroke-width="1"/>
  <path d="M852.143198 983.537379 L858.082924 950.037282 L863.590358 953.569489 L865.602832 923.768898 L874.414726 929.420429 L866.513819 893.261865 L890.746528 908.803577 L902.049591 891.179788 L915.267432 899.657085 L903.964370 917.280874 L928.197079 932.822585 L892.038515 940.723492 L900.850409 946.375024 L874.605226 960.633903 L880.112660 964.166111 Z" fill="#888" fill-opacity="0.18" stroke="#000" stroke-width="1"/>
  <path d="M538.276003 115.389278 L531.286868 148.686258 L525.893110 144.982789 L522.945502 174.705455 L514.315488 168.779904 L521.076646 205.168815 L497.344108 188.873551 L485.493007 206.133579 L472.547986 197.245253 L484.399087 179.985225 L460.666550 163.689961 L497.055461 156.928803 L488.425447 151.003252 L515.105592 137.575850 L509.711834 133.872381 Z" fill="#888" fill-opacity="0.18" stroke="#000" stroke-width="1"/>
  <path d="M949.711983 93.417079 L978.675833 75.566805 L979.702224 82.028604 L1003.291357 63.707083 L1004.933582 74.045961 L1026.675211 44.093203 L1031.191332 72.525116 L1051.869086 69.240665 L1054.332425 84.748980 L1033.654670 88.033432 L1038.170791 116.465344 L1008.218033 94.723715 L1009.860259 105.062592 L981.755006 94.952200 L982.781397 101.413998 Z" fill="#888" fill-opacity="0.18" stroke="#000" stroke-width="1"/>
  <path d="M476.268819 381.273874 L495.453960 353.176415 L499.022655 358.660276 L513.106969 332.321001 L518.816882 341.095178 L526.477544 304.884954 L542.179803 329.013942 L559.728158 317.594117 L568.293027 330.755383 L550.744672 342.175208 L566.446931 366.304196 L530.236706 358.643533 L535.946619 367.417710 L506.160046 369.627997 L509.728741 375.111858 Z" fill="#888" fill-opacity="0.18" stroke="#000" stroke-width="1"/>
  <path d="M904.385502 444.271479 L876.463973 463.711774 L875.078235 457.317398 L852.549355 476.927978 L850.332174 466.696976 L830.297622 497.817432 L824.200374 469.682178 L803.738371 474.116539 L800.412600 458.770037 L820.874603 454.335675 L814.777356 426.200420 L845.897812 446.234972 L843.680631 436.003971 L872.306759 444.528646 L870.921021 438.134270 Z" fill="#888" fill-opacity="0.18" stroke="#000" stroke-width="1"/>
  <path d="M862.996711 573.757762 L830.702061 563.052975 L834.990977 558.111971 L805.791347 551.826518 L812.653612 543.920912 L775.733934 546.529266 L794.605162 524.788849 L778.793950 511.064319 L789.087347 499.205910 L804.898559 512.930439 L823.769787 491.190022 L826.378141 528.109699 L833.240406 520.204093 L843.568808 548.229963 L847.857723 543.288960 Z" fill="#888" fill-opacity="0.18" stroke="#000" stroke-width="1"/>
  <path d="M798.512147 410.660457 L828.206269 394.053352 L828.957965 400.552835 L853.302163 383.247190 L854.504876 393.646362 L877.496021 364.641649 L880.803483 393.239371 L901.601826 390.833944 L903.405897 406.432701 L882.607554 408.838128 L885.915016 437.435850 L856.910303 414.444705 L858.113017 424.843876 L830.461357 413.551799 L831.213053 420.051281 Z" fill="#888" fill-opacity="0.18" stroke="#000" stroke-width="1"/>
  <path d="M921.523991 239.453218 L941.055852 211.595665 L944.556315 217.123329 L958.965952 190.960614 L964.566694 199.804876 L972.675496 163.692366 L988.077535 188.014088 L1005.766061 176.812604 L1014.167173 190.078998 L996.478648 201.280482 L1011.880687 225.602204 L975.768177 217.493401 L981.368919 226.337664 L951.557242 228.178657 L955.057706 233.706321 Z" fill="#888" fill-opacity="0.18" stroke="#000" stroke-width="1"/>
  <path d="M665.443913 156.969269 L684.153742 185.385447 L677.725587 186.604930 L696.745461 209.634687 L686.460413 211.585860 L717.050965 232.420547 L688.767083 237.786273 L692.669430 258.356369 L677.241858 261.283128 L673.339511 240.713033 L645.055630 246.078759 L665.890317 215.488206 L655.605269 217.439379 L664.869277 189.043896 L658.441122 190.263379 Z" fill="#888" fill-opacity="0.18" stroke="#000" stroke-width="1"/>
  <path d="M618.448132 356.866995 L627.954396 324.199460 L633.050241 328.303201 L638.254344 298.891594 L646.407695 305.457579 L642.439279 268.659240 L664.860995 286.715697 L677.992964 270.408995 L690.222990 280.257972 L677.091021 296.564674 L699.512737 314.621131 L662.714398 318.589548 L670.867749 325.155532 L643.241930 336.510681 L648.337774 340.614422 Z" fill="#888" fill-opacity="0.18" stroke="#000" stroke-width="1"/>
  <path d="M239.296887 157.585685 L266.692552 177.760282 L261.084956 181.131214 L286.905395 196.145548 L277.933241 201.539039 L313.847353 210.485696 L289.173930 225.317796 L299.960913 243.262104 L286.502682 251.352340 L275.715700 233.408033 L251.042277 248.240133 L259.988934 212.326021 L251.016780 217.719513 L249.869764 187.873078 L244.262168 191.244010 Z" fill="#888" fill-opacity="0.18" stroke="#000" stroke-width="1"/>
  <path d="M234.141969 198.055769 L242.750271 230.971327 L236.270564 230.064846 L246.899992 257.977935 L236.532461 256.527564 L258.825362 286.072320 L230.314650 282.083800 L227.413909 302.818863 L211.862611 300.643307 L214.763353 279.908244 L186.252641 275.919724 L215.797397 253.626822 L205.429866 252.176451 L223.311149 228.251882 L216.831442 227.345400 Z" fill="#888" fill-opacity="0.18" stroke="#000" stroke-width="1"/>
  <path d="M793.666159 859.914917 L808.563424 890.502633 L802.031783 890.884713 L817.929712 916.170700 L807.479087 916.782028 L835.133969 941.380271 L806.394750 943.061422 L807.617405 963.962673 L791.941467 964.879664 L790.718812 943.978414 L761.979593 945.659565 L786.577837 918.004683 L776.127211 918.616011 L788.968502 891.648872 L782.436861 892.030952 Z" fill="#888" fill-opacity="0.18" stroke="#000" stroke-width="1"/>
  <path d="M870.076539 210.502137 L844.151019 188.470246 L849.979573 185.497660 L825.266410 168.723130 L834.592098 163.966993 L799.387536 152.543117 L825.033177 139.463740 L815.520903 120.812365 L829.509434 113.678159 L839.021708 132.329534 L864.667349 119.250157 L853.243473 154.454719 L862.569160 149.698582 L861.636683 179.552489 L867.465237 176.579903 Z" fill="#888" fill-opacity="0.18" stroke="#000" stroke-width="1"/>
  <path d="M118.455611 331.964425 L130.350120 300.088769 L135.128750 304.557887 L142.492239 275.611310 L150.138045 282.761900 L148.900002 245.770910 L169.925971 265.435030 L184.227149 250.143417 L195.695859 260.869301 L181.394680 276.160914 L202.420649 295.825035 L165.429659 297.063078 L173.075465 304.213668 L144.686008 313.496124 L149.464637 317.965242 Z" fill="#888" fill-opacity="0.18" stroke="#000" stroke-width="1"/>
  <path d="M540.577029 471.045275 L507.101702 477.123046 L508.498793 470.731141 L479.857572 479.204966 L482.092918 468.977918 L450.936932 488.957172 L457.084134 460.832789 L436.630038 456.362096 L439.983058 441.021524 L460.437154 445.492217 L466.584357 417.367835 L486.563611 448.523821 L488.798958 438.296773 L511.292976 457.947331 L512.690068 451.555426 Z" fill="#888" fill-opacity="0.18" stroke="#000" stroke-width="1"/>
  <path d="M514.787181 510.263640 L482.757650 521.737349 L483.089945 515.202986 L456.221445 528.249403 L456.753117 517.794423 L429.286486 542.602693 L430.748585 513.851498 L409.838624 512.788154 L410.636132 497.105683 L431.546093 498.169027 L433.008191 469.417832 L457.816461 496.884463 L458.348134 486.429482 L483.754535 502.134261 L484.086830 495.599898 Z" fill="#888" fill-opacity="0.18" stroke="#000" stroke-width="1"/>
  <path d="M511.179787 582.589088 L511.010042 616.611258 L504.983158 614.064693 L508.056041 643.774669 L498.413028 639.700165 L512.334301 673.993958 L485.816014 662.789072 L477.667006 682.075098 L463.202486 675.963342 L471.351495 656.677316 L444.833208 645.472429 L479.127002 631.551157 L469.483988 627.476653 L492.929392 608.971563 L486.902509 606.424998 Z" fill="#888" fill-opacity="0.18" stroke="#000" stroke-width="1"/>
  <path d="M226.121645 92.222918 L193.742024 102.667870 L194.282833 96.147453 L167.011385 108.329136 L167.876679 97.896468 L139.631775 121.814902 L142.011333 93.125066 L121.145998 91.394478 L122.443939 75.745477 L143.309274 77.476065 L145.688833 48.786229 L169.607267 77.031133 L170.472561 66.598465 L195.364451 83.106618 L195.905259 76.586201 Z" fill="#888" fill-opacity="0.18" stroke="#000" stroke-width="1"/>
  <path d="M688.084386 487.931013 L655.452714 478.302368 L659.575526 473.221941 L630.183633 467.907632 L636.780132 459.778949 L599.967177 463.609407 L618.107550 441.255530 L601.850184 428.062531 L611.744934 415.869507 L628.002299 429.062506 L646.142672 406.708628 L649.973131 443.521583 L656.569630 435.392901 L667.821150 463.061088 L671.943962 457.980661 Z" fill="#888" fill-opacity="0.18" stroke="#000" stroke-width="1"/>
  <path d="M607.990887 100.964015 L633.797113 78.792511 L635.824138 85.013402 L656.248246 63.219340 L659.491486 73.172766 L676.266948 40.181101 L685.185860 67.553021 L705.092711 61.066539 L709.957572 75.996677 L690.050721 82.483159 L698.969633 109.855079 L665.977968 93.079617 L669.221208 103.033042 L639.878189 97.455184 L641.905214 103.676075 Z" fill="#888" fill-opacity="0.18" stroke="#000" stroke-width="1"/>
  <path d="M1051.986246 1048.893767 L1024.659733 1028.625601 L1030.278824 1025.273866 L1004.509882 1010.171319 L1013.500427 1004.808543 L977.617121 995.739120 L1002.341122 980.991484 L991.615568 963.010393 L1005.101387 954.966228 L1015.826940 972.947319 L1040.550941 958.199683 L1031.481519 994.082989 L1040.472064 988.720212 L1041.517006 1018.570395 L1047.136097 1015.218659 Z" fill="#888" fill-opacity="0.18" stroke="#000" stroke-width="1"/>
  <path d="M821.057404 920.048810 L819.962050 886.043854 L826.079450 888.364572 L821.904043 858.789392 L831.691883 862.502541 L816.505155 828.750069 L843.421715 838.961228 L850.848013 819.385548 L865.529773 824.955272 L858.103475 844.530952 L885.020035 854.742111 L851.267563 869.928839 L861.055403 873.641988 L838.314250 893.006008 L844.431650 895.326726 Z" fill="#888" fill-opacity="0.18" stroke="#000" stroke-width="1"/>
  <path d="M788.032745 547.194072 L820.273441 558.060275 L815.959863 562.979762 L845.127685 569.411205 L838.225959 577.282384 L875.158222 574.858750 L856.178476 596.504494 L871.920836 610.307945 L861.568247 622.114715 L845.825888 608.311263 L826.846142 629.957007 L824.422507 593.024743 L817.520781 600.895923 L807.332705 572.818737 L803.019127 577.738224 Z" fill="#888" fill-opacity="0.18" stroke="#000" stroke-width="1"/>
  <path d="M868.789968 710.947931 L840.801985 691.603432 L846.306037 688.065957 L820.047223 673.832195 L828.853706 668.172235 L792.687599 660.305927 L816.905427 644.741037 L805.585507 627.128071 L818.795232 618.638132 L830.115152 636.251098 L854.332980 620.686208 L846.466672 656.852315 L855.273155 651.192355 L857.314140 680.991007 L862.818192 677.453533 Z" fill="#888" fill-opacity="0.18" stroke="#000" stroke-width="1"/>
  <path d="M954.805405 443.907030 L930.090803 420.524872 L936.069485 417.867114 L912.285353 399.799454 L921.851244 395.547042 L887.305484 382.263346 L913.611685 370.569211 L905.106859 351.437428 L919.455696 345.058809 L927.960521 364.190591 L954.266722 352.496456 L940.983026 387.042216 L950.548917 382.789803 L948.026849 412.551598 L954.005531 409.893840 Z" fill="#888" fill-opacity="0.18" stroke="#000" stroke-width="1"/>
  <path d="M846.228575 706.108183 L812.210459 705.556260 L814.824566 699.558364 L785.081945 702.297306 L789.264517 692.700672 L754.816503 706.235828 L766.318575 679.845085 L747.125308 671.479941 L753.399165 657.084991 L772.592433 665.450134 L784.094505 639.059391 L797.629661 673.507405 L801.812232 663.910771 L820.052781 687.562572 L822.666888 681.564676 Z" fill="#888" fill-opacity="0.18" stroke="#000" stroke-width="1"/>
  <path d="M140.181968 511.843127 L106.161353 512.210071 L108.612533 506.143768 L78.954725 509.684916 L82.876613 499.978831 L48.806681 514.439325 L59.591872 487.747591 L40.179702 479.903816 L46.062533 465.344689 L65.474703 473.188464 L76.259894 446.496730 L90.720388 480.566661 L94.642275 470.860576 L113.514892 494.011162 L115.966072 487.944859 Z" fill="#888" fill-opacity="0.18" stroke="#000" stroke-width="1"/>
  <path d="M46.424065 1035.499705 L54.206919 1002.379257 L59.510633 1006.210566 L63.167697 976.566829 L71.653640 982.696923 L65.764017 946.156829 L89.100361 963.014588 L101.360549 946.042702 L114.089464 955.237843 L101.829276 972.209730 L125.165620 989.067489 L88.625526 994.957111 L97.111470 1001.087205 L70.118062 1013.873184 L75.421777 1017.704493 Z" fill="#888" fill-opacity="0.18" stroke="#000" stroke-width="1"/>
  <path d="M196.452858 537.535467 L181.690860 568.188693 L177.341323 563.300970 L167.359412 591.452111 L160.400152 583.631754 L158.247408 620.580797 L139.109443 599.074814 L123.468729 612.993333 L113.029839 601.262797 L128.670554 587.344278 L109.532589 565.838295 L146.481632 567.991039 L139.522372 560.170681 L168.642248 553.525523 L164.292711 548.637800 Z" fill="#888" fill-opacity="0.18" stroke="#000" stroke-width="1"/>
  <path d="M115.338664 173.860182 L148.500152 181.466270 L144.697186 186.790344 L174.360008 190.289244 L168.275262 198.807763 L204.783422 192.723329 L188.050373 216.149256 L205.087410 228.318747 L195.960292 241.096525 L178.923255 228.927034 L162.190205 252.352961 L156.105772 215.844800 L150.021026 224.363319 L137.091254 197.438492 L133.288288 202.762567 Z" fill="#888" fill-opacity="0.18" stroke="#000" stroke-width="1"/>
  <path d="M846.348223 321.291907 L858.267873 289.425643 L863.042975 293.898529 L870.429295 264.957770 L878.069459 272.114388 L876.860595 235.122433 L897.871046 254.803133 L912.184282 239.522805 L923.644528 250.257732 L909.331291 265.538060 L930.341742 285.218760 L893.349787 286.427624 L900.989951 293.584242 L872.593180 302.844302 L877.368282 307.317188 Z" fill="#888" fill-opacity="0.18" stroke="#000" stroke-width="1"/>
  <path d="M352.771838 273.372170 L358.349746 306.934407 L351.979386 305.442155 L360.025168 334.206554 L349.832591 331.818950 L369.345023 363.269404 L341.315435 356.703492 L336.540226 377.088646 L321.251360 373.507240 L326.026569 353.122085 L297.996982 346.556173 L329.447436 327.043741 L319.254859 324.656136 L339.238664 302.457649 L332.868303 300.965396 Z" fill="#888" fill-opacity="0.18" stroke="#000" stroke-width="1"/>
  <path d="M569.881230 330.741518 L599.657288 347.201262 L594.533069 351.269517 L622.079368 362.816235 L613.880617 369.325441 L650.650511 373.549302 L628.103946 391.449620 L641.122359 407.847122 L628.824233 417.610932 L615.805819 401.213430 L593.259254 419.113748 L597.483115 382.343855 L589.284364 388.853061 L584.284630 359.406025 L579.160411 363.474279 Z" fill="#888" fill-opacity="0.18" stroke="#000" stroke-width="1"/>
  <path d="M588.409173 513.874974 L580.081356 546.862613 L574.841525 542.944388 L570.696254 572.523807 L562.312524 566.254647 L567.598949 602.886871 L544.543693 585.646681 L532.005373 602.414141 L519.429779 593.010401 L531.968098 576.242942 L508.912842 559.002752 L545.545065 553.716328 L537.161335 547.447168 L564.361863 535.107938 L559.122032 531.189713 Z" fill="#888" fill-opacity="0.18" stroke="#000" stroke-width="1"/>
  <path d="M772.766648 1057.991302 L780.149989 1024.779510 L785.499468 1028.546656 L788.799197 998.861018 L797.358364 1004.888451 L791.029030 968.421951 L814.566738 984.997393 L826.621605 967.879059 L839.460355 976.920209 L827.405489 994.038542 L850.943197 1010.613984 L814.476697 1016.943318 L823.035864 1022.970751 L796.198427 1036.080947 L801.547906 1039.848093 Z" fill="#888" fill-opacity="0.18" stroke="#000" stroke-width="1"/>
  <path d="M509.640257 631.827215 L537.090850 611.727419 L538.628492 618.086977 L560.683910 597.945382 L563.144137 608.120675 L582.431800 576.531877 L589.197424 604.513930 L609.548009 599.593476 L613.238349 614.856415 L592.887765 619.776869 L599.653389 647.758922 L568.064591 628.471259 L570.524818 638.646551 L541.703775 630.806092 L543.241417 637.165649 Z" fill="#888" fill-opacity="0.18" stroke="#000" stroke-width="1"/>
  <path d="M753.826610 110.150892 L780.368706 131.435957 L774.627119 134.573233 L799.807712 150.637573 L790.621173 155.657214 L826.136622 166.074459 L800.873640 179.878471 L810.912922 198.251549 L797.133114 205.781010 L787.093832 187.407932 L761.830851 201.211945 L772.248096 165.696496 L763.061557 170.716137 L763.143946 140.847784 L757.402359 143.985059 Z" fill="#888" fill-opacity="0.18" stroke="#000" stroke-width="1"/>
  <path d="M948.374384 259.256142 L967.187317 287.604165 L960.763634 288.846992 L979.867042 311.807504 L969.589150 313.796026 L1000.255186 334.519450 L971.990983 339.987887 L975.968028 360.543671 L960.551190 363.526455 L956.574145 342.970671 L928.309942 348.439107 L949.033366 317.773071 L938.755474 319.761593 L947.916269 291.332645 L941.492587 292.575471 Z" fill="#888" fill-opacity="0.18" stroke="#000" stroke-width="1"/>
  <path d="M958.522150 652.721469 L925.759019 661.892842 L926.554273 655.398545 L898.827528 666.504980 L900.099935 656.114106 L870.941732 678.910275 L874.440851 650.335371 L853.659102 647.790557 L855.567713 632.204246 L876.349461 634.749059 L879.848580 606.174155 L902.644749 635.332358 L903.917155 624.941483 L928.144782 642.409952 L928.940036 635.915656 Z" fill="#888" fill-opacity="0.18" stroke="#000" stroke-width="1"/>
  <path d="M92.728808 767.264908 L119.557977 788.186966 L113.859597 791.402051 L139.256374 807.122387 L130.138965 812.266523 L165.792828 822.199706 L140.719953 836.346080 L151.008225 854.580899 L137.332111 862.297103 L127.043839 844.062284 L101.970963 858.208658 L111.904147 822.554795 L102.786737 827.698931 L102.462835 797.832221 L96.764454 801.047306 Z" fill="#888" fill-opacity="0.18" stroke="#000" stroke-width="1"/>
  <path d="M198.668841 356.848817 L174.729698 381.024307 L172.208838 374.986627 L153.604011 398.352964 L149.570634 388.692676 L135.503356 422.926837 L124.411571 396.361046 L105.090995 404.427799 L99.040930 389.937367 L118.361506 381.870614 L107.269720 355.304823 L141.503881 369.372101 L137.470505 359.711813 L167.167117 362.911267 L164.646257 356.873587 Z" fill="#888" fill-opacity="0.18" stroke="#000" stroke-width="1"/>
  <path d="M193.689884 671.631094 L212.428693 643.234018 L216.083587 648.660810 L229.749984 622.102291 L235.597815 630.785157 L242.685401 594.458415 L258.766937 618.336295 L276.132669 606.640633 L284.904415 619.664932 L267.538684 631.360594 L283.620220 655.238475 L247.293477 648.150889 L253.141308 656.833754 L223.393376 659.514392 L227.048271 664.941183 Z" fill="#888" fill-opacity="0.18" stroke="#000" stroke-width="1"/>
  <path d="M546.457523 532.392888 L521.699777 555.729358 L519.388403 549.608422 L499.989681 572.319980 L496.291482 562.526481 L481.053234 596.255725 L470.883186 569.323605 L451.296189 576.720003 L445.748890 562.029756 L465.335887 554.633357 L455.165839 527.701237 L488.895083 542.939485 L485.196884 533.145986 L514.765654 537.366549 L512.454279 531.245612 Z" fill="#888" fill-opacity="0.18" stroke="#000" stroke-width="1"/>
  <path d="M738.367609 389.811477 L714.688168 365.381558 L720.776278 362.985054 L697.796418 343.904924 L707.537394 340.070517 L673.598936 325.304096 L700.386619 314.759476 L692.717805 295.277525 L707.329269 289.525914 L714.998083 309.007865 L741.785766 298.463245 L727.019345 332.401703 L736.760321 328.567296 L732.952497 358.192045 L739.040607 355.795540 Z" fill="#888" fill-opacity="0.18" stroke="#000" stroke-width="1"/>
  <path d="M617.023439 162.983548 L588.374488 144.632133 L593.751141 140.903873 L567.009467 127.599432 L575.612111 121.634217 L539.192462 115.040643 L562.849734 98.636302 L550.919304 81.431012 L563.823271 72.483190 L575.753701 89.688479 L599.410974 73.284137 L592.817401 109.703787 L601.420045 103.738572 L604.504447 133.447354 L609.881100 129.719095 Z" fill="#888" fill-opacity="0.18" stroke="#000" stroke-width="1"/>
  <path d="M952.318084 730.238604 L919.564298 739.443296 L920.352947 732.948194 L892.637513 744.082825 L893.899350 733.690662 L864.764349 756.516476 L868.234401 727.938028 L847.450075 725.414353 L849.342831 709.826109 L870.127157 712.349783 L873.597210 683.771335 L896.423024 712.906336 L897.684862 702.514173 L921.930243 719.957990 L922.718892 713.462888 Z" fill="#888" fill-opacity="0.18" stroke="#000" stroke-width="1"/>
  <path d="M1058.955243 409.382530 L1025.072586 412.465124 L1027.031494 406.222448 L997.751195 412.120704 L1000.885448 402.132423 L968.079115 419.267494 L976.698309 391.799722 L956.721748 385.531217 L961.423126 370.548796 L981.399688 376.817301 L990.018881 349.349529 L1007.153952 382.155862 L1010.288205 372.167581 L1030.949309 393.737098 L1032.908217 387.494422 Z" fill="#888" fill-opacity="0.18" stroke="#000" stroke-width="1"/>
  <path d="M499.283076 782.002000 L476.520131 756.715933 L482.692432 754.545445 L460.431418 734.631316 L470.307099 731.158535 L436.935943 715.151285 L464.094066 705.601137 L457.148504 685.849774 L471.962026 680.640603 L478.907588 700.391965 L506.065711 690.841817 L490.058461 724.212973 L499.934142 720.740191 L495.037034 750.204468 L501.209334 748.033980 Z" fill="#888" fill-opacity="0.18" stroke="#000" stroke-width="1"/>
  <path d="M808.624401 481.960115 L776.387255 492.836845 L776.840879 486.309783 L749.734658 498.854824 L750.460456 488.411525 L722.537712 512.705278 L724.533657 483.986205 L703.647058 482.534608 L704.735755 466.869659 L725.622354 468.321255 L727.618299 439.602182 L751.912052 467.524926 L752.637850 457.081626 L777.748127 473.255658 L778.201751 466.728596 Z" fill="#888" fill-opacity="0.18" stroke="#000" stroke-width="1"/>
  <path d="M546.043083 434.447818 L578.055327 445.969668 L573.642259 450.800107 L602.672766 457.825415 L595.611856 465.554117 L632.585887 463.884635 L613.168386 485.138567 L628.625791 499.260386 L618.034426 510.853440 L602.577021 496.731621 L583.159520 517.985553 L581.490037 481.011523 L574.429128 488.740225 L564.816122 460.460985 L560.403053 465.291424 Z" fill="#888" fill-opacity="0.18" stroke="#000" stroke-width="1"/>
  <path d="M330.425113 650.976661 L360.503042 635.075244 L361.101079 641.590662 L385.847066 624.864592 L386.803927 635.289260 L410.473446 606.835438 L413.104812 635.503276 L433.954149 633.589554 L435.389439 649.226557 L414.540103 651.140278 L417.171470 679.808115 L388.717648 656.138596 L389.674509 666.563264 L362.297155 654.621497 L362.895193 661.136915 Z" fill="#888" fill-opacity="0.18" stroke="#000" stroke-width="1"/>
  <path d="M751.594840 604.135282 L737.772870 573.046860 L744.313859 572.892695 L729.307023 547.067898 L739.772607 546.821235 L712.991989 521.273934 L741.772344 520.595609 L741.279017 499.664442 L756.977393 499.294447 L757.470720 520.225614 L786.251076 519.547290 L760.703775 546.327908 L771.169358 546.081244 L757.395839 572.584366 L763.936829 572.430202 Z" fill="#888" fill-opacity="0.18" stroke="#000" stroke-width="1"/>
  <path d="M577.771660 702.197871 L592.350833 732.938472 L585.815580 733.252778 L601.450359 758.702316 L590.993954 759.205205 L618.392188 784.088993 L589.637076 785.471938 L590.642854 806.384746 L574.958248 807.139080 L573.952470 786.226271 L545.197358 787.609216 L570.081146 760.210983 L559.624742 760.713872 L572.745075 733.881389 L566.209822 734.195695 Z" fill="#888" fill-opacity="0.18" stroke="#000" stroke-width="1"/>
  <path d="M727.799334 609.616571 L738.411500 641.941774 L731.888375 641.434673 L744.210848 668.642797 L733.773847 667.831435 L757.837945 695.952340 L729.136194 693.721096 L727.513471 714.595097 L711.857970 713.378055 L713.480693 692.504054 L684.778941 690.272811 L712.899846 666.208713 L702.462845 665.397351 L718.842124 640.420472 L712.318999 639.913371 Z" fill="#888" fill-opacity="0.18" stroke="#000" stroke-width="1"/>
  <path d="M359.525951 540.412261 L361.878846 506.471124 L367.729869 509.399237 L366.570069 479.553297 L375.931706 484.238277 L364.240065 449.121734 L389.984566 462.005430 L399.354527 443.282156 L413.396982 450.309626 L404.027022 469.032900 L429.771523 481.916596 L394.654980 493.608238 L404.016617 498.293218 L379.431916 515.255462 L385.282939 518.183575 Z" fill="#888" fill-opacity="0.18" stroke="#000" stroke-width="1"/>
  <path d="M212.921348 543.873575 L199.480533 512.618474 L206.022919 512.544299 L191.332967 486.537941 L201.800785 486.419260 L175.334538 460.546420 L204.121036 460.220046 L203.883674 439.284411 L219.585400 439.106390 L219.822762 460.042025 L248.609260 459.715652 L222.736419 486.181898 L233.204237 486.063217 L219.107691 512.395947 L225.650077 512.321771 Z" fill="#888" fill-opacity="0.18" stroke="#000" stroke-width="1"/>
  <path d="M517.939643 1022.107846 L494.646502 997.309329 L500.771471 995.008662 L478.093870 975.570254 L487.893820 971.889186 L454.191275 956.591980 L481.141138 946.469043 L473.779003 926.869143 L488.478929 921.347541 L495.841064 940.947442 L522.790928 930.824506 L507.493721 964.527051 L517.293671 960.845983 L513.021409 990.407327 L519.146378 988.106660 Z" fill="#888" fill-opacity="0.18" stroke="#000" stroke-width="1"/>
  <path d="M332.597352 499.244101 L307.223360 521.908994 L305.076781 515.728338 L285.076630 537.912099 L281.642103 528.023048 L265.505794 561.331991 L256.060846 534.137103 L236.282746 541.006156 L231.130956 526.172581 L250.909056 519.303527 L241.464107 492.108639 L274.773050 508.244948 L271.338523 498.355898 L300.783623 503.367025 L298.637044 497.186369 Z" fill="#888" fill-opacity="0.18" stroke="#000" stroke-width="1"/>
  <path d="M190.255821 556.426482 L199.485531 589.173227 L192.989829 588.389541 L204.145628 616.096461 L193.752504 614.842562 L216.600568 643.960118 L188.019477 640.511898 L185.511681 661.298146 L169.921995 659.417298 L172.429791 638.631050 L143.848700 635.182830 L172.966256 612.334766 L162.573132 611.080867 L179.998424 586.822168 L173.502721 586.038481 Z" fill="#888" fill-opacity="0.18" stroke="#000" stroke-width="1"/>
  <path d="M355.157220 534.689696 L333.849678 508.165641 L340.134092 506.345076 L319.026119 485.212665 L329.081181 482.299760 L296.661264 464.444367 L324.312685 456.433878 L318.486875 436.323754 L333.569468 431.954397 L339.395278 452.064521 L367.046699 444.054033 L349.191306 476.473950 L359.246368 473.561045 L352.702919 502.703945 L358.987333 500.883379 Z" fill="#888" fill-opacity="0.18" stroke="#000" stroke-width="1"/>
  <path d="M383.699902 755.374334 L357.771770 733.345515 L363.599973 730.372238 L338.884822 713.600636 L348.209946 708.843394 L313.004031 697.423690 L338.648122 684.341274 L329.133638 665.691026 L343.121324 658.555163 L352.635808 677.205411 L378.279899 664.122995 L366.860194 699.328910 L376.185318 694.571668 L375.256378 724.425686 L381.084580 721.452409 Z" fill="#888" fill-opacity="0.18" stroke="#000" stroke-width="1"/>
  <path d="M424.849620 539.837127 L447.270255 565.427203 L441.069307 567.514441 L463.060341 587.726311 L453.138824 591.065890 L486.291565 607.520733 L459.007394 616.704577 L465.686553 636.547611 L450.804278 641.556980 L444.125119 621.713946 L416.840948 630.897790 L433.295791 597.745049 L423.374274 601.084629 L428.667411 571.688915 L422.466463 573.776152 Z" fill="#888" fill-opacity="0.18" stroke="#000" stroke-width="1"/>
  <path d="M300.901140 941.725418 L302.759072 907.753593 L308.652152 910.596112 L307.057453 880.770247 L316.486382 885.318278 L304.284137 850.375878 L330.213691 862.882964 L339.309754 844.025106 L353.453147 850.847152 L344.357085 869.705010 L370.286639 882.212096 L335.344239 894.414340 L344.773168 898.962371 L320.438313 916.281151 L326.331394 919.123670 Z" fill="#888" fill-opacity="0.18" stroke="#000" stroke-width="1"/>
  <path d="M299.358414 1059.089414 L292.026275 1025.866281 L298.466190 1027.022050 L288.921452 998.719696 L299.225317 1000.568926 L278.088731 970.186188 L306.424359 975.271571 L310.122820 954.663841 L325.578618 957.437687 L321.880157 978.045417 L350.215786 983.130801 L319.833047 1004.267387 L330.136912 1006.116618 L311.346021 1029.333588 L317.785937 1030.489357 Z" fill="#888" fill-opacity="0.18" stroke="#000" stroke-width="1"/>
  <path d="M336.173928 163.183655 L363.042076 142.311676 L364.759872 148.624955 L386.233837 127.864558 L388.982311 137.965804 L407.364243 105.841504 L414.922545 133.619932 L435.125038 128.122985 L439.247748 143.274855 L419.045255 148.771802 L426.603557 176.550230 L394.479258 158.168297 L397.227731 168.269544 L368.195464 161.251513 L369.913260 167.564792 Z" fill="#888" fill-opacity="0.18" stroke="#000" stroke-width="1"/>
  <path d="M590.360013 600.065601 L591.904145 566.078066 L597.823225 568.866044 L595.953160 539.056177 L605.423686 543.516941 L592.899279 508.688715 L618.943227 520.955815 L627.864755 502.014762 L642.070545 508.705907 L633.149017 527.646960 L659.192965 539.914061 L624.364740 552.438468 L633.835266 556.899232 L609.661383 574.441998 L615.580462 577.229975 Z" fill="#888" fill-opacity="0.18" stroke="#000" stroke-width="1"/>
  <path d="M704.518075 750.990203 L676.634657 731.495285 L682.157676 727.987498 L655.975884 713.612553 L664.812715 708.000093 L628.689488 699.939165 L652.990773 684.504900 L641.765854 666.831238 L655.021100 658.412549 L666.246020 676.086211 L690.547305 660.651946 L682.486377 696.775173 L691.323208 691.162713 L693.203715 720.971923 L698.726734 717.464136 Z" fill="#888" fill-opacity="0.18" stroke="#000" stroke-width="1"/>
  <path d="M961.665046 830.831772 L984.053893 805.213880 L986.945468 811.083046 L1004.060667 786.604581 L1008.687187 795.995247 L1020.597551 760.952283 L1033.320481 786.776613 L1052.101812 777.523574 L1059.041592 791.609572 L1040.260261 800.862612 L1052.983190 826.686942 L1017.940227 814.776578 L1022.566746 824.167244 L992.728618 822.821378 L995.620192 828.690544 Z" fill="#888" fill-opacity="0.18" stroke="#000" stroke-width="1"/>
  <path d="M854.642086 882.581492 L883.969709 865.335409 L884.861941 871.817094 L908.825770 853.988459 L910.253341 864.359155 L932.611152 834.863488 L936.536973 863.382901 L957.278364 860.527758 L959.419721 876.083802 L938.678330 878.938944 L942.604150 907.458357 L913.108483 885.100546 L914.536055 895.471242 L886.646405 884.780463 L887.538637 891.262148 Z" fill="#888" fill-opacity="0.18" stroke="#000" stroke-width="1"/>
  <path d="M217.701255 640.873151 L207.421715 608.440638 L213.939287 609.014722 L201.896966 581.681449 L212.325081 582.599984 L188.551131 554.233360 L217.228447 556.759330 L219.065516 535.903100 L234.707689 537.280903 L232.870619 558.137132 L261.547935 560.663103 L233.181311 584.437053 L243.609426 585.355588 L226.974431 610.162890 L233.492003 610.736975 Z" fill="#888" fill-opacity="0.18" stroke="#000" stroke-width="1"/>
  <path d="M136.845526 425.501760 L160.538348 401.084818 L163.120289 407.096631 L181.487272 383.542879 L185.618377 393.161781 L199.337867 358.786765 L210.698406 385.238743 L229.936208 376.976533 L236.132866 391.404884 L216.895064 399.667095 L228.255603 426.119073 L193.880587 412.399583 L198.011693 422.018484 L168.284170 419.120258 L170.866111 425.132071 Z" fill="#888" fill-opacity="0.18" stroke="#000" stroke-width="1"/>
  <path d="M501.550939 801.406481 L500.915507 767.389823 L507.000967 769.793049 L503.225862 740.164113 L512.962597 744.009275 L498.233665 710.054531 L525.009687 720.628728 L532.700012 701.155257 L547.305115 706.923001 L539.614790 726.396471 L566.390812 736.970668 L532.436068 751.699600 L542.172803 755.544763 L519.171886 774.599502 L525.257345 777.002729 Z" fill="#888" fill-opacity="0.18" stroke="#000" stroke-width="1"/>
  <path d="M515.887749 917.800761 L533.386295 888.623068 L537.271496 893.887433 L549.781510 866.765028 L555.997832 875.188010 L561.514484 838.589750 L578.609368 861.752952 L595.455333 849.320309 L604.779816 861.954783 L587.933850 874.387426 L605.028735 897.550628 L568.430475 892.033975 L574.646796 900.456958 L545.041898 904.416161 L548.927099 909.680525 Z" fill="#888" fill-opacity="0.18" stroke="#000" stroke-width="1"/>
  <path d="M333.810420 44.919823 L367.760108 47.145923 L364.853871 53.007842 L394.695271 51.736568 L390.045291 61.115640 L425.117918 49.292910 L412.330474 75.085356 L431.088617 84.385315 L424.113648 98.453922 L405.355505 89.153963 L392.568062 114.946409 L380.745332 79.873782 L376.095353 89.252853 L359.041396 64.731682 L356.135159 70.593601 Z" fill="#888" fill-opacity="0.18" stroke="#000" stroke-width="1"/>
  <path d="M829.689950 181.171010 L846.896932 210.521592 L840.414063 211.405185 L858.210744 235.392753 L847.838155 236.806502 L877.303999 259.203603 L848.779379 263.091411 L851.606875 283.836589 L836.047992 285.957212 L833.220495 265.212034 L804.695875 269.099842 L827.092977 239.633998 L816.720388 241.047746 L827.448327 213.172370 L820.965459 214.055963 Z" fill="#888" fill-opacity="0.18" stroke="#000" stroke-width="1"/>
  <path d="M297.610698 539.268578 L327.983407 554.599442 L323.015450 558.857107 L350.975618 569.362072 L343.026887 576.174337 L379.929378 579.015504 L358.070366 597.749233 L371.694895 613.646696 L359.771798 623.865093 L346.147268 607.967630 L324.288256 626.701358 L327.129423 589.798867 L319.180692 596.611132 L313.079536 567.372438 L308.111578 571.630104 Z" fill="#888" fill-opacity="0.18" stroke="#000" stroke-width="1"/>
  <path d="M501.121153 784.286798 L498.318162 818.193731 L492.506502 815.188250 L493.270228 845.046950 L483.971572 840.238180 L495.196287 875.506747 L469.624981 862.282628 L460.007440 880.879941 L446.059455 873.666786 L455.676996 855.069473 L430.105691 841.845353 L465.374259 830.620639 L456.075602 825.811868 L480.883181 809.177286 L475.071521 806.171805 Z" fill="#888" fill-opacity="0.18" stroke="#000" stroke-width="1"/>
  <path d="M736.057076 601.935055 L710.904828 624.845778 L708.698209 618.686302 L688.914865 641.063625 L685.384275 631.208463 L669.572845 664.672844 L659.863722 637.571148 L640.153398 644.632329 L634.857513 629.849585 L654.567837 622.788405 L644.858714 595.686709 L678.323094 611.498139 L674.792504 601.642977 L704.284971 606.367349 L702.078352 600.207873 Z" fill="#888" fill-opacity="0.18" stroke="#000" stroke-width="1"/>
  <path d="M41.781618 202.585481 L54.917331 171.200933 L59.516977 175.854059 L68.010261 147.218601 L75.369693 154.663603 L75.583616 117.652519 L95.822054 138.126272 L110.712057 123.407408 L121.751205 134.574910 L106.861203 149.293774 L127.099641 169.767528 L90.088557 169.553605 L97.447989 176.998607 L68.716267 185.160310 L73.315912 189.813436 Z" fill="#888" fill-opacity="0.18" stroke="#000" stroke-width="1"/>
  <path d="M554.098950 858.257823 L535.344664 886.644678 L531.692728 881.215896 L518.011855 907.766960 L512.168758 899.080907 L505.061369 935.403780 L488.992853 911.517136 L471.620748 923.203329 L462.856103 910.174251 L480.228208 898.488057 L464.159692 874.601413 L500.482565 881.708802 L494.639468 873.022750 L524.388857 870.358330 L520.736922 864.929547 Z" fill="#888" fill-opacity="0.18" stroke="#000" stroke-width="1"/>
  <path d="M370.738206 290.783671 L392.773858 264.861347 L395.745598 270.690333 L412.523713 245.979604 L417.278497 255.305981 L428.707481 220.103078 L441.783137 245.750615 L460.435892 236.241047 L467.568068 250.230614 L448.915313 259.740182 L461.990969 285.387720 L426.788066 273.958736 L431.542850 283.285114 L401.689078 282.348305 L404.660818 288.177291 Z" fill="#888" fill-opacity="0.18" stroke="#000" stroke-width="1"/>
  <path d="M723.809319 750.788367 L724.476390 784.804421 L718.388698 782.406855 L722.191359 812.032268 L712.451052 808.196163 L727.211559 842.137193 L700.425713 831.587906 L692.753504 851.068521 L678.143043 845.314364 L685.815252 825.833749 L659.029407 815.284461 L692.970437 800.523954 L683.230129 796.687850 L706.213313 777.611725 L700.125621 775.214159 Z" fill="#888" fill-opacity="0.18" stroke="#000" stroke-width="1"/>
  <path d="M331.225154 969.227184 L362.367437 955.527001 L362.495999 962.068544 L388.379336 947.162901 L388.585035 957.629370 L414.236960 930.948950 L414.802632 959.731740 L435.735571 959.320342 L436.044119 975.020046 L415.111181 975.431444 L415.676853 1004.214234 L388.996433 978.562309 L389.202132 989.028778 L362.753123 975.151630 L362.881685 981.693173 Z" fill="#888" fill-opacity="0.18" stroke="#000" stroke-width="1"/>
  <path d="M1043.726440 832.085829 L1030.973846 863.627994 L1026.317885 859.031219 L1018.173903 887.767970 L1010.724364 880.413131 L1010.961113 917.424076 L990.474881 897.198268 L975.765203 912.097346 L964.590895 901.065087 L979.300573 886.166010 L958.814341 865.940202 L995.825286 865.703453 L988.375747 858.348614 L1017.005961 849.837671 L1012.349999 845.240896 Z" fill="#888" fill-opacity="0.18" stroke="#000" stroke-width="1"/>
  <path d="M218.659984 99.008634 L205.418169 130.348564 L200.834292 125.679903 L192.244180 154.286463 L184.909977 146.816607 L184.570844 183.826756 L164.401786 163.284651 L149.462073 177.953057 L138.460769 166.748272 L153.400481 152.079866 L133.231423 131.537762 L170.241571 131.876895 L162.907368 124.407038 L191.666538 116.342583 L187.082661 111.673923 Z" fill="#888" fill-opacity="0.18" stroke="#000" stroke-width="1"/>
  <path d="M713.605858 284.121611 L737.467907 259.870023 L740.007978 265.899646 L758.538313 242.474191 L762.602427 252.121588 L776.560635 217.842811 L787.736948 244.373152 L807.031741 236.244924 L813.127912 250.716020 L793.833119 258.844247 L805.009432 285.374589 L770.730655 271.416381 L774.794769 281.063778 L745.088120 277.958892 L747.628191 283.988515 Z" fill="#888" fill-opacity="0.18" stroke="#000" stroke-width="1"/>
  <path d="M631.675571 480.406724 L664.923715 487.624601 L661.183253 492.992772 L690.884953 496.144645 L684.900214 504.733718 L721.334746 498.222883 L704.876712 521.842835 L722.054859 533.812314 L713.077749 546.695924 L695.899603 534.726445 L679.441569 558.346397 L672.930735 521.911864 L666.945995 530.500938 L653.702329 503.729113 L649.961866 509.097284 Z" fill="#888" fill-opacity="0.18" stroke="#000" stroke-width="1"/>
  <path d="M375.868050 326.194125 L394.594721 354.599206 L388.167290 355.822499 L407.200813 378.840977 L396.916924 380.798247 L427.519822 401.614796 L399.239126 406.997288 L403.153666 427.565067 L387.727832 430.500972 L383.813292 409.933193 L355.532596 415.315685 L376.349145 384.712787 L366.065255 386.670056 L375.312429 358.269087 L368.884998 359.492380 Z" fill="#888" fill-opacity="0.18" stroke="#000" stroke-width="1"/>
  <path d="M280.172359 578.235104 L304.271516 602.251088 L298.225841 604.752714 L321.532831 623.431834 L311.859752 627.434436 L346.048957 641.610628 L319.447989 652.617785 L327.453194 671.963943 L312.943575 677.967847 L304.938370 658.621689 L278.337403 669.628846 L292.513594 635.439642 L282.840515 639.442244 L286.134492 609.755968 L280.088818 612.257594 Z" fill="#888" fill-opacity="0.18" stroke="#000" stroke-width="1"/>
  <path d="M443.296663 953.124824 L467.470429 977.065706 L461.432568 979.586132 L484.797567 998.192640 L475.136989 1002.225322 L509.370137 1016.295063 L482.803548 1027.384937 L490.868911 1046.706093 L476.378044 1052.755115 L468.312681 1033.433959 L441.746091 1044.523833 L455.815833 1010.290685 L446.155254 1014.323366 L449.356846 984.626984 L443.318984 987.147410 Z" fill="#888" fill-opacity="0.18" stroke="#000" stroke-width="1"/>
  <path d="M45.077724 767.736735 L68.401557 792.506387 L62.279441 794.814637 L84.981096 814.224948 L75.185712 817.918148 L108.907175 833.173608 L81.969867 843.329910 L89.356269 862.920679 L74.663192 868.460479 L67.276791 848.869711 L40.339484 859.026012 L55.594943 825.304550 L45.799559 828.997750 L50.035211 799.431138 L43.913095 801.739389 Z" fill="#888" fill-opacity="0.18" stroke="#000" stroke-width="1"/>
  <path d="M597.854248 669.919518 L568.494887 687.111514 L567.614603 680.628195 L543.617953 698.412629 L542.209500 688.039319 L519.797359 717.493725 L515.924113 688.967125 L495.177495 691.784031 L493.064815 676.224067 L513.811434 673.407160 L509.938188 644.880560 L539.392594 667.292700 L537.984141 656.919391 L565.854037 667.661559 L564.973754 661.178240 Z" fill="#888" fill-opacity="0.18" stroke="#000" stroke-width="1"/>
  <path d="M710.032894 1015.329359 L682.225773 995.725766 L687.762441 992.239560 L661.636951 977.762542 L670.495619 972.184613 L634.404127 963.982764 L658.765464 948.643461 L647.609607 930.926125 L660.897609 922.559232 L672.053466 940.276568 L696.414804 924.937264 L688.212955 961.028756 L697.071623 955.450827 L698.835776 985.267149 L704.372443 981.780944 Z" fill="#888" fill-opacity="0.18" stroke="#000" stroke-width="1"/>
  <path d="M227.028837 681.506266 L251.473444 705.170544 L245.464652 707.759507 L269.039847 726.098958 L259.425779 730.241298 L293.816801 743.920616 L267.378114 755.312053 L275.662796 774.540189 L261.241694 780.753700 L252.957013 761.525564 L226.518326 772.917002 L240.197644 738.525980 L230.583576 742.668321 L233.447067 712.937433 L227.438275 715.526396 Z" fill="#888" fill-opacity="0.18" stroke="#000" stroke-width="1"/>
  <path d="M694.106556 859.653412 L660.527546 865.129443 L662.039124 858.763640 L633.250440 866.722095 L635.668965 856.536810 L604.159441 875.953710 L610.810384 847.944177 L590.439815 843.107127 L594.067602 827.829200 L614.438172 832.666249 L621.089115 804.656716 L640.506015 836.166240 L642.924540 825.980956 L665.062280 846.032034 L666.573858 839.666231 Z" fill="#888" fill-opacity="0.18" stroke="#000" stroke-width="1"/>
  <path d="M906.560599 168.613088 L930.737246 144.675113 L933.198377 150.737386 L952.032978 127.555861 L955.970788 137.255497 L970.375354 103.161882 L981.204331 129.835882 L1000.603603 121.960262 L1006.510318 136.509716 L987.111046 144.385336 L997.940023 171.059335 L963.846408 156.654770 L967.784218 166.354406 L938.120639 162.861931 L940.581770 168.924203 Z" fill="#888" fill-opacity="0.18" stroke="#000" stroke-width="1"/>
  <path d="M465.681725 659.033900 L451.912587 690.145758 L447.408200 685.400359 L438.336259 713.857787 L431.129238 706.265149 L430.165195 743.264294 L410.345889 722.384541 L395.160614 736.798581 L384.350083 725.409625 L399.535359 710.995584 L379.716053 690.115831 L416.715198 691.079874 L409.508177 683.487237 L438.399424 675.909562 L433.895036 671.164164 Z" fill="#888" fill-opacity="0.18" stroke="#000" stroke-width="1"/>
  <path d="M904.484121 467.180266 L926.237369 493.340026 L919.984657 495.266656 L941.447144 516.038919 L931.442804 519.121527 L964.160174 536.425857 L936.648239 544.903029 L942.813455 564.911709 L927.806945 569.535621 L921.641729 549.526941 L894.129795 558.004113 L911.434124 525.286743 L901.429785 528.369351 L907.479232 499.119916 L901.226520 501.046546 Z" fill="#888" fill-opacity="0.18" stroke="#000" stroke-width="1"/>
  <path d="M374.468328 824.897435 L345.822611 806.540971 L351.199921 802.813659 L324.460592 789.504505 L333.064288 783.540806 L296.645801 776.940814 L320.305965 760.540642 L308.378567 743.333250 L321.284111 734.387702 L333.211509 751.595094 L356.871673 735.194922 L350.271680 771.613409 L358.875376 765.649710 L361.954541 795.359036 L367.331851 791.631724 Z" fill="#888" fill-opacity="0.18" stroke="#000" stroke-width="1"/>
  <path d="M405.339781 496.693649 L411.882746 530.081168 L405.472020 528.773150 L414.343545 557.293693 L404.086384 555.200864 L424.497215 586.075839 L396.290022 580.320560 L392.104365 600.834882 L376.718623 597.695639 L380.904280 577.181317 L352.697087 571.426038 L383.572062 551.015207 L373.314901 548.922378 L392.650569 526.157114 L386.239843 524.849096 Z" fill="#888" fill-opacity="0.18" stroke="#000" stroke-width="1"/>
  <path d="M379.983873 839.350978 L346.388288 844.724388 L347.919309 838.363233 L319.106444 846.233690 L321.556077 836.055843 L289.987375 855.376379 L296.723866 827.387298 L276.368171 822.488031 L280.042621 807.221260 L300.398316 812.120526 L307.134808 784.131445 L326.455344 815.700147 L328.904977 805.522300 L350.981351 825.640923 L352.512371 819.279768 Z" fill="#888" fill-opacity="0.18" stroke="#000" stroke-width="1"/>
  <path d="M169.692701 1045.920465 L195.769118 1024.067380 L197.719635 1030.312682 L218.409706 1008.770949 L221.530533 1018.763433 L238.709674 985.980156 L247.291949 1013.459486 L267.276916 1007.217832 L271.958156 1022.206557 L251.973189 1028.448211 L260.555464 1055.927541 L227.772187 1038.748400 L230.893014 1048.740883 L201.620668 1042.803286 L203.571185 1049.048588 Z" fill="#888" fill-opacity="0.18" stroke="#000" stroke-width="1"/>
  <path d="M952.093468 635.751718 L920.554985 622.990019 L925.153104 618.335384 L896.418705 610.183106 L903.775695 602.735691 L866.764683 602.961755 L886.996404 582.481363 L872.101574 567.767384 L883.137058 556.596262 L898.031889 571.310241 L918.263610 550.829849 L918.489674 587.840861 L925.846663 580.393445 L934.349341 609.026115 L938.947459 604.371481 Z" fill="#888" fill-opacity="0.18" stroke="#000" stroke-width="1"/>
  <path d="M822.032220 330.223608 L854.129992 318.942212 L853.758511 325.474465 L880.704777 312.589434 L880.110407 323.041037 L907.725340 298.397953 L906.090823 327.139862 L926.994030 328.328601 L926.102476 344.006006 L905.199269 342.817267 L903.564753 371.559176 L878.921668 343.944244 L878.327299 354.395847 L853.015549 338.538969 L852.644067 345.071221 Z" fill="#888" fill-opacity="0.18" stroke="#000" stroke-width="1"/>
  <path d="M1054.884987 402.059027 L1028.447561 380.644095 L1034.204459 377.535005 L1009.102924 361.347409 L1018.313962 356.372866 L982.850010 345.781631 L1008.180363 332.101637 L998.231276 313.679562 L1012.047832 306.217747 L1021.996918 324.639822 L1047.327271 310.959828 L1036.736036 346.423779 L1045.947073 341.449236 L1045.718255 371.316826 L1051.475154 368.207736 Z" fill="#888" fill-opacity="0.18" stroke="#000" stroke-width="1"/>
  <path d="M317.993093 951.169633 L285.953515 962.615255 L286.291539 956.081186 L259.411611 969.104042 L259.952449 958.649532 L232.464078 983.433711 L233.951384 954.683808 L213.042364 953.602131 L213.853621 937.920366 L234.762642 939.002043 L236.249947 910.252140 L261.034126 937.740511 L261.574965 927.286001 L286.967587 943.013049 L287.305611 936.478980 Z" fill="#888" fill-opacity="0.18" stroke="#000" stroke-width="1"/>
  <path d="M618.291394 980.452635 L584.306660 982.057223 L586.535485 975.905748 L557.026167 980.523691 L560.592288 970.681330 L527.071083 986.371930 L536.877916 959.305437 L517.193194 952.173195 L522.542376 937.409654 L542.227097 944.541896 L552.033930 917.475404 L567.724530 950.996609 L571.290651 941.154248 L590.993137 963.602797 L593.221962 957.451321 Z" fill="#888" fill-opacity="0.18" stroke="#000" stroke-width="1"/>
  <path d="M377.224443 861.874939 L409.861224 871.486254 L405.741111 876.568869 L435.135822 881.867570 L428.543640 889.999754 L465.354556 886.149748 L447.226056 908.513255 L463.490425 921.697619 L453.602152 933.895896 L437.337783 920.711532 L419.209283 943.075040 L415.359276 906.264123 L408.767095 914.396308 L397.500883 886.734100 L393.380770 891.816715 Z" fill="#888" fill-opacity="0.18" stroke="#000" stroke-width="1"/>
  <path d="M883.680428 133.977336 L903.683848 161.498237 L897.318938 163.013571 L917.383074 185.139478 L907.199218 187.564011 L938.720192 206.962317 L910.714588 213.629785 L915.563655 233.997497 L900.287871 237.634297 L895.438804 217.266585 L867.433200 223.934052 L886.831506 192.413078 L876.647650 194.837612 L884.589118 166.044238 L878.224208 167.559571 Z" fill="#888" fill-opacity="0.18" stroke="#000" stroke-width="1"/>
  <path d="M957.013344 530.986184 L935.829151 504.363510 L942.121948 502.572135 L921.112295 481.341972 L931.180770 478.475773 L898.844083 460.470085 L926.532389 452.588035 L920.799989 432.451086 L935.902702 428.151786 L941.635101 448.288736 L969.323407 440.406686 L951.317720 472.743373 L961.386194 469.877173 L954.707541 498.989385 L961.000338 497.198010 Z" fill="#888" fill-opacity="0.18" stroke="#000" stroke-width="1"/>
  <path d="M729.330383 601.345737 L695.358480 599.489226 L698.200753 593.596027 L668.374954 595.191975 L672.922591 585.762855 L637.980702 597.966562 L650.486702 572.036484 L631.628464 562.941211 L638.449918 548.797532 L657.308157 557.892805 L669.814157 531.962728 L682.017864 566.904617 L686.565500 557.475498 L703.885298 581.809628 L706.727571 575.916428 Z" fill="#888" fill-opacity="0.18" stroke="#000" stroke-width="1"/>
  <path d="M762.899167 105.556945 L789.334239 84.139106 L791.180965 90.415882 L812.225271 69.220069 L815.180033 79.262910 L832.900231 46.768900 L841.025828 74.386715 L861.111511 68.477190 L865.543655 83.541452 L845.457971 89.450977 L853.583568 117.068791 L821.089558 99.348593 L824.044321 109.391435 L794.874418 102.969434 L796.721145 109.246210 Z" fill="#888" fill-opacity="0.18" stroke="#000" stroke-width="1"/>
  <path d="M41.833819 606.664523 L44.651826 572.758835 L50.462155 575.766890 L49.711651 545.907854 L59.008177 550.720742 L47.799082 515.447207 L73.364529 528.682649 L82.990305 510.089597 L96.935094 517.308929 L87.309318 535.901981 L112.874765 549.137423 L77.601229 560.346518 L86.897755 565.159406 L62.082812 581.783000 L67.893141 584.791055 Z" fill="#888" fill-opacity="0.18" stroke="#000" stroke-width="1"/>
  <path d="M847.482217 807.819103 L874.382130 786.988079 L876.090306 793.303968 L897.595873 772.576308 L900.328955 782.681729 L918.759804 750.585470 L926.275780 778.375379 L946.486624 772.909215 L950.586247 788.067348 L930.375403 793.533512 L937.891379 821.323422 L905.795119 802.892573 L908.528201 812.997995 L879.506659 805.935745 L881.214835 812.251634 Z" fill="#888" fill-opacity="0.18" stroke="#000" stroke-width="1"/>
  <path d="M229.199622 761.190299 L203.546252 738.842113 L209.410824 735.941232 L184.905244 718.864880 L194.288559 714.223471 L159.226749 702.368704 L185.030867 689.604830 L175.748050 670.838198 L189.823023 663.876086 L199.105840 682.642717 L224.909959 669.878843 L213.055191 704.940654 L222.438506 700.299246 L221.139969 730.139472 L227.004541 727.238591 Z" fill="#888" fill-opacity="0.18" stroke="#000" stroke-width="1"/>
  <path d="M142.467621 324.218611 L175.887000 317.840366 L174.547385 324.244564 L203.111328 315.513788 L200.967944 325.760504 L231.943194 305.502172 L226.048889 333.680642 L246.542322 337.967409 L243.327246 353.337484 L222.833814 349.050716 L216.939509 377.229186 L196.681177 346.253937 L194.537794 356.500653 L171.868155 337.052959 L170.528541 343.457157 Z" fill="#888" fill-opacity="0.18" stroke="#000" stroke-width="1"/>
  <path d="M200.934601 730.902954 L205.561255 764.609495 L199.235638 762.937707 L206.464846 791.918112 L196.343857 789.243251 L214.959178 821.232874 L187.126459 813.877008 L181.776738 834.118985 L166.595256 830.106694 L171.944976 809.864717 L144.112258 802.508851 L176.101880 783.893531 L165.980892 781.218670 L186.584402 759.594132 L180.258784 757.922344 Z" fill="#888" fill-opacity="0.18" stroke="#000" stroke-width="1"/>
  <path d="M304.909955 940.995654 L330.563865 918.648087 L332.633410 924.854962 L352.907911 902.921656 L356.219183 912.852657 L372.768503 879.746976 L381.874502 907.057226 L401.736502 900.434681 L406.703410 915.331182 L386.841410 921.953726 L395.947409 949.263976 L362.841728 932.714657 L366.153000 942.645657 L336.772500 937.268712 L338.842045 943.475587 Z" fill="#888" fill-opacity="0.18" stroke="#000" stroke-width="1"/>
  <path d="M697.117941 929.042322 L729.058818 940.760565 L724.616166 945.563809 L753.602978 952.767281 L746.494734 960.452472 L783.478321 959.010105 L763.930650 980.144380 L779.301032 994.360867 L768.638666 1005.888653 L753.268284 991.672166 L733.720614 1012.806440 L732.278247 975.822854 L725.170003 983.508044 L715.730861 955.170297 L711.288209 959.973542 Z" fill="#888" fill-opacity="0.18" stroke="#000" stroke-width="1"/>
  <path d="M119.809818 848.437219 L113.317737 881.834670 L107.869379 878.212004 L105.365103 907.975302 L96.647730 902.179037 L103.950499 938.463133 L79.977723 922.523403 L68.385192 939.958149 L55.309132 931.263750 L66.901663 913.829004 L42.928888 897.889274 L79.212984 890.586505 L70.495611 884.790240 L96.972663 870.966672 L91.524305 867.344006 Z" fill="#888" fill-opacity="0.18" stroke="#000" stroke-width="1"/>
  <path d="M296.573535 245.906476 L301.025870 279.636485 L294.708980 277.932018 L301.788267 306.949409 L291.681242 304.222260 L310.130932 336.307693 L282.336615 328.808034 L276.882317 349.022084 L261.721780 344.931361 L267.176078 324.717312 L239.381760 317.217653 L271.467193 298.767963 L261.360168 296.040814 L282.075199 274.523082 L275.758308 272.818614 Z" fill="#888" fill-opacity="0.18" stroke="#000" stroke-width="1"/>
  <path d="M924.183574 960.059702 L910.166343 991.060575 L905.700007 986.279345 L896.401028 1014.663394 L889.254890 1007.013427 L887.995315 1044.003690 L868.343437 1022.966279 L853.043502 1037.258554 L842.324295 1025.783603 L857.624230 1011.491328 L837.972352 990.453917 L874.962615 991.713492 L867.816477 984.063524 L896.767335 976.716885 L892.300999 971.935656 Z" fill="#888" fill-opacity="0.18" stroke="#000" stroke-width="1"/>
  <path d="M58.446330 1043.650854 L85.014890 1022.398832 L86.822308 1028.687039 L107.998819 1007.623310 L110.890688 1017.684442 L128.813846 985.301939 L136.766486 1012.970053 L156.888750 1007.186315 L161.226554 1022.278014 L141.104289 1028.061751 L149.056929 1055.729865 L116.674426 1037.806707 L119.566295 1047.867839 L90.437144 1041.263455 L92.244563 1047.551662 Z" fill="#888" fill-opacity="0.18" stroke="#000" stroke-width="1"/>
  <path d="M307.848595 329.411659 L304.989364 295.509423 L311.218994 297.509429 L305.513832 268.190895 L315.481240 271.390905 L298.562743 238.472360 L325.973116 247.272387 L332.373135 227.337570 L347.324247 232.137585 L340.924228 252.072401 L368.334601 260.872427 L335.416056 277.790924 L345.383464 280.990933 L323.678254 301.509441 L329.907884 303.509447 Z" fill="#888" fill-opacity="0.18" stroke="#000" stroke-width="1"/>
  <path d="M397.158276 825.790131 L411.942356 795.147549 L416.288370 800.038405 L426.290563 771.894464 L433.244186 779.719833 L435.423552 742.772351 L454.546016 764.292117 L470.196755 750.384871 L480.627190 762.122925 L464.976451 776.030172 L484.098915 797.549939 L447.151432 795.370573 L454.105056 803.195942 L424.980400 809.820117 L429.326414 814.710973 Z" fill="#888" fill-opacity="0.18" stroke="#000" stroke-width="1"/>
  <path d="M40.496552 218.281242 L73.745019 211.064852 L72.566828 217.500703 L100.902253 208.054591 L99.017148 218.351953 L129.473315 197.321309 L124.289278 225.639055 L144.884002 229.409264 L142.056346 244.855307 L121.461621 241.085098 L116.277584 269.402844 L95.246939 238.946678 L93.361835 249.244040 L70.210448 230.372406 L69.032258 236.808258 Z" fill="#888" fill-opacity="0.18" stroke="#000" stroke-width="1"/>
  <path d="M750.164262 941.583140 L717.649689 931.566187 L721.832770 926.535268 L692.506316 920.870963 L699.199246 912.821493 L662.343244 916.212843 L680.748803 894.076800 L664.649863 880.690939 L674.689258 868.616734 L690.788199 882.002594 L709.193757 859.866551 L712.585107 896.722553 L719.278037 888.673082 L730.198933 916.473430 L734.382015 911.442511 Z" fill="#888" fill-opacity="0.18" stroke="#000" stroke-width="1"/>
  <path d="M629.007975 862.258585 L638.638238 894.889780 L632.133421 894.185744 L643.627875 921.753892 L633.220168 920.627435 L656.423294 949.462848 L627.802097 946.365090 L625.549183 967.180506 L609.937621 965.490820 L612.190536 944.675404 L583.569339 941.577646 L612.404752 918.374520 L601.997044 917.248063 L619.123786 892.777672 L612.618969 892.073636 Z" fill="#888" fill-opacity="0.18" stroke="#000" stroke-width="1"/>
  <path d="M944.841343 840.480129 L946.507070 806.498337 L952.416136 809.307474 L950.652739 779.491108 L960.107245 783.985727 L947.707530 749.112913 L973.707421 761.473117 L982.696660 742.564105 L996.878419 749.306035 L987.889180 768.215047 L1013.889071 780.575251 L979.016257 792.974966 L988.470763 797.469586 L964.234268 814.925749 L970.143335 817.734886 Z" fill="#888" fill-opacity="0.18" stroke="#000" stroke-width="1"/>
  <path d="M131.575033 704.442012 L112.913858 732.890164 L109.244155 727.473377 L95.650350 754.069124 L89.778825 745.402263 L82.790487 781.748229 L66.643792 757.914362 L49.310070 769.657413 L40.502782 756.657122 L57.836503 744.914071 L41.689808 721.080204 L78.035774 728.068542 L72.164248 719.401681 L101.904748 716.639801 L98.235044 711.223013 Z" fill="#888" fill-opacity="0.18" stroke="#000" stroke-width="1"/>
  <path d="M107.989862 550.696554 L109.192187 584.697896 L103.067517 582.396434 L107.335945 611.958332 L97.536472 608.275993 L112.829307 641.980522 L85.880757 631.854091 L78.516079 651.453036 L63.816870 645.929528 L71.181547 626.330582 L44.232997 616.204151 L77.937526 600.911316 L68.138053 597.228977 L90.818175 577.793511 L84.693505 575.492049 Z" fill="#888" fill-opacity="0.18" stroke="#000" stroke-width="1"/>
  <path d="M964.279417 958.745221 L985.591372 932.224712 L988.722827 937.969476 L1004.812680 912.805177 L1009.823008 921.996799 L1020.276243 886.491926 L1034.054643 911.768886 L1052.437886 901.748231 L1059.953377 915.535663 L1041.570134 925.556318 L1055.348535 950.833277 L1019.843663 940.380042 L1024.853990 949.571663 L994.985736 949.459003 L998.117191 955.203766 Z" fill="#888" fill-opacity="0.18" stroke="#000" stroke-width="1"/>
  <path d="M87.802573 761.985249 L112.389131 738.468488 L114.745171 744.572371 L133.977414 721.719666 L137.747079 731.485879 L152.738449 697.646185 L163.105028 724.503270 L182.637453 716.963940 L188.291951 731.613260 L168.759525 739.152590 L179.126104 766.009675 L145.286409 751.018305 L149.056074 760.784518 L119.457253 756.780138 L121.813293 762.884021 Z" fill="#888" fill-opacity="0.18" stroke="#000" stroke-width="1"/>
  <path d="M122.452736 883.650910 L148.135244 861.336216 L150.196839 867.545736 L170.499412 845.638413 L173.797964 855.573646 L190.389667 822.489186 L199.460683 849.811076 L219.331148 843.213973 L224.278975 858.116822 L204.408510 864.713924 L213.479526 892.035814 L180.395066 875.444111 L183.693617 885.379343 L154.320028 879.964777 L156.381623 886.174297 Z" fill="#888" fill-opacity="0.18" stroke="#000" stroke-width="1"/>
  <path d="M606.159509 823.075987 L573.905056 833.901285 L574.369089 827.374955 L547.242894 839.876747 L547.985348 829.434618 L520.023891 853.683804 L522.065640 824.967951 L501.181383 823.483043 L502.295064 807.819850 L523.179321 809.304758 L525.221069 780.588904 L549.470256 808.550361 L550.212710 798.108232 L575.297157 814.322294 L575.761191 807.795964 Z" fill="#888" fill-opacity="0.18" stroke="#000" stroke-width="1"/>
  <path d="M744.500539 1028.599982 L712.122765 1039.050655 L712.662421 1032.530143 L685.393126 1044.716644 L686.256577 1034.283824 L658.015899 1058.207248 L660.390388 1029.516992 L639.524748 1027.790091 L640.819924 1012.140860 L661.685564 1013.867761 L664.060054 985.177505 L687.983478 1013.418183 L688.846928 1002.985363 L713.741735 1019.489117 L714.281391 1012.968604 Z" fill="#888" fill-opacity="0.18" stroke="#000" stroke-width="1"/>
  <path d="M386.066674 843.577273 L376.019171 811.072127 L382.532473 811.692774 L370.685792 784.274141 L381.107077 785.267175 L357.536450 756.731378 L386.194983 759.462222 L388.181051 738.619653 L403.812977 740.109204 L401.826909 760.951773 L430.485442 763.682616 L401.949646 787.253242 L412.370930 788.246276 L395.559079 812.934066 L402.072382 813.554712 Z" fill="#888" fill-opacity="0.18" stroke="#000" stroke-width="1"/>
  <path d="M894.673440 451.409236 L896.390860 485.388455 L890.232018 483.180066 L894.947917 512.673889 L885.093770 509.140468 L900.895585 542.609390 L873.796680 532.892481 L866.729837 552.600776 L851.948616 547.300644 L859.015459 527.592349 L831.916553 517.875440 L865.385475 502.073625 L855.531328 498.540204 L877.914334 478.763290 L871.755492 476.554901 Z" fill="#888" fill-opacity="0.18" stroke="#000" stroke-width="1"/>
  <path d="M168.084423 1032.690728 L166.044047 998.729371 L172.223605 1000.879109 L167.227527 971.431452 L177.114821 974.871033 L160.995538 941.553848 L188.185595 951.012694 L195.064756 931.238107 L209.895696 936.397477 L203.016536 956.172064 L230.206593 965.630910 L196.889408 981.750193 L206.776702 985.189774 L184.582722 1005.178585 L190.762281 1007.328322 Z" fill="#888" fill-opacity="0.18" stroke="#000" stroke-width="1"/>
  <path d="M697.296709 750.268148 L676.557551 777.238950 L673.303796 771.562561 L657.756500 797.065637 L652.550493 787.983414 L642.859956 823.703991 L628.543434 798.727878 L610.378989 809.139894 L602.569977 795.516560 L620.734422 785.104544 L606.417900 760.128432 L642.138477 769.818969 L636.932469 760.736746 L666.796286 760.209782 L663.542531 754.533393 Z" fill="#888" fill-opacity="0.18" stroke="#000" stroke-width="1"/>
  <path d="M778.580807 547.541085 L788.958303 579.942387 L782.439026 579.388001 L794.563888 606.684759 L784.133045 605.797740 L807.992605 634.092395 L779.307787 631.653093 L777.533749 652.514779 L761.887484 651.184250 L763.661522 630.322564 L734.976704 627.883262 L763.271359 604.023702 L752.840516 603.136683 L769.400473 578.279227 L762.881196 577.724840 Z" fill="#888" fill-opacity="0.18" stroke="#000" stroke-width="1"/>
  <path d="M846.040141 306.337173 L816.545231 323.295568 L815.716441 316.805466 L791.579372 334.398850 L790.253308 324.014687 L767.608060 353.290255 L763.961384 324.733806 L743.193058 327.385934 L741.203962 311.809690 L761.972288 309.157562 L758.325613 280.601114 L787.601180 303.246361 L786.275116 292.862198 L814.058861 303.825263 L813.230072 297.335161 Z" fill="#888" fill-opacity="0.18" stroke="#000" stroke-width="1"/>
  <path d="M741.839331 788.177678 L775.860290 787.844209 L773.403142 793.908097 L803.064420 790.396133 L799.132984 800.098354 L833.217127 785.671391 L822.405679 812.352500 L841.810121 820.215372 L835.912967 834.768704 L816.508525 826.905832 L805.697076 853.586940 L791.270112 819.502797 L787.338676 829.205018 L768.488847 806.035874 L766.031700 812.099762 Z" fill="#888" fill-opacity="0.18" stroke="#000" stroke-width="1"/>
  <path d="M723.076157 799.278909 L726.560701 765.435227 L732.310723 768.557016 L732.147831 738.688994 L741.347866 743.683856 L730.834935 708.196614 L756.135030 721.932485 L766.124755 703.532416 L779.924807 711.024710 L769.935082 729.424779 L795.235177 743.160651 L759.747935 753.673581 L768.947969 758.668444 L743.810766 774.800594 L749.560787 777.922383 Z" fill="#888" fill-opacity="0.18" stroke="#000" stroke-width="1"/>
  <path d="M531.869494 985.693788 L565.880334 984.799550 L563.523480 990.903119 L593.122835 986.902683 L589.351868 996.668394 L623.193560 981.681534 L612.823402 1008.537238 L632.354823 1016.079171 L626.698373 1030.727736 L607.166952 1023.185803 L596.796794 1050.041506 L581.809935 1016.199814 L578.038968 1025.965525 L558.809771 1003.110256 L556.452917 1009.213825 Z" fill="#888" fill-opacity="0.18" stroke="#000" stroke-width="1"/>
  <path d="M233.620975 667.435374 L267.384461 671.626297 L264.143211 677.309836 L294.008116 677.771051 L288.822116 686.864713 L324.521272 677.095558 L310.259771 702.103129 L328.447096 712.475129 L320.668095 726.115622 L302.480771 715.743622 L288.219271 740.751192 L278.450116 705.052037 L273.264116 714.145699 L257.660711 688.676913 L254.419461 694.360452 Z" fill="#888" fill-opacity="0.18" stroke="#000" stroke-width="1"/>
  <path d="M204.291416 894.439779 L181.672921 919.855139 L178.834284 913.960187 L161.499478 938.283628 L156.957659 928.851705 L144.732398 963.786059 L132.242397 937.848271 L113.378551 946.931909 L106.565823 932.784024 L125.429669 923.700387 L112.939667 897.762599 L147.874022 909.987859 L143.332203 900.555936 L173.157011 902.170284 L170.318374 896.275332 Z" fill="#888" fill-opacity="0.18" stroke="#000" stroke-width="1"/>
  <path d="M93.308529 412.388039 L126.219033 421.015641 L122.253297 426.219607 L151.793777 430.633827 L145.448600 438.960171 L182.127404 434.007254 L164.678166 456.904701 L181.330855 469.595056 L171.813089 482.084572 L155.160400 469.394217 L137.711162 492.291664 L132.758245 455.612860 L126.413068 463.939204 L114.321826 436.627537 L110.356090 441.831502 Z" fill="#888" fill-opacity="0.18" stroke="#000" stroke-width="1"/>
  <path d="M293.998452 772.221871 L277.028696 801.710246 L273.049233 796.516771 L261.030151 823.860270 L254.663010 815.550710 L249.806962 852.242465 L232.297323 829.391173 L215.678202 842.125456 L206.127489 829.661115 L222.746611 816.926832 L205.236972 794.075540 L241.928727 798.931588 L235.561585 790.622028 L265.090306 786.129820 L261.110843 780.936345 Z" fill="#888" fill-opacity="0.18" stroke="#000" stroke-width="1"/>
</svg>
