<?xml version="1.0" encoding="UTF-8"?>
<svg xmlns="http://www.w3.org/2000/svg" width="1100" height="1100" viewBox="0 0 1100 1100">
  <rect x="0" y="0" width="1100" height="1100" fill="white"/>
  <text x="10.0" y="18.0" font-family="monospace" font-size="12">prefix=N50_job5490044_task6 run_id=6 L=7.8085 feas=1.122e-03 N=50</text>
  <rect x="40.000000" y="40.000000" width="1020.000000" height="1020.000000" fill="none" stroke="#000" stroke-width="2"/>
  <path d="M174.652333 46.813009 L197.393866 82.661892 L189.348093 84.047306 L212.590449 113.182488 L199.717212 115.399150 L237.441960 142.040587 L202.040558 148.136408 L206.473882 173.882882 L187.164027 177.207875 L182.730703 151.461401 L147.329301 157.557222 L173.970738 119.832475 L161.097501 122.049137 L173.256546 86.818134 L165.210773 88.203548 Z" fill="#888" fill-opacity="0.18" stroke="#000" stroke-width="1"/>
  <path d="M102.863164 248.775772 L134.166044 220.097393 L136.941579 227.775299 L161.547027 199.781766 L165.987883 212.066416 L185.597368 170.252652 L197.809721 204.035439 L222.379021 195.153728 L229.040304 213.580703 L204.471005 222.462414 L216.683358 256.245201 L174.869594 236.635716 L179.310450 248.920366 L142.492649 243.131111 L145.268183 250.809017 Z" fill="#888" fill-opacity="0.18" stroke="#000" stroke-width="1"/>
  <path d="M505.212742 171.578057 L466.329677 188.619975 L466.180451 180.457159 L433.857484 199.012260 L433.618722 185.951754 L401.564362 219.199924 L400.907767 183.283533 L374.786755 183.761057 L374.428612 164.170298 L400.549624 163.692774 L399.893028 127.776383 L433.141198 159.830742 L432.902436 146.770236 L465.881998 164.131527 L465.732772 155.968711 Z" fill="#888" fill-opacity="0.18" stroke="#000" stroke-width="1"/>
  <path d="M851.295441 161.824084 L834.055259 200.619649 L828.443633 194.689767 L817.069682 230.182008 L808.091081 220.694197 L806.818055 266.860226 L782.126904 240.768746 L763.151282 258.725946 L749.683382 244.494230 L768.659003 226.537029 L743.967852 200.445549 L790.133881 201.718576 L781.155280 192.230765 L817.220383 182.830004 L811.608758 176.900122 Z" fill="#888" fill-opacity="0.18" stroke="#000" stroke-width="1"/>
  <path d="M504.217884 67.118549 L472.517458 95.356869 L469.849445 87.640941 L444.855363 115.288036 L440.586542 102.942552 L420.394885 144.478316 L408.655626 110.528234 L383.964657 119.065877 L377.561425 100.547651 L402.252393 92.010008 L390.513135 58.059926 L432.048899 78.251583 L427.780078 65.906099 L464.513418 72.209086 L461.845404 64.493158 Z" fill="#888" fill-opacity="0.18" stroke="#000" stroke-width="1"/>
  <path d="M273.306032 70.326308 L315.086570 77.856668 L310.659544 84.716353 L347.837740 87.333155 L340.754497 98.308650 L385.901342 88.578020 L366.422423 118.760631 L388.373413 132.927117 L377.748548 149.390360 L355.797559 135.223873 L336.318640 165.406484 L326.588011 120.259639 L319.504768 131.235134 L301.805490 98.435721 L297.378463 105.295405 Z" fill="#888" fill-opacity="0.18" stroke="#000" stroke-width="1"/>
  <path d="M1054.265071 301.705845 L1018.475082 278.871740 L1025.175662 274.207400 L991.777028 257.666626 L1002.497956 250.203683 L957.038278 242.058721 L986.520830 221.535627 L971.594944 200.093771 L987.676337 188.899356 L1002.602223 210.341213 L1032.084775 189.818119 L1023.939812 235.277797 L1034.660741 227.814854 L1038.576822 264.878721 L1045.277402 260.214382 Z" fill="#888" fill-opacity="0.18" stroke="#000" stroke-width="1"/>
  <path d="M993.897356 67.313759 L997.831298 109.584835 L990.036585 107.156609 L997.472049 143.677559 L985.000508 139.792397 L1006.466457 180.684155 L972.169719 169.999960 L964.399395 194.943042 L945.692083 189.115300 L953.462407 164.172217 L919.165669 153.488023 L960.057426 132.022074 L947.585885 128.136912 L974.447158 102.300157 L966.652445 99.871931 Z" fill="#888" fill-opacity="0.18" stroke="#000" stroke-width="1"/>
  <path d="M60.460293 331.451814 L94.318360 305.840273 L96.360492 313.744926 L123.486410 288.186160 L126.753823 300.833604 L150.203902 261.046464 L159.189285 295.826934 L184.484173 289.292110 L189.385292 308.263276 L164.090404 314.798100 L173.075787 349.578571 L133.288647 326.128492 L136.556059 338.775936 L100.444757 329.554230 L102.486890 337.458883 Z" fill="#888" fill-opacity="0.18" stroke="#000" stroke-width="1"/>
  <path d="M319.814936 245.193756 L300.506476 283.002526 L295.223001 276.778482 L281.950471 311.605280 L273.496910 301.646810 L269.734636 347.676888 L246.487344 320.291094 L226.570403 337.198215 L213.890062 322.260510 L233.807003 305.353388 L210.559711 277.967595 L256.589789 281.729869 L248.136228 271.771399 L284.656050 264.330394 L279.372575 258.106350 Z" fill="#888" fill-opacity="0.18" stroke="#000" stroke-width="1"/>
  <path d="M348.219663 224.863045 L357.048365 266.388625 L349.023949 264.884431 L360.660889 300.291318 L347.821824 297.884608 L373.902711 335.999043 L338.595284 329.380591 L333.781865 355.058719 L314.523269 351.448655 L319.336688 325.770527 L284.029261 319.152075 L322.143696 293.071189 L309.304632 290.664479 L332.975119 261.876044 L324.950704 260.371851 Z" fill="#888" fill-opacity="0.18" stroke="#000" stroke-width="1"/>
  <path d="M210.020128 737.448156 L167.609612 735.532996 L171.086454 728.146156 L133.890041 730.489837 L139.452988 718.670893 L95.998260 734.310887 L111.296364 701.808790 L87.658475 690.682897 L96.002896 672.954480 L119.640784 684.080374 L134.938888 651.578277 L150.578881 695.033005 L156.141828 683.214060 L178.040137 713.372476 L181.516979 705.985636 Z" fill="#888" fill-opacity="0.18" stroke="#000" stroke-width="1"/>
  <path d="M542.835343 214.907663 L567.834025 249.220716 L559.893935 251.120405 L584.960885 278.701449 L572.256742 281.740950 L611.615852 305.902555 L576.679458 314.261183 L582.758461 339.669469 L563.702246 344.228721 L557.623244 318.820434 L522.686850 327.179062 L546.848455 287.819952 L534.144312 290.859453 L544.013756 254.919781 L536.073667 256.819469 Z" fill="#888" fill-opacity="0.18" stroke="#000" stroke-width="1"/>
  <path d="M620.932587 136.647276 L600.752061 173.997859 L595.614422 167.652900 L581.537391 202.162365 L573.317170 192.010431 L568.487888 237.940821 L545.882278 210.023002 L525.578409 226.463446 L513.248076 211.235544 L533.551945 194.795100 L510.946335 166.877281 L556.876726 171.706562 L548.656504 161.554627 L585.339145 154.962982 L580.201506 148.618023 Z" fill="#888" fill-opacity="0.18" stroke="#000" stroke-width="1"/>
  <path d="M915.795098 333.158654 L927.410223 373.992569 L919.302492 373.034165 L933.305887 407.573576 L920.333517 406.040130 L948.930827 442.304667 L913.256811 438.087692 L910.189921 464.032431 L890.731367 461.732263 L893.798257 435.787524 L858.124242 431.570549 L894.388779 402.973240 L881.416409 401.439794 L903.087031 371.117358 L894.979300 370.158955 Z" fill="#888" fill-opacity="0.18" stroke="#000" stroke-width="1"/>
  <path d="M763.663265 400.016501 L724.651818 383.270554 L730.509933 377.584051 L694.876066 366.661896 L704.249051 357.563491 L658.070576 356.877043 L683.846284 331.856428 L665.649473 313.110459 L679.708950 299.462851 L697.905761 318.208820 L723.681468 293.188206 L722.995020 339.366680 L732.368005 330.268275 L742.226164 366.211044 L748.084280 360.524541 Z" fill="#888" fill-opacity="0.18" stroke="#000" stroke-width="1"/>
  <path d="M361.683199 219.089582 L322.320977 234.993517 L322.409200 226.829814 L289.560295 244.437068 L289.701453 231.375143 L256.693746 263.677063 L257.081928 227.756768 L230.958078 227.474454 L231.169813 207.881566 L257.293664 208.163880 L257.681846 172.243586 L289.983767 205.251292 L290.124924 192.189367 L322.585646 210.502407 L322.673870 202.338704 Z" fill="#888" fill-opacity="0.18" stroke="#000" stroke-width="1"/>
  <path d="M47.705349 355.976468 L89.475584 348.389162 L87.732929 356.365188 L123.470874 345.788553 L120.682625 358.550195 L159.557350 333.616714 L151.889666 368.711227 L177.412949 374.287725 L173.230576 393.430187 L147.707293 387.853689 L140.039609 422.948203 L115.106127 384.073477 L112.317879 396.835119 L84.247618 372.317240 L82.504962 380.293266 Z" fill="#888" fill-opacity="0.18" stroke="#000" stroke-width="1"/>
  <path d="M201.681311 517.358776 L205.232577 559.663720 L197.460156 557.165058 L204.564835 593.751797 L192.128962 589.753938 L213.223998 630.838269 L179.025346 619.844157 L171.029629 644.715904 L152.375819 638.719116 L160.371536 613.847369 L126.172885 602.853257 L167.257215 581.758221 L154.821342 577.760362 L181.915314 552.167735 L174.142893 549.669073 Z" fill="#888" fill-opacity="0.18" stroke="#000" stroke-width="1"/>
  <path d="M284.227964 373.654631 L324.785658 361.108984 L324.012866 369.236507 L358.223099 354.447123 L356.986633 367.451160 L392.587891 338.032234 L389.187608 373.793335 L415.195681 376.266268 L413.340982 395.772323 L387.332908 393.299390 L383.932625 429.060491 L354.513700 393.459233 L353.277233 406.463270 L322.467283 385.491553 L321.694491 393.619076 Z" fill="#888" fill-opacity="0.18" stroke="#000" stroke-width="1"/>
  <path d="M581.687352 198.756483 L607.821325 165.300016 L611.827357 172.413773 L631.469117 140.739380 L637.878767 152.121392 L650.309670 107.642235 L667.936210 138.942768 L690.700234 126.123466 L700.314710 143.196484 L677.550686 156.015786 L695.177226 187.316319 L650.698069 174.885416 L657.107720 186.267428 L619.839420 186.641288 L623.845452 193.755046 Z" fill="#888" fill-opacity="0.18" stroke="#000" stroke-width="1"/>
  <path d="M651.334621 515.004875 L628.010766 479.532104 L636.032844 478.015500 L612.317856 449.263712 L625.153183 446.837147 L586.998453 420.815246 L622.295600 414.142190 L617.442468 388.471537 L636.695457 384.831689 L641.548589 410.502341 L676.845736 403.829285 L650.823835 441.984015 L663.659161 439.557449 L652.077002 474.982293 L660.099081 473.465689 Z" fill="#888" fill-opacity="0.18" stroke="#000" stroke-width="1"/>
  <path d="M819.317952 504.442186 L778.396691 515.745729 L779.416865 507.645539 L744.771721 521.385260 L746.404000 508.424956 L709.922542 536.745019 L714.411309 501.104183 L688.490701 497.839625 L690.939119 478.399168 L716.859728 481.663726 L721.348495 446.022890 L749.668558 482.504347 L751.300837 469.544043 L781.457214 491.445159 L782.477388 483.344969 Z" fill="#888" fill-opacity="0.18" stroke="#000" stroke-width="1"/>
  <path d="M922.732519 621.086116 L950.174142 588.693570 L953.894593 595.960762 L974.778372 565.091138 L980.731092 576.718646 L994.918062 532.768076 L1011.288042 564.743723 L1034.543058 552.838282 L1043.472139 570.279544 L1020.217123 582.184985 L1036.587104 614.160631 L992.636533 599.973662 L998.589253 611.601170 L961.335493 610.495147 L965.055943 617.762340 Z" fill="#888" fill-opacity="0.18" stroke="#000" stroke-width="1"/>
  <path d="M137.006804 420.060830 L140.221071 462.392712 L132.468794 459.832235 L139.281897 496.474391 L126.878254 492.377629 L147.645456 533.628642 L113.535437 522.362546 L105.341913 547.169831 L86.736448 541.024688 L94.929973 516.217402 L60.819955 504.951305 L102.070968 484.184104 L89.667325 480.087342 L116.964240 454.711283 L109.211963 452.150806 Z" fill="#888" fill-opacity="0.18" stroke="#000" stroke-width="1"/>
  <path d="M215.725298 843.978057 L174.849787 832.510174 L179.908842 826.102382 L143.147754 819.963302 L151.242242 809.710835 L105.374854 815.105780 L127.634698 786.911497 L107.129765 770.722519 L119.271498 755.343819 L139.776431 771.532797 L162.036275 743.338514 L167.431220 789.205902 L175.525709 778.953435 L190.026953 813.286799 L195.086009 806.879007 Z" fill="#888" fill-opacity="0.18" stroke="#000" stroke-width="1"/>
  <path d="M546.806940 567.744627 L534.058189 527.250318 L542.189482 527.982368 L527.228833 493.846684 L540.238903 495.017963 L510.641925 459.564590 L546.419618 462.785607 L548.762176 436.765466 L568.277281 438.522385 L565.934723 464.542525 L601.712416 467.763542 L566.259044 497.360520 L579.269114 498.531799 L558.452070 529.446466 L566.583364 530.178515 Z" fill="#888" fill-opacity="0.18" stroke="#000" stroke-width="1"/>
  <path d="M747.738717 805.112519 L705.289607 804.485785 L708.540589 796.996796 L671.432474 800.468645 L676.634044 788.486263 L633.674162 805.438291 L647.978482 772.486740 L624.013717 762.083599 L631.816073 744.110026 L655.780838 754.513167 L670.085157 721.561616 L687.037186 764.521498 L692.238756 752.539116 L715.042552 782.018818 L718.293534 774.529830 Z" fill="#888" fill-opacity="0.18" stroke="#000" stroke-width="1"/>
  <path d="M458.065413 521.641459 L416.531616 512.851495 L421.163991 506.128777 L384.081894 502.389257 L391.493694 491.632908 L346.073322 499.994280 L366.455772 470.414321 L344.943074 455.590721 L356.060774 439.456197 L377.573472 454.279797 L397.955922 424.699838 L406.317294 470.120210 L413.729094 459.363861 L430.428741 492.683341 L435.061116 485.960623 Z" fill="#888" fill-opacity="0.18" stroke="#000" stroke-width="1"/>
  <path d="M541.291032 455.302387 L512.860440 423.774286 L520.559999 421.059395 L492.761408 396.233919 L505.080702 391.890094 L463.422905 371.951421 L497.300963 360.005903 L488.613314 335.367315 L507.092255 328.851577 L515.779904 353.490166 L549.657963 341.544648 L529.719290 383.202445 L542.038584 378.858620 L535.959116 415.629614 L543.658675 412.914724 Z" fill="#888" fill-opacity="0.18" stroke="#000" stroke-width="1"/>
  <path d="M737.020277 602.101910 L766.365097 571.422906 L769.640599 578.901203 L792.347681 549.346941 L797.588485 561.312216 L814.399662 518.297021 L828.811872 551.201526 L852.742422 540.719919 L860.603627 558.667831 L836.673077 569.149438 L851.085287 602.053943 L808.070092 585.242765 L813.310895 597.208040 L776.191604 593.857796 L779.467106 601.336093 Z" fill="#888" fill-opacity="0.18" stroke="#000" stroke-width="1"/>
  <path d="M970.826095 735.716770 L928.526719 732.099788 L932.297439 724.858551 L895.036909 725.706392 L901.070061 714.120414 L857.022235 728.002481 L873.613402 696.141040 L850.441445 684.074736 L859.491173 666.695768 L882.663130 678.762072 L899.254298 646.900631 L913.136364 690.948457 L919.169516 679.362478 L939.838879 710.376078 L943.609599 703.134842 Z" fill="#888" fill-opacity="0.18" stroke="#000" stroke-width="1"/>
  <path d="M291.736165 401.523413 L276.383131 441.103762 L270.492613 435.450831 L260.840027 471.449352 L251.415198 462.404662 L252.365545 508.578459 L226.447266 483.705562 L208.357885 502.555219 L194.220642 488.988184 L212.310022 470.138526 L186.391743 445.265628 L232.565540 444.315281 L223.140711 435.270591 L258.711577 424.144968 L252.821059 418.492037 Z" fill="#888" fill-opacity="0.18" stroke="#000" stroke-width="1"/>
  <path d="M299.519719 626.359958 L325.093132 592.473083 L329.217029 599.519168 L348.328795 567.522194 L354.927030 578.795930 L366.615781 534.116003 L384.760928 565.118776 L407.308399 551.922306 L417.205751 568.832909 L394.658280 582.029379 L412.803427 613.032152 L368.123500 601.343401 L374.721735 612.617137 L337.464823 613.611338 L341.588720 620.657422 Z" fill="#888" fill-opacity="0.18" stroke="#000" stroke-width="1"/>
  <path d="M946.922629 925.615624 L909.300148 905.946647 L915.574411 900.722906 L880.876070 887.118086 L890.914890 878.760101 L844.922878 874.558014 L872.529632 851.573555 L855.813662 831.495915 L870.871891 818.958937 L887.587862 839.036577 L915.194616 816.052118 L910.992530 862.044130 L921.031350 853.686145 L928.122935 890.275424 L934.397198 885.051683 Z" fill="#888" fill-opacity="0.18" stroke="#000" stroke-width="1"/>
  <path d="M238.512000 621.437352 L232.981798 579.345350 L240.862790 581.476971 L232.051092 545.263439 L244.660679 548.674032 L221.663196 508.623582 L256.339559 518.002715 L263.160746 492.783542 L282.075126 497.899432 L275.253939 523.118605 L309.930302 532.497737 L269.879852 555.495220 L282.489438 558.905813 L256.624773 585.740213 L264.505764 587.871834 Z" fill="#888" fill-opacity="0.18" stroke="#000" stroke-width="1"/>
  <path d="M580.831864 511.943540 L585.321767 554.159182 L577.495773 551.833748 L585.411223 588.253682 L572.889632 584.532987 L594.891872 625.138703 L560.457496 614.906791 L553.016105 639.949974 L534.233718 634.368931 L541.675109 609.325748 L507.240733 599.093837 L547.846449 577.091596 L535.324858 573.370901 L561.843784 547.182879 L554.017789 544.857444 Z" fill="#888" fill-opacity="0.18" stroke="#000" stroke-width="1"/>
  <path d="M522.770340 964.497697 L482.059713 952.457571 L487.208155 946.121375 L450.536797 939.467242 L458.774303 929.329327 L412.835752 934.080348 L435.488894 906.201083 L415.213064 889.726071 L427.569324 874.519199 L447.845153 890.994211 L470.498295 863.114946 L475.249316 909.053498 L483.486822 898.915583 L497.505038 933.448981 L502.653479 927.112785 Z" fill="#888" fill-opacity="0.18" stroke="#000" stroke-width="1"/>
  <path d="M735.107974 699.836206 L777.526965 698.118948 L774.694304 705.775963 L811.554215 700.261173 L807.021958 712.512396 L848.980659 693.214981 L836.516952 726.905845 L861.019398 735.970359 L854.221013 754.347193 L829.718566 745.282679 L817.254860 778.973543 L797.957444 737.014843 L793.425187 749.266066 L769.028983 721.089991 L766.196322 728.747006 Z" fill="#888" fill-opacity="0.18" stroke="#000" stroke-width="1"/>
  <path d="M1035.045764 857.311613 L992.680837 854.567028 L996.301542 847.249629 L959.066394 848.865088 L964.859522 837.157249 L921.107106 851.944027 L937.038207 819.747470 L913.622529 808.161214 L922.312221 790.599456 L945.727899 802.185711 L961.659000 769.989155 L976.445778 813.741571 L982.238905 802.033732 L1003.542952 832.614830 L1007.163657 825.297431 Z" fill="#888" fill-opacity="0.18" stroke="#000" stroke-width="1"/>
  <path d="M210.541319 744.146205 L239.653973 713.246802 L242.985771 720.700188 L265.469358 690.975546 L270.800235 702.900963 L287.286584 659.760228 L301.946496 692.555125 L325.797330 681.893370 L333.793646 699.781496 L309.942812 710.443250 L324.602725 743.238146 L281.461989 726.751797 L286.792866 738.677214 L249.649368 735.606959 L252.981166 743.060344 Z" fill="#888" fill-opacity="0.18" stroke="#000" stroke-width="1"/>
  <path d="M156.095940 967.895604 L198.021413 961.219193 L196.105578 969.155402 L232.065251 959.359081 L228.999915 972.057015 L268.408090 947.975518 L259.978417 982.894837 L285.374286 989.025508 L280.776283 1008.072410 L255.380414 1001.941739 L246.950742 1036.861059 L222.869244 997.452884 L219.803909 1010.150818 L192.273909 985.027820 L190.358074 992.964029 Z" fill="#888" fill-opacity="0.18" stroke="#000" stroke-width="1"/>
  <path d="M497.449569 982.472280 L457.990917 998.135438 L458.129014 989.972426 L425.173152 1007.378663 L425.394107 994.317844 L392.189671 1026.417503 L392.797298 990.500251 L366.675660 990.058340 L367.007093 970.467111 L393.128732 970.909022 L393.736359 934.991769 L425.836018 968.196206 L426.056974 955.135386 L458.405208 973.646402 L458.543305 965.483390 Z" fill="#888" fill-opacity="0.18" stroke="#000" stroke-width="1"/>
  <path d="M246.876644 937.439770 L236.311791 896.321604 L244.392298 897.487471 L231.278650 862.600536 L244.207461 864.465923 L216.548902 827.480428 L252.103132 832.610243 L255.833906 806.752621 L275.227122 809.550701 L271.496348 835.408323 L307.050578 840.538138 L270.065083 868.196697 L282.993894 870.062084 L260.553311 899.819204 L268.633818 900.985071 Z" fill="#888" fill-opacity="0.18" stroke="#000" stroke-width="1"/>
  <path d="M509.454910 908.963348 L532.548963 873.340540 L537.164399 880.074899 L553.947877 846.797568 L561.332574 857.572542 L569.808269 812.173364 L590.116184 841.804544 L611.666133 827.035151 L622.743178 843.197613 L601.193229 857.967006 L621.501145 887.598186 L576.101967 879.122491 L583.486664 889.897466 L546.395269 893.543617 L551.010705 900.277976 Z" fill="#888" fill-opacity="0.18" stroke="#000" stroke-width="1"/>
  <path d="M721.989441 944.670110 L759.850061 925.463518 L760.459174 933.604944 L791.684830 913.257356 L792.659410 926.283638 L822.788664 891.281483 L825.468759 927.103758 L851.521323 925.154597 L852.983193 944.694020 L826.930630 946.643180 L829.610725 982.465455 L794.608570 952.336201 L795.583151 965.362483 L761.677399 949.887796 L762.286511 958.029222 Z" fill="#888" fill-opacity="0.18" stroke="#000" stroke-width="1"/>
  <path d="M830.301665 238.296029 L858.451171 270.075348 L850.727808 272.721760 L878.304856 297.793106 L865.947475 302.027365 L907.426576 322.335169 L873.443778 333.979383 L881.912298 358.694145 L863.376226 365.045534 L854.907707 340.330772 L820.924909 351.974986 L841.232713 310.495885 L828.875332 314.730144 L835.281081 278.014585 L827.557718 280.660997 Z" fill="#888" fill-opacity="0.18" stroke="#000" stroke-width="1"/>
  <path d="M862.965354 890.702948 L820.581934 888.260535 L824.150366 880.917502 L786.927685 882.798442 L792.637178 871.049590 L748.991317 886.147988 L764.692422 853.838646 L741.194718 842.419661 L749.758957 824.796384 L773.256660 836.215369 L788.957765 803.906027 L804.056163 847.551887 L809.765655 835.803035 L831.287232 866.231438 L834.855665 858.888405 Z" fill="#888" fill-opacity="0.18" stroke="#000" stroke-width="1"/>
  <path d="M175.370789 842.772923 L147.662913 874.938018 L144.002532 867.640385 L122.864838 898.336702 L117.008229 886.660489 L102.459221 930.492545 L86.353544 898.382960 L63.001119 910.096179 L54.216205 892.581860 L77.568630 880.868641 L61.462954 848.759056 L105.295009 863.308064 L99.438400 851.631851 L136.681770 853.045119 L133.021389 845.747486 Z" fill="#888" fill-opacity="0.18" stroke="#000" stroke-width="1"/>
  <path d="M477.493365 659.509261 L452.416871 693.765489 L448.190654 686.780296 L429.547558 719.052589 L422.785611 707.876280 L411.749705 752.721921 L393.154351 721.987070 L370.801732 735.510964 L360.658811 718.746500 L383.011430 705.222606 L364.416075 674.487755 L409.261717 685.523661 L402.499770 674.347351 L439.738220 672.809909 L435.512003 665.824716 Z" fill="#888" fill-opacity="0.18" stroke="#000" stroke-width="1"/>
</svg>
