<?xml version="1.0" encoding="UTF-8"?>
<svg xmlns="http://www.w3.org/2000/svg" width="1100" height="1100" viewBox="0 0 1100 1100">
  <rect x="0" y="0" width="1100" height="1100" fill="white"/>
  <text x="10.0" y="18.0" font-family="monospace" font-size="12">prefix=DEMO_N7_job5048376_task7 run_id=7 L=1.88636394464 feas=0.000e+00 N=7</text>
  <rect x="40.000000" y="40.000000" width="1020.000000" height="1020.000000" fill="none" stroke="#000" stroke-width="2"/>
  <path d="M71.760420 133.061515 L212.298592 238.568771 L183.174658 255.712584 L315.822566 334.491931 L269.224272 361.922032 L454.295261 409.842514 L326.149952 485.275293 L381.010155 578.471882 L311.112714 619.617034 L256.252511 526.420445 L128.107201 601.853224 L176.027683 416.782235 L129.429389 444.212337 L124.926790 290.000211 L95.802856 307.144025 Z" fill="#888" fill-opacity="0.18" stroke="#000" stroke-width="1"/>
  <path d="M1032.474961 371.428715 L1033.760645 547.158923 L1002.470838 534.389354 L1020.230138 687.641631 L970.166448 667.210321 L1044.247399 843.447821 L906.572251 787.261719 L865.709631 887.389100 L790.614096 856.742135 L831.476715 756.614755 L693.801567 700.428653 L870.039067 626.347702 L819.975377 605.916392 L939.891225 508.850217 L908.601419 496.080649 Z" fill="#888" fill-opacity="0.18" stroke="#000" stroke-width="1"/>
  <path d="M86.513108 61.017857 L262.192999 56.620723 L249.979480 88.131734 L402.893266 67.661583 L383.351637 118.079201 L558.249756 40.889230 L504.510274 179.537679 L605.345511 218.620938 L576.033066 294.247366 L475.197830 255.164106 L421.458349 393.812556 L344.268377 218.914437 L324.726748 269.332055 L225.552443 151.153756 L213.338925 182.664768 Z" fill="#888" fill-opacity="0.18" stroke="#000" stroke-width="1"/>
  <path d="M991.374189 1009.571298 L816.177855 1023.319161 L826.695715 991.202366 L675.089245 1019.787875 L691.917821 968.401004 L521.379204 1054.796744 L567.657786 913.482847 L464.884044 879.825696 L490.126907 802.745389 L592.900650 836.402540 L639.179232 695.088644 L725.574972 865.627261 L742.403547 814.240390 L847.731434 926.968777 L858.249294 894.851982 Z" fill="#888" fill-opacity="0.18" stroke="#000" stroke-width="1"/>
  <path d="M676.167299 175.715283 L702.611948 349.449101 L669.815660 341.293283 L709.344221 490.421234 L656.870161 477.371925 L755.432040 641.180349 L611.128373 605.294750 L585.029756 710.242871 L506.318665 690.668907 L532.417282 585.720786 L388.113616 549.835187 L551.922039 451.273307 L499.447979 438.223999 L604.223084 324.981647 L571.426796 316.825829 Z" fill="#888" fill-opacity="0.18" stroke="#000" stroke-width="1"/>
  <path d="M796.060346 588.150201 L745.703623 419.784648 L779.315609 423.298658 L719.425281 281.119892 L773.204458 286.742308 L652.812555 138.238324 L800.705293 153.699969 L811.950126 46.141614 L892.618892 54.575238 L881.374060 162.133593 L1029.266798 177.595238 L880.762813 297.987141 L934.541991 303.609557 L846.539581 430.326679 L880.151567 433.840689 Z" fill="#888" fill-opacity="0.18" stroke="#000" stroke-width="1"/>
  <path d="M511.377237 1029.270864 L341.317698 984.970613 L361.760016 958.059175 L209.141164 935.495066 L241.848873 892.436766 L52.433849 918.313245 L142.380049 799.902918 L56.263447 734.487500 L105.325010 669.900049 L191.441612 735.315467 L281.387812 616.905139 L307.264291 806.320164 L339.972000 763.261863 L402.644653 904.236299 L423.086971 877.324861 Z" fill="#888" fill-opacity="0.18" stroke="#000" stroke-width="1"/>
</svg>
