<?xml version="1.0" encoding="UTF-8"?>
<svg xmlns="http://www.w3.org/2000/svg" width="1100" height="1100" viewBox="0 0 1100 1100">
  <rect x="0" y="0" width="1100" height="1100" fill="white"/>
  <text x="10.0" y="18.0" font-family="monospace" font-size="12">prefix=N101_job5048502_task101 run_id=101 L=8.37678030908 feas=0.000e+00 N=101</text>
  <rect x="40.000000" y="40.000000" width="1020.000000" height="1020.000000" fill="none" stroke="#000" stroke-width="2"/>
  <path d="M330.243373 456.040237 L291.114770 461.958711 L292.958280 454.575048 L259.367905 463.445063 L262.317523 451.631202 L225.408828 473.791810 L233.520276 441.303694 L209.892555 435.404459 L214.316981 417.683668 L237.944702 423.582903 L246.056149 391.094786 L268.216757 428.003481 L271.166375 416.189621 L296.645302 439.807722 L298.488813 432.424059 Z" fill="#888" fill-opacity="0.18" stroke="#000" stroke-width="1"/>
  <path d="M140.449656 259.127103 L103.396506 245.229623 L108.604132 239.680061 L74.949106 231.058594 L83.281307 222.179294 L40.252554 223.547039 L63.166109 199.128965 L45.407510 182.464562 L57.905812 169.145613 L75.664411 185.810016 L98.577966 161.391942 L99.945710 204.420695 L108.277912 195.541396 L119.019384 228.580936 L124.227010 223.031374 Z" fill="#888" fill-opacity="0.18" stroke="#000" stroke-width="1"/>
  <path d="M500.458456 549.267337 L482.245142 514.134004 L489.828967 513.499491 L470.606498 484.560120 L482.740618 483.544899 L449.867265 455.747652 L483.236095 452.955793 L481.205652 428.687553 L499.406832 427.164721 L501.437275 451.432961 L534.806105 448.641102 L507.008858 481.514456 L519.142978 480.499234 L504.996617 512.230464 L512.580442 511.595950 Z" fill="#888" fill-opacity="0.18" stroke="#000" stroke-width="1"/>
  <path d="M335.345015 445.657010 L303.188698 422.590861 L309.661707 418.588715 L279.412505 401.501402 L289.769319 395.097969 L247.868702 385.214519 L276.349939 367.605077 L263.543072 346.891450 L279.078292 337.286300 L291.885159 357.999927 L320.366396 340.390485 L310.482945 382.291102 L320.839759 375.887669 L322.607724 410.584423 L329.080732 406.582278 Z" fill="#888" fill-opacity="0.18" stroke="#000" stroke-width="1"/>
  <path d="M723.407424 702.837597 L715.423213 741.597478 L709.133309 737.313307 L705.834416 771.898098 L695.770570 765.043425 L703.793503 807.339723 L676.117926 788.489373 L662.408580 808.617066 L647.312811 798.335057 L661.022156 778.207364 L633.346579 759.357013 L675.642877 751.334080 L665.579030 744.479407 L696.553501 728.744966 L690.263597 724.460796 Z" fill="#888" fill-opacity="0.18" stroke="#000" stroke-width="1"/>
  <path d="M349.381775 481.548611 L370.215005 515.194598 L362.701425 516.404196 L384.069693 543.797400 L372.047965 545.732756 L406.940676 570.948684 L373.880925 576.270915 L377.751638 600.314370 L359.719047 603.217406 L355.848333 579.173950 L322.788582 584.496181 L348.004510 549.603470 L335.982782 551.538827 L347.674266 518.823392 L340.160686 520.032990 Z" fill="#888" fill-opacity="0.18" stroke="#000" stroke-width="1"/>
  <path d="M694.503089 508.577905 L697.212121 469.097061 L704.020183 472.498135 L702.646743 437.783525 L713.539642 443.225243 L699.911691 402.388700 L729.867163 417.353426 L740.750599 395.567629 L757.089948 403.730206 L746.206511 425.516004 L776.161982 440.480730 L735.325439 454.108680 L746.218338 459.550399 L717.636306 479.300283 L724.444368 482.701357 Z" fill="#888" fill-opacity="0.18" stroke="#000" stroke-width="1"/>
  <path d="M555.122052 232.170449 L588.303057 210.604345 L589.677144 218.089590 L616.595135 196.125706 L618.793673 208.102099 L643.238309 172.664773 L649.284288 205.599852 L673.237073 201.202777 L676.534880 219.167365 L652.582095 223.564441 L658.628074 256.499520 L623.190748 232.054884 L625.389286 244.031276 L592.425316 233.060081 L593.799402 240.545326 Z" fill="#888" fill-opacity="0.18" stroke="#000" stroke-width="1"/>
  <path d="M945.882005 1006.804544 L909.785668 1023.025838 L909.575996 1015.418405 L879.607540 1032.993447 L879.272064 1020.821554 L849.681019 1052.089977 L848.758461 1018.617269 L824.414673 1019.288220 L823.911460 1001.030379 L848.255248 1000.359428 L847.332690 966.886720 L878.601113 996.477766 L878.265638 984.305872 L909.156651 1000.203537 L908.946979 992.596104 Z" fill="#888" fill-opacity="0.18" stroke="#000" stroke-width="1"/>
  <path d="M151.753758 305.050929 L186.168215 285.513245 L187.090995 293.067415 L215.277560 272.757121 L216.754008 284.843793 L243.279568 250.935993 L247.339800 284.174342 L271.513145 281.221446 L273.727816 299.351454 L249.554472 302.304350 L253.614703 335.542699 L219.706903 309.017138 L221.183351 321.103810 L188.936555 308.175755 L189.859335 315.729926 Z" fill="#888" fill-opacity="0.18" stroke="#000" stroke-width="1"/>
  <path d="M412.817750 146.208019 L429.594628 182.049508 L421.991340 182.376654 L440.027159 212.070083 L427.861899 212.593517 L459.583636 241.698082 L426.129170 243.137527 L427.176038 267.468047 L408.928148 268.253199 L407.881279 243.922678 L374.426813 245.362123 L403.531378 213.640386 L391.366118 214.163820 L406.784765 183.030947 L399.181477 183.358094 Z" fill="#888" fill-opacity="0.18" stroke="#000" stroke-width="1"/>
  <path d="M788.592467 1049.921890 L779.351708 1011.442229 L786.865905 1012.647987 L775.157701 979.938532 L787.180416 981.867744 L761.946657 946.987926 L795.009124 952.293258 L798.867548 928.247827 L816.901621 931.141645 L813.043197 955.187076 L846.105665 960.492408 L811.225847 985.726167 L823.248562 987.655379 L801.894299 1015.059501 L809.408496 1016.265259 Z" fill="#888" fill-opacity="0.18" stroke="#000" stroke-width="1"/>
  <path d="M440.472531 703.275225 L407.644496 725.374909 L406.149585 717.912855 L379.590175 740.309021 L377.198316 728.369735 L353.329748 764.197597 L346.752136 731.364560 L322.873564 736.148278 L319.285775 718.239348 L343.164348 713.455631 L336.586736 680.622594 L372.414599 704.491162 L370.022740 692.551876 L403.159761 702.988747 L401.664849 695.526694 Z" fill="#888" fill-opacity="0.18" stroke="#000" stroke-width="1"/>
  <path d="M52.175938 659.745129 L82.952630 684.622251 L76.260190 688.245545 L105.476734 707.044056 L94.768831 712.841327 L136.031766 725.117909 L106.585032 741.060403 L118.179573 762.476210 L102.117718 771.172116 L90.523177 749.756309 L61.076442 765.698804 L73.353024 724.435868 L62.645121 730.233139 L62.875311 695.492133 L56.182871 699.115427 Z" fill="#888" fill-opacity="0.18" stroke="#000" stroke-width="1"/>
  <path d="M953.645775 938.650227 L983.817812 964.257337 L977.040512 967.719303 L1005.798437 987.212179 L994.954756 992.751325 L1035.911822 1006.012662 L1006.091700 1021.245313 L1017.169991 1042.932674 L1000.904470 1051.241392 L989.826179 1029.554031 L960.006057 1044.786681 L973.267395 1003.829616 L962.423714 1009.368761 L963.485911 974.643235 L956.708611 978.105201 Z" fill="#888" fill-opacity="0.18" stroke="#000" stroke-width="1"/>
  <path d="M747.260614 744.117720 L786.782470 746.142276 L783.499867 753.008244 L818.185469 751.033524 L812.933304 762.019074 L853.527591 747.685610 L839.084139 777.895873 L861.055239 788.400201 L853.176993 804.878527 L831.205892 794.374198 L816.762440 824.584461 L802.428976 783.990174 L797.176811 794.975725 L776.934662 766.740182 L773.652059 773.606151 Z" fill="#888" fill-opacity="0.18" stroke="#000" stroke-width="1"/>
  <path d="M350.213675 941.474014 L380.549564 966.886801 L373.794639 970.392226 L402.677173 989.699989 L391.869294 995.308669 L432.910692 1008.306667 L403.189024 1023.730537 L414.406384 1045.346296 L398.194565 1053.759316 L386.977205 1032.143557 L357.255538 1047.567427 L370.253536 1006.526029 L359.445656 1012.134709 L360.284790 977.403077 L353.529866 980.908502 Z" fill="#888" fill-opacity="0.18" stroke="#000" stroke-width="1"/>
  <path d="M664.183624 716.491647 L646.626431 681.025877 L654.220738 680.532423 L635.539446 651.240790 L647.690339 650.451264 L615.339292 622.047847 L648.754247 619.876651 L647.175195 595.574865 L665.401534 594.390576 L666.980586 618.692362 L700.395540 616.521165 L671.992124 648.872212 L684.143017 648.082686 L669.409354 679.545516 L677.003662 679.052062 Z" fill="#888" fill-opacity="0.18" stroke="#000" stroke-width="1"/>
  <path d="M469.129145 765.467481 L491.233812 732.642801 L495.425717 738.994567 L511.610589 708.253058 L518.317639 718.415884 L526.957080 676.241195 L545.401466 704.188967 L565.727118 690.774868 L575.787692 706.019107 L555.462040 719.433206 L573.906426 747.380977 L531.731738 738.741536 L538.438787 748.904362 L503.809529 751.698100 L508.001435 758.049866 Z" fill="#888" fill-opacity="0.18" stroke="#000" stroke-width="1"/>
  <path d="M1004.820134 214.570843 L985.863973 249.309005 L981.099519 243.374615 L967.843761 275.488092 L960.220633 265.993068 L955.540893 308.788446 L934.577293 282.677131 L915.587246 297.923386 L904.152554 283.680851 L923.142601 268.434596 L902.179000 242.323282 L944.974378 247.003021 L937.351250 237.507998 L971.570609 231.505836 L966.806154 225.571447 Z" fill="#888" fill-opacity="0.18" stroke="#000" stroke-width="1"/>
  <path d="M247.744001 892.651014 L219.327603 920.193422 L216.540222 913.111931 L194.346494 939.840733 L189.886685 928.510347 L172.710241 967.985833 L160.445767 936.827271 L137.784995 945.746888 L131.095282 928.751309 L153.756055 919.831692 L141.491582 888.673130 L180.967068 905.849574 L176.507260 894.519188 L210.965462 898.948948 L208.178082 891.867456 Z" fill="#888" fill-opacity="0.18" stroke="#000" stroke-width="1"/>
  <path d="M769.752563 656.703514 L808.949091 662.154027 L805.082393 668.708846 L839.808406 669.755037 L833.621689 680.242748 L875.307758 669.490264 L858.294286 698.331468 L879.269708 710.704902 L869.989632 726.436468 L849.014211 714.063034 L832.000739 742.904238 L821.248255 701.218169 L815.061538 711.705880 L797.348997 681.818485 L793.482299 688.373304 Z" fill="#888" fill-opacity="0.18" stroke="#000" stroke-width="1"/>
  <path d="M766.453407 205.399587 L735.606732 180.609294 L742.288935 176.967155 L713.019531 158.251052 L723.711055 152.423629 L682.413688 140.263377 L711.815378 124.237963 L700.160532 102.854916 L716.197818 94.113781 L727.852664 115.496829 L757.254355 99.471415 L745.094103 140.768782 L755.785627 134.941359 L755.653340 169.682876 L762.335542 166.040736 Z" fill="#888" fill-opacity="0.18" stroke="#000" stroke-width="1"/>
  <path d="M670.500179 833.798097 L703.261227 811.599232 L704.778700 819.056730 L731.270255 796.580343 L733.698211 808.512341 L757.458315 772.612456 L764.135194 805.425450 L787.999190 800.569538 L791.641124 818.467535 L767.777129 823.323447 L774.454008 856.136441 L738.554123 832.376337 L740.982079 844.308335 L707.813645 833.971728 L709.331117 841.429226 Z" fill="#888" fill-opacity="0.18" stroke="#000" stroke-width="1"/>
  <path d="M473.986553 64.660624 L489.988568 100.854704 L482.380002 101.018222 L499.772916 131.092746 L487.599211 131.354374 L518.687543 161.134567 L485.209854 161.854043 L485.733110 186.201454 L467.472552 186.593895 L466.949297 162.246485 L433.471608 162.965962 L463.251801 131.877629 L451.078096 132.139257 L467.162871 101.345256 L459.554305 101.508774 Z" fill="#888" fill-opacity="0.18" stroke="#000" stroke-width="1"/>
  <path d="M665.598360 926.937931 L675.999553 965.120271 L668.452303 964.142499 L681.145164 996.482595 L669.069565 994.918160 L695.347474 1029.018244 L662.139578 1024.716048 L659.010707 1048.867245 L640.897309 1046.520593 L644.026179 1022.369395 L610.818283 1018.067198 L644.918368 991.789289 L632.842769 990.224854 L653.357805 962.186955 L645.810556 961.209184 Z" fill="#888" fill-opacity="0.18" stroke="#000" stroke-width="1"/>
  <path d="M1027.509873 191.474237 L1035.148713 230.303659 L1027.690913 228.787668 L1038.034107 261.954049 L1026.101627 259.528462 L1049.868860 295.423628 L1017.054541 288.753265 L1012.203368 312.618224 L994.304648 308.979845 L999.155821 285.114885 L966.341502 278.444522 L1002.236667 254.677289 L990.304188 252.251702 L1012.775314 225.755685 L1005.317514 224.239693 Z" fill="#888" fill-opacity="0.18" stroke="#000" stroke-width="1"/>
  <path d="M208.606767 193.486985 L248.128217 195.519448 L244.844241 202.384760 L279.530237 200.416979 L274.275874 211.401479 L314.873028 197.076136 L300.423532 227.283509 L322.392530 237.792233 L314.510987 254.268982 L292.541988 243.760258 L278.092492 273.967630 L263.767150 233.370477 L258.512788 244.354976 L238.276288 216.115384 L234.992312 222.980696 Z" fill="#888" fill-opacity="0.18" stroke="#000" stroke-width="1"/>
  <path d="M617.799862 610.023989 L609.319852 571.369554 L616.808806 572.723283 L605.748022 539.789265 L617.730348 541.955231 L593.189447 506.584501 L626.140844 512.540907 L630.472775 488.576255 L648.446264 491.825204 L644.114333 515.789856 L677.065729 521.746261 L641.695000 546.287162 L653.677326 548.453128 L631.786713 575.430740 L639.275667 576.784468 Z" fill="#888" fill-opacity="0.18" stroke="#000" stroke-width="1"/>
  <path d="M62.825744 280.277081 L88.639897 310.272171 L81.405993 312.635993 L106.775869 336.371197 L95.201624 340.153313 L133.592524 359.633637 L101.763351 370.034454 L109.327581 393.182944 L91.966214 398.856117 L84.401983 375.707627 L52.572809 386.108444 L72.053134 347.717543 L60.478889 351.499659 L66.938187 317.363638 L59.704284 319.727460 Z" fill="#888" fill-opacity="0.18" stroke="#000" stroke-width="1"/>
  <path d="M172.825418 416.170863 L151.499580 449.506798 L147.159314 443.255471 L131.702591 474.369458 L124.758164 464.367334 L117.113921 506.733710 L98.016748 479.227870 L78.012500 493.116723 L67.595860 478.113537 L87.600108 464.224684 L68.502934 436.718843 L110.869311 444.363086 L103.924884 434.360962 L138.478780 430.752816 L134.138514 424.501489 Z" fill="#888" fill-opacity="0.18" stroke="#000" stroke-width="1"/>
  <path d="M143.538395 162.033596 L106.687640 147.608001 L111.974044 142.133429 L78.445667 133.031871 L86.903913 124.272555 L43.860008 125.025227 L67.120186 100.937110 L49.601556 84.020616 L62.288926 70.881643 L79.807556 87.798137 L103.067735 63.710019 L103.820407 106.753924 L112.278653 97.994609 L122.546853 131.184284 L127.833257 125.709712 Z" fill="#888" fill-opacity="0.18" stroke="#000" stroke-width="1"/>
  <path d="M520.478180 583.353288 L489.558754 608.052783 L487.461168 600.737242 L462.813693 625.221776 L459.457555 613.516910 L438.585735 651.169419 L429.356356 618.981038 L405.946625 625.693313 L400.912418 608.136015 L424.322150 601.423739 L415.092771 569.235358 L452.745280 590.107179 L449.389142 578.402313 L483.265996 586.106159 L481.168410 578.790618 Z" fill="#888" fill-opacity="0.18" stroke="#000" stroke-width="1"/>
  <path d="M198.338277 956.645330 L235.764600 969.504033 L230.713771 975.196672 L264.596149 982.876184 L256.514822 991.984406 L299.488693 989.417169 L277.265045 1014.464778 L295.481488 1030.627432 L283.359498 1044.289764 L265.143054 1028.127110 L242.919406 1053.174720 L240.352169 1010.200849 L232.270842 1019.309070 L220.612112 986.581949 L215.561283 992.274587 Z" fill="#888" fill-opacity="0.18" stroke="#000" stroke-width="1"/>
  <path d="M299.192624 661.301763 L333.185391 641.039292 L334.268022 648.572215 L362.017924 627.669264 L363.750133 639.721939 L389.551301 605.259728 L394.314875 638.404587 L418.420227 634.940169 L421.018540 653.019183 L396.913188 656.483601 L401.676762 689.628459 L367.214550 663.827291 L368.946759 675.879967 L336.433282 663.638059 L337.515913 671.170982 Z" fill="#888" fill-opacity="0.18" stroke="#000" stroke-width="1"/>
  <path d="M920.330480 421.407387 L891.539917 448.558435 L888.849684 441.439471 L866.292339 467.862125 L861.987966 456.471782 L844.273041 495.708572 L832.436015 464.385129 L809.655329 472.993875 L803.198769 455.908360 L825.979455 447.299614 L814.142429 415.976171 L853.379220 433.691096 L849.074847 422.300753 L883.469217 427.201542 L880.778984 420.082577 Z" fill="#888" fill-opacity="0.18" stroke="#000" stroke-width="1"/>
  <path d="M567.978117 64.201373 L583.002921 100.811907 L575.392708 100.771152 L591.972158 131.301666 L579.795817 131.236459 L610.073652 161.840331 L576.588713 161.661010 L576.458298 186.013693 L558.193785 185.915882 L558.324200 161.563199 L524.839261 161.383878 L555.443134 131.106044 L543.266792 131.040836 L560.172281 100.689643 L552.562067 100.648888 Z" fill="#888" fill-opacity="0.18" stroke="#000" stroke-width="1"/>
  <path d="M755.592134 719.254117 L734.152785 685.991071 L741.643218 684.645554 L719.782196 657.643958 L731.766890 655.491131 L696.423088 630.911465 L729.380995 624.991190 L725.075340 601.021803 L743.052381 597.792562 L747.358035 621.761949 L780.315942 615.841674 L755.736277 651.185476 L767.720970 649.032649 L756.624085 681.954520 L764.114519 680.609003 Z" fill="#888" fill-opacity="0.18" stroke="#000" stroke-width="1"/>
  <path d="M968.066787 42.315171 L942.767119 72.745465 L939.236569 66.003638 L920.036473 94.957857 L914.387593 84.170935 L901.542487 125.260441 L886.008067 95.596404 L864.434222 106.894164 L855.960902 90.713781 L877.534747 79.416020 L862.000326 49.751984 L903.089833 62.597090 L897.440953 51.810167 L932.175469 52.519985 L928.644919 45.778159 Z" fill="#888" fill-opacity="0.18" stroke="#000" stroke-width="1"/>
  <path d="M772.723008 827.973644 L808.355032 845.190926 L802.663205 850.242670 L835.392199 861.896142 L826.285276 869.978932 L869.259559 872.539265 L844.215520 894.766937 L860.381100 912.980784 L846.720715 925.104969 L830.555135 906.891122 L805.511097 929.118795 L808.071430 886.144512 L798.964506 894.227302 L791.279551 860.346158 L785.587724 865.397901 Z" fill="#888" fill-opacity="0.18" stroke="#000" stroke-width="1"/>
  <path d="M133.522833 949.378115 L125.721018 988.175120 L119.411033 983.920582 L116.274846 1018.520506 L106.178870 1011.713245 L114.400656 1053.971339 L86.636722 1035.251370 L73.022199 1055.443322 L57.878235 1045.232429 L71.492758 1025.040477 L43.728824 1006.320508 L85.986918 998.098722 L75.890942 991.291460 L106.791063 975.411505 L100.481078 971.156966 Z" fill="#888" fill-opacity="0.18" stroke="#000" stroke-width="1"/>
  <path d="M690.496327 46.129830 L686.212206 85.470931 L679.545451 81.800591 L679.530952 116.542357 L668.864145 110.669813 L680.849805 152.018190 L651.516085 135.868695 L639.770998 157.202310 L623.770787 148.393495 L635.515874 127.059880 L606.182154 110.910386 L647.530531 98.924726 L636.863723 93.052183 L666.211942 74.459912 L659.545188 70.789572 Z" fill="#888" fill-opacity="0.18" stroke="#000" stroke-width="1"/>
  <path d="M554.037508 1036.430490 L515.149020 1043.762710 L516.723810 1036.317104 L483.476849 1046.398277 L485.996513 1034.485308 L449.914930 1057.968571 L456.844005 1025.207906 L433.018067 1020.168578 L436.797563 1002.299124 L460.623501 1007.338452 L467.552577 974.577786 L491.035841 1010.659369 L493.555505 998.746400 L519.873390 1021.425893 L521.448180 1013.980287 Z" fill="#888" fill-opacity="0.18" stroke="#000" stroke-width="1"/>
  <path d="M331.828167 491.076479 L330.112905 451.539992 L337.258084 454.159804 L332.017937 419.815499 L343.450225 424.007198 L325.348753 384.947231 L356.787545 396.474404 L365.170943 373.609828 L382.319374 379.897377 L373.935976 402.761953 L405.374767 414.289125 L366.314800 432.390597 L377.747088 436.582296 L351.548444 459.399428 L358.693624 462.019240 Z" fill="#888" fill-opacity="0.18" stroke="#000" stroke-width="1"/>
  <path d="M641.319287 310.390492 L680.206228 317.730912 L676.026942 324.090989 L710.661679 326.815964 L703.974821 336.992087 L746.132273 328.268924 L727.743414 356.253262 L748.095659 369.626977 L738.065373 384.891162 L717.713127 371.517446 L699.324268 399.501784 L690.601105 357.344333 L683.914248 367.520456 L667.668370 336.811142 L663.489084 343.171219 Z" fill="#888" fill-opacity="0.18" stroke="#000" stroke-width="1"/>
  <path d="M887.778065 408.834752 L872.894185 372.166700 L880.504186 372.236725 L864.042286 341.642668 L876.218287 341.754708 L846.058386 311.034606 L879.542388 311.342717 L879.766469 286.990716 L898.030470 287.158776 L897.806389 311.510777 L931.290390 311.818889 L900.570288 341.978789 L912.746288 342.090830 L895.724187 372.376775 L903.334187 372.446801 Z" fill="#888" fill-opacity="0.18" stroke="#000" stroke-width="1"/>
  <path d="M332.103764 672.082365 L325.920421 711.169987 L319.439138 707.181256 L317.743037 741.881597 L307.372984 735.499628 L317.343193 777.379685 L288.825546 759.829269 L276.061607 780.569375 L260.506527 770.996421 L273.270466 750.256314 L244.752820 732.705898 L286.632877 722.735688 L276.262824 716.353719 L306.476571 699.203794 L299.995288 695.215063 Z" fill="#888" fill-opacity="0.18" stroke="#000" stroke-width="1"/>
  <path d="M992.170681 926.584266 L953.470876 934.854759 L954.865153 927.373248 L921.871701 938.255465 L924.102544 926.285048 L888.599395 950.633983 L894.734213 917.715336 L870.793379 913.253650 L874.139643 895.298025 L898.080477 899.759710 L904.215295 866.841064 L928.564230 902.344213 L930.795073 890.373796 L957.653707 912.410227 L959.047983 904.928716 Z" fill="#888" fill-opacity="0.18" stroke="#000" stroke-width="1"/>
  <path d="M781.761616 252.921589 L746.298390 270.483922 L745.803836 262.889686 L716.514910 281.575223 L715.723623 269.424445 L687.324895 301.779608 L685.148856 268.364968 L660.847300 269.947542 L659.660370 251.721375 L683.961926 250.138801 L681.785887 216.724161 L714.141049 245.122889 L713.349762 232.972111 L744.814727 247.701213 L744.320173 240.106977 Z" fill="#888" fill-opacity="0.18" stroke="#000" stroke-width="1"/>
  <path d="M1051.373273 413.701196 L1016.504748 394.985911 L1022.406021 390.180499 L990.201571 377.147314 L999.643608 369.458655 L956.816867 365.075212 L982.782468 343.931398 L967.405148 325.047325 L981.568203 313.514335 L996.945523 332.398409 L1022.911123 311.254594 L1018.527681 354.081335 L1027.969718 346.392676 L1034.208566 380.569674 L1040.109839 375.764262 Z" fill="#888" fill-opacity="0.18" stroke="#000" stroke-width="1"/>
  <path d="M904.821705 720.192295 L888.584320 684.103194 L896.191659 683.890130 L878.603256 653.929513 L890.774999 653.588610 L859.493386 624.011509 L892.965679 623.074027 L892.283875 598.730541 L910.541489 598.219188 L911.223294 622.562674 L944.695587 621.625192 L915.118486 652.906806 L927.290229 652.565903 L911.406338 683.464002 L919.013677 683.250938 Z" fill="#888" fill-opacity="0.18" stroke="#000" stroke-width="1"/>
  <path d="M783.306892 886.101062 L764.683243 921.018617 L759.862350 915.129984 L746.913786 947.368551 L739.200356 937.946739 L734.929401 980.784844 L713.717468 954.874860 L694.873844 970.301720 L683.303699 956.169002 L702.147323 940.742142 L680.935391 914.832159 L723.773496 919.103115 L716.060066 909.681302 L750.220562 903.352719 L745.399668 897.464087 Z" fill="#888" fill-opacity="0.18" stroke="#000" stroke-width="1"/>
  <path d="M561.096109 507.806801 L544.826242 471.732331 L552.433387 471.512419 L534.818020 441.567648 L546.989451 441.215788 L515.681225 411.666859 L549.152661 410.699245 L548.448942 386.356383 L566.706089 385.828594 L567.409807 410.171456 L600.881243 409.203843 L571.332314 440.512069 L583.503745 440.160210 L567.647676 471.072595 L575.254820 470.852683 Z" fill="#888" fill-opacity="0.18" stroke="#000" stroke-width="1"/>
  <path d="M336.485083 103.166435 L372.444127 86.643025 L372.717584 94.248432 L402.537610 76.422706 L402.975141 88.591359 L432.302945 57.075899 L433.506156 90.539694 L457.843462 89.664631 L458.499759 107.917610 L434.162453 108.792673 L435.365665 142.256468 L403.850204 112.928665 L404.287736 125.097317 L373.264498 109.459248 L373.537955 117.064656 Z" fill="#888" fill-opacity="0.18" stroke="#000" stroke-width="1"/>
  <path d="M345.312121 270.282749 L329.801205 233.875505 L337.411286 233.814932 L320.426813 203.507867 L332.602943 203.410950 L301.920323 173.212918 L335.404682 172.946395 L335.210846 148.594134 L353.475042 148.448757 L353.668877 172.801018 L387.153236 172.534495 L356.955204 203.217115 L369.131334 203.120197 L352.631449 233.693785 L360.241531 233.633211 Z" fill="#888" fill-opacity="0.18" stroke="#000" stroke-width="1"/>
  <path d="M443.692277 434.107047 L444.177310 473.677752 L437.117049 470.837025 L441.286715 505.327667 L429.990298 500.782504 L446.868434 540.386454 L415.803287 527.887256 L406.712961 550.480090 L389.768336 543.662346 L398.858661 521.069512 L367.793514 508.570314 L407.397464 491.692178 L396.101047 487.147015 L422.996528 465.155572 L415.936267 462.314845 Z" fill="#888" fill-opacity="0.18" stroke="#000" stroke-width="1"/>
  <path d="M780.423445 222.821060 L810.421361 248.631929 L803.620769 252.047915 L832.246014 271.735114 L821.365067 277.200691 L862.231378 290.739116 L832.308773 305.769453 L843.239928 327.531347 L826.918507 335.729713 L815.987353 313.967819 L786.064748 328.998156 L799.603173 288.131846 L788.722226 293.597423 L790.019585 258.879887 L783.218993 262.295872 Z" fill="#888" fill-opacity="0.18" stroke="#000" stroke-width="1"/>
  <path d="M239.436947 1044.274093 L199.893076 1045.809737 L202.545319 1038.676531 L168.177564 1043.760610 L172.421153 1032.347482 L133.279360 1050.271330 L144.949230 1018.885227 L122.122973 1010.398049 L128.488357 993.278357 L151.314613 1001.765535 L162.984483 970.379433 L180.908331 1009.521226 L185.151920 998.108097 L207.849806 1024.410121 L210.502049 1017.276916 Z" fill="#888" fill-opacity="0.18" stroke="#000" stroke-width="1"/>
  <path d="M484.636863 220.230003 L522.648498 231.238707 L517.882778 237.172081 L552.100857 243.181536 L544.475706 252.674934 L587.272080 248.004315 L566.302915 274.111161 L585.289712 289.361463 L573.851986 303.601561 L554.865189 288.351259 L533.896024 314.458105 L529.225405 271.661731 L521.600254 281.155130 L508.351340 249.038830 L503.585620 254.972204 Z" fill="#888" fill-opacity="0.18" stroke="#000" stroke-width="1"/>
  <path d="M962.641075 89.251462 L992.709368 114.980310 L985.918131 118.414856 L1014.597036 138.023805 L1003.731056 143.519078 L1044.634188 156.945846 L1014.752743 172.057846 L1025.743288 193.789806 L1009.444319 202.032715 L998.453773 180.300756 L968.572328 195.412756 L981.999096 154.509624 L971.133116 160.004897 L972.335656 125.283947 L965.544419 128.718492 Z" fill="#888" fill-opacity="0.18" stroke="#000" stroke-width="1"/>
  <path d="M337.174216 1005.190776 L308.439833 977.980279 L315.395423 974.892112 L287.740456 953.863720 L298.869400 948.922653 L258.694371 933.452962 L289.298966 919.865026 L279.416831 897.607138 L296.110247 890.195536 L305.992382 912.453424 L336.596978 898.865488 L321.127288 939.040517 L332.256231 934.099449 L329.306603 968.715777 L336.262193 965.627610 Z" fill="#888" fill-opacity="0.18" stroke="#000" stroke-width="1"/>
  <path d="M654.770777 928.336287 L635.739432 963.033316 L630.987840 957.088622 L617.662567 989.173316 L610.060020 979.661806 L605.287613 1022.446949 L584.380609 996.290296 L565.357589 1011.495391 L553.953768 997.228126 L572.976788 982.023032 L552.069783 955.866379 L594.854926 960.638786 L587.252379 951.127276 L621.484656 945.199235 L616.733064 939.254541 Z" fill="#888" fill-opacity="0.18" stroke="#000" stroke-width="1"/>
  <path d="M861.748938 812.904039 L869.481349 774.093141 L875.798934 778.336387 L878.873231 743.730908 L888.981366 750.520101 L880.684011 708.276780 L908.481383 726.947062 L922.059770 706.730791 L937.221973 716.914581 L923.643586 737.130852 L951.440958 755.801133 L909.197637 764.098488 L919.305772 770.887681 L888.434103 786.822879 L894.751687 791.066124 Z" fill="#888" fill-opacity="0.18" stroke="#000" stroke-width="1"/>
  <path d="M606.212163 941.598061 L612.940418 902.600541 L619.365402 906.679338 L621.545623 872.006047 L631.825598 878.532122 L622.440847 836.516997 L650.710779 854.463702 L663.762928 833.903751 L679.182891 843.692863 L666.130742 864.252814 L694.400674 882.199519 L652.385549 891.584271 L662.665524 898.110346 L632.215372 914.836931 L638.640356 918.915728 Z" fill="#888" fill-opacity="0.18" stroke="#000" stroke-width="1"/>
  <path d="M119.664635 390.271204 L149.028863 363.741636 L151.566344 370.916467 L174.683211 344.981916 L178.743180 356.461646 L197.292582 317.612399 L208.457497 349.181656 L231.416956 341.061718 L237.506910 358.281313 L214.547450 366.401251 L225.712365 397.970508 L186.863118 379.421106 L190.923087 390.900835 L156.641305 385.266129 L159.178786 392.440960 Z" fill="#888" fill-opacity="0.18" stroke="#000" stroke-width="1"/>
  <path d="M473.540425 889.866487 L511.417751 878.404196 L510.650899 885.975785 L542.624325 872.385695 L541.397363 884.500237 L574.751121 857.281288 L571.376976 890.596277 L595.606058 893.050201 L593.765615 911.222012 L569.536533 908.768088 L566.162387 942.083077 L538.943439 908.729319 L537.716477 920.843860 L509.117197 901.118961 L508.350346 908.690549 Z" fill="#888" fill-opacity="0.18" stroke="#000" stroke-width="1"/>
  <path d="M774.890130 595.876229 L735.406043 593.214866 L738.798895 586.402703 L704.085969 587.818055 L709.514532 576.918594 L668.694472 590.595838 L683.623020 560.622321 L661.824099 549.765195 L669.966943 533.416004 L691.765865 544.273130 L706.694413 514.299612 L720.371658 555.119672 L725.800221 544.220211 L745.584599 572.778377 L748.977451 565.966214 Z" fill="#888" fill-opacity="0.18" stroke="#000" stroke-width="1"/>
  <path d="M578.205876 357.322563 L582.269096 317.958033 L588.956349 321.590893 L588.775831 286.849593 L599.475435 292.662168 L587.257864 251.381722 L616.681773 267.366303 L628.306924 245.967096 L644.356329 254.685959 L632.731179 276.085166 L662.155088 292.069747 L620.874642 304.287319 L631.574245 310.099894 L602.330853 328.856612 L609.018105 332.489471 Z" fill="#888" fill-opacity="0.18" stroke="#000" stroke-width="1"/>
  <path d="M44.387538 763.459067 L81.218729 777.934541 L75.924917 783.401951 L109.440942 792.548894 L100.970844 801.296750 L144.015729 800.602355 L120.722959 824.658959 L138.218671 841.599155 L125.513524 854.720939 L108.017812 837.780743 L84.725043 861.837347 L84.030648 818.792462 L75.560550 827.540318 L65.337295 794.336771 L60.043484 799.804181 Z" fill="#888" fill-opacity="0.18" stroke="#000" stroke-width="1"/>
  <path d="M693.306273 536.416021 L664.166638 509.639957 L671.075084 506.447719 L643.107550 485.836860 L654.161063 480.729278 L613.758327 465.864448 L644.155489 451.818600 L633.940326 429.711573 L650.520596 422.050201 L660.735759 444.157228 L691.132921 430.111380 L676.268090 470.514116 L687.321603 465.406535 L684.891976 500.063242 L691.800421 496.871004 Z" fill="#888" fill-opacity="0.18" stroke="#000" stroke-width="1"/>
  <path d="M236.714272 61.224260 L275.527560 68.944664 L271.286269 75.263561 L305.892697 78.327153 L299.106631 88.437388 L341.347383 80.126965 L322.685702 107.930111 L342.906172 121.502243 L332.727073 136.667596 L312.506603 123.095464 L293.844921 150.898610 L285.534499 108.657858 L278.748433 118.768093 L262.803686 87.901354 L258.562395 94.220251 Z" fill="#888" fill-opacity="0.18" stroke="#000" stroke-width="1"/>
  <path d="M116.710190 210.734074 L156.269136 211.813747 L153.151521 218.756187 L187.780038 215.953280 L182.791853 227.061185 L223.032078 211.761884 L209.314570 242.308623 L231.530380 252.284992 L224.048103 268.946850 L201.832293 258.970481 L188.114784 289.517220 L172.815484 249.276995 L167.827299 260.384900 L146.916290 232.641069 L143.798675 239.583509 Z" fill="#888" fill-opacity="0.18" stroke="#000" stroke-width="1"/>
  <path d="M395.996348 296.306906 L431.993996 279.867769 L432.249638 287.473797 L462.111336 269.717968 L462.520364 281.887612 L491.921906 250.440933 L493.046731 283.907455 L517.386019 283.089400 L517.999560 301.343866 L493.660272 302.161921 L494.785097 335.628443 L463.338418 306.226900 L463.747446 318.396545 L432.760922 302.685852 L433.016565 310.291880 Z" fill="#888" fill-opacity="0.18" stroke="#000" stroke-width="1"/>
  <path d="M254.010754 470.110901 L286.765731 492.318724 L280.400809 496.490626 L311.091248 512.772131 L300.907372 519.447175 L343.054672 528.219255 L315.049013 546.575626 L328.399101 566.943378 L313.123287 576.955944 L299.773199 556.588192 L271.767540 574.944563 L280.539620 532.797263 L270.355744 539.472307 L267.670964 504.834432 L261.306041 509.006334 Z" fill="#888" fill-opacity="0.18" stroke="#000" stroke-width="1"/>
  <path d="M99.397211 687.318954 L78.953805 653.434694 L86.480849 652.311919 L65.430255 624.673848 L77.473525 622.877409 L42.874252 597.260333 L75.993244 592.320125 L72.400365 568.233585 L90.465270 565.538926 L94.058149 589.625466 L127.177141 584.685257 L101.560064 619.284530 L113.603334 617.488091 L101.534936 650.066370 L109.061980 648.943595 Z" fill="#888" fill-opacity="0.18" stroke="#000" stroke-width="1"/>
  <path d="M147.506817 816.580504 L144.813448 777.098588 L152.021285 779.540736 L145.932631 745.336660 L157.465172 749.244096 L138.402409 710.644156 L170.116896 721.389603 L177.931767 698.324522 L195.230578 704.185676 L187.415706 727.250757 L219.130193 737.996205 L180.530253 757.058967 L192.062793 760.966403 L166.436961 784.425030 L173.644799 786.867177 Z" fill="#888" fill-opacity="0.18" stroke="#000" stroke-width="1"/>
  <path d="M339.653337 797.261895 L307.353760 820.127006 L305.683886 812.702146 L279.658172 835.716330 L276.986374 823.836555 L253.966432 860.215485 L246.618989 827.546105 L222.859440 832.889700 L218.851744 815.070039 L242.611293 809.726444 L235.263850 777.057064 L271.642779 800.077007 L268.970982 788.197232 L302.344140 797.852428 L300.674266 790.427569 Z" fill="#888" fill-opacity="0.18" stroke="#000" stroke-width="1"/>
  <path d="M262.409852 514.015361 L223.183324 519.245598 L225.156250 511.895457 L191.415248 520.174063 L194.571930 508.413837 L157.279662 529.922697 L165.960537 497.582077 L142.440086 491.268713 L147.175108 473.628375 L170.695559 479.941738 L179.376434 447.601118 L200.885294 484.893386 L204.041975 473.133161 L229.102102 497.195175 L231.075028 489.845034 Z" fill="#888" fill-opacity="0.18" stroke="#000" stroke-width="1"/>
  <path d="M848.370196 504.803329 L814.865907 525.863684 L813.605510 518.358459 L786.357481 539.911542 L784.340846 527.903181 L759.361531 562.965669 L753.815786 529.942677 L729.799064 533.975947 L726.774112 515.963406 L750.790833 511.930136 L745.245088 478.907144 L780.307577 503.886459 L778.290942 491.878099 L811.084717 503.348008 L809.824320 495.842782 Z" fill="#888" fill-opacity="0.18" stroke="#000" stroke-width="1"/>
  <path d="M942.232951 567.517022 L906.344928 550.839919 L911.959800 545.702778 L879.058517 534.545001 L888.042312 526.325574 L845.034258 524.414652 L869.739695 501.811230 L853.300843 483.843639 L866.776536 471.514500 L883.215388 489.482091 L907.920825 466.878669 L906.009902 509.886722 L914.993697 501.667296 L923.189544 535.428495 L928.804416 530.291354 Z" fill="#888" fill-opacity="0.18" stroke="#000" stroke-width="1"/>
  <path d="M204.781244 671.545014 L223.887931 636.889416 L228.626596 642.844419 L242.021546 610.788752 L249.603410 620.316758 L254.468764 577.542085 L275.318889 603.744100 L294.374900 588.580373 L305.747696 602.872381 L286.691685 618.036108 L307.541810 644.238123 L264.767138 639.372769 L272.349001 648.900774 L238.103925 654.754426 L242.842590 660.709429 Z" fill="#888" fill-opacity="0.18" stroke="#000" stroke-width="1"/>
  <path d="M416.099341 762.301623 L455.586145 764.922367 L452.200302 771.738017 L486.911754 770.286957 L481.494406 781.191996 L522.300375 767.472767 L507.402668 797.461626 L529.212747 808.296321 L521.086725 824.653881 L499.276646 813.819185 L484.378940 843.808043 L470.659711 803.002075 L465.242363 813.907115 L445.428617 785.369316 L442.042775 792.184966 Z" fill="#888" fill-opacity="0.18" stroke="#000" stroke-width="1"/>
  <path d="M930.772187 516.197107 L967.984083 529.663759 L962.841194 535.273367 L996.593982 543.503786 L988.365359 552.479159 L1031.375347 550.612284 L1008.746635 575.294559 L1026.697380 591.751804 L1014.354445 605.214863 L996.403700 588.757618 L973.774988 613.439892 L971.908113 570.429904 L963.679491 579.405276 L952.555416 546.492582 L947.412527 552.102190 Z" fill="#888" fill-opacity="0.18" stroke="#000" stroke-width="1"/>
  <path d="M367.018411 927.699320 L393.208687 898.032076 L396.537911 904.875560 L416.587555 876.502998 L421.914314 887.452573 L435.971354 846.761740 L450.619940 876.873070 L472.519090 866.219553 L480.509227 882.643915 L458.610078 893.297432 L473.258664 923.408763 L432.567831 909.351722 L437.894590 920.301297 L403.196360 918.562528 L406.525584 925.406012 Z" fill="#888" fill-opacity="0.18" stroke="#000" stroke-width="1"/>
  <path d="M921.559647 874.644584 L954.412994 852.582546 L955.899351 860.046309 L982.484416 837.680603 L984.862587 849.622623 L1008.772210 813.822145 L1015.312180 846.662701 L1039.196221 841.906359 L1042.763477 859.819389 L1018.879437 864.575731 L1025.419407 897.416287 L989.618929 873.506664 L991.997100 885.448684 L958.872064 874.973834 L960.358421 882.437596 Z" fill="#888" fill-opacity="0.18" stroke="#000" stroke-width="1"/>
  <path d="M517.295105 844.154868 L541.891237 813.153155 L545.575260 819.812358 L564.107225 790.426022 L570.001660 801.080748 L581.902385 759.707846 L598.112083 789.008341 L619.421533 777.219470 L628.263187 793.201558 L606.953736 804.990429 L623.163433 834.290924 L581.790531 822.390199 L587.684966 833.044924 L552.943304 833.130765 L556.627326 839.789969 Z" fill="#888" fill-opacity="0.18" stroke="#000" stroke-width="1"/>
  <path d="M212.017762 83.952750 L215.559454 123.367625 L208.300772 121.081026 L215.123480 155.146274 L203.509587 151.487717 L223.397924 189.668842 L191.459720 179.607808 L184.142604 202.835593 L166.721765 197.347757 L174.038881 174.119972 L142.100677 164.058938 L180.281802 144.170601 L168.667910 140.512043 L193.783406 116.507829 L186.524723 114.221231 Z" fill="#888" fill-opacity="0.18" stroke="#000" stroke-width="1"/>
  <path d="M446.137738 762.357126 L444.035090 722.839348 L451.205601 725.389010 L445.629122 691.097708 L457.101940 695.177167 L438.618540 656.296475 L470.168791 667.514985 L478.327707 644.569348 L495.536935 650.688536 L487.378018 673.634173 L518.928269 684.852683 L480.047577 703.336083 L491.520396 707.415542 L465.546624 730.488332 L472.717136 733.037994 Z" fill="#888" fill-opacity="0.18" stroke="#000" stroke-width="1"/>
  <path d="M764.248400 318.533224 L788.953224 349.448392 L781.638045 351.547239 L806.126828 376.190493 L794.422541 379.548648 L832.078646 400.413978 L799.891857 409.648905 L806.608167 433.057479 L789.051737 438.094712 L782.335426 414.686138 L750.148637 423.921064 L771.013966 386.264959 L759.309679 389.623114 L767.007686 355.744933 L759.692507 357.843780 Z" fill="#888" fill-opacity="0.18" stroke="#000" stroke-width="1"/>
  <path d="M925.559759 89.720846 L934.864417 128.185106 L927.348227 126.991831 L939.110743 159.681794 L927.084840 157.772554 L952.376496 192.610412 L919.305263 187.360001 L915.486782 211.411807 L897.447927 208.547947 L901.266408 184.496141 L868.195175 179.245729 L903.033034 153.954073 L891.007131 152.044832 L912.315848 124.605280 L904.799659 123.412005 Z" fill="#888" fill-opacity="0.18" stroke="#000" stroke-width="1"/>
  <path d="M962.636447 802.598046 L968.077744 763.400237 L974.633472 767.265394 L975.671498 732.539136 L986.160663 738.723388 L975.398378 697.039847 L1004.243581 714.046538 L1016.612084 693.068208 L1032.345831 702.344585 L1019.977329 723.322914 L1048.822533 740.329605 L1007.138993 751.091890 L1017.628157 757.276141 L987.744928 774.995708 L994.300656 778.860865 Z" fill="#888" fill-opacity="0.18" stroke="#000" stroke-width="1"/>
  <path d="M868.683537 137.962996 L829.485677 132.522069 L833.350772 125.966305 L798.624505 124.928606 L804.808657 114.439383 L763.125218 125.202061 L780.131636 96.356697 L759.153190 83.988393 L768.429418 68.254558 L789.407865 80.622862 L806.414283 51.777498 L817.176961 93.460936 L823.361113 82.971713 L841.080962 112.854775 L844.946057 106.299011 Z" fill="#888" fill-opacity="0.18" stroke="#000" stroke-width="1"/>
  <path d="M919.643878 476.852492 L959.038132 473.088361 L956.792544 480.359836 L990.818736 473.344940 L987.225796 484.979300 L1025.294045 464.875749 L1015.413461 496.870239 L1038.682181 504.056118 L1033.292772 521.507657 L1010.024052 514.321778 L1000.143468 546.316268 L980.039917 508.248020 L976.446978 519.882379 L952.301370 494.902786 L950.055783 502.174261 Z" fill="#888" fill-opacity="0.18" stroke="#000" stroke-width="1"/>
  <path d="M265.062392 520.512759 L241.192349 552.076932 L237.354777 545.505018 L219.509780 575.313516 L213.369665 564.798453 L202.432297 606.436396 L185.546981 577.519975 L164.516857 589.800205 L155.306684 574.027612 L176.336808 561.747382 L159.451492 532.830961 L201.089435 543.768329 L194.949320 533.253267 L229.679633 532.361190 L225.842062 525.789276 Z" fill="#888" fill-opacity="0.18" stroke="#000" stroke-width="1"/>
  <path d="M526.551038 366.793648 L502.310791 398.074415 L498.550910 391.457746 L480.355974 421.053941 L474.340164 410.467272 L462.913014 451.973470 L446.369537 422.860129 L425.196198 434.891748 L416.172483 419.011743 L437.345823 406.980124 L420.802346 377.866782 L462.308545 389.293932 L456.292735 378.707262 L491.031148 378.224409 L487.271267 371.607740 Z" fill="#888" fill-opacity="0.18" stroke="#000" stroke-width="1"/>
  <path d="M524.003949 563.861787 L554.952226 588.525122 L548.285046 592.194688 L577.631106 610.790365 L566.963617 616.661670 L608.310603 628.652129 L578.975008 644.798219 L590.717619 666.133196 L574.716386 674.940154 L562.973775 653.605177 L533.638181 669.751266 L545.628640 628.404281 L534.961151 634.275586 L534.950685 599.533819 L528.283504 603.203385 Z" fill="#888" fill-opacity="0.18" stroke="#000" stroke-width="1"/>
  <path d="M1001.490781 818.116744 L968.368698 839.773232 L966.974209 832.291761 L940.116200 854.328953 L937.885018 842.358599 L913.537088 877.862439 L907.401338 844.943966 L883.460630 849.406330 L880.113857 831.450799 L904.054564 826.988435 L897.918814 794.069962 L933.422653 818.417891 L931.191471 806.447538 L964.185231 817.328819 L962.790742 809.847348 Z" fill="#888" fill-opacity="0.18" stroke="#000" stroke-width="1"/>
  <path d="M592.911187 453.118489 L597.199995 413.777899 L603.866313 417.449033 L603.884951 382.707270 L614.551058 388.581084 L602.570325 347.231279 L631.902121 363.384269 L643.649749 342.052054 L659.648910 350.862775 L647.901282 372.194990 L677.233077 388.347980 L635.883273 400.328713 L646.549381 406.202527 L617.198947 424.791301 L623.865264 428.462435 Z" fill="#888" fill-opacity="0.18" stroke="#000" stroke-width="1"/>
  <path d="M388.453917 351.415293 L349.661112 343.592620 L353.919043 337.284923 L319.320809 334.130133 L326.133498 324.037819 L283.870989 332.236883 L302.605884 304.483018 L282.421255 290.857640 L292.640288 275.719168 L312.824917 289.344546 L331.559812 261.590681 L339.758876 303.853190 L346.571565 293.760875 L362.434904 324.669530 L366.692834 318.361833 Z" fill="#888" fill-opacity="0.18" stroke="#000" stroke-width="1"/>
  <path d="M444.898349 798.437325 L411.900896 820.283241 L410.463563 812.809883 L383.732263 835.000604 L381.432530 823.043231 L357.288430 858.685996 L350.964164 825.803220 L327.049418 830.402686 L323.599818 812.466627 L347.514564 807.867161 L341.190298 774.984385 L376.833064 799.128485 L374.533331 787.171111 L407.588897 797.863167 L406.151563 790.389808 Z" fill="#888" fill-opacity="0.18" stroke="#000" stroke-width="1"/>
  <path d="M758.562701 232.272335 L770.570683 194.564454 L776.376225 199.485093 L783.286588 165.437518 L792.575455 173.310540 L789.035841 130.405815 L814.580228 152.056626 L830.326272 133.478891 L844.259574 145.288424 L828.513530 163.866159 L854.057916 185.516971 L811.153191 189.056585 L820.442059 196.929607 L787.987310 209.326371 L793.792853 214.247010 Z" fill="#888" fill-opacity="0.18" stroke="#000" stroke-width="1"/>
</svg>
