<?xml version="1.0" encoding="UTF-8"?>
<svg xmlns="http://www.w3.org/2000/svg" width="1100" height="1100" viewBox="0 0 1100 1100">
  <rect x="0" y="0" width="1100" height="1100" fill="white"/>
  <text x="10.0" y="18.0" font-family="monospace" font-size="12">prefix=N106_job5048507_task106 run_id=106 L=8.64719794693 feas=0.000e+00 N=106</text>
  <rect x="40.000000" y="40.000000" width="1020.000000" height="1020.000000" fill="none" stroke="#000" stroke-width="2"/>
  <path d="M589.698724 206.484062 L626.234656 218.093694 L621.471413 223.720662 L654.458420 230.394305 L646.837231 239.397454 L688.398076 235.942555 L667.439806 260.701214 L685.446103 275.943593 L674.014319 289.448316 L656.008022 274.205938 L635.049751 298.964597 L631.594852 257.403752 L623.973663 266.406900 L611.944927 234.974598 L607.181683 240.601566 Z" fill="#888" fill-opacity="0.18" stroke="#000" stroke-width="1"/>
  <path d="M290.311892 932.949458 L297.674619 895.327016 L303.808579 899.416734 L306.672740 865.883515 L316.487075 872.427064 L308.310108 831.532353 L335.299531 849.527112 L348.386629 829.898441 L363.108132 839.713765 L350.021034 859.342436 L377.010457 877.337195 L336.115746 885.514162 L345.930082 892.057710 L316.076498 907.596170 L322.210458 911.685888 Z" fill="#888" fill-opacity="0.18" stroke="#000" stroke-width="1"/>
  <path d="M849.708286 922.820196 L811.603594 918.614201 L815.168615 912.161149 L781.513361 912.097781 L787.217394 901.772897 L747.145102 913.325023 L762.831193 884.931594 L742.181426 873.523527 L750.737476 858.036202 L771.387243 869.444268 L787.073334 841.050839 L798.625460 881.123130 L804.329493 870.798247 L822.298656 899.255044 L825.863677 892.801992 Z" fill="#888" fill-opacity="0.18" stroke="#000" stroke-width="1"/>
  <path d="M221.593329 309.805296 L199.982976 278.140638 L207.202320 276.646541 L185.343375 251.056178 L196.894326 248.665623 L162.040562 225.764634 L193.805676 219.190608 L189.024567 196.088707 L206.350992 192.502874 L211.132102 215.604775 L242.897216 209.030749 L219.996227 243.884513 L231.547178 241.493958 L221.641008 273.658348 L228.860352 272.164251 Z" fill="#888" fill-opacity="0.18" stroke="#000" stroke-width="1"/>
  <path d="M550.771273 1051.074855 L512.724308 1046.375239 L516.372684 1039.968945 L482.721080 1039.469288 L488.558481 1029.219217 L448.339800 1040.250891 L464.392654 1012.063196 L443.892512 1000.388392 L452.648615 985.013286 L473.148757 996.688089 L489.201611 968.500394 L500.233285 1008.719076 L506.070686 998.469005 L523.669436 1027.156356 L527.317812 1020.750062 Z" fill="#888" fill-opacity="0.18" stroke="#000" stroke-width="1"/>
  <path d="M843.493914 895.233081 L881.738534 892.586009 L879.379684 899.570784 L912.508254 893.639677 L908.734095 904.815318 L946.108594 886.311616 L935.729655 917.044626 L958.080936 924.592945 L952.419696 941.356406 L930.068416 933.808087 L919.689477 964.541097 L901.185776 927.166598 L897.411616 938.342238 L874.661985 913.540334 L872.303135 920.525109 Z" fill="#888" fill-opacity="0.18" stroke="#000" stroke-width="1"/>
  <path d="M544.656642 793.725779 L520.539716 823.525641 L517.033596 817.040398 L498.806088 845.332413 L493.196296 834.956025 L481.279804 874.921477 L465.852876 846.386408 L445.100098 857.605992 L436.685410 842.041409 L457.438188 830.821825 L442.011259 802.286755 L481.976712 814.203247 L476.366919 803.826858 L510.021356 804.069912 L506.515235 797.584669 Z" fill="#888" fill-opacity="0.18" stroke="#000" stroke-width="1"/>
  <path d="M404.636007 762.986919 L378.638620 791.161266 L375.560141 784.462444 L355.537508 811.513772 L350.611940 800.795656 L336.130571 839.904864 L322.585260 810.430047 L301.149029 820.281182 L293.760678 804.204009 L315.196908 794.352874 L301.651597 764.878056 L340.760805 779.359426 L335.835237 768.641310 L369.403181 771.064800 L366.324701 764.365978 Z" fill="#888" fill-opacity="0.18" stroke="#000" stroke-width="1"/>
  <path d="M313.151480 166.695391 L286.000633 139.630849 L292.813188 136.812988 L266.554119 115.762062 L277.454207 111.253483 L238.932539 95.274710 L268.907782 82.876118 L259.890624 61.075941 L276.240757 54.313072 L285.257915 76.113249 L315.233158 63.714657 L299.254384 102.236326 L310.154473 97.727747 L306.438299 131.177264 L313.250854 128.359402 Z" fill="#888" fill-opacity="0.18" stroke="#000" stroke-width="1"/>
  <path d="M430.130744 756.348441 L431.505082 794.659916 L424.602576 792.070192 L429.429194 825.377607 L418.385185 821.234049 L435.636313 859.202967 L405.265287 847.808183 L396.978172 869.896202 L380.412158 863.680865 L388.699274 841.592846 L358.328248 830.198062 L396.297166 812.946934 L385.253157 808.803376 L410.797564 786.890745 L403.895058 784.301021 Z" fill="#888" fill-opacity="0.18" stroke="#000" stroke-width="1"/>
  <path d="M440.257644 662.910370 L415.983009 692.581906 L412.511334 686.078159 L394.134031 714.273103 L388.579351 703.867108 L376.451064 743.768798 L361.175693 715.152311 L340.363702 726.261672 L332.031681 710.652679 L352.843672 699.543318 L337.568300 670.926831 L377.469990 683.055118 L371.915309 672.649122 L405.567983 673.070665 L402.096308 666.566918 Z" fill="#888" fill-opacity="0.18" stroke="#000" stroke-width="1"/>
  <path d="M510.418392 400.372125 L473.187893 409.512581 L474.319062 402.227547 L442.690357 413.729944 L444.500227 402.073891 L410.835418 426.689348 L415.812562 394.635201 L392.500455 391.015460 L395.215260 373.531380 L418.527367 377.151121 L423.504511 345.096974 L448.119969 378.761784 L449.929839 367.105731 L476.581401 387.657480 L477.712570 380.372447 Z" fill="#888" fill-opacity="0.18" stroke="#000" stroke-width="1"/>
  <path d="M590.979662 898.757681 L606.538296 863.720746 L611.607084 869.074123 L621.869259 837.021542 L629.979319 845.586945 L631.117676 803.898286 L653.420342 827.453144 L670.551149 811.233023 L682.716239 824.081128 L665.585433 840.301249 L687.888099 863.856108 L646.199440 862.717751 L654.309501 871.283154 L621.744660 879.780876 L626.813448 885.134253 Z" fill="#888" fill-opacity="0.18" stroke="#000" stroke-width="1"/>
  <path d="M858.479482 946.629582 L892.823388 963.663491 L887.259388 968.500138 L918.846776 980.115518 L909.944375 987.854153 L951.546965 990.763568 L927.065362 1012.044814 L942.542632 1029.849616 L929.189030 1041.457568 L913.711761 1023.652766 L889.230158 1044.934012 L892.139573 1003.331422 L883.237172 1011.070057 L876.131386 978.173432 L870.567386 983.010079 Z" fill="#888" fill-opacity="0.18" stroke="#000" stroke-width="1"/>
  <path d="M540.219205 434.787628 L530.389221 397.733217 L537.693997 398.728961 L525.606464 367.319222 L537.294105 368.912411 L512.057975 335.710335 L544.198989 340.091605 L547.385367 316.716323 L564.916830 319.106107 L561.730451 342.481389 L593.871465 346.862660 L560.669388 372.098790 L572.357029 373.691979 L552.303549 400.720447 L559.608325 401.716191 Z" fill="#888" fill-opacity="0.18" stroke="#000" stroke-width="1"/>
  <path d="M563.070354 42.837738 L601.383103 44.176085 L598.311744 50.878175 L631.877093 48.419017 L626.962918 59.142360 L666.056715 44.619441 L652.542732 74.108635 L673.989418 83.936986 L666.618155 100.022001 L645.171469 90.193650 L631.657486 119.682844 L617.134566 80.589047 L612.220391 91.312390 L592.169024 64.282354 L589.097664 70.984444 Z" fill="#888" fill-opacity="0.18" stroke="#000" stroke-width="1"/>
  <path d="M234.288032 233.784404 L262.089849 260.179799 L255.347929 263.162711 L282.111801 283.567987 L271.324728 288.340646 L310.224057 303.376681 L280.559607 316.501493 L290.104924 338.075638 L273.924315 345.234627 L264.378997 323.660481 L234.714547 336.785292 L249.750582 297.885963 L238.963509 302.658622 L241.864088 269.128534 L235.122167 272.111446 Z" fill="#888" fill-opacity="0.18" stroke="#000" stroke-width="1"/>
  <path d="M591.946332 481.164970 L617.517002 452.602778 L620.695892 459.254539 L640.309376 431.905107 L645.395599 442.547923 L659.287081 403.225323 L673.274196 432.493068 L694.559829 422.320621 L702.189165 438.284846 L680.903532 448.457293 L694.890647 477.725038 L655.568046 463.833556 L660.654270 474.476373 L627.053671 472.558059 L630.232561 479.209820 Z" fill="#888" fill-opacity="0.18" stroke="#000" stroke-width="1"/>
  <path d="M141.647052 818.617253 L150.077043 781.219483 L156.092180 785.482038 L159.909099 752.043867 L169.533319 758.863956 L162.522990 717.753185 L188.989595 736.508428 L202.629772 717.259989 L217.066101 727.490122 L203.425925 746.738561 L229.892529 765.493804 L188.781758 772.504133 L198.405978 779.324221 L168.122455 794.007149 L174.137592 798.269704 Z" fill="#888" fill-opacity="0.18" stroke="#000" stroke-width="1"/>
  <path d="M264.321010 709.289284 L259.568957 671.248832 L266.673183 673.218915 L258.924218 640.467829 L270.290980 643.619961 L249.754408 607.322725 L281.013002 615.991091 L287.317268 593.257567 L304.367411 597.985767 L298.063145 620.719290 L329.321740 629.387656 L293.024503 649.924227 L304.391265 653.076360 L280.881635 677.159082 L287.985861 679.129165 Z" fill="#888" fill-opacity="0.18" stroke="#000" stroke-width="1"/>
  <path d="M70.274158 418.806826 L106.041588 405.010126 L105.845186 412.379840 L135.756125 396.952077 L135.441882 408.743619 L165.706344 380.050370 L164.842177 412.477111 L188.425261 413.105596 L187.953897 430.792910 L164.370813 430.164424 L163.506645 462.591165 L134.813397 432.326703 L134.499154 444.118245 L105.452383 427.119268 L105.255981 434.488982 Z" fill="#888" fill-opacity="0.18" stroke="#000" stroke-width="1"/>
  <path d="M552.651138 892.791193 L583.772084 915.177452 L577.496347 919.046092 L606.777529 935.638033 L596.736350 941.827857 L637.313859 951.456246 L609.700615 968.478263 L622.080263 988.560622 L607.018493 997.845358 L594.638845 977.762999 L567.025601 994.785015 L576.653990 954.207505 L566.612810 960.397330 L564.944872 926.783372 L558.669135 930.652012 Z" fill="#888" fill-opacity="0.18" stroke="#000" stroke-width="1"/>
  <path d="M652.637416 778.087282 L641.028793 741.551028 L648.373144 742.192712 L634.782304 711.403603 L646.533267 712.430296 L619.722594 680.486157 L652.037740 683.309564 L654.091127 659.807639 L671.717570 661.347679 L669.664184 684.849604 L701.979330 687.673010 L670.035191 714.483683 L681.786153 715.510376 L663.061847 743.476078 L670.406199 744.117762 Z" fill="#888" fill-opacity="0.18" stroke="#000" stroke-width="1"/>
  <path d="M709.821089 931.176211 L748.153056 930.612094 L745.417991 937.458310 L778.819998 933.336897 L774.443894 944.290842 L812.769019 927.846241 L800.734731 957.969591 L822.642622 966.721800 L816.078464 983.152718 L794.170574 974.400509 L782.136286 1004.523859 L765.691684 966.198733 L761.315579 977.152679 L739.947860 951.150742 L737.212794 957.996958 Z" fill="#888" fill-opacity="0.18" stroke="#000" stroke-width="1"/>
  <path d="M125.968124 860.051223 L163.303758 868.752279 L158.997680 874.736337 L192.407283 878.795719 L185.517559 888.370212 L226.678102 881.658289 L207.731361 907.988145 L226.880347 921.767593 L216.545761 936.129332 L197.396775 922.349884 L178.450034 948.679740 L171.738112 907.519198 L164.848388 917.093691 L150.385525 886.704453 L146.079448 892.688511 Z" fill="#888" fill-opacity="0.18" stroke="#000" stroke-width="1"/>
  <path d="M280.173537 260.608345 L257.021287 230.052964 L264.157764 228.203111 L241.058102 203.726882 L252.476464 200.767117 L216.531144 179.620624 L247.931641 171.481269 L242.012110 148.644544 L259.139654 144.204896 L265.059185 167.041621 L296.459682 158.902266 L275.313189 194.847586 L286.731552 191.887820 L278.430717 224.503404 L285.567193 222.653551 Z" fill="#888" fill-opacity="0.18" stroke="#000" stroke-width="1"/>
  <path d="M146.675002 281.450754 L110.216259 269.600943 L115.016429 264.005442 L82.074053 257.114866 L89.754324 248.162065 L48.171643 251.343391 L69.292388 226.723187 L51.386786 211.362645 L62.907192 197.933443 L80.812795 213.293985 L101.933540 188.673782 L105.114866 230.256462 L112.795137 221.303661 L124.616767 252.814440 L129.416937 247.218939 Z" fill="#888" fill-opacity="0.18" stroke="#000" stroke-width="1"/>
  <path d="M742.492307 878.037163 L721.232584 909.938293 L717.142126 903.804827 L701.607267 933.660284 L695.062535 923.846737 L686.890500 964.742434 L668.892486 937.755182 L649.265394 950.844647 L639.448295 936.124327 L659.075387 923.034863 L641.077373 896.047610 L681.973070 904.219645 L675.428338 894.406099 L708.961210 891.537894 L704.870752 885.404427 Z" fill="#888" fill-opacity="0.18" stroke="#000" stroke-width="1"/>
  <path d="M815.081530 330.904040 L801.309387 295.127147 L808.678964 295.328608 L793.271738 265.407086 L805.063061 265.729423 L776.390596 235.445271 L808.816736 236.331698 L809.461410 212.749051 L827.148396 213.232557 L826.503721 236.815204 L858.929861 237.701632 L828.645709 266.374098 L840.437032 266.696435 L823.418119 295.731530 L830.787696 295.932991 Z" fill="#888" fill-opacity="0.18" stroke="#000" stroke-width="1"/>
  <path d="M853.484845 664.442655 L873.720910 631.882563 L878.004058 637.883055 L892.583101 607.549383 L899.436137 617.150170 L906.305514 576.015612 L925.151363 602.417776 L944.352937 588.711704 L954.632491 603.112884 L935.430917 616.818957 L954.276766 643.221121 L913.142209 636.351743 L919.995245 645.952530 L886.570353 649.884039 L890.853501 655.884530 Z" fill="#888" fill-opacity="0.18" stroke="#000" stroke-width="1"/>
  <path d="M163.137325 736.736068 L125.882934 745.778650 L127.033244 738.496614 L95.374420 749.915851 L97.214916 738.264594 L63.485533 762.791495 L68.546898 730.750539 L45.244384 727.069546 L48.005129 709.592661 L71.307643 713.273654 L76.369008 681.232698 L100.895909 714.962081 L102.736405 703.310824 L129.333865 723.932543 L130.484175 716.650507 Z" fill="#888" fill-opacity="0.18" stroke="#000" stroke-width="1"/>
  <path d="M341.283454 1020.400315 L368.517469 993.419463 L371.292619 1000.249528 L392.507551 974.122783 L396.947791 985.050888 L413.167453 946.630025 L425.378114 976.682314 L447.234324 967.801833 L453.894684 984.193991 L432.038474 993.074471 L444.249135 1023.126760 L405.828272 1006.907098 L410.268512 1017.835203 L376.842919 1013.909659 L379.618069 1020.739725 Z" fill="#888" fill-opacity="0.18" stroke="#000" stroke-width="1"/>
  <path d="M155.457734 937.002959 L155.730222 975.338108 L148.905012 972.551039 L152.772197 1005.983434 L141.851860 1001.524123 L158.004425 1039.973243 L127.973498 1027.710137 L119.054876 1049.550811 L102.674371 1042.861844 L111.592993 1021.021171 L81.562067 1008.758065 L120.011186 992.605501 L109.090850 988.146190 L135.254590 966.976900 L128.429380 964.189831 Z" fill="#888" fill-opacity="0.18" stroke="#000" stroke-width="1"/>
  <path d="M569.591857 192.268120 L558.868324 155.462362 L566.195051 156.281096 L553.351186 125.172974 L565.073950 126.482947 L539.041976 93.901104 L571.279575 97.503532 L573.899523 74.058006 L591.483668 76.022966 L588.863720 99.468493 L621.101319 103.070921 L588.519476 129.102895 L600.242240 130.412869 L580.848506 157.918563 L588.175233 158.737297 Z" fill="#888" fill-opacity="0.18" stroke="#000" stroke-width="1"/>
  <path d="M212.055918 465.785696 L196.506923 500.826910 L191.436663 495.474928 L181.183306 527.530331 L173.070890 518.967159 L171.944002 560.656130 L149.634856 537.107408 L132.508513 553.332241 L120.339888 540.487483 L137.466231 524.262650 L115.157086 500.713928 L156.846056 501.840816 L148.733640 493.277644 L181.296142 484.770963 L176.225882 479.418981 Z" fill="#888" fill-opacity="0.18" stroke="#000" stroke-width="1"/>
  <path d="M531.217689 247.063715 L511.128093 214.413048 L518.409986 213.261837 L497.784980 186.666927 L509.436009 184.824990 L475.703594 160.302259 L507.743925 155.236933 L504.060051 131.934875 L521.536595 129.171970 L525.220468 152.474028 L557.260799 147.408703 L532.738067 181.141117 L544.389097 179.299181 L532.973773 210.959417 L540.255666 209.808206 Z" fill="#888" fill-opacity="0.18" stroke="#000" stroke-width="1"/>
  <path d="M835.056714 780.381797 L852.271490 746.128192 L857.078729 751.717620 L868.860514 720.191921 L876.552097 729.135005 L879.680851 687.548336 L900.832704 712.141819 L918.718873 696.758653 L930.256248 710.173280 L912.370079 725.556446 L933.521932 750.149928 L891.935263 747.021175 L899.626846 755.964259 L866.693208 762.896476 L871.500447 768.485903 Z" fill="#888" fill-opacity="0.18" stroke="#000" stroke-width="1"/>
  <path d="M707.327847 1053.637568 L671.840247 1039.136251 L677.039268 1033.909260 L644.693457 1024.612558 L653.011890 1016.249372 L611.307842 1016.361254 L634.183533 993.362492 L617.457160 976.725626 L629.934810 964.180847 L646.661182 980.817713 L669.536873 957.818951 L669.648756 999.522999 L677.967189 991.159813 L687.437309 1023.455277 L692.636330 1018.228286 Z" fill="#888" fill-opacity="0.18" stroke="#000" stroke-width="1"/>
  <path d="M493.441035 316.281910 L455.275311 319.892380 L457.457308 312.850353 L424.488807 319.614825 L427.980002 308.347582 L391.083906 327.787703 L400.684692 296.802784 L378.150205 289.820395 L383.386998 272.919530 L405.921484 279.901919 L415.522270 248.917000 L434.962391 285.813095 L438.453586 274.545852 L461.821301 298.766299 L464.003298 291.724271 Z" fill="#888" fill-opacity="0.18" stroke="#000" stroke-width="1"/>
  <path d="M1026.845453 298.760164 L1036.543606 335.849296 L1029.242417 334.827583 L1041.218178 366.280107 L1029.536276 364.645366 L1054.654178 397.936974 L1022.528947 393.441435 L1019.259464 416.805239 L1001.736611 414.353127 L1005.006094 390.989323 L972.880864 386.493784 L1006.172473 361.375883 L994.490571 359.741141 L1014.640040 332.784156 L1007.338851 331.762443 Z" fill="#888" fill-opacity="0.18" stroke="#000" stroke-width="1"/>
  <path d="M951.446381 590.518823 L919.655657 569.094357 L925.810201 565.035683 L896.035507 549.346587 L905.882778 542.852709 L865.029903 534.469226 L892.109900 516.611061 L879.122143 496.916518 L893.893050 487.175700 L906.880807 506.870243 L933.960803 489.012077 L925.577321 529.864952 L935.424592 523.371073 L938.119291 556.918335 L944.273835 552.859661 Z" fill="#888" fill-opacity="0.18" stroke="#000" stroke-width="1"/>
  <path d="M109.893503 368.030883 L136.124562 340.073960 L139.147162 346.798181 L159.394324 319.914494 L164.230484 330.673247 L179.036965 291.685964 L192.336406 321.272534 L213.853912 311.600213 L221.108153 327.738343 L199.590647 337.410664 L212.890088 366.997234 L173.902805 352.190753 L178.738965 362.949506 L145.192362 360.246622 L148.214963 366.970842 Z" fill="#888" fill-opacity="0.18" stroke="#000" stroke-width="1"/>
  <path d="M433.939853 321.422028 L410.662217 351.881995 L406.976840 345.496914 L389.544344 374.285596 L383.647743 364.069467 L372.848924 404.351295 L356.633269 376.256939 L336.201010 388.050143 L327.356107 372.725949 L347.788366 360.932745 L331.572711 332.838389 L371.854539 343.637208 L365.957937 333.421079 L399.606088 332.726752 L395.920712 326.341671 Z" fill="#888" fill-opacity="0.18" stroke="#000" stroke-width="1"/>
  <path d="M948.610867 541.535970 L985.198421 552.981880 L980.460422 558.630121 L1013.476983 565.155983 L1005.896186 574.193169 L1047.441143 570.552197 L1026.593951 595.404458 L1044.668323 610.566053 L1033.297127 624.121831 L1015.222755 608.960237 L994.375563 633.812498 L990.734592 592.267541 L983.153794 601.304726 L970.984426 569.926603 L966.246428 575.574844 Z" fill="#888" fill-opacity="0.18" stroke="#000" stroke-width="1"/>
  <path d="M638.864394 635.079593 L601.551413 626.281904 L605.872968 620.309014 L572.473987 616.163148 L579.388477 606.606525 L538.210695 613.211859 L557.225541 586.931145 L538.112294 573.102166 L548.484028 558.767231 L567.597275 572.596210 L586.612121 546.315496 L593.217456 587.493278 L600.131945 577.936655 L614.516080 608.363235 L618.837636 602.390346 Z" fill="#888" fill-opacity="0.18" stroke="#000" stroke-width="1"/>
  <path d="M285.304909 247.569313 L297.728363 211.302031 L303.247448 216.189869 L310.656814 183.360287 L319.487349 191.180828 L316.962364 149.553138 L341.246335 171.059625 L356.887417 153.398555 L370.133220 165.129366 L354.492138 182.790437 L378.776110 204.296924 L337.148420 206.821910 L345.978955 214.642451 L314.285617 225.965545 L319.804701 230.853383 Z" fill="#888" fill-opacity="0.18" stroke="#000" stroke-width="1"/>
  <path d="M238.663937 674.069358 L263.203744 703.521960 L256.160396 705.699692 L280.366687 729.082071 L269.097332 732.566442 L305.981648 752.028903 L274.990920 761.610923 L281.959662 784.149634 L265.055629 789.376190 L258.086887 766.837479 L227.096160 776.419499 L246.558621 739.535183 L235.289266 743.019554 L242.073702 710.055156 L235.030355 712.232887 Z" fill="#888" fill-opacity="0.18" stroke="#000" stroke-width="1"/>
  <path d="M245.603820 620.918104 L237.726817 658.436243 L231.649411 654.262948 L228.326526 687.753822 L218.602676 681.076550 L226.219122 722.079354 L199.478535 703.716857 L186.123992 723.164557 L171.538217 713.148650 L184.892760 693.700950 L158.152172 675.338453 L199.154976 667.722007 L189.431126 661.044736 L219.494599 645.916359 L213.417192 641.743064 Z" fill="#888" fill-opacity="0.18" stroke="#000" stroke-width="1"/>
  <path d="M669.985856 475.234984 L644.266026 503.662933 L641.121999 496.994623 L621.365622 524.241012 L616.335178 513.571718 L602.238050 552.821063 L588.404330 523.480503 L567.065741 533.541390 L559.520076 517.537448 L580.858665 507.476561 L567.024945 478.136000 L606.274291 492.233128 L601.243848 481.563833 L634.833944 483.658005 L631.689917 476.989696 Z" fill="#888" fill-opacity="0.18" stroke="#000" stroke-width="1"/>
  <path d="M1057.089561 838.018849 L1056.352879 876.347888 L1049.603396 873.382128 L1052.589218 906.904732 L1041.790045 902.159516 L1056.924937 941.020489 L1027.227212 927.971145 L1017.736779 949.569491 L1001.538020 942.451666 L1011.028452 920.853320 L981.330727 907.803976 L1020.191699 892.669084 L1009.392526 887.923868 L1036.104430 867.450608 L1029.354946 864.484848 Z" fill="#888" fill-opacity="0.18" stroke="#000" stroke-width="1"/>
  <path d="M280.654815 134.391917 L242.343863 133.003088 L245.424051 126.305051 L211.855490 128.719980 L216.783791 118.003121 L177.670892 132.474516 L191.223719 103.003154 L169.790002 93.146552 L177.182453 77.071264 L198.616171 86.927866 L212.168998 57.456504 L226.640393 96.569403 L231.568694 85.852545 L251.584427 112.908978 L254.664615 106.210941 Z" fill="#888" fill-opacity="0.18" stroke="#000" stroke-width="1"/>
  <path d="M936.593223 169.004064 L974.614221 173.909335 L970.931259 180.295809 L1004.579670 180.977415 L998.686930 191.195773 L1038.964673 180.381727 L1022.759640 208.482211 L1043.196355 220.267690 L1034.357246 235.595226 L1013.920531 223.809748 L997.715498 251.910231 L986.901452 211.632489 L981.008712 221.850846 L963.565334 193.068756 L959.882372 199.455230 Z" fill="#888" fill-opacity="0.18" stroke="#000" stroke-width="1"/>
  <path d="M303.826928 896.855508 L270.277026 878.306599 L276.051233 873.722956 L245.013404 860.710142 L254.252136 853.376313 L212.820734 848.614056 L238.227246 828.446026 L223.559588 809.968563 L237.417685 798.967819 L252.085344 817.445283 L277.491856 797.277252 L272.729599 838.708654 L281.968331 831.374825 L287.599648 864.555670 L293.373855 859.972026 Z" fill="#888" fill-opacity="0.18" stroke="#000" stroke-width="1"/>
  <path d="M221.947365 503.765993 L225.546880 465.599235 L232.055808 469.061187 L231.583976 435.409181 L241.998261 440.948304 L229.810358 401.064784 L258.449641 416.297374 L269.527888 395.468805 L285.149315 403.777490 L274.071068 424.606059 L302.710350 439.838649 L262.826830 452.026552 L273.241114 457.565675 L245.073664 475.985092 L251.582592 479.447044 Z" fill="#888" fill-opacity="0.18" stroke="#000" stroke-width="1"/>
  <path d="M694.461476 317.998209 L730.966409 329.704952 L726.188220 335.319234 L759.157364 342.080570 L751.512262 351.063421 L793.082147 347.719049 L772.058115 372.421890 L790.023818 387.712095 L778.556165 401.186372 L760.590461 385.896168 L739.566430 410.599009 L736.222057 369.029124 L728.576955 378.011976 L716.631842 346.547799 L711.853653 352.162081 Z" fill="#888" fill-opacity="0.18" stroke="#000" stroke-width="1"/>
  <path d="M942.226892 705.587087 L967.575733 734.346332 L960.595628 736.718964 L985.442385 759.419598 L974.274216 763.215808 L1011.685164 781.645705 L980.972699 792.085283 L988.565119 814.421621 L971.812866 820.115936 L964.220445 797.779598 L933.507980 808.219176 L951.937878 770.808228 L940.769709 774.604438 L946.635416 741.464226 L939.655311 743.836857 Z" fill="#888" fill-opacity="0.18" stroke="#000" stroke-width="1"/>
  <path d="M1030.969050 171.363145 L1006.985457 141.455868 L1014.068376 139.410503 L990.304492 115.578634 L1001.637161 112.306048 L965.124024 92.155838 L996.288865 83.156228 L989.743695 60.490889 L1006.742699 55.582011 L1013.287870 78.247350 L1044.452711 69.247741 L1024.302500 105.760878 L1035.635170 102.488292 L1028.234213 135.319771 L1035.317131 133.274405 Z" fill="#888" fill-opacity="0.18" stroke="#000" stroke-width="1"/>
  <path d="M525.873991 110.331711 L487.833344 115.082199 L489.803720 107.978054 L457.052314 115.725671 L460.204915 104.359039 L423.906833 124.894116 L432.576485 93.635879 L409.843221 87.330677 L414.572122 70.280729 L437.305386 76.585931 L445.975038 45.327693 L466.510116 81.625775 L469.662717 70.259143 L493.744471 93.769764 L495.714846 86.665619 Z" fill="#888" fill-opacity="0.18" stroke="#000" stroke-width="1"/>
  <path d="M354.778806 378.880811 L354.461569 417.215616 L347.680038 414.323887 L351.032491 447.811813 L340.182041 443.185047 L355.741249 481.878086 L325.902514 469.154479 L316.648982 490.855377 L300.373308 483.915228 L309.626840 462.214330 L279.788105 449.490723 L318.481143 433.931515 L307.630694 429.304749 L334.116977 408.540429 L327.335446 405.648701 Z" fill="#888" fill-opacity="0.18" stroke="#000" stroke-width="1"/>
  <path d="M575.046559 676.252781 L554.894924 708.865195 L550.596244 702.875821 L536.095844 733.247165 L529.217956 723.664166 L522.455181 764.816384 L503.540987 738.463138 L484.374990 752.218915 L474.058157 737.844418 L493.224154 724.088640 L474.309961 697.735394 L515.462178 704.498169 L508.584290 694.915171 L541.998883 690.897072 L537.700203 684.907698 Z" fill="#888" fill-opacity="0.18" stroke="#000" stroke-width="1"/>
  <path d="M897.436084 42.628062 L881.698234 77.584865 L876.656927 72.205601 L866.230749 104.205210 L858.164658 95.598389 L856.812834 137.280672 L834.631081 113.611913 L817.417438 129.744097 L805.318300 116.833865 L822.531943 100.701681 L800.350191 77.032922 L842.032474 78.384746 L833.966382 69.777925 L866.574312 61.447075 L861.533004 56.067811 Z" fill="#888" fill-opacity="0.18" stroke="#000" stroke-width="1"/>
  <path d="M332.391817 158.240039 L334.745074 119.976217 L341.363411 123.224119 L339.794678 89.605385 L350.384018 94.802029 L336.902278 55.337072 L366.022961 69.627841 L376.416248 48.449163 L392.300258 56.244128 L381.906970 77.422807 L411.027654 91.713577 L371.562696 105.195316 L382.152036 110.391960 L354.600085 129.719923 L361.218422 132.967826 Z" fill="#888" fill-opacity="0.18" stroke="#000" stroke-width="1"/>
  <path d="M586.483900 669.432956 L548.544791 663.930051 L552.327785 657.602318 L518.694264 656.391355 L524.747055 646.266981 L484.304145 656.445938 L500.949319 628.603911 L480.700572 616.498330 L489.779758 601.311770 L510.028505 613.417351 L526.673679 585.575324 L536.852636 626.018234 L542.905427 615.893861 L559.893773 644.946851 L563.676768 638.619117 Z" fill="#888" fill-opacity="0.18" stroke="#000" stroke-width="1"/>
  <path d="M356.370120 337.838504 L333.863296 306.804639 L341.036972 305.104749 L318.455325 280.149802 L329.933207 277.429978 L294.438943 255.534834 L326.003117 248.055318 L320.563470 225.099554 L337.780292 221.019818 L343.219940 243.975582 L374.784115 236.496066 L352.888970 271.990331 L364.366852 269.270507 L355.384324 301.704969 L362.558001 300.005079 Z" fill="#888" fill-opacity="0.18" stroke="#000" stroke-width="1"/>
  <path d="M527.055286 247.974216 L564.148320 257.657435 L559.685838 263.525783 L592.976691 268.465346 L585.836719 277.854703 L627.160040 272.231240 L607.525118 298.051971 L626.303831 312.331914 L615.593874 326.415949 L596.815161 312.136006 L577.180239 337.956737 L571.556776 296.633416 L564.416805 306.022773 L550.760874 275.262478 L546.298392 281.130826 Z" fill="#888" fill-opacity="0.18" stroke="#000" stroke-width="1"/>
  <path d="M701.618941 102.760336 L688.678197 138.846277 L683.229565 133.880025 L675.351549 166.600309 L666.633737 158.654306 L668.563259 200.313844 L644.589276 178.462336 L628.697270 195.897960 L615.620551 183.978955 L631.512558 166.543331 L607.538574 144.691822 L649.198112 142.762300 L640.480300 134.816297 L672.332300 123.947521 L666.883667 118.981269 Z" fill="#888" fill-opacity="0.18" stroke="#000" stroke-width="1"/>
  <path d="M871.399447 670.031872 L853.691925 704.033367 L848.965885 698.375116 L836.730171 729.727428 L829.168507 720.674227 L825.439666 762.211390 L804.645089 737.315088 L786.538687 752.438417 L775.196191 738.858616 L793.302592 723.735287 L772.508015 698.838985 L814.045178 702.567826 L806.483514 693.514625 L839.513804 687.058615 L834.787764 681.400365 Z" fill="#888" fill-opacity="0.18" stroke="#000" stroke-width="1"/>
  <path d="M586.163989 781.466303 L586.597874 819.799966 L579.760990 817.041657 L583.768900 850.457474 L572.829885 846.044179 L589.144186 884.424952 L559.061895 872.288393 L550.235307 894.166423 L533.826784 887.546481 L542.653373 865.668452 L512.571082 853.531892 L550.951855 837.217591 L540.012840 832.804297 L566.087221 811.525039 L559.250337 808.766730 Z" fill="#888" fill-opacity="0.18" stroke="#000" stroke-width="1"/>
  <path d="M835.734449 374.995666 L840.801977 336.995954 L847.172670 340.706145 L847.997907 307.060950 L858.191017 312.997255 L847.549004 272.673717 L875.580057 288.998556 L887.452667 268.612335 L902.742332 277.516793 L890.869722 297.903013 L918.900775 314.227852 L878.577237 324.869865 L888.770347 330.806170 L859.914058 348.126526 L866.284752 351.836717 Z" fill="#888" fill-opacity="0.18" stroke="#000" stroke-width="1"/>
  <path d="M716.003952 208.718489 L743.365139 181.866610 L746.107989 188.709712 L767.446125 162.683493 L771.834684 173.632455 L788.235692 135.288653 L800.304228 165.398299 L822.202152 156.621181 L828.784990 173.044624 L806.887066 181.821741 L818.955602 211.931387 L780.611801 195.530378 L785.000360 206.479340 L751.593687 202.395914 L754.336536 209.239015 Z" fill="#888" fill-opacity="0.18" stroke="#000" stroke-width="1"/>
  <path d="M782.777751 656.632569 L799.352516 622.064735 L804.262874 627.563794 L815.456320 595.824435 L823.312892 604.622928 L825.667695 562.985264 L847.273269 587.181121 L864.870256 571.467976 L876.655114 584.665716 L859.058127 600.378861 L880.663701 624.574717 L839.026037 622.219915 L846.882609 631.018408 L814.083589 638.561910 L818.993947 644.060969 Z" fill="#888" fill-opacity="0.18" stroke="#000" stroke-width="1"/>
  <path d="M345.896946 507.462512 L370.666425 478.202798 L374.028395 484.763927 L392.876576 456.881563 L398.255728 467.379369 L411.052363 427.686973 L425.845032 456.555940 L446.840644 445.797635 L454.909372 461.544345 L433.913760 472.302649 L448.706429 501.171616 L409.014033 488.374981 L414.393185 498.872787 L380.752335 497.886185 L384.114305 504.447313 Z" fill="#888" fill-opacity="0.18" stroke="#000" stroke-width="1"/>
  <path d="M864.658318 369.447949 L890.100935 340.771631 L893.309556 347.409102 L912.800472 319.972187 L917.934265 330.592139 L931.649665 291.207777 L945.767594 320.412647 L967.007499 310.145062 L974.708187 326.074991 L953.468282 336.342575 L967.586211 365.547445 L928.201849 351.832044 L933.335641 362.451996 L899.726796 360.684042 L902.935416 367.321513 Z" fill="#888" fill-opacity="0.18" stroke="#000" stroke-width="1"/>
  <path d="M123.079740 579.053811 L137.064976 614.747943 L129.694328 614.590431 L145.279704 644.419548 L133.486668 644.167528 L162.339209 674.280167 L129.908360 673.587114 L129.404321 697.173186 L111.714767 696.795156 L112.218806 673.209084 L79.787957 672.516030 L109.900596 643.663489 L98.107560 643.411470 L114.953033 614.275406 L107.582386 614.117894 Z" fill="#888" fill-opacity="0.18" stroke="#000" stroke-width="1"/>
  <path d="M619.768676 454.298279 L603.898017 419.401573 L611.266563 419.165413 L594.111122 390.210777 L605.900797 389.832921 L575.481972 361.303372 L607.903578 360.264270 L607.147868 336.684920 L624.832381 336.118137 L625.588091 359.697487 L658.009697 358.658385 L629.480148 389.077211 L641.269823 388.699356 L626.003657 418.693094 L633.372204 418.456935 Z" fill="#888" fill-opacity="0.18" stroke="#000" stroke-width="1"/>
  <path d="M157.435252 318.095808 L128.754566 343.533500 L126.360352 336.560768 L103.736695 361.477635 L99.905952 350.321263 L81.591880 387.789048 L71.057338 357.109027 L48.744595 364.770512 L42.998481 348.035955 L65.311224 340.374470 L54.776682 309.694448 L92.244467 328.008520 L88.413724 316.852149 L121.571924 322.615303 L119.177710 315.642571 Z" fill="#888" fill-opacity="0.18" stroke="#000" stroke-width="1"/>
  <path d="M483.188565 607.480857 L445.142017 602.777862 L448.790962 596.371892 L415.139402 595.869247 L420.977714 585.619694 L380.758053 596.647796 L396.813411 568.461526 L376.314305 556.784903 L385.071773 541.410574 L405.570878 553.087198 L421.626236 524.900928 L432.654338 565.120589 L438.492650 554.871037 L456.088852 583.559951 L459.737797 577.153981 Z" fill="#888" fill-opacity="0.18" stroke="#000" stroke-width="1"/>
  <path d="M465.923665 977.643360 L443.743379 946.375279 L450.934480 944.750678 L428.615655 919.560398 L440.121416 916.961037 L404.858610 894.695038 L436.499453 887.546794 L431.300730 864.535273 L448.559371 860.636230 L453.758094 883.647752 L485.398936 876.499508 L463.132938 911.762314 L474.638698 909.162953 L465.316681 941.501477 L472.507781 939.876876 Z" fill="#888" fill-opacity="0.18" stroke="#000" stroke-width="1"/>
  <path d="M90.828474 176.895441 L121.856412 154.380447 L123.558191 161.553675 L148.507191 138.965457 L151.230037 150.442623 L173.115835 114.942594 L180.603661 146.504799 L203.557992 141.059106 L207.642261 158.274854 L184.687931 163.720547 L192.175757 195.282751 L156.675729 173.396953 L159.398575 184.874118 L126.961749 175.900131 L128.663527 183.073360 Z" fill="#888" fill-opacity="0.18" stroke="#000" stroke-width="1"/>
  <path d="M780.236412 815.612850 L817.876992 822.882282 L813.802494 829.026362 L847.342710 831.807380 L840.823513 841.637907 L881.697826 833.359581 L863.770033 860.393533 L883.431089 873.431928 L873.652293 888.177720 L853.991237 875.139325 L836.063444 902.173276 L827.785118 861.298963 L821.265920 871.129491 L805.653497 841.314522 L801.578999 847.458602 Z" fill="#888" fill-opacity="0.18" stroke="#000" stroke-width="1"/>
  <path d="M46.329219 61.257485 L84.379066 65.933705 L80.734630 72.342242 L114.386536 72.821206 L108.555438 83.074864 L148.767329 72.018463 L132.731810 100.216023 L153.239127 111.878219 L144.492480 127.258707 L123.985163 115.596511 L107.949644 143.794072 L96.893242 103.582181 L91.062145 113.835840 L73.445758 85.159315 L69.801322 91.567851 Z" fill="#888" fill-opacity="0.18" stroke="#000" stroke-width="1"/>
  <path d="M939.501348 462.580106 L977.734061 459.766276 L975.405694 466.761272 L1008.508083 460.685749 L1004.782696 471.877742 L1042.076146 453.211227 L1031.831332 483.989207 L1054.215318 491.439981 L1048.627237 508.227971 L1026.243251 500.777197 L1015.998437 531.555177 L997.331922 494.261728 L993.606535 505.453720 L970.748960 480.751263 L968.420593 487.746258 Z" fill="#888" fill-opacity="0.18" stroke="#000" stroke-width="1"/>
  <path d="M517.093809 541.432240 L489.518200 514.800610 L496.285325 511.875326 L469.696518 491.242452 L480.523917 486.561999 L441.754286 471.194635 L471.529633 458.323388 L462.168726 436.668590 L478.409825 429.647910 L487.770732 451.302708 L517.546079 438.431461 L502.178715 477.201092 L513.006114 472.520639 L509.819573 506.024760 L516.586698 503.099476 Z" fill="#888" fill-opacity="0.18" stroke="#000" stroke-width="1"/>
  <path d="M801.482378 390.295978 L839.792583 388.886660 L837.209162 395.791527 L870.512157 390.934499 L866.378685 401.982287 L904.331835 384.696498 L892.964787 415.077915 L915.060363 423.344860 L908.860154 439.916542 L886.764578 431.649597 L875.397529 462.031014 L858.111740 424.077863 L853.978268 435.125651 L832.042322 409.601262 L829.458902 416.506130 Z" fill="#888" fill-opacity="0.18" stroke="#000" stroke-width="1"/>
  <path d="M269.774376 1055.807663 L231.648803 1051.795355 L235.180986 1045.324270 L201.525844 1045.431925 L207.177336 1035.078190 L167.164266 1046.833797 L182.705870 1018.361024 L161.998399 1007.058039 L170.475638 991.527435 L191.183109 1002.830420 L206.724714 974.357647 L218.480322 1014.370718 L224.131814 1004.016982 L242.245351 1032.382101 L245.777534 1025.911016 Z" fill="#888" fill-opacity="0.18" stroke="#000" stroke-width="1"/>
  <path d="M158.801508 489.227852 L121.371017 497.511345 L122.669101 490.254194 L90.784713 501.027585 L92.861649 489.416145 L58.640708 513.252406 L64.352282 481.320945 L41.129401 477.167073 L44.244805 459.749912 L67.467686 463.903784 L73.179260 431.972323 L97.015521 466.193264 L99.092457 454.581823 L125.265271 475.739894 L126.563356 468.482743 Z" fill="#888" fill-opacity="0.18" stroke="#000" stroke-width="1"/>
  <path d="M697.451017 448.128108 L724.593842 475.200696 L717.780452 478.016538 L744.033280 499.075245 L733.131856 503.580593 L771.648787 519.570783 L741.669871 531.960491 L750.680567 553.763339 L734.328431 560.521362 L725.317734 538.718513 L695.338818 551.108221 L711.329008 512.591290 L700.427583 517.096638 L704.153671 483.648224 L697.340281 486.464066 Z" fill="#888" fill-opacity="0.18" stroke="#000" stroke-width="1"/>
  <path d="M316.688729 983.276127 L330.871591 947.660059 L336.144942 952.812051 L345.151540 920.384265 L353.588901 928.627453 L353.103468 886.926080 L376.306212 909.594847 L392.792588 892.720124 L405.448630 905.084906 L388.962254 921.959629 L412.164997 944.628396 L370.463624 945.113829 L378.900985 953.357017 L346.691643 963.116036 L351.964994 968.268029 Z" fill="#888" fill-opacity="0.18" stroke="#000" stroke-width="1"/>
  <path d="M187.005595 842.164020 L149.521471 850.201330 L150.867224 842.952868 L118.912718 853.516472 L121.065923 841.918933 L86.689062 865.529769 L92.610376 833.636535 L69.415297 829.330126 L72.645104 811.933816 L95.840183 816.240226 L101.761497 784.346993 L125.372333 818.723854 L127.525538 807.126314 L153.558730 828.455943 L154.904483 821.207481 Z" fill="#888" fill-opacity="0.18" stroke="#000" stroke-width="1"/>
  <path d="M849.856359 214.503714 L887.666956 208.177842 L885.993250 215.357672 L918.394725 206.256869 L915.716795 217.744597 L951.130940 195.720099 L943.766634 227.311353 L966.742091 232.667211 L962.725197 249.898804 L939.749740 244.542946 L932.385435 276.134199 L910.360937 240.720054 L907.683007 252.207783 L882.645839 229.717333 L880.972133 236.897163 Z" fill="#888" fill-opacity="0.18" stroke="#000" stroke-width="1"/>
  <path d="M156.130366 914.129315 L129.474812 941.681800 L126.555403 934.912139 L105.899460 961.483029 L101.228406 950.651572 L85.827399 989.407851 L72.982000 959.621344 L51.319085 968.963453 L44.312504 952.716267 L65.975418 943.374158 L53.130018 913.587651 L91.886297 928.988658 L87.215243 918.157201 L120.716585 921.372818 L117.797176 914.603157 Z" fill="#888" fill-opacity="0.18" stroke="#000" stroke-width="1"/>
  <path d="M285.420432 472.077075 L288.757761 510.267652 L281.731525 508.035330 L288.259959 541.051383 L277.017981 537.479668 L296.193640 574.513899 L265.278200 564.691685 L258.134771 587.175641 L241.271804 581.818069 L248.415233 559.334113 L217.499794 549.511898 L254.534025 530.336239 L243.292047 526.764525 L267.679053 503.570687 L260.652817 501.338366 Z" fill="#888" fill-opacity="0.18" stroke="#000" stroke-width="1"/>
  <path d="M393.135851 208.730617 L431.465406 209.439961 L428.504461 216.191558 L462.024927 213.181825 L457.287415 223.984380 L496.137583 208.821774 L483.109424 238.528800 L504.714534 248.003824 L497.608265 264.207657 L476.003156 254.732632 L462.974997 284.439658 L447.812390 245.589490 L443.074878 256.392045 L422.582571 229.694751 L419.621625 236.446348 Z" fill="#888" fill-opacity="0.18" stroke="#000" stroke-width="1"/>
  <path d="M739.189436 809.465210 L714.998008 779.725796 L722.066501 777.631121 L698.137115 753.965436 L709.446703 750.613955 L672.794030 730.718686 L703.895398 721.502114 L697.192436 698.882937 L714.156819 693.855716 L720.859781 716.474893 L751.961149 707.258320 L732.065880 743.910993 L743.375468 740.559513 L736.203486 773.441770 L743.271979 771.347094 Z" fill="#888" fill-opacity="0.18" stroke="#000" stroke-width="1"/>
  <path d="M714.356969 684.430816 L693.264211 652.419044 L700.506889 651.042502 L679.066829 625.100182 L690.655114 622.897715 L656.178233 599.433170 L688.046017 593.376385 L683.641083 570.199815 L701.023510 566.896114 L705.428445 590.072685 L737.296229 584.015900 L713.831684 618.492780 L725.419969 616.290313 L714.992245 648.289418 L722.234924 646.912876 Z" fill="#888" fill-opacity="0.18" stroke="#000" stroke-width="1"/>
  <path d="M940.823306 108.701578 L923.625055 142.963483 L918.815120 137.376375 L907.048544 168.907753 L899.352648 159.968380 L896.243954 201.556554 L875.080240 176.973277 L857.201493 192.365069 L845.657649 178.956008 L863.536396 163.564216 L842.372682 138.980939 L883.960856 142.089633 L876.264960 133.150260 L909.195250 126.202158 L904.385315 120.615050 Z" fill="#888" fill-opacity="0.18" stroke="#000" stroke-width="1"/>
  <path d="M1044.832038 683.819672 L1007.045524 690.287847 L1008.692188 683.101766 L976.325205 692.324488 L978.959868 680.826759 L943.628890 702.984426 L950.874211 671.365672 L927.878753 666.096348 L931.830746 648.849754 L954.826204 654.119079 L962.071525 622.500324 L984.229192 657.831302 L986.863854 646.333573 L1011.985516 668.729605 L1013.632179 661.543525 Z" fill="#888" fill-opacity="0.18" stroke="#000" stroke-width="1"/>
  <path d="M171.290826 672.454460 L173.065083 634.159422 L179.731787 637.306852 L177.654759 603.715691 L188.321485 608.751579 L174.244390 569.495044 L203.577887 583.343736 L213.649663 562.010284 L229.649752 569.564116 L219.577976 590.897568 L248.911472 604.746261 L209.654937 618.823355 L220.321663 623.859243 L193.065195 643.601712 L199.731898 646.749142 Z" fill="#888" fill-opacity="0.18" stroke="#000" stroke-width="1"/>
  <path d="M979.098762 913.122945 L1001.111501 944.509204 L993.911815 946.095322 L1016.095597 971.404608 L1004.576098 973.942397 L1039.719316 996.396671 L1008.040696 1003.375590 L1013.116273 1026.414587 L995.837026 1030.221270 L990.761448 1007.182273 L959.082828 1014.161192 L981.537102 979.017975 L970.017603 981.555763 L979.512442 949.267558 L972.312755 950.853676 Z" fill="#888" fill-opacity="0.18" stroke="#000" stroke-width="1"/>
  <path d="M830.544124 532.324711 L815.505039 567.587777 L810.357681 562.309902 L800.570368 594.510658 L792.334596 586.066058 L791.812526 627.766988 L769.164153 604.544338 L752.274953 621.015882 L739.921294 608.348982 L756.810494 591.877438 L734.162121 568.654788 L775.863052 569.176858 L767.627279 560.732258 L800.062966 551.754152 L794.915609 546.476277 Z" fill="#888" fill-opacity="0.18" stroke="#000" stroke-width="1"/>
  <path d="M774.886100 516.214272 L746.811314 490.109400 L753.521853 487.056544 L726.547245 466.930674 L737.284106 462.046104 L698.230529 447.415374 L727.756897 433.982808 L717.987758 412.509085 L734.093051 405.182231 L743.862190 426.655954 L773.388559 413.223388 L758.757829 452.276965 L769.494690 447.392395 L766.942930 480.950832 L773.653468 477.897976 Z" fill="#888" fill-opacity="0.18" stroke="#000" stroke-width="1"/>
  <path d="M897.757195 761.748837 L918.264589 794.138723 L910.998086 795.383387 L931.963049 821.711138 L920.336644 823.702601 L954.381313 847.789956 L922.408699 853.266478 L926.391625 876.519288 L908.952017 879.506482 L904.969092 856.253672 L872.996479 861.730194 L897.083834 827.685526 L885.457430 829.676988 L896.465080 797.872715 L889.198577 799.117379 Z" fill="#888" fill-opacity="0.18" stroke="#000" stroke-width="1"/>
  <path d="M823.472584 1020.475229 L787.475757 1033.661826 L787.797428 1026.296516 L757.628514 1041.213512 L758.143188 1029.429017 L727.395265 1057.603569 L728.810618 1025.196208 L705.241628 1024.166860 L706.013639 1006.490117 L729.582629 1007.519465 L730.997983 975.112104 L759.172536 1005.860027 L759.687210 994.075532 L788.440770 1011.565897 L788.762442 1004.200588 Z" fill="#888" fill-opacity="0.18" stroke="#000" stroke-width="1"/>
  <path d="M93.301353 621.140069 L76.158647 586.850339 L83.513533 586.343478 L65.305338 558.039029 L77.073155 557.228051 L45.626166 529.835953 L77.987664 527.605763 L76.365708 504.070128 L94.017434 502.853661 L95.639390 526.389296 L128.000888 524.159106 L100.608790 555.606095 L112.376608 554.795117 L98.223304 585.329755 L105.578190 584.822894 Z" fill="#888" fill-opacity="0.18" stroke="#000" stroke-width="1"/>
  <path d="M818.402243 55.265673 L789.392090 80.326976 L787.089059 73.323598 L764.142214 97.943153 L760.457365 86.737748 L741.655975 123.963383 L731.522640 93.148519 L709.111831 100.518218 L703.584557 83.710110 L725.995367 76.340412 L715.862032 45.525548 L753.087667 64.326938 L749.402818 53.121533 L782.482998 59.316842 L780.179967 52.313464 Z" fill="#888" fill-opacity="0.18" stroke="#000" stroke-width="1"/>
  <path d="M782.659865 315.547880 L751.566633 293.123142 L757.847151 289.262268 L728.586516 272.634119 L738.635344 266.456720 L698.069776 256.778145 L725.704055 239.790299 L713.349258 219.692641 L728.422501 210.426543 L740.777298 230.524201 L768.411578 213.536355 L758.733002 254.101923 L768.781831 247.924525 L770.408187 281.540520 L776.688705 277.679646 Z" fill="#888" fill-opacity="0.18" stroke="#000" stroke-width="1"/>
</svg>
