<?xml version="1.0" encoding="UTF-8"?>
<svg xmlns="http://www.w3.org/2000/svg" width="1100" height="1100" viewBox="0 0 1100 1100">
  <rect x="0" y="0" width="1100" height="1100" fill="white"/>
  <text x="10.0" y="18.0" font-family="monospace" font-size="12">prefix=N111_job5048512_task111 run_id=111 L=8.76879397954 feas=1.051e-11 N=111</text>
  <rect x="40.000000" y="40.000000" width="1020.000000" height="1020.000000" fill="none" stroke="#000" stroke-width="2"/>
  <path d="M542.070982 620.293618 L539.165416 657.986309 L532.689314 654.682607 L533.721930 687.855158 L523.360167 682.569235 L536.049766 721.688449 L507.554919 707.152161 L496.983073 727.875686 L481.440429 719.946801 L492.012275 699.223276 L463.517428 684.686988 L502.636642 671.997389 L492.274880 666.711466 L519.737111 648.075203 L513.261009 644.771501 Z" fill="#888" fill-opacity="0.18" stroke="#000" stroke-width="1"/>
  <path d="M516.117545 864.415702 L532.000899 898.721684 L524.736275 899.003789 L541.846869 927.441652 L530.223471 927.893020 L560.410387 955.823093 L528.446044 957.064357 L529.348781 980.311152 L511.913685 980.988205 L511.010947 957.741410 L479.046604 958.982674 L506.976676 928.795758 L495.353278 929.247127 L510.207028 899.568000 L502.942404 899.850106 Z" fill="#888" fill-opacity="0.18" stroke="#000" stroke-width="1"/>
  <path d="M839.800927 1004.667906 L872.002704 984.863188 L873.136546 992.044326 L899.366645 971.710455 L901.180793 983.200275 L925.369976 949.940356 L930.358881 981.537362 L953.338522 977.909068 L956.059743 995.143799 L933.080102 998.772093 L938.069007 1030.369100 L904.809087 1006.179917 L906.623234 1017.669737 L875.404230 1006.406602 L876.538072 1013.587740 Z" fill="#888" fill-opacity="0.18" stroke="#000" stroke-width="1"/>
  <path d="M60.126586 283.868024 L97.650999 279.274574 L95.690930 286.275465 L128.006644 278.713781 L124.870534 289.915206 L160.714372 269.751920 L152.090068 300.555839 L174.492918 306.828059 L169.788752 323.630197 L147.385903 317.357976 L138.761599 348.161894 L118.598313 312.318056 L115.462202 323.519481 L91.770792 300.277246 L89.810723 307.278136 Z" fill="#888" fill-opacity="0.18" stroke="#000" stroke-width="1"/>
  <path d="M940.639964 375.448256 L921.548627 408.078030 L917.168441 402.275591 L903.595093 432.561704 L896.586795 423.277801 L890.897783 464.008305 L871.624962 438.477571 L853.057155 452.494168 L842.544707 438.568313 L861.112514 424.551716 L841.839693 399.020982 L882.570198 404.709994 L875.561899 395.426091 L908.408068 390.670712 L904.027881 384.868272 Z" fill="#888" fill-opacity="0.18" stroke="#000" stroke-width="1"/>
  <path d="M382.799059 331.118740 L362.307795 299.349424 L369.462944 298.061723 L348.570811 272.274067 L360.019050 270.213745 L326.247648 246.743951 L357.730306 241.078067 L353.609663 218.181588 L370.782022 215.091106 L374.902665 237.987584 L406.385323 232.321700 L382.915529 266.093102 L394.363768 264.032780 L383.773243 295.486321 L390.928393 294.198620 Z" fill="#888" fill-opacity="0.18" stroke="#000" stroke-width="1"/>
  <path d="M1049.635895 539.361366 L1028.076913 570.416021 L1024.158852 564.292041 L1008.282666 593.437043 L1002.013768 583.638674 L993.190092 623.806841 L975.950622 596.861328 L956.353886 609.399125 L946.950538 594.701572 L966.547275 582.163775 L949.307805 555.218263 L989.475971 564.041938 L983.207073 554.243569 L1016.322729 552.044080 L1012.404667 545.920100 Z" fill="#888" fill-opacity="0.18" stroke="#000" stroke-width="1"/>
  <path d="M606.824526 83.749272 L604.900490 121.504794 L598.340637 118.370681 L600.235861 151.505143 L589.740096 146.490562 L603.443056 185.266427 L574.579702 171.476329 L564.550540 192.467859 L548.806893 184.945988 L558.836055 163.954458 L529.972701 150.164360 L568.748566 136.461400 L558.252801 131.446819 L585.220930 112.102455 L578.661077 108.968342 Z" fill="#888" fill-opacity="0.18" stroke="#000" stroke-width="1"/>
  <path d="M697.890994 294.734004 L733.470870 281.956925 L733.107343 289.217930 L762.951121 274.697828 L762.369477 286.315436 L792.867604 258.725526 L791.268085 290.673946 L814.503299 291.837233 L813.630834 309.263644 L790.395619 308.100357 L788.796100 340.048777 L761.206190 309.550650 L760.624547 321.168257 L732.380289 303.739939 L732.016761 311.000943 Z" fill="#888" fill-opacity="0.18" stroke="#000" stroke-width="1"/>
  <path d="M963.890366 432.794133 L997.487794 450.126018 L991.926111 454.808114 L1022.890198 466.754233 L1013.991506 474.245587 L1054.966621 477.763932 L1030.495217 498.365156 L1045.477925 516.162540 L1032.129887 527.399571 L1017.147179 509.602187 L992.675776 530.203410 L996.194121 489.228295 L987.295429 496.719649 L980.802746 464.172306 L975.241063 468.854403 Z" fill="#888" fill-opacity="0.18" stroke="#000" stroke-width="1"/>
  <path d="M160.541591 538.842550 L154.228827 501.568828 L161.312384 503.205151 L152.273850 471.271011 L163.607542 473.889128 L141.818605 439.009606 L172.986258 446.209427 L178.222492 423.542044 L195.223029 427.469219 L189.986795 450.136603 L221.154448 457.336424 L186.274926 479.125362 L197.608618 481.743479 L175.479499 506.477797 L182.563057 508.114121 Z" fill="#888" fill-opacity="0.18" stroke="#000" stroke-width="1"/>
  <path d="M438.747330 821.144868 L412.144836 848.005408 L409.344333 841.296346 L388.669189 867.258296 L384.188384 856.523796 L368.554147 894.562059 L356.231933 865.042184 L334.762932 874.003794 L328.041725 857.902044 L349.510725 848.940434 L337.188511 819.420558 L375.226774 835.054796 L370.745969 824.320296 L403.743326 827.878221 L400.942823 821.169158 Z" fill="#888" fill-opacity="0.18" stroke="#000" stroke-width="1"/>
  <path d="M519.942995 824.842150 L509.916988 861.292946 L504.188001 856.817117 L498.888455 889.579889 L489.722076 882.418562 L494.734707 923.237827 L469.527164 903.544178 L455.204511 921.876936 L441.454942 911.134946 L455.777596 892.802187 L430.570053 873.108538 L471.389318 868.095908 L462.222939 860.934581 L492.730028 847.865458 L487.001041 843.389629 Z" fill="#888" fill-opacity="0.18" stroke="#000" stroke-width="1"/>
  <path d="M581.448237 52.592528 L619.209067 50.775638 L616.738631 57.613129 L649.523554 52.452392 L645.570857 63.392378 L682.802565 45.924157 L671.932647 76.009118 L693.812619 83.914513 L687.883573 100.324491 L666.003601 92.419097 L655.133684 122.504058 L637.665462 85.272350 L633.712765 96.212336 L611.797759 71.288112 L609.327323 78.125603 Z" fill="#888" fill-opacity="0.18" stroke="#000" stroke-width="1"/>
  <path d="M698.596922 701.423976 L692.330721 664.142398 L699.412229 665.787568 L690.413590 633.842162 L701.744003 636.474434 L679.998650 601.567723 L711.157285 608.806470 L716.421828 586.145644 L733.417448 590.094052 L728.152904 612.754877 L759.311539 619.993624 L724.404828 641.738977 L735.735241 644.371249 L713.575245 669.077907 L720.656753 670.723077 Z" fill="#888" fill-opacity="0.18" stroke="#000" stroke-width="1"/>
  <path d="M576.191527 755.116702 L548.600712 780.961011 L546.053706 774.151672 L524.419764 799.320244 L520.344554 788.425301 L503.295224 825.850683 L492.088396 795.889591 L470.298511 804.040012 L464.185695 787.697598 L485.975580 779.547178 L474.768752 749.586086 L512.194133 766.635416 L508.118923 755.740474 L540.959693 760.532994 L538.412687 753.723655 Z" fill="#888" fill-opacity="0.18" stroke="#000" stroke-width="1"/>
  <path d="M748.645106 1007.655548 L742.160356 970.411362 L749.251391 972.014971 L740.065547 940.122892 L751.411203 942.688665 L729.461496 907.910091 L760.662050 914.965968 L765.793597 892.274656 L782.812081 896.123316 L777.680535 918.814628 L808.881089 925.870505 L774.102515 947.820212 L785.448172 950.385985 L763.433461 975.222187 L770.524496 976.825796 Z" fill="#888" fill-opacity="0.18" stroke="#000" stroke-width="1"/>
  <path d="M1058.266286 273.467792 L1024.761396 255.957691 L1030.347870 251.305203 L999.447675 239.194780 L1008.386034 231.750799 L967.430185 228.014853 L992.010672 207.543907 L977.122711 189.667189 L990.530249 178.501218 L1005.418210 196.377936 L1029.998697 175.906989 L1026.262752 216.862838 L1035.201110 209.418857 L1041.520819 242.000228 L1047.107293 237.347740 Z" fill="#888" fill-opacity="0.18" stroke="#000" stroke-width="1"/>
  <path d="M552.232611 79.447067 L528.455095 108.837730 L524.996510 102.443004 L507.026492 130.345744 L501.492755 120.114182 L489.748192 159.527429 L474.530416 131.390633 L454.067291 142.458107 L445.766686 127.110763 L466.229810 116.043290 L451.012034 87.906494 L490.425282 99.651057 L484.891545 89.419495 L518.079339 89.653551 L514.620753 83.258825 Z" fill="#888" fill-opacity="0.18" stroke="#000" stroke-width="1"/>
  <path d="M308.466511 535.238916 L271.885155 544.777559 L272.897627 537.578306 L241.873178 549.366776 L243.493133 537.847971 L210.646236 562.595097 L215.101110 530.918384 L192.063501 527.678476 L194.493433 510.400269 L217.531042 513.640178 L221.985916 481.963466 L246.733041 514.810363 L248.352996 503.291558 L274.922569 523.179800 L275.935041 515.980547 Z" fill="#888" fill-opacity="0.18" stroke="#000" stroke-width="1"/>
  <path d="M239.571321 1055.939730 L201.800157 1054.352117 L204.875707 1047.764604 L171.759444 1049.954934 L176.680324 1039.414912 L138.028071 1053.462766 L151.560491 1024.477707 L130.480448 1014.635948 L137.861768 998.825916 L158.941811 1008.667675 L172.474230 979.682617 L186.522084 1018.334870 L191.442964 1007.794848 L211.026807 1034.589577 L214.102357 1028.002064 Z" fill="#888" fill-opacity="0.18" stroke="#000" stroke-width="1"/>
  <path d="M867.098513 551.144695 L883.310651 516.992859 L888.173984 522.396776 L899.090321 491.054823 L906.871654 499.701091 L909.033990 458.632087 L930.432658 482.409324 L947.725194 466.846657 L959.397195 479.816059 L942.104659 495.378726 L963.503327 519.155964 L922.434322 516.993628 L930.215656 525.639896 L897.900651 533.204611 L902.763985 538.608529 Z" fill="#888" fill-opacity="0.18" stroke="#000" stroke-width="1"/>
  <path d="M368.412558 649.416273 L335.840137 630.227247 L341.655676 625.864467 L311.410371 612.200428 L320.715233 605.219980 L280.001959 599.408944 L305.590329 580.212713 L291.629434 561.602989 L305.586727 551.132317 L319.547622 569.742041 L345.135993 550.545810 L339.324957 591.259084 L348.629819 584.278636 L353.286754 617.138907 L359.102292 612.776127 Z" fill="#888" fill-opacity="0.18" stroke="#000" stroke-width="1"/>
  <path d="M418.481982 378.325676 L412.901163 340.935359 L419.951280 342.710237 L411.540535 310.605039 L422.820722 313.444843 L401.719767 278.144864 L432.740281 285.954327 L438.419891 263.393954 L455.340171 267.653661 L449.660561 290.214035 L480.681075 298.023498 L445.381096 319.124453 L456.661283 321.964258 L434.051514 346.259994 L441.101630 348.034872 Z" fill="#888" fill-opacity="0.18" stroke="#000" stroke-width="1"/>
  <path d="M861.640387 840.419711 L862.488386 878.214714 L855.716493 875.569758 L860.034835 908.476237 L849.199805 904.244307 L865.707557 941.911706 L835.911224 930.273900 L827.447365 951.943961 L811.194819 945.596066 L819.658678 923.926006 L789.862345 912.288200 L827.529745 895.780448 L816.694714 891.548518 L842.172705 870.279846 L835.400811 867.634890 Z" fill="#888" fill-opacity="0.18" stroke="#000" stroke-width="1"/>
  <path d="M86.402550 1055.363190 L72.776118 1020.099871 L80.043751 1020.289212 L64.812320 990.802131 L76.440533 991.105075 L48.127363 961.277182 L80.104948 962.110280 L80.710837 938.853854 L98.153157 939.308271 L97.547267 962.564697 L129.524852 963.397795 L99.696959 991.710965 L111.325171 992.013909 L94.579017 1020.667892 L101.846650 1020.857233 Z" fill="#888" fill-opacity="0.18" stroke="#000" stroke-width="1"/>
  <path d="M578.781748 725.605578 L616.563720 724.300249 L614.000911 731.103656 L646.852720 726.387398 L642.752224 737.272849 L680.217090 720.310459 L668.940729 750.245450 L690.711631 758.446440 L684.560888 774.774617 L662.789986 766.573627 L651.513625 796.508617 L634.551234 759.043752 L630.450739 769.929203 L608.875292 744.710470 L606.312483 751.513877 Z" fill="#888" fill-opacity="0.18" stroke="#000" stroke-width="1"/>
  <path d="M827.467220 222.821987 L793.921899 240.254505 L793.308532 233.010327 L765.681226 251.400988 L764.699839 239.810303 L738.176594 271.240485 L735.477778 239.366100 L712.296408 241.328875 L710.824327 223.942847 L734.005697 221.980072 L731.306882 190.105687 L762.737064 216.628932 L761.755676 205.038247 L792.081797 218.521971 L791.468430 211.277792 Z" fill="#888" fill-opacity="0.18" stroke="#000" stroke-width="1"/>
  <path d="M881.810615 62.032899 L885.068971 99.696734 L878.142081 97.489354 L884.551719 130.053152 L873.468694 126.521344 L892.346735 163.058427 L861.868417 153.345954 L854.804801 175.512003 L838.180264 170.214291 L845.243880 148.048241 L814.765562 138.335768 L851.302645 119.457727 L840.219620 115.925919 L864.288300 93.074594 L857.361410 90.867213 Z" fill="#888" fill-opacity="0.18" stroke="#000" stroke-width="1"/>
  <path d="M723.199133 1022.743991 L697.527464 994.992473 L704.352561 992.487999 L679.319452 970.697454 L690.239607 966.690295 L652.921323 949.407803 L682.951750 938.388118 L674.937434 916.547807 L691.317667 910.537070 L699.331983 932.377380 L729.362410 921.357695 L712.079918 958.675979 L723.000073 954.668821 L718.002755 987.479051 L724.827852 984.974577 Z" fill="#888" fill-opacity="0.18" stroke="#000" stroke-width="1"/>
  <path d="M906.002271 349.070720 L875.320020 371.156480 L873.668868 364.076365 L848.980940 386.257226 L846.339097 374.929041 L824.623242 409.854111 L817.358174 378.701603 L794.701804 383.985288 L790.739040 366.993011 L813.395410 361.709325 L806.130342 330.556817 L841.055411 352.272672 L838.413568 340.944487 L870.366565 349.916134 L868.715413 342.836018 Z" fill="#888" fill-opacity="0.18" stroke="#000" stroke-width="1"/>
  <path d="M847.165541 678.706313 L809.597757 682.930395 L811.626602 675.949125 L779.238064 683.192537 L782.484216 672.022505 L746.443756 691.832203 L755.370676 661.114616 L733.030613 654.622311 L737.899842 637.867264 L760.239905 644.359569 L769.166824 613.641983 L788.976521 649.682443 L792.222674 638.512411 L815.684293 661.986586 L817.713138 655.005316 Z" fill="#888" fill-opacity="0.18" stroke="#000" stroke-width="1"/>
  <path d="M170.815538 641.384835 L203.550673 622.474725 L204.486260 629.684373 L231.266559 610.080802 L232.763498 621.616238 L257.859742 589.035303 L261.976322 620.757752 L285.047194 617.763875 L287.292602 635.067029 L264.221730 638.060906 L268.338310 669.783355 L235.757374 644.687110 L237.254312 656.222546 L206.357432 644.103668 L207.293019 651.313315 Z" fill="#888" fill-opacity="0.18" stroke="#000" stroke-width="1"/>
  <path d="M369.584192 175.001798 L364.131922 137.592520 L371.175897 139.391620 L362.875552 107.257701 L374.145912 110.136261 L353.166413 74.763963 L384.159901 82.680003 L389.917021 60.139284 L406.822560 64.457124 L401.065440 86.997843 L432.058929 94.913882 L396.686631 115.893381 L407.956990 118.771941 L385.263846 142.989819 L392.307821 144.788919 Z" fill="#888" fill-opacity="0.18" stroke="#000" stroke-width="1"/>
  <path d="M919.717590 701.417809 L940.914446 732.720757 L933.789895 734.168206 L955.253703 759.482024 L943.854421 761.797942 L978.142421 784.506352 L946.794395 790.875127 L951.426231 813.673691 L934.327308 817.147568 L929.695472 794.349004 L898.347446 800.717778 L921.055856 766.429778 L909.656574 768.745696 L919.540792 737.063103 L912.416241 738.510552 Z" fill="#888" fill-opacity="0.18" stroke="#000" stroke-width="1"/>
  <path d="M440.636875 577.350546 L406.035937 562.120431 L411.298749 557.104740 L379.657801 547.088013 L388.078300 539.062908 L346.964291 538.074423 L370.120662 516.005385 L354.070453 499.164387 L366.701201 487.126730 L382.751410 503.967727 L405.907782 481.898689 L404.919297 523.012698 L413.339796 514.987593 L421.824372 547.073359 L427.087184 542.057669 Z" fill="#888" fill-opacity="0.18" stroke="#000" stroke-width="1"/>
  <path d="M87.399387 843.106367 L115.209950 817.498675 L117.698700 824.329521 L139.546836 799.346659 L143.528836 810.276013 L160.897221 772.997628 L171.847721 803.053352 L193.706429 795.089352 L199.679429 811.483383 L177.820721 819.447383 L188.771221 849.503107 L151.492835 832.134722 L155.474835 843.064076 L122.676200 837.991214 L125.164950 844.822060 Z" fill="#888" fill-opacity="0.18" stroke="#000" stroke-width="1"/>
  <path d="M552.614244 709.262820 L550.259768 671.531696 L557.131749 673.904505 L551.504629 641.196403 L562.499798 644.992898 L544.503113 608.013739 L574.739827 618.454100 L582.332817 596.463762 L598.825570 602.158505 L591.232580 624.148842 L621.469294 634.589203 L584.490135 652.585887 L595.485304 656.382382 L570.875709 678.650123 L577.747690 681.022933 Z" fill="#888" fill-opacity="0.18" stroke="#000" stroke-width="1"/>
  <path d="M563.692727 299.274050 L533.199268 276.928350 L539.421394 273.168099 L510.691711 256.552150 L520.647112 250.535747 L480.717604 240.688251 L508.094956 224.143144 L496.062151 204.232342 L510.995253 195.207738 L523.028058 215.118540 L550.405410 198.573433 L540.557914 238.502942 L550.513315 232.486540 L551.865645 265.647595 L558.087771 261.887344 Z" fill="#888" fill-opacity="0.18" stroke="#000" stroke-width="1"/>
  <path d="M932.996837 253.544307 L912.779502 285.488644 L908.604275 279.537021 L893.983283 309.331501 L887.302919 299.808904 L880.197337 340.316305 L861.826337 314.129164 L842.781143 327.489892 L832.760598 313.205997 L851.805791 299.845269 L833.434791 273.658128 L873.942192 280.763711 L867.261828 271.241114 L900.253820 267.633775 L896.078593 261.682152 Z" fill="#888" fill-opacity="0.18" stroke="#000" stroke-width="1"/>
  <path d="M133.303415 719.598631 L105.644474 693.827245 L112.265056 690.823542 L85.684961 670.949363 L96.277892 666.143437 L57.780750 651.675925 L86.911310 638.459628 L77.299458 617.273767 L93.188854 610.064878 L102.800706 631.250739 L131.931266 618.034443 L117.463754 656.531585 L128.056685 651.725659 L125.506219 684.816134 L132.126801 681.812431 Z" fill="#888" fill-opacity="0.18" stroke="#000" stroke-width="1"/>
  <path d="M143.430181 402.097625 L139.542908 439.701753 L133.155139 436.230334 L133.322554 469.418530 L123.102124 463.864260 L134.767523 503.301011 L106.661341 488.026767 L95.552800 508.467627 L80.222155 500.136222 L91.330696 479.695362 L63.224514 464.421118 L102.661264 452.755719 L92.440834 447.201449 L120.379601 429.287496 L113.991833 425.816077 Z" fill="#888" fill-opacity="0.18" stroke="#000" stroke-width="1"/>
  <path d="M897.238535 780.985619 L864.454496 762.160420 L870.221102 757.733165 L839.825546 744.406702 L849.052116 737.323093 L808.276669 731.965691 L833.649736 712.485766 L819.482518 694.032627 L833.322373 683.407213 L847.489591 701.860353 L872.862658 682.380428 L867.505256 723.155876 L876.731826 716.072267 L881.754314 748.878654 L887.520921 744.451398 Z" fill="#888" fill-opacity="0.18" stroke="#000" stroke-width="1"/>
  <path d="M868.953348 807.725729 L831.219910 805.408630 L834.422164 798.881769 L801.269763 800.431846 L806.393370 789.988869 L767.476911 803.287294 L781.566829 774.569108 L760.680876 764.321895 L768.366286 748.657430 L789.252239 758.904643 L803.342157 730.186457 L816.640583 769.102915 L821.764189 758.659939 L840.826672 785.828048 L844.028926 779.301188 Z" fill="#888" fill-opacity="0.18" stroke="#000" stroke-width="1"/>
  <path d="M560.084607 934.912879 L587.338023 961.112739 L580.671375 964.012764 L606.938100 984.299301 L596.271463 988.939341 L634.538155 1004.005833 L605.204904 1016.765943 L614.484983 1038.099216 L598.485028 1045.059276 L589.204949 1023.726002 L559.871698 1036.486112 L574.938190 998.219421 L564.271553 1002.859461 L567.338079 969.812814 L560.671431 972.712839 Z" fill="#888" fill-opacity="0.18" stroke="#000" stroke-width="1"/>
  <path d="M939.822484 158.657606 L927.508259 194.400314 L922.074215 189.570665 L914.710517 221.932068 L906.016047 214.204630 L908.433628 255.259400 L884.523835 234.008946 L869.068959 251.397887 L856.027254 239.806730 L871.482129 222.417790 L847.572336 201.167336 L888.627106 198.749755 L879.932636 191.022317 L911.206127 179.911368 L905.772083 175.081719 Z" fill="#888" fill-opacity="0.18" stroke="#000" stroke-width="1"/>
  <path d="M149.930955 842.585115 L126.446484 872.210458 L122.924564 865.850393 L105.232529 893.930213 L99.597458 883.754110 L88.244877 923.282046 L72.748431 895.297762 L52.396225 906.567904 L43.943618 891.303749 L64.295824 880.033607 L48.799379 852.049323 L88.327315 863.401903 L82.692244 853.225800 L115.880725 853.130264 L112.358806 846.770199 Z" fill="#888" fill-opacity="0.18" stroke="#000" stroke-width="1"/>
  <path d="M804.653909 727.933011 L768.478052 738.909745 L769.205249 731.676107 L738.670863 744.681326 L739.834377 733.107504 L707.991038 759.133272 L711.190702 727.305263 L688.043059 724.978235 L689.788331 707.617503 L712.935973 709.944531 L716.135638 678.116522 L742.161406 709.959861 L743.324920 698.386040 L770.659641 717.208830 L771.386838 709.975192 Z" fill="#888" fill-opacity="0.18" stroke="#000" stroke-width="1"/>
  <path d="M938.215365 932.873125 L965.524129 906.730961 L968.144871 913.512263 L989.504446 888.110432 L993.697632 898.960515 L1010.339872 861.352342 L1021.871136 891.190069 L1043.571301 882.803695 L1049.861081 899.078819 L1028.160916 907.465193 L1039.692179 937.302920 L1002.084006 920.660680 L1006.277193 931.510763 L973.386354 927.074866 L976.007096 933.856168 Z" fill="#888" fill-opacity="0.18" stroke="#000" stroke-width="1"/>
  <path d="M1051.407697 409.969666 L1014.653689 418.819764 L1015.801158 411.640791 L984.560835 422.844658 L986.396784 411.358301 L953.091018 435.484321 L958.139879 403.896839 L935.167165 400.224940 L937.921089 382.995405 L960.893803 386.667303 L965.942663 355.079821 L990.068683 388.385587 L991.904632 376.899230 L1018.096094 397.282844 L1019.243563 390.103871 Z" fill="#888" fill-opacity="0.18" stroke="#000" stroke-width="1"/>
  <path d="M328.019468 936.837404 L353.456146 908.870339 L356.539303 915.454296 L376.092185 888.636965 L381.025235 899.171296 L395.028435 860.502843 L408.594324 889.472252 L429.662985 879.606150 L437.062561 895.407646 L415.993900 905.273747 L429.559789 934.243156 L390.891337 920.239957 L395.824387 930.774287 L362.705616 928.622209 L365.788773 935.206166 Z" fill="#888" fill-opacity="0.18" stroke="#000" stroke-width="1"/>
  <path d="M651.599658 417.281129 L614.411985 424.082473 L615.955213 416.978053 L584.142431 426.434864 L586.611596 415.067792 L552.021002 437.312559 L558.811207 406.053110 L536.077063 401.114779 L539.780811 384.064171 L562.514955 389.002502 L569.305160 357.743053 L591.549927 392.333647 L594.019092 380.966575 L619.041670 402.769213 L620.584899 395.664793 Z" fill="#888" fill-opacity="0.18" stroke="#000" stroke-width="1"/>
  <path d="M739.073700 522.831261 L704.116377 537.224554 L704.146955 529.954519 L674.999544 545.826282 L675.048470 534.194227 L645.846018 563.152052 L645.980563 531.163899 L622.716452 531.066049 L622.789840 513.617966 L646.053951 513.715816 L646.188495 481.727664 L675.146321 510.930116 L675.195246 499.298060 L704.208112 515.414450 L704.238690 508.144415 Z" fill="#888" fill-opacity="0.18" stroke="#000" stroke-width="1"/>
  <path d="M225.241518 70.594764 L222.371327 108.290165 L215.892128 104.992543 L216.955875 138.164110 L206.589156 132.887913 L219.315462 171.995201 L190.806985 157.485661 L180.254592 178.219099 L164.704514 170.304804 L175.256907 149.571366 L146.748431 135.061826 L185.855719 122.335520 L175.489000 117.059324 L202.933730 98.397297 L196.454530 95.099674 Z" fill="#888" fill-opacity="0.18" stroke="#000" stroke-width="1"/>
  <path d="M218.516804 660.259812 L247.844514 684.114931 L241.440669 687.556602 L269.295812 705.600310 L259.049658 711.106983 L298.431724 722.955685 L270.254802 738.099035 L281.268148 758.591342 L265.898917 766.851351 L254.885572 746.359044 L226.708650 761.502395 L238.557351 722.120329 L228.311198 727.627002 L228.632977 694.439943 L222.229131 697.881613 Z" fill="#888" fill-opacity="0.18" stroke="#000" stroke-width="1"/>
  <path d="M912.855663 96.410404 L949.573664 105.408723 L945.260500 111.261155 L978.159188 115.638458 L971.258127 125.002349 L1011.920508 118.845273 L992.942590 144.595975 L1011.670373 158.398097 L1001.318781 172.443934 L982.590998 158.641812 L963.613080 184.392513 L957.456004 143.730132 L950.554943 153.094023 L936.634174 122.966020 L932.321011 128.818452 Z" fill="#888" fill-opacity="0.18" stroke="#000" stroke-width="1"/>
  <path d="M305.175350 270.170826 L272.306593 251.493938 L278.053138 247.040674 L247.597683 233.851675 L256.792155 226.726453 L215.992919 221.553329 L241.277717 201.958968 L227.027272 183.570024 L240.818980 172.882190 L255.069425 191.271134 L280.354223 171.676773 L275.181099 212.476008 L284.375571 205.350786 L289.546228 238.134146 L295.292773 233.680882 Z" fill="#888" fill-opacity="0.18" stroke="#000" stroke-width="1"/>
  <path d="M511.450497 182.054178 L481.530799 205.162467 L479.641732 198.142085 L455.716153 221.143196 L452.693645 209.910585 L432.168388 245.548384 L423.856490 214.658703 L401.391268 220.703720 L396.857505 203.854804 L419.322727 197.809787 L411.010829 166.920106 L446.648628 187.445363 L443.626119 176.212752 L475.863596 184.101321 L473.974528 177.080939 Z" fill="#888" fill-opacity="0.18" stroke="#000" stroke-width="1"/>
  <path d="M433.272497 553.318386 L447.237723 518.187861 L452.440980 523.265307 L461.303598 491.281898 L469.628809 499.405811 L469.125564 458.283000 L492.019895 480.623762 L508.267721 463.973340 L520.755538 476.159210 L504.507711 492.809632 L527.402042 515.150394 L486.279231 515.653638 L494.604442 523.777551 L462.847493 533.420198 L468.050750 538.497644 Z" fill="#888" fill-opacity="0.18" stroke="#000" stroke-width="1"/>
  <path d="M260.957509 126.368958 L295.138788 142.518926 L289.743729 147.392085 L321.105493 158.251374 L312.473398 166.048427 L353.546269 168.136032 L329.808007 189.577929 L345.402114 206.842119 L332.453971 218.537699 L316.859865 201.273509 L293.121603 222.715405 L295.209208 181.642534 L286.577112 189.439588 L278.953610 157.138401 L273.558550 162.011560 Z" fill="#888" fill-opacity="0.18" stroke="#000" stroke-width="1"/>
  <path d="M209.535966 948.653213 L198.725870 912.427212 L205.956084 913.187698 L193.091557 882.593771 L204.659900 883.810549 L178.780986 851.847747 L210.593930 855.193886 L213.027485 832.057200 L230.379999 833.882366 L227.946444 857.019052 L259.759387 860.365190 L227.796586 886.244104 L239.364929 887.460882 L220.416513 914.708670 L227.646727 915.469156 Z" fill="#888" fill-opacity="0.18" stroke="#000" stroke-width="1"/>
  <path d="M896.800861 805.385971 L912.786197 839.644552 L905.522445 839.948267 L922.717560 868.335103 L911.095556 868.821047 L941.365425 896.661196 L909.404915 897.997542 L910.376803 921.241549 L892.943798 921.970465 L891.971910 898.726458 L860.011400 900.062803 L887.851549 869.792935 L876.229546 870.278879 L890.994941 840.555697 L883.731188 840.859412 Z" fill="#888" fill-opacity="0.18" stroke="#000" stroke-width="1"/>
  <path d="M264.583115 974.741951 L268.085462 937.100021 L274.508412 940.505906 L274.001462 907.321159 L284.278182 912.770575 L272.209922 873.455235 L300.470902 888.441129 L311.369733 867.887689 L326.784813 876.061813 L315.885982 896.615253 L344.146962 911.601146 L304.831622 923.669407 L315.108342 929.118823 L287.354312 947.317676 L293.777262 950.723561 Z" fill="#888" fill-opacity="0.18" stroke="#000" stroke-width="1"/>
  <path d="M656.725924 595.267093 L661.203956 632.805454 L654.209127 630.823865 L661.671396 663.162680 L650.479668 659.992137 L670.532631 695.897813 L639.755380 687.178821 L633.414295 709.562276 L616.626704 704.806462 L622.967789 682.423007 L592.190538 673.704015 L628.096213 653.651052 L616.904485 650.480510 L640.219467 626.860687 L633.224637 624.879098 Z" fill="#888" fill-opacity="0.18" stroke="#000" stroke-width="1"/>
  <path d="M497.068546 468.101562 L483.781297 432.709044 L491.046777 432.968151 L476.099147 403.336196 L487.723915 403.750766 L459.698420 373.652419 L491.666533 374.792488 L492.495674 351.542951 L509.932827 352.164807 L509.103686 375.414344 L541.071799 376.554412 L510.973452 404.579907 L522.598220 404.994477 L505.577738 433.486364 L512.843218 433.745470 Z" fill="#888" fill-opacity="0.18" stroke="#000" stroke-width="1"/>
  <path d="M1002.784197 328.063535 L968.676702 344.368753 L968.305029 337.108161 L940.080343 354.568159 L939.485665 342.951211 L911.929991 373.480275 L910.294627 341.533670 L887.060732 342.723026 L886.168715 325.297605 L909.402610 324.108249 L907.767245 292.161644 L938.296309 319.717317 L937.701630 308.100369 L967.561681 322.586977 L967.190007 315.326385 Z" fill="#888" fill-opacity="0.18" stroke="#000" stroke-width="1"/>
  <path d="M617.518093 777.799320 L608.014924 814.389908 L602.222451 809.996550 L597.392463 842.831831 L588.124505 835.802459 L593.720969 876.545783 L568.234086 857.215010 L554.175342 875.750925 L540.273406 865.206867 L554.332149 846.670952 L528.845266 827.340179 L569.588590 821.743715 L560.320632 814.714343 L590.637504 801.209836 L584.845030 796.816478 Z" fill="#888" fill-opacity="0.18" stroke="#000" stroke-width="1"/>
  <path d="M538.999361 601.198534 L562.775136 571.806462 L566.234100 578.200984 L584.202464 550.297180 L589.736807 560.528414 L601.479036 521.114471 L616.698479 549.250366 L637.160948 538.181680 L645.462462 553.528531 L624.999993 564.597217 L640.219436 592.733112 L600.805493 580.990883 L606.339836 591.222117 L573.152028 590.990027 L576.610993 597.384548 Z" fill="#888" fill-opacity="0.18" stroke="#000" stroke-width="1"/>
  <path d="M206.727011 946.392564 L169.124170 950.292266 L171.213191 943.328766 L138.763346 950.292385 L142.105778 939.150784 L105.895697 958.648703 L115.087386 928.009303 L92.804186 921.324438 L97.817835 904.612038 L120.101035 911.296903 L129.292725 880.657503 L148.790644 916.867584 L152.133076 905.725984 L175.391232 929.401766 L177.480252 922.438266 Z" fill="#888" fill-opacity="0.18" stroke="#000" stroke-width="1"/>
  <path d="M205.621020 320.557808 L237.792279 300.703553 L238.937172 307.882938 L265.135944 287.508720 L266.967773 298.995735 L291.105738 265.698626 L296.143268 297.287917 L319.117297 293.624260 L321.865040 310.854782 L298.891011 314.518439 L303.928540 346.107730 L270.631431 321.969765 L272.463259 333.456780 L241.226958 322.241706 L242.371851 329.421090 Z" fill="#888" fill-opacity="0.18" stroke="#000" stroke-width="1"/>
  <path d="M476.449350 635.617518 L466.949879 672.209066 L461.156961 667.816294 L456.330291 700.652062 L447.061623 693.623627 L452.662205 734.366385 L427.173368 715.038188 L413.116498 733.575523 L399.213496 723.032870 L413.270366 704.495535 L387.781530 685.167338 L428.524288 679.566756 L419.255620 672.538321 L449.571126 659.030750 L443.778209 654.637977 Z" fill="#888" fill-opacity="0.18" stroke="#000" stroke-width="1"/>
  <path d="M808.982463 562.673741 L801.906408 525.537360 L809.022042 527.028030 L799.330325 495.286022 L810.715339 497.671093 L788.215481 463.245881 L819.524269 469.804826 L824.294411 447.034798 L841.371932 450.612404 L836.601790 473.382432 L867.910579 479.941377 L833.485367 502.441235 L844.870381 504.826306 L823.253309 530.009368 L830.368943 531.500038 Z" fill="#888" fill-opacity="0.18" stroke="#000" stroke-width="1"/>
  <path d="M63.718986 67.581365 L100.418035 58.506061 L99.314609 65.691935 L130.485643 54.296715 L128.720162 65.794114 L161.877363 41.464320 L157.022289 73.082167 L180.017087 76.613130 L177.368865 93.859229 L154.374067 90.328266 L149.518993 121.946113 L125.189199 88.788912 L123.423717 100.286311 L97.107757 80.063684 L96.004331 87.249558 Z" fill="#888" fill-opacity="0.18" stroke="#000" stroke-width="1"/>
  <path d="M730.534682 276.638385 L695.125405 263.395862 L700.095178 258.089668 L667.936902 249.884202 L675.888539 241.394292 L634.784671 242.739975 L656.651672 219.392722 L639.671852 203.489448 L651.599307 190.754583 L668.579128 206.657857 L690.446130 183.310603 L691.791813 224.414472 L699.743450 215.924561 L710.034725 247.477280 L715.004498 242.171086 Z" fill="#888" fill-opacity="0.18" stroke="#000" stroke-width="1"/>
  <path d="M784.340172 335.888763 L772.816284 371.894059 L767.277170 367.185285 L760.628125 399.701044 L751.765542 392.167006 L755.086902 433.158559 L730.714800 412.439952 L715.646723 430.165118 L702.352849 418.864060 L717.420926 401.138895 L693.048824 380.420288 L734.040377 377.098928 L725.177794 369.564890 L756.198942 357.767737 L750.659828 353.058962 Z" fill="#888" fill-opacity="0.18" stroke="#000" stroke-width="1"/>
  <path d="M477.539906 832.814960 L443.082777 817.262222 L448.392222 812.295923 L416.846245 801.984001 L425.341357 794.037922 L384.238378 792.665340 L407.599937 770.813622 L391.707778 753.823398 L404.450446 741.904278 L420.342605 758.894503 L443.704163 737.042785 L442.331581 778.145763 L450.826693 770.199684 L459.011113 802.363323 L464.320558 797.397024 Z" fill="#888" fill-opacity="0.18" stroke="#000" stroke-width="1"/>
  <path d="M209.036338 410.621045 L245.646440 420.048757 L241.265034 425.850275 L274.110202 430.612558 L267.099953 439.894988 L307.831652 434.214537 L288.553466 459.741220 L307.118326 473.761719 L296.602951 487.685364 L278.038091 473.664865 L258.759905 499.191548 L253.079454 458.459848 L246.069204 467.742278 L232.502222 437.453313 L228.120816 443.254832 Z" fill="#888" fill-opacity="0.18" stroke="#000" stroke-width="1"/>
  <path d="M1051.860062 362.161033 L1020.119654 341.625019 L1026.112764 337.509563 L996.466099 322.591128 L1006.055074 316.006399 L965.620813 308.495785 L991.990494 290.387778 L978.821035 271.209828 L993.204498 261.332734 L1006.373957 280.510684 L1032.743639 262.402678 L1025.233025 302.836940 L1034.822000 296.252210 L1038.098983 329.278651 L1044.092092 325.163195 Z" fill="#888" fill-opacity="0.18" stroke="#000" stroke-width="1"/>
  <path d="M694.534892 68.210891 L732.071319 63.716670 L730.092746 70.712354 L762.428340 63.236139 L759.262625 74.429233 L795.159649 54.360788 L786.453930 85.141796 L808.840118 91.473228 L804.091545 108.262869 L781.705357 101.931437 L772.999638 132.712445 L752.931193 96.815421 L749.765477 108.008515 L726.135602 84.703721 L724.157029 91.699405 Z" fill="#888" fill-opacity="0.18" stroke="#000" stroke-width="1"/>
  <path d="M421.810305 511.829606 L409.926304 475.941560 L417.175957 476.486416 L403.406142 446.289121 L415.005587 447.160890 L388.186396 415.982855 L420.084870 418.380219 L421.828407 395.181329 L439.227575 396.488982 L437.484037 419.687872 L469.382512 422.085236 L438.204477 448.904427 L449.803922 449.776196 L431.675264 477.576126 L438.924917 478.120982 Z" fill="#888" fill-opacity="0.18" stroke="#000" stroke-width="1"/>
  <path d="M476.132988 272.908466 L512.150534 284.394011 L507.447660 289.938135 L539.970481 296.552556 L532.445883 305.423155 L573.433876 302.058151 L552.741232 326.452300 L570.482431 341.501495 L559.195534 354.807395 L541.454335 339.758199 L520.761691 364.152347 L517.396687 323.164354 L509.872089 332.034953 L498.041913 301.026385 L493.339039 306.570509 Z" fill="#888" fill-opacity="0.18" stroke="#000" stroke-width="1"/>
  <path d="M306.316220 991.116981 L270.923679 1004.404171 L271.182798 997.138691 L241.550818 1012.086272 L241.965408 1000.461504 L211.867014 1028.486948 L213.007136 996.518837 L189.757601 995.689658 L190.379486 978.252506 L213.629021 979.081686 L214.769143 947.113575 L242.794588 977.211969 L243.209177 965.587201 L271.701035 982.607731 L271.960154 975.342252 Z" fill="#888" fill-opacity="0.18" stroke="#000" stroke-width="1"/>
  <path d="M687.527222 124.436147 L725.158641 128.049680 L721.733797 134.462541 L754.919896 134.053627 L749.440145 144.314203 L788.790965 132.362140 L773.721649 160.578726 L794.242802 171.538229 L786.023175 186.929094 L765.502022 175.969591 L750.432705 204.186176 L738.480642 164.835356 L733.000891 175.095933 L714.884107 147.288261 L711.459263 153.701122 Z" fill="#888" fill-opacity="0.18" stroke="#000" stroke-width="1"/>
  <path d="M164.015117 655.568166 L186.664095 685.837047 L179.615700 687.618753 L202.248992 711.892577 L190.971561 714.743306 L226.291962 735.810059 L195.279027 743.649566 L200.980487 766.204428 L184.064340 770.480522 L178.362881 747.925660 L147.349946 755.765167 L168.416699 720.444766 L157.139268 723.295495 L165.518912 691.182165 L158.470517 692.963871 Z" fill="#888" fill-opacity="0.18" stroke="#000" stroke-width="1"/>
  <path d="M606.765776 343.553701 L623.292910 309.553184 L628.106084 315.001826 L639.311669 283.762119 L647.012747 292.479946 L649.554620 251.432684 L670.732584 275.406709 L688.168238 260.004553 L699.719855 273.081294 L682.284201 288.483449 L703.462165 312.457473 L662.414903 309.915600 L670.115980 318.633427 L637.732431 325.899110 L642.545605 331.347752 Z" fill="#888" fill-opacity="0.18" stroke="#000" stroke-width="1"/>
  <path d="M699.640503 562.163334 L736.052662 551.997904 L735.163969 559.213482 L765.981405 546.893981 L764.559496 558.438906 L796.976579 533.131365 L793.066331 564.879908 L816.156180 567.723725 L814.023317 585.041112 L790.933468 582.197295 L787.023220 613.945838 L761.715680 581.528755 L760.293771 593.073680 L733.386584 573.644637 L732.497891 580.860215 Z" fill="#888" fill-opacity="0.18" stroke="#000" stroke-width="1"/>
  <path d="M918.487673 608.387376 L884.270415 624.460973 L883.947976 617.198028 L855.605561 634.466264 L855.089658 622.845551 L827.327634 653.187088 L825.908902 621.230129 L802.667478 622.261934 L801.893624 604.830866 L825.135049 603.799061 L823.716317 571.842102 L854.057854 599.604127 L853.541951 587.983415 L883.303098 602.672138 L882.980659 595.409193 Z" fill="#888" fill-opacity="0.18" stroke="#000" stroke-width="1"/>
  <path d="M732.107134 189.415621 L694.303530 189.153283 L697.146223 182.461988 L664.127116 185.812064 L668.675426 175.105991 L630.539471 190.500399 L643.047322 161.058700 L621.635177 151.962081 L628.457641 135.902972 L649.869786 144.999591 L662.377638 115.557891 L677.772045 153.693847 L682.320354 142.987774 L702.831610 169.079397 L705.674304 162.388102 Z" fill="#888" fill-opacity="0.18" stroke="#000" stroke-width="1"/>
  <path d="M468.613507 954.160960 L501.235023 973.266404 L495.430690 977.644081 L525.710931 991.230523 L516.423998 998.234807 L557.152039 1003.941430 L531.612974 1023.203210 L545.621540 1041.777075 L531.691141 1052.283500 L517.682574 1033.709635 L492.143509 1052.971414 L497.850133 1012.243373 L488.563200 1019.247657 L483.822024 986.399435 L478.017691 990.777112 Z" fill="#888" fill-opacity="0.18" stroke="#000" stroke-width="1"/>
  <path d="M667.059257 1024.288575 L636.820380 1001.599556 L643.084620 997.909890 L614.544627 980.970195 L624.567411 975.066730 L584.751786 964.768434 L612.314442 948.533903 L600.507510 928.488335 L615.541686 919.633136 L627.348618 939.678704 L654.911274 923.444173 L644.612979 963.259798 L654.635763 957.356332 L655.613099 990.530557 L661.877339 986.840891 Z" fill="#888" fill-opacity="0.18" stroke="#000" stroke-width="1"/>
  <path d="M285.945504 364.387774 L318.390551 383.791388 L312.546341 388.115685 L342.700793 401.979071 L333.350057 408.897947 L374.024086 414.977598 L348.309562 434.004506 L362.147314 452.705978 L348.121209 463.084292 L334.283458 444.382820 L308.568934 463.409728 L314.648584 422.735698 L305.297848 429.654574 L300.857921 396.764280 L295.013711 401.088577 Z" fill="#888" fill-opacity="0.18" stroke="#000" stroke-width="1"/>
  <path d="M698.706304 450.521496 L670.909869 424.898469 L677.514285 421.859385 L650.828234 402.127707 L661.395299 397.265173 L622.821300 383.003846 L651.880729 369.631876 L642.155660 348.497746 L658.006258 341.203944 L667.731327 362.338074 L696.790756 348.966104 L682.529430 387.540104 L693.096495 382.677569 L690.723116 415.781217 L697.327532 412.742133 Z" fill="#888" fill-opacity="0.18" stroke="#000" stroke-width="1"/>
  <path d="M544.047358 524.127511 L561.354818 490.517495 L566.040955 496.075773 L577.964565 465.103012 L585.462385 473.996257 L588.950948 433.018595 L609.569952 457.475018 L627.356442 442.479378 L638.603172 455.819246 L620.816682 470.814886 L641.435687 495.271309 L600.458025 491.782746 L607.955845 500.675991 L575.413230 507.192329 L580.099368 512.750607 Z" fill="#888" fill-opacity="0.18" stroke="#000" stroke-width="1"/>
  <path d="M49.841831 687.442758 L85.207489 700.801335 L80.220341 706.091202 L112.351534 714.402087 L104.372098 722.865874 L145.480158 721.654998 L123.536706 744.930413 L140.464281 760.889287 L128.495126 773.584968 L111.567551 757.626094 L89.624100 780.901509 L88.413224 739.793449 L80.433787 748.257236 L70.246044 716.670936 L65.258896 721.960803 Z" fill="#888" fill-opacity="0.18" stroke="#000" stroke-width="1"/>
  <path d="M92.193324 535.662857 L129.290663 542.940825 L125.254830 548.987840 L158.321722 551.827738 L151.864390 561.502962 L192.195782 553.458234 L174.438117 580.065100 L193.788565 592.979765 L184.102566 607.492602 L164.752118 594.577936 L146.994453 621.184803 L138.949724 580.853411 L132.492392 590.528635 L117.183164 561.081870 L113.147331 567.128885 Z" fill="#888" fill-opacity="0.18" stroke="#000" stroke-width="1"/>
  <path d="M469.887263 1046.700534 L433.105114 1037.968130 L437.375818 1032.084643 L404.446319 1027.945499 L411.279446 1018.531919 L370.662679 1024.983053 L389.453777 999.095708 L370.626617 985.429455 L380.876307 971.309085 L399.703467 984.975337 L418.494565 959.087992 L424.945699 999.704759 L431.778825 990.291179 L445.917226 1020.317667 L450.187930 1014.434180 Z" fill="#888" fill-opacity="0.18" stroke="#000" stroke-width="1"/>
  <path d="M171.685328 256.049217 L133.931008 254.101756 L137.069190 247.543848 L103.933559 249.418515 L108.954651 238.925863 L70.170292 252.604763 L83.978294 223.749970 L62.992991 213.707786 L70.524629 197.968808 L91.509932 208.010992 L105.317935 179.156200 L118.996835 217.940559 L124.017927 207.447907 L143.345555 234.428033 L146.483738 227.870126 Z" fill="#888" fill-opacity="0.18" stroke="#000" stroke-width="1"/>
  <path d="M949.126154 709.057208 L930.979328 675.892860 L938.208711 675.124514 L919.230684 647.897341 L930.797698 646.667988 L898.806781 620.823838 L930.616068 617.443116 L928.157361 594.309089 L945.507881 592.465059 L947.966588 615.599086 L979.775874 612.218364 L953.931724 644.209281 L965.498738 642.979928 L952.667478 673.587822 L959.896861 672.819476 Z" fill="#888" fill-opacity="0.18" stroke="#000" stroke-width="1"/>
  <path d="M347.837726 151.518483 L312.910520 137.052260 L318.061862 131.922151 L286.208475 122.603024 L294.450622 114.394850 L253.324819 114.309918 L275.990723 91.737439 L259.574375 75.253145 L271.937595 62.940884 L288.353943 79.425178 L311.019847 56.852699 L310.934915 97.978501 L319.177062 89.770327 L328.364546 121.661934 L333.515887 116.531825 Z" fill="#888" fill-opacity="0.18" stroke="#000" stroke-width="1"/>
  <path d="M944.213306 739.880373 L970.984021 713.187488 L973.742320 719.914012 L994.580156 694.082461 L998.993436 704.844899 L1014.866333 666.905606 L1027.002851 696.502310 L1048.527727 687.675752 L1055.147646 703.819409 L1033.622770 712.645967 L1045.759288 742.242672 L1007.819994 726.369775 L1012.233274 737.132213 L979.258920 733.367059 L982.017219 740.093583 Z" fill="#888" fill-opacity="0.18" stroke="#000" stroke-width="1"/>
  <path d="M951.180157 1038.499181 L962.844290 1002.539073 L968.365009 1007.269401 L975.140737 974.779803 L983.973887 982.348327 L980.812320 941.344140 L1005.103485 962.157581 L1020.240533 944.491279 L1033.490259 955.844065 L1018.353211 973.510367 L1042.644376 994.323807 L1001.640189 997.485375 L1010.473340 1005.053899 L979.406448 1016.730056 L984.927167 1021.460383 Z" fill="#888" fill-opacity="0.18" stroke="#000" stroke-width="1"/>
  <path d="M651.185838 479.238703 L683.906133 460.302925 L684.847373 467.511837 L711.612290 447.887270 L713.118275 459.421528 L738.188959 426.820920 L742.330417 458.540131 L765.398934 455.528161 L767.657911 472.829549 L744.589394 475.841518 L748.730853 507.560729 L716.130245 482.490045 L717.636229 494.024303 L686.729854 481.929660 L687.671095 489.138571 Z" fill="#888" fill-opacity="0.18" stroke="#000" stroke-width="1"/>
  <path d="M349.040608 943.596490 L353.642116 981.119915 L346.640805 979.161350 L354.209427 1011.475439 L343.007329 1008.341734 L363.178312 1044.181242 L332.372542 1035.563553 L326.105133 1057.967749 L309.301986 1053.267192 L315.569395 1030.862996 L284.763626 1022.245307 L320.603133 1002.074324 L309.401035 998.940619 L332.638182 975.244218 L325.636871 973.285653 Z" fill="#888" fill-opacity="0.18" stroke="#000" stroke-width="1"/>
  <path d="M56.639087 311.537618 L91.471524 326.230566 L86.286944 331.327082 L118.079083 340.853063 L109.783757 349.007489 L150.908138 349.359741 L128.095990 371.784413 L144.404842 388.375066 L131.961852 400.606705 L115.653000 384.016052 L92.840851 406.440723 L93.193103 365.316341 L84.897777 373.470767 L75.917786 341.520115 L70.733207 346.616631 Z" fill="#888" fill-opacity="0.18" stroke="#000" stroke-width="1"/>
  <path d="M357.829040 541.598197 L392.115624 557.523381 L386.752678 562.431859 L418.185069 573.084991 L409.604356 580.938555 L450.690049 582.756428 L427.093088 604.353729 L442.800216 621.515155 L429.929146 633.295502 L414.222018 616.134075 L390.625057 637.731376 L392.442930 596.645683 L383.862216 604.499247 L376.026787 572.248814 L370.663841 577.157291 Z" fill="#888" fill-opacity="0.18" stroke="#000" stroke-width="1"/>
  <path d="M302.669319 319.810433 L340.181556 324.502277 L336.574111 330.814224 L369.758279 331.357723 L363.986366 341.456838 L403.663937 330.638831 L387.791177 358.411399 L407.989407 369.955224 L399.331538 385.103897 L379.133307 373.560072 L363.260547 401.332639 L352.442541 361.655069 L346.670628 371.754184 L329.359220 343.438118 L325.751774 349.750066 Z" fill="#888" fill-opacity="0.18" stroke="#000" stroke-width="1"/>
  <path d="M225.419023 786.416495 L258.639066 768.371827 L259.385158 775.603541 L286.670612 756.709403 L287.864359 768.280145 L313.806847 736.368923 L317.089651 768.188464 L340.231135 765.800970 L342.021756 783.157084 L318.880271 785.544577 L322.163075 817.364118 L290.251852 791.421630 L291.445599 802.992372 L260.877342 790.066969 L261.623433 797.298682 Z" fill="#888" fill-opacity="0.18" stroke="#000" stroke-width="1"/>
  <path d="M385.636449 738.481453 L350.523512 724.472064 L355.607497 719.275196 L323.635257 710.372368 L331.769633 702.057379 L290.646221 702.508914 L313.015753 679.642693 L296.385774 663.373943 L308.587337 650.901459 L325.217316 667.170209 L347.586847 644.303989 L348.038383 685.427400 L356.172758 677.112411 L365.775466 708.881459 L370.859450 703.684591 Z" fill="#888" fill-opacity="0.18" stroke="#000" stroke-width="1"/>
  <path d="M627.645472 792.220985 L654.007507 819.317561 L647.247609 821.993028 L672.821250 843.146593 L662.005414 847.427339 L699.746871 863.765064 L670.003321 875.537117 L678.564813 897.168790 L662.341059 903.589909 L653.779566 881.958236 L624.036016 893.730289 L640.373741 855.988832 L629.557905 860.269578 L633.727814 827.343961 L626.967916 830.019427 Z" fill="#888" fill-opacity="0.18" stroke="#000" stroke-width="1"/>
  <path d="M777.087943 816.019099 L739.413695 819.154754 L741.643627 812.235091 L709.059123 818.538624 L712.627013 807.467162 L676.028633 826.226090 L685.840332 795.779570 L663.697409 788.643789 L669.049244 772.036597 L691.192168 779.172378 L701.003867 748.725858 L719.762795 785.324239 L723.330685 774.252777 L746.103490 798.395764 L748.333422 791.476100 Z" fill="#888" fill-opacity="0.18" stroke="#000" stroke-width="1"/>
  <path d="M998.466059 778.331993 L998.186845 816.135477 L991.496820 813.289797 L994.832155 846.310396 L984.128114 841.757307 L999.505496 879.900131 L970.069383 867.379138 L960.963207 888.787220 L944.907145 881.957588 L954.013322 860.549506 L924.577209 848.028513 L962.720032 832.651131 L952.015991 828.098043 L978.116768 807.598436 L971.426743 804.752756 Z" fill="#888" fill-opacity="0.18" stroke="#000" stroke-width="1"/>
</svg>
