<?xml version="1.0" encoding="UTF-8"?>
<svg xmlns="http://www.w3.org/2000/svg" width="1100" height="1100" viewBox="0 0 1100 1100">
  <rect x="0" y="0" width="1100" height="1100" fill="white"/>
  <text x="10.0" y="18.0" font-family="monospace" font-size="12">prefix=N116_job5048517_task116 run_id=116 L=9.22697002054 feas=0.000e+00 N=116</text>
  <rect x="40.000000" y="40.000000" width="1020.000000" height="1020.000000" fill="none" stroke="#000" stroke-width="2"/>
  <path d="M240.414775 310.243473 L214.622264 285.233149 L220.969697 282.504472 L196.090640 263.117829 L206.246533 258.751947 L169.942097 244.276921 L197.870801 232.270746 L189.139038 211.958962 L204.372876 205.410139 L213.104640 225.721923 L241.033344 213.715749 L226.558317 250.020184 L236.714210 245.654302 L233.664562 277.047120 L240.011995 274.318444 Z" fill="#888" fill-opacity="0.18" stroke="#000" stroke-width="1"/>
  <path d="M879.610879 824.393611 L915.452929 826.866943 L912.362837 833.046498 L943.879262 831.811845 L938.935114 841.699134 L976.013705 829.341281 L962.417299 856.531325 L982.191876 866.419620 L974.775654 881.250553 L955.001077 871.362258 L941.404671 898.552302 L929.046819 861.473711 L924.102671 871.361000 L906.182652 845.405609 L903.092560 851.585164 Z" fill="#888" fill-opacity="0.18" stroke="#000" stroke-width="1"/>
  <path d="M651.970981 76.488442 L687.747661 73.202238 L685.684807 79.796190 L716.598896 73.540912 L713.298329 84.091236 L747.925555 65.966843 L738.848996 94.980234 L759.949644 101.581367 L754.998794 117.406853 L733.898146 110.805719 L724.821588 139.819110 L706.697195 105.191883 L703.396628 115.742207 L681.559098 92.984095 L679.496244 99.578047 Z" fill="#888" fill-opacity="0.18" stroke="#000" stroke-width="1"/>
  <path d="M1016.004916 734.799718 L1004.155553 700.882723 L1011.052754 701.287939 L997.499778 672.807661 L1008.535299 673.456007 L982.567362 644.246340 L1012.915044 646.029292 L1014.211737 623.958250 L1030.765018 624.930770 L1029.468325 647.001811 L1059.816008 648.784763 L1030.606340 674.752700 L1041.641861 675.401046 L1024.847155 702.098372 L1031.744355 702.503588 Z" fill="#888" fill-opacity="0.18" stroke="#000" stroke-width="1"/>
  <path d="M539.151074 768.551938 L547.948012 803.385597 L541.113861 802.370730 L552.089523 831.940042 L541.154882 830.316254 L564.432016 861.712328 L534.361751 857.246911 L531.114176 879.116194 L514.712213 876.680512 L517.959789 854.811229 L487.889525 850.345812 L519.285599 827.068678 L508.350957 825.444890 L527.445559 800.340995 L520.611408 799.326128 Z" fill="#888" fill-opacity="0.18" stroke="#000" stroke-width="1"/>
  <path d="M298.214929 504.214698 L300.968845 540.036282 L294.406292 537.875617 L300.201249 568.879292 L289.701165 565.422228 L307.308718 600.315100 L278.433484 590.808175 L271.519357 611.808345 L255.769230 606.622749 L262.683357 585.622580 L233.808123 576.115655 L268.700995 558.508101 L258.200910 555.051038 L281.281185 533.554288 L274.718632 531.393623 Z" fill="#888" fill-opacity="0.18" stroke="#000" stroke-width="1"/>
  <path d="M983.963304 733.397528 L967.515677 765.338810 L963.062167 760.056592 L951.731016 789.491510 L944.605401 781.039961 L941.290567 819.982872 L921.695125 796.741112 L904.792027 810.992343 L894.103604 798.315020 L911.006702 784.063789 L891.411260 760.822029 L930.354170 764.136863 L923.228555 755.685315 L954.155148 749.492156 L949.701639 744.209938 Z" fill="#888" fill-opacity="0.18" stroke="#000" stroke-width="1"/>
  <path d="M246.697435 368.634264 L250.379753 332.896182 L256.451430 336.193197 L256.281801 304.653054 L265.996485 309.928279 L254.897837 272.453508 L281.613217 286.960376 L292.163666 267.531008 L306.735692 275.443845 L296.185243 294.873212 L322.900623 309.380079 L285.425853 320.478728 L295.140536 325.753952 L268.594785 342.787228 L274.666462 346.084243 Z" fill="#888" fill-opacity="0.18" stroke="#000" stroke-width="1"/>
  <path d="M263.719765 273.312038 L252.559942 239.161953 L259.447518 239.706814 L246.474292 210.957817 L257.494414 211.829594 L232.123551 182.099849 L262.428885 184.497234 L264.172438 162.456991 L280.702620 163.764656 L278.959067 185.804899 L309.264402 188.202284 L279.534657 213.573147 L290.554778 214.444923 L273.222670 240.796534 L280.110246 241.341394 Z" fill="#888" fill-opacity="0.18" stroke="#000" stroke-width="1"/>
  <path d="M461.042598 1042.853107 L486.557578 1017.559714 L489.160327 1023.959814 L509.034678 999.468600 L513.199076 1009.708759 L528.388479 973.697366 L539.840574 1001.857804 L560.320892 993.529008 L566.567489 1008.889247 L546.087171 1017.218043 L557.539265 1045.378481 L521.527872 1030.189077 L525.692270 1040.429237 L494.365825 1036.760013 L496.968573 1043.160112 Z" fill="#888" fill-opacity="0.18" stroke="#000" stroke-width="1"/>
  <path d="M332.404533 768.879812 L345.945524 802.157605 L339.036671 802.099956 L354.005552 829.862197 L342.951387 829.769958 L370.356203 857.635967 L339.957249 857.382311 L339.772772 879.490641 L323.191524 879.352284 L323.376002 857.243954 L292.977048 856.990298 L320.843057 829.585481 L309.788892 829.493243 L325.218965 801.984658 L318.310112 801.927009 Z" fill="#888" fill-opacity="0.18" stroke="#000" stroke-width="1"/>
  <path d="M1000.465491 845.441162 L994.649641 809.987730 L1001.373316 811.577626 L992.940814 781.185155 L1003.698695 783.728989 L983.163578 750.474705 L1012.747748 757.470247 L1017.835415 735.954487 L1033.972235 739.770237 L1028.884568 761.285997 L1058.468738 768.281539 L1025.214455 788.816655 L1035.972335 791.360489 L1014.820666 814.757418 L1021.544341 816.347314 Z" fill="#888" fill-opacity="0.18" stroke="#000" stroke-width="1"/>
  <path d="M461.901973 644.683178 L426.836891 652.506856 L428.041643 645.703611 L398.178206 655.851740 L400.105811 644.966547 L368.073819 667.360518 L373.374730 637.426239 L351.604346 633.571031 L354.495752 617.243242 L376.266137 621.098450 L381.567048 591.164171 L403.961019 623.196163 L405.888623 612.310970 L430.451148 632.097120 L431.655901 625.293875 Z" fill="#888" fill-opacity="0.18" stroke="#000" stroke-width="1"/>
  <path d="M921.547789 487.260950 L894.934137 463.126256 L901.186868 460.187049 L875.674034 441.642381 L885.678403 436.939651 L848.910655 423.685554 L876.422670 410.753046 L867.017209 390.744308 L882.023763 383.690212 L891.429223 403.698950 L918.941238 390.766442 L905.687141 427.534190 L915.691510 422.831460 L913.692329 454.308637 L919.945060 451.369430 Z" fill="#888" fill-opacity="0.18" stroke="#000" stroke-width="1"/>
  <path d="M230.125710 765.010837 L202.558567 741.971251 L208.687424 738.781786 L182.446080 721.283179 L192.252252 716.180036 L154.978965 704.422464 L181.945938 690.388821 L171.739652 670.776477 L186.448910 663.121763 L196.655195 682.734106 L223.622168 668.700463 L211.864596 705.973750 L221.670767 700.870607 L220.945139 732.402858 L227.073996 729.213394 Z" fill="#888" fill-opacity="0.18" stroke="#000" stroke-width="1"/>
  <path d="M298.872175 889.081152 L334.720652 886.702780 L332.491334 893.242330 L363.554034 887.772593 L359.987125 898.235873 L395.062598 880.994946 L385.253598 909.768967 L406.180158 916.902785 L400.829794 932.597705 L379.903234 925.463887 L370.094233 954.237907 L352.853306 919.162434 L349.286397 929.625714 L328.032697 906.321430 L325.803379 912.860980 Z" fill="#888" fill-opacity="0.18" stroke="#000" stroke-width="1"/>
  <path d="M601.441390 611.243221 L565.526202 610.310900 L568.348152 604.004382 L536.913789 606.590924 L541.428908 596.500494 L504.915036 610.438769 L517.331614 582.690088 L497.150755 573.659849 L503.923434 558.524205 L524.104293 567.554444 L536.520872 539.805762 L550.459147 576.319635 L554.974267 566.229205 L573.992051 591.391345 L576.814001 585.084826 Z" fill="#888" fill-opacity="0.18" stroke="#000" stroke-width="1"/>
  <path d="M449.431388 407.942193 L485.338476 406.737641 L482.896452 413.200775 L514.121439 408.749977 L510.214201 419.090991 L545.834830 403.006553 L535.089925 431.444340 L555.771952 439.258817 L549.911094 454.770337 L529.229067 446.955860 L518.484162 475.393648 L502.399724 439.773018 L498.492486 450.114031 L478.012405 426.127042 L475.570381 432.590175 Z" fill="#888" fill-opacity="0.18" stroke="#000" stroke-width="1"/>
  <path d="M849.887126 820.675222 L836.895296 787.179218 L843.802267 787.350491 L829.292024 759.345808 L840.343177 759.619845 L813.400388 731.306871 L843.791057 732.060473 L844.339131 709.958167 L860.915860 710.369223 L860.367787 732.471528 L890.758456 733.225130 L862.445482 760.167919 L873.496635 760.441956 L857.616208 787.693037 L864.523178 787.864310 Z" fill="#888" fill-opacity="0.18" stroke="#000" stroke-width="1"/>
  <path d="M937.239556 250.722783 L965.560101 228.615846 L967.389695 235.278290 L990.014366 213.302539 L992.941715 223.962450 L1012.273118 189.994299 L1020.323329 219.309053 L1041.643151 213.454354 L1046.034175 229.444220 L1024.714354 235.298919 L1032.764565 264.613674 L998.796415 245.282271 L1001.723764 255.942182 L971.048882 248.603179 L972.878475 255.265623 Z" fill="#888" fill-opacity="0.18" stroke="#000" stroke-width="1"/>
  <path d="M602.934438 57.577104 L604.056929 93.486852 L597.599393 91.030064 L601.978822 122.265141 L591.646764 118.334281 L607.649758 153.991574 L579.236600 143.181709 L571.374879 163.845824 L555.876793 157.949534 L563.738514 137.285419 L535.325356 126.475554 L570.982650 110.472560 L560.650592 106.541700 L584.684321 86.116489 L578.226785 83.659702 Z" fill="#888" fill-opacity="0.18" stroke="#000" stroke-width="1"/>
  <path d="M727.427114 824.968156 L733.381641 860.398561 L726.651796 858.834985 L735.203152 889.194229 L724.435401 886.692508 L745.100477 919.866188 L715.489161 912.986456 L710.485719 934.521958 L694.334093 930.769377 L699.337534 909.233875 L669.726219 902.354143 L702.899899 881.689067 L692.132147 879.187346 L713.192107 855.707834 L706.462263 854.144259 Z" fill="#888" fill-opacity="0.18" stroke="#000" stroke-width="1"/>
  <path d="M391.453412 185.447823 L355.853125 180.611550 L359.344793 174.649685 L327.815665 173.799119 L333.402332 164.260135 L295.588203 174.140926 L310.951539 147.908720 L291.873571 136.735384 L300.253573 122.426908 L319.331541 133.600243 L334.694877 107.368037 L344.575668 145.182167 L350.162335 135.643183 L366.328127 162.725955 L369.819795 156.764090 Z" fill="#888" fill-opacity="0.18" stroke="#000" stroke-width="1"/>
  <path d="M423.561234 238.105984 L396.518048 261.758385 L394.319633 255.208381 L372.956133 278.412050 L369.438668 267.932045 L352.032316 302.925720 L342.359288 274.105705 L321.399277 281.140634 L316.123080 265.420626 L337.083091 258.385697 L327.410063 229.565682 L362.403739 246.972034 L358.886274 236.492028 L389.922802 242.108374 L387.724386 235.558371 Z" fill="#888" fill-opacity="0.18" stroke="#000" stroke-width="1"/>
  <path d="M723.021901 768.661403 L705.672168 737.201004 L712.540118 736.448122 L694.419100 710.632659 L705.407821 709.428049 L674.924492 684.967773 L705.143475 681.655094 L702.734253 659.677652 L719.217334 657.870736 L721.626556 679.848178 L751.845538 676.535499 L727.385263 707.018827 L738.373984 705.814217 L726.276019 734.942358 L733.143970 734.189477 Z" fill="#888" fill-opacity="0.18" stroke="#000" stroke-width="1"/>
  <path d="M897.537392 1011.929990 L861.869701 1016.241104 L863.742557 1009.590692 L833.020624 1016.730173 L836.017194 1006.089513 L801.924119 1025.199737 L810.164687 995.937923 L788.883368 989.944782 L793.378223 973.983793 L814.659542 979.976933 L822.900111 950.715119 L842.010334 984.808194 L845.006905 974.167534 L867.488270 996.289867 L869.361126 989.639455 Z" fill="#888" fill-opacity="0.18" stroke="#000" stroke-width="1"/>
  <path d="M977.833010 59.302141 L959.418486 90.151375 L955.304312 84.600776 L942.153101 113.268791 L935.570422 104.387833 L929.824725 143.046925 L911.722358 118.624291 L893.960443 131.789649 L884.086424 118.468212 L901.848339 105.302854 L883.745972 80.880221 L922.405064 86.625918 L915.822385 77.744960 L947.075963 73.499579 L942.961788 67.948981 Z" fill="#888" fill-opacity="0.18" stroke="#000" stroke-width="1"/>
  <path d="M687.957453 301.151771 L652.257833 297.113566 L655.615178 291.075039 L624.074911 290.930416 L629.446664 281.268773 L591.863174 291.993498 L606.635495 265.423980 L587.312209 254.680474 L595.369838 240.188010 L614.693124 250.931516 L629.465444 224.361998 L640.190169 261.945487 L645.561922 252.283844 L662.329869 278.997985 L665.687215 272.959458 Z" fill="#888" fill-opacity="0.18" stroke="#000" stroke-width="1"/>
  <path d="M501.077781 925.647094 L470.889887 945.126852 L469.664774 938.327244 L445.161589 958.186834 L443.201409 947.307460 L420.903427 979.406345 L415.512930 949.488069 L393.754183 953.408430 L390.813913 937.089370 L412.572659 933.169009 L407.182163 903.250732 L439.281047 925.548714 L437.320867 914.669340 L467.214548 924.728027 L465.989436 917.928419 Z" fill="#888" fill-opacity="0.18" stroke="#000" stroke-width="1"/>
  <path d="M691.890593 726.452767 L702.497469 760.778619 L695.619590 760.122602 L708.126855 789.077354 L697.122249 788.027727 L722.009697 818.163310 L691.747030 815.276836 L689.647776 837.286048 L673.140867 835.711607 L675.240121 813.702395 L644.977454 810.815920 L675.113037 785.928473 L664.108431 784.878846 L681.863832 758.810568 L674.985954 758.154551 Z" fill="#888" fill-opacity="0.18" stroke="#000" stroke-width="1"/>
  <path d="M306.462055 788.237651 L308.698754 752.380056 L314.898572 755.429292 L313.455919 723.921704 L323.375626 728.800481 L310.773302 691.804268 L338.052498 705.220907 L347.810054 685.381492 L362.689615 692.699659 L352.932059 712.539074 L380.211255 725.955713 L343.215041 738.558037 L353.134749 743.436815 L327.298206 761.527765 L333.498023 764.577001 Z" fill="#888" fill-opacity="0.18" stroke="#000" stroke-width="1"/>
  <path d="M172.670426 125.486286 L137.754418 117.022107 L141.839480 111.450048 L110.564107 107.368330 L117.100206 98.453035 L78.471721 104.401024 L96.445994 79.883964 L78.615404 66.811766 L88.419553 53.438823 L106.250143 66.511022 L124.224415 41.993961 L130.172404 80.622446 L136.708503 71.707151 L150.009604 100.305929 L154.094666 94.733870 Z" fill="#888" fill-opacity="0.18" stroke="#000" stroke-width="1"/>
  <path d="M222.116144 827.478165 L218.602002 863.233175 L212.514881 859.964762 L212.832894 891.503757 L203.093500 886.274296 L214.368331 923.696436 L187.584997 909.315416 L177.126073 928.794205 L162.516982 920.950013 L172.975905 901.471224 L146.192571 887.090204 L183.614711 875.815372 L173.875316 870.585911 L200.340638 853.427935 L194.253516 850.159521 Z" fill="#888" fill-opacity="0.18" stroke="#000" stroke-width="1"/>
  <path d="M792.238988 682.632224 L781.230381 648.433093 L788.115479 649.008424 L775.269588 620.202306 L786.285744 621.122835 L761.046678 591.281121 L791.341107 593.812577 L793.182167 571.780265 L809.706401 573.161059 L807.865342 595.193372 L838.159771 597.724828 L808.318057 622.963895 L819.334213 623.884424 L801.885674 650.159086 L808.770772 650.734417 Z" fill="#888" fill-opacity="0.18" stroke="#000" stroke-width="1"/>
  <path d="M238.881946 360.343907 L203.605311 353.537369 L207.422790 347.778687 L175.989605 345.177870 L182.097573 335.963978 L143.792924 343.728789 L160.589835 318.390586 L142.162051 306.174651 L151.324002 292.353813 L169.751786 304.569748 L186.548697 279.231545 L194.313508 317.536194 L200.421475 308.322302 L215.057750 336.261322 L218.875230 330.502640 Z" fill="#888" fill-opacity="0.18" stroke="#000" stroke-width="1"/>
  <path d="M289.903824 453.244040 L320.458964 472.142541 L314.844205 476.168712 L343.301360 489.770172 L334.317746 496.212046 L372.881468 502.566397 L348.176528 520.281551 L361.060276 538.248780 L347.584854 547.911591 L334.701106 529.944362 L309.996166 547.659516 L316.350517 509.095794 L307.366902 515.537668 L303.614687 484.221055 L297.999928 488.247226 Z" fill="#888" fill-opacity="0.18" stroke="#000" stroke-width="1"/>
  <path d="M806.820251 684.836963 L827.886774 655.734187 L831.494772 661.626379 L847.125942 634.231564 L852.898740 643.659070 L862.035513 605.658310 L877.910706 631.583953 L896.765719 620.038358 L905.424915 634.179618 L886.569902 645.725213 L902.445095 671.650857 L864.444335 662.514084 L870.217132 671.941590 L838.710769 673.410762 L842.318768 679.302954 Z" fill="#888" fill-opacity="0.18" stroke="#000" stroke-width="1"/>
  <path d="M752.353518 537.569259 L759.899869 502.443449 L765.577058 506.381101 L768.837851 475.009512 L777.921353 481.309755 L770.963205 442.850392 L795.942836 460.176061 L808.543322 442.009056 L822.168575 451.459421 L809.568089 469.626425 L834.547720 486.952094 L796.088357 493.910241 L805.171859 500.210484 L776.931436 514.256405 L782.608625 518.194057 Z" fill="#888" fill-opacity="0.18" stroke="#000" stroke-width="1"/>
  <path d="M118.612121 1003.899683 L153.748722 996.403736 L152.480502 1003.195436 L182.437387 993.326574 L180.408236 1004.193295 L212.647916 982.099371 L207.067749 1011.982853 L228.801191 1016.041156 L225.757464 1032.341237 L204.024022 1028.282934 L198.443856 1058.166416 L176.349933 1025.926736 L174.320782 1036.793456 L149.944063 1016.778837 L148.675844 1023.570537 Z" fill="#888" fill-opacity="0.18" stroke="#000" stroke-width="1"/>
  <path d="M675.460281 950.504780 L711.195808 946.797749 L709.210701 953.415522 L740.049030 946.796851 L736.872858 957.385288 L771.284381 938.854625 L762.549909 967.972827 L783.726783 974.325171 L778.962525 990.207827 L757.785651 983.855483 L749.051178 1012.973686 L730.520515 978.562163 L727.344343 989.150600 L705.240486 966.651069 L703.255378 973.268842 Z" fill="#888" fill-opacity="0.18" stroke="#000" stroke-width="1"/>
  <path d="M601.578561 404.684107 L571.070412 385.709842 L576.695144 381.697616 L548.271829 368.025582 L557.271401 361.606020 L518.723566 355.155993 L543.472390 337.502199 L530.633267 319.503054 L544.132626 309.873712 L556.971749 327.872857 L581.720573 310.219063 L575.270546 348.766897 L584.270118 342.347336 L587.944610 373.673164 L593.569343 369.660938 Z" fill="#888" fill-opacity="0.18" stroke="#000" stroke-width="1"/>
  <path d="M94.566208 842.453048 L117.488175 870.118069 L110.881813 872.140828 L133.506845 894.116207 L122.936666 897.352621 L157.453150 915.687035 L128.385156 924.587174 L134.857984 945.727533 L119.002715 950.582154 L112.529887 929.441795 L83.461893 938.341934 L101.796307 903.825450 L91.226127 907.061864 L97.669089 876.186346 L91.062726 878.209104 Z" fill="#888" fill-opacity="0.18" stroke="#000" stroke-width="1"/>
  <path d="M195.326113 949.321234 L223.172755 926.620255 L225.142852 933.242512 L247.297669 910.793159 L250.449824 921.388771 L269.058466 887.019354 L277.726892 916.157287 L298.918116 909.852977 L303.646348 925.746395 L282.455124 932.050705 L291.123550 961.188638 L256.754133 942.579995 L259.906288 953.175607 L229.083045 946.487027 L231.053142 953.109285 Z" fill="#888" fill-opacity="0.18" stroke="#000" stroke-width="1"/>
  <path d="M804.119835 748.550648 L805.947663 784.431409 L799.443103 782.101973 L804.435392 813.244973 L794.028096 809.517875 L810.728593 844.853860 L782.108528 834.604342 L774.654334 855.418935 L759.043389 849.828289 L766.497584 829.013696 L737.877519 818.764178 L773.213503 802.063681 L762.806207 798.336583 L786.433982 777.443101 L779.929422 775.113665 Z" fill="#888" fill-opacity="0.18" stroke="#000" stroke-width="1"/>
  <path d="M41.146448 808.331305 L69.394699 786.132065 L71.246025 792.788503 L93.798860 770.739036 L96.760982 781.389337 L115.981431 747.358282 L124.127264 776.646609 L145.427866 770.722367 L149.871048 786.697818 L128.570446 792.622061 L136.716279 821.910388 L102.685224 802.689939 L105.647345 813.340240 L74.948676 806.101379 L76.800002 812.757817 Z" fill="#888" fill-opacity="0.18" stroke="#000" stroke-width="1"/>
  <path d="M824.365013 858.795731 L812.418087 892.678483 L807.287046 888.051606 L800.067829 918.754901 L791.858163 911.351898 L793.874821 950.383571 L771.298239 930.025313 L756.492233 946.444645 L744.177734 935.340140 L758.983740 918.920808 L736.407158 898.562550 L775.438831 896.545892 L767.229165 889.142889 L797.024963 878.797853 L791.893922 874.170976 Z" fill="#888" fill-opacity="0.18" stroke="#000" stroke-width="1"/>
  <path d="M743.897537 802.096035 L743.770852 766.168971 L750.157807 768.803810 L746.645860 737.459343 L756.864989 741.675085 L741.856521 705.587908 L769.959126 717.181198 L778.390609 696.742941 L793.719302 703.066554 L785.287819 723.504811 L813.390423 735.098101 L777.303246 750.106569 L787.522375 754.322310 L762.931718 774.073487 L769.318674 776.708326 Z" fill="#888" fill-opacity="0.18" stroke="#000" stroke-width="1"/>
  <path d="M750.144556 324.766298 L768.753870 294.034174 L772.832848 299.610689 L786.165154 271.026445 L792.691519 279.948868 L798.681665 241.326899 L816.629168 265.863562 L834.474015 252.810833 L844.263562 266.194468 L826.418715 279.247197 L844.366218 303.783861 L805.744248 297.793715 L812.270613 306.716138 L780.990804 310.763718 L785.069782 316.340232 Z" fill="#888" fill-opacity="0.18" stroke="#000" stroke-width="1"/>
  <path d="M580.569867 621.789235 L614.817911 610.933754 L614.211780 617.816209 L643.075086 605.099333 L642.105276 616.111260 L672.059619 591.005966 L669.392642 621.288766 L691.416497 623.228386 L689.961782 639.746277 L667.937928 637.806657 L665.270951 668.089457 L640.165657 638.135115 L639.195847 649.147042 L612.999518 631.581118 L612.393387 638.463573 Z" fill="#888" fill-opacity="0.18" stroke="#000" stroke-width="1"/>
  <path d="M832.216609 104.400784 L842.695878 138.765808 L835.820484 138.084242 L848.220085 167.085264 L837.219455 165.994758 L861.994765 196.222599 L831.743031 193.223707 L829.562019 215.224968 L813.061073 213.589208 L815.242086 191.587947 L784.990352 188.589055 L815.218194 163.813745 L804.217564 162.723239 L822.069696 136.721109 L815.194302 136.039543 Z" fill="#888" fill-opacity="0.18" stroke="#000" stroke-width="1"/>
  <path d="M111.761179 630.258352 L98.350421 596.927862 L105.258996 597.012527 L90.398791 569.191965 L101.452510 569.327429 L74.156870 541.354470 L104.554600 541.726995 L104.825528 519.619556 L121.406107 519.822751 L121.135180 541.930191 L151.532909 542.302716 L123.559950 569.598356 L134.613670 569.733820 L119.076146 597.181857 L125.984721 597.266522 Z" fill="#888" fill-opacity="0.18" stroke="#000" stroke-width="1"/>
  <path d="M442.819779 1057.657408 L445.131770 1021.804589 L451.325171 1024.866837 L449.948683 993.356289 L459.858124 998.255886 L447.333515 961.233291 L474.584477 974.707183 L484.383672 954.888301 L499.247833 962.237697 L489.448638 982.056579 L516.699601 995.530472 L479.677005 1008.055081 L489.586446 1012.954678 L463.711972 1030.991334 L469.905372 1034.053582 Z" fill="#888" fill-opacity="0.18" stroke="#000" stroke-width="1"/>
  <path d="M659.183700 361.163126 L692.230209 347.067093 L692.288195 353.975943 L719.796027 338.544528 L719.888805 349.598689 L747.292262 321.731343 L747.547400 352.130285 L769.655722 351.944730 L769.794888 368.525970 L747.686567 368.711526 L747.941705 399.110467 L720.074360 371.707010 L720.167138 382.761170 L692.404167 367.793644 L692.462153 374.702494 Z" fill="#888" fill-opacity="0.18" stroke="#000" stroke-width="1"/>
  <path d="M796.285286 206.625861 L764.766416 223.869144 L764.036756 216.998688 L738.160183 235.032334 L736.992727 224.039604 L712.429543 254.440071 L709.219037 224.210063 L687.233577 226.544977 L685.482391 210.055882 L707.467852 207.720968 L704.257345 177.490960 L734.657813 202.054143 L733.490356 191.061413 L762.577435 203.257775 L761.847774 196.387319 Z" fill="#888" fill-opacity="0.18" stroke="#000" stroke-width="1"/>
  <path d="M123.559947 432.830504 L152.557349 454.041837 L146.647245 457.620419 L173.963803 473.387952 L164.507637 479.113684 L202.462380 488.439768 L176.457925 504.185531 L187.909388 523.097862 L173.725140 531.686459 L162.273676 512.774128 L136.269221 528.519891 L145.595306 490.565147 L136.139140 496.290879 L134.827038 464.777584 L128.916935 468.356166 Z" fill="#888" fill-opacity="0.18" stroke="#000" stroke-width="1"/>
  <path d="M212.977251 642.627760 L248.727928 639.069802 L246.715237 645.679238 L277.580903 639.189240 L274.360598 649.764338 L308.849106 631.377354 L299.993268 660.458875 L321.143465 666.899484 L316.313008 682.762132 L295.162811 676.321523 L286.306973 705.403044 L267.919989 670.914535 L264.699684 681.489634 L242.689856 658.898111 L240.677166 665.507548 Z" fill="#888" fill-opacity="0.18" stroke="#000" stroke-width="1"/>
  <path d="M695.766808 193.487097 L659.998674 196.865044 L662.044610 190.265823 L631.146666 196.600364 L634.420164 186.041610 L599.839534 204.254748 L608.841654 175.218176 L587.724147 168.671179 L592.634394 152.833048 L613.751902 159.380045 L622.754022 130.343472 L640.967161 164.924102 L644.240659 154.365349 L666.136483 177.067381 L668.182420 170.468160 Z" fill="#888" fill-opacity="0.18" stroke="#000" stroke-width="1"/>
  <path d="M510.268506 338.013376 L482.434670 315.296697 L488.525932 312.036007 L462.082396 294.844476 L471.828415 289.627372 L434.420606 278.305082 L461.222160 263.958047 L450.787953 244.466007 L465.406982 236.640352 L475.841190 256.132391 L502.642744 241.785355 L491.320455 279.193164 L501.066474 273.976060 L500.708457 305.514627 L506.799719 302.253937 Z" fill="#888" fill-opacity="0.18" stroke="#000" stroke-width="1"/>
  <path d="M164.216453 254.555418 L151.149489 221.088653 L158.056827 221.244426 L143.483776 193.272375 L154.535516 193.521612 L127.529259 165.269171 L157.921543 165.954572 L158.420017 143.851092 L174.997627 144.224948 L174.499153 166.328427 L204.891438 167.013829 L176.638996 194.020086 L187.690736 194.269323 L171.871501 221.555972 L178.778839 221.711745 Z" fill="#888" fill-opacity="0.18" stroke="#000" stroke-width="1"/>
  <path d="M910.485178 49.166240 L884.170865 73.626961 L881.775050 67.146557 L861.124224 90.986707 L857.290920 80.618059 L840.952561 116.122938 L830.410975 87.609157 L809.673680 95.275765 L803.923724 79.722794 L824.661019 72.056186 L814.119433 43.542405 L849.624312 59.880764 L845.791008 49.512116 L876.983420 54.185747 L874.587605 47.705342 Z" fill="#888" fill-opacity="0.18" stroke="#000" stroke-width="1"/>
  <path d="M280.871750 617.509622 L247.768534 631.471964 L247.738474 624.562936 L220.168492 639.883036 L220.120397 628.828591 L192.604522 656.584942 L192.472260 626.185218 L170.363370 626.281408 L170.291227 609.699740 L192.400117 609.603550 L192.267856 579.203826 L220.024207 606.719701 L219.976111 595.665255 L247.678355 610.744880 L247.648296 603.835851 Z" fill="#888" fill-opacity="0.18" stroke="#000" stroke-width="1"/>
  <path d="M826.082885 407.692343 L829.535071 371.931298 L835.627846 375.189159 L835.255187 343.650762 L845.003628 348.863341 L833.663973 311.460792 L860.472185 325.795384 L870.897342 306.298502 L885.520003 314.117371 L875.094846 333.614252 L901.903058 347.948843 L864.500509 359.288498 L874.248950 364.501077 L847.813397 381.704883 L853.906172 384.962745 Z" fill="#888" fill-opacity="0.18" stroke="#000" stroke-width="1"/>
  <path d="M70.616035 459.725153 L70.728802 423.798043 L77.098055 426.475391 L73.795093 395.108214 L83.985897 399.391971 L69.218280 363.205567 L97.242992 374.985900 L105.810507 354.604291 L121.096713 361.029927 L112.529198 381.411536 L140.553910 393.191869 L104.367506 407.959486 L114.558310 412.243244 L89.836560 431.830088 L96.205813 434.507437 Z" fill="#888" fill-opacity="0.18" stroke="#000" stroke-width="1"/>
  <path d="M975.879245 450.545779 L958.616943 419.037322 L965.486958 418.303515 L947.437699 392.437831 L958.429723 391.263740 L928.014437 366.718908 L958.242502 363.490158 L955.894320 341.506111 L972.382356 339.744975 L974.730537 361.729022 L1004.958602 358.500273 L980.413770 388.915559 L991.405793 387.741468 L979.226988 416.835902 L986.097003 416.102095 Z" fill="#888" fill-opacity="0.18" stroke="#000" stroke-width="1"/>
  <path d="M47.761928 757.926594 L69.748327 729.512368 L73.166059 735.516923 L89.665267 708.635973 L95.133639 718.243260 L105.480929 680.554111 L120.518952 706.974152 L139.733528 696.037409 L147.936086 710.448340 L128.721510 721.385084 L143.759533 747.805126 L106.070383 737.457836 L111.538755 747.065124 L80.001524 747.526033 L83.419257 753.530588 Z" fill="#888" fill-opacity="0.18" stroke="#000" stroke-width="1"/>
  <path d="M571.558716 447.605534 L567.294052 483.278810 L561.276951 479.883213 L560.932184 511.421928 L551.304824 505.988973 L561.790837 543.639762 L535.315596 528.699135 L524.449686 547.953856 L510.008645 539.804424 L520.874555 520.549702 L494.399314 505.609076 L532.050103 495.123062 L522.422742 489.690107 L549.242751 473.092019 L543.225650 469.696422 Z" fill="#888" fill-opacity="0.18" stroke="#000" stroke-width="1"/>
  <path d="M691.731486 1030.484916 L656.850638 1039.092846 L657.902548 1032.264298 L628.274157 1043.079464 L629.957212 1032.153788 L598.435384 1055.260340 L603.063786 1025.214731 L581.212434 1021.848620 L583.737017 1005.460106 L605.588369 1008.826217 L610.216771 978.780608 L633.323323 1010.302436 L635.006378 999.376760 L660.006367 1018.607203 L661.058277 1011.778655 Z" fill="#888" fill-opacity="0.18" stroke="#000" stroke-width="1"/>
  <path d="M1042.475029 967.723790 L1016.896387 942.494779 L1023.266821 939.820243 L998.553721 920.222486 L1008.746415 915.943228 L972.566534 901.159637 L1000.596444 889.391677 L992.037927 869.006288 L1007.326969 862.587401 L1015.885485 882.972790 L1043.915396 871.204830 L1029.131804 907.384712 L1039.324499 903.105454 L1036.007689 934.471170 L1042.378123 931.796634 Z" fill="#888" fill-opacity="0.18" stroke="#000" stroke-width="1"/>
  <path d="M302.399533 796.430119 L275.955852 772.109312 L282.229049 769.214043 L256.846943 750.490847 L266.884058 745.858417 L230.210198 732.346703 L257.812263 719.607523 L248.547405 699.533294 L263.603077 692.584650 L272.867936 712.658880 L300.470001 699.919699 L286.958287 736.593559 L296.995402 731.961130 L294.775442 763.423507 L301.048639 760.528239 Z" fill="#888" fill-opacity="0.18" stroke="#000" stroke-width="1"/>
  <path d="M1038.792581 393.786899 L1012.148021 369.686332 L1018.396979 366.739115 L992.860401 348.227157 L1002.858735 343.511610 L966.074031 330.304643 L993.569450 317.336888 L984.138355 297.340220 L999.135856 290.266898 L1008.566951 310.263566 L1036.062370 297.295811 L1022.855403 334.080515 L1032.853737 329.364967 L1030.894897 360.844680 L1037.143856 357.897463 Z" fill="#888" fill-opacity="0.18" stroke="#000" stroke-width="1"/>
  <path d="M174.755566 374.578712 L202.165440 397.805179 L196.015041 400.952903 L222.136815 418.629506 L212.296176 423.665865 L249.488669 435.676565 L222.426913 449.526551 L232.499630 469.207828 L217.738672 476.762365 L207.665955 457.081088 L180.604199 470.931074 L192.614899 433.738582 L182.774261 438.774940 L183.714242 407.248351 L177.563843 410.396075 Z" fill="#888" fill-opacity="0.18" stroke="#000" stroke-width="1"/>
  <path d="M55.051190 647.871138 L89.555182 637.858919 L88.780428 644.724437 L117.946956 632.719311 L116.707351 643.704140 L147.268435 619.341083 L143.859520 649.549360 L165.829177 652.028571 L163.969768 668.505813 L142.000112 666.026603 L138.591197 696.234880 L114.228140 665.673796 L112.988535 676.658624 L87.230922 658.455472 L86.456168 665.320989 Z" fill="#888" fill-opacity="0.18" stroke="#000" stroke-width="1"/>
  <path d="M502.692064 531.336660 L497.553957 566.894638 L491.621927 563.352520 L490.503921 594.873298 L481.012673 589.205910 L490.572320 627.102500 L464.471390 611.517181 L453.136612 630.499676 L438.899741 621.998593 L450.234518 603.016098 L424.133588 587.430779 L462.030178 577.871132 L452.538931 572.203743 L479.757868 556.268284 L473.825838 552.726166 Z" fill="#888" fill-opacity="0.18" stroke="#000" stroke-width="1"/>
  <path d="M238.982920 415.693968 L266.662630 392.789742 L268.681153 399.397400 L290.671033 376.786460 L293.900670 387.358713 L312.257208 352.853990 L321.138710 381.927683 L342.283214 375.468409 L347.127670 391.326788 L325.983165 397.786062 L334.864667 426.859755 L300.359944 408.503217 L303.589581 419.075469 L272.718199 412.612715 L274.736723 419.220373 Z" fill="#888" fill-opacity="0.18" stroke="#000" stroke-width="1"/>
  <path d="M247.542240 565.276869 L233.358874 532.267747 L240.267547 532.191493 L224.763451 504.724561 L235.817327 504.602554 L207.877619 477.272879 L238.275780 476.937361 L238.031766 454.829608 L254.612581 454.646598 L254.856595 476.754351 L285.254755 476.418833 L257.925080 504.358541 L268.978957 504.236534 L254.084893 532.038985 L260.993566 531.962731 Z" fill="#888" fill-opacity="0.18" stroke="#000" stroke-width="1"/>
  <path d="M941.297499 485.965404 L965.496597 459.410299 L968.420647 465.670132 L987.027069 440.202301 L991.705549 450.218033 L1005.048681 413.482503 L1017.914500 441.025768 L1037.945966 431.668808 L1044.963685 446.692407 L1024.932220 456.049367 L1037.798039 483.592631 L1001.062508 470.249499 L1005.740988 480.265231 L974.268746 478.189798 L977.192796 484.449631 Z" fill="#888" fill-opacity="0.18" stroke="#000" stroke-width="1"/>
  <path d="M400.155762 96.672489 L365.297940 105.373191 L366.331678 98.541869 L336.732167 109.435826 L338.386147 98.505711 L306.925908 121.696047 L311.474354 91.638230 L289.614124 88.330269 L292.095095 71.935096 L313.955325 75.243057 L318.503772 45.185240 L341.694109 76.645480 L343.348089 65.715365 L368.399154 84.879225 L369.432892 78.047903 Z" fill="#888" fill-opacity="0.18" stroke="#000" stroke-width="1"/>
  <path d="M189.326818 138.761145 L216.188460 114.902769 L218.436867 121.435781 L239.622419 98.069527 L243.219870 108.522346 L260.358289 73.396672 L270.251279 102.141923 L291.156916 94.947021 L296.553093 110.626249 L275.647456 117.821151 L285.540446 146.566403 L250.414772 129.427983 L254.012223 139.880802 L222.933681 134.501804 L225.182088 141.034816 Z" fill="#888" fill-opacity="0.18" stroke="#000" stroke-width="1"/>
  <path d="M906.983017 580.262634 L871.076593 579.038425 L873.949709 572.755052 L842.495361 575.086010 L847.092346 565.032613 L810.466389 578.673643 L823.108099 551.026800 L803.001304 541.832830 L809.896782 526.752734 L830.003577 535.946704 L842.645286 508.299861 L856.286317 544.925818 L860.883302 534.872421 L879.695941 560.188305 L882.569056 553.904932 Z" fill="#888" fill-opacity="0.18" stroke="#000" stroke-width="1"/>
  <path d="M270.267991 40.500251 L246.482320 67.426294 L243.461844 61.212414 L225.251371 86.964852 L220.418610 77.022644 L207.644993 113.960066 L194.354901 86.618995 L174.470485 96.284517 L167.221344 81.371205 L187.105759 71.705683 L173.815667 44.364612 L210.753088 57.138229 L205.920327 47.196021 L237.420893 48.784655 L234.400417 42.570775 Z" fill="#888" fill-opacity="0.18" stroke="#000" stroke-width="1"/>
  <path d="M988.953448 206.634752 L971.455251 175.256686 L978.319567 174.471360 L960.076768 148.741812 L971.059674 147.485290 L940.461105 123.169329 L970.664097 119.713895 L968.151054 97.748083 L984.625413 95.863300 L987.138456 117.829113 L1017.341447 114.373679 L993.025486 144.972247 L1004.008392 143.715726 L992.048200 172.900708 L998.912516 172.115382 Z" fill="#888" fill-opacity="0.18" stroke="#000" stroke-width="1"/>
  <path d="M363.775305 785.884190 L391.572099 808.646180 L385.475533 811.896943 L411.891030 829.131528 L402.136524 834.332749 L439.525839 845.715960 L412.700950 860.019317 L423.103391 879.528328 L408.471633 887.330159 L398.069192 867.821148 L371.244302 882.124505 L382.627513 844.735190 L372.873008 849.936411 L373.282401 818.398469 L367.185835 821.649232 Z" fill="#888" fill-opacity="0.18" stroke="#000" stroke-width="1"/>
  <path d="M506.592899 48.573945 L488.339076 79.518539 L484.196088 73.989414 L471.194163 102.725442 L464.565381 93.878842 L459.020835 132.567295 L440.791686 108.239146 L423.098486 121.496708 L413.155314 108.226809 L430.848514 94.969246 L412.619365 70.641096 L451.307819 76.185642 L444.679037 67.339043 L475.910111 62.931164 L471.767123 57.402039 Z" fill="#888" fill-opacity="0.18" stroke="#000" stroke-width="1"/>
  <path d="M977.926339 487.605013 L1004.466469 511.820534 L998.204829 514.740711 L1023.661146 533.362883 L1013.642521 538.035166 L1050.369791 551.401021 L1022.818573 564.249799 L1032.163139 584.287049 L1017.135202 591.295473 L1007.790635 571.258224 L980.239417 584.107002 L993.605271 547.379733 L983.586647 552.052016 L985.681548 520.581065 L979.419907 523.501242 Z" fill="#888" fill-opacity="0.18" stroke="#000" stroke-width="1"/>
  <path d="M602.714721 965.352000 L613.099562 930.958322 L618.436839 935.345696 L624.244325 904.344366 L632.783968 911.364164 L628.984356 872.465561 L652.468375 891.770006 L666.507971 874.690720 L679.317436 885.220417 L665.277839 902.299703 L688.761858 921.604148 L649.863254 925.403761 L658.402898 932.423559 L629.111393 944.120444 L634.448670 948.507818 Z" fill="#888" fill-opacity="0.18" stroke="#000" stroke-width="1"/>
  <path d="M1059.481030 141.785816 L1030.778351 120.177342 L1036.737154 116.680452 L1009.640226 100.538398 L1019.174311 94.943374 L981.351538 85.095722 L1007.570271 69.709405 L996.380223 50.641235 L1010.681350 42.248699 L1021.871399 61.316869 L1048.090132 45.930552 L1038.242481 83.753325 L1047.776566 78.158301 L1048.654760 109.686671 L1054.613563 106.189781 Z" fill="#888" fill-opacity="0.18" stroke="#000" stroke-width="1"/>
  <path d="M996.211817 282.657496 L968.999344 306.114931 L966.848059 299.549297 L945.318350 322.598830 L941.876294 312.093816 L924.218897 346.961490 L914.753244 318.072701 L893.743216 324.956812 L888.580132 309.199291 L909.590161 302.315180 L900.124508 273.426390 L934.992183 291.083787 L931.550127 280.578773 L962.545490 286.418029 L960.394205 279.852395 Z" fill="#888" fill-opacity="0.18" stroke="#000" stroke-width="1"/>
  <path d="M938.954673 619.271515 L920.713805 588.319283 L927.557461 587.370625 L908.706788 562.083049 L919.656637 560.565197 L888.487383 536.985204 L918.599469 532.811111 L915.563764 510.911412 L931.988538 508.634634 L935.024242 530.534332 L965.136328 526.360239 L941.556335 557.529492 L952.506184 556.011640 L941.244772 585.473310 L948.088428 584.524652 Z" fill="#888" fill-opacity="0.18" stroke="#000" stroke-width="1"/>
  <path d="M948.349996 626.710710 L964.900395 658.598862 L958.015634 659.178211 L975.479505 685.442685 L964.463888 686.369644 L994.320328 711.591289 L964.027382 714.140427 L965.881300 736.171661 L949.357874 737.562099 L947.503956 715.530865 L917.211009 718.080003 L942.432654 688.223562 L931.417037 689.150521 L944.246113 660.336910 L937.361352 660.916260 Z" fill="#888" fill-opacity="0.18" stroke="#000" stroke-width="1"/>
  <path d="M870.566893 128.335424 L902.771018 144.262265 L897.561806 148.800953 L927.176823 159.652687 L918.842084 166.914588 L957.833683 169.596684 L934.913151 189.566910 L949.436952 206.236388 L936.934843 217.129239 L922.411042 200.459761 L899.490510 220.429987 L902.172606 181.438389 L893.837867 188.700289 L887.143382 157.878329 L881.934171 162.417016 Z" fill="#888" fill-opacity="0.18" stroke="#000" stroke-width="1"/>
  <path d="M397.962461 361.368740 L428.626474 342.647407 L429.681739 349.475437 L454.672274 330.232710 L456.360699 341.157558 L479.451757 309.624377 L484.094924 339.667708 L505.944619 336.290859 L508.477256 352.678131 L486.627561 356.054980 L491.270728 386.098311 L459.737548 363.007253 L461.425972 373.932100 L431.792270 363.131496 L432.847535 369.959526 Z" fill="#888" fill-opacity="0.18" stroke="#000" stroke-width="1"/>
  <path d="M595.352426 671.273267 L559.620327 675.013192 L561.599341 668.393594 L530.767118 675.040650 L533.933541 664.449294 L499.539091 683.011627 L508.246756 653.885396 L487.064042 647.552549 L491.813678 631.665514 L512.996391 637.998361 L521.704056 608.872130 L540.266388 643.266581 L543.432812 632.675224 L565.557371 655.154398 L567.536386 648.534800 Z" fill="#888" fill-opacity="0.18" stroke="#000" stroke-width="1"/>
  <path d="M635.258466 550.942622 L647.182768 517.051901 L652.316898 521.675351 L659.515614 490.967244 L667.730221 498.364764 L665.687505 459.334446 L688.277674 479.677628 L703.072715 463.248414 L715.394625 474.344695 L700.599584 490.773908 L723.189753 511.117089 L684.159435 513.159805 L692.374041 520.557326 L662.585156 530.922252 L667.719285 535.545702 Z" fill="#888" fill-opacity="0.18" stroke="#000" stroke-width="1"/>
  <path d="M749.364725 511.437229 L728.148812 482.443178 L734.864909 480.821570 L713.603063 457.524719 L724.348819 454.930146 L690.997997 434.552189 L720.548825 427.417114 L715.359679 405.925603 L731.478313 402.033743 L736.667459 423.525255 L766.218287 416.390179 L745.840330 449.741000 L756.586085 447.146428 L748.297104 477.578354 L755.013201 475.956746 Z" fill="#888" fill-opacity="0.18" stroke="#000" stroke-width="1"/>
  <path d="M159.355713 736.188943 L188.772365 756.814910 L182.935163 760.511212 L210.562215 775.728156 L201.222692 781.642239 L239.356707 790.205840 L213.673018 806.469568 L225.501184 825.148615 L211.491899 834.019739 L199.663733 815.340692 L173.980044 831.604420 L182.543645 793.470405 L173.204122 799.384488 L171.260759 767.903815 L165.423557 771.600117 Z" fill="#888" fill-opacity="0.18" stroke="#000" stroke-width="1"/>
  <path d="M543.201009 703.620734 L508.605444 713.311806 L509.443979 706.453786 L480.167124 718.187290 L481.508779 707.214458 L450.722561 731.292397 L454.412115 701.117111 L432.466452 698.433799 L434.478936 681.974551 L456.424599 684.657863 L460.114152 654.482577 L484.192091 685.268795 L485.533747 674.295964 L511.121049 692.737747 L511.959584 685.879727 Z" fill="#888" fill-opacity="0.18" stroke="#000" stroke-width="1"/>
  <path d="M453.726326 561.514175 L426.263494 538.350349 L432.406691 535.188591 L406.244626 517.571674 L416.073740 512.512861 L378.853922 500.587109 L405.883986 486.675372 L395.766360 467.017144 L410.510031 459.428925 L420.627657 479.087153 L447.657720 465.175417 L435.731968 502.395235 L445.561082 497.336421 L444.693083 528.865074 L450.836279 525.703316 Z" fill="#888" fill-opacity="0.18" stroke="#000" stroke-width="1"/>
  <path d="M526.132815 305.913515 L524.203971 270.038043 L530.715064 272.349156 L525.635111 241.220335 L536.052860 244.918116 L519.252940 209.629292 L547.901749 219.798189 L555.297310 198.962691 L570.923934 204.509362 L563.528372 225.344860 L592.177182 235.513757 L556.888358 252.313677 L567.306107 256.011458 L543.737250 276.971381 L550.248343 279.282494 Z" fill="#888" fill-opacity="0.18" stroke="#000" stroke-width="1"/>
  <path d="M151.758665 259.838436 L123.127066 281.541005 L121.392261 274.853253 L98.457825 296.505528 L95.682136 285.805125 L75.870350 319.495354 L68.237206 290.069245 L46.836400 295.620622 L42.672868 279.570017 L64.073674 274.018641 L56.440531 244.592532 L90.130760 264.404319 L87.355071 253.703916 L117.922650 261.477749 L116.187845 254.789997 Z" fill="#888" fill-opacity="0.18" stroke="#000" stroke-width="1"/>
  <path d="M68.867715 219.864877 L65.903198 184.060107 L72.478343 186.182143 L66.501168 155.213082 L77.021401 158.608340 L59.208965 123.819613 L88.139604 133.156572 L94.930120 112.116107 L110.710469 117.208994 L103.919953 138.249460 L132.850593 147.586419 L98.061866 165.398856 L108.582099 168.794114 L85.628634 190.426216 L92.203779 192.548252 Z" fill="#888" fill-opacity="0.18" stroke="#000" stroke-width="1"/>
  <path d="M395.891734 267.209553 L392.582786 302.984137 L386.477013 299.750700 L386.975968 331.287352 L377.206731 326.113854 L388.696078 363.470692 L361.830677 349.243572 L351.483681 368.782046 L336.829825 361.021799 L347.176822 341.483325 L320.311420 327.256205 L357.668258 315.766858 L347.899021 310.593360 L374.265467 293.283828 L368.159694 290.050391 Z" fill="#888" fill-opacity="0.18" stroke="#000" stroke-width="1"/>
  <path d="M835.550079 958.044078 L868.505213 943.735721 L868.607648 950.644056 L896.015628 935.035980 L896.179524 946.089315 L923.403121 918.046238 L923.853835 948.442909 L945.960505 948.115117 L946.206349 964.695119 L924.099679 965.022911 L924.550393 995.419582 L896.507316 968.195985 L896.671212 979.249320 L868.812518 964.460724 L868.914953 971.369058 Z" fill="#888" fill-opacity="0.18" stroke="#000" stroke-width="1"/>
  <path d="M290.066125 1036.879404 L291.248015 1000.971562 L297.534770 1003.837271 L295.166742 972.385692 L305.225551 976.970825 L291.541364 940.360971 L319.203086 952.970088 L328.373353 932.852471 L343.461566 939.730171 L334.291299 959.847788 L361.953021 972.456905 L325.343167 986.141092 L335.401976 990.726225 L310.108281 1009.568688 L316.395036 1012.434396 Z" fill="#888" fill-opacity="0.18" stroke="#000" stroke-width="1"/>
  <path d="M585.736748 956.543110 L572.763475 923.039914 L579.670350 923.215013 L565.175622 895.202297 L576.226622 895.482455 L549.299520 867.154561 L579.689768 867.924997 L580.250085 845.822999 L596.826584 846.243237 L596.266267 868.345235 L626.656515 869.115671 L598.328620 896.042773 L609.379619 896.322931 L593.484099 923.565211 L600.390973 923.740310 Z" fill="#888" fill-opacity="0.18" stroke="#000" stroke-width="1"/>
  <path d="M658.255447 382.306944 L645.364750 415.841998 L640.365235 411.073305 L632.289395 441.562487 L624.290172 433.932578 L625.213457 473.005407 L603.215594 452.023158 L587.955777 468.021603 L575.956943 456.576740 L591.216760 440.578294 L569.218898 419.596045 L608.291726 418.672760 L600.292504 411.042852 L630.366207 401.535919 L625.366693 396.767226 Z" fill="#888" fill-opacity="0.18" stroke="#000" stroke-width="1"/>
  <path d="M560.497238 738.398346 L531.570664 759.706167 L529.927750 752.995250 L506.698492 774.330923 L504.069829 763.593456 L483.797817 797.008780 L476.568995 767.480745 L455.094060 772.738069 L451.151067 756.631868 L472.626002 751.374544 L465.397181 721.846508 L498.812505 742.118521 L496.183843 731.381054 L526.641922 739.573416 L524.999008 732.862498 Z" fill="#888" fill-opacity="0.18" stroke="#000" stroke-width="1"/>
  <path d="M656.978687 859.845003 L622.908340 848.444066 L627.452171 843.239339 L596.636838 836.514412 L603.906968 828.186850 L564.912739 830.830430 L584.905597 807.929635 L568.250473 793.389375 L579.155668 780.898033 L595.810791 795.438293 L615.803649 772.537498 L618.447228 811.531727 L625.717358 803.204165 L636.539833 832.829887 L641.083665 827.625161 Z" fill="#888" fill-opacity="0.18" stroke="#000" stroke-width="1"/>
  <path d="M652.970118 588.877517 L621.006372 572.473589 L626.282494 568.012859 L596.832107 556.721975 L605.273903 549.584807 L566.326495 546.323236 L589.541434 526.696026 L575.267099 509.812435 L587.929793 499.106684 L602.204127 515.990275 L625.419066 496.363066 L622.157494 535.310473 L630.599290 528.173306 L636.834739 559.091400 L642.110861 554.630671 Z" fill="#888" fill-opacity="0.18" stroke="#000" stroke-width="1"/>
  <path d="M569.503894 192.806077 L535.796327 180.373463 L540.496463 175.309443 L509.900085 167.649742 L517.420302 159.547311 L478.363679 161.002845 L499.044278 138.721158 L482.839415 123.680723 L494.119741 111.527076 L510.324604 126.567511 L531.005203 104.285824 L532.460738 143.342448 L539.980956 135.240016 L549.896735 165.181404 L554.596871 160.117384 Z" fill="#888" fill-opacity="0.18" stroke="#000" stroke-width="1"/>
  <path d="M315.078589 1035.332841 L336.031700 1006.148306 L339.662600 1012.026412 L355.187045 984.570976 L360.996486 993.975946 L369.985310 955.939918 L385.961272 981.803587 L404.771213 970.184705 L413.485375 984.292161 L394.675434 995.911043 L410.651396 1021.774711 L372.615368 1012.785887 L378.424808 1022.190858 L346.924401 1023.782625 L350.555302 1029.660732 Z" fill="#888" fill-opacity="0.18" stroke="#000" stroke-width="1"/>
  <path d="M806.323290 562.189696 L776.356999 582.008660 L775.055281 575.223300 L750.777621 595.357962 L748.694873 584.501387 L726.760305 616.849696 L721.032747 586.994114 L699.319596 591.159610 L696.195473 574.874747 L717.908624 570.709251 L712.181067 540.853668 L744.529376 562.788236 L742.446628 551.931660 L772.451845 561.652581 L771.150128 554.867221 Z" fill="#888" fill-opacity="0.18" stroke="#000" stroke-width="1"/>
  <path d="M377.203870 131.628377 L412.403706 138.821536 L408.523276 144.537989 L439.926035 147.483512 L433.717347 156.629837 L472.104880 149.285745 L455.030987 174.438139 L473.323638 186.855516 L464.010605 200.575003 L445.717955 188.157627 L428.644063 213.310021 L421.299970 174.922488 L415.091282 184.068813 L400.762416 155.970895 L396.881985 161.687348 Z" fill="#888" fill-opacity="0.18" stroke="#000" stroke-width="1"/>
  <path d="M571.114527 293.072963 L606.623890 298.536943 L603.027521 304.436239 L634.536720 305.843264 L628.782529 315.282139 L666.765194 306.070430 L650.941168 332.027335 L669.818918 343.535718 L661.187631 357.694030 L642.309882 346.185648 L626.485856 372.142553 L617.274147 334.159889 L611.519956 343.598763 L595.834782 316.234833 L592.238412 322.134129 Z" fill="#888" fill-opacity="0.18" stroke="#000" stroke-width="1"/>
  <path d="M968.551213 930.942302 L987.586531 961.412396 L980.769701 962.537741 L1000.268108 987.329302 L989.361180 989.129854 L1021.129882 1011.895793 L991.135830 1016.847313 L994.736935 1038.661169 L978.376542 1041.361998 L974.775437 1019.548142 L944.781385 1024.499661 L967.547324 992.730959 L956.640396 994.531512 L967.136040 964.788432 L960.319210 965.913777 Z" fill="#888" fill-opacity="0.18" stroke="#000" stroke-width="1"/>
  <path d="M641.271902 803.028442 L616.961472 776.575220 L623.455419 774.216358 L599.733289 753.430066 L610.123604 749.655887 L574.712370 733.115546 L603.285737 722.736555 L595.737380 701.955925 L611.322852 696.294657 L618.871209 717.075287 L647.444576 706.696296 L630.904235 742.107530 L641.294550 738.333352 L636.443313 769.498635 L642.937260 767.139773 Z" fill="#888" fill-opacity="0.18" stroke="#000" stroke-width="1"/>
  <path d="M936.599313 886.834264 L901.118218 892.478894 L902.740554 885.762972 L872.307729 894.048655 L874.903467 883.303181 L841.550437 903.677522 L848.688716 874.127468 L827.197767 868.935993 L831.091374 852.817781 L852.582322 858.009257 L859.720601 828.459202 L880.094942 861.812232 L882.690680 851.066758 L905.985226 872.331130 L907.607563 865.615208 Z" fill="#888" fill-opacity="0.18" stroke="#000" stroke-width="1"/>
</svg>
