<?xml version="1.0" encoding="UTF-8"?>
<svg xmlns="http://www.w3.org/2000/svg" width="1100" height="1100" viewBox="0 0 1100 1100">
  <rect x="0" y="0" width="1100" height="1100" fill="white"/>
  <text x="10.0" y="18.0" font-family="monospace" font-size="12">prefix=N122_job5048523_task122 run_id=122 L=9.309429479 feas=0.000e+00 N=122</text>
  <rect x="40.000000" y="40.000000" width="1020.000000" height="1020.000000" fill="none" stroke="#000" stroke-width="2"/>
  <path d="M461.383109 990.819253 L496.809689 987.218928 L494.828491 993.773967 L525.407280 987.277676 L522.237363 997.765737 L556.382309 979.470377 L547.665036 1008.312545 L568.641159 1014.652380 L563.886283 1030.384471 L542.910161 1024.044637 L534.192888 1052.886805 L515.897528 1018.741859 L512.727611 1029.229920 L490.866095 1006.884043 L488.884896 1013.439081 Z" fill="#888" fill-opacity="0.18" stroke="#000" stroke-width="1"/>
  <path d="M1058.986594 765.588161 L1049.912762 800.021727 L1044.471436 795.864126 L1039.811951 826.776152 L1031.105829 820.123990 L1036.240730 858.519697 L1012.298896 840.226254 L998.994573 857.638497 L985.935391 847.660255 L999.239713 830.248012 L975.297879 811.954569 L1013.693586 806.819668 L1004.987464 800.167507 L1033.588785 787.548924 L1028.147459 783.391324 Z" fill="#888" fill-opacity="0.18" stroke="#000" stroke-width="1"/>
  <path d="M374.921026 1016.575828 L371.478935 981.133524 L378.025061 983.143974 L371.665385 952.536480 L382.139186 955.753200 L363.996483 921.526897 L392.799437 930.372877 L399.232877 909.425275 L414.943579 914.250355 L408.510139 935.197958 L437.313092 944.043938 L403.086789 962.186641 L413.560590 965.403361 L391.117313 987.164874 L397.663438 989.175324 Z" fill="#888" fill-opacity="0.18" stroke="#000" stroke-width="1"/>
  <path d="M775.770744 229.567022 L779.695203 194.174883 L785.687561 197.489294 L785.762019 166.228158 L795.349791 171.531217 L784.638006 134.304141 L811.004379 148.887550 L821.610496 129.712006 L835.992154 137.666593 L825.386038 156.842138 L851.752411 171.425547 L814.525336 182.137333 L824.113108 187.440391 L797.672276 204.118116 L803.664634 207.432528 Z" fill="#888" fill-opacity="0.18" stroke="#000" stroke-width="1"/>
  <path d="M807.182495 1029.667656 L772.816211 1038.993074 L773.702697 1032.202800 L744.591334 1043.595461 L746.009711 1032.731023 L715.302675 1056.346176 L719.203210 1026.468972 L697.474335 1023.632219 L699.601900 1007.335562 L721.330775 1010.172315 L725.231311 980.295111 L748.846464 1011.002147 L750.264841 1000.137709 L775.475667 1018.622253 L776.362153 1011.831979 Z" fill="#888" fill-opacity="0.18" stroke="#000" stroke-width="1"/>
  <path d="M539.498379 41.269210 L566.080603 64.962885 L559.908484 67.929133 L585.352134 86.091864 L575.476744 90.837859 L612.030208 103.661346 L584.872885 116.712833 L594.364876 136.463613 L579.551791 143.582607 L570.059800 123.831827 L542.902478 136.883314 L555.725964 100.329850 L545.850574 105.075846 L547.564247 73.861627 L541.392128 76.827874 Z" fill="#888" fill-opacity="0.18" stroke="#000" stroke-width="1"/>
  <path d="M638.484518 328.210624 L606.641214 312.272967 L611.825658 307.799130 L582.524535 296.903795 L590.819645 289.745657 L552.186523 286.903228 L574.998076 267.218346 L560.681799 250.628126 L573.124464 239.890918 L587.440741 256.481138 L610.252294 236.796257 L607.409865 275.429379 L615.704976 268.271241 L622.194546 298.851457 L627.378989 294.377620 Z" fill="#888" fill-opacity="0.18" stroke="#000" stroke-width="1"/>
  <path d="M465.551809 950.918639 L463.290770 915.381439 L469.766386 917.608562 L464.428525 886.806430 L474.789510 890.369827 L457.795542 855.558872 L486.288249 865.358215 L493.415044 844.636246 L508.956521 849.981342 L501.829726 870.703311 L530.322434 880.502654 L495.511479 897.496622 L505.872463 901.060019 L482.717616 922.062809 L489.193232 924.289932 Z" fill="#888" fill-opacity="0.18" stroke="#000" stroke-width="1"/>
  <path d="M713.778960 86.454344 L680.439952 98.964957 L680.685036 92.121448 L652.771817 106.196829 L653.163952 95.247216 L624.809582 121.640912 L625.887953 91.529476 L603.988726 90.745206 L604.576928 74.320786 L626.476155 75.105056 L627.554526 44.993619 L653.948222 73.347989 L654.340357 62.398376 L681.175205 78.434432 L681.420289 71.590923 Z" fill="#888" fill-opacity="0.18" stroke="#000" stroke-width="1"/>
  <path d="M375.096339 723.428977 L339.642370 720.109193 L342.854016 714.061135 L311.596164 714.520279 L316.734797 704.843386 L279.695982 716.189034 L293.827224 689.577580 L274.473439 679.300313 L282.181389 664.784974 L301.535174 675.062241 L315.666416 648.450787 L327.012064 685.489601 L332.150697 675.812709 L349.277308 701.965019 L352.488954 695.916962 Z" fill="#888" fill-opacity="0.18" stroke="#000" stroke-width="1"/>
  <path d="M955.563272 664.735577 L920.089509 667.836711 L922.162811 661.310220 L891.495581 667.375293 L894.812864 656.932907 L860.413690 674.745666 L869.536218 646.029103 L848.651445 639.394537 L853.627370 623.730957 L874.512143 630.365523 L883.634671 601.648960 L901.447430 636.048134 L904.764713 625.605748 L926.309415 648.257237 L928.382717 641.730745 Z" fill="#888" fill-opacity="0.18" stroke="#000" stroke-width="1"/>
  <path d="M686.370663 311.942698 L658.051818 290.354555 L663.978622 286.924297 L637.218623 270.763649 L646.701509 265.275236 L609.273262 255.289052 L635.351200 240.195918 L624.374375 221.230145 L638.598704 212.997527 L649.575529 231.963299 L675.653466 216.870165 L665.667281 254.298412 L675.150168 248.809999 L675.832230 280.063782 L681.759034 276.633524 Z" fill="#888" fill-opacity="0.18" stroke="#000" stroke-width="1"/>
  <path d="M888.470344 840.994811 L903.173227 873.426742 L896.328588 873.637909 L912.231465 900.551896 L901.280043 900.889764 L929.503269 927.423648 L899.386858 928.352786 L900.062595 950.255631 L883.635462 950.762433 L882.959725 928.859589 L852.843314 929.788727 L879.377198 901.565501 L868.425776 901.903369 L882.639311 874.060245 L875.794672 874.271413 Z" fill="#888" fill-opacity="0.18" stroke="#000" stroke-width="1"/>
  <path d="M694.767137 317.547525 L713.215165 287.089765 L717.257369 292.617356 L730.474883 264.287840 L736.942410 273.131985 L742.883957 234.852807 L760.669654 259.174206 L778.357945 246.239154 L788.059234 259.505371 L770.370944 272.440424 L788.156641 296.761823 L749.877462 290.820276 L756.344988 299.664421 L725.341777 303.672537 L729.383981 309.200128 Z" fill="#888" fill-opacity="0.18" stroke="#000" stroke-width="1"/>
  <path d="M501.685693 651.033850 L510.712456 616.587914 L516.159459 620.738075 L520.776693 589.819710 L529.491898 596.459966 L524.304527 558.071313 L548.271340 576.332018 L561.551853 558.901608 L574.624661 568.861993 L561.344148 586.292403 L585.310961 604.553108 L546.922308 609.740479 L555.637513 616.380735 L527.053465 629.038395 L532.500468 633.188555 Z" fill="#888" fill-opacity="0.18" stroke="#000" stroke-width="1"/>
  <path d="M123.930379 550.712681 L158.505452 542.193923 L157.460330 548.961596 L186.830289 538.253206 L185.158093 549.081482 L216.409273 526.191281 L211.810735 555.969040 L233.467287 559.313432 L230.958993 575.555846 L209.302441 572.211454 L204.703902 601.989214 L181.813702 570.738034 L180.141506 581.566310 L155.370085 562.496941 L154.324963 569.264613 Z" fill="#888" fill-opacity="0.18" stroke="#000" stroke-width="1"/>
  <path d="M238.412101 162.580924 L226.926376 128.875094 L233.759195 129.329242 L220.543587 100.998838 L231.476098 101.725475 L205.961415 72.577603 L236.025821 74.575857 L237.479097 52.710835 L253.877863 53.800792 L252.424587 75.665814 L282.488993 77.664068 L253.341120 103.178751 L264.273631 103.905389 L247.424834 130.237540 L254.257653 130.691689 Z" fill="#888" fill-opacity="0.18" stroke="#000" stroke-width="1"/>
  <path d="M431.940122 520.621722 L466.659209 528.533103 L462.686842 534.111093 L493.738009 537.728983 L487.382222 546.653767 L525.583650 540.231275 L508.105235 564.774431 L525.954804 577.486006 L516.421123 590.873182 L498.571555 578.161607 L481.093140 602.704764 L474.670648 564.503335 L468.314861 573.428120 L454.742108 545.267074 L450.769741 550.845064 Z" fill="#888" fill-opacity="0.18" stroke="#000" stroke-width="1"/>
  <path d="M937.574839 240.272218 L941.228260 275.693362 L934.670260 273.721991 L941.212378 304.291008 L930.719577 301.136815 L949.066096 335.254300 L920.210894 326.580269 L913.902508 347.565870 L898.163307 342.834580 L904.471693 321.848979 L875.616491 313.174948 L909.733976 294.828429 L899.241175 291.674236 L921.554259 269.779249 L914.996259 267.807879 Z" fill="#888" fill-opacity="0.18" stroke="#000" stroke-width="1"/>
  <path d="M952.792120 495.569584 L982.126913 515.755590 L976.373865 519.469902 L1003.887818 534.310606 L994.682942 540.253506 L1032.552381 548.408449 L1007.238971 564.751421 L1019.124769 583.161174 L1005.317455 592.075523 L993.431656 573.665770 L968.118246 590.008743 L976.273189 552.139304 L967.068313 558.082203 L964.867770 526.898526 L959.114722 530.612838 Z" fill="#888" fill-opacity="0.18" stroke="#000" stroke-width="1"/>
  <path d="M929.677585 454.644806 L917.684026 421.116319 L924.522926 421.467202 L910.880879 393.339659 L921.823119 393.901072 L895.871053 365.141938 L925.962213 366.685826 L927.085040 344.801346 L943.498400 345.643466 L942.375573 367.527946 L972.466733 369.071833 L943.707599 395.023899 L954.649839 395.585313 L938.200726 422.168969 L945.039626 422.519853 Z" fill="#888" fill-opacity="0.18" stroke="#000" stroke-width="1"/>
  <path d="M928.109312 983.857448 L898.812568 1004.098635 L897.386377 997.400901 L873.733059 1017.840682 L871.451153 1007.124307 L850.364979 1039.620011 L844.089737 1010.149978 L822.656986 1014.713791 L819.234127 998.639227 L840.666878 994.075415 L834.391636 964.605382 L866.887341 985.691556 L864.605434 974.975180 L894.533994 984.005431 L893.107803 977.307696 Z" fill="#888" fill-opacity="0.18" stroke="#000" stroke-width="1"/>
  <path d="M131.768089 68.154730 L126.391748 103.355580 L120.540734 99.797587 L119.180990 131.029225 L109.819369 125.336435 L118.991448 162.972462 L93.246990 147.317291 L81.861411 166.040533 L67.818980 157.501349 L79.204558 138.778107 L53.460100 123.122936 L91.096127 113.950857 L81.734506 108.258067 L108.838708 92.681600 L102.987695 89.123607 Z" fill="#888" fill-opacity="0.18" stroke="#000" stroke-width="1"/>
  <path d="M823.129593 528.005343 L831.996684 562.492726 L825.218813 561.515924 L836.222920 590.776371 L825.378327 589.213488 L848.582600 620.232179 L818.759970 615.934249 L815.634203 637.623435 L799.367313 635.279110 L802.493080 613.589924 L772.670450 609.291994 L803.689141 586.087721 L792.844548 584.524837 L811.663072 559.562320 L804.885202 558.585517 Z" fill="#888" fill-opacity="0.18" stroke="#000" stroke-width="1"/>
  <path d="M606.982056 367.497837 L574.852873 382.851029 L574.503873 376.012033 L547.915687 392.453824 L547.357287 381.511430 L521.397301 410.263415 L519.861702 380.171831 L497.976913 381.288631 L497.139314 364.875040 L519.024102 363.758240 L517.488502 333.666656 L546.240487 359.626642 L545.682088 348.684248 L573.805873 362.334040 L573.456873 355.495044 Z" fill="#888" fill-opacity="0.18" stroke="#000" stroke-width="1"/>
  <path d="M550.888047 742.820850 L538.737596 709.348900 L545.578064 709.667751 L531.804438 681.604406 L542.749187 682.114567 L516.662718 653.477290 L546.760779 654.880235 L547.781102 632.990736 L564.198226 633.755979 L563.177902 655.645477 L593.275963 657.048422 L564.638686 683.134891 L575.583435 683.645052 L559.259000 710.305453 L566.099469 710.624304 Z" fill="#888" fill-opacity="0.18" stroke="#000" stroke-width="1"/>
  <path d="M407.051074 502.552932 L436.299562 482.242077 L437.741689 488.936398 L461.346295 468.440380 L463.653699 479.151295 L484.662474 446.605498 L491.007836 476.060513 L512.429665 471.445705 L515.890771 487.512076 L494.468942 492.126885 L500.814303 521.581899 L468.268507 500.573124 L470.575911 511.284038 L440.625944 502.325041 L442.068072 509.019363 Z" fill="#888" fill-opacity="0.18" stroke="#000" stroke-width="1"/>
  <path d="M40.889194 563.337068 L76.471921 564.706173 L73.597026 570.921369 L104.782576 568.747519 L100.182744 578.691831 L136.543105 565.330630 L123.893567 592.677489 L143.782192 601.877153 L136.882444 616.793621 L116.993819 607.593958 L104.344281 634.940817 L90.983080 598.580456 L86.383248 608.524768 L67.847236 583.351759 L64.972341 589.566954 Z" fill="#888" fill-opacity="0.18" stroke="#000" stroke-width="1"/>
  <path d="M862.043961 67.626123 L878.096084 99.411879 L871.266355 99.910351 L888.285646 126.132629 L877.358080 126.930184 L906.670883 152.255212 L876.620075 154.448488 L878.215185 176.303621 L861.823836 177.499954 L860.228726 155.644821 L830.177918 157.838097 L855.502947 128.525293 L844.575381 129.322848 L857.606897 100.907294 L850.777168 101.405766 Z" fill="#888" fill-opacity="0.18" stroke="#000" stroke-width="1"/>
  <path d="M315.858270 51.779912 L351.426230 53.490213 L348.491860 59.677551 L379.696824 57.802888 L375.001832 67.702628 L411.488662 54.690758 L398.577434 81.915043 L418.376914 91.305027 L411.334426 106.154637 L391.534946 96.764653 L378.623718 123.988938 L365.611848 87.502108 L360.916856 97.401848 L342.623120 72.052226 L339.688750 78.239563 Z" fill="#888" fill-opacity="0.18" stroke="#000" stroke-width="1"/>
  <path d="M680.325801 612.330792 L644.737285 611.121467 L647.584245 604.893426 L616.408770 607.207278 L620.963906 597.242413 L584.663904 610.766738 L597.190526 583.363358 L577.260795 574.253087 L584.093498 559.305789 L604.023229 568.416060 L616.549851 541.012680 L630.074176 577.312682 L634.629312 567.347816 L653.278164 592.437345 L656.125124 586.209304 Z" fill="#888" fill-opacity="0.18" stroke="#000" stroke-width="1"/>
  <path d="M625.158163 431.560537 L618.330526 466.508903 L612.631677 462.711958 L609.981365 493.860633 L600.863206 487.785521 L608.470823 525.768698 L583.395887 509.062140 L571.245663 527.298457 L557.568425 518.185789 L569.718649 499.949472 L544.643713 483.242914 L582.626889 475.635297 L573.508731 469.560186 L601.233978 455.118068 L595.535129 451.321123 Z" fill="#888" fill-opacity="0.18" stroke="#000" stroke-width="1"/>
  <path d="M698.270180 544.903335 L672.452366 520.378952 L678.715409 517.609842 L653.860274 498.649715 L663.881142 494.219138 L627.752531 480.243409 L655.309918 468.059324 L646.448765 448.017588 L661.480067 441.371724 L670.341220 461.413460 L697.898607 449.229374 L683.922878 485.357985 L693.943746 480.927409 L691.241493 512.071621 L697.504536 509.302511 Z" fill="#888" fill-opacity="0.18" stroke="#000" stroke-width="1"/>
  <path d="M50.578446 466.591435 L80.691933 485.596244 L75.090969 489.536153 L103.172723 503.272210 L94.211181 509.576063 L132.374669 516.220285 L107.730428 533.555881 L120.338135 551.478965 L106.895822 560.934745 L94.288115 543.011661 L69.643875 560.347258 L76.288097 522.183769 L67.326555 528.487623 L63.889042 497.415969 L58.288078 501.355878 Z" fill="#888" fill-opacity="0.18" stroke="#000" stroke-width="1"/>
  <path d="M322.090313 650.747821 L357.319052 645.557363 L355.634760 652.194895 L385.890332 644.329496 L383.195463 654.949547 L416.482762 635.136591 L409.071874 664.341731 L430.311976 669.731468 L426.269673 685.661545 L405.029571 680.271808 L397.618682 709.476948 L377.805726 676.189649 L375.110857 686.809700 L352.266174 665.469959 L350.581881 672.107491 Z" fill="#888" fill-opacity="0.18" stroke="#000" stroke-width="1"/>
  <path d="M843.707814 942.323284 L808.738830 949.044523 L810.132174 942.339878 L780.248237 951.516721 L782.477588 940.789288 L750.085631 962.034493 L756.216345 932.534054 L734.761481 928.075354 L738.105507 911.984206 L759.560371 916.442906 L765.691084 886.942468 L786.936288 919.334424 L789.165639 908.606992 L812.918862 928.930588 L814.312206 922.225942 Z" fill="#888" fill-opacity="0.18" stroke="#000" stroke-width="1"/>
  <path d="M411.318479 706.977944 L398.613914 740.243526 L393.648468 735.527805 L385.709568 765.764174 L377.764855 758.219022 L378.763758 796.943687 L356.915795 776.194518 L341.825490 792.083945 L329.908420 780.766217 L344.998724 764.876789 L323.150762 744.127620 L361.875427 743.128717 L353.930713 735.583564 L383.717576 726.096365 L378.752130 721.380644 Z" fill="#888" fill-opacity="0.18" stroke="#000" stroke-width="1"/>
  <path d="M560.285679 780.281998 L595.249927 773.536165 L593.861299 780.241789 L623.738775 771.043929 L621.516970 781.772927 L653.893975 760.504945 L647.784012 790.009688 L669.242007 794.453298 L665.909299 810.546794 L644.451305 806.103184 L638.341341 835.607927 L617.073360 803.230922 L614.851555 813.959919 L591.084043 793.653036 L589.695415 800.358659 Z" fill="#888" fill-opacity="0.18" stroke="#000" stroke-width="1"/>
  <path d="M906.823538 441.413135 L877.911464 420.626195 L883.739920 417.031370 L856.538015 401.626160 L865.863545 395.874439 L828.170419 386.939915 L853.815627 371.122684 L842.312186 352.471624 L856.300481 343.844043 L867.803922 362.495103 L893.449130 346.677872 L884.514606 384.370998 L893.840136 378.619278 L895.396833 409.841719 L901.225289 406.246894 Z" fill="#888" fill-opacity="0.18" stroke="#000" stroke-width="1"/>
  <path d="M48.574709 1014.042813 L81.548079 1000.598046 L81.495866 1007.445743 L109.001522 992.589666 L108.917980 1003.545980 L136.517621 976.364050 L136.287880 1006.493914 L158.200508 1006.660999 L158.075195 1023.095470 L136.162566 1022.928386 L135.932825 1053.058250 L108.750895 1025.458609 L108.667353 1036.414923 L81.391438 1021.141136 L81.339224 1027.988832 Z" fill="#888" fill-opacity="0.18" stroke="#000" stroke-width="1"/>
  <path d="M826.925469 879.885302 L795.694839 862.778209 L801.041558 858.499628 L772.164449 846.525628 L780.719201 839.679897 L742.217995 835.407344 L765.743563 816.581585 L752.052102 799.472082 L764.884230 789.203486 L778.575690 806.312990 L802.101258 787.487231 L797.828704 825.988437 L806.383456 819.142706 L811.734998 849.942465 L817.081718 845.663883 Z" fill="#888" fill-opacity="0.18" stroke="#000" stroke-width="1"/>
  <path d="M616.874960 656.845316 L650.697785 645.708827 L650.172989 652.536584 L678.638568 639.614705 L677.798893 650.539116 L707.209107 625.327276 L704.900001 655.369405 L726.748823 657.048754 L725.489311 673.435370 L703.640489 671.756021 L701.331384 701.798150 L676.119544 672.387937 L675.279870 683.312348 L649.123396 666.192097 L648.598599 673.019854 Z" fill="#888" fill-opacity="0.18" stroke="#000" stroke-width="1"/>
  <path d="M868.915355 302.427158 L835.185973 291.010780 L839.707326 285.867723 L809.188120 279.097038 L816.422284 270.868146 L777.764643 273.354965 L797.658595 250.725512 L781.200811 236.257183 L792.052057 223.913845 L808.509842 238.382174 L828.403794 215.752720 L830.890613 254.410362 L838.124778 246.181470 L848.750032 275.581607 L853.271385 270.438550 Z" fill="#888" fill-opacity="0.18" stroke="#000" stroke-width="1"/>
  <path d="M1054.803551 762.585897 L1027.879212 739.281716 L1034.007494 736.225930 L1008.302128 718.435531 L1018.107379 713.546273 L981.371105 701.256290 L1008.335546 687.810830 L998.557030 668.200327 L1013.264907 660.866440 L1023.043423 680.476942 L1050.007865 667.031482 L1037.717882 703.767756 L1047.523133 698.878498 L1046.264058 730.114357 L1052.392340 727.058570 Z" fill="#888" fill-opacity="0.18" stroke="#000" stroke-width="1"/>
  <path d="M303.868403 296.418842 L319.242059 264.299446 L323.806623 269.404193 L334.183570 239.915498 L341.486871 248.083093 L343.647604 209.405855 L363.731682 231.866739 L380.066870 217.260137 L391.021822 229.511529 L374.686633 244.118130 L394.770710 266.579015 L356.093472 264.418281 L363.396773 272.585876 L332.935749 279.613686 L337.500312 284.718432 Z" fill="#888" fill-opacity="0.18" stroke="#000" stroke-width="1"/>
  <path d="M582.710109 854.135071 L548.898016 842.966038 L553.381579 837.790003 L522.813602 831.243028 L529.987303 822.961372 L491.348912 825.731259 L511.076589 802.956706 L494.513278 788.609305 L505.273829 776.186821 L521.837140 790.534223 L541.564817 767.759670 L544.334704 806.398061 L551.508405 798.116406 L562.348705 827.437934 L566.832268 822.261899 Z" fill="#888" fill-opacity="0.18" stroke="#000" stroke-width="1"/>
  <path d="M173.931371 611.385176 L209.404990 614.487958 L206.230411 620.555554 L237.484869 619.905155 L232.405544 629.613309 L269.374242 618.041236 L255.406098 644.738660 L274.822407 654.897311 L267.203419 669.459542 L247.787110 659.300892 L233.818967 685.998316 L222.246894 649.029618 L217.167569 658.737772 L199.881255 632.690747 L196.706677 638.758344 Z" fill="#888" fill-opacity="0.18" stroke="#000" stroke-width="1"/>
  <path d="M373.215669 568.393735 L351.499109 540.173247 L358.114918 538.405550 L336.489354 515.831248 L347.074647 513.002934 L313.540628 493.610486 L342.650185 485.832622 L336.993557 464.662034 L352.871497 460.419563 L358.528126 481.590150 L387.637683 473.812286 L368.245234 507.346306 L378.830528 504.517991 L371.346535 534.870157 L377.962343 533.102461 Z" fill="#888" fill-opacity="0.18" stroke="#000" stroke-width="1"/>
  <path d="M652.729499 121.928876 L644.834327 156.651652 L639.254483 152.681890 L635.651090 183.734743 L626.723340 177.383123 L633.163666 215.581549 L608.612353 198.114594 L595.909113 215.970095 L582.517488 206.442665 L595.220727 188.587164 L570.669414 171.120210 L608.867839 164.679883 L599.940089 158.328264 L628.094795 144.742365 L622.514951 140.772603 Z" fill="#888" fill-opacity="0.18" stroke="#000" stroke-width="1"/>
  <path d="M962.641725 388.447179 L985.260703 415.949665 L978.705603 417.930661 L1001.050805 439.792868 L990.562646 442.962461 L1024.707026 461.258877 L995.864588 469.975258 L1002.203774 490.951576 L986.471536 495.705965 L980.132350 474.729647 L951.289912 483.446028 L969.586327 449.301647 L959.098168 452.471240 L965.595404 421.892652 L959.040305 423.873648 Z" fill="#888" fill-opacity="0.18" stroke="#000" stroke-width="1"/>
  <path d="M707.164316 939.895549 L676.833491 958.551539 L675.765181 951.787488 L651.059258 970.941639 L649.349963 960.119157 L626.566998 991.448601 L621.866435 961.686776 L600.221471 965.105367 L597.657528 948.871645 L619.302491 945.453054 L614.601928 915.691229 L645.931371 938.474194 L644.222076 927.651712 L673.628561 938.259385 L672.560252 931.495334 Z" fill="#888" fill-opacity="0.18" stroke="#000" stroke-width="1"/>
  <path d="M68.284328 738.201466 L101.922648 726.519501 L101.508328 733.354851 L129.761233 719.974360 L129.098321 730.910920 L158.097001 705.226799 L156.273994 735.302339 L178.147114 736.628163 L177.152746 753.033003 L155.279626 751.707180 L153.456619 781.782720 L127.772497 752.784040 L127.109586 763.720601 L100.679689 747.025551 L100.265369 753.860901 Z" fill="#888" fill-opacity="0.18" stroke="#000" stroke-width="1"/>
  <path d="M934.811767 929.677215 L958.946047 955.860061 L952.513125 958.207652 L976.055917 978.774642 L965.763241 982.530787 L1000.885293 998.872114 L972.580434 1009.201513 L980.092724 1029.786864 L964.653711 1035.421082 L957.141421 1014.835730 L928.836562 1025.165129 L945.177889 990.043077 L934.885213 993.799222 L939.647280 962.902833 L933.214358 965.250424 Z" fill="#888" fill-opacity="0.18" stroke="#000" stroke-width="1"/>
  <path d="M1033.278072 50.621133 L1042.229730 85.086662 L1035.449484 84.126488 L1046.525330 113.359856 L1035.676936 111.823578 L1058.957226 142.785258 L1029.124142 138.560493 L1026.051586 160.257281 L1009.778995 157.952863 L1012.851551 136.256076 L983.018468 132.031311 L1013.980148 108.751021 L1003.131754 107.214743 L1021.888992 82.206141 L1015.108745 81.245967 Z" fill="#888" fill-opacity="0.18" stroke="#000" stroke-width="1"/>
  <path d="M743.353733 305.705046 L778.680178 301.227634 L776.862082 307.829770 L807.270437 300.577455 L804.361483 311.140873 L838.042411 292.004713 L830.042789 321.054111 L851.169624 326.872018 L846.806193 342.717145 L825.679358 336.899238 L817.679736 365.948636 L798.543576 332.267708 L795.634622 342.831126 L773.225890 321.034042 L771.407794 327.636178 Z" fill="#888" fill-opacity="0.18" stroke="#000" stroke-width="1"/>
  <path d="M797.794649 444.148441 L769.197780 422.929959 L775.079527 419.423006 L748.111871 403.611312 L757.522668 398.000187 L719.967866 388.501008 L745.847555 373.070416 L734.625306 354.248824 L748.741500 345.832137 L759.963749 364.653729 L785.843439 349.223137 L776.344260 386.777938 L785.755056 381.166814 L786.843022 412.409100 L792.724770 408.902147 Z" fill="#888" fill-opacity="0.18" stroke="#000" stroke-width="1"/>
  <path d="M627.083850 415.010362 L649.090608 387.015586 L652.432377 392.992731 L668.989065 366.475940 L674.335894 376.039371 L684.877400 338.763720 L699.581180 365.063156 L718.708043 354.369498 L726.728286 368.714646 L707.601424 379.408304 L722.305204 405.707740 L685.029552 395.166234 L690.376381 404.729666 L659.115913 404.947020 L662.457681 410.924165 Z" fill="#888" fill-opacity="0.18" stroke="#000" stroke-width="1"/>
  <path d="M448.488110 609.897246 L472.530618 636.164387 L466.089520 638.489452 L489.560196 659.138701 L479.254439 662.858805 L514.319092 679.322938 L485.978260 689.553224 L493.418468 710.164738 L477.959833 715.744894 L470.519625 695.133380 L442.178793 705.363666 L458.642925 670.299013 L448.337168 674.019118 L453.207324 643.139582 L446.766226 645.464647 Z" fill="#888" fill-opacity="0.18" stroke="#000" stroke-width="1"/>
  <path d="M168.825356 1032.687231 L198.749855 1013.386214 L199.962721 1020.125845 L224.252942 1000.447194 L226.193527 1011.230604 L248.300589 979.420617 L253.637198 1009.074994 L275.204018 1005.193825 L278.114895 1021.368940 L256.548075 1025.250109 L261.884684 1054.904487 L230.074696 1032.797424 L232.015281 1043.580834 L202.388452 1033.605108 L203.601318 1040.344739 Z" fill="#888" fill-opacity="0.18" stroke="#000" stroke-width="1"/>
  <path d="M680.798242 836.667035 L707.069706 860.704820 L700.859488 863.590451 L726.064490 882.082935 L716.128142 886.699944 L752.511537 899.998293 L725.186577 912.695069 L734.420596 932.567766 L719.516073 939.493280 L710.282054 919.620582 L682.957095 932.317358 L696.255444 895.933963 L686.319095 900.550972 L688.439052 869.361712 L682.228834 872.247343 Z" fill="#888" fill-opacity="0.18" stroke="#000" stroke-width="1"/>
  <path d="M170.094275 769.669816 L204.698194 778.070634 L200.647463 783.591979 L231.644451 787.647943 L225.163282 796.482095 L263.451586 790.599638 L245.628370 814.893556 L263.296675 827.855895 L253.574921 841.107123 L235.906616 828.144785 L218.083401 852.438703 L212.200943 814.150400 L205.719774 822.984552 L192.546001 794.634669 L188.495270 800.156015 Z" fill="#888" fill-opacity="0.18" stroke="#000" stroke-width="1"/>
  <path d="M208.893137 768.856048 L241.423097 754.371346 L241.588284 761.217248 L268.608484 745.495515 L268.872783 756.448959 L295.595646 728.404600 L296.322469 758.526573 L318.229358 757.997975 L318.625807 774.428141 L296.718917 774.956739 L297.445740 805.078712 L269.401381 778.355848 L269.665680 789.309293 L241.918657 774.909054 L242.083844 781.754957 Z" fill="#888" fill-opacity="0.18" stroke="#000" stroke-width="1"/>
  <path d="M679.170094 917.321320 L643.562588 917.653547 L646.137304 911.308115 L615.091200 914.969202 L619.210746 904.816510 L583.530153 919.899375 L594.858903 891.979473 L574.553520 883.740382 L580.732839 868.511344 L601.038222 876.750436 L612.366973 848.830534 L627.449837 884.511127 L631.569383 874.358436 L651.286736 898.617251 L653.861452 892.271819 Z" fill="#888" fill-opacity="0.18" stroke="#000" stroke-width="1"/>
  <path d="M69.453513 768.053910 L90.057883 797.096377 L83.378424 798.605846 L104.111110 822.002851 L93.423975 824.418001 L126.179688 845.097962 L96.790068 851.739626 L101.620369 873.113895 L85.589666 876.736621 L80.759366 855.362351 L51.369745 862.004015 L72.049706 829.248302 L61.362571 831.663452 L70.019505 801.624784 L63.340046 803.134253 Z" fill="#888" fill-opacity="0.18" stroke="#000" stroke-width="1"/>
  <path d="M258.489148 169.775647 L288.111102 150.013443 L289.428213 156.733479 L313.410716 136.680956 L315.518093 147.433015 L337.129797 115.284425 L342.925084 144.852586 L364.429201 140.637832 L367.590266 156.765920 L346.086149 160.980674 L351.881436 190.548835 L319.732847 168.937132 L321.840224 179.689190 L292.062434 170.173552 L293.379545 176.893589 Z" fill="#888" fill-opacity="0.18" stroke="#000" stroke-width="1"/>
  <path d="M54.287406 208.476911 L84.813110 190.141528 L85.810093 196.916460 L110.716456 178.023677 L112.311629 188.863567 L135.423421 157.775907 L139.810148 187.585606 L161.489929 184.395259 L163.882689 200.655095 L142.202909 203.845442 L146.589636 233.655140 L115.501976 210.543348 L117.097149 221.383238 L87.804060 210.466322 L88.801043 217.241254 Z" fill="#888" fill-opacity="0.18" stroke="#000" stroke-width="1"/>
  <path d="M556.009306 968.153039 L589.929020 978.990841 L585.496295 984.210479 L616.126843 990.458174 L609.034483 998.809595 L647.643935 995.661941 L628.139946 1018.628349 L644.842789 1032.813068 L634.204250 1045.340200 L617.501407 1031.155481 L597.997418 1054.121890 L594.849764 1015.512438 L587.757404 1023.863859 L576.630846 994.649756 L572.198121 999.869394 Z" fill="#888" fill-opacity="0.18" stroke="#000" stroke-width="1"/>
  <path d="M389.379553 927.579436 L377.825667 893.896909 L384.659391 894.337234 L371.386500 866.033621 L382.320459 866.738142 L356.746865 837.641944 L386.815251 839.579376 L388.224293 817.711459 L404.625231 818.768240 L403.216189 840.636157 L433.284575 842.573590 L404.188376 868.147184 L415.122335 868.851705 L398.326840 895.217885 L405.160564 895.658211 Z" fill="#888" fill-opacity="0.18" stroke="#000" stroke-width="1"/>
  <path d="M934.974337 190.460094 L908.749216 214.548429 L906.412908 208.111401 L885.804671 231.618096 L882.066578 221.318850 L865.663695 256.412196 L855.383940 228.089270 L834.785449 235.565456 L829.178310 220.116587 L849.776801 212.640401 L839.497046 184.317475 L874.590393 200.720358 L870.852300 190.421112 L901.740292 195.237344 L899.403984 188.800315 Z" fill="#888" fill-opacity="0.18" stroke="#000" stroke-width="1"/>
  <path d="M903.387091 873.904120 L908.065758 838.603766 L913.986038 842.045271 L914.727445 810.792840 L924.199892 816.299249 L914.284796 778.852108 L940.334026 793.994733 L951.346844 775.049837 L965.555515 783.309451 L954.542698 802.254346 L980.591928 817.396970 L943.144787 827.312067 L952.617235 832.818476 L925.826597 848.928283 L931.746877 852.369788 Z" fill="#888" fill-opacity="0.18" stroke="#000" stroke-width="1"/>
  <path d="M777.815083 601.709059 L742.206763 601.937936 L744.799885 595.600003 L713.743286 599.170964 L717.892282 589.030272 L682.168062 604.009512 L693.577801 576.122609 L673.296417 567.824617 L679.519911 552.613579 L699.801295 560.911571 L711.211034 533.024669 L726.190274 568.748889 L730.339270 558.608197 L749.986130 582.924138 L752.579253 576.586206 Z" fill="#888" fill-opacity="0.18" stroke="#000" stroke-width="1"/>
  <path d="M946.459440 241.739036 L979.989837 229.750819 L979.637864 236.589663 L1007.767581 222.952099 L1007.204424 233.894249 L1035.967693 207.946766 L1034.419011 238.037679 L1056.303312 239.163993 L1055.458576 255.577219 L1033.574275 254.450905 L1032.025593 284.541819 L1006.078110 255.778550 L1005.514953 266.720700 L978.933918 250.267351 L978.581945 257.106195 Z" fill="#888" fill-opacity="0.18" stroke="#000" stroke-width="1"/>
  <path d="M130.045302 134.654871 L140.753428 100.693997 L145.989964 105.106746 L152.120583 74.452552 L160.499041 81.512951 L157.203894 42.915807 L180.244654 62.331906 L194.365453 45.574989 L206.933140 56.165588 L192.812341 72.922505 L215.853101 92.338603 L177.255957 95.633750 L185.634416 102.694149 L156.463037 113.932246 L161.699573 118.344995 Z" fill="#888" fill-opacity="0.18" stroke="#000" stroke-width="1"/>
  <path d="M327.527523 513.442977 L351.249133 540.000276 L344.780262 542.246916 L367.998335 563.179790 L357.648142 566.774413 L392.510182 583.663337 L364.047152 593.548550 L371.236398 614.248936 L355.711109 619.640870 L348.521863 598.940485 L320.058834 608.825699 L336.947757 573.963659 L326.597565 577.558283 L331.842522 546.740194 L325.373651 548.986834 Z" fill="#888" fill-opacity="0.18" stroke="#000" stroke-width="1"/>
  <path d="M541.154179 858.938396 L552.967309 892.530878 L546.130394 892.143233 L559.621023 920.343712 L548.681960 919.723479 L574.479036 948.621721 L544.396611 946.916080 L543.156145 968.794207 L526.747549 967.863857 L527.988016 945.985730 L497.905591 944.280089 L526.803833 918.483013 L515.864769 917.862780 L532.456564 891.367941 L525.619650 890.980295 Z" fill="#888" fill-opacity="0.18" stroke="#000" stroke-width="1"/>
  <path d="M45.535590 370.013655 L77.476361 354.272243 L77.908212 361.106508 L104.295200 344.343722 L104.986161 355.278546 L130.595819 326.214084 L132.495961 356.284850 L154.365609 354.902928 L155.402050 371.305164 L133.532403 372.687086 L135.432545 402.757851 L106.368083 377.148194 L107.059044 388.083018 L78.771913 374.775037 L79.203763 381.609302 Z" fill="#888" fill-opacity="0.18" stroke="#000" stroke-width="1"/>
  <path d="M531.768121 260.377223 L523.883333 295.102359 L518.302302 291.134265 L514.708194 322.188194 L505.778545 315.839244 L512.230293 354.035742 L487.673758 336.576129 L474.975857 354.435428 L461.581384 344.912003 L474.279284 327.052704 L449.722749 309.593092 L487.919247 303.141344 L478.989598 296.792394 L507.140240 283.198077 L501.559210 279.229983 Z" fill="#888" fill-opacity="0.18" stroke="#000" stroke-width="1"/>
  <path d="M253.384212 964.247707 L288.080093 956.235172 L286.936174 962.986847 L316.459498 952.708841 L314.629227 963.511521 L346.211607 941.080499 L341.178360 970.787870 L362.783721 974.448414 L360.038314 990.652435 L338.432953 986.991891 L333.399706 1016.699263 L310.968683 985.116882 L309.138412 995.919563 L284.648334 976.490198 L283.504414 983.241873 Z" fill="#888" fill-opacity="0.18" stroke="#000" stroke-width="1"/>
  <path d="M217.548259 498.938425 L252.886743 503.319797 L249.495191 509.268834 L280.752756 509.747158 L275.326273 519.265618 L312.688631 509.035673 L297.765804 535.211439 L316.802725 546.064404 L308.663001 560.342095 L289.626080 549.489130 L274.703253 575.664896 L264.473308 538.302539 L259.046826 547.820999 L242.712088 521.166910 L239.320537 527.115948 Z" fill="#888" fill-opacity="0.18" stroke="#000" stroke-width="1"/>
  <path d="M63.860399 986.375312 L61.731075 950.829977 L68.198392 953.081083 L62.974720 922.259380 L73.322427 925.861150 L56.457584 890.987456 L84.913780 900.892324 L92.117320 880.196909 L107.638882 885.599564 L100.435341 906.294979 L128.891537 916.199847 L94.017843 933.064691 L104.365550 936.666461 L81.133027 957.583296 L87.600344 959.834402 Z" fill="#888" fill-opacity="0.18" stroke="#000" stroke-width="1"/>
  <path d="M574.666953 142.366052 L549.123265 167.175826 L546.608489 160.806401 L526.663296 184.878239 L522.639654 174.687159 L507.221057 210.223962 L496.156044 182.198492 L475.773884 190.245775 L469.738422 174.959155 L490.120582 166.911872 L479.055568 138.886402 L514.592372 154.304999 L510.568730 144.113919 L541.578937 148.067551 L539.064161 141.698126 Z" fill="#888" fill-opacity="0.18" stroke="#000" stroke-width="1"/>
  <path d="M948.735335 613.495509 L918.885934 594.078554 L924.540527 590.216009 L896.650243 576.095237 L905.697591 569.915165 L867.629041 562.746974 L892.509249 545.751776 L880.149105 527.657080 L893.720127 518.386972 L906.080271 536.481668 L930.960479 519.486471 L923.792288 557.555021 L932.839636 551.374949 L935.849712 582.490919 L941.504305 578.628374 Z" fill="#888" fill-opacity="0.18" stroke="#000" stroke-width="1"/>
  <path d="M127.585532 759.450126 L152.487022 784.904413 L146.126683 787.442082 L170.270106 807.300564 L160.093564 811.360835 L195.685596 826.651511 L167.700106 837.817257 L175.820648 858.170340 L160.555835 864.260747 L152.435293 843.907663 L124.449804 855.073408 L139.740481 819.481377 L129.563939 823.541648 L133.406006 792.517421 L127.045668 795.055090 Z" fill="#888" fill-opacity="0.18" stroke="#000" stroke-width="1"/>
  <path d="M918.756936 888.638926 L954.036821 883.808334 L952.284863 890.428328 L982.619145 882.872172 L979.816013 893.464162 L1013.303818 873.992016 L1005.595205 903.119989 L1026.779185 908.726253 L1022.574487 924.614238 L1001.390507 919.007974 L993.681894 948.135947 L974.209749 914.648142 L971.406617 925.240132 L948.780948 903.668316 L947.028991 910.288309 Z" fill="#888" fill-opacity="0.18" stroke="#000" stroke-width="1"/>
  <path d="M429.649835 380.215608 L422.530371 415.105694 L416.863452 411.261257 L413.952922 442.386695 L404.885852 436.235595 L412.175776 474.281022 L387.241333 457.365495 L374.939132 475.499636 L361.338526 466.272985 L373.640728 448.138844 L348.706285 431.223318 L386.751712 423.933394 L377.684641 417.782293 L405.529615 403.572381 L399.862696 399.727943 Z" fill="#888" fill-opacity="0.18" stroke="#000" stroke-width="1"/>
  <path d="M199.789552 241.587798 L228.992562 221.211609 L230.449651 227.902690 L254.008379 207.353956 L256.339722 218.059686 L277.275690 185.467006 L283.686881 214.907762 L305.098340 210.245078 L308.595353 226.303672 L287.183894 230.966357 L293.595086 260.407113 L261.002406 239.471145 L263.333748 250.176874 L233.363829 241.284852 L234.820918 247.975933 Z" fill="#888" fill-opacity="0.18" stroke="#000" stroke-width="1"/>
  <path d="M854.037621 918.920276 L839.693903 886.327905 L846.540456 886.192361 L830.935863 859.104342 L841.890349 858.887471 L813.961958 832.043431 L844.086795 831.447038 L843.653055 809.538066 L860.084784 809.212761 L860.518524 831.121733 L890.643361 830.525340 L863.799321 858.453731 L874.753807 858.236861 L860.233564 885.921273 L867.080118 885.785729 Z" fill="#888" fill-opacity="0.18" stroke="#000" stroke-width="1"/>
  <path d="M943.684627 130.597451 L977.331234 142.255529 L972.773098 147.366016 L1003.242942 154.355488 L995.949925 162.532266 L1034.624414 160.322863 L1014.568617 182.809003 L1030.922173 197.395038 L1019.982648 209.660205 L1003.629091 195.074171 L983.573294 217.560311 L981.363891 178.885823 L974.070874 187.062601 L963.656827 157.586988 L959.098691 162.697475 Z" fill="#888" fill-opacity="0.18" stroke="#000" stroke-width="1"/>
  <path d="M947.077841 481.657807 L918.773807 503.265366 L917.031639 496.642789 L894.374101 518.181129 L891.586633 507.585006 L872.064996 541.043984 L864.399458 511.904646 L843.207212 517.479583 L839.026010 501.585399 L860.218256 496.010462 L852.552718 466.871124 L886.011696 486.392760 L883.224228 475.796637 L913.547304 483.397635 L911.805136 476.775059 Z" fill="#888" fill-opacity="0.18" stroke="#000" stroke-width="1"/>
  <path d="M133.734377 434.263301 L166.765286 447.566080 L161.960731 452.445622 L192.048918 460.928849 L184.361631 468.736116 L223.098016 468.436168 L201.957975 489.906151 L217.572509 505.280726 L206.041577 516.991626 L190.427044 501.617051 L169.287003 523.087034 L168.987056 484.350649 L161.299768 492.157916 L152.351622 462.204705 L147.547067 467.084247 Z" fill="#888" fill-opacity="0.18" stroke="#000" stroke-width="1"/>
  <path d="M446.240860 163.706795 L465.973322 193.348571 L459.251967 194.658936 L479.280408 218.661554 L468.526240 220.758138 L500.653120 242.402099 L471.079157 248.167705 L475.272325 269.676041 L459.141072 272.820917 L454.947905 251.312580 L425.373942 257.078186 L447.017903 224.951305 L436.263735 227.047889 L445.809257 197.279665 L439.087901 198.590030 Z" fill="#888" fill-opacity="0.18" stroke="#000" stroke-width="1"/>
  <path d="M1041.253358 441.964713 L1019.649865 413.657576 L1026.272692 411.916360 L1004.737607 389.255728 L1015.334130 386.469781 L981.877957 366.943339 L1011.018395 359.281987 L1005.446503 338.088940 L1021.341288 333.910021 L1026.913180 355.103067 L1056.053619 347.441715 L1036.527177 380.897889 L1047.123700 378.111943 L1039.518346 408.433927 L1046.141173 406.692710 Z" fill="#888" fill-opacity="0.18" stroke="#000" stroke-width="1"/>
  <path d="M868.452117 682.263586 L834.067131 691.519810 L834.967283 684.731334 L805.833048 696.065374 L807.273290 685.203813 L776.518782 708.757109 L780.479449 678.887817 L758.756327 676.007332 L760.916690 659.714991 L782.639812 662.595476 L786.600479 632.726184 L810.153775 663.480692 L811.594017 652.619131 L836.767586 671.154383 L837.667737 664.365908 Z" fill="#888" fill-opacity="0.18" stroke="#000" stroke-width="1"/>
  <path d="M825.609254 506.939692 L818.903788 471.967680 L825.607804 473.364048 L816.444441 443.475975 L827.170867 445.710164 L805.940275 413.308628 L835.437945 419.452647 L839.906322 397.999797 L855.995960 401.351080 L851.527583 422.803931 L881.025253 428.947950 L848.623717 450.178541 L859.350143 452.412730 L839.015836 476.156784 L845.719852 477.553152 Z" fill="#888" fill-opacity="0.18" stroke="#000" stroke-width="1"/>
  <path d="M229.838913 377.140932 L235.622200 342.004647 L241.431653 345.630104 L243.152684 314.416290 L252.447807 320.217020 L243.711824 282.477384 L269.273415 298.429393 L280.874876 279.839146 L294.817562 288.540242 L283.216101 307.130489 L308.777691 323.082498 L271.038055 331.818481 L280.333179 337.619212 L253.050557 352.881017 L258.860010 356.506474 Z" fill="#888" fill-opacity="0.18" stroke="#000" stroke-width="1"/>
  <path d="M141.444617 374.371673 L176.875802 377.926397 L173.624136 383.953033 L204.884345 383.701097 L199.681679 393.343715 L236.794887 382.243834 L222.487557 408.761033 L241.772792 419.166363 L233.968794 433.630290 L214.683559 423.224959 L200.376229 449.742158 L189.276349 412.628950 L184.073683 422.271568 L167.120804 396.006305 L163.869138 402.032941 Z" fill="#888" fill-opacity="0.18" stroke="#000" stroke-width="1"/>
  <path d="M426.513247 230.837320 L406.948474 201.084596 L413.677121 199.812205 L393.784531 175.696878 L404.550367 173.661051 L372.546212 151.836029 L402.152260 146.237506 L398.080607 124.705835 L414.229360 121.652096 L418.301013 143.183767 L447.907060 137.585244 L426.082038 169.589399 L436.847873 167.553572 L427.134415 197.267422 L433.863063 195.995031 Z" fill="#888" fill-opacity="0.18" stroke="#000" stroke-width="1"/>
  <path d="M366.154221 912.224970 L337.136432 891.585860 L342.946465 887.961335 L315.666290 872.695158 L324.962343 866.895917 L287.224108 858.153885 L312.788255 842.205973 L301.189773 823.613867 L315.133853 814.915005 L326.732335 833.507112 L352.296482 817.559200 L343.554450 855.297435 L352.850504 849.498195 L354.566532 880.712284 L360.376565 877.087759 Z" fill="#888" fill-opacity="0.18" stroke="#000" stroke-width="1"/>
  <path d="M321.325646 315.612021 L349.481102 337.412829 L343.528632 340.798353 L370.166162 357.160080 L360.642210 362.576919 L397.994186 372.844702 L371.803318 387.741008 L382.636995 406.788912 L368.351067 414.914170 L357.517390 395.866266 L331.326522 410.762572 L341.594306 373.410596 L332.070354 378.827434 L331.623692 347.569401 L325.671222 350.954925 Z" fill="#888" fill-opacity="0.18" stroke="#000" stroke-width="1"/>
  <path d="M118.152093 675.786768 L152.496559 666.381315 L151.625895 673.173635 L180.710637 661.713186 L179.317575 672.580899 L209.969512 648.894273 L206.138591 678.780483 L227.874016 681.566608 L225.784422 697.868177 L204.048997 695.082052 L200.218076 724.968262 L176.531450 694.316324 L175.138387 705.184037 L149.884567 686.758276 L149.013903 693.550596 Z" fill="#888" fill-opacity="0.18" stroke="#000" stroke-width="1"/>
  <path d="M698.782896 51.167197 L734.272417 48.251923 L732.164957 54.767465 L762.863536 48.863115 L759.491599 59.287981 L793.983608 41.655656 L784.710782 70.324039 L805.560515 77.067913 L800.502610 92.705213 L779.652877 85.961339 L770.380052 114.629723 L752.747726 80.137715 L749.375790 90.562581 L727.950036 67.798548 L725.842575 74.314090 Z" fill="#888" fill-opacity="0.18" stroke="#000" stroke-width="1"/>
  <path d="M164.442332 376.370975 L159.853792 341.058793 L166.461616 342.856107 L159.113660 312.470721 L169.686178 315.346424 L150.444140 281.725873 L179.518564 289.634055 L185.269969 268.489019 L201.128746 272.802573 L195.377341 293.947609 L224.451765 301.855791 L190.831214 321.097829 L201.403732 323.973532 L179.677263 346.450736 L186.285087 348.248050 Z" fill="#888" fill-opacity="0.18" stroke="#000" stroke-width="1"/>
  <path d="M264.080813 933.179843 L242.366675 961.402194 L238.962866 955.460161 L222.683116 982.147871 L217.237021 972.640619 L207.084128 1010.023988 L192.107366 983.879044 L173.092861 994.771235 L164.923718 980.510356 L183.938223 969.618166 L168.961461 943.473222 L206.344830 953.626114 L200.898735 944.118862 L232.155247 943.576096 L228.751437 937.634063 Z" fill="#888" fill-opacity="0.18" stroke="#000" stroke-width="1"/>
  <path d="M659.088127 673.524639 L686.694042 696.017268 L680.659410 699.254070 L706.882810 716.271633 L697.227399 721.450516 L734.313136 732.641835 L707.760756 746.883765 L718.118523 766.194587 L703.635407 773.962913 L693.277639 754.652091 L666.725258 768.894021 L677.916577 731.808284 L668.261165 736.987168 L668.590146 705.727675 L662.555514 708.964477 Z" fill="#888" fill-opacity="0.18" stroke="#000" stroke-width="1"/>
  <path d="M411.955357 243.715636 L430.743207 273.964960 L423.983871 275.062705 L443.245392 299.685011 L432.430454 301.441404 L463.858780 324.087768 L434.117700 328.917847 L437.630485 350.547723 L421.408078 353.182312 L417.895293 331.552436 L388.154213 336.382515 L410.800577 304.954188 L399.985639 306.710581 L410.465198 277.258196 L403.705862 278.355941 Z" fill="#888" fill-opacity="0.18" stroke="#000" stroke-width="1"/>
  <path d="M506.544769 267.630402 L519.487248 234.456660 L524.418794 239.207821 L532.574035 209.029084 L540.464509 216.630941 L539.742968 177.900114 L561.441770 198.805221 L576.645484 183.024274 L588.481194 194.427060 L573.277480 210.208007 L594.976282 231.113113 L556.245456 231.834655 L564.135929 239.436511 L534.281886 248.710142 L539.213432 253.461303 Z" fill="#888" fill-opacity="0.18" stroke="#000" stroke-width="1"/>
  <path d="M1044.844153 661.484095 L1009.957284 654.348879 L1013.804281 648.683696 L982.680159 645.759113 L988.835353 636.694821 L950.786638 643.967566 L967.713421 619.040763 L949.584837 606.730375 L958.817628 593.133937 L976.946212 605.444325 L993.872995 580.517522 L1001.145741 618.566237 L1007.300935 609.501945 L1021.498273 637.353331 L1025.345269 631.688149 Z" fill="#888" fill-opacity="0.18" stroke="#000" stroke-width="1"/>
  <path d="M414.406684 514.272699 L433.505611 544.326582 L426.757959 545.494004 L446.272479 569.916282 L435.476237 571.784156 L467.136530 594.105075 L437.446864 599.241731 L441.182613 620.834215 L424.988250 623.636027 L421.252500 602.043543 L391.562834 607.180198 L413.883753 575.519906 L403.087511 577.387781 L413.262657 547.828848 L406.515005 548.996269 Z" fill="#888" fill-opacity="0.18" stroke="#000" stroke-width="1"/>
  <path d="M192.921118 946.481782 L194.792018 910.921908 L200.966041 913.884189 L199.232312 882.671078 L209.110749 887.410726 L196.263778 850.865510 L223.429481 863.899545 L232.908779 844.142669 L247.726435 851.252143 L238.247138 871.009018 L265.412841 884.043052 L228.867625 896.890024 L238.746062 901.629673 L213.314088 919.808750 L219.488112 922.771030 Z" fill="#888" fill-opacity="0.18" stroke="#000" stroke-width="1"/>
  <path d="M916.847630 746.039578 L951.696305 738.720101 L950.418056 745.447638 L980.140352 735.760054 L978.095153 746.524113 L1010.118297 724.726963 L1004.494000 754.328125 L1026.022118 758.418523 L1022.954319 774.564611 L1001.426202 770.474213 L995.801905 800.075375 L974.004755 768.052231 L971.959556 778.816289 L947.861557 758.902711 L946.583308 765.630248 Z" fill="#888" fill-opacity="0.18" stroke="#000" stroke-width="1"/>
  <path d="M520.590122 756.523443 L486.939967 768.171273 L487.361221 761.336347 L459.094756 774.688166 L459.768764 763.752284 L430.744040 789.406971 L432.597560 759.333295 L410.725796 757.985280 L411.736808 741.581457 L433.608572 742.929472 L435.462092 712.855796 L461.116779 741.880520 L461.790786 730.944638 L488.203731 747.666495 L488.624986 740.831568 Z" fill="#888" fill-opacity="0.18" stroke="#000" stroke-width="1"/>
  <path d="M741.761723 565.505893 L737.686180 530.130833 L744.267222 532.023862 L737.361047 501.535030 L747.890714 504.563877 L729.138663 470.667592 L758.095248 478.996921 L764.152941 457.937587 L779.947442 462.480857 L773.889748 483.540191 L802.846333 491.869520 L768.950048 510.621571 L779.479715 513.650418 L757.429306 535.809921 L764.010348 537.702950 Z" fill="#888" fill-opacity="0.18" stroke="#000" stroke-width="1"/>
  <path d="M631.772710 422.225566 L599.636021 437.563040 L599.290366 430.723874 L572.694141 447.152659 L572.141094 436.209992 L546.167047 464.949276 L544.646167 434.856945 L522.760835 435.963039 L521.931264 419.549040 L543.816596 418.442945 L542.295716 388.350614 L571.034999 414.324660 L570.481952 403.381994 L598.599057 417.045542 L598.253402 410.206375 Z" fill="#888" fill-opacity="0.18" stroke="#000" stroke-width="1"/>
  <path d="M850.044392 758.927694 L862.919608 725.727788 L867.860773 730.468944 L875.954832 700.273740 L883.860697 707.859589 L883.060657 669.130304 L904.801785 689.991389 L919.973483 674.179660 L931.832280 685.558433 L916.660582 701.370163 L938.401710 722.231247 L899.672426 723.031287 L907.578291 730.617136 L877.743104 739.951255 L882.684270 744.692411 Z" fill="#888" fill-opacity="0.18" stroke="#000" stroke-width="1"/>
  <path d="M126.086103 491.254228 L96.914833 470.832624 L102.697608 467.164766 L75.304070 452.102953 L84.556510 446.234380 L46.753977 437.774712 L72.198187 421.636136 L60.461041 403.131256 L74.339701 394.328396 L86.076848 412.833276 L111.521058 396.694700 L103.061391 434.497234 L112.313831 428.628660 L114.263159 459.829049 L120.045934 456.161191 Z" fill="#888" fill-opacity="0.18" stroke="#000" stroke-width="1"/>
  <path d="M196.495474 127.366833 L207.709673 161.163973 L200.880728 160.654871 L213.867998 189.090675 L202.941687 188.276111 L228.221057 217.628299 L198.173700 215.388250 L196.544573 237.240873 L180.155105 236.019028 L181.784232 214.166404 L151.736875 211.926355 L181.089063 186.646984 L170.162751 185.832421 L187.222839 159.636666 L180.393894 159.127564 Z" fill="#888" fill-opacity="0.18" stroke="#000" stroke-width="1"/>
  <path d="M151.503723 632.805686 L130.452076 661.525593 L126.910942 655.664360 L111.256508 682.723607 L105.590694 673.345635 L96.310300 710.955100 L80.729311 685.165678 L61.973368 696.497306 L53.474647 682.430349 L72.230590 671.098721 L56.649601 645.309299 L94.259065 654.589692 L88.593251 645.211721 L119.828674 643.941896 L116.287541 638.080664 Z" fill="#888" fill-opacity="0.18" stroke="#000" stroke-width="1"/>
  <path d="M710.203710 194.918406 L706.343753 159.519174 L712.913140 161.452261 L706.192836 130.921921 L716.703856 134.014860 L698.158655 100.004964 L727.063958 108.510546 L733.249836 87.488508 L749.016365 92.127916 L742.830487 113.149955 L771.735791 121.655537 L737.725894 140.200738 L748.236914 143.293677 L726.051915 165.318435 L732.621302 167.251522 Z" fill="#888" fill-opacity="0.18" stroke="#000" stroke-width="1"/>
  <path d="M41.698393 253.336995 L76.936187 248.208369 L75.240248 254.842935 L105.509577 247.030645 L102.796075 257.645951 L136.118093 237.891443 L128.655962 267.083532 L149.886573 272.510537 L145.816320 288.433495 L124.585709 283.006490 L117.123578 312.198580 L97.369070 278.876561 L94.655568 289.491867 L71.848370 268.112067 L70.152431 274.746633 Z" fill="#888" fill-opacity="0.18" stroke="#000" stroke-width="1"/>
  <path d="M655.182610 151.640523 L684.378246 172.027276 L678.599855 175.702038 L706.011360 190.731126 L696.765935 196.610744 L734.578544 205.025263 L709.153624 221.194213 L720.912860 239.685063 L707.044722 248.504491 L695.285486 230.013640 L669.860566 246.182590 L678.275084 208.369981 L669.029659 214.249599 L667.043073 183.051560 L661.264682 186.726322 Z" fill="#888" fill-opacity="0.18" stroke="#000" stroke-width="1"/>
  <path d="M309.167449 358.444932 L324.116690 390.764046 L317.273856 391.027291 L333.381068 417.819488 L322.432533 418.240679 L350.856846 444.559037 L320.748377 445.717312 L321.590759 467.614381 L305.167958 468.246167 L304.325576 446.349099 L274.217107 447.507374 L300.535465 419.083061 L289.586931 419.504252 L303.588188 391.553779 L296.745354 391.817023 Z" fill="#888" fill-opacity="0.18" stroke="#000" stroke-width="1"/>
  <path d="M431.726755 117.713201 L455.276225 91.003140 L458.275831 97.159115 L476.300600 71.617544 L481.099970 81.467105 L493.725447 44.844778 L506.923714 71.931071 L526.622836 62.332331 L533.821891 77.106672 L514.122769 86.705412 L527.321036 113.791705 L490.698709 101.166227 L495.498079 111.015788 L464.275043 109.471066 L467.274650 115.627042 Z" fill="#888" fill-opacity="0.18" stroke="#000" stroke-width="1"/>
</svg>
