<?xml version="1.0" encoding="UTF-8"?>
<svg xmlns="http://www.w3.org/2000/svg" width="1100" height="1100" viewBox="0 0 1100 1100">
  <rect x="0" y="0" width="1100" height="1100" fill="white"/>
  <text x="10.0" y="18.0" font-family="monospace" font-size="12">prefix=N127_job5048529_task127 run_id=127 L=9.81491159388 feas=0.000e+00 N=127</text>
  <rect x="40.000000" y="40.000000" width="1020.000000" height="1020.000000" fill="none" stroke="#000" stroke-width="2"/>
  <path d="M212.384515 372.779371 L240.019276 392.197918 L234.528205 395.667214 L260.485744 409.999046 L251.700031 415.549919 L287.541496 423.637018 L263.380786 438.901920 L274.482532 456.473345 L261.303963 464.799655 L250.202216 447.228229 L226.041506 462.493131 L234.128605 426.651665 L225.342892 432.202539 L223.546064 402.605806 L218.054993 406.075101 Z" fill="#888" fill-opacity="0.18" stroke="#000" stroke-width="1"/>
  <path d="M744.300640 692.128398 L771.884573 672.637717 L773.304225 678.975892 L795.533689 659.353299 L797.805132 669.494378 L817.479221 638.463071 L823.725691 666.351039 L844.007850 661.808151 L847.415015 677.019770 L827.132857 681.562658 L833.379327 709.450626 L802.348020 689.776537 L804.619463 699.917616 L776.143530 691.652241 L777.563182 697.990416 Z" fill="#888" fill-opacity="0.18" stroke="#000" stroke-width="1"/>
  <path d="M205.613872 658.506811 L214.878049 626.027048 L219.958467 630.073926 L224.969058 600.849121 L233.097727 607.324126 L228.963566 570.814942 L251.317406 588.621204 L264.267415 572.363866 L276.460419 582.076373 L263.510410 598.333711 L285.864250 616.139973 L249.355066 620.274135 L257.483735 626.749139 L230.119303 638.167681 L235.199722 642.214559 Z" fill="#888" fill-opacity="0.18" stroke="#000" stroke-width="1"/>
  <path d="M544.594189 857.381445 L565.203632 830.623065 L568.429273 836.260716 L583.883466 810.955320 L589.044492 819.975561 L598.692531 784.522393 L612.885352 809.328057 L630.925836 799.006005 L638.667374 812.536368 L620.626891 822.858419 L634.819712 847.664084 L599.366544 838.016044 L604.527570 847.036286 L574.880555 847.536018 L578.106196 853.173669 Z" fill="#888" fill-opacity="0.18" stroke="#000" stroke-width="1"/>
  <path d="M502.756972 414.482665 L494.765469 447.298756 L489.531215 443.452921 L485.663232 472.850776 L477.288425 466.697439 L482.842100 503.017799 L459.811381 486.096122 L447.504707 502.845736 L434.942497 493.615730 L447.249171 476.866117 L424.218452 459.944440 L460.538812 454.390765 L452.164005 448.237428 L479.062707 435.761249 L473.828452 431.915414 Z" fill="#888" fill-opacity="0.18" stroke="#000" stroke-width="1"/>
  <path d="M518.607388 875.222162 L512.028343 842.093984 L518.395701 843.376416 L509.517240 815.085637 L519.705011 817.137527 L499.365307 786.538373 L527.381679 792.181071 L531.485460 771.805527 L546.767117 774.883362 L542.663337 795.258906 L570.679709 800.901603 L540.080555 821.241307 L550.268327 823.293197 L531.130416 845.941278 L537.497773 847.223709 Z" fill="#888" fill-opacity="0.18" stroke="#000" stroke-width="1"/>
  <path d="M653.810948 860.035773 L665.554396 828.367943 L670.307306 832.794874 L677.558627 804.043986 L685.163283 811.127075 L683.859366 774.407712 L704.772170 793.886208 L718.938349 778.676896 L730.345333 789.301530 L716.179154 804.510842 L737.091958 823.989337 L700.372595 825.293254 L707.977251 832.376343 L679.813126 841.648735 L684.566036 846.075666 Z" fill="#888" fill-opacity="0.18" stroke="#000" stroke-width="1"/>
  <path d="M79.065463 54.684849 L112.794565 52.921990 L110.612743 59.039794 L139.883966 54.307916 L136.393050 64.096402 L169.591554 48.352478 L159.991535 75.270813 L179.568507 82.252645 L174.332133 96.935374 L154.755161 89.953542 L145.155142 116.871877 L129.411218 83.673373 L125.920302 93.461859 L106.249098 71.275401 L104.067275 77.393205 Z" fill="#888" fill-opacity="0.18" stroke="#000" stroke-width="1"/>
  <path d="M504.231208 747.243257 L519.714185 717.225971 L523.897506 722.194642 L534.568882 694.530280 L541.262197 702.480153 L544.403593 665.872183 L562.810208 687.734335 L578.709955 674.347705 L588.749927 686.272515 L572.850180 699.659145 L591.256796 721.521296 L554.648826 718.379900 L561.342141 726.329773 L532.264150 732.131984 L536.447471 737.100655 Z" fill="#888" fill-opacity="0.18" stroke="#000" stroke-width="1"/>
  <path d="M294.884466 883.897657 L262.368917 874.759875 L266.396005 869.663755 L237.151934 864.766867 L243.595274 856.613076 L207.102445 860.889202 L224.821632 838.466277 L208.514049 825.579596 L218.179060 813.348909 L234.486642 826.235590 L252.205829 803.812664 L256.481955 840.305493 L262.925296 832.151702 L274.450180 859.471516 L278.477268 854.375397 Z" fill="#888" fill-opacity="0.18" stroke="#000" stroke-width="1"/>
  <path d="M164.783397 168.572516 L194.636454 152.775206 L195.232643 159.243005 L219.792223 142.629087 L220.746127 152.977566 L244.232564 124.721610 L246.855799 153.179926 L267.552757 151.272119 L268.983613 166.794837 L248.286655 168.702644 L250.909891 197.160961 L222.653934 173.674524 L223.607838 184.023002 L196.425023 172.178604 L197.021213 178.646403 Z" fill="#888" fill-opacity="0.18" stroke="#000" stroke-width="1"/>
  <path d="M648.021926 165.219046 L644.221108 198.779644 L638.544730 195.622650 L638.404783 225.273546 L629.322579 220.222355 L639.400110 255.555840 L614.424051 241.665065 L604.321670 259.829472 L590.698365 252.252685 L600.800746 234.088279 L575.824687 220.197504 L611.158173 210.119973 L602.075970 205.068782 L627.191976 189.308661 L621.515599 186.151667 Z" fill="#888" fill-opacity="0.18" stroke="#000" stroke-width="1"/>
  <path d="M672.077279 1053.980521 L639.533152 1044.945046 L643.544192 1039.836287 L614.284865 1035.031397 L620.702530 1026.857381 L584.223330 1031.248258 L601.871907 1008.769716 L585.523877 995.934387 L595.150374 983.673364 L611.498404 996.508693 L629.146982 974.030151 L633.537859 1010.509350 L639.955523 1002.335335 L651.566273 1029.618768 L655.577313 1024.510008 Z" fill="#888" fill-opacity="0.18" stroke="#000" stroke-width="1"/>
  <path d="M737.697782 140.030999 L708.464728 156.948107 L707.623899 150.507543 L683.711463 168.040101 L682.366137 157.735197 L659.967192 186.860772 L656.267545 158.522286 L635.657738 161.212939 L633.639748 145.755583 L654.249556 143.064931 L650.549909 114.726445 L679.675484 137.125389 L678.330158 126.820485 L705.942241 137.626413 L705.101412 131.185848 Z" fill="#888" fill-opacity="0.18" stroke="#000" stroke-width="1"/>
  <path d="M907.635829 935.867033 L903.224903 969.352907 L897.606917 966.093137 L896.927405 995.736575 L887.938628 990.520943 L897.371491 1026.031968 L872.652352 1011.688979 L862.221087 1029.666534 L848.737921 1021.843086 L859.169186 1003.865530 L834.450047 989.522541 L869.961072 980.089678 L860.972295 974.874046 L886.370945 959.573596 L880.752959 956.313826 Z" fill="#888" fill-opacity="0.18" stroke="#000" stroke-width="1"/>
  <path d="M519.447747 966.377517 L529.968037 934.282603 L534.887231 938.523995 L541.030569 909.516158 L548.901279 916.302384 L546.190068 879.660043 L567.834522 898.322164 L581.406974 882.580743 L593.213039 892.760082 L579.640587 908.501503 L601.285041 927.163624 L564.642700 929.874836 L572.513411 936.661062 L544.725619 947.006777 L549.644813 951.248168 Z" fill="#888" fill-opacity="0.18" stroke="#000" stroke-width="1"/>
  <path d="M389.753258 529.153102 L421.696258 518.180192 L421.281464 524.662153 L448.121854 512.061015 L447.458183 522.432153 L475.045202 498.163486 L473.220109 526.684113 L493.962383 528.011454 L492.966877 543.568160 L472.224603 542.240819 L470.399509 570.761446 L446.130842 543.174427 L445.467172 553.545564 L420.451876 537.626074 L420.037082 544.108035 Z" fill="#888" fill-opacity="0.18" stroke="#000" stroke-width="1"/>
  <path d="M202.306814 865.295282 L203.048785 899.062270 L196.999765 896.696422 L200.844218 926.097364 L191.165787 922.312008 L205.898475 955.971476 L179.282789 945.561747 L171.712078 964.918609 L157.194431 959.240575 L164.765143 939.883713 L138.149458 929.473984 L171.808925 914.741297 L162.130494 910.955941 L184.901726 891.964728 L178.852707 889.598880 Z" fill="#888" fill-opacity="0.18" stroke="#000" stroke-width="1"/>
  <path d="M1056.757188 718.016212 L1041.391568 748.093740 L1037.188872 743.141446 L1026.625627 770.847277 L1019.901313 762.923606 L1016.902920 799.543566 L998.411058 777.753472 L982.563717 791.202099 L972.477247 779.316593 L988.324588 765.867966 L969.832726 744.077872 L1006.452686 747.076265 L999.728373 739.152595 L1028.783480 733.236858 L1024.580784 728.284564 Z" fill="#888" fill-opacity="0.18" stroke="#000" stroke-width="1"/>
  <path d="M261.619685 285.989636 L231.981853 269.792139 L237.049296 265.729025 L209.648467 254.398104 L217.756375 247.897122 L181.234149 243.879806 L203.530897 226.002106 L190.528933 209.786289 L202.690796 200.034816 L215.692760 216.250633 L237.989508 198.372932 L233.972192 234.895158 L242.080100 228.394176 L247.184181 257.602797 L252.251624 253.539684 Z" fill="#888" fill-opacity="0.18" stroke="#000" stroke-width="1"/>
  <path d="M717.005307 524.364695 L739.590593 499.251653 L742.378020 505.118349 L759.712463 481.061910 L764.172347 490.448623 L776.489422 455.832132 L788.754101 481.645593 L807.527527 472.725827 L814.217352 486.805897 L795.443926 495.725663 L807.708605 521.539125 L773.092113 509.222050 L777.551997 518.608763 L747.952874 516.851741 L750.740301 522.718436 Z" fill="#888" fill-opacity="0.18" stroke="#000" stroke-width="1"/>
  <path d="M710.705038 950.344697 L715.324081 983.802498 L709.043181 982.147757 L716.242196 1010.911786 L706.192757 1008.264201 L724.697392 1040.006764 L697.061433 1032.725903 L691.766262 1052.824783 L676.692102 1048.853404 L681.987273 1028.754525 L654.351314 1021.473664 L686.093878 1002.969029 L676.044438 1000.321444 L696.481381 978.838275 L690.200482 977.183534 Z" fill="#888" fill-opacity="0.18" stroke="#000" stroke-width="1"/>
  <path d="M372.098406 224.414711 L400.641808 242.471129 L395.325328 246.202471 L421.946952 259.259437 L413.440584 265.229585 L449.631871 271.570135 L426.239361 287.988040 L438.179655 305.000775 L425.420104 313.955996 L413.479810 296.943261 L390.087299 313.361166 L396.427849 277.169879 L387.921482 283.140027 L384.692369 253.665156 L379.375889 257.396498 Z" fill="#888" fill-opacity="0.18" stroke="#000" stroke-width="1"/>
  <path d="M291.253691 330.060512 L318.522570 349.989593 L312.967934 353.356178 L338.654472 368.168234 L329.767055 373.554769 L365.451936 382.306972 L341.011540 397.119945 L351.784611 414.894779 L338.453486 422.974583 L327.680415 405.199749 L303.240018 420.012722 L311.992221 384.327841 L303.104804 389.714377 L301.858663 360.089348 L296.304028 363.455933 Z" fill="#888" fill-opacity="0.18" stroke="#000" stroke-width="1"/>
  <path d="M251.617209 642.275713 L283.685345 631.674077 L283.195388 638.150790 L310.180144 625.861846 L309.396214 636.224587 L337.262892 612.277560 L335.107084 640.775098 L355.832566 642.342958 L354.656671 657.887069 L333.931189 656.319209 L331.775381 684.816747 L307.828354 656.950069 L307.044424 667.312810 L282.215476 651.104216 L281.725519 657.580929 Z" fill="#888" fill-opacity="0.18" stroke="#000" stroke-width="1"/>
  <path d="M72.855107 258.648913 L102.959310 243.335621 L103.451004 249.812202 L128.275603 233.596948 L129.062313 243.959478 L153.001864 216.086378 L155.165316 244.583336 L175.890377 243.009916 L177.070442 258.553712 L156.345381 260.127132 L158.508833 288.624090 L130.635733 264.684539 L131.422443 275.047069 L104.434391 262.765365 L104.926085 269.241946 Z" fill="#888" fill-opacity="0.18" stroke="#000" stroke-width="1"/>
  <path d="M967.776187 727.946613 L942.304462 750.126586 L940.251192 743.964448 L920.119832 765.734233 L916.834599 755.874811 L900.399126 788.736446 L891.364737 761.623036 L871.645894 768.193500 L866.718046 753.404368 L886.436889 746.833904 L877.402501 719.720494 L910.264135 736.155968 L906.978903 726.296546 L936.144651 731.640171 L934.091381 725.478032 Z" fill="#888" fill-opacity="0.18" stroke="#000" stroke-width="1"/>
  <path d="M428.022300 682.312299 L408.982742 654.415072 L415.343164 653.098673 L396.084641 630.553064 L406.261316 628.446826 L375.554035 608.270734 L403.539890 602.478580 L399.327414 582.125230 L414.592426 578.965874 L418.804902 599.319223 L446.790757 593.527069 L426.614665 624.234350 L436.791340 622.128112 L428.064007 650.465876 L434.424429 649.149477 Z" fill="#888" fill-opacity="0.18" stroke="#000" stroke-width="1"/>
  <path d="M598.280290 193.406526 L577.345845 166.901639 L583.599260 165.145887 L562.818735 143.994882 L572.824200 141.185678 L540.787527 123.195029 L568.302554 115.469716 L562.684145 95.458787 L577.692341 91.244980 L583.310750 111.255909 L610.825777 103.530596 L592.835128 135.567268 L602.840592 132.758064 L596.106091 161.634381 L602.359506 159.878628 Z" fill="#888" fill-opacity="0.18" stroke="#000" stroke-width="1"/>
  <path d="M61.963984 828.583634 L84.153459 854.047081 L77.992087 856.102650 L99.769382 876.225887 L89.911187 879.514797 L122.778951 895.938009 L95.668914 904.982513 L102.246735 924.698903 L87.459442 929.632269 L80.881621 909.915879 L53.771584 918.960382 L70.194796 886.092618 L60.336601 889.381528 L65.669343 860.213788 L59.507971 862.269357 Z" fill="#888" fill-opacity="0.18" stroke="#000" stroke-width="1"/>
  <path d="M102.093194 414.034275 L124.312128 388.596528 L127.184292 394.422208 L144.168249 370.117056 L148.763712 379.438144 L160.577774 344.646769 L173.215296 370.279759 L191.857471 361.088834 L198.750664 375.070465 L180.108490 384.261390 L192.746012 409.894381 L157.954637 398.080319 L162.550099 407.401406 L132.928620 406.073567 L135.800784 411.899247 Z" fill="#888" fill-opacity="0.18" stroke="#000" stroke-width="1"/>
  <path d="M326.627197 103.150860 L293.451642 109.486675 L294.780754 103.128898 L266.425599 111.799559 L268.552179 101.627115 L237.804621 121.741775 L243.652715 93.767556 L223.307828 89.514397 L226.497697 74.255731 L246.842584 78.508891 L252.690678 50.534671 L272.805338 81.282229 L274.931917 71.109785 L297.438979 90.413344 L298.768091 84.055567 Z" fill="#888" fill-opacity="0.18" stroke="#000" stroke-width="1"/>
  <path d="M777.991485 546.898434 L806.689799 564.707610 L801.405750 568.484739 L828.139171 581.311250 L819.684693 587.354656 L855.929402 593.382336 L832.679588 610.001702 L844.766399 626.910657 L832.084683 635.975766 L819.997871 619.066810 L796.748057 635.686176 L802.775738 599.441467 L794.321260 605.484873 L790.837653 576.038996 L785.553604 579.816124 Z" fill="#888" fill-opacity="0.18" stroke="#000" stroke-width="1"/>
  <path d="M720.335855 942.926444 L751.834516 930.736517 L751.668626 937.229617 L778.005985 923.608357 L777.740561 933.997317 L804.376522 908.688477 L803.646605 937.258118 L824.424526 937.788966 L824.026390 953.372407 L803.248469 952.841558 L802.518552 981.411199 L777.209712 954.775238 L776.944288 965.164198 L751.336846 950.215817 L751.170955 956.708917 Z" fill="#888" fill-opacity="0.18" stroke="#000" stroke-width="1"/>
  <path d="M203.701126 453.515931 L201.690079 487.231145 L195.853876 484.380426 L197.290645 513.996821 L187.952720 509.435670 L199.894655 544.183361 L174.215361 531.640195 L165.093058 550.316046 L151.086171 543.474319 L160.208473 524.798469 L134.529179 512.255303 L169.276869 500.313368 L159.938944 495.752217 L184.181469 478.678987 L178.345266 475.828267 Z" fill="#888" fill-opacity="0.18" stroke="#000" stroke-width="1"/>
  <path d="M567.767025 419.278385 L569.060245 453.028757 L562.973402 450.761993 L567.297402 480.096243 L557.558454 476.469422 L572.838771 509.883846 L546.056663 499.910087 L538.803020 519.387983 L524.194598 513.947751 L531.448241 494.469855 L504.666134 484.496095 L538.080558 469.215779 L528.341610 465.588957 L550.799717 446.228466 L544.712875 443.961703 Z" fill="#888" fill-opacity="0.18" stroke="#000" stroke-width="1"/>
  <path d="M806.665108 397.785285 L776.627006 413.227838 L776.107478 406.753430 L751.352808 423.075242 L750.521563 412.716189 L726.702044 440.691935 L724.416119 412.204540 L703.698013 413.867031 L702.451145 398.328452 L723.169251 396.665960 L720.883325 368.178565 L748.859071 391.998083 L748.027826 381.639030 L775.068421 393.804614 L774.548892 387.330206 Z" fill="#888" fill-opacity="0.18" stroke="#000" stroke-width="1"/>
  <path d="M998.433770 811.619233 L969.121429 828.398585 L968.310918 821.954135 L944.316240 839.373968 L943.019423 829.062848 L920.483663 858.082692 L916.917416 829.727110 L896.295175 832.320744 L894.349949 816.854063 L914.972191 814.260429 L911.405944 785.904847 L940.425789 808.440606 L939.128972 798.129485 L966.689897 809.065234 L965.879386 802.620783 Z" fill="#888" fill-opacity="0.18" stroke="#000" stroke-width="1"/>
  <path d="M705.815266 279.033167 L679.331420 299.994224 L677.569387 293.742575 L656.439266 314.544335 L653.620013 304.541697 L635.661552 336.596424 L627.908606 309.089171 L607.903331 314.727677 L603.674451 299.723721 L623.679726 294.085215 L615.926780 266.577961 L647.981507 284.536422 L645.162253 274.533785 L674.045320 281.239278 L672.283287 274.987630 Z" fill="#888" fill-opacity="0.18" stroke="#000" stroke-width="1"/>
  <path d="M643.929052 610.996348 L617.922246 632.546429 L616.020368 626.335896 L595.362364 647.606582 L592.319359 637.669728 L575.084736 670.119374 L566.716473 642.793026 L546.842765 648.879035 L542.278258 633.973754 L562.151966 627.887744 L553.783703 600.561396 L586.233350 617.796019 L583.190345 607.859165 L612.216612 613.914828 L610.314734 607.704294 Z" fill="#888" fill-opacity="0.18" stroke="#000" stroke-width="1"/>
  <path d="M710.779669 436.827624 L678.396224 427.232183 L682.494782 422.193365 L653.322680 416.884534 L659.880373 408.822424 L623.330867 412.583467 L641.364521 390.412665 L625.240302 377.297280 L635.076841 365.204115 L651.201060 378.319501 L669.234715 356.148699 L672.995758 392.698205 L679.553451 384.636095 L690.691898 412.115727 L694.790455 407.076909 Z" fill="#888" fill-opacity="0.18" stroke="#000" stroke-width="1"/>
  <path d="M395.321743 1000.994560 L428.577251 995.092769 L427.165180 1001.432636 L455.631208 993.133214 L453.371894 1003.277003 L484.379651 983.565819 L478.166536 1011.461237 L498.454113 1015.979866 L495.065141 1031.195549 L474.777564 1026.676919 L468.564448 1054.572337 L448.853264 1023.564579 L446.593949 1033.708368 L424.341036 1014.112372 L422.928964 1020.452240 Z" fill="#888" fill-opacity="0.18" stroke="#000" stroke-width="1"/>
  <path d="M514.949801 109.248559 L502.161469 140.509054 L497.558151 135.926769 L489.356312 164.421068 L481.991003 157.089412 L482.075136 193.831823 L461.820537 173.669770 L447.157225 188.400387 L436.109263 177.402903 L450.772574 162.672286 L430.517975 142.510233 L467.260386 142.426101 L459.895077 135.094445 L488.351516 126.762200 L483.748198 122.179915 Z" fill="#888" fill-opacity="0.18" stroke="#000" stroke-width="1"/>
  <path d="M480.899739 602.755717 L503.286833 577.465838 L506.120311 583.310431 L523.265034 559.118415 L527.798599 568.469765 L539.843063 533.757480 L552.310364 559.473692 L571.013063 550.406564 L577.813410 564.433588 L559.110710 573.500717 L571.578011 599.216929 L536.865727 587.172464 L541.399291 596.523814 L511.787266 594.999619 L514.620743 600.844212 Z" fill="#888" fill-opacity="0.18" stroke="#000" stroke-width="1"/>
  <path d="M799.601616 73.312227 L832.715280 66.660519 L831.446821 73.030675 L859.718053 64.090169 L857.688519 74.282417 L888.242977 53.875632 L882.661757 81.904316 L903.046255 85.963385 L900.001953 101.251758 L879.617455 97.192689 L874.036235 125.221373 L853.629450 94.666915 L851.599915 104.859164 L828.909903 85.770986 L827.641444 92.141141 Z" fill="#888" fill-opacity="0.18" stroke="#000" stroke-width="1"/>
  <path d="M783.026393 721.279400 L752.010593 734.650269 L751.931134 728.155536 L726.127012 742.761784 L725.999878 732.370212 L700.338782 758.666979 L699.989162 730.090154 L679.206017 730.344423 L679.015316 714.757064 L699.798461 714.502795 L699.448842 685.925970 L725.745609 711.587066 L725.618475 701.195493 L751.772216 715.166070 L751.692757 708.671337 Z" fill="#888" fill-opacity="0.18" stroke="#000" stroke-width="1"/>
  <path d="M777.766673 786.945062 L790.587886 755.698038 L795.186380 760.285163 L803.418194 731.799510 L810.775785 739.138910 L810.730308 702.396431 L830.963684 722.579783 L845.642485 707.864601 L856.678871 718.873701 L842.000070 733.588883 L862.233446 753.772235 L825.490967 753.817711 L832.848558 761.157112 L804.383369 769.459414 L808.981863 774.046539 Z" fill="#888" fill-opacity="0.18" stroke="#000" stroke-width="1"/>
  <path d="M692.100928 703.261035 L658.503974 699.796259 L661.604005 694.088573 L631.953193 694.245358 L636.913243 685.113061 L601.682376 695.543681 L615.322512 670.429863 L597.057917 660.509764 L604.497991 646.811318 L622.762586 656.731417 L636.402722 631.617599 L646.833342 666.848466 L651.793391 657.716169 L667.804067 682.673201 L670.904097 676.965515 Z" fill="#888" fill-opacity="0.18" stroke="#000" stroke-width="1"/>
  <path d="M113.037371 140.522136 L139.658911 119.736237 L141.379667 125.999373 L162.646548 105.337451 L165.399757 115.358469 L183.569277 83.422903 L191.140602 110.980700 L211.182636 105.474282 L215.312450 120.505808 L195.270415 126.012226 L202.841740 153.570023 L170.906175 135.400503 L173.659384 145.421520 L144.821178 138.525644 L146.541934 144.788780 Z" fill="#888" fill-opacity="0.18" stroke="#000" stroke-width="1"/>
  <path d="M64.655700 924.193077 L90.700441 945.697296 L84.956738 948.730074 L109.723997 965.032775 L100.534072 969.885220 L135.639997 980.728921 L110.367703 994.073144 L120.072593 1012.452994 L106.287706 1019.731662 L96.582816 1001.351812 L71.310522 1014.696035 L82.154222 979.590110 L72.964297 984.442555 L73.469332 954.795630 L67.725628 957.828408 Z" fill="#888" fill-opacity="0.18" stroke="#000" stroke-width="1"/>
  <path d="M310.389663 913.412563 L283.864352 934.321123 L282.114704 928.065997 L260.943424 948.825864 L258.143988 938.817662 L240.122073 970.836757 L232.423624 943.314202 L212.407221 948.913073 L208.208067 933.900771 L228.224471 928.301899 L220.526022 900.779344 L252.545116 918.801259 L249.745681 908.793057 L278.615410 915.555745 L276.865762 909.300619 Z" fill="#888" fill-opacity="0.18" stroke="#000" stroke-width="1"/>
  <path d="M368.260026 257.578258 L336.576305 245.877754 L340.996788 241.118846 L312.236096 233.906510 L319.308869 226.292258 L282.591307 227.645955 L302.041433 206.706763 L286.812929 192.561217 L297.422089 181.139840 L312.650592 195.285386 L332.100718 174.346193 L333.454415 211.063755 L340.527188 203.449503 L349.837754 231.601032 L354.258237 226.842124 Z" fill="#888" fill-opacity="0.18" stroke="#000" stroke-width="1"/>
  <path d="M971.272091 215.171434 L943.297910 196.245124 L948.726706 192.679168 L922.519531 178.809087 L931.205605 173.103557 L895.226596 165.652197 L919.113299 149.961990 L907.702240 132.589843 L920.731351 124.031548 L932.142410 141.403696 L956.029113 125.713490 L948.577752 161.692498 L957.263826 155.986968 L959.584299 185.547256 L965.013095 181.981300 Z" fill="#888" fill-opacity="0.18" stroke="#000" stroke-width="1"/>
  <path d="M819.118519 41.234810 L801.012841 69.746991 L797.290685 64.424076 L784.187770 91.023115 L778.232320 82.506451 L771.829287 118.686736 L755.451799 95.265911 L738.418472 107.176812 L729.485296 94.401817 L746.518623 82.490916 L730.141135 59.070092 L766.321419 65.473124 L760.365969 56.956461 L789.846372 53.778247 L786.124215 48.455332 Z" fill="#888" fill-opacity="0.18" stroke="#000" stroke-width="1"/>
  <path d="M451.552993 745.210231 L418.536937 738.089833 L422.242929 732.755652 L392.753021 729.666884 L398.682608 721.132193 L362.521914 727.644952 L378.828278 704.174553 L361.758897 692.315379 L370.653278 679.513343 L387.722659 691.372517 L404.029023 667.902118 L410.541782 704.062812 L416.471369 695.528121 L429.654913 722.087289 L433.360905 716.753107 Z" fill="#888" fill-opacity="0.18" stroke="#000" stroke-width="1"/>
  <path d="M130.045558 662.497200 L137.770219 629.617272 L143.035541 633.420461 L146.664586 603.992154 L155.089103 610.077256 L149.240566 573.803210 L172.407987 590.537240 L184.578191 573.688207 L197.214965 582.815860 L185.044762 599.664893 L208.212182 616.398924 L171.938136 622.247460 L180.362652 628.332562 L153.566187 641.026839 L158.831510 644.830027 Z" fill="#888" fill-opacity="0.18" stroke="#000" stroke-width="1"/>
  <path d="M481.766550 309.265926 L504.938850 333.838360 L498.862952 336.134298 L521.413681 355.386826 L511.692244 359.060327 L545.179590 374.180165 L518.445639 384.282294 L525.792642 403.725168 L511.210486 409.235420 L503.863484 389.792546 L477.129532 399.894675 L492.249371 366.407330 L482.527934 370.080831 L486.711156 340.726175 L480.635258 343.022113 Z" fill="#888" fill-opacity="0.18" stroke="#000" stroke-width="1"/>
  <path d="M314.246485 544.534684 L281.244343 551.719292 L282.409955 545.329518 L254.286510 554.724571 L256.151490 544.500932 L225.929942 565.397579 L231.058638 537.282571 L210.611360 533.552611 L213.408830 518.217152 L233.856108 521.947113 L238.984804 493.832106 L259.881451 524.053654 L261.746431 513.830015 L284.741181 532.549969 L285.906793 526.160195 Z" fill="#888" fill-opacity="0.18" stroke="#000" stroke-width="1"/>
  <path d="M547.521918 613.354101 L519.719968 632.532515 L518.371873 626.178736 L495.922565 645.549429 L493.765613 635.383383 L473.742876 666.190879 L467.811259 638.234251 L447.479165 642.548154 L444.243738 627.299084 L464.575831 622.985181 L458.644213 595.028552 L489.451710 615.051289 L487.294758 604.885243 L515.675683 613.471177 L514.327588 607.117398 Z" fill="#888" fill-opacity="0.18" stroke="#000" stroke-width="1"/>
  <path d="M893.924833 385.480267 L917.121098 410.030079 L911.047443 412.331945 L933.616947 431.562460 L923.899099 435.245445 L957.401182 450.332601 L930.677100 460.460811 L938.043070 479.896506 L923.466299 485.420984 L916.100328 465.985288 L889.376247 476.113497 L904.463403 442.611415 L894.745556 446.294400 L898.900133 416.935676 L892.826479 419.237542 Z" fill="#888" fill-opacity="0.18" stroke="#000" stroke-width="1"/>
  <path d="M920.429443 621.685838 L923.224705 655.345109 L917.042937 653.351718 L922.669266 682.464252 L912.778436 679.274827 L929.531948 711.975464 L902.332166 703.204545 L895.953316 722.986205 L881.117071 718.202068 L887.495921 698.420408 L860.296139 689.649490 L892.996776 672.895977 L883.105946 669.706552 L904.679399 649.364937 L898.497631 647.371546 Z" fill="#888" fill-opacity="0.18" stroke="#000" stroke-width="1"/>
  <path d="M659.655812 535.004494 L667.668142 502.193481 L672.899954 506.042638 L676.786596 476.647244 L685.157495 482.805895 L679.626875 446.482018 L702.646848 463.418309 L714.964151 446.676510 L727.520500 455.914487 L715.203198 472.656286 L738.223172 489.592577 L701.899294 495.123198 L710.270194 501.281849 L683.363579 513.740952 L688.595391 517.590109 Z" fill="#888" fill-opacity="0.18" stroke="#000" stroke-width="1"/>
  <path d="M373.321191 253.548979 L372.674529 287.317926 L366.727871 284.705431 L369.360536 314.239551 L359.845884 310.059559 L373.182533 344.296171 L347.017240 332.801191 L338.657254 351.830496 L324.385276 345.560507 L332.745261 326.531202 L306.579967 315.036223 L340.816580 301.699573 L331.301927 297.519581 L354.834556 279.480440 L348.887898 276.867945 Z" fill="#888" fill-opacity="0.18" stroke="#000" stroke-width="1"/>
  <path d="M443.952257 806.796129 L441.509645 840.482827 L435.710425 837.557607 L436.767833 867.189973 L427.489079 862.509622 L438.985084 897.407382 L413.468513 884.536417 L404.107811 903.093923 L390.189681 896.073396 L399.550384 877.515890 L374.033813 864.644925 L408.931573 853.148920 L399.652820 848.468568 L424.111983 831.707168 L418.312763 828.781949 Z" fill="#888" fill-opacity="0.18" stroke="#000" stroke-width="1"/>
  <path d="M807.285089 1035.745081 L774.491343 1027.662368 L778.351717 1022.438827 L748.964730 1018.489122 L755.141328 1010.131456 L718.805668 1015.584125 L735.791313 992.600544 L719.075981 980.247347 L728.340879 967.710848 L745.056211 980.064045 L762.041856 957.080464 L767.494525 993.416124 L773.671123 985.058458 L786.072465 1011.991745 L789.932839 1006.768204 Z" fill="#888" fill-opacity="0.18" stroke="#000" stroke-width="1"/>
  <path d="M758.044401 357.636957 L741.729982 328.063325 L748.186427 327.354673 L731.147640 303.087927 L741.477952 301.954084 L712.817564 278.962912 L741.225922 275.844844 L738.958236 255.184220 L754.453704 253.483455 L756.721390 274.144079 L785.129748 271.026010 L762.138576 299.686398 L772.468888 298.552555 L761.099317 325.937369 L767.555762 325.228717 Z" fill="#888" fill-opacity="0.18" stroke="#000" stroke-width="1"/>
  <path d="M997.931773 614.781593 L989.988973 581.953680 L996.403899 582.971815 L986.363605 555.072215 L996.627486 556.701232 L975.040327 526.968987 L1003.265999 531.448784 L1006.524033 510.921022 L1021.919854 513.364548 L1018.661820 533.892310 L1046.887492 538.372107 L1017.155248 559.959266 L1027.419129 561.588283 L1009.233750 585.008087 L1015.648675 586.026222 Z" fill="#888" fill-opacity="0.18" stroke="#000" stroke-width="1"/>
  <path d="M292.866211 832.161457 L325.784106 839.722685 L322.007121 845.006836 L351.453092 848.489644 L345.409916 856.944286 L381.654461 850.915623 L365.035726 874.165888 L381.945009 886.252240 L372.880244 898.934203 L355.970961 886.847850 L339.352226 910.098114 L333.323563 873.853569 L327.280387 882.308211 L314.453150 855.575138 L310.676165 860.859289 Z" fill="#888" fill-opacity="0.18" stroke="#000" stroke-width="1"/>
  <path d="M906.319800 862.099469 L933.279598 882.444722 L927.673946 885.725658 L953.130125 900.930203 L944.161083 906.179701 L979.707433 915.478560 L955.042568 929.914681 L965.541565 947.852765 L952.088002 955.727012 L941.589005 937.788928 L916.924140 952.225048 L926.222999 916.678698 L917.253957 921.928196 L916.462644 892.287531 L910.856993 895.568467 Z" fill="#888" fill-opacity="0.18" stroke="#000" stroke-width="1"/>
  <path d="M460.562543 336.443867 L432.276798 354.901294 L431.092472 348.514962 L408.152658 367.302195 L406.257737 357.084063 L385.449709 387.366694 L380.238677 359.266831 L359.802413 363.056673 L356.960032 347.729475 L377.396296 343.939633 L372.185264 315.839770 L402.467896 336.647799 L400.572975 326.429667 L428.723821 335.742297 L427.539496 329.355964 Z" fill="#888" fill-opacity="0.18" stroke="#000" stroke-width="1"/>
  <path d="M1037.067452 811.863586 L1029.337439 844.742256 L1024.072735 840.938210 L1020.438899 870.365925 L1012.015374 864.279452 L1017.858005 900.554450 L994.693309 883.816648 L982.520362 900.663700 L969.885073 891.533990 L982.058020 874.686938 L958.893324 857.949136 L995.168322 852.106505 L986.744796 846.020032 L1013.543328 833.330118 L1008.278624 829.526072 Z" fill="#888" fill-opacity="0.18" stroke="#000" stroke-width="1"/>
  <path d="M988.631236 40.664571 L1013.844884 63.137487 L1007.990694 65.951085 L1032.124302 83.177930 L1022.757598 87.679686 L1057.428748 99.842055 L1031.670312 112.221884 L1040.673824 130.955291 L1026.623769 137.707925 L1017.620257 118.974518 L991.861821 131.354347 L1004.024191 96.683198 L994.657487 101.184954 L996.282315 71.578280 L990.428125 74.391877 Z" fill="#888" fill-opacity="0.18" stroke="#000" stroke-width="1"/>
  <path d="M251.137736 209.867414 L280.377464 226.772984 L275.213773 230.713057 L302.334181 242.699660 L294.072276 249.003776 L330.487327 253.898249 L307.767089 271.234567 L320.375320 287.758377 L307.982463 297.214550 L295.374231 280.690740 L272.653993 298.027058 L277.548466 261.612007 L269.286561 267.916122 L264.886392 238.593201 L259.722701 242.533273 Z" fill="#888" fill-opacity="0.18" stroke="#000" stroke-width="1"/>
  <path d="M515.700003 267.842270 L504.430690 236.002632 L510.916225 236.357165 L498.066178 209.635049 L508.443036 210.202302 L483.919024 182.842026 L512.455382 184.401971 L513.589887 163.648256 L529.155173 164.499135 L528.020668 185.252850 L556.557026 186.812795 L529.196750 211.336807 L539.573608 211.904060 L523.887297 237.066231 L530.372833 237.420764 Z" fill="#888" fill-opacity="0.18" stroke="#000" stroke-width="1"/>
  <path d="M938.089644 284.512535 L908.215214 268.755682 L913.221936 264.617976 L885.656326 253.694042 L893.667081 247.073713 L857.089372 243.597648 L879.118947 225.391744 L865.878290 209.370234 L877.894422 199.439741 L891.135079 215.461250 L913.164655 197.255346 L909.688590 233.833055 L917.699345 227.212726 L923.235379 256.342565 L928.242101 252.204860 Z" fill="#888" fill-opacity="0.18" stroke="#000" stroke-width="1"/>
  <path d="M1006.168129 472.879606 L990.268790 443.080763 L996.734512 442.462451 L980.036679 417.959848 L990.381834 416.970550 L962.045701 393.580908 L990.494878 390.860338 L988.516281 370.170028 L1004.034014 368.686080 L1006.012610 389.376391 L1034.461787 386.655821 L1011.072144 414.991954 L1021.417299 414.002656 L1009.665956 441.225829 L1016.131678 440.607518 Z" fill="#888" fill-opacity="0.18" stroke="#000" stroke-width="1"/>
  <path d="M378.716708 839.960353 L381.288442 806.283267 L387.076406 809.230696 L386.132603 779.594495 L395.393346 784.310382 L384.031208 749.368807 L409.498250 762.337497 L418.930024 743.816012 L432.821138 750.889843 L423.389364 769.411328 L448.856406 782.380019 L413.914831 793.742157 L423.175574 798.458044 L398.652334 815.125555 L404.440298 818.072985 Z" fill="#888" fill-opacity="0.18" stroke="#000" stroke-width="1"/>
  <path d="M425.731020 915.496126 L401.096858 938.602793 L398.817136 932.520792 L379.504520 955.020081 L375.856965 945.288879 L360.647847 978.735771 L350.617071 951.974966 L331.154668 959.270075 L325.683335 944.673272 L345.145739 937.378163 L335.114964 910.617358 L368.561855 925.826475 L364.914301 916.095273 L394.257693 920.356789 L391.977971 914.274788 Z" fill="#888" fill-opacity="0.18" stroke="#000" stroke-width="1"/>
  <path d="M659.429324 778.003469 L625.690471 776.438287 L628.463791 770.564909 L598.868976 772.393059 L603.306289 762.995655 L568.719497 775.395885 L580.922106 749.553023 L562.127298 740.678399 L568.783266 726.582293 L587.578075 735.456917 L599.780683 709.614056 L612.180913 744.200847 L616.618225 734.803443 L634.010432 758.818154 L636.783752 752.944776 Z" fill="#888" fill-opacity="0.18" stroke="#000" stroke-width="1"/>
  <path d="M838.903138 379.788407 L835.784868 413.419291 L830.045530 410.378261 L830.507952 440.025881 L821.325011 435.160232 L832.118241 470.281707 L806.865153 456.901172 L797.133855 475.267054 L783.359444 467.968581 L793.090741 449.602699 L767.837653 436.222164 L802.959128 425.428934 L793.776187 420.563285 L818.566853 404.296200 L812.827515 401.255169 Z" fill="#888" fill-opacity="0.18" stroke="#000" stroke-width="1"/>
  <path d="M780.512231 820.870995 L770.891885 853.247050 L765.856221 849.144618 L760.524953 878.312628 L752.467890 871.748736 L756.200819 908.301124 L734.043894 890.250421 L720.916111 906.364548 L708.830516 896.518710 L721.958299 880.404584 L699.801375 862.353881 L736.353763 858.620952 L728.296700 852.057060 L755.784891 840.939753 L750.749227 836.837321 Z" fill="#888" fill-opacity="0.18" stroke="#000" stroke-width="1"/>
  <path d="M56.550850 274.872188 L79.712116 299.455023 L73.635188 301.748233 L96.177271 321.010883 L86.454186 324.680019 L119.934740 339.814891 L93.196256 349.905016 L100.534529 369.351186 L85.949902 374.854891 L78.611629 355.408721 L51.873145 365.498847 L67.008016 332.018293 L57.284931 335.687429 L61.481331 306.334654 L55.404403 308.627864 Z" fill="#888" fill-opacity="0.18" stroke="#000" stroke-width="1"/>
  <path d="M295.461689 826.062048 L266.230111 809.142390 L271.395699 805.204806 L244.281070 793.205136 L252.546012 786.905002 L216.133323 781.992983 L238.861913 764.667615 L226.261645 748.137731 L238.659058 738.687531 L251.259325 755.217414 L273.987915 737.892046 L269.075895 774.304735 L277.340837 768.004601 L281.726876 797.329639 L286.892465 793.392055 Z" fill="#888" fill-opacity="0.18" stroke="#000" stroke-width="1"/>
  <path d="M625.624195 554.835428 L655.768821 570.068995 L650.835005 574.293369 L678.586894 584.735009 L670.692789 591.494007 L707.325547 594.331774 L685.616758 612.919018 L699.134754 628.707228 L687.293597 638.845725 L673.775601 623.057515 L652.066813 641.644760 L654.904580 605.012003 L647.010475 611.771001 L640.967374 582.742116 L636.033558 586.966490 Z" fill="#888" fill-opacity="0.18" stroke="#000" stroke-width="1"/>
  <path d="M352.536462 445.518956 L375.355159 420.617810 L378.087708 426.510267 L395.645929 402.616668 L400.018007 412.044599 L412.657641 377.544578 L424.680854 403.471389 L443.536716 394.727234 L450.094832 408.869131 L431.238970 417.613286 L443.262182 443.540096 L408.762161 430.900462 L413.134238 440.328393 L383.552804 438.295181 L386.285353 444.187638 Z" fill="#888" fill-opacity="0.18" stroke="#000" stroke-width="1"/>
  <path d="M155.314589 973.047746 L188.628468 978.610611 L185.176933 984.112863 L214.779317 985.814049 L209.256861 994.617652 L245.072009 986.414785 L229.885254 1010.624693 L247.492460 1021.669606 L239.208776 1034.875010 L221.601570 1023.830098 L206.414816 1048.040006 L198.211949 1012.224858 L192.689493 1021.028461 L178.273863 995.117367 L174.822327 1000.619618 Z" fill="#888" fill-opacity="0.18" stroke="#000" stroke-width="1"/>
  <path d="M831.174707 91.673607 L849.694679 119.918441 L843.310983 121.116895 L862.148930 144.015081 L851.935016 145.932607 L882.263617 166.673576 L854.175354 171.946774 L858.010407 192.374602 L842.689536 195.250892 L838.854483 174.823064 L810.766220 180.096261 L831.507189 149.767660 L821.293275 151.685187 L830.543590 123.513803 L824.159894 124.712257 Z" fill="#888" fill-opacity="0.18" stroke="#000" stroke-width="1"/>
  <path d="M227.196234 265.528756 L210.288411 294.767181 L206.348737 289.603187 L194.360045 316.722672 L188.056565 308.460281 L183.159287 344.874956 L165.824720 322.153382 L149.299939 334.760340 L139.844720 322.366754 L156.369501 309.759796 L139.034933 287.038222 L175.449607 291.935500 L169.146128 283.673110 L198.469388 279.275199 L194.529714 274.111205 Z" fill="#888" fill-opacity="0.18" stroke="#000" stroke-width="1"/>
  <path d="M496.965623 718.390155 L500.960118 751.928253 L494.711158 750.156707 L501.372682 779.049946 L491.374347 776.215472 L509.283997 808.297495 L481.788576 800.502690 L476.119627 820.499359 L461.122125 816.247647 L466.791074 796.250978 L439.295653 788.456172 L471.377677 770.546522 L461.379343 767.712047 L482.213240 746.613613 L475.964281 744.842066 Z" fill="#888" fill-opacity="0.18" stroke="#000" stroke-width="1"/>
  <path d="M793.580555 350.699426 L809.150008 320.726903 L813.318988 325.707614 L824.070076 298.074132 L830.740443 306.043270 L833.987369 269.444509 L852.330878 291.359636 L868.269153 278.018902 L878.274704 289.972608 L862.336429 303.313342 L880.679938 325.228470 L844.081178 321.981544 L850.751545 329.950682 L821.656947 335.669035 L825.825926 340.649746 Z" fill="#888" fill-opacity="0.18" stroke="#000" stroke-width="1"/>
  <path d="M382.286345 741.480405 L351.815247 756.049970 L351.482713 749.563269 L326.267484 765.164148 L325.735430 754.785426 L301.118761 782.062366 L299.655612 753.520881 L278.898168 754.584990 L278.100087 739.016907 L298.857530 737.952799 L297.394381 709.411314 L324.671321 734.027982 L324.139266 723.649261 L350.817645 736.589867 L350.485111 730.103166 Z" fill="#888" fill-opacity="0.18" stroke="#000" stroke-width="1"/>
  <path d="M594.597539 603.906303 L581.624967 572.721814 L588.120185 572.725535 L573.845592 546.736476 L584.237941 546.742431 L558.271955 520.746673 L586.850914 520.763048 L586.862823 499.978350 L602.451346 499.987282 L602.439437 520.771979 L631.018396 520.788354 L605.022638 546.754340 L615.414987 546.760294 L601.110621 572.732978 L607.605839 572.736700 Z" fill="#888" fill-opacity="0.18" stroke="#000" stroke-width="1"/>
  <path d="M582.783626 962.700473 L571.516897 994.541026 L566.698066 990.185944 L559.879168 1019.042449 L552.169038 1012.074318 L554.024037 1048.769969 L532.821180 1029.607610 L518.884919 1045.027870 L507.319724 1034.575674 L521.255985 1019.155414 L500.053127 999.993056 L536.748779 998.138057 L529.038649 991.169927 L557.060403 981.475781 L552.241572 977.120700 Z" fill="#888" fill-opacity="0.18" stroke="#000" stroke-width="1"/>
  <path d="M296.921347 292.755270 L278.796911 321.255530 L275.078258 315.930167 L261.957843 342.520577 L256.007998 333.999997 L249.581158 370.176060 L233.219086 346.744463 L216.177924 358.644152 L207.253157 345.863281 L224.294319 333.963592 L207.932246 310.531995 L244.108309 316.958835 L238.158464 308.438255 L267.640952 305.279441 L263.922299 299.954078 Z" fill="#888" fill-opacity="0.18" stroke="#000" stroke-width="1"/>
  <path d="M907.118166 44.215626 L936.474046 60.918688 L931.337713 64.894358 L958.540324 76.693219 L950.322191 83.054290 L986.770203 87.696947 L964.170335 105.189892 L976.892477 121.626159 L964.565277 131.167766 L951.843134 114.731499 L929.243267 132.224444 L933.885923 95.776432 L925.667790 102.137503 L921.065046 72.845696 L915.928712 76.821366 Z" fill="#888" fill-opacity="0.18" stroke="#000" stroke-width="1"/>
  <path d="M989.131392 1039.431297 L958.355542 1025.517023 L963.101852 1021.083017 L934.923944 1011.852592 L942.518040 1004.758182 L905.796775 1003.508969 L926.680538 983.999340 L912.491717 968.811149 L923.882860 958.169534 L938.071681 973.357725 L958.955443 953.848096 L957.706231 990.569361 L965.300326 983.474950 L972.594471 1012.215004 L977.340781 1007.780997 Z" fill="#888" fill-opacity="0.18" stroke="#000" stroke-width="1"/>
  <path d="M43.336864 192.521173 L67.769445 169.201461 L70.101896 175.263436 L89.218406 152.597289 L92.950327 162.296449 L107.868427 128.718747 L118.131208 155.391438 L137.529529 147.927597 L143.127410 162.476338 L123.729089 169.940179 L133.991870 196.612870 L100.414168 181.694770 L104.146088 191.393931 L74.766796 187.387387 L77.099247 193.449362 Z" fill="#888" fill-opacity="0.18" stroke="#000" stroke-width="1"/>
  <path d="M849.400361 697.268916 L846.745228 663.598302 L852.918646 665.617406 L847.413545 636.481705 L857.291014 639.712273 L840.673761 606.942183 L867.836799 615.826244 L874.297934 596.071307 L889.114137 600.917158 L882.653002 620.672095 L909.816040 629.556155 L877.045950 646.173408 L886.923418 649.403975 L865.265481 669.655615 L871.438899 671.674720 Z" fill="#888" fill-opacity="0.18" stroke="#000" stroke-width="1"/>
  <path d="M327.616360 523.342531 L347.364376 550.742820 L341.039768 552.221737 L360.869573 574.266556 L350.750199 576.632822 L381.964299 596.015591 L354.136021 602.522823 L358.868554 622.761571 L343.689493 626.310971 L338.956960 606.072223 L311.128681 612.579455 L330.511451 581.365355 L320.392077 583.731621 L328.390550 555.179570 L322.065941 556.658486 Z" fill="#888" fill-opacity="0.18" stroke="#000" stroke-width="1"/>
  <path d="M414.279084 126.923221 L426.334650 158.473551 L419.842316 158.279988 L433.351199 184.675163 L422.963465 184.365462 L448.158550 211.109051 L419.592279 210.257374 L418.972878 231.032843 L403.391276 230.568292 L404.010677 209.792823 L375.444407 208.941146 L402.187995 183.746061 L391.800261 183.436360 L406.857648 157.892862 L400.365313 157.699299 Z" fill="#888" fill-opacity="0.18" stroke="#000" stroke-width="1"/>
  <path d="M778.865989 309.345692 L784.846023 276.104164 L790.304576 279.624401 L792.376710 250.045668 L801.110394 255.678048 L793.357133 219.762887 L817.374765 235.251932 L828.639524 217.784563 L841.740051 226.233133 L830.475291 243.700502 L854.492923 259.189546 L818.577763 266.942808 L827.311447 272.575187 L801.221681 286.664876 L806.680234 290.185114 Z" fill="#888" fill-opacity="0.18" stroke="#000" stroke-width="1"/>
  <path d="M573.887989 208.961829 L578.802721 242.377475 L572.507434 240.778341 L579.960531 269.477584 L569.888071 266.918970 L588.672685 298.496654 L560.973422 291.460465 L555.856193 311.605384 L540.747504 307.767463 L545.864732 287.622544 L518.165469 280.586356 L549.743152 261.801742 L539.670693 259.243128 L559.916860 237.580074 L553.621573 235.980940 Z" fill="#888" fill-opacity="0.18" stroke="#000" stroke-width="1"/>
  <path d="M623.506028 949.415508 L604.375089 921.580868 L610.731160 920.243619 L591.398807 897.761285 L601.568520 895.621686 L570.795239 875.546401 L598.761950 869.662504 L594.482752 849.323078 L609.737321 846.113679 L614.016519 866.453105 L641.983230 860.569207 L621.907945 891.342488 L632.077658 889.202888 L623.443301 917.569120 L629.799372 916.231870 Z" fill="#888" fill-opacity="0.18" stroke="#000" stroke-width="1"/>
  <path d="M671.578560 983.444302 L665.979545 950.136480 L672.306305 951.606168 L664.266188 923.065816 L674.389003 925.417318 L654.960719 894.231526 L682.798461 900.698155 L687.501464 880.452525 L702.685686 883.979777 L697.982683 904.225407 L725.820425 910.692036 L694.634633 930.120321 L704.757448 932.471822 L684.959824 954.545545 L691.286583 956.015234 Z" fill="#888" fill-opacity="0.18" stroke="#000" stroke-width="1"/>
  <path d="M863.400143 903.586360 L831.723229 891.867440 L836.146477 887.111103 L807.389983 879.882049 L814.467180 872.271910 L777.748838 873.604263 L797.211132 852.676381 L781.990854 838.521985 L792.606651 827.106776 L807.826929 841.261172 L827.289223 820.333290 L828.621576 857.051632 L835.698774 849.441493 L844.992975 877.598429 L849.416223 872.842092 Z" fill="#888" fill-opacity="0.18" stroke="#000" stroke-width="1"/>
  <path d="M1022.278080 381.914268 L1004.180009 353.397258 L1010.580815 352.293829 L992.085327 329.118150 L1002.326616 327.352663 L972.309678 306.163156 L1000.473223 301.308069 L996.942251 280.825490 L1012.304184 278.177261 L1015.835157 298.659839 L1043.998702 293.804752 L1022.809195 323.821691 L1033.050484 322.056205 L1023.382427 350.086971 L1029.783232 348.983542 Z" fill="#888" fill-opacity="0.18" stroke="#000" stroke-width="1"/>
  <path d="M573.630084 430.004537 L604.455330 443.809037 L599.724854 448.259931 L627.935479 457.389871 L620.366717 464.511301 L657.092201 465.629631 L636.278103 485.213566 L650.520965 500.351091 L639.167821 511.033238 L624.924959 495.895712 L604.110861 515.479647 L605.229191 478.754163 L597.660429 485.875594 L590.263900 457.161720 L585.533424 461.612614 Z" fill="#888" fill-opacity="0.18" stroke="#000" stroke-width="1"/>
  <path d="M56.285941 500.640659 L78.472260 475.174461 L81.351887 480.996455 L98.304686 456.669560 L102.912089 465.984751 L114.681559 431.178266 L127.351917 456.795041 L145.982299 447.580235 L152.893403 461.553021 L134.263021 470.767827 L146.933380 496.384603 L112.126895 484.615133 L116.734298 493.930324 L87.111141 492.640444 L89.990768 498.462438 Z" fill="#888" fill-opacity="0.18" stroke="#000" stroke-width="1"/>
  <path d="M42.366401 634.702076 L60.295779 606.078705 L64.050714 611.378548 L76.989231 584.699155 L82.997126 593.178904 L89.176761 556.959794 L105.698472 580.279104 L122.657970 568.263314 L131.669813 580.982938 L114.710315 592.998728 L131.232026 616.318038 L95.012916 610.138403 L101.020811 618.618152 L71.560583 621.978234 L75.315517 627.278077 Z" fill="#888" fill-opacity="0.18" stroke="#000" stroke-width="1"/>
  <path d="M714.181570 156.929039 L712.720734 190.672571 L706.838808 187.917427 L708.758472 217.506447 L699.347390 213.098218 L711.854521 247.646496 L685.974046 235.523865 L677.157587 254.346028 L663.040964 247.733684 L671.857423 228.911520 L645.976949 216.788889 L680.525227 204.281759 L671.114145 199.873529 L695.074956 182.407141 L689.193030 179.651997 Z" fill="#888" fill-opacity="0.18" stroke="#000" stroke-width="1"/>
  <path d="M863.137707 419.912993 L872.156567 452.461728 L865.711609 451.655258 L876.664636 479.209322 L866.352704 477.918970 L888.906654 506.924679 L860.548841 503.376211 L857.968138 524.000075 L842.500240 522.064547 L845.080944 501.440684 L816.723131 497.892216 L845.728840 475.338266 L835.416908 474.047914 L852.821694 450.042318 L846.376737 449.235849 Z" fill="#888" fill-opacity="0.18" stroke="#000" stroke-width="1"/>
  <path d="M809.674555 132.851541 L797.483952 164.349941 L792.794192 159.856165 L785.136562 188.501512 L777.632946 181.311471 L778.416884 218.045614 L757.781939 198.273001 L743.401857 213.280234 L732.146433 202.495172 L746.526515 187.487940 L725.891570 167.715327 L762.625713 166.931389 L755.122097 159.741348 L783.414672 150.868614 L778.724912 146.374838 Z" fill="#888" fill-opacity="0.18" stroke="#000" stroke-width="1"/>
  <path d="M294.920294 662.673458 L274.137583 689.297486 L270.948607 683.639015 L255.330468 708.843557 L250.228106 699.790002 L240.350124 735.179793 L226.318629 710.282518 L208.211520 720.487242 L200.557977 706.906910 L218.665086 696.702187 L204.633591 671.804912 L240.023382 681.682893 L234.921020 672.629339 L264.570654 672.322072 L261.381678 666.663600 Z" fill="#888" fill-opacity="0.18" stroke="#000" stroke-width="1"/>
  <path d="M364.856262 1025.898525 L332.172216 1034.413992 L333.078054 1027.982248 L305.358236 1038.508735 L306.807576 1028.217945 L277.457251 1050.321570 L281.442936 1022.021897 L260.861356 1019.123217 L263.035366 1003.687032 L283.616946 1006.585712 L287.602631 978.286040 L309.706256 1007.636365 L311.155596 997.345575 L334.889729 1015.118761 L335.795566 1008.687017 Z" fill="#888" fill-opacity="0.18" stroke="#000" stroke-width="1"/>
  <path d="M416.217181 927.042595 L442.731287 906.119828 L444.484285 912.374016 L465.644442 891.602811 L468.449238 901.609512 L486.453998 869.580768 L494.167190 897.099195 L514.180591 891.489601 L518.387786 906.499653 L498.374385 912.109246 L506.087576 939.627673 L474.058832 921.622913 L476.863629 931.629614 L447.990281 924.882392 L449.743279 931.136580 Z" fill="#888" fill-opacity="0.18" stroke="#000" stroke-width="1"/>
  <path d="M132.858272 695.438970 L162.949922 710.776916 L158.001496 714.984166 L185.717032 725.521921 L177.799550 732.253520 L214.422253 735.218226 L192.649178 753.730124 L206.112376 769.565088 L194.236154 779.662487 L180.772955 763.827523 L158.999880 782.339421 L161.964587 745.716719 L154.047105 752.448318 L148.104644 723.398665 L143.156218 727.605914 Z" fill="#888" fill-opacity="0.18" stroke="#000" stroke-width="1"/>
  <path d="M853.346288 427.148390 L853.847030 393.376963 L859.804920 395.963739 L857.044663 366.441270 L866.577288 370.580111 L853.092828 336.401446 L879.307547 347.783258 L887.585229 328.718008 L901.884166 334.926269 L893.606485 353.991519 L919.821204 365.373332 L885.642539 378.857793 L895.175164 382.996633 L871.720702 401.137290 L877.678593 403.724066 Z" fill="#888" fill-opacity="0.18" stroke="#000" stroke-width="1"/>
  <path d="M1006.805006 730.689661 L999.187795 697.784675 L1005.592320 698.866308 L995.828898 670.868616 L1006.076138 672.599229 L984.784570 642.654597 L1012.964480 647.413782 L1016.425706 626.919303 L1031.796566 629.515222 L1028.335340 650.009702 L1056.515249 654.768887 L1026.570617 676.060455 L1036.817857 677.791068 L1018.401370 701.029574 L1024.805895 702.111208 Z" fill="#888" fill-opacity="0.18" stroke="#000" stroke-width="1"/>
  <path d="M146.751995 805.309022 L116.702430 789.888788 L121.662351 785.695095 L93.975756 775.081536 L101.911629 768.371628 L65.297176 765.306715 L87.120827 746.854469 L73.701011 730.982722 L85.604821 720.917861 L99.024637 736.789607 L120.848288 718.337360 L117.783375 754.951812 L125.719248 748.241904 L131.582192 777.307710 L136.542113 773.114018 Z" fill="#888" fill-opacity="0.18" stroke="#000" stroke-width="1"/>
  <path d="M1056.744809 165.767840 L1048.140993 198.428739 L1042.979577 194.485688 L1038.562485 223.806065 L1030.304220 217.497182 L1035.177677 253.915052 L1012.467447 236.565625 L999.849682 253.082155 L987.462284 243.618831 L1000.080049 227.102301 L977.369820 209.752873 L1013.787690 204.879417 L1005.529424 198.570534 L1032.656746 186.599584 L1027.495330 182.656533 Z" fill="#888" fill-opacity="0.18" stroke="#000" stroke-width="1"/>
  <path d="M743.348203 838.418321 L732.944835 806.285318 L739.418398 806.815267 L727.296357 779.755125 L737.654059 780.603044 L713.879604 752.588992 L742.363283 754.920770 L744.059121 734.205367 L759.595673 735.477247 L757.899835 756.192649 L786.383514 758.524428 L758.369462 782.298883 L768.727163 783.146802 L752.365525 807.875166 L758.839088 808.405116 Z" fill="#888" fill-opacity="0.18" stroke="#000" stroke-width="1"/>
  <path d="M965.229222 571.804734 L934.050900 558.817346 L938.662442 554.243339 L910.221018 545.859986 L917.599486 538.541574 L880.857286 538.391435 L901.148072 518.265801 L886.511248 503.508866 L897.578949 492.531247 L912.215774 507.288183 L932.506560 487.162549 L932.356422 523.904749 L939.734890 516.586337 L947.885527 545.095323 L952.497070 540.521316 Z" fill="#888" fill-opacity="0.18" stroke="#000" stroke-width="1"/>
  <path d="M273.019701 451.577123 L304.251683 464.434932 L299.659174 469.028049 L328.135165 477.293227 L320.787150 484.642215 L357.529657 484.639782 L337.322616 504.849499 L352.020593 519.545529 L340.998570 530.569011 L326.300594 515.872981 L306.093554 536.082699 L306.091120 499.340192 L298.743106 506.689180 L290.474156 478.214284 L285.881647 482.807402 Z" fill="#888" fill-opacity="0.18" stroke="#000" stroke-width="1"/>
  <path d="M612.252004 65.066586 L644.939969 56.566179 L644.031168 62.997504 L671.755833 52.483791 L670.301751 62.773912 L699.662257 40.683812 L695.663534 68.981646 L716.243776 71.889808 L714.062654 87.324990 L693.482412 84.416827 L689.483689 112.714661 L667.393589 83.354154 L665.939508 93.644276 L642.213566 75.860156 L641.304766 82.291482 Z" fill="#888" fill-opacity="0.18" stroke="#000" stroke-width="1"/>
  <path d="M541.109058 426.729599 L553.895106 395.468170 L558.498759 400.050118 L566.698518 371.555221 L574.064362 378.886339 L573.977547 342.143935 L594.233618 362.304509 L608.895853 347.572821 L619.944619 358.569497 L605.282383 373.301185 L625.538454 393.461759 L588.796050 393.548575 L596.161894 400.879693 L567.706064 409.214016 L572.309716 413.795964 Z" fill="#888" fill-opacity="0.18" stroke="#000" stroke-width="1"/>
  <path d="M766.050982 661.130433 L739.677556 640.030613 L745.373784 636.909577 L720.357941 620.990946 L729.471904 615.997289 L694.202853 605.696523 L719.266253 591.963966 L709.278939 573.736038 L722.949884 566.245553 L732.937198 584.473480 L758.000599 570.740923 L747.699832 606.009975 L756.813796 601.016318 L756.766238 630.667506 L762.462466 627.546470 Z" fill="#888" fill-opacity="0.18" stroke="#000" stroke-width="1"/>
  <path d="M1053.169676 918.495317 L1037.739051 948.539548 L1033.547074 943.578177 L1022.923942 971.261101 L1016.216778 963.322908 L1013.139205 999.936299 L994.694505 978.106268 L978.818120 991.520595 L968.757375 979.613306 L984.633760 966.198979 L966.189061 944.368949 L1002.802452 947.446522 L996.095288 939.508330 L1025.163120 933.655436 L1020.971143 928.694066 Z" fill="#888" fill-opacity="0.18" stroke="#000" stroke-width="1"/>
</svg>
