<?xml version="1.0" encoding="UTF-8"?>
<svg xmlns="http://www.w3.org/2000/svg" width="1100" height="1100" viewBox="0 0 1100 1100">
  <rect x="0" y="0" width="1100" height="1100" fill="white"/>
  <text x="10.0" y="18.0" font-family="monospace" font-size="12">prefix=N132_job5048534_task132 run_id=132 L=9.74263929995 feas=0.000e+00 N=132</text>
  <rect x="40.000000" y="40.000000" width="1020.000000" height="1020.000000" fill="none" stroke="#000" stroke-width="2"/>
  <path d="M578.633272 97.485505 L548.908068 114.043272 L548.167429 107.541922 L523.791433 124.807448 L522.606411 114.405288 L499.563565 143.373245 L496.304754 114.767303 L475.500433 117.137348 L473.722900 101.534107 L494.527221 99.164063 L491.268409 70.558121 L520.236367 93.600967 L519.051344 83.198806 L546.686151 94.539221 L545.945512 88.037871 Z" fill="#888" fill-opacity="0.18" stroke="#000" stroke-width="1"/>
  <path d="M492.873567 301.271903 L526.108106 293.977190 L524.944849 300.416362 L553.260702 290.903210 L551.399491 301.205885 L581.809205 280.102223 L576.690877 308.434580 L597.296227 312.157001 L594.504412 327.611014 L573.899061 323.888593 L568.780732 352.220950 L547.677070 321.811236 L545.815860 332.113911 L522.618336 313.294706 L521.455079 319.733878 Z" fill="#888" fill-opacity="0.18" stroke="#000" stroke-width="1"/>
  <path d="M568.319983 575.426636 L536.057244 564.616314 L540.362533 559.688781 L511.180763 553.308197 L518.069226 545.424143 L481.137935 547.913120 L500.081208 526.231972 L484.313101 512.455046 L494.645795 500.628966 L510.413902 514.405892 L529.357176 492.724745 L531.846152 529.656036 L538.734615 521.771983 L548.973112 549.833714 L553.278401 544.906180 Z" fill="#888" fill-opacity="0.18" stroke="#000" stroke-width="1"/>
  <path d="M830.981881 530.108306 L806.630198 506.343986 L812.649877 503.778918 L789.146312 485.343353 L798.777798 481.239245 L764.438812 467.420803 L790.925397 456.134504 L782.717179 436.871533 L797.164407 430.715369 L805.372625 449.978340 L831.859210 438.692041 L818.040768 473.031027 L827.672254 468.926918 L824.689233 498.648782 L830.708912 496.083713 Z" fill="#888" fill-opacity="0.18" stroke="#000" stroke-width="1"/>
  <path d="M409.206777 122.336682 L375.183737 121.912249 L377.775577 115.904049 L348.040729 118.754728 L352.187673 109.141608 L317.787513 122.807048 L329.191610 96.370968 L309.965370 88.077079 L316.185786 73.657399 L335.412026 81.951288 L346.816123 55.515208 L360.481562 89.915369 L364.628506 80.302249 L382.959258 103.887649 L385.551098 97.879449 Z" fill="#888" fill-opacity="0.18" stroke="#000" stroke-width="1"/>
  <path d="M292.727338 318.816785 L323.109520 303.497830 L323.581659 310.024175 L348.648337 293.777662 L349.403758 304.219815 L373.620588 276.225879 L375.697996 304.941800 L396.582303 303.430957 L397.715435 319.094187 L376.831128 320.605029 L378.908537 349.320950 L350.914601 325.104121 L351.670022 335.546274 L324.525935 323.076867 L324.998074 329.603212 Z" fill="#888" fill-opacity="0.18" stroke="#000" stroke-width="1"/>
  <path d="M247.833393 604.526224 L245.689899 638.484328 L239.820376 635.592132 L241.164544 665.433057 L231.773306 660.805543 L243.682616 695.852421 L217.856713 683.126759 L208.601686 701.909234 L194.514830 694.967964 L203.769857 676.185489 L177.943954 663.459827 L212.990831 651.550517 L203.599594 646.923003 L228.081329 629.807740 L222.211806 626.915544 Z" fill="#888" fill-opacity="0.18" stroke="#000" stroke-width="1"/>
  <path d="M289.652990 906.234390 L275.046284 936.965345 L270.671463 932.099439 L260.832446 960.303717 L253.832731 952.518267 L251.868393 989.481176 L232.619179 968.071190 L217.048280 982.070618 L206.548709 970.392444 L222.119608 956.393016 L202.870394 934.983029 L239.833303 936.947368 L232.833589 929.161919 L261.921820 922.367627 L257.546999 917.501721 Z" fill="#888" fill-opacity="0.18" stroke="#000" stroke-width="1"/>
  <path d="M799.676968 380.103781 L812.727138 348.680215 L817.340036 353.321041 L825.754965 324.659629 L833.135603 332.084951 L833.247314 295.070052 L853.544068 315.489688 L868.394712 300.728412 L879.465669 311.866396 L864.615024 326.627671 L884.911778 347.047307 L847.896878 346.935596 L855.277516 354.360918 L826.565833 362.602694 L831.178732 367.243520 Z" fill="#888" fill-opacity="0.18" stroke="#000" stroke-width="1"/>
  <path d="M227.633278 146.866581 L195.977628 134.389914 L200.533815 129.693398 L171.724140 121.800983 L179.014040 114.286558 L142.003228 114.847872 L162.050452 94.183203 L147.021602 79.603403 L157.956451 68.331766 L172.985301 82.911565 L193.032526 62.246896 L193.593839 99.257708 L200.883739 91.743283 L209.646190 120.300367 L214.202377 115.603851 Z" fill="#888" fill-opacity="0.18" stroke="#000" stroke-width="1"/>
  <path d="M984.570591 772.854353 L962.991994 746.546340 L969.258106 744.661679 L947.934015 723.743487 L957.959794 720.728029 L925.356702 703.202228 L952.927593 694.909718 L946.896677 674.858161 L961.935345 670.334974 L967.966261 690.386531 L995.537152 682.094022 L978.011351 714.697113 L988.037129 711.681655 L981.790329 740.892356 L988.056440 739.007695 Z" fill="#888" fill-opacity="0.18" stroke="#000" stroke-width="1"/>
  <path d="M184.029281 865.588724 L213.359845 848.341539 L214.252056 854.823827 L238.218347 836.993952 L239.645883 847.365613 L262.006196 817.867619 L265.931921 846.389688 L286.675244 843.534616 L288.816548 859.092108 L268.073225 861.947180 L271.998950 890.469250 L242.500956 868.108936 L243.928492 878.480598 L216.036476 867.788404 L216.928686 874.270692 Z" fill="#888" fill-opacity="0.18" stroke="#000" stroke-width="1"/>
  <path d="M727.510295 148.036298 L719.815340 114.892142 L726.268071 115.977665 L716.414152 87.778589 L726.738522 89.515425 L705.269686 59.362410 L733.661705 64.138709 L737.135377 43.489968 L752.621932 46.095222 L749.148260 66.743963 L777.540279 71.520262 L747.387263 92.989097 L757.711633 94.725933 L739.173534 118.148710 L745.626266 119.234232 Z" fill="#888" fill-opacity="0.18" stroke="#000" stroke-width="1"/>
  <path d="M78.943072 436.448237 L78.475949 402.425756 L84.549993 404.859291 L80.921234 375.209338 L90.639705 379.102993 L76.077666 345.072679 L102.803460 355.780230 L110.590771 336.343289 L125.168477 342.183772 L117.381166 361.620713 L144.106961 372.328265 L110.076646 386.890304 L119.795117 390.783959 L96.698082 409.726359 L102.772126 412.159894 Z" fill="#888" fill-opacity="0.18" stroke="#000" stroke-width="1"/>
  <path d="M906.276744 170.107105 L919.949311 138.949308 L924.468997 143.680961 L933.452304 115.192582 L940.683800 122.763228 L941.531673 85.757871 L961.418289 106.577148 L976.559581 92.114155 L987.406826 103.470123 L972.265534 117.933117 L992.152149 138.752393 L955.146793 137.904519 L962.378290 145.475165 L933.508367 153.144269 L938.028053 157.875922 Z" fill="#888" fill-opacity="0.18" stroke="#000" stroke-width="1"/>
  <path d="M158.191151 580.599250 L184.934704 559.562859 L186.690901 565.866181 L208.040557 544.974082 L210.850472 555.059398 L229.038973 522.821319 L236.766241 550.555938 L256.936873 544.936107 L261.151746 560.064080 L240.981114 565.683912 L248.708383 593.418530 L216.470304 575.230030 L219.280219 585.315346 L190.203296 578.472826 L191.959493 584.776148 Z" fill="#888" fill-opacity="0.18" stroke="#000" stroke-width="1"/>
  <path d="M483.906959 555.754009 L516.331826 566.067855 L512.102677 571.060890 L541.378945 576.992809 L534.612307 584.981665 L571.501044 581.926121 L552.892788 603.895476 L568.870500 617.428753 L558.720542 629.412037 L542.742830 615.878760 L524.134574 637.848115 L521.079029 600.959378 L514.312391 608.948234 L503.644378 581.046960 L499.415229 586.039995 Z" fill="#888" fill-opacity="0.18" stroke="#000" stroke-width="1"/>
  <path d="M51.666483 58.585639 L76.320760 82.035885 L70.334453 84.677898 L94.072381 102.810696 L84.494290 107.037917 L119.007570 120.415091 L92.667821 132.039949 L101.122263 151.196131 L86.755127 157.536962 L78.300685 138.380781 L51.960935 150.005639 L65.338109 115.492359 L55.760018 119.719580 L58.361840 89.961924 L52.375533 92.603938 Z" fill="#888" fill-opacity="0.18" stroke="#000" stroke-width="1"/>
  <path d="M663.750642 196.101404 L650.404329 227.400339 L645.835458 222.716161 L637.150262 251.296835 L629.840069 243.802151 L629.378840 280.814345 L609.275809 260.203962 L594.286439 274.824348 L583.321150 263.582321 L598.310519 248.961935 L578.207488 228.351552 L615.219683 228.812781 L607.909490 221.318096 L636.697717 213.347805 L632.128846 208.663627 Z" fill="#888" fill-opacity="0.18" stroke="#000" stroke-width="1"/>
  <path d="M40.685510 874.533939 L74.405507 879.084674 L71.103602 884.733879 L100.964616 885.513248 L95.681567 894.551977 L131.486011 885.162776 L116.957627 910.019281 L135.035085 920.585378 L127.110512 934.143471 L109.033055 923.577374 L94.504671 948.433878 L85.115470 912.629435 L79.832422 921.668164 L64.499791 896.032290 L61.197886 901.681496 Z" fill="#888" fill-opacity="0.18" stroke="#000" stroke-width="1"/>
  <path d="M289.532632 954.147429 L294.736712 920.522067 L300.320794 923.932951 L301.679350 894.092678 L310.613881 899.550092 L301.921089 863.570228 L326.491050 878.578118 L337.405879 860.709055 L350.807676 868.895177 L339.892847 886.764240 L364.462808 901.772130 L328.482943 910.464921 L337.417475 915.922336 L311.488958 930.754719 L317.073040 934.165603 Z" fill="#888" fill-opacity="0.18" stroke="#000" stroke-width="1"/>
  <path d="M943.295208 433.459559 L909.354069 435.856741 L911.438973 429.654380 L882.042742 434.959958 L885.378588 425.036181 L852.229530 441.506007 L861.403107 414.215620 L841.555553 407.543927 L846.559323 392.658262 L866.406877 399.329955 L875.580455 372.039568 L892.050281 405.188627 L895.386128 395.264849 L915.608781 417.249659 L917.693685 411.047298 Z" fill="#888" fill-opacity="0.18" stroke="#000" stroke-width="1"/>
  <path d="M898.043612 196.537759 L894.107169 230.334975 L888.398820 227.136404 L888.162904 257.006656 L879.029546 251.888942 L889.068658 287.516621 L863.951923 273.442909 L853.716496 291.709626 L840.016459 284.033055 L850.251886 265.766339 L825.135151 251.692627 L860.762830 241.653515 L851.629472 236.535802 L876.982123 220.739263 L871.273774 217.540692 Z" fill="#888" fill-opacity="0.18" stroke="#000" stroke-width="1"/>
  <path d="M967.723240 565.464007 L965.996148 599.445834 L960.091614 596.625801 L961.801455 626.448007 L952.354202 621.935954 L964.692202 656.834221 L938.712255 644.426075 L929.688149 663.320582 L915.517269 656.552502 L924.541375 637.657995 L898.561428 625.249849 L933.459695 612.911848 L924.012441 608.399795 L948.282548 590.985734 L942.378014 588.165701 Z" fill="#888" fill-opacity="0.18" stroke="#000" stroke-width="1"/>
  <path d="M896.608286 290.106365 L898.760947 256.148841 L904.629689 259.042622 L903.293578 229.201335 L912.683566 233.831384 L900.783718 198.781292 L926.606184 211.513926 L935.866282 192.733951 L949.951263 199.679024 L940.691166 218.458999 L966.513633 231.191633 L931.463541 243.091481 L940.853529 247.721530 L916.367174 264.830182 L922.235917 267.723963 Z" fill="#888" fill-opacity="0.18" stroke="#000" stroke-width="1"/>
  <path d="M262.613866 257.542970 L289.776728 237.050866 L291.405292 243.388364 L313.172442 222.931611 L315.778145 233.071608 L334.613880 201.207359 L341.779563 229.092350 L362.059557 223.880944 L365.968111 239.090940 L345.688117 244.302345 L352.853800 272.187336 L320.989551 253.351602 L323.595254 263.491598 L294.662420 256.063360 L296.290985 262.400858 Z" fill="#888" fill-opacity="0.18" stroke="#000" stroke-width="1"/>
  <path d="M714.750630 908.183944 L747.208975 918.391943 L742.996139 923.398750 L772.291606 929.235118 L765.551069 937.246009 L802.429640 934.070125 L783.893162 956.100076 L799.914944 969.581150 L789.804138 981.597487 L773.782356 968.116412 L755.245878 990.146363 L752.069994 953.267791 L745.329456 961.278682 L734.570467 933.412364 L730.357631 938.419170 Z" fill="#888" fill-opacity="0.18" stroke="#000" stroke-width="1"/>
  <path d="M527.828977 179.985208 L493.893872 177.504065 L496.844305 171.663598 L466.991487 172.710894 L471.712179 163.366148 L436.548582 174.926284 L449.530486 149.228231 L430.840993 139.786847 L437.922031 125.769727 L456.611524 135.211111 L469.593427 109.513058 L481.153563 144.676655 L485.874255 135.331908 L502.745170 159.982665 L505.695603 154.142198 Z" fill="#888" fill-opacity="0.18" stroke="#000" stroke-width="1"/>
  <path d="M154.015054 482.921994 L134.212982 455.252059 L140.589455 453.783491 L120.686942 431.508448 L130.889299 429.158739 L99.509134 409.527119 L127.565616 403.065419 L122.866198 382.660705 L138.169734 379.136142 L142.869152 399.540856 L170.925634 393.079157 L151.294013 424.459322 L161.496370 422.109613 L153.342401 450.846355 L159.718874 449.377787 Z" fill="#888" fill-opacity="0.18" stroke="#000" stroke-width="1"/>
  <path d="M692.674522 656.694008 L660.109008 666.554775 L660.767268 660.044568 L633.278268 671.733983 L634.331484 661.317652 L605.657616 684.725440 L608.553960 656.080529 L587.721297 653.974097 L589.301121 638.349600 L610.133784 640.456032 L613.030127 611.811121 L636.437916 640.484989 L637.491132 630.068658 L662.083788 647.024153 L662.742048 640.513946 Z" fill="#888" fill-opacity="0.18" stroke="#000" stroke-width="1"/>
  <path d="M575.494087 761.394299 L549.024372 740.014365 L554.777446 736.896955 L529.651044 720.742961 L538.855962 715.755106 L503.374027 705.212450 L528.687552 691.495847 L518.711840 673.086010 L532.519217 665.604227 L542.494929 684.014063 L567.808453 670.297459 L557.265798 705.779394 L566.470716 700.791538 L566.283593 730.662135 L572.036667 727.544725 Z" fill="#888" fill-opacity="0.18" stroke="#000" stroke-width="1"/>
  <path d="M353.541438 649.578255 L387.373479 653.203222 L384.227624 658.940791 L414.098781 658.901560 L409.065413 668.081670 L444.599110 657.714814 L430.757347 682.960118 L449.117568 693.026854 L441.567515 706.797020 L423.207295 696.730284 L409.365532 721.975587 L398.998677 686.441891 L393.965308 695.622001 L377.935914 670.415929 L374.790059 676.153498 Z" fill="#888" fill-opacity="0.18" stroke="#000" stroke-width="1"/>
  <path d="M730.756446 212.168386 L755.340034 235.692728 L749.345803 238.316712 L773.029049 256.520871 L763.438279 260.719246 L797.911141 274.200234 L771.536524 285.745765 L779.933274 304.927305 L765.547119 311.224868 L757.150369 292.043328 L730.775751 303.588859 L744.256739 269.115996 L734.665969 273.314371 L737.357340 243.564681 L731.363109 246.188665 Z" fill="#888" fill-opacity="0.18" stroke="#000" stroke-width="1"/>
  <path d="M935.793782 418.891775 L921.170507 388.168702 L927.705910 387.845271 L912.034299 362.415207 L922.490944 361.897717 L895.055607 337.049829 L923.811381 335.626732 L922.776402 314.713442 L938.461369 313.937207 L939.496349 334.850497 L968.252123 333.427401 L943.404234 360.862738 L953.860879 360.345248 L940.776717 387.198409 L947.312120 386.874978 Z" fill="#888" fill-opacity="0.18" stroke="#000" stroke-width="1"/>
  <path d="M391.797090 402.908888 L357.904031 405.910223 L359.878133 399.671712 L330.581064 405.500030 L333.739626 395.518412 L300.889174 412.576052 L309.575221 385.126601 L289.611984 378.809476 L294.349828 363.837048 L314.313065 370.154174 L322.999112 342.704723 L340.056751 375.555175 L343.215314 365.573557 L363.826336 387.194689 L365.800438 380.956177 Z" fill="#888" fill-opacity="0.18" stroke="#000" stroke-width="1"/>
  <path d="M802.503297 177.257266 L786.795867 147.074091 L793.315619 146.518273 L776.748893 121.662063 L787.180497 120.772755 L758.878217 96.917017 L787.565126 94.471419 L785.786509 73.608212 L801.433915 72.274249 L803.212532 93.137456 L831.899442 90.691858 L808.043704 118.994138 L818.475307 118.104829 L806.355124 145.406637 L812.874876 144.850819 Z" fill="#888" fill-opacity="0.18" stroke="#000" stroke-width="1"/>
  <path d="M822.670790 899.499956 L855.813851 891.800288 L854.729246 898.253174 L882.926920 888.395244 L881.191552 898.719861 L911.341515 877.246738 L906.569254 905.639435 L927.218488 909.110170 L924.615436 924.597096 L903.966202 921.126361 L899.193941 949.519058 L877.720817 919.369096 L875.985449 929.693713 L852.560037 911.158945 L851.475432 917.611831 Z" fill="#888" fill-opacity="0.18" stroke="#000" stroke-width="1"/>
  <path d="M749.508594 533.508997 L724.491039 510.446705 L730.435348 507.711509 L706.417087 489.951703 L715.927982 485.575391 L681.209965 472.738936 L707.364924 460.704077 L698.612299 441.682288 L712.878641 435.117819 L721.631266 454.139608 L747.786225 442.104749 L734.949770 476.822766 L744.460665 472.446453 L742.323966 502.241119 L748.268275 499.505924 Z" fill="#888" fill-opacity="0.18" stroke="#000" stroke-width="1"/>
  <path d="M808.005261 926.847693 L784.324880 902.414377 L790.413662 900.017957 L767.432660 880.934950 L777.174712 877.100678 L743.233902 862.331228 L770.024545 851.786980 L762.356001 832.302876 L776.969080 826.551468 L784.637624 846.035572 L811.428267 835.491324 L796.658817 869.432134 L806.400869 865.597862 L802.591227 895.225117 L808.680010 892.828697 Z" fill="#888" fill-opacity="0.18" stroke="#000" stroke-width="1"/>
  <path d="M794.595789 654.051071 L772.811162 680.188735 L769.782629 674.388382 L753.243992 699.263290 L748.398339 689.982726 L737.311061 725.298269 L723.985516 699.776717 L705.424387 709.468023 L698.155908 695.547177 L716.717036 685.855871 L703.391491 660.334320 L738.707033 671.421598 L733.861380 662.141034 L763.725563 662.787677 L760.697030 656.987325 Z" fill="#888" fill-opacity="0.18" stroke="#000" stroke-width="1"/>
  <path d="M201.320353 294.880244 L235.342194 294.368659 L232.916600 300.445878 L262.561785 296.778374 L258.680834 306.501924 L292.692089 291.895425 L282.019473 318.635190 L301.466574 326.397092 L295.645148 340.982419 L276.198046 333.220516 L265.525430 359.960281 L250.918931 325.949026 L247.037980 335.672577 L228.065411 312.600317 L225.639817 318.677536 Z" fill="#888" fill-opacity="0.18" stroke="#000" stroke-width="1"/>
  <path d="M749.869059 910.396733 L722.262234 890.506771 L727.834921 887.077302 L701.857133 872.331383 L710.773433 866.844233 L674.764808 858.271358 L699.284633 843.181696 L688.310333 825.349096 L701.684783 817.118371 L712.659083 834.950971 L737.178908 819.861308 L728.606033 855.869933 L737.522334 850.382783 L738.980296 880.218365 L744.552984 876.788896 Z" fill="#888" fill-opacity="0.18" stroke="#000" stroke-width="1"/>
  <path d="M42.666947 178.731661 L76.679241 177.777048 L74.332997 183.885341 L103.927905 179.832073 L100.173914 189.605342 L133.992062 174.557147 L123.668588 201.433636 L143.215124 208.941617 L137.584138 223.601520 L118.037602 216.093538 L107.714127 242.970026 L92.665933 209.151879 L88.911942 218.925147 L69.640508 196.101926 L67.294264 202.210219 Z" fill="#888" fill-opacity="0.18" stroke="#000" stroke-width="1"/>
  <path d="M411.036862 384.649812 L428.669630 413.750206 L422.199680 414.727887 L440.344293 438.456785 L429.992375 440.021075 L459.782896 461.990147 L431.315120 466.291944 L434.443699 486.995781 L418.915821 489.342216 L415.787242 468.638379 L387.319465 472.940176 L409.288537 443.149655 L398.936619 444.713944 L409.259782 416.683249 L402.789833 417.660931 Z" fill="#888" fill-opacity="0.18" stroke="#000" stroke-width="1"/>
  <path d="M511.012876 690.646158 L483.679154 670.382519 L489.297975 667.029169 L463.523169 651.931256 L472.513282 646.565896 L436.624599 637.504014 L461.347410 622.749273 L450.616689 604.769047 L464.101859 596.721007 L474.832579 614.701233 L499.555390 599.946493 L490.493508 635.835176 L499.483621 630.469816 L500.535616 660.322468 L506.154437 656.969118 Z" fill="#888" fill-opacity="0.18" stroke="#000" stroke-width="1"/>
  <path d="M200.647290 420.606086 L228.182465 440.595121 L222.597490 444.004543 L248.522123 458.843715 L239.586163 464.298790 L275.563750 473.001001 L250.989861 488.002458 L261.900011 505.874378 L248.496071 514.056990 L237.585921 496.185071 L213.012031 511.186527 L221.714243 475.208940 L212.778283 480.664015 L211.427540 450.823387 L205.842565 454.232809 Z" fill="#888" fill-opacity="0.18" stroke="#000" stroke-width="1"/>
  <path d="M1052.381296 557.478047 L1018.415363 559.493677 L1020.569832 553.315136 L991.115837 558.290049 L994.562987 548.404384 L961.230948 564.500670 L970.710612 537.315091 L950.939282 530.420790 L956.110008 515.592292 L975.881338 522.486594 L985.361002 495.301015 L1001.457289 528.633054 L1004.904439 518.747389 L1024.878770 540.958055 L1027.033239 534.779514 Z" fill="#888" fill-opacity="0.18" stroke="#000" stroke-width="1"/>
  <path d="M953.125134 408.509002 L979.646227 387.192833 L981.468542 393.477359 L1002.597551 372.362138 L1005.513257 382.417380 L1023.362097 349.990012 L1031.380287 377.641927 L1051.490771 371.810516 L1055.864329 386.893378 L1035.753846 392.724789 L1043.772036 420.376703 L1011.344668 402.527863 L1014.260373 412.583105 L985.113174 406.046411 L986.935490 412.330937 Z" fill="#888" fill-opacity="0.18" stroke="#000" stroke-width="1"/>
  <path d="M463.728859 578.482177 L447.742640 548.445730 L454.256966 547.829570 L437.460810 523.127815 L447.883732 522.141960 L419.361788 498.549292 L448.024824 495.838190 L446.053113 474.992345 L461.687497 473.513562 L463.659208 494.359407 L492.322244 491.648304 L468.729577 520.170249 L479.152499 519.184394 L467.285619 546.597251 L473.799946 545.981091 Z" fill="#888" fill-opacity="0.18" stroke="#000" stroke-width="1"/>
  <path d="M917.011524 644.898886 L883.749341 652.066494 L884.937206 645.631816 L856.585192 655.036650 L858.485775 644.741166 L827.995606 665.728420 L833.222209 637.415837 L812.631239 633.614672 L815.482113 618.171444 L836.073083 621.972610 L841.299686 593.660027 L862.286941 624.150196 L864.187524 613.854711 L887.312934 632.762460 L888.500798 626.327782 Z" fill="#888" fill-opacity="0.18" stroke="#000" stroke-width="1"/>
  <path d="M368.934871 758.268682 L377.225845 791.268791 L370.754599 790.299725 L381.115075 818.316651 L370.761083 816.766145 L392.769800 846.527389 L364.296321 842.263499 L361.195311 862.971484 L345.664322 860.645726 L348.765333 839.937741 L320.291854 835.673851 L350.053099 813.665134 L339.699106 812.114629 L357.812109 788.361593 L351.340864 787.392527 Z" fill="#888" fill-opacity="0.18" stroke="#000" stroke-width="1"/>
  <path d="M262.510279 50.697619 L274.228340 82.641858 L267.691044 82.359248 L280.942653 109.130173 L270.482980 108.677996 L295.501721 135.957620 L266.737620 134.714135 L265.833267 155.633481 L250.143758 154.955216 L251.048111 134.035870 L222.284010 132.792384 L249.563634 107.773643 L239.103961 107.321467 L254.616453 81.794027 L248.079158 81.511417 Z" fill="#888" fill-opacity="0.18" stroke="#000" stroke-width="1"/>
  <path d="M425.963415 1056.023253 L450.181912 1032.123215 L452.633213 1038.190111 L471.507934 1015.037735 L475.430016 1024.744769 L489.892394 990.671981 L500.678119 1017.366322 L520.092186 1009.522158 L525.975309 1024.082708 L506.561242 1031.926872 L517.346968 1058.621214 L483.274180 1044.158835 L487.196262 1053.865869 L457.535816 1050.323903 L459.987117 1056.390799 Z" fill="#888" fill-opacity="0.18" stroke="#000" stroke-width="1"/>
  <path d="M599.458196 964.092755 L594.268906 997.720403 L588.683324 994.311975 L587.337892 1024.152842 L578.400961 1018.699358 L587.109576 1054.675396 L562.533017 1039.678313 L551.626048 1057.552174 L538.220652 1049.371947 L549.127621 1031.498086 L524.551062 1016.501004 L560.527100 1007.792389 L551.590170 1002.338904 L577.512161 987.495119 L571.926579 984.086691 Z" fill="#888" fill-opacity="0.18" stroke="#000" stroke-width="1"/>
  <path d="M281.271297 819.308041 L255.873967 796.664653 L261.772004 793.831058 L237.461943 776.472818 L246.898802 771.939066 L211.972274 759.681298 L237.923637 747.213480 L228.856133 728.339761 L243.011422 721.539133 L252.078926 740.412852 L278.030289 727.945034 L265.772521 762.871562 L275.209380 758.337810 L273.568078 788.163868 L279.466115 785.330273 Z" fill="#888" fill-opacity="0.18" stroke="#000" stroke-width="1"/>
  <path d="M607.155477 320.579501 L641.174474 319.904744 L638.778055 325.993527 L668.405309 322.183878 L664.571039 331.925931 L698.511846 317.156473 L687.967604 343.947119 L707.451710 351.615658 L701.700306 366.228738 L682.216200 358.560198 L671.671958 385.350844 L656.902500 351.410037 L653.068230 361.152090 L633.985218 338.171093 L631.588800 344.259876 Z" fill="#888" fill-opacity="0.18" stroke="#000" stroke-width="1"/>
  <path d="M926.830579 724.257540 L914.771398 756.074572 L910.015355 751.580559 L902.502593 780.491560 L894.892925 773.301137 L895.941040 810.301364 L875.014453 790.527703 L860.633608 805.747039 L849.219106 794.961406 L863.599950 779.742069 L842.673363 759.968408 L879.673589 758.920293 L872.063920 751.729871 L900.503270 742.592531 L895.747227 738.098517 Z" fill="#888" fill-opacity="0.18" stroke="#000" stroke-width="1"/>
  <path d="M974.225037 847.829016 L940.243889 849.569420 L942.448340 843.408536 L912.955010 848.144677 L916.482132 838.287262 L883.020789 854.112996 L892.720374 827.005104 L873.005543 819.950861 L878.296226 805.164738 L898.011056 812.218981 L907.710641 785.111090 L923.536375 818.572432 L927.063497 808.715017 L946.857242 831.086767 L949.061693 824.925882 Z" fill="#888" fill-opacity="0.18" stroke="#000" stroke-width="1"/>
  <path d="M626.550282 46.593874 L655.982236 63.667463 L650.774502 67.629231 L678.078589 79.744280 L669.746214 86.083108 L706.424223 91.066975 L683.510192 108.498753 L696.187849 125.163503 L683.689286 134.671746 L671.011629 118.006996 L648.097598 135.438774 L653.081464 98.760765 L644.749089 105.099594 L640.359033 75.552767 L635.151299 79.514535 Z" fill="#888" fill-opacity="0.18" stroke="#000" stroke-width="1"/>
  <path d="M355.721119 933.729196 L379.300111 909.198021 L381.910749 915.198077 L400.167569 891.555401 L404.344590 901.155490 L417.902261 866.712714 L429.389069 893.112960 L448.589248 884.758918 L454.854779 899.159052 L435.654600 907.513094 L447.141408 933.913340 L412.698632 920.355669 L416.875653 929.955759 L387.132026 927.198188 L389.742664 933.198244 Z" fill="#888" fill-opacity="0.18" stroke="#000" stroke-width="1"/>
  <path d="M825.755338 560.640675 L859.756844 559.358084 L857.469618 565.488720 L887.024060 561.150221 L883.364499 570.959240 L917.035946 555.585596 L906.972155 582.560396 L926.590191 589.879517 L921.100850 604.593044 L901.482814 597.273923 L891.419022 624.248723 L876.045378 590.577276 L872.385818 600.386294 L852.895168 577.749993 L850.607942 583.880629 Z" fill="#888" fill-opacity="0.18" stroke="#000" stroke-width="1"/>
  <path d="M612.764685 364.563196 L641.084152 383.424669 L635.641327 387.056714 L662.143724 400.837517 L653.435203 406.648789 L689.734686 413.891911 L665.786253 429.872909 L677.408798 447.289951 L664.346016 456.006860 L652.723472 438.589818 L628.775039 454.570816 L636.018161 418.271333 L627.309640 424.082606 L624.755676 394.320804 L619.312850 397.952849 Z" fill="#888" fill-opacity="0.18" stroke="#000" stroke-width="1"/>
  <path d="M373.368767 573.523629 L361.030012 541.813970 L367.571575 541.969047 L353.800445 515.461623 L364.266947 515.709746 L338.721002 488.923183 L367.503882 489.605523 L368.000129 468.672520 L383.699882 469.044706 L383.203634 489.977709 L411.986514 490.660050 L385.199950 516.205994 L395.666452 516.454118 L380.654702 542.279202 L387.196266 542.434279 Z" fill="#888" fill-opacity="0.18" stroke="#000" stroke-width="1"/>
  <path d="M867.254427 173.574698 L849.033402 202.310419 L845.280096 196.950495 L832.097672 223.755555 L826.092381 215.179676 L819.665909 251.632601 L803.151360 228.048932 L785.999601 240.059513 L776.991665 227.195694 L794.143424 215.185113 L777.628875 191.601445 L814.081800 198.027917 L808.076509 189.452038 L837.773482 186.230645 L834.020176 180.870721 Z" fill="#888" fill-opacity="0.18" stroke="#000" stroke-width="1"/>
  <path d="M169.184006 946.569370 L187.257549 975.398078 L180.803226 976.474099 L199.306817 999.924145 L188.979901 1001.645778 L219.101273 1023.158988 L190.702253 1027.893477 L194.145518 1048.547310 L178.655143 1051.129759 L175.211878 1030.475926 L146.812858 1035.210415 L168.326068 1005.089043 L157.999152 1006.810675 L167.894581 978.626139 L161.440258 979.702160 Z" fill="#888" fill-opacity="0.18" stroke="#000" stroke-width="1"/>
  <path d="M948.432170 545.501542 L914.567212 548.804875 L916.485626 542.549014 L887.241673 548.638250 L890.311136 538.628873 L857.614037 555.978658 L866.055060 528.452872 L846.036307 522.313947 L850.640501 507.299882 L870.659254 513.438807 L879.100277 485.913022 L896.450061 518.610120 L899.519524 508.600744 L920.322454 530.037293 L922.240869 523.781433 Z" fill="#888" fill-opacity="0.18" stroke="#000" stroke-width="1"/>
  <path d="M68.058310 560.817013 L81.346944 529.493546 L85.924435 534.169299 L94.556968 505.572674 L101.880955 513.053880 L102.274002 476.040899 L122.414966 496.614215 L137.377377 481.966241 L148.363357 493.188049 L133.400946 507.836023 L153.541910 528.409339 L116.528928 528.016292 L123.852915 535.497497 L95.079419 543.520807 L99.656911 548.196560 Z" fill="#888" fill-opacity="0.18" stroke="#000" stroke-width="1"/>
  <path d="M466.421076 306.974624 L498.996425 316.802849 L494.842350 321.858516 L524.203981 327.352348 L517.557462 335.441415 L554.396428 331.835047 L536.118499 354.079980 L552.296632 367.373019 L542.326853 379.506620 L526.148719 366.213580 L507.870791 388.458514 L504.264423 351.619548 L497.617903 359.708615 L486.534201 331.969849 L482.380126 337.025516 Z" fill="#888" fill-opacity="0.18" stroke="#000" stroke-width="1"/>
  <path d="M996.230350 958.232181 L989.450856 924.888728 L995.871254 926.151499 L986.797464 897.691810 L997.070101 899.712244 L976.439594 868.979567 L1004.689345 874.535761 L1008.730214 853.990487 L1024.139169 857.021138 L1020.098301 877.566412 L1048.348052 883.122606 L1017.615375 903.753112 L1027.888011 905.773547 L1008.712050 928.677042 L1015.132448 929.939813 Z" fill="#888" fill-opacity="0.18" stroke="#000" stroke-width="1"/>
  <path d="M685.457633 675.879675 L667.895915 705.023001 L664.021487 699.749965 L651.453084 726.848356 L645.253999 718.411498 L639.659566 755.001355 L622.612083 731.799996 L605.738367 744.198165 L596.439740 731.542878 L613.313456 719.144709 L596.265973 695.943349 L632.855830 701.537782 L626.656745 693.100925 L656.272631 689.203893 L652.398203 683.930856 Z" fill="#888" fill-opacity="0.18" stroke="#000" stroke-width="1"/>
  <path d="M541.398468 814.502224 L510.185911 800.955131 L514.899342 796.416444 L486.375049 787.547832 L493.916538 780.285934 L456.908069 779.586958 L477.647164 759.616737 L463.123367 744.533760 L474.435600 733.640912 L488.959397 748.723890 L509.698491 728.753669 L508.999515 765.762137 L516.541004 758.500239 L524.326203 787.339071 L529.039633 782.800385 Z" fill="#888" fill-opacity="0.18" stroke="#000" stroke-width="1"/>
  <path d="M564.766441 466.889160 L597.498194 457.595090 L596.727042 464.092892 L624.414784 452.882339 L623.180940 463.278822 L652.256757 440.372226 L648.863685 468.962553 L669.656650 471.430242 L667.805884 487.024966 L647.012919 484.557277 L643.619847 513.147604 L620.713251 484.071787 L619.479407 494.468269 L595.184736 477.088495 L594.413584 483.586297 Z" fill="#888" fill-opacity="0.18" stroke="#000" stroke-width="1"/>
  <path d="M299.516085 112.223242 L325.847140 133.773717 L320.074049 136.853898 L345.095577 153.169863 L335.858631 158.098154 L371.271723 168.869792 L345.870122 182.422592 L355.726704 200.896484 L341.871285 208.288920 L332.014703 189.815028 L306.613101 203.367828 L317.384739 167.954736 L308.147793 172.883027 L308.527867 143.014262 L302.754775 146.094444 Z" fill="#888" fill-opacity="0.18" stroke="#000" stroke-width="1"/>
  <path d="M734.947487 322.690089 L701.606935 315.896339 L705.278944 310.480394 L675.536746 307.707439 L681.411959 299.041928 L645.060147 306.017674 L661.216984 282.187517 L643.885960 270.437090 L652.698780 257.438823 L670.029804 269.189249 L686.186640 245.359092 L693.162386 281.710904 L699.037599 273.045393 L712.622960 299.648504 L716.294968 294.232560 Z" fill="#888" fill-opacity="0.18" stroke="#000" stroke-width="1"/>
  <path d="M533.713648 842.903289 L565.503965 855.032722 L560.999456 859.778826 L589.893792 867.355431 L582.686578 874.949198 L619.689029 873.982816 L599.869191 894.865674 L615.056725 909.280102 L604.245904 920.670752 L589.058371 906.256324 L569.238533 927.139182 L568.272151 890.136731 L561.064937 897.730498 L551.990439 869.271035 L547.485930 874.017139 Z" fill="#888" fill-opacity="0.18" stroke="#000" stroke-width="1"/>
  <path d="M542.962427 999.959995 L509.404071 994.340014 L512.883828 988.798589 L483.062662 987.070698 L488.630272 978.204417 L452.545544 986.451092 L467.856473 962.068820 L450.123912 950.933599 L458.475328 937.634178 L476.207889 948.769399 L491.518818 924.387127 L499.765494 960.471856 L505.333104 951.605575 L519.843341 977.715738 L523.323098 972.174312 Z" fill="#888" fill-opacity="0.18" stroke="#000" stroke-width="1"/>
  <path d="M380.751213 387.311106 L393.834942 355.901498 L398.442880 360.547249 L406.888420 331.894842 L414.261122 339.328044 L414.412371 302.313284 L434.687302 322.754589 L449.553705 308.009186 L460.612758 319.158988 L445.746354 333.904392 L466.021285 354.345697 L429.006525 354.194447 L436.379227 361.627649 L407.658758 369.838751 L412.266696 374.484502 Z" fill="#888" fill-opacity="0.18" stroke="#000" stroke-width="1"/>
  <path d="M513.514235 390.528236 L547.067077 384.875433 L545.588814 391.249666 L574.337923 383.139405 L571.972702 393.338178 L603.382684 373.754299 L596.878327 401.800922 L617.275872 406.531364 L613.728041 421.829522 L593.330496 417.099080 L586.826140 445.145704 L567.242261 413.735722 L564.877040 423.934494 L542.632288 403.998131 L541.154025 410.372363 Z" fill="#888" fill-opacity="0.18" stroke="#000" stroke-width="1"/>
  <path d="M566.552604 906.146826 L533.177971 899.522530 L536.822420 894.088001 L507.066520 891.466169 L512.897638 882.770924 L476.581731 889.931243 L492.617304 866.019319 L475.226814 854.357083 L483.973490 841.314216 L501.363981 852.976451 L517.399554 829.064527 L524.559873 865.380434 L530.390991 856.685189 L544.111317 883.218945 L547.755766 877.784417 Z" fill="#888" fill-opacity="0.18" stroke="#000" stroke-width="1"/>
  <path d="M210.467789 216.819502 L199.917889 249.168335 L194.955811 244.902907 L188.810669 274.135163 L180.871343 267.310477 L183.657942 304.220505 L161.824798 285.452619 L148.175426 301.331270 L136.266438 291.094241 L149.915810 275.215590 L128.082665 256.447705 L164.992693 253.661106 L157.053367 246.836420 L185.031654 236.372050 L180.069576 232.106621 Z" fill="#888" fill-opacity="0.18" stroke="#000" stroke-width="1"/>
  <path d="M568.834559 188.166346 L565.006913 221.976057 L559.288299 218.795875 L559.148522 248.666731 L549.998739 243.578439 L560.152467 279.173623 L534.990566 265.180822 L524.813983 283.480386 L511.089310 275.847949 L521.265892 257.548385 L496.103991 243.555584 L531.699175 233.401857 L522.549393 228.313566 L547.851072 212.435511 L542.132458 209.255329 Z" fill="#888" fill-opacity="0.18" stroke="#000" stroke-width="1"/>
  <path d="M809.911707 407.448832 L779.419540 422.547679 L778.994610 416.018089 L753.811100 432.082909 L753.131211 421.635566 L728.712577 449.453647 L726.842881 420.723454 L705.948196 422.083233 L704.928362 406.412219 L725.823047 405.052440 L723.953352 376.322247 L751.771432 400.740881 L751.091543 390.293538 L778.144748 402.958911 L777.719817 396.429322 Z" fill="#888" fill-opacity="0.18" stroke="#000" stroke-width="1"/>
  <path d="M495.630972 40.016723 L479.479051 69.964392 L475.357566 64.882123 L464.095758 92.549057 L457.501381 84.417426 L453.658247 121.232445 L435.523710 98.870461 L419.260449 112.059215 L409.368884 99.861769 L425.632145 86.673016 L407.497608 64.311032 L444.312627 68.154165 L437.718250 60.022535 L467.114594 54.717585 L462.993109 49.635315 Z" fill="#888" fill-opacity="0.18" stroke="#000" stroke-width="1"/>
  <path d="M1035.832294 516.203332 L1017.677111 487.425967 L1024.128358 486.331657 L1005.558373 462.934152 L1015.880368 461.183255 L985.698139 439.755509 L1014.083626 434.940543 L1010.581833 414.296553 L1026.064826 411.670209 L1029.566619 432.314199 L1057.952105 427.499234 L1036.524359 457.681463 L1046.846354 455.930566 L1037.030852 484.143037 L1043.482098 483.048726 Z" fill="#888" fill-opacity="0.18" stroke="#000" stroke-width="1"/>
  <path d="M546.793004 184.918714 L562.012227 154.486450 L566.288722 159.438995 L576.690610 131.437418 L583.533001 139.361489 L586.237199 102.445332 L605.053776 124.236527 L620.901918 110.551743 L631.165505 122.437849 L615.317364 136.122633 L634.133941 157.913827 L597.217785 155.209630 L604.060177 163.133701 L574.841711 169.344083 L579.118206 174.296627 Z" fill="#888" fill-opacity="0.18" stroke="#000" stroke-width="1"/>
  <path d="M860.489723 661.808511 L856.677445 695.619958 L850.957387 692.442376 L850.831186 722.313292 L841.679092 717.229161 L851.848998 752.819725 L826.680739 738.838363 L816.512475 757.142551 L802.784334 749.516353 L812.952598 731.212165 L787.784339 717.230802 L823.374904 707.060897 L814.222810 701.976765 L839.517269 686.087211 L833.797210 682.909629 Z" fill="#888" fill-opacity="0.18" stroke="#000" stroke-width="1"/>
  <path d="M984.034557 779.015977 L988.200055 745.246227 L993.886586 748.483427 L994.325017 718.615461 L1003.423467 723.794982 L993.626143 688.100056 L1018.646880 702.343737 L1029.005921 684.146836 L1042.653596 691.916117 L1032.294555 710.113017 L1057.315293 724.356697 L1021.620367 734.154022 L1030.718818 739.333542 L1005.259648 754.957827 L1010.946180 758.195027 Z" fill="#888" fill-opacity="0.18" stroke="#000" stroke-width="1"/>
  <path d="M437.013655 1030.069039 L402.989182 1030.356530 L405.454751 1024.295418 L375.786053 1027.767587 L379.730964 1018.069808 L345.624242 1032.451977 L356.472746 1005.783087 L337.077190 997.893266 L342.994556 983.346599 L362.390112 991.236420 L373.238617 964.567530 L387.620785 998.674252 L391.565696 988.976474 L410.385889 1012.173195 L412.851459 1006.112084 Z" fill="#888" fill-opacity="0.18" stroke="#000" stroke-width="1"/>
  <path d="M523.551487 750.213672 L554.392140 764.587313 L549.559492 768.998846 L577.837448 778.624063 L570.105212 785.682516 L607.081933 787.366973 L585.818285 806.777718 L599.935190 822.242189 L588.336837 832.829868 L574.219932 817.365397 L552.956284 836.776142 L554.640741 799.799421 L546.908505 806.857873 L539.894198 777.821912 L535.061551 782.233445 Z" fill="#888" fill-opacity="0.18" stroke="#000" stroke-width="1"/>
  <path d="M1052.238968 752.062715 L1053.728081 786.055802 L1047.583664 783.805860 L1052.101614 813.333402 L1042.270546 809.733494 L1057.848447 843.310931 L1030.813011 833.411186 L1023.613196 853.073322 L1008.866595 847.673461 L1016.066410 828.011326 L989.030974 818.111581 L1022.608411 802.533680 L1012.777343 798.933773 L1035.294829 779.305976 L1029.150412 777.056034 Z" fill="#888" fill-opacity="0.18" stroke="#000" stroke-width="1"/>
  <path d="M700.812730 118.968826 L713.260590 150.635815 L706.718531 150.503262 L720.580846 176.963114 L710.113552 176.751028 L735.751573 203.449477 L706.966515 202.866242 L706.542343 223.800830 L690.841402 223.482701 L691.265574 202.548113 L662.480516 201.964878 L689.178965 176.326857 L678.711671 176.114771 L693.634414 150.238154 L687.092355 150.105601 Z" fill="#888" fill-opacity="0.18" stroke="#000" stroke-width="1"/>
  <path d="M53.534088 1022.436687 L75.107119 996.124109 L78.182352 1001.899838 L94.519754 976.892302 L99.440127 986.133468 L110.242109 950.729619 L123.773136 976.142826 L142.255468 966.302079 L149.636028 980.163828 L131.153696 990.004575 L144.684722 1015.417781 L109.280874 1004.615800 L114.201247 1013.856966 L84.332819 1013.451295 L87.408052 1019.227024 Z" fill="#888" fill-opacity="0.18" stroke="#000" stroke-width="1"/>
  <path d="M958.473490 200.894443 L990.048612 213.573523 L985.462450 218.240772 L1014.221005 226.317472 L1006.883145 233.785071 L1043.896792 233.460722 L1023.717679 253.996620 L1038.652877 268.672339 L1027.646088 279.873738 L1012.710889 265.198019 L992.531775 285.733917 L992.207426 248.720270 L984.869567 256.187869 L976.290125 227.575271 L971.703963 232.242521 Z" fill="#888" fill-opacity="0.18" stroke="#000" stroke-width="1"/>
  <path d="M101.804837 299.516531 L135.517565 304.120807 L132.206693 309.764762 L162.066432 310.591550 L156.769037 319.621878 L192.588345 310.289546 L178.020508 335.122948 L196.081164 345.717739 L188.135071 359.263231 L170.074415 348.668440 L155.506577 373.501842 L146.174246 337.682534 L140.876850 346.712862 L125.584949 321.052672 L122.274077 326.696627 Z" fill="#888" fill-opacity="0.18" stroke="#000" stroke-width="1"/>
  <path d="M472.193935 185.793310 L485.566227 217.081155 L479.023097 217.140745 L493.656343 243.182167 L483.187335 243.277511 L509.598215 269.211672 L480.808443 269.473867 L480.999130 290.411884 L465.295618 290.554900 L465.104930 269.616883 L436.315158 269.879079 L462.249319 243.468199 L451.780310 243.563543 L465.936837 217.259925 L459.393707 217.319514 Z" fill="#888" fill-opacity="0.18" stroke="#000" stroke-width="1"/>
  <path d="M457.320697 623.784111 L423.360343 625.891662 L425.498082 619.707313 L396.057660 624.761926 L399.478042 614.866967 L366.189689 631.053408 L375.595741 603.842272 L355.805823 597.001507 L360.936397 582.159069 L380.726314 588.999834 L390.132365 561.788697 L406.318806 595.077050 L409.739189 585.182091 L429.773560 607.338615 L431.911299 601.154266 Z" fill="#888" fill-opacity="0.18" stroke="#000" stroke-width="1"/>
  <path d="M136.596601 670.965648 L105.221665 657.798992 L109.879573 653.203342 L81.249575 644.682142 L88.702227 637.329102 L51.687997 637.080073 L72.182790 616.859212 L57.476709 601.953908 L68.655687 590.924348 L83.361768 605.829652 L103.856561 585.608791 L103.607531 622.623022 L111.060183 615.269982 L119.195387 644.012042 L123.853295 639.416392 Z" fill="#888" fill-opacity="0.18" stroke="#000" stroke-width="1"/>
  <path d="M376.667233 272.562924 L368.192871 239.609433 L374.669405 240.542496 L364.153285 212.583620 L374.515739 214.076522 L352.341858 184.438130 L380.838608 188.543611 L383.824412 167.818701 L399.368094 170.058054 L396.382290 190.782964 L424.879040 194.888444 L395.240648 217.062326 L405.603103 218.555228 L387.622473 242.408624 L394.099007 243.341688 Z" fill="#888" fill-opacity="0.18" stroke="#000" stroke-width="1"/>
  <path d="M710.368871 899.046454 L684.923621 921.635979 L682.795691 915.448247 L662.726211 937.572975 L659.321524 927.672605 L643.082318 960.935248 L633.719427 933.709231 L613.918687 940.518606 L608.811656 925.668051 L628.612396 918.858676 L619.249506 891.632658 L652.512149 907.871865 L649.107462 897.971495 L678.539832 903.072785 L676.411902 896.885054 Z" fill="#888" fill-opacity="0.18" stroke="#000" stroke-width="1"/>
  <path d="M677.268679 791.884051 L675.798009 825.877941 L669.872368 823.102534 L671.807151 852.910992 L662.326125 848.470342 L674.927062 883.274532 L648.854242 871.062742 L639.972941 890.024793 L625.751403 883.363817 L634.632704 864.401766 L608.559884 852.189977 L643.364075 839.589040 L633.883049 835.148389 L658.021086 817.551720 L652.095445 814.776314 Z" fill="#888" fill-opacity="0.18" stroke="#000" stroke-width="1"/>
  <path d="M471.134503 705.466432 L454.241546 735.002434 L450.247947 729.819069 L438.300402 757.196865 L431.910645 748.903481 L427.151577 785.611335 L409.579745 762.804528 L392.992976 775.584042 L383.408340 763.143965 L399.995109 750.364451 L382.423277 727.557643 L419.131131 732.316712 L412.741374 724.023327 L442.260751 719.452338 L438.267153 714.268973 Z" fill="#888" fill-opacity="0.18" stroke="#000" stroke-width="1"/>
  <path d="M805.108880 290.024708 L802.076091 323.914966 L796.284388 320.869925 L796.845972 350.735829 L787.579247 345.863763 L798.565897 381.210740 L773.082402 367.812561 L763.338271 386.346012 L749.438183 379.037914 L759.182314 360.504463 L733.698818 347.106283 L769.045795 336.119633 L759.779070 331.247567 L784.700981 314.779843 L778.909277 311.734803 Z" fill="#888" fill-opacity="0.18" stroke="#000" stroke-width="1"/>
  <path d="M102.253670 888.530838 L103.230733 854.519182 L109.196037 857.208280 L106.828760 827.431047 L116.373246 831.733604 L103.268422 797.115995 L129.515760 808.948026 L138.120874 789.859053 L152.437604 796.312888 L143.832490 815.401862 L170.079829 827.233893 L135.462220 840.338718 L145.006707 844.641275 L121.126645 862.586476 L127.091949 865.275574 Z" fill="#888" fill-opacity="0.18" stroke="#000" stroke-width="1"/>
  <path d="M771.023878 1002.306104 L740.356051 1017.044889 L740.008029 1010.510750 L714.637118 1026.277945 L714.080283 1015.823322 L689.335812 1043.351969 L687.804515 1014.601754 L666.895268 1015.715425 L666.060014 1000.033489 L686.969262 998.919819 L685.437965 970.169604 L712.966612 994.914074 L712.409777 984.459451 L739.311985 997.442470 L738.963963 990.908330 Z" fill="#888" fill-opacity="0.18" stroke="#000" stroke-width="1"/>
  <path d="M273.422587 954.205731 L283.882593 986.583743 L277.361348 986.045726 L289.556017 1013.314345 L279.122025 1012.453517 L303.054936 1040.690568 L274.361457 1038.323291 L272.639801 1059.191276 L256.988812 1057.900034 L258.710468 1037.032049 L230.016989 1034.664772 L258.254040 1010.731861 L247.820048 1009.871033 L264.318858 984.969690 L257.797612 984.431673 Z" fill="#888" fill-opacity="0.18" stroke="#000" stroke-width="1"/>
  <path d="M270.006062 546.919200 L291.425983 573.356567 L285.148646 575.203493 L306.346494 596.249605 L296.302754 599.204687 L328.799809 616.926331 L301.179525 625.052807 L307.089689 645.140287 L292.024079 649.572910 L286.113915 629.485431 L258.493630 637.611907 L276.215274 605.114851 L266.171534 608.069934 L272.593971 578.897346 L266.316634 580.744272 Z" fill="#888" fill-opacity="0.18" stroke="#000" stroke-width="1"/>
  <path d="M978.933089 943.656932 L958.457517 970.832259 L955.147960 965.187532 L939.850081 990.844159 L934.554789 981.812597 L925.214113 1017.629730 L910.652062 992.792935 L892.588938 1003.383517 L884.646001 989.836175 L902.709125 979.245592 L888.147073 954.408796 L923.964207 963.749473 L918.668915 954.717911 L948.528846 953.898080 L945.219289 948.253354 Z" fill="#888" fill-opacity="0.18" stroke="#000" stroke-width="1"/>
  <path d="M937.663581 178.743120 L968.230619 163.796428 L968.623003 170.328054 L993.886263 154.388944 L994.514076 164.839545 L1019.071047 137.143508 L1020.797534 165.882662 L1041.698737 164.627036 L1042.640457 180.302938 L1021.739253 181.558565 L1023.465740 210.297719 L995.769703 185.740748 L996.397516 196.191350 L969.407769 183.391306 L969.800152 189.922932 Z" fill="#888" fill-opacity="0.18" stroke="#000" stroke-width="1"/>
  <path d="M735.335596 722.836191 L715.791845 750.689184 L712.293071 745.159746 L697.872624 771.319607 L692.274585 762.472507 L684.151933 798.585355 L668.757325 774.255830 L651.063125 785.451908 L642.666066 772.181258 L660.360267 760.985180 L644.965659 736.655655 L681.078507 744.778307 L675.480468 735.931207 L705.295522 734.100871 L701.796747 728.571434 Z" fill="#888" fill-opacity="0.18" stroke="#000" stroke-width="1"/>
  <path d="M98.046842 838.289115 L78.917981 810.149568 L85.328024 808.835240 L65.968618 786.086592 L76.224685 783.983667 L45.327203 763.600810 L73.531389 757.817766 L69.325539 737.305630 L84.709641 734.151243 L88.915491 754.663378 L117.119678 748.880334 L96.736821 779.777817 L106.992889 777.674891 L98.148109 806.206583 L104.558151 804.892255 Z" fill="#888" fill-opacity="0.18" stroke="#000" stroke-width="1"/>
  <path d="M195.501565 200.422627 L227.613230 189.171478 L227.235352 195.703959 L254.196608 182.844012 L253.592004 193.295982 L281.233440 168.677569 L279.570778 197.420486 L300.474717 198.629695 L299.567811 214.307650 L278.663871 213.098441 L277.001208 241.841358 L252.382795 214.199922 L251.778190 224.651892 L226.479597 208.768922 L226.101719 215.301403 Z" fill="#888" fill-opacity="0.18" stroke="#000" stroke-width="1"/>
  <path d="M633.537546 957.858610 L600.671419 966.665714 L601.538954 960.180077 L573.687829 970.978336 L575.075886 960.601317 L545.663197 983.073723 L549.480353 954.536921 L528.726315 951.760808 L530.808400 936.195280 L551.562437 938.971393 L555.379593 910.434591 L577.851999 939.847280 L579.240055 929.470261 L603.274025 947.208803 L604.141560 940.723166 Z" fill="#888" fill-opacity="0.18" stroke="#000" stroke-width="1"/>
  <path d="M337.665429 754.603461 L316.908078 727.642754 L323.229309 725.952152 L302.560193 704.386550 L312.674163 701.681587 L280.626830 683.159068 L308.440249 675.720420 L303.030323 655.492479 L318.201278 651.435035 L323.611204 671.662976 L351.424623 664.224328 L332.902104 696.271661 L343.016074 693.566698 L335.871772 722.570948 L342.193004 720.880347 Z" fill="#888" fill-opacity="0.18" stroke="#000" stroke-width="1"/>
  <path d="M1038.614386 1030.575050 L1005.302191 1037.506508 L1006.535675 1031.080419 L978.117655 1040.283882 L980.091228 1030.002140 L949.452939 1050.772563 L954.880265 1022.497771 L934.316780 1018.550625 L937.277139 1003.128011 L957.840625 1007.075157 L963.267951 978.800365 L984.038374 1009.438655 L986.011948 999.156912 L1009.002641 1018.228241 L1010.236124 1011.802152 Z" fill="#888" fill-opacity="0.18" stroke="#000" stroke-width="1"/>
  <path d="M807.245848 609.690467 L775.846078 622.797787 L775.841803 616.254387 L749.677607 630.666967 L749.670767 620.197527 L723.514267 646.388227 L723.495457 617.597267 L702.556577 617.610947 L702.546317 601.906787 L723.485197 601.893107 L723.466387 573.102147 L749.657088 599.258647 L749.650248 588.789207 L775.833253 603.167587 L775.828978 596.624187 Z" fill="#888" fill-opacity="0.18" stroke="#000" stroke-width="1"/>
  <path d="M130.534134 947.298793 L150.370347 919.653322 L153.810652 925.219327 L168.506001 899.212899 L174.010488 908.118506 L182.513289 872.093270 L197.650628 896.583691 L215.461843 885.574717 L223.718574 898.933128 L205.907359 909.942102 L221.044698 934.432523 L185.019462 925.929721 L190.523949 934.835329 L160.691261 936.351336 L164.131565 941.917341 Z" fill="#888" fill-opacity="0.18" stroke="#000" stroke-width="1"/>
  <path d="M1056.019702 916.580674 L1051.194538 950.262496 L1045.572407 946.914699 L1044.549906 976.768377 L1035.554497 971.411901 L1044.651832 1007.291614 L1019.914456 992.561306 L1009.201505 1010.552125 L995.708390 1002.517412 L1006.421341 984.526593 L981.683965 969.796286 L1017.563678 960.698950 L1008.568268 955.342475 L1034.328145 940.219105 L1028.706014 936.871308 Z" fill="#888" fill-opacity="0.18" stroke="#000" stroke-width="1"/>
  <path d="M688.401403 494.114417 L696.042130 527.271116 L689.591183 526.175040 L699.398961 554.390196 L689.077446 552.636474 L710.496928 582.824568 L682.112761 578.001832 L678.605316 598.644863 L663.123043 596.014279 L666.630488 575.371248 L638.246320 570.548512 L668.434415 549.129029 L658.112899 547.375307 L676.689289 523.982887 L670.238342 522.886810 Z" fill="#888" fill-opacity="0.18" stroke="#000" stroke-width="1"/>
  <path d="M280.784581 403.620525 L305.609839 426.889689 L299.643031 429.575447 L323.513043 447.534012 L313.966150 451.831226 L348.576418 464.955426 L322.322460 476.772763 L330.916888 495.866550 L316.596547 502.312371 L308.002120 483.218584 L281.748163 495.035921 L294.872363 460.425653 L285.325469 464.722867 L287.709414 434.946964 L281.742605 437.632723 Z" fill="#888" fill-opacity="0.18" stroke="#000" stroke-width="1"/>
  <path d="M462.991478 398.414162 L491.000297 417.733932 L485.499094 421.276934 L511.773750 435.487141 L502.971825 441.155945 L539.148648 448.988747 L514.943354 464.577958 L526.280962 482.181808 L513.078075 490.685014 L501.740467 473.081164 L477.535173 488.670375 L485.367975 452.493553 L476.566051 458.162357 L474.496687 428.362939 L468.995484 431.905942 Z" fill="#888" fill-opacity="0.18" stroke="#000" stroke-width="1"/>
  <path d="M798.358232 1059.163366 L804.726853 1025.739003 L810.189120 1029.341743 L812.583095 999.566645 L821.322723 1005.331030 L813.884617 969.070999 L837.918592 984.923058 L849.447363 967.443804 L862.556804 976.090381 L851.028033 993.569636 L875.062009 1009.421695 L838.801977 1016.859801 L847.541605 1022.624186 L821.113654 1036.547225 L826.575921 1040.149965 Z" fill="#888" fill-opacity="0.18" stroke="#000" stroke-width="1"/>
  <path d="M196.304050 339.221333 L227.672985 352.402280 L223.012984 356.995808 L251.639097 365.530049 L244.183096 372.879694 L281.197209 373.145585 L260.693207 393.357107 L275.392495 408.269109 L264.208494 419.293575 L249.509205 404.381573 L229.005203 424.593096 L229.271094 387.578982 L221.815093 394.928627 L213.692983 366.182864 L209.032983 370.776391 Z" fill="#888" fill-opacity="0.18" stroke="#000" stroke-width="1"/>
  <path d="M888.784937 314.951431 L913.724300 291.804605 L915.988577 297.943754 L935.563766 275.380519 L939.186608 285.203158 L954.686099 251.589455 L964.648916 278.601711 L984.294194 271.356026 L989.728457 286.089985 L970.083180 293.335670 L980.045997 320.347927 L946.432293 304.848436 L950.055136 314.671075 L920.517130 310.222052 L922.781407 316.361202 Z" fill="#888" fill-opacity="0.18" stroke="#000" stroke-width="1"/>
  <path d="M692.193786 939.071178 L681.719777 971.444663 L676.747709 967.190883 L670.671137 996.437469 L662.715829 989.631421 L665.588979 1026.534812 L643.711881 1007.818180 L630.099785 1023.728796 L618.166822 1013.519724 L631.778919 997.609107 L609.901821 978.892475 L646.805213 976.019325 L638.849904 969.213276 L666.803574 958.683322 L661.831506 954.429542 Z" fill="#888" fill-opacity="0.18" stroke="#000" stroke-width="1"/>
  <path d="M821.832318 595.135547 L788.561611 588.007609 L792.287777 582.628781 L762.574900 579.557541 L768.536765 570.951416 L732.116790 577.562067 L748.511918 553.895222 L731.299668 541.971493 L740.242465 529.062305 L757.454715 540.986035 L773.849843 517.319190 L780.460494 553.739165 L786.422359 545.133040 L799.740108 571.871124 L803.466273 566.492296 Z" fill="#888" fill-opacity="0.18" stroke="#000" stroke-width="1"/>
  <path d="M212.053173 722.930068 L188.294829 747.287583 L185.728284 741.268534 L167.298488 764.776622 L163.192016 755.146144 L149.382001 789.488519 L138.089203 763.004705 L118.828247 771.217649 L112.668538 756.771932 L131.929494 748.558987 L120.636696 722.075173 L154.979072 735.885187 L150.872599 726.254709 L180.595194 729.230436 L178.028649 723.211387 Z" fill="#888" fill-opacity="0.18" stroke="#000" stroke-width="1"/>
  <path d="M808.082843 41.163483 L839.825152 53.418003 L835.301990 58.146333 L864.166267 65.836657 L856.929207 73.401985 L893.935176 72.581315 L874.033261 93.385966 L889.163917 107.860086 L878.308327 119.208078 L863.177671 104.733958 L843.275757 125.538610 L842.455087 88.532640 L835.218027 96.097968 L826.255665 67.602993 L821.732502 72.331323 Z" fill="#888" fill-opacity="0.18" stroke="#000" stroke-width="1"/>
  <path d="M968.232431 676.520227 L976.632181 643.547638 L981.864020 647.477519 L986.073497 617.904425 L994.444440 624.192235 L989.236606 587.545356 L1012.256698 604.836831 L1024.832317 588.094946 L1037.388730 597.526660 L1024.813112 614.268545 L1047.833204 631.560020 L1011.186324 636.767853 L1019.557267 643.055662 L992.327698 655.337281 L997.559537 659.267162 Z" fill="#888" fill-opacity="0.18" stroke="#000" stroke-width="1"/>
  <path d="M547.927331 531.697664 L580.299954 542.174335 L576.045765 547.146053 L605.291853 553.225029 L598.485150 561.179778 L635.388778 558.309662 L616.670346 580.185221 L632.579843 593.798626 L622.369790 605.730749 L606.460293 592.117344 L587.741861 613.992902 L584.871746 577.089275 L578.065043 585.044024 L567.537387 557.089488 L563.283198 562.061206 Z" fill="#888" fill-opacity="0.18" stroke="#000" stroke-width="1"/>
  <path d="M153.024522 698.885603 L139.302924 667.749367 L145.844977 667.616557 L130.921217 641.740526 L141.388502 641.528029 L114.689046 615.891058 L143.474081 615.306691 L143.049087 594.372120 L158.750015 594.053374 L159.175009 614.987945 L187.960045 614.403578 L162.323074 641.103035 L172.790359 640.890538 L158.929084 667.350935 L165.471138 667.218124 Z" fill="#888" fill-opacity="0.18" stroke="#000" stroke-width="1"/>
  <path d="M778.143056 722.308448 L784.272115 755.777569 L777.877518 754.390041 L786.395519 783.020990 L776.164164 780.800945 L796.192438 811.929444 L768.056212 805.824321 L763.616122 826.287030 L748.269090 822.956963 L752.709180 802.494253 L724.572954 796.389129 L755.701454 776.360855 L745.470099 774.140810 L765.088325 751.614984 L758.693728 750.227456 Z" fill="#888" fill-opacity="0.18" stroke="#000" stroke-width="1"/>
  <path d="M344.816770 585.805838 L319.385057 563.201073 L325.278781 560.358518 L300.942368 543.037243 L310.372326 538.489155 L275.427209 526.284480 L301.359595 513.777237 L292.263418 494.917320 L306.408356 488.095188 L315.504532 506.955105 L341.436918 494.447862 L329.232243 529.392979 L338.662201 524.844890 L337.066229 554.673408 L342.959953 551.830852 Z" fill="#888" fill-opacity="0.18" stroke="#000" stroke-width="1"/>
</svg>
