<?xml version="1.0" encoding="UTF-8"?>
<svg xmlns="http://www.w3.org/2000/svg" width="1100" height="1100" viewBox="0 0 1100 1100">
  <rect x="0" y="0" width="1100" height="1100" fill="white"/>
  <text x="10.0" y="18.0" font-family="monospace" font-size="12">prefix=N134_job5048536_task134 run_id=134 L=10.2355714945 feas=0.000e+00 N=134</text>
  <rect x="40.000000" y="40.000000" width="1020.000000" height="1020.000000" fill="none" stroke="#000" stroke-width="2"/>
  <path d="M665.691671 954.377181 L683.194794 981.627170 L677.062909 982.718702 L694.919184 1004.844875 L685.108167 1006.591326 L714.001837 1026.752743 L687.021539 1031.555482 L690.514440 1051.177517 L675.797914 1053.797193 L672.305013 1034.175158 L645.324715 1038.977897 L665.486132 1010.084227 L655.675115 1011.830678 L664.799137 984.901765 L658.667251 985.993297 Z" fill="#888" fill-opacity="0.18" stroke="#000" stroke-width="1"/>
  <path d="M299.664394 108.153102 L321.809829 131.785725 L315.976713 133.968893 L337.542238 152.498390 L328.209252 155.991457 L360.274386 170.591254 L334.608675 180.197190 L341.594810 198.863162 L327.595331 204.102763 L320.609196 185.436791 L294.943484 195.042727 L309.543280 162.977593 L300.210294 166.470660 L304.310480 138.335227 L298.477364 140.518394 Z" fill="#888" fill-opacity="0.18" stroke="#000" stroke-width="1"/>
  <path d="M87.525665 870.827216 L116.933879 857.259674 L117.167154 863.483584 L141.549586 848.857881 L141.922826 858.816136 L165.885362 832.987396 L166.911774 860.372597 L186.828284 859.626116 L187.388145 874.563498 L167.471635 875.309980 L168.498048 902.695181 L142.669308 878.732646 L143.042549 888.690901 L117.633705 875.931402 L117.866981 882.155312 Z" fill="#888" fill-opacity="0.18" stroke="#000" stroke-width="1"/>
  <path d="M765.254261 433.103458 L744.721491 408.056969 L750.686309 406.264650 L730.394431 386.348480 L739.938140 383.480769 L708.909590 366.790774 L735.154790 358.904568 L729.419367 339.817150 L743.734931 335.515583 L749.470353 354.603001 L775.715553 346.716795 L759.025559 377.745346 L768.569268 374.877635 L762.615946 402.680011 L768.580764 400.887691 Z" fill="#888" fill-opacity="0.18" stroke="#000" stroke-width="1"/>
  <path d="M425.348132 726.590817 L451.345550 707.276173 L452.851299 713.319697 L473.712748 694.000948 L476.121947 703.670586 L494.273047 673.473493 L500.898343 700.065000 L520.237621 695.246603 L523.851418 709.751061 L504.512141 714.569458 L511.137437 741.160965 L480.940344 723.009864 L483.349542 732.679503 L455.862797 725.406746 L457.368546 731.450270 Z" fill="#888" fill-opacity="0.18" stroke="#000" stroke-width="1"/>
  <path d="M189.013966 124.615445 L205.786421 152.321147 L199.627683 153.249268 L216.889389 175.842356 L207.035408 177.327349 L235.382843 198.249820 L208.284395 202.333550 L211.254380 222.041513 L196.473408 224.269002 L193.503423 204.561040 L166.404974 208.644770 L187.327445 180.297335 L177.473464 181.782327 L187.310206 155.105509 L181.151468 156.033629 Z" fill="#888" fill-opacity="0.18" stroke="#000" stroke-width="1"/>
  <path d="M969.350714 922.237181 L953.495398 893.996604 L959.681248 893.270851 L943.169364 870.124105 L953.066725 868.962900 L925.420310 847.122511 L952.638053 843.929197 L950.315643 824.134475 L965.161684 822.392667 L967.484094 842.187389 L994.701837 838.994075 L972.861447 866.640490 L982.758808 865.479285 L972.052950 891.819344 L978.238800 891.093591 Z" fill="#888" fill-opacity="0.18" stroke="#000" stroke-width="1"/>
  <path d="M914.472559 262.426071 L886.981438 279.547972 L885.975414 273.401479 L863.602693 290.947859 L861.993055 281.113470 L841.431176 309.723538 L837.004671 282.678967 L817.335892 285.898243 L814.921435 271.146659 L834.590214 267.927383 L830.163710 240.882812 L858.773779 261.444691 L857.164141 251.610301 L883.963367 261.108492 L882.957343 254.961998 Z" fill="#888" fill-opacity="0.18" stroke="#000" stroke-width="1"/>
  <path d="M696.415857 570.479686 L675.905472 545.414863 L681.871889 543.627873 L661.597813 523.693582 L671.144080 520.834399 L640.130453 504.116689 L666.382688 496.253934 L660.664321 477.161400 L674.983722 472.872624 L680.702089 491.965159 L706.954325 484.102404 L690.236615 515.116032 L699.782882 512.256848 L693.804724 540.053894 L699.771141 538.266904 Z" fill="#888" fill-opacity="0.18" stroke="#000" stroke-width="1"/>
  <path d="M913.421080 444.341086 L935.730875 420.863560 L938.248351 426.560382 L955.497193 403.957471 L959.525154 413.072386 L972.242540 380.215196 L983.319432 405.281213 L1001.549263 397.225291 L1007.591205 410.897665 L989.361374 418.953586 L1000.438266 444.019604 L967.581075 431.302217 L971.609036 440.417133 L943.283302 437.954026 L945.800777 443.650848 Z" fill="#888" fill-opacity="0.18" stroke="#000" stroke-width="1"/>
  <path d="M185.688641 653.975025 L173.200842 624.092319 L179.429118 624.085809 L165.700872 599.187026 L175.666114 599.176611 L150.726971 574.289545 L178.131386 574.260902 L178.110555 554.330419 L193.058417 554.314796 L193.079248 574.245279 L220.483663 574.216636 L195.596597 599.155779 L205.561839 599.145364 L191.885671 624.072790 L198.113947 624.066280 Z" fill="#888" fill-opacity="0.18" stroke="#000" stroke-width="1"/>
  <path d="M652.991741 443.225835 L623.124185 430.701844 L627.556518 426.326242 L600.302977 418.223237 L607.394709 411.222273 L572.162971 410.995352 L591.665234 391.742703 L577.663307 377.559239 L588.300904 367.057794 L602.302831 381.241257 L621.805094 361.988608 L621.578173 397.220346 L628.669905 390.219383 L636.421182 417.575037 L640.853515 413.199435 Z" fill="#888" fill-opacity="0.18" stroke="#000" stroke-width="1"/>
  <path d="M884.034051 140.321119 L851.820639 136.971888 L854.797826 131.501255 L826.365484 131.627900 L831.128982 122.874887 L797.337704 132.848671 L810.437326 108.777887 L792.931300 99.250889 L800.076549 86.121370 L817.582574 95.648368 L830.682196 71.577583 L840.655980 105.368862 L845.419479 96.615849 L860.752200 120.559989 L863.729386 115.089356 Z" fill="#888" fill-opacity="0.18" stroke="#000" stroke-width="1"/>
  <path d="M449.391600 915.501796 L474.431493 894.960983 L476.225728 900.925226 L496.135380 880.626952 L499.006156 890.169740 L515.686185 859.135830 L523.580819 885.378496 L542.666394 879.636944 L546.972559 893.951125 L527.886983 899.692678 L535.781618 925.935344 L504.747708 909.255315 L507.618485 918.798103 L479.814198 912.853710 L481.608433 918.817952 Z" fill="#888" fill-opacity="0.18" stroke="#000" stroke-width="1"/>
  <path d="M145.443267 426.122851 L177.606615 422.322816 L175.902232 428.313354 L203.614026 421.951705 L200.887013 431.536565 L231.666698 414.391948 L224.167411 440.750314 L243.337131 446.204341 L239.246611 460.581631 L220.076890 455.127604 L212.577603 481.485970 L195.432986 450.706286 L192.705973 460.291146 L172.493465 440.294429 L170.789082 446.284967 Z" fill="#888" fill-opacity="0.18" stroke="#000" stroke-width="1"/>
  <path d="M144.369060 524.681722 L114.510062 537.226102 L114.491755 530.997849 L89.619021 544.773234 L89.589729 534.808030 L64.749948 559.794269 L64.669396 532.389958 L44.738988 532.448541 L44.695050 517.500735 L64.625459 517.442152 L64.544907 490.037840 L89.531146 514.877622 L89.501854 504.912417 L114.455141 518.541344 L114.436833 512.313091 Z" fill="#888" fill-opacity="0.18" stroke="#000" stroke-width="1"/>
  <path d="M511.461602 494.328026 L510.493111 461.955457 L516.311355 464.177956 L512.401216 436.015482 L521.710406 439.571481 L507.327428 407.408508 L532.927701 417.187505 L540.039699 398.569125 L554.003484 403.903123 L546.891486 422.521503 L572.491760 432.300500 L540.328787 446.683479 L549.637977 450.239478 L527.947843 468.622955 L533.766087 470.845454 Z" fill="#888" fill-opacity="0.18" stroke="#000" stroke-width="1"/>
  <path d="M820.602849 235.551256 L823.152911 203.264751 L828.695629 206.105480 L827.864563 177.685003 L836.732913 182.230169 L825.924954 148.696381 L850.312915 161.195588 L859.403247 143.458889 L872.705771 150.276638 L863.615439 168.013337 L888.003399 180.512543 L854.469611 191.320501 L863.337960 195.865667 L839.781065 211.786937 L845.323784 214.627666 Z" fill="#888" fill-opacity="0.18" stroke="#000" stroke-width="1"/>
  <path d="M306.654230 873.200432 L330.329444 895.300329 L324.655260 897.868422 L347.410837 914.915353 L338.332143 919.024302 L371.301251 931.448666 L346.334841 942.748275 L354.552739 960.905664 L340.934698 967.069087 L332.716800 948.911699 L307.750390 960.211308 L320.174754 927.242200 L311.096060 931.351149 L313.306893 903.004608 L307.632709 905.572701 Z" fill="#888" fill-opacity="0.18" stroke="#000" stroke-width="1"/>
  <path d="M547.145345 693.681118 L576.732819 706.853156 L572.206165 711.131107 L599.276609 719.826231 L592.033963 726.670953 L627.252384 727.665766 L607.335106 746.488751 L621.024550 760.974044 L610.160579 771.241127 L596.471135 756.755834 L576.553857 775.578819 L577.548669 740.360397 L570.306022 747.205119 L563.152857 719.687009 L558.626202 723.964961 Z" fill="#888" fill-opacity="0.18" stroke="#000" stroke-width="1"/>
  <path d="M901.006497 774.463794 L878.008315 797.267409 L875.661385 791.498234 L857.747930 813.578140 L853.992842 804.347459 L840.303861 836.811881 L829.977368 811.427510 L811.516007 818.937686 L805.883375 805.091665 L824.344736 797.581489 L814.018243 772.197117 L846.482665 785.886098 L842.727577 776.655418 L870.967525 779.959883 L868.620595 774.190708 Z" fill="#888" fill-opacity="0.18" stroke="#000" stroke-width="1"/>
  <path d="M478.028097 1033.802939 L445.801344 1037.021266 L447.613679 1031.062498 L419.791473 1036.922447 L422.691209 1027.388419 L391.606800 1043.974148 L399.581074 1017.755572 L380.513019 1011.956101 L384.862623 997.655059 L403.930678 1003.454531 L411.904952 977.235955 L428.490681 1008.320364 L431.390417 998.786336 L451.238349 1019.144964 L453.050684 1013.186196 Z" fill="#888" fill-opacity="0.18" stroke="#000" stroke-width="1"/>
  <path d="M468.515127 247.461807 L490.008025 271.689407 L484.117556 273.712732 L505.169887 292.823292 L495.745137 296.060612 L527.400311 311.529187 L501.482249 320.431816 L507.956889 339.281316 L493.819764 344.137296 L487.345124 325.287796 L461.427062 334.190426 L476.895637 302.535251 L467.470887 305.772571 L472.336618 277.759381 L466.446150 279.782706 Z" fill="#888" fill-opacity="0.18" stroke="#000" stroke-width="1"/>
  <path d="M490.853142 265.024479 L522.994422 261.042093 L521.324041 267.042200 L548.999310 260.523488 L546.326700 270.123660 L577.008655 252.804753 L569.658978 279.205227 L588.859323 284.550446 L584.850409 298.950705 L565.650064 293.605486 L558.300387 320.005960 L540.981481 289.324005 L538.308871 298.924177 L517.983278 279.042416 L516.312897 285.042523 Z" fill="#888" fill-opacity="0.18" stroke="#000" stroke-width="1"/>
  <path d="M352.573071 266.960957 L359.549909 235.334307 L364.648069 238.912049 L367.743082 210.648379 L375.900137 216.372765 L369.818463 181.669161 L392.250366 197.411222 L403.699138 181.097111 L415.934722 189.683689 L404.485950 205.997801 L426.917853 221.739862 L392.214249 227.821536 L400.371305 233.545922 L374.844388 246.067531 L379.942548 249.645272 Z" fill="#888" fill-opacity="0.18" stroke="#000" stroke-width="1"/>
  <path d="M706.136990 295.212404 L675.025617 304.212609 L675.729084 298.024185 L649.427757 308.824849 L650.553305 298.923369 L622.985737 320.863198 L626.080994 293.634130 L606.278035 291.383034 L607.966357 276.530815 L627.769316 278.781911 L630.864573 251.552842 L652.804401 279.120411 L653.929949 269.218931 L677.136019 285.647335 L677.839487 279.458911 Z" fill="#888" fill-opacity="0.18" stroke="#000" stroke-width="1"/>
  <path d="M879.779030 1059.970530 L855.912343 1038.077553 L861.563958 1035.460166 L838.660857 1018.611958 L847.703441 1014.424139 L814.627433 1002.287228 L839.494538 990.770725 L831.118900 972.685557 L844.682775 966.403828 L853.058414 984.488996 L877.925519 972.972493 L865.788608 1006.048500 L874.831192 1001.860681 L872.867187 1030.225392 L878.518802 1027.608005 Z" fill="#888" fill-opacity="0.18" stroke="#000" stroke-width="1"/>
  <path d="M905.134145 724.079390 L894.040961 693.651401 L900.262881 693.932788 L887.700204 668.426058 L897.655276 668.876277 L873.893144 642.863050 L901.269591 644.101152 L902.170029 624.191008 L917.102637 624.866336 L916.202199 644.776480 L943.578646 646.014582 L917.565420 669.776714 L927.520492 670.226933 L912.706721 694.495562 L918.928641 694.776948 Z" fill="#888" fill-opacity="0.18" stroke="#000" stroke-width="1"/>
  <path d="M481.899043 782.912771 L509.701284 799.524713 L504.696039 803.231328 L530.534037 815.097752 L522.525646 821.028336 L557.373084 826.222853 L535.350009 842.531959 L547.211177 858.548741 L535.198591 867.444617 L523.337423 851.427836 L501.314348 867.736942 L506.508865 832.889505 L498.500474 838.820089 L494.685551 810.644559 L489.680307 814.351174 Z" fill="#888" fill-opacity="0.18" stroke="#000" stroke-width="1"/>
  <path d="M822.496583 990.410780 L801.001184 1014.636160 L798.290717 1009.028590 L781.823467 1032.207110 L777.486720 1023.234999 L765.898310 1056.507145 L753.972255 1031.833839 L736.028033 1040.507333 L729.522913 1027.049167 L747.467135 1018.375673 L735.541080 993.702367 L768.813225 1005.290777 L764.476478 996.318666 L792.869783 997.813451 L790.159316 992.205882 Z" fill="#888" fill-opacity="0.18" stroke="#000" stroke-width="1"/>
  <path d="M464.630750 491.943879 L455.024481 522.873490 L450.244540 518.880542 L444.788618 546.784790 L437.140713 540.396073 L440.288684 575.487628 L419.256945 557.918657 L406.479512 573.214467 L395.007654 563.631392 L407.785087 548.335582 L386.753349 530.766611 L421.844903 527.618640 L414.196998 521.229923 L440.684659 510.894646 L435.904718 506.901698 Z" fill="#888" fill-opacity="0.18" stroke="#000" stroke-width="1"/>
  <path d="M927.736795 1017.875092 L915.261828 987.987027 L921.490106 987.983191 L907.772552 963.078516 L917.737797 963.072379 L892.809342 938.174608 L920.213766 938.157732 L920.201493 918.227241 L935.149361 918.218036 L935.161634 938.148527 L962.566059 938.131651 L937.668288 963.060106 L947.633533 963.053969 L933.946663 987.975520 L940.174941 987.971685 Z" fill="#888" fill-opacity="0.18" stroke="#000" stroke-width="1"/>
  <path d="M220.872049 387.409984 L204.150775 359.673361 L210.311216 358.756613 L193.091253 336.131693 L202.947959 334.664896 L174.639201 313.690123 L201.745143 309.656431 L198.811549 289.943019 L213.596608 287.742823 L216.530202 307.456236 L243.636145 303.422544 L222.661371 331.731302 L232.518078 330.264505 L222.632099 356.923117 L228.792541 356.006369 Z" fill="#888" fill-opacity="0.18" stroke="#000" stroke-width="1"/>
  <path d="M331.393601 446.953665 L359.857122 431.502154 L360.494704 437.697713 L383.874261 421.517155 L384.894392 431.430050 L407.126302 404.097486 L409.931662 431.357946 L429.757451 429.317685 L431.287648 444.187027 L411.461858 446.227289 L414.267218 473.487750 L386.934654 451.255840 L387.954785 461.168735 L361.769867 450.088831 L362.407449 456.284391 Z" fill="#888" fill-opacity="0.18" stroke="#000" stroke-width="1"/>
  <path d="M335.789906 815.530926 L311.062441 836.446798 L309.178519 830.510275 L289.577056 851.106313 L286.562781 841.607877 L270.352378 872.889656 L262.063121 846.768956 L243.066248 852.797506 L238.544835 838.549851 L257.541708 832.521301 L249.252451 806.400601 L280.534230 822.611004 L277.519955 813.112567 L305.410675 818.637229 L303.526753 812.700706 Z" fill="#888" fill-opacity="0.18" stroke="#000" stroke-width="1"/>
  <path d="M148.359841 671.645898 L176.163276 655.035954 L177.055319 661.200021 L199.749092 644.070898 L201.176362 653.933406 L222.264455 625.708962 L226.189448 652.830858 L245.914462 649.976318 L248.055367 664.770079 L228.330352 667.624619 L232.255345 694.746514 L204.030901 673.658420 L205.458171 683.520928 L178.839407 673.528155 L179.731450 679.692222 Z" fill="#888" fill-opacity="0.18" stroke="#000" stroke-width="1"/>
  <path d="M815.925177 288.535785 L792.199329 310.581315 L790.040792 304.739039 L771.420472 326.226194 L767.966812 316.878553 L753.231859 348.881804 L743.734296 323.175792 L725.039014 330.083111 L719.858525 316.061649 L738.553806 309.154331 L729.056243 283.448318 L761.059493 298.183272 L757.605834 288.835631 L785.723718 293.054488 L783.565180 287.212213 Z" fill="#888" fill-opacity="0.18" stroke="#000" stroke-width="1"/>
  <path d="M934.837345 43.538349 L921.585893 73.090341 L917.320114 68.552214 L908.552318 95.599208 L901.727073 88.338205 L900.637679 123.553828 L881.868253 103.586068 L867.346246 117.236560 L857.108377 106.345055 L871.630384 92.694563 L852.860958 72.726804 L888.076581 73.816198 L881.251335 66.555194 L908.788557 59.475959 L904.522778 54.937832 Z" fill="#888" fill-opacity="0.18" stroke="#000" stroke-width="1"/>
  <path d="M739.251677 686.651312 L769.639826 675.449456 L769.380677 681.672342 L794.842348 669.018590 L794.427710 678.975207 L820.355849 655.120260 L819.215593 682.500957 L839.128828 683.330234 L838.506870 698.265160 L818.593635 697.435883 L817.453379 724.816581 L793.598433 698.888441 L793.183794 708.845059 L768.862379 694.118114 L768.603230 700.340999 Z" fill="#888" fill-opacity="0.18" stroke="#000" stroke-width="1"/>
  <path d="M291.769219 958.673953 L322.135122 969.935976 L317.889948 974.493383 L345.458960 981.447785 L338.666681 988.739636 L373.877007 987.490705 L355.198239 1007.543297 L369.781942 1021.127855 L359.593523 1032.065632 L345.009821 1018.481074 L326.331053 1038.533665 L325.082122 1003.323339 L318.289843 1010.615190 L309.399599 983.608197 L305.154424 988.165604 Z" fill="#888" fill-opacity="0.18" stroke="#000" stroke-width="1"/>
  <path d="M268.595858 291.153644 L270.216471 258.807163 L275.838582 261.487337 L274.190633 233.102510 L283.186011 237.390789 L271.418262 204.181648 L296.155551 215.974414 L304.732108 197.983658 L318.225174 204.416076 L309.648618 222.406831 L334.385906 234.199597 L301.176766 245.967345 L310.172144 250.255623 L287.082804 266.847685 L292.704915 269.527859 Z" fill="#888" fill-opacity="0.18" stroke="#000" stroke-width="1"/>
  <path d="M411.034349 114.647529 L430.618806 88.852757 L433.749205 94.237186 L448.400041 69.869848 L453.408679 78.484933 L462.424796 44.425624 L476.198551 68.117108 L493.428722 58.099831 L500.941679 71.022459 L483.711509 81.039736 L497.485265 104.731220 L463.425956 95.715103 L468.434594 104.330188 L440.010003 105.006042 L443.140402 110.390470 Z" fill="#888" fill-opacity="0.18" stroke="#000" stroke-width="1"/>
  <path d="M1034.187824 288.932068 L1005.630003 273.655548 L1010.454077 269.716032 L984.083053 259.086673 L991.801571 252.783448 L956.747215 249.245217 L977.973138 231.911349 L965.366688 216.474315 L976.944464 207.019477 L989.550914 222.456512 L1010.776836 205.122643 L1007.238605 240.176999 L1014.957122 233.873774 L1020.102223 261.837001 L1024.926296 257.897485 Z" fill="#888" fill-opacity="0.18" stroke="#000" stroke-width="1"/>
  <path d="M600.605011 206.990293 L609.069204 175.728836 L613.992525 179.543593 L618.420248 151.457842 L626.297562 157.561454 L621.863306 122.609140 L643.525919 139.394072 L655.733143 123.639444 L667.549114 132.794862 L655.341890 148.549490 L677.004504 165.334422 L642.052189 169.768678 L649.929503 175.872289 L623.839167 187.173108 L628.762489 190.987865 Z" fill="#888" fill-opacity="0.18" stroke="#000" stroke-width="1"/>
  <path d="M402.442946 919.209180 L433.042417 929.820193 L428.895531 934.467213 L456.606763 940.831313 L449.971745 948.266546 L485.147372 946.266009 L466.901072 966.712899 L481.771538 979.982936 L471.819011 991.135785 L456.948545 977.865749 L438.702246 998.312639 L436.701709 963.137012 L430.066691 970.572245 L420.601758 943.761254 L416.454872 948.408275 Z" fill="#888" fill-opacity="0.18" stroke="#000" stroke-width="1"/>
  <path d="M439.033933 604.030579 L455.018769 575.863112 L458.836601 580.784049 L470.121121 554.686659 L476.229652 562.560159 L480.642075 527.605082 L497.440535 549.257207 L513.187535 537.040146 L522.350331 548.850396 L506.603331 561.067457 L523.401791 582.719582 L488.446714 578.307159 L494.555245 586.180659 L466.472265 590.625924 L470.290097 595.546862 Z" fill="#888" fill-opacity="0.18" stroke="#000" stroke-width="1"/>
  <path d="M719.090369 318.887360 L710.118828 350.007011 L705.258205 346.112680 L700.374254 374.122699 L692.597257 367.891770 L696.462427 402.911584 L675.075686 385.776530 L662.613828 401.330523 L650.948333 391.984130 L663.410191 376.430136 L642.023450 359.295082 L677.043264 355.429912 L669.266267 349.198984 L695.536960 338.324019 L690.676337 334.429689 Z" fill="#888" fill-opacity="0.18" stroke="#000" stroke-width="1"/>
  <path d="M187.136479 502.154449 L218.959766 496.137834 L217.674010 502.231954 L244.879152 493.967911 L242.821944 503.718503 L272.341445 484.485043 L266.684122 511.299172 L286.185306 515.413588 L283.099493 530.039476 L263.598309 525.925060 L257.940986 552.739188 L238.707527 523.219687 L236.650319 532.970279 L215.102500 514.420194 L213.816745 520.514314 Z" fill="#888" fill-opacity="0.18" stroke="#000" stroke-width="1"/>
  <path d="M687.510052 432.460943 L718.564791 441.654658 L714.635823 446.487325 L742.610222 451.571331 L736.323872 459.303599 L771.370415 455.688804 L754.082954 476.952539 L769.547489 489.525239 L760.117964 501.123640 L744.653429 488.550941 L727.365968 509.814676 L723.751173 474.768133 L717.464824 482.500401 L706.777886 456.152659 L702.848917 460.985326 Z" fill="#888" fill-opacity="0.18" stroke="#000" stroke-width="1"/>
  <path d="M961.840885 793.757498 L940.567857 818.178381 L937.806238 812.595825 L921.551579 835.923924 L917.132988 826.991835 L905.849243 860.368533 L893.698119 835.805289 L875.833941 844.642470 L869.206055 831.244337 L887.070233 822.407156 L874.919109 797.843912 L908.295807 809.127657 L903.877216 800.195569 L932.283000 801.430714 L929.521381 795.848159 Z" fill="#888" fill-opacity="0.18" stroke="#000" stroke-width="1"/>
  <path d="M886.971143 203.128443 L916.903334 215.497159 L912.493785 219.895720 L939.789037 227.857084 L932.733758 234.894782 L967.966200 234.938736 L948.564182 254.292404 L962.639577 268.402963 L952.056658 278.959509 L937.981263 264.848950 L918.579245 284.202619 L918.623200 248.970177 L911.567920 256.007874 L903.674686 228.692842 L899.265136 233.091403 Z" fill="#888" fill-opacity="0.18" stroke="#000" stroke-width="1"/>
  <path d="M187.198825 62.759425 L219.256054 58.149079 L217.703362 64.180713 L245.245822 57.121886 L242.761515 66.772501 L273.098821 48.856732 L266.266975 75.395923 L285.568205 80.364538 L281.841744 94.840461 L262.540514 89.871846 L255.708669 116.411037 L237.792900 86.073731 L235.308592 95.724346 L214.597978 76.243982 L213.045286 82.275616 Z" fill="#888" fill-opacity="0.18" stroke="#000" stroke-width="1"/>
  <path d="M506.244191 370.185553 L478.333088 386.613930 L477.481239 380.444179 L454.676306 397.425027 L453.313347 387.553427 L432.041743 415.639825 L428.293607 388.492923 L408.550406 391.218841 L406.505968 376.411440 L426.249168 373.685523 L422.501032 346.538622 L450.587430 367.810226 L449.224471 357.938625 L475.777540 368.104679 L474.925691 361.934929 Z" fill="#888" fill-opacity="0.18" stroke="#000" stroke-width="1"/>
  <path d="M969.771791 609.691377 L993.038773 632.220663 L987.318561 634.684530 L1009.758493 652.144873 L1000.606153 656.087059 L1033.342467 669.112444 L1008.173533 679.953455 L1016.057904 698.258134 L1002.329395 704.171413 L994.445023 685.866734 L969.276089 696.707745 L982.301474 663.971431 L973.149134 667.913617 L975.878136 639.612262 L970.157924 642.076128 Z" fill="#888" fill-opacity="0.18" stroke="#000" stroke-width="1"/>
  <path d="M612.402320 560.732962 L584.079010 545.025916 L588.962163 541.159873 L562.755056 530.132557 L570.568100 523.946888 L535.571319 519.878449 L557.057190 502.867861 L544.685854 487.241773 L556.405420 477.963270 L568.776756 493.589358 L590.262628 476.578770 L586.194188 511.575551 L594.007233 505.389883 L598.728468 533.427787 L603.611620 529.561745 Z" fill="#888" fill-opacity="0.18" stroke="#000" stroke-width="1"/>
  <path d="M846.077640 421.439685 L831.143022 392.701585 L837.349091 392.176069 L821.593672 368.507927 L831.523383 367.667101 L804.597039 344.944889 L831.903745 342.632617 L830.222092 322.773194 L845.116658 321.511955 L846.798311 341.371377 L874.105017 339.059104 L851.382805 365.985448 L861.312516 365.144621 L849.761230 391.125036 L855.967299 390.599519 Z" fill="#888" fill-opacity="0.18" stroke="#000" stroke-width="1"/>
  <path d="M92.195756 173.149144 L99.825189 204.624737 L93.673499 203.650998 L103.312262 230.399986 L93.469557 228.842004 L114.181363 257.343723 L87.113924 253.059270 L83.997959 272.744680 L69.233901 270.407707 L72.349866 250.722297 L45.282428 246.437844 L73.784147 225.726038 L63.941442 224.168056 L81.370118 201.703519 L75.218427 200.729780 Z" fill="#888" fill-opacity="0.18" stroke="#000" stroke-width="1"/>
  <path d="M797.577821 790.327059 L784.132067 819.791154 L779.896263 815.225037 L770.950564 842.213713 L764.173277 834.907925 L762.852026 870.115612 L744.214486 850.024696 L729.602911 863.579270 L719.436981 852.620589 L734.048556 839.066015 L715.411016 818.975099 L750.618703 820.296350 L743.841416 812.990563 L771.424654 806.092803 L767.188850 801.526685 Z" fill="#888" fill-opacity="0.18" stroke="#000" stroke-width="1"/>
  <path d="M1011.759103 519.898183 L1028.631391 547.543203 L1022.476040 548.493533 L1039.819133 571.024207 L1029.970573 572.544736 L1058.393296 593.364815 L1031.309755 597.546270 L1034.350813 617.243391 L1019.577972 619.524184 L1016.536914 599.827063 L989.453373 604.008518 L1010.273452 575.585794 L1000.424892 577.106323 L1010.165340 550.394195 L1004.009990 551.344525 Z" fill="#888" fill-opacity="0.18" stroke="#000" stroke-width="1"/>
  <path d="M495.837412 401.188286 L493.614302 433.498950 L488.043112 430.714473 L489.161821 459.125080 L480.247918 454.669917 L491.394768 488.092583 L466.881534 475.840885 L457.971208 493.668691 L444.600353 486.985946 L453.510679 469.158140 L428.997445 456.906441 L462.420111 445.759591 L453.506208 441.304428 L476.900733 425.145519 L471.329543 422.361042 Z" fill="#888" fill-opacity="0.18" stroke="#000" stroke-width="1"/>
  <path d="M346.979116 243.284815 L350.067941 275.524237 L344.116503 273.687977 L349.864624 301.533501 L340.342323 298.595485 L356.803032 329.746278 L330.616706 321.666732 L324.740672 340.711333 L310.457221 336.304307 L316.333255 317.259706 L290.146929 309.180160 L321.297722 292.719451 L311.775422 289.781434 L332.213627 270.015456 L326.262189 268.179195 Z" fill="#888" fill-opacity="0.18" stroke="#000" stroke-width="1"/>
  <path d="M1013.212663 339.285571 L986.396853 357.446893 L985.156368 351.343397 L963.471452 369.733029 L961.486676 359.967436 L942.034634 389.343360 L936.576498 362.487979 L917.045312 366.457532 L914.068147 351.809142 L933.599333 347.839589 L928.141198 320.984207 L957.517123 340.436249 L955.532346 330.670656 L982.675397 339.136405 L981.434912 333.032909 Z" fill="#888" fill-opacity="0.18" stroke="#000" stroke-width="1"/>
  <path d="M784.677885 792.609085 L756.640611 776.396977 L761.592263 772.619066 L735.586986 761.123861 L743.509630 755.079204 L708.591380 750.384238 L730.378649 733.761432 L718.289335 717.916145 L730.173300 708.849160 L742.262613 724.694447 L764.049882 708.071641 L759.354916 742.989891 L767.277559 736.945234 L771.495567 765.063245 L776.447219 761.285335 Z" fill="#888" fill-opacity="0.18" stroke="#000" stroke-width="1"/>
  <path d="M582.090036 550.039992 L580.426874 582.384313 L574.808294 579.696746 L576.418902 608.083716 L567.429173 603.783608 L579.153226 637.008200 L554.431471 625.182904 L545.831256 643.162361 L532.346663 636.712200 L540.946878 618.732742 L516.225124 606.907446 L549.449715 595.183393 L540.459986 590.883285 L563.571133 574.321611 L557.952552 571.634044 Z" fill="#888" fill-opacity="0.18" stroke="#000" stroke-width="1"/>
  <path d="M950.327816 1043.819193 L959.099310 1012.642566 L963.984844 1016.505599 L968.688804 988.464792 L976.505658 994.645645 L972.415658 959.651377 L993.912006 976.648725 L1006.273713 961.015018 L1017.998993 970.286299 L1005.637286 985.920006 L1027.133633 1002.917353 L992.139365 1007.007353 L999.956218 1013.188206 L973.755911 1024.231666 L978.641444 1028.094700 Z" fill="#888" fill-opacity="0.18" stroke="#000" stroke-width="1"/>
  <path d="M891.518054 765.425038 L916.488116 744.799393 L918.302575 750.757513 L938.143248 730.391811 L941.046382 739.924805 L957.621030 708.834485 L965.604649 735.050217 L984.670636 729.243948 L989.025338 743.543438 L969.959351 749.349707 L977.942971 775.565438 L946.852651 758.990791 L949.755786 768.523785 L921.931493 762.673755 L923.745952 768.631876 Z" fill="#888" fill-opacity="0.18" stroke="#000" stroke-width="1"/>
  <path d="M161.924678 566.624595 L150.453597 536.337048 L156.678537 536.540964 L143.799334 511.192586 L153.759239 511.518853 L129.675143 485.803425 L157.064881 486.700657 L157.717414 466.780848 L172.657271 467.270248 L172.004738 487.190057 L199.394476 488.087290 L173.679048 512.171385 L183.638953 512.497652 L169.128418 536.948797 L175.353358 537.152714 Z" fill="#888" fill-opacity="0.18" stroke="#000" stroke-width="1"/>
  <path d="M741.875634 178.328006 L757.913800 206.465143 L751.732787 207.231006 L768.394466 230.270160 L758.504845 231.495540 L786.292347 253.156141 L759.095890 256.525936 L761.546650 276.305177 L746.712219 278.143247 L744.261459 258.364006 L717.065003 261.733801 L738.725604 233.946300 L728.835983 235.171680 L739.370762 208.762731 L733.189749 209.528593 Z" fill="#888" fill-opacity="0.18" stroke="#000" stroke-width="1"/>
  <path d="M579.468762 788.502723 L607.997123 803.834189 L603.165476 807.764411 L629.515989 818.444513 L621.785352 824.732869 L656.832832 828.338572 L635.573581 845.631549 L648.150292 861.092821 L636.554337 870.525354 L623.977627 855.064081 L602.718376 872.357058 L606.324080 837.309579 L598.593443 843.597934 L593.502180 815.624855 L588.670532 819.555077 Z" fill="#888" fill-opacity="0.18" stroke="#000" stroke-width="1"/>
  <path d="M1002.863110 206.391442 L970.481471 205.799247 L972.981686 200.094829 L944.663539 202.643690 L948.663883 193.516620 L915.845349 206.333435 L926.846294 181.233994 L908.592155 173.233306 L914.592671 159.542702 L932.846810 167.543389 L943.847756 142.443947 L956.664570 175.262481 L960.664914 166.135411 L977.982116 188.685992 L980.482330 182.981573 Z" fill="#888" fill-opacity="0.18" stroke="#000" stroke-width="1"/>
  <path d="M259.798560 401.884398 L289.622973 414.510783 L285.175656 418.871154 L312.401236 427.067611 L305.285527 434.044203 L340.516280 434.391993 L320.948081 453.577623 L334.901266 467.809040 L324.227703 478.273929 L310.274519 464.042511 L290.706320 483.228141 L291.054110 447.997388 L283.938402 454.973980 L276.281020 427.591894 L271.833702 431.952265 Z" fill="#888" fill-opacity="0.18" stroke="#000" stroke-width="1"/>
  <path d="M180.805247 767.467585 L207.405974 748.992668 L208.718035 755.081178 L230.185541 736.438209 L232.284840 746.179826 L251.390635 716.577537 L257.163707 743.366983 L276.646940 739.168386 L279.795888 753.780811 L260.312654 757.979408 L266.085726 784.768854 L236.483437 765.663059 L238.582736 775.404676 L211.342158 767.258199 L212.654220 773.346710 Z" fill="#888" fill-opacity="0.18" stroke="#000" stroke-width="1"/>
  <path d="M318.558443 423.423999 L322.356174 391.260378 L327.784795 394.313498 L328.054307 365.882151 L336.740101 370.767142 L327.238094 336.840180 L351.124027 350.273905 L360.894009 332.902318 L373.922700 340.229804 L364.152718 357.601392 L388.038650 371.035118 L354.111688 380.537124 L362.797482 385.422115 L338.642038 400.419737 L344.070659 403.472856 Z" fill="#888" fill-opacity="0.18" stroke="#000" stroke-width="1"/>
  <path d="M601.840841 983.793458 L614.825307 954.123189 L619.131829 958.622671 L627.655406 931.497723 L634.545842 938.696894 L635.317679 903.472880 L654.266376 923.270598 L668.664717 909.489727 L679.000370 920.288483 L664.602029 934.069353 L683.550726 953.867072 L648.326712 953.095234 L655.217148 960.294404 L627.744873 967.621634 L632.051396 972.121115 Z" fill="#888" fill-opacity="0.18" stroke="#000" stroke-width="1"/>
  <path d="M663.025097 677.470048 L632.960785 689.514067 L633.046485 683.286378 L607.947186 696.644495 L608.084306 686.680191 L582.830746 711.248150 L583.207827 683.846314 L563.279219 683.572074 L563.484899 668.625618 L583.413507 668.899859 L583.790588 641.498023 L608.358546 666.751583 L608.495667 656.787280 L633.217886 670.830998 L633.303586 664.603308 Z" fill="#888" fill-opacity="0.18" stroke="#000" stroke-width="1"/>
  <path d="M58.785335 649.441160 L88.264207 662.854487 L83.702753 667.095313 L110.701255 676.011311 L103.402929 682.796633 L138.612048 684.079144 L118.541651 702.738778 L132.112294 717.335431 L121.164805 727.513413 L107.594162 712.916761 L87.523765 731.576395 L88.806277 696.367276 L81.507951 703.152597 L74.579846 675.576965 L70.018392 679.817791 Z" fill="#888" fill-opacity="0.18" stroke="#000" stroke-width="1"/>
  <path d="M793.141132 356.550319 L810.557356 383.855929 L804.422024 384.927921 L822.207722 407.110867 L812.391190 408.826054 L841.220486 429.079415 L814.225025 433.796179 L817.655398 453.429242 L802.930601 456.002022 L799.500228 436.368959 L772.504767 441.085723 L792.758128 412.256428 L782.941597 413.971615 L792.151360 387.071905 L786.016028 388.143897 Z" fill="#888" fill-opacity="0.18" stroke="#000" stroke-width="1"/>
  <path d="M854.589273 532.715606 L824.569802 544.870956 L824.632422 538.642991 L799.582798 552.094031 L799.682991 542.129287 L774.520650 566.790663 L774.796181 539.387619 L754.866694 539.187233 L755.016983 524.240117 L774.946470 524.440504 L775.222001 497.037459 L799.883377 522.199800 L799.983570 512.235057 L824.757664 526.187062 L824.820284 519.959097 Z" fill="#888" fill-opacity="0.18" stroke="#000" stroke-width="1"/>
  <path d="M49.880301 593.234232 L82.001729 597.373684 L78.891070 602.769541 L107.317945 603.341294 L102.340891 611.974664 L136.366953 602.833876 L122.680052 626.575644 L139.946792 636.529753 L132.481209 649.479808 L115.214469 639.525698 L101.527569 663.267466 L92.386781 629.241404 L87.409726 637.874774 L72.669752 613.561253 L69.559092 618.957109 Z" fill="#888" fill-opacity="0.18" stroke="#000" stroke-width="1"/>
  <path d="M532.585696 936.877757 L555.626380 914.117086 L557.962543 919.890630 L575.917159 897.844181 L579.655020 907.081851 L593.404542 874.643023 L603.683660 900.046615 L622.159000 892.570893 L627.765791 906.427398 L609.290451 913.903120 L619.569570 939.306713 L587.130742 925.557191 L590.868603 934.794861 L562.634869 931.437717 L564.971032 937.211261 Z" fill="#888" fill-opacity="0.18" stroke="#000" stroke-width="1"/>
  <path d="M51.055789 1018.136095 L71.461606 992.986068 L74.416802 998.468612 L89.845545 974.586233 L94.573858 983.358302 L104.683249 949.607345 L117.686110 973.730536 L135.230250 964.273910 L142.322720 977.432014 L124.778580 986.888641 L137.781442 1011.011832 L104.030485 1000.902441 L108.758798 1009.674511 L80.327194 1009.433699 L83.282389 1014.916242 Z" fill="#888" fill-opacity="0.18" stroke="#000" stroke-width="1"/>
  <path d="M512.698681 139.480671 L540.721344 123.243321 L541.531032 129.418745 L564.451418 112.594060 L565.746918 122.474740 L587.209867 94.534290 L590.772493 121.706159 L610.533852 119.115158 L612.477102 133.936177 L592.715743 136.527178 L596.278369 163.699047 L568.337919 142.236099 L569.633419 152.116779 L543.150407 141.769595 L543.960095 147.945020 Z" fill="#888" fill-opacity="0.18" stroke="#000" stroke-width="1"/>
  <path d="M240.521932 871.484338 L257.640244 898.977694 L251.493620 899.982915 L269.037080 922.357927 L259.202480 923.966281 L287.809864 944.531894 L260.764716 948.954868 L263.981424 968.624068 L249.229525 971.036599 L246.012816 951.367400 L218.967668 955.790374 L239.533281 927.182989 L229.698681 928.791344 L239.200370 901.993358 L233.053746 902.998579 Z" fill="#888" fill-opacity="0.18" stroke="#000" stroke-width="1"/>
  <path d="M442.265429 574.951775 L430.121464 604.975854 L425.689968 600.599405 L417.933462 627.953577 L410.843069 620.951258 L411.063256 656.183040 L391.564673 636.926663 L377.560035 651.107450 L366.924445 640.603972 L380.929083 626.423185 L361.430500 607.166808 L396.662281 606.946621 L389.571888 599.944302 L416.826976 591.846506 L412.395480 587.470057 Z" fill="#888" fill-opacity="0.18" stroke="#000" stroke-width="1"/>
  <path d="M573.417346 416.181935 L602.883443 429.623304 L598.317956 433.859788 L625.307962 442.801470 L618.003184 449.579844 L653.211066 450.895855 L633.122925 469.536385 L646.679673 484.145942 L635.722505 494.313504 L622.165757 479.703946 L602.077615 498.344476 L603.393626 463.136593 L596.088847 469.914967 L589.186982 442.332755 L584.621496 446.569239 Z" fill="#888" fill-opacity="0.18" stroke="#000" stroke-width="1"/>
  <path d="M936.860451 580.938998 L905.490628 588.992285 L906.381303 582.828020 L879.764757 592.826700 L881.189838 582.963876 L852.970076 604.058233 L856.889049 576.935468 L837.163401 574.085305 L839.301022 559.291070 L859.026670 562.141232 L862.945643 535.018466 L884.040000 563.238228 L885.465081 553.375404 L908.162655 570.499490 L909.053330 564.335225 Z" fill="#888" fill-opacity="0.18" stroke="#000" stroke-width="1"/>
  <path d="M500.843061 149.189571 L531.400253 159.921730 L527.234988 164.552285 L554.920789 171.026121 L548.256367 178.435009 L583.439643 176.573847 L565.112480 196.948289 L579.930256 210.277134 L569.933622 221.390466 L555.115846 208.061620 L536.788683 228.436062 L534.927521 193.252785 L528.263098 200.661673 L518.904460 173.813395 L514.739195 178.443950 Z" fill="#888" fill-opacity="0.18" stroke="#000" stroke-width="1"/>
  <path d="M960.647846 73.134093 L986.390801 92.786611 L980.998124 95.902778 L1005.326681 110.617921 L996.698397 115.603788 L1030.733774 124.709830 L1007.005993 138.420964 L1016.977727 155.677532 L1004.035301 163.156332 L994.063567 145.899765 L970.335787 159.610898 L979.441829 125.575522 L970.813545 130.561388 L970.212769 102.135112 L964.820091 105.251278 Z" fill="#888" fill-opacity="0.18" stroke="#000" stroke-width="1"/>
  <path d="M607.290463 343.789356 L581.646014 363.570242 L580.031393 357.554890 L559.522150 377.247150 L556.938756 367.622586 L539.335831 398.142480 L532.231498 371.674929 L512.982371 376.841717 L509.107280 362.404871 L528.356408 357.238084 L521.252075 330.770533 L551.771969 348.373458 L549.188575 338.748894 L576.802151 345.524185 L575.187529 339.508833 Z" fill="#888" fill-opacity="0.18" stroke="#000" stroke-width="1"/>
  <path d="M230.170515 668.269822 L262.484348 666.093249 L260.480645 671.990422 L288.477480 667.031452 L285.271556 676.466928 L316.875055 660.893048 L308.058765 686.840607 L326.929716 693.252454 L322.120830 707.405668 L303.249879 700.993820 L294.433588 726.941379 L278.859708 695.337880 L275.653784 704.773355 L256.473240 683.784766 L254.469538 689.681939 Z" fill="#888" fill-opacity="0.18" stroke="#000" stroke-width="1"/>
  <path d="M326.802971 599.706893 L347.673653 624.472511 L341.733700 626.345590 L362.293910 645.984630 L352.789985 648.981555 L384.042110 665.249055 L357.906317 673.490599 L363.900167 692.498449 L349.644280 696.993837 L343.650429 677.985987 L317.514635 686.227531 L333.782135 654.975406 L324.278210 657.972331 L329.853793 630.091746 L323.913840 631.964825 Z" fill="#888" fill-opacity="0.18" stroke="#000" stroke-width="1"/>
  <path d="M409.204262 823.815708 L400.774004 855.086333 L395.846546 851.276921 L391.449309 879.367462 L383.565375 873.272403 L388.037564 908.219884 L366.356745 891.458473 L354.166628 907.226341 L342.340728 898.083754 L354.530844 882.315886 L332.850026 865.554475 L367.797507 861.082286 L359.913573 854.987228 L385.991628 843.658098 L381.064169 839.848687 Z" fill="#888" fill-opacity="0.18" stroke="#000" stroke-width="1"/>
  <path d="M394.623361 730.216966 L426.959551 732.031371 L424.245737 737.637321 L452.639929 736.159484 L448.297828 745.129005 L481.576884 733.560457 L469.636104 758.226640 L487.575146 766.910843 L481.061993 780.365124 L463.122952 771.680921 L451.182172 796.347103 L439.613624 763.068047 L435.271522 772.037568 L418.818110 748.849222 L416.104297 754.455173 Z" fill="#888" fill-opacity="0.18" stroke="#000" stroke-width="1"/>
  <path d="M323.651928 600.119797 L293.900049 612.916160 L293.829088 606.688285 L269.073701 620.673454 L268.960164 610.708854 L244.332507 635.904199 L244.020278 608.501548 L224.091078 608.728623 L223.920771 593.781723 L243.849972 593.554647 L243.537743 566.151996 L268.733088 590.779653 L268.619551 580.815053 L293.687166 594.232534 L293.616205 588.004659 Z" fill="#888" fill-opacity="0.18" stroke="#000" stroke-width="1"/>
  <path d="M170.715617 236.456608 L202.363535 229.576890 L201.243965 235.703718 L228.214334 226.702978 L226.423021 236.505904 L255.408617 216.476873 L250.482506 243.434918 L270.088357 247.017544 L267.401388 261.721932 L247.795537 258.139306 L242.869426 285.097351 L222.840395 256.111755 L221.049082 265.914680 L199.004823 247.957375 L197.885253 254.084204 Z" fill="#888" fill-opacity="0.18" stroke="#000" stroke-width="1"/>
  <path d="M170.973622 385.232826 L138.876710 389.558266 L140.482912 383.540660 L112.878844 390.354583 L115.448768 380.726414 L84.953535 398.372028 L92.020826 371.894562 L72.764487 366.754715 L76.619373 352.312461 L95.875711 357.452308 L102.943002 330.974843 L120.588615 361.470076 L123.158539 351.841907 L143.695317 371.505449 L145.301520 365.487843 Z" fill="#888" fill-opacity="0.18" stroke="#000" stroke-width="1"/>
  <path d="M323.175085 781.162878 L331.476233 749.857732 L336.419370 753.646778 L340.700654 725.538332 L348.609672 731.600805 L343.993310 696.672077 L365.743110 713.343879 L377.868057 697.525843 L389.731584 706.619553 L377.606637 722.437589 L399.356437 739.109391 L364.427708 743.725753 L372.336726 749.788226 L346.305642 761.224870 L351.248778 765.013916 Z" fill="#888" fill-opacity="0.18" stroke="#000" stroke-width="1"/>
  <path d="M719.044783 773.248559 L687.655028 765.273313 L691.392480 760.291053 L663.241044 756.302220 L669.220966 748.330603 L634.342118 753.309840 L650.786904 731.387893 L634.843670 719.428048 L643.813554 707.470622 L659.756788 719.430467 L676.201575 697.508520 L681.180811 732.387369 L687.160734 724.415752 L698.867383 750.326531 L702.604835 745.344271 Z" fill="#888" fill-opacity="0.18" stroke="#000" stroke-width="1"/>
  <path d="M484.185909 884.574165 L455.058550 870.413720 L459.726629 866.290553 L432.964189 856.689204 L440.433115 850.092137 L405.268132 847.912488 L425.807679 829.770554 L412.613546 814.832702 L423.816935 804.937101 L437.011069 819.874954 L457.550617 801.733020 L455.370968 836.898003 L462.839894 830.300937 L469.062787 858.044219 L473.730866 853.921053 Z" fill="#888" fill-opacity="0.18" stroke="#000" stroke-width="1"/>
  <path d="M188.899434 719.792093 L169.922519 746.037053 L166.667268 740.727174 L152.589305 765.429909 L147.380905 756.934104 L139.162393 791.194620 L124.839290 767.831154 L107.847679 778.247956 L100.035078 765.504248 L117.026689 755.087446 L102.703587 731.723981 L136.964103 739.942493 L131.755702 731.446687 L160.156767 730.107417 L156.901517 724.797539 Z" fill="#888" fill-opacity="0.18" stroke="#000" stroke-width="1"/>
  <path d="M203.184369 139.726824 L235.555876 140.730190 L232.983422 146.402398 L261.331654 144.213359 L257.215726 153.288892 L290.194376 140.889879 L278.875576 165.847593 L297.026641 174.079448 L290.852750 187.692747 L272.701685 179.460892 L261.382885 204.418607 L248.983871 171.439957 L244.867944 180.515490 L227.838513 157.746814 L225.266058 163.419022 Z" fill="#888" fill-opacity="0.18" stroke="#000" stroke-width="1"/>
  <path d="M230.970664 406.095876 L232.435351 373.741959 L238.070315 376.395004 L236.285573 348.018450 L245.301516 352.263321 L233.373839 319.111286 L258.167680 330.784683 L266.657424 312.752799 L280.181337 319.120106 L271.691594 337.151991 L296.485435 348.825388 L263.333400 360.753065 L272.349343 364.997936 L249.340243 381.701094 L254.975207 384.354138 Z" fill="#888" fill-opacity="0.18" stroke="#000" stroke-width="1"/>
  <path d="M70.616709 932.346653 L100.712670 920.381939 L100.610551 926.609381 L125.744982 913.317484 L125.581591 923.281392 L150.899836 898.780098 L150.450513 926.180844 L170.378328 926.507624 L170.133243 941.453486 L150.205428 941.126705 L149.756105 968.527451 L125.254811 943.209207 L125.091421 953.173114 L100.406313 939.064266 L100.304195 945.291708 Z" fill="#888" fill-opacity="0.18" stroke="#000" stroke-width="1"/>
  <path d="M590.585486 955.198106 L565.464827 975.640065 L563.694113 969.668797 L543.704611 989.888440 L540.871470 980.334411 L524.069252 1011.302336 L516.278113 985.028757 L497.170056 990.695039 L492.920344 976.363997 L512.028401 970.697714 L504.237263 944.424135 L535.205187 961.226354 L532.372046 951.672325 L560.152687 957.726261 L558.381974 951.754994 Z" fill="#888" fill-opacity="0.18" stroke="#000" stroke-width="1"/>
  <path d="M654.491095 102.967119 L685.527957 112.221006 L681.589630 117.046049 L709.554123 122.184265 L703.252798 129.904334 L738.306281 126.357473 L720.977639 147.587662 L736.417777 160.190311 L726.965790 171.770414 L711.525653 159.167765 L694.197011 180.397954 L690.650149 145.344471 L684.348825 153.064540 L673.712974 126.696135 L669.774646 131.521178 Z" fill="#888" fill-opacity="0.18" stroke="#000" stroke-width="1"/>
  <path d="M1028.871971 816.429717 L1014.972506 787.176920 L1021.193377 786.873228 L1006.292691 762.657867 L1016.246085 762.171959 L990.147832 738.503245 L1017.519664 737.166998 L1016.547849 717.260211 L1031.477939 716.531350 L1032.449755 736.438137 L1059.821587 735.101891 L1036.152872 761.200144 L1046.106266 760.714236 L1033.635119 786.265844 L1039.855990 785.962151 Z" fill="#888" fill-opacity="0.18" stroke="#000" stroke-width="1"/>
  <path d="M624.280538 991.544937 L603.288608 1016.207867 L600.463231 1010.657308 L584.476824 1034.170048 L579.956221 1025.289153 L569.055493 1058.792899 L556.623833 1034.370439 L538.862043 1043.411647 L532.081137 1030.090304 L549.842927 1021.049097 L537.411266 996.626636 L570.915013 1007.527363 L566.394409 998.646468 L594.812476 999.556189 L591.987099 994.005630 Z" fill="#888" fill-opacity="0.18" stroke="#000" stroke-width="1"/>
  <path d="M746.077324 53.104538 L720.559222 73.048151 L718.906369 67.043191 L698.522805 86.865513 L695.878241 77.257577 L678.469812 107.888827 L671.197260 81.467004 L651.981389 86.756132 L648.014542 72.344228 L667.230414 67.055100 L659.957863 40.633276 L690.589113 58.041705 L687.944548 48.433770 L715.600664 55.033271 L713.947811 49.028311 Z" fill="#888" fill-opacity="0.18" stroke="#000" stroke-width="1"/>
  <path d="M873.974656 964.657835 L842.038226 959.274001 L845.356098 954.003025 L816.972875 952.327683 L822.281470 943.894121 L787.926077 951.706536 L802.524715 928.514241 L785.657592 917.897050 L793.620485 905.246708 L810.487608 915.863899 L825.086247 892.671604 L832.898662 927.026998 L838.207257 918.593436 L851.991843 943.461072 L855.309715 938.190096 Z" fill="#888" fill-opacity="0.18" stroke="#000" stroke-width="1"/>
  <path d="M732.320929 987.203450 L724.661064 955.735248 L730.813693 956.703039 L721.149070 929.963383 L730.993277 931.511847 L710.253921 903.030169 L737.325489 907.288446 L740.422418 887.600032 L755.188729 889.922729 L752.091800 909.611143 L779.163369 913.869420 L750.681690 934.608776 L760.525897 936.157241 L743.118951 958.638619 L749.271581 959.606409 Z" fill="#888" fill-opacity="0.18" stroke="#000" stroke-width="1"/>
  <path d="M560.778289 824.510591 L536.731559 802.815521 L542.361359 800.151536 L519.319858 783.493104 L528.327538 779.230727 L495.152397 767.367468 L519.923517 755.645933 L511.398764 737.630573 L524.910284 731.237009 L533.435037 749.252368 L558.206157 737.530833 L546.342898 770.705974 L555.350578 766.443598 L553.620959 794.823565 L559.250759 792.159580 Z" fill="#888" fill-opacity="0.18" stroke="#000" stroke-width="1"/>
  <path d="M667.050247 215.380744 L639.738308 232.787041 L638.668546 226.651320 L616.479136 244.428952 L614.767518 234.611798 L594.503678 263.433729 L589.796728 236.436555 L570.162420 239.859791 L567.594993 225.134060 L587.229301 221.710824 L582.522351 194.713650 L611.344282 214.977490 L609.632663 205.160336 L636.529024 214.379877 L635.459262 208.244156 Z" fill="#888" fill-opacity="0.18" stroke="#000" stroke-width="1"/>
  <path d="M953.614159 465.062921 L985.696731 460.632370 L984.110248 466.655204 L1011.691849 459.750899 L1009.153476 469.387435 L1039.590746 451.642027 L1032.610222 478.142500 L1051.883293 483.219245 L1048.075734 497.674048 L1028.802663 492.597303 L1021.822139 519.097776 L1004.076731 488.660506 L1001.538359 498.297041 L980.937282 478.700874 L979.350799 484.723708 Z" fill="#888" fill-opacity="0.18" stroke="#000" stroke-width="1"/>
  <path d="M643.649611 536.915536 L653.858869 567.651383 L647.647679 567.190316 L659.468029 593.049424 L649.530125 592.311717 L672.530617 619.000745 L645.201381 616.972050 L643.725966 636.847859 L628.819110 635.741298 L630.294525 615.865489 L602.965288 613.836794 L629.654317 590.836302 L619.716413 590.098595 L635.225299 566.268182 L629.014109 565.807115 Z" fill="#888" fill-opacity="0.18" stroke="#000" stroke-width="1"/>
  <path d="M381.725631 477.408875 L373.880142 508.831312 L368.882482 505.114477 L365.009993 533.282153 L357.013738 527.335217 L362.137036 562.193196 L340.147333 545.839122 L328.253461 561.831633 L316.259078 552.911228 L328.152950 536.918717 L306.163247 520.564643 L341.021227 515.441345 L333.024971 509.494408 L358.887163 497.680807 L353.889503 493.963972 Z" fill="#888" fill-opacity="0.18" stroke="#000" stroke-width="1"/>
  <path d="M685.313430 176.571749 L696.223665 207.065814 L690.003547 206.747064 L702.412806 232.328785 L692.460618 231.818785 L716.066089 257.974256 L688.697571 256.571755 L687.677571 276.476132 L672.749289 275.711132 L673.769289 255.806755 L646.400771 254.404255 L672.556242 230.798785 L662.604053 230.288785 L677.563312 206.109564 L671.343194 205.790814 Z" fill="#888" fill-opacity="0.18" stroke="#000" stroke-width="1"/>
  <path d="M171.693786 135.902564 L139.517058 139.587583 L141.242848 133.603177 L113.508486 139.865709 L116.269750 130.290660 L85.428966 147.325123 L93.022443 120.993737 L73.872344 115.471208 L78.014241 101.108634 L97.164339 106.631163 L104.757816 80.299777 L121.792279 111.140561 L124.553543 101.565512 L144.694428 121.634365 L146.420218 115.649959 Z" fill="#888" fill-opacity="0.18" stroke="#000" stroke-width="1"/>
  <path d="M449.830685 690.172966 L449.346133 657.789538 L455.130510 660.098747 L451.641716 631.880978 L460.896719 635.575712 L446.996046 603.201368 L472.447305 613.361887 L479.836774 594.851880 L493.719279 600.393981 L486.329811 618.903988 L511.781071 629.064507 L479.406726 642.965181 L488.661730 646.659915 L466.699265 664.717164 L472.483642 667.026373 Z" fill="#888" fill-opacity="0.18" stroke="#000" stroke-width="1"/>
  <path d="M435.557614 260.112921 L428.593876 291.742458 L423.494234 288.166828 L420.410928 316.431778 L412.251502 310.710771 L418.347549 345.411853 L395.909128 329.679084 L384.467114 345.997936 L372.227975 337.416425 L383.669989 321.097573 L361.231568 305.364804 L395.932650 299.268757 L387.773224 293.547750 L413.294952 281.015570 L408.195311 277.439940 Z" fill="#888" fill-opacity="0.18" stroke="#000" stroke-width="1"/>
  <path d="M494.480927 137.737444 L497.510537 105.492403 L503.010425 108.415191 L502.601826 79.985503 L511.401647 84.661965 L501.093249 50.971257 L525.292757 63.831527 L534.645681 46.231885 L547.845413 53.246578 L538.492489 70.846220 L562.691998 83.706491 L529.001289 94.014889 L537.801111 98.691351 L514.010202 114.260769 L519.510090 117.183558 Z" fill="#888" fill-opacity="0.18" stroke="#000" stroke-width="1"/>
  <path d="M830.736133 830.656926 L854.686864 852.457928 L849.045360 855.097037 L872.013104 871.857014 L862.986698 876.079589 L896.109150 888.089170 L871.286531 899.701249 L879.731680 917.754063 L866.192070 924.087924 L857.746921 906.035110 L832.924303 917.647189 L844.933884 884.524737 L835.907477 888.747311 L837.762351 860.375255 L832.120847 863.014364 Z" fill="#888" fill-opacity="0.18" stroke="#000" stroke-width="1"/>
  <path d="M429.233252 149.332223 L455.361112 168.470043 L450.031332 171.692606 L474.647098 185.922089 L466.119450 191.078189 L500.328820 199.507060 L476.877787 213.686335 L487.189987 230.741631 L474.398514 238.475781 L464.086315 221.420485 L440.635282 235.599759 L449.064153 201.390389 L440.536505 206.546489 L439.371771 178.137731 L434.041991 181.360293 Z" fill="#888" fill-opacity="0.18" stroke="#000" stroke-width="1"/>
  <path d="M995.505083 501.353279 L991.963343 533.546094 L986.510605 530.536257 L986.467283 558.968849 L977.742902 554.153110 L987.514508 588.003408 L963.522462 574.760127 L953.890985 592.208888 L940.804414 584.985281 L950.435891 567.536520 L926.443844 554.293239 L960.294141 544.521634 L951.569761 539.705895 L975.605130 524.516584 L970.152392 521.506748 Z" fill="#888" fill-opacity="0.18" stroke="#000" stroke-width="1"/>
  <path d="M156.999063 766.182074 L184.017019 784.041282 L178.848376 787.516421 L204.119949 800.545686 L195.850120 806.105910 L230.425250 812.879924 L207.683221 828.170538 L218.803667 844.710195 L206.398924 853.050530 L195.278477 836.510872 L172.536448 851.801486 L179.310462 817.226356 L171.040633 822.786579 L168.511090 794.466700 L163.342447 797.941840 Z" fill="#888" fill-opacity="0.18" stroke="#000" stroke-width="1"/>
  <path d="M756.402446 671.006174 L773.419529 643.450048 L777.052489 648.509007 L789.295813 622.847457 L795.108549 630.941791 L800.812546 596.174115 L816.797570 618.433535 L832.986239 606.808063 L841.705343 618.949564 L825.516674 630.575036 L841.501698 652.834456 L806.734021 647.130460 L812.546757 655.224795 L784.318409 658.626925 L787.951369 663.685884 Z" fill="#888" fill-opacity="0.18" stroke="#000" stroke-width="1"/>
  <path d="M434.635892 149.696035 L402.414681 146.422687 L405.378975 140.945057 L376.947009 141.138670 L381.689879 132.374462 L347.922185 142.427809 L360.965076 118.326237 L343.436660 108.840499 L350.550964 95.694186 L368.079380 105.179925 L381.122270 81.078353 L391.175617 114.846046 L395.918486 106.081838 L411.307561 129.989797 L414.271855 124.512167 Z" fill="#888" fill-opacity="0.18" stroke="#000" stroke-width="1"/>
  <path d="M850.494621 522.460310 L843.861001 490.759895 L849.978946 491.927034 L841.188025 464.887547 L850.976737 466.754971 L831.173516 437.614633 L858.092473 442.750047 L861.827320 423.172623 L876.510388 425.973758 L872.775541 445.551182 L899.694499 450.686596 L870.554161 470.489817 L880.342873 472.357241 L862.214836 494.261313 L868.332781 495.428453 Z" fill="#888" fill-opacity="0.18" stroke="#000" stroke-width="1"/>
  <path d="M133.334208 62.334290 L164.646161 70.609723 L160.861177 75.555970 L188.973130 79.814166 L182.917154 87.728160 L217.842080 83.083112 L201.188147 104.846598 L217.016137 116.958548 L207.932174 128.829541 L192.104184 116.717590 L175.450252 138.481075 L170.805203 103.556150 L164.749228 111.470145 L153.291207 85.448463 L149.506223 90.394710 Z" fill="#888" fill-opacity="0.18" stroke="#000" stroke-width="1"/>
  <path d="M49.835892 848.182183 L50.683138 815.806213 L56.367686 818.351284 L54.041966 790.013938 L63.137241 794.086052 L50.579336 761.167578 L75.591344 772.365891 L83.735572 754.175339 L97.378485 760.283510 L89.234258 778.474061 L114.246267 789.672374 L81.327793 802.230279 L90.423069 806.302393 L67.736780 823.441426 L73.421328 825.986497 Z" fill="#888" fill-opacity="0.18" stroke="#000" stroke-width="1"/>
  <path d="M201.157772 918.112882 L213.032754 948.244361 L206.805643 948.123686 L220.022587 973.297612 L210.059210 973.104532 L234.484952 998.495673 L207.085667 997.964704 L206.699507 1017.891457 L191.754443 1017.601837 L192.140602 997.675084 L164.741317 997.144115 L190.132457 972.718373 L180.169081 972.525293 L194.351423 947.882336 L188.124312 947.761662 Z" fill="#888" fill-opacity="0.18" stroke="#000" stroke-width="1"/>
  <path d="M721.579654 882.570960 L694.445907 864.888173 L699.591797 861.379430 L674.235866 848.515104 L682.469290 842.901115 L647.850756 836.352526 L670.492674 820.914056 L659.264696 804.447207 L671.614832 796.026224 L682.842810 812.493073 L705.484728 797.054603 L698.936139 831.673137 L707.169564 826.059148 L709.883578 854.361944 L715.029468 850.853201 Z" fill="#888" fill-opacity="0.18" stroke="#000" stroke-width="1"/>
  <path d="M145.298242 423.086186 L130.878652 452.086128 L126.797271 447.381471 L116.957682 474.057240 L110.427472 466.529789 L107.934369 501.673940 L89.976293 480.973450 L74.921391 494.033869 L65.126077 482.742693 L80.180979 469.682274 L62.222903 448.981784 L97.367053 451.474888 L90.836844 443.947437 L118.634509 437.972158 L114.553128 433.267501 Z" fill="#888" fill-opacity="0.18" stroke="#000" stroke-width="1"/>
  <path d="M183.162881 267.972841 L158.540762 289.012624 L156.627052 283.085637 L137.129265 303.779850 L134.067329 294.296670 L118.014219 325.659460 L109.593895 299.580715 L90.627536 305.704587 L86.034631 291.479818 L105.000991 285.355945 L96.580667 259.277201 L127.943456 275.330310 L124.881520 265.847130 L152.799632 271.231662 L150.885922 265.304675 Z" fill="#888" fill-opacity="0.18" stroke="#000" stroke-width="1"/>
  <path d="M870.017248 489.206703 L902.104871 484.812875 L900.511495 490.833890 L928.100981 483.961159 L925.551580 493.594782 L956.009141 475.884224 L948.998289 502.376690 L968.265537 507.475491 L964.441436 521.925927 L945.174189 516.827126 L938.163337 543.319591 L920.452779 512.862030 L917.903378 522.495654 L897.324745 502.875920 L895.731369 508.896935 Z" fill="#888" fill-opacity="0.18" stroke="#000" stroke-width="1"/>
</svg>
