<?xml version="1.0" encoding="UTF-8"?>
<svg xmlns="http://www.w3.org/2000/svg" width="1100" height="1100" viewBox="0 0 1100 1100">
  <rect x="0" y="0" width="1100" height="1100" fill="white"/>
  <text x="10.0" y="18.0" font-family="monospace" font-size="12">prefix=N142_job5048544_task142 run_id=142 L=10.0512130175 feas=0.000e+00 N=142</text>
  <rect x="40.000000" y="40.000000" width="1020.000000" height="1020.000000" fill="none" stroke="#000" stroke-width="2"/>
  <path d="M814.530531 273.572224 L791.445707 297.127340 L788.971783 291.287200 L771.053857 314.031205 L767.095578 304.686981 L753.630715 337.943238 L742.745449 312.246622 L724.057001 320.163180 L718.119583 306.146844 L736.808031 298.230286 L725.922764 272.533671 L759.179021 285.998534 L755.220742 276.654310 L784.023935 279.606921 L781.550010 273.766781 Z" fill="#888" fill-opacity="0.18" stroke="#000" stroke-width="1"/>
  <path d="M744.617012 588.607531 L737.095206 620.719445 L731.951213 617.009072 L728.426504 645.747865 L720.196115 639.811268 L725.930595 675.228734 L703.297025 658.903091 L691.423830 675.363869 L679.078247 666.458973 L690.951441 649.998195 L668.317872 633.672553 L703.735337 627.938073 L695.504948 622.001476 L721.663227 609.588325 L716.519233 605.877952 Z" fill="#888" fill-opacity="0.18" stroke="#000" stroke-width="1"/>
  <path d="M657.456612 183.578681 L627.368898 197.087271 L627.196346 190.747100 L602.215278 205.385683 L601.939195 195.241410 L577.268721 221.292300 L576.509493 193.395550 L556.220947 193.947716 L555.806823 178.731307 L576.095368 178.179141 L575.336140 150.282391 L601.387029 174.952865 L601.110946 164.808592 L626.851242 178.066760 L626.678690 171.726589 Z" fill="#888" fill-opacity="0.18" stroke="#000" stroke-width="1"/>
  <path d="M876.365181 758.691972 L905.830250 773.509606 L901.020532 777.644112 L928.139939 787.787070 L920.444390 794.402281 L956.221290 797.103126 L935.058530 815.294956 L948.288952 830.686054 L936.745628 840.608870 L923.515206 825.217772 L902.352447 843.409602 L905.053292 807.632703 L897.357743 814.247914 L891.401095 785.913126 L886.591377 790.047633 Z" fill="#888" fill-opacity="0.18" stroke="#000" stroke-width="1"/>
  <path d="M837.772119 1052.185986 L804.931949 1049.140360 L807.901600 1043.536013 L778.950979 1043.986976 L783.702419 1035.020020 L749.406427 1045.558810 L762.472888 1020.899680 L744.538976 1011.396799 L751.666136 997.946365 L769.600049 1007.449246 L782.666510 982.790116 L793.205300 1017.086108 L797.956740 1008.119151 L813.840900 1032.327317 L816.810550 1026.722970 Z" fill="#888" fill-opacity="0.18" stroke="#000" stroke-width="1"/>
  <path d="M551.344273 448.653350 L564.849998 418.564350 L569.192297 423.187334 L578.131176 395.647576 L585.078853 403.044350 L586.201595 367.183221 L605.307708 387.524350 L620.101256 373.628995 L630.522772 384.724156 L615.729224 398.619511 L634.835337 418.960640 L598.974208 417.837898 L605.921886 425.234673 L577.876894 432.433302 L582.219192 437.056286 Z" fill="#888" fill-opacity="0.18" stroke="#000" stroke-width="1"/>
  <path d="M755.076978 865.353954 L787.929037 862.439381 L786.016531 868.486682 L814.413251 862.832644 L811.353241 872.508326 L843.192472 855.969145 L834.777444 882.577272 L854.128809 888.697291 L849.538794 903.210815 L830.187430 897.090795 L821.772402 923.698922 L805.233221 891.859691 L802.173211 901.535373 L782.191519 880.581285 L780.279013 886.628587 Z" fill="#888" fill-opacity="0.18" stroke="#000" stroke-width="1"/>
  <path d="M964.651877 584.760589 L997.312548 589.346774 L994.082702 594.805312 L1023.022513 595.715913 L1017.854759 604.449573 L1052.608293 595.534807 L1038.396971 619.552371 L1055.864290 629.887878 L1048.112660 642.988368 L1030.645340 632.652861 L1016.434018 656.670426 L1007.519253 621.916893 L1002.351499 630.650552 L987.623010 605.722386 L984.393165 611.180924 Z" fill="#888" fill-opacity="0.18" stroke="#000" stroke-width="1"/>
  <path d="M951.679729 495.592476 L926.668335 474.094040 L932.334581 471.244269 L908.469755 454.848783 L917.535748 450.289149 L883.471681 439.023252 L908.403162 426.484258 L899.283893 408.352272 L912.882883 401.512821 L922.002151 419.644807 L946.933631 407.105814 L935.667734 441.169881 L944.733727 436.610247 L943.667072 465.544726 L949.333318 462.694955 Z" fill="#888" fill-opacity="0.18" stroke="#000" stroke-width="1"/>
  <path d="M435.778468 848.191607 L405.035911 836.248083 L409.429921 831.674222 L381.467652 824.160678 L388.498067 816.842499 L352.626580 817.561908 L371.960224 797.436915 L357.323865 783.376084 L367.869489 772.398815 L382.505847 786.459647 L401.839490 766.334654 L402.558899 802.206141 L409.589315 794.887962 L418.217941 822.526498 L422.611950 817.952636 Z" fill="#888" fill-opacity="0.18" stroke="#000" stroke-width="1"/>
  <path d="M138.267249 688.295139 L157.303814 661.362598 L160.676708 666.733922 L174.741635 641.425432 L180.138266 650.019550 L188.131983 615.042677 L202.972719 638.676501 L220.160954 627.883239 L228.255901 640.774416 L211.067665 651.567678 L225.908401 675.201502 L190.931529 667.207785 L196.328160 675.801903 L167.422497 677.476569 L170.795392 682.847893 Z" fill="#888" fill-opacity="0.18" stroke="#000" stroke-width="1"/>
  <path d="M770.754931 758.100961 L795.364358 780.058389 L789.646366 782.802856 L813.203817 799.636997 L804.055030 804.028145 L837.904868 815.922245 L812.745702 827.997901 L821.527997 846.295476 L807.804816 852.882197 L799.022521 834.584622 L773.863355 846.660278 L785.757455 812.810440 L776.608667 817.201588 L778.210381 788.291791 L772.492389 791.036258 Z" fill="#888" fill-opacity="0.18" stroke="#000" stroke-width="1"/>
  <path d="M804.256481 925.894179 L775.560906 942.151992 L774.797357 935.855602 L751.291603 952.761854 L750.069926 942.687630 L727.938559 970.927384 L724.578946 943.223268 L704.430497 945.666623 L702.597981 930.555287 L722.746429 928.111931 L719.386816 900.407815 L747.626570 922.539181 L746.404893 912.464957 L773.270260 923.262821 L772.506712 916.966431 Z" fill="#888" fill-opacity="0.18" stroke="#000" stroke-width="1"/>
  <path d="M334.342459 1009.017670 L359.204820 987.347055 L361.212743 993.363348 L380.860486 972.095814 L384.073162 981.721883 L400.106644 949.625020 L408.941503 976.096710 L428.193641 969.671358 L433.012655 984.110461 L413.760517 990.535813 L422.595376 1017.007503 L390.498514 1000.974020 L393.711190 1010.600089 L365.228588 1005.395935 L367.236510 1011.412228 Z" fill="#888" fill-opacity="0.18" stroke="#000" stroke-width="1"/>
  <path d="M138.188116 659.008077 L127.660634 690.263871 L122.890928 686.083268 L116.661870 714.359418 L109.030340 707.670453 L111.386753 743.471689 L90.400046 725.077036 L77.022117 740.340095 L65.574823 730.306648 L78.952752 715.043589 L57.966046 696.648936 L93.767281 694.292524 L86.135752 687.603560 L113.351517 677.722062 L108.581811 673.541459 Z" fill="#888" fill-opacity="0.18" stroke="#000" stroke-width="1"/>
  <path d="M622.475361 847.601797 L620.047529 880.493410 L614.388355 877.629622 L615.383388 906.566653 L606.328709 901.984592 L617.510256 936.076441 L592.609889 923.475775 L583.445768 941.585133 L569.863749 934.712043 L579.027870 916.602685 L554.127502 904.002019 L588.219351 892.820472 L579.164672 888.238412 L603.070006 871.902047 L597.410832 869.038259 Z" fill="#888" fill-opacity="0.18" stroke="#000" stroke-width="1"/>
  <path d="M711.953516 946.549321 L688.174428 969.403369 L685.876304 963.491841 L667.286063 985.689696 L663.609066 976.231251 L649.155447 1009.069857 L639.043704 983.059133 L620.126814 990.413128 L614.611318 976.225460 L633.528208 968.871466 L623.416466 942.860742 L656.255071 957.314361 L652.578074 947.855916 L681.280058 951.668785 L678.981934 945.757257 Z" fill="#888" fill-opacity="0.18" stroke="#000" stroke-width="1"/>
  <path d="M625.415849 896.346109 L642.698593 868.255909 L646.406710 873.401530 L658.831334 847.248699 L664.764321 855.481692 L670.514336 820.066745 L686.830048 842.707474 L703.296033 830.841501 L712.195513 843.190990 L695.729528 855.056962 L712.045240 877.697691 L676.630293 871.947676 L682.563280 880.180669 L653.822943 883.692770 L657.531059 888.838390 Z" fill="#888" fill-opacity="0.18" stroke="#000" stroke-width="1"/>
  <path d="M939.535408 150.851788 L938.023449 117.905369 L943.983757 120.073839 L939.544960 91.461972 L949.081453 94.931525 L933.914101 62.416412 L960.139457 71.957680 L967.078561 52.884695 L981.383301 58.089023 L974.444196 77.162009 L1000.669552 86.703278 L968.154439 101.870629 L977.690932 105.340181 L955.904373 124.410779 L961.864681 126.579250 Z" fill="#888" fill-opacity="0.18" stroke="#000" stroke-width="1"/>
  <path d="M666.703505 68.706637 L684.749908 96.312431 L678.514678 97.474086 L696.878803 119.859366 L686.902435 121.718013 L716.489973 142.012315 L689.054961 147.123596 L692.772256 167.076332 L677.807704 169.864303 L674.090409 149.911567 L646.655397 155.022847 L666.949698 125.435308 L656.973330 127.293956 L666.044218 99.797395 L659.808988 100.959050 Z" fill="#888" fill-opacity="0.18" stroke="#000" stroke-width="1"/>
  <path d="M122.312321 750.436353 L151.529380 765.737205 L146.652227 769.791945 L173.600924 780.380126 L165.797480 786.867711 L201.525051 790.157359 L180.065580 807.998217 L193.040749 823.605105 L181.335583 833.336481 L168.360414 817.729594 L146.900943 835.570451 L150.190592 799.842880 L142.387148 806.330464 L136.897922 777.901426 L132.020770 781.956166 Z" fill="#888" fill-opacity="0.18" stroke="#000" stroke-width="1"/>
  <path d="M299.820425 306.425687 L326.099237 286.496398 L327.693281 292.635336 L348.742135 272.753495 L351.292606 282.575795 L369.472179 251.643866 L376.485975 278.655192 L396.130576 273.554250 L399.956283 288.287701 L380.311682 293.388643 L387.325478 320.399969 L356.393548 302.220396 L358.944020 312.042697 L330.881370 304.913212 L332.475415 311.052149 Z" fill="#888" fill-opacity="0.18" stroke="#000" stroke-width="1"/>
  <path d="M918.153941 169.854798 L888.711534 184.717409 L888.250893 178.391640 L863.961228 194.150892 L863.224204 184.029662 L839.763692 211.175297 L837.736874 183.341916 L817.494415 184.815965 L816.388879 169.634121 L836.631338 168.160072 L834.604520 140.326691 L861.750155 163.787203 L861.013131 153.665974 L887.329613 165.740103 L886.868973 159.414335 Z" fill="#888" fill-opacity="0.18" stroke="#000" stroke-width="1"/>
  <path d="M391.360211 515.106144 L385.573532 482.636668 L391.765354 484.011035 L383.640817 456.220142 L393.547731 458.419130 L374.277916 428.154375 L401.521930 434.201592 L405.919906 414.387765 L420.780276 417.686247 L416.382300 437.500074 L443.626313 443.547291 L413.361559 462.817106 L423.268473 465.016094 L404.148996 486.759770 L410.340817 488.134138 Z" fill="#888" fill-opacity="0.18" stroke="#000" stroke-width="1"/>
  <path d="M651.729761 255.597970 L657.065616 288.144571 L650.893449 286.684471 L658.631817 314.585358 L648.756350 312.249198 L667.604619 342.778265 L640.447085 336.353826 L635.774766 356.104760 L620.961565 352.600521 L625.633884 332.849587 L598.476350 326.425148 L629.005416 307.576879 L619.129949 305.240720 L638.549115 283.764271 L632.376948 282.304172 Z" fill="#888" fill-opacity="0.18" stroke="#000" stroke-width="1"/>
  <path d="M391.382306 274.473783 L399.622775 242.538737 L404.682217 246.363601 L408.850906 217.711134 L416.946011 223.830918 L412.007707 188.293694 L434.269247 205.123100 L446.508815 188.932889 L458.651474 198.112564 L446.411906 214.302776 L468.673447 231.132181 L433.136223 236.070486 L441.231329 242.190270 L414.801099 254.013331 L419.860540 257.838196 Z" fill="#888" fill-opacity="0.18" stroke="#000" stroke-width="1"/>
  <path d="M843.967283 1053.989425 L827.313140 1025.522038 L833.598338 1024.671257 L816.367781 1001.402185 L826.424097 1000.040936 L797.880184 978.303269 L825.535053 974.559834 L822.812555 954.447202 L837.897029 952.405328 L840.619527 972.517960 L868.274396 968.774525 L846.536729 997.318438 L856.593045 995.957189 L846.168733 1022.969696 L852.453930 1022.118915 Z" fill="#888" fill-opacity="0.18" stroke="#000" stroke-width="1"/>
  <path d="M416.351547 611.562710 L434.873967 584.274022 L438.348112 589.580419 L451.930585 564.009767 L457.489216 572.500003 L464.818229 537.377835 L480.104464 560.725985 L497.084937 549.608723 L505.422883 562.344077 L488.442411 573.461339 L503.728646 596.809489 L468.606478 589.480476 L474.165109 597.970712 L445.296400 600.193215 L448.770545 605.499612 Z" fill="#888" fill-opacity="0.18" stroke="#000" stroke-width="1"/>
  <path d="M982.489623 463.411875 L980.471475 496.331164 L974.777085 493.538055 L976.132303 522.460455 L967.021279 517.991479 L978.626398 551.941476 L953.571084 539.651793 L944.633132 557.873840 L930.966597 551.170376 L939.904549 532.948329 L914.849235 520.658646 L948.799233 509.053527 L939.688209 504.584551 L963.388306 487.951835 L957.693916 485.158725 Z" fill="#888" fill-opacity="0.18" stroke="#000" stroke-width="1"/>
  <path d="M657.954679 199.943945 L682.659462 178.093858 L684.710899 184.095453 L704.204118 162.686197 L707.486417 172.288749 L723.287050 140.076622 L732.313371 166.483641 L751.518475 159.919043 L756.441924 174.322871 L737.236820 180.887469 L746.263141 207.294487 L714.051014 191.493853 L717.333313 201.096405 L688.813772 196.098643 L690.865209 202.100238 Z" fill="#888" fill-opacity="0.18" stroke="#000" stroke-width="1"/>
  <path d="M641.433428 823.108743 L644.069638 790.233175 L649.710551 793.132766 L648.898905 764.190011 L657.924367 768.829357 L646.959076 734.667338 L671.779097 747.425538 L681.057788 729.374614 L694.595981 736.333633 L685.317290 754.384557 L710.137310 767.142757 L675.975291 778.108048 L685.000753 782.747393 L660.992379 798.931948 L666.633292 801.831539 Z" fill="#888" fill-opacity="0.18" stroke="#000" stroke-width="1"/>
  <path d="M149.768625 577.451700 L178.676861 561.575101 L179.357009 567.881045 L203.084461 551.287375 L204.172698 561.376886 L226.675883 533.432516 L229.668534 561.178671 L249.847556 559.002197 L251.479912 574.136464 L231.300890 576.312938 L234.293542 604.059093 L206.349172 581.555908 L207.437409 591.645419 L180.717306 580.492934 L181.397454 586.798878 Z" fill="#888" fill-opacity="0.18" stroke="#000" stroke-width="1"/>
  <path d="M77.983185 899.942299 L82.870891 867.325388 L88.299358 870.605522 L89.477264 841.675358 L98.162812 846.923572 L89.569476 812.089168 L113.454733 826.521755 L123.951161 809.150659 L136.979482 817.022980 L126.483055 834.394076 L150.368312 848.826664 L115.533908 857.419999 L124.219456 862.668213 L99.156293 877.165789 L104.584761 880.445923 Z" fill="#888" fill-opacity="0.18" stroke="#000" stroke-width="1"/>
  <path d="M1052.055899 134.365304 L1027.053479 112.856432 L1032.720914 110.009026 L1008.862932 93.603583 L1017.930827 89.047733 L983.871464 77.767622 L1008.808174 65.239033 L999.696474 47.103243 L1013.298316 40.269468 L1022.410017 58.405257 L1047.346728 45.876668 L1036.066617 79.936032 L1045.134511 75.380181 L1044.055782 104.314213 L1049.723216 101.466806 Z" fill="#888" fill-opacity="0.18" stroke="#000" stroke-width="1"/>
  <path d="M690.813852 90.099604 L718.962132 72.911617 L719.931280 79.179654 L742.871301 61.513378 L744.421939 71.542237 L765.617492 42.593496 L769.881746 70.172858 L789.939464 67.071582 L792.265420 82.114871 L772.207702 85.216146 L776.471956 112.795509 L747.523214 91.599955 L749.073852 101.628814 L721.869578 91.715728 L722.838726 97.983765 Z" fill="#888" fill-opacity="0.18" stroke="#000" stroke-width="1"/>
  <path d="M985.887019 538.668962 L989.912014 505.934393 L995.425177 509.070085 L995.838986 480.118909 L1004.660047 485.136017 L995.150162 450.540595 L1019.408081 464.337640 L1029.442296 446.695517 L1042.673888 454.221178 L1032.639673 471.863301 L1056.897592 485.660346 L1022.302170 495.170231 L1031.123232 500.187338 L1006.451504 515.341469 L1011.964667 518.477161 Z" fill="#888" fill-opacity="0.18" stroke="#000" stroke-width="1"/>
  <path d="M634.617270 1012.975777 L601.990138 1017.794780 L603.547943 1011.646546 L575.527837 1018.941440 L578.020325 1009.104266 L547.196169 1027.465981 L554.050512 1000.413752 L534.376164 995.428776 L538.114896 980.673015 L557.789244 985.657991 L564.643586 958.605763 L583.005301 989.429918 L585.497789 979.592744 L606.663553 999.350079 L608.221358 993.201845 Z" fill="#888" fill-opacity="0.18" stroke="#000" stroke-width="1"/>
  <path d="M879.738271 620.337827 L848.274388 610.449619 L852.356902 605.595691 L823.959659 599.944280 L830.491680 592.177994 L794.745914 595.263654 L812.708973 573.906370 L797.176402 560.842327 L806.974434 549.192899 L822.507005 562.256942 L840.470064 540.899657 L843.555723 576.645424 L850.087745 568.879139 L860.521928 595.887834 L864.604442 591.033906 Z" fill="#888" fill-opacity="0.18" stroke="#000" stroke-width="1"/>
  <path d="M226.414475 725.493094 L236.891697 694.220416 L241.668117 698.393346 L247.851711 670.107219 L255.493984 676.783906 L253.080021 640.986505 L274.096271 659.347396 L287.449646 644.062851 L298.913055 654.077882 L285.559680 669.362428 L306.575930 687.723318 L270.778529 690.137281 L278.420802 696.813969 L251.220958 706.739206 L255.997379 710.912135 Z" fill="#888" fill-opacity="0.18" stroke="#000" stroke-width="1"/>
  <path d="M230.684651 861.965661 L227.432398 829.145310 L233.499047 830.995528 L227.553289 802.658453 L237.259928 805.618801 L220.394202 773.951335 L247.087458 782.092292 L253.008154 762.679015 L267.568111 767.119538 L261.647415 786.532814 L288.340671 794.673772 L256.673204 811.539497 L266.379843 814.499846 L245.632345 834.695963 L251.698994 836.546180 Z" fill="#888" fill-opacity="0.18" stroke="#000" stroke-width="1"/>
  <path d="M857.217589 959.488107 L882.471550 938.275139 L884.369269 944.327097 L904.402119 923.421912 L907.438470 933.105045 L924.055426 901.306336 L932.405390 927.934952 L951.771656 921.862250 L956.326182 936.386950 L936.959916 942.459651 L945.309881 969.088267 L913.511171 952.471311 L916.547522 962.154444 L888.164707 956.431013 L890.062427 962.482971 Z" fill="#888" fill-opacity="0.18" stroke="#000" stroke-width="1"/>
  <path d="M845.733438 632.960128 L813.314919 639.025785 L814.635994 632.822375 L786.915989 641.185575 L789.029709 631.260119 L758.931768 650.789457 L764.744500 623.494453 L744.893588 619.267011 L748.064169 604.378827 L767.915081 608.606269 L773.727814 581.311265 L793.257151 611.409207 L795.370872 601.483751 L817.278146 620.415555 L818.599221 614.212145 Z" fill="#888" fill-opacity="0.18" stroke="#000" stroke-width="1"/>
  <path d="M78.114547 123.824682 L95.791199 151.668685 L89.541032 152.747085 L107.604997 175.375274 L97.604730 177.100714 L126.918997 197.787784 L99.418261 202.532742 L102.869139 222.533277 L87.868738 225.121436 L84.417860 205.120901 L56.917124 209.865859 L77.604195 180.551592 L67.603927 182.277031 L77.040697 154.903883 L70.790530 155.982283 Z" fill="#888" fill-opacity="0.18" stroke="#000" stroke-width="1"/>
  <path d="M201.674121 678.640197 L211.982057 709.969082 L205.658295 709.481668 L217.620915 735.849026 L207.502896 735.069163 L230.848288 762.313866 L203.023736 760.169245 L201.464011 780.405282 L186.286983 779.235489 L187.846708 758.999451 L160.022156 756.854830 L187.266859 733.509439 L177.148840 732.729576 L193.010772 708.506840 L186.687010 708.019426 Z" fill="#888" fill-opacity="0.18" stroke="#000" stroke-width="1"/>
  <path d="M223.975744 796.319771 L224.633323 829.294309 L218.731217 826.972094 L222.426989 855.689390 L212.983620 851.973846 L227.303182 884.871130 L201.333916 874.653383 L193.902828 893.540121 L179.737774 887.966805 L187.168863 869.080066 L161.199598 858.862319 L194.096881 844.542757 L184.653512 840.827213 L206.927005 822.327664 L201.024900 820.005448 Z" fill="#888" fill-opacity="0.18" stroke="#000" stroke-width="1"/>
  <path d="M299.602638 102.017807 L327.620689 84.618343 L328.637011 90.878904 L351.443349 73.040385 L353.069463 83.057283 L374.046423 53.949754 L378.518236 81.496223 L398.552032 78.243996 L400.991202 93.269343 L380.957407 96.521570 L385.429219 124.068040 L356.321690 103.091079 L357.947804 113.107977 L330.669653 103.400027 L331.685974 109.660588 Z" fill="#888" fill-opacity="0.18" stroke="#000" stroke-width="1"/>
  <path d="M435.058580 958.731255 L457.359062 934.432263 L460.023049 940.188191 L477.185992 916.869202 L481.448370 926.078687 L493.816137 892.399028 L505.537678 917.725112 L523.956649 909.200355 L530.350216 923.014583 L511.931246 931.539340 L523.652787 956.865425 L489.973127 944.497658 L494.235506 953.707143 L465.351022 951.700048 L468.015009 957.455976 Z" fill="#888" fill-opacity="0.18" stroke="#000" stroke-width="1"/>
  <path d="M136.850524 613.185936 L113.935662 636.906426 L111.419810 631.084224 L93.665879 653.956473 L89.640516 644.640951 L76.415118 677.993162 L65.345371 652.375477 L46.714328 660.426202 L40.676284 646.452919 L59.307328 638.402194 L48.237581 612.784509 L81.589792 626.009908 L77.564429 616.694386 L106.388107 619.439822 L103.872256 613.617621 Z" fill="#888" fill-opacity="0.18" stroke="#000" stroke-width="1"/>
  <path d="M43.559571 978.365196 L74.612419 989.477043 L70.343094 994.167501 L98.497441 1000.925795 L91.666521 1008.430528 L127.505654 1006.745999 L108.720622 1027.384013 L123.730087 1041.045855 L113.483706 1052.302954 L98.474241 1038.641112 L79.689208 1059.279127 L78.004679 1023.439993 L71.173758 1030.944726 L61.804443 1003.548416 L57.535117 1008.238874 Z" fill="#888" fill-opacity="0.18" stroke="#000" stroke-width="1"/>
  <path d="M387.074066 729.839338 L368.995286 757.423940 L365.435799 752.174408 L352.268542 777.961326 L346.573363 769.562075 L339.813182 804.798151 L324.151439 781.700210 L307.352937 793.090569 L298.810168 780.491691 L315.608671 769.101333 L299.946928 746.003392 L335.183004 752.763572 L329.487825 744.364321 L358.316825 741.675343 L354.757338 736.425811 Z" fill="#888" fill-opacity="0.18" stroke="#000" stroke-width="1"/>
  <path d="M235.553489 238.247437 L202.606822 239.753964 L204.776274 233.794014 L176.163676 238.228094 L179.634801 228.692173 L147.117188 243.854163 L156.662780 217.630381 L137.590939 210.688132 L142.797625 196.384251 L161.869467 203.326500 L171.415059 177.102718 L186.577050 209.620331 L190.048174 200.084411 L209.115180 221.874113 L211.284633 215.914163 Z" fill="#888" fill-opacity="0.18" stroke="#000" stroke-width="1"/>
  <path d="M746.782629 358.133320 L776.337350 372.771319 L771.552888 376.935027 L798.733535 386.912715 L791.078397 393.574647 L826.871075 396.057661 L805.819444 414.377976 L819.143310 429.688253 L807.660603 439.681152 L794.336737 424.370875 L773.285107 442.691191 L775.768120 406.898513 L768.112982 413.560446 L761.983965 385.262443 L757.199504 389.426151 Z" fill="#888" fill-opacity="0.18" stroke="#000" stroke-width="1"/>
  <path d="M958.659475 276.263564 L989.349535 288.341344 L984.935575 292.895957 L1012.864737 300.531647 L1005.802402 307.819027 L1041.676690 307.256415 L1022.255269 327.296710 L1036.830029 341.421381 L1026.236526 352.352451 L1011.661766 338.227781 L992.240344 358.268077 L991.677731 322.393788 L984.615396 329.681168 L976.107656 302.005182 L971.693697 306.559795 Z" fill="#888" fill-opacity="0.18" stroke="#000" stroke-width="1"/>
  <path d="M837.284675 743.120612 L810.099210 724.447020 L815.424808 721.002381 L789.929935 707.278196 L798.450891 701.766773 L763.369942 694.242938 L786.802573 679.086525 L775.779727 662.044611 L788.561162 653.777476 L799.584008 670.819390 L823.016640 655.662976 L815.492805 690.743926 L824.013762 685.232503 L826.076004 714.113102 L831.401602 710.668463 Z" fill="#888" fill-opacity="0.18" stroke="#000" stroke-width="1"/>
  <path d="M553.245260 125.553975 L573.365275 99.420901 L576.516115 104.925421 L591.602346 80.212115 L596.643691 89.019347 L606.058408 54.397905 L619.922106 78.617792 L637.536570 68.535103 L645.098587 81.745950 L627.484124 91.828640 L641.347822 116.048528 L606.726380 106.633810 L611.767725 115.441042 L582.817796 115.934460 L585.968637 121.438980 Z" fill="#888" fill-opacity="0.18" stroke="#000" stroke-width="1"/>
  <path d="M575.785655 137.892308 L546.034009 152.125793 L545.707920 145.791663 L521.088795 161.031103 L520.567054 150.896495 L496.534888 177.537369 L495.100099 149.667197 L474.830883 150.710680 L474.048270 135.508769 L494.317486 134.465285 L492.882696 106.595114 L519.523570 130.627279 L519.001829 120.492671 L545.055743 133.123403 L544.729654 126.789273 Z" fill="#888" fill-opacity="0.18" stroke="#000" stroke-width="1"/>
  <path d="M529.600852 919.353232 L533.024015 886.550267 L538.593834 889.584184 L538.475900 860.630291 L547.387610 865.484558 L537.244002 831.069615 L561.751205 844.418849 L571.459739 826.595428 L584.827305 833.876828 L575.118771 851.700249 L599.625974 865.049483 L565.211031 875.193092 L574.122741 880.047359 L549.733472 895.652018 L555.303291 898.685935 Z" fill="#888" fill-opacity="0.18" stroke="#000" stroke-width="1"/>
  <path d="M354.449519 732.773026 L333.311084 707.456645 L339.368609 705.576774 L318.522566 685.482388 L328.214608 682.474594 L296.465018 665.763977 L323.118132 657.492542 L317.102543 638.108460 L331.640605 633.596768 L337.656194 652.980850 L364.309307 644.709416 L347.598690 676.459005 L357.290731 673.451210 L351.483661 701.817031 L357.541187 699.937159 Z" fill="#888" fill-opacity="0.18" stroke="#000" stroke-width="1"/>
  <path d="M915.411216 727.590165 L917.361199 694.666767 L923.061359 697.448080 L921.646260 668.528548 L930.766517 672.978650 L919.091128 639.052754 L944.171835 651.290533 L953.072037 633.050019 L966.752423 639.725171 L957.852220 657.965685 L982.932927 670.203464 L949.007031 681.878853 L958.127288 686.328954 L934.461681 703.010707 L940.161841 705.792020 Z" fill="#888" fill-opacity="0.18" stroke="#000" stroke-width="1"/>
  <path d="M404.099745 66.276777 L427.111621 89.903164 L421.215526 92.240598 L443.536673 110.682622 L434.102921 114.422517 L467.037038 128.657159 L441.094221 138.941871 L448.574011 157.809374 L434.423384 163.419217 L426.943593 144.551714 L401.000776 154.836425 L415.235417 121.902308 L405.801665 125.642203 L409.423336 96.915467 L403.527241 99.252902 Z" fill="#888" fill-opacity="0.18" stroke="#000" stroke-width="1"/>
  <path d="M250.962229 951.670287 L278.004567 932.790020 L279.355921 938.986904 L301.170480 919.948343 L303.332646 929.863358 L322.714769 899.670404 L328.660726 926.936696 L348.490757 922.612364 L351.734006 937.484887 L331.903975 941.809219 L337.849932 969.075511 L307.656979 949.693389 L309.819145 959.608404 L282.058628 951.380673 L283.409982 957.577558 Z" fill="#888" fill-opacity="0.18" stroke="#000" stroke-width="1"/>
  <path d="M140.773964 166.370348 L169.243648 149.720134 L170.093562 156.005449 L193.365012 138.778103 L194.724873 148.834607 L216.466479 120.293694 L220.206098 147.949079 L240.319105 145.229356 L242.358897 160.314112 L222.245890 163.033835 L225.985509 190.689220 L197.444596 168.947614 L198.804457 179.004118 L171.793389 168.576079 L172.643302 174.861394 Z" fill="#888" fill-opacity="0.18" stroke="#000" stroke-width="1"/>
  <path d="M468.297167 719.752100 L441.104140 701.089522 L446.428342 697.642726 L420.927912 683.928869 L429.446635 678.413995 L394.362640 670.904371 L417.789130 655.738467 L406.759382 638.701020 L419.537467 630.428708 L430.567216 647.466156 L453.993706 632.300251 L446.484082 667.384246 L455.002806 661.869372 L457.076747 690.749133 L462.400949 687.302336 Z" fill="#888" fill-opacity="0.18" stroke="#000" stroke-width="1"/>
  <path d="M517.577838 495.104315 L491.511172 515.310291 L489.852320 509.188547 L469.014819 529.291790 L466.360656 519.497001 L448.509088 550.619382 L441.210141 523.683710 L421.620561 528.992036 L417.639317 514.299851 L437.228897 508.991525 L429.929949 482.055853 L461.052331 499.907421 L458.398168 490.112631 L486.534617 496.945060 L484.875765 490.823316 Z" fill="#888" fill-opacity="0.18" stroke="#000" stroke-width="1"/>
  <path d="M859.087247 724.883014 L868.012417 756.633509 L861.716089 755.869449 L872.511773 782.735693 L862.437648 781.513197 L884.566722 809.754748 L856.862878 806.392886 L854.417887 826.541136 L839.306700 824.707393 L841.751690 804.559143 L814.047847 801.197281 L842.289398 779.068207 L832.215273 777.845711 L849.123433 754.341330 L842.827105 753.577270 Z" fill="#888" fill-opacity="0.18" stroke="#000" stroke-width="1"/>
  <path d="M452.361557 350.746354 L465.235053 320.381479 L469.673086 324.912638 L478.034048 297.191957 L485.134901 304.441811 L485.507404 268.565044 L505.034749 288.502142 L519.534456 274.300437 L530.185735 285.175218 L515.686028 299.376923 L535.213372 319.314021 L499.336606 318.941518 L506.437459 326.191372 L478.549152 333.974955 L482.987184 338.506114 Z" fill="#888" fill-opacity="0.18" stroke="#000" stroke-width="1"/>
  <path d="M296.228938 514.311956 L329.139620 512.157990 L327.087759 518.159440 L355.607653 513.163695 L352.324675 522.766015 L384.537920 506.967660 L375.509730 533.374039 L394.714370 539.939995 L389.789903 554.343475 L370.585264 547.777519 L361.557074 574.183899 L345.758720 541.970654 L342.475742 551.572974 L322.984037 530.162339 L320.932175 536.163789 Z" fill="#888" fill-opacity="0.18" stroke="#000" stroke-width="1"/>
  <path d="M884.812835 416.337064 L870.691253 446.141987 L866.444934 441.430691 L856.941652 468.780819 L850.147542 461.242745 L848.287635 497.073206 L829.603830 476.343504 L814.527683 489.931725 L804.336518 478.624615 L819.412664 465.036393 L800.728860 444.306692 L836.559320 446.166599 L829.765210 438.628525 L857.952295 432.008100 L853.705976 427.296804 Z" fill="#888" fill-opacity="0.18" stroke="#000" stroke-width="1"/>
  <path d="M1001.939847 800.682022 L970.066804 792.204894 L973.929094 787.173964 L945.308337 782.792853 L951.488000 774.743365 L915.915123 779.417928 L932.909196 757.281836 L916.810219 744.922511 L926.079714 732.848278 L942.178690 745.207604 L959.172762 723.071512 L963.847326 758.644389 L970.026988 750.594901 L981.653672 777.112104 L985.515961 772.081174 Z" fill="#888" fill-opacity="0.18" stroke="#000" stroke-width="1"/>
  <path d="M626.609329 546.980499 L607.270410 520.264234 L613.443336 518.807345 L594.035343 497.320799 L603.912024 494.989776 L573.392766 476.125630 L600.553638 469.715319 L595.891593 449.961957 L610.706615 446.465423 L615.368660 466.218785 L642.529532 459.808473 L623.665386 490.327731 L633.542067 487.996709 L625.789187 515.893567 L631.962112 514.436678 Z" fill="#888" fill-opacity="0.18" stroke="#000" stroke-width="1"/>
  <path d="M67.878700 892.163641 L89.064682 917.440246 L83.010701 919.331500 L103.894476 939.386668 L94.208105 942.412674 L125.989047 959.063585 L99.351528 967.385102 L105.403540 986.757844 L90.873984 991.296853 L84.821972 971.924111 L58.184452 980.245628 L74.835364 948.464686 L65.148993 951.490692 L70.902737 923.114007 L64.848756 925.005261 Z" fill="#888" fill-opacity="0.18" stroke="#000" stroke-width="1"/>
  <path d="M355.320328 149.738073 L327.787423 167.895487 L326.600671 161.664985 L304.289517 180.119098 L302.390714 170.150295 L282.215715 199.819311 L276.994005 172.405103 L257.056399 176.202710 L254.208194 161.249505 L274.145800 157.451898 L268.924091 130.037689 L298.593107 150.212689 L296.694304 140.243886 L324.227166 149.203981 L323.040414 142.973479 Z" fill="#888" fill-opacity="0.18" stroke="#000" stroke-width="1"/>
  <path d="M381.665418 560.777925 L391.693888 592.197383 L385.374718 591.653660 L397.102000 618.126527 L386.991329 617.256571 L410.093116 644.708139 L382.288771 642.315759 L380.548858 662.537101 L365.382852 661.232167 L367.122764 641.010825 L339.318419 638.618445 L366.769987 615.516659 L356.659316 614.646702 L372.736380 590.566215 L366.417210 590.022492 Z" fill="#888" fill-opacity="0.18" stroke="#000" stroke-width="1"/>
  <path d="M77.733759 419.093995 L106.693697 403.311899 L107.353245 409.620031 L131.134768 393.103947 L132.190045 403.196959 L154.784380 375.326237 L157.686393 403.082018 L177.872416 400.971464 L179.455332 416.110981 L159.269309 418.221536 L162.171321 445.977317 L134.300599 423.382982 L135.355877 433.475993 L108.672342 422.236295 L109.331890 428.544428 Z" fill="#888" fill-opacity="0.18" stroke="#000" stroke-width="1"/>
  <path d="M224.161816 134.992628 L243.283850 108.120703 L246.639662 113.502716 L260.784924 88.239038 L266.154224 96.850258 L274.259023 61.898958 L289.024599 85.579812 L306.247038 74.841212 L314.300989 87.758042 L297.078549 98.496642 L311.844124 122.177497 L276.892825 114.072697 L282.262125 122.683917 L253.351288 124.266740 L256.707100 129.648753 Z" fill="#888" fill-opacity="0.18" stroke="#000" stroke-width="1"/>
  <path d="M497.935773 659.482435 L502.086865 626.763618 L507.587906 629.920529 L508.113261 600.971162 L516.914926 606.022220 L507.538408 571.390413 L531.742986 585.280822 L541.845102 567.677492 L555.047599 575.254078 L544.945484 592.857408 L569.150062 606.747817 L534.518256 616.124335 L543.319921 621.175393 L518.589987 636.234351 L524.091028 639.391262 Z" fill="#888" fill-opacity="0.18" stroke="#000" stroke-width="1"/>
  <path d="M961.077002 1040.466839 L929.406819 1031.260753 L933.383505 1026.319751 L904.870786 1021.283213 L911.233483 1013.377609 L875.562730 1017.234877 L893.060147 995.494466 L877.248939 982.769071 L886.792985 970.910665 L902.604193 983.636059 L920.101610 961.895648 L923.958877 997.566401 L930.321574 989.660797 L941.336876 1016.437746 L945.313562 1011.496743 Z" fill="#888" fill-opacity="0.18" stroke="#000" stroke-width="1"/>
  <path d="M832.298543 404.413319 L847.395208 375.090235 L851.483872 379.938984 L861.883806 352.917081 L868.425668 360.675079 L871.466007 324.925429 L889.456128 346.259923 L904.972124 333.176198 L914.784917 344.813195 L899.268921 357.896920 L917.259043 379.231413 L881.509393 376.191075 L888.051255 383.949072 L859.661200 389.636481 L863.749864 394.485230 Z" fill="#888" fill-opacity="0.18" stroke="#000" stroke-width="1"/>
  <path d="M954.973132 242.014715 L922.204216 245.749779 L923.964923 239.656549 L895.718450 246.018825 L898.535581 236.269658 L867.119834 253.599746 L874.866947 226.789536 L855.368612 221.155273 L859.594310 206.531522 L879.092644 212.165786 L886.839756 185.355576 L904.169845 216.771323 L906.986977 207.022156 L927.486338 227.470090 L929.247045 221.376861 Z" fill="#888" fill-opacity="0.18" stroke="#000" stroke-width="1"/>
  <path d="M563.375696 97.570436 L530.576713 101.031547 L532.388275 94.953243 L504.089623 101.079264 L506.988122 91.353978 L475.428659 108.420946 L483.399531 81.676408 L463.948958 75.879410 L468.296707 61.291481 L487.747280 67.088479 L495.718152 40.343942 L512.785120 71.903405 L515.683619 62.178119 L536.011399 82.796635 L537.822961 76.718331 Z" fill="#888" fill-opacity="0.18" stroke="#000" stroke-width="1"/>
  <path d="M59.317669 319.367454 L69.431737 287.975446 L74.256201 292.092737 L80.111543 263.736841 L87.830686 270.324507 L85.001993 234.557488 L106.229634 252.673567 L119.404965 237.235283 L130.983678 247.116781 L117.808348 262.555065 L139.035989 280.671145 L103.268970 283.499837 L110.988112 290.087502 L83.905129 300.327318 L88.729593 304.444609 Z" fill="#888" fill-opacity="0.18" stroke="#000" stroke-width="1"/>
  <path d="M752.599987 104.159943 L775.633365 127.765367 L769.739400 130.108169 L792.077329 148.529862 L782.646986 152.278345 L815.594051 166.482995 L789.660608 176.791323 L797.157574 195.652009 L783.012060 201.274733 L775.515094 182.414047 L749.581651 192.722375 L763.786301 159.775311 L754.355958 163.523794 L757.951472 134.793773 L752.057508 137.136575 Z" fill="#888" fill-opacity="0.18" stroke="#000" stroke-width="1"/>
  <path d="M987.899108 634.818598 L955.206680 630.464553 L958.397667 624.983208 L929.452117 624.278221 L934.557695 615.508070 L899.868371 624.669504 L913.908710 600.551586 L896.368407 590.340430 L904.026774 577.185202 L921.567078 587.396359 L935.607418 563.278441 L944.768852 597.967766 L949.874430 589.197614 L964.779639 614.020518 L967.970626 608.539174 Z" fill="#888" fill-opacity="0.18" stroke="#000" stroke-width="1"/>
  <path d="M164.599212 108.488038 L131.796839 111.916875 L133.614381 105.840356 L105.309715 111.938531 L108.217782 102.216101 L76.641541 119.252009 L84.638724 92.515327 L65.193865 86.699194 L69.555965 72.115550 L89.000824 77.931683 L96.998007 51.195001 L114.033915 82.771242 L116.941981 73.048812 L137.249464 93.687319 L139.067006 87.610801 Z" fill="#888" fill-opacity="0.18" stroke="#000" stroke-width="1"/>
  <path d="M577.065714 618.026755 L562.516458 588.428247 L568.846759 588.034777 L553.346218 563.579204 L563.474701 562.949653 L536.579617 539.202324 L564.432944 537.471059 L563.173842 517.214094 L578.366565 516.269768 L579.625667 536.526732 L607.478994 534.795467 L583.731665 561.690551 L593.860148 561.061000 L581.507362 587.247838 L587.837664 586.854369 Z" fill="#888" fill-opacity="0.18" stroke="#000" stroke-width="1"/>
  <path d="M962.075768 359.793148 L992.602915 372.276971 L988.128926 376.772632 L1015.954342 384.778133 L1008.795961 391.971189 L1044.674556 391.884502 L1024.989007 411.665407 L1039.375121 425.982170 L1028.637548 436.771755 L1014.251435 422.454992 L994.565886 442.235898 L994.479198 406.357303 L987.320816 413.550359 L979.180949 385.763953 L974.706961 390.259613 Z" fill="#888" fill-opacity="0.18" stroke="#000" stroke-width="1"/>
  <path d="M850.017068 545.071731 L857.795174 513.020933 L862.909361 516.772283 L866.663550 488.062566 L874.846249 494.064726 L869.394901 458.602578 L891.897324 475.108518 L903.901644 458.743119 L916.175692 467.746359 L904.171372 484.111758 L926.673795 500.617698 L891.211647 506.069046 L899.394346 512.071205 L873.137735 524.274983 L878.251922 528.026333 Z" fill="#888" fill-opacity="0.18" stroke="#000" stroke-width="1"/>
  <path d="M693.196259 487.950835 L707.173381 458.077894 L711.442459 462.768577 L720.813219 435.372762 L727.643744 442.877854 L729.330164 407.038810 L748.114108 427.677815 L763.124293 414.016765 L773.370081 425.274404 L758.359895 438.935454 L777.143839 459.574459 L741.304794 457.888040 L748.135319 465.393133 L719.980615 472.149943 L724.249694 476.840626 Z" fill="#888" fill-opacity="0.18" stroke="#000" stroke-width="1"/>
  <path d="M912.890932 103.845688 L880.318781 109.023286 L881.808863 102.858288 L853.870693 110.460952 L856.254825 100.596956 L825.634507 119.296615 L832.190870 92.170627 L812.462879 87.402363 L816.039077 72.606370 L835.767068 77.374634 L842.323431 50.248647 L861.023089 80.868966 L863.407221 71.004970 L884.789028 90.528294 L886.279111 84.363297 Z" fill="#888" fill-opacity="0.18" stroke="#000" stroke-width="1"/>
  <path d="M1015.650588 301.696880 L1002.379216 271.503781 L1008.720548 271.381133 L994.279027 246.285629 L1004.425158 246.089393 L978.569240 221.214655 L1006.471101 220.675006 L1006.078629 200.382743 L1021.297826 200.088389 L1021.690298 220.380652 L1049.592159 219.841002 L1024.717421 245.696921 L1034.863553 245.500685 L1021.403212 271.135838 L1027.744544 271.013190 Z" fill="#888" fill-opacity="0.18" stroke="#000" stroke-width="1"/>
  <path d="M174.197002 878.584143 L177.184690 911.429634 L171.133147 909.530592 L176.850376 937.914657 L167.167907 934.876191 L183.777914 966.678530 L157.151123 958.322747 L151.074190 977.687686 L136.550486 973.129986 L142.627419 953.765048 L116.000629 945.409265 L147.802968 928.799258 L138.120499 925.760791 L159.030060 905.732509 L152.978517 903.833468 Z" fill="#888" fill-opacity="0.18" stroke="#000" stroke-width="1"/>
  <path d="M472.555389 485.606940 L488.790930 456.898757 L492.686204 461.904192 L504.138343 435.311142 L510.370780 443.319838 L514.811427 407.717004 L531.950630 429.740918 L547.968022 417.276043 L557.316678 429.289088 L541.299286 441.753962 L558.438489 463.777877 L522.835655 459.337230 L529.068092 467.345926 L500.476751 471.915063 L504.372024 476.920498 Z" fill="#888" fill-opacity="0.18" stroke="#000" stroke-width="1"/>
  <path d="M59.943637 416.682864 L91.877961 424.926135 L88.052652 429.985240 L116.704753 434.156443 L110.584260 442.251012 L146.121916 437.315825 L129.290558 459.575889 L145.479696 471.816877 L136.298955 483.958730 L120.109817 471.717742 L103.278459 493.977806 L98.343272 458.440150 L92.222778 466.534718 L80.402035 440.103451 L76.576726 445.162557 Z" fill="#888" fill-opacity="0.18" stroke="#000" stroke-width="1"/>
  <path d="M655.531934 219.824650 L688.488252 218.546513 L686.277543 224.491284 L714.920186 220.255626 L711.383051 229.767259 L744.004972 214.831014 L734.277851 240.988005 L753.301117 248.062275 L747.995415 262.329725 L728.972148 255.255455 L719.245027 281.412446 L704.308781 248.790526 L700.771646 258.302159 L681.856124 236.380826 L679.645415 242.325596 Z" fill="#888" fill-opacity="0.18" stroke="#000" stroke-width="1"/>
  <path d="M291.943047 189.903470 L315.564753 212.920151 L309.731784 215.410936 L332.527455 233.263084 L323.194705 237.248340 L356.489720 250.617076 L330.824657 261.576530 L338.795169 280.242030 L324.796043 286.219914 L316.825532 267.554414 L291.160469 278.513867 L304.529204 245.218852 L295.196454 249.204108 L298.065846 220.392506 L292.232877 222.883291 Z" fill="#888" fill-opacity="0.18" stroke="#000" stroke-width="1"/>
  <path d="M53.509783 328.070821 L81.876787 311.246267 L82.765243 317.526249 L105.930570 300.156464 L107.352100 310.204436 L128.918206 281.530681 L132.827412 309.162605 L152.923357 306.319545 L155.055651 321.391504 L134.959707 324.234563 L138.868913 351.866486 L110.195159 330.300380 L111.616689 340.348352 L84.542155 330.086215 L85.430611 336.366197 Z" fill="#888" fill-opacity="0.18" stroke="#000" stroke-width="1"/>
  <path d="M326.016742 537.148409 L322.138426 569.900679 L316.611271 566.789715 L316.327157 595.742455 L307.483710 590.764913 L317.148474 625.317387 L292.828993 611.629147 L282.873909 629.316042 L269.608738 621.849729 L279.563821 604.162834 L255.244340 590.474594 L289.796814 580.809829 L280.953366 575.832287 L305.556962 560.567788 L300.029807 557.456825 Z" fill="#888" fill-opacity="0.18" stroke="#000" stroke-width="1"/>
  <path d="M1056.940882 166.394668 L1030.464908 186.061274 L1028.932077 179.906766 L1007.686276 199.578008 L1005.233745 189.730796 L986.747041 220.480152 L980.002583 193.400319 L960.308159 198.305379 L956.629363 183.534561 L976.323787 178.629501 L969.579329 151.549668 L1000.328685 170.036372 L997.876155 160.189160 L1025.866414 167.597751 L1024.333582 161.443243 Z" fill="#888" fill-opacity="0.18" stroke="#000" stroke-width="1"/>
  <path d="M459.911810 781.217990 L466.428647 748.887148 L471.685835 752.435317 L474.312699 723.600591 L482.724200 729.277662 L475.888125 694.056231 L499.019753 709.668177 L510.373895 692.845174 L522.991147 701.360781 L511.637005 718.183783 L534.768634 733.795729 L499.547203 740.631804 L507.958704 746.308875 L482.200212 759.531656 L487.457400 763.079825 Z" fill="#888" fill-opacity="0.18" stroke="#000" stroke-width="1"/>
  <path d="M53.122868 572.859285 L53.009113 539.878387 L58.872124 542.297609 L55.650389 513.523276 L65.031207 517.394032 L51.256052 484.265098 L77.053301 494.909677 L84.794813 476.148041 L98.866039 481.954175 L91.124527 500.715810 L116.921776 511.360389 L83.792842 525.135544 L93.173660 529.006299 L70.598146 547.136054 L76.461157 549.555277 Z" fill="#888" fill-opacity="0.18" stroke="#000" stroke-width="1"/>
  <path d="M645.293439 497.537496 L640.265942 464.941839 L646.424010 466.460305 L638.950126 438.487410 L648.803034 440.916956 L630.244630 410.210820 L657.340127 416.892072 L662.199219 397.186256 L676.978581 400.830575 L672.119489 420.536391 L699.214986 427.217643 L668.508850 445.776048 L678.361758 448.205594 L658.740145 469.497238 L664.898212 471.015704 Z" fill="#888" fill-opacity="0.18" stroke="#000" stroke-width="1"/>
  <path d="M749.728890 1022.035305 L719.373071 1034.930141 L719.329300 1028.587774 L694.056129 1042.716067 L693.986095 1032.568280 L668.791712 1058.112833 L668.599118 1030.206418 L648.303544 1030.346486 L648.198493 1015.124805 L668.494067 1014.984737 L668.301473 987.078322 L693.846027 1012.272705 L693.775993 1002.124918 L719.241757 1015.903040 L719.197986 1009.560673 Z" fill="#888" fill-opacity="0.18" stroke="#000" stroke-width="1"/>
  <path d="M864.036884 834.515854 L883.311587 861.278484 L877.135181 862.720545 L896.491517 884.253637 L886.609267 886.560934 L917.083134 905.498318 L889.906946 911.843384 L894.521540 931.607885 L879.698164 935.068830 L875.083571 915.304329 L847.907382 921.649395 L866.844766 891.175528 L856.962516 893.482824 L864.782368 865.604666 L858.605961 867.046726 Z" fill="#888" fill-opacity="0.18" stroke="#000" stroke-width="1"/>
  <path d="M215.688457 332.382127 L244.625872 316.558771 L245.294411 322.865957 L269.052369 306.315995 L270.122031 316.407492 L292.676620 288.504596 L295.618189 316.256213 L315.801183 314.116891 L317.405675 329.254136 L297.222681 331.393459 L300.164249 359.145076 L272.261353 336.590487 L273.331014 346.681984 L246.631487 335.480329 L247.300026 341.787514 Z" fill="#888" fill-opacity="0.18" stroke="#000" stroke-width="1"/>
  <path d="M823.187884 747.240362 L790.427372 751.048437 L792.174497 744.951299 L763.942271 751.376502 L766.737671 741.621081 L735.360620 759.021132 L743.047970 732.193726 L723.537129 726.602925 L727.730230 711.969794 L747.241070 717.560595 L754.928421 690.733189 L772.328472 722.110240 L775.123872 712.354820 L795.668748 732.757023 L797.415873 726.659886 Z" fill="#888" fill-opacity="0.18" stroke="#000" stroke-width="1"/>
  <path d="M559.399313 615.644541 L561.879068 648.532280 L555.857594 646.539948 L561.135509 675.008974 L551.501151 671.821243 L567.617719 703.876466 L541.123234 695.110206 L534.747772 714.378923 L520.296234 709.597327 L526.671696 690.328610 L500.177211 681.562350 L532.232434 665.445781 L522.598076 662.258050 L543.814646 642.555284 L537.793172 640.562952 Z" fill="#888" fill-opacity="0.18" stroke="#000" stroke-width="1"/>
  <path d="M1054.695816 964.915383 L1025.220128 979.711882 L1024.773685 973.385096 L1000.448715 989.089798 L999.734406 978.966940 L976.213033 1006.059857 L974.248684 978.221998 L954.002968 979.650615 L952.931505 964.466328 L973.177221 963.037711 L971.212871 935.199851 L998.305788 958.721224 L997.591480 948.598366 L1023.880799 960.731524 L1023.434356 954.404738 Z" fill="#888" fill-opacity="0.18" stroke="#000" stroke-width="1"/>
  <path d="M138.438017 1052.577294 L156.784686 1025.170137 L160.292860 1030.454098 L173.710725 1004.796687 L179.323803 1013.251026 L186.426955 978.082484 L201.862919 1001.331916 L218.771597 990.105760 L227.191214 1002.787268 L210.282536 1014.013424 L225.718501 1037.262856 L190.549959 1030.159704 L196.163037 1038.614043 L167.309207 1041.022022 L170.817381 1046.305984 Z" fill="#888" fill-opacity="0.18" stroke="#000" stroke-width="1"/>
  <path d="M303.065177 879.814243 L281.815676 905.037472 L278.909889 899.399747 L262.751725 923.425891 L258.102465 914.405532 L247.174719 948.579579 L234.389253 923.773593 L216.348536 933.072113 L209.374646 919.541575 L227.415363 910.243055 L214.629897 885.437069 L248.803944 896.364815 L244.154684 887.344456 L273.098314 888.124299 L270.192526 882.486575 Z" fill="#888" fill-opacity="0.18" stroke="#000" stroke-width="1"/>
  <path d="M763.488165 480.117837 L742.905103 505.887782 L739.852972 500.327923 L724.328223 524.768137 L719.444814 515.872362 L709.413901 550.320321 L695.984526 525.856942 L678.192976 535.623760 L670.867863 522.280098 L688.659412 512.513280 L675.230036 488.049900 L709.677996 498.080813 L704.794586 489.185038 L733.748710 489.208205 L730.696580 483.648346 Z" fill="#888" fill-opacity="0.18" stroke="#000" stroke-width="1"/>
  <path d="M288.494767 871.941319 L299.860618 840.980538 L304.515945 845.288143 L311.504646 817.190102 L318.953169 824.082270 L317.562281 788.230540 L338.045721 807.184003 L351.830058 792.286956 L363.002843 802.625208 L349.218507 817.522255 L369.701947 836.475718 L333.850217 837.866607 L341.298741 844.758775 L313.826600 853.903353 L318.481927 858.210958 Z" fill="#888" fill-opacity="0.18" stroke="#000" stroke-width="1"/>
  <path d="M416.800514 936.321303 L387.701484 920.797161 L392.609544 916.779888 L365.742720 905.985648 L373.595616 899.558011 L337.894284 895.994863 L359.489748 878.318862 L346.634475 862.613070 L358.413819 852.971615 L371.269092 868.677407 L392.864556 851.001406 L389.301408 886.702738 L397.154304 880.275101 L402.425664 908.745342 L407.333724 904.728069 Z" fill="#888" fill-opacity="0.18" stroke="#000" stroke-width="1"/>
  <path d="M485.089028 223.147075 L517.939044 220.209550 L516.030763 226.258186 L544.423525 220.584309 L541.370276 230.262127 L573.197944 213.700705 L564.801509 240.314704 L584.157145 246.421202 L579.577271 260.937929 L560.221635 254.831431 L551.825200 281.445430 L535.263778 249.617763 L532.210529 259.295581 L512.214202 238.355458 L510.305921 244.404095 Z" fill="#888" fill-opacity="0.18" stroke="#000" stroke-width="1"/>
  <path d="M957.540804 877.017541 L976.776252 850.226683 L980.109285 855.622832 L994.361207 830.419170 L999.694061 839.053008 L1007.946522 804.136279 L1022.611870 827.879334 L1039.879546 817.213626 L1047.878827 830.164384 L1030.611150 840.830091 L1045.276498 864.573146 L1010.359768 856.320685 L1015.692622 864.954523 L986.775352 866.415129 L990.108386 871.811278 Z" fill="#888" fill-opacity="0.18" stroke="#000" stroke-width="1"/>
  <path d="M988.557562 772.571386 L988.241159 739.591810 L994.118925 741.974962 L990.720448 713.220968 L1000.124872 717.034010 L986.146418 683.990343 L1012.008585 694.476210 L1019.634670 675.667362 L1033.741306 681.386926 L1026.115221 700.195774 L1051.977388 710.681641 L1018.933721 724.660095 L1028.338145 728.473138 L1005.874455 746.741265 L1011.752220 749.124417 Z" fill="#888" fill-opacity="0.18" stroke="#000" stroke-width="1"/>
  <path d="M549.908407 734.959159 L577.631916 752.824198 L572.410052 756.424153 L598.297970 769.391710 L589.942987 775.151637 L625.230261 781.639276 L602.254059 797.479075 L613.773912 814.189040 L601.241438 822.828930 L589.721585 806.118965 L566.745383 821.958764 L573.233022 786.671490 L564.878040 792.431417 L561.966324 763.624061 L556.744460 767.224015 Z" fill="#888" fill-opacity="0.18" stroke="#000" stroke-width="1"/>
  <path d="M876.549764 268.439252 L868.399501 300.397440 L863.329280 296.586876 L859.241513 325.251000 L851.129159 319.154098 L856.167789 354.677236 L833.858817 337.910757 L821.665014 354.135464 L809.496483 344.990112 L821.690286 328.765405 L799.381314 311.998926 L834.904452 306.960295 L826.792098 300.863394 L853.188838 288.965749 L848.118617 285.155186 Z" fill="#888" fill-opacity="0.18" stroke="#000" stroke-width="1"/>
  <path d="M396.514914 145.011916 L383.256966 175.210912 L378.876815 170.623777 L370.164605 198.236079 L363.156363 190.896662 L362.328426 226.765808 L343.055761 206.582412 L328.376928 220.598896 L317.864565 209.589771 L332.543399 195.573287 L313.270734 175.389891 L349.139880 176.217829 L342.131638 168.878412 L370.116513 161.449506 L365.736361 156.862370 Z" fill="#888" fill-opacity="0.18" stroke="#000" stroke-width="1"/>
  <path d="M645.043384 526.228193 L676.759363 535.275249 L672.807520 540.236144 L701.345152 545.129547 L695.022204 553.066978 L730.673153 549.030772 L713.285044 570.858707 L729.159906 583.504604 L719.675484 595.410751 L703.800621 582.764854 L686.412513 604.592789 L682.376306 568.941840 L676.053358 576.879272 L664.903834 550.157933 L660.951992 555.118827 Z" fill="#888" fill-opacity="0.18" stroke="#000" stroke-width="1"/>
  <path d="M442.520895 823.386619 L422.315330 797.319634 L428.437100 795.660879 L408.334186 774.823061 L418.129017 772.169053 L387.006917 754.316994 L413.942704 747.018471 L408.634688 727.428808 L423.326935 723.447795 L428.634952 743.037459 L455.570740 735.738936 L437.718681 766.861036 L447.513513 764.207028 L440.680640 792.343369 L446.802410 790.684613 Z" fill="#888" fill-opacity="0.18" stroke="#000" stroke-width="1"/>
  <path d="M510.961223 956.440835 L524.592803 986.473028 L518.253391 986.671519 L532.994060 1011.592484 L522.851002 1011.910070 L549.002611 1036.473752 L521.109201 1037.347112 L521.744372 1057.633228 L506.529784 1058.109606 L505.894613 1037.823490 L478.001203 1038.696850 L502.564885 1012.545241 L492.421827 1012.862826 L505.574568 987.068501 L499.235157 987.266992 Z" fill="#888" fill-opacity="0.18" stroke="#000" stroke-width="1"/>
  <path d="M490.743047 845.091692 L499.273100 813.232773 L504.297608 817.103412 L508.726247 788.489972 L516.765461 794.682995 L512.149985 759.102403 L534.257822 776.133217 L546.643869 760.054790 L558.702689 769.344324 L546.316643 785.422752 L568.424480 802.453565 L532.843888 807.069041 L540.883102 813.262064 L514.346625 824.844691 L519.371133 828.715331 Z" fill="#888" fill-opacity="0.18" stroke="#000" stroke-width="1"/>
  <path d="M751.454088 260.304115 L776.591137 238.952738 L778.522073 244.994179 L798.439782 223.979262 L801.529279 233.645570 L817.971303 201.756057 L826.467422 228.338402 L845.800036 222.159406 L850.434283 236.658867 L831.101669 242.837862 L839.597788 269.420207 L807.708275 252.978184 L810.797773 262.644491 L782.383946 257.077063 L784.314882 263.118505 Z" fill="#888" fill-opacity="0.18" stroke="#000" stroke-width="1"/>
  <path d="M177.989887 278.238069 L207.892231 264.323962 L208.150479 270.661221 L232.931367 255.686260 L233.344564 265.825874 L257.660605 239.443848 L258.796896 267.327785 L279.076123 266.501391 L279.695918 281.710811 L259.416692 282.537205 L260.552983 310.421142 L234.170957 286.105100 L234.584154 296.244714 L208.666975 283.335737 L208.925223 289.672996 Z" fill="#888" fill-opacity="0.18" stroke="#000" stroke-width="1"/>
  <path d="M911.401714 649.926243 L899.296935 680.605664 L894.746208 676.187699 L887.085946 704.110131 L879.804783 697.041387 L880.335830 732.916157 L860.312631 713.477109 L846.175142 728.039436 L835.253397 717.436319 L849.390886 702.873992 L829.367686 683.434945 L865.242456 682.903898 L857.961292 675.835153 L885.644753 667.351768 L881.094026 662.933803 Z" fill="#888" fill-opacity="0.18" stroke="#000" stroke-width="1"/>
  <path d="M976.414956 326.881262 L943.462124 328.246323 L945.657145 322.295742 L917.025773 326.606937 L920.537807 317.086007 L887.955397 332.108248 L897.613490 305.925690 L878.571630 298.901622 L883.839681 284.620227 L902.881541 291.644295 L912.539633 265.461737 L927.561874 298.044147 L931.073908 288.523216 L950.047187 310.394580 L952.242208 304.443998 Z" fill="#888" fill-opacity="0.18" stroke="#000" stroke-width="1"/>
  <path d="M1049.005278 492.219306 L1050.846831 525.148947 L1044.865123 523.040225 L1049.589995 551.606244 L1040.019262 548.232290 L1055.511208 580.594007 L1029.191693 571.315633 L1022.443785 590.457098 L1008.087686 585.396167 L1014.835594 566.254701 L988.516080 556.976327 L1020.877797 541.484381 L1011.307064 538.110427 L1032.901708 518.822783 L1026.920000 516.714061 Z" fill="#888" fill-opacity="0.18" stroke="#000" stroke-width="1"/>
  <path d="M683.039055 332.044114 L704.550578 357.044253 L698.521595 359.013744 L719.663322 378.796798 L710.016948 381.947983 L742.010845 398.185953 L715.483318 406.851713 L721.785689 426.144460 L707.316129 430.871238 L701.013758 411.578491 L674.486231 420.244251 L690.724201 388.250354 L681.077828 391.401539 L686.463628 362.952726 L680.434644 364.922217 Z" fill="#888" fill-opacity="0.18" stroke="#000" stroke-width="1"/>
  <path d="M676.044650 620.037920 L654.687126 645.169747 L651.805554 639.519608 L635.544456 663.476204 L630.933940 654.435981 L619.859673 688.562829 L607.180753 663.702216 L589.100308 672.923248 L582.184533 659.362914 L600.264979 650.141882 L587.586060 625.281268 L621.712908 636.355536 L617.102392 627.315313 L646.042409 628.219329 L643.160836 622.569189 Z" fill="#888" fill-opacity="0.18" stroke="#000" stroke-width="1"/>
  <path d="M282.073811 447.161482 L315.020778 445.661506 L312.850140 451.621025 L341.463619 447.192634 L337.990598 456.727865 L370.511226 441.572340 L360.960419 467.794224 L380.030880 474.740265 L374.821349 489.043111 L355.750888 482.097069 L346.200082 508.318953 L331.044557 475.798326 L327.571537 485.333556 L308.508864 463.540063 L306.338226 469.499582 Z" fill="#888" fill-opacity="0.18" stroke="#000" stroke-width="1"/>
  <path d="M431.590561 410.422647 L408.566724 386.807916 L414.461635 384.467496 L392.131152 366.036778 L401.563009 362.292106 L368.621688 348.074144 L394.559294 337.776296 L387.069950 318.912583 L401.217736 313.295575 L408.707079 332.159288 L434.644685 321.861441 L420.426723 354.802763 L429.858580 351.058091 L426.251456 379.786657 L432.146367 377.446237 Z" fill="#888" fill-opacity="0.18" stroke="#000" stroke-width="1"/>
  <path d="M736.719719 354.637715 L706.806346 340.747333 L711.484622 336.464662 L684.061731 327.173435 L691.546973 320.321162 L655.703185 318.738742 L676.287599 299.894990 L662.583052 284.924507 L673.810914 274.646097 L687.515461 289.616580 L708.099874 270.772827 L706.517455 306.616614 L714.002696 299.764341 L720.841174 327.899320 L725.519449 323.616649 Z" fill="#888" fill-opacity="0.18" stroke="#000" stroke-width="1"/>
  <path d="M594.813862 306.204854 L593.659492 273.243969 L599.595919 275.476986 L595.467850 246.818639 L604.966134 250.391467 L590.152496 217.713688 L616.272775 227.538966 L623.418432 208.542399 L637.665857 213.901641 L630.520200 232.898208 L656.640480 242.723486 L623.962701 257.537124 L633.460984 261.109952 L611.468774 279.943022 L617.405201 282.176039 Z" fill="#888" fill-opacity="0.18" stroke="#000" stroke-width="1"/>
  <path d="M43.688415 720.645457 L69.184037 741.567354 L63.584320 744.545727 L87.817188 760.392175 L78.857641 765.157572 L113.170000 775.642950 L88.531244 788.747789 L98.062036 806.666884 L84.622715 813.814978 L75.091923 795.895883 L50.453167 809.000723 L60.938546 774.688364 L51.978998 779.453760 L52.384886 750.502472 L46.785169 753.480844 Z" fill="#888" fill-opacity="0.18" stroke="#000" stroke-width="1"/>
  <path d="M514.940809 326.803932 L503.426453 357.709791 L498.791859 353.379886 L491.668346 381.444052 L484.252996 374.516204 L485.471751 410.374199 L465.079539 391.322617 L451.223843 406.153317 L440.100818 395.761545 L453.956514 380.930845 L433.564302 361.879264 L469.422296 360.660508 L462.006946 353.732661 L489.522672 344.720077 L484.888078 340.390172 Z" fill="#888" fill-opacity="0.18" stroke="#000" stroke-width="1"/>
  <path d="M345.551558 445.534254 L323.569159 420.947130 L329.559654 418.863503 L308.046057 399.485501 L317.630849 396.151698 L285.334361 380.524224 L311.692540 371.356265 L305.024934 352.186680 L319.402123 347.185976 L326.069729 366.355561 L352.427908 357.187603 L336.800434 389.484092 L346.385227 386.150289 L341.540645 414.696249 L347.531140 412.612622 Z" fill="#888" fill-opacity="0.18" stroke="#000" stroke-width="1"/>
  <path d="M295.948810 504.580299 L264.017621 512.835705 L264.913938 506.556840 L237.826578 516.785074 L239.260686 506.738889 L210.559955 528.269080 L214.503752 500.642073 L194.411383 497.773856 L196.562545 482.704580 L216.654914 485.572796 L220.598712 457.945788 L242.128903 486.646520 L243.563011 476.600335 L266.706574 493.999109 L267.602891 487.720244 Z" fill="#888" fill-opacity="0.18" stroke="#000" stroke-width="1"/>
  <path d="M199.320385 455.921133 L188.603880 424.729643 L194.933472 425.134368 L182.627268 398.925606 L192.754615 399.573165 L169.055147 372.635899 L196.905351 374.416688 L198.200470 354.161994 L213.391490 355.133333 L212.096371 375.388027 L239.946576 377.168816 L213.009309 400.868284 L223.136656 401.515844 L207.592655 425.943817 L213.922247 426.348542 Z" fill="#888" fill-opacity="0.18" stroke="#000" stroke-width="1"/>
  <path d="M660.969946 642.078917 L666.168279 674.647765 L660.002334 673.161608 L667.622782 701.094932 L657.757271 698.717080 L676.476419 729.325488 L649.346263 722.786395 L644.590559 742.517417 L629.792292 738.950639 L634.547996 719.219617 L607.417841 712.680524 L638.026248 693.961376 L628.160737 691.583524 L647.670445 670.189293 L641.504501 668.703135 Z" fill="#888" fill-opacity="0.18" stroke="#000" stroke-width="1"/>
  <path d="M509.383475 875.689620 L483.822836 896.532035 L482.013579 890.453044 L461.677983 911.063851 L458.783171 901.337467 L441.704238 932.890457 L433.743507 906.142899 L414.290738 911.932522 L409.948521 897.342945 L429.401290 891.553322 L421.440559 864.805765 L452.993549 881.884698 L450.098737 872.158313 L478.395064 878.295063 L476.585807 872.216073 Z" fill="#888" fill-opacity="0.18" stroke="#000" stroke-width="1"/>
  <path d="M533.473114 269.581117 L560.354057 288.690473 L554.973629 292.048824 L580.243977 306.182166 L571.635291 311.555528 L606.590410 319.643837 L582.916524 334.420583 L593.663248 351.637954 L580.750219 359.697997 L570.003495 342.480626 L546.329609 357.257371 L554.417919 322.302251 L545.809233 327.675613 L544.212771 298.765526 L538.832343 302.123877 Z" fill="#888" fill-opacity="0.18" stroke="#000" stroke-width="1"/>
  <path d="M308.972191 1043.358886 L276.709689 1036.511733 L280.311439 1031.291108 L251.505087 1028.369481 L257.267888 1020.016481 L221.978385 1026.491979 L237.826088 1003.521228 L221.120087 991.995626 L229.764289 979.466125 L246.470289 990.991727 L262.317992 968.020977 L268.793490 1003.310480 L274.556291 994.957480 L287.514941 1020.849858 L291.116691 1015.629233 Z" fill="#888" fill-opacity="0.18" stroke="#000" stroke-width="1"/>
</svg>
