<?xml version="1.0" encoding="UTF-8"?>
<svg xmlns="http://www.w3.org/2000/svg" width="1100" height="1100" viewBox="0 0 1100 1100">
  <rect x="0" y="0" width="1100" height="1100" fill="white"/>
  <text x="10.0" y="18.0" font-family="monospace" font-size="12">prefix=N143_job5048546_task143 run_id=143 L=10.5771494678 feas=0.000e+00 N=143</text>
  <rect x="40.000000" y="40.000000" width="1020.000000" height="1020.000000" fill="none" stroke="#000" stroke-width="2"/>
  <path d="M711.313549 140.081276 L687.819472 119.337702 L693.239490 116.701444 L670.770416 100.821137 L679.442446 96.603124 L647.217338 85.468082 L671.065420 73.868545 L662.629394 56.524485 L675.637439 50.197465 L684.073465 67.541525 L707.921548 55.941989 L696.786506 88.167097 L705.458536 83.949084 L704.079528 111.428927 L709.499547 108.792669 Z" fill="#888" fill-opacity="0.18" stroke="#000" stroke-width="1"/>
  <path d="M242.183250 916.859773 L211.855580 908.954081 L215.502128 904.155211 L188.284245 900.126531 L194.118722 892.448340 L160.337051 897.057625 L176.381864 875.942599 L161.025481 864.273645 L169.777197 852.756359 L185.133579 864.425313 L201.178391 843.310287 L205.787676 877.091958 L211.622153 869.413767 L222.795225 894.557472 L226.441773 889.758603 Z" fill="#888" fill-opacity="0.18" stroke="#000" stroke-width="1"/>
  <path d="M727.877376 936.310220 L753.383862 918.097952 L754.730234 923.972792 L775.267573 905.662653 L777.421770 915.062397 L795.535638 886.177547 L801.459678 912.026842 L820.259165 907.718449 L823.490459 921.818065 L804.690972 926.126457 L810.615012 951.975752 L781.730162 933.861884 L783.884359 943.261628 L757.422980 935.722471 L758.769352 941.597311 Z" fill="#888" fill-opacity="0.18" stroke="#000" stroke-width="1"/>
  <path d="M886.190724 924.886907 L855.585779 918.133771 L859.048239 913.200433 L831.697473 910.203934 L837.237410 902.310593 L803.654213 908.194102 L818.889041 886.487414 L803.102359 875.407539 L811.412265 863.567527 L827.198947 874.647402 L842.433775 852.940714 L848.317285 886.523910 L853.857222 878.630569 L865.973161 903.333757 L869.435622 898.400418 Z" fill="#888" fill-opacity="0.18" stroke="#000" stroke-width="1"/>
  <path d="M931.327835 846.331553 L946.867714 873.548821 L940.886847 874.294268 L957.026542 896.577753 L947.457155 897.770468 L974.362410 918.712148 L948.046595 921.992114 L950.432025 941.130889 L936.077944 942.919961 L933.692514 923.781187 L907.376700 927.061153 L928.318380 900.155897 L918.748993 901.348612 L928.925113 875.785161 L922.944246 876.530608 Z" fill="#888" fill-opacity="0.18" stroke="#000" stroke-width="1"/>
  <path d="M163.017823 142.831117 L155.682158 173.301685 L150.815760 169.745756 L147.298118 197.034392 L139.511881 191.344904 L144.753755 225.034213 L123.341604 209.388124 L111.962630 224.960597 L100.283275 216.426366 L111.662250 200.853893 L90.250099 185.207804 L123.939408 179.965930 L116.153172 174.276443 L141.082965 162.633897 L136.216567 159.077967 Z" fill="#888" fill-opacity="0.18" stroke="#000" stroke-width="1"/>
  <path d="M322.791968 812.527737 L291.461299 813.338106 L293.634804 807.716510 L266.366711 811.390002 L269.844318 802.395449 L238.663917 816.187813 L248.227337 791.452792 L230.238231 784.497577 L235.454642 771.005747 L253.443748 777.960962 L263.007169 753.225940 L276.799533 784.406342 L280.277141 775.411789 L297.981813 796.473318 L300.155318 790.851723 Z" fill="#888" fill-opacity="0.18" stroke="#000" stroke-width="1"/>
  <path d="M384.750634 189.131137 L356.978857 203.656836 L356.454457 197.652549 L333.590990 212.959584 L332.751948 203.352725 L310.832403 229.467477 L308.525039 203.048613 L289.311320 204.726696 L288.052758 190.316407 L307.266477 188.638324 L304.959113 162.219460 L331.073865 184.139005 L330.234824 174.532146 L355.405655 185.643974 L354.881254 179.639687 Z" fill="#888" fill-opacity="0.18" stroke="#000" stroke-width="1"/>
  <path d="M636.084438 369.996999 L666.108254 378.987995 L662.291522 383.652652 L689.346959 388.657332 L683.240189 396.120783 L717.165741 392.729080 L700.372124 413.253570 L715.299026 425.467110 L706.138872 436.662287 L691.211969 424.448747 L674.418352 444.973238 L671.026649 411.047685 L664.919879 418.511136 L654.658060 392.981966 L650.841329 397.646623 Z" fill="#888" fill-opacity="0.18" stroke="#000" stroke-width="1"/>
  <path d="M908.920399 540.273311 L923.793408 512.685974 L927.590494 517.366637 L937.959555 491.880836 L944.034892 499.369896 L947.569199 465.458903 L964.276376 486.053818 L979.254496 473.903144 L988.367502 485.136734 L973.389382 497.287408 L990.096559 517.882323 L956.185566 514.348016 L962.260904 521.837076 L935.184665 526.727962 L938.981751 531.408624 Z" fill="#888" fill-opacity="0.18" stroke="#000" stroke-width="1"/>
  <path d="M913.905112 660.115104 L906.589616 690.590521 L901.720866 687.037813 L898.221286 714.328772 L890.431285 708.644439 L895.695456 742.330271 L874.272955 726.698358 L862.904290 742.278359 L851.219289 733.751861 L862.587954 718.171859 L841.165452 702.539946 L874.851284 697.275775 L867.061284 691.591443 L891.983365 679.932398 L887.114614 676.379690 Z" fill="#888" fill-opacity="0.18" stroke="#000" stroke-width="1"/>
  <path d="M232.478696 402.135214 L210.252871 424.232278 L207.974237 418.652467 L190.667988 440.042585 L187.022174 431.114888 L173.817465 462.548666 L163.791477 437.997498 L145.936082 445.289126 L140.467361 431.897580 L158.322756 424.605952 L148.296768 400.054784 L179.730546 413.259493 L176.084732 404.331796 L203.416970 407.492845 L201.138336 401.913034 Z" fill="#888" fill-opacity="0.18" stroke="#000" stroke-width="1"/>
  <path d="M732.143557 1045.655380 L701.582326 1038.707096 L705.076195 1033.795952 L677.745105 1030.624993 L683.335296 1022.767162 L649.715241 1028.436262 L665.088266 1006.827227 L649.372604 995.646845 L657.757890 983.860099 L673.473552 995.040480 L688.846577 973.431445 L694.515677 1007.051500 L700.105868 999.193669 L712.063933 1023.973663 L715.557803 1019.062519 Z" fill="#888" fill-opacity="0.18" stroke="#000" stroke-width="1"/>
  <path d="M526.731677 644.320214 L555.732176 632.435830 L555.696823 638.462870 L579.882760 625.344795 L579.826195 634.988059 L604.075768 611.021311 L603.920214 637.540288 L623.206742 637.653418 L623.121894 652.118314 L603.835366 652.005184 L603.679812 678.524160 L579.713064 654.274587 L579.656499 663.917851 L555.626116 650.516950 L555.590763 656.543990 Z" fill="#888" fill-opacity="0.18" stroke="#000" stroke-width="1"/>
  <path d="M839.713917 604.122799 L821.385264 629.545781 L818.227979 624.411776 L804.637987 648.335730 L799.586330 640.121321 L791.679452 673.286485 L777.787395 650.696862 L761.358578 660.800177 L753.781093 648.478564 L770.209909 638.375250 L756.317852 615.785628 L789.483015 623.692505 L784.431358 615.478097 L811.913407 614.143765 L808.756121 609.009760 Z" fill="#888" fill-opacity="0.18" stroke="#000" stroke-width="1"/>
  <path d="M597.704841 952.937336 L586.708444 923.588626 L592.731617 923.807366 L580.355594 899.233447 L589.992671 899.583430 L566.774936 874.615779 L593.276898 875.578233 L593.976864 856.304079 L608.432480 856.829054 L607.732513 876.103208 L634.234475 877.065661 L609.266825 900.283396 L618.903902 900.633379 L604.777963 924.244845 L610.801136 924.463584 Z" fill="#888" fill-opacity="0.18" stroke="#000" stroke-width="1"/>
  <path d="M735.841386 301.260759 L733.139288 270.036311 L738.881949 271.866149 L733.567448 244.869862 L742.755705 247.797603 L727.104415 217.507606 L752.372123 225.558895 L758.227605 207.182380 L772.009991 211.573992 L766.154509 229.950507 L791.422216 238.001795 L761.132220 253.653085 L770.320477 256.580827 L750.367270 275.525826 L756.109931 277.355664 Z" fill="#888" fill-opacity="0.18" stroke="#000" stroke-width="1"/>
  <path d="M918.230169 563.659359 L891.371580 579.811255 L890.490962 573.848791 L868.578468 590.488685 L867.169478 580.948743 L846.842098 608.321072 L842.967376 582.086232 L823.887493 584.904211 L821.774008 570.594298 L840.853892 567.776319 L836.979171 541.541479 L864.351499 561.868860 L862.942510 552.328918 L888.729725 561.923864 L887.849106 555.961400 Z" fill="#888" fill-opacity="0.18" stroke="#000" stroke-width="1"/>
  <path d="M534.841643 707.008296 L524.692083 736.660513 L520.179083 732.665604 L514.128049 759.506403 L506.907249 753.114549 L508.979616 787.146182 L489.122416 769.568586 L476.338709 784.010185 L465.507509 774.422405 L478.291216 759.980805 L458.434016 742.403208 L492.465650 740.330842 L485.244850 733.938989 L511.153083 724.675788 L506.640083 720.680879 Z" fill="#888" fill-opacity="0.18" stroke="#000" stroke-width="1"/>
  <path d="M623.491525 669.456070 L643.822505 693.308088 L638.084648 695.152935 L658.087322 714.045699 L648.906751 716.997454 L679.237567 732.569492 L653.990997 740.686820 L659.894508 759.047962 L646.123652 763.475595 L640.220141 745.114453 L614.973571 753.231781 L630.545609 722.900965 L621.365039 725.852721 L626.608935 698.842630 L620.871078 700.687477 Z" fill="#888" fill-opacity="0.18" stroke="#000" stroke-width="1"/>
  <path d="M926.622424 675.346992 L950.036525 696.180797 L944.606405 698.796184 L967.014220 714.762814 L958.326026 718.947434 L990.508059 730.206367 L966.615528 741.714072 L974.984767 759.090458 L961.952478 765.367387 L953.583238 747.991001 L929.690707 759.498706 L940.949640 727.316674 L932.261447 731.501294 L933.746163 704.026959 L928.316043 706.642346 Z" fill="#888" fill-opacity="0.18" stroke="#000" stroke-width="1"/>
  <path d="M151.907157 147.119047 L122.477193 157.896094 L122.740880 151.874721 L98.075277 164.066993 L98.497177 154.432796 L73.356937 177.463539 L74.517160 150.969498 L55.248767 150.125699 L55.881617 135.674405 L75.150010 136.518204 L76.310233 110.024163 L99.340976 135.164403 L99.762875 125.530207 L123.268255 139.831976 L123.531942 133.810603 Z" fill="#888" fill-opacity="0.18" stroke="#000" stroke-width="1"/>
  <path d="M548.447906 494.903327 L556.893874 525.084996 L550.911479 524.351908 L561.140396 549.894279 L551.568565 548.721339 L572.565791 575.583268 L546.243256 572.357682 L543.897375 591.501344 L529.539628 589.741933 L531.885509 570.598271 L505.562973 567.372685 L532.424902 546.375458 L522.853071 545.202518 L538.946690 522.885733 L532.964296 522.152645 Z" fill="#888" fill-opacity="0.18" stroke="#000" stroke-width="1"/>
  <path d="M1020.610515 488.758425 L992.257646 475.402441 L996.725636 471.357256 L970.715317 462.384701 L977.864101 455.912405 L943.811399 454.221184 L963.470557 436.422369 L950.525965 422.124800 L961.249142 412.416356 L974.193734 426.713925 L993.852892 408.915111 L992.161671 442.967813 L999.310456 436.495517 L1005.661617 463.266886 L1010.129608 459.221701 Z" fill="#888" fill-opacity="0.18" stroke="#000" stroke-width="1"/>
  <path d="M598.680537 328.577323 L601.843227 297.396160 L607.144418 300.263883 L606.952691 272.750128 L615.434596 277.338486 L605.700725 244.662829 L629.025965 257.280811 L638.202680 240.317000 L650.925538 247.199536 L641.748823 264.163347 L665.074063 276.781329 L632.398407 286.515200 L640.880312 291.103557 L617.746799 305.999330 L623.047990 308.867053 Z" fill="#888" fill-opacity="0.18" stroke="#000" stroke-width="1"/>
  <path d="M410.745106 972.767494 L395.409682 1000.100483 L391.691949 995.356548 L380.895220 1020.664137 L374.946848 1013.073841 L370.842038 1046.920514 L354.484013 1026.047199 L339.303420 1037.943945 L330.380861 1026.558500 L345.561454 1014.661754 L329.203428 993.788439 L363.050102 997.893248 L357.101729 990.302951 L384.256483 985.868677 L380.538750 981.124742 Z" fill="#888" fill-opacity="0.18" stroke="#000" stroke-width="1"/>
  <path d="M284.184471 677.016598 L283.497194 708.350209 L277.985849 705.910633 L280.352502 733.323082 L271.534350 729.419760 L283.821425 761.223448 L259.571506 750.489311 L251.764860 768.125616 L238.537632 762.270632 L246.344277 744.634327 L222.094357 733.900190 L253.898045 721.613115 L245.079892 717.709792 L266.963158 701.031479 L261.451813 698.591903 Z" fill="#888" fill-opacity="0.18" stroke="#000" stroke-width="1"/>
  <path d="M747.189739 744.213889 L766.143561 719.253517 L769.172486 724.464282 L783.351911 700.884898 L788.198192 709.222122 L796.925551 676.263361 L810.252822 699.190727 L826.927271 689.498167 L834.196691 702.004003 L817.522243 711.696564 L830.849514 734.623930 L797.890752 725.896571 L802.737033 734.233795 L775.230337 734.885813 L778.259262 740.096578 Z" fill="#888" fill-opacity="0.18" stroke="#000" stroke-width="1"/>
  <path d="M645.439515 968.477520 L636.007334 998.365670 L631.399392 994.480656 L625.996810 1021.459454 L618.624102 1015.243432 L621.515816 1049.215255 L601.240871 1032.121195 L588.808827 1046.866610 L577.749766 1037.542577 L590.181810 1022.797162 L569.906865 1005.703102 L603.878688 1002.811389 L596.505980 996.595367 L622.183508 986.710629 L617.575566 982.825615 Z" fill="#888" fill-opacity="0.18" stroke="#000" stroke-width="1"/>
  <path d="M323.634397 128.958048 L332.491394 98.894430 L337.173027 102.690318 L342.056987 75.612830 L349.547601 81.686251 L346.004620 47.776163 L366.603807 64.478072 L378.750650 49.496844 L389.986571 58.606976 L377.839728 73.588204 L398.438916 90.290113 L364.528828 93.833094 L372.019442 99.906515 L346.536295 110.282095 L351.217928 114.077983 Z" fill="#888" fill-opacity="0.18" stroke="#000" stroke-width="1"/>
  <path d="M238.208326 517.425273 L241.382932 548.605225 L235.613221 546.862555 L241.335904 573.775272 L232.104367 570.987000 L248.212530 601.036523 L222.825802 593.368775 L217.249258 611.831849 L203.401952 607.649441 L208.978497 589.186367 L183.591769 581.518618 L213.641292 565.410456 L204.409755 562.622183 L224.073799 543.377214 L218.304088 541.634544 Z" fill="#888" fill-opacity="0.18" stroke="#000" stroke-width="1"/>
  <path d="M593.179391 47.022922 L578.316582 74.615754 L574.517766 69.936495 L564.158126 95.426127 L558.080021 87.939313 L554.558249 121.851610 L537.843460 101.262873 L522.869833 113.419083 L513.752675 102.188862 L528.726303 90.032652 L512.011514 69.443914 L545.923811 72.965686 L539.845706 65.478872 L566.920135 60.577978 L563.121319 55.898720 Z" fill="#888" fill-opacity="0.18" stroke="#000" stroke-width="1"/>
  <path d="M1047.420577 134.470244 L1044.338105 165.659439 L1039.029555 162.805361 L1039.292055 190.318532 L1030.798375 185.752008 L1040.616266 218.402518 L1017.258646 205.844577 L1008.125598 222.831937 L995.385078 215.982152 L1004.518126 198.994791 L981.160505 186.436851 L1013.811015 176.618960 L1005.317335 172.052436 L1028.412455 157.097207 L1023.103905 154.243129 Z" fill="#888" fill-opacity="0.18" stroke="#000" stroke-width="1"/>
  <path d="M418.694391 846.545403 L387.642314 842.298521 L390.692950 837.100436 L363.189213 836.333680 L368.070230 828.016744 L335.075349 836.606540 L348.498146 813.734968 L331.864275 803.972934 L339.185801 791.497531 L355.819671 801.259565 L369.242468 778.387993 L377.832264 811.382874 L382.713281 803.065938 L396.794221 826.704267 L399.844857 821.506182 Z" fill="#888" fill-opacity="0.18" stroke="#000" stroke-width="1"/>
  <path d="M711.887301 382.618525 L689.472986 360.712681 L695.019461 358.354063 L673.382745 341.357123 L682.257105 337.583334 L650.636735 324.831905 L675.041224 314.453988 L667.493648 296.705268 L680.805188 291.044585 L688.352764 308.793305 L712.757254 298.415387 L700.005825 330.035758 L708.880185 326.261969 L706.112411 353.636828 L711.658886 351.278210 Z" fill="#888" fill-opacity="0.18" stroke="#000" stroke-width="1"/>
  <path d="M944.437824 476.446426 L924.243610 500.414347 L921.482604 495.056800 L906.126629 517.887426 L901.709020 509.315350 L891.322855 541.789561 L879.174430 518.216354 L862.030280 527.051572 L855.403866 514.193460 L872.548016 505.358242 L860.399591 481.785035 L892.873802 492.171200 L888.456193 483.599125 L915.960593 484.341706 L913.199587 478.984159 Z" fill="#888" fill-opacity="0.18" stroke="#000" stroke-width="1"/>
  <path d="M409.702129 918.780619 L440.937471 921.353732 L438.170399 926.708148 L465.675623 925.996720 L461.248308 934.563786 L493.734261 924.214409 L481.559144 947.773841 L498.693276 956.628471 L492.052304 969.479070 L474.918171 960.624440 L462.743055 984.183872 L452.393677 951.697918 L447.966362 960.264985 L432.636255 937.416981 L429.869183 942.771397 Z" fill="#888" fill-opacity="0.18" stroke="#000" stroke-width="1"/>
  <path d="M606.096521 162.301064 L613.697074 192.706641 L607.737463 191.806918 L617.249716 217.624751 L607.714339 216.185195 L627.953892 243.622528 L601.731604 239.663749 L598.852492 258.734503 L584.549426 256.575169 L587.428539 237.504415 L561.206251 233.545635 L588.643585 213.306082 L579.108207 211.866526 L595.818241 190.007473 L589.858631 189.107750 Z" fill="#888" fill-opacity="0.18" stroke="#000" stroke-width="1"/>
  <path d="M1040.671972 955.945487 L1014.687300 938.422235 L1019.719880 935.105670 L995.381945 922.271795 L1003.434072 916.965291 L970.037493 910.101233 L992.180844 895.508346 L981.567835 879.404091 L993.646026 871.444335 L1004.259035 887.548590 L1026.402385 872.955704 L1019.538327 906.352283 L1027.590454 901.045778 L1029.785039 928.472540 L1034.817619 925.155975 Z" fill="#888" fill-opacity="0.18" stroke="#000" stroke-width="1"/>
  <path d="M929.018628 339.703350 L899.166748 349.249697 L899.680109 343.244456 L874.529749 354.402541 L875.351128 344.794156 L849.276717 366.761675 L851.535507 340.338614 L832.318736 338.695857 L833.550803 324.283279 L852.767575 325.926035 L855.026365 299.502974 L876.993884 325.577384 L877.815262 315.968998 L900.706832 331.233974 L901.220193 325.228733 Z" fill="#888" fill-opacity="0.18" stroke="#000" stroke-width="1"/>
  <path d="M529.062385 762.241640 L557.322704 775.792356 L552.826991 779.806709 L578.774970 788.957984 L571.581830 795.380948 L605.622092 797.306389 L585.840955 814.969541 L598.686884 829.355822 L587.897173 838.990268 L575.051245 824.603987 L555.270108 842.267139 L557.195549 808.226877 L550.002408 814.649841 L543.835565 787.835414 L539.339853 791.849767 Z" fill="#888" fill-opacity="0.18" stroke="#000" stroke-width="1"/>
  <path d="M455.482696 339.000919 L478.297730 360.489095 L472.795758 362.949739 L494.742672 379.544209 L485.939517 383.481240 L517.789980 395.646551 L493.581304 406.473384 L501.455365 424.079693 L488.250633 429.985239 L480.376572 412.378930 L456.167897 423.205763 L468.333208 391.355300 L459.530053 395.292331 L461.791815 367.871027 L456.289843 370.331671 Z" fill="#888" fill-opacity="0.18" stroke="#000" stroke-width="1"/>
  <path d="M72.161070 517.007585 L92.615209 540.754073 L86.886976 542.628589 L106.987150 561.417587 L97.821977 564.416812 L128.232970 579.831683 L103.028745 588.079550 L109.027193 606.409896 L95.279434 610.908732 L89.280985 592.578387 L64.076760 600.826254 L79.491631 570.415260 L70.326458 573.414485 L75.430510 546.377619 L69.702277 548.252134 Z" fill="#888" fill-opacity="0.18" stroke="#000" stroke-width="1"/>
  <path d="M397.613896 757.539586 L409.945767 728.726525 L414.148391 733.046758 L422.183550 706.731749 L428.907748 713.644122 L429.378185 679.552694 L447.869730 698.561720 L461.694476 685.113323 L471.780773 695.481883 L457.956028 708.930279 L476.447573 727.939305 L442.356145 727.468868 L449.080343 734.381241 L422.553638 741.687224 L426.756262 746.007457 Z" fill="#888" fill-opacity="0.18" stroke="#000" stroke-width="1"/>
  <path d="M421.831217 811.188846 L442.794570 834.487029 L437.108254 836.485096 L457.610417 854.834613 L448.512311 858.031520 L479.249843 872.784517 L454.230052 881.576011 L460.623866 899.772223 L446.976707 904.567583 L440.582893 886.371372 L415.563103 895.162866 L430.316100 864.425334 L421.217994 867.622241 L425.735622 840.481230 L420.049306 842.479297 Z" fill="#888" fill-opacity="0.18" stroke="#000" stroke-width="1"/>
  <path d="M378.869901 118.696490 L403.163574 138.497625 L397.851710 141.345531 L420.929432 156.327594 L412.430450 160.884243 L445.069526 170.740077 L421.697325 183.270860 L430.810622 200.268824 L418.062149 207.103797 L408.948852 190.105833 L385.576651 202.636616 L395.432485 169.997540 L386.933503 174.554188 L387.227983 147.041341 L381.916119 149.889247 Z" fill="#888" fill-opacity="0.18" stroke="#000" stroke-width="1"/>
  <path d="M502.985952 585.242930 L480.042595 563.891819 L485.529727 561.398258 L463.483793 544.935566 L472.263203 540.945868 L440.340432 528.971586 L464.483812 517.999917 L456.504416 500.441095 L469.673532 494.456549 L477.652928 512.015370 L501.796308 501.043701 L489.822025 532.966473 L498.601436 528.976775 L496.503990 556.411136 L501.991122 553.917575 Z" fill="#888" fill-opacity="0.18" stroke="#000" stroke-width="1"/>
  <path d="M986.639506 1033.795083 L970.238845 1007.087671 L976.192873 1006.151712 L959.350174 984.394714 L968.876618 982.897178 L941.316670 962.824908 L967.514390 958.706685 L964.519319 939.653798 L978.808984 937.407495 L981.804055 956.460382 L1008.001775 952.342160 L987.929505 979.902107 L997.455949 978.404572 L988.100927 1004.279792 L994.054955 1003.343833 Z" fill="#888" fill-opacity="0.18" stroke="#000" stroke-width="1"/>
  <path d="M581.853680 140.531228 L562.830676 165.438915 L559.816220 160.219766 L545.571426 183.759717 L540.748297 175.409078 L531.929524 208.343498 L518.665918 185.379242 L501.964641 195.025501 L494.729947 182.499543 L511.431224 172.853284 L498.167619 149.889028 L531.102038 158.707801 L526.278909 150.357163 L553.787308 149.781467 L550.772853 144.562318 Z" fill="#888" fill-opacity="0.18" stroke="#000" stroke-width="1"/>
  <path d="M456.962035 317.114934 L487.941543 312.367551 L486.492890 318.218010 L513.081761 311.141613 L510.763916 320.502347 L539.960363 302.895124 L533.586289 328.637142 L552.307757 333.272832 L548.830989 347.313933 L530.109522 342.678243 L523.735449 368.420261 L506.128226 339.223814 L503.810381 348.584548 L483.595584 329.918927 L482.146931 335.769385 Z" fill="#888" fill-opacity="0.18" stroke="#000" stroke-width="1"/>
  <path d="M1053.345534 245.215462 L1038.530458 272.833953 L1034.723557 268.161270 L1024.408007 293.668776 L1018.316966 286.192484 L1014.853837 320.110820 L998.103473 299.551014 L983.150888 311.733098 L974.014325 300.518658 L988.966911 288.336575 L972.216546 267.776770 L1006.134882 271.239898 L1000.043841 263.763605 L1027.109755 258.815904 L1023.302854 254.143221 Z" fill="#888" fill-opacity="0.18" stroke="#000" stroke-width="1"/>
  <path d="M308.956622 972.855835 L302.922910 1003.610702 L297.909747 1000.264861 L295.555341 1027.678365 L287.534280 1022.325019 L294.203568 1055.761038 L272.145649 1041.039336 L261.438957 1057.081459 L249.407365 1049.051440 L260.114057 1033.009317 L238.056138 1018.287615 L271.492157 1011.618327 L263.471095 1006.264981 L287.883420 993.573178 L282.870257 990.227337 Z" fill="#888" fill-opacity="0.18" stroke="#000" stroke-width="1"/>
  <path d="M294.847363 381.644032 L326.001404 385.063578 L323.090091 390.340956 L350.604491 390.375976 L345.946390 398.819781 L378.701154 389.355521 L365.891377 412.575984 L382.778986 421.892186 L375.791835 434.557893 L358.904226 425.241691 L346.094449 448.462154 L336.630189 415.707391 L331.972088 424.151195 L317.267465 400.895712 L314.356152 406.173090 Z" fill="#888" fill-opacity="0.18" stroke="#000" stroke-width="1"/>
  <path d="M209.126934 1054.499349 L182.295469 1038.302437 L187.155236 1034.737451 L162.203805 1023.141350 L169.979433 1017.437373 L136.280421 1012.258246 L157.663398 996.572309 L146.255444 981.021053 L157.918886 972.465088 L169.326840 988.016344 L190.709816 972.330407 L185.530689 1006.029419 L193.306317 1000.325442 L196.874771 1027.607480 L201.734538 1024.042494 Z" fill="#888" fill-opacity="0.18" stroke="#000" stroke-width="1"/>
  <path d="M192.968392 296.575138 L216.387231 275.746660 L218.352431 281.444418 L236.820024 261.048548 L239.964344 270.164962 L254.894576 239.513127 L263.541457 264.583264 L281.774284 258.294623 L286.490765 271.969242 L268.257938 278.257883 L276.904820 303.328020 L246.252985 288.397788 L249.397306 297.514201 L222.282832 292.839934 L224.248032 298.537693 Z" fill="#888" fill-opacity="0.18" stroke="#000" stroke-width="1"/>
  <path d="M238.726143 128.915712 L253.663623 156.468193 L247.667807 157.081911 L263.313476 179.714996 L253.720170 180.696945 L280.158308 202.225336 L253.776717 204.925697 L255.740616 224.112309 L241.350657 225.585233 L239.386758 206.398621 L213.005167 209.098981 L234.533558 182.660844 L224.940253 183.642793 L235.676175 158.309348 L229.680359 158.923066 Z" fill="#888" fill-opacity="0.18" stroke="#000" stroke-width="1"/>
  <path d="M823.175148 75.283126 L802.321718 98.679749 L799.710885 93.247438 L783.725471 115.641856 L779.548137 106.950157 L768.262223 139.122737 L756.774557 115.220565 L739.391159 123.575232 L733.125160 110.537683 L750.508557 102.183017 L739.020891 78.280845 L771.193471 89.566760 L767.016138 80.875061 L794.489218 82.382814 L791.878385 76.950502 Z" fill="#888" fill-opacity="0.18" stroke="#000" stroke-width="1"/>
  <path d="M188.541215 367.963776 L157.747509 362.131521 L161.060462 357.096562 L133.632132 354.921661 L138.932856 346.865728 L105.541212 353.753752 L120.118203 331.599934 L104.006336 320.998486 L111.957422 308.914586 L128.069289 319.516034 L142.646280 297.362216 L149.534304 330.753860 L154.835028 322.697927 L167.686367 347.026645 L170.999319 341.991687 Z" fill="#888" fill-opacity="0.18" stroke="#000" stroke-width="1"/>
  <path d="M77.182058 354.214271 L68.246928 324.173782 L74.240442 324.809594 L63.597960 299.436753 L73.187582 300.454052 L51.756775 273.936750 L78.128235 276.734323 L80.162833 257.555080 L94.547266 259.081028 L92.512667 278.260272 L118.884127 281.057844 L92.366825 302.488651 L101.956447 303.505950 L86.227469 326.081218 L92.220983 326.717030 Z" fill="#888" fill-opacity="0.18" stroke="#000" stroke-width="1"/>
  <path d="M421.805746 141.407125 L431.581303 111.629516 L436.144225 115.567308 L441.856963 88.652478 L449.157638 94.952944 L446.657117 60.950089 L466.733974 78.276373 L479.334908 63.675022 L490.285921 73.125723 L477.684987 87.727073 L497.761844 105.053357 L463.758989 107.553878 L471.059664 113.854345 L445.270069 123.442891 L449.832991 127.380683 Z" fill="#888" fill-opacity="0.18" stroke="#000" stroke-width="1"/>
  <path d="M593.524748 1059.035212 L562.266696 1056.754491 L564.983544 1051.374416 L537.486182 1052.343188 L541.833138 1043.735069 L509.445450 1054.387975 L521.399580 1030.715648 L504.183343 1022.021735 L510.703777 1009.109557 L527.920015 1017.803470 L539.874146 994.131143 L550.527051 1026.518832 L554.874008 1017.910713 L570.417240 1040.614268 L573.134088 1035.234194 Z" fill="#888" fill-opacity="0.18" stroke="#000" stroke-width="1"/>
  <path d="M502.844255 998.070441 L480.151650 1019.687869 L477.992684 1014.060674 L460.233628 1035.076369 L456.779282 1026.072856 L442.906366 1057.217502 L433.406915 1032.457843 L415.399890 1039.366535 L410.218371 1025.861266 L428.225396 1018.952575 L418.725945 994.192915 L449.870590 1008.065832 L446.416245 999.062319 L473.674751 1002.806284 L471.515785 997.179089 Z" fill="#888" fill-opacity="0.18" stroke="#000" stroke-width="1"/>
  <path d="M338.581119 861.693218 L347.962613 891.597316 L341.960295 891.050828 L352.979442 916.262370 L343.375735 915.387990 L365.199053 941.583210 L338.788857 939.178664 L337.040096 958.386079 L322.634534 957.074508 L324.383295 937.867093 L297.973099 935.462547 L324.168319 913.639229 L314.564612 912.764849 L329.955661 889.957853 L323.953344 889.411365 Z" fill="#888" fill-opacity="0.18" stroke="#000" stroke-width="1"/>
  <path d="M726.218917 1028.050784 L730.946100 997.068188 L736.096325 1000.198945 L737.288857 972.710377 L745.529217 977.719589 L737.451343 944.595659 L760.112335 958.370989 L770.130758 941.890268 L782.491299 949.404084 L772.472877 965.884806 L795.133869 979.660136 L762.009939 987.738011 L770.250300 992.747222 L746.396776 1006.460458 L751.547001 1009.591215 Z" fill="#888" fill-opacity="0.18" stroke="#000" stroke-width="1"/>
  <path d="M158.627095 728.733373 L188.000802 739.662822 L183.888051 744.068699 L210.559607 750.826772 L203.979207 757.876174 L238.053713 756.703671 L219.957612 776.089526 L234.056416 789.250327 L224.185815 799.824430 L210.087011 786.663629 L191.990909 806.049485 L190.818405 771.974978 L184.238005 779.024380 L175.662550 752.880451 L171.549800 757.286327 Z" fill="#888" fill-opacity="0.18" stroke="#000" stroke-width="1"/>
  <path d="M330.433043 637.275057 L337.382481 667.836026 L331.443446 666.809227 L340.402130 692.824327 L330.899673 691.181449 L350.548621 719.044787 L324.416864 714.526873 L321.131108 733.531787 L306.877423 731.067471 L310.163178 712.062556 L284.031421 707.544642 L311.894758 687.895694 L302.392301 686.252816 L319.565374 664.755630 L313.626338 663.728831 Z" fill="#888" fill-opacity="0.18" stroke="#000" stroke-width="1"/>
  <path d="M472.158327 558.825441 L440.864684 557.100516 L443.485502 551.673014 L416.009696 553.130244 L420.203005 544.446242 L388.009725 555.672974 L399.541326 531.791968 L382.173322 523.405349 L388.463286 510.379345 L405.831290 518.765964 L417.362891 494.884957 L428.589624 527.078237 L432.782933 518.394234 L448.727139 540.818011 L451.347957 535.390510 Z" fill="#888" fill-opacity="0.18" stroke="#000" stroke-width="1"/>
  <path d="M316.923576 588.881108 L300.601418 615.636569 L297.059188 610.760190 L285.346579 635.657143 L279.679011 627.854937 L274.342416 661.529371 L258.756605 640.073305 L243.152193 651.408441 L234.650841 639.705132 L250.255253 628.369996 L234.669441 606.913930 L268.343876 612.250525 L262.676308 604.448319 L289.974728 601.007433 L286.432498 596.131054 Z" fill="#888" fill-opacity="0.18" stroke="#000" stroke-width="1"/>
  <path d="M774.857995 776.228626 L743.770748 772.247342 L746.776838 767.023370 L719.267551 766.491752 L724.077294 758.133396 L691.157047 767.004929 L704.383840 744.019450 L687.667128 734.399964 L694.881743 721.862430 L711.598454 731.481916 L724.825247 708.496437 L733.696780 741.416684 L738.506523 733.058328 L752.789016 756.575425 L755.795106 751.351452 Z" fill="#888" fill-opacity="0.18" stroke="#000" stroke-width="1"/>
  <path d="M812.102377 538.346379 L781.478048 545.011062 L782.560081 539.081841 L756.462723 547.797995 L758.193976 538.311241 L730.148958 557.699993 L734.909904 531.611419 L715.936396 528.148913 L718.533276 513.918782 L737.506784 517.381288 L742.267730 491.292714 L761.656483 519.337732 L763.387736 509.850978 L784.724148 527.223398 L785.806181 521.294177 Z" fill="#888" fill-opacity="0.18" stroke="#000" stroke-width="1"/>
  <path d="M615.016043 390.237879 L625.271170 419.853751 L619.255400 419.483665 L631.009751 444.360937 L621.384517 443.768799 L643.967256 469.312227 L617.497864 467.683848 L616.313588 486.934314 L601.875739 486.046107 L603.060014 466.795641 L576.590623 465.167262 L602.134051 442.584523 L592.508818 441.992385 L607.223858 418.743492 L601.208087 418.373406 Z" fill="#888" fill-opacity="0.18" stroke="#000" stroke-width="1"/>
  <path d="M56.591001 663.847069 L85.819322 675.159574 L81.649327 679.511310 L108.230258 686.617471 L101.558266 693.580248 L135.645189 692.853286 L117.297211 712.000922 L131.222765 725.344906 L121.214777 735.789072 L107.289223 722.445088 L88.941245 741.592725 L88.214283 707.505802 L81.542291 714.468579 L73.309337 688.214781 L69.139342 692.566517 Z" fill="#888" fill-opacity="0.18" stroke="#000" stroke-width="1"/>
  <path d="M753.771203 487.129408 L784.690930 482.007101 L783.313253 487.874679 L809.814453 480.476715 L807.610170 489.864840 L836.591188 471.905236 L830.529410 497.722578 L849.305659 502.131143 L845.999234 516.213330 L827.222986 511.804764 L821.161208 537.622106 L803.201604 508.641088 L800.997321 518.029213 L780.557899 499.609835 L779.180223 505.477412 Z" fill="#888" fill-opacity="0.18" stroke="#000" stroke-width="1"/>
  <path d="M83.677861 982.685295 L99.016278 955.353986 L102.733492 960.098328 L113.532993 934.791921 L119.480534 942.382869 L123.589051 908.536646 L139.944790 929.411753 L155.126686 917.516670 L164.047998 928.903092 L148.866102 940.798175 L165.221840 961.673282 L131.375617 957.564765 L137.323158 965.155714 L110.167918 969.587013 L113.885132 974.331356 Z" fill="#888" fill-opacity="0.18" stroke="#000" stroke-width="1"/>
  <path d="M371.725548 974.698725 L367.087591 943.702646 L372.932897 945.171950 L365.950435 918.558256 L375.302926 920.909141 L357.798912 891.650702 L383.518261 898.115636 L388.220032 879.410655 L402.248767 882.936982 L397.546997 901.641964 L423.266346 908.106898 L394.007907 925.610911 L403.360398 927.961797 L384.623510 948.110556 L390.468817 949.579859 Z" fill="#888" fill-opacity="0.18" stroke="#000" stroke-width="1"/>
  <path d="M826.828701 189.511630 L838.099277 160.267115 L842.456988 164.430864 L849.525022 137.839769 L856.497360 144.501768 L855.721513 110.415924 L874.895444 128.736422 L888.219443 114.791745 L898.677950 124.784745 L885.353951 138.729421 L904.527882 157.049920 L870.442037 157.825768 L877.414376 164.487767 L851.172411 172.758364 L855.530123 176.922114 Z" fill="#888" fill-opacity="0.18" stroke="#000" stroke-width="1"/>
  <path d="M259.747328 1001.353775 L250.938352 971.276051 L256.929144 971.937012 L246.393241 946.519730 L255.978509 947.577266 L234.659180 920.970256 L261.018667 923.878481 L263.133739 904.707945 L277.511641 906.294249 L275.396568 925.464785 L301.756055 928.373009 L275.149045 949.692338 L284.734313 950.749875 L268.910729 973.258932 L274.901521 973.919892 Z" fill="#888" fill-opacity="0.18" stroke="#000" stroke-width="1"/>
  <path d="M689.906492 510.455124 L702.000802 481.541543 L706.238841 485.827040 L714.057145 459.446791 L720.838007 466.303586 L721.027841 432.209441 L739.675212 451.065630 L753.388804 437.503906 L763.560097 447.789100 L749.846506 461.350824 L768.493876 480.207013 L734.399731 480.017178 L741.180594 486.873974 L714.714918 494.398035 L718.952957 498.683533 Z" fill="#888" fill-opacity="0.18" stroke="#000" stroke-width="1"/>
  <path d="M864.970551 813.099972 L833.991403 808.350245 L837.125907 803.202300 L809.638215 801.989765 L814.653421 793.753052 L781.523622 801.806819 L795.315439 779.155858 L778.842012 769.125445 L786.364822 756.770375 L802.838249 766.800787 L816.630066 744.149826 L824.683834 777.279625 L829.699040 769.042911 L843.394915 792.906408 L846.529419 787.758462 Z" fill="#888" fill-opacity="0.18" stroke="#000" stroke-width="1"/>
  <path d="M972.785472 404.200130 L942.976075 413.878320 L943.462890 407.870868 L918.362091 419.140000 L919.140996 409.528078 L893.163929 431.610622 L895.305916 405.177836 L876.082072 403.620027 L877.250428 389.202144 L896.474273 390.759953 L898.616260 364.327167 L920.698805 390.304233 L921.477709 380.692311 L944.436521 395.855965 L944.923336 389.848514 Z" fill="#888" fill-opacity="0.18" stroke="#000" stroke-width="1"/>
  <path d="M231.259565 520.421225 L214.757043 493.776633 L220.707453 492.817946 L203.781799 471.125419 L213.302455 469.591518 L185.666063 449.624630 L211.847867 445.406403 L208.780066 426.365091 L223.061050 424.064240 L226.128851 443.105552 L252.310655 438.887325 L232.343767 466.523717 L241.864423 464.989816 L232.608273 490.900570 L238.558683 489.941882 Z" fill="#888" fill-opacity="0.18" stroke="#000" stroke-width="1"/>
  <path d="M815.424772 467.334411 L790.991319 447.706016 L796.282857 444.820521 L773.099493 430.002456 L781.565954 425.385664 L748.857820 415.761490 L772.140589 403.065312 L762.907005 386.132389 L775.606698 379.207201 L784.840282 396.140124 L808.123051 383.443946 L798.498877 416.152080 L806.965339 411.535288 L806.865934 439.049531 L812.157473 436.164036 Z" fill="#888" fill-opacity="0.18" stroke="#000" stroke-width="1"/>
  <path d="M141.244169 280.737196 L171.406217 289.252965 L167.663621 293.977310 L194.794713 298.554134 L188.806560 306.113087 L222.674324 302.186089 L206.206903 322.973208 L221.324807 334.949515 L212.342577 346.287943 L197.224673 334.311636 L180.757251 355.098756 L176.830253 321.230991 L170.842100 328.789944 L160.178430 303.426001 L156.435834 308.150346 Z" fill="#888" fill-opacity="0.18" stroke="#000" stroke-width="1"/>
  <path d="M567.486149 854.173199 L537.102605 861.861359 L537.985147 855.899180 L512.194838 865.485808 L513.606905 855.946321 L486.228022 876.264873 L490.111204 850.031284 L471.032230 847.207151 L473.150330 832.897921 L492.229304 835.722053 L496.112486 809.488464 L516.431037 836.867348 L517.843104 827.327861 L539.750230 843.974821 L540.632771 838.012642 Z" fill="#888" fill-opacity="0.18" stroke="#000" stroke-width="1"/>
  <path d="M367.296913 681.501296 L383.066482 654.416463 L386.708052 659.219110 L397.907189 634.087004 L403.733701 641.771240 L408.378011 607.994367 L424.400921 629.126018 L439.769394 617.472992 L448.509163 628.999347 L433.140690 640.652372 L449.163600 661.784023 L415.386727 657.139713 L421.213239 664.823950 L393.991193 668.824406 L397.632763 673.627054 Z" fill="#888" fill-opacity="0.18" stroke="#000" stroke-width="1"/>
  <path d="M890.475988 207.201675 L920.296216 197.556907 L919.802667 203.563809 L944.916082 192.322820 L944.126404 201.933863 L970.128208 179.880452 L967.956592 206.310820 L987.178678 207.890177 L985.994160 222.306742 L966.772074 220.727385 L964.600459 247.157753 L942.547047 221.155950 L941.757368 230.766993 L918.815569 215.577612 L918.322020 221.584514 Z" fill="#888" fill-opacity="0.18" stroke="#000" stroke-width="1"/>
  <path d="M890.557496 869.226350 L878.490691 840.301279 L884.517834 840.298671 L871.247687 816.195836 L880.891116 816.191663 L856.772110 792.093523 L883.291540 792.082048 L883.283194 772.795189 L897.748338 772.788930 L897.756684 792.075788 L924.276114 792.064312 L900.177974 816.183317 L909.821403 816.179144 L896.572120 840.293455 L902.599264 840.290847 Z" fill="#888" fill-opacity="0.18" stroke="#000" stroke-width="1"/>
  <path d="M972.033755 616.442887 L942.248453 626.194979 L942.720367 620.186339 L917.647595 631.517690 L918.402657 621.903866 L892.480439 644.050770 L894.556862 617.612753 L875.329213 616.102627 L876.461807 601.681890 L895.689456 603.192016 L897.765879 576.753999 L919.912783 602.676217 L920.667846 593.062392 L943.664196 608.169058 L944.136110 602.160418 Z" fill="#888" fill-opacity="0.18" stroke="#000" stroke-width="1"/>
  <path d="M337.083099 60.267746 L311.374384 78.193412 L310.093845 72.303872 L289.352870 90.383015 L287.304008 80.959751 L268.868003 109.640066 L263.233632 83.726090 L244.387104 87.823814 L241.313811 73.688917 L260.160340 69.591194 L254.525969 43.677217 L283.206284 62.113223 L281.157422 52.689959 L307.532768 60.524792 L306.252229 54.635252 Z" fill="#888" fill-opacity="0.18" stroke="#000" stroke-width="1"/>
  <path d="M861.900233 233.983921 L892.363157 241.351267 L888.802169 246.213964 L916.087132 249.759981 L910.389552 257.540297 L944.084293 252.333458 L928.415947 273.729327 L943.976579 285.124488 L935.430209 296.794962 L919.869576 285.399801 L904.201230 306.795670 L898.994391 273.100929 L893.296811 280.881245 L881.680194 255.939359 L878.119206 260.802057 Z" fill="#888" fill-opacity="0.18" stroke="#000" stroke-width="1"/>
  <path d="M862.567433 984.324707 L847.135101 1011.603098 L843.434227 1006.845999 L832.547749 1032.115111 L826.626352 1024.503751 L822.401446 1058.335644 L806.117604 1037.404405 L790.894884 1049.247199 L782.012788 1037.830159 L797.235508 1025.987365 L780.951665 1005.056126 L814.783558 1009.281032 L808.862160 1001.669672 L836.032481 997.331799 L832.331608 992.574699 Z" fill="#888" fill-opacity="0.18" stroke="#000" stroke-width="1"/>
  <path d="M652.534266 562.944576 L623.507506 551.124478 L627.752698 546.846066 L601.299629 539.277803 L608.091936 532.432345 L573.997522 532.565223 L592.676367 513.740212 L578.985450 500.155597 L589.173911 489.887409 L602.864828 503.472024 L621.543673 484.647013 L621.676551 518.741428 L628.468858 511.895969 L636.243082 538.289243 L640.488274 534.010831 Z" fill="#888" fill-opacity="0.18" stroke="#000" stroke-width="1"/>
  <path d="M462.860130 584.494237 L485.756452 605.895779 L480.263846 608.377261 L502.273503 624.888422 L493.485335 628.858793 L525.381681 640.903288 L501.214219 651.821806 L509.154959 669.398142 L495.972707 675.353698 L488.031966 657.777361 L463.864503 668.695879 L475.908999 636.799533 L467.120830 640.769903 L469.278636 613.340224 L463.786031 615.821705 Z" fill="#888" fill-opacity="0.18" stroke="#000" stroke-width="1"/>
  <path d="M707.096291 798.889624 L680.877250 816.060221 L679.768493 810.135939 L658.510629 827.604387 L656.736618 818.125536 L637.474517 846.257692 L632.595987 820.190850 L613.638284 823.738872 L610.977267 809.520595 L629.934970 805.972573 L625.056440 779.905732 L653.188596 799.167833 L651.414585 789.688981 L677.550979 798.287375 L676.442222 792.363092 Z" fill="#888" fill-opacity="0.18" stroke="#000" stroke-width="1"/>
  <path d="M90.622575 807.994934 L119.542947 795.916873 L119.547901 801.944014 L143.645570 788.664488 L143.653496 798.307915 L167.742248 774.179533 L167.764044 800.698956 L187.050897 800.683105 L187.062786 815.148245 L167.775933 815.164097 L167.797729 841.683520 L143.669347 817.594768 L143.677273 827.238195 L119.557809 813.998298 L119.562762 820.025440 Z" fill="#888" fill-opacity="0.18" stroke="#000" stroke-width="1"/>
  <path d="M247.615985 986.643025 L216.560931 982.417962 L219.607914 977.217735 L192.103645 976.470304 L196.978817 968.149941 L163.989980 976.762917 L177.396703 953.881920 L160.755978 944.131575 L168.068736 931.651031 L184.709462 941.401375 L198.116185 918.520378 L206.729162 951.509215 L211.604334 943.188853 L225.701879 966.817282 L228.748862 961.617055 Z" fill="#888" fill-opacity="0.18" stroke="#000" stroke-width="1"/>
  <path d="M914.281063 327.033777 L944.903757 320.361586 L943.823178 326.291073 L969.918398 317.568521 L968.189471 327.055699 L996.229735 307.660072 L991.475185 333.749812 L1010.449541 337.207667 L1007.856150 351.438434 L988.881794 347.980580 L984.127244 374.070320 L964.731616 346.030056 L963.002689 355.517234 L941.662018 338.150045 L940.581439 344.079532 Z" fill="#888" fill-opacity="0.18" stroke="#000" stroke-width="1"/>
  <path d="M1014.817441 80.508875 L985.751452 92.232175 L985.820244 86.205424 L961.561897 99.189108 L961.671964 89.546306 L937.289791 113.378142 L937.592477 86.860437 L918.306873 86.640302 L918.471974 72.176099 L937.757578 72.396234 L938.060263 45.878529 L961.892099 70.260702 L962.002166 60.617901 L985.957828 74.151922 L986.026620 68.125171 Z" fill="#888" fill-opacity="0.18" stroke="#000" stroke-width="1"/>
  <path d="M1040.105816 831.487136 L1013.705740 848.378066 L1012.660018 842.442333 L991.217673 859.683832 L989.544519 850.186659 L969.984472 878.112477 L965.383297 851.995252 L946.388951 855.341560 L943.879220 841.095801 L962.873566 837.749492 L958.272391 811.632266 L986.198210 831.192313 L984.525055 821.695140 L1010.568575 830.570866 L1009.522854 824.635133 Z" fill="#888" fill-opacity="0.18" stroke="#000" stroke-width="1"/>
  <path d="M95.815713 611.159132 L123.861216 625.149029 L119.303431 629.092765 L145.105503 638.647687 L137.813047 644.957665 L171.819132 647.413862 L151.764877 664.766301 L164.384832 679.351214 L153.446148 688.816180 L140.826192 674.231267 L120.771937 691.583706 L123.228134 657.577621 L115.935677 663.887598 L110.187860 636.980238 L105.630075 640.923974 Z" fill="#888" fill-opacity="0.18" stroke="#000" stroke-width="1"/>
  <path d="M209.451268 532.789578 L178.458485 528.129652 L181.578057 522.972644 L154.086966 521.839776 L159.078280 513.588563 L125.971961 521.738311 L139.698075 499.047474 L123.195648 489.064845 L130.682620 476.688025 L147.185047 486.670654 L160.911161 463.979817 L169.060909 497.086136 L174.052223 488.834923 L187.817199 512.658627 L190.936771 507.501619 Z" fill="#888" fill-opacity="0.18" stroke="#000" stroke-width="1"/>
  <path d="M102.959858 424.922845 L107.869269 455.877089 L102.011310 454.459067 L109.226730 481.010549 L99.853997 478.741713 L117.613741 507.845635 L91.838725 501.606337 L87.301054 520.351804 L73.241955 516.948551 L77.779625 498.203084 L52.004609 491.963787 L81.108531 474.204042 L71.735797 471.935207 L90.295394 451.623023 L84.437436 450.205001 Z" fill="#888" fill-opacity="0.18" stroke="#000" stroke-width="1"/>
  <path d="M249.509209 561.258663 L258.046914 531.102816 L262.768536 534.848847 L267.365092 507.721091 L274.919687 513.714741 L271.017323 479.844130 L291.792459 496.326666 L303.779758 481.217476 L315.111651 490.207950 L303.124352 505.317140 L323.899488 521.799676 L290.028877 525.702040 L297.583472 531.695690 L272.211780 542.340909 L276.933402 546.086940 Z" fill="#888" fill-opacity="0.18" stroke="#000" stroke-width="1"/>
  <path d="M985.517539 610.567771 L985.115046 579.229209 L990.707875 581.475701 L987.389622 554.162103 L996.338148 557.756491 L982.952804 526.399206 L1007.561250 536.283774 L1014.750027 518.386722 L1028.172816 523.778304 L1020.984039 541.675356 L1045.592485 551.559924 L1014.235200 564.945268 L1023.183726 568.539656 L1001.893532 585.968687 L1007.486361 588.215179 Z" fill="#888" fill-opacity="0.18" stroke="#000" stroke-width="1"/>
  <path d="M516.843435 498.689592 L487.557503 487.527080 L491.705133 483.154023 L465.088120 476.184227 L471.724329 469.187336 L437.641581 470.089041 L455.891154 450.847592 L441.897373 437.575175 L451.851686 427.079839 L465.845467 440.352256 L484.095041 421.110807 L484.996746 455.193555 L491.632954 448.196664 L500.000394 474.407910 L504.148024 470.034854 Z" fill="#888" fill-opacity="0.18" stroke="#000" stroke-width="1"/>
  <path d="M676.610600 567.028893 L657.830380 541.937643 L663.673518 540.459738 L644.906994 520.338578 L654.256014 517.973930 L624.971843 500.513000 L650.681648 494.010217 L645.952352 475.312177 L659.975882 471.765204 L664.705179 490.463245 L690.414984 483.960462 L672.954055 513.244633 L682.303075 510.879985 L675.359793 537.503927 L681.202930 536.026022 Z" fill="#888" fill-opacity="0.18" stroke="#000" stroke-width="1"/>
  <path d="M578.189306 341.269414 L565.246039 312.725774 L571.270299 312.539369 L557.271304 288.852419 L566.910121 288.554170 L542.067457 265.202750 L568.574204 264.382566 L567.977706 245.104933 L582.435931 244.657560 L583.032429 263.935193 L609.539175 263.115009 L586.187755 287.957673 L595.826572 287.659424 L583.318820 312.166558 L589.343081 311.980153 Z" fill="#888" fill-opacity="0.18" stroke="#000" stroke-width="1"/>
  <path d="M925.388496 48.888308 L908.762772 75.456199 L905.276292 70.539806 L893.280978 95.301791 L887.702610 87.435563 L881.982961 121.047055 L866.642447 99.414927 L850.909991 110.571664 L842.542438 98.772322 L858.274894 87.615585 L842.934381 65.983457 L876.545873 71.703106 L870.967504 63.836878 L898.303332 60.707021 L894.816851 55.790628 Z" fill="#888" fill-opacity="0.18" stroke="#000" stroke-width="1"/>
  <path d="M628.605858 637.928254 L606.093192 616.123498 L611.628997 613.739945 L589.916013 596.840543 L598.773301 593.026858 L567.095868 580.417852 L591.453409 569.930217 L583.826038 552.215642 L597.111969 546.495114 L604.739340 564.209689 L629.096881 553.722054 L616.487876 585.399487 L625.345164 581.585801 L622.700607 608.972838 L628.236411 606.589284 Z" fill="#888" fill-opacity="0.18" stroke="#000" stroke-width="1"/>
  <path d="M213.799329 619.960236 L182.549087 622.345583 L184.437061 616.621772 L157.388273 621.662260 L160.409031 612.504162 L129.961890 627.847511 L138.268976 602.662741 L119.952780 596.621224 L124.483918 582.884077 L142.800114 588.925594 L151.107200 563.740825 L166.450549 594.187966 L169.471307 585.029868 L188.213009 605.174149 L190.100983 599.450338 Z" fill="#888" fill-opacity="0.18" stroke="#000" stroke-width="1"/>
  <path d="M564.771104 906.625125 L578.422132 934.837125 L572.404394 935.173698 L586.989712 958.504192 L577.361330 959.042709 L602.778578 981.767372 L576.300527 983.248294 L577.377561 1002.505058 L562.934988 1003.312833 L561.857954 984.056069 L535.379903 985.536992 L558.104566 960.119744 L548.476184 960.658261 L560.368916 935.846845 L554.351177 936.183418 Z" fill="#888" fill-opacity="0.18" stroke="#000" stroke-width="1"/>
  <path d="M1038.514560 793.281507 L1021.932032 766.686634 L1027.879533 765.710067 L1010.888759 744.068509 L1020.404762 742.506000 L992.708484 722.622264 L1018.877492 718.325366 L1015.752475 699.293361 L1030.026479 696.949598 L1033.151496 715.981604 L1059.320504 711.684706 L1039.436767 739.380984 L1048.952770 737.818476 L1039.774537 763.756931 L1045.722039 762.780364 Z" fill="#888" fill-opacity="0.18" stroke="#000" stroke-width="1"/>
  <path d="M355.283345 366.123261 L342.057771 337.709326 L348.079887 337.463213 L333.846779 313.916195 L343.482166 313.522414 L318.409248 290.418398 L344.906562 289.335502 L344.119001 270.064729 L358.572081 269.474058 L359.359642 288.744831 L385.856955 287.661935 L362.752940 312.734853 L372.388326 312.341073 L360.124121 336.970988 L366.146237 336.724875 Z" fill="#888" fill-opacity="0.18" stroke="#000" stroke-width="1"/>
  <path d="M254.683963 379.616757 L277.429187 401.178814 L271.919264 403.621601 L293.812243 420.287163 L284.996366 424.195622 L316.807206 436.464167 L292.563544 447.212429 L300.380462 464.844183 L287.156647 470.706872 L279.339728 453.075118 L255.096066 463.823380 L267.364611 432.012540 L258.548734 435.920999 L260.899418 408.507175 L255.389494 410.949962 Z" fill="#888" fill-opacity="0.18" stroke="#000" stroke-width="1"/>
  <path d="M399.247062 771.471351 L368.532857 777.708747 L369.697387 771.795175 L343.481133 780.146910 L345.344382 770.685196 L317.031973 789.681360 L322.155908 763.661644 L303.232479 759.935146 L306.027352 745.742574 L324.950781 749.469072 L330.074716 723.449357 L349.070880 751.761766 L350.934129 742.300052 L372.026449 759.968032 L373.190979 754.054460 Z" fill="#888" fill-opacity="0.18" stroke="#000" stroke-width="1"/>
  <path d="M234.092770 55.751618 L209.409464 75.064876 L207.806764 69.254729 L188.092116 88.447856 L185.527795 79.151621 L168.698009 108.803013 L161.646125 83.238365 L143.053654 88.367008 L139.207172 74.422654 L157.799643 69.294012 L150.747760 43.729363 L180.399152 60.559149 L177.834831 51.262914 L204.601362 57.634434 L202.998661 51.824287 Z" fill="#888" fill-opacity="0.18" stroke="#000" stroke-width="1"/>
  <path d="M583.366257 129.974643 L588.013160 98.979905 L593.171479 102.097309 L594.292794 74.605745 L602.546104 79.593592 L594.382446 46.490700 L617.079049 60.207278 L627.054742 43.700658 L639.434707 51.182428 L629.459014 67.689048 L652.155616 81.405627 L619.052724 89.569285 L627.306034 94.557132 L603.488116 108.332118 L608.646435 111.449522 Z" fill="#888" fill-opacity="0.18" stroke="#000" stroke-width="1"/>
  <path d="M749.264211 881.925721 L738.663856 852.431654 L744.683539 852.731448 L732.639412 827.993168 L742.270905 828.472839 L719.391348 803.194931 L745.877954 804.514024 L746.837294 785.251038 L761.284534 785.970543 L760.325193 805.233529 L786.811799 806.552622 L761.533891 829.432179 L771.165384 829.911850 L756.722905 853.331036 L762.742588 853.630829 Z" fill="#888" fill-opacity="0.18" stroke="#000" stroke-width="1"/>
  <path d="M574.006193 484.317591 L553.921033 460.258210 L559.677518 458.472337 L539.869759 439.375318 L549.080135 436.517921 L518.910703 420.635473 L544.239237 412.777632 L538.524443 394.356880 L552.340007 390.070785 L558.054800 408.491536 L583.383334 400.633695 L567.500887 430.803127 L576.711262 427.945730 L571.190488 454.900591 L576.946973 453.114718 Z" fill="#888" fill-opacity="0.18" stroke="#000" stroke-width="1"/>
  <path d="M930.692078 810.073107 L951.732478 786.844481 L954.299661 792.297557 L970.464164 770.032061 L974.571655 778.756983 L986.115230 746.675950 L997.410832 770.669484 L1014.860675 762.454501 L1021.021912 775.541883 L1003.572069 783.756866 L1014.867671 807.750400 L982.786638 796.206826 L986.894130 804.931747 L959.434025 803.203709 L962.001207 808.656785 Z" fill="#888" fill-opacity="0.18" stroke="#000" stroke-width="1"/>
  <path d="M517.540083 952.629330 L518.382780 921.299513 L523.881957 923.766399 L521.651310 896.342546 L530.449992 900.289563 L518.320829 868.425317 L542.517204 879.279612 L550.411237 861.682249 L563.609259 867.602773 L555.715227 885.200137 L579.911602 896.054432 L548.047356 908.183596 L556.846038 912.130612 L534.880309 928.700169 L540.379485 931.167055 Z" fill="#888" fill-opacity="0.18" stroke="#000" stroke-width="1"/>
  <path d="M734.871792 170.475052 L731.878738 201.672955 L726.562028 198.834106 L726.903395 226.346411 L718.396659 221.804254 L728.308103 254.426486 L704.914581 241.935552 L695.830266 258.949023 L683.070163 252.135786 L692.154478 235.122316 L668.760957 222.631382 L701.383189 212.719938 L692.876454 208.177780 L715.928609 193.156409 L710.611900 190.317561 Z" fill="#888" fill-opacity="0.18" stroke="#000" stroke-width="1"/>
  <path d="M223.186224 346.981974 L249.736944 330.328842 L250.729311 336.273728 L272.325648 319.225513 L273.913435 328.737330 L293.723513 300.988320 L298.089926 327.145818 L317.113561 323.970245 L319.495241 338.237972 L300.471605 341.413545 L304.838018 367.571043 L277.089008 347.760966 L278.676794 357.272783 L252.714044 348.163500 L253.706410 354.108386 Z" fill="#888" fill-opacity="0.18" stroke="#000" stroke-width="1"/>
  <path d="M291.128855 239.474169 L319.880949 227.000815 L319.968520 233.027322 L343.881895 219.418723 L344.022008 229.061135 L367.777755 204.604822 L368.163066 231.121455 L387.447890 230.841229 L387.658060 245.304847 L368.373236 245.585073 L368.758547 272.101706 L344.302234 248.345959 L344.442347 257.988371 L320.143662 245.080337 L320.231232 251.106845 Z" fill="#888" fill-opacity="0.18" stroke="#000" stroke-width="1"/>
  <path d="M765.045974 908.078266 L734.409258 901.470757 L737.848218 896.521008 L710.483510 893.654615 L715.985846 885.735017 L682.431010 891.778173 L697.562434 869.999277 L681.723237 858.994605 L689.976741 847.115208 L705.815938 858.119880 L720.947362 836.340984 L726.990518 869.895820 L732.492854 861.976222 L744.726138 886.621509 L748.165098 881.671760 Z" fill="#888" fill-opacity="0.18" stroke="#000" stroke-width="1"/>
  <path d="M683.817393 642.208391 L711.191605 657.470109 L706.457704 661.200611 L731.794294 671.929109 L724.220054 677.897912 L758.077665 681.911506 L737.248502 698.325716 L749.186109 713.474198 L737.824748 722.427403 L725.887141 707.278921 L705.057978 723.693131 L709.071572 689.835519 L701.497331 695.804323 L696.989903 668.661616 L692.256003 672.392118 Z" fill="#888" fill-opacity="0.18" stroke="#000" stroke-width="1"/>
  <path d="M482.627867 179.227327 L504.719081 201.458966 L499.138670 203.736131 L520.524234 221.048009 L511.595578 224.691473 L543.025880 237.904453 L518.472075 247.923981 L525.759004 265.781294 L512.366019 271.246490 L505.079090 253.389177 L480.525284 263.408705 L493.738265 231.978402 L484.809608 235.621867 L487.977850 208.290462 L482.397439 210.567627 Z" fill="#888" fill-opacity="0.18" stroke="#000" stroke-width="1"/>
  <path d="M152.425032 714.675946 L173.119743 691.138817 L175.767258 696.553346 L191.600843 674.051323 L195.836866 682.714570 L206.904925 650.466394 L218.553990 674.290323 L235.880483 665.818276 L242.234518 678.813146 L224.908025 687.285193 L236.557089 711.109122 L204.308913 700.041063 L208.544937 708.704310 L181.062287 707.382405 L183.709802 712.796934 Z" fill="#888" fill-opacity="0.18" stroke="#000" stroke-width="1"/>
  <path d="M415.764591 570.108907 L396.562512 594.878802 L393.585762 589.638056 L379.171630 613.074700 L374.408829 604.689507 L365.352849 637.559493 L352.255146 614.500211 L335.484759 624.025814 L328.340557 611.448024 L345.110944 601.922421 L332.013240 578.863140 L364.883227 587.919120 L360.120425 579.533927 L387.632260 579.156565 L384.655509 573.915819 Z" fill="#888" fill-opacity="0.18" stroke="#000" stroke-width="1"/>
  <path d="M70.123785 768.104907 L84.526300 795.940767 L78.519748 796.438561 L93.725337 819.369621 L84.114855 820.166091 L110.132237 842.201122 L83.703410 844.391415 L85.296351 863.612380 L70.880627 864.807086 L69.287686 845.586121 L42.858859 847.776414 L64.893890 821.759032 L55.283407 822.555502 L66.506645 797.434149 L60.500093 797.931943 Z" fill="#888" fill-opacity="0.18" stroke="#000" stroke-width="1"/>
  <path d="M107.961121 274.079534 L128.880303 250.741681 L131.475840 256.181318 L147.524205 233.831968 L151.677065 242.535387 L163.053463 210.394691 L174.473827 234.329093 L191.880664 226.023374 L198.109954 239.078502 L180.703116 247.384221 L192.123480 271.318623 L159.982784 259.942225 L164.135644 268.645643 L136.666915 267.060592 L139.262452 272.500228 Z" fill="#888" fill-opacity="0.18" stroke="#000" stroke-width="1"/>
  <path d="M1032.233137 588.761551 L1021.683040 618.273633 L1017.224542 614.217988 L1010.810660 640.974400 L1003.677063 634.485369 L1005.288478 668.541941 L985.671085 650.697105 L972.693022 664.964300 L961.992626 655.230753 L974.970689 640.963558 L955.353295 623.118722 L989.409868 621.507306 L982.276270 615.018275 L1008.307545 606.106699 L1003.849046 602.051055 Z" fill="#888" fill-opacity="0.18" stroke="#000" stroke-width="1"/>
  <path d="M856.308651 217.641585 L847.428636 247.698412 L842.749911 243.898940 L837.845219 270.972681 L830.359258 264.893526 L833.876273 298.806317 L813.289880 282.088640 L801.131569 297.060562 L789.902628 287.941829 L802.060938 272.969907 L781.474545 256.252230 L815.387336 252.735216 L807.901375 246.656060 L833.392459 236.299996 L828.713734 232.500524 Z" fill="#888" fill-opacity="0.18" stroke="#000" stroke-width="1"/>
  <path d="M357.005007 549.834568 L350.510217 519.173759 L356.433348 520.288649 L347.862021 494.143366 L357.339031 495.927190 L338.106067 467.775106 L364.167844 472.680622 L367.735492 453.726603 L381.951007 456.402339 L378.383358 475.356359 L404.445135 480.261876 L376.293050 499.494839 L385.770060 501.278663 L368.279611 522.518429 L374.202742 523.633319 Z" fill="#888" fill-opacity="0.18" stroke="#000" stroke-width="1"/>
  <path d="M426.091025 420.947893 L399.322656 404.646912 L404.196230 401.100825 L379.290017 389.407921 L387.087735 383.734181 L353.409089 378.424235 L374.852814 362.821450 L363.505334 347.226013 L375.201912 338.715403 L386.549392 354.310840 L407.993118 338.708054 L402.683172 372.386701 L410.480891 366.712961 L413.943378 394.008650 L418.816952 390.462562 Z" fill="#888" fill-opacity="0.18" stroke="#000" stroke-width="1"/>
  <path d="M521.725570 658.547448 L550.212785 671.614432 L545.786160 675.704841 L571.886373 684.412443 L564.803772 690.957098 L598.871911 692.301964 L579.394759 710.299764 L592.484068 724.464966 L581.860167 734.281948 L568.770857 720.116746 L549.293705 738.114547 L550.638570 704.046408 L543.555969 710.591062 L536.932909 683.885660 L532.506283 687.976069 Z" fill="#888" fill-opacity="0.18" stroke="#000" stroke-width="1"/>
  <path d="M860.690550 373.673763 L873.671090 402.200471 L867.647078 402.394746 L881.677001 426.063390 L872.038582 426.374229 L896.911726 449.693179 L870.406074 450.547986 L871.027752 469.824824 L856.570123 470.291082 L855.948446 451.014244 L829.442794 451.869050 L852.761744 426.995906 L843.123325 427.306745 L855.599054 402.783294 L849.575042 402.977568 Z" fill="#888" fill-opacity="0.18" stroke="#000" stroke-width="1"/>
  <path d="M374.596881 565.915655 L344.693239 575.298603 L345.239435 569.296259 L320.028429 580.316633 L320.902342 570.712883 L294.708184 592.537475 L297.111445 566.127162 L277.903945 564.379336 L279.214814 549.973711 L298.422315 551.721537 L300.825576 525.311224 L322.650168 551.505382 L323.524081 541.901632 L346.331826 557.291571 L346.878022 551.289228 Z" fill="#888" fill-opacity="0.18" stroke="#000" stroke-width="1"/>
  <path d="M1006.260427 135.792286 L979.988045 152.881155 L978.897741 146.953449 L957.585585 164.355617 L955.841099 154.871287 L936.491489 182.943326 L931.694154 156.861419 L912.725494 160.350391 L910.108765 146.123896 L929.077425 142.634925 L924.280089 116.553018 L952.352128 135.902628 L950.607642 126.418298 L976.717134 135.098037 L975.626831 129.170331 Z" fill="#888" fill-opacity="0.18" stroke="#000" stroke-width="1"/>
  <path d="M731.274964 162.966960 L700.196721 167.017931 L701.776301 161.201456 L675.035323 167.679385 L677.562650 158.373024 L647.978430 175.320611 L654.928578 149.728117 L636.315856 144.673463 L640.106846 130.713921 L658.719568 135.768575 L665.669717 110.176081 L682.617303 139.760302 L685.144630 130.453940 L704.935459 149.568504 L706.515038 143.752028 Z" fill="#888" fill-opacity="0.18" stroke="#000" stroke-width="1"/>
  <path d="M219.542549 861.074180 L247.084049 846.116464 L247.702171 852.111827 L270.323756 836.449536 L271.312753 846.042118 L292.821716 819.588172 L295.541456 845.967773 L314.726620 843.989780 L316.210115 858.378653 L297.024951 860.356645 L299.744691 886.736246 L273.290745 865.227282 L274.279742 874.819864 L248.938417 864.102555 L249.556540 870.097918 Z" fill="#888" fill-opacity="0.18" stroke="#000" stroke-width="1"/>
  <path d="M636.649521 663.985471 L641.964478 633.098277 L647.054294 636.326316 L648.768855 608.865367 L656.912561 614.030229 L649.465454 580.758810 L671.860644 594.962182 L682.190369 578.674771 L694.405927 586.422065 L684.076202 602.709476 L706.471391 616.912848 L673.199971 624.359955 L681.343676 629.524817 L657.233925 642.782394 L662.323741 646.010433 Z" fill="#888" fill-opacity="0.18" stroke="#000" stroke-width="1"/>
  <path d="M839.941388 936.224669 L871.269744 935.329310 L869.111497 940.956781 L896.369525 937.209331 L892.916330 946.213285 L924.059202 932.336386 L914.562917 957.097260 L932.570825 964.003649 L927.391033 977.509580 L909.383125 970.603191 L899.886840 995.364065 L886.009941 964.221193 L882.556747 973.225147 L864.795004 952.211724 L862.636758 957.839195 Z" fill="#888" fill-opacity="0.18" stroke="#000" stroke-width="1"/>
</svg>
