<?xml version="1.0" encoding="UTF-8"?>
<svg xmlns="http://www.w3.org/2000/svg" width="1100" height="1100" viewBox="0 0 1100 1100">
  <rect x="0" y="0" width="1100" height="1100" fill="white"/>
  <text x="10.0" y="18.0" font-family="monospace" font-size="12">prefix=N155_job5048558_task155 run_id=155 L=11.0033902438 feas=0.000e+00 N=155</text>
  <rect x="40.000000" y="40.000000" width="1020.000000" height="1020.000000" fill="none" stroke="#000" stroke-width="2"/>
  <path d="M106.509791 959.340911 L123.191989 984.427662 L117.504829 985.533470 L134.439813 1005.849333 L125.340357 1007.618625 L152.512229 1025.944033 L127.488725 1030.809588 L131.027311 1049.008500 L117.378127 1051.662439 L113.839541 1033.463528 L88.816038 1038.329083 L107.141445 1011.157211 L98.041989 1012.926504 L106.130509 987.745086 L100.443349 988.850894 Z" fill="#888" fill-opacity="0.18" stroke="#000" stroke-width="1"/>
  <path d="M746.624593 42.262630 L738.243649 71.200505 L733.726640 67.572388 L729.151591 93.622280 L721.924378 87.817293 L725.479945 120.397795 L705.605106 104.434081 L693.995132 118.888508 L683.154312 110.181028 L694.764286 95.726600 L674.889448 79.762886 L707.469950 76.207319 L700.242736 70.402332 L724.692623 60.316154 L720.175614 56.688037 Z" fill="#888" fill-opacity="0.18" stroke="#000" stroke-width="1"/>
  <path d="M748.776211 755.572561 L730.664797 779.647809 L727.730686 774.652051 L714.202700 797.379161 L709.508122 789.385949 L701.261536 821.105423 L688.351448 799.124090 L672.365024 808.513244 L665.323158 796.523426 L681.309582 787.134272 L668.399494 765.152939 L700.118968 773.399525 L695.424390 765.406313 L721.862464 764.660536 L718.928353 759.664779 Z" fill="#888" fill-opacity="0.18" stroke="#000" stroke-width="1"/>
  <path d="M526.830059 434.096214 L556.838211 436.770480 L554.143951 441.899570 L580.587682 441.392611 L576.276867 449.599155 L607.570266 439.859834 L595.715523 462.427830 L612.128611 471.049461 L605.662388 483.359277 L589.249300 474.737646 L577.394557 497.305642 L567.655236 466.012243 L563.344420 474.218787 L548.755432 452.157750 L546.061172 457.286840 Z" fill="#888" fill-opacity="0.18" stroke="#000" stroke-width="1"/>
  <path d="M970.191642 143.121376 L957.857246 170.607801 L953.890306 166.385243 L945.727344 191.542627 L939.380240 184.786536 L938.357769 217.544523 L920.903235 198.965271 L907.391052 211.659477 L897.870397 201.525339 L911.382580 188.831133 L893.928047 170.251881 L926.686034 171.274352 L920.338931 164.518260 L945.956427 157.940129 L941.989488 153.717571 Z" fill="#888" fill-opacity="0.18" stroke="#000" stroke-width="1"/>
  <path d="M212.756082 292.190890 L209.490895 262.241275 L215.048902 263.876864 L209.363642 238.046538 L218.256454 240.663481 L202.566781 211.889094 L227.022014 219.085686 L232.255900 201.300062 L245.595118 205.225476 L240.361232 223.011100 L264.816465 230.207693 L236.042078 245.897366 L244.934890 248.514309 L226.164917 267.148043 L231.722925 268.783632 Z" fill="#888" fill-opacity="0.18" stroke="#000" stroke-width="1"/>
  <path d="M626.885696 1055.370473 L606.824298 1032.894238 L612.297994 1030.995486 L592.660858 1013.277957 L601.418771 1010.239955 L571.928984 995.940178 L596.013244 987.585672 L589.937240 970.069846 L603.074109 965.512843 L609.150113 983.028669 L633.234374 974.674163 L618.934597 1004.163951 L627.692510 1001.125948 L623.245385 1027.197984 L628.719080 1025.299232 Z" fill="#888" fill-opacity="0.18" stroke="#000" stroke-width="1"/>
  <path d="M132.281057 107.132500 L109.437893 126.775074 L107.640629 121.267221 L89.563200 140.573555 L86.687577 131.760990 L71.845224 160.981458 L63.937261 136.746907 L46.312133 142.498153 L41.998698 129.279307 L59.623827 123.528061 L51.715864 99.293509 L80.936331 114.135862 L78.060708 105.323298 L104.046100 110.251516 L102.248836 104.743664 Z" fill="#888" fill-opacity="0.18" stroke="#000" stroke-width="1"/>
  <path d="M199.895605 985.753109 L229.260025 992.488959 L225.892388 997.203365 L252.158811 1000.302224 L246.770591 1007.845272 L279.098762 1002.458203 L264.281156 1023.201585 L279.367253 1033.978026 L271.284922 1045.292598 L256.198826 1034.516158 L241.381220 1055.259540 L235.994150 1022.931369 L230.605930 1030.474417 L219.157112 1006.632175 L215.789474 1011.346580 Z" fill="#888" fill-opacity="0.18" stroke="#000" stroke-width="1"/>
  <path d="M264.531943 674.270394 L281.166838 649.152250 L284.395288 653.963041 L296.535860 630.465500 L301.701381 638.162765 L308.030742 606.005800 L322.235924 627.173280 L337.630454 616.842238 L345.378735 628.388136 L329.984205 638.719177 L344.189387 659.886657 L312.032422 653.557295 L317.197943 661.254560 L290.852189 663.584622 L294.080639 668.395413 Z" fill="#888" fill-opacity="0.18" stroke="#000" stroke-width="1"/>
  <path d="M701.235271 275.758259 L715.316255 249.124319 L719.002680 253.593868 L728.770740 229.015159 L734.669020 236.166437 L737.801514 203.542540 L754.021786 223.208555 L768.324343 211.411994 L777.171763 222.138911 L762.869207 233.935472 L779.089479 253.601487 L746.465582 250.468993 L752.363862 257.620272 L726.375531 262.532966 L730.061956 267.002515 Z" fill="#888" fill-opacity="0.18" stroke="#000" stroke-width="1"/>
  <path d="M906.335167 786.726702 L902.495300 816.608072 L897.474929 813.716278 L896.952571 840.159710 L888.919977 835.532840 L897.434288 867.181500 L875.344654 854.457608 L866.090914 870.522796 L854.042023 863.582491 L863.295762 847.517303 L841.206128 834.793411 L872.854788 826.279100 L864.822194 821.652230 L887.434186 807.932691 L882.413815 805.040897 Z" fill="#888" fill-opacity="0.18" stroke="#000" stroke-width="1"/>
  <path d="M246.891221 346.109775 L269.389562 366.146379 L264.168690 368.658170 L285.701772 384.015718 L277.348377 388.034584 L308.279029 398.870909 L285.307192 409.922789 L293.344923 426.629580 L280.814830 432.657878 L272.777099 415.951087 L249.805261 427.002967 L260.641586 396.072315 L252.288191 400.091180 L253.726945 373.681752 L248.506073 376.193543 Z" fill="#888" fill-opacity="0.18" stroke="#000" stroke-width="1"/>
  <path d="M312.733955 673.030143 L342.845296 674.003791 L340.445289 679.276984 L366.818077 677.275987 L362.978066 685.713096 L393.670866 674.220352 L383.110835 697.422402 L399.985053 705.102424 L394.225036 717.758088 L377.350818 710.078065 L366.790787 733.280115 L355.298043 702.587314 L351.458032 711.024423 L335.645275 689.823370 L333.245268 695.096564 Z" fill="#888" fill-opacity="0.18" stroke="#000" stroke-width="1"/>
  <path d="M166.211468 713.893108 L148.941278 689.207457 L154.600727 687.967605 L137.190528 668.057484 L146.245647 666.073720 L118.648440 648.395333 L143.550016 642.939982 L139.582488 624.829744 L153.165166 621.854098 L157.132694 639.964336 L182.034270 634.508984 L164.355884 662.106191 L173.411003 660.122427 L165.919625 685.487899 L171.579074 684.248047 Z" fill="#888" fill-opacity="0.18" stroke="#000" stroke-width="1"/>
  <path d="M872.590544 942.140459 L885.419533 969.399547 L879.631752 969.660678 L893.409392 992.237315 L884.148942 992.655124 L908.344589 1014.761727 L882.878352 1015.910701 L883.713970 1034.431600 L869.823295 1035.058314 L868.987677 1016.537414 L843.521440 1017.686389 L865.628043 993.490742 L856.367593 993.908551 L868.056189 970.182939 L862.268408 970.444070 Z" fill="#888" fill-opacity="0.18" stroke="#000" stroke-width="1"/>
  <path d="M56.245021 606.510667 L79.500445 625.663372 L74.380481 628.374933 L96.490649 642.889354 L88.298706 647.227853 L119.624809 656.861463 L97.096967 668.792334 L105.773964 685.176219 L93.486051 691.683967 L84.809053 675.300082 L62.281211 687.230953 L71.914821 655.904850 L63.722878 660.243349 L64.140553 633.798057 L59.020589 636.509618 Z" fill="#888" fill-opacity="0.18" stroke="#000" stroke-width="1"/>
  <path d="M597.652463 630.125784 L585.873185 602.396928 L591.666716 602.356882 L578.760768 579.270860 L588.030416 579.206788 L564.696113 556.192846 L590.187648 556.016647 L590.059503 537.477350 L603.963976 537.381241 L604.092121 555.920539 L629.583655 555.744340 L606.569714 579.078643 L615.839363 579.014570 L603.253777 602.276792 L609.047307 602.236747 Z" fill="#888" fill-opacity="0.18" stroke="#000" stroke-width="1"/>
  <path d="M830.431112 729.086213 L810.326161 706.648927 L815.796164 704.739564 L796.124703 687.060153 L804.876708 684.005171 L775.359242 669.762615 L799.427254 661.361414 L793.317290 643.857406 L806.445297 639.274933 L812.555261 656.778942 L836.623273 648.377742 L822.380716 677.895207 L831.132721 674.840225 L826.736169 700.920836 L832.206172 699.011473 Z" fill="#888" fill-opacity="0.18" stroke="#000" stroke-width="1"/>
  <path d="M742.757072 612.770275 L756.375235 639.643802 L750.597526 640.073541 L765.027440 662.238953 L755.783105 662.926535 L780.612896 684.318418 L755.190975 686.209267 L756.566138 704.697937 L742.699636 705.729309 L741.324473 687.240639 L715.902552 689.131488 L737.294436 664.301698 L728.050101 664.989279 L739.042108 640.933017 L733.264398 641.362756 Z" fill="#888" fill-opacity="0.18" stroke="#000" stroke-width="1"/>
  <path d="M491.410558 635.903563 L515.376968 617.648371 L516.844871 623.252999 L536.033998 605.051204 L538.382643 614.018610 L554.929545 585.728484 L561.388318 610.388849 L579.323129 605.691559 L582.846097 619.142667 L564.911286 623.839957 L571.370060 648.500322 L543.079933 631.953421 L545.428578 640.920826 L519.780678 634.462256 L521.248581 640.066885 Z" fill="#888" fill-opacity="0.18" stroke="#000" stroke-width="1"/>
  <path d="M802.707615 867.378467 L779.099790 848.661859 L784.168405 845.855486 L761.791956 831.755045 L769.901741 827.264847 L738.401783 818.215879 L760.703692 805.867834 L751.723296 789.648264 L763.887974 782.912967 L772.868370 799.132537 L795.170279 786.784492 L786.121311 818.284451 L794.231097 813.794253 L794.305637 840.242738 L799.374253 837.436364 Z" fill="#888" fill-opacity="0.18" stroke="#000" stroke-width="1"/>
  <path d="M629.260345 196.922996 L602.045601 209.845788 L601.764539 204.058940 L579.235485 217.914252 L578.785786 208.655296 L556.762644 232.926934 L555.525971 207.464805 L537.008059 208.364203 L536.333511 194.475769 L554.851423 193.576371 L553.614751 168.114242 L577.886388 190.137384 L577.436689 180.878428 L601.202415 192.485245 L600.921353 186.698398 Z" fill="#888" fill-opacity="0.18" stroke="#000" stroke-width="1"/>
  <path d="M451.179592 894.122982 L430.849794 871.889221 L436.300299 869.924890 L416.451864 852.444399 L425.172672 849.301469 L395.513329 835.356774 L419.495550 826.713717 L413.209691 809.272102 L426.290902 804.557707 L432.576762 821.999323 L456.558983 813.356267 L442.614288 843.015610 L451.335095 839.872680 L447.201309 865.996228 L452.651813 864.031897 Z" fill="#888" fill-opacity="0.18" stroke="#000" stroke-width="1"/>
  <path d="M877.405665 894.064431 L904.255486 907.729274 L899.843840 911.484801 L924.571569 920.869223 L917.512936 926.878067 L950.181627 929.502540 L930.770387 946.026859 L942.788074 960.144125 L932.200125 969.157390 L920.182438 955.040124 L900.771198 971.564444 L903.395671 938.895754 L896.337038 944.904597 L891.020550 918.995856 L886.608904 922.751383 Z" fill="#888" fill-opacity="0.18" stroke="#000" stroke-width="1"/>
  <path d="M176.612729 63.239238 L182.372204 92.810665 L176.696842 91.645821 L184.523264 116.909927 L175.442684 115.046177 L193.484759 142.407002 L168.513164 137.281689 L164.785664 155.442849 L151.164794 152.647224 L154.892294 134.486064 L129.920700 129.360752 L157.281524 111.318677 L148.200945 109.454927 L165.346117 89.316134 L159.670754 88.151290 Z" fill="#888" fill-opacity="0.18" stroke="#000" stroke-width="1"/>
  <path d="M979.329944 441.468425 L982.712689 411.531861 L987.776669 414.346591 L987.894833 387.898265 L995.997202 392.401833 L987.000202 360.886992 L1009.281714 373.271805 L1018.288851 357.067069 L1030.442403 363.822421 L1021.435266 380.027157 L1043.716778 392.411970 L1012.201938 401.408969 L1020.304306 405.912538 L997.904629 419.976051 L1002.968609 422.790782 Z" fill="#888" fill-opacity="0.18" stroke="#000" stroke-width="1"/>
  <path d="M665.255750 393.070013 L673.972927 364.231642 L678.447403 367.912086 L683.325331 341.917206 L690.484492 347.805916 L687.308363 315.186238 L706.996057 331.380190 L718.773476 317.061867 L729.512219 325.894932 L717.734799 340.213255 L737.422493 356.407207 L704.802815 359.583336 L711.961976 365.472045 L687.396355 375.272973 L691.870831 378.953416 Z" fill="#888" fill-opacity="0.18" stroke="#000" stroke-width="1"/>
  <path d="M902.635545 579.086358 L876.653259 594.336332 L875.867930 588.596135 L854.634868 604.365885 L853.378341 595.181571 L833.558872 621.283674 L830.103423 596.026809 L811.734794 598.539863 L809.850003 584.763391 L828.218633 582.250337 L824.763184 556.993472 L850.865287 576.812941 L849.608760 567.628627 L874.297271 577.115742 L873.511942 571.375545 Z" fill="#888" fill-opacity="0.18" stroke="#000" stroke-width="1"/>
  <path d="M58.437493 265.897818 L79.761280 287.180134 L74.406151 289.391285 L95.032042 305.947267 L86.463836 309.485110 L116.728959 322.061019 L93.166392 331.790087 L100.242078 348.926500 L87.389768 354.233265 L80.314082 337.096852 L56.751515 346.825920 L69.327423 316.560796 L60.759217 320.098640 L63.695893 293.813589 L58.340764 296.024741 Z" fill="#888" fill-opacity="0.18" stroke="#000" stroke-width="1"/>
  <path d="M556.967607 700.127341 L584.867207 688.758385 L584.821785 694.551875 L608.095677 681.987883 L608.023002 691.257468 L631.378653 668.265192 L631.178797 693.756552 L649.717967 693.901902 L649.608955 707.806280 L631.069784 707.660930 L630.869928 733.152290 L607.877652 709.796639 L607.804977 719.066224 L584.730942 706.138857 L584.685520 711.932348 Z" fill="#888" fill-opacity="0.18" stroke="#000" stroke-width="1"/>
  <path d="M225.012322 1052.599456 L195.000816 1049.963101 L197.688594 1044.830611 L171.245524 1045.370977 L175.545969 1037.158994 L144.264899 1046.937840 L156.091122 1024.354886 L139.667155 1015.753997 L146.117822 1003.436022 L162.541789 1012.036911 L174.368012 989.453957 L184.146858 1020.735027 L188.447303 1012.523044 L203.064150 1034.565632 L205.751928 1029.433143 Z" fill="#888" fill-opacity="0.18" stroke="#000" stroke-width="1"/>
  <path d="M755.954283 182.346205 L731.316368 199.684429 L730.060908 194.028422 L710.198891 211.493479 L708.190155 202.443867 L690.587966 230.089737 L685.063941 205.203305 L666.964718 209.220777 L663.951613 195.646360 L682.050837 191.628887 L676.526812 166.742455 L704.172682 184.344643 L702.163946 175.295032 L727.549988 182.716407 L726.294528 177.060400 Z" fill="#888" fill-opacity="0.18" stroke="#000" stroke-width="1"/>
  <path d="M384.681538 810.098537 L382.701653 780.036586 L388.184536 781.908644 L383.610428 755.858587 L392.383040 758.853881 L377.939745 729.434118 L402.064426 737.671175 L408.055013 720.125952 L421.213930 724.618892 L415.223344 742.164115 L439.348025 750.401172 L409.928263 764.844467 L418.700874 767.839761 L399.150300 785.652761 L404.633182 787.524819 Z" fill="#888" fill-opacity="0.18" stroke="#000" stroke-width="1"/>
  <path d="M789.663654 921.729019 L813.797940 939.761686 L808.811794 942.712102 L831.582977 956.165769 L823.605144 960.886434 L855.351389 969.029354 L833.412348 982.011183 L842.853678 997.966848 L830.886929 1005.047846 L821.445599 989.092180 L799.506559 1002.074009 L807.649478 970.327764 L799.671646 975.048429 L798.839503 948.612933 L793.853358 951.563348 Z" fill="#888" fill-opacity="0.18" stroke="#000" stroke-width="1"/>
  <path d="M829.326925 276.079226 L853.219832 294.430516 L848.194980 297.314516 L870.785656 311.069125 L862.745893 315.683526 L894.381304 324.246933 L872.271954 336.936535 L881.500755 353.016062 L869.441109 359.937664 L860.212308 343.858136 L838.102958 356.547738 L846.666365 324.912327 L838.626602 329.526728 L838.145275 303.082517 L833.120423 305.966518 Z" fill="#888" fill-opacity="0.18" stroke="#000" stroke-width="1"/>
  <path d="M543.447596 1002.828314 L528.755106 976.526763 L534.510743 975.864010 L519.197328 954.299519 L528.406347 953.239114 L502.732786 932.867579 L528.057589 929.951465 L525.936778 911.533426 L539.750307 909.942818 L541.871117 928.360857 L567.195920 925.444742 L546.824386 951.118303 L556.033405 950.057898 L546.022017 974.538503 L551.777654 973.875750 Z" fill="#888" fill-opacity="0.18" stroke="#000" stroke-width="1"/>
  <path d="M249.290784 124.180375 L273.094529 142.647171 L268.055768 145.506801 L290.579561 159.370662 L282.517543 163.946070 L314.111108 172.662597 L291.940557 185.244968 L301.091371 201.369005 L288.998344 208.232116 L279.847529 192.108079 L257.676978 204.690449 L266.393506 173.096884 L258.331487 177.672292 L257.978244 151.226060 L252.939483 154.085690 Z" fill="#888" fill-opacity="0.18" stroke="#000" stroke-width="1"/>
  <path d="M57.242307 859.000083 L77.359593 881.426310 L71.890641 883.338682 L91.571820 901.007273 L82.821497 904.067067 L112.346790 918.293390 L88.283401 926.707823 L94.402989 944.208469 L81.277504 948.798160 L75.157916 931.297514 L51.094528 939.711947 L65.320851 910.186655 L56.570528 913.246449 L60.952737 887.163424 L55.483785 889.075795 Z" fill="#888" fill-opacity="0.18" stroke="#000" stroke-width="1"/>
  <path d="M80.732677 868.602617 L110.858859 868.370201 L108.671848 873.735234 L134.943405 870.680202 L131.444188 879.264256 L161.652365 866.552164 L152.029518 890.158311 L169.197626 897.156745 L163.948800 910.032825 L146.780693 903.034392 L137.157847 926.640539 L124.445755 896.432363 L120.946538 905.016417 L104.297827 884.465301 L102.110817 889.830335 Z" fill="#888" fill-opacity="0.18" stroke="#000" stroke-width="1"/>
  <path d="M224.629799 684.494936 L254.046626 677.991775 L253.025233 683.694700 L278.083999 675.233839 L276.449769 684.358519 L303.347044 665.632393 L298.852912 690.725263 L317.102273 693.993722 L314.650928 707.680743 L296.401568 704.412283 L291.907436 729.505154 L273.181310 702.607879 L271.547080 711.732559 L250.982446 695.100550 L249.961052 700.803475 Z" fill="#888" fill-opacity="0.18" stroke="#000" stroke-width="1"/>
  <path d="M113.517136 280.012551 L139.345703 264.503652 L140.188365 270.235713 L161.262752 254.254532 L162.611011 263.425829 L182.168606 237.126938 L185.876319 262.348005 L204.218913 259.651487 L206.241302 273.408433 L187.898708 276.104951 L191.606420 301.326018 L165.307529 281.768423 L166.655789 290.939720 L141.873689 281.699834 L142.716351 287.431895 Z" fill="#888" fill-opacity="0.18" stroke="#000" stroke-width="1"/>
  <path d="M421.839306 964.146958 L441.333633 987.116765 L435.814265 988.878347 L455.003201 1007.080343 L446.172211 1009.898873 L475.296011 1024.930022 L451.010788 1032.680980 L456.647848 1050.342960 L443.401363 1054.570755 L437.764303 1036.908775 L413.479081 1044.659733 L428.510231 1015.535933 L419.679241 1018.354463 L424.775527 992.401509 L419.256158 994.163090 Z" fill="#888" fill-opacity="0.18" stroke="#000" stroke-width="1"/>
  <path d="M916.177592 357.809486 L898.008594 381.841306 L895.086451 376.838538 L881.504096 399.533197 L876.828667 391.528770 L868.506169 423.228410 L855.648741 401.216234 L839.639885 410.567091 L832.626743 398.560449 L848.635598 389.209592 L835.778170 367.197416 L867.477810 375.519914 L862.802382 367.515486 L889.242166 366.833003 L886.320023 361.830236 Z" fill="#888" fill-opacity="0.18" stroke="#000" stroke-width="1"/>
  <path d="M652.211379 532.602253 L675.120296 513.036405 L676.899077 518.550255 L695.041157 499.304662 L697.887207 508.126822 L712.827482 478.956299 L720.654118 503.217238 L738.298437 497.525139 L742.567511 510.758378 L724.923192 516.450477 L732.749828 540.711416 L703.579306 525.771141 L706.425355 534.593300 L680.456639 529.577954 L682.235419 535.091804 Z" fill="#888" fill-opacity="0.18" stroke="#000" stroke-width="1"/>
  <path d="M904.188623 382.857732 L919.690682 357.025058 L923.129762 361.687604 L934.213968 337.673685 L939.716495 345.133758 L944.610358 312.727257 L959.742309 333.242457 L974.662455 322.237402 L982.916246 333.427511 L967.996101 344.432566 L983.128051 364.947766 L950.721551 360.053903 L956.224078 367.513976 L930.007921 371.012695 L933.447001 375.675240 Z" fill="#888" fill-opacity="0.18" stroke="#000" stroke-width="1"/>
  <path d="M207.321693 507.843450 L202.138299 478.165626 L207.789939 479.440602 L200.456235 454.029094 L209.498859 456.069056 L191.992203 428.362591 L216.859420 433.972486 L220.939343 415.887238 L234.503279 418.947180 L230.423356 437.032429 L255.290572 442.642324 L227.584107 460.148979 L236.626731 462.188941 L219.093219 481.990554 L224.744859 483.265530 Z" fill="#888" fill-opacity="0.18" stroke="#000" stroke-width="1"/>
  <path d="M912.090571 974.550224 L942.214079 975.014015 L939.903679 980.327080 L966.238816 977.879938 L962.542176 986.380841 L993.036032 974.370184 L982.870273 997.747667 L999.872078 1005.140947 L994.327118 1017.892301 L977.325313 1010.499021 L967.159553 1033.876503 L955.148896 1003.382647 L951.452256 1011.883549 L935.282879 990.953208 L932.972479 996.266272 Z" fill="#888" fill-opacity="0.18" stroke="#000" stroke-width="1"/>
  <path d="M66.239396 357.198583 L95.908220 362.433248 L92.784549 367.312724 L119.174527 369.072558 L114.176655 376.879719 L146.189239 369.856497 L132.445090 391.326190 L148.059412 401.321935 L140.562604 413.032677 L124.948281 403.036932 L111.204132 424.506626 L104.180910 392.494042 L99.183038 400.301203 L86.537209 377.071675 L83.413539 381.951151 Z" fill="#888" fill-opacity="0.18" stroke="#000" stroke-width="1"/>
  <path d="M624.126448 101.280662 L638.747389 127.622055 L632.989971 128.269160 L648.244711 149.875197 L639.032843 150.910566 L664.650933 171.351814 L639.318297 174.199077 L641.389034 192.622813 L627.571233 194.175866 L625.500496 175.752130 L600.167859 178.599394 L620.609107 152.981303 L611.397240 154.016671 L621.475137 129.563371 L615.717719 130.210476 Z" fill="#888" fill-opacity="0.18" stroke="#000" stroke-width="1"/>
  <path d="M991.617103 799.087150 L961.654651 802.232354 L963.312488 796.680942 L937.459598 802.262698 L940.112138 793.380439 L911.275141 808.954737 L918.569626 784.528525 L900.805107 779.223445 L904.783917 765.900056 L922.548435 771.205136 L929.842920 746.778924 L945.417218 775.615921 L948.069758 766.733662 L966.628163 785.578118 L968.286001 780.026706 Z" fill="#888" fill-opacity="0.18" stroke="#000" stroke-width="1"/>
  <path d="M413.121972 214.234724 L400.677473 186.797973 L406.468353 186.618236 L393.009467 163.850137 L402.274876 163.562558 L378.392406 141.117986 L403.872279 140.327142 L403.297119 121.796325 L417.195232 121.364955 L417.770391 139.895772 L443.250264 139.104928 L420.805693 162.987398 L430.071101 162.699819 L418.050114 186.258762 L423.840994 186.079024 Z" fill="#888" fill-opacity="0.18" stroke="#000" stroke-width="1"/>
  <path d="M974.639691 601.781070 L953.559646 623.304837 L951.298034 617.970823 L934.937523 638.752103 L931.318944 630.217680 L919.029335 660.600187 L909.078241 637.130523 L892.009395 644.367682 L886.581526 631.566047 L903.650372 624.328888 L893.699279 600.859225 L924.081785 613.148834 L920.463205 604.614411 L946.774810 607.302794 L944.513198 601.968780 Z" fill="#888" fill-opacity="0.18" stroke="#000" stroke-width="1"/>
  <path d="M436.694049 711.148866 L428.189629 682.247038 L433.949156 682.875086 L423.790392 658.455270 L433.005635 659.460148 L412.479722 633.909844 L437.821642 636.673259 L439.831398 618.242771 L453.654263 619.750089 L451.644507 638.180576 L476.986427 640.943991 L451.436122 661.469904 L460.651366 662.474782 L445.468211 684.131184 L451.227738 684.759233 Z" fill="#888" fill-opacity="0.18" stroke="#000" stroke-width="1"/>
  <path d="M604.752343 268.541045 L575.244763 274.619168 L576.348319 268.931571 L551.170106 277.030058 L552.935797 267.929903 L525.771181 286.266065 L530.626830 261.240637 L512.426519 257.709256 L515.075055 244.059023 L533.275366 247.590404 L538.131015 222.564976 L556.467178 249.729591 L558.232868 240.629436 L578.555433 257.556376 L579.658989 251.868779 Z" fill="#888" fill-opacity="0.18" stroke="#000" stroke-width="1"/>
  <path d="M365.143891 871.365251 L339.974775 854.807581 L344.775627 851.564370 L321.240909 839.496024 L328.922273 834.306887 L296.746020 828.076321 L317.869771 813.806193 L307.491496 798.443466 L319.013542 790.659760 L329.391816 806.022487 L350.515567 791.752360 L344.285000 823.928613 L351.966364 818.739475 L354.377332 845.077949 L359.178184 841.834738 Z" fill="#888" fill-opacity="0.18" stroke="#000" stroke-width="1"/>
  <path d="M594.380607 424.973887 L564.283603 426.319708 L566.270810 420.877501 L540.130130 424.901528 L543.309661 416.193998 L513.592009 430.013996 L522.335719 406.068289 L504.920659 399.709227 L509.689955 386.647932 L527.105015 393.006994 L535.848724 369.061286 L549.668722 398.778938 L552.848253 390.071408 L570.245223 409.993089 L572.232430 404.550883 Z" fill="#888" fill-opacity="0.18" stroke="#000" stroke-width="1"/>
  <path d="M875.243893 307.837448 L898.110804 288.222525 L899.901404 293.732548 L918.002177 274.448099 L920.867136 283.264136 L935.744830 254.061646 L943.623467 278.305747 L961.255541 272.575828 L965.552980 285.799883 L947.920906 291.529802 L955.799544 315.773903 L926.597054 300.896209 L929.462014 309.712246 L903.482603 304.752594 L905.273202 310.262616 Z" fill="#888" fill-opacity="0.18" stroke="#000" stroke-width="1"/>
  <path d="M1006.048375 590.298541 L976.023004 587.825083 L978.682891 582.678083 L952.243143 583.361934 L956.498962 575.126735 L925.271418 585.075185 L936.974920 562.428388 L920.504523 553.916750 L926.888251 541.563952 L943.358649 550.075590 L955.062151 527.428793 L965.010600 558.656338 L969.266419 550.421139 L984.002665 572.384085 L986.662552 567.237086 Z" fill="#888" fill-opacity="0.18" stroke="#000" stroke-width="1"/>
  <path d="M93.336721 294.689751 L91.654476 264.609676 L97.118561 266.535911 L92.802511 240.441857 L101.545046 243.523831 L87.393644 213.962556 L111.435617 222.437986 L117.599566 204.952915 L130.713369 209.575877 L124.549420 227.060948 L148.591393 235.536379 L119.030117 249.687781 L127.772653 252.769755 L108.046730 270.388379 L113.510815 272.314613 Z" fill="#888" fill-opacity="0.18" stroke="#000" stroke-width="1"/>
  <path d="M1052.333064 140.315094 L1032.795465 163.248106 L1030.169605 158.083665 L1015.288731 179.948877 L1011.087354 171.685771 L1000.933029 202.846978 L989.379244 180.123435 L972.853031 188.526188 L966.550966 176.131528 L983.077179 167.728775 L971.523394 145.005232 L1002.684602 155.159558 L998.483225 146.896451 L1024.917884 147.754782 L1022.292024 142.590340 Z" fill="#888" fill-opacity="0.18" stroke="#000" stroke-width="1"/>
  <path d="M714.237568 603.597604 L736.933649 583.785265 L738.771928 589.279565 L756.704913 569.838989 L759.646159 578.629869 L774.270242 549.299554 L782.358670 573.474472 L799.940429 567.591979 L804.352299 580.778299 L786.770539 586.660792 L794.858967 610.835711 L765.528652 596.211628 L768.469899 605.002508 L742.448486 600.268164 L744.286765 605.762464 Z" fill="#888" fill-opacity="0.18" stroke="#000" stroke-width="1"/>
  <path d="M1049.150740 947.897823 L1019.461521 953.015548 L1020.748997 947.366742 L995.321327 954.644209 L997.381289 945.606120 L969.636162 963.051437 L975.301057 938.196693 L957.224879 934.076769 L960.314823 920.519635 L978.391000 924.639560 L984.055896 899.784815 L1001.501213 927.529943 L1003.561175 918.491854 L1023.323950 936.069131 L1024.611426 930.420326 Z" fill="#888" fill-opacity="0.18" stroke="#000" stroke-width="1"/>
  <path d="M274.017846 629.322172 L261.094648 602.107621 L266.881491 601.826472 L253.025843 579.297626 L262.284792 578.847788 L238.012826 556.825008 L263.474937 555.587956 L262.575262 537.070057 L276.463686 536.395302 L277.363361 554.913200 L302.825471 553.676148 L280.802691 577.948114 L290.061640 577.498277 L278.455178 601.264176 L284.242021 600.983028 Z" fill="#888" fill-opacity="0.18" stroke="#000" stroke-width="1"/>
  <path d="M815.367627 151.883287 L793.750796 130.898685 L799.074752 128.613493 L778.221284 112.345094 L786.739612 108.688788 L756.303025 96.533734 L779.728427 86.478890 L772.415814 69.442234 L785.193307 63.957774 L792.505920 80.994430 L815.931323 70.939587 L803.776268 101.376174 L812.294597 97.719868 L809.722662 124.043110 L815.046617 121.757918 Z" fill="#888" fill-opacity="0.18" stroke="#000" stroke-width="1"/>
  <path d="M767.403648 860.127534 L797.168761 864.783594 L794.140680 869.722959 L820.559918 870.968681 L815.714988 878.871665 L847.584771 871.226531 L834.261214 892.959735 L850.067181 902.649595 L842.799786 914.504071 L826.993819 904.814211 L813.670262 926.547416 L806.025128 894.677632 L801.180198 902.580616 L788.084518 879.601688 L785.056437 884.541053 Z" fill="#888" fill-opacity="0.18" stroke="#000" stroke-width="1"/>
  <path d="M807.317455 857.937153 L811.412785 828.089722 L816.408236 831.024354 L817.156771 804.586358 L825.149493 809.281769 L816.906214 777.561436 L838.886201 790.473816 L848.277023 774.488371 L860.266106 781.531488 L850.875284 797.516932 L872.855271 810.429313 L841.134938 818.672591 L849.127660 823.368002 L826.399139 836.893618 L831.394591 839.828250 Z" fill="#888" fill-opacity="0.18" stroke="#000" stroke-width="1"/>
  <path d="M796.731431 181.076281 L823.513065 167.278276 L823.981525 173.052975 L846.049708 158.474798 L846.799243 167.714316 L868.024199 142.741682 L870.085422 168.150356 L888.564458 166.651285 L889.688761 180.510562 L871.209726 182.009633 L873.270949 207.418307 L848.298315 186.193352 L849.047851 195.432870 L824.918444 184.602372 L825.386904 190.377071 Z" fill="#888" fill-opacity="0.18" stroke="#000" stroke-width="1"/>
  <path d="M706.557472 645.091358 L680.232206 659.741314 L679.578757 653.984613 L657.989541 669.263150 L656.944023 660.052428 L636.531015 685.693027 L633.655840 660.363543 L615.234398 662.454579 L613.666121 648.638497 L632.087563 646.547461 L629.212389 621.217978 L654.852987 641.630986 L653.807469 632.420265 L678.271859 642.471211 L677.618411 636.714511 Z" fill="#888" fill-opacity="0.18" stroke="#000" stroke-width="1"/>
  <path d="M609.337641 505.696876 L626.231285 480.752023 L629.409835 485.595928 L641.792644 462.225135 L646.878325 469.975383 L653.539743 437.885561 L667.525365 459.198743 L683.025862 449.027381 L690.654383 460.652754 L675.153887 470.824115 L689.139509 492.137297 L657.049687 485.475879 L662.135367 493.226127 L635.766936 495.283738 L638.945487 500.127643 Z" fill="#888" fill-opacity="0.18" stroke="#000" stroke-width="1"/>
  <path d="M1050.550805 252.928008 L1052.392743 282.998726 L1046.918508 281.101532 L1051.373049 307.172301 L1042.614272 304.136790 L1056.922437 333.622509 L1032.835801 325.274854 L1026.764779 342.792407 L1013.626614 338.239141 L1019.697636 320.721588 L995.611000 312.373933 L1025.096719 298.065768 L1016.337942 295.030257 L1035.970037 277.307143 L1030.495802 275.409949 Z" fill="#888" fill-opacity="0.18" stroke="#000" stroke-width="1"/>
  <path d="M829.681273 741.474074 L800.856918 750.237485 L801.433262 744.472554 L777.105582 754.850026 L778.027732 745.626137 L752.662633 766.380485 L755.198546 741.014789 L736.750768 739.170489 L738.133993 725.334655 L756.581772 727.178955 L759.117685 701.813260 L779.872032 727.178358 L780.794183 717.954469 L802.585949 732.942692 L803.162293 727.177762 Z" fill="#888" fill-opacity="0.18" stroke="#000" stroke-width="1"/>
  <path d="M448.578877 771.371716 L473.761098 787.909449 L468.962815 791.156461 L492.507083 803.206165 L484.829831 808.401384 L517.011008 814.606467 L495.898565 828.893318 L506.289002 844.247823 L494.773124 852.040650 L484.382687 836.686146 L463.270244 850.972997 L469.475327 818.791821 L461.798075 823.987039 L459.366250 797.650484 L454.567968 800.897495 Z" fill="#888" fill-opacity="0.18" stroke="#000" stroke-width="1"/>
  <path d="M893.984623 459.553866 L923.552121 453.774254 L922.391142 459.450409 L947.649912 451.606783 L945.792347 460.688630 L973.140878 442.627926 L968.032573 467.603006 L986.196267 471.318137 L983.409919 484.940907 L965.246225 481.225776 L960.137919 506.200855 L942.077216 478.852324 L940.219650 487.934171 L920.069185 470.802717 L918.908207 476.478872 Z" fill="#888" fill-opacity="0.18" stroke="#000" stroke-width="1"/>
  <path d="M699.098711 470.222550 L694.875653 440.392923 L700.483209 441.849601 L693.973297 416.214684 L702.945387 418.545369 L686.341874 390.288431 L711.015122 396.697814 L715.676492 378.753634 L729.134627 382.249661 L724.473257 400.193841 L749.146505 406.603225 L720.889568 423.206738 L729.861658 425.537423 L711.698322 444.762957 L717.305878 446.219635 Z" fill="#888" fill-opacity="0.18" stroke="#000" stroke-width="1"/>
  <path d="M137.699226 843.989334 L167.004602 837.001076 L166.077564 842.720097 L190.993132 833.846403 L189.509871 842.996837 L216.094107 823.828906 L212.015139 848.992597 L230.316006 851.959120 L228.091114 865.684770 L209.790247 862.718248 L205.711279 887.881939 L186.543349 861.297703 L185.060087 870.448137 L164.223488 854.158138 L163.296450 859.877159 Z" fill="#888" fill-opacity="0.18" stroke="#000" stroke-width="1"/>
  <path d="M112.998141 942.282128 L142.951604 945.511822 L140.162793 950.590122 L166.611378 950.573107 L162.149280 958.698387 L193.617725 949.540432 L181.346955 971.884952 L197.597515 980.809148 L190.904368 992.997068 L174.653808 984.072872 L162.383039 1006.417392 L153.225084 974.948947 L148.762986 983.074227 L134.585170 960.746722 L131.796359 965.825022 Z" fill="#888" fill-opacity="0.18" stroke="#000" stroke-width="1"/>
  <path d="M356.126989 638.468879 L337.102366 615.108558 L342.656315 613.459241 L323.840357 594.871943 L332.726675 592.233035 L303.913608 576.614509 L328.350984 569.357511 L323.073168 551.584874 L336.402646 547.626512 L341.680462 565.399149 L366.117838 558.142151 L350.499312 586.955218 L359.385631 584.316310 L353.764214 610.160605 L359.318163 608.511288 Z" fill="#888" fill-opacity="0.18" stroke="#000" stroke-width="1"/>
  <path d="M350.905079 1059.310459 L329.783928 1037.827027 L335.159770 1035.666722 L314.691696 1018.916025 L323.293043 1015.459536 L293.148453 1002.597389 L316.802158 993.092045 L309.889181 975.889350 L322.791202 970.704616 L329.704180 987.907312 L353.357886 978.401968 L340.495738 1008.546558 L349.097086 1005.090070 L345.911455 1031.346111 L351.287297 1029.185805 Z" fill="#888" fill-opacity="0.18" stroke="#000" stroke-width="1"/>
  <path d="M315.520159 125.470379 L342.438636 138.999477 L338.046009 142.777232 L362.820807 152.036677 L355.792605 158.081085 L388.474130 160.540571 L369.146574 177.162693 L381.235389 191.219098 L370.693086 200.285709 L358.604270 186.229304 L339.276713 202.851426 L341.736200 170.169900 L334.707997 176.214308 L329.260756 150.332741 L324.868130 154.110496 Z" fill="#888" fill-opacity="0.18" stroke="#000" stroke-width="1"/>
  <path d="M255.165232 468.364702 L283.291589 479.160484 L279.294826 483.354824 L304.865064 490.114328 L298.470243 496.825271 L331.234654 496.034963 L313.648897 514.490058 L327.070784 527.279700 L317.478554 537.346115 L304.056666 524.556474 L286.470910 543.011569 L285.680602 510.247159 L279.285781 516.958102 L271.301300 491.743503 L267.304538 495.937843 Z" fill="#888" fill-opacity="0.18" stroke="#000" stroke-width="1"/>
  <path d="M593.794217 156.248378 L564.808135 164.461044 L565.494206 158.708140 L540.973233 168.620244 L542.070947 159.415597 L516.315045 179.682928 L519.333759 154.370150 L500.924466 152.174722 L502.571037 138.367752 L520.980330 140.563180 L523.999044 115.250402 L544.266375 141.006304 L545.364089 131.801658 L566.866349 147.202332 L567.552420 141.449428 Z" fill="#888" fill-opacity="0.18" stroke="#000" stroke-width="1"/>
  <path d="M837.373450 1039.548664 L807.971283 1046.117788 L808.979883 1040.412586 L783.940156 1048.929631 L785.553916 1039.801308 L758.698710 1058.587716 L763.136549 1033.484828 L744.879904 1030.257309 L747.300544 1016.564825 L765.557189 1019.792344 L769.995028 994.689457 L788.781436 1021.544663 L790.395195 1012.416340 L810.997082 1029.002183 L812.005682 1023.296981 Z" fill="#888" fill-opacity="0.18" stroke="#000" stroke-width="1"/>
  <path d="M367.414200 464.061709 L386.083451 487.707004 L380.505199 489.272160 L399.037975 508.141822 L390.112773 510.646071 L418.686401 526.698453 L394.142096 533.585138 L399.150595 551.435542 L385.762792 555.191916 L380.754293 537.341512 L356.209988 544.228198 L372.262369 515.654570 L363.337167 518.158819 L369.348697 492.402471 L363.770446 493.967627 Z" fill="#888" fill-opacity="0.18" stroke="#000" stroke-width="1"/>
  <path d="M450.654119 421.386790 L447.134246 451.307541 L442.083216 448.469638 L441.843872 474.917145 L433.762223 470.376501 L442.614733 501.932233 L420.390200 489.445461 L411.308911 505.608758 L399.186438 498.797791 L408.267727 482.634494 L386.043194 470.147722 L417.598926 461.295212 L409.517278 456.754568 L431.981155 442.793832 L426.930125 439.955930 Z" fill="#888" fill-opacity="0.18" stroke="#000" stroke-width="1"/>
  <path d="M472.170540 767.075699 L502.245116 768.853544 L499.705071 774.060729 L526.121908 772.765101 L522.057837 781.096596 L553.046754 770.428036 L541.870558 793.339649 L558.533549 801.467792 L552.437442 813.965035 L535.774451 805.836892 L524.598254 828.748505 L513.929694 797.759588 L509.865623 806.091083 L494.624982 784.475098 L492.084937 789.682283 Z" fill="#888" fill-opacity="0.18" stroke="#000" stroke-width="1"/>
  <path d="M254.593167 69.370081 L249.043942 98.981683 L244.197890 95.806406 L242.158097 122.176222 L234.404415 117.095779 L241.087515 149.181093 L219.764887 135.209875 L209.604002 150.717241 L197.973478 143.096577 L208.134363 127.589211 L186.811735 113.617994 L218.897049 106.934894 L211.143366 101.854451 L234.505787 89.455853 L229.659735 86.280576 Z" fill="#888" fill-opacity="0.18" stroke="#000" stroke-width="1"/>
  <path d="M773.535156 872.588113 L747.272175 887.349437 L746.594350 881.595555 L725.070039 896.965396 L723.985519 887.759185 L703.681294 913.486012 L700.698863 888.168933 L682.286442 890.337974 L680.659661 876.528659 L699.072082 874.359618 L696.089651 849.042539 L721.816478 869.346764 L720.731958 860.140554 L745.238699 870.087792 L744.560874 864.333911 Z" fill="#888" fill-opacity="0.18" stroke="#000" stroke-width="1"/>
  <path d="M699.646800 413.046020 L671.627043 424.115530 L671.734508 418.322858 L648.327395 430.636874 L648.499340 421.368599 L624.898789 444.109425 L625.371638 418.621668 L606.835087 418.277778 L607.093004 404.375365 L625.629555 404.719254 L626.102404 379.231497 L648.843230 402.832048 L649.015175 393.563772 L671.949439 406.737513 L672.056905 400.944841 Z" fill="#888" fill-opacity="0.18" stroke="#000" stroke-width="1"/>
  <path d="M891.078975 435.983535 L912.660414 414.962538 L914.795692 420.348370 L931.641410 399.958428 L935.057854 408.575760 L948.060072 378.491320 L957.455294 402.188981 L974.689957 395.356093 L979.814624 408.282090 L962.579961 415.114979 L971.975183 438.812640 L941.890743 425.810423 L945.307187 434.427754 L919.066247 431.120034 L921.201525 436.505866 Z" fill="#888" fill-opacity="0.18" stroke="#000" stroke-width="1"/>
  <path d="M356.173223 958.626897 L380.029878 977.025290 L374.999346 979.899371 L397.562843 993.698521 L389.513991 998.297052 L421.132446 1006.922855 L398.998103 1019.568814 L408.195164 1035.666517 L396.121886 1042.564312 L386.924826 1026.466609 L364.790484 1039.112567 L373.416287 1007.494112 L365.367436 1012.092642 L364.938281 985.647534 L359.907749 988.521615 Z" fill="#888" fill-opacity="0.18" stroke="#000" stroke-width="1"/>
  <path d="M681.812375 258.000560 L658.164549 276.666603 L656.600150 271.088139 L637.727974 289.618356 L635.224936 280.692814 L619.168678 309.264265 L612.285322 284.719026 L594.434239 289.725103 L590.679681 276.336791 L608.530764 271.330713 L601.647408 246.785474 L630.218858 262.841731 L627.715819 253.916190 L653.471352 259.931212 L651.906952 254.352749 Z" fill="#888" fill-opacity="0.18" stroke="#000" stroke-width="1"/>
  <path d="M720.475024 913.446878 L741.712879 934.814947 L736.348883 937.004502 L756.907893 953.643464 L748.325500 957.146752 L778.539701 969.844515 L754.938121 979.478556 L761.944696 996.643342 L749.071106 1001.898274 L742.064531 984.733488 L718.462950 994.367529 L731.160714 964.153327 L722.578321 967.656615 L725.620892 941.383612 L720.256896 943.573167 Z" fill="#888" fill-opacity="0.18" stroke="#000" stroke-width="1"/>
  <path d="M552.089123 369.774163 L574.799549 349.978270 L576.633848 355.473900 L594.580911 336.046320 L597.515788 344.839327 L612.161114 315.519613 L620.232027 339.700385 L637.818043 333.830630 L642.220360 347.020141 L624.634344 352.889897 L632.705258 377.070669 L603.385544 362.425343 L606.320422 371.218351 L580.302445 366.465160 L582.136744 371.960789 Z" fill="#888" fill-opacity="0.18" stroke="#000" stroke-width="1"/>
  <path d="M467.706376 101.669705 L492.677081 84.814297 L493.822219 90.493668 L514.020399 73.418497 L515.852621 82.505491 L533.989551 55.207451 L539.028161 80.196684 L557.202149 76.532241 L559.950482 90.162731 L541.776494 93.827175 L546.815104 118.816408 L519.517065 100.679478 L521.349287 109.766472 L496.112497 101.852410 L497.257635 107.531782 Z" fill="#888" fill-opacity="0.18" stroke="#000" stroke-width="1"/>
  <path d="M524.693654 370.641687 L530.825770 341.145280 L535.608259 344.415508 L538.167695 318.091048 L545.819678 323.323413 L539.770632 291.112542 L560.813586 305.501545 L571.278316 290.197578 L582.756292 298.046126 L572.291562 313.350093 L593.334516 327.739096 L561.123645 333.788143 L568.775629 339.020508 L545.173239 350.955965 L549.955729 354.226193 Z" fill="#888" fill-opacity="0.18" stroke="#000" stroke-width="1"/>
  <path d="M275.385935 894.792855 L291.766288 920.077730 L286.066284 921.115302 L302.756581 941.632658 L293.636575 943.292774 L320.586878 961.942501 L295.506861 966.507818 L298.827092 984.747830 L285.147083 987.238003 L281.826852 968.997991 L256.746835 973.563308 L275.396562 946.613004 L266.276556 948.273120 L274.666277 923.190446 L268.966273 924.228018 Z" fill="#888" fill-opacity="0.18" stroke="#000" stroke-width="1"/>
  <path d="M505.954546 394.562081 L487.762610 370.547620 L493.371090 369.094499 L475.219954 349.857446 L484.193522 347.532454 L455.947123 330.911017 L480.624433 324.517288 L475.974448 306.570154 L489.434799 303.082666 L494.084783 321.029800 L518.762093 314.636071 L502.140656 342.882469 L511.114223 340.557477 L504.588049 366.188259 L510.196528 364.735139 Z" fill="#888" fill-opacity="0.18" stroke="#000" stroke-width="1"/>
  <path d="M487.700975 945.405654 L458.617372 953.265992 L459.373200 947.521836 L434.733757 957.135667 L435.943081 947.945018 L409.943147 967.898329 L413.268790 942.624044 L394.887492 940.205395 L396.701479 926.419421 L415.082777 928.838070 L418.408419 903.563786 L438.361730 929.563720 L439.571055 920.373071 L460.884856 936.033525 L461.640684 930.289369 Z" fill="#888" fill-opacity="0.18" stroke="#000" stroke-width="1"/>
  <path d="M1050.562488 761.554512 L1020.647432 757.986563 L1023.493448 752.940100 L997.046359 752.658256 L1001.599985 744.583914 L970.030068 753.385704 L982.552537 731.181265 L966.403855 722.074015 L973.234293 709.962502 L989.382976 719.069753 L1001.905445 696.865314 L1010.707236 728.435231 L1015.260861 720.360890 L1029.185480 742.847173 L1032.031496 737.800709 Z" fill="#888" fill-opacity="0.18" stroke="#000" stroke-width="1"/>
  <path d="M691.975023 761.771084 L683.307961 732.917611 L689.070934 733.513212 L678.774796 709.150998 L687.995553 710.103959 L667.326064 684.669663 L692.683146 687.290307 L694.589069 668.848793 L708.420204 670.278235 L706.514282 688.719749 L731.871363 691.340393 L706.437067 712.009882 L715.657824 712.962843 L700.596880 734.704414 L706.359853 735.300015 Z" fill="#888" fill-opacity="0.18" stroke="#000" stroke-width="1"/>
  <path d="M475.787092 525.726967 L472.143505 495.821029 L477.721748 497.386216 L471.710363 471.629834 L480.635551 474.134134 L464.583330 445.560415 L489.127597 452.447239 L494.136196 434.596863 L507.523978 438.353313 L502.515379 456.203688 L527.059646 463.090512 L498.485927 479.142733 L507.411115 481.647033 L488.878233 500.516590 L494.456475 502.081777 Z" fill="#888" fill-opacity="0.18" stroke="#000" stroke-width="1"/>
  <path d="M188.491555 731.850330 L160.229748 742.286380 L160.467566 736.497594 L136.789224 748.281654 L137.169732 739.019596 L113.063319 761.223471 L114.109715 735.752813 L95.585600 734.991798 L96.156361 721.098712 L114.680476 721.859727 L115.726872 696.389069 L137.930747 720.495481 L138.311254 711.233424 L160.943200 724.920022 L161.181017 719.131236 Z" fill="#888" fill-opacity="0.18" stroke="#000" stroke-width="1"/>
  <path d="M278.666306 775.182253 L300.626017 754.556736 L302.663112 759.980466 L319.876421 739.899880 L323.135773 748.577847 L336.682310 718.734548 L345.645529 742.598958 L363.001464 736.080253 L367.890493 749.097204 L350.534558 755.615909 L359.497778 779.480319 L329.654478 765.933782 L332.913831 774.611749 L306.737303 770.827925 L308.774398 776.251655 Z" fill="#888" fill-opacity="0.18" stroke="#000" stroke-width="1"/>
  <path d="M578.332342 651.123392 L566.846855 678.975222 L562.752261 674.876331 L555.364806 700.272265 L548.813456 693.714040 L548.796269 726.487976 L530.780057 708.452858 L517.663608 721.555558 L507.836583 711.718221 L520.953032 698.615521 L502.936820 680.580403 L535.710756 680.597591 L529.159407 674.039366 L554.563074 666.678550 L550.468481 662.579660 Z" fill="#888" fill-opacity="0.18" stroke="#000" stroke-width="1"/>
  <path d="M447.010175 130.852638 L470.209565 150.073178 L465.081704 152.769775 L487.149388 167.348706 L478.944810 171.663262 L510.242645 181.388318 L487.680055 193.253346 L496.309166 209.662503 L484.002299 216.134336 L475.373188 199.725180 L452.810598 211.590208 L462.535654 180.292374 L454.331075 184.606929 L454.825981 158.162970 L449.698119 160.859567 Z" fill="#888" fill-opacity="0.18" stroke="#000" stroke-width="1"/>
  <path d="M824.698349 494.650586 L853.826056 486.955295 L853.037668 492.695073 L877.731231 483.221116 L876.469810 492.404759 L902.582472 472.599203 L899.113564 497.854223 L917.480851 500.377066 L915.588719 514.152531 L897.221432 511.629689 L893.752524 536.884709 L873.946968 510.772047 L872.685546 519.955690 L851.460891 504.174627 L850.672503 509.914405 Z" fill="#888" fill-opacity="0.18" stroke="#000" stroke-width="1"/>
  <path d="M954.421951 216.758990 L984.537716 215.933454 L982.456764 221.340509 L1008.663077 217.768800 L1005.333552 226.420087 L1035.285580 213.115680 L1026.129388 236.906719 L1043.431962 243.565768 L1038.437675 256.542698 L1021.135102 249.883649 L1011.978910 273.674688 L998.674504 243.722660 L995.344980 252.373947 L978.294858 232.154617 L976.213906 237.561671 Z" fill="#888" fill-opacity="0.18" stroke="#000" stroke-width="1"/>
  <path d="M586.573086 753.804758 L597.972954 781.691742 L592.179416 781.652740 L604.769193 804.912694 L595.499532 804.850291 L618.517677 828.180448 L593.026111 828.008841 L592.901306 846.548162 L578.996816 846.454558 L579.121621 827.915238 L553.630055 827.743631 L576.960212 804.725486 L567.690552 804.663084 L580.592341 781.574737 L574.798803 781.535735 Z" fill="#888" fill-opacity="0.18" stroke="#000" stroke-width="1"/>
  <path d="M115.762406 146.604413 L140.260258 164.139979 L135.335465 167.191701 L158.376898 180.177088 L150.497228 185.059843 L182.403290 192.552131 L160.734198 205.979707 L170.499707 221.739047 L158.680202 229.063179 L148.914692 213.303839 L127.245600 226.731415 L134.737888 194.825353 L126.858218 199.708108 L125.485877 173.295145 L120.561083 176.346866 Z" fill="#888" fill-opacity="0.18" stroke="#000" stroke-width="1"/>
  <path d="M1018.943302 550.179272 L1033.672451 576.460311 L1027.917744 577.131089 L1043.261211 598.674207 L1034.053679 599.747452 L1059.755620 620.083169 L1034.434908 623.034592 L1036.581397 641.449656 L1022.770100 643.059522 L1020.623610 624.644459 L995.302898 627.595882 L1015.638616 601.893941 L1006.431084 602.967185 L1016.408329 578.472645 L1010.653622 579.143423 Z" fill="#888" fill-opacity="0.18" stroke="#000" stroke-width="1"/>
  <path d="M473.986501 313.131709 L455.761722 289.142164 L461.368208 287.681371 L443.190766 268.469173 L452.161143 266.131904 L423.892027 249.549134 L448.560564 243.121644 L443.886025 225.180889 L457.341591 221.674985 L462.016130 239.615740 L486.684667 233.188249 L470.101897 261.457365 L479.072274 259.120096 L472.581179 284.759784 L478.187665 283.298991 Z" fill="#888" fill-opacity="0.18" stroke="#000" stroke-width="1"/>
  <path d="M901.218954 169.036660 L876.115776 152.379191 L880.929467 149.155067 L857.442850 136.993375 L865.144755 131.834776 L832.993494 125.476509 L854.173735 111.290362 L843.856537 95.886550 L855.409396 88.148652 L865.726594 103.552464 L886.906835 89.366317 L880.548567 121.517579 L888.250473 116.358980 L890.556849 142.706818 L895.370540 139.482694 Z" fill="#888" fill-opacity="0.18" stroke="#000" stroke-width="1"/>
  <path d="M240.498654 274.001141 L260.067430 251.094725 L262.686263 256.262734 L277.596865 234.417783 L281.786998 242.686597 L291.983701 211.539230 L303.506566 234.278469 L320.044194 225.898203 L326.329393 238.301424 L309.791765 246.681689 L321.314630 269.420928 L290.167263 259.224225 L294.357396 267.493038 L267.923929 266.598751 L270.542762 271.766760 Z" fill="#888" fill-opacity="0.18" stroke="#000" stroke-width="1"/>
  <path d="M977.403115 502.050703 L987.403249 473.631727 L991.708383 477.508894 L997.745756 451.758592 L1004.633970 457.962059 L1002.922103 425.232857 L1021.864691 442.292391 L1034.271626 428.515963 L1044.603946 437.821164 L1032.197012 451.597592 L1051.139601 468.657126 L1018.410398 470.368993 L1025.298612 476.572460 L1000.318650 485.263228 L1004.623784 489.140395 Z" fill="#888" fill-opacity="0.18" stroke="#000" stroke-width="1"/>
  <path d="M965.187801 96.576766 L994.442836 89.380671 L993.556415 95.106128 L1018.408369 86.055806 L1016.990096 95.216537 L1043.437606 75.860392 L1039.537355 101.052403 L1057.858818 103.888949 L1055.731408 117.630046 L1037.409946 114.793499 L1033.509694 139.985510 L1014.153549 113.537999 L1012.735276 122.698731 L991.783574 106.557042 L990.897153 112.282499 Z" fill="#888" fill-opacity="0.18" stroke="#000" stroke-width="1"/>
  <path d="M47.275550 778.952510 L77.221132 775.650544 L75.592370 781.210556 L101.415695 775.493578 L98.809675 784.389597 L127.564772 768.664597 L120.398218 793.128650 L138.190257 798.340689 L134.281228 811.684718 L116.489190 806.472679 L109.322636 830.936732 L93.597637 802.181636 L90.991617 811.077655 L72.334846 792.330580 L70.706084 797.890592 Z" fill="#888" fill-opacity="0.18" stroke="#000" stroke-width="1"/>
  <path d="M394.259071 370.346787 L423.347797 362.505431 L422.588221 368.249092 L447.233933 358.651343 L446.018611 367.841201 L472.031561 347.904862 L468.689425 373.176971 L487.069141 375.607615 L485.246158 389.392402 L466.866442 386.961757 L463.524306 412.233866 L443.587967 386.220917 L442.372645 395.410775 L421.069068 379.736415 L420.309492 385.480076 Z" fill="#888" fill-opacity="0.18" stroke="#000" stroke-width="1"/>
  <path d="M914.246198 897.372250 L916.459902 867.326612 L921.629711 869.941888 L920.717233 843.509043 L928.988928 847.693484 L918.770792 816.553142 L941.517955 828.060355 L949.886837 811.516964 L962.294380 817.793626 L953.925498 834.337017 L976.672661 845.844230 L945.532319 856.062366 L953.804015 860.246807 L931.969331 875.172439 L937.139140 877.787715 Z" fill="#888" fill-opacity="0.18" stroke="#000" stroke-width="1"/>
  <path d="M548.268782 1031.120724 L519.312170 1022.804745 L522.930141 1018.279606 L496.870047 1013.763031 L502.658800 1006.522808 L470.086359 1010.151484 L486.005429 990.240870 L471.524982 978.663364 L480.208111 967.803029 L494.688558 979.380535 L510.607629 959.469920 L514.236305 992.042361 L520.025058 984.802137 L530.166082 1009.229326 L533.784052 1004.704187 Z" fill="#888" fill-opacity="0.18" stroke="#000" stroke-width="1"/>
  <path d="M875.020617 74.468346 L905.059530 72.165196 L903.246561 77.667899 L929.245906 72.813832 L926.345154 81.618156 L955.607846 66.859224 L947.630778 91.071117 L965.239428 96.872620 L960.888300 110.079107 L943.279651 104.277604 L935.302583 128.489497 L920.543651 99.226806 L917.642899 108.031130 L899.620621 88.673305 L897.807651 94.176008 Z" fill="#888" fill-opacity="0.18" stroke="#000" stroke-width="1"/>
  <path d="M326.145405 357.116761 L337.232034 329.103773 L341.384737 333.143780 L348.408819 307.644953 L355.053144 314.108964 L354.602360 281.338124 L372.874253 299.114155 L385.802276 285.825506 L395.768763 295.521523 L382.840740 308.810172 L401.112633 326.586204 L368.341793 327.036987 L374.986118 333.500998 L349.690143 341.223794 L353.842846 345.263801 Z" fill="#888" fill-opacity="0.18" stroke="#000" stroke-width="1"/>
  <path d="M53.285357 403.381288 L78.397219 420.025663 L73.585210 423.252297 L97.078167 435.401738 L89.378953 440.564353 L121.533526 446.905852 L100.360686 461.103043 L110.685916 476.501472 L99.137094 484.245394 L88.811864 468.846965 L67.639025 483.044156 L73.980524 450.889582 L66.281309 456.052197 L63.961192 429.705566 L59.149183 432.932200 Z" fill="#888" fill-opacity="0.18" stroke="#000" stroke-width="1"/>
  <path d="M145.982956 917.388025 L174.889368 908.899199 L174.258212 914.658386 L198.683506 904.512798 L197.673656 913.727498 L223.235030 893.215371 L220.457944 918.555797 L238.887344 920.575496 L237.372570 934.397546 L218.943170 932.377847 L216.166083 957.718272 L195.653957 932.156898 L194.644107 941.371598 L172.995900 926.176762 L172.364744 931.935949 Z" fill="#888" fill-opacity="0.18" stroke="#000" stroke-width="1"/>
  <path d="M626.369296 769.634444 L643.171582 794.640924 L637.489789 795.773987 L654.521983 816.008420 L645.431115 817.821320 L672.690536 836.016241 L647.690648 841.001716 L651.316448 859.183453 L637.680146 861.902803 L634.054346 843.721066 L609.054458 848.706542 L627.249378 821.447120 L618.158510 823.260020 L626.126204 798.040112 L620.444411 799.173174 Z" fill="#888" fill-opacity="0.18" stroke="#000" stroke-width="1"/>
  <path d="M120.311079 620.855215 L95.231483 604.162261 L100.049729 600.944948 L76.580334 588.750053 L84.289528 583.602352 L52.147290 577.198622 L73.347573 563.042443 L63.052170 547.624056 L74.615960 539.902503 L84.911363 555.320891 L106.111645 541.164712 L99.707915 573.306949 L107.417108 568.159247 L109.686221 594.510321 L114.504467 591.293007 Z" fill="#888" fill-opacity="0.18" stroke="#000" stroke-width="1"/>
  <path d="M284.560726 643.704083 L254.755486 648.095953 L256.180393 642.480239 L230.582743 649.135179 L232.862595 640.150037 L204.700111 656.913261 L210.969704 632.204121 L192.999421 627.644417 L196.419199 614.166705 L214.389482 618.726409 L220.659076 594.017270 L237.422299 622.179754 L239.702152 613.194612 L259.030209 631.248813 L260.455116 625.633099 Z" fill="#888" fill-opacity="0.18" stroke="#000" stroke-width="1"/>
  <path d="M166.920083 293.709515 L175.051776 322.718418 L169.300811 322.016285 L179.144403 346.564841 L169.942858 345.441428 L190.138189 371.253824 L164.833939 368.164438 L162.587113 386.567529 L148.784795 384.882410 L151.031621 366.479319 L125.727371 363.389933 L151.539767 343.194602 L142.338221 342.071189 L157.798879 320.612019 L152.047913 319.909885 Z" fill="#888" fill-opacity="0.18" stroke="#000" stroke-width="1"/>
  <path d="M273.705627 723.734633 L243.649782 725.805152 L245.505300 720.316650 L219.469153 724.969283 L222.437982 716.187680 L193.061903 730.719616 L201.226181 706.570208 L183.662975 700.632551 L188.116218 687.460146 L205.679424 693.397803 L213.843702 669.248395 L228.375638 698.624474 L231.344467 689.842871 L249.216335 709.339646 L251.071853 703.851144 Z" fill="#888" fill-opacity="0.18" stroke="#000" stroke-width="1"/>
  <path d="M853.967442 236.070211 L882.922137 227.747560 L882.257911 233.503028 L906.741077 223.497903 L905.678315 232.706651 L931.357088 212.341685 L928.434494 237.665741 L946.851990 239.791263 L945.257848 253.604385 L926.840352 251.478862 L923.917759 276.802918 L903.552793 251.124146 L902.490032 260.332893 L880.929459 245.013962 L880.265233 250.769430 Z" fill="#888" fill-opacity="0.18" stroke="#000" stroke-width="1"/>
  <path d="M496.807713 549.112491 L517.569505 527.281576 L519.909180 532.581814 L535.962847 511.562591 L539.706326 520.042972 L551.548578 489.483321 L561.843148 512.804368 L578.803909 505.317408 L584.419128 518.037979 L567.458367 525.524939 L577.752936 548.845985 L547.193286 537.003733 L550.936765 545.484113 L524.588529 543.182289 L526.928204 548.482527 Z" fill="#888" fill-opacity="0.18" stroke="#000" stroke-width="1"/>
  <path d="M917.237412 726.789196 L932.213959 700.648348 L935.746613 705.240402 L946.342987 681.007267 L951.995234 688.354553 L956.232830 655.855722 L971.776509 676.060757 L986.471079 664.756263 L994.949449 675.777191 L980.254879 687.081685 L995.798558 707.286719 L963.299728 703.049123 L968.951975 710.396408 L942.811922 714.424508 L946.344576 719.016562 Z" fill="#888" fill-opacity="0.18" stroke="#000" stroke-width="1"/>
  <path d="M806.926964 195.643687 L821.814208 221.835495 L816.063647 222.540937 L831.536650 243.991208 L822.335753 245.119915 L848.159766 265.300390 L822.857298 268.404336 L825.114713 286.806131 L811.313367 288.499192 L809.055951 270.097397 L783.753483 273.201343 L803.933958 247.377331 L794.733061 248.506038 L804.562526 223.951822 L798.811965 224.657264 Z" fill="#888" fill-opacity="0.18" stroke="#000" stroke-width="1"/>
  <path d="M844.236037 420.771042 L830.645778 447.658691 L826.878019 443.257488 L817.562274 468.011171 L811.533860 460.969246 L809.000082 493.645095 L792.421942 474.279800 L778.338091 486.336628 L769.295470 475.773740 L783.379321 463.716911 L766.801182 444.351616 L799.477032 446.885394 L793.448617 439.843469 L819.342501 434.455081 L815.574742 430.053877 Z" fill="#888" fill-opacity="0.18" stroke="#000" stroke-width="1"/>
  <path d="M687.661699 311.043714 L713.522487 295.588601 L714.353218 301.322403 L735.460819 285.385116 L736.789988 294.559199 L756.402273 268.301067 L760.057488 293.529796 L778.405655 290.871457 L780.399409 304.632582 L762.051242 307.290921 L765.706458 332.519650 L739.448327 312.907365 L740.777496 322.081449 L716.014680 312.790008 L716.845411 318.523810 Z" fill="#888" fill-opacity="0.18" stroke="#000" stroke-width="1"/>
  <path d="M321.980596 207.494228 L351.921924 204.153912 L350.300285 209.716006 L376.116266 203.965960 L373.521642 212.865309 L402.256576 197.103495 L395.121360 221.576706 L412.920059 226.765954 L409.028123 240.114978 L391.229424 234.925731 L384.094209 259.398942 L368.332394 230.664008 L365.737771 239.563358 L347.057005 220.840193 L345.435365 226.402286 Z" fill="#888" fill-opacity="0.18" stroke="#000" stroke-width="1"/>
  <path d="M273.830947 755.413608 L247.019375 769.153348 L246.563473 763.377644 L224.463644 777.907803 L223.734200 768.666677 L202.454996 793.593103 L200.449024 768.180007 L181.966773 769.638896 L180.872606 755.777207 L199.354858 754.318318 L197.348886 728.905222 L222.275311 750.184426 L221.545867 740.943300 L245.651667 751.826237 L245.195764 746.050534 Z" fill="#888" fill-opacity="0.18" stroke="#000" stroke-width="1"/>
  <path d="M470.851968 111.747670 L440.927699 108.257828 L443.760531 103.203952 L417.312797 102.991152 L421.845328 94.904950 L390.298496 103.789126 L402.762957 81.552072 L386.590553 72.487010 L393.389350 60.357707 L409.561753 69.422770 L422.026214 47.185715 L430.910390 78.732547 L435.442921 70.646345 L449.426195 93.096200 L452.259027 88.042324 Z" fill="#888" fill-opacity="0.18" stroke="#000" stroke-width="1"/>
  <path d="M320.112727 49.185746 L348.099740 60.337786 L344.050042 64.481040 L369.532391 71.564671 L363.052875 78.193877 L395.824679 77.819651 L378.006011 96.049968 L391.264423 109.008999 L381.545150 118.952808 L368.286738 105.993776 L350.468070 124.224093 L350.093844 91.452289 L343.614328 98.081495 L335.950648 72.767547 L331.900950 76.910801 Z" fill="#888" fill-opacity="0.18" stroke="#000" stroke-width="1"/>
  <path d="M1045.283058 891.525601 L1015.236033 893.720393 L1017.068838 888.224265 L991.052154 892.984526 L993.984642 884.190721 L964.668909 898.844013 L972.733252 874.661049 L955.145642 868.796073 L959.544374 855.605365 L977.131984 861.470342 L985.196327 837.287378 L999.849619 866.603111 L1002.782107 857.809306 L1020.734448 877.232008 L1022.567253 871.735880 Z" fill="#888" fill-opacity="0.18" stroke="#000" stroke-width="1"/>
  <path d="M673.506858 937.694420 L643.459855 939.889511 L645.292605 934.393365 L619.275969 939.153886 L622.208369 930.360052 L592.892782 945.013636 L600.956883 920.830592 L583.369215 914.965791 L587.767815 901.775040 L605.355484 907.639840 L613.419585 883.456796 L628.073170 912.772383 L631.005570 903.978549 L648.958106 923.401072 L650.790856 917.904925 Z" fill="#888" fill-opacity="0.18" stroke="#000" stroke-width="1"/>
  <path d="M308.475928 61.920870 L311.265245 91.918546 L305.733903 90.194928 L311.008382 116.112255 L302.158236 113.354466 L317.389130 142.374304 L293.051227 134.790385 L287.535649 152.490678 L274.260429 148.353995 L279.776007 130.653702 L255.438104 123.069782 L284.457942 107.838888 L275.607796 105.081099 L294.671220 86.747692 L289.139878 85.024074 Z" fill="#888" fill-opacity="0.18" stroke="#000" stroke-width="1"/>
  <path d="M322.487735 280.269461 L319.736262 310.270632 L314.614122 307.563183 L315.053036 334.008131 L306.857611 329.676213 L316.516377 360.994569 L293.978960 349.081795 L285.315124 365.472644 L273.021988 358.974767 L281.685824 342.583918 L259.148406 330.671144 L290.466762 321.012377 L282.271338 316.680459 L304.369841 302.148286 L299.247701 299.440837 Z" fill="#888" fill-opacity="0.18" stroke="#000" stroke-width="1"/>
  <path d="M350.570569 361.668132 L370.674291 384.106519 L365.204184 386.015583 L384.874676 403.696071 L376.122505 406.750574 L405.639190 420.994746 L381.570718 429.394628 L387.679723 446.898972 L374.551466 451.480726 L368.442461 433.976382 L344.373989 442.376264 L358.618161 412.859579 L349.865990 415.914081 L354.263970 389.833711 L348.793862 391.742775 Z" fill="#888" fill-opacity="0.18" stroke="#000" stroke-width="1"/>
  <path d="M237.685866 909.155864 L235.265120 879.126198 L240.774880 880.917609 L235.819054 854.937468 L244.634668 857.803726 L229.761276 828.599045 L254.004216 836.481254 L259.736731 818.850024 L272.960153 823.149411 L267.227638 840.780640 L291.470578 848.662849 L262.265897 863.536241 L271.081512 866.402499 L251.794398 884.500431 L257.304157 886.291842 Z" fill="#888" fill-opacity="0.18" stroke="#000" stroke-width="1"/>
  <path d="M567.193924 48.869626 L585.810836 72.556151 L580.229137 74.108966 L598.720137 93.019568 L589.789419 95.504073 L618.327476 111.619607 L593.768001 118.451995 L598.737010 136.313432 L585.340933 140.040189 L580.371923 122.178752 L555.812448 129.011140 L571.927982 100.473082 L562.997263 102.957587 L569.065739 77.214597 L563.484040 78.767412 Z" fill="#888" fill-opacity="0.18" stroke="#000" stroke-width="1"/>
  <path d="M463.454277 780.835483 L456.429314 751.538883 L462.149492 752.458757 L453.244595 727.554325 L462.396879 729.026122 L443.195663 702.465918 L468.364445 706.513361 L471.308040 688.208793 L485.036466 690.416489 L482.092871 708.721058 L507.261653 712.768501 L480.701448 731.969718 L489.853732 733.441515 L473.589847 754.298504 L479.310025 755.218378 Z" fill="#888" fill-opacity="0.18" stroke="#000" stroke-width="1"/>
  <path d="M770.845496 430.390427 L766.550895 400.571016 L772.161929 402.014239 L765.590544 376.395011 L774.568199 378.704167 L757.896951 350.487139 L782.585503 356.837318 L787.203815 338.882008 L800.670298 342.345742 L796.051986 360.301052 L820.740537 366.651231 L792.523509 383.322479 L801.501164 385.631635 L783.383998 404.900684 L788.995033 406.343906 Z" fill="#888" fill-opacity="0.18" stroke="#000" stroke-width="1"/>
  <path d="M142.029514 623.341821 L147.422466 593.701360 L152.285199 596.851030 L154.185867 570.470822 L161.966241 575.510295 L155.113989 543.460679 L176.510016 557.319229 L186.588961 541.758483 L198.259521 549.317692 L188.180576 564.878438 L209.576603 578.736988 L177.526987 585.589240 L185.307361 590.628713 L162.010666 603.150371 L166.873399 606.300042 Z" fill="#888" fill-opacity="0.18" stroke="#000" stroke-width="1"/>
  <path d="M153.200616 549.468993 L124.360887 540.756307 L128.040634 536.281258 L102.044995 531.407379 L107.932590 524.247301 L75.313407 527.428510 L91.504292 507.738294 L77.184135 495.963105 L86.015527 485.222987 L100.335684 496.998177 L116.526569 477.307961 L119.707779 509.927144 L125.595374 502.767065 L135.400127 527.331160 L139.079874 522.856111 Z" fill="#888" fill-opacity="0.18" stroke="#000" stroke-width="1"/>
  <path d="M667.763946 636.914476 L648.708709 613.579121 L654.260490 611.922523 L635.420175 593.359913 L644.303026 590.709355 L615.469504 575.128624 L639.897343 567.839589 L634.596227 550.073888 L647.920503 546.098050 L653.221619 563.863752 L677.649459 556.574717 L662.068727 585.408239 L670.951578 582.757681 L665.364054 608.609325 L670.915835 606.952726 Z" fill="#888" fill-opacity="0.18" stroke="#000" stroke-width="1"/>
  <path d="M751.975519 533.827021 L776.223661 515.947747 L777.603995 521.574582 L797.074602 503.674208 L799.283137 512.677145 L816.269143 484.648467 L822.342612 509.406543 L840.348486 504.989475 L843.661287 518.493880 L825.655414 522.910949 L831.728883 547.669025 L803.700205 530.683019 L805.908740 539.685955 L780.364663 532.828253 L781.744997 538.455089 Z" fill="#888" fill-opacity="0.18" stroke="#000" stroke-width="1"/>
  <path d="M642.552020 953.854098 L664.961962 973.989523 L659.730086 976.478313 L681.195372 991.930479 L672.824371 995.912542 L703.707033 1006.884887 L680.686779 1017.835562 L688.650906 1034.577565 L676.094404 1040.550660 L668.130277 1023.808657 L645.110023 1034.759332 L656.082368 1003.876669 L647.711367 1007.858733 L649.266335 981.455892 L644.034459 983.944682 Z" fill="#888" fill-opacity="0.18" stroke="#000" stroke-width="1"/>
  <path d="M48.776034 243.794555 L49.029509 213.668543 L54.358574 215.941794 L51.727636 189.624383 L60.254139 193.261585 L48.030884 162.852322 L71.478769 172.854627 L78.753172 155.801620 L91.542927 161.257422 L84.268524 178.310429 L107.716408 188.312733 L77.307146 200.535988 L85.833649 204.173189 L65.016703 220.488296 L70.345768 222.761546 Z" fill="#888" fill-opacity="0.18" stroke="#000" stroke-width="1"/>
  <path d="M155.007290 529.050590 L182.713258 517.217578 L182.764535 523.011020 L205.825494 510.060341 L205.907537 519.329848 L228.876198 495.950973 L229.101816 521.442118 L247.640830 521.278033 L247.763894 535.182293 L229.224880 535.346379 L229.450497 560.837523 L206.071622 537.868862 L206.153665 547.138369 L182.867088 534.597904 L182.918365 540.391346 Z" fill="#888" fill-opacity="0.18" stroke="#000" stroke-width="1"/>
</svg>
