<?xml version="1.0" encoding="UTF-8"?>
<svg xmlns="http://www.w3.org/2000/svg" width="1100" height="1100" viewBox="0 0 1100 1100">
  <rect x="0" y="0" width="1100" height="1100" fill="white"/>
  <text x="10.0" y="18.0" font-family="monospace" font-size="12">prefix=N15_job5048412_task15 run_id=15 L=2.86407094728 feas=0.000e+00 N=15</text>
  <rect x="40.000000" y="40.000000" width="1020.000000" height="1020.000000" fill="none" stroke="#000" stroke-width="2"/>
  <path d="M298.129429 754.756407 L381.387435 674.352075 L389.502257 695.078669 L454.556024 617.020876 L467.539738 650.183426 L517.986826 534.817764 L553.692042 626.014776 L620.017142 600.047347 L639.492714 649.791172 L573.167614 675.758601 L608.872829 766.955613 L493.507168 716.508525 L506.490883 749.671075 L405.731900 736.531856 L413.846722 757.258450 Z" fill="#888" fill-opacity="0.18" stroke="#000" stroke-width="1"/>
  <path d="M641.152252 571.838988 L527.691769 548.959499 L540.145265 530.510855 L438.952998 521.283891 L458.878591 491.766060 L335.270033 515.746656 L390.065412 434.572622 L331.029750 394.721437 L360.918139 350.444691 L419.953800 390.295876 L474.749179 309.121841 L498.729775 432.730399 L518.655368 403.212568 L565.052255 493.613566 L577.505750 475.164922 Z" fill="#888" fill-opacity="0.18" stroke="#000" stroke-width="1"/>
  <path d="M663.140402 489.608631 L730.530132 583.711640 L708.841009 588.714032 L776.566650 664.465264 L741.864052 672.469092 L848.630117 739.216017 L753.197972 761.226543 L769.205628 830.631739 L717.151731 842.637481 L701.144075 773.232285 L605.711931 795.242811 L672.458857 688.476747 L637.756259 696.480575 L665.462761 598.718817 L643.773638 603.721209 Z" fill="#888" fill-opacity="0.18" stroke="#000" stroke-width="1"/>
  <path d="M1006.647491 868.289646 L936.158905 776.484899 L957.669259 770.762425 L887.456583 697.310456 L921.873148 688.154496 L812.941836 625.002982 L907.587390 599.824093 L889.275471 530.990963 L940.900319 517.257023 L959.212238 586.090154 L1053.857793 560.911265 L990.706278 669.842577 L1025.122844 660.686618 L1000.689965 759.317475 L1022.200319 753.595000 Z" fill="#888" fill-opacity="0.18" stroke="#000" stroke-width="1"/>
  <path d="M804.544386 583.445236 L710.760025 515.612753 L729.738008 503.981837 L641.462783 453.657923 L671.827554 435.048457 L549.391962 405.660192 L632.895084 354.484162 L595.676152 293.754619 L641.223310 265.840421 L678.442241 326.569964 L761.945363 275.393934 L732.557098 397.829526 L762.921869 379.220061 L767.693972 480.720005 L786.671954 469.089089 Z" fill="#888" fill-opacity="0.18" stroke="#000" stroke-width="1"/>
  <path d="M884.399493 688.819845 L905.895215 802.550606 L884.116402 797.954376 L913.644871 895.181333 L878.798771 887.827365 L947.529103 993.327536 L851.702326 973.104125 L836.994391 1042.796326 L784.725240 1031.765374 L799.433175 962.073173 L703.606399 941.849762 L809.106570 873.119430 L774.260469 865.765462 L840.558777 788.761917 L818.779964 784.165687 Z" fill="#888" fill-opacity="0.18" stroke="#000" stroke-width="1"/>
  <path d="M1040.803103 262.836075 L925.092516 265.631107 L933.154832 244.884033 L832.429441 258.278332 L845.329146 225.083014 L730.091587 275.822047 L765.565776 184.534921 L699.175140 158.735510 L718.524698 108.942533 L784.915334 134.741943 L820.389524 43.454818 L871.128557 158.692377 L884.028262 125.497059 L949.279463 203.389885 L957.341779 182.642811 Z" fill="#888" fill-opacity="0.18" stroke="#000" stroke-width="1"/>
  <path d="M811.109717 614.487489 L792.379700 500.268670 L814.040586 505.391952 L786.879766 407.477186 L821.537184 415.674438 L755.386769 308.537763 L850.694669 331.080206 L867.089173 261.765370 L919.075300 274.061248 L902.680796 343.376084 L997.988695 365.918526 L890.852020 432.068942 L925.509438 440.266193 L857.362359 515.638517 L879.023245 520.761799 Z" fill="#888" fill-opacity="0.18" stroke="#000" stroke-width="1"/>
  <path d="M488.837471 374.216650 L508.623135 260.175957 L527.403608 272.123167 L533.875409 170.717411 L563.924166 189.832948 L536.591115 66.922213 L619.225197 119.489939 L657.456271 59.392424 L702.529407 88.065729 L664.298333 148.163244 L746.932416 200.730970 L624.021681 228.064022 L654.070438 247.179558 L564.964555 296.017588 L583.745028 307.964799 Z" fill="#888" fill-opacity="0.18" stroke="#000" stroke-width="1"/>
  <path d="M58.362395 954.143112 L54.348267 838.468400 L75.179143 846.311655 L60.724236 745.732993 L94.053636 758.282201 L42.103154 643.585680 L133.759006 678.096001 L158.857421 611.437199 L208.851522 630.261011 L183.753107 696.919812 L275.408958 731.430133 L160.712438 783.380616 L194.041838 795.929824 L116.840893 861.998165 L137.671769 869.841420 Z" fill="#888" fill-opacity="0.18" stroke="#000" stroke-width="1"/>
  <path d="M307.901303 221.635563 L318.154111 336.924903 L296.930204 330.217611 L316.793628 429.869284 L282.835377 419.137615 L340.901834 530.862416 L247.516642 501.350327 L226.053305 569.266830 L175.115927 553.169327 L196.579265 485.252824 L103.194073 455.740735 L214.918874 397.674278 L180.960622 386.942609 L254.482390 316.803025 L233.258483 310.095732 Z" fill="#888" fill-opacity="0.18" stroke="#000" stroke-width="1"/>
  <path d="M320.352087 382.736080 L317.840896 267.018985 L338.568131 275.132168 L325.420946 174.374225 L358.584523 187.355318 L308.128315 71.993645 L399.328149 107.691651 L425.290335 41.364498 L475.035700 60.836138 L449.073514 127.163290 L540.273348 162.861296 L424.911675 213.317504 L458.075251 226.298597 L380.022601 291.358534 L400.749836 299.471718 Z" fill="#888" fill-opacity="0.18" stroke="#000" stroke-width="1"/>
  <path d="M703.098712 792.629013 L626.353167 879.271228 L616.649337 859.239311 L557.870092 942.124846 L542.343965 910.073778 L501.031612 1029.016764 L458.334764 940.876328 L394.232628 971.928581 L370.943438 923.851979 L435.045574 892.799726 L392.348725 804.659289 L511.291712 845.971642 L495.765585 813.920574 L597.241679 819.175476 L587.537850 799.143558 Z" fill="#888" fill-opacity="0.18" stroke="#000" stroke-width="1"/>
  <path d="M45.044376 1002.100707 L115.657873 910.392004 L126.714633 929.710133 L179.662275 842.983212 L197.353091 873.892218 L230.398566 752.392666 L279.048308 837.392431 L340.866319 802.010801 L367.402542 848.374309 L305.584531 883.755939 L354.234273 968.755704 L232.734721 935.710229 L250.425536 966.619234 L148.828152 968.346390 L159.884911 987.664518 Z" fill="#888" fill-opacity="0.18" stroke="#000" stroke-width="1"/>
  <path d="M125.394747 439.592341 L111.254006 324.715052 L132.692337 330.701702 L109.474609 231.777748 L143.775939 241.356388 L81.969215 131.656464 L176.297872 157.997724 L195.455152 89.395065 L246.907146 103.763025 L227.749866 172.365684 L322.078523 198.706945 L212.378598 260.513669 L246.679928 270.092309 L175.568999 342.675003 L197.007330 348.661653 Z" fill="#888" fill-opacity="0.18" stroke="#000" stroke-width="1"/>
</svg>
