<?xml version="1.0" encoding="UTF-8"?>
<svg xmlns="http://www.w3.org/2000/svg" width="1100" height="1100" viewBox="0 0 1100 1100">
  <rect x="0" y="0" width="1100" height="1100" fill="white"/>
  <text x="10.0" y="18.0" font-family="monospace" font-size="12">prefix=N163_job5048567_task163 run_id=163 L=11.2782716309 feas=0.000e+00 N=163</text>
  <rect x="40.000000" y="40.000000" width="1020.000000" height="1020.000000" fill="none" stroke="#000" stroke-width="2"/>
  <path d="M146.397453 565.699980 L163.063027 589.911452 L157.532472 591.079049 L174.370081 610.632558 L165.521192 612.500712 L192.313801 629.952547 L167.979357 635.089973 L171.715666 652.787750 L158.442333 655.589982 L154.706024 637.892205 L130.371580 643.029630 L147.823415 616.237022 L138.974526 618.105177 L146.471361 593.414242 L140.940806 594.581839 Z" fill="#888" fill-opacity="0.18" stroke="#000" stroke-width="1"/>
  <path d="M683.799219 213.743002 L685.634680 184.407565 L690.706395 186.903168 L689.531031 161.125982 L697.645775 165.118946 L687.341324 134.849676 L709.656870 145.830327 L717.642798 129.600838 L729.814914 135.590284 L721.828987 151.819772 L744.144533 162.800422 L713.875263 173.104873 L721.990008 177.097837 L700.849825 191.894372 L705.921540 194.389975 Z" fill="#888" fill-opacity="0.18" stroke="#000" stroke-width="1"/>
  <path d="M590.665816 463.294255 L561.353838 465.472495 L563.135214 460.108073 L537.758499 464.784297 L540.608700 456.201222 L512.025508 470.533406 L519.863562 446.929949 L502.697412 441.229546 L506.972714 428.354933 L524.138865 434.055336 L531.976919 410.451879 L546.309103 439.035071 L549.159305 430.451996 L566.697966 449.379228 L568.479342 444.014806 Z" fill="#888" fill-opacity="0.18" stroke="#000" stroke-width="1"/>
  <path d="M215.394607 129.407308 L224.027111 101.310749 L228.376168 104.921294 L233.250425 79.581870 L240.208914 85.358743 L237.254871 53.520338 L256.390717 69.406736 L267.944462 55.489757 L278.382196 64.155065 L266.828452 78.072045 L285.964299 93.958443 L254.125894 96.912487 L261.084384 102.689359 L237.074280 112.142384 L241.423336 115.752929 Z" fill="#888" fill-opacity="0.18" stroke="#000" stroke-width="1"/>
  <path d="M385.936697 859.742183 L397.959765 886.563493 L392.309306 886.713940 L405.342107 908.984793 L396.301372 909.225509 L419.505000 931.225555 L394.642979 931.887525 L395.124412 949.968995 L381.563310 950.330070 L381.081877 932.248600 L356.219856 932.910570 L378.219902 909.706942 L369.179168 909.947658 L381.008387 887.014836 L375.357928 887.165284 Z" fill="#888" fill-opacity="0.18" stroke="#000" stroke-width="1"/>
  <path d="M144.416691 218.753286 L161.820979 242.439306 L156.329061 243.776900 L173.761658 262.801867 L164.974588 264.942017 L192.292638 281.559314 L168.128197 287.444728 L172.408498 305.018867 L159.227894 308.229093 L154.947593 290.654954 L130.783153 296.540368 L147.400450 269.222318 L138.613380 271.362469 L145.345224 246.452088 L139.853306 247.789682 Z" fill="#888" fill-opacity="0.18" stroke="#000" stroke-width="1"/>
  <path d="M798.535774 774.476514 L826.835240 766.534412 L826.151925 772.145419 L850.099248 762.534463 L849.005944 771.512075 L874.183234 751.801306 L871.176648 776.489739 L889.131872 778.676347 L887.491916 792.142765 L869.536692 789.956157 L866.530105 814.644590 L846.819336 789.467299 L845.726031 798.444911 L824.785295 783.367434 L824.101979 788.978442 Z" fill="#888" fill-opacity="0.18" stroke="#000" stroke-width="1"/>
  <path d="M401.461880 275.076190 L428.419751 263.362524 L428.505175 269.014340 L450.924508 256.238649 L451.061186 265.281555 L473.326756 242.332595 L473.702620 267.200587 L491.788433 266.927231 L491.993450 280.491590 L473.907637 280.764946 L474.283502 305.632938 L451.334542 283.367367 L451.471220 292.410274 L428.676022 280.317973 L428.761446 285.969789 Z" fill="#888" fill-opacity="0.18" stroke="#000" stroke-width="1"/>
  <path d="M522.514256 550.317128 L496.997397 564.905708 L496.295050 559.297051 L475.405585 574.445486 L474.281830 565.471634 L454.656591 590.715651 L451.566263 566.037560 L433.618561 568.285071 L431.932927 554.824295 L449.880630 552.576784 L446.790302 527.898693 L472.034319 547.523932 L470.910563 538.550081 L494.890355 548.079737 L494.188008 542.471080 Z" fill="#888" fill-opacity="0.18" stroke="#000" stroke-width="1"/>
  <path d="M843.213856 900.067859 L825.752557 876.423837 L831.241237 875.073016 L813.762858 856.090101 L822.544746 853.928788 L795.186743 837.377351 L819.336935 831.433740 L815.014309 813.869964 L828.187141 810.627994 L832.509767 828.191770 L856.659960 822.248159 L840.108522 849.606162 L848.890410 847.444849 L842.218597 872.371375 L847.707277 871.020554 Z" fill="#888" fill-opacity="0.18" stroke="#000" stroke-width="1"/>
  <path d="M274.019754 344.778714 L272.883181 315.407895 L278.181002 317.378534 L274.408353 291.851845 L282.884866 295.004867 L269.576140 265.931027 L292.886551 274.601840 L299.192597 257.648813 L311.907367 262.378347 L305.601321 279.331374 L328.911733 288.002187 L299.837893 301.310913 L308.314406 304.463936 L288.776643 321.319813 L294.074464 323.290452 Z" fill="#888" fill-opacity="0.18" stroke="#000" stroke-width="1"/>
  <path d="M1046.373613 518.262846 L1017.588362 524.208108 L1018.662077 518.658562 L994.101720 526.572705 L995.819664 517.693431 L969.326621 535.596757 L974.050965 511.178755 L956.292417 507.742868 L958.869332 494.423957 L976.627880 497.859844 L981.352224 473.441841 L999.255550 499.934884 L1000.973493 491.055610 L1020.809506 507.559470 L1021.883220 502.009924 Z" fill="#888" fill-opacity="0.18" stroke="#000" stroke-width="1"/>
  <path d="M915.433040 264.693340 L920.529905 293.640857 L915.014305 292.404537 L922.203346 317.186839 L913.378387 315.208727 L930.495507 342.216404 L906.226869 336.776598 L902.270646 354.426517 L889.033207 351.459350 L892.989430 333.809431 L868.720791 328.369625 L895.728468 311.252505 L886.903509 309.274393 L903.983106 289.931898 L898.467507 288.695579 Z" fill="#888" fill-opacity="0.18" stroke="#000" stroke-width="1"/>
  <path d="M1057.134149 372.440360 L1028.284638 366.815196 L1031.417027 362.110043 L1005.705160 359.931821 L1010.716983 352.403577 L979.366815 358.694630 L993.149328 337.991959 L978.092839 327.968312 L985.610574 316.675946 L1000.667062 326.699592 L1014.449576 305.996920 L1020.740629 337.347089 L1025.752452 329.818844 L1037.681806 352.699738 L1040.814195 347.994585 Z" fill="#888" fill-opacity="0.18" stroke="#000" stroke-width="1"/>
  <path d="M451.244890 674.140066 L432.947578 651.136911 L438.384330 649.590284 L420.236969 631.245855 L428.935772 628.771253 L401.002258 613.210752 L424.923966 606.405595 L419.974760 589.007989 L433.022965 585.296085 L437.972170 602.693691 L461.893878 595.888533 L446.333378 623.822047 L455.032181 621.347445 L449.257834 646.497031 L454.694585 644.950404 Z" fill="#888" fill-opacity="0.18" stroke="#000" stroke-width="1"/>
  <path d="M848.107815 369.161469 L874.033659 383.010203 L869.657711 386.588109 L893.596419 396.220504 L886.594904 401.945154 L918.410317 405.137318 L899.156149 420.880105 L910.605449 434.883136 L900.103176 443.470110 L888.653876 429.467079 L869.399709 445.209866 L872.591873 413.394453 L865.590358 419.119103 L860.905817 393.743921 L856.529870 397.321827 Z" fill="#888" fill-opacity="0.18" stroke="#000" stroke-width="1"/>
  <path d="M1038.215800 674.395844 L1020.429740 697.796545 L1017.591306 692.908435 L1004.283421 715.016012 L999.741927 707.195036 L991.543222 738.101211 L979.054113 716.593527 L963.412162 725.676515 L956.599921 713.945051 L972.241872 704.862063 L959.752764 683.354379 L990.658939 691.553084 L986.117445 683.732108 L1011.914439 683.132215 L1009.076005 678.244105 Z" fill="#888" fill-opacity="0.18" stroke="#000" stroke-width="1"/>
  <path d="M608.178267 497.015798 L615.010824 525.603434 L609.430729 524.701844 L618.100577 549.005722 L609.172425 547.563178 L627.886444 573.489919 L603.334027 569.522922 L600.448938 587.379226 L587.056710 585.215409 L589.941799 567.359105 L565.389381 563.392109 L591.316121 544.678089 L582.387969 543.235545 L598.270539 522.898664 L592.690444 521.997073 Z" fill="#888" fill-opacity="0.18" stroke="#000" stroke-width="1"/>
  <path d="M904.769141 238.812318 L894.779954 266.455634 L890.611701 262.637782 L884.510447 287.710067 L877.841243 281.601503 L879.242843 313.545922 L860.902533 296.747371 L848.685405 310.085779 L838.681599 300.922933 L850.898727 287.584525 L832.558417 270.785975 L864.502836 269.384375 L857.833632 263.275811 L882.275197 255.002077 L878.106944 251.184225 Z" fill="#888" fill-opacity="0.18" stroke="#000" stroke-width="1"/>
  <path d="M457.331228 959.177319 L475.252090 982.474948 L469.790909 983.932969 L487.637590 1002.570048 L478.899700 1004.902881 L506.576508 1020.915523 L482.547311 1027.330814 L487.212977 1044.806594 L474.106142 1048.305844 L469.440476 1030.830064 L445.411278 1037.245355 L461.423920 1009.568547 L452.686030 1011.901380 L458.868546 986.849010 L453.407365 988.307031 Z" fill="#888" fill-opacity="0.18" stroke="#000" stroke-width="1"/>
  <path d="M955.738553 553.510075 L936.981234 576.139697 L934.351517 571.136206 L920.122933 592.662752 L915.915386 584.657168 L906.420293 615.189997 L894.849539 593.174640 L878.838371 601.589734 L872.527050 589.581358 L888.538218 581.166264 L876.967464 559.150907 L907.500292 568.646000 L903.292745 560.640416 L929.092083 561.129226 L926.462366 556.125736 Z" fill="#888" fill-opacity="0.18" stroke="#000" stroke-width="1"/>
  <path d="M717.659716 423.862444 L744.933377 412.904150 L744.861354 418.556153 L767.627817 406.409840 L767.512580 415.453045 L790.408685 393.133127 L790.091782 418.001940 L808.178192 418.232415 L808.005336 431.797222 L789.918926 431.566747 L789.602023 456.435560 L767.282105 433.539454 L767.166867 442.582659 L744.717307 429.860159 L744.645284 435.512162 Z" fill="#888" fill-opacity="0.18" stroke="#000" stroke-width="1"/>
  <path d="M326.496742 660.767499 L327.152057 690.152995 L321.887226 688.095840 L325.241231 713.680902 L316.817503 710.389454 L329.648202 739.677396 L306.482949 730.625912 L299.900052 747.473369 L287.264460 742.536196 L293.847357 725.688739 L270.682104 716.637255 L299.970046 703.806556 L291.546318 700.515108 L311.357566 683.981529 L306.092736 681.924374 Z" fill="#888" fill-opacity="0.18" stroke="#000" stroke-width="1"/>
  <path d="M441.126061 503.045384 L439.245648 473.712794 L444.591700 475.548563 L440.173461 450.125662 L448.727145 453.062892 L434.686011 424.335606 L458.208642 432.412990 L464.083102 415.305622 L476.913628 419.711467 L471.039167 436.818835 L494.561798 444.896219 L465.834512 458.937353 L474.388196 461.874583 L455.283805 479.220101 L460.629857 481.055870 Z" fill="#888" fill-opacity="0.18" stroke="#000" stroke-width="1"/>
  <path d="M835.402639 247.854918 L808.009128 258.510075 L808.143828 252.859218 L785.244063 264.752305 L785.459582 255.710934 L762.317357 277.775564 L762.910035 252.911794 L744.827293 252.480756 L745.150572 238.918701 L763.233313 239.349738 L763.825990 214.485969 L785.890619 237.628193 L786.106138 228.586823 L808.413226 241.557505 L808.547926 235.906648 Z" fill="#888" fill-opacity="0.18" stroke="#000" stroke-width="1"/>
  <path d="M338.537774 829.299702 L351.314609 855.770237 L345.670665 856.080435 L359.328131 877.973776 L350.297821 878.470092 L374.114386 899.805078 L349.281033 901.169946 L350.273665 919.230567 L336.728199 919.975040 L335.735568 901.914420 L310.902215 903.279288 L332.237201 879.462723 L323.206891 879.959039 L334.382777 856.700830 L328.738834 857.011027 Z" fill="#888" fill-opacity="0.18" stroke="#000" stroke-width="1"/>
  <path d="M1043.087739 175.437198 L1037.608927 204.314860 L1032.887952 201.206368 L1030.840129 226.928950 L1023.286569 221.955362 L1029.736501 253.273229 L1008.964212 239.595865 L999.017037 254.702984 L987.686698 247.242603 L997.633872 232.135484 L976.861583 218.458119 L1008.179450 212.008188 L1000.625891 207.034601 L1023.446003 194.989384 L1018.725028 191.880892 Z" fill="#888" fill-opacity="0.18" stroke="#000" stroke-width="1"/>
  <path d="M956.089323 690.229577 L943.885439 716.969099 L940.041433 712.824954 L931.921667 737.318099 L925.771256 730.687467 L924.570702 762.640073 L907.657073 744.405835 L894.395809 756.706656 L885.170193 746.760707 L898.431458 734.459887 L881.517829 716.225648 L913.470436 717.426202 L907.320025 710.795570 L932.353420 704.536663 L928.509413 700.392518 Z" fill="#888" fill-opacity="0.18" stroke="#000" stroke-width="1"/>
  <path d="M1056.656022 817.391846 L1028.178796 824.670883 L1028.992963 819.077364 L1004.827719 828.126439 L1006.130386 819.176808 L980.499642 838.294218 L984.081976 813.682733 L966.182715 811.077399 L968.136715 797.652953 L986.035976 800.258287 L989.618311 775.646803 L1008.735720 801.277547 L1010.038387 792.327916 L1030.621297 807.890326 L1031.435464 802.296807 Z" fill="#888" fill-opacity="0.18" stroke="#000" stroke-width="1"/>
  <path d="M615.622436 323.260877 L636.456453 343.994437 L631.234962 346.159236 L651.381439 362.282642 L643.027053 365.746321 L672.572214 377.973089 L649.597652 387.498205 L656.525009 404.206977 L643.993430 409.402495 L637.066074 392.693723 L614.091512 402.218839 L626.318281 372.673678 L617.963895 376.137356 L620.791980 350.488834 L615.570489 352.653633 Z" fill="#888" fill-opacity="0.18" stroke="#000" stroke-width="1"/>
  <path d="M260.652831 413.018374 L269.156474 384.882546 L273.522032 388.473121 L278.280104 363.111624 L285.264997 368.856544 L282.165064 337.032012 L301.373520 352.830541 L312.863359 338.860756 L323.340699 347.478135 L311.850859 361.447921 L331.059314 377.246451 L299.234783 380.346383 L306.219675 386.091303 L282.253148 395.654270 L286.618706 399.244845 Z" fill="#888" fill-opacity="0.18" stroke="#000" stroke-width="1"/>
  <path d="M244.733247 543.510931 L224.248315 522.432403 L229.505223 520.355088 L209.630761 503.897550 L218.041814 500.573844 L188.704918 487.855475 L211.835314 478.715285 L205.187903 461.893179 L217.804483 456.907621 L224.451894 473.729727 L247.582289 464.589537 L234.863920 493.926434 L243.274973 490.602728 L240.019039 516.200456 L245.275947 514.123140 Z" fill="#888" fill-opacity="0.18" stroke="#000" stroke-width="1"/>
  <path d="M454.133001 846.629216 L476.721075 827.821885 L478.388939 833.222677 L496.322807 814.669480 L498.991389 823.310747 L513.923103 795.036124 L521.261703 818.799609 L538.544238 813.462445 L542.547111 826.424346 L525.264576 831.761510 L532.603177 855.524995 L504.328553 840.593282 L506.997135 849.234549 L481.724667 844.024262 L483.392530 849.425054 Z" fill="#888" fill-opacity="0.18" stroke="#000" stroke-width="1"/>
  <path d="M681.715303 388.984760 L664.642058 365.059019 L670.152045 363.797921 L652.985681 344.532389 L661.801660 342.514632 L634.717319 325.519077 L658.961261 319.970245 L654.925747 302.338287 L668.149716 299.311651 L672.185230 316.943609 L696.429173 311.394777 L679.433618 338.479118 L688.249597 336.461360 L681.172019 361.275724 L686.682006 360.014626 Z" fill="#888" fill-opacity="0.18" stroke="#000" stroke-width="1"/>
  <path d="M310.443319 393.317098 L304.925625 422.187356 L300.208840 419.072510 L298.126380 444.792310 L290.579525 439.808556 L296.987277 471.135080 L276.233425 457.429755 L266.265916 472.523465 L254.945633 465.047834 L264.913142 449.954123 L244.159290 436.248799 L275.485814 429.841047 L267.938959 424.857292 L290.775271 412.842817 L286.058487 409.727970 Z" fill="#888" fill-opacity="0.18" stroke="#000" stroke-width="1"/>
  <path d="M346.059842 1002.910451 L326.122265 981.313466 L331.430722 979.371661 L311.984897 962.409802 L320.478429 959.302914 L291.477380 945.836304 L314.834593 937.292363 L308.620818 920.305300 L321.361115 915.644968 L327.574890 932.632032 L350.932102 924.088091 L337.465492 953.089139 L345.959024 949.982252 L342.047637 975.488051 L347.356094 973.546247 Z" fill="#888" fill-opacity="0.18" stroke="#000" stroke-width="1"/>
  <path d="M899.711151 218.429098 L882.712106 194.450582 L888.225973 193.206559 L871.119373 173.887941 L879.941560 171.897504 L852.909999 154.818127 L877.171015 149.344426 L873.190141 131.700051 L886.423422 128.714395 L890.404296 146.358770 L914.665312 140.885069 L897.585935 167.916630 L906.408123 165.926193 L899.253707 190.718512 L904.767574 189.474489 Z" fill="#888" fill-opacity="0.18" stroke="#000" stroke-width="1"/>
  <path d="M850.354162 51.421002 L827.526163 69.936379 L825.927871 64.514591 L807.756960 82.835693 L805.199693 74.160832 L789.905707 102.241152 L782.873223 78.385284 L765.523501 83.499818 L761.687600 70.487526 L779.037323 65.372992 L772.004838 41.517124 L800.085159 56.811109 L797.527892 48.136248 L822.731287 53.671015 L821.132995 48.249226 Z" fill="#888" fill-opacity="0.18" stroke="#000" stroke-width="1"/>
  <path d="M502.263663 374.225596 L485.240174 350.264427 L490.752770 349.014782 L473.626478 329.713619 L482.446631 327.714186 L455.397667 310.662385 L479.653088 305.163945 L475.654222 287.523639 L488.884452 284.524490 L492.883317 302.164797 L517.138738 296.666357 L500.086937 323.715321 L508.907090 321.715889 L501.777961 346.515491 L507.290557 345.265846 Z" fill="#888" fill-opacity="0.18" stroke="#000" stroke-width="1"/>
  <path d="M135.569771 326.265211 L162.605479 337.798088 L158.558541 341.744303 L183.246665 349.250386 L176.771563 355.564329 L208.744177 355.967226 L190.937646 373.330571 L203.565533 386.280775 L193.852880 395.751690 L181.224993 382.801486 L163.418462 400.164831 L163.821359 368.192216 L157.346256 374.506160 L150.464663 349.636732 L146.417724 353.582947 Z" fill="#888" fill-opacity="0.18" stroke="#000" stroke-width="1"/>
  <path d="M682.693891 685.115924 L662.967288 706.905783 L660.558334 701.792343 L645.404275 722.677727 L641.549948 714.496223 L630.732006 744.585798 L620.132608 722.086664 L603.769601 729.795317 L597.988111 717.523061 L614.351118 709.814408 L603.751720 687.315274 L633.841295 698.133216 L629.986969 689.951713 L655.740426 691.565464 L653.331472 686.452024 Z" fill="#888" fill-opacity="0.18" stroke="#000" stroke-width="1"/>
  <path d="M192.985587 514.824616 L171.853915 535.254722 L169.790263 529.992435 L153.281151 549.824076 L149.979307 541.404417 L137.184770 570.708175 L128.104698 547.554113 L111.265381 554.157801 L106.312614 541.528312 L123.151932 534.924624 L114.071861 511.770562 L143.375619 524.565099 L140.073775 516.145440 L165.662958 519.467861 L163.599305 514.205574 Z" fill="#888" fill-opacity="0.18" stroke="#000" stroke-width="1"/>
  <path d="M893.925387 915.187760 L875.585368 938.156880 L872.864519 933.202355 L859.032289 954.985702 L854.678932 947.058463 L845.744228 977.759953 L833.772496 955.960047 L817.918019 964.666761 L811.387983 952.775903 L827.242460 944.069189 L815.270727 922.269282 L845.972217 931.203986 L841.618860 923.276747 L867.422823 923.293307 L864.701974 918.338783 Z" fill="#888" fill-opacity="0.18" stroke="#000" stroke-width="1"/>
  <path d="M473.459731 538.809138 L483.309767 511.115934 L487.497167 514.912775 L493.472250 489.810122 L500.172091 495.885068 L498.609853 463.948102 L517.034415 480.654202 L529.184307 467.254521 L539.234068 476.366939 L527.084177 489.766621 L545.508739 506.472722 L513.571773 508.034959 L520.271613 514.109905 L495.871968 522.506457 L500.059369 526.303298 Z" fill="#888" fill-opacity="0.18" stroke="#000" stroke-width="1"/>
  <path d="M319.293669 619.700965 L348.485676 616.271164 L346.935344 621.706861 L372.088860 615.949655 L369.608329 624.646770 L397.552442 609.105310 L390.730982 633.022375 L408.125211 637.983436 L404.404415 651.029108 L387.010186 646.068047 L380.188727 669.985111 L364.647268 642.040999 L362.166737 650.738113 L343.834681 632.578254 L342.284349 638.013950 Z" fill="#888" fill-opacity="0.18" stroke="#000" stroke-width="1"/>
  <path d="M598.163297 152.853516 L626.433821 144.808999 L625.770827 150.422444 L649.683194 140.724843 L648.622403 149.706355 L673.728160 129.904553 L670.810985 154.603710 L688.774008 156.725292 L687.182822 170.197560 L669.219798 168.075978 L666.302623 192.775135 L646.500821 167.669378 L645.440030 176.650890 L624.444838 161.649334 L623.781844 167.262779 Z" fill="#888" fill-opacity="0.18" stroke="#000" stroke-width="1"/>
  <path d="M248.579808 564.490947 L222.660157 578.351266 L222.116879 572.724973 L200.806917 587.275928 L199.937673 578.273859 L179.605611 602.952142 L177.215190 578.196453 L159.211052 579.934941 L157.907185 566.431838 L175.911323 564.693349 L173.520901 539.937660 L198.199185 560.269721 L197.329940 551.267652 L221.030324 561.472387 L220.487046 555.846093 Z" fill="#888" fill-opacity="0.18" stroke="#000" stroke-width="1"/>
  <path d="M754.215419 114.928037 L726.467003 105.234628 L730.240124 101.025841 L705.104113 95.192686 L711.141107 88.458628 L679.213477 90.201288 L695.815210 71.682629 L682.347094 59.608641 L691.402585 49.507554 L704.870701 61.581542 L721.472435 43.062883 L723.215094 74.990513 L729.252088 68.256455 L737.786366 92.608269 L741.559488 88.399483 Z" fill="#888" fill-opacity="0.18" stroke="#000" stroke-width="1"/>
  <path d="M182.118945 864.089423 L206.818829 880.022173 L202.163615 883.228310 L225.229633 894.795662 L217.781291 899.925481 L249.226692 905.721786 L228.743754 919.828789 L239.003392 934.725471 L227.830881 942.420200 L217.571242 927.523517 L197.088304 941.630520 L202.884609 910.185119 L195.436268 915.314938 L192.853189 889.640584 L188.197976 892.846721 Z" fill="#888" fill-opacity="0.18" stroke="#000" stroke-width="1"/>
  <path d="M521.339332 315.906180 L550.550080 312.639840 L548.969345 318.066773 L574.154694 312.450459 L571.625519 321.133551 L599.656189 305.748758 L592.700957 329.627263 L610.067143 334.685614 L606.273380 347.710254 L588.907194 342.651903 L581.951962 366.530408 L566.567168 338.499737 L564.037992 347.182830 L545.807876 328.920639 L544.227141 334.347572 Z" fill="#888" fill-opacity="0.18" stroke="#000" stroke-width="1"/>
  <path d="M281.595526 817.421954 L286.745347 846.360097 L281.227494 845.133871 L288.461866 869.902977 L279.633302 867.941016 L296.799808 894.917329 L272.521258 889.521935 L268.597335 907.179063 L255.354489 904.236121 L259.278412 886.578993 L234.999862 881.183599 L261.976175 864.017093 L253.147611 862.055132 L270.191790 842.681419 L264.673937 841.455193 Z" fill="#888" fill-opacity="0.18" stroke="#000" stroke-width="1"/>
  <path d="M927.323009 939.140787 L933.429025 967.892367 L927.873566 966.849679 L935.924823 991.365429 L927.036089 989.697128 L945.087173 1016.089717 L920.643153 1011.501890 L917.306551 1029.279359 L903.973449 1026.776908 L907.310051 1008.999438 L882.866030 1004.411611 L909.258619 986.360527 L900.369885 984.692226 L916.762647 964.764303 L911.207188 963.721615 Z" fill="#888" fill-opacity="0.18" stroke="#000" stroke-width="1"/>
  <path d="M662.183432 655.148265 L638.146063 638.232543 L642.926766 635.216717 L620.345917 622.728722 L627.995042 617.903401 L596.808928 610.843892 L617.844020 597.574259 L608.193378 582.276009 L619.667065 575.038028 L629.317708 590.336277 L650.352800 577.066644 L643.293291 608.252759 L650.942416 603.427438 L652.488172 629.185066 L657.268875 626.169240 Z" fill="#888" fill-opacity="0.18" stroke="#000" stroke-width="1"/>
  <path d="M538.659000 901.964718 L528.591436 929.579586 L524.434031 925.749925 L518.261678 950.804801 L511.609829 944.677343 L512.920805 976.625610 L494.628222 959.775100 L482.373305 973.078797 L472.395533 963.887610 L484.650449 950.583913 L466.357865 933.733403 L498.306132 932.422427 L491.654283 926.294969 L516.119220 918.090603 L511.961815 914.260941 Z" fill="#888" fill-opacity="0.18" stroke="#000" stroke-width="1"/>
  <path d="M592.233646 286.954761 L574.590679 263.445986 L580.068787 262.052913 L562.444657 243.205240 L571.209630 240.976323 L543.724904 224.636181 L567.828582 218.506660 L563.370748 200.976713 L576.518208 197.633338 L580.976042 215.163285 L605.079719 209.033764 L588.739577 236.518490 L597.504551 234.289573 L591.025004 259.266767 L596.503113 257.873694 Z" fill="#888" fill-opacity="0.18" stroke="#000" stroke-width="1"/>
  <path d="M766.500201 979.542294 L757.965648 1007.668761 L753.604038 1004.073392 L748.818102 1029.429645 L741.839526 1023.677054 L744.904488 1055.504972 L725.713404 1039.685346 L714.208221 1053.642499 L703.740357 1045.013612 L715.245539 1031.056460 L696.054455 1015.236834 L727.882373 1012.171871 L720.903797 1006.419280 L744.880817 996.882653 L740.519207 993.287283 Z" fill="#888" fill-opacity="0.18" stroke="#000" stroke-width="1"/>
  <path d="M909.264327 346.511533 L935.427706 359.906098 L931.114811 363.559763 L955.217838 372.773280 L948.317206 378.619143 L980.183443 381.256064 L961.206706 397.332187 L972.898432 411.133451 L962.547485 419.902245 L950.855759 406.100982 L931.879022 422.177106 L934.515943 390.310869 L927.615311 396.156732 L922.489022 370.867092 L918.176127 374.520756 Z" fill="#888" fill-opacity="0.18" stroke="#000" stroke-width="1"/>
  <path d="M708.041998 540.655602 L704.416178 511.487294 L709.862167 513.001077 L703.936123 487.886802 L712.649704 490.308855 L696.920883 462.469771 L720.883230 469.130415 L725.727335 451.703253 L738.797707 455.336331 L733.953602 472.763494 L757.915950 479.424137 L730.076867 495.152959 L738.790448 497.575011 L720.754143 516.028642 L726.200131 517.542425 Z" fill="#888" fill-opacity="0.18" stroke="#000" stroke-width="1"/>
  <path d="M960.676578 426.342974 L950.560116 453.939966 L946.409500 450.102947 L940.192777 475.146851 L933.551792 469.007620 L934.806176 500.958158 L916.543469 484.075273 L904.265007 497.357242 L894.303530 488.148395 L906.581992 474.866427 L888.319285 457.983541 L920.269823 456.729158 L913.628839 450.589927 L938.108270 442.428908 L933.957655 438.591889 Z" fill="#888" fill-opacity="0.18" stroke="#000" stroke-width="1"/>
  <path d="M399.582627 394.031687 L420.734498 373.622495 L422.792944 378.886821 L439.321665 359.071520 L442.615179 367.494441 L455.438697 338.203354 L464.495860 361.366387 L481.341702 354.779359 L486.281973 367.413741 L469.436131 374.000768 L478.493294 397.163801 L449.202207 384.340283 L452.495720 392.763204 L426.909836 389.415472 L428.968282 394.679797 Z" fill="#888" fill-opacity="0.18" stroke="#000" stroke-width="1"/>
  <path d="M191.332761 212.174130 L217.461364 225.636407 L213.139022 229.278890 L237.218107 238.554796 L230.302359 244.382769 L262.161660 247.102206 L243.143354 263.129131 L254.799300 276.960626 L244.425679 285.702585 L232.769733 271.871090 L213.751427 287.898016 L216.470864 256.038715 L209.555117 261.866688 L204.494337 236.563856 L200.171995 240.206339 Z" fill="#888" fill-opacity="0.18" stroke="#000" stroke-width="1"/>
  <path d="M1046.180157 167.596939 L1018.670447 177.948396 L1018.867652 172.299376 L995.837718 183.938401 L996.153247 174.899968 L972.768343 196.707230 L973.636046 171.851539 L955.559180 171.220483 L956.032472 157.662833 L974.109338 158.293889 L974.977040 133.438198 L996.784303 156.823101 L997.099831 147.784668 L1019.262063 161.001334 L1019.459268 155.352313 Z" fill="#888" fill-opacity="0.18" stroke="#000" stroke-width="1"/>
  <path d="M616.957368 937.438994 L637.092143 916.025736 L639.404055 921.183778 L654.950014 900.588440 L658.649073 908.841306 L670.033591 878.961495 L680.206002 901.656877 L696.711734 894.258760 L702.260322 906.638059 L685.754590 914.036176 L695.927001 936.731557 L666.047190 925.347038 L669.746248 933.599904 L644.027878 931.499860 L646.339789 936.657901 Z" fill="#888" fill-opacity="0.18" stroke="#000" stroke-width="1"/>
  <path d="M446.644704 538.553565 L417.924089 544.803612 L418.938919 539.242997 L394.463831 547.417031 L396.087559 538.520046 L369.785777 556.703188 L374.251029 532.236480 L356.457060 528.989024 L358.892652 515.643547 L376.686621 518.891003 L381.151873 494.424294 L399.335015 520.726076 L400.958743 511.829092 L420.968579 528.121766 L421.983409 522.561150 Z" fill="#888" fill-opacity="0.18" stroke="#000" stroke-width="1"/>
  <path d="M934.672774 628.403419 L909.364081 643.350219 L908.582747 637.752019 L887.908881 653.193393 L886.658747 644.236273 L867.391281 669.754407 L863.953414 645.122327 L846.039174 647.622594 L844.163974 634.186914 L862.078214 631.686647 L858.640347 607.054567 L884.158480 626.322033 L882.908347 617.364913 L907.020080 626.555619 L906.238747 620.957419 Z" fill="#888" fill-opacity="0.18" stroke="#000" stroke-width="1"/>
  <path d="M405.475863 436.059396 L376.090128 435.414868 L378.378043 430.246137 L352.669710 432.465687 L356.330373 424.195718 L326.503795 435.718983 L336.570617 412.976569 L320.030680 405.655244 L325.521675 393.250291 L342.061612 400.571616 L352.128434 377.829203 L363.651699 407.655781 L367.312361 399.385813 L382.953871 419.908677 L385.241786 414.739946 Z" fill="#888" fill-opacity="0.18" stroke="#000" stroke-width="1"/>
  <path d="M401.820143 788.455131 L425.726297 771.354470 L426.993710 776.863008 L446.239551 759.674570 L448.267413 768.488231 L465.231909 741.384425 L470.808529 765.621991 L488.435850 761.566268 L491.477642 774.786758 L473.850322 778.842482 L479.426942 803.080048 L452.323136 786.115551 L454.350998 794.929212 L429.528537 787.880083 L430.795951 793.388621 Z" fill="#888" fill-opacity="0.18" stroke="#000" stroke-width="1"/>
  <path d="M791.759649 317.636388 L821.142511 318.400736 L818.833539 323.560094 L844.550708 321.445393 L840.856354 329.700366 L870.729672 318.298820 L860.570197 340.999995 L877.080143 348.388705 L871.538611 360.771164 L855.028665 353.382455 L844.869190 376.083630 L833.467645 346.210311 L829.773290 354.465284 L814.215596 333.878810 L811.906624 339.038168 Z" fill="#888" fill-opacity="0.18" stroke="#000" stroke-width="1"/>
  <path d="M782.309595 803.502942 L780.677278 832.850384 L775.588407 830.389955 L776.942208 856.158385 L768.800013 852.221698 L779.313783 882.418901 L756.922748 871.593013 L749.049375 887.877402 L736.836083 881.972372 L744.709456 865.687983 L722.318422 854.862095 L752.515624 844.348325 L744.373430 840.411639 L765.410664 825.469097 L760.321792 823.008667 Z" fill="#888" fill-opacity="0.18" stroke="#000" stroke-width="1"/>
  <path d="M712.314368 757.072123 L688.591823 774.426594 L687.265774 768.931876 L668.204213 786.324451 L666.082534 777.532903 L649.407861 804.815969 L643.573245 780.639213 L625.990150 784.882570 L622.807632 771.695248 L640.390727 767.451891 L634.556111 743.275135 L661.839177 759.949808 L659.717498 751.158260 L684.613676 757.942442 L683.287626 752.447724 Z" fill="#888" fill-opacity="0.18" stroke="#000" stroke-width="1"/>
  <path d="M508.860008 214.768913 L527.017793 237.882365 L521.571782 239.396065 L539.607808 257.849968 L530.894191 260.271889 L558.733037 276.001130 L534.770589 282.661413 L539.614430 300.088648 L526.544004 303.721529 L521.700162 286.294294 L497.737714 292.954577 L513.466956 265.115731 L504.753338 267.537651 L510.679760 242.423466 L505.233749 243.937167 Z" fill="#888" fill-opacity="0.18" stroke="#000" stroke-width="1"/>
  <path d="M176.904713 916.625434 L159.460184 940.281832 L156.551099 935.435437 L143.565503 957.733846 L138.910967 949.979613 L131.161724 981.001535 L118.361751 959.677394 L102.853285 968.986466 L95.871481 957.355116 L111.379947 948.046045 L98.579974 926.721904 L129.601896 934.471147 L124.947360 926.716914 L150.732929 925.742645 L147.823844 920.896250 Z" fill="#888" fill-opacity="0.18" stroke="#000" stroke-width="1"/>
  <path d="M419.173353 750.719829 L405.158619 724.883343 L410.781571 724.306503 L396.103718 703.083746 L405.100440 702.160802 L380.301276 681.976357 L405.042261 679.438261 L403.196373 661.444817 L416.691456 660.060402 L418.537344 678.053845 L443.278329 675.515750 L423.093884 700.314914 L432.090606 699.391971 L422.027473 723.152823 L427.650424 722.575983 Z" fill="#888" fill-opacity="0.18" stroke="#000" stroke-width="1"/>
  <path d="M133.265807 246.792187 L111.525668 227.010804 L116.645154 224.614728 L95.797979 209.408149 L103.989157 205.574427 L73.926906 194.680786 L96.452647 184.138050 L88.785202 167.755693 L101.071970 162.005110 L108.739414 178.387467 L131.265156 167.844731 L120.371514 197.906983 L128.562693 194.073261 L126.884128 219.822575 L132.003614 217.426499 Z" fill="#888" fill-opacity="0.18" stroke="#000" stroke-width="1"/>
  <path d="M889.837137 962.316397 L892.722872 933.065597 L897.701880 935.741378 L897.451188 909.938628 L905.417600 914.219878 L896.204695 883.600721 L918.112329 895.374159 L926.674830 879.441334 L938.624448 885.863210 L930.061948 901.796035 L951.969582 913.569473 L921.350425 922.782378 L929.316838 927.063629 L907.659895 941.092941 L912.638903 943.768722 Z" fill="#888" fill-opacity="0.18" stroke="#000" stroke-width="1"/>
  <path d="M523.670541 1054.291020 L516.543216 1025.775445 L522.132321 1026.619380 L513.212027 1002.406302 L522.154596 1003.756598 L503.173912 978.024438 L527.765976 981.737750 L530.466566 963.852612 L543.880419 965.878055 L541.179829 983.763192 L565.771893 987.476504 L540.039733 1006.457188 L548.982302 1007.807483 L533.310532 1028.307249 L538.899638 1029.151183 Z" fill="#888" fill-opacity="0.18" stroke="#000" stroke-width="1"/>
  <path d="M924.845396 325.191929 L938.815570 299.331322 L942.372913 303.724001 L952.117476 279.830733 L957.809225 286.859020 L961.150569 255.058928 L976.802880 274.386718 L990.859454 263.003219 L999.397079 273.545649 L985.340504 284.929148 L1000.992816 304.256938 L969.192724 300.915594 L974.884474 307.943881 L949.487600 312.509360 L953.044944 316.902039 Z" fill="#888" fill-opacity="0.18" stroke="#000" stroke-width="1"/>
  <path d="M716.121713 542.115500 L738.270854 522.793173 L740.062603 528.154139 L757.564621 509.193018 L760.431419 517.770564 L774.708290 489.159703 L782.591985 512.747956 L799.747077 507.014360 L804.047274 519.880679 L786.892182 525.614275 L794.775876 549.202527 L766.165015 534.925657 L769.031813 543.503203 L743.646100 538.876072 L745.437849 544.237038 Z" fill="#888" fill-opacity="0.18" stroke="#000" stroke-width="1"/>
  <path d="M807.632931 531.361182 L827.750307 509.931576 L830.066407 515.087738 L845.595633 494.479780 L849.301394 502.729639 L860.661639 472.840591 L870.852481 495.527702 L887.352198 488.116181 L892.910839 500.490969 L876.411122 507.902490 L886.601964 530.589602 L856.712915 519.229357 L860.418676 527.479215 L834.698608 525.400061 L837.014709 530.556223 Z" fill="#888" fill-opacity="0.18" stroke="#000" stroke-width="1"/>
  <path d="M723.305812 739.561439 L719.851758 710.372292 L725.288741 711.918107 L719.510638 686.769383 L728.209811 689.242687 L712.645140 661.311496 L736.567864 668.113082 L741.514471 650.714737 L754.563230 654.424693 L749.616622 671.823038 L773.539346 678.624623 L745.608155 694.189295 L754.307328 696.662598 L736.162706 715.009736 L741.599689 716.555551 Z" fill="#888" fill-opacity="0.18" stroke="#000" stroke-width="1"/>
  <path d="M930.511291 682.666672 L907.823348 701.353405 L906.184279 695.943805 L888.151829 714.401203 L885.529319 705.745842 L870.447194 733.940521 L863.235289 710.138279 L845.924568 715.383300 L841.990802 702.400259 L859.301523 697.155238 L852.089618 673.352996 L880.284297 688.435121 L877.661786 679.779760 L902.906140 685.124604 L901.267071 679.715003 Z" fill="#888" fill-opacity="0.18" stroke="#000" stroke-width="1"/>
  <path d="M624.968709 1010.548535 L599.894731 995.211246 L604.471911 991.894659 L581.135767 980.882431 L588.459255 975.575892 L556.884187 970.533521 L577.023778 955.940538 L566.410700 941.293562 L577.395931 933.333754 L588.009010 947.980729 L608.148601 933.387746 L603.106230 964.962813 L610.429718 959.656274 L613.626271 985.261485 L618.203450 981.944898 Z" fill="#888" fill-opacity="0.18" stroke="#000" stroke-width="1"/>
  <path d="M512.701500 197.419207 L496.043714 173.202375 L501.574645 172.036557 L484.743327 152.477633 L493.592816 150.612325 L466.805824 133.151872 L491.141919 128.022275 L487.411303 110.323297 L500.685536 107.525335 L504.416152 125.224313 L528.752247 120.094716 L511.291795 146.881709 L520.141284 145.016401 L512.636506 169.704922 L518.167437 168.539105 Z" fill="#888" fill-opacity="0.18" stroke="#000" stroke-width="1"/>
  <path d="M701.214225 218.428293 L707.727477 247.090365 L702.157786 246.126588 L710.555998 270.525662 L701.644492 268.983618 L720.068147 295.117491 L695.561507 290.876872 L692.477420 308.699883 L679.110161 306.386818 L682.194248 288.563806 L657.687608 284.323187 L683.821480 265.899531 L674.909975 264.357488 L691.018404 244.199033 L685.448713 243.235256 Z" fill="#888" fill-opacity="0.18" stroke="#000" stroke-width="1"/>
  <path d="M67.685187 198.943384 L61.815666 170.142594 L67.362369 171.230903 L59.512860 146.649813 L68.387584 148.391108 L50.554010 121.851061 L74.959501 126.639622 L78.442090 108.890174 L91.754176 111.502116 L88.271587 129.251564 L112.677078 134.040124 L86.137031 151.873697 L95.011755 153.614992 L78.455773 173.407521 L84.002476 174.495830 Z" fill="#888" fill-opacity="0.18" stroke="#000" stroke-width="1"/>
  <path d="M445.597265 162.095662 L443.010676 132.816893 L448.399406 134.523324 L443.369926 109.214253 L451.991895 111.944544 L437.262699 83.563895 L460.973113 91.072194 L466.433695 73.828257 L479.366648 77.923693 L473.906066 95.167630 L497.616480 102.675930 L469.235832 117.405125 L477.857801 120.135416 L459.176867 137.936188 L464.565598 139.642619 Z" fill="#888" fill-opacity="0.18" stroke="#000" stroke-width="1"/>
  <path d="M914.312377 108.008091 L887.288487 119.568634 L887.235128 113.916424 L864.743678 126.564722 L864.658304 117.521186 L842.262900 140.343462 L842.028120 115.473738 L823.941048 115.644487 L823.812987 102.079183 L841.900059 101.908434 L841.665279 77.038710 L864.487555 99.434114 L864.402181 90.390578 L887.128410 102.612005 L887.075051 96.959795 Z" fill="#888" fill-opacity="0.18" stroke="#000" stroke-width="1"/>
  <path d="M167.266593 497.107608 L160.855370 468.422542 L166.421596 469.406132 L158.110256 444.977329 L167.016219 446.551072 L148.685671 420.351809 L173.177067 424.679603 L176.324554 406.867678 L189.683497 409.228293 L186.536011 427.040218 L211.027407 431.368011 L184.828143 449.698559 L193.734105 451.272302 L177.554049 471.373311 L183.120276 472.356900 Z" fill="#888" fill-opacity="0.18" stroke="#000" stroke-width="1"/>
  <path d="M435.657641 1039.727412 L418.903387 1015.577221 L424.429623 1014.389349 L407.520419 994.897721 L416.362397 992.997127 L389.505967 975.643667 L413.821406 970.417034 L410.020219 952.733078 L423.283186 949.882187 L427.084373 967.566143 L451.399813 962.339510 L434.046353 989.195939 L442.888331 987.295345 L435.482096 1012.013607 L441.008332 1010.825736 Z" fill="#888" fill-opacity="0.18" stroke="#000" stroke-width="1"/>
  <path d="M409.269580 255.490530 L382.822471 242.665274 L387.055290 238.919134 L362.758529 230.229362 L369.531040 224.235539 L337.615203 222.288817 L356.239610 205.805803 L344.251964 192.260780 L354.410732 183.270045 L366.398378 196.815069 L385.022785 180.332055 L383.076064 212.247892 L389.848576 206.254069 L395.520930 231.426855 L399.753750 227.680716 Z" fill="#888" fill-opacity="0.18" stroke="#000" stroke-width="1"/>
  <path d="M609.692375 163.748027 L580.342715 165.339957 L582.230957 160.012212 L556.765845 164.180283 L559.787032 155.655891 L530.923084 169.413904 L539.231348 145.971826 L522.182564 139.929452 L526.714344 127.142864 L543.763128 133.185238 L552.071393 109.743159 L565.829406 138.607107 L568.850592 130.082715 L586.007441 149.356721 L587.895683 144.028976 Z" fill="#888" fill-opacity="0.18" stroke="#000" stroke-width="1"/>
  <path d="M267.836554 754.762868 L247.935750 776.393744 L245.567903 771.261140 L230.246751 792.024259 L226.458195 783.812093 L215.399170 813.813899 L204.980641 791.230441 L188.556308 798.807553 L182.873474 786.489304 L199.297807 778.912192 L188.879278 756.328735 L218.881083 767.387760 L215.092527 759.175594 L240.832208 760.995933 L238.464360 755.863329 Z" fill="#888" fill-opacity="0.18" stroke="#000" stroke-width="1"/>
  <path d="M153.908784 1042.273057 L126.468014 1031.740205 L130.367394 1027.648119 L105.420417 1021.053189 L111.659425 1014.505852 L79.693564 1015.276675 L96.850835 997.271499 L83.756162 984.793484 L93.114673 974.972479 L106.209346 987.450494 L123.366617 969.445318 L124.137440 1001.411179 L130.376447 994.863842 L138.166153 1019.463949 L142.065533 1015.371863 Z" fill="#888" fill-opacity="0.18" stroke="#000" stroke-width="1"/>
  <path d="M321.067920 436.888022 L350.451740 437.614619 L348.149399 442.776939 L373.863830 440.629198 L370.180084 448.888911 L400.038730 437.448994 L389.908429 460.163203 L406.427854 467.530694 L400.902236 479.920263 L384.382811 472.552772 L374.252510 495.266981 L362.812593 465.408336 L359.128848 473.668048 L343.544717 453.101580 L341.242376 458.263900 Z" fill="#888" fill-opacity="0.18" stroke="#000" stroke-width="1"/>
  <path d="M129.188377 601.241108 L108.141034 621.758080 L106.055724 616.504338 L89.628438 636.403811 L86.291942 627.997823 L73.618213 657.354032 L64.442849 634.237567 L47.630874 640.910559 L42.626130 628.301578 L59.438105 621.628586 L50.262741 598.512120 L79.618949 611.185849 L76.282453 602.779861 L101.885104 605.996854 L99.799794 600.743111 Z" fill="#888" fill-opacity="0.18" stroke="#000" stroke-width="1"/>
  <path d="M936.420023 286.758472 L932.072055 257.689039 L937.553905 259.067316 L931.006945 234.107707 L939.777905 236.312951 L923.363616 208.872442 L947.483754 214.936863 L951.894242 197.394944 L965.050681 200.702810 L960.640194 218.244729 L984.760332 224.309149 L957.319824 240.723439 L966.090784 242.928682 L948.517605 261.823871 L953.999454 263.202148 Z" fill="#888" fill-opacity="0.18" stroke="#000" stroke-width="1"/>
  <path d="M446.116288 831.074451 L454.034117 859.380718 L448.423698 858.692591 L458.014112 882.648148 L449.037441 881.547145 L468.726611 906.741331 L444.040765 903.713572 L441.838759 921.666914 L428.373752 920.015409 L430.575759 902.062067 L405.889913 899.034308 L431.084099 879.345139 L422.107428 878.244135 L437.202859 857.316337 L431.592439 856.628210 Z" fill="#888" fill-opacity="0.18" stroke="#000" stroke-width="1"/>
  <path d="M128.967143 323.085808 L110.683925 346.100167 L107.950845 341.152380 L94.172472 362.969832 L89.799544 355.053373 L80.940716 385.776842 L68.915163 364.006578 L53.082244 372.752435 L46.522852 360.877746 L62.355771 352.131889 L50.330219 330.361626 L81.053688 339.220454 L76.680759 331.303994 L102.484684 331.256806 L99.751604 326.309018 Z" fill="#888" fill-opacity="0.18" stroke="#000" stroke-width="1"/>
  <path d="M562.925657 557.213510 L554.064503 529.188222 L559.694817 529.688113 L549.307689 506.067098 L558.316191 506.866923 L537.794497 482.346106 L562.567878 484.545624 L564.167528 466.528619 L577.680281 467.728356 L576.080631 485.745361 L600.854012 487.944879 L576.333195 508.466573 L585.341697 509.266397 L570.955445 530.687894 L576.585759 531.187784 Z" fill="#888" fill-opacity="0.18" stroke="#000" stroke-width="1"/>
  <path d="M272.956801 361.226091 L247.098835 347.251028 L251.492187 343.694515 L227.600761 333.945436 L234.630124 328.255015 L202.830665 324.907659 L222.161413 309.259002 L210.780572 295.200276 L221.324616 286.664645 L232.705458 300.723371 L252.036206 285.074714 L248.688850 316.874174 L255.718213 311.183753 L260.278891 336.581489 L264.672243 333.024976 Z" fill="#888" fill-opacity="0.18" stroke="#000" stroke-width="1"/>
  <path d="M60.492056 539.976485 L68.574349 511.716738 L72.993069 515.241683 L77.371663 489.811923 L84.441615 495.451834 L80.866512 463.677174 L100.308882 479.186930 L111.588705 465.047025 L122.193634 473.506892 L110.913811 487.646797 L130.356181 503.156554 L98.581521 506.731657 L105.651474 512.371568 L81.830510 522.291572 L86.249231 525.816516 Z" fill="#888" fill-opacity="0.18" stroke="#000" stroke-width="1"/>
  <path d="M970.932870 556.185157 L997.194001 569.387042 L992.908080 573.072310 L1017.078181 582.108405 L1010.220707 588.004834 L1042.105466 590.407445 L1023.247412 606.622627 L1035.040272 620.337575 L1024.754061 629.182219 L1012.961201 615.467271 L994.103148 631.682452 L996.505759 599.797693 L989.648285 605.694123 L984.336237 580.442847 L980.050316 584.128116 Z" fill="#888" fill-opacity="0.18" stroke="#000" stroke-width="1"/>
  <path d="M340.707037 168.056010 L366.260614 153.531842 L366.948811 159.142253 L387.876420 144.046560 L388.977536 153.023217 L408.666390 127.828785 L411.694458 152.514592 L429.647773 150.312361 L431.299446 163.777347 L413.346132 165.979578 L416.374200 190.665386 L391.179767 170.976532 L392.280883 179.953189 L368.325206 170.363074 L369.013403 175.973485 Z" fill="#888" fill-opacity="0.18" stroke="#000" stroke-width="1"/>
  <path d="M294.763735 616.202456 L310.461279 591.352427 L313.711465 595.976993 L325.059319 572.802201 L330.259617 580.201507 L335.757134 548.702496 L350.057956 569.050586 L364.856567 558.649988 L372.657016 569.748947 L357.858404 580.149545 L372.159226 600.497635 L340.660215 595.000118 L345.860514 602.399424 L320.211839 605.226125 L323.462026 609.850691 Z" fill="#888" fill-opacity="0.18" stroke="#000" stroke-width="1"/>
  <path d="M686.663652 786.190832 L713.893712 775.124640 L713.844067 780.776883 L736.562261 768.540526 L736.482829 777.584117 L759.290384 755.173721 L759.071946 780.043594 L777.159127 780.202457 L777.039979 793.767842 L758.952799 793.608979 L758.734361 818.478852 L736.323966 795.671297 L736.244534 804.714887 L713.744777 792.081371 L713.695132 797.733615 Z" fill="#888" fill-opacity="0.18" stroke="#000" stroke-width="1"/>
  <path d="M652.891817 427.168549 L624.315043 434.046395 L625.207790 428.464878 L600.917680 437.173225 L602.346075 428.242798 L576.449020 446.997875 L580.377108 422.439202 L562.516255 419.582411 L564.658849 406.186771 L582.519702 409.043563 L586.447791 384.484890 L605.202867 410.381946 L606.631263 401.451519 L626.993285 417.301845 L627.886032 411.720329 Z" fill="#888" fill-opacity="0.18" stroke="#000" stroke-width="1"/>
  <path d="M716.190562 337.343212 L745.488355 339.704590 L742.902179 344.730724 L768.696301 344.017934 L764.558419 352.059748 L795.007657 342.299918 L783.628483 364.414905 L799.712110 372.690669 L793.505287 384.753389 L777.421660 376.477626 L766.042485 398.592613 L756.282655 368.143375 L752.144774 376.185189 L737.729827 354.782991 L735.143651 359.809124 Z" fill="#888" fill-opacity="0.18" stroke="#000" stroke-width="1"/>
  <path d="M51.490522 912.910694 L50.006536 883.555378 L55.327301 885.463200 L51.252905 859.982932 L59.766129 863.035447 L46.114355 834.121100 L69.525721 842.515515 L75.630751 825.489067 L88.400587 830.067839 L82.295558 847.094287 L105.706924 855.488702 L76.792577 869.140476 L85.305801 872.192991 L65.968831 889.278843 L71.289596 891.186665 Z" fill="#888" fill-opacity="0.18" stroke="#000" stroke-width="1"/>
  <path d="M99.927035 737.961932 L110.223428 765.492298 L104.574813 765.283790 L116.167735 788.336966 L107.129951 788.003354 L128.890380 811.431844 L104.036475 810.514410 L103.369250 828.589978 L89.812575 828.089560 L90.479799 810.013992 L65.625894 809.096558 L89.054384 787.336130 L80.016600 787.002517 L93.277583 764.866775 L87.628969 764.658267 Z" fill="#888" fill-opacity="0.18" stroke="#000" stroke-width="1"/>
  <path d="M341.958243 754.511990 L339.005689 725.267859 L344.415339 726.906764 L339.069730 701.662572 L347.725170 704.284820 L332.642191 676.090599 L356.444651 683.301782 L361.689148 665.990902 L374.672309 669.924274 L369.427812 687.235155 L393.230272 694.446338 L365.036050 709.529317 L373.691491 712.151566 L355.234639 730.184574 L360.644289 731.823480 Z" fill="#888" fill-opacity="0.18" stroke="#000" stroke-width="1"/>
  <path d="M171.623734 873.170283 L149.042521 891.985851 L147.372688 886.585668 L129.445588 905.145406 L126.773854 896.505113 L111.852456 924.785181 L104.505187 901.024374 L87.224601 906.367842 L83.217000 893.407402 L100.497587 888.063934 L93.150318 864.303127 L121.430387 879.224526 L118.758653 870.584233 L144.033020 875.785301 L142.363187 870.385118 Z" fill="#888" fill-opacity="0.18" stroke="#000" stroke-width="1"/>
  <path d="M628.328196 786.404194 L649.909343 806.358915 L644.770846 808.713947 L665.495667 824.086863 L657.274072 827.854915 L687.248187 838.988774 L664.638801 849.350915 L672.174904 865.794104 L659.842511 871.446181 L652.306409 855.002991 L629.697023 865.365132 L640.830882 835.391017 L632.609287 839.159068 L634.493852 813.424011 L629.355356 815.779043 Z" fill="#888" fill-opacity="0.18" stroke="#000" stroke-width="1"/>
  <path d="M81.183829 318.377203 L70.442571 291.017339 L76.093823 291.134265 L64.128773 268.272018 L73.170777 268.459100 L51.033473 245.386385 L75.898983 245.900861 L76.273147 227.816853 L89.836153 228.097477 L89.461988 246.181484 L114.327499 246.695960 L91.254784 268.833264 L100.296788 269.020346 L87.396328 291.368118 L93.047580 291.485044 Z" fill="#888" fill-opacity="0.18" stroke="#000" stroke-width="1"/>
  <path d="M230.127730 974.178571 L217.945678 1000.928045 L214.098290 996.787040 L205.998520 1021.286805 L199.842699 1014.661195 L198.668228 1046.614771 L181.739721 1028.394345 L168.488502 1040.705987 L159.254770 1030.767573 L172.505989 1018.455931 L155.577482 1000.235506 L187.531057 1001.409977 L181.375237 994.784367 L206.403514 988.505028 L202.556126 984.364022 Z" fill="#888" fill-opacity="0.18" stroke="#000" stroke-width="1"/>
  <path d="M709.131530 443.458079 L688.522045 464.414842 L686.326280 459.206297 L670.322783 479.448157 L666.809559 471.114485 L654.758440 500.731725 L645.097073 477.814128 L628.429730 484.840576 L623.159893 472.340068 L639.827237 465.313620 L630.165870 442.396022 L659.783110 454.447141 L656.269886 446.113469 L681.934749 448.789207 L679.738984 443.580662 Z" fill="#888" fill-opacity="0.18" stroke="#000" stroke-width="1"/>
  <path d="M733.360019 983.183457 L752.200647 960.623149 L754.811898 965.636301 L769.119754 944.162362 L773.297755 952.183406 L782.905360 921.685794 L794.394864 943.743663 L810.436950 935.387660 L816.703953 947.419224 L800.661866 955.775228 L812.151370 977.833096 L781.653758 968.225492 L785.831760 976.246535 L760.034400 975.662605 L762.645651 980.675757 Z" fill="#888" fill-opacity="0.18" stroke="#000" stroke-width="1"/>
  <path d="M872.872629 540.752579 L851.472973 560.901810 L849.479001 555.612726 L832.709406 575.224596 L829.519051 566.762063 L816.338605 595.894283 L807.565130 572.622316 L790.640063 579.003026 L785.854531 566.309226 L802.779598 559.928517 L794.006122 536.656550 L823.138342 549.836997 L819.947987 541.374463 L845.491058 545.034560 L843.497086 539.745477 Z" fill="#888" fill-opacity="0.18" stroke="#000" stroke-width="1"/>
  <path d="M272.272156 699.187808 L244.538688 708.923903 L244.861680 703.280677 L221.578194 714.403810 L222.094980 705.374648 L198.230111 726.655588 L199.651272 701.825393 L181.592948 700.791821 L182.368127 687.248079 L200.426451 688.281650 L201.847612 663.451455 L223.128552 687.316324 L223.645338 678.287163 L245.507662 691.994225 L245.830653 686.350999 Z" fill="#888" fill-opacity="0.18" stroke="#000" stroke-width="1"/>
  <path d="M405.543315 379.246701 L378.025758 368.916121 L381.894911 364.795444 L356.900066 358.384322 L363.090711 351.791238 L331.131390 352.797335 L348.155663 334.666356 L334.969496 322.285066 L344.255463 312.395441 L357.441630 324.776730 L374.465903 306.645751 L375.472000 338.605071 L381.662645 332.011988 L389.633217 356.554089 L393.502370 352.433412 Z" fill="#888" fill-opacity="0.18" stroke="#000" stroke-width="1"/>
  <path d="M250.528505 522.056285 L276.340739 536.115636 L271.935808 539.657796 L295.795300 549.484770 L288.747409 555.152227 L320.535778 558.603311 L301.154079 574.188818 L312.488992 588.284599 L301.917156 596.785785 L290.582243 582.690003 L271.200543 598.275510 L274.651628 566.487141 L267.603737 572.154597 L263.125944 546.742117 L258.721013 550.284278 Z" fill="#888" fill-opacity="0.18" stroke="#000" stroke-width="1"/>
  <path d="M581.816590 733.280753 L557.637676 716.567977 L562.392822 713.512014 L539.707649 701.214547 L547.315883 696.325007 L516.071446 689.528273 L536.994090 676.082037 L527.215009 660.865569 L538.627360 653.531258 L548.406441 668.747726 L569.329084 655.301489 L562.532351 686.545926 L570.140585 681.656385 L571.903114 707.400088 L576.658261 704.344126 Z" fill="#888" fill-opacity="0.18" stroke="#000" stroke-width="1"/>
  <path d="M520.745451 792.548812 L550.102717 793.993713 L547.674830 799.098190 L573.434091 797.579886 L569.549473 805.747050 L599.678930 795.040687 L588.996228 817.500388 L605.330556 825.269626 L599.503628 837.520372 L583.169300 829.751134 L572.486599 852.210836 L561.780235 822.081379 L557.895617 830.248543 L542.819057 809.307145 L540.391170 814.411623 Z" fill="#888" fill-opacity="0.18" stroke="#000" stroke-width="1"/>
  <path d="M1048.010187 429.651597 L1023.916275 446.486686 L1022.709892 440.964462 L1003.275037 457.938889 L1001.344824 449.103330 L984.081459 476.017761 L978.773372 451.719973 L961.102254 455.580399 L958.206934 442.327061 L975.878052 438.466634 L970.569966 414.168846 L997.484397 431.432211 L995.554184 422.596652 L1020.297126 429.920012 L1019.090742 424.397788 Z" fill="#888" fill-opacity="0.18" stroke="#000" stroke-width="1"/>
  <path d="M390.736014 838.923223 L367.736151 820.621773 L372.686102 817.892615 L350.879576 804.096957 L358.799498 799.730304 L328.083059 790.847131 L349.862845 778.838835 L341.129538 762.998990 L353.009422 756.449010 L361.742729 772.288855 L383.522515 760.280558 L374.639343 790.996997 L382.559265 786.630344 L382.586005 812.434298 L387.535957 809.705140 Z" fill="#888" fill-opacity="0.18" stroke="#000" stroke-width="1"/>
  <path d="M218.301562 178.009178 L246.961538 171.486715 L245.999551 177.056715 L270.395925 168.650663 L268.856746 177.562663 L294.984696 159.130610 L290.751953 183.638612 L308.575954 186.716971 L306.267185 200.084972 L288.443184 197.006613 L284.210440 221.514616 L265.778387 195.386665 L264.239207 204.298666 L244.075577 188.196716 L243.113590 193.766717 Z" fill="#888" fill-opacity="0.18" stroke="#000" stroke-width="1"/>
  <path d="M806.650055 124.040181 L825.725789 146.402049 L820.345299 148.134290 L839.111338 165.845319 L830.502555 168.616904 L858.953475 183.209899 L835.279322 190.831758 L840.822491 208.049324 L827.909317 212.206702 L822.366147 194.989135 L798.691993 202.610994 L813.284989 174.160073 L804.676205 176.931658 L809.584320 151.598771 L804.203831 153.331012 Z" fill="#888" fill-opacity="0.18" stroke="#000" stroke-width="1"/>
  <path d="M487.159135 568.154747 L516.349887 571.595204 L513.580076 576.522522 L539.382936 576.761666 L534.951238 584.645376 L565.739758 576.015346 L553.552588 597.695549 L569.320009 606.558945 L562.672461 618.384510 L546.905041 609.521114 L534.717872 631.201317 L526.087842 600.412796 L521.656144 608.296506 L508.040453 586.377160 L505.270642 591.304479 Z" fill="#888" fill-opacity="0.18" stroke="#000" stroke-width="1"/>
  <path d="M852.378730 676.801517 L837.695605 702.264090 L834.261652 697.774292 L823.857157 721.387662 L818.362831 714.203985 L814.139452 745.898992 L799.030057 726.143880 L784.662703 737.132531 L776.421214 726.357015 L790.788568 715.368364 L775.679173 695.613252 L807.374180 699.836631 L801.879854 692.652954 L827.393745 688.794696 L823.959791 684.304897 Z" fill="#888" fill-opacity="0.18" stroke="#000" stroke-width="1"/>
  <path d="M704.706448 576.640536 L675.836400 571.121741 L678.951427 566.405075 L653.231706 564.321634 L658.215748 556.774969 L626.888979 563.181527 L640.595095 542.428198 L625.501765 532.460113 L632.977828 521.140115 L648.071159 531.108200 L661.777275 510.354871 L668.183832 541.681639 L673.167874 534.134974 L685.181479 556.971744 L688.296506 552.255078 Z" fill="#888" fill-opacity="0.18" stroke="#000" stroke-width="1"/>
  <path d="M220.017236 203.009050 L193.677859 189.963973 L197.941732 186.253217 L173.718186 177.361390 L180.540382 171.424180 L148.641865 169.211714 L167.402905 152.884386 L155.528485 139.239993 L165.761779 130.334177 L177.636200 143.978570 L196.397240 127.651242 L194.184775 159.549759 L201.006972 153.612548 L206.469477 178.831704 L210.733350 175.120947 Z" fill="#888" fill-opacity="0.18" stroke="#000" stroke-width="1"/>
  <path d="M977.364062 576.434239 L981.237444 605.570705 L975.778797 604.103224 L981.917893 629.166270 L973.184059 626.818299 L989.148719 654.522812 L965.130674 648.065893 L960.434733 665.533562 L947.333981 662.011606 L952.029922 644.543937 L928.011877 638.087018 L955.716390 622.122358 L946.982555 619.774388 L964.861504 601.168261 L959.402857 599.700779 Z" fill="#888" fill-opacity="0.18" stroke="#000" stroke-width="1"/>
  <path d="M711.855149 264.680215 L740.379656 271.771709 L737.011010 276.310713 L762.578044 279.799490 L757.188210 287.061895 L788.818806 282.380467 L773.996764 302.352080 L788.521574 313.131747 L780.436823 324.025355 L765.912013 313.245687 L751.089971 333.217301 L746.408543 301.586705 L741.018709 308.849109 L730.273718 285.388719 L726.905072 289.927722 Z" fill="#888" fill-opacity="0.18" stroke="#000" stroke-width="1"/>
  <path d="M645.333365 107.374401 L616.251440 111.638016 L617.645615 106.160188 L592.667117 112.634708 L594.897798 103.870183 L567.409784 120.204794 L573.544156 96.102351 L556.015106 91.640990 L559.361127 78.494202 L576.890177 82.955563 L583.024548 58.853120 L599.359159 86.341133 L601.589839 77.576609 L620.433966 95.204531 L621.828141 89.726703 Z" fill="#888" fill-opacity="0.18" stroke="#000" stroke-width="1"/>
  <path d="M969.425264 825.750415 L948.144936 846.025632 L946.119773 840.748413 L929.466253 860.458944 L926.225994 852.015393 L913.217766 881.224919 L904.307052 858.005155 L887.419951 864.485674 L882.559561 851.820348 L899.446663 845.339828 L890.535949 822.120064 L919.745475 835.128292 L916.505215 826.684741 L942.069449 830.193974 L940.044287 824.916755 Z" fill="#888" fill-opacity="0.18" stroke="#000" stroke-width="1"/>
  <path d="M215.723190 1038.224791 L235.850949 1016.804938 L238.164550 1021.962221 L253.703762 1001.361793 L257.405524 1009.613447 L268.780254 979.729907 L278.960099 1002.421955 L295.463406 995.018432 L301.016049 1007.395912 L284.512742 1014.799436 L294.692587 1037.491484 L264.809047 1026.116754 L268.510809 1034.368408 L242.791752 1032.276789 L245.105353 1037.434072 Z" fill="#888" fill-opacity="0.18" stroke="#000" stroke-width="1"/>
  <path d="M730.008075 901.792283 L757.804387 892.237084 L757.444636 897.878086 L780.800096 886.906885 L780.224495 895.932489 L804.227507 874.807484 L802.644602 899.627893 L820.695809 900.779097 L819.832407 914.317502 L801.781200 913.166298 L800.198296 937.986707 L779.073291 913.983695 L778.497690 923.009298 L756.725134 909.160090 L756.365383 914.801092 Z" fill="#888" fill-opacity="0.18" stroke="#000" stroke-width="1"/>
  <path d="M379.227924 115.330378 L351.280148 124.433046 L351.731433 118.798628 L328.200934 129.389208 L328.922989 120.374139 L304.580177 141.106671 L306.565831 116.315232 L288.535693 114.871120 L289.618777 101.348517 L307.648915 102.792629 L309.634569 78.001189 L330.367101 102.344001 L331.089157 93.328932 L352.634002 107.529792 L353.085287 101.895374 Z" fill="#888" fill-opacity="0.18" stroke="#000" stroke-width="1"/>
  <path d="M453.838293 641.889789 L481.496812 651.836804 L477.685321 656.010874 L502.766882 662.073882 L496.668497 668.752394 L528.610742 667.302076 L511.840183 685.667985 L525.197208 697.864755 L516.049630 707.882524 L502.692605 695.685754 L485.922046 714.051664 L484.471727 682.109420 L478.373342 688.787932 L470.062340 664.359015 L466.250849 668.533085 Z" fill="#888" fill-opacity="0.18" stroke="#000" stroke-width="1"/>
  <path d="M42.215247 654.789802 L71.051946 660.480282 L67.908909 665.178329 L93.615778 667.414771 L88.586920 674.931646 L119.951254 668.711603 L106.121894 689.383011 L121.155645 699.440727 L113.612358 710.716040 L98.578607 700.658324 L84.749247 721.329731 L78.529204 689.965397 L73.500345 697.482273 L61.622837 674.574423 L58.479800 679.272470 Z" fill="#888" fill-opacity="0.18" stroke="#000" stroke-width="1"/>
  <path d="M248.831020 825.497452 L263.491813 800.022015 L266.929702 804.508800 L277.313489 780.886317 L282.814111 788.065174 L287.009698 756.366476 L302.136409 776.108332 L316.494123 765.107088 L324.745056 775.875374 L310.387342 786.876618 L325.514053 806.618475 L293.815355 802.422888 L299.315977 809.601744 L273.805479 813.482372 L277.243368 817.969157 Z" fill="#888" fill-opacity="0.18" stroke="#000" stroke-width="1"/>
  <path d="M230.918539 346.407223 L240.192037 374.298782 L234.554963 373.881980 L245.289317 397.347239 L236.269999 396.680356 L257.151086 420.895859 L232.347961 419.061930 L231.014195 437.100566 L217.485218 436.100242 L218.818984 418.061605 L194.015860 416.227677 L218.231363 395.346589 L209.212045 394.679706 L223.280815 373.048376 L217.643742 372.631574 Z" fill="#888" fill-opacity="0.18" stroke="#000" stroke-width="1"/>
  <path d="M799.953706 1045.175114 L818.924729 1022.724344 L821.506890 1027.752541 L835.938924 1006.361862 L840.070382 1014.406977 L849.854524 983.965542 L861.216035 1006.089610 L877.306266 997.826693 L883.503454 1009.894366 L867.413223 1018.157283 L878.774734 1040.281350 L848.333299 1030.497208 L852.464758 1038.542323 L826.671214 1037.808936 L829.253375 1042.837133 Z" fill="#888" fill-opacity="0.18" stroke="#000" stroke-width="1"/>
  <path d="M537.426498 878.462116 L565.087669 868.522477 L564.806157 874.167925 L588.007272 862.873987 L587.556854 871.906703 L611.264690 850.450960 L610.026038 875.290929 L628.091470 876.191766 L627.415842 889.740840 L609.350410 888.840003 L608.111759 913.679971 L586.656016 889.972135 L586.205597 899.004850 L564.243134 885.458819 L563.961622 891.104267 Z" fill="#888" fill-opacity="0.18" stroke="#000" stroke-width="1"/>
  <path d="M290.911704 699.623998 L265.004532 685.740365 L269.385293 682.168355 L245.459578 672.503733 L252.468796 666.788517 L220.657710 663.553513 L239.933059 647.836668 L228.502626 633.818233 L239.016453 625.245408 L250.446886 639.263844 L269.722234 623.546999 L266.487231 655.358084 L273.496449 649.642868 L278.146815 675.024334 L282.527577 671.452324 Z" fill="#888" fill-opacity="0.18" stroke="#000" stroke-width="1"/>
  <path d="M420.637076 1052.119026 L392.820674 1042.622473 L396.563878 1038.387058 L371.387167 1032.732152 L377.376295 1025.955488 L345.461814 1027.924329 L361.931916 1009.288502 L348.378587 997.310246 L357.362279 987.145250 L370.915608 999.123505 L387.385709 980.487679 L389.354550 1012.402159 L395.343678 1005.625495 L404.050288 1029.916228 L407.793493 1025.680812 Z" fill="#888" fill-opacity="0.18" stroke="#000" stroke-width="1"/>
  <path d="M345.500674 509.239014 L316.572606 514.445130 L317.788094 508.924902 L293.033110 516.207453 L294.977890 507.375089 L268.035029 524.594050 L273.383174 500.305048 L255.718445 496.415488 L258.635615 483.166941 L276.300344 487.056501 L281.648489 462.767499 L298.867450 489.710360 L300.812230 480.877995 L320.219069 497.884447 L321.434556 492.364219 Z" fill="#888" fill-opacity="0.18" stroke="#000" stroke-width="1"/>
  <path d="M923.559928 67.143582 L941.736569 90.242207 L936.291795 91.760352 L954.342876 110.199529 L945.631238 112.628561 L973.482912 128.335078 L949.525907 135.014914 L954.383969 152.438190 L941.316512 156.081737 L936.458450 138.658461 L912.501445 145.338297 L928.207962 117.486623 L919.496324 119.915654 L925.402248 94.796641 L919.957474 96.314786 Z" fill="#888" fill-opacity="0.18" stroke="#000" stroke-width="1"/>
  <path d="M246.559869 852.011940 L217.936566 858.693501 L218.867598 853.118243 L194.518294 861.659681 L196.007946 852.739268 L169.982784 871.316171 L174.079326 846.785035 L156.238500 843.805731 L158.472978 830.425112 L176.313804 833.404416 L180.410346 808.873280 L198.987250 834.898442 L200.476901 825.978029 L220.729663 841.967726 L221.660695 836.392468 Z" fill="#888" fill-opacity="0.18" stroke="#000" stroke-width="1"/>
  <path d="M711.757942 636.108008 L728.544365 611.980165 L731.585815 616.744608 L743.952394 594.097036 L748.818713 601.720144 L755.710683 570.496577 L769.093062 591.460122 L784.339277 581.727483 L791.638756 593.162144 L776.392541 602.894783 L789.774919 623.858328 L758.551352 616.966359 L763.417672 624.589466 L737.668714 626.273492 L740.710164 631.037934 Z" fill="#888" fill-opacity="0.18" stroke="#000" stroke-width="1"/>
  <path d="M1000.165039 927.548918 L979.246380 906.900759 L984.458971 904.714618 L964.246706 888.673760 L972.586853 885.175935 L942.991923 873.070131 L965.927326 863.451112 L958.931676 846.770818 L971.441896 841.524080 L978.437547 858.204374 L1001.372950 848.585354 L989.267147 878.180284 L997.607294 874.682459 L994.884155 900.342336 L1000.096747 898.156195 Z" fill="#888" fill-opacity="0.18" stroke="#000" stroke-width="1"/>
  <path d="M1033.334989 81.585831 L1005.503920 91.039317 L1005.884298 85.399668 L982.488872 96.285386 L983.097476 87.261948 L959.017372 108.299033 L960.691032 83.484579 L942.644156 82.267371 L943.557062 68.732214 L961.603938 69.949422 L963.277599 45.134967 L984.314684 69.215072 L984.923288 60.191634 L1006.645052 74.120371 L1007.025430 68.480722 Z" fill="#888" fill-opacity="0.18" stroke="#000" stroke-width="1"/>
  <path d="M489.897884 207.906915 L461.970701 217.072570 L462.409282 211.437149 L438.902720 222.080752 L439.604449 213.064079 L415.308441 233.851440 L417.238196 209.055587 L399.204849 207.652129 L400.257442 194.127118 L418.290790 195.530576 L420.220545 170.734723 L441.007907 195.030731 L441.709636 186.014057 L463.286443 200.166306 L463.725024 194.530885 Z" fill="#888" fill-opacity="0.18" stroke="#000" stroke-width="1"/>
  <path d="M347.990144 100.308296 L368.829460 79.580062 L370.967659 84.812502 L387.193382 64.748339 L390.614500 73.120243 L402.991467 43.637687 L412.399541 66.660424 L429.143350 59.818188 L434.275027 72.376045 L417.531218 79.218281 L426.939292 102.241018 L397.456736 89.864052 L400.877854 98.235956 L375.244056 95.277383 L377.382255 100.509823 Z" fill="#888" fill-opacity="0.18" stroke="#000" stroke-width="1"/>
  <path d="M635.693921 187.125982 L648.775470 213.447263 L643.135483 213.822591 L657.044767 235.556817 L648.020788 236.157342 L672.082049 257.215978 L647.266106 258.867422 L648.467157 276.915380 L634.931188 277.816168 L633.730137 259.768210 L608.914194 261.419654 L629.972830 237.358393 L620.948850 237.958918 L631.855509 214.573248 L626.215522 214.948576 Z" fill="#888" fill-opacity="0.18" stroke="#000" stroke-width="1"/>
  <path d="M661.327548 1028.753637 L633.782642 1039.011070 L633.999141 1033.362756 L610.929587 1044.923051 L611.275985 1035.885749 L587.816732 1057.613009 L588.769328 1032.760427 L570.694723 1032.067630 L571.214320 1018.511676 L589.288926 1019.204473 L590.241521 994.351890 L611.968782 1017.811143 L612.315180 1008.773841 L634.432139 1022.066128 L634.648638 1016.417814 Z" fill="#888" fill-opacity="0.18" stroke="#000" stroke-width="1"/>
  <path d="M125.626245 793.571430 L118.443809 765.069686 L124.034536 765.902815 L115.067451 741.707026 L124.012614 743.040032 L104.982222 717.344612 L129.581418 721.010378 L132.247429 703.120053 L145.665173 705.119562 L142.999162 723.009886 L167.598358 726.675651 L141.902938 745.706043 L150.848100 747.039049 L135.215988 767.569072 L140.806715 768.402200 Z" fill="#888" fill-opacity="0.18" stroke="#000" stroke-width="1"/>
  <path d="M1014.337395 1043.504132 L994.910828 1021.446361 L1000.263285 1019.629350 L981.219835 1002.216947 L989.783766 999.309729 L961.105894 985.167946 L984.656704 977.173097 L978.842269 960.045235 L991.688165 955.684408 L997.502601 972.812270 L1021.053412 964.817421 L1006.911628 993.495293 L1015.475559 990.588076 L1010.968199 1015.995328 L1016.320656 1014.178317 Z" fill="#888" fill-opacity="0.18" stroke="#000" stroke-width="1"/>
  <path d="M168.320032 410.032587 L139.507991 415.846628 L140.606981 410.302032 L116.010819 418.104183 L117.769203 409.232830 L91.194858 427.015254 L96.030414 402.619032 L78.287707 399.102264 L80.925282 385.795233 L98.667990 389.312001 L103.503546 364.915778 L121.285970 391.490122 L123.044354 382.618768 L142.804961 399.212840 L143.903951 393.668243 Z" fill="#888" fill-opacity="0.18" stroke="#000" stroke-width="1"/>
  <path d="M137.707477 99.084287 L161.652663 82.038323 L162.907480 87.549744 L182.192565 70.405349 L184.200273 79.223623 L201.226687 52.158671 L206.747882 76.408922 L224.384429 72.393507 L227.395990 85.620917 L209.759444 89.636332 L215.280639 113.886583 L188.215688 96.860169 L190.223395 105.678442 L165.417114 98.572585 L166.671931 104.084006 Z" fill="#888" fill-opacity="0.18" stroke="#000" stroke-width="1"/>
  <path d="M181.940075 732.438538 L157.355356 716.328655 L162.033495 713.156063 L139.051221 701.423209 L146.536243 696.347062 L115.133319 690.324873 L135.717131 676.365469 L125.564837 661.395424 L136.792371 653.781203 L146.944665 668.751248 L167.528477 654.791843 L161.506288 686.194767 L168.991311 681.118620 L171.389773 706.810879 L176.067912 703.638287 Z" fill="#888" fill-opacity="0.18" stroke="#000" stroke-width="1"/>
  <path d="M139.452259 116.940931 L114.148920 101.985070 L118.675355 98.599555 L95.175140 87.941945 L102.417437 82.525122 L70.769638 77.961437 L90.685954 63.065174 L79.852309 48.580581 L90.715754 40.455347 L101.549399 54.939940 L121.465715 40.043677 L116.902031 71.691476 L124.144327 66.274653 L127.728226 91.828527 L132.254662 88.443012 Z" fill="#888" fill-opacity="0.18" stroke="#000" stroke-width="1"/>
  <path d="M493.709577 711.709482 L521.320416 721.788091 L517.489092 725.943964 L542.541498 732.126338 L536.411379 738.775735 L568.360168 737.477538 L551.502343 755.763380 L564.801137 768.023617 L555.605959 777.997712 L542.307165 765.737476 L525.449340 784.023318 L524.151143 752.074530 L518.021025 758.723927 L509.826444 734.255710 L505.995120 738.411583 Z" fill="#888" fill-opacity="0.18" stroke="#000" stroke-width="1"/>
  <path d="M910.339491 792.245504 L923.851538 766.142604 L927.485777 770.471880 L936.807555 746.410516 L942.622337 753.337358 L945.402485 721.483298 L961.393137 740.532112 L975.246820 728.902547 L983.968994 739.292809 L970.115311 750.922375 L986.105963 769.971189 L954.251903 767.191041 L960.066685 774.117883 L934.754255 779.130432 L938.388494 783.459708 Z" fill="#888" fill-opacity="0.18" stroke="#000" stroke-width="1"/>
</svg>
