<?xml version="1.0" encoding="UTF-8"?>
<svg xmlns="http://www.w3.org/2000/svg" width="1100" height="1100" viewBox="0 0 1100 1100">
  <rect x="0" y="0" width="1100" height="1100" fill="white"/>
  <text x="10.0" y="18.0" font-family="monospace" font-size="12">prefix=N167_job5048571_task167 run_id=167 L=11.235931471 feas=0.000e+00 N=167</text>
  <rect x="40.000000" y="40.000000" width="1020.000000" height="1020.000000" fill="none" stroke="#000" stroke-width="2"/>
  <path d="M567.823200 762.505932 L588.388623 741.351180 L590.622793 746.566547 L606.569089 726.156058 L610.143761 734.500646 L622.068551 704.702496 L631.898899 727.650113 L648.588075 720.500769 L653.950084 733.017651 L637.260908 740.166995 L647.091256 763.114612 L617.293106 751.189822 L620.867778 759.534410 L595.091134 756.997282 L597.325304 762.212650 Z" fill="#888" fill-opacity="0.18" stroke="#000" stroke-width="1"/>
  <path d="M703.667374 536.724331 L729.930892 550.166346 L725.602168 553.834277 L749.797086 563.079727 L742.871127 568.948416 L774.857749 571.591590 L755.811362 587.730487 L767.548741 601.582405 L757.159802 610.385440 L745.422423 596.533521 L726.376035 612.672418 L729.019209 580.685796 L722.093249 586.554486 L716.944719 561.170140 L712.615994 564.838071 Z" fill="#888" fill-opacity="0.18" stroke="#000" stroke-width="1"/>
  <path d="M960.493693 683.371770 L989.992593 682.847339 L987.903816 688.122619 L1013.600248 684.872110 L1010.258205 693.312559 L1039.714435 680.566545 L1030.523816 703.777779 L1047.404714 710.461866 L1042.391649 723.122539 L1025.510751 716.438453 L1016.320132 739.649687 L1003.574118 710.193457 L1000.232075 718.633906 L983.726262 698.673180 L981.637485 703.948461 Z" fill="#888" fill-opacity="0.18" stroke="#000" stroke-width="1"/>
  <path d="M618.085678 367.311876 L646.420593 375.533360 L642.865380 379.955129 L668.373922 384.448089 L662.685582 391.522918 L694.593506 388.056695 L678.950571 407.512476 L693.100230 418.889157 L684.567719 429.501402 L670.418060 418.124721 L654.775124 437.580502 L651.308901 405.672578 L645.620561 412.747407 L635.754954 388.798666 L632.199742 393.220434 Z" fill="#888" fill-opacity="0.18" stroke="#000" stroke-width="1"/>
  <path d="M891.719542 186.303126 L870.273158 206.564241 L868.262781 201.258587 L851.462995 220.972531 L848.246393 212.483485 L835.065284 241.747606 L826.219628 218.402730 L809.241536 224.835934 L804.416632 212.102366 L821.394724 205.669161 L812.549067 182.324285 L841.813188 195.505394 L838.596586 187.016348 L864.242028 190.647280 L862.231652 185.341626 Z" fill="#888" fill-opacity="0.18" stroke="#000" stroke-width="1"/>
  <path d="M765.070821 384.593223 L786.653170 364.477001 L788.627769 369.796074 L805.559941 350.195717 L808.719300 358.706233 L822.097192 329.531546 L830.785429 352.935464 L847.806461 346.616746 L852.545499 359.382520 L835.524467 365.701238 L844.212705 389.105157 L815.038017 375.727265 L818.197376 384.237780 L792.576968 380.434219 L794.551567 385.753291 Z" fill="#888" fill-opacity="0.18" stroke="#000" stroke-width="1"/>
  <path d="M842.468041 320.402417 L819.270776 302.172028 L824.222714 299.402572 L802.250626 285.687625 L810.173726 281.256495 L779.288151 272.526570 L801.076676 260.340962 L792.214416 244.494762 L804.099067 237.848067 L812.961327 253.694267 L834.749852 241.508660 L826.019926 272.394235 L833.943027 267.963105 L834.126589 293.863660 L839.078526 291.094203 Z" fill="#888" fill-opacity="0.18" stroke="#000" stroke-width="1"/>
  <path d="M707.943098 334.714683 L733.593221 349.293139 L729.108131 352.768127 L752.875281 363.063513 L745.699137 368.623494 L777.539449 372.663902 L757.805053 387.953849 L768.925015 402.306137 L758.160799 410.646109 L747.040837 396.293821 L727.306441 411.583768 L731.346849 379.743456 L724.170705 385.303437 L720.137951 359.718103 L715.652861 363.193091 Z" fill="#888" fill-opacity="0.18" stroke="#000" stroke-width="1"/>
  <path d="M368.263392 110.533279 L384.418132 135.221019 L378.840816 136.262708 L395.277668 156.280258 L386.353962 157.946960 L412.829984 176.089469 L388.289792 180.672902 L391.623198 198.520314 L378.237638 201.020368 L374.904233 183.172956 L350.364041 187.756388 L368.506550 161.280366 L359.582844 162.947068 L367.686183 138.346087 L362.108867 139.387776 Z" fill="#888" fill-opacity="0.18" stroke="#000" stroke-width="1"/>
  <path d="M654.209876 506.959182 L672.808427 529.862327 L667.367147 531.469825 L685.767955 549.698448 L677.061908 552.270445 L705.257019 567.605570 L681.315389 574.678563 L686.459384 592.090657 L673.400313 595.948653 L668.256318 578.536558 L644.314688 585.609551 L659.649813 557.414439 L650.943766 559.986436 L656.484588 534.684822 L651.043309 536.292320 Z" fill="#888" fill-opacity="0.18" stroke="#000" stroke-width="1"/>
  <path d="M110.822836 653.897016 L125.555120 679.459097 L119.927807 680.183609 L135.205944 701.098936 L126.202243 702.258156 L151.609544 721.869361 L126.849365 725.057214 L129.167804 743.064617 L115.662251 744.803446 L113.343813 726.796043 L88.583634 729.983896 L108.194840 704.576594 L99.191138 705.735813 L108.673180 681.632633 L103.045866 682.357145 Z" fill="#888" fill-opacity="0.18" stroke="#000" stroke-width="1"/>
  <path d="M480.829817 1059.544577 L452.167129 1052.550973 L455.528618 1047.980201 L429.850251 1044.589943 L435.228634 1037.276706 L403.499586 1042.113840 L418.290139 1022.002440 L403.663666 1011.245674 L411.731241 1000.275819 L426.357714 1011.032585 L441.148267 990.921185 L445.985400 1022.650234 L451.363783 1015.336998 L462.251597 1038.838655 L465.613087 1034.267882 Z" fill="#888" fill-opacity="0.18" stroke="#000" stroke-width="1"/>
  <path d="M966.903617 936.308389 L993.262465 923.054286 L993.665646 928.713705 L1015.416324 914.650262 L1016.061412 923.705332 L1037.086366 899.454936 L1038.860359 924.356378 L1056.970499 923.066201 L1057.938132 936.648805 L1039.827992 937.938983 L1041.601986 962.840425 L1017.351590 941.815472 L1017.996678 950.870542 L994.472007 940.032542 L994.875187 945.691961 Z" fill="#888" fill-opacity="0.18" stroke="#000" stroke-width="1"/>
  <path d="M889.919172 985.255452 L919.411330 986.075695 L917.084352 991.250321 L942.902205 989.174057 L939.179040 997.453457 L969.185453 986.062867 L958.946750 1008.831219 L975.505551 1016.277549 L969.920804 1028.696650 L953.362003 1021.250320 L943.123300 1044.018672 L931.732710 1014.012258 L928.009546 1022.291659 L912.430396 1001.599571 L910.103418 1006.774197 Z" fill="#888" fill-opacity="0.18" stroke="#000" stroke-width="1"/>
  <path d="M223.005423 327.491853 L252.471015 328.988189 L250.025986 334.108091 L275.884662 332.624423 L271.972615 340.816267 L302.232344 330.116774 L291.474215 352.644346 L307.857904 360.468441 L301.989833 372.756208 L285.606144 364.932113 L274.848014 387.459686 L264.148521 357.199957 L260.236474 365.391801 L245.135927 344.347897 L242.690898 349.467800 Z" fill="#888" fill-opacity="0.18" stroke="#000" stroke-width="1"/>
  <path d="M956.434478 694.600165 L964.461284 722.990842 L958.827820 722.315817 L968.521339 746.334728 L959.507797 745.254687 L979.341551 770.488644 L954.554310 767.518532 L952.394228 785.545617 L938.873915 783.925556 L941.033997 765.898471 L916.246756 762.928360 L941.480713 743.094606 L932.467170 742.014565 L947.560893 720.965766 L941.927429 720.290740 Z" fill="#888" fill-opacity="0.18" stroke="#000" stroke-width="1"/>
  <path d="M251.476958 931.650358 L240.290030 958.950775 L236.271238 954.945668 L229.092154 979.832074 L222.662086 973.423903 L222.716828 1005.519500 L205.034141 987.897030 L192.217799 1000.757166 L182.572697 991.144909 L195.389039 978.284773 L177.706352 960.662303 L209.801950 960.607561 L203.371882 954.199389 L228.233653 946.935455 L224.214860 942.930348 Z" fill="#888" fill-opacity="0.18" stroke="#000" stroke-width="1"/>
  <path d="M365.700340 537.783225 L391.478372 552.134295 L387.024186 555.648808 L410.881446 565.733626 L403.754748 571.356846 L435.629543 575.115541 L416.031123 590.579396 L427.277563 604.832793 L416.587515 613.267623 L405.341076 599.014226 L385.742655 614.478081 L389.501351 582.603286 L382.374653 588.226505 L378.115813 562.677833 L373.661627 566.192345 Z" fill="#888" fill-opacity="0.18" stroke="#000" stroke-width="1"/>
  <path d="M917.516988 583.614920 L942.913449 568.598930 L943.700572 574.217828 L964.444490 558.707758 L965.703888 567.697994 L985.030984 542.073908 L988.494328 566.797058 L1006.474801 564.278262 L1008.363898 577.763616 L990.383426 580.282412 L993.846770 605.005562 L968.222685 585.678466 L969.482083 594.668703 L945.274820 585.455623 L946.061944 591.074521 Z" fill="#888" fill-opacity="0.18" stroke="#000" stroke-width="1"/>
  <path d="M40.992107 816.259149 L64.967956 833.452719 L60.142481 836.437073 L82.695941 849.173392 L74.975182 853.948359 L106.214497 861.312841 L84.982408 874.443999 L94.532341 889.885518 L82.951202 897.047967 L73.401269 881.606449 L52.169181 894.737606 L59.533663 863.498292 L51.812904 868.273258 L50.491532 842.405781 L45.666057 845.390135 Z" fill="#888" fill-opacity="0.18" stroke="#000" stroke-width="1"/>
  <path d="M409.915137 229.251071 L417.668671 257.717592 L412.041956 256.988448 L421.504150 281.099426 L412.501406 279.932795 L432.091686 305.356234 L407.334140 302.147997 L405.000877 320.153485 L391.496760 318.403537 L393.830024 300.398049 L369.072478 297.189812 L394.495918 277.599531 L385.493174 276.432899 L400.788526 255.530158 L395.161811 254.801013 Z" fill="#888" fill-opacity="0.18" stroke="#000" stroke-width="1"/>
  <path d="M667.435547 56.215305 L660.684912 84.936187 L656.085838 81.613524 L652.913147 107.319680 L645.554629 102.003419 L650.660272 133.690368 L630.424346 119.070650 L619.791824 133.787687 L608.754046 125.813295 L619.386568 111.096258 L599.150642 96.476539 L630.837592 91.370896 L623.479073 86.054635 L646.887689 74.968197 L642.288615 71.645534 Z" fill="#888" fill-opacity="0.18" stroke="#000" stroke-width="1"/>
  <path d="M579.029406 535.593823 L552.425653 522.838414 L556.657660 519.059301 L532.230795 510.445320 L539.002006 504.398740 L506.957528 502.587161 L525.578360 485.959067 L513.485200 472.416644 L523.642017 463.346774 L535.735177 476.889197 L554.356008 460.261103 L552.544429 492.305581 L559.315640 486.259001 L565.121674 511.501077 L569.353681 507.721964 Z" fill="#888" fill-opacity="0.18" stroke="#000" stroke-width="1"/>
  <path d="M156.405115 994.795665 L185.703384 998.270085 L182.919592 1003.213977 L208.819505 1003.472584 L204.365437 1011.382812 L235.276177 1002.742412 L223.027490 1024.495539 L238.847946 1033.403675 L232.166844 1045.269017 L216.346388 1036.360881 L204.097701 1058.114008 L195.457301 1027.203268 L191.003233 1035.113496 L177.352006 1013.101762 L174.568214 1018.045655 Z" fill="#888" fill-opacity="0.18" stroke="#000" stroke-width="1"/>
  <path d="M320.354062 725.619842 L294.498878 711.408241 L298.934013 707.869717 L275.022621 697.913929 L282.118837 692.252291 L250.224201 688.665845 L269.738796 673.096341 L258.415520 658.903908 L269.059844 650.411451 L280.383120 664.603884 L299.897715 649.034379 L296.311269 680.929015 L303.407485 675.267377 L307.804283 700.792670 L312.239418 697.254146 Z" fill="#888" fill-opacity="0.18" stroke="#000" stroke-width="1"/>
  <path d="M284.346304 403.609037 L268.143537 428.265283 L264.965118 423.565366 L253.157969 446.618861 L248.072499 439.098992 L241.986504 470.612339 L228.001460 449.932701 L212.961723 460.103642 L205.333518 448.823840 L220.373255 438.652899 L206.388211 417.973261 L237.901558 424.059256 L232.816087 416.539387 L258.608280 414.165530 L255.429861 409.465612 Z" fill="#888" fill-opacity="0.18" stroke="#000" stroke-width="1"/>
  <path d="M867.420725 752.552304 L852.874555 726.883858 L858.506984 726.200252 L843.381214 705.174471 L852.393100 704.080700 L827.128957 684.285411 L851.911645 681.277541 L849.724103 663.253769 L863.241933 661.613113 L865.429474 679.636885 L890.212162 676.629016 L870.416873 701.893158 L879.428759 700.799388 L869.771842 724.833038 L875.404271 724.149432 Z" fill="#888" fill-opacity="0.18" stroke="#000" stroke-width="1"/>
  <path d="M313.652373 1056.816226 L284.536430 1052.049458 L287.536148 1047.233519 L261.673014 1045.829713 L266.472562 1038.124211 L235.209935 1045.389094 L248.408694 1024.198964 L232.997690 1014.599866 L240.197013 1003.041613 L255.608017 1012.640711 L268.806776 991.450580 L276.071660 1022.713207 L280.871208 1015.007705 L293.535584 1037.601642 L296.535302 1032.785703 Z" fill="#888" fill-opacity="0.18" stroke="#000" stroke-width="1"/>
  <path d="M447.265215 133.954072 L453.946639 105.217010 L458.553704 108.528583 L461.664455 82.814859 L469.035760 88.113377 L463.853793 56.438819 L484.124882 71.009744 L494.721918 56.267135 L505.778875 64.214912 L495.181839 78.957522 L515.452927 93.528446 L483.778370 98.710413 L491.149675 104.008931 L467.767835 115.151731 L472.374901 118.463305 Z" fill="#888" fill-opacity="0.18" stroke="#000" stroke-width="1"/>
  <path d="M921.345687 433.188544 L892.776180 425.823529 L896.196709 421.296768 L870.564504 417.573528 L876.037350 410.330712 L844.248195 414.755641 L859.298519 394.837894 L844.812885 383.892204 L853.022153 373.027979 L867.507787 383.973669 L882.558111 364.055923 L886.983040 395.845078 L892.455885 388.602261 L903.037765 412.243247 L906.458293 407.716487 Z" fill="#888" fill-opacity="0.18" stroke="#000" stroke-width="1"/>
  <path d="M998.293546 138.534218 L998.441673 109.031028 L1003.667970 111.239512 L1001.004051 85.475662 L1009.366125 89.009236 L997.294873 59.270116 L1020.290577 68.987443 L1027.357724 52.263294 L1039.900836 57.563654 L1032.833689 74.287803 L1055.829394 84.005130 L1026.090274 96.076382 L1034.452349 99.609956 L1014.120563 115.656478 L1019.346859 117.864962 Z" fill="#888" fill-opacity="0.18" stroke="#000" stroke-width="1"/>
  <path d="M1001.995895 969.035069 L972.975446 974.352371 L974.178029 968.807520 L949.352944 976.195858 L951.277077 967.324097 L924.287342 984.693166 L929.578708 960.295824 L911.835186 956.447557 L914.721386 943.139916 L932.464908 946.988182 L937.756275 922.590840 L955.125344 949.580575 L957.049477 940.708814 L976.583196 957.717819 L977.785779 952.172968 Z" fill="#888" fill-opacity="0.18" stroke="#000" stroke-width="1"/>
  <path d="M460.924889 798.957478 L465.564691 828.093922 L460.049360 826.762493 L466.857372 851.752959 L458.032843 849.622673 L474.768449 877.009711 L450.500995 871.151423 L446.240422 888.800481 L433.003628 885.605052 L437.264201 867.955994 L412.996747 862.097706 L440.383785 845.362100 L431.559256 843.231814 L449.018699 824.099635 L443.503369 822.768206 Z" fill="#888" fill-opacity="0.18" stroke="#000" stroke-width="1"/>
  <path d="M310.889124 214.660734 L340.051056 210.183917 L338.688810 215.691717 L363.716951 209.023543 L361.537357 217.836023 L389.017542 201.253809 L383.023658 225.488129 L400.648617 229.847317 L397.379226 243.066037 L379.754266 238.706848 L373.760382 262.941167 L357.178168 235.460982 L354.998574 244.273462 L335.964317 226.707316 L334.602071 232.215116 Z" fill="#888" fill-opacity="0.18" stroke="#000" stroke-width="1"/>
  <path d="M598.666829 766.570273 L602.461187 795.828828 L596.986713 794.338288 L603.068398 819.515371 L594.309239 817.130508 L610.244977 844.990562 L586.157292 838.432188 L581.387565 855.950505 L568.248827 852.373210 L573.018554 834.854893 L548.930868 828.296520 L576.790922 812.360781 L568.031764 809.975918 L586.037765 791.357209 L580.563291 789.866669 Z" fill="#888" fill-opacity="0.18" stroke="#000" stroke-width="1"/>
  <path d="M520.321756 971.364248 L490.869922 969.617915 L493.358312 964.518946 L467.487976 965.783119 L471.469400 957.624768 L441.119963 968.067086 L452.068878 945.631620 L435.752176 937.668773 L441.724312 925.431246 L458.041014 933.394094 L468.989930 910.958628 L479.432248 941.308065 L483.413672 933.149714 L498.335092 954.321007 L500.823482 949.222037 Z" fill="#888" fill-opacity="0.18" stroke="#000" stroke-width="1"/>
  <path d="M372.987023 805.645962 L382.296929 777.649787 L386.578062 781.373156 L392.053046 756.057213 L398.902858 762.014604 L396.671804 729.996597 L415.508788 746.379420 L427.423569 732.679796 L437.698287 741.615882 L425.783506 755.315506 L444.620490 771.698330 L412.602483 773.929385 L419.452295 779.886775 L395.140327 788.819894 L399.421460 792.543263 Z" fill="#888" fill-opacity="0.18" stroke="#000" stroke-width="1"/>
  <path d="M309.332571 738.036387 L291.752340 761.730176 L288.846655 756.856925 L275.746161 779.200817 L271.097065 771.403616 L263.226804 802.519358 L250.441790 781.077057 L234.847389 790.375249 L227.873744 778.679448 L243.468145 769.381256 L230.683131 747.938955 L261.798872 755.809215 L257.149776 748.012015 L283.035284 747.110425 L280.129599 742.237175 Z" fill="#888" fill-opacity="0.18" stroke="#000" stroke-width="1"/>
  <path d="M598.356570 468.224606 L625.774625 457.329173 L625.680763 463.002159 L648.579201 450.897039 L648.429022 459.973816 L671.496412 437.657322 L671.083419 462.618458 L689.236972 462.918817 L689.011703 476.533982 L670.858150 476.233624 L670.445156 501.194760 L648.128663 478.127369 L647.978484 487.204146 L625.493038 474.348130 L625.399176 480.021115 Z" fill="#888" fill-opacity="0.18" stroke="#000" stroke-width="1"/>
  <path d="M170.232027 628.524736 L165.635852 599.381377 L171.149183 600.721062 L164.378594 575.720431 L173.199923 577.863927 L156.505338 550.451864 L180.763994 556.346477 L185.050986 538.703817 L198.282980 541.919061 L193.995989 559.561720 L218.254646 565.456333 L190.842583 582.150918 L199.663912 584.294413 L182.175845 603.400431 L187.689176 604.740116 Z" fill="#888" fill-opacity="0.18" stroke="#000" stroke-width="1"/>
  <path d="M728.078274 859.451401 L751.593615 877.269620 L746.691317 880.126026 L768.901993 893.451125 L761.058316 898.021374 L792.093128 906.204944 L770.523018 918.773127 L779.663515 934.460480 L767.898000 941.315852 L758.757503 925.628499 L737.187393 938.196682 L745.370964 907.161870 L737.527287 911.732119 L736.886721 885.838836 L731.984424 888.695241 Z" fill="#888" fill-opacity="0.18" stroke="#000" stroke-width="1"/>
  <path d="M237.172822 879.910896 L215.372603 860.030991 L220.514022 857.631537 L199.605082 842.344659 L207.831353 838.505532 L177.667858 827.537672 L200.290104 816.980073 L192.611850 800.527531 L204.951256 794.768841 L212.629510 811.221383 L235.251756 800.663784 L224.283895 830.827278 L232.510166 826.988151 L230.796861 852.832628 L235.938280 850.433174 Z" fill="#888" fill-opacity="0.18" stroke="#000" stroke-width="1"/>
  <path d="M557.036227 813.435193 L534.944785 793.879417 L540.050207 791.404293 L518.917781 776.427879 L527.086456 772.467680 L496.764270 761.946491 L519.228126 751.055943 L511.307728 734.718593 L523.560740 728.778294 L531.481139 745.115644 L553.944995 734.225095 L543.423806 764.547281 L551.592481 760.587082 L550.261051 786.454044 L555.366473 783.978919 Z" fill="#888" fill-opacity="0.18" stroke="#000" stroke-width="1"/>
  <path d="M168.984135 99.044182 L166.013707 128.397831 L161.022706 125.699408 L161.209216 151.599941 L153.223615 147.282465 L162.393926 178.040159 L140.433523 166.167098 L131.798569 182.138300 L119.820167 175.662085 L128.455121 159.690883 L106.494718 147.817822 L137.252412 138.647511 L129.266811 134.330034 L151.040704 120.302562 L146.049704 117.604139 Z" fill="#888" fill-opacity="0.18" stroke="#000" stroke-width="1"/>
  <path d="M244.735221 920.560636 L215.501438 916.579917 L218.370337 911.684920 L192.478772 910.978320 L197.069010 903.146324 L166.013428 911.250718 L178.636581 889.712732 L162.972591 880.532256 L169.857947 868.784264 L185.521938 877.964739 L198.145091 856.426752 L206.249485 887.482334 L210.839723 879.650339 L224.108134 901.894926 L226.977032 896.999929 Z" fill="#888" fill-opacity="0.18" stroke="#000" stroke-width="1"/>
  <path d="M334.945926 472.892811 L363.742519 479.312812 L360.472948 483.949781 L386.213880 486.826732 L380.982567 494.245883 L412.608725 488.776289 L398.222614 509.178953 L413.060915 519.641579 L405.213946 530.770305 L390.375645 520.307679 L375.989534 540.710342 L370.519940 509.084184 L365.288627 516.503334 L353.933807 493.223719 L350.664236 497.860688 Z" fill="#888" fill-opacity="0.18" stroke="#000" stroke-width="1"/>
  <path d="M885.597007 268.610168 L898.958779 242.305735 L902.639909 246.623241 L911.811450 222.400210 L917.701257 229.308220 L920.246765 197.313677 L936.443734 216.310705 L950.259754 204.531092 L959.094464 214.893107 L945.278444 226.672721 L961.475413 245.669749 L929.480870 243.124240 L935.370677 250.032251 L910.002167 255.258254 L913.683297 259.575760 Z" fill="#888" fill-opacity="0.18" stroke="#000" stroke-width="1"/>
  <path d="M1048.036670 444.649324 L1024.979786 463.056938 L1023.417553 457.602490 L1005.036674 475.851207 L1002.537101 467.124090 L986.968241 495.190814 L980.094416 471.191243 L962.640182 476.190389 L958.890823 463.099714 L976.345057 458.100568 L969.471232 434.100997 L997.537955 449.669857 L995.038383 440.942740 L1020.293087 446.693594 L1018.730854 441.239146 Z" fill="#888" fill-opacity="0.18" stroke="#000" stroke-width="1"/>
  <path d="M383.314374 624.338489 L398.138504 649.847416 L392.513833 650.592163 L407.867099 671.452403 L398.867626 672.643999 L424.345300 692.163694 L399.596747 695.440583 L401.979939 713.439531 L388.480728 715.226925 L386.097536 697.227977 L361.348983 700.504866 L380.868678 675.027191 L371.869204 676.218787 L381.264491 652.081658 L375.639819 652.826406 Z" fill="#888" fill-opacity="0.18" stroke="#000" stroke-width="1"/>
  <path d="M641.415140 864.288792 L669.732405 872.570860 L666.167743 876.985015 L691.666617 881.532523 L685.963158 888.595170 L717.878423 885.197200 L702.193911 904.619479 L716.319205 916.026398 L707.764016 926.620368 L693.638722 915.213450 L677.954210 934.635730 L674.556240 902.720464 L668.852780 909.783111 L659.038419 885.813324 L655.473757 890.227478 Z" fill="#888" fill-opacity="0.18" stroke="#000" stroke-width="1"/>
  <path d="M617.001727 1012.491437 L623.424905 983.695552 L628.061513 986.965635 L630.941304 961.225021 L638.359877 966.457152 L632.893773 934.830390 L653.294850 949.218752 L663.759113 934.381606 L674.886973 942.229803 L664.422709 957.066949 L684.823786 971.455311 L653.197024 976.921415 L660.615597 982.153547 L637.334730 993.505799 L641.971338 996.775881 Z" fill="#888" fill-opacity="0.18" stroke="#000" stroke-width="1"/>
  <path d="M94.297638 970.518085 L112.494749 947.294707 L115.271302 952.242669 L128.954733 930.250940 L133.397218 938.167679 L142.082853 907.269619 L154.299687 929.040651 L170.133165 920.155681 L176.796893 932.030790 L160.963414 940.915760 L173.180248 962.686792 L142.282188 954.001157 L146.724673 961.917896 L120.824409 962.138592 L123.600962 967.086554 Z" fill="#888" fill-opacity="0.18" stroke="#000" stroke-width="1"/>
  <path d="M520.977801 854.937309 L527.176433 883.782363 L521.597530 882.749202 L529.738472 907.337766 L520.812228 905.684708 L538.995194 932.132962 L514.448023 927.587054 L511.141908 945.439542 L497.752542 942.959955 L501.058657 925.107467 L476.511486 920.561559 L502.959740 902.378593 L494.033496 900.725536 L510.439725 880.682880 L504.860823 879.649719 Z" fill="#888" fill-opacity="0.18" stroke="#000" stroke-width="1"/>
  <path d="M319.879136 720.548500 L343.138391 738.699732 L338.195920 741.486047 L360.214617 755.126039 L352.306663 759.584143 L383.221809 768.208768 L361.474936 780.468554 L370.391144 796.284462 L358.529213 802.971619 L349.613005 787.155711 L327.866131 799.415497 L336.490755 768.500352 L328.582801 772.958456 L328.310978 747.058677 L323.368506 749.844993 Z" fill="#888" fill-opacity="0.18" stroke="#000" stroke-width="1"/>
  <path d="M987.944334 680.015126 L994.260549 651.195591 L998.909267 654.448434 L1001.693462 628.697305 L1009.131412 633.901855 L1003.547914 602.295607 L1024.002274 616.608120 L1034.411375 601.732222 L1045.568299 609.539047 L1035.159198 624.414946 L1055.613558 638.727459 L1024.007310 644.310956 L1031.445259 649.515506 L1008.206703 660.954122 L1012.855421 664.206966 Z" fill="#888" fill-opacity="0.18" stroke="#000" stroke-width="1"/>
  <path d="M504.682208 651.740808 L521.672813 627.620703 L524.697787 632.420818 L537.243305 609.760669 L542.083264 617.440853 L549.183829 586.140496 L562.493715 607.261003 L577.854083 597.581086 L585.114021 609.101363 L569.753652 618.781280 L583.063538 639.901787 L551.763181 632.801222 L556.603139 640.481406 L530.747735 642.021049 L533.772709 646.821164 Z" fill="#888" fill-opacity="0.18" stroke="#000" stroke-width="1"/>
  <path d="M866.054404 976.593665 L836.585062 978.014233 L838.512575 972.677917 L812.926782 976.707759 L816.010804 968.169654 L786.955487 981.804865 L795.436545 958.325075 L778.360335 952.157032 L782.986366 939.349874 L800.062577 945.517917 L808.543635 922.038127 L822.178846 951.093443 L825.262867 942.555338 L842.367601 962.005286 L844.295115 956.668970 Z" fill="#888" fill-opacity="0.18" stroke="#000" stroke-width="1"/>
  <path d="M46.736795 195.690072 L69.173477 214.848764 L64.113007 217.414544 L85.509159 232.011705 L77.412408 236.116953 L107.917405 246.095710 L85.651340 257.385141 L93.861836 273.578643 L81.716710 279.736514 L73.506214 263.543013 L51.240150 274.832445 L61.218907 244.327449 L53.122157 248.432696 L53.992069 222.546104 L48.931600 225.111884 Z" fill="#888" fill-opacity="0.18" stroke="#000" stroke-width="1"/>
  <path d="M718.551358 705.026725 L734.668970 729.738721 L729.090094 730.772025 L745.496838 750.814260 L736.570637 752.467546 L763.019357 770.649833 L738.472303 775.196372 L741.778876 793.048775 L728.389574 795.528705 L725.083001 777.676302 L700.535947 782.222840 L718.718234 755.774120 L709.792032 757.427406 L717.932342 732.838634 L712.353466 733.871938 Z" fill="#888" fill-opacity="0.18" stroke="#000" stroke-width="1"/>
  <path d="M786.781818 604.773661 L779.994661 633.485935 L775.399816 630.157425 L772.194435 655.859525 L764.842684 650.533909 L769.908024 682.227327 L749.690707 667.581884 L739.039476 682.285387 L728.011849 674.296963 L738.663080 659.593461 L718.445764 644.948018 L750.139181 639.882678 L742.787430 634.557063 L766.210127 623.500405 L761.615282 620.171896 Z" fill="#888" fill-opacity="0.18" stroke="#000" stroke-width="1"/>
  <path d="M112.240017 196.228340 L140.963740 202.966877 L137.643014 207.567350 L163.350504 210.729212 L158.037343 218.089969 L189.722139 212.970979 L175.110946 233.213062 L189.832460 243.839384 L181.862719 254.880520 L167.141204 244.254198 L152.530011 264.496280 L147.411021 232.811484 L142.097859 240.172241 L131.001563 216.768297 L127.680837 221.368770 Z" fill="#888" fill-opacity="0.18" stroke="#000" stroke-width="1"/>
  <path d="M100.421094 135.584639 L93.474851 106.910437 L99.078722 107.798249 L90.301455 83.429580 L99.267647 84.850080 L80.403414 58.883350 L105.060444 62.789723 L107.901442 44.857337 L121.350731 46.988086 L118.509733 64.920471 L143.166763 68.826844 L117.200033 87.691078 L126.166226 89.111577 L110.286462 109.573873 L115.890333 110.461685 Z" fill="#888" fill-opacity="0.18" stroke="#000" stroke-width="1"/>
  <path d="M553.099809 308.389340 L543.832909 336.399780 L539.546063 332.682990 L534.109964 358.007311 L527.251011 352.060447 L529.531234 384.074990 L510.669112 367.721114 L498.775385 381.439020 L488.486955 372.518724 L500.380683 358.800818 L481.518561 342.446942 L513.533104 340.166719 L506.674151 334.219855 L530.972371 325.249410 L526.685526 321.532620 Z" fill="#888" fill-opacity="0.18" stroke="#000" stroke-width="1"/>
  <path d="M884.482635 434.388212 L861.158012 452.455367 L859.676018 446.978573 L841.029228 464.955493 L838.658039 456.192623 L822.678837 484.027771 L816.158067 459.929878 L798.632327 464.672257 L795.075543 451.527952 L812.601283 446.785573 L806.080512 422.687680 L833.915661 438.666882 L831.544471 429.904012 L856.712032 436.024986 L855.230038 430.548192 Z" fill="#888" fill-opacity="0.18" stroke="#000" stroke-width="1"/>
  <path d="M596.509048 109.152763 L592.868198 138.430816 L587.940204 135.618975 L587.534426 161.517001 L579.649635 157.018055 L588.114246 187.977395 L566.431073 175.605294 L557.433181 191.374875 L545.605996 184.626456 L554.603888 168.856875 L532.920715 156.484774 L563.880055 148.020163 L555.995265 143.521218 L578.084216 129.995293 L573.156222 127.183452 Z" fill="#888" fill-opacity="0.18" stroke="#000" stroke-width="1"/>
  <path d="M922.692502 579.157403 L915.048831 550.661185 L920.672691 551.412029 L911.303572 527.264730 L920.301749 528.466080 L900.809681 502.967263 L925.554668 506.270975 L927.957368 488.274621 L941.454633 490.076646 L939.051933 508.073000 L963.796920 511.376712 L938.298103 530.868780 L947.296280 532.070130 L931.920412 552.913716 L937.544273 553.664560 Z" fill="#888" fill-opacity="0.18" stroke="#000" stroke-width="1"/>
  <path d="M854.663324 749.204150 L831.285174 767.201991 L829.819444 761.720822 L811.119375 779.642313 L808.774207 770.872443 L792.712452 798.660037 L786.263240 774.542895 L768.723500 779.233230 L765.205749 766.078425 L782.745489 761.388090 L776.296277 737.270947 L804.083871 753.332703 L801.738704 744.562833 L826.887984 750.758485 L825.422254 745.277316 Z" fill="#888" fill-opacity="0.18" stroke="#000" stroke-width="1"/>
  <path d="M934.472552 796.334634 L922.233241 823.179735 L918.373113 819.021492 L910.232422 843.610139 L904.056218 836.956950 L902.863757 869.030435 L885.879194 850.734165 L872.572816 863.086575 L863.308509 853.106792 L876.614887 840.754382 L859.630323 822.458112 L891.703808 823.650572 L885.527603 816.997383 L910.652857 810.705006 L906.792729 806.546763 Z" fill="#888" fill-opacity="0.18" stroke="#000" stroke-width="1"/>
  <path d="M804.472849 57.929775 L833.957664 58.981378 L831.590159 64.137587 L857.423507 62.263944 L853.635500 70.513880 L883.730356 59.359060 L873.313336 82.046382 L889.813206 89.622396 L884.131196 101.997299 L867.631325 94.421284 L857.214305 117.108606 L846.059485 87.013750 L842.271478 95.263685 L826.855150 74.450006 L824.487646 79.606216 Z" fill="#888" fill-opacity="0.18" stroke="#000" stroke-width="1"/>
  <path d="M186.982159 396.166053 L169.937144 372.084366 L175.472726 370.839814 L158.316236 351.435503 L167.173167 349.444219 L140.052631 332.280103 L164.409189 326.804072 L160.426621 309.090211 L173.712017 306.103285 L177.694585 323.817146 L202.051144 318.341115 L184.887028 345.461651 L193.743958 343.470367 L186.543889 368.350709 L192.079470 367.106156 Z" fill="#888" fill-opacity="0.18" stroke="#000" stroke-width="1"/>
  <path d="M949.876299 898.910571 L972.163084 879.577713 L973.946521 884.963893 L991.567675 865.980549 L994.421175 874.598436 L1008.832142 845.919970 L1016.679266 869.619158 L1033.915040 863.912158 L1038.195289 876.838988 L1020.959516 882.545988 L1028.806640 906.245176 L1000.128174 891.834209 L1002.981674 900.452095 L977.513396 895.736251 L979.296833 901.122430 Z" fill="#888" fill-opacity="0.18" stroke="#000" stroke-width="1"/>
  <path d="M597.878064 233.801019 L568.419713 235.433728 L570.308755 230.083672 L544.752640 234.297626 L547.775108 225.737537 L518.818717 239.581591 L527.130502 216.041347 L510.010324 209.996412 L514.544025 197.156279 L531.664203 203.201214 L539.975988 179.660969 L553.820042 208.617360 L556.842509 200.057271 L574.086839 219.383561 L575.975881 214.033506 Z" fill="#888" fill-opacity="0.18" stroke="#000" stroke-width="1"/>
  <path d="M306.029205 570.426833 L279.791794 583.919737 L279.337241 578.264213 L257.715161 592.524579 L256.987875 583.475740 L236.183991 607.916051 L234.183957 583.031744 L216.086279 584.486314 L214.995351 570.913055 L233.093029 569.458485 L231.092995 544.574178 L255.533305 565.378063 L254.806020 556.329224 L278.428134 566.953164 L277.973581 561.297640 Z" fill="#888" fill-opacity="0.18" stroke="#000" stroke-width="1"/>
  <path d="M206.313247 657.047684 L202.017626 686.236856 L197.153839 683.315357 L196.168175 709.197801 L188.386116 704.523403 L196.155267 735.664544 L174.754606 722.809949 L165.405810 738.374066 L153.732723 731.362469 L163.081519 715.798352 L141.680858 702.943757 L172.821999 695.174607 L165.039941 690.500208 L187.426266 677.472360 L182.562480 674.550861 Z" fill="#888" fill-opacity="0.18" stroke="#000" stroke-width="1"/>
  <path d="M424.574964 49.536658 L428.076833 78.831659 L422.617523 77.286502 L428.447379 102.523086 L419.712483 100.050836 L435.369098 128.068702 L411.348134 121.270013 L406.403633 138.739805 L393.301289 135.031430 L398.245790 117.561638 L374.224826 110.762950 L402.242691 95.106335 L393.507795 92.634085 L411.698903 74.196189 L406.239593 72.651033 Z" fill="#888" fill-opacity="0.18" stroke="#000" stroke-width="1"/>
  <path d="M555.559761 378.520181 L560.381126 349.413230 L565.191431 352.421974 L566.643740 326.561518 L574.340227 331.375509 L567.133988 300.099312 L588.299328 313.337789 L597.927311 297.944815 L609.472042 305.165802 L599.844059 320.558777 L621.009398 333.797253 L589.733201 341.003492 L597.429689 345.817484 L574.812040 358.439464 L579.622344 361.448208 Z" fill="#888" fill-opacity="0.18" stroke="#000" stroke-width="1"/>
  <path d="M690.940666 339.318837 L683.103005 310.875362 L688.731851 311.587869 L679.198415 287.504970 L688.204569 288.644981 L668.539211 263.279570 L693.306134 266.414599 L695.586154 248.402291 L709.095385 250.112307 L706.815364 268.124614 L731.582287 271.259643 L706.216877 290.925001 L715.223031 292.065012 L699.989543 313.012882 L705.618389 313.725388 Z" fill="#888" fill-opacity="0.18" stroke="#000" stroke-width="1"/>
  <path d="M387.687154 76.636962 L373.597602 102.558859 L370.038209 98.140455 L360.195259 122.098517 L354.500230 115.029071 L351.064188 146.940260 L335.402857 127.499283 L321.263965 138.889342 L312.721420 128.285173 L326.860313 116.895114 L311.198981 97.454137 L343.110171 100.890179 L337.415141 93.820733 L362.919422 89.303647 L359.360029 84.885243 Z" fill="#888" fill-opacity="0.18" stroke="#000" stroke-width="1"/>
  <path d="M400.608163 1010.560406 L393.783523 981.857018 L399.383580 982.768575 L390.709683 958.362922 L399.669774 959.821413 L380.915775 933.774957 L405.556026 937.785808 L408.473008 919.865626 L421.913145 922.053363 L418.996162 939.973545 L443.636413 943.984397 L417.589957 962.738396 L426.550048 964.196887 L410.583694 984.591690 L416.183751 985.503247 Z" fill="#888" fill-opacity="0.18" stroke="#000" stroke-width="1"/>
  <path d="M41.213177 897.066169 L70.618579 894.661489 L68.870489 900.059243 L94.307306 895.176541 L91.510362 903.812949 L120.093740 889.214287 L112.402146 912.964409 L129.674961 918.558295 L125.479547 931.512907 L108.206731 925.919020 L100.515137 949.669142 L85.916476 921.085764 L83.119533 929.722172 L65.374310 910.854753 L63.626221 916.252508 Z" fill="#888" fill-opacity="0.18" stroke="#000" stroke-width="1"/>
  <path d="M928.085895 127.192929 L931.912145 97.938528 L936.822227 100.781531 L937.392058 74.886595 L945.248190 79.435400 L936.979873 48.423059 L958.584235 60.932272 L967.681845 45.220009 L979.466042 52.043216 L970.368432 67.755479 L991.972794 80.264693 L960.960453 88.533010 L968.816585 93.081815 L946.642392 106.467537 L951.552474 109.310540 Z" fill="#888" fill-opacity="0.18" stroke="#000" stroke-width="1"/>
  <path d="M930.223721 427.011702 L935.509640 397.985520 L940.271246 401.070756 L942.136655 375.236812 L949.755225 380.173189 L943.049743 348.785821 L964.000811 362.360858 L973.873565 347.123718 L985.301420 354.528284 L975.428666 369.765424 L996.379734 383.340461 L964.992366 390.045944 L972.610936 394.982321 L949.794459 407.241227 L954.556065 410.326463 Z" fill="#888" fill-opacity="0.18" stroke="#000" stroke-width="1"/>
  <path d="M487.827891 573.547110 L484.467978 602.858732 L479.513246 600.094278 L479.355842 625.995005 L471.428271 621.571879 L480.189385 652.448622 L458.388564 640.285026 L449.542312 656.140169 L437.650955 649.505480 L446.497207 633.650337 L424.696385 621.486741 L455.573128 612.725627 L447.645557 608.302501 L469.603782 594.565371 L464.649050 591.800917 Z" fill="#888" fill-opacity="0.18" stroke="#000" stroke-width="1"/>
  <path d="M313.283567 768.418930 L324.364384 795.762588 L318.690893 795.707137 L330.950768 818.523094 L321.873182 818.434372 L344.345341 841.350140 L319.381981 841.106155 L319.204537 859.261326 L305.588159 859.128243 L305.765603 840.973072 L280.802243 840.729087 L303.718011 818.256928 L294.640426 818.168206 L307.343911 795.596235 L301.670420 795.540784 Z" fill="#888" fill-opacity="0.18" stroke="#000" stroke-width="1"/>
  <path d="M340.625874 342.204275 L331.946205 314.006340 L337.593742 314.551217 L327.348664 290.762337 L336.384725 291.634139 L315.974078 266.864483 L340.823245 269.261938 L342.566849 251.189817 L356.120940 252.497520 L354.377336 270.569641 L379.226502 272.967097 L354.456846 293.377743 L363.492907 294.249545 L348.888818 315.640969 L354.536356 316.185845 Z" fill="#888" fill-opacity="0.18" stroke="#000" stroke-width="1"/>
  <path d="M396.608162 146.119957 L425.328749 139.368066 L424.403006 144.965796 L448.830558 136.353764 L447.349369 145.310131 L473.443260 126.622187 L469.369989 151.252196 L487.282723 154.214575 L485.060939 167.649125 L467.148205 164.686747 L463.074935 189.316756 L444.386990 163.222865 L442.905801 172.179232 L422.551519 156.161254 L421.625776 161.758984 Z" fill="#888" fill-opacity="0.18" stroke="#000" stroke-width="1"/>
  <path d="M100.870701 644.211057 L129.629770 637.625000 L128.671742 643.217295 L153.148581 634.746357 L151.615737 643.694028 L177.817025 625.156961 L173.601703 649.763056 L191.497046 652.828745 L189.197779 666.250251 L171.302437 663.184563 L167.087116 687.790659 L148.550048 661.589371 L147.017204 670.537042 L126.755687 654.401883 L125.797659 659.994178 Z" fill="#888" fill-opacity="0.18" stroke="#000" stroke-width="1"/>
  <path d="M489.785311 898.660324 L483.277095 869.883540 L488.866777 870.856696 L480.462100 846.357026 L489.405591 847.914075 L470.939487 821.662725 L495.534086 825.944611 L498.648185 808.057629 L512.063421 810.393203 L508.949323 828.280184 L533.543922 832.562070 L507.292572 851.028174 L516.236063 852.585223 L500.046140 872.803007 L505.635822 873.776163 Z" fill="#888" fill-opacity="0.18" stroke="#000" stroke-width="1"/>
  <path d="M622.097825 411.554416 L603.281012 434.278582 L600.638913 429.257537 L586.367355 450.872232 L582.139996 442.838562 L572.624217 473.491136 L560.998979 451.398542 L544.931638 459.853260 L538.590599 447.802754 L554.657940 439.348036 L543.032703 417.255442 L573.685277 426.771220 L569.457918 418.737550 L595.354714 419.215449 L592.712614 414.194405 Z" fill="#888" fill-opacity="0.18" stroke="#000" stroke-width="1"/>
  <path d="M760.862370 994.089934 L731.369232 993.305736 L733.689884 988.128270 L707.874588 990.236087 L711.587631 981.952142 L681.595161 993.379396 L691.806030 970.598548 L675.238140 963.172462 L680.807705 950.746545 L697.375594 958.172631 L707.586463 935.391783 L719.013717 965.384253 L722.726760 957.100308 L738.331188 977.773339 L740.651840 972.595874 Z" fill="#888" fill-opacity="0.18" stroke="#000" stroke-width="1"/>
  <path d="M513.188589 493.416562 L489.792883 511.391575 L488.332504 505.908978 L469.614950 523.812207 L467.278344 515.040053 L451.189473 542.811956 L444.763805 518.688530 L427.219496 523.361743 L423.714586 510.203510 L441.258896 505.530298 L434.833228 481.406872 L462.605131 497.495743 L460.268525 488.723588 L485.411746 494.943785 L483.951367 489.461188 Z" fill="#888" fill-opacity="0.18" stroke="#000" stroke-width="1"/>
  <path d="M793.061752 874.915256 L789.249656 845.659007 L794.725033 847.146228 L788.628085 821.972836 L797.388688 824.352389 L781.436062 796.502001 L805.527719 803.045770 L810.286824 785.524564 L823.427728 789.093893 L818.668623 806.615098 L842.760281 813.158867 L814.909893 829.111493 L823.670496 831.491046 L805.675786 850.120668 L811.151163 851.607888 Z" fill="#888" fill-opacity="0.18" stroke="#000" stroke-width="1"/>
  <path d="M692.142431 647.723239 L698.551507 676.522265 L692.965210 675.529866 L701.285465 700.058334 L692.347389 698.470495 L710.722979 724.785282 L686.143272 720.418724 L682.967592 738.294875 L669.560479 735.913116 L672.736158 718.036964 L648.156450 713.670406 L674.471238 695.294815 L665.533162 693.706976 L681.792615 673.545066 L676.206318 672.552667 Z" fill="#888" fill-opacity="0.18" stroke="#000" stroke-width="1"/>
  <path d="M588.386808 264.483135 L563.562018 280.426471 L562.567993 274.840463 L542.410814 291.105780 L540.820375 282.168167 L522.452441 308.488300 L518.078731 283.909863 L500.203505 287.090743 L497.817845 273.684323 L515.693072 270.503443 L511.319362 245.925007 L537.639495 264.292940 L536.049055 255.355327 L560.579943 263.668446 L559.585918 258.082438 Z" fill="#888" fill-opacity="0.18" stroke="#000" stroke-width="1"/>
  <path d="M869.038815 632.675391 L864.918311 603.460983 L870.409072 604.890362 L864.046912 579.782687 L872.832129 582.069692 L856.586601 554.389136 L880.745947 560.678402 L885.319959 543.107968 L898.497784 546.538476 L893.923773 564.108910 L918.083119 570.398175 L890.402563 586.643704 L899.187780 588.930709 L881.390593 607.749119 L886.881353 609.178497 Z" fill="#888" fill-opacity="0.18" stroke="#000" stroke-width="1"/>
  <path d="M457.121743 985.028596 L486.175000 990.163619 L483.114548 994.941192 L508.957836 996.672339 L504.061113 1004.316456 L535.413214 997.447970 L521.947226 1018.469293 L537.235461 1028.262740 L529.890376 1039.728916 L514.602141 1029.935470 L501.136152 1050.956793 L494.267666 1019.604691 L489.370943 1027.248808 L476.993644 1004.496339 L473.933192 1009.273912 Z" fill="#888" fill-opacity="0.18" stroke="#000" stroke-width="1"/>
  <path d="M1046.894839 498.831758 L1027.040130 520.654927 L1024.634739 515.516283 L1009.372024 536.442867 L1005.523397 528.221037 L994.590387 558.397181 L984.006663 535.787146 L967.563002 543.484400 L961.790061 531.151654 L978.233723 523.454400 L967.649999 500.844366 L997.826143 511.777375 L993.977516 503.555545 L1019.823955 505.238994 L1017.418563 500.100350 Z" fill="#888" fill-opacity="0.18" stroke="#000" stroke-width="1"/>
  <path d="M421.153758 220.157102 L449.707169 227.584272 L446.276798 232.103578 L471.900839 235.882589 L466.412245 243.113479 L498.210954 238.757740 L483.117321 258.642687 L497.579100 269.619875 L489.346209 280.466209 L474.884430 269.489021 L459.790796 289.373968 L455.435057 257.575258 L449.946463 264.806148 L439.416056 241.142190 L435.985684 245.661496 Z" fill="#888" fill-opacity="0.18" stroke="#000" stroke-width="1"/>
  <path d="M250.490063 309.651269 L235.481082 284.250666 L241.100196 283.465093 L225.595851 262.716896 L234.586434 261.459978 L208.967682 242.125814 L233.691786 238.669291 L231.177952 220.688124 L244.663827 218.802748 L247.177661 236.783915 L271.901766 233.327392 L252.567601 258.946144 L261.558184 257.689226 L252.338426 281.893946 L257.957540 281.108373 Z" fill="#888" fill-opacity="0.18" stroke="#000" stroke-width="1"/>
  <path d="M342.512884 457.304003 L368.853206 444.013120 L369.264286 449.671970 L390.995312 435.578180 L391.653040 444.632340 L412.644122 420.352620 L414.452873 445.251561 L432.561194 443.936106 L433.547786 457.517347 L415.439465 458.832802 L417.248216 483.731744 L392.968495 462.740662 L393.626223 471.794822 L370.086446 460.989671 L370.497526 466.648521 Z" fill="#888" fill-opacity="0.18" stroke="#000" stroke-width="1"/>
  <path d="M268.615838 557.833564 L285.372978 533.550681 L288.444115 538.321392 L300.770459 515.541276 L305.684279 523.174415 L312.482574 491.807019 L325.995580 512.798149 L341.261857 502.970509 L348.632587 514.420216 L333.366310 524.247857 L346.879315 545.238987 L315.511919 538.440692 L320.425739 546.073830 L294.586391 547.862815 L297.657528 552.633527 Z" fill="#888" fill-opacity="0.18" stroke="#000" stroke-width="1"/>
  <path d="M481.108778 712.397182 L488.540207 740.949485 L482.922089 740.156817 L492.111275 764.373160 L483.122286 763.104891 L502.424086 788.748036 L477.704366 785.260296 L475.167827 803.238274 L461.684344 801.335870 L464.220882 783.357892 L439.501163 779.870151 L465.144308 760.568352 L456.155319 759.300083 L471.685852 738.571480 L466.067734 737.778812 Z" fill="#888" fill-opacity="0.18" stroke="#000" stroke-width="1"/>
  <path d="M674.371077 365.844383 L652.527669 346.011943 L657.663858 343.601311 L636.721718 328.359947 L644.939619 324.502937 L614.752340 313.600710 L637.351568 302.993931 L629.637547 286.558129 L641.964399 280.772613 L649.678420 297.208416 L672.277648 286.601637 L661.375421 316.788916 L669.593323 312.931906 L667.936234 338.780048 L673.072423 336.369417 Z" fill="#888" fill-opacity="0.18" stroke="#000" stroke-width="1"/>
  <path d="M609.443280 979.554171 L602.864756 1008.314964 L598.245867 1005.019901 L595.227171 1030.744595 L587.836949 1025.472494 L593.132253 1057.128301 L572.809142 1042.630025 L562.264941 1057.410469 L551.179608 1049.502319 L561.723809 1034.721874 L541.400697 1020.223597 L573.056504 1014.928293 L565.666282 1009.656193 L589.008089 998.429775 L584.389200 995.134712 Z" fill="#888" fill-opacity="0.18" stroke="#000" stroke-width="1"/>
  <path d="M72.483527 551.460379 L91.869965 529.220186 L94.384020 534.306550 L109.198556 513.060329 L113.221044 521.198511 L123.510281 490.796834 L134.572123 513.176837 L150.848489 505.131861 L156.882221 517.339135 L140.605855 525.384111 L151.667698 547.764114 L121.266020 537.474877 L125.288508 545.613060 L99.412130 544.479279 L101.926185 549.565643 Z" fill="#888" fill-opacity="0.18" stroke="#000" stroke-width="1"/>
  <path d="M184.846136 152.651198 L213.689294 158.858646 L210.454010 163.519603 L236.215459 166.206633 L231.039006 173.664163 L262.623966 167.961471 L248.388718 188.469680 L263.303779 198.822587 L255.539098 210.008882 L240.624038 199.655975 L226.388790 220.164183 L220.686099 188.579223 L215.509645 196.036754 L203.983443 172.841515 L200.748159 177.502472 Z" fill="#888" fill-opacity="0.18" stroke="#000" stroke-width="1"/>
  <path d="M398.736219 354.484268 L417.916464 332.066008 L420.477379 337.128941 L435.095095 315.746827 L439.192560 323.847519 L449.200628 293.352127 L460.468656 315.629030 L476.670040 307.434100 L482.816238 319.585138 L466.614854 327.780068 L477.882882 350.056971 L447.387490 340.048903 L451.484955 348.149595 L425.599211 347.254806 L428.160126 352.317738 Z" fill="#888" fill-opacity="0.18" stroke="#000" stroke-width="1"/>
  <path d="M284.607974 607.146217 L263.517919 627.777982 L261.415390 622.508167 L244.961693 642.511873 L241.597648 634.080169 L228.928501 663.569542 L219.677377 640.382356 L202.813969 647.110447 L197.767901 634.462891 L214.631309 627.734801 L205.380185 604.547615 L234.869557 617.216762 L231.505512 608.785058 L257.210334 611.968537 L255.107806 606.698723 Z" fill="#888" fill-opacity="0.18" stroke="#000" stroke-width="1"/>
  <path d="M273.588734 594.391449 L302.712658 589.673696 L301.395993 595.192570 L326.368151 588.317710 L324.261486 597.147908 L351.603643 580.339076 L345.810315 604.622120 L363.470710 608.835450 L360.310713 622.080747 L342.650317 617.867417 L336.856989 642.150461 L320.048157 614.808304 L317.941492 623.638502 L298.762661 606.230317 L297.445996 611.749191 Z" fill="#888" fill-opacity="0.18" stroke="#000" stroke-width="1"/>
  <path d="M741.671516 553.373411 L721.968358 531.413316 L727.323934 529.539981 L708.048329 512.239014 L716.617250 509.241679 L687.701609 495.312714 L711.266142 487.070042 L705.271472 469.932200 L718.124854 465.436197 L724.119524 482.574039 L747.684058 474.331367 L733.755093 503.247009 L742.324014 500.249673 L738.035086 525.793312 L743.390661 523.919978 Z" fill="#888" fill-opacity="0.18" stroke="#000" stroke-width="1"/>
  <path d="M944.763060 314.485549 L973.547078 308.009402 L972.567695 313.597996 L997.076714 305.220623 L995.509700 314.162374 L1021.781610 295.725532 L1017.472323 320.315345 L1035.355823 323.449373 L1033.005303 336.861998 L1015.121802 333.727971 L1010.812515 358.317784 L992.375673 332.045874 L990.808659 340.987625 L970.608928 324.775184 L969.629544 330.363778 Z" fill="#888" fill-opacity="0.18" stroke="#000" stroke-width="1"/>
  <path d="M997.920567 199.014438 L999.930672 228.449445 L994.556847 226.629123 L999.097974 252.129134 L990.499854 249.216618 L1004.713868 277.993209 L981.069035 269.983792 L975.244004 287.180034 L962.346823 282.811261 L968.171853 265.615019 L944.527021 257.605602 L973.303612 243.391588 L964.705491 240.479072 L983.809195 222.988479 L978.435370 221.168156 Z" fill="#888" fill-opacity="0.18" stroke="#000" stroke-width="1"/>
  <path d="M316.425472 887.433123 L287.135401 883.890250 L289.930739 878.952876 L264.031500 878.633749 L268.504040 870.733950 L237.573194 879.302096 L249.872679 857.577650 L234.073083 848.632570 L240.781893 836.782873 L256.581490 845.727953 L268.880975 824.003507 L277.449121 854.934354 L281.921661 847.034555 L295.521414 869.078128 L298.316752 864.140754 Z" fill="#888" fill-opacity="0.18" stroke="#000" stroke-width="1"/>
  <path d="M148.023492 800.629049 L118.561819 799.057423 L121.019924 793.943785 L95.157541 795.361371 L99.090508 787.179549 L68.803537 797.801684 L79.619197 775.301676 L63.255555 767.435741 L69.155006 755.163009 L85.518648 763.028944 L96.334308 740.528936 L106.956443 770.815907 L110.889410 762.634086 L125.936133 783.716509 L128.394237 778.602870 Z" fill="#888" fill-opacity="0.18" stroke="#000" stroke-width="1"/>
  <path d="M489.640447 733.630936 L499.349272 705.770590 L503.576787 709.554726 L509.412799 684.319565 L516.176824 690.374183 L514.403309 658.327576 L533.004376 674.977777 L545.113612 661.449728 L555.259649 670.531655 L543.150412 684.059704 L561.751479 700.709905 L529.704873 702.483420 L536.468897 708.538038 L512.031817 717.122999 L516.259333 720.907136 Z" fill="#888" fill-opacity="0.18" stroke="#000" stroke-width="1"/>
  <path d="M624.851800 528.318573 L635.803729 555.714110 L630.130562 555.631942 L642.282859 578.505379 L633.205792 578.373910 L655.569788 601.395249 L630.607854 601.033711 L630.344917 619.187845 L616.729317 618.990643 L616.992254 600.836508 L592.030319 600.474971 L615.051657 578.110974 L605.974590 577.979505 L618.784228 555.467607 L613.111061 555.385439 Z" fill="#888" fill-opacity="0.18" stroke="#000" stroke-width="1"/>
  <path d="M347.627884 170.906492 L318.298745 167.703093 L321.036710 162.733675 L295.135513 162.714532 L299.516258 154.763463 L268.686722 163.689274 L280.733771 141.823833 L264.831632 133.062343 L271.402750 121.135739 L287.304888 129.897229 L299.351937 108.031789 L308.277748 138.861325 L312.658493 130.910255 L326.512642 152.794838 L329.250607 147.825420 Z" fill="#888" fill-opacity="0.18" stroke="#000" stroke-width="1"/>
  <path d="M899.326428 886.061376 L870.109358 890.162964 L871.542292 884.673130 L846.430503 891.019031 L848.723196 882.235297 L821.032127 898.462899 L827.337034 874.307629 L809.769565 869.722243 L813.208606 856.546641 L830.776074 861.132028 L837.080981 836.976759 L853.308583 864.667828 L855.601276 855.884094 L874.408158 873.693462 L875.841092 868.203628 Z" fill="#888" fill-opacity="0.18" stroke="#000" stroke-width="1"/>
  <path d="M751.521384 506.639141 L780.578348 511.753144 L777.521353 516.532930 L803.365887 518.245380 L798.474695 525.893038 L829.821820 519.001872 L816.371042 540.032931 L831.666358 549.815315 L824.329571 561.286802 L809.034255 551.504419 L795.583477 572.535478 L788.692312 541.188354 L783.801120 548.836012 L771.407363 526.092503 L768.350369 530.872289 Z" fill="#888" fill-opacity="0.18" stroke="#000" stroke-width="1"/>
  <path d="M758.460084 124.782916 L787.585479 129.491578 L784.595377 134.313492 L810.461261 135.665689 L805.677098 143.380753 L836.925166 136.053503 L823.768716 157.269928 L839.198844 166.838255 L832.022598 178.410851 L816.592471 168.842523 L803.436020 190.058948 L796.108770 158.810880 L791.324607 166.525944 L778.615173 143.957322 L775.625070 148.779237 Z" fill="#888" fill-opacity="0.18" stroke="#000" stroke-width="1"/>
  <path d="M636.411732 636.683851 L661.130324 620.576356 L662.161344 626.155654 L682.210293 609.757116 L683.859926 618.683994 L702.053038 592.242718 L706.589528 616.791632 L724.443283 613.492366 L726.917732 626.882683 L709.063976 630.181948 L713.600466 654.730861 L687.159191 636.537749 L688.808824 645.464626 L664.223385 637.314251 L665.254405 642.893550 Z" fill="#888" fill-opacity="0.18" stroke="#000" stroke-width="1"/>
  <path d="M352.330391 959.339463 L323.052035 955.701053 L325.863465 950.772825 L299.965406 950.369205 L304.463694 942.484040 L273.505060 950.951231 L285.875354 929.267027 L270.105024 920.270449 L276.852457 908.442702 L292.622787 917.439279 L304.993081 895.755075 L313.460272 926.713710 L317.958561 918.828545 L331.486326 940.916369 L334.297757 935.988141 Z" fill="#888" fill-opacity="0.18" stroke="#000" stroke-width="1"/>
  <path d="M673.467392 923.121594 L645.509556 913.697180 L649.250416 909.431323 L623.957094 903.852768 L629.942470 897.027396 L597.915600 899.127386 L614.375385 880.357613 L600.724641 868.386860 L609.702705 858.148803 L623.353449 870.119555 L639.813234 851.349782 L641.913223 883.376653 L647.898599 876.551281 L656.732137 900.899608 L660.472997 896.633750 Z" fill="#888" fill-opacity="0.18" stroke="#000" stroke-width="1"/>
  <path d="M813.869096 483.925469 L841.149951 495.160021 L837.137837 499.171818 L862.011676 506.394319 L855.592294 512.813194 L887.687939 512.814460 L870.034638 530.466368 L882.872390 543.305132 L873.243317 552.933446 L860.405565 540.094682 L842.752265 557.746590 L842.753531 525.650946 L836.334149 532.069822 L829.113609 507.195413 L825.101496 511.207210 Z" fill="#888" fill-opacity="0.18" stroke="#000" stroke-width="1"/>
  <path d="M777.065047 159.466870 L760.708463 184.021346 L757.559487 179.301651 L745.608454 202.280886 L740.570092 194.729373 L734.287217 226.204059 L720.431721 205.437401 L705.328696 215.514125 L697.771153 204.186856 L712.874178 194.110132 L699.018682 173.343474 L730.493368 179.626349 L725.455006 172.074837 L751.261534 169.862261 L748.112558 165.142566 Z" fill="#888" fill-opacity="0.18" stroke="#000" stroke-width="1"/>
  <path d="M874.098736 795.915521 L876.360192 766.498757 L881.414835 769.075995 L880.603572 743.187498 L888.691001 747.311079 L878.781380 716.783554 L901.021810 728.123401 L909.268972 711.948543 L921.400116 718.133914 L913.152954 734.308773 L935.393385 745.648620 L904.865860 755.558241 L912.953289 759.681822 L891.524122 774.230471 L896.578765 776.807709 Z" fill="#888" fill-opacity="0.18" stroke="#000" stroke-width="1"/>
  <path d="M707.946812 765.771592 L689.229678 788.577930 L686.565619 783.568503 L672.388839 805.245479 L668.126345 797.230395 L658.744870 827.924341 L647.023011 805.882860 L630.992843 814.407849 L624.599101 802.385223 L640.629269 793.860234 L628.907410 771.818753 L659.601356 781.200227 L655.338862 773.185143 L681.237501 773.549648 L678.573442 768.540220 Z" fill="#888" fill-opacity="0.18" stroke="#000" stroke-width="1"/>
  <path d="M666.469688 139.701157 L693.007678 126.809483 L693.333272 132.473895 L715.274614 118.709814 L715.795563 127.772873 L737.150837 103.812851 L738.583449 128.736263 L756.709567 127.694363 L757.490992 141.288952 L739.364874 142.330852 L740.797486 167.254265 L716.837463 145.898991 L717.358413 154.962051 L693.984459 143.802719 L694.310053 149.467131 Z" fill="#888" fill-opacity="0.18" stroke="#000" stroke-width="1"/>
  <path d="M548.938422 993.080402 L552.565562 963.800648 L557.494872 966.610181 L557.888523 940.711968 L565.775419 945.207221 L557.296312 914.251848 L578.985276 926.613794 L587.975782 910.840002 L599.806126 917.582882 L590.815620 933.356674 L612.504584 945.718621 L581.549211 954.197728 L589.436107 958.692981 L567.353492 972.229248 L572.282802 975.038781 Z" fill="#888" fill-opacity="0.18" stroke="#000" stroke-width="1"/>
  <path d="M767.132584 855.511465 L737.659349 854.174088 L740.076726 849.041071 L714.226429 850.664200 L718.094232 842.451373 L687.892656 853.313931 L698.529116 830.728657 L682.103462 822.993050 L687.905167 810.673810 L704.330821 818.409417 L714.967281 795.824143 L725.829839 826.025719 L729.697643 817.812892 L744.911480 838.775038 L747.328857 833.642021 Z" fill="#888" fill-opacity="0.18" stroke="#000" stroke-width="1"/>
  <path d="M822.944171 84.396410 L794.301680 91.472276 L795.164137 85.864448 L770.835417 94.751844 L772.215348 85.779319 L746.334207 104.760807 L750.129016 80.086361 L732.183964 77.326500 L734.253859 63.867711 L752.198911 66.627572 L755.993720 41.953126 L774.975209 67.834267 L776.355139 58.861741 L796.889050 74.648790 L797.751506 69.040961 Z" fill="#888" fill-opacity="0.18" stroke="#000" stroke-width="1"/>
  <path d="M195.046811 333.994656 L221.706188 346.633397 L217.490777 350.431012 L241.955144 358.937901 L235.210487 365.014086 L267.262593 366.685267 L248.714786 383.394776 L260.867156 396.884091 L250.750170 405.998369 L238.597800 392.509054 L220.049992 409.218563 L221.721172 377.166457 L214.976515 383.242642 L209.059956 358.026244 L204.844545 361.823860 Z" fill="#888" fill-opacity="0.18" stroke="#000" stroke-width="1"/>
  <path d="M183.983666 404.493912 L154.480507 404.339843 L156.690043 399.113991 L130.925657 401.772721 L134.460915 393.411358 L104.719364 405.476620 L114.441323 382.482873 L97.718598 375.412358 L103.021484 362.870314 L119.744209 369.940830 L129.466168 346.947083 L141.531430 376.688633 L145.066688 368.327270 L161.109115 388.662288 L163.318651 383.436436 Z" fill="#888" fill-opacity="0.18" stroke="#000" stroke-width="1"/>
  <path d="M155.676587 268.853642 L150.033559 297.812517 L145.310314 294.668867 L143.126854 320.477875 L135.569662 315.448036 L141.888043 346.915613 L121.105766 333.083555 L111.046087 348.197938 L99.710300 340.653179 L109.769978 325.538796 L88.987701 311.706738 L120.455279 305.388357 L112.898087 300.358518 L135.863824 288.381568 L131.140580 285.237918 Z" fill="#888" fill-opacity="0.18" stroke="#000" stroke-width="1"/>
  <path d="M567.523086 684.238316 L593.942483 671.105319 L594.319687 676.766529 L616.134676 662.803053 L616.738202 671.860988 L637.874224 647.707335 L639.533921 672.616657 L657.649791 671.409605 L658.555080 684.996507 L640.439210 686.203559 L642.098906 711.112880 L617.945254 689.976858 L618.548780 699.034793 L595.074094 688.088947 L595.451298 693.750157 Z" fill="#888" fill-opacity="0.18" stroke="#000" stroke-width="1"/>
  <path d="M51.284241 554.506501 L80.724905 556.431988 L78.205538 561.515724 L104.083087 560.408971 L100.052101 568.542948 L130.464508 558.285471 L119.379296 580.653907 L135.647250 588.715879 L129.600771 600.916845 L113.332817 592.854873 L102.247606 615.223309 L91.990128 584.810902 L87.959142 592.944879 L73.166806 571.683195 L70.647439 576.766931 Z" fill="#888" fill-opacity="0.18" stroke="#000" stroke-width="1"/>
  <path d="M511.111951 655.888302 L494.851598 680.506611 L491.684173 675.799277 L479.823173 698.825112 L474.755293 691.293378 L468.595658 722.792414 L454.658987 702.080145 L439.595519 712.215905 L431.993699 700.918304 L447.057167 690.782544 L433.120496 670.070275 L464.619532 676.229910 L459.551652 668.698175 L485.349323 666.384609 L482.181898 661.677275 Z" fill="#888" fill-opacity="0.18" stroke="#000" stroke-width="1"/>
  <path d="M297.646951 626.730730 L324.289857 639.404157 L320.069507 643.196283 L344.522781 651.735005 L337.770221 657.802407 L369.820126 659.515301 L351.250586 676.200657 L363.385390 689.705776 L353.256550 698.806879 L341.121746 685.301760 L322.552207 701.987115 L324.265102 669.937210 L317.512542 676.004612 L311.628807 650.780535 L307.408457 654.572661 Z" fill="#888" fill-opacity="0.18" stroke="#000" stroke-width="1"/>
  <path d="M948.176078 860.910650 L937.647493 888.471656 L933.533748 884.564140 L926.953924 909.615654 L920.371932 903.363629 L921.196848 935.448670 L903.096372 918.255601 L890.592322 931.419584 L880.719334 922.041547 L893.223384 908.877564 L875.122908 891.684495 L907.207949 890.859579 L900.625957 884.607553 L925.306258 876.749109 L921.192514 872.841593 Z" fill="#888" fill-opacity="0.18" stroke="#000" stroke-width="1"/>
  <path d="M114.911093 755.830939 L144.360285 754.040609 L142.499900 759.400697 L168.033098 755.050042 L165.056483 763.626183 L193.938374 749.627369 L185.752681 773.211756 L202.904963 779.164987 L198.440040 792.029198 L181.287758 786.075968 L173.102066 809.660355 L159.103252 780.778464 L156.126637 789.354605 L138.779131 770.120873 L136.918746 775.480961 Z" fill="#888" fill-opacity="0.18" stroke="#000" stroke-width="1"/>
  <path d="M47.770437 338.737384 L70.615693 357.406997 L65.611822 360.081480 L87.318266 374.213100 L79.312074 378.492272 L110.025484 387.809824 L88.008455 399.577546 L96.566798 415.589931 L84.557509 422.008689 L75.999166 405.996304 L53.982136 417.764026 L63.299689 387.050615 L55.293496 391.329787 L55.604082 365.430444 L50.600211 368.104926 Z" fill="#888" fill-opacity="0.18" stroke="#000" stroke-width="1"/>
  <path d="M406.399467 826.064164 L391.063115 851.268458 L387.723325 846.681806 L376.724252 870.131599 L371.380589 862.792955 L366.393138 894.498723 L351.698064 874.317452 L337.020776 885.004779 L329.005281 873.996813 L343.682569 863.309486 L328.987495 843.128216 L360.693263 848.115667 L355.349600 840.777024 L381.043746 837.508501 L377.703957 832.921849 Z" fill="#888" fill-opacity="0.18" stroke="#000" stroke-width="1"/>
  <path d="M583.327488 273.962184 L601.626960 250.819377 L604.381639 255.779550 L618.162037 233.848452 L622.569524 241.784729 L631.391498 210.925320 L643.512087 232.750081 L659.384641 223.935107 L665.995871 235.839522 L650.123318 244.654496 L662.243907 266.479257 L631.384498 257.657283 L635.791984 265.593559 L609.890998 265.699896 L612.645677 270.660069 Z" fill="#888" fill-opacity="0.18" stroke="#000" stroke-width="1"/>
  <path d="M580.066269 555.638853 L557.913115 575.124693 L556.092637 569.750920 L538.602598 588.855132 L535.689833 580.257096 L521.476654 609.034099 L513.466551 585.389499 L496.270478 591.215029 L491.901331 578.317974 L509.097403 572.492444 L501.087300 548.847844 L529.864303 563.061023 L526.951538 554.462987 L552.451681 559.003374 L550.631203 553.629602 Z" fill="#888" fill-opacity="0.18" stroke="#000" stroke-width="1"/>
  <path d="M530.354086 59.147045 L559.608913 55.324049 L558.123733 60.799980 L583.294851 54.693654 L580.918562 63.455143 L608.763005 47.492142 L602.228212 71.586236 L619.751189 76.338813 L616.186756 89.481046 L598.663779 84.728469 L592.128986 108.822563 L576.165985 80.978120 L573.789697 89.739609 L555.153372 71.751840 L553.668192 77.227771 Z" fill="#888" fill-opacity="0.18" stroke="#000" stroke-width="1"/>
  <path d="M969.961000 595.379453 L971.290121 624.853062 L965.959812 622.909000 L969.910244 648.507173 L961.381749 645.396674 L974.926739 674.494159 L951.473378 665.940286 L945.252379 682.997276 L932.459637 678.331527 L938.680635 661.274538 L915.227274 652.720665 L944.324760 639.175676 L935.796265 636.065177 L955.299193 619.020876 L949.968884 617.076814 Z" fill="#888" fill-opacity="0.18" stroke="#000" stroke-width="1"/>
  <path d="M323.984100 50.731593 L308.902549 76.089175 L305.516702 71.536416 L294.754527 95.095872 L289.337173 87.811457 L284.669522 119.565881 L269.771797 99.533740 L255.202967 110.368449 L247.076936 99.441827 L261.645765 88.607118 L246.748040 68.574977 L278.502464 73.242628 L273.085109 65.958213 L298.745009 62.430897 L295.359162 57.878138 Z" fill="#888" fill-opacity="0.18" stroke="#000" stroke-width="1"/>
  <path d="M677.778463 431.455775 L706.503748 424.723898 L705.574104 430.320981 L730.007652 421.725973 L728.520222 430.681305 L754.627128 412.011548 L750.536696 436.638713 L768.447362 439.613572 L766.216217 453.046571 L748.305552 450.071712 L744.215121 474.698876 L725.545363 448.591971 L724.057933 457.547303 L703.714817 441.515147 L702.785174 447.112230 Z" fill="#888" fill-opacity="0.18" stroke="#000" stroke-width="1"/>
  <path d="M968.056208 426.204192 L985.255940 402.232764 L988.239054 407.059005 L1000.981170 384.508819 L1005.754152 392.230806 L1013.126664 360.993385 L1026.252364 382.228848 L1041.696337 372.682885 L1048.855809 384.265864 L1033.411836 393.811828 L1046.537536 415.047291 L1015.300115 407.674779 L1020.073097 415.396765 L994.205281 416.711488 L997.188395 421.537730 Z" fill="#888" fill-opacity="0.18" stroke="#000" stroke-width="1"/>
  <path d="M275.267480 458.182794 L266.898679 486.474547 L262.495469 482.896376 L257.869847 508.381196 L250.824710 502.656121 L254.124867 534.581649 L234.750740 518.837696 L223.300592 532.927970 L212.732886 524.340358 L224.183034 510.250084 L204.808908 494.506130 L236.734436 491.205973 L229.689298 485.480899 L253.689047 475.740033 L249.285837 472.161862 Z" fill="#888" fill-opacity="0.18" stroke="#000" stroke-width="1"/>
  <path d="M450.817399 351.251121 L464.291760 377.498060 L458.635916 377.948616 L472.881000 399.580768 L463.831649 400.301659 L488.257253 421.122808 L463.371539 423.105258 L464.813320 441.203959 L451.239294 442.285296 L449.797513 424.186594 L424.911799 426.169044 L445.732948 401.743440 L436.683598 402.464331 L447.324228 378.849730 L441.668383 379.300287 Z" fill="#888" fill-opacity="0.18" stroke="#000" stroke-width="1"/>
  <path d="M544.127120 409.289428 L528.555898 434.349301 L525.259118 429.731638 L514.041383 453.077619 L508.766534 445.689359 L503.483004 477.347133 L488.977170 457.029416 L474.200648 467.579114 L466.288375 456.496723 L481.064896 445.947025 L466.559062 425.629307 L498.216836 430.912837 L492.941987 423.524576 L518.665557 420.496312 L515.368776 415.878649 Z" fill="#888" fill-opacity="0.18" stroke="#000" stroke-width="1"/>
  <path d="M63.228505 438.860274 L79.352587 463.568049 L73.773982 464.602814 L90.185973 484.640752 L81.260205 486.296376 L107.713685 504.471737 L83.167822 509.024702 L86.479070 526.876239 L73.090418 529.359675 L69.779170 511.508138 L45.233307 516.061104 L63.408668 489.607623 L54.482900 491.263247 L62.616772 466.672344 L57.038167 467.707109 Z" fill="#888" fill-opacity="0.18" stroke="#000" stroke-width="1"/>
  <path d="M769.067395 255.032014 L779.217488 282.734645 L773.549115 282.487426 L785.030658 305.704802 L775.961260 305.309251 L797.645875 328.971623 L772.705033 327.883857 L771.913930 346.022651 L758.309834 345.429324 L759.100937 327.290530 L734.160094 326.202763 L757.822466 304.518148 L748.753068 304.122597 L762.212368 281.992987 L756.543995 281.745767 Z" fill="#888" fill-opacity="0.18" stroke="#000" stroke-width="1"/>
  <path d="M846.320801 1056.806854 L816.963257 1053.875169 L819.655091 1048.880611 L793.754826 1049.101304 L798.061760 1041.110012 L767.316195 1050.320909 L779.160262 1028.344855 L763.177677 1019.730988 L769.638077 1007.744049 L785.620662 1016.357916 L797.464729 994.381862 L806.675627 1025.127427 L810.982560 1017.136135 L825.038757 1038.891495 L827.730591 1033.896938 Z" fill="#888" fill-opacity="0.18" stroke="#000" stroke-width="1"/>
  <path d="M640.179706 131.352179 L661.713286 151.520598 L656.540373 153.851380 L677.243910 169.415311 L668.967249 173.144562 L698.982029 184.513086 L676.221212 194.768527 L683.679715 211.321849 L671.264723 216.915726 L663.806221 200.362404 L641.045404 210.617845 L652.413927 180.603065 L644.137266 184.332316 L646.194547 158.512944 L641.021634 160.843726 Z" fill="#888" fill-opacity="0.18" stroke="#000" stroke-width="1"/>
  <path d="M88.514655 808.428146 L117.825279 805.059546 L116.255310 810.511772 L141.518147 804.796752 L139.006196 813.520314 L167.094978 797.991286 L160.187113 821.981081 L177.634237 827.004983 L173.866311 840.090326 L156.419187 835.066424 L149.511322 859.056219 L133.982294 830.967437 L131.470344 839.690999 L113.115371 821.416225 L111.545402 826.868451 Z" fill="#888" fill-opacity="0.18" stroke="#000" stroke-width="1"/>
  <path d="M916.427726 260.136764 L922.195674 289.071016 L916.632793 287.954805 L924.406285 312.661994 L915.505675 310.876056 L933.292354 337.592426 L908.815677 332.681096 L905.243800 350.482315 L891.892886 347.803408 L895.464762 330.002188 L870.988086 325.090858 L897.704456 307.304179 L888.803846 305.518241 L905.507030 285.722382 L899.944149 284.606170 Z" fill="#888" fill-opacity="0.18" stroke="#000" stroke-width="1"/>
  <path d="M671.326292 122.584881 L679.125221 94.130762 L683.599404 97.619782 L687.712281 72.047206 L694.870974 77.629637 L690.930321 45.776825 L710.616726 61.128513 L721.781590 46.811127 L732.519629 55.184775 L721.354766 69.502161 L741.041171 84.853848 L709.188359 88.794501 L716.347052 94.376933 L692.547770 104.597822 L697.021953 108.086841 Z" fill="#888" fill-opacity="0.18" stroke="#000" stroke-width="1"/>
  <path d="M1044.506752 1059.891071 L1025.822203 1037.058029 L1031.257399 1035.430080 L1012.788171 1017.270785 L1021.484484 1014.666065 L993.231903 999.437079 L1017.146765 992.274102 L1011.937327 974.881475 L1024.981797 970.974396 L1030.191235 988.367023 L1054.106097 981.204046 L1038.877111 1009.456627 L1047.573425 1006.851908 L1042.127791 1032.174181 L1047.562987 1030.546231 Z" fill="#888" fill-opacity="0.18" stroke="#000" stroke-width="1"/>
  <path d="M991.535957 151.583922 L1014.809126 169.717310 L1009.868793 172.507415 L1031.897945 186.130516 L1023.993412 190.594684 L1054.915163 199.195596 L1033.177699 211.472057 L1042.106034 227.281122 L1030.249235 233.977374 L1021.320900 218.168309 L999.583435 230.444770 L1008.184347 199.523019 L1000.279814 203.987187 L999.988127 178.087625 L995.047794 180.877730 Z" fill="#888" fill-opacity="0.18" stroke="#000" stroke-width="1"/>
  <path d="M917.613099 115.442233 L924.669170 144.089607 L919.061939 143.223275 L927.932521 167.558130 L918.960951 166.172000 L937.924550 192.066252 L913.252732 188.254393 L910.480471 206.197533 L897.023116 204.118337 L899.795377 186.175197 L875.123559 182.363338 L901.017811 163.399739 L892.046241 162.013608 L907.847476 141.490612 L902.240245 140.624281 Z" fill="#888" fill-opacity="0.18" stroke="#000" stroke-width="1"/>
  <path d="M367.967465 306.933576 L375.003015 335.585997 L369.396405 334.715649 L378.249556 359.056852 L369.278980 357.664295 L388.224028 383.572124 L363.554946 379.742594 L360.769834 397.683744 L347.313971 395.594910 L350.099083 377.653760 L325.430002 373.824230 L351.337830 354.879183 L342.367255 353.486627 L358.183187 332.974954 L352.576577 332.104606 Z" fill="#888" fill-opacity="0.18" stroke="#000" stroke-width="1"/>
  <path d="M986.096880 761.499198 L1007.062517 782.257383 L1001.826919 784.443725 L1022.090602 800.576163 L1013.713646 804.074310 L1043.401405 816.271333 L1020.364775 825.891238 L1027.361069 842.645150 L1014.795635 847.892371 L1007.799341 831.138459 L984.762711 840.758364 L996.959733 811.070605 L988.582777 814.568752 L991.355724 788.816409 L986.120126 791.002751 Z" fill="#888" fill-opacity="0.18" stroke="#000" stroke-width="1"/>
  <path d="M116.678229 466.406529 L144.506273 456.605502 L144.187813 462.270320 L167.547695 451.081562 L167.038159 460.145270 L190.971269 438.759840 L189.570045 463.685037 L207.697461 464.704109 L206.933157 478.299671 L188.805741 477.280599 L187.404516 502.205796 L166.019087 478.272686 L165.509551 487.336394 L143.550893 473.599955 L143.232433 479.264772 Z" fill="#888" fill-opacity="0.18" stroke="#000" stroke-width="1"/>
  <path d="M288.696900 463.023387 L301.581196 436.481814 L305.339737 440.732101 L314.072094 416.347304 L320.085761 423.147763 L322.052743 391.112449 L338.590326 409.813712 L352.191244 397.786380 L361.211744 407.987069 L347.610825 420.014401 L364.148407 438.715665 L332.113093 436.748682 L338.126759 443.549141 L312.856820 449.232675 L316.615361 453.482962 Z" fill="#888" fill-opacity="0.18" stroke="#000" stroke-width="1"/>
  <path d="M230.201522 123.481771 L205.540261 107.286636 L210.239195 104.106763 L187.182046 92.306750 L194.700340 87.218952 L163.185110 81.142713 L183.860418 67.151268 L173.684823 52.114681 L184.962263 44.482984 L195.137859 59.519571 L215.813167 45.528127 L209.736927 77.043357 L217.255221 71.955559 L219.637062 97.747015 L224.335996 94.567142 Z" fill="#888" fill-opacity="0.18" stroke="#000" stroke-width="1"/>
</svg>
