<?xml version="1.0" encoding="UTF-8"?>
<svg xmlns="http://www.w3.org/2000/svg" width="1100" height="1100" viewBox="0 0 1100 1100">
  <rect x="0" y="0" width="1100" height="1100" fill="white"/>
  <text x="10.0" y="18.0" font-family="monospace" font-size="12">prefix=N171_job5048575_task171 run_id=171 L=11.7250681586 feas=0.000e+00 N=171</text>
  <rect x="40.000000" y="40.000000" width="1020.000000" height="1020.000000" fill="none" stroke="#000" stroke-width="2"/>
  <path d="M416.871123 577.494915 L402.488513 553.153812 L407.873222 552.401063 L393.015869 532.518276 L401.631403 531.313879 L377.081576 512.786038 L400.774293 509.473945 L398.365498 492.242878 L411.288798 490.436282 L413.697593 507.667349 L437.390310 504.355256 L418.862470 528.905084 L427.478003 527.700686 L418.642639 550.895566 L424.027347 550.142818 Z" fill="#888" fill-opacity="0.18" stroke="#000" stroke-width="1"/>
  <path d="M831.305359 621.321975 L833.705565 649.492665 L828.527321 647.835107 L833.289223 672.194713 L825.004032 669.542619 L839.086773 696.885832 L816.302498 689.592572 L810.998310 706.162954 L798.570524 702.184813 L803.874712 685.614431 L781.090438 678.321172 L808.433650 664.238430 L800.148459 661.586336 L818.170832 644.519989 L812.992588 642.862430 Z" fill="#888" fill-opacity="0.18" stroke="#000" stroke-width="1"/>
  <path d="M997.116681 505.346560 L993.852804 477.262830 L999.079492 478.760643 L993.572027 454.558701 L1001.934729 456.955201 L987.019224 430.057198 L1010.016654 436.647572 L1014.809653 419.922169 L1027.353706 423.516919 L1022.560706 440.242322 L1045.558136 446.832696 L1018.660132 461.748201 L1027.022833 464.144701 L1009.532869 481.756268 L1014.759558 483.254080 Z" fill="#888" fill-opacity="0.18" stroke="#000" stroke-width="1"/>
  <path d="M221.494370 654.293424 L246.402628 640.917046 L246.934806 646.328007 L267.407858 632.295179 L268.259344 640.952717 L287.774475 617.180159 L290.116060 640.988388 L307.431136 639.285418 L308.708364 652.271725 L291.393288 653.974695 L293.734873 677.782925 L269.962314 658.267793 L270.813800 666.925331 L247.999163 657.149930 L248.531341 662.560891 Z" fill="#888" fill-opacity="0.18" stroke="#000" stroke-width="1"/>
  <path d="M598.531384 725.049311 L607.213500 751.955995 L601.794998 751.507060 L611.919963 774.168729 L603.250358 773.450432 L623.128628 796.920184 L599.287216 794.944869 L597.850623 812.284078 L584.846216 811.206633 L586.282809 793.867424 L562.441397 791.892109 L585.911149 772.013839 L577.241545 771.295543 L590.957992 750.609189 L585.539489 750.160254 Z" fill="#888" fill-opacity="0.18" stroke="#000" stroke-width="1"/>
  <path d="M287.834233 462.035719 L315.969132 459.247125 L314.383165 464.447742 L338.674762 459.350251 L336.137216 467.671239 L363.283554 453.212635 L356.305300 476.095353 L372.947276 481.170447 L369.140956 493.651929 L352.498979 488.576836 L345.520725 511.459553 L331.062122 484.313215 L328.524575 492.634204 L311.211231 474.848978 L309.625264 480.049595 Z" fill="#888" fill-opacity="0.18" stroke="#000" stroke-width="1"/>
  <path d="M337.248447 301.521918 L353.827682 278.620440 L356.666759 283.257396 L368.968614 261.699787 L373.511137 269.118916 L380.702654 239.214787 L393.194591 259.617393 L408.032850 250.532349 L414.846633 261.661043 L400.008374 270.746087 L412.500310 291.148693 L382.596181 283.957175 L387.138703 291.376305 L362.344912 292.531307 L365.183988 297.168263 Z" fill="#888" fill-opacity="0.18" stroke="#000" stroke-width="1"/>
  <path d="M358.771307 611.052865 L349.053218 584.502770 L354.485046 584.741430 L343.489664 562.489066 L352.180589 562.870922 L331.407916 540.188970 L355.307960 541.239073 L356.071671 523.857223 L369.108059 524.430007 L368.344347 541.811857 L392.244391 542.861960 L369.562439 563.634633 L378.253364 564.016489 L365.348702 585.218750 L370.780530 585.457410 Z" fill="#888" fill-opacity="0.18" stroke="#000" stroke-width="1"/>
  <path d="M904.352979 551.744518 L931.494046 559.663562 L928.080823 563.895774 L952.518764 568.237798 L947.057608 575.009338 L977.639350 571.733378 L962.621170 590.355115 L976.164251 601.277428 L967.972516 611.434738 L954.429435 600.512425 L939.411254 619.134161 L936.135295 588.552419 L930.674138 595.323959 L921.254377 572.360200 L917.841155 576.592413 Z" fill="#888" fill-opacity="0.18" stroke="#000" stroke-width="1"/>
  <path d="M849.691064 223.846753 L824.691134 237.051004 L824.196291 231.636501 L803.626932 245.527779 L802.835184 236.864573 L783.156541 260.501957 L780.979234 236.678143 L763.652823 238.261639 L762.465201 225.266831 L779.791611 223.683335 L777.614304 199.859520 L801.251687 219.538163 L800.459939 210.874958 L823.206606 220.807494 L822.711763 215.392991 Z" fill="#888" fill-opacity="0.18" stroke="#000" stroke-width="1"/>
  <path d="M226.637428 265.743539 L204.184807 282.925757 L202.795406 277.669210 L184.825902 294.791216 L182.602861 286.380742 L167.134279 312.964531 L161.020915 289.835727 L144.199966 294.281810 L140.865404 281.666099 L157.686353 277.220016 L151.572988 254.091212 L178.156778 269.559794 L175.933736 261.149319 L200.016604 267.156118 L198.627203 261.899571 Z" fill="#888" fill-opacity="0.18" stroke="#000" stroke-width="1"/>
  <path d="M968.967229 113.042476 L980.262385 138.960968 L974.826029 139.048977 L987.138049 160.600782 L978.439879 160.741596 L1000.537340 182.134986 L976.617372 182.522225 L976.899001 199.918565 L963.851746 200.129787 L963.570117 182.733447 L939.650149 183.120686 L961.043539 161.023225 L952.345368 161.164040 L963.953316 139.224995 L958.516960 139.313004 Z" fill="#888" fill-opacity="0.18" stroke="#000" stroke-width="1"/>
  <path d="M924.610432 212.012851 L913.414377 186.051396 L918.851030 185.984157 L906.621437 164.385472 L915.320081 164.277889 L893.304513 142.800235 L917.225786 142.504382 L917.010620 125.107093 L930.058587 124.945719 L930.273752 142.343008 L954.195025 142.047155 L932.717371 164.062723 L941.416015 163.955141 L929.724336 185.849678 L935.160989 185.782439 Z" fill="#888" fill-opacity="0.18" stroke="#000" stroke-width="1"/>
  <path d="M601.398321 438.593521 L616.038711 414.406588 L619.249380 418.794448 L629.737348 396.298478 L634.874419 403.319054 L639.583182 372.924935 L653.710127 392.231520 L667.751280 381.957378 L675.456887 392.488242 L661.415734 402.762385 L675.542680 422.068969 L645.148561 417.360206 L650.285632 424.380783 L625.670719 427.570168 L628.881388 431.958028 Z" fill="#888" fill-opacity="0.18" stroke="#000" stroke-width="1"/>
  <path d="M372.956688 264.173068 L354.436550 242.810642 L359.598529 241.103105 L341.412025 224.211769 L349.671192 221.479710 L322.193125 207.661942 L344.905834 200.148777 L339.441714 183.630443 L351.830465 179.532353 L357.294584 196.050687 L380.007294 188.537523 L366.189526 216.015590 L374.448693 213.283530 L369.922488 237.688030 L375.084467 235.980492 Z" fill="#888" fill-opacity="0.18" stroke="#000" stroke-width="1"/>
  <path d="M592.356802 885.599694 L564.835373 879.125147 L568.020310 874.718573 L543.387153 871.673290 L548.483052 864.622772 L518.117010 869.509322 L532.130730 850.120396 L518.029693 839.928600 L525.673541 829.352822 L539.774578 839.544619 L553.788298 820.155693 L558.674848 850.521735 L563.770747 843.471216 L574.390183 865.905425 L577.575119 861.498851 Z" fill="#888" fill-opacity="0.18" stroke="#000" stroke-width="1"/>
  <path d="M718.050060 490.602508 L745.899514 495.476594 L742.974420 500.059775 L767.742348 501.677150 L763.062199 509.010239 L793.095294 502.377889 L780.224884 522.543884 L794.891062 531.904182 L787.870839 542.903816 L773.204661 533.543518 L760.334250 553.709513 L753.701901 523.676417 L749.021752 531.009506 L737.124234 509.226136 L734.199141 513.809317 Z" fill="#888" fill-opacity="0.18" stroke="#000" stroke-width="1"/>
  <path d="M195.838424 125.620126 L175.175250 106.322924 L180.129130 104.082213 L160.267748 89.196258 L168.193956 85.611119 L139.415591 74.758445 L161.212663 64.899315 L154.042387 49.046898 L165.931699 43.669191 L173.101975 59.521607 L194.899047 49.662477 L184.046373 78.440843 L191.972581 74.855705 L190.036890 99.600790 L194.990770 97.360079 Z" fill="#888" fill-opacity="0.18" stroke="#000" stroke-width="1"/>
  <path d="M398.490234 840.328906 L381.024120 862.561397 L378.369396 857.816488 L365.230154 878.874181 L360.982596 871.282328 L352.621856 900.880857 L340.941072 880.003259 L325.757365 888.498375 L319.386028 877.110594 L334.569736 868.615478 L322.888951 847.737881 L352.487480 856.098620 L348.239923 848.506767 L373.059949 848.326671 L370.405225 843.581762 Z" fill="#888" fill-opacity="0.18" stroke="#000" stroke-width="1"/>
  <path d="M583.898743 388.128823 L598.635934 364.000749 L601.828995 368.401439 L612.407022 345.947676 L617.515920 352.988780 L622.346436 322.613774 L636.395905 341.976811 L650.478114 331.759016 L658.141461 342.320672 L644.059252 352.538468 L658.108722 371.901505 L627.733716 367.070989 L632.842613 374.112094 L608.215118 377.202820 L611.408179 381.603510 Z" fill="#888" fill-opacity="0.18" stroke="#000" stroke-width="1"/>
  <path d="M769.292662 392.336995 L765.562039 420.362541 L760.863024 417.627405 L760.260313 442.440766 L752.741889 438.064548 L760.597406 467.801154 L739.921738 455.766555 L731.169303 470.803405 L719.891666 464.239078 L728.644101 449.202229 L707.968434 437.167630 L737.705039 429.312113 L730.186615 424.935895 L751.464993 412.157133 L746.765978 409.421997 Z" fill="#888" fill-opacity="0.18" stroke="#000" stroke-width="1"/>
  <path d="M749.303327 51.910931 L727.516022 69.929313 L725.928980 64.729023 L708.619315 82.517830 L706.080047 74.197366 L691.627058 101.346694 L684.644072 78.465420 L668.003145 83.543955 L664.194243 71.063260 L680.835170 65.984725 L673.852184 43.103451 L701.001511 57.556440 L698.462244 49.235976 L722.754895 54.328444 L721.167853 49.128155 Z" fill="#888" fill-opacity="0.18" stroke="#000" stroke-width="1"/>
  <path d="M562.817926 224.289930 L536.854442 235.481280 L536.788188 230.044615 L515.187288 242.270294 L515.081281 233.571631 L493.599638 255.583307 L493.308120 231.661981 L475.910792 231.873995 L475.751782 218.825999 L493.149110 218.613985 L492.857592 194.692660 L514.869268 216.174303 L514.763261 207.475639 L536.655680 219.171285 L536.589426 213.734620 Z" fill="#888" fill-opacity="0.18" stroke="#000" stroke-width="1"/>
  <path d="M856.938376 265.180130 L855.552183 293.418885 L850.641916 291.084150 L852.105565 315.861637 L844.249137 312.126061 L854.551268 341.106071 L832.946090 330.833238 L825.474939 346.546094 L813.690296 340.942731 L821.161448 325.229874 L799.556270 314.957041 L828.536280 304.654910 L820.679852 300.919334 L840.821381 286.414680 L835.911113 284.079945 Z" fill="#888" fill-opacity="0.18" stroke="#000" stroke-width="1"/>
  <path d="M163.721943 780.631485 L181.817363 758.908120 L184.335163 763.727083 L198.071853 743.054166 L202.100332 750.764506 L211.304982 721.417456 L222.383302 742.620891 L237.803982 734.563931 L243.846701 746.129441 L228.426022 754.186401 L239.504341 775.389835 L210.157292 766.185185 L214.185772 773.895525 L189.370763 773.365008 L191.888563 778.183970 Z" fill="#888" fill-opacity="0.18" stroke="#000" stroke-width="1"/>
  <path d="M395.169174 881.452287 L422.319097 889.340914 L418.910619 893.576949 L443.353410 897.891586 L437.899844 904.669241 L468.477897 901.359016 L453.480592 919.997569 L467.035903 930.904700 L458.855555 941.071183 L445.300244 930.164052 L430.302939 948.802605 L426.992714 918.224552 L421.539148 925.002208 L412.093662 902.049018 L408.685183 906.285053 Z" fill="#888" fill-opacity="0.18" stroke="#000" stroke-width="1"/>
  <path d="M735.000811 785.388953 L724.254534 811.539790 L720.407216 807.697934 L713.503888 831.539288 L707.348180 825.392318 L707.370023 856.149014 L690.441826 839.244845 L678.147884 851.556261 L668.914322 842.335805 L681.208264 830.024389 L664.280067 813.120219 L695.036764 813.098376 L688.881056 806.951405 L712.712581 800.014220 L708.865264 796.172363 Z" fill="#888" fill-opacity="0.18" stroke="#000" stroke-width="1"/>
  <path d="M523.623384 906.003756 L499.795009 890.786749 L504.258707 887.682378 L482.021089 876.657202 L489.163006 871.690209 L458.890732 866.252901 L478.531002 852.593670 L468.597016 838.309837 L479.309890 830.859347 L489.243877 845.143180 L508.884147 831.483949 L503.446839 861.756223 L510.588755 856.789230 L513.186103 881.473636 L517.649800 878.369266 Z" fill="#888" fill-opacity="0.18" stroke="#000" stroke-width="1"/>
  <path d="M367.155304 728.262175 L382.270502 752.155261 L376.911137 753.071192 L392.365463 772.493601 L383.790481 773.959091 L408.891662 791.732823 L385.310460 795.762920 L388.241439 812.912886 L375.378965 815.111120 L372.447985 797.961155 L348.866783 801.991252 L366.640515 776.890070 L358.065532 778.355560 L366.192409 754.903055 L360.833045 755.818986 Z" fill="#888" fill-opacity="0.18" stroke="#000" stroke-width="1"/>
  <path d="M497.526540 409.755776 L525.722614 407.674863 L524.006498 412.833997 L548.418488 408.348365 L545.672703 416.602979 L573.173701 402.830906 L565.622792 425.531095 L582.132021 431.022664 L578.013343 443.404586 L561.504115 437.913016 L553.953206 460.613205 L540.181133 433.112207 L537.435348 441.366821 L520.574267 423.152265 L518.858151 428.311399 Z" fill="#888" fill-opacity="0.18" stroke="#000" stroke-width="1"/>
  <path d="M635.991987 508.022292 L620.652516 531.772017 L617.571165 527.292398 L606.431660 549.472965 L601.501498 542.305574 L595.908426 572.549457 L582.350481 552.839132 L568.015699 562.699456 L560.620456 551.948369 L574.955238 542.088045 L561.397292 522.377720 L591.641174 527.970792 L586.711012 520.803402 L611.408462 518.333159 L608.327111 513.853540 Z" fill="#888" fill-opacity="0.18" stroke="#000" stroke-width="1"/>
  <path d="M367.089910 401.267881 L382.116513 377.318977 L385.256363 381.757790 L396.103946 359.433004 L401.127705 366.535105 L406.323559 336.220455 L420.138896 355.751232 L434.343098 345.703714 L441.878737 356.356865 L427.674535 366.404383 L441.489873 385.935160 L411.175223 380.739306 L416.198982 387.841407 L391.536062 390.635416 L394.675911 395.074229 Z" fill="#888" fill-opacity="0.18" stroke="#000" stroke-width="1"/>
  <path d="M247.850985 544.501151 L251.186982 516.425896 L255.924010 519.094657 L256.177593 494.275273 L263.756837 498.545291 L255.483771 468.922137 L276.326692 480.664685 L284.866727 465.506197 L296.235593 471.911223 L287.695558 487.069711 L308.538479 498.812259 L278.915325 507.085326 L286.494570 511.355343 L265.398065 524.432179 L270.135093 527.100940 Z" fill="#888" fill-opacity="0.18" stroke="#000" stroke-width="1"/>
  <path d="M899.660412 40.049936 L911.884976 65.543245 L906.455353 65.827687 L919.538289 86.920409 L910.850892 87.375515 L933.707150 107.956243 L909.816807 109.207784 L910.727019 126.582578 L897.695924 127.265237 L896.785712 109.890443 L872.895370 111.141985 L893.476097 88.285727 L884.788700 88.740833 L895.596106 66.396569 L890.166483 66.681010 Z" fill="#888" fill-opacity="0.18" stroke="#000" stroke-width="1"/>
  <path d="M836.984107 391.447274 L858.198689 372.757965 L859.947192 377.906213 L876.693476 359.586056 L879.491080 367.823252 L893.090059 340.236251 L900.783472 362.888540 L917.257864 357.293331 L921.454271 369.649125 L904.979879 375.244334 L912.673291 397.896623 L885.086290 384.297645 L887.883894 392.534841 L863.444198 388.202708 L865.192701 393.350955 Z" fill="#888" fill-opacity="0.18" stroke="#000" stroke-width="1"/>
  <path d="M810.336469 177.961395 L838.467324 175.132304 L836.888845 180.335199 L861.173080 175.202746 L858.647513 183.527379 L885.773011 169.029714 L878.827703 191.922453 L895.476968 196.973586 L891.688618 209.460534 L875.039353 204.409401 L868.094045 227.302141 L853.596380 200.176643 L851.070814 208.501276 L833.731887 190.740990 L832.153408 195.943885 Z" fill="#888" fill-opacity="0.18" stroke="#000" stroke-width="1"/>
  <path d="M41.234718 663.592938 L69.124530 668.230520 L66.238435 672.838358 L91.019195 674.245496 L86.401443 681.618037 L116.377175 674.731067 L103.678356 695.005553 L118.423436 704.241058 L111.496807 715.299869 L96.751727 706.064364 L84.052907 726.338850 L77.165938 696.363117 L72.548185 703.735658 L60.466244 682.054033 L57.580148 686.661871 Z" fill="#888" fill-opacity="0.18" stroke="#000" stroke-width="1"/>
  <path d="M771.312062 861.086458 L799.583175 860.781590 L797.546235 865.822680 L822.191864 862.880042 L818.932759 870.945786 L847.244880 858.929186 L838.282344 881.109983 L854.413833 887.628191 L849.525176 899.726807 L833.393688 893.208599 L824.431152 915.389396 L812.414551 887.077275 L809.155447 895.143019 L793.472355 875.904860 L791.435414 880.945950 Z" fill="#888" fill-opacity="0.18" stroke="#000" stroke-width="1"/>
  <path d="M719.820584 312.949061 L748.065160 314.211087 L745.752036 319.131572 L770.522848 317.559001 L766.821850 325.431777 L795.756286 315.002333 L785.578540 336.652467 L801.324092 344.054464 L795.772594 355.863628 L780.027042 348.461631 L769.849296 370.111765 L759.419853 341.177329 L755.718854 349.050105 L741.125788 328.972541 L738.812664 333.893026 Z" fill="#888" fill-opacity="0.18" stroke="#000" stroke-width="1"/>
  <path d="M491.556733 991.985749 L484.315284 964.656091 L489.702313 965.392051 L480.794691 942.224824 L489.413937 943.402361 L470.809663 918.910405 L494.512589 922.148630 L496.867662 904.910138 L509.796531 906.676443 L507.441458 923.914935 L531.144384 927.153160 L506.652428 945.757433 L515.271674 946.934970 L500.476370 966.863972 L505.863399 967.599932 Z" fill="#888" fill-opacity="0.18" stroke="#000" stroke-width="1"/>
  <path d="M491.155227 479.386391 L463.733251 486.269998 L464.539562 480.893049 L441.257884 489.497093 L442.547981 480.893975 L417.814943 499.176528 L421.362710 475.517953 L404.156474 472.937759 L406.091619 460.033082 L423.297855 462.613276 L426.845622 438.954702 L445.128175 463.687739 L446.418272 455.084621 L466.152183 470.139151 L466.958494 464.762202 Z" fill="#888" fill-opacity="0.18" stroke="#000" stroke-width="1"/>
  <path d="M947.374657 562.665654 L940.977882 535.126045 L946.339705 536.027477 L938.149421 512.597039 L946.728336 514.039329 L928.886773 488.986316 L952.478790 492.952613 L955.363370 475.794782 L968.231744 477.958217 L965.347163 495.116048 L988.939181 499.082346 L963.886167 516.923909 L972.465083 518.366199 L957.063349 537.830339 L962.425171 538.731770 Z" fill="#888" fill-opacity="0.18" stroke="#000" stroke-width="1"/>
  <path d="M406.573181 249.290017 L407.435323 221.030409 L412.388054 223.273659 L410.465049 198.527585 L418.389418 202.116786 L407.551498 173.332860 L429.343513 183.203163 L436.521915 167.354425 L448.408469 172.738227 L441.230067 188.586965 L463.022082 198.457268 L434.238156 209.295188 L442.162526 212.884389 L422.293515 227.760160 L427.246246 230.003411 Z" fill="#888" fill-opacity="0.18" stroke="#000" stroke-width="1"/>
  <path d="M1045.391450 973.022356 L1027.778203 950.906246 L1033.006895 949.415441 L1015.540554 931.780445 L1023.906461 929.395157 L997.028475 914.443610 L1020.034718 907.884069 L1015.264142 891.152256 L1027.813002 887.574324 L1032.583578 904.306137 L1055.589821 897.746596 L1040.638274 924.624582 L1049.004180 922.239294 L1043.464278 946.433831 L1048.692970 944.943026 Z" fill="#888" fill-opacity="0.18" stroke="#000" stroke-width="1"/>
  <path d="M705.312109 116.486110 L729.662752 102.119657 L730.411926 107.504864 L750.304569 92.660710 L751.503249 101.277041 L770.047377 76.739515 L773.343746 100.434425 L790.576408 98.037065 L792.374427 110.961562 L775.141765 113.358921 L778.438134 137.053831 L753.900608 118.509703 L755.099288 127.126034 L731.910276 118.275278 L732.659451 123.660484 Z" fill="#888" fill-opacity="0.18" stroke="#000" stroke-width="1"/>
  <path d="M454.706644 630.145962 L442.169178 655.486853 L438.598123 651.386941 L430.054797 674.690969 L424.341108 668.131110 L422.225683 698.814980 L406.513039 680.775368 L393.393321 692.202745 L384.822788 682.362957 L397.942506 670.935579 L382.229861 652.895967 L412.913731 655.011392 L407.200042 648.451533 L431.456012 643.187117 L427.884956 639.087205 Z" fill="#888" fill-opacity="0.18" stroke="#000" stroke-width="1"/>
  <path d="M1046.913223 89.219978 L1047.177857 117.491496 L1042.139671 115.447384 L1045.047232 140.097176 L1036.986134 136.826597 L1048.962430 165.155790 L1026.794411 156.161697 L1020.253252 172.283893 L1008.161605 167.378023 L1014.702764 151.255827 L992.534745 142.261734 L1020.863938 130.285438 L1012.802840 127.014858 L1032.063299 111.359160 L1027.025112 109.315048 Z" fill="#888" fill-opacity="0.18" stroke="#000" stroke-width="1"/>
  <path d="M363.694726 1003.931574 L337.765578 992.660901 L341.684125 988.891724 L317.986610 981.509725 L324.256286 975.479040 L293.505385 974.881561 L310.746994 958.297179 L298.685626 945.757827 L308.090140 936.711801 L320.151508 949.251153 L337.393117 932.666771 L336.795638 963.417672 L343.065314 957.386987 L349.521220 981.353368 L353.439768 977.584191 Z" fill="#888" fill-opacity="0.18" stroke="#000" stroke-width="1"/>
  <path d="M56.963679 820.815356 L76.723713 800.594332 L78.851703 805.597668 L94.183471 786.078369 L97.588255 794.083707 L109.089640 765.558402 L118.452796 787.573082 L134.463472 780.763515 L139.570648 792.771522 L123.559971 799.581089 L132.923127 821.595769 L104.397822 810.094383 L107.802606 818.099721 L83.107683 815.604341 L85.235673 820.607677 Z" fill="#888" fill-opacity="0.18" stroke="#000" stroke-width="1"/>
  <path d="M242.066443 329.285659 L228.813029 354.259561 L225.360074 350.059702 L216.157138 373.111212 L210.632410 366.391437 L207.644793 397.002693 L192.451791 378.523313 L179.012242 389.572769 L170.725150 379.493107 L184.164699 368.443651 L168.971698 349.964270 L199.582954 352.951888 L194.058226 346.232113 L218.454164 341.659983 L215.001209 337.460124 Z" fill="#888" fill-opacity="0.18" stroke="#000" stroke-width="1"/>
  <path d="M982.266569 412.708884 L979.509202 384.570908 L984.708056 386.162646 L979.637528 361.865406 L987.955695 364.412186 L973.527228 337.249818 L996.402187 344.253464 L1001.495748 327.617130 L1013.972998 331.437301 L1008.879438 348.073634 L1031.754396 355.077281 L1004.592028 369.505747 L1012.910195 372.052527 L995.105765 389.346121 L1000.304619 390.937859 Z" fill="#888" fill-opacity="0.18" stroke="#000" stroke-width="1"/>
  <path d="M73.581826 455.877017 L64.730982 429.025362 L70.152196 429.440276 L59.885179 406.842610 L68.559121 407.506471 L48.533919 384.161961 L72.387260 385.987580 L73.714983 368.639695 L86.725897 369.635488 L85.398174 386.983373 L109.251516 388.808992 L85.907006 408.834194 L94.580949 409.498056 L80.994624 430.270102 L86.415838 430.685016 Z" fill="#888" fill-opacity="0.18" stroke="#000" stroke-width="1"/>
  <path d="M580.486816 173.673651 L596.608088 150.447515 L599.538669 155.027189 L611.410086 133.229584 L616.099015 140.557062 L622.695386 110.516044 L635.589942 130.666608 L650.244898 121.288749 L657.278292 132.279966 L642.623336 141.657825 L655.517891 161.808389 L625.476873 155.212017 L630.165803 162.539495 L605.399830 164.186537 L608.330411 168.766210 Z" fill="#888" fill-opacity="0.18" stroke="#000" stroke-width="1"/>
  <path d="M501.386535 592.827085 L476.393849 606.045044 L475.896038 600.630813 L455.334299 614.533369 L454.537800 605.870599 L434.872123 629.518771 L432.681751 605.696154 L415.356212 607.289152 L414.161463 594.294998 L431.487003 592.702000 L429.296631 568.879383 L452.944802 588.545060 L452.148303 579.882290 L474.900414 589.802351 L474.402602 584.388120 Z" fill="#888" fill-opacity="0.18" stroke="#000" stroke-width="1"/>
  <path d="M261.245236 1027.034029 L286.095584 1013.550372 L286.651089 1018.958988 L307.063442 1004.838012 L307.952250 1013.491798 L327.364695 989.635313 L329.808917 1013.433224 L347.116489 1011.655608 L348.449701 1024.636287 L331.142129 1026.413903 L333.586352 1050.211814 L309.729867 1030.799370 L310.618675 1039.453156 L287.762099 1029.776220 L288.317604 1035.184836 Z" fill="#888" fill-opacity="0.18" stroke="#000" stroke-width="1"/>
  <path d="M257.370832 567.949472 L229.190465 570.233262 L230.869405 565.061911 L206.490332 569.723124 L209.176636 561.448961 L181.775470 575.418607 L189.162806 552.664661 L172.614482 547.292053 L176.643938 534.880809 L193.192262 540.253417 L200.579598 517.499471 L214.549244 544.900637 L217.235548 536.626475 L234.227285 554.719208 L235.906226 549.547857 Z" fill="#888" fill-opacity="0.18" stroke="#000" stroke-width="1"/>
  <path d="M275.516386 123.494942 L289.578098 148.022825 L284.183969 148.704794 L298.778931 168.780979 L290.148324 169.872130 L314.452720 188.720771 L290.718550 191.721436 L292.900852 208.982650 L279.954941 210.619377 L277.772639 193.358163 L254.038469 196.358828 L272.887110 172.054432 L264.256503 173.145584 L273.395710 150.068733 L268.001580 150.750702 Z" fill="#888" fill-opacity="0.18" stroke="#000" stroke-width="1"/>
  <path d="M381.341860 109.556658 L353.083309 110.452824 L355.014356 105.370228 L330.435673 108.827751 L333.525347 100.695599 L305.470780 113.301792 L313.967386 90.938374 L297.703081 84.759024 L302.337593 72.560796 L318.601898 78.740145 L327.098503 56.376726 L339.704697 84.431294 L342.794372 76.299142 L358.876450 95.205038 L360.807496 90.122443 Z" fill="#888" fill-opacity="0.18" stroke="#000" stroke-width="1"/>
  <path d="M618.896108 669.297721 L591.029762 674.074279 L592.242973 668.774295 L568.373972 675.581419 L570.315108 667.101444 L544.262329 683.448540 L549.600455 660.128608 L532.640504 656.246335 L535.552209 643.526372 L552.512160 647.408645 L557.850286 624.088714 L574.197382 650.141493 L576.138519 641.661518 L594.669393 658.174326 L595.882604 652.874341 Z" fill="#888" fill-opacity="0.18" stroke="#000" stroke-width="1"/>
  <path d="M1044.057445 742.075890 L1034.897584 768.823707 L1030.826955 765.219308 L1025.364739 789.431502 L1018.851733 783.664462 L1020.716649 814.364576 L1002.805883 798.505217 L991.271804 811.531229 L981.502295 802.880669 L993.036374 789.854657 L975.125608 773.995299 L1005.825722 772.130383 L999.312716 766.363343 L1022.685698 758.010508 L1018.615069 754.406109 Z" fill="#888" fill-opacity="0.18" stroke="#000" stroke-width="1"/>
  <path d="M182.181898 506.085626 L194.572467 480.672586 L198.167195 484.751758 L206.575481 461.398667 L212.327046 467.925342 L214.264822 437.229741 L230.081626 455.178098 L243.134976 443.674968 L251.762324 453.464981 L238.708973 464.968111 L254.525778 482.916468 L223.830177 480.978692 L229.581742 487.505368 L205.356652 492.910102 L208.951380 496.989274 Z" fill="#888" fill-opacity="0.18" stroke="#000" stroke-width="1"/>
  <path d="M815.312154 846.326514 L788.240279 838.174067 L791.689817 833.971401 L767.290168 829.419118 L772.809428 822.694851 L742.200612 825.707368 L757.378576 807.215635 L743.930043 796.177115 L752.208933 786.090715 L765.657466 797.129235 L780.835431 778.637502 L783.847947 809.246318 L789.367207 802.522051 L798.588892 825.566067 L802.038429 821.363401 Z" fill="#888" fill-opacity="0.18" stroke="#000" stroke-width="1"/>
  <path d="M553.442118 201.134830 L579.818682 190.955162 L579.674795 196.390327 L601.732005 185.008516 L601.501785 193.704779 L623.817993 172.539672 L623.184887 196.454395 L640.577413 196.914836 L640.232082 209.959230 L622.839557 209.498790 L622.206451 233.413513 L601.041344 211.097305 L600.811124 219.793568 L579.387019 207.260656 L579.243132 212.695820 Z" fill="#888" fill-opacity="0.18" stroke="#000" stroke-width="1"/>
  <path d="M687.307227 996.945476 L661.987986 984.364348 L666.094047 980.800365 L642.804780 972.216882 L649.374478 966.514509 L618.694301 964.346196 L636.760971 948.664671 L625.356225 935.525274 L635.210772 926.971715 L646.615518 940.111111 L664.682188 924.429586 L662.513875 955.109764 L669.083573 949.407391 L674.306170 973.672399 L678.412231 970.108416 Z" fill="#888" fill-opacity="0.18" stroke="#000" stroke-width="1"/>
  <path d="M807.198935 415.600486 L834.598105 422.574314 L831.333581 426.922256 L855.907302 430.414877 L850.684064 437.371585 L881.133927 433.037910 L866.770024 452.168856 L880.683439 462.615331 L872.848583 473.050392 L858.935168 462.603917 L844.571265 481.734863 L840.237589 451.285000 L835.014352 458.241708 L824.804535 435.618141 L821.540011 439.966083 Z" fill="#888" fill-opacity="0.18" stroke="#000" stroke-width="1"/>
  <path d="M480.438737 486.733504 L482.827371 514.905178 L477.649808 513.245492 L482.401704 537.607053 L474.117603 534.951556 L488.189112 562.300550 L465.407835 554.997933 L460.096841 571.566135 L447.670690 567.582889 L452.981684 551.014687 L430.200407 543.712070 L457.549402 529.640561 L449.265301 526.985064 L467.294682 509.926121 L462.117119 508.266435 Z" fill="#888" fill-opacity="0.18" stroke="#000" stroke-width="1"/>
  <path d="M583.230427 736.058522 L557.263129 747.241018 L557.198728 741.804331 L535.593660 754.022644 L535.490620 745.323944 L514.001472 767.328294 L513.718111 743.406870 L496.320712 743.612951 L496.166151 730.564902 L513.563550 730.358821 L513.280189 706.437398 L535.284539 727.926545 L535.181498 719.227846 L557.069928 730.930956 L557.005528 725.494269 Z" fill="#888" fill-opacity="0.18" stroke="#000" stroke-width="1"/>
  <path d="M569.544814 461.668238 L566.646277 489.792023 L561.868278 487.197328 L562.001097 512.017652 L554.356298 507.866141 L563.089516 537.356916 L542.066320 525.940259 L533.763297 541.229856 L522.296099 535.002588 L530.599122 519.712991 L509.575927 508.296335 L539.066702 499.563118 L531.421903 495.411606 L552.312280 482.007939 L547.534281 479.413244 Z" fill="#888" fill-opacity="0.18" stroke="#000" stroke-width="1"/>
  <path d="M427.449486 798.274198 L432.636338 826.067099 L427.319044 824.932154 L434.477310 848.698209 L425.969640 846.882297 L442.699035 872.691253 L419.302942 867.697495 L415.671118 884.712835 L402.909612 881.988967 L406.541437 864.973627 L383.145343 859.979868 L408.954299 843.250473 L400.446629 841.434561 L416.684456 822.662264 L411.367162 821.527319 Z" fill="#888" fill-opacity="0.18" stroke="#000" stroke-width="1"/>
  <path d="M1051.437037 352.774972 L1028.307664 336.515177 L1032.904771 333.612019 L1011.178504 321.610542 L1018.533874 316.965489 L988.532815 310.189696 L1008.760084 297.415800 L999.469977 282.705059 L1010.503033 275.737479 L1019.793139 290.448220 L1040.020407 277.674324 L1033.244615 307.675382 L1040.599985 303.030329 L1042.098984 327.805703 L1046.696090 324.902545 Z" fill="#888" fill-opacity="0.18" stroke="#000" stroke-width="1"/>
  <path d="M476.399376 261.346485 L500.030340 276.868287 L495.527138 279.915070 L517.621315 291.224953 L510.416193 296.099807 L540.616133 301.925480 L520.802046 315.331327 L530.551753 329.741573 L519.744069 337.053853 L509.994362 322.643607 L490.180274 336.049455 L496.005947 305.849514 L488.800824 310.724367 L486.520735 286.008637 L482.017533 289.055420 Z" fill="#888" fill-opacity="0.18" stroke="#000" stroke-width="1"/>
  <path d="M258.044030 838.529412 L262.419910 810.597343 L267.054605 813.440108 L268.229335 788.647243 L275.644848 793.195667 L268.477125 763.285825 L288.869785 775.793991 L297.966633 760.962965 L309.089902 767.785601 L299.993055 782.616627 L320.385715 795.124792 L290.475873 802.292515 L297.891386 806.840939 L276.323997 819.125638 L280.958692 821.968403 Z" fill="#888" fill-opacity="0.18" stroke="#000" stroke-width="1"/>
  <path d="M241.329301 942.649834 L213.086465 941.349445 L215.406271 936.432107 L190.633345 937.971030 L194.345033 930.103289 L165.396458 940.493421 L175.603601 918.857132 L159.868118 911.433754 L165.435651 899.632142 L181.171134 907.055519 L191.378278 885.419230 L201.768410 914.367805 L205.480099 906.500064 L220.045881 926.597430 L222.365687 921.680091 Z" fill="#888" fill-opacity="0.18" stroke="#000" stroke-width="1"/>
  <path d="M1035.140545 601.064897 L1043.651957 628.026066 L1038.236409 627.542798 L1048.217545 650.268182 L1039.552667 649.494954 L1059.281791 673.090219 L1035.453377 670.963841 L1033.906920 688.293597 L1020.909603 687.133754 L1022.456060 669.803999 L998.627646 667.677621 L1022.222911 647.948497 L1013.558033 647.175268 L1027.405311 626.576263 L1021.989763 626.092995 Z" fill="#888" fill-opacity="0.18" stroke="#000" stroke-width="1"/>
  <path d="M74.968463 937.706578 L93.182368 916.082462 L95.673786 920.915116 L109.523285 900.317603 L113.509554 908.049851 L122.874499 878.753559 L133.836739 900.017240 L149.301234 892.044701 L155.280638 903.643072 L139.816143 911.615611 L150.778383 932.879291 L121.482092 923.514345 L125.468361 931.246593 L100.656623 930.580425 L103.148041 935.413080 Z" fill="#888" fill-opacity="0.18" stroke="#000" stroke-width="1"/>
  <path d="M493.950166 1055.157630 L471.597628 1037.845414 L476.324096 1035.157998 L455.176198 1022.164440 L462.738548 1017.864573 L433.083006 1009.708366 L453.879468 997.883732 L445.279734 982.759032 L456.623259 976.309232 L465.222993 991.433931 L486.019455 979.609297 L477.863248 1009.264839 L485.425597 1004.964972 L485.777034 1029.783164 L490.503502 1027.095747 Z" fill="#888" fill-opacity="0.18" stroke="#000" stroke-width="1"/>
  <path d="M772.995289 709.904176 L797.624700 723.787292 L793.338540 727.132519 L816.149001 736.917661 L809.291144 742.270024 L839.816694 746.033757 L820.957589 760.752756 L831.662315 774.468469 L821.375531 782.497014 L810.670804 768.781301 L791.811698 783.500301 L795.575431 752.974751 L788.717575 758.327114 L784.766219 733.822973 L780.480059 737.168200 Z" fill="#888" fill-opacity="0.18" stroke="#000" stroke-width="1"/>
  <path d="M645.960847 909.203812 L673.927536 905.054946 L672.595479 910.326316 L696.611483 904.057531 L694.480192 912.491723 L720.893899 896.734472 L715.032848 919.928499 L731.901231 924.191082 L728.704294 936.842369 L711.835911 932.579787 L705.974860 955.773813 L690.217609 929.360106 L688.086318 937.794297 L669.931365 920.869056 L668.599307 926.140425 Z" fill="#888" fill-opacity="0.18" stroke="#000" stroke-width="1"/>
  <path d="M614.349094 718.830756 L639.781371 731.181792 L635.707793 734.782859 L659.073931 743.154820 L652.556208 748.916527 L683.254785 750.806568 L665.331045 766.651263 L676.854460 779.686710 L667.077875 788.329271 L655.554460 775.293824 L637.630721 791.138519 L639.520761 760.439942 L633.003038 766.201649 L627.560639 741.984993 L623.487062 745.586060 Z" fill="#888" fill-opacity="0.18" stroke="#000" stroke-width="1"/>
  <path d="M629.476652 256.339710 L651.666969 238.820046 L653.135673 244.054989 L670.844294 226.663299 L673.194220 235.039207 L688.259175 208.224621 L694.721472 231.258368 L711.473288 226.558516 L714.998178 239.122378 L698.246362 243.822230 L704.708659 266.855978 L677.894073 251.791023 L680.244000 260.166931 L656.073081 254.524874 L657.541784 259.759816 Z" fill="#888" fill-opacity="0.18" stroke="#000" stroke-width="1"/>
  <path d="M208.599870 843.159462 L183.813935 856.761160 L183.232711 851.355247 L162.887751 865.573150 L161.957794 856.923689 L142.659036 880.872235 L140.101653 857.086218 L122.802732 858.946133 L121.407795 845.971942 L138.706717 844.112027 L136.149333 820.326010 L160.097879 839.624768 L159.167921 830.975307 L182.070264 840.543422 L181.489041 835.137509 Z" fill="#888" fill-opacity="0.18" stroke="#000" stroke-width="1"/>
  <path d="M794.716322 1052.320147 L786.493798 1025.269475 L791.903867 1025.810644 L782.166393 1002.979794 L790.822504 1003.845665 L771.346906 980.040709 L795.151211 982.421855 L796.882954 965.109634 L809.867120 966.408441 L808.135377 983.720663 L831.939682 986.101809 L808.134726 1005.577408 L816.790837 1006.443279 L802.724006 1026.892984 L808.134075 1027.434153 Z" fill="#888" fill-opacity="0.18" stroke="#000" stroke-width="1"/>
  <path d="M742.900182 151.393520 L770.337409 144.570958 L769.519134 149.946099 L792.819903 141.393888 L791.510663 149.994113 L816.284326 131.766649 L812.683917 155.417269 L829.884368 158.035749 L827.920509 170.936087 L810.720057 168.317608 L807.119648 191.968228 L788.892183 167.194565 L787.582943 175.794791 L767.882584 160.696381 L767.064309 166.071522 Z" fill="#888" fill-opacity="0.18" stroke="#000" stroke-width="1"/>
  <path d="M855.925931 803.646212 L847.947702 776.522484 L853.352671 777.112423 L843.821496 754.194682 L852.469446 755.138585 L833.209329 731.158953 L856.991191 733.754686 L858.878996 716.458786 L871.850921 717.874640 L869.963116 735.170540 L893.744978 737.766273 L869.765346 757.026391 L878.413296 757.970293 L864.162608 778.292302 L869.567577 778.882241 Z" fill="#888" fill-opacity="0.18" stroke="#000" stroke-width="1"/>
  <path d="M705.598189 675.686381 L679.623124 664.521938 L683.526211 660.736753 L659.798677 653.451816 L666.043615 647.395519 L635.290526 646.923917 L652.464106 630.269099 L640.351511 617.779223 L649.718918 608.694777 L661.831513 621.184653 L679.005093 604.529835 L678.533491 635.282924 L684.778429 629.226627 L691.332383 653.166381 L695.235469 649.381195 Z" fill="#888" fill-opacity="0.18" stroke="#000" stroke-width="1"/>
  <path d="M492.093728 139.688654 L519.306577 132.019910 L518.655108 137.417808 L541.679932 128.148309 L540.637581 136.784946 L564.835050 117.799231 L561.968585 141.549982 L579.241859 143.634683 L577.678333 156.589638 L560.405060 154.504937 L557.538595 178.255688 L538.552880 154.058220 L537.510529 162.694857 L517.352169 148.213604 L516.700700 153.611502 Z" fill="#888" fill-opacity="0.18" stroke="#000" stroke-width="1"/>
  <path d="M961.036301 1023.402111 L935.116780 1034.694906 L935.029266 1029.258541 L913.476339 1041.568598 L913.336317 1032.870415 L891.940915 1054.965927 L891.555855 1031.045924 L874.159489 1031.325968 L873.949456 1018.278693 L891.345822 1017.998650 L890.960762 994.078647 L913.056273 1015.474049 L912.916251 1006.775866 L934.854239 1018.385813 L934.766725 1012.949449 Z" fill="#888" fill-opacity="0.18" stroke="#000" stroke-width="1"/>
  <path d="M157.348031 312.572302 L129.086281 313.361135 L131.036618 308.285911 L106.444980 311.650059 L109.565518 303.529700 L81.463275 316.029251 L90.044755 293.698264 L73.804037 287.457187 L78.484845 275.276649 L94.725563 281.517726 L103.307043 259.186738 L115.806595 287.288982 L118.927133 279.168623 L134.937291 298.135462 L136.887627 293.060238 Z" fill="#888" fill-opacity="0.18" stroke="#000" stroke-width="1"/>
  <path d="M799.472294 887.346515 L794.667822 915.208062 L790.077345 912.294432 L788.521873 937.066324 L781.177110 932.404516 L787.884496 962.420942 L767.686399 949.600970 L758.362783 964.290494 L747.345639 957.297782 L756.669256 942.608257 L736.471159 929.788285 L766.487586 923.080899 L759.142823 918.419091 L780.896392 906.467172 L776.305916 903.553541 Z" fill="#888" fill-opacity="0.18" stroke="#000" stroke-width="1"/>
  <path d="M553.240257 124.553748 L525.574673 130.381631 L526.586409 125.039524 L502.992163 132.745217 L504.610940 124.197846 L479.195570 141.519332 L483.647206 118.014061 L466.552464 114.776507 L468.980629 101.955451 L486.075372 105.193005 L490.527008 81.687734 L507.848493 107.103104 L509.467270 98.555733 L528.609880 114.355310 L529.621615 109.013203 Z" fill="#888" fill-opacity="0.18" stroke="#000" stroke-width="1"/>
  <path d="M458.423954 637.357344 L480.143526 619.257373 L481.750062 624.451674 L498.992886 606.598071 L501.563343 614.908952 L515.914404 587.705608 L522.983160 610.560531 L539.604922 605.419618 L543.460607 617.885940 L526.838844 623.026853 L533.907600 645.881776 L506.704256 631.530714 L509.274712 639.841595 L484.963132 634.840275 L486.569667 640.034576 Z" fill="#888" fill-opacity="0.18" stroke="#000" stroke-width="1"/>
  <path d="M607.715721 577.172037 L619.199928 551.336756 L622.936649 555.286266 L630.513904 531.650460 L636.492658 537.969676 L637.343815 507.224751 L653.785387 524.602596 L666.423820 512.645089 L675.391950 522.123914 L662.753517 534.081421 L679.195090 551.459266 L648.450165 550.608109 L654.428918 556.927325 L630.410091 563.185287 L634.146812 567.134797 Z" fill="#888" fill-opacity="0.18" stroke="#000" stroke-width="1"/>
  <path d="M532.703790 587.957275 L560.954671 589.069249 L558.667717 594.001952 L583.429827 592.297821 L579.770700 600.190146 L608.649327 589.607150 L598.586730 611.311043 L614.371379 618.629295 L608.882689 630.467782 L593.098040 623.149529 L583.035443 644.853422 L572.452448 615.974795 L568.793321 623.867119 L554.093809 603.867357 L551.806855 608.800060 Z" fill="#888" fill-opacity="0.18" stroke="#000" stroke-width="1"/>
  <path d="M76.527961 925.936973 L69.231089 898.622061 L74.619600 899.347092 L65.665000 876.197982 L74.286617 877.358031 L55.632699 852.903866 L79.342145 856.094002 L81.662244 838.850768 L94.594669 840.590843 L92.274570 857.834076 L115.984016 861.024212 L91.529851 879.678130 L100.151467 880.838180 L85.396620 900.797154 L90.785131 901.522185 Z" fill="#888" fill-opacity="0.18" stroke="#000" stroke-width="1"/>
  <path d="M950.493711 331.373331 L923.259108 323.782207 L926.621038 319.509136 L902.132506 315.462170 L907.511595 308.625256 L876.971588 312.269819 L891.764082 293.468306 L878.090254 282.710128 L886.158887 272.454757 L899.832716 283.212935 L914.625210 264.411421 L918.269773 294.951428 L923.648862 288.114514 L933.344900 310.962993 L936.706830 306.689922 Z" fill="#888" fill-opacity="0.18" stroke="#000" stroke-width="1"/>
  <path d="M856.984051 682.842523 L859.328633 654.667149 L864.156763 657.167324 L863.535580 632.354419 L871.260587 636.354700 L861.948770 607.041479 L883.192541 618.042251 L891.193103 602.592235 L902.780615 608.592657 L894.780053 624.042672 L916.023824 635.043444 L886.710603 644.355261 L894.435610 648.355542 L873.813023 662.167675 L878.641153 664.667851 Z" fill="#888" fill-opacity="0.18" stroke="#000" stroke-width="1"/>
  <path d="M184.846058 446.187925 L158.429021 456.262095 L158.594630 450.827549 L136.492107 462.121115 L136.757081 453.425841 L114.356462 474.501590 L115.085141 450.589588 L97.694594 450.059640 L98.092055 437.016730 L115.482602 437.546678 L116.211280 413.634676 L137.287029 436.035294 L137.552003 427.340021 L158.925847 439.958457 L159.091456 434.523911 Z" fill="#888" fill-opacity="0.18" stroke="#000" stroke-width="1"/>
  <path d="M825.840885 958.486920 L854.034788 956.376798 L852.324018 961.537707 L876.731348 957.026788 L873.994116 965.284242 L901.480831 951.483687 L893.953443 974.191686 L910.468352 979.666150 L906.362503 992.052331 L889.847595 986.577867 L882.320207 1009.285866 L868.519651 981.799151 L865.782419 990.056605 L848.902478 971.859525 L847.191708 977.020434 Z" fill="#888" fill-opacity="0.18" stroke="#000" stroke-width="1"/>
  <path d="M342.567796 375.911850 L336.684984 403.565806 L332.211117 400.476109 L329.694835 425.168911 L322.536648 420.225395 L328.073327 450.479652 L308.388312 436.884984 L298.501281 451.201359 L287.764001 443.786085 L297.651032 429.469711 L277.966017 415.875043 L308.220274 410.338364 L301.062086 405.394848 L323.263383 394.296714 L318.789516 391.207017 Z" fill="#888" fill-opacity="0.18" stroke="#000" stroke-width="1"/>
  <path d="M682.209476 426.820248 L685.813478 398.778138 L690.524799 401.492023 L691.015430 376.676192 L698.553544 381.018407 L690.563796 351.317586 L711.293610 363.258676 L719.978039 348.182449 L731.285210 354.695771 L722.600780 369.771999 L743.330593 381.713090 L713.629772 389.702837 L721.167886 394.045052 L699.947442 406.919791 L704.658763 409.633675 Z" fill="#888" fill-opacity="0.18" stroke="#000" stroke-width="1"/>
  <path d="M351.753177 602.195140 L324.514037 609.769971 L325.184122 604.374352 L302.127461 613.564375 L303.199596 604.931385 L278.936783 623.833521 L281.885155 600.092799 L264.619175 597.948528 L266.227378 584.999043 L283.493358 587.143314 L286.441731 563.402591 L305.343867 587.665405 L306.416003 579.032415 L326.524291 593.583115 L327.194376 588.187496 Z" fill="#888" fill-opacity="0.18" stroke="#000" stroke-width="1"/>
  <path d="M773.067808 900.273537 L744.795064 900.299771 L746.881586 895.279001 L722.208154 897.978607 L725.546589 889.945374 L697.117417 901.682368 L706.298115 879.590976 L690.231648 872.914105 L695.239302 860.864255 L711.305769 867.541126 L720.486467 845.449735 L732.223461 873.878907 L735.561897 865.845674 L751.054631 885.237459 L753.141153 880.216688 Z" fill="#888" fill-opacity="0.18" stroke="#000" stroke-width="1"/>
  <path d="M223.924168 609.115001 L215.954890 636.241361 L211.729004 632.820309 L207.341745 657.250170 L200.580326 651.776486 L203.799663 682.364241 L185.205763 667.311611 L174.258396 680.834448 L164.116268 672.623922 L175.063635 659.101086 L156.469735 644.048456 L187.057490 640.829119 L180.296071 635.355435 L203.277231 625.978204 L199.051344 622.557152 Z" fill="#888" fill-opacity="0.18" stroke="#000" stroke-width="1"/>
  <path d="M665.541825 110.574508 L684.855131 131.222632 L679.761284 133.123801 L698.572424 149.316614 L690.422270 152.358485 L718.402332 165.129193 L695.989408 173.494338 L702.073150 189.794646 L689.847919 194.357452 L683.764177 178.057144 L661.351253 186.422289 L674.121961 158.442227 L665.971807 161.484097 L669.573592 136.926140 L664.479746 138.827309 Z" fill="#888" fill-opacity="0.18" stroke="#000" stroke-width="1"/>
  <path d="M460.943995 49.508076 L441.819875 70.331543 L439.537907 65.396532 L424.818189 85.381427 L421.167041 77.485409 L410.554865 106.353325 L400.514208 84.639275 L384.722171 91.941571 L379.245449 80.097543 L395.037486 72.795247 L384.996829 51.081196 L413.864745 61.693372 L410.213597 53.797353 L434.973972 55.526509 L432.692004 50.591497 Z" fill="#888" fill-opacity="0.18" stroke="#000" stroke-width="1"/>
  <path d="M174.030738 973.097326 L201.050789 964.774729 L200.529649 970.186764 L223.324300 960.364848 L222.490475 969.024105 L246.223179 949.460524 L243.930161 973.273480 L261.248674 974.941130 L259.997937 987.930015 L242.679424 986.262366 L240.386406 1010.075322 L220.822826 986.342618 L219.989001 995.001875 L199.487368 981.010835 L198.966228 986.422871 Z" fill="#888" fill-opacity="0.18" stroke="#000" stroke-width="1"/>
  <path d="M179.883839 564.347651 L177.219548 592.494593 L172.420112 589.939767 L172.759569 614.758126 L165.080472 610.670405 L174.058912 640.087449 L152.941396 628.846217 L144.765954 644.204411 L133.247309 638.072830 L141.422750 622.714636 L120.305234 611.473404 L149.722278 602.494963 L142.043181 598.407242 L162.821241 584.830116 L158.021806 582.275291 Z" fill="#888" fill-opacity="0.18" stroke="#000" stroke-width="1"/>
  <path d="M313.283839 338.982706 L337.774276 324.855879 L338.470574 330.248177 L358.507913 315.599929 L359.621990 324.227607 L378.405993 299.873221 L381.469704 323.599335 L398.725059 321.371182 L400.396174 334.312698 L383.140818 336.540851 L386.204529 360.266965 L361.850143 341.482962 L362.964220 350.110640 L339.863170 341.032775 L340.559468 346.425073 Z" fill="#888" fill-opacity="0.18" stroke="#000" stroke-width="1"/>
  <path d="M97.261316 750.997087 L119.463097 733.491953 L120.928374 738.727856 L138.648377 721.347763 L140.992819 729.725207 L156.075324 702.920489 L162.522542 725.958462 L179.277431 721.269576 L182.794095 733.835743 L166.039206 738.524629 L172.486423 761.562601 L145.681705 746.480097 L148.026147 754.857541 L123.858927 749.199662 L125.324204 754.435564 Z" fill="#888" fill-opacity="0.18" stroke="#000" stroke-width="1"/>
  <path d="M197.350223 247.902913 L199.163797 219.688382 L204.038154 222.097192 L202.949809 197.300385 L210.748779 201.154481 L200.886593 172.021816 L222.333761 182.620579 L230.041952 167.022639 L241.740408 172.803782 L234.032216 188.401723 L255.479384 199.000486 L226.346719 208.862672 L234.145690 212.716768 L213.786866 226.914812 L218.661223 229.323622 Z" fill="#888" fill-opacity="0.18" stroke="#000" stroke-width="1"/>
  <path d="M592.157597 1043.002535 L577.978027 1018.542597 L583.368813 1017.834680 L568.677418 997.828954 L577.302675 996.696288 L552.907867 977.964811 L576.627324 974.849979 L574.361991 957.599465 L587.299876 955.900465 L589.565209 973.150979 L613.284666 970.036147 L594.553189 994.430955 L603.178446 993.298289 L594.150384 1016.418847 L599.541169 1015.710931 Z" fill="#888" fill-opacity="0.18" stroke="#000" stroke-width="1"/>
  <path d="M235.694952 817.986790 L240.017201 845.927207 L234.737670 844.627871 L241.155294 868.604532 L232.708046 866.525595 L248.628824 892.841059 L225.398890 887.123982 L221.241016 904.018479 L208.570143 900.900074 L212.728017 884.005576 L189.498083 878.288499 L215.813548 862.367720 L207.366299 860.288783 L224.178609 842.029200 L218.899079 840.729864 Z" fill="#888" fill-opacity="0.18" stroke="#000" stroke-width="1"/>
  <path d="M803.647733 713.396477 L775.459770 711.208438 L777.933088 706.366495 L753.124016 707.125499 L757.081325 699.378390 L727.820281 708.852892 L738.702879 687.548342 L723.208660 679.633725 L729.144623 668.013061 L744.638841 675.927678 L755.521439 654.623128 L764.995941 683.884172 L768.953250 676.137062 L782.879724 696.682609 L785.353041 691.840665 Z" fill="#888" fill-opacity="0.18" stroke="#000" stroke-width="1"/>
  <path d="M611.968808 454.497675 L640.100844 451.680346 L638.520190 456.882581 L662.806568 451.760282 L660.277521 460.083858 L687.409078 445.597536 L680.454199 468.487369 L697.101350 473.545463 L693.307780 486.030826 L676.660628 480.972732 L669.705749 503.862566 L655.219427 476.731009 L652.690380 485.054585 L635.358881 467.287051 L633.778226 472.489286 Z" fill="#888" fill-opacity="0.18" stroke="#000" stroke-width="1"/>
  <path d="M812.078803 622.606350 L825.865014 597.922567 L829.227061 602.195547 L838.922478 579.346805 L844.301753 586.183573 L847.945487 555.643467 L862.738492 574.444579 L876.412028 563.686030 L884.480939 573.941182 L870.807403 584.699731 L885.600408 603.500843 L855.060302 599.857109 L860.439576 606.693877 L835.951154 610.741507 L839.313200 615.014487 Z" fill="#888" fill-opacity="0.18" stroke="#000" stroke-width="1"/>
  <path d="M934.822502 920.319338 L910.068244 933.978600 L909.474459 928.574053 L889.162595 942.839197 L888.212539 934.191921 L868.969489 958.185251 L866.356835 934.405242 L849.062283 936.305354 L847.637199 923.334440 L864.931751 921.434328 L862.319097 897.654319 L886.312428 916.897369 L885.362372 908.250093 L908.286889 917.764958 L907.693104 912.360410 Z" fill="#888" fill-opacity="0.18" stroke="#000" stroke-width="1"/>
  <path d="M376.817945 113.218373 L358.348408 134.624563 L355.914583 129.762648 L341.821342 150.194161 L337.927222 142.415098 L328.214866 171.598056 L317.506035 150.205634 L301.947910 157.993875 L296.106729 146.325281 L311.664854 138.537040 L300.956022 117.144618 L330.138980 126.856973 L326.244860 119.077910 L351.046932 120.038820 L348.613107 115.176906 Z" fill="#888" fill-opacity="0.18" stroke="#000" stroke-width="1"/>
  <path d="M723.899431 153.828295 L737.507139 178.610932 L732.101367 179.193466 L746.324201 199.534978 L737.674967 200.467033 L761.628190 219.759984 L737.842794 222.323134 L739.706903 239.621604 L726.733051 241.019685 L724.868942 223.721216 L701.083546 226.284366 L720.376497 202.331142 L711.727262 203.263197 L721.289823 180.358534 L715.884051 180.941068 Z" fill="#888" fill-opacity="0.18" stroke="#000" stroke-width="1"/>
  <path d="M419.425823 708.252346 L391.334032 711.446100 L392.844889 706.223167 L368.629273 711.670193 L371.046643 703.313500 L344.111486 718.161805 L350.759255 695.180901 L334.045870 690.346160 L337.671925 677.811121 L354.385310 682.645862 L361.033079 659.664958 L375.881384 686.600115 L378.298755 678.243423 L395.866602 695.777301 L397.377458 690.554368 Z" fill="#888" fill-opacity="0.18" stroke="#000" stroke-width="1"/>
  <path d="M916.860043 460.984334 L904.206791 486.267609 L900.654527 482.151405 L892.004692 505.416109 L886.321069 498.830183 L884.065309 529.504055 L868.435348 511.392757 L855.263495 522.760002 L846.738061 512.881112 L859.909914 501.513867 L844.279953 483.402569 L874.953825 485.658330 L869.270203 479.072403 L893.550000 473.918997 L889.997736 469.802793 Z" fill="#888" fill-opacity="0.18" stroke="#000" stroke-width="1"/>
  <path d="M188.410153 445.348518 L162.778550 433.416639 L166.792464 429.749186 L143.292041 421.761928 L149.714303 415.894003 L118.988836 414.508162 L136.650056 398.371368 L124.914206 385.526844 L134.547598 376.724956 L146.283448 389.569480 L163.944668 373.432686 L162.558827 404.158153 L168.981088 398.290228 L174.820291 422.414279 L178.834205 418.746826 Z" fill="#888" fill-opacity="0.18" stroke="#000" stroke-width="1"/>
  <path d="M659.385465 891.589768 L638.142462 872.932769 L643.025583 870.541777 L622.718750 856.269474 L630.531744 852.443887 L601.435292 842.475369 L622.921025 831.955005 L615.269852 816.329017 L626.989343 810.590637 L634.640516 826.216625 L656.126250 815.696261 L646.157732 844.792714 L653.970726 840.967127 L652.791826 865.759794 L657.674947 863.368802 Z" fill="#888" fill-opacity="0.18" stroke="#000" stroke-width="1"/>
  <path d="M478.045673 462.166653 L465.397036 436.881069 L470.821152 436.505984 L457.387760 415.634709 L466.066344 415.034574 L442.869545 394.838451 L466.735652 393.188079 L465.535381 375.830910 L478.553258 374.930707 L479.753529 392.287876 L503.619636 390.637504 L483.423513 413.834303 L492.102097 413.234168 L481.669382 435.755815 L487.093497 435.380731 Z" fill="#888" fill-opacity="0.18" stroke="#000" stroke-width="1"/>
  <path d="M573.059896 129.384996 L557.321148 105.897966 L562.654552 104.841311 L546.694447 85.832335 L555.227893 84.141688 L529.667661 67.034689 L553.134639 62.385411 L549.753345 45.318519 L562.553515 42.782549 L565.934808 59.849441 L589.401785 55.200163 L572.294786 80.760395 L580.828232 79.069749 L573.321360 102.728003 L578.654764 101.671349 Z" fill="#888" fill-opacity="0.18" stroke="#000" stroke-width="1"/>
  <path d="M589.173681 286.708086 L592.755676 314.753016 L587.512346 313.314544 L593.293785 337.452504 L584.904456 335.150949 L600.123889 361.878158 L577.053236 355.548881 L572.450125 372.327539 L559.866132 368.875206 L564.469243 352.096549 L541.398589 345.767272 L568.125799 330.547838 L559.736470 328.246283 L577.025685 310.437600 L571.782355 308.999128 Z" fill="#888" fill-opacity="0.18" stroke="#000" stroke-width="1"/>
  <path d="M570.837749 823.429440 L543.633755 815.729347 L547.012765 811.469769 L522.540630 807.324799 L527.947047 800.509474 L497.392694 804.031745 L512.260339 785.289602 L498.629690 774.476769 L506.739314 764.253782 L520.369964 775.066615 L535.237609 756.324472 L538.759880 786.878825 L544.166296 780.063500 L553.770785 802.950613 L557.149796 798.691035 Z" fill="#888" fill-opacity="0.18" stroke="#000" stroke-width="1"/>
  <path d="M1038.284460 578.213320 L1010.805481 571.560913 L1014.018851 567.175030 L989.405905 563.970496 L994.547296 556.953083 L964.150285 561.643138 L978.289111 542.345252 L964.254284 532.062470 L971.966371 521.536350 L986.001197 531.819132 L1000.140022 512.521245 L1004.830078 542.918256 L1009.971469 535.900843 L1020.445590 558.403264 L1023.658959 554.017380 Z" fill="#888" fill-opacity="0.18" stroke="#000" stroke-width="1"/>
  <path d="M472.357039 717.822326 L482.251735 744.307110 L476.818438 744.104631 L487.961777 766.283273 L479.268501 765.959307 L500.191775 788.502410 L476.285268 787.611503 L475.637336 804.998054 L462.597423 804.512105 L463.245355 787.125555 L439.338847 786.234648 L461.881951 765.311375 L453.188675 764.987409 L465.951844 743.699673 L460.518547 743.497195 Z" fill="#888" fill-opacity="0.18" stroke="#000" stroke-width="1"/>
  <path d="M760.336980 570.301064 L742.952590 592.597515 L740.280467 587.862383 L727.218607 608.968163 L722.943212 601.391951 L714.691171 631.020969 L702.933834 610.186387 L687.781410 618.737178 L681.368317 607.372861 L696.520740 598.822069 L684.763402 577.987487 L714.392420 586.239528 L710.117025 578.663316 L734.936223 578.392118 L732.264101 573.656986 Z" fill="#888" fill-opacity="0.18" stroke="#000" stroke-width="1"/>
  <path d="M627.006762 319.351619 L651.463923 305.167259 L652.172895 310.557906 L672.175744 295.862595 L673.310099 304.487630 L692.036798 280.089154 L695.156275 303.808000 L712.406345 301.539289 L714.107878 314.476842 L696.857808 316.745552 L699.977286 340.464399 L675.578810 321.737700 L676.713165 330.362735 L653.590839 321.339200 L654.299811 326.729847 Z" fill="#888" fill-opacity="0.18" stroke="#000" stroke-width="1"/>
  <path d="M716.971364 944.438509 L737.740248 963.621893 L732.798754 965.889788 L752.741621 980.666397 L744.835230 984.295029 L773.672788 994.989427 L751.930212 1004.968165 L759.187476 1020.780947 L747.327889 1026.223895 L740.070625 1010.411112 L718.328050 1020.389850 L729.022448 991.552292 L721.116057 995.180924 L722.915765 970.425578 L717.974270 972.693472 Z" fill="#888" fill-opacity="0.18" stroke="#000" stroke-width="1"/>
  <path d="M1045.390521 838.548182 L1019.234880 849.282762 L1019.263922 843.845771 L997.452065 855.690982 L997.498533 846.991797 L975.634400 868.623592 L975.762185 844.700831 L958.363814 844.607896 L958.433515 831.559118 L975.831887 831.652053 L975.959672 807.729292 L997.591468 829.593425 L997.637935 820.894240 L1019.322007 832.971789 L1019.351049 827.534798 Z" fill="#888" fill-opacity="0.18" stroke="#000" stroke-width="1"/>
  <path d="M800.302619 421.552268 L811.391946 447.559490 L805.955063 447.604399 L818.095840 469.253133 L809.396827 469.324986 L831.323993 490.892885 L807.401707 491.090482 L807.545414 508.488508 L794.496895 508.596288 L794.353188 491.198262 L770.430902 491.395859 L791.998801 469.468693 L783.299788 469.540547 L795.081297 447.694216 L789.644414 447.739124 Z" fill="#888" fill-opacity="0.18" stroke="#000" stroke-width="1"/>
  <path d="M975.526128 859.383758 L972.693407 887.514248 L967.909349 884.930741 L968.100245 909.750686 L960.445754 905.617074 L969.247953 935.087333 L948.198101 923.719900 L939.930877 939.028883 L928.449139 932.828465 L936.716363 917.519482 L915.666511 906.152049 L945.136770 897.349850 L937.482279 893.216238 L958.341235 879.763726 L953.557178 877.180218 Z" fill="#888" fill-opacity="0.18" stroke="#000" stroke-width="1"/>
  <path d="M1028.665827 182.197146 L1039.021400 208.505147 L1033.585396 208.397556 L1045.114242 230.378271 L1036.416636 230.206126 L1057.730289 252.380505 L1033.811872 251.907106 L1033.467582 269.302319 L1020.421172 269.044101 L1020.765462 251.648889 L996.847045 251.175490 L1019.021423 229.861836 L1010.323817 229.689691 L1022.713388 208.182375 L1017.277384 208.074784 Z" fill="#888" fill-opacity="0.18" stroke="#000" stroke-width="1"/>
  <path d="M125.318895 252.910713 L135.925620 226.702963 L139.793362 230.524257 L146.569504 206.646442 L152.757892 212.760512 L152.572097 182.004368 L169.590163 198.818060 L181.818303 186.441285 L191.100884 195.612390 L178.872744 207.989165 L195.890810 224.802857 L165.134667 224.988651 L171.323054 231.102721 L147.528847 238.166844 L151.396589 241.988138 Z" fill="#888" fill-opacity="0.18" stroke="#000" stroke-width="1"/>
  <path d="M937.830576 182.731598 L952.448212 206.932290 L947.071045 207.737145 L962.120230 227.475132 L953.516763 228.762900 L978.244849 247.052149 L954.585314 250.593509 L957.160849 267.800443 L944.255648 269.732094 L941.680114 252.525160 L918.020579 256.066520 L936.309829 231.338434 L927.706362 232.626201 L936.316711 209.346854 L930.939544 210.151708 Z" fill="#888" fill-opacity="0.18" stroke="#000" stroke-width="1"/>
  <path d="M1002.094500 1018.047872 L980.142507 1000.230499 L984.929023 997.651549 L964.082887 984.179178 L971.741312 980.052857 L942.279448 971.222598 L963.340116 959.875216 L955.087474 944.558367 L966.575111 938.368885 L974.827753 953.685735 L995.888420 942.338353 L987.058161 971.800216 L994.716585 967.673895 L994.502054 992.493648 L999.288569 989.914697 Z" fill="#888" fill-opacity="0.18" stroke="#000" stroke-width="1"/>
  <path d="M977.282399 702.864993 L952.425167 716.335954 L951.872425 710.927054 L931.452861 725.037601 L930.568473 716.383363 L911.143845 740.229928 L908.711780 716.430772 L891.403302 718.199547 L890.076721 705.218188 L907.385198 703.449413 L904.953133 679.650257 L928.799698 699.074885 L927.915311 690.420646 L950.766941 700.109256 L950.214199 694.700357 Z" fill="#888" fill-opacity="0.18" stroke="#000" stroke-width="1"/>
  <path d="M885.469967 816.951951 L858.558913 825.620513 L859.010577 820.202237 L836.343812 830.315786 L837.066475 821.646545 L813.586713 841.512990 L815.574037 817.672576 L798.235554 816.227250 L799.319549 803.223387 L816.658032 804.668714 L818.645356 780.828300 L838.511802 804.308062 L839.234465 795.638820 L859.913907 809.365685 L860.365571 803.947410 Z" fill="#888" fill-opacity="0.18" stroke="#000" stroke-width="1"/>
  <path d="M831.342508 504.757961 L831.565790 533.029836 L826.530599 530.978357 L829.402103 555.632375 L821.345797 552.350009 L833.280645 580.696689 L811.125805 571.670181 L804.561071 587.782792 L792.476613 582.859243 L799.041346 566.746631 L776.886506 557.720123 L805.233186 545.785276 L797.176880 542.502909 L816.460217 526.875399 L811.425026 524.823920 Z" fill="#888" fill-opacity="0.18" stroke="#000" stroke-width="1"/>
  <path d="M767.527546 62.689621 L794.672957 54.785483 L794.068262 60.188821 L817.011943 50.720259 L816.044430 59.365599 L840.076562 40.171030 L837.415903 63.945716 L854.706584 65.880741 L853.255315 78.848751 L835.964634 76.913726 L833.303975 100.688412 L814.109405 76.656280 L813.141892 85.301620 L792.858871 70.995496 L792.254176 76.398834 Z" fill="#888" fill-opacity="0.18" stroke="#000" stroke-width="1"/>
  <path d="M153.846267 661.369107 L125.582220 662.070827 L127.548190 657.001638 L102.946300 660.289971 L106.091853 652.179269 L77.951216 664.592143 L86.601485 642.287712 L70.380081 635.996607 L75.098410 623.830554 L91.319815 630.121659 L99.970084 607.817228 L112.382958 635.957865 L115.528511 627.847163 L131.480131 646.863260 L133.446101 641.794071 Z" fill="#888" fill-opacity="0.18" stroke="#000" stroke-width="1"/>
  <path d="M888.241859 444.125607 L915.895245 438.240115 L914.894638 443.584317 L938.472784 435.829499 L936.871813 444.380223 L962.251050 427.005841 L957.848380 450.520332 L974.949828 453.722274 L972.548372 466.548360 L955.446924 463.346418 L951.044253 486.860909 L933.669871 461.481672 L932.068900 470.032396 L912.893424 454.272722 L911.892818 459.616925 Z" fill="#888" fill-opacity="0.18" stroke="#000" stroke-width="1"/>
  <path d="M813.384055 249.105978 L801.465431 274.743746 L797.795903 270.731730 L789.820798 294.236279 L783.949553 287.817052 L782.579599 318.543232 L766.433675 300.890358 L753.595221 312.632849 L744.788354 303.004009 L757.626807 291.261518 L741.480883 273.608645 L772.207063 274.978599 L766.335817 268.559372 L790.456846 262.707696 L786.787318 258.695680 Z" fill="#888" fill-opacity="0.18" stroke="#000" stroke-width="1"/>
  <path d="M382.336182 970.765919 L400.947504 992.048952 L395.792874 993.778548 L414.051446 1010.591957 L405.804037 1013.359311 L433.340943 1027.059446 L410.660570 1034.669670 L416.195278 1051.164486 L403.824166 1055.315517 L398.289458 1038.820701 L375.609085 1046.430924 L389.309221 1018.894019 L381.061813 1021.661373 L385.483614 997.237740 L380.328984 998.967337 Z" fill="#888" fill-opacity="0.18" stroke="#000" stroke-width="1"/>
  <path d="M173.671681 105.493277 L190.923826 127.892211 L185.671637 129.297996 L202.849592 147.214023 L194.446090 149.463279 L221.077984 164.848893 L197.968355 171.034347 L202.466867 187.841350 L189.861614 191.215234 L185.363102 174.408231 L162.253473 180.593685 L177.639087 153.961791 L169.235586 156.211047 L175.167260 132.109566 L169.915072 133.515351 Z" fill="#888" fill-opacity="0.18" stroke="#000" stroke-width="1"/>
  <path d="M873.999822 340.334661 L858.602649 364.047018 L855.532199 359.559919 L844.338795 381.713336 L839.426075 374.533978 L833.759481 404.764172 L820.249502 385.020939 L805.890787 394.846378 L798.521707 384.077342 L812.880422 374.251902 L799.370442 354.508669 L829.600635 360.175263 L824.687916 352.995906 L849.391299 350.585723 L846.320849 346.098624 Z" fill="#888" fill-opacity="0.18" stroke="#000" stroke-width="1"/>
  <path d="M876.364907 80.824524 L874.091710 109.005747 L869.257262 106.517811 L869.941303 131.329063 L862.206186 127.348365 L871.592234 156.637902 L850.320662 145.690983 L842.359267 161.161217 L830.756591 155.190170 L838.717987 139.719936 L817.446415 128.773017 L846.735952 119.386969 L839.000835 115.406271 L859.588366 101.541938 L854.753918 99.054002 Z" fill="#888" fill-opacity="0.18" stroke="#000" stroke-width="1"/>
  <path d="M550.598307 182.390399 L522.971532 188.399565 L523.948216 183.050939 L500.405006 190.911179 L501.967701 182.353377 L476.666458 199.841143 L480.963870 176.307188 L463.848266 173.181798 L466.192309 160.345095 L483.307913 163.470485 L487.605325 139.936530 L505.093091 165.237773 L506.655787 156.679971 L525.901586 172.353687 L526.878270 167.005061 Z" fill="#888" fill-opacity="0.18" stroke="#000" stroke-width="1"/>
  <path d="M285.697728 752.145933 L265.135281 732.741434 L270.100758 730.526539 L250.317132 715.537401 L258.261894 711.993570 L229.540410 700.991241 L251.388507 691.245706 L244.300845 675.356180 L256.217989 670.040434 L263.305651 685.929959 L285.153748 676.184424 L274.151419 704.905908 L282.096182 701.362077 L280.031711 726.096751 L284.997188 723.881856 Z" fill="#888" fill-opacity="0.18" stroke="#000" stroke-width="1"/>
  <path d="M114.963550 57.591501 L135.002328 77.536329 L129.979668 79.618299 L149.357402 95.128604 L141.321145 98.459757 L169.739667 110.222516 L147.639963 119.383186 L154.302268 135.455698 L142.247884 140.452427 L135.585579 124.379915 L113.485874 133.540584 L125.248633 105.122062 L117.212377 108.453215 L119.934348 83.782240 L114.911688 85.864210 Z" fill="#888" fill-opacity="0.18" stroke="#000" stroke-width="1"/>
  <path d="M700.275783 674.452073 L707.775167 701.712080 L702.381424 701.027059 L711.507574 724.109077 L702.877585 723.013043 L721.712472 747.328099 L697.980004 744.314006 L695.787936 761.573983 L682.842954 759.929932 L685.035021 742.669955 L661.302553 739.655862 L685.617608 720.820975 L676.987620 719.724942 L691.593939 699.657017 L686.200196 698.971996 Z" fill="#888" fill-opacity="0.18" stroke="#000" stroke-width="1"/>
  <path d="M911.691914 816.022375 L924.273490 841.341394 L918.848399 841.702102 L932.226428 862.608907 L923.546283 863.186039 L946.689474 883.443570 L922.819076 885.030683 L923.973340 902.390972 L910.953123 903.256670 L909.798860 885.896381 L885.928462 887.483493 L906.185994 864.340302 L897.505849 864.917434 L907.998219 842.423516 L902.573128 842.784224 Z" fill="#888" fill-opacity="0.18" stroke="#000" stroke-width="1"/>
  <path d="M323.759557 316.086610 L307.599715 292.887293 L312.913192 291.734608 L296.612803 273.016610 L305.114365 271.172314 L279.249718 254.529149 L302.629015 249.457334 L298.940422 232.454209 L311.692765 229.687765 L315.381358 246.690889 L338.760654 241.619074 L322.117489 267.483721 L330.619052 265.639425 L323.540144 289.429238 L328.853621 288.276553 Z" fill="#888" fill-opacity="0.18" stroke="#000" stroke-width="1"/>
  <path d="M642.446805 877.279839 L635.153809 904.595786 L630.844247 901.280761 L627.065183 925.812064 L620.169884 920.508024 L624.148031 951.006372 L605.185959 936.420261 L594.577879 950.210860 L584.234930 942.254799 L594.843010 928.464201 L575.880938 913.878091 L606.379286 909.899944 L599.483987 904.595904 L622.225123 894.650711 L617.915561 891.335686 Z" fill="#888" fill-opacity="0.18" stroke="#000" stroke-width="1"/>
  <path d="M218.991629 289.734251 L247.197214 287.786491 L245.456758 292.937465 L269.889655 288.567145 L267.104926 296.808703 L294.670643 283.166631 L287.012638 305.830915 L303.495754 311.400373 L299.318660 323.762710 L282.835545 318.193252 L275.177540 340.857536 L261.535468 313.291819 L258.750739 321.533376 L241.975847 303.239412 L240.235391 308.390385 Z" fill="#888" fill-opacity="0.18" stroke="#000" stroke-width="1"/>
  <path d="M1008.364420 61.180027 L989.402130 82.150967 L987.082014 77.233775 L972.517501 97.332061 L968.805315 89.464553 L958.417011 118.413785 L948.208501 96.778140 L932.473486 104.202511 L926.905208 92.401250 L942.640223 84.976879 L932.431713 63.341234 L961.380945 73.729539 L957.668759 65.862032 L982.441782 67.399391 L980.121666 62.482199 Z" fill="#888" fill-opacity="0.18" stroke="#000" stroke-width="1"/>
  <path d="M160.844740 555.902195 L144.422571 532.887827 L149.722619 531.674895 L133.210785 513.143152 L141.690863 511.202461 L115.638942 494.853995 L138.959155 489.517095 L135.077773 472.556941 L147.797889 469.645905 L151.679270 486.606059 L174.999483 481.269159 L158.651017 507.321079 L167.131094 505.380388 L160.322715 529.249031 L165.622764 528.036099 Z" fill="#888" fill-opacity="0.18" stroke="#000" stroke-width="1"/>
  <path d="M925.542160 729.313071 L942.860052 751.661212 L937.612017 753.082425 L954.842545 770.947895 L946.445690 773.221836 L973.122681 788.529123 L950.031328 794.782460 L954.579209 811.576171 L941.983926 814.987082 L937.436044 798.193371 L914.344692 804.446708 L929.651979 777.769717 L921.255123 780.043658 L927.115948 755.924851 L921.867913 757.346064 Z" fill="#888" fill-opacity="0.18" stroke="#000" stroke-width="1"/>
  <path d="M76.863179 970.417307 L104.619685 965.039099 L103.521401 970.364086 L127.237574 963.042253 L125.480319 971.562232 L151.173405 954.655423 L146.340953 978.085365 L163.380911 981.599876 L160.745029 994.379845 L143.705070 990.865334 L138.872618 1014.295277 L121.965809 988.602191 L120.208553 997.122170 L101.324832 981.014060 L100.226547 986.339047 Z" fill="#888" fill-opacity="0.18" stroke="#000" stroke-width="1"/>
  <path d="M246.820269 128.236968 L229.433388 105.942460 L234.677005 104.505033 L217.391341 86.692903 L225.781128 84.393021 L199.056954 69.168259 L222.128869 62.843582 L217.529104 46.064007 L230.113785 42.614184 L234.713550 59.393758 L257.785465 53.069081 L242.560703 79.793256 L250.950490 77.493373 L245.164239 101.630180 L250.407856 100.192753 Z" fill="#888" fill-opacity="0.18" stroke="#000" stroke-width="1"/>
  <path d="M43.703156 100.290204 L67.951797 114.828160 L63.577557 118.057360 L86.117686 128.450084 L79.118901 133.616803 L109.532664 138.196967 L90.286005 152.405447 L100.619444 166.403017 L90.121266 174.153097 L79.787827 160.155527 L60.541167 174.364006 L65.121330 143.950243 L58.122545 149.116963 L54.829075 124.515760 L50.454834 127.744960 Z" fill="#888" fill-opacity="0.18" stroke="#000" stroke-width="1"/>
  <path d="M463.323234 112.125110 L439.527905 127.393741 L438.577506 122.040381 L419.254945 137.619366 L417.734307 129.053991 L400.122463 154.269023 L395.940710 130.714241 L378.809960 133.755516 L376.529004 120.907453 L393.659754 117.866178 L389.478001 94.311396 L414.693033 111.923240 L413.172395 103.357865 L436.676710 111.333662 L435.726311 105.980303 Z" fill="#888" fill-opacity="0.18" stroke="#000" stroke-width="1"/>
  <path d="M328.757102 917.549512 L302.020965 908.355615 L305.630542 904.289577 L281.425320 898.796550 L287.200644 892.290889 L256.498182 894.116730 L272.380324 876.226163 L259.369002 864.675515 L268.031989 854.917024 L281.043310 866.467672 L296.925452 848.577106 L298.751293 879.279568 L304.526617 872.773907 L312.849698 896.157501 L316.459275 892.091463 Z" fill="#888" fill-opacity="0.18" stroke="#000" stroke-width="1"/>
  <path d="M739.958715 654.359419 L753.831917 629.724422 L757.178869 634.009236 L766.954830 611.194839 L772.309952 618.050541 L776.061400 587.523478 L790.787988 606.376659 L804.499392 595.666413 L812.532076 605.949966 L798.820672 616.660212 L813.547260 635.513392 L783.020198 631.761944 L788.375321 638.617646 L763.872772 642.578863 L767.219724 646.863677 Z" fill="#888" fill-opacity="0.18" stroke="#000" stroke-width="1"/>
  <path d="M170.801278 360.830759 L143.282376 367.316033 L144.166566 361.951340 L120.762579 370.216905 L122.177282 361.633397 L97.181754 379.555407 L101.072189 355.950761 L83.905174 353.121354 L86.027229 340.246092 L103.194245 343.075499 L107.084680 319.470853 L125.006690 344.466381 L126.421393 335.882874 L145.934945 351.221956 L146.819135 345.857264 Z" fill="#888" fill-opacity="0.18" stroke="#000" stroke-width="1"/>
  <path d="M589.583691 679.908124 L617.854742 679.597506 L615.818827 684.639010 L640.463857 681.691360 L637.206393 689.757767 L665.516069 677.735409 L656.558044 699.918028 L672.690858 706.432955 L667.804663 718.532565 L651.671849 712.017638 L642.713824 734.200257 L630.691466 705.890581 L627.434002 713.956988 L611.746997 694.722019 L609.711082 699.763523 Z" fill="#888" fill-opacity="0.18" stroke="#000" stroke-width="1"/>
  <path d="M460.082339 272.241824 L469.686158 298.833466 L464.255406 298.571449 L475.154989 320.870893 L466.465787 320.451665 L487.140722 343.222741 L463.245416 342.069864 L462.406959 359.448269 L449.373156 358.819427 L450.211612 341.441022 L426.316306 340.288145 L449.087382 319.613209 L440.398179 319.193981 L453.393903 298.047413 L447.963152 297.785396 Z" fill="#888" fill-opacity="0.18" stroke="#000" stroke-width="1"/>
  <path d="M122.562062 521.362015 L95.827981 512.162139 L99.438468 508.096908 L75.234475 502.598467 L81.011254 496.094098 L50.308385 497.913072 L66.194527 480.026058 L53.185790 468.472500 L61.850959 458.715947 L74.859696 470.269505 L90.745839 452.382491 L92.564813 483.085361 L98.341592 476.580992 L106.659442 499.966447 L110.269929 495.901217 Z" fill="#888" fill-opacity="0.18" stroke="#000" stroke-width="1"/>
  <path d="M995.988686 666.480852 L967.979760 662.627431 L970.735465 657.940448 L945.924984 657.228988 L950.334113 649.729816 L920.563362 657.454924 L932.688466 636.832202 L917.690122 628.013945 L924.303815 616.765187 L939.302158 625.583445 L951.427262 604.960722 L959.152370 634.731473 L963.561498 627.232301 L976.246876 648.566484 L979.002581 643.879501 Z" fill="#888" fill-opacity="0.18" stroke="#000" stroke-width="1"/>
</svg>
