<?xml version="1.0" encoding="UTF-8"?>
<svg xmlns="http://www.w3.org/2000/svg" width="1100" height="1100" viewBox="0 0 1100 1100">
  <rect x="0" y="0" width="1100" height="1100" fill="white"/>
  <text x="10.0" y="18.0" font-family="monospace" font-size="12">prefix=N172_job5048576_task172 run_id=172 L=11.8093130488 feas=0.000e+00 N=172</text>
  <rect x="40.000000" y="40.000000" width="1020.000000" height="1020.000000" fill="none" stroke="#000" stroke-width="2"/>
  <path d="M840.611255 960.276110 L820.511895 940.680181 L825.477101 938.561650 L806.079524 923.361592 L814.023854 919.971943 L785.688906 908.585241 L807.535814 899.263706 L800.756516 883.375045 L812.673011 878.290571 L819.452309 894.179232 L841.299217 884.857697 L829.912515 913.192645 L837.856845 909.802996 L835.407514 934.324589 L840.372720 932.206058 Z" fill="#888" fill-opacity="0.18" stroke="#000" stroke-width="1"/>
  <path d="M914.537446 1011.782293 L896.021726 990.683648 L901.136554 988.957384 L882.978879 972.295854 L891.162603 969.533832 L863.798239 955.979576 L886.303481 948.384016 L880.779437 932.016568 L893.055024 927.873536 L898.579067 944.240984 L921.084308 936.645425 L907.530052 964.009789 L915.713776 961.247767 L911.366209 985.504857 L916.481037 983.778594 Z" fill="#888" fill-opacity="0.18" stroke="#000" stroke-width="1"/>
  <path d="M679.332350 396.652424 L706.524842 389.684420 L705.750487 395.026874 L728.823887 386.370894 L727.584918 394.918822 L752.052157 376.646424 L748.644995 400.153224 L765.740849 402.631160 L763.882397 415.453051 L746.786543 412.975115 L743.379380 436.481915 L725.106982 412.014676 L723.868014 420.562604 L704.201777 405.711783 L703.427422 411.054238 Z" fill="#888" fill-opacity="0.18" stroke="#000" stroke-width="1"/>
  <path d="M596.307610 573.076962 L568.274081 574.528162 L570.089957 569.444459 L545.760216 573.365101 L548.665618 565.231176 L521.067300 578.302484 L529.057155 555.934189 L512.789304 550.123385 L517.147408 537.922497 L533.415258 543.733301 L541.405114 521.365006 L554.476422 548.963325 L557.381824 540.829399 L573.721710 559.277052 L575.537586 554.193349 Z" fill="#888" fill-opacity="0.18" stroke="#000" stroke-width="1"/>
  <path d="M867.884339 554.325088 L883.551781 577.617060 L878.258277 578.675484 L894.137681 597.520968 L885.668075 599.214446 L911.075786 616.154768 L887.784368 620.811832 L891.171324 637.751045 L878.466914 640.291262 L875.079958 623.352049 L851.788540 628.009114 L868.728862 602.601402 L860.259255 604.294880 L867.671269 580.792332 L862.377765 581.850755 Z" fill="#888" fill-opacity="0.18" stroke="#000" stroke-width="1"/>
  <path d="M370.871429 141.160669 L395.903591 128.457299 L396.307136 133.840476 L416.952046 120.383306 L417.597718 128.996390 L437.516248 105.849501 L439.291845 129.535481 L456.518013 128.244138 L457.486520 141.163763 L440.260353 142.455107 L442.035951 166.141087 L418.889062 146.222557 L419.534733 154.835641 L397.114225 144.606831 L397.517770 149.990008 Z" fill="#888" fill-opacity="0.18" stroke="#000" stroke-width="1"/>
  <path d="M937.944837 124.579684 L955.302456 146.640911 L950.102415 148.090398 L967.340453 165.701695 L959.020386 168.020873 L985.618500 183.023094 L962.738316 189.400835 L967.376673 206.040969 L954.896573 209.519737 L950.258216 192.879603 L927.378032 199.257345 L942.380252 172.659231 L934.060185 174.978409 L939.702331 150.989371 L934.502289 152.438858 Z" fill="#888" fill-opacity="0.18" stroke="#000" stroke-width="1"/>
  <path d="M133.826288 741.555801 L132.944702 769.613019 L128.029337 767.381287 L129.916210 791.952560 L122.051625 788.381788 L132.786156 816.970179 L111.158549 807.150556 L104.017004 822.879725 L92.220128 817.523567 L99.361672 801.794398 L77.734065 791.974774 L106.322456 781.240243 L98.457872 777.669471 L118.198606 762.917822 L113.283241 760.686089 Z" fill="#888" fill-opacity="0.18" stroke="#000" stroke-width="1"/>
  <path d="M717.405414 840.654743 L700.070301 818.575826 L705.271819 817.131643 L688.051749 799.502776 L696.374177 797.192083 L669.791376 782.162746 L692.678052 775.808341 L688.056667 759.163486 L700.540308 755.697447 L705.161694 772.342302 L728.048370 765.987897 L713.019032 792.570698 L721.341460 790.260006 L715.674853 814.243277 L720.876371 812.799094 Z" fill="#888" fill-opacity="0.18" stroke="#000" stroke-width="1"/>
  <path d="M814.624644 141.435672 L837.494552 125.158324 L838.692461 130.422017 L857.111832 114.050258 L859.028486 122.472167 L875.291622 96.625761 L880.562421 119.786009 L897.406238 115.952701 L900.281219 128.585564 L883.437402 132.418871 L888.708200 155.579120 L862.861794 139.315983 L864.778448 147.737892 L841.088278 140.949403 L842.286187 146.213095 Z" fill="#888" fill-opacity="0.18" stroke="#000" stroke-width="1"/>
  <path d="M875.081458 1011.538645 L850.419171 1024.945967 L849.863306 1019.576381 L829.607861 1033.612929 L828.718478 1025.021590 L809.463589 1048.723394 L807.017786 1025.097213 L789.835108 1026.875978 L788.501034 1013.988970 L805.683711 1012.210204 L803.237908 988.584023 L826.939712 1007.838912 L826.050329 999.247574 L848.751578 1008.837207 L848.195713 1003.467620 Z" fill="#888" fill-opacity="0.18" stroke="#000" stroke-width="1"/>
  <path d="M725.580042 436.722253 L732.287041 463.980296 L726.952256 463.154760 L735.386640 486.310081 L726.850983 484.989224 L744.887982 509.630510 L721.414925 505.998152 L718.773210 523.069466 L705.969725 521.088180 L708.611440 504.016866 L685.138383 500.384508 L709.779669 482.347509 L701.244013 481.026652 L716.282684 461.503688 L710.947899 460.678152 Z" fill="#888" fill-opacity="0.18" stroke="#000" stroke-width="1"/>
  <path d="M553.720043 773.114438 L581.497422 777.164371 L578.723959 781.795716 L603.350955 782.700610 L598.913414 790.110761 L628.532643 782.679235 L616.329406 803.057150 L631.149708 811.932232 L624.493397 823.047458 L609.673095 814.172377 L597.469858 834.550291 L590.038332 804.931063 L585.600792 812.341213 L573.177033 791.058404 L570.403570 795.689749 Z" fill="#888" fill-opacity="0.18" stroke="#000" stroke-width="1"/>
  <path d="M792.421005 56.642954 L777.020291 80.112141 L773.993269 75.642400 L762.773753 97.583917 L757.930518 90.432332 L752.159641 120.419383 L738.840745 100.752523 L724.537573 110.438992 L717.272721 99.711614 L731.575892 90.025144 L718.256996 70.358283 L748.244048 76.129160 L743.400813 68.977574 L767.939226 66.702917 L764.912204 62.233176 Z" fill="#888" fill-opacity="0.18" stroke="#000" stroke-width="1"/>
  <path d="M942.881965 646.040722 L920.926199 663.531549 L919.445265 658.340376 L901.938625 675.684692 L899.569131 667.378814 L884.728171 694.067242 L878.212064 671.226078 L861.600308 675.965065 L858.046068 663.506249 L874.657823 658.767262 L868.141716 635.926098 L894.830144 650.767059 L892.460651 642.461181 L916.483398 647.958029 L915.002465 642.766855 Z" fill="#888" fill-opacity="0.18" stroke="#000" stroke-width="1"/>
  <path d="M880.863986 558.814828 L907.597321 567.377160 L904.100063 571.489414 L928.243046 576.431489 L922.647433 583.011095 L953.085481 580.551113 L937.697544 598.645030 L950.856756 609.836256 L942.463336 619.705665 L929.304124 608.514439 L913.916188 626.608355 L911.456206 596.170307 L905.860593 602.749913 L897.105546 579.713921 L893.608288 583.826175 Z" fill="#888" fill-opacity="0.18" stroke="#000" stroke-width="1"/>
  <path d="M520.667931 371.810541 L516.781563 399.611276 L512.133974 396.865121 L511.374048 421.497016 L503.937906 417.103167 L511.543639 446.678142 L491.094250 434.595059 L482.306553 449.467342 L471.152341 442.876569 L479.940038 428.004286 L459.490649 415.921203 L489.065623 408.315470 L481.629482 403.921622 L502.838798 391.372810 L498.191209 388.626655 Z" fill="#888" fill-opacity="0.18" stroke="#000" stroke-width="1"/>
  <path d="M585.801505 708.643067 L613.598976 712.552713 L610.848930 717.198000 L635.480180 717.978551 L631.080107 725.411011 L660.661440 717.830045 L648.561238 738.269309 L663.426157 747.069456 L656.826047 758.218146 L641.961128 749.417999 L629.860926 769.857263 L622.279960 740.275930 L617.879887 747.708390 L605.348838 726.488575 L602.598792 731.133862 Z" fill="#888" fill-opacity="0.18" stroke="#000" stroke-width="1"/>
  <path d="M412.866826 110.402618 L385.104678 106.249563 L387.895320 101.628550 L363.271855 100.632211 L367.736882 93.238590 L338.090261 100.560075 L350.369085 80.227617 L335.581843 71.297562 L342.279383 60.207130 L357.066626 69.137185 L369.345451 48.804726 L376.666936 78.451347 L381.131963 71.057726 L393.476604 92.386523 L396.267246 87.765510 Z" fill="#888" fill-opacity="0.18" stroke="#000" stroke-width="1"/>
  <path d="M189.317841 665.644725 L170.165310 645.122413 L175.224931 643.240478 L156.566024 627.142251 L164.661418 624.131155 L136.895192 611.420411 L159.157526 603.139896 L153.135333 586.949108 L165.278424 582.432464 L171.300617 598.623251 L193.562950 590.342737 L180.852206 618.108962 L188.947600 615.097866 L185.344174 639.476608 L190.403795 637.594673 Z" fill="#888" fill-opacity="0.18" stroke="#000" stroke-width="1"/>
  <path d="M128.604517 979.567816 L115.079106 954.970093 L120.445966 954.388491 L106.312465 934.200576 L114.899440 933.270013 L91.105591 914.128982 L114.719775 911.569932 L112.858647 894.395980 L125.739111 893.000135 L127.600239 910.174086 L151.214422 907.615036 L132.073392 931.408885 L140.660368 930.478321 L131.179686 953.225286 L136.546546 952.643684 Z" fill="#888" fill-opacity="0.18" stroke="#000" stroke-width="1"/>
  <path d="M983.524652 956.149790 L981.021107 984.108992 L976.243108 981.596587 L976.705086 1006.235872 L969.060289 1002.216024 L978.122664 1031.377637 L957.099470 1020.323056 L949.059775 1035.612651 L937.592579 1029.582880 L945.632274 1014.293285 L924.609081 1003.238704 L953.770693 994.176329 L946.125896 990.156482 L966.687111 976.571778 L961.909113 974.059373 Z" fill="#888" fill-opacity="0.18" stroke="#000" stroke-width="1"/>
  <path d="M1043.782230 297.476647 L1019.372151 311.337843 L1018.717063 305.979457 L998.724711 320.388260 L997.676569 311.814842 L978.863376 335.868741 L975.980988 312.291840 L958.834151 314.388122 L957.261939 301.527995 L974.408776 299.431712 L971.526388 275.854812 L995.580287 294.668005 L994.532146 286.094586 L1017.406886 295.262684 L1016.751798 289.904297 Z" fill="#888" fill-opacity="0.18" stroke="#000" stroke-width="1"/>
  <path d="M195.086558 102.077283 L171.677414 117.569109 L170.658831 112.267795 L151.694455 128.005018 L150.064723 119.522915 L132.933796 144.802504 L128.452032 121.476720 L111.487825 124.736185 L109.043226 112.013030 L126.007433 108.753565 L121.525668 85.427781 L146.805258 102.558708 L145.175525 94.076605 L168.621666 101.665166 L167.603083 96.363851 Z" fill="#888" fill-opacity="0.18" stroke="#000" stroke-width="1"/>
  <path d="M815.126096 963.142831 L787.780603 969.483868 L788.677571 964.160627 L765.411278 972.283886 L766.846426 963.766700 L741.965591 981.471794 L745.912249 958.049533 L728.877877 955.179236 L731.030600 942.403458 L748.064971 945.273754 L752.011629 921.851494 L769.716723 946.732329 L771.151871 938.215143 L790.471507 953.514145 L791.368474 948.190903 Z" fill="#888" fill-opacity="0.18" stroke="#000" stroke-width="1"/>
  <path d="M588.498748 195.763743 L560.671970 192.068456 L563.386132 187.402112 L538.749597 186.811423 L543.092256 179.345271 L513.570230 187.154003 L525.512542 166.622087 L510.580239 157.936769 L517.094227 146.737542 L532.026530 155.422859 L543.968842 134.890943 L551.777574 164.412968 L556.120232 156.946817 L568.814455 178.069422 L571.528617 173.403078 Z" fill="#888" fill-opacity="0.18" stroke="#000" stroke-width="1"/>
  <path d="M935.612064 229.015332 L940.775218 256.607478 L935.495314 255.483175 L942.613892 279.076259 L934.166045 277.277374 L950.788450 302.894204 L927.556871 297.947271 L923.959102 314.842964 L911.287332 312.144637 L914.885101 295.248944 L891.653522 290.302011 L917.270351 273.679605 L908.822504 271.880720 L924.935505 253.234570 L919.655601 252.110267 Z" fill="#888" fill-opacity="0.18" stroke="#000" stroke-width="1"/>
  <path d="M260.718229 206.612095 L256.846599 178.809304 L262.068369 180.178452 L256.057067 156.279247 L264.411899 158.469884 L249.001412 132.106213 L271.977199 138.130464 L276.358473 121.420800 L288.890720 124.706755 L284.509447 141.416419 L307.485234 147.440670 L281.121563 162.851157 L289.476394 165.041794 L272.511909 182.916748 L277.733679 184.285896 Z" fill="#888" fill-opacity="0.18" stroke="#000" stroke-width="1"/>
  <path d="M979.444945 170.261282 L963.403358 147.225393 L968.679077 146.081612 L952.497371 127.495054 L960.938521 125.665004 L935.260521 109.137252 L958.473685 104.104616 L954.813586 87.222315 L967.475311 84.477240 L971.135411 101.359541 L994.348575 96.326905 L977.820822 122.004905 L986.261973 120.174855 L979.230515 143.794050 L984.506234 142.650269 Z" fill="#888" fill-opacity="0.18" stroke="#000" stroke-width="1"/>
  <path d="M458.579156 885.619302 L438.429261 866.075340 L443.388980 863.943995 L423.952217 848.794078 L431.887768 845.383926 L403.523510 834.070429 L425.346275 824.692511 L418.525970 808.821409 L430.429296 803.706181 L437.249601 819.577282 L459.072365 810.199364 L447.758869 838.563621 L455.694420 835.153469 L453.308418 859.681305 L458.268138 857.549960 Z" fill="#888" fill-opacity="0.18" stroke="#000" stroke-width="1"/>
  <path d="M307.179902 114.966859 L330.746533 130.218044 L326.296128 133.273423 L348.308536 144.353208 L341.187888 149.241815 L371.211025 154.821917 L351.629244 168.265586 L361.406458 182.506882 L350.725486 189.839793 L340.948272 175.598497 L321.366491 189.042166 L326.946593 159.019029 L319.825945 163.907636 L317.395318 139.384182 L312.944913 142.439561 Z" fill="#888" fill-opacity="0.18" stroke="#000" stroke-width="1"/>
  <path d="M998.026553 605.445896 L972.854126 593.022785 L976.921278 589.473176 L953.775108 581.013709 L960.282551 575.334335 L929.815509 573.264164 L947.710976 557.645885 L936.352227 544.630999 L946.113391 536.111938 L957.472140 549.126823 L975.367607 533.508544 L973.297437 563.975586 L979.804879 558.296212 L985.055581 582.373958 L989.122733 578.824349 Z" fill="#888" fill-opacity="0.18" stroke="#000" stroke-width="1"/>
  <path d="M267.436191 416.907105 L295.328174 413.741352 L293.827126 418.926745 L317.871004 413.523075 L315.469327 421.819703 L342.215092 407.082325 L335.610479 429.898054 L352.203736 434.701410 L348.601220 447.146353 L332.007963 442.342998 L325.403349 465.158727 L310.665971 438.412961 L308.264294 446.709589 L290.825029 429.297531 L289.323980 434.482924 Z" fill="#888" fill-opacity="0.18" stroke="#000" stroke-width="1"/>
  <path d="M551.391491 873.704461 L578.799018 879.771765 L575.694798 884.188242 L600.189987 886.888875 L595.223235 893.955237 L625.306021 888.706212 L611.647452 908.138708 L625.780177 918.072213 L618.330048 928.671756 L604.197324 918.738252 L590.538755 938.170748 L585.289730 908.087961 L580.322978 915.154323 L569.486357 893.021194 L566.382137 897.437671 Z" fill="#888" fill-opacity="0.18" stroke="#000" stroke-width="1"/>
  <path d="M1042.737902 612.924191 L1025.745993 590.580070 L1030.969203 589.216427 L1014.023567 571.323602 L1022.380703 569.141773 L996.033289 553.703506 L1019.015413 547.703475 L1014.651754 530.989203 L1027.187458 527.716459 L1031.551117 544.430731 L1054.533241 538.430699 L1039.094975 564.778114 L1047.452111 562.596284 L1041.415623 586.489140 L1046.638833 585.125496 Z" fill="#888" fill-opacity="0.18" stroke="#000" stroke-width="1"/>
  <path d="M889.532402 827.579626 L915.649248 837.870158 L911.890807 841.745151 L935.659348 848.253931 L929.645842 854.453919 L960.179577 853.987714 L943.642436 871.037681 L956.042412 883.064692 L947.022153 892.364674 L934.622177 880.337663 L918.085036 897.387630 L917.618830 866.853895 L911.605325 873.053884 L904.373925 849.495136 L900.615484 853.370128 Z" fill="#888" fill-opacity="0.18" stroke="#000" stroke-width="1"/>
  <path d="M125.922774 579.551365 L104.705039 597.930496 L103.011830 592.804631 L86.233429 610.854367 L83.524296 602.652983 L69.793670 629.929277 L62.343552 607.375471 L45.940784 612.793738 L41.877084 600.491663 L58.279852 595.073395 L50.829735 572.519590 L78.106028 586.250216 L75.396895 578.048832 L99.625413 582.552901 L97.932205 577.427036 Z" fill="#888" fill-opacity="0.18" stroke="#000" stroke-width="1"/>
  <path d="M177.971911 364.637855 L204.372066 374.178113 L200.725855 378.158891 L224.670630 383.986025 L218.836692 390.355269 L249.344648 389.017004 L233.301318 406.532425 L246.039807 418.200301 L237.288900 427.754167 L224.550411 416.086292 L208.507082 433.601713 L207.168816 403.093758 L201.334878 409.463002 L193.433433 386.120446 L189.787221 390.101224 Z" fill="#888" fill-opacity="0.18" stroke="#000" stroke-width="1"/>
  <path d="M908.944238 432.690763 L922.081872 407.883762 L925.513763 412.050724 L934.631449 389.155843 L940.122475 395.822982 L943.062757 365.427571 L958.163078 383.762202 L971.497356 372.780151 L979.733894 382.780859 L966.399617 393.762910 L981.499938 412.097542 L951.104527 409.157260 L956.595552 415.824398 L932.377545 420.384647 L935.809436 424.551609 Z" fill="#888" fill-opacity="0.18" stroke="#000" stroke-width="1"/>
  <path d="M271.416734 593.456155 L290.061666 572.471608 L292.407670 577.333471 L306.693912 557.253355 L310.447519 565.032335 L320.510952 536.200866 L330.833372 557.593062 L346.391333 550.085848 L352.021743 561.754318 L336.463782 569.261533 L346.786202 590.653729 L317.954733 580.590296 L321.708340 588.369276 L297.099679 587.057196 L299.445684 591.919059 Z" fill="#888" fill-opacity="0.18" stroke="#000" stroke-width="1"/>
  <path d="M217.426979 516.221087 L245.467861 514.919680 L243.624850 519.993609 L267.975191 516.203007 L265.026374 524.321294 L292.694134 511.397620 L284.584887 533.722909 L300.821460 539.620543 L296.398235 551.797973 L280.161661 545.900339 L272.052414 568.225628 L259.128740 540.557868 L256.179923 548.676155 L239.938829 530.141467 L238.095818 535.215397 Z" fill="#888" fill-opacity="0.18" stroke="#000" stroke-width="1"/>
  <path d="M546.946253 276.994727 L574.977923 278.481394 L572.640670 283.347470 L597.246930 281.991118 L593.507324 289.776839 L622.320641 279.661552 L612.036725 301.072285 L627.608167 308.551497 L621.998758 320.230078 L606.427316 312.750866 L596.143399 334.161599 L586.028112 305.348281 L582.288506 313.134002 L567.966162 293.079621 L565.628908 297.945696 Z" fill="#888" fill-opacity="0.18" stroke="#000" stroke-width="1"/>
  <path d="M117.714347 685.542848 L90.145499 680.256700 L93.122985 675.753809 L68.560953 673.750227 L73.324929 666.545602 L43.403424 672.647224 L56.504360 652.834504 L42.095108 643.306550 L49.241073 632.499612 L63.650325 642.027565 L76.751260 622.214845 L82.852883 652.136351 L87.616859 644.931725 L99.077955 666.748027 L102.055441 662.245136 Z" fill="#888" fill-opacity="0.18" stroke="#000" stroke-width="1"/>
  <path d="M238.598763 825.947643 L257.070160 847.085102 L251.951720 848.800627 L270.074386 865.500230 L261.884883 868.245070 L289.220739 881.856728 L266.699606 889.405037 L272.189285 905.784043 L259.905030 909.901302 L254.415351 893.522296 L231.894218 901.070605 L245.505877 873.734749 L237.316374 876.479588 L241.714842 852.231676 L236.596402 853.947201 Z" fill="#888" fill-opacity="0.18" stroke="#000" stroke-width="1"/>
  <path d="M403.066923 83.917119 L428.842765 72.799984 L428.909724 78.197851 L450.353881 66.054709 L450.461015 74.691296 L471.784646 52.831995 L472.079264 76.582607 L489.352437 76.368340 L489.513138 89.323219 L472.239965 89.537487 L472.534583 113.288100 L450.675282 91.964469 L450.782416 100.601055 L429.043641 88.993584 L429.110600 94.391450 Z" fill="#888" fill-opacity="0.18" stroke="#000" stroke-width="1"/>
  <path d="M253.970970 657.847980 L243.227962 683.781983 L239.418894 679.956745 L232.497891 703.608541 L226.403382 697.488160 L226.338701 728.025385 L209.578802 711.194337 L197.338039 723.383354 L188.196276 714.202782 L200.437039 702.013765 L183.677140 685.182716 L214.214365 685.247397 L208.119856 679.127016 L231.800758 672.306268 L227.991691 668.481030 Z" fill="#888" fill-opacity="0.18" stroke="#000" stroke-width="1"/>
  <path d="M251.773733 66.856326 L248.176469 94.695945 L243.500595 91.998234 L242.996674 116.636696 L235.515275 112.320358 L243.427929 141.814700 L222.854081 129.944772 L214.221406 144.907570 L202.999307 138.433063 L211.631982 123.470265 L191.058135 111.600337 L220.552477 103.687683 L213.071078 99.371345 L234.148846 86.602812 L229.472971 83.905101 Z" fill="#888" fill-opacity="0.18" stroke="#000" stroke-width="1"/>
  <path d="M456.486108 898.656479 L428.557023 901.476218 L430.122239 896.309831 L406.013220 901.415019 L408.517564 893.148801 L381.591157 907.553485 L388.478105 884.821385 L371.945669 879.812696 L375.702186 867.413369 L392.234622 872.422058 L399.121570 849.689958 L413.526254 876.616365 L416.030598 868.350147 L433.252670 885.977059 L434.817885 880.810673 Z" fill="#888" fill-opacity="0.18" stroke="#000" stroke-width="1"/>
  <path d="M599.369366 942.562655 L626.459254 935.205844 L625.761507 940.558843 L648.708546 931.573235 L647.592150 940.138033 L671.795134 921.517027 L668.725046 945.070222 L685.854642 947.303013 L684.180049 960.150210 L667.050453 957.917419 L663.980365 981.470613 L645.359359 957.267629 L644.242963 965.832427 L624.366013 951.264841 L623.668265 956.617839 Z" fill="#888" fill-opacity="0.18" stroke="#000" stroke-width="1"/>
  <path d="M216.923443 904.007638 L241.419469 917.716374 L237.174129 921.050821 L259.851665 930.696396 L253.059121 936.031512 L283.378268 939.675082 L264.698774 954.346649 L275.369004 967.931737 L265.180189 975.934410 L254.509958 962.349322 L235.830463 977.020890 L239.474034 946.701742 L232.681491 952.036858 L228.683450 927.719715 L224.438110 931.054162 Z" fill="#888" fill-opacity="0.18" stroke="#000" stroke-width="1"/>
  <path d="M813.444715 719.429147 L808.942474 691.721485 L814.194000 692.971654 L807.641319 669.215178 L816.043761 671.215449 L800.038333 645.208669 L823.145047 650.709413 L827.145587 633.904530 L839.749250 636.904935 L835.748709 653.709818 L858.855423 659.210562 L832.848643 675.215989 L841.251085 677.216260 L824.697052 695.471992 L829.948578 696.722160 Z" fill="#888" fill-opacity="0.18" stroke="#000" stroke-width="1"/>
  <path d="M403.885102 344.507784 L431.815280 347.316675 L429.250819 352.066937 L453.893680 351.874207 L449.790542 359.474625 L479.049433 350.731425 L467.765803 371.632575 L482.966640 379.838852 L476.811933 391.239480 L461.611096 383.033203 L450.327466 403.934354 L441.584265 374.675462 L437.481127 382.275881 L424.121896 361.567460 L421.557435 366.317721 Z" fill="#888" fill-opacity="0.18" stroke="#000" stroke-width="1"/>
  <path d="M654.208131 111.999609 L628.284701 122.768106 L628.290547 117.369827 L606.684572 129.222656 L606.693925 120.585410 L585.077426 142.155141 L585.103149 118.402715 L567.828657 118.384008 L567.842688 105.428139 L585.117179 105.446846 L585.142902 81.694420 L606.712632 103.310919 L606.721986 94.673673 L628.302239 106.573270 L628.308085 101.174991 Z" fill="#888" fill-opacity="0.18" stroke="#000" stroke-width="1"/>
  <path d="M995.326093 474.086350 L968.164275 481.172982 L968.915304 475.827198 L945.879907 484.583810 L947.081552 476.030556 L922.694304 494.409578 L925.998828 470.888130 L908.892320 468.484840 L910.694788 455.654959 L927.801296 458.058249 L931.105820 434.536801 L949.484842 458.924048 L950.686487 450.370794 L970.417360 465.135631 L971.168388 459.789847 Z" fill="#888" fill-opacity="0.18" stroke="#000" stroke-width="1"/>
  <path d="M97.334218 871.088338 L120.384184 855.066984 L121.523332 860.343706 L140.124092 844.178327 L141.946729 852.621081 L158.497022 826.957603 L163.509273 850.175177 L180.394782 846.529903 L183.128737 859.194035 L166.243229 862.839308 L171.255480 886.056882 L145.592003 869.506589 L147.414639 877.949343 L123.801628 870.897149 L124.940776 876.173870 Z" fill="#888" fill-opacity="0.18" stroke="#000" stroke-width="1"/>
  <path d="M1040.699375 774.586772 L1015.939934 761.359724 L1020.119250 757.942889 L997.257414 748.742661 L1003.944320 743.275725 L973.559714 740.225801 L991.948706 725.191726 L981.014834 711.817914 L991.045193 703.617510 L1001.979065 716.991322 L1020.368057 701.957247 L1017.318132 732.341853 L1024.005038 726.874917 L1028.477883 751.109219 L1032.657199 747.692384 Z" fill="#888" fill-opacity="0.18" stroke="#000" stroke-width="1"/>
  <path d="M853.961599 164.793590 L875.194972 183.154651 L870.365097 185.565823 L890.635509 199.580749 L882.907707 203.438623 L911.871896 213.113440 L890.620442 223.722594 L898.336191 239.178196 L886.744489 244.965008 L879.028741 229.509405 L857.777288 240.118559 L867.452105 211.154371 L859.724304 215.012245 L860.705345 190.388165 L855.875470 192.799337 Z" fill="#888" fill-opacity="0.18" stroke="#000" stroke-width="1"/>
  <path d="M394.575387 518.497375 L366.550627 516.885678 L368.909565 512.030077 L344.297498 513.276650 L348.071798 505.507688 L319.213645 515.494343 L329.592969 494.129698 L314.055046 486.581099 L319.716495 474.927656 L335.254419 482.476256 L345.633743 461.111612 L355.620398 489.969765 L359.394697 482.200803 L373.627439 502.318875 L375.986377 497.463274 Z" fill="#888" fill-opacity="0.18" stroke="#000" stroke-width="1"/>
  <path d="M464.936414 774.516116 L441.941684 790.616647 L440.784395 785.343874 L422.239340 801.573128 L420.387678 793.136692 L403.925743 818.856937 L398.833673 795.656738 L381.960801 799.360062 L379.183308 786.705408 L396.056180 783.002084 L390.964110 759.801885 L416.684354 776.263821 L414.832692 767.827385 L438.469817 774.798329 L437.312529 769.525557 Z" fill="#888" fill-opacity="0.18" stroke="#000" stroke-width="1"/>
  <path d="M332.241407 300.060631 L350.774108 278.976900 L353.146020 283.826176 L367.324917 263.670119 L371.119977 271.428961 L381.029432 242.544207 L391.465846 263.881022 L406.983530 256.290902 L412.676119 267.929165 L397.158436 275.519284 L407.594850 296.856099 L378.710097 286.946644 L382.505156 294.705486 L357.889845 293.524728 L360.261757 298.374004 Z" fill="#888" fill-opacity="0.18" stroke="#000" stroke-width="1"/>
  <path d="M782.109521 253.471082 L754.059766 254.564665 L755.940325 249.504532 L731.562563 253.114588 L734.571458 245.018376 L706.808690 257.736671 L715.083150 235.472087 L698.890725 229.454298 L703.404066 217.309979 L719.596491 223.327768 L727.870951 201.063183 L740.589246 228.825951 L743.598141 220.729738 L759.701443 239.384266 L761.582001 234.324133 Z" fill="#888" fill-opacity="0.18" stroke="#000" stroke-width="1"/>
  <path d="M713.380704 962.348387 L700.926871 937.191146 L706.313794 936.841149 L693.062574 916.063447 L701.681652 915.503452 L678.733968 895.355745 L702.436433 893.815758 L701.316442 876.577601 L714.245060 875.737608 L715.365050 892.975765 L739.067515 891.435778 L718.919808 914.383461 L727.538886 913.823466 L717.087642 936.141155 L722.474566 935.791158 Z" fill="#888" fill-opacity="0.18" stroke="#000" stroke-width="1"/>
  <path d="M228.464778 508.001140 L230.084700 479.976854 L234.939608 482.337216 L233.700258 457.724785 L241.468112 461.501365 L231.489927 432.640282 L252.851524 443.025876 L260.404683 427.490168 L272.056464 433.155038 L264.503305 448.690745 L285.864902 459.076339 L257.003819 469.054524 L264.771673 472.831103 L244.649425 487.057941 L249.504334 489.418303 Z" fill="#888" fill-opacity="0.18" stroke="#000" stroke-width="1"/>
  <path d="M989.414017 139.898507 L1015.067446 151.295274 L1011.146908 155.006181 L1034.615719 162.524336 L1028.342859 168.461787 L1058.868638 169.300310 L1041.618272 185.628301 L1053.493174 198.174021 L1044.083884 207.080198 L1032.208981 194.534478 L1014.958616 210.862469 L1015.797138 180.336690 L1009.524278 186.274141 L1003.305833 162.427995 L999.385295 166.138902 Z" fill="#888" fill-opacity="0.18" stroke="#000" stroke-width="1"/>
  <path d="M372.986015 798.705595 L346.260612 790.118539 L349.761672 786.009522 L325.623270 781.045118 L331.224967 774.470691 L300.784656 776.902518 L316.189322 758.822842 L303.040467 747.619449 L311.443012 737.757808 L324.591867 748.961201 L339.996533 730.881525 L342.428360 761.321836 L348.030057 754.747408 L356.763793 777.791487 L360.264853 773.682470 Z" fill="#888" fill-opacity="0.18" stroke="#000" stroke-width="1"/>
  <path d="M534.926137 522.210944 L524.825839 496.019940 L530.222193 496.164192 L518.927223 474.261421 L527.561390 474.492224 L506.552982 452.329799 L530.296940 452.964508 L530.758547 435.696175 L543.709797 436.042381 L543.248190 453.310714 L566.992148 453.945423 L544.829723 474.953831 L553.463890 475.184635 L541.014902 496.452696 L546.411256 496.596949 Z" fill="#888" fill-opacity="0.18" stroke="#000" stroke-width="1"/>
  <path d="M1054.636210 435.921880 L1031.852737 419.523769 L1036.448812 416.692244 L1015.011343 404.537298 L1022.365064 400.006857 L992.654660 392.948658 L1012.877392 380.489945 L1003.816510 365.782504 L1014.847091 358.986842 L1023.907973 373.694284 L1044.130705 361.235571 L1037.072505 390.945975 L1044.426226 386.415534 L1045.640963 411.029192 L1050.237038 408.197667 Z" fill="#888" fill-opacity="0.18" stroke="#000" stroke-width="1"/>
  <path d="M905.551609 472.098522 L879.438078 461.799578 L883.197767 457.925796 L859.431324 451.409361 L865.446827 445.211310 L834.912944 445.667681 L851.455575 428.623041 L839.059473 416.592036 L848.082727 407.294960 L860.478828 419.325965 L877.021460 402.281325 L877.477831 432.815208 L883.493334 426.617157 L890.717145 450.178233 L894.476834 446.304451 Z" fill="#888" fill-opacity="0.18" stroke="#000" stroke-width="1"/>
  <path d="M603.013654 493.338376 L581.456478 475.358585 L586.242623 472.861734 L565.725699 459.210229 L573.383531 455.215266 L544.251547 446.058094 L565.310583 435.071948 L557.320658 419.756285 L568.807405 413.763842 L576.797330 429.079504 L597.856366 418.093358 L588.699193 447.225342 L596.357024 443.230380 L595.814912 467.868031 L600.601057 465.371180 Z" fill="#888" fill-opacity="0.18" stroke="#000" stroke-width="1"/>
  <path d="M551.729741 1041.814032 L562.376683 1015.840442 L566.199884 1019.651556 L573.033295 995.974304 L579.150416 1002.072085 L579.102066 971.534830 L595.924148 988.303728 L608.119710 976.069485 L617.295392 985.216157 L605.099830 997.450399 L621.921913 1014.219297 L591.384658 1014.267647 L597.501779 1020.365428 L573.846285 1027.273782 L577.669486 1031.084895 Z" fill="#888" fill-opacity="0.18" stroke="#000" stroke-width="1"/>
  <path d="M1018.721228 899.567896 L999.087762 919.630591 L996.978517 914.661433 L981.742226 934.030564 L978.367433 926.079911 L966.927785 954.393525 L957.647104 932.529231 L941.745799 939.278818 L936.683609 927.352839 L952.584914 920.603253 L943.304232 898.738958 L971.617846 910.178606 L968.243053 902.227954 L992.760025 904.723118 L990.650779 899.753960 Z" fill="#888" fill-opacity="0.18" stroke="#000" stroke-width="1"/>
  <path d="M814.399568 454.992579 L804.379316 428.770846 L809.775204 428.931581 L798.547187 406.994412 L807.180609 407.251587 L786.239993 385.025096 L809.981901 385.732327 L810.496251 368.465484 L823.446383 368.851247 L822.932033 386.118089 L846.673942 386.825321 L824.447451 407.765937 L833.080873 408.023112 L820.566981 429.253049 L825.962869 429.413784 Z" fill="#888" fill-opacity="0.18" stroke="#000" stroke-width="1"/>
  <path d="M644.173499 307.485897 L671.576569 313.573299 L668.469111 317.987498 L692.962313 320.706094 L687.990380 327.768812 L718.077008 322.541850 L704.404192 341.964324 L718.529628 351.908190 L711.071728 362.502267 L696.946292 352.558401 L683.273476 371.980875 L678.046514 341.894247 L673.074581 348.956965 L662.254194 326.815895 L659.146736 331.230094 Z" fill="#888" fill-opacity="0.18" stroke="#000" stroke-width="1"/>
  <path d="M832.901639 43.299150 L839.559133 70.569326 L834.225855 69.734105 L842.618181 92.904703 L834.084936 91.568349 L852.077162 116.242345 L828.610740 112.567371 L825.938032 129.633860 L813.138165 127.629329 L815.810873 110.562840 L792.344451 106.887867 L817.018447 88.895641 L808.485203 87.559286 L823.559299 68.063662 L818.226021 67.228441 Z" fill="#888" fill-opacity="0.18" stroke="#000" stroke-width="1"/>
  <path d="M774.352406 618.516490 L781.536715 645.652636 L776.188264 644.920846 L785.027695 667.924589 L776.470173 666.753725 L794.936817 691.074691 L771.403632 687.854813 L769.061903 704.969857 L756.225620 703.213560 L758.567349 686.098517 L735.034164 682.878639 L759.355130 664.411996 L750.797608 663.241131 L765.491362 643.457266 L760.142910 642.725475 Z" fill="#888" fill-opacity="0.18" stroke="#000" stroke-width="1"/>
  <path d="M1050.897343 446.714535 L1042.379460 473.462065 L1038.261398 469.971647 L1033.359462 494.122812 L1026.770563 488.538143 L1029.281137 518.972060 L1011.161667 503.614221 L999.992330 516.792018 L990.108982 508.415015 L1001.278320 495.237218 L983.158850 479.879379 L1013.592767 477.368806 L1007.003869 471.784137 L1030.025276 462.990811 L1025.907214 459.500393 Z" fill="#888" fill-opacity="0.18" stroke="#000" stroke-width="1"/>
  <path d="M101.358375 1058.932201 L96.339431 1031.313458 L101.613390 1032.465328 L94.618159 1008.835379 L103.056494 1010.678370 L86.568137 984.975056 L109.773556 990.043283 L113.459539 973.166614 L126.117040 975.931101 L122.431057 992.807770 L145.636477 997.875996 L119.933162 1014.364353 L128.371497 1016.207345 L112.161308 1034.769067 L117.435267 1035.920937 Z" fill="#888" fill-opacity="0.18" stroke="#000" stroke-width="1"/>
  <path d="M745.844842 253.420699 L731.696533 277.665494 L728.439196 273.360706 L718.386186 295.860589 L713.174446 288.972928 L708.984643 319.221430 L694.652359 300.280362 L680.877037 310.703841 L673.059427 300.372350 L686.834749 289.948871 L672.502465 271.007803 L702.750967 275.197606 L697.539227 268.309945 L721.924521 264.751130 L718.667184 260.446342 Z" fill="#888" fill-opacity="0.18" stroke="#000" stroke-width="1"/>
  <path d="M566.102975 262.268355 L538.155299 264.897449 L539.755731 259.741864 L515.612438 264.682421 L518.173130 256.433484 L491.149057 270.654095 L498.190961 247.969519 L481.693087 242.848134 L485.534126 230.474729 L502.032000 235.596114 L509.073904 212.911538 L523.294515 239.935611 L525.855207 231.686674 L542.956597 249.430693 L544.557030 244.275107 Z" fill="#888" fill-opacity="0.18" stroke="#000" stroke-width="1"/>
  <path d="M235.555584 535.191369 L243.774094 562.032398 L238.401537 561.506022 L248.115659 584.154280 L239.519567 583.312078 L258.904292 606.907813 L235.265039 604.591758 L233.580635 621.783942 L220.686497 620.520639 L222.370901 603.328455 L198.731647 601.012400 L222.327382 581.627674 L213.731290 580.785472 L227.656421 560.453270 L222.283864 559.926894 Z" fill="#888" fill-opacity="0.18" stroke="#000" stroke-width="1"/>
  <path d="M470.511608 997.570981 L498.549236 996.201261 L496.718592 1001.279665 L521.059625 997.429749 L518.130596 1005.555196 L545.766787 992.564152 L537.711956 1014.909131 L553.962851 1020.767190 L549.569307 1032.955361 L533.318412 1027.097302 L525.263582 1049.442281 L512.272537 1021.806090 L509.343508 1029.931537 L493.057306 1011.436474 L491.226662 1016.514878 Z" fill="#888" fill-opacity="0.18" stroke="#000" stroke-width="1"/>
  <path d="M648.113856 131.987345 L658.394219 105.866494 L662.270674 109.623426 L668.770200 85.852353 L674.972529 91.863444 L674.494435 61.329893 L691.550839 77.860394 L703.573022 65.455736 L712.876516 74.472373 L700.854333 86.877031 L717.910738 103.407532 L687.377187 103.885626 L693.579516 109.896718 L670.023586 117.137290 L673.900041 120.894222 Z" fill="#888" fill-opacity="0.18" stroke="#000" stroke-width="1"/>
  <path d="M392.870059 579.221088 L420.926398 578.311946 L419.012611 583.359606 L443.413581 579.909903 L440.351521 587.986158 L468.197307 575.450668 L459.776644 597.660370 L475.929155 603.784488 L471.336066 615.898871 L455.183556 609.774753 L446.762893 631.984454 L434.227403 604.138668 L431.165344 612.214924 L415.185037 593.454925 L413.271250 598.502584 Z" fill="#888" fill-opacity="0.18" stroke="#000" stroke-width="1"/>
  <path d="M369.425394 594.115653 L374.169720 566.448414 L378.730152 569.336996 L380.251526 544.740387 L387.548218 549.362117 L380.860814 519.566062 L400.926717 532.275820 L410.170177 517.682436 L421.115215 524.615031 L411.871755 539.208415 L431.937657 551.918173 L402.141602 558.605577 L409.438294 563.227308 L387.851017 575.114158 L392.411449 578.002740 Z" fill="#888" fill-opacity="0.18" stroke="#000" stroke-width="1"/>
  <path d="M49.675246 150.171102 L47.891676 122.156755 L52.996558 123.912212 L48.787646 99.630680 L56.955457 102.439411 L43.557758 74.998056 L66.019238 82.722067 L71.636700 66.386446 L83.888416 70.599543 L78.270954 86.935164 L100.732433 94.659175 L73.291078 108.056874 L81.458889 110.865605 L63.206321 127.423126 L68.311203 129.178583 Z" fill="#888" fill-opacity="0.18" stroke="#000" stroke-width="1"/>
  <path d="M529.534734 694.394080 L536.444417 667.186710 L540.763057 670.425660 L544.217852 646.025411 L551.127675 651.207732 L546.808919 620.977373 L565.810932 635.228755 L576.175574 621.409108 L586.540309 629.182590 L576.175667 643.002236 L595.177681 657.253618 L564.947321 661.572374 L571.857144 666.754694 L549.400335 676.903561 L553.718975 680.142512 Z" fill="#888" fill-opacity="0.18" stroke="#000" stroke-width="1"/>
  <path d="M901.091500 483.109123 L886.266276 506.946015 L883.131415 502.551235 L872.448987 524.759195 L867.433210 517.727546 L862.393532 547.846111 L848.600144 528.509077 L834.536847 538.540632 L827.013181 527.993159 L841.076478 517.961605 L827.283091 498.624571 L857.401655 503.664249 L852.385878 496.632601 L876.861693 493.761674 L873.726833 489.366894 Z" fill="#888" fill-opacity="0.18" stroke="#000" stroke-width="1"/>
  <path d="M62.375753 789.488794 L82.790209 808.756245 L77.860006 810.955006 L97.501495 825.838543 L89.613171 829.356560 L118.129024 840.282328 L96.436132 849.956875 L103.472166 865.733523 L91.639680 871.010549 L84.603646 855.233900 L62.910754 864.908447 L73.836522 836.392594 L65.948198 839.910611 L67.999601 815.352527 L63.069398 817.551288 Z" fill="#888" fill-opacity="0.18" stroke="#000" stroke-width="1"/>
  <path d="M509.108358 968.118086 L521.817924 943.089070 L525.320888 947.196464 L534.043946 924.148340 L539.648688 930.720172 L542.066411 900.278738 L557.479452 918.351274 L570.623115 907.141790 L579.030228 916.999537 L565.886565 928.209021 L581.299607 946.281558 L550.858172 943.863835 L556.462915 950.435666 L532.326816 955.411253 L535.829780 959.518648 Z" fill="#888" fill-opacity="0.18" stroke="#000" stroke-width="1"/>
  <path d="M965.347833 519.390080 L940.354506 532.169686 L939.934555 526.787764 L919.330756 540.307794 L918.658836 531.696718 L898.810947 554.904208 L896.963166 531.223750 L879.741015 532.567590 L878.733134 519.650977 L895.955286 518.307136 L894.107505 494.626677 L917.314995 514.474566 L916.643075 505.863490 L939.094655 516.023919 L938.674705 510.641996 Z" fill="#888" fill-opacity="0.18" stroke="#000" stroke-width="1"/>
  <path d="M628.489438 443.026756 L619.829028 416.325033 L625.209542 416.762662 L615.122926 394.277824 L623.731748 394.978030 L603.960207 371.705461 L627.634468 373.631026 L629.034879 356.413383 L641.948112 357.463691 L640.547701 374.681335 L664.221961 376.606901 L640.949392 396.378441 L649.558214 397.078647 L635.970569 417.637919 L641.351083 418.075548 Z" fill="#888" fill-opacity="0.18" stroke="#000" stroke-width="1"/>
  <path d="M654.328869 1059.127560 L650.647153 1031.298984 L655.859453 1032.703751 L650.011462 1008.764061 L658.351143 1011.011689 L643.121011 984.543418 L666.055133 990.724395 L670.550389 974.045034 L683.059909 977.416476 L678.564654 994.095837 L701.498775 1000.276814 L675.030504 1015.506945 L683.370184 1017.754573 L666.284054 1035.513286 L671.496354 1036.918054 Z" fill="#888" fill-opacity="0.18" stroke="#000" stroke-width="1"/>
  <path d="M539.971021 831.661133 L515.277525 818.311377 L519.473746 814.915324 L496.657849 805.601755 L503.371803 800.168071 L473.002707 796.967397 L491.466080 782.024765 L480.598711 768.596857 L490.669642 760.446330 L501.537011 773.874238 L520.000384 758.931606 L516.799711 789.300702 L523.513664 783.867017 L527.866189 808.123218 L532.062410 804.727166 Z" fill="#888" fill-opacity="0.18" stroke="#000" stroke-width="1"/>
  <path d="M225.813239 777.363866 L238.376375 752.261031 L241.903274 756.347892 L250.491542 733.249204 L256.134579 739.788182 L258.374431 709.333143 L273.892784 727.315333 L286.970739 716.029258 L295.435295 725.837724 L282.357340 737.123799 L297.875693 755.105989 L267.420654 752.866137 L273.063692 759.405115 L248.957071 764.521614 L252.483969 768.608476 Z" fill="#888" fill-opacity="0.18" stroke="#000" stroke-width="1"/>
  <path d="M250.126826 50.592973 L277.147268 58.200893 L273.798196 62.434705 L298.101402 66.516605 L292.742887 73.290705 L323.074423 69.751743 L308.338507 88.380517 L321.886706 99.097546 L313.848934 109.258695 L300.300735 98.541666 L285.564819 117.170439 L282.025858 86.838904 L276.667343 93.613003 L267.100052 70.902329 L263.750981 75.136142 Z" fill="#888" fill-opacity="0.18" stroke="#000" stroke-width="1"/>
  <path d="M584.207937 763.497682 L556.835143 757.275555 L559.964278 752.876696 L535.484744 750.037649 L540.491359 742.999474 L510.379384 748.078374 L524.147575 728.723392 L510.071225 718.710162 L517.581148 708.152900 L531.657498 718.166130 L545.425690 698.811148 L550.504590 728.923124 L555.511205 721.884949 L566.222547 744.078977 L569.351681 739.680118 Z" fill="#888" fill-opacity="0.18" stroke="#000" stroke-width="1"/>
  <path d="M551.490727 42.846695 L579.558172 43.297519 L577.402150 48.246560 L601.941566 45.982757 L598.491930 53.901224 L626.912186 42.729146 L617.425688 64.504930 L633.262622 71.404201 L628.088169 83.281902 L612.251235 76.382630 L602.764737 98.158414 L591.592659 69.738158 L588.143023 77.656625 L573.090105 58.144644 L570.934083 63.093686 Z" fill="#888" fill-opacity="0.18" stroke="#000" stroke-width="1"/>
  <path d="M918.894667 689.211622 L938.243276 709.549174 L933.201950 711.479582 L952.014498 727.397991 L943.948376 730.486643 L971.835312 742.930320 L949.653475 751.424113 L955.830779 767.556358 L943.731595 772.189336 L937.554291 756.057091 L915.372454 764.550884 L927.816131 736.663948 L919.750008 739.752600 L923.119296 715.340397 L918.077970 717.270804 Z" fill="#888" fill-opacity="0.18" stroke="#000" stroke-width="1"/>
  <path d="M667.656948 200.605883 L669.049628 172.569386 L673.923512 174.890313 L672.484673 150.288738 L680.282888 154.002221 L670.071057 125.222978 L691.516148 135.435055 L698.943113 119.838626 L710.640435 125.408849 L703.213469 141.005279 L724.658560 151.217356 L695.879317 161.429186 L703.677531 165.142668 L683.671280 179.532166 L688.545164 181.853093 Z" fill="#888" fill-opacity="0.18" stroke="#000" stroke-width="1"/>
  <path d="M355.735905 224.351621 L346.118906 250.723918 L342.148750 247.066145 L336.252001 270.993872 L329.899751 265.141435 L331.149284 295.653153 L313.680596 279.558951 L301.975722 292.263452 L292.447346 283.484796 L304.152220 270.780296 L286.683532 254.686094 L317.195251 253.436561 L310.843000 247.584124 L334.208437 239.750599 L330.238281 236.092826 Z" fill="#888" fill-opacity="0.18" stroke="#000" stroke-width="1"/>
  <path d="M944.067241 448.523444 L966.297882 431.383334 L967.696226 436.597361 L985.475976 419.533122 L987.713328 427.875565 L1002.976056 401.426078 L1009.128774 424.367797 L1025.813661 419.893093 L1029.169688 432.406758 L1012.484802 436.881462 L1018.637519 459.823181 L992.188031 444.560452 L994.425383 452.902895 L970.492916 447.025415 L971.891261 452.239442 Z" fill="#888" fill-opacity="0.18" stroke="#000" stroke-width="1"/>
  <path d="M267.045123 407.302971 L256.458422 381.304770 L261.856527 381.348418 L250.155286 359.659971 L258.792255 359.729807 L237.374425 337.962795 L261.126088 338.154845 L261.265761 320.880908 L274.221214 320.985663 L274.081541 338.259600 L297.833205 338.451650 L276.066192 359.869480 L284.703161 359.939317 L272.652738 381.435713 L278.050843 381.479361 Z" fill="#888" fill-opacity="0.18" stroke="#000" stroke-width="1"/>
  <path d="M753.129331 712.311261 L779.236774 722.625626 L775.474798 726.497186 L799.237388 733.027658 L793.218226 739.222155 L823.752373 738.783818 L807.199678 755.818684 L819.588672 767.857008 L810.559929 777.148754 L798.170935 765.110430 L781.618239 782.145296 L781.179902 751.611149 L775.160740 757.805646 L767.950845 734.240308 L764.188869 738.111868 Z" fill="#888" fill-opacity="0.18" stroke="#000" stroke-width="1"/>
  <path d="M176.957209 409.860461 L199.184366 427.005086 L194.496921 429.682642 L215.519523 442.541800 L208.019610 446.825889 L237.479614 454.865448 L216.854855 466.646692 L225.423033 481.646517 L214.173164 488.072651 L205.604986 473.072826 L184.980227 484.854071 L193.019786 455.394067 L185.519873 459.678156 L185.122030 435.037753 L180.434585 437.715309 Z" fill="#888" fill-opacity="0.18" stroke="#000" stroke-width="1"/>
  <path d="M761.847805 592.083154 L759.887803 564.080598 L765.003641 565.803864 L760.641859 541.549326 L768.827200 544.306551 L755.256908 516.950135 L777.766597 524.532503 L783.281047 508.161820 L795.559059 512.297657 L790.044609 528.668340 L812.554299 536.250708 L785.197883 549.821000 L793.383224 552.578225 L775.235318 569.250395 L780.351156 570.973660 Z" fill="#888" fill-opacity="0.18" stroke="#000" stroke-width="1"/>
  <path d="M768.877351 940.525977 L754.443343 916.450178 L759.784758 915.668682 L744.907663 896.022314 L753.453926 894.771921 L728.962285 876.532244 L752.464510 873.093663 L749.963724 856.001136 L762.783119 854.125547 L765.283905 871.218074 L788.786130 867.779493 L770.546453 892.271135 L779.092717 891.020742 L770.467587 914.105691 L775.809002 913.324195 Z" fill="#888" fill-opacity="0.18" stroke="#000" stroke-width="1"/>
  <path d="M403.048530 203.086117 L430.304346 196.370077 L429.480580 201.705136 L452.633102 193.263071 L451.315076 201.799166 L475.950378 183.753994 L472.325806 207.228254 L489.397995 209.864306 L487.420956 222.668448 L470.348767 220.032396 L466.724196 243.506656 L448.679024 218.871355 L447.360998 227.407449 L427.833048 212.375254 L427.009281 217.710313 Z" fill="#888" fill-opacity="0.18" stroke="#000" stroke-width="1"/>
  <path d="M268.643943 846.299197 L265.302010 818.427775 L270.496784 819.896028 L264.941294 795.886774 L273.252932 798.235979 L258.346848 771.583869 L281.203855 778.044183 L285.902265 761.420906 L298.369723 764.944713 L293.671313 781.567991 L316.528319 788.028305 L289.876210 802.934389 L298.187849 805.283594 L280.886333 822.832534 L286.081107 824.300787 Z" fill="#888" fill-opacity="0.18" stroke="#000" stroke-width="1"/>
  <path d="M1027.263626 284.826711 L999.284228 282.559991 L1001.756087 277.760891 L977.121597 278.431478 L981.076571 270.752918 L951.992736 280.061885 L962.868913 258.945844 L947.511793 251.035897 L953.444253 239.518057 L968.801373 247.428004 L979.677550 226.311963 L988.986518 255.395797 L992.941491 247.717237 L1006.699803 268.162691 L1009.171662 263.363591 Z" fill="#888" fill-opacity="0.18" stroke="#000" stroke-width="1"/>
  <path d="M962.542254 1045.974829 L985.289735 1029.526826 L986.526993 1034.781408 L1004.823357 1018.272295 L1006.802969 1026.679627 L1022.872268 1000.712265 L1028.316203 1023.832428 L1045.130868 1019.873203 L1048.100287 1032.484202 L1031.285622 1036.443427 L1036.729557 1059.563591 L1010.762195 1043.494292 L1012.741807 1051.901624 L989.001509 1045.290574 L990.238767 1050.545157 Z" fill="#888" fill-opacity="0.18" stroke="#000" stroke-width="1"/>
  <path d="M220.081487 865.842509 L197.444678 849.242521 L202.065741 846.451963 L180.737166 834.106938 L188.130868 829.642044 L158.484379 822.320025 L178.817058 810.041566 L169.887270 795.254163 L180.977823 788.556822 L189.907611 803.344225 L210.240290 791.065766 L202.918271 820.712255 L210.311973 816.247361 L211.307868 840.870845 L215.928932 838.080286 Z" fill="#888" fill-opacity="0.18" stroke="#000" stroke-width="1"/>
  <path d="M188.511250 868.930465 L194.728635 896.304336 L189.409502 895.383320 L197.427527 918.686088 L188.916914 917.212461 L206.509378 942.173060 L183.105194 938.120586 L180.157940 955.141811 L167.392021 952.931371 L170.339275 935.910145 L146.935090 931.857671 L171.895689 914.265207 L163.385076 912.791580 L178.771236 893.541286 L173.452103 892.620269 Z" fill="#888" fill-opacity="0.18" stroke="#000" stroke-width="1"/>
  <path d="M762.293720 347.638373 L757.877910 319.916805 L763.125511 321.183345 L756.646948 297.406550 L765.043111 299.433014 L749.118865 273.376447 L772.208312 278.949224 L776.261240 262.156898 L788.855484 265.196595 L784.802556 281.988920 L807.892003 287.561696 L781.835436 303.485942 L790.231599 305.512407 L773.620715 323.716425 L778.868316 324.982965 Z" fill="#888" fill-opacity="0.18" stroke="#000" stroke-width="1"/>
  <path d="M857.038584 905.982709 L844.723591 880.757213 L850.112362 880.436911 L836.975857 859.586491 L845.597891 859.074008 L822.761598 838.800133 L846.472191 837.390803 L845.447224 820.146736 L858.380274 819.378010 L859.405241 836.622078 L883.115834 835.212748 L862.841958 858.049041 L871.463992 857.536557 L860.889905 879.796306 L866.278676 879.476004 Z" fill="#888" fill-opacity="0.18" stroke="#000" stroke-width="1"/>
  <path d="M426.658444 339.268365 L450.651985 324.698029 L451.463765 330.034925 L471.025434 315.046633 L472.324282 323.585667 L490.424746 298.990963 L493.996578 322.473306 L511.074646 319.875610 L513.022918 332.684160 L495.944850 335.281856 L499.516682 358.764199 L474.921978 340.663735 L476.220826 349.202768 L453.087325 340.708717 L453.899105 346.045613 Z" fill="#888" fill-opacity="0.18" stroke="#000" stroke-width="1"/>
  <path d="M409.795783 327.168834 L417.763262 300.252222 L421.952048 303.657441 L426.357594 279.410814 L433.059652 284.859165 L429.925383 254.483144 L448.356043 269.466107 L459.252743 256.061991 L469.305830 264.234517 L458.409130 277.638633 L476.839789 292.621597 L446.463768 295.755866 L453.165826 301.204216 L430.329620 310.467879 L434.518406 313.873098 Z" fill="#888" fill-opacity="0.18" stroke="#000" stroke-width="1"/>
  <path d="M410.772771 516.189806 L437.797575 508.597398 L437.146464 513.956269 L460.014394 504.771197 L458.972616 513.345391 L483.012546 494.514351 L480.147656 518.093385 L497.296044 520.176941 L495.733377 533.038232 L478.584989 530.954676 L475.720100 554.533709 L456.889060 530.493779 L455.847282 539.067973 L435.844242 524.674011 L435.193130 530.032883 Z" fill="#888" fill-opacity="0.18" stroke="#000" stroke-width="1"/>
  <path d="M180.751683 119.967408 L197.760913 142.298347 L192.538762 143.666040 L209.498267 161.545719 L201.142825 163.734028 L227.502202 179.151860 L204.524737 185.169710 L208.901355 201.880593 L196.368192 205.163057 L191.991574 188.452173 L169.014110 194.470023 L184.431941 168.110646 L176.076500 170.298955 L182.094459 146.401426 L176.872308 147.769119 Z" fill="#888" fill-opacity="0.18" stroke="#000" stroke-width="1"/>
  <path d="M186.318713 279.662781 L187.186733 251.605139 L192.103177 253.834495 L190.204423 229.264137 L198.070733 232.831106 L187.322381 204.247908 L208.954734 214.057073 L216.088672 198.324453 L227.888137 203.674907 L220.754199 219.407527 L242.386551 229.216692 L213.803353 239.965044 L221.669663 243.532013 L201.936064 258.293206 L206.852508 260.522562 Z" fill="#888" fill-opacity="0.18" stroke="#000" stroke-width="1"/>
  <path d="M410.428548 420.748029 L383.801950 411.859327 L387.349249 407.790160 L363.268525 402.553131 L368.944204 396.042464 L338.478341 398.129934 L354.086457 380.225601 L341.065124 368.874245 L349.578642 359.108245 L362.599975 370.459602 L378.208090 352.555269 L380.295560 383.021131 L385.971239 376.510465 L394.443847 399.651827 L397.991146 395.582661 Z" fill="#888" fill-opacity="0.18" stroke="#000" stroke-width="1"/>
  <path d="M169.631424 143.520365 L162.061081 170.551359 L157.822617 167.208178 L153.774512 191.517036 L146.992969 186.167946 L150.574101 216.494531 L131.924856 201.784532 L121.226675 215.347619 L111.054360 207.323983 L121.752541 193.760896 L103.103296 179.050897 L133.429882 175.469764 L126.648338 170.120674 L149.345687 160.521815 L145.107222 157.178633 Z" fill="#888" fill-opacity="0.18" stroke="#000" stroke-width="1"/>
  <path d="M99.539395 417.321628 L123.002163 401.911137 L124.002341 407.215955 L143.021220 391.544643 L144.621505 400.032352 L161.840063 374.812368 L166.240847 398.153566 L183.216263 394.952996 L185.616691 407.684558 L168.641275 410.885128 L173.042059 434.226326 L147.822075 417.007768 L149.422360 425.495476 L126.002698 417.825590 L127.002876 423.130408 Z" fill="#888" fill-opacity="0.18" stroke="#000" stroke-width="1"/>
  <path d="M142.531148 427.955833 L118.284326 442.100668 L117.566812 436.750283 L97.743802 451.391185 L96.595780 442.830568 L78.064294 467.102163 L74.907234 443.560468 L57.786002 445.856512 L56.063969 433.015587 L73.185202 430.719544 L70.028142 407.177850 L94.299737 425.709336 L93.151715 417.148720 L116.131785 426.049513 L115.414272 420.699128 Z" fill="#888" fill-opacity="0.18" stroke="#000" stroke-width="1"/>
  <path d="M400.901889 966.394890 L426.089453 978.787281 L422.026635 982.341849 L445.183107 990.773072 L438.682598 996.460381 L469.152144 998.493381 L451.275744 1014.133481 L462.650362 1027.134499 L452.899599 1035.665463 L441.524980 1022.664445 L423.648580 1038.304545 L425.681580 1007.834999 L419.181071 1013.522308 L413.900998 989.450986 L409.838180 993.005554 Z" fill="#888" fill-opacity="0.18" stroke="#000" stroke-width="1"/>
  <path d="M819.587705 306.649514 L841.221244 324.537351 L836.445774 327.054559 L857.020640 340.618579 L849.379889 344.646112 L878.550600 353.679157 L857.538535 364.754874 L865.593601 380.036376 L854.132474 386.077676 L846.077408 370.796174 L825.065342 381.871890 L834.098387 352.701179 L826.457636 356.728712 L826.894835 332.088976 L822.119366 334.606184 Z" fill="#888" fill-opacity="0.18" stroke="#000" stroke-width="1"/>
  <path d="M413.517426 939.440100 L439.833906 929.671397 L439.621511 935.065499 L461.665189 924.048058 L461.325355 932.678621 L483.751346 911.951797 L482.816805 935.685845 L500.077930 936.365512 L499.568180 949.311356 L482.307054 948.631690 L481.372513 972.365738 L460.645689 949.939747 L460.305855 958.570310 L439.196719 945.853702 L438.984323 951.247804 Z" fill="#888" fill-opacity="0.18" stroke="#000" stroke-width="1"/>
  <path d="M947.077140 825.337070 L919.167776 822.328397 L921.766162 817.596607 L897.122553 817.613001 L901.279971 810.042137 L871.959266 818.575753 L883.392165 797.755877 L868.250437 789.441042 L874.486563 778.084746 L889.628291 786.399581 L901.061190 765.579705 L909.594806 794.900409 L913.752224 787.329545 L926.962934 808.133027 L929.561320 803.401237 Z" fill="#888" fill-opacity="0.18" stroke="#000" stroke-width="1"/>
  <path d="M294.835556 615.102064 L321.633238 606.743297 L321.134965 612.118534 L343.732112 602.286103 L342.934876 610.886482 L366.428913 591.378624 L364.236514 615.029666 L381.437272 616.624138 L380.241419 629.524707 L363.040661 627.930235 L360.848262 651.581277 L341.340404 628.087240 L340.543168 636.687619 L320.138420 622.869008 L319.640148 628.244245 Z" fill="#888" fill-opacity="0.18" stroke="#000" stroke-width="1"/>
  <path d="M124.238773 644.578530 L150.696417 653.958180 L147.074464 657.961042 L171.054208 663.642556 L165.259084 670.047136 L195.758343 668.523499 L179.821751 686.136092 L192.630909 697.726341 L183.938223 707.333210 L171.129064 695.742961 L155.192472 713.355554 L153.668835 682.856294 L147.873710 689.260874 L139.830558 665.966766 L136.208605 669.969628 Z" fill="#888" fill-opacity="0.18" stroke="#000" stroke-width="1"/>
  <path d="M427.724633 498.878770 L405.591908 481.612409 L410.293979 478.960621 L389.342270 465.986274 L396.865583 461.743412 L367.450148 453.542285 L388.139258 441.874416 L379.653535 426.827791 L390.938504 420.463499 L399.424226 435.510124 L420.113336 423.842255 L411.912208 453.257690 L419.435520 449.014828 L419.698119 473.657044 L424.400189 471.005256 Z" fill="#888" fill-opacity="0.18" stroke="#000" stroke-width="1"/>
  <path d="M692.567117 210.304635 L679.280678 235.032257 L675.873884 230.844751 L666.618808 253.684439 L661.167938 246.984430 L658.045091 277.361627 L643.055198 258.936603 L629.655181 269.838343 L621.478876 259.788330 L634.878893 248.886590 L619.889000 230.461565 L650.266198 233.584412 L644.815328 226.884403 L669.060296 222.469740 L665.653502 218.282235 Z" fill="#888" fill-opacity="0.18" stroke="#000" stroke-width="1"/>
  <path d="M245.383591 301.057318 L272.919303 295.601194 L271.851181 300.892750 L295.367273 293.523817 L293.658277 301.990306 L319.096989 285.096573 L314.397250 308.379418 L331.330228 311.797410 L328.766735 324.497143 L311.833756 321.079152 L307.134018 344.361996 L290.240285 318.923284 L288.531289 327.389773 L269.714936 311.475861 L268.646813 316.767417 Z" fill="#888" fill-opacity="0.18" stroke="#000" stroke-width="1"/>
  <path d="M786.140148 410.551879 L796.781319 436.527833 L791.383134 436.495500 L803.129808 458.159373 L794.492712 458.107640 L815.956120 479.829712 L792.204106 479.687446 L792.100640 496.961638 L779.144996 496.884039 L779.248462 479.609847 L755.496448 479.467581 L777.218520 458.004174 L768.581424 457.952441 L780.586764 436.430833 L775.188579 436.398500 Z" fill="#888" fill-opacity="0.18" stroke="#000" stroke-width="1"/>
  <path d="M641.340235 671.460239 L621.595515 651.507026 L626.597914 649.477875 L607.476034 633.932411 L615.479872 630.685770 L587.353674 618.792777 L609.364229 609.864514 L602.870947 593.856838 L614.876704 588.986876 L621.369986 604.994553 L643.380541 596.066290 L631.487548 624.192488 L639.491386 620.945847 L636.602711 645.419574 L641.605110 643.390423 Z" fill="#888" fill-opacity="0.18" stroke="#000" stroke-width="1"/>
  <path d="M687.512369 627.805815 L689.080380 599.778577 L693.939652 602.129943 L692.654716 577.519849 L700.429552 581.282035 L690.397926 552.439483 L711.778724 562.785492 L719.303094 547.235822 L730.965347 552.879099 L723.440977 568.428770 L744.821774 578.774780 L715.979223 588.806405 L723.754058 592.568590 L703.658196 606.832674 L708.517468 609.184040 Z" fill="#888" fill-opacity="0.18" stroke="#000" stroke-width="1"/>
  <path d="M135.841711 298.074028 L110.957990 285.082294 L115.104727 281.625993 L92.156699 272.642909 L98.791478 267.112826 L68.379325 264.351085 L86.624967 249.143358 L75.564802 235.873801 L85.516970 227.578677 L96.577135 240.848235 L114.822777 225.640508 L112.061036 256.052661 L118.695815 250.522579 L123.398200 274.713389 L127.544937 271.257088 Z" fill="#888" fill-opacity="0.18" stroke="#000" stroke-width="1"/>
  <path d="M494.184214 735.216296 L466.672519 740.792259 L467.717592 735.496103 L444.233807 742.967356 L445.905923 734.493506 L420.541008 751.497840 L425.139328 728.194753 L408.191628 724.850521 L410.699803 712.139746 L427.647502 715.483978 L432.245822 692.180891 L449.250156 717.545807 L450.922272 709.071957 L469.807737 724.903791 L470.852810 719.607635 Z" fill="#888" fill-opacity="0.18" stroke="#000" stroke-width="1"/>
  <path d="M624.749046 690.630618 L652.578385 686.954669 L651.172537 692.166678 L675.113439 686.323649 L672.864082 694.662863 L699.335510 679.438218 L693.149780 702.371058 L709.828209 706.869771 L706.454174 719.378592 L689.775745 714.879880 L683.590015 737.812720 L668.365370 711.341292 L666.116013 719.680507 L648.360842 702.590696 L646.954994 707.802705 Z" fill="#888" fill-opacity="0.18" stroke="#000" stroke-width="1"/>
  <path d="M642.028027 649.602476 L668.532985 640.357375 L668.213701 645.746207 L690.471452 635.167912 L689.960598 643.790043 L712.793059 623.511852 L711.388210 647.222711 L728.632471 648.244419 L727.866189 661.177614 L710.621929 660.155906 L709.217080 683.866764 L688.938889 661.034303 L688.428035 669.656434 L667.575134 656.523869 L667.255850 661.912701 Z" fill="#888" fill-opacity="0.18" stroke="#000" stroke-width="1"/>
  <path d="M498.349527 912.565197 L488.455108 886.295724 L493.850164 886.482327 L482.727452 864.491578 L491.359541 864.790143 L470.525729 842.463509 L494.263974 843.284561 L494.861102 826.020383 L507.809236 826.468229 L507.212108 843.732407 L530.950353 844.553459 L508.623719 865.387271 L517.255808 865.685835 L504.640275 886.855532 L510.035331 887.042135 Z" fill="#888" fill-opacity="0.18" stroke="#000" stroke-width="1"/>
  <path d="M987.807223 810.924505 L1009.941779 828.188519 L1005.239990 830.840806 L1026.193073 843.812931 L1018.670211 848.056590 L1048.086515 856.254599 L1027.398643 867.924661 L1035.885961 882.970386 L1024.601667 889.335875 L1016.114349 874.290150 L995.426477 885.960212 L1003.624486 856.543908 L996.101623 860.787567 L995.836412 836.145380 L991.134622 838.797667 Z" fill="#888" fill-opacity="0.18" stroke="#000" stroke-width="1"/>
  <path d="M667.412487 591.375695 L657.974409 564.938838 L663.365425 565.218829 L652.625152 543.038786 L661.250777 543.486771 L640.806675 520.802746 L664.527145 522.034704 L665.423114 504.783453 L678.361552 505.455430 L677.465583 522.706681 L701.186053 523.938638 L678.502028 544.382740 L687.127653 544.830725 L674.147457 565.778809 L679.538473 566.058800 Z" fill="#888" fill-opacity="0.18" stroke="#000" stroke-width="1"/>
  <path d="M118.757029 355.949811 L96.455555 338.901968 L101.131316 336.204061 L80.053015 323.436408 L87.534234 319.119758 L58.039562 311.208336 L78.612913 299.337548 L69.979613 284.375111 L81.201442 277.900135 L89.834742 292.862573 L110.408094 280.991785 L102.496672 310.486458 L109.977891 306.169808 L110.482840 330.808249 L115.158602 328.110342 Z" fill="#888" fill-opacity="0.18" stroke="#000" stroke-width="1"/>
  <path d="M332.604029 700.518272 L360.389610 704.511540 L357.625600 709.148532 L382.254390 710.003193 L377.831973 717.422379 L407.435982 709.930456 L395.274335 730.333219 L410.112708 739.178053 L403.479083 750.306833 L388.640709 741.461999 L376.479062 761.864762 L368.987139 732.260753 L364.564721 739.679939 L352.097578 718.422515 L349.333568 723.059507 Z" fill="#888" fill-opacity="0.18" stroke="#000" stroke-width="1"/>
  <path d="M781.860745 236.217854 L796.201923 212.086643 L799.424832 216.417267 L809.656929 193.998259 L814.813583 200.927257 L819.244444 170.713125 L833.425243 189.767871 L847.283240 179.454563 L855.018221 189.848061 L841.160224 200.161369 L855.341023 219.216115 L825.126891 214.785254 L830.283545 221.714253 L805.870649 225.078515 L809.093558 229.409139 Z" fill="#888" fill-opacity="0.18" stroke="#000" stroke-width="1"/>
  <path d="M170.299564 309.940084 L197.401514 302.627830 L196.694965 307.979674 L219.656749 299.031812 L218.526271 307.594762 L242.759842 289.013581 L239.651028 312.561695 L256.776929 314.822651 L255.081212 327.667077 L237.955311 325.406121 L234.846496 348.954235 L216.265315 324.720663 L215.134837 333.283614 L195.281868 318.683362 L194.575319 324.035206 Z" fill="#888" fill-opacity="0.18" stroke="#000" stroke-width="1"/>
  <path d="M1007.945872 147.838560 L1001.749522 120.459919 L1007.067945 121.385023 L999.067828 98.076100 L1007.577306 99.556266 L990.004025 74.582157 L1013.405089 78.652613 L1016.365421 61.633657 L1029.129638 63.853906 L1026.169306 80.872861 L1049.570370 84.943317 L1024.596261 102.516597 L1033.105739 103.996763 L1017.704793 123.235230 L1023.023216 124.160333 Z" fill="#888" fill-opacity="0.18" stroke="#000" stroke-width="1"/>
  <path d="M775.712377 576.603355 L801.791691 566.218071 L801.706289 571.615678 L823.484598 560.082552 L823.347955 568.718722 L845.279988 547.469904 L844.904219 571.219372 L862.176559 571.492658 L861.971595 584.446913 L844.699255 584.173627 L844.323486 607.923094 L823.074669 585.991062 L822.938026 594.627232 L801.535485 582.410890 L801.450083 587.808496 Z" fill="#888" fill-opacity="0.18" stroke="#000" stroke-width="1"/>
  <path d="M604.835600 398.053029 L577.376874 403.884247 L578.372718 398.578613 L554.959330 406.267632 L556.552680 397.778619 L531.346773 415.017778 L535.728485 391.672992 L518.750459 388.486293 L521.140483 375.752774 L538.118509 378.939473 L542.500220 355.594687 L559.739379 380.800593 L561.332728 372.311581 L580.364405 387.967347 L581.360248 382.661714 Z" fill="#888" fill-opacity="0.18" stroke="#000" stroke-width="1"/>
  <path d="M835.205968 835.875568 L807.324372 832.619598 L809.964603 827.911028 L785.321817 827.708957 L789.546187 820.175246 L760.150985 828.448599 L771.768001 807.730894 L756.700579 799.282154 L763.037134 787.981588 L778.104556 796.430327 L789.721573 775.712621 L797.994926 805.107823 L802.219296 797.574112 L815.245066 818.493889 L817.885297 813.785320 Z" fill="#888" fill-opacity="0.18" stroke="#000" stroke-width="1"/>
  <path d="M451.248488 664.242263 L474.311150 648.239191 L475.446114 653.516814 L494.059686 637.366188 L495.875628 645.810385 L512.446264 620.160038 L517.440105 643.381579 L534.328498 639.749695 L537.052411 652.415990 L520.164018 656.047874 L525.157858 679.269415 L499.507512 662.698779 L501.323454 671.142975 L477.716042 664.072060 L478.851005 669.349683 Z" fill="#888" fill-opacity="0.18" stroke="#000" stroke-width="1"/>
  <path d="M229.130123 756.924398 L201.102763 758.490230 L202.897834 753.399143 L178.584330 757.419249 L181.456444 749.273510 L153.911811 762.457573 L161.810125 740.056790 L145.518647 734.312562 L149.826818 722.093954 L166.118296 727.838182 L174.016609 705.437399 L187.200672 732.982032 L190.072786 724.836293 L206.487977 743.216969 L208.283048 738.125882 Z" fill="#888" fill-opacity="0.18" stroke="#000" stroke-width="1"/>
  <path d="M496.177345 193.709553 L486.214242 167.466052 L491.609767 167.638541 L480.429568 145.676964 L489.062409 145.952946 L468.170264 123.680888 L491.910576 124.439841 L492.462541 107.174159 L505.411802 107.588133 L504.859837 124.853815 L528.600149 125.612767 L506.328090 146.504912 L514.960931 146.780895 L502.400818 167.983520 L507.796344 168.156009 Z" fill="#888" fill-opacity="0.18" stroke="#000" stroke-width="1"/>
  <path d="M570.044860 91.477759 L542.055988 93.624338 L543.745122 88.497129 L519.520191 93.020456 L522.222804 84.816921 L494.957434 98.569226 L502.389620 76.009505 L485.982550 70.604278 L490.036470 58.298976 L506.443540 63.704202 L513.875726 41.144481 L527.628031 68.409851 L530.330644 60.206316 L547.123388 78.242710 L548.812521 73.115501 Z" fill="#888" fill-opacity="0.18" stroke="#000" stroke-width="1"/>
  <path d="M804.604798 249.862524 L832.578383 252.199886 L830.094415 256.992729 L854.730519 256.384348 L850.756169 264.052897 L879.863416 254.817398 L868.933955 275.905909 L884.271054 283.854608 L878.309529 295.357432 L862.972431 287.408733 L852.042969 308.497243 L842.807470 279.389996 L838.833120 287.058545 L825.126478 266.578416 L822.642509 271.371259 Z" fill="#888" fill-opacity="0.18" stroke="#000" stroke-width="1"/>
  <path d="M630.086124 562.069941 L607.313037 545.657409 L611.910904 542.828794 L590.481136 530.660278 L597.837723 526.134494 L568.131794 519.057486 L588.362410 506.611579 L579.310841 491.898404 L590.345722 485.109727 L599.397291 499.822902 L619.627907 487.376996 L612.550898 517.082925 L619.907486 512.557141 L621.106639 537.171563 L625.704506 534.342948 Z" fill="#888" fill-opacity="0.18" stroke="#000" stroke-width="1"/>
  <path d="M356.136169 688.084397 L370.172561 663.774637 L373.449708 668.064364 L383.398889 645.518376 L388.642325 652.381938 L392.692641 622.114444 L407.112089 640.989240 L420.839213 630.502368 L428.704367 640.797711 L414.977243 651.284583 L429.396691 670.159379 L399.129197 666.109063 L404.372632 672.972625 L380.004003 676.643816 L383.281150 680.933543 Z" fill="#888" fill-opacity="0.18" stroke="#000" stroke-width="1"/>
  <path d="M109.528095 304.198974 L134.486827 317.046012 L130.360228 320.526332 L153.360025 329.376027 L146.757466 334.944538 L177.185141 337.529658 L159.028104 352.843063 L170.165126 366.048182 L160.261287 374.400948 L149.124265 361.195830 L130.967227 376.509236 L133.552347 346.081560 L126.949788 351.650071 L122.107029 327.486971 L117.980430 330.967290 Z" fill="#888" fill-opacity="0.18" stroke="#000" stroke-width="1"/>
  <path d="M660.714095 389.514309 L667.559018 416.738044 L662.220121 415.939530 L670.771636 439.051850 L662.229400 437.774226 L680.390929 462.323873 L656.899783 458.810408 L654.344536 475.894879 L641.531183 473.978443 L644.086430 456.893973 L620.595283 453.380508 L645.144930 435.218979 L636.602695 433.941356 L651.542327 414.342500 L646.203430 413.543985 Z" fill="#888" fill-opacity="0.18" stroke="#000" stroke-width="1"/>
  <path d="M777.952668 108.098545 L793.977282 131.146244 L788.700722 132.286139 L804.868733 150.884611 L796.426237 152.708443 L822.092056 169.255105 L798.875191 174.270641 L802.522854 191.155633 L789.859110 193.891381 L786.211447 177.006388 L762.994582 182.021925 L779.541244 156.356105 L771.098748 158.179937 L778.147602 134.565928 L772.871042 135.705823 Z" fill="#888" fill-opacity="0.18" stroke="#000" stroke-width="1"/>
  <path d="M345.661119 894.838374 L338.756605 922.047056 L334.437350 918.808926 L330.987190 943.209831 L324.076383 938.028823 L328.400882 968.258361 L309.396161 954.010590 L299.034145 967.832205 L288.667934 960.060693 L299.029950 946.239078 L280.025229 931.991306 L310.254768 927.666807 L303.343960 922.485799 L325.798840 912.332666 L321.479586 909.094536 Z" fill="#888" fill-opacity="0.18" stroke="#000" stroke-width="1"/>
  <path d="M707.115995 1054.416133 L705.461068 1026.393893 L710.557836 1028.172770 L706.460454 1003.872169 L714.615283 1006.718372 L701.343719 979.215793 L723.769498 987.042851 L729.461904 970.733194 L741.694147 975.002499 L736.001741 991.312156 L758.427520 999.139215 L730.924941 1012.410779 L739.079769 1015.256982 L720.751372 1031.730524 L725.848140 1033.509401 Z" fill="#888" fill-opacity="0.18" stroke="#000" stroke-width="1"/>
  <path d="M251.499328 259.488231 L260.909653 233.041483 L264.908312 236.668075 L270.617631 212.694935 L277.015486 218.497483 L275.527219 187.996477 L293.121319 203.953484 L304.726414 191.157775 L314.323196 199.861596 L302.718101 212.657305 L320.312201 228.614312 L289.811195 230.102579 L296.209049 235.905126 L272.905630 243.921260 L276.904289 247.547852 Z" fill="#888" fill-opacity="0.18" stroke="#000" stroke-width="1"/>
  <path d="M291.222616 1035.731023 L307.779180 1013.062435 L310.578592 1017.678141 L322.882709 996.325941 L327.361768 1003.711070 L334.626945 974.050599 L346.944356 994.359705 L361.714615 985.401587 L368.433203 996.479281 L353.662945 1005.437399 L365.980357 1025.746505 L336.319886 1018.481329 L340.798945 1025.866458 L316.177416 1026.909552 L318.976827 1031.525258 Z" fill="#888" fill-opacity="0.18" stroke="#000" stroke-width="1"/>
  <path d="M945.915623 45.464673 L936.086687 71.758717 L932.146098 68.069110 L926.056966 91.948604 L919.752023 86.045232 L920.755953 116.566019 L903.417359 100.331747 L891.610616 112.941634 L882.153201 104.086577 L893.959944 91.476690 L876.621350 75.242419 L907.142137 74.238489 L900.837193 68.335118 L924.264919 60.689896 L920.324329 57.000288 Z" fill="#888" fill-opacity="0.18" stroke="#000" stroke-width="1"/>
  <path d="M80.988384 679.894596 L91.786175 705.805837 L86.387893 705.806093 L98.265136 727.398658 L89.627885 727.399067 L111.222035 748.991171 L87.469595 748.992296 L87.470414 766.266798 L74.514537 766.267412 L74.513719 748.992910 L50.761279 748.994035 L72.353383 727.399885 L63.716132 727.400294 L75.591329 705.806604 L70.193047 705.806860 Z" fill="#888" fill-opacity="0.18" stroke="#000" stroke-width="1"/>
  <path d="M670.150846 918.291895 L656.745808 893.628366 L662.115446 893.072999 L648.080775 872.816254 L656.672196 871.927667 L632.972175 852.670582 L656.598583 850.226967 L654.821409 833.044125 L667.708541 831.711244 L669.485715 848.894086 L693.112123 846.450472 L673.855038 870.150492 L682.446459 869.261905 L672.854723 891.962265 L678.224361 891.406898 Z" fill="#888" fill-opacity="0.18" stroke="#000" stroke-width="1"/>
  <path d="M264.225528 596.268770 L288.724220 609.972740 L284.479529 613.308013 L307.158941 622.949176 L300.367436 628.285613 L330.687292 631.923284 L312.010652 646.598485 L322.683526 660.181496 L312.496268 668.186151 L301.823394 654.603141 L283.146754 669.278342 L286.784425 638.958486 L279.992920 644.294923 L275.990148 619.978559 L271.745457 623.313832 Z" fill="#888" fill-opacity="0.18" stroke="#000" stroke-width="1"/>
  <path d="M580.038016 272.706484 L576.309789 244.884101 L581.524430 246.280154 L575.636433 222.350272 L583.979859 224.583957 L568.705508 198.141180 L591.649929 204.283814 L596.117299 187.596963 L608.632438 190.947491 L604.165067 207.634342 L627.109488 213.776977 L600.666711 229.051328 L609.010136 231.285013 L591.953713 249.072261 L597.168354 250.468314 Z" fill="#888" fill-opacity="0.18" stroke="#000" stroke-width="1"/>
  <path d="M200.837966 542.584762 L174.678136 552.765529 L174.805798 547.368757 L152.937854 558.731008 L153.142113 550.096172 L131.044377 571.172613 L131.606089 547.426816 L114.336418 547.018298 L114.642807 534.066045 L131.912478 534.474563 L132.474190 510.728766 L153.550631 532.826502 L153.754890 524.191666 L175.061122 536.575213 L175.188784 531.178440 Z" fill="#888" fill-opacity="0.18" stroke="#000" stroke-width="1"/>
  <path d="M961.535561 637.915019 L987.677106 627.687394 L987.559115 633.084386 L1009.406665 621.682970 L1009.217878 630.318157 L1031.277813 609.202154 L1030.758651 632.948920 L1048.029026 633.326493 L1047.745846 646.279274 L1030.475471 645.901701 L1029.956308 669.648467 L1008.840306 647.588532 L1008.651519 656.223720 L987.323132 643.878371 L987.205140 649.275363 Z" fill="#888" fill-opacity="0.18" stroke="#000" stroke-width="1"/>
  <path d="M65.775895 1004.462142 L61.475228 976.722477 L66.717525 978.010796 L60.337744 954.207306 L68.725420 956.268615 L52.909503 930.146152 L75.975612 935.814752 L80.098230 919.039400 L92.679744 922.131364 L88.557126 938.906716 L111.623235 944.575317 L85.500772 960.391233 L93.888448 962.452543 L77.202120 980.587432 L82.444418 981.875751 Z" fill="#888" fill-opacity="0.18" stroke="#000" stroke-width="1"/>
</svg>
