<?xml version="1.0" encoding="UTF-8"?>
<svg xmlns="http://www.w3.org/2000/svg" width="1100" height="1100" viewBox="0 0 1100 1100">
  <rect x="0" y="0" width="1100" height="1100" fill="white"/>
  <text x="10.0" y="18.0" font-family="monospace" font-size="12">prefix=N175_job5048579_task175 run_id=175 L=11.658519078 feas=0.000e+00 N=175</text>
  <rect x="40.000000" y="40.000000" width="1020.000000" height="1020.000000" fill="none" stroke="#000" stroke-width="2"/>
  <path d="M666.456706 945.418456 L694.311378 951.129653 L691.237299 955.651843 L716.089034 957.999339 L711.170508 965.234843 L741.555585 959.442396 L728.029639 979.340034 L742.500648 989.177086 L735.122859 1000.030343 L720.651850 990.193292 L707.125903 1010.090929 L701.333456 979.705853 L696.414931 986.941358 L685.089142 964.696224 L682.015063 969.218414 Z" fill="#888" fill-opacity="0.18" stroke="#000" stroke-width="1"/>
  <path d="M527.710821 779.752167 L516.663794 805.952619 L512.829914 802.053705 L505.668794 825.966836 L499.534586 819.728573 L499.274451 850.659749 L482.405378 833.504528 L469.928854 845.772944 L460.727542 836.415550 L473.204066 824.147134 L456.334994 806.991913 L487.266170 807.252049 L481.131962 801.013786 L505.162154 794.255877 L501.328274 790.356963 Z" fill="#888" fill-opacity="0.18" stroke="#000" stroke-width="1"/>
  <path d="M917.927817 928.787558 L946.319785 930.335667 L943.944975 935.261156 L968.871513 933.924320 L965.071817 941.805103 L994.273014 931.602386 L983.823850 953.274538 L999.585416 960.873930 L993.885872 972.695104 L978.124306 965.095712 L967.675143 986.767865 L957.472426 957.566668 L953.672730 965.447451 L939.195355 945.112135 L936.820545 950.037624 Z" fill="#888" fill-opacity="0.18" stroke="#000" stroke-width="1"/>
  <path d="M60.485291 924.703845 L87.074732 934.778671 L83.319627 938.753510 L107.480218 945.029284 L101.472049 951.389028 L132.391829 950.510090 L115.869366 967.999385 L128.588853 980.015722 L119.576600 989.555337 L106.857113 977.539000 L90.334650 995.028295 L89.455712 964.108515 L83.447544 970.468258 L75.809417 946.703190 L72.054311 950.678030 Z" fill="#888" fill-opacity="0.18" stroke="#000" stroke-width="1"/>
  <path d="M165.652684 491.020752 L149.284648 467.770206 L154.622617 466.584352 L138.135670 447.841352 L146.676421 445.943986 L120.581129 429.335523 L144.068195 424.117767 L140.273464 407.036265 L153.084590 404.190217 L156.879322 421.271719 L180.366387 416.053963 L163.757924 442.149255 L172.298675 440.251889 L165.298556 464.212645 L170.636526 463.026791 Z" fill="#888" fill-opacity="0.18" stroke="#000" stroke-width="1"/>
  <path d="M173.827585 79.574553 L198.629807 65.669508 L199.263674 71.100749 L219.594131 56.616551 L220.608318 65.306536 L239.797813 41.046104 L242.586829 64.943564 L259.966800 62.915189 L261.488081 75.950167 L244.108110 77.978542 L246.897126 101.876003 L222.636693 82.686507 L223.650880 91.376493 L200.531409 81.963231 L201.165276 87.394472 Z" fill="#888" fill-opacity="0.18" stroke="#000" stroke-width="1"/>
  <path d="M398.394160 646.205914 L373.339887 632.760323 L377.579805 629.307315 L354.439955 619.944260 L361.223824 614.419448 L330.452121 611.271806 L349.107760 596.078573 L338.058136 582.510835 L348.233939 574.223617 L359.283564 587.791354 L377.939203 572.598121 L374.791561 603.369823 L381.575430 597.845011 L386.059641 622.401300 L390.299559 618.948292 Z" fill="#888" fill-opacity="0.18" stroke="#000" stroke-width="1"/>
  <path d="M500.436006 398.657351 L489.187652 372.542700 L494.655368 372.477508 L482.365625 350.750067 L491.113970 350.645760 L468.982338 329.035665 L493.040288 328.748820 L492.831673 311.252129 L505.954191 311.095668 L506.162806 328.592358 L530.220755 328.305513 L508.610660 350.437145 L517.359006 350.332837 L505.590799 372.347123 L511.058515 372.281931 Z" fill="#888" fill-opacity="0.18" stroke="#000" stroke-width="1"/>
  <path d="M575.175367 392.125179 L555.300427 371.790794 L560.380121 369.766720 L541.108500 353.900905 L549.236011 350.662388 L520.820940 338.439905 L543.171595 329.533982 L536.694560 313.278960 L548.885826 308.421184 L555.362861 324.676205 L577.713515 315.770282 L565.491032 344.185353 L573.618543 340.946835 L570.539509 365.718574 L575.619203 363.694500 Z" fill="#888" fill-opacity="0.18" stroke="#000" stroke-width="1"/>
  <path d="M918.626551 407.554205 L914.703694 379.391966 L919.993060 380.778607 L913.903017 356.570533 L922.366003 358.789158 L906.755101 332.085131 L930.028312 338.186350 L934.465562 321.260378 L947.160041 324.588316 L942.722791 341.514288 L965.996002 347.615506 L939.291975 363.226408 L947.754961 365.445033 L930.571792 383.551888 L935.861159 384.938529 Z" fill="#888" fill-opacity="0.18" stroke="#000" stroke-width="1"/>
  <path d="M161.745176 932.099261 L135.789937 920.487797 L139.770910 916.739195 L116.018359 909.062230 L122.387916 903.064465 L91.469614 902.134985 L108.985894 885.641133 L96.990365 872.902020 L106.544700 863.905374 L118.540229 876.644487 L136.056509 860.150635 L135.127028 891.068937 L141.496585 885.071172 L147.732856 909.241989 L151.713828 905.493387 Z" fill="#888" fill-opacity="0.18" stroke="#000" stroke-width="1"/>
  <path d="M917.174826 444.229947 L930.052045 469.581036 L924.599394 469.991852 L938.238490 490.898658 L929.514249 491.555964 L952.968116 511.723301 L928.976454 513.530892 L930.291066 530.979373 L917.204705 531.965332 L915.890093 514.516851 L891.898432 516.324442 L912.065768 492.870576 L903.341528 493.527882 L913.694094 470.813485 L908.241443 471.224301 Z" fill="#888" fill-opacity="0.18" stroke="#000" stroke-width="1"/>
  <path d="M188.479444 551.383378 L190.877955 523.050576 L195.730042 525.571969 L195.141022 500.616558 L202.904360 504.650787 L193.581584 475.156869 L214.930766 486.250997 L222.999222 470.724319 L234.644230 476.775662 L226.575774 492.302339 L247.924955 503.396467 L218.431038 512.719243 L226.194377 516.753471 L205.434215 530.614754 L210.286302 533.136147 Z" fill="#888" fill-opacity="0.18" stroke="#000" stroke-width="1"/>
  <path d="M768.092362 63.276242 L790.025194 81.371861 L785.190703 83.926829 L806.046458 97.643861 L798.311272 101.731811 L827.869111 110.849899 L806.597351 122.091762 L814.773251 137.562132 L803.170473 143.694057 L794.994573 128.223687 L773.722814 139.465549 L782.840902 109.907711 L775.105717 113.995661 L775.521722 89.036767 L770.687231 91.591735 Z" fill="#888" fill-opacity="0.18" stroke="#000" stroke-width="1"/>
  <path d="M345.998065 56.284480 L355.961968 82.915686 L350.497559 82.714662 L361.715162 105.014547 L352.972110 104.692909 L374.025647 127.354636 L349.982252 126.470132 L349.338976 143.956237 L336.224396 143.473781 L336.867672 125.987675 L312.824277 125.103170 L335.486004 104.049633 L326.742951 103.727995 L339.568743 82.312615 L334.104335 82.111591 Z" fill="#888" fill-opacity="0.18" stroke="#000" stroke-width="1"/>
  <path d="M772.163502 241.554231 L758.035923 216.878089 L763.461243 216.195393 L748.794757 195.996045 L757.475268 194.903732 L733.043207 175.933237 L756.914613 172.929375 L754.729987 155.568353 L767.750754 153.929883 L769.935380 171.290906 L793.806786 168.287045 L774.836291 192.719106 L783.516802 191.626793 L774.311882 214.830002 L779.737202 214.147306 Z" fill="#888" fill-opacity="0.18" stroke="#000" stroke-width="1"/>
  <path d="M820.685910 773.733571 L800.790511 794.047939 L798.655963 789.013670 L783.214889 808.627254 L779.799612 800.572422 L768.200724 829.247692 L758.808714 807.096905 L742.699051 813.927458 L737.576136 801.845210 L753.685800 795.014658 L744.293790 772.863870 L772.969060 784.462759 L769.553784 776.407927 L794.386868 778.945130 L792.252320 773.910860 Z" fill="#888" fill-opacity="0.18" stroke="#000" stroke-width="1"/>
  <path d="M631.895172 167.230112 L613.294024 188.735874 L610.852258 183.843232 L596.653577 204.374109 L592.746751 196.545883 L582.943249 225.883515 L572.199477 204.355891 L556.543023 212.169544 L550.682784 200.427203 L566.339238 192.613551 L555.595466 171.085927 L584.933098 180.889429 L581.026272 173.061202 L605.968725 174.057949 L603.526959 169.165307 Z" fill="#888" fill-opacity="0.18" stroke="#000" stroke-width="1"/>
  <path d="M861.736693 608.934553 L841.794787 588.665837 L846.867777 586.625019 L827.543926 570.822858 L835.660710 567.557549 L807.205478 555.428861 L829.526634 546.449262 L822.996017 530.215694 L835.171193 525.317731 L841.701810 541.551299 L864.022967 532.571699 L851.894279 561.026932 L860.011063 557.761623 L857.013757 582.543383 L862.086747 580.502565 Z" fill="#888" fill-opacity="0.18" stroke="#000" stroke-width="1"/>
  <path d="M702.564458 643.058497 L678.802078 627.442807 L683.331666 624.379640 L661.113902 613.000255 L668.361243 608.099187 L637.990220 602.233503 L657.920409 588.755566 L648.118273 574.260883 L658.989285 566.909281 L668.791421 581.403964 L688.721610 567.926027 L682.855926 598.297051 L690.103268 593.395983 L692.390843 618.253305 L696.920432 615.190138 Z" fill="#888" fill-opacity="0.18" stroke="#000" stroke-width="1"/>
  <path d="M775.008457 390.332268 L800.678249 402.561834 L796.608667 406.214048 L820.170604 414.457505 L813.659273 420.301048 L844.546457 421.970520 L826.640296 438.040262 L838.327381 451.062925 L828.560384 459.828239 L816.873299 446.805576 L798.967138 462.875318 L800.636610 431.988133 L794.125279 437.831675 L788.469503 413.518476 L784.399921 417.170690 Z" fill="#888" fill-opacity="0.18" stroke="#000" stroke-width="1"/>
  <path d="M856.332018 533.777975 L844.730352 507.818356 L850.196679 507.678978 L837.613249 486.120297 L846.359374 485.897293 L823.936553 464.589491 L847.988396 463.976231 L847.542389 446.483982 L860.661576 446.149476 L861.107583 463.641726 L885.159425 463.028466 L863.851623 485.451286 L872.597747 485.228283 L861.129335 507.400224 L866.595663 507.260847 Z" fill="#888" fill-opacity="0.18" stroke="#000" stroke-width="1"/>
  <path d="M523.379432 341.685409 L543.825313 361.445634 L538.805311 363.613525 L558.520879 378.924170 L550.488877 382.392796 L579.240447 393.801237 L557.152440 403.339958 L564.089692 419.403962 L552.041689 424.606901 L545.104437 408.542897 L523.016431 418.081618 L534.424872 389.330047 L526.392870 392.798673 L528.765308 367.949307 L523.745307 370.117198 Z" fill="#888" fill-opacity="0.18" stroke="#000" stroke-width="1"/>
  <path d="M269.260397 666.951968 L260.227763 693.913275 L256.109827 690.315669 L250.778865 714.702147 L244.190167 708.945978 L246.271491 739.808146 L228.152570 723.978682 L216.640233 737.156079 L206.757185 728.521825 L218.269523 715.344429 L200.150602 699.514965 L231.012770 697.433641 L224.424072 691.677472 L247.873954 683.120458 L243.756018 679.522853 Z" fill="#888" fill-opacity="0.18" stroke="#000" stroke-width="1"/>
  <path d="M522.405245 768.279283 L516.431269 740.479785 L521.807954 741.475492 L513.962076 717.778199 L522.564771 719.371330 L505.040861 693.881766 L528.698272 698.262876 L531.884534 681.057486 L544.788576 683.447183 L541.602314 700.652573 L565.259725 705.033683 L539.770160 722.557593 L548.372855 724.150724 L532.561322 743.466906 L537.938006 744.462612 Z" fill="#888" fill-opacity="0.18" stroke="#000" stroke-width="1"/>
  <path d="M61.160999 666.527158 L89.561568 667.908525 L87.215721 672.847874 L112.133980 671.364694 L108.380625 679.267652 L137.521409 668.893644 L127.199682 690.626780 L143.005599 698.133490 L137.375566 709.987927 L121.569650 702.481217 L111.247923 724.214353 L100.873915 695.073569 L97.120560 702.976527 L82.524027 682.726572 L80.178180 687.665921 Z" fill="#888" fill-opacity="0.18" stroke="#000" stroke-width="1"/>
  <path d="M158.809191 971.041468 L179.435841 990.612922 L174.435978 992.826865 L194.291447 1007.955640 L186.291667 1011.497948 L215.146887 1022.641627 L193.147493 1032.382975 L200.232110 1048.382534 L188.232440 1053.695997 L181.147823 1037.696438 L159.148429 1047.437786 L170.292107 1018.582565 L162.292328 1022.124874 L164.436254 997.254750 L159.436391 999.468693 Z" fill="#888" fill-opacity="0.18" stroke="#000" stroke-width="1"/>
  <path d="M941.328961 1033.876956 L958.050258 1010.879157 L960.895925 1015.548456 L973.312650 993.893331 L977.865717 1001.364208 L985.160241 971.304347 L997.681176 991.849259 L1012.622930 982.743124 L1019.452531 993.949439 L1004.510778 1003.055574 L1017.031713 1023.600486 L986.971852 1016.305962 L991.524919 1023.776839 L966.587259 1024.887052 L969.432926 1029.556350 Z" fill="#888" fill-opacity="0.18" stroke="#000" stroke-width="1"/>
  <path d="M265.542036 154.737156 L257.800765 182.097222 L253.516527 178.699359 L249.350394 203.311608 L242.495615 197.875026 L246.041109 228.603429 L227.190465 213.652829 L216.317301 227.362388 L206.035132 219.207515 L216.908296 205.497956 L198.057652 190.547356 L228.786056 187.001862 L221.931276 181.565280 L244.948053 171.903631 L240.663816 168.505767 Z" fill="#888" fill-opacity="0.18" stroke="#000" stroke-width="1"/>
  <path d="M594.092204 141.868458 L566.117711 146.960435 L567.282929 141.617923 L543.349402 148.710578 L545.213750 140.162559 L519.182831 156.871734 L524.309790 133.364682 L507.213752 129.635985 L510.010275 116.813956 L527.106313 120.542654 L532.233272 97.035601 L548.942448 123.066521 L550.806797 114.518502 L569.613365 130.932900 L570.778583 125.590388 Z" fill="#888" fill-opacity="0.18" stroke="#000" stroke-width="1"/>
  <path d="M776.332014 929.645267 L748.157068 925.814740 L750.920989 921.096594 L725.967777 920.420833 L730.390050 912.871798 L700.461780 920.688701 L712.623032 899.928856 L697.524963 891.084309 L704.158373 879.760757 L719.256442 888.605304 L731.417694 867.845459 L739.234597 897.773729 L743.656870 890.224694 L756.448831 911.660301 L759.212752 906.942154 Z" fill="#888" fill-opacity="0.18" stroke="#000" stroke-width="1"/>
  <path d="M678.900856 168.503808 L705.733853 177.910759 L702.079291 181.978233 L726.389222 187.648040 L720.541923 194.155997 L751.430066 192.504352 L735.349992 210.401236 L748.365908 222.095835 L739.594959 231.857771 L726.579043 220.163172 L710.498970 238.060056 L708.847324 207.171913 L703.000024 213.679871 L694.770167 190.113180 L691.115605 194.180654 Z" fill="#888" fill-opacity="0.18" stroke="#000" stroke-width="1"/>
  <path d="M420.547226 225.847206 L397.758690 208.841820 L402.462940 206.054313 L380.963561 193.369829 L388.490361 188.909817 L358.523331 181.242846 L379.222032 168.977814 L370.302008 153.924213 L381.592208 147.234196 L390.512232 162.287796 L411.210932 150.022764 L403.543961 179.989793 L411.070761 175.529782 L411.871441 200.479298 L416.575691 197.691791 Z" fill="#888" fill-opacity="0.18" stroke="#000" stroke-width="1"/>
  <path d="M224.109196 650.068319 L212.559622 676.051156 L208.801542 672.079128 L201.181206 695.849908 L195.168279 689.494663 L194.312486 720.415092 L177.776936 702.938170 L165.066447 714.964024 L156.047056 705.431158 L168.757545 693.405303 L152.221995 675.928381 L183.142424 676.784174 L177.129497 670.428930 L201.285383 664.135073 L197.527304 660.163045 Z" fill="#888" fill-opacity="0.18" stroke="#000" stroke-width="1"/>
  <path d="M613.966199 503.323858 L588.105174 491.504048 L592.116163 487.787580 L568.426115 479.919855 L574.843697 473.973506 L543.933869 472.795424 L561.582220 456.442964 L549.689521 443.607800 L559.315894 434.688277 L571.208592 447.523441 L588.856943 431.170981 L587.678861 462.080808 L594.096443 456.134459 L600.138140 480.354644 L604.149129 476.638176 Z" fill="#888" fill-opacity="0.18" stroke="#000" stroke-width="1"/>
  <path d="M1048.888067 558.694967 L1025.868880 542.003128 L1030.534531 539.151485 L1008.863527 526.762494 L1016.328569 522.199866 L986.259394 514.943832 L1006.788259 502.396605 L997.663002 487.466521 L1008.860565 480.622579 L1017.985822 495.552662 L1038.514686 483.005434 L1031.258653 513.074609 L1038.723695 508.511981 L1039.865833 533.448199 L1044.531484 530.596557 Z" fill="#888" fill-opacity="0.18" stroke="#000" stroke-width="1"/>
  <path d="M455.320359 57.640574 L474.539825 78.595589 L469.398441 80.457401 L488.156734 96.926947 L479.930521 99.905846 L507.943303 113.024130 L485.321217 121.216104 L491.279016 137.668530 L478.939696 142.136880 L472.981897 125.684454 L450.359811 133.876428 L463.478094 105.863646 L455.251881 108.842545 L459.115675 84.181026 L453.974292 86.042838 Z" fill="#888" fill-opacity="0.18" stroke="#000" stroke-width="1"/>
  <path d="M283.643409 808.373970 L288.621100 836.369024 L283.283391 835.181998 L290.278244 859.144291 L281.737910 857.245049 L298.340639 883.343990 L274.854721 878.121073 L271.056236 895.201741 L258.245735 892.352877 L262.044220 875.272210 L238.558302 870.049293 L264.657242 853.446564 L256.116908 851.547322 L272.607973 832.807945 L267.270265 831.620919 Z" fill="#888" fill-opacity="0.18" stroke="#000" stroke-width="1"/>
  <path d="M836.411983 826.019003 L836.721048 797.586539 L841.745371 799.744396 L839.323287 774.899820 L847.362204 778.352390 L835.896339 749.623672 L858.003360 759.118241 L864.908501 743.040408 L876.966876 748.219263 L870.061735 764.297097 L892.168756 773.791666 L863.440037 785.257531 L871.478954 788.710102 L851.794017 804.060109 L856.818340 806.217966 Z" fill="#888" fill-opacity="0.18" stroke="#000" stroke-width="1"/>
  <path d="M841.800434 157.164103 L866.609774 143.271761 L867.240859 148.703326 L887.578730 134.229540 L888.588467 142.920044 L907.790384 118.669441 L910.567161 142.568327 L927.948169 140.548852 L929.462775 153.584608 L912.081767 155.604083 L914.858545 179.502968 L890.607942 160.301052 L891.617679 168.991556 L868.503031 159.566456 L869.134117 164.998021 Z" fill="#888" fill-opacity="0.18" stroke="#000" stroke-width="1"/>
  <path d="M798.162993 839.131548 L813.968936 862.767805 L808.604072 863.825350 L824.636952 882.958207 L816.053170 884.650279 L841.742805 901.879555 L818.137404 906.532752 L821.521548 923.700317 L808.645874 926.238425 L805.261731 909.070860 L781.656329 913.724058 L798.885606 888.034422 L790.301823 889.726494 L797.874344 865.940440 L792.509481 866.997984 Z" fill="#888" fill-opacity="0.18" stroke="#000" stroke-width="1"/>
  <path d="M433.655168 666.763219 L438.029873 638.667624 L442.693684 641.522276 L443.851905 616.586799 L451.314003 621.154241 L444.077365 591.080392 L464.598133 603.640858 L473.733017 588.716664 L484.926163 595.567827 L475.791279 610.492022 L496.312046 623.052488 L466.238198 630.289126 L473.700295 634.856568 L452.021306 647.231578 L456.685116 650.086230 Z" fill="#888" fill-opacity="0.18" stroke="#000" stroke-width="1"/>
  <path d="M154.918735 158.284245 L176.964300 176.242351 L172.145881 178.827503 L193.087008 192.413844 L185.377538 196.550086 L214.991819 205.483155 L193.790777 216.857822 L202.063261 232.276761 L190.499057 238.481125 L182.226572 223.062185 L161.025530 234.436852 L169.958599 204.822571 L162.249129 208.958814 L162.509044 183.997806 L157.690625 186.582957 Z" fill="#888" fill-opacity="0.18" stroke="#000" stroke-width="1"/>
  <path d="M866.698306 293.513690 L849.608092 316.238678 L846.838140 311.524070 L834.073603 332.976018 L829.641679 325.432645 L821.863057 355.370888 L809.675265 334.626612 L794.588520 343.490460 L787.940634 332.175401 L803.027379 323.311553 L790.839588 302.567277 L820.777831 310.345899 L816.345907 302.802526 L841.298234 302.094854 L838.528282 297.380246 Z" fill="#888" fill-opacity="0.18" stroke="#000" stroke-width="1"/>
  <path d="M128.854405 94.518403 L104.257072 108.782753 L103.544268 103.361307 L83.426652 118.139704 L82.286166 109.465390 L63.451598 134.002390 L60.315260 110.148028 L42.966633 112.429000 L41.255904 99.417530 L58.604531 97.136557 L55.468194 73.282195 L80.005194 92.116763 L78.864707 83.442450 L102.118660 92.518415 L101.405856 87.096969 Z" fill="#888" fill-opacity="0.18" stroke="#000" stroke-width="1"/>
  <path d="M824.020653 405.501202 L851.148022 396.980268 L850.654152 402.426024 L873.523691 392.420842 L872.733498 401.134051 L896.492003 381.326508 L894.318974 405.287835 L911.745393 406.868220 L910.560105 419.938034 L893.133685 418.357649 L890.960656 442.318975 L871.153113 418.560470 L870.362921 427.273680 L849.666411 413.317536 L849.172541 418.763292 Z" fill="#888" fill-opacity="0.18" stroke="#000" stroke-width="1"/>
  <path d="M651.517372 158.711566 L654.689806 186.968179 L649.439192 185.441347 L654.883214 209.802835 L646.482232 207.359903 L661.377360 234.469689 L638.274657 227.751627 L633.388794 244.553593 L620.787320 240.889196 L625.673183 224.087230 L602.570480 217.369169 L629.680266 202.474040 L621.279283 200.031109 L638.937963 182.387683 L633.687349 180.860850 Z" fill="#888" fill-opacity="0.18" stroke="#000" stroke-width="1"/>
  <path d="M453.265980 44.871706 L481.511166 48.144317 L478.841088 52.916198 L503.802784 53.098370 L499.530660 60.733380 L529.298496 52.326165 L517.550154 73.322443 L532.820175 81.866692 L526.411988 93.319207 L511.141968 84.774958 L499.393626 105.771236 L490.986411 76.003400 L486.714287 83.638410 L473.500933 62.459961 L470.830855 67.231842 Z" fill="#888" fill-opacity="0.18" stroke="#000" stroke-width="1"/>
  <path d="M791.414118 684.390297 L818.145594 694.081978 L814.447997 698.110370 L838.696279 704.038295 L832.780124 710.483723 L863.684080 709.160542 L847.414654 726.885467 L860.305508 738.717777 L851.431276 748.385918 L838.540421 736.553608 L822.270994 754.278534 L820.947814 723.374577 L815.031659 729.820005 L807.052803 706.167154 L803.355206 710.195547 Z" fill="#888" fill-opacity="0.18" stroke="#000" stroke-width="1"/>
  <path d="M265.184738 114.546172 L273.747346 87.431928 L277.927197 90.957409 L282.833450 66.481949 L289.521211 72.122719 L286.903734 41.301393 L305.295076 56.813510 L316.576615 43.437989 L326.608256 51.899144 L315.326716 65.274665 L333.718058 80.786782 L302.896732 83.404259 L309.584493 89.045028 L286.286898 98.008372 L290.466748 101.533853 Z" fill="#888" fill-opacity="0.18" stroke="#000" stroke-width="1"/>
  <path d="M805.372045 145.387627 L832.531230 153.806604 L829.027922 158.005056 L853.529007 162.781696 L847.923713 169.499218 L878.730754 166.718646 L863.316197 185.191833 L876.751242 196.402420 L868.343302 206.478704 L854.908256 195.268117 L839.493699 213.741304 L836.713126 182.934264 L831.107833 189.651786 L822.021305 166.401959 L818.517997 170.600411 Z" fill="#888" fill-opacity="0.18" stroke="#000" stroke-width="1"/>
  <path d="M465.082159 1048.752824 L436.789852 1051.589348 L438.378953 1046.357242 L413.954510 1051.511468 L416.497072 1043.140100 L389.212247 1057.712115 L396.204293 1034.690853 L379.461557 1029.605729 L383.275400 1017.048676 L400.018136 1022.133801 L407.010182 999.112539 L421.582197 1026.397364 L424.124759 1018.025996 L441.557156 1035.893032 L443.146257 1030.660927 Z" fill="#888" fill-opacity="0.18" stroke="#000" stroke-width="1"/>
  <path d="M352.649245 1009.181301 L369.216138 986.072027 L372.093014 990.722161 L384.364425 968.984361 L388.967426 976.424576 L396.060460 946.316534 L408.718714 966.777126 L423.599145 957.571122 L430.503647 968.731445 L415.623217 977.937448 L428.281472 998.398040 L398.173430 991.305006 L402.776432 998.745221 L377.846767 1000.022430 L380.723643 1004.672565 Z" fill="#888" fill-opacity="0.18" stroke="#000" stroke-width="1"/>
  <path d="M192.132559 568.814857 L167.111641 555.307297 L171.360092 551.864794 L148.243487 542.444496 L155.041009 536.936491 L124.277191 533.712699 L142.970376 518.565685 L131.954366 504.970641 L142.150649 496.708633 L153.166659 510.303677 L171.859845 495.156663 L168.636053 525.920481 L175.433575 520.412476 L179.856995 544.979788 L184.105446 541.537284 Z" fill="#888" fill-opacity="0.18" stroke="#000" stroke-width="1"/>
  <path d="M964.813414 726.067716 L937.375984 718.605281 L940.730072 714.286687 L916.076700 710.371242 L921.443241 703.461491 L890.752510 707.319516 L905.510499 688.317700 L891.690996 677.584618 L899.740808 667.219991 L913.560310 677.953073 L928.318299 658.951257 L932.176324 689.641988 L937.542865 682.732237 L947.438249 705.649498 L950.792337 701.330904 Z" fill="#888" fill-opacity="0.18" stroke="#000" stroke-width="1"/>
  <path d="M574.901719 880.485962 L586.935289 854.723709 L590.618413 858.765338 L598.682056 835.141259 L604.575054 841.607865 L606.009073 810.708853 L622.214819 828.492020 L635.148031 816.706023 L643.987529 826.405933 L631.054317 838.191929 L647.260062 855.975096 L616.361051 854.541077 L622.254049 861.007683 L597.984661 866.848596 L601.667785 870.890225 Z" fill="#888" fill-opacity="0.18" stroke="#000" stroke-width="1"/>
  <path d="M92.832513 616.228069 L98.827756 588.433150 L103.318331 591.553231 L105.919394 566.726755 L113.104313 571.718886 L107.622343 541.276262 L127.380869 555.004622 L137.365130 540.634784 L148.142509 548.122980 L138.158247 562.492818 L157.916774 576.221177 L127.474150 581.703147 L134.659069 586.695278 L112.299479 597.793395 L116.790053 600.913476 Z" fill="#888" fill-opacity="0.18" stroke="#000" stroke-width="1"/>
  <path d="M612.444159 405.278434 L598.165255 380.689546 L603.586279 379.973534 L588.795980 359.864667 L597.469618 358.719048 L572.921477 339.899002 L596.773980 336.748550 L594.482742 319.401276 L607.493198 317.682847 L609.784435 335.030122 L633.636938 331.879670 L614.816892 356.427810 L623.490529 355.282191 L614.428325 378.541510 L619.849349 377.825499 Z" fill="#888" fill-opacity="0.18" stroke="#000" stroke-width="1"/>
  <path d="M1025.238535 364.859133 L1004.204292 383.991856 L1002.363738 378.842825 L985.816831 397.532911 L982.871944 389.294461 L969.638034 417.252804 L961.539596 394.597065 L945.062695 400.486838 L940.645365 388.129162 L957.122266 382.239389 L949.023827 359.583650 L976.982171 372.817559 L974.037284 364.579109 L998.682629 368.544762 L996.842075 363.395730 Z" fill="#888" fill-opacity="0.18" stroke="#000" stroke-width="1"/>
  <path d="M41.249707 503.797884 L68.448022 495.506192 L67.908210 500.947586 L90.861372 491.135766 L89.997673 499.841996 L113.922496 480.235667 L111.547325 504.177801 L128.959786 505.905198 L127.664238 518.964544 L110.251777 517.237147 L107.876605 541.179281 L88.270276 517.254457 L87.406577 525.960688 L66.828587 511.830374 L66.288775 517.271768 Z" fill="#888" fill-opacity="0.18" stroke="#000" stroke-width="1"/>
  <path d="M258.048681 460.107563 L232.393232 447.847936 L236.467090 444.200491 L212.914825 435.929439 L219.432997 430.093528 L188.547789 428.387876 L206.472763 412.339120 L194.800940 399.302776 L204.578198 390.548909 L216.250021 403.585253 L234.174994 387.536498 L232.469341 418.421705 L238.987513 412.585794 L244.614805 436.905602 L248.688662 433.258158 Z" fill="#888" fill-opacity="0.18" stroke="#000" stroke-width="1"/>
  <path d="M515.954091 935.010784 L507.314089 907.921102 L512.761961 908.391048 L502.656428 885.565675 L511.373024 886.317590 L491.461319 862.646313 L515.431959 864.714078 L516.935788 847.280885 L530.010682 848.408757 L528.506853 865.841949 L552.477493 867.909714 L528.806216 887.821419 L537.522813 888.573333 L523.657707 909.330941 L529.105579 909.800888 Z" fill="#888" fill-opacity="0.18" stroke="#000" stroke-width="1"/>
  <path d="M312.503132 1007.277678 L290.018443 1024.682828 L288.591840 1019.404100 L270.615453 1036.723713 L268.332889 1028.277748 L252.924388 1055.099071 L246.647335 1031.872667 L229.755405 1036.437796 L226.331559 1023.768849 L243.223489 1019.203720 L236.946436 995.977316 L263.767760 1011.385818 L261.485196 1002.939852 L285.738634 1008.846643 L284.312032 1003.567915 Z" fill="#888" fill-opacity="0.18" stroke="#000" stroke-width="1"/>
  <path d="M414.312246 656.980522 L387.019881 664.957193 L387.622570 659.522404 L364.557497 669.068183 L365.521800 660.372521 L341.371887 679.700921 L344.023719 655.787849 L326.632394 653.859244 L328.078848 640.815750 L345.470173 642.744355 L348.122005 618.831284 L367.450405 642.981196 L368.414707 634.285533 L388.827948 648.652826 L389.430637 643.218036 Z" fill="#888" fill-opacity="0.18" stroke="#000" stroke-width="1"/>
  <path d="M416.435205 751.437958 L398.152947 729.660457 L403.371013 728.025848 L385.352829 710.749723 L393.701736 708.134348 L366.291032 693.800519 L389.250525 686.608238 L384.019775 669.910425 L396.543134 665.987362 L401.773885 682.685175 L424.733377 675.492894 L410.399549 702.903597 L418.748455 700.288222 L413.807146 724.756629 L419.025213 723.122020 Z" fill="#888" fill-opacity="0.18" stroke="#000" stroke-width="1"/>
  <path d="M785.870014 386.230422 L806.390390 366.547570 L808.366608 371.646073 L824.412939 352.524495 L827.574888 360.682099 L840.064026 332.383217 L848.759385 354.816628 L865.074593 348.492730 L869.817517 360.729136 L853.502308 367.053034 L862.197668 389.486445 L833.898785 376.997307 L837.060734 385.154911 L812.319044 381.843078 L814.295262 386.941581 Z" fill="#888" fill-opacity="0.18" stroke="#000" stroke-width="1"/>
  <path d="M144.493317 744.948687 L116.698436 750.944113 L117.689994 745.566662 L93.998763 753.430824 L95.585255 744.826902 L70.109221 762.370476 L74.472074 738.709691 L57.264231 735.536707 L59.643969 722.630824 L76.851812 725.803809 L81.214666 702.143024 L98.758240 727.619059 L100.344732 719.015137 L119.673109 734.811760 L120.664667 729.434309 Z" fill="#888" fill-opacity="0.18" stroke="#000" stroke-width="1"/>
  <path d="M118.506196 271.298731 L146.448751 266.034308 L145.316507 271.383905 L169.205832 264.143768 L167.394242 272.703124 L193.321607 255.833711 L188.339733 279.371939 L205.458443 282.995120 L202.741058 295.834153 L185.622347 292.210972 L180.640473 315.749199 L163.771061 289.821834 L161.959470 298.381190 L143.052018 282.083100 L141.919774 287.432697 Z" fill="#888" fill-opacity="0.18" stroke="#000" stroke-width="1"/>
  <path d="M357.526384 462.753705 L375.070614 440.377367 L377.745095 445.146782 L390.938896 423.956146 L395.218066 431.587210 L403.597802 401.811627 L415.365518 422.797052 L430.627645 414.238714 L437.046399 425.685310 L421.784272 434.243648 L433.551987 455.229074 L403.776404 446.849338 L408.055574 454.480401 L383.094056 454.685612 L385.768537 459.455027 Z" fill="#888" fill-opacity="0.18" stroke="#000" stroke-width="1"/>
  <path d="M362.769435 914.129933 L388.235372 901.481355 L388.597107 906.937481 L409.625796 893.487065 L410.204571 902.216868 L430.582139 878.945424 L432.173770 902.952380 L449.633375 901.794830 L450.501537 914.889533 L433.041933 916.047083 L434.633565 940.054039 L411.362122 919.676472 L411.940897 928.406274 L389.320576 917.849734 L389.682310 923.305860 Z" fill="#888" fill-opacity="0.18" stroke="#000" stroke-width="1"/>
  <path d="M242.664407 635.523193 L238.283899 607.428502 L243.595125 608.728907 L237.112048 584.623116 L245.610008 586.703763 L229.566726 560.257243 L252.936117 565.979024 L257.097412 548.983103 L269.844352 552.104074 L265.683058 569.099995 L289.052449 574.821776 L262.605929 590.865058 L271.103889 592.945706 L254.217575 611.329716 L259.528800 612.630121 Z" fill="#888" fill-opacity="0.18" stroke="#000" stroke-width="1"/>
  <path d="M734.966448 98.373152 L706.624440 100.660317 L708.314737 95.460022 L683.794906 100.139483 L686.499381 91.819012 L658.937016 105.859004 L666.374322 82.977708 L649.733379 77.568758 L653.790091 65.088051 L670.431034 70.497001 L677.868339 47.615705 L691.908330 75.178070 L694.612805 66.857598 L711.695331 85.059433 L713.385627 79.859139 Z" fill="#888" fill-opacity="0.18" stroke="#000" stroke-width="1"/>
  <path d="M946.106631 679.402348 L973.731560 686.137611 L970.492687 690.543275 L995.240861 693.806307 L990.058664 700.855368 L1020.636809 696.188206 L1006.385768 715.573125 L1020.483890 725.937518 L1012.710596 736.511110 L998.612473 726.146717 L984.361433 745.531635 L979.694271 714.953491 L974.512074 722.002552 L964.014942 699.354601 L960.776069 703.760264 Z" fill="#888" fill-opacity="0.18" stroke="#000" stroke-width="1"/>
  <path d="M878.532218 807.154214 L899.842260 825.979267 L894.924349 828.369729 L915.305603 842.782359 L907.436944 846.607099 L936.670441 856.716897 L915.031629 867.234931 L922.681108 882.972249 L910.878119 888.709358 L903.228640 872.972040 L881.589828 883.490074 L891.699627 854.256578 L883.830968 858.081317 L885.088525 833.150653 L880.170613 835.541115 Z" fill="#888" fill-opacity="0.18" stroke="#000" stroke-width="1"/>
  <path d="M703.784781 1037.564253 L675.389215 1039.044900 L677.226642 1033.894752 L652.583709 1037.875370 L655.523592 1029.635132 L627.573290 1042.886017 L635.657970 1020.225364 L619.177495 1014.345598 L623.587320 1001.985242 L640.067795 1007.865008 L648.152474 985.204356 L661.403359 1013.154658 L664.343242 1004.914420 L680.901496 1023.594455 L682.738923 1018.444307 Z" fill="#888" fill-opacity="0.18" stroke="#000" stroke-width="1"/>
  <path d="M574.069585 124.067852 L601.743414 117.536412 L600.855960 122.932021 L624.390793 114.611497 L622.970867 123.244471 L648.103116 105.211851 L644.198320 128.952529 L661.464267 131.792380 L659.334379 144.741841 L642.068431 141.901989 L638.163635 165.642667 L620.131015 140.510418 L618.711089 149.143392 L599.081053 133.723238 L598.193599 139.118847 Z" fill="#888" fill-opacity="0.18" stroke="#000" stroke-width="1"/>
  <path d="M402.866662 494.143581 L386.570873 517.444820 L383.639868 512.828612 L371.623246 534.708289 L366.933639 527.322356 L360.192826 557.511208 L347.296405 537.199892 L332.524539 546.579108 L325.490127 535.500208 L340.261993 526.120993 L327.365572 505.809677 L357.554423 512.550490 L352.864816 505.164557 L377.777858 503.596196 L374.846854 498.979988 Z" fill="#888" fill-opacity="0.18" stroke="#000" stroke-width="1"/>
  <path d="M689.624562 948.417979 L667.756937 930.243616 L672.600583 927.706047 L651.794285 913.914114 L659.544118 909.854004 L630.019257 900.629696 L651.331300 889.464391 L643.211078 873.964723 L654.835829 867.874557 L662.956051 883.374225 L684.268094 872.208920 L675.043786 901.733782 L682.793620 897.673671 L682.287876 922.630908 L687.131522 920.093339 Z" fill="#888" fill-opacity="0.18" stroke="#000" stroke-width="1"/>
  <path d="M629.625029 472.373361 L651.610274 454.341459 L653.185076 459.577886 L670.666219 441.758539 L673.185902 450.136822 L687.832401 422.891907 L694.761530 445.932185 L711.518095 440.892819 L715.297620 453.460243 L698.541054 458.499609 L705.470182 481.539887 L678.225268 466.893388 L680.744951 475.271670 L656.334680 470.050739 L657.909482 475.287166 Z" fill="#888" fill-opacity="0.18" stroke="#000" stroke-width="1"/>
  <path d="M554.688451 953.518831 L579.852656 966.757534 L575.641333 970.245359 L598.857543 979.417439 L592.119425 984.997958 L622.916018 987.891954 L604.386194 1003.238382 L615.547233 1016.714617 L605.440057 1025.085396 L594.279018 1011.609161 L575.749194 1026.955590 L578.643190 996.158997 L571.905072 1001.739516 L567.218686 977.221008 L563.007362 980.708833 Z" fill="#888" fill-opacity="0.18" stroke="#000" stroke-width="1"/>
  <path d="M397.730761 64.089585 L409.505735 89.971056 L404.040461 90.146978 L416.767752 111.621044 L408.023314 111.902520 L430.588097 133.059926 L406.540893 133.833984 L407.103843 151.322860 L393.987186 151.745073 L393.424235 134.256197 L369.377031 135.030254 L390.534438 112.465470 L381.790000 112.746945 L393.109914 90.498822 L387.644640 90.674744 Z" fill="#888" fill-opacity="0.18" stroke="#000" stroke-width="1"/>
  <path d="M713.039665 325.720848 L686.717737 336.475224 L686.755564 331.007251 L664.800450 342.885484 L664.860973 334.136726 L642.837770 355.857312 L643.004210 331.798228 L625.506694 331.677181 L625.597480 318.554044 L643.094995 318.675091 L643.261435 294.616007 L664.982020 316.639211 L665.042544 307.890453 L686.831219 320.071304 L686.869046 314.603330 Z" fill="#888" fill-opacity="0.18" stroke="#000" stroke-width="1"/>
  <path d="M357.473078 828.939986 L377.046766 808.315457 L379.260167 813.315559 L394.391094 793.461730 L397.932535 801.461894 L409.079340 772.607881 L418.818305 794.608331 L434.818632 787.525447 L440.130794 799.525693 L424.130467 806.608576 L433.869432 828.609026 L405.015419 817.462221 L408.556860 825.462384 L383.686969 823.315764 L385.900370 828.315866 Z" fill="#888" fill-opacity="0.18" stroke="#000" stroke-width="1"/>
  <path d="M975.158819 174.915034 L976.819705 203.300628 L971.657996 201.495934 L975.794980 226.113099 L967.536245 223.225588 L980.964306 251.091203 L958.252784 243.150548 L952.477763 259.668019 L940.089660 255.336753 L945.864681 238.819282 L923.153160 230.878628 L951.018774 217.450567 L942.760039 214.563056 L961.334577 197.886545 L956.172867 196.081851 Z" fill="#888" fill-opacity="0.18" stroke="#000" stroke-width="1"/>
  <path d="M449.015987 307.233974 L420.651281 305.248035 L423.101796 300.359769 L398.157599 301.311896 L402.078423 293.490670 L372.723300 303.241675 L383.505565 281.733305 L367.863114 273.891658 L373.744349 262.159820 L389.386800 270.001467 L400.169065 248.493097 L409.920070 277.848219 L413.840893 270.026994 L428.002825 290.583237 L430.453340 285.694971 Z" fill="#888" fill-opacity="0.18" stroke="#000" stroke-width="1"/>
  <path d="M913.848609 324.412611 L898.448166 300.510167 L903.830289 299.544292 L888.126121 280.140722 L896.737518 278.595323 L871.345528 260.930325 L895.026871 256.680479 L891.936074 239.457684 L904.853170 237.139586 L907.943968 254.362381 L931.625311 250.112535 L913.960314 275.504526 L922.571711 273.959127 L914.594536 297.612544 L919.976660 296.646670 Z" fill="#888" fill-opacity="0.18" stroke="#000" stroke-width="1"/>
  <path d="M658.088994 384.238373 L649.057904 411.200196 L644.939761 407.602827 L639.610195 431.989610 L633.021168 426.233818 L635.104258 457.095867 L616.984432 441.267440 L605.472848 454.445495 L595.589306 445.811808 L607.100890 432.633752 L588.981063 416.805325 L619.843112 414.722235 L613.254084 408.966443 L636.703477 400.408087 L632.585334 396.810717 Z" fill="#888" fill-opacity="0.18" stroke="#000" stroke-width="1"/>
  <path d="M703.877503 440.356719 L688.369334 416.524028 L693.747043 415.533871 L677.955456 396.201379 L686.559791 394.617129 L661.088328 377.066918 L684.750249 372.710229 L681.581748 355.501560 L694.488250 353.125184 L697.656751 370.333853 L721.318671 365.977165 L703.768461 391.448628 L712.372795 389.864377 L704.502461 413.553558 L709.880170 412.563402 Z" fill="#888" fill-opacity="0.18" stroke="#000" stroke-width="1"/>
  <path d="M797.179419 1035.401562 L769.916927 1043.479743 L770.499386 1038.042749 L747.469998 1047.674297 L748.401933 1038.975106 L724.324117 1058.393244 L726.886940 1034.470469 L709.488558 1032.606598 L710.886462 1019.557812 L728.284844 1021.421683 L730.847667 997.498908 L750.265805 1021.576725 L751.197741 1012.877534 L771.664306 1027.168760 L772.246766 1021.731766 Z" fill="#888" fill-opacity="0.18" stroke="#000" stroke-width="1"/>
  <path d="M464.974283 556.772050 L444.149274 576.132306 L442.252854 571.003587 L425.910104 589.872450 L422.875831 581.666500 L409.946638 609.767057 L401.602388 587.200694 L385.190488 593.269240 L380.639079 580.960315 L397.050979 574.891769 L388.706729 552.325407 L416.807285 565.254600 L413.773013 557.048650 L438.460013 560.746150 L436.563592 555.617431 Z" fill="#888" fill-opacity="0.18" stroke="#000" stroke-width="1"/>
  <path d="M363.542163 325.662439 L390.348561 335.144923 L386.682558 339.202089 L410.976425 344.940337 L405.110820 351.431801 L436.003493 349.867153 L419.873080 367.718679 L432.856008 379.449889 L424.057601 389.187085 L411.074672 377.455875 L394.944259 395.307402 L393.379611 364.414730 L387.514006 370.906194 L379.350552 347.316419 L375.684549 351.373584 Z" fill="#888" fill-opacity="0.18" stroke="#000" stroke-width="1"/>
  <path d="M428.196797 951.408280 L442.495256 926.830758 L445.800551 931.186810 L455.953109 908.382314 L461.241582 915.351997 L465.444608 884.706608 L479.987908 903.873237 L493.927274 893.296291 L501.859983 903.750816 L487.920617 914.327761 L502.463916 933.494390 L471.818527 929.291364 L477.107000 936.261047 L452.411142 939.898914 L455.716437 944.254966 Z" fill="#888" fill-opacity="0.18" stroke="#000" stroke-width="1"/>
  <path d="M957.501502 515.736752 L977.979300 535.463898 L972.962809 537.639902 L992.703102 552.918655 L984.676718 556.400261 L1013.446693 567.762208 L991.374136 577.336623 L998.337348 593.389392 L986.297771 598.611801 L979.334559 582.559032 L957.262002 592.133448 L968.623949 563.363472 L960.597565 566.845078 L962.929829 541.991909 L957.913339 544.167913 Z" fill="#888" fill-opacity="0.18" stroke="#000" stroke-width="1"/>
  <path d="M935.585503 790.527555 L963.899263 787.913840 L962.269023 793.133273 L986.733284 788.171479 L984.124900 796.522573 L1011.523593 782.165799 L1004.350537 805.131306 L1021.052724 810.348073 L1017.140148 822.874713 L1000.437962 817.657946 L993.264906 840.623452 L978.908132 813.224759 L976.299749 821.575853 L959.008543 803.572140 L957.378303 808.791573 Z" fill="#888" fill-opacity="0.18" stroke="#000" stroke-width="1"/>
  <path d="M764.164744 873.423897 L736.112856 868.777168 L739.012563 864.141236 L714.089479 862.741460 L718.729010 855.323968 L688.586454 862.268870 L701.345164 841.870768 L686.510181 832.591707 L693.469478 821.465469 L708.304461 830.744531 L721.063170 810.346430 L728.008072 840.488986 L732.647603 833.071494 L744.811976 854.869372 L747.711683 850.233440 Z" fill="#888" fill-opacity="0.18" stroke="#000" stroke-width="1"/>
  <path d="M806.482152 980.768024 L832.554071 992.115073 L828.611406 995.903945 L852.440760 1003.339087 L846.132496 1009.401284 L877.058648 1010.016455 L859.710920 1026.687494 L871.835312 1039.304024 L862.372915 1048.397318 L850.248523 1035.780789 L832.900795 1052.451828 L833.515966 1021.525676 L827.207701 1027.587872 L820.726075 1003.481691 L816.783410 1007.270563 Z" fill="#888" fill-opacity="0.18" stroke="#000" stroke-width="1"/>
  <path d="M871.001886 1035.312143 L879.860436 1008.293139 L884.001491 1011.864110 L889.175053 987.443755 L895.800741 993.157308 L893.520404 962.309206 L911.741045 978.021477 L923.168151 964.770102 L933.106683 973.340432 L921.679577 986.591807 L939.900218 1002.304078 L909.052116 1004.584414 L915.677803 1010.297967 L892.283600 1019.006051 L896.424655 1022.577022 Z" fill="#888" fill-opacity="0.18" stroke="#000" stroke-width="1"/>
  <path d="M921.511321 893.694283 L910.570121 919.939105 L906.720537 916.055695 L899.655982 939.997531 L893.496649 933.784075 L893.361344 964.716049 L876.423176 947.629046 L863.996265 959.947714 L854.757264 950.627531 L867.184175 938.308863 L850.246007 921.221860 L881.177981 921.357164 L875.018647 915.143709 L899.021370 908.288875 L895.171786 904.405465 Z" fill="#888" fill-opacity="0.18" stroke="#000" stroke-width="1"/>
  <path d="M166.711036 738.252229 L181.147224 762.749106 L175.730900 763.499844 L190.649763 783.513514 L181.983646 784.714695 L206.651890 803.377037 L182.820067 806.680283 L185.222428 824.012518 L172.223252 825.814289 L169.820891 808.482054 L145.989068 811.785300 L164.651411 787.117055 L155.985293 788.318236 L164.898254 765.001319 L159.481930 765.752057 Z" fill="#888" fill-opacity="0.18" stroke="#000" stroke-width="1"/>
  <path d="M786.792652 316.759968 L763.946665 333.688091 L762.631464 328.380510 L744.294582 345.317989 L742.190261 336.825860 L726.220739 363.316985 L720.433858 339.963629 L703.449599 344.172270 L700.293118 331.434076 L717.277377 327.225435 L711.490495 303.872080 L737.981620 319.841601 L735.877299 311.349472 L760.001064 317.765349 L758.685863 312.457768 Z" fill="#888" fill-opacity="0.18" stroke="#000" stroke-width="1"/>
  <path d="M279.508126 458.343285 L293.335948 483.188643 L287.902762 483.805612 L302.323646 504.181027 L293.630548 505.168177 L317.831168 524.433049 L293.925148 527.147711 L295.899447 544.533908 L282.859799 546.014632 L280.885500 528.628435 L256.979479 531.343097 L276.244351 507.142476 L267.551252 508.129626 L277.036389 485.039549 L271.603202 485.656518 Z" fill="#888" fill-opacity="0.18" stroke="#000" stroke-width="1"/>
  <path d="M938.596702 441.209841 L964.437418 429.345699 L964.632184 434.810333 L986.062239 422.009076 L986.373863 430.752492 L1007.453341 408.114892 L1008.310308 432.159284 L1025.797140 431.536036 L1026.264576 444.651159 L1008.777745 445.274408 L1009.634712 469.318801 L986.997112 448.239323 L987.308737 456.982738 L965.021714 445.739603 L965.216479 451.204238 Z" fill="#888" fill-opacity="0.18" stroke="#000" stroke-width="1"/>
  <path d="M579.834885 689.433001 L553.065903 679.845399 L556.747799 675.802651 L532.476636 669.969114 L538.367669 663.500717 L507.469095 664.944128 L523.669435 647.156036 L510.732641 635.373971 L519.569191 625.671375 L532.505984 637.453441 L548.706325 619.665349 L550.149735 650.563924 L556.040768 644.095527 L564.111590 667.717154 L567.793485 663.674406 Z" fill="#888" fill-opacity="0.18" stroke="#000" stroke-width="1"/>
  <path d="M696.688132 810.977177 L694.811888 782.605004 L699.987144 784.370477 L695.663471 759.785414 L703.943880 762.610170 L690.304747 734.847257 L713.075873 742.615336 L718.725385 726.054517 L731.145999 730.291651 L725.496487 746.852470 L748.267613 754.620549 L720.504699 768.259682 L728.785109 771.084438 L710.337656 787.901422 L715.512911 789.666894 Z" fill="#888" fill-opacity="0.18" stroke="#000" stroke-width="1"/>
  <path d="M887.216856 100.946573 L858.930980 98.046624 L861.537915 93.239955 L836.575986 93.386887 L840.747081 85.696218 L811.092671 94.495153 L822.563183 73.345813 L807.181845 65.003622 L813.438488 53.467619 L828.819826 61.809809 L840.290338 40.660469 L849.089272 70.314880 L853.260367 62.624211 L866.751784 83.626619 L869.358718 78.819951 Z" fill="#888" fill-opacity="0.18" stroke="#000" stroke-width="1"/>
  <path d="M651.015538 510.577601 L632.935844 532.523561 L630.377367 527.690926 L616.675476 548.556631 L612.581913 540.824415 L603.485280 570.388864 L592.227982 549.125269 L576.763549 557.312396 L570.623205 545.714072 L586.087637 537.526945 L574.830338 516.263351 L604.394786 525.359983 L600.301223 517.627767 L625.260412 518.025656 L622.701935 513.193021 Z" fill="#888" fill-opacity="0.18" stroke="#000" stroke-width="1"/>
  <path d="M1023.112625 230.885241 L1011.502178 204.929548 L1016.968458 204.788322 L1004.377735 183.233898 L1013.123784 183.007936 L990.693757 161.707720 L1014.745391 161.086324 L1014.293466 143.594227 L1027.412539 143.255283 L1027.864464 160.747381 L1051.916097 160.125984 L1030.615881 182.556012 L1039.361930 182.330049 L1027.901019 204.505869 L1033.367299 204.364643 Z" fill="#888" fill-opacity="0.18" stroke="#000" stroke-width="1"/>
  <path d="M976.774455 230.430297 L1004.908222 234.552389 L1002.095590 239.241661 L1027.040466 240.175793 L1022.540255 247.678627 L1052.547869 240.172071 L1040.172287 260.804865 L1055.177956 269.805288 L1048.427638 281.059539 L1033.421970 272.059116 L1021.046388 292.691910 L1013.539831 262.684295 L1009.039620 270.187130 L996.470325 248.620203 L993.657693 253.309475 Z" fill="#888" fill-opacity="0.18" stroke="#000" stroke-width="1"/>
  <path d="M223.435898 1026.982343 L206.715503 1003.983889 L212.034784 1002.716841 L195.264171 984.227222 L203.775021 982.199944 L177.429702 965.991013 L200.834540 960.416000 L196.779985 943.394299 L209.546260 940.353383 L213.600815 957.375083 L237.005653 951.800070 L220.796722 978.145389 L229.307572 976.118112 L222.673347 1000.182744 L227.992628 998.915695 Z" fill="#888" fill-opacity="0.18" stroke="#000" stroke-width="1"/>
  <path d="M996.117556 679.260743 L996.921207 650.837959 L1001.907230 653.082896 L999.917726 628.199943 L1007.895363 631.791842 L996.931018 602.868003 L1018.869519 612.745725 L1026.053317 596.790451 L1038.019772 602.178299 L1030.835974 618.133573 L1052.774475 628.011295 L1023.850636 638.975640 L1031.828273 642.567538 L1011.879276 657.572770 L1016.865299 659.817706 Z" fill="#888" fill-opacity="0.18" stroke="#000" stroke-width="1"/>
  <path d="M806.349873 528.926726 L794.964572 554.981964 L791.181490 551.033742 L783.711383 574.852158 L777.658452 568.535003 L776.997892 599.460219 L760.352331 582.088043 L747.718021 594.193905 L738.638624 584.718173 L751.272934 572.612310 L734.627373 555.240134 L765.552589 555.900693 L759.499658 549.583538 L783.615326 543.137298 L779.832244 539.189076 Z" fill="#888" fill-opacity="0.18" stroke="#000" stroke-width="1"/>
  <path d="M73.409737 79.166156 L98.657367 66.087253 L99.111637 71.536456 L119.909051 57.731129 L120.635884 66.449853 L140.615611 42.835962 L142.614401 66.812452 L160.051848 65.358786 L161.142097 78.436872 L143.704650 79.890537 L145.703440 103.867027 L122.089549 83.887300 L122.816382 92.606023 L100.020178 82.434860 L100.474449 87.884062 Z" fill="#888" fill-opacity="0.18" stroke="#000" stroke-width="1"/>
  <path d="M862.757620 293.068249 L849.874635 267.720090 L855.327192 267.308033 L841.683341 246.404330 L850.407432 245.745040 L826.948979 225.583039 L850.940229 223.769990 L849.621648 206.321808 L862.707784 205.332873 L864.026365 222.781054 L888.017615 220.968006 L867.855614 244.426459 L876.579705 243.767168 L866.232306 266.483920 L871.684863 266.071863 Z" fill="#888" fill-opacity="0.18" stroke="#000" stroke-width="1"/>
  <path d="M823.258075 519.496070 L795.345609 524.917762 L796.447710 519.561873 L772.599534 526.936424 L774.362896 518.367002 L748.530939 535.382152 L753.380183 511.816243 L736.241340 508.289520 L738.886383 495.435388 L756.025225 498.962111 L760.874470 475.396203 L777.889619 501.228160 L779.652981 492.658738 L798.651912 508.850097 L799.754013 503.494208 Z" fill="#888" fill-opacity="0.18" stroke="#000" stroke-width="1"/>
  <path d="M684.202919 215.732702 L706.200486 233.749570 L701.375187 236.321855 L722.279986 249.964026 L714.559506 254.079682 L744.149844 263.091741 L722.918526 274.409795 L731.149838 289.850753 L719.569119 296.024237 L711.337807 280.583279 L690.106489 291.901332 L699.118547 262.310994 L691.398068 266.426650 L691.724587 241.466425 L686.899288 244.038710 Z" fill="#888" fill-opacity="0.18" stroke="#000" stroke-width="1"/>
  <path d="M785.603785 350.516150 L775.005555 376.901335 L771.105687 373.068426 L764.353758 397.100299 L758.113969 390.967644 L758.381803 421.898754 L741.222384 405.033952 L728.957073 417.513530 L719.597390 408.314547 L731.862701 395.834969 L714.703281 378.970167 L745.634392 378.702333 L739.394603 372.569678 L763.305951 365.402607 L759.406083 361.569697 Z" fill="#888" fill-opacity="0.18" stroke="#000" stroke-width="1"/>
  <path d="M959.592268 96.050019 L983.850715 81.216671 L984.689590 86.620045 L1004.457562 71.377121 L1005.799762 80.022520 L1024.057760 55.053523 L1027.748810 78.828370 L1045.039608 76.143970 L1047.052908 89.112069 L1029.762110 91.796469 L1033.453160 115.571316 L1008.484162 97.313319 L1009.826362 105.958718 L986.367340 97.426794 L987.206215 102.830168 Z" fill="#888" fill-opacity="0.18" stroke="#000" stroke-width="1"/>
  <path d="M470.435713 223.908952 L496.979684 234.102972 L493.206783 238.060924 L517.338974 244.445034 L511.302332 250.777757 L542.225744 250.037553 L525.624980 267.452542 L538.290426 279.525825 L529.235464 289.024910 L516.570017 276.951627 L499.969253 294.366616 L499.229049 263.443204 L493.192407 269.775927 L485.660981 245.976829 L481.888080 249.934781 Z" fill="#888" fill-opacity="0.18" stroke="#000" stroke-width="1"/>
  <path d="M356.940116 779.529692 L350.357560 807.191406 L345.934071 803.976920 L342.807801 828.742741 L335.730221 823.599564 L340.566229 854.151460 L321.102882 840.007722 L310.816527 854.162883 L300.200155 846.448117 L310.486510 832.292955 L291.023163 818.149217 L321.575059 813.313209 L314.497478 808.170031 L337.087095 797.547948 L332.663607 794.333462 Z" fill="#888" fill-opacity="0.18" stroke="#000" stroke-width="1"/>
  <path d="M496.408162 281.716377 L468.482867 276.361154 L471.498979 271.800097 L446.619307 269.769975 L451.445086 262.472284 L421.136413 268.652063 L434.407305 248.583415 L419.811924 238.931857 L427.050592 227.985322 L441.645973 237.636879 L454.916864 217.568231 L461.096643 247.876904 L465.922422 240.579213 L477.531202 262.677984 L480.547314 258.116928 Z" fill="#888" fill-opacity="0.18" stroke="#000" stroke-width="1"/>
  <path d="M396.624802 394.799799 L424.601089 389.717688 L423.433987 395.059789 L447.370014 387.975576 L445.502651 396.522937 L471.539462 379.822943 L466.404212 403.328186 L483.498934 407.062913 L480.697889 419.883954 L463.603167 416.149227 L458.467918 439.654470 L441.767924 413.617659 L439.900560 422.165020 L421.099783 405.743990 L419.932681 411.086091 Z" fill="#888" fill-opacity="0.18" stroke="#000" stroke-width="1"/>
  <path d="M621.460227 887.728130 L624.516217 915.997573 L619.271938 914.449122 L624.615546 938.832832 L616.224699 936.355309 L631.008009 963.526233 L607.933181 956.713045 L602.978135 973.494739 L590.391866 969.778455 L595.346911 952.996761 L572.272083 946.183574 L599.443006 931.400264 L591.052159 928.922742 L608.783380 911.352219 L603.539101 909.803767 Z" fill="#888" fill-opacity="0.18" stroke="#000" stroke-width="1"/>
  <path d="M690.163461 724.943650 L696.233313 697.164929 L700.715494 700.297056 L703.383208 675.477653 L710.554696 680.489058 L705.154486 650.031825 L724.876080 663.813187 L734.898889 649.470210 L745.656122 656.987316 L735.633313 671.330294 L755.354907 685.111656 L724.897674 690.511867 L732.069163 695.523271 L709.679854 706.561312 L714.162035 709.693440 Z" fill="#888" fill-opacity="0.18" stroke="#000" stroke-width="1"/>
  <path d="M623.370307 720.046287 L622.929779 691.615556 L628.009238 693.640221 L624.933087 668.868124 L633.060221 672.107587 L620.841044 643.691095 L643.190662 652.599619 L649.669589 636.345351 L661.860290 641.204546 L655.381363 657.458814 L677.730981 666.367338 L649.314488 678.586514 L657.441622 681.825977 L638.168155 697.689550 L643.247614 699.714214 Z" fill="#888" fill-opacity="0.18" stroke="#000" stroke-width="1"/>
  <path d="M915.085946 886.849071 L943.415654 884.414295 L941.752470 889.623324 L966.247591 884.816194 L963.586498 893.150641 L991.075349 878.967258 L983.757341 901.886987 L1000.426235 907.209175 L996.434594 919.710845 L979.765700 914.388658 L972.447692 937.308387 L958.264310 909.819535 L955.603216 918.153982 L938.426103 900.041382 L936.762919 905.250412 Z" fill="#888" fill-opacity="0.18" stroke="#000" stroke-width="1"/>
  <path d="M51.325513 630.517127 L78.493654 622.127098 L77.973531 627.570409 L100.891048 617.675619 L100.058850 626.384917 L123.912589 606.692166 L121.624045 630.642736 L139.042642 632.307131 L137.794345 645.371078 L120.375749 643.706683 L118.087205 667.657252 L98.394454 643.803513 L97.562256 652.512811 L76.933283 638.457031 L76.413160 643.900343 Z" fill="#888" fill-opacity="0.18" stroke="#000" stroke-width="1"/>
  <path d="M573.573374 887.766852 L555.721303 865.635334 L560.970395 864.103274 L543.294154 846.477442 L551.692699 844.026146 L524.568094 829.158021 L547.664095 822.416957 L542.761503 805.619865 L555.359322 801.942921 L560.261914 818.740013 L583.357915 811.998948 L568.489791 839.123553 L576.888337 836.672257 L571.468577 861.039154 L576.717668 859.507094 Z" fill="#888" fill-opacity="0.18" stroke="#000" stroke-width="1"/>
  <path d="M541.106849 65.942603 L569.413307 63.250964 L567.797440 68.474865 L592.247951 63.445752 L589.662563 71.803993 L617.021635 57.371858 L609.911820 80.357022 L626.628302 85.527797 L622.750221 98.065159 L606.033739 92.894384 L598.923923 115.879547 L584.491788 88.520475 L581.906401 96.878717 L564.565706 78.922666 L562.949838 84.146567 Z" fill="#888" fill-opacity="0.18" stroke="#000" stroke-width="1"/>
  <path d="M1025.543498 959.571958 L1013.089339 934.010377 L1018.548064 933.690229 L1005.258278 912.559657 L1013.992237 912.047420 L990.876748 891.493115 L1014.895135 890.084464 L1013.870661 872.616546 L1026.971600 871.848191 L1027.996073 889.316109 L1052.014460 887.907457 L1031.460155 911.022947 L1040.194114 910.510710 L1029.465512 933.049933 L1034.924237 932.729785 Z" fill="#888" fill-opacity="0.18" stroke="#000" stroke-width="1"/>
  <path d="M729.630167 533.727415 L701.202612 533.115364 L703.413890 528.114323 L678.544913 530.271502 L682.082957 522.269836 L653.233679 533.428891 L662.963302 511.424308 L646.959969 504.348219 L652.267036 492.345719 L668.270369 499.421808 L677.999992 477.417225 L689.159046 506.266503 L692.697091 498.264837 L707.836446 518.112239 L710.047724 513.111198 Z" fill="#888" fill-opacity="0.18" stroke="#000" stroke-width="1"/>
  <path d="M524.163944 976.581174 L527.714002 948.369517 L532.459410 951.086365 L532.886907 926.127665 L540.479560 930.474623 L532.365322 900.625595 L553.245118 912.579730 L561.939034 897.394423 L573.328014 903.914860 L564.634098 919.100167 L585.513894 931.054301 L555.664866 939.168539 L563.257519 943.515497 L541.950226 956.520063 L546.695634 959.236911 Z" fill="#888" fill-opacity="0.18" stroke="#000" stroke-width="1"/>
  <path d="M547.307329 205.923166 L569.186586 224.083525 L564.344565 226.624195 L585.159690 240.402803 L577.412457 244.467875 L606.943219 253.673277 L585.638328 264.852225 L593.768472 280.346691 L582.147623 286.444298 L574.017479 270.949833 L552.712589 282.128780 L561.917991 252.598018 L554.170758 256.663090 L554.660524 231.705534 L549.818504 234.246204 Z" fill="#888" fill-opacity="0.18" stroke="#000" stroke-width="1"/>
  <path d="M265.079731 1002.741163 L256.354225 975.678901 L261.803555 976.131641 L251.625990 953.338294 L260.344918 954.062679 L240.358560 930.454400 L264.335610 932.446456 L265.784379 915.008602 L278.862769 916.095178 L277.414001 933.533033 L301.391051 935.525090 L277.782772 955.511447 L286.501699 956.235831 L272.702214 977.037121 L278.151543 977.489861 Z" fill="#888" fill-opacity="0.18" stroke="#000" stroke-width="1"/>
  <path d="M363.245937 289.622361 L343.869130 268.812752 L348.996339 266.912254 L330.114488 250.584512 L338.318023 247.543715 L310.207196 234.636869 L332.766916 226.274679 L326.685324 209.867610 L338.990626 205.306415 L345.072219 221.713485 L367.631939 213.351295 L354.725093 241.462123 L362.928628 238.421327 L359.250758 263.111259 L364.377967 261.210761 Z" fill="#888" fill-opacity="0.18" stroke="#000" stroke-width="1"/>
  <path d="M771.171896 673.067139 L747.620665 657.134783 L752.190849 654.132519 L730.127391 642.456763 L737.439685 637.653141 L707.149896 631.381459 L727.258706 618.171500 L717.651463 603.546912 L728.619905 596.341480 L738.227147 610.966068 L758.335957 597.756110 L752.064274 628.045899 L759.376568 623.242278 L761.331217 648.127993 L765.901401 645.125729 Z" fill="#888" fill-opacity="0.18" stroke="#000" stroke-width="1"/>
  <path d="M161.855016 79.779217 L185.172867 96.051227 L180.559652 98.986939 L202.451576 110.981234 L195.070431 115.678374 L225.266143 122.388387 L204.967995 135.305522 L214.362274 150.067812 L203.290557 157.113522 L193.896277 142.351232 L173.598128 155.268367 L180.308141 125.072654 L172.926996 129.769794 L171.333221 104.858364 L166.720005 107.794077 Z" fill="#888" fill-opacity="0.18" stroke="#000" stroke-width="1"/>
  <path d="M57.837051 1058.650866 L73.325055 1034.805066 L76.412475 1039.318158 L87.672522 1017.039675 L92.612394 1024.260623 L98.315084 993.858573 L111.899732 1013.716180 L126.341628 1003.836436 L133.751436 1014.667858 L119.309540 1024.547602 L132.894187 1044.405209 L102.492137 1038.702519 L107.432009 1045.923467 L82.587315 1048.344343 L85.674735 1052.857436 Z" fill="#888" fill-opacity="0.18" stroke="#000" stroke-width="1"/>
  <path d="M238.519465 253.420116 L247.512698 280.394590 L242.059150 279.995869 L252.462071 302.687248 L243.736393 302.049294 L263.955701 325.458372 L239.960089 323.703998 L238.684180 341.155352 L225.595665 340.198421 L226.871573 322.747067 L202.875961 320.992693 L226.285039 300.773386 L217.559362 300.135432 L231.152054 279.198426 L225.698506 278.799705 Z" fill="#888" fill-opacity="0.18" stroke="#000" stroke-width="1"/>
  <path d="M492.342769 143.096328 L480.217564 168.815579 L476.548851 164.760865 L468.401160 188.356089 L462.531219 181.868545 L460.987212 212.762256 L444.844875 194.921511 L431.869788 206.661392 L423.064877 196.930076 L436.039964 185.190195 L419.897627 167.349450 L450.791338 168.893458 L444.921397 162.405914 L469.211425 156.651435 L465.542712 152.596720 Z" fill="#888" fill-opacity="0.18" stroke="#000" stroke-width="1"/>
  <path d="M1056.601278 345.044952 L1055.792785 373.467598 L1050.807145 371.221812 L1052.792409 396.105103 L1044.815384 392.511846 L1055.774802 421.437552 L1033.837984 411.556093 L1026.651468 427.510142 L1014.685931 422.120256 L1021.872446 406.166206 L999.935628 396.284747 L1028.861335 385.325330 L1020.884310 381.732072 L1040.835864 366.730240 L1035.850223 364.484454 Z" fill="#888" fill-opacity="0.18" stroke="#000" stroke-width="1"/>
  <path d="M505.923880 737.653951 L483.434212 720.255235 L488.186178 717.549873 L466.910406 704.493803 L474.513552 700.165224 L444.684240 691.978804 L465.592893 680.075214 L456.935736 664.868921 L468.340455 658.376053 L476.997612 673.582346 L497.906265 661.678755 L489.719845 691.508067 L497.322991 687.179489 L497.690111 712.139150 L502.442077 709.433789 Z" fill="#888" fill-opacity="0.18" stroke="#000" stroke-width="1"/>
  <path d="M397.738276 515.082746 L419.174678 496.401709 L420.905306 501.588721 L437.845973 483.254783 L440.614977 491.554002 L454.440514 463.883443 L462.055276 486.706296 L478.653715 481.168287 L482.807222 493.617116 L466.208783 499.155125 L473.823545 521.977978 L446.152986 508.152441 L448.921991 516.451660 L424.366561 511.962745 L426.097189 517.149757 Z" fill="#888" fill-opacity="0.18" stroke="#000" stroke-width="1"/>
  <path d="M965.732980 598.456093 L938.517186 606.690229 L939.068507 601.249989 L916.094640 611.013231 L916.976754 602.308847 L893.010508 621.864521 L895.436323 597.927465 L878.027555 596.163236 L879.350727 583.106660 L896.759495 584.870889 L899.185310 560.933833 L918.740983 584.900079 L919.623098 576.195695 L940.171150 590.369509 L940.722472 584.929270 Z" fill="#888" fill-opacity="0.18" stroke="#000" stroke-width="1"/>
  <path d="M930.745525 789.529162 L908.264258 772.119592 L913.017530 769.416525 L891.748062 756.350186 L899.353297 752.025278 L869.527940 743.824461 L890.442336 731.930964 L881.792520 716.720494 L893.200372 710.233132 L901.850188 725.443602 L922.764584 713.550105 L914.563767 743.375462 L922.169001 739.050554 L922.524073 764.010390 L927.277345 761.307322 Z" fill="#888" fill-opacity="0.18" stroke="#000" stroke-width="1"/>
  <path d="M221.669213 554.229622 L218.736867 582.512158 L213.933188 579.899720 L214.051528 604.861800 L206.365642 600.681899 L215.130604 630.346368 L193.994417 618.851640 L185.634614 634.223412 L174.105784 627.953560 L182.465587 612.581788 L161.329399 601.087059 L190.993869 592.322096 L183.307982 588.142195 L204.325830 574.674843 L199.522151 572.062405 Z" fill="#888" fill-opacity="0.18" stroke="#000" stroke-width="1"/>
  <path d="M224.575652 818.087180 L221.259617 846.327300 L216.491847 843.649889 L216.271295 868.611275 L208.642863 864.327417 L217.004297 894.108144 L196.026108 882.327533 L187.458391 897.584398 L176.015742 891.158610 L184.583459 875.901745 L163.605270 864.121134 L193.385998 855.759700 L185.757565 851.475841 L206.956306 838.295066 L202.188536 835.617654 Z" fill="#888" fill-opacity="0.18" stroke="#000" stroke-width="1"/>
  <path d="M844.712921 911.588863 L837.705922 939.146121 L833.332370 935.864016 L829.825765 960.578854 L822.828082 955.327486 L827.193871 985.950112 L807.950243 971.508851 L797.447508 985.504217 L786.950984 977.627166 L797.453718 963.631800 L778.210091 949.190540 L808.832717 944.824751 L801.835034 939.573384 L824.585266 929.299807 L820.211715 926.017702 Z" fill="#888" fill-opacity="0.18" stroke="#000" stroke-width="1"/>
  <path d="M322.712108 736.612325 L350.377706 743.178543 L347.165833 747.603928 L371.933497 750.715570 L366.794500 757.796188 L397.343534 752.942135 L383.211295 772.413833 L397.372529 782.691825 L389.664035 793.312751 L375.502800 783.034759 L361.370560 802.506457 L356.516508 771.957422 L351.377511 779.038040 L340.742088 756.454700 L337.530215 760.880086 Z" fill="#888" fill-opacity="0.18" stroke="#000" stroke-width="1"/>
  <path d="M705.643844 480.841903 L725.812964 460.799271 L727.879029 465.862032 L743.584728 446.459700 L746.890432 454.560117 L758.877214 426.044816 L767.967899 448.320962 L784.168732 441.709554 L789.127288 453.860179 L772.926455 460.471586 L782.017140 482.747732 L753.501839 470.760950 L756.807543 478.861366 L732.011159 475.987553 L734.077224 481.050313 Z" fill="#888" fill-opacity="0.18" stroke="#000" stroke-width="1"/>
  <path d="M276.503329 448.642772 L296.969146 428.903197 L298.959468 433.996210 L314.952811 414.830290 L318.137327 422.979111 L330.548088 394.645768 L339.305508 417.055026 L355.603150 410.685993 L360.379924 422.909224 L344.082283 429.278257 L352.839703 451.687514 L324.506360 439.276753 L327.690876 447.425574 L302.940114 444.182236 L304.930437 449.275249 Z" fill="#888" fill-opacity="0.18" stroke="#000" stroke-width="1"/>
  <path d="M493.606258 964.150422 L520.024126 974.666921 L516.203308 978.578635 L540.255967 985.256137 L534.142658 991.514880 L565.072791 991.151295 L548.261190 1008.362840 L560.778677 1020.589459 L551.608713 1029.977575 L539.091225 1017.750956 L522.279624 1034.962501 L521.916039 1004.032368 L515.802729 1010.291111 L508.561671 986.402065 L504.740852 990.313780 Z" fill="#888" fill-opacity="0.18" stroke="#000" stroke-width="1"/>
  <path d="M500.364506 1034.313079 L472.967442 1026.703781 L476.344615 1022.403215 L451.712570 1018.355769 L457.116047 1011.474863 L426.405091 1015.168436 L441.264651 996.245945 L427.502840 985.438992 L435.608055 975.117633 L449.369866 985.924586 L464.229427 967.002095 L467.923000 997.713052 L473.326477 990.832146 L483.098961 1013.802083 L486.476134 1009.501517 Z" fill="#888" fill-opacity="0.18" stroke="#000" stroke-width="1"/>
  <path d="M513.436071 386.434837 L515.810623 414.769657 L510.605141 413.095404 L515.360192 437.600688 L507.031420 434.921884 L521.156339 462.440823 L498.252217 455.074112 L492.894609 471.731655 L480.401452 467.713449 L485.759060 451.055906 L462.854938 443.689195 L490.373877 429.564276 L482.045106 426.885472 L500.194177 409.746899 L494.988695 408.072646 Z" fill="#888" fill-opacity="0.18" stroke="#000" stroke-width="1"/>
  <path d="M361.371678 908.176758 L358.110816 936.423302 L353.337824 933.755210 L353.166035 958.716980 L345.529248 954.448031 L353.948844 984.212368 L332.947681 972.472760 L324.409784 987.746333 L312.954605 981.342910 L321.492501 966.069338 L300.491339 954.329730 L330.255676 945.910135 L322.618889 941.641186 L343.791841 928.419024 L339.018850 925.750932 Z" fill="#888" fill-opacity="0.18" stroke="#000" stroke-width="1"/>
  <path d="M91.517863 779.341726 L112.224696 798.828326 L107.233966 801.062778 L127.151382 816.109903 L119.166214 819.685027 L148.066945 830.710138 L126.107732 840.541729 L133.257981 856.512066 L121.280228 861.874752 L114.129980 845.904415 L92.170767 855.736007 L103.195878 826.835276 L95.210709 830.410400 L97.252505 805.531683 L92.261775 807.766136 Z" fill="#888" fill-opacity="0.18" stroke="#000" stroke-width="1"/>
  <path d="M280.601135 330.610977 L280.004381 359.038857 L275.002150 356.830270 L277.172711 381.698083 L269.169142 378.164345 L280.343718 407.007614 L258.333903 397.289833 L251.266426 413.296971 L239.261072 407.996363 L246.328549 391.989225 L224.318735 382.271443 L253.162004 371.096867 L245.158435 367.563129 L264.997689 352.413097 L259.995458 350.204510 Z" fill="#888" fill-opacity="0.18" stroke="#000" stroke-width="1"/>
  <path d="M51.601837 626.558673 L49.400267 598.209888 L54.595434 599.915880 L49.990037 575.382031 L58.302303 578.111618 L44.345606 550.506983 L67.204339 558.013349 L72.663515 541.388816 L85.131915 545.483197 L79.672739 562.107730 L102.531472 569.614097 L74.926836 583.570794 L83.239103 586.300382 L64.985767 603.327865 L70.180934 605.033857 Z" fill="#888" fill-opacity="0.18" stroke="#000" stroke-width="1"/>
  <path d="M120.661517 294.679849 L115.849641 322.703880 L111.230869 319.776918 L109.684317 344.691324 L102.294282 340.008184 L109.061520 370.191123 L88.738922 357.312487 L79.372642 372.092558 L68.287589 365.067848 L77.653869 350.287777 L57.331272 337.409142 L87.514211 330.641904 L80.124176 325.958763 L101.993325 313.922993 L97.374553 310.996030 Z" fill="#888" fill-opacity="0.18" stroke="#000" stroke-width="1"/>
  <path d="M820.748779 229.311553 L807.196160 254.308093 L803.761317 250.053446 L794.299384 273.153041 L788.803635 266.345606 L785.524420 297.103566 L770.411111 278.383119 L756.796241 289.374617 L748.552618 279.163464 L762.167488 268.171967 L747.054179 249.451521 L777.812138 252.730736 L772.316389 245.923301 L796.891631 241.544152 L793.456788 237.289506 Z" fill="#888" fill-opacity="0.18" stroke="#000" stroke-width="1"/>
  <path d="M199.118415 338.754095 L173.886919 351.864096 L173.425935 346.415458 L152.645547 360.246400 L151.907972 351.528579 L131.957357 375.167070 L129.929025 351.193061 L112.493383 352.668211 L111.387020 339.591479 L128.822663 338.116329 L126.794331 314.142321 L150.432822 334.092936 L149.695247 325.375115 L172.503966 335.518182 L172.042982 330.069543 Z" fill="#888" fill-opacity="0.18" stroke="#000" stroke-width="1"/>
  <path d="M373.031422 371.181446 L345.980243 379.941254 L346.426074 374.491355 L323.645649 384.697808 L324.358979 375.977970 L300.776058 395.994241 L302.737715 372.014685 L285.298038 370.588025 L286.368033 357.508267 L303.807710 358.934927 L305.769368 334.955371 L325.785639 358.538292 L326.498969 349.818454 L347.317737 363.591557 L347.763568 358.141658 Z" fill="#888" fill-opacity="0.18" stroke="#000" stroke-width="1"/>
  <path d="M262.726237 244.422696 L269.807856 216.884519 L274.172502 220.178459 L277.746041 195.473211 L284.729473 200.743514 L280.446650 170.109175 L299.651089 184.602509 L310.191696 170.635644 L320.666845 178.541099 L310.126238 192.507964 L329.330677 207.001298 L298.696338 211.284121 L305.679770 216.554424 L282.901792 226.766338 L287.266437 230.060277 Z" fill="#888" fill-opacity="0.18" stroke="#000" stroke-width="1"/>
  <path d="M64.282476 136.245118 L91.032229 145.886237 L87.342256 149.921613 L111.601703 155.803678 L105.697746 162.260280 L136.599145 160.878668 L120.363262 178.634324 L133.276467 190.442239 L124.420531 200.127142 L111.507327 188.319228 L95.271444 206.074884 L93.889831 175.173485 L87.985874 181.630087 L79.962309 157.992366 L76.272336 162.027742 Z" fill="#888" fill-opacity="0.18" stroke="#000" stroke-width="1"/>
  <path d="M270.310457 674.470935 L274.329262 646.322228 L279.028825 649.117630 L279.871395 624.169493 L287.390696 628.642137 L279.774053 598.662276 L300.452130 610.962046 L309.397417 595.923444 L320.676368 602.632410 L311.731081 617.671011 L332.409158 629.970781 L302.429297 637.587424 L309.948598 642.060068 L288.427951 654.708435 L293.127514 657.503837 Z" fill="#888" fill-opacity="0.18" stroke="#000" stroke-width="1"/>
  <path d="M810.527786 674.962623 L805.577980 646.962625 L810.914504 648.154967 L803.943519 624.185719 L812.481957 626.093466 L795.905229 599.978003 L819.385934 605.224307 L823.201428 588.147431 L836.009085 591.009051 L832.193591 608.085928 L855.674296 613.332232 L829.558833 629.908960 L838.097271 631.816707 L821.587551 650.539650 L826.924075 651.731992 Z" fill="#888" fill-opacity="0.18" stroke="#000" stroke-width="1"/>
  <path d="M46.963777 445.832709 L61.018285 421.114875 L64.366531 425.438000 L74.292889 402.534138 L79.650084 409.451138 L83.549598 378.765651 L98.281883 397.787402 L112.115883 387.073012 L120.151675 397.448513 L106.317675 408.162902 L121.049960 427.184652 L90.364473 423.285138 L95.721668 430.202139 L71.063025 434.084250 L74.411271 438.407375 Z" fill="#888" fill-opacity="0.18" stroke="#000" stroke-width="1"/>
  <path d="M750.299193 690.481928 L773.194506 707.343279 L768.507926 710.160394 L790.086862 722.709058 L782.588335 727.216443 L812.603114 734.694300 L791.982165 747.089607 L800.996934 762.086662 L789.749143 768.847738 L780.734374 753.850684 L760.113424 766.245991 L767.591281 736.231212 L760.092753 740.738597 L759.134767 715.794625 L754.448188 718.611740 Z" fill="#888" fill-opacity="0.18" stroke="#000" stroke-width="1"/>
  <path d="M302.491779 762.979028 L290.036836 737.417830 L295.495550 737.097514 L282.205116 715.967351 L290.939059 715.454846 L267.822939 694.901250 L291.841282 693.491861 L290.816273 676.023975 L303.917187 675.255217 L304.942197 692.723104 L328.960541 691.313715 L308.406945 714.429836 L317.140889 713.917331 L306.412979 736.456883 L311.871694 736.136568 Z" fill="#888" fill-opacity="0.18" stroke="#000" stroke-width="1"/>
  <path d="M456.629214 530.127990 L484.966923 527.788174 L483.286291 532.991600 L507.797385 528.266593 L505.108373 536.592074 L532.644607 522.500901 L525.249824 545.395974 L541.900787 550.773998 L537.867269 563.262220 L521.216306 557.884197 L513.821523 580.779270 L499.730350 553.243037 L497.041338 561.568518 L479.925026 543.398452 L478.244393 548.601878 Z" fill="#888" fill-opacity="0.18" stroke="#000" stroke-width="1"/>
  <path d="M98.111300 295.640088 L78.411635 275.135852 L83.508516 273.155456 L64.373792 257.124804 L72.528801 253.956170 L44.219691 241.490232 L66.645968 232.776487 L60.308699 216.466468 L72.541214 211.713516 L78.878482 228.023536 L101.304759 219.309791 L88.838821 247.618901 L96.993830 244.450267 L93.702278 269.194663 L98.799159 267.214267 Z" fill="#888" fill-opacity="0.18" stroke="#000" stroke-width="1"/>
  <path d="M570.458319 657.766693 L562.601535 630.439574 L568.033626 631.066115 L558.589190 607.959361 L567.280535 608.961827 L548.058335 584.727298 L571.959536 587.484079 L573.964467 570.101388 L587.001486 571.605086 L584.996554 588.987778 L608.897755 591.744558 L584.663226 610.966758 L593.354572 611.969224 L578.897808 632.319197 L584.329899 632.945738 Z" fill="#888" fill-opacity="0.18" stroke="#000" stroke-width="1"/>
  <path d="M305.622703 230.638552 L318.667921 255.903603 L313.218118 256.350605 L326.995694 277.166413 L318.276009 277.881617 L341.863232 297.892820 L317.884098 299.859631 L319.314505 317.299001 L306.234978 318.371807 L304.804570 300.932437 L280.825436 302.899247 L300.836639 279.312025 L292.116954 280.027229 L302.318511 257.244610 L296.868708 257.691613 Z" fill="#888" fill-opacity="0.18" stroke="#000" stroke-width="1"/>
  <path d="M654.519170 839.048722 L648.437603 811.272563 L653.818102 812.247444 L645.880530 788.580708 L654.489329 790.140519 L636.866858 764.718995 L660.541055 769.008474 L663.660676 751.790877 L676.573874 754.130592 L673.454253 771.348190 L697.128450 775.637669 L671.706926 793.260140 L680.315725 794.819950 L664.579100 814.197208 L669.959600 815.172089 Z" fill="#888" fill-opacity="0.18" stroke="#000" stroke-width="1"/>
  <path d="M961.452409 331.980716 L988.127400 322.134631 L987.902223 327.598097 L1010.251476 316.479177 L1009.891193 325.220723 L1032.645764 304.267564 L1031.654987 328.306815 L1049.138079 329.027380 L1048.597655 342.139699 L1031.114564 341.419134 L1030.123787 365.458385 L1009.170629 342.703815 L1008.810346 351.445360 L987.451870 338.525029 L987.226694 343.988495 Z" fill="#888" fill-opacity="0.18" stroke="#000" stroke-width="1"/>
  <path d="M193.248466 760.810093 L220.243354 769.741863 L216.661170 773.873221 L241.067409 779.112971 L235.335913 785.723144 L266.190084 783.526449 L250.428472 801.704425 L263.648819 813.167416 L255.051576 823.082675 L241.831230 811.619685 L226.069618 829.797661 L223.872923 798.943490 L218.141428 805.553663 L209.496801 782.135937 L205.914616 786.267295 Z" fill="#888" fill-opacity="0.18" stroke="#000" stroke-width="1"/>
</svg>
