<?xml version="1.0" encoding="UTF-8"?>
<svg xmlns="http://www.w3.org/2000/svg" width="1100" height="1100" viewBox="0 0 1100 1100">
  <rect x="0" y="0" width="1100" height="1100" fill="white"/>
  <text x="10.0" y="18.0" font-family="monospace" font-size="12">prefix=N177_job5048581_task177 run_id=177 L=12.008599645 feas=0.000e+00 N=177</text>
  <rect x="40.000000" y="40.000000" width="1020.000000" height="1020.000000" fill="none" stroke="#000" stroke-width="2"/>
  <path d="M524.206645 596.061731 L500.233446 609.748722 L499.576968 604.480773 L479.949423 618.696171 L478.899059 610.267452 L460.453174 633.965159 L457.564672 610.786183 L440.707235 612.886912 L439.131689 600.243834 L455.989126 598.143106 L453.100624 574.964131 L476.798330 593.410016 L475.747966 584.981298 L498.264013 593.944875 L497.607535 588.676926 Z" fill="#888" fill-opacity="0.18" stroke="#000" stroke-width="1"/>
  <path d="M234.239890 190.896671 L210.799701 205.477671 L209.945099 200.238214 L190.867396 215.183424 L189.500034 206.800294 L171.960613 231.176525 L168.200367 208.122916 L151.434106 210.857640 L149.383063 198.282945 L166.149324 195.548220 L162.389078 172.494611 L186.765310 190.034032 L185.397948 181.650902 L208.235897 189.759301 L207.381295 184.519845 Z" fill="#888" fill-opacity="0.18" stroke="#000" stroke-width="1"/>
  <path d="M220.488636 712.567306 L197.897786 696.702204 L202.384997 693.865448 L181.166109 682.157466 L188.345647 677.618656 L159.049778 671.016834 L178.793508 658.535109 L169.715889 644.176033 L180.485196 637.367819 L189.562815 651.726895 L209.306545 639.245169 L202.704723 668.541037 L209.884261 664.002228 L211.359420 688.191936 L215.846631 685.355180 Z" fill="#888" fill-opacity="0.18" stroke="#000" stroke-width="1"/>
  <path d="M946.304944 538.320274 L925.755220 556.752769 L924.003129 551.741539 L907.812807 569.774607 L905.009463 561.756638 L891.972903 588.809921 L884.263706 566.760508 L868.227769 572.367197 L864.022752 560.340245 L880.058689 554.733555 L872.349491 532.684142 L899.402773 545.720702 L896.599429 537.702733 L920.498948 541.719078 L918.746858 536.707848 Z" fill="#888" fill-opacity="0.18" stroke="#000" stroke-width="1"/>
  <path d="M590.180612 584.971581 L607.289586 563.307532 L609.869818 567.946999 L622.751172 547.419242 L626.879544 554.842388 L635.116480 525.963592 L646.469503 546.377245 L661.315796 538.120500 L667.508354 549.255220 L652.662061 557.511964 L664.015085 577.925616 L635.136289 569.688681 L639.264661 577.111827 L615.030284 577.225931 L617.610516 581.865398 Z" fill="#888" fill-opacity="0.18" stroke="#000" stroke-width="1"/>
  <path d="M263.310864 499.627048 L235.817910 497.139979 L238.292904 492.443528 L214.062113 492.875745 L218.022103 485.361423 L189.336323 494.247252 L200.226296 473.582867 L185.197652 465.662886 L191.137637 454.391403 L206.166281 462.311384 L217.056254 441.646999 L225.942084 470.332779 L229.902074 462.818457 L243.242892 483.050626 L245.717886 478.354174 Z" fill="#888" fill-opacity="0.18" stroke="#000" stroke-width="1"/>
  <path d="M581.665079 716.990472 L554.092698 715.644420 L556.371020 710.849475 L532.178932 712.285069 L535.824246 704.613156 L507.531179 714.679652 L517.555793 693.581893 L502.211968 686.291264 L507.679939 674.783395 L523.023764 682.074024 L533.048378 660.976264 L543.114874 689.269331 L546.760188 681.597419 L560.927663 701.259584 L563.205984 696.464639 Z" fill="#888" fill-opacity="0.18" stroke="#000" stroke-width="1"/>
  <path d="M477.906650 319.073077 L505.496696 319.988154 L503.293572 324.818112 L527.460277 323.004698 L523.935279 330.732631 L552.067606 320.225293 L542.373862 341.477108 L557.829728 348.527104 L552.542232 360.119003 L537.086366 353.069008 L527.392622 374.320824 L516.885284 346.188497 L513.360286 353.916430 L498.887325 334.478028 L496.684202 339.307986 Z" fill="#888" fill-opacity="0.18" stroke="#000" stroke-width="1"/>
  <path d="M434.372731 424.688159 L435.257104 397.097112 L440.089511 399.294859 L438.249205 375.130187 L445.981056 378.646583 L435.442417 350.525967 L456.705007 360.196055 L463.737799 344.732353 L475.335575 350.006946 L468.302784 365.470648 L489.565374 375.140736 L461.444758 385.679374 L469.176609 389.195770 L449.754324 403.690353 L454.586731 405.888101 Z" fill="#888" fill-opacity="0.18" stroke="#000" stroke-width="1"/>
  <path d="M551.327763 1049.792845 L553.602028 1022.281471 L558.317489 1024.720052 L557.697798 1000.493330 L565.242536 1004.395059 L556.135014 975.778892 L576.883043 986.508647 L584.686501 971.419171 L596.003608 977.271765 L588.200149 992.361241 L608.948178 1003.090996 L580.332011 1012.198517 L587.876749 1016.100246 L567.748412 1029.597213 L572.463873 1032.035794 Z" fill="#888" fill-opacity="0.18" stroke="#000" stroke-width="1"/>
  <path d="M451.586303 948.013484 L434.823634 969.946586 L432.170027 965.348693 L419.616394 986.078487 L415.370621 978.721859 L407.593482 1007.727860 L395.917609 987.497133 L381.204353 995.988678 L374.835694 984.953736 L389.548950 976.462191 L377.873076 956.231464 L406.879077 964.008604 L402.633305 956.651976 L426.862811 956.152908 L424.209204 951.555016 Z" fill="#888" fill-opacity="0.18" stroke="#000" stroke-width="1"/>
  <path d="M585.355780 353.542527 L573.782494 378.604591 L570.189619 374.696458 L562.461414 397.665849 L556.712815 391.412837 L555.451784 421.416867 L539.643135 404.221084 L527.137111 415.718284 L518.514212 406.338766 L531.020235 394.841566 L515.211586 377.645784 L545.215615 378.906814 L539.467015 372.653802 L563.003870 366.880194 L559.410995 362.972061 Z" fill="#888" fill-opacity="0.18" stroke="#000" stroke-width="1"/>
  <path d="M401.239676 680.304489 L389.419324 705.250978 L385.865240 701.307536 L377.910458 724.199445 L372.223923 717.889938 L370.666493 747.880043 L355.028522 730.528899 L342.409508 741.901969 L333.879706 732.437708 L346.498720 721.064638 L330.860749 703.713494 L360.850853 705.270924 L355.164318 698.961417 L378.757071 693.420652 L375.202987 689.477210 Z" fill="#888" fill-opacity="0.18" stroke="#000" stroke-width="1"/>
  <path d="M402.025890 825.640227 L378.670294 810.924109 L383.010107 807.866615 L361.232543 797.233847 L368.176244 792.341857 L338.587016 787.212578 L357.682195 773.759606 L347.898216 759.872203 L358.313768 752.534218 L368.097748 766.421621 L387.192927 752.968649 L382.063648 782.557878 L389.007349 777.665888 L391.689734 801.751628 L396.029548 798.694134 Z" fill="#888" fill-opacity="0.18" stroke="#000" stroke-width="1"/>
  <path d="M451.564919 816.868904 L464.768011 841.111973 L459.487947 841.662591 L473.306558 861.571485 L464.858456 862.452473 L488.181180 881.370256 L464.948902 883.792974 L466.710878 900.689177 L454.038726 902.010659 L452.276750 885.114456 L429.044471 887.537174 L447.962254 864.214450 L439.514152 865.095438 L448.927821 842.763826 L443.647757 843.314444 Z" fill="#888" fill-opacity="0.18" stroke="#000" stroke-width="1"/>
  <path d="M958.936725 208.395498 L985.808755 202.075531 L984.943067 207.313168 L1007.798126 199.253123 L1006.413024 207.633340 L1030.826324 190.145551 L1027.017293 213.191150 L1043.777729 215.961353 L1041.700076 228.531680 L1024.939641 225.761476 L1021.130611 248.807075 L1003.642821 224.393776 L1002.257719 232.773994 L983.211690 217.788440 L982.346001 223.026076 Z" fill="#888" fill-opacity="0.18" stroke="#000" stroke-width="1"/>
  <path d="M232.736660 983.796712 L216.510528 1006.129662 L213.746257 1001.597438 L201.698757 1022.625415 L197.275923 1015.373857 L190.204112 1044.559837 L178.041319 1024.618052 L163.538203 1033.463719 L156.903952 1022.586382 L171.407068 1013.740714 L159.244275 993.798929 L188.430256 1000.870740 L184.007422 993.619182 L208.217714 992.532990 L205.453443 988.000766 Z" fill="#888" fill-opacity="0.18" stroke="#000" stroke-width="1"/>
  <path d="M246.392847 169.377971 L266.896079 187.862166 L262.098350 190.134619 L281.743166 204.326140 L274.066799 207.962065 L302.347528 218.063171 L281.237518 228.061963 L288.509367 243.414697 L276.994817 248.868584 L269.722968 233.515850 L248.612959 243.514643 L258.714065 215.233914 L251.037698 218.869838 L252.502891 194.679525 L247.705162 196.951977 Z" fill="#888" fill-opacity="0.18" stroke="#000" stroke-width="1"/>
  <path d="M848.016531 383.068475 L825.675122 366.853992 L830.205904 364.087358 L809.171646 352.050827 L816.420896 347.624212 L787.231232 340.567624 L807.166671 328.394432 L798.313440 313.895930 L809.187316 307.256007 L818.040546 321.754509 L837.975986 309.581317 L830.919397 338.770981 L838.168648 334.344366 L839.267467 358.554088 L843.798248 355.787454 Z" fill="#888" fill-opacity="0.18" stroke="#000" stroke-width="1"/>
  <path d="M455.519569 265.322705 L483.017415 262.890320 L481.415335 267.951504 L505.184649 263.225217 L502.621321 271.323113 L529.274379 257.486694 L522.225227 279.755906 L538.421018 284.882561 L534.576026 297.029404 L518.380236 291.902749 L511.331085 314.171961 L497.494666 287.518903 L494.931338 295.616799 L478.211175 278.073873 L476.609096 283.135058 Z" fill="#888" fill-opacity="0.18" stroke="#000" stroke-width="1"/>
  <path d="M242.030553 461.990165 L245.826257 434.647147 L250.399300 437.343353 L251.123431 413.119528 L258.440300 417.433458 L250.932954 388.356462 L271.054342 400.219769 L279.682202 385.586032 L290.657505 392.056927 L282.029645 406.690664 L302.151033 418.553972 L273.074037 426.061318 L280.390905 430.375248 L259.545386 442.735766 L264.118429 445.431972 Z" fill="#888" fill-opacity="0.18" stroke="#000" stroke-width="1"/>
  <path d="M374.976752 185.476051 L397.777821 201.037519 L393.328960 203.934050 L414.702576 215.357124 L407.584400 219.991573 L436.965964 226.200891 L417.390979 238.945627 L426.659877 253.181980 L415.982613 260.133654 L406.713714 245.897301 L387.138729 258.642036 L393.348047 229.260472 L386.229870 233.894921 L384.431240 209.727112 L379.982379 212.623643 Z" fill="#888" fill-opacity="0.18" stroke="#000" stroke-width="1"/>
  <path d="M851.209265 459.300055 L878.615364 462.609704 L876.000774 467.229895 L900.233637 467.523833 L896.050293 474.916140 L924.989419 466.893733 L913.485223 487.222575 L928.269836 495.589263 L921.994820 506.677722 L907.210208 498.311035 L895.706012 518.639877 L887.683606 489.700752 L883.500262 497.093058 L870.771594 476.470278 L868.157004 481.090469 Z" fill="#888" fill-opacity="0.18" stroke="#000" stroke-width="1"/>
  <path d="M752.163896 268.251474 L738.009997 244.550944 L743.264077 243.791415 L728.666985 224.446055 L737.073514 223.230809 L713.019076 205.252601 L736.137031 201.910674 L733.706539 185.097616 L746.316333 183.274747 L748.746825 200.087805 L771.864780 196.745879 L753.886572 220.800317 L762.293102 219.585071 L753.772239 242.272357 L759.026320 241.512829 Z" fill="#888" fill-opacity="0.18" stroke="#000" stroke-width="1"/>
  <path d="M439.534725 906.913224 L412.338001 902.181817 L415.189488 897.703953 L391.004758 896.149308 L395.567137 888.984725 L366.249731 895.490237 L378.796273 875.787632 L364.467105 866.662875 L371.310673 855.916000 L385.639841 865.040757 L398.186382 845.338152 L404.691894 874.655558 L409.254273 867.490974 L420.892461 888.748223 L423.743948 884.270358 Z" fill="#888" fill-opacity="0.18" stroke="#000" stroke-width="1"/>
  <path d="M364.227773 560.283106 L351.331048 535.875679 L356.617627 535.391603 L343.050847 515.310254 L351.509374 514.535732 L328.426752 495.325721 L351.687700 493.195785 L350.138655 476.278732 L362.826445 475.116948 L364.375490 492.034001 L387.636438 489.904065 L368.426427 512.986687 L376.884954 512.212165 L367.190785 534.423450 L372.477364 533.939373 Z" fill="#888" fill-opacity="0.18" stroke="#000" stroke-width="1"/>
  <path d="M563.982337 251.699515 L591.442554 254.525205 L588.909871 259.190799 L613.144149 259.057223 L609.091857 266.522173 L637.884964 257.990529 L626.741159 278.519142 L641.671060 286.623727 L635.592621 297.821152 L620.662721 289.716568 L609.518916 310.245181 L600.987272 281.452074 L596.934979 288.917024 L583.844506 268.521986 L581.311823 273.187580 Z" fill="#888" fill-opacity="0.18" stroke="#000" stroke-width="1"/>
  <path d="M636.954266 815.310172 L635.478240 787.744444 L640.480738 789.521313 L636.582718 765.602210 L644.586715 768.445200 L631.684197 741.327733 L653.695189 749.145955 L659.381169 733.137962 L671.387164 737.402447 L665.701184 753.410440 L687.712175 761.228663 L660.594708 774.131180 L668.598705 776.974170 L650.485734 793.075051 L655.488232 794.851919 Z" fill="#888" fill-opacity="0.18" stroke="#000" stroke-width="1"/>
  <path d="M503.191585 308.493315 L477.266845 317.977821 L477.500715 312.674279 L455.772034 323.406590 L456.146227 314.920923 L433.996579 335.199609 L435.025608 311.864026 L418.054275 311.115641 L418.615564 298.387141 L435.586897 299.135526 L436.615926 275.799943 L456.894611 297.949590 L457.268804 289.463923 L477.968456 302.067196 L478.202326 296.763654 Z" fill="#888" fill-opacity="0.18" stroke="#000" stroke-width="1"/>
  <path d="M870.330445 147.635318 L852.040094 168.311659 L849.722575 163.535536 L835.716626 183.313086 L832.008595 175.671289 L822.174182 204.045860 L811.977095 183.030919 L796.693501 190.446983 L791.131454 178.984288 L806.415047 171.568224 L796.217960 150.553283 L824.592531 160.387696 L820.884499 152.745899 L845.087535 153.983290 L842.770015 149.207167 Z" fill="#888" fill-opacity="0.18" stroke="#000" stroke-width="1"/>
  <path d="M663.351066 139.925368 L677.627569 163.552248 L672.377493 164.338989 L687.074619 183.608461 L678.674499 184.867245 L702.821760 202.720585 L679.721430 206.182242 L682.238998 222.982482 L669.638818 224.870658 L667.121249 208.070418 L644.020919 211.532075 L661.874259 187.384814 L653.474138 188.643598 L661.877343 165.912469 L656.627268 166.699209 Z" fill="#888" fill-opacity="0.18" stroke="#000" stroke-width="1"/>
  <path d="M347.965293 539.991569 L338.969658 566.089970 L335.002163 562.562757 L329.621799 586.192605 L323.273807 580.549064 L325.034933 610.527897 L307.577956 595.008158 L296.290873 607.704141 L286.768885 599.238829 L298.055968 586.542846 L280.598991 571.023107 L310.577824 569.261981 L304.229832 563.618440 L327.067174 555.508330 L323.099679 551.981117 Z" fill="#888" fill-opacity="0.18" stroke="#000" stroke-width="1"/>
  <path d="M226.352881 391.861175 L201.601007 379.638543 L205.601465 376.148760 L182.841325 367.824450 L189.242058 362.240798 L159.281094 360.198098 L176.883109 344.843053 L165.715804 332.041587 L175.316903 323.666108 L186.484208 336.467574 L204.086223 321.112528 L202.043523 351.073492 L208.444256 345.489839 L213.602381 369.169194 L217.602839 365.679411 Z" fill="#888" fill-opacity="0.18" stroke="#000" stroke-width="1"/>
  <path d="M85.385299 564.817783 L80.614864 537.627878 L85.794317 538.792143 L79.056579 515.512947 L87.343704 517.375771 L71.282950 492.000899 L94.072544 497.123664 L97.798191 480.549413 L110.228879 483.343648 L106.503232 499.917899 L129.292827 505.040664 L103.917954 521.101418 L112.205080 522.964242 L96.153223 541.120672 L101.332677 542.284937 Z" fill="#888" fill-opacity="0.18" stroke="#000" stroke-width="1"/>
  <path d="M887.081257 268.913398 L863.022792 282.449952 L862.399326 277.177994 L842.683121 291.270166 L841.685574 282.835034 L823.091609 306.416730 L820.348357 283.220116 L803.478092 285.215208 L801.981773 272.562509 L818.852038 270.567417 L816.108786 247.370803 L839.690482 265.964769 L838.692936 257.529636 L861.152393 266.634078 L860.528927 261.362120 Z" fill="#888" fill-opacity="0.18" stroke="#000" stroke-width="1"/>
  <path d="M598.830198 364.882101 L607.643089 338.721425 L611.635155 342.220805 L616.850129 318.553906 L623.237435 324.152913 L621.266690 294.187131 L638.831780 309.584401 L650.029795 296.809790 L659.610753 305.208302 L648.412738 317.982913 L665.977828 333.380184 L636.012046 335.350928 L642.399351 340.949936 L619.619287 349.219564 L623.611353 352.718944 Z" fill="#888" fill-opacity="0.18" stroke="#000" stroke-width="1"/>
  <path d="M299.275638 452.690937 L315.719176 474.864301 L310.566838 476.143231 L327.017699 493.938938 L318.773958 495.985225 L344.499029 511.478860 L321.828741 517.106150 L325.921315 533.593632 L313.555704 536.663063 L309.463129 520.175580 L286.792842 525.802870 L302.286476 500.077800 L294.042735 502.124087 L300.262161 478.701089 L295.109823 479.980019 Z" fill="#888" fill-opacity="0.18" stroke="#000" stroke-width="1"/>
  <path d="M643.392446 605.000637 L622.001395 622.449732 L620.486100 617.361890 L603.468381 634.616319 L601.043910 626.475772 L586.753720 652.888315 L580.086426 630.501812 L563.805333 635.350753 L560.168627 623.139933 L576.449720 618.290992 L569.782426 595.904488 L596.194969 610.194679 L593.770499 602.054132 L617.455512 607.186207 L615.940218 602.098366 Z" fill="#888" fill-opacity="0.18" stroke="#000" stroke-width="1"/>
  <path d="M373.865304 58.448620 L401.456625 57.572818 L399.571314 62.535464 L423.569580 59.158885 L420.553084 67.099118 L447.944909 54.789776 L439.649543 76.625418 L455.530010 82.658411 L451.005265 94.568761 L435.124798 88.535768 L426.829432 110.371410 L414.520091 82.979585 L411.503594 90.919818 L395.800693 72.460756 L393.915383 77.423402 Z" fill="#888" fill-opacity="0.18" stroke="#000" stroke-width="1"/>
  <path d="M810.492090 569.151237 L813.353593 541.694730 L818.015879 544.233495 L817.913912 519.999064 L825.373571 524.061089 L816.879488 495.256879 L837.393549 506.427449 L845.517600 491.508132 L856.707088 497.601170 L848.583037 512.520487 L869.097098 523.691057 L840.292888 532.185140 L847.752547 536.247166 L827.340453 549.311027 L832.002739 551.849793 Z" fill="#888" fill-opacity="0.18" stroke="#000" stroke-width="1"/>
  <path d="M492.297935 709.434817 L485.990898 736.309886 L481.686672 733.202492 L478.726395 757.255659 L471.839634 752.283830 L476.626962 781.930304 L457.688371 768.257774 L447.744712 782.031295 L437.414572 774.573551 L447.358230 760.800030 L428.419639 747.127499 L458.066113 742.340171 L451.179353 737.368342 L473.078222 726.987706 L468.773996 723.880312 Z" fill="#888" fill-opacity="0.18" stroke="#000" stroke-width="1"/>
  <path d="M914.267218 206.267009 L941.101772 212.744254 L937.967161 217.028698 L962.001082 220.141365 L956.985705 226.996476 L986.661926 222.397144 L972.869637 241.248698 L986.579858 251.279454 L979.056792 261.562120 L965.346570 251.531364 L951.554281 270.382919 L946.954949 240.706697 L941.939571 247.561808 L931.697939 225.597586 L928.563328 229.882031 Z" fill="#888" fill-opacity="0.18" stroke="#000" stroke-width="1"/>
  <path d="M516.336612 973.222082 L508.821137 999.784567 L504.661781 996.485778 L500.617208 1020.380537 L493.962239 1015.102475 L497.404506 1044.935054 L479.103341 1030.420383 L468.547216 1043.730321 L458.564763 1035.813228 L469.120887 1022.503289 L450.819721 1007.988618 L480.652300 1004.546350 L473.997331 999.268288 L496.343069 989.888201 L492.183714 986.589412 Z" fill="#888" fill-opacity="0.18" stroke="#000" stroke-width="1"/>
  <path d="M215.001248 717.238398 L242.085148 722.577908 L239.134059 726.990767 L263.277890 729.086835 L258.556147 736.147408 L288.011939 730.300330 L275.027146 749.716908 L289.148294 759.160394 L282.065680 769.751255 L267.944532 760.307769 L254.959740 779.724347 L249.112662 750.268556 L244.390919 757.329130 L233.231881 735.816484 L230.280792 740.229343 Z" fill="#888" fill-opacity="0.18" stroke="#000" stroke-width="1"/>
  <path d="M193.052977 632.712574 L212.726005 613.347142 L214.708550 618.271750 L230.045384 599.507433 L233.217456 607.386806 L244.985708 579.758194 L253.708906 601.426469 L269.467651 595.082325 L274.225759 606.901384 L258.467014 613.245528 L267.190211 634.913804 L239.561599 623.145551 L242.733671 631.024924 L218.673640 628.120966 L220.656185 633.045574 Z" fill="#888" fill-opacity="0.18" stroke="#000" stroke-width="1"/>
  <path d="M337.040640 788.293080 L345.014311 814.721636 L339.733083 814.182305 L349.194465 836.493745 L340.744499 835.630816 L359.712092 858.913050 L336.474687 856.539997 L334.748831 873.439928 L322.073883 872.145535 L323.799740 855.245605 L300.562335 852.872552 L323.844569 833.904960 L315.394604 833.042032 L329.170627 813.103645 L323.889398 812.564315 Z" fill="#888" fill-opacity="0.18" stroke="#000" stroke-width="1"/>
  <path d="M424.016358 161.372748 L399.500575 148.683210 L403.566454 145.269871 L380.968166 136.515703 L387.473571 131.054361 L357.556703 128.444202 L375.446567 113.425512 L364.523883 100.414701 L374.281991 92.222688 L385.204676 105.233498 L403.094541 90.214808 L400.484382 120.131676 L406.989788 114.670334 L411.698210 138.443193 L415.764089 135.029855 Z" fill="#888" fill-opacity="0.18" stroke="#000" stroke-width="1"/>
  <path d="M1048.269820 592.117332 L1023.318595 580.306982 L1027.260612 576.751317 L1004.365515 568.805713 L1010.672742 563.116649 L980.682015 561.571243 L998.026888 545.926316 L986.648760 533.311863 L996.109600 524.778267 L1007.487728 537.392720 L1024.832602 521.747794 L1023.287195 551.738521 L1029.594422 546.049457 L1035.144645 569.639987 L1039.086662 566.084322 Z" fill="#888" fill-opacity="0.18" stroke="#000" stroke-width="1"/>
  <path d="M1014.995009 764.515896 L1002.221944 740.043527 L1007.510905 739.586205 L994.045905 719.436470 L1002.508242 718.704755 L979.523113 699.378199 L1002.794540 697.365984 L1001.331111 680.441309 L1014.024617 679.343738 L1015.488046 696.268412 L1038.759473 694.256197 L1019.432916 717.241326 L1027.895253 716.509612 L1018.088826 738.671562 L1023.377787 738.214241 Z" fill="#888" fill-opacity="0.18" stroke="#000" stroke-width="1"/>
  <path d="M1001.078717 314.931865 L1019.994964 335.037178 L1015.026843 336.908012 L1033.440046 352.664662 L1025.491052 355.657996 L1052.846874 368.047144 L1030.987141 376.278815 L1036.973810 392.176803 L1025.050319 396.666805 L1019.063650 380.768817 L997.203917 389.000487 L1009.593064 361.644666 L1001.644071 364.638001 L1005.090600 340.649681 L1000.122479 342.520515 Z" fill="#888" fill-opacity="0.18" stroke="#000" stroke-width="1"/>
  <path d="M307.396288 432.129805 L334.305922 425.971916 L333.408681 431.204240 L356.311905 423.282094 L354.876319 431.653811 L379.394577 414.313483 L375.446715 437.335706 L392.190150 440.206878 L390.036771 452.764454 L373.293336 449.893281 L369.345475 472.915504 L352.005147 448.397245 L350.569561 456.768963 L331.614198 441.668886 L330.716957 446.901210 Z" fill="#888" fill-opacity="0.18" stroke="#000" stroke-width="1"/>
  <path d="M696.804686 272.086411 L722.098938 283.143029 L718.265348 286.815335 L741.388473 294.070620 L735.254730 299.946311 L765.278316 300.591444 L748.410521 316.749593 L760.161902 329.017081 L750.961287 337.830617 L739.209905 325.563130 L722.342109 341.721280 L722.987242 311.697693 L716.853498 317.573384 L710.598169 294.159949 L706.764579 297.832256 Z" fill="#888" fill-opacity="0.18" stroke="#000" stroke-width="1"/>
  <path d="M895.240924 319.885326 L891.289670 292.564352 L896.431800 293.883728 L890.396619 270.412583 L898.624026 272.523585 L883.333012 246.677563 L905.958381 252.482817 L910.180385 236.028002 L922.521495 239.194505 L918.299492 255.649319 L940.924862 261.454573 L915.078840 276.745588 L923.306247 278.856589 L906.716059 296.522480 L911.858188 297.841856 Z" fill="#888" fill-opacity="0.18" stroke="#000" stroke-width="1"/>
  <path d="M99.576297 392.839920 L115.763228 415.201299 L110.596494 416.420771 L126.841195 434.404869 L118.574421 436.356023 L144.119243 452.145072 L121.385614 457.510747 L125.287923 474.044295 L112.887762 476.971027 L108.985453 460.437479 L86.251824 465.803154 L102.040873 440.258332 L93.774099 442.209487 L100.263027 418.859714 L95.096293 420.079186 Z" fill="#888" fill-opacity="0.18" stroke="#000" stroke-width="1"/>
  <path d="M793.596516 215.928596 L772.474341 198.154972 L777.191713 195.720091 L757.073968 182.207341 L764.621764 178.311530 L736.012749 169.181567 L756.769187 158.468089 L748.977566 143.372497 L760.299260 137.528782 L768.090880 152.624373 L788.847318 141.910895 L779.717355 170.519910 L787.265151 166.624100 L786.626458 190.850328 L791.343830 188.415446 Z" fill="#888" fill-opacity="0.18" stroke="#000" stroke-width="1"/>
  <path d="M822.011093 911.727413 L840.955749 891.648867 L843.118756 896.496924 L857.752367 877.179173 L861.213177 884.936063 L871.953376 856.891810 L881.470606 878.223258 L896.984386 871.301636 L902.175602 882.936971 L886.661822 889.858593 L896.179052 911.190041 L868.134799 900.449843 L871.595610 908.206733 L847.444770 906.193037 L849.607777 911.041093 Z" fill="#888" fill-opacity="0.18" stroke="#000" stroke-width="1"/>
  <path d="M184.847370 940.120624 L159.475189 929.244023 L163.282587 925.544568 L140.108491 918.453776 L146.200328 912.534648 L116.172915 912.102876 L132.925467 895.825273 L121.087210 883.641599 L130.224966 874.762907 L142.063222 886.946581 L158.815774 870.668979 L158.384002 900.696392 L164.475839 894.777263 L170.897383 918.145657 L174.704782 914.446202 Z" fill="#888" fill-opacity="0.18" stroke="#000" stroke-width="1"/>
  <path d="M423.238831 659.674623 L438.039770 682.976559 L432.808588 683.880429 L447.932668 702.816645 L439.562776 704.262836 L464.102985 721.572086 L441.085782 725.549113 L443.978166 742.288897 L431.423328 744.458184 L428.530945 727.718401 L405.513743 731.695428 L422.822993 707.155219 L414.453101 708.601411 L422.346223 685.688168 L417.115041 686.592038 Z" fill="#888" fill-opacity="0.18" stroke="#000" stroke-width="1"/>
  <path d="M63.420488 331.877366 L80.367988 353.667966 L75.246321 355.064667 L92.100794 372.478593 L83.906127 374.713315 L109.979601 389.613178 L87.444265 395.758664 L91.913709 412.147999 L79.621708 415.500082 L75.152264 399.110747 L52.616929 405.256233 L67.516792 379.182759 L59.322124 381.417481 L65.002987 357.858070 L59.881320 359.254771 Z" fill="#888" fill-opacity="0.18" stroke="#000" stroke-width="1"/>
  <path d="M837.876693 996.827639 L839.517931 969.271254 L844.288204 971.600793 L843.111756 947.394718 L850.744192 951.121979 L840.981254 922.722736 L861.970454 932.972704 L869.424976 917.707831 L880.873630 923.298723 L873.419108 938.563595 L894.408308 948.813563 L866.009065 958.576501 L873.641501 962.303762 L853.828749 976.259869 L858.599022 978.589407 Z" fill="#888" fill-opacity="0.18" stroke="#000" stroke-width="1"/>
  <path d="M578.287689 750.404506 L578.598106 722.801034 L583.475170 724.897815 L581.132750 700.776639 L588.936053 704.131487 L577.814916 676.236107 L599.274001 685.461940 L605.983698 669.855333 L617.688654 674.887606 L610.978956 690.494213 L632.438041 699.720047 L604.542660 710.841185 L612.345964 714.196033 L593.229300 729.091376 L598.106365 731.188156 Z" fill="#888" fill-opacity="0.18" stroke="#000" stroke-width="1"/>
  <path d="M58.479695 734.007739 L85.005735 741.650855 L81.686984 745.794300 L105.562018 749.953726 L100.252016 756.583238 L130.100802 753.284462 L115.498296 771.515622 L128.757321 782.135626 L120.792318 792.079894 L107.533293 781.459890 L92.930788 799.691050 L89.632012 769.842263 L84.322010 776.471776 L75.049481 754.081191 L71.730730 758.224636 Z" fill="#888" fill-opacity="0.18" stroke="#000" stroke-width="1"/>
  <path d="M982.785500 742.301140 L956.218057 734.803206 L959.514099 730.641673 L935.616675 726.612879 L940.890342 719.954426 L911.060042 723.416391 L925.562626 705.105645 L912.245720 694.558312 L920.156221 684.570632 L933.473126 695.117966 L947.975710 676.807220 L951.437675 706.637520 L956.711342 699.979067 L966.106183 722.318607 L969.402224 718.157074 Z" fill="#888" fill-opacity="0.18" stroke="#000" stroke-width="1"/>
  <path d="M192.108697 159.049703 L164.507918 159.544667 L166.461532 154.608511 L142.418955 157.653597 L145.544738 149.755747 L117.985655 161.685915 L126.581558 139.966827 L110.785858 133.715261 L115.474532 121.868486 L131.270233 128.120052 L139.866136 106.400964 L151.796304 133.960047 L154.922087 126.062196 L170.368761 144.736198 L172.322375 139.800042 Z" fill="#888" fill-opacity="0.18" stroke="#000" stroke-width="1"/>
  <path d="M214.380846 306.930850 L213.404024 279.342921 L218.373539 281.210047 L214.909112 257.224306 L222.860337 260.211708 L210.450782 232.865138 L232.316651 241.080496 L238.291457 225.178046 L250.218294 229.659151 L244.243489 245.561601 L266.109358 253.776959 L238.762788 266.186514 L246.714013 269.173917 L228.312571 284.944301 L233.282087 286.811428 Z" fill="#888" fill-opacity="0.18" stroke="#000" stroke-width="1"/>
  <path d="M700.431385 364.671662 L726.250827 354.904144 L726.074984 360.209927 L747.684969 349.240579 L747.403620 357.729831 L769.330123 337.210074 L768.556413 360.555517 L785.534917 361.118215 L785.112893 373.852093 L768.134389 373.289395 L767.360678 396.634838 L746.840921 374.708335 L746.559572 383.197587 L725.723297 370.821492 L725.547454 376.127274 Z" fill="#888" fill-opacity="0.18" stroke="#000" stroke-width="1"/>
  <path d="M62.943966 200.386939 L88.697860 210.326002 L85.028655 214.162561 L108.447142 220.398948 L102.576415 226.537443 L132.599470 225.868024 L116.454971 242.748885 L128.731961 254.490339 L119.925870 263.698081 L107.648880 251.956627 L91.504380 268.837488 L90.834961 238.814433 L84.964234 244.952928 L77.690246 221.835680 L74.021042 225.672239 Z" fill="#888" fill-opacity="0.18" stroke="#000" stroke-width="1"/>
  <path d="M115.486771 578.395178 L141.254798 588.297540 L137.591064 592.139323 L161.018412 598.342339 L155.156436 604.489192 L185.178507 603.776999 L169.058074 620.680844 L181.351780 632.404796 L172.558816 641.625075 L160.265111 629.901123 L144.144678 646.804968 L143.432485 616.782897 L137.570509 622.929750 L130.263594 599.822888 L126.599859 603.664671 Z" fill="#888" fill-opacity="0.18" stroke="#000" stroke-width="1"/>
  <path d="M368.055473 656.402695 L346.967672 674.217089 L345.365102 669.156060 L328.646638 686.700604 L326.082526 678.602957 L312.248688 705.257354 L305.197380 682.988824 L289.002086 688.117048 L285.155919 675.970577 L301.351213 670.842354 L294.299905 648.573824 L320.954302 662.407663 L318.390191 654.310015 L342.159962 659.034001 L340.557392 653.972971 Z" fill="#888" fill-opacity="0.18" stroke="#000" stroke-width="1"/>
  <path d="M144.863170 1015.068325 L122.591346 998.758394 L127.133924 996.011172 L106.151362 983.884748 L113.419487 979.489192 L84.260284 972.307768 L104.247629 960.219990 L95.456517 945.683739 L106.358705 939.090405 L115.149817 953.626656 L135.137162 941.538877 L127.955738 970.698080 L135.223863 966.302524 L136.219081 990.516727 L140.761659 987.769505 Z" fill="#888" fill-opacity="0.18" stroke="#000" stroke-width="1"/>
  <path d="M418.266331 936.823594 L441.356803 921.694875 L442.334499 926.912763 L461.055121 911.522623 L462.619435 919.871245 L479.580203 895.088906 L483.882067 918.047615 L500.579309 914.918986 L502.925780 927.441918 L486.228538 930.570547 L490.530402 953.529255 L465.748063 936.568487 L467.312377 944.917109 L444.289892 937.348540 L445.267588 942.566428 Z" fill="#888" fill-opacity="0.18" stroke="#000" stroke-width="1"/>
  <path d="M281.898168 276.014065 L305.581360 261.831173 L306.347318 267.084320 L325.674800 252.463565 L326.900333 260.868601 L344.849091 236.792180 L348.219305 259.906028 L365.029377 257.454964 L366.867676 270.062517 L350.057604 272.513582 L353.427818 295.627431 L329.351398 277.678672 L330.576930 286.083708 L307.879233 277.590615 L308.645191 282.843762 Z" fill="#888" fill-opacity="0.18" stroke="#000" stroke-width="1"/>
  <path d="M445.731035 185.647401 L468.942164 200.590343 L464.572771 203.605415 L486.245721 214.449828 L479.254693 219.273943 L508.792550 224.691227 L489.567222 237.957542 L499.215451 251.939598 L488.728908 259.175770 L479.080679 245.193714 L459.855352 258.460028 L465.272636 228.922172 L458.281608 233.746286 L455.833986 209.635558 L451.464593 212.650629 Z" fill="#888" fill-opacity="0.18" stroke="#000" stroke-width="1"/>
  <path d="M641.355792 202.811441 L623.159535 182.052245 L628.190476 180.357583 L610.343759 163.962073 L618.393266 161.250614 L591.490854 147.905494 L613.626997 140.448984 L608.204080 124.349971 L620.278340 120.282784 L625.701256 136.381797 L647.837399 128.925287 L634.492278 155.827698 L642.541785 153.116240 L638.252359 176.968261 L643.283300 175.273599 Z" fill="#888" fill-opacity="0.18" stroke="#000" stroke-width="1"/>
  <path d="M519.617062 648.094707 L497.049106 663.992360 L495.896265 658.810352 L477.704484 674.822134 L475.859938 666.530921 L459.743271 691.870317 L454.670770 669.069482 L438.088344 672.758574 L435.321526 660.321755 L451.903951 656.632663 L446.831450 633.831828 L472.170847 649.948495 L470.326301 641.657283 L493.590583 648.446336 L492.437742 643.264328 Z" fill="#888" fill-opacity="0.18" stroke="#000" stroke-width="1"/>
  <path d="M74.976576 785.054264 L90.186673 808.091212 L84.972267 809.087313 L100.428364 827.753515 L92.085314 829.347277 L116.927343 846.220498 L93.983956 850.603342 L97.171479 867.289442 L84.656904 869.680084 L81.469381 852.993984 L58.525994 857.376828 L75.399215 832.534800 L67.056165 834.128561 L74.543454 811.079515 L69.329048 812.075616 Z" fill="#888" fill-opacity="0.18" stroke="#000" stroke-width="1"/>
  <path d="M230.743897 877.978885 L243.371554 853.431170 L246.795138 857.488426 L255.492274 834.868128 L260.970009 841.359736 L263.504693 811.436378 L278.568463 829.288301 L291.551680 818.332832 L299.768282 828.070245 L286.785065 839.025714 L301.848836 856.877637 L271.925478 854.342953 L277.403213 860.834561 L253.642306 865.602936 L257.065890 869.660192 Z" fill="#888" fill-opacity="0.18" stroke="#000" stroke-width="1"/>
  <path d="M235.627864 891.291605 L263.045184 894.506973 L260.446500 899.136130 L284.680231 899.346720 L280.522337 906.753371 L309.433699 898.631478 L297.999491 918.999768 L312.812792 927.315556 L306.575951 938.425532 L291.762650 930.109744 L280.328442 950.478034 L272.206549 921.566672 L268.048656 928.973323 L255.249133 908.394444 L252.650449 913.023600 Z" fill="#888" fill-opacity="0.18" stroke="#000" stroke-width="1"/>
  <path d="M834.451076 221.226446 L817.419425 242.951337 L814.822673 238.321096 L802.014565 258.894633 L797.859762 251.486248 L789.725808 280.394219 L778.300099 260.021160 L763.483329 268.330766 L757.251124 257.218189 L772.067894 248.908583 L760.642185 228.535524 L789.550156 236.669478 L785.395353 229.261093 L809.629169 229.060615 L807.032417 224.430374 Z" fill="#888" fill-opacity="0.18" stroke="#000" stroke-width="1"/>
  <path d="M635.583820 811.654620 L612.893025 827.376445 L611.780481 822.185637 L593.464842 838.055590 L591.684772 829.750295 L575.371710 854.963704 L570.476520 832.124145 L553.865931 835.684284 L551.195827 823.226343 L567.806415 819.666204 L562.911225 796.826646 L588.124633 813.139707 L586.344564 804.834413 L609.555395 811.804019 L608.442851 806.613210 Z" fill="#888" fill-opacity="0.18" stroke="#000" stroke-width="1"/>
  <path d="M902.360951 579.991508 L927.407719 568.385155 L927.615447 573.689785 L948.376965 561.188689 L948.709329 569.676096 L969.096938 547.626666 L970.010940 570.967037 L986.985756 570.302309 L987.484302 583.033421 L970.509487 583.698149 L971.423488 607.038521 L949.374058 586.650912 L949.706422 595.138320 L928.030902 584.299045 L928.238630 589.603675 Z" fill="#888" fill-opacity="0.18" stroke="#000" stroke-width="1"/>
  <path d="M671.830489 791.061851 L697.955944 799.978610 L694.440731 803.956741 L718.086724 809.265704 L712.462384 815.630714 L742.435760 813.779040 L726.968824 831.282817 L739.698843 842.531498 L731.262333 852.079013 L718.532313 840.830332 L703.065377 858.334109 L701.213703 828.360733 L695.589362 834.725743 L687.410306 811.913003 L683.895093 815.891135 Z" fill="#888" fill-opacity="0.18" stroke="#000" stroke-width="1"/>
  <path d="M199.053468 96.104244 L171.675044 99.635524 L173.073221 94.514259 L149.512174 100.188334 L151.749257 91.994310 L125.671491 106.886661 L131.823470 84.353097 L115.435423 79.878931 L118.791048 67.587896 L135.179094 72.062062 L141.331072 49.528498 L156.223423 75.606264 L158.460506 67.412241 L175.869575 84.271730 L177.267752 79.150466 Z" fill="#888" fill-opacity="0.18" stroke="#000" stroke-width="1"/>
  <path d="M203.938087 316.177053 L224.701880 297.986041 L226.395271 303.017411 L242.795290 285.174838 L245.504714 293.225029 L258.856632 266.325991 L266.307548 288.464016 L282.407931 283.045168 L286.472067 295.120455 L270.371685 300.539303 L277.822601 322.677329 L250.923563 309.325411 L253.632987 317.375603 L229.782051 313.080150 L231.475441 318.111519 Z" fill="#888" fill-opacity="0.18" stroke="#000" stroke-width="1"/>
  <path d="M784.462470 853.651837 L808.968884 840.944215 L809.412071 846.234379 L829.597717 832.823274 L830.306815 841.287536 L849.694726 818.354136 L851.644745 841.630857 L868.573270 840.212662 L869.636917 852.909055 L852.708392 854.327251 L854.658411 877.603972 L831.725011 858.216061 L832.434108 866.680323 L810.298443 856.814707 L810.741629 862.104871 Z" fill="#888" fill-opacity="0.18" stroke="#000" stroke-width="1"/>
  <path d="M698.917893 441.760081 L672.500927 433.748097 L675.877090 429.651297 L652.062330 425.159604 L657.464192 418.604724 L627.572339 421.487271 L642.427457 403.461351 L629.317697 392.657629 L637.420488 382.825309 L650.530249 393.629031 L665.385367 375.603111 L668.267914 405.494964 L673.669775 398.940084 L682.629416 421.457697 L686.005580 417.360897 Z" fill="#888" fill-opacity="0.18" stroke="#000" stroke-width="1"/>
  <path d="M46.687867 864.428660 L72.375440 874.537894 L68.680933 878.350094 L92.057647 884.741282 L86.146436 890.840802 L116.173263 890.370031 L99.917432 907.143710 L112.116472 918.966132 L103.249655 928.115412 L91.050616 916.292989 L74.794785 933.066668 L74.324014 903.039841 L68.412803 909.139361 L61.291919 885.974493 L57.597412 889.786693 Z" fill="#888" fill-opacity="0.18" stroke="#000" stroke-width="1"/>
  <path d="M889.121532 816.245627 L862.746364 808.097100 L866.143674 804.017819 L842.352468 799.402996 L847.788164 792.876147 L817.881800 795.604030 L832.829965 777.655194 L819.776266 766.783801 L827.929811 756.993527 L840.983509 767.864920 L855.931674 749.916084 L858.659557 779.822448 L864.095253 773.295599 L872.938294 795.859257 L876.335605 791.779976 Z" fill="#888" fill-opacity="0.18" stroke="#000" stroke-width="1"/>
  <path d="M1059.611147 985.760004 L1032.006420 985.924578 L1034.018976 981.012158 L1009.941674 983.769260 L1013.161763 975.909388 L985.461861 987.508846 L994.317106 965.894198 L978.597362 959.454020 L983.427495 947.664213 L999.147239 954.104390 L1008.002483 932.489743 L1019.601941 960.189644 L1022.822029 952.329772 L1038.044087 971.187318 L1040.056642 966.274898 Z" fill="#888" fill-opacity="0.18" stroke="#000" stroke-width="1"/>
  <path d="M225.991567 99.496342 L248.826583 115.007953 L244.384063 117.914197 L265.782587 129.290542 L258.674554 133.940534 L288.069616 140.085638 L268.522524 152.873114 L277.822507 167.089181 L267.160457 174.064168 L257.860474 159.848102 L238.313383 172.635578 L244.458487 143.240516 L237.350454 147.890508 L235.499021 123.726687 L231.056500 126.632931 Z" fill="#888" fill-opacity="0.18" stroke="#000" stroke-width="1"/>
  <path d="M404.351466 839.434365 L404.005126 811.831321 L408.930692 813.811486 L406.015107 789.752861 L413.896012 792.921125 L402.114408 765.298203 L423.786897 774.010928 L430.123424 758.249118 L441.944782 763.001514 L435.608254 778.763324 L457.280743 787.476049 L429.657821 799.257652 L437.538726 802.425915 L418.781823 817.771815 L423.707389 819.751980 Z" fill="#888" fill-opacity="0.18" stroke="#000" stroke-width="1"/>
  <path d="M103.467104 119.194710 L81.350729 102.674601 L85.919119 99.970519 L65.052333 87.645939 L72.361757 83.319408 L43.271868 75.862175 L63.372785 63.964214 L54.719722 49.345366 L65.683859 42.855569 L74.336921 57.474417 L94.437838 45.576456 L86.980606 74.666345 L94.290030 70.339814 L95.055900 94.562355 L99.624290 91.858273 Z" fill="#888" fill-opacity="0.18" stroke="#000" stroke-width="1"/>
  <path d="M1051.179235 62.251872 L1027.790273 76.914903 L1026.917321 71.678472 L1007.892093 86.690427 L1006.495370 78.312138 L989.041456 102.749668 L985.200468 79.709374 L968.443890 82.502820 L966.348806 69.935387 L983.105383 67.141941 L979.264395 44.101647 L1003.701924 61.555561 L1002.305201 53.177272 L1025.171417 61.205611 L1024.298465 55.969181 Z" fill="#888" fill-opacity="0.18" stroke="#000" stroke-width="1"/>
  <path d="M599.102633 1054.586405 L613.473626 1031.016878 L616.594622 1035.311250 L626.905918 1013.379647 L631.899512 1020.250642 L636.593014 990.589168 L650.325398 1009.484405 L664.067389 999.497217 L671.557780 1009.803709 L657.815790 1019.790898 L671.548174 1038.686134 L641.886700 1033.992632 L646.880295 1040.863627 L622.836615 1043.899994 L625.957611 1048.194366 Z" fill="#888" fill-opacity="0.18" stroke="#000" stroke-width="1"/>
  <path d="M68.447575 161.189878 L95.936608 158.659851 L94.352513 163.726693 L118.104892 158.916021 L115.570340 167.022969 L142.174090 153.091981 L135.204071 175.386087 L151.417966 180.455192 L147.616137 192.615614 L131.402242 187.546509 L124.432223 209.840615 L110.501235 183.236864 L107.966682 191.343812 L91.184323 173.860378 L89.600227 178.927220 Z" fill="#888" fill-opacity="0.18" stroke="#000" stroke-width="1"/>
  <path d="M541.557435 826.493982 L533.684643 852.952764 L529.570125 849.598217 L525.203875 873.436294 L518.620646 868.069018 L521.660528 897.945280 L503.556648 883.185271 L492.822096 896.351729 L482.947252 888.300815 L493.681805 875.134357 L475.577925 860.374347 L505.454188 857.334465 L498.870959 851.967189 L521.341089 842.889121 L517.226571 839.534574 Z" fill="#888" fill-opacity="0.18" stroke="#000" stroke-width="1"/>
  <path d="M895.333156 948.262084 L922.898692 949.741685 L920.597170 954.525538 L944.795929 953.207150 L941.113493 960.861314 L969.454992 950.931992 L959.328295 971.980944 L974.636623 979.345814 L969.112970 990.827060 L953.804642 983.462190 L943.677945 1004.511141 L933.748623 976.169642 L930.066187 983.823806 L915.994126 964.093243 L913.692604 968.877095 Z" fill="#888" fill-opacity="0.18" stroke="#000" stroke-width="1"/>
  <path d="M898.850153 333.853766 L926.177703 329.948258 L924.849720 335.088171 L948.330937 329.092294 L946.206164 337.316155 L972.077749 322.068434 L966.234624 344.684053 L982.682347 348.933598 L979.495188 361.269391 L963.047465 357.019845 L957.204340 379.635464 L941.956618 353.763878 L939.831845 361.987740 L922.193754 345.367998 L920.865771 350.507912 Z" fill="#888" fill-opacity="0.18" stroke="#000" stroke-width="1"/>
  <path d="M622.969046 649.540609 L649.461355 641.781387 L648.879242 647.058071 L671.266627 637.777821 L670.335245 646.220515 L693.770435 627.442234 L691.209135 650.659643 L708.094524 652.522406 L706.697451 665.186447 L689.812063 663.323684 L687.250763 686.541093 L668.472482 663.105903 L667.541100 671.548597 L647.715015 657.611439 L647.132901 662.888122 Z" fill="#888" fill-opacity="0.18" stroke="#000" stroke-width="1"/>
  <path d="M475.140037 204.473365 L502.325905 199.679974 L501.166014 204.860408 L524.439512 198.103016 L522.583686 206.391712 L547.944988 190.309538 L542.841468 213.103450 L559.418858 216.815101 L556.635120 229.248144 L540.057729 225.536492 L534.954209 248.330404 L518.872035 222.969102 L517.016209 231.257797 L498.846231 215.221277 L497.686340 220.401712 Z" fill="#888" fill-opacity="0.18" stroke="#000" stroke-width="1"/>
  <path d="M469.643968 153.755021 L452.781438 175.611441 L450.148829 171.001493 L437.500779 191.673816 L433.288604 184.297899 L425.379251 213.268127 L413.795770 192.984358 L399.043938 201.408708 L392.725675 190.344834 L407.477507 181.920484 L395.894026 161.636714 L424.864254 169.546067 L420.652079 162.170151 L444.883610 161.781598 L442.251001 157.171651 Z" fill="#888" fill-opacity="0.18" stroke="#000" stroke-width="1"/>
  <path d="M374.730278 567.840247 L372.271195 595.335718 L367.572227 592.865506 L368.029108 617.095845 L360.510759 613.143505 L369.425782 641.820226 L348.750322 630.951292 L340.845643 645.987990 L329.568120 640.059480 L337.472799 625.022783 L316.797340 614.153849 L345.474061 605.238826 L337.955712 601.286486 L358.174291 587.925081 L353.475323 585.454869 Z" fill="#888" fill-opacity="0.18" stroke="#000" stroke-width="1"/>
  <path d="M712.898574 857.031482 L704.493370 883.325978 L700.447395 879.889071 L695.600912 903.634169 L689.127351 898.135117 L691.563624 928.066648 L673.761332 912.944256 L662.763229 925.891378 L653.052887 917.642800 L664.050991 904.695679 L646.248699 889.573287 L676.180229 887.137014 L669.706669 881.637963 L692.355444 873.015257 L688.309468 869.578349 Z" fill="#888" fill-opacity="0.18" stroke="#000" stroke-width="1"/>
  <path d="M889.839885 301.395860 L895.245716 328.466600 L890.040420 327.423942 L897.321438 350.538977 L888.992963 348.870723 L905.643515 373.862544 L882.740210 369.274846 L879.403703 385.931795 L866.910991 383.429414 L870.247499 366.772465 L847.344194 362.184767 L872.336015 345.534216 L864.007540 343.865962 L879.629827 325.338625 L874.424530 324.295966 Z" fill="#888" fill-opacity="0.18" stroke="#000" stroke-width="1"/>
  <path d="M881.732383 739.297777 L861.236587 720.805337 L866.035230 718.534814 L846.396123 704.335393 L854.073952 700.702556 L825.797288 690.590076 L846.911317 680.599775 L839.645643 665.244117 L851.162386 659.794862 L858.428060 675.150520 L879.542089 665.160218 L869.429609 693.436882 L877.107438 689.804045 L875.632516 713.993768 L880.431159 711.723245 Z" fill="#888" fill-opacity="0.18" stroke="#000" stroke-width="1"/>
  <path d="M346.123286 373.029975 L373.487373 369.389268 L372.109681 374.516082 L395.647856 368.747859 L393.443550 376.950760 L419.461569 361.954274 L413.399726 384.512252 L429.805529 388.920865 L426.499069 401.225217 L410.093266 396.816604 L404.031423 419.374583 L389.034936 393.356563 L386.830630 401.559464 L369.354298 384.769708 L367.976606 389.896521 Z" fill="#888" fill-opacity="0.18" stroke="#000" stroke-width="1"/>
  <path d="M186.727606 859.730720 L188.446791 832.179088 L193.210455 834.522112 L192.102489 810.312806 L199.724350 814.061643 L190.041790 785.634896 L211.001909 795.944199 L218.499584 780.700476 L229.932377 786.323732 L222.434702 801.567455 L243.394821 811.876758 L214.968073 821.559318 L222.589935 825.308156 L202.737782 839.208158 L207.501445 841.551182 Z" fill="#888" fill-opacity="0.18" stroke="#000" stroke-width="1"/>
  <path d="M698.478490 307.959453 L701.045023 335.445103 L695.976081 333.867738 L700.818294 357.613707 L692.707987 355.089924 L706.674295 381.675149 L684.370952 374.734744 L679.323385 390.955358 L667.157925 387.169682 L672.205492 370.949069 L649.902148 364.008664 L676.487374 350.042356 L668.377067 347.518573 L685.838198 330.713009 L680.769256 329.135644 Z" fill="#888" fill-opacity="0.18" stroke="#000" stroke-width="1"/>
  <path d="M984.945840 937.224467 L957.984763 931.295865 L961.031340 926.948381 L936.938935 924.326537 L941.813458 917.370562 L912.237214 922.574189 L925.642154 903.445260 L911.730205 893.696213 L919.041990 883.262252 L932.953939 893.011299 L946.358879 873.882369 L951.562505 903.458614 L956.437029 896.502640 L967.124495 918.253413 L970.171072 913.905929 Z" fill="#888" fill-opacity="0.18" stroke="#000" stroke-width="1"/>
  <path d="M804.972641 618.142075 L807.639202 645.618200 L802.564552 644.059296 L807.493166 667.787483 L799.373727 665.293237 L813.436709 691.827450 L791.108251 684.968273 L786.119759 701.207152 L773.940600 697.465783 L778.929093 681.226904 L756.600635 674.367727 L783.134848 660.304744 L775.015409 657.810498 L792.415253 640.941489 L787.340604 639.382585 Z" fill="#888" fill-opacity="0.18" stroke="#000" stroke-width="1"/>
  <path d="M728.101928 580.794300 L737.654654 606.693980 L732.350515 606.474074 L743.139994 628.174424 L734.653371 627.822574 L754.990300 649.918756 L731.652089 648.951167 L730.948388 665.924411 L718.218454 665.396635 L718.922156 648.423391 L695.583944 647.455801 L717.680127 627.118872 L709.193504 626.767021 L721.742237 606.034260 L716.438098 605.814354 Z" fill="#888" fill-opacity="0.18" stroke="#000" stroke-width="1"/>
  <path d="M949.035298 792.145195 L943.768281 819.243286 L939.347541 816.304016 L937.316089 840.453369 L930.242905 835.750537 L936.168784 865.190577 L916.717529 852.257789 L907.311865 866.404156 L896.702090 859.349908 L906.107754 845.203541 L886.656498 832.270753 L916.096538 826.344873 L909.023354 821.642041 L930.506062 810.425476 L926.085322 807.486206 Z" fill="#888" fill-opacity="0.18" stroke="#000" stroke-width="1"/>
  <path d="M752.204876 521.188826 L728.220660 534.856503 L727.568425 529.588027 L707.929437 543.787611 L706.885862 535.358049 L688.420895 559.040890 L685.551064 535.859596 L668.691941 537.946746 L667.126579 525.302403 L683.985702 523.215254 L681.115871 500.033959 L704.798712 518.498926 L703.755137 510.069365 L726.263957 519.051075 L725.611722 513.782599 Z" fill="#888" fill-opacity="0.18" stroke="#000" stroke-width="1"/>
  <path d="M409.513950 438.633245 L436.252821 445.494786 L433.057069 449.733821 L457.043864 453.190953 L451.930660 459.973408 L481.669808 455.800278 L467.608499 474.452031 L481.173411 484.678438 L473.503605 494.852122 L459.938694 484.625715 L445.877384 503.277468 L441.704253 473.538320 L436.591050 480.320776 L426.665565 458.211890 L423.469813 462.450925 Z" fill="#888" fill-opacity="0.18" stroke="#000" stroke-width="1"/>
  <path d="M990.674936 459.581364 L965.301600 448.707458 L969.108605 445.007598 L945.933755 437.919269 L952.024964 431.999493 L921.997505 431.570911 L938.748328 415.291529 L926.908777 403.109112 L936.045590 394.229449 L947.885140 406.411866 L964.635963 390.132484 L964.207380 420.159943 L970.298589 414.240168 L976.722615 437.607879 L980.529620 433.908020 Z" fill="#888" fill-opacity="0.18" stroke="#000" stroke-width="1"/>
  <path d="M533.302139 419.936562 L560.561829 424.290559 L557.772681 428.807516 L581.976635 430.026802 L577.513999 437.253934 L606.738419 430.342697 L594.466168 450.217309 L608.920431 459.142582 L602.226476 469.983280 L587.772213 461.058006 L575.499961 480.932617 L568.588725 451.708197 L564.126088 458.935328 L552.194385 437.841430 L549.405237 442.358387 Z" fill="#888" fill-opacity="0.18" stroke="#000" stroke-width="1"/>
  <path d="M989.366199 505.888103 L990.803540 478.320331 L995.590915 480.614516 L994.235433 456.417807 L1001.895233 460.088504 L991.922475 431.762261 L1012.986926 441.856678 L1020.328320 426.537077 L1031.818020 432.043123 L1024.476626 447.362723 L1045.541077 457.457140 L1017.214833 467.429898 L1024.874634 471.100595 L1005.165666 485.202888 L1009.953041 487.497073 Z" fill="#888" fill-opacity="0.18" stroke="#000" stroke-width="1"/>
  <path d="M921.116648 388.588649 L903.135127 409.534124 L900.746989 404.792917 L887.036062 424.776123 L883.215042 417.190191 L873.802762 445.707571 L863.294957 424.846258 L848.123093 432.488298 L842.391563 421.109400 L857.563427 413.467360 L847.055622 392.606047 L875.573002 402.018327 L871.751982 394.432395 L895.970714 395.310502 L893.582577 390.569294 Z" fill="#888" fill-opacity="0.18" stroke="#000" stroke-width="1"/>
  <path d="M1039.199683 915.530923 L1020.550560 895.177589 L1025.542951 893.372518 L1007.339407 877.374110 L1015.327233 874.485996 L988.137385 861.736716 L1010.103906 853.794404 L1004.327679 837.818753 L1016.309417 833.486582 L1022.085644 849.462234 L1044.052165 841.519922 L1031.302884 868.709769 L1039.290710 865.821656 L1035.527733 889.762376 L1040.520124 887.957305 Z" fill="#888" fill-opacity="0.18" stroke="#000" stroke-width="1"/>
  <path d="M227.786094 499.595351 L238.073411 525.212125 L232.765159 525.143545 L244.168991 546.527433 L235.675787 546.417703 L256.634474 567.925037 L233.278163 567.623282 L233.058705 584.609690 L220.318898 584.445096 L220.538357 567.458688 L197.182045 567.156932 L218.689379 546.198245 L210.196175 546.088516 L222.148653 525.006383 L216.840401 524.937802 Z" fill="#888" fill-opacity="0.18" stroke="#000" stroke-width="1"/>
  <path d="M822.922276 643.945235 L815.635063 617.319223 L820.900569 617.995014 L812.019621 595.446249 L820.444431 596.527515 L802.085572 572.762325 L825.253799 575.735807 L827.416332 558.886188 L840.053546 560.508087 L837.891014 577.357707 L861.059241 580.331189 L837.294051 598.690048 L845.718860 599.771314 L831.431581 619.346597 L836.697087 620.022389 Z" fill="#888" fill-opacity="0.18" stroke="#000" stroke-width="1"/>
  <path d="M661.692876 795.562952 L667.547489 822.540192 L662.325596 821.584115 L669.989449 844.575057 L661.634420 843.045332 L678.697680 867.757215 L655.721352 863.550472 L652.661903 880.260529 L640.129361 877.965943 L643.188810 861.255886 L620.212481 857.049144 L644.924364 839.985884 L636.569335 838.456159 L651.881810 819.671959 L646.659917 818.715881 Z" fill="#888" fill-opacity="0.18" stroke="#000" stroke-width="1"/>
  <path d="M328.497494 210.573969 L338.531708 184.856999 L342.354675 188.540363 L348.677604 165.145094 L354.794352 171.038476 L354.235940 141.013151 L371.056995 157.219954 L382.843760 144.986459 L392.018881 153.826533 L380.232116 166.060028 L397.053171 182.266830 L367.027846 182.825242 L373.144594 188.718624 L350.000609 195.907092 L353.823576 199.590456 Z" fill="#888" fill-opacity="0.18" stroke="#000" stroke-width="1"/>
  <path d="M762.920575 494.282047 L760.709916 466.765488 L765.758022 468.408312 L761.223483 444.601674 L769.300453 447.230192 L755.679323 420.466471 L777.890991 427.694895 L783.148027 411.540955 L795.263483 415.483732 L790.006447 431.637672 L812.218115 438.866097 L785.454394 452.487228 L793.531365 455.115746 L775.854235 471.693960 L780.902342 473.336783 Z" fill="#888" fill-opacity="0.18" stroke="#000" stroke-width="1"/>
  <path d="M493.628968 134.134798 L484.001270 108.262894 L489.306024 108.467437 L478.453740 86.798427 L486.941346 87.125697 L466.540506 65.088508 L489.881422 65.988500 L490.535962 49.013288 L503.267370 49.504193 L502.612831 66.479404 L525.953746 67.379396 L503.916558 87.780236 L512.404163 88.107506 L499.915531 108.876525 L505.220284 109.081068 Z" fill="#888" fill-opacity="0.18" stroke="#000" stroke-width="1"/>
  <path d="M185.249359 482.391313 L164.969860 463.661926 L169.794566 461.447324 L150.321807 447.020623 L158.041337 443.477261 L129.884107 433.036841 L151.112814 423.292595 L144.026090 407.853536 L155.605384 402.538492 L162.692109 417.977552 L183.920816 408.233306 L173.480397 436.390536 L181.199927 432.847174 L179.443979 457.018122 L184.268685 454.803520 Z" fill="#888" fill-opacity="0.18" stroke="#000" stroke-width="1"/>
  <path d="M825.239111 694.364723 L808.147304 716.042319 L805.563397 711.404898 L792.698308 731.942852 L788.564057 724.522978 L780.350001 753.408290 L768.980810 733.003638 L754.141063 741.272140 L747.939686 730.142330 L762.779434 721.873827 L751.410243 701.469175 L780.295555 709.683231 L776.161304 702.263358 L800.395583 702.130056 L797.811676 697.492635 Z" fill="#888" fill-opacity="0.18" stroke="#000" stroke-width="1"/>
  <path d="M984.251632 536.733700 L965.428453 516.541227 L970.405163 514.693361 L952.064936 498.851829 L960.027671 495.895243 L932.729366 483.379871 L954.626888 475.249258 L948.713715 459.323787 L960.657818 454.888907 L966.570991 470.814378 L988.468513 462.683765 L975.953141 489.982069 L983.915877 487.025483 L980.358582 510.997628 L985.335292 509.149761 Z" fill="#888" fill-opacity="0.18" stroke="#000" stroke-width="1"/>
  <path d="M959.936998 609.613653 L987.243901 613.661004 L984.505695 618.209023 L1008.721824 619.156205 L1004.340694 626.433036 L1033.485595 619.193784 L1021.437488 639.205067 L1035.991149 647.967327 L1029.419454 658.882572 L1014.865793 650.120313 L1002.817687 670.131596 L995.578435 640.986696 L991.197305 648.263527 L979.029283 627.305061 L976.291077 631.853080 Z" fill="#888" fill-opacity="0.18" stroke="#000" stroke-width="1"/>
  <path d="M1058.219218 1051.500848 L1030.956837 1047.163729 L1033.743189 1042.645046 L1009.538484 1041.440745 L1013.996646 1034.210852 L984.776509 1041.140180 L997.036454 1021.257975 L982.576668 1012.341651 L989.263910 1001.496812 L1003.723696 1010.413135 L1015.983641 990.530930 L1022.912969 1019.751066 L1027.371131 1012.521173 L1039.315891 1033.607680 L1042.102242 1029.088997 Z" fill="#888" fill-opacity="0.18" stroke="#000" stroke-width="1"/>
  <path d="M581.262619 514.727804 L564.228870 536.451050 L561.632565 531.820559 L548.822470 552.392859 L544.668383 544.984073 L536.531636 573.891257 L525.107895 553.517095 L510.290323 561.825271 L504.059191 550.712091 L518.876764 542.403916 L507.453023 522.029754 L536.360207 530.166500 L532.206120 522.757714 L556.439956 522.559576 L553.843651 517.929085 Z" fill="#888" fill-opacity="0.18" stroke="#000" stroke-width="1"/>
  <path d="M135.725590 838.150588 L131.783055 810.828354 L136.924763 812.149371 L130.897074 788.676301 L139.123807 790.789929 L123.841042 764.939028 L146.464558 770.751503 L150.691813 754.298037 L163.031912 757.468477 L158.804658 773.921944 L181.428174 779.734418 L155.577273 795.017183 L163.804006 797.130810 L147.208180 814.791405 L152.349888 816.112422 Z" fill="#888" fill-opacity="0.18" stroke="#000" stroke-width="1"/>
  <path d="M124.464266 305.814374 L135.645769 331.053669 L130.338386 331.171740 L142.486909 352.141514 L133.995097 352.330427 L155.696909 373.087675 L132.344426 373.607185 L132.722251 390.590809 L119.984533 390.874178 L119.606708 373.890554 L96.254226 374.410064 L117.011474 352.708252 L108.519662 352.897165 L119.723622 331.407880 L114.416239 331.525951 Z" fill="#888" fill-opacity="0.18" stroke="#000" stroke-width="1"/>
  <path d="M531.533419 882.332908 L554.886929 897.052336 L550.546682 900.109215 L572.322739 910.745070 L565.378344 915.636075 L594.966845 920.769549 L575.869759 934.219814 L585.651770 948.108605 L575.235177 955.445113 L565.453166 941.556323 L546.356080 955.006588 L551.489554 925.418086 L544.545159 930.309092 L541.866188 906.222972 L537.525941 909.279850 Z" fill="#888" fill-opacity="0.18" stroke="#000" stroke-width="1"/>
  <path d="M916.707681 128.282458 L903.024679 104.306981 L908.292737 103.651380 L894.080604 84.021471 L902.509497 82.972509 L878.814860 64.522681 L901.994315 61.638036 L899.896391 44.780250 L912.539730 43.206807 L914.637654 60.064593 L937.817110 57.179947 L919.367283 80.874585 L927.796176 79.825623 L918.828853 102.340178 L924.096911 101.684576 Z" fill="#888" fill-opacity="0.18" stroke="#000" stroke-width="1"/>
  <path d="M406.267605 585.354845 L412.166213 612.322500 L406.942767 611.374941 L414.644111 634.353352 L406.286599 632.837258 L423.390144 657.521275 L400.406985 653.352015 L397.374796 670.067040 L384.838527 667.792899 L387.870716 651.077874 L364.887556 646.908614 L389.571574 629.805069 L381.214061 628.288975 L396.495877 609.479823 L391.272431 608.532264 Z" fill="#888" fill-opacity="0.18" stroke="#000" stroke-width="1"/>
  <path d="M561.422541 762.493183 L542.797060 782.868155 L540.557825 778.054832 L526.230849 797.601080 L522.648074 789.899763 L512.351720 818.109993 L502.499088 796.931372 L487.096455 804.096922 L481.722292 792.544947 L497.124926 785.379397 L487.272294 764.200776 L515.482524 774.497130 L511.899749 766.795813 L536.079356 768.428186 L533.840122 763.614863 Z" fill="#888" fill-opacity="0.18" stroke="#000" stroke-width="1"/>
  <path d="M575.116319 180.822055 L563.519064 155.771073 L568.823769 155.565272 L556.330214 134.799214 L564.817742 134.469933 L542.775718 114.074317 L566.116420 113.168792 L565.457857 96.193736 L578.189149 95.699814 L578.847712 112.674870 L602.188414 111.769346 L581.792798 133.811369 L590.280326 133.482088 L579.433179 155.153670 L584.737884 154.947869 Z" fill="#888" fill-opacity="0.18" stroke="#000" stroke-width="1"/>
  <path d="M874.780675 500.157850 L848.344654 492.208965 L851.711026 488.104115 L827.885609 483.669297 L833.271804 477.101538 L803.386919 480.055449 L818.198955 461.994111 L805.063436 451.221721 L813.142729 441.370082 L826.278247 452.142472 L841.090283 434.081134 L844.044194 463.966019 L849.430389 457.398260 L858.443769 479.894416 L861.810141 475.789567 Z" fill="#888" fill-opacity="0.18" stroke="#000" stroke-width="1"/>
  <path d="M59.264052 611.858740 L85.419742 620.686419 L81.918106 624.676506 L105.582053 629.904859 L99.979435 636.288998 L129.946327 634.335195 L114.539128 651.891577 L127.307407 663.096813 L118.903480 672.673021 L106.135202 661.467786 L90.728003 679.024168 L88.774200 649.057276 L83.171582 655.441415 L74.914834 632.656680 L71.413197 636.646767 Z" fill="#888" fill-opacity="0.18" stroke="#000" stroke-width="1"/>
  <path d="M150.675135 461.384888 L163.798301 485.671315 L158.516452 486.204538 L172.269409 506.158842 L163.818452 507.011998 L187.078736 526.006501 L163.838603 528.352681 L165.544916 545.254596 L152.868480 546.534330 L151.162167 529.632415 L127.922034 531.978595 L146.916537 508.718311 L138.465580 509.571467 L147.952756 487.270983 L142.670907 487.804206 Z" fill="#888" fill-opacity="0.18" stroke="#000" stroke-width="1"/>
  <path d="M51.049361 252.270746 L70.820429 271.536074 L65.938191 273.620781 L85.017942 288.563378 L77.206361 291.898908 L105.074140 303.089033 L83.592293 312.261743 L90.263355 327.884904 L78.545984 332.888200 L71.874922 317.265039 L50.393076 326.437749 L61.583200 298.569970 L53.771619 301.905501 L56.173715 277.790195 L51.291478 279.874902 Z" fill="#888" fill-opacity="0.18" stroke="#000" stroke-width="1"/>
  <path d="M340.272658 334.889273 L343.215719 362.337158 L338.125631 360.829426 L343.292895 384.506788 L335.148755 382.094416 L349.478177 408.485696 L327.081791 401.851674 L322.257048 418.139954 L310.040838 414.521397 L314.865581 398.233117 L292.469195 391.599095 L318.860474 377.269673 L310.716334 374.857301 L327.945456 357.813962 L322.855368 356.306229 Z" fill="#888" fill-opacity="0.18" stroke="#000" stroke-width="1"/>
  <path d="M1046.603334 300.731383 L1020.206087 308.808100 L1020.724809 303.524808 L998.450451 313.073160 L999.280407 304.619893 L976.072349 323.678172 L978.354728 300.431686 L961.448193 298.771774 L962.693127 286.091873 L979.599662 287.751785 L981.882040 264.505300 L1000.940319 287.713358 L1001.770275 279.260091 L1021.762254 292.958223 L1022.280977 287.674931 Z" fill="#888" fill-opacity="0.18" stroke="#000" stroke-width="1"/>
  <path d="M649.877148 130.636505 L634.644592 107.614402 L639.858024 106.613216 L624.383729 87.962096 L632.725221 86.360199 L607.866748 69.511214 L630.805850 65.105996 L627.602055 48.423013 L640.114293 46.020166 L643.318088 62.703150 L666.257189 58.297932 L649.408204 83.156404 L657.749696 81.554507 L650.284888 104.610845 L655.498321 103.609659 Z" fill="#888" fill-opacity="0.18" stroke="#000" stroke-width="1"/>
  <path d="M825.321340 743.509866 L810.872366 767.031669 L807.765609 762.726984 L797.381735 784.624318 L792.410924 777.736822 L787.619212 807.382588 L773.949483 788.441975 L760.174491 798.383597 L752.718275 788.052353 L766.493266 778.110732 L752.823536 759.170119 L782.469303 763.961831 L777.498492 757.074335 L801.552096 754.117614 L798.445339 749.812929 Z" fill="#888" fill-opacity="0.18" stroke="#000" stroke-width="1"/>
  <path d="M458.519454 1022.673644 L433.730207 1034.820300 L433.407520 1029.521420 L412.921914 1042.469702 L412.405615 1033.991495 L392.500845 1056.477760 L391.081023 1033.162691 L374.124609 1034.195289 L373.350161 1021.477978 L390.306574 1020.445380 L388.886752 997.130311 L411.373017 1017.035081 L410.856718 1008.556874 L432.762146 1018.923662 L432.439459 1013.624782 Z" fill="#888" fill-opacity="0.18" stroke="#000" stroke-width="1"/>
  <path d="M1050.105520 78.542965 L1043.566875 105.362624 L1039.289616 102.218215 L1036.121949 126.244949 L1029.278335 121.213895 L1033.809734 150.900565 L1014.989796 137.065166 L1004.927687 150.752393 L994.662267 143.205812 L1004.724375 129.518584 L985.904438 115.683185 L1015.591108 111.151786 L1008.747494 106.120732 L1030.735099 95.929397 L1026.457840 92.784988 Z" fill="#888" fill-opacity="0.18" stroke="#000" stroke-width="1"/>
  <path d="M316.747456 739.376753 L315.952335 766.970516 L311.112845 764.788412 L313.031305 788.947004 L305.288120 785.455637 L315.917664 813.542017 L294.623906 803.940757 L287.641171 819.427126 L276.026394 814.190075 L283.009129 798.703706 L261.715370 789.102445 L289.801751 778.472902 L282.058566 774.981534 L301.433864 760.424203 L296.594373 758.242098 Z" fill="#888" fill-opacity="0.18" stroke="#000" stroke-width="1"/>
  <path d="M786.409304 816.140967 L782.583065 843.479729 L778.013037 840.778417 L777.261853 865.001418 L769.949807 860.679320 L777.424676 889.764682 L757.316549 877.878910 L748.672351 892.503003 L737.704282 886.019855 L746.348479 871.395762 L726.240352 859.509991 L755.325715 852.035122 L748.013668 847.713023 L768.872979 835.375794 L764.302950 832.674482 Z" fill="#888" fill-opacity="0.18" stroke="#000" stroke-width="1"/>
  <path d="M266.331483 963.164518 L287.233356 981.196704 L282.486380 983.573354 L302.436328 997.332629 L294.841166 1001.135269 L323.335671 1010.616573 L302.448975 1021.073834 L310.054256 1036.264158 L298.661513 1041.968118 L291.056232 1026.777794 L270.169537 1037.235054 L279.650842 1008.740549 L272.055680 1012.543189 L272.992427 988.326654 L268.245451 990.703304 Z" fill="#888" fill-opacity="0.18" stroke="#000" stroke-width="1"/>
  <path d="M226.757096 333.861172 L254.359898 333.495993 L252.383095 338.422909 L276.439725 335.490904 L273.276841 343.373970 L300.891715 331.573516 L292.193783 353.251946 L307.959914 359.577715 L303.215588 371.402313 L287.449457 365.076545 L278.751526 386.754975 L266.951072 359.140101 L263.788188 367.023166 L248.429490 348.276741 L246.452688 353.203657 Z" fill="#888" fill-opacity="0.18" stroke="#000" stroke-width="1"/>
  <path d="M127.545562 668.597812 L125.993405 696.159358 L121.215627 693.845251 L122.470311 718.047396 L114.825867 714.344826 L124.680550 742.712363 L103.658328 732.530293 L96.253187 747.819182 L84.786521 742.265325 L92.191662 726.976437 L71.169441 716.794367 L99.536978 706.939684 L91.892534 703.237113 L111.660072 689.217038 L106.882294 686.902931 Z" fill="#888" fill-opacity="0.18" stroke="#000" stroke-width="1"/>
  <path d="M746.482210 467.717680 L725.530445 449.743489 L730.270817 447.353693 L710.282814 433.649758 L717.867409 429.826084 L689.346738 420.423782 L710.204373 409.908679 L702.557025 394.739490 L713.933917 389.003979 L721.581265 404.173168 L742.438900 393.658065 L733.036598 422.178736 L740.621193 418.355062 L739.751560 442.574100 L744.491932 440.184304 Z" fill="#888" fill-opacity="0.18" stroke="#000" stroke-width="1"/>
  <path d="M708.004251 160.257169 L689.960241 139.365503 L695.003437 137.707666 L677.277057 121.182124 L685.346170 118.529585 L658.542038 104.988150 L680.732100 97.693666 L675.427021 81.555440 L687.530691 77.576630 L692.835770 93.714857 L715.025832 86.420374 L701.484397 113.224506 L709.553511 110.571966 L705.089828 134.391992 L710.133024 132.734155 Z" fill="#888" fill-opacity="0.18" stroke="#000" stroke-width="1"/>
  <path d="M723.779779 508.460327 L700.125780 494.228801 L704.401642 491.082494 L682.409516 480.900919 L689.250896 475.866828 L659.562218 471.348606 L678.376013 457.504855 L668.307830 443.822094 L678.569900 436.270957 L688.638083 449.953718 L707.451878 436.109966 L702.933657 465.798645 L709.775037 460.764554 L712.953367 484.789879 L717.229230 481.643572 Z" fill="#888" fill-opacity="0.18" stroke="#000" stroke-width="1"/>
  <path d="M507.062225 196.481728 L508.011840 168.892849 L512.839037 171.102018 L511.055878 146.933062 L518.779392 150.467731 L508.307280 122.322273 L529.546944 132.042613 L536.616282 116.595585 L548.201553 121.897589 L541.132215 137.344617 L562.371879 147.064958 L534.226420 157.537070 L541.949934 161.071739 L522.493429 175.520354 L527.320626 177.729522 Z" fill="#888" fill-opacity="0.18" stroke="#000" stroke-width="1"/>
  <path d="M475.521477 414.347952 L499.087981 428.723902 L494.792952 431.843995 L516.722387 442.159903 L509.850342 447.152052 L539.510827 451.851793 L520.612703 465.580202 L530.597001 479.324293 L520.288933 486.812516 L510.304635 473.068426 L491.406511 486.796836 L496.106251 457.136350 L489.234206 462.128499 L486.202896 438.084181 L481.907867 441.204274 Z" fill="#888" fill-opacity="0.18" stroke="#000" stroke-width="1"/>
  <path d="M177.341962 317.508884 L168.187306 291.465837 L173.487452 291.767011 L163.031828 269.903846 L171.512061 270.385725 L151.516175 247.980446 L174.836816 249.305612 L175.800573 232.345146 L188.520922 233.067964 L187.557165 250.028430 L210.877806 251.353596 L188.472527 271.349482 L196.952760 271.831360 L184.087743 292.369359 L189.387889 292.670534 Z" fill="#888" fill-opacity="0.18" stroke="#000" stroke-width="1"/>
  <path d="M53.631249 1055.446124 L53.344967 1027.842391 L58.266213 1029.833268 L55.402980 1005.768356 L63.276973 1008.953760 L51.555498 981.305270 L73.208979 990.065128 L79.579785 974.317142 L91.390774 979.095247 L85.019968 994.843233 L106.673449 1003.603091 L79.024959 1015.324566 L86.898952 1018.509969 L68.108704 1033.815022 L73.029949 1035.805899 Z" fill="#888" fill-opacity="0.18" stroke="#000" stroke-width="1"/>
  <path d="M810.782236 559.469705 L791.254984 539.957287 L796.163050 537.934137 L777.272705 522.752802 L785.125611 519.515763 L757.400747 507.976097 L778.996238 499.074238 L772.522158 483.368426 L784.301517 478.512867 L790.775597 494.218678 L812.371088 485.316819 L800.831423 513.041683 L808.684329 509.804643 L805.979182 533.887838 L810.887249 531.864688 Z" fill="#888" fill-opacity="0.18" stroke="#000" stroke-width="1"/>
  <path d="M331.922147 79.628458 L336.477427 106.855236 L331.307343 105.650051 L337.860788 128.981798 L329.588652 127.053501 L345.448250 152.554582 L322.699877 147.251766 L318.843284 163.796038 L306.435080 160.903593 L310.291673 144.359322 L287.543300 139.056506 L313.044381 123.196908 L304.772245 121.268612 L320.967173 103.239680 L315.797088 102.034495 Z" fill="#888" fill-opacity="0.18" stroke="#000" stroke-width="1"/>
  <path d="M626.420162 539.789484 L616.433428 514.054039 L621.740514 514.184755 L610.587791 492.668835 L619.079128 492.877981 L598.373650 471.126771 L621.724828 471.701924 L622.143121 454.719248 L634.880127 455.032968 L634.461835 472.015643 L657.813013 472.590795 L636.061803 493.296274 L644.553141 493.505420 L632.354686 514.446188 L637.661772 514.576904 Z" fill="#888" fill-opacity="0.18" stroke="#000" stroke-width="1"/>
  <path d="M414.241765 268.664828 L409.632049 295.882442 L405.141475 293.051012 L403.695018 317.242454 L396.510100 312.712166 L403.146676 342.000181 L383.388151 329.541889 L374.327575 343.911726 L363.550198 337.116294 L372.610773 322.746457 L352.852248 310.288166 L382.140264 303.651590 L374.955345 299.121302 L396.160328 287.388153 L391.669754 284.556723 Z" fill="#888" fill-opacity="0.18" stroke="#000" stroke-width="1"/>
  <path d="M246.897466 1016.880684 L235.558975 991.711524 L240.865519 991.560398 L228.586619 970.666698 L237.077089 970.424897 L215.246410 949.803224 L238.595204 949.138271 L238.111602 932.157330 L250.847307 931.794628 L251.330910 948.775569 L274.679704 948.110616 L254.058030 969.941295 L262.548501 969.699494 L251.478607 991.258146 L256.785151 991.107021 Z" fill="#888" fill-opacity="0.18" stroke="#000" stroke-width="1"/>
  <path d="M134.149976 939.927605 L161.676944 942.004637 L159.272221 946.737455 L183.493880 945.944145 L179.646324 953.516653 L208.196482 944.204273 L197.615704 965.028669 L212.760720 972.723780 L206.989386 984.082542 L191.844371 976.387431 L181.263593 997.211827 L171.951213 968.661669 L168.103657 976.234176 L154.462777 956.203089 L152.058055 960.935906 Z" fill="#888" fill-opacity="0.18" stroke="#000" stroke-width="1"/>
  <path d="M673.353107 230.198805 L646.233769 235.355305 L647.324282 230.159824 L624.143226 237.227831 L625.888047 228.915060 L600.744068 245.334935 L605.542325 222.474816 L588.916784 218.985174 L591.534015 206.516018 L608.159557 210.005659 L612.957814 187.145540 L629.377689 212.289519 L631.122510 203.976748 L649.505308 219.768860 L650.595821 214.573379 Z" fill="#888" fill-opacity="0.18" stroke="#000" stroke-width="1"/>
  <path d="M865.821263 107.836101 L888.407967 123.707107 L883.920014 126.542690 L905.135842 138.256217 L897.955118 142.793150 L927.249260 149.402628 L907.502269 161.879194 L916.576134 176.240642 L905.805048 183.046041 L896.731183 168.684593 L876.984192 181.161158 L883.593670 151.867016 L876.412946 156.403949 L874.944109 132.213856 L870.456157 135.049439 Z" fill="#888" fill-opacity="0.18" stroke="#000" stroke-width="1"/>
  <path d="M1032.592240 791.849003 L1005.848389 798.691112 L1006.611909 793.437610 L983.918156 801.941235 L985.139788 793.535632 L961.071699 811.495561 L964.431187 788.380151 L947.619979 785.936887 L949.452427 773.328482 L966.263634 775.771745 L969.623122 752.656335 L987.583052 776.724424 L988.804683 768.318821 L1008.138949 782.930605 L1008.902469 777.677103 Z" fill="#888" fill-opacity="0.18" stroke="#000" stroke-width="1"/>
  <path d="M724.789160 670.189644 L714.054666 695.622274 L710.333970 691.835630 L703.372929 715.049031 L697.419815 708.990402 L697.156028 739.019761 L680.784964 722.358531 L668.667705 734.264760 L659.738034 725.176816 L671.855292 713.270587 L655.484227 696.609357 L685.513586 696.873144 L679.560472 690.814515 L702.892577 684.262344 L699.171880 680.475701 Z" fill="#888" fill-opacity="0.18" stroke="#000" stroke-width="1"/>
  <path d="M962.754701 111.241684 L967.158124 138.493434 L961.994839 137.259445 L968.418110 160.627364 L960.156853 158.652982 L975.874039 184.242081 L953.155582 178.812529 L949.206816 195.335043 L936.814931 192.373469 L940.763696 175.850955 L918.045239 170.421402 L943.634339 154.704216 L935.373082 152.729833 L951.668267 134.791467 L946.504981 133.557477 Z" fill="#888" fill-opacity="0.18" stroke="#000" stroke-width="1"/>
  <path d="M433.532116 587.620407 L429.116489 560.370631 L434.280327 561.602308 L427.846590 538.237268 L436.108731 540.207951 L420.380087 514.625892 L443.100973 520.045270 L447.042339 503.520989 L459.435550 506.477013 L455.494184 523.001294 L478.215070 528.420672 L452.633012 544.149316 L460.895153 546.119999 L444.608002 564.065662 L449.771840 565.297338 Z" fill="#888" fill-opacity="0.18" stroke="#000" stroke-width="1"/>
  <path d="M938.971995 1031.356010 L911.787057 1036.154675 L912.945943 1030.974015 L889.673756 1037.735921 L891.527974 1029.446866 L866.169792 1045.533958 L871.268891 1022.739057 L854.690781 1019.030621 L857.472108 1006.597038 L874.050218 1010.305474 L879.149318 987.510573 L895.236410 1012.868756 L897.090628 1004.579701 L915.263716 1020.612696 L916.422602 1015.432037 Z" fill="#888" fill-opacity="0.18" stroke="#000" stroke-width="1"/>
  <path d="M807.097217 1025.568035 L780.292488 1018.968454 L783.446609 1014.698353 L759.427136 1011.476089 L764.473731 1004.643927 L734.776839 1009.107845 L748.654974 990.319400 L734.990650 980.226210 L742.560542 969.977967 L756.224866 980.071156 L770.103002 961.282711 L774.566920 990.979603 L779.613515 984.147440 L789.754853 1006.158150 L792.908974 1001.888049 Z" fill="#888" fill-opacity="0.18" stroke="#000" stroke-width="1"/>
  <path d="M305.384886 981.674719 L312.931954 955.121193 L317.087383 958.424927 L321.160378 934.534997 L327.809064 939.820972 L324.402287 909.984319 L342.686173 924.520751 L353.258124 911.223380 L363.231153 919.152342 L352.659202 932.449714 L370.943088 946.986146 L341.106436 950.392922 L347.755121 955.678898 L325.398240 965.032396 L329.553669 968.336131 Z" fill="#888" fill-opacity="0.18" stroke="#000" stroke-width="1"/>
  <path d="M788.610441 619.257243 L766.053420 603.344079 L770.546661 600.516883 L749.352748 588.763751 L756.541933 584.240237 L727.260187 577.576057 L747.030447 565.136396 L737.983420 550.758025 L748.767198 543.972755 L757.814225 558.351126 L777.584484 545.911465 L770.920304 575.193211 L778.109489 570.669698 L779.533143 594.862492 L784.026383 592.035296 Z" fill="#888" fill-opacity="0.18" stroke="#000" stroke-width="1"/>
  <path d="M874.587165 606.303304 L901.250915 613.451202 L898.009887 617.655721 L921.958227 621.369893 L916.772581 628.097124 L946.554773 624.243160 L932.294248 642.743045 L945.748710 653.114337 L937.970241 663.205183 L924.515779 652.833892 L910.255254 671.333777 L906.401290 641.551586 L901.215645 648.278817 L891.527830 626.064760 L888.286801 630.269280 Z" fill="#888" fill-opacity="0.18" stroke="#000" stroke-width="1"/>
</svg>
