<?xml version="1.0" encoding="UTF-8"?>
<svg xmlns="http://www.w3.org/2000/svg" width="1100" height="1100" viewBox="0 0 1100 1100">
  <rect x="0" y="0" width="1100" height="1100" fill="white"/>
  <text x="10.0" y="18.0" font-family="monospace" font-size="12">prefix=N183_job5048587_task183 run_id=183 L=12.0019671157 feas=0.000e+00 N=183</text>
  <rect x="40.000000" y="40.000000" width="1020.000000" height="1020.000000" fill="none" stroke="#000" stroke-width="2"/>
  <path d="M415.335291 129.472955 L433.540959 150.244189 L428.507184 151.939631 L446.363254 168.344757 L438.309215 171.057463 L465.226078 184.410795 L443.077471 191.870737 L448.502884 207.978815 L436.421825 212.047874 L430.996413 195.939797 L408.847806 203.399739 L422.201137 176.482876 L414.147098 179.195582 L418.439636 155.330514 L413.405862 157.025955 Z" fill="#888" fill-opacity="0.18" stroke="#000" stroke-width="1"/>
  <path d="M456.033543 82.753540 L468.628364 107.335260 L463.333176 107.752852 L476.652961 128.014903 L468.180659 128.683051 L491.031784 148.193435 L467.732954 150.030843 L469.069250 166.975446 L456.360798 167.977668 L455.024501 151.033065 L431.725672 152.870472 L451.236056 130.019347 L442.763754 130.687496 L452.742798 108.588038 L447.447610 109.005630 Z" fill="#888" fill-opacity="0.18" stroke="#000" stroke-width="1"/>
  <path d="M84.495186 579.667249 L73.483268 554.336869 L78.794276 554.255640 L66.785140 533.190312 L75.282753 533.060345 L53.713803 512.141230 L77.082239 511.783820 L76.822304 494.788594 L89.568724 494.593644 L89.828658 511.588870 L113.197094 511.231460 L92.277979 532.800410 L100.775592 532.670443 L89.416292 554.093181 L94.727301 554.011951 Z" fill="#888" fill-opacity="0.18" stroke="#000" stroke-width="1"/>
  <path d="M372.153900 291.601902 L375.587684 264.195705 L380.198711 266.832338 L380.600983 242.587637 L387.978626 246.806250 L380.081049 217.815609 L400.369569 229.416794 L408.806795 214.661507 L419.873260 220.989426 L411.436035 235.744713 L431.724554 247.345898 L402.733914 255.243475 L410.111557 259.462088 L389.420765 272.105604 L394.031792 274.742237 Z" fill="#888" fill-opacity="0.18" stroke="#000" stroke-width="1"/>
  <path d="M611.035555 651.803050 L598.314972 676.319927 L594.903735 672.248457 L586.122576 694.850639 L580.664597 688.336286 L578.023663 718.267114 L563.014221 700.352645 L549.985517 711.268603 L541.798549 701.497075 L554.827253 690.581117 L539.817811 672.666648 L569.748639 675.307582 L564.290660 668.793230 L588.081262 664.105517 L584.670025 660.034047 Z" fill="#888" fill-opacity="0.18" stroke="#000" stroke-width="1"/>
  <path d="M788.401957 504.557450 L804.534735 526.976726 L799.361729 528.182303 L815.564648 546.222059 L807.287838 548.150981 L832.802168 564.020700 L810.040941 569.325236 L813.898785 585.878855 L801.483571 588.772238 L797.625727 572.218619 L774.864500 577.523155 L790.734219 552.008825 L782.457409 553.937747 L789.015717 530.593455 L783.842711 531.799032 Z" fill="#888" fill-opacity="0.18" stroke="#000" stroke-width="1"/>
  <path d="M426.800934 381.214449 L432.696910 408.198295 L427.470786 407.249071 L435.171366 430.241863 L426.809566 428.723105 L443.917171 453.424498 L420.922222 449.247914 L417.884707 465.971514 L405.342007 463.693377 L408.379522 446.969778 L385.384573 442.793194 L410.085967 425.685589 L401.724167 424.166832 L417.018536 405.350624 L411.792411 404.401401 Z" fill="#888" fill-opacity="0.18" stroke="#000" stroke-width="1"/>
  <path d="M604.036097 267.377301 L602.163011 239.820414 L607.193308 241.526145 L602.949578 217.652349 L610.998053 220.381518 L597.699789 193.437407 L619.833096 200.942623 L625.291435 184.845672 L637.364148 188.939427 L631.905809 205.036377 L654.039115 212.541593 L627.095004 225.839857 L635.143479 228.569027 L617.253902 244.937607 L622.284199 246.643337 Z" fill="#888" fill-opacity="0.18" stroke="#000" stroke-width="1"/>
  <path d="M786.244016 195.465584 L772.360198 171.588187 L777.625699 170.889684 L763.247584 151.364388 L771.672385 150.246783 L747.816368 131.978793 L770.984572 128.905378 L768.749361 112.055776 L781.386563 110.379367 L783.621774 127.228970 L806.789977 124.155555 L788.521987 148.011572 L796.946789 146.893966 L788.156700 169.492677 L793.422201 168.794174 Z" fill="#888" fill-opacity="0.18" stroke="#000" stroke-width="1"/>
  <path d="M469.118224 710.354225 L491.090545 727.090641 L486.494412 729.753153 L507.255950 742.280160 L499.902137 746.540178 L528.936715 754.274664 L508.713730 765.989714 L517.233766 780.697340 L506.203047 787.087367 L497.683010 772.379742 L477.460025 784.094792 L485.194512 755.060214 L477.840699 759.320233 L477.302146 735.078175 L472.706013 737.740687 Z" fill="#888" fill-opacity="0.18" stroke="#000" stroke-width="1"/>
  <path d="M580.663598 124.531936 L565.071780 101.733127 L570.272146 100.651651 L554.505435 82.229431 L562.826022 80.499069 L537.698651 64.023506 L560.580265 59.265011 L557.119541 42.623838 L569.600422 40.028295 L573.061145 56.669469 L595.942759 51.910974 L579.467196 77.038346 L587.787783 75.307984 L580.672880 98.488699 L585.873247 97.407223 Z" fill="#888" fill-opacity="0.18" stroke="#000" stroke-width="1"/>
  <path d="M217.306479 473.343477 L196.041807 455.716673 L200.743656 453.245637 L180.515443 439.874520 L188.038402 435.920862 L159.346860 426.997610 L180.034997 416.125051 L172.127681 401.079133 L183.412119 395.148647 L191.319435 410.194564 L212.007572 399.322005 L203.084319 428.013546 L210.607278 424.059889 L210.147354 448.303565 L214.849204 445.832529 Z" fill="#888" fill-opacity="0.18" stroke="#000" stroke-width="1"/>
  <path d="M141.488608 828.946429 L135.514036 855.912982 L131.168980 852.857839 L128.507533 876.959376 L121.555444 872.071148 L126.715097 901.671941 L107.596851 888.229314 L97.820395 902.133493 L87.392261 894.801151 L97.168717 880.896972 L78.050472 867.454345 L107.651265 862.294692 L100.699176 857.406464 L122.478869 846.747554 L118.133813 843.692412 Z" fill="#888" fill-opacity="0.18" stroke="#000" stroke-width="1"/>
  <path d="M125.350500 120.995424 L142.831793 142.379878 L137.742741 143.901376 L155.024647 160.910289 L146.882164 163.344685 L173.324363 177.614902 L150.932534 184.309493 L155.801327 200.594459 L143.587602 204.246054 L138.718809 187.961087 L116.326980 194.655677 L130.597197 168.213478 L122.454714 170.647875 L127.564637 146.944372 L122.475585 148.465870 Z" fill="#888" fill-opacity="0.18" stroke="#000" stroke-width="1"/>
  <path d="M941.338884 289.370398 L940.419944 316.975580 L935.587585 314.770651 L937.399060 338.950931 L929.667285 335.423045 L940.177007 363.572196 L918.914627 353.870510 L911.858855 369.334059 L900.261193 364.042230 L907.316965 348.578681 L886.054584 338.876994 L914.203736 328.367273 L906.471961 324.839387 L925.922867 310.360793 L921.090508 308.155865 Z" fill="#888" fill-opacity="0.18" stroke="#000" stroke-width="1"/>
  <path d="M403.724763 517.427060 L431.340885 516.936866 L429.385289 521.875393 L453.441709 518.833017 L450.312755 526.734660 L477.889247 514.802935 L469.284625 536.532455 L485.087912 542.790362 L480.394482 554.642827 L464.591195 548.384920 L455.986573 570.114439 L444.054848 542.537947 L440.925895 550.439590 L425.474097 531.752447 L423.518501 536.690974 Z" fill="#888" fill-opacity="0.18" stroke="#000" stroke-width="1"/>
  <path d="M834.793924 876.311276 L848.876230 852.550402 L852.052546 856.807681 L862.093766 834.736404 L867.175871 841.548050 L871.499722 811.813671 L885.475513 830.545697 L899.098805 820.381486 L906.721963 830.598955 L893.098671 840.763166 L907.074461 859.495193 L877.340082 855.171342 L882.422188 861.982988 L858.405178 865.322238 L861.581494 869.579517 Z" fill="#888" fill-opacity="0.18" stroke="#000" stroke-width="1"/>
  <path d="M567.555129 335.570772 L546.028580 318.264757 L550.692854 315.723506 L530.266450 302.657160 L537.729289 298.591160 L508.907192 290.099064 L529.429998 278.917563 L521.297998 263.991886 L532.492256 257.892885 L540.624256 272.818563 L561.147063 261.637062 L552.654967 290.459160 L560.117805 286.393159 L560.021402 310.641006 L564.685677 308.099756 Z" fill="#888" fill-opacity="0.18" stroke="#000" stroke-width="1"/>
  <path d="M962.929167 520.292070 L982.115994 540.160542 L977.169902 542.096926 L995.796840 557.621248 L987.883093 560.719462 L1015.412996 572.758292 L993.650193 581.278382 L999.846622 597.105875 L987.976002 601.753197 L981.779573 585.925704 L960.016770 594.445793 L972.055600 566.915891 L964.141853 570.014105 L967.277719 545.969694 L962.331627 547.906078 Z" fill="#888" fill-opacity="0.18" stroke="#000" stroke-width="1"/>
  <path d="M156.749202 439.186084 L130.495475 430.605155 L133.960561 426.579415 L110.234410 421.575702 L115.778547 415.134517 L85.815242 417.377138 L101.061618 399.663879 L88.179248 388.575605 L96.495453 378.913827 L109.377823 390.002101 L124.624200 372.288842 L126.866820 402.252147 L132.410957 395.810962 L140.890732 418.527933 L144.355817 414.502193 Z" fill="#888" fill-opacity="0.18" stroke="#000" stroke-width="1"/>
  <path d="M50.525899 703.717303 L47.645174 676.247467 L52.734547 677.767888 L47.619610 654.065466 L55.762608 656.498141 L41.486799 630.058961 L63.880043 636.748814 L68.745391 620.462818 L80.959888 624.111830 L76.094540 640.397825 L98.487784 647.087679 L72.048604 661.363489 L80.191602 663.796163 L62.913295 680.808731 L68.002668 682.329152 Z" fill="#888" fill-opacity="0.18" stroke="#000" stroke-width="1"/>
  <path d="M532.491206 247.817331 L536.615644 220.506537 L541.158652 223.258715 L542.172747 199.031891 L549.441559 203.435376 L542.278239 174.254632 L562.267475 186.364215 L571.074444 171.826589 L581.977663 178.431816 L573.170694 192.969442 L593.159929 205.079025 L563.979185 212.242345 L571.247998 216.645830 L550.244668 228.763071 L554.787676 231.515249 Z" fill="#888" fill-opacity="0.18" stroke="#000" stroke-width="1"/>
  <path d="M484.418846 578.291897 L483.266921 550.695456 L488.250899 552.532129 L484.632840 528.555536 L492.607205 531.494213 L480.017985 504.211608 L501.947488 512.292970 L507.824842 496.344240 L519.786390 500.752255 L513.909036 516.700985 L535.838539 524.782347 L508.555934 537.371567 L516.530299 540.310244 L498.218855 556.205475 L503.202833 558.042148 Z" fill="#888" fill-opacity="0.18" stroke="#000" stroke-width="1"/>
  <path d="M416.142037 869.698585 L424.764417 843.458443 L428.784680 846.929882 L433.825856 823.211663 L440.258278 828.765965 L438.062980 798.799156 L455.752139 814.073487 L466.860743 801.208644 L476.509375 809.540098 L465.400771 822.404941 L483.089930 837.679272 L453.123121 839.874570 L459.555542 845.428872 L436.825207 853.872760 L440.845470 857.344199 Z" fill="#888" fill-opacity="0.18" stroke="#000" stroke-width="1"/>
  <path d="M841.651785 674.230717 L825.607743 696.713582 L822.803392 692.202593 L810.929012 713.344175 L806.442049 706.126593 L799.615502 735.387954 L787.276354 715.539605 L772.841191 724.513531 L766.110747 713.687158 L780.545910 704.713233 L768.206762 684.864883 L797.468123 691.691430 L792.981160 684.473849 L817.194688 683.180616 L814.390336 678.669628 Z" fill="#888" fill-opacity="0.18" stroke="#000" stroke-width="1"/>
  <path d="M648.068828 176.105490 L675.351977 180.409009 L672.570054 184.933864 L696.789704 186.106873 L692.338628 193.346641 L721.565738 186.374912 L709.325278 206.284274 L723.804814 215.186426 L717.128200 226.046078 L702.648664 217.143926 L690.408204 237.053287 L683.436475 207.826177 L678.985399 215.065945 L667.006209 193.983573 L664.224286 198.508428 Z" fill="#888" fill-opacity="0.18" stroke="#000" stroke-width="1"/>
  <path d="M899.118261 219.518585 L925.564931 227.485024 L922.194655 231.590465 L946.031027 236.039596 L940.638586 242.608302 L970.541454 239.667638 L955.712242 257.731580 L968.849654 268.516462 L960.760993 278.369521 L947.623581 267.584640 L932.794369 285.648582 L929.853705 255.745715 L924.461264 262.314421 L915.454104 239.801348 L912.083829 243.906789 Z" fill="#888" fill-opacity="0.18" stroke="#000" stroke-width="1"/>
  <path d="M922.546942 824.853018 L897.689301 812.811915 L901.665357 809.289930 L878.830093 801.134070 L885.191784 795.498894 L855.199617 793.682606 L872.694267 778.185872 L861.423916 765.462490 L870.966452 757.009727 L882.236804 769.733109 L899.731454 754.236375 L897.915166 784.228542 L904.276857 778.593366 L909.617471 802.245961 L913.593528 798.723976 Z" fill="#888" fill-opacity="0.18" stroke="#000" stroke-width="1"/>
  <path d="M973.411047 785.675660 L947.087252 777.312150 L950.518925 773.257890 L926.752203 768.450570 L932.242880 761.963754 L902.299147 764.454102 L917.398508 746.615357 L904.424876 735.634003 L912.660891 725.903779 L925.634524 736.885133 L940.733885 719.046388 L943.224234 748.990121 L948.714911 742.503305 L957.382271 765.149369 L960.813944 761.095109 Z" fill="#888" fill-opacity="0.18" stroke="#000" stroke-width="1"/>
  <path d="M44.153145 582.763899 L71.494932 578.850181 L70.167353 583.993229 L93.660218 577.988839 L91.536092 586.217715 L117.418598 570.955839 L111.577251 593.585250 L128.035004 597.833501 L124.848815 610.176816 L108.391062 605.928564 L102.549716 628.557974 L87.287840 602.675468 L85.163714 610.904345 L67.512196 594.279325 L66.184617 599.422372 Z" fill="#888" fill-opacity="0.18" stroke="#000" stroke-width="1"/>
  <path d="M83.522046 921.613678 L110.310614 928.341466 L107.134929 932.599215 L131.152434 935.934905 L126.071339 942.747304 L155.805076 938.419045 L141.832064 957.153143 L155.456862 967.315334 L147.835219 977.533933 L134.210420 967.371742 L120.237407 986.105841 L115.909148 956.372103 L110.828052 963.184503 L100.783560 941.114715 L97.607875 945.372464 Z" fill="#888" fill-opacity="0.18" stroke="#000" stroke-width="1"/>
  <path d="M170.472419 473.426838 L198.043856 475.071940 L195.712519 479.844599 L219.932096 478.670099 L216.201956 486.306353 L244.617941 476.541068 L234.360056 497.540766 L249.632564 505.001046 L244.037355 516.455427 L228.764847 508.995147 L218.506962 529.994846 L208.741677 501.578861 L205.011537 509.215115 L191.049844 489.389916 L188.718507 494.162575 Z" fill="#888" fill-opacity="0.18" stroke="#000" stroke-width="1"/>
  <path d="M392.482957 138.283232 L389.453366 110.829415 L394.550907 112.322226 L389.307560 88.647879 L397.463625 91.036376 L383.044704 64.674971 L405.473884 71.243337 L410.250877 54.931207 L422.484975 58.513952 L417.707982 74.826082 L440.137161 81.394449 L413.775756 95.813370 L421.931821 98.201867 L404.745989 115.307847 L409.843530 116.800657 Z" fill="#888" fill-opacity="0.18" stroke="#000" stroke-width="1"/>
  <path d="M1049.279041 975.876716 L1022.569702 982.912460 L1023.296296 977.650762 L1000.650996 986.320121 L1001.813547 977.901404 L977.860378 996.041820 L981.057392 972.890348 L964.219959 970.565247 L965.963785 957.937172 L982.801218 960.262273 L985.998233 937.110802 L1004.138648 961.063970 L1005.301199 952.645254 L1024.749484 967.127366 L1025.476078 961.865668 Z" fill="#888" fill-opacity="0.18" stroke="#000" stroke-width="1"/>
  <path d="M986.362823 991.853124 L1013.011478 999.115335 L1009.751274 1003.308719 L1033.697261 1007.124090 L1028.480934 1013.833506 L1058.295289 1010.100784 L1043.950391 1028.551676 L1057.369221 1038.984330 L1049.544731 1049.048453 L1036.125901 1038.615799 L1021.781002 1057.066691 L1018.048281 1027.252336 L1012.831954 1033.961751 L1003.230865 1011.695489 L999.970661 1015.888873 Z" fill="#888" fill-opacity="0.18" stroke="#000" stroke-width="1"/>
  <path d="M321.569045 654.605254 L302.255234 674.350308 L300.178731 669.461388 L285.191357 688.523025 L281.868952 680.700752 L270.619283 708.562445 L261.482670 687.051196 L245.838125 693.696005 L240.854518 681.962597 L256.499063 675.317787 L247.362450 653.806538 L275.224142 665.056207 L271.901738 657.233935 L296.025725 659.683548 L293.949222 654.794627 Z" fill="#888" fill-opacity="0.18" stroke="#000" stroke-width="1"/>
  <path d="M715.779343 958.267672 L688.248274 956.047141 L690.678773 951.324209 L666.439950 951.992663 L670.328748 944.435973 L641.715027 953.605703 L652.409222 932.824805 L637.295842 925.047208 L643.129039 913.712173 L658.242419 921.489769 L668.936614 900.708871 L678.106345 929.322592 L681.995143 921.765902 L695.539771 941.878346 L697.970270 937.155415 Z" fill="#888" fill-opacity="0.18" stroke="#000" stroke-width="1"/>
  <path d="M301.856276 583.354877 L290.918944 608.717552 L287.225668 604.900076 L280.080972 628.071625 L274.171731 621.963664 L273.674931 652.006670 L257.424518 635.209777 L245.208596 647.028259 L236.344735 637.866317 L248.560657 626.047835 L232.310244 609.250942 L262.353249 609.747742 L256.444008 603.639781 L279.839117 597.265125 L276.145841 593.447649 Z" fill="#888" fill-opacity="0.18" stroke="#000" stroke-width="1"/>
  <path d="M867.688654 122.405464 L893.819051 131.354923 L890.297668 135.331513 L913.951070 140.668548 L908.316857 147.031092 L938.308749 145.210265 L922.814663 162.707260 L935.539751 173.975686 L927.088431 183.519502 L914.363344 172.251076 L898.869258 189.748071 L897.048431 159.756179 L891.414218 166.118723 L883.254902 143.284693 L879.733519 147.261282 Z" fill="#888" fill-opacity="0.18" stroke="#000" stroke-width="1"/>
  <path d="M953.076899 847.362550 L979.300592 856.034828 L975.821512 860.048481 L999.530099 865.134764 L993.963571 871.556608 L1023.934502 869.418317 L1008.626550 887.078389 L1021.470239 898.211445 L1013.120447 907.844211 L1000.276758 896.711156 L984.968807 914.371228 L982.830515 884.400297 L977.263987 890.822142 L968.863352 868.075786 L965.384272 872.089439 Z" fill="#888" fill-opacity="0.18" stroke="#000" stroke-width="1"/>
  <path d="M1045.248125 216.406362 L1030.140275 239.528719 L1027.153159 235.136618 L1016.156413 256.747702 L1011.377028 249.720341 L1005.757089 279.237206 L992.613780 259.911964 L978.559059 269.470735 L971.389981 258.929694 L985.444702 249.370924 L972.301393 230.045682 L1001.818257 235.665620 L997.038872 228.638260 L1021.178928 226.352418 L1018.191812 221.960317 Z" fill="#888" fill-opacity="0.18" stroke="#000" stroke-width="1"/>
  <path d="M815.043580 744.996314 L797.755913 766.537602 L795.210690 761.875495 L782.161754 782.313025 L778.089396 774.853654 L769.621863 803.682977 L758.422878 783.169706 L743.504136 791.314422 L737.395599 780.125365 L752.314341 771.980649 L741.115357 751.467379 L769.944680 759.934912 L765.872322 752.475540 L790.120242 752.551281 L787.575018 747.889174 Z" fill="#888" fill-opacity="0.18" stroke="#000" stroke-width="1"/>
  <path d="M100.508384 223.800273 L97.584097 251.265506 L92.924905 248.714950 L92.972902 272.962941 L85.518195 268.882050 L93.952737 297.721043 L73.452293 286.498595 L65.290513 301.408009 L54.108452 295.286674 L62.270233 280.377260 L41.769789 269.154812 L70.608781 260.720270 L63.154074 256.639380 L83.606522 243.613837 L78.947330 241.063281 Z" fill="#888" fill-opacity="0.18" stroke="#000" stroke-width="1"/>
  <path d="M868.085390 730.184761 L858.660235 704.222154 L863.966109 704.469361 L853.282014 682.702012 L861.771412 683.097543 L841.536744 660.885222 L864.882588 661.972931 L865.673650 644.994136 L878.407746 645.587432 L877.616685 662.566227 L900.962529 663.653937 L878.750207 683.888604 L887.239605 684.284135 L874.577856 704.963775 L879.883730 705.210981 Z" fill="#888" fill-opacity="0.18" stroke="#000" stroke-width="1"/>
  <path d="M456.715423 573.844330 L429.127317 575.181077 L430.930565 570.184908 L406.978744 573.963488 L409.863941 565.969618 L382.666274 578.741301 L390.600565 556.758158 L374.612825 550.987764 L378.940621 538.996959 L394.928361 544.767353 L402.862652 522.784210 L415.634335 549.981878 L418.519532 541.988008 L434.537061 560.192571 L436.340309 555.196402 Z" fill="#888" fill-opacity="0.18" stroke="#000" stroke-width="1"/>
  <path d="M486.264182 416.154411 L511.810512 426.655628 L508.056869 430.413762 L531.347419 437.160438 L525.341591 443.173452 L555.388698 443.155487 L538.872670 459.691277 L550.898699 471.702933 L541.889957 480.722455 L529.863928 468.710799 L513.347900 485.246589 L513.329934 455.199481 L507.324106 461.212496 L500.549583 437.930030 L496.795941 441.688164 Z" fill="#888" fill-opacity="0.18" stroke="#000" stroke-width="1"/>
  <path d="M818.819249 447.616091 L800.015347 467.847348 L797.814821 463.012983 L783.318516 482.450692 L779.797674 474.715707 L769.262317 502.855274 L759.580002 481.584066 L744.110032 488.625750 L738.828769 477.023273 L754.298739 469.981589 L744.616423 448.710380 L772.755990 459.245737 L769.235148 451.510753 L793.413768 453.344252 L791.213242 448.509886 Z" fill="#888" fill-opacity="0.18" stroke="#000" stroke-width="1"/>
  <path d="M478.170419 592.970842 L494.904520 570.996759 L497.567516 575.592612 L510.092336 554.829754 L514.353129 562.183118 L522.084557 533.147726 L533.801737 553.369478 L548.508466 544.847892 L554.899655 555.877939 L540.192926 564.399524 L551.910106 584.621275 L522.874714 576.889847 L527.135507 584.243211 L502.893507 584.784317 L505.556502 589.380169 Z" fill="#888" fill-opacity="0.18" stroke="#000" stroke-width="1"/>
  <path d="M677.601210 738.481326 L697.618285 757.513068 L692.759316 759.658722 L712.031662 774.374158 L704.257313 777.807204 L732.275802 788.660463 L710.896340 798.101340 L717.762432 813.650039 L706.100908 818.799608 L699.234816 803.250909 L677.855354 812.691785 L688.708613 784.673296 L680.934263 788.106342 L683.041379 763.950029 L678.182411 766.095683 Z" fill="#888" fill-opacity="0.18" stroke="#000" stroke-width="1"/>
  <path d="M177.281331 638.376141 L179.782371 610.869136 L184.480283 613.347649 L184.058930 589.103272 L191.575589 593.068893 L182.697994 564.363192 L203.368807 575.268650 L211.300049 560.235332 L222.575038 566.183764 L214.643796 581.217082 L235.314609 592.122541 L206.608908 601.000136 L214.125567 604.965757 L193.876107 618.304676 L198.574019 620.783189 Z" fill="#888" fill-opacity="0.18" stroke="#000" stroke-width="1"/>
  <path d="M615.111594 817.743146 L616.618183 790.163793 L621.402492 792.471128 L620.106352 768.257756 L627.761247 771.949492 L617.853351 743.582917 L638.904310 753.735190 L646.287781 738.425402 L657.770123 743.963006 L650.386651 759.272794 L671.437610 769.425068 L643.071035 779.332964 L650.725929 783.024699 L630.971110 797.085798 L635.755419 799.393133 Z" fill="#888" fill-opacity="0.18" stroke="#000" stroke-width="1"/>
  <path d="M971.076663 300.520748 L996.747426 310.714002 L993.039248 314.517003 L1016.409246 320.983113 L1010.476160 327.067915 L1040.520879 326.688624 L1024.204894 343.421829 L1036.374499 355.288000 L1027.474871 364.415203 L1015.305266 352.549033 L998.989282 369.282238 L998.609990 339.237520 L992.676904 345.322322 L985.622891 322.123006 L981.914713 325.926007 Z" fill="#888" fill-opacity="0.18" stroke="#000" stroke-width="1"/>
  <path d="M161.162771 706.611191 L162.696042 679.033309 L167.478116 681.345271 L166.205402 657.130656 L173.856721 660.829796 L163.976273 632.453649 L185.017400 642.626283 L192.415680 627.323645 L203.892659 632.872355 L196.494379 648.174993 L217.535506 658.347628 L189.159359 668.228076 L196.810678 671.927215 L177.042265 685.969196 L181.824339 688.281158 Z" fill="#888" fill-opacity="0.18" stroke="#000" stroke-width="1"/>
  <path d="M209.936956 904.221363 L185.267336 916.643132 L184.886965 911.345139 L164.531813 924.522209 L163.923218 916.045421 L144.252735 938.758877 L142.579100 915.447710 L125.625524 916.664899 L124.712633 903.949718 L141.666208 902.732529 L139.992573 879.421362 L162.706029 899.091845 L162.097434 890.615058 L184.126221 900.749155 L183.745850 895.451162 Z" fill="#888" fill-opacity="0.18" stroke="#000" stroke-width="1"/>
  <path d="M585.689018 372.610029 L590.883597 399.737632 L585.683832 398.653267 L592.785856 421.837931 L584.466231 420.102947 L600.927832 445.239467 L578.048865 440.468262 L574.578898 457.107510 L562.099461 454.505035 L565.569429 437.865786 L542.690462 433.094580 L567.826983 416.632979 L559.507358 414.897995 L575.284301 396.484537 L570.084536 395.400172 Z" fill="#888" fill-opacity="0.18" stroke="#000" stroke-width="1"/>
  <path d="M327.370239 812.633909 L299.832571 814.771046 L301.490007 809.724631 L277.657985 814.197000 L280.309883 806.122735 L253.494476 819.678653 L260.787195 797.474424 L244.638665 792.170628 L248.616512 780.059231 L264.765042 785.363027 L272.057761 763.158798 L285.613679 789.974205 L288.265577 781.899940 L304.804880 799.631800 L306.462316 794.585384 Z" fill="#888" fill-opacity="0.18" stroke="#000" stroke-width="1"/>
  <path d="M325.710741 472.568365 L300.596049 461.073030 L304.494236 457.465047 L281.486293 449.809859 L287.723393 444.037086 L257.698712 442.876267 L274.850737 427.001143 L263.305193 414.526943 L272.660843 405.867784 L284.206388 418.341984 L301.358413 402.466861 L300.197593 432.491542 L306.434694 426.718769 L312.290612 450.249082 L316.188799 446.641099 Z" fill="#888" fill-opacity="0.18" stroke="#000" stroke-width="1"/>
  <path d="M648.867644 140.699865 L626.298867 124.776901 L630.794717 121.948344 L609.589616 110.187771 L616.782976 105.662079 L587.485345 98.992910 L607.267085 86.547256 L598.215700 72.160536 L609.005740 65.371997 L618.057125 79.758717 L637.838864 67.313063 L631.169696 96.610694 L638.363056 92.085001 L639.786417 116.291228 L644.282267 113.462670 Z" fill="#888" fill-opacity="0.18" stroke="#000" stroke-width="1"/>
  <path d="M158.891118 993.920097 L165.475081 967.095818 L169.749807 970.248613 L172.956589 946.213557 L179.796152 951.258029 L175.308425 921.547942 L194.117223 935.420240 L204.206167 921.741115 L214.465511 929.307823 L204.376567 942.986948 L223.185365 956.859247 L193.475277 961.346973 L200.314840 966.391446 L178.299261 976.554204 L182.573988 979.706999 Z" fill="#888" fill-opacity="0.18" stroke="#000" stroke-width="1"/>
  <path d="M883.786875 55.889288 L874.605099 81.938961 L870.660022 78.382309 L865.112583 101.987251 L858.800460 96.296608 L860.354159 126.303524 L842.995821 110.654255 L831.614534 123.278501 L822.146350 114.742536 L833.527636 102.118290 L816.169298 86.469020 L846.176214 84.915321 L839.864091 79.224678 L862.769868 71.269005 L858.824791 67.712353 Z" fill="#888" fill-opacity="0.18" stroke="#000" stroke-width="1"/>
  <path d="M551.655014 1043.437720 L524.049710 1044.352949 L525.929056 1039.384904 L501.922317 1042.797218 L504.929271 1034.848347 L477.539710 1047.203141 L485.808832 1025.343746 L469.911090 1019.329839 L474.421520 1007.406533 L490.319262 1013.420440 L498.588383 991.561044 L510.943177 1018.950605 L513.950131 1011.001734 L529.687747 1029.448815 L531.567093 1024.480771 Z" fill="#888" fill-opacity="0.18" stroke="#000" stroke-width="1"/>
  <path d="M129.702486 626.143224 L130.481920 653.752696 L125.523180 651.848937 L128.817370 675.872169 L120.883385 672.826154 L133.103308 700.276153 L111.284851 691.899611 L105.192820 707.767580 L93.291843 703.198556 L99.383874 687.330588 L77.565417 678.954045 L105.015417 666.734123 L97.081432 663.688107 L115.605699 648.041418 L110.646959 646.137658 Z" fill="#888" fill-opacity="0.18" stroke="#000" stroke-width="1"/>
  <path d="M695.446060 935.037926 L682.956848 910.402381 L688.253780 910.007517 L675.021072 889.688491 L683.496163 889.056708 L660.728978 869.448438 L684.035479 867.711035 L682.771913 850.760852 L695.484550 849.813178 L696.748116 866.763360 L720.054616 865.025957 L700.446346 887.793142 L708.921437 887.161359 L698.847644 909.217789 L704.144575 908.822924 Z" fill="#888" fill-opacity="0.18" stroke="#000" stroke-width="1"/>
  <path d="M625.150451 504.931442 L604.675260 523.469430 L602.898930 518.463628 L586.783646 536.581713 L583.941518 528.572429 L571.023629 555.700959 L563.207777 533.675428 L547.189209 539.359684 L542.926017 527.345758 L558.944585 521.661503 L551.128733 499.635972 L578.257262 512.553862 L575.415134 504.544578 L599.346270 508.452023 L597.569940 503.446221 Z" fill="#888" fill-opacity="0.18" stroke="#000" stroke-width="1"/>
  <path d="M639.832546 152.281352 L666.309814 144.417208 L665.747438 149.698983 L688.111762 140.328583 L687.211961 148.779422 L710.588561 129.901829 L708.114107 153.141636 L725.015785 154.941239 L723.666082 167.617497 L706.764405 165.817894 L704.289951 189.057700 L685.412358 165.681099 L684.512556 174.131938 L664.622686 160.262531 L664.060310 165.544305 Z" fill="#888" fill-opacity="0.18" stroke="#000" stroke-width="1"/>
  <path d="M721.543268 370.124804 L749.098755 368.231229 L747.396765 373.262793 L771.267399 369.001312 L768.544215 377.051815 L795.478431 363.733519 L787.989674 385.872401 L804.090679 391.318769 L800.005903 403.394522 L783.904898 397.948154 L776.416142 420.087035 L763.097846 393.152819 L760.374662 401.203321 L743.992785 383.325920 L742.290795 388.357484 Z" fill="#888" fill-opacity="0.18" stroke="#000" stroke-width="1"/>
  <path d="M158.203926 482.463307 L179.201805 500.407097 L174.463419 502.807328 L194.488790 516.480363 L186.907373 520.320732 L215.461838 529.673352 L194.612941 540.234367 L202.293679 555.397201 L190.921554 561.157754 L183.240816 545.994920 L162.391919 556.555935 L171.744539 528.001470 L164.163122 531.841839 L164.986648 507.607789 L160.248262 510.008020 Z" fill="#888" fill-opacity="0.18" stroke="#000" stroke-width="1"/>
  <path d="M547.603957 376.617500 L520.445520 371.586621 L523.347335 367.137703 L499.167669 365.318060 L503.810574 358.199791 L474.407639 364.388200 L487.175628 344.812961 L472.939091 335.527151 L479.903448 324.849747 L494.139986 334.135558 L506.907975 314.560319 L513.096384 343.963253 L517.739289 336.844985 L529.150967 358.239867 L532.052782 353.790949 Z" fill="#888" fill-opacity="0.18" stroke="#000" stroke-width="1"/>
  <path d="M660.897510 331.037915 L646.127605 307.698241 L651.363191 306.802671 L636.262624 287.830580 L644.639562 286.397669 L620.114941 269.037602 L643.151519 265.097097 L640.285698 248.343222 L652.851104 246.193855 L655.716926 262.947731 L678.753505 259.007226 L661.393438 283.531847 L669.770375 282.098936 L661.834363 305.011533 L667.069949 304.115964 Z" fill="#888" fill-opacity="0.18" stroke="#000" stroke-width="1"/>
  <path d="M126.806888 210.705802 L100.548178 219.271468 L100.969858 213.976604 L78.862704 223.938587 L79.537391 215.466803 L56.671214 234.959543 L58.526604 211.662139 L41.583037 210.312763 L42.595069 197.605088 L59.538636 198.954463 L61.394027 175.657059 L80.886766 198.523237 L81.561454 190.051453 L101.813217 203.386874 L102.234897 198.092010 Z" fill="#888" fill-opacity="0.18" stroke="#000" stroke-width="1"/>
  <path d="M137.533917 355.599965 L112.352240 366.947811 L112.200380 361.638353 L91.296640 373.926602 L91.053664 365.431469 L70.423273 387.276743 L69.755088 363.915128 L52.764822 364.401081 L52.400357 351.658382 L69.390623 351.172429 L68.722437 327.810813 L90.567711 348.441204 L90.324734 339.946071 L111.896659 351.019437 L111.744798 345.709979 Z" fill="#888" fill-opacity="0.18" stroke="#000" stroke-width="1"/>
  <path d="M593.395788 310.869997 L619.046756 321.112961 L615.331217 324.908772 L638.688645 331.420143 L632.743783 337.493440 L662.789180 337.172352 L646.440810 353.873919 L658.587404 365.763643 L649.670111 374.873588 L637.523517 362.983864 L621.175147 379.685431 L620.854059 349.640034 L614.909197 355.713331 L607.900140 332.500393 L604.184601 336.296203 Z" fill="#888" fill-opacity="0.18" stroke="#000" stroke-width="1"/>
  <path d="M966.910643 113.920821 L993.237346 122.275172 L989.807084 126.330626 L1013.575476 131.129678 L1008.087056 137.618404 L1038.029921 135.117638 L1022.936766 152.961635 L1035.914218 163.938474 L1027.681589 173.671564 L1014.704137 162.694724 L999.610982 180.538721 L997.110216 150.595856 L991.621797 157.084582 L982.946559 134.441534 L979.516296 138.496988 Z" fill="#888" fill-opacity="0.18" stroke="#000" stroke-width="1"/>
  <path d="M376.131885 739.672974 L363.501275 764.236324 L360.075133 760.177388 L351.376900 782.811613 L345.895074 776.317315 L343.363895 806.257624 L328.288873 788.398306 L315.300278 799.361958 L307.077539 789.620511 L320.066134 778.656859 L304.991113 760.797541 L334.931422 763.328720 L329.449596 756.834422 L353.222851 752.059516 L349.796709 748.000580 Z" fill="#888" fill-opacity="0.18" stroke="#000" stroke-width="1"/>
  <path d="M286.423109 309.182474 L306.564344 328.082769 L301.719526 330.260185 L321.087791 344.849142 L313.336082 348.333008 L341.425020 359.002616 L320.107820 368.583248 L327.075552 384.086666 L315.447988 389.312465 L308.480256 373.809047 L287.163055 383.389679 L297.832663 355.300740 L290.080954 358.784607 L292.029889 334.615018 L287.185071 336.792434 Z" fill="#888" fill-opacity="0.18" stroke="#000" stroke-width="1"/>
  <path d="M389.628648 591.826086 L397.461704 618.312568 L392.180594 617.743992 L401.524732 640.119301 L393.074955 639.209579 L411.925093 662.608325 L388.688207 660.106590 L386.868763 677.006144 L374.194098 675.641561 L376.013542 658.742008 L352.776656 656.240273 L376.175402 637.390136 L367.725626 636.480414 L381.618373 616.606840 L376.337262 616.038264 Z" fill="#888" fill-opacity="0.18" stroke="#000" stroke-width="1"/>
  <path d="M723.301800 674.237326 L736.868465 698.296339 L731.594183 698.925110 L745.712688 718.638942 L737.273836 719.644976 L760.886049 738.227021 L737.679207 740.993613 L739.691274 757.871316 L727.032997 759.380366 L725.020930 742.502663 L701.814088 745.269255 L720.396133 721.657043 L711.957281 722.663076 L721.045619 700.182651 L715.771336 700.811422 Z" fill="#888" fill-opacity="0.18" stroke="#000" stroke-width="1"/>
  <path d="M508.322552 180.856161 L515.793836 207.446957 L510.520967 206.806445 L519.559234 229.307047 L511.122643 228.282229 L529.652075 251.935752 L506.451450 249.117502 L504.401813 265.990684 L491.746927 264.453457 L493.796563 247.580275 L470.595938 244.762025 L494.249461 226.232593 L485.812870 225.207775 L499.975228 205.525422 L494.702359 204.884911 Z" fill="#888" fill-opacity="0.18" stroke="#000" stroke-width="1"/>
  <path d="M775.249911 941.014736 L764.797360 966.581016 L761.032085 962.834536 L754.329772 986.137892 L748.305332 980.143525 L748.380514 1010.190543 L731.813304 993.706033 L719.824569 1005.754914 L710.787909 996.763363 L722.776643 984.714482 L706.209433 968.229973 L736.256451 968.154790 L730.232011 962.160423 L753.501535 955.341577 L749.736259 951.595098 Z" fill="#888" fill-opacity="0.18" stroke="#000" stroke-width="1"/>
  <path d="M47.021685 795.147558 L73.650622 802.481737 L70.379101 806.666298 L94.314693 810.546349 L89.080259 817.241647 L118.904590 813.589486 L104.509896 832.001557 L117.900493 842.470425 L110.048842 852.513372 L96.658245 842.044504 L82.263551 860.456574 L78.611391 830.632243 L73.376957 837.327541 L63.836058 815.035421 L60.564537 819.219983 Z" fill="#888" fill-opacity="0.18" stroke="#000" stroke-width="1"/>
  <path d="M838.004078 1029.265697 L862.675222 1016.846956 L863.054943 1022.144995 L883.411712 1008.970423 L884.019267 1017.447285 L903.692536 994.736243 L905.363311 1018.047615 L922.317036 1016.832506 L923.228368 1029.547799 L906.274643 1030.762908 L907.945418 1054.074280 L885.234375 1034.401010 L885.841930 1042.877872 L863.814387 1032.741073 L864.194108 1038.039112 Z" fill="#888" fill-opacity="0.18" stroke="#000" stroke-width="1"/>
  <path d="M290.649599 136.215796 L312.921229 152.551799 L308.374036 155.297059 L329.358897 167.446257 L322.083389 171.838672 L351.253195 179.046403 L331.245550 191.125544 L340.030380 205.676559 L329.117118 212.265182 L320.332288 197.714167 L300.324643 209.793308 L307.532374 180.623502 L300.256867 185.015917 L299.279652 160.787577 L294.732460 163.532837 Z" fill="#888" fill-opacity="0.18" stroke="#000" stroke-width="1"/>
  <path d="M839.075223 239.678098 L844.217899 266.815588 L839.020217 265.721278 L846.077877 288.919485 L837.761586 287.168590 L854.175072 312.336554 L831.305274 307.521591 L827.803483 324.154171 L815.329048 321.527828 L818.830839 304.895247 L795.961041 300.080284 L821.129006 283.666798 L812.812716 281.915902 L828.624854 263.532658 L823.427173 262.438349 Z" fill="#888" fill-opacity="0.18" stroke="#000" stroke-width="1"/>
  <path d="M1019.106441 926.708444 L993.179802 936.232093 L993.406864 930.925319 L971.680232 941.691973 L972.043532 933.201135 L949.908187 953.519981 L950.907261 930.170176 L933.925585 929.443577 L934.470535 916.707320 L951.452211 917.433919 L952.451285 894.084114 L972.770131 916.219458 L973.133431 907.728620 L993.860989 920.311772 L994.088051 915.004998 Z" fill="#888" fill-opacity="0.18" stroke="#000" stroke-width="1"/>
  <path d="M258.993734 931.060169 L271.556517 955.658278 L266.260788 956.068971 L279.554162 976.348360 L271.080997 977.005468 L293.906681 996.545609 L270.605477 998.352658 L271.919695 1015.298988 L259.209947 1016.284651 L257.895730 999.338321 L234.594526 1001.145370 L254.134667 978.319686 L245.661502 978.976794 L255.669332 956.890357 L250.373604 957.301050 Z" fill="#888" fill-opacity="0.18" stroke="#000" stroke-width="1"/>
  <path d="M661.783863 434.079335 L647.832467 457.917310 L644.632782 453.677567 L634.713117 475.803742 L629.593621 469.020153 L625.433389 498.777865 L611.354775 480.122996 L597.787597 490.361988 L590.108353 480.186605 L603.675530 469.947613 L589.596916 451.292744 L619.354628 455.452975 L614.235132 448.669386 L638.233411 445.198081 L635.033726 440.958338 Z" fill="#888" fill-opacity="0.18" stroke="#000" stroke-width="1"/>
  <path d="M786.165808 557.774844 L768.943676 579.368562 L766.384298 574.714210 L753.397523 595.191296 L749.302518 587.744333 L740.922623 616.599252 L729.661360 596.120104 L714.767435 604.310114 L708.624927 593.139670 L723.518853 584.949660 L712.257590 564.470513 L741.112508 572.850407 L737.017504 565.403445 L761.265542 565.405506 L758.706164 560.751155 Z" fill="#888" fill-opacity="0.18" stroke="#000" stroke-width="1"/>
  <path d="M482.729187 862.361267 L474.252073 888.648698 L470.212671 885.199548 L465.302757 908.945287 L458.839713 903.426648 L461.200724 933.380856 L443.427354 918.204598 L432.390074 931.130685 L422.695509 922.852726 L433.732788 909.926638 L415.959417 894.750380 L445.913626 892.389369 L439.450582 886.870729 L462.133866 878.301249 L458.094463 874.852099 Z" fill="#888" fill-opacity="0.18" stroke="#000" stroke-width="1"/>
  <path d="M561.874926 639.396241 L534.625490 643.908303 L535.840023 638.737393 L512.484408 645.255264 L514.427661 636.981807 L488.885887 652.807317 L494.229832 630.055311 L477.682919 626.168805 L480.597798 613.758620 L497.144712 617.645125 L502.488657 594.893119 L518.314167 620.434894 L520.257420 612.161437 L538.269089 628.395572 L539.483622 623.224662 Z" fill="#888" fill-opacity="0.18" stroke="#000" stroke-width="1"/>
  <path d="M91.677199 715.426005 L95.544676 742.774370 L90.403881 741.438097 L96.368536 764.941081 L88.143263 762.803043 L103.361350 788.711320 L80.741850 782.831715 L76.465774 799.282261 L64.127865 796.075204 L68.403941 779.624658 L45.784441 773.745054 L71.692718 758.526967 L63.467445 756.388929 L80.122290 738.765549 L74.981495 737.429275 Z" fill="#888" fill-opacity="0.18" stroke="#000" stroke-width="1"/>
  <path d="M307.831550 520.199661 L290.327918 541.565834 L287.829754 536.878343 L274.575748 557.183482 L270.578685 549.683496 L261.821376 578.426121 L250.829452 557.801157 L235.829478 565.795283 L229.833883 554.545302 L244.833857 546.551176 L233.841934 525.926212 L262.584559 534.683522 L258.587496 527.183535 L282.833425 527.503359 L280.335261 522.815867 Z" fill="#888" fill-opacity="0.18" stroke="#000" stroke-width="1"/>
  <path d="M1037.305132 453.125183 L1044.931675 479.671865 L1039.655153 479.062177 L1048.824752 501.509579 L1040.382316 500.534079 L1059.049654 524.078918 L1035.832957 521.396293 L1033.881956 538.281164 L1021.218303 536.817913 L1023.169303 519.933042 L999.952606 517.250417 L1023.497445 498.583078 L1015.055009 497.607578 L1029.102109 477.842802 L1023.825587 477.233114 Z" fill="#888" fill-opacity="0.18" stroke="#000" stroke-width="1"/>
  <path d="M160.835754 1016.376688 L133.226177 1017.152390 L135.130607 1012.193907 L111.106929 1015.484850 L114.154017 1007.551277 L86.702366 1019.767489 L95.081858 997.950165 L79.214713 991.855989 L83.785344 979.955630 L99.652490 986.049806 L108.031981 964.232481 L120.248193 991.684132 L123.295281 983.750560 L138.939467 1002.276942 L140.843897 997.318459 Z" fill="#888" fill-opacity="0.18" stroke="#000" stroke-width="1"/>
  <path d="M259.029076 428.705325 L235.832407 413.711826 L240.209705 410.703061 L218.544588 399.813153 L225.548264 394.999129 L196.004011 389.524999 L215.264122 376.286431 L205.636073 362.279078 L216.141587 355.058041 L225.769637 369.065394 L245.029747 355.826827 L239.555617 385.371080 L246.559294 380.557055 L248.964300 404.685530 L253.341598 401.676765 Z" fill="#888" fill-opacity="0.18" stroke="#000" stroke-width="1"/>
  <path d="M833.748796 1050.645876 L806.289834 1047.663277 L808.850278 1043.009511 L784.602239 1043.006020 L788.698950 1035.559995 L759.842112 1043.933281 L771.108065 1023.456713 L756.216016 1015.263293 L762.361081 1004.094256 L777.253131 1012.287676 L788.519084 991.811108 L796.892370 1020.667946 L800.989080 1013.221921 L813.971166 1033.701980 L816.531609 1029.048215 Z" fill="#888" fill-opacity="0.18" stroke="#000" stroke-width="1"/>
  <path d="M701.163950 43.148824 L712.712969 68.238875 L707.404896 68.433223 L719.860050 89.237947 L711.367134 89.548905 L733.376818 110.003801 L710.021299 110.858934 L710.643214 127.844766 L697.903840 128.311203 L697.281925 111.325371 L673.926405 112.180504 L694.381302 90.170820 L685.888385 90.481778 L696.788751 68.821921 L691.480678 69.016269 Z" fill="#888" fill-opacity="0.18" stroke="#000" stroke-width="1"/>
  <path d="M848.995386 436.032602 L844.720237 463.320211 L840.192492 460.542994 L839.044665 484.763850 L831.800273 480.320304 L838.802387 509.540150 L818.880309 497.320397 L809.993217 511.809181 L799.126629 505.143862 L808.013721 490.655078 L788.091643 478.435326 L817.311489 471.433211 L810.067097 466.989665 L831.137002 454.988561 L826.609257 452.211345 Z" fill="#888" fill-opacity="0.18" stroke="#000" stroke-width="1"/>
  <path d="M155.915178 504.174466 L129.845156 495.050628 L133.393028 491.097654 L109.775811 485.602708 L115.452406 479.277949 L85.449019 480.898358 L101.059657 463.505270 L88.410138 452.152079 L96.925032 442.664940 L109.574550 454.018131 L125.185188 436.625043 L126.805598 466.628431 L132.482193 460.303671 L140.488772 483.191704 L144.036645 479.238730 Z" fill="#888" fill-opacity="0.18" stroke="#000" stroke-width="1"/>
  <path d="M855.871490 711.633941 L856.462531 739.248089 L851.516895 737.310541 L854.647101 761.355690 L846.734084 758.255613 L858.766435 785.788348 L837.005637 777.263137 L830.805483 793.089171 L818.935958 788.439056 L825.136111 772.613021 L803.375314 764.087809 L830.908049 752.055459 L822.995032 748.955382 L841.625623 733.435445 L836.679988 731.497897 Z" fill="#888" fill-opacity="0.18" stroke="#000" stroke-width="1"/>
  <path d="M376.448216 935.497588 L366.341605 909.792590 L371.652153 909.899774 L360.397685 888.421778 L368.894562 888.593273 L348.081108 866.922345 L371.447518 867.393956 L371.790508 850.400203 L384.535823 850.657445 L384.192833 867.651198 L407.559243 868.122809 L385.888315 888.936263 L394.385191 889.107758 L382.273249 910.114143 L387.583796 910.221327 Z" fill="#888" fill-opacity="0.18" stroke="#000" stroke-width="1"/>
  <path d="M286.434271 941.179977 L299.194820 916.683878 L302.599413 920.760906 L311.417421 898.173075 L316.864769 904.696319 L319.554511 874.769838 L334.534717 892.708761 L347.581206 881.814065 L355.752228 891.598932 L342.705739 902.493628 L357.685945 920.432551 L327.759464 917.742809 L333.206812 924.266053 L309.408597 928.914961 L312.813190 932.991989 Z" fill="#888" fill-opacity="0.18" stroke="#000" stroke-width="1"/>
  <path d="M788.476030 327.359841 L760.855770 327.468381 L762.879422 322.557348 L738.783258 325.267016 L742.021100 317.409364 L714.282365 328.958891 L723.186430 307.350347 L707.471125 300.874664 L712.327887 289.088185 L728.043192 295.563868 L736.947257 273.955324 L748.496783 301.694059 L751.734625 293.836407 L766.926724 312.735283 L768.950375 307.824250 Z" fill="#888" fill-opacity="0.18" stroke="#000" stroke-width="1"/>
  <path d="M471.252663 825.876584 L493.077086 808.947761 L494.467970 814.074050 L511.913184 797.232676 L514.138599 805.434740 L529.080221 779.366044 L535.200111 801.921719 L551.604239 797.470890 L554.942361 809.773985 L538.538233 814.224815 L544.658124 836.780490 L518.589428 821.838867 L520.814843 830.040931 L497.249738 824.326630 L498.640622 829.452920 Z" fill="#888" fill-opacity="0.18" stroke="#000" stroke-width="1"/>
  <path d="M1055.849857 879.094752 L1034.098684 862.071917 L1038.729304 859.469847 L1018.133662 846.671921 L1025.542653 842.508610 L996.611896 834.394409 L1016.986623 822.945303 L1008.660000 808.127320 L1019.773488 801.882353 L1028.100110 816.700336 L1048.474837 805.251230 L1040.360637 834.181987 L1047.769628 830.018676 L1047.990543 854.265708 L1052.621163 851.663638 Z" fill="#888" fill-opacity="0.18" stroke="#000" stroke-width="1"/>
  <path d="M105.599116 786.460632 L133.217793 786.145686 L131.230899 791.071704 L155.306139 788.182040 L152.127109 796.063669 L179.778759 784.307171 L171.036425 805.981652 L186.799685 812.339713 L182.031139 824.162157 L166.267880 817.804097 L157.525547 839.478578 L145.769048 811.826928 L142.590018 819.708558 L127.257111 800.923741 L125.270217 805.849760 Z" fill="#888" fill-opacity="0.18" stroke="#000" stroke-width="1"/>
  <path d="M940.410018 968.913487 L961.284134 987.001101 L956.529371 989.368724 L976.460341 1003.179004 L968.852721 1006.967201 L997.342264 1016.515758 L976.421308 1026.933300 L983.997702 1042.148540 L972.586272 1047.830835 L965.009878 1032.615595 L944.088923 1043.033137 L953.637481 1014.543595 L946.029861 1018.331791 L947.019846 994.103971 L942.265084 996.471594 Z" fill="#888" fill-opacity="0.18" stroke="#000" stroke-width="1"/>
  <path d="M694.667436 752.429100 L682.706628 727.532724 L688.010778 727.250952 L675.214557 706.654250 L683.701197 706.203414 L661.357506 686.113903 L684.695767 684.874104 L683.794095 667.900823 L696.524056 667.224569 L697.425728 684.197850 L720.763989 682.958051 L700.674478 705.301742 L709.161119 704.850906 L698.619078 726.687407 L703.923229 726.405634 Z" fill="#888" fill-opacity="0.18" stroke="#000" stroke-width="1"/>
  <path d="M466.810152 322.002887 L439.873737 328.111900 L440.781635 322.878438 L417.850410 330.760462 L419.303047 322.386923 L394.737606 339.689179 L398.732358 316.661945 L381.985279 313.756671 L384.164234 301.196361 L400.911313 304.101636 L404.906066 281.074402 L422.208321 305.639844 L423.660959 297.266304 L442.597431 312.411514 L443.505329 307.178052 Z" fill="#888" fill-opacity="0.18" stroke="#000" stroke-width="1"/>
  <path d="M175.758265 146.482343 L192.693098 168.302104 L187.567191 169.694399 L204.413369 187.134975 L196.211918 189.362648 L222.284727 204.297092 L199.730738 210.423193 L204.186084 226.826094 L191.883909 230.167604 L187.428562 213.764703 L164.874573 219.890804 L179.809017 193.817994 L171.607566 196.045668 L177.315378 172.478991 L172.189472 173.871286 Z" fill="#888" fill-opacity="0.18" stroke="#000" stroke-width="1"/>
  <path d="M425.872070 950.001786 L442.021937 972.408755 L436.849852 973.618275 L453.066520 991.645672 L444.791183 993.580905 L470.317605 1009.431165 L447.560430 1014.753054 L451.430894 1031.303727 L439.017889 1034.206575 L435.147425 1017.655902 L412.390249 1022.977791 L428.240510 997.451369 L419.965174 999.386601 L426.505681 976.037316 L421.333596 977.246836 Z" fill="#888" fill-opacity="0.18" stroke="#000" stroke-width="1"/>
  <path d="M377.135503 48.508656 L380.195372 75.959115 L375.096188 74.471927 L380.365644 98.140476 L372.206949 95.760977 L386.654937 122.106463 L364.218526 115.562838 L359.459526 131.880228 L347.221484 128.310978 L351.980484 111.993589 L329.544074 105.449964 L355.889560 91.001977 L347.730865 88.622477 L364.897820 71.497553 L359.798636 70.010365 Z" fill="#888" fill-opacity="0.18" stroke="#000" stroke-width="1"/>
  <path d="M185.101889 230.636078 L170.171779 253.873598 L167.151074 249.504531 L156.320358 271.199299 L151.487230 264.208792 L146.093784 293.767881 L132.802680 274.543987 L118.821666 284.210244 L111.571973 273.724483 L125.552987 264.058226 L112.261884 244.834332 L141.820972 250.227778 L136.987844 243.237271 L161.109663 240.766397 L158.088958 236.397330 Z" fill="#888" fill-opacity="0.18" stroke="#000" stroke-width="1"/>
  <path d="M137.056330 594.200982 L124.940945 569.379461 L130.243241 569.064712 L117.319196 548.547977 L125.802869 548.044379 L103.334692 528.094191 L126.664792 526.709297 L125.657597 509.741951 L138.383106 508.986554 L139.390302 525.953900 L162.720403 524.569006 L142.770215 547.037183 L151.253888 546.533585 L140.847832 568.435215 L146.150128 568.120466 Z" fill="#888" fill-opacity="0.18" stroke="#000" stroke-width="1"/>
  <path d="M806.249733 918.658635 L780.399753 928.388435 L780.584551 923.080022 L758.944342 934.019343 L759.240018 925.525881 L737.267174 946.020347 L738.080282 922.663327 L721.093358 922.071975 L721.536871 909.331783 L738.523795 909.923134 L739.336903 886.566114 L759.831369 908.538957 L760.127044 900.045495 L780.954145 912.463194 L781.138942 907.154781 Z" fill="#888" fill-opacity="0.18" stroke="#000" stroke-width="1"/>
  <path d="M240.345855 761.127397 L215.944628 748.186353 L220.046679 744.811952 L197.524563 735.827430 L204.087844 730.428388 L174.182036 727.517788 L192.231061 712.670424 L181.432978 699.543860 L191.277900 691.445297 L202.075984 704.571861 L220.125009 689.724497 L217.214408 719.630305 L223.777690 714.231264 L228.250781 738.063150 L232.352832 734.688749 Z" fill="#888" fill-opacity="0.18" stroke="#000" stroke-width="1"/>
  <path d="M479.729375 417.307763 L487.338586 443.859418 L482.062463 443.246286 L491.217405 465.699669 L482.775608 464.718657 L501.427571 488.275679 L478.212629 485.577897 L476.250606 502.461490 L463.587911 500.989973 L465.549934 484.106379 L442.334993 481.408597 L465.892014 462.756634 L457.450217 461.775622 L471.510217 442.020021 L466.234094 441.406889 Z" fill="#888" fill-opacity="0.18" stroke="#000" stroke-width="1"/>
  <path d="M135.109187 699.422595 L142.700199 725.979459 L137.424497 725.362711 L146.564047 747.822363 L138.122925 746.835566 L156.758738 770.405366 L133.545651 767.691673 L131.572056 784.573918 L118.910372 783.093722 L120.883967 766.211477 L97.670880 763.497784 L121.240680 744.861971 L112.799557 743.875174 L126.873094 724.129214 L121.597392 723.512466 Z" fill="#888" fill-opacity="0.18" stroke="#000" stroke-width="1"/>
  <path d="M455.343154 692.528365 L432.503359 708.060081 L431.435583 702.856884 L412.971900 718.575019 L411.263459 710.249903 L394.721772 735.333794 L390.023560 712.439726 L373.373329 715.856607 L370.810668 703.368934 L387.460899 699.952053 L382.762688 677.057985 L407.846578 693.599672 L406.138138 685.274557 L429.300032 692.450489 L428.232257 687.247292 Z" fill="#888" fill-opacity="0.18" stroke="#000" stroke-width="1"/>
  <path d="M795.283010 431.259360 L817.728850 415.163561 L818.925897 420.338547 L836.992339 404.165389 L838.907615 412.445367 L854.819372 386.957234 L860.086379 409.727174 L876.646335 405.896623 L879.519248 418.316590 L862.959292 422.147141 L868.226299 444.917081 L842.738165 429.005324 L844.653440 437.285302 L821.319991 430.688520 L822.517038 435.863507 Z" fill="#888" fill-opacity="0.18" stroke="#000" stroke-width="1"/>
  <path d="M597.248318 937.115716 L593.381868 909.767205 L598.522613 911.103672 L592.558840 887.600464 L600.784032 889.738810 L585.566918 863.829962 L608.186197 869.710416 L612.462891 853.260031 L624.800680 856.467551 L620.523986 872.917936 L643.143266 878.798389 L617.234418 894.015504 L625.459610 896.153851 L608.804104 913.776605 L613.944849 915.113072 Z" fill="#888" fill-opacity="0.18" stroke="#000" stroke-width="1"/>
  <path d="M1055.743271 720.008600 L1049.830669 746.988808 L1045.478605 743.943657 L1042.872538 768.051244 L1035.909236 763.179001 L1041.136883 792.767862 L1021.987804 779.369194 L1012.243318 793.295797 L1001.798366 785.987433 L1011.542851 772.060830 L992.393772 758.662162 L1021.982633 753.434516 L1015.019332 748.562273 L1036.774479 737.853353 L1032.422415 734.808201 Z" fill="#888" fill-opacity="0.18" stroke="#000" stroke-width="1"/>
  <path d="M726.238043 607.883723 L703.504056 623.569906 L702.401035 618.374066 L684.044324 634.217000 L682.279490 625.903657 L665.908218 651.099102 L661.054923 628.237408 L644.428236 631.767078 L641.780984 619.297063 L658.407670 615.767393 L653.554375 592.905699 L678.749820 609.276970 L676.984985 600.963627 L700.194991 607.982387 L699.091970 602.786548 Z" fill="#888" fill-opacity="0.18" stroke="#000" stroke-width="1"/>
  <path d="M983.510215 651.427936 L971.061663 676.084052 L967.605588 672.050572 L959.075034 694.748524 L953.545315 688.294957 L951.235695 718.253172 L936.028968 700.505863 L923.121834 711.565300 L914.827256 701.884950 L927.734390 690.825512 L912.527663 673.078203 L942.485878 675.387823 L936.956159 668.934256 L960.693440 663.983613 L957.237365 659.950134 Z" fill="#888" fill-opacity="0.18" stroke="#000" stroke-width="1"/>
  <path d="M866.440736 143.227810 L872.429333 170.191251 L867.199980 169.259978 L874.979465 192.226192 L866.612500 190.736156 L883.804822 215.378661 L860.795667 211.281060 L857.815594 228.014991 L845.265146 225.779936 L848.245219 209.046005 L825.236064 204.948404 L849.878569 187.756082 L841.511604 186.266046 L856.741273 167.397433 L851.511919 166.466160 Z" fill="#888" fill-opacity="0.18" stroke="#000" stroke-width="1"/>
  <path d="M566.616551 912.411874 L548.071271 932.880462 L545.809487 928.074451 L531.561372 947.694813 L527.942516 940.005197 L517.765614 968.276377 L507.813761 947.129932 L492.434528 954.367644 L487.006244 942.833219 L502.385477 935.595507 L492.433624 914.449062 L520.704805 924.625964 L517.085949 916.936347 L541.285917 918.462431 L539.024132 913.656421 Z" fill="#888" fill-opacity="0.18" stroke="#000" stroke-width="1"/>
  <path d="M341.302287 837.054294 L366.304626 825.316597 L366.538955 830.623055 L387.249262 818.011531 L387.624189 826.501863 L407.912704 804.338715 L408.943752 827.687129 L425.924418 826.937276 L426.486808 839.672775 L409.506143 840.422628 L410.537192 863.771043 L388.374043 843.482529 L388.748970 851.972861 L367.007614 841.235971 L367.241943 846.542429 Z" fill="#888" fill-opacity="0.18" stroke="#000" stroke-width="1"/>
  <path d="M997.518038 672.244060 L1001.070865 699.635079 L995.945770 698.239796 L1001.639843 721.809796 L993.439692 719.577342 L1008.358934 745.658853 L985.808520 739.519605 L981.343613 755.919906 L969.043387 752.571225 L973.508295 736.170924 L950.957881 730.031676 L977.039391 715.112434 L968.839241 712.879981 L985.695582 695.449228 L980.570488 694.053945 Z" fill="#888" fill-opacity="0.18" stroke="#000" stroke-width="1"/>
  <path d="M811.766878 941.358242 L829.299926 962.700283 L824.214575 964.234105 L841.537635 981.201101 L833.401073 983.655216 L859.877765 997.861333 L837.502220 1004.610150 L842.410451 1020.883273 L830.205608 1024.564446 L825.297378 1008.291322 L802.921833 1015.040139 L817.127949 988.563447 L808.991388 991.017562 L814.043872 967.301749 L808.958521 968.835571 Z" fill="#888" fill-opacity="0.18" stroke="#000" stroke-width="1"/>
  <path d="M923.326675 415.629122 L949.443487 424.618149 L945.916085 428.589401 L969.561376 433.962256 L963.917533 440.316259 L993.912148 438.540861 L978.391578 456.014368 L991.099584 467.302055 L982.633818 476.833059 L969.925813 465.545372 L954.405244 483.018879 L952.629846 453.024264 L946.986002 459.378267 L938.861280 436.531904 L935.333878 440.503156 Z" fill="#888" fill-opacity="0.18" stroke="#000" stroke-width="1"/>
  <path d="M671.176247 967.519354 L691.505867 986.216869 L686.683111 988.442725 L706.196597 1002.836864 L698.480189 1006.398233 L726.674634 1016.785832 L705.454510 1026.579598 L712.577249 1042.012416 L701.002636 1047.354470 L693.879897 1031.921652 L672.659772 1041.715418 L683.047371 1013.520972 L675.330962 1017.082342 L677.037600 992.894437 L672.214845 995.120293 Z" fill="#888" fill-opacity="0.18" stroke="#000" stroke-width="1"/>
  <path d="M760.157337 283.391170 L764.381982 256.095696 L768.914859 258.864529 L770.017862 234.641591 L777.270465 239.071723 L770.214291 209.864885 L790.158947 222.047751 L799.019213 207.542546 L809.898117 214.187745 L801.037851 228.692950 L820.982508 240.875815 L791.775670 247.931989 L799.028272 252.362122 L777.980612 264.402195 L782.513488 267.171028 Z" fill="#888" fill-opacity="0.18" stroke="#000" stroke-width="1"/>
  <path d="M183.674698 1001.183823 L211.153292 1003.979776 L208.624529 1008.650831 L232.872031 1008.489563 L228.826010 1015.963252 L257.625286 1007.394083 L246.498727 1027.946728 L261.446105 1036.038771 L255.377073 1047.249304 L240.429695 1039.157261 L229.303136 1059.709906 L220.733967 1030.910630 L216.687945 1038.384319 L203.567002 1017.992943 L201.038239 1022.663998 Z" fill="#888" fill-opacity="0.18" stroke="#000" stroke-width="1"/>
  <path d="M173.511539 344.716797 L194.838984 327.165998 L196.377037 332.250071 L213.329614 314.912899 L215.790498 323.047416 L229.974580 296.558913 L236.742012 318.928835 L253.011046 314.007067 L256.702372 326.208842 L240.433338 331.130611 L247.200770 353.500532 L220.712266 339.316450 L223.173151 347.450967 L199.453142 342.418217 L200.991195 347.502290 Z" fill="#888" fill-opacity="0.18" stroke="#000" stroke-width="1"/>
  <path d="M647.249619 1008.032234 L623.749363 1022.545278 L622.911267 1017.300185 L603.774705 1032.191772 L602.433752 1023.799623 L584.805761 1048.132377 L581.118141 1025.053967 L564.333844 1027.735873 L562.322414 1015.147649 L579.106712 1012.465744 L575.419093 989.387334 L599.751847 1007.015325 L598.410894 998.623176 L621.235076 1006.809999 L620.396981 1001.564906 Z" fill="#888" fill-opacity="0.18" stroke="#000" stroke-width="1"/>
  <path d="M238.599854 852.772289 L264.579567 843.394389 L264.322707 848.699804 L286.109460 838.055333 L285.698483 846.543997 L307.947585 826.349779 L306.817399 849.693605 L323.794727 850.515559 L323.178262 863.248555 L306.200934 862.426601 L305.070747 885.770427 L284.876529 863.521325 L284.465553 872.009989 L263.808986 859.310634 L263.552125 864.616049 Z" fill="#888" fill-opacity="0.18" stroke="#000" stroke-width="1"/>
  <path d="M911.920162 543.347590 L887.777194 529.930900 L891.944577 526.637525 L869.602832 517.213416 L876.270646 511.944016 L846.427611 508.447983 L864.764098 493.957132 L854.225297 480.621505 L864.227018 472.717404 L874.765819 486.053031 L893.102306 471.562180 L889.606273 501.405215 L896.274087 496.135815 L900.279344 520.050774 L904.446728 516.757399 Z" fill="#888" fill-opacity="0.18" stroke="#000" stroke-width="1"/>
  <path d="M934.200428 866.028309 L930.453097 838.663222 L935.587975 840.022060 L929.726597 816.493107 L937.942401 818.667248 L922.838245 792.692386 L945.431705 798.671274 L949.779987 782.239667 L962.103692 785.500879 L957.755410 801.932486 L980.348870 807.911374 L954.374008 823.015530 L962.589812 825.189671 L945.857729 842.739736 L950.992606 844.098575 Z" fill="#888" fill-opacity="0.18" stroke="#000" stroke-width="1"/>
  <path d="M802.838233 679.866484 L775.387826 676.806145 L777.961437 672.159648 L753.713506 672.087497 L757.831284 664.653102 L728.950853 672.944645 L740.274741 652.500059 L725.405951 644.264504 L731.582618 633.112912 L746.451407 641.348467 L757.775296 620.903881 L766.066839 649.784312 L770.184616 642.349918 L783.108659 662.866654 L785.682270 658.220158 Z" fill="#888" fill-opacity="0.18" stroke="#000" stroke-width="1"/>
  <path d="M508.382606 170.154419 L506.631324 142.589523 L511.654033 144.317468 L507.515853 120.425150 L515.552188 123.189863 L502.373131 96.187244 L524.473053 103.790202 L530.002477 87.717532 L542.056980 91.864600 L536.527556 107.937271 L558.627478 115.540230 L531.624859 128.719287 L539.661194 131.483999 L521.699452 147.773358 L526.722162 149.501303 Z" fill="#888" fill-opacity="0.18" stroke="#000" stroke-width="1"/>
  <path d="M891.088631 322.999027 L877.897664 298.731994 L883.181085 298.185301 L869.370788 278.254343 L877.824261 277.379634 L854.503807 258.432724 L877.750857 256.027275 L876.001440 239.120330 L888.681649 237.808267 L890.431066 254.715212 L913.678117 252.309763 L894.731206 275.630217 L903.184679 274.755508 L893.747926 297.091915 L899.031346 296.545222 Z" fill="#888" fill-opacity="0.18" stroke="#000" stroke-width="1"/>
  <path d="M424.916320 817.900565 L405.508167 798.248235 L410.432260 796.256575 L391.632616 780.941852 L399.511166 777.755197 L371.848153 766.025461 L393.514164 757.262159 L387.140853 741.505059 L398.958678 736.725076 L405.331989 752.482176 L426.998001 743.718873 L415.268265 771.381886 L423.146815 768.195231 L420.280448 792.273256 L425.204541 790.281596 Z" fill="#888" fill-opacity="0.18" stroke="#000" stroke-width="1"/>
  <path d="M981.775047 650.781848 L993.056492 625.570353 L996.697479 629.437732 L1004.156824 606.365551 L1009.982403 612.553357 L1010.887971 582.519894 L1026.908314 599.536361 L1039.283926 587.885203 L1048.022295 597.166913 L1035.646682 608.818071 L1051.667024 625.834538 L1021.633561 624.928970 L1027.459140 631.116776 L1003.979453 637.172490 L1007.620440 641.039869 Z" fill="#888" fill-opacity="0.18" stroke="#000" stroke-width="1"/>
  <path d="M960.778957 973.452539 L934.167888 966.053788 L937.449550 961.877175 L913.523440 957.939076 L918.774099 951.256495 L888.940997 954.836300 L903.380310 936.459201 L890.015147 925.957883 L897.891136 915.934010 L911.256299 926.435329 L925.695612 908.058230 L929.275418 937.891332 L934.526077 931.208750 L944.012874 953.523948 L947.294536 949.347334 Z" fill="#888" fill-opacity="0.18" stroke="#000" stroke-width="1"/>
  <path d="M806.565326 939.298303 L831.865290 928.216681 L831.961142 933.527446 L852.993324 921.460353 L853.146688 929.957576 L874.006334 908.331108 L874.428086 931.698471 L891.422532 931.391742 L891.652579 944.137576 L874.658133 944.444305 L875.079885 967.811668 L853.453417 946.952022 L853.606781 955.449245 L832.152848 944.148974 L832.248700 949.459739 Z" fill="#888" fill-opacity="0.18" stroke="#000" stroke-width="1"/>
  <path d="M307.708410 466.726918 L330.714436 482.011331 L326.299598 484.964737 L347.825866 496.126597 L340.762125 500.852047 L370.235103 506.697776 L350.809814 519.692763 L360.260714 533.820246 L349.665101 540.908420 L340.214202 526.780937 L320.788913 539.775924 L326.634642 510.302946 L319.570901 515.028396 L317.469921 490.871549 L313.055082 493.824955 Z" fill="#888" fill-opacity="0.18" stroke="#000" stroke-width="1"/>
  <path d="M317.112045 1011.414732 L326.692206 985.508922 L330.582279 989.125652 L336.491041 965.608554 L342.715158 971.395323 L341.621789 941.368110 L358.738109 957.281725 L370.311647 944.833492 L379.647821 953.513645 L368.074284 965.961878 L385.190603 981.875493 L355.163390 982.968861 L361.387506 988.755630 L338.362424 996.359113 L342.252497 999.975844 Z" fill="#888" fill-opacity="0.18" stroke="#000" stroke-width="1"/>
  <path d="M281.452214 549.017266 L308.272987 555.615495 L305.117919 559.888544 L329.151266 563.108108 L324.103157 569.944987 L353.815627 565.473062 L339.933327 584.274479 L353.607085 594.370697 L346.034922 604.626015 L332.361164 594.529797 L318.478864 613.331215 L314.006939 583.618745 L308.958830 590.455624 L298.807783 568.434643 L295.652715 572.707692 Z" fill="#888" fill-opacity="0.18" stroke="#000" stroke-width="1"/>
  <path d="M226.798917 866.325814 L251.951843 877.737248 L248.065721 881.358223 L271.099090 888.936565 L264.881295 894.730126 L294.909684 895.790712 L277.810748 911.723003 L289.397869 924.158593 L280.071177 932.848934 L268.484056 920.413344 L251.385119 936.345636 L252.445705 906.317247 L246.227910 912.110807 L240.293477 888.600174 L236.407355 892.221149 Z" fill="#888" fill-opacity="0.18" stroke="#000" stroke-width="1"/>
  <path d="M814.322967 78.124103 L789.989596 91.192291 L789.469605 85.906175 L769.469124 99.615593 L768.637138 91.157809 L749.572641 114.382234 L747.284680 91.123326 L730.369111 92.787298 L729.121133 80.100621 L746.036702 78.436650 L743.748742 55.177742 L766.973167 74.242240 L766.141181 65.784455 L788.429623 75.333945 L787.909632 70.047829 Z" fill="#888" fill-opacity="0.18" stroke="#000" stroke-width="1"/>
  <path d="M733.803287 472.227475 L716.918957 450.368613 L722.048069 448.988174 L705.242267 431.508690 L713.448847 429.299988 L687.410642 414.305293 L709.978737 408.231362 L705.561333 391.818202 L717.871202 388.505149 L722.288606 404.918309 L744.856701 398.844379 L729.862006 424.882584 L738.068586 422.673882 L732.306294 446.227297 L737.435406 444.846858 Z" fill="#888" fill-opacity="0.18" stroke="#000" stroke-width="1"/>
  <path d="M300.595903 787.154355 L278.835216 770.143681 L283.464381 767.539023 L262.861588 754.752613 L270.268251 750.585160 L241.332962 742.487134 L261.701286 731.026639 L253.366381 716.213313 L264.476375 709.962134 L272.811280 724.775461 L293.179604 713.314966 L285.081577 742.250255 L292.488240 738.082803 L292.722710 762.329708 L297.351874 759.725050 Z" fill="#888" fill-opacity="0.18" stroke="#000" stroke-width="1"/>
  <path d="M515.164145 413.608249 L487.562939 414.639723 L489.421347 409.663808 L465.429191 413.177191 L468.402643 405.215727 L441.065355 417.685756 L449.242347 395.791731 L433.319420 389.844828 L437.779598 377.902632 L453.702525 383.849536 L461.879518 361.955511 L474.349547 389.292800 L477.322999 381.331336 L493.138162 399.711978 L494.996569 394.736064 Z" fill="#888" fill-opacity="0.18" stroke="#000" stroke-width="1"/>
  <path d="M271.257715 48.003224 L298.793525 50.164160 L296.373255 54.892341 L320.610574 54.171425 L316.738141 61.736515 L345.331948 52.504873 L334.682757 73.308869 L349.812937 81.053735 L344.004288 92.401370 L328.874108 84.656504 L318.224918 105.460501 L308.993276 76.866694 L305.120843 84.431784 L291.532714 64.348704 L289.112443 69.076885 Z" fill="#888" fill-opacity="0.18" stroke="#000" stroke-width="1"/>
  <path d="M504.316854 909.923616 L515.666239 884.742632 L519.296785 888.619815 L526.818315 865.567831 L532.627188 871.771323 L533.613736 841.740411 L549.588136 858.800014 L561.995120 847.182269 L570.708430 856.487507 L558.301445 868.105253 L574.275846 885.164856 L544.244933 884.178308 L550.053806 890.381800 L526.557876 896.374180 L530.188421 900.251363 Z" fill="#888" fill-opacity="0.18" stroke="#000" stroke-width="1"/>
  <path d="M285.189380 162.425625 L276.274360 188.567793 L272.293134 185.051652 L266.987271 208.712067 L260.617309 203.086242 L262.477654 233.075709 L244.960258 217.604692 L233.708610 230.344617 L224.153666 221.905880 L235.405314 209.165956 L217.887918 193.694939 L247.877384 191.834594 L241.507422 186.208770 L264.330681 178.019372 L260.349454 174.503232 Z" fill="#888" fill-opacity="0.18" stroke="#000" stroke-width="1"/>
  <path d="M452.809468 587.866860 L461.829207 613.973081 L456.527826 613.643285 L466.871679 635.574361 L458.389469 635.046686 L478.275808 657.571396 L454.949732 656.120292 L453.894383 673.084711 L441.171069 672.293199 L442.226417 655.328780 L418.900341 653.877676 L441.425050 633.991338 L432.942841 633.463664 L445.925064 612.983692 L440.623683 612.653896 Z" fill="#888" fill-opacity="0.18" stroke="#000" stroke-width="1"/>
  <path d="M427.365458 502.151286 L399.767922 501.025905 L402.008931 496.210173 L377.815779 497.840746 L381.401395 490.135574 L353.174425 500.434466 L363.034868 479.245242 L347.624523 472.074011 L353.002946 460.516253 L368.413291 467.687484 L378.273733 446.498260 L388.572626 474.725229 L392.158241 467.020057 L406.490951 486.578707 L408.731960 481.762975 Z" fill="#888" fill-opacity="0.18" stroke="#000" stroke-width="1"/>
  <path d="M434.366087 371.845215 L409.406788 383.674158 L409.153078 378.368591 L388.488975 391.055680 L388.083038 382.566773 L367.875614 404.803881 L366.759287 381.459388 L349.781474 382.271262 L349.172569 369.537902 L366.150382 368.726029 L365.034056 345.381536 L387.271164 365.588960 L386.865228 357.100054 L408.645657 367.757458 L408.391947 362.451892 Z" fill="#888" fill-opacity="0.18" stroke="#000" stroke-width="1"/>
  <path d="M383.265693 303.526068 L357.003038 312.079631 L357.427158 306.784961 L335.315415 316.736754 L335.994007 308.265282 L313.118847 327.747481 L314.984976 304.450934 L298.042033 303.093750 L299.059921 290.386542 L316.002864 291.743727 L317.868993 268.447180 L337.351191 291.322339 L338.029783 282.850867 L358.275398 296.195621 L358.699518 290.900952 Z" fill="#888" fill-opacity="0.18" stroke="#000" stroke-width="1"/>
  <path d="M755.978437 896.544515 L779.749252 882.478996 L780.487893 887.739016 L799.902964 873.212406 L801.084790 881.628439 L819.170307 857.633792 L822.420328 880.777882 L839.252394 878.414230 L841.025133 891.038279 L824.193067 893.401931 L827.443089 916.546021 L803.448442 898.460504 L804.630268 906.876537 L781.965176 898.259057 L782.703817 903.519078 Z" fill="#888" fill-opacity="0.18" stroke="#000" stroke-width="1"/>
  <path d="M866.081696 619.095470 L843.853523 635.490555 L842.587248 630.332071 L824.739117 646.745833 L822.713078 638.492259 L807.144240 664.191292 L801.572633 641.493963 L785.065485 645.546041 L782.026426 633.165680 L798.533574 629.113602 L792.961967 606.416273 L818.661000 621.985111 L816.634961 613.731537 L840.054699 620.015103 L838.788425 614.856620 Z" fill="#888" fill-opacity="0.18" stroke="#000" stroke-width="1"/>
  <path d="M357.284297 229.976036 L355.712555 202.400320 L360.723906 204.160936 L356.741400 180.242178 L364.759561 183.059164 L351.756625 155.971295 L373.806568 163.718008 L379.440541 147.681686 L391.467782 151.907166 L385.833809 167.943488 L407.883752 175.690201 L380.795883 188.693137 L388.814044 191.510123 L370.746607 207.682170 L375.757957 209.442786 Z" fill="#888" fill-opacity="0.18" stroke="#000" stroke-width="1"/>
  <path d="M306.388173 1044.748603 L326.876206 1026.224807 L328.649067 1031.231840 L344.776901 1013.124926 L347.613479 1021.136177 L360.550164 994.016606 L368.350751 1016.047547 L384.373254 1010.374393 L388.628120 1022.391270 L372.605617 1028.064424 L380.406204 1050.095365 L353.286633 1037.158680 L356.123210 1045.169931 L332.194788 1041.245904 L333.967649 1046.252936 Z" fill="#888" fill-opacity="0.18" stroke="#000" stroke-width="1"/>
  <path d="M617.171835 623.217712 L604.930365 598.458130 L610.230992 598.116418 L597.202766 577.665679 L605.683768 577.118940 L583.114416 557.283283 L606.437171 555.779751 L605.343693 538.817747 L618.065196 537.997638 L619.158674 554.959642 L642.481430 553.456110 L622.645772 576.025462 L631.126774 575.478723 L620.832244 597.432994 L626.132870 597.091283 Z" fill="#888" fill-opacity="0.18" stroke="#000" stroke-width="1"/>
  <path d="M894.481151 554.098891 L908.682005 577.789105 L903.426283 578.557732 L918.063380 597.889643 L909.654224 599.119446 L933.751621 617.067828 L910.626443 620.449786 L913.086049 637.268098 L900.472315 639.112803 L898.012709 622.294491 L874.887530 625.676449 L892.835912 601.579052 L884.426756 602.808855 L892.914838 580.094986 L887.659116 580.863613 Z" fill="#888" fill-opacity="0.18" stroke="#000" stroke-width="1"/>
  <path d="M186.824935 42.249804 L208.009857 59.972376 L203.296906 62.422172 L223.464581 75.884425 L215.923860 79.804098 L244.574847 88.856718 L223.837863 99.635820 L231.677210 114.717263 L220.366128 120.596773 L212.526781 105.515330 L191.789797 116.294432 L200.842417 87.643445 L193.301696 91.563118 L193.871004 67.321764 L189.158053 69.771560 Z" fill="#888" fill-opacity="0.18" stroke="#000" stroke-width="1"/>
  <path d="M992.790758 348.907392 L996.275567 376.307148 L991.153953 374.899144 L996.789489 398.483209 L988.594906 396.230403 L1003.449347 422.348874 L980.914245 416.153657 L976.408633 432.542822 L964.116759 429.163613 L968.622371 412.774448 L946.087270 406.579231 L972.205741 391.724790 L964.011159 389.471984 L980.910725 372.083136 L975.789111 370.675132 Z" fill="#888" fill-opacity="0.18" stroke="#000" stroke-width="1"/>
  <path d="M216.448311 222.301753 L224.346185 248.768980 L219.063698 248.213334 L228.462585 270.565701 L220.010607 269.676667 L238.917970 293.029196 L215.675030 290.584355 L213.896963 307.488312 L201.218996 306.154762 L202.997062 289.250805 L179.754121 286.805964 L203.106650 267.898601 L194.654672 267.009568 L208.498725 247.102043 L203.216239 246.546397 Z" fill="#888" fill-opacity="0.18" stroke="#000" stroke-width="1"/>
  <path d="M70.436918 905.926262 L81.344137 931.301901 L76.032839 931.361197 L87.954881 952.475938 L79.456804 952.570812 L100.939183 973.578820 L77.569470 973.839724 L77.759219 990.835879 L65.012103 990.978190 L64.822355 973.982036 L41.452642 974.242940 L62.460649 952.760561 L53.962572 952.855435 L65.410242 931.479790 L60.098944 931.539086 Z" fill="#888" fill-opacity="0.18" stroke="#000" stroke-width="1"/>
  <path d="M1027.850543 197.737524 L1004.074157 211.793625 L1003.337600 206.533312 L983.916776 221.052230 L982.738284 212.635730 L964.643263 236.623210 L961.402410 213.477834 L944.569410 215.834818 L942.801672 203.210068 L959.634672 200.853084 L956.393820 177.707708 L980.381300 195.802729 L979.202808 187.386229 L1001.864485 196.012687 L1001.127927 190.752375 Z" fill="#888" fill-opacity="0.18" stroke="#000" stroke-width="1"/>
  <path d="M905.446259 375.452028 L878.048105 378.949406 L879.453759 373.827147 L855.872282 379.473500 L858.121329 371.277885 L832.009674 386.144306 L838.194553 363.606365 L821.803322 359.108271 L825.176893 346.814848 L841.568123 351.312942 L847.753002 328.775000 L862.619422 354.886655 L864.868469 346.691040 L882.265068 363.582628 L883.670722 358.460368 Z" fill="#888" fill-opacity="0.18" stroke="#000" stroke-width="1"/>
  <path d="M753.010759 255.603849 L734.272224 275.895665 L732.056112 271.068424 L717.622592 290.552799 L714.076815 282.829213 L703.632294 311.002622 L693.881405 289.762761 L678.434234 296.854317 L673.115567 285.268938 L688.562739 278.177382 L678.811850 256.937521 L706.985259 267.382041 L703.439481 259.658455 L727.623890 261.413942 L725.407779 256.586700 Z" fill="#888" fill-opacity="0.18" stroke="#000" stroke-width="1"/>
  <path d="M104.760484 181.499572 L81.222956 167.047054 L85.529433 163.937768 L63.618039 153.552289 L70.508402 148.577431 L40.845349 143.788668 L59.793848 130.107809 L49.844132 116.327082 L60.179677 108.864795 L70.129393 122.645522 L89.077892 108.964662 L84.289129 138.627716 L91.179492 133.652858 L94.142387 157.719196 L98.448864 154.609909 Z" fill="#888" fill-opacity="0.18" stroke="#000" stroke-width="1"/>
  <path d="M373.376059 738.061815 L347.979204 727.204089 L351.785076 723.498858 L328.591231 716.426876 L334.680627 710.498506 L304.636211 710.095941 L321.382051 693.792923 L309.525310 681.614131 L318.659405 672.721576 L330.516145 684.900368 L347.261984 668.597350 L346.859420 698.641766 L352.948816 692.713396 L359.396821 716.088395 L363.202694 712.383164 Z" fill="#888" fill-opacity="0.18" stroke="#000" stroke-width="1"/>
  <path d="M67.227881 62.571188 L94.302077 57.105073 L93.269864 62.315442 L116.382207 54.981482 L114.730666 63.318072 L139.700993 46.605449 L135.159256 69.531072 L151.832436 72.834153 L149.355124 85.339038 L132.681945 82.035957 L128.140207 104.961579 L111.427585 79.991252 L109.776044 88.327842 L91.205438 72.736179 L90.173225 77.946548 Z" fill="#888" fill-opacity="0.18" stroke="#000" stroke-width="1"/>
  <path d="M905.293493 94.309667 L925.638203 75.628574 L927.449587 80.621799 L943.437441 62.391168 L946.335656 70.380328 L959.063018 43.161892 L967.033109 65.132081 L983.011428 59.335652 L987.358750 71.319391 L971.380430 77.115820 L979.350520 99.086009 L952.132085 86.358647 L955.030300 94.347806 L931.072356 90.608248 L932.883740 95.601473 Z" fill="#888" fill-opacity="0.18" stroke="#000" stroke-width="1"/>
  <path d="M229.037915 817.657120 L216.439113 842.236801 L213.007721 838.182303 L204.338795 860.827769 L198.848567 854.340573 L196.356148 884.284134 L181.258020 866.444345 L168.283628 877.424802 L160.048286 867.694008 L173.022677 856.713551 L157.924549 838.873763 L187.868110 841.366181 L182.377881 834.878985 L206.144935 830.073308 L202.713542 826.018811 Z" fill="#888" fill-opacity="0.18" stroke="#000" stroke-width="1"/>
  <path d="M797.133059 814.113047 L778.318290 834.334198 L776.120361 829.498651 L761.613616 848.928569 L758.096930 841.191694 L747.546456 869.325596 L737.875570 848.049189 L722.401820 855.082561 L717.126791 843.477247 L732.600542 836.443876 L722.929656 815.167469 L751.063559 825.717943 L747.546873 817.981068 L771.724504 819.827557 L769.526576 814.992010 Z" fill="#888" fill-opacity="0.18" stroke="#000" stroke-width="1"/>
  <path d="M783.390402 867.567140 L796.328268 843.164228 L799.703203 847.265840 L808.684792 824.742554 L814.084689 831.305132 L816.991395 801.398945 L831.841109 819.446036 L844.966267 808.646244 L853.066111 818.490112 L839.940954 829.289904 L854.790668 847.336996 L824.884481 844.430290 L830.284377 850.992868 L806.453073 855.469063 L809.828008 859.570675 Z" fill="#888" fill-opacity="0.18" stroke="#000" stroke-width="1"/>
  <path d="M206.911925 150.846927 L180.352665 143.264304 L183.663135 139.110487 L159.764834 135.007004 L165.061586 128.360897 L135.204438 131.734284 L149.770507 113.457490 L136.478293 102.863986 L144.423422 92.894826 L157.715635 103.488330 L172.281703 85.211536 L175.655090 115.068683 L180.951842 108.422577 L190.284075 130.802854 L193.594545 126.649037 Z" fill="#888" fill-opacity="0.18" stroke="#000" stroke-width="1"/>
  <path d="M620.136035 540.887092 L645.481439 529.909797 L645.555411 535.220912 L666.637129 523.240572 L666.755484 531.738354 L687.704052 510.198009 L688.029530 533.566911 L705.025095 533.330200 L705.202629 546.076874 L688.207063 546.313585 L688.532541 569.682488 L666.992195 548.733920 L667.110551 557.231702 L645.703355 545.843140 L645.777328 551.154254 Z" fill="#888" fill-opacity="0.18" stroke="#000" stroke-width="1"/>
  <path d="M148.816315 712.901045 L171.999402 727.915537 L167.619382 730.920339 L189.274631 741.829855 L182.266600 746.637537 L211.805885 752.138411 L192.533797 765.359537 L202.149162 779.375601 L191.637114 786.587124 L182.021750 772.571061 L162.749662 785.792187 L168.250536 756.252902 L161.242504 761.060584 L158.859342 736.929941 L154.479322 739.934743 Z" fill="#888" fill-opacity="0.18" stroke="#000" stroke-width="1"/>
  <path d="M838.445773 503.122364 L859.223975 521.320078 L854.456762 523.662532 L874.314444 537.577985 L866.686904 541.325911 L895.125569 551.024948 L874.149833 561.331743 L881.645684 576.586824 L870.204373 582.208712 L862.708522 566.953631 L841.732786 577.260427 L851.431823 548.821762 L843.804283 552.569687 L844.922337 528.347439 L840.155124 530.689892 Z" fill="#888" fill-opacity="0.18" stroke="#000" stroke-width="1"/>
</svg>
