<?xml version="1.0" encoding="UTF-8"?>
<svg xmlns="http://www.w3.org/2000/svg" width="1100" height="1100" viewBox="0 0 1100 1100">
  <rect x="0" y="0" width="1100" height="1100" fill="white"/>
  <text x="10.0" y="18.0" font-family="monospace" font-size="12">prefix=N196_job5048600_task196 run_id=196 L=12.4798270359 feas=0.000e+00 N=196</text>
  <rect x="40.000000" y="40.000000" width="1020.000000" height="1020.000000" fill="none" stroke="#000" stroke-width="2"/>
  <path d="M342.147753 338.998873 L361.604580 320.915238 L363.375578 325.706659 L378.645068 308.081538 L381.478665 315.747813 L393.560358 289.498133 L401.352751 310.580388 L416.685300 304.913193 L420.935696 316.412605 L405.603147 322.079800 L413.395540 343.162054 L387.145860 331.080362 L389.979457 338.746636 L366.917575 335.289502 L368.688573 340.080924 Z" fill="#888" fill-opacity="0.18" stroke="#000" stroke-width="1"/>
  <path d="M330.188750 408.457934 L304.277207 402.611748 L307.231526 398.444476 L284.062936 395.795199 L288.789847 389.127564 L260.303483 393.979376 L273.302486 375.643379 L259.967216 366.189559 L267.057581 356.188107 L280.392851 365.641927 L293.391854 347.305930 L298.243667 375.792293 L302.970577 369.124658 L313.140163 390.109932 L316.094482 385.942660 Z" fill="#888" fill-opacity="0.18" stroke="#000" stroke-width="1"/>
  <path d="M78.263211 450.023942 L94.200436 471.274608 L89.249340 472.531907 L105.170946 489.570236 L97.249191 491.581913 L122.082771 506.357106 L100.297946 511.889219 L104.321301 527.732727 L92.438670 530.750244 L88.415315 514.906735 L66.630490 520.438848 L81.405682 495.605268 L73.483928 497.616946 L79.347147 475.046504 L74.396050 476.303802 Z" fill="#888" fill-opacity="0.18" stroke="#000" stroke-width="1"/>
  <path d="M575.643749 906.427292 L549.091833 905.664587 L551.191124 901.007642 L527.944906 902.855758 L531.303770 895.404647 L504.278829 905.635264 L513.515708 885.144707 L498.613484 878.426977 L503.651782 867.250309 L518.554005 873.968039 L527.790884 853.477482 L538.021500 880.502424 L541.380365 873.051312 L555.389705 891.693753 L557.488996 887.036808 Z" fill="#888" fill-opacity="0.18" stroke="#000" stroke-width="1"/>
  <path d="M916.101205 792.617405 L942.336302 788.457396 L941.134299 793.422206 L963.637948 787.307633 L961.714743 795.251330 L986.381997 780.200098 L981.093185 802.045265 L996.980579 805.891673 L994.095773 817.807219 L978.208379 813.960811 L972.919568 835.805978 L957.868335 811.138725 L955.945131 819.082422 L938.730294 803.351828 L937.528291 808.316638 Z" fill="#888" fill-opacity="0.18" stroke="#000" stroke-width="1"/>
  <path d="M593.941285 925.152681 L574.874576 943.647183 L573.001788 938.894624 L558.111685 956.841407 L555.115224 949.237312 L543.596139 975.738702 L535.355871 954.827441 L520.147682 960.820363 L515.652990 949.414221 L530.861180 943.421299 L522.620912 922.510038 L549.122302 934.029122 L546.125841 926.425027 L569.256212 929.389505 L567.383424 924.636946 Z" fill="#888" fill-opacity="0.18" stroke="#000" stroke-width="1"/>
  <path d="M41.247335 637.422527 L65.555531 626.712832 L65.658717 631.820033 L85.860515 620.171447 L86.025612 628.342969 L106.041675 607.501420 L106.495693 629.973107 L122.838738 629.642912 L123.086384 641.900196 L106.743338 642.230391 L107.197356 664.702078 L86.355806 644.686014 L86.520904 652.857537 L65.865089 642.034436 L65.968274 647.141638 Z" fill="#888" fill-opacity="0.18" stroke="#000" stroke-width="1"/>
  <path d="M295.810968 784.259113 L275.307273 767.371708 L279.821583 764.981067 L260.327538 752.183238 L267.550434 748.358212 L239.930632 739.863536 L259.793595 729.344717 L252.143545 714.898926 L262.977889 709.161388 L270.627939 723.607180 L290.490902 713.088361 L281.996225 740.708162 L289.219121 736.883137 L288.850202 760.199786 L293.364512 757.809145 Z" fill="#888" fill-opacity="0.18" stroke="#000" stroke-width="1"/>
  <path d="M793.615369 907.462934 L767.059673 908.080141 L768.914288 903.320461 L745.795413 906.373297 L748.762797 898.757808 L722.305614 910.378069 L730.465921 889.435475 L715.234944 883.500706 L719.686021 872.077473 L734.916998 878.012242 L743.077305 857.069648 L754.697566 883.526831 L757.664950 875.911342 L772.623518 893.801100 L774.478134 889.041420 Z" fill="#888" fill-opacity="0.18" stroke="#000" stroke-width="1"/>
  <path d="M685.474782 183.505963 L708.355317 196.999187 L704.267723 200.062801 L725.514885 209.673227 L718.974735 214.575009 L747.579566 218.670930 L729.594152 232.150831 L739.397717 245.231132 L729.587491 252.583805 L719.783926 239.503504 L701.798512 252.983405 L705.894433 224.378573 L699.354283 229.280355 L696.092535 206.190028 L692.004940 209.253642 Z" fill="#888" fill-opacity="0.18" stroke="#000" stroke-width="1"/>
  <path d="M329.795944 799.481270 L338.346661 774.332290 L342.178527 777.710301 L347.260463 754.951212 L353.391449 760.356028 L351.576025 731.516521 L368.436238 746.379767 L379.245871 734.117794 L388.442351 742.225019 L377.632717 754.486992 L394.492930 769.350238 L365.653422 771.165662 L371.784409 776.570479 L349.842260 784.466322 L353.674127 787.844332 Z" fill="#888" fill-opacity="0.18" stroke="#000" stroke-width="1"/>
  <path d="M499.993891 477.694426 L473.438100 478.307554 L475.293447 473.548158 L452.174103 476.597442 L455.142657 468.982410 L428.683690 480.598605 L436.847214 459.657265 L421.617149 453.720157 L426.069980 442.297608 L441.300046 448.234716 L449.463570 427.293376 L461.079766 453.752344 L464.048320 446.137311 L479.004140 464.029367 L480.859486 459.269972 Z" fill="#888" fill-opacity="0.18" stroke="#000" stroke-width="1"/>
  <path d="M123.224245 267.306504 L105.873278 247.193576 L110.726976 245.601165 L93.679197 229.689677 L101.445114 227.141820 L75.660679 214.096672 L97.016950 207.090064 L91.921235 191.558231 L103.570110 187.736445 L108.665825 203.268278 L130.022095 196.261671 L116.976947 222.046106 L124.742864 219.498248 L120.434371 242.416344 L125.288069 240.823933 Z" fill="#888" fill-opacity="0.18" stroke="#000" stroke-width="1"/>
  <path d="M137.696369 422.166408 L145.490014 447.560208 L140.405786 447.065455 L149.612079 468.490823 L141.477314 467.699219 L159.835217 490.015141 L137.464613 487.838231 L135.881406 504.107761 L123.679259 502.920355 L125.262466 486.650825 L102.891862 484.473915 L125.207784 466.116012 L117.073019 465.324408 L130.237330 446.075951 L125.153102 445.581198 Z" fill="#888" fill-opacity="0.18" stroke="#000" stroke-width="1"/>
  <path d="M588.211817 819.573115 L613.213089 828.546541 L609.770966 832.320921 L632.441158 837.785773 L626.933763 843.824782 L655.799774 842.495748 L640.654437 859.103023 L652.732455 870.117814 L644.471362 879.176328 L632.393343 868.161537 L617.248005 884.768812 L615.918971 855.902800 L610.411576 861.941809 L602.886722 839.869683 L599.444600 843.644064 Z" fill="#888" fill-opacity="0.18" stroke="#000" stroke-width="1"/>
  <path d="M861.513338 456.376842 L845.132203 477.287231 L842.631922 472.832711 L830.314459 492.633779 L826.314009 485.506546 L818.497052 513.325751 L807.495816 493.725862 L793.241351 501.726761 L787.240677 491.035912 L801.495142 483.035013 L790.493906 463.435124 L818.313110 471.252082 L814.312661 464.124849 L837.631360 463.923670 L835.131079 459.469150 Z" fill="#888" fill-opacity="0.18" stroke="#000" stroke-width="1"/>
  <path d="M979.208536 671.591228 L1004.850247 678.525824 L1001.722677 682.564693 L1024.758807 686.189460 L1019.754695 692.651650 L1048.420450 689.006452 L1034.659144 706.777476 L1047.583525 716.785699 L1040.077358 726.478985 L1027.152977 716.470762 L1013.391670 734.241786 L1009.746473 705.576031 L1004.742361 712.038222 L995.467538 690.642431 L992.339968 694.681300 Z" fill="#888" fill-opacity="0.18" stroke="#000" stroke-width="1"/>
  <path d="M1044.588274 608.345544 L1029.192951 586.699066 L1034.174229 585.567239 L1018.688112 568.132149 L1026.658155 566.321226 L1002.205739 550.923424 L1024.123359 545.943386 L1020.501514 530.003299 L1032.456579 527.286914 L1036.078425 543.227002 L1057.996045 538.246964 L1042.598243 562.699380 L1050.568286 560.888458 L1044.136783 583.303586 L1049.118061 582.171759 Z" fill="#888" fill-opacity="0.18" stroke="#000" stroke-width="1"/>
  <path d="M631.854315 389.427339 L655.869964 378.076809 L656.108546 383.179478 L675.994343 370.999279 L676.376074 379.163550 L695.832425 357.798546 L696.882184 380.250291 L713.210726 379.486830 L713.783322 391.733236 L697.454780 392.496697 L698.504539 414.948442 L677.139535 395.492092 L677.521266 403.656363 L656.585709 393.384817 L656.824291 398.487486 Z" fill="#888" fill-opacity="0.18" stroke="#000" stroke-width="1"/>
  <path d="M557.407942 846.831819 L532.308273 838.137421 L535.708141 834.324935 L512.978487 829.112930 L518.418276 823.012952 L489.568858 824.663422 L504.528280 807.888483 L492.328325 797.008904 L500.488010 787.858938 L512.687965 798.738517 L527.647387 781.963579 L529.297856 810.812997 L534.737646 804.713020 L542.507879 826.699963 L545.907747 822.887477 Z" fill="#888" fill-opacity="0.18" stroke="#000" stroke-width="1"/>
  <path d="M380.888818 966.215591 L389.726804 941.166120 L393.519759 944.587765 L398.861838 921.888329 L404.930565 927.362961 L403.445326 898.504564 L420.134326 913.559801 L431.083589 901.422347 L440.186679 909.634294 L429.237416 921.771748 L445.926415 936.826985 L417.068019 938.312224 L423.136746 943.786855 L401.105667 951.431054 L404.898622 954.852699 Z" fill="#888" fill-opacity="0.18" stroke="#000" stroke-width="1"/>
  <path d="M453.336252 815.010817 L429.611774 803.063637 L433.487345 799.735859 L411.649975 791.554691 L417.850888 786.230245 L389.037492 784.039079 L406.090001 769.396853 L395.441109 756.995028 L404.742478 749.008359 L415.391370 761.410184 L432.443879 746.767958 L430.252712 775.581353 L436.453625 770.256907 L441.238485 793.080301 L445.114055 789.752523 Z" fill="#888" fill-opacity="0.18" stroke="#000" stroke-width="1"/>
  <path d="M615.891506 1048.960837 L596.599801 1030.701152 L601.268066 1028.627158 L582.701904 1014.516884 L590.171128 1011.198493 L563.202088 1000.821410 L583.742456 991.695834 L577.105673 976.757384 L588.309510 971.779797 L594.946293 986.718246 L615.486660 977.592670 L605.109578 1004.561710 L612.578802 1001.243318 L610.604597 1024.479168 L615.272862 1022.405174 Z" fill="#888" fill-opacity="0.18" stroke="#000" stroke-width="1"/>
  <path d="M628.266047 440.193204 L651.960821 452.199187 L648.077010 455.517343 L669.894021 463.752646 L663.679923 469.061696 L692.487795 471.324317 L675.399024 485.924206 L686.017124 498.352403 L676.695976 506.315978 L666.077876 493.887781 L648.989104 508.487669 L651.251725 479.679797 L645.037626 484.988847 L640.309386 462.153656 L636.425575 465.471813 Z" fill="#888" fill-opacity="0.18" stroke="#000" stroke-width="1"/>
  <path d="M604.912947 140.967142 L630.901624 135.473996 L629.954499 140.493668 L652.116863 133.238888 L650.601463 141.270363 L674.468652 124.980173 L670.301303 147.066731 L686.364254 150.097530 L684.091155 162.144744 L668.028203 159.113945 L663.860855 181.200503 L647.570664 157.333315 L646.055265 165.364791 L628.060250 150.533013 L627.113125 155.552685 Z" fill="#888" fill-opacity="0.18" stroke="#000" stroke-width="1"/>
  <path d="M613.172141 737.795111 L607.369843 763.716517 L603.197574 760.769260 L600.587536 783.942302 L593.911905 779.226690 L598.811951 807.704797 L580.453968 794.736864 L571.022744 808.088124 L561.009298 801.014706 L570.440522 787.663445 L552.082539 774.695512 L580.560645 769.795466 L573.885014 765.079854 L594.853036 754.874745 L590.680767 751.927487 Z" fill="#888" fill-opacity="0.18" stroke="#000" stroke-width="1"/>
  <path d="M883.950420 380.547373 L885.571768 354.034033 L890.158356 356.282892 L889.063299 332.989051 L896.401840 336.587226 L887.050925 309.245438 L907.231911 319.140418 L914.428261 304.463337 L925.436071 309.860599 L918.239722 324.537680 L938.420709 334.432660 L911.078921 343.783575 L918.417461 347.381750 L899.331531 360.780611 L903.918119 363.029470 Z" fill="#888" fill-opacity="0.18" stroke="#000" stroke-width="1"/>
  <path d="M216.917657 886.322855 L211.212247 912.265758 L207.028995 909.334110 L204.505554 932.516742 L197.812352 927.826105 L202.818764 956.285704 L184.412458 943.386451 L175.031182 956.772855 L164.991379 949.736899 L174.372654 936.350495 L155.966348 923.451241 L184.425948 918.444829 L177.732745 913.754192 L198.662493 903.470813 L194.479241 900.539164 Z" fill="#888" fill-opacity="0.18" stroke="#000" stroke-width="1"/>
  <path d="M1010.026139 384.022142 L1005.877855 357.785189 L1010.842128 358.989411 L1004.737613 336.483032 L1012.680450 338.409786 L997.640242 313.735809 L1019.483044 319.034382 L1023.336552 303.148708 L1035.250807 306.038839 L1031.397299 321.924513 L1053.240100 327.223087 L1028.566123 342.263294 L1036.508960 344.190048 L1020.770674 361.397853 L1025.734947 362.602074 Z" fill="#888" fill-opacity="0.18" stroke="#000" stroke-width="1"/>
  <path d="M520.171654 55.568215 L534.422845 77.984493 L529.389542 78.856282 L543.949963 97.071559 L535.896678 98.466421 L559.517044 115.112480 L537.370510 118.948349 L540.160233 135.054919 L528.080306 137.147211 L525.290583 121.040641 L503.144049 124.876511 L519.790108 101.256144 L511.736823 102.651006 L519.322936 80.599859 L514.289632 81.471647 Z" fill="#888" fill-opacity="0.18" stroke="#000" stroke-width="1"/>
  <path d="M207.421203 417.152257 L207.768567 443.712854 L203.027976 441.809975 L205.845761 464.958675 L198.260815 461.914068 L209.611665 488.487950 L188.753063 480.115283 L182.663850 495.285175 L171.286431 490.718266 L177.375643 475.548373 L156.517041 467.175706 L183.090922 455.824856 L175.505976 452.780250 L193.546793 438.004217 L188.806201 436.101338 Z" fill="#888" fill-opacity="0.18" stroke="#000" stroke-width="1"/>
  <path d="M872.979708 393.051002 L856.623755 372.120909 L861.548915 370.765570 L845.292202 354.046674 L853.172459 351.878130 L828.050457 337.598846 L849.721164 331.635351 L845.384077 315.874836 L857.204463 312.622020 L861.541550 328.382535 L883.212258 322.419040 L868.932974 347.541043 L876.813231 345.372499 L871.399237 368.054890 L876.324398 366.699550 Z" fill="#888" fill-opacity="0.18" stroke="#000" stroke-width="1"/>
  <path d="M599.572914 708.954329 L573.193984 705.833751 L575.699037 701.381913 L552.380567 701.155744 L556.388652 694.032803 L528.561086 701.819944 L539.583320 682.231855 L525.337438 674.215685 L531.349565 663.531273 L545.595448 671.547443 L556.617682 651.959355 L564.404822 679.786921 L568.412907 672.663979 L580.709143 692.478236 L583.214197 688.026398 Z" fill="#888" fill-opacity="0.18" stroke="#000" stroke-width="1"/>
  <path d="M961.517216 339.608406 L957.740137 365.901364 L953.352118 363.286132 L952.544829 386.591721 L945.523998 382.407348 L952.615144 410.420356 L933.307859 398.913332 L924.939114 412.954994 L914.407868 406.678435 L922.776613 392.636773 L903.469328 381.129749 L931.482336 374.038603 L924.461506 369.854231 L944.576079 358.055666 L940.188060 355.440433 Z" fill="#888" fill-opacity="0.18" stroke="#000" stroke-width="1"/>
  <path d="M341.324105 935.653546 L330.359405 911.459305 L335.465239 911.302423 L323.604877 891.224225 L331.774212 890.973215 L310.723349 871.177404 L333.189020 870.487125 L332.686999 854.148456 L344.941001 853.771940 L345.443022 870.110609 L367.908693 869.420331 L348.112882 890.471194 L356.282217 890.220183 L345.676908 910.988660 L350.782742 910.831778 Z" fill="#888" fill-opacity="0.18" stroke="#000" stroke-width="1"/>
  <path d="M668.551784 206.135245 L649.341132 224.480184 L647.505540 219.713135 L632.475645 237.543011 L629.538698 229.915732 L617.812869 256.326296 L609.736265 235.351280 L594.481707 241.225173 L590.076287 229.784255 L605.330844 223.910361 L597.254240 202.935345 L623.664805 214.661174 L620.727858 207.033896 L643.834356 210.179037 L641.998765 205.411987 Z" fill="#888" fill-opacity="0.18" stroke="#000" stroke-width="1"/>
  <path d="M614.405041 42.860693 L632.937118 61.890882 L628.188262 63.773041 L646.164383 78.627714 L638.566213 81.639169 L665.090274 93.105954 L644.195309 101.387456 L650.218219 116.583794 L638.820966 121.100977 L632.798055 105.904639 L611.903090 114.186140 L623.369875 87.662079 L615.771706 90.673534 L618.690550 67.537360 L613.941695 69.419520 Z" fill="#888" fill-opacity="0.18" stroke="#000" stroke-width="1"/>
  <path d="M198.500260 266.692319 L195.481044 240.301595 L200.389102 241.717617 L195.255457 218.970136 L203.108351 221.235769 L189.140201 195.939450 L210.735659 202.169943 L215.266926 186.464155 L227.046267 189.862606 L222.515000 205.568393 L244.110458 211.798886 L218.814139 225.767037 L226.667033 228.032670 L210.205220 244.549659 L215.113278 245.965680 Z" fill="#888" fill-opacity="0.18" stroke="#000" stroke-width="1"/>
  <path d="M764.647675 308.975820 L765.509523 282.426937 L770.158596 284.543602 L768.397297 261.290645 L775.835814 264.677310 L765.706182 237.614355 L786.162105 246.927682 L792.935435 232.050648 L804.093211 237.130645 L797.319881 252.007680 L817.775804 261.321007 L790.712849 271.450639 L798.151366 274.837304 L779.456743 288.776933 L784.105816 290.893599 Z" fill="#888" fill-opacity="0.18" stroke="#000" stroke-width="1"/>
  <path d="M408.624806 569.664137 L416.428369 595.054890 L411.343948 594.562124 L420.558608 615.983894 L412.423535 615.195468 L430.790153 637.504217 L408.418701 635.336045 L406.841848 651.606192 L394.639238 650.423553 L396.216091 634.153406 L373.844638 631.985234 L396.153388 613.618615 L388.018314 612.830189 L401.175106 593.576591 L396.090685 593.083825 Z" fill="#888" fill-opacity="0.18" stroke="#000" stroke-width="1"/>
  <path d="M963.702692 779.578480 L962.255129 753.055085 L967.070492 754.759910 L963.295996 731.747840 L971.000578 734.475561 L958.558427 708.394805 L979.746026 715.896038 L985.201469 700.486875 L996.758341 704.578457 L991.302898 719.987620 L1012.490497 727.488853 L986.409740 739.931004 L994.114322 742.658725 L976.701219 758.169562 L981.516583 759.874388 Z" fill="#888" fill-opacity="0.18" stroke="#000" stroke-width="1"/>
  <path d="M1029.957862 135.498282 L1019.002658 111.299739 L1024.108553 111.144862 L1012.256072 91.062011 L1020.425505 90.814206 L999.382412 71.010136 L1021.848352 70.328673 L1021.352743 53.989808 L1033.606892 53.618101 L1034.102501 69.956967 L1056.568441 69.275504 L1036.764370 90.318597 L1044.933803 90.070793 L1034.320344 110.835106 L1039.426240 110.680228 Z" fill="#888" fill-opacity="0.18" stroke="#000" stroke-width="1"/>
  <path d="M360.139414 173.037641 L371.622301 196.990287 L366.521026 197.257024 L378.810778 217.075303 L370.648738 217.502082 L392.120785 236.840235 L369.675175 238.013877 L370.528733 254.337957 L358.285673 254.978125 L357.432115 238.654045 L334.986505 239.827687 L354.324658 218.355640 L346.162618 218.782419 L356.318476 197.790498 L351.217201 198.057234 Z" fill="#888" fill-opacity="0.18" stroke="#000" stroke-width="1"/>
  <path d="M140.249373 547.009795 L132.740072 572.489127 L128.772535 569.271549 L124.630803 592.220367 L118.282744 587.072242 L121.282578 615.812701 L103.825417 601.655357 L93.529167 614.351474 L84.007079 606.629287 L94.303329 593.933170 L76.846169 579.775826 L105.586627 576.775992 L99.238569 571.627867 L120.837462 562.836393 L116.869925 559.618815 Z" fill="#888" fill-opacity="0.18" stroke="#000" stroke-width="1"/>
  <path d="M628.265501 1044.071145 L641.737918 1021.178353 L644.805247 1025.263160 L654.396352 1004.007269 L659.304078 1010.542960 L663.373992 981.934417 L676.870239 999.907568 L689.941622 990.092116 L697.303211 999.895653 L684.231828 1009.711105 L697.728074 1027.684257 L669.119531 1023.614343 L674.027257 1030.150035 L650.939905 1033.432774 L654.007233 1037.517581 Z" fill="#888" fill-opacity="0.18" stroke="#000" stroke-width="1"/>
  <path d="M63.439118 699.325582 L89.645643 694.989224 L88.477059 699.962006 L110.939075 693.696224 L109.069339 701.652676 L133.634808 686.435885 L128.493035 708.316127 L144.405939 712.055599 L141.601336 723.990276 L125.688432 720.250805 L120.546659 742.131048 L105.329868 717.565579 L103.460133 725.522031 L86.139889 709.907571 L84.971305 714.880354 Z" fill="#888" fill-opacity="0.18" stroke="#000" stroke-width="1"/>
  <path d="M587.062542 449.062813 L600.157537 472.173569 L595.086471 472.788749 L608.703535 491.719617 L600.589830 492.703905 L623.334813 510.527449 L601.022123 513.234240 L602.990698 529.461651 L590.820140 530.938083 L588.851565 514.710672 L566.538875 517.417463 L584.362419 494.672480 L576.248714 495.656768 L584.944340 474.019109 L579.873274 474.634289 Z" fill="#888" fill-opacity="0.18" stroke="#000" stroke-width="1"/>
  <path d="M570.944005 63.195826 L587.296382 84.128712 L582.370990 85.483211 L598.624846 102.204884 L590.744219 104.372081 L615.863781 118.655657 L594.192055 124.615450 L598.526450 140.376705 L586.705508 143.627501 L582.371114 127.866246 L560.699387 133.826039 L574.982963 108.706476 L567.102335 110.873673 L572.520205 88.192208 L567.594813 89.546706 Z" fill="#888" fill-opacity="0.18" stroke="#000" stroke-width="1"/>
  <path d="M759.794720 314.333412 L739.057725 330.933504 L737.644765 326.024563 L721.117515 342.476074 L718.856778 334.621769 L704.872857 359.909373 L698.655831 338.310034 L682.947221 342.831507 L679.556116 331.050050 L695.264727 326.528577 L689.047701 304.929238 L714.335305 318.913159 L712.074568 311.058854 L734.818844 316.206682 L733.405884 311.297741 Z" fill="#888" fill-opacity="0.18" stroke="#000" stroke-width="1"/>
  <path d="M726.576506 671.165671 L702.183630 660.650275 L705.854475 657.097945 L683.569294 650.229691 L689.442646 644.545962 L660.549944 644.071903 L676.701663 628.441649 L665.334206 616.694945 L674.144234 608.169352 L685.511691 619.916056 L701.663410 604.285803 L701.189351 633.178505 L707.062703 627.494776 L713.196165 649.993284 L716.867010 646.440954 Z" fill="#888" fill-opacity="0.18" stroke="#000" stroke-width="1"/>
  <path d="M144.812467 344.864457 L142.869145 371.356143 L138.310216 369.051731 L139.122210 392.357156 L131.827923 388.670096 L140.845990 416.123464 L120.786700 405.984049 L113.412580 420.572623 L102.471149 415.042033 L109.845270 400.453459 L89.785980 390.314043 L117.239348 381.295976 L109.945061 377.608915 L129.192357 364.442905 L124.633427 362.138493 Z" fill="#888" fill-opacity="0.18" stroke="#000" stroke-width="1"/>
  <path d="M1034.866880 599.664741 L1024.904958 624.288837 L1021.270645 620.699139 L1014.907344 643.133724 L1009.092444 637.390208 L1009.270905 666.286248 L993.279929 650.491580 L981.792898 662.121381 L973.070547 653.506107 L984.557579 641.876307 L968.566603 626.081638 L997.462643 625.903177 L991.647743 620.159661 L1014.002020 613.519745 L1010.367707 609.930047 Z" fill="#888" fill-opacity="0.18" stroke="#000" stroke-width="1"/>
  <path d="M104.901144 162.977864 L121.563757 142.291073 L124.003526 146.779022 L136.587826 127.146457 L140.491458 134.327174 L148.684172 106.616302 L159.419158 126.363275 L173.780593 118.556012 L179.636040 129.327088 L165.274606 137.134351 L176.009592 156.881323 L148.298720 148.688608 L152.202352 155.869326 L128.883066 155.754918 L131.322835 160.242866 Z" fill="#888" fill-opacity="0.18" stroke="#000" stroke-width="1"/>
  <path d="M840.964050 360.188426 L850.866766 384.836391 L845.758938 384.771195 L856.735376 405.345937 L848.562851 405.241624 L868.733379 425.933718 L846.258937 425.646857 L846.050310 441.991906 L833.791523 441.835436 L834.000150 425.490386 L811.525707 425.203525 L832.217802 405.032997 L824.045278 404.928684 L835.543282 384.640803 L830.435454 384.575607 Z" fill="#888" fill-opacity="0.18" stroke="#000" stroke-width="1"/>
  <path d="M802.070462 233.681086 L788.941910 210.589375 L794.012077 209.966830 L780.367529 191.055762 L788.479796 190.059689 L765.708946 172.269203 L788.017681 169.530003 L786.025536 153.305469 L798.193936 151.811360 L800.186082 168.035894 L822.494816 165.296695 L804.704330 188.067544 L812.816597 187.071471 L804.152411 208.721739 L809.222578 208.099194 Z" fill="#888" fill-opacity="0.18" stroke="#000" stroke-width="1"/>
  <path d="M188.761061 218.006428 L193.498860 244.143360 L188.508739 243.051185 L195.118303 265.414455 L187.134109 263.666974 L202.725891 287.996161 L180.769359 283.190588 L177.274397 299.158975 L165.298106 296.537754 L168.793068 280.569366 L146.836536 275.763794 L171.165722 260.172012 L163.181529 258.424531 L178.528497 240.866833 L173.538376 239.774658 Z" fill="#888" fill-opacity="0.18" stroke="#000" stroke-width="1"/>
  <path d="M1047.761423 255.573580 L1026.682430 271.737181 L1025.372249 266.799816 L1008.505185 282.902745 L1006.408895 275.002960 L991.900157 299.993148 L986.135359 278.268739 L970.335789 282.461319 L967.191354 270.611641 L982.990924 266.419061 L977.226127 244.694652 L1002.216315 259.203390 L1000.120025 251.303605 L1022.751886 256.925084 L1021.441705 251.987719 Z" fill="#888" fill-opacity="0.18" stroke="#000" stroke-width="1"/>
  <path d="M970.999465 102.376122 L948.932900 117.163031 L947.940147 112.152183 L930.080811 127.147059 L928.492407 119.129702 L912.420025 143.144105 L908.051914 121.096374 L892.017200 124.273182 L889.634594 112.247147 L905.669308 109.070338 L901.301196 87.022607 L925.315599 103.094989 L923.727194 95.077632 L945.954642 102.130487 L944.961890 97.119639 Z" fill="#888" fill-opacity="0.18" stroke="#000" stroke-width="1"/>
  <path d="M376.277302 118.947085 L351.062950 110.591105 L354.411227 106.733231 L331.613519 101.827447 L336.970762 95.654848 L308.146155 97.693239 L322.878574 80.718590 L310.533375 70.004104 L318.569240 60.745205 L330.914439 71.459691 L345.646857 54.485042 L347.685248 83.309649 L353.042491 77.137049 L361.107781 99.017481 L364.456058 95.159607 Z" fill="#888" fill-opacity="0.18" stroke="#000" stroke-width="1"/>
  <path d="M503.996329 904.769943 L505.331550 931.299232 L500.523450 929.574028 L504.200454 952.601877 L496.507494 949.841551 L508.839079 975.974767 L487.683438 968.383870 L482.162786 983.769790 L470.623346 979.629301 L476.143998 964.243380 L454.988358 956.652483 L481.121574 944.320898 L473.428614 941.560572 L490.907250 926.123620 L486.099149 924.398416 Z" fill="#888" fill-opacity="0.18" stroke="#000" stroke-width="1"/>
  <path d="M590.271887 336.576409 L595.676047 362.583735 L590.659646 361.619435 L597.838527 383.806500 L589.812285 382.263620 L606.020688 406.186426 L583.948523 401.943504 L580.862762 417.995988 L568.823399 415.681667 L571.909160 399.629183 L549.836995 395.386261 L573.759801 379.177858 L565.733560 377.634978 L580.626844 359.690834 L575.610443 358.726534 Z" fill="#888" fill-opacity="0.18" stroke="#000" stroke-width="1"/>
  <path d="M807.906417 701.302456 L781.377355 702.642173 L783.101745 697.833780 L760.074519 701.514686 L762.833542 693.821259 L736.702415 706.157271 L744.289728 685.000344 L728.902872 679.482299 L733.041407 667.942157 L748.428262 673.460203 L756.015575 652.303276 L768.351587 678.434403 L771.110610 670.740975 L786.550523 688.216996 L788.274912 683.408603 Z" fill="#888" fill-opacity="0.18" stroke="#000" stroke-width="1"/>
  <path d="M858.037814 386.871026 L882.424645 397.400435 L878.751759 400.950655 L901.032991 407.831711 L895.156374 413.512065 L924.048799 414.002723 L907.888103 429.623695 L919.248810 441.376928 L910.433885 449.897458 L899.073178 438.144225 L882.912482 453.765197 L883.403140 424.872771 L877.526524 430.553125 L871.405988 408.051097 L867.733103 411.601318 Z" fill="#888" fill-opacity="0.18" stroke="#000" stroke-width="1"/>
  <path d="M252.399009 79.927996 L227.806654 89.968017 L227.843363 84.859905 L207.330155 95.950916 L207.388889 87.777937 L186.809606 108.063549 L186.971125 85.587856 L170.625167 85.470387 L170.713268 73.210919 L187.059227 73.328387 L187.220746 50.852695 L207.506358 71.431978 L207.565092 63.258999 L227.916781 74.643681 L227.953490 69.535569 Z" fill="#888" fill-opacity="0.18" stroke="#000" stroke-width="1"/>
  <path d="M716.998922 934.915631 L690.440375 934.436524 L692.489814 929.757426 L669.264657 931.853689 L672.543758 924.367132 L645.629614 934.885771 L654.647141 914.297740 L639.674028 907.739538 L644.592679 896.509702 L659.565793 903.067905 L668.583321 882.479873 L679.101961 909.394018 L682.381062 901.907461 L696.588690 920.399229 L698.638128 915.720131 Z" fill="#888" fill-opacity="0.18" stroke="#000" stroke-width="1"/>
  <path d="M870.449424 293.812777 L850.117738 310.906885 L848.587104 306.033353 L832.460371 322.877660 L830.011356 315.080009 L816.639765 340.696674 L809.904974 319.253133 L794.309672 324.151162 L790.636150 312.454685 L806.231453 307.556656 L799.496662 286.113115 L825.113327 299.484706 L822.664312 291.687055 L845.525836 296.286289 L843.995202 291.412757 Z" fill="#888" fill-opacity="0.18" stroke="#000" stroke-width="1"/>
  <path d="M219.877452 641.440925 L239.158893 623.170402 L240.976039 627.944513 L256.074762 610.172885 L258.982196 617.811463 L270.810056 591.446435 L278.805498 612.452524 L294.082654 606.637657 L298.443804 618.095523 L283.166649 623.910390 L291.162091 644.916479 L264.797063 633.088618 L267.704496 640.727196 L244.610331 637.492735 L246.427477 642.266846 Z" fill="#888" fill-opacity="0.18" stroke="#000" stroke-width="1"/>
  <path d="M259.806090 402.740577 L285.920477 407.601106 L283.126124 411.877289 L306.378435 413.647098 L301.907470 420.488992 L330.189617 414.561671 L317.894463 433.376878 L331.578250 442.318809 L324.871802 452.581649 L311.188015 443.639719 L298.892861 462.454926 L292.965540 434.172779 L288.494575 441.014673 L277.537418 420.429656 L274.743064 424.705840 Z" fill="#888" fill-opacity="0.18" stroke="#000" stroke-width="1"/>
  <path d="M636.523879 591.737991 L657.600096 575.570769 L658.911125 580.507910 L675.775423 564.402084 L677.873070 572.301509 L692.377516 547.308829 L698.146044 569.032248 L713.944894 564.836955 L717.091365 576.686092 L701.292514 580.881386 L707.061043 602.604805 L682.068364 588.100359 L684.166010 595.999784 L661.533183 590.382191 L662.844213 595.319332 Z" fill="#888" fill-opacity="0.18" stroke="#000" stroke-width="1"/>
  <path d="M225.297350 403.303795 L240.786893 424.882952 L235.810597 426.036483 L251.372574 443.403897 L243.410501 445.249548 L267.929811 460.540605 L246.034109 465.616144 L249.725410 481.540290 L237.782300 484.308766 L234.090999 468.384619 L212.195297 473.460158 L227.486354 448.940849 L219.524281 450.786499 L225.858006 428.343546 L220.881710 429.497078 Z" fill="#888" fill-opacity="0.18" stroke="#000" stroke-width="1"/>
  <path d="M815.343871 624.415944 L836.784863 640.096182 L832.415516 642.742494 L852.613327 654.397992 L845.622373 658.632092 L873.685007 665.524228 L854.459883 677.168002 L862.928082 691.149910 L852.441651 697.501060 L843.973452 683.519151 L824.748328 695.162925 L831.640465 667.100291 L824.649511 671.334391 L823.676824 648.035119 L819.307477 650.681431 Z" fill="#888" fill-opacity="0.18" stroke="#000" stroke-width="1"/>
  <path d="M263.431300 1032.071624 L241.586717 1016.958711 L245.885206 1014.198793 L225.388859 1003.076654 L232.266442 998.660786 L204.032814 992.506499 L222.946167 980.362862 L214.114431 966.607696 L224.430805 959.983894 L233.262542 973.739060 L252.175895 961.595422 L246.021608 989.829050 L252.899191 985.413182 L254.482185 1008.678958 L258.780674 1005.919040 Z" fill="#888" fill-opacity="0.18" stroke="#000" stroke-width="1"/>
  <path d="M560.505355 564.362560 L567.686640 589.936279 L562.615766 589.319517 L571.304636 610.959889 L563.191239 609.973069 L581.007681 632.723615 L558.695838 630.009858 L556.722196 646.236653 L544.552100 644.756422 L546.525741 628.529627 L524.213897 625.815870 L546.964443 607.999427 L538.851046 607.012607 L552.474019 588.085991 L547.403145 587.469228 Z" fill="#888" fill-opacity="0.18" stroke="#000" stroke-width="1"/>
  <path d="M49.782159 468.273683 L54.719398 442.173690 L58.987352 444.980596 L60.825476 421.733586 L67.654203 426.224635 L61.810008 397.925194 L80.589008 410.275579 L89.571107 396.618125 L99.814197 403.354699 L90.832099 417.012153 L109.611098 429.362539 L81.311657 435.206733 L88.140384 439.697783 L67.523261 450.594408 L71.791216 453.401314 Z" fill="#888" fill-opacity="0.18" stroke="#000" stroke-width="1"/>
  <path d="M157.105629 559.190822 L166.671086 583.971621 L161.564624 583.836732 L172.259285 604.559338 L164.088945 604.343516 L183.975239 625.308923 L161.506803 624.715410 L161.075158 641.056091 L148.819648 640.732357 L149.251293 624.391676 L126.782857 623.798164 L147.748264 603.911870 L139.577924 603.696048 L151.351699 583.566953 L146.245236 583.432064 Z" fill="#888" fill-opacity="0.18" stroke="#000" stroke-width="1"/>
  <path d="M1050.116510 167.888879 L1041.296742 192.944769 L1037.501300 189.525884 L1032.175729 212.229199 L1026.103023 206.758982 L1027.609247 235.616290 L1010.909304 220.573194 L999.968870 232.718607 L990.859810 224.513281 L1001.800244 212.367868 L985.100301 197.324772 L1013.957610 195.818548 L1007.884903 190.348331 L1029.910417 182.688113 L1026.114976 179.269227 Z" fill="#888" fill-opacity="0.18" stroke="#000" stroke-width="1"/>
  <path d="M356.530800 514.813222 L334.354673 529.435307 L333.399283 524.417201 L315.428718 539.278594 L313.900094 531.249625 L297.649232 555.143609 L293.445515 533.063944 L277.387577 536.121192 L275.094640 524.077739 L291.152578 521.020490 L286.948861 498.940825 L310.842845 515.191687 L309.314221 507.162718 L331.488502 514.380989 L330.533112 509.362884 Z" fill="#888" fill-opacity="0.18" stroke="#000" stroke-width="1"/>
  <path d="M875.691794 1011.060444 L850.980359 1001.317193 L854.537699 997.651203 L832.047588 991.487022 L837.739332 985.621437 L808.846010 986.056040 L824.498306 969.925681 L812.767136 958.542193 L821.304752 949.743815 L833.035922 961.127303 L848.688218 944.996944 L849.122820 973.890267 L854.814564 968.024682 L861.652379 990.319221 L865.209719 986.653231 Z" fill="#888" fill-opacity="0.18" stroke="#000" stroke-width="1"/>
  <path d="M984.804273 207.205220 L967.551257 227.402235 L965.242099 222.845708 L952.096137 242.106702 L948.401483 234.816258 L939.412007 262.279001 L929.251710 242.230280 L914.670822 249.619587 L909.128842 238.683921 L923.709730 231.294614 L913.549433 211.245893 L941.012177 220.235370 L937.317523 212.944926 L960.623782 213.732653 L958.314624 209.176125 Z" fill="#888" fill-opacity="0.18" stroke="#000" stroke-width="1"/>
  <path d="M821.677320 58.059170 L842.440369 74.626660 L837.963666 77.087003 L857.653783 89.581062 L850.491058 93.517610 L878.239240 101.583053 L858.541746 112.408559 L866.414842 126.734009 L855.670754 132.638831 L847.797659 118.313381 L828.100165 129.138888 L836.165608 101.390706 L829.002883 105.327253 L829.010260 82.007688 L824.533557 84.468030 Z" fill="#888" fill-opacity="0.18" stroke="#000" stroke-width="1"/>
  <path d="M804.871306 926.480199 L781.499712 939.103772 L780.987510 934.021272 L761.784357 947.251582 L760.964832 939.119583 L742.683644 961.498393 L740.429952 939.135394 L724.165953 940.774443 L722.936666 928.576443 L739.200665 926.937394 L736.946973 904.574395 L759.325783 922.855583 L758.506259 914.723584 L779.963104 923.856272 L779.450901 918.773772 Z" fill="#888" fill-opacity="0.18" stroke="#000" stroke-width="1"/>
  <path d="M844.018413 1042.825371 L817.478457 1041.722322 L819.637279 1037.092673 L796.369278 1038.642611 L799.823393 1031.235174 L772.669512 1041.118479 L782.168329 1020.748026 L767.353455 1013.839796 L772.534628 1002.728640 L787.349502 1009.636871 L796.848319 989.266419 L806.731624 1016.420300 L810.185739 1009.012863 L823.954923 1027.833377 L826.113745 1023.203729 Z" fill="#888" fill-opacity="0.18" stroke="#000" stroke-width="1"/>
  <path d="M545.246760 224.316702 L557.107834 248.084346 L552.011427 248.431900 L564.613740 268.052907 L556.459489 268.608994 L578.235333 287.604404 L555.811144 289.133643 L556.923318 305.442145 L544.691942 306.276275 L543.579768 289.967773 L521.155578 291.497013 L540.150988 269.721168 L531.996737 270.277255 L541.818614 249.127009 L536.722207 249.474563 Z" fill="#888" fill-opacity="0.18" stroke="#000" stroke-width="1"/>
  <path d="M766.802540 577.152481 L759.478463 602.685673 L755.487666 599.496991 L751.512693 622.475281 L745.127417 617.373390 L748.335880 646.091306 L730.776371 632.061107 L720.572590 644.831659 L710.994676 637.178823 L721.198458 624.408271 L703.638949 610.378071 L732.356865 607.169608 L725.971589 602.067718 L747.506071 593.119627 L743.515273 589.930946 Z" fill="#888" fill-opacity="0.18" stroke="#000" stroke-width="1"/>
  <path d="M882.293133 167.004748 L906.883896 156.960829 L906.847997 162.068947 L927.359446 150.974685 L927.302008 159.147673 L947.878075 138.858799 L947.720119 161.334517 L964.066096 161.449395 L963.979938 173.708877 L947.633961 173.594000 L947.476004 196.069718 L927.187130 175.493650 L927.129691 183.666638 L906.776199 172.285182 L906.740300 177.393300 Z" fill="#888" fill-opacity="0.18" stroke="#000" stroke-width="1"/>
  <path d="M795.411806 138.554817 L821.789876 135.426976 L820.394074 140.340822 L843.120227 135.113569 L840.886943 142.975724 L866.125540 128.903547 L859.984009 150.524473 L875.708319 154.991041 L872.358393 166.784274 L856.634083 162.317706 L850.492552 183.938632 L836.420375 158.700034 L834.187091 166.562189 L817.602469 150.168516 L816.206666 155.082363 Z" fill="#888" fill-opacity="0.18" stroke="#000" stroke-width="1"/>
  <path d="M779.598034 511.435000 L753.113452 513.472868 L754.710620 508.620733 L731.788313 512.906761 L734.343780 505.143346 L708.546572 518.163217 L715.574107 496.813823 L700.047276 491.702889 L703.880476 480.057765 L719.407308 485.168700 L726.434843 463.819306 L739.454714 489.616514 L742.010182 481.853098 L757.904954 498.916463 L759.502121 494.064328 Z" fill="#888" fill-opacity="0.18" stroke="#000" stroke-width="1"/>
  <path d="M900.018550 721.639245 L886.950720 744.765372 L883.812045 740.735127 L874.596146 762.156364 L869.574267 755.707971 L866.007981 784.383650 L852.197815 766.650569 L839.301029 776.694326 L831.768211 767.021737 L844.664997 756.977979 L830.854831 739.244898 L859.530510 742.811184 L854.508631 736.362791 L877.534697 732.674635 L874.396023 728.644390 Z" fill="#888" fill-opacity="0.18" stroke="#000" stroke-width="1"/>
  <path d="M170.968046 987.091030 L193.733306 1000.777845 L189.619873 1003.806677 L210.784754 1013.596978 L204.203261 1018.443110 L232.772322 1022.781513 L214.673217 1036.108375 L224.365479 1049.271360 L214.493240 1056.540557 L204.800977 1043.377572 L186.701872 1056.704433 L191.040276 1028.135372 L184.458783 1032.981504 L181.393007 1009.864341 L177.279574 1012.893173 Z" fill="#888" fill-opacity="0.18" stroke="#000" stroke-width="1"/>
  <path d="M945.303871 850.363419 L921.379278 861.904641 L921.100111 856.804031 L901.311838 869.142040 L900.865171 860.981065 L881.579400 882.500172 L880.351065 860.057489 L864.029113 860.950823 L863.359112 848.709359 L879.681064 847.816025 L878.452729 825.373341 L899.971837 844.659113 L899.525170 836.498137 L920.541777 846.602811 L920.262610 841.502201 Z" fill="#888" fill-opacity="0.18" stroke="#000" stroke-width="1"/>
  <path d="M335.451623 461.252742 L339.415844 434.987348 L343.785128 437.633763 L344.758360 414.334514 L351.749215 418.568777 L344.857736 390.505981 L364.082587 402.150205 L372.551113 388.168495 L383.037396 394.519890 L374.568870 408.501600 L393.793721 420.145823 L365.730926 427.037303 L372.721781 431.271566 L352.523697 442.926592 L356.892982 445.573006 Z" fill="#888" fill-opacity="0.18" stroke="#000" stroke-width="1"/>
  <path d="M379.242868 130.994797 L405.106596 137.049015 L402.118885 141.192412 L425.265437 144.027782 L420.485100 150.657218 L449.009532 146.034473 L435.863604 164.265420 L449.122474 173.826095 L441.951968 183.770248 L428.693098 174.209573 L415.547170 192.440520 L410.924425 163.916088 L406.144088 170.545523 L396.143463 149.479206 L393.155752 153.622603 Z" fill="#888" fill-opacity="0.18" stroke="#000" stroke-width="1"/>
  <path d="M601.590868 318.299065 L585.040384 339.075673 L582.576377 334.600986 L570.098444 354.301325 L566.156032 347.141826 L558.113312 374.896602 L547.271681 355.207979 L532.952682 363.092801 L527.039065 352.353552 L541.358064 344.468730 L530.516434 324.780106 L558.271210 332.822827 L554.328799 325.663328 L577.648363 325.651611 L575.184356 321.176924 Z" fill="#888" fill-opacity="0.18" stroke="#000" stroke-width="1"/>
  <path d="M459.729049 673.264093 L480.617966 689.672600 L476.160175 692.167045 L495.945095 704.510429 L488.812629 708.501541 L516.621573 716.354925 L497.007293 727.330483 L504.989516 741.595414 L494.290818 747.582082 L486.308594 733.317151 L466.694314 744.292708 L474.547698 716.483765 L467.415233 720.474877 L467.244593 697.155934 L462.786802 699.650379 Z" fill="#888" fill-opacity="0.18" stroke="#000" stroke-width="1"/>
  <path d="M655.390405 648.301807 L629.300646 643.310774 L632.116344 639.048615 L608.873172 637.162571 L613.378290 630.343117 L585.066861 636.128960 L597.455933 617.375460 L583.817025 608.365226 L590.574701 598.136044 L604.213609 607.146279 L616.602681 588.392780 L622.388524 616.704208 L626.893641 609.884754 L637.747741 630.524297 L640.563439 626.262138 Z" fill="#888" fill-opacity="0.18" stroke="#000" stroke-width="1"/>
  <path d="M968.019455 949.075394 L991.165975 936.043716 L991.767269 941.116447 L1010.735345 927.551260 L1011.697417 935.667629 L1029.583161 912.971526 L1032.228859 935.291542 L1048.461598 933.367399 L1049.904705 945.541953 L1033.671966 947.466097 L1036.317664 969.786113 L1013.621560 951.900368 L1014.583632 960.016738 L992.969859 951.261909 L993.571154 956.334640 Z" fill="#888" fill-opacity="0.18" stroke="#000" stroke-width="1"/>
  <path d="M268.351180 524.801545 L267.618887 551.354317 L262.959541 549.260362 L264.834282 572.504448 L257.379328 569.154120 L267.640892 596.167325 L247.139769 586.953922 L240.439112 601.863830 L229.256681 596.838338 L235.957338 581.928430 L215.456214 572.715027 L242.469420 562.453463 L235.014466 559.103135 L253.640848 545.072451 L248.981502 542.978496 Z" fill="#888" fill-opacity="0.18" stroke="#000" stroke-width="1"/>
  <path d="M636.570076 567.970045 L646.128343 543.186472 L649.820821 546.716310 L655.816722 524.180752 L661.724688 529.828493 L661.074127 500.939226 L677.321032 516.470515 L688.616515 504.654584 L697.478463 513.126196 L686.182981 524.942127 L702.429886 540.473415 L673.540619 541.123976 L679.448584 546.771717 L657.205778 553.775987 L660.898257 557.305825 Z" fill="#888" fill-opacity="0.18" stroke="#000" stroke-width="1"/>
  <path d="M246.711340 119.883250 L258.934684 143.466630 L253.844192 143.892122 L266.745241 163.318010 L258.600453 163.998796 L280.664389 182.658799 L258.266222 184.530962 L259.627795 200.820538 L247.410614 201.841717 L246.049041 185.552142 L223.650874 187.424305 L242.310878 165.360369 L234.166090 166.041156 L243.663207 144.743105 L238.572714 145.168596 Z" fill="#888" fill-opacity="0.18" stroke="#000" stroke-width="1"/>
  <path d="M539.450493 473.537809 L556.210658 494.145644 L551.312805 495.596573 L567.891797 511.995940 L560.055233 514.317426 L585.450359 528.105120 L563.899808 534.489208 L568.542781 550.162337 L556.787934 553.644566 L552.144961 537.971438 L530.594410 544.355526 L544.382104 518.960399 L536.545540 521.281885 L541.517100 498.498431 L536.619247 499.949360 Z" fill="#888" fill-opacity="0.18" stroke="#000" stroke-width="1"/>
  <path d="M781.071166 154.657906 L778.734291 128.198031 L783.604156 129.740293 L779.059499 106.867858 L786.851283 109.335476 L773.540869 83.686970 L794.968275 90.472921 L799.903512 74.889353 L811.591188 78.590780 L806.655951 94.174348 L828.083357 100.960299 L802.434851 114.270713 L810.226635 116.738331 L793.343886 132.824816 L798.213751 134.367077 Z" fill="#888" fill-opacity="0.18" stroke="#000" stroke-width="1"/>
  <path d="M370.490650 788.723340 L395.314589 798.176276 L391.800463 801.883711 L414.361279 807.783860 L408.738677 813.715755 L437.624921 812.942522 L422.162766 829.255234 L434.026557 840.500438 L425.592654 849.398282 L413.728863 838.153078 L398.266707 854.465790 L397.493473 825.579546 L391.870871 831.511442 L384.772210 809.298580 L381.258084 813.006015 Z" fill="#888" fill-opacity="0.18" stroke="#000" stroke-width="1"/>
  <path d="M294.179013 867.822351 L278.807691 846.158824 L283.790219 845.032519 L268.323435 827.580275 L276.295481 825.778187 L251.860146 810.353293 L273.783272 805.397550 L270.179095 789.453458 L282.137164 786.750326 L285.741341 802.694418 L307.664467 797.738675 L292.239573 822.174010 L300.211619 820.371922 L293.755277 842.779908 L298.737805 841.653603 Z" fill="#888" fill-opacity="0.18" stroke="#000" stroke-width="1"/>
  <path d="M927.717824 1035.312449 L920.740090 1009.682443 L925.805900 1010.339503 L917.289356 988.630733 L925.394652 989.682028 L907.759650 966.790552 L930.049213 969.681613 L932.151803 953.471022 L944.309747 955.047964 L942.207157 971.258556 L964.496719 974.149617 L941.605243 991.784618 L949.710538 992.835913 L935.937519 1011.653622 L941.003329 1012.310681 Z" fill="#888" fill-opacity="0.18" stroke="#000" stroke-width="1"/>
  <path d="M489.397676 205.655250 L506.122331 226.291914 L501.221987 227.734407 L517.772715 244.162298 L509.932165 246.470287 L535.303513 260.301689 L513.742000 266.648659 L518.357978 282.329759 L506.597153 285.791742 L501.981175 270.110642 L480.419662 276.457612 L494.251065 251.086264 L486.410515 253.394253 L491.421299 230.619393 L486.520956 232.061886 Z" fill="#888" fill-opacity="0.18" stroke="#000" stroke-width="1"/>
  <path d="M539.446635 1054.418754 L513.050880 1051.443847 L515.531318 1046.978248 L492.211955 1046.880812 L496.180657 1039.735853 L468.396504 1047.676496 L479.310434 1028.027858 L465.020515 1020.090454 L470.973568 1009.373016 L485.263487 1017.310419 L496.177417 997.661781 L504.118060 1025.445934 L508.086762 1018.300975 L520.492196 1038.047048 L522.972634 1033.581449 Z" fill="#888" fill-opacity="0.18" stroke="#000" stroke-width="1"/>
  <path d="M53.651809 609.682893 L51.410694 583.214736 L56.274947 584.774609 L51.813084 561.885878 L59.595887 564.381675 L46.378370 538.685173 L67.781080 545.548615 L72.772674 529.983007 L84.446880 533.726702 L79.455286 549.292310 L100.857997 556.155751 L75.161495 569.373269 L82.944299 571.869065 L66.003452 587.894355 L70.867704 589.454228 Z" fill="#888" fill-opacity="0.18" stroke="#000" stroke-width="1"/>
  <path d="M841.059570 508.672626 L833.511768 534.140579 L829.549099 530.917008 L825.372687 553.859541 L819.032416 548.701827 L821.988808 577.446787 L804.553065 563.263075 L794.237638 575.943616 L784.727232 568.207045 L795.042659 555.526504 L777.606916 541.342792 L806.351875 538.386400 L800.011605 533.228686 L821.623761 524.469867 L817.661092 521.246296 Z" fill="#888" fill-opacity="0.18" stroke="#000" stroke-width="1"/>
  <path d="M387.885109 123.307228 L377.289652 98.949021 L382.397282 98.869814 L370.843665 78.613552 L379.015872 78.486819 L358.268522 58.373132 L380.742093 58.024617 L380.488628 41.680202 L392.746939 41.490103 L393.000404 57.834518 L415.473975 57.486004 L395.360288 78.233354 L403.532495 78.106622 L392.612541 98.711398 L397.720171 98.632190 Z" fill="#888" fill-opacity="0.18" stroke="#000" stroke-width="1"/>
  <path d="M393.385790 536.903995 L373.879911 518.873281 L378.523372 516.744331 L359.791961 502.854176 L367.221498 499.447857 L340.131857 489.389810 L360.563085 480.022433 L353.750447 465.163358 L364.894754 460.053879 L371.707392 474.912955 L392.138620 465.545577 L382.080574 492.635219 L389.510111 489.228900 L387.810294 512.486433 L392.453755 510.357483 Z" fill="#888" fill-opacity="0.18" stroke="#000" stroke-width="1"/>
  <path d="M943.707089 47.512121 L923.557385 64.820367 L921.975278 59.963301 L906.027649 76.977275 L903.496278 69.205969 L890.396441 94.962662 L883.435170 73.591571 L867.892558 78.654313 L864.095501 66.997354 L879.638113 61.934612 L872.676842 40.563520 L898.433535 53.663357 L895.902164 45.892051 L918.811064 50.249168 L917.228957 45.392102 Z" fill="#888" fill-opacity="0.18" stroke="#000" stroke-width="1"/>
  <path d="M314.260548 633.489978 L310.007353 659.710129 L305.667473 657.015763 L304.437747 680.302884 L297.493940 675.991899 L304.075996 704.128877 L284.980527 692.273670 L276.358558 706.161283 L265.942848 699.694807 L274.564817 685.807193 L255.469349 673.951986 L283.606327 667.369931 L276.662520 663.058946 L296.987715 651.627033 L292.647836 648.932668 Z" fill="#888" fill-opacity="0.18" stroke="#000" stroke-width="1"/>
  <path d="M62.636604 40.082909 L84.036549 55.819120 L79.660303 58.454006 L99.827588 70.162243 L92.825594 74.378060 L120.870122 81.343502 L101.614638 92.937000 L110.046273 106.940988 L99.543282 113.264714 L91.111647 99.260726 L71.856163 110.854223 L78.821605 82.809695 L71.819611 87.025512 L70.907810 63.723778 L66.531564 66.358664 Z" fill="#888" fill-opacity="0.18" stroke="#000" stroke-width="1"/>
  <path d="M576.330707 272.034730 L561.679026 249.878146 L566.695851 248.916057 L551.810477 230.965351 L559.837398 229.426008 L535.921737 213.207064 L557.995770 208.973870 L554.917083 192.920028 L566.957465 190.611013 L570.036151 206.664855 L592.110184 202.431661 L575.891240 226.347321 L583.918161 224.807978 L576.729503 246.991878 L581.746328 246.029788 Z" fill="#888" fill-opacity="0.18" stroke="#000" stroke-width="1"/>
  <path d="M935.838292 1046.930684 L946.507500 1022.604691 L950.036581 1026.297893 L957.045411 1004.056524 L962.691941 1009.965647 L963.348426 981.076514 L978.876382 997.326604 L990.694629 986.033545 L999.164424 994.897230 L987.346177 1006.190289 L1002.874133 1022.440379 L973.985000 1021.783894 L979.631530 1027.693018 L957.094743 1033.684297 L960.623824 1037.377499 Z" fill="#888" fill-opacity="0.18" stroke="#000" stroke-width="1"/>
  <path d="M64.982507 737.205901 L86.388952 752.933269 L82.013795 755.569962 L102.185916 767.269866 L95.185664 771.488576 L123.233068 778.442430 L103.982376 790.043882 L112.419796 804.044386 L101.919418 810.372451 L93.481998 796.371947 L74.231306 807.973400 L81.185161 779.925996 L74.184909 784.144706 L73.263480 760.843350 L68.888323 763.480044 Z" fill="#888" fill-opacity="0.18" stroke="#000" stroke-width="1"/>
  <path d="M386.076780 683.110978 L412.639569 683.175856 L410.663348 687.886346 L433.852990 685.428150 L430.691038 692.964933 L457.437875 682.027856 L448.742507 702.754009 L463.816072 709.077914 L459.073144 720.383088 L443.999578 714.059183 L435.304210 734.785336 L424.367133 708.038499 L421.205181 715.575281 L406.710908 697.307324 L404.734688 702.017814 Z" fill="#888" fill-opacity="0.18" stroke="#000" stroke-width="1"/>
  <path d="M949.443488 868.997163 L972.891275 881.478639 L968.941325 884.717782 L990.587787 893.391470 L984.267867 898.574098 L1013.024240 901.417329 L995.644458 915.669557 L1006.009715 928.309399 L996.529834 936.083342 L986.164577 923.443500 L968.784795 937.695729 L971.628025 908.939355 L965.308104 914.121984 L961.041424 891.196068 L957.091473 894.435211 Z" fill="#888" fill-opacity="0.18" stroke="#000" stroke-width="1"/>
  <path d="M897.282359 205.794598 L873.646977 217.917085 L873.243235 212.824821 L853.762412 225.642767 L853.116426 217.495145 L834.362338 239.479165 L832.585875 217.073206 L816.290632 218.365178 L815.321652 206.143746 L831.616896 204.851773 L829.840433 182.445813 L851.824453 201.199902 L851.178467 193.052280 L872.435752 202.640294 L872.032011 197.548030 Z" fill="#888" fill-opacity="0.18" stroke="#000" stroke-width="1"/>
  <path d="M1033.156021 1057.416790 L1021.595925 1033.501311 L1026.696313 1033.218120 L1014.342693 1013.439589 L1022.503314 1012.986482 L1000.968995 993.717697 L1023.410703 992.471654 L1022.504490 976.150412 L1034.745421 975.470752 L1035.651634 991.791994 L1058.093341 990.545951 L1038.824556 1012.080269 L1046.985176 1011.627163 L1036.897089 1032.651736 L1041.997477 1032.368545 Z" fill="#888" fill-opacity="0.18" stroke="#000" stroke-width="1"/>
  <path d="M420.948233 1056.197863 L395.604343 1048.243418 L398.890923 1044.332849 L376.018172 1039.789782 L381.276700 1033.532871 L352.488105 1036.028828 L366.949056 1018.822325 L354.435236 1008.305269 L362.323027 998.919904 L374.836847 1009.436959 L389.297798 992.230456 L391.793755 1021.019051 L397.052282 1014.762141 L405.464083 1036.511711 L408.750662 1032.601142 Z" fill="#888" fill-opacity="0.18" stroke="#000" stroke-width="1"/>
  <path d="M682.192005 812.033559 L656.377339 818.293671 L657.175446 813.248160 L635.237568 821.155859 L636.514538 813.083042 L613.140069 830.072661 L616.651736 807.872412 L600.506101 805.318472 L602.421555 793.209246 L618.567191 795.763186 L622.078858 773.562937 L639.068478 796.937406 L640.345448 788.864589 L658.771658 803.157138 L659.569764 798.111627 Z" fill="#888" fill-opacity="0.18" stroke="#000" stroke-width="1"/>
  <path d="M744.127576 1049.395592 L737.038892 1023.796051 L742.107500 1024.431162 L733.497006 1002.759485 L741.606780 1003.775662 L723.872791 980.960785 L746.174667 983.755274 L748.207022 967.535727 L760.371682 969.059994 L758.339327 985.279540 L780.641203 988.074029 L757.826326 1005.808018 L765.936099 1006.824195 L752.244717 1025.701384 L757.313325 1026.336495 Z" fill="#888" fill-opacity="0.18" stroke="#000" stroke-width="1"/>
  <path d="M486.200526 533.734724 L508.396053 548.327343 L504.163966 551.188042 L524.917352 561.822852 L518.146013 566.399970 L546.517155 571.885523 L527.895973 584.472597 L537.050208 598.015274 L526.893200 604.880951 L517.738964 591.338273 L499.117782 603.925347 L504.603335 575.554206 L497.831996 580.131323 L495.699793 556.909439 L491.467706 559.770138 Z" fill="#888" fill-opacity="0.18" stroke="#000" stroke-width="1"/>
  <path d="M931.976679 621.646176 L911.499124 638.565269 L910.010347 633.678788 L893.739732 650.384155 L891.357688 642.565785 L877.766872 668.066818 L871.216253 646.566301 L855.579513 651.330387 L852.006448 639.602833 L867.643188 634.838746 L861.092568 613.338229 L886.593601 626.929045 L884.211558 619.110675 L907.032792 623.905825 L905.544015 619.019344 Z" fill="#888" fill-opacity="0.18" stroke="#000" stroke-width="1"/>
  <path d="M363.622843 610.897984 L350.541129 587.779708 L355.612547 587.167441 L342.006362 568.228753 L350.120632 567.249127 L327.385893 549.412517 L349.700135 546.718547 L347.740883 530.490007 L359.912288 529.020569 L361.871539 545.249108 L384.185781 542.555137 L366.349171 565.289876 L374.463441 564.310250 L365.755384 585.942909 L370.826803 585.330643 Z" fill="#888" fill-opacity="0.18" stroke="#000" stroke-width="1"/>
  <path d="M154.988261 190.589701 L171.251516 169.587499 L173.776814 174.027884 L185.982702 154.157844 L190.023178 161.262461 L197.683529 133.399726 L208.794840 152.937423 L223.004075 144.856469 L229.064790 155.513395 L214.855556 163.594349 L225.966867 183.132046 L198.104132 175.471695 L202.144609 182.576312 L178.827411 182.908656 L181.352709 187.349042 Z" fill="#888" fill-opacity="0.18" stroke="#000" stroke-width="1"/>
  <path d="M763.650968 359.685642 L785.125302 375.320185 L780.761601 377.975796 L800.984187 389.588255 L794.002266 393.837233 L822.079513 400.669593 L802.879229 412.354281 L811.377184 426.318124 L800.904301 432.691590 L792.406347 418.727747 L773.206062 430.412435 L780.038422 402.335188 L773.056501 406.584165 L772.034199 383.287017 L767.670498 385.942628 Z" fill="#888" fill-opacity="0.18" stroke="#000" stroke-width="1"/>
  <path d="M834.469366 698.195311 L830.918871 724.519823 L826.508491 721.942479 L825.901949 745.254156 L818.845341 741.130405 L826.177482 769.081302 L806.771811 757.740986 L798.524308 771.854202 L787.939396 765.668575 L796.186899 751.555359 L776.781228 740.215043 L804.732126 732.882902 L797.675518 728.759151 L817.687732 716.787789 L813.277352 714.210445 Z" fill="#888" fill-opacity="0.18" stroke="#000" stroke-width="1"/>
  <path d="M485.559278 559.794208 L462.121712 547.293549 L466.074312 544.057639 L444.434954 535.366241 L450.759114 530.188786 L422.005076 527.322026 L439.396515 513.084023 L429.041604 500.435704 L438.527844 492.669521 L448.882755 505.317840 L466.274193 491.079838 L463.407433 519.833875 L469.731592 514.656420 L473.979511 537.585820 L477.932111 534.349910 Z" fill="#888" fill-opacity="0.18" stroke="#000" stroke-width="1"/>
  <path d="M92.653043 306.550601 L93.646210 333.094895 L88.860746 331.307862 L92.240632 354.381192 L84.583890 351.521938 L96.577611 377.811929 L75.521570 369.948981 L69.803062 385.262466 L58.317948 380.973585 L64.036456 365.660100 L42.980414 357.797152 L69.270405 345.803431 L61.613662 342.944177 L79.289818 327.733795 L74.504354 325.946761 Z" fill="#888" fill-opacity="0.18" stroke="#000" stroke-width="1"/>
  <path d="M226.445676 906.441989 L215.566992 882.208950 L220.673351 882.070207 L208.884390 861.950003 L217.054565 861.728015 L196.074156 841.857549 L218.542137 841.247080 L218.098160 824.906731 L230.353423 824.573748 L230.797400 840.914098 L253.265381 840.303630 L233.394914 861.284038 L241.565089 861.062050 L230.886070 881.792721 L235.992429 881.653978 Z" fill="#888" fill-opacity="0.18" stroke="#000" stroke-width="1"/>
  <path d="M208.186412 346.107009 L207.894411 319.545746 L212.631026 321.458502 L209.861497 298.303980 L217.440081 301.364389 L206.144646 274.766906 L226.985751 283.183032 L233.106570 268.025865 L244.474446 272.616479 L238.353626 287.773647 L259.194732 296.189773 L232.597248 307.485209 L240.175832 310.545618 L222.104255 325.284014 L226.840870 327.196770 Z" fill="#888" fill-opacity="0.18" stroke="#000" stroke-width="1"/>
  <path d="M211.882558 638.555793 L200.693614 662.647150 L197.244626 658.879042 L189.759966 680.964831 L184.241586 674.935857 L182.965104 703.804241 L167.789558 687.224565 L155.731612 698.261325 L147.454041 689.217866 L159.511988 678.181105 L144.336442 661.601429 L173.204826 662.877911 L167.686445 656.848938 L190.346651 651.342825 L186.897663 647.574717 Z" fill="#888" fill-opacity="0.18" stroke="#000" stroke-width="1"/>
  <path d="M541.581037 632.506855 L522.629665 651.119524 L520.727369 646.378698 L505.949117 664.417696 L502.905444 656.832375 L491.551323 683.404859 L483.181223 662.545226 L468.010581 668.632572 L463.445072 657.254590 L478.615714 651.167245 L470.245615 630.307612 L496.818099 641.661733 L493.774426 634.076412 L516.922779 636.897047 L515.020483 632.156221 Z" fill="#888" fill-opacity="0.18" stroke="#000" stroke-width="1"/>
  <path d="M795.059340 850.394884 L791.679273 824.047947 L796.606249 825.396673 L791.161806 802.721571 L799.044967 804.879533 L784.731967 779.776724 L806.410662 785.711119 L810.726585 769.944795 L822.551328 773.181738 L818.235405 788.948061 L839.914100 794.882456 L814.811291 809.195456 L822.694453 811.353418 L806.460201 828.094125 L811.387177 829.442851 Z" fill="#888" fill-opacity="0.18" stroke="#000" stroke-width="1"/>
  <path d="M488.545646 90.706633 L465.657663 104.187220 L464.957558 99.127180 L446.257629 113.059690 L445.137460 104.963626 L427.697721 128.004209 L424.617256 105.740032 L408.425128 107.980369 L406.744874 95.836273 L422.937003 93.595935 L419.856539 71.331758 L442.897122 88.771497 L441.776953 80.675433 L463.557347 89.007099 L462.857241 83.947059 Z" fill="#888" fill-opacity="0.18" stroke="#000" stroke-width="1"/>
  <path d="M628.962090 757.367780 L655.204538 753.254396 L653.993715 758.217063 L676.508193 752.142488 L674.570876 760.082755 L699.264836 745.075379 L693.937215 766.911114 L709.817749 770.785748 L706.911774 782.696148 L691.031240 778.821515 L685.703619 800.657249 L670.696243 775.963289 L668.758926 783.903556 L651.572069 768.142397 L650.361246 773.105064 Z" fill="#888" fill-opacity="0.18" stroke="#000" stroke-width="1"/>
  <path d="M685.765025 278.538897 L709.965102 267.587082 L710.119265 272.692999 L730.203775 260.843330 L730.450435 269.012797 L750.257453 247.972478 L750.935769 270.438513 L767.274704 269.945192 L767.644694 282.199393 L751.305759 282.692714 L751.984076 305.158749 L730.943756 285.351732 L731.190417 293.521199 L710.427590 282.904833 L710.581753 288.010750 Z" fill="#888" fill-opacity="0.18" stroke="#000" stroke-width="1"/>
  <path d="M166.422289 730.463648 L184.367078 710.878692 L186.516420 715.512749 L200.324096 696.720455 L203.763043 704.134946 L213.701903 677.001350 L223.159008 697.391201 L237.987990 690.513306 L243.146411 701.635043 L228.317429 708.512938 L237.774534 728.902788 L210.640938 718.963929 L214.079885 726.378420 L190.815105 724.780863 L192.964447 729.414920 Z" fill="#888" fill-opacity="0.18" stroke="#000" stroke-width="1"/>
  <path d="M224.439003 114.270364 L244.061830 96.366994 L245.788550 101.174550 L261.219988 83.691046 L263.982741 91.383135 L276.306082 65.246030 L283.903652 86.399275 L299.287830 80.873770 L303.431959 92.411903 L288.047781 97.937409 L295.645351 119.090654 L269.508246 106.767313 L272.270999 114.459402 L249.241991 110.789661 L250.968712 115.597217 Z" fill="#888" fill-opacity="0.18" stroke="#000" stroke-width="1"/>
  <path d="M817.486985 915.847245 L795.766133 900.557034 L800.086943 897.832194 L779.681801 886.543600 L786.595098 882.183856 L758.412496 875.799973 L777.424063 863.810678 L768.704575 849.984085 L779.074521 843.444469 L787.794008 857.271063 L806.805574 845.281768 L800.421691 873.464369 L807.334988 869.104625 L808.728564 892.382515 L813.049375 889.657675 Z" fill="#888" fill-opacity="0.18" stroke="#000" stroke-width="1"/>
  <path d="M416.429913 885.073566 L442.641270 880.766512 L441.467126 885.737985 L463.936134 879.497321 L462.057504 887.451677 L486.639971 872.262363 L481.473737 894.136843 L497.382450 897.894104 L494.564504 909.825638 L478.655791 906.068377 L473.489557 927.942857 L458.300243 903.360390 L456.421612 911.314746 L439.118838 895.680930 L437.944694 900.652403 Z" fill="#888" fill-opacity="0.18" stroke="#000" stroke-width="1"/>
  <path d="M975.202272 445.624491 L995.810275 428.864532 L997.261155 433.762400 L1013.660687 417.183572 L1015.982095 425.020159 L1029.770044 399.625171 L1036.153916 421.175786 L1051.827091 416.532970 L1055.309203 428.287852 L1039.636028 432.930668 L1046.019900 454.481283 L1020.624911 440.693334 L1022.946319 448.529922 L1000.162915 443.558134 L1001.613795 448.456001 Z" fill="#888" fill-opacity="0.18" stroke="#000" stroke-width="1"/>
  <path d="M149.931276 729.030133 L171.415881 744.650560 L167.053926 747.309038 L187.284139 758.908206 L180.305011 763.161771 L208.386742 769.975678 L189.194141 781.672981 L197.701271 795.631236 L187.232580 802.011584 L178.725450 788.053328 L159.532848 799.750632 L166.346756 771.668900 L159.367628 775.922465 L158.330016 752.625994 L153.968061 755.284472 Z" fill="#888" fill-opacity="0.18" stroke="#000" stroke-width="1"/>
  <path d="M386.079592 925.826386 L381.111039 951.920436 L376.846456 949.108412 L374.980439 972.353200 L368.157106 967.853960 L373.967340 996.160393 L355.203173 983.787484 L346.204693 997.434151 L335.969693 990.685291 L344.968173 977.038624 L326.204006 964.665714 L354.510439 958.855480 L347.687106 954.356241 L368.317289 943.484362 L364.052705 940.672337 Z" fill="#888" fill-opacity="0.18" stroke="#000" stroke-width="1"/>
  <path d="M167.657409 942.198074 L144.312336 954.870623 L143.789477 949.789209 L124.614107 963.059754 L123.777534 954.929491 L105.543308 977.346582 L103.242732 954.988358 L86.982205 956.661504 L85.727345 944.466109 L101.987872 942.792963 L99.687295 920.434738 L122.104387 938.668964 L121.267814 930.538700 L142.743761 939.626379 L142.220902 934.544965 Z" fill="#888" fill-opacity="0.18" stroke="#000" stroke-width="1"/>
  <path d="M478.503074 831.436523 L467.135644 807.428868 L472.238144 807.186695 L460.043952 787.309474 L468.207953 786.921998 L446.829261 767.480689 L469.280261 766.415128 L468.505308 750.087128 L480.751308 749.505913 L481.526262 765.833913 L503.977262 764.768352 L484.535953 786.147045 L492.699953 785.759568 L482.443145 806.702349 L487.545645 806.460176 Z" fill="#888" fill-opacity="0.18" stroke="#000" stroke-width="1"/>
  <path d="M744.427997 971.676700 L719.551934 980.991605 L719.738346 975.886763 L698.908874 986.371766 L699.207133 978.204020 L678.042119 997.877737 L678.862332 975.416434 L662.526840 974.819915 L662.974229 962.568296 L679.309721 963.164815 L680.129935 940.703513 L699.803652 961.868527 L700.101911 953.700781 L720.111170 965.677080 L720.297582 960.572239 Z" fill="#888" fill-opacity="0.18" stroke="#000" stroke-width="1"/>
  <path d="M83.661247 975.637122 L92.539536 1000.672336 L87.438737 1000.396647 L97.557738 1021.406359 L89.396459 1020.965256 L108.696898 1042.471210 L86.253383 1041.258177 L85.371177 1057.580734 L73.129259 1056.919079 L74.011465 1040.596523 L51.567949 1039.383490 L73.073903 1020.083051 L64.912624 1019.641948 L77.237139 999.845268 L72.136340 999.569579 Z" fill="#888" fill-opacity="0.18" stroke="#000" stroke-width="1"/>
  <path d="M434.211829 1055.216526 L428.574271 1029.258793 L433.599132 1030.177993 L426.221242 1008.056309 L434.261019 1009.527030 L417.838379 985.750784 L439.947767 989.795267 L442.889209 973.715713 L454.948875 975.921795 L452.007432 992.001349 L474.116820 996.045833 L450.340573 1012.468473 L458.380351 1013.939194 L443.648854 1032.016395 L448.673714 1032.935596 Z" fill="#888" fill-opacity="0.18" stroke="#000" stroke-width="1"/>
  <path d="M691.752350 118.849611 L694.751241 92.456570 L699.214584 94.941066 L699.333210 71.621801 L706.474560 75.596994 L698.559168 47.805636 L718.197880 58.737417 L726.148266 44.454717 L736.860291 50.417506 L728.909905 64.700206 L748.548617 75.631987 L720.757260 83.547379 L727.898610 87.522572 L708.141272 99.910057 L712.604616 102.394553 Z" fill="#888" fill-opacity="0.18" stroke="#000" stroke-width="1"/>
  <path d="M921.937619 863.225271 L937.987459 884.391012 L933.043109 885.674583 L949.054963 902.628129 L941.144002 904.681842 L966.055687 919.324961 L944.300545 924.972672 L948.407972 940.794594 L936.541531 943.875164 L932.434104 928.053242 L910.678962 933.700954 L925.322081 908.789269 L917.411120 910.842982 L923.154408 888.241724 L918.210057 889.525295 Z" fill="#888" fill-opacity="0.18" stroke="#000" stroke-width="1"/>
  <path d="M1038.052787 846.045204 L1024.810121 823.018746 L1029.877145 822.371117 L1016.139177 803.527804 L1024.246416 802.491598 L1001.387805 784.814017 L1023.682710 781.964451 L1021.610298 765.749974 L1033.771156 764.195665 L1035.843568 780.410142 L1058.138474 777.560575 L1040.460893 800.419186 L1048.568131 799.382980 L1040.011193 821.075860 L1045.078217 820.428231 Z" fill="#888" fill-opacity="0.18" stroke="#000" stroke-width="1"/>
  <path d="M91.142068 265.868765 L111.754845 282.622851 L107.256133 285.042716 L126.832761 297.713859 L119.634822 301.585644 L147.309130 309.901029 L127.514799 320.548437 L135.258368 334.944314 L124.461460 340.751991 L116.717891 326.356114 L96.923559 337.003521 L105.238945 309.329213 L98.041006 313.200997 L98.258710 289.882447 L93.759998 292.302312 Z" fill="#888" fill-opacity="0.18" stroke="#000" stroke-width="1"/>
  <path d="M148.357959 880.918238 L130.085452 861.638677 L134.859376 859.821040 L117.086193 844.724146 L124.724472 841.815927 L98.358227 829.990780 L119.363492 821.993176 L113.547053 806.716619 L125.004470 802.354289 L130.820910 817.630846 L151.826175 809.633242 L140.001029 835.999487 L147.639307 833.091267 L144.407223 856.185765 L149.181147 854.368128 Z" fill="#888" fill-opacity="0.18" stroke="#000" stroke-width="1"/>
  <path d="M919.055153 732.437779 L908.766641 707.948343 L913.874863 707.933328 L902.576718 687.533472 L910.749873 687.509450 L890.256929 667.136619 L912.733105 667.070557 L912.685059 650.724247 L924.944791 650.688213 L924.992837 667.034523 L947.469013 666.968460 L927.096183 687.461404 L935.269338 687.437381 L924.091307 707.903300 L929.199528 707.888286 Z" fill="#888" fill-opacity="0.18" stroke="#000" stroke-width="1"/>
  <path d="M153.362341 352.668821 L169.873407 373.476768 L164.958456 374.868677 L181.338984 391.466282 L173.475062 393.693336 L198.702503 407.785505 L177.076718 413.909905 L181.530826 429.637748 L169.734944 432.978330 L165.280835 417.250486 L143.655050 423.374886 L157.747219 398.147445 L149.883297 400.374499 L155.128553 377.652495 L150.213602 379.044404 Z" fill="#888" fill-opacity="0.18" stroke="#000" stroke-width="1"/>
  <path d="M400.877258 271.338419 L427.317702 268.791080 L425.814238 273.673062 L448.649788 268.946556 L446.244246 276.757728 L471.786030 263.243654 L465.170790 284.724376 L480.793133 289.535461 L477.184820 301.252218 L461.562476 296.441134 L454.947236 317.921857 L441.433161 292.380072 L439.027619 300.191244 L422.807310 283.437027 L421.303846 288.319010 Z" fill="#888" fill-opacity="0.18" stroke="#000" stroke-width="1"/>
  <path d="M866.919488 814.664783 L874.341142 789.159783 L878.319718 792.363701 L882.382523 769.400779 L888.748244 774.527047 L885.649612 745.797073 L903.155346 759.894311 L913.407883 747.162869 L922.956465 754.852272 L912.703928 767.583714 L930.209662 781.680953 L901.479687 784.779585 L907.845408 789.905853 L886.276869 798.771537 L890.255445 801.975455 Z" fill="#888" fill-opacity="0.18" stroke="#000" stroke-width="1"/>
  <path d="M726.999543 697.895057 L744.491441 717.885542 L739.649055 719.512026 L756.808243 735.303305 L749.060425 737.905680 L774.935908 750.769286 L753.629409 757.925818 L758.834159 773.421454 L747.212432 777.325017 L742.007682 761.829381 L720.701183 768.985913 L733.564789 743.110430 L725.816972 745.712806 L729.964283 722.764995 L725.121897 724.391480 Z" fill="#888" fill-opacity="0.18" stroke="#000" stroke-width="1"/>
  <path d="M1050.311909 879.489094 L1024.789559 872.127329 L1027.984128 868.141244 L1005.011732 864.132352 L1010.123044 857.754615 L981.400422 860.920678 L995.456530 843.381901 L982.701056 833.159278 L990.368023 823.592672 L1003.123497 833.815296 L1017.179605 816.276519 L1020.345668 844.999141 L1025.456980 838.621404 L1034.373268 860.169072 L1037.567838 856.182987 Z" fill="#888" fill-opacity="0.18" stroke="#000" stroke-width="1"/>
  <path d="M330.146229 925.983329 L303.607626 924.848203 L305.772042 920.221167 L282.502184 921.742981 L285.965250 914.339724 L258.799443 924.190202 L268.322874 903.831245 L253.516360 896.905114 L258.710959 885.800228 L273.517473 892.726360 L283.040904 872.367403 L292.891382 899.533210 L296.354447 892.129953 L310.100874 910.967096 L312.265290 906.340061 Z" fill="#888" fill-opacity="0.18" stroke="#000" stroke-width="1"/>
  <path d="M553.253033 309.585292 L575.160636 294.563878 L576.206774 299.563853 L593.905170 284.379354 L595.578991 292.379314 L611.394337 268.194860 L615.997347 290.194750 L631.997267 286.847107 L634.507999 298.847047 L618.508079 302.194690 L623.111088 324.194580 L598.926634 308.379234 L600.600456 316.379194 L578.299051 309.563803 L579.345190 314.563778 Z" fill="#888" fill-opacity="0.18" stroke="#000" stroke-width="1"/>
  <path d="M394.109812 861.147340 L370.194847 849.586180 L374.015982 846.196035 L352.048906 838.369813 L358.162722 832.945581 L329.317602 831.221619 L346.130597 816.304983 L335.282134 804.077350 L344.452859 795.941003 L355.301322 808.168635 L372.114317 793.251999 L370.390355 822.097118 L376.504171 816.672887 L381.658252 839.415746 L385.479388 836.025601 Z" fill="#888" fill-opacity="0.18" stroke="#000" stroke-width="1"/>
  <path d="M957.329421 122.413003 L979.047078 137.707751 L974.725699 140.431688 L995.128482 151.724545 L988.214275 156.082844 L1016.395542 162.472614 L997.381472 174.457937 L1006.098070 188.286352 L995.726759 194.823801 L987.010160 180.995387 L967.996090 192.980710 L974.385860 164.799443 L967.471653 169.157742 L966.082939 145.879562 L961.761560 148.603499 Z" fill="#888" fill-opacity="0.18" stroke="#000" stroke-width="1"/>
  <path d="M693.468359 896.092907 L686.215216 870.539475 L691.287803 871.141982 L682.538138 849.526118 L690.654278 850.490129 L672.773955 827.789753 L695.093339 830.440783 L697.021361 814.208503 L709.195570 815.654519 L707.267549 831.886799 L729.586932 834.537828 L706.886557 852.418150 L715.002696 853.382161 L701.432978 872.346995 L706.505565 872.949502 Z" fill="#888" fill-opacity="0.18" stroke="#000" stroke-width="1"/>
  <path d="M300.010841 299.870170 L277.637322 285.551944 L281.833865 282.639354 L260.951109 272.260881 L267.665578 267.600736 L239.229045 262.464925 L257.693834 249.649528 L248.373545 236.220590 L258.445249 229.230374 L267.765537 242.659311 L286.230327 229.843914 L281.094516 258.280447 L287.808985 253.620303 L290.226951 276.814174 L294.423494 273.901583 Z" fill="#888" fill-opacity="0.18" stroke="#000" stroke-width="1"/>
  <path d="M549.285688 555.885945 L575.080561 549.544768 L574.298309 554.592761 L596.211236 546.616183 L594.959633 554.692973 L618.280615 537.630007 L614.838706 559.841178 L630.992285 562.344384 L629.114881 574.459568 L612.961302 571.956362 L609.519393 594.167533 L592.456427 570.846552 L591.204824 578.923341 L572.733805 564.688748 L571.951553 569.736741 Z" fill="#888" fill-opacity="0.18" stroke="#000" stroke-width="1"/>
  <path d="M461.977025 372.514838 L436.664255 380.567764 L437.106988 375.478742 L415.776888 384.903659 L416.485261 376.761224 L394.358242 395.346381 L396.306267 372.954685 L380.021397 371.537940 L381.083955 359.324287 L397.368825 360.741032 L399.316849 338.349336 L417.902006 360.476355 L418.610378 352.333920 L437.992453 365.300699 L438.435186 360.211677 Z" fill="#888" fill-opacity="0.18" stroke="#000" stroke-width="1"/>
  <path d="M351.407050 167.881730 L324.943426 165.587695 L327.308020 161.059687 L303.993884 161.562929 L307.777234 154.318117 L280.206829 162.971772 L290.611041 143.048539 L276.121417 135.481839 L281.796442 124.614621 L296.286066 132.181321 L306.690279 112.258088 L315.343934 139.828493 L319.127284 132.583681 L332.037207 152.003672 L334.401801 147.475665 Z" fill="#888" fill-opacity="0.18" stroke="#000" stroke-width="1"/>
  <path d="M726.206121 854.789887 L731.550148 828.770138 L735.773770 831.643320 L737.974527 808.427832 L744.732322 813.024922 L739.330560 784.637708 L757.914497 797.279707 L767.108678 783.764116 L777.245371 790.659751 L768.051190 804.175342 L786.635127 816.817341 L758.247913 822.219103 L765.005708 826.816193 L744.221014 837.389683 L748.444636 840.262864 Z" fill="#888" fill-opacity="0.18" stroke="#000" stroke-width="1"/>
  <path d="M855.915426 610.208442 L830.800811 618.859574 L831.122697 613.761482 L810.022179 623.689741 L810.537197 615.532793 L788.857283 634.637618 L790.273582 612.206012 L773.959687 611.175977 L774.732213 598.940556 L791.046108 599.970591 L792.462406 577.538985 L811.567232 599.218898 L812.082249 591.061950 L831.766469 603.565297 L832.088355 598.467205 Z" fill="#888" fill-opacity="0.18" stroke="#000" stroke-width="1"/>
  <path d="M195.083986 569.750307 L176.834759 550.448710 L181.610872 548.636835 L163.855922 533.518504 L171.497704 530.619504 L145.145749 518.762548 L166.160650 510.790298 L160.362650 495.506733 L171.825324 491.158234 L177.623324 506.441798 L198.638225 498.469549 L186.781269 524.821504 L194.423051 521.922504 L191.163100 545.013085 L195.939214 543.201210 Z" fill="#888" fill-opacity="0.18" stroke="#000" stroke-width="1"/>
  <path d="M177.178187 380.011018 L199.048686 364.935633 L200.107149 369.933014 L217.768052 354.704924 L219.461593 362.700732 L235.217261 338.477357 L239.874500 360.465831 L255.866117 357.078748 L258.406429 369.072461 L242.414812 372.459544 L247.072051 394.448018 L222.848676 378.692349 L224.542217 386.688158 L202.224076 379.927775 L203.282539 384.925155 Z" fill="#888" fill-opacity="0.18" stroke="#000" stroke-width="1"/>
  <path d="M881.676383 1004.661860 L875.289469 978.878275 L880.338842 979.651573 L872.323415 957.752826 L880.402412 958.990103 L863.298114 935.699419 L885.515354 939.101931 L887.989908 922.943938 L900.108403 924.799854 L897.633849 940.957847 L919.851089 944.360360 L896.560404 961.464657 L904.639401 962.701935 L890.437588 981.198169 L895.486960 981.971468 Z" fill="#888" fill-opacity="0.18" stroke="#000" stroke-width="1"/>
  <path d="M692.754915 133.613385 L719.317783 133.613351 L717.353080 138.328655 L740.536645 135.813798 L737.393120 143.358285 L764.113151 132.355879 L755.468457 153.103219 L770.557431 159.390270 L765.842144 170.707000 L750.753169 164.419950 L742.108475 185.167290 L731.106070 158.447260 L727.962545 165.991747 L713.423674 147.759264 L711.458970 152.474569 Z" fill="#888" fill-opacity="0.18" stroke="#000" stroke-width="1"/>
  <path d="M110.977051 1049.047569 L120.964486 1024.433810 L124.595076 1028.027272 L130.981624 1005.599294 L136.790569 1011.348833 L136.642053 982.452623 L152.616652 998.263855 L164.115729 986.645965 L172.829147 995.270273 L161.330069 1006.888163 L177.304668 1022.699394 L148.408459 1022.847910 L154.217404 1028.597449 L131.856258 1035.214196 L135.486848 1038.807657 Z" fill="#888" fill-opacity="0.18" stroke="#000" stroke-width="1"/>
  <path d="M300.135613 729.068491 L308.968587 704.017253 L312.762226 707.438139 L318.099764 684.737635 L324.169586 690.211053 L322.678575 661.352954 L339.370585 676.404852 L350.317420 664.265208 L359.422153 672.475334 L348.475319 684.614978 L365.167329 699.666876 L336.309231 701.157887 L342.379053 706.631305 L320.349504 714.279911 L324.143143 717.700797 Z" fill="#888" fill-opacity="0.18" stroke="#000" stroke-width="1"/>
  <path d="M609.886271 158.594730 L585.238453 168.497812 L585.303573 163.389984 L564.728994 174.366728 L564.833186 166.194202 L544.141392 186.365038 L544.427919 163.890591 L528.082866 163.682208 L528.239154 151.423419 L544.584206 151.631802 L544.870733 129.157356 L565.041569 149.849150 L565.145761 141.676624 L585.433812 153.174326 L585.498932 148.066497 Z" fill="#888" fill-opacity="0.18" stroke="#000" stroke-width="1"/>
  <path d="M736.126658 358.742921 L747.905556 382.551397 L742.807979 382.881344 L755.342435 402.545769 L747.186311 403.073683 L768.896406 422.144205 L746.467067 423.595970 L747.522896 439.908216 L735.288712 440.700088 L734.232882 424.387842 L711.803544 425.839607 L730.874065 404.129513 L722.717942 404.657427 L732.612825 383.541237 L727.515248 383.871183 Z" fill="#888" fill-opacity="0.18" stroke="#000" stroke-width="1"/>
  <path d="M520.901609 706.987957 L547.381569 709.085015 L545.050734 713.630492 L568.360480 712.953786 L564.631143 720.226549 L592.136393 711.367984 L581.880716 731.368082 L596.426242 738.826756 L590.832237 749.735901 L576.286711 742.277227 L566.031033 762.277325 L557.172469 734.772075 L553.443131 742.044838 L540.389062 722.721446 L538.058227 727.266923 Z" fill="#888" fill-opacity="0.18" stroke="#000" stroke-width="1"/>
  <path d="M423.520944 550.258612 L444.279115 566.832215 L439.801687 569.291239 L459.488124 581.791095 L452.324241 585.725534 L480.070047 593.799147 L460.369367 604.618853 L468.238244 618.946620 L457.492418 624.848279 L449.623541 610.520511 L429.922861 621.340218 L437.996473 593.594412 L430.832589 597.528850 L430.846833 574.209288 L426.369405 576.668312 Z" fill="#888" fill-opacity="0.18" stroke="#000" stroke-width="1"/>
  <path d="M378.398296 294.794842 L351.884600 296.410366 L353.558893 291.584302 L330.571191 295.504473 L333.250059 287.782770 L307.248630 300.389858 L314.615517 279.155173 L299.172111 273.797437 L303.190413 262.214882 L318.633820 267.572618 L326.000708 246.337934 L338.607795 272.339363 L341.286664 264.617660 L356.907478 281.932173 L358.581771 277.106108 Z" fill="#888" fill-opacity="0.18" stroke="#000" stroke-width="1"/>
  <path d="M979.928127 536.449342 L996.174053 515.433732 L998.703013 519.872033 L1010.892506 499.991931 L1014.938842 507.093213 L1022.576207 479.224168 L1033.703630 498.752694 L1047.906194 490.660022 L1053.975698 501.311945 L1039.773134 509.404616 L1050.900558 528.933141 L1023.031513 521.295777 L1027.077849 528.397058 L1003.760933 528.748635 L1006.289893 533.186937 Z" fill="#888" fill-opacity="0.18" stroke="#000" stroke-width="1"/>
  <path d="M327.311850 557.525831 L337.985635 581.849817 L332.878287 581.945461 L344.497026 602.164439 L336.325269 602.317468 L357.137236 622.364289 L334.664903 622.785119 L334.970961 639.128634 L322.713325 639.358178 L322.407266 623.014663 L299.934933 623.435494 L319.981754 602.623527 L311.809997 602.776556 L322.663590 582.136747 L317.556241 582.232390 Z" fill="#888" fill-opacity="0.18" stroke="#000" stroke-width="1"/>
  <path d="M230.192822 813.413020 L215.908678 791.017726 L220.940693 790.138536 L206.353498 771.944693 L214.404723 770.537988 L190.759900 753.926688 L212.900768 750.058250 L210.087359 733.955801 L222.164196 731.845744 L224.977605 747.948194 L247.118473 744.079756 L230.507172 767.724579 L238.558397 766.317875 L231.004724 788.380155 L236.036740 787.500965 Z" fill="#888" fill-opacity="0.18" stroke="#000" stroke-width="1"/>
  <path d="M839.353498 276.471207 L863.629568 265.688888 L863.748022 270.795758 L883.914904 259.086828 L884.104431 267.257821 L904.058096 246.356524 L904.579293 268.826753 L920.921278 268.447701 L921.205567 280.704190 L904.863582 281.083242 L905.384779 303.553471 L884.483483 283.599805 L884.673009 291.770798 L863.984929 281.009499 L864.103383 286.116369 Z" fill="#888" fill-opacity="0.18" stroke="#000" stroke-width="1"/>
  <path d="M853.443458 945.933223 L839.715893 923.192512 L844.768058 922.437672 L830.633933 903.889661 L838.717397 902.681916 L815.489375 885.492618 L837.718901 882.171320 L835.303412 866.004392 L847.428608 864.192775 L849.844097 880.359703 L872.073623 877.038404 L854.884325 900.266426 L862.967789 899.058682 L854.872388 920.927991 L859.924553 920.173150 Z" fill="#888" fill-opacity="0.18" stroke="#000" stroke-width="1"/>
  <path d="M286.437010 1036.484194 L285.937070 1009.926031 L290.688514 1011.801645 L287.737793 988.669515 L295.340105 991.670498 L283.836783 965.162262 L304.743140 973.414965 L310.745106 958.210342 L322.148573 962.711816 L316.146607 977.916439 L337.052964 986.169142 L310.544728 997.672464 L318.147039 1000.673447 L300.191404 1015.552874 L304.942848 1017.428488 Z" fill="#888" fill-opacity="0.18" stroke="#000" stroke-width="1"/>
  <path d="M967.670024 560.890274 L947.825411 578.547490 L946.158790 573.718770 L930.510476 591.008434 L927.843884 583.282483 L915.195487 609.263842 L907.862358 588.017476 L892.410455 593.350660 L888.410567 581.761733 L903.862469 576.428549 L896.529341 555.182183 L922.510700 567.830580 L919.844107 560.104629 L942.825550 564.061331 L941.158930 559.232612 Z" fill="#888" fill-opacity="0.18" stroke="#000" stroke-width="1"/>
  <path d="M513.958537 396.126765 L496.875404 375.785857 L501.749761 374.257853 L484.914160 358.122031 L492.713132 355.677225 L467.103688 342.291811 L488.550860 335.568594 L483.661248 319.970651 L495.359706 316.303442 L500.249318 331.901385 L521.696490 325.178169 L508.311076 350.787613 L516.110048 348.342807 L511.498476 371.201845 L516.372834 369.673842 Z" fill="#888" fill-opacity="0.18" stroke="#000" stroke-width="1"/>
  <path d="M939.388724 595.339154 L961.846495 581.153440 L962.703591 586.189266 L980.961283 571.682064 L982.332637 579.739386 L999.047555 556.167697 L1002.818778 578.325331 L1018.933421 575.582623 L1020.990452 587.668605 L1004.875809 590.411313 L1008.647033 612.568946 L985.075345 595.854028 L986.446699 603.911349 L964.417784 596.260918 L965.274880 601.296743 Z" fill="#888" fill-opacity="0.18" stroke="#000" stroke-width="1"/>
  <path d="M985.271968 512.732461 L958.740998 514.033845 L960.472333 509.227949 L937.439813 512.875580 L940.209949 505.186146 L914.061025 517.484390 L921.678899 496.338448 L906.300033 490.798176 L910.455237 479.264026 L925.834103 484.804298 L933.451977 463.658357 L945.750220 489.807280 L948.520356 482.117846 L963.935003 499.616157 L965.666338 494.810261 Z" fill="#888" fill-opacity="0.18" stroke="#000" stroke-width="1"/>
  <path d="M43.669984 926.177175 L57.551798 903.530295 L60.545193 907.669587 L70.516894 886.589564 L75.306326 893.212432 L79.889916 864.681682 L93.060854 882.894569 L106.306590 873.315706 L113.490738 883.250008 L100.245001 892.828871 L113.415939 911.041758 L84.885189 906.458168 L89.674621 913.081036 L66.531982 915.948172 L69.525377 920.087465 Z" fill="#888" fill-opacity="0.18" stroke="#000" stroke-width="1"/>
  <path d="M628.980422 649.099411 L653.675020 658.885256 L650.111365 662.545108 L672.590813 668.748058 L666.888964 674.603820 L695.782993 674.219037 L680.102907 690.322384 L691.814432 701.726082 L683.261658 710.509726 L671.550134 699.106027 L655.870048 715.209374 L655.485265 686.315345 L649.783416 692.171107 L642.984053 669.864811 L639.420397 673.524662 Z" fill="#888" fill-opacity="0.18" stroke="#000" stroke-width="1"/>
</svg>
