<?xml version="1.0" encoding="UTF-8"?>
<svg xmlns="http://www.w3.org/2000/svg" width="1100" height="1100" viewBox="0 0 1100 1100">
  <rect x="0" y="0" width="1100" height="1100" fill="white"/>
  <text x="10.0" y="18.0" font-family="monospace" font-size="12">prefix=N200_job5048382_task200 run_id=200 L=12.6071744251 feas=0.000e+00 N=200</text>
  <rect x="40.000000" y="40.000000" width="1020.000000" height="1020.000000" fill="none" stroke="#000" stroke-width="2"/>
  <path d="M605.938246 965.166552 L631.686401 959.834013 L630.728556 964.799110 L652.696203 957.707275 L651.163651 965.651430 L674.855418 949.622422 L670.640901 971.468848 L686.529211 974.533952 L684.230384 986.450184 L668.342073 983.385081 L664.127556 1005.231507 L648.098548 981.539741 L646.565996 989.483896 L628.812867 974.729303 L627.855022 979.694400 Z" fill="#888" fill-opacity="0.18" stroke="#000" stroke-width="1"/>
  <path d="M825.569934 919.190431 L837.205740 895.610536 L840.530884 899.420139 L848.453979 877.738438 L853.774209 883.833802 L855.712045 855.294816 L870.342678 872.057069 L882.533407 861.416609 L890.513751 870.559656 L878.323022 881.200115 L892.953655 897.962368 L864.414669 896.024531 L869.734898 902.119896 L847.181171 907.039344 L850.506315 910.848947 Z" fill="#888" fill-opacity="0.18" stroke="#000" stroke-width="1"/>
  <path d="M392.769802 436.410140 L418.954615 434.010344 L417.443867 438.836035 L440.070277 434.262503 L437.653081 441.983609 L462.998835 428.723833 L456.351548 449.956875 L471.793760 454.791266 L468.167967 466.372925 L452.725754 461.538534 L446.078467 482.771576 L432.818690 457.425822 L430.401495 465.146928 L414.422373 448.487418 L412.911626 453.313109 Z" fill="#888" fill-opacity="0.18" stroke="#000" stroke-width="1"/>
  <path d="M779.266737 821.712138 L786.855844 846.887700 L781.825485 846.372780 L790.832598 867.627039 L782.784024 866.803168 L800.845784 888.984281 L778.712204 886.718637 L777.064463 902.815786 L764.991601 901.579980 L766.639342 885.482831 L744.505762 883.217187 L766.686875 865.155427 L758.638300 864.331557 L771.764767 845.342942 L766.734407 844.828023 Z" fill="#888" fill-opacity="0.18" stroke="#000" stroke-width="1"/>
  <path d="M634.839936 623.546029 L640.843623 649.146014 L635.855187 648.318267 L643.518758 670.093052 L635.537261 668.768657 L652.180016 692.033387 L630.230900 688.391301 L627.582110 704.354295 L615.609865 702.367702 L618.258655 686.404709 L596.309538 682.762623 L619.574268 666.119868 L611.592771 664.795473 L625.878316 646.662773 L620.889881 645.835027 Z" fill="#888" fill-opacity="0.18" stroke="#000" stroke-width="1"/>
  <path d="M578.765079 1025.335596 L601.336191 1011.846774 L602.061196 1016.851175 L620.483787 1002.941476 L621.643794 1010.948517 L638.761378 988.030897 L641.951398 1010.050259 L657.965479 1007.730244 L659.705489 1019.740805 L643.691408 1022.060820 L646.881428 1044.080181 L623.963809 1026.962598 L625.123816 1034.969638 L603.511205 1026.859975 L604.236209 1031.864376 Z" fill="#888" fill-opacity="0.18" stroke="#000" stroke-width="1"/>
  <path d="M883.454689 692.404306 L909.508266 695.956011 L906.950746 700.318206 L930.026070 700.951456 L925.934038 707.930968 L953.612898 700.712266 L942.359811 719.905925 L956.318836 728.089989 L950.180788 738.559257 L936.221764 730.375194 L924.968677 749.568852 L917.749975 721.889993 L913.657943 728.869505 L901.835706 709.042596 L899.278186 713.404792 Z" fill="#888" fill-opacity="0.18" stroke="#000" stroke-width="1"/>
  <path d="M542.386380 458.061847 L516.642460 463.414794 L517.596369 458.448939 L495.634351 465.558184 L497.160605 457.612817 L473.481551 473.660600 L477.678750 451.810840 L461.788015 448.758332 L464.077396 436.840280 L479.968131 439.892789 L484.165330 418.043028 L500.213113 441.722082 L501.739367 433.776715 L519.504186 448.517230 L520.458095 443.551376 Z" fill="#888" fill-opacity="0.18" stroke="#000" stroke-width="1"/>
  <path d="M515.768874 332.731219 L538.571263 319.637155 L539.209086 324.653412 L557.870904 311.066355 L558.891421 319.092367 L576.405158 296.476047 L579.211579 318.547578 L595.263602 316.506545 L596.794377 328.545563 L580.742354 330.586596 L583.548774 352.658127 L560.932454 335.144390 L561.952970 343.170401 L540.484731 334.685927 L541.122554 339.702184 Z" fill="#888" fill-opacity="0.18" stroke="#000" stroke-width="1"/>
  <path d="M165.408291 872.724277 L140.119460 865.521606 L143.268517 861.565206 L120.514994 857.673060 L125.553484 851.342820 L97.131660 854.572193 L110.987508 837.164035 L98.327030 827.087054 L105.884765 817.591695 L118.545244 827.668676 L132.401092 810.260517 L135.630465 838.682341 L140.668955 832.352102 L149.566629 853.652407 L152.715686 849.696007 Z" fill="#888" fill-opacity="0.18" stroke="#000" stroke-width="1"/>
  <path d="M931.297338 230.856887 L926.918624 256.784291 L922.639995 254.089297 L921.273002 277.132798 L914.427197 272.820808 L920.761735 300.715298 L901.935769 288.857324 L893.311789 302.548935 L883.043080 296.080950 L891.667061 282.389339 L872.841096 270.531365 L900.735585 264.196827 L893.889780 259.884837 L914.082738 248.699310 L909.804110 246.004316 Z" fill="#888" fill-opacity="0.18" stroke="#000" stroke-width="1"/>
  <path d="M1038.752883 929.017559 L1020.073675 910.511056 L1024.740451 908.564045 L1006.685497 894.180366 L1014.152339 891.065147 L987.697187 880.186089 L1008.231002 871.619238 L1002.000565 856.685554 L1013.200828 852.012726 L1019.431265 866.946410 L1039.965080 858.379558 L1029.086022 884.834710 L1036.552864 881.719491 L1034.074003 904.670021 L1038.740779 902.723010 Z" fill="#888" fill-opacity="0.18" stroke="#000" stroke-width="1"/>
  <path d="M776.045941 116.580047 L762.393930 139.052832 L759.414443 134.967210 L749.626827 155.873529 L744.859647 149.336533 L740.435109 177.596972 L727.325364 159.620235 L714.251373 169.154596 L707.100603 159.349103 L720.174593 149.814742 L707.064848 131.838005 L735.325287 136.262543 L730.558106 129.725547 L753.455467 126.795965 L750.475980 122.710343 Z" fill="#888" fill-opacity="0.18" stroke="#000" stroke-width="1"/>
  <path d="M325.444440 576.127398 L322.975800 549.948986 L327.805447 551.447039 L323.172436 528.832733 L330.899871 531.229618 L317.573495 505.918818 L338.823942 512.510251 L343.617712 497.055380 L355.208865 500.650708 L350.415095 516.105578 L371.665543 522.697012 L346.354742 536.023388 L354.082177 538.420273 L337.464742 554.443145 L342.294389 555.941198 Z" fill="#888" fill-opacity="0.18" stroke="#000" stroke-width="1"/>
  <path d="M197.911920 157.035621 L224.158525 158.622807 L221.935459 163.164572 L244.993266 162.064952 L241.436360 169.331776 L268.495685 160.056978 L258.714195 180.040746 L273.247844 187.154557 L267.912486 198.054794 L253.378837 190.940983 L243.597348 210.924750 L234.322550 183.865426 L230.765644 191.132250 L217.489328 172.248103 L215.266262 176.789868 Z" fill="#888" fill-opacity="0.18" stroke="#000" stroke-width="1"/>
  <path d="M464.606305 579.698709 L465.626526 605.973461 L460.886909 604.211167 L464.264889 627.046684 L456.681501 624.227012 L468.590792 650.234660 L447.736476 642.480564 L442.097134 657.647339 L430.722052 653.417833 L436.361395 638.251057 L415.507078 630.496961 L441.514726 618.587670 L433.931338 615.767999 L451.407674 600.686577 L446.668057 598.924283 Z" fill="#888" fill-opacity="0.18" stroke="#000" stroke-width="1"/>
  <path d="M132.364849 435.013961 L154.078115 420.183669 L155.104700 425.135010 L172.651576 410.135718 L174.294112 418.057864 L189.993134 394.146158 L194.510110 415.932058 L210.354401 412.646984 L212.818206 424.530202 L196.973915 427.815276 L201.490891 449.601176 L177.579186 433.902154 L179.221723 441.824300 L157.157871 435.037692 L158.184457 439.989033 Z" fill="#888" fill-opacity="0.18" stroke="#000" stroke-width="1"/>
  <path d="M350.153602 808.701123 L324.718629 815.369376 L325.416200 810.361078 L303.848351 818.589047 L304.964466 810.575770 L282.140988 827.818676 L285.210303 805.782165 L269.183749 803.549936 L270.857921 791.530021 L286.884474 793.762250 L289.953789 771.725739 L307.196695 794.549217 L308.312809 786.535940 L326.811344 800.344482 L327.508915 795.336184 Z" fill="#888" fill-opacity="0.18" stroke="#000" stroke-width="1"/>
  <path d="M377.101940 761.165253 L402.784608 755.525749 L401.886098 760.501925 L423.767527 753.148377 L422.329910 761.110259 L445.828657 744.799593 L441.875213 766.694770 L457.798978 769.570003 L455.642554 781.512827 L439.718789 778.637594 L435.765344 800.532772 L419.454678 777.034025 L418.017062 784.995907 L400.089078 770.454278 L399.190568 775.430455 Z" fill="#888" fill-opacity="0.18" stroke="#000" stroke-width="1"/>
  <path d="M753.628495 180.211190 L763.239517 155.736065 L766.873339 159.252454 L772.944485 136.981110 L778.758601 142.607332 L778.288867 114.006488 L794.277685 129.478598 L805.530129 117.850367 L814.251303 126.289700 L802.998858 137.917931 L818.987676 153.390042 L790.386832 153.859776 L796.200948 159.485998 L774.140984 166.285232 L777.774806 169.801620 Z" fill="#888" fill-opacity="0.18" stroke="#000" stroke-width="1"/>
  <path d="M815.318775 915.839661 L827.535987 939.123629 L822.499099 939.570178 L835.366450 958.735325 L827.307428 959.449803 L849.241179 977.811163 L827.078868 979.775978 L828.507825 995.894022 L816.419292 996.965740 L814.990335 980.847696 L792.828025 982.812511 L811.189384 960.878760 L803.130362 961.593238 L812.425321 940.463276 L807.388432 940.909825 Z" fill="#888" fill-opacity="0.18" stroke="#000" stroke-width="1"/>
  <path d="M858.146163 348.316987 L867.620190 372.845465 L862.565281 372.713009 L873.156255 393.224051 L865.068400 393.012120 L884.758212 413.761584 L862.516610 413.178775 L862.092749 429.354486 L849.960967 429.036590 L850.384828 412.860880 L828.143226 412.278071 L848.892690 392.588259 L840.804835 392.376329 L852.455462 372.448096 L847.400553 372.315639 Z" fill="#888" fill-opacity="0.18" stroke="#000" stroke-width="1"/>
  <path d="M642.956006 1055.934166 L653.063924 1031.660035 L656.625314 1035.249764 L663.149171 1013.106799 L668.847396 1018.850366 L668.960751 990.245889 L684.630868 1006.040696 L696.118000 994.644247 L704.665337 1003.259597 L693.178204 1014.656046 L708.848321 1030.450853 L680.243845 1030.337498 L685.942069 1036.081064 L663.748095 1042.429222 L667.309485 1046.018951 Z" fill="#888" fill-opacity="0.18" stroke="#000" stroke-width="1"/>
  <path d="M582.851416 848.716433 L565.931823 868.844296 L563.610279 864.352070 L550.748776 883.521143 L547.034305 876.333582 L538.351581 903.588660 L528.136787 883.822869 L513.761666 891.251811 L508.189960 880.470470 L522.565081 873.041529 L512.350286 853.275738 L539.605364 861.958462 L535.890893 854.770902 L558.967191 855.367620 L556.645646 850.875395 Z" fill="#888" fill-opacity="0.18" stroke="#000" stroke-width="1"/>
  <path d="M675.536228 336.206886 L692.526110 316.138320 L694.831929 320.638637 L707.760394 301.514662 L711.449705 308.715169 L720.227695 281.490625 L730.373300 301.292019 L744.774314 293.913397 L750.308280 304.714157 L735.907267 312.092779 L746.052872 331.894173 L718.828327 323.116183 L722.517638 330.316690 L699.443568 329.639270 L701.749387 334.139587 Z" fill="#888" fill-opacity="0.18" stroke="#000" stroke-width="1"/>
  <path d="M957.558191 258.079878 L944.569839 235.217110 L949.588995 234.602519 L936.088485 215.877994 L944.119136 214.894648 L921.584144 197.276388 L943.668433 194.572185 L941.701740 178.510885 L953.747716 177.035865 L955.714408 193.097166 L977.798697 190.392964 L960.180436 212.927955 L968.211087 211.944609 L959.627308 233.373336 L964.646465 232.758745 Z" fill="#888" fill-opacity="0.18" stroke="#000" stroke-width="1"/>
  <path d="M230.156231 599.714950 L204.961248 607.239328 L205.489094 602.210309 L184.211757 611.162768 L185.056310 603.116338 L162.828851 621.121031 L165.151372 598.993347 L149.058511 597.304241 L150.325340 585.234595 L166.418202 586.923702 L168.740723 564.796018 L186.745416 587.023477 L187.589969 578.977046 L206.544785 592.152271 L207.072631 587.123252 Z" fill="#888" fill-opacity="0.18" stroke="#000" stroke-width="1"/>
  <path d="M860.494158 827.449121 L864.927207 801.530951 L869.200177 804.234908 L870.615467 781.194323 L877.452220 785.520653 L871.176163 757.612947 L889.977233 769.510354 L898.629892 755.836849 L908.885021 762.326343 L900.232361 775.999848 L919.033431 787.897256 L891.125725 794.173312 L897.962477 798.499642 L877.746118 809.642820 L882.019088 812.346776 Z" fill="#888" fill-opacity="0.18" stroke="#000" stroke-width="1"/>
  <path d="M230.032542 727.642437 L244.568287 749.553976 L239.603535 750.513610 L254.364523 768.261422 L246.420921 769.796836 L270.118461 785.817307 L248.273555 790.039695 L251.344383 805.926900 L239.428979 808.230021 L236.358151 792.342816 L214.513245 796.565204 L230.533716 772.867664 L222.590114 774.403078 L229.674032 752.432877 L224.709281 753.392511 Z" fill="#888" fill-opacity="0.18" stroke="#000" stroke-width="1"/>
  <path d="M267.368742 286.999996 L290.472436 299.554788 L286.534921 302.727427 L307.888007 311.497680 L301.587984 316.573901 L330.028595 319.633405 L312.703532 333.593014 L322.855975 346.193060 L313.405941 353.807392 L303.253498 341.207346 L285.928434 355.166956 L288.987938 326.726344 L282.687915 331.802566 L278.659893 309.072704 L274.722378 312.245342 Z" fill="#888" fill-opacity="0.18" stroke="#000" stroke-width="1"/>
  <path d="M718.641067 131.441951 L714.099346 105.542603 L719.032789 106.652013 L712.616852 84.477538 L720.510362 86.252593 L705.214226 62.081181 L726.921377 66.962583 L730.471488 51.175564 L742.311753 53.838147 L738.761642 69.625166 L760.468793 74.506568 L736.297381 89.802704 L744.190890 91.577759 L728.899676 108.870832 L733.833120 109.980242 Z" fill="#888" fill-opacity="0.18" stroke="#000" stroke-width="1"/>
  <path d="M705.990131 69.469685 L696.277230 93.904557 L692.658088 90.373061 L686.494213 112.618919 L680.703586 106.968525 L681.054166 135.571077 L665.129943 120.032492 L653.829153 131.613745 L645.143214 123.138153 L656.444003 111.556900 L640.519781 96.018314 L669.122334 95.667735 L663.331707 90.017340 L685.419805 83.310067 L681.800664 79.778570 Z" fill="#888" fill-opacity="0.18" stroke="#000" stroke-width="1"/>
  <path d="M845.454985 203.099351 L844.521151 176.821387 L849.254949 178.599254 L845.952062 155.752755 L853.526138 158.597342 L841.702415 132.550682 L862.531126 140.373297 L868.220300 125.225143 L879.581415 129.492024 L873.892241 144.640178 L894.720952 152.462793 L868.674292 164.286516 L876.248369 167.131104 L858.722545 182.154988 L863.456343 183.932855 Z" fill="#888" fill-opacity="0.18" stroke="#000" stroke-width="1"/>
  <path d="M986.522584 941.103863 L967.416969 923.037902 L972.037082 920.982613 L953.651677 907.023800 L961.043857 903.735336 L934.342249 893.476044 L954.670744 884.432771 L948.093818 869.648411 L959.182088 864.715716 L965.759014 879.500076 L986.087509 870.456803 L975.828217 897.158410 L983.220397 893.869947 L981.277307 916.872034 L985.897419 914.816745 Z" fill="#888" fill-opacity="0.18" stroke="#000" stroke-width="1"/>
  <path d="M1004.851790 560.722227 L990.753127 582.917522 L987.855934 578.773137 L977.652218 599.479555 L973.016709 592.848539 L968.027940 621.014851 L955.280291 602.779556 L942.018259 612.050573 L935.064996 602.104048 L948.327029 592.833032 L935.579381 574.597737 L963.745692 579.586506 L959.110184 572.955490 L982.061549 570.484367 L979.164356 566.339981 Z" fill="#888" fill-opacity="0.18" stroke="#000" stroke-width="1"/>
  <path d="M754.698565 197.000179 L775.763779 181.262955 L776.999291 186.166338 L793.894696 170.436848 L795.871516 178.282260 L810.542999 153.726680 L815.979252 175.301565 L831.670078 171.347927 L834.635307 183.116046 L818.944481 187.069684 L824.380734 208.644569 L799.825154 193.973086 L801.801974 201.818498 L779.470315 195.973104 L780.705827 200.876487 Z" fill="#888" fill-opacity="0.18" stroke="#000" stroke-width="1"/>
  <path d="M883.565383 464.980872 L857.777728 470.118995 L858.773006 465.161266 L836.752479 472.087157 L838.344924 464.154791 L814.532896 480.004595 L818.912119 458.190588 L803.047387 455.005698 L805.436054 443.107148 L821.300787 446.292038 L825.680010 424.478031 L841.529813 448.290059 L843.122258 440.357693 L860.763562 455.245808 L861.758840 450.288079 Z" fill="#888" fill-opacity="0.18" stroke="#000" stroke-width="1"/>
  <path d="M519.471069 613.734902 L497.228221 599.711380 L501.362785 596.800188 L480.621977 586.666556 L487.237279 582.008649 L459.054257 577.115161 L477.246337 564.305917 L467.930524 551.075314 L477.853476 544.088453 L487.169290 557.319057 L505.361370 544.509813 L500.467883 572.692835 L507.083185 568.034928 L509.631912 590.977804 L513.766476 588.066613 Z" fill="#888" fill-opacity="0.18" stroke="#000" stroke-width="1"/>
  <path d="M994.640940 884.245344 L1012.280134 903.745659 L1007.513866 905.434546 L1024.755204 920.784069 L1017.129174 923.486288 L1042.949796 935.795814 L1021.978214 943.226916 L1027.382652 958.478976 L1015.943608 962.532304 L1010.539170 947.280245 L989.567588 954.711347 L1001.877115 928.890726 L994.251085 931.592945 L997.981329 908.812319 L993.215060 910.501206 Z" fill="#888" fill-opacity="0.18" stroke="#000" stroke-width="1"/>
  <path d="M520.574771 781.783723 L534.256648 759.329109 L537.230701 763.418689 L547.046103 742.525401 L551.804588 749.068729 L556.266695 720.814198 L569.352529 738.808349 L582.439184 729.291379 L589.576911 739.106371 L576.490256 748.623340 L589.576089 766.617492 L561.321558 762.155384 L566.080043 768.698712 L543.178807 771.597848 L546.152860 775.687428 Z" fill="#888" fill-opacity="0.18" stroke="#000" stroke-width="1"/>
  <path d="M607.824862 276.145699 L634.020026 273.861659 L632.487965 278.680626 L655.134368 274.207144 L652.683070 281.917491 L678.087182 268.769869 L671.346113 289.973323 L686.766807 294.875920 L683.089860 306.441440 L667.669166 301.538844 L660.928096 322.742299 L647.780473 297.338186 L645.329175 305.048533 L629.423842 288.318560 L627.891781 293.137527 Z" fill="#888" fill-opacity="0.18" stroke="#000" stroke-width="1"/>
  <path d="M724.278169 652.106872 L704.622642 669.572945 L702.975967 664.791929 L687.474587 681.896865 L684.839907 674.247239 L672.302543 699.958004 L665.057173 678.921533 L649.757921 684.190894 L645.805901 672.716455 L661.105152 667.447094 L653.859782 646.410623 L679.570547 658.947987 L676.935866 651.298362 L699.682616 655.229897 L698.035941 650.448880 Z" fill="#888" fill-opacity="0.18" stroke="#000" stroke-width="1"/>
  <path d="M149.379036 1012.901392 L151.027743 986.658579 L155.564284 988.892285 L154.518717 965.831964 L161.777184 969.405894 L152.565842 942.324903 L172.526625 952.153210 L179.674485 937.636276 L190.562185 942.997171 L183.414326 957.514105 L203.375109 967.342412 L176.294118 976.553754 L183.552584 980.127684 L164.637368 993.359697 L169.173910 995.593404 Z" fill="#888" fill-opacity="0.18" stroke="#000" stroke-width="1"/>
  <path d="M924.984924 775.433817 L934.602835 799.906235 L929.547234 799.803466 L940.258480 820.251958 L932.169520 820.087528 L951.980846 840.721003 L929.736205 840.268821 L929.407345 856.446741 L917.273905 856.200097 L917.602765 840.022176 L895.358124 839.569994 L915.991599 819.758668 L907.902639 819.594238 L919.436034 799.597929 L914.380434 799.495160 Z" fill="#888" fill-opacity="0.18" stroke="#000" stroke-width="1"/>
  <path d="M789.560499 1019.147186 L764.954574 1028.418212 L765.128795 1023.364569 L744.530939 1033.785699 L744.809693 1025.699872 L723.898240 1045.217558 L724.664811 1022.981532 L708.493156 1022.424025 L708.911286 1010.295283 L725.082941 1010.852790 L725.849513 988.616763 L745.367199 1009.528216 L745.645952 1001.442388 L765.477236 1013.257284 L765.651457 1008.203642 Z" fill="#888" fill-opacity="0.18" stroke="#000" stroke-width="1"/>
  <path d="M776.513470 331.301799 L758.651203 312.005611 L763.397736 310.262027 L745.981029 295.111782 L753.575481 292.322048 L727.615017 280.310253 L748.499760 272.638484 L742.920292 257.449581 L754.311970 253.264980 L759.891437 268.453884 L780.776180 260.782115 L768.764385 286.742580 L776.358837 283.952846 L772.890800 306.774860 L777.637333 305.031276 Z" fill="#888" fill-opacity="0.18" stroke="#000" stroke-width="1"/>
  <path d="M289.473429 837.482282 L312.308452 850.519351 L308.305198 853.608625 L329.469453 862.825236 L323.064247 867.768075 L351.434358 871.423993 L333.820042 885.016799 L343.705719 897.827211 L334.097910 905.241469 L324.212233 892.431057 L306.597917 906.023863 L310.253835 877.653752 L303.848629 882.596591 L300.298691 859.787173 L296.295437 862.876447 Z" fill="#888" fill-opacity="0.18" stroke="#000" stroke-width="1"/>
  <path d="M586.769497 615.739319 L600.572506 593.358962 L603.524418 597.464552 L613.452572 576.624606 L618.175631 583.193550 L622.790344 554.963542 L635.778756 573.028139 L648.916645 563.582021 L656.001233 573.435437 L642.863345 582.881555 L655.851757 600.946152 L627.621749 596.331439 L632.344808 602.900383 L609.428241 605.675732 L612.380153 609.781323 Z" fill="#888" fill-opacity="0.18" stroke="#000" stroke-width="1"/>
  <path d="M703.516195 871.738950 L683.375844 854.834226 L687.866353 852.509365 L668.687789 839.662020 L675.872605 835.942243 L648.611123 827.279648 L668.369365 817.050260 L660.929811 802.680630 L671.707034 797.100964 L679.146588 811.470594 L698.904831 801.241207 L690.242235 828.502689 L697.427051 824.782911 L696.847373 847.859644 L701.337882 845.534783 Z" fill="#888" fill-opacity="0.18" stroke="#000" stroke-width="1"/>
  <path d="M562.243422 889.277109 L581.477993 907.205710 L576.872726 909.294051 L595.357678 923.120770 L587.989250 926.462116 L614.763683 936.529821 L594.500507 945.718521 L601.183198 960.455376 L590.130556 965.467394 L583.447865 950.730539 L563.184689 959.919239 L573.252395 933.144807 L565.883967 936.486152 L567.662191 913.470733 L563.056924 915.559074 Z" fill="#888" fill-opacity="0.18" stroke="#000" stroke-width="1"/>
  <path d="M601.082495 329.954627 L611.998615 353.876202 L606.944776 354.044628 L618.736924 373.889447 L610.650781 374.158928 L631.539839 393.700581 L609.302948 394.441653 L609.841909 410.613938 L597.712696 411.018159 L597.173734 394.845874 L574.936843 395.586946 L594.478497 374.697889 L586.392355 374.967370 L596.837099 354.381479 L591.783260 354.549904 Z" fill="#888" fill-opacity="0.18" stroke="#000" stroke-width="1"/>
  <path d="M221.989562 444.541730 L248.029560 448.191655 L245.455609 452.544175 L268.528381 453.264436 L264.410059 460.228468 L292.115943 453.114193 L280.790558 472.265281 L294.718622 480.501924 L288.541139 490.947972 L274.613075 482.711329 L263.287690 501.862416 L256.173415 474.156532 L252.055093 481.120564 L240.307706 461.249215 L237.733755 465.601735 Z" fill="#888" fill-opacity="0.18" stroke="#000" stroke-width="1"/>
  <path d="M1051.110906 351.535739 L1027.043291 340.945490 L1030.703366 337.456435 L1008.694981 330.492056 L1014.551101 324.909568 L985.954580 324.225489 L1002.058910 308.873646 L990.893933 297.161407 L999.678113 288.787674 L1010.843090 300.499914 L1026.947419 285.148071 L1026.263340 313.744592 L1032.119460 308.162103 L1038.023516 330.478324 L1041.683591 326.989269 Z" fill="#888" fill-opacity="0.18" stroke="#000" stroke-width="1"/>
  <path d="M642.904275 937.504429 L667.495388 928.194184 L667.329225 933.248098 L687.910438 922.794141 L687.644577 930.880403 L708.524885 911.329400 L707.793767 933.566621 L723.966291 934.098343 L723.567499 946.227736 L707.394975 945.696014 L706.663858 967.933234 L687.112855 947.052927 L686.846994 955.139189 L666.996898 943.355926 L666.830735 948.409839 Z" fill="#888" fill-opacity="0.18" stroke="#000" stroke-width="1"/>
  <path d="M497.852289 1040.289015 L472.035508 1045.278733 L473.059284 1040.326811 L450.999287 1047.125935 L452.637329 1039.202859 L428.734534 1054.915444 L433.239149 1033.126985 L417.392997 1029.850901 L419.850060 1017.966287 L435.696212 1021.242371 L440.200828 999.453912 L455.913413 1023.356707 L457.551455 1015.433631 L475.106837 1030.422966 L476.130613 1025.471043 Z" fill="#888" fill-opacity="0.18" stroke="#000" stroke-width="1"/>
  <path d="M184.035857 488.216724 L158.194229 493.076120 L159.242978 488.129426 L137.148956 494.817159 L138.826953 486.902448 L114.845184 502.494231 L119.459677 480.728777 L103.630256 477.372782 L106.147252 465.500717 L121.976673 468.856712 L126.591166 447.091258 L142.182948 471.073028 L143.860945 463.158318 L161.340475 478.236038 L162.389223 473.289344 Z" fill="#888" fill-opacity="0.18" stroke="#000" stroke-width="1"/>
  <path d="M632.483728 510.071256 L614.428501 529.187014 L612.370617 524.568056 L598.422132 542.961298 L595.129517 535.570967 L584.885224 562.278332 L575.830534 541.954920 L561.049870 548.540148 L556.110949 537.454651 L570.891613 530.869422 L561.836923 510.546009 L588.544289 520.790303 L585.251674 513.399971 L608.254849 515.330141 L606.196965 510.711184 Z" fill="#888" fill-opacity="0.18" stroke="#000" stroke-width="1"/>
  <path d="M573.791213 73.016197 L599.828879 76.682722 L597.252154 81.033600 L620.324462 81.768570 L616.201702 88.729975 L643.912116 81.633364 L632.574524 100.777227 L646.497334 109.022749 L640.313194 119.464856 L626.390383 111.219335 L615.052792 130.363199 L607.956181 102.652785 L603.833420 109.614190 L592.098703 89.735357 L589.521978 94.086235 Z" fill="#888" fill-opacity="0.18" stroke="#000" stroke-width="1"/>
  <path d="M615.474586 645.685356 L600.302009 667.160838 L597.612025 662.879058 L586.402869 683.058910 L582.098895 676.208062 L575.731710 704.095118 L563.895781 685.255285 L550.194085 693.863233 L543.738123 683.586961 L557.439820 674.979013 L545.603891 656.139180 L573.490947 662.506365 L569.186973 655.655517 L592.232058 654.315498 L589.542074 650.033718 Z" fill="#888" fill-opacity="0.18" stroke="#000" stroke-width="1"/>
  <path d="M377.987722 638.204542 L393.395397 659.511982 L388.473390 660.671078 L403.938189 677.809094 L396.062978 679.663647 L420.387389 694.715290 L398.730560 699.815313 L402.439667 715.565735 L390.626851 718.347565 L386.917743 702.597143 L365.260914 707.697166 L380.312556 683.372755 L372.437346 685.227308 L378.629376 662.989270 L373.707369 664.148366 Z" fill="#888" fill-opacity="0.18" stroke="#000" stroke-width="1"/>
  <path d="M876.878384 533.694518 L901.725826 525.091723 L901.415121 530.138813 L922.287032 520.278036 L921.789903 528.353379 L943.221084 509.407840 L941.853981 531.615036 L958.004669 532.609292 L957.258976 544.722308 L941.108288 543.728052 L939.741186 565.935247 L920.795647 544.504067 L920.298519 552.579411 L900.793710 540.232993 L900.483005 545.280082 Z" fill="#888" fill-opacity="0.18" stroke="#000" stroke-width="1"/>
  <path d="M731.847834 588.101249 L751.436319 570.560020 L753.101294 575.334695 L768.537045 558.170512 L771.201005 565.809990 L783.639802 540.051394 L790.965692 561.059960 L806.244649 555.732040 L810.240589 567.191258 L794.961632 572.519178 L802.287522 593.527744 L776.528925 581.088947 L779.192885 588.728426 L756.431244 584.884043 L758.096219 589.658717 Z" fill="#888" fill-opacity="0.18" stroke="#000" stroke-width="1"/>
  <path d="M116.544998 537.373898 L90.905127 531.542904 L93.836655 527.422735 L70.906615 524.760997 L75.597059 518.168725 L47.390269 522.923292 L60.288992 504.794546 L47.104448 495.413657 L54.140115 485.525249 L67.324658 494.906138 L80.223381 476.777391 L84.977949 504.984182 L89.668393 498.391910 L99.699711 519.182395 L102.631239 515.062225 Z" fill="#888" fill-opacity="0.18" stroke="#000" stroke-width="1"/>
  <path d="M573.469070 825.593660 L547.633553 830.485440 L548.676101 825.537435 L526.590478 832.252854 L528.258554 824.336047 L504.296345 839.957874 L508.883555 818.186654 L493.049941 814.850501 L495.552056 802.975290 L511.385670 806.311443 L515.972880 784.540224 L531.594707 808.502433 L533.262784 800.585625 L550.761196 815.641426 L551.803744 810.693422 Z" fill="#888" fill-opacity="0.18" stroke="#000" stroke-width="1"/>
  <path d="M382.710312 747.748379 L400.162052 728.080125 L402.362649 732.632819 L415.732114 713.814504 L419.253069 721.098815 L428.661459 694.085650 L438.344086 714.117505 L452.912708 707.075595 L458.194141 718.002062 L443.625518 725.043972 L453.308144 745.075828 L426.294979 735.667438 L429.815934 742.951749 L406.763842 741.738209 L408.964439 746.290903 Z" fill="#888" fill-opacity="0.18" stroke="#000" stroke-width="1"/>
  <path d="M758.612028 754.933667 L733.262296 747.948357 L736.377272 743.965070 L713.591175 740.268398 L718.575136 733.895138 L690.182083 737.368384 L703.887977 719.841920 L691.141457 709.873997 L698.617399 700.314107 L711.363919 710.282030 L725.069813 692.755565 L728.543059 721.148618 L733.527021 714.775358 L742.607224 735.998495 L745.722200 732.015207 Z" fill="#888" fill-opacity="0.18" stroke="#000" stroke-width="1"/>
  <path d="M426.013259 972.059407 L430.139126 946.090567 L434.443812 948.743741 L435.586202 925.688015 L442.473699 929.933094 L435.867655 902.101653 L454.808272 913.775621 L463.298431 900.000627 L473.629676 906.368246 L465.139517 920.143240 L484.080134 931.817209 L456.248693 938.423253 L463.136190 942.668332 L443.053183 954.050091 L447.357869 956.703265 Z" fill="#888" fill-opacity="0.18" stroke="#000" stroke-width="1"/>
  <path d="M452.016997 767.020839 L462.800083 743.039002 L466.259649 746.726964 L473.400452 724.775187 L478.935757 730.675926 L479.849343 702.085818 L495.071430 718.312850 L506.872908 707.242241 L515.175865 716.093349 L503.374387 727.163958 L518.596474 743.390990 L490.006366 742.477404 L495.541670 748.378143 L473.178779 754.102888 L476.638344 757.790850 Z" fill="#888" fill-opacity="0.18" stroke="#000" stroke-width="1"/>
  <path d="M163.382899 411.617817 L168.510801 385.828128 L172.709569 388.645928 L174.743478 365.651694 L181.461508 370.160174 L175.937633 342.093899 L194.412215 354.492219 L203.429175 341.056159 L213.506219 347.818879 L204.489260 361.254939 L222.963842 373.653258 L194.897568 379.177133 L201.615597 383.685613 L181.107107 394.281528 L185.305875 397.099328 Z" fill="#888" fill-opacity="0.18" stroke="#000" stroke-width="1"/>
  <path d="M826.529908 687.535886 L849.317145 700.656302 L845.302630 703.730928 L866.433068 713.024807 L860.009846 717.944209 L888.366409 721.703760 L870.702547 735.232117 L880.541352 748.078563 L870.906518 755.457667 L861.067712 742.611221 L843.403849 756.139579 L847.163400 727.783015 L840.740177 732.702418 L837.273602 709.880182 L833.259087 712.954808 Z" fill="#888" fill-opacity="0.18" stroke="#000" stroke-width="1"/>
  <path d="M1037.634065 190.030618 L1021.792503 169.043756 L1026.689695 167.783927 L1010.876559 150.966784 L1018.712065 148.951058 L994.083984 134.401607 L1015.631627 128.858360 L1011.600175 113.187347 L1023.353435 110.163758 L1027.384887 125.834771 L1048.932530 120.291525 L1034.383078 144.919606 L1042.218585 142.903880 L1036.484078 165.264270 L1041.381270 164.004441 Z" fill="#888" fill-opacity="0.18" stroke="#000" stroke-width="1"/>
  <path d="M598.630470 594.545374 L573.554358 602.456887 L574.004689 597.420335 L552.867752 606.699424 L553.588283 598.640940 L531.640749 616.985823 L533.622207 594.824994 L517.505241 593.383934 L518.586036 581.296209 L534.703003 582.737269 L536.684461 560.576441 L555.029343 582.523974 L555.749873 574.465491 L574.905352 587.347231 L575.355684 582.310679 Z" fill="#888" fill-opacity="0.18" stroke="#000" stroke-width="1"/>
  <path d="M326.275612 152.710443 L340.593271 130.655781 L343.449301 134.828640 L353.857468 114.224231 L358.427116 120.900804 L363.694428 92.785250 L376.260961 111.145826 L389.614107 102.006529 L396.468580 112.021389 L383.115433 121.160686 L395.681967 139.521262 L367.566413 134.253950 L372.136061 140.930523 L349.161362 143.174356 L352.017392 147.347214 Z" fill="#888" fill-opacity="0.18" stroke="#000" stroke-width="1"/>
  <path d="M762.364929 107.052144 L775.941104 84.533464 L778.934347 88.609019 L788.651429 67.669823 L793.440620 74.190711 L797.769863 45.915517 L810.940136 63.847957 L823.981910 54.269577 L831.165696 64.050908 L818.123921 73.629288 L831.294194 91.561729 L803.019000 87.232486 L807.808190 93.753373 L784.920835 96.760128 L787.914079 100.835683 Z" fill="#888" fill-opacity="0.18" stroke="#000" stroke-width="1"/>
  <path d="M556.960164 495.841420 L553.611114 521.921821 L549.229168 519.398291 L548.775331 542.477841 L541.764217 538.440194 L549.197883 566.062097 L529.917320 554.958567 L521.842025 568.980795 L511.325355 562.924323 L519.400649 548.902096 L500.120086 537.798565 L527.741989 530.364899 L520.730875 526.327252 L540.465276 514.351232 L536.083329 511.827702 Z" fill="#888" fill-opacity="0.18" stroke="#000" stroke-width="1"/>
  <path d="M347.232818 127.187349 L335.705516 103.554221 L340.753357 103.255966 L328.455089 83.720762 L336.531635 83.243555 L315.147253 64.245208 L337.357754 62.932889 L336.403340 46.779798 L348.518158 46.063988 L349.472572 62.217079 L371.683072 60.904760 L352.684726 82.289141 L360.761271 81.811934 L350.849038 102.659458 L355.896879 102.361203 Z" fill="#888" fill-opacity="0.18" stroke="#000" stroke-width="1"/>
  <path d="M340.598535 473.690366 L342.298218 447.450805 L346.830412 449.693320 L345.829644 426.631012 L353.081155 430.219036 L343.922438 403.120201 L363.864091 412.987266 L371.040139 398.484245 L381.917404 403.866281 L374.741357 418.369301 L394.683010 428.236367 L367.584175 437.395083 L374.835685 440.983107 L355.894800 454.178350 L360.426994 456.420865 Z" fill="#888" fill-opacity="0.18" stroke="#000" stroke-width="1"/>
  <path d="M249.840441 378.270998 L275.338419 384.694128 L272.312273 388.745312 L295.174532 391.937288 L290.332699 398.419184 L318.642020 394.319027 L305.326980 412.144240 L318.290771 421.827906 L311.028022 431.550749 L298.064231 421.867083 L284.749190 439.692296 L280.649034 411.382975 L275.807201 417.864870 L266.259982 396.847682 L263.233837 400.898866 Z" fill="#888" fill-opacity="0.18" stroke="#000" stroke-width="1"/>
  <path d="M977.549412 552.862340 L996.304497 534.432738 L998.188814 539.125179 L1012.813083 521.264542 L1015.827989 528.772448 L1027.060488 502.465416 L1035.351481 523.112158 L1050.367293 517.082345 L1054.889653 528.344204 L1039.873841 534.374017 L1048.164833 555.020759 L1021.857802 543.788260 L1024.872709 551.296166 L1001.957447 548.510061 L1003.841763 553.202503 Z" fill="#888" fill-opacity="0.18" stroke="#000" stroke-width="1"/>
  <path d="M786.692887 536.568812 L761.541900 528.898655 L764.763747 525.001302 L742.086273 520.688093 L747.241227 514.452329 L718.764430 517.154355 L732.940554 500.006002 L720.469024 489.696094 L728.201455 480.342446 L740.672985 490.652355 L754.849109 473.504002 L757.551135 501.980799 L762.706090 495.745034 L771.207439 517.206596 L774.429286 513.309243 Z" fill="#888" fill-opacity="0.18" stroke="#000" stroke-width="1"/>
  <path d="M510.591292 776.074887 L493.432878 795.999553 L491.165068 791.479962 L478.075888 810.494298 L474.447393 803.262954 L465.440270 830.412552 L455.461909 810.526355 L440.999221 817.783345 L435.556478 806.936329 L450.019167 799.679339 L440.040806 779.793142 L467.190403 788.800265 L463.561909 781.568921 L486.629450 782.440782 L484.361640 777.921192 Z" fill="#888" fill-opacity="0.18" stroke="#000" stroke-width="1"/>
  <path d="M718.574464 402.858568 L740.568284 417.269514 L736.383366 420.107844 L756.943505 430.603189 L750.247637 435.144517 L778.340628 440.530868 L759.926989 453.019520 L769.009645 466.411257 L758.965842 473.223249 L749.883187 459.831512 L731.469548 472.320164 L736.855900 444.227173 L730.160031 448.768501 L728.013530 425.784503 L723.828613 428.622833 Z" fill="#888" fill-opacity="0.18" stroke="#000" stroke-width="1"/>
  <path d="M1057.034200 71.925125 L1034.407176 85.319945 L1033.702993 80.312572 L1015.222703 94.145521 L1014.096012 86.133725 L996.883250 108.979944 L993.784848 86.947504 L977.761255 89.200887 L976.071218 77.183193 L992.094811 74.929810 L988.996409 52.897370 L1011.842629 70.110132 L1010.715937 62.098335 L1032.294629 70.297827 L1031.590447 65.290454 Z" fill="#888" fill-opacity="0.18" stroke="#000" stroke-width="1"/>
  <path d="M43.331876 867.027663 L67.231486 877.991790 L63.517469 881.423368 L85.414620 888.729965 L79.472193 894.220490 L108.054575 895.350246 L91.712899 910.449191 L102.693949 922.334046 L93.780308 930.569834 L82.799257 918.684979 L66.457581 933.783923 L67.587337 905.201541 L61.644909 910.692066 L56.089434 888.286525 L52.375417 891.718103 Z" fill="#888" fill-opacity="0.18" stroke="#000" stroke-width="1"/>
  <path d="M345.433038 296.876885 L367.080064 281.950074 L368.128682 286.896795 L385.608608 271.819534 L387.286397 279.734289 L402.878809 255.752929 L407.492731 277.518503 L423.322239 274.162924 L425.838924 286.035056 L410.009415 289.390635 L414.623336 311.156210 L390.641976 295.563797 L392.319766 303.478552 L370.225919 296.790238 L371.274538 301.736960 Z" fill="#888" fill-opacity="0.18" stroke="#000" stroke-width="1"/>
  <path d="M285.782179 959.778105 L308.570548 946.659656 L309.213737 951.675228 L327.861010 938.068216 L328.890112 946.093131 L346.379646 923.458089 L349.209675 945.526606 L365.259506 943.468402 L366.803158 955.505775 L350.753328 957.563978 L353.583357 979.632495 L330.948315 962.142961 L331.977416 970.167877 L310.500114 961.706372 L311.143302 966.721944 Z" fill="#888" fill-opacity="0.18" stroke="#000" stroke-width="1"/>
  <path d="M729.537476 760.464515 L705.764130 771.699793 L705.528085 766.648661 L685.842854 778.705329 L685.465183 770.623518 L666.204831 791.772224 L665.166236 769.547242 L649.002613 770.302585 L648.436106 758.179867 L664.599729 757.424525 L663.561134 735.199543 L684.709841 754.459894 L684.332170 746.378083 L705.055996 756.546396 L704.819952 751.495264 Z" fill="#888" fill-opacity="0.18" stroke="#000" stroke-width="1"/>
  <path d="M216.761936 450.606252 L215.015945 476.842771 L210.487716 474.592261 L211.447779 497.656300 L204.202612 494.055483 L213.313488 521.170440 L193.389280 511.268195 L186.187647 525.758528 L175.319898 520.357304 L182.521530 505.866971 L162.597323 495.964726 L189.712279 486.853851 L182.467113 483.253035 L201.431258 470.091241 L196.903029 467.840731 Z" fill="#888" fill-opacity="0.18" stroke="#000" stroke-width="1"/>
  <path d="M692.373989 574.773389 L672.105278 558.022783 L676.577924 555.663737 L657.301920 542.963056 L664.458153 539.188583 L637.131388 530.734185 L656.811027 520.354383 L649.262080 506.041918 L659.996429 500.380208 L667.545376 514.692673 L687.225016 504.312871 L678.770618 531.639636 L685.926850 527.865163 L685.523214 550.945645 L689.995860 548.586599 Z" fill="#888" fill-opacity="0.18" stroke="#000" stroke-width="1"/>
  <path d="M947.940549 159.523523 L937.444343 135.414747 L942.500354 135.334708 L931.056976 115.286748 L939.146594 115.158687 L918.602396 95.254796 L940.848845 94.902627 L940.592722 78.723392 L952.727149 78.531300 L952.983271 94.710535 L975.229720 94.358366 L955.325829 114.902564 L963.415447 114.774503 L952.612376 135.174631 L957.668387 135.094593 Z" fill="#888" fill-opacity="0.18" stroke="#000" stroke-width="1"/>
  <path d="M722.572261 436.651932 L697.306070 429.370241 L700.467479 425.423705 L677.726235 421.460449 L682.784489 415.145991 L654.352709 418.286499 L668.262908 400.921740 L655.633993 390.805232 L663.221374 381.333545 L675.850290 391.450054 L689.760490 374.085295 L692.900998 402.517075 L697.959252 396.202617 L706.790297 417.530633 L709.951706 413.584097 Z" fill="#888" fill-opacity="0.18" stroke="#000" stroke-width="1"/>
  <path d="M86.938764 659.045588 L113.229155 658.577847 L111.367630 663.279376 L134.269103 660.382109 L131.290663 667.904557 L157.542880 656.544536 L149.352172 677.231267 L164.397067 683.188145 L159.929408 694.471816 L144.884513 688.514938 L136.693805 709.201668 L125.333785 682.949451 L122.355345 690.471899 L107.644581 672.682435 L105.783057 677.383965 Z" fill="#888" fill-opacity="0.18" stroke="#000" stroke-width="1"/>
  <path d="M592.003456 828.641245 L598.889828 803.264458 L602.885236 806.363872 L606.492995 783.563528 L612.885648 788.522591 L609.301672 760.143301 L626.881468 773.780724 L636.799593 760.995418 L646.388572 768.434012 L636.470447 781.219318 L654.050243 794.856740 L625.670954 798.440716 L632.063607 803.399778 L610.876052 812.562700 L614.871461 815.662114 Z" fill="#888" fill-opacity="0.18" stroke="#000" stroke-width="1"/>
  <path d="M430.513457 970.511037 L456.239599 965.073290 L455.302058 970.042261 L477.240531 962.860687 L475.740466 970.811041 L499.366512 954.685320 L495.241334 976.548792 L511.142041 979.548922 L508.891943 991.474452 L492.991236 988.474322 L488.866058 1010.337794 L472.740336 986.711748 L471.240272 994.662101 L453.426977 979.980203 L452.489437 984.949174 Z" fill="#888" fill-opacity="0.18" stroke="#000" stroke-width="1"/>
  <path d="M97.364731 217.693633 L94.992523 243.880960 L90.519344 241.522926 L90.928200 264.603316 L83.771114 260.830461 L92.231691 288.155314 L72.549705 277.779963 L65.003995 292.094135 L54.268366 286.434852 L61.814076 272.120680 L42.132089 261.745329 L69.456942 253.284751 L62.299856 249.511896 L81.572987 236.806857 L77.099808 234.448823 Z" fill="#888" fill-opacity="0.18" stroke="#000" stroke-width="1"/>
  <path d="M416.858777 678.162607 L440.073237 665.813831 L440.548282 670.848113 L459.640308 657.872516 L460.400380 665.927366 L478.637326 643.890063 L480.727522 666.040900 L496.837222 664.520758 L497.977329 676.603033 L481.867629 678.123175 L483.957825 700.274012 L461.920522 682.037066 L462.680593 690.091916 L441.498371 680.916675 L441.973415 685.950956 Z" fill="#888" fill-opacity="0.18" stroke="#000" stroke-width="1"/>
  <path d="M162.496296 394.731252 L147.920721 372.846187 L152.883719 371.877525 L138.090474 354.156590 L146.031270 352.606731 L122.304630 336.629389 L144.141820 332.367274 L141.042101 316.485681 L152.953295 314.160892 L156.053015 330.042485 L177.890205 325.780370 L161.912864 349.507011 L169.853660 347.957151 L162.809714 369.940200 L167.772712 368.971537 Z" fill="#888" fill-opacity="0.18" stroke="#000" stroke-width="1"/>
  <path d="M218.854793 984.948007 L242.552490 973.554036 L242.822301 978.603477 L262.426483 966.415465 L262.858179 974.494571 L281.976703 953.217565 L283.163868 975.435107 L299.322080 974.571714 L299.969625 986.690373 L283.811413 987.553766 L284.998578 1009.771307 L263.721572 990.652783 L264.153269 998.731889 L243.361921 988.702359 L243.631731 993.751801 Z" fill="#888" fill-opacity="0.18" stroke="#000" stroke-width="1"/>
  <path d="M345.128711 632.115485 L351.514191 606.608053 L355.569839 609.628215 L358.728061 586.761269 L365.217097 591.593527 L361.075153 563.290290 L378.920002 576.579001 L388.584520 563.600929 L398.318074 570.849316 L388.653557 583.827389 L406.498407 597.116100 L378.195169 601.258044 L384.684206 606.090303 L363.681134 615.668538 L367.736782 618.688700 Z" fill="#888" fill-opacity="0.18" stroke="#000" stroke-width="1"/>
  <path d="M127.536336 593.503066 L125.102907 567.321357 L129.930535 568.825904 L125.327942 546.205389 L133.052147 548.612664 L119.759824 523.283963 L141.001387 529.903971 L145.815938 514.455562 L157.402245 518.066475 L152.587694 533.514884 L173.829257 540.134892 L148.500556 553.427215 L156.224761 555.834491 L139.585791 571.834999 L144.413419 573.339546 Z" fill="#888" fill-opacity="0.18" stroke="#000" stroke-width="1"/>
  <path d="M405.824884 520.561958 L430.956084 512.827218 L430.470299 517.860474 L451.672051 508.730454 L450.894794 516.783664 L472.970962 498.593783 L470.833504 520.740109 L486.939923 522.294624 L485.774038 534.374438 L469.667618 532.819924 L467.530161 554.966250 L449.340280 532.890083 L448.563022 540.943293 L429.498727 527.926986 L429.012941 532.960242 Z" fill="#888" fill-opacity="0.18" stroke="#000" stroke-width="1"/>
  <path d="M107.222542 356.543531 L103.445124 330.521722 L108.343775 331.775864 L102.583313 309.422147 L110.421154 311.428775 L95.843120 286.817601 L117.397185 292.335828 L121.410440 276.660145 L133.167203 279.670087 L129.153947 295.345770 L150.708011 300.863997 L126.096837 315.442031 L133.934679 317.448659 L118.141077 334.284149 L123.039728 335.538292 Z" fill="#888" fill-opacity="0.18" stroke="#000" stroke-width="1"/>
  <path d="M619.485013 917.585801 L609.914590 893.094773 L614.969981 893.207348 L604.298419 872.738118 L612.387045 872.918238 L592.615779 852.246373 L614.859501 852.741703 L615.219740 836.564450 L627.352679 836.834630 L626.992440 853.011882 L649.236162 853.507211 L628.564297 873.278477 L636.652924 873.458597 L625.080764 893.432497 L630.136155 893.545072 Z" fill="#888" fill-opacity="0.18" stroke="#000" stroke-width="1"/>
  <path d="M773.925013 731.542889 L789.128464 752.996525 L784.195611 754.108556 L799.496009 771.393503 L791.603444 773.172751 L815.782978 788.456044 L794.078423 793.348977 L797.636920 809.134108 L785.798072 811.802981 L782.239575 796.017850 L760.535020 800.910782 L775.818313 776.731248 L767.925747 778.510496 L774.329904 756.332616 L769.397051 757.444646 Z" fill="#888" fill-opacity="0.18" stroke="#000" stroke-width="1"/>
  <path d="M581.228178 288.379437 L559.163078 302.681005 L558.256373 297.706315 L540.352366 312.277456 L538.901637 304.317952 L522.629701 327.843535 L518.640195 305.954899 L502.721188 308.856358 L500.545094 296.917102 L516.464101 294.015644 L512.474596 272.127009 L536.000178 288.398945 L534.549449 280.439441 L556.442961 287.756935 L555.536255 282.782246 Z" fill="#888" fill-opacity="0.18" stroke="#000" stroke-width="1"/>
  <path d="M513.500110 892.277579 L487.602584 887.725481 L490.326146 883.464981 L467.292308 881.943833 L471.650007 875.127032 L443.713757 881.274785 L455.697430 862.528583 L442.063829 853.813185 L448.600378 843.587984 L462.233980 852.303383 L474.217653 833.557181 L480.365406 861.493431 L484.723105 854.676630 L495.773270 874.943980 L498.496832 870.683479 Z" fill="#888" fill-opacity="0.18" stroke="#000" stroke-width="1"/>
  <path d="M1034.860937 1027.534330 L1015.643781 1009.587063 L1020.251073 1007.503194 L1001.779554 993.658536 L1009.151223 990.324345 L982.386577 980.230651 L1002.658664 971.061628 L995.990284 956.318291 L1007.047786 951.317006 L1013.716166 966.060342 L1033.988254 956.891319 L1023.894559 983.655965 L1031.266227 980.321775 L1029.465659 1003.335457 L1034.072951 1001.251588 Z" fill="#888" fill-opacity="0.18" stroke="#000" stroke-width="1"/>
  <path d="M611.293209 494.487417 L585.470361 489.529199 L588.260492 485.311993 L565.253381 483.429320 L569.717591 476.681792 L541.688244 482.390089 L553.964822 463.834385 L540.469764 454.905965 L547.166079 444.784672 L560.661137 453.713092 L572.937714 435.157387 L578.646011 463.186734 L583.110221 456.439205 L593.840754 476.877582 L596.630885 472.660377 Z" fill="#888" fill-opacity="0.18" stroke="#000" stroke-width="1"/>
  <path d="M334.770459 583.720032 L338.837655 609.698126 L333.925330 608.498657 L339.934566 630.786786 L332.074848 628.867635 L346.926267 653.314808 L325.312041 648.037143 L321.473739 663.756580 L309.684161 660.877854 L313.522463 645.158417 L291.908237 639.880752 L316.355411 625.029333 L308.495692 623.110182 L324.100682 606.099718 L319.188358 604.900249 Z" fill="#888" fill-opacity="0.18" stroke="#000" stroke-width="1"/>
  <path d="M695.647769 250.353629 L670.250517 257.164141 L670.920046 252.152017 L649.398588 260.500576 L650.469833 252.481178 L627.743224 269.851560 L630.689149 247.798215 L614.650352 245.655725 L616.257220 233.626627 L632.296016 235.769118 L635.241941 213.715773 L652.612323 236.442381 L653.683569 228.422983 L672.259102 242.127769 L672.928630 237.115645 Z" fill="#888" fill-opacity="0.18" stroke="#000" stroke-width="1"/>
  <path d="M381.547855 260.665710 L394.051316 237.534196 L397.232689 241.464656 L405.955507 220.092150 L411.045705 226.380886 L414.042050 197.933551 L428.040095 215.227575 L440.617567 205.047179 L448.252863 214.480283 L435.675392 224.660679 L449.673436 241.954703 L421.226101 238.958357 L426.316299 245.247093 L403.595437 249.325576 L406.776811 253.256036 Z" fill="#888" fill-opacity="0.18" stroke="#000" stroke-width="1"/>
  <path d="M213.520542 723.401398 L227.201799 700.946406 L230.175965 705.035903 L239.990790 684.142344 L244.749455 690.685540 L249.210782 662.430886 L262.297112 680.424675 L275.383504 670.907344 L282.521503 680.722138 L269.435111 690.239469 L282.521441 708.233259 L254.266787 703.771933 L259.025452 710.315129 L236.124297 713.214898 L239.098463 717.304396 Z" fill="#888" fill-opacity="0.18" stroke="#000" stroke-width="1"/>
  <path d="M917.415092 597.356403 L926.067088 622.186755 L921.019393 621.886048 L930.921495 642.738386 L922.845182 642.257254 L941.833135 663.650865 L919.623275 662.327753 L918.661013 678.480379 L906.546543 677.758682 L907.508806 661.606056 L885.298946 660.282945 L906.692556 641.294992 L898.616244 640.813860 L910.924002 621.284634 L905.876307 620.983927 Z" fill="#888" fill-opacity="0.18" stroke="#000" stroke-width="1"/>
  <path d="M952.212058 471.195516 L972.000091 453.879709 L973.610291 458.673133 L989.241546 441.686801 L991.817866 449.356279 L1004.550760 423.741784 L1011.635640 444.832848 L1026.974596 439.680208 L1030.839076 451.184425 L1015.500120 456.337065 L1022.585000 477.428129 L996.970506 464.695234 L999.546826 472.364712 L976.830691 468.259980 L978.440891 473.053404 Z" fill="#888" fill-opacity="0.18" stroke="#000" stroke-width="1"/>
  <path d="M878.619993 387.835450 L892.793706 365.688005 L895.676853 369.842173 L905.950602 349.170413 L910.563638 355.817082 L915.647721 327.667819 L928.333570 345.946160 L941.626909 336.720088 L948.546463 346.690092 L935.253124 355.916164 L947.938974 374.194504 L919.789710 369.110421 L924.402746 375.757090 L901.443148 378.150510 L904.326296 382.304678 Z" fill="#888" fill-opacity="0.18" stroke="#000" stroke-width="1"/>
  <path d="M314.403388 131.106740 L295.050335 113.306099 L299.641651 111.187261 L281.065405 97.483441 L288.411510 94.093301 L261.570896 84.203389 L281.772686 74.880503 L274.992405 60.188292 L286.011563 55.103081 L292.791843 69.795292 L312.993633 60.472406 L303.103721 87.313020 L310.449826 83.922880 L308.824282 106.949586 L313.415598 104.830748 Z" fill="#888" fill-opacity="0.18" stroke="#000" stroke-width="1"/>
  <path d="M1029.635638 695.808714 L1016.807538 672.855646 L1021.830871 672.276181 L1008.461677 653.457673 L1016.499010 652.530528 L994.087817 634.755058 L1016.190482 632.205410 L1014.336192 616.130745 L1026.392192 614.740028 L1028.246481 630.814693 L1050.349146 628.265045 L1032.573675 650.676239 L1040.611008 649.749094 L1031.877537 671.117250 L1036.900870 670.537784 Z" fill="#888" fill-opacity="0.18" stroke="#000" stroke-width="1"/>
  <path d="M177.066928 810.074750 L168.667117 785.157956 L173.711504 785.509823 L164.021322 764.558166 L172.092341 765.121154 L153.322261 743.536135 L175.517566 745.084351 L176.643541 728.942312 L188.750071 729.786793 L187.624095 745.928833 L209.819400 747.477049 L188.234381 766.247129 L196.305400 766.810117 L183.800279 786.213558 L188.844666 786.565425 Z" fill="#888" fill-opacity="0.18" stroke="#000" stroke-width="1"/>
  <path d="M82.409557 1017.814779 L107.534024 1010.058191 L107.052614 1015.091868 L128.246421 1005.943417 L127.476166 1013.997300 L149.536510 995.788231 L147.418308 1017.936408 L163.526073 1019.476918 L162.370690 1031.557742 L146.262925 1030.017231 L144.144724 1052.165408 L125.935656 1030.105064 L125.165401 1038.158947 L106.089795 1025.159221 L105.608386 1030.192897 Z" fill="#888" fill-opacity="0.18" stroke="#000" stroke-width="1"/>
  <path d="M819.699278 341.554908 L805.240896 319.592243 L810.209001 318.650124 L795.510693 300.850366 L803.459661 299.342976 L779.818765 283.239033 L801.678426 279.093709 L798.663645 263.195773 L810.587097 260.934687 L813.601878 276.832623 L835.461539 272.687298 L819.357597 296.328194 L827.306564 294.820804 L820.145210 316.765885 L825.113315 315.823766 Z" fill="#888" fill-opacity="0.18" stroke="#000" stroke-width="1"/>
  <path d="M777.653808 252.656809 L751.403579 251.130712 L753.616069 246.583785 L730.560885 247.737065 L734.100868 240.461982 L707.063202 249.799730 L716.798157 229.793252 L702.247991 222.713285 L707.557967 211.800661 L722.108132 218.880628 L731.843087 198.874150 L741.180835 225.911816 L744.720819 218.636733 L758.041049 237.489931 L760.253539 232.943005 Z" fill="#888" fill-opacity="0.18" stroke="#000" stroke-width="1"/>
  <path d="M65.510317 43.136534 L91.755878 44.740892 L89.529841 49.281202 L112.588362 48.196669 L109.026703 55.461165 L136.092090 46.204074 L126.297527 66.181437 L140.826519 73.304756 L135.484030 84.201499 L120.955038 77.078180 L111.160475 97.055544 L101.903384 69.990156 L98.341725 77.254652 L85.077767 58.361822 L82.851730 62.902131 Z" fill="#888" fill-opacity="0.18" stroke="#000" stroke-width="1"/>
  <path d="M288.397951 889.821585 L264.638177 878.557635 L268.395074 875.173056 L246.591584 867.591539 L252.602620 862.176213 L224.036714 860.686938 L240.567063 845.794791 L229.736410 833.772718 L238.752965 825.649729 L249.583617 837.671801 L266.113967 822.779654 L264.624692 851.345560 L270.635728 845.930234 L275.908869 868.403898 L279.665767 865.019319 Z" fill="#888" fill-opacity="0.18" stroke="#000" stroke-width="1"/>
  <path d="M250.454137 1037.612224 L224.278873 1035.110426 L226.659019 1030.648974 L203.576887 1030.943584 L207.385121 1023.805260 L180.018726 1032.130485 L190.491370 1012.500094 L176.214722 1004.883626 L181.927073 994.176140 L196.203721 1001.792608 L206.676365 982.162217 L215.001589 1009.528612 L218.809823 1002.390288 L231.419311 1021.726069 L233.799458 1017.264616 Z" fill="#888" fill-opacity="0.18" stroke="#000" stroke-width="1"/>
  <path d="M706.999353 545.489420 L713.726642 570.908842 L708.716738 570.222900 L716.994761 591.771588 L708.978915 590.674082 L726.274765 613.457463 L704.231188 610.439321 L702.036175 626.471014 L690.012405 624.824755 L692.207418 608.793062 L670.163840 605.774919 L692.947222 588.479069 L684.931376 587.381563 L698.696930 568.851018 L693.687026 568.165076 Z" fill="#888" fill-opacity="0.18" stroke="#000" stroke-width="1"/>
  <path d="M272.379423 155.432933 L295.624866 167.723290 L291.723808 170.940650 L313.175574 179.466688 L306.933882 184.614464 L335.407552 187.349254 L318.242899 201.505638 L328.538450 213.989022 L319.175912 221.710685 L308.880361 209.227301 L291.715708 223.383685 L294.450498 194.910015 L288.208806 200.057791 L283.921693 177.375369 L280.020636 180.592729 Z" fill="#888" fill-opacity="0.18" stroke="#000" stroke-width="1"/>
  <path d="M833.948336 500.295722 L854.799145 484.275510 L856.100750 489.161764 L872.782235 473.205585 L874.864803 481.023592 L889.203399 456.272155 L894.930462 477.771673 L910.566475 473.606537 L913.690327 485.333547 L898.054314 489.498683 L903.781376 510.998200 L879.029940 496.659604 L881.112508 504.477611 L858.703960 498.934272 L860.005565 503.820526 Z" fill="#888" fill-opacity="0.18" stroke="#000" stroke-width="1"/>
  <path d="M819.206379 747.962753 L835.771840 768.383060 L830.921678 769.813296 L847.312982 786.067426 L839.552722 788.355805 L864.674319 802.035509 L843.333603 808.328550 L847.910361 823.849070 L836.269970 827.281638 L831.693213 811.761118 L810.352498 818.054159 L824.032202 792.932562 L816.271941 795.220941 L821.221353 772.673770 L816.371190 774.104006 Z" fill="#888" fill-opacity="0.18" stroke="#000" stroke-width="1"/>
  <path d="M466.061699 210.620885 L441.863359 200.332843 L445.479457 196.798229 L423.385588 190.109988 L429.171345 184.454607 L400.568500 184.128670 L416.479330 168.576371 L405.168567 157.004858 L413.847202 148.521786 L425.157964 160.093298 L441.068794 144.540999 L440.742857 173.143844 L446.528613 167.488462 L452.711652 189.729002 L456.327750 186.194389 Z" fill="#888" fill-opacity="0.18" stroke="#000" stroke-width="1"/>
  <path d="M606.934203 198.631663 L603.197827 224.659397 L598.853878 222.071006 L598.057004 245.141260 L591.106686 240.999835 L598.128920 268.729191 L579.015545 257.340274 L570.732696 271.240909 L560.307220 265.028773 L568.590069 251.128137 L549.476695 239.739220 L577.206051 232.716986 L570.255733 228.575562 L590.165981 216.894226 L585.822032 214.305836 Z" fill="#888" fill-opacity="0.18" stroke="#000" stroke-width="1"/>
  <path d="M60.870094 180.763278 L82.925767 166.447177 L83.835750 171.421269 L101.730153 156.838336 L103.186126 164.796883 L119.442560 141.260586 L123.446485 163.146588 L139.363577 160.234643 L141.547536 172.172462 L125.630444 175.084407 L129.634368 196.970409 L106.098071 180.713975 L107.554044 188.672521 L85.655716 181.369452 L86.565698 186.343543 Z" fill="#888" fill-opacity="0.18" stroke="#000" stroke-width="1"/>
  <path d="M320.480879 146.967641 L294.254183 145.079818 L296.529144 140.563823 L273.460251 141.399168 L277.100189 134.173577 L249.936367 143.137712 L259.946195 123.267335 L245.495012 115.987461 L250.954918 105.149074 L265.406101 112.428948 L275.415929 92.558572 L284.380063 119.722394 L288.020001 112.496803 L301.079065 131.531834 L303.354026 127.015840 Z" fill="#888" fill-opacity="0.18" stroke="#000" stroke-width="1"/>
  <path d="M835.291293 543.026637 L815.134096 526.142004 L819.622285 523.812667 L800.430919 510.984452 L807.612022 507.257513 L780.341916 498.622106 L800.089948 488.373021 L792.636069 474.010816 L803.407722 468.420406 L810.861602 482.782612 L830.609634 472.533527 L821.974227 499.803633 L829.155330 496.076693 L828.598663 519.153992 L833.086852 516.824655 Z" fill="#888" fill-opacity="0.18" stroke="#000" stroke-width="1"/>
  <path d="M384.244893 333.585094 L371.877370 356.789572 L368.672989 352.877846 L360.075722 374.301165 L354.948714 368.042404 L352.119332 396.506829 L338.020058 379.295235 L325.502535 389.549253 L317.812021 380.161110 L330.329544 369.907093 L316.230270 352.695499 L344.694696 355.524881 L339.567687 349.266119 L362.264228 345.054394 L359.059848 341.142668 Z" fill="#888" fill-opacity="0.18" stroke="#000" stroke-width="1"/>
  <path d="M752.554495 904.510110 L767.621682 926.059665 L762.681880 927.140411 L777.872430 944.521976 L769.968747 946.251170 L794.050940 961.687391 L772.315813 966.442676 L775.774202 982.250041 L763.918678 984.843833 L760.460289 969.036468 L738.725161 973.791753 L754.161382 949.709559 L746.257699 951.438754 L752.802276 929.301904 L747.862475 930.382651 Z" fill="#888" fill-opacity="0.18" stroke="#000" stroke-width="1"/>
  <path d="M342.179324 814.069140 L366.036524 803.013036 L366.234561 808.065801 L386.009941 796.157572 L386.326800 804.241997 L405.745715 783.238791 L406.617075 805.470958 L422.785923 804.837241 L423.261210 816.963878 L407.092362 817.597594 L407.963721 839.829761 L386.960516 820.410845 L387.277374 828.495269 L366.630633 818.171331 L366.828669 823.224096 Z" fill="#888" fill-opacity="0.18" stroke="#000" stroke-width="1"/>
  <path d="M532.645349 218.099528 L517.902864 239.872507 L515.128259 235.645070 L504.322645 256.043852 L499.883276 249.279954 L494.071952 277.288121 L481.863688 258.687401 L468.335892 267.566138 L461.676839 257.420290 L475.204635 248.541553 L462.996372 229.940833 L491.004539 235.752157 L486.565171 228.988259 L509.579048 227.190197 L506.804443 222.962761 Z" fill="#888" fill-opacity="0.18" stroke="#000" stroke-width="1"/>
  <path d="M534.322107 107.802625 L509.055906 100.520966 L512.217310 96.574426 L489.476061 92.611197 L494.534308 86.296733 L466.102531 89.437277 L480.012709 72.072501 L467.383781 61.956008 L474.971151 52.484312 L487.600079 62.600805 L501.510257 45.236029 L504.650801 73.667805 L509.709047 67.353341 L518.540118 88.681345 L521.701523 84.734805 Z" fill="#888" fill-opacity="0.18" stroke="#000" stroke-width="1"/>
  <path d="M482.334762 346.782168 L457.790332 337.349542 L461.280179 333.690222 L438.965237 327.781337 L444.548992 321.926426 L415.952324 322.604317 L431.307651 306.503309 L419.597828 295.335799 L427.973461 286.553431 L439.683284 297.720942 L455.038611 281.619934 L455.716502 310.216602 L461.300258 304.361690 L468.259874 326.371582 L471.749721 322.712262 Z" fill="#888" fill-opacity="0.18" stroke="#000" stroke-width="1"/>
  <path d="M119.084959 607.950244 L93.262235 602.991377 L96.052472 598.774241 L73.045408 596.890991 L77.509788 590.143574 L49.480298 595.851167 L61.757341 577.295771 L48.262508 568.367013 L54.959077 558.245888 L68.453910 567.174646 L80.730953 548.619251 L86.438546 576.648741 L90.902926 569.901324 L101.632946 590.339970 L104.423183 586.122835 Z" fill="#888" fill-opacity="0.18" stroke="#000" stroke-width="1"/>
  <path d="M69.541767 417.007993 L78.112667 392.149531 L81.891469 395.509636 L87.018524 373.002195 L93.064608 378.378363 L91.389819 349.822733 L108.016549 364.607195 L118.768886 352.515028 L127.838012 360.579280 L117.085675 372.671448 L133.712406 387.455910 L105.156776 389.130699 L111.202860 394.506868 L89.449074 402.229846 L93.227876 405.589951 Z" fill="#888" fill-opacity="0.18" stroke="#000" stroke-width="1"/>
  <path d="M463.222130 482.281117 L488.548206 475.210518 L487.930111 480.229245 L509.364824 471.660426 L508.375873 479.690388 L530.923157 462.087861 L528.203540 484.170257 L544.263464 486.148160 L542.780037 498.193103 L526.720113 496.215200 L524.000496 518.297595 L506.397970 495.750312 L505.409019 503.780274 L486.693922 490.266697 L486.075827 495.285423 Z" fill="#888" fill-opacity="0.18" stroke="#000" stroke-width="1"/>
  <path d="M368.858457 793.779668 L344.921066 782.898273 L348.623192 779.453869 L326.700899 772.223055 L332.624300 766.712008 L304.038181 765.681122 L320.327534 750.525744 L309.305441 738.678941 L318.190543 730.412372 L329.212636 742.259174 L345.501989 727.103796 L344.471103 755.689915 L350.394504 750.178869 L356.027444 772.565060 L359.729569 769.120656 Z" fill="#888" fill-opacity="0.18" stroke="#000" stroke-width="1"/>
  <path d="M889.382205 131.479790 L883.638376 105.820253 L888.618163 106.698533 L881.175753 84.847168 L889.143412 86.252417 L872.737385 62.820148 L894.648447 66.684581 L897.458944 50.749263 L909.410433 52.857136 L906.599936 68.792454 L928.510999 72.656887 L905.078730 89.062914 L913.046389 90.468162 L898.577737 108.455093 L903.557524 109.333374 Z" fill="#888" fill-opacity="0.18" stroke="#000" stroke-width="1"/>
  <path d="M557.862681 368.132324 L552.373794 393.847602 L548.214934 390.971226 L545.858920 413.934693 L539.204745 409.332491 L544.334678 437.473434 L526.035696 424.817379 L516.831292 438.125730 L506.850028 431.222427 L516.054433 417.914076 L497.755450 405.258020 L525.896394 400.128086 L519.242218 395.525884 L539.897215 385.218474 L535.738355 382.342097 Z" fill="#888" fill-opacity="0.18" stroke="#000" stroke-width="1"/>
  <path d="M718.620134 895.404349 L694.758654 906.451214 L694.562575 901.398373 L674.782584 913.298942 L674.468857 905.214396 L655.041809 926.210080 L654.179059 903.977578 L638.009966 904.605032 L637.539375 892.478213 L653.708468 891.850758 L652.845718 869.618255 L673.841402 889.045303 L673.527675 880.960757 L694.170416 891.292690 L693.974336 886.239848 Z" fill="#888" fill-opacity="0.18" stroke="#000" stroke-width="1"/>
  <path d="M323.164344 557.265467 L300.454919 544.010827 L304.487505 540.959941 L283.412272 531.541546 L289.864410 526.660129 L261.530522 522.733329 L279.273900 509.309431 L269.511065 496.405156 L279.189271 489.083029 L288.952106 501.987304 L306.695484 488.563406 L302.768684 516.897293 L309.220822 512.015876 L312.552677 534.858169 L316.585263 531.807283 Z" fill="#888" fill-opacity="0.18" stroke="#000" stroke-width="1"/>
  <path d="M574.766149 970.295790 L569.221999 995.999211 L565.069331 993.113902 L562.663962 1016.072251 L556.019694 1011.455756 L561.089126 1039.607662 L542.817390 1026.912301 L533.584400 1040.200835 L523.617999 1033.276093 L532.850989 1019.987558 L514.579254 1007.292197 L542.731160 1002.222766 L536.086892 997.606271 L556.763997 987.343283 L552.611330 984.457974 Z" fill="#888" fill-opacity="0.18" stroke="#000" stroke-width="1"/>
  <path d="M89.537004 109.903081 L115.103689 103.759134 L114.303304 108.752033 L136.035747 100.969198 L134.755130 108.957836 L157.928266 92.187783 L154.406570 114.156537 L170.383846 116.717771 L168.462921 128.700728 L152.485645 126.139494 L148.963949 148.108248 L132.193896 124.935111 L130.913279 132.923749 L112.702533 118.737830 L111.902147 123.730729 Z" fill="#888" fill-opacity="0.18" stroke="#000" stroke-width="1"/>
  <path d="M927.308594 316.723542 L904.109454 329.101076 L903.628171 324.067387 L884.552239 337.066633 L883.782186 329.012731 L865.572563 351.072616 L863.454919 328.924386 L847.347115 330.464491 L846.192037 318.383638 L862.299840 316.843533 L860.182197 294.695304 L882.242082 312.904927 L881.472030 304.851026 L902.665606 314.000010 L902.184323 308.966321 Z" fill="#888" fill-opacity="0.18" stroke="#000" stroke-width="1"/>
  <path d="M477.878853 618.629728 L504.167062 618.052247 L502.325180 622.761506 L525.214359 619.768666 L522.267346 627.303481 L548.471914 615.833975 L540.367630 636.554715 L555.437260 642.448740 L551.016741 653.750962 L535.947112 647.856938 L527.842828 668.577678 L516.373322 642.373111 L513.426309 649.907925 L498.641414 632.180024 L496.799532 636.889284 Z" fill="#888" fill-opacity="0.18" stroke="#000" stroke-width="1"/>
  <path d="M244.763638 237.927039 L218.885256 233.267342 L221.626502 229.018198 L198.599185 227.401327 L202.985180 220.602697 L175.023619 226.634284 L187.085105 207.938053 L173.487846 199.166063 L180.066838 188.968119 L193.664097 197.740108 L205.725583 179.043877 L211.757170 207.005438 L216.143165 200.206808 L227.108996 220.519911 L229.850243 216.270768 Z" fill="#888" fill-opacity="0.18" stroke="#000" stroke-width="1"/>
  <path d="M655.487248 721.188636 L630.659815 729.849007 L630.958820 724.801211 L610.109823 734.710345 L610.588230 726.633870 L589.201026 745.629038 L590.516646 723.418733 L574.363697 722.461919 L575.081308 710.347207 L591.234257 711.304021 L592.549877 689.093716 L611.545045 710.480921 L612.023452 702.404447 L631.556829 714.705617 L631.855833 709.657821 Z" fill="#888" fill-opacity="0.18" stroke="#000" stroke-width="1"/>
  <path d="M51.424080 942.389032 L69.406978 961.572849 L64.671471 963.346158 L82.182823 978.386908 L74.606011 981.224202 L100.641276 993.072996 L79.805044 1000.875555 L85.479632 1016.029179 L74.114415 1020.285120 L68.439826 1005.131497 L47.603594 1012.934056 L59.452387 986.898791 L51.875576 989.736085 L55.200456 966.892776 L50.464949 968.666085 Z" fill="#888" fill-opacity="0.18" stroke="#000" stroke-width="1"/>
  <path d="M809.402383 560.150730 L832.012785 573.573590 L827.957661 576.594456 L848.962395 586.169045 L842.474198 591.002430 L870.778154 595.139460 L852.935611 608.431269 L862.602381 621.407664 L852.870085 628.657741 L843.203315 615.681347 L825.360773 628.973155 L829.497803 600.669200 L823.009606 605.502585 L819.847415 582.636187 L815.792291 585.657053 Z" fill="#888" fill-opacity="0.18" stroke="#000" stroke-width="1"/>
  <path d="M52.225992 453.932200 L69.475089 434.085989 L71.722265 438.615874 L84.898019 419.661426 L88.493499 426.909242 L97.624338 399.801001 L107.511909 419.732495 L122.007541 412.541534 L127.400762 423.413258 L112.905130 430.604219 L122.792701 450.535713 L95.684460 441.404874 L99.279940 448.652690 L76.216615 447.675644 L78.463790 452.205529 Z" fill="#888" fill-opacity="0.18" stroke="#000" stroke-width="1"/>
  <path d="M434.599381 611.594763 L416.495585 592.524996 L421.219789 590.721790 L403.613718 575.792027 L411.172444 572.906897 L385.062805 561.222904 L405.849303 553.288799 L400.079045 538.171346 L411.417134 533.843653 L417.187393 548.961105 L437.973890 541.027000 L426.289897 567.136639 L433.848623 564.251510 L430.668197 587.115379 L435.392401 585.312173 Z" fill="#888" fill-opacity="0.18" stroke="#000" stroke-width="1"/>
  <path d="M158.699014 84.419332 L184.722519 88.185053 L182.129233 92.526080 L205.198573 93.348966 L201.049314 100.294610 L228.786570 93.303647 L217.376109 112.404167 L231.267397 120.702684 L225.043509 131.121150 L211.152221 122.822633 L199.741760 141.923154 L192.750797 114.185898 L188.601539 121.131541 L176.942659 101.208135 L174.349373 105.549162 Z" fill="#888" fill-opacity="0.18" stroke="#000" stroke-width="1"/>
  <path d="M433.520838 488.234473 L407.588270 492.582499 L408.734520 487.657485 L386.512713 493.907515 L388.346713 486.027492 L364.061655 501.142548 L369.105157 479.472485 L353.345112 475.804484 L356.096112 463.984450 L371.856158 467.652452 L376.899659 445.982389 L392.014714 470.267447 L393.848715 462.387424 L411.027021 477.807457 L412.173271 472.882443 Z" fill="#888" fill-opacity="0.18" stroke="#000" stroke-width="1"/>
  <path d="M440.284100 996.689519 L424.282219 1017.554399 L421.761965 1013.170568 L409.771199 1032.896012 L405.738793 1025.881883 L398.284484 1053.498222 L387.195367 1034.209366 L373.167108 1042.274178 L367.118499 1031.752983 L381.146758 1023.688171 L370.057641 1004.399314 L397.673981 1011.853623 L393.641574 1004.839493 L416.721457 1004.402906 L414.201203 1000.019075 Z" fill="#888" fill-opacity="0.18" stroke="#000" stroke-width="1"/>
  <path d="M391.362557 338.978481 L414.543056 351.390892 L410.625135 354.587696 L432.031775 363.226409 L425.763102 368.341295 L454.221999 371.225762 L436.983149 385.291698 L447.212921 397.829044 L437.809912 405.501372 L427.580140 392.964027 L410.341290 407.029963 L413.225757 378.571067 L406.957084 383.685953 L402.789294 360.981303 L398.871374 364.178107 Z" fill="#888" fill-opacity="0.18" stroke="#000" stroke-width="1"/>
  <path d="M921.509883 140.852126 L923.571285 167.065750 L918.765508 165.492802 L923.046424 188.176394 L915.357181 185.659677 L928.288495 211.174576 L907.143078 204.253604 L902.109644 219.632089 L890.575780 215.857013 L895.609214 200.478528 L874.463797 193.557556 L899.978696 180.626243 L892.289454 178.109526 L909.153955 162.346906 L904.348179 160.773957 Z" fill="#888" fill-opacity="0.18" stroke="#000" stroke-width="1"/>
  <path d="M767.189603 696.495393 L792.505700 703.601637 L789.371744 707.570009 L812.139934 711.375413 L807.125605 717.724808 L835.534916 714.387143 L821.745511 731.847979 L834.444301 741.876638 L826.922808 751.400730 L814.224017 741.372072 L800.434612 758.832909 L797.096947 730.423598 L792.082618 736.772994 L783.103833 715.506753 L779.969877 719.475125 Z" fill="#888" fill-opacity="0.18" stroke="#000" stroke-width="1"/>
  <path d="M855.580456 248.410101 L829.811807 253.642710 L830.788907 248.681366 L808.793913 255.687924 L810.357273 247.749774 L786.603500 263.686750 L790.902738 241.856838 L775.026439 238.730119 L777.371478 226.822895 L793.247777 229.949613 L797.547016 208.119701 L813.483992 231.873474 L815.047351 223.935325 L832.743106 238.758679 L833.720206 233.797335 Z" fill="#888" fill-opacity="0.18" stroke="#000" stroke-width="1"/>
  <path d="M966.813043 731.537837 L967.053730 705.244387 L971.703404 707.231894 L969.424150 684.260682 L976.863629 687.440694 L966.214962 660.891968 L986.673528 669.637000 L993.033551 654.758043 L1004.192769 659.528061 L997.832745 674.407018 L1018.291311 683.152050 L991.742586 693.800717 L999.182064 696.980729 L981.002752 711.206909 L985.652426 713.194416 Z" fill="#888" fill-opacity="0.18" stroke="#000" stroke-width="1"/>
  <path d="M232.089292 264.002314 L252.808638 247.812436 L254.150085 252.687902 L270.700768 236.596089 L272.847083 244.396835 L286.983162 219.529181 L292.885528 240.981234 L308.487021 236.688605 L311.706494 248.389724 L296.105000 252.682354 L302.007367 274.134407 L277.139713 259.998328 L279.286028 267.799075 L256.832978 262.438836 L258.174425 267.314302 Z" fill="#888" fill-opacity="0.18" stroke="#000" stroke-width="1"/>
  <path d="M786.960631 437.359366 L782.000731 411.536841 L786.951468 412.566335 L780.177825 390.498500 L788.099004 392.145691 L772.414035 368.224766 L794.197277 372.754541 L797.491659 356.912184 L809.373428 359.382970 L806.079045 375.225328 L827.862287 379.755104 L803.941362 395.440073 L811.862541 397.087265 L796.852942 414.625324 L801.803679 415.654819 Z" fill="#888" fill-opacity="0.18" stroke="#000" stroke-width="1"/>
  <path d="M607.470793 202.528581 L628.117613 186.246311 L629.480825 191.115737 L645.959461 174.950152 L648.140600 182.741233 L662.165455 157.810682 L668.163588 179.236155 L683.745751 174.873877 L687.017459 186.560499 L671.435297 190.922777 L677.433430 212.348251 L652.502879 198.323396 L654.684018 206.114477 L632.207249 200.854588 L633.570461 205.724014 Z" fill="#888" fill-opacity="0.18" stroke="#000" stroke-width="1"/>
  <path d="M264.598748 296.900922 L270.852122 322.441062 L265.855842 321.662065 L273.731670 343.360980 L265.737621 342.114585 L282.606754 365.215695 L260.623120 361.788107 L258.130329 377.776204 L246.139256 375.906611 L248.632047 359.918514 L226.648414 356.490926 L249.749524 339.621794 L241.755476 338.375398 L255.863281 320.104070 L250.867001 319.325073 Z" fill="#888" fill-opacity="0.18" stroke="#000" stroke-width="1"/>
  <path d="M401.645025 984.094085 L393.801739 958.996549 L398.837048 959.460576 L389.615478 938.298481 L397.671972 939.040925 L379.386847 917.043581 L401.542205 919.085302 L403.027093 902.972314 L415.111833 904.085980 L413.626946 920.198967 L435.782304 922.240688 L413.784960 940.525813 L421.841453 941.268257 L408.907665 960.388631 L413.942974 960.852658 Z" fill="#888" fill-opacity="0.18" stroke="#000" stroke-width="1"/>
  <path d="M904.511171 428.270677 L925.803053 412.841509 L926.967115 417.762344 L944.089517 402.280259 L945.952017 410.153595 L960.979107 385.814008 L966.100980 407.465680 L981.847651 403.740681 L984.641400 415.550685 L968.894729 419.275683 L974.016602 440.927356 L949.677015 425.900266 L951.539515 433.773601 L929.295239 427.604013 L930.459302 432.524848 Z" fill="#888" fill-opacity="0.18" stroke="#000" stroke-width="1"/>
  <path d="M877.573821 613.446868 L881.817911 639.396650 L876.897529 638.230676 L883.058473 660.477346 L875.185862 658.611788 L890.203495 682.957212 L868.553814 677.826927 L864.822697 693.572149 L853.013781 690.773812 L856.744897 675.028589 L835.095216 669.898304 L859.440640 654.880672 L851.568029 653.015114 L867.056765 635.898728 L862.136383 634.732754 Z" fill="#888" fill-opacity="0.18" stroke="#000" stroke-width="1"/>
  <path d="M943.665681 468.182978 L968.184120 477.682959 L964.684239 481.332683 L986.982874 487.302814 L981.383064 493.142372 L1009.981485 492.542999 L994.582009 508.601786 L1006.261127 519.801405 L997.861412 528.560743 L986.182295 517.361124 L970.782818 533.419911 L970.183445 504.821490 L964.583635 510.661049 L957.684477 488.632131 L954.184596 492.281856 Z" fill="#888" fill-opacity="0.18" stroke="#000" stroke-width="1"/>
  <path d="M284.530938 687.713944 L309.074392 678.278782 L308.933929 683.333475 L329.461721 672.775003 L329.236980 680.862512 L350.017607 661.205593 L349.399568 683.446243 L365.574586 683.895726 L365.237474 696.026990 L349.062456 695.577507 L348.444417 717.818157 L328.787497 697.037531 L328.562756 705.125040 L308.653002 693.442861 L308.512539 698.497555 Z" fill="#888" fill-opacity="0.18" stroke="#000" stroke-width="1"/>
  <path d="M186.298427 345.246948 L180.585881 319.580428 L185.564593 320.464777 L178.148824 298.604357 L186.114765 300.019317 L169.737313 276.567067 L191.643649 280.458206 L194.473568 264.526326 L206.422479 266.648765 L203.592559 282.580646 L225.498895 286.471785 L202.046645 302.849236 L210.012585 304.264196 L195.522018 322.233477 L200.500731 323.117827 Z" fill="#888" fill-opacity="0.18" stroke="#000" stroke-width="1"/>
  <path d="M249.465613 493.466855 L252.718162 519.559466 L247.845765 518.206915 L253.154835 540.672118 L245.358998 538.508036 L259.438384 563.407832 L237.999834 557.456607 L233.671670 573.048279 L221.977916 569.802156 L226.306080 554.210484 L204.867530 548.259258 L229.767326 534.179872 L221.971489 532.015790 L238.100969 515.501812 L233.228572 514.149261 Z" fill="#888" fill-opacity="0.18" stroke="#000" stroke-width="1"/>
  <path d="M375.122833 826.026039 L388.594382 848.607466 L383.589428 849.328641 L397.485028 867.761869 L389.477102 868.915750 L412.381618 886.050863 L390.359822 889.224035 L392.667584 905.239886 L380.655695 906.970707 L378.347934 890.954856 L356.326138 894.128027 L373.461251 871.223511 L365.453325 872.377392 L373.579521 850.770992 L368.574568 851.492167 Z" fill="#888" fill-opacity="0.18" stroke="#000" stroke-width="1"/>
  <path d="M601.815065 479.487365 L587.816338 457.228903 L592.802953 456.390258 L578.477820 438.288818 L586.456404 436.946986 L563.155363 420.355106 L585.096469 416.665068 L582.412805 400.707900 L594.380680 398.695152 L597.064345 414.652319 L619.005451 410.962281 L602.413572 434.263321 L610.392155 432.921489 L602.776183 454.712968 L607.762798 453.874323 Z" fill="#888" fill-opacity="0.18" stroke="#000" stroke-width="1"/>
  <path d="M488.307548 409.953336 L490.569056 383.756217 L495.052160 386.095325 L494.545761 363.016868 L501.718729 366.759441 L493.142741 339.470590 L512.868402 349.762664 L520.353547 335.416729 L531.112998 341.030588 L523.627853 355.376523 L543.353515 365.668597 L516.064664 374.244586 L523.237632 377.987158 L504.018370 390.773540 L508.501475 393.112648 Z" fill="#888" fill-opacity="0.18" stroke="#000" stroke-width="1"/>
  <path d="M633.912440 308.108889 L657.046936 320.606831 L653.117235 323.789142 L674.491822 332.506862 L668.204300 337.598560 L696.652349 340.588119 L679.361665 354.590288 L689.545061 367.165331 L680.113778 374.802878 L669.930382 362.227835 L652.639698 376.230004 L655.629257 347.781955 L649.341736 352.873653 L645.257833 330.153765 L641.328132 333.336076 Z" fill="#888" fill-opacity="0.18" stroke="#000" stroke-width="1"/>
  <path d="M496.380111 107.774497 L503.715207 133.025236 L498.690291 132.459666 L507.482827 153.803586 L499.442961 152.898674 L517.280346 175.260619 L495.170714 172.772111 L493.360889 188.851844 L481.301090 187.494475 L483.110914 171.414743 L461.001282 168.926234 L483.363228 151.088849 L475.323362 150.183937 L488.640458 131.328526 L483.615542 130.762956 Z" fill="#888" fill-opacity="0.18" stroke="#000" stroke-width="1"/>
  <path d="M858.990304 1004.210538 L852.147284 978.822026 L857.160261 979.485137 L848.784157 957.974385 L856.804921 959.035363 L839.405458 936.331010 L861.462557 939.248700 L863.584513 923.207174 L875.615658 924.798641 L873.493701 940.840167 L895.550800 943.757857 L872.846447 961.157319 L880.867210 962.218298 L867.186215 980.811360 L872.199192 981.474472 Z" fill="#888" fill-opacity="0.18" stroke="#000" stroke-width="1"/>
  <path d="M123.634268 726.345834 L135.734771 749.690668 L130.695710 750.111997 L143.466961 769.341317 L135.404464 770.015444 L157.246025 788.486370 L135.074156 790.340219 L136.422410 806.465215 L124.328664 807.476405 L122.980410 791.351410 L100.808542 793.205259 L119.279468 771.363697 L111.216971 772.037824 L120.617588 750.954656 L115.578527 751.375985 Z" fill="#888" fill-opacity="0.18" stroke="#000" stroke-width="1"/>
  <path d="M543.336029 87.141695 L556.261585 110.040024 L551.240760 110.640838 L564.689830 129.402345 L556.656511 130.363647 L579.143064 148.043688 L557.051437 150.687270 L558.974041 166.753908 L546.924063 168.195861 L545.001458 152.129223 L522.909831 154.772805 L540.589873 132.286252 L532.556554 133.247554 L541.199112 111.842466 L536.178287 112.443280 Z" fill="#888" fill-opacity="0.18" stroke="#000" stroke-width="1"/>
  <path d="M94.449371 259.143870 L115.626074 243.556994 L116.826651 248.469047 L133.833596 232.860222 L135.754519 240.719507 L150.600425 216.268986 L155.882963 237.882021 L171.601534 234.040175 L174.482919 245.829103 L158.764348 249.670949 L164.046886 271.283984 L139.596365 256.438078 L141.517288 264.297364 L119.227805 258.293154 L120.428382 263.205207 Z" fill="#888" fill-opacity="0.18" stroke="#000" stroke-width="1"/>
  <path d="M769.877233 436.177948 L747.657903 422.117194 L751.797337 419.212931 L731.073530 409.044575 L737.696624 404.397754 L709.521837 399.457073 L727.735345 386.678315 L718.441703 373.432128 L728.376343 366.461896 L737.669985 379.708084 L755.883493 366.929326 L750.942811 395.104112 L757.565905 390.457291 L760.076204 413.404404 L764.215637 410.500141 Z" fill="#888" fill-opacity="0.18" stroke="#000" stroke-width="1"/>
  <path d="M1059.662088 441.887502 L1034.304169 434.931972 L1037.414464 430.945029 L1014.624041 427.275123 L1019.600513 420.896014 L991.211559 424.402607 L1004.896858 406.860056 L992.138639 396.907111 L999.603347 387.338447 L1012.361566 397.291391 L1026.046865 379.748840 L1029.553458 408.137795 L1034.529930 401.758685 L1043.635055 422.971142 L1046.745350 418.984198 Z" fill="#888" fill-opacity="0.18" stroke="#000" stroke-width="1"/>
  <path d="M957.095391 328.149933 L952.486050 302.262534 L957.422374 303.359057 L950.948550 281.201412 L958.846668 282.955848 L943.487461 258.824464 L965.207286 263.649161 L968.716157 247.852925 L980.563334 250.484578 L977.054464 266.280814 L998.774289 271.105512 L974.642904 286.464719 L982.541023 288.219154 L967.295021 305.552101 L972.231345 306.648623 Z" fill="#888" fill-opacity="0.18" stroke="#000" stroke-width="1"/>
  <path d="M1007.455624 277.439151 L994.379326 254.626570 L999.396078 253.992655 L985.823561 235.320259 L993.850365 234.305994 L971.247693 216.774646 L993.321404 213.985418 L991.292875 197.931810 L1003.333081 196.410413 L1005.361610 212.464021 L1027.435321 209.674793 L1009.903973 232.277465 L1017.930777 231.263200 L1009.429583 252.724824 L1014.446335 252.090909 Z" fill="#888" fill-opacity="0.18" stroke="#000" stroke-width="1"/>
  <path d="M1051.875437 744.899580 L1026.280294 750.923873 L1027.104024 745.934773 L1005.335415 753.615870 L1006.653385 745.633310 L983.402060 762.294788 L987.026476 740.342747 L971.061355 737.706808 L973.038308 725.732968 L989.003429 728.368906 L992.627845 706.416865 L1009.289323 729.668189 L1010.607292 721.685628 L1028.751486 735.956572 L1029.575217 730.967472 Z" fill="#888" fill-opacity="0.18" stroke="#000" stroke-width="1"/>
  <path d="M231.295492 796.995503 L227.145463 822.960493 L222.843248 820.303314 L221.679405 843.357968 L214.795861 839.106481 L221.376005 866.944057 L202.446259 855.252470 L193.943286 869.019558 L183.617970 862.642328 L192.120943 848.875240 L173.191197 837.183652 L201.028773 830.603508 L194.145229 826.352022 L214.238818 814.988956 L209.936603 812.331777 Z" fill="#888" fill-opacity="0.18" stroke="#000" stroke-width="1"/>
  <path d="M61.619630 65.076490 L77.124982 86.312956 L72.208350 87.494641 L87.751681 104.561465 L79.885069 106.452160 L104.278338 121.391951 L82.645155 126.591364 L86.426547 142.324588 L74.626629 145.160632 L70.845237 129.427408 L49.212054 134.626821 L64.151845 110.233552 L56.285233 112.124248 L62.375085 89.858011 L57.458452 91.039696 Z" fill="#888" fill-opacity="0.18" stroke="#000" stroke-width="1"/>
  <path d="M185.311132 920.557131 L211.017920 926.085644 L208.135138 930.240066 L231.094946 932.631469 L226.482494 939.278543 L254.631310 934.191988 L241.947067 952.471443 L255.241216 961.696347 L248.322537 971.666959 L235.028388 962.442054 L222.344145 980.721509 L217.257589 952.572692 L212.645137 959.219767 L202.369573 938.548909 L199.486790 942.703330 Z" fill="#888" fill-opacity="0.18" stroke="#000" stroke-width="1"/>
  <path d="M819.888419 675.106530 L793.858271 678.826050 L795.123308 673.930202 L772.756831 679.640921 L774.780890 671.807563 L750.137347 686.330810 L755.703510 664.789075 L740.036794 660.740957 L743.072883 648.990919 L758.739599 653.039038 L764.305762 631.497303 L778.829009 656.140847 L780.853068 648.307488 L797.653382 664.138504 L798.918419 659.242655 Z" fill="#888" fill-opacity="0.18" stroke="#000" stroke-width="1"/>
  <path d="M303.576360 255.803812 L324.685983 240.126208 L325.907627 245.033065 L342.847436 229.351405 L344.802066 237.202375 L359.542916 212.688373 L364.918150 234.278542 L380.620090 230.369281 L383.552036 242.145737 L367.850095 246.054997 L373.225328 267.645166 L348.711327 252.904316 L350.665957 260.755286 L328.350915 254.846778 L329.572558 259.753634 Z" fill="#888" fill-opacity="0.18" stroke="#000" stroke-width="1"/>
  <path d="M1032.537326 773.217063 L1020.843365 796.768172 L1017.527633 792.950375 L1009.551055 814.612457 L1004.245884 808.503982 L1002.237624 837.038099 L987.648403 820.239792 L975.431452 830.850135 L967.473695 821.687422 L979.690645 811.077079 L965.101424 794.278772 L993.635541 796.287031 L988.330369 790.178556 L1010.896168 785.314780 L1007.580436 781.496983 Z" fill="#888" fill-opacity="0.18" stroke="#000" stroke-width="1"/>
  <path d="M954.544389 944.212509 L971.488749 964.319526 L966.666175 965.840195 L983.358515 981.785019 L975.642397 984.218089 L1001.015369 997.425708 L979.796044 1004.116653 L984.662185 1019.548890 L973.088008 1023.198496 L968.221866 1007.766259 L947.002541 1014.457203 L960.210160 989.084231 L952.494042 991.517302 L957.021028 968.881534 L952.198454 970.402203 Z" fill="#888" fill-opacity="0.18" stroke="#000" stroke-width="1"/>
  <path d="M327.587694 592.244051 L307.917012 609.693055 L306.274488 604.910611 L290.758267 622.002085 L288.130228 614.350175 L275.570550 640.050047 L268.343443 619.007294 L253.039623 624.263372 L249.097565 612.785507 L264.401385 607.529429 L257.174278 586.486677 L282.874150 599.046355 L280.246111 591.394445 L302.989439 595.345724 L301.346915 590.563280 Z" fill="#888" fill-opacity="0.18" stroke="#000" stroke-width="1"/>
  <path d="M719.280097 516.478023 L693.918912 509.534409 L697.027334 505.546005 L674.235189 501.886809 L679.208663 495.505362 L650.821359 499.025294 L664.498414 481.476314 L651.735519 471.529366 L659.195731 461.957195 L671.958625 471.904143 L685.635680 454.355164 L689.155612 482.742467 L694.129086 476.361020 L703.244177 497.569196 L706.352598 493.580791 Z" fill="#888" fill-opacity="0.18" stroke="#000" stroke-width="1"/>
  <path d="M81.505795 956.570709 L101.061686 938.993150 L102.735521 943.764725 L118.139385 926.571919 L120.817521 934.206439 L133.208481 908.424798 L140.573356 929.419729 L155.842397 924.063456 L159.859601 935.515237 L144.590560 940.871509 L151.955435 961.866440 L126.173794 949.475480 L128.851930 957.110000 L106.083192 953.307876 L107.757027 958.079451 Z" fill="#888" fill-opacity="0.18" stroke="#000" stroke-width="1"/>
</svg>
