<?xml version="1.0" encoding="UTF-8"?>
<svg xmlns="http://www.w3.org/2000/svg" width="1100" height="1100" viewBox="0 0 1100 1100">
  <rect x="0" y="0" width="1100" height="1100" fill="white"/>
  <text x="10.0" y="18.0" font-family="monospace" font-size="12">prefix=N20_job5048417_task20 run_id=20 L=3.26566030971 feas=0.000e+00 N=20</text>
  <rect x="40.000000" y="40.000000" width="1020.000000" height="1020.000000" fill="none" stroke="#000" stroke-width="2"/>
  <path d="M277.209901 437.208687 L190.196633 384.929182 L205.912911 373.349867 L125.019839 335.959248 L150.165884 317.432344 L40.983511 300.884491 L110.135135 249.935505 L73.081327 199.643415 L110.800394 171.853059 L147.854202 222.145149 L217.005826 171.196163 L200.457974 280.378535 L225.604019 261.851631 L237.345467 350.191237 L253.061745 338.611922 Z" fill="#888" fill-opacity="0.18" stroke="#000" stroke-width="1"/>
  <path d="M1056.522721 67.731136 L1037.832640 167.506566 L1021.503427 156.808960 L1014.637273 245.660541 L988.510533 228.544372 L1011.036960 336.651643 L939.188426 289.582179 L904.956089 341.835659 L865.765980 316.161406 L899.998317 263.907926 L828.149783 216.838462 L936.257054 194.312035 L910.130314 177.195866 L988.845003 135.413749 L972.515791 124.716144 Z" fill="#888" fill-opacity="0.18" stroke="#000" stroke-width="1"/>
  <path d="M571.680000 871.688557 L470.220778 868.450988 L478.299875 850.679940 L389.441672 857.459857 L402.368226 829.026181 L298.967649 867.793984 L334.515675 789.601375 L277.648323 763.748265 L297.038155 721.097751 L353.905507 746.950861 L389.453534 668.758252 L428.221336 772.158829 L441.147891 743.725153 L494.458068 815.137845 L502.537165 797.366798 Z" fill="#888" fill-opacity="0.18" stroke="#000" stroke-width="1"/>
  <path d="M499.202036 66.282808 L443.900545 151.407427 L432.880013 135.294394 L392.673054 214.825194 L375.040203 189.044342 L354.670202 297.578599 L306.179861 226.681257 L254.618158 261.946959 L228.168881 223.275682 L279.730584 188.009980 L231.240243 117.112637 L339.774501 137.482639 L322.141649 111.701787 L410.838949 103.068330 L399.818417 86.955298 Z" fill="#888" fill-opacity="0.18" stroke="#000" stroke-width="1"/>
  <path d="M370.537397 273.235587 L425.008385 187.577155 L436.185105 203.582244 L475.616678 123.664170 L493.499429 149.272313 L512.812908 40.545078 L561.990474 110.967470 L613.206759 75.201968 L640.030885 113.614181 L588.814600 149.379684 L637.992166 219.802076 L529.264932 200.488598 L547.147683 226.096740 L458.538544 235.592422 L469.715263 251.597511 Z" fill="#888" fill-opacity="0.18" stroke="#000" stroke-width="1"/>
  <path d="M935.820601 381.831363 L835.903044 399.746087 L840.113268 380.684189 L754.603184 405.779471 L761.339542 375.280434 L668.251056 434.687133 L686.776039 350.814782 L625.777965 337.342067 L635.882501 291.593512 L696.880575 305.066226 L715.405558 221.193875 L774.812256 314.282361 L781.548614 283.783324 L848.533714 342.560393 L852.743938 323.498495 Z" fill="#888" fill-opacity="0.18" stroke="#000" stroke-width="1"/>
  <path d="M498.134634 930.031053 L588.556773 883.897633 L590.058109 903.361136 L664.609179 854.536085 L667.011317 885.677689 L738.859981 801.818334 L745.465861 887.457744 L807.749068 882.653468 L811.352276 929.365874 L749.069068 934.170150 L755.674948 1019.809560 L671.815593 947.960896 L674.217731 979.102500 L593.060782 942.288140 L594.562118 961.751643 Z" fill="#888" fill-opacity="0.18" stroke="#000" stroke-width="1"/>
  <path d="M995.138782 77.264915 L918.695651 144.054909 L912.493517 125.545034 L852.098713 191.075296 L842.175298 161.459496 L792.944337 260.307533 L765.654945 178.864084 L706.423346 198.710913 L691.538224 154.287214 L750.769823 134.440384 L723.480432 52.996935 L822.328469 102.227897 L812.405054 72.612097 L900.089248 88.525284 L893.887114 70.015410 Z" fill="#888" fill-opacity="0.18" stroke="#000" stroke-width="1"/>
  <path d="M552.168849 540.307161 L464.015455 489.973924 L479.470571 478.048265 L397.766681 442.464252 L422.494866 423.383198 L312.971769 409.265371 L380.974277 356.792472 L342.812169 307.336102 L379.904447 278.714521 L418.066555 328.170891 L486.069063 275.697992 L471.951236 385.221090 L496.679421 366.140035 L510.380802 454.196947 L525.835918 442.271288 Z" fill="#888" fill-opacity="0.18" stroke="#000" stroke-width="1"/>
  <path d="M998.415328 378.472606 L941.367869 462.437139 L930.682409 446.099977 L888.841771 524.783575 L871.745035 498.644115 L849.138226 606.734605 L802.122201 534.851090 L749.843281 569.044563 L724.198177 529.835373 L776.477097 495.641901 L729.461072 423.758386 L837.551563 446.365195 L820.454826 420.225735 L909.311488 413.425652 L898.626028 397.088489 Z" fill="#888" fill-opacity="0.18" stroke="#000" stroke-width="1"/>
  <path d="M1013.231854 844.888778 L952.691908 763.406445 L971.634034 758.686509 L911.081612 693.301865 L941.389014 685.749967 L846.740765 628.861208 L930.086119 608.093488 L914.982323 547.478685 L960.443426 536.150838 L975.547222 596.765641 L1058.892576 575.997922 L1002.003817 670.646171 L1032.311219 663.094273 L1009.518286 749.246637 L1028.460412 744.526700 Z" fill="#888" fill-opacity="0.18" stroke="#000" stroke-width="1"/>
  <path d="M309.092396 781.615994 L286.290544 880.532783 L270.417878 869.168786 L259.881756 957.660241 L234.485491 939.477847 L252.520167 1048.424496 L182.680438 998.422911 L146.315649 1049.215441 L108.221251 1021.941849 L144.586041 971.149319 L74.746312 921.147734 L183.692961 903.113057 L158.296696 884.930663 L238.672547 846.440793 L222.799881 835.076796 Z" fill="#888" fill-opacity="0.18" stroke="#000" stroke-width="1"/>
  <path d="M535.544439 329.221526 L616.035136 391.073796 L599.101989 400.787213 L675.208581 447.150282 L648.115547 462.691750 L754.701803 491.570667 L680.195957 534.309704 L711.278892 588.495773 L670.639340 611.807975 L639.556405 557.621905 L565.050559 600.360941 L593.929477 493.774685 L566.836442 509.316153 L565.235696 420.214047 L548.302549 429.927465 Z" fill="#888" fill-opacity="0.18" stroke="#000" stroke-width="1"/>
  <path d="M162.749659 552.808441 L200.881448 646.885124 L181.361046 646.695746 L223.548417 725.193983 L192.315775 724.890978 L269.639869 803.730096 L183.750102 802.896833 L183.144093 865.362117 L136.295129 864.907610 L136.901139 802.442326 L51.011373 801.609063 L129.850491 724.284969 L98.617848 723.981964 L142.320243 646.316990 L122.799842 646.127612 Z" fill="#888" fill-opacity="0.18" stroke="#000" stroke-width="1"/>
  <path d="M366.914661 478.549189 L269.130957 505.803597 L271.525419 486.429684 L188.761952 519.474444 L192.593091 488.476184 L105.519593 556.393986 L116.055226 471.148771 L54.058706 463.486493 L59.805414 416.989103 L121.801934 424.651381 L132.337567 339.406166 L200.255369 426.479664 L204.086509 395.481404 L276.314342 447.681859 L278.708804 428.307947 Z" fill="#888" fill-opacity="0.18" stroke="#000" stroke-width="1"/>
  <path d="M539.729405 608.115840 L638.504657 631.523214 L627.043640 647.325968 L715.468892 658.403978 L697.131265 683.688384 L806.186348 666.321438 L755.757872 735.853554 L806.326684 772.528809 L778.820243 810.455417 L728.251431 773.780163 L677.822956 843.312279 L660.456010 734.257196 L642.118383 759.541602 L604.121606 678.931475 L592.660589 694.734229 Z" fill="#888" fill-opacity="0.18" stroke="#000" stroke-width="1"/>
  <path d="M558.189429 1056.724889 L456.701379 1054.572886 L464.589904 1036.716428 L375.809315 1044.446537 L388.430955 1015.876203 L285.451021 1055.747937 L320.160531 977.179520 L263.019864 951.936240 L281.952323 909.080740 L339.092991 934.324020 L373.802500 855.755602 L413.674235 958.735536 L426.295874 930.165203 L480.366954 1001.003511 L488.255478 983.147052 Z" fill="#888" fill-opacity="0.18" stroke="#000" stroke-width="1"/>
  <path d="M915.074173 1053.966969 L853.443512 973.306463 L872.320426 968.332123 L810.893855 903.768017 L841.096917 895.809072 L745.691900 840.198778 L828.750321 818.311681 L812.832432 757.905557 L858.137025 745.967140 L874.054914 806.373264 L957.113334 784.486167 L901.503041 879.891183 L931.706103 871.932239 L910.074254 958.383442 L928.951167 953.409102 Z" fill="#888" fill-opacity="0.18" stroke="#000" stroke-width="1"/>
  <path d="M428.219185 461.634219 L398.654836 558.744490 L383.603039 546.313669 L366.993707 633.868666 L342.910831 613.979352 L353.394735 723.909828 L287.166826 669.214213 L247.388196 717.379966 L211.263882 687.545994 L251.042511 639.380242 L184.814602 584.684627 L294.745079 574.200723 L270.662203 554.311408 L353.499444 521.452025 L338.447646 509.021204 Z" fill="#888" fill-opacity="0.18" stroke="#000" stroke-width="1"/>
  <path d="M576.598054 818.995141 L498.690103 753.919749 L516.004370 744.903204 L441.846802 695.482534 L469.549629 681.056062 L364.226380 647.865174 L440.409155 608.192375 L411.556211 552.786720 L453.110452 531.147012 L481.963397 586.552667 L558.146172 546.879868 L524.955284 652.203117 L552.658112 637.776645 L550.632905 726.870113 L567.947172 717.853568 Z" fill="#888" fill-opacity="0.18" stroke="#000" stroke-width="1"/>
</svg>
