<?xml version="1.0" encoding="UTF-8"?>
<svg xmlns="http://www.w3.org/2000/svg" width="1100" height="1100" viewBox="0 0 1100 1100">
  <rect x="0" y="0" width="1100" height="1100" fill="white"/>
  <text x="10.0" y="18.0" font-family="monospace" font-size="12">prefix=N21_job5048418_task21 run_id=21 L=3.42812596866 feas=0.000e+00 N=21</text>
  <rect x="40.000000" y="40.000000" width="1020.000000" height="1020.000000" fill="none" stroke="#000" stroke-width="2"/>
  <path d="M1050.628507 351.445101 L956.585626 373.958182 L959.545055 355.599011 L879.597625 384.151470 L884.332712 354.776796 L799.058309 416.375764 L812.079799 335.595410 L753.330451 326.125236 L760.433081 282.063225 L819.182429 291.533399 L832.203919 210.753045 L893.802886 296.027448 L898.537974 266.652774 L965.463914 318.880668 L968.423344 300.521497 Z" fill="#888" fill-opacity="0.18" stroke="#000" stroke-width="1"/>
  <path d="M127.226446 626.736657 L96.493269 535.050376 L115.042104 536.376312 L79.538411 459.263912 L109.216547 461.385410 L40.324951 381.886324 L121.939826 387.720443 L126.182821 328.364171 L170.700026 331.546417 L166.457030 390.902690 L248.071905 396.736809 L168.572820 465.628405 L198.250956 467.749903 L152.139774 539.028185 L170.688609 540.354121 Z" fill="#888" fill-opacity="0.18" stroke="#000" stroke-width="1"/>
  <path d="M1034.339842 749.309767 L1040.267958 845.827951 L1022.696082 839.741360 L1037.007845 923.419362 L1008.892845 913.680816 L1054.833984 1008.314681 L977.517732 981.533682 L958.040641 1037.763684 L915.868140 1023.155866 L935.345230 966.925864 L858.028978 940.144865 L952.662843 894.203726 L924.547842 884.465181 L987.552331 827.568179 L969.980456 821.481588 Z" fill="#888" fill-opacity="0.18" stroke="#000" stroke-width="1"/>
  <path d="M471.466453 501.856453 L375.801284 487.746958 L385.381754 471.808577 L300.551197 468.551135 L315.879949 443.049725 L213.804544 468.481368 L255.958613 398.352492 L204.955794 367.694988 L227.948923 329.442874 L278.951741 360.100378 L321.105810 289.971502 L346.537453 392.046906 L361.866205 366.545497 L404.542695 439.931815 L414.123165 423.993434 Z" fill="#888" fill-opacity="0.18" stroke="#000" stroke-width="1"/>
  <path d="M886.381139 797.235684 L813.725075 733.423470 L830.426657 725.245782 L760.972427 676.430370 L787.694957 663.346070 L688.177880 629.250496 L761.664838 593.268669 L735.496237 539.823609 L775.580032 520.197159 L801.748633 573.642219 L875.235591 537.660392 L841.140017 637.177469 L867.862547 624.093168 L863.829819 708.890406 L880.531400 700.712719 Z" fill="#888" fill-opacity="0.18" stroke="#000" stroke-width="1"/>
  <path d="M611.032299 600.565813 L626.754067 505.152353 L642.528515 515.000408 L647.216950 430.236895 L672.456067 445.993784 L648.750495 343.503772 L718.158066 386.835214 L749.671842 336.356981 L787.530517 359.992313 L756.016741 410.470546 L825.424312 453.801988 L722.934300 477.507560 L748.173417 493.264448 L674.077411 534.696518 L689.851859 544.544573 Z" fill="#888" fill-opacity="0.18" stroke="#000" stroke-width="1"/>
  <path d="M152.537297 711.342478 L185.191687 620.322738 L198.933772 632.851605 L218.816653 550.319759 L240.803988 570.365946 L235.951116 465.282140 L296.416289 520.409153 L336.508663 476.434482 L369.489666 506.503762 L329.397292 550.478434 L389.862465 605.605447 L284.778659 610.458319 L306.765995 630.504506 L226.417942 657.909338 L240.160026 670.438205 Z" fill="#888" fill-opacity="0.18" stroke="#000" stroke-width="1"/>
  <path d="M740.514921 249.556996 L677.604202 322.995022 L669.221025 306.395632 L621.266453 376.446996 L607.853371 349.887972 L574.988517 449.818238 L538.102541 376.780922 L484.984493 403.607087 L464.864869 363.768551 L517.982917 336.942386 L481.096941 263.905070 L581.027207 296.769924 L567.614124 270.210900 L652.454672 273.196852 L644.071496 256.597463 Z" fill="#888" fill-opacity="0.18" stroke="#000" stroke-width="1"/>
  <path d="M74.910079 618.552102 L136.373310 693.205794 L118.575078 698.594704 L179.286827 757.932028 L150.809657 766.554284 L243.558222 816.191570 L165.246003 839.902774 L182.490515 896.857115 L139.774759 909.790498 L122.530248 852.836157 L44.218029 876.547361 L93.855316 783.798795 L65.378145 792.421051 L82.978615 709.372523 L65.180384 714.761433 Z" fill="#888" fill-opacity="0.18" stroke="#000" stroke-width="1"/>
  <path d="M809.603797 171.060734 L717.168101 199.460459 L718.963689 180.951184 L640.976295 214.489235 L643.849237 184.874395 L562.629783 251.729141 L570.530373 170.288332 L511.300693 164.542449 L515.610105 120.120189 L574.839785 125.866072 L582.740374 44.425262 L649.595120 125.644716 L652.468061 96.029876 L722.554866 143.932634 L724.350455 125.423360 Z" fill="#888" fill-opacity="0.18" stroke="#000" stroke-width="1"/>
  <path d="M591.157308 789.532641 L549.004583 876.561660 L536.673450 862.641870 L508.122783 942.589940 L488.392970 920.318277 L482.038343 1025.321969 L427.781357 964.074893 L383.238030 1003.534519 L353.643310 970.127023 L398.186638 930.667397 L343.929652 869.420322 L448.933344 875.774949 L429.203531 853.503285 L512.011184 834.802290 L499.680051 820.882500 Z" fill="#888" fill-opacity="0.18" stroke="#000" stroke-width="1"/>
  <path d="M650.242360 421.446007 L614.298102 511.217454 L601.020941 498.196916 L578.148545 579.950742 L556.905088 559.117882 L557.931582 664.308675 L499.512074 607.018311 L457.846354 649.505225 L425.981168 618.255935 L467.646888 575.769021 L409.227380 518.478656 L514.418173 517.452162 L493.174716 496.619303 L574.466619 472.155842 L561.189459 459.135304 Z" fill="#888" fill-opacity="0.18" stroke="#000" stroke-width="1"/>
  <path d="M265.082548 341.341022 L201.356203 268.609631 L218.980588 262.676802 L156.475628 205.231485 L184.674644 195.738960 L90.445791 148.972733 L167.993085 122.868289 L149.008034 66.470257 L191.306558 52.231469 L210.291609 108.629501 L287.838902 82.525057 L241.072675 176.753909 L269.271691 167.261384 L254.229357 250.811146 L271.853742 244.878318 Z" fill="#888" fill-opacity="0.18" stroke="#000" stroke-width="1"/>
  <path d="M426.176971 600.734458 L415.157159 696.804568 L398.918368 687.742611 L398.395881 772.634080 L372.413815 758.134949 L401.121151 859.337941 L329.670471 819.465330 L300.672209 871.429461 L261.699111 849.680765 L290.697373 797.716634 L219.246693 757.844023 L320.449684 729.136687 L294.467619 714.637556 L366.440786 669.618697 L350.201995 660.556740 Z" fill="#888" fill-opacity="0.18" stroke="#000" stroke-width="1"/>
  <path d="M727.560562 672.165137 L803.312673 732.269380 L787.040314 741.270920 L858.845665 786.556967 L832.809890 800.959432 L933.905487 830.042707 L862.307108 869.649484 L891.112036 921.721033 L852.058375 943.324729 L823.253446 891.253181 L751.655066 930.859958 L780.738341 829.764361 L754.702567 844.166825 L754.495596 759.274001 L738.223237 768.275541 Z" fill="#888" fill-opacity="0.18" stroke="#000" stroke-width="1"/>
  <path d="M773.541307 1046.383206 L696.283782 988.226717 L712.321733 978.813879 L639.386888 935.370319 L665.047610 920.309778 L563.244453 893.809326 L633.811438 852.392839 L603.690356 801.071395 L642.181438 778.480584 L672.302520 829.802027 L742.869505 788.385539 L716.369053 890.188696 L742.029775 875.128155 L744.397635 959.988203 L760.435586 950.575365 Z" fill="#888" fill-opacity="0.18" stroke="#000" stroke-width="1"/>
  <path d="M744.964295 59.839491 L841.649770 61.519117 L834.200319 78.557987 L918.744589 70.870279 L906.825468 98.132470 L1004.778750 59.774797 L972.001165 134.745822 L1026.525547 158.584066 L1008.646864 199.477353 L954.122482 175.639109 L921.344897 250.610134 L882.987224 152.656852 L871.068102 179.919043 L819.301417 112.635726 L811.851966 129.674595 Z" fill="#888" fill-opacity="0.18" stroke="#000" stroke-width="1"/>
  <path d="M856.092183 404.350552 L929.317905 467.508260 L912.690374 475.835480 L982.579826 524.025719 L955.975776 537.349272 L1055.794783 570.550513 L982.633647 607.190284 L1009.280753 660.398384 L969.374679 680.383714 L942.727572 627.175614 L869.566436 663.815386 L902.767677 563.996379 L876.163627 577.319932 L879.435312 492.489922 L862.807781 500.817143 Z" fill="#888" fill-opacity="0.18" stroke="#000" stroke-width="1"/>
  <path d="M451.520653 824.068750 L498.668856 739.641566 L510.168637 754.255684 L543.325589 676.105501 L561.725238 699.488090 L574.182585 595.032495 L624.781621 659.334613 L671.546797 622.535314 L699.146271 657.609196 L652.381095 694.408495 L702.980132 758.710612 L598.524537 746.253266 L616.924187 769.635854 L533.168199 783.483919 L544.667980 798.098037 Z" fill="#888" fill-opacity="0.18" stroke="#000" stroke-width="1"/>
  <path d="M400.256564 1022.614627 L303.864529 1030.326817 L309.625089 1012.645377 L226.226094 1028.502303 L235.442991 1000.211999 L141.674987 1047.895518 L167.021453 970.097180 L110.440844 951.663386 L124.266189 909.227929 L180.846799 927.661723 L206.193265 849.863385 L253.876785 943.631389 L263.093682 915.341084 L321.146210 977.282496 L326.906771 959.601055 Z" fill="#888" fill-opacity="0.18" stroke="#000" stroke-width="1"/>
  <path d="M412.504277 388.793413 L361.989804 306.336210 L380.363454 303.468050 L328.468779 236.283400 L357.866621 231.694342 L272.899374 169.672382 L353.743438 157.052474 L344.565324 98.256791 L388.662086 91.373206 L397.840200 150.168888 L478.684264 137.548981 L416.662304 222.516228 L446.060145 217.927171 L417.110756 297.731728 L435.484407 294.863567 Z" fill="#888" fill-opacity="0.18" stroke="#000" stroke-width="1"/>
</svg>
