<?xml version="1.0" encoding="UTF-8"?>
<svg xmlns="http://www.w3.org/2000/svg" width="1100" height="1100" viewBox="0 0 1100 1100">
  <rect x="0" y="0" width="1100" height="1100" fill="white"/>
  <text x="10.0" y="18.0" font-family="monospace" font-size="12">prefix=N27_job5048424_task27 run_id=27 L=3.91147610973 feas=0.000e+00 N=27</text>
  <rect x="40.000000" y="40.000000" width="1020.000000" height="1020.000000" fill="none" stroke="#000" stroke-width="2"/>
  <path d="M982.658060 224.803427 L1000.197867 307.719177 L984.181771 304.699931 L1007.340195 375.406654 L981.714442 370.575860 L1033.701837 446.717227 L963.231018 433.432542 L953.569429 484.684047 L915.130800 477.437855 L924.792389 426.186350 L854.321570 412.901665 L930.462937 360.914271 L904.837185 356.083476 L952.149581 298.661438 L936.133486 295.642191 Z" fill="#888" fill-opacity="0.18" stroke="#000" stroke-width="1"/>
  <path d="M107.517491 484.930669 L151.425299 557.420467 L135.309669 559.853081 L180.494511 618.963853 L154.709503 622.856035 L228.902480 677.588102 L157.993706 688.291603 L165.778070 739.861620 L127.100557 745.699894 L119.316193 694.129876 L48.407418 704.833377 L103.139485 630.640399 L77.354476 634.532582 L103.078408 564.718309 L86.962777 567.150923 Z" fill="#888" fill-opacity="0.18" stroke="#000" stroke-width="1"/>
  <path d="M395.554281 108.269592 L360.987320 185.650414 L349.807808 173.790834 L326.964414 244.599962 L309.077193 225.624634 L306.356923 317.781007 L257.167066 265.598853 L219.216408 301.373294 L192.385578 272.910301 L230.336235 237.135859 L181.146379 184.953705 L273.302752 187.673976 L255.415532 168.698647 L327.448782 150.071673 L316.269269 138.212092 Z" fill="#888" fill-opacity="0.18" stroke="#000" stroke-width="1"/>
  <path d="M396.246830 306.135702 L396.458765 221.385354 L411.487530 227.691492 L403.648801 153.702928 L427.694825 163.792750 L392.804319 78.453136 L458.930885 106.200145 L479.110528 58.108098 L515.179564 73.242830 L494.999921 121.334878 L561.126486 149.081887 L475.786873 183.972393 L499.832896 194.062214 L441.545060 240.303769 L456.573825 246.609908 Z" fill="#888" fill-opacity="0.18" stroke="#000" stroke-width="1"/>
  <path d="M71.495822 449.762888 L155.988637 443.157535 L150.911716 458.644821 L224.030086 444.880475 L215.907013 469.660133 L298.163841 428.018672 L275.825389 496.162731 L325.384705 512.408877 L313.200095 549.578364 L263.640779 533.332217 L241.302328 601.476276 L199.660866 519.219449 L191.537793 543.999106 L140.757874 489.619394 L135.680953 505.106680 Z" fill="#888" fill-opacity="0.18" stroke="#000" stroke-width="1"/>
  <path d="M604.282735 840.353679 L564.227125 915.041125 L553.931691 902.406443 L526.042914 971.384479 L509.570220 951.168986 L500.213224 1042.889451 L454.913316 987.296847 L414.482332 1020.242234 L389.773291 989.918996 L430.204276 956.973609 L384.904369 901.381005 L476.624833 910.738002 L460.152140 890.522509 L533.340824 877.137077 L523.045391 864.502395 Z" fill="#888" fill-opacity="0.18" stroke="#000" stroke-width="1"/>
  <path d="M710.615741 620.031449 L745.344632 542.723166 L756.499291 554.606127 L779.490882 483.844979 L797.338336 502.857715 L800.251541 410.707239 L849.332040 462.992264 L887.357513 427.297355 L914.128694 455.816460 L876.103221 491.511368 L925.183721 543.796393 L833.033244 540.883188 L850.880699 559.895924 L778.808608 578.372047 L789.963267 590.255007 Z" fill="#888" fill-opacity="0.18" stroke="#000" stroke-width="1"/>
  <path d="M54.932572 951.465143 L135.238614 924.379978 L134.106835 940.638829 L201.632152 909.396470 L199.821306 935.410632 L269.383824 874.902341 L264.403999 946.441285 L316.432322 950.062976 L313.716054 989.084219 L261.687731 985.462528 L256.707906 1057.001472 L196.199615 987.438955 L194.388770 1013.453116 L131.843279 973.156531 L130.711500 989.415382 Z" fill="#888" fill-opacity="0.18" stroke="#000" stroke-width="1"/>
  <path d="M797.182169 40.695685 L747.409942 109.291545 L738.914540 95.382580 L701.968566 159.963911 L688.375922 137.709567 L666.721672 227.327035 L629.341902 166.127590 L584.833215 193.312877 L564.444250 159.931361 L608.952937 132.746074 L571.573168 71.546630 L661.190636 93.200880 L647.597992 70.946537 L721.923736 67.564651 L713.428334 53.655686 Z" fill="#888" fill-opacity="0.18" stroke="#000" stroke-width="1"/>
  <path d="M832.488048 47.698776 L914.686511 68.340462 L904.942538 81.405153 L978.638042 91.638723 L963.047686 112.542229 L1054.282341 99.259354 L1011.408862 156.743995 L1053.215874 187.924708 L1029.830340 219.279966 L988.023328 188.099254 L945.149849 245.583895 L931.866974 154.349240 L916.276618 175.252746 L885.454593 107.534535 L875.710620 120.599227 Z" fill="#888" fill-opacity="0.18" stroke="#000" stroke-width="1"/>
  <path d="M652.174472 423.394998 L676.990849 504.430878 L660.770251 502.842374 L690.101552 571.219477 L664.148594 568.677870 L722.676972 639.914280 L651.306339 632.924862 L646.223126 684.830777 L607.293690 681.018368 L612.376903 629.112453 L541.006270 622.123035 L612.242679 563.594658 L586.289722 561.053051 L628.329054 499.665366 L612.108456 498.076862 Z" fill="#888" fill-opacity="0.18" stroke="#000" stroke-width="1"/>
  <path d="M723.906581 123.260677 L802.431396 155.143585 L790.963660 166.724698 L862.517132 187.117195 L844.168754 205.646976 L936.364152 205.193469 L885.906112 256.150366 L922.965674 292.847123 L895.443107 320.641794 L858.383545 283.945038 L807.925505 334.901935 L807.471998 242.706538 L789.123620 261.236319 L768.028187 189.886925 L756.560451 201.468038 Z" fill="#888" fill-opacity="0.18" stroke="#000" stroke-width="1"/>
  <path d="M596.899858 764.393417 L657.718159 705.369687 L663.697349 720.531495 L711.190365 663.258755 L720.757070 687.517649 L757.487543 602.953654 L783.795980 669.665611 L832.313768 650.532203 L846.663825 686.920543 L798.146037 706.053952 L824.454474 772.765910 L739.890479 736.035437 L749.457183 760.294331 L675.655730 750.855113 L681.634920 766.016921 Z" fill="#888" fill-opacity="0.18" stroke="#000" stroke-width="1"/>
  <path d="M275.810168 936.721760 L317.797257 863.102803 L327.760157 876.001322 L357.435852 807.772982 L373.376492 828.410611 L385.118967 736.964937 L428.955726 793.718419 L470.230986 761.837140 L494.141946 792.793584 L452.866686 824.674864 L496.703445 881.428346 L405.257771 869.685871 L421.198411 890.323501 L347.685957 901.798359 L357.648857 914.696878 Z" fill="#888" fill-opacity="0.18" stroke="#000" stroke-width="1"/>
  <path d="M873.110213 1038.857465 L788.430864 1042.332265 L794.077301 1027.043416 L720.499743 1038.093135 L729.534043 1013.630977 L645.792898 1052.200624 L670.637221 984.929689 L621.712904 966.861090 L635.264353 930.167852 L684.188670 948.236451 L709.032994 880.965515 L747.602641 964.706660 L756.636941 940.244501 L805.370175 996.465718 L811.016612 981.176868 Z" fill="#888" fill-opacity="0.18" stroke="#000" stroke-width="1"/>
  <path d="M894.997827 380.512803 L812.818580 401.230860 L815.219165 385.110427 L745.456147 410.973039 L749.297083 385.180347 L675.213013 440.059738 L685.775587 369.129834 L634.190202 361.447962 L639.951606 322.758924 L691.536991 330.440796 L702.099565 259.510892 L756.978955 333.594962 L760.819891 307.802270 L820.020335 352.869562 L822.420920 336.749129 Z" fill="#888" fill-opacity="0.18" stroke="#000" stroke-width="1"/>
  <path d="M631.101042 187.570069 L614.271511 270.632897 L600.771418 261.501706 L593.946859 335.590698 L572.346710 320.980792 L589.822318 411.505928 L530.421909 371.328688 L501.202098 414.528985 L468.801875 392.614127 L498.021686 349.413829 L438.621277 309.236589 L529.146413 291.760981 L507.546264 277.151076 L573.771232 243.239324 L560.271139 234.108133 Z" fill="#888" fill-opacity="0.18" stroke="#000" stroke-width="1"/>
  <path d="M642.214003 422.255016 L597.376214 494.173297 L587.926060 480.894526 L555.601317 547.908438 L540.481071 526.662405 L525.166606 617.578104 L483.585927 559.151514 L441.093862 589.392007 L418.413492 557.522958 L460.905557 527.282465 L419.324879 468.855875 L510.240577 484.170340 L495.120331 462.924307 L569.025751 454.336986 L559.575597 441.058215 Z" fill="#888" fill-opacity="0.18" stroke="#000" stroke-width="1"/>
  <path d="M620.712956 838.783467 L543.099968 804.740986 L554.883618 793.481467 L483.921514 771.117809 L502.775354 753.102580 L410.602681 751.006055 L462.450739 701.464174 L426.420280 663.756495 L454.701039 636.733650 L490.731498 674.441329 L542.579557 624.899447 L540.483032 717.072120 L559.336872 699.056891 L578.450917 770.962430 L590.234566 759.702911 Z" fill="#888" fill-opacity="0.18" stroke="#000" stroke-width="1"/>
  <path d="M410.750943 569.376354 L367.435917 642.221910 L357.708527 629.144867 L326.800613 696.823919 L311.236790 675.900651 L297.838177 767.118380 L255.037663 709.579392 L213.191126 740.707039 L189.845391 709.322136 L231.691928 678.194489 L188.891413 620.655501 L280.109143 634.054114 L264.545320 613.130845 L338.253748 602.990781 L328.526359 589.913738 Z" fill="#888" fill-opacity="0.18" stroke="#000" stroke-width="1"/>
  <path d="M331.683092 776.040427 L262.894235 825.545575 L259.194272 809.672912 L203.843538 859.392622 L197.923598 833.996361 L149.232797 912.286865 L132.952960 842.447147 L82.160439 854.287028 L73.280528 816.192637 L124.073050 804.352756 L107.793213 734.513039 L186.083717 783.203839 L180.163776 757.807579 L251.794347 777.927586 L248.094384 762.054923 Z" fill="#888" fill-opacity="0.18" stroke="#000" stroke-width="1"/>
  <path d="M847.379255 595.364070 L925.465846 628.305697 L913.842585 639.730711 L985.113817 661.088726 L966.516598 679.368748 L1058.709701 680.161737 L1007.567351 730.431800 L1044.127396 767.626237 L1016.231569 795.046271 L979.671523 757.851834 L928.529173 808.121897 L929.322162 715.928794 L910.724943 734.208817 L890.596062 662.580740 L878.972800 674.005754 Z" fill="#888" fill-opacity="0.18" stroke="#000" stroke-width="1"/>
  <path d="M910.851799 762.719253 L851.696511 823.409602 L845.298468 808.419733 L799.414685 866.989621 L789.177815 843.005829 L754.810511 928.557483 L726.659119 862.602056 L678.691536 883.075796 L663.336231 847.100108 L711.303814 826.626369 L683.152422 760.670942 L768.704075 795.038246 L758.467206 771.054455 L832.502380 778.439993 L826.104337 763.450124 Z" fill="#888" fill-opacity="0.18" stroke="#000" stroke-width="1"/>
  <path d="M258.921769 439.397175 L183.298181 401.138328 L195.683153 390.543819 L126.058177 364.311851 L145.874132 347.360637 L53.956208 340.198785 L108.450084 293.582945 L74.547655 253.951034 L104.271588 228.524212 L138.174017 268.156123 L192.667894 221.540282 L185.506043 313.458207 L205.321998 296.506992 L220.453097 369.354801 L232.838069 358.760291 Z" fill="#888" fill-opacity="0.18" stroke="#000" stroke-width="1"/>
  <path d="M972.712380 774.265433 L969.135613 858.940537 L954.369083 852.042657 L959.263927 926.284113 L935.637479 915.247504 L967.112076 1001.905145 L902.139345 971.554471 L880.066128 1018.807366 L844.626456 1002.252453 L866.699674 954.999558 L801.726943 924.648884 L888.384584 893.174286 L864.758136 882.137678 L924.836024 838.246896 L910.069494 831.349015 Z" fill="#888" fill-opacity="0.18" stroke="#000" stroke-width="1"/>
  <path d="M317.507118 71.789169 L255.322103 129.371201 L249.699924 114.073415 L200.877573 170.217260 L191.882087 145.740803 L153.179659 229.420663 L128.442071 162.110405 L79.489155 180.101378 L65.995925 143.386691 L114.948841 125.395718 L90.211253 58.085459 L173.891114 96.787887 L164.895627 72.311429 L238.455565 83.477842 L232.833386 68.180056 Z" fill="#888" fill-opacity="0.18" stroke="#000" stroke-width="1"/>
  <path d="M342.404575 582.600260 L325.721493 499.507894 L341.705573 502.692285 L319.278162 431.750305 L344.852690 436.845331 L293.653936 360.171446 L363.983887 374.182768 L374.173939 323.033712 L412.535731 330.676251 L402.345679 381.825306 L472.675630 395.836628 L396.001746 447.035383 L421.576274 452.130408 L373.673733 509.061067 L389.657813 512.245459 Z" fill="#888" fill-opacity="0.18" stroke="#000" stroke-width="1"/>
</svg>
