<?xml version="1.0" encoding="UTF-8"?>
<svg xmlns="http://www.w3.org/2000/svg" width="1100" height="1100" viewBox="0 0 1100 1100">
  <rect x="0" y="0" width="1100" height="1100" fill="white"/>
  <text x="10.0" y="18.0" font-family="monospace" font-size="12">prefix=N39_job5048436_task39 run_id=39 L=4.77571801506 feas=0.000e+00 N=39</text>
  <rect x="40.000000" y="40.000000" width="1020.000000" height="1020.000000" fill="none" stroke="#000" stroke-width="2"/>
  <path d="M360.187664 407.380237 L313.808821 459.025733 L308.071370 446.972869 L272.482308 496.438976 L263.302386 477.154394 L238.040738 548.315656 L212.795950 495.283056 L174.226786 513.642901 L160.456902 484.716028 L199.026066 466.356183 L173.781278 413.323583 L244.942540 438.585231 L235.762617 419.300649 L296.596466 422.867142 L290.859014 410.814278 Z" fill="#888" fill-opacity="0.18" stroke="#000" stroke-width="1"/>
  <path d="M387.259830 769.027501 L318.418781 777.924927 L321.931150 765.046529 L262.690345 779.329530 L268.310136 758.724093 L202.747067 796.188211 L218.201490 739.523258 L176.990615 728.283678 L185.420301 697.375522 L226.631175 708.615102 L242.085598 651.950150 L279.549716 717.513218 L285.169506 696.907781 L328.955887 739.289732 L332.468256 726.411334 Z" fill="#888" fill-opacity="0.18" stroke="#000" stroke-width="1"/>
  <path d="M398.220661 234.796984 L467.276394 227.757092 L463.418406 240.536208 L523.022443 227.854102 L516.849663 248.300688 L583.398078 212.616173 L566.422933 268.844284 L607.316105 281.189844 L598.056935 311.859723 L557.163763 299.514163 L540.188618 355.742274 L504.504103 289.193860 L498.331324 309.640446 L455.702431 266.094440 L451.844444 278.873556 Z" fill="#888" fill-opacity="0.18" stroke="#000" stroke-width="1"/>
  <path d="M808.407696 257.321339 L834.173344 321.775863 L820.825969 321.582300 L849.415942 375.397637 L828.060143 375.087936 L880.675390 429.251686 L821.946941 428.400010 L821.327540 471.111609 L789.293841 470.647058 L789.913242 427.935459 L731.184794 427.083783 L785.348544 374.468535 L763.992744 374.158835 L794.131220 321.195174 L780.783845 321.001612 Z" fill="#888" fill-opacity="0.18" stroke="#000" stroke-width="1"/>
  <path d="M410.542270 201.840447 L449.872983 144.644737 L457.116992 155.856972 L486.029115 102.214021 L497.619528 120.153598 L513.492437 46.328624 L545.366073 95.662459 L581.245226 72.481633 L598.630846 99.390998 L562.751693 122.571824 L594.625329 171.905660 L520.800354 156.032751 L532.390768 173.972328 L471.605008 178.281443 L478.849016 189.493678 Z" fill="#888" fill-opacity="0.18" stroke="#000" stroke-width="1"/>
  <path d="M901.790328 419.390128 L903.379837 488.785572 L890.943552 483.934934 L898.900828 544.351478 L879.002772 536.590458 L909.345361 605.738150 L854.625706 584.395343 L839.103665 624.191456 L809.256581 612.549925 L824.778622 572.753812 L770.058967 551.411006 L839.206659 521.068417 L819.308603 513.307396 L866.070981 474.233659 L853.634696 469.383021 Z" fill="#888" fill-opacity="0.18" stroke="#000" stroke-width="1"/>
  <path d="M692.242717 151.233171 L753.064579 117.782381 L754.503930 131.053332 L804.421161 96.099833 L806.724124 117.333355 L854.050521 58.492144 L860.383669 116.884328 L902.850712 112.278403 L906.305156 144.128686 L863.838113 148.734611 L870.171260 207.126796 L811.330049 159.800398 L813.633012 181.033920 L757.382634 157.595234 L758.821985 170.866185 Z" fill="#888" fill-opacity="0.18" stroke="#000" stroke-width="1"/>
  <path d="M90.474213 613.472507 L73.656460 546.126999 L86.855201 548.122775 L65.801078 490.937104 L86.919063 494.130347 L42.107208 433.352278 L100.181667 442.133696 L106.568152 399.897726 L138.245129 404.687590 L131.858644 446.923560 L189.933102 455.704978 L129.155033 500.516833 L150.273018 503.710076 L113.252682 552.114329 L126.451422 554.110106 Z" fill="#888" fill-opacity="0.18" stroke="#000" stroke-width="1"/>
  <path d="M123.254258 259.872175 L96.238743 195.931451 L109.587356 195.865141 L79.955166 142.616569 L101.312948 142.510473 L47.653254 89.381260 L106.387153 89.089495 L106.174960 46.373933 L138.211632 46.214788 L138.423825 88.930351 L197.157724 88.638587 L144.028511 142.298281 L165.386292 142.192184 L136.284583 195.732520 L149.633196 195.666210 Z" fill="#888" fill-opacity="0.18" stroke="#000" stroke-width="1"/>
  <path d="M154.840176 818.306240 L115.165981 761.348251 L128.211348 758.518363 L88.191989 712.562646 L109.064577 708.034826 L45.563557 667.172907 L102.963174 654.721401 L93.907533 612.976225 L125.216415 606.184495 L134.272056 647.929671 L191.671673 635.478165 L150.809753 698.979186 L171.682341 694.451366 L154.302083 752.858588 L167.347450 750.028701 Z" fill="#888" fill-opacity="0.18" stroke="#000" stroke-width="1"/>
  <path d="M302.280380 691.688965 L356.655292 648.542433 L360.292626 661.386096 L403.665141 618.580699 L409.484877 639.130560 L446.310189 573.206570 L462.314462 629.718686 L503.414182 618.079216 L512.143786 648.904006 L471.044065 660.543477 L487.048337 717.055593 L421.124347 680.230281 L426.944083 700.780141 L367.567296 687.073421 L371.204630 699.917084 Z" fill="#888" fill-opacity="0.18" stroke="#000" stroke-width="1"/>
  <path d="M927.919225 433.867470 L901.500436 369.677893 L914.849088 369.735917 L885.714150 316.213656 L907.071993 316.306494 L853.909482 262.679790 L912.643550 262.935096 L912.829227 220.219410 L944.865992 220.358667 L944.680315 263.074354 L1003.414384 263.329659 L949.787680 316.492171 L971.145523 316.585010 L941.546392 369.851965 L954.895044 369.909989 Z" fill="#888" fill-opacity="0.18" stroke="#000" stroke-width="1"/>
  <path d="M436.078496 566.068645 L372.542239 594.022149 L372.279506 580.675956 L319.472750 611.088512 L319.052377 589.734604 L266.718540 644.170306 L265.562515 585.447060 L222.854699 586.287806 L222.224140 554.256945 L264.931955 553.416199 L263.775929 494.692953 L318.211631 547.026789 L317.791258 525.672881 L371.754040 553.983572 L371.491307 540.637380 Z" fill="#888" fill-opacity="0.18" stroke="#000" stroke-width="1"/>
  <path d="M854.200349 213.425071 L800.634562 257.572106 L796.759777 244.798074 L754.188173 288.400087 L747.988517 267.961634 L712.391526 334.556907 L695.342471 278.351163 L654.465566 290.750476 L645.166081 260.092797 L686.042986 247.693484 L668.993931 191.487739 L735.589204 227.084729 L729.389547 206.646277 L789.010206 219.250008 L785.135421 206.475975 Z" fill="#888" fill-opacity="0.18" stroke="#000" stroke-width="1"/>
  <path d="M786.457719 642.768826 L727.298585 606.458344 L738.119909 598.642409 L683.049258 572.552172 L700.363375 560.046677 L625.814342 548.025122 L673.428165 513.635009 L648.417174 479.006774 L674.388350 460.248531 L699.399341 494.876766 L747.013164 460.486652 L734.991610 535.035685 L752.305727 522.530189 L759.762555 583.010539 L770.583879 575.194605 Z" fill="#888" fill-opacity="0.18" stroke="#000" stroke-width="1"/>
  <path d="M629.779436 492.905213 L619.366172 561.533328 L607.953878 554.608775 L605.362714 615.491966 L587.103044 604.412682 L605.054009 677.760067 L554.839916 647.292036 L532.681348 683.811376 L505.291843 667.192449 L527.450411 630.673109 L477.236319 600.205078 L550.583704 582.254113 L532.324034 571.174829 L585.129290 540.759670 L573.716997 533.835117 Z" fill="#888" fill-opacity="0.18" stroke="#000" stroke-width="1"/>
  <path d="M287.879835 416.400912 L219.066611 407.290782 L225.773530 395.749243 L164.852153 394.312956 L175.583223 375.846493 L102.589393 395.184976 L132.099834 344.402204 L95.166909 322.940066 L111.263513 295.240372 L148.196438 316.702511 L177.706878 265.919739 L197.045361 338.913568 L207.776430 320.447106 L239.187366 372.666165 L245.894285 361.124626 Z" fill="#888" fill-opacity="0.18" stroke="#000" stroke-width="1"/>
  <path d="M732.843641 711.766711 L800.950006 725.174815 L793.532416 736.272979 L854.243769 741.527379 L842.375625 759.284440 L916.438639 744.562145 L883.801244 793.394065 L919.315367 817.130353 L901.513152 843.765946 L865.999028 820.029658 L833.361632 868.861578 L818.639337 794.798564 L806.771193 812.555626 L778.697237 758.469306 L771.279647 769.567470 Z" fill="#888" fill-opacity="0.18" stroke="#000" stroke-width="1"/>
  <path d="M690.318756 940.598888 L624.589252 918.285517 L633.411855 908.267955 L573.931880 895.016179 L588.048045 878.988079 L512.687384 883.767915 L551.506838 839.690642 L519.450639 811.458312 L540.624887 787.416163 L572.681086 815.648493 L611.500540 771.571220 L616.280375 846.931881 L630.396540 830.903782 L651.057062 888.232831 L659.879665 878.215269 Z" fill="#888" fill-opacity="0.18" stroke="#000" stroke-width="1"/>
  <path d="M373.820088 268.184123 L354.927747 201.390907 L368.181894 202.977563 L345.369398 146.470333 L366.576032 149.008984 L319.906073 89.645771 L378.224317 96.627061 L383.301618 54.213792 L415.111570 58.021768 L410.034269 100.435036 L468.352513 107.416326 L408.989301 154.086285 L430.195935 156.624935 L394.690186 206.150876 L407.944333 207.737533 Z" fill="#888" fill-opacity="0.18" stroke="#000" stroke-width="1"/>
  <path d="M451.979475 581.725014 L434.969781 514.427729 L448.174158 516.385867 L426.957079 459.260456 L448.084082 462.393476 L403.099124 401.743417 L461.198383 410.359222 L467.464423 368.105216 L499.154928 372.804746 L492.888888 415.058753 L550.988147 423.674558 L490.338089 468.659516 L511.465092 471.792536 L474.582912 520.302142 L487.787289 522.260279 Z" fill="#888" fill-opacity="0.18" stroke="#000" stroke-width="1"/>
  <path d="M402.461965 1030.064989 L407.022517 960.801322 L418.980523 966.733940 L416.403379 905.850154 L435.536190 915.342342 L411.434634 843.779845 L464.049863 869.883363 L483.034240 831.617741 L511.733456 845.856024 L492.749079 884.121645 L545.364309 910.225163 L473.801811 934.326719 L492.934622 943.818907 L442.896537 978.599175 L454.854543 984.531793 Z" fill="#888" fill-opacity="0.18" stroke="#000" stroke-width="1"/>
  <path d="M576.742204 783.340305 L600.797590 718.228150 L610.576716 727.314325 L625.407337 668.208236 L641.053939 682.746116 L638.282133 607.284913 L681.310288 647.264081 L710.386047 615.970878 L733.855949 637.777697 L704.780190 669.070901 L747.808345 709.050069 L672.347142 711.821875 L687.993744 726.359754 L630.134968 745.486674 L639.914094 754.572849 Z" fill="#888" fill-opacity="0.18" stroke="#000" stroke-width="1"/>
  <path d="M1048.391589 673.010033 L1041.121460 742.041906 L1029.405013 735.645443 L1029.595344 796.583451 L1010.849029 786.349110 L1032.128965 858.800752 L980.576597 830.656314 L960.107915 868.148945 L931.988442 852.797433 L952.457124 815.304802 L900.904756 787.160364 L973.356398 765.880428 L954.610082 755.646087 L1005.972119 722.852517 L994.255671 716.456054 Z" fill="#888" fill-opacity="0.18" stroke="#000" stroke-width="1"/>
  <path d="M999.751648 1040.140935 L938.019256 1008.401905 L948.219409 999.791053 L891.335667 977.934316 L907.655911 964.156954 L832.411895 957.799749 L877.292567 919.912003 L849.737842 887.271514 L874.218208 866.605471 L901.772933 899.245959 L946.653604 861.358213 L940.296400 936.602229 L956.616644 922.824867 L968.619714 982.569350 L978.819867 973.958499 Z" fill="#888" fill-opacity="0.18" stroke="#000" stroke-width="1"/>
  <path d="M399.885867 1053.910248 L354.164652 1001.681667 L366.817745 997.428535 L321.968416 956.173054 L342.213364 949.368044 L274.588468 915.768199 L330.262076 897.054421 L316.652055 856.564525 L347.019477 846.357010 L360.629498 886.846906 L416.303105 868.133129 L382.703260 935.758024 L402.948208 928.953014 L392.123930 988.922273 L404.777022 984.669141 Z" fill="#888" fill-opacity="0.18" stroke="#000" stroke-width="1"/>
  <path d="M93.819194 981.858278 L156.137008 951.284690 L156.954967 964.608384 L208.450234 932.024425 L209.758967 953.342335 L259.781911 896.775726 L263.380927 955.399980 L306.016747 952.782514 L307.979847 984.759379 L265.344026 987.376845 L268.943042 1046.001099 L212.376434 995.978156 L213.685167 1017.296066 L158.590883 991.255772 L159.408841 1004.579466 Z" fill="#888" fill-opacity="0.18" stroke="#000" stroke-width="1"/>
  <path d="M979.170247 324.870650 L1004.930478 389.327339 L991.583119 389.132655 L1020.168570 442.950394 L998.812796 442.638899 L1051.423491 496.807070 L992.695115 495.950458 L992.072124 538.662005 L960.038464 538.194762 L960.661455 495.483216 L901.933078 494.626604 L956.101250 442.015908 L934.745476 441.704413 L964.888403 388.743286 L951.541044 388.548601 Z" fill="#888" fill-opacity="0.18" stroke="#000" stroke-width="1"/>
  <path d="M575.351168 710.025219 L533.958626 765.746954 L527.128772 754.277735 L496.277576 806.829431 L485.349810 788.478681 L466.792351 861.674970 L436.740994 811.210408 L400.039495 833.065940 L383.647846 805.539815 L420.349345 783.684284 L390.297989 733.219722 L463.494278 751.777181 L452.566512 733.426432 L513.469065 731.339298 L506.639211 719.870079 Z" fill="#888" fill-opacity="0.18" stroke="#000" stroke-width="1"/>
  <path d="M819.523670 883.304910 L752.169784 866.520738 L760.131019 855.805860 L699.756790 847.533652 L712.494766 830.389847 L637.790313 841.404420 L672.819747 794.258956 L638.532137 768.783004 L657.639101 743.067296 L691.926711 768.543248 L726.956145 721.397784 L737.970718 796.102237 L750.708694 778.958432 L776.053489 834.376104 L784.014724 823.661226 Z" fill="#888" fill-opacity="0.18" stroke="#000" stroke-width="1"/>
  <path d="M1020.605444 577.561985 L992.433897 641.001863 L983.256074 631.308698 L964.674624 689.344951 L949.990108 673.835887 L947.928738 749.319838 L907.546318 706.669911 L876.528190 736.038944 L854.501416 712.775347 L885.519544 683.406315 L845.137125 640.756389 L920.621075 642.817759 L905.936559 627.308695 L964.900429 611.922368 L955.722607 602.229203 Z" fill="#888" fill-opacity="0.18" stroke="#000" stroke-width="1"/>
  <path d="M723.349493 399.710508 L659.294205 426.453251 L659.284790 413.104476 L605.910404 442.509441 L605.895340 421.151402 L552.537901 474.584161 L552.496475 415.849552 L509.780395 415.879681 L509.757799 383.842622 L552.473878 383.812493 L552.432451 325.077884 L605.865211 378.435322 L605.850147 357.077283 L659.265959 386.406926 L659.256544 373.058152 Z" fill="#888" fill-opacity="0.18" stroke="#000" stroke-width="1"/>
  <path d="M786.414927 46.133764 L740.362275 98.070337 L734.549026 86.053847 L699.272216 135.743119 L689.971018 116.516736 L665.158056 187.835688 L639.579761 134.963135 L601.126995 153.565530 L587.175199 124.725956 L625.627965 106.123560 L600.049670 53.251007 L671.368622 78.063970 L662.067424 58.837587 L722.922529 62.020869 L717.109280 50.004379 Z" fill="#888" fill-opacity="0.18" stroke="#000" stroke-width="1"/>
  <path d="M941.541105 1050.523959 L872.127492 1050.456697 L877.273574 1038.139729 L816.684319 1044.652728 L824.918052 1024.945579 L755.065847 1053.629120 L777.708612 999.434460 L738.294313 982.966995 L750.644912 953.406271 L790.059210 969.873736 L812.701975 915.679076 L841.385517 985.531280 L849.619249 965.824131 L887.565740 1013.505793 L892.711823 1001.188824 Z" fill="#888" fill-opacity="0.18" stroke="#000" stroke-width="1"/>
  <path d="M200.932652 312.085517 L186.935565 244.097754 L200.039686 246.641745 L181.386582 188.628481 L202.353176 192.698866 L160.112654 130.106420 L217.770786 141.299978 L225.911556 99.366791 L257.361447 105.472368 L249.220677 147.405556 L306.878809 158.599114 L244.286363 200.839636 L265.252957 204.910021 L226.247928 251.729726 L239.352049 254.273717 Z" fill="#888" fill-opacity="0.18" stroke="#000" stroke-width="1"/>
  <path d="M506.591798 350.171678 L439.327975 367.313218 L441.260233 354.105029 L384.176510 375.434013 L387.268122 354.300911 L326.706335 399.404635 L335.208270 341.288604 L292.942065 335.105379 L297.579484 303.405725 L339.845689 309.588950 L348.347623 251.472919 L393.451348 312.034706 L396.542960 290.901604 L445.124749 327.688651 L447.057007 314.480462 Z" fill="#888" fill-opacity="0.18" stroke="#000" stroke-width="1"/>
  <path d="M49.828261 976.900067 L78.630432 913.743997 L87.711231 923.528115 L106.869947 865.679860 L121.399225 881.334449 L124.212504 805.874781 L164.168018 848.924902 L195.477197 819.866346 L217.271113 843.348231 L185.961935 872.406786 L225.917449 915.456907 L150.457781 912.643628 L164.987058 928.298218 L105.872828 943.096352 L114.953626 952.880470 Z" fill="#888" fill-opacity="0.18" stroke="#000" stroke-width="1"/>
  <path d="M873.673373 226.102762 L907.917631 165.724081 L916.102881 176.268823 L940.274296 120.329394 L953.370695 137.200979 L962.808661 62.281017 L998.823760 108.677877 L1032.566931 82.485079 L1052.211530 107.792457 L1018.468359 133.985256 L1054.483457 180.382117 L979.563494 170.944151 L992.659894 187.815737 L932.473380 197.358305 L940.658630 207.903046 Z" fill="#888" fill-opacity="0.18" stroke="#000" stroke-width="1"/>
  <path d="M687.222343 1037.691539 L618.033183 1032.113509 L624.140907 1020.243986 L563.225821 1021.926040 L572.998180 1002.934803 L501.089190 1025.981999 L527.963177 973.756097 L489.980702 954.211380 L504.639240 925.724524 L542.621714 945.269241 L569.495701 893.043339 L592.542897 964.952329 L602.315256 945.961092 L636.356356 996.504939 L642.464080 984.635416 Z" fill="#888" fill-opacity="0.18" stroke="#000" stroke-width="1"/>
</svg>
