<?xml version="1.0" encoding="UTF-8"?>
<svg xmlns="http://www.w3.org/2000/svg" width="1100" height="1100" viewBox="0 0 1100 1100">
  <rect x="0" y="0" width="1100" height="1100" fill="white"/>
  <text x="10.0" y="18.0" font-family="monospace" font-size="12">prefix=N42_job5048441_task42 run_id=42 L=5.02858209422 feas=0.000e+00 N=42</text>
  <rect x="40.000000" y="40.000000" width="1020.000000" height="1020.000000" fill="none" stroke="#000" stroke-width="2"/>
  <path d="M799.908579 850.674524 L763.713100 795.576886 L776.170926 793.226922 L739.363852 748.565538 L759.296374 744.805596 L700.065214 704.374146 L754.879649 694.034305 L747.359765 654.169261 L777.258548 648.529348 L784.778432 688.394392 L839.592868 678.054550 L799.161418 737.285711 L819.093940 733.525769 L801.086578 788.526994 L813.544405 786.177030 Z" fill="#888" fill-opacity="0.18" stroke="#000" stroke-width="1"/>
  <path d="M406.645033 594.830023 L343.053741 577.451588 L350.842168 567.448580 L293.695597 558.301488 L306.157080 542.296676 L234.991340 551.154998 L269.260420 507.141764 L237.250795 482.218796 L255.943020 458.211578 L287.952645 483.134545 L322.221725 439.121310 L331.080048 510.287051 L343.541531 494.282238 L366.419023 547.442565 L374.207450 537.439557 Z" fill="#888" fill-opacity="0.18" stroke="#000" stroke-width="1"/>
  <path d="M832.093259 254.073693 L808.132880 192.659015 L820.807111 192.948199 L794.080538 141.615069 L814.359308 142.077764 L764.819119 90.224103 L820.585736 91.496512 L821.511125 50.938972 L851.929280 51.633014 L851.003891 92.190554 L906.770509 93.462963 L854.916848 143.003152 L875.195618 143.465847 L846.155573 193.526567 L858.829805 193.815751 Z" fill="#888" fill-opacity="0.18" stroke="#000" stroke-width="1"/>
  <path d="M261.020530 155.946068 L322.684333 179.257823 L313.985219 188.479818 L370.011249 202.987883 L356.092667 217.743075 L427.777101 215.651550 L389.501001 256.228327 L419.011385 284.065490 L398.133513 306.198278 L368.623129 278.361115 L330.347030 318.937892 L328.255504 247.253459 L314.336922 262.008651 L296.586992 206.923808 L287.887879 216.145803 Z" fill="#888" fill-opacity="0.18" stroke="#000" stroke-width="1"/>
  <path d="M70.366788 582.701749 L136.165705 578.656396 L132.017031 590.635890 L189.062089 580.875699 L182.424211 600.042889 L246.936881 568.719610 L228.682716 621.429383 L267.017096 634.705139 L257.060278 663.455924 L218.725899 650.180167 L200.471733 702.889940 L169.148454 638.377269 L162.510576 657.544459 L123.719684 614.594877 L119.571010 626.574371 Z" fill="#888" fill-opacity="0.18" stroke="#000" stroke-width="1"/>
  <path d="M66.641669 57.763774 L132.247190 64.227366 L126.247328 75.395240 L184.118522 74.825366 L174.518742 92.693965 L243.189689 72.021918 L216.790294 121.160564 L252.527492 140.360124 L238.127822 167.163022 L202.390625 147.963463 L175.991230 197.102109 L155.319183 128.431163 L145.719403 146.299761 L114.247603 97.730988 L108.247740 108.898863 Z" fill="#888" fill-opacity="0.18" stroke="#000" stroke-width="1"/>
  <path d="M990.333998 646.844181 L955.783135 590.700612 L968.304986 588.719954 L932.834280 542.989998 L952.869242 539.820944 L894.859203 497.656173 L949.955348 488.941276 L943.617241 448.871352 L973.669684 444.117772 L980.007791 484.187696 L1035.103936 475.472798 L992.939166 533.482837 L1012.974127 530.313784 L993.348689 584.758637 L1005.870540 582.777978 Z" fill="#888" fill-opacity="0.18" stroke="#000" stroke-width="1"/>
  <path d="M1054.717057 628.416284 L1054.643563 694.339399 L1042.946671 689.450383 L1049.123768 746.993787 L1030.408741 739.171361 L1057.640244 805.514995 L1006.173919 784.003323 L990.529067 821.433378 L962.456526 809.699738 L978.101378 772.269684 L926.635053 750.758012 L992.978686 723.526509 L974.263659 715.704083 L1019.552887 679.672350 L1007.855994 674.783334 Z" fill="#888" fill-opacity="0.18" stroke="#000" stroke-width="1"/>
  <path d="M592.190310 1049.114346 L526.886361 1040.100093 L533.316698 1029.174411 L475.467228 1027.489564 L485.755767 1010.008473 L416.331691 1027.989854 L444.625173 979.916852 L409.662990 959.339774 L425.095798 933.118137 L460.057982 953.695215 L488.351464 905.622213 L506.332845 975.046289 L516.621384 957.565198 L546.177372 1007.323046 L552.607709 996.397364 Z" fill="#888" fill-opacity="0.18" stroke="#000" stroke-width="1"/>
  <path d="M744.715212 498.759732 L678.839195 501.252283 L683.269216 489.373955 L626.009857 497.786189 L633.097892 478.780864 L567.864494 508.574088 L587.356590 456.309446 L549.345941 442.133376 L559.977993 413.625389 L597.988642 427.801459 L617.480738 375.536817 L647.273962 440.770215 L654.361997 421.764891 L692.129260 465.617299 L696.559282 453.738971 Z" fill="#888" fill-opacity="0.18" stroke="#000" stroke-width="1"/>
  <path d="M1030.121208 48.351475 L1012.816240 111.962798 L1002.804242 104.185931 L993.723167 161.343030 L977.703971 148.900042 L986.644492 220.055503 L942.591702 185.837286 L917.705726 217.875679 L893.676931 199.211197 L918.562907 167.172804 L874.510118 132.954587 L945.665578 124.014066 L929.646382 111.571078 L982.780247 88.632196 L972.768249 80.855329 Z" fill="#888" fill-opacity="0.18" stroke="#000" stroke-width="1"/>
  <path d="M250.450362 765.851422 L184.574749 768.354626 L189.002849 756.475582 L131.744851 764.897076 L138.829812 745.890606 L73.601233 775.694379 L93.084876 723.426585 L55.071935 709.256663 L65.699377 680.746957 L103.712318 694.916879 L123.195961 642.649085 L152.999735 707.877665 L160.084696 688.871194 L197.859051 732.717494 L202.287151 720.838450 Z" fill="#888" fill-opacity="0.18" stroke="#000" stroke-width="1"/>
  <path d="M42.103011 475.445898 L70.047880 415.738723 L78.579859 425.115562 L97.316861 370.358602 L110.968027 385.361545 L114.347468 313.726275 L151.888174 354.984366 L181.894058 327.682034 L202.370806 350.186447 L172.364922 377.488779 L209.905628 418.746870 L138.270358 415.367429 L151.921524 430.370371 L95.643816 443.869240 L104.175794 453.246079 Z" fill="#888" fill-opacity="0.18" stroke="#000" stroke-width="1"/>
  <path d="M290.060962 327.784526 L227.582958 306.752138 L235.937672 297.217018 L179.416820 284.775424 L192.784363 269.519232 L121.225026 274.240855 L157.985769 232.286327 L127.473385 205.551241 L147.524699 182.666953 L178.037083 209.402039 L214.797826 167.447511 L219.519449 239.006848 L232.886992 223.750656 L252.647101 278.146778 L261.001815 268.611658 Z" fill="#888" fill-opacity="0.18" stroke="#000" stroke-width="1"/>
  <path d="M420.118070 599.445323 L389.456324 541.086778 L402.083710 539.960325 L369.797649 491.928979 L390.001466 490.126654 L334.986112 444.122923 L390.546609 439.166530 L386.941959 398.758896 L417.247685 396.055408 L420.852334 436.463043 L476.412831 431.506649 L430.409101 486.522004 L450.612918 484.719679 L427.338481 537.707418 L439.965867 536.580965 Z" fill="#888" fill-opacity="0.18" stroke="#000" stroke-width="1"/>
  <path d="M645.348444 373.250940 L600.341343 325.082244 L612.220927 320.655591 L568.379231 282.875892 L587.386565 275.793248 L522.161619 245.981524 L574.431788 226.504252 L560.266499 188.489584 L588.777500 177.865617 L602.942789 215.880285 L655.212957 196.403013 L625.401233 261.627959 L644.408567 254.545314 L635.980094 311.802286 L647.859678 307.375633 Z" fill="#888" fill-opacity="0.18" stroke="#000" stroke-width="1"/>
  <path d="M903.894981 517.866964 L941.239269 572.192525 L928.833527 574.803526 L966.570163 618.682293 L946.720975 622.859894 L1006.787947 662.038860 L952.202681 673.527263 L960.557883 713.225639 L930.784102 719.492040 L922.428900 679.793665 L867.843634 691.282068 L907.022600 631.215096 L887.173412 635.392698 L904.022042 580.025527 L891.616300 582.636528 Z" fill="#888" fill-opacity="0.18" stroke="#000" stroke-width="1"/>
  <path d="M414.664345 808.729300 L355.132749 780.412317 L364.562656 771.939030 L309.923709 752.860631 L325.011561 739.303371 L253.398780 735.476889 L294.890374 698.194424 L267.775854 668.018719 L290.407633 647.682829 L317.522153 677.858534 L359.013748 640.576069 L355.187267 712.188850 L370.275119 698.631590 L383.422472 754.992454 L392.852380 746.519167 Z" fill="#888" fill-opacity="0.18" stroke="#000" stroke-width="1"/>
  <path d="M887.151641 783.642664 L942.570401 819.344532 L932.133771 826.541512 L983.882274 852.454680 L967.183665 863.969846 L1037.718104 876.928453 L991.796929 908.595160 L1014.827262 941.992378 L989.779348 959.265128 L966.749016 925.867910 L920.827841 957.534618 L933.786447 887.000179 L917.087838 898.515346 L911.260510 840.935470 L900.823879 848.132449 Z" fill="#888" fill-opacity="0.18" stroke="#000" stroke-width="1"/>
  <path d="M67.433540 582.781144 L100.158597 525.554113 L107.896749 535.596064 L131.040616 482.551164 L143.421659 498.618285 L152.636852 427.497875 L186.684721 471.682456 L218.818962 446.920370 L237.390528 471.021050 L205.256286 495.783137 L239.304156 539.967719 L168.183746 530.752526 L180.564789 546.819646 L123.373053 555.679964 L131.111205 565.721915 Z" fill="#888" fill-opacity="0.18" stroke="#000" stroke-width="1"/>
  <path d="M54.479784 907.801521 L120.042995 914.681038 L113.972429 925.810638 L171.846074 925.607783 L162.133168 943.415143 L230.933832 923.179008 L204.223341 972.149247 L239.838060 991.575059 L225.268701 1018.286099 L189.653982 998.860287 L162.943491 1047.830526 L142.707356 979.029862 L132.994450 996.837222 L101.831297 948.069838 L95.760731 959.199438 Z" fill="#888" fill-opacity="0.18" stroke="#000" stroke-width="1"/>
  <path d="M906.558355 868.584397 L851.879297 905.409158 L849.386666 892.979091 L805.150187 930.295761 L801.161978 910.407655 L761.412235 970.098445 L750.444659 915.406151 L710.668446 923.382570 L704.686132 893.550410 L744.462345 885.573992 L733.494769 830.881698 L793.185559 870.631442 L789.197350 850.743335 L844.401404 868.118958 L841.908773 855.688892 Z" fill="#888" fill-opacity="0.18" stroke="#000" stroke-width="1"/>
  <path d="M683.179615 531.053333 L742.516334 502.330238 L743.226298 514.987872 L792.294916 484.301221 L793.430858 504.553436 L841.221542 451.083042 L844.345382 506.776635 L884.849814 504.504751 L886.553727 534.883074 L846.049296 537.154958 L849.173136 592.848551 L795.702742 545.057867 L796.838684 565.310083 L744.646225 540.303142 L745.356189 552.960776 Z" fill="#888" fill-opacity="0.18" stroke="#000" stroke-width="1"/>
  <path d="M542.730065 547.132401 L589.653186 593.436647 L577.962852 598.341325 L623.300297 634.312368 L604.595764 642.159852 L670.975810 669.302475 L619.538342 690.883058 L635.233311 728.292125 L607.176510 740.063352 L591.481541 702.654285 L540.044073 724.234867 L567.186696 657.854821 L548.482162 665.702306 L554.582185 608.150680 L542.891851 613.055358 Z" fill="#888" fill-opacity="0.18" stroke="#000" stroke-width="1"/>
  <path d="M625.111098 383.219993 L688.667020 365.712645 L687.073951 378.289684 L740.886856 356.992473 L738.337946 377.115735 L795.018375 333.179855 L788.008873 388.518825 L828.255396 393.616644 L824.432031 423.801537 L784.185508 418.703717 L777.176006 474.042687 L733.240127 417.362258 L730.691217 437.485520 L683.887814 403.443761 L682.294745 416.020799 Z" fill="#888" fill-opacity="0.18" stroke="#000" stroke-width="1"/>
  <path d="M531.257944 362.442404 L549.708467 425.730955 L537.109129 424.325090 L559.204211 477.815344 L539.045271 475.565960 L583.819161 531.586771 L528.382075 525.400964 L523.883307 565.718844 L493.644896 562.344768 L498.143665 522.026888 L442.706579 515.841081 L498.727391 471.067191 L478.568450 468.817807 L511.910454 421.513360 L499.311116 420.107495 Z" fill="#888" fill-opacity="0.18" stroke="#000" stroke-width="1"/>
  <path d="M502.940049 698.458442 L535.899166 755.550991 L523.326589 757.178900 L557.497893 803.887806 L537.381771 806.492460 L594.183713 850.271129 L538.864377 857.433929 L544.073686 897.666174 L513.899502 901.573155 L508.690193 861.340911 L453.370857 868.503711 L497.149527 811.701769 L477.033404 814.306423 L498.181436 760.434718 L485.608860 762.062627 Z" fill="#888" fill-opacity="0.18" stroke="#000" stroke-width="1"/>
  <path d="M772.699814 222.203808 L717.478268 186.197651 L727.954328 179.058187 L676.349141 152.860771 L693.110836 141.437628 L622.648743 128.091247 L668.743404 96.677605 L645.897119 63.154216 L671.039661 46.019502 L693.885946 79.542892 L739.980607 48.129250 L726.634226 118.591343 L743.395921 107.168201 L748.906446 164.779259 L759.382506 157.639795 Z" fill="#888" fill-opacity="0.18" stroke="#000" stroke-width="1"/>
  <path d="M879.146405 314.049481 L814.651026 327.695308 L816.999059 315.237117 L762.000626 333.253008 L765.757477 313.319903 L706.532587 353.760537 L716.863928 298.944499 L676.997718 291.430796 L682.632995 261.531139 L722.499205 269.044842 L732.830546 214.228804 L773.271180 273.453694 L777.028031 253.520589 L821.695123 290.320736 L824.043155 277.862546 Z" fill="#888" fill-opacity="0.18" stroke="#000" stroke-width="1"/>
  <path d="M327.821693 1033.986440 L328.895246 968.072026 L340.516625 973.137924 L335.213184 915.507434 L353.807390 923.612871 L327.585467 856.863764 L378.719533 879.153715 L394.930407 841.965303 L422.821716 854.123459 L406.610842 891.311870 L457.744908 913.601822 L390.995801 939.823744 L409.590007 947.929181 L363.759382 983.269720 L375.380761 988.335618 Z" fill="#888" fill-opacity="0.18" stroke="#000" stroke-width="1"/>
  <path d="M562.131859 744.174699 L625.834173 761.141657 L618.110577 771.194807 L675.315090 779.972259 L662.957337 796.057300 L734.064321 786.739080 L700.080500 830.972943 L732.250582 855.688449 L713.713953 879.816010 L681.543871 855.100504 L647.560050 899.334366 L638.241831 828.227381 L625.884078 844.312422 L602.663386 791.301108 L594.939790 801.354259 Z" fill="#888" fill-opacity="0.18" stroke="#000" stroke-width="1"/>
  <path d="M1011.180323 1042.614841 L945.258359 1042.218494 L950.204602 1030.545686 L892.631635 1036.440894 L900.545623 1017.764401 L834.069421 1044.670663 L855.832888 993.310307 L818.479902 977.482332 L830.350884 949.467592 L867.703870 965.295568 L889.467337 913.935212 L916.373599 980.411415 L924.287587 961.734921 L960.097087 1007.200069 L965.043329 995.527261 Z" fill="#888" fill-opacity="0.18" stroke="#000" stroke-width="1"/>
  <path d="M251.731685 62.894523 L317.616861 65.131956 L312.346519 76.662059 L370.061681 72.377198 L361.629135 90.825362 L428.830911 65.786317 L405.641409 116.518769 L442.537737 133.383861 L429.888918 161.056107 L392.992590 144.191015 L369.803088 194.923467 L344.764043 127.721691 L336.331496 146.169855 L301.805837 99.722264 L296.535495 111.252367 Z" fill="#888" fill-opacity="0.18" stroke="#000" stroke-width="1"/>
  <path d="M803.777276 617.498418 L738.793653 628.588561 L741.631470 616.232730 L685.964949 632.064292 L690.505456 612.294963 L629.730865 650.367021 L642.217258 596.001364 L602.678598 586.920351 L609.489358 557.266357 L649.028017 566.347369 L661.514410 511.981713 L699.586468 572.756303 L704.126975 552.986973 L747.307103 591.521068 L750.144919 579.165237 Z" fill="#888" fill-opacity="0.18" stroke="#000" stroke-width="1"/>
  <path d="M385.929220 203.516544 L437.814395 162.849712 L441.195698 175.068000 L482.629981 134.662554 L488.040066 154.211814 L523.388004 91.813450 L538.265738 145.573916 L577.364259 134.753745 L585.479387 164.077636 L546.380866 174.897806 L561.258601 228.658272 L498.860237 193.310335 L504.270322 212.859595 L447.958304 199.504575 L451.339608 211.722863 Z" fill="#888" fill-opacity="0.18" stroke="#000" stroke-width="1"/>
  <path d="M325.242976 570.995991 L386.864432 594.419454 L378.148621 603.625669 L434.148267 618.235240 L420.202969 632.965185 L491.891075 631.003568 L453.541505 671.510916 L483.001394 699.401512 L462.083448 721.496428 L432.623559 693.605833 L394.273989 734.113180 L392.312373 662.425074 L378.367075 677.155018 L360.716998 622.038100 L352.001187 631.244315 Z" fill="#888" fill-opacity="0.18" stroke="#000" stroke-width="1"/>
  <path d="M345.704017 767.589794 L337.147593 832.955305 L326.177120 826.601686 L324.897686 884.461543 L307.344928 874.295752 L325.812347 943.592123 L277.542263 915.636199 L257.210683 950.741715 L230.881546 935.493030 L251.213127 900.387514 L202.943043 872.431591 L272.239413 853.964172 L254.686655 843.798382 L304.236173 813.894449 L293.265699 807.540830 Z" fill="#888" fill-opacity="0.18" stroke="#000" stroke-width="1"/>
  <path d="M293.296409 794.907811 L238.780757 831.974051 L236.233174 819.555130 L192.162175 857.067088 L188.086042 837.196815 L148.600692 897.062829 L137.391327 842.419579 L97.650781 850.571845 L91.536582 820.766436 L131.277127 812.614170 L120.067762 757.970920 L179.933776 797.456269 L175.857643 777.585997 L231.138008 794.717289 L228.590424 782.298369 Z" fill="#888" fill-opacity="0.18" stroke="#000" stroke-width="1"/>
  <path d="M1053.522436 461.379203 L989.892833 444.141568 L997.659099 434.121345 L940.492421 425.100768 L952.918448 409.068412 L881.772490 418.084236 L915.944063 373.995256 L883.879350 349.143202 L902.518390 325.094667 L934.583104 349.946721 L968.754677 305.857740 L977.770502 377.003699 L990.196528 360.971342 L1013.191633 414.080899 L1020.957900 404.060677 Z" fill="#888" fill-opacity="0.18" stroke="#000" stroke-width="1"/>
  <path d="M599.379770 371.678089 L534.623916 359.327307 L541.605997 348.745704 L483.919009 344.096907 L495.090338 327.166343 L424.835605 341.564430 L455.556760 295.005378 L421.695632 272.662720 L438.452626 247.266874 L472.313754 269.609532 L503.034910 223.050481 L517.432997 293.305214 L528.604326 276.374650 L555.570159 327.582499 L562.552239 317.000897 Z" fill="#888" fill-opacity="0.18" stroke="#000" stroke-width="1"/>
  <path d="M744.184690 946.692931 L681.105478 965.846923 L682.370983 953.232714 L629.130037 975.921952 L631.154845 955.739218 L575.635989 1001.134032 L581.204213 945.631513 L540.838745 941.581896 L543.875957 911.307795 L584.241425 915.357412 L589.809649 859.854894 L635.204462 915.373750 L637.229271 895.191016 L684.901994 928.004297 L686.167499 915.390088 Z" fill="#888" fill-opacity="0.18" stroke="#000" stroke-width="1"/>
  <path d="M195.756460 314.069929 L260.990478 323.577048 L254.477823 334.453862 L312.312921 336.575493 L301.892672 353.978396 L371.450550 336.521762 L342.794866 384.379744 L377.600671 405.220242 L361.970297 431.324595 L327.164492 410.484097 L298.508808 458.342079 L281.052174 388.784201 L270.631925 406.187103 L241.452512 356.207490 L234.939856 367.084304 Z" fill="#888" fill-opacity="0.18" stroke="#000" stroke-width="1"/>
</svg>
