<?xml version="1.0" encoding="UTF-8"?>
<svg xmlns="http://www.w3.org/2000/svg" width="1100" height="1100" viewBox="0 0 1100 1100">
  <rect x="0" y="0" width="1100" height="1100" fill="white"/>
  <text x="10.0" y="18.0" font-family="monospace" font-size="12">prefix=N44_job5048443_task44 run_id=44 L=5.09273123597 feas=0.000e+00 N=44</text>
  <rect x="40.000000" y="40.000000" width="1020.000000" height="1020.000000" fill="none" stroke="#000" stroke-width="2"/>
  <path d="M844.240829 299.111353 L909.281207 301.722550 L904.007002 313.075044 L961.020226 309.196378 L952.581498 327.360368 L1019.088292 303.047214 L995.881790 352.998185 L1032.209769 369.875641 L1019.551677 397.121625 L983.223698 380.244169 L960.017196 430.195140 L935.704042 363.688347 L927.265314 381.852336 L893.458592 335.780031 L888.184387 347.132524 Z" fill="#888" fill-opacity="0.18" stroke="#000" stroke-width="1"/>
  <path d="M716.970791 815.775854 L718.081080 750.692550 L729.552208 755.703497 L724.359514 698.794906 L742.713318 706.812420 L716.872596 640.884125 L767.345555 662.932290 L783.380584 626.224683 L810.911289 638.250955 L794.876260 674.958562 L845.349220 697.006727 L779.420925 722.847449 L797.774728 730.864964 L752.494462 765.725390 L763.965589 770.736337 Z" fill="#888" fill-opacity="0.18" stroke="#000" stroke-width="1"/>
  <path d="M727.533346 138.696905 L746.299942 201.025743 L733.847590 199.746970 L756.127675 252.369680 L736.203911 250.323644 L780.898231 305.248144 L726.107880 299.621545 L722.015808 339.469073 L692.130162 336.400019 L696.222234 296.552491 L641.431882 290.925892 L696.356383 246.231572 L676.432619 244.185536 L708.942885 197.189425 L696.490532 195.910652 Z" fill="#888" fill-opacity="0.18" stroke="#000" stroke-width="1"/>
  <path d="M686.921760 382.403660 L623.317538 368.562702 L630.478968 358.295751 L573.656021 352.237326 L585.114307 335.810205 L515.400788 348.232291 L546.911076 303.057708 L514.056834 280.141135 L531.244264 255.500453 L564.098506 278.417027 L595.608794 233.242444 L608.030880 302.955963 L619.489167 286.528842 L644.801826 337.761850 L651.963255 327.494899 Z" fill="#888" fill-opacity="0.18" stroke="#000" stroke-width="1"/>
  <path d="M843.703214 321.381879 L819.497647 381.806705 L810.561699 373.040567 L795.156232 428.069863 L780.858715 414.044042 L781.537954 484.852386 L742.219783 446.281378 L714.168141 474.876412 L692.721866 453.837680 L720.773508 425.242647 L681.455337 386.671639 L752.263682 385.992400 L737.966165 371.966578 L792.689803 355.508291 L783.753855 346.742153 Z" fill="#888" fill-opacity="0.18" stroke="#000" stroke-width="1"/>
  <path d="M65.378509 279.805789 L69.627902 214.851868 L80.843880 220.410483 L78.403186 163.317621 L96.348750 172.211404 L73.719298 105.113037 L123.069599 129.570940 L140.857164 93.679812 L167.775510 107.020486 L149.987945 142.911614 L199.338246 167.369517 L132.239878 189.998970 L150.185442 198.892753 L103.275835 231.527711 L114.491812 237.086325 Z" fill="#888" fill-opacity="0.18" stroke="#000" stroke-width="1"/>
  <path d="M812.688963 735.440792 L872.195128 761.824223 L863.110336 770.436010 L917.544030 787.829249 L903.008361 801.608109 L973.794682 803.500130 L933.821594 841.391995 L961.379314 870.463332 L939.575811 891.131622 L912.018091 862.060285 L872.045003 899.952150 L873.937024 829.165829 L859.401356 842.944689 L844.940750 787.659585 L835.855957 796.271372 Z" fill="#888" fill-opacity="0.18" stroke="#000" stroke-width="1"/>
  <path d="M870.035742 679.946007 L823.951638 633.975097 L835.520743 629.194702 L790.947134 593.435155 L809.457701 585.786523 L744.059705 558.631686 L794.963763 537.597949 L779.666499 500.576816 L807.432349 489.103868 L822.729613 526.125001 L873.633670 505.091264 L846.478834 570.489259 L864.989400 562.840627 L858.658951 619.633912 L870.228055 614.853518 Z" fill="#888" fill-opacity="0.18" stroke="#000" stroke-width="1"/>
  <path d="M784.262776 331.219189 L812.479776 272.560259 L820.805547 281.907872 L839.879302 228.040036 L853.200537 242.996217 L857.287902 172.302678 L893.921298 213.432176 L923.833660 186.789706 L943.815512 209.223978 L913.903150 235.866447 L950.536545 276.995945 L879.843006 272.908579 L893.164241 287.864760 L837.457091 300.603098 L845.782862 309.950711 Z" fill="#888" fill-opacity="0.18" stroke="#000" stroke-width="1"/>
  <path d="M1048.066753 215.652368 L989.927976 186.378632 L999.424702 178.223356 L945.910800 158.178056 L961.105563 145.129614 L890.497552 139.763811 L932.283150 103.880597 L906.186267 73.491071 L928.978412 53.918409 L955.075294 84.307935 L996.860892 48.424721 L991.495089 119.032731 L1006.689851 105.984290 L1018.418156 161.912804 L1027.914883 153.757528 Z" fill="#888" fill-opacity="0.18" stroke="#000" stroke-width="1"/>
  <path d="M451.104539 1027.112940 L386.233514 1032.481295 L390.078704 1020.568661 L333.968748 1031.395695 L340.121053 1012.335481 L277.089754 1044.605256 L294.008592 992.189666 L255.888162 979.885057 L265.116619 951.294734 L303.237048 963.599343 L320.155886 911.183753 L352.425662 974.215051 L358.577966 955.154836 L397.769085 996.743393 L401.614275 984.830758 Z" fill="#888" fill-opacity="0.18" stroke="#000" stroke-width="1"/>
  <path d="M54.943830 299.995074 L119.349605 309.427217 L112.911519 320.162551 L170.016643 322.297159 L159.715706 339.473694 L228.409385 322.284701 L200.081808 369.520170 L234.434877 390.122045 L218.983471 415.886846 L184.630402 395.284972 L156.302825 442.520442 L139.113832 373.826763 L128.812895 391.003297 L100.035347 341.633219 L93.597262 352.368553 Z" fill="#888" fill-opacity="0.18" stroke="#000" stroke-width="1"/>
  <path d="M509.775255 361.835458 L468.268208 311.693317 L480.239228 308.033941 L439.265479 268.200491 L458.419110 262.345489 L395.897526 229.098917 L448.570012 212.997660 L436.860007 174.690398 L465.590454 165.907894 L477.300459 204.215157 L529.972944 188.113900 L496.726372 250.635484 L515.880004 244.780482 L504.181267 300.715188 L516.152286 297.055811 Z" fill="#888" fill-opacity="0.18" stroke="#000" stroke-width="1"/>
  <path d="M567.769411 751.365297 L591.055763 690.580308 L600.123635 699.209911 L614.692730 643.953298 L629.201325 657.760664 L627.448252 586.970765 L667.346886 624.941019 L694.961616 595.923831 L716.724508 616.634878 L689.109778 645.652067 L729.008412 683.622321 L658.218513 685.375394 L672.727107 699.182759 L618.259377 716.469118 L627.327249 725.098721 Z" fill="#888" fill-opacity="0.18" stroke="#000" stroke-width="1"/>
  <path d="M227.309258 360.388465 L283.579881 393.109805 L273.609331 400.678456 L325.819144 423.909625 L309.866263 436.019466 L380.023067 445.627065 L336.152645 478.929128 L360.372327 510.834888 L336.443007 528.999650 L312.223325 497.093889 L268.352904 530.395951 L277.960502 460.239148 L262.007622 472.348989 L253.668230 415.815757 L243.697680 423.384407 Z" fill="#888" fill-opacity="0.18" stroke="#000" stroke-width="1"/>
  <path d="M556.944386 562.999694 L610.159751 525.513777 L612.878009 537.732918 L655.774409 499.977778 L660.123621 519.528405 L698.127159 459.778810 L710.087490 513.543033 L749.188743 504.844610 L755.712561 534.170550 L716.611307 542.868973 L728.571639 596.633196 L668.822044 558.629658 L673.171255 578.180285 L618.314523 562.171201 L621.032780 574.390343 Z" fill="#888" fill-opacity="0.18" stroke="#000" stroke-width="1"/>
  <path d="M674.505190 57.824260 L738.728245 68.429370 L732.095455 79.045510 L789.152155 82.221160 L778.539692 99.206985 L847.535414 83.273581 L818.351139 129.984600 L852.322789 151.209528 L836.404093 176.688265 L802.432443 155.463338 L773.248168 202.174357 L757.314764 133.178635 L746.702301 150.164461 L718.829875 100.277792 L712.197086 110.893933 Z" fill="#888" fill-opacity="0.18" stroke="#000" stroke-width="1"/>
  <path d="M123.834362 311.948319 L157.016678 255.948292 L164.503198 265.980657 L188.162317 213.963373 L200.140749 230.015158 L210.324133 159.939615 L243.264820 204.082025 L275.368391 180.125161 L293.336039 204.202839 L261.232468 228.159702 L294.173156 272.302112 L224.097613 262.118729 L236.076045 278.170514 L179.476238 286.045389 L186.962758 296.077755 Z" fill="#888" fill-opacity="0.18" stroke="#000" stroke-width="1"/>
  <path d="M408.281440 101.822101 L409.106767 166.909642 L397.491721 162.241982 L404.374184 218.971018 L385.790110 211.502763 L413.579657 276.633586 L362.473454 256.095884 L347.536943 293.264032 L319.660833 282.061649 L334.597343 244.893501 L283.491140 224.355799 L348.621962 196.566252 L330.037888 189.097997 L374.261628 152.906663 L362.646582 148.239004 Z" fill="#888" fill-opacity="0.18" stroke="#000" stroke-width="1"/>
  <path d="M436.129958 581.884276 L388.127127 625.847867 L383.873444 614.074909 L346.139715 656.990145 L339.333823 638.153413 L309.256722 702.259973 L290.540520 650.458960 L252.867056 664.070743 L242.658218 635.815645 L280.331682 622.203862 L261.615480 570.402848 L325.722040 600.479949 L318.916148 581.643217 L375.366080 590.528994 L371.112397 578.756037 Z" fill="#888" fill-opacity="0.18" stroke="#000" stroke-width="1"/>
  <path d="M597.247627 688.389729 L534.901302 669.681311 L542.833738 659.997674 L486.647835 649.571932 L499.339732 634.078114 L428.875445 641.082916 L463.778161 598.474917 L432.790526 573.091123 L451.828371 549.850396 L482.816007 575.234190 L517.718723 532.626191 L524.723526 603.090478 L537.415423 587.596660 L558.698609 640.630402 L566.631045 630.946766 Z" fill="#888" fill-opacity="0.18" stroke="#000" stroke-width="1"/>
  <path d="M638.148527 46.815362 L659.758816 108.216213 L647.260862 107.510876 L671.935011 159.054432 L651.938285 157.925893 L699.108751 210.739056 L644.117755 207.635572 L641.860676 247.629024 L611.865587 245.936214 L614.122666 205.942763 L559.131671 202.839279 L611.944834 155.668814 L591.948108 154.540274 L622.264955 106.100202 L609.767001 105.394865 Z" fill="#888" fill-opacity="0.18" stroke="#000" stroke-width="1"/>
  <path d="M1043.104688 874.884320 L995.315548 830.688536 L1006.695653 825.474176 L960.801981 791.425348 L979.010149 783.082372 L912.632288 758.419393 L962.704750 735.476208 L946.018797 699.059872 L973.331049 686.545407 L990.017002 722.961743 L1040.089465 700.018558 L1015.426485 766.396419 L1033.634653 758.053443 L1029.455863 815.045456 L1040.835968 809.831095 Z" fill="#888" fill-opacity="0.18" stroke="#000" stroke-width="1"/>
  <path d="M393.781390 93.450898 L456.314107 75.375268 L454.897598 87.812706 L507.763667 66.116381 L505.497253 86.016280 L560.913039 41.932568 L554.680398 96.657292 L594.480197 101.190122 L591.080575 131.039971 L551.280776 126.507142 L545.048135 181.231866 L500.964423 125.816080 L498.698008 145.715979 L452.064579 112.687580 L450.648070 125.125017 Z" fill="#888" fill-opacity="0.18" stroke="#000" stroke-width="1"/>
  <path d="M876.219090 957.292082 L812.975139 941.888450 L820.387319 931.801035 L763.730864 924.344630 L775.590352 908.204766 L705.591974 918.905708 L738.205564 874.521082 L705.925836 850.802108 L723.715067 826.592312 L755.994795 850.311287 L788.608385 805.926661 L799.309326 875.925039 L811.168813 859.785175 L835.211678 911.626206 L842.623857 901.538791 Z" fill="#888" fill-opacity="0.18" stroke="#000" stroke-width="1"/>
  <path d="M461.671995 639.434712 L440.696757 701.055394 L431.309597 692.774237 L418.836717 748.541423 L403.817261 735.291570 L408.241269 805.964841 L366.937766 769.527746 L340.438060 799.566657 L317.908877 779.691878 L344.408582 749.652967 L303.105080 713.215872 L373.778350 708.791865 L358.758895 695.542012 L412.535278 676.211921 L403.148118 667.930763 Z" fill="#888" fill-opacity="0.18" stroke="#000" stroke-width="1"/>
  <path d="M835.939690 742.531185 L859.606866 681.893458 L868.620429 690.579771 L883.535842 635.415631 L897.957542 649.313732 L896.648542 578.514229 L936.308218 616.734006 L964.104419 587.890605 L985.736970 608.737755 L957.940769 637.581156 L997.600445 675.800933 L926.800943 677.109933 L941.222644 691.008033 L886.647554 707.952396 L895.661117 716.638709 Z" fill="#888" fill-opacity="0.18" stroke="#000" stroke-width="1"/>
  <path d="M667.221789 383.391744 L617.291563 425.153469 L613.571303 413.201230 L573.946920 454.377194 L567.994504 435.253612 L535.066588 497.943607 L518.697445 445.353756 L480.450281 457.258587 L471.521658 428.573214 L509.768822 416.668383 L493.399679 364.078533 L556.089673 397.006448 L550.137257 377.882866 L606.130784 389.296752 L602.410524 377.344514 Z" fill="#888" fill-opacity="0.18" stroke="#000" stroke-width="1"/>
  <path d="M458.758902 301.654366 L458.157417 366.744360 L446.647469 361.823239 L452.284871 418.689499 L433.868954 410.815705 L460.224263 476.539983 L409.580490 454.887050 L393.832903 491.718885 L366.209027 479.908195 L381.956614 443.076360 L331.312841 421.423427 L397.037119 395.068118 L378.621202 387.194324 L423.627572 351.980997 L412.117624 347.059876 Z" fill="#888" fill-opacity="0.18" stroke="#000" stroke-width="1"/>
  <path d="M252.934824 595.110633 L211.575796 645.374933 L205.712238 634.315320 L174.373612 682.100698 L164.991921 664.405317 L144.207697 732.097998 L118.408046 683.435701 L83.017284 702.199084 L68.944747 675.656013 L104.335508 656.892630 L78.535856 608.230332 L146.228537 629.014555 L136.846846 611.319175 L193.985124 612.196094 L188.121567 601.136481 Z" fill="#888" fill-opacity="0.18" stroke="#000" stroke-width="1"/>
  <path d="M827.255017 1055.790068 L762.265298 1052.128702 L767.722177 1040.862876 L710.653743 1043.820178 L719.384748 1025.794857 L652.493933 1049.030645 L676.504198 999.461013 L640.453557 981.999002 L653.550066 954.961021 L689.600707 972.423032 L713.610972 922.853401 L736.846760 989.744216 L745.577765 971.718896 L778.635934 1018.331226 L784.092812 1007.065400 Z" fill="#888" fill-opacity="0.18" stroke="#000" stroke-width="1"/>
  <path d="M1030.257251 627.890817 L990.500595 576.349790 L1002.590471 573.104602 L963.011991 531.884513 L982.355792 526.692212 L921.015535 491.313462 L974.210989 477.034633 L963.826386 438.347031 L992.842088 430.558579 L1003.226691 469.246181 L1056.422144 454.967352 L1021.043394 516.307609 L1040.387196 511.115308 L1026.770222 566.614225 L1038.860098 563.369037 Z" fill="#888" fill-opacity="0.18" stroke="#000" stroke-width="1"/>
  <path d="M511.320776 1058.599568 L482.842078 1000.067245 L495.338844 999.341169 L464.941653 950.951473 L484.936478 949.789751 L432.045109 902.706993 L487.030879 899.512257 L484.707435 859.522606 L514.699673 857.780023 L517.023117 897.769674 L572.008887 894.574938 L524.926129 947.466307 L544.920955 946.304584 L520.332375 997.889016 L532.829141 997.162939 Z" fill="#888" fill-opacity="0.18" stroke="#000" stroke-width="1"/>
  <path d="M89.686010 756.537218 L152.237763 738.527571 L150.808132 750.963507 L203.697062 729.322968 L201.409654 749.220466 L256.871918 705.195243 L250.581546 759.913361 L290.376541 764.488177 L286.945428 794.334424 L247.150433 789.759607 L240.860061 844.477725 L196.834838 789.015461 L194.547429 808.912958 L147.948872 775.835379 L146.519242 788.271314 Z" fill="#888" fill-opacity="0.18" stroke="#000" stroke-width="1"/>
  <path d="M74.807131 597.503458 L117.687509 548.530584 L123.209293 559.764739 L155.997989 512.962462 L164.832844 530.937110 L187.682329 463.913353 L211.978178 513.343636 L247.927475 495.673928 L261.179757 522.635900 L225.230460 540.305609 L249.526309 589.735893 L182.502552 566.886407 L191.337407 584.861056 L134.252861 582.233050 L139.774645 593.467205 Z" fill="#888" fill-opacity="0.18" stroke="#000" stroke-width="1"/>
  <path d="M612.028597 817.534446 L546.978540 815.176644 L552.208480 803.803691 L495.210798 807.904431 L503.578701 789.707705 L437.167128 814.279763 L460.178862 764.238766 L423.785410 747.502960 L436.337264 720.207871 L472.730716 736.943677 L495.742450 686.902680 L520.314507 753.314253 L528.682410 735.117527 L562.668359 781.057783 L567.898298 769.684829 Z" fill="#888" fill-opacity="0.18" stroke="#000" stroke-width="1"/>
  <path d="M437.051163 974.092968 L380.157112 942.468040 L389.979145 934.707626 L337.329018 912.492406 L353.044270 900.075744 L282.714485 891.829269 L325.931428 857.683449 L301.098104 826.252944 L324.670983 807.627952 L349.504306 839.058456 L392.721250 804.912635 L384.474774 875.242420 L400.190026 862.825758 L409.623210 919.186798 L419.445242 911.426385 Z" fill="#888" fill-opacity="0.18" stroke="#000" stroke-width="1"/>
  <path d="M197.564261 1057.931062 L181.077015 994.960911 L193.474619 996.691737 L173.123192 943.293505 L192.959358 946.062825 L150.292244 889.549107 L204.841702 897.164739 L210.380343 857.492406 L240.134593 861.646387 L234.595952 901.318720 L289.145409 908.934352 L232.631691 951.601467 L252.467858 954.370788 L218.269827 1000.153388 L230.667431 1001.884213 Z" fill="#888" fill-opacity="0.18" stroke="#000" stroke-width="1"/>
  <path d="M104.983542 979.367754 L82.218515 918.385603 L94.727553 918.854988 L69.085211 867.786191 L89.099671 868.537207 L40.941061 816.623516 L95.980826 818.688811 L97.482858 778.659890 L127.504549 779.786414 L126.002516 819.815335 L181.042282 821.880629 L129.128591 870.039239 L149.143051 870.790255 L119.745628 919.793758 L132.254666 920.263144 Z" fill="#888" fill-opacity="0.18" stroke="#000" stroke-width="1"/>
  <path d="M68.656865 597.040360 L61.645441 532.326304 L73.651740 535.868215 L61.405527 480.050816 L80.615605 485.717873 L46.758054 423.525034 L99.585769 439.109443 L110.919885 400.689287 L139.735002 409.189874 L128.400886 447.610030 L181.228600 463.194439 L119.035761 497.051989 L138.245839 502.719047 L97.664337 542.952037 L109.670636 546.493948 Z" fill="#888" fill-opacity="0.18" stroke="#000" stroke-width="1"/>
  <path d="M887.805462 1056.353874 L902.226167 992.878584 L912.427350 1000.133391 L919.003974 943.368086 L935.325866 954.975776 L923.540361 885.151820 L968.425565 917.072968 L991.640946 884.429184 L1016.123784 901.840719 L992.908403 934.484504 L1037.793607 966.405652 L967.969651 978.191157 L984.291543 989.798847 L932.829715 1014.643004 L943.030898 1021.897810 Z" fill="#888" fill-opacity="0.18" stroke="#000" stroke-width="1"/>
  <path d="M395.351800 59.967372 L360.448402 114.911179 L353.276676 104.651418 L328.015431 155.909796 L316.540669 139.494179 L304.188531 209.220126 L272.632936 164.077179 L239.801702 187.026703 L222.589559 162.403278 L255.420793 139.453754 L223.865198 94.310807 L293.591145 106.662945 L282.116383 90.247328 L338.933223 84.131897 L331.761497 73.872136 Z" fill="#888" fill-opacity="0.18" stroke="#000" stroke-width="1"/>
  <path d="M598.386558 1015.971541 L584.216469 952.439834 L596.542370 954.623525 L578.160148 900.515801 L597.881590 904.009705 L557.312746 845.971340 L611.546711 855.579577 L618.534520 816.136693 L648.116683 821.377549 L641.128874 860.820433 L695.362840 870.428670 L637.324474 910.997514 L657.045916 914.491418 L621.194173 958.990905 L633.520074 961.174595 Z" fill="#888" fill-opacity="0.18" stroke="#000" stroke-width="1"/>
  <path d="M854.785558 320.002782 L890.693639 374.295312 L878.399989 376.653808 L914.880003 420.639719 L895.210162 424.413312 L953.818747 464.153931 L899.726685 474.531313 L907.273872 513.870994 L877.769111 519.531384 L870.221924 480.191702 L816.129862 490.569084 L855.870481 431.960499 L836.200640 435.734092 L853.812688 381.370800 L841.519037 383.729295 Z" fill="#888" fill-opacity="0.18" stroke="#000" stroke-width="1"/>
</svg>
