<?xml version="1.0" encoding="UTF-8"?>
<svg xmlns="http://www.w3.org/2000/svg" width="1100" height="1100" viewBox="0 0 1100 1100">
  <rect x="0" y="0" width="1100" height="1100" fill="white"/>
  <text x="10.0" y="18.0" font-family="monospace" font-size="12">prefix=N52_job5048452_task52 run_id=52 L=5.66461526099 feas=0.000e+00 N=52</text>
  <rect x="40.000000" y="40.000000" width="1020.000000" height="1020.000000" fill="none" stroke="#000" stroke-width="2"/>
  <path d="M44.749831 674.103233 L52.084986 616.043568 L61.848895 621.640021 L62.754106 570.272192 L78.376360 579.226516 L61.706537 517.785073 L104.667733 542.409464 L122.576381 511.164958 L146.009760 524.596444 L128.101113 555.840950 L171.062309 580.465341 L109.620866 597.135164 L125.243119 606.089488 L81.376711 632.832926 L91.140619 638.429378 Z" fill="#888" fill-opacity="0.18" stroke="#000" stroke-width="1"/>
  <path d="M139.028505 284.564883 L193.107262 306.930420 L185.137140 314.875943 L234.453502 329.276278 L221.701308 341.989116 L285.363889 342.087508 L250.295354 377.047812 L275.721029 402.552201 L256.592737 421.621457 L231.167062 396.117068 L196.098527 431.077372 L196.196918 367.414791 L183.444724 380.127629 L169.196897 330.766991 L161.226775 338.712514 Z" fill="#888" fill-opacity="0.18" stroke="#000" stroke-width="1"/>
  <path d="M734.176943 923.341843 L709.540424 870.259161 L720.785613 869.812049 L694.257746 825.814941 L712.250049 825.099560 L665.480842 781.907256 L714.959673 779.939960 L713.528912 743.955355 L740.517366 742.882284 L741.948127 778.866889 L791.426958 776.899593 L748.234653 823.668800 L766.226956 822.953419 L743.275991 868.917823 L754.521180 868.470710 Z" fill="#888" fill-opacity="0.18" stroke="#000" stroke-width="1"/>
  <path d="M514.828536 455.093233 L507.103601 513.102323 L497.377500 507.440419 L496.127308 558.801009 L480.565547 549.741964 L496.822336 611.293980 L454.027493 586.381605 L435.909402 617.505127 L412.566760 603.916559 L430.684851 572.793037 L387.890009 547.880662 L449.442025 531.623873 L433.880264 522.564827 L477.925299 496.116612 L468.199198 490.454709 Z" fill="#888" fill-opacity="0.18" stroke="#000" stroke-width="1"/>
  <path d="M414.068042 745.227972 L362.665832 717.254020 L371.433561 710.198447 L323.922265 690.649793 L337.950631 679.360876 L274.657422 672.512253 L313.235429 641.467731 L290.657595 613.410998 L311.700144 596.477622 L334.277978 624.534355 L372.855986 593.489832 L366.007363 656.783041 L380.035729 645.494124 L388.969019 696.087300 L397.736748 689.031727 Z" fill="#888" fill-opacity="0.18" stroke="#000" stroke-width="1"/>
  <path d="M800.981236 455.955824 L837.752121 501.481983 L826.950815 504.642040 L863.353916 540.895142 L846.071825 545.951233 L901.917279 576.516233 L854.391529 590.420482 L864.503710 624.984664 L838.580574 632.568799 L828.468393 598.004618 L780.942644 611.908867 L811.507644 556.063414 L794.225553 561.119505 L805.348201 510.962153 L794.546895 514.122210 Z" fill="#888" fill-opacity="0.18" stroke="#000" stroke-width="1"/>
  <path d="M533.721696 950.948234 L554.504942 896.241874 L562.678908 903.977536 L575.638832 854.263217 L588.717177 866.640276 L586.963963 803.001765 L622.929412 837.038678 L647.683531 810.881988 L667.301049 829.447577 L642.546930 855.604267 L678.512379 889.641181 L614.873867 891.394395 L627.952213 903.771454 L579.026840 919.448861 L587.200805 927.184523 Z" fill="#888" fill-opacity="0.18" stroke="#000" stroke-width="1"/>
  <path d="M748.751168 228.777469 L801.783296 253.522619 L793.468171 261.106344 L842.096345 277.682649 L828.792146 289.816609 L892.387544 292.742209 L855.800995 326.110599 L880.068914 352.718998 L860.112614 370.919938 L835.844695 344.311538 L799.258145 377.679927 L802.183746 314.084528 L788.879546 326.218488 L776.837922 276.273794 L768.522797 283.857518 Z" fill="#888" fill-opacity="0.18" stroke="#000" stroke-width="1"/>
  <path d="M580.454723 824.889783 L542.868791 869.745405 L537.686279 859.755623 L509.128676 902.463192 L500.836657 886.479540 L481.607575 947.168718 L458.804522 903.213675 L426.837218 919.797713 L414.399189 895.822235 L446.366493 879.238197 L423.563441 835.283154 L484.252618 854.512236 L475.960599 838.528584 L527.321256 839.776058 L522.138744 829.786275 Z" fill="#888" fill-opacity="0.18" stroke="#000" stroke-width="1"/>
  <path d="M748.024222 888.838901 L799.472834 916.727419 L790.716839 923.797548 L838.260547 943.267244 L824.250954 954.579452 L887.555453 961.322915 L849.029074 992.431484 L871.653489 1020.450669 L850.639100 1037.418980 L828.014686 1009.399795 L789.488306 1040.508365 L796.231769 977.203866 L782.222177 988.516073 L773.204848 937.937807 L764.448853 945.007937 Z" fill="#888" fill-opacity="0.18" stroke="#000" stroke-width="1"/>
  <path d="M332.922279 149.600275 L321.482355 206.992411 L312.140550 200.716675 L307.589576 251.890514 L292.642688 241.849336 L304.906963 304.319501 L263.803021 276.706261 L243.720665 306.600037 L221.300333 291.538270 L241.382689 261.644494 L200.278748 234.031255 L262.748912 221.766980 L247.802025 211.725802 L293.456940 188.165202 L284.115135 181.889466 Z" fill="#888" fill-opacity="0.18" stroke="#000" stroke-width="1"/>
  <path d="M609.624275 43.565642 L568.261427 84.964240 L563.971945 74.559696 L531.790628 114.607617 L524.927458 97.960347 L500.467207 156.736448 L481.593490 110.956454 L448.298949 124.682795 L438.004194 99.711889 L471.298735 85.985549 L452.425017 40.205556 L511.201118 64.665806 L504.337948 48.018536 L555.392983 53.750608 L551.103501 43.346064 Z" fill="#888" fill-opacity="0.18" stroke="#000" stroke-width="1"/>
  <path d="M977.262642 891.971706 L919.270190 899.820570 L922.166283 888.945514 L872.294657 901.286263 L876.928406 883.886175 L821.843812 915.802023 L834.586622 867.951780 L799.786445 858.684282 L806.737068 832.584149 L841.537245 841.851647 L854.280055 794.001404 L886.195904 849.085998 L890.829653 831.685909 L927.958469 867.195404 L930.854563 856.320348 Z" fill="#888" fill-opacity="0.18" stroke="#000" stroke-width="1"/>
  <path d="M1044.559716 583.833514 L1046.558581 642.320552 L1036.028422 638.349416 L1043.310228 689.206554 L1026.461972 682.852736 L1052.698066 740.857920 L1006.365364 723.384920 L993.657728 757.081431 L968.385345 747.550704 L981.092981 713.854193 L934.760278 696.381194 L992.765462 670.145100 L975.917206 663.791282 L1014.968102 630.407144 L1004.437943 626.436007 Z" fill="#888" fill-opacity="0.18" stroke="#000" stroke-width="1"/>
  <path d="M281.755162 873.588652 L320.043443 917.846270 L309.355088 921.369514 L346.962445 956.371798 L329.861077 962.008988 L386.707473 990.669433 L339.678710 1006.171706 L350.953090 1040.374443 L325.301038 1048.830228 L314.026658 1014.627492 L266.997895 1030.129765 L295.658340 973.283368 L278.556972 978.920559 L287.978378 928.416001 L277.290023 931.939245 Z" fill="#888" fill-opacity="0.18" stroke="#000" stroke-width="1"/>
  <path d="M113.844199 310.758925 L143.452575 361.237368 L132.301936 362.759680 L162.922590 404.013150 L145.081568 406.448849 L195.773372 444.962157 L146.710560 451.660330 L151.581959 487.342375 L124.820425 490.995924 L119.949026 455.313879 L70.886215 462.012052 L109.399523 411.320248 L91.558500 413.755947 L110.000658 365.804304 L98.850019 367.326616 Z" fill="#888" fill-opacity="0.18" stroke="#000" stroke-width="1"/>
  <path d="M368.544548 543.723507 L311.532433 530.519421 L318.093226 521.375561 L267.084040 515.248881 L277.581309 500.618705 L214.762696 510.950974 L243.630185 470.717989 L214.369833 449.723451 L230.115736 427.778187 L259.376089 448.772724 L288.243578 408.539739 L298.575847 471.358352 L309.073115 456.728176 L331.214812 503.087840 L337.775605 493.943980 Z" fill="#888" fill-opacity="0.18" stroke="#000" stroke-width="1"/>
  <path d="M745.123946 270.964539 L769.537130 324.150304 L758.290161 324.550147 L784.632864 368.658369 L766.637714 369.298117 L813.224961 412.686621 L763.738298 414.445930 L765.017795 450.436231 L738.025070 451.395854 L736.745572 415.405553 L687.258909 417.164862 L730.647413 370.577614 L712.652263 371.217363 L735.796223 325.349833 L724.549254 325.749676 Z" fill="#888" fill-opacity="0.18" stroke="#000" stroke-width="1"/>
  <path d="M237.896943 1057.624282 L181.198746 1043.131401 L187.965101 1034.138591 L137.107881 1026.857355 L147.934048 1012.468859 L84.897390 1021.374682 L114.669350 981.806318 L85.892358 960.153983 L102.131608 938.571239 L130.908600 960.223574 L160.680560 920.655210 L169.586382 983.691867 L180.412549 969.303371 L201.497810 1016.152971 L208.264164 1007.160161 Z" fill="#888" fill-opacity="0.18" stroke="#000" stroke-width="1"/>
  <path d="M696.266654 912.105366 L666.236107 962.333798 L659.541011 953.287811 L638.086273 999.969365 L627.374121 985.495785 L617.970555 1048.460115 L588.512135 1008.657773 L559.564976 1030.082078 L543.496747 1008.371709 L572.443905 986.947404 L542.985485 947.145061 L605.949815 956.548627 L595.237662 942.075048 L646.150821 935.195837 L639.455725 926.149850 Z" fill="#888" fill-opacity="0.18" stroke="#000" stroke-width="1"/>
  <path d="M549.433112 556.067080 L545.897438 614.481361 L535.789554 609.533143 L538.234031 660.850760 L522.061415 652.933612 L542.700084 713.158019 L498.225392 691.385863 L482.391097 723.731094 L458.132174 711.855372 L473.966469 679.510142 L429.491777 657.737986 L489.716185 637.099317 L473.543569 629.182169 L515.573785 599.636709 L505.465900 594.688492 Z" fill="#888" fill-opacity="0.18" stroke="#000" stroke-width="1"/>
  <path d="M86.583066 119.315425 L144.104882 108.546496 L141.761954 119.553988 L190.946362 104.709218 L187.197678 122.321205 L240.599356 87.662950 L230.290473 136.095913 L265.514447 143.593283 L259.891420 170.011263 L224.667446 162.513893 L214.358563 210.946857 L179.700308 157.545178 L175.951624 175.157165 L137.076098 141.568971 L134.733170 152.576463 Z" fill="#888" fill-opacity="0.18" stroke="#000" stroke-width="1"/>
  <path d="M661.369212 765.476976 L667.273273 707.254376 L677.171955 712.608839 L676.812709 661.234292 L692.650600 669.801433 L674.473727 608.788851 L718.027927 632.348491 L735.162211 600.672709 L758.919047 613.523421 L741.784764 645.199203 L785.338964 668.758843 L724.326382 686.935717 L740.164274 695.502858 L696.969319 723.317766 L706.868001 728.672230 Z" fill="#888" fill-opacity="0.18" stroke="#000" stroke-width="1"/>
  <path d="M282.019966 316.263235 L339.253944 304.056640 L337.187513 315.119373 L385.984591 299.047086 L382.678301 316.747458 L435.194955 280.762254 L426.102658 329.438276 L461.503401 336.050856 L456.543966 362.601413 L421.143223 355.988834 L412.050925 404.664856 L376.065721 352.148202 L372.759431 369.848573 L333.054650 337.244837 L330.988219 348.307570 Z" fill="#888" fill-opacity="0.18" stroke="#000" stroke-width="1"/>
  <path d="M699.230796 379.500288 L661.242211 334.985160 L671.954111 331.534164 L634.583944 296.278756 L651.722984 290.757161 L595.071396 261.713548 L642.203757 246.529162 L631.160567 212.251081 L656.869127 203.968689 L667.912317 238.246769 L715.044678 223.062383 L686.001064 279.713971 L703.140105 274.192376 L693.377912 324.632170 L704.089812 321.181173 Z" fill="#888" fill-opacity="0.18" stroke="#000" stroke-width="1"/>
  <path d="M118.194518 865.737092 L167.903652 834.854553 L169.709048 845.962871 L210.170448 814.302986 L213.059082 832.076295 L250.270768 780.421437 L258.214512 829.298036 L293.761130 823.520768 L298.094081 850.180731 L262.547464 855.957999 L270.491208 904.834598 L218.836350 867.622912 L221.724985 885.396221 L173.319841 868.179507 L175.125237 879.287825 Z" fill="#888" fill-opacity="0.18" stroke="#000" stroke-width="1"/>
  <path d="M768.036888 600.912270 L715.247421 575.653582 L723.635758 568.150917 L675.170756 551.103431 L688.592095 539.099167 L625.028086 535.556479 L661.936770 502.544752 L637.928241 475.702073 L658.060251 457.695677 L682.068779 484.538356 L718.977462 451.526630 L715.434774 515.090639 L728.856114 503.086375 L740.412432 553.145587 L748.800769 545.642922 Z" fill="#888" fill-opacity="0.18" stroke="#000" stroke-width="1"/>
  <path d="M1032.891912 871.025424 L1026.475583 929.193799 L1016.624417 923.752411 L1016.531431 975.128131 L1000.769565 966.421910 L1018.408680 1027.592128 L975.063547 1003.650021 L957.651106 1035.173754 L934.008306 1022.114423 L951.420747 990.590690 L908.075614 966.648583 L969.245832 949.009469 L953.483966 940.303248 L996.922083 912.869635 L987.070917 907.428247 Z" fill="#888" fill-opacity="0.18" stroke="#000" stroke-width="1"/>
  <path d="M472.290308 732.163030 L443.847739 783.307428 L436.872592 774.475581 L416.890529 821.806231 L405.730294 807.675276 L398.303495 870.903249 L367.612849 832.043125 L339.350941 854.363594 L322.610588 833.167163 L350.872497 810.846693 L320.181852 771.986568 L383.409824 779.413367 L372.249590 765.282413 L422.922298 756.811888 L415.947152 747.980042 Z" fill="#888" fill-opacity="0.18" stroke="#000" stroke-width="1"/>
  <path d="M44.718703 902.056204 L49.251769 843.710849 L59.273647 848.831020 L57.706201 797.479133 L73.741205 805.671406 L54.134379 745.103211 L98.230641 767.631964 L114.615188 735.561956 L138.667695 747.850367 L122.283147 779.920375 L166.379409 802.449128 L105.811214 822.055954 L121.846218 830.248228 L79.317402 859.071362 L89.339280 864.191533 Z" fill="#888" fill-opacity="0.18" stroke="#000" stroke-width="1"/>
  <path d="M51.214393 743.509109 L82.159147 693.838682 L88.687570 703.005682 L110.993039 656.724593 L121.438515 671.391792 L131.992825 608.610103 L160.717883 648.944902 L190.052283 628.053951 L205.720497 650.054750 L176.386097 670.945702 L205.111156 711.280501 L142.329467 700.726192 L152.774943 715.393391 L101.744415 721.339681 L108.272837 730.506681 Z" fill="#888" fill-opacity="0.18" stroke="#000" stroke-width="1"/>
  <path d="M440.516664 122.667231 L439.866614 181.184806 L429.526959 176.741189 L434.499733 227.875764 L417.956286 220.765977 L441.540438 279.899062 L396.045958 260.347149 L381.826385 293.434043 L357.011214 282.769364 L371.230787 249.682469 L325.736307 230.130556 L384.869391 206.546404 L368.325944 199.436618 L408.847650 167.853956 L398.507996 163.410339 Z" fill="#888" fill-opacity="0.18" stroke="#000" stroke-width="1"/>
  <path d="M434.179634 124.858508 L378.620275 143.240205 L379.466672 132.018004 L332.715795 153.321259 L334.070030 135.365737 L285.795638 176.868954 L289.519784 127.491269 L253.608741 124.782799 L255.640094 97.849516 L291.551137 100.557987 L295.275283 51.180302 L336.778500 99.454694 L338.132735 81.499172 L381.159466 109.573602 L382.005863 98.351401 Z" fill="#888" fill-opacity="0.18" stroke="#000" stroke-width="1"/>
  <path d="M373.040461 562.454730 L322.130916 591.315559 L320.773191 580.143685 L279.072691 610.152708 L276.900331 592.277710 L237.643736 642.396107 L231.669745 593.239862 L195.919749 597.584582 L192.661208 570.772085 L228.411204 566.427364 L222.437213 517.271119 L272.555610 556.527714 L270.383250 538.652715 L318.057741 557.799937 L316.700016 546.628063 Z" fill="#888" fill-opacity="0.18" stroke="#000" stroke-width="1"/>
  <path d="M1055.237007 539.408202 L1018.458581 584.928270 L1013.098394 575.032686 L985.308472 618.243720 L976.732172 602.410787 L958.590588 663.433871 L935.005763 619.893304 L903.339896 637.045904 L890.475445 613.296503 L922.141313 596.143903 L898.556487 552.603336 L959.579572 570.744919 L951.003272 554.911986 L1002.378018 555.241519 L997.017831 545.345936 Z" fill="#888" fill-opacity="0.18" stroke="#000" stroke-width="1"/>
  <path d="M553.537637 482.786189 L598.131950 520.681787 L588.106524 525.795009 L630.615345 554.647623 L614.574665 562.828777 L675.129251 582.477593 L631.017380 604.975767 L647.379688 637.057128 L623.318668 649.328859 L606.956359 617.247498 L562.844488 639.745672 L582.493304 579.191085 L566.452623 587.372239 L568.055674 536.021451 L558.030249 541.134673 Z" fill="#888" fill-opacity="0.18" stroke="#000" stroke-width="1"/>
  <path d="M774.219310 854.060408 L784.609639 796.469000 L794.064450 802.573157 L797.680492 751.324767 L812.808190 761.091418 L799.405572 698.855546 L841.006741 725.713836 L860.540043 695.458440 L883.231590 710.108416 L863.698288 740.363812 L905.299458 767.222101 L843.063586 780.624719 L858.191284 790.391370 L812.974073 814.781470 L822.428884 820.885627 Z" fill="#888" fill-opacity="0.18" stroke="#000" stroke-width="1"/>
  <path d="M823.597894 377.133237 L876.374708 402.418351 L867.982616 409.916815 L916.439077 426.988563 L903.011730 438.986106 L966.573957 442.560617 L929.648751 475.553861 L953.643837 502.408556 L933.502816 520.404871 L909.507729 493.550176 L872.582523 526.543420 L876.157034 462.981192 L862.729686 474.978736 L851.198431 424.913744 L842.806339 432.412209 Z" fill="#888" fill-opacity="0.18" stroke="#000" stroke-width="1"/>
  <path d="M1007.325279 206.182687 L956.113680 234.504079 L954.874054 223.318485 L912.858855 252.885296 L910.875453 234.988345 L871.091581 284.689225 L865.637227 235.472611 L829.843327 239.439414 L826.868224 212.593989 L862.662125 208.627186 L857.207771 159.410573 L906.908651 199.194445 L904.925249 181.297494 L952.394802 200.947297 L951.155176 189.761703 Z" fill="#888" fill-opacity="0.18" stroke="#000" stroke-width="1"/>
  <path d="M447.291248 321.206750 L447.087292 262.685920 L457.490690 266.978178 L451.772248 215.921615 L468.417685 222.789229 L443.973125 164.006601 L489.748079 182.892538 L503.483306 149.601663 L528.451463 159.903084 L514.716235 193.193959 L560.491189 212.079897 L501.708560 236.524456 L518.353998 243.392070 L478.297487 275.562695 L488.700886 279.854954 Z" fill="#888" fill-opacity="0.18" stroke="#000" stroke-width="1"/>
  <path d="M528.702475 413.868695 L520.771771 355.887379 L531.650903 358.768120 L519.239779 308.913961 L536.646390 313.523148 L504.652829 258.483653 L552.521010 271.158917 L561.739383 236.345694 L587.849300 243.259474 L578.630926 278.072697 L626.499107 290.747960 L571.459612 322.741521 L588.866223 327.350708 L553.409167 364.529604 L564.288299 367.410345 Z" fill="#888" fill-opacity="0.18" stroke="#000" stroke-width="1"/>
  <path d="M1043.879593 159.304435 L985.549761 164.033047 L989.024699 153.328889 L938.563205 162.978283 L944.123106 145.851631 L887.406723 174.768508 L902.696451 127.670215 L868.443147 116.550413 L876.782998 90.860435 L911.036302 101.980237 L926.326031 54.881944 L955.242908 111.598327 L960.802809 94.471675 L995.974575 131.920574 L999.449513 121.216417 Z" fill="#888" fill-opacity="0.18" stroke="#000" stroke-width="1"/>
  <path d="M485.487365 453.187043 L428.101158 464.656672 L430.309672 453.621426 L381.309959 469.064915 L384.843580 451.408521 L331.868543 486.715453 L341.586001 438.160370 L306.273214 431.093128 L311.573645 404.608538 L346.886432 411.675780 L356.603890 363.120698 L391.910822 416.095734 L395.444443 398.439340 L434.726698 431.550934 L436.935211 420.515688 Z" fill="#888" fill-opacity="0.18" stroke="#000" stroke-width="1"/>
  <path d="M615.682168 825.403504 L590.591752 772.533851 L601.832698 771.990408 L574.928847 728.222200 L592.914360 727.352692 L545.776808 684.562681 L595.236968 682.171533 L593.497952 646.200508 L620.476221 644.896246 L622.215237 680.867271 L671.675397 678.476123 L628.885386 725.613676 L646.870898 724.744167 L624.314589 770.903523 L635.555534 770.360080 Z" fill="#888" fill-opacity="0.18" stroke="#000" stroke-width="1"/>
  <path d="M370.694219 1034.712773 L417.226599 999.223807 L420.084672 1010.108917 L457.337350 974.729386 L461.910266 992.145561 L494.018414 937.172834 L506.593932 985.067316 L541.426282 975.921484 L548.285656 1002.045747 L513.453306 1011.191578 L526.028824 1059.086060 L471.056097 1026.977912 L475.629013 1044.394087 L425.800816 1031.879135 L428.658889 1042.764245 Z" fill="#888" fill-opacity="0.18" stroke="#000" stroke-width="1"/>
  <path d="M715.752907 43.469945 L758.656337 83.269755 L748.417952 87.941975 L789.631282 118.616632 L773.249866 126.092185 L832.892290 148.356845 L787.843394 168.914616 L802.794500 201.677449 L778.222374 212.890779 L763.271268 180.127945 L718.222372 200.685716 L740.487032 141.043291 L724.105615 148.518844 L727.941181 97.286417 L717.702795 101.958637 Z" fill="#888" fill-opacity="0.18" stroke="#000" stroke-width="1"/>
  <path d="M220.583315 277.538213 L162.073407 276.389399 L166.604994 266.087996 L115.429891 270.624732 L122.680430 254.142488 L63.348469 277.221749 L83.287454 231.895577 L50.322965 217.394497 L61.198775 192.671130 L94.163264 207.172210 L114.102249 161.846038 L137.181510 221.177999 L144.432050 204.695754 L175.668169 245.485190 L180.199756 235.183787 Z" fill="#888" fill-opacity="0.18" stroke="#000" stroke-width="1"/>
  <path d="M564.281744 217.293303 L582.531401 161.690433 L591.051907 169.042655 L601.715685 118.785745 L615.348494 130.549301 L610.675363 67.058390 L648.165586 99.408170 L671.692698 72.142553 L692.141910 89.787887 L668.614798 117.053504 L706.105021 149.403283 L642.614110 154.076413 L656.246918 165.839969 L608.092917 183.747100 L616.613422 191.099323 Z" fill="#888" fill-opacity="0.18" stroke="#000" stroke-width="1"/>
  <path d="M166.335576 752.599085 L220.244294 729.826750 L220.299389 741.080689 L265.193937 716.101642 L265.282089 734.107945 L310.077465 688.871807 L310.319884 738.389140 L346.332490 738.212835 L346.464718 765.222290 L310.452112 765.398594 L310.694531 814.915927 L265.458393 770.120550 L265.546546 788.126853 L220.409579 763.588567 L220.464674 774.842507 Z" fill="#888" fill-opacity="0.18" stroke="#000" stroke-width="1"/>
  <path d="M472.312478 427.607293 L526.105296 404.562511 L526.217327 415.816028 L570.984924 390.610167 L571.164174 408.615794 L615.730116 363.153604 L616.223052 412.669076 L652.234305 412.310577 L652.503179 439.319017 L616.491927 439.677516 L616.984863 489.192988 L571.522673 444.627047 L571.701923 462.632673 L526.441389 438.323061 L526.553420 449.576577 Z" fill="#888" fill-opacity="0.18" stroke="#000" stroke-width="1"/>
  <path d="M1057.226018 286.607473 L1056.976934 345.128128 L1046.607076 340.755461 L1051.930097 391.854763 L1035.338323 384.858496 L1059.327090 443.828598 L1013.699712 424.588864 L999.707178 457.772412 L974.819517 447.278011 L988.812051 414.094463 L943.184673 394.854729 L1002.154776 370.865962 L985.563002 363.869695 L1025.867358 332.010127 L1015.497500 327.637461 Z" fill="#888" fill-opacity="0.18" stroke="#000" stroke-width="1"/>
  <path d="M1052.986641 777.292488 L1000.454744 803.082582 L999.762116 791.849842 L956.354937 819.332382 L955.246733 801.359998 L913.086284 849.061471 L910.038721 799.637414 L874.093952 801.853824 L872.431645 774.895247 L908.376414 772.678838 L905.328851 723.254781 L953.030323 765.415230 L951.922118 747.442845 L998.376860 769.384362 L997.684232 758.151622 Z" fill="#888" fill-opacity="0.18" stroke="#000" stroke-width="1"/>
</svg>
