<?xml version="1.0" encoding="UTF-8"?>
<svg xmlns="http://www.w3.org/2000/svg" width="1100" height="1100" viewBox="0 0 1100 1100">
  <rect x="0" y="0" width="1100" height="1100" fill="white"/>
  <text x="10.0" y="18.0" font-family="monospace" font-size="12">prefix=N57_job5048457_task57 run_id=57 L=5.98053352568 feas=0.000e+00 N=57</text>
  <rect x="40.000000" y="40.000000" width="1020.000000" height="1020.000000" fill="none" stroke="#000" stroke-width="2"/>
  <path d="M422.887196 826.577257 L457.107656 782.971902 L462.317152 792.271788 L488.055804 750.974052 L496.390998 765.853870 L512.752556 707.816340 L535.674341 748.735838 L565.433976 732.065449 L577.936767 754.385176 L548.177132 771.055565 L571.098917 811.975063 L513.061387 795.613505 L521.396581 810.493323 L472.736145 810.871560 L477.945642 820.171445 Z" fill="#888" fill-opacity="0.18" stroke="#000" stroke-width="1"/>
  <path d="M463.092234 416.881014 L456.672188 471.937802 L447.373650 466.725901 L446.982832 515.386238 L432.105170 507.047197 L448.451723 565.088955 L407.538152 542.156592 L390.860070 571.911916 L368.543577 559.403355 L385.221659 529.648030 L344.308088 506.715668 L402.349846 490.369115 L387.472184 482.030074 L428.776572 456.302100 L419.478033 451.090199 Z" fill="#888" fill-opacity="0.18" stroke="#000" stroke-width="1"/>
  <path d="M752.234545 70.918808 L708.363009 104.797343 L705.594004 94.503687 L670.511192 128.225749 L666.080784 111.755900 L635.982182 164.006542 L623.798560 118.714458 L590.858862 127.575273 L584.213251 102.870500 L617.152948 94.009684 L604.969327 48.717600 L657.219969 78.816202 L652.789561 62.346353 L700.055994 73.916376 L697.286989 63.622721 Z" fill="#888" fill-opacity="0.18" stroke="#000" stroke-width="1"/>
  <path d="M120.415014 716.568314 L137.496377 769.300599 L126.872202 768.432477 L146.772897 812.839046 L129.774217 811.450051 L168.798428 857.419241 L122.052057 853.599502 L119.274066 887.596862 L93.776046 885.513369 L96.554037 851.516008 L49.807667 847.696270 L95.776857 808.672059 L78.778177 807.283063 L105.623851 766.696232 L94.999676 765.828110 Z" fill="#888" fill-opacity="0.18" stroke="#000" stroke-width="1"/>
  <path d="M934.804516 757.168148 L881.708733 741.252600 L888.461181 733.004499 L840.613389 724.140530 L851.417306 710.943568 L791.415108 716.926182 L821.125879 680.634535 L794.731955 659.026701 L810.937830 639.231258 L837.331755 660.839091 L867.042526 624.547445 L873.025140 684.549643 L883.829057 671.352680 L901.966077 716.508296 L908.718525 708.260194 Z" fill="#888" fill-opacity="0.18" stroke="#000" stroke-width="1"/>
  <path d="M172.011502 960.871406 L179.651223 905.970573 L188.831865 911.387449 L190.301956 862.747754 L204.990983 871.414755 L189.935918 813.024683 L230.330743 836.858937 L247.664746 807.480882 L269.698287 820.481385 L252.364284 849.859439 L292.759109 873.693693 L234.369037 888.748758 L249.058065 897.415759 L207.193149 922.221200 L216.373791 927.638076 Z" fill="#888" fill-opacity="0.18" stroke="#000" stroke-width="1"/>
  <path d="M550.361266 431.845993 L600.590934 455.286286 L592.714723 462.469045 L638.773425 478.171817 L626.171488 489.664233 L686.407370 492.438037 L651.752042 524.042180 L674.736873 549.246054 L655.833967 566.484678 L632.849136 541.280803 L598.193809 572.884946 L600.967613 512.649064 L588.365676 524.141479 L576.962301 476.834565 L569.086090 484.017324 Z" fill="#888" fill-opacity="0.18" stroke="#000" stroke-width="1"/>
  <path d="M440.804943 48.378885 L484.363800 82.658512 L475.056850 87.855378 L516.319604 113.650072 L501.428484 121.965058 L559.443748 138.405394 L518.493168 161.271604 L535.123139 191.053844 L512.786460 203.526322 L496.156488 173.744083 L455.205909 196.610293 L471.646244 138.595029 L456.755124 146.910015 L456.442950 98.249110 L447.136000 103.445976 Z" fill="#888" fill-opacity="0.18" stroke="#000" stroke-width="1"/>
  <path d="M759.616265 675.227406 L704.769174 667.210958 L710.248949 658.067721 L661.620493 656.263741 L670.388134 641.634561 L611.896082 656.288410 L636.007094 616.058164 L606.748733 598.522883 L619.900195 576.579113 L649.158555 594.114394 L673.269567 553.884149 L687.923415 612.376201 L696.691056 597.747021 L721.208500 639.781246 L726.688276 630.638008 Z" fill="#888" fill-opacity="0.18" stroke="#000" stroke-width="1"/>
  <path d="M648.761732 901.970166 L702.144345 887.044905 L700.845382 897.625048 L746.023674 879.544588 L743.945332 896.472817 L791.461759 859.348100 L785.746319 905.900729 L819.602776 910.057413 L816.485263 935.449756 L782.628806 931.293072 L776.913366 977.845702 L739.788648 930.329275 L737.710306 947.257504 L698.247454 918.785334 L696.948491 929.365477 Z" fill="#888" fill-opacity="0.18" stroke="#000" stroke-width="1"/>
  <path d="M753.918053 395.990317 L703.787556 419.641958 L703.296916 408.993672 L661.783176 434.382459 L660.998154 417.345201 L620.367564 461.900903 L618.208752 415.048443 L584.134235 416.618488 L582.956701 391.062601 L617.031218 389.492555 L614.872405 342.640094 L659.428108 383.270684 L658.643086 366.233425 L702.315638 387.697099 L701.824999 377.048812 Z" fill="#888" fill-opacity="0.18" stroke="#000" stroke-width="1"/>
  <path d="M904.929798 1030.901238 L874.987266 984.254570 L885.482424 982.389525 L854.932897 944.511992 L871.725150 941.527920 L822.284338 907.007468 L868.463033 898.801270 L862.494890 865.216765 L887.683269 860.740657 L893.651413 894.325163 L939.830108 886.118965 L905.309655 935.559777 L922.101908 932.575705 L906.472740 978.659435 L916.967898 976.794390 Z" fill="#888" fill-opacity="0.18" stroke="#000" stroke-width="1"/>
  <path d="M401.534480 415.699236 L369.073693 460.629895 L363.498782 451.544352 L339.421412 493.832191 L330.501554 479.295321 L316.459023 537.937139 L291.929416 497.960747 L262.855676 515.800462 L249.475890 493.995157 L278.549630 476.155443 L254.020022 436.179051 L312.661840 450.221582 L303.741982 435.684712 L352.348960 433.373264 L346.774049 424.287721 Z" fill="#888" fill-opacity="0.18" stroke="#000" stroke-width="1"/>
  <path d="M970.692176 274.001687 L916.036768 283.234954 L918.440286 272.849877 L871.612237 286.082975 L875.457866 269.466851 L824.303483 301.393088 L834.878963 255.698747 L801.646715 248.007489 L807.415159 223.083303 L840.647407 230.774561 L851.222887 185.080221 L883.149124 236.234603 L886.994753 219.618479 L923.247323 252.079722 L925.650841 241.694645 Z" fill="#888" fill-opacity="0.18" stroke="#000" stroke-width="1"/>
  <path d="M838.758172 806.721365 L893.517779 798.127631 L890.993027 808.483903 L937.972568 795.799113 L933.932965 812.369148 L985.457059 781.043069 L974.348150 826.610664 L1007.488219 834.689871 L1001.428814 859.544922 L968.288745 851.465716 L957.179837 897.033311 L925.853758 845.509217 L921.814155 862.079251 L885.943523 829.196446 L883.418771 839.552718 Z" fill="#888" fill-opacity="0.18" stroke="#000" stroke-width="1"/>
  <path d="M212.508760 342.441096 L222.410211 396.979414 L211.996497 394.703169 L225.801687 441.365765 L209.139744 437.723772 L241.689620 488.483609 L195.869278 478.468131 L188.585293 511.792016 L163.592379 506.329027 L170.876364 473.005142 L125.056022 462.989663 L175.815859 430.439788 L159.153917 426.797795 L191.169068 390.150679 L180.755354 387.874433 Z" fill="#888" fill-opacity="0.18" stroke="#000" stroke-width="1"/>
  <path d="M642.856739 347.003558 L691.816299 321.014556 L692.808462 331.627865 L733.078943 304.309931 L734.666404 321.291227 L773.150991 274.869335 L777.516508 321.567898 L811.479100 318.392976 L813.860291 343.864920 L779.897700 347.039842 L784.263218 393.738405 L737.841326 355.253818 L739.428787 372.235114 L694.792789 352.854485 L695.784952 363.467795 Z" fill="#888" fill-opacity="0.18" stroke="#000" stroke-width="1"/>
  <path d="M229.838325 60.111573 L285.039832 55.085591 L281.849066 65.256420 L329.552064 55.643660 L324.446839 71.916985 L377.893214 43.996734 L363.853846 88.748378 L396.400496 98.958828 L388.742659 123.368816 L356.196008 113.158366 L342.156640 157.910011 L314.236389 104.463635 L309.131164 120.736961 L275.467535 85.598076 L272.276770 95.768905 Z" fill="#888" fill-opacity="0.18" stroke="#000" stroke-width="1"/>
  <path d="M370.079594 864.032834 L366.154130 808.742169 L376.259385 812.134888 L367.598696 764.249884 L383.767105 769.678233 L356.916954 715.686337 L401.380080 730.614297 L412.236779 698.277478 L436.489393 706.420002 L425.632694 738.756821 L470.095820 753.684781 L416.103924 780.534932 L432.272333 785.963281 L396.469897 818.920324 L406.575153 822.313042 Z" fill="#888" fill-opacity="0.18" stroke="#000" stroke-width="1"/>
  <path d="M105.276171 41.220950 L128.571869 91.517842 L117.920372 91.932989 L143.014252 133.625653 L125.971857 134.289888 L170.238432 175.235289 L123.371845 177.061934 L124.700315 211.146724 L99.136722 212.143077 L97.808253 178.058287 L50.941667 179.884932 L91.887067 135.618358 L74.844672 136.282593 L96.617378 92.763282 L85.965881 93.178429 Z" fill="#888" fill-opacity="0.18" stroke="#000" stroke-width="1"/>
  <path d="M876.405172 470.828673 L845.592161 424.752375 L856.050454 422.690620 L824.795189 385.393308 L841.528458 382.094500 L791.448264 348.508347 L837.464755 339.436625 L830.867139 305.970086 L855.967043 301.021874 L862.564659 334.488413 L908.581149 325.416690 L874.994996 375.496884 L891.728266 372.198076 L876.967041 418.567110 L887.425334 416.505355 Z" fill="#888" fill-opacity="0.18" stroke="#000" stroke-width="1"/>
  <path d="M246.269390 320.794946 L239.055600 265.836525 L249.345097 268.620942 L237.845874 221.337235 L254.309070 225.792303 L224.288752 173.496644 L269.562539 185.748082 L278.472676 152.821691 L303.167469 159.504293 L294.257332 192.430684 L339.531120 204.682122 L287.235461 234.702440 L303.698656 239.157508 L269.924092 274.189777 L280.213589 276.974195 Z" fill="#888" fill-opacity="0.18" stroke="#000" stroke-width="1"/>
  <path d="M356.016986 248.574140 L390.435340 292.023464 L380.176706 294.919524 L414.329940 329.582729 L397.916125 334.216424 L450.534900 363.666721 L405.396910 376.409384 L414.664301 409.237013 L390.043580 416.187556 L380.776189 383.359927 L335.638199 396.102590 L365.088497 343.483815 L348.674682 348.117510 L359.659438 300.711643 L349.400804 303.607703 Z" fill="#888" fill-opacity="0.18" stroke="#000" stroke-width="1"/>
  <path d="M845.830101 476.385891 L900.428318 466.820243 L898.088032 477.219753 L944.834698 463.701975 L941.090241 480.341190 L992.049421 448.104295 L981.752164 493.862136 L1015.030594 501.351050 L1009.413909 526.309873 L976.135479 518.820959 L965.838222 564.578800 L933.601327 513.619620 L929.856870 530.258835 L893.407461 498.018772 L891.067175 508.418281 Z" fill="#888" fill-opacity="0.18" stroke="#000" stroke-width="1"/>
  <path d="M886.155034 449.899973 L924.403904 409.781513 L928.696465 419.538594 L958.281157 380.902767 L965.149256 396.514098 L987.007337 340.315524 L1005.894608 383.246684 L1037.117270 369.510487 L1047.419418 392.927483 L1016.196756 406.663681 L1035.084028 449.594841 L978.885453 427.736760 L985.753552 443.348091 L937.281589 439.052758 L941.574151 448.809840 Z" fill="#888" fill-opacity="0.18" stroke="#000" stroke-width="1"/>
  <path d="M149.168048 1035.430292 L186.603055 994.551360 L191.090809 1004.220217 L219.893180 964.997716 L227.073586 980.467888 L247.797999 923.841444 L267.544116 966.384416 L298.484459 952.023604 L309.255068 975.228861 L278.314725 989.589673 L298.060841 1032.132644 L241.434398 1011.408231 L248.614803 1026.878402 L200.066317 1023.557931 L204.554070 1033.226788 Z" fill="#888" fill-opacity="0.18" stroke="#000" stroke-width="1"/>
  <path d="M47.357030 681.229676 L52.350080 626.025181 L61.780386 630.994694 L60.911766 582.340541 L76.000255 590.291762 L58.157084 532.692485 L99.650430 554.558343 L115.552872 524.381364 L138.185607 536.308195 L122.283165 566.485175 L163.776511 588.351032 L106.177235 606.194204 L121.265724 614.145425 L80.640999 640.933720 L90.071305 645.903234 Z" fill="#888" fill-opacity="0.18" stroke="#000" stroke-width="1"/>
  <path d="M411.574305 77.969716 L431.020087 129.876637 L420.367543 129.489281 L442.253718 172.951638 L425.209648 172.331870 L466.270402 216.491466 L419.399209 214.787103 L418.159672 248.875243 L392.593567 247.945590 L393.833104 213.857450 L346.961911 212.153086 L391.121508 171.092332 L374.077438 170.472564 L399.062456 128.714571 L388.409912 128.327215 Z" fill="#888" fill-opacity="0.18" stroke="#000" stroke-width="1"/>
  <path d="M465.483289 369.267814 L459.980225 314.111825 L470.178260 317.214534 L460.153421 269.596432 L476.470278 274.560767 L448.088975 221.357787 L492.960331 235.009710 L502.889002 202.375996 L527.364287 209.822500 L517.435616 242.456213 L562.306971 256.108136 L509.103991 284.489438 L525.420847 289.453774 L490.574331 323.419954 L500.772366 326.522664 Z" fill="#888" fill-opacity="0.18" stroke="#000" stroke-width="1"/>
  <path d="M242.440038 747.732895 L195.560795 718.155819 L204.278563 712.021713 L160.563050 690.645673 L174.511479 680.831104 L115.103985 670.496454 L153.462164 643.506389 L133.833026 615.609531 L154.755670 600.887678 L174.384808 628.784536 L212.742988 601.794471 L202.408338 661.201966 L216.356767 651.387397 L221.714099 699.753502 L230.431867 693.619396 Z" fill="#888" fill-opacity="0.18" stroke="#000" stroke-width="1"/>
  <path d="M847.404796 498.143236 L894.801109 526.884433 L886.193476 533.172152 L930.281141 553.769700 L916.508929 563.830049 L976.090331 573.109704 L938.216750 600.775665 L958.337449 628.320088 L937.679132 643.410612 L917.558433 615.866189 L879.684851 643.532150 L888.964506 583.950748 L875.192295 594.011097 L868.978212 545.747588 L860.370580 552.035307 Z" fill="#888" fill-opacity="0.18" stroke="#000" stroke-width="1"/>
  <path d="M325.406717 994.598001 L370.553077 962.437885 L372.922746 972.830738 L409.280889 940.487787 L413.072359 957.116353 L445.165099 906.066265 L455.591640 951.794820 L488.848771 944.211881 L494.535976 969.154730 L461.278844 976.737669 L471.705385 1022.466224 L420.655298 990.373484 L424.446767 1007.002049 L377.662082 993.616446 L380.031751 1004.009299 Z" fill="#888" fill-opacity="0.18" stroke="#000" stroke-width="1"/>
  <path d="M130.879345 356.520636 L113.292343 303.954827 L123.924366 304.720878 L103.598119 260.507477 L120.609355 261.733158 L81.145468 216.140866 L127.926367 219.511489 L130.377729 185.489017 L155.894583 187.327539 L153.443220 221.350011 L200.224119 224.720634 L154.631827 264.184520 L171.643062 265.410201 L145.188410 306.252979 L155.820433 307.019030 Z" fill="#888" fill-opacity="0.18" stroke="#000" stroke-width="1"/>
  <path d="M896.211043 1051.119898 L931.427494 1008.314893 L936.421248 1017.732385 L963.104955 977.038885 L971.094962 992.106872 L988.789911 934.461888 L1010.762431 975.898851 L1040.898404 959.918837 L1052.883415 982.520817 L1022.747441 998.500831 L1044.719961 1039.937794 L987.074977 1022.242845 L995.064984 1037.310832 L946.408757 1036.567368 L951.402512 1045.984860 Z" fill="#888" fill-opacity="0.18" stroke="#000" stroke-width="1"/>
  <path d="M449.943738 701.373835 L486.248289 659.487723 L490.998446 669.030403 L518.718822 629.035880 L526.319073 644.304168 L545.489166 587.132821 L566.389856 629.120613 L596.926432 613.920112 L608.326808 636.822544 L577.790232 652.023046 L598.690921 694.010838 L541.519574 674.840745 L549.119825 690.109033 L500.498759 688.115763 L505.248916 697.658443 Z" fill="#888" fill-opacity="0.18" stroke="#000" stroke-width="1"/>
  <path d="M938.908712 764.487730 L946.065135 709.521809 L955.293078 714.857707 L956.335194 666.206960 L971.099903 674.744397 L955.531722 616.489035 L996.134671 639.966985 L1013.209543 610.437568 L1035.356606 623.243722 L1018.281733 652.773139 L1058.884682 676.251089 L1000.629320 691.819269 L1015.394028 700.356706 L973.748963 725.529502 L982.976906 730.865400 Z" fill="#888" fill-opacity="0.18" stroke="#000" stroke-width="1"/>
  <path d="M837.217777 443.060471 L799.552419 483.727260 L795.119362 474.033203 L766.095861 513.092357 L759.002969 497.581866 L737.958971 554.090322 L718.453519 511.436472 L687.432538 525.622255 L676.793200 502.356519 L707.814182 488.170736 L688.308730 445.516886 L744.817186 466.560884 L737.724295 451.050393 L786.253248 454.645089 L781.820190 444.951033 Z" fill="#888" fill-opacity="0.18" stroke="#000" stroke-width="1"/>
  <path d="M41.229012 898.847557 L90.161715 924.887093 L81.920029 931.647371 L127.092848 949.741502 L113.906151 960.557946 L173.914003 966.483578 L137.650587 996.228800 L159.283475 1022.602193 L139.503429 1038.826859 L117.870541 1012.453466 L81.607125 1042.198687 L87.532757 982.190834 L74.346060 993.007278 L65.436658 945.167926 L57.194973 951.928203 Z" fill="#888" fill-opacity="0.18" stroke="#000" stroke-width="1"/>
  <path d="M525.782232 447.395371 L541.947534 500.415649 L531.339992 499.363611 L550.468432 544.108263 L533.496365 542.425002 L571.718381 589.063322 L525.045196 584.434355 L521.678674 618.378489 L496.220573 615.853598 L499.587095 581.909463 L452.913910 577.280496 L499.552230 539.058480 L482.580163 537.375219 L510.124908 497.259534 L499.517366 496.207496 Z" fill="#888" fill-opacity="0.18" stroke="#000" stroke-width="1"/>
  <path d="M545.022368 805.180087 L515.623100 852.171042 L509.456013 843.476575 L488.245736 887.272754 L478.378396 873.361606 L468.268877 932.807826 L441.133692 894.552170 L413.311396 914.286851 L398.510386 893.420129 L426.332681 873.685448 L399.197495 835.429792 L458.643715 845.539311 L448.776375 831.628163 L497.121837 826.087640 L490.954750 817.393173 Z" fill="#888" fill-opacity="0.18" stroke="#000" stroke-width="1"/>
  <path d="M546.427914 206.373170 L595.771856 181.121589 L596.604685 191.748589 L637.280460 165.037872 L638.612987 182.041072 L677.789670 136.201755 L681.454119 182.960555 L715.460519 180.295501 L717.459309 205.800301 L683.452909 208.465355 L687.117358 255.224155 L641.278041 216.047472 L642.610568 233.050672 L598.270344 213.002589 L599.103173 223.629589 Z" fill="#888" fill-opacity="0.18" stroke="#000" stroke-width="1"/>
  <path d="M253.981859 807.118980 L257.796282 751.820544 L267.330440 756.587782 L265.424241 707.963225 L280.678895 715.590805 L261.611210 658.385221 L303.561508 679.361065 L318.816668 648.851758 L341.698649 660.293128 L326.443489 690.802435 L368.393787 711.778280 L311.188203 730.845964 L326.442856 738.473544 L286.398758 766.122256 L295.932916 770.889494 Z" fill="#888" fill-opacity="0.18" stroke="#000" stroke-width="1"/>
  <path d="M896.705034 1055.745933 L841.409092 1051.895527 L846.182532 1042.364473 L797.556745 1044.239031 L805.194250 1028.989344 L747.976270 1048.019799 L768.979409 1006.083160 L738.480034 990.808150 L749.936292 967.933620 L780.435666 983.208629 L801.438804 941.271990 L820.469260 998.489969 L828.106765 983.240282 L855.729413 1023.302364 L860.502854 1013.771310 Z" fill="#888" fill-opacity="0.18" stroke="#000" stroke-width="1"/>
  <path d="M633.854027 885.360270 L666.021513 930.501379 L655.629047 932.872744 L687.977934 969.225606 L671.349988 973.019791 L722.405315 1005.104196 L676.678462 1015.538203 L684.266831 1048.794096 L659.324911 1054.485372 L651.736543 1021.229479 L606.009690 1031.663487 L638.094095 980.608160 L621.466149 984.402344 L634.844114 937.615474 L624.451647 939.986840 Z" fill="#888" fill-opacity="0.18" stroke="#000" stroke-width="1"/>
  <path d="M859.688583 884.569766 L811.067060 857.953711 L819.388070 851.291315 L774.432262 832.664547 L787.745878 822.004713 L727.812253 815.370259 L764.424696 786.055715 L743.105028 759.428483 L763.075452 743.438731 L784.395120 770.065963 L821.007564 740.751419 L814.373110 800.685044 L827.686726 790.025210 L836.030090 837.966522 L844.351100 831.304125 Z" fill="#888" fill-opacity="0.18" stroke="#000" stroke-width="1"/>
  <path d="M965.152756 86.790312 L927.051754 127.049230 L922.723322 117.308008 L893.280984 156.052425 L886.355493 140.466469 L864.704333 196.745086 L845.659231 153.883709 L814.487321 167.734691 L804.099084 144.355758 L835.270995 130.504776 L816.225893 87.643398 L872.504510 109.294558 L865.579019 93.708603 L914.066458 97.825563 L909.738026 88.084341 Z" fill="#888" fill-opacity="0.18" stroke="#000" stroke-width="1"/>
  <path d="M142.387002 531.359882 L197.238729 523.375219 L194.599045 533.702794 L241.716649 521.540868 L237.493154 538.064987 L289.362191 507.313427 L277.747579 552.754756 L310.795817 561.201747 L304.460574 585.987926 L271.412335 577.540935 L259.797723 622.982263 L229.046163 571.113226 L224.822668 587.637346 L189.319675 554.357943 L186.679991 564.685518 Z" fill="#888" fill-opacity="0.18" stroke="#000" stroke-width="1"/>
  <path d="M48.150099 268.998671 L88.924989 306.546976 L79.243715 311.007881 L118.386136 339.918986 L102.896098 347.056433 L159.464812 367.937910 L116.867207 387.565891 L131.142102 418.545967 L107.907045 429.252138 L93.632150 398.272062 L51.034545 417.900042 L71.916022 361.331328 L56.425984 368.468776 L59.881168 319.929690 L50.199894 324.390595 Z" fill="#888" fill-opacity="0.18" stroke="#000" stroke-width="1"/>
  <path d="M1026.370477 53.044714 L1029.875551 108.363619 L1019.796376 104.894187 L1028.092831 152.843639 L1011.966150 147.292547 L1038.405120 201.486977 L994.056750 186.221474 L982.954566 218.474834 L958.764546 210.148196 L969.866730 177.894836 L925.518359 162.629332 L979.712790 136.190362 L963.586110 130.639270 L999.638026 97.955322 L989.558851 94.485889 Z" fill="#888" fill-opacity="0.18" stroke="#000" stroke-width="1"/>
  <path d="M411.212435 384.353694 L464.225752 368.165579 L463.178279 378.773573 L507.914695 359.625880 L506.238738 376.598670 L552.860607 338.356589 L548.251724 385.031761 L582.197304 388.383676 L579.683368 413.842861 L545.737788 410.490946 L541.128905 457.166119 L502.886823 410.544250 L501.210866 427.517040 L461.083332 399.989561 L460.035859 410.597554 Z" fill="#888" fill-opacity="0.18" stroke="#000" stroke-width="1"/>
  <path d="M690.221019 595.230084 L738.412914 567.843808 L739.709894 578.424195 L779.178084 549.959425 L781.253252 566.888043 L818.386878 519.378578 L824.093589 565.932278 L857.950825 561.781943 L861.063577 587.174870 L827.206341 591.325206 L832.913052 637.878906 L785.403587 600.745280 L787.478755 617.673898 L742.303854 599.584967 L743.600833 610.165354 Z" fill="#888" fill-opacity="0.18" stroke="#000" stroke-width="1"/>
  <path d="M730.896094 737.447750 L708.963203 788.353694 L701.548900 780.695049 L687.225785 827.201279 L675.362901 814.947447 L674.385531 875.239239 L641.762599 841.541200 L617.254934 865.266969 L599.460607 846.886221 L623.968272 823.160452 L591.345340 789.462413 L651.637132 790.439782 L639.774247 778.185950 L686.720294 765.377758 L679.305992 757.719113 Z" fill="#888" fill-opacity="0.18" stroke="#000" stroke-width="1"/>
  <path d="M520.737310 1056.607299 L514.255490 1001.557750 L524.507024 1004.478843 L513.638023 957.046303 L530.040477 961.720052 L500.718715 909.029543 L545.825464 921.882354 L555.172963 889.077446 L579.776644 896.088070 L570.429146 928.892978 L615.535895 941.745789 L562.845386 971.067551 L579.247840 975.741300 L545.010092 1010.321030 L555.261626 1013.242124 Z" fill="#888" fill-opacity="0.18" stroke="#000" stroke-width="1"/>
  <path d="M130.730610 675.603439 L176.904447 706.270092 L168.045438 712.198387 L211.248441 734.592174 L197.074026 744.077447 L256.223245 755.800301 L217.243605 781.884802 L236.214151 810.233631 L214.952529 824.461541 L195.981983 796.112711 L157.002342 822.197212 L168.725197 763.047993 L154.550782 772.533266 L150.327420 724.054978 L141.468410 729.983274 Z" fill="#888" fill-opacity="0.18" stroke="#000" stroke-width="1"/>
  <path d="M491.660988 627.217167 L439.617295 646.293878 L440.080282 635.644353 L396.463612 657.221359 L397.204391 640.182120 L352.754344 680.928270 L354.791488 634.070361 L320.713009 632.588802 L321.824178 607.029943 L355.902657 608.511502 L357.939800 561.653593 L398.685950 606.103641 L399.426730 589.064401 L441.006257 614.345304 L441.469244 603.695779 Z" fill="#888" fill-opacity="0.18" stroke="#000" stroke-width="1"/>
  <path d="M336.567735 796.862177 L358.351780 847.831994 L347.692637 847.929027 L371.530884 890.352124 L354.476256 890.507377 L397.500959 932.755814 L350.600732 933.182760 L350.911239 967.292016 L325.329297 967.524896 L325.018790 933.415640 L278.118564 933.842586 L320.367000 890.817884 L303.312372 890.973137 L326.374352 848.123094 L315.715210 848.220127 Z" fill="#888" fill-opacity="0.18" stroke="#000" stroke-width="1"/>
  <path d="M705.283548 306.471711 L652.756340 324.173668 L653.499129 313.539996 L609.330302 333.962919 L610.518765 316.949042 L565.012917 356.512577 L568.281189 309.724417 L534.253436 307.347491 L536.036130 281.826676 L570.063883 284.203602 L573.332156 237.415442 L612.895690 282.921289 L614.084153 265.907413 L654.984708 292.272650 L655.727497 281.638977 Z" fill="#888" fill-opacity="0.18" stroke="#000" stroke-width="1"/>
</svg>
