<?xml version="1.0" encoding="UTF-8"?>
<svg xmlns="http://www.w3.org/2000/svg" width="1100" height="1100" viewBox="0 0 1100 1100">
  <rect x="0" y="0" width="1100" height="1100" fill="white"/>
  <text x="10.0" y="18.0" font-family="monospace" font-size="12">prefix=N58_job5048458_task58 run_id=58 L=6.07702204607 feas=0.000e+00 N=58</text>
  <rect x="40.000000" y="40.000000" width="1020.000000" height="1020.000000" fill="none" stroke="#000" stroke-width="2"/>
  <path d="M193.248021 165.837671 L139.334588 157.530062 L144.796992 148.574098 L96.955849 146.427605 L105.695695 132.098063 L48.022226 146.072304 L72.056801 106.666063 L43.397717 89.186372 L56.507485 67.692059 L85.166569 85.171750 L109.201145 45.765510 L123.175386 103.438979 L131.915231 89.109437 L155.721799 130.662171 L161.184202 121.706207 Z" fill="#888" fill-opacity="0.18" stroke="#000" stroke-width="1"/>
  <path d="M785.125439 994.073001 L781.228868 939.662603 L791.175727 942.995342 L782.623594 895.875884 L798.538567 901.208266 L772.082089 848.089877 L815.848266 862.753928 L826.513030 830.923981 L850.385490 838.922555 L839.720726 870.752501 L883.486902 885.416552 L830.368514 911.873030 L846.283487 917.205412 L811.069443 949.660820 L821.016302 952.993559 Z" fill="#888" fill-opacity="0.18" stroke="#000" stroke-width="1"/>
  <path d="M64.724305 601.850237 L56.783475 547.881562 L66.951052 550.463713 L54.910985 504.112670 L71.179110 508.244112 L40.837403 457.245197 L85.574745 468.606662 L93.837628 436.070413 L118.239814 442.267576 L109.976931 474.803824 L154.714273 486.165288 L103.715358 516.506995 L119.983482 520.638437 L87.286208 555.628015 L97.453785 558.210166 Z" fill="#888" fill-opacity="0.18" stroke="#000" stroke-width="1"/>
  <path d="M616.218902 991.725176 L662.454355 962.777679 L664.173182 973.126243 L701.786018 943.484095 L704.536141 960.041797 L739.055088 911.772235 L746.617927 957.305915 L779.733331 951.805669 L783.858515 976.642223 L750.743111 982.142468 L758.305949 1027.676149 L710.036387 993.157201 L712.786510 1009.714904 L667.610835 993.823371 L669.329662 1004.171934 Z" fill="#888" fill-opacity="0.18" stroke="#000" stroke-width="1"/>
  <path d="M588.018445 321.413832 L565.183810 370.954261 L558.078603 363.236542 L542.839185 408.636350 L531.470854 396.288000 L529.020807 455.579700 L497.757898 421.621740 L473.061199 444.358401 L456.008703 425.835877 L480.705402 403.099216 L449.442492 369.141255 L508.734193 371.591301 L497.365862 359.242952 L543.868190 347.801106 L536.762983 340.083387 Z" fill="#888" fill-opacity="0.18" stroke="#000" stroke-width="1"/>
  <path d="M387.146620 907.428348 L354.412952 863.791419 L364.580282 861.208292 L331.879649 826.221852 L348.147376 822.088849 L297.145550 791.752037 L341.881801 780.386279 L333.615795 747.850824 L358.017387 741.651320 L366.283393 774.186775 L411.019643 762.821017 L380.682832 813.822843 L396.950559 809.689840 L384.914941 856.042038 L395.082271 853.458912 Z" fill="#888" fill-opacity="0.18" stroke="#000" stroke-width="1"/>
  <path d="M765.548144 62.626065 L800.334221 104.645150 L790.302278 107.712272 L824.641045 141.092377 L808.589935 145.999774 L860.986202 173.859058 L816.845649 187.354398 L826.660442 219.456618 L802.583777 226.817713 L792.768984 194.715493 L748.628432 208.210834 L776.487715 155.814567 L760.436605 160.721964 L770.238390 113.846518 L760.206446 116.913641 Z" fill="#888" fill-opacity="0.18" stroke="#000" stroke-width="1"/>
  <path d="M720.058994 801.957329 L760.936039 765.836119 L764.324638 775.764087 L796.581590 740.368163 L802.003348 756.252911 L828.160822 702.986645 L843.070657 746.669702 L874.840153 735.826185 L882.972790 759.653307 L851.203295 770.496824 L866.113130 814.179880 L812.846865 788.022406 L818.268623 803.907154 L771.101836 795.620021 L774.490435 805.547989 Z" fill="#888" fill-opacity="0.18" stroke="#000" stroke-width="1"/>
  <path d="M447.531960 834.368767 L422.589666 785.855299 L433.046368 785.015947 L406.684215 745.035712 L423.414939 743.692748 L378.230720 705.223347 L424.240211 701.530198 L421.554285 668.068750 L446.650371 666.054305 L449.336297 699.515753 L495.345788 695.822604 L456.876386 741.006822 L473.607110 739.663859 L453.959773 783.337243 L464.416476 782.497891 Z" fill="#888" fill-opacity="0.18" stroke="#000" stroke-width="1"/>
  <path d="M387.716313 604.718521 L357.989630 650.456896 L352.069111 641.796955 L330.454485 684.530903 L320.981655 670.674996 L310.023964 728.996839 L283.973680 690.893095 L256.261866 709.838756 L242.052620 689.054896 L269.764434 670.109235 L243.714150 632.005491 L302.035994 642.963182 L292.563164 629.107275 L340.228073 624.477071 L334.307554 615.817129 Z" fill="#888" fill-opacity="0.18" stroke="#000" stroke-width="1"/>
  <path d="M293.986654 166.258555 L342.240961 191.698613 L334.155868 198.382805 L378.679840 216.017950 L365.743692 226.712658 L424.820829 232.316258 L389.246424 261.726703 L410.635839 287.598998 L391.231618 303.641059 L369.842203 277.768764 L334.267798 307.179210 L339.871398 248.102073 L326.935250 258.796780 L317.985684 211.751189 L309.900592 218.435381 Z" fill="#888" fill-opacity="0.18" stroke="#000" stroke-width="1"/>
  <path d="M646.804789 454.163943 L611.447739 495.703726 L606.688979 486.354858 L579.762775 525.957407 L572.148760 510.999217 L553.788324 567.429731 L532.849782 526.294709 L502.933402 541.522739 L491.512379 519.085455 L521.428758 503.857424 L500.490216 462.722402 L556.920729 481.082838 L549.306714 466.124648 L597.171460 467.657120 L592.412700 458.308252 Z" fill="#888" fill-opacity="0.18" stroke="#000" stroke-width="1"/>
  <path d="M943.265642 307.010280 L903.784568 269.368290 L913.386776 265.143986 L875.364703 236.028623 L890.728236 229.269737 L835.422189 207.758121 L877.671903 189.171184 L864.154131 158.444119 L887.199430 148.305790 L900.717202 179.032855 L942.966917 160.445918 L921.455301 215.751965 L936.818833 208.993079 L932.591192 256.695379 L942.193399 252.471075 Z" fill="#888" fill-opacity="0.18" stroke="#000" stroke-width="1"/>
  <path d="M829.557028 228.671681 L788.588556 264.689162 L785.225133 254.752638 L752.878566 290.066686 L747.497089 274.168246 L721.204684 327.368039 L706.405621 283.647330 L674.608742 294.410286 L666.536526 270.562626 L698.333405 259.799671 L683.534341 216.078963 L736.734134 242.371368 L731.352656 226.472928 L778.498286 234.879589 L775.134863 224.943064 Z" fill="#888" fill-opacity="0.18" stroke="#000" stroke-width="1"/>
  <path d="M188.757107 425.396211 L135.148276 415.308206 L140.904196 406.537999 L93.160346 402.808772 L102.369818 388.776442 L44.265312 400.833586 L69.591361 362.244678 L41.526701 343.825733 L55.340910 322.777238 L83.405570 341.196183 L108.731619 302.607275 L120.788763 360.711782 L129.998236 346.679451 L152.416037 388.997587 L158.171957 380.227380 Z" fill="#888" fill-opacity="0.18" stroke="#000" stroke-width="1"/>
  <path d="M629.144989 789.618005 L583.654491 759.513367 L592.363191 753.664805 L549.809803 731.696840 L563.743723 722.339141 L505.514674 710.898587 L543.832956 685.164915 L525.117558 657.297074 L546.018438 643.260525 L564.733837 671.128366 L603.052118 645.394694 L591.611564 703.623743 L605.545485 694.266044 L609.780592 741.967681 L618.489292 736.119119 Z" fill="#888" fill-opacity="0.18" stroke="#000" stroke-width="1"/>
  <path d="M994.441272 1033.282641 L973.244576 983.019586 L983.734815 982.974540 L960.476108 941.112685 L977.260490 941.040612 L935.119352 899.259839 L981.276403 899.061639 L981.132257 865.492875 L1006.308830 865.384766 L1006.452976 898.953530 L1052.610027 898.755329 L1010.829254 940.896467 L1027.613636 940.824394 L1004.715293 982.884449 L1015.205531 982.839404 Z" fill="#888" fill-opacity="0.18" stroke="#000" stroke-width="1"/>
  <path d="M466.437479 50.412677 L456.643016 104.075915 L447.841440 98.368079 L444.373562 146.131623 L430.291041 136.999085 L442.666000 195.036735 L403.939065 169.922255 L385.673988 198.087299 L364.550206 184.388492 L382.815282 156.223448 L344.088347 131.108968 L402.125997 118.734009 L388.043475 109.601471 L430.238288 86.952406 L421.436712 81.244570 Z" fill="#888" fill-opacity="0.18" stroke="#000" stroke-width="1"/>
  <path d="M802.831010 631.904315 L749.393655 642.864411 L751.400543 632.567832 L705.799073 647.192754 L709.010094 630.718227 L659.796226 663.876992 L668.626533 618.572044 L635.677480 612.150003 L640.494012 587.438213 L673.443064 593.860254 L682.273371 548.555307 L715.432136 597.769175 L718.643156 581.294648 L755.414319 611.974674 L757.421207 601.678095 Z" fill="#888" fill-opacity="0.18" stroke="#000" stroke-width="1"/>
  <path d="M716.634736 46.874668 L716.329415 101.423558 L706.668763 97.334678 L711.566677 144.972823 L696.109634 138.430615 L718.396721 193.428743 L675.889852 175.437671 L662.805436 206.351757 L639.619871 196.538445 L652.704287 165.624358 L610.197419 147.633285 L665.195547 125.346198 L649.738504 118.803990 L687.347459 89.156918 L677.686807 85.068038 Z" fill="#888" fill-opacity="0.18" stroke="#000" stroke-width="1"/>
  <path d="M1037.712045 397.055533 L990.565565 424.494265 L989.181950 414.095575 L950.631144 442.507152 L948.417360 425.869249 L912.357061 472.998467 L906.269155 427.244233 L872.993348 431.671800 L869.672672 406.714945 L902.948479 402.287377 L896.860573 356.533142 L943.989792 392.593441 L941.776008 375.955538 L986.414720 393.298195 L985.031105 382.899506 Z" fill="#888" fill-opacity="0.18" stroke="#000" stroke-width="1"/>
  <path d="M872.323478 694.053925 L924.458228 678.002679 L923.451441 688.444591 L967.434019 669.499533 L965.823160 686.206592 L1011.617955 648.466094 L1007.188092 694.410505 L1040.602209 697.632223 L1038.185920 722.692811 L1004.771803 719.471093 L1000.341940 765.415504 L962.601442 719.620709 L960.990582 736.327768 L921.437867 709.328414 L920.431080 719.770326 Z" fill="#888" fill-opacity="0.18" stroke="#000" stroke-width="1"/>
  <path d="M1037.648228 443.185801 L1011.090999 490.834392 L1004.596962 482.595787 L985.929424 526.696869 L975.538964 513.515101 L968.560694 572.445671 L939.986929 536.195809 L913.623393 556.976730 L898.037702 537.204078 L924.401238 516.423157 L895.827473 480.173295 L954.758043 487.151564 L944.367583 473.969796 L991.608886 466.118577 L985.114849 457.879972 Z" fill="#888" fill-opacity="0.18" stroke="#000" stroke-width="1"/>
  <path d="M639.111044 628.836813 L585.057656 636.178875 L587.752363 626.040548 L541.270696 637.566041 L545.582227 621.344717 L494.250088 651.119200 L506.106798 606.510558 L473.664149 597.887495 L480.131446 573.555508 L512.574095 582.178571 L524.430805 537.569928 L554.205289 588.902067 L558.516821 572.680743 L593.141777 605.763892 L595.836484 595.625564 Z" fill="#888" fill-opacity="0.18" stroke="#000" stroke-width="1"/>
  <path d="M873.285127 79.932336 L926.160902 66.522378 L924.630438 76.900471 L969.509832 60.190523 L967.061089 76.795472 L1014.695319 41.404955 L1007.961276 87.068565 L1041.171174 91.966051 L1037.498061 116.873474 L1004.288162 111.975989 L997.554120 157.639599 L962.163604 110.005370 L959.714861 126.610319 L921.569510 97.656657 L920.039046 108.034750 Z" fill="#888" fill-opacity="0.18" stroke="#000" stroke-width="1"/>
  <path d="M459.279680 1058.732628 L475.513120 1006.654322 L483.557092 1013.387943 L492.794841 966.398089 L505.665195 977.171884 L500.423796 918.061511 L535.817270 947.689446 L557.364860 921.948737 L576.670391 938.109429 L555.122802 963.850138 L590.516277 993.478073 L531.405904 998.719473 L544.276259 1009.493268 L499.645035 1026.855186 L507.689006 1033.588808 Z" fill="#888" fill-opacity="0.18" stroke="#000" stroke-width="1"/>
  <path d="M904.292801 502.700981 L849.782292 504.769567 L853.446930 494.940144 L806.067032 501.906325 L811.930452 486.179247 L757.954207 510.838390 L774.078613 467.588926 L742.624457 455.862086 L751.419588 432.271469 L782.873744 443.998310 L798.998150 400.748846 L823.657293 454.725091 L829.520714 438.998014 L860.776205 475.281296 L864.440843 465.451873 Z" fill="#888" fill-opacity="0.18" stroke="#000" stroke-width="1"/>
  <path d="M219.496941 806.364784 L186.025327 849.438276 L180.854856 840.310660 L155.719430 881.073299 L147.446676 866.469114 L131.618098 923.661461 L108.868025 883.499952 L79.659655 900.045459 L67.250525 878.139181 L96.458895 861.593674 L73.708822 821.432165 L130.901169 837.260744 L122.628415 822.656559 L170.513914 822.055429 L165.343443 812.927813 Z" fill="#888" fill-opacity="0.18" stroke="#000" stroke-width="1"/>
  <path d="M607.148208 275.288830 L629.074028 325.238134 L618.585555 325.435817 L642.450925 366.954806 L625.669368 367.271098 L668.413988 408.434260 L622.264708 409.304062 L622.897292 442.867175 L597.724957 443.341612 L597.092374 409.778500 L550.943094 410.648302 L592.106256 367.903682 L575.324699 368.219973 L597.608610 325.831181 L587.120137 326.028864 Z" fill="#888" fill-opacity="0.18" stroke="#000" stroke-width="1"/>
  <path d="M230.396880 623.405768 L226.952007 677.846630 L217.542747 673.208423 L219.690292 721.049519 L204.635475 713.628387 L223.719688 769.818255 L182.318944 749.410145 L167.476682 779.519777 L144.894457 768.388081 L159.736720 738.278448 L118.335975 717.870338 L174.525843 698.786125 L159.471027 691.364994 L198.724227 663.932009 L189.314967 659.293802 Z" fill="#888" fill-opacity="0.18" stroke="#000" stroke-width="1"/>
  <path d="M818.036489 244.519888 L813.134765 298.848957 L803.853105 293.960406 L804.718554 341.841858 L789.867898 334.020176 L807.440335 390.701019 L766.601032 369.191396 L750.957669 398.892707 L728.681685 387.160186 L744.325048 357.458874 L703.485744 335.949251 L760.166587 318.376814 L745.315931 310.555133 L785.289786 284.183305 L776.008126 279.294754 Z" fill="#888" fill-opacity="0.18" stroke="#000" stroke-width="1"/>
  <path d="M1023.135571 590.582860 L977.742786 620.834632 L975.730104 610.539184 L938.976214 641.239900 L935.755922 624.767184 L902.624861 673.999706 L893.769057 628.699735 L860.823624 635.140320 L855.993185 610.431245 L888.938619 603.990661 L880.082815 558.690690 L929.315337 591.821751 L926.095045 575.349034 L971.704738 589.948289 L969.692055 579.652841 Z" fill="#888" fill-opacity="0.18" stroke="#000" stroke-width="1"/>
  <path d="M236.258803 946.519803 L197.642771 985.048710 L193.659535 975.344022 L163.603901 1012.627279 L157.230724 997.099778 L134.344914 1051.851473 L116.818677 1009.150845 L85.763675 1021.897199 L76.203909 998.605947 L107.258912 985.859593 L89.732675 943.158965 L144.484370 966.044775 L138.111193 950.517274 L185.693064 955.934646 L181.709828 946.229958 Z" fill="#888" fill-opacity="0.18" stroke="#000" stroke-width="1"/>
  <path d="M241.705764 871.930980 L280.134654 910.646546 L270.419695 914.604665 L307.625081 944.756640 L292.081147 951.089630 L346.773460 974.116990 L304.027639 991.532714 L316.693621 1022.620584 L293.377719 1032.120070 L280.711738 1001.032200 L237.965917 1018.447925 L260.993277 963.755611 L245.449343 970.088602 L250.989776 922.520903 L241.274817 926.479022 Z" fill="#888" fill-opacity="0.18" stroke="#000" stroke-width="1"/>
  <path d="M995.093305 189.145933 L1015.596436 239.695871 L1005.106571 239.596579 L1027.787109 281.774483 L1011.003324 281.615617 L1052.565620 323.972245 L1006.410211 323.535362 L1006.092478 357.102932 L980.916801 356.864632 L981.234534 323.297063 L935.079125 322.860180 L977.435754 281.297884 L960.651969 281.139017 L984.126840 239.397996 L973.636974 239.298705 Z" fill="#888" fill-opacity="0.18" stroke="#000" stroke-width="1"/>
  <path d="M268.880122 633.974425 L226.124414 600.097824 L235.300416 595.013719 L194.776792 569.494741 L209.458396 561.360173 L152.417968 544.992584 L192.792377 522.622523 L176.523242 493.259315 L198.545647 481.057464 L214.814783 510.420671 L255.189193 488.050610 L238.821603 545.091038 L253.503206 536.956470 L253.652421 584.845510 L262.828423 579.761405 Z" fill="#888" fill-opacity="0.18" stroke="#000" stroke-width="1"/>
  <path d="M331.907135 908.693073 L380.546269 933.389415 L372.564734 940.196928 L417.354164 957.146539 L404.583708 968.038560 L463.739901 972.734648 L428.621147 1002.687706 L450.405189 1028.228618 L431.249505 1044.566650 L409.465463 1019.025738 L374.346709 1048.978796 L379.042796 989.822603 L366.272340 1000.714624 L356.601664 953.811955 L348.620129 960.619468 Z" fill="#888" fill-opacity="0.18" stroke="#000" stroke-width="1"/>
  <path d="M277.547744 714.022612 L293.968838 766.042053 L283.520040 765.109449 L302.776977 808.956373 L286.058900 807.464205 L324.123674 852.989817 L278.148961 848.886356 L275.164626 882.322511 L250.087510 880.084260 L253.071845 846.648105 L207.097133 842.544644 L252.622745 804.479870 L235.904668 802.987702 L262.622443 763.244239 L252.173645 762.311634 Z" fill="#888" fill-opacity="0.18" stroke="#000" stroke-width="1"/>
  <path d="M234.593939 65.262174 L258.507305 114.290998 L248.035224 114.909582 L273.548139 155.437024 L256.792809 156.426758 L301.155471 195.840748 L255.078312 198.562518 L257.057781 232.073179 L231.924785 233.557780 L229.945316 200.047119 L183.868157 202.768889 L223.282148 158.406227 L206.526817 159.395961 L227.091061 116.146750 L216.618979 116.765334 Z" fill="#888" fill-opacity="0.18" stroke="#000" stroke-width="1"/>
  <path d="M589.594676 927.429510 L546.789374 893.615595 L555.957917 888.518050 L515.396943 863.058479 L530.066611 854.902407 L473.002261 838.618417 L513.343848 816.189219 L497.031704 786.849883 L519.036206 774.615774 L535.348350 803.955111 L575.689937 781.525912 L559.405947 838.590263 L574.075615 830.434191 L574.295002 878.322960 L583.463545 873.225415 Z" fill="#888" fill-opacity="0.18" stroke="#000" stroke-width="1"/>
  <path d="M702.197582 559.903584 L753.622902 541.707125 L753.049394 552.181772 L796.209698 531.431578 L795.292086 548.191013 L839.484703 508.586455 L836.961271 554.674901 L870.480141 556.510125 L869.103724 581.649277 L835.584854 579.814054 L833.061421 625.902500 L793.456863 581.709883 L792.539251 598.469318 L751.902380 573.131066 L751.328872 583.605713 Z" fill="#888" fill-opacity="0.18" stroke="#000" stroke-width="1"/>
  <path d="M649.233176 555.675632 L644.627516 501.320664 L654.616982 504.523429 L645.451216 457.519482 L661.434362 462.643906 L634.287558 409.874981 L678.241209 423.967147 L688.490057 392.000855 L712.464776 399.687491 L702.215928 431.653783 L746.169579 445.745949 L693.400654 472.892754 L709.383800 478.017178 L674.595914 510.928959 L684.585380 514.131724 Z" fill="#888" fill-opacity="0.18" stroke="#000" stroke-width="1"/>
  <path d="M1040.445677 870.556363 L987.168316 858.843231 L993.188203 850.252067 L945.579796 845.073078 L955.211616 831.327216 L896.767411 841.612321 L923.254916 803.811201 L895.763192 784.547561 L910.210922 763.928768 L937.702646 783.192408 L964.190151 745.391287 L974.475256 803.835492 L984.107076 790.089630 L1005.227978 833.069740 L1011.247866 824.478576 Z" fill="#888" fill-opacity="0.18" stroke="#000" stroke-width="1"/>
  <path d="M276.679626 254.999240 L263.906676 308.032497 L255.437233 301.842531 L249.310144 349.338227 L235.759035 339.434281 L244.876943 398.071916 L207.611395 370.836066 L187.803504 397.938283 L167.476841 383.082365 L187.284732 355.980148 L150.019184 328.744298 L208.656818 319.626391 L195.105710 309.722445 L238.498347 289.462599 L230.028905 283.272633 Z" fill="#888" fill-opacity="0.18" stroke="#000" stroke-width="1"/>
  <path d="M180.084500 437.735809 L231.644268 419.923874 L230.992557 430.393946 L274.306609 409.966629 L273.263872 426.718744 L317.751003 387.445297 L314.883477 433.513615 L348.387708 435.599088 L346.823603 460.727261 L313.319372 458.641788 L310.451847 504.710106 L271.178399 460.222975 L270.135663 476.975091 L229.689137 451.334091 L229.037426 461.804163 Z" fill="#888" fill-opacity="0.18" stroke="#000" stroke-width="1"/>
  <path d="M585.341889 868.595336 L630.437539 837.902389 L632.550514 848.177722 L669.003302 817.120089 L672.384062 833.560622 L705.033495 784.007389 L714.330586 829.218855 L747.211652 822.457335 L752.282792 847.118135 L719.401726 853.879655 L728.698816 899.091122 L679.145583 866.441689 L682.526343 882.882222 L636.776464 868.728389 L638.889439 879.003722 Z" fill="#888" fill-opacity="0.18" stroke="#000" stroke-width="1"/>
  <path d="M493.176393 206.549111 L501.220871 152.595789 L510.203378 158.014433 L512.116440 110.163387 L526.488451 118.833218 L512.233000 61.228613 L551.756031 85.070648 L569.095692 56.326625 L590.653709 69.331371 L573.314048 98.075394 L612.837079 121.917428 L555.232474 136.172880 L569.604485 144.842711 L528.168392 168.851721 L537.150899 174.270366 Z" fill="#888" fill-opacity="0.18" stroke="#000" stroke-width="1"/>
  <path d="M883.669745 1053.809643 L871.872046 1000.550944 L882.198863 1002.395931 L866.859812 957.029690 L883.382720 959.981669 L849.455396 911.294451 L894.893394 919.412393 L900.797351 886.366576 L925.581714 890.794544 L919.677756 923.840361 L965.115754 931.958303 L916.428536 965.885626 L932.951444 968.837605 L902.852499 1006.085905 L913.179316 1007.930891 Z" fill="#888" fill-opacity="0.18" stroke="#000" stroke-width="1"/>
  <path d="M568.751274 917.944009 L514.404577 922.646267 L517.589583 912.651124 L470.602000 921.900415 L475.698009 905.908186 L422.977415 933.148734 L436.991441 889.170106 L405.006984 878.978088 L412.650998 854.989745 L444.635454 865.181764 L458.649480 821.203136 L485.890027 873.923730 L490.986037 857.931502 L523.959595 892.660839 L527.144600 882.665696 Z" fill="#888" fill-opacity="0.18" stroke="#000" stroke-width="1"/>
  <path d="M491.110409 485.713644 L439.837140 504.334237 L440.324111 493.855210 L397.336668 514.961185 L398.115822 498.194743 L354.251832 538.162965 L356.394504 492.055248 L322.861619 490.496941 L324.030349 465.347278 L357.563234 466.905585 L359.705906 420.797868 L399.674129 464.661858 L400.453282 447.895415 L441.298052 472.897157 L441.785023 462.418131 Z" fill="#888" fill-opacity="0.18" stroke="#000" stroke-width="1"/>
  <path d="M197.355643 171.574599 L174.887875 221.282487 L167.725807 213.617507 L152.822438 259.128735 L141.363128 246.864767 L139.351482 306.172960 L107.838381 272.447048 L83.310446 295.365667 L66.121482 276.969715 L90.649418 254.051097 L59.136318 220.325185 L118.444510 222.336832 L106.985201 210.072864 L153.401671 198.287547 L146.239603 190.622567 Z" fill="#888" fill-opacity="0.18" stroke="#000" stroke-width="1"/>
  <path d="M478.400199 187.772606 L497.951916 238.698090 L487.465756 238.402132 L509.351472 280.997880 L492.573616 280.524346 L533.334420 323.652821 L487.195317 322.350602 L486.248248 355.906313 L461.081465 355.196011 L462.028533 321.640300 L415.889430 320.338081 L459.017905 279.577278 L442.240049 279.103743 L466.493437 237.810214 L456.007277 237.514255 Z" fill="#888" fill-opacity="0.18" stroke="#000" stroke-width="1"/>
  <path d="M628.201718 796.238139 L656.063983 749.340710 L662.328152 757.755419 L682.205815 714.186383 L692.228486 727.649917 L700.830645 668.934406 L728.392989 705.959125 L755.320057 685.913784 L770.354063 706.109085 L743.426994 726.154426 L770.989338 763.179145 L712.273827 754.576986 L722.296497 768.040520 L674.856490 774.584836 L681.120659 782.999545 Z" fill="#888" fill-opacity="0.18" stroke="#000" stroke-width="1"/>
  <path d="M289.054767 353.183930 L343.411481 348.598927 L340.204920 358.587175 L387.212348 349.439273 L382.081850 365.420470 L434.861088 338.293722 L420.752219 382.242014 L452.714613 392.503010 L445.018866 416.474806 L413.056472 406.213810 L398.947603 450.162103 L371.820854 397.382865 L366.690356 413.364062 L333.791798 378.563671 L330.585237 388.551920 Z" fill="#888" fill-opacity="0.18" stroke="#000" stroke-width="1"/>
  <path d="M484.066810 675.701344 L439.505733 644.237317 L448.387001 638.654287 L406.516093 615.411881 L420.726122 606.479033 L362.868932 593.286080 L401.946511 568.720750 L384.080817 540.300692 L405.395860 526.901422 L423.261554 555.321479 L462.339133 530.756149 L449.146180 588.613339 L463.356208 579.680492 L466.149537 627.488228 L475.030805 621.905199 Z" fill="#888" fill-opacity="0.18" stroke="#000" stroke-width="1"/>
  <path d="M202.194139 617.928014 L168.170655 660.566930 L163.118146 651.373492 L137.459914 691.809089 L129.375901 677.099589 L112.812184 734.083374 L90.581147 693.632248 L61.162146 709.800275 L49.036126 687.736025 L78.455126 671.567997 L56.224089 631.116872 L113.207874 647.680588 L105.123860 632.971088 L153.013129 632.986617 L147.960621 623.793179 Z" fill="#888" fill-opacity="0.18" stroke="#000" stroke-width="1"/>
  <path d="M622.251064 153.854348 L608.127076 206.543887 L599.818577 200.139515 L592.479786 247.463130 L579.186187 237.216134 L586.802694 296.067619 L550.245299 267.888381 L529.751308 294.475578 L509.810910 279.105085 L530.304901 252.517888 L493.747506 224.338650 L552.598991 216.722143 L539.305392 206.475148 L583.201579 187.330771 L574.893080 180.926399 Z" fill="#888" fill-opacity="0.18" stroke="#000" stroke-width="1"/>
  <path d="M834.047453 443.592337 L831.070095 389.123906 L840.959266 392.624111 L833.203910 345.366976 L849.026584 350.967304 L823.470720 297.409800 L866.983072 312.810702 L878.183728 281.165355 L901.917739 289.565847 L890.717083 321.211194 L934.229435 336.612097 L880.671931 362.167960 L896.494604 367.768289 L860.737608 399.624521 L870.626779 403.124726 Z" fill="#888" fill-opacity="0.18" stroke="#000" stroke-width="1"/>
</svg>
