<?xml version="1.0" encoding="UTF-8"?>
<svg xmlns="http://www.w3.org/2000/svg" width="1100" height="1100" viewBox="0 0 1100 1100">
  <rect x="0" y="0" width="1100" height="1100" fill="white"/>
  <text x="10.0" y="18.0" font-family="monospace" font-size="12">prefix=N61_job5048461_task61 run_id=61 L=6.26139023004 feas=0.000e+00 N=61</text>
  <rect x="40.000000" y="40.000000" width="1020.000000" height="1020.000000" fill="none" stroke="#000" stroke-width="2"/>
  <path d="M670.885110 850.615672 L688.804635 800.796937 L696.322789 807.662736 L707.246044 762.485365 L719.275090 773.470642 L716.665669 715.934834 L749.745545 746.144347 L771.716100 722.086256 L789.759669 738.564172 L767.789114 762.622263 L800.868990 792.831776 L743.333182 795.441197 L755.362228 806.426475 L711.359096 821.394333 L718.877250 828.260131 Z" fill="#888" fill-opacity="0.18" stroke="#000" stroke-width="1"/>
  <path d="M813.629027 96.007082 L765.762392 118.630100 L765.286903 108.459764 L725.651635 132.736458 L724.890853 116.463921 L686.111465 159.047220 L684.019314 114.297742 L651.474239 115.819306 L650.333066 91.410500 L682.878141 89.888936 L680.785990 45.139458 L723.369289 83.918846 L722.608507 67.646309 L764.335926 88.119092 L763.860437 77.948756 Z" fill="#888" fill-opacity="0.18" stroke="#000" stroke-width="1"/>
  <path d="M893.613236 472.580083 L933.997237 438.343436 L937.087767 448.044490 L969.092819 414.340054 L974.037666 429.861741 L1000.479766 378.695408 L1014.078094 421.380046 L1045.121467 411.490353 L1052.538737 434.772883 L1021.495364 444.662576 L1035.093692 487.347215 L983.927359 460.905114 L988.872205 476.426801 L943.268825 467.446598 L946.359354 477.147652 Z" fill="#888" fill-opacity="0.18" stroke="#000" stroke-width="1"/>
  <path d="M457.924535 342.791469 L407.166677 327.736386 L413.593456 319.839657 L367.867626 311.505343 L378.150473 298.870576 L320.856440 304.750375 L349.134269 270.004767 L323.864736 249.439073 L339.289007 230.486924 L364.558540 251.052618 L392.836369 216.307010 L398.716167 273.601044 L408.999014 260.966277 L426.447015 304.046199 L432.873795 296.149470 Z" fill="#888" fill-opacity="0.18" stroke="#000" stroke-width="1"/>
  <path d="M487.745030 273.412066 L534.966031 249.470622 L535.723314 259.623865 L574.670263 234.257598 L575.881916 250.502787 L613.465756 206.860683 L616.797801 251.534952 L649.288179 249.111646 L651.105658 273.479430 L618.615280 275.902735 L621.947326 320.577004 L578.305222 282.993164 L579.516874 299.238353 L537.237880 279.930351 L537.995163 290.083594 Z" fill="#888" fill-opacity="0.18" stroke="#000" stroke-width="1"/>
  <path d="M746.523329 414.519574 L711.426997 374.880413 L721.059418 371.582185 L686.675184 340.308605 L702.087056 335.031441 L650.364466 309.694670 L692.747114 295.182470 L682.192786 264.358725 L705.310594 256.442979 L715.864922 287.266724 L758.247571 272.754523 L732.910800 324.477113 L748.322672 319.199949 L740.324258 364.985730 L749.956678 361.687503 Z" fill="#888" fill-opacity="0.18" stroke="#000" stroke-width="1"/>
  <path d="M442.593742 252.761541 L468.344934 206.502576 L474.651911 214.495315 L492.747516 171.683384 L502.838679 184.471766 L509.581727 127.272906 L537.332423 162.440955 L562.909187 142.258630 L578.045930 161.441203 L552.469167 181.623528 L580.219863 216.791577 L523.021003 210.048529 L533.112166 222.836911 L487.265864 230.480792 L493.572840 238.473530 Z" fill="#888" fill-opacity="0.18" stroke="#000" stroke-width="1"/>
  <path d="M846.705261 822.746818 L894.360188 845.812454 L886.740924 852.565870 L930.516971 868.185411 L918.326148 878.990877 L975.816871 882.454268 L942.292109 912.169301 L963.903041 936.550946 L945.616807 952.759146 L924.005874 928.377500 L890.481112 958.092533 L893.944503 900.601810 L881.753680 911.407276 L871.502395 866.072703 L863.883131 872.826120 Z" fill="#888" fill-opacity="0.18" stroke="#000" stroke-width="1"/>
  <path d="M601.326640 913.501336 L590.776436 965.383017 L582.347011 959.672798 L578.050868 1005.952983 L564.563787 996.816631 L575.440610 1053.375211 L538.351138 1028.250245 L520.078435 1055.224406 L499.847814 1041.519879 L518.120517 1014.545717 L481.031046 989.420751 L537.589626 978.543928 L524.102545 969.407576 L565.488160 948.252358 L557.058735 942.542139 Z" fill="#888" fill-opacity="0.18" stroke="#000" stroke-width="1"/>
  <path d="M477.004446 1053.460232 L424.061004 1053.373281 L427.992374 1043.981468 L381.776108 1048.917976 L388.066300 1033.891075 L334.773568 1055.732846 L352.071597 1014.408869 L322.017795 1001.828485 L331.453084 979.288134 L361.506885 991.868518 L378.804914 950.544542 L400.646685 1003.837274 L406.936877 988.810373 L435.855114 1025.197843 L439.786485 1015.806030 Z" fill="#888" fill-opacity="0.18" stroke="#000" stroke-width="1"/>
  <path d="M387.947371 419.778133 L419.039626 376.926210 L424.346753 385.615066 L447.426499 345.271074 L455.917902 359.173244 L469.444819 303.189310 L492.796178 341.420278 L520.600518 324.437471 L533.337623 345.290726 L505.533283 362.273533 L528.884643 400.504500 L472.900709 386.977584 L481.392113 400.879754 L434.961008 402.992779 L440.268135 411.681635 Z" fill="#888" fill-opacity="0.18" stroke="#000" stroke-width="1"/>
  <path d="M584.446104 767.508427 L533.905244 783.276657 L534.844379 773.138618 L492.226124 791.685764 L493.728740 775.464901 L449.420041 812.260519 L453.552236 767.653145 L421.110509 764.647912 L423.364433 740.316617 L455.806160 743.321850 L459.938355 698.714476 L496.733972 743.023174 L498.236589 726.802311 L536.722650 752.862539 L537.661785 742.724499 Z" fill="#888" fill-opacity="0.18" stroke="#000" stroke-width="1"/>
  <path d="M126.031452 691.544409 L147.356926 643.085769 L154.381723 650.455575 L168.406393 606.142811 L179.646069 617.934501 L181.026103 560.356087 L211.935212 592.783233 L235.518591 570.303881 L252.378105 587.991416 L228.794726 610.470768 L259.703835 642.897914 L202.125421 641.517880 L213.365097 653.309570 L168.431318 665.195187 L175.456116 672.564993 Z" fill="#888" fill-opacity="0.18" stroke="#000" stroke-width="1"/>
  <path d="M725.785745 914.083526 L673.239087 907.613254 L678.274244 898.764016 L631.799946 898.091716 L639.856195 883.932934 L584.318616 899.189264 L606.473303 860.252615 L578.155740 844.140115 L590.240114 822.901942 L618.557678 839.014442 L640.712365 800.077792 L655.968695 855.615371 L664.024945 841.456589 L688.344556 881.065538 L693.379712 872.216300 Z" fill="#888" fill-opacity="0.18" stroke="#000" stroke-width="1"/>
  <path d="M483.064715 458.200410 L535.993795 459.436585 L531.859483 468.740847 L578.172016 464.808719 L571.557117 479.695538 L625.311412 459.015739 L607.120438 499.954491 L636.894076 513.184289 L626.971727 535.514517 L597.198090 522.284719 L579.007117 563.223470 L558.327318 509.469175 L551.712419 524.355994 L523.590859 487.349370 L519.456547 496.653632 Z" fill="#888" fill-opacity="0.18" stroke="#000" stroke-width="1"/>
  <path d="M642.500697 726.530302 L633.654965 674.330985 L643.575386 676.621633 L630.913052 631.900523 L646.785726 635.565560 L616.266633 586.721284 L659.916486 596.800135 L667.246559 565.054788 L691.055570 570.552343 L683.725496 602.297690 L727.375349 612.376541 L678.531073 642.895633 L694.403746 646.560670 L663.416228 681.202929 L673.336650 683.493577 Z" fill="#888" fill-opacity="0.18" stroke="#000" stroke-width="1"/>
  <path d="M50.726241 711.524727 L103.405386 716.808977 L98.570967 725.769457 L145.048612 725.394076 L137.313541 739.730845 L192.493140 723.226599 L171.221696 762.652714 L199.895234 778.122855 L188.292629 799.628008 L159.619090 784.157867 L138.347647 823.583982 L121.843400 768.404383 L114.108330 782.741152 L88.902129 743.690419 L84.067710 752.650899 Z" fill="#888" fill-opacity="0.18" stroke="#000" stroke-width="1"/>
  <path d="M371.640475 590.098259 L358.964024 538.694726 L369.026519 540.246505 L353.096146 496.582612 L369.196138 499.065458 L335.153274 452.608363 L379.428252 459.436190 L384.393944 427.236206 L408.543932 430.960475 L403.578239 463.160459 L447.853217 469.988286 L401.396122 504.031150 L417.496114 506.513997 L389.151509 543.350063 L399.214004 544.901842 Z" fill="#888" fill-opacity="0.18" stroke="#000" stroke-width="1"/>
  <path d="M826.640221 678.276108 L819.003381 625.886278 L828.868206 628.405613 L817.242934 583.403776 L833.026654 587.434712 L803.644696 537.898071 L847.049926 548.983147 L855.111799 517.415707 L878.787379 523.462113 L870.725505 555.029552 L914.130735 566.114629 L864.594093 595.496586 L880.377813 599.527523 L848.597856 633.444284 L858.462681 635.963620 Z" fill="#888" fill-opacity="0.18" stroke="#000" stroke-width="1"/>
  <path d="M749.155847 558.450613 L766.985631 608.301535 L756.817584 607.779387 L777.098695 649.600302 L760.829820 648.764865 L799.413416 691.525646 L754.674009 689.228194 L753.003135 721.765945 L728.599822 720.512790 L730.270696 687.975039 L685.531288 685.677587 L728.292069 647.093991 L712.023194 646.258554 L736.481490 606.735091 L726.313442 606.212943 Z" fill="#888" fill-opacity="0.18" stroke="#000" stroke-width="1"/>
  <path d="M751.953432 208.233943 L804.238803 199.911942 L801.848820 209.808901 L846.694619 197.595522 L842.870647 213.430657 L892.018415 183.402750 L881.502491 226.949371 L913.172761 234.597316 L907.436802 258.350019 L875.766532 250.702074 L865.250608 294.248695 L835.222702 245.100927 L831.398730 260.936061 L797.068854 229.602820 L794.678872 239.499779 Z" fill="#888" fill-opacity="0.18" stroke="#000" stroke-width="1"/>
  <path d="M909.247952 318.066059 L908.758354 265.124809 L918.192422 268.953671 L912.752921 222.793903 L927.847430 228.920083 L905.426607 175.868363 L946.936506 192.715356 L959.188864 162.526339 L981.830627 171.715608 L969.578268 201.904625 L1011.088167 218.751619 L958.036447 241.172442 L973.130956 247.298621 L937.060558 276.611396 L946.494626 280.440258 Z" fill="#888" fill-opacity="0.18" stroke="#000" stroke-width="1"/>
  <path d="M943.564138 649.022592 L917.029836 694.836852 L910.859723 686.737993 L892.038531 729.235935 L882.166351 716.277759 L874.451362 773.353649 L847.302866 737.718666 L821.386515 757.463026 L806.578245 738.025762 L832.494596 718.281402 L805.346101 682.646419 L862.421991 690.361407 L852.549810 677.403232 L898.519498 670.540273 L892.349385 662.441413 Z" fill="#888" fill-opacity="0.18" stroke="#000" stroke-width="1"/>
  <path d="M234.057727 396.013886 L282.203169 373.990442 L282.551603 384.165923 L322.486973 360.386130 L323.044467 376.666899 L362.352656 334.571240 L363.885765 379.343357 L396.447304 378.228369 L397.283545 402.649524 L364.722006 403.764512 L366.255114 448.536628 L324.159455 409.228439 L324.716949 425.509209 L283.248470 404.516885 L283.596904 414.692366 Z" fill="#888" fill-opacity="0.18" stroke="#000" stroke-width="1"/>
  <path d="M477.523341 716.960249 L516.699347 681.347665 L520.123474 690.936052 L550.943945 656.145092 L556.422549 671.486512 L581.079591 619.436454 L596.145750 661.625359 L626.828590 650.668153 L635.046494 673.680283 L604.363654 684.637489 L619.429813 726.826394 L567.379755 702.169352 L572.858358 717.510772 L526.971728 710.112827 L530.395855 719.701215 Z" fill="#888" fill-opacity="0.18" stroke="#000" stroke-width="1"/>
  <path d="M235.774186 896.778915 L264.478709 941.265610 L254.458547 943.070651 L283.723069 979.180208 L267.690810 982.068275 L314.991623 1014.928757 L270.902910 1022.870939 L276.679043 1054.935458 L252.630654 1059.267557 L246.854521 1027.203039 L202.765808 1035.145221 L235.626291 987.844407 L219.594032 990.732473 L234.418223 946.680734 L224.398061 948.485775 Z" fill="#888" fill-opacity="0.18" stroke="#000" stroke-width="1"/>
  <path d="M611.619173 901.793498 L658.387422 926.607739 L650.523337 933.074422 L693.691057 950.304058 L681.108521 960.650751 L738.431593 966.240358 L703.829620 994.693764 L724.523006 1019.858835 L705.649202 1035.378875 L684.955816 1010.213803 L650.353843 1038.667209 L655.943450 981.344137 L643.360914 991.690830 L634.795168 946.007788 L626.931083 952.474471 Z" fill="#888" fill-opacity="0.18" stroke="#000" stroke-width="1"/>
  <path d="M699.432829 369.510531 L652.975634 394.902355 L651.904393 384.777423 L613.761393 411.337240 L612.047407 395.137348 L575.832641 439.922044 L571.119179 395.372340 L538.719394 398.800312 L536.148415 374.500474 L568.548200 371.072501 L563.834738 326.522797 L608.619434 362.737563 L606.905448 346.537670 L649.761910 364.527557 L648.690669 354.402624 Z" fill="#888" fill-opacity="0.18" stroke="#000" stroke-width="1"/>
  <path d="M433.162320 767.157998 L413.837270 816.448546 L406.516836 809.372313 L394.316859 854.221760 L382.604165 842.899788 L383.580968 900.486454 L351.371060 869.351029 L328.727115 892.776417 L311.158074 875.793458 L333.802019 852.368070 L301.592111 821.232646 L359.178777 820.255842 L347.466083 808.933870 L391.875969 795.219847 L384.555535 788.143614 Z" fill="#888" fill-opacity="0.18" stroke="#000" stroke-width="1"/>
  <path d="M858.849563 378.251577 L868.381636 430.329934 L858.431922 428.170068 L871.681830 472.720627 L855.762288 469.264842 L886.921681 517.703159 L843.142941 508.199751 L836.231371 540.038835 L812.352058 534.855158 L819.263628 503.016074 L775.484888 493.512665 L823.923205 462.353273 L808.003663 458.897488 L838.532495 423.850337 L828.582781 421.690472 Z" fill="#888" fill-opacity="0.18" stroke="#000" stroke-width="1"/>
  <path d="M232.431034 314.699115 L198.464500 355.310569 L193.767684 346.277201 L167.967207 384.937876 L160.452301 370.484487 L143.106094 425.405224 L122.440102 385.658405 L93.533325 400.688217 L82.260966 379.008133 L111.167744 363.978321 L90.501752 324.231502 L145.422489 341.577709 L137.907583 327.124320 L184.374051 328.210465 L179.677235 319.177097 Z" fill="#888" fill-opacity="0.18" stroke="#000" stroke-width="1"/>
  <path d="M845.991230 943.459931 L799.494047 918.141409 L807.427600 911.760143 L764.448718 894.064716 L777.142403 883.854691 L719.883126 877.645543 L754.790760 849.567972 L734.370708 824.180602 L753.411235 808.865564 L773.831287 834.252933 L808.738920 806.175362 L802.529773 863.434639 L815.223458 853.224613 L823.294706 898.997611 L831.228259 892.616344 Z" fill="#888" fill-opacity="0.18" stroke="#000" stroke-width="1"/>
  <path d="M879.917281 802.130316 L931.356959 789.601343 L929.776327 799.659346 L973.485729 783.854266 L970.956718 799.947071 L1017.511257 766.037586 L1010.556478 810.292799 L1042.742087 815.350821 L1038.948571 839.490028 L1006.762961 834.432006 L999.808182 878.687220 L965.898697 832.132681 L963.369686 848.225485 L926.615064 819.775352 L925.034432 829.833355 Z" fill="#888" fill-opacity="0.18" stroke="#000" stroke-width="1"/>
  <path d="M870.730928 976.242620 L921.646903 961.731273 L920.456907 971.842936 L963.521550 954.357259 L961.617557 970.535920 L1006.824192 934.849250 L1001.588212 979.340568 L1033.945534 983.148553 L1031.089544 1007.416545 L998.732222 1003.608559 L993.496242 1048.099877 L957.809571 1002.893242 L955.905578 1019.071903 L918.076916 992.066262 L916.886920 1002.177925 Z" fill="#888" fill-opacity="0.18" stroke="#000" stroke-width="1"/>
  <path d="M147.801622 154.011275 L181.798135 113.424913 L186.488280 122.461747 L212.317297 83.820135 L219.821529 98.279069 L237.208286 43.371155 L257.844922 83.133224 L286.762790 68.124762 L298.019137 89.813163 L269.101269 104.821625 L289.737905 144.583694 L234.829991 127.196937 L242.334222 141.655871 L195.868569 140.535415 L200.558714 149.572249 Z" fill="#888" fill-opacity="0.18" stroke="#000" stroke-width="1"/>
  <path d="M255.416263 176.922447 L300.610816 149.345862 L302.163275 159.408252 L338.997424 131.061157 L341.481359 147.160980 L375.521081 100.701583 L382.351903 144.976099 L414.551551 140.008229 L418.277453 164.157965 L386.077805 169.125835 L392.908627 213.400350 L346.449229 179.360628 L348.933164 195.460452 L305.268194 179.533032 L306.820653 189.595422 Z" fill="#888" fill-opacity="0.18" stroke="#000" stroke-width="1"/>
  <path d="M530.540742 946.872986 L511.821060 897.349363 L521.996828 897.689333 L500.970017 856.238330 L517.251245 856.782281 L477.908053 814.719334 L522.681430 816.215199 L523.769332 783.652744 L548.191174 784.468670 L547.103272 817.031126 L591.876648 818.526992 L549.813701 857.870184 L566.094929 858.414135 L542.348362 898.369272 L552.524130 898.709241 Z" fill="#888" fill-opacity="0.18" stroke="#000" stroke-width="1"/>
  <path d="M44.467148 1059.823695 L81.099432 1021.599469 L85.175309 1030.929477 L113.528410 994.099951 L120.049814 1009.027964 L141.066337 955.404424 L159.000196 996.456459 L188.856222 983.413652 L198.638327 1005.805671 L168.782301 1018.848478 L186.716161 1059.900512 L133.092621 1038.883989 L139.614024 1053.812002 L93.327063 1049.589493 L97.402940 1058.919501 Z" fill="#888" fill-opacity="0.18" stroke="#000" stroke-width="1"/>
  <path d="M187.679540 60.663308 L158.059617 104.545831 L152.460643 96.042107 L130.763493 137.146195 L121.805134 123.540238 L110.186139 179.951028 L85.550652 142.534646 L58.338737 160.451364 L44.901199 140.042428 L72.113114 122.125710 L47.477627 84.709328 L103.888417 96.328324 L94.930058 82.722367 L141.262694 79.034661 L135.663720 70.530938 Z" fill="#888" fill-opacity="0.18" stroke="#000" stroke-width="1"/>
  <path d="M381.786151 728.746626 L335.369898 703.280039 L343.323748 696.924090 L300.401483 679.091774 L313.127645 668.922256 L255.888448 662.530646 L290.885392 634.564474 L270.546357 609.112151 L289.635599 593.857875 L309.974634 619.310198 L344.971577 591.344025 L338.579967 648.583222 L351.306129 638.413704 L359.231450 684.212194 L367.185301 677.856245 Z" fill="#888" fill-opacity="0.18" stroke="#000" stroke-width="1"/>
  <path d="M767.525070 444.342925 L768.058469 391.402099 L777.416796 395.412526 L772.870187 349.156276 L787.843511 355.572960 L766.451913 302.097940 L807.628553 319.743822 L820.461922 289.797175 L842.921907 299.422201 L830.088538 329.368849 L871.265179 347.014731 L817.790158 368.406329 L832.763482 374.823014 L796.133451 403.433382 L805.491778 407.443810 Z" fill="#888" fill-opacity="0.18" stroke="#000" stroke-width="1"/>
  <path d="M341.395994 934.364919 L380.341161 898.500039 L383.827148 908.066110 L414.422261 873.076805 L419.999840 888.382519 L444.320176 836.174286 L459.658519 878.264999 L490.269946 867.109840 L498.636315 890.068411 L468.024888 901.223570 L483.363231 943.314282 L431.154999 918.993946 L436.732578 934.299660 L390.799122 927.198252 L394.285109 936.764323 Z" fill="#888" fill-opacity="0.18" stroke="#000" stroke-width="1"/>
  <path d="M427.879793 527.965031 L480.408204 534.581804 L475.348392 543.416968 L521.820634 544.218858 L513.724934 558.355120 L569.304839 543.253716 L547.041663 582.128437 L575.314187 598.319837 L563.170637 619.524230 L534.898113 603.332829 L512.634937 642.207549 L497.533533 586.627644 L489.437833 600.763906 L465.228766 561.087295 L460.168953 569.922459 Z" fill="#888" fill-opacity="0.18" stroke="#000" stroke-width="1"/>
  <path d="M878.767438 625.937002 L901.025406 577.899533 L907.906468 585.403719 L922.784875 541.370262 L933.794575 553.376959 L936.287070 495.835967 L966.563743 528.854385 L990.577138 506.834987 L1007.091687 524.845033 L983.078292 546.864432 L1013.354965 579.882850 L955.813973 577.390354 L966.823672 589.397052 L921.668592 600.412091 L928.549654 607.916277 Z" fill="#888" fill-opacity="0.18" stroke="#000" stroke-width="1"/>
  <path d="M267.804681 832.238647 L238.693081 788.017267 L248.696255 786.120339 L219.101563 750.280884 L235.106641 747.245800 L187.506236 714.820814 L231.520201 706.474334 L225.450034 674.464177 L249.457651 669.911551 L255.527819 701.921708 L299.541784 693.575227 L267.116798 741.175632 L283.121876 738.140549 L268.702603 782.326484 L278.705777 780.429557 Z" fill="#888" fill-opacity="0.18" stroke="#000" stroke-width="1"/>
  <path d="M669.411151 48.124150 L632.957095 86.518387 L628.837856 77.207442 L600.656403 114.168477 L594.065621 99.270966 L573.298799 152.991701 L555.174146 112.023545 L525.379123 125.205110 L515.492949 102.858843 L545.287972 89.677278 L527.163320 48.709121 L580.884055 69.475943 L574.293273 54.578432 L620.599377 58.585553 L616.480138 49.274608 Z" fill="#888" fill-opacity="0.18" stroke="#000" stroke-width="1"/>
  <path d="M40.118366 163.543840 L87.854842 186.440226 L80.259591 193.220637 L124.090788 208.684739 L111.938386 219.533397 L169.441037 222.792759 L136.021929 252.626568 L157.719244 276.931373 L139.490640 293.204359 L117.793325 268.899554 L84.374218 298.733363 L87.633580 241.230712 L75.481178 252.079370 L65.069087 206.781459 L57.473836 213.561870 Z" fill="#888" fill-opacity="0.18" stroke="#000" stroke-width="1"/>
  <path d="M889.876190 469.425266 L889.655585 416.482212 L899.070077 420.358957 L893.865178 374.172148 L908.928365 380.374941 L886.777379 327.209989 L928.201145 344.267670 L940.606731 314.141295 L963.201513 323.445485 L950.795926 353.571860 L992.219692 370.629541 L939.054740 392.780527 L954.117928 398.983320 L917.899062 428.112449 L927.313554 431.989194 Z" fill="#888" fill-opacity="0.18" stroke="#000" stroke-width="1"/>
  <path d="M415.452236 754.473666 L395.248010 705.536922 L405.429401 705.569954 L383.162471 664.771717 L399.452697 664.824569 L358.859262 623.966873 L403.657384 624.112217 L403.763089 591.531765 L428.198428 591.611043 L428.092723 624.191495 L472.890845 624.336839 L432.033149 664.930274 L448.323376 664.983126 L425.792184 705.636020 L435.973575 705.669052 Z" fill="#888" fill-opacity="0.18" stroke="#000" stroke-width="1"/>
  <path d="M158.184763 241.934961 L210.282894 232.511567 L208.102274 242.456752 L252.680381 229.299825 L249.191389 245.212122 L297.694612 214.153861 L288.099883 257.912677 L319.924477 264.890662 L314.690988 288.759108 L282.866394 281.781123 L273.271665 325.539939 L242.213404 277.036716 L238.724411 292.949013 L203.741034 262.347123 L201.560413 272.292309 Z" fill="#888" fill-opacity="0.18" stroke="#000" stroke-width="1"/>
  <path d="M319.085609 915.931897 L267.111747 905.845602 L272.746434 897.365501 L226.429717 893.482975 L235.445216 879.914813 L178.986061 891.296470 L203.778685 853.984024 L176.642360 835.953025 L190.165609 815.600781 L217.301934 833.631780 L242.094557 796.319333 L253.476215 852.778488 L262.491714 839.210326 L284.015809 880.405298 L289.650496 871.925196 Z" fill="#888" fill-opacity="0.18" stroke="#000" stroke-width="1"/>
  <path d="M978.540123 55.937382 L948.190145 99.318190 L942.734231 90.721980 L920.352404 131.457299 L911.622941 117.703363 L899.061760 173.911859 L875.055737 136.088537 L847.547866 153.547463 L834.453671 132.916560 L861.961542 115.457634 L837.955519 77.634311 L894.164015 90.195493 L885.434552 76.441557 L931.822402 73.529561 L926.366488 64.933351 Z" fill="#888" fill-opacity="0.18" stroke="#000" stroke-width="1"/>
  <path d="M970.723202 603.005383 L1003.075805 644.913912 L993.243477 647.557234 L1025.447888 681.071235 L1009.716163 685.300551 L1059.618764 714.056572 L1016.356522 725.687191 L1024.815154 757.150640 L1001.217567 763.494614 L992.758935 732.031165 L949.496693 743.661784 L978.252715 693.759183 L962.520990 697.988499 L973.578821 652.843879 L963.746494 655.487201 Z" fill="#888" fill-opacity="0.18" stroke="#000" stroke-width="1"/>
  <path d="M353.325704 67.975757 L405.714389 60.331070 L403.196532 70.196272 L448.196627 58.564258 L444.168055 74.348581 L493.700295 44.959203 L482.621721 88.366093 L514.190368 96.423237 L508.147510 120.099723 L476.578863 112.042578 L465.500289 155.449468 L436.110911 105.917228 L432.082338 121.701552 L398.160817 89.926676 L395.642959 99.791879 Z" fill="#888" fill-opacity="0.18" stroke="#000" stroke-width="1"/>
  <path d="M97.895296 1008.293649 L84.105732 957.177472 L94.199548 958.510402 L77.324877 915.202691 L93.474982 917.335381 L58.431442 871.628394 L102.844231 877.493290 L107.109610 845.193080 L131.334768 848.392114 L127.069389 880.692324 L171.482179 886.557220 L125.775192 921.600759 L141.925298 923.733449 L114.387180 961.176264 L124.480995 962.509195 Z" fill="#888" fill-opacity="0.18" stroke="#000" stroke-width="1"/>
  <path d="M799.061387 461.726756 L748.508576 477.456628 L749.455404 467.319304 L706.823086 485.834104 L708.338011 469.614385 L664.001402 506.376368 L668.167446 461.772143 L635.728010 458.742292 L638.000398 434.412715 L670.439834 437.442565 L674.605879 392.838340 L711.367862 437.174949 L712.882787 420.955230 L751.349061 447.044656 L752.295889 436.907332 Z" fill="#888" fill-opacity="0.18" stroke="#000" stroke-width="1"/>
  <path d="M606.327185 146.269449 L657.318163 160.515004 L651.017844 168.512991 L696.870496 176.118694 L686.789986 188.915474 L743.983211 182.124798 L716.261809 217.315944 L741.855369 237.476964 L726.734604 256.672134 L701.141044 236.511114 L673.419641 271.702259 L666.628966 214.509034 L656.548456 227.305814 L638.417207 184.508967 L632.116888 192.506954 Z" fill="#888" fill-opacity="0.18" stroke="#000" stroke-width="1"/>
  <path d="M930.366065 1037.547592 L877.441605 1038.967847 L881.104019 1029.467924 L835.047014 1035.718096 L840.906878 1020.518219 L788.257527 1043.868253 L804.372151 1002.068591 L773.972397 990.348864 L782.762192 967.549049 L813.161946 979.268776 L829.276571 937.469114 L852.626605 990.118465 L858.486468 974.918588 L888.428849 1010.468078 L892.091263 1000.968155 Z" fill="#888" fill-opacity="0.18" stroke="#000" stroke-width="1"/>
  <path d="M232.756544 470.341681 L189.192086 500.427453 L187.073640 490.468839 L151.899763 520.851577 L148.510249 504.917793 L117.149576 553.226037 L107.828412 509.408133 L75.960845 516.187161 L70.876574 492.286486 L102.744140 485.507458 L93.422976 441.689553 L141.731221 473.050226 L138.341706 457.116443 L182.836747 470.551609 L180.718301 460.592995 Z" fill="#888" fill-opacity="0.18" stroke="#000" stroke-width="1"/>
  <path d="M42.794670 708.229726 L49.072798 655.659765 L57.940385 660.662537 L58.442779 614.186092 L72.630919 622.190526 L57.171656 566.709092 L96.189039 588.721286 L112.197907 560.345007 L133.480116 572.351659 L117.471248 600.727937 L156.488631 622.740131 L101.007197 638.199394 L115.195336 646.203828 L75.675560 670.668080 L84.543147 675.670851 Z" fill="#888" fill-opacity="0.18" stroke="#000" stroke-width="1"/>
  <path d="M181.334623 554.744746 L208.861234 509.519738 L214.853350 517.751164 L234.596397 475.673564 L244.183783 488.843845 L253.141022 431.949679 L279.506332 468.167951 L305.846894 448.993180 L320.227972 468.748602 L293.887410 487.923373 L320.252720 524.141646 L263.358554 515.184407 L272.945939 528.354688 L226.837582 534.214015 L232.829698 542.445441 Z" fill="#888" fill-opacity="0.18" stroke="#000" stroke-width="1"/>
</svg>
