<?xml version="1.0" encoding="UTF-8"?>
<svg xmlns="http://www.w3.org/2000/svg" width="1100" height="1100" viewBox="0 0 1100 1100">
  <rect x="0" y="0" width="1100" height="1100" fill="white"/>
  <text x="10.0" y="18.0" font-family="monospace" font-size="12">prefix=N62_job5048462_task62 run_id=62 L=6.23488478161 feas=0.000e+00 N=62</text>
  <rect x="40.000000" y="40.000000" width="1020.000000" height="1020.000000" fill="none" stroke="#000" stroke-width="2"/>
  <path d="M273.532827 129.181980 L226.768885 154.480837 L225.736835 144.308328 L187.317310 170.816047 L185.666031 154.540033 L149.104196 199.358268 L144.563176 154.599230 L112.011148 157.901789 L109.534228 133.487769 L142.086256 130.185209 L137.545236 85.426171 L182.363471 121.988006 L180.712191 105.711992 L223.672735 123.963311 L222.640685 113.790802 Z" fill="#888" fill-opacity="0.18" stroke="#000" stroke-width="1"/>
  <path d="M342.753860 229.960158 L292.316509 246.781932 L293.060969 236.584342 L250.632798 256.041201 L251.823933 239.725057 L208.055736 277.537579 L211.331358 232.668183 L178.699070 230.285913 L180.485773 205.811697 L213.118061 208.193968 L216.393683 163.324572 L254.206204 207.092770 L255.397339 190.776626 L294.549888 216.189162 L295.294347 205.991572 Z" fill="#888" fill-opacity="0.18" stroke="#000" stroke-width="1"/>
  <path d="M334.850857 478.441353 L386.215728 464.710057 L384.854059 474.843710 L428.384341 457.996349 L426.205671 474.210193 L472.186957 439.122257 L466.195615 483.710329 L498.623303 488.067669 L495.355299 512.388435 L462.927610 508.031095 L456.936268 552.619167 L421.848331 506.637882 L419.669662 522.851726 L382.130722 495.111015 L380.769053 505.244668 Z" fill="#888" fill-opacity="0.18" stroke="#000" stroke-width="1"/>
  <path d="M763.526534 107.045794 L743.218301 156.183092 L735.997792 148.943664 L722.925203 193.752441 L711.372388 182.169357 L711.296715 240.009103 L679.526475 208.155623 L656.360308 231.261252 L639.031086 213.886626 L662.197254 190.780997 L630.427014 158.927517 L688.266759 159.003190 L676.713945 147.420106 L721.556774 134.464810 L714.336265 127.225383 Z" fill="#888" fill-opacity="0.18" stroke="#000" stroke-width="1"/>
  <path d="M547.264415 945.455999 L494.196997 948.734345 L497.540147 939.071612 L451.534285 946.957024 L456.883325 931.496651 L404.859794 956.774982 L419.569654 914.258958 L388.648909 903.560877 L396.672469 880.370318 L427.593214 891.068399 L442.303075 848.552374 L467.581406 900.575906 L472.930446 885.115533 L504.226447 919.746146 L507.569597 910.083413 Z" fill="#888" fill-opacity="0.18" stroke="#000" stroke-width="1"/>
  <path d="M789.247299 815.998739 L837.050115 792.722373 L837.646303 802.929705 L877.164016 778.088824 L878.117917 794.420555 L916.562492 751.206476 L919.185719 796.118736 L951.849180 794.210934 L953.280031 818.708530 L920.616570 820.616332 L923.239796 865.528591 L880.025718 827.084016 L880.979619 843.415746 L838.838679 823.344368 L839.434867 833.551700 Z" fill="#888" fill-opacity="0.18" stroke="#000" stroke-width="1"/>
  <path d="M318.079647 748.136380 L266.418325 735.566327 L272.470799 727.325416 L226.191712 721.245524 L235.875670 708.060066 L178.702129 716.813815 L205.333015 680.553805 L178.962099 661.185888 L193.488037 641.407702 L219.858953 660.775619 L246.489839 624.515609 L255.243587 681.689150 L264.927546 668.503692 L284.575747 710.843593 L290.628222 702.602682 Z" fill="#888" fill-opacity="0.18" stroke="#000" stroke-width="1"/>
  <path d="M365.455855 91.328451 L410.266335 119.945216 L401.872051 125.783115 L443.691070 146.516873 L430.260215 155.857511 L487.188945 166.083052 L450.254096 191.769806 L468.935371 218.631514 L448.789090 232.642470 L430.107814 205.780762 L393.172966 231.467515 L403.398507 174.538786 L389.967653 183.879423 L385.083484 137.458912 L376.689200 143.296810 Z" fill="#888" fill-opacity="0.18" stroke="#000" stroke-width="1"/>
  <path d="M621.313673 847.854010 L625.571119 794.856156 L634.664122 799.531875 L633.362392 752.873280 L647.911197 760.354431 L630.242062 705.279541 L670.251276 725.852706 L685.213578 696.755095 L707.036786 707.976822 L692.074484 737.074432 L732.083698 757.647597 L677.008808 775.316733 L691.557613 782.797884 L652.850129 808.883314 L661.943132 813.559033 Z" fill="#888" fill-opacity="0.18" stroke="#000" stroke-width="1"/>
  <path d="M463.888456 280.485950 L500.872381 242.287944 L504.917595 251.678434 L533.580085 214.838500 L540.052427 229.863284 L561.433532 176.120469 L579.232473 217.438625 L609.282041 204.493941 L618.990555 227.031117 L588.940986 239.975801 L606.739927 281.293958 L552.997111 259.912853 L559.469454 274.937637 L513.008023 270.459414 L517.053237 279.849904 Z" fill="#888" fill-opacity="0.18" stroke="#000" stroke-width="1"/>
  <path d="M619.434637 472.887328 L669.936425 489.514649 L663.249490 497.249632 L708.900679 506.980408 L698.201584 519.356381 L755.889255 515.164187 L726.466742 549.198113 L751.218688 570.596304 L735.170044 589.160264 L710.418099 567.762072 L680.995586 601.795998 L676.803392 544.108327 L666.104297 556.484300 L649.875621 512.719598 L643.188686 520.454581 Z" fill="#888" fill-opacity="0.18" stroke="#000" stroke-width="1"/>
  <path d="M827.930777 788.113801 L848.396162 739.041747 L855.593465 746.304246 L868.809391 701.537535 L880.325076 713.157533 L880.585855 655.318325 L912.253991 687.273318 L935.493985 664.241947 L952.767514 681.671943 L929.527519 704.703314 L961.195655 736.658306 L903.356447 736.397527 L914.872133 748.017524 L869.988072 760.829242 L877.185376 768.091741 Z" fill="#888" fill-opacity="0.18" stroke="#000" stroke-width="1"/>
  <path d="M349.349556 403.537995 L311.949310 365.747521 L321.423969 361.903577 L285.203945 332.461618 L300.363399 326.311309 L247.088990 303.788448 L288.777489 286.875096 L276.476869 256.556189 L299.216050 247.330724 L311.516669 277.649632 L353.205168 260.736280 L330.682307 314.010689 L345.841761 307.860380 L340.373286 354.215690 L349.847945 350.371747 Z" fill="#888" fill-opacity="0.18" stroke="#000" stroke-width="1"/>
  <path d="M433.176160 414.891493 L410.753154 366.682498 L420.969470 366.267837 L396.834929 326.314827 L413.181035 325.651369 L370.657126 286.444749 L415.608917 284.620240 L414.282001 251.928028 L438.801159 250.932841 L440.128075 283.625053 L485.079866 281.800543 L445.873247 324.324453 L462.219353 323.660995 L441.402102 365.438514 L451.618418 365.023853 Z" fill="#888" fill-opacity="0.18" stroke="#000" stroke-width="1"/>
  <path d="M993.610298 263.077286 L948.898373 291.847794 L947.098277 281.782770 L910.798391 311.126207 L907.918237 295.022168 L874.858523 342.482649 L866.938102 298.196542 L834.730024 303.956848 L830.409794 279.800790 L862.617872 274.040483 L854.697450 229.754376 L902.157931 262.814090 L899.277777 246.710051 L943.498085 261.652722 L941.697990 251.587697 Z" fill="#888" fill-opacity="0.18" stroke="#000" stroke-width="1"/>
  <path d="M220.673296 494.480925 L254.649199 535.377580 L244.876428 538.383905 L278.401825 570.861078 L262.765390 575.671198 L313.881777 602.736986 L270.881580 615.964815 L280.501820 647.237685 L257.047167 654.452865 L247.426928 623.179995 L204.426732 636.407824 L231.492520 585.291437 L215.856085 590.101557 L225.330884 544.396555 L215.558112 547.402879 Z" fill="#888" fill-opacity="0.18" stroke="#000" stroke-width="1"/>
  <path d="M75.525563 500.940491 L104.745160 545.360235 L94.698785 547.261661 L124.406515 583.264020 L108.332317 586.306302 L156.123520 618.886093 L111.919473 627.252370 L118.004039 659.400768 L93.892741 663.964192 L87.808175 631.815794 L43.604128 640.182071 L76.183919 592.390868 L60.109720 595.433150 L74.606037 551.064515 L64.559663 552.965941 Z" fill="#888" fill-opacity="0.18" stroke="#000" stroke-width="1"/>
  <path d="M838.527972 1046.021427 L785.359713 1045.835254 L789.325325 1036.410872 L742.903450 1041.282065 L749.248429 1026.203053 L695.688452 1048.038135 L713.137144 1006.570853 L682.979121 993.880894 L692.496590 971.262377 L722.654613 983.952335 L740.103306 942.485053 L761.938387 996.045030 L768.283366 980.966019 L797.256549 1017.562107 L801.222161 1008.137725 Z" fill="#888" fill-opacity="0.18" stroke="#000" stroke-width="1"/>
  <path d="M705.765482 497.897843 L725.392908 448.484662 L732.712746 455.623641 L745.165021 410.638534 L756.876762 422.060901 L756.153329 364.225631 L788.360616 395.637141 L811.205351 372.213660 L828.772962 389.347211 L805.928227 412.770692 L838.135515 444.182203 L780.300244 444.905636 L792.011985 456.328004 L747.352422 469.901601 L754.672260 477.040580 Z" fill="#888" fill-opacity="0.18" stroke="#000" stroke-width="1"/>
  <path d="M460.259594 1003.987690 L508.667502 981.997399 L508.990637 992.217020 L549.158221 968.441313 L549.675238 984.792706 L589.261179 942.621682 L590.682974 987.588013 L623.385760 986.553979 L624.161284 1011.081069 L591.458499 1012.115102 L592.880295 1057.081432 L550.709271 1017.495491 L551.226288 1033.846884 L509.636908 1012.656261 L509.960043 1022.875881 Z" fill="#888" fill-opacity="0.18" stroke="#000" stroke-width="1"/>
  <path d="M532.601352 77.375852 L584.400031 65.384383 L582.697431 75.466358 L626.771049 60.096413 L624.046889 76.227573 L671.185188 42.710075 L663.693748 87.070763 L695.956066 92.519083 L691.869826 116.715822 L659.607508 111.267502 L652.116067 155.628190 L618.598569 108.489892 L615.874409 124.621051 L579.292230 95.630307 L577.589630 105.712281 Z" fill="#888" fill-opacity="0.18" stroke="#000" stroke-width="1"/>
  <path d="M837.773528 473.525227 L855.032239 423.235712 L862.682840 430.019027 L872.984778 384.493330 L885.225740 395.346634 L881.756596 337.610970 L915.419240 367.457556 L937.125849 342.975633 L955.487291 359.255589 L933.780683 383.737512 L967.443327 413.584099 L909.707663 417.053243 L921.948624 427.906547 L877.984042 443.585658 L885.634643 450.368973 Z" fill="#888" fill-opacity="0.18" stroke="#000" stroke-width="1"/>
  <path d="M43.832127 909.543937 L93.108343 929.512737 L85.918895 936.783012 L130.816781 949.546199 L119.313664 961.178639 L177.152556 960.855330 L145.518985 992.844540 L168.783865 1015.850773 L151.529190 1033.299433 L128.264310 1010.293200 L96.630739 1042.282410 L96.307431 984.443519 L84.804314 996.075959 L71.540000 951.323562 L64.350552 958.593837 Z" fill="#888" fill-opacity="0.18" stroke="#000" stroke-width="1"/>
  <path d="M814.746364 779.206755 L786.340865 734.262056 L796.420212 732.543972 L767.373310 696.006367 L783.500266 693.257432 L736.310539 659.812380 L780.659668 652.252809 L775.161798 619.998897 L799.352232 615.875494 L804.850102 648.129406 L849.199231 640.569835 L815.754178 687.759563 L831.881134 685.010628 L816.578907 729.107803 L826.658255 727.389719 Z" fill="#888" fill-opacity="0.18" stroke="#000" stroke-width="1"/>
  <path d="M96.232498 880.958918 L149.318585 877.998209 L145.917669 887.640762 L191.969896 880.030810 L186.528431 895.458895 L238.702307 870.492347 L223.738276 912.919581 L254.594446 923.802512 L246.432247 946.944639 L215.576078 936.061708 L200.612047 978.488941 L175.645499 926.315065 L170.204033 941.743150 L139.115837 906.925868 L135.714921 916.568421 Z" fill="#888" fill-opacity="0.18" stroke="#000" stroke-width="1"/>
  <path d="M320.733406 1057.657493 L300.657849 1008.424674 L310.882281 1008.502447 L288.699620 967.433619 L305.058711 967.558055 L264.472072 926.349237 L309.459573 926.691436 L309.708445 893.973253 L334.247082 894.159907 L333.998210 926.878089 L378.985711 927.220288 L337.776894 967.806926 L354.135985 967.931362 L331.331145 1008.657991 L341.555577 1008.735764 Z" fill="#888" fill-opacity="0.18" stroke="#000" stroke-width="1"/>
  <path d="M64.963371 295.342681 L106.059288 329.077291 L97.031257 333.877261 L136.092805 359.429452 L121.647955 367.109404 L176.959960 384.021650 L137.236622 405.141517 L152.596526 434.031217 L130.929251 445.551145 L115.569347 416.661445 L75.846010 437.781312 L92.758255 382.469308 L78.313405 390.149259 L78.975195 343.477201 L69.947163 348.277170 Z" fill="#888" fill-opacity="0.18" stroke="#000" stroke-width="1"/>
  <path d="M903.614331 464.270563 L868.610839 504.291233 L864.095594 495.117487 L837.334148 533.360709 L830.109756 518.682715 L811.475752 573.438681 L791.608673 533.074198 L762.252685 547.522982 L751.416096 525.505991 L780.772084 511.057207 L760.905005 470.692723 L815.660971 489.326727 L808.436579 474.648733 L855.065103 476.769994 L850.549858 467.596248 Z" fill="#888" fill-opacity="0.18" stroke="#000" stroke-width="1"/>
  <path d="M651.307931 386.728650 L641.481444 334.476008 L651.483872 336.596502 L637.960505 291.921704 L653.964390 295.314494 L622.436652 246.822807 L666.447336 256.152979 L673.232915 224.145209 L697.238742 229.234394 L690.453163 261.242164 L734.463846 270.572335 L685.972160 302.100073 L701.976045 305.492863 L671.488729 340.837489 L681.491157 342.957983 Z" fill="#888" fill-opacity="0.18" stroke="#000" stroke-width="1"/>
  <path d="M494.130986 222.491943 L481.020774 170.965049 L491.137250 172.448953 L474.816619 128.718460 L491.002981 131.092707 L456.472693 84.691186 L500.985187 91.220364 L505.733681 58.847641 L530.013223 62.409010 L525.264730 94.781734 L569.777225 101.310912 L523.375704 135.841200 L539.562066 138.215446 L511.370202 175.416762 L521.486678 176.900666 Z" fill="#888" fill-opacity="0.18" stroke="#000" stroke-width="1"/>
  <path d="M369.490251 243.030365 L326.890943 211.215317 L335.689421 206.006493 L295.497476 182.271992 L309.575041 173.937875 L253.545835 159.579255 L292.259139 136.660432 L275.590904 108.505302 L296.707252 96.004126 L313.375486 124.159256 L352.088790 101.240434 L337.730171 157.269640 L351.807736 148.935522 L353.286378 195.588847 L362.084856 190.380023 Z" fill="#888" fill-opacity="0.18" stroke="#000" stroke-width="1"/>
  <path d="M620.310036 725.290595 L568.829344 712.000118 L574.996344 703.844557 L528.806701 697.118791 L538.673901 684.069894 L481.383658 692.024138 L508.518457 656.139670 L482.420662 636.405271 L497.221462 616.831925 L523.319257 636.566324 L550.454056 600.681857 L558.408300 657.972099 L568.275500 644.923202 L587.330343 687.533435 L593.497343 679.377874 Z" fill="#888" fill-opacity="0.18" stroke="#000" stroke-width="1"/>
  <path d="M471.972182 629.934110 L484.694528 681.558139 L474.589498 679.998198 L490.580803 723.850190 L474.412754 721.354285 L508.593114 768.014170 L464.130979 761.150431 L459.139169 793.486530 L434.887096 789.742672 L439.878905 757.406574 L395.416771 750.542835 L442.076656 716.362475 L425.908607 713.866570 L454.379436 676.878317 L444.274406 675.318376 Z" fill="#888" fill-opacity="0.18" stroke="#000" stroke-width="1"/>
  <path d="M407.582223 841.442802 L355.294466 851.080688 L357.451036 841.085977 L312.727734 854.448062 L316.178247 838.456523 L267.573118 869.809089 L277.062027 825.832357 L245.078950 818.931332 L250.254718 794.944024 L282.237796 801.845048 L291.726705 757.868317 L323.079271 806.473445 L326.529784 790.481906 L361.764176 821.096553 L363.920747 811.101841 Z" fill="#888" fill-opacity="0.18" stroke="#000" stroke-width="1"/>
  <path d="M1035.653883 531.916531 L985.089007 548.350998 L985.911652 538.159418 L943.335511 557.290317 L944.651742 540.983788 L900.594842 578.459532 L904.214478 533.616577 L871.601420 530.984114 L873.575767 506.524321 L906.188825 509.156784 L909.808461 464.313829 L947.284205 508.370730 L948.600436 492.064201 L987.556941 517.776256 L988.379585 507.584676 Z" fill="#888" fill-opacity="0.18" stroke="#000" stroke-width="1"/>
  <path d="M759.391389 332.631147 L740.863772 382.467136 L733.387533 375.492116 L721.935179 420.742118 L709.973196 409.582085 L711.978074 467.387123 L679.082620 436.697035 L656.762556 460.621001 L638.819582 443.880953 L661.139646 419.956987 L628.244193 389.266899 L686.049230 387.262021 L674.087247 376.101989 L718.435054 361.542076 L710.958814 354.567056 Z" fill="#888" fill-opacity="0.18" stroke="#000" stroke-width="1"/>
  <path d="M743.875531 182.228725 L774.360953 138.667993 L779.838789 147.301554 L802.321795 106.396378 L811.086332 120.210075 L823.709235 63.764489 L847.811711 101.752158 L875.439106 84.223084 L888.585911 104.943631 L860.958516 122.472704 L885.060992 160.460373 L828.615406 147.837471 L837.379942 161.651169 L790.794460 164.568676 L796.272295 173.202237 Z" fill="#888" fill-opacity="0.18" stroke="#000" stroke-width="1"/>
  <path d="M390.807518 569.185130 L338.675134 558.739417 L344.385348 550.257759 L297.896247 546.076549 L307.032590 532.505897 L250.265103 543.591670 L275.390046 506.272377 L248.248742 487.999692 L261.953256 467.643714 L289.094560 485.916399 L314.219502 448.597107 L325.305275 505.364593 L334.441618 491.793941 L355.805777 533.294445 L361.515991 524.812787 Z" fill="#888" fill-opacity="0.18" stroke="#000" stroke-width="1"/>
  <path d="M387.233688 793.017633 L349.844621 755.216098 L359.320416 751.374957 L323.109102 721.922286 L338.270375 715.776461 L285.002630 693.237844 L326.696129 676.336824 L314.404477 646.014279 L337.146386 636.795540 L349.438037 667.118085 L391.131536 650.217065 L368.592919 703.484810 L383.754192 697.338984 L378.272006 743.692675 L387.747801 739.851534 Z" fill="#888" fill-opacity="0.18" stroke="#000" stroke-width="1"/>
  <path d="M753.110719 681.925378 L700.037496 685.108358 L703.398004 675.451648 L657.378047 683.254377 L662.754860 667.803641 L610.685988 692.988447 L625.472224 650.498924 L594.570753 639.745298 L602.635972 616.569195 L633.537444 627.322821 L648.323680 584.833298 L673.508486 636.902170 L678.885299 621.451434 L710.119020 656.138229 L713.479528 646.481519 Z" fill="#888" fill-opacity="0.18" stroke="#000" stroke-width="1"/>
  <path d="M608.980831 447.225439 L579.036106 403.291263 L589.049919 401.225200 L558.755281 365.715287 L574.777382 362.409587 L526.457881 330.618585 L570.518657 321.527911 L563.907258 289.483710 L587.940408 284.525161 L594.551808 316.569361 L638.612584 307.478687 L606.821582 355.798187 L622.843683 352.492488 L609.077544 397.093076 L619.091357 395.027013 Z" fill="#888" fill-opacity="0.18" stroke="#000" stroke-width="1"/>
  <path d="M1054.523983 589.135672 L1041.685289 640.730888 L1033.475982 634.635616 L1027.155367 680.882441 L1014.020477 671.130005 L1022.476614 728.348321 L986.355665 701.529123 L966.850793 727.798904 L947.148457 713.170250 L966.653329 686.900469 L930.532380 660.081271 L987.750695 651.625134 L974.615805 641.872698 L1017.057369 622.445071 L1008.848062 616.349799 Z" fill="#888" fill-opacity="0.18" stroke="#000" stroke-width="1"/>
  <path d="M894.691063 1054.626916 L876.376716 1004.712158 L886.591935 1005.153010 L865.881862 963.322257 L882.226214 964.027621 L843.128746 921.403333 L888.075711 923.343084 L889.486439 890.654382 L914.002966 891.712428 L912.592238 924.401130 L957.539204 926.340881 L914.914916 965.438349 L931.259267 966.143713 L907.022374 1006.034715 L917.237594 1006.475567 Z" fill="#888" fill-opacity="0.18" stroke="#000" stroke-width="1"/>
  <path d="M831.510214 868.019492 L778.768006 861.299529 L783.861949 852.434046 L737.193339 851.562334 L745.343649 837.377561 L689.505941 852.463720 L711.919293 813.455593 L683.549746 797.154973 L695.775211 775.877812 L724.144758 792.178432 L746.558111 753.170305 L761.644269 809.008014 L769.794579 794.823240 L794.049837 834.703079 L799.143781 825.837595 Z" fill="#888" fill-opacity="0.18" stroke="#000" stroke-width="1"/>
  <path d="M626.703862 621.716884 L578.417920 599.460061 L585.940280 592.534807 L541.690069 577.680924 L553.725846 566.600517 L495.935386 564.212092 L529.033773 533.740972 L506.872959 509.669418 L524.926624 493.048807 L547.087439 517.120362 L580.185826 486.649242 L577.797400 544.439703 L589.833178 533.359296 L600.985002 578.684298 L608.507362 571.759044 Z" fill="#888" fill-opacity="0.18" stroke="#000" stroke-width="1"/>
  <path d="M983.652199 632.072287 L933.452100 649.589378 L934.055582 639.382475 L891.900309 659.423732 L892.865881 643.092687 L849.624339 681.506369 L852.279662 636.595996 L819.617572 634.664852 L821.065930 610.168285 L853.728019 612.099429 L856.383342 567.189056 L894.797024 610.430597 L895.762596 594.099552 L935.262547 618.968669 L935.866029 608.761766 Z" fill="#888" fill-opacity="0.18" stroke="#000" stroke-width="1"/>
  <path d="M541.250696 900.820713 L588.952603 877.338242 L589.592841 887.542906 L629.002970 862.531693 L630.027352 878.859154 L668.285052 835.479547 L671.102101 880.380066 L703.757023 878.331303 L705.293595 902.822495 L672.638673 904.871258 L675.455722 949.771777 L632.076115 911.514077 L633.100496 927.841538 L590.873318 907.952232 L591.513557 918.156896 Z" fill="#888" fill-opacity="0.18" stroke="#000" stroke-width="1"/>
  <path d="M164.311068 360.164331 L123.108169 326.560470 L132.120904 321.731838 L92.978363 296.303890 L107.398737 288.578080 L52.033275 271.841669 L91.689306 250.595691 L76.237685 221.754941 L97.868247 210.166226 L113.319868 239.006975 L152.975898 217.760997 L136.239487 273.126460 L150.659862 265.400650 L150.146372 312.074576 L159.159106 307.245944 Z" fill="#888" fill-opacity="0.18" stroke="#000" stroke-width="1"/>
  <path d="M1039.272426 103.161348 L1040.575598 156.313960 L1031.043834 152.613886 L1037.213417 198.881102 L1021.962596 192.960983 L1045.289353 245.888333 L1003.349595 229.608007 L991.509358 260.109649 L968.633126 251.229472 L980.473363 220.727829 L938.533604 204.447503 L991.460954 181.120746 L976.210132 175.200628 L1011.980308 145.213738 L1002.448544 141.513664 Z" fill="#888" fill-opacity="0.18" stroke="#000" stroke-width="1"/>
  <path d="M1055.683440 63.673660 L1024.752503 106.919186 L1019.363574 98.229854 L996.461889 138.902103 L987.839602 124.999171 L974.637990 181.312219 L950.926700 143.079156 L923.120836 160.323731 L910.187406 139.469333 L937.993269 122.224759 L914.281980 83.991696 L970.595027 97.193308 L961.972740 83.290376 L1008.585715 80.851189 L1003.196785 72.161857 Z" fill="#888" fill-opacity="0.18" stroke="#000" stroke-width="1"/>
  <path d="M63.068562 845.679362 L102.988472 810.561002 L106.269844 820.244889 L137.786371 785.814850 L143.036566 801.309068 L168.646623 749.448033 L183.084661 792.057133 L214.073097 781.556742 L221.948391 804.798069 L190.959954 815.298461 L205.397992 857.907561 L153.536958 832.297504 L158.787153 847.791722 L112.832589 839.612661 L116.113961 849.296548 Z" fill="#888" fill-opacity="0.18" stroke="#000" stroke-width="1"/>
  <path d="M84.809244 458.495410 L133.507661 479.834636 L126.117679 486.900980 L170.641017 500.914952 L158.817045 512.221103 L216.642352 513.515654 L184.126430 544.607569 L206.738732 568.255512 L189.002774 585.214739 L166.390473 561.566796 L133.874551 592.658711 L135.169102 534.833404 L123.345131 546.139555 L111.337714 501.033669 L103.947732 508.100013 Z" fill="#888" fill-opacity="0.18" stroke="#000" stroke-width="1"/>
  <path d="M56.288444 845.581034 L58.773848 792.470572 L68.017909 796.840057 L65.158913 750.250947 L79.949411 757.242122 L60.451106 702.787940 L101.124974 722.013672 L115.107325 692.432677 L137.293071 702.919440 L123.310720 732.500435 L163.984588 751.726168 L109.530406 771.224473 L124.320904 778.215648 L86.506031 805.579026 L95.750092 809.948511 Z" fill="#888" fill-opacity="0.18" stroke="#000" stroke-width="1"/>
  <path d="M333.575135 418.470944 L280.408285 418.041341 L284.417006 408.635214 L237.973314 413.293812 L244.387266 398.244009 L190.727878 419.833636 L208.366247 378.446678 L178.266641 365.618774 L187.887569 343.044069 L217.987175 355.871974 L235.625544 314.485016 L257.215171 368.144403 L263.629123 353.094601 L292.434446 389.822960 L296.443166 380.416833 Z" fill="#888" fill-opacity="0.18" stroke="#000" stroke-width="1"/>
  <path d="M1032.240471 1029.906468 L1000.624605 987.159124 L1010.551343 984.708626 L978.910528 950.392771 L994.793308 946.471974 L945.284366 916.567016 L988.962011 905.784825 L981.120417 874.019264 L1004.944587 868.138069 L1012.786181 899.903629 L1056.463826 889.121438 L1026.558868 938.630380 L1042.441648 934.709583 L1030.404818 979.807629 L1040.331556 977.357131 Z" fill="#888" fill-opacity="0.18" stroke="#000" stroke-width="1"/>
  <path d="M777.090846 374.114289 L758.123563 324.443970 L768.343685 324.750837 L747.086885 283.195242 L763.439080 283.686229 L723.786060 241.578274 L768.754596 242.928488 L769.736570 210.224098 L794.264863 210.960578 L793.282889 243.664969 L838.251425 245.015183 L796.143470 284.668203 L812.495665 285.159190 L788.783929 325.364571 L799.004051 325.671438 Z" fill="#888" fill-opacity="0.18" stroke="#000" stroke-width="1"/>
  <path d="M412.717173 427.045921 L459.758061 402.265823 L460.677540 412.449124 L499.387891 386.367948 L500.859057 402.661229 L537.914347 358.250112 L541.960052 403.056636 L574.546615 400.114305 L576.753363 424.554228 L544.166800 427.496559 L548.212505 472.303083 L503.801387 435.247793 L505.272553 451.541074 L462.516497 432.815725 L463.435975 442.999026 Z" fill="#888" fill-opacity="0.18" stroke="#000" stroke-width="1"/>
  <path d="M135.733418 1048.147718 L174.498517 1011.758633 L178.090877 1021.331512 L208.479201 985.901739 L214.226977 1001.218345 L238.149053 948.557390 L253.955436 990.678057 L284.588649 979.182506 L293.210312 1002.157415 L262.577100 1013.652966 L278.383483 1055.773633 L225.722528 1031.851557 L231.470304 1047.168164 L185.275597 1040.477269 L188.867957 1050.050148 Z" fill="#888" fill-opacity="0.18" stroke="#000" stroke-width="1"/>
  <path d="M556.433918 710.790991 L576.121424 760.180267 L565.897920 760.022037 L587.756710 801.264156 L571.399105 801.010989 L611.660201 842.537920 L566.676786 841.841711 L566.170452 874.556922 L541.634044 874.177171 L542.140378 841.461960 L497.156963 840.765751 L538.683894 800.504655 L522.326288 800.251488 L545.450913 759.705579 L535.227410 759.547349 Z" fill="#888" fill-opacity="0.18" stroke="#000" stroke-width="1"/>
  <path d="M821.479975 1008.514153 L779.908441 975.367419 L788.867294 970.439538 L749.446294 945.445463 L763.780459 937.560854 L708.233523 921.436964 L747.652477 899.754289 L731.883259 871.085958 L753.384507 859.259045 L769.153725 887.927375 L808.572679 866.244699 L792.448789 921.791635 L806.782954 913.907026 L806.785000 960.583776 L815.743854 955.655896 Z" fill="#888" fill-opacity="0.18" stroke="#000" stroke-width="1"/>
  <path d="M1027.518917 881.909710 L993.505826 841.043979 L1003.275859 838.028765 L969.720931 805.582103 L985.352984 800.757761 L934.211998 773.738483 L977.200143 760.471543 L967.551460 729.207437 L990.999539 721.970925 L1000.648223 753.235030 L1043.636368 739.968091 L1016.617090 791.109077 L1032.249143 786.284735 L1022.815925 831.998338 L1032.585958 828.983124 Z" fill="#888" fill-opacity="0.18" stroke="#000" stroke-width="1"/>
  <path d="M1045.781647 248.119376 L1040.291086 301.003704 L1031.309442 296.117485 L1031.524184 342.793742 L1017.153554 334.975792 L1033.535255 390.447242 L994.016022 368.947880 L978.380123 397.689141 L956.824177 385.962216 L972.460077 357.220956 L932.940843 335.721594 L988.412293 319.339892 L974.041663 311.521943 L1013.346154 286.345048 L1004.364510 281.458829 Z" fill="#888" fill-opacity="0.18" stroke="#000" stroke-width="1"/>
</svg>
