<?xml version="1.0" encoding="UTF-8"?>
<svg xmlns="http://www.w3.org/2000/svg" width="1100" height="1100" viewBox="0 0 1100 1100">
  <rect x="0" y="0" width="1100" height="1100" fill="white"/>
  <text x="10.0" y="18.0" font-family="monospace" font-size="12">prefix=N65_job5048465_task65 run_id=65 L=6.48027450706 feas=0.000e+00 N=65</text>
  <rect x="40.000000" y="40.000000" width="1020.000000" height="1020.000000" fill="none" stroke="#000" stroke-width="2"/>
  <path d="M328.283701 466.596638 L298.067347 507.874120 L292.974921 499.457202 L270.510586 538.344128 L262.362704 524.877059 L249.064737 578.914436 L226.658061 541.879997 L199.723924 558.175761 L187.502100 537.975158 L214.436238 521.679394 L192.029562 484.644954 L246.066940 497.942921 L237.919058 484.475852 L282.790068 482.623366 L277.697641 474.206448 Z" fill="#888" fill-opacity="0.18" stroke="#000" stroke-width="1"/>
  <path d="M764.165515 687.087355 L715.663684 670.826019 L722.137725 663.418988 L678.266712 653.818291 L688.625178 641.967041 L633.100889 645.698999 L661.586671 613.108064 L637.884172 592.391132 L653.421872 574.614258 L677.124370 595.331190 L705.610152 562.740255 L709.342110 618.264543 L719.700576 606.413294 L735.085808 648.604926 L741.559849 641.197896 Z" fill="#888" fill-opacity="0.18" stroke="#000" stroke-width="1"/>
  <path d="M1037.258103 428.947737 L1035.170501 480.060363 L1026.251662 475.909263 L1029.268708 520.717038 L1014.998566 514.075278 L1034.069522 566.355033 L994.826631 548.090193 L981.543111 576.630478 L960.137898 566.667838 L973.421418 538.127554 L934.178527 519.862714 L986.458282 500.791759 L972.188140 494.149999 L1008.413985 467.607063 L999.495146 463.455963 Z" fill="#888" fill-opacity="0.18" stroke="#000" stroke-width="1"/>
  <path d="M905.926696 805.400082 L944.633721 771.954232 L947.707908 781.299107 L978.324196 748.443633 L983.242896 763.395432 L1008.325645 713.719183 L1021.852070 754.836632 L1051.755670 744.999233 L1059.133720 767.426932 L1029.230120 777.264332 L1042.756545 818.381782 L993.080295 793.299032 L997.998995 808.250832 L953.856283 799.988857 L956.930471 809.333732 Z" fill="#888" fill-opacity="0.18" stroke="#000" stroke-width="1"/>
  <path d="M968.474503 205.083523 L957.090679 155.211014 L966.785786 156.879012 L952.128543 114.428989 L967.640714 117.097785 L935.532278 71.645366 L978.190749 78.984557 L983.528342 47.960215 L1006.796599 51.963410 L1001.459005 82.987752 L1044.117476 90.326943 L998.665056 122.435379 L1014.177227 125.104176 L986.176000 160.215008 L995.871107 161.883006 Z" fill="#888" fill-opacity="0.18" stroke="#000" stroke-width="1"/>
  <path d="M267.712314 782.881900 L270.420067 833.965426 L261.151708 830.667725 L268.351295 874.996105 L253.521920 869.719783 L277.404553 919.984024 L236.623772 905.474140 L226.071129 935.132890 L203.827067 927.218407 L214.379710 897.559658 L173.598929 883.049773 L223.863170 859.167140 L209.033795 853.890819 L242.614990 824.072323 L233.346630 820.774623 Z" fill="#888" fill-opacity="0.18" stroke="#000" stroke-width="1"/>
  <path d="M505.046437 812.016254 L534.331365 853.959688 L524.719740 856.055871 L554.250047 889.890767 L538.871447 893.244660 L585.702679 923.306428 L543.411529 932.529633 L550.119315 963.286833 L527.051415 968.317672 L520.343630 937.560472 L478.052480 946.783678 L508.114248 899.952446 L492.735648 903.306339 L505.496490 860.248237 L495.884865 862.344420 Z" fill="#888" fill-opacity="0.18" stroke="#000" stroke-width="1"/>
  <path d="M198.950668 485.193175 L228.953157 443.759985 L234.089042 452.150456 L256.351978 413.147879 L264.569394 426.572633 L277.587737 372.467209 L300.185631 409.385280 L327.035138 392.950448 L339.361262 413.087578 L312.511756 429.522410 L335.109650 466.440481 L281.004227 453.422139 L289.221643 466.846892 L244.360813 468.931397 L249.496698 477.321868 Z" fill="#888" fill-opacity="0.18" stroke="#000" stroke-width="1"/>
  <path d="M616.414542 275.608205 L612.989820 224.567732 L622.303567 227.734976 L614.482300 183.512052 L629.384295 188.579642 L604.798284 138.655679 L645.778770 152.591553 L655.913951 122.787563 L678.266944 130.388948 L668.131763 160.192938 L709.112249 174.128812 L659.188285 198.714823 L674.090280 203.782414 L640.931061 234.069464 L650.244808 237.236708 Z" fill="#888" fill-opacity="0.18" stroke="#000" stroke-width="1"/>
  <path d="M954.655551 896.631811 L991.480859 932.138927 L982.454055 936.049698 L1017.956107 963.553217 L1003.513221 969.810451 L1055.263520 990.274582 L1015.545584 1007.481974 L1028.060051 1036.367746 L1006.395722 1045.753596 L993.881255 1016.867824 L954.163318 1034.075217 L974.627449 982.324918 L960.184563 988.582151 L964.400448 943.871240 L955.373644 947.782011 Z" fill="#888" fill-opacity="0.18" stroke="#000" stroke-width="1"/>
  <path d="M280.103669 212.124562 L240.320619 179.966086 L248.971758 175.282592 L211.205275 150.981726 L225.047097 143.488135 L171.708566 127.617559 L209.773575 107.010183 L194.786393 79.326540 L215.549125 68.086154 L230.536307 95.769797 L268.601316 75.162421 L252.730740 128.500952 L266.572561 121.007361 L266.274034 165.915603 L274.925173 161.232108 Z" fill="#888" fill-opacity="0.18" stroke="#000" stroke-width="1"/>
  <path d="M76.527514 889.921440 L106.443165 931.417372 L96.864328 933.658617 L126.902751 967.043230 L111.576610 970.629222 L158.856942 999.979594 L116.710055 1009.841072 L123.882039 1040.493353 L100.892828 1045.872341 L93.720844 1015.220060 L51.573957 1025.081538 L80.924329 977.801206 L65.598188 981.387198 L77.706652 938.141107 L68.127814 940.382352 Z" fill="#888" fill-opacity="0.18" stroke="#000" stroke-width="1"/>
  <path d="M754.708065 443.248887 L703.995639 449.965170 L706.554319 440.466198 L662.929335 451.129219 L667.023222 435.930863 L618.792615 463.692034 L630.050804 421.896556 L599.654093 413.708782 L605.794924 390.911248 L636.191635 399.099023 L647.449825 357.303544 L675.210996 405.534152 L679.304883 390.335796 L711.671678 421.468253 L714.230357 411.969281 Z" fill="#888" fill-opacity="0.18" stroke="#000" stroke-width="1"/>
  <path d="M215.848590 825.078767 L176.130754 857.317752 L173.345567 847.882708 L141.732804 879.780552 L137.276505 864.684482 L110.677078 913.565405 L98.422255 872.051213 L68.230116 880.963812 L61.545667 858.319707 L91.737807 849.407108 L79.482984 807.892916 L128.363906 834.492343 L123.907607 819.396273 L167.775193 829.012621 L164.990006 819.577577 Z" fill="#888" fill-opacity="0.18" stroke="#000" stroke-width="1"/>
  <path d="M754.171669 386.264469 L709.451367 361.425927 L717.168290 355.324582 L675.785679 337.879847 L688.132757 328.117695 L632.859684 321.655381 L666.814147 294.809464 L647.289843 270.115309 L665.810459 255.472081 L685.334763 280.166236 L719.289225 253.320319 L712.826911 308.593392 L725.173989 298.831240 L732.602137 343.121892 L740.319060 337.020547 Z" fill="#888" fill-opacity="0.18" stroke="#000" stroke-width="1"/>
  <path d="M277.220571 586.353936 L325.914157 570.676138 L325.095601 580.479570 L366.110152 562.186241 L364.800463 577.871733 L407.288414 541.932226 L403.686770 585.067327 L435.057753 587.686705 L433.093220 611.214942 L401.722237 608.595565 L398.120593 651.730666 L362.181086 609.242716 L360.871397 624.928207 L323.458490 600.086435 L322.639935 609.889867 Z" fill="#888" fill-opacity="0.18" stroke="#000" stroke-width="1"/>
  <path d="M713.416945 755.503918 L753.429141 787.376834 L744.811745 792.122127 L782.751186 816.152068 L768.963352 823.744536 L822.414106 839.232950 L784.497563 860.112237 L799.682499 887.687904 L779.000748 899.076606 L763.815813 871.500939 L725.899270 892.380225 L741.387685 838.929471 L727.599851 846.521939 L727.576953 801.612711 L718.959556 806.358004 Z" fill="#888" fill-opacity="0.18" stroke="#000" stroke-width="1"/>
  <path d="M445.381947 165.956680 L414.625996 206.833692 L409.644570 198.350608 L386.671373 236.939097 L378.701091 223.366163 L364.694460 277.224202 L342.776185 239.898633 L315.630317 255.839196 L303.674895 235.479795 L330.820763 219.539232 L308.902488 182.213663 L362.760528 196.220295 L354.790246 182.647360 L399.681718 181.384441 L394.700292 172.901357 Z" fill="#888" fill-opacity="0.18" stroke="#000" stroke-width="1"/>
  <path d="M286.476677 352.236557 L253.341142 313.263554 L262.710280 310.264125 L230.100461 279.386318 L245.091082 274.587231 L195.616815 249.108396 L236.841021 235.910909 L227.242849 205.929668 L249.728779 198.731039 L259.326952 228.712279 L300.551158 215.514792 L275.072323 264.989059 L290.062943 260.189973 L281.448556 304.265267 L290.817693 301.265838 Z" fill="#888" fill-opacity="0.18" stroke="#000" stroke-width="1"/>
  <path d="M771.275385 945.603408 L806.020553 908.058342 L810.115449 917.003125 L836.885811 880.945020 L843.437644 895.256673 L862.837193 843.097958 L880.854734 882.455003 L909.478040 869.351337 L919.305790 890.818817 L890.682484 903.922483 L908.700025 943.279528 L856.541310 923.879979 L863.093143 938.191632 L818.305240 934.892692 L822.400136 943.837475 Z" fill="#888" fill-opacity="0.18" stroke="#000" stroke-width="1"/>
  <path d="M87.976928 380.526633 L111.575403 425.913532 L101.773108 426.745591 L126.666395 464.124242 L110.982722 465.455537 L153.520141 501.336481 L110.390041 504.997542 L113.052631 536.364887 L89.527123 538.361829 L86.864533 506.994484 L43.734433 510.655545 L79.615377 468.118127 L63.931705 469.449422 L82.168517 428.409710 L72.366222 429.241769 Z" fill="#888" fill-opacity="0.18" stroke="#000" stroke-width="1"/>
  <path d="M1055.615161 357.046764 L1015.167448 325.728381 L1023.718619 320.864762 L985.451567 297.360040 L999.133440 289.578250 L945.474280 274.828042 L983.099433 253.428118 L967.535852 226.064371 L988.058662 214.391685 L1003.622243 241.755432 L1041.247396 220.355509 L1026.497188 274.014669 L1040.179061 266.232878 L1040.820961 311.137524 L1049.372132 306.273905 Z" fill="#888" fill-opacity="0.18" stroke="#000" stroke-width="1"/>
  <path d="M227.900322 596.730291 L237.111126 647.049469 L227.497455 644.962690 L240.300416 688.008288 L224.918542 684.669441 L255.026111 731.471241 L212.725958 722.289414 L206.048266 753.053161 L182.975456 748.044892 L189.653148 717.281145 L147.352996 708.099318 L194.154795 677.991749 L178.772921 674.652903 L208.270113 640.789133 L198.656442 638.702354 Z" fill="#888" fill-opacity="0.18" stroke="#000" stroke-width="1"/>
  <path d="M410.300632 681.983177 L427.271611 633.725075 L434.582888 640.307061 L444.826024 596.581583 L456.524067 607.112761 L453.606903 551.539707 L485.776523 580.500447 L506.838879 557.104360 L524.385944 572.901127 L503.323588 596.297213 L535.493207 625.257953 L479.920154 628.175116 L491.618197 638.706294 L449.205443 653.471033 L456.516720 660.053019 Z" fill="#888" fill-opacity="0.18" stroke="#000" stroke-width="1"/>
  <path d="M754.106063 465.201201 L782.710458 422.790741 L788.123233 431.005312 L809.073416 391.282157 L817.733855 404.425472 L828.941045 349.916087 L852.757252 386.060203 L879.043882 368.739325 L892.034540 388.454297 L865.747911 405.775175 L889.564118 441.919291 L835.054733 430.712101 L843.715172 443.855416 L798.948782 447.434456 L804.361556 455.649028 Z" fill="#888" fill-opacity="0.18" stroke="#000" stroke-width="1"/>
  <path d="M413.771357 657.244515 L385.213908 699.686602 L379.792047 691.478025 L358.885832 731.224338 L350.210855 718.090615 L339.063990 772.612367 L315.207801 736.494627 L288.940354 753.844582 L275.927888 734.143997 L302.195335 716.794042 L278.339147 680.676302 L332.860900 691.823168 L324.185922 678.689444 L368.948325 675.060870 L363.526464 666.852293 Z" fill="#888" fill-opacity="0.18" stroke="#000" stroke-width="1"/>
  <path d="M291.771483 757.594439 L330.660006 790.829081 L321.883995 795.274186 L358.971636 820.598998 L344.930019 827.711165 L397.814480 845.034790 L359.200033 864.593250 L373.424367 892.676484 L352.361942 903.344734 L338.137608 875.261500 L299.523161 894.819960 L316.846786 841.935500 L302.805169 849.047667 L304.331974 804.164395 L295.555964 808.609499 Z" fill="#888" fill-opacity="0.18" stroke="#000" stroke-width="1"/>
  <path d="M805.126523 589.368006 L855.744079 581.970599 L853.313326 591.503109 L896.791024 580.254597 L892.901820 595.506614 L940.754873 567.099583 L930.059561 609.042629 L960.563595 616.821038 L954.729788 639.699063 L924.225754 631.920654 L913.530442 673.863700 L885.123411 626.010647 L881.234207 641.262664 L848.451821 610.568130 L846.021068 620.100641 Z" fill="#888" fill-opacity="0.18" stroke="#000" stroke-width="1"/>
  <path d="M469.690963 683.968484 L511.687424 654.759652 L513.766176 664.375061 L547.654559 634.906149 L550.980563 650.290804 L581.127190 603.514154 L590.273703 645.821957 L621.043014 639.169948 L626.032021 662.246931 L595.262710 668.898940 L604.409222 711.206742 L557.632572 681.060115 L560.958577 696.444770 L517.923682 683.605880 L520.002435 693.221290 Z" fill="#888" fill-opacity="0.18" stroke="#000" stroke-width="1"/>
  <path d="M429.499011 1058.466442 L378.679986 1052.611073 L383.478205 1044.023033 L338.569968 1043.723846 L346.247117 1029.982984 L292.702087 1045.142267 L313.814248 1007.354895 L286.332522 992.000596 L297.848246 971.389302 L325.329971 986.743601 L346.442132 948.956229 L361.601415 1002.501258 L369.278565 988.760396 L393.074641 1026.846955 L397.872860 1018.258916 Z" fill="#888" fill-opacity="0.18" stroke="#000" stroke-width="1"/>
  <path d="M344.604093 51.829549 L395.618441 55.623616 L391.171687 64.398792 L436.055246 62.880421 L428.940440 76.920701 L481.828155 59.607015 L462.262439 98.217786 L490.342999 112.447398 L479.670790 133.507818 L451.590230 119.278206 L432.024514 157.888976 L414.710828 105.001261 L407.596022 119.041541 L382.278180 81.949142 L377.831426 90.724317 Z" fill="#888" fill-opacity="0.18" stroke="#000" stroke-width="1"/>
  <path d="M820.472302 87.659443 L774.918222 110.933559 L774.156107 101.125577 L736.600836 125.751597 L735.381451 110.058827 L699.197987 152.339213 L695.844680 109.184095 L664.459140 111.622864 L662.630064 88.083709 L694.015604 85.644940 L690.662297 42.489823 L732.942683 78.673287 L731.723299 62.980517 L772.631877 81.509615 L771.869762 71.701634 Z" fill="#888" fill-opacity="0.18" stroke="#000" stroke-width="1"/>
  <path d="M111.768220 351.933696 L93.179132 304.275492 L103.014101 304.500669 L82.277878 264.665404 L98.013828 265.025688 L59.574661 224.785104 L102.848524 225.775883 L103.569090 194.303983 L127.173015 194.844408 L126.452449 226.316308 L169.726311 227.307087 L129.485728 265.746254 L145.221678 266.106537 L122.684039 304.951023 L132.519008 305.176200 Z" fill="#888" fill-opacity="0.18" stroke="#000" stroke-width="1"/>
  <path d="M472.087807 430.658951 L455.759540 479.138290 L448.361452 472.654031 L438.700210 516.511752 L426.863269 506.136938 L430.518585 561.666324 L397.966999 533.135586 L377.217371 556.809467 L359.461960 541.247245 L380.211588 517.573364 L347.660002 489.042626 L403.189388 485.387310 L391.352448 475.012496 L433.565276 459.685514 L426.167189 453.201255 Z" fill="#888" fill-opacity="0.18" stroke="#000" stroke-width="1"/>
  <path d="M430.991120 157.368662 L379.941315 154.085976 L384.299913 145.266683 L339.433823 147.234735 L346.407581 133.123865 L293.696013 150.966645 L312.873847 112.161754 L284.652108 98.214239 L295.112744 77.047935 L323.334483 90.995450 L342.512316 52.190559 L360.355096 104.902127 L367.328853 90.791257 L393.017110 127.628096 L397.375708 118.808803 Z" fill="#888" fill-opacity="0.18" stroke="#000" stroke-width="1"/>
  <path d="M456.974594 661.023377 L468.829227 710.786077 L459.118789 709.209776 L474.176550 751.519386 L458.639850 748.997306 L491.176398 794.144257 L448.450474 787.208535 L443.406312 818.281934 L420.101263 814.498813 L425.145424 783.425414 L382.419500 776.489692 L427.566451 743.953145 L412.029751 741.431064 L439.697915 706.057176 L429.987477 704.480875 Z" fill="#888" fill-opacity="0.18" stroke="#000" stroke-width="1"/>
  <path d="M329.895808 301.378069 L371.735631 330.810837 L363.416217 336.061044 L402.719757 357.788240 L389.408696 366.188573 L443.687179 378.465395 L407.081761 401.566308 L423.882425 428.188431 L403.915833 440.788929 L387.115169 414.166807 L350.509751 437.267720 L362.786573 382.989237 L349.475512 391.389569 L346.777391 346.561460 L338.457978 351.811667 Z" fill="#888" fill-opacity="0.18" stroke="#000" stroke-width="1"/>
  <path d="M735.059159 761.803892 L754.899687 714.652942 L761.802183 721.662425 L774.654625 678.631576 L785.698619 689.846749 L786.126567 634.198829 L816.497551 665.040557 L838.927898 642.952568 L855.493890 659.775328 L833.063543 681.863317 L863.434527 712.705044 L807.786608 712.277096 L818.830602 723.492270 L775.607176 735.681392 L782.509673 742.690875 Z" fill="#888" fill-opacity="0.18" stroke="#000" stroke-width="1"/>
  <path d="M114.263333 348.617622 L164.209005 337.559210 L162.477831 347.243236 L205.022517 332.863079 L202.252637 348.357519 L247.913438 316.546116 L240.296269 359.155829 L271.285151 364.695588 L267.130332 387.937249 L236.141450 382.397490 L228.524281 425.007202 L196.712878 379.346401 L193.942999 394.840842 L159.015481 366.611287 L157.284306 376.295312 Z" fill="#888" fill-opacity="0.18" stroke="#000" stroke-width="1"/>
  <path d="M612.641892 623.771249 L606.666094 572.966245 L616.126730 575.663219 L606.101226 531.887330 L621.238244 536.202488 L594.183593 487.572045 L635.810395 499.438731 L644.440712 469.164693 L667.146240 475.637431 L658.515923 505.911468 L700.142725 517.778154 L651.512282 544.832805 L666.649300 549.147963 L635.048004 581.057167 L644.508640 583.754141 Z" fill="#888" fill-opacity="0.18" stroke="#000" stroke-width="1"/>
  <path d="M951.114426 478.696211 L947.890732 427.642646 L957.191934 430.846544 L949.544882 386.593162 L964.426805 391.719399 L940.037589 341.699000 L980.962877 355.796151 L991.215350 326.032305 L1013.538234 333.721660 L1003.285761 363.485505 L1044.211049 377.582656 L994.190650 401.971872 L1009.072573 407.098108 L975.794338 437.254340 L985.095540 440.458238 Z" fill="#888" fill-opacity="0.18" stroke="#000" stroke-width="1"/>
  <path d="M855.248759 474.972133 L830.871678 519.945643 L824.691254 512.291907 L807.673247 553.851824 L797.784567 541.605848 L791.891325 596.942488 L764.697456 563.266052 L740.205502 583.043412 L725.372483 564.674447 L749.864436 544.897088 L722.670567 511.220652 L778.007208 517.113894 L768.118528 504.867918 L812.330404 496.984436 L806.149979 489.330701 Z" fill="#888" fill-opacity="0.18" stroke="#000" stroke-width="1"/>
  <path d="M836.007956 138.025380 L857.441150 184.474027 L847.610532 184.843185 L870.714523 223.353507 L854.985535 223.944160 L895.784637 261.789997 L852.529921 263.414293 L853.711226 294.872268 L830.117745 295.758248 L828.936439 264.300272 L785.681722 265.924568 L823.527560 225.125466 L807.798572 225.716119 L827.949298 185.581501 L818.118680 185.950660 Z" fill="#888" fill-opacity="0.18" stroke="#000" stroke-width="1"/>
  <path d="M99.850419 348.333870 L144.395693 373.484957 L136.636235 379.532115 L177.895674 397.266204 L165.480540 406.941656 L220.707006 413.790861 L186.565387 440.398354 L205.916291 465.228622 L187.293590 479.741800 L167.942686 454.911532 L133.801067 481.519025 L140.650272 426.292560 L128.235138 435.968012 L121.117317 391.626430 L113.357858 397.673588 Z" fill="#888" fill-opacity="0.18" stroke="#000" stroke-width="1"/>
  <path d="M470.051662 179.565459 L470.219656 230.720423 L461.126468 226.966594 L466.116163 271.597773 L451.567062 265.591646 L472.924497 316.979719 L432.914467 300.462868 L420.902212 329.561071 L399.078559 320.551879 L411.090815 291.453676 L371.080785 274.936825 L422.468858 253.579390 L407.919757 247.573262 L442.940091 219.458934 L433.846902 215.705104 Z" fill="#888" fill-opacity="0.18" stroke="#000" stroke-width="1"/>
  <path d="M947.185642 404.470624 L905.834581 374.355040 L914.239053 369.242099 L875.297450 346.872682 L888.744605 338.691976 L834.674953 325.525852 L871.654630 303.028911 L855.293218 276.134601 L875.463951 263.863543 L891.825363 290.757853 L928.805039 268.260912 L915.638916 322.330565 L929.086071 314.149859 L931.047997 359.016217 L939.452469 353.903276 Z" fill="#888" fill-opacity="0.18" stroke="#000" stroke-width="1"/>
  <path d="M733.129022 940.483474 L783.532512 949.221143 L778.253377 957.522231 L823.071824 960.376375 L814.625209 973.658116 L868.946097 961.570302 L845.717906 998.095088 L872.281386 1014.988318 L859.611464 1034.910928 L833.047983 1018.017698 L809.819792 1054.542484 L797.731979 1000.221596 L789.285364 1013.503336 L767.695109 974.124406 L762.415974 982.425494 Z" fill="#888" fill-opacity="0.18" stroke="#000" stroke-width="1"/>
  <path d="M480.364735 198.560972 L522.204229 227.994208 L513.884757 233.244322 L553.188053 254.971958 L539.876898 263.372141 L594.155244 275.649570 L557.549567 298.750074 L574.349934 325.372385 L554.383202 337.972659 L537.582835 311.350349 L500.977159 334.450853 L513.254588 280.172508 L499.943433 288.572691 L497.245813 243.744551 L488.926341 248.994666 Z" fill="#888" fill-opacity="0.18" stroke="#000" stroke-width="1"/>
  <path d="M151.694219 692.986002 L132.220459 645.682395 L142.057916 645.724302 L120.583139 606.282278 L136.323070 606.349330 L97.140870 566.831874 L140.425681 567.016265 L140.559784 535.536402 L164.169680 535.636979 L164.035578 567.116842 L207.320388 567.301233 L167.802932 606.483432 L183.542863 606.550484 L161.732830 645.808116 L171.570287 645.850023 Z" fill="#888" fill-opacity="0.18" stroke="#000" stroke-width="1"/>
  <path d="M1056.726621 592.287998 L1051.035038 643.125627 L1042.431581 638.355107 L1042.277106 683.264075 L1028.511576 675.631243 L1043.843321 729.127147 L1005.988114 708.136860 L990.722451 735.667919 L970.074156 724.218672 L985.339820 696.687612 L947.484613 675.697325 L1000.980516 660.365580 L987.214987 652.732748 L1025.224669 628.814068 L1016.621213 624.043548 Z" fill="#888" fill-opacity="0.18" stroke="#000" stroke-width="1"/>
  <path d="M892.046690 871.980498 L861.119784 831.232675 L870.640618 828.756584 L839.790417 796.120647 L855.023753 792.158901 L807.036050 763.979928 L848.927722 753.085127 L841.004230 722.618456 L863.854232 716.675838 L871.777724 747.142508 L913.669396 736.247706 L885.490423 784.235409 L900.723758 780.273663 L889.682287 823.804401 L899.203121 821.328310 Z" fill="#888" fill-opacity="0.18" stroke="#000" stroke-width="1"/>
  <path d="M325.727033 895.456838 L306.395457 942.818730 L299.417871 935.883991 L287.029604 979.050761 L275.865466 967.955179 L276.036854 1023.604480 L245.335475 993.091628 L223.144310 1015.419903 L206.398103 998.776529 L228.589268 976.448254 L197.887889 945.935401 L253.537190 945.764013 L242.373053 934.668431 L285.462699 922.014512 L278.485113 915.079773 Z" fill="#888" fill-opacity="0.18" stroke="#000" stroke-width="1"/>
  <path d="M541.516882 865.028303 L519.798171 818.712472 L529.626329 818.282807 L506.285718 779.915436 L522.010772 779.227971 L480.979476 741.633998 L524.223374 739.743470 L522.848444 708.293363 L546.436025 707.262165 L547.810955 738.712273 L591.054853 736.821745 L553.460880 777.853042 L569.185934 777.165577 L549.282647 817.423476 L559.110805 816.993810 Z" fill="#888" fill-opacity="0.18" stroke="#000" stroke-width="1"/>
  <path d="M569.798594 773.606203 L596.965708 730.261001 L602.650721 738.289572 L622.257976 697.886666 L631.353996 710.732379 L640.728229 655.878046 L665.742284 691.203757 L691.433711 673.011717 L705.077741 692.280287 L679.386314 710.472327 L704.400370 745.798038 L649.546036 736.423806 L658.642057 749.269519 L614.020746 754.346713 L619.705759 762.375284 Z" fill="#888" fill-opacity="0.18" stroke="#000" stroke-width="1"/>
  <path d="M669.263517 861.766629 L688.920444 908.994415 L679.082899 908.990631 L700.710362 948.349138 L684.970289 948.343084 L724.305335 987.708402 L681.020135 987.691752 L681.008026 1019.171898 L657.397916 1019.162816 L657.410026 987.682670 L614.124825 987.666020 L653.490144 948.330974 L637.750071 948.324920 L659.407808 908.983063 L649.570262 908.979279 Z" fill="#888" fill-opacity="0.18" stroke="#000" stroke-width="1"/>
  <path d="M450.282463 342.838222 L501.362063 340.057376 L498.077628 349.330444 L542.395660 342.067436 L537.140563 356.904345 L587.370579 332.949814 L572.919062 373.751315 L602.592882 384.261509 L594.710236 406.516873 L565.036417 396.006679 L550.584901 436.808180 L526.630369 386.578164 L521.375272 401.415074 L491.508757 367.876581 L488.224321 377.149649 Z" fill="#888" fill-opacity="0.18" stroke="#000" stroke-width="1"/>
  <path d="M602.379333 506.245207 L557.493648 530.783622 L556.457663 521.000777 L519.605450 546.666974 L517.947875 531.014422 L482.960434 574.289739 L478.402102 531.245222 L447.096999 534.560373 L444.610636 511.081545 L475.915739 507.766395 L471.357407 464.721878 L514.632724 499.709319 L512.975149 484.056767 L554.385694 501.435088 L553.349710 491.652243 Z" fill="#888" fill-opacity="0.18" stroke="#000" stroke-width="1"/>
  <path d="M658.892458 1041.330190 L607.740140 1041.876950 L611.426538 1032.756216 L566.833527 1038.076240 L572.731763 1023.483066 L521.503237 1045.220411 L537.723386 1005.089182 L508.537037 993.292710 L517.384392 971.402948 L546.570740 983.199420 L562.790890 943.068191 L584.528235 994.296717 L590.426471 979.703543 L618.799333 1014.514748 L622.485730 1005.394014 Z" fill="#888" fill-opacity="0.18" stroke="#000" stroke-width="1"/>
  <path d="M781.693014 287.762204 L748.450660 248.880273 L757.811532 245.855146 L725.117105 215.066938 L740.094500 210.226735 L690.550505 184.883756 L731.738341 171.573197 L722.057934 141.618407 L744.524026 134.358102 L754.204433 164.312892 L795.392269 151.002333 L770.049290 200.546328 L785.026685 195.706125 L776.533275 239.804892 L785.894147 236.779765 Z" fill="#888" fill-opacity="0.18" stroke="#000" stroke-width="1"/>
  <path d="M571.454376 776.202231 L622.497655 772.819588 L619.322734 782.130720 L663.552091 774.345913 L658.472217 789.243726 L708.416432 764.698880 L694.446779 805.667864 L724.242403 815.827611 L716.622592 838.174330 L686.826968 828.014582 L672.857315 868.983565 L648.312469 819.039350 L643.232595 833.937162 L612.972891 800.752986 L609.797970 810.064118 Z" fill="#888" fill-opacity="0.18" stroke="#000" stroke-width="1"/>
  <path d="M559.657836 233.029535 L543.707478 184.424549 L553.515343 185.188168 L534.992517 144.276749 L550.685099 145.498539 L514.508118 103.212607 L557.662720 106.572530 L560.106301 75.187364 L583.645175 77.020049 L581.201595 108.405215 L624.356198 111.765138 L582.070265 147.942119 L597.762848 149.163910 L573.131071 186.715405 L582.938935 187.479024 Z" fill="#888" fill-opacity="0.18" stroke="#000" stroke-width="1"/>
  <path d="M472.080246 989.344559 L431.547863 958.135834 L440.085830 953.249074 L401.755261 929.848076 L415.416010 922.029260 L361.717099 907.424429 L399.284157 885.922685 L383.646524 858.601188 L404.137647 846.872964 L419.775279 874.194461 L457.342337 852.692717 L442.737506 906.391628 L456.398254 898.572812 L457.161766 943.475554 L465.699733 938.588794 Z" fill="#888" fill-opacity="0.18" stroke="#000" stroke-width="1"/>
  <path d="M47.475934 65.618026 L91.316798 91.977792 L83.394882 97.810507 L124.153957 116.666197 L111.478892 125.998541 L166.497415 134.355344 L131.640986 160.019291 L150.305674 185.369421 L131.293076 199.367938 L112.628388 174.017807 L77.771958 199.681753 L86.128761 144.663229 L73.453696 153.995574 L67.551050 109.475937 L59.629134 115.308652 Z" fill="#888" fill-opacity="0.18" stroke="#000" stroke-width="1"/>
  <path d="M921.115740 259.441062 L893.755674 216.217395 L903.452188 214.557596 L875.480659 179.423100 L890.995081 176.767420 L845.569827 144.620563 L888.234488 137.317445 L882.923129 106.288601 L906.194762 102.305081 L911.506121 133.333926 L954.170782 126.030807 L922.023925 171.456061 L937.538347 168.800382 L922.845215 211.237996 L932.541729 209.578197 Z" fill="#888" fill-opacity="0.18" stroke="#000" stroke-width="1"/>
  <path d="M52.808016 627.865165 L88.575899 664.437246 L79.438260 668.081539 L114.118237 696.614651 L99.498015 702.445519 L150.625742 724.418904 L110.420130 740.453792 L122.081867 769.694237 L100.151533 778.440540 L88.489796 749.200095 L48.284185 765.234983 L70.257570 714.107256 L55.637348 719.938124 L61.162982 675.370124 L52.025343 679.014417 Z" fill="#888" fill-opacity="0.18" stroke="#000" stroke-width="1"/>
</svg>
