<?xml version="1.0" encoding="UTF-8"?>
<svg xmlns="http://www.w3.org/2000/svg" width="1100" height="1100" viewBox="0 0 1100 1100">
  <rect x="0" y="0" width="1100" height="1100" fill="white"/>
  <text x="10.0" y="18.0" font-family="monospace" font-size="12">prefix=N68_job5048468_task68 run_id=68 L=6.71944178992 feas=0.000e+00 N=68</text>
  <rect x="40.000000" y="40.000000" width="1020.000000" height="1020.000000" fill="none" stroke="#000" stroke-width="2"/>
  <path d="M926.333034 636.417451 L965.171955 666.838278 L956.899107 671.482700 L993.677059 694.356365 L980.440502 701.787439 L1032.109581 716.301145 L995.709050 736.736600 L1010.571199 763.209714 L990.716363 774.356326 L975.854214 747.883212 L939.453682 768.318668 L953.967388 716.649589 L940.730831 724.080663 L940.353410 680.771543 L932.080562 685.415965 Z" fill="#888" fill-opacity="0.18" stroke="#000" stroke-width="1"/>
  <path d="M363.313059 708.598887 L314.111965 712.223907 L317.107604 703.221862 L274.509018 711.043803 L279.302041 696.640531 L231.311303 720.666153 L244.492117 681.057155 L215.685573 671.471109 L222.875108 649.866201 L251.681652 659.452248 L264.862466 619.843250 L288.888087 667.833988 L293.681110 653.430716 L323.098883 685.217773 L326.094523 676.215728 Z" fill="#888" fill-opacity="0.18" stroke="#000" stroke-width="1"/>
  <path d="M204.674459 482.181194 L238.029673 445.831253 L242.015224 454.440902 L267.685608 419.557471 L274.062489 433.332910 L292.558882 382.952112 L310.095305 420.834567 L337.646181 408.080805 L347.211503 428.743962 L319.660626 441.497724 L337.197049 479.380179 L286.816251 460.883786 L293.193132 474.659225 L249.986325 471.660199 L253.971875 480.269848 Z" fill="#888" fill-opacity="0.18" stroke="#000" stroke-width="1"/>
  <path d="M925.290467 196.076402 L918.047942 147.276460 L927.246344 149.600268 L916.305092 107.694286 L931.022534 111.412378 L903.524160 65.323542 L943.997126 75.548296 L951.433311 46.113412 L973.509474 51.690551 L966.073289 81.125435 L1006.546254 91.350190 L960.457418 118.848563 L975.174860 122.566656 L945.643146 154.247884 L954.841547 156.571691 Z" fill="#888" fill-opacity="0.18" stroke="#000" stroke-width="1"/>
  <path d="M621.601300 808.279687 L670.336694 800.614843 L668.092628 809.833023 L709.902291 798.529290 L706.311786 813.278378 L752.160768 785.381921 L742.286879 825.941912 L771.785054 833.122922 L766.399297 855.246554 L736.901121 848.065544 L727.027232 888.625534 L699.130776 842.776553 L695.540271 857.525640 L663.604497 828.269382 L661.360431 837.487562 Z" fill="#888" fill-opacity="0.18" stroke="#000" stroke-width="1"/>
  <path d="M189.303055 213.698700 L140.023084 216.016652 L143.256581 207.097282 L100.465406 213.785905 L105.639003 199.514913 L57.027532 222.258403 L71.254922 183.013175 L42.712938 172.665982 L50.473332 151.259494 L79.015316 161.606687 L93.242705 122.361459 L115.986195 170.972929 L121.159791 156.701937 L149.723576 189.258542 L152.957074 180.339172 Z" fill="#888" fill-opacity="0.18" stroke="#000" stroke-width="1"/>
  <path d="M716.517982 967.867962 L740.240366 924.611321 L746.164445 932.021851 L762.773590 892.022368 L772.252117 903.879216 L778.197919 850.540779 L804.263868 883.147111 L827.977564 864.190057 L842.195354 881.975328 L818.481659 900.932382 L844.547608 933.538713 L791.209171 927.592911 L800.687698 939.449759 L758.012604 946.842911 L763.936683 954.253441 Z" fill="#888" fill-opacity="0.18" stroke="#000" stroke-width="1"/>
  <path d="M1056.487960 910.809899 L1054.955773 960.120555 L1046.315729 956.201331 L1049.646929 999.383798 L1035.822860 993.113040 L1054.706138 1043.350110 L1016.689947 1026.105525 L1004.148430 1053.753664 L983.412326 1044.347526 L995.953842 1016.699387 L957.937651 999.454802 L1008.174720 980.571523 L994.350651 974.300765 L1029.035642 948.362884 L1020.395599 944.443660 Z" fill="#888" fill-opacity="0.18" stroke="#000" stroke-width="1"/>
  <path d="M61.720576 868.552465 L78.990348 822.339443 L85.916494 828.823206 L96.614026 786.854347 L107.695858 797.228368 L105.926330 743.588736 L136.401368 772.117293 L157.149410 749.953628 L173.772158 765.514660 L153.024117 787.678324 L183.499155 816.206881 L129.859523 817.976409 L140.941355 828.350430 L99.768784 841.790732 L106.694929 848.274495 Z" fill="#888" fill-opacity="0.18" stroke="#000" stroke-width="1"/>
  <path d="M830.760808 605.016938 L871.245278 576.823035 L873.255699 586.094976 L905.920533 557.655022 L909.137207 572.490126 L938.183282 527.360680 L947.029136 568.157217 L976.699345 561.723868 L981.524356 583.976525 L951.854147 590.409873 L960.700001 631.206410 L915.570555 602.160335 L918.787230 616.995439 L877.276542 604.638856 L879.286963 613.910796 Z" fill="#888" fill-opacity="0.18" stroke="#000" stroke-width="1"/>
  <path d="M438.419015 1058.972088 L468.631569 1019.970934 L473.320195 1028.218810 L495.996723 991.318981 L503.498524 1004.515582 L517.735526 952.769576 L538.365478 989.060231 L564.758682 974.056630 L576.011383 993.851532 L549.618179 1008.855134 L570.248132 1045.145788 L518.502125 1030.908786 L526.003926 1044.105388 L482.697446 1044.714562 L487.386071 1052.962438 Z" fill="#888" fill-opacity="0.18" stroke="#000" stroke-width="1"/>
  <path d="M646.981747 1027.113010 L605.222875 1000.843539 L612.974769 995.373730 L574.041366 976.399735 L586.444396 967.648041 L533.557584 958.519703 L567.665916 934.452542 L550.162527 909.646483 L568.767072 896.518941 L586.270461 921.325000 L620.378793 897.257840 L611.250456 950.144651 L623.653485 941.392956 L628.478556 984.434111 L636.230450 978.964302 Z" fill="#888" fill-opacity="0.18" stroke="#000" stroke-width="1"/>
  <path d="M596.627230 529.318657 L566.582679 490.187935 L575.751191 487.748867 L545.824192 456.440769 L560.493811 452.538260 L514.063490 425.620484 L554.404943 414.888584 L546.599925 385.549345 L568.604354 379.695581 L576.409372 409.034820 L616.750826 398.302920 L589.833050 444.733242 L604.502669 440.830732 L594.088215 482.870731 L603.256727 480.431663 Z" fill="#888" fill-opacity="0.18" stroke="#000" stroke-width="1"/>
  <path d="M891.149958 210.660586 L940.418067 208.102861 L937.228010 217.037860 L979.986131 210.141090 L974.882040 224.437088 L1023.382263 201.457320 L1009.346013 240.771315 L1037.938009 250.979497 L1030.281873 272.423494 L1001.689876 262.215312 L987.653626 301.529308 L964.673858 253.029084 L959.569767 267.325083 L930.847896 234.907858 L927.657839 243.842856 Z" fill="#888" fill-opacity="0.18" stroke="#000" stroke-width="1"/>
  <path d="M655.969010 782.389775 L694.032088 751.003623 L696.788278 760.081843 L727.037542 729.084999 L731.447446 743.610152 L756.735569 696.272511 L768.862804 736.216681 L797.913109 727.396873 L804.527965 749.184602 L775.477659 758.004410 L787.604894 797.948580 L740.267253 772.660457 L744.677157 787.185610 L702.300658 778.238284 L705.056848 787.316504 Z" fill="#888" fill-opacity="0.18" stroke="#000" stroke-width="1"/>
  <path d="M906.666862 780.612967 L955.794401 776.099278 L952.961954 785.153996 L995.412208 776.563406 L990.880292 791.050954 L1038.428951 766.161872 L1025.966184 806.002629 L1054.941281 815.066460 L1048.143407 836.797783 L1019.168311 827.733952 L1006.705544 867.574709 L981.816462 820.026050 L977.284546 834.513598 L947.297059 803.263431 L944.464612 812.318149 Z" fill="#888" fill-opacity="0.18" stroke="#000" stroke-width="1"/>
  <path d="M200.119984 205.545199 L162.003623 174.223777 L170.382896 169.774232 L134.150317 146.046137 L147.557154 138.926866 L96.241882 123.207951 L133.110685 103.629955 L118.872142 76.816280 L138.982397 66.137373 L153.220940 92.951047 L190.089743 73.373051 L174.370828 124.688323 L187.777666 117.569051 L187.141443 160.875143 L195.520716 156.425598 Z" fill="#888" fill-opacity="0.18" stroke="#000" stroke-width="1"/>
  <path d="M420.726988 520.104179 L375.374425 539.521530 L375.282038 530.034584 L337.537509 551.275414 L337.389689 536.096301 L299.811457 574.413632 L299.404952 532.671072 L269.046727 532.966712 L268.824997 510.198043 L299.183223 509.902403 L298.776718 468.159844 L337.094049 505.738076 L336.946229 490.558963 L375.097263 511.060693 L375.004876 501.573748 Z" fill="#888" fill-opacity="0.18" stroke="#000" stroke-width="1"/>
  <path d="M891.711405 937.923879 L871.313070 982.843768 L864.847878 975.900284 L851.297367 1017.036716 L840.953060 1005.927142 L839.039894 1059.561844 L810.593049 1029.010517 L788.373903 1049.699132 L772.857442 1033.034772 L795.076589 1012.346157 L766.629744 981.794831 L820.264445 983.707996 L809.920138 972.598423 L851.917494 962.013318 L845.452301 955.069834 Z" fill="#888" fill-opacity="0.18" stroke="#000" stroke-width="1"/>
  <path d="M554.118128 280.008305 L593.644031 250.485576 L595.961239 259.685643 L627.663647 230.176667 L631.371179 244.896773 L658.902614 198.827678 L669.098327 239.307970 L698.538538 231.892906 L704.099836 253.973064 L674.659625 261.388128 L684.855337 301.868420 L638.786243 274.336985 L642.493775 289.057091 L600.595654 278.085775 L602.912861 287.285841 Z" fill="#888" fill-opacity="0.18" stroke="#000" stroke-width="1"/>
  <path d="M969.282041 540.502422 L929.285127 511.621020 L937.370355 506.657175 L899.727472 485.236724 L912.663836 477.294571 L860.467543 464.809043 L896.042545 442.968123 L880.158239 417.095394 L899.562786 405.182165 L915.447091 431.054893 L951.022093 409.213973 L938.536564 461.410266 L951.472929 453.468113 L953.540810 496.729484 L961.626037 491.765638 Z" fill="#888" fill-opacity="0.18" stroke="#000" stroke-width="1"/>
  <path d="M56.962249 618.045266 L59.590374 568.780863 L68.141146 572.891211 L65.770839 529.645356 L79.452074 536.221912 L61.690376 485.577431 L99.313775 503.662962 L112.466888 476.300490 L132.988742 486.165325 L119.835629 513.527797 L157.459027 531.613327 L106.814546 549.375025 L120.495782 555.951582 L85.242691 581.111906 L93.793464 585.222254 Z" fill="#888" fill-opacity="0.18" stroke="#000" stroke-width="1"/>
  <path d="M212.476981 665.874688 L184.138915 625.490997 L193.403628 623.447531 L164.847392 590.884304 L179.670933 587.614758 L134.438214 558.729771 L175.202952 549.738518 L168.663859 520.091435 L190.899171 515.187115 L197.438264 544.834198 L238.203003 535.842945 L209.318016 581.075664 L224.141557 577.806118 L211.933055 619.360598 L221.197768 617.317131 Z" fill="#888" fill-opacity="0.18" stroke="#000" stroke-width="1"/>
  <path d="M538.967282 720.880972 L574.625230 686.786996 L578.039993 695.638553 L605.933743 662.506076 L611.397364 676.668567 L633.144540 627.603287 L648.169497 666.550138 L676.494480 655.622897 L684.689911 676.866634 L656.364928 687.793875 L671.389885 726.740726 L622.324605 704.993549 L627.788225 719.156041 L584.869519 713.341667 L588.284282 722.193224 Z" fill="#888" fill-opacity="0.18" stroke="#000" stroke-width="1"/>
  <path d="M829.457432 372.353842 L790.478544 402.595118 L787.993324 393.439008 L756.836368 423.523330 L752.860016 408.873554 L726.176456 455.438874 L715.241488 415.151990 L685.941936 423.104694 L679.977408 401.130030 L709.276960 393.177326 L698.341992 352.890443 L744.907312 379.574002 L740.930960 364.924226 L783.022884 375.126788 L780.537664 365.970678 Z" fill="#888" fill-opacity="0.18" stroke="#000" stroke-width="1"/>
  <path d="M758.779880 104.555809 L713.788583 124.796156 L713.523381 115.312469 L676.172075 137.237392 L675.747751 122.063491 L638.873809 161.059053 L637.706918 119.330826 L607.359117 120.179474 L606.722631 97.418623 L637.070432 96.569975 L635.903541 54.841748 L674.899103 91.715690 L674.474779 76.541789 L712.992976 96.345093 L712.727773 86.861405 Z" fill="#888" fill-opacity="0.18" stroke="#000" stroke-width="1"/>
  <path d="M66.003313 240.547542 L114.209463 251.038278 L108.781658 258.819640 L151.848279 263.411860 L143.163792 275.862041 L196.000461 266.447808 L172.118121 300.685804 L197.018482 318.054778 L183.991752 336.730049 L159.091391 319.361075 L135.209051 353.599071 L125.794818 300.762402 L117.110331 313.212582 L97.926049 274.382366 L92.498245 282.163729 Z" fill="#888" fill-opacity="0.18" stroke="#000" stroke-width="1"/>
  <path d="M620.142144 83.778549 L579.214421 111.325055 L577.351708 102.022315 L544.238719 129.939197 L541.258377 115.054814 L511.498273 159.716628 L503.302333 118.784573 L473.533566 124.745257 L469.063053 102.418682 L498.831820 96.457998 L490.635879 55.525943 L535.297693 85.286047 L532.317351 70.401663 L573.626280 83.416836 L571.763566 74.114096 Z" fill="#888" fill-opacity="0.18" stroke="#000" stroke-width="1"/>
  <path d="M635.681337 960.447649 L684.975587 962.438978 L680.976072 971.042148 L724.187688 968.113231 L717.788465 981.878305 L768.199207 963.463680 L750.601343 1001.317632 L778.131490 1014.116079 L768.532655 1034.763689 L741.002507 1021.965242 L723.404643 1059.819194 L704.990018 1009.408452 L698.590794 1023.173525 L672.977043 988.248490 L668.977528 996.851661 Z" fill="#888" fill-opacity="0.18" stroke="#000" stroke-width="1"/>
  <path d="M644.296109 486.529621 L691.901637 473.583495 L690.678647 482.991734 L731.002181 467.185567 L729.045398 482.238750 L771.570314 449.497753 L766.189158 490.894006 L796.295523 494.807573 L793.360348 517.387347 L763.253982 513.473780 L757.872826 554.870032 L725.131830 512.345115 L723.175046 527.398298 L688.232667 501.808212 L687.009677 511.216451 Z" fill="#888" fill-opacity="0.18" stroke="#000" stroke-width="1"/>
  <path d="M333.882025 490.215603 L365.892658 452.676186 L370.188809 461.135131 L394.573056 425.340846 L401.446898 438.875158 L418.098073 387.854772 L437.001139 425.074130 L464.069763 411.326446 L474.380527 431.627914 L447.311903 445.375598 L466.214969 482.594956 L415.194583 465.943782 L422.068425 479.478094 L378.781112 478.053021 L383.077264 486.511966 Z" fill="#888" fill-opacity="0.18" stroke="#000" stroke-width="1"/>
  <path d="M298.965054 258.845755 L339.072843 287.572985 L331.006782 292.567916 L368.731839 313.843311 L355.826142 321.835200 L408.070107 334.119720 L372.579440 356.097416 L388.563219 381.908810 L369.204673 393.896644 L353.220895 368.085249 L317.730227 390.062944 L330.014747 337.818979 L317.109050 345.810868 L314.874661 302.557777 L306.808600 307.552708 Z" fill="#888" fill-opacity="0.18" stroke="#000" stroke-width="1"/>
  <path d="M988.374550 483.477692 L964.364750 440.379919 L973.791115 439.305530 L948.755554 403.963727 L963.837737 402.244704 L921.834719 368.836803 L963.310725 364.109488 L959.872678 333.945121 L982.495954 331.366586 L985.934001 361.530953 L1027.410006 356.803639 L994.002105 398.806657 L1009.084289 397.087634 L992.643845 437.156750 L1002.070210 436.082361 Z" fill="#888" fill-opacity="0.18" stroke="#000" stroke-width="1"/>
  <path d="M592.269879 569.022595 L640.469801 558.503281 L638.772052 567.837536 L679.844120 554.093172 L677.127722 569.027980 L721.255738 538.481956 L713.785642 579.552678 L743.655258 584.985475 L739.580660 607.387687 L709.711044 601.954890 L702.240948 643.025612 L671.694924 598.897596 L668.978526 613.832404 L635.376554 586.506046 L633.678805 595.840301 Z" fill="#888" fill-opacity="0.18" stroke="#000" stroke-width="1"/>
  <path d="M401.306318 744.727764 L366.408646 709.855985 L375.180092 706.240405 L341.420595 679.108898 L355.454908 673.323971 L305.906809 652.700506 L344.501169 636.791958 L332.931315 608.723332 L353.982784 600.045942 L365.552638 628.114568 L404.146998 612.206019 L383.523533 661.754118 L397.557846 655.969191 L392.722983 699.009247 L401.494428 695.393668 Z" fill="#888" fill-opacity="0.18" stroke="#000" stroke-width="1"/>
  <path d="M480.940000 735.009289 L487.169494 686.069716 L495.396231 690.795334 L496.199882 647.492026 L509.362661 655.053015 L495.358186 603.243594 L531.555828 624.036314 L546.677807 597.710756 L566.421975 609.052240 L551.299997 635.377798 L587.497640 656.170518 L535.688219 670.174993 L548.850998 677.735982 L511.849704 700.246570 L520.076441 704.972188 Z" fill="#888" fill-opacity="0.18" stroke="#000" stroke-width="1"/>
  <path d="M863.809986 229.372861 L849.761477 276.664804 L842.405549 270.673061 L834.621620 313.278610 L822.852134 303.691822 L828.308878 357.082508 L795.942792 330.718839 L776.769215 354.257811 L759.114986 339.877628 L778.288563 316.338656 L745.922477 289.974988 L799.313163 284.518245 L787.543677 274.931456 L827.693691 258.689576 L820.337763 252.697833 Z" fill="#888" fill-opacity="0.18" stroke="#000" stroke-width="1"/>
  <path d="M388.678081 369.134685 L436.367690 356.501802 L435.082875 365.901797 L475.509450 350.361063 L473.453747 365.401057 L516.192987 332.940330 L510.539805 374.300312 L540.619791 378.411717 L537.536237 400.971707 L507.456250 396.860302 L501.803068 438.220283 L469.342342 395.481043 L467.286639 410.521036 L432.513247 384.701789 L431.228433 394.101785 Z" fill="#888" fill-opacity="0.18" stroke="#000" stroke-width="1"/>
  <path d="M192.393629 898.713600 L238.063612 880.055062 L237.997822 889.542229 L276.091230 868.933624 L275.985964 884.113091 L314.197796 846.427586 L313.908317 888.171121 L344.267251 888.381652 L344.109354 911.150853 L313.750419 910.940322 L313.460940 952.683858 L275.775434 914.472026 L275.670169 929.651494 L237.866240 908.516563 L237.800449 918.003730 Z" fill="#888" fill-opacity="0.18" stroke="#000" stroke-width="1"/>
  <path d="M169.419492 1037.944286 L198.839174 998.341625 L203.693220 1006.493245 L225.620797 969.143497 L233.387271 982.186088 L246.577565 930.163424 L267.935368 966.030551 L294.020551 950.497603 L305.670262 970.061490 L279.585079 985.594438 L300.942883 1021.461565 L248.920219 1008.271271 L256.686693 1021.313863 L213.401312 1022.796484 L218.255359 1030.948104 Z" fill="#888" fill-opacity="0.18" stroke="#000" stroke-width="1"/>
  <path d="M262.162190 139.617918 L308.030270 157.784034 L301.412906 164.582649 L343.165566 176.095151 L332.577784 186.972935 L386.241699 186.247929 L357.125299 216.161835 L378.880867 237.337399 L362.999194 253.654075 L341.243626 232.478511 L312.127226 262.392417 L311.402220 208.728503 L300.814438 219.606287 L288.178178 178.179879 L281.560815 184.978494 Z" fill="#888" fill-opacity="0.18" stroke="#000" stroke-width="1"/>
  <path d="M226.692814 166.649341 L248.001408 211.144647 L238.526754 211.636165 L261.337065 248.453444 L246.177618 249.239873 L286.042307 285.172420 L244.353827 287.335098 L245.926683 317.653992 L223.187512 318.833635 L221.614656 288.514740 L179.926176 290.677419 L215.858723 250.812729 L200.699276 251.599158 L219.577445 212.619201 L210.102790 213.110718 Z" fill="#888" fill-opacity="0.18" stroke="#000" stroke-width="1"/>
  <path d="M497.841195 184.665276 L543.404459 165.747626 L543.392558 175.235014 L581.368292 154.410366 L581.349250 169.590186 L619.346406 131.688240 L619.294040 173.432747 L649.653681 173.470831 L649.625118 196.240561 L619.265477 196.202477 L619.213112 237.946983 L581.311166 199.949827 L581.292124 215.129648 L543.368755 194.209790 L543.356854 203.697177 Z" fill="#888" fill-opacity="0.18" stroke="#000" stroke-width="1"/>
  <path d="M930.244734 685.189183 L888.438047 711.382490 L886.880558 702.023810 L852.872312 728.842862 L850.380330 713.868973 L819.175564 757.533650 L812.322613 716.355457 L782.374836 721.339421 L778.636863 698.878588 L808.584640 693.894624 L801.731689 652.716431 L845.396366 683.921197 L842.904383 668.947308 L883.765580 683.306449 L882.208091 673.947769 Z" fill="#888" fill-opacity="0.18" stroke="#000" stroke-width="1"/>
  <path d="M305.849120 717.413243 L341.347388 751.673444 L332.640084 755.440874 L366.865871 781.981746 L352.934184 788.009633 L402.833118 807.769132 L364.520980 824.345821 L376.576753 852.209194 L355.679224 861.251024 L343.623450 833.387651 L305.311312 849.964340 L325.070811 800.065406 L311.139124 806.093293 L315.225476 762.975732 L306.518172 766.743162 Z" fill="#888" fill-opacity="0.18" stroke="#000" stroke-width="1"/>
  <path d="M489.357279 833.251206 L536.337030 818.191608 L535.535497 827.645084 L575.112774 810.053565 L573.830322 825.179127 L614.850356 790.571351 L611.323614 832.166647 L641.574739 834.731550 L639.651061 857.419893 L609.399937 854.854990 L605.873195 896.450286 L571.265419 855.430252 L569.982967 870.555814 L533.932433 846.552037 L533.130901 856.005513 Z" fill="#888" fill-opacity="0.18" stroke="#000" stroke-width="1"/>
  <path d="M788.374228 550.671746 L793.024882 599.786508 L783.962302 596.979319 L792.671223 639.405455 L778.171095 634.913953 L803.192660 682.393029 L763.317307 670.041398 L754.334303 699.041655 L732.584111 692.304401 L741.567115 663.304145 L701.691762 650.952514 L749.170838 625.930949 L734.670710 621.439447 L765.837142 591.364942 L756.774561 588.557753 Z" fill="#888" fill-opacity="0.18" stroke="#000" stroke-width="1"/>
  <path d="M194.994472 153.352415 L224.975853 114.173271 L229.713173 122.393275 L252.171086 85.359987 L259.750798 98.511994 L273.681535 46.682697 L294.525742 82.850716 L320.829756 67.691292 L332.199323 87.419302 L305.895310 102.578726 L326.739517 138.746744 L274.910221 124.816007 L282.489933 137.968014 L239.187812 138.833284 L243.925132 147.053288 Z" fill="#888" fill-opacity="0.18" stroke="#000" stroke-width="1"/>
  <path d="M94.285345 754.601609 L80.978989 707.095511 L90.396222 708.247201 L74.285067 668.044551 L89.352640 669.887254 L56.290465 627.611564 L97.726291 632.678998 L101.411698 602.543852 L124.013057 605.307907 L120.327651 635.443053 L161.763476 640.510486 L119.487786 673.572661 L134.555359 675.415364 L109.230688 710.550580 L118.647921 711.702269 Z" fill="#888" fill-opacity="0.18" stroke="#000" stroke-width="1"/>
  <path d="M83.924187 481.378208 L107.315506 437.941649 L113.296011 445.306717 L129.599174 405.181548 L139.167982 416.965658 L144.706237 363.583366 L171.020457 395.989666 L194.588676 376.852052 L208.941887 394.528216 L185.373668 413.665831 L211.687889 446.072131 L158.305597 440.533877 L167.874404 452.317986 L125.257020 460.036854 L131.237525 467.401923 Z" fill="#888" fill-opacity="0.18" stroke="#000" stroke-width="1"/>
  <path d="M322.284660 156.357029 L353.570115 118.211141 L358.027562 126.586213 L381.721469 90.331268 L388.853384 103.731384 L404.523888 52.401308 L424.136652 89.251627 L450.936884 74.987798 L461.634756 95.087972 L434.834524 109.351801 L454.447288 146.202120 L403.117213 130.531616 L410.249127 143.931732 L366.942455 143.336358 L371.399901 151.711431 Z" fill="#888" fill-opacity="0.18" stroke="#000" stroke-width="1"/>
  <path d="M928.712886 843.511933 L880.316685 853.087746 L882.196437 843.788434 L840.863735 856.727911 L843.871339 841.849012 L799.155082 871.527250 L807.425993 830.610278 L777.668195 824.595071 L782.179600 802.276722 L811.937398 808.291930 L820.208308 767.374958 L849.886546 812.091214 L852.894150 797.212315 L885.955942 825.189810 L887.835694 815.890499 Z" fill="#888" fill-opacity="0.18" stroke="#000" stroke-width="1"/>
  <path d="M189.810652 722.866824 L221.889260 760.348172 L212.863088 763.270310 L244.409219 792.946292 L229.967345 797.621714 L277.760585 822.037847 L238.045429 834.895256 L247.396272 863.779005 L225.733460 870.792137 L216.382617 841.908388 L176.667462 854.765797 L201.083595 806.972556 L186.641720 811.647978 L194.810745 769.114587 L185.784573 772.036725 Z" fill="#888" fill-opacity="0.18" stroke="#000" stroke-width="1"/>
  <path d="M400.261819 531.697843 L435.740483 565.978346 L427.031025 569.740794 L461.241622 596.301241 L447.306489 602.321157 L497.194111 622.109199 L458.872496 638.663968 L470.912328 666.534233 L450.009628 675.564107 L437.969797 647.693842 L399.648182 664.248610 L419.436224 614.360989 L405.501091 620.380905 L409.612109 577.265689 L400.902651 581.028136 Z" fill="#888" fill-opacity="0.18" stroke="#000" stroke-width="1"/>
  <path d="M396.361329 278.485995 L441.602031 258.809426 L441.748707 268.295687 L479.371065 246.839207 L479.605747 262.017225 L516.964087 223.485474 L517.609463 265.225024 L547.965499 264.755660 L548.317522 287.522687 L517.961486 287.992051 L518.606862 329.731601 L480.075111 292.373261 L480.309793 307.551279 L442.042060 287.268210 L442.188736 296.754471 Z" fill="#888" fill-opacity="0.18" stroke="#000" stroke-width="1"/>
  <path d="M645.311872 434.752653 L615.407190 395.514936 L624.584350 393.108611 L594.769296 361.693887 L609.452752 357.843766 L563.118810 330.760428 L603.498314 320.172596 L595.798072 290.805684 L617.823256 285.030503 L625.523498 314.397415 L665.903002 303.809583 L638.819664 350.143525 L653.503120 346.293404 L642.938670 388.295960 L652.115830 385.889634 Z" fill="#888" fill-opacity="0.18" stroke="#000" stroke-width="1"/>
  <path d="M487.082580 468.414535 L527.416980 496.822715 L519.390794 501.881471 L557.283426 522.856952 L544.441529 530.950961 L596.781295 542.820681 L561.466078 565.079206 L577.654096 590.763001 L558.391250 602.904015 L542.203232 577.220220 L506.888014 599.478746 L518.757734 547.138979 L505.915837 555.232989 L503.338423 511.998983 L495.312237 517.057739 Z" fill="#888" fill-opacity="0.18" stroke="#000" stroke-width="1"/>
  <path d="M480.081285 940.068457 L430.874702 936.518720 L435.144373 928.046378 L391.861729 929.606847 L398.693202 916.051100 L347.725151 932.861784 L366.511703 895.583479 L339.400208 881.920532 L349.647419 861.586912 L376.758913 875.249859 L395.545465 837.971554 L412.356149 888.939605 L419.187623 875.383858 L443.683715 911.101694 L447.953385 902.629352 Z" fill="#888" fill-opacity="0.18" stroke="#000" stroke-width="1"/>
  <path d="M858.868202 389.881666 L866.102674 341.080530 L874.230503 345.974307 L875.924388 302.696679 L888.928915 310.526723 L875.992706 258.440296 L911.755156 279.972916 L927.415243 253.963862 L946.922034 265.708927 L931.261947 291.717982 L967.024396 313.250602 L914.937969 326.186810 L927.942496 334.016854 L890.486162 355.761862 L898.613992 360.655639 Z" fill="#888" fill-opacity="0.18" stroke="#000" stroke-width="1"/>
  <path d="M473.998109 688.118960 L477.894182 737.299333 L468.875767 734.353342 L476.932316 776.908181 L462.502852 772.194596 L486.792547 820.052219 L447.111522 807.089858 L437.684351 835.948786 L416.040156 828.878408 L425.467327 800.019480 L385.786301 787.057120 L433.643925 762.767425 L419.214461 758.053839 L450.838937 728.461360 L441.820522 725.515369 Z" fill="#888" fill-opacity="0.18" stroke="#000" stroke-width="1"/>
  <path d="M904.021442 167.711512 L858.226242 149.362446 L864.870692 142.590301 L823.164319 130.911224 L833.795439 120.075790 L780.129057 120.586576 L809.364635 90.789134 L787.693768 69.526896 L803.640446 53.273746 L825.311313 74.535984 L854.546891 44.738542 L855.057677 98.404924 L865.688796 87.569490 L878.159591 129.046009 L884.804040 122.273863 Z" fill="#888" fill-opacity="0.18" stroke="#000" stroke-width="1"/>
  <path d="M1022.257301 920.852996 L974.931868 934.788268 L975.958553 925.356588 L935.973126 941.999545 L937.615822 926.908857 L895.782363 960.528837 L900.299776 919.029445 L870.118400 915.744054 L872.582444 893.108022 L902.763820 896.393414 L907.281233 854.894022 L940.901214 896.727481 L942.543909 881.636793 L978.011922 906.493229 L979.038607 897.061549 Z" fill="#888" fill-opacity="0.18" stroke="#000" stroke-width="1"/>
  <path d="M816.837032 427.591957 L854.812316 459.084278 L846.413141 463.496139 L882.538771 487.386747 L869.100090 494.445724 L920.344237 510.394983 L883.387864 529.807171 L897.505820 556.684533 L877.347798 567.273000 L863.229843 540.395638 L826.273471 559.807826 L842.222729 508.563680 L828.784048 515.622658 L829.614790 472.319861 L821.215614 476.731722 Z" fill="#888" fill-opacity="0.18" stroke="#000" stroke-width="1"/>
  <path d="M729.488145 128.430469 L776.691499 142.773823 L770.653969 150.092218 L813.210114 158.141870 L803.550066 169.851301 L856.973764 164.727843 L830.408632 196.928779 L853.827495 216.248875 L839.337423 233.813022 L815.918560 214.492926 L789.353428 246.693862 L784.229970 193.270164 L774.569922 204.979595 L758.578909 164.729007 L752.541379 172.047402 Z" fill="#888" fill-opacity="0.18" stroke="#000" stroke-width="1"/>
  <path d="M215.159118 447.866159 L213.732617 398.552332 L222.592062 401.946579 L216.678274 359.041458 L230.853385 364.472254 L208.992598 315.457487 L247.974152 330.392176 L258.835744 302.041954 L280.098410 310.188148 L269.236819 338.538370 L308.218373 353.473059 L259.203606 375.333846 L273.378717 380.764642 L240.310950 408.735074 L249.170394 412.129322 Z" fill="#888" fill-opacity="0.18" stroke="#000" stroke-width="1"/>
  <path d="M163.504230 899.990950 L150.286428 947.521763 L142.826654 941.659815 L135.790365 984.395198 L123.854726 975.016081 L130.246031 1028.302971 L97.423024 1002.510399 L78.664790 1026.381677 L60.761332 1012.313002 L79.519566 988.441724 L46.696559 962.649152 L99.983448 956.257847 L88.047809 946.878730 L127.907105 929.935919 L120.447331 924.073971 Z" fill="#888" fill-opacity="0.18" stroke="#000" stroke-width="1"/>
  <path d="M1044.452105 56.205200 L1047.627242 105.437374 L1038.652956 102.359575 L1046.085190 145.027880 L1031.726331 140.103401 L1055.312281 188.311744 L1015.825420 174.769428 L1005.976463 203.487146 L984.438175 196.100428 L994.287132 167.382710 L954.800271 153.840394 L1003.008614 130.254444 L988.649755 125.329965 L1020.704382 96.203977 L1011.730096 93.126178 Z" fill="#888" fill-opacity="0.18" stroke="#000" stroke-width="1"/>
  <path d="M328.235817 1053.476840 L347.499375 1008.058740 L354.136940 1014.837633 L366.649870 973.373807 L377.269975 984.220036 L377.835287 930.554201 L407.040574 960.381332 L428.733033 939.141123 L444.663190 955.410468 L422.970731 976.650676 L452.176018 1006.477807 L398.510183 1005.912495 L409.130288 1016.758724 L367.412071 1028.395420 L374.049636 1035.174313 Z" fill="#888" fill-opacity="0.18" stroke="#000" stroke-width="1"/>
</svg>
