<?xml version="1.0" encoding="UTF-8"?>
<svg xmlns="http://www.w3.org/2000/svg" width="1100" height="1100" viewBox="0 0 1100 1100">
  <rect x="0" y="0" width="1100" height="1100" fill="white"/>
  <text x="10.0" y="18.0" font-family="monospace" font-size="12">prefix=N70_job5048470_task70 run_id=70 L=6.52869347639 feas=4.718e-11 N=70</text>
  <rect x="40.000000" y="40.000000" width="1020.000000" height="1020.000000" fill="none" stroke="#000" stroke-width="2"/>
  <path d="M322.091423 711.561552 L320.570098 762.314613 L311.673203 758.290630 L315.150442 802.730971 L300.915411 796.292599 L320.407061 847.976108 L281.260723 830.270586 L268.383980 858.740650 L247.031432 849.083092 L259.908175 820.613028 L220.761838 802.907506 L272.445347 783.415856 L258.210315 776.977484 L293.879413 750.242666 L284.982518 746.218683 Z" fill="#888" fill-opacity="0.18" stroke="#000" stroke-width="1"/>
  <path d="M719.662037 204.400337 L674.310827 181.564939 L681.718828 175.203437 L639.975220 159.566740 L651.828020 149.388337 L596.750012 145.202343 L629.345213 117.211736 L608.988407 93.506135 L626.767608 78.238530 L647.124414 101.944131 L679.719615 73.953523 L675.533621 129.031532 L687.386422 118.853129 L696.534828 162.480434 L703.942828 156.118932 Z" fill="#888" fill-opacity="0.18" stroke="#000" stroke-width="1"/>
  <path d="M898.635191 381.053808 L946.224030 398.759454 L939.561131 405.897588 L982.772044 416.845289 L972.111406 428.266303 L1027.315535 426.365363 L997.998781 457.773151 L1020.840809 479.094427 L1004.849852 496.225948 L982.007824 474.904672 L952.691070 506.312461 L950.790130 451.108331 L940.129492 462.529345 L926.235334 420.173856 L919.572435 427.311989 Z" fill="#888" fill-opacity="0.18" stroke="#000" stroke-width="1"/>
  <path d="M197.926438 138.063630 L225.448963 180.733270 L215.838781 182.462887 L243.899649 217.098458 L228.523357 219.865845 L273.882553 251.388106 L231.597752 258.998420 L237.132525 289.751002 L214.068089 293.902082 L208.533315 263.149500 L166.248514 270.759814 L197.770775 225.400619 L182.394484 228.168005 L196.618417 185.922120 L187.008235 187.651737 Z" fill="#888" fill-opacity="0.18" stroke="#000" stroke-width="1"/>
  <path d="M438.203062 1046.871113 L387.442793 1048.129138 L390.973932 1039.025390 L346.790433 1044.929077 L352.440257 1030.363080 L301.900707 1052.653513 L317.437721 1012.597022 L288.305728 1001.297375 L296.780463 979.448380 L325.912457 990.748027 L341.449471 950.691537 L363.739904 1001.231087 L369.389727 986.665090 L398.036212 1020.817894 L401.567351 1011.714146 Z" fill="#888" fill-opacity="0.18" stroke="#000" stroke-width="1"/>
  <path d="M597.594241 658.397822 L638.571910 688.381453 L630.218479 693.437872 L668.821701 715.727475 L655.456211 723.817744 L709.095608 737.005794 L672.340512 759.254035 L688.521051 785.985014 L668.472817 798.120417 L652.292278 771.389439 L615.537182 793.637679 L628.725232 739.998283 L615.359743 748.088552 L613.511618 703.550708 L605.158187 708.607127 Z" fill="#888" fill-opacity="0.18" stroke="#000" stroke-width="1"/>
  <path d="M671.224356 225.705870 L715.719390 250.167667 L708.086006 256.256889 L749.236339 273.394135 L737.022925 283.136891 L791.913348 289.313537 L758.326460 316.106114 L777.811971 340.532942 L759.491851 355.147075 L740.006340 330.720247 L706.419451 357.512825 L712.596097 302.622402 L700.382683 312.365157 L692.819239 268.435334 L685.185855 274.524556 Z" fill="#888" fill-opacity="0.18" stroke="#000" stroke-width="1"/>
  <path d="M408.000109 881.784585 L376.094068 921.283852 L371.442278 912.698514 L347.334864 950.193416 L339.892001 936.456876 L324.157809 989.405386 L303.689934 951.629900 L276.216853 966.515627 L265.052557 945.910817 L292.525638 931.025089 L272.057763 893.249603 L325.006273 908.983795 L317.563410 895.247255 L362.138698 895.527838 L357.486908 886.942501 Z" fill="#888" fill-opacity="0.18" stroke="#000" stroke-width="1"/>
  <path d="M839.446424 598.165197 L845.345069 547.733129 L853.861217 552.510408 L854.234809 507.935802 L867.860646 515.579449 L852.905172 462.405740 L890.376222 483.425769 L905.663516 456.174096 L926.102271 467.639567 L910.814977 494.891240 L948.286028 515.911269 L895.112319 530.866743 L908.738155 538.510390 L870.893513 562.064967 L879.409660 566.842246 Z" fill="#888" fill-opacity="0.18" stroke="#000" stroke-width="1"/>
  <path d="M514.184239 553.494494 L499.439833 504.906531 L509.155477 505.882966 L491.686796 464.872232 L507.231827 466.434527 L472.274985 423.666212 L515.023821 427.962522 L518.148410 396.872460 L541.465957 399.215901 L538.341368 430.305964 L581.090204 434.602274 L538.321890 469.559116 L553.866921 471.121410 L528.586767 507.835834 L538.302411 508.812268 Z" fill="#888" fill-opacity="0.18" stroke="#000" stroke-width="1"/>
  <path d="M387.671484 854.754211 L438.422677 856.336609 L434.387991 865.228655 L478.832484 861.804896 L472.376987 876.032170 L524.083914 856.602728 L506.331298 895.727731 L534.785845 908.638725 L525.102600 929.979636 L496.648052 917.068642 L478.895436 956.193645 L459.465993 904.486718 L453.010496 918.713992 L426.318620 883.012748 L422.283934 891.904794 Z" fill="#888" fill-opacity="0.18" stroke="#000" stroke-width="1"/>
  <path d="M551.443212 111.011714 L593.493956 139.470851 L585.331776 144.830515 L624.727225 165.687976 L611.667737 174.263437 L665.755110 185.473504 L629.841518 209.056022 L646.992440 235.174998 L627.403208 248.038190 L610.252286 221.919214 L574.338693 245.501732 L585.548761 191.414359 L572.489273 199.989820 L569.007416 155.549841 L560.845236 160.909504 Z" fill="#888" fill-opacity="0.18" stroke="#000" stroke-width="1"/>
  <path d="M596.792885 560.094255 L558.606351 593.560300 L555.490081 584.306326 L525.329980 617.130150 L520.343948 602.323791 L495.793133 651.804768 L482.081544 611.087283 L452.468828 621.059348 L444.989779 598.849811 L474.602495 588.877746 L460.890906 548.160261 L510.371883 572.711075 L505.385850 557.904717 L549.257540 565.798378 L546.141270 556.544404 Z" fill="#888" fill-opacity="0.18" stroke="#000" stroke-width="1"/>
  <path d="M724.717746 57.485009 L760.035006 93.966220 L750.946828 97.537242 L785.224905 126.033706 L770.683821 131.747340 L821.320619 153.815965 L781.332636 169.528461 L792.759905 198.610630 L770.948278 207.181082 L759.521009 178.098912 L719.533026 193.811407 L741.601652 143.174609 L727.060567 148.888244 L732.770472 104.679285 L723.682294 108.250306 Z" fill="#888" fill-opacity="0.18" stroke="#000" stroke-width="1"/>
  <path d="M647.781409 838.698599 L679.913415 799.382931 L684.515900 807.994801 L708.837913 770.638748 L716.201889 784.417740 L732.239429 731.560320 L752.490363 769.452548 L780.048347 754.724596 L791.094311 775.393084 L763.536327 790.121036 L783.787261 828.013264 L730.929841 811.975724 L738.293817 825.754716 L693.720870 825.218541 L698.323355 833.830411 Z" fill="#888" fill-opacity="0.18" stroke="#000" stroke-width="1"/>
  <path d="M941.948997 345.170356 L897.319502 369.385964 L896.321871 359.672473 L859.662695 385.032675 L858.066486 369.491089 L823.203044 412.335575 L818.813470 369.596215 L787.730299 372.788632 L785.335986 349.476254 L816.419157 346.283837 L812.029583 303.544476 L854.874068 338.407918 L853.277860 322.866333 L894.326610 340.245491 L893.328980 330.532000 Z" fill="#888" fill-opacity="0.18" stroke="#000" stroke-width="1"/>
  <path d="M199.119160 497.864723 L156.920699 526.104366 L155.028933 516.524784 L120.872490 545.166930 L117.845664 529.839599 L87.094401 575.724993 L78.770629 533.574832 L48.115967 539.628484 L43.575727 516.637487 L74.230390 510.583835 L65.906618 468.433674 L111.792012 499.184936 L108.765185 483.857605 L151.245400 497.365620 L149.353633 487.786038 Z" fill="#888" fill-opacity="0.18" stroke="#000" stroke-width="1"/>
  <path d="M288.051440 58.709148 L330.876188 85.989700 L322.865975 91.573934 L362.825378 111.329470 L350.009038 120.264244 L404.386824 129.968159 L369.141889 154.538788 L387.011437 180.171468 L367.786927 193.573629 L349.917378 167.940949 L314.672443 192.511578 L324.376358 138.133792 L311.560018 147.068566 L306.845550 102.742402 L298.835337 108.326636 Z" fill="#888" fill-opacity="0.18" stroke="#000" stroke-width="1"/>
  <path d="M254.562613 997.399194 L207.446485 1016.326901 L207.571458 1006.563113 L168.241366 1027.543556 L168.441323 1011.921495 L128.886280 1050.476756 L129.436160 1007.516089 L98.192038 1007.116177 L98.491973 983.683086 L129.736094 984.082998 L130.285974 941.122332 L168.841235 980.677374 L169.041191 965.055313 L207.821403 987.035537 L207.946376 977.271749 Z" fill="#888" fill-opacity="0.18" stroke="#000" stroke-width="1"/>
  <path d="M944.911892 1045.941184 L894.138319 1046.422662 L897.808291 1037.373990 L853.539662 1042.601180 L859.411618 1028.123304 L808.537038 1049.638106 L824.684916 1009.823946 L795.729163 998.080035 L804.537097 976.363220 L833.492849 988.107132 L849.640727 948.292972 L871.155529 999.167552 L877.027484 984.689675 L905.148236 1019.276644 L908.818208 1010.227972 Z" fill="#888" fill-opacity="0.18" stroke="#000" stroke-width="1"/>
  <path d="M718.890455 1038.643053 L668.155356 1040.677069 L671.546884 1031.520394 L627.458819 1038.098968 L632.885264 1023.448287 L582.692449 1046.508877 L597.615173 1006.219504 L568.313810 995.366614 L576.453478 973.390593 L605.754840 984.243483 L620.677564 943.954109 L643.738154 994.146925 L649.164599 979.496243 L678.329940 1013.207042 L681.721468 1004.050367 Z" fill="#888" fill-opacity="0.18" stroke="#000" stroke-width="1"/>
  <path d="M953.635363 162.210985 L951.717687 212.950615 L942.852492 208.857268 L945.982533 253.323412 L931.798221 246.774057 L950.885613 298.608225 L911.878755 280.597498 L898.780044 308.966122 L877.503576 299.142089 L890.602287 270.773465 L851.595429 252.762738 L903.429597 233.675346 L889.245285 227.125991 L925.122102 200.670574 L916.256907 196.577227 Z" fill="#888" fill-opacity="0.18" stroke="#000" stroke-width="1"/>
  <path d="M701.957029 625.163406 L748.976302 644.330451 L742.096111 651.259386 L784.948273 663.536491 L773.939968 674.622788 L829.176473 674.427808 L798.903634 704.915125 L821.076228 726.931735 L804.563770 743.561181 L782.391176 721.544570 L752.118337 752.031887 L751.923357 696.795382 L740.915052 707.881679 L728.335729 665.117257 L721.455539 672.046193 Z" fill="#888" fill-opacity="0.18" stroke="#000" stroke-width="1"/>
  <path d="M80.181905 366.450022 L119.063530 333.794137 L121.984573 343.111577 L152.828038 310.929039 L157.501706 325.836943 L183.087294 276.883013 L195.939882 317.879748 L225.755689 308.532411 L232.766192 330.894267 L202.950384 340.241603 L215.802972 381.238338 L166.849043 355.652750 L171.522711 370.560653 L127.826658 361.746457 L130.747701 371.063896 Z" fill="#888" fill-opacity="0.18" stroke="#000" stroke-width="1"/>
  <path d="M376.517892 685.199129 L427.238820 687.560270 L423.068135 696.389345 L467.559941 693.648123 L460.886844 707.774642 L512.885884 689.141086 L494.534868 727.989013 L522.787906 741.335207 L512.778261 762.524985 L484.525223 749.178792 L466.174207 788.026720 L447.540651 736.027680 L440.867554 750.154199 L414.726764 714.047494 L410.556079 722.876568 Z" fill="#888" fill-opacity="0.18" stroke="#000" stroke-width="1"/>
  <path d="M785.535900 273.702683 L799.534570 224.894643 L807.163314 230.989676 L814.760208 187.065625 L826.966200 196.817678 L820.831354 141.922567 L854.397830 168.740712 L873.901936 144.328730 L892.210923 158.956809 L872.706817 183.368792 L906.273293 210.186938 L851.378183 216.321784 L863.584174 226.073837 L822.420803 243.179742 L830.049548 249.274775 Z" fill="#888" fill-opacity="0.18" stroke="#000" stroke-width="1"/>
  <path d="M364.050760 662.166078 L319.265951 686.093226 L318.331014 676.373500 L281.508973 701.496644 L280.013074 685.945083 L244.873918 728.563733 L240.760197 685.796940 L209.657075 688.788738 L207.413226 665.461396 L238.516348 662.469598 L234.402626 619.702806 L277.021276 654.841961 L275.525377 639.290400 L316.461141 656.934049 L315.526204 647.214324 Z" fill="#888" fill-opacity="0.18" stroke="#000" stroke-width="1"/>
  <path d="M522.242402 387.500266 L478.080110 412.557790 L476.898471 402.864963 L440.726769 428.915741 L438.836145 413.407218 L404.791394 456.905085 L399.592180 414.256645 L368.575133 418.037892 L365.739198 394.775106 L396.756245 390.993860 L391.557031 348.345420 L435.054899 382.390170 L433.164275 366.881647 L474.535192 383.479309 L473.353552 373.786481 Z" fill="#888" fill-opacity="0.18" stroke="#000" stroke-width="1"/>
  <path d="M523.055561 43.123524 L509.375563 92.021839 L501.707223 85.976698 L494.397005 129.949369 L482.127661 120.277143 L488.620456 175.131068 L454.879760 148.532446 L435.535307 173.071134 L417.131291 158.562795 L436.475744 134.024107 L402.735047 107.425485 L457.588973 100.932690 L445.319629 91.260464 L486.370543 73.886415 L478.702202 67.841274 Z" fill="#888" fill-opacity="0.18" stroke="#000" stroke-width="1"/>
  <path d="M1051.681544 443.928978 L1017.155499 406.698080 L1026.318236 403.322961 L992.659739 374.097276 L1007.320118 368.697085 L957.168694 345.546615 L997.484736 330.696091 L986.684355 301.375333 L1008.674923 293.275047 L1019.475304 322.595805 L1059.791346 307.745281 L1036.640875 357.896704 L1051.301254 352.496513 L1044.643710 396.572722 L1053.806446 393.197603 Z" fill="#888" fill-opacity="0.18" stroke="#000" stroke-width="1"/>
  <path d="M534.607681 1029.914621 L484.884598 1019.628582 L490.388265 1011.562801 L446.017074 1007.292851 L454.822941 994.387602 L400.545149 1004.636058 L424.761284 969.146621 L398.950784 951.534887 L412.159585 932.177013 L437.970084 949.788747 L462.186219 914.299311 L472.434675 968.577102 L481.240542 955.671853 L501.395599 995.431239 L506.899266 987.365458 Z" fill="#888" fill-opacity="0.18" stroke="#000" stroke-width="1"/>
  <path d="M303.175040 180.758244 L260.922924 152.598943 L269.046773 147.181356 L229.503957 126.604651 L242.502116 117.936512 L188.336371 107.111463 L224.081307 83.274080 L206.745029 57.277763 L226.242267 44.275555 L243.578545 70.271872 L279.323481 46.434489 L268.498433 100.600233 L281.496591 91.932094 L285.294472 136.346182 L293.418321 130.928595 Z" fill="#888" fill-opacity="0.18" stroke="#000" stroke-width="1"/>
  <path d="M880.435251 881.180931 L922.710979 853.057090 L924.576474 862.641823 L958.811316 834.093432 L961.796108 849.429004 L992.673059 803.628094 L1000.881237 845.800918 L1031.552381 839.831335 L1036.029569 862.834693 L1005.358424 868.804277 L1013.566601 910.977101 L967.765691 880.100149 L970.750483 895.435721 L928.307463 881.811289 L930.172958 891.396021 Z" fill="#888" fill-opacity="0.18" stroke="#000" stroke-width="1"/>
  <path d="M395.652712 331.668251 L382.432742 282.643563 L392.113158 283.922910 L375.933629 242.386685 L391.422294 244.433639 L357.818016 200.594592 L400.411845 206.223716 L404.505753 175.246386 L427.738750 178.316817 L423.644842 209.294147 L466.238671 214.923270 L422.399624 248.527547 L437.888289 250.574501 L411.473989 286.481602 L421.154405 287.760948 Z" fill="#888" fill-opacity="0.18" stroke="#000" stroke-width="1"/>
  <path d="M610.409892 248.859632 L644.568388 286.428032 L635.372925 289.712943 L668.742586 319.267990 L654.029846 324.523847 L703.951339 348.166056 L663.491303 362.619662 L674.003017 392.045143 L651.933906 399.928929 L641.422192 370.503448 L600.962156 384.957055 L624.604365 335.035561 L609.891624 340.291418 L616.982000 296.282764 L607.786537 299.567675 Z" fill="#888" fill-opacity="0.18" stroke="#000" stroke-width="1"/>
  <path d="M176.963814 753.216467 L128.983489 736.600932 L135.481833 729.312674 L92.032446 719.353466 L102.429796 707.692254 L47.283389 710.851910 L75.876102 678.783576 L52.553677 657.988876 L68.149702 640.497057 L91.472127 661.291757 L120.064840 629.223423 L123.224496 684.369829 L133.621846 672.708617 L148.478520 714.736159 L154.976864 707.447901 Z" fill="#888" fill-opacity="0.18" stroke="#000" stroke-width="1"/>
  <path d="M756.190617 628.371701 L752.684389 577.717048 L761.935675 580.841287 L754.079799 536.962815 L768.881857 541.961596 L744.373665 492.459495 L785.079326 506.206145 L795.076890 476.602027 L817.279978 484.100200 L807.282415 513.704317 L847.988076 527.450967 L798.485975 551.959160 L813.288034 556.957942 L780.438249 587.089764 L789.689535 590.214002 Z" fill="#888" fill-opacity="0.18" stroke="#000" stroke-width="1"/>
  <path d="M874.622050 828.036398 L836.015486 861.017010 L833.016454 851.724379 L802.443801 884.164292 L797.645351 869.296083 L772.470953 918.462730 L759.275215 877.575156 L729.538797 887.172056 L722.341122 864.869742 L752.077540 855.272842 L738.881803 814.385267 L788.048450 839.559665 L783.250000 824.691456 L827.018392 833.139118 L824.019361 823.846487 Z" fill="#888" fill-opacity="0.18" stroke="#000" stroke-width="1"/>
  <path d="M680.169483 365.957351 L729.175159 379.247621 L723.191260 386.963845 L767.220737 393.923750 L757.646497 406.269709 L812.446993 399.340409 L786.117835 433.291797 L810.809753 452.440275 L796.448394 470.959214 L771.756476 451.810735 L745.427318 485.762123 L738.498019 430.961627 L728.923779 443.307586 L711.223461 402.396294 L705.239561 410.112518 Z" fill="#888" fill-opacity="0.18" stroke="#000" stroke-width="1"/>
  <path d="M273.770831 287.277847 L314.429002 317.693314 L306.022546 322.661077 L344.387799 345.357826 L330.937468 353.306245 L384.434343 367.061023 L347.445935 388.919176 L363.342774 415.819837 L343.167278 427.742467 L327.270439 400.841806 L290.282030 422.699959 L304.036807 369.203084 L290.586477 377.151504 L289.209633 332.596601 L280.803176 337.564363 Z" fill="#888" fill-opacity="0.18" stroke="#000" stroke-width="1"/>
  <path d="M326.052882 854.522512 L332.591307 804.169394 L341.046119 809.054404 L341.985574 764.488133 L355.513273 772.304149 L341.234065 718.944860 L378.435239 740.438905 L394.067271 713.383506 L414.358821 725.107531 L398.726788 752.162929 L435.927961 773.656974 L382.568672 787.936182 L396.096371 795.752198 L357.955744 818.824424 L366.410556 823.709434 Z" fill="#888" fill-opacity="0.18" stroke="#000" stroke-width="1"/>
  <path d="M890.686700 189.084736 L893.280523 138.375174 L902.090370 142.586324 L899.553304 98.082409 L913.649059 104.820248 L895.254269 52.736265 L934.017594 71.265322 L947.493271 43.073813 L968.636903 53.180571 L955.161226 81.372080 L993.924550 99.901136 L941.840567 118.295926 L955.936322 125.033764 L919.710063 151.008622 L928.519909 155.219771 Z" fill="#888" fill-opacity="0.18" stroke="#000" stroke-width="1"/>
  <path d="M315.149668 631.174306 L362.636337 613.196438 L362.315347 622.955748 L402.058767 602.769226 L401.545183 618.384123 L441.866384 580.630842 L440.454028 623.571807 L471.683821 624.598975 L470.913445 648.021320 L439.683652 646.994152 L438.271295 689.935117 L400.518014 649.613916 L400.004430 665.228812 L361.673367 642.474369 L361.352377 652.233679 Z" fill="#888" fill-opacity="0.18" stroke="#000" stroke-width="1"/>
  <path d="M830.602964 816.032520 L830.600876 765.256664 L839.614496 769.011904 L834.805492 724.695896 L849.227284 730.704280 L828.193764 679.628840 L867.853692 696.151896 L879.870460 667.308312 L901.503148 676.320889 L889.486380 705.164472 L929.146308 721.687529 L878.070868 742.721048 L892.492660 748.729432 L857.641736 776.522384 L866.655356 780.277624 Z" fill="#888" fill-opacity="0.18" stroke="#000" stroke-width="1"/>
  <path d="M810.076643 912.134174 L860.829833 910.617183 L857.345187 919.738829 L901.497990 913.609792 L895.922556 928.204425 L946.347722 905.656427 L931.015280 945.791667 L960.204545 956.942534 L951.841395 978.834483 L922.652129 967.683616 L907.319687 1007.818856 L884.771689 957.393690 L879.196256 971.988323 L850.375895 937.982120 L846.891249 947.103765 Z" fill="#888" fill-opacity="0.18" stroke="#000" stroke-width="1"/>
  <path d="M798.027213 1017.303011 L748.422297 1006.461426 L754.015842 998.457713 L709.695189 993.691706 L718.644860 980.885764 L664.255827 990.526443 L688.867422 955.310102 L663.255537 937.410760 L676.680043 918.201847 L702.291928 936.101188 L726.903522 900.884847 L736.544201 955.273880 L745.493872 942.467937 L765.202930 982.450285 L770.796474 974.446571 Z" fill="#888" fill-opacity="0.18" stroke="#000" stroke-width="1"/>
  <path d="M102.925028 374.174696 L153.682697 375.533609 L149.687204 384.443335 L194.116191 380.823908 L187.723403 395.079469 L239.344276 375.422536 L221.764109 414.625329 L250.275231 427.410905 L240.686049 448.794247 L212.174927 436.008671 L194.594760 475.211464 L174.937827 423.590591 L168.545039 437.846153 L141.696219 402.262786 L137.700727 411.172512 Z" fill="#888" fill-opacity="0.18" stroke="#000" stroke-width="1"/>
  <path d="M469.744507 450.839389 L467.374618 501.559909 L458.546263 497.387701 L461.279811 541.879979 L447.154443 535.204446 L465.779031 587.206698 L426.934269 568.848983 L413.583203 597.099719 L392.395151 587.086419 L405.746217 558.835683 L366.901455 540.477967 L418.903707 521.853380 L404.778339 515.177847 L440.889553 489.043285 L432.061198 484.871076 Z" fill="#888" fill-opacity="0.18" stroke="#000" stroke-width="1"/>
  <path d="M63.260954 83.697343 L113.795354 78.751436 L110.935574 88.087861 L154.572790 78.986846 L149.997142 93.925126 L198.781961 68.018545 L186.198930 109.098815 L216.075490 118.250110 L209.212019 140.657531 L179.335459 131.506235 L166.752427 172.586505 L140.845846 123.801686 L136.270199 138.739966 L105.216014 106.760711 L102.356234 116.097136 Z" fill="#888" fill-opacity="0.18" stroke="#000" stroke-width="1"/>
  <path d="M630.528522 402.328389 L659.168935 444.255878 L649.607812 446.238829 L678.574088 480.120829 L663.276291 483.293551 L709.452589 513.606239 L667.383647 522.331225 L673.729091 552.926819 L650.782396 557.685902 L644.436952 527.090308 L602.368009 535.815294 L632.680697 489.638996 L617.382900 492.811718 L630.485565 450.204732 L620.924442 452.187683 Z" fill="#888" fill-opacity="0.18" stroke="#000" stroke-width="1"/>
  <path d="M261.715541 1000.957359 L229.915952 961.372340 L239.294919 958.655329 L207.793146 927.116886 L222.799493 922.769668 L174.415579 896.121846 L215.683034 884.166995 L206.988597 854.154301 L229.498118 847.633474 L238.192555 877.646168 L279.460009 865.691317 L252.812187 914.075231 L267.818534 909.728013 L258.052853 953.221306 L267.431820 950.504294 Z" fill="#888" fill-opacity="0.18" stroke="#000" stroke-width="1"/>
  <path d="M67.959762 335.703493 L63.446894 285.128583 L72.758481 288.068230 L64.031578 244.354659 L78.930117 249.058094 L53.442357 200.053159 L94.413339 212.987606 L103.820210 183.190528 L126.168018 190.245681 L116.761148 220.042759 L157.732129 232.977206 L108.727194 258.464965 L123.625733 263.168400 L91.381654 293.947524 L100.693241 296.887171 Z" fill="#888" fill-opacity="0.18" stroke="#000" stroke-width="1"/>
  <path d="M255.021296 445.991576 L305.670386 442.405883 L302.560665 451.662060 L346.426758 443.737355 L341.451205 458.547238 L390.914796 433.961414 L377.232023 474.688592 L406.851789 484.639699 L399.388459 506.854523 L369.768693 496.903416 L356.085921 537.630594 L331.500098 488.167003 L326.524544 502.976886 L296.341223 470.174413 L293.231502 479.430590 Z" fill="#888" fill-opacity="0.18" stroke="#000" stroke-width="1"/>
  <path d="M589.902338 567.915543 L586.884319 618.601627 L578.110015 614.316914 L580.274628 658.840498 L566.235743 651.984956 L584.194102 704.221024 L545.587166 685.368284 L531.876083 713.446055 L510.817754 703.162742 L524.528838 675.084971 L485.921903 656.232231 L538.157971 638.273872 L524.119086 631.418330 L560.561408 605.747486 L551.787105 601.462772 Z" fill="#888" fill-opacity="0.18" stroke="#000" stroke-width="1"/>
  <path d="M509.185749 307.354925 L491.839532 259.633899 L501.593724 260.084351 L481.936307 220.076588 L497.543015 220.797311 L460.328051 179.978736 L503.246497 181.960722 L504.687942 150.747307 L528.098003 151.828391 L526.656559 183.041806 L569.575005 185.023792 L528.756430 222.238755 L544.363137 222.959478 L521.102109 260.985253 L530.856301 261.435705 Z" fill="#888" fill-opacity="0.18" stroke="#000" stroke-width="1"/>
  <path d="M597.087416 441.969287 L562.292447 404.989594 L571.430482 401.548156 L537.561056 372.567179 L552.181912 367.060879 L501.864023 344.274489 L542.071377 329.132165 L531.058778 299.890453 L552.990062 291.631003 L564.002661 320.872715 L604.210015 305.730391 L581.423624 356.048280 L596.044480 350.541980 L589.706552 394.665282 L598.844587 391.223845 Z" fill="#888" fill-opacity="0.18" stroke="#000" stroke-width="1"/>
  <path d="M886.893605 591.167150 L920.235529 552.872194 L924.567331 561.623345 L950.041973 525.043601 L956.972857 539.045444 L974.650254 486.713626 L993.710186 525.218694 L1021.713872 511.356926 L1032.110198 532.359690 L1004.106512 546.221458 L1023.166444 584.726527 L970.834626 567.049130 L977.765510 581.050973 L933.230937 579.125649 L937.562739 587.876801 Z" fill="#888" fill-opacity="0.18" stroke="#000" stroke-width="1"/>
  <path d="M384.723419 550.908649 L340.829475 576.433328 L339.545060 566.753584 L303.651794 593.186680 L301.596731 577.699089 L268.015412 621.555725 L262.363988 578.964849 L231.388805 583.074976 L228.306210 559.843589 L259.281393 555.733463 L253.629968 513.142587 L297.486604 546.723907 L295.431541 531.236315 L336.976231 547.394095 L335.691816 537.714350 Z" fill="#888" fill-opacity="0.18" stroke="#000" stroke-width="1"/>
  <path d="M1052.008562 896.646236 L1048.514425 947.301725 L1039.780768 942.934756 L1041.526937 987.476714 L1027.553086 980.489564 L1045.019837 1032.892065 L1006.591748 1013.677402 L992.617448 1041.625103 L971.656672 1031.144378 L985.630973 1003.196677 L947.202884 983.982014 L999.605386 966.515263 L985.631535 959.528113 L1022.313455 934.200819 L1013.579799 929.833850 Z" fill="#888" fill-opacity="0.18" stroke="#000" stroke-width="1"/>
  <path d="M363.563302 359.026802 L329.106519 321.731794 L338.275513 318.373712 L304.671397 289.085515 L319.341788 283.712583 L269.233483 260.468934 L309.577058 245.693373 L298.831195 216.352591 L320.836782 208.293194 L331.582644 237.633976 L371.926220 222.858415 L348.682570 272.966721 L363.352961 267.593789 L356.613502 311.657547 L365.782496 308.299465 Z" fill="#888" fill-opacity="0.18" stroke="#000" stroke-width="1"/>
  <path d="M305.881745 720.362431 L270.658757 756.934670 L266.771894 747.977022 L239.492398 783.231301 L233.273417 768.899063 L212.990275 820.277109 L195.888078 780.863455 L167.223602 793.301417 L157.895131 771.803060 L186.559607 759.365099 L169.457409 719.951445 L220.835456 740.234587 L214.616475 725.902349 L258.998168 730.061724 L255.111305 721.104076 Z" fill="#888" fill-opacity="0.18" stroke="#000" stroke-width="1"/>
  <path d="M890.333163 818.810236 L907.866446 771.157623 L915.028650 777.794641 L925.819877 734.544387 L937.279402 745.163617 L935.178663 689.966729 L966.692358 719.169611 L987.930818 696.250560 L1005.120106 712.179405 L983.881646 735.098456 L1015.395341 764.301338 L960.198453 766.402077 L971.657978 777.021306 L929.353056 791.068679 L936.515259 797.705697 Z" fill="#888" fill-opacity="0.18" stroke="#000" stroke-width="1"/>
  <path d="M742.050912 494.976960 L740.624047 545.732764 L731.719679 541.725346 L735.279621 586.159139 L721.032631 579.747271 L740.620437 631.394414 L701.441215 613.761779 L688.617480 642.255759 L667.246996 632.637957 L680.070731 604.143978 L640.891509 586.511342 L692.538652 566.923536 L678.291662 560.511669 L713.910941 533.710512 L705.006573 529.703095 Z" fill="#888" fill-opacity="0.18" stroke="#000" stroke-width="1"/>
  <path d="M547.834885 923.315304 L560.951787 874.262939 L568.689123 880.219517 L575.493296 836.165705 L587.873032 845.696230 L580.750002 790.920578 L614.794276 817.129520 L633.855325 792.370047 L652.424929 806.665833 L633.363881 831.425306 L667.408156 857.634248 L612.632505 864.757278 L625.012241 874.287802 L584.163793 892.132672 L591.901128 898.089250 Z" fill="#888" fill-opacity="0.18" stroke="#000" stroke-width="1"/>
  <path d="M43.310056 991.892200 L57.991057 943.285042 L65.533674 949.486341 L73.745112 905.673017 L85.813299 915.595095 L80.448027 860.619433 L113.635541 887.905148 L133.479697 863.768775 L151.581977 878.651892 L131.737821 902.788265 L164.925334 930.073980 L109.949672 935.439251 L122.017859 945.361329 L80.618907 961.888939 L88.161524 968.090238 Z" fill="#888" fill-opacity="0.18" stroke="#000" stroke-width="1"/>
  <path d="M74.401432 723.312011 L104.923092 763.890525 L95.462286 766.307202 L125.942766 798.833736 L110.805477 802.700419 L158.315407 830.876935 L116.687862 841.510313 L124.421227 871.784891 L101.715293 877.584915 L93.981928 847.310337 L52.354382 857.943715 L80.530898 810.433784 L65.393609 814.300467 L76.540675 771.140555 L67.079869 773.557232 Z" fill="#888" fill-opacity="0.18" stroke="#000" stroke-width="1"/>
  <path d="M206.231809 506.666962 L207.145488 557.434597 L198.065902 553.841786 L203.669746 598.064314 L189.142409 592.315816 L211.089508 643.005404 L171.139330 627.197035 L159.642334 656.251711 L137.851328 647.628964 L149.348324 618.574289 L109.398146 602.765920 L160.087734 580.818820 L145.560396 575.070323 L179.906730 546.656163 L170.827144 543.063352 Z" fill="#888" fill-opacity="0.18" stroke="#000" stroke-width="1"/>
  <path d="M906.163764 592.301755 L956.736911 587.769166 L953.800896 597.081899 L997.511060 588.337951 L992.813434 603.238323 L1041.808427 577.731457 L1028.889957 618.707480 L1058.690701 628.102730 L1051.644263 650.453288 L1021.843519 641.058037 L1008.925049 682.034059 L983.418184 633.039066 L978.720558 647.939438 L947.928864 615.707363 L944.992848 625.020096 Z" fill="#888" fill-opacity="0.18" stroke="#000" stroke-width="1"/>
  <path d="M419.493303 854.736527 L456.731564 820.218423 L460.104729 829.381880 L489.337592 795.729617 L494.734655 810.391147 L517.895822 760.244662 L532.737747 800.563870 L562.060807 789.769743 L570.156402 811.762038 L540.833342 822.556165 L555.675267 862.875373 L505.528783 839.714207 L510.925846 854.375737 L466.851058 847.708792 L470.224223 856.872249 Z" fill="#888" fill-opacity="0.18" stroke="#000" stroke-width="1"/>
  <path d="M1021.975976 130.266833 L1034.660955 179.432663 L1024.995055 178.047909 L1040.721018 219.757969 L1025.255577 217.542362 L1058.380161 261.744981 L1015.850199 255.652062 L1011.418985 286.582942 L988.220825 283.259532 L992.652039 252.328651 L950.122078 246.235732 L994.324696 213.111148 L978.859256 210.895541 L1005.663254 175.278400 L995.997354 173.893645 Z" fill="#888" fill-opacity="0.18" stroke="#000" stroke-width="1"/>
</svg>
