<?xml version="1.0" encoding="UTF-8"?>
<svg xmlns="http://www.w3.org/2000/svg" width="1100" height="1100" viewBox="0 0 1100 1100">
  <rect x="0" y="0" width="1100" height="1100" fill="white"/>
  <text x="10.0" y="18.0" font-family="monospace" font-size="12">prefix=N76_job5048477_task76 run_id=76 L=7.04115696981 feas=0.000e+00 N=76</text>
  <rect x="40.000000" y="40.000000" width="1020.000000" height="1020.000000" fill="none" stroke="#000" stroke-width="2"/>
  <path d="M486.603224 568.791675 L502.278743 613.185770 L493.238703 612.684820 L511.122990 649.947072 L496.658926 649.145552 L530.815286 687.309515 L491.039108 685.105333 L489.436067 714.033463 L467.739970 712.831182 L469.343011 683.903053 L429.566833 681.698871 L467.730796 647.542511 L453.266731 646.740990 L475.158622 611.682919 L466.118581 611.181969 Z" fill="#888" fill-opacity="0.18" stroke="#000" stroke-width="1"/>
  <path d="M836.173856 266.929002 L847.337947 312.666520 L838.393114 311.265359 L852.467101 350.127244 L838.155369 347.885386 L868.330054 389.269362 L828.972790 383.104252 L824.489074 411.727716 L803.021476 408.364929 L807.505192 379.741465 L768.147929 373.576355 L809.531904 343.401670 L795.220172 341.159812 L820.503449 308.463036 L811.558617 307.061875 Z" fill="#888" fill-opacity="0.18" stroke="#000" stroke-width="1"/>
  <path d="M303.134696 727.745259 L324.189667 685.635334 L330.107481 692.487543 L344.497123 653.741428 L353.965626 664.704961 L357.703202 613.624871 L383.741584 643.774587 L405.668651 624.837582 L419.871405 641.282882 L397.944338 660.219887 L423.982721 690.369603 L372.902631 686.632027 L382.371134 697.595560 L341.943110 706.191959 L347.860924 713.044167 Z" fill="#888" fill-opacity="0.18" stroke="#000" stroke-width="1"/>
  <path d="M122.524633 824.705208 L153.695544 789.421616 L157.653363 797.564647 L181.518285 763.818704 L187.850795 776.847553 L204.591644 728.444154 L222.006047 764.273490 L248.063746 751.608470 L257.562511 771.151745 L231.504812 783.816765 L248.919214 819.646101 L200.515815 802.905252 L206.848326 815.934102 L165.569000 813.850709 L169.526819 821.993740 Z" fill="#888" fill-opacity="0.18" stroke="#000" stroke-width="1"/>
  <path d="M925.773880 679.462488 L878.715875 678.012764 L882.453844 669.766500 L841.245256 672.956404 L847.226007 659.762382 L799.289075 677.795562 L815.736139 641.512000 L789.348094 629.550499 L798.319220 609.759466 L824.707264 621.720967 L841.154328 585.437405 L859.187508 633.374337 L865.168259 620.180315 L889.929782 653.273972 L893.667752 645.027708 Z" fill="#888" fill-opacity="0.18" stroke="#000" stroke-width="1"/>
  <path d="M77.814766 908.145193 L104.928308 946.634326 L96.090478 948.600552 L123.398606 979.626176 L109.258077 982.772137 L152.474299 1010.258556 L113.587847 1018.909947 L119.879768 1047.191003 L98.668976 1051.909944 L92.377055 1023.628888 L53.490602 1032.280279 L80.977021 989.064058 L66.836493 992.210018 L78.414818 952.533002 L69.576988 954.499228 Z" fill="#888" fill-opacity="0.18" stroke="#000" stroke-width="1"/>
  <path d="M657.738094 44.213504 L703.658147 54.601300 L698.417705 61.984460 L739.479318 66.703271 L731.094612 78.516328 L781.589019 69.945450 L758.531078 102.431357 L782.157192 119.200768 L769.580133 136.920353 L745.954020 120.150942 L722.896079 152.636849 L714.325201 102.142442 L705.940495 113.955499 L687.936823 76.750781 L682.696382 84.133942 Z" fill="#888" fill-opacity="0.18" stroke="#000" stroke-width="1"/>
  <path d="M809.217834 963.185729 L832.034993 922.004000 L837.657699 929.100369 L853.673222 890.997531 L862.669552 902.351722 L868.564203 851.475419 L893.304111 882.699444 L916.012492 864.706783 L929.506988 881.738069 L906.798606 899.730729 L931.538515 930.954754 L880.662213 925.060103 L889.658543 936.414293 L848.903112 943.293107 L854.525819 950.389476 Z" fill="#888" fill-opacity="0.18" stroke="#000" stroke-width="1"/>
  <path d="M1031.611728 451.086030 L1027.217973 497.960890 L1019.221974 493.713858 L1019.825044 535.041325 L1007.031446 528.246074 L1022.027315 577.218198 L986.844918 558.531258 L973.254416 584.118455 L954.064018 573.925578 L967.654520 548.338381 L932.472124 529.651441 L981.444248 514.655572 L968.650650 507.860321 L1003.229975 485.219794 L995.233976 480.972762 Z" fill="#888" fill-opacity="0.18" stroke="#000" stroke-width="1"/>
  <path d="M612.385735 859.271127 L581.185277 894.528594 L577.234282 886.382251 L553.341098 920.108190 L547.019505 907.074040 L530.238113 955.463398 L512.853732 919.619486 L486.785432 932.262673 L477.303042 912.711448 L503.371342 900.068261 L485.986960 864.224349 L534.376318 881.005741 L528.054725 867.971591 L569.332290 870.089564 L565.381294 861.943220 Z" fill="#888" fill-opacity="0.18" stroke="#000" stroke-width="1"/>
  <path d="M1026.573362 879.462842 L991.536444 848.014918 L999.710404 844.121376 L966.153527 819.991328 L979.231863 813.761662 L930.961859 796.639988 L966.927282 779.508406 L954.467949 753.351735 L974.085453 744.007236 L986.544785 770.163907 L1022.510208 753.032325 L1005.388534 801.302330 L1018.466870 795.072664 L1016.058324 836.334294 L1024.232283 832.440752 Z" fill="#888" fill-opacity="0.18" stroke="#000" stroke-width="1"/>
  <path d="M629.090683 601.326382 L662.103277 634.893125 L653.702923 638.270602 L685.693606 664.441567 L672.253041 669.845529 L719.364360 689.937037 L682.402805 704.797933 L693.210730 731.679064 L673.049882 739.785007 L662.241957 712.903876 L625.280403 727.764773 L645.371910 680.653454 L631.931345 686.057416 L636.902217 645.025555 L628.501864 648.403031 Z" fill="#888" fill-opacity="0.18" stroke="#000" stroke-width="1"/>
  <path d="M289.686767 167.090604 L249.604588 142.392903 L256.953454 137.104476 L219.632243 119.343552 L231.390428 110.882070 L180.841259 102.640314 L213.176267 79.371236 L196.253302 55.854866 L213.890579 43.162642 L230.813545 66.679012 L263.148554 43.409935 L254.906798 93.959104 L266.664983 85.497622 L271.651185 126.527623 L279.000051 121.239196 Z" fill="#888" fill-opacity="0.18" stroke="#000" stroke-width="1"/>
  <path d="M313.038861 725.001221 L357.969995 710.938834 L357.142968 719.954892 L395.026661 703.427673 L393.703418 717.853366 L433.075760 685.097241 L429.436841 724.767898 L458.288227 727.414385 L456.303362 749.052925 L427.451975 746.406438 L423.813056 786.077095 L391.056931 746.704753 L389.733688 761.130446 L355.488914 737.987009 L354.661887 747.003068 Z" fill="#888" fill-opacity="0.18" stroke="#000" stroke-width="1"/>
  <path d="M111.461965 554.431495 L158.530472 555.486593 L154.861778 563.763910 L196.042171 560.228589 L190.172260 573.472296 L237.956302 555.037806 L221.814048 591.457998 L248.301461 603.197819 L239.496595 623.063378 L213.009183 611.323558 L196.866929 647.743750 L178.432440 599.959708 L172.562529 613.203415 L147.524390 580.318543 L143.855696 588.595859 Z" fill="#888" fill-opacity="0.18" stroke="#000" stroke-width="1"/>
  <path d="M256.615544 937.529421 L237.205558 980.422428 L231.027065 973.804309 L218.147273 1013.078144 L208.261684 1002.489154 L206.503180 1053.675604 L179.317809 1024.555879 L158.139828 1044.327058 L143.311444 1028.443572 L164.489425 1008.672393 L137.304054 979.552669 L188.490505 981.311172 L178.604915 970.722181 L218.670078 960.568070 L212.491584 953.949951 Z" fill="#888" fill-opacity="0.18" stroke="#000" stroke-width="1"/>
  <path d="M73.427869 360.013335 L112.306021 333.460617 L114.143918 342.326022 L145.562167 315.470541 L148.502802 329.655190 L176.612835 286.841978 L184.699584 325.849763 L213.068881 319.968491 L217.479835 341.245465 L189.110537 347.126736 L197.197285 386.134521 L154.384074 358.024488 L157.324709 372.209136 L117.819713 360.056833 L119.657610 368.922239 Z" fill="#888" fill-opacity="0.18" stroke="#000" stroke-width="1"/>
  <path d="M175.618076 495.173286 L222.698179 495.026921 L219.241905 503.395162 L260.318671 498.810130 L254.788632 512.199315 L302.086691 492.551449 L286.879084 529.371708 L313.657454 540.431786 L305.362396 560.515563 L278.584026 549.455485 L263.376419 586.275744 L243.728554 538.977684 L238.198515 552.366869 L212.329356 520.131643 L208.873082 528.499883 Z" fill="#888" fill-opacity="0.18" stroke="#000" stroke-width="1"/>
  <path d="M663.977432 78.799162 L623.123662 102.198457 L621.991669 93.215591 L588.550590 117.505865 L586.739402 103.133280 L555.335909 143.592712 L550.355143 104.068103 L521.609972 107.690479 L518.893191 86.131601 L547.638361 82.509226 L542.657594 42.984617 L583.117027 74.388110 L581.305839 60.015525 L619.727685 75.249860 L618.595692 66.266994 Z" fill="#888" fill-opacity="0.18" stroke="#000" stroke-width="1"/>
  <path d="M576.822679 855.014431 L530.678555 845.672193 L535.749967 838.171922 L494.591778 834.386868 L502.706037 822.386435 L452.419306 832.101868 L474.733520 799.100677 L450.732654 782.872158 L462.904044 764.871508 L486.904910 781.100028 L509.219124 748.098837 L518.934557 798.385569 L527.048817 786.385136 L545.892792 823.171381 L550.964204 815.671110 Z" fill="#888" fill-opacity="0.18" stroke="#000" stroke-width="1"/>
  <path d="M572.953094 836.749264 L566.604353 790.098958 L575.355054 792.422429 L565.397396 752.307989 L579.398518 756.025543 L553.689598 711.728855 L592.192682 721.952128 L599.627789 693.949885 L620.629471 699.526216 L613.194364 727.528458 L651.697448 737.751731 L607.400760 763.460650 L621.401881 767.178204 L592.856456 797.069371 L601.607156 799.392842 Z" fill="#888" fill-opacity="0.18" stroke="#000" stroke-width="1"/>
  <path d="M106.326103 546.035717 L123.767576 589.766171 L114.714724 589.627789 L134.077473 626.143637 L119.592910 625.922227 L155.250793 662.687161 L115.418243 662.078283 L114.975422 691.047410 L93.248577 690.715295 L93.691398 661.746168 L53.858848 661.137289 L90.623783 625.479406 L76.139219 625.257996 L96.609020 589.351026 L87.556168 589.212645 Z" fill="#888" fill-opacity="0.18" stroke="#000" stroke-width="1"/>
  <path d="M717.385743 608.732928 L671.254990 599.324889 L676.337094 591.831859 L635.184345 587.988109 L643.315711 575.999261 L593.015174 585.642965 L615.376432 552.673632 L591.398736 536.410899 L603.595786 518.427627 L627.573482 534.690360 L649.934740 501.721027 L659.578444 552.021564 L667.709811 540.032716 L686.501302 576.845798 L691.583407 569.352768 Z" fill="#888" fill-opacity="0.18" stroke="#000" stroke-width="1"/>
  <path d="M565.256831 301.994599 L610.889639 313.579263 L605.457982 320.822908 L646.382205 326.613518 L637.691554 338.203349 L688.392760 330.955398 L664.493469 362.827434 L687.673132 380.208736 L674.637155 397.593483 L651.457493 380.212181 L627.558202 412.084217 L620.310252 361.383011 L611.619601 372.972842 L594.594668 335.310197 L589.163011 342.553841 Z" fill="#888" fill-opacity="0.18" stroke="#000" stroke-width="1"/>
  <path d="M43.013298 506.894499 L50.832697 460.468057 L58.495720 465.290024 L60.924941 424.029606 L73.185776 431.744754 L61.821557 381.804795 L95.538855 403.021452 L110.969151 378.499780 L129.360405 390.072502 L113.930109 414.594174 L147.647407 435.810831 L97.707448 447.175050 L109.968284 454.890198 L73.821765 474.933959 L81.484787 479.755927 Z" fill="#888" fill-opacity="0.18" stroke="#000" stroke-width="1"/>
  <path d="M984.101635 947.034895 L957.927768 986.169103 L952.916804 978.628313 L933.777762 1015.261907 L925.760220 1003.196642 L915.640913 1053.403660 L893.592672 1020.224182 L869.462142 1036.259266 L857.435828 1018.161369 L881.566358 1002.126284 L859.518117 968.946805 L909.725135 979.066112 L901.707593 967.000847 L942.894876 963.546731 L937.883912 956.005941 Z" fill="#888" fill-opacity="0.18" stroke="#000" stroke-width="1"/>
  <path d="M1059.872871 599.719651 L1034.610453 639.448329 L1029.426547 632.025364 L1011.139282 669.091509 L1002.845032 657.214766 L993.888798 707.642248 L971.079612 674.981204 L947.326125 691.569703 L934.884751 673.754588 L958.638238 657.166089 L935.829052 624.505045 L986.256534 633.461280 L977.962284 621.584536 L1019.058735 617.179435 L1013.874830 609.756470 Z" fill="#888" fill-opacity="0.18" stroke="#000" stroke-width="1"/>
  <path d="M857.819411 684.532865 L834.429314 725.391902 L828.906268 718.217696 L812.360145 756.093137 L803.523270 744.614407 L796.918633 795.403419 L772.617227 763.836912 L749.659766 781.510662 L736.404454 764.292567 L759.361914 746.618817 L735.060508 715.052309 L785.849521 721.656947 L777.012646 710.178217 L817.860174 703.869283 L812.337127 696.695077 Z" fill="#888" fill-opacity="0.18" stroke="#000" stroke-width="1"/>
  <path d="M468.354836 965.966777 L438.174885 929.831917 L446.821602 927.147226 L417.060060 898.466678 L430.894808 894.171173 L385.569175 870.323068 L423.614730 858.510428 L415.023719 830.840933 L435.775840 824.397675 L444.366851 852.067169 L482.412406 840.254529 L458.564302 885.580161 L472.399050 881.284655 L464.115036 921.777844 L472.761753 919.093153 Z" fill="#888" fill-opacity="0.18" stroke="#000" stroke-width="1"/>
  <path d="M207.534929 306.211138 L236.709017 269.259411 L241.110648 277.171359 L263.074852 242.158548 L270.117462 254.817665 L284.158730 205.563347 L303.525908 240.375919 L328.844142 226.290698 L339.408057 245.279374 L314.089823 259.364594 L333.457001 294.177166 L284.202683 280.135899 L291.245293 292.795016 L249.913911 292.995256 L254.315543 300.907204 Z" fill="#888" fill-opacity="0.18" stroke="#000" stroke-width="1"/>
  <path d="M392.000922 59.819515 L379.836021 105.301080 L372.662141 99.777609 L366.350794 140.624764 L354.872586 131.787211 L361.474222 182.576614 L329.909151 158.273342 L312.234044 181.229757 L295.016732 167.973427 L312.691839 145.017012 L281.126768 120.713740 L331.916170 114.112104 L320.437963 105.274551 L358.314382 88.730667 L351.140502 83.207196 Z" fill="#888" fill-opacity="0.18" stroke="#000" stroke-width="1"/>
  <path d="M918.508154 1053.018241 L950.401542 1018.386329 L954.190240 1026.609409 L978.747425 993.363840 L984.809342 1006.520768 L1002.546870 958.473654 L1019.217142 994.655207 L1045.530999 982.531373 L1054.623875 1002.266765 L1028.310018 1014.390600 L1044.980291 1050.572153 L996.933177 1032.834625 L1002.995094 1045.991553 L961.767637 1043.055570 L965.556335 1051.278650 Z" fill="#888" fill-opacity="0.18" stroke="#000" stroke-width="1"/>
  <path d="M186.155566 424.169373 L178.573675 470.635194 L170.886095 465.852475 L168.667895 507.124776 L156.367768 499.472425 L167.987212 549.353620 L134.161861 528.309657 L118.857160 552.909912 L100.406969 541.431387 L115.711669 516.831132 L81.886318 495.787169 L131.767512 484.167725 L119.467385 476.515375 L155.510936 456.287037 L147.823356 451.504319 Z" fill="#888" fill-opacity="0.18" stroke="#000" stroke-width="1"/>
  <path d="M304.504683 969.427683 L312.062404 922.957925 L319.752471 927.736644 L321.949203 886.463195 L334.253309 894.109147 L322.607922 844.234003 L356.444214 865.260369 L371.736117 840.652156 L390.192276 852.121083 L374.900373 876.729296 L408.736666 897.755662 L358.861522 909.401049 L371.165628 917.047001 L335.132603 937.294083 L342.822670 942.072803 Z" fill="#888" fill-opacity="0.18" stroke="#000" stroke-width="1"/>
  <path d="M1007.702725 159.380847 L1019.646508 204.920979 L1010.679045 203.672824 L1025.414844 242.288617 L1011.066904 240.291569 L1041.944137 281.154040 L1002.487300 275.662159 L998.493204 304.358041 L976.971293 301.362469 L980.965388 272.666588 L941.508551 267.174707 L982.371022 236.297474 L968.023081 234.300426 L992.744119 201.176515 L983.776656 199.928360 Z" fill="#888" fill-opacity="0.18" stroke="#000" stroke-width="1"/>
  <path d="M722.952798 452.812014 L767.867280 466.927499 L762.039495 473.856439 L802.576381 481.923909 L793.251926 493.010213 L844.278824 488.605591 L818.636573 519.092927 L840.809181 537.741837 L826.822498 554.371294 L804.649890 535.722383 L779.007638 566.209719 L774.603016 515.182821 L765.278561 526.269125 L750.383926 487.714319 L744.556142 494.643259 Z" fill="#888" fill-opacity="0.18" stroke="#000" stroke-width="1"/>
  <path d="M886.765471 829.033776 L871.667396 784.439991 L880.700174 785.058216 L863.300962 747.567009 L877.753407 748.556169 L844.095195 709.952156 L883.839418 712.672347 L885.817739 683.767457 L907.496406 685.251197 L905.518086 714.156087 L945.262310 716.876277 L906.658297 750.534489 L921.110742 751.523649 L898.765730 786.294667 L907.798508 786.912892 Z" fill="#888" fill-opacity="0.18" stroke="#000" stroke-width="1"/>
  <path d="M263.510505 297.761397 L306.746765 316.394256 L300.241209 322.691161 L339.741055 334.860194 L329.332165 344.935243 L380.542012 345.769845 L351.917565 373.476230 L372.067663 394.294009 L356.454329 409.406583 L336.304230 388.588803 L307.679783 416.295188 L308.514385 365.085341 L298.105495 375.160390 L287.230096 335.284973 L280.724540 341.581878 Z" fill="#888" fill-opacity="0.18" stroke="#000" stroke-width="1"/>
  <path d="M613.578386 865.397345 L628.906774 820.882200 L635.675114 826.895756 L644.838989 786.592573 L655.668333 796.214262 L652.649196 745.086678 L682.429892 771.546324 L701.673271 749.887636 L717.917288 764.320170 L698.673909 785.978858 L728.454606 812.438504 L677.327021 815.457641 L688.156366 825.079330 L649.211794 838.922868 L655.980134 844.936424 Z" fill="#888" fill-opacity="0.18" stroke="#000" stroke-width="1"/>
  <path d="M281.438881 736.794162 L296.701135 781.332024 L287.666140 780.747079 L305.203349 818.173935 L290.747358 817.238023 L324.547556 855.717779 L284.793581 853.144023 L282.921758 882.056004 L261.237772 880.652137 L263.109595 851.740155 L223.355620 849.166398 L261.835376 815.366200 L247.379385 814.430288 L269.596152 779.577190 L260.561158 778.992245 Z" fill="#888" fill-opacity="0.18" stroke="#000" stroke-width="1"/>
  <path d="M405.661839 196.673089 L449.085900 214.863978 L442.644910 221.226911 L482.266822 232.992421 L471.961237 243.173115 L523.176933 243.485345 L494.836574 271.482251 L515.197960 292.093422 L499.739582 307.364462 L479.378196 286.753291 L451.037836 314.750197 L451.350066 263.534501 L441.044481 273.715194 L429.762928 233.952778 L423.321937 240.315711 Z" fill="#888" fill-opacity="0.18" stroke="#000" stroke-width="1"/>
  <path d="M378.602478 928.046441 L421.415795 947.631574 L414.772479 953.782967 L453.993345 966.823169 L443.364039 976.665397 L494.542874 978.633092 L465.312282 1005.699219 L484.996738 1026.957832 L469.052779 1041.721174 L449.368323 1020.462561 L420.137731 1047.528688 L422.105426 996.349853 L411.476120 1006.192081 L401.485846 966.085752 L394.842530 972.237144 Z" fill="#888" fill-opacity="0.18" stroke="#000" stroke-width="1"/>
  <path d="M170.885291 118.147105 L149.233769 159.953434 L143.413971 153.017785 L128.474928 191.555405 L119.163251 180.458366 L114.699844 231.480156 L89.092734 200.963297 L66.898655 219.586651 L52.931140 202.941092 L75.125219 184.317739 L49.518108 153.800880 L100.539898 158.264287 L91.228221 147.167248 L131.774375 139.146485 L125.954577 132.210836 Z" fill="#888" fill-opacity="0.18" stroke="#000" stroke-width="1"/>
  <path d="M341.562237 167.674219 L375.815006 199.974457 L367.547747 203.665759 L400.500926 228.613929 L387.273311 234.520013 L435.107556 252.823839 L398.731617 269.065570 L410.543785 295.520798 L390.702363 304.379924 L378.890196 277.924695 L342.514257 294.166425 L360.818083 246.332181 L347.590469 252.238264 L351.013229 211.048364 L342.745970 214.739666 Z" fill="#888" fill-opacity="0.18" stroke="#000" stroke-width="1"/>
  <path d="M860.544002 1036.185727 L813.969990 1043.071873 L816.192421 1034.294967 L776.195448 1044.714439 L779.751337 1030.671389 L735.753990 1056.889293 L745.532684 1018.270905 L717.446583 1011.159128 L722.780416 990.094553 L750.866517 997.206330 L760.645210 958.587942 L786.863114 1002.585289 L790.419003 988.542239 L820.637282 1016.741154 L822.859712 1007.964248 Z" fill="#888" fill-opacity="0.18" stroke="#000" stroke-width="1"/>
  <path d="M920.473119 90.419691 L877.344947 109.301385 L877.183121 100.248922 L841.329285 120.811647 L841.070363 106.327705 L805.507815 143.184865 L804.795779 103.354026 L775.827896 103.871870 L775.439512 82.145958 L804.407395 81.628113 L803.695359 41.797274 L840.552518 77.359822 L840.293596 62.875881 L876.859468 82.143995 L876.697642 73.091531 Z" fill="#888" fill-opacity="0.18" stroke="#000" stroke-width="1"/>
  <path d="M490.524196 328.609268 L534.076504 346.490935 L527.680919 352.899505 L567.385488 364.382991 L557.152552 374.636703 L608.369174 374.584762 L580.228599 402.782472 L600.736025 423.248344 L585.386620 438.628913 L564.879195 418.163041 L536.738621 446.360750 L536.686680 395.144129 L526.453744 405.397841 L514.889749 365.716646 L508.494164 372.125217 Z" fill="#888" fill-opacity="0.18" stroke="#000" stroke-width="1"/>
  <path d="M673.342923 844.683586 L662.951746 890.602874 L655.568971 885.361889 L650.847137 926.423154 L639.034697 918.037579 L647.601857 968.532616 L615.117649 945.472283 L598.346498 969.097162 L580.627839 956.518799 L597.398990 932.893920 L564.914781 909.833587 L615.409818 901.266428 L603.597379 892.880852 L640.803422 874.879920 L633.420647 869.638935 Z" fill="#888" fill-opacity="0.18" stroke="#000" stroke-width="1"/>
  <path d="M396.003254 612.474310 L411.360197 567.969009 L418.124678 573.986906 L427.314408 533.689609 L438.137577 543.318244 L435.151242 492.188734 L464.914957 518.667480 L484.172227 497.021142 L500.406981 511.464094 L481.149711 533.110433 L510.913426 559.589179 L459.783915 562.575514 L470.607085 572.204149 L431.653640 586.022699 L438.418120 592.040596 Z" fill="#888" fill-opacity="0.18" stroke="#000" stroke-width="1"/>
  <path d="M860.340641 258.126928 L901.533598 280.923810 L894.439998 286.550010 L932.550716 302.546772 L921.200955 311.548691 L972.080153 317.418294 L940.868312 342.173571 L958.872150 364.873092 L941.847510 378.375970 L923.843672 355.676450 L892.631831 380.431727 L898.501435 329.552529 L887.151674 338.554447 L880.252798 297.802408 L873.159197 303.428607 Z" fill="#888" fill-opacity="0.18" stroke="#000" stroke-width="1"/>
  <path d="M950.491494 619.845570 L909.277840 597.086127 L916.366325 591.453485 L878.241088 575.491358 L889.582664 566.479130 L838.698153 560.655760 L869.887487 535.872133 L851.863031 513.188981 L868.875395 499.670639 L886.899852 522.353791 L918.089186 497.570163 L912.265816 548.454674 L923.607392 539.442446 L930.543295 580.188199 L937.631780 574.555557 Z" fill="#888" fill-opacity="0.18" stroke="#000" stroke-width="1"/>
  <path d="M528.282067 545.728243 L560.604585 579.959988 L552.137225 583.165779 L583.588583 609.982478 L570.040807 615.111744 L616.733412 636.158019 L579.477028 650.263501 L589.735560 677.359053 L569.413896 685.052952 L559.155364 657.957400 L521.898980 672.062882 L542.945255 625.370277 L529.397479 630.499543 L535.202505 589.577362 L526.735146 592.783153 Z" fill="#888" fill-opacity="0.18" stroke="#000" stroke-width="1"/>
  <path d="M717.472695 299.063686 L672.216224 286.086422 L677.867252 279.012586 L637.139645 271.970912 L646.181290 260.652774 L595.281831 266.344005 L620.146356 235.219126 L597.510080 217.135835 L611.072549 200.158627 L633.708825 218.241919 L658.573350 187.117039 L664.264581 238.016498 L673.306227 226.698360 L689.169309 264.864913 L694.820338 257.791077 Z" fill="#888" fill-opacity="0.18" stroke="#000" stroke-width="1"/>
  <path d="M298.430861 742.638587 L275.930252 701.283053 L284.935717 700.347704 L261.382295 666.383612 L275.791040 664.887053 L236.027780 632.606590 L275.651827 628.491052 L272.658709 599.673563 L294.271825 597.428724 L297.264944 626.246213 L336.888991 622.130674 L304.608528 661.893934 L319.017273 660.397374 L302.946648 698.477004 L311.952113 697.541655 Z" fill="#888" fill-opacity="0.18" stroke="#000" stroke-width="1"/>
  <path d="M724.186498 538.691860 L685.826122 511.396456 L693.508766 506.605813 L657.444375 486.414653 L669.736605 478.749623 L619.843456 467.181622 L653.647089 446.102790 L638.317029 421.518330 L656.755375 410.020785 L672.085434 434.605246 L705.889067 413.526414 L694.321066 463.419564 L706.613296 455.754534 L708.874053 497.024526 L716.556697 492.233882 Z" fill="#888" fill-opacity="0.18" stroke="#000" stroke-width="1"/>
  <path d="M403.628747 999.584243 L361.767208 1021.128826 L361.038993 1012.104249 L326.542758 1034.871176 L325.377615 1020.431853 L292.192166 1059.443018 L288.988022 1019.734880 L260.109376 1022.065167 L258.361661 1000.406183 L287.240307 998.075896 L284.036163 958.367758 L323.047328 991.553208 L321.882185 977.113885 L359.582564 994.055096 L358.854350 985.030519 Z" fill="#888" fill-opacity="0.18" stroke="#000" stroke-width="1"/>
  <path d="M439.275504 197.952295 L482.400900 179.064263 L482.564057 188.116703 L518.414870 167.548708 L518.675921 182.032612 L554.233052 145.170226 L554.950942 185.000960 L583.918749 184.478858 L584.310325 206.204713 L555.342519 206.726815 L556.060409 246.557549 L519.198023 211.000418 L519.459074 225.484322 L482.890371 206.221582 L483.053527 215.274021 Z" fill="#888" fill-opacity="0.18" stroke="#000" stroke-width="1"/>
  <path d="M161.015729 138.048682 L204.040727 157.164306 L197.465099 163.388002 L236.826266 175.998384 L226.305261 185.956298 L277.502559 187.364027 L248.569794 214.748290 L268.485622 235.790301 L252.704114 250.727172 L232.788286 229.685161 L203.855521 257.069424 L205.263250 205.872126 L194.742245 215.830040 L184.313842 175.835395 L177.738214 182.059091 Z" fill="#888" fill-opacity="0.18" stroke="#000" stroke-width="1"/>
  <path d="M76.135980 773.963056 L101.499285 813.627402 L92.582293 815.196010 L118.474110 847.413040 L104.206923 849.922814 L146.149325 879.316349 L106.914560 886.218226 L111.934107 914.752601 L90.533326 918.517262 L85.513779 889.982887 L46.279013 896.884764 L75.672548 854.942361 L61.405360 857.452135 L74.748309 818.333227 L65.831317 819.901836 Z" fill="#888" fill-opacity="0.18" stroke="#000" stroke-width="1"/>
  <path d="M795.468926 455.811889 L752.434844 436.716722 L759.007513 430.489901 L719.640355 417.898233 L730.156625 407.935319 L678.958664 406.551930 L707.878406 379.153915 L687.952577 358.121375 L703.726982 343.177003 L723.652811 364.209543 L752.572554 336.811528 L751.189165 388.009489 L761.705435 378.046575 L772.152851 418.036257 L778.725519 411.809436 Z" fill="#888" fill-opacity="0.18" stroke="#000" stroke-width="1"/>
  <path d="M652.458345 1024.529367 L605.512753 1028.088716 L608.353223 1019.491914 L567.716979 1027.042999 L572.261731 1013.288115 L526.512642 1036.313445 L539.010709 998.487514 L511.500941 989.398010 L518.318069 968.765685 L545.827837 977.855188 L558.325905 940.029258 L581.351235 985.778347 L585.895987 972.023463 L614.034163 1002.298309 L616.874633 993.701506 Z" fill="#888" fill-opacity="0.18" stroke="#000" stroke-width="1"/>
  <path d="M410.784550 464.383933 L396.291803 509.178105 L389.412124 503.292249 L381.003997 543.759849 L369.996510 534.342480 L373.971807 585.404620 L343.701217 559.506856 L324.866480 581.521831 L308.355249 567.395778 L327.189986 545.380804 L296.919397 519.483040 L347.981536 515.507744 L336.974049 506.090375 L375.652765 491.520539 L368.773085 485.634683 Z" fill="#888" fill-opacity="0.18" stroke="#000" stroke-width="1"/>
  <path d="M395.311412 180.497158 L422.154297 141.818778 L427.034861 149.444615 L446.800964 113.145519 L454.609867 125.346856 L465.590955 75.321255 L487.065437 108.874934 L511.468112 93.257129 L523.181466 111.559136 L498.778791 127.176941 L520.253273 160.730620 L470.227672 149.749532 L478.036574 161.950870 L436.795989 164.696287 L441.676553 172.322123 Z" fill="#888" fill-opacity="0.18" stroke="#000" stroke-width="1"/>
  <path d="M675.777211 225.570136 L706.564820 189.951591 L710.610448 198.051355 L734.109120 164.049361 L740.582126 177.008983 L756.798666 128.427413 L774.599432 164.066374 L800.518676 151.120362 L810.228185 170.559795 L784.308941 183.505807 L802.109706 219.144767 L753.528137 202.928226 L760.001143 215.887848 L718.701705 214.250882 L722.747334 222.350646 Z" fill="#888" fill-opacity="0.18" stroke="#000" stroke-width="1"/>
  <path d="M197.876430 238.578143 L165.699595 272.946862 L161.978582 264.692933 L137.149093 297.735628 L131.195473 284.529341 L113.063807 332.429108 L96.691351 296.111820 L70.278778 308.019060 L61.348347 288.209630 L87.760921 276.302390 L71.388465 239.985101 L119.288233 258.116767 L113.334612 244.910481 L154.536557 248.185074 L150.815544 239.931145 Z" fill="#888" fill-opacity="0.18" stroke="#000" stroke-width="1"/>
  <path d="M774.753758 689.173511 L750.285058 648.951126 L759.234942 647.582598 L734.071087 614.793825 L748.390901 612.604181 L707.117256 582.278758 L746.496744 576.257236 L742.117455 547.617609 L763.597176 544.333142 L767.976464 572.972770 L807.355951 566.951248 L777.030528 608.224892 L791.350342 606.035248 L777.134709 644.845543 L786.084592 643.477015 Z" fill="#888" fill-opacity="0.18" stroke="#000" stroke-width="1"/>
  <path d="M242.257659 661.033145 L214.905581 699.353132 L210.126299 691.663415 L189.881852 727.697920 L182.235001 715.394373 L170.593261 765.270369 L149.564421 731.435614 L124.957326 746.729317 L113.487050 728.273996 L138.094144 712.980294 L117.065303 679.145539 L166.941299 690.787279 L159.294447 678.483732 L200.567735 676.283981 L195.788454 668.594264 Z" fill="#888" fill-opacity="0.18" stroke="#000" stroke-width="1"/>
  <path d="M445.263293 461.019001 L491.938974 454.859584 L489.580018 463.600786 L529.734528 453.805965 L525.960199 467.791888 L570.360829 442.262903 L559.981424 480.724191 L587.953271 488.272849 L582.291777 509.251734 L554.319931 501.703076 L543.940526 540.164364 L518.411541 495.763734 L514.637212 509.749657 L484.862107 481.083190 L482.503151 489.824392 Z" fill="#888" fill-opacity="0.18" stroke="#000" stroke-width="1"/>
  <path d="M119.452694 829.173550 L164.207008 843.788917 L158.302333 850.652451 L198.746755 859.171372 L189.299276 870.153027 L240.372110 866.317586 L214.391544 896.517137 L236.354854 915.412095 L222.183636 931.884578 L200.220326 912.989620 L174.239760 943.189172 L170.404319 892.116337 L160.956840 903.097993 L146.492985 864.379520 L140.588311 871.243054 Z" fill="#888" fill-opacity="0.18" stroke="#000" stroke-width="1"/>
  <path d="M935.824527 215.696137 L934.733465 168.628450 L943.169375 171.916108 L937.761004 130.939618 L951.258461 136.199871 L930.665452 89.305597 L967.783458 103.771292 L978.303964 76.776379 L998.550149 84.666758 L988.029643 111.661672 L1025.147650 126.127367 L978.253375 146.720377 L991.750832 151.980630 L960.041196 178.491424 L968.477107 181.779083 Z" fill="#888" fill-opacity="0.18" stroke="#000" stroke-width="1"/>
  <path d="M826.796730 228.860555 L809.905062 272.806307 L803.353425 266.557360 L792.771242 306.511592 L782.288622 296.513278 L783.499387 347.715613 L754.672182 320.220249 L734.675554 341.185489 L718.951624 326.188018 L738.948253 305.222778 L710.121048 277.727414 L761.323383 276.516650 L750.840763 266.518336 L790.250150 254.059468 L783.698513 247.810522 Z" fill="#888" fill-opacity="0.18" stroke="#000" stroke-width="1"/>
  <path d="M794.994537 980.154829 L765.099244 943.784112 L773.766775 941.167397 L744.231348 912.254048 L758.099396 908.067304 L712.962414 883.864042 L751.099549 872.350496 L742.726061 844.614399 L763.528134 838.334283 L771.901622 866.070380 L810.038756 854.556835 L785.835494 899.693816 L799.703543 895.507073 L791.101836 935.933968 L799.769366 933.317253 Z" fill="#888" fill-opacity="0.18" stroke="#000" stroke-width="1"/>
  <path d="M664.031119 1023.176465 L665.026411 976.106656 L673.308383 979.764830 L669.720741 938.588963 L682.971895 944.442041 L664.476706 896.681461 L700.917379 912.777426 L712.623535 886.275118 L732.500266 895.054735 L720.794110 921.557043 L757.234783 937.653008 L709.474203 956.148197 L722.725357 962.001275 L689.872325 987.081177 L698.154296 990.739351 Z" fill="#888" fill-opacity="0.18" stroke="#000" stroke-width="1"/>
  <path d="M207.703413 480.802191 L240.161354 446.698824 L243.814470 454.983027 L268.914425 422.145313 L274.759412 435.400038 L293.283757 387.650759 L309.357471 424.101252 L335.866921 412.411278 L344.634401 432.293365 L318.124952 443.983339 L334.198666 480.433832 L286.449386 461.909488 L292.294373 475.164213 L251.120704 471.551433 L254.773821 479.835636 Z" fill="#888" fill-opacity="0.18" stroke="#000" stroke-width="1"/>
  <path d="M791.649808 424.479943 L838.718249 423.421940 L835.424667 431.855539 L876.404946 426.475951 L871.135214 439.969710 L918.043941 419.409642 L903.552178 456.517479 L930.539696 467.056943 L922.635098 487.297581 L895.647580 476.758118 L881.155817 513.865954 L860.595750 466.957227 L855.326018 480.450986 L828.837502 448.722738 L825.543920 457.156337 Z" fill="#888" fill-opacity="0.18" stroke="#000" stroke-width="1"/>
  <path d="M417.702821 473.664097 L401.623752 429.414565 L410.667979 429.833187 L392.445167 392.735312 L406.915930 393.405106 L372.413510 355.553712 L412.208108 357.395648 L413.547697 328.454122 L435.253842 329.458814 L433.914252 358.400340 L473.708850 360.242276 L435.857456 394.744696 L450.328219 395.414491 L428.756433 430.670430 L437.800659 431.089052 Z" fill="#888" fill-opacity="0.18" stroke="#000" stroke-width="1"/>
</svg>
