<?xml version="1.0" encoding="UTF-8"?>
<svg xmlns="http://www.w3.org/2000/svg" width="1100" height="1100" viewBox="0 0 1100 1100">
  <rect x="0" y="0" width="1100" height="1100" fill="white"/>
  <text x="10.0" y="18.0" font-family="monospace" font-size="12">prefix=N77_job5048478_task77 run_id=77 L=6.94664272513 feas=0.000e+00 N=77</text>
  <rect x="40.000000" y="40.000000" width="1020.000000" height="1020.000000" fill="none" stroke="#000" stroke-width="2"/>
  <path d="M696.818311 639.787834 L744.266356 634.692079 L741.661457 643.491713 L782.590774 634.552112 L778.422936 648.631528 L824.041071 623.852583 L812.579516 662.570977 L840.738348 670.906653 L834.486591 692.025777 L806.327759 683.690100 L794.866204 722.408494 L770.087260 676.790359 L765.919422 690.869775 L736.451659 661.090983 L733.846761 669.890618 Z" fill="#888" fill-opacity="0.18" stroke="#000" stroke-width="1"/>
  <path d="M796.967838 73.016318 L760.281790 103.535453 L757.577657 94.765804 L728.448155 124.875562 L724.121542 110.844125 L699.859479 156.739251 L687.961295 118.152797 L659.898419 126.806022 L653.408500 105.758865 L681.471376 97.105640 L669.573191 58.519186 L715.468317 82.781249 L711.141705 68.749811 L752.169392 77.226507 L749.465259 68.456858 Z" fill="#888" fill-opacity="0.18" stroke="#000" stroke-width="1"/>
  <path d="M278.183190 481.603887 L259.142784 525.361706 L252.783438 518.745227 L240.308084 558.738864 L230.133131 548.152498 L229.104600 600.055797 L201.123477 570.943291 L179.950745 591.293198 L164.688315 575.413649 L185.861047 555.063742 L157.879924 525.951236 L209.783223 526.979766 L199.608270 516.393400 L240.064746 505.512270 L233.705400 498.895791 Z" fill="#888" fill-opacity="0.18" stroke="#000" stroke-width="1"/>
  <path d="M354.541611 989.425820 L400.755278 977.527051 L399.449315 986.610747 L438.657217 971.850469 L436.567676 986.384382 L478.126313 955.273451 L472.380075 995.241714 L501.447902 999.420796 L498.313590 1021.221666 L469.245763 1017.042584 L463.499525 1057.010846 L432.388594 1015.452209 L430.299053 1029.986123 L396.837388 1004.778139 L395.531425 1013.861835 Z" fill="#888" fill-opacity="0.18" stroke="#000" stroke-width="1"/>
  <path d="M1058.544367 769.568368 L1022.389329 738.421989 L1030.592461 734.307661 L996.088259 710.546654 L1009.213270 703.963729 L959.943430 687.608511 L996.037212 669.505469 L982.871363 643.255446 L1002.558880 633.381059 L1015.724729 659.631082 L1051.818511 641.528040 L1035.463294 690.797880 L1048.588305 684.214956 L1046.998725 726.079006 L1055.201858 721.964678 Z" fill="#888" fill-opacity="0.18" stroke="#000" stroke-width="1"/>
  <path d="M1046.221758 470.446957 L1014.678332 434.637797 L1023.368081 431.686978 L992.447360 403.419781 L1006.350959 398.698472 L959.788689 375.742747 L998.023586 362.759147 L988.580968 334.951949 L1009.436366 327.869985 L1018.878984 355.677183 L1057.113882 342.693583 L1034.158157 389.255854 L1048.061756 384.534545 L1040.747580 425.785342 L1049.437329 422.834524 Z" fill="#888" fill-opacity="0.18" stroke="#000" stroke-width="1"/>
  <path d="M413.240631 729.710934 L429.682220 684.911850 L436.418626 691.144017 L446.527200 650.487625 L457.305450 660.459092 L455.288492 608.584800 L484.928680 636.006334 L504.871614 614.449834 L521.038988 629.407035 L501.096055 650.963535 L530.736242 678.385069 L478.861950 680.402026 L489.640199 690.373493 L449.891438 703.608351 L456.627845 709.840518 Z" fill="#888" fill-opacity="0.18" stroke="#000" stroke-width="1"/>
  <path d="M916.995089 532.957486 L964.601641 529.655987 L961.666511 538.351048 L1002.904041 530.962434 L998.207833 544.874532 L1044.728596 521.834808 L1031.814025 560.093076 L1059.638220 569.485492 L1052.593908 590.353638 L1024.769713 580.961222 L1011.855141 619.219490 L988.815417 572.698727 L984.119209 586.610824 L955.796252 555.741170 L952.861122 564.436231 Z" fill="#888" fill-opacity="0.18" stroke="#000" stroke-width="1"/>
  <path d="M537.824887 604.075551 L579.668372 581.132002 L580.646259 590.256848 L614.994291 566.270639 L616.558910 580.870392 L649.146744 540.459461 L653.449447 580.608782 L682.648954 577.479543 L684.995883 599.379173 L655.796376 602.508412 L660.099080 642.657733 L619.688148 610.069898 L621.252768 624.669651 L582.602033 608.506539 L583.579921 617.631385 Z" fill="#888" fill-opacity="0.18" stroke="#000" stroke-width="1"/>
  <path d="M400.117552 492.897335 L443.408670 512.976248 L436.642360 519.175936 L476.326991 532.601864 L465.500895 542.521363 L517.364883 544.787855 L487.593119 572.066478 L507.432118 593.718671 L491.192974 608.597920 L471.353975 586.945728 L441.582211 614.224351 L443.848703 562.360362 L433.022607 572.279862 L423.109740 531.575310 L416.343430 537.774997 Z" fill="#888" fill-opacity="0.18" stroke="#000" stroke-width="1"/>
  <path d="M932.455290 568.815879 L895.705358 599.258056 L893.019611 590.482759 L863.827065 620.531399 L859.529871 606.490924 L835.171669 652.335098 L823.354384 613.723791 L795.273434 622.318180 L788.827642 601.257468 L816.908593 592.663079 L805.091308 554.051772 L850.935482 578.409973 L846.638287 564.369498 L887.648118 572.932165 L884.962371 564.156868 Z" fill="#888" fill-opacity="0.18" stroke="#000" stroke-width="1"/>
  <path d="M485.547999 159.317224 L475.587478 205.987040 L468.039620 200.766991 L463.764711 242.442530 L451.688138 234.090452 L460.999372 285.162080 L427.788798 262.193863 L411.084640 286.347008 L392.969781 273.818890 L409.673939 249.665745 L376.463365 226.697528 L427.534993 217.386294 L415.458421 209.034215 L452.943905 190.326892 L445.396047 185.106843 Z" fill="#888" fill-opacity="0.18" stroke="#000" stroke-width="1"/>
  <path d="M583.400716 329.620346 L602.849720 286.042600 L609.146879 292.718293 L621.995898 252.843135 L632.071352 263.524243 L633.585486 211.632840 L661.292984 241.005885 L682.655199 220.854977 L697.768379 236.876638 L676.406165 257.027546 L704.113663 286.400591 L652.222260 284.886457 L662.297714 295.567565 L621.741196 306.069677 L628.038355 312.745369 Z" fill="#888" fill-opacity="0.18" stroke="#000" stroke-width="1"/>
  <path d="M682.029488 651.830879 L709.879015 690.582492 L700.940154 692.659952 L728.915486 723.844985 L714.613309 727.168920 L758.678590 754.614526 L719.347602 763.755347 L725.995472 792.359702 L704.542206 797.345605 L697.894336 768.741250 L658.563348 777.882071 L686.008954 733.816790 L671.706776 737.140725 L683.062433 696.814871 L674.123572 698.892330 Z" fill="#888" fill-opacity="0.18" stroke="#000" stroke-width="1"/>
  <path d="M407.024965 772.539692 L415.834014 819.440485 L406.856873 817.535228 L418.985556 857.635359 L404.622130 854.586948 L432.909668 898.116541 L393.410246 889.733411 L387.313424 918.460263 L365.768284 913.887647 L371.865107 885.160794 L332.365684 876.777664 L375.895278 848.490126 L361.531851 845.441715 L388.902590 813.724714 L379.925449 811.819457 Z" fill="#888" fill-opacity="0.18" stroke="#000" stroke-width="1"/>
  <path d="M508.126606 817.084384 L544.255008 785.907112 L547.117215 794.626449 L575.697706 763.995076 L580.277239 777.946015 L603.705755 731.619835 L616.299470 769.984918 L644.201348 760.825853 L651.070647 781.752262 L623.168769 790.911327 L635.762484 829.276410 L589.436304 805.847894 L594.015837 819.798833 L552.841631 812.065123 L555.703839 820.784460 Z" fill="#888" fill-opacity="0.18" stroke="#000" stroke-width="1"/>
  <path d="M833.054953 840.563314 L829.553373 792.971060 L838.260695 795.869614 L830.698806 754.663507 L844.630521 759.301195 L821.395453 712.877688 L859.707669 725.631329 L868.983044 697.767900 L889.880616 704.724431 L880.605241 732.587861 L918.917457 745.341502 L872.493950 768.576570 L886.425665 773.214258 L855.675338 801.666724 L864.382660 804.565279 Z" fill="#888" fill-opacity="0.18" stroke="#000" stroke-width="1"/>
  <path d="M681.058241 364.378872 L693.632234 318.344337 L700.874016 323.981328 L707.490060 282.612820 L719.076911 291.632006 L712.657747 240.116914 L744.521588 264.919675 L762.559959 241.745973 L779.940235 255.274751 L761.901864 278.448453 L793.765704 303.251213 L742.250613 309.670377 L753.837464 318.689563 L715.357580 335.255310 L722.599362 340.892301 Z" fill="#888" fill-opacity="0.18" stroke="#000" stroke-width="1"/>
  <path d="M619.384393 537.423738 L650.070991 500.877652 L654.288744 509.028090 L677.611441 474.226118 L684.359844 487.266819 L700.090588 437.794059 L718.648697 473.655986 L744.730098 460.159179 L754.852703 479.720230 L728.771302 493.217037 L747.329411 529.078964 L697.856651 513.348220 L704.605054 526.388921 L662.724248 525.328966 L666.942000 533.479404 Z" fill="#888" fill-opacity="0.18" stroke="#000" stroke-width="1"/>
  <path d="M990.570480 627.554946 L958.347164 662.753548 L954.482273 654.429986 L929.690785 688.201388 L923.506959 674.883688 L905.672275 723.637502 L888.666753 687.013828 L862.031354 699.381480 L852.755615 679.404931 L879.391014 667.037279 L862.385493 630.413606 L911.139307 648.248289 L904.955481 634.930590 L946.752490 637.782862 L942.887599 629.459299 Z" fill="#888" fill-opacity="0.18" stroke="#000" stroke-width="1"/>
  <path d="M525.370885 771.854478 L534.118201 724.942133 L541.798846 729.964759 L544.991932 688.192403 L557.280963 696.228605 L546.648889 645.415523 L580.443725 667.515077 L596.516128 642.937015 L614.949675 654.991317 L598.877272 679.569380 L632.672107 701.668934 L581.859025 712.301008 L594.148057 720.337210 L557.160135 740.010011 L564.840779 745.032637 Z" fill="#888" fill-opacity="0.18" stroke="#000" stroke-width="1"/>
  <path d="M980.895272 894.268907 L935.160123 880.646139 L940.961143 873.535074 L899.754641 865.975336 L909.036273 854.597633 L857.387935 859.837810 L882.912423 828.549126 L860.157017 809.985862 L874.079465 792.919307 L896.834872 811.482572 L922.359360 780.193888 L927.599537 831.842226 L936.881170 820.464523 L952.563183 859.312946 L958.364203 852.201881 Z" fill="#888" fill-opacity="0.18" stroke="#000" stroke-width="1"/>
  <path d="M965.081572 378.425980 L990.233096 418.980690 L981.173715 420.445849 L1006.964988 453.460023 L992.469979 455.804277 L1034.568138 486.181165 L994.706862 492.627864 L999.395370 521.617883 L977.652856 525.134264 L972.964348 496.144245 L933.103072 502.590944 L963.479960 460.492785 L948.984951 462.837040 L963.054953 423.376167 L953.995572 424.841325 Z" fill="#888" fill-opacity="0.18" stroke="#000" stroke-width="1"/>
  <path d="M563.762588 815.747403 L609.224015 830.257481 L603.285730 837.254326 L644.337338 845.614408 L634.836082 856.809360 L686.576603 852.575120 L660.448148 883.361238 L682.838052 902.363751 L668.586168 919.156179 L646.196264 900.153667 L620.067809 930.939785 L615.833569 879.199264 L606.332313 890.394216 L591.409160 851.248017 L585.470875 858.244862 Z" fill="#888" fill-opacity="0.18" stroke="#000" stroke-width="1"/>
  <path d="M339.541085 251.162854 L379.203693 277.698890 L371.559529 282.776865 L408.688590 302.181976 L396.457928 310.306736 L447.346484 320.571491 L413.712162 342.914582 L429.961683 367.375906 L411.615689 379.563046 L395.366169 355.101722 L361.731848 377.444812 L371.996603 326.556256 L359.765941 334.681016 L356.271202 292.932815 L348.627038 298.010790 Z" fill="#888" fill-opacity="0.18" stroke="#000" stroke-width="1"/>
  <path d="M269.486084 459.670401 L315.730434 447.891444 L314.400933 456.971725 L353.646958 442.313111 L351.519757 456.841561 L393.158884 425.838441 L387.309080 465.791677 L416.365978 470.046080 L413.175176 491.838754 L384.118277 487.584351 L378.268473 527.537586 L347.265354 485.898459 L345.138152 500.426908 L311.741931 475.132287 L310.412430 484.212568 Z" fill="#888" fill-opacity="0.18" stroke="#000" stroke-width="1"/>
  <path d="M580.215816 203.938917 L536.109705 185.719842 L542.606147 179.237920 L502.386286 167.512383 L512.780592 157.141307 L460.867136 157.083230 L489.451479 128.562771 L468.709328 107.774158 L484.300788 92.217544 L505.042939 113.006157 L533.627283 84.485699 L533.569206 136.399155 L543.963512 126.028079 L555.599030 166.274075 L562.095472 159.792153 Z" fill="#888" fill-opacity="0.18" stroke="#000" stroke-width="1"/>
  <path d="M556.575158 565.943209 L531.624976 525.264319 L540.691508 523.844086 L515.064205 490.702469 L529.570657 488.430096 L487.623596 457.844898 L527.516339 451.595873 L522.971594 422.582969 L544.731272 419.174410 L549.276017 448.187314 L589.168760 441.938290 L558.583561 483.885351 L573.090013 481.612978 L558.824573 521.003620 L567.891105 519.583388 Z" fill="#888" fill-opacity="0.18" stroke="#000" stroke-width="1"/>
  <path d="M108.764131 318.430817 L149.016767 292.798630 L150.589593 301.839940 L183.294616 275.657753 L185.811138 290.123849 L215.685074 247.667303 L222.605509 287.449068 L251.537702 282.416024 L255.312485 304.115168 L226.380292 309.148212 L233.300728 348.929977 L190.844182 319.056041 L193.360704 333.522138 L153.735246 319.922561 L155.308072 328.963871 Z" fill="#888" fill-opacity="0.18" stroke="#000" stroke-width="1"/>
  <path d="M376.043152 1021.998981 L329.983025 1034.478903 L331.174469 1025.379478 L292.155594 1040.632440 L294.061903 1026.073360 L252.898430 1057.705286 L258.140780 1017.667817 L229.022620 1013.855198 L231.882084 992.016578 L261.000244 995.829197 L266.242595 955.791727 L297.874522 996.955200 L299.780831 982.396120 L333.557355 1007.180628 L334.748799 998.081203 Z" fill="#888" fill-opacity="0.18" stroke="#000" stroke-width="1"/>
  <path d="M791.684572 568.544113 L775.204751 523.759079 L784.373679 524.146170 L765.750400 486.618860 L780.420684 487.238205 L745.293336 449.014133 L785.636617 450.717331 L786.875307 421.376763 L808.880733 422.305780 L807.642043 451.646348 L847.985325 453.349546 L809.761252 488.476895 L824.431536 489.096239 L802.711534 524.920351 L811.880461 525.307441 Z" fill="#888" fill-opacity="0.18" stroke="#000" stroke-width="1"/>
  <path d="M292.907241 364.426396 L272.431226 321.321681 L281.597449 320.875104 L259.645450 285.192682 L274.311407 284.478159 L235.860207 249.599575 L276.191588 247.634637 L274.762541 218.302723 L296.761476 217.230939 L298.190523 246.562852 L338.521903 244.597913 L303.643320 283.049112 L318.309276 282.334589 L299.929894 319.981950 L309.096117 319.535373 Z" fill="#888" fill-opacity="0.18" stroke="#000" stroke-width="1"/>
  <path d="M281.211939 444.414109 L233.648996 440.534655 L237.855626 432.378471 L195.976304 433.495558 L202.706912 420.445663 L153.255657 436.243882 L171.764827 400.356671 L145.665038 386.895457 L155.760949 367.320615 L181.860738 380.781829 L200.369908 344.894619 L216.168126 394.345874 L222.898734 381.295979 L246.268885 416.066103 L250.475515 407.909919 Z" fill="#888" fill-opacity="0.18" stroke="#000" stroke-width="1"/>
  <path d="M903.963202 1058.372486 L859.242369 1041.719233 L865.506322 1035.012373 L824.898187 1024.711653 L834.920511 1013.980678 L783.037261 1015.752306 L810.598654 986.242123 L789.136702 966.197474 L804.170189 950.101011 L825.632140 970.145659 L853.193532 940.635476 L854.965160 992.518727 L864.987485 981.787751 L878.034228 1021.598653 L884.298180 1014.891794 Z" fill="#888" fill-opacity="0.18" stroke="#000" stroke-width="1"/>
  <path d="M209.721238 956.571145 L188.172786 913.992419 L197.324960 913.316564 L174.486757 878.194748 L189.130236 877.113380 L149.818120 843.208103 L190.087686 840.234341 L187.924951 810.947384 L209.890169 809.325332 L212.052904 838.612290 L252.322471 835.638528 L218.417194 874.950644 L233.060672 873.869277 L215.629309 911.964854 L224.781483 911.288999 Z" fill="#888" fill-opacity="0.18" stroke="#000" stroke-width="1"/>
  <path d="M341.790530 42.174413 L385.336269 61.694973 L378.650242 67.981157 L418.504240 80.895659 L407.806597 90.953554 L459.695443 92.552924 L430.276924 120.212136 L450.392715 141.607422 L434.346250 156.694265 L414.230460 135.298978 L384.811941 162.958190 L386.411311 111.069345 L375.713668 121.127240 L365.278189 80.553526 L358.592162 86.839711 Z" fill="#888" fill-opacity="0.18" stroke="#000" stroke-width="1"/>
  <path d="M739.962837 124.186764 L786.408916 135.143292 L781.028609 142.577764 L822.603171 147.743152 L813.994681 159.638308 L865.253795 151.421647 L841.580446 184.133323 L865.370756 201.350304 L852.458020 219.193037 L828.667710 201.976055 L804.994361 234.687732 L796.777700 183.428618 L788.169209 195.323773 L770.267996 157.446708 L764.887689 164.881180 Z" fill="#888" fill-opacity="0.18" stroke="#000" stroke-width="1"/>
  <path d="M52.384705 721.974622 L50.783111 674.280612 L59.367965 677.523969 L53.454715 636.049170 L67.190480 641.238541 L45.824494 593.925700 L83.597849 608.196470 L93.976591 580.724939 L114.580239 588.508996 L104.201497 615.980526 L141.974852 630.251297 L94.662011 651.617283 L108.397777 656.806654 L76.537671 684.010682 L85.122525 687.254039 Z" fill="#888" fill-opacity="0.18" stroke="#000" stroke-width="1"/>
  <path d="M827.990418 915.777731 L788.608076 888.827503 L796.305035 883.829915 L759.381371 864.036771 L771.696506 856.040630 L720.918316 845.243145 L754.784937 823.253757 L738.792655 798.623487 L757.265357 786.629275 L773.257640 811.259545 L807.124261 789.270157 L796.326776 840.048348 L808.641912 832.052206 L811.698954 873.834738 L819.395913 868.837150 Z" fill="#888" fill-opacity="0.18" stroke="#000" stroke-width="1"/>
  <path d="M974.342484 256.893202 L928.158755 244.878756 L933.707453 237.569103 L892.261707 231.455546 L901.139624 219.760102 L849.706221 226.803919 L874.120493 194.641448 L850.729605 176.885614 L864.046481 159.342448 L887.437369 177.098282 L911.851641 144.935811 L918.895458 196.369214 L927.773376 184.673770 L944.804850 222.949798 L950.353548 215.640146 Z" fill="#888" fill-opacity="0.18" stroke="#000" stroke-width="1"/>
  <path d="M897.652232 1025.655197 L916.892673 981.984965 L923.221675 988.630475 L935.879908 948.694343 L946.006312 959.327158 L947.272340 907.429109 L975.119951 936.669352 L996.385582 916.416543 L1011.575188 932.365766 L990.309558 952.618574 L1018.157169 981.858817 L966.259121 980.592789 L976.385525 991.225604 L935.879681 1001.921494 L942.208683 1008.567003 Z" fill="#888" fill-opacity="0.18" stroke="#000" stroke-width="1"/>
  <path d="M482.210250 186.539806 L529.630434 191.888622 L525.173530 199.910783 L567.067366 200.089643 L559.936320 212.925102 L609.852583 198.664070 L590.242205 233.961582 L615.913123 248.223675 L605.216554 267.476863 L579.545636 253.214771 L559.935259 288.512282 L545.674227 238.596020 L538.543181 251.431479 L516.259723 215.955107 L511.802819 223.977269 Z" fill="#888" fill-opacity="0.18" stroke="#000" stroke-width="1"/>
  <path d="M242.521749 705.249547 L198.317122 687.270818 L204.778186 680.753631 L164.495096 669.247190 L174.832797 658.819690 L122.919794 659.044187 L151.348472 630.368562 L130.493472 609.693160 L146.000024 594.051910 L166.855024 614.727312 L195.283703 586.051687 L195.508200 637.964690 L205.845901 627.537190 L217.700312 667.719256 L224.161375 661.202068 Z" fill="#888" fill-opacity="0.18" stroke="#000" stroke-width="1"/>
  <path d="M571.138151 1048.767447 L561.107110 1002.112737 L570.130952 1003.782871 L556.959036 964.013208 L571.397183 966.685423 L541.982351 923.909519 L581.687256 931.258108 L587.031685 902.381814 L608.688906 906.390136 L603.344477 935.266430 L643.049381 942.615020 L600.273477 972.029852 L614.711624 974.702066 L588.178636 1007.123139 L597.202478 1008.793273 Z" fill="#888" fill-opacity="0.18" stroke="#000" stroke-width="1"/>
  <path d="M279.366013 692.651149 L282.867138 740.243436 L274.159844 737.344798 L281.721338 778.550978 L267.789668 773.913157 L291.024291 820.336885 L252.712198 807.582878 L243.436556 835.446219 L222.539050 828.489487 L231.814692 800.626146 L193.502598 787.872139 L239.926327 764.637515 L225.994656 759.999694 L256.745256 731.547522 L248.037962 728.648884 Z" fill="#888" fill-opacity="0.18" stroke="#000" stroke-width="1"/>
  <path d="M750.047303 1045.638501 L706.687513 1025.708316 L713.432500 1019.485438 L673.702015 1006.195819 L684.493995 996.239214 L632.622532 994.150775 L662.300478 966.770111 L642.387268 945.186150 L658.575239 930.251243 L678.488449 951.835204 L708.166395 924.454540 L706.077956 976.326004 L716.869937 966.369399 L726.922476 1007.039682 L733.667464 1000.816804 Z" fill="#888" fill-opacity="0.18" stroke="#000" stroke-width="1"/>
  <path d="M916.580171 170.050229 L964.293608 169.206611 L960.914262 177.738850 L1002.477777 172.485308 L997.070824 186.136890 L1044.717161 165.525318 L1029.848040 203.067168 L1057.151203 213.881074 L1049.040773 234.358446 L1021.737610 223.544540 L1006.868489 261.086390 L986.256918 213.440053 L980.849964 227.091635 L954.155571 194.803327 L950.776225 203.335566 Z" fill="#888" fill-opacity="0.18" stroke="#000" stroke-width="1"/>
  <path d="M199.742401 1043.884884 L152.103506 1046.681202 L155.130705 1038.017765 L113.817119 1044.968530 L118.660638 1031.107031 L71.898094 1053.651982 L85.217770 1015.532860 L57.494772 1005.845823 L64.760050 985.053574 L92.483048 994.740611 L105.802724 956.621489 L128.347675 1003.384033 L133.191194 989.522534 L161.185103 1020.690892 L164.212302 1012.027455 Z" fill="#888" fill-opacity="0.18" stroke="#000" stroke-width="1"/>
  <path d="M959.751056 461.855039 L930.246068 499.361564 L925.770427 491.349841 L903.569946 526.878198 L896.408920 514.059441 L882.264594 564.008899 L862.571771 528.757318 L836.934258 543.079371 L826.192718 523.851236 L851.830232 509.529183 L832.137409 474.277602 L882.086867 488.421928 L874.925841 475.603171 L916.819144 475.326395 L912.343502 467.314672 Z" fill="#888" fill-opacity="0.18" stroke="#000" stroke-width="1"/>
  <path d="M146.521950 810.052539 L138.915112 857.163257 L131.114899 852.328410 L128.935981 894.165927 L116.455640 886.430172 L128.317106 936.970413 L93.996167 915.697087 L78.524657 940.657770 L59.804145 929.054137 L75.275655 904.093455 L40.954716 882.820129 L91.494957 870.958662 L79.014615 863.222908 L115.514472 842.658717 L107.714258 837.823870 Z" fill="#888" fill-opacity="0.18" stroke="#000" stroke-width="1"/>
  <path d="M949.974781 454.374830 L902.559673 448.981201 L907.024157 440.963255 L865.130509 440.744802 L872.273682 427.916088 L822.343964 442.129938 L841.987692 406.850975 L816.330264 392.564628 L827.045025 373.321558 L852.702452 387.607905 L872.346180 352.328942 L886.560030 402.258661 L893.703203 389.429947 L915.953124 424.927363 L920.417607 416.909417 Z" fill="#888" fill-opacity="0.18" stroke="#000" stroke-width="1"/>
  <path d="M781.586669 216.581610 L734.132356 221.618660 L736.748140 212.822255 L695.807794 221.711213 L699.993048 207.636964 L654.344292 232.359452 L665.853739 193.655268 L637.705242 185.284761 L643.983122 164.173388 L672.131620 172.543895 L683.641067 133.839711 L708.363555 179.488467 L712.548808 165.414218 L741.979707 195.229444 L744.595490 186.433038 Z" fill="#888" fill-opacity="0.18" stroke="#000" stroke-width="1"/>
  <path d="M601.277044 371.609386 L555.355263 384.589129 L556.447748 375.477293 L517.596938 391.153392 L519.344914 376.574455 L478.527632 408.651857 L483.334566 368.559780 L454.176692 365.063828 L456.798656 343.195423 L485.956530 346.691375 L490.763464 306.599298 L522.840867 347.416581 L524.588843 332.837644 L558.632718 357.253622 L559.725203 348.141787 Z" fill="#888" fill-opacity="0.18" stroke="#000" stroke-width="1"/>
  <path d="M752.939510 1032.169291 L739.289988 986.442119 L748.416818 987.401314 L732.174575 948.783766 L746.777502 950.318479 L714.106965 909.974379 L754.265015 914.194839 L757.334440 884.988985 L779.238831 887.291054 L776.169406 916.496908 L816.327456 920.717368 L775.983356 953.387904 L790.586283 954.922617 L766.670477 989.319705 L775.797306 990.278900 Z" fill="#888" fill-opacity="0.18" stroke="#000" stroke-width="1"/>
  <path d="M237.450009 574.967367 L282.095625 591.821231 L275.801624 598.499901 L316.363104 608.982831 L306.292703 619.668702 L358.183384 618.130026 L330.489781 647.516173 L351.861523 667.656975 L336.755922 683.685782 L315.384179 663.544980 L287.690576 692.931126 L286.151901 641.040445 L276.081499 651.726316 L263.213623 611.857240 L256.919622 618.535909 Z" fill="#888" fill-opacity="0.18" stroke="#000" stroke-width="1"/>
  <path d="M521.331095 726.160787 L512.074840 772.975373 L504.449193 767.869634 L500.802659 809.604850 L488.601623 801.435666 L498.681254 852.361213 L465.128406 829.895960 L448.790040 854.298031 L430.488486 842.044256 L446.826853 817.642185 L413.274005 795.176931 L464.199552 785.097300 L451.998517 776.928117 L489.197899 757.658155 L481.572251 752.552415 Z" fill="#888" fill-opacity="0.18" stroke="#000" stroke-width="1"/>
  <path d="M195.265481 785.879664 L147.856210 791.324366 L150.396298 782.505805 L109.533859 791.746290 L113.598000 777.636591 L68.163403 802.750487 L79.339789 763.948816 L51.120392 755.820536 L57.216602 734.655988 L85.435999 742.784268 L96.612385 703.982598 L121.726280 749.417194 L125.790420 735.307496 L155.476473 764.868682 L158.016561 756.050120 Z" fill="#888" fill-opacity="0.18" stroke="#000" stroke-width="1"/>
  <path d="M181.718392 191.028261 L173.049189 144.101417 L182.020611 146.033426 L170.011517 105.897318 L184.365793 108.988532 L156.208139 65.374809 L195.682396 73.875647 L201.864824 45.167097 L223.396237 49.803918 L217.213809 78.512468 L256.688067 87.013306 L213.074344 115.170960 L227.428619 118.262174 L199.963456 149.897443 L208.934878 151.829452 Z" fill="#888" fill-opacity="0.18" stroke="#000" stroke-width="1"/>
  <path d="M350.708173 100.813408 L330.394230 143.994740 L324.231415 137.194829 L310.589963 176.805891 L300.729460 165.926033 L298.181074 217.776935 L271.064690 187.857327 L249.304975 207.578334 L234.514220 191.258547 L256.273935 171.537541 L229.157551 141.617933 L281.008453 144.166318 L271.147950 133.286461 L311.905786 123.595007 L305.742971 116.795096 Z" fill="#888" fill-opacity="0.18" stroke="#000" stroke-width="1"/>
  <path d="M166.838583 141.556368 L177.948021 187.966109 L168.887901 186.505525 L182.977830 225.959288 L168.481638 223.622354 L198.879783 265.705167 L159.015256 259.278599 L154.341389 288.270982 L132.597102 284.765581 L137.270969 255.773199 L97.406443 249.346631 L139.489256 218.948487 L124.993064 216.611553 L150.767662 183.584358 L141.707542 182.123775 Z" fill="#888" fill-opacity="0.18" stroke="#000" stroke-width="1"/>
  <path d="M966.484059 287.479156 L925.518243 311.955381 L924.203367 302.872971 L890.766453 328.113776 L888.662652 313.581920 L857.592515 355.171064 L851.807061 315.208460 L822.743349 319.416063 L819.587647 297.618278 L848.651359 293.410675 L842.865905 253.448071 L884.455049 284.518208 L882.351248 269.986352 L921.573615 284.708150 L920.258739 275.625740 Z" fill="#888" fill-opacity="0.18" stroke="#000" stroke-width="1"/>
  <path d="M660.366921 650.243613 L676.267645 605.249717 L683.078638 611.400281 L692.696712 570.625067 L703.594301 580.465970 L700.952588 528.619739 L730.920957 555.682224 L750.602764 533.887046 L766.949147 548.648401 L747.267340 570.443579 L777.235710 597.506064 L725.389479 600.147777 L736.287068 609.988681 L696.700624 623.701411 L703.511617 629.851975 Z" fill="#888" fill-opacity="0.18" stroke="#000" stroke-width="1"/>
  <path d="M439.775619 776.460595 L393.554432 764.591072 L399.080174 757.264051 L357.615456 751.280527 L366.456644 739.557293 L315.045588 746.762407 L339.358856 714.523513 L315.912389 696.841137 L329.174171 679.256286 L352.620639 696.938663 L376.933907 664.699769 L384.139021 716.110825 L392.980209 704.387591 L410.131660 742.610009 L415.657403 735.282987 Z" fill="#888" fill-opacity="0.18" stroke="#000" stroke-width="1"/>
  <path d="M1043.048206 43.124724 L1034.637330 90.098556 L1026.920886 85.131106 L1024.027260 126.925273 L1011.680950 118.977352 L1022.676923 169.712930 L988.724570 147.856147 L972.828728 172.548767 L954.309263 160.626886 L970.205105 135.934265 L936.252752 114.077483 L986.988330 103.081510 L974.642020 95.133589 L1011.487999 75.196204 L1003.771555 70.228754 Z" fill="#888" fill-opacity="0.18" stroke="#000" stroke-width="1"/>
  <path d="M946.399341 363.571737 L957.957139 317.271618 L965.321228 322.747863 L971.025212 281.243766 L982.807755 290.005758 L975.256378 238.644421 L1007.658371 262.739899 L1025.182356 239.174813 L1042.856170 252.317802 L1025.332186 275.882887 L1057.734179 299.978366 L1006.372841 307.529743 L1018.155384 316.291735 L980.049407 333.700353 L987.413496 339.176598 Z" fill="#888" fill-opacity="0.18" stroke="#000" stroke-width="1"/>
  <path d="M404.798957 520.988009 L422.811849 565.178725 L413.635029 565.107736 L433.540077 601.971194 L418.857164 601.857611 L455.280489 638.848850 L414.902480 638.536497 L414.675314 667.902322 L392.650945 667.731948 L392.878111 638.366123 L352.500101 638.053770 L389.491339 601.630446 L374.808427 601.516863 L395.281388 564.965758 L386.104568 564.894768 Z" fill="#888" fill-opacity="0.18" stroke="#000" stroke-width="1"/>
  <path d="M898.913755 1020.786073 L876.505560 978.653467 L885.642131 977.791998 L862.095797 943.140943 L876.714312 941.762593 L836.722149 908.662182 L876.923065 904.871718 L874.166364 875.634688 L896.094136 873.567163 L898.850837 902.804192 L939.051752 899.013728 L905.951342 939.005892 L920.569856 937.627541 L903.915275 976.069060 L913.051847 975.207591 Z" fill="#888" fill-opacity="0.18" stroke="#000" stroke-width="1"/>
  <path d="M86.585769 241.371556 L73.421557 195.502315 L82.537710 196.558168 L66.705585 157.770679 L81.291430 159.460044 L49.050230 118.772020 L89.161304 123.417773 L92.540033 94.246083 L114.418800 96.780130 L111.040071 125.951820 L151.151144 130.597573 L110.463120 162.838774 L125.048965 164.528138 L100.770016 198.669874 L109.886169 199.725727 Z" fill="#888" fill-opacity="0.18" stroke="#000" stroke-width="1"/>
  <path d="M947.980674 77.750798 L909.125778 105.456047 L907.081569 96.509524 L875.792735 124.368710 L872.522001 110.054273 L844.912742 154.017202 L835.918223 114.652498 L807.289348 121.193966 L802.383247 99.722310 L831.012122 93.180842 L822.017604 53.816138 L865.980533 81.425398 L862.709799 67.110960 L902.993152 78.616477 L900.948943 69.669953 Z" fill="#888" fill-opacity="0.18" stroke="#000" stroke-width="1"/>
  <path d="M531.844096 56.112625 L575.244234 75.954795 L568.511886 82.191346 L608.269253 95.400327 L597.497496 105.378808 L649.373090 107.361998 L619.750759 134.802820 L639.707720 156.346334 L623.550084 171.314055 L603.593123 149.770541 L573.970791 177.211363 L575.953982 125.335769 L565.182225 135.314250 L555.047189 94.664446 L548.314841 100.900997 Z" fill="#888" fill-opacity="0.18" stroke="#000" stroke-width="1"/>
  <path d="M383.419629 396.252757 L429.044061 410.241857 L423.186201 417.306172 L464.330753 425.196120 L454.958176 436.499024 L506.646877 431.673206 L480.872292 462.756191 L503.478099 481.501344 L489.419234 498.455700 L466.813427 479.710547 L441.038841 510.793532 L436.213023 459.104832 L426.840447 470.407735 L411.470480 431.434801 L405.612620 438.499116 Z" fill="#888" fill-opacity="0.18" stroke="#000" stroke-width="1"/>
  <path d="M146.256024 540.375385 L109.644665 509.766691 L117.786102 505.531590 L82.934537 482.283066 L95.960836 475.506904 L46.454685 459.881561 L82.277006 441.247117 L68.724683 415.194519 L88.264131 405.030277 L101.816454 431.082874 L137.638775 412.448430 L122.013433 461.954580 L135.039732 455.178419 L134.068975 497.061388 L142.210412 492.826287 Z" fill="#888" fill-opacity="0.18" stroke="#000" stroke-width="1"/>
  <path d="M675.109622 300.739940 L671.915693 348.353830 L663.699760 344.265123 L665.419984 386.124009 L652.274492 379.582078 L668.783394 428.800636 L632.633291 410.810325 L619.549428 437.101309 L599.831190 427.288412 L612.915053 400.997428 L576.764950 383.007117 L625.983508 366.498215 L612.838016 359.956284 L647.267895 336.087709 L639.051963 331.999002 Z" fill="#888" fill-opacity="0.18" stroke="#000" stroke-width="1"/>
  <path d="M384.620701 942.032087 L417.063610 907.035782 L420.876348 915.383362 L445.878645 881.767731 L451.979027 895.123860 L470.118394 846.482584 L486.894443 883.211938 L513.606700 871.011175 L522.757273 891.045367 L496.045016 903.246131 L512.821065 939.975484 L464.179790 921.836117 L470.280171 935.192245 L428.501825 932.078523 L432.314564 940.426103 Z" fill="#888" fill-opacity="0.18" stroke="#000" stroke-width="1"/>
  <path d="M1054.840277 776.865912 L1007.204488 779.714662 L1010.222150 771.047898 L968.916240 778.044130 L973.744499 764.177309 L927.006798 786.773715 L940.284510 748.639956 L912.550867 738.983438 L919.793256 718.183205 L947.526899 727.839724 L960.804611 689.705964 L983.401017 736.443666 L988.229276 722.576844 L1016.257474 753.714372 L1019.275136 745.047608 Z" fill="#888" fill-opacity="0.18" stroke="#000" stroke-width="1"/>
  <path d="M687.658286 415.164736 L720.137662 380.202273 L723.941696 388.553824 L748.979025 354.964278 L755.065479 368.326759 L773.255547 319.704421 L789.993295 356.451244 L816.718258 344.278336 L825.847939 364.322058 L799.122976 376.494966 L815.860724 413.241789 L767.238387 395.051721 L773.324841 408.414202 L731.549764 405.256925 L735.353797 413.608476 Z" fill="#888" fill-opacity="0.18" stroke="#000" stroke-width="1"/>
  <path d="M223.519706 378.822328 L269.344792 365.505226 L268.319345 374.624850 L307.053821 358.663466 L305.413106 373.254863 L345.993387 340.878157 L341.481421 381.004500 L370.664216 384.285930 L368.203144 406.173026 L339.020349 402.891596 L334.508382 443.017939 L302.131676 402.437658 L300.490961 417.029055 L266.268451 392.864096 L265.243004 401.983720 Z" fill="#888" fill-opacity="0.18" stroke="#000" stroke-width="1"/>
</svg>
