<?xml version="1.0" encoding="UTF-8"?>
<svg xmlns="http://www.w3.org/2000/svg" width="1100" height="1100" viewBox="0 0 1100 1100">
  <rect x="0" y="0" width="1100" height="1100" fill="white"/>
  <text x="10.0" y="18.0" font-family="monospace" font-size="12">prefix=N78_job5048479_task78 run_id=78 L=6.96368541816 feas=0.000e+00 N=78</text>
  <rect x="40.000000" y="40.000000" width="1020.000000" height="1020.000000" fill="none" stroke="#000" stroke-width="2"/>
  <path d="M978.344809 244.975037 L955.683818 286.839462 L949.928372 279.720320 L934.113783 318.404217 L924.905070 307.013589 L919.450284 358.511943 L894.126322 327.187716 L871.345066 345.605143 L857.531996 328.519202 L880.313251 310.101775 L854.989289 278.777548 L906.487643 284.232334 L897.278929 272.841706 L938.417480 265.482035 L932.662034 258.362893 Z" fill="#888" fill-opacity="0.18" stroke="#000" stroke-width="1"/>
  <path d="M964.691331 542.391688 L979.003657 587.793318 L969.885592 586.975859 L986.675498 625.246528 L972.086595 623.938594 L1005.289018 663.680690 L965.169532 660.083870 L962.553663 689.261677 L940.670307 687.299775 L943.286176 658.121968 L903.166691 654.525148 L942.908787 621.322725 L928.319883 620.014790 L951.649462 585.340940 L942.531397 584.523481 Z" fill="#888" fill-opacity="0.18" stroke="#000" stroke-width="1"/>
  <path d="M153.640479 1030.477046 L175.345091 988.108893 L181.260695 995.095522 L196.192883 956.062525 L205.657849 967.241132 L209.941952 915.632203 L235.970606 946.373370 L258.327819 927.443440 L272.525267 944.211350 L250.168054 963.141280 L276.196708 993.882448 L224.587779 989.598344 L234.052744 1000.776951 L193.091901 1009.068780 L199.007504 1016.055409 Z" fill="#888" fill-opacity="0.18" stroke="#000" stroke-width="1"/>
  <path d="M1059.090082 845.178608 L1015.095945 826.994368 L1021.577921 820.529746 L981.459087 808.824011 L991.830248 798.480616 L940.043857 798.411200 L968.564551 769.966864 L947.877761 749.224542 L963.434503 733.709449 L984.121293 754.451772 L1012.641986 726.007435 L1012.572571 777.793826 L1022.943732 767.450431 L1034.541873 807.600502 L1041.023849 801.135880 Z" fill="#888" fill-opacity="0.18" stroke="#000" stroke-width="1"/>
  <path d="M672.158097 502.337216 L658.429498 456.755682 L667.536323 457.690068 L651.238850 419.207117 L665.809771 420.702135 L633.120013 380.537290 L673.190044 384.648587 L676.180079 355.506746 L698.036460 357.749272 L695.046426 386.891113 L735.116458 391.002411 L694.951612 423.692169 L709.522533 425.187187 L685.749974 459.558840 L694.856799 460.493225 Z" fill="#888" fill-opacity="0.18" stroke="#000" stroke-width="1"/>
  <path d="M874.841479 398.528756 L915.977604 374.571089 L917.187832 383.645376 L950.822482 358.841034 L952.758846 373.359894 L984.215087 332.221834 L989.540087 372.148699 L1018.577808 368.275972 L1021.482354 390.054262 L992.444633 393.926990 L997.769634 433.853855 L956.631574 402.397615 L958.567938 416.916475 L919.608287 401.793952 L920.818514 410.868239 Z" fill="#888" fill-opacity="0.18" stroke="#000" stroke-width="1"/>
  <path d="M53.554538 568.228420 L100.865280 562.951645 L98.302670 571.740296 L139.095014 562.655703 L134.994838 576.717544 L180.399879 551.813380 L169.124397 590.483443 L197.248079 598.683793 L191.097816 619.776555 L162.974134 611.576204 L151.698652 650.246266 L126.794488 604.841226 L122.694312 618.903067 L93.177451 589.317597 L90.614842 598.106248 Z" fill="#888" fill-opacity="0.18" stroke="#000" stroke-width="1"/>
  <path d="M242.630966 293.267599 L221.057930 250.832297 L230.186463 250.141470 L207.340383 215.147160 L221.946035 214.041837 L182.668596 180.291015 L222.834139 177.251376 L220.623492 148.040072 L242.531970 146.382087 L244.742617 175.593391 L284.908160 172.553751 L251.157339 211.831190 L265.762990 210.725866 L248.443528 248.759816 L257.572060 248.068989 Z" fill="#888" fill-opacity="0.18" stroke="#000" stroke-width="1"/>
  <path d="M667.372753 495.273564 L624.999435 473.579035 L631.984656 467.661769 L592.948107 452.738870 L604.124460 443.271245 L552.514513 438.999425 L583.249485 412.963455 L564.314234 390.610748 L581.078765 376.409310 L600.014015 398.762017 L630.748987 372.726047 L626.477167 424.335994 L637.653521 414.868369 L645.955098 455.827238 L652.940319 449.909972 Z" fill="#888" fill-opacity="0.18" stroke="#000" stroke-width="1"/>
  <path d="M79.871477 738.611029 L119.951604 712.925740 L121.546617 721.940355 L154.096049 695.728152 L156.648069 710.151536 L186.326479 667.713027 L193.344533 707.377333 L222.191301 702.273293 L226.019331 723.908369 L197.172563 729.012408 L204.190618 768.676714 L161.752108 738.998304 L164.304128 753.421688 L124.736641 739.969584 L126.331654 748.984199 Z" fill="#888" fill-opacity="0.18" stroke="#000" stroke-width="1"/>
  <path d="M625.777478 782.303437 L625.062564 734.704702 L633.564922 738.098411 L628.434570 696.622820 L642.038343 702.052755 L621.603747 654.468488 L659.014121 669.400807 L669.873989 642.193262 L690.279648 650.338163 L679.419779 677.545708 L716.830154 692.478027 L669.245887 712.912623 L682.849660 718.342557 L650.569638 744.885828 L659.071995 748.279537 Z" fill="#888" fill-opacity="0.18" stroke="#000" stroke-width="1"/>
  <path d="M812.098168 430.419297 L794.242098 474.547649 L787.729378 468.114001 L776.322770 508.318906 L765.902418 498.025069 L766.218706 549.810541 L737.562739 521.502490 L716.975065 542.343194 L701.344537 526.902439 L721.932211 506.061735 L693.276243 477.753684 L745.061714 477.437396 L734.641362 467.143559 L774.703938 455.246705 L768.191218 448.813057 Z" fill="#888" fill-opacity="0.18" stroke="#000" stroke-width="1"/>
  <path d="M200.891797 470.413619 L235.910584 502.660096 L227.596210 506.491354 L261.212865 531.320080 L247.909867 537.450093 L296.492394 555.382555 L259.909150 572.240091 L272.169177 598.846086 L252.214680 608.041106 L239.954654 581.435110 L203.371410 598.292646 L221.303872 549.710120 L208.000874 555.840133 L210.967463 514.153870 L202.653090 517.985129 Z" fill="#888" fill-opacity="0.18" stroke="#000" stroke-width="1"/>
  <path d="M46.748151 790.085864 L92.985047 778.758900 L91.575862 787.804426 L130.858174 773.541008 L128.603478 788.013850 L170.422322 757.468486 L164.221908 797.268801 L193.167592 801.778193 L189.785548 823.487456 L160.839864 818.978064 L154.639450 858.778379 L124.094085 816.959534 L121.839389 831.432376 L88.757492 805.895478 L87.348307 814.941004 Z" fill="#888" fill-opacity="0.18" stroke="#000" stroke-width="1"/>
  <path d="M185.094533 480.287875 L146.698356 508.428314 L144.542966 499.531032 L113.695694 527.726615 L110.247070 513.490963 L83.279500 557.701655 L73.795783 518.553611 L45.324478 525.450860 L40.151541 504.097381 L68.622846 497.200132 L59.139129 458.052089 L103.349821 485.019658 L99.901196 470.784006 L140.232186 481.736466 L138.076795 472.839184 Z" fill="#888" fill-opacity="0.18" stroke="#000" stroke-width="1"/>
  <path d="M686.085572 758.555073 L683.734424 806.101080 L675.468206 802.167000 L677.917566 843.886848 L664.691617 837.592320 L682.020169 886.393512 L645.648810 869.083560 L633.059754 895.535458 L613.220831 886.093666 L625.809886 859.641768 L589.438527 842.331817 L638.239719 825.003264 L625.013770 818.708736 L658.935770 794.298840 L650.669552 790.364760 Z" fill="#888" fill-opacity="0.18" stroke="#000" stroke-width="1"/>
  <path d="M654.225477 1006.953235 L610.046853 1024.684558 L610.166930 1015.530710 L573.287369 1035.188865 L573.479493 1020.542709 L536.383792 1056.677789 L536.912133 1016.400859 L507.619821 1016.016611 L507.908007 994.047376 L537.200319 994.431625 L537.728661 954.154695 L573.863741 991.250396 L574.055865 976.604240 L610.407086 997.223015 L610.527163 988.069167 Z" fill="#888" fill-opacity="0.18" stroke="#000" stroke-width="1"/>
  <path d="M378.377026 906.764526 L360.925731 862.474539 L370.078635 862.652562 L350.654341 825.649294 L365.298987 825.934132 L329.399465 788.610420 L369.672244 789.393724 L370.241919 760.104431 L392.208889 760.531688 L391.639213 789.820981 L431.911992 790.604285 L394.588280 826.503807 L409.232927 826.788645 L388.384443 863.008610 L397.537348 863.186633 Z" fill="#888" fill-opacity="0.18" stroke="#000" stroke-width="1"/>
  <path d="M884.231198 169.010981 L843.889158 143.739051 L851.359179 138.446967 L813.756801 120.209470 L825.708834 111.742137 L774.660420 103.030389 L807.528509 79.745223 L790.593842 55.841158 L808.521891 43.140158 L825.456557 67.044223 L858.324646 43.759057 L849.612898 94.807470 L861.564930 86.340137 L866.299219 127.862801 L873.769239 122.570718 Z" fill="#888" fill-opacity="0.18" stroke="#000" stroke-width="1"/>
  <path d="M46.253924 755.605640 L46.741167 708.004030 L55.155118 711.611352 L51.073714 670.019439 L64.536036 675.791154 L45.309519 627.706061 L82.330904 643.578278 L93.874334 616.653634 L114.067817 625.311207 L102.524387 652.235851 L139.545772 668.108067 L91.460680 687.334584 L104.923001 693.106300 L71.983021 718.825996 L80.396972 722.433318 Z" fill="#888" fill-opacity="0.18" stroke="#000" stroke-width="1"/>
  <path d="M183.238508 402.523435 L137.091468 390.835779 L142.579442 383.508468 L101.196655 377.676654 L109.977414 365.952957 L58.716273 373.310303 L82.863361 341.070135 L59.415966 323.508617 L72.587105 305.923071 L96.034500 323.484589 L120.181587 291.244422 L127.538932 342.505563 L136.319692 330.781865 L153.555391 368.853847 L159.043365 361.526536 Z" fill="#888" fill-opacity="0.18" stroke="#000" stroke-width="1"/>
  <path d="M237.675421 293.835833 L190.765413 285.736340 L195.672868 278.008195 L153.963885 275.380295 L161.815813 263.015263 L111.273411 274.298025 L132.866213 240.294185 L108.136147 224.590329 L119.914039 206.042780 L144.644104 221.746636 L166.236906 187.742795 L177.519668 238.285197 L185.371596 225.920164 L205.487777 262.551904 L210.395232 254.823759 Z" fill="#888" fill-opacity="0.18" stroke="#000" stroke-width="1"/>
  <path d="M592.290139 957.679435 L544.716955 959.394917 L547.931158 950.823089 L506.572597 956.824300 L511.715322 943.109374 L464.571196 964.539877 L478.713689 926.823831 L451.283837 916.538381 L458.997924 895.965993 L486.427776 906.251442 L500.570269 868.535396 L522.000772 915.679523 L527.143496 901.964597 L554.359564 933.679432 L557.573767 925.107603 Z" fill="#888" fill-opacity="0.18" stroke="#000" stroke-width="1"/>
  <path d="M228.972158 1041.637813 L265.388725 1010.978649 L268.137647 1019.710818 L297.018694 989.504358 L301.416969 1003.475828 L325.349956 957.551464 L337.445214 995.973007 L365.388154 987.176456 L371.985567 1008.133662 L344.042627 1016.930212 L356.137884 1055.351756 L310.213520 1031.418768 L314.611795 1045.390239 L273.635491 1037.175156 L276.384413 1045.907324 Z" fill="#888" fill-opacity="0.18" stroke="#000" stroke-width="1"/>
  <path d="M206.950956 867.349794 L250.425371 847.955829 L250.652524 857.107645 L286.760055 836.065039 L287.123499 850.707946 L322.822156 813.192069 L323.821627 853.460062 L353.107440 852.733175 L353.652606 874.697535 L324.366793 875.424422 L325.366263 915.692416 L287.850387 879.993759 L288.213831 894.636666 L251.106829 875.411279 L251.333981 884.563095 Z" fill="#888" fill-opacity="0.18" stroke="#000" stroke-width="1"/>
  <path d="M780.584722 110.721088 L734.147010 121.194365 L735.722590 112.176334 L696.184187 125.713682 L698.705116 111.284831 L656.330668 141.054636 L663.263222 101.375297 L634.405521 96.333440 L638.186913 74.690165 L667.044614 79.732022 L673.977168 40.052683 L703.746973 82.427130 L706.267901 67.998280 L738.873751 94.140270 L740.449331 85.122239 Z" fill="#888" fill-opacity="0.18" stroke="#000" stroke-width="1"/>
  <path d="M315.566072 270.625395 L294.514425 313.321751 L288.492265 306.426757 L274.161044 345.684384 L264.525588 334.652395 L261.034256 386.321009 L234.536751 355.983039 L212.472773 375.253952 L198.019588 358.705968 L220.083566 339.435055 L193.586061 309.097085 L245.254675 312.588416 L235.619218 301.556427 L276.447944 292.636771 L270.425784 285.741778 Z" fill="#888" fill-opacity="0.18" stroke="#000" stroke-width="1"/>
  <path d="M1009.125034 932.480826 L980.060238 970.182130 L975.517462 962.234140 L953.719612 997.890821 L946.451170 985.174038 L932.830317 1035.137099 L912.842103 1000.165946 L887.408537 1014.702829 L876.505875 995.627655 L901.939441 981.090772 L881.951226 946.119619 L931.914287 959.740472 L924.645846 947.023689 L966.431910 946.338162 L961.889134 938.390173 Z" fill="#888" fill-opacity="0.18" stroke="#000" stroke-width="1"/>
  <path d="M694.088717 711.268745 L727.880915 744.798403 L719.429482 748.317014 L752.097078 774.381803 L738.574785 780.011581 L786.454961 799.742871 L749.268654 815.224758 L760.528209 842.269345 L740.244769 850.714011 L728.985214 823.669424 L691.798908 839.151311 L711.530198 791.271135 L698.007905 796.900912 L702.526615 755.354235 L694.075182 758.872846 Z" fill="#888" fill-opacity="0.18" stroke="#000" stroke-width="1"/>
  <path d="M48.764763 920.333158 L93.117981 903.043199 L92.906641 912.195394 L129.980371 892.905924 L129.642227 907.549437 L167.096369 871.786015 L166.166473 912.055675 L195.453499 912.731964 L194.946282 934.697233 L165.659257 934.020945 L164.729361 974.290605 L128.965939 936.836463 L128.627795 951.479975 L92.483961 930.499785 L92.272621 939.651981 Z" fill="#888" fill-opacity="0.18" stroke="#000" stroke-width="1"/>
  <path d="M267.830410 957.789500 L304.667109 927.636420 L307.295119 936.405736 L336.590763 906.601201 L340.795579 920.632107 L365.360805 875.042802 L376.924048 913.627794 L404.985861 905.218162 L411.293085 926.264522 L383.231272 934.674153 L394.794516 973.259146 L349.205210 948.693920 L353.410026 962.724826 L312.551139 953.944369 L315.179149 962.713686 Z" fill="#888" fill-opacity="0.18" stroke="#000" stroke-width="1"/>
  <path d="M764.850101 760.375377 L811.883462 767.724772 L807.100036 775.530295 L848.845664 777.491846 L841.192183 789.980683 L891.547976 777.892292 L870.500905 812.236593 L895.478578 827.543554 L883.998358 846.276809 L859.020684 830.969848 L837.973613 865.314149 L825.885222 814.958356 L818.231742 827.447193 L797.533186 791.141341 L792.749760 798.946864 Z" fill="#888" fill-opacity="0.18" stroke="#000" stroke-width="1"/>
  <path d="M421.815834 598.695258 L461.596219 572.548142 L463.295382 581.543707 L495.539482 554.956809 L498.258144 569.349713 L527.443749 526.570798 L534.920069 566.151284 L563.705877 560.713960 L567.783870 582.303316 L538.998062 587.740640 L546.474383 627.321126 L503.695468 598.135521 L506.414130 612.528425 L466.693710 599.534837 L468.392874 608.530402 Z" fill="#888" fill-opacity="0.18" stroke="#000" stroke-width="1"/>
  <path d="M765.421944 614.009628 L812.958892 616.537330 L808.994141 624.788881 L850.722798 622.494471 L844.379196 635.696953 L893.244404 618.549751 L875.799501 654.856577 L902.204465 667.543779 L892.689063 687.347502 L866.284099 674.660300 L848.839196 710.967125 L831.691994 662.101917 L825.348393 675.304399 L801.064639 641.291983 L797.099889 649.543535 Z" fill="#888" fill-opacity="0.18" stroke="#000" stroke-width="1"/>
  <path d="M333.978059 151.337870 L362.762074 113.421764 L367.363749 121.335798 L388.896201 85.518224 L396.258881 98.180679 L409.508319 48.117844 L429.755687 82.939594 L455.080597 68.214235 L466.124616 87.207917 L440.799706 101.933276 L461.047075 136.755027 L410.984240 123.505588 L418.346919 136.168043 L376.567098 137.163866 L381.168773 145.077900 Z" fill="#888" fill-opacity="0.18" stroke="#000" stroke-width="1"/>
  <path d="M568.401483 495.804506 L523.021619 481.423318 L528.930991 474.431418 L487.962772 466.176109 L497.417768 454.989069 L445.812678 459.319179 L471.813917 428.554819 L449.439837 409.644828 L463.622331 392.864268 L485.996410 411.774260 L511.997649 381.009900 L516.327759 432.614989 L525.782755 421.427949 L540.749736 460.447618 L546.659108 453.455718 Z" fill="#888" fill-opacity="0.18" stroke="#000" stroke-width="1"/>
  <path d="M788.963836 944.095264 L741.537318 948.203310 L744.315957 939.480552 L703.311918 947.556062 L707.757741 933.599649 L661.752151 957.376123 L673.978165 918.995987 L646.065339 910.104341 L652.734074 889.169721 L680.646900 898.061368 L692.872914 859.681232 L716.649388 905.686823 L721.095211 891.730410 L749.873237 922.035036 L752.651876 913.312278 Z" fill="#888" fill-opacity="0.18" stroke="#000" stroke-width="1"/>
  <path d="M971.918359 540.183792 L931.053838 515.765733 L938.410929 510.317746 L900.433380 492.874957 L912.204724 484.158177 L860.984413 476.521765 L893.355611 452.550620 L875.922051 429.007931 L893.579068 415.932761 L911.012628 439.475450 L943.383825 415.504305 L935.747414 466.724617 L947.518758 458.007837 L953.125109 499.421771 L960.482200 493.973783 Z" fill="#888" fill-opacity="0.18" stroke="#000" stroke-width="1"/>
  <path d="M741.329648 626.835078 L777.265610 658.056182 L769.065417 662.126094 L803.385488 685.973061 L790.265179 692.484919 L839.345597 709.006045 L803.264748 726.913656 L816.288465 753.154274 L796.608001 762.922062 L783.584284 736.681444 L747.503435 754.589054 L764.024561 705.508636 L750.904252 712.020494 L752.665031 670.265917 L744.464838 674.335828 Z" fill="#888" fill-opacity="0.18" stroke="#000" stroke-width="1"/>
  <path d="M925.304400 97.401687 L935.615082 143.875771 L926.602620 142.268637 L940.001502 181.854178 L925.581563 179.282764 L955.202876 221.761146 L915.548044 214.689758 L910.405216 243.529636 L888.775308 239.672515 L893.918136 210.832638 L854.263304 203.761250 L896.741685 174.139937 L882.321746 171.568523 L908.577697 139.054370 L899.565235 137.447236 Z" fill="#888" fill-opacity="0.18" stroke="#000" stroke-width="1"/>
  <path d="M562.052742 323.197543 L576.232739 277.754410 L583.250751 283.632748 L591.324475 242.628357 L602.553295 252.033697 L597.994597 200.448299 L628.873850 226.312984 L647.684531 203.855346 L664.527760 217.963356 L645.717079 240.420995 L676.596332 266.285681 L625.010933 270.844378 L636.239752 280.249718 L597.286775 295.389423 L604.304787 301.267761 Z" fill="#888" fill-opacity="0.18" stroke="#000" stroke-width="1"/>
  <path d="M482.857952 823.074775 L445.953993 793.004051 L454.021574 788.677219 L418.965565 765.925926 L431.873695 759.002994 L382.296039 744.040000 L417.793396 725.001936 L403.947531 699.185677 L423.309726 688.801278 L437.155591 714.617538 L472.652948 695.579474 L457.689954 745.157129 L470.598084 738.234197 L470.156736 780.023553 L478.224317 775.696720 Z" fill="#888" fill-opacity="0.18" stroke="#000" stroke-width="1"/>
  <path d="M865.054565 230.012794 L818.386302 220.620038 L823.505450 213.030462 L781.885018 209.250940 L790.075655 197.107617 L739.240757 206.989333 L761.765007 173.595196 L737.478362 157.213923 L749.764316 138.998939 L774.050961 155.380212 L796.575211 121.986074 L806.456927 172.820972 L814.647563 160.677649 L833.743745 197.851308 L838.862893 190.261732 Z" fill="#888" fill-opacity="0.18" stroke="#000" stroke-width="1"/>
  <path d="M394.349559 652.595537 L441.136145 643.811121 L439.234963 652.766167 L479.237749 640.669795 L476.195857 654.997869 L519.620772 626.782415 L511.255569 666.184618 L539.911716 672.268402 L535.348878 693.760513 L506.692731 687.676728 L498.327527 727.078932 L470.112073 683.654017 L467.070181 697.982091 L435.432598 670.676259 L433.531415 679.631305 Z" fill="#888" fill-opacity="0.18" stroke="#000" stroke-width="1"/>
  <path d="M716.881673 323.777717 L746.041467 286.149841 L750.564182 294.109263 L772.451895 258.507674 L779.688240 271.242749 L793.435066 221.314201 L813.335013 256.335657 L838.805162 241.862969 L849.659679 260.965581 L824.189529 275.438269 L844.089476 310.459725 L794.160928 296.712899 L801.397273 309.447973 L759.609612 310.028106 L764.132328 317.987528 Z" fill="#888" fill-opacity="0.18" stroke="#000" stroke-width="1"/>
  <path d="M537.269242 540.678270 L583.133473 527.925899 L582.004883 537.010701 L620.826991 521.538498 L619.021246 536.074181 L659.874816 504.249334 L654.909019 544.222463 L683.980385 547.833952 L681.271769 569.637478 L652.200402 566.025989 L647.234604 605.999118 L615.409757 565.145548 L613.604012 579.681232 L579.747702 555.180306 L578.619112 564.265108 Z" fill="#888" fill-opacity="0.18" stroke="#000" stroke-width="1"/>
  <path d="M256.303473 386.154519 L294.880594 414.046389 L287.076037 418.831390 L323.386068 439.522614 L310.898777 447.178616 L361.257010 459.256838 L326.916960 480.310844 L342.228965 505.285426 L323.498029 516.769430 L308.186024 491.794848 L273.845974 512.848855 L285.924195 462.490621 L273.436904 470.146624 L271.466923 428.401393 L263.662366 433.186395 Z" fill="#888" fill-opacity="0.18" stroke="#000" stroke-width="1"/>
  <path d="M179.683286 880.021246 L191.091025 833.804213 L198.451464 839.247675 L204.032346 797.830302 L215.809049 806.539841 L208.141140 755.324235 L240.527073 779.275468 L257.946151 755.722062 L275.611206 768.786371 L258.192127 792.339777 L290.578060 816.291010 L239.362455 823.958919 L251.139158 832.668459 L213.172343 850.134600 L220.532782 855.578062 Z" fill="#888" fill-opacity="0.18" stroke="#000" stroke-width="1"/>
  <path d="M692.127707 128.758293 L720.128644 167.256321 L711.223599 169.379415 L739.307071 200.328788 L725.058999 203.725738 L769.171551 230.853543 L729.989354 240.195154 L736.783253 268.691297 L715.411146 273.786721 L708.617247 245.290578 L669.435050 254.632188 L696.562856 210.519636 L682.314784 213.916585 L693.413510 173.625601 L684.508465 175.748694 Z" fill="#888" fill-opacity="0.18" stroke="#000" stroke-width="1"/>
  <path d="M285.157990 347.959677 L328.822791 328.998248 L328.959080 338.151868 L365.273727 317.468746 L365.491789 332.114539 L401.561115 294.954899 L402.160788 335.230830 L431.452374 334.794705 L431.779468 356.763394 L402.487882 357.199520 L403.087555 397.475451 L365.927915 361.406125 L366.145978 376.051918 L329.231659 356.459110 L329.367948 365.612730 Z" fill="#888" fill-opacity="0.18" stroke="#000" stroke-width="1"/>
  <path d="M96.127857 441.921912 L138.028609 419.328160 L138.940166 428.437299 L173.371296 404.750965 L174.829787 419.325587 L207.620115 379.242804 L211.630966 419.323015 L240.780210 416.406032 L242.967947 438.267965 L213.818702 441.184948 L217.829553 481.265159 L177.746770 448.474832 L179.205261 463.049454 L140.763280 446.655577 L141.674837 455.764715 Z" fill="#888" fill-opacity="0.18" stroke="#000" stroke-width="1"/>
  <path d="M286.261966 148.139181 L324.341775 176.706274 L316.454140 181.353053 L352.394053 202.680681 L339.773836 210.115527 L389.911493 223.078954 L355.205897 243.524781 L370.075589 268.765214 L351.145264 279.917484 L336.275572 254.677050 L301.569975 275.122877 L314.533402 224.985219 L301.913186 232.420066 L300.678869 190.646610 L292.791233 195.293389 Z" fill="#888" fill-opacity="0.18" stroke="#000" stroke-width="1"/>
  <path d="M442.084889 240.425014 L485.904434 221.823991 L485.965301 230.978424 L522.449127 210.595207 L522.546513 225.242299 L558.920780 188.381103 L559.188591 228.660608 L588.482776 228.465836 L588.628855 250.436475 L559.334669 250.631247 L559.602480 290.910752 L522.741284 254.536485 L522.838670 269.183577 L486.087033 249.287289 L486.147899 258.441722 Z" fill="#888" fill-opacity="0.18" stroke="#000" stroke-width="1"/>
  <path d="M879.195603 76.618171 L925.284800 64.704456 L923.990696 73.767162 L963.088549 59.005624 L961.017983 73.505954 L1002.445222 42.431544 L996.751166 82.307451 L1025.751826 86.448583 L1022.645977 108.199078 L993.645317 104.057946 L987.951261 143.933853 L956.876851 102.506613 L954.806285 117.006943 L921.402489 91.892575 L920.108385 100.955281 Z" fill="#888" fill-opacity="0.18" stroke="#000" stroke-width="1"/>
  <path d="M767.579798 1003.473355 L793.856471 963.778430 L798.959366 971.378943 L818.135049 934.246231 L826.299682 946.407053 L836.290153 895.593417 L858.742894 929.035675 L883.064536 912.706409 L895.311486 930.947641 L870.989843 947.276907 L893.442584 980.719166 L842.628948 970.728695 L850.793581 982.889516 L809.165157 986.579970 L814.268053 994.180483 Z" fill="#888" fill-opacity="0.18" stroke="#000" stroke-width="1"/>
  <path d="M155.061827 67.915041 L145.266129 114.500392 L137.721074 109.315849 L133.582023 150.902065 L121.509934 142.606796 L130.951982 193.525190 L97.753739 170.713199 L81.163201 194.857376 L63.055068 182.414472 L79.645607 158.270296 L46.447364 135.458305 L97.365758 126.016257 L85.293669 117.720988 L122.630964 98.946763 L115.085909 93.762219 Z" fill="#888" fill-opacity="0.18" stroke="#000" stroke-width="1"/>
  <path d="M720.795832 457.244497 L739.044702 413.277130 L745.499792 419.768599 L757.264469 379.667009 L767.592613 390.053359 L767.738129 338.267126 L796.140523 366.829588 L816.913223 346.173302 L832.405438 361.752827 L811.632738 382.409113 L840.035132 410.971575 L788.248899 410.826059 L798.577042 421.212409 L758.409971 432.751536 L764.865060 439.243005 Z" fill="#888" fill-opacity="0.18" stroke="#000" stroke-width="1"/>
  <path d="M846.240144 868.345141 L892.275182 856.223843 L891.021934 865.292289 L930.052865 850.354703 L928.047667 864.864217 L969.334447 833.603428 L963.820152 873.504591 L992.839179 877.514987 L989.831382 899.279257 L960.812355 895.268861 L955.298060 935.170024 L924.037271 893.883244 L922.032073 908.392758 L888.515436 883.429181 L887.262187 892.497627 Z" fill="#888" fill-opacity="0.18" stroke="#000" stroke-width="1"/>
  <path d="M615.772329 794.086838 L582.850913 759.701797 L591.389783 756.401031 L559.401206 729.507239 L573.063397 724.226013 L525.704856 703.273599 L563.275881 688.750229 L552.713430 661.425847 L573.206717 653.504009 L583.769168 680.828391 L621.340193 666.305021 L600.387780 713.663562 L614.049971 708.382337 L608.467522 749.799499 L617.006391 746.498733 Z" fill="#888" fill-opacity="0.18" stroke="#000" stroke-width="1"/>
  <path d="M810.403124 614.167186 L813.952154 566.695562 L822.116567 570.836783 L820.719739 529.068446 L833.782800 535.694398 L817.690029 486.471865 L853.613446 504.693233 L866.865351 478.567111 L886.459943 488.506040 L873.208038 514.632162 L909.131456 532.853531 L859.908922 548.946303 L872.971983 555.572255 L838.445394 579.119223 L846.609807 583.260443 Z" fill="#888" fill-opacity="0.18" stroke="#000" stroke-width="1"/>
  <path d="M513.418728 892.105403 L509.380565 844.672884 L518.099219 847.464373 L510.084134 806.448479 L524.033981 810.914861 L500.325318 764.874288 L538.687398 777.156838 L547.620162 749.257144 L568.544933 755.956716 L559.612169 783.856411 L597.974249 796.138961 L551.933676 819.847625 L565.883523 824.314007 L535.536529 853.047350 L544.255183 855.838839 Z" fill="#888" fill-opacity="0.18" stroke="#000" stroke-width="1"/>
  <path d="M448.117240 396.711166 L452.007989 349.266328 L460.142373 353.466227 L459.046326 311.688915 L472.061340 318.408754 L456.323403 269.071623 L492.114690 287.551180 L505.554367 261.521153 L525.076887 271.600911 L511.637210 297.630938 L547.428497 316.110495 L498.091366 331.848431 L511.106380 338.568270 L476.411139 361.866025 L484.545523 366.065925 Z" fill="#888" fill-opacity="0.18" stroke="#000" stroke-width="1"/>
  <path d="M382.988978 43.187794 L362.518911 86.166010 L356.403701 79.353408 L342.606758 118.801975 L332.822420 107.901813 L330.032857 159.613063 L303.125929 129.637615 L281.325603 149.206290 L266.649097 132.856046 L288.449423 113.287371 L261.542495 83.311924 L313.253745 86.101487 L303.469408 75.201324 L344.173279 65.728204 L338.058068 58.915603 Z" fill="#888" fill-opacity="0.18" stroke="#000" stroke-width="1"/>
  <path d="M923.947205 830.590764 L900.685958 789.056862 L909.779347 787.999681 L885.545167 753.951926 L900.094588 752.260436 L859.492309 720.115607 L899.503219 715.464009 L896.120238 686.365166 L917.944371 683.827931 L921.327351 712.926774 L961.338260 708.275176 L929.193432 748.877456 L943.742853 747.185966 L927.966124 785.885318 L937.059512 784.828137 Z" fill="#888" fill-opacity="0.18" stroke="#000" stroke-width="1"/>
  <path d="M248.021363 742.401906 L224.923273 700.777047 L234.020740 699.755556 L209.920348 665.612969 L224.476295 663.978584 L184.000464 631.674681 L224.029318 627.180120 L220.760547 598.068226 L242.594467 595.616648 L245.863238 624.728542 L285.892092 620.233981 L253.588189 660.709812 L268.144136 659.075427 L252.215673 697.712574 L261.313140 696.691083 Z" fill="#888" fill-opacity="0.18" stroke="#000" stroke-width="1"/>
  <path d="M508.201657 180.386070 L548.673077 155.321857 L550.128898 164.359994 L583.078643 138.652810 L585.407956 153.113830 L615.737225 111.137997 L622.142835 150.905803 L651.064876 146.247178 L654.558845 167.938709 L625.636804 172.597334 L632.042414 212.365140 L590.066581 182.035871 L592.395894 196.496891 L553.040538 182.436270 L554.496359 191.474407 Z" fill="#888" fill-opacity="0.18" stroke="#000" stroke-width="1"/>
  <path d="M535.639250 356.800339 L574.050856 328.680965 L576.201366 337.579429 L607.064099 309.400770 L610.504914 323.638312 L637.496730 279.442419 L646.958973 318.595659 L675.434056 311.714028 L680.595280 333.070340 L652.120196 339.951971 L661.582439 379.105211 L617.386545 352.113395 L620.827361 366.350937 L580.502385 355.376356 L582.652895 364.274820 Z" fill="#888" fill-opacity="0.18" stroke="#000" stroke-width="1"/>
  <path d="M635.285906 644.878601 L660.211526 604.321676 L665.567369 611.746115 L683.482269 573.988977 L692.051618 585.868079 L700.326000 534.746951 L723.891710 567.414482 L747.649914 550.275783 L760.503938 568.094436 L736.745734 585.233135 L760.311444 617.900665 L709.190316 609.626283 L717.759665 621.505385 L676.279055 626.594992 L681.634898 634.019431 Z" fill="#888" fill-opacity="0.18" stroke="#000" stroke-width="1"/>
  <path d="M805.577144 1039.021204 L757.980681 1039.874048 L761.349737 1031.361892 L719.889188 1036.612412 L725.279677 1022.992962 L677.754827 1043.565364 L692.578674 1006.111875 L665.339773 995.330896 L673.425507 974.901721 L700.664408 985.682700 L715.488254 948.229211 L736.060656 995.754061 L741.451146 982.134611 L768.087849 1014.337579 L771.456905 1005.825422 Z" fill="#888" fill-opacity="0.18" stroke="#000" stroke-width="1"/>
  <path d="M354.365979 1039.373015 L388.481615 1006.172503 L391.851851 1014.684192 L418.484089 982.477531 L423.876467 996.096234 L444.442279 948.568532 L459.271318 986.019965 L486.508724 975.235209 L494.597291 995.663263 L467.359885 1006.448019 L482.188924 1043.899452 L434.661223 1023.333640 L440.053600 1036.952342 L398.592324 1031.707571 L401.962560 1040.219260 Z" fill="#888" fill-opacity="0.18" stroke="#000" stroke-width="1"/>
  <path d="M689.236137 847.361691 L736.689983 843.582390 L733.850965 852.285683 L774.909980 844.494509 L770.367551 858.419779 L816.536799 834.962676 L804.045119 873.257169 L831.895660 882.342027 L825.082016 903.229932 L797.231476 894.145074 L784.739797 932.439567 L761.282694 886.270319 L756.740265 900.195590 L728.172929 869.692271 L725.333911 878.395565 Z" fill="#888" fill-opacity="0.18" stroke="#000" stroke-width="1"/>
  <path d="M394.507497 428.022288 L433.585824 455.207487 L425.869640 460.133729 L462.550210 480.160733 L450.204316 488.042719 L500.774017 499.202488 L466.822808 520.877951 L482.586781 545.569739 L464.067940 557.392718 L448.303967 532.700930 L414.352759 554.376393 L425.512528 503.806692 L413.166634 511.688678 L410.437273 469.986212 L402.721089 474.912453 Z" fill="#888" fill-opacity="0.18" stroke="#000" stroke-width="1"/>
  <path d="M418.861328 597.082360 L372.860374 609.332376 L374.088253 600.260460 L335.099256 615.307163 L337.063861 600.792097 L295.864684 632.168248 L301.267348 592.251817 L272.237217 588.322607 L275.184125 566.550008 L304.214256 570.479219 L309.616921 530.562788 L340.993072 571.761965 L342.957677 557.246900 L376.544009 582.116628 L377.771888 573.044712 Z" fill="#888" fill-opacity="0.18" stroke="#000" stroke-width="1"/>
  <path d="M163.303612 183.354423 L171.423237 136.447895 L179.149276 141.358666 L181.795077 99.650815 L194.156738 107.508049 L182.895669 56.960810 L216.890239 78.568204 L232.604707 53.844880 L251.147200 65.630732 L235.432731 90.354055 L269.427301 111.961449 L218.880062 123.222518 L231.241723 131.079752 L194.601353 151.180209 L202.327392 156.090980 Z" fill="#888" fill-opacity="0.18" stroke="#000" stroke-width="1"/>
  <path d="M287.703543 623.994765 L313.061234 664.282953 L304.033916 665.804423 L329.979895 698.566463 L315.536185 701.000815 L357.731338 731.024209 L318.011137 737.718676 L322.879840 766.606095 L301.214276 770.257622 L296.345573 741.370203 L256.625372 748.064670 L286.648767 705.869518 L272.205057 708.303869 L285.979279 668.847362 L276.951961 670.368832 Z" fill="#888" fill-opacity="0.18" stroke="#000" stroke-width="1"/>
  <path d="M944.865888 120.488156 L984.121630 147.416530 L976.437914 152.393261 L1013.249015 172.179316 L1000.955069 180.142086 L1051.596859 190.970025 L1017.788509 212.867643 L1033.714049 237.455534 L1015.273131 249.399689 L999.347590 224.811798 L965.539240 246.709416 L976.367178 196.067626 L964.073233 204.030397 L961.070482 162.346724 L953.386766 167.323455 Z" fill="#888" fill-opacity="0.18" stroke="#000" stroke-width="1"/>
  <path d="M546.083427 101.825614 L523.208539 143.573550 L517.489592 136.425053 L501.477290 175.027531 L492.326976 163.589937 L486.608777 215.059708 L461.445412 183.606325 L438.570225 201.906953 L424.844753 184.750563 L447.719941 166.449934 L422.556576 134.996551 L474.026347 140.714749 L464.876032 129.277155 L506.051699 122.128061 L500.332753 114.979565 Z" fill="#888" fill-opacity="0.18" stroke="#000" stroke-width="1"/>
  <path d="M1055.091588 400.287628 L1051.110374 447.724961 L1042.984014 443.509558 L1044.000395 485.288884 L1030.998219 478.544239 L1046.642048 527.911290 L1010.886064 509.363518 L997.396775 535.367870 L977.893511 525.250903 L991.382800 499.246551 L955.626816 480.698779 L1004.993867 465.054950 L991.991691 458.310306 L1026.731295 435.078752 L1018.604935 430.863350 Z" fill="#888" fill-opacity="0.18" stroke="#000" stroke-width="1"/>
</svg>
