<?xml version="1.0" encoding="UTF-8"?>
<svg xmlns="http://www.w3.org/2000/svg" width="1100" height="1100" viewBox="0 0 1100 1100">
  <rect x="0" y="0" width="1100" height="1100" fill="white"/>
  <text x="10.0" y="18.0" font-family="monospace" font-size="12">prefix=N80_job5048481_task80 run_id=80 L=7.45094226082 feas=0.000e+00 N=80</text>
  <rect x="40.000000" y="40.000000" width="1020.000000" height="1020.000000" fill="none" stroke="#000" stroke-width="2"/>
  <path d="M211.287069 769.114131 L229.603951 728.568571 L235.446589 734.819020 L247.594584 697.697480 L256.942804 707.698200 L258.574052 659.325851 L284.281658 686.827829 L304.283096 668.131388 L318.305426 683.132467 L298.303988 701.828907 L324.011594 729.330885 L275.639245 727.699638 L284.987465 737.700357 L247.131864 747.319919 L252.974502 753.570369 Z" fill="#888" fill-opacity="0.18" stroke="#000" stroke-width="1"/>
  <path d="M681.258304 882.190472 L637.462729 874.354773 L642.092999 867.159974 L603.127209 864.467451 L610.535641 852.955773 L563.235364 863.213888 L583.608553 831.556772 L560.585196 816.739908 L571.697844 799.472390 L594.721201 814.289255 L615.094390 782.632139 L625.352505 829.932416 L632.760938 818.420737 L651.353539 852.770376 L655.983809 845.575577 Z" fill="#888" fill-opacity="0.18" stroke="#000" stroke-width="1"/>
  <path d="M1027.186595 358.274080 L1002.057909 394.989196 L997.399064 387.812868 L978.943210 422.236173 L971.489057 410.754047 L961.419125 458.094744 L940.920204 426.518898 L917.955953 441.427204 L906.774723 424.204016 L929.738975 409.295710 L909.240054 377.719864 L956.580751 387.789796 L949.126598 376.307670 L988.081373 373.460210 L983.422527 366.283882 Z" fill="#888" fill-opacity="0.18" stroke="#000" stroke-width="1"/>
  <path d="M747.441907 569.187871 L761.211303 611.494541 L752.682797 610.809621 L768.705831 646.430470 L755.060221 645.334598 L786.434566 682.188303 L748.909139 679.174655 L746.717395 706.465875 L726.248980 704.822067 L728.440724 677.530847 L690.915296 674.517199 L727.769001 643.142854 L714.123391 642.046982 L735.625785 609.439781 L727.097278 608.754861 Z" fill="#888" fill-opacity="0.18" stroke="#000" stroke-width="1"/>
  <path d="M525.811706 636.020025 L511.509933 678.149705 L505.089115 672.494828 L496.595408 710.618829 L486.322099 701.571026 L489.385865 749.873805 L461.134265 724.992347 L443.038660 745.538965 L427.628697 731.967261 L445.724302 711.420643 L417.472703 686.539186 L465.775482 683.475421 L455.502173 674.427618 L492.247479 661.185075 L485.826661 655.530198 Z" fill="#888" fill-opacity="0.18" stroke="#000" stroke-width="1"/>
  <path d="M355.107643 568.413765 L387.329161 537.734385 L390.391956 545.723366 L415.609731 515.896425 L420.510203 528.678795 L440.214946 484.471689 L453.691246 519.623205 L479.255985 509.822260 L486.606694 528.995814 L461.041955 538.796760 L474.518255 573.948277 L430.311149 554.243534 L435.211622 567.025904 L396.517547 561.701328 L399.580343 569.690309 Z" fill="#888" fill-opacity="0.18" stroke="#000" stroke-width="1"/>
  <path d="M183.610745 1057.365216 L199.221216 1015.702717 L205.462305 1021.555352 L215.142451 983.715198 L225.128193 993.079414 L223.574378 944.704516 L251.035170 970.456112 L269.763603 950.484627 L284.742217 964.530952 L266.013784 984.502437 L293.474576 1010.254032 L245.099678 1011.807848 L255.085421 1021.172064 L217.944484 1033.260623 L224.185573 1039.113258 Z" fill="#888" fill-opacity="0.18" stroke="#000" stroke-width="1"/>
  <path d="M302.216739 867.228857 L284.453129 826.437868 L293.008009 826.301649 L273.642397 792.381809 L287.330206 792.163859 L252.565809 758.489212 L290.207283 757.889850 L289.771383 730.514233 L310.303096 730.187308 L310.738996 757.562925 L348.380470 756.963563 L314.705823 791.727959 L328.393632 791.510009 L310.117770 826.029212 L318.672650 825.892993 Z" fill="#888" fill-opacity="0.18" stroke="#000" stroke-width="1"/>
  <path d="M769.721768 719.233372 L758.676751 762.331611 L751.843115 757.183218 L746.283540 795.844227 L735.349723 787.606797 L742.090692 835.534914 L712.022695 812.881983 L695.547835 834.749618 L679.147109 822.393473 L695.621969 800.525839 L665.553971 777.872907 L713.482088 771.131938 L702.548271 762.894508 L738.175844 746.886431 L731.342208 741.738037 Z" fill="#888" fill-opacity="0.18" stroke="#000" stroke-width="1"/>
  <path d="M902.424742 781.872154 L875.164416 817.033570 L870.939041 809.593763 L850.475635 842.862840 L843.715035 830.959148 L830.857305 877.619880 L812.265654 844.884726 L788.458269 858.405927 L778.317369 840.550388 L802.124753 827.029187 L783.533103 794.294033 L830.193834 807.151763 L823.433234 795.248071 L862.488290 794.714147 L858.262915 787.274340 Z" fill="#888" fill-opacity="0.18" stroke="#000" stroke-width="1"/>
  <path d="M571.566927 46.760795 L542.823544 80.720602 L538.921165 73.106406 L517.049614 105.467150 L510.805809 93.284437 L495.958539 139.350733 L478.788074 105.848272 L454.422648 118.335882 L445.056940 100.061812 L469.422366 87.574202 L452.251902 54.071740 L498.318198 68.919010 L492.074393 56.736297 L531.116409 57.878015 L527.214030 50.263819 Z" fill="#888" fill-opacity="0.18" stroke="#000" stroke-width="1"/>
  <path d="M320.684201 907.746477 L345.646255 944.575087 L337.262326 946.282211 L362.535467 976.062253 L349.121181 978.793651 L389.485393 1005.500869 L352.596106 1013.012216 L358.058904 1039.840788 L337.937475 1043.937886 L332.474677 1017.109314 L295.585391 1024.620661 L322.292609 984.256449 L308.878323 986.987848 L320.494469 949.696459 L312.110540 951.403584 Z" fill="#888" fill-opacity="0.18" stroke="#000" stroke-width="1"/>
  <path d="M238.523185 662.343977 L194.153310 659.063002 L198.017527 651.429368 L158.981715 652.766493 L165.164463 640.552680 L119.173060 655.630345 L136.175616 622.042358 L111.747988 609.676863 L121.022110 591.356143 L145.449737 603.721637 L162.452292 570.133650 L177.529958 616.125053 L183.712705 603.911239 L205.745961 636.162101 L209.610178 628.528468 Z" fill="#888" fill-opacity="0.18" stroke="#000" stroke-width="1"/>
  <path d="M487.264544 830.461120 L472.742930 872.515530 L466.351734 866.827195 L457.659027 904.906315 L447.433114 895.804979 L450.244559 944.123101 L422.123297 919.094429 L403.920627 939.546256 L388.581757 925.894253 L406.784427 905.442426 L378.663165 880.413754 L426.981287 877.602309 L416.755373 868.500974 L453.569342 855.450526 L447.178147 849.762192 Z" fill="#888" fill-opacity="0.18" stroke="#000" stroke-width="1"/>
  <path d="M692.854198 445.609351 L736.892752 439.280338 L734.758956 447.565955 L772.595775 437.872781 L769.181701 451.129768 L810.859353 426.522484 L801.470651 462.979199 L827.984625 469.807346 L822.863515 489.692826 L796.349541 482.864679 L786.960839 519.321394 L762.353554 477.643743 L758.939481 490.900730 L730.491364 464.137189 L728.357568 472.422806 Z" fill="#888" fill-opacity="0.18" stroke="#000" stroke-width="1"/>
  <path d="M187.526639 490.591445 L225.550858 513.691431 L218.637827 518.732714 L254.011626 535.294018 L242.950776 543.360070 L290.768032 550.847066 L260.350693 573.028709 L276.482798 595.150410 L259.891522 607.249488 L243.759418 585.127787 L213.342079 607.309431 L220.829075 559.492174 L209.768225 567.558227 L204.811764 528.815279 L197.898732 533.856561 Z" fill="#888" fill-opacity="0.18" stroke="#000" stroke-width="1"/>
  <path d="M502.012568 336.323488 L513.191932 379.387074 L504.720633 378.186400 L518.554796 414.713081 L505.000717 412.792002 L534.083219 451.479897 L496.809501 446.196931 L492.967344 473.305090 L472.636225 470.423472 L476.478382 443.315314 L439.204664 438.032348 L477.892558 408.949846 L464.338479 407.028767 L487.778034 375.785052 L479.306734 374.584378 Z" fill="#888" fill-opacity="0.18" stroke="#000" stroke-width="1"/>
  <path d="M991.963538 60.317170 L965.675487 96.211307 L961.248130 88.889897 L941.702679 122.706429 L934.618906 110.992174 L923.042699 157.987243 L903.562325 125.773041 L880.133814 139.940586 L869.508156 122.369203 L892.936666 108.201658 L873.456292 75.987456 L920.451361 87.563663 L913.367589 75.849408 L952.393414 74.247078 L947.966057 66.925668 Z" fill="#888" fill-opacity="0.18" stroke="#000" stroke-width="1"/>
  <path d="M793.228347 959.989946 L761.118824 990.786522 L758.026941 982.808753 L732.918009 1012.727377 L727.970996 999.962947 L708.427454 1044.241554 L694.823168 1009.139372 L669.294308 1019.033398 L661.873789 999.886753 L687.402648 989.992727 L673.798363 954.890545 L718.076970 974.434087 L713.129957 961.669657 L751.843175 966.853216 L748.751292 958.875447 Z" fill="#888" fill-opacity="0.18" stroke="#000" stroke-width="1"/>
  <path d="M907.282289 979.067251 L894.464565 936.462596 L902.975578 937.338493 L887.754935 901.367469 L901.372556 902.768903 L870.832090 865.221267 L908.280546 869.075210 L911.083415 841.839969 L931.509845 843.942121 L928.706977 871.177362 L966.155434 875.031306 L928.607797 905.571772 L942.225418 906.973206 L919.997604 939.090285 L928.508617 939.966182 Z" fill="#888" fill-opacity="0.18" stroke="#000" stroke-width="1"/>
  <path d="M170.137382 233.997681 L197.253064 198.724597 L201.508960 206.146988 L221.835550 172.794143 L228.644984 184.669968 L241.310961 137.956821 L260.036905 170.615339 L283.788554 156.996471 L294.002706 174.810208 L270.251056 188.429076 L288.977000 221.087594 L242.263853 208.421618 L249.073287 220.297443 L210.020753 220.991769 L214.276649 228.414159 Z" fill="#888" fill-opacity="0.18" stroke="#000" stroke-width="1"/>
  <path d="M824.795003 361.509364 L782.584594 347.447646 L788.202828 340.994742 L750.031095 332.718192 L759.020271 322.393545 L710.735715 325.732223 L735.455948 297.339445 L714.806654 279.361094 L728.290417 263.874124 L748.939711 281.852475 L773.659944 253.459696 L776.998622 301.744252 L785.987797 291.419605 L799.439298 328.088933 L805.057532 321.636029 Z" fill="#888" fill-opacity="0.18" stroke="#000" stroke-width="1"/>
  <path d="M896.240846 703.454374 L939.824448 694.514560 L938.187758 702.912523 L975.380327 690.983764 L972.761623 704.420504 L1012.900234 677.375412 L1005.698799 714.326449 L1032.572280 719.563856 L1028.644225 739.718967 L1001.770743 734.481560 L994.569308 771.432596 L967.524216 731.293985 L964.905512 744.730726 L934.914378 719.708448 L933.277688 728.106411 Z" fill="#888" fill-opacity="0.18" stroke="#000" stroke-width="1"/>
  <path d="M772.989609 382.579884 L738.475232 410.654933 L736.044334 402.451564 L708.578832 430.222569 L704.689395 417.097178 L681.599511 459.634248 L670.903559 423.539423 L644.652777 431.318297 L638.818621 411.630211 L665.069403 403.851337 L654.373452 367.756511 L696.910521 390.846396 L693.021084 377.721005 L731.182538 386.044825 L728.751640 377.841456 Z" fill="#888" fill-opacity="0.18" stroke="#000" stroke-width="1"/>
  <path d="M764.893224 610.764503 L809.228958 614.478432 L805.290410 622.073982 L844.337414 621.117963 L838.035738 633.270843 L884.172128 618.642834 L866.842518 652.063254 L891.148278 664.666606 L881.695763 682.895926 L857.390004 670.292573 L840.060394 703.712992 L825.432386 657.576602 L819.130709 669.729482 L797.413315 637.265082 L793.474767 644.860632 Z" fill="#888" fill-opacity="0.18" stroke="#000" stroke-width="1"/>
  <path d="M178.778036 411.036645 L216.067613 386.768599 L217.617446 395.183024 L247.865516 370.471959 L250.345248 383.935040 L277.803620 344.078009 L284.622882 381.101480 L311.549043 376.142017 L315.268641 396.336638 L288.342480 401.296101 L295.161742 438.319573 L255.304711 410.861201 L257.784443 424.324281 L220.717110 412.011875 L222.266943 420.426300 Z" fill="#888" fill-opacity="0.18" stroke="#000" stroke-width="1"/>
  <path d="M136.430896 269.685331 L143.639955 313.588407 L135.313295 311.620853 L145.761729 349.256112 L132.439073 346.108025 L157.875495 387.284882 L121.238192 378.627643 L114.942018 405.272954 L94.958034 400.550824 L101.254208 373.905512 L64.616905 365.248273 L105.793762 339.811851 L92.471106 336.663764 L118.659975 307.685744 L110.333315 305.718190 Z" fill="#888" fill-opacity="0.18" stroke="#000" stroke-width="1"/>
  <path d="M635.362015 893.658993 L642.437134 937.583853 L634.116514 935.590911 L644.450111 973.257863 L631.137119 970.069156 L656.447831 1011.323403 L619.837103 1002.554459 L613.459689 1029.180443 L593.490201 1024.397383 L599.867615 997.771399 L563.256887 989.002455 L604.511135 963.691742 L591.198143 960.503035 L617.475274 931.605027 L609.154654 929.612085 Z" fill="#888" fill-opacity="0.18" stroke="#000" stroke-width="1"/>
  <path d="M145.706012 74.323717 L171.636407 110.477074 L163.300722 112.406038 L189.355083 141.505055 L176.017988 144.591397 L217.076580 170.218279 L180.399569 178.705720 L186.572253 205.379910 L166.566610 210.009423 L160.393927 183.335233 L123.716916 191.822673 L149.343798 150.764081 L136.006703 153.850423 L146.629354 116.263965 L138.293669 118.192929 Z" fill="#888" fill-opacity="0.18" stroke="#000" stroke-width="1"/>
  <path d="M691.178240 133.136149 L646.952936 137.991361 L649.362166 129.781602 L611.222823 138.206151 L615.077592 125.070536 L572.601634 148.272651 L583.202248 112.149711 L556.931019 104.440174 L562.713172 84.736752 L588.984401 92.446289 L599.585014 56.323350 L622.787129 98.799307 L626.641898 85.663693 L654.180627 113.362084 L656.589857 105.152325 Z" fill="#888" fill-opacity="0.18" stroke="#000" stroke-width="1"/>
  <path d="M936.155966 377.489409 L951.100509 335.583428 L957.434075 341.335860 L966.509959 303.346245 L976.643665 312.550137 L974.319130 264.206144 L1002.186820 289.516846 L1020.594603 269.249435 L1035.795161 283.055272 L1017.387378 303.322683 L1045.255068 328.633385 L996.911076 330.957920 L1007.044781 340.161812 L970.101207 352.840725 L976.434773 358.593157 Z" fill="#888" fill-opacity="0.18" stroke="#000" stroke-width="1"/>
  <path d="M93.079044 654.833815 L136.836022 662.882265 L132.170840 670.054476 L171.123085 672.936338 L163.658794 684.411876 L211.008366 674.383758 L190.481566 705.941488 L213.432642 720.870069 L202.236206 738.083376 L179.285130 723.154795 L158.758331 754.712524 L148.730213 707.362952 L141.265922 718.838490 L122.840477 684.398899 L118.175295 691.571110 Z" fill="#888" fill-opacity="0.18" stroke="#000" stroke-width="1"/>
  <path d="M945.048738 320.190642 L918.300777 355.743380 L913.968039 348.365581 L893.988865 381.927689 L887.056485 370.123210 L874.876238 416.965357 L855.812193 384.503040 L832.203236 398.367800 L821.804666 380.661082 L845.413623 366.796322 L826.349579 334.334006 L873.191725 346.514253 L866.259345 334.709774 L905.302564 333.609983 L900.969827 326.232184 Z" fill="#888" fill-opacity="0.18" stroke="#000" stroke-width="1"/>
  <path d="M903.574079 190.485258 L893.319036 233.778268 L886.392396 228.755700 L881.540735 267.511911 L870.458110 259.475803 L878.074403 307.272635 L847.597184 285.173338 L831.524968 307.338588 L814.901030 295.284426 L830.973246 273.119176 L800.496028 251.019879 L848.292860 243.403587 L837.210235 235.367479 L872.539115 218.710565 L865.612474 213.687998 Z" fill="#888" fill-opacity="0.18" stroke="#000" stroke-width="1"/>
  <path d="M1055.203354 672.414549 L1010.716334 673.010950 L1013.900924 665.069733 L975.129960 669.802049 L980.225304 657.096103 L935.722077 676.122609 L949.734274 641.181256 L924.322381 630.990568 L931.965397 611.931648 L957.377290 622.122336 L971.389486 587.180983 L990.415992 631.684210 L995.511336 618.978263 L1020.270104 649.187300 L1023.454694 641.246083 Z" fill="#888" fill-opacity="0.18" stroke="#000" stroke-width="1"/>
  <path d="M550.689048 619.219192 L580.908244 651.872689 L572.876617 654.821843 L602.342815 680.460208 L589.492213 685.178855 L633.415337 705.508741 L598.076182 718.485022 L607.513477 744.186226 L588.237574 751.264198 L578.800279 725.562994 L543.461123 738.539275 L563.791009 694.616151 L550.940407 699.334799 L556.813365 660.720153 L548.781739 663.669308 Z" fill="#888" fill-opacity="0.18" stroke="#000" stroke-width="1"/>
  <path d="M832.659135 411.442313 L872.440018 431.365463 L865.960992 436.953552 L902.567209 450.575863 L892.200766 459.516806 L940.469232 463.080555 L911.961514 487.668149 L929.843400 508.401035 L914.293736 521.812450 L896.411849 501.079564 L867.904131 525.667158 L871.467880 477.398693 L861.101437 486.339636 L853.002938 448.129731 L846.523911 453.717821 Z" fill="#888" fill-opacity="0.18" stroke="#000" stroke-width="1"/>
  <path d="M496.779249 168.246954 L540.012213 157.741646 L538.679356 166.193156 L575.417682 152.931261 L573.285111 166.453678 L612.422580 137.979064 L606.558010 175.165709 L633.602843 179.430851 L630.403987 199.714476 L603.359153 195.449334 L597.494583 232.635979 L569.019969 193.498511 L566.887398 207.020927 L536.013642 183.096177 L534.680785 191.547687 Z" fill="#888" fill-opacity="0.18" stroke="#000" stroke-width="1"/>
  <path d="M182.163955 1018.866172 L152.710527 985.520315 L160.808417 982.758306 L131.945019 956.443164 L144.901644 952.023948 L101.462042 930.680423 L137.092761 918.527581 L128.254330 892.614330 L147.689268 885.985506 L156.527699 911.898757 L192.158419 899.745914 L170.814895 943.185517 L183.771520 938.766301 L177.004199 977.234286 L185.102090 974.472276 Z" fill="#888" fill-opacity="0.18" stroke="#000" stroke-width="1"/>
  <path d="M67.983912 662.697823 L63.578650 618.425435 L71.763487 620.918021 L63.727190 582.694986 L76.822928 586.683123 L54.053925 543.973434 L90.067206 554.940811 L98.043481 528.749334 L117.687089 534.731540 L109.710814 560.923017 L145.724095 571.890395 L103.014406 594.659398 L116.110144 598.647535 L88.133160 625.903193 L96.317997 628.395779 Z" fill="#888" fill-opacity="0.18" stroke="#000" stroke-width="1"/>
  <path d="M566.800773 503.396964 L604.279391 479.421897 L605.763233 487.848210 L636.204032 463.374955 L638.578179 476.857056 L666.348063 437.216437 L672.876967 474.292214 L699.841168 469.543920 L703.402388 489.767071 L676.438187 494.515364 L682.967091 531.591141 L643.326473 503.821257 L645.700620 517.303357 L608.730916 504.700836 L610.214758 513.127149 Z" fill="#888" fill-opacity="0.18" stroke="#000" stroke-width="1"/>
  <path d="M299.670411 154.299187 L319.270790 114.358284 L324.911159 120.791850 L338.236611 84.076529 L347.261202 94.370235 L350.433990 46.074494 L375.251613 74.382185 L395.839025 56.333004 L409.375910 71.773563 L388.788499 89.822743 L413.606122 118.130434 L365.310382 114.957646 L374.334973 125.251352 L336.191897 133.658982 L341.832266 140.092548 Z" fill="#888" fill-opacity="0.18" stroke="#000" stroke-width="1"/>
  <path d="M182.116418 80.139420 L224.887216 67.887505 L223.898592 76.386161 L260.068190 61.643616 L258.486391 75.241466 L296.435514 45.201339 L292.085566 82.595426 L319.281265 85.759025 L316.908567 106.155799 L289.712867 102.992201 L285.362919 140.386288 L255.322793 102.437165 L253.740993 116.035015 L221.921343 93.383473 L220.932718 101.882130 Z" fill="#888" fill-opacity="0.18" stroke="#000" stroke-width="1"/>
  <path d="M562.629733 324.953442 L601.282909 302.922042 L602.334846 311.413094 L633.984793 288.525032 L635.667892 302.110715 L665.424353 263.938761 L670.052874 301.299389 L697.224241 297.933192 L699.748889 318.311717 L672.577522 321.677914 L677.206044 359.038543 L639.034089 329.282082 L640.717188 342.867765 L604.438719 328.395197 L605.490656 336.886249 Z" fill="#888" fill-opacity="0.18" stroke="#000" stroke-width="1"/>
  <path d="M965.930531 453.256158 L999.650430 482.280614 L992.004084 486.119615 L1024.182051 508.259194 L1011.947898 514.401597 L1057.889286 529.630973 L1024.245366 546.522580 L1036.530171 570.990886 L1018.178941 580.204490 L1005.894136 555.736184 L972.250215 572.627790 L987.479592 526.686402 L975.245439 532.828804 L976.711393 493.797618 L969.065047 497.636620 Z" fill="#888" fill-opacity="0.18" stroke="#000" stroke-width="1"/>
  <path d="M139.298874 246.952772 L183.646750 243.386758 L180.999602 251.522921 L219.367978 244.211956 L215.132541 257.229816 L258.265784 235.273759 L246.618332 271.072874 L272.654052 279.543748 L266.300896 299.070538 L240.265176 290.599664 L228.617724 326.398779 L206.661667 283.265536 L202.426230 296.283396 L175.705306 267.795246 L173.058157 275.931408 Z" fill="#888" fill-opacity="0.18" stroke="#000" stroke-width="1"/>
  <path d="M742.333478 896.302730 L786.119770 888.415319 L784.281271 896.771421 L821.750381 885.741990 L818.808782 899.111755 L859.587190 873.041338 L851.497795 909.808191 L878.237324 915.691388 L873.824927 935.746035 L847.085398 929.862838 L838.996003 966.629691 L812.925586 925.851284 L809.983988 939.221049 L780.604274 913.483627 L778.765775 921.839730 Z" fill="#888" fill-opacity="0.18" stroke="#000" stroke-width="1"/>
  <path d="M660.594424 398.005122 L622.401113 420.824447 L621.175294 412.356749 L590.001305 435.888959 L588.039995 422.340643 L559.072480 461.114709 L553.678877 423.856839 L526.582245 427.779459 L523.640280 407.456985 L550.736912 403.534365 L545.343309 366.276495 L584.117375 395.244011 L582.156065 381.695695 L618.723656 395.421354 L617.497838 386.953656 Z" fill="#888" fill-opacity="0.18" stroke="#000" stroke-width="1"/>
  <path d="M188.884593 918.290058 L223.992175 890.960434 L226.246872 899.213971 L254.300685 872.037399 L257.908201 885.243058 L281.903558 843.210119 L291.824228 879.525681 L318.235547 872.310648 L323.646821 892.119137 L297.235503 899.334170 L307.156174 935.649733 L265.123234 911.654376 L268.730751 924.860035 L230.756268 915.721045 L233.010966 923.974582 Z" fill="#888" fill-opacity="0.18" stroke="#000" stroke-width="1"/>
  <path d="M1009.531639 1040.656232 L981.872331 1005.807799 L990.104251 1003.475409 L962.664471 975.678989 L975.835541 971.947166 L933.578307 948.349047 L969.798751 938.086534 L962.335105 911.744392 L982.091711 906.146658 L989.555358 932.488799 L1025.775802 922.226286 L1002.177683 964.483520 L1015.348754 960.751697 L1006.568089 998.810631 L1014.800008 996.478241 Z" fill="#888" fill-opacity="0.18" stroke="#000" stroke-width="1"/>
  <path d="M403.462789 347.732874 L403.251375 392.223389 L395.369288 388.895142 L399.396890 427.745636 L386.785550 422.420440 L405.000909 467.261780 L370.319724 452.617491 L359.669332 477.840170 L340.752322 469.852376 L351.402715 444.629696 L316.721530 429.985407 L361.562870 411.770048 L348.951530 406.444852 L379.605113 382.238647 L371.723025 378.910399 Z" fill="#888" fill-opacity="0.18" stroke="#000" stroke-width="1"/>
  <path d="M851.507209 464.450652 L849.847836 508.910714 L842.078252 505.327685 L844.839220 544.288685 L832.407885 538.555838 L849.154104 583.966292 L814.967935 568.200963 L803.502241 593.063631 L784.855239 584.464361 L796.320933 559.601692 L762.134764 543.836363 L807.545217 527.090145 L795.113882 521.357298 L826.539084 498.161626 L818.769500 494.578597 Z" fill="#888" fill-opacity="0.18" stroke="#000" stroke-width="1"/>
  <path d="M778.566146 942.798538 L734.078673 943.360077 L737.269485 935.421358 L698.494824 940.123290 L703.600124 927.421341 L659.082001 946.412966 L673.121574 911.482604 L647.717675 901.272005 L655.375624 882.219081 L680.779524 892.429680 L694.819097 857.499318 L713.810723 902.017441 L718.916022 889.315492 L743.651109 919.543921 L746.841922 911.605203 Z" fill="#888" fill-opacity="0.18" stroke="#000" stroke-width="1"/>
  <path d="M477.261226 935.174559 L460.161199 976.248148 L454.134824 970.174653 L443.098869 1007.641841 L433.456669 997.924249 L433.268188 1046.323728 L406.752139 1019.600350 L387.316955 1038.884749 L372.853656 1024.308361 L392.288840 1005.023962 L365.772791 978.300584 L414.172270 978.489065 L404.530070 968.771473 L442.082075 958.027663 L436.055700 951.954168 Z" fill="#888" fill-opacity="0.18" stroke="#000" stroke-width="1"/>
  <path d="M232.738336 421.981171 L276.267311 431.183289 L271.414200 438.229696 L310.276671 442.140045 L302.511694 453.414296 L350.109765 444.641112 L328.756076 475.645302 L351.304578 491.175257 L339.657112 508.086633 L317.108610 492.556678 L295.754922 523.560868 L286.981739 475.962797 L279.216761 487.237048 L261.707978 452.322510 L256.854867 459.368917 Z" fill="#888" fill-opacity="0.18" stroke="#000" stroke-width="1"/>
  <path d="M489.835887 300.984331 L467.595519 262.451013 L476.080750 261.353116 L453.021653 229.827562 L466.598024 228.070927 L428.265510 198.521588 L465.600530 193.690842 L462.087260 166.538100 L482.451816 163.903148 L485.965086 191.055889 L523.300105 186.225143 L493.750766 224.557658 L507.327136 222.801023 L493.051214 259.157322 L501.536446 258.059426 Z" fill="#888" fill-opacity="0.18" stroke="#000" stroke-width="1"/>
  <path d="M527.818495 858.955774 L509.564448 818.381886 L518.117065 818.142550 L498.343964 784.458623 L512.028151 784.075685 L476.860339 750.822563 L514.491853 749.769484 L513.725977 722.401110 L534.252257 721.826703 L535.018133 749.195077 L572.649646 748.141998 L539.396524 783.309809 L553.080711 782.926871 L535.222298 817.663878 L543.774915 817.424542 Z" fill="#888" fill-opacity="0.18" stroke="#000" stroke-width="1"/>
  <path d="M652.563864 266.250547 L612.337828 285.258879 L611.938867 276.712221 L578.629950 297.110716 L577.991611 283.436063 L545.400826 319.218542 L543.645394 281.613246 L516.296089 282.889924 L515.338581 262.377944 L542.687886 261.101267 L540.932455 223.495971 L576.714934 256.086757 L576.076595 242.412104 L611.140943 259.618905 L610.741981 251.072247 Z" fill="#888" fill-opacity="0.18" stroke="#000" stroke-width="1"/>
  <path d="M860.707099 90.960812 L862.978621 135.393804 L854.923096 132.510569 L861.112311 171.075788 L848.223470 166.462611 L868.912631 210.217654 L833.468319 197.531419 L824.241967 223.309100 L804.908706 216.389335 L814.135058 190.611654 L778.690747 177.925419 L822.445789 157.236259 L809.556948 152.623082 L838.812045 126.744098 L830.756520 123.860863 Z" fill="#888" fill-opacity="0.18" stroke="#000" stroke-width="1"/>
  <path d="M596.767516 659.504289 L592.819068 615.188825 L600.977763 617.765688 L593.336085 579.461808 L606.389998 583.584789 L584.062668 540.642555 L619.960928 551.980752 L628.206890 525.872927 L647.787759 532.057398 L639.541797 558.165224 L675.440057 569.503421 L632.497823 591.830751 L645.551736 595.953731 L617.295154 622.919414 L625.453849 625.496277 Z" fill="#888" fill-opacity="0.18" stroke="#000" stroke-width="1"/>
  <path d="M450.585331 578.151627 L428.362909 616.695298 L423.164508 609.899626 L407.418303 645.643710 L399.100861 634.770635 L392.711779 682.746929 L369.838813 652.845972 L348.092663 669.480857 L335.616499 653.171245 L357.362649 636.536360 L334.489683 606.635403 L382.465976 613.024485 L374.148534 602.151410 L412.767705 596.308282 L407.569303 589.512611 Z" fill="#888" fill-opacity="0.18" stroke="#000" stroke-width="1"/>
  <path d="M111.926648 136.132592 L120.109605 179.864615 L111.741276 178.082594 L123.023517 215.476358 L109.634190 212.625124 L135.979423 253.226525 L99.158774 245.385633 L93.456307 272.164287 L73.372316 267.887436 L79.074784 241.108782 L42.254135 233.267890 L82.855536 206.922657 L69.466209 204.071423 L95.004618 174.518552 L86.636288 172.736531 Z" fill="#888" fill-opacity="0.18" stroke="#000" stroke-width="1"/>
  <path d="M108.118552 529.106812 L108.431624 484.616896 L116.306086 487.963145 L112.367265 449.103549 L124.966404 454.457548 L106.853552 409.574704 L141.501185 424.298199 L152.209182 399.099921 L171.107891 407.130919 L160.399894 432.329197 L195.047527 447.052693 L150.164683 465.165545 L162.763822 470.519543 L132.055010 494.655643 L139.929472 498.001892 Z" fill="#888" fill-opacity="0.18" stroke="#000" stroke-width="1"/>
  <path d="M888.908417 935.617441 L878.076781 978.769802 L871.217755 973.655284 L865.849539 1012.343328 L854.875098 1004.160099 L861.853129 1052.054276 L831.673414 1029.550395 L815.306956 1051.499278 L798.845294 1039.224434 L815.211752 1017.275551 L785.032038 994.771671 L832.926215 987.793640 L821.951773 979.610411 L857.499703 963.426247 L850.640677 958.311729 Z" fill="#888" fill-opacity="0.18" stroke="#000" stroke-width="1"/>
  <path d="M433.292985 369.350319 L409.112136 332.004139 L417.530160 330.473972 L392.889840 300.168245 L406.358678 297.719978 L366.565915 270.168551 L403.605220 263.435816 L398.708685 236.498140 L418.911942 232.825739 L423.808477 259.763415 L460.847781 253.030681 L433.296354 292.823443 L446.765192 290.375176 L434.366207 327.413638 L442.784231 325.883471 Z" fill="#888" fill-opacity="0.18" stroke="#000" stroke-width="1"/>
  <path d="M59.583935 670.821343 L86.651913 706.131047 L78.381849 708.324349 L105.349199 736.579341 L92.117096 740.088624 L133.970561 764.395672 L97.582279 774.046201 L104.600845 800.510406 L84.752692 805.774331 L77.734125 779.310126 L41.345843 788.960655 L65.652891 747.107191 L52.420788 750.616474 L61.841721 712.710953 L53.571657 714.904255 Z" fill="#888" fill-opacity="0.18" stroke="#000" stroke-width="1"/>
  <path d="M44.111578 922.701947 L82.368588 945.414318 L75.507145 950.525595 L111.047423 966.726557 L100.069115 974.904598 L147.959989 981.905264 L117.769642 1004.394878 L134.125725 1026.351494 L117.658264 1038.618556 L101.302180 1016.661941 L71.111834 1039.151555 L78.112499 991.260682 L67.134191 999.438723 L61.784260 960.748147 L54.922818 965.859423 Z" fill="#888" fill-opacity="0.18" stroke="#000" stroke-width="1"/>
  <path d="M554.532384 468.292625 L559.845666 512.465237 L551.611379 510.141218 L560.430734 548.191205 L547.255876 544.472775 L570.896946 586.705995 L534.666086 576.480312 L527.229226 602.830029 L507.466939 597.252383 L514.903799 570.902667 L478.672939 560.676984 L520.906160 537.035915 L507.731302 533.317484 L535.142807 505.493181 L526.908521 503.169162 Z" fill="#888" fill-opacity="0.18" stroke="#000" stroke-width="1"/>
  <path d="M473.854191 779.971427 L429.526584 783.781133 L432.128974 775.630544 L393.801360 783.152280 L397.965184 770.111337 L354.953268 792.304133 L366.403784 756.441542 L340.321900 748.113894 L346.567636 728.552480 L372.649520 736.880128 L384.100037 701.017537 L406.292832 744.029453 L410.456656 730.988510 L437.333754 759.329366 L439.936144 751.178777 Z" fill="#888" fill-opacity="0.18" stroke="#000" stroke-width="1"/>
  <path d="M891.379414 678.974112 L877.261088 721.165622 L870.815726 715.538736 L862.487980 753.699333 L852.175401 744.696316 L855.449308 792.985307 L827.089714 768.227011 L809.083680 788.852170 L793.614811 775.347645 L811.620845 754.722486 L783.261251 729.964189 L831.550242 726.690283 L821.237663 717.687266 L857.925001 704.284965 L851.479639 698.658080 Z" fill="#888" fill-opacity="0.18" stroke="#000" stroke-width="1"/>
  <path d="M963.799241 509.522731 L941.610793 548.085969 L936.406405 541.294881 L920.691705 577.052827 L912.364684 566.187086 L906.017882 614.168991 L883.118576 584.288202 L861.387093 600.942243 L848.896562 584.643631 L870.628045 567.989590 L847.728738 538.108801 L895.710643 544.455603 L887.383622 533.589862 L925.997629 527.712704 L920.793241 520.921616 Z" fill="#888" fill-opacity="0.18" stroke="#000" stroke-width="1"/>
  <path d="M56.184127 787.047562 L84.392644 821.452942 L76.198752 823.915595 L104.075926 851.273330 L90.965697 855.213574 L133.591878 878.138535 L97.538750 888.974206 L105.419238 915.194662 L85.753896 921.105028 L77.873408 894.884572 L41.820280 905.720243 L64.745241 863.094062 L51.635012 867.034306 L59.810966 828.840900 L51.617074 831.303552 Z" fill="#888" fill-opacity="0.18" stroke="#000" stroke-width="1"/>
  <path d="M900.610501 261.633452 L914.549607 219.382393 L921.018796 224.981869 L929.184484 186.786267 L939.535186 195.745428 L936.056333 147.470769 L964.520765 172.108463 L982.439087 151.407058 L997.965140 164.845800 L980.046818 185.547204 L1008.511249 210.184898 L960.236590 213.663750 L970.587293 222.622912 L933.957174 236.180821 L940.426363 241.780296 Z" fill="#888" fill-opacity="0.18" stroke="#000" stroke-width="1"/>
  <path d="M771.268880 223.118520 L726.986103 218.818954 L731.024693 211.276122 L691.968465 211.715994 L698.430208 199.647461 L652.104518 213.664433 L669.874313 180.475969 L645.737249 167.552481 L655.429864 149.449682 L679.566929 162.373170 L697.336725 129.184706 L711.353696 175.510397 L717.815440 163.441864 L739.101873 196.190456 L743.140463 188.647623 Z" fill="#888" fill-opacity="0.18" stroke="#000" stroke-width="1"/>
  <path d="M277.584252 841.905255 L234.331941 852.330619 L235.680420 843.881587 L198.917639 857.075541 L201.075205 843.557090 L161.885162 871.959301 L167.818470 834.783561 L140.781568 830.468428 L144.017918 810.190752 L171.054819 814.505885 L176.988127 777.330145 L205.390338 816.520188 L207.547905 803.001737 L238.377378 826.983524 L239.725857 818.534492 Z" fill="#888" fill-opacity="0.18" stroke="#000" stroke-width="1"/>
  <path d="M659.313361 649.822539 L671.024313 692.744611 L662.538816 691.648769 L676.823540 728.001611 L663.246745 726.248263 L692.805364 764.573622 L655.469176 759.751915 L651.962481 786.905507 L631.597287 784.275485 L635.103983 757.121894 L597.767795 752.300187 L636.093153 722.741568 L622.516358 720.988220 L645.567821 689.457084 L637.082324 688.361242 Z" fill="#888" fill-opacity="0.18" stroke="#000" stroke-width="1"/>
  <path d="M286.683152 363.501883 L291.745439 319.299803 L299.217532 323.467818 L299.450987 284.409810 L311.406337 291.078635 L298.190024 244.518199 L331.067236 262.857466 L344.404885 238.946767 L362.337909 248.950003 L349.000260 272.860703 L381.877472 291.199970 L335.317037 304.416284 L347.272386 311.085108 L314.161719 331.803849 L321.633813 335.971864 Z" fill="#888" fill-opacity="0.18" stroke="#000" stroke-width="1"/>
  <path d="M1052.579276 798.571998 L1014.805155 822.078730 L1013.426307 813.634601 L982.683259 837.727080 L980.477101 824.216474 L952.215981 863.508384 L946.149046 826.354218 L919.127834 830.766534 L915.818597 810.500625 L942.839809 806.088309 L936.772875 768.934142 L976.064785 797.195262 L973.858627 783.684656 L1010.668609 796.746344 L1009.289760 788.302215 Z" fill="#888" fill-opacity="0.18" stroke="#000" stroke-width="1"/>
  <path d="M549.665159 921.210527 L549.275374 965.699836 L541.406693 962.340014 L545.278501 1001.206344 L532.688613 995.830629 L550.724046 1040.744638 L516.101852 1025.961421 L505.350421 1051.141198 L486.465589 1043.077625 L497.217020 1017.897848 L462.594826 1003.114630 L507.508836 985.079198 L494.918948 979.703482 L525.669333 955.620370 L517.800652 952.260548 Z" fill="#888" fill-opacity="0.18" stroke="#000" stroke-width="1"/>
  <path d="M424.411223 191.982866 L385.850288 214.175318 L384.762940 205.688728 L353.208747 228.708619 L351.468990 215.130075 L321.872023 253.425828 L317.087691 216.084833 L289.930603 219.564347 L287.320967 199.196531 L314.478055 195.717017 L309.693722 158.376021 L347.989475 187.972988 L346.249718 174.394444 L382.588244 188.715548 L381.500895 180.228958 Z" fill="#888" fill-opacity="0.18" stroke="#000" stroke-width="1"/>
</svg>
