<?xml version="1.0" encoding="UTF-8"?>
<svg xmlns="http://www.w3.org/2000/svg" width="1100" height="1100" viewBox="0 0 1100 1100">
  <rect x="0" y="0" width="1100" height="1100" fill="white"/>
  <text x="10.0" y="18.0" font-family="monospace" font-size="12">prefix=N82_job5048483_task82 run_id=82 L=7.48271007791 feas=0.000e+00 N=82</text>
  <rect x="40.000000" y="40.000000" width="1020.000000" height="1020.000000" fill="none" stroke="#000" stroke-width="2"/>
  <path d="M556.556438 278.304418 L517.015323 258.324953 L523.486612 252.783592 L487.084329 239.089431 L497.438391 230.223252 L449.387787 226.503542 L477.861460 202.121550 L460.129102 181.413425 L475.660196 168.114156 L493.392554 188.822282 L521.866226 164.440290 L518.146517 212.490894 L528.500579 203.624715 L536.429190 241.700868 L542.900480 236.159506 Z" fill="#888" fill-opacity="0.18" stroke="#000" stroke-width="1"/>
  <path d="M873.431652 571.236650 L835.222819 548.814254 L842.029223 543.690082 L806.558447 527.737644 L817.448693 519.538969 L769.726389 512.810039 L799.674568 490.263683 L783.277218 468.483190 L799.612588 456.185177 L816.009938 477.965671 L845.958116 455.419315 L839.229187 503.141619 L850.119433 494.942944 L855.642032 533.441738 L862.448436 528.317566 Z" fill="#888" fill-opacity="0.18" stroke="#000" stroke-width="1"/>
  <path d="M566.239500 47.317299 L610.523740 46.058368 L607.471757 54.012592 L646.003014 48.721230 L641.119842 61.447988 L685.144668 41.839024 L671.715944 76.837608 L697.169461 86.603953 L689.844702 105.694090 L664.391186 95.927746 L650.962463 130.926330 L631.353498 86.901505 L626.470326 99.628263 L601.367792 69.921040 L598.315809 77.875264 Z" fill="#888" fill-opacity="0.18" stroke="#000" stroke-width="1"/>
  <path d="M682.387078 386.748624 L638.313516 391.243060 L640.775566 383.086922 L602.734505 391.182226 L606.673784 378.132405 L564.201033 400.908757 L575.034053 365.021751 L548.934412 357.143191 L554.843331 337.568460 L580.942973 345.447020 L591.775992 309.560013 L614.552344 352.032764 L618.491624 338.982944 L645.699666 366.774647 L648.161716 358.618509 Z" fill="#888" fill-opacity="0.18" stroke="#000" stroke-width="1"/>
  <path d="M623.013966 1059.272527 L578.990590 1054.310552 L583.127581 1046.862761 L544.235040 1046.699937 L550.854225 1034.783472 L504.515100 1048.026670 L522.717860 1015.256393 L498.884931 1002.018022 L508.813709 984.143325 L532.646638 997.381696 L550.849397 964.611418 L564.092596 1010.950543 L570.711781 999.034078 L591.401563 1031.967180 L595.538553 1024.519390 Z" fill="#888" fill-opacity="0.18" stroke="#000" stroke-width="1"/>
  <path d="M836.613208 551.318564 L797.879556 572.821657 L796.927354 564.355395 L765.157152 586.789979 L763.633629 573.243960 L733.577390 610.917815 L729.387702 573.666264 L702.295664 576.713310 L700.010380 556.394282 L727.102417 553.347236 L722.912728 516.095685 L760.586582 546.151923 L759.063059 532.605905 L795.022950 547.422872 L794.070748 538.956610 Z" fill="#888" fill-opacity="0.18" stroke="#000" stroke-width="1"/>
  <path d="M1055.415921 735.885825 L1011.188377 733.316172 L1014.915796 725.655192 L976.071552 727.599670 L982.035424 715.342102 L936.481825 731.076345 L952.882470 697.368032 L928.367333 685.440290 L937.313140 667.053937 L961.828277 678.981679 L978.228923 645.273366 L993.963166 690.826965 L999.927037 678.569397 L1022.370635 710.333231 L1026.098055 702.672251 Z" fill="#888" fill-opacity="0.18" stroke="#000" stroke-width="1"/>
  <path d="M479.264182 866.179575 L448.791890 834.021867 L456.754227 830.991113 L427.114071 805.809424 L439.853810 800.960218 L395.881448 781.233886 L430.915730 767.898570 L421.217318 742.419092 L440.326926 735.145283 L450.025338 760.624761 L485.059620 747.289444 L465.333288 791.261806 L478.073026 786.412600 L472.678901 824.929605 L480.641237 821.898852 Z" fill="#888" fill-opacity="0.18" stroke="#000" stroke-width="1"/>
  <path d="M85.136515 162.920786 L114.190659 196.365300 L106.104788 199.049134 L134.629039 225.488184 L121.691645 229.782318 L164.770464 251.390467 L129.192632 263.199335 L137.780900 289.074123 L118.374809 295.515324 L109.786541 269.640536 L74.208708 281.449405 L95.816858 238.370586 L82.879464 242.664720 L89.933045 204.416801 L81.847174 207.100635 Z" fill="#888" fill-opacity="0.18" stroke="#000" stroke-width="1"/>
  <path d="M203.238652 104.134843 L166.408381 128.756174 L164.761863 120.397152 L134.948114 145.373073 L132.313685 131.998637 L105.463668 172.020798 L98.218989 135.241100 L71.470117 140.509957 L67.518474 120.448304 L94.267346 115.179446 L87.022667 78.399748 L127.044828 105.249766 L124.410399 91.875330 L161.468827 103.679107 L159.822309 95.320085 Z" fill="#888" fill-opacity="0.18" stroke="#000" stroke-width="1"/>
  <path d="M300.102738 582.201030 L325.087705 545.616468 L329.734006 552.757628 L348.076785 518.461874 L355.510866 529.887730 L365.490304 482.737888 L385.934026 514.158992 L408.785739 499.290831 L419.936860 516.429615 L397.085147 531.297777 L417.528869 562.718881 L370.379027 552.739442 L377.813108 564.165298 L339.026607 567.039948 L343.672907 574.181108 Z" fill="#888" fill-opacity="0.18" stroke="#000" stroke-width="1"/>
  <path d="M236.092201 75.457223 L233.546447 119.686150 L225.883454 115.962870 L227.848922 154.806058 L215.588132 148.848811 L231.346988 194.393901 L197.629818 178.011472 L185.715324 202.533051 L167.324140 193.597181 L179.238634 169.075602 L145.521464 152.693173 L191.066554 136.934317 L178.805765 130.977070 L210.557467 108.516312 L202.894474 104.793032 Z" fill="#888" fill-opacity="0.18" stroke="#000" stroke-width="1"/>
  <path d="M850.186736 289.167903 L838.749646 246.367532 L847.193283 247.502987 L833.159102 211.230435 L846.668922 213.047163 L817.436192 174.730792 L854.588198 179.726795 L858.221654 152.707155 L878.486385 155.432247 L874.852928 182.451888 L912.004933 187.447891 L873.688562 216.680620 L887.198382 218.497349 L864.080559 249.773897 L872.524196 250.909353 Z" fill="#888" fill-opacity="0.18" stroke="#000" stroke-width="1"/>
  <path d="M259.101363 87.749699 L303.087882 82.470975 L300.771493 90.669671 L338.662333 81.898096 L334.956111 95.016010 L377.016451 71.486782 L366.824339 107.561044 L393.060166 114.973490 L387.500832 134.650360 L361.265005 127.237915 L351.072893 163.312177 L327.543666 121.251837 L323.837443 134.369750 L296.138715 107.067063 L293.822326 115.265759 Z" fill="#888" fill-opacity="0.18" stroke="#000" stroke-width="1"/>
  <path d="M1054.439572 498.528193 L1015.326299 477.723611 L1021.912413 472.319227 L985.805424 457.864414 L996.343208 449.217399 L948.381212 444.490477 L977.360117 420.711187 L960.066087 399.635620 L975.872762 386.665098 L993.166792 407.740665 L1022.145696 383.961374 L1017.418775 431.923369 L1027.956558 423.276355 L1035.084643 461.510459 L1041.670757 456.106074 Z" fill="#888" fill-opacity="0.18" stroke="#000" stroke-width="1"/>
  <path d="M903.034987 340.129435 L883.263355 379.774881 L877.688101 373.332768 L864.185210 409.806433 L855.264803 399.499053 L851.797370 447.568520 L827.266251 419.223225 L806.651491 437.064039 L793.270881 421.602968 L813.885641 403.762155 L789.354522 375.416859 L837.423990 378.884293 L828.503583 368.576912 L866.537592 360.448543 L860.962338 354.006430 Z" fill="#888" fill-opacity="0.18" stroke="#000" stroke-width="1"/>
  <path d="M745.807101 930.895681 L757.676526 888.213185 L764.375385 893.477173 L770.693849 855.100965 L781.412022 863.523346 L775.672541 815.671960 L805.147518 838.833508 L821.992280 817.397161 L838.069540 830.030732 L821.224778 851.467079 L850.699755 874.628627 L802.848369 880.368108 L813.566543 888.790489 L777.773102 904.005149 L784.471960 909.269137 Z" fill="#888" fill-opacity="0.18" stroke="#000" stroke-width="1"/>
  <path d="M506.927990 636.326160 L522.688431 677.730112 L514.172904 677.465401 L531.848220 712.109874 L518.223377 711.686337 L551.226642 746.807289 L513.758322 745.642561 L512.911247 772.892248 L492.473982 772.256941 L493.321057 745.007255 L455.852737 743.842526 L490.973690 710.839261 L477.348846 710.415724 L497.141850 676.935979 L488.626323 676.671268 Z" fill="#888" fill-opacity="0.18" stroke="#000" stroke-width="1"/>
  <path d="M939.499352 734.890644 L981.505154 748.968689 L975.899155 755.384065 L1013.893857 763.694235 L1004.924258 773.958836 L1053.009758 770.721330 L1028.343362 798.948983 L1048.872565 816.888181 L1035.418167 832.285083 L1014.888964 814.345885 L990.222567 842.573539 L986.985061 794.488039 L978.015462 804.752640 L964.687157 768.214817 L959.081158 774.630192 Z" fill="#888" fill-opacity="0.18" stroke="#000" stroke-width="1"/>
  <path d="M247.600162 886.251682 L230.497535 927.119505 L224.507879 921.060767 L213.450172 958.348613 L203.866723 948.654633 L203.590397 996.848205 L177.235911 970.189761 L157.847952 989.356660 L143.472778 974.815690 L162.860737 955.648791 L136.506252 928.990347 L184.699824 929.266673 L175.116375 919.572694 L212.528567 908.943293 L206.538911 902.884555 Z" fill="#888" fill-opacity="0.18" stroke="#000" stroke-width="1"/>
  <path d="M870.573392 890.105144 L860.174585 933.169556 L853.299157 928.138377 L848.300380 966.708683 L837.299696 958.658795 L844.676688 1006.285225 L814.424806 984.148034 L798.325031 1006.149403 L781.824005 994.074572 L797.923779 972.073203 L767.671897 949.936013 L815.298327 942.559020 L804.297642 934.509133 L839.548302 918.076017 L832.672874 913.044838 Z" fill="#888" fill-opacity="0.18" stroke="#000" stroke-width="1"/>
  <path d="M555.599447 825.994883 L589.038505 855.055306 L581.406547 858.841794 L613.342807 881.039353 L601.131674 887.097734 L646.805457 902.479615 L613.224842 919.140161 L625.341603 943.562427 L607.024904 952.649998 L594.908142 928.227732 L561.327527 944.888279 L576.709408 899.214495 L564.498275 905.272875 L566.142631 866.414770 L558.510673 870.201258 Z" fill="#888" fill-opacity="0.18" stroke="#000" stroke-width="1"/>
  <path d="M528.784773 395.671271 L503.424211 359.346064 L511.748254 357.530965 L486.174963 328.228011 L499.493432 325.323853 L458.936863 299.288078 L495.562652 291.301642 L489.754335 264.664704 L509.732038 260.308466 L515.540355 286.945404 L552.166144 278.958967 L526.130369 319.515535 L539.448837 316.611377 L528.396340 353.900766 L536.720383 352.085667 Z" fill="#888" fill-opacity="0.18" stroke="#000" stroke-width="1"/>
  <path d="M737.425006 1009.301058 L705.887516 978.187307 L713.743322 974.890249 L683.272317 950.720554 L695.841606 945.445261 L651.230151 927.210271 L685.795696 912.703216 L675.245110 887.564638 L694.099043 879.651698 L704.649629 904.790276 L739.215174 890.283220 L720.980184 934.894675 L733.549473 929.619382 L729.454933 968.296133 L737.310739 964.999075 Z" fill="#888" fill-opacity="0.18" stroke="#000" stroke-width="1"/>
  <path d="M288.631043 544.899420 L264.601276 507.680486 L272.985537 506.167727 L248.489125 475.958753 L261.903943 473.538338 L222.315862 446.052331 L259.206610 439.396190 L254.365780 412.566555 L274.488007 408.935932 L279.328837 435.765568 L316.219586 429.109426 L288.733579 468.697508 L302.148396 466.277093 L289.754059 503.142208 L298.138320 501.629449 Z" fill="#888" fill-opacity="0.18" stroke="#000" stroke-width="1"/>
  <path d="M61.007538 694.192155 L105.309315 694.015226 L102.063964 701.892533 L140.712966 697.543862 L135.520404 710.147553 L180.011038 691.619729 L165.731493 726.279881 L190.938876 736.665004 L183.150034 755.570542 L157.942650 745.185418 L143.663105 779.845571 L125.135281 735.354937 L119.942719 747.958628 L95.573262 717.647148 L92.327911 725.524455 Z" fill="#888" fill-opacity="0.18" stroke="#000" stroke-width="1"/>
  <path d="M758.560015 284.659129 L772.459956 326.724203 L763.964681 326.080326 L780.078778 361.477955 L766.486338 360.447752 L797.891930 397.004360 L760.512720 394.171301 L758.452314 421.356181 L738.063654 419.810876 L740.124060 392.625996 L702.744850 389.792938 L739.301458 358.387345 L725.709018 357.357142 L746.974131 324.792572 L738.478856 324.148695 Z" fill="#888" fill-opacity="0.18" stroke="#000" stroke-width="1"/>
  <path d="M345.986994 200.260986 L314.907941 231.832670 L311.602247 223.980495 L287.466073 254.478059 L282.176962 241.914578 L263.991038 286.546058 L249.445982 251.996486 L224.319021 262.574708 L216.385354 243.729487 L241.512316 233.151265 L226.967260 198.601693 L271.598739 216.787617 L266.309628 204.224136 L304.990858 208.276144 L301.685163 200.423969 Z" fill="#888" fill-opacity="0.18" stroke="#000" stroke-width="1"/>
  <path d="M523.827557 662.010995 L515.374395 618.522803 L523.719426 620.238824 L512.224440 583.083453 L525.576490 585.829086 L499.060449 545.584878 L535.778586 553.135369 L541.269853 526.431269 L561.297928 530.549719 L555.806661 557.253819 L592.524799 564.804311 L552.280591 591.320353 L565.632641 594.065986 L540.409488 623.670866 L548.754520 625.386886 Z" fill="#888" fill-opacity="0.18" stroke="#000" stroke-width="1"/>
  <path d="M638.783127 916.745760 L658.761382 956.287487 L650.264459 956.909238 L671.444697 989.529076 L657.849620 990.523879 L694.324319 1022.024564 L656.937858 1024.760272 L658.927464 1051.950425 L638.534849 1053.442629 L636.545243 1026.252476 L599.158782 1028.988184 L630.659467 992.513485 L617.064390 993.508288 L633.270613 958.152742 L624.773690 958.774494 Z" fill="#888" fill-opacity="0.18" stroke="#000" stroke-width="1"/>
  <path d="M874.331101 813.053949 L864.014775 769.969703 L872.425908 771.325107 L859.343032 734.698687 L872.800844 736.867334 L844.577930 697.801186 L881.586914 703.764964 L885.924207 676.849340 L906.110926 680.102310 L901.773633 707.017934 L938.782617 712.981713 L899.716469 741.204627 L913.174282 743.373274 L889.248173 774.035916 L897.659306 775.391320 Z" fill="#888" fill-opacity="0.18" stroke="#000" stroke-width="1"/>
  <path d="M924.816731 447.253810 L946.610473 485.824675 L938.151611 486.840512 L960.824455 518.441120 L947.290275 520.066459 L985.189072 549.838560 L947.970078 554.308243 L951.220756 581.376602 L930.919487 583.814610 L927.668809 556.746251 L890.449815 561.215933 L920.221916 523.317137 L906.687737 524.942476 L921.233886 488.872186 L912.775024 489.888023 Z" fill="#888" fill-opacity="0.18" stroke="#000" stroke-width="1"/>
  <path d="M649.279644 888.417157 L668.571409 848.536001 L674.223998 854.910364 L687.285755 818.276408 L696.329898 828.475389 L699.216995 780.367578 L724.088388 808.414777 L744.486350 790.326491 L758.052565 805.624963 L737.654602 823.713249 L762.525995 851.760448 L714.418184 848.873352 L723.462327 859.072333 L685.529177 867.659091 L691.181766 874.033455 Z" fill="#888" fill-opacity="0.18" stroke="#000" stroke-width="1"/>
  <path d="M586.394200 750.681623 L571.409628 792.372645 L565.117181 786.629007 L555.986009 824.434800 L545.918094 815.244978 L548.113327 863.389320 L520.426561 838.117310 L502.046917 858.253140 L486.945044 844.468407 L505.324688 824.332577 L477.637921 799.060567 L525.782264 796.865334 L515.714349 787.675512 L552.532287 775.141729 L546.239840 769.398090 Z" fill="#888" fill-opacity="0.18" stroke="#000" stroke-width="1"/>
  <path d="M282.193875 740.835674 L290.594464 784.334052 L282.251513 782.607945 L293.701578 819.777183 L280.352856 817.015413 L306.820233 857.291643 L270.111249 849.696773 L264.587707 876.394216 L244.564625 872.251560 L250.088167 845.554117 L213.379183 837.959247 L253.655413 811.491871 L240.306692 808.730100 L265.565611 779.155731 L257.222660 777.429624 Z" fill="#888" fill-opacity="0.18" stroke="#000" stroke-width="1"/>
  <path d="M1002.977962 875.211891 L960.474497 862.716524 L965.836357 856.095744 L927.557143 849.214021 L936.136119 838.620772 L888.205558 843.656454 L911.797742 814.525021 L890.611244 797.367069 L903.479708 781.477196 L924.666206 798.635148 L948.258389 769.503714 L953.294071 817.434275 L961.873047 806.841027 L976.560077 842.854183 L981.921936 836.233403 Z" fill="#888" fill-opacity="0.18" stroke="#000" stroke-width="1"/>
  <path d="M242.849312 791.506626 L235.985744 747.739398 L244.262735 749.758234 L234.128699 712.208832 L247.371884 715.438969 L222.339266 674.255662 L258.758025 683.138541 L265.218300 656.652171 L285.083078 661.497377 L278.622803 687.983747 L315.041562 696.866626 L273.858255 721.899245 L287.101440 725.129382 L260.816716 753.795906 L269.093707 755.814742 Z" fill="#888" fill-opacity="0.18" stroke="#000" stroke-width="1"/>
  <path d="M823.280980 347.538426 L848.518098 311.127347 L853.114953 318.300436 L871.694229 284.132224 L879.049196 295.609166 L889.354135 248.529393 L909.580294 280.090984 L932.534178 265.381051 L943.566629 282.596464 L920.612744 297.306398 L940.838903 328.867989 L893.759130 318.563051 L901.114096 330.039993 L862.308661 332.646614 L866.905515 339.819703 Z" fill="#888" fill-opacity="0.18" stroke="#000" stroke-width="1"/>
  <path d="M531.457749 160.863922 L487.354542 156.670371 L491.361031 149.151574 L452.471564 149.666973 L458.881946 137.636897 L412.780799 151.686133 L430.409350 118.603422 L406.349197 105.782658 L415.964770 87.737543 L440.024923 100.558307 L457.653474 67.475597 L471.702710 113.576744 L478.113092 101.546667 L499.374008 134.113978 L503.380497 126.595180 Z" fill="#888" fill-opacity="0.18" stroke="#000" stroke-width="1"/>
  <path d="M198.221704 825.045786 L170.757273 859.807601 L166.617929 852.361118 L145.938553 885.300755 L139.315604 873.386382 L126.087046 919.729688 L107.873934 886.965163 L84.045188 900.211063 L74.110764 882.339503 L97.939509 869.093604 L79.726398 836.329079 L126.069704 849.557636 L119.446754 837.643263 L158.339242 837.468152 L154.199899 830.021669 Z" fill="#888" fill-opacity="0.18" stroke="#000" stroke-width="1"/>
  <path d="M243.022799 71.394093 L273.870895 103.191479 L265.944725 106.315594 L295.878763 131.147221 L283.196890 136.145806 L327.398034 155.354024 L292.522885 169.100134 L302.520055 194.463879 L283.497246 201.961756 L273.500076 176.598011 L238.624927 190.344120 L257.833145 146.142976 L245.151273 151.141562 L250.092384 112.563826 L242.166214 115.687941 Z" fill="#888" fill-opacity="0.18" stroke="#000" stroke-width="1"/>
  <path d="M220.086769 397.969629 L234.910523 356.221154 L241.225063 361.940495 L250.210436 324.099785 L260.313701 333.250729 L257.932901 285.115206 L285.716879 310.280304 L304.018768 290.073775 L319.173665 303.800192 L300.871775 324.006721 L328.655753 349.171819 L280.520230 351.552619 L290.623494 360.703564 L253.854144 373.379176 L260.168684 379.098516 Z" fill="#888" fill-opacity="0.18" stroke="#000" stroke-width="1"/>
  <path d="M707.117137 183.630650 L671.744289 210.303491 L669.625800 202.051444 L641.278288 228.679903 L637.888705 215.476628 L613.354473 256.958771 L604.033122 220.649764 L577.626572 227.428929 L572.542198 207.624016 L598.948749 200.844852 L589.627397 164.535845 L631.109541 189.070077 L627.719959 175.866802 L665.388822 185.547350 L663.270333 177.295303 Z" fill="#888" fill-opacity="0.18" stroke="#000" stroke-width="1"/>
  <path d="M85.890190 564.052108 L114.973021 597.471679 L106.889456 600.162450 L135.436383 626.577014 L122.502679 630.882248 L165.600024 652.453425 L130.032337 664.292817 L138.642804 690.160226 L119.242247 696.618076 L110.631780 670.750667 L75.064093 682.590060 L96.635270 639.492715 L83.701566 643.797949 L90.722326 605.543992 L82.638760 608.234763 Z" fill="#888" fill-opacity="0.18" stroke="#000" stroke-width="1"/>
  <path d="M925.541870 82.948654 L969.758105 80.191243 L966.977155 88.244230 L1005.307191 81.651461 L1000.857671 94.536239 L1044.193418 73.448095 L1031.957236 108.881236 L1057.726793 117.780277 L1051.052512 137.107444 L1025.282955 128.208403 L1013.046774 163.641543 L991.958630 120.305796 L987.509109 133.190574 L961.415254 104.350203 L958.634304 112.403189 Z" fill="#888" fill-opacity="0.18" stroke="#000" stroke-width="1"/>
  <path d="M617.284688 393.910858 L604.280562 436.261437 L597.724551 430.820573 L590.384318 469.014515 L579.894701 460.309133 L584.355287 508.296631 L555.508841 484.356829 L538.098076 505.336062 L522.363651 492.277989 L539.774416 471.298755 L510.927970 447.358953 L558.915468 442.898368 L548.425851 434.192985 L584.612530 419.938844 L578.056520 414.497980 Z" fill="#888" fill-opacity="0.18" stroke="#000" stroke-width="1"/>
  <path d="M777.038319 125.113586 L816.495771 104.969400 L817.153212 113.463636 L849.683787 92.146555 L850.735692 105.737333 L882.082874 69.130626 L884.975612 106.505265 L912.157168 104.401456 L913.735025 124.787622 L886.553469 126.891432 L889.446208 164.266070 L852.839501 132.918888 L853.891406 146.509666 L818.468093 130.452108 L819.125533 138.946344 Z" fill="#888" fill-opacity="0.18" stroke="#000" stroke-width="1"/>
  <path d="M479.892348 507.834248 L475.598906 551.927844 L468.089203 547.904334 L468.516511 586.794869 L456.500986 580.357253 L470.445759 626.490105 L437.403065 608.786662 L424.527833 632.817712 L406.504545 623.161288 L419.379777 599.130238 L386.337083 581.426794 L432.469935 567.482021 L420.454410 561.044405 L453.069797 539.857314 L445.560094 535.833804 Z" fill="#888" fill-opacity="0.18" stroke="#000" stroke-width="1"/>
  <path d="M347.109894 1031.128117 L316.586619 999.018796 L324.544137 995.975413 L294.864065 970.840783 L307.596094 965.971370 L263.592490 946.314830 L298.605569 932.923945 L288.866744 907.459887 L307.964787 900.155767 L317.703613 925.619825 L352.716693 912.228940 L333.060152 956.232545 L345.792181 951.363132 L340.459173 989.888647 L348.416691 986.845264 Z" fill="#888" fill-opacity="0.18" stroke="#000" stroke-width="1"/>
  <path d="M1040.830085 685.035957 L1004.714462 659.377809 L1011.940437 654.864543 L977.990231 635.889828 L989.551791 628.668604 L942.594831 617.817766 L974.389120 597.959399 L959.946671 574.836279 L977.289010 564.004443 L991.731459 587.127562 L1023.525748 567.269195 L1012.674910 614.226155 L1024.236470 607.004930 L1026.392386 645.838013 L1033.618361 641.324748 Z" fill="#888" fill-opacity="0.18" stroke="#000" stroke-width="1"/>
  <path d="M842.583058 798.937278 L798.333627 796.777033 L801.989990 789.081886 L763.165404 791.385760 L769.015584 779.073525 L723.609546 795.228664 L739.697540 761.370016 L715.073069 749.669657 L723.848339 731.201304 L748.472810 742.901663 L764.560804 709.043016 L780.715943 754.449054 L786.566123 742.136819 L809.302714 773.691592 L812.959077 765.996444 Z" fill="#888" fill-opacity="0.18" stroke="#000" stroke-width="1"/>
  <path d="M244.205201 907.608387 L270.526796 943.243376 L262.254195 945.280124 L288.600911 973.889683 L275.364749 977.148480 L316.602148 1002.091891 L280.202702 1011.053584 L286.720297 1037.525908 L266.866055 1042.414104 L260.348460 1015.941780 L223.949014 1024.903474 L248.892425 983.666075 L235.656263 986.924873 L245.708992 949.353621 L237.436391 951.390370 Z" fill="#888" fill-opacity="0.18" stroke="#000" stroke-width="1"/>
  <path d="M147.175419 416.028171 L137.998804 459.369474 L130.983825 454.534772 L127.077968 493.231032 L115.854002 485.495508 L124.575107 532.894233 L93.709201 511.621542 L78.238153 534.069474 L61.402204 522.466188 L76.873252 500.018256 L46.007345 478.745565 L93.406070 470.024460 L82.182104 462.288936 L116.953868 444.865367 L109.938889 440.030664 Z" fill="#888" fill-opacity="0.18" stroke="#000" stroke-width="1"/>
  <path d="M56.681157 922.508455 L88.811086 953.010036 L81.020130 956.457540 L111.950247 980.036855 L99.484718 985.552861 L144.438556 1002.926671 L110.158350 1018.095686 L121.190361 1043.026745 L102.492067 1051.300754 L91.460055 1026.369695 L57.179849 1041.538710 L74.553659 996.584872 L62.088129 1002.100878 L65.438218 963.352547 L57.647262 966.800050 Z" fill="#888" fill-opacity="0.18" stroke="#000" stroke-width="1"/>
  <path d="M122.665308 601.714979 L137.588294 560.001872 L143.889217 565.736212 L152.964546 527.916975 L163.046022 537.091919 L160.779691 488.950870 L188.503750 514.181965 L206.853637 494.019014 L221.975851 507.781429 L203.625964 527.944380 L231.350022 553.175475 L183.208974 555.441806 L193.290449 564.616749 L156.491061 577.204891 L162.791984 582.939231 Z" fill="#888" fill-opacity="0.18" stroke="#000" stroke-width="1"/>
  <path d="M1052.035588 882.426395 L1054.000447 926.684932 L1045.998572 923.760163 L1051.903621 962.202154 L1039.100621 957.522524 L1059.409045 1001.229099 L1024.200796 988.360116 L1014.841535 1013.966116 L995.637036 1006.946670 L1004.996296 981.340671 L969.788047 968.471688 L1013.494622 948.163264 L1000.691622 943.483633 L1029.994822 917.910625 L1021.992947 914.985856 Z" fill="#888" fill-opacity="0.18" stroke="#000" stroke-width="1"/>
  <path d="M374.762387 436.227503 L407.626542 406.518480 L410.469553 414.549767 L436.340077 385.508894 L440.888893 398.358953 L461.641998 354.861764 L474.151244 390.199425 L499.851362 381.101792 L506.674587 400.376880 L480.974470 409.474513 L493.483716 444.812175 L449.986527 424.059070 L454.535344 436.909129 L416.155574 430.612340 L418.998584 438.643627 Z" fill="#888" fill-opacity="0.18" stroke="#000" stroke-width="1"/>
  <path d="M942.241213 649.989180 L898.221623 654.984625 L900.590745 646.801011 L862.644221 655.328475 L866.434816 642.234693 L824.223874 665.492663 L834.648008 629.484761 L808.460444 621.903572 L814.146335 602.262899 L840.333900 609.844088 L850.758035 573.836186 L874.016005 616.047128 L877.806599 602.953346 L905.328988 630.433783 L907.698109 622.250169 Z" fill="#888" fill-opacity="0.18" stroke="#000" stroke-width="1"/>
  <path d="M1051.377434 361.749158 L1008.502882 372.904944 L1009.693760 364.468945 L973.329832 378.264633 L975.235236 364.767034 L936.727728 393.747521 L941.967590 356.629124 L914.972392 352.818316 L917.830498 332.571917 L944.825696 336.382725 L950.065557 299.264328 L979.046044 337.771836 L980.951449 324.274237 L1012.075515 347.596946 L1013.266393 339.160947 Z" fill="#888" fill-opacity="0.18" stroke="#000" stroke-width="1"/>
  <path d="M546.906168 295.229760 L587.404423 277.269523 L587.597198 285.786982 L621.242931 266.277473 L621.551370 279.905408 L654.850109 245.064472 L655.698317 282.541293 L682.954187 281.924414 L683.416846 302.366317 L656.160976 302.983195 L657.009185 340.460016 L622.168249 307.161278 L622.476689 320.789213 L587.982747 302.821901 L588.175522 311.339360 Z" fill="#888" fill-opacity="0.18" stroke="#000" stroke-width="1"/>
  <path d="M406.722049 750.146897 L402.561661 706.040548 L410.698912 708.564322 L402.892055 670.463019 L415.911656 674.501057 L393.457749 631.856961 L429.261650 642.961565 L437.337725 616.922364 L456.867126 622.979421 L448.791051 649.018622 L484.594952 660.123225 L441.950856 682.577132 L454.970457 686.615170 L426.973412 713.611869 L435.110662 716.135642 Z" fill="#888" fill-opacity="0.18" stroke="#000" stroke-width="1"/>
  <path d="M912.589407 186.012952 L951.163113 207.801664 L944.442210 213.037476 L980.171448 228.402302 L969.418002 236.779602 L1017.244866 242.719965 L987.672891 265.757540 L1004.427491 287.264431 L988.297323 299.830381 L971.542723 278.323490 L941.970748 301.361066 L947.911111 253.534202 L937.157666 261.911502 L931.000403 223.509101 L924.279500 228.744914 Z" fill="#888" fill-opacity="0.18" stroke="#000" stroke-width="1"/>
  <path d="M385.649859 950.121286 L358.845711 914.847834 L367.089826 912.698684 L340.356175 884.450353 L353.546759 881.011714 L311.973701 856.631853 L348.247807 847.175595 L341.370528 820.794427 L361.156404 815.636468 L368.033683 842.017636 L404.307788 832.561378 L379.927927 874.134436 L393.118511 870.695796 L383.578056 908.400385 L391.822171 906.251236 Z" fill="#888" fill-opacity="0.18" stroke="#000" stroke-width="1"/>
  <path d="M247.235761 545.635540 L245.197375 589.890752 L237.492188 586.255594 L239.902966 625.073688 L227.574667 619.257435 L243.854781 664.618814 L209.951960 648.624118 L198.319453 673.280715 L179.827006 664.556335 L191.459512 639.899738 L157.556691 623.905042 L202.918070 607.624929 L190.589772 601.808675 L222.081815 578.985277 L214.376629 575.350119 Z" fill="#888" fill-opacity="0.18" stroke="#000" stroke-width="1"/>
  <path d="M667.772881 622.673815 L693.869665 658.473768 L685.584408 660.458408 L711.750532 689.233227 L698.494121 692.408651 L739.573707 717.611119 L703.118577 726.343534 L709.469424 752.856356 L689.584808 757.619491 L683.233961 731.106669 L646.778831 739.839084 L671.981300 698.759498 L658.724889 701.934921 L669.013895 664.427687 L660.728638 666.412327 Z" fill="#888" fill-opacity="0.18" stroke="#000" stroke-width="1"/>
  <path d="M826.483287 1055.365858 L847.095580 1016.150909 L852.532235 1022.710410 L866.809596 986.532886 L875.508245 997.028087 L879.999625 949.043461 L903.920910 977.905265 L924.911313 960.507966 L937.959286 976.250768 L916.968884 993.648066 L940.890169 1022.509870 L892.905543 1018.018489 L901.604192 1028.513690 L863.405547 1035.829411 L868.842202 1042.388912 Z" fill="#888" fill-opacity="0.18" stroke="#000" stroke-width="1"/>
  <path d="M326.372586 681.422609 L352.922233 716.888016 L344.662867 718.977790 L371.192568 747.417749 L357.977583 750.761387 L399.374141 775.439753 L363.032933 784.634759 L369.720210 811.064729 L349.897732 816.080187 L343.210455 789.650217 L306.869247 798.845223 L331.547613 757.448664 L318.332628 760.792303 L328.144136 723.157338 L319.884771 725.247112 Z" fill="#888" fill-opacity="0.18" stroke="#000" stroke-width="1"/>
  <path d="M400.665854 710.062178 L363.117659 686.550226 L370.068612 681.623916 L335.071275 664.657988 L346.192799 656.775891 L298.683748 648.677322 L329.267940 627.001557 L313.503747 604.758508 L330.186033 592.935364 L345.950226 615.178412 L376.534417 593.502647 L368.435848 641.011698 L379.557372 633.129602 L383.970517 671.771295 L390.921470 666.844985 Z" fill="#888" fill-opacity="0.18" stroke="#000" stroke-width="1"/>
  <path d="M657.358854 181.883083 L615.004070 168.892663 L620.442812 162.334892 L582.246496 155.007020 L590.948483 144.514586 L542.962431 148.990702 L566.892896 120.136510 L545.908029 102.732535 L558.961010 86.993885 L579.945877 104.397860 L603.876342 75.543667 L608.352457 123.529719 L617.054444 113.037286 L631.320296 149.219350 L636.759038 142.661579 Z" fill="#888" fill-opacity="0.18" stroke="#000" stroke-width="1"/>
  <path d="M179.507444 373.023751 L163.865290 331.574966 L172.380026 331.863991 L154.803704 297.169190 L168.427283 297.631630 L135.524435 262.416585 L172.989276 263.688293 L173.914155 236.441136 L194.349523 237.134795 L193.424644 264.381952 L230.889485 265.653661 L195.674440 298.556508 L209.298018 299.018948 L189.409499 332.442040 L197.924236 332.731065 Z" fill="#888" fill-opacity="0.18" stroke="#000" stroke-width="1"/>
  <path d="M1049.315106 875.306269 L1014.577127 902.800843 L1012.265810 894.600716 L984.550197 921.886262 L980.852090 908.766059 L957.296847 950.811835 L947.127054 914.731274 L920.886646 922.127487 L915.339486 902.447181 L941.579894 895.050968 L931.410101 858.970407 L973.455877 882.525651 L969.757771 869.405447 L1007.643177 878.200461 L1005.331861 870.000333 Z" fill="#888" fill-opacity="0.18" stroke="#000" stroke-width="1"/>
  <path d="M474.984065 928.625891 L455.779435 968.549080 L450.112940 962.187076 L437.131213 998.849469 L428.064819 988.670261 L425.282785 1036.784262 L400.350204 1008.791443 L379.991789 1026.924230 L366.392200 1011.655419 L386.750614 993.522632 L361.818032 965.529813 L409.932033 968.311847 L400.865640 958.132640 L438.779948 949.463067 L433.113452 943.101062 Z" fill="#888" fill-opacity="0.18" stroke="#000" stroke-width="1"/>
  <path d="M273.603676 405.086154 L304.177061 373.024543 L307.607126 380.823192 L331.255579 349.945903 L336.743683 362.423741 L354.218018 317.508884 L369.310306 351.822940 L394.265983 340.846731 L402.498139 359.563489 L377.542462 370.539697 L392.634749 404.853753 L347.719892 387.379418 L353.207997 399.857257 L314.467257 396.420490 L317.897322 404.219139 Z" fill="#888" fill-opacity="0.18" stroke="#000" stroke-width="1"/>
  <path d="M605.067624 715.598141 L636.529436 746.788415 L628.665644 750.066379 L659.077843 774.310026 L646.495775 779.554769 L691.062800 797.898081 L656.462115 812.321123 L666.951600 837.485258 L648.078499 845.352371 L637.589014 820.188237 L602.988329 834.611279 L621.331641 790.044254 L608.749573 795.288997 L612.938059 756.622307 L605.074267 759.900271 Z" fill="#888" fill-opacity="0.18" stroke="#000" stroke-width="1"/>
  <path d="M159.341260 311.110174 L137.080723 349.413533 L131.927799 342.628870 L116.125578 378.166822 L107.880900 367.311361 L101.353941 415.061708 L78.681078 385.209189 L56.970155 401.698544 L44.603139 385.415352 L66.314062 368.925997 L43.641199 339.073479 L91.391545 345.600439 L83.146868 334.744978 L121.621953 329.059543 L116.469029 322.274880 Z" fill="#888" fill-opacity="0.18" stroke="#000" stroke-width="1"/>
  <path d="M813.346764 738.618558 L774.431574 717.445775 L781.068398 712.103787 L745.099433 697.308862 L755.718352 688.761681 L707.803103 683.582334 L737.005131 660.077588 L719.910770 638.839749 L735.839149 626.018978 L752.933510 647.256817 L782.135539 623.752071 L776.956191 671.667320 L787.575111 663.120140 L794.342048 701.419812 L800.978872 696.077824 Z" fill="#888" fill-opacity="0.18" stroke="#000" stroke-width="1"/>
  <path d="M593.668918 573.907259 L602.733068 617.272221 L594.364721 615.673774 L606.381298 652.663748 L592.991942 650.106233 L620.071545 689.973411 L583.250815 682.940245 L578.135785 709.718957 L558.051751 705.882685 L563.166781 679.103972 L526.346051 672.070806 L566.213229 644.991203 L552.823873 642.433688 L577.628025 612.476880 L569.259678 610.878433 Z" fill="#888" fill-opacity="0.18" stroke="#000" stroke-width="1"/>
  <path d="M349.168397 207.097658 L389.808910 224.733631 L383.672309 230.643487 L420.812256 242.188207 L410.993695 251.643977 L459.179524 252.550956 L432.178479 278.554324 L451.090020 298.191448 L436.362177 312.375103 L417.450637 292.737979 L390.449592 318.741347 L391.356571 270.555518 L381.538009 280.011288 L371.399106 242.463200 L365.262505 248.373056 Z" fill="#888" fill-opacity="0.18" stroke="#000" stroke-width="1"/>
  <path d="M827.642517 43.650894 L802.658265 80.235945 L798.011825 73.094876 L779.669716 107.390988 L772.235412 95.965277 L762.256895 143.115314 L741.812559 111.694610 L718.961138 126.563218 L707.809682 109.424652 L730.661103 94.556044 L710.216767 63.135339 L757.366804 73.113856 L749.932500 61.688145 L788.718945 58.812737 L784.072505 51.671668 Z" fill="#888" fill-opacity="0.18" stroke="#000" stroke-width="1"/>
  <path d="M709.733836 505.064976 L670.970907 483.614704 L677.645728 478.320269 L641.783383 463.268742 L652.463097 454.797646 L604.586074 449.276101 L633.955287 425.980588 L617.013096 404.621161 L633.032666 391.914517 L649.974857 413.273945 L679.344070 389.978432 L673.822524 437.855455 L684.502238 429.384359 L690.995370 467.731400 L697.670192 462.436965 Z" fill="#888" fill-opacity="0.18" stroke="#000" stroke-width="1"/>
  <path d="M699.503027 588.613881 L658.699411 571.358629 L664.780493 565.391660 L627.534236 554.194667 L637.263966 544.647516 L589.071763 544.191068 L615.828521 517.936403 L596.734218 498.476943 L611.328814 484.156216 L630.423116 503.615676 L657.179874 477.361011 L656.723426 525.553214 L666.453156 516.006063 L676.942655 553.457721 L683.023737 547.490751 Z" fill="#888" fill-opacity="0.18" stroke="#000" stroke-width="1"/>
  <path d="M736.156015 266.727414 L736.082255 222.425344 L743.951983 225.689031 L739.693328 187.030007 L752.284894 192.251906 L733.860728 147.718246 L768.487532 162.078468 L778.931330 136.895337 L797.818678 144.728185 L787.374880 169.911316 L822.001684 184.271538 L777.468024 202.695704 L790.059589 207.917602 L759.691440 232.216405 L767.561168 235.480091 Z" fill="#888" fill-opacity="0.18" stroke="#000" stroke-width="1"/>
</svg>
