<?xml version="1.0" encoding="UTF-8"?>
<svg xmlns="http://www.w3.org/2000/svg" width="1100" height="1100" viewBox="0 0 1100 1100">
  <rect x="0" y="0" width="1100" height="1100" fill="white"/>
  <text x="10.0" y="18.0" font-family="monospace" font-size="12">prefix=N83_job5048484_task83 run_id=83 L=7.17517072895 feas=0.000e+00 N=83</text>
  <rect x="40.000000" y="40.000000" width="1020.000000" height="1020.000000" fill="none" stroke="#000" stroke-width="2"/>
  <path d="M270.956646 576.619594 L240.581413 611.431615 L236.648453 603.464709 L213.433338 636.723744 L207.140602 623.976693 L191.004815 671.576160 L173.699791 636.521770 L148.205690 649.107242 L138.766586 629.986666 L164.260687 617.401194 L146.955663 582.346804 L194.555130 598.482591 L188.262394 585.735540 L228.782533 587.530895 L224.849573 579.563988 Z" fill="#888" fill-opacity="0.18" stroke="#000" stroke-width="1"/>
  <path d="M141.084918 430.813330 L176.216556 460.818322 L168.291732 464.835403 L201.794671 487.697120 L189.114953 494.124450 L236.882574 509.755420 L202.013349 527.430578 L214.868009 552.790015 L195.848432 562.431010 L182.993771 537.071574 L148.124546 554.746732 L163.755516 506.979111 L151.075798 513.406441 L152.442085 472.869566 L144.517261 476.886647 Z" fill="#888" fill-opacity="0.18" stroke="#000" stroke-width="1"/>
  <path d="M862.189143 743.608164 L824.109246 769.770218 L822.281655 761.075410 L791.523124 787.514353 L788.598978 773.602660 L761.130111 815.692258 L753.088709 777.435103 L725.265323 783.283395 L720.879104 762.415855 L748.702489 756.567563 L740.661088 718.310408 L782.750685 745.779275 L779.826539 731.867582 L818.626472 743.685794 L816.798881 734.990986 Z" fill="#888" fill-opacity="0.18" stroke="#000" stroke-width="1"/>
  <path d="M546.037769 280.527360 L580.284224 311.538841 L572.246206 315.324344 L605.071861 339.148309 L592.211032 345.205115 L639.505120 362.215173 L604.137840 378.871390 L616.251452 404.593049 L596.960208 413.678258 L584.846596 387.956599 L549.479315 404.612816 L566.489373 357.318728 L553.628544 363.375534 L556.170169 322.895352 L548.132151 326.680856 Z" fill="#888" fill-opacity="0.18" stroke="#000" stroke-width="1"/>
  <path d="M622.188227 258.116767 L592.215430 222.957657 L600.673615 220.237568 L571.185253 192.389023 L584.718349 188.036881 L540.005253 165.084497 L577.221267 153.116105 L568.516983 126.049913 L588.816627 119.521700 L597.520911 146.587892 L634.736925 134.619501 L611.784541 179.332597 L625.317637 174.980454 L617.589985 214.797390 L626.048170 212.077301 Z" fill="#888" fill-opacity="0.18" stroke="#000" stroke-width="1"/>
  <path d="M517.695592 776.465336 L538.819306 735.376161 L544.550838 742.165073 L559.097116 704.303341 L568.267566 715.165600 L572.497088 665.083826 L597.715826 694.955039 L619.440344 676.614138 L633.196020 692.907526 L611.471502 711.248427 L636.690240 741.119639 L586.608467 736.890118 L595.778917 747.752377 L556.013901 755.742897 L561.745432 762.531809 Z" fill="#888" fill-opacity="0.18" stroke="#000" stroke-width="1"/>
  <path d="M308.291945 186.305470 L353.909328 178.985226 L351.834713 187.624424 L390.955660 176.916648 L387.636276 190.739366 L430.491530 164.481033 L421.363223 202.493506 L449.008658 209.132274 L444.029582 229.866351 L416.384147 223.227582 L407.255840 261.240055 L380.997507 218.384801 L377.678123 232.207518 L347.685483 204.902821 L345.610867 213.542019 Z" fill="#888" fill-opacity="0.18" stroke="#000" stroke-width="1"/>
  <path d="M713.617510 868.875957 L668.956390 857.047349 L674.359480 849.994237 L634.260232 843.898724 L642.905176 832.613744 L593.080366 839.213833 L616.853962 808.180138 L594.284003 790.890250 L607.251419 773.962780 L629.821379 791.252669 L653.594975 760.218974 L660.195064 810.043784 L668.840009 798.758804 L685.165660 835.888012 L690.568750 828.834900 Z" fill="#888" fill-opacity="0.18" stroke="#000" stroke-width="1"/>
  <path d="M906.337449 343.982316 L948.915950 326.049028 L948.950077 334.933768 L984.413960 315.250833 L984.468563 329.466418 L1019.871018 293.790950 L1020.021175 332.883808 L1048.452345 332.774603 L1048.534248 354.097980 L1020.103079 354.207185 L1020.253236 393.300043 L984.577768 357.897587 L984.632370 372.113172 L949.018330 352.703249 L949.052456 361.587990 Z" fill="#888" fill-opacity="0.18" stroke="#000" stroke-width="1"/>
  <path d="M633.750948 988.875392 L590.210396 973.423793 L596.173739 966.837571 L556.709496 957.473890 L566.250844 946.935934 L516.052585 949.427454 L542.291291 920.448076 L521.215380 901.365380 L535.527402 885.558446 L556.603313 904.641142 L582.842020 875.661764 L585.333539 925.860023 L594.874887 915.322067 L608.100423 953.665126 L614.063766 947.078903 Z" fill="#888" fill-opacity="0.18" stroke="#000" stroke-width="1"/>
  <path d="M577.161921 44.767704 L563.011799 88.748446 L556.251173 82.983576 L548.065071 122.708791 L537.248070 113.485000 L541.231094 163.586980 L511.484342 138.221554 L493.036760 159.855556 L476.811258 146.019869 L495.258841 124.385868 L465.512089 99.020442 L515.614069 95.037418 L504.797068 85.813626 L542.729922 71.453837 L535.969297 65.688968 Z" fill="#888" fill-opacity="0.18" stroke="#000" stroke-width="1"/>
  <path d="M805.255214 483.762439 L833.617683 520.233002 L825.045803 522.570233 L853.252863 551.715845 L839.537855 555.455414 L883.174300 580.394011 L845.458027 590.677827 L852.937167 618.107844 L832.364655 623.717198 L824.885515 596.287182 L787.169243 606.570999 L812.107839 562.934554 L798.392831 566.674124 L807.902043 527.244695 L799.330162 529.581926 Z" fill="#888" fill-opacity="0.18" stroke="#000" stroke-width="1"/>
  <path d="M847.762564 647.626487 L875.814413 610.916470 L880.256143 618.611326 L901.263761 583.915721 L908.370529 596.227491 L921.383033 547.681146 L940.926646 581.538513 L965.550185 567.324976 L976.210338 585.792631 L951.586798 600.006167 L971.130411 633.863534 L922.584066 620.851031 L929.690834 633.162800 L889.139603 634.001038 L893.581334 641.695894 Z" fill="#888" fill-opacity="0.18" stroke="#000" stroke-width="1"/>
  <path d="M913.522582 242.507658 L951.711401 216.504856 L953.502666 225.207220 L984.371340 198.896957 L987.237365 212.820740 L1014.881762 170.846221 L1022.763329 209.136625 L1050.610895 203.404576 L1054.909932 224.290251 L1027.062365 230.022299 L1034.943933 268.312703 L992.969414 240.668306 L995.835438 254.592089 L957.085197 242.611949 L958.876462 251.314313 Z" fill="#888" fill-opacity="0.18" stroke="#000" stroke-width="1"/>
  <path d="M59.270873 247.752860 L102.032733 230.261294 L101.974885 239.145912 L137.640621 219.831144 L137.548065 234.046532 L173.317926 198.739453 L173.063396 237.831770 L201.494173 238.016883 L201.355338 259.339966 L172.924562 259.154853 L172.670031 298.247171 L137.362952 262.477309 L137.270395 276.692697 L101.859190 256.915147 L101.801342 265.799765 Z" fill="#888" fill-opacity="0.18" stroke="#000" stroke-width="1"/>
  <path d="M861.110155 1047.929097 L885.349193 1008.597168 L890.538364 1015.809122 L907.970004 979.186139 L916.272678 990.725266 L924.363810 941.120765 L947.196162 972.853363 L970.274415 956.248016 L982.728426 973.556705 L959.650173 990.162053 L982.482525 1021.894651 L932.878025 1013.803519 L941.180699 1025.342645 L900.916706 1030.233030 L906.105877 1037.444984 Z" fill="#888" fill-opacity="0.18" stroke="#000" stroke-width="1"/>
  <path d="M218.152888 937.303707 L172.822052 946.228219 L174.590692 937.521228 L135.871721 949.602050 L138.701544 935.670865 L96.799022 963.424271 L104.581036 925.113510 L76.718665 919.453864 L80.963400 898.557085 L108.825771 904.216732 L116.607785 865.905971 L144.361191 907.808493 L147.191014 893.877308 L178.127971 920.107246 L179.896610 911.400255 Z" fill="#888" fill-opacity="0.18" stroke="#000" stroke-width="1"/>
  <path d="M49.902558 726.832063 L83.346594 694.956869 L86.531241 703.251313 L112.702793 672.264947 L117.798229 685.536057 L138.237415 639.619693 L152.249863 676.115246 L178.792084 665.924375 L186.435237 685.831040 L159.893017 696.021911 L173.905464 732.517465 L127.989100 712.078278 L133.084535 725.349388 L92.900536 719.840200 L96.085183 728.134644 Z" fill="#888" fill-opacity="0.18" stroke="#000" stroke-width="1"/>
  <path d="M512.648254 899.074594 L512.659025 945.275584 L504.456869 941.860263 L508.840328 982.182593 L495.716878 976.718079 L514.864218 1023.187986 L478.774732 1008.160574 L467.845705 1034.407473 L448.160531 1026.210702 L459.089558 999.963804 L423.000072 984.936392 L469.469980 965.789052 L456.346530 960.324538 L488.052557 935.029621 L479.850401 931.614300 Z" fill="#888" fill-opacity="0.18" stroke="#000" stroke-width="1"/>
  <path d="M649.699146 714.512241 L634.186918 670.993253 L643.059536 671.458463 L625.400617 634.944527 L639.596806 635.688863 L605.967174 598.337549 L645.006695 600.384474 L646.495367 571.992095 L667.789651 573.108599 L666.300979 601.500978 L705.340500 603.547903 L667.989185 637.177536 L682.185375 637.921872 L660.804773 672.388883 L669.677392 672.854094 Z" fill="#888" fill-opacity="0.18" stroke="#000" stroke-width="1"/>
  <path d="M960.306883 660.378496 L927.052700 692.451707 L923.818859 684.176319 L897.831755 715.317536 L892.657610 702.076915 L872.491419 748.113831 L858.262521 711.702122 L831.781278 722.050412 L824.020060 702.189480 L850.501303 691.841190 L836.272404 655.429481 L882.309320 675.595672 L877.135175 662.355051 L917.351178 667.625542 L914.117337 659.350154 Z" fill="#888" fill-opacity="0.18" stroke="#000" stroke-width="1"/>
  <path d="M89.323509 735.230485 L107.812933 777.570452 L98.929402 777.720944 L119.075139 812.923987 L104.861489 813.164774 L140.997583 848.096931 L101.910045 848.759096 L102.391619 877.186397 L81.071144 877.547578 L80.589569 849.120277 L41.502031 849.782442 L76.434189 813.646349 L62.220538 813.887136 L81.162339 778.021928 L72.278808 778.172420 Z" fill="#888" fill-opacity="0.18" stroke="#000" stroke-width="1"/>
  <path d="M550.881560 354.905750 L515.652011 384.795723 L512.951835 376.331160 L485.033971 405.753903 L480.713689 392.210603 L457.656142 436.869560 L445.775366 399.625483 L418.688765 408.266047 L412.208342 387.951096 L439.294943 379.310532 L427.414167 342.066455 L472.073124 365.124001 L467.752842 351.580701 L507.551482 359.402034 L504.851306 350.937471 Z" fill="#888" fill-opacity="0.18" stroke="#000" stroke-width="1"/>
  <path d="M290.427549 989.624978 L251.712591 1014.837745 L250.100484 1006.100418 L218.697810 1031.770965 L216.118439 1017.791241 L187.617556 1059.188978 L180.524287 1020.744737 L152.564839 1025.903479 L148.695783 1004.933893 L176.655231 999.775152 L169.561961 961.330911 L210.959697 989.831794 L208.380327 975.852070 L246.876271 988.625763 L245.264164 979.888436 Z" fill="#888" fill-opacity="0.18" stroke="#000" stroke-width="1"/>
  <path d="M744.743234 634.224932 L710.888644 602.786129 L718.973534 599.101793 L686.449435 574.867770 L699.385259 568.972833 L652.308357 551.370613 L687.881874 535.159538 L676.092002 509.287889 L695.495738 500.445484 L707.285611 526.317133 L742.859129 510.106058 L725.256908 557.182961 L738.192733 551.288024 L735.143315 591.733123 L743.228205 588.048788 Z" fill="#888" fill-opacity="0.18" stroke="#000" stroke-width="1"/>
  <path d="M822.670802 229.747031 L819.819889 183.634083 L828.216486 186.538725 L821.362541 146.562127 L834.797095 151.209554 L812.829277 106.004600 L849.774301 118.785025 L859.069155 91.915916 L879.220987 98.887056 L869.926133 125.756165 L906.871158 138.536589 L861.666204 160.504408 L875.100759 165.151835 L845.009679 192.348009 L853.406276 195.252651 Z" fill="#888" fill-opacity="0.18" stroke="#000" stroke-width="1"/>
  <path d="M517.982113 863.790320 L480.728254 891.115795 L478.633041 882.481569 L448.705605 909.857719 L445.353264 896.042957 L419.197212 938.960714 L409.978275 900.970119 L382.348751 907.674801 L377.320240 886.952659 L404.949763 880.247977 L395.730826 842.257382 L438.648582 868.413434 L435.296241 854.598672 L474.442615 865.213117 L472.347401 856.578891 Z" fill="#888" fill-opacity="0.18" stroke="#000" stroke-width="1"/>
  <path d="M249.783433 840.786791 L203.992674 834.643668 L208.470059 826.969504 L167.923154 825.943122 L175.086972 813.664459 L126.480772 826.451572 L146.181270 792.685250 L121.623944 778.357616 L132.369670 759.939622 L156.926995 774.267256 L176.627493 740.500935 L189.414606 789.107134 L196.578423 776.828471 L217.424831 811.621176 L221.902217 803.947011 Z" fill="#888" fill-opacity="0.18" stroke="#000" stroke-width="1"/>
  <path d="M944.348698 181.346067 L918.021106 143.380432 L926.707875 141.515004 L900.135271 110.871869 L914.034101 107.887185 L871.825313 80.601820 L910.047097 72.393937 L904.077727 44.596276 L924.925973 40.119249 L930.895342 67.916910 L969.117126 59.709027 L941.831762 101.917815 L955.730592 98.933130 L944.081413 137.784148 L952.768182 135.918720 Z" fill="#888" fill-opacity="0.18" stroke="#000" stroke-width="1"/>
  <path d="M900.116716 878.361608 L893.067188 832.701606 L901.693929 834.827430 L891.218394 795.643656 L905.021179 799.044974 L879.017511 756.034717 L916.975169 765.388341 L923.777805 737.782771 L944.481982 742.884748 L937.679346 770.490318 L975.637005 779.843941 L932.626748 805.847609 L946.429533 809.248927 L918.947410 839.079077 L927.574150 841.204901 Z" fill="#888" fill-opacity="0.18" stroke="#000" stroke-width="1"/>
  <path d="M807.703558 1059.199743 L777.753888 1024.020931 L786.213860 1021.306405 L756.743817 993.438475 L770.279772 989.095233 L725.581779 966.113450 L762.805655 954.169535 L754.119171 927.097624 L774.423104 920.582761 L783.109588 947.654671 L820.333464 935.710756 L797.351682 980.408748 L810.887637 976.065506 L803.133804 1015.877352 L811.593776 1013.162826 Z" fill="#888" fill-opacity="0.18" stroke="#000" stroke-width="1"/>
  <path d="M665.538855 516.261828 L628.881914 544.382999 L626.601303 535.795881 L597.270178 563.809987 L593.621199 550.070598 L568.395176 593.541515 L558.360484 555.758198 L530.881708 563.056155 L525.408240 542.447073 L552.887016 535.149116 L542.852325 497.365799 L586.323242 522.591822 L582.674263 508.852434 L622.040079 518.621646 L619.759468 510.034528 Z" fill="#888" fill-opacity="0.18" stroke="#000" stroke-width="1"/>
  <path d="M260.694432 982.671360 L229.534921 948.559538 L237.894972 945.551327 L207.470018 918.729187 L220.846099 913.916051 L175.373055 892.508689 L212.157278 879.272564 L202.531005 852.520401 L222.595126 845.300696 L232.221400 872.052859 L269.005623 858.816733 L247.598262 904.289777 L260.974343 899.476640 L254.615073 939.534906 L262.975124 936.526696 Z" fill="#888" fill-opacity="0.18" stroke="#000" stroke-width="1"/>
  <path d="M778.866283 393.642526 L738.551808 371.075411 L745.539645 365.588160 L708.217403 349.708764 L719.397942 340.929164 L669.497594 334.926818 L700.244075 310.782917 L682.684874 288.421839 L699.455682 275.252439 L717.014883 297.613516 L747.761365 273.469615 L741.759019 323.369963 L752.939558 314.590362 L759.515318 354.613660 L766.503155 349.126409 Z" fill="#888" fill-opacity="0.18" stroke="#000" stroke-width="1"/>
  <path d="M74.450651 682.871535 L64.500696 637.754687 L73.245547 639.325467 L60.289997 600.890344 L74.281759 603.403593 L45.585477 562.141065 L84.062823 569.052500 L89.089321 541.068976 L110.076965 544.838850 L105.050466 572.822374 L143.527812 579.733809 L102.265284 608.430092 L116.257046 610.943341 L90.735250 642.467029 L99.480101 644.037810 Z" fill="#888" fill-opacity="0.18" stroke="#000" stroke-width="1"/>
  <path d="M404.226261 943.205303 L358.828804 951.784491 L360.663671 943.091215 L321.853861 954.876952 L324.789649 940.967711 L282.677077 968.401344 L290.750494 930.150931 L262.932012 924.279356 L267.335694 903.415494 L295.154175 909.287070 L303.227592 871.036658 L330.661224 913.149229 L333.597012 899.239988 L364.333406 925.704664 L366.168274 917.011388 Z" fill="#888" fill-opacity="0.18" stroke="#000" stroke-width="1"/>
  <path d="M788.740376 551.431295 L765.979444 511.225927 L774.799992 510.159295 L751.128256 477.223693 L765.241134 475.517081 L725.692411 444.501417 L764.502824 439.808235 L761.089601 411.582480 L782.258917 409.022562 L785.672140 437.248317 L824.482553 432.555135 L793.466889 472.103858 L807.579766 470.397246 L792.441089 508.026031 L801.261637 506.959398 Z" fill="#888" fill-opacity="0.18" stroke="#000" stroke-width="1"/>
  <path d="M158.549644 304.168169 L180.473766 344.835901 L171.633035 345.719788 L194.618194 379.138159 L180.473024 380.552379 L219.371498 412.379751 L180.472283 416.268857 L183.300723 444.559195 L162.082969 446.680526 L159.254529 418.390187 L120.355313 422.279293 L152.182686 383.380819 L138.037517 384.795040 L153.951574 347.487564 L145.110843 348.371451 Z" fill="#888" fill-opacity="0.18" stroke="#000" stroke-width="1"/>
  <path d="M58.978496 253.183133 L87.502288 289.527663 L78.940849 291.902853 L107.276777 320.923193 L93.578474 324.723498 L137.324993 349.468495 L99.654659 359.919333 L107.255268 387.315940 L86.707812 393.016396 L79.107204 365.619789 L41.436869 376.070626 L66.181867 332.324107 L52.483563 336.124411 L61.817969 296.653234 L53.256530 299.028424 Z" fill="#888" fill-opacity="0.18" stroke="#000" stroke-width="1"/>
  <path d="M846.394923 415.276424 L884.590097 441.269890 L877.150785 446.127505 L912.947729 465.197999 L901.044831 472.970183 L950.232536 483.296970 L917.499565 504.670475 L933.043932 528.476272 L915.189584 540.134547 L899.645217 516.328750 L866.912246 537.702255 L877.239034 488.514550 L865.336135 496.286733 L862.272162 455.842734 L854.832850 460.700349 Z" fill="#888" fill-opacity="0.18" stroke="#000" stroke-width="1"/>
  <path d="M711.682774 724.611044 L735.658141 685.117837 L740.895444 692.294915 L758.081689 655.556135 L766.461372 667.039459 L774.220473 617.381939 L797.264603 648.961080 L820.231251 632.201712 L832.800777 649.426698 L809.834129 666.186066 L832.878260 697.765207 L783.220740 690.006107 L791.600424 701.489431 L751.370049 706.649070 L756.607351 713.826147 Z" fill="#888" fill-opacity="0.18" stroke="#000" stroke-width="1"/>
  <path d="M697.893879 195.212693 L690.161034 240.761949 L682.647323 236.020227 L680.210598 276.506858 L668.188661 268.920103 L679.276615 317.941834 L646.216288 297.078257 L631.042777 321.122131 L613.009871 309.741998 L628.183382 285.698124 L595.123055 264.834546 L644.144786 253.746592 L632.122849 246.159836 L667.619902 226.536782 L660.106191 221.795060 Z" fill="#888" fill-opacity="0.18" stroke="#000" stroke-width="1"/>
  <path d="M421.558300 696.444617 L446.706455 735.201576 L437.966450 736.799107 L463.584581 768.244557 L449.600574 770.800606 L490.950713 799.370501 L452.494694 806.399635 L457.606791 834.367648 L436.630781 838.201721 L431.518684 810.233708 L393.062665 817.262841 L421.632561 775.912703 L407.648554 778.468751 L420.486442 739.994167 L411.746438 741.591698 Z" fill="#888" fill-opacity="0.18" stroke="#000" stroke-width="1"/>
  <path d="M174.363402 46.914753 L211.426197 74.498821 L203.788286 79.037773 L238.747502 99.603721 L226.526844 106.866046 L275.234300 119.261879 L241.627491 139.233271 L256.152140 163.674587 L237.821153 174.568073 L223.296504 150.126758 L189.689696 170.098150 L202.085529 121.390695 L189.864871 128.653019 L188.512464 88.115679 L180.874553 92.654632 Z" fill="#888" fill-opacity="0.18" stroke="#000" stroke-width="1"/>
  <path d="M270.001237 587.561408 L276.913830 633.242341 L268.293502 631.090661 L278.651504 670.305668 L264.858980 666.862980 L290.733572 709.951011 L252.804130 700.483620 L245.918754 728.068669 L225.229968 722.904638 L232.115343 695.319588 L194.185900 685.852198 L237.273931 659.977605 L223.481406 656.534918 L251.052846 626.787302 L242.432518 624.635622 Z" fill="#888" fill-opacity="0.18" stroke="#000" stroke-width="1"/>
  <path d="M917.911864 372.012979 L873.897044 357.969218 L879.645553 351.194676 L839.900665 343.104631 L849.098280 332.265364 L799.006075 336.369495 L824.299516 306.561510 L802.620982 288.166280 L816.417404 271.907380 L838.095939 290.302610 L863.389380 260.494625 L867.493510 310.586830 L876.691125 299.747563 L891.142572 337.645593 L896.891081 330.871051 Z" fill="#888" fill-opacity="0.18" stroke="#000" stroke-width="1"/>
  <path d="M625.748086 646.489923 L584.066263 666.418726 L583.611581 657.545562 L549.119225 678.885252 L548.391734 664.688190 L514.717806 701.999576 L512.717204 662.957653 L484.323079 664.412637 L483.231841 643.117043 L511.625967 641.662059 L509.625365 602.620137 L546.936750 636.294065 L546.209259 622.097002 L582.702216 639.799234 L582.247534 630.926070 Z" fill="#888" fill-opacity="0.18" stroke="#000" stroke-width="1"/>
  <path d="M311.973767 516.708980 L276.761579 486.798558 L284.675573 482.760183 L251.111285 459.988631 L263.773676 453.527231 L215.964199 438.024754 L250.785773 420.255904 L237.862973 394.931122 L256.856559 385.239022 L269.779360 410.563804 L304.600934 392.794954 L289.098458 440.604431 L301.760848 434.143031 L300.503561 474.683433 L308.417555 470.645058 Z" fill="#888" fill-opacity="0.18" stroke="#000" stroke-width="1"/>
  <path d="M973.553517 637.062660 L1003.182042 672.512372 L994.697735 675.149854 L1023.913136 703.284624 L1010.338244 707.504594 L1054.825399 730.891898 L1017.494447 742.496816 L1025.934387 769.646599 L1005.572049 775.976554 L997.132109 748.826771 L959.801157 760.431689 L983.188461 715.944534 L969.613569 720.164504 L977.729120 680.424816 L969.244813 683.062298 Z" fill="#888" fill-opacity="0.18" stroke="#000" stroke-width="1"/>
  <path d="M783.889366 192.844280 L738.039637 198.530571 L740.421488 189.970982 L700.943059 199.274671 L704.754022 185.579329 L660.988260 210.290279 L671.468407 172.628088 L644.077723 165.006163 L649.794166 144.463150 L677.184851 152.085075 L687.664997 114.422884 L712.375947 158.188645 L716.186909 144.493303 L745.185191 172.851804 L747.567043 164.292215 Z" fill="#888" fill-opacity="0.18" stroke="#000" stroke-width="1"/>
  <path d="M492.774162 764.470274 L533.743228 785.826004 L526.922014 791.519054 L564.700883 806.279202 L553.786941 815.388081 L603.843996 819.900740 L573.830653 844.950158 L592.048411 866.778044 L575.677497 880.441363 L557.459739 858.613477 L527.446395 883.662895 L531.959055 833.605840 L521.045112 842.714719 L513.279585 802.905153 L506.458371 808.598202 Z" fill="#888" fill-opacity="0.18" stroke="#000" stroke-width="1"/>
  <path d="M768.658760 409.921967 L723.252080 418.452209 L725.096318 409.760917 L686.273825 421.504808 L689.224606 407.598740 L647.082484 434.986957 L655.197132 396.745271 L627.384996 390.843709 L631.811167 369.984607 L659.623303 375.886169 L667.737950 337.644482 L695.126168 379.786604 L698.076949 365.880536 L728.784795 392.378332 L730.629033 383.687039 Z" fill="#888" fill-opacity="0.18" stroke="#000" stroke-width="1"/>
  <path d="M293.898236 208.237209 L282.955239 163.350881 L291.732619 164.728332 L277.932185 126.588419 L291.975993 128.792340 L262.376274 88.173015 L300.996748 94.233798 L305.404590 66.146181 L326.470303 69.452062 L322.062461 97.539680 L360.682935 103.600463 L320.063611 133.200182 L334.107419 135.404103 L309.287380 167.483233 L318.064760 168.860684 Z" fill="#888" fill-opacity="0.18" stroke="#000" stroke-width="1"/>
  <path d="M850.787799 887.537447 L896.627782 881.773109 L894.260506 890.336741 L933.723038 880.965856 L929.935397 894.667666 L973.659026 869.882245 L963.243012 907.562223 L990.646632 915.137506 L984.965170 935.690221 L957.561549 928.114938 L947.145535 965.794916 L922.360113 922.071286 L918.572472 935.773097 L889.525954 907.464004 L887.158678 916.027635 Z" fill="#888" fill-opacity="0.18" stroke="#000" stroke-width="1"/>
  <path d="M342.435588 873.702816 L301.834535 851.655456 L308.751304 846.078890 L271.228150 830.680258 L282.294981 821.757753 L232.321642 816.396939 L262.755426 791.860051 L244.910416 769.726390 L261.510662 756.342632 L279.355672 778.476293 L309.789456 753.939405 L304.428642 803.912743 L315.495472 794.990239 L322.584842 834.925759 L329.501611 829.349194 Z" fill="#888" fill-opacity="0.18" stroke="#000" stroke-width="1"/>
  <path d="M707.490953 1013.942122 L692.400791 970.274988 L701.268490 970.826079 L683.963916 934.142885 L698.152233 935.024630 L664.885802 897.349474 L703.903675 899.774273 L705.667166 871.397637 L726.949642 872.720255 L725.186152 901.096890 L764.204025 903.521689 L726.528868 936.788121 L740.717186 937.669866 L719.003887 971.928260 L727.871585 972.479351 Z" fill="#888" fill-opacity="0.18" stroke="#000" stroke-width="1"/>
  <path d="M905.613961 457.267610 L944.400580 432.165224 L945.987792 440.907108 L977.463461 415.326114 L980.003000 429.313128 L1008.621687 387.996744 L1015.605421 426.461033 L1043.579450 421.381954 L1047.388759 442.362475 L1019.414730 447.441554 L1026.398464 485.905844 L985.082079 457.287157 L987.621619 471.274171 L949.162216 458.390876 L950.749429 467.132760 Z" fill="#888" fill-opacity="0.18" stroke="#000" stroke-width="1"/>
  <path d="M169.553945 1058.041403 L123.704814 1052.350289 L128.106279 1044.632330 L87.551222 1044.005980 L94.593566 1031.657246 L46.115872 1044.923221 L65.482317 1010.964203 L40.784850 996.879515 L51.348366 978.356415 L76.045833 992.441102 L95.412279 958.482085 L108.678253 1006.959778 L115.720597 994.611045 L136.909209 1029.196413 L141.310674 1021.478455 Z" fill="#888" fill-opacity="0.18" stroke="#000" stroke-width="1"/>
  <path d="M739.150406 55.560356 L703.573980 85.036609 L700.972901 76.541071 L672.713121 105.635569 L668.551396 92.042708 L644.973557 136.429175 L633.528812 99.048807 L606.343090 107.372258 L600.100501 86.982966 L627.286223 78.659515 L615.841478 41.279147 L660.227945 64.856986 L656.066219 51.264125 L695.770744 59.549995 L693.169666 51.054457 Z" fill="#888" fill-opacity="0.18" stroke="#000" stroke-width="1"/>
  <path d="M390.758474 736.621165 L348.835844 717.204043 L355.383456 711.198334 L316.955871 698.220444 L327.432051 688.611309 L277.218762 686.443696 L306.028258 660.018574 L286.809988 639.066213 L302.524259 624.652511 L321.742529 645.604871 L350.552025 619.179750 L348.384412 669.393038 L358.860592 659.783903 L368.478682 699.186915 L375.026294 693.181205 Z" fill="#888" fill-opacity="0.18" stroke="#000" stroke-width="1"/>
  <path d="M100.902862 389.333299 L116.916580 432.670263 L108.039181 432.307538 L126.118559 468.615128 L111.914721 468.034768 L145.973416 504.995263 L106.912862 503.399273 L105.752142 531.806949 L84.446385 530.936409 L85.607105 502.528733 L46.546550 500.932744 L83.507045 466.874048 L69.303207 466.293688 L90.284384 431.582088 L81.406985 431.219363 Z" fill="#888" fill-opacity="0.18" stroke="#000" stroke-width="1"/>
  <path d="M488.535321 200.887116 L485.455549 246.985344 L477.500225 243.029007 L479.176588 283.554243 L466.448070 277.224103 L482.444015 324.870747 L447.440591 307.462863 L434.780312 332.919898 L415.687535 323.424688 L428.347815 297.967653 L393.344391 280.559769 L440.991035 264.563824 L428.262517 258.233684 L461.589578 235.116332 L453.634254 231.159995 Z" fill="#888" fill-opacity="0.18" stroke="#000" stroke-width="1"/>
  <path d="M386.850278 575.201061 L385.817285 529.011619 L394.092999 532.244626 L388.818457 492.029154 L402.059599 497.201966 L381.888772 451.167081 L418.301914 465.392313 L428.647537 438.910028 L448.509250 446.669245 L438.163627 473.151530 L474.576769 487.376762 L428.541884 507.547589 L441.783027 512.720400 L410.644427 538.710641 L418.920141 541.943648 Z" fill="#888" fill-opacity="0.18" stroke="#000" stroke-width="1"/>
  <path d="M211.570036 177.525519 L170.818912 199.294246 L169.968777 190.450205 L136.462912 213.307633 L135.102697 199.157168 L103.127074 237.933868 L99.386482 199.020090 L71.085553 201.740521 L69.045230 180.514824 L97.346159 177.794394 L93.605566 138.880616 L132.382266 170.856239 L131.022051 156.705775 L168.268508 172.762125 L167.418373 163.918085 Z" fill="#888" fill-opacity="0.18" stroke="#000" stroke-width="1"/>
  <path d="M712.563501 496.296315 L666.472653 493.108012 L670.447710 485.162026 L629.918639 486.742967 L636.278731 474.029389 L588.594556 489.913104 L606.084809 454.950765 L580.657653 442.230581 L590.197790 423.160214 L615.624946 435.880398 L633.115199 400.918059 L648.998914 448.602233 L655.359006 435.888655 L678.397825 469.270054 L682.372882 461.324068 Z" fill="#888" fill-opacity="0.18" stroke="#000" stroke-width="1"/>
  <path d="M798.419252 333.016951 L766.820509 299.311595 L775.140893 296.195351 L744.371068 269.769551 L757.683683 264.783560 L711.937167 243.967001 L748.546858 230.255524 L738.574875 203.630294 L758.543797 196.151307 L768.515781 222.776537 L805.125472 209.065060 L784.308913 254.811577 L797.621528 249.825585 L791.781662 289.962861 L800.102046 286.846616 Z" fill="#888" fill-opacity="0.18" stroke="#000" stroke-width="1"/>
  <path d="M254.523497 1018.277554 L292.644545 992.175500 L294.458442 1000.873175 L325.258571 974.482703 L328.160805 988.398983 L355.695920 946.352695 L363.677066 984.622467 L391.509627 978.817998 L395.862979 999.692419 L368.030418 1005.496888 L376.011563 1043.766659 L333.965275 1016.231545 L336.867509 1030.147825 L298.086235 1018.268526 L299.900132 1026.966201 Z" fill="#888" fill-opacity="0.18" stroke="#000" stroke-width="1"/>
  <path d="M495.534856 721.175022 L455.707319 697.759240 L462.809790 692.421199 L425.832191 675.755002 L437.196146 667.214137 L387.434098 660.156413 L418.684973 636.669035 L401.603243 613.941126 L418.649175 601.129829 L435.730904 623.857738 L466.981779 600.370360 L459.924055 650.132408 L471.288009 641.591543 L477.014734 681.745118 L484.117205 676.407078 Z" fill="#888" fill-opacity="0.18" stroke="#000" stroke-width="1"/>
  <path d="M429.605357 374.686267 L384.072546 366.857174 L388.830137 359.353502 L348.348746 356.831216 L355.960892 344.825340 L306.915836 355.809666 L327.849238 322.793506 L303.837485 307.569214 L315.255704 289.560400 L339.267457 304.784692 L360.200858 271.768532 L371.185184 320.813588 L378.797330 308.807712 L398.345319 344.346156 L403.102911 336.842484 Z" fill="#888" fill-opacity="0.18" stroke="#000" stroke-width="1"/>
  <path d="M463.101119 177.337378 L421.545248 157.147251 L428.202953 151.263822 L390.022285 137.576545 L400.674613 128.163059 L350.510076 125.065954 L379.803979 99.178866 L360.977006 77.874209 L376.955498 63.753979 L395.782471 85.058636 L425.076375 59.171548 L421.979270 109.336085 L432.631599 99.922599 L441.518364 139.496964 L448.176069 133.613535 Z" fill="#888" fill-opacity="0.18" stroke="#000" stroke-width="1"/>
  <path d="M174.973089 274.241699 L218.885951 288.601092 L213.088953 295.334189 L252.774737 303.709365 L243.499541 314.482320 L293.619920 310.737921 L268.113131 340.363549 L289.659042 358.913941 L275.746249 375.073374 L254.200337 356.522982 L228.693549 386.148610 L224.949149 336.028232 L215.673953 346.801187 L201.494959 308.800384 L195.697961 315.533481 Z" fill="#888" fill-opacity="0.18" stroke="#000" stroke-width="1"/>
  <path d="M843.957735 1052.080739 L834.891381 1006.778059 L843.603865 1008.519437 L831.401911 969.838469 L845.341886 972.624673 L817.457460 930.809225 L855.792391 938.471288 L861.364800 910.591338 L882.274762 914.770645 L876.702353 942.650595 L915.037284 950.312657 L873.221835 978.197083 L887.161810 980.983287 L861.028833 1012.002193 L869.741318 1013.743570 Z" fill="#888" fill-opacity="0.18" stroke="#000" stroke-width="1"/>
  <path d="M856.689320 766.839658 L851.937128 812.795596 L844.130763 808.552904 L844.333998 849.112288 L831.843813 842.323981 L846.098506 890.520211 L811.750498 871.852366 L798.173883 896.832735 L779.438606 886.650274 L793.015221 861.669904 L758.667213 843.002059 L806.863444 828.747366 L794.373259 821.959058 L828.518032 800.067520 L820.711666 795.824827 Z" fill="#888" fill-opacity="0.18" stroke="#000" stroke-width="1"/>
  <path d="M506.828385 384.113700 L532.845584 422.292712 L524.143896 424.087259 L550.465795 454.946011 L536.543094 457.817285 L578.528032 485.445854 L540.240603 493.341857 L545.983151 521.187260 L525.099099 525.494171 L519.356551 497.648768 L481.069122 505.544771 L508.697691 463.559833 L494.774989 466.431107 L506.740519 427.676351 L498.038830 429.470897 Z" fill="#888" fill-opacity="0.18" stroke="#000" stroke-width="1"/>
  <path d="M956.285405 483.125677 L993.521388 510.475506 L985.912248 515.062528 L1021.000442 535.407640 L1008.825818 542.746874 L1057.610465 554.835348 L1024.130249 575.018243 L1038.808718 599.367491 L1020.546782 610.376343 L1005.868313 586.027095 L972.388097 606.209990 L984.476571 557.425343 L972.301947 564.764578 L970.693968 524.236571 L963.084828 528.823592 Z" fill="#888" fill-opacity="0.18" stroke="#000" stroke-width="1"/>
  <path d="M328.154720 506.740595 L326.054597 460.587360 L334.402813 463.628258 L328.200329 423.545417 L341.557475 428.410853 L320.328200 382.854396 L357.060353 396.234347 L366.791226 369.520054 L386.826946 376.818209 L377.096072 403.532502 L413.828225 416.912452 L368.271768 438.141727 L381.628914 443.007163 L351.099246 469.710054 L359.447463 472.750952 Z" fill="#888" fill-opacity="0.18" stroke="#000" stroke-width="1"/>
  <path d="M569.816862 603.112289 L523.620209 602.479171 L527.149509 594.325410 L486.770005 598.146484 L492.416885 585.100466 L445.684641 603.598310 L461.213561 567.721761 L435.121526 556.428001 L443.591846 536.858975 L469.683881 548.152735 L485.212802 512.276186 L503.710645 559.008431 L509.357525 545.962413 L534.208109 578.017888 L537.737409 569.864127 Z" fill="#888" fill-opacity="0.18" stroke="#000" stroke-width="1"/>
  <path d="M672.505603 916.264830 L685.774853 960.519306 L676.937576 959.601534 L692.708499 996.969741 L678.568855 995.501307 L710.246878 1034.521504 L671.362857 1030.483308 L668.425987 1058.762596 L647.216521 1056.559943 L650.153391 1028.280655 L611.269370 1024.242460 L650.289567 992.564437 L636.149923 991.096002 L659.263021 957.765990 L650.425743 956.848218 Z" fill="#888" fill-opacity="0.18" stroke="#000" stroke-width="1"/>
  <path d="M852.142882 226.216992 L897.130448 236.736045 L891.935678 243.943967 L932.195861 248.865619 L923.884229 260.398294 L973.494998 252.345687 L950.638009 284.060544 L973.703359 300.683808 L961.235911 317.982821 L938.170560 301.359557 L915.313571 333.074414 L907.260964 283.463645 L898.949332 294.996320 L881.546138 258.359811 L876.351368 265.567733 Z" fill="#888" fill-opacity="0.18" stroke="#000" stroke-width="1"/>
  <path d="M394.107272 617.921232 L348.805727 608.849210 L353.766851 601.478523 L313.369630 597.849538 L321.307429 586.056439 L271.980185 595.694690 L293.809131 563.263668 L270.222933 547.388071 L282.129630 529.698422 L305.715828 545.574019 L327.544774 513.142997 L337.183026 562.470241 L345.120824 550.677142 L363.689099 586.737149 L368.650223 579.366462 Z" fill="#888" fill-opacity="0.18" stroke="#000" stroke-width="1"/>
  <path d="M509.059897 317.681219 L507.317119 271.513109 L515.641545 274.618541 L509.749536 234.488887 L523.068617 239.457578 L502.192641 193.738145 L538.820116 207.402046 L548.757498 180.763883 L568.736121 188.216920 L558.798738 214.855083 L595.426213 228.518984 L549.706781 249.394960 L563.025863 254.363651 L532.290397 280.829405 L540.614823 283.934837 Z" fill="#888" fill-opacity="0.18" stroke="#000" stroke-width="1"/>
  <path d="M45.064578 180.010123 L46.388528 133.828105 L54.488594 137.478956 L51.271851 97.046821 L64.231956 102.888181 L46.435094 55.884516 L82.075385 71.948258 L93.758106 46.028046 L113.198264 54.790088 L101.515543 80.710299 L137.155833 96.774041 L90.152168 114.570903 L103.112273 120.412263 L70.688726 144.780656 L78.788792 148.431507 Z" fill="#888" fill-opacity="0.18" stroke="#000" stroke-width="1"/>
  <path d="M208.237089 218.146915 L254.383036 215.892327 L251.370097 224.250675 L291.431954 217.914066 L286.611251 231.287422 L332.096398 209.905787 L318.839467 246.682517 L345.586179 256.323922 L338.355126 276.383956 L311.608413 266.742552 L298.351482 303.519282 L276.969847 258.034135 L272.149144 271.407491 L245.344219 240.967370 L242.331280 249.325718 Z" fill="#888" fill-opacity="0.18" stroke="#000" stroke-width="1"/>
</svg>
