<?xml version="1.0" encoding="UTF-8"?>
<svg xmlns="http://www.w3.org/2000/svg" width="1100" height="1100" viewBox="0 0 1100 1100">
  <rect x="0" y="0" width="1100" height="1100" fill="white"/>
  <text x="10.0" y="18.0" font-family="monospace" font-size="12">prefix=N85_job5048486_task85 run_id=85 L=7.3392453712 feas=0.000e+00 N=85</text>
  <rect x="40.000000" y="40.000000" width="1020.000000" height="1020.000000" fill="none" stroke="#000" stroke-width="2"/>
  <path d="M422.095835 564.030279 L454.549476 595.445582 L446.572378 598.882966 L477.871531 623.229114 L465.108174 628.728929 L510.766104 646.887785 L475.666872 662.012276 L486.666501 687.538991 L467.521465 695.788713 L456.521836 670.261998 L421.422603 685.386489 L439.581459 639.728559 L426.818102 645.228374 L430.618181 605.757735 L422.641083 609.195119 Z" fill="#888" fill-opacity="0.18" stroke="#000" stroke-width="1"/>
  <path d="M651.729806 485.274582 L671.318842 444.575322 L677.094670 451.062966 L690.338425 413.686840 L699.579749 424.067070 L702.427015 375.013184 L727.840656 403.558818 L748.601117 385.076170 L762.463103 400.646515 L741.702642 419.129163 L767.116283 447.674797 L718.062397 444.827531 L727.303721 455.207761 L688.646325 464.038254 L694.422152 470.525898 Z" fill="#888" fill-opacity="0.18" stroke="#000" stroke-width="1"/>
  <path d="M501.271096 121.399646 L514.784232 164.499011 L506.133965 163.709969 L522.008387 200.046929 L508.167960 198.784463 L539.612863 236.541697 L501.551688 233.069915 L499.026756 260.750770 L478.266115 258.857071 L480.791047 231.176216 L442.729871 227.704434 L480.487105 196.259531 L466.646678 194.997065 L488.833430 162.131887 L480.183163 161.342846 Z" fill="#888" fill-opacity="0.18" stroke="#000" stroke-width="1"/>
  <path d="M934.382745 536.728931 L960.923977 573.276478 L952.473138 575.284718 L979.097945 604.669945 L965.576603 607.883130 L1007.412920 633.653524 L970.229228 642.489781 L976.655597 669.532466 L956.373584 674.352243 L949.947215 647.309558 L912.763524 656.145816 L938.533918 614.309499 L925.012576 617.522683 L935.571460 579.301199 L927.120621 581.309439 Z" fill="#888" fill-opacity="0.18" stroke="#000" stroke-width="1"/>
  <path d="M459.113422 812.652895 L489.520702 846.052857 L481.342656 848.980187 L511.043680 875.252246 L497.958806 879.935975 L542.380314 900.938838 L506.396910 913.819093 L515.764368 939.988841 L496.137056 947.014435 L486.769598 920.844686 L450.786194 933.724941 L471.789057 889.303433 L458.704183 893.987162 L464.986563 854.834849 L456.808516 857.762179 Z" fill="#888" fill-opacity="0.18" stroke="#000" stroke-width="1"/>
  <path d="M606.618233 558.299736 L574.188142 589.739349 L571.005821 581.657113 L545.677982 612.167317 L540.586269 599.235739 L520.986609 644.293968 L506.984396 608.732129 L481.121240 618.915557 L473.483670 599.518190 L499.346825 589.334763 L485.344613 553.772924 L530.402841 573.372584 L525.311128 560.441006 L564.641178 565.492641 L561.458857 557.410405 Z" fill="#888" fill-opacity="0.18" stroke="#000" stroke-width="1"/>
  <path d="M105.932517 884.619261 L90.938194 842.012566 L99.610560 842.502235 L82.490029 806.735500 L96.365815 807.518970 L63.635025 770.870831 L101.793436 773.025373 L103.360375 745.273802 L124.174054 746.449006 L122.607114 774.200578 L160.765525 776.355119 L124.117386 809.085909 L137.993172 809.869379 L116.955293 843.481572 L125.627659 843.971241 Z" fill="#888" fill-opacity="0.18" stroke="#000" stroke-width="1"/>
  <path d="M386.118998 45.684209 L354.238068 77.680558 L350.916299 69.654627 L326.120467 100.598748 L320.805638 87.757259 L301.988988 133.148055 L287.373207 97.833960 L261.690229 108.463618 L253.717985 89.201385 L279.400964 78.571726 L264.785183 43.257631 L310.175979 62.074281 L304.861150 49.232791 L344.272763 53.602766 L340.950994 45.576835 Z" fill="#888" fill-opacity="0.18" stroke="#000" stroke-width="1"/>
  <path d="M655.318960 913.161050 L615.246682 934.002658 L614.510914 925.347697 L581.509758 947.331682 L580.332530 933.483744 L548.655756 971.046660 L545.418378 932.964831 L517.722502 935.319288 L515.956659 914.547381 L543.652535 912.192924 L540.415157 874.111094 L577.978073 905.787868 L576.800845 891.939930 L613.039379 908.037774 L612.303611 899.382813 Z" fill="#888" fill-opacity="0.18" stroke="#000" stroke-width="1"/>
  <path d="M726.190743 794.553445 L727.055459 839.713299 L718.974959 836.526573 L724.005155 875.859371 L711.076355 870.760610 L730.651452 915.829515 L695.097251 901.807921 L684.899728 927.665522 L665.506527 920.017379 L675.704050 894.159778 L640.149849 880.138184 L685.218754 860.563087 L672.289953 855.464325 L702.813958 830.153121 L694.733458 826.966395 Z" fill="#888" fill-opacity="0.18" stroke="#000" stroke-width="1"/>
  <path d="M866.284832 185.697150 L849.978120 143.575288 L858.661491 143.796127 L840.441433 108.576795 L854.334827 108.930138 L820.484700 73.313294 L858.691534 74.284989 L859.398221 46.498201 L880.238312 47.028216 L879.531625 74.815004 L917.738459 75.786699 L882.121615 109.636825 L896.015009 109.990169 L876.028234 144.237807 L884.711605 144.458646 Z" fill="#888" fill-opacity="0.18" stroke="#000" stroke-width="1"/>
  <path d="M723.597065 493.985737 L758.484946 465.297832 L760.997009 473.612834 L788.730476 445.271579 L792.749777 458.575581 L815.961531 415.267324 L827.014607 451.853330 L853.622612 443.814729 L859.651563 463.770733 L833.043558 471.809334 L844.096635 508.395340 L800.788378 485.183586 L804.807679 498.487588 L766.021135 490.242836 L768.533198 498.557838 Z" fill="#888" fill-opacity="0.18" stroke="#000" stroke-width="1"/>
  <path d="M66.882530 752.065856 L59.840451 707.450061 L68.281279 709.499972 L57.911105 671.226856 L71.416429 674.506715 L45.852766 632.543758 L82.992408 641.563370 L89.552125 614.552722 L109.810111 619.472510 L103.250394 646.483158 L140.390035 655.502770 L98.427078 681.066433 L111.932402 684.346292 L85.162934 713.599796 L93.603762 715.649708 Z" fill="#888" fill-opacity="0.18" stroke="#000" stroke-width="1"/>
  <path d="M846.059401 866.867996 L813.383401 835.684040 L821.335878 832.190073 L789.864557 808.066892 L802.588521 802.476543 L756.802740 784.642505 L791.793641 769.269047 L780.612944 743.821119 L799.698890 735.435596 L810.879587 760.883524 L845.870487 745.510066 L828.036448 791.295847 L840.760412 785.705498 L837.240833 825.202137 L845.193310 821.708169 Z" fill="#888" fill-opacity="0.18" stroke="#000" stroke-width="1"/>
  <path d="M315.215666 893.791507 L350.908356 866.111333 L353.182004 874.494664 L381.713299 846.956743 L385.351137 860.370072 L409.789865 817.742156 L419.793918 854.628810 L446.620576 847.353135 L452.077332 867.473128 L425.250675 874.748803 L435.254728 911.635457 L392.626812 887.196729 L396.264650 900.610058 L357.729301 891.261325 L360.002949 899.644656 Z" fill="#888" fill-opacity="0.18" stroke="#000" stroke-width="1"/>
  <path d="M641.423281 514.586794 L672.978977 546.903944 L664.908204 550.115225 L695.509029 575.333500 L682.595792 580.471549 L727.724009 599.909519 L692.212607 614.039155 L702.488706 639.865630 L683.118850 647.572704 L672.842751 621.746230 L637.331348 635.875866 L656.769317 590.747649 L643.856080 595.885698 L648.766657 556.537787 L640.695884 559.749068 Z" fill="#888" fill-opacity="0.18" stroke="#000" stroke-width="1"/>
  <path d="M898.669481 573.681118 L889.846072 529.383177 L898.362231 531.093366 L886.467438 493.266315 L900.093292 496.002617 L872.869414 455.097225 L910.340513 462.622058 L915.813118 435.370350 L936.251899 439.474804 L930.779294 466.726512 L968.250392 474.251344 L927.345000 501.475223 L940.970854 504.211526 L915.394548 534.513745 L923.910707 536.223934 Z" fill="#888" fill-opacity="0.18" stroke="#000" stroke-width="1"/>
  <path d="M731.166073 688.561853 L719.601007 732.224301 L712.705680 726.941860 L706.745633 766.144535 L695.713111 757.692629 L702.164650 806.403699 L671.825215 783.160957 L654.921403 805.226000 L638.372621 792.548141 L655.276433 770.483098 L624.936998 747.240356 L673.648067 740.788817 L662.615546 732.336911 L698.915028 716.376977 L692.019702 711.094536 Z" fill="#888" fill-opacity="0.18" stroke="#000" stroke-width="1"/>
  <path d="M229.965002 454.550823 L230.079725 499.718809 L222.053254 496.398346 L226.429641 535.809248 L213.587288 530.496508 L232.411323 575.884242 L197.094850 561.274208 L186.469371 586.958915 L167.205840 578.989806 L177.831319 553.305098 L142.514847 538.695064 L187.902580 519.871029 L175.060226 514.558289 L206.000312 489.757422 L197.973841 486.436960 Z" fill="#888" fill-opacity="0.18" stroke="#000" stroke-width="1"/>
  <path d="M271.297856 114.886719 L270.173212 160.040847 L262.240870 156.501403 L265.534249 196.017547 L252.842502 190.354437 L270.414096 236.241578 L235.511792 220.668028 L224.185573 246.051522 L205.147952 237.556858 L216.474171 212.173364 L181.571867 196.599813 L227.459008 179.028218 L214.767261 173.365109 L246.376186 149.422517 L238.443844 145.883073 Z" fill="#888" fill-opacity="0.18" stroke="#000" stroke-width="1"/>
  <path d="M545.572873 617.895335 L560.795220 660.421095 L552.120355 659.977891 L569.432239 695.652400 L555.552455 694.943272 L588.479095 731.415550 L550.309690 729.465449 L548.891435 757.225016 L528.071760 756.161325 L529.490015 728.401758 L491.320610 726.451657 L527.792888 693.525017 L513.913105 692.815890 L534.770626 659.091481 L526.095761 658.648277 Z" fill="#888" fill-opacity="0.18" stroke="#000" stroke-width="1"/>
  <path d="M794.842191 917.152801 L828.174896 947.633793 L820.298632 951.296330 L852.276561 974.743803 L839.674539 980.603862 L885.829742 997.458769 L851.174182 1013.573932 L862.894300 1038.777976 L843.991267 1047.568065 L832.271149 1022.364021 L797.615588 1038.479184 L814.470495 992.323981 L801.868473 998.184040 L804.546105 958.621404 L796.669841 962.283941 Z" fill="#888" fill-opacity="0.18" stroke="#000" stroke-width="1"/>
  <path d="M548.960258 185.225257 L526.386162 146.102753 L535.000667 144.989193 L511.594517 112.981006 L525.377725 111.199310 L486.465467 81.195530 L524.369288 76.295867 L520.805897 48.729452 L541.480709 46.056908 L545.044100 73.623324 L582.947921 68.723661 L552.944140 107.635919 L566.727348 105.854224 L552.229676 142.762074 L560.844181 141.648514 Z" fill="#888" fill-opacity="0.18" stroke="#000" stroke-width="1"/>
  <path d="M642.348037 576.159254 L603.899826 552.454927 L610.951497 547.383079 L575.150430 530.334458 L586.433104 522.219502 L537.939028 514.300206 L568.966382 491.984077 L552.736470 469.418728 L569.660482 457.246294 L585.890394 479.811643 L616.917748 457.495513 L608.998453 505.989590 L620.281127 497.874633 L625.054840 537.239384 L632.106512 532.167536 Z" fill="#888" fill-opacity="0.18" stroke="#000" stroke-width="1"/>
  <path d="M91.143361 1031.362132 L83.746558 986.803773 L92.203427 988.786467 L81.529094 950.597064 L95.060084 953.769375 L69.163388 912.011121 L106.373610 920.734978 L112.718233 893.672998 L133.014719 898.431465 L126.670095 925.493445 L163.880318 934.217302 L122.122064 960.113998 L135.653054 963.286310 L109.117164 992.751857 L117.574033 994.734551 Z" fill="#888" fill-opacity="0.18" stroke="#000" stroke-width="1"/>
  <path d="M381.197652 168.024086 L403.480756 207.313059 L394.858224 208.362650 L418.026162 240.543679 L404.230110 242.223025 L442.918606 272.514788 L404.979463 277.132991 L408.338156 304.725095 L387.644079 307.244115 L384.285386 279.652011 L346.346243 284.270214 L376.638006 245.581718 L362.841954 247.261065 L377.613159 210.461834 L368.990627 211.511425 Z" fill="#888" fill-opacity="0.18" stroke="#000" stroke-width="1"/>
  <path d="M1057.802361 310.253752 L1014.325251 298.010346 L1019.714399 291.198094 L980.609261 284.628457 L989.231899 273.728852 L940.426294 279.421270 L964.138547 249.447358 L942.339338 232.202083 L955.273294 215.852677 L977.072503 233.097951 L1000.784755 203.124039 L1006.477173 251.929643 L1015.099811 241.030039 L1030.492696 277.573588 L1035.881844 270.761335 Z" fill="#888" fill-opacity="0.18" stroke="#000" stroke-width="1"/>
  <path d="M245.894584 441.999742 L207.859159 466.360909 L206.347962 457.807197 L175.457745 482.670150 L173.039831 468.984211 L144.869768 509.243846 L138.220503 471.607512 L110.848624 476.443341 L107.221753 455.914431 L134.593632 451.078603 L127.944367 413.442269 L168.204002 441.612332 L165.786088 427.926392 L203.325569 440.699773 L201.814372 432.146061 Z" fill="#888" fill-opacity="0.18" stroke="#000" stroke-width="1"/>
  <path d="M711.958343 691.980788 L669.522660 707.452469 L669.914942 698.775153 L634.342656 716.296122 L634.970307 702.412416 L598.691914 735.552556 L600.417953 697.372363 L572.650540 696.117061 L573.592016 675.291501 L601.359429 676.546803 L603.085468 638.366610 L636.225608 674.645003 L636.853259 660.761296 L670.699505 681.420519 L671.091787 672.743203 Z" fill="#888" fill-opacity="0.18" stroke="#000" stroke-width="1"/>
  <path d="M499.020778 745.336535 L473.969754 782.921191 L469.150808 775.694333 L450.845060 810.869203 L443.134746 799.306231 L433.503100 847.489444 L412.299738 815.691272 L389.173794 831.111898 L377.608324 813.767441 L400.734268 798.346814 L379.530906 766.548641 L427.714119 776.180287 L420.003806 764.617315 L459.512917 761.240618 L454.693971 754.013761 Z" fill="#888" fill-opacity="0.18" stroke="#000" stroke-width="1"/>
  <path d="M1057.815613 461.611720 L1013.477644 452.991705 L1018.287260 445.758635 L978.773825 442.432926 L986.469210 430.860014 L938.298466 440.553832 L959.460775 408.728323 L936.314950 393.337553 L947.858028 375.978184 L971.003853 391.368955 L992.166162 359.543446 L1001.859980 407.714189 L1009.555365 396.141277 L1027.906491 431.292494 L1032.716107 424.059424 Z" fill="#888" fill-opacity="0.18" stroke="#000" stroke-width="1"/>
  <path d="M97.354134 83.629630 L140.570917 70.496857 L139.705671 79.139834 L176.181122 63.586268 L174.796728 77.415032 L212.829622 46.304107 L209.022539 84.333207 L236.680067 87.101995 L234.603476 107.845140 L206.945949 105.076353 L203.138866 143.105453 L172.027941 105.072559 L170.643547 118.901323 L137.975179 96.425789 L137.109933 105.068766 Z" fill="#888" fill-opacity="0.18" stroke="#000" stroke-width="1"/>
  <path d="M688.093182 367.461216 L642.972776 365.385400 L646.678572 357.529397 L607.101809 359.989419 L613.031083 347.419814 L566.783886 364.020641 L583.089389 329.454228 L557.950180 317.595680 L566.844091 298.741273 L591.983300 310.599821 L608.288803 276.033408 L624.889630 322.280604 L630.818904 309.711000 L654.090164 341.817391 L657.795961 333.961388 Z" fill="#888" fill-opacity="0.18" stroke="#000" stroke-width="1"/>
  <path d="M936.861024 287.981209 L893.176247 299.461644 L894.369423 290.857805 L857.329082 305.013549 L859.238163 291.247407 L820.050106 320.890060 L825.300078 283.033169 L797.767794 279.215008 L800.631415 258.565795 L828.163699 262.383957 L833.413671 224.527066 L863.056324 263.715123 L864.965405 249.948981 L896.755773 273.650128 L897.948949 265.046289 Z" fill="#888" fill-opacity="0.18" stroke="#000" stroke-width="1"/>
  <path d="M348.331526 509.827002 L364.019580 467.470833 L370.378068 473.388547 L380.060253 434.935625 L390.233833 444.403968 L388.470741 395.299160 L416.448086 421.337104 L435.384772 400.989944 L450.645142 415.192459 L431.708456 435.539619 L459.685801 461.577562 L410.580993 463.340655 L420.754573 472.808998 L383.095043 485.223976 L389.453530 491.141690 Z" fill="#888" fill-opacity="0.18" stroke="#000" stroke-width="1"/>
  <path d="M1027.234016 780.041824 L1002.127345 742.494319 L1010.649585 740.814695 L985.182164 710.420907 L998.817748 707.733509 L958.010295 680.363043 L995.508151 672.972700 L990.133356 645.701533 L1010.586732 641.670437 L1015.961527 668.941605 L1053.459382 661.551262 L1026.088916 702.358715 L1039.724499 699.671318 L1027.694065 737.455449 L1036.216305 735.775826 Z" fill="#888" fill-opacity="0.18" stroke="#000" stroke-width="1"/>
  <path d="M318.599585 950.351987 L282.926041 922.647143 L290.482637 918.363736 L256.724499 897.560850 L268.815052 890.707399 L221.455043 877.614645 L254.704062 858.767655 L240.997160 834.586550 L259.132989 824.306373 L272.839891 848.487478 L306.088911 829.640488 L292.996157 877.000497 L305.086709 870.147046 L305.595827 909.796922 L313.152423 905.513515 Z" fill="#888" fill-opacity="0.18" stroke="#000" stroke-width="1"/>
  <path d="M814.742882 394.683246 L847.580144 363.669146 L850.656814 371.792188 L876.380307 341.614816 L881.302979 354.611683 L901.488467 309.812835 L915.025815 345.554220 L941.019549 335.708876 L948.403557 355.204176 L922.409823 365.049520 L935.947171 400.790905 L891.148323 380.605417 L896.070995 393.602284 L856.810154 388.038272 L859.886824 396.161314 Z" fill="#888" fill-opacity="0.18" stroke="#000" stroke-width="1"/>
  <path d="M482.010499 772.845691 L523.597895 790.470917 L517.393166 796.549654 L555.358518 807.995350 L545.430951 817.721329 L594.564816 818.225298 L567.264007 844.971741 L586.715966 864.826874 L571.824616 879.415843 L552.372657 859.560709 L525.071849 886.307152 L525.575818 837.173287 L515.648251 846.899267 L504.983707 808.707128 L498.778978 814.785865 Z" fill="#888" fill-opacity="0.18" stroke="#000" stroke-width="1"/>
  <path d="M696.692959 367.658683 L665.787174 400.597909 L662.225905 392.675341 L638.370427 424.350065 L632.672397 411.673957 L615.227203 457.609302 L599.557620 422.750006 L574.205405 434.146066 L565.658360 415.131905 L591.010575 403.735844 L575.340992 368.876548 L621.276337 386.321742 L615.578306 373.645634 L655.103367 376.830207 L651.542098 368.907640 Z" fill="#888" fill-opacity="0.18" stroke="#000" stroke-width="1"/>
  <path d="M1042.976171 609.832855 L1008.253873 580.944758 L1015.950155 576.917730 L982.910224 554.992063 L995.224275 548.548819 L948.331036 533.871803 L982.194676 516.152880 L969.308187 491.524778 L987.779263 481.859911 L1000.665752 506.488013 L1034.529393 488.769091 L1019.852377 535.662330 L1032.166428 529.219085 L1031.342719 568.863674 L1039.039001 564.836646 Z" fill="#888" fill-opacity="0.18" stroke="#000" stroke-width="1"/>
  <path d="M250.742817 628.949651 L291.132112 649.170060 L284.555316 654.844165 L321.720687 668.668316 L311.197814 677.746884 L360.201416 681.357647 L331.263515 706.323709 L349.420651 727.369455 L333.636342 740.987307 L315.479206 719.941561 L286.541305 744.907623 L290.152068 695.904020 L279.629195 704.982588 L271.401725 666.192375 L264.824930 671.866480 Z" fill="#888" fill-opacity="0.18" stroke="#000" stroke-width="1"/>
  <path d="M184.186368 371.040784 L141.926045 386.985226 L142.221434 378.304071 L106.846957 396.221055 L107.319580 382.331207 L71.413403 415.874270 L72.713116 377.677187 L44.933419 376.731942 L45.642354 355.897169 L73.422050 356.842415 L74.721763 318.645333 L108.264826 354.551510 L108.737449 340.661662 L142.812213 360.941761 L143.107602 352.260606 Z" fill="#888" fill-opacity="0.18" stroke="#000" stroke-width="1"/>
  <path d="M817.108793 741.434086 L841.812501 703.620241 L846.697821 710.802397 L864.678741 675.460376 L872.495252 686.951826 L881.682598 638.681925 L903.178003 670.283410 L926.160902 654.650388 L937.885668 671.887562 L914.902770 687.520584 L936.398176 719.122069 L888.128275 709.934724 L895.944786 721.426173 L856.468460 725.166709 L861.353779 732.348864 Z" fill="#888" fill-opacity="0.18" stroke="#000" stroke-width="1"/>
  <path d="M325.905263 298.221331 L307.471640 256.985889 L316.154974 256.763607 L296.162511 222.519289 L310.055846 222.163638 L274.433380 188.319428 L312.640052 187.341387 L311.928749 159.554717 L332.768752 159.021240 L333.480055 186.807910 L371.686727 185.829870 L337.842516 221.452336 L351.735852 221.096685 L333.521644 256.319043 L342.204978 256.096761 Z" fill="#888" fill-opacity="0.18" stroke="#000" stroke-width="1"/>
  <path d="M902.525526 632.941310 L862.652035 611.721866 L869.368023 606.213217 L832.558253 591.468293 L843.303834 582.654455 L794.405286 577.825099 L823.955633 553.587043 L806.327956 532.095882 L822.446327 518.875124 L840.074004 540.366286 L869.624351 516.128230 L864.794995 565.026778 L875.540576 556.212939 L882.799998 595.195919 L889.515986 589.687270 Z" fill="#888" fill-opacity="0.18" stroke="#000" stroke-width="1"/>
  <path d="M188.330651 1054.488910 L202.569778 1011.623920 L209.125758 1017.322063 L217.495175 978.562228 L227.984743 987.679257 L224.553395 938.662765 L253.399707 963.734594 L271.633765 942.755458 L287.368117 956.431002 L269.134059 977.410138 L297.980371 1002.481967 L248.963878 1005.913315 L259.453446 1015.030344 L222.237718 1028.718349 L228.793698 1034.416492 Z" fill="#888" fill-opacity="0.18" stroke="#000" stroke-width="1"/>
  <path d="M783.161215 274.522710 L738.279302 269.445904 L742.500178 261.854204 L702.847450 261.672439 L709.600852 249.525719 L662.350546 263.009014 L680.922402 229.605534 L656.628961 216.098730 L666.759064 197.878649 L691.052505 211.385453 L709.624360 177.981973 L723.107656 225.232279 L729.861058 213.085558 L750.941931 246.670804 L755.162807 239.079104 Z" fill="#888" fill-opacity="0.18" stroke="#000" stroke-width="1"/>
  <path d="M305.775258 561.600154 L291.530274 518.737110 L300.192721 519.378758 L283.701929 483.317343 L297.561845 484.343980 L265.478648 447.127598 L303.593417 449.950849 L305.646690 422.231017 L326.436564 423.770973 L324.383290 451.490804 L362.498059 454.314056 L325.281677 486.397253 L339.141593 487.423890 L317.517616 520.662054 L326.180064 521.303702 Z" fill="#888" fill-opacity="0.18" stroke="#000" stroke-width="1"/>
  <path d="M285.403608 718.782854 L243.784365 736.332747 L243.747346 727.646647 L209.084387 746.904144 L209.025157 733.006384 L174.428832 767.898861 L174.265948 729.680020 L146.470427 729.798482 L146.381581 708.951841 L174.177102 708.833380 L174.014217 670.614539 L208.906695 705.210863 L208.847464 691.313102 L243.673308 710.274446 L243.636288 701.588346 Z" fill="#888" fill-opacity="0.18" stroke="#000" stroke-width="1"/>
  <path d="M282.454018 761.554457 L261.705664 801.675100 L256.118298 795.024457 L241.807932 832.005335 L232.868147 821.364306 L228.615040 870.316341 L204.030629 841.053513 L182.748572 858.933084 L169.338894 842.971542 L190.620951 825.091971 L166.036541 795.829142 L214.988576 800.082250 L206.048790 789.441221 L244.943566 781.723171 L239.356201 775.072529 Z" fill="#888" fill-opacity="0.18" stroke="#000" stroke-width="1"/>
  <path d="M964.071363 1041.371473 L927.386785 1015.019967 L934.777923 1010.456988 L900.265501 990.930989 L912.091323 983.630222 L864.274851 972.317586 L896.795860 952.240477 L882.194326 928.588834 L899.933059 917.637683 L914.534593 941.289326 L947.055602 921.212217 L935.742966 969.028688 L947.568787 961.727921 L949.560200 1001.331029 L956.951338 996.768050 Z" fill="#888" fill-opacity="0.18" stroke="#000" stroke-width="1"/>
  <path d="M713.505199 162.664779 L725.612632 119.149608 L732.441699 124.517434 L738.889058 85.391951 L749.815565 93.980473 L743.970605 45.192902 L774.018497 68.811338 L791.195541 46.958325 L807.585300 59.841109 L790.408256 81.694121 L820.456148 105.312557 L771.668577 111.157517 L782.595083 119.746040 L746.099832 135.253087 L752.928898 140.620913 Z" fill="#888" fill-opacity="0.18" stroke="#000" stroke-width="1"/>
  <path d="M183.037274 1017.505652 L167.463793 975.107223 L176.142026 975.478678 L158.535735 939.948544 L172.420908 940.542873 L139.193798 904.344119 L177.378023 905.978523 L178.566680 878.208177 L199.394439 879.099670 L198.205782 906.870016 L236.390008 908.504419 L200.191254 941.731530 L214.076427 942.325859 L193.498492 976.221589 L202.176726 976.593044 Z" fill="#888" fill-opacity="0.18" stroke="#000" stroke-width="1"/>
  <path d="M693.282417 668.172596 L726.503717 637.570222 L729.478894 645.730983 L755.576550 615.876598 L760.336834 628.933817 L781.079170 584.390061 L794.169950 620.297411 L820.284387 610.776844 L827.424813 630.362671 L801.310376 639.883239 L814.401157 675.790589 L769.857401 655.048253 L774.617685 668.105471 L735.429249 662.052506 L738.404426 670.213267 Z" fill="#888" fill-opacity="0.18" stroke="#000" stroke-width="1"/>
  <path d="M822.126351 347.150479 L777.270778 352.454973 L779.646872 344.100101 L740.999977 352.976444 L744.801728 339.608649 L701.877864 363.523762 L712.332677 326.762325 L685.597087 319.158825 L691.299712 299.107132 L718.035302 306.710632 L728.490115 269.949195 L752.405228 312.873058 L756.206978 299.505263 L784.399059 327.390357 L786.775153 319.035485 Z" fill="#888" fill-opacity="0.18" stroke="#000" stroke-width="1"/>
  <path d="M51.033823 93.200066 L91.555051 113.154770 L85.015663 118.871948 L122.271026 132.451707 L111.808006 141.599191 L160.834266 144.888030 L132.060962 170.043612 L150.355930 190.969651 L134.661401 204.690878 L116.366432 183.764838 L87.593128 208.920420 L90.881967 159.894160 L80.418947 169.041644 L71.936888 130.306303 L65.397501 136.023481 Z" fill="#888" fill-opacity="0.18" stroke="#000" stroke-width="1"/>
  <path d="M270.712018 507.200363 L295.951524 544.658705 L287.435287 546.368503 L313.010203 576.671896 L299.384223 579.407573 L340.288366 606.633329 L302.816922 614.156442 L308.288276 641.408401 L287.849307 645.511917 L282.377952 618.259958 L244.906508 625.783071 L272.132264 584.878928 L258.506284 587.614605 L270.402813 549.788100 L261.886575 551.497898 Z" fill="#888" fill-opacity="0.18" stroke="#000" stroke-width="1"/>
  <path d="M1051.102722 110.027671 L1009.395108 127.366502 L1009.402092 118.680326 L974.642023 137.761979 L974.653197 123.864097 L939.880557 158.580868 L939.911285 120.361692 L912.115521 120.339344 L912.132281 99.492521 L939.928045 99.514869 L939.958774 61.295693 L974.675544 96.068333 L974.686718 82.170450 L1009.416059 101.307973 L1009.423043 92.621797 Z" fill="#888" fill-opacity="0.18" stroke="#000" stroke-width="1"/>
  <path d="M868.847600 931.993050 L824.745178 922.239257 L829.738634 915.131859 L790.323439 910.794310 L798.312968 899.422474 L749.909553 907.878241 L771.880759 876.605690 L749.137086 860.626631 L761.121380 843.568876 L783.865054 859.547935 L805.836260 828.275385 L814.292028 876.678800 L822.281557 865.306964 L839.725546 900.917063 L844.719002 893.809665 Z" fill="#888" fill-opacity="0.18" stroke="#000" stroke-width="1"/>
  <path d="M431.952664 336.649312 L465.058764 305.922350 L468.064579 314.071877 L494.049895 284.119660 L498.859197 297.158903 L519.434048 252.537538 L532.659631 288.395457 L558.738117 278.776851 L565.952071 298.335715 L539.873585 307.954321 L553.099168 343.812239 L508.477803 323.237389 L513.287106 336.276632 L474.076207 330.370930 L477.082022 338.520457 Z" fill="#888" fill-opacity="0.18" stroke="#000" stroke-width="1"/>
  <path d="M788.793382 1044.359482 L754.943299 1014.454098 L762.755652 1010.657144 L730.380661 987.761033 L742.880425 981.685907 L696.443200 965.624312 L730.817551 948.917716 L718.667299 923.918188 L737.416945 914.805499 L749.567197 939.805027 L783.941547 923.098430 L767.879953 969.535655 L780.379717 963.460529 L778.380356 1003.063237 L786.192709 999.266283 Z" fill="#888" fill-opacity="0.18" stroke="#000" stroke-width="1"/>
  <path d="M890.758675 919.590967 L874.832532 877.323745 L883.513558 877.622893 L865.611891 842.240662 L879.501534 842.719299 L845.974019 806.798602 L884.170535 808.114853 L885.127808 780.335568 L905.962272 781.053523 L905.004999 808.832807 L943.201515 810.149058 L907.280818 843.676572 L921.170460 844.155208 L900.875611 878.221189 L909.556637 878.520336 Z" fill="#888" fill-opacity="0.18" stroke="#000" stroke-width="1"/>
  <path d="M595.346687 1054.466082 L610.170445 1011.799745 L616.647919 1017.586976 L625.546399 978.945172 L635.910357 988.204741 L633.149383 939.145923 L661.650269 964.609737 L680.169407 943.881820 L695.715345 957.771174 L677.196207 978.499091 L705.697093 1003.962905 L656.638274 1006.723879 L667.002233 1015.983448 L629.602868 1029.161437 L636.080342 1034.948668 Z" fill="#888" fill-opacity="0.18" stroke="#000" stroke-width="1"/>
  <path d="M368.927429 634.546145 L398.782673 668.440459 L390.557703 671.233231 L419.823723 697.989014 L406.663771 702.457449 L450.734738 724.186243 L414.544869 736.474438 L423.481738 762.794343 L403.741810 769.496995 L394.804941 743.177090 L358.615072 755.465285 L380.343866 711.394318 L367.183914 715.862752 L374.107762 676.818774 L365.882792 679.611546 Z" fill="#888" fill-opacity="0.18" stroke="#000" stroke-width="1"/>
  <path d="M505.421269 477.981420 L495.057257 434.018397 L503.627913 435.430335 L490.420219 398.041449 L504.133268 400.300549 L475.498394 360.370177 L513.209280 366.582701 L517.727479 339.156602 L538.297053 342.545252 L533.778854 369.971350 L571.489739 376.183874 L531.559367 404.818748 L545.272416 407.077848 L520.769224 438.254209 L529.339880 439.666147 Z" fill="#888" fill-opacity="0.18" stroke="#000" stroke-width="1"/>
  <path d="M251.021935 702.612941 L212.521734 678.993147 L219.562245 673.905818 L183.723805 656.935899 L194.988622 648.796173 L146.477263 640.983446 L177.455510 618.599198 L161.176057 596.069564 L178.073283 583.859974 L194.352736 606.389608 L225.330983 584.005361 L217.518256 632.516720 L228.783074 624.376993 L233.643266 663.731160 L240.683777 658.643831 Z" fill="#888" fill-opacity="0.18" stroke="#000" stroke-width="1"/>
  <path d="M911.428942 883.119512 L938.912295 847.275051 L943.242425 854.804971 L963.835817 820.918630 L970.764025 832.966501 L983.563184 785.526305 L1002.615754 818.657950 L1026.711496 804.801535 L1037.103807 822.873342 L1013.008065 836.729756 L1032.060635 869.861402 L984.620439 857.062242 L991.548647 869.110113 L951.902684 869.864809 L956.232814 877.394729 Z" fill="#888" fill-opacity="0.18" stroke="#000" stroke-width="1"/>
  <path d="M666.487566 175.387873 L653.468793 218.639135 L646.753982 213.129053 L639.486237 252.110482 L628.742538 243.294349 L633.561455 292.193927 L604.016283 267.949564 L586.384019 289.436961 L570.268470 276.212763 L587.900735 254.725365 L558.355563 230.481002 L607.255140 225.662085 L596.511441 216.845953 L633.324358 202.108887 L626.609546 196.598805 Z" fill="#888" fill-opacity="0.18" stroke="#000" stroke-width="1"/>
  <path d="M407.115809 664.193467 L377.899924 629.746520 L386.175705 627.108119 L357.415385 599.809476 L370.656634 595.588035 L326.999908 573.038514 L363.413344 561.429551 L354.970462 534.947052 L374.832337 528.614891 L383.275218 555.097390 L419.688655 543.488428 L397.139133 587.145154 L410.380383 582.923713 L402.727267 621.831318 L411.003048 619.192917 Z" fill="#888" fill-opacity="0.18" stroke="#000" stroke-width="1"/>
  <path d="M977.163055 1037.064837 L970.319927 992.418094 L978.751533 994.505611 L968.552069 956.186649 L982.042639 959.526677 L956.666284 917.450184 L993.765351 926.635260 L1000.445406 899.654121 L1020.681261 904.664163 L1014.001205 931.645302 L1051.100271 940.830378 L1009.023778 966.206733 L1022.514347 969.546761 L995.614745 998.680646 L1004.046351 1000.768164 Z" fill="#888" fill-opacity="0.18" stroke="#000" stroke-width="1"/>
  <path d="M413.404776 936.573784 L401.710832 980.201892 L394.831134 974.899113 L388.755353 1014.084018 L377.747836 1005.599572 L384.055511 1054.329479 L353.784841 1030.997251 L336.815948 1053.012284 L320.304673 1040.285615 L337.273566 1018.270582 L307.002896 994.938354 L355.732803 988.630679 L344.725287 980.146232 L381.071738 964.293555 L374.192041 958.990776 Z" fill="#888" fill-opacity="0.18" stroke="#000" stroke-width="1"/>
  <path d="M663.900476 846.485870 L622.481464 828.468500 L628.743350 822.448659 L590.887835 810.644766 L600.906853 801.013020 L551.779943 800.044842 L579.332241 773.557540 L560.068748 753.519504 L575.097274 739.071885 L594.360767 759.109920 L621.913065 732.622617 L620.944888 781.749527 L630.963905 772.117781 L641.267122 810.408976 L647.529008 804.389134 Z" fill="#888" fill-opacity="0.18" stroke="#000" stroke-width="1"/>
  <path d="M870.052176 252.162108 L886.461660 210.080177 L892.718106 216.105672 L903.055905 177.823799 L913.066219 187.464591 L912.142415 138.336826 L939.670778 164.849005 L958.952362 144.828377 L973.967832 159.289565 L954.686248 179.310193 L982.214611 205.822371 L933.086846 206.746175 L943.097160 216.386967 L905.230999 228.156662 L911.487445 234.182157 Z" fill="#888" fill-opacity="0.18" stroke="#000" stroke-width="1"/>
  <path d="M471.692476 407.821538 L493.078248 447.606068 L484.434118 448.459716 L506.865797 481.158212 L493.035189 482.524049 L531.026303 513.685979 L492.992129 517.442031 L495.723803 545.103249 L474.977889 547.152004 L472.246215 519.490786 L434.212041 523.246838 L465.373971 485.255723 L451.543362 486.621560 L467.145857 450.167012 L458.501726 451.020660 Z" fill="#888" fill-opacity="0.18" stroke="#000" stroke-width="1"/>
  <path d="M469.993350 382.029887 L424.872267 384.090931 L427.843759 375.928827 L388.658060 381.999486 L393.412448 368.940119 L348.878062 389.702565 L361.952629 353.789308 L335.833897 344.280532 L342.965479 324.691483 L369.084211 334.200258 L382.158778 298.287001 L402.921224 342.821387 L407.675612 329.762021 L433.786744 359.604619 L436.758237 351.442515 Z" fill="#888" fill-opacity="0.18" stroke="#000" stroke-width="1"/>
  <path d="M275.759171 219.691634 L298.541087 258.693485 L289.932629 259.852860 L313.508737 291.736069 L299.735203 293.591069 L338.806537 323.387404 L300.929319 328.488653 L304.639319 356.035720 L283.979018 358.818220 L280.269019 331.271153 L242.391801 336.372402 L272.188136 297.301069 L258.414602 299.156068 L272.715712 262.171610 L264.107253 263.330985 Z" fill="#888" fill-opacity="0.18" stroke="#000" stroke-width="1"/>
  <path d="M418.421187 987.430535 L462.296638 976.701841 L460.955914 985.283925 L498.233843 971.766235 L496.088685 985.497569 L535.779916 956.532127 L529.880732 994.293298 L557.343401 998.583613 L554.125664 1019.180615 L526.662995 1014.890300 L520.763811 1052.651470 L491.798369 1012.960238 L489.653211 1026.691573 L458.274467 1002.448093 L456.933743 1011.030177 Z" fill="#888" fill-opacity="0.18" stroke="#000" stroke-width="1"/>
  <path d="M302.654227 137.489309 L334.773926 105.732656 L338.035485 113.783242 L363.062402 83.025718 L368.280896 95.906657 L387.437008 50.658076 L401.787866 86.080657 L427.549743 75.643670 L435.377483 94.965078 L409.615606 105.402065 L423.966463 140.824646 L378.717883 121.668534 L383.936376 134.549472 L344.558601 129.884415 L347.820160 137.935002 Z" fill="#888" fill-opacity="0.18" stroke="#000" stroke-width="1"/>
  <path d="M553.600083 219.343570 L558.840694 174.480488 L566.416936 178.729049 L566.743450 139.077249 L578.865436 145.874947 L565.554716 98.575736 L598.890178 117.269406 L612.485574 93.025433 L630.668554 103.221980 L617.073158 127.465953 L650.408620 146.159623 L603.109409 159.470343 L615.231395 166.268041 L581.569419 187.226172 L589.145660 191.474733 Z" fill="#888" fill-opacity="0.18" stroke="#000" stroke-width="1"/>
  <path d="M73.970339 477.546337 L108.123234 507.105428 L100.349956 510.981749 L132.956450 533.546954 L120.519206 539.749067 L167.117599 555.336895 L132.915178 572.392706 L145.319404 597.267194 L126.663538 606.570364 L114.259311 581.695876 L80.056890 598.751687 L95.644717 552.153294 L83.207473 558.355407 L84.803401 518.734391 L77.030123 522.610711 Z" fill="#888" fill-opacity="0.18" stroke="#000" stroke-width="1"/>
  <path d="M156.483520 293.548552 L198.015404 311.304190 L191.791631 317.363427 L229.720880 328.928199 L219.762843 338.622978 L268.894884 339.281124 L241.510281 365.941766 L260.899840 385.857841 L245.962784 400.400010 L226.573225 380.483935 L199.188622 407.144578 L199.846768 358.012537 L189.888731 367.707316 L179.344084 329.481901 L173.120311 335.541138 Z" fill="#888" fill-opacity="0.18" stroke="#000" stroke-width="1"/>
  <path d="M716.436227 191.209772 L756.011325 169.438881 L756.948828 178.074319 L789.428076 155.326343 L790.928080 169.143044 L821.719822 130.851279 L825.844835 168.847208 L853.478238 165.847199 L855.728245 186.572251 L828.094842 189.572260 L832.219855 227.568189 L793.928090 196.776447 L795.428094 210.593149 L758.823834 195.345196 L759.761337 203.980634 Z" fill="#888" fill-opacity="0.18" stroke="#000" stroke-width="1"/>
  <path d="M794.650215 554.907255 L749.487756 554.191446 L752.955241 546.227386 L713.470533 549.878378 L719.018509 537.135881 L673.292328 555.122182 L688.549262 520.080317 L663.064270 508.984364 L671.386234 489.870620 L696.871227 500.966572 L712.128161 465.924708 L730.114462 511.650889 L735.662438 498.908393 L759.890211 530.299266 L763.357696 522.335205 Z" fill="#888" fill-opacity="0.18" stroke="#000" stroke-width="1"/>
  <path d="M201.878436 221.273471 L175.904542 258.226372 L171.266001 250.882419 L152.094978 285.593279 L144.673313 273.842954 L133.851663 321.772929 L113.442084 289.459535 L89.941434 304.302866 L78.808936 286.677378 L102.309586 271.834048 L81.900007 239.520654 L129.829983 250.342304 L122.408317 238.591979 L161.988920 236.194513 L157.350379 228.850560 Z" fill="#888" fill-opacity="0.18" stroke="#000" stroke-width="1"/>
</svg>
