<?xml version="1.0" encoding="UTF-8"?>
<svg xmlns="http://www.w3.org/2000/svg" width="1100" height="1100" viewBox="0 0 1100 1100">
  <rect x="0" y="0" width="1100" height="1100" fill="white"/>
  <text x="10.0" y="18.0" font-family="monospace" font-size="12">prefix=N87_job5048488_task87 run_id=87 L=7.79504951017 feas=0.000e+00 N=87</text>
  <rect x="40.000000" y="40.000000" width="1020.000000" height="1020.000000" fill="none" stroke="#000" stroke-width="2"/>
  <path d="M674.021018 714.948110 L708.722838 739.531207 L701.792272 743.873017 L734.406757 762.043300 L723.317851 768.990195 L768.407355 779.345220 L737.912864 798.449184 L751.806656 820.626995 L735.173297 831.047339 L721.279506 808.869527 L690.785015 827.973491 L701.140040 782.883987 L690.051134 789.830883 L687.931140 752.556637 L681.000574 756.898447 Z" fill="#888" fill-opacity="0.18" stroke="#000" stroke-width="1"/>
  <path d="M279.036839 677.579169 L313.776090 653.048996 L315.561087 661.030089 L343.558465 636.331695 L346.414460 649.101444 L371.198842 610.037083 L379.052831 645.153891 L404.592328 639.441900 L408.876322 658.596523 L383.336824 664.308514 L391.190813 699.425323 L352.126452 674.640941 L354.982448 687.410690 L319.131082 676.992275 L320.916079 684.973368 Z" fill="#888" fill-opacity="0.18" stroke="#000" stroke-width="1"/>
  <path d="M816.569178 415.714977 L855.912405 399.570148 L855.868349 407.748297 L888.677867 389.932593 L888.607378 403.017631 L921.496197 370.481260 L921.302351 406.465114 L947.472427 406.606094 L947.366692 426.233651 L921.196616 426.092672 L921.002770 462.076527 L888.466399 429.187707 L888.395909 442.272746 L855.780237 424.104594 L855.736181 432.282743 Z" fill="#888" fill-opacity="0.18" stroke="#000" stroke-width="1"/>
  <path d="M273.037938 742.758773 L315.460239 739.776611 L312.851873 747.527771 L349.594920 740.908684 L345.421534 753.310541 L386.859640 732.739365 L375.382828 766.844470 L400.186540 775.191243 L393.926461 793.794027 L369.122748 785.447255 L357.645936 819.552359 L337.074761 778.114253 L332.901375 790.516109 L307.635140 763.030091 L305.026774 770.781252 Z" fill="#888" fill-opacity="0.18" stroke="#000" stroke-width="1"/>
  <path d="M476.270338 275.990289 L453.391354 240.142039 L461.447181 238.732179 L438.084920 209.610563 L450.974243 207.354786 L413.111493 180.770919 L448.557133 174.567533 L444.045580 148.788886 L463.379565 145.405221 L467.891118 171.183868 L503.336758 164.980482 L476.752891 202.843233 L489.642214 200.587456 L477.558836 235.912458 L485.614663 234.502598 Z" fill="#888" fill-opacity="0.18" stroke="#000" stroke-width="1"/>
  <path d="M422.442456 649.160359 L451.777659 679.949819 L444.142311 682.879924 L472.660499 706.975085 L460.443942 711.663253 L502.705756 730.484224 L469.110224 743.376688 L478.486562 767.809802 L460.161726 774.842055 L450.785389 750.408941 L417.189857 763.301405 L436.010828 721.039591 L423.794271 725.727760 L428.871614 688.740135 L421.236266 691.670241 Z" fill="#888" fill-opacity="0.18" stroke="#000" stroke-width="1"/>
  <path d="M846.320540 289.260640 L808.022305 270.773071 L814.136832 265.341992 L778.960555 252.832261 L788.743798 244.142534 L742.561374 241.408746 L769.465290 217.511996 L752.085836 197.945511 L766.760699 184.910920 L784.140154 204.477405 L811.044071 180.580655 L808.310283 226.763079 L818.093525 218.073352 L826.365885 254.479833 L832.480411 249.048753 Z" fill="#888" fill-opacity="0.18" stroke="#000" stroke-width="1"/>
  <path d="M806.441623 415.735294 L786.263151 378.300360 L794.400896 377.487239 L773.245372 346.725126 L786.265764 345.424132 L750.462300 316.125637 L786.268378 312.547904 L783.666390 286.507120 L803.196978 284.555629 L805.798965 310.596413 L841.605043 307.018680 L812.306548 342.822144 L825.326940 341.521150 L810.676386 375.860997 L818.814131 375.047876 Z" fill="#888" fill-opacity="0.18" stroke="#000" stroke-width="1"/>
  <path d="M466.124770 598.189017 L423.691951 595.360448 L427.332586 588.037209 L390.030231 589.585796 L395.855247 577.868613 L351.999749 592.599030 L368.018543 560.376777 L344.584177 548.726745 L353.321701 531.150970 L376.756067 542.801002 L392.774861 510.578749 L407.505279 554.434246 L413.330295 542.717063 L434.613856 573.390730 L438.254491 566.067490 Z" fill="#888" fill-opacity="0.18" stroke="#000" stroke-width="1"/>
  <path d="M287.093937 757.166411 L244.832910 761.915155 L247.115754 754.061959 L210.680715 762.207617 L214.333264 749.642503 L173.789107 771.923914 L183.833618 737.369852 L158.703391 730.064753 L164.182215 711.217083 L189.312442 718.522182 L199.356952 683.968120 L221.638363 724.512276 L225.290912 711.947163 L251.681440 738.355567 L253.964283 730.502371 Z" fill="#888" fill-opacity="0.18" stroke="#000" stroke-width="1"/>
  <path d="M602.951675 947.510230 L610.545640 905.666752 L617.411792 910.109725 L620.078148 872.870575 L631.063992 879.979331 L621.371274 834.742829 L651.582345 854.291910 L665.799858 832.320222 L682.278624 842.983357 L668.061111 864.955045 L698.272182 884.504126 L653.035680 894.196845 L664.021525 901.305601 L631.144097 918.995671 L638.010250 923.438644 Z" fill="#888" fill-opacity="0.18" stroke="#000" stroke-width="1"/>
  <path d="M788.759497 903.838037 L826.077473 883.444076 L826.937497 891.576998 L857.577131 870.244472 L858.953170 883.257147 L888.044759 847.285362 L891.828867 883.070218 L917.854217 880.318140 L919.918275 899.837152 L893.892925 902.589231 L897.677033 938.374087 L861.705248 909.282497 L863.081287 922.295172 L828.657546 907.842842 L829.517571 915.975764 Z" fill="#888" fill-opacity="0.18" stroke="#000" stroke-width="1"/>
  <path d="M294.688406 549.979302 L253.078110 558.761569 L254.596812 550.725550 L219.111591 562.329982 L221.541515 549.472352 L183.322629 575.541619 L190.004919 540.183135 L164.289658 535.323287 L167.934544 516.036841 L193.649805 520.896689 L200.332096 485.538205 L226.401362 523.757091 L228.831286 510.899460 L257.634217 534.653512 L259.152919 526.617493 Z" fill="#888" fill-opacity="0.18" stroke="#000" stroke-width="1"/>
  <path d="M827.721902 245.931445 L847.417620 208.240284 L852.651575 214.524373 L866.273232 179.763558 L874.647559 189.818101 L878.848097 143.745925 L901.877498 171.395917 L921.986583 154.647262 L934.548075 169.729076 L914.438989 186.477732 L937.468390 214.127724 L891.396214 209.927186 L899.770542 219.981729 L863.119485 227.092552 L868.353439 233.376641 Z" fill="#888" fill-opacity="0.18" stroke="#000" stroke-width="1"/>
  <path d="M368.037744 1044.121583 L356.737826 1003.123330 L364.851415 1004.149842 L351.107569 969.437157 L364.089312 971.079578 L335.741005 934.519170 L371.440798 939.035825 L374.725638 913.072340 L394.198253 915.535970 L390.913412 941.499456 L426.613205 946.016111 L390.052798 974.364418 L403.034541 976.006838 L381.078594 1006.202867 L389.192183 1007.229380 Z" fill="#888" fill-opacity="0.18" stroke="#000" stroke-width="1"/>
  <path d="M781.724279 834.444143 L772.479514 875.954133 L765.794661 871.242784 L761.655945 908.347162 L750.960180 900.809005 L758.854199 946.393809 L729.440846 925.663877 L714.364532 947.055406 L698.320885 935.748170 L713.397199 914.356641 L683.983847 893.626709 L729.568651 885.732691 L718.872886 878.194534 L752.424955 861.820088 L745.740102 857.108740 Z" fill="#888" fill-opacity="0.18" stroke="#000" stroke-width="1"/>
  <path d="M231.484620 167.976533 L231.577130 125.449643 L239.119439 128.611545 L235.173965 91.486122 L247.241661 96.545165 L229.720029 53.728319 L262.906192 67.640687 L273.024278 43.505295 L291.125821 51.093860 L281.007735 75.229251 L314.193898 89.141619 L271.377052 106.663251 L283.444748 111.722294 L254.204059 134.935348 L261.746369 138.097250 Z" fill="#888" fill-opacity="0.18" stroke="#000" stroke-width="1"/>
  <path d="M769.441494 152.130287 L740.818239 183.582699 L737.352075 176.175286 L715.347983 206.336250 L709.802121 194.484389 L694.037125 237.978697 L678.786004 205.386079 L655.082282 216.477804 L646.763489 198.700012 L670.467211 187.608288 L655.216090 155.015671 L698.710397 170.780668 L693.164535 158.928807 L730.419747 161.360460 L726.953584 153.953047 Z" fill="#888" fill-opacity="0.18" stroke="#000" stroke-width="1"/>
  <path d="M535.487455 1047.581505 L532.379839 1005.168209 L540.138680 1007.753639 L533.410952 971.030329 L545.825097 975.167018 L525.131456 933.789934 L559.270355 945.165827 L567.543733 920.337537 L586.164950 926.542570 L577.891573 951.370861 L612.030472 962.746754 L570.653387 983.440395 L583.067533 987.577084 L555.656361 1012.924500 L563.415202 1015.509930 Z" fill="#888" fill-opacity="0.18" stroke="#000" stroke-width="1"/>
  <path d="M561.183047 628.712083 L563.863155 671.154538 L556.130759 668.491062 L562.488127 705.280295 L550.116293 701.018733 L570.391975 742.602223 L536.369431 730.882929 L527.846308 755.626598 L509.288556 749.234255 L517.811679 724.490587 L483.789135 712.771293 L525.372624 692.495610 L513.000790 688.234049 L540.665966 663.164110 L532.933569 660.500634 Z" fill="#888" fill-opacity="0.18" stroke="#000" stroke-width="1"/>
  <path d="M490.810176 675.321055 L482.605083 633.593110 L490.619296 635.222971 L479.507471 599.580425 L492.330212 602.188202 L466.792804 563.611906 L502.055341 570.783294 L507.270897 545.137812 L526.505008 549.049478 L521.289453 574.694960 L556.551991 581.866349 L517.975694 607.403757 L530.798435 610.011535 L506.647722 638.482693 L514.661935 640.112554 Z" fill="#888" fill-opacity="0.18" stroke="#000" stroke-width="1"/>
  <path d="M865.426624 925.007421 L891.618697 958.511454 L883.733952 960.682826 L909.765877 987.444789 L897.150285 990.918983 L937.374751 1013.772478 L902.681873 1023.326512 L909.630262 1048.557696 L890.706874 1053.768988 L883.758485 1028.537804 L849.065606 1038.091838 L871.919101 997.867372 L859.303509 1001.341566 L867.964462 965.025569 L860.079717 967.196940 Z" fill="#888" fill-opacity="0.18" stroke="#000" stroke-width="1"/>
  <path d="M313.951106 1012.291239 L294.121974 974.670095 L302.266936 973.932759 L281.398680 942.975051 L294.430618 941.795315 L258.901432 912.164810 L294.739262 908.920535 L292.379790 882.856659 L311.927697 881.087054 L314.287170 907.150931 L350.125000 903.906656 L320.494495 939.435842 L333.526433 938.256106 L318.556859 972.458089 L326.701820 971.720754 Z" fill="#888" fill-opacity="0.18" stroke="#000" stroke-width="1"/>
  <path d="M765.845949 775.951552 L751.602183 735.880864 L759.768856 736.316193 L743.543491 702.691777 L756.610168 703.388303 L725.684792 668.980295 L761.618153 670.895743 L763.011206 644.762389 L782.611221 645.807179 L781.218168 671.940533 L817.151530 673.855981 L782.743521 704.781356 L795.810198 705.477883 L776.102202 737.186851 L784.268875 737.622180 Z" fill="#888" fill-opacity="0.18" stroke="#000" stroke-width="1"/>
  <path d="M346.678595 870.998595 L382.982667 848.850022 L384.229154 856.932740 L413.817755 834.164812 L415.812134 847.097161 L443.157057 809.780341 L448.641601 845.344300 L474.506298 841.355541 L477.497867 860.754064 L451.633169 864.742823 L457.117712 900.306782 L419.800893 872.961858 L421.795272 885.894207 L386.722129 873.098176 L387.968616 881.180894 Z" fill="#888" fill-opacity="0.18" stroke="#000" stroke-width="1"/>
  <path d="M75.226460 163.499378 L77.017184 121.010106 L84.427209 124.470684 L81.967466 87.217315 L93.823505 92.754239 L78.025718 49.271831 L110.629825 64.498373 L121.703673 40.786295 L139.487732 49.091681 L128.413883 72.803759 L161.017991 88.030301 L117.535583 103.828088 L129.391622 109.365012 L99.247257 131.391839 L106.657282 134.852417 Z" fill="#888" fill-opacity="0.18" stroke="#000" stroke-width="1"/>
  <path d="M927.708398 956.482649 L969.424442 948.217259 L967.806165 956.233819 L1003.432615 945.070496 L1000.843372 957.896992 L1039.382721 932.303860 L1032.262302 967.576725 L1057.915295 972.755212 L1054.031430 991.994956 L1028.378437 986.816469 L1021.258017 1022.089334 L995.664885 983.549985 L993.075641 996.376481 L964.569610 972.266940 L962.951333 980.283500 Z" fill="#888" fill-opacity="0.18" stroke="#000" stroke-width="1"/>
  <path d="M355.104959 64.650141 L397.558198 62.146649 L394.862572 69.867897 L431.677938 63.663655 L427.364937 76.017651 L469.032430 55.915164 L457.171677 89.888652 L481.879669 98.514654 L475.410167 117.045648 L450.702175 108.419646 L438.841423 142.393135 L418.738936 100.725643 L414.425935 113.079638 L389.471321 85.310392 L386.775696 93.031639 Z" fill="#888" fill-opacity="0.18" stroke="#000" stroke-width="1"/>
  <path d="M820.595364 947.626148 L796.754001 982.841690 L792.266136 976.004795 L774.791861 1008.997424 L767.611277 998.058393 L758.215160 1043.357431 L738.468553 1013.275096 L716.590491 1027.636264 L705.819615 1011.227718 L727.697677 996.866549 L707.951070 966.784214 L753.250108 976.180330 L746.069524 965.241299 L783.290405 962.331006 L778.802540 955.494112 Z" fill="#888" fill-opacity="0.18" stroke="#000" stroke-width="1"/>
  <path d="M584.743228 55.528335 L562.164534 91.566475 L557.437253 84.892880 L541.142892 118.483914 L533.579242 107.806162 L525.793986 153.409667 L504.993949 124.045849 L483.638444 139.173149 L472.292969 123.156520 L493.648474 108.029221 L472.848436 78.665402 L518.451942 86.450658 L510.888292 75.772905 L547.982691 71.545690 L543.255410 64.872095 Z" fill="#888" fill-opacity="0.18" stroke="#000" stroke-width="1"/>
  <path d="M359.988808 563.938113 L333.448939 597.167321 L329.513271 589.998320 L309.495736 621.512794 L303.198667 610.042393 L290.265335 654.461069 L272.948396 622.917464 L250.007592 635.511602 L240.561989 618.305999 L263.502793 605.711862 L246.185853 574.168257 L290.604530 587.101589 L284.307461 575.631187 L321.641935 575.660318 L317.706267 568.491317 Z" fill="#888" fill-opacity="0.18" stroke="#000" stroke-width="1"/>
  <path d="M667.692254 426.913603 L635.021889 454.138448 L632.605524 446.325303 L606.668948 473.179685 L602.802763 460.678653 L581.215646 501.596697 L570.583636 467.218858 L545.581572 474.951229 L539.782294 456.199681 L564.784359 448.467310 L554.152349 414.089472 L595.070392 435.676589 L591.204207 423.175557 L627.772792 430.699013 L625.356426 422.885868 Z" fill="#888" fill-opacity="0.18" stroke="#000" stroke-width="1"/>
  <path d="M660.338368 712.017344 L672.101565 671.149604 L678.486134 676.260508 L684.883694 639.478243 L695.099005 647.655688 L690.004341 601.673797 L718.096446 624.161771 L734.451337 603.731149 L749.774303 615.997317 L733.419413 636.427939 L761.511518 658.915914 L715.529628 664.010578 L725.744939 672.188024 L691.255273 686.482314 L697.639842 691.593217 Z" fill="#888" fill-opacity="0.18" stroke="#000" stroke-width="1"/>
  <path d="M293.297449 368.196723 L252.511345 380.239922 L253.390222 372.109016 L218.933068 386.481499 L220.339272 373.472050 L184.300137 402.480164 L188.167198 366.704177 L162.148299 363.891769 L164.257605 344.377594 L190.276505 347.190002 L194.143566 311.414016 L223.151680 347.453150 L224.557884 334.443701 L255.147978 355.847204 L256.026855 347.716298 Z" fill="#888" fill-opacity="0.18" stroke="#000" stroke-width="1"/>
  <path d="M141.214349 636.798282 L132.819962 678.488559 L126.040208 673.914831 L122.660755 711.096051 L111.813148 703.778086 L120.637252 749.192016 L90.806333 729.067612 L76.170403 750.762826 L59.898992 739.785878 L74.534922 718.090664 L44.704003 697.966260 L90.117933 689.142155 L79.270326 681.824190 L112.480699 664.767375 L105.700945 660.193647 Z" fill="#888" fill-opacity="0.18" stroke="#000" stroke-width="1"/>
  <path d="M761.532398 491.064794 L798.071369 512.823668 L791.506260 517.700491 L825.456794 533.231913 L814.952620 541.034831 L860.720349 547.787970 L831.833872 569.245994 L847.439708 590.254342 L831.683448 601.958719 L816.077612 580.950371 L787.191134 602.408396 L793.944273 556.640667 L783.440100 564.443585 L778.376043 527.454139 L771.810935 532.330963 Z" fill="#888" fill-opacity="0.18" stroke="#000" stroke-width="1"/>
  <path d="M784.525330 486.581578 L754.232204 456.734108 L761.771187 453.564283 L732.506124 430.381964 L744.568498 425.310244 L701.733265 407.833611 L734.904791 393.886381 L724.761351 369.761635 L742.854911 362.154055 L752.998351 386.278801 L786.169878 372.331572 L768.693244 415.166805 L780.755617 410.095085 L776.849154 447.224633 L784.388137 444.054808 Z" fill="#888" fill-opacity="0.18" stroke="#000" stroke-width="1"/>
  <path d="M372.661191 1039.125820 L404.808877 1011.285718 L407.373119 1019.051587 L432.795261 991.709706 L436.898049 1004.135096 L457.704555 962.814651 L468.987222 996.984474 L493.838002 988.778898 L499.992184 1007.416983 L475.141404 1015.622559 L486.424070 1049.792382 L445.103625 1028.985876 L449.206413 1041.411267 L412.501604 1034.583325 L415.065846 1042.349194 Z" fill="#888" fill-opacity="0.18" stroke="#000" stroke-width="1"/>
  <path d="M1029.659478 321.548532 L1033.672883 363.885721 L1025.860556 361.466711 L1033.371634 398.037840 L1020.871912 394.167424 L1042.445178 435.092771 L1008.070941 424.449127 L1000.330108 449.448572 L981.580524 443.642948 L989.321356 418.643502 L954.947119 407.999858 L995.872466 386.426591 L983.372743 382.556175 L1010.235902 356.628690 L1002.423576 354.209680 Z" fill="#888" fill-opacity="0.18" stroke="#000" stroke-width="1"/>
  <path d="M244.529575 561.998678 L242.446726 604.474632 L235.060672 600.963183 L237.264193 638.232584 L225.446507 632.614265 L240.944924 676.204276 L208.446289 660.753899 L197.209652 684.389270 L179.483124 675.961791 L190.719761 652.326421 L158.221127 636.876044 L201.811137 621.377628 L189.993452 615.759309 L220.288566 593.940284 L212.902512 590.428835 Z" fill="#888" fill-opacity="0.18" stroke="#000" stroke-width="1"/>
  <path d="M931.513843 741.125497 L896.925461 765.867946 L895.091622 757.897934 L867.246019 782.767316 L864.311877 770.015296 L839.767182 809.230700 L831.698292 774.162646 L806.194253 780.030929 L801.793040 760.902900 L827.297080 755.034616 L819.228190 719.966563 L858.443593 744.511257 L855.509451 731.759237 L891.423945 741.957910 L889.590107 733.987898 Z" fill="#888" fill-opacity="0.18" stroke="#000" stroke-width="1"/>
  <path d="M871.806179 379.052527 L861.077769 337.901024 L869.176291 339.040323 L855.916737 304.139778 L868.874372 305.962656 L841.037479 269.011373 L876.670976 274.024288 L880.316732 248.109018 L899.753184 250.843334 L896.107428 276.758605 L931.740925 281.771519 L894.789642 309.608412 L907.747277 311.431290 L885.373334 341.318920 L893.471856 342.458219 Z" fill="#888" fill-opacity="0.18" stroke="#000" stroke-width="1"/>
  <path d="M821.795869 829.664826 L858.371369 807.967411 L859.517692 816.064942 L889.385902 793.665080 L891.220020 806.621129 L919.024848 769.645712 L924.068672 805.274846 L949.980770 801.606610 L952.731947 821.040684 L926.819849 824.708919 L931.863673 860.338054 L894.888256 832.533226 L896.722374 845.489275 L861.810340 832.260003 L862.956663 840.357533 Z" fill="#888" fill-opacity="0.18" stroke="#000" stroke-width="1"/>
  <path d="M1055.262749 673.243388 L1044.320711 714.338603 L1037.835024 709.356643 L1032.175692 746.259702 L1021.798594 738.288565 L1027.813497 784.159152 L999.276477 762.238526 L983.334203 782.992722 L967.768556 771.036017 L983.710830 750.281820 L955.173810 728.361194 L1001.044397 722.346291 L990.667299 714.375154 L1024.863652 699.392721 L1018.377965 694.410761 Z" fill="#888" fill-opacity="0.18" stroke="#000" stroke-width="1"/>
  <path d="M352.963608 207.904805 L311.180200 215.822619 L312.865159 207.819809 L277.147008 218.686153 L279.842943 205.881657 L241.091864 231.153060 L248.505686 195.940695 L222.896694 190.548824 L226.940597 171.342080 L252.549589 176.733951 L259.963411 141.521586 L285.234814 180.272665 L287.930749 167.468168 L316.235078 191.814189 L317.920038 183.811379 Z" fill="#888" fill-opacity="0.18" stroke="#000" stroke-width="1"/>
  <path d="M562.617088 853.232200 L520.560022 846.927584 L524.789914 839.928150 L487.486417 838.407334 L494.254245 827.208241 L449.336941 838.286406 L467.948467 807.488898 L445.550280 793.953243 L455.702022 777.154602 L478.100209 790.690258 L496.711735 759.892750 L507.789900 804.810053 L514.557728 793.610960 L533.249699 825.929283 L537.479591 818.929849 Z" fill="#888" fill-opacity="0.18" stroke="#000" stroke-width="1"/>
  <path d="M73.044571 1036.364188 L95.812403 1000.445241 L100.504537 1007.143595 L116.975259 973.638683 L124.482672 984.356049 L132.507555 938.794101 L153.152941 968.266858 L174.587674 953.252032 L185.848794 969.328081 L164.414061 984.342908 L185.059447 1013.815665 L139.497499 1005.790782 L147.004912 1016.508148 L109.888803 1020.540302 L114.580936 1027.238656 Z" fill="#888" fill-opacity="0.18" stroke="#000" stroke-width="1"/>
  <path d="M404.531384 203.564640 L396.296566 245.286729 L389.499362 240.738973 L386.262189 277.932851 L375.386663 270.656442 L384.384456 316.036279 L354.476760 296.026155 L339.923942 317.777207 L323.610653 306.862594 L338.163470 285.111542 L308.255774 265.101418 L353.635611 256.103625 L342.760085 248.827216 L375.904955 231.643463 L369.107751 227.095707 Z" fill="#888" fill-opacity="0.18" stroke="#000" stroke-width="1"/>
  <path d="M716.654408 206.090029 L733.897593 244.964410 L725.721431 245.150006 L744.451371 277.446340 L731.369513 277.743294 L764.816544 309.705554 L728.841434 310.522177 L729.435342 336.685893 L709.812555 337.131324 L709.218647 310.967608 L673.243537 311.784232 L705.205797 278.337202 L692.123939 278.634156 L709.369109 245.521199 L701.192948 245.706795 Z" fill="#888" fill-opacity="0.18" stroke="#000" stroke-width="1"/>
  <path d="M745.844585 59.078809 L722.067252 94.337615 L717.566971 87.508887 L700.152677 120.533214 L692.952227 109.607249 L683.638439 154.923286 L663.837202 124.876882 L641.985271 139.277782 L631.184597 122.888834 L653.036527 108.487935 L633.235289 78.441531 L678.551327 87.755319 L671.350877 76.829353 L708.566408 73.851431 L704.066127 67.022702 Z" fill="#888" fill-opacity="0.18" stroke="#000" stroke-width="1"/>
  <path d="M522.215594 190.984261 L539.265808 152.024858 L544.920568 157.933136 L556.113209 122.315884 L565.160825 131.769129 L566.174897 85.516977 L591.055841 111.513400 L609.962330 93.418169 L623.533754 107.598036 L604.627264 125.693268 L629.508208 151.689691 L583.256056 150.675619 L592.303672 160.128864 L556.230088 169.749692 L561.884848 175.657970 Z" fill="#888" fill-opacity="0.18" stroke="#000" stroke-width="1"/>
  <path d="M715.020193 149.687353 L736.881225 113.209411 L741.739659 119.788140 L757.366021 85.881200 L765.139515 96.407166 L772.020696 50.658514 L793.397806 79.604922 L814.449739 64.057933 L826.109981 79.846883 L805.058047 95.393872 L826.435157 124.340280 L780.686504 117.459100 L788.459999 127.985067 L751.456527 132.945599 L756.314961 139.524328 Z" fill="#888" fill-opacity="0.18" stroke="#000" stroke-width="1"/>
  <path d="M702.552056 591.107208 L660.132179 594.123667 L662.734278 586.370400 L625.996595 593.019191 L630.159953 580.613965 L588.738492 601.218636 L600.187726 567.104263 L575.377274 558.777547 L581.622311 540.169708 L606.432764 548.496424 L617.881998 514.382051 L638.486669 555.803512 L642.650027 543.398286 L667.938476 570.863867 L670.540574 563.110601 Z" fill="#888" fill-opacity="0.18" stroke="#000" stroke-width="1"/>
  <path d="M882.774775 718.267584 L848.007000 693.777856 L854.925870 689.417432 L822.262660 671.334885 L833.332852 664.358207 L788.215677 654.124422 L818.658705 634.938557 L804.705348 612.798173 L821.310636 602.333156 L835.263993 624.473540 L865.707021 605.287674 L855.473236 650.404850 L866.543428 643.428172 L868.763610 680.696584 L875.682480 676.336161 Z" fill="#888" fill-opacity="0.18" stroke="#000" stroke-width="1"/>
  <path d="M578.672002 589.251892 L544.230677 564.305145 L551.206529 560.036474 L518.784971 541.524144 L529.946334 534.694270 L484.968243 523.865547 L515.661991 505.083395 L502.002244 482.760669 L518.744288 472.515859 L532.404035 494.838584 L563.097783 476.056432 L552.269060 521.034523 L563.430422 514.204649 L565.158233 551.499132 L572.134084 547.230461 Z" fill="#888" fill-opacity="0.18" stroke="#000" stroke-width="1"/>
  <path d="M65.627073 277.076334 L75.181974 235.636633 L81.831411 240.397836 L86.247463 203.325444 L96.886561 210.943369 L89.333627 165.300811 L118.591147 186.250104 L133.826997 164.971907 L149.785644 176.398795 L134.549795 197.676991 L163.807315 218.626284 L118.164758 226.179218 L128.803856 233.797143 L95.130284 249.920242 L101.779720 254.681445 Z" fill="#888" fill-opacity="0.18" stroke="#000" stroke-width="1"/>
  <path d="M70.890920 326.918014 L92.805471 363.363828 L84.714901 364.558289 L107.291998 394.292756 L94.347086 396.203893 L131.487209 423.788330 L95.888701 429.043957 L99.710975 454.933781 L80.293607 457.800487 L76.471333 431.910663 L40.872825 437.166290 L68.457262 400.026167 L55.512350 401.937304 L68.533761 366.947211 L60.443191 368.141671 Z" fill="#888" fill-opacity="0.18" stroke="#000" stroke-width="1"/>
  <path d="M214.568058 66.833956 L213.365489 109.343941 L205.908286 105.986237 L208.883321 143.202000 L196.951795 137.829674 L213.349796 181.089303 L180.538100 166.315408 L169.793449 190.178460 L151.896160 182.119972 L162.640811 158.256920 L129.829115 143.483026 L173.088743 127.085024 L161.157217 121.712699 L190.993878 99.270831 L183.536674 95.913128 Z" fill="#888" fill-opacity="0.18" stroke="#000" stroke-width="1"/>
  <path d="M826.693040 65.990687 L868.814591 60.132365 L866.739030 68.042871 L902.947288 58.942000 L899.626391 71.598809 L939.570658 48.259027 L930.438192 83.065254 L955.751812 89.707047 L950.770466 108.692262 L925.456847 102.050469 L916.324381 136.856696 L892.984598 96.912429 L889.663701 109.569239 L862.587909 83.863884 L860.512349 91.774390 Z" fill="#888" fill-opacity="0.18" stroke="#000" stroke-width="1"/>
  <path d="M71.108055 806.093677 L113.591308 804.165427 L110.791349 811.849455 L147.687372 806.144432 L143.207436 818.438877 L185.143387 798.902604 L172.823564 832.712327 L197.412454 841.672197 L190.692551 860.113864 L166.103661 851.153994 L153.783839 884.963717 L134.247566 843.027766 L129.767630 855.322211 L105.191430 827.217511 L102.391470 834.901539 Z" fill="#888" fill-opacity="0.18" stroke="#000" stroke-width="1"/>
  <path d="M749.329065 499.191614 L709.719677 514.671966 L709.901374 506.495717 L676.796645 523.756676 L677.087360 510.674678 L643.655577 542.652885 L644.455043 506.677390 L618.291047 506.095960 L618.727120 486.472963 L644.891116 487.054393 L645.690583 451.078898 L677.668790 484.510682 L677.959506 471.428684 L710.264768 490.143219 L710.446465 481.966970 Z" fill="#888" fill-opacity="0.18" stroke="#000" stroke-width="1"/>
  <path d="M351.024846 228.686252 L357.483331 186.652540 L364.467238 190.908019 L366.124559 153.610337 L377.298810 160.419103 L366.385097 115.461559 L397.114288 134.185666 L410.731821 111.837164 L427.493198 122.050313 L413.875665 144.398816 L444.604857 163.122923 L399.647312 174.036636 L410.821564 180.845402 L378.435052 199.418977 L385.418959 203.674456 Z" fill="#888" fill-opacity="0.18" stroke="#000" stroke-width="1"/>
  <path d="M939.056566 173.295412 L957.971234 135.206302 L963.333600 141.381177 L976.235895 106.346985 L984.815681 116.226786 L988.065716 70.077819 L1011.660129 97.247270 L1031.419730 80.087697 L1044.289409 94.907397 L1024.529809 112.066970 L1048.124222 139.236421 L1001.975254 135.986387 L1010.555041 145.866187 L974.058334 153.730928 L979.420700 159.905803 Z" fill="#888" fill-opacity="0.18" stroke="#000" stroke-width="1"/>
  <path d="M883.662589 584.266380 L922.268442 602.102665 L916.246775 607.636524 L951.629875 619.548704 L941.995208 628.402877 L988.217308 630.354113 L961.721973 654.703088 L979.430319 673.972423 L964.978318 687.253682 L947.269972 667.984348 L920.774637 692.333323 L922.725873 646.111223 L913.091206 654.965396 L904.203441 618.704240 L898.181774 624.238098 Z" fill="#888" fill-opacity="0.18" stroke="#000" stroke-width="1"/>
  <path d="M277.235033 387.823838 L307.553691 417.645374 L300.017423 420.821649 L329.302313 443.978915 L317.244285 449.060956 L360.094458 466.500926 L326.934879 480.476538 L337.098960 504.592595 L319.011917 512.215656 L308.847836 488.099598 L275.688257 502.075210 L293.128227 459.225037 L281.070199 464.307077 L284.944887 427.174200 L277.408619 430.350475 Z" fill="#888" fill-opacity="0.18" stroke="#000" stroke-width="1"/>
  <path d="M512.183773 776.367284 L554.043629 768.864127 L552.279407 776.849838 L588.103539 766.338161 L585.280784 779.115299 L624.280516 754.229342 L616.517940 789.366471 L642.072215 795.011981 L637.838082 814.177687 L612.283807 808.532177 L604.521231 843.669305 L579.635274 804.669574 L576.812519 817.446711 L548.750964 792.821260 L546.986742 800.806971 Z" fill="#888" fill-opacity="0.18" stroke="#000" stroke-width="1"/>
  <path d="M133.719401 236.748909 L146.859491 277.194960 L138.707819 276.535948 L154.005453 310.592463 L140.962777 309.538045 L170.933421 344.780780 L135.066062 341.881130 L132.957225 367.966481 L113.393212 366.384854 L115.502048 340.299502 L79.634690 337.399852 L114.877425 307.429208 L101.834749 306.374790 L122.404474 275.217925 L114.252802 274.558914 Z" fill="#888" fill-opacity="0.18" stroke="#000" stroke-width="1"/>
  <path d="M498.521002 221.143418 L540.310686 213.258798 L538.619370 221.260267 L574.346143 210.422300 L571.640037 223.224650 L610.411178 197.984039 L602.969387 233.190503 L628.574088 238.602715 L624.514929 257.806241 L598.910228 252.394029 L591.468436 287.600493 L566.227825 248.829352 L563.521719 261.631702 L535.236738 237.263205 L533.545422 245.264674 Z" fill="#888" fill-opacity="0.18" stroke="#000" stroke-width="1"/>
  <path d="M226.288816 768.243304 L261.763575 791.697225 L254.976285 796.259762 L288.158472 813.371344 L277.298807 820.671403 L322.698118 829.570418 L292.834038 849.645581 L307.434157 871.364911 L291.144659 882.315000 L276.544540 860.595670 L246.680461 880.670832 L255.579476 835.271521 L244.719811 842.571580 L241.401703 805.384836 L234.614412 809.947373 Z" fill="#888" fill-opacity="0.18" stroke="#000" stroke-width="1"/>
  <path d="M247.080201 309.672651 L289.141227 315.950797 L284.915740 322.952892 L322.220187 324.450229 L315.459409 335.653580 L360.369732 324.547148 L341.777592 355.356363 L364.184294 368.877920 L354.043126 385.682946 L331.636425 372.161390 L313.044285 402.970604 L301.937853 358.060282 L295.177075 369.263633 L276.464768 336.957080 L272.239281 343.959174 Z" fill="#888" fill-opacity="0.18" stroke="#000" stroke-width="1"/>
  <path d="M236.551208 193.451401 L231.585914 235.687533 L224.455631 231.682145 L224.120703 269.015128 L212.712251 262.606508 L225.211832 307.149189 L193.838588 289.525484 L181.021349 312.342389 L163.908670 302.729459 L176.725910 279.912554 L145.352666 262.288850 L189.895346 249.789269 L178.486894 243.380649 L210.195066 223.671370 L203.064783 219.665983 Z" fill="#888" fill-opacity="0.18" stroke="#000" stroke-width="1"/>
  <path d="M1051.720346 674.833065 L1019.280893 647.333485 L1026.561843 643.608995 L995.645793 622.679073 L1007.295313 616.719889 L963.273553 602.494050 L995.309733 586.106293 L983.391364 562.807253 L1000.865644 553.868477 L1012.784013 577.167517 L1044.820192 560.779761 L1030.594353 604.801521 L1042.243873 598.842337 L1041.123743 636.160015 L1048.404693 632.435525 Z" fill="#888" fill-opacity="0.18" stroke="#000" stroke-width="1"/>
  <path d="M407.505499 316.048661 L413.227950 358.188886 L405.324179 356.087825 L414.308233 392.325244 L401.662198 388.963547 L424.873041 428.982876 L390.096446 419.738208 L383.373052 445.030277 L364.404000 439.987731 L371.127395 414.695662 L336.350801 405.450995 L376.370130 382.240152 L363.724095 378.878455 L389.516636 351.885703 L381.612864 349.784642 Z" fill="#888" fill-opacity="0.18" stroke="#000" stroke-width="1"/>
  <path d="M975.654645 393.779554 L966.381275 352.275945 L974.434679 353.699578 L962.411721 318.353966 L975.297169 320.631779 L948.778082 282.723628 L984.213063 288.987613 L988.768689 263.216718 L1008.096860 266.633437 L1003.541234 292.404333 L1038.976215 298.668318 L1001.068064 325.187405 L1013.953512 327.465218 L990.541489 356.546844 L998.594894 357.970477 Z" fill="#888" fill-opacity="0.18" stroke="#000" stroke-width="1"/>
  <path d="M1045.645923 166.001804 L1021.060289 200.701827 L1016.718985 193.770943 L998.546318 226.384099 L991.600233 215.294686 L981.241912 260.383432 L962.140178 229.887545 L939.961351 243.779715 L929.542223 227.145594 L951.721050 213.253424 L932.619317 182.757537 L977.708063 193.115858 L970.761978 182.026445 L1008.036379 179.909176 L1003.695076 172.978293 Z" fill="#888" fill-opacity="0.18" stroke="#000" stroke-width="1"/>
  <path d="M523.839575 371.929000 L564.189546 358.496769 L563.589500 366.652994 L597.534500 351.109482 L596.574427 364.159442 L631.599509 333.934724 L628.959308 369.822114 L655.059228 371.742259 L653.619119 391.317199 L627.519199 389.397053 L624.878998 425.284443 L594.654281 390.259361 L593.694208 403.309321 L562.389409 382.965444 L561.789363 391.121669 Z" fill="#888" fill-opacity="0.18" stroke="#000" stroke-width="1"/>
  <path d="M46.605981 595.908617 L85.320109 578.308581 L85.580905 586.482689 L117.703587 567.456468 L118.120860 580.535041 L149.774110 546.795425 L150.921611 582.761501 L177.078758 581.926955 L177.704667 601.544814 L151.547521 602.379361 L152.695022 638.345437 L118.955407 606.692187 L119.372680 619.770760 L86.102497 602.830905 L86.363292 611.005013 Z" fill="#888" fill-opacity="0.18" stroke="#000" stroke-width="1"/>
  <path d="M188.797672 1059.683612 L214.683572 1025.942462 L218.758487 1033.033240 L238.156782 1001.133868 L244.676647 1012.479111 L256.740094 967.816340 L274.669722 999.015760 L297.360210 985.976030 L307.140007 1002.993896 L284.449520 1016.033626 L302.379148 1047.233046 L257.716377 1035.169599 L264.236241 1046.514842 L226.908318 1047.214794 L230.983234 1054.305572 Z" fill="#888" fill-opacity="0.18" stroke="#000" stroke-width="1"/>
  <path d="M411.112014 326.812853 L450.509284 310.800355 L450.437740 318.978309 L483.306955 301.272985 L483.192485 314.357713 L516.190479 281.932071 L515.875685 317.915071 L542.045140 318.144011 L541.873434 337.771102 L515.703980 337.542161 L515.389186 373.525161 L482.963544 340.527167 L482.849074 353.611895 L450.294652 335.334219 L450.223108 343.512173 Z" fill="#888" fill-opacity="0.18" stroke="#000" stroke-width="1"/>
  <path d="M522.640237 875.172430 L506.806974 914.642073 L500.971628 908.912083 L490.889427 944.859447 L481.552873 935.691462 L481.974296 981.952810 L456.298772 956.740851 L437.962802 975.413960 L423.957971 961.661982 L442.293941 942.988874 L416.618417 917.776915 L462.879765 917.355492 L453.543211 908.187507 L489.300935 897.452102 L483.465589 891.722111 Z" fill="#888" fill-opacity="0.18" stroke="#000" stroke-width="1"/>
  <path d="M628.609223 1057.054499 L626.154945 1014.598387 L633.873063 1017.302961 L627.711503 980.480428 L640.060491 984.807747 L620.006319 943.116980 L653.966036 955.017108 L662.620674 930.319132 L681.144156 936.810111 L672.489517 961.508086 L706.449234 973.408214 L664.758466 993.462386 L677.107454 997.789705 L649.309298 1022.712110 L657.027415 1025.416685 Z" fill="#888" fill-opacity="0.18" stroke="#000" stroke-width="1"/>
  <path d="M876.593940 523.689688 L906.707906 493.661468 L909.810995 501.228165 L933.250986 472.169076 L938.215928 484.275791 L956.070359 441.596649 L969.723950 474.890114 L993.937380 464.960230 L1001.384793 483.120302 L977.171364 493.050186 L990.824955 526.343651 L948.145813 508.489220 L953.110755 520.595935 L916.017173 516.361558 L919.120262 523.928255 Z" fill="#888" fill-opacity="0.18" stroke="#000" stroke-width="1"/>
  <path d="M515.477132 424.426019 L486.242370 455.310865 L482.922188 447.836880 L460.330650 477.560376 L455.018358 465.602001 L438.403150 508.778669 L423.794347 475.893137 L399.877596 486.517721 L391.909158 468.580157 L415.825909 457.955573 L401.217106 425.070041 L444.393775 441.685250 L439.081483 429.726874 L476.281823 432.888911 L472.961640 425.414926 Z" fill="#888" fill-opacity="0.18" stroke="#000" stroke-width="1"/>
  <path d="M1044.974274 814.690702 L1037.817992 856.611253 L1030.905785 852.240274 L1028.628728 889.505255 L1017.569196 882.511690 L1027.734112 927.644432 L997.320400 908.412128 L983.333270 930.531190 L966.743973 920.040843 L980.731103 897.921780 L950.317391 878.689475 L995.450133 868.524560 L984.390602 861.530994 L1017.081371 843.498318 L1010.169163 839.127340 Z" fill="#888" fill-opacity="0.18" stroke="#000" stroke-width="1"/>
  <path d="M256.468243 428.585032 L219.192893 449.056799 L218.315904 440.925689 L187.720840 462.322087 L186.317658 449.312312 L157.301174 485.344708 L153.442422 449.567824 L127.422870 452.374189 L125.318097 432.859525 L151.337648 430.053160 L147.478897 394.276276 L183.511293 423.292760 L182.108110 410.282984 L216.561926 424.663469 L215.684937 416.532359 Z" fill="#888" fill-opacity="0.18" stroke="#000" stroke-width="1"/>
  <path d="M221.196423 843.811481 L241.354850 881.257212 L233.216670 882.065976 L254.355722 912.839411 L241.334635 914.133434 L277.122409 943.451094 L241.314421 947.009656 L243.902466 973.051830 L224.370836 974.992864 L221.782791 948.950691 L185.974803 952.509254 L215.292462 916.721480 L202.271375 918.015503 L216.940312 883.683505 L208.802133 884.492269 Z" fill="#888" fill-opacity="0.18" stroke="#000" stroke-width="1"/>
  <path d="M169.993051 497.802804 L138.131133 525.969506 L135.487777 518.230209 L110.345968 545.830086 L106.116599 533.447209 L85.732830 574.977823 L74.102066 540.924913 L49.336313 549.383650 L42.992260 530.809335 L67.758013 522.350598 L56.127248 488.297687 L97.657862 508.681456 L93.428493 496.298580 L130.201066 502.751613 L127.557711 495.012315 Z" fill="#888" fill-opacity="0.18" stroke="#000" stroke-width="1"/>
</svg>
