<?xml version="1.0" encoding="UTF-8"?>
<svg xmlns="http://www.w3.org/2000/svg" width="1100" height="1100" viewBox="0 0 1100 1100">
  <rect x="0" y="0" width="1100" height="1100" fill="white"/>
  <text x="10.0" y="18.0" font-family="monospace" font-size="12">prefix=N88_job5048489_task88 run_id=88 L=7.55299736645 feas=0.000e+00 N=88</text>
  <rect x="40.000000" y="40.000000" width="1020.000000" height="1020.000000" fill="none" stroke="#000" stroke-width="2"/>
  <path d="M92.674370 330.056769 L117.912115 365.964652 L109.671238 367.788817 L135.097827 396.739165 L121.912423 399.657828 L162.172591 425.324680 L125.912730 433.351004 L131.750057 459.721813 L111.971950 464.099808 L106.134624 437.728999 L69.874763 445.755324 L95.541614 405.495155 L82.356210 408.413818 L93.189483 371.437146 L84.948605 373.261311 Z" fill="#888" fill-opacity="0.18" stroke="#000" stroke-width="1"/>
  <path d="M535.822008 256.475317 L562.354482 221.513228 L566.598309 228.809088 L586.445330 195.782889 L593.235453 207.456265 L605.443585 161.297517 L624.116423 193.399301 L647.463175 179.819055 L657.648360 197.329119 L634.301608 210.909365 L652.974446 243.011149 L606.815699 230.803016 L613.605822 242.476392 L575.085963 243.400808 L579.329789 250.696668 Z" fill="#888" fill-opacity="0.18" stroke="#000" stroke-width="1"/>
  <path d="M1008.181078 1024.527188 L987.563099 985.781624 L995.966008 984.987424 L974.302807 953.123026 L987.747462 951.852306 L950.959025 921.417469 L987.931826 917.922989 L985.390386 891.033679 L1005.557368 889.127599 L1008.098808 916.016909 L1045.071609 912.522428 L1014.636772 949.310866 L1028.081427 948.040146 L1012.771827 983.399023 L1021.174736 982.604823 Z" fill="#888" fill-opacity="0.18" stroke="#000" stroke-width="1"/>
  <path d="M163.086414 585.730502 L198.448529 559.733566 L200.447829 567.933715 L228.849965 541.896189 L232.048844 555.016427 L256.852241 514.218634 L265.649159 550.299289 L291.889636 543.901530 L296.687955 563.581887 L270.447478 569.979646 L279.244396 606.060301 L238.446603 581.256904 L241.645482 594.377142 L204.446428 584.334013 L206.445727 592.534161 Z" fill="#888" fill-opacity="0.18" stroke="#000" stroke-width="1"/>
  <path d="M823.022871 196.310056 L859.415412 220.843764 L852.368560 225.489355 L886.453999 243.456463 L875.179036 250.889408 L921.948808 260.494452 L890.942659 280.935053 L905.808550 303.484979 L888.896105 314.634398 L874.030214 292.084471 L843.024065 312.525072 L852.629109 265.755300 L841.354146 273.188245 L838.274856 234.780537 L831.228004 239.426128 Z" fill="#888" fill-opacity="0.18" stroke="#000" stroke-width="1"/>
  <path d="M380.940719 667.422739 L424.681598 671.035958 L420.804926 678.533361 L459.323217 677.545762 L453.120542 689.541607 L498.616842 675.058683 L481.559485 708.047257 L505.551175 720.452607 L496.247162 738.446375 L472.255473 726.041024 L455.198116 759.029598 L440.715191 713.533297 L434.512516 725.529142 L413.051582 693.528167 L409.174910 701.025571 Z" fill="#888" fill-opacity="0.18" stroke="#000" stroke-width="1"/>
  <path d="M592.838757 369.084091 L622.947594 337.150131 L626.389360 344.856874 L649.644449 314.134978 L655.151273 326.465767 L672.211185 281.871734 L687.354952 315.781404 L712.016531 304.767755 L720.276767 323.263939 L695.615189 334.277588 L710.758956 368.187258 L666.164922 351.127346 L671.671747 363.458135 L633.272890 360.270361 L636.714655 367.977104 Z" fill="#888" fill-opacity="0.18" stroke="#000" stroke-width="1"/>
  <path d="M1005.053333 459.905363 L1020.740811 500.895885 L1012.304071 500.648801 L1029.876565 534.939347 L1016.377780 534.544013 L1049.136406 569.279310 L1012.014748 568.192141 L1011.224080 595.189711 L990.975903 594.596709 L991.766571 567.599140 L954.644914 566.511971 L989.380211 533.753345 L975.881426 533.358011 L995.430590 500.154633 L986.993850 499.907550 Z" fill="#888" fill-opacity="0.18" stroke="#000" stroke-width="1"/>
  <path d="M555.256256 419.074973 L511.619140 414.371570 L515.681661 406.973221 L477.150721 406.999504 L483.650754 395.162147 L437.807276 408.505457 L455.682368 375.952723 L432.007652 362.952656 L441.757703 345.196619 L465.432418 358.196687 L483.307511 325.643953 L496.650821 371.487431 L503.150855 359.650073 L523.806703 392.176524 L527.869224 384.778175 Z" fill="#888" fill-opacity="0.18" stroke="#000" stroke-width="1"/>
  <path d="M97.632487 793.916953 L133.843072 769.115475 L135.567404 777.377818 L164.823248 752.303336 L167.582179 765.523086 L193.734226 725.576386 L201.321285 761.930697 L227.760784 756.412836 L231.899180 776.242460 L205.459681 781.760321 L213.046740 818.114633 L173.100040 791.962585 L175.858970 805.182335 L139.016067 793.902505 L140.740398 802.164849 Z" fill="#888" fill-opacity="0.18" stroke="#000" stroke-width="1"/>
  <path d="M134.846334 908.279301 L133.113823 952.134953 L125.456940 948.583646 L128.096851 987.024053 L115.845838 981.341961 L132.268138 1026.174723 L98.577854 1010.548969 L87.213670 1035.050993 L68.837151 1026.527855 L80.201336 1002.025830 L46.511052 986.400076 L91.343814 969.977776 L79.092802 964.295684 L110.143174 941.481030 L102.486292 937.929722 Z" fill="#888" fill-opacity="0.18" stroke="#000" stroke-width="1"/>
  <path d="M863.915443 545.812677 L821.251051 556.111680 L822.578476 547.776359 L786.316856 560.804367 L788.440735 547.467853 L749.789750 575.499439 L755.630420 538.824025 L728.957391 534.576265 L732.143211 514.571494 L758.816239 518.819253 L764.656908 482.143839 L792.688495 520.794824 L794.812374 507.458310 L825.233325 531.105716 L826.560750 522.770395 Z" fill="#888" fill-opacity="0.18" stroke="#000" stroke-width="1"/>
  <path d="M950.272270 99.661336 L909.047291 114.721913 L909.423001 106.289921 L874.868473 123.337464 L875.469609 109.846277 L840.238804 142.071405 L841.891926 104.970642 L814.909553 103.768371 L815.811257 83.531591 L842.793630 84.733862 L844.446752 47.633099 L876.671880 82.863904 L877.273015 69.372718 L910.174420 89.425938 L910.550130 80.993946 Z" fill="#888" fill-opacity="0.18" stroke="#000" stroke-width="1"/>
  <path d="M50.293609 572.369506 L82.393019 542.437119 L85.332243 550.349173 L110.514165 521.185756 L115.216924 533.845042 L135.108241 490.439927 L148.040830 525.252965 L173.359402 515.847445 L180.413542 534.836375 L155.094969 544.241894 L168.027558 579.054931 L124.622443 559.163614 L129.325203 571.822901 L91.210693 566.173281 L94.149918 574.085335 Z" fill="#888" fill-opacity="0.18" stroke="#000" stroke-width="1"/>
  <path d="M113.096412 347.803798 L127.959053 306.507046 L134.190530 312.199878 L143.252610 274.749741 L153.222973 283.858272 L151.068395 236.161037 L178.486892 261.209499 L196.703955 241.268774 L211.659499 254.931571 L193.442436 274.872296 L220.860933 299.920758 L173.163698 302.075335 L183.134060 311.183867 L146.653483 323.585542 L152.884960 329.278375 Z" fill="#888" fill-opacity="0.18" stroke="#000" stroke-width="1"/>
  <path d="M468.078868 775.335067 L429.775496 796.763356 L428.804747 788.379008 L397.403003 810.707567 L395.849806 797.292610 L366.195409 834.712995 L361.924115 797.821865 L335.094203 800.928260 L332.764406 780.805826 L359.594319 777.699431 L355.323026 740.808301 L392.743410 770.462698 L391.190213 757.047741 L426.863250 771.610312 L425.892502 763.225965 Z" fill="#888" fill-opacity="0.18" stroke="#000" stroke-width="1"/>
  <path d="M148.174410 812.810321 L183.235809 839.211423 L175.955924 843.482595 L209.056361 863.205555 L197.408546 870.039431 L243.612776 882.074280 L211.581282 900.867440 L225.249035 924.163071 L207.777311 934.413886 L194.109559 911.118254 L162.078066 929.911414 L174.112914 883.707184 L162.465098 890.541060 L161.396154 852.024941 L154.116269 856.296114 Z" fill="#888" fill-opacity="0.18" stroke="#000" stroke-width="1"/>
  <path d="M275.842713 1003.671747 L234.593423 1018.665608 L234.982773 1010.234236 L200.400711 1027.225852 L201.023672 1013.735656 L165.740778 1045.903743 L167.453922 1008.805703 L140.473529 1007.559781 L141.407971 987.324486 L168.388364 988.570409 L170.101507 951.472369 L202.269595 986.755263 L202.892556 973.265067 L235.761475 993.371490 L236.150826 984.940118 Z" fill="#888" fill-opacity="0.18" stroke="#000" stroke-width="1"/>
  <path d="M496.932739 428.545788 L456.690164 446.063065 L456.557110 437.623756 L423.092593 456.722453 L422.879706 443.219558 L389.654687 477.509010 L389.069249 440.376051 L362.063460 440.801824 L361.744130 420.547482 L388.749919 420.121709 L388.164481 382.988750 L422.453933 416.213769 L422.241047 402.710875 L456.291002 420.745139 L456.157948 412.305830 Z" fill="#888" fill-opacity="0.18" stroke="#000" stroke-width="1"/>
  <path d="M326.323336 228.347177 L342.278943 187.460279 L348.356824 193.316814 L358.411627 156.120913 L368.136236 165.491370 L367.250854 117.753706 L393.993529 143.522461 L412.734442 124.073242 L427.321356 138.128927 L408.580443 157.578145 L435.323119 183.346900 L387.585455 184.232282 L397.310064 193.602739 L360.512586 205.029884 L366.590466 210.886420 Z" fill="#888" fill-opacity="0.18" stroke="#000" stroke-width="1"/>
  <path d="M123.558164 692.335147 L161.629181 670.496707 L162.689924 678.870145 L193.850043 656.205611 L195.547230 669.603112 L224.798013 631.866390 L229.465280 668.709518 L256.260281 665.315142 L258.806063 685.411393 L232.011062 688.805769 L236.678329 725.648896 L198.941606 696.398114 L200.638794 709.795615 L164.811409 695.617021 L165.872151 703.990459 Z" fill="#888" fill-opacity="0.18" stroke="#000" stroke-width="1"/>
  <path d="M76.973765 940.792757 L71.918927 897.194953 L80.032061 899.522334 L71.492691 861.949562 L84.473705 865.673371 L61.330695 823.911313 L97.028483 834.151790 L104.476102 808.189762 L123.947623 813.775477 L116.500003 839.737504 L152.197791 849.977981 L110.435732 873.120991 L123.416746 876.844801 L96.258328 904.177097 L104.371461 906.504478 Z" fill="#888" fill-opacity="0.18" stroke="#000" stroke-width="1"/>
  <path d="M628.032726 514.152311 L601.536891 549.142175 L597.285424 541.850765 L577.473011 574.897737 L570.670663 563.231480 L558.510891 609.402991 L539.804435 577.320786 L516.471922 590.925481 L506.268400 573.426096 L529.600913 559.821401 L510.894457 527.739195 L557.065968 539.898967 L550.263620 528.232711 L588.782489 527.267944 L584.531022 519.976534 Z" fill="#888" fill-opacity="0.18" stroke="#000" stroke-width="1"/>
  <path d="M941.721110 760.476828 L965.519605 723.599308 L970.305666 730.551520 L987.585179 696.112407 L995.242878 707.235946 L1003.907479 660.282851 L1024.966151 690.872584 L1047.213229 675.557187 L1058.699777 692.242496 L1036.452699 707.557893 L1057.511370 738.147626 L1010.558275 729.483025 L1018.215974 740.606564 L979.877790 744.455944 L984.663852 751.408156 Z" fill="#888" fill-opacity="0.18" stroke="#000" stroke-width="1"/>
  <path d="M756.195189 939.633093 L791.187397 913.140354 L793.302069 921.311510 L821.334417 894.876277 L824.717892 907.950128 L848.943830 866.806812 L858.248388 902.759902 L884.396089 895.992951 L889.471302 915.603727 L863.323601 922.370678 L872.628158 958.323767 L831.484843 934.097829 L834.868319 947.171680 L797.531413 937.653824 L799.646085 945.824980 Z" fill="#888" fill-opacity="0.18" stroke="#000" stroke-width="1"/>
  <path d="M881.081356 429.159772 L839.892158 414.001612 L845.629494 407.811086 L808.245249 398.480900 L817.424987 388.576058 L769.713538 390.388819 L794.957817 363.150503 L775.148133 344.791028 L788.917739 329.933765 L808.727423 348.293240 L833.971701 321.054925 L835.784462 368.766374 L844.964200 358.861532 L857.104166 395.430033 L862.841502 389.239507 Z" fill="#888" fill-opacity="0.18" stroke="#000" stroke-width="1"/>
  <path d="M909.558172 781.730406 L877.342822 751.922839 L885.016898 748.408839 L854.077932 725.443333 L866.356454 719.820934 L821.604151 703.180627 L855.370087 687.719029 L844.125288 663.161985 L862.543071 654.728386 L873.787870 679.285430 L907.553805 663.823832 L890.913498 708.576136 L903.192020 702.953736 L900.365051 741.380840 L908.039127 737.866841 Z" fill="#888" fill-opacity="0.18" stroke="#000" stroke-width="1"/>
  <path d="M725.277505 712.295122 L734.300891 755.247402 L726.008815 753.672243 L737.950743 790.305895 L724.683423 787.785639 L751.551086 827.254578 L715.065955 820.323877 L710.025445 846.858518 L690.124465 843.078135 L695.164975 816.543494 L658.679843 809.612793 L698.148782 782.745129 L684.881462 780.224874 L709.424665 750.521924 L701.132590 748.946765 Z" fill="#888" fill-opacity="0.18" stroke="#000" stroke-width="1"/>
  <path d="M445.858663 869.736523 L431.841856 911.327976 L425.495504 905.763495 L417.199553 943.390763 L407.045389 934.487592 L410.172872 982.130927 L382.248922 957.647208 L364.442582 977.955535 L349.211337 964.600780 L367.017677 944.292453 L339.093728 919.808734 L386.737062 916.681252 L376.582899 907.778081 L412.802799 894.634532 L406.456447 889.070051 Z" fill="#888" fill-opacity="0.18" stroke="#000" stroke-width="1"/>
  <path d="M967.886420 770.587876 L1001.067715 799.316286 L993.513759 803.081575 L1025.193614 825.013763 L1013.107285 831.038224 L1058.384260 846.192894 L1025.146855 862.760161 L1037.195777 886.932819 L1019.066284 895.969511 L1007.017362 871.796853 L973.779957 888.364121 L988.934627 843.087146 L976.848298 849.111607 L978.405848 810.612151 L970.851892 814.377439 Z" fill="#888" fill-opacity="0.18" stroke="#000" stroke-width="1"/>
  <path d="M303.825124 493.752737 L346.660946 484.191763 L345.189830 492.502928 L381.670943 480.102828 L379.317158 493.400692 L418.446279 466.040496 L411.973370 502.609620 L438.569097 507.317191 L435.038419 527.263986 L408.442693 522.556416 L401.969783 559.125540 L374.609588 519.996419 L372.255803 533.294282 L342.247598 509.125257 L340.776483 517.436422 Z" fill="#888" fill-opacity="0.18" stroke="#000" stroke-width="1"/>
  <path d="M631.457480 1043.043808 L601.709597 1010.773338 L609.638370 1007.879518 L580.619788 982.530830 L593.305825 977.900717 L550.015451 957.760906 L584.902053 945.028097 L575.641828 919.656023 L594.670884 912.710854 L603.931109 938.082928 L638.817710 925.350119 L618.677899 968.640492 L631.363936 964.010380 L625.495916 1002.091877 L633.424689 999.198057 Z" fill="#888" fill-opacity="0.18" stroke="#000" stroke-width="1"/>
  <path d="M99.443367 641.190002 L111.716647 683.328897 L103.328582 682.390803 L118.029950 718.006865 L104.609047 716.505916 L134.408930 753.810546 L97.501448 749.682935 L94.499549 776.524740 L74.368195 774.273316 L77.370094 747.431511 L40.462612 743.303899 L77.767242 713.504017 L64.346339 712.003067 L86.552454 680.514616 L78.164390 679.576523 Z" fill="#888" fill-opacity="0.18" stroke="#000" stroke-width="1"/>
  <path d="M840.507501 758.940949 L802.648591 736.736832 L809.390366 731.658632 L774.245661 715.863575 L785.032500 707.738454 L737.752602 701.084157 L767.416409 678.740077 L751.166169 657.166399 L767.346427 644.978718 L783.596668 666.552396 L813.260475 644.208315 L806.606178 691.488214 L817.393018 683.363093 L822.873915 721.502231 L829.615689 716.424031 Z" fill="#888" fill-opacity="0.18" stroke="#000" stroke-width="1"/>
  <path d="M243.804726 615.807981 L204.903042 636.129862 L204.172951 627.721140 L172.144263 649.140693 L170.976118 635.686738 L140.261594 672.241990 L137.049193 635.243613 L110.141282 637.579905 L108.389064 617.398972 L135.296974 615.062680 L132.084574 578.064303 L168.639826 608.778827 L167.471681 595.324872 L202.712769 610.903696 L201.982678 602.494974 Z" fill="#888" fill-opacity="0.18" stroke="#000" stroke-width="1"/>
  <path d="M221.988013 309.144059 L265.809041 311.601159 L262.131669 319.198302 L300.610458 317.194076 L294.726662 329.349504 L339.824720 313.670421 L323.644284 347.097849 L347.955140 358.865439 L339.129448 377.098581 L314.818591 365.330991 L298.638155 398.758418 L282.959072 353.660360 L277.075277 365.815788 L254.776925 334.392587 L251.099553 341.989730 Z" fill="#888" fill-opacity="0.18" stroke="#000" stroke-width="1"/>
  <path d="M41.684622 205.066044 L76.153701 232.235926 L68.781157 236.345091 L101.437412 256.795104 L89.641342 263.369768 L135.568177 276.423284 L103.128983 294.503609 L116.278311 318.095750 L98.584205 327.957745 L85.434878 304.365605 L52.995685 322.445930 L66.049201 276.519095 L54.253131 283.093758 L54.036069 244.563420 L46.663525 248.672585 Z" fill="#888" fill-opacity="0.18" stroke="#000" stroke-width="1"/>
  <path d="M478.349149 323.774606 L447.898355 292.166554 L455.761529 289.098961 L426.192174 264.394967 L438.773254 259.486818 L395.050184 240.304491 L429.648152 226.807083 L419.831856 201.644924 L438.703475 194.282702 L448.519771 219.444860 L483.117739 205.947452 L463.935412 249.670521 L476.516491 244.762373 L471.487878 282.963775 L479.351053 279.896183 Z" fill="#888" fill-opacity="0.18" stroke="#000" stroke-width="1"/>
  <path d="M205.989978 155.475201 L181.555565 191.934484 L176.890782 184.900322 L159.016656 219.034611 L151.553003 207.779952 L142.075487 254.575733 L121.550441 223.625419 L99.041122 238.552725 L87.845643 221.670736 L110.354962 206.743430 L89.829916 175.793116 L136.625697 185.270633 L129.162045 174.015973 L167.561216 170.831998 L162.896433 163.797836 Z" fill="#888" fill-opacity="0.18" stroke="#000" stroke-width="1"/>
  <path d="M653.716856 102.632447 L694.533004 118.768180 L688.649727 124.820179 L725.800932 135.038890 L716.387689 144.722088 L764.128792 144.047201 L738.242373 170.675996 L757.608769 189.502483 L743.488904 204.027280 L724.122508 185.200793 L698.236088 211.829588 L697.561202 164.088484 L688.147958 173.771682 L676.883173 136.924176 L670.999896 142.976175 Z" fill="#888" fill-opacity="0.18" stroke="#000" stroke-width="1"/>
  <path d="M836.305614 59.184935 L801.216968 85.549812 L799.132127 77.370994 L771.003504 103.703762 L767.667757 90.617652 L743.291850 131.672293 L734.118546 95.685491 L707.946326 102.356985 L702.942706 82.727820 L729.114926 76.056327 L719.941622 40.069525 L760.996264 64.445432 L757.660517 51.359322 L794.962443 61.013356 L792.877601 52.834538 Z" fill="#888" fill-opacity="0.18" stroke="#000" stroke-width="1"/>
  <path d="M144.392696 168.923251 L106.650634 146.521094 L113.418921 141.478284 L78.357450 125.499319 L89.186709 117.430823 L41.942322 110.528916 L71.722784 88.340552 L55.585792 66.682034 L71.829680 54.579290 L87.966672 76.237808 L117.747134 54.049444 L110.845227 101.293831 L121.674486 93.225335 L126.955495 131.392664 L133.723782 126.349854 Z" fill="#888" fill-opacity="0.18" stroke="#000" stroke-width="1"/>
  <path d="M384.959750 378.274680 L363.326887 416.462887 L358.147980 409.798162 L342.882678 445.176187 L334.596426 434.512627 L328.653158 481.887157 L305.865964 452.562368 L284.538845 469.134873 L272.109467 453.139534 L293.436586 436.567029 L270.649392 407.242241 L318.023921 413.185509 L309.737669 402.521949 L347.790164 396.468713 L342.611256 389.803988 Z" fill="#888" fill-opacity="0.18" stroke="#000" stroke-width="1"/>
  <path d="M280.783524 488.314977 L236.894043 488.132457 L240.172707 480.354925 L201.849519 484.350842 L207.095380 471.906791 L162.870598 489.902265 L177.296717 455.681124 L152.408614 445.189401 L160.277407 426.523324 L185.165509 437.015047 L199.591628 402.793906 L217.587103 447.018688 L222.832965 434.574637 L246.730033 464.799861 L250.008697 457.022329 Z" fill="#888" fill-opacity="0.18" stroke="#000" stroke-width="1"/>
  <path d="M486.518261 904.251610 L514.499657 870.437984 L518.432446 877.906103 L539.652788 845.745084 L545.945251 857.694076 L560.086573 812.090441 L577.390845 844.950168 L601.288827 832.365243 L610.727521 850.288730 L586.829538 862.873655 L604.133810 895.733381 L558.530175 881.592058 L564.822638 893.541050 L526.298024 892.842343 L530.230813 900.310462 Z" fill="#888" fill-opacity="0.18" stroke="#000" stroke-width="1"/>
  <path d="M819.519933 269.307811 L795.776465 306.220784 L790.980040 299.275717 L773.751910 333.740564 L766.077630 322.628457 L757.483065 369.594423 L736.378794 339.036131 L714.154582 354.384691 L702.643162 337.716532 L724.867374 322.367972 L703.763104 291.809680 L750.729070 300.404245 L743.054790 289.292139 L781.387190 285.385585 L776.590765 278.440519 Z" fill="#888" fill-opacity="0.18" stroke="#000" stroke-width="1"/>
  <path d="M414.638840 845.235183 L442.208606 811.085105 L446.231567 818.505039 L467.060793 786.089342 L473.497529 797.961238 L487.085427 752.189658 L504.786452 784.837371 L528.530243 771.963898 L538.185347 789.771741 L514.441556 802.645214 L532.142581 835.292927 L486.371002 821.705029 L492.807738 833.576924 L454.277487 833.344909 L458.300447 840.764843 Z" fill="#888" fill-opacity="0.18" stroke="#000" stroke-width="1"/>
  <path d="M151.084710 134.355079 L178.089345 99.756387 L182.233740 107.109184 L202.527258 74.355448 L209.158291 86.119924 L221.991898 40.131153 L240.227238 72.483460 L263.756189 59.221395 L273.702738 76.868108 L250.173787 90.130173 L268.409127 122.482481 L222.420357 109.648874 L229.051390 121.413350 L190.522531 121.814778 L194.666927 129.167575 Z" fill="#888" fill-opacity="0.18" stroke="#000" stroke-width="1"/>
  <path d="M284.709370 657.151534 L292.573495 700.331105 L284.326816 698.533348 L295.278483 735.475128 L282.083797 732.598717 L307.879485 772.776459 L271.594098 764.866329 L265.841277 791.255701 L246.049248 786.941085 L251.802070 760.551713 L215.516683 752.641584 L255.694425 726.845896 L242.499739 723.969485 L267.833459 694.937835 L259.586780 693.140078 Z" fill="#888" fill-opacity="0.18" stroke="#000" stroke-width="1"/>
  <path d="M470.361934 1056.502052 L479.018065 1013.474256 L486.015889 1018.193376 L489.497159 979.820015 L500.693677 987.370608 L491.578864 940.502830 L522.369289 961.266961 L537.470475 938.873924 L554.265252 950.199814 L539.164066 972.592850 L569.954492 993.356981 L523.086713 1002.471794 L534.283232 1010.022387 L500.011536 1027.631618 L507.009360 1032.350738 Z" fill="#888" fill-opacity="0.18" stroke="#000" stroke-width="1"/>
  <path d="M345.325301 266.554346 L381.014047 292.101035 L373.839432 296.546767 L407.406515 315.464616 L395.927131 322.577788 L442.408521 333.493320 L410.840214 353.054542 L425.066558 376.013311 L407.847481 386.683068 L393.621138 363.724300 L362.052831 383.285522 L372.968362 336.804132 L361.488978 343.917304 L359.490202 305.438232 L352.315586 309.883964 Z" fill="#888" fill-opacity="0.18" stroke="#000" stroke-width="1"/>
  <path d="M848.800684 146.169506 L892.364153 151.512166 L888.193601 158.850159 L926.720786 159.388779 L920.047904 171.129567 L966.082081 158.459800 L947.731656 190.746969 L971.213234 204.092733 L961.203911 221.703916 L937.722333 208.358153 L919.371908 240.645322 L906.702141 194.611145 L900.029259 206.351934 L879.852499 173.526145 L875.681948 180.864138 Z" fill="#888" fill-opacity="0.18" stroke="#000" stroke-width="1"/>
  <path d="M1023.695872 617.500851 L1001.059515 655.102915 L996.058879 648.303409 L979.862254 683.264865 L971.861237 672.385655 L964.665756 719.586222 L942.662959 689.668396 L920.904540 705.670431 L908.903014 689.351617 L930.661433 673.349582 L908.658635 643.431756 L955.859202 650.627236 L947.858185 639.748027 L986.057607 634.704397 L981.056971 627.904891 Z" fill="#888" fill-opacity="0.18" stroke="#000" stroke-width="1"/>
  <path d="M306.114059 1049.871884 L335.832136 1017.573962 L339.367412 1025.238259 L362.246995 994.235699 L367.903437 1006.498575 L384.419523 961.700278 L399.974739 995.423188 L424.500492 984.110304 L432.985155 1002.504618 L408.459402 1013.817503 L424.014619 1047.540413 L379.216322 1031.024328 L384.872764 1043.287204 L346.437965 1040.566855 L349.973242 1048.231153 Z" fill="#888" fill-opacity="0.18" stroke="#000" stroke-width="1"/>
  <path d="M985.682980 239.922753 L975.300770 197.278532 L983.638665 198.589695 L970.539946 162.353557 L983.880578 164.451417 L955.773649 125.855188 L992.460386 131.624303 L996.656106 104.943039 L1016.667054 108.089829 L1012.471334 134.771093 L1049.158072 140.540208 L1010.561842 168.647138 L1023.902474 170.744998 L1000.314455 201.212020 L1008.652350 202.523182 Z" fill="#888" fill-opacity="0.18" stroke="#000" stroke-width="1"/>
  <path d="M688.262333 237.993789 L725.564270 214.866201 L726.910740 223.198467 L757.277571 199.481602 L759.431923 212.813228 L787.375107 174.098284 L793.299575 210.760255 L819.962826 206.451551 L823.194354 226.448990 L796.531103 230.757693 L802.455570 267.419664 L763.740626 239.476479 L765.894978 252.808105 L729.603680 239.862999 L730.950150 248.195266 Z" fill="#888" fill-opacity="0.18" stroke="#000" stroke-width="1"/>
  <path d="M630.869149 267.214194 L596.388689 294.369630 L594.118527 286.240300 L566.595563 313.205472 L562.963305 300.198545 L539.526632 341.796511 L529.537920 306.027459 L503.524064 313.291977 L498.075676 293.781585 L524.089532 286.517068 L514.100821 250.748016 L555.698787 274.184689 L552.066529 261.177761 L589.578204 269.981640 L587.308042 261.852310 Z" fill="#888" fill-opacity="0.18" stroke="#000" stroke-width="1"/>
  <path d="M814.069581 489.594518 L771.872811 477.521719 L777.136974 470.924127 L739.165446 464.382176 L747.588107 453.826029 L700.141085 459.159745 L723.303403 430.130339 L702.191108 413.285016 L714.825100 397.450795 L735.937395 414.296117 L759.099714 385.266711 L764.433430 432.713733 L772.856091 422.157586 L787.665301 457.728942 L792.929464 451.131350 Z" fill="#888" fill-opacity="0.18" stroke="#000" stroke-width="1"/>
  <path d="M700.493708 656.378737 L673.833292 621.514112 L681.994203 619.360238 L655.424705 591.455117 L668.482162 588.008919 L627.223024 563.980770 L663.131032 554.503725 L656.238636 528.388810 L675.824822 523.219514 L682.717218 549.334429 L718.625226 539.857385 L694.597077 581.116523 L707.654535 577.670325 L698.316025 615.052491 L706.476936 612.898617 Z" fill="#888" fill-opacity="0.18" stroke="#000" stroke-width="1"/>
  <path d="M526.838122 436.891418 L515.630255 479.326115 L508.926453 474.197892 L503.161925 512.295192 L492.435841 504.090035 L498.738157 551.418138 L469.241427 528.853955 L452.831113 550.306123 L436.741987 537.998387 L453.152302 516.546219 L423.655571 493.982037 L470.983674 487.679721 L460.257590 479.474564 L495.518848 463.941446 L488.815046 458.813222 Z" fill="#888" fill-opacity="0.18" stroke="#000" stroke-width="1"/>
  <path d="M265.041253 426.360984 L224.907621 408.595530 L231.029715 402.785229 L194.319904 391.079511 L204.115256 381.783030 L156.385674 380.535853 L183.322891 354.970530 L164.729929 335.379827 L179.422957 321.435105 L198.015919 341.025809 L224.953136 315.460486 L223.705959 363.190068 L233.501311 353.893587 L243.273905 391.164628 L249.396000 385.354327 Z" fill="#888" fill-opacity="0.18" stroke="#000" stroke-width="1"/>
  <path d="M1039.264853 336.352189 L996.195716 327.904153 L1000.880955 320.883598 L962.491214 317.587864 L969.987595 306.354977 L923.164425 315.696240 L943.779474 284.805802 L921.313701 269.813039 L932.558273 252.963709 L955.024047 267.956472 L975.639096 237.066034 L984.980358 283.889204 L992.476740 272.656317 L1010.251432 306.842490 L1014.936670 299.821936 Z" fill="#888" fill-opacity="0.18" stroke="#000" stroke-width="1"/>
  <path d="M977.671453 870.399148 L935.426865 858.494752 L940.664671 851.876215 L902.667351 845.485771 L911.047841 834.896113 L863.622470 840.419035 L886.668817 811.297474 L865.489500 794.536494 L878.060234 778.652007 L899.239552 795.412986 L922.285898 766.291425 L927.808820 813.716796 L936.189310 803.127137 L951.140283 838.639142 L956.378089 832.020606 Z" fill="#888" fill-opacity="0.18" stroke="#000" stroke-width="1"/>
  <path d="M982.439891 321.697560 L951.256815 352.583408 L948.080561 344.763495 L923.788666 374.672322 L918.706659 362.160460 L900.132022 406.145132 L886.156503 371.737512 L861.132780 381.901526 L853.509769 363.133733 L878.533493 352.969720 L864.557974 318.562100 L908.542645 337.136737 L903.460638 324.624875 L941.728052 329.123668 L938.551798 321.303754 Z" fill="#888" fill-opacity="0.18" stroke="#000" stroke-width="1"/>
  <path d="M552.341415 333.737343 L583.013929 365.130283 L575.172541 368.253145 L604.915044 392.748402 L592.368822 397.744981 L636.225824 416.619087 L601.723715 430.359680 L611.716874 455.452122 L592.897541 462.946991 L582.904383 437.854549 L548.402274 451.595141 L567.276379 407.738140 L554.730158 412.734719 L559.489764 374.498869 L551.648376 377.621731 Z" fill="#888" fill-opacity="0.18" stroke="#000" stroke-width="1"/>
  <path d="M222.408584 832.903401 L264.884891 821.854276 L263.704536 830.211692 L299.730981 816.546800 L297.842412 829.918665 L335.993499 801.210425 L330.799934 837.983054 L357.543664 841.760193 L354.710811 861.817991 L327.967080 858.040852 L322.773515 894.813482 L294.065274 856.662396 L292.176705 870.034261 L261.343824 846.926524 L260.163469 855.283940 Z" fill="#888" fill-opacity="0.18" stroke="#000" stroke-width="1"/>
  <path d="M852.691803 964.592247 L896.310918 959.724737 L893.948707 967.827798 L931.557815 959.449907 L927.778278 972.414804 L969.639366 949.451403 L959.245638 985.104872 L985.175434 992.663947 L979.506128 1012.111293 L953.576332 1004.552219 L943.182605 1040.205688 L920.219203 998.344600 L916.439666 1011.309498 L889.224285 984.033920 L886.862075 992.136981 Z" fill="#888" fill-opacity="0.18" stroke="#000" stroke-width="1"/>
  <path d="M220.113727 240.684140 L223.910787 196.958837 L231.391827 200.866991 L230.566155 162.344889 L242.535820 168.597936 L228.244275 123.041156 L261.160853 140.237035 L273.666947 116.297705 L291.621445 125.677275 L279.115351 149.616605 L312.031930 166.812484 L266.475150 181.104029 L278.444815 187.357076 L246.353908 208.683299 L253.834949 212.591454 Z" fill="#888" fill-opacity="0.18" stroke="#000" stroke-width="1"/>
  <path d="M445.379206 624.385675 L401.489626 624.228673 L404.763767 616.449236 L366.442909 620.467435 L371.681534 608.020335 L327.467223 626.041521 L341.873442 591.811998 L316.979243 581.334747 L324.837181 562.664098 L349.731380 573.141349 L364.137599 538.911825 L382.158784 583.126137 L387.397409 570.679037 L411.312048 600.890362 L414.586189 593.110925 Z" fill="#888" fill-opacity="0.18" stroke="#000" stroke-width="1"/>
  <path d="M656.294571 396.281542 L667.585383 438.694245 L659.221381 437.561497 L673.091192 473.509549 L659.708789 471.697152 L688.633803 509.684151 L651.832196 504.700059 L648.207402 531.464864 L628.133798 528.746268 L631.758593 501.981463 L594.956986 496.997371 L632.943985 468.072358 L619.561582 466.259961 L642.493378 435.296001 L634.129377 434.163253 Z" fill="#888" fill-opacity="0.18" stroke="#000" stroke-width="1"/>
  <path d="M680.763876 47.931879 L662.524800 87.852500 L656.787343 81.662085 L644.648090 118.230824 L635.468160 108.326161 L633.656329 156.037645 L608.411519 128.799821 L588.602193 147.159683 L574.832297 132.302688 L594.641623 113.942827 L569.396814 86.705004 L617.108298 88.516835 L607.928368 78.612172 L645.312430 69.281257 L639.574973 63.090842 Z" fill="#888" fill-opacity="0.18" stroke="#000" stroke-width="1"/>
  <path d="M752.908417 753.519466 L796.549581 758.185153 L792.493456 765.587010 L831.024360 765.527425 L824.534560 777.370397 L870.366489 763.987469 L852.519538 796.555640 L876.205480 809.535241 L866.470780 827.299698 L842.784837 814.320097 L824.937886 846.888268 L811.554959 801.056339 L805.065159 812.899311 L784.381206 780.390724 L780.325081 787.792581 Z" fill="#888" fill-opacity="0.18" stroke="#000" stroke-width="1"/>
  <path d="M939.243574 590.187231 L902.482162 614.164689 L900.944848 605.865514 L871.130239 630.272955 L868.670537 616.994276 L841.623093 656.340232 L834.858911 619.823862 L808.301552 624.743267 L804.611998 604.825247 L831.169358 599.905842 L824.405175 563.389472 L863.751132 590.436916 L861.291429 577.158236 L897.870220 589.267164 L896.332906 580.967989 Z" fill="#888" fill-opacity="0.18" stroke="#000" stroke-width="1"/>
  <path d="M823.719136 479.283145 L866.868415 471.254474 L865.102109 479.507946 L902.001872 468.415536 L899.175781 481.621091 L939.254896 455.672430 L931.483146 491.987707 L957.894256 497.639889 L953.655120 517.448221 L927.244009 511.796040 L919.472259 548.111316 L893.523599 508.032201 L890.697508 521.237756 L861.569495 496.014890 L859.803188 504.268362 Z" fill="#888" fill-opacity="0.18" stroke="#000" stroke-width="1"/>
  <path d="M748.048942 938.219399 L736.573365 895.856314 L744.942224 896.952593 L730.915851 861.065340 L744.306026 862.819387 L715.215706 824.958831 L752.038688 829.782461 L755.546783 803.002110 L775.632046 805.633181 L772.123951 832.413531 L808.946933 837.237161 L771.086377 866.327481 L784.476552 868.081529 L761.679943 899.145152 L770.048803 900.241432 Z" fill="#888" fill-opacity="0.18" stroke="#000" stroke-width="1"/>
  <path d="M431.086207 551.953864 L470.369228 571.528442 L463.988901 577.053936 L500.127593 590.419155 L489.919071 599.259944 L537.542349 602.679275 L509.468914 626.991446 L527.150493 647.408490 L511.837710 660.669674 L494.156131 640.252630 L466.082696 664.564801 L469.502027 616.941523 L459.293505 625.782313 L451.228249 588.104923 L444.847923 593.630416 Z" fill="#888" fill-opacity="0.18" stroke="#000" stroke-width="1"/>
  <path d="M383.521006 761.057698 L349.395661 733.457324 L356.819200 729.441018 L324.422191 708.582736 L336.299853 702.156647 L290.540475 688.527716 L323.204046 670.855970 L310.351867 647.100646 L328.168360 637.461512 L341.020538 661.216836 L373.684109 643.545090 L360.055177 689.304469 L371.932839 682.878379 L371.666277 721.408407 L379.089816 717.392101 Z" fill="#888" fill-opacity="0.18" stroke="#000" stroke-width="1"/>
  <path d="M331.405928 194.363623 L318.932471 236.443699 L312.385228 231.117044 L305.482544 269.024656 L295.006956 260.502008 L299.889309 307.997599 L271.081440 284.560318 L254.036145 305.511495 L238.322762 292.727524 L255.368057 271.776347 L226.560188 248.339067 L274.055778 243.456714 L263.580190 234.934066 L299.290743 220.463735 L292.743500 215.137080 Z" fill="#888" fill-opacity="0.18" stroke="#000" stroke-width="1"/>
  <path d="M978.253226 505.687500 L951.515369 470.882229 L959.671472 468.710219 L933.040004 440.864232 L946.089768 437.389015 L904.777315 413.452647 L940.664166 403.895800 L933.713732 377.796272 L953.288378 372.583446 L960.238812 398.682975 L996.125663 389.126128 L972.189296 430.438581 L985.239060 426.963363 L975.983677 464.366197 L984.139780 462.194187 Z" fill="#888" fill-opacity="0.18" stroke="#000" stroke-width="1"/>
  <path d="M559.159063 91.913008 L561.541100 135.738181 L553.585298 132.919521 L559.813424 170.943783 L547.084140 166.433927 L567.632710 209.531778 L532.627179 197.129674 L523.607467 222.588242 L504.513541 215.823459 L513.533252 190.364890 L478.527721 177.962786 L521.625571 157.414216 L508.896287 152.904360 L537.673692 127.282201 L529.717890 124.463541 Z" fill="#888" fill-opacity="0.18" stroke="#000" stroke-width="1"/>
  <path d="M906.096521 1012.058810 L864.797510 1026.915173 L865.214946 1018.485144 L830.576471 1035.361462 L831.244369 1021.873416 L795.854508 1053.923786 L797.691228 1016.831659 L770.715136 1015.495862 L771.716983 995.263793 L798.693075 996.599590 L800.529796 959.507463 L832.580165 994.897324 L833.248064 981.409277 L866.049819 1001.625087 L866.467255 993.195058 Z" fill="#888" fill-opacity="0.18" stroke="#000" stroke-width="1"/>
  <path d="M688.956383 964.422989 L666.757858 926.560801 L675.120860 925.420692 L652.161822 894.476926 L665.542624 892.652752 L627.530184 863.761181 L664.327389 858.744703 L660.679042 831.983099 L680.750245 829.246838 L684.398593 856.008442 L721.195799 850.991963 L692.304228 889.004404 L705.685030 887.180230 L691.846862 923.140474 L700.209864 922.000366 Z" fill="#888" fill-opacity="0.18" stroke="#000" stroke-width="1"/>
  <path d="M352.112616 994.744497 L308.838467 987.418663 L313.339661 980.278713 L274.877233 977.981826 L282.079144 966.557905 L235.514566 977.112928 L255.319822 945.697147 L232.471981 931.293325 L243.274848 914.157445 L266.122688 928.561267 L285.927944 897.145487 L296.482967 943.710065 L303.684878 932.286145 L322.342050 965.998813 L326.843245 958.858863 Z" fill="#888" fill-opacity="0.18" stroke="#000" stroke-width="1"/>
  <path d="M441.548709 75.441433 L406.603928 101.996699 L404.474648 93.829336 L376.489613 120.314651 L373.082766 107.246871 L348.930434 148.433439 L339.561605 112.497044 L313.426045 119.310738 L308.315775 99.709068 L334.451335 92.895374 L325.082505 56.958980 L366.269072 81.111312 L362.862225 68.043532 L400.216090 77.494612 L398.086810 69.327249 Z" fill="#888" fill-opacity="0.18" stroke="#000" stroke-width="1"/>
  <path d="M458.641028 182.964810 L456.893879 139.109739 L464.808030 142.043312 L459.131191 103.932847 L471.793833 108.626564 L451.871522 65.235666 L486.693787 78.143389 L496.081222 52.818106 L515.075184 59.858682 L505.687749 85.183965 L540.510014 98.091688 L497.119116 118.013999 L509.781758 122.707716 L480.636332 147.910459 L488.550483 150.844032 Z" fill="#888" fill-opacity="0.18" stroke="#000" stroke-width="1"/>
  <path d="M782.641244 1037.790247 L739.445689 1030.014399 L744.020954 1022.921685 L705.584516 1020.224593 L712.904941 1008.876251 L666.233025 1018.946043 L686.364193 987.738104 L663.667510 973.097254 L674.648147 956.074742 L697.344830 970.715592 L717.475999 939.507652 L727.545791 986.179568 L734.866215 974.831227 L753.171485 1008.736259 L757.746751 1001.643545 Z" fill="#888" fill-opacity="0.18" stroke="#000" stroke-width="1"/>
  <path d="M537.128919 723.478130 L580.917105 720.492397 L578.208346 728.486286 L616.143172 721.734767 L611.809157 734.524990 L654.619751 713.384471 L642.701210 748.557583 L668.281655 757.225612 L661.780633 776.410946 L636.200188 767.742916 L624.281647 802.916028 L603.141128 760.105435 L598.807113 772.895657 L572.790827 744.474064 L570.082068 752.467953 Z" fill="#888" fill-opacity="0.18" stroke="#000" stroke-width="1"/>
  <path d="M689.948464 693.473830 L646.565021 686.825768 L650.953985 679.616286 L612.460335 677.921292 L619.482677 666.386120 L573.088893 677.668194 L592.400334 645.946472 L569.329990 631.901788 L579.863503 614.599030 L602.933847 628.643714 L622.245288 596.921992 L633.527362 643.315777 L640.549704 631.780605 L659.731913 665.197321 L664.120877 657.987839 Z" fill="#888" fill-opacity="0.18" stroke="#000" stroke-width="1"/>
</svg>
