<?xml version="1.0" encoding="UTF-8"?>
<svg xmlns="http://www.w3.org/2000/svg" width="1100" height="1100" viewBox="0 0 1100 1100">
  <rect x="0" y="0" width="1100" height="1100" fill="white"/>
  <text x="10.0" y="18.0" font-family="monospace" font-size="12">prefix=N89_job5048490_task89 run_id=89 L=7.72464988845 feas=0.000e+00 N=89</text>
  <rect x="40.000000" y="40.000000" width="1020.000000" height="1020.000000" fill="none" stroke="#000" stroke-width="2"/>
  <path d="M701.668946 286.384445 L683.290136 325.164328 L677.765513 319.033483 L665.396304 354.619837 L656.556906 344.810484 L654.132019 391.432359 L629.823676 364.456640 L610.204971 382.135436 L596.945875 367.421407 L616.564579 349.742612 L592.256236 322.766893 L638.878111 325.191780 L630.038713 315.382427 L666.716266 306.771793 L661.191642 300.640948 Z" fill="#888" fill-opacity="0.18" stroke="#000" stroke-width="1"/>
  <path d="M800.808528 613.232147 L758.524682 605.901637 L762.953460 598.937826 L725.354907 596.543100 L732.440951 585.401003 L686.870599 595.541136 L706.357219 564.900369 L684.073025 550.728281 L694.702091 534.015136 L716.986285 548.187223 L736.472906 517.546457 L746.613039 563.116809 L753.699083 551.974712 L771.811015 585.010205 L776.239792 578.046394 Z" fill="#888" fill-opacity="0.18" stroke="#000" stroke-width="1"/>
  <path d="M883.563312 926.636971 L876.334444 968.938312 L869.360010 964.526283 L867.055651 1002.130483 L855.896556 995.071237 L866.146179 1040.617088 L835.458668 1021.204163 L821.340177 1043.522352 L804.601535 1032.933484 L818.720026 1010.615294 L788.032516 991.202369 L833.578367 980.952746 L822.419272 973.893501 L855.411141 955.702226 L848.436707 951.290198 Z" fill="#888" fill-opacity="0.18" stroke="#000" stroke-width="1"/>
  <path d="M661.334186 195.029144 L630.484557 165.196940 L638.061992 161.927198 L608.312670 138.810890 L620.436565 133.579304 L577.047860 116.348530 L610.388574 101.961668 L599.925401 77.713876 L618.111245 69.866497 L628.574417 94.114288 L661.915131 79.727426 L644.684357 123.116131 L656.808253 117.884545 L653.216862 155.387715 L660.794297 152.117974 Z" fill="#888" fill-opacity="0.18" stroke="#000" stroke-width="1"/>
  <path d="M238.139221 561.280044 L207.303451 531.433515 L214.882404 528.167293 L185.143821 505.037171 L197.270145 499.811216 L153.889447 482.560292 L187.236839 468.188917 L176.784929 443.936268 L194.974415 436.097336 L205.426325 460.349984 L238.773717 445.978608 L221.522793 489.359306 L233.649117 484.133351 L230.040309 521.634850 L237.619261 518.368628 Z" fill="#888" fill-opacity="0.18" stroke="#000" stroke-width="1"/>
  <path d="M860.365483 766.413885 L897.744633 745.331684 L898.722305 753.526371 L929.350171 731.587370 L930.914447 744.698869 L959.782502 708.009433 L964.084261 744.066053 L990.307258 740.937501 L992.653672 760.604748 L966.430676 763.733300 L970.732435 799.789920 L934.042999 770.921865 L935.607275 784.033363 L900.677650 769.915743 L901.655323 778.110430 Z" fill="#888" fill-opacity="0.18" stroke="#000" stroke-width="1"/>
  <path d="M781.783817 1040.390772 L739.358829 1046.854548 L741.349356 1038.845395 L704.933585 1048.503423 L708.118429 1035.688779 L668.119709 1059.763282 L676.878028 1024.523009 L651.248739 1018.153323 L656.026004 998.931356 L681.655293 1005.301042 L690.413612 970.060770 L714.488115 1010.059489 L717.672959 997.244845 L745.330411 1022.827089 L747.320938 1014.817936 Z" fill="#888" fill-opacity="0.18" stroke="#000" stroke-width="1"/>
  <path d="M573.121745 568.170492 L604.477690 538.870924 L607.359570 546.604196 L631.952521 518.063477 L636.563529 530.436712 L655.969097 487.976104 L668.649369 522.002500 L693.395839 512.780484 L700.312352 531.340337 L675.565882 540.562353 L688.246154 574.588750 L645.785546 555.183182 L650.396554 567.556417 L613.123330 562.070740 L616.005210 569.804012 Z" fill="#888" fill-opacity="0.18" stroke="#000" stroke-width="1"/>
  <path d="M467.982731 824.231528 L510.876226 822.886876 L507.942326 830.600563 L545.251652 825.366054 L540.557411 837.707952 L583.147758 818.588808 L570.238597 852.529028 L594.922393 861.917509 L587.881032 880.430356 L563.197236 871.041875 L550.288075 904.982095 L531.168930 862.391748 L526.474690 874.733646 L502.074525 846.027935 L499.140625 853.741622 Z" fill="#888" fill-opacity="0.18" stroke="#000" stroke-width="1"/>
  <path d="M492.259023 699.672873 L469.086607 663.552254 L477.212487 662.110451 L453.568337 632.778896 L466.569746 630.472011 L428.299011 603.735703 L464.052885 597.391769 L459.439114 571.388951 L478.941227 567.928624 L483.554998 593.931441 L519.308871 587.587506 L492.572563 625.858241 L505.573971 623.551355 L493.464248 659.226844 L501.590128 657.785041 Z" fill="#888" fill-opacity="0.18" stroke="#000" stroke-width="1"/>
  <path d="M990.533608 567.707741 L974.891819 527.745328 L983.142675 527.924479 L965.707394 494.526921 L978.908764 494.813562 L946.621942 461.093533 L982.925710 461.881797 L983.498993 435.479056 L1003.301048 435.909018 L1002.727766 462.311758 L1039.031534 463.100022 L1005.311505 495.386845 L1018.512876 495.673486 L999.644388 528.282780 L1007.895245 528.461931 Z" fill="#888" fill-opacity="0.18" stroke="#000" stroke-width="1"/>
  <path d="M246.577607 565.195891 L246.819386 522.282006 L254.419352 525.499029 L250.567519 488.021712 L262.727465 493.168950 L245.195692 449.900991 L278.635545 464.055893 L288.930019 439.736001 L307.169938 447.456857 L296.875464 471.776749 L330.315316 485.931651 L287.047358 503.463424 L299.207304 508.610661 L269.619285 531.933076 L277.219251 535.150099 Z" fill="#888" fill-opacity="0.18" stroke="#000" stroke-width="1"/>
  <path d="M688.919680 656.710018 L646.276799 651.888739 L650.286707 644.675601 L612.612356 644.504875 L619.028208 632.963854 L574.136023 645.776778 L591.779616 614.038968 L568.697573 601.207264 L578.321351 583.895731 L601.403394 596.727435 L619.046988 564.989625 L631.859912 609.881810 L638.275764 598.340788 L658.306522 630.249323 L662.316430 623.036185 Z" fill="#888" fill-opacity="0.18" stroke="#000" stroke-width="1"/>
  <path d="M284.201859 422.252865 L321.923452 401.789692 L322.765909 409.999381 L353.751259 388.568236 L355.099191 401.703738 L384.568117 365.495152 L388.274930 401.617784 L414.545935 398.921920 L416.567832 418.625174 L390.296827 421.321038 L394.003640 457.443669 L357.795054 427.974743 L359.142986 441.110245 L324.450824 426.418759 L325.293281 434.628448 Z" fill="#888" fill-opacity="0.18" stroke="#000" stroke-width="1"/>
  <path d="M601.426254 357.344822 L561.128390 342.588735 L566.728425 336.526695 L530.160185 327.463044 L539.120241 317.763779 L492.471939 319.611801 L517.112093 292.938823 L497.713563 275.018711 L511.153647 260.469814 L530.552177 278.389926 L555.192331 251.716947 L557.040353 298.365249 L566.000409 288.665984 L577.928495 324.402614 L583.528530 318.340573 Z" fill="#888" fill-opacity="0.18" stroke="#000" stroke-width="1"/>
  <path d="M530.320310 169.401907 L496.558327 195.893198 L494.352919 187.940532 L467.394151 214.258030 L463.865498 201.533764 L440.876465 242.166061 L431.172670 207.174329 L405.724137 214.231635 L400.431158 195.145235 L425.879690 188.087930 L416.175895 153.096197 L456.808193 176.085231 L453.279540 163.360965 L489.942103 172.035199 L487.736695 164.082532 Z" fill="#888" fill-opacity="0.18" stroke="#000" stroke-width="1"/>
  <path d="M730.438458 989.328999 L742.488127 948.140828 L748.908389 953.326285 L755.525640 916.237231 L765.798059 924.533962 L760.858838 878.111087 L789.107991 900.927097 L805.701453 880.382258 L821.110082 892.827355 L804.516620 913.372193 L832.765773 936.188203 L786.342898 941.127424 L796.615317 949.424155 L761.748913 963.697198 L768.169175 968.882655 Z" fill="#888" fill-opacity="0.18" stroke="#000" stroke-width="1"/>
  <path d="M305.710536 370.623667 L335.209097 339.454854 L338.560176 346.996671 L361.355068 317.000358 L366.716795 329.067264 L383.479744 285.495682 L398.224492 318.679674 L422.358305 307.956221 L430.400895 326.056581 L406.267082 336.780034 L421.011830 369.964027 L377.440248 353.201077 L382.801974 365.267984 L345.262334 362.080304 L348.613413 369.622120 Z" fill="#888" fill-opacity="0.18" stroke="#000" stroke-width="1"/>
  <path d="M225.767939 950.966094 L192.492174 923.866584 L199.763963 919.964045 L168.155871 899.462474 L179.790734 893.218412 L135.093421 879.741411 L167.089293 862.570239 L154.601169 839.300514 L172.053463 829.934420 L184.541587 853.204146 L216.537460 836.032974 L203.060459 880.730287 L214.695322 874.486225 L214.307541 912.158967 L221.579330 908.256428 Z" fill="#888" fill-opacity="0.18" stroke="#000" stroke-width="1"/>
  <path d="M170.381360 132.885674 L209.756062 115.818369 L209.873431 124.070336 L242.623085 105.446533 L242.810876 118.649680 L275.349266 85.172337 L275.865690 121.480990 L302.271983 121.105409 L302.553668 140.910129 L276.147375 141.285710 L276.663799 177.594363 L243.186457 145.055973 L243.374247 158.259119 L210.108169 140.574269 L210.225538 148.826236 Z" fill="#888" fill-opacity="0.18" stroke="#000" stroke-width="1"/>
  <path d="M737.148883 684.100999 L744.160707 726.438859 L736.126485 724.552063 L746.254591 760.839903 L733.399835 757.821030 L757.989541 797.505103 L722.638963 789.203201 L716.601216 814.912713 L697.319082 810.384403 L703.356829 784.674891 L668.006250 776.372989 L707.690323 751.783283 L694.835568 748.764410 L720.058040 720.778471 L712.023818 718.891675 Z" fill="#888" fill-opacity="0.18" stroke="#000" stroke-width="1"/>
  <path d="M923.895716 627.589586 L956.797526 600.037255 L959.254906 607.915707 L985.362478 580.753591 L989.294287 593.359114 L1010.978574 552.015784 L1021.791048 586.680973 L1047.002095 578.817356 L1052.899808 597.725641 L1027.688761 605.589259 L1038.501235 640.254449 L997.157904 618.570161 L1001.089713 631.175685 L964.169667 623.672612 L966.627047 631.551064 Z" fill="#888" fill-opacity="0.18" stroke="#000" stroke-width="1"/>
  <path d="M235.336809 294.552694 L272.999876 273.982002 L273.865749 282.189255 L304.789840 260.669810 L306.175235 273.801414 L335.540756 237.508916 L339.350594 273.620826 L365.613802 270.850035 L367.691895 290.547441 L341.428687 293.318232 L345.238525 329.430143 L308.946026 300.064622 L310.331422 313.196226 L275.597493 298.603760 L276.463365 306.811012 Z" fill="#888" fill-opacity="0.18" stroke="#000" stroke-width="1"/>
  <path d="M136.109913 313.881707 L107.294328 282.080417 L115.070858 279.317391 L86.910388 254.289929 L99.352836 249.869088 L57.194612 229.815073 L91.411343 217.657758 L82.569659 192.772863 L101.233331 186.141600 L110.075014 211.026496 L144.291745 198.869181 L124.237731 241.027404 L136.680178 236.606562 L130.623917 273.791339 L138.400447 271.028312 Z" fill="#888" fill-opacity="0.18" stroke="#000" stroke-width="1"/>
  <path d="M137.831262 1043.688033 L170.900976 1016.337456 L173.310123 1024.230791 L199.583339 997.228865 L203.437974 1009.858201 L225.374725 968.648272 L235.974973 1003.378945 L261.233645 995.669674 L267.015599 1014.613678 L241.756927 1022.322949 L252.357175 1057.053623 L211.147246 1035.116873 L215.001882 1047.746209 L178.128418 1040.017461 L180.537565 1047.910796 Z" fill="#888" fill-opacity="0.18" stroke="#000" stroke-width="1"/>
  <path d="M332.818067 729.034948 L371.323998 710.088885 L371.839132 718.325594 L403.652670 698.144297 L404.476885 711.323030 L435.363180 676.315659 L437.629772 712.557176 L463.987239 710.908745 L465.223562 730.676845 L438.866095 732.325276 L441.132687 768.566792 L406.125315 737.680497 L406.949530 750.859231 L372.869401 734.799010 L373.384536 743.035719 Z" fill="#888" fill-opacity="0.18" stroke="#000" stroke-width="1"/>
  <path d="M780.432517 46.737856 L823.318500 45.171833 L820.424452 52.900559 L857.706264 47.473552 L853.075787 59.839515 L895.566885 40.500800 L882.833075 74.507197 L907.565000 83.768151 L900.619285 102.317094 L875.887360 93.056141 L863.153549 127.062538 L843.814834 84.571440 L839.184357 96.937402 L814.636356 68.358012 L811.742309 76.086739 Z" fill="#888" fill-opacity="0.18" stroke="#000" stroke-width="1"/>
  <path d="M161.116154 813.195471 L191.079328 782.473034 L194.316804 790.064310 L217.559463 760.413598 L222.739424 772.559640 L240.154626 729.244631 L254.399520 762.646247 L278.691604 752.286323 L286.461547 770.505387 L262.169462 780.865310 L276.414357 814.266926 L233.099347 796.851724 L238.279309 808.997767 L200.791756 805.246863 L204.029232 812.838139 Z" fill="#888" fill-opacity="0.18" stroke="#000" stroke-width="1"/>
  <path d="M784.049866 313.639979 L744.751550 296.397521 L750.719021 290.696818 L714.787773 279.368478 L724.335727 270.247354 L677.663030 269.180278 L703.919905 244.097186 L685.677657 225.001277 L699.999588 211.319591 L718.241837 230.415500 L744.498712 205.332408 L743.431636 252.005105 L752.979591 242.883981 L762.653964 279.295413 L768.621436 273.594710 Z" fill="#888" fill-opacity="0.18" stroke="#000" stroke-width="1"/>
  <path d="M925.598304 488.235955 L916.724208 446.248928 L924.833895 447.779194 L913.113648 411.973863 L926.089147 414.422289 L899.771465 375.862479 L935.454085 382.595650 L940.350936 356.644653 L959.814184 360.317291 L954.917333 386.268288 L990.599953 393.001458 L952.040143 419.319140 L965.015642 421.767566 L941.053267 450.839726 L949.162954 452.369992 Z" fill="#888" fill-opacity="0.18" stroke="#000" stroke-width="1"/>
  <path d="M928.199141 923.967028 L902.357191 889.705481 L910.350510 887.652290 L884.552449 860.196035 L897.341758 856.910931 L857.155724 833.150418 L892.326325 824.116382 L885.756117 798.537763 L904.940081 793.610107 L911.510289 819.188725 L946.680890 810.154689 L922.920377 850.340723 L935.709686 847.055619 L926.337146 883.545910 L934.330465 881.492720 Z" fill="#888" fill-opacity="0.18" stroke="#000" stroke-width="1"/>
  <path d="M911.212307 223.613662 L946.652103 199.412817 L948.326824 207.493909 L976.966802 183.016622 L979.646356 195.946368 L1005.271836 156.923118 L1012.640610 192.479919 L1038.500102 187.120811 L1042.519433 206.515430 L1016.659941 211.874538 L1024.028715 247.431340 L985.005465 221.805860 L987.685019 234.735606 L951.676267 223.656091 L953.350988 231.737182 Z" fill="#888" fill-opacity="0.18" stroke="#000" stroke-width="1"/>
  <path d="M383.924727 257.800889 L354.569409 226.497131 L362.297540 223.601494 L333.713105 199.059368 L346.078116 194.426350 L303.583044 175.096369 L337.586823 162.355569 L328.320786 137.625548 L346.868302 130.676020 L356.134339 155.406041 L390.138117 142.665241 L370.808137 185.160313 L383.173147 180.527295 L377.753804 217.810221 L385.481935 214.914585 Z" fill="#888" fill-opacity="0.18" stroke="#000" stroke-width="1"/>
  <path d="M683.256284 735.932891 L685.161610 693.060642 L692.631142 696.569890 L690.235164 658.971417 L702.186415 664.586214 L686.345280 620.671095 L719.211220 636.111786 L730.440813 612.209284 L748.367690 620.631479 L737.138096 644.533981 L770.004037 659.974672 L726.088917 675.815808 L738.040168 681.430604 L707.570206 703.588386 L715.039738 707.097634 Z" fill="#888" fill-opacity="0.18" stroke="#000" stroke-width="1"/>
  <path d="M1056.891137 903.339216 L1055.335634 946.225582 L1047.837722 942.777389 L1050.540356 980.355064 L1038.543696 974.837954 L1054.742573 1018.622377 L1021.751759 1003.450327 L1010.717540 1027.443647 L992.722550 1019.167983 L1003.756769 995.174663 L970.765954 980.002613 L1014.550377 963.803736 L1002.553717 958.286627 L1032.841897 935.881002 L1025.343984 932.432809 Z" fill="#888" fill-opacity="0.18" stroke="#000" stroke-width="1"/>
  <path d="M348.493118 761.168492 L390.504344 769.927310 L385.842185 776.737082 L423.338025 780.404218 L415.878571 791.299854 L461.766297 782.709400 L441.252797 812.672399 L463.044070 827.591308 L451.854888 843.934762 L430.063616 829.015853 L409.550117 858.978852 L400.959662 813.091127 L393.500208 823.986763 L376.517868 790.356627 L371.855709 797.166400 Z" fill="#888" fill-opacity="0.18" stroke="#000" stroke-width="1"/>
  <path d="M881.356506 264.042302 L890.266777 306.021667 L882.155775 304.498389 L893.906869 340.293608 L880.929266 337.856364 L907.280163 376.393482 L871.591754 369.691060 L866.717266 395.646267 L847.250861 391.990400 L852.125349 366.035194 L816.436941 359.332772 L854.974059 332.981875 L841.996456 330.544631 L865.933771 301.451834 L857.822769 299.928556 Z" fill="#888" fill-opacity="0.18" stroke="#000" stroke-width="1"/>
  <path d="M577.285878 550.876403 L534.841058 557.208637 L536.856402 549.205693 L500.410868 558.750792 L503.635419 545.946081 L463.562265 569.896480 L472.429780 534.683526 L446.820359 528.234423 L451.657186 509.027357 L477.266607 515.476460 L486.134123 480.263506 L510.084522 520.336660 L513.309073 507.531950 L540.887091 533.199805 L542.902436 525.196861 Z" fill="#888" fill-opacity="0.18" stroke="#000" stroke-width="1"/>
  <path d="M1049.405220 450.408668 L1020.521349 418.669386 L1028.291922 415.889651 L1000.077725 390.922774 L1012.510642 386.475200 L970.309413 366.511844 L1004.499934 354.281014 L995.604785 329.415180 L1014.254160 322.743818 L1023.149309 347.609652 L1057.339831 335.378821 L1037.376475 377.580050 L1049.809392 373.132475 L1043.833069 410.330183 L1051.603642 407.550449 Z" fill="#888" fill-opacity="0.18" stroke="#000" stroke-width="1"/>
  <path d="M237.771280 971.959287 L279.644683 962.563640 L278.215404 970.691733 L313.872188 958.527045 L311.585342 971.531993 L349.814828 944.736738 L343.526001 980.500346 L369.535897 985.074038 L366.105628 1004.581460 L340.095731 1000.007768 L333.806904 1035.771375 L307.011649 997.541889 L304.724803 1010.546838 L275.356846 986.947918 L273.927567 995.076011 Z" fill="#888" fill-opacity="0.18" stroke="#000" stroke-width="1"/>
  <path d="M750.541035 60.799779 L787.446040 82.701391 L780.828520 87.632634 L815.112035 103.253981 L804.524002 111.143970 L850.719054 117.889081 L821.601964 139.586548 L837.381940 160.762613 L821.499892 172.597595 L805.719916 151.421530 L776.602826 173.118997 L783.347937 126.923946 L772.759905 134.813934 L767.593479 97.495119 L760.975959 102.426362 Z" fill="#888" fill-opacity="0.18" stroke="#000" stroke-width="1"/>
  <path d="M358.244266 952.620544 L385.671990 919.614788 L389.502323 926.924869 L410.315916 895.521363 L416.444447 907.217492 L430.363443 862.655840 L447.216904 894.820196 L470.609163 882.563133 L479.801960 900.107328 L456.409701 912.364390 L473.263162 944.528747 L428.701510 930.609751 L434.830041 942.305881 L397.162987 941.545031 L400.993319 948.855112 Z" fill="#888" fill-opacity="0.18" stroke="#000" stroke-width="1"/>
  <path d="M777.133724 568.171410 L819.500866 575.004077 L815.154302 582.019497 L852.778420 583.971829 L845.823918 595.196500 L891.271851 584.521077 L872.146971 615.388923 L894.596313 629.297927 L884.164560 646.134934 L861.715218 632.225930 L842.590337 663.093776 L831.914914 617.645843 L824.960412 628.870514 L806.461174 596.050336 L802.114610 603.065755 Z" fill="#888" fill-opacity="0.18" stroke="#000" stroke-width="1"/>
  <path d="M591.001933 806.100408 L602.475470 764.748045 L608.967492 769.843374 L615.066360 732.665562 L625.453595 740.818089 L619.866824 694.468684 L648.431721 716.888133 L664.736774 696.113663 L680.317627 708.342453 L664.012573 729.116923 L692.577470 751.536371 L646.228065 757.123142 L656.615300 765.275669 L621.951535 780.034032 L628.443557 785.129362 Z" fill="#888" fill-opacity="0.18" stroke="#000" stroke-width="1"/>
  <path d="M264.650502 956.326901 L283.679737 917.862005 L289.100337 924.085012 L302.067046 888.711995 L310.740006 898.668807 L313.949635 852.094376 L337.800276 879.475608 L357.713899 862.129687 L370.723340 877.064905 L350.809717 894.410826 L374.660358 921.792058 L328.085927 918.582430 L336.758888 928.539242 L299.941538 936.531027 L305.362138 942.754034 Z" fill="#888" fill-opacity="0.18" stroke="#000" stroke-width="1"/>
  <path d="M500.672784 232.098279 L519.741493 193.652936 L525.155702 199.881505 L538.158714 164.521816 L546.821450 174.487525 L550.078884 127.916414 L573.901406 155.322114 L593.832825 137.996643 L606.826928 152.945207 L586.895509 170.270678 L610.718032 197.676378 L564.146920 194.418944 L572.809656 204.384653 L535.984122 212.338641 L541.398331 218.567209 Z" fill="#888" fill-opacity="0.18" stroke="#000" stroke-width="1"/>
  <path d="M156.217553 791.090669 L133.285616 827.364437 L128.542635 820.610708 L111.962277 854.440837 L104.373507 843.634871 L96.330516 889.621712 L75.461398 859.905304 L53.849465 875.082844 L42.466310 858.873894 L64.078243 843.696354 L43.209126 813.979946 L89.195967 822.022938 L81.607197 811.216971 L119.056672 807.103250 L114.313691 800.349521 Z" fill="#888" fill-opacity="0.18" stroke="#000" stroke-width="1"/>
  <path d="M465.924625 44.741247 L508.821175 45.984638 L505.427632 53.507443 L542.984646 50.531440 L537.554979 62.567928 L581.220369 46.050876 L566.288783 79.151219 L590.361761 90.010554 L582.217259 108.065286 L558.144282 97.205952 L543.212697 130.306295 L526.695644 86.640906 L521.265977 98.677394 L498.640548 68.553054 L495.247006 76.075859 Z" fill="#888" fill-opacity="0.18" stroke="#000" stroke-width="1"/>
  <path d="M1046.393077 257.420541 L1016.647138 288.353357 L1013.356249 280.785082 L990.323107 310.598842 L985.057685 298.489603 L967.948143 341.926256 L953.468231 308.625849 L929.249753 319.156693 L921.351620 300.992835 L945.570098 290.461990 L931.090186 257.161583 L974.526840 274.271125 L969.261418 262.161886 L1006.774471 265.648534 L1003.483582 258.080259 Z" fill="#888" fill-opacity="0.18" stroke="#000" stroke-width="1"/>
  <path d="M899.315477 460.678752 L921.129872 497.635377 L912.956033 498.774277 L935.494077 528.964052 L922.415935 530.786291 L959.666888 558.926046 L923.701998 563.937205 L927.346477 590.093488 L907.729265 592.826847 L904.084786 566.670564 L868.119897 571.681723 L896.259652 534.430770 L883.181510 536.253009 L896.608356 501.052076 L888.434518 502.190976 Z" fill="#888" fill-opacity="0.18" stroke="#000" stroke-width="1"/>
  <path d="M737.886720 453.777211 L779.513559 464.211109 L774.582480 470.828751 L811.901422 475.994256 L804.011695 486.582483 L850.206580 479.836233 L828.509831 508.953857 L849.686285 524.733311 L837.851695 540.615652 L816.675240 524.836198 L794.978491 553.953822 L788.232241 507.758937 L780.342514 518.347164 L764.720321 484.064034 L759.789242 490.681676 Z" fill="#888" fill-opacity="0.18" stroke="#000" stroke-width="1"/>
  <path d="M207.463023 584.669692 L245.289282 564.400648 L246.089537 572.614558 L277.184617 551.342936 L278.465025 564.485192 L308.119646 528.428532 L311.640767 564.569736 L337.925280 562.008920 L339.845892 581.722305 L313.561379 584.283121 L317.082501 620.424325 L281.025841 590.769705 L282.306249 603.911961 L247.690047 589.042378 L248.490302 597.256288 Z" fill="#888" fill-opacity="0.18" stroke="#000" stroke-width="1"/>
  <path d="M629.280163 905.717527 L654.599716 871.068137 L658.877748 878.125557 L677.695759 845.487107 L684.540609 856.778979 L695.658163 811.437174 L714.481501 842.489822 L737.065245 828.800122 L747.332520 845.737930 L724.748776 859.427630 L743.572114 890.480278 L698.230309 879.362723 L705.075159 890.654595 L667.433810 892.240396 L671.711842 899.297816 Z" fill="#888" fill-opacity="0.18" stroke="#000" stroke-width="1"/>
  <path d="M810.357244 341.330761 L774.139993 364.351853 L772.732199 356.220012 L743.301979 379.741238 L741.049509 366.730292 L714.153319 404.888832 L707.959026 369.108730 L681.937134 373.613670 L678.558429 354.097251 L704.580321 349.592311 L698.386029 313.812209 L736.544569 340.708399 L734.292099 327.697453 L769.916611 339.956329 L768.508818 331.824488 Z" fill="#888" fill-opacity="0.18" stroke="#000" stroke-width="1"/>
  <path d="M83.934001 569.174589 L121.120169 547.753829 L122.172214 555.939300 L152.599596 533.723083 L154.282869 546.819836 L182.816570 509.869772 L187.445569 545.885842 L213.639075 542.519297 L216.163984 562.164426 L189.970479 565.530972 L194.599479 601.547042 L157.649415 573.013342 L159.332687 586.110094 L124.276305 572.310241 L125.328350 580.495712 Z" fill="#888" fill-opacity="0.18" stroke="#000" stroke-width="1"/>
  <path d="M1059.395409 893.271262 L1026.607970 865.582929 L1033.948165 861.810627 L1002.710528 840.748910 L1014.454840 834.713227 L970.004852 820.441653 L1002.301711 803.843525 L990.230345 780.354900 L1007.846813 771.301376 L1019.918179 794.790001 L1052.215038 778.191872 L1037.943465 822.641861 L1049.687777 816.606178 L1048.628555 854.266023 L1055.968751 850.493721 Z" fill="#888" fill-opacity="0.18" stroke="#000" stroke-width="1"/>
  <path d="M312.001270 468.656487 L354.282199 461.309170 L352.459169 469.358101 L388.665559 458.942574 L385.748710 471.820864 L425.236555 446.917261 L417.215222 482.332557 L442.971801 488.166254 L438.596528 507.483688 L412.839949 501.649991 L404.818616 537.065287 L379.915014 497.577443 L376.998165 510.455732 L348.813108 485.455963 L346.990078 493.504894 Z" fill="#888" fill-opacity="0.18" stroke="#000" stroke-width="1"/>
  <path d="M646.985523 649.527961 L624.106612 685.835197 L619.353767 679.088405 L602.822858 712.942724 L595.218307 702.147857 L587.242517 748.146402 L566.330002 718.460518 L544.740269 733.669620 L533.333442 717.477320 L554.923176 702.268218 L534.010661 672.582334 L580.009205 680.558124 L572.404654 669.763257 L609.848079 665.594822 L605.095234 658.848030 Z" fill="#888" fill-opacity="0.18" stroke="#000" stroke-width="1"/>
  <path d="M741.482019 180.563213 L711.486920 149.871944 L719.153647 146.817434 L690.068810 122.870448 L702.335572 117.983233 L659.450627 99.534364 L693.184225 86.094522 L683.409794 61.560996 L701.809939 54.230174 L711.584369 78.763699 L745.317967 65.323857 L726.869098 108.208802 L739.135861 103.321587 L734.487100 140.708415 L742.153827 137.653906 Z" fill="#888" fill-opacity="0.18" stroke="#000" stroke-width="1"/>
  <path d="M982.320652 638.699422 L956.466687 672.951904 L952.298640 665.828975 L932.976627 698.171605 L926.307753 686.774919 L914.488224 731.938820 L896.148819 700.597933 L873.355446 713.935682 L863.352134 696.840653 L886.145507 683.502904 L867.806102 652.162017 L912.970004 663.981546 L906.301129 652.584860 L943.962547 651.583117 L939.794500 644.460188 Z" fill="#888" fill-opacity="0.18" stroke="#000" stroke-width="1"/>
  <path d="M75.235290 999.346825 L94.581132 961.040189 L99.950222 967.307693 L113.208243 932.042827 L121.798785 942.070834 L125.392446 895.524461 L149.016438 923.101480 L169.072452 905.920394 L181.958266 920.962405 L161.902252 938.143490 L185.526244 965.720509 L138.979870 962.126848 L147.570413 972.154855 L110.688400 979.842702 L116.057489 986.110206 Z" fill="#888" fill-opacity="0.18" stroke="#000" stroke-width="1"/>
  <path d="M873.537763 452.445095 L830.646595 451.028150 L834.070547 443.519137 L796.501800 446.343157 L801.980123 434.328736 L758.248262 450.668979 L773.313652 417.629321 L749.284810 406.672674 L757.502295 388.651042 L781.531137 399.607689 L796.596527 366.568032 L812.936771 410.299893 L818.415094 398.285472 L840.918452 428.501110 L844.342404 420.992097 Z" fill="#888" fill-opacity="0.18" stroke="#000" stroke-width="1"/>
  <path d="M530.583766 699.018536 L526.350313 741.723780 L519.082626 737.813607 L519.430849 775.486736 L507.802549 769.230460 L521.232609 813.941899 L489.254785 796.737141 L476.742233 819.993741 L459.299783 810.609327 L471.812335 787.352728 L439.834510 770.147969 L484.545949 756.717909 L472.917649 750.461633 L504.547251 729.993263 L497.279564 726.083090 Z" fill="#888" fill-opacity="0.18" stroke="#000" stroke-width="1"/>
  <path d="M638.108370 512.751059 L620.094819 473.800167 L628.341542 473.483479 L608.931998 441.193302 L622.126754 440.686601 L587.873109 408.966464 L624.158689 407.573034 L623.145286 381.183521 L642.937420 380.423469 L643.950824 406.812982 L680.236404 405.419552 L648.516267 439.673197 L661.711024 439.166496 L644.834988 472.850102 L653.081710 472.533413 Z" fill="#888" fill-opacity="0.18" stroke="#000" stroke-width="1"/>
  <path d="M68.222954 187.881193 L73.215513 145.258027 L80.412484 149.296881 L80.734566 111.623519 L92.249718 118.085686 L79.617253 73.142387 L111.283923 90.913346 L124.208257 67.883040 L141.480986 77.576290 L128.556653 100.606596 L160.223323 118.377554 L115.280024 131.010019 L126.795177 137.472186 L94.806425 157.374589 L102.003395 161.413443 Z" fill="#888" fill-opacity="0.18" stroke="#000" stroke-width="1"/>
  <path d="M271.632450 742.778578 L284.501564 701.839038 L290.817081 707.151568 L298.173067 670.201936 L308.277893 678.701985 L304.265950 632.189797 L332.054222 655.564932 L349.054320 635.355279 L364.211559 648.105353 L347.211461 668.315005 L374.999733 691.690140 L328.487546 695.702083 L338.592372 704.202132 L303.448114 717.776630 L309.763630 723.089160 Z" fill="#888" fill-opacity="0.18" stroke="#000" stroke-width="1"/>
  <path d="M748.639376 220.110248 L789.233658 206.190327 L788.702115 214.425993 L822.814174 198.433703 L821.963704 211.610768 L857.032541 180.794281 L854.693749 217.031210 L881.047879 218.732150 L879.772174 238.497747 L853.418044 236.796807 L851.079251 273.033736 L820.262764 237.964898 L819.412294 251.141964 L787.639027 230.897324 L787.107483 239.132990 Z" fill="#888" fill-opacity="0.18" stroke="#000" stroke-width="1"/>
  <path d="M479.038118 1058.351988 L437.929872 1046.032406 L443.157330 1039.646296 L406.112480 1032.785904 L414.476415 1022.568127 L368.022139 1027.202733 L391.022957 999.103848 L370.587405 982.375980 L383.133306 967.049316 L403.568858 983.777184 L426.569677 955.678299 L431.204283 1002.132575 L439.568217 991.914799 L453.612248 1026.874076 L458.839707 1020.487966 Z" fill="#888" fill-opacity="0.18" stroke="#000" stroke-width="1"/>
  <path d="M902.123975 971.697794 L920.636727 932.981673 L926.140125 939.131579 L938.632272 903.588195 L947.437709 913.428044 L950.023740 866.814830 L974.238691 893.874415 L993.918389 876.263542 L1007.126544 891.023315 L987.446846 908.634189 L1011.661796 935.693774 L965.048582 933.107742 L973.854018 942.947591 L937.146920 951.431390 L942.650318 957.581296 Z" fill="#888" fill-opacity="0.18" stroke="#000" stroke-width="1"/>
  <path d="M396.167361 252.275785 L437.162903 264.965368 L431.878099 271.304105 L468.859613 278.498098 L460.403927 288.640077 L506.898087 284.424344 L483.644952 312.314785 L503.928909 329.226156 L491.245381 344.439123 L470.961424 327.527753 L447.708289 355.418193 L443.492556 308.924033 L435.036871 319.066012 L421.308492 283.981578 L416.023689 290.320314 Z" fill="#888" fill-opacity="0.18" stroke="#000" stroke-width="1"/>
  <path d="M641.338781 916.687817 L634.865040 959.111286 L627.813074 954.824271 L626.179338 992.463569 L614.896192 985.604345 L625.955995 1030.960271 L594.927344 1012.097403 L581.208895 1034.663695 L564.284176 1024.374858 L578.002625 1001.808567 L546.973974 982.945699 L592.329900 971.885896 L581.046754 965.026671 L613.709141 946.250240 L606.657175 941.963225 Z" fill="#888" fill-opacity="0.18" stroke="#000" stroke-width="1"/>
  <path d="M175.951244 605.411346 L217.945267 614.252276 L213.269804 621.052921 L250.758403 624.793352 L243.277663 635.674385 L289.182095 627.173654 L268.610059 657.096493 L290.372124 672.057974 L279.151014 688.379523 L257.388949 673.418042 L236.816913 703.340882 L228.316183 657.436450 L220.835442 668.317482 L203.918879 634.654212 L199.243416 641.454857 Z" fill="#888" fill-opacity="0.18" stroke="#000" stroke-width="1"/>
  <path d="M498.533165 1021.543328 L489.807145 979.525277 L497.911386 981.084124 L486.317440 945.237697 L499.284226 947.731851 L473.102647 909.079501 L508.761308 915.938424 L513.749616 890.004852 L533.199795 893.746084 L528.211487 919.679656 L563.870149 926.538579 L525.217798 952.720159 L538.184584 955.214313 L514.119868 984.201816 L522.224110 985.760663 Z" fill="#888" fill-opacity="0.18" stroke="#000" stroke-width="1"/>
  <path d="M316.224590 95.018119 L357.401991 82.931694 L356.501844 91.135258 L391.296423 76.688003 L389.856189 89.813706 L426.271031 60.600036 L422.310387 96.695718 L448.561792 99.576187 L446.401440 119.264740 L420.150035 116.384271 L416.189390 152.479954 L386.975720 116.065111 L385.535485 129.190813 L354.701551 107.542386 L353.801405 115.745950 Z" fill="#888" fill-opacity="0.18" stroke="#000" stroke-width="1"/>
  <path d="M357.243740 855.334982 L324.960738 827.060121 L332.367740 823.420747 L301.514837 801.799362 L313.366041 795.976363 L269.180534 780.905852 L301.771344 764.892604 L290.125345 741.190197 L307.902150 732.455698 L319.548149 756.158105 L352.138958 740.144857 L337.068448 784.330364 L348.919651 778.507365 L347.181744 816.141998 L354.588747 812.502623 Z" fill="#888" fill-opacity="0.18" stroke="#000" stroke-width="1"/>
  <path d="M46.552141 569.513896 L64.458579 530.513646 L70.057260 536.576938 L81.993329 500.842974 L90.951218 510.544241 L92.809662 463.896353 L117.443856 490.574836 L136.846389 472.659058 L150.283222 487.210958 L130.880689 505.126735 L155.514884 531.805218 L108.866995 529.946774 L117.824884 539.648040 L81.254621 548.703521 L86.853301 554.766812 Z" fill="#888" fill-opacity="0.18" stroke="#000" stroke-width="1"/>
  <path d="M900.024120 244.515661 L877.670204 207.882856 L885.826465 206.624232 L862.848196 176.768160 L875.898213 174.754362 L838.238675 147.163813 L874.126223 141.625868 L870.098627 115.525833 L889.673654 112.505136 L893.701250 138.605172 L929.588798 133.067227 L901.998249 170.726766 L915.048267 168.712968 L902.138987 204.106985 L910.295248 202.848361 Z" fill="#888" fill-opacity="0.18" stroke="#000" stroke-width="1"/>
  <path d="M838.098059 886.414973 L818.163238 848.411514 L826.383883 847.683695 L805.387188 816.402316 L818.540221 815.237806 L782.746364 785.266501 L818.917203 782.064098 L816.588183 755.758033 L836.317731 754.011268 L838.646752 780.317332 L874.817591 777.114929 L844.846285 812.908785 L857.999318 811.744275 L842.825174 846.228058 L851.045819 845.500239 Z" fill="#888" fill-opacity="0.18" stroke="#000" stroke-width="1"/>
  <path d="M885.967257 745.580434 L843.429343 751.253694 L845.568551 743.282965 L808.979379 752.261737 L812.402111 739.508571 L771.962365 762.834655 L781.374879 727.763448 L755.868547 720.917983 L761.002646 701.788234 L786.508978 708.633699 L795.921492 673.562492 L819.247576 714.002239 L822.670309 701.249073 L849.846967 727.341508 L851.986175 719.370779 Z" fill="#888" fill-opacity="0.18" stroke="#000" stroke-width="1"/>
  <path d="M61.671716 272.961786 L96.491572 298.046397 L89.463249 302.372065 L122.228234 320.968884 L110.982918 327.889954 L156.398883 338.700569 L125.474264 357.733512 L139.316404 380.224144 L122.448430 390.605749 L108.606290 368.115117 L77.681671 387.148060 L88.492286 341.732094 L77.246969 348.653164 L75.406604 311.023403 L68.378281 315.349072 Z" fill="#888" fill-opacity="0.18" stroke="#000" stroke-width="1"/>
  <path d="M376.475220 646.106509 L357.549201 607.590723 L365.786176 607.079875 L345.621440 575.255839 L358.800600 574.438483 L323.809309 543.533972 L360.052000 541.286242 L358.417288 514.927921 L378.186028 513.701887 L379.820741 540.060208 L416.063432 537.812478 L385.158921 572.803770 L398.338082 571.986414 L382.260127 606.058180 L390.497102 605.547332 Z" fill="#888" fill-opacity="0.18" stroke="#000" stroke-width="1"/>
  <path d="M715.636291 537.338610 L698.193947 498.128603 L706.444417 497.932477 L687.508879 465.362072 L700.709632 465.048271 L666.923248 432.830892 L703.225318 431.967939 L702.597715 405.566434 L722.398845 405.095732 L723.026447 431.497237 L759.328517 430.634284 L727.111138 464.420669 L740.311890 464.106868 L722.945358 497.540226 L731.195828 497.344100 Z" fill="#888" fill-opacity="0.18" stroke="#000" stroke-width="1"/>
  <path d="M1053.257208 42.193277 L1034.190323 80.639524 L1028.775818 74.411212 L1015.774484 109.771517 L1007.111276 99.806219 L1003.856050 146.377485 L980.032228 118.972914 L960.101631 136.299330 L947.106819 121.351383 L967.037416 104.024967 L943.213594 76.620397 L989.784860 79.875622 L981.121652 69.910324 L1017.946808 61.954589 L1012.532303 55.726278 Z" fill="#888" fill-opacity="0.18" stroke="#000" stroke-width="1"/>
  <path d="M120.515232 769.437178 L118.474817 726.571145 L126.235090 729.379506 L120.395933 692.160020 L132.812369 696.653397 L113.004720 654.378862 L147.149922 666.735649 L156.136676 641.902776 L174.761331 648.642841 L165.774577 673.475715 L199.919778 685.832502 L157.645243 705.640152 L170.061680 710.133529 L141.755637 734.996228 L149.515910 737.804588 Z" fill="#888" fill-opacity="0.18" stroke="#000" stroke-width="1"/>
  <path d="M499.444166 336.441932 L530.754581 365.790149 L523.228980 369.177485 L553.334647 391.827754 L541.293684 397.247491 L584.945435 413.800556 L551.832786 428.704833 L562.672261 452.786759 L544.610817 460.916365 L533.771342 436.834439 L500.658694 451.738717 L517.211758 408.086966 L505.170795 413.506703 L508.177776 375.952157 L500.652174 379.339493 Z" fill="#888" fill-opacity="0.18" stroke="#000" stroke-width="1"/>
  <path d="M184.286366 260.216088 L199.878130 300.198045 L191.627505 300.008569 L209.020975 333.427920 L195.819974 333.124758 L228.064571 366.885167 L191.761818 366.051471 L191.155493 392.453473 L171.353991 391.998730 L171.960316 365.596727 L135.657562 364.763030 L169.417971 332.518433 L156.216970 332.215271 L175.126253 299.629616 L166.875627 299.440139 Z" fill="#888" fill-opacity="0.18" stroke="#000" stroke-width="1"/>
  <path d="M548.898783 227.988599 L591.811847 227.629551 L588.701540 235.273811 L626.121258 230.897665 L621.144767 243.128482 L664.163036 224.992667 L650.477686 258.627414 L674.939320 268.580396 L667.474583 286.926621 L643.012950 276.973639 L629.327600 310.608385 L611.191785 267.590116 L606.215294 279.820933 L582.480927 250.562332 L579.370620 258.206593 Z" fill="#888" fill-opacity="0.18" stroke="#000" stroke-width="1"/>
  <path d="M210.228574 285.251897 L228.515017 246.428374 L234.054219 252.546050 L246.338681 216.930353 L255.201404 226.718635 L257.515302 180.091120 L281.887792 207.008897 L301.464357 189.283450 L314.758442 203.965874 L295.181877 221.691321 L319.554367 248.609098 L272.926852 246.295200 L281.789575 256.083483 L245.132624 264.781403 L250.671826 270.899080 Z" fill="#888" fill-opacity="0.18" stroke="#000" stroke-width="1"/>
  <path d="M1037.495342 769.776280 L1005.056544 741.680295 L1012.443316 738.000034 L981.471373 716.549518 L993.290209 710.661101 L949.022075 695.835055 L981.523874 679.641907 L969.747038 656.004235 L987.475292 647.171608 L999.252128 670.809280 L1031.753926 654.616132 L1016.927881 698.884265 L1028.746716 692.995848 L1027.216861 730.639512 L1034.603634 726.959251 Z" fill="#888" fill-opacity="0.18" stroke="#000" stroke-width="1"/>
</svg>
