<?xml version="1.0" encoding="UTF-8"?>
<svg xmlns="http://www.w3.org/2000/svg" width="1100" height="1100" viewBox="0 0 1100 1100">
  <rect x="0" y="0" width="1100" height="1100" fill="white"/>
  <text x="10.0" y="18.0" font-family="monospace" font-size="12">prefix=N94_job5048495_task94 run_id=94 L=8.03043958635 feas=0.000e+00 N=94</text>
  <rect x="40.000000" y="40.000000" width="1020.000000" height="1020.000000" fill="none" stroke="#000" stroke-width="2"/>
  <path d="M693.970176 951.807180 L734.746762 958.237111 L730.589334 964.999972 L766.787116 966.751389 L760.135232 977.571965 L803.816384 967.150234 L785.523703 996.906820 L807.164856 1010.210588 L797.187030 1026.441453 L775.545877 1013.137685 L757.253196 1042.894271 L746.831464 999.213119 L740.179580 1010.033695 L722.274479 978.525692 L718.117051 985.288553 Z" fill="#888" fill-opacity="0.18" stroke="#000" stroke-width="1"/>
  <path d="M611.174447 94.361503 L572.002097 107.384594 L572.587669 99.467676 L539.631739 114.542609 L540.568654 101.875540 L506.558695 131.200925 L509.135211 96.366486 L483.801073 94.492656 L485.206446 75.492053 L510.540583 77.365883 L513.117099 42.531443 L542.442484 76.541403 L543.379399 63.874334 L573.758813 83.633840 L574.344385 75.716922 Z" fill="#888" fill-opacity="0.18" stroke="#000" stroke-width="1"/>
  <path d="M803.422860 145.076191 L844.654769 143.075303 L841.960259 150.542571 L877.757255 144.892621 L873.446039 156.840250 L914.093154 137.749216 L902.237310 170.605198 L926.132569 179.227630 L919.665745 197.149075 L895.770485 188.526643 L883.914641 221.382624 L864.823607 180.735510 L860.512391 192.683140 L836.571239 165.477108 L833.876729 172.944377 Z" fill="#888" fill-opacity="0.18" stroke="#000" stroke-width="1"/>
  <path d="M285.907435 442.550911 L245.737089 452.059708 L247.020317 444.225563 L212.860640 456.327771 L214.913804 443.793141 L178.444319 469.996807 L184.090519 435.526574 L159.021258 431.420246 L162.101004 412.618300 L187.170265 416.724628 L192.816465 382.254394 L219.020132 418.723880 L221.073295 406.189249 L249.586771 428.557275 L250.869999 420.723131 Z" fill="#888" fill-opacity="0.18" stroke="#000" stroke-width="1"/>
  <path d="M48.490796 586.893418 L89.740099 585.290632 L86.973634 592.731543 L122.823501 587.427402 L118.397156 599.332859 L159.226662 580.635079 L147.054213 613.375086 L170.865127 622.227776 L164.225609 640.085962 L140.414695 631.233272 L128.242246 663.973279 L109.544466 623.143773 L105.118121 635.049230 L81.440702 607.613364 L78.674237 615.054275 Z" fill="#888" fill-opacity="0.18" stroke="#000" stroke-width="1"/>
  <path d="M726.897259 830.644464 L685.708991 827.887562 L689.244852 820.779948 L653.035503 822.273256 L658.692880 810.901074 L616.118982 825.188088 L631.676769 793.914587 L608.932404 782.599833 L617.418469 765.541560 L640.162834 776.856313 L655.720620 745.582812 L670.007634 788.156710 L675.665010 776.784527 L696.316573 806.564720 L699.852433 799.457106 Z" fill="#888" fill-opacity="0.18" stroke="#000" stroke-width="1"/>
  <path d="M894.392631 790.698548 L867.194570 821.752361 L863.693749 814.627423 L842.895802 844.305569 L837.294490 832.905668 L822.798019 875.408701 L807.394409 844.058974 L784.594608 855.261600 L776.192639 838.161748 L798.992440 826.959123 L783.588831 795.609396 L826.091864 810.105866 L820.490552 798.705966 L856.692108 800.377547 L853.191288 793.252609 Z" fill="#888" fill-opacity="0.18" stroke="#000" stroke-width="1"/>
  <path d="M492.513396 280.531750 L522.645093 308.747964 L515.407621 312.009788 L544.377354 333.783660 L532.797400 339.002579 L574.794580 354.905168 L542.949706 369.257193 L553.387543 392.417101 L536.017612 400.245478 L525.579775 377.085570 L493.734902 391.437595 L509.637492 349.440415 L498.057538 354.659333 L500.932679 318.533436 L493.695208 321.795260 Z" fill="#888" fill-opacity="0.18" stroke="#000" stroke-width="1"/>
  <path d="M744.780203 838.909349 L718.225093 807.303969 L725.799651 804.927720 L699.630629 779.857236 L711.749921 776.055238 L671.946695 755.262002 L705.274750 744.806507 L697.670754 720.567922 L715.849693 714.864925 L723.453689 739.103510 L756.781743 728.648016 L735.988507 768.451242 L748.107799 764.649244 L740.948767 800.175223 L748.523325 797.798974 Z" fill="#888" fill-opacity="0.18" stroke="#000" stroke-width="1"/>
  <path d="M731.724505 80.576901 L698.586957 105.193497 L696.668149 97.490337 L670.076889 122.112519 L667.006797 109.787464 L643.869391 148.275332 L635.426637 114.381432 L610.776528 120.521617 L606.171389 102.034035 L630.821498 95.893850 L622.378744 61.999950 L660.866612 85.137355 L657.796519 72.812300 L692.830533 82.084019 L690.911725 74.380860 Z" fill="#888" fill-opacity="0.18" stroke="#000" stroke-width="1"/>
  <path d="M352.990642 233.067322 L321.511578 206.362594 L328.580395 202.749797 L298.577807 182.422683 L309.887914 176.642206 L267.161455 162.818128 L298.264251 146.921818 L286.703298 124.301603 L303.668460 115.630888 L315.229412 138.251104 L346.332208 122.354794 L332.508130 165.081254 L343.818237 159.300777 L342.718030 195.524201 L349.786847 191.911404 Z" fill="#888" fill-opacity="0.18" stroke="#000" stroke-width="1"/>
  <path d="M1051.466819 655.618526 L1023.270424 625.468281 L1030.708071 622.693052 L1003.244331 599.047970 L1015.144566 594.607603 L974.293062 575.957934 L1007.018707 563.746925 L998.137973 539.946456 L1015.988325 533.285906 L1024.869059 557.086375 L1057.594704 544.875366 L1038.945035 585.726869 L1050.845269 581.286502 L1045.583364 617.142593 L1053.021011 614.367364 Z" fill="#888" fill-opacity="0.18" stroke="#000" stroke-width="1"/>
  <path d="M455.794331 41.967259 L472.659576 79.645335 L464.723730 79.852325 L483.010551 111.140328 L470.313199 111.471512 L502.884541 142.386932 L467.966822 143.297689 L468.629191 168.692394 L449.583162 169.189171 L448.920793 143.794466 L414.003074 144.705224 L444.918494 112.133881 L432.221142 112.465066 L448.852040 80.266306 L440.916195 80.473296 Z" fill="#888" fill-opacity="0.18" stroke="#000" stroke-width="1"/>
  <path d="M201.554539 278.084490 L160.757803 284.385301 L162.656826 276.677241 L127.646733 286.038882 L130.685170 273.705985 L92.256836 296.942135 L100.612538 263.026669 L75.946744 256.949795 L80.504399 238.450450 L105.170193 244.527323 L113.525894 210.611857 L136.762044 249.040191 L139.800481 236.707294 L166.454872 261.261120 L168.353895 253.553059 Z" fill="#888" fill-opacity="0.18" stroke="#000" stroke-width="1"/>
  <path d="M890.695009 584.390391 L922.045277 611.246203 L914.959166 614.824962 L944.863648 635.296134 L933.525871 641.022149 L976.185352 655.051553 L945.006465 670.798096 L956.458496 693.473650 L939.451831 702.062673 L927.999800 679.387119 L896.820913 695.133661 L910.850317 652.474180 L899.512540 658.200196 L900.786945 621.982482 L893.700834 625.561241 Z" fill="#888" fill-opacity="0.18" stroke="#000" stroke-width="1"/>
  <path d="M744.472070 948.739061 L703.879772 941.233109 L708.214579 934.582550 L672.075768 931.874555 L679.011458 921.233660 L635.069995 930.496671 L654.143143 901.234211 L632.861354 887.362830 L643.264889 871.401488 L664.546679 885.272868 L683.619826 856.010408 L692.882838 899.951870 L699.818528 889.310975 L716.884191 921.281431 L721.218998 914.630872 Z" fill="#888" fill-opacity="0.18" stroke="#000" stroke-width="1"/>
  <path d="M430.628917 735.424103 L466.029266 756.658254 L459.641522 761.371767 L492.548610 776.553019 L482.328218 784.094639 L526.733248 790.791569 L498.627170 811.531024 L513.710409 831.971808 L498.379822 843.284237 L483.296582 822.843454 L455.190504 843.582908 L461.887434 799.177879 L451.667042 806.719499 L446.866032 770.798791 L440.478287 775.512304 Z" fill="#888" fill-opacity="0.18" stroke="#000" stroke-width="1"/>
  <path d="M450.190303 341.279608 L409.333530 335.380624 L413.402637 328.564257 L377.185136 327.283833 L383.695708 316.377647 L340.153813 327.366681 L358.057886 297.374670 L336.245514 284.353526 L346.011372 267.994247 L367.823744 281.015391 L385.727818 251.023380 L396.716852 294.565275 L403.227424 283.659089 L421.540853 314.931525 L425.609960 308.115159 Z" fill="#888" fill-opacity="0.18" stroke="#000" stroke-width="1"/>
  <path d="M906.186321 361.751574 L868.915309 379.498282 L868.521738 371.569500 L837.672467 390.587107 L837.042752 377.901056 L806.901910 411.190470 L805.170195 376.303829 L779.798092 377.563258 L778.853520 358.534181 L804.225623 357.274752 L802.493908 322.388110 L835.783323 352.528953 L835.153609 339.842901 L867.734595 355.711936 L867.341023 347.783154 Z" fill="#888" fill-opacity="0.18" stroke="#000" stroke-width="1"/>
  <path d="M214.428918 932.233503 L236.167715 897.140788 L240.789291 903.595361 L256.440114 870.908993 L263.834637 881.236309 L271.166622 836.931710 L291.501560 865.331831 L312.156193 850.542785 L323.247978 866.033760 L302.593344 880.822806 L322.928282 909.222927 L278.623683 901.890943 L286.018206 912.218260 L250.032445 916.504507 L254.654022 922.959080 Z" fill="#888" fill-opacity="0.18" stroke="#000" stroke-width="1"/>
  <path d="M167.252435 125.186487 L126.943877 134.091209 L128.344559 126.277210 L94.007064 137.865278 L96.248156 125.362880 L59.389432 151.016146 L65.552434 116.634552 L40.547639 112.152369 L43.909276 93.398772 L68.914072 97.880955 L75.077074 63.499361 L100.730339 100.358085 L102.971431 87.855687 L131.145924 110.649213 L132.546606 102.835215 Z" fill="#888" fill-opacity="0.18" stroke="#000" stroke-width="1"/>
  <path d="M155.244129 799.174473 L175.319196 835.244760 L167.431344 836.140460 L188.367421 865.721326 L175.746858 867.154447 L210.881068 895.123051 L176.174520 899.064134 L179.040762 924.305260 L160.109918 926.454942 L157.243676 901.213816 L122.537128 905.154899 L150.505732 870.020689 L137.885169 871.453811 L151.655640 837.931862 L143.767789 838.827563 Z" fill="#888" fill-opacity="0.18" stroke="#000" stroke-width="1"/>
  <path d="M618.471098 244.888539 L631.162081 205.607337 L637.196394 210.765589 L644.553913 175.280186 L654.208813 183.533388 L650.704570 138.763133 L677.255544 161.459440 L693.761949 142.149640 L708.244299 154.529444 L691.737894 173.839244 L718.288868 196.535551 L673.518612 200.039794 L683.173512 208.292996 L649.265018 221.082092 L655.299331 226.240343 Z" fill="#888" fill-opacity="0.18" stroke="#000" stroke-width="1"/>
  <path d="M337.883895 340.171691 L305.926481 314.041295 L312.928726 310.301103 L282.563017 290.520542 L293.766610 284.536235 L250.796858 271.488020 L281.606740 255.031174 L269.638125 232.623988 L286.443515 223.647526 L298.412130 246.054713 L329.222011 229.597867 L316.173797 272.567620 L327.377390 266.583312 L326.933218 302.820719 L333.935464 299.080526 Z" fill="#888" fill-opacity="0.18" stroke="#000" stroke-width="1"/>
  <path d="M915.785135 471.144016 L941.152647 503.710306 L933.495353 505.804665 L958.718836 531.826249 L946.467167 535.177224 L985.473778 557.428960 L951.781687 566.644141 L958.483636 591.147481 L940.106132 596.173943 L933.404182 571.670604 L899.712091 580.885785 L921.963828 541.879173 L909.712158 545.230148 L918.180766 509.993384 L910.523473 512.087743 Z" fill="#888" fill-opacity="0.18" stroke="#000" stroke-width="1"/>
  <path d="M378.300807 546.210941 L338.423333 535.540375 L343.267033 529.250777 L307.452498 523.713091 L315.202419 513.649733 L270.669223 519.433325 L291.981505 491.759092 L271.854790 476.259250 L283.479671 461.164213 L303.606387 476.664055 L324.918669 448.989822 L330.702261 493.523018 L338.452182 483.459661 L352.954435 516.671580 L357.798135 510.381981 Z" fill="#888" fill-opacity="0.18" stroke="#000" stroke-width="1"/>
  <path d="M178.570837 150.494783 L149.238436 179.541025 L146.251855 172.185699 L123.401031 200.313741 L118.622500 188.545220 L101.147523 229.912848 L88.006565 197.549414 L64.469523 207.106475 L57.301727 189.453693 L80.838770 179.896633 L67.697812 147.533199 L109.065440 165.008177 L104.286910 153.239656 L140.278692 157.475047 L137.292111 150.119722 Z" fill="#888" fill-opacity="0.18" stroke="#000" stroke-width="1"/>
  <path d="M490.210687 150.514492 L529.999354 139.517409 L529.008551 147.393879 L562.694202 134.028859 L561.108916 146.631212 L596.578015 119.088544 L592.218478 153.745015 L617.423185 156.915588 L615.045255 175.819118 L589.840549 172.648545 L585.481012 207.305017 L557.938344 171.835919 L556.353058 184.438272 L527.026943 163.146821 L526.036139 171.023292 Z" fill="#888" fill-opacity="0.18" stroke="#000" stroke-width="1"/>
  <path d="M464.731552 201.989032 L423.459988 201.133511 L426.664486 193.870476 L390.562451 197.031160 L395.689648 185.410304 L353.819515 201.644452 L367.919307 169.687098 L344.677595 159.432704 L352.368391 142.001420 L375.610103 152.255814 L389.709894 120.298460 L405.944042 162.168592 L411.071239 150.547737 L433.073483 179.344406 L436.277981 172.081371 Z" fill="#888" fill-opacity="0.18" stroke="#000" stroke-width="1"/>
  <path d="M635.031172 511.679258 L621.894895 550.813797 L615.919553 545.587347 L608.159504 580.986903 L598.598958 572.624582 L601.594523 617.431748 L575.303021 594.435368 L558.578381 613.556461 L544.237562 601.012981 L560.962202 581.891888 L534.670700 558.895508 L579.477865 555.899942 L569.917319 547.537622 L603.968870 535.134447 L597.993529 529.907997 Z" fill="#888" fill-opacity="0.18" stroke="#000" stroke-width="1"/>
  <path d="M1013.517102 477.750003 L973.435527 467.873707 L978.153329 461.489129 L942.235855 456.663990 L949.784339 446.448666 L905.374821 453.115766 L926.133151 425.023626 L905.702504 409.926659 L917.025229 394.603674 L937.455877 409.700641 L958.214207 381.608501 L964.881306 426.018019 L972.429790 415.802696 L987.588934 448.719975 L992.306736 442.335398 Z" fill="#888" fill-opacity="0.18" stroke="#000" stroke-width="1"/>
  <path d="M779.259570 295.327870 L790.331913 255.560080 L796.572324 260.466990 L802.471058 224.710146 L812.455715 232.561201 L807.121709 187.971921 L834.579516 209.562322 L850.281626 189.593008 L865.258612 201.369590 L849.556502 221.338905 L877.014309 242.929306 L832.425029 248.263311 L842.409686 256.114366 L809.053145 270.280808 L815.293556 275.187718 Z" fill="#888" fill-opacity="0.18" stroke="#000" stroke-width="1"/>
  <path d="M250.846489 1057.303783 L232.934062 1020.112132 L240.861014 1019.683273 L221.706284 988.918956 L234.389407 988.232782 L200.966164 958.240410 L235.844752 956.353431 L234.472403 930.987185 L253.497087 929.957924 L254.869436 955.324169 L289.748024 953.437190 L259.755653 986.860433 L272.438775 986.174259 L256.714917 1018.825555 L264.641869 1018.396696 Z" fill="#888" fill-opacity="0.18" stroke="#000" stroke-width="1"/>
  <path d="M277.051831 765.812734 L316.150599 779.055099 L310.907963 785.016244 L346.286343 792.872270 L337.898125 802.410102 L382.713250 799.536068 L359.645650 825.765105 L378.721314 842.541542 L366.138987 856.848290 L347.063323 840.071853 L323.995723 866.300891 L321.121689 821.485766 L312.733470 831.023598 L300.422691 796.938534 L295.180054 802.899679 Z" fill="#888" fill-opacity="0.18" stroke="#000" stroke-width="1"/>
  <path d="M677.346313 226.712678 L669.605623 267.260867 L662.980256 262.887654 L660.063210 299.010192 L649.462622 292.013050 L658.471237 336.007372 L629.319622 316.765233 L615.325339 337.966408 L599.424458 327.470695 L613.418741 306.269521 L584.267126 287.027382 L628.261448 278.018767 L617.660860 271.021626 L649.729522 254.141227 L643.104155 249.768013 Z" fill="#888" fill-opacity="0.18" stroke="#000" stroke-width="1"/>
  <path d="M727.503796 404.793242 L718.193068 445.009958 L711.742669 440.382557 L707.423941 476.364434 L697.103303 468.960592 L704.395293 513.271792 L676.013539 492.911227 L661.205855 513.552502 L645.724899 502.446740 L660.532582 481.805464 L632.150828 461.444898 L676.462028 454.152909 L666.141390 446.749067 L698.841872 431.127755 L692.391473 426.500353 Z" fill="#888" fill-opacity="0.18" stroke="#000" stroke-width="1"/>
  <path d="M964.180670 785.636728 L922.918030 784.424901 L926.185118 777.189804 L890.057139 780.038667 L895.284479 768.462513 L853.275742 784.334550 L867.650927 752.500124 L844.498617 742.045444 L852.339627 724.681212 L875.491937 735.135892 L889.867122 703.301466 L905.739159 745.310203 L910.966498 733.734048 L932.719293 762.719611 L935.986380 755.484514 Z" fill="#888" fill-opacity="0.18" stroke="#000" stroke-width="1"/>
  <path d="M369.450922 854.262182 L410.676268 856.394034 L407.248621 863.554461 L443.431154 861.512109 L437.946919 872.968793 L480.299217 858.037672 L465.217569 889.543553 L488.130937 900.512024 L479.904583 917.697049 L456.991216 906.728578 L441.909568 938.234459 L426.978448 895.882161 L421.494212 907.338844 L400.393327 877.875316 L396.965679 885.035743 Z" fill="#888" fill-opacity="0.18" stroke="#000" stroke-width="1"/>
  <path d="M756.002850 666.964912 L794.963870 653.322595 L794.503851 661.247800 L827.216711 645.652426 L826.480681 658.332754 L860.021576 628.472012 L857.997491 663.342912 L883.358146 664.814973 L882.254100 683.835464 L856.893445 682.363403 L854.869361 717.234303 L825.008619 683.693408 L824.272589 696.373735 L793.583813 677.098209 L793.123794 685.023413 Z" fill="#888" fill-opacity="0.18" stroke="#000" stroke-width="1"/>
  <path d="M817.734160 320.548358 L849.110050 293.722485 L851.551337 301.276332 L876.395892 274.892719 L880.301952 286.978874 L900.752189 246.998337 L911.493854 280.235263 L935.666163 272.423143 L941.525253 290.552375 L917.352943 298.364495 L928.094608 331.601421 L888.114071 311.151183 L892.020131 323.237338 L856.433912 316.384025 L858.875199 323.937872 Z" fill="#888" fill-opacity="0.18" stroke="#000" stroke-width="1"/>
  <path d="M46.797294 469.508451 L71.118296 436.153349 L75.240430 442.937780 L93.309460 411.523499 L99.904873 422.378589 L110.554064 378.752332 L128.691450 408.603828 L150.401629 395.413002 L160.294749 411.695636 L138.584570 424.886462 L156.721956 454.737958 L113.095699 444.088768 L119.691113 454.943857 L83.484696 456.506642 L87.606829 463.291073 Z" fill="#888" fill-opacity="0.18" stroke="#000" stroke-width="1"/>
  <path d="M547.887712 781.470188 L560.346945 820.825511 L552.439252 820.126312 L567.039383 853.295320 L554.387074 852.176603 L583.221052 886.604168 L548.427203 883.527695 L546.189768 908.832312 L527.211305 907.154236 L529.448740 881.849619 L494.654892 878.773145 L529.082457 849.939168 L516.430148 848.820450 L536.623866 818.727915 L528.716174 818.028717 Z" fill="#888" fill-opacity="0.18" stroke="#000" stroke-width="1"/>
  <path d="M507.794989 655.213262 L539.051727 682.177872 L531.953221 685.731982 L561.786373 706.306965 L550.428763 711.993541 L593.039226 726.171127 L561.805799 741.809209 L573.178949 764.524429 L556.142535 773.054292 L544.769384 750.339072 L513.535957 765.977154 L527.713543 723.366691 L516.355933 729.053267 L517.756209 692.840201 L510.657702 696.394310 Z" fill="#888" fill-opacity="0.18" stroke="#000" stroke-width="1"/>
  <path d="M226.469368 457.443391 L247.754094 492.813354 L239.901089 493.975587 L261.826631 522.830699 L249.261821 524.690270 L285.322774 551.453365 L250.769548 556.567187 L254.488692 581.696806 L235.641478 584.486163 L231.922334 559.356544 L197.369109 564.470367 L224.132203 528.409414 L211.567393 530.268986 L224.195077 496.300051 L216.342071 497.462283 Z" fill="#888" fill-opacity="0.18" stroke="#000" stroke-width="1"/>
  <path d="M61.843424 604.941305 L90.504066 634.650588 L83.110359 637.540844 L110.937538 660.757110 L99.107606 665.381519 L140.243458 683.395325 L107.711146 696.112450 L116.959965 719.772314 L99.215067 726.708927 L89.966249 703.049064 L57.433937 715.766190 L75.447743 674.630338 L63.617812 679.254747 L68.322944 643.321355 L60.929237 646.211611 Z" fill="#888" fill-opacity="0.18" stroke="#000" stroke-width="1"/>
  <path d="M488.353368 536.658724 L503.775235 574.950237 L495.837255 574.855634 L512.922400 606.815683 L500.221631 606.664318 L531.595141 638.794652 L496.668027 638.378399 L496.365297 663.779937 L477.314144 663.552889 L477.616874 638.151352 L442.689759 637.735099 L474.820093 606.361588 L462.119324 606.210224 L479.961294 574.666428 L472.023313 574.571825 Z" fill="#888" fill-opacity="0.18" stroke="#000" stroke-width="1"/>
  <path d="M755.970467 674.386225 L788.622617 699.643125 L781.724044 703.571251 L812.613408 722.523667 L801.575691 728.808668 L844.882487 740.690458 L814.528765 757.974211 L827.098767 780.049646 L810.542192 789.477148 L797.972189 767.401713 L767.618467 784.685467 L779.500257 741.378671 L768.462539 747.663672 L767.926897 711.427503 L761.028324 715.355628 Z" fill="#888" fill-opacity="0.18" stroke="#000" stroke-width="1"/>
  <path d="M425.768975 1047.482787 L385.992074 1036.443218 L390.893839 1030.198766 L355.132147 1024.329500 L362.974971 1014.338377 L318.390102 1019.709125 L339.957869 992.233535 L319.975622 976.547887 L331.739858 961.561201 L351.722105 977.246850 L373.289872 949.771261 L378.660620 994.356130 L386.503444 984.365006 L400.697369 1017.709862 L405.599135 1011.465410 Z" fill="#888" fill-opacity="0.18" stroke="#000" stroke-width="1"/>
  <path d="M457.976963 1059.913959 L444.778174 1020.800460 L452.697640 1021.350490 L437.474934 988.462557 L450.146080 989.342605 L420.668333 955.464619 L455.513987 957.884750 L457.274082 932.542457 L476.280802 933.862529 L474.520707 959.204822 L509.366360 961.624954 L475.488373 991.102701 L488.159520 991.982749 L468.536574 1022.450549 L476.456040 1023.000579 Z" fill="#888" fill-opacity="0.18" stroke="#000" stroke-width="1"/>
  <path d="M798.058795 356.992283 L756.898272 360.136369 L759.384568 352.597216 L723.758108 359.238170 L727.736181 347.175526 L687.634389 367.386953 L698.574089 334.214682 L674.448801 326.258537 L680.415911 308.164571 L704.541199 316.120717 L715.480899 282.948446 L735.692326 323.050238 L739.670399 310.987594 L764.357159 337.518912 L766.843454 329.979759 Z" fill="#888" fill-opacity="0.18" stroke="#000" stroke-width="1"/>
  <path d="M818.873236 549.406315 L805.600068 588.494637 L799.643055 583.247305 L791.759155 618.619484 L782.227936 610.223753 L785.066657 655.041129 L758.855804 631.952869 L742.064342 651.015308 L727.767513 638.421711 L744.558974 619.359273 L718.348121 596.271013 L763.165497 593.432291 L753.634277 585.036560 L787.729031 572.752642 L781.772019 567.505310 Z" fill="#888" fill-opacity="0.18" stroke="#000" stroke-width="1"/>
  <path d="M709.839065 878.216802 L750.908537 882.384826 L747.130968 889.366979 L783.370231 889.116517 L777.326121 900.287962 L820.365007 887.469625 L803.743705 918.191098 L826.086594 930.279318 L817.020430 947.036485 L794.677540 934.948265 L778.056238 965.669738 L765.237901 922.630851 L759.193791 933.802296 L739.575831 903.331285 L735.798262 910.313438 Z" fill="#888" fill-opacity="0.18" stroke="#000" stroke-width="1"/>
  <path d="M283.056336 187.257573 L254.470442 217.038785 L251.298178 209.761613 L229.168474 238.460448 L224.092851 226.816974 L207.673224 268.614717 L193.715260 236.595163 L170.428312 246.746410 L162.814877 229.281199 L186.101825 219.129952 L172.143861 187.110398 L213.941605 203.530026 L208.865982 191.886552 L244.953649 195.207271 L241.781384 187.930099 Z" fill="#888" fill-opacity="0.18" stroke="#000" stroke-width="1"/>
  <path d="M1059.659683 201.934974 L1019.752332 212.493255 L1020.829808 204.628172 L986.999029 217.621451 L988.722991 205.037318 L952.952755 232.187746 L957.693649 197.581381 L932.525384 194.133457 L935.111326 175.257258 L960.279592 178.705181 L965.020486 144.098816 L992.170914 179.869052 L993.894876 167.284919 L1022.984760 188.898006 L1024.062236 181.032923 Z" fill="#888" fill-opacity="0.18" stroke="#000" stroke-width="1"/>
  <path d="M177.851200 960.533626 L152.630490 993.213739 L148.694724 986.319522 L129.776542 1017.229864 L123.479316 1006.199117 L111.645513 1049.519050 L94.328141 1019.184495 L72.266647 1031.778947 L62.820808 1015.232827 L84.882302 1002.638374 L67.564930 972.303819 L110.884864 984.137623 L104.587638 973.106875 L140.823192 972.531088 L136.887425 965.636871 Z" fill="#888" fill-opacity="0.18" stroke="#000" stroke-width="1"/>
  <path d="M172.204028 572.953405 L212.219723 583.093328 L207.459996 589.446712 L243.344930 594.508177 L235.729366 604.673591 L280.181809 598.298966 L259.239009 626.253853 L279.569836 641.484980 L268.146491 656.733100 L247.815664 641.501973 L226.872864 669.456860 L220.498239 625.004418 L212.882676 635.169831 L197.940542 602.153479 L193.180814 608.506862 Z" fill="#888" fill-opacity="0.18" stroke="#000" stroke-width="1"/>
  <path d="M40.644699 280.939240 L70.412385 309.539219 L63.133714 312.708040 L91.822077 334.851318 L80.176203 339.921432 L121.966174 356.360831 L89.940020 370.303646 L100.080249 393.595394 L82.611438 401.200566 L72.471209 377.908818 L40.445056 391.851632 L56.884455 350.061661 L45.238581 355.131776 L48.576371 319.045683 L41.297700 322.214505 Z" fill="#888" fill-opacity="0.18" stroke="#000" stroke-width="1"/>
  <path d="M582.403324 429.484149 L571.625089 469.332657 L565.348596 464.471986 L559.714196 500.271433 L549.671807 492.494360 L555.335094 537.043015 L527.718526 515.656062 L512.164379 535.740839 L497.100796 524.075229 L512.654943 503.990452 L485.038375 482.603499 L529.587030 476.940212 L519.544642 469.163139 L552.795610 454.750644 L546.519118 449.889973 Z" fill="#888" fill-opacity="0.18" stroke="#000" stroke-width="1"/>
  <path d="M630.370715 464.238539 L601.588807 434.646721 L608.970632 431.726251 L581.048735 408.623987 L592.859655 403.951234 L551.650474 386.105817 L584.130502 373.255747 L574.784997 349.633908 L592.501376 342.624778 L601.846882 366.246617 L634.326911 353.396547 L616.481494 394.605728 L628.292414 389.932975 L623.734281 425.885309 L631.116106 422.964839 Z" fill="#888" fill-opacity="0.18" stroke="#000" stroke-width="1"/>
  <path d="M394.678375 586.057052 L398.877668 544.990766 L405.856942 548.773650 L405.634073 512.534207 L416.800913 518.586821 L404.015349 475.538187 L434.724158 492.182876 L446.829386 469.849197 L463.579645 478.928118 L451.474417 501.261797 L482.183226 517.906486 L439.134592 530.692049 L450.301431 536.744663 L419.815492 556.339418 L426.794766 560.122302 Z" fill="#888" fill-opacity="0.18" stroke="#000" stroke-width="1"/>
  <path d="M561.608351 1055.561194 L590.117714 1025.706711 L593.308645 1032.975716 L615.364617 1004.220178 L620.470108 1015.850587 L636.782403 974.010838 L650.822502 1005.994462 L674.083320 995.783481 L681.741556 1013.229094 L658.480738 1023.440075 L672.520838 1055.423699 L630.681089 1039.111404 L635.786580 1050.741813 L599.690508 1047.513727 L602.881440 1054.782733 Z" fill="#888" fill-opacity="0.18" stroke="#000" stroke-width="1"/>
  <path d="M1047.192527 1022.326753 L1018.896415 992.270074 L1026.324828 989.470223 L998.782914 965.916245 L1010.668374 961.436482 L969.755317 942.922237 L1002.440334 930.602891 L993.480809 906.831970 L1011.309000 900.112326 L1020.268524 923.883247 L1052.953541 911.563901 L1034.439295 952.476958 L1046.324756 947.997196 L1041.181653 983.870520 L1048.610066 981.070668 Z" fill="#888" fill-opacity="0.18" stroke="#000" stroke-width="1"/>
  <path d="M269.636801 322.281928 L308.224610 336.946680 L302.767272 342.711915 L337.834359 351.857749 L329.102618 361.082127 L373.992915 359.850536 L349.980627 385.217574 L368.429381 402.681056 L355.331770 416.517622 L336.883015 399.054140 L312.870727 424.421178 L311.639136 379.530881 L302.907395 388.755259 L291.852595 354.242387 L286.395257 360.007623 Z" fill="#888" fill-opacity="0.18" stroke="#000" stroke-width="1"/>
  <path d="M204.019681 795.755298 L184.306579 759.485923 L192.203000 758.669202 L171.563991 728.880308 L184.198263 727.573554 L149.345698 699.254758 L184.089947 695.661185 L181.476440 670.392640 L200.427848 668.432510 L203.041356 693.701054 L237.785604 690.107482 L209.466808 724.960047 L222.101080 723.653293 L207.995840 757.035760 L215.892260 756.219039 Z" fill="#888" fill-opacity="0.18" stroke="#000" stroke-width="1"/>
  <path d="M917.745976 361.273929 L944.344602 329.705162 L947.981171 336.761780 L968.207189 306.690945 L974.025699 317.981533 L987.705893 275.208786 L1003.706797 306.257903 L1026.287973 294.620882 L1035.015738 311.556764 L1012.434563 323.193785 L1028.435467 354.242902 L985.662721 340.562708 L991.481231 351.853296 L955.254309 350.875014 L958.890878 357.931632 Z" fill="#888" fill-opacity="0.18" stroke="#000" stroke-width="1"/>
  <path d="M724.528358 518.686067 L709.057191 556.957687 L703.407729 551.380585 L693.528135 586.248056 L684.488997 577.324692 L684.778434 622.230947 L659.920803 597.691697 L642.074076 615.769974 L628.515369 602.384929 L646.362096 584.306652 L621.504465 559.767402 L666.410720 559.477965 L657.371582 550.554601 L692.108806 540.226380 L686.459344 534.649278 Z" fill="#888" fill-opacity="0.18" stroke="#000" stroke-width="1"/>
  <path d="M884.539746 1057.507315 L911.871128 1026.570775 L915.341269 1033.710706 L936.266679 1004.122293 L941.818905 1015.546181 L956.498060 973.105895 L971.766682 1004.521588 L994.614459 993.417135 L1002.942798 1010.552967 L980.095022 1021.657420 L995.363644 1053.073113 L952.923358 1038.393958 L958.475584 1049.817846 L922.281552 1047.990566 L925.751694 1055.130496 Z" fill="#888" fill-opacity="0.18" stroke="#000" stroke-width="1"/>
  <path d="M643.418645 636.799462 L607.694955 657.485009 L606.665249 649.613529 L577.444683 671.049607 L575.797154 658.455240 L548.430059 694.059981 L543.899354 659.425471 L518.710619 662.720530 L516.239325 643.828979 L541.428060 640.533920 L536.897354 605.899410 L572.502096 633.266505 L570.854566 620.672138 L604.605837 633.870570 L603.576132 625.999090 Z" fill="#888" fill-opacity="0.18" stroke="#000" stroke-width="1"/>
  <path d="M698.997056 834.004400 L666.143872 858.999243 L664.136887 851.318586 L637.829625 876.243972 L634.618449 863.954920 L611.923761 902.705490 L603.093026 868.910598 L578.514923 875.332951 L573.698159 856.899373 L598.276262 850.477021 L589.445527 816.682129 L628.196097 839.376817 L624.984920 827.087766 L660.122917 835.957271 L658.115931 828.276614 Z" fill="#888" fill-opacity="0.18" stroke="#000" stroke-width="1"/>
  <path d="M738.978651 590.249063 L730.957563 549.755409 L738.739061 551.326640 L727.904688 516.743938 L740.355086 519.257907 L715.514015 481.846990 L749.752609 488.760406 L754.780547 463.859611 L773.456144 467.630565 L768.428205 492.531360 L802.666798 499.444776 L765.255881 524.285846 L777.706278 526.799816 L754.302058 554.469101 L762.083556 556.040332 Z" fill="#888" fill-opacity="0.18" stroke="#000" stroke-width="1"/>
  <path d="M773.343617 130.721293 L804.808956 104.000396 L807.224993 111.562357 L832.157556 85.261896 L836.023215 97.361034 L856.606912 57.449044 L867.237473 90.721672 L891.435747 82.990355 L897.234235 101.139061 L873.035960 108.870378 L883.666521 142.143006 L843.754531 121.559309 L847.620190 133.658446 L812.057066 126.686278 L814.473103 134.248239 Z" fill="#888" fill-opacity="0.18" stroke="#000" stroke-width="1"/>
  <path d="M878.865037 446.049058 L839.487317 458.437321 L840.200770 450.530901 L807.005495 465.071210 L808.147020 452.420939 L773.667529 481.192804 L776.806724 446.404558 L751.506182 444.121507 L753.218470 425.146100 L778.519012 427.429151 L781.658207 392.640905 L810.430071 427.120397 L811.571597 414.470126 L841.627677 434.718062 L842.341131 426.811643 Z" fill="#888" fill-opacity="0.18" stroke="#000" stroke-width="1"/>
  <path d="M900.957433 789.280441 L933.684955 814.439599 L926.798157 818.388334 L957.744051 837.248306 L946.725175 843.566282 L990.067304 855.318532 L959.765395 872.692966 L972.401347 894.730717 L955.873033 904.207681 L943.237081 882.169929 L912.935173 899.544362 L924.687423 856.202234 L913.668547 862.520209 L913.024562 826.285803 L906.137765 830.234538 Z" fill="#888" fill-opacity="0.18" stroke="#000" stroke-width="1"/>
  <path d="M689.342945 268.762989 L699.574628 228.770658 L705.917077 233.544945 L711.060840 197.671716 L721.208758 205.310576 L714.936113 160.843628 L742.842889 181.850495 L758.120610 161.554657 L773.342488 173.012948 L758.064767 193.308785 L785.971543 214.315652 L741.504596 220.588297 L751.652514 228.227157 L718.601975 243.093521 L724.944424 247.867809 Z" fill="#888" fill-opacity="0.18" stroke="#000" stroke-width="1"/>
  <path d="M133.493776 456.723739 L132.039559 497.978547 L124.823781 494.669011 L127.460348 530.813103 L115.915103 525.517845 L131.540071 567.619103 L99.790647 553.057144 L89.200131 576.147634 L71.882264 568.204747 L82.472779 545.114257 L50.723355 530.552298 L92.824613 514.927330 L81.279368 509.632072 L110.392224 488.049939 L103.176446 484.740402 Z" fill="#888" fill-opacity="0.18" stroke="#000" stroke-width="1"/>
  <path d="M1008.123159 85.920939 L977.989493 114.135050 L975.209892 106.699035 L951.580957 134.176669 L947.133596 122.279046 L928.507941 163.141504 L916.277699 130.423042 L892.482454 139.317764 L885.811413 121.471330 L909.606658 112.576609 L897.376416 79.858146 L938.238874 98.483801 L933.791513 86.586178 L969.650691 91.827007 L966.871090 84.390993 Z" fill="#888" fill-opacity="0.18" stroke="#000" stroke-width="1"/>
  <path d="M920.947126 453.149074 L905.461758 491.414950 L899.814366 485.835752 L889.921836 520.699555 L880.886009 511.772838 L881.158783 556.679197 L856.310260 532.130725 L838.456826 550.202379 L824.903085 536.812303 L842.756520 518.740650 L817.907996 494.192178 L862.814355 493.919404 L853.778529 484.992687 L888.519583 474.677356 L882.872191 469.098158 Z" fill="#888" fill-opacity="0.18" stroke="#000" stroke-width="1"/>
  <path d="M139.954655 78.068806 L181.141462 75.290165 L178.588350 82.806953 L214.272349 76.482465 L210.187370 88.509326 L250.466970 68.654619 L239.233279 101.728488 L263.287001 109.898445 L257.159534 127.938736 L233.105811 119.768780 L221.872120 152.842648 L202.017413 112.563049 L197.932435 124.589910 L173.482127 97.840529 L170.929016 105.357318 Z" fill="#888" fill-opacity="0.18" stroke="#000" stroke-width="1"/>
  <path d="M488.559080 189.781262 L528.051378 201.799260 L522.996978 207.920822 L558.602907 214.670987 L550.515866 224.465486 L595.219716 220.196840 L572.980354 247.131712 L592.569353 263.305794 L580.438792 277.997543 L560.849793 261.823461 L538.610432 288.758334 L534.341785 244.054485 L526.254744 253.848984 L512.888177 220.163946 L507.833777 226.285508 Z" fill="#888" fill-opacity="0.18" stroke="#000" stroke-width="1"/>
  <path d="M944.811624 938.510941 L903.848029 943.615626 L905.971724 935.966416 L870.702757 944.299899 L874.100669 932.061164 L835.009052 954.163224 L844.353309 920.506702 L819.875838 913.710879 L824.972705 895.352777 L849.450175 902.148599 L858.794432 868.492077 L880.896491 907.583694 L884.294403 895.344958 L910.219113 920.667997 L912.342807 913.018788 Z" fill="#888" fill-opacity="0.18" stroke="#000" stroke-width="1"/>
  <path d="M504.703268 945.860041 L541.322766 926.805219 L541.996736 934.715102 L572.153534 914.617478 L573.231886 927.273291 L602.175538 892.937878 L605.141006 927.741364 L630.452632 925.584659 L632.070160 944.568378 L606.758535 946.725083 L609.724004 981.528568 L575.388591 952.584917 L576.466943 965.240729 L543.344677 950.534868 L544.018647 958.444751 Z" fill="#888" fill-opacity="0.18" stroke="#000" stroke-width="1"/>
  <path d="M434.044258 389.850409 L423.032062 429.634896 L416.784239 424.737429 L410.939582 460.503151 L400.943064 452.667204 L406.344489 497.248367 L378.854066 475.699511 L363.182171 495.692547 L348.187394 483.938626 L363.859289 463.945590 L336.368865 442.396734 L380.950028 436.995309 L370.953511 429.159361 L404.288591 414.942495 L398.040768 410.045028 Z" fill="#888" fill-opacity="0.18" stroke="#000" stroke-width="1"/>
  <path d="M228.596529 707.715822 L249.023671 743.587898 L241.144963 744.560758 L262.369559 773.935295 L249.763627 775.491871 L285.169896 803.115261 L250.503584 807.395844 L253.616735 832.607707 L234.707837 834.942571 L231.594686 809.730707 L196.928374 814.011291 L224.551764 778.605022 L211.945832 780.161598 L225.387549 746.506477 L217.508842 747.479337 Z" fill="#888" fill-opacity="0.18" stroke="#000" stroke-width="1"/>
  <path d="M1049.108437 788.992155 L1013.967406 767.331549 L1020.411672 762.695612 L987.690538 747.117608 L998.001364 739.700108 L953.680549 732.466790 L982.035322 712.068667 L967.200323 691.447014 L982.666563 680.320765 L997.501562 700.942418 L1025.856335 680.544294 L1018.623017 724.865109 L1028.933844 717.447610 L1033.300206 753.423738 L1039.744472 748.787801 Z" fill="#888" fill-opacity="0.18" stroke="#000" stroke-width="1"/>
  <path d="M536.559114 277.602048 L495.435925 281.201663 L497.838596 273.635445 L462.287847 280.670440 L466.132121 268.564491 L426.256564 289.218679 L436.828317 255.927320 L412.616419 248.238772 L418.382830 230.079849 L442.594728 237.768396 L453.166481 204.477037 L473.820669 244.352593 L477.664943 232.246645 L502.643938 258.503009 L505.046610 250.936791 Z" fill="#888" fill-opacity="0.18" stroke="#000" stroke-width="1"/>
  <path d="M1034.448650 898.411952 L1004.779329 869.709943 L1012.068836 866.566129 L983.456665 844.324490 L995.119877 839.294388 L953.386591 822.711613 L985.460425 808.878832 L975.400221 785.552408 L992.895039 778.007255 L1002.955243 801.333679 L1035.029076 787.500898 L1018.446301 829.234184 L1030.109513 824.204082 L1026.647851 860.278502 L1033.937359 857.134688 Z" fill="#888" fill-opacity="0.18" stroke="#000" stroke-width="1"/>
  <path d="M288.831687 43.826908 L329.755481 49.241426 L325.767416 56.105522 L361.997546 56.956769 L355.616642 67.939324 L399.025288 56.435197 L381.477803 86.637222 L403.442912 99.399030 L393.871556 115.872862 L371.906447 103.111054 L354.358961 133.313080 L342.854834 89.904433 L336.473930 100.886988 L317.791286 69.833716 L313.803221 76.697812 Z" fill="#888" fill-opacity="0.18" stroke="#000" stroke-width="1"/>
  <path d="M451.708675 356.605756 L482.374611 384.240413 L475.200860 387.640087 L504.581807 408.855808 L493.103806 414.295286 L535.397505 429.391595 L503.833001 444.350160 L514.711957 467.306163 L497.494954 475.465380 L486.615998 452.509377 L455.051494 467.467941 L470.147803 425.174242 L458.669801 430.613720 L460.853358 394.439434 L453.679607 397.839108 Z" fill="#888" fill-opacity="0.18" stroke="#000" stroke-width="1"/>
  <path d="M353.137735 795.872183 L317.316609 775.355828 L323.608057 770.514530 L290.401679 755.999593 L300.467996 748.253517 L255.937012 742.452916 L283.619384 721.151205 L268.127231 701.018571 L283.226706 689.399456 L298.718859 709.532090 L326.401231 688.230379 L320.600630 732.761363 L330.666947 725.015287 L336.190953 760.831934 L342.482401 755.990636 Z" fill="#888" fill-opacity="0.18" stroke="#000" stroke-width="1"/>
  <path d="M465.715633 678.356006 L445.693813 714.455876 L440.766456 708.231599 L426.709530 741.634439 L418.825759 731.675594 L413.638076 776.282135 L391.957704 748.895312 L372.040015 764.662855 L360.214358 749.724588 L380.132047 733.957045 L358.451675 706.570222 L403.058216 711.757905 L395.174444 701.799060 L430.911742 695.783043 L425.984384 689.558765 Z" fill="#888" fill-opacity="0.18" stroke="#000" stroke-width="1"/>
  <path d="M246.955628 390.128354 L209.332590 373.140684 L215.130922 367.718523 L180.685946 356.453951 L189.963277 347.778493 L145.081305 346.273811 L170.593964 322.416301 L153.243048 303.861640 L167.159044 290.848453 L184.509961 309.403114 L210.022620 285.545604 L208.517939 330.427576 L217.795270 321.752118 L226.727585 356.874200 L232.525917 351.452039 Z" fill="#888" fill-opacity="0.18" stroke="#000" stroke-width="1"/>
  <path d="M444.334816 660.830835 L406.727380 677.853015 L406.487306 669.918102 L375.275815 688.335206 L374.891697 675.639344 L344.112338 708.339292 L343.056014 673.425674 L317.664292 674.193909 L317.088115 655.150117 L342.479838 654.381882 L341.423513 619.468263 L374.123461 650.247622 L373.739344 637.551760 L406.007159 654.048275 L405.767085 646.113362 Z" fill="#888" fill-opacity="0.18" stroke="#000" stroke-width="1"/>
  <path d="M624.762507 754.100345 L637.276704 714.762465 L643.334153 719.893527 L650.532011 684.375394 L660.223930 692.585093 L656.518379 647.831049 L683.171156 670.407720 L699.590553 651.023882 L714.128431 663.338430 L697.709034 682.722268 L724.361811 705.298939 L679.607768 709.004490 L689.299686 717.214188 L655.449052 730.155650 L661.506501 735.286712 Z" fill="#888" fill-opacity="0.18" stroke="#000" stroke-width="1"/>
  <path d="M62.968616 868.406406 L67.450724 827.370024 L74.403772 831.200900 L74.430569 794.960781 L85.555446 801.090183 L73.066757 757.954488 L103.660168 774.810341 L115.918970 752.560588 L132.606285 761.754689 L120.347483 784.004443 L150.940894 800.860296 L107.805199 813.348985 L118.930076 819.478386 L88.309868 838.862651 L95.262915 842.693527 Z" fill="#888" fill-opacity="0.18" stroke="#000" stroke-width="1"/>
</svg>
