<?xml version="1.0" encoding="UTF-8"?>
<svg xmlns="http://www.w3.org/2000/svg" width="1100" height="1100" viewBox="0 0 1100 1100">
  <rect x="0" y="0" width="1100" height="1100" fill="white"/>
  <text x="10.0" y="18.0" font-family="monospace" font-size="12">prefix=N97_job5048498_task97 run_id=97 L=8.20351457507 feas=0.000e+00 N=97</text>
  <rect x="40.000000" y="40.000000" width="1020.000000" height="1020.000000" fill="none" stroke="#000" stroke-width="2"/>
  <path d="M867.789541 217.392795 L830.646804 233.309627 L830.568575 225.538961 L799.658016 242.947343 L799.532850 230.514277 L768.763104 261.909857 L768.418895 227.718928 L743.552764 227.969262 L743.365014 209.319664 L768.231145 209.069330 L767.886936 174.878401 L799.282516 205.648147 L799.157349 193.215082 L830.412116 209.997629 L830.333887 202.226964 Z" fill="#888" fill-opacity="0.18" stroke="#000" stroke-width="1"/>
  <path d="M57.643640 751.268802 L97.752437 746.348140 L95.659300 753.831999 L130.199637 745.740057 L126.850618 757.714231 L165.158601 736.151342 L155.948799 769.080322 L179.897147 775.778359 L174.873619 793.739621 L150.925271 787.041583 L141.715469 819.970562 L120.152580 781.662580 L116.803561 793.636754 L91.473027 768.799717 L89.379890 776.283576 Z" fill="#888" fill-opacity="0.18" stroke="#000" stroke-width="1"/>
  <path d="M207.608007 680.143254 L181.931495 648.939966 L189.369690 646.689940 L164.005560 621.887214 L175.906672 618.287173 L137.153790 597.534492 L169.881850 587.634381 L162.681769 563.832156 L180.533439 558.432095 L187.733519 582.234321 L220.461579 572.334210 L199.708898 611.087093 L211.610011 607.487053 L204.246081 642.189890 L211.684277 639.939865 Z" fill="#888" fill-opacity="0.18" stroke="#000" stroke-width="1"/>
  <path d="M1055.529580 424.905166 L1017.721202 439.168930 L1017.985651 431.402372 L986.337629 447.431007 L986.760747 435.004513 L954.636718 465.012953 L955.800292 430.840095 L930.947304 429.993860 L931.581981 411.354119 L956.434968 412.200354 L957.598542 378.027496 L987.606982 410.151525 L988.030100 397.725031 L1018.514548 415.869255 L1018.778996 408.102696 Z" fill="#888" fill-opacity="0.18" stroke="#000" stroke-width="1"/>
  <path d="M915.106210 912.689754 L874.718800 911.353511 L877.943237 904.282983 L842.567362 906.940396 L847.726461 895.627551 L806.546599 911.011915 L820.734123 879.901590 L798.108433 869.583391 L805.847082 852.614123 L828.472773 862.932323 L842.660297 831.821998 L858.044661 873.001860 L863.203761 861.689015 L884.392112 890.141927 L887.616549 883.071398 Z" fill="#888" fill-opacity="0.18" stroke="#000" stroke-width="1"/>
  <path d="M654.157425 705.127723 L688.982603 725.624928 L682.768219 730.290847 L715.103540 744.883360 L705.160526 752.348831 L748.681737 758.542690 L721.338448 779.072734 L736.269388 798.958762 L721.354867 810.156967 L706.423927 790.270939 L679.080638 810.800982 L685.274497 767.279771 L675.331483 774.745241 L670.339452 739.622684 L664.125068 744.288603 Z" fill="#888" fill-opacity="0.18" stroke="#000" stroke-width="1"/>
  <path d="M692.231232 842.816296 L664.602495 872.304961 L661.411366 865.219338 L640.089355 893.572225 L634.983549 882.235227 L619.405568 923.342236 L605.364602 892.165492 L582.690606 902.377103 L575.031897 885.371606 L597.705893 875.159995 L583.664927 843.983250 L624.771937 859.561231 L619.666131 848.224233 L655.029109 851.048090 L651.837981 843.962466 Z" fill="#888" fill-opacity="0.18" stroke="#000" stroke-width="1"/>
  <path d="M1050.592174 869.711498 L1031.244114 905.187984 L1026.377583 899.129416 L1012.849683 931.924390 L1005.063233 922.230683 L1000.295090 965.931078 L978.882351 939.273382 L959.494936 954.846283 L947.815260 940.305722 L967.202675 924.732821 L945.789937 898.075125 L989.490332 902.843268 L981.703881 893.149560 L1016.644520 887.012282 L1011.777988 880.953715 Z" fill="#888" fill-opacity="0.18" stroke="#000" stroke-width="1"/>
  <path d="M715.083079 433.001236 L698.627192 396.094160 L706.395895 395.902810 L688.539348 365.248967 L700.969273 364.942807 L669.129060 334.633393 L703.311354 333.791453 L702.699034 308.931603 L721.343922 308.472363 L721.956242 333.332213 L756.138537 332.490273 L725.829124 364.330486 L738.259049 364.024326 L721.933302 395.520110 L729.702005 395.328760 Z" fill="#888" fill-opacity="0.18" stroke="#000" stroke-width="1"/>
  <path d="M174.626111 463.164767 L136.580738 476.783800 L136.977165 469.022858 L105.061260 484.511221 L105.695544 472.093715 L73.066070 501.551773 L74.810349 467.403630 L49.975336 466.135064 L50.926761 447.508804 L75.761774 448.777371 L77.506053 414.629229 L106.964110 447.258703 L107.598393 434.841196 L137.770019 453.500976 L138.166447 445.740034 Z" fill="#888" fill-opacity="0.18" stroke="#000" stroke-width="1"/>
  <path d="M223.070718 608.891549 L248.674602 577.628638 L252.330453 584.486051 L271.717235 554.776338 L277.566597 565.748200 L290.372848 523.695142 L306.458591 553.867762 L328.402315 542.169040 L337.176356 558.626832 L315.232633 570.325555 L331.318377 600.498174 L289.265319 587.691923 L295.114680 598.663785 L259.642154 598.200878 L263.298005 605.058292 Z" fill="#888" fill-opacity="0.18" stroke="#000" stroke-width="1"/>
  <path d="M214.655685 436.075363 L240.255184 467.341864 L232.811464 469.573543 L258.114364 494.438732 L246.204411 498.009418 L284.906008 518.857585 L252.153638 528.676972 L259.295010 552.496878 L241.430081 557.852907 L234.288709 534.033001 L201.536338 543.852388 L222.384505 505.150790 L210.474552 508.721476 L217.924023 474.036901 L210.480302 476.268579 Z" fill="#888" fill-opacity="0.18" stroke="#000" stroke-width="1"/>
  <path d="M933.708258 445.012505 L893.488375 441.102331 L897.157332 434.251921 L861.683986 434.646994 L867.554318 423.686338 L825.476848 436.412150 L841.620260 406.270345 L819.698947 394.529682 L828.504445 378.088698 L850.425757 389.829361 L866.569169 359.687556 L879.294981 401.765025 L885.165312 390.804369 L904.495247 420.551100 L908.164204 413.700690 Z" fill="#888" fill-opacity="0.18" stroke="#000" stroke-width="1"/>
  <path d="M552.528033 665.124228 L562.480605 704.288941 L554.792152 703.158872 L567.186470 736.398836 L554.884945 734.590725 L581.118479 769.864815 L547.289286 764.892509 L543.673063 789.495559 L525.220776 786.783392 L528.836999 762.180342 L495.007806 757.208036 L530.281896 730.974503 L517.980371 729.166391 L539.415246 700.898732 L531.726793 699.768663 Z" fill="#888" fill-opacity="0.18" stroke="#000" stroke-width="1"/>
  <path d="M822.408064 563.177294 L850.623798 592.104803 L843.401775 594.973905 L870.766633 617.549975 L859.211395 622.140538 L899.575895 639.552225 L867.798992 652.176272 L876.980117 675.286747 L859.647261 682.172590 L850.466136 659.062116 L818.689233 671.686163 L836.100920 631.321663 L824.545683 635.912225 L828.957728 600.712108 L821.735705 603.581210 Z" fill="#888" fill-opacity="0.18" stroke="#000" stroke-width="1"/>
  <path d="M49.216527 40.922047 L88.981768 48.109121 L84.764740 54.636451 L120.151523 57.144437 L113.404278 67.588165 L156.381712 58.346956 L137.826788 87.067209 L158.714245 100.561699 L148.593378 116.227292 L127.705921 102.732802 L109.150997 131.453055 L99.909788 88.475622 L93.162544 98.919350 L76.330684 67.691112 L72.113656 74.218442 Z" fill="#888" fill-opacity="0.18" stroke="#000" stroke-width="1"/>
  <path d="M40.679557 653.070583 L72.544434 628.219868 L74.598934 635.714426 L100.057265 611.008399 L103.344465 622.999692 L125.104697 584.803461 L134.144496 617.779515 L158.127081 611.205116 L163.057881 629.192054 L139.075296 635.766454 L148.115096 668.742508 L109.918865 646.982277 L113.206065 658.973569 L78.707934 650.703542 L80.762434 658.198099 Z" fill="#888" fill-opacity="0.18" stroke="#000" stroke-width="1"/>
  <path d="M701.310605 303.664521 L664.310683 319.910574 L664.163449 312.140910 L633.408705 329.823109 L633.173131 317.391645 L602.683409 349.059240 L602.035579 314.872716 L577.172652 315.343866 L576.819290 296.696670 L601.682217 296.225521 L601.034386 262.038997 L632.701981 292.528718 L632.466407 280.097255 L663.868980 296.601580 L663.721746 288.831916 Z" fill="#888" fill-opacity="0.18" stroke="#000" stroke-width="1"/>
  <path d="M358.879651 923.681500 L319.229228 931.477165 L320.778106 923.862026 L286.910018 934.419820 L289.388223 922.235598 L252.732155 946.500643 L259.547217 912.994031 L235.178772 908.037622 L238.896079 889.761288 L263.264524 894.717697 L270.079586 861.211085 L294.344632 897.867153 L296.822836 885.682930 L323.875861 908.631747 L325.424739 901.016608 Z" fill="#888" fill-opacity="0.18" stroke="#000" stroke-width="1"/>
  <path d="M929.564249 210.872727 L966.548258 194.590481 L966.703094 202.359998 L997.440523 184.647718 L997.688260 197.078945 L1028.146984 165.381534 L1028.828262 199.567408 L1053.690715 199.071933 L1054.062321 217.718774 L1029.199868 218.214249 L1029.881145 252.400123 L998.183735 221.941399 L998.431472 234.372625 L967.012766 217.899032 L967.167602 225.668549 Z" fill="#888" fill-opacity="0.18" stroke="#000" stroke-width="1"/>
  <path d="M137.994521 371.881916 L112.642865 340.414123 L120.103986 338.241329 L94.998342 313.176991 L106.936136 309.700520 L68.400473 288.547213 L101.229407 278.986918 L94.276464 255.111329 L112.183156 249.896623 L119.136098 273.772211 L151.965031 264.211916 L130.811724 302.747578 L142.749518 299.271107 L135.026229 333.895740 L142.487350 331.722945 Z" fill="#888" fill-opacity="0.18" stroke="#000" stroke-width="1"/>
  <path d="M378.589730 325.795417 L362.715440 362.956355 L357.292958 357.389844 L346.956374 391.326099 L338.280402 382.419681 L337.704286 426.375657 L313.845363 401.883006 L296.032526 419.234950 L283.018568 405.875323 L300.831405 388.523379 L276.972482 364.030729 L320.928457 364.606844 L312.252485 355.700426 L346.447993 346.256821 L341.025510 340.690310 Z" fill="#888" fill-opacity="0.18" stroke="#000" stroke-width="1"/>
  <path d="M631.136335 1044.943678 L654.178246 1011.747311 L658.366809 1018.292944 L675.334501 987.138300 L682.036202 997.611312 L691.464481 954.674530 L709.894158 983.475314 L730.840182 970.071912 L740.892733 985.781431 L719.946709 999.184832 L738.376386 1027.985616 L695.439603 1018.557337 L702.141304 1029.030349 L666.743935 1031.384209 L670.932498 1037.929842 Z" fill="#888" fill-opacity="0.18" stroke="#000" stroke-width="1"/>
  <path d="M384.659115 282.744887 L355.603532 310.828718 L352.767319 303.593716 L330.066980 330.855576 L325.529038 319.279572 L307.933884 359.564436 L295.454544 327.730427 L272.302536 336.806311 L265.495623 319.442306 L288.647630 310.366421 L276.168290 278.532412 L316.453154 296.127565 L311.915212 284.551562 L347.094891 289.123711 L344.258677 281.888709 Z" fill="#888" fill-opacity="0.18" stroke="#000" stroke-width="1"/>
  <path d="M939.730018 41.658725 L964.918718 73.257109 L957.446468 75.391318 L982.422250 100.585060 L970.466650 103.999793 L1008.892483 125.351961 L976.014583 134.742477 L982.844049 158.653677 L964.910649 163.775777 L958.081182 139.864576 L925.203282 149.255092 L946.555450 110.829259 L934.599850 114.243992 L942.501967 79.659734 L935.029717 81.793942 Z" fill="#888" fill-opacity="0.18" stroke="#000" stroke-width="1"/>
  <path d="M377.892429 156.348253 L378.706424 196.749563 L371.474387 193.905797 L376.009803 229.090231 L364.438544 224.540205 L381.991626 264.843418 L350.170663 252.330846 L341.070611 275.473364 L323.713722 268.648325 L332.813774 245.505807 L300.992812 232.993234 L341.296025 215.440152 L329.724766 210.890126 L357.010313 188.218264 L349.778276 185.374498 Z" fill="#888" fill-opacity="0.18" stroke="#000" stroke-width="1"/>
  <path d="M545.741968 803.829143 L579.914833 782.261951 L581.215749 789.923346 L608.999314 767.864609 L611.080781 780.122841 L636.522696 744.273592 L642.246730 777.983732 L666.763196 773.820798 L669.885396 792.208147 L645.368931 796.371081 L651.092965 830.081221 L615.243716 804.639307 L617.325183 816.897540 L583.817583 805.246137 L585.118500 812.907533 Z" fill="#888" fill-opacity="0.18" stroke="#000" stroke-width="1"/>
  <path d="M388.850879 718.428883 L411.705080 685.103008 L415.930516 691.624898 L432.722117 660.374994 L439.482816 670.810019 L448.668632 627.820712 L467.260552 656.517029 L488.130601 642.995633 L498.271648 658.648170 L477.401599 672.169566 L495.993519 700.865884 L453.004212 691.680068 L459.764910 702.115092 L424.381389 704.668679 L428.606825 711.190569 Z" fill="#888" fill-opacity="0.18" stroke="#000" stroke-width="1"/>
  <path d="M69.925654 168.247699 L110.308157 166.770572 L107.583497 174.048319 L142.688735 168.935915 L138.329279 180.580309 L178.338904 162.367962 L166.350402 194.390047 L189.639191 203.108958 L183.100008 220.575549 L159.811219 211.856638 L147.822716 243.878724 L129.610368 203.869098 L125.250913 215.513493 L102.134178 188.603812 L99.409518 195.881558 Z" fill="#888" fill-opacity="0.18" stroke="#000" stroke-width="1"/>
  <path d="M937.267632 498.487560 L897.299233 504.442015 L899.198471 496.906615 L864.878545 505.887541 L867.917327 493.830900 L830.178771 516.375547 L838.535421 483.219786 L814.422139 477.142222 L818.980312 459.057261 L843.093593 465.134825 L851.450243 431.979063 L873.994890 469.717619 L877.033672 457.660979 L902.996948 481.835814 L904.896187 474.300414 Z" fill="#888" fill-opacity="0.18" stroke="#000" stroke-width="1"/>
  <path d="M695.619470 284.002253 L735.423150 277.031208 L733.716555 284.612560 L767.796473 274.759968 L765.065920 286.890131 L802.217710 263.391106 L794.708689 296.749055 L818.969016 302.210161 L814.873186 320.405405 L790.612860 314.944299 L783.103839 348.302248 L759.604814 311.150457 L756.874261 323.280620 L730.303363 299.775264 L728.596768 307.356616 Z" fill="#888" fill-opacity="0.18" stroke="#000" stroke-width="1"/>
  <path d="M629.130999 87.391327 L591.794656 102.848558 L591.812333 95.077518 L560.689286 112.103098 L560.717569 99.669435 L529.562704 130.682885 L529.640482 96.490312 L504.773156 96.433746 L504.815580 77.783252 L529.682906 77.839817 L529.760684 43.647244 L560.774135 74.802109 L560.802417 62.368446 L591.847686 79.535439 L591.865363 71.764400 Z" fill="#888" fill-opacity="0.18" stroke="#000" stroke-width="1"/>
  <path d="M369.115006 709.308883 L402.905738 731.469997 L396.472498 735.829216 L428.062502 751.971893 L417.769318 758.946644 L460.939153 767.242727 L432.632898 786.423291 L446.582399 807.009659 L431.142623 817.471784 L417.193122 796.885417 L388.886867 816.065980 L397.182950 772.896145 L386.889766 779.870895 L383.606018 744.547654 L377.172778 748.906873 Z" fill="#888" fill-opacity="0.18" stroke="#000" stroke-width="1"/>
  <path d="M502.665270 354.629796 L501.464837 314.238121 L508.723747 317.012576 L503.851968 281.873138 L515.466222 286.312266 L497.528407 246.178808 L529.467608 258.386411 L538.345865 235.157902 L555.767247 241.816595 L546.888990 265.045104 L578.828190 277.252708 L538.694732 295.190523 L550.308987 299.629652 L523.241565 322.561487 L530.500474 325.335942 Z" fill="#888" fill-opacity="0.18" stroke="#000" stroke-width="1"/>
  <path d="M949.245707 687.872118 L966.309442 651.242111 L971.549699 656.980496 L982.974674 623.395018 L991.359086 632.576434 L993.351597 588.661863 L1016.408730 613.910758 L1034.771563 597.141934 L1047.348182 610.914058 L1028.985349 627.682883 L1052.042482 652.931778 L1008.127910 650.939267 L1016.512323 660.120684 L982.030215 668.457267 L987.270472 674.195652 Z" fill="#888" fill-opacity="0.18" stroke="#000" stroke-width="1"/>
  <path d="M232.295945 198.992533 L248.035444 161.774303 L253.478066 167.321125 L263.691584 133.347629 L272.399779 142.222543 L272.816577 98.264768 L296.764114 122.670783 L314.513944 105.254392 L327.576237 118.566764 L309.826408 135.983155 L333.773945 160.389170 L289.816170 159.972372 L298.524366 168.847287 L264.363311 178.414768 L269.805933 183.961590 Z" fill="#888" fill-opacity="0.18" stroke="#000" stroke-width="1"/>
  <path d="M664.038697 906.267815 L704.251373 902.284208 L701.984212 909.717198 L736.703928 902.433264 L733.076470 914.326049 L771.877077 893.662732 L761.901567 926.367890 L785.687137 933.622806 L780.245950 951.461983 L756.460381 944.207067 L746.484871 976.912225 L725.821554 938.111618 L722.194097 950.004403 L697.449890 924.583179 L695.182728 932.016170 Z" fill="#888" fill-opacity="0.18" stroke="#000" stroke-width="1"/>
  <path d="M401.280130 153.369030 L434.826014 130.839003 L436.344223 138.460315 L463.489414 115.620592 L465.918549 127.814693 L490.330964 91.256607 L497.011083 124.790383 L521.399284 119.932115 L525.042985 138.223265 L500.654784 143.081533 L507.334903 176.615309 L470.776817 152.202894 L473.205951 164.396994 L439.380640 153.702941 L440.898849 161.324254 Z" fill="#888" fill-opacity="0.18" stroke="#000" stroke-width="1"/>
  <path d="M590.817607 125.467829 L610.688409 160.654185 L602.972576 161.579005 L623.646689 190.407732 L611.301356 191.887444 L645.863968 219.051494 L611.914304 223.120703 L614.873729 247.811367 L596.355730 250.030936 L593.396306 225.340271 L559.446642 229.409480 L586.610692 194.846869 L574.265360 196.326581 L587.540911 163.428646 L579.825078 164.353466 Z" fill="#888" fill-opacity="0.18" stroke="#000" stroke-width="1"/>
  <path d="M790.808440 1059.796604 L783.078663 1020.133283 L790.691219 1021.694811 L780.189709 987.809229 L792.369797 990.307673 L768.165688 953.611341 L801.660931 960.482064 L806.657820 936.121887 L824.927953 939.869554 L819.931063 964.229731 L853.426306 971.100454 L816.729974 995.304563 L828.910062 997.803007 L805.916329 1024.817867 L813.528884 1026.379395 Z" fill="#888" fill-opacity="0.18" stroke="#000" stroke-width="1"/>
  <path d="M479.166867 1001.190575 L516.614688 986.005414 L516.540470 993.776119 L547.786571 976.977442 L547.667821 989.410570 L579.047516 958.624624 L578.720954 992.815726 L603.587211 993.053225 L603.409086 1011.702917 L578.542830 1011.465418 L578.216268 1045.656521 L547.430322 1014.276826 L547.311572 1026.709954 L516.392033 1009.317529 L516.317814 1017.088234 Z" fill="#888" fill-opacity="0.18" stroke="#000" stroke-width="1"/>
  <path d="M499.674008 405.977863 L472.119398 376.419922 L479.404432 373.714809 L452.556905 350.525919 L464.212960 346.197738 L424.252370 327.878050 L456.306523 315.975554 L447.650162 292.663443 L465.134245 286.171172 L473.790606 309.483283 L505.844759 297.580787 L487.525071 337.541377 L499.181127 333.213197 L493.974502 368.304584 L501.259536 365.599471 Z" fill="#888" fill-opacity="0.18" stroke="#000" stroke-width="1"/>
  <path d="M700.220356 537.188448 L738.151757 551.121763 L732.872810 556.824577 L767.297749 565.394172 L758.851435 574.518675 L802.778478 572.823204 L779.551113 597.915586 L797.800119 614.808215 L785.130647 628.494969 L766.881641 611.602340 L743.654277 636.694723 L741.958806 592.767680 L733.512492 601.892183 L722.314917 568.230205 L717.035971 573.933020 Z" fill="#888" fill-opacity="0.18" stroke="#000" stroke-width="1"/>
  <path d="M186.634527 524.606055 L154.135880 548.622017 L152.276438 541.076698 L126.185935 565.114170 L123.210827 553.041659 L100.467320 590.660705 L92.285774 557.461301 L68.140753 563.411517 L63.678091 545.302752 L87.823112 539.352536 L79.641565 506.153132 L117.260611 528.896638 L114.285503 516.824128 L148.557553 525.986060 L146.698110 518.440741 Z" fill="#888" fill-opacity="0.18" stroke="#000" stroke-width="1"/>
  <path d="M462.070159 975.173271 L423.597449 962.812888 L428.637214 956.897643 L393.888748 949.752122 L401.952373 940.287729 L358.132329 943.789649 L380.307296 917.762569 L361.378510 901.635319 L373.473947 887.438730 L392.402733 903.565979 L414.577701 877.538898 L418.079622 921.358943 L426.143246 911.894550 L438.716745 945.067152 L443.756510 939.151906 Z" fill="#888" fill-opacity="0.18" stroke="#000" stroke-width="1"/>
  <path d="M239.579152 929.227723 L207.026215 953.170044 L205.183861 945.620534 L179.039002 969.598873 L176.091235 957.519658 L153.262614 995.087115 L145.156254 961.869272 L120.997824 967.764806 L116.576173 949.645983 L140.734604 943.750449 L132.628244 910.532607 L170.195700 933.361227 L167.247933 921.282012 L201.499152 930.521515 L199.656797 922.972005 Z" fill="#888" fill-opacity="0.18" stroke="#000" stroke-width="1"/>
  <path d="M436.531251 494.751290 L470.830156 473.385111 L472.086067 481.054013 L499.998668 459.158783 L502.008127 471.429026 L527.660087 435.729773 L533.186098 469.472941 L557.726583 465.454024 L560.740771 483.859388 L536.200285 487.878305 L541.726296 521.621472 L506.027044 495.969511 L508.036502 508.239754 L474.597890 496.391816 L475.853802 504.060718 Z" fill="#888" fill-opacity="0.18" stroke="#000" stroke-width="1"/>
  <path d="M40.665391 751.071326 L59.646298 715.397055 L64.575096 721.405076 L77.763826 688.472239 L85.649902 698.085073 L89.966796 654.337797 L111.653506 680.773090 L130.879174 665.000938 L142.708289 679.420189 L123.482621 695.192342 L145.169330 721.627635 L101.422055 717.310741 L109.308131 726.923575 L74.432691 733.421119 L79.361489 739.429140 Z" fill="#888" fill-opacity="0.18" stroke="#000" stroke-width="1"/>
  <path d="M171.763931 1059.580102 L132.084691 1051.932462 L136.377115 1045.454464 L101.021789 1042.536363 L107.889668 1032.171566 L64.807978 1040.913862 L83.694645 1012.410670 L62.965051 998.674912 L73.266869 983.127717 L93.996463 996.863474 L112.883130 968.360282 L121.625425 1011.441972 L128.493304 1001.077175 L144.961964 1032.498467 L149.254388 1026.020469 Z" fill="#888" fill-opacity="0.18" stroke="#000" stroke-width="1"/>
  <path d="M757.042560 159.734895 L728.794032 188.630382 L725.754044 181.478610 L703.834932 209.372461 L698.970950 197.929626 L682.523817 238.696666 L669.147869 207.228871 L646.262199 216.956833 L638.966228 199.792581 L661.851897 190.064619 L648.475949 158.596824 L689.242988 175.043957 L684.379007 163.601122 L719.674068 167.175067 L716.634079 160.023295 Z" fill="#888" fill-opacity="0.18" stroke="#000" stroke-width="1"/>
  <path d="M534.950049 874.918661 L499.495612 855.530228 L505.559715 850.670597 L472.780163 837.105372 L482.482728 829.329962 L438.787789 824.512074 L465.469844 803.129696 L449.919024 783.724565 L464.472872 772.061450 L480.023692 791.466581 L506.705747 770.084203 L501.887859 813.779142 L511.590424 806.003732 L517.687922 840.951334 L523.752025 836.091703 Z" fill="#888" fill-opacity="0.18" stroke="#000" stroke-width="1"/>
  <path d="M1052.309096 257.323714 L1023.006180 285.149377 L1020.234088 277.889564 L997.293440 304.949517 L992.858094 293.333817 L974.907210 333.461432 L962.710008 301.518257 L939.478608 310.388950 L932.825589 292.965400 L956.056988 284.094708 L943.859787 252.151533 L983.987401 270.102417 L979.552055 258.486718 L1014.689906 263.369940 L1011.917814 256.110127 Z" fill="#888" fill-opacity="0.18" stroke="#000" stroke-width="1"/>
  <path d="M393.377607 499.645967 L409.150463 462.441862 L414.588111 467.993560 L424.832078 434.029233 L433.532315 442.911950 L433.988517 398.954566 L457.914167 423.382038 L475.679601 405.981566 L488.729956 419.305641 L470.964521 436.706114 L494.890171 461.133586 L450.932788 460.677384 L459.633024 469.560102 L425.463406 479.096957 L430.901054 484.648655 Z" fill="#888" fill-opacity="0.18" stroke="#000" stroke-width="1"/>
  <path d="M1050.335998 785.254747 L1019.020987 759.714610 L1025.870939 756.044796 L996.121789 736.718583 L1007.081711 730.846880 L965.002650 718.126333 L995.142435 701.979151 L983.399029 680.059307 L999.838912 671.251753 L1011.582317 693.171596 L1041.722102 677.024414 L1029.001554 719.103475 L1039.961476 713.231772 L1039.570841 748.705168 L1046.420792 745.035354 Z" fill="#888" fill-opacity="0.18" stroke="#000" stroke-width="1"/>
  <path d="M1021.780818 1046.185017 L981.379235 1046.985359 L984.225446 1039.754284 L949.039481 1044.277809 L953.593417 1032.708088 L913.284274 1050.247549 L925.807599 1018.430817 L902.668158 1009.322944 L909.499062 991.968363 L932.638504 1001.076235 L945.161829 969.259503 L962.701290 1009.568646 L967.255227 997.998925 L989.917866 1025.292132 L992.764076 1018.061057 Z" fill="#888" fill-opacity="0.18" stroke="#000" stroke-width="1"/>
  <path d="M294.326042 744.431845 L257.623007 761.337929 L257.336648 753.572147 L226.903510 771.802301 L226.445337 759.377050 L196.527644 791.585611 L195.267667 757.416171 L170.417165 758.332518 L169.729905 739.694642 L194.580406 738.778295 L193.320429 704.608856 L225.528989 734.526549 L225.070816 722.101298 L256.763931 738.040584 L256.477573 730.274802 Z" fill="#888" fill-opacity="0.18" stroke="#000" stroke-width="1"/>
  <path d="M962.822358 372.209675 L923.654907 362.267882 L928.316723 356.050419 L893.190879 351.081571 L900.649785 341.133632 L857.132671 347.356216 L877.644663 319.999382 L857.748784 305.081571 L868.937142 290.159661 L888.833021 305.077473 L909.345013 277.720640 L915.567597 321.237753 L923.026502 311.289814 L937.640355 343.615495 L942.302172 337.398033 Z" fill="#888" fill-opacity="0.18" stroke="#000" stroke-width="1"/>
  <path d="M520.873980 557.234657 L486.883964 579.088884 L485.518570 571.438716 L457.921766 593.730661 L455.737136 581.490393 L430.598041 617.552640 L424.590307 583.891902 L400.109771 588.261163 L396.832825 569.900761 L421.313362 565.531500 L415.305628 531.870762 L451.367875 557.009857 L449.183244 544.769588 L482.787782 556.138381 L481.422388 548.488213 Z" fill="#888" fill-opacity="0.18" stroke="#000" stroke-width="1"/>
  <path d="M558.074844 467.165087 L560.634093 426.836702 L567.603684 430.273875 L566.019276 394.833728 L577.170622 400.333205 L563.040949 358.706146 L593.707152 373.829708 L604.706107 351.527015 L621.433126 359.776231 L610.434172 382.078924 L641.100374 397.202486 L599.473315 411.332159 L610.624662 416.831637 L581.542867 437.148221 L588.512459 440.585395 Z" fill="#888" fill-opacity="0.18" stroke="#000" stroke-width="1"/>
  <path d="M442.376762 374.844118 L425.457876 411.541253 L420.194988 405.823615 L408.902790 439.453969 L400.482170 430.305748 L398.663170 474.227849 L375.506465 449.070243 L357.210024 465.911484 L344.579094 452.189153 L362.875534 435.347913 L339.718829 410.190307 L383.640930 412.009308 L375.220310 402.861087 L409.669213 394.388340 L404.406326 388.670702 Z" fill="#888" fill-opacity="0.18" stroke="#000" stroke-width="1"/>
  <path d="M256.273635 434.307981 L225.994132 407.548308 L232.983978 404.152514 L204.023141 383.663876 L215.206895 378.230605 L173.664334 363.854396 L204.419657 348.912903 L193.553117 326.545395 L210.328748 318.395490 L221.195288 340.762998 L251.950611 325.821504 L237.574403 367.364065 L248.758156 361.930794 L246.963671 397.360926 L253.953517 393.965132 Z" fill="#888" fill-opacity="0.18" stroke="#000" stroke-width="1"/>
  <path d="M264.636168 619.771620 L292.713465 648.833517 L285.477825 651.668104 L312.734580 674.374572 L301.157557 678.909911 L341.438464 696.514123 L309.601649 708.986305 L318.672327 732.140353 L301.306791 738.943361 L292.236113 715.789314 L260.399298 728.261496 L278.003510 687.980589 L266.426486 692.515929 L271.006546 657.337278 L263.770906 660.171865 Z" fill="#888" fill-opacity="0.18" stroke="#000" stroke-width="1"/>
  <path d="M855.175721 695.739324 L895.348890 700.103377 L891.602818 706.911924 L927.078364 706.917410 L921.084649 717.811084 L963.303124 705.561186 L946.820407 735.518792 L968.607757 747.506223 L959.617183 763.846735 L937.829834 751.859304 L921.347116 781.816910 L909.097218 739.598434 L903.103502 750.492109 L884.110674 720.529017 L880.364602 727.337564 Z" fill="#888" fill-opacity="0.18" stroke="#000" stroke-width="1"/>
  <path d="M268.736981 816.935555 L292.812936 784.481328 L296.793276 791.155627 L314.733724 760.550812 L321.102267 771.229690 L331.878104 728.611137 L349.391598 757.978052 L370.749354 745.240966 L380.302169 761.259283 L358.944413 773.996369 L376.457906 803.363283 L333.839353 792.587446 L340.207897 803.266324 L304.753955 804.504225 L308.734294 811.178523 Z" fill="#888" fill-opacity="0.18" stroke="#000" stroke-width="1"/>
  <path d="M567.639476 699.979566 L583.905844 662.988571 L589.269159 668.612113 L599.964031 634.787061 L608.545336 643.784728 L609.586241 599.837302 L633.184827 624.580884 L651.180159 607.418276 L664.052116 620.914775 L646.056783 638.077383 L669.655370 662.820965 L625.707944 661.780060 L634.289248 670.777726 L599.995789 679.859195 L605.359104 685.482737 Z" fill="#888" fill-opacity="0.18" stroke="#000" stroke-width="1"/>
  <path d="M399.876594 342.110552 L390.513237 302.800808 L398.183854 304.046199 L386.290061 270.623870 L398.563049 272.616496 L372.862145 236.952463 L406.612860 242.432184 L410.598111 217.886209 L429.007592 220.875148 L425.022341 245.421122 L458.773056 250.900843 L423.109023 276.601747 L435.382011 278.594373 L413.525089 306.536981 L421.195706 307.782372 Z" fill="#888" fill-opacity="0.18" stroke="#000" stroke-width="1"/>
  <path d="M167.961417 864.182831 L127.603323 866.220643 L130.226647 858.905758 L95.195796 864.505207 L99.393115 852.801391 L59.640279 871.567632 L71.182907 839.382140 L47.775276 830.987502 L54.071255 813.431779 L77.478885 821.826417 L89.021512 789.640925 L107.787753 829.393761 L111.985072 817.689946 L135.473296 844.275989 L138.096621 836.961105 Z" fill="#888" fill-opacity="0.18" stroke="#000" stroke-width="1"/>
  <path d="M638.355855 403.633710 L644.171269 443.622576 L636.642519 441.697142 L645.504031 476.048095 L633.458032 472.967400 L655.871292 510.784135 L622.744795 502.312224 L616.583405 526.404223 L598.514406 521.783180 L604.675796 497.691182 L571.549298 489.219271 L609.366034 466.806010 L597.320034 463.725315 L621.585020 437.846273 L614.056271 435.920839 Z" fill="#888" fill-opacity="0.18" stroke="#000" stroke-width="1"/>
  <path d="M163.028417 874.991674 L139.935842 908.152818 L135.757279 901.600797 L118.742034 932.729494 L112.056333 922.246261 L102.562501 965.168596 L84.176824 936.339704 L63.210357 949.711105 L53.181806 933.986254 L74.148273 920.614853 L55.762597 891.785961 L98.684932 901.279794 L91.999232 890.796560 L127.400154 888.496755 L123.221591 881.944734 Z" fill="#888" fill-opacity="0.18" stroke="#000" stroke-width="1"/>
  <path d="M517.600095 693.854553 L508.732296 654.430061 L516.386629 655.771908 L504.914485 622.202512 L517.161417 624.349468 L491.911474 588.364748 L525.590539 594.268875 L529.884450 569.775010 L548.254849 572.995443 L543.960938 597.489308 L577.640003 603.393436 L541.655283 628.643379 L553.902215 630.790334 L531.695294 658.455602 L539.349627 659.797449 Z" fill="#888" fill-opacity="0.18" stroke="#000" stroke-width="1"/>
  <path d="M534.789535 983.910536 L499.176555 964.814879 L505.200413 959.905449 L472.310206 946.610764 L481.948378 938.755676 L438.215227 934.297965 L464.720201 912.696473 L449.010025 893.420128 L463.467283 881.637496 L479.177459 900.913841 L505.682434 879.312348 L501.224723 923.045500 L510.862895 915.190411 L517.248129 950.086589 L523.271986 945.177159 Z" fill="#888" fill-opacity="0.18" stroke="#000" stroke-width="1"/>
  <path d="M309.257371 48.783396 L345.030001 67.578272 L339.047728 72.538290 L372.048799 85.555344 L362.477161 93.491372 L406.246324 97.580395 L379.924322 119.404472 L395.796378 138.547746 L381.438922 150.451788 L365.566866 131.308514 L339.244864 153.132591 L343.333887 109.363428 L333.762250 117.299456 L327.083181 82.458325 L321.100908 87.418342 Z" fill="#888" fill-opacity="0.18" stroke="#000" stroke-width="1"/>
  <path d="M354.709367 562.746008 L380.794111 593.608842 L373.386157 595.956516 L399.074353 620.423452 L387.221626 624.179731 L426.244140 644.420853 L393.649140 654.750619 L401.161697 678.456074 L383.382605 684.090492 L375.870049 660.385037 L343.275048 670.714802 L363.516171 631.692288 L351.663443 635.448566 L358.570247 600.651864 L351.162293 602.999538 Z" fill="#888" fill-opacity="0.18" stroke="#000" stroke-width="1"/>
  <path d="M361.649706 531.764108 L323.175239 519.409198 L328.214162 513.493235 L293.464680 506.352657 L301.526958 496.887117 L257.707413 500.395271 L279.878678 474.365036 L260.947598 458.240480 L273.041016 444.042170 L291.972096 460.166727 L314.143361 434.136492 L317.651515 477.956037 L325.713793 468.490497 L338.292010 501.661310 L343.330934 495.745348 Z" fill="#888" fill-opacity="0.18" stroke="#000" stroke-width="1"/>
  <path d="M618.748438 683.399782 L657.724147 672.731016 L656.735192 680.438891 L689.742392 667.437386 L688.160064 679.769986 L722.947383 652.894307 L718.595981 686.808956 L743.261181 689.973612 L740.887688 708.472512 L716.222489 705.307856 L711.871087 739.222505 L684.995408 704.435185 L683.413080 716.767785 L654.757282 695.854641 L653.768327 703.562515 Z" fill="#888" fill-opacity="0.18" stroke="#000" stroke-width="1"/>
  <path d="M688.136410 545.539735 L673.911112 507.716867 L681.677397 507.989216 L665.680963 476.324907 L678.107020 476.760664 L648.131272 444.606128 L682.302928 445.804461 L683.174444 420.952347 L701.813529 421.605984 L700.942014 446.458098 L735.113670 447.656431 L702.959134 477.632180 L715.385191 478.067937 L697.209969 508.533913 L704.976254 508.806261 Z" fill="#888" fill-opacity="0.18" stroke="#000" stroke-width="1"/>
  <path d="M980.696645 757.353065 L1008.617511 786.565284 L1001.366757 789.360983 L1028.501213 812.213459 L1016.900007 816.686578 L1057.085821 834.506795 L1025.182504 846.807873 L1034.128743 870.010285 L1016.726934 876.719964 L1007.780695 853.517552 L975.877379 865.818630 L993.697595 825.632817 L982.096389 830.105936 L986.865249 794.952382 L979.614496 797.748082 Z" fill="#888" fill-opacity="0.18" stroke="#000" stroke-width="1"/>
  <path d="M896.149546 777.494911 L859.809547 795.167855 L859.360208 787.409798 L829.316523 806.274882 L828.597580 793.861989 L799.362706 826.691577 L797.385613 792.556123 L772.559828 793.994009 L771.481414 775.374670 L796.307199 773.936785 L794.330106 739.801331 L827.159694 769.036205 L826.440752 756.623312 L858.461529 771.893682 L858.012190 764.135624 Z" fill="#888" fill-opacity="0.18" stroke="#000" stroke-width="1"/>
  <path d="M408.237547 963.379682 L388.422912 998.597698 L383.636772 992.475425 L369.677184 1025.088985 L362.019361 1015.293347 L356.674824 1058.926999 L335.615810 1031.988995 L316.024535 1047.304641 L304.537800 1032.611184 L324.129076 1017.295538 L303.070062 990.357534 L346.703715 995.702071 L339.045892 985.906433 L374.064493 980.230877 L369.278354 974.108604 Z" fill="#888" fill-opacity="0.18" stroke="#000" stroke-width="1"/>
  <path d="M956.760595 524.020841 L925.808251 549.999310 L923.486063 542.583327 L898.930943 568.187242 L895.215442 556.321669 L874.840261 595.274354 L864.622634 562.644027 L840.891487 570.075029 L835.318236 552.276669 L859.049382 544.845667 L848.831755 512.215341 L887.784441 532.590522 L884.068940 520.724949 L918.841687 527.751360 L916.519499 520.335377 Z" fill="#888" fill-opacity="0.18" stroke="#000" stroke-width="1"/>
  <path d="M478.825753 291.240974 L461.936205 254.530326 L469.702115 254.247466 L451.485673 223.806118 L463.911129 223.353543 L431.716050 193.421343 L465.886053 192.176759 L464.980902 167.325847 L483.619085 166.646984 L484.524237 191.497895 L518.694241 190.253311 L488.762041 222.448391 L501.187497 221.995815 L485.233935 253.681746 L492.999845 253.398886 Z" fill="#888" fill-opacity="0.18" stroke="#000" stroke-width="1"/>
  <path d="M738.734987 93.874261 L777.149581 106.414095 L772.082259 112.305751 L806.796992 119.613396 L798.689277 129.040046 L842.525190 125.742709 L820.228973 151.665997 L839.082273 167.881427 L826.920700 182.021402 L808.067400 165.805972 L785.771183 191.729259 L782.473846 147.893346 L774.366131 157.319996 L761.947615 124.089064 L756.880292 129.980720 Z" fill="#888" fill-opacity="0.18" stroke="#000" stroke-width="1"/>
  <path d="M665.333655 526.568978 L634.485019 552.670512 L632.133314 545.263836 L607.680359 570.965342 L603.917632 559.114660 L583.697746 598.148182 L573.350246 565.558807 L549.648882 573.084262 L544.004791 555.308239 L567.706155 547.782784 L557.358655 515.193409 L596.392178 535.413296 L592.629451 523.562614 L627.429905 530.450484 L625.078201 523.043807 Z" fill="#888" fill-opacity="0.18" stroke="#000" stroke-width="1"/>
  <path d="M259.296473 321.317717 L220.040745 311.730417 L224.646163 305.471064 L189.476834 300.819969 L196.845502 290.805005 L153.386422 297.420745 L173.650259 269.879594 L153.620331 255.142257 L164.673334 240.119811 L184.703262 254.857147 L204.967100 227.315996 L211.582839 270.775077 L218.951507 260.760113 L233.856998 292.952359 L238.462416 286.693007 Z" fill="#888" fill-opacity="0.18" stroke="#000" stroke-width="1"/>
  <path d="M156.582891 992.069544 L195.518272 981.254530 L194.558261 988.966063 L227.516418 975.840734 L225.980401 988.179187 L260.666578 961.173098 L256.442529 995.103845 L281.119436 998.175880 L278.815409 1016.683559 L254.138503 1013.611524 L249.914455 1047.542271 L222.908366 1012.856094 L221.372348 1025.194547 L192.638239 1004.389130 L191.678228 1012.100663 Z" fill="#888" fill-opacity="0.18" stroke="#000" stroke-width="1"/>
  <path d="M252.213939 306.445484 L246.921241 266.384083 L254.424204 268.407672 L246.012042 233.943925 L258.016783 237.181667 L236.099288 199.075459 L269.112325 207.979251 L275.587810 183.969770 L293.594921 188.826383 L287.119436 212.835865 L320.132473 221.739657 L282.026264 243.657152 L294.031005 246.894895 L269.430130 272.454851 L276.933093 274.478440 Z" fill="#888" fill-opacity="0.18" stroke="#000" stroke-width="1"/>
  <path d="M853.995144 815.171329 L894.228342 818.942039 L890.583156 825.805128 L926.054920 825.287073 L920.222624 836.268016 L962.255720 823.396400 L946.216906 853.593992 L968.178791 865.258585 L959.430346 881.729998 L937.468461 870.065406 L921.429646 900.262997 L908.558031 858.229901 L902.725735 869.210843 L883.292786 839.531307 L879.647601 846.394396 Z" fill="#888" fill-opacity="0.18" stroke="#000" stroke-width="1"/>
  <path d="M961.633697 556.557733 L956.245342 596.606380 L949.534662 592.687689 L948.623396 628.151530 L937.886307 621.881625 L949.054266 664.399108 L919.527273 647.156869 L906.987463 668.631046 L890.881830 659.226189 L903.421640 637.752012 L873.894647 620.509773 L916.412131 609.341814 L905.675042 603.071909 L936.113301 584.850308 L929.402621 580.931617 Z" fill="#888" fill-opacity="0.18" stroke="#000" stroke-width="1"/>
  <path d="M798.315210 914.237626 L768.054770 887.456398 L775.047032 884.065582 L746.100792 863.556326 L757.288412 858.131021 L715.756099 843.725234 L746.522054 828.805645 L735.671444 806.430405 L752.452874 798.292447 L763.303484 820.667687 L794.069439 805.748098 L779.663652 847.280411 L790.851272 841.855106 L789.031557 877.283951 L796.023820 873.893135 Z" fill="#888" fill-opacity="0.18" stroke="#000" stroke-width="1"/>
  <path d="M163.130540 51.946281 L196.988085 74.005181 L190.568048 78.383821 L222.206689 94.430964 L211.934629 101.436787 L255.129338 109.602378 L226.881173 128.868393 L240.892820 149.412512 L225.484730 159.921248 L211.473083 139.377128 L183.224918 158.643142 L191.390509 115.448434 L181.118449 122.454258 L177.727973 87.141101 L171.307936 91.519740 Z" fill="#888" fill-opacity="0.18" stroke="#000" stroke-width="1"/>
  <path d="M282.131230 822.916248 L322.371230 826.613657 L318.738554 833.483375 L354.209315 832.900700 L348.397033 843.892249 L390.406611 830.944080 L374.422836 861.170841 L396.405934 872.795405 L387.687511 889.282729 L365.704413 877.658165 L349.720638 907.884925 L336.772469 865.875347 L330.960187 876.866897 L311.473202 847.222812 L307.840525 854.092530 Z" fill="#888" fill-opacity="0.18" stroke="#000" stroke-width="1"/>
  <path d="M759.404359 774.462979 L756.737318 734.141579 L764.092229 736.650491 L757.947076 701.711237 L769.714934 705.725498 L750.330940 666.270201 L782.692550 677.309417 L790.721071 653.773701 L808.372859 659.795092 L800.344337 683.330808 L832.705948 694.370025 L793.250651 713.754019 L805.018509 717.768280 L778.802052 741.668317 L786.156964 744.177230 Z" fill="#888" fill-opacity="0.18" stroke="#000" stroke-width="1"/>
  <path d="M975.499890 576.625651 L978.242557 536.309323 L985.196441 539.778164 L983.773259 504.331177 L994.899474 509.881322 L980.959300 468.190421 L1011.556391 483.453321 L1022.656682 461.200890 L1039.346005 469.526108 L1028.245714 491.778539 L1058.842806 507.041438 L1017.151904 520.981613 L1028.278120 526.531758 L999.104210 546.715846 L1006.058095 550.184687 Z" fill="#888" fill-opacity="0.18" stroke="#000" stroke-width="1"/>
  <path d="M792.577814 250.742504 L828.963426 233.163662 L829.392687 240.922856 L859.485091 222.135584 L860.171909 234.550295 L889.491643 201.796472 L891.380392 235.936928 L916.209815 234.563292 L917.240041 253.185360 L892.410619 254.558995 L894.299368 288.699451 L861.545545 259.379718 L862.232363 271.794429 L830.251210 256.441245 L830.680471 264.200440 Z" fill="#888" fill-opacity="0.18" stroke="#000" stroke-width="1"/>
  <path d="M778.292022 55.832818 L747.861762 82.420930 L745.392737 75.052532 L721.351000 101.139105 L717.400561 89.349668 L697.803067 128.699357 L686.939360 96.278407 L663.360488 104.179284 L657.434829 86.495130 L681.013702 78.594252 L670.149995 46.173302 L709.499683 65.770796 L705.549244 53.981359 L740.454689 60.315737 L737.985664 52.947339 Z" fill="#888" fill-opacity="0.18" stroke="#000" stroke-width="1"/>
  <path d="M291.369245 860.376812 L250.985289 858.939934 L254.227335 851.877463 L218.844948 854.446716 L224.032222 843.146762 L182.814152 858.428464 L197.079154 827.353590 L174.479245 816.979042 L182.260155 800.029111 L204.860064 810.403658 L219.125066 779.328783 L234.406769 820.546853 L239.594042 809.246899 L260.711427 837.752520 L263.953473 830.690048 Z" fill="#888" fill-opacity="0.18" stroke="#000" stroke-width="1"/>
  <path d="M910.174681 193.326116 L889.150636 158.816436 L896.831648 157.636848 L875.215072 129.507895 L887.504690 127.620555 L852.062293 101.614859 L885.858744 96.424673 L882.084063 71.845436 L900.518491 69.014426 L904.293171 93.593663 L938.089622 88.403476 L912.083927 123.845874 L924.373546 121.958533 L912.193671 155.277673 L919.874683 154.098085 Z" fill="#888" fill-opacity="0.18" stroke="#000" stroke-width="1"/>
</svg>
