<?xml version="1.0" encoding="UTF-8"?>
<svg xmlns="http://www.w3.org/2000/svg" width="1560" height="1000" viewBox="0 0 1560 1000">
<rect x="0" y="0" width="1560" height="1000" fill="white"/>
<text x="12" y="24" font-family="sans-serif" font-size="16" fill="#000">Warm-start comparison (N=3) — shared world scale</text>
<rect x="1.0" y="41.0" width="518.0" height="478.0" fill="none" stroke="#ddd"/>
<text x="12.0" y="62.0" font-family="sans-serif" font-size="14" fill="#000">grid0</text>
<rect x="18.0" y="76.0" width="484.0" height="428.0" fill="none" stroke="#f2f2f2"/>
<rect x="131.43" y="170.03" width="239.48" height="239.48" fill="none" stroke="#888" stroke-width="1.0"/>
<polyline fill="none" stroke="#000" stroke-width="1.1" points="173.85,170.03 185.82,198.75 179.84,198.75 193.00,222.69 183.43,222.69 207.37,246.63 181.04,246.63 181.04,265.78 166.67,265.78 166.67,246.63 140.34,246.63 164.28,222.69 154.70,222.69 167.87,198.75 161.89,198.75 173.85,170.03"/>
<circle cx="173.85" cy="246.63" r="2.2" fill="#000"/>
<polyline fill="none" stroke="#000" stroke-width="1.1" points="328.49,192.15 340.46,220.88 334.47,220.88 347.64,244.81 338.07,244.81 362.00,268.75 335.67,268.75 335.67,287.90 321.31,287.90 321.31,268.75 294.98,268.75 318.92,244.81 309.34,244.81 322.51,220.88 316.52,220.88 328.49,192.15"/>
<circle cx="328.49" cy="268.75" r="2.2" fill="#000"/>
<polyline fill="none" stroke="#000" stroke-width="1.1" points="232.19,313.76 244.16,342.48 238.18,342.48 251.34,366.42 241.77,366.42 265.71,390.36 239.37,390.36 239.37,409.51 225.01,409.51 225.01,390.36 198.68,390.36 222.62,366.42 213.04,366.42 226.21,342.48 220.22,342.48 232.19,313.76"/>
<circle cx="232.19" cy="390.36" r="2.2" fill="#000"/>
<rect x="521.0" y="41.0" width="518.0" height="478.0" fill="none" stroke="#ddd"/>
<text x="532.0" y="62.0" font-family="sans-serif" font-size="14" fill="#000">alt45</text>
<rect x="538.0" y="76.0" width="484.0" height="428.0" fill="none" stroke="#f2f2f2"/>
<rect x="638.49" y="161.44" width="267.03" height="267.03" fill="none" stroke="#888" stroke-width="1.0"/>
<polyline fill="none" stroke="#000" stroke-width="1.1" points="638.49,168.52 667.27,180.37 663.04,184.60 689.27,192.22 682.50,198.99 716.36,198.99 697.74,217.60 711.28,231.15 701.12,241.30 687.58,227.76 668.96,246.38 668.96,212.53 662.19,219.30 654.57,193.06 650.34,197.29 638.49,168.52"/>
<circle cx="692.66" cy="222.68" r="2.2" fill="#000"/>
<polyline fill="none" stroke="#000" stroke-width="1.1" points="905.53,304.91 876.75,293.06 880.98,288.83 854.75,281.21 861.52,274.44 827.67,274.44 846.28,255.82 832.74,242.28 842.90,232.12 856.44,245.66 875.06,227.05 875.06,260.90 881.83,254.13 889.45,280.36 893.68,276.13 905.53,304.91"/>
<circle cx="851.36" cy="250.74" r="2.2" fill="#000"/>
<polyline fill="none" stroke="#000" stroke-width="1.1" points="803.09,421.40 774.31,409.55 778.54,405.32 752.31,397.70 759.08,390.93 725.23,390.93 743.84,372.31 730.30,358.77 740.46,348.61 754.00,362.16 772.62,343.54 772.62,377.39 779.39,370.62 787.01,396.85 791.24,392.62 803.09,421.40"/>
<circle cx="748.92" cy="367.23" r="2.2" fill="#000"/>
<rect x="1041.0" y="41.0" width="518.0" height="478.0" fill="none" stroke="#ddd"/>
<text x="1052.0" y="62.0" font-family="sans-serif" font-size="14" fill="#000">circle</text>
<rect x="1058.0" y="76.0" width="484.0" height="428.0" fill="none" stroke="#f2f2f2"/>
<rect x="1169.47" y="164.01" width="250.86" height="250.86" fill="none" stroke="#888" stroke-width="1.0"/>
<polyline fill="none" stroke="#000" stroke-width="1.1" points="1363.94,241.57 1375.91,270.29 1369.92,270.29 1383.09,294.23 1373.52,294.23 1397.45,318.17 1371.12,318.17 1371.12,337.32 1356.76,337.32 1356.76,318.17 1330.43,318.17 1354.37,294.23 1344.79,294.23 1357.96,270.29 1351.97,270.29 1363.94,241.57"/>
<circle cx="1363.94" cy="318.17" r="2.2" fill="#000"/>
<polyline fill="none" stroke="#000" stroke-width="1.1" points="1225.87,164.01 1237.84,192.74 1231.86,192.74 1245.02,216.67 1235.45,216.67 1259.38,240.61 1233.05,240.61 1233.05,259.76 1218.69,259.76 1218.69,240.61 1192.36,240.61 1216.30,216.67 1206.72,216.67 1219.89,192.74 1213.90,192.74 1225.87,164.01"/>
<circle cx="1225.87" cy="240.61" r="2.2" fill="#000"/>
<polyline fill="none" stroke="#000" stroke-width="1.1" points="1225.87,319.13 1237.84,347.85 1231.86,347.85 1245.02,371.79 1235.45,371.79 1259.38,395.73 1233.05,395.73 1233.05,414.88 1218.69,414.88 1218.69,395.73 1192.36,395.73 1216.30,371.79 1206.72,371.79 1219.89,347.85 1213.90,347.85 1225.87,319.13"/>
<circle cx="1225.87" cy="395.73" r="2.2" fill="#000"/>
<rect x="1.0" y="521.0" width="518.0" height="478.0" fill="none" stroke="#ddd"/>
<text x="12.0" y="542.0" font-family="sans-serif" font-size="14" fill="#000">spiral</text>
<rect x="18.0" y="556.0" width="484.0" height="428.0" fill="none" stroke="#f2f2f2"/>
<rect x="80.46" y="597.42" width="345.16" height="345.16" fill="none" stroke="#888" stroke-width="1.0"/>
<polyline fill="none" stroke="#000" stroke-width="1.1" points="294.41,649.29 306.37,678.02 300.39,678.02 313.56,701.96 303.98,701.96 327.92,725.89 301.59,725.89 301.59,745.04 287.22,745.04 287.22,725.89 260.89,725.89 284.83,701.96 275.26,701.96 288.42,678.02 282.44,678.02 294.41,649.29"/>
<circle cx="294.41" cy="725.89" r="2.2" fill="#000"/>
<polyline fill="none" stroke="#000" stroke-width="1.1" points="125.87,675.28 137.71,646.51 141.95,650.74 149.56,624.50 156.33,631.27 156.33,597.42 174.95,616.04 188.49,602.50 198.65,612.65 185.11,626.19 203.73,644.81 169.87,644.81 176.64,651.58 150.41,659.20 154.64,663.43 125.87,675.28"/>
<circle cx="180.03" cy="621.12" r="2.2" fill="#000"/>
<polyline fill="none" stroke="#000" stroke-width="1.1" points="380.22,909.07 351.49,921.04 351.49,915.05 327.56,928.22 327.56,918.64 303.62,942.58 303.62,916.25 284.47,916.25 284.47,901.89 303.62,901.89 303.62,875.56 327.56,899.49 327.56,889.92 351.49,903.08 351.49,897.10 380.22,909.07"/>
<circle cx="303.62" cy="909.07" r="2.2" fill="#000"/>
<rect x="521.0" y="521.0" width="518.0" height="478.0" fill="none" stroke="#ddd"/>
<text x="532.0" y="542.0" font-family="sans-serif" font-size="14" fill="#000">hex</text>
<rect x="538.0" y="556.0" width="484.0" height="428.0" fill="none" stroke="#f2f2f2"/>
<rect x="659.82" y="654.69" width="230.10" height="230.10" fill="none" stroke="#888" stroke-width="1.0"/>
<polyline fill="none" stroke="#000" stroke-width="1.1" points="697.10,654.69 709.07,683.41 703.08,683.41 716.25,707.35 706.67,707.35 730.61,731.29 704.28,731.29 704.28,750.44 689.92,750.44 689.92,731.29 663.58,731.29 687.52,707.35 677.95,707.35 691.11,683.41 685.13,683.41 697.10,654.69"/>
<circle cx="697.10" cy="731.29" r="2.2" fill="#000"/>
<polyline fill="none" stroke="#000" stroke-width="1.1" points="852.64,807.96 840.68,779.24 846.66,779.24 833.49,755.30 843.07,755.30 819.13,731.36 845.46,731.36 845.46,712.21 859.83,712.21 859.83,731.36 886.16,731.36 862.22,755.30 871.79,755.30 858.63,779.24 864.61,779.24 852.64,807.96"/>
<circle cx="852.64" cy="731.36" r="2.2" fill="#000"/>
<polyline fill="none" stroke="#000" stroke-width="1.1" points="774.98,789.03 786.95,817.76 780.96,817.76 794.13,841.70 784.55,841.70 808.49,865.63 782.16,865.63 782.16,884.78 767.80,884.78 767.80,865.63 741.46,865.63 765.40,841.70 755.83,841.70 768.99,817.76 763.01,817.76 774.98,789.03"/>
<circle cx="774.98" cy="865.63" r="2.2" fill="#000"/>
<rect x="1041.0" y="521.0" width="518.0" height="478.0" fill="none" stroke="#ddd"/>
<text x="1052.0" y="542.0" font-family="sans-serif" font-size="14" fill="#000">halton</text>
<rect x="1058.0" y="556.0" width="484.0" height="428.0" fill="none" stroke="#f2f2f2"/>
<rect x="1131.00" y="607.68" width="338.01" height="338.01" fill="none" stroke="#888" stroke-width="1.0"/>
<polyline fill="none" stroke="#000" stroke-width="1.1" points="1276.47,706.35 1288.44,735.07 1282.45,735.07 1295.62,759.01 1286.04,759.01 1309.98,782.95 1283.65,782.95 1283.65,802.10 1269.29,802.10 1269.29,782.95 1242.96,782.95 1266.89,759.01 1257.32,759.01 1270.49,735.07 1264.50,735.07 1276.47,706.35"/>
<circle cx="1276.47" cy="782.95" r="2.2" fill="#000"/>
<polyline fill="none" stroke="#000" stroke-width="1.1" points="1131.00,711.72 1142.84,682.94 1147.08,687.17 1154.69,660.94 1161.46,667.71 1161.46,633.85 1180.08,652.47 1193.62,638.93 1203.78,649.09 1190.24,662.63 1208.86,681.25 1175.00,681.25 1181.77,688.02 1155.54,695.64 1159.77,699.87 1131.00,711.72"/>
<circle cx="1185.16" cy="657.55" r="2.2" fill="#000"/>
<polyline fill="none" stroke="#000" stroke-width="1.1" points="1469.00,886.00 1440.28,897.97 1440.28,891.98 1416.34,905.15 1416.34,895.57 1392.40,919.51 1392.40,893.18 1373.25,893.18 1373.25,878.82 1392.40,878.82 1392.40,852.49 1416.34,876.42 1416.34,866.85 1440.28,880.01 1440.28,874.03 1469.00,886.00"/>
<circle cx="1392.40" cy="886.00" r="2.2" fill="#000"/>
</svg>
