<?xml version="1.0" encoding="UTF-8"?>
<svg xmlns="http://www.w3.org/2000/svg" width="1560" height="1000" viewBox="0 0 1560 1000">
<rect x="0" y="0" width="1560" height="1000" fill="white"/>
<text x="12" y="24" font-family="sans-serif" font-size="16" fill="#000">Warm-start comparison (N=7) — shared world scale</text>
<rect x="1.0" y="41.0" width="518.0" height="478.0" fill="none" stroke="#ddd"/>
<text x="12.0" y="62.0" font-family="sans-serif" font-size="14" fill="#000">grid0</text>
<rect x="18.0" y="76.0" width="484.0" height="428.0" fill="none" stroke="#f2f2f2"/>
<rect x="130.12" y="142.92" width="256.12" height="256.12" fill="none" stroke="#888" stroke-width="1.0"/>
<polyline fill="none" stroke="#000" stroke-width="1.1" points="161.82,146.59 169.75,165.61 165.78,165.61 174.50,181.46 168.16,181.46 184.01,197.30 166.58,197.30 166.58,209.98 157.07,209.98 157.07,197.30 139.63,197.30 155.48,181.46 149.14,181.46 157.86,165.61 153.90,165.61 161.82,146.59"/>
<circle cx="161.82" cy="197.30" r="2.2" fill="#000"/>
<polyline fill="none" stroke="#000" stroke-width="1.1" points="264.46,142.92 272.38,161.94 268.42,161.94 277.14,177.79 270.80,177.79 286.65,193.64 269.21,193.64 269.21,206.32 259.70,206.32 259.70,193.64 242.27,193.64 258.12,177.79 251.78,177.79 260.49,161.94 256.53,161.94 264.46,142.92"/>
<circle cx="264.46" cy="193.64" r="2.2" fill="#000"/>
<polyline fill="none" stroke="#000" stroke-width="1.1" points="354.54,192.24 362.47,211.25 358.51,211.25 367.22,227.10 360.88,227.10 376.73,242.95 359.30,242.95 359.30,255.63 349.79,255.63 349.79,242.95 332.36,242.95 348.20,227.10 341.86,227.10 350.58,211.25 346.62,211.25 354.54,192.24"/>
<circle cx="354.54" cy="242.95" r="2.2" fill="#000"/>
<polyline fill="none" stroke="#000" stroke-width="1.1" points="161.82,249.29 169.75,268.31 165.78,268.31 174.50,284.16 168.16,284.16 184.01,300.01 166.58,300.01 166.58,312.68 157.07,312.68 157.07,300.01 139.63,300.01 155.48,284.16 149.14,284.16 157.86,268.31 153.90,268.31 161.82,249.29"/>
<circle cx="161.82" cy="300.01" r="2.2" fill="#000"/>
<polyline fill="none" stroke="#000" stroke-width="1.1" points="266.79,245.60 274.72,264.62 270.76,264.62 279.47,280.46 273.13,280.46 288.98,296.31 271.55,296.31 271.55,308.99 262.04,308.99 262.04,296.31 244.61,296.31 260.45,280.46 254.12,280.46 262.83,264.62 258.87,264.62 266.79,245.60"/>
<circle cx="266.79" cy="296.31" r="2.2" fill="#000"/>
<polyline fill="none" stroke="#000" stroke-width="1.1" points="354.54,304.20 362.47,323.22 358.51,323.22 367.22,339.07 360.88,339.07 376.73,354.92 359.30,354.92 359.30,367.60 349.79,367.60 349.79,354.92 332.36,354.92 348.20,339.07 341.86,339.07 350.58,323.22 346.62,323.22 354.54,304.20"/>
<circle cx="354.54" cy="354.92" r="2.2" fill="#000"/>
<polyline fill="none" stroke="#000" stroke-width="1.1" points="217.41,335.64 225.33,354.66 221.37,354.66 230.09,370.51 223.75,370.51 239.60,386.36 222.17,386.36 222.17,399.04 212.66,399.04 212.66,386.36 195.22,386.36 211.07,370.51 204.73,370.51 213.45,354.66 209.49,354.66 217.41,335.64"/>
<circle cx="217.41" cy="386.36" r="2.2" fill="#000"/>
<rect x="521.0" y="41.0" width="518.0" height="478.0" fill="none" stroke="#ddd"/>
<text x="532.0" y="62.0" font-family="sans-serif" font-size="14" fill="#000">alt45</text>
<rect x="538.0" y="76.0" width="484.0" height="428.0" fill="none" stroke="#f2f2f2"/>
<rect x="649.20" y="159.72" width="257.40" height="257.40" fill="none" stroke="#888" stroke-width="1.0"/>
<polyline fill="none" stroke="#000" stroke-width="1.1" points="649.20,205.15 668.25,212.99 665.45,215.79 682.82,220.84 678.34,225.32 700.75,225.32 688.43,237.65 697.39,246.61 690.67,253.34 681.70,244.37 669.37,256.70 669.37,234.29 664.89,238.77 659.85,221.40 657.05,224.20 649.20,205.15"/>
<circle cx="685.06" cy="241.01" r="2.2" fill="#000"/>
<polyline fill="none" stroke="#000" stroke-width="1.1" points="812.22,221.60 793.17,213.75 795.97,210.95 778.60,205.91 783.08,201.42 760.67,201.42 773.00,189.10 764.03,180.13 770.75,173.41 779.72,182.37 792.05,170.04 792.05,192.46 796.53,187.98 801.57,205.35 804.37,202.54 812.22,221.60"/>
<circle cx="776.36" cy="185.73" r="2.2" fill="#000"/>
<polyline fill="none" stroke="#000" stroke-width="1.1" points="834.03,203.50 853.08,211.34 850.28,214.14 867.65,219.19 863.17,223.67 885.58,223.67 873.26,236.00 882.22,244.96 875.50,251.69 866.53,242.72 854.20,255.05 854.20,232.63 849.72,237.12 844.68,219.75 841.88,222.55 834.03,203.50"/>
<circle cx="869.89" cy="239.36" r="2.2" fill="#000"/>
<polyline fill="none" stroke="#000" stroke-width="1.1" points="722.52,379.74 703.47,371.90 706.27,369.10 688.90,364.05 693.39,359.57 670.97,359.57 683.30,347.24 674.33,338.28 681.06,331.55 690.02,340.52 702.35,328.19 702.35,350.61 706.83,346.12 711.88,363.49 714.68,360.69 722.52,379.74"/>
<circle cx="686.66" cy="343.88" r="2.2" fill="#000"/>
<polyline fill="none" stroke="#000" stroke-width="1.1" points="741.91,252.56 760.96,260.41 758.16,263.21 775.53,268.25 771.05,272.74 793.46,272.74 781.14,285.06 790.10,294.03 783.38,300.75 774.41,291.79 762.08,304.11 762.08,281.70 757.60,286.18 752.56,268.81 749.76,271.61 741.91,252.56"/>
<circle cx="777.77" cy="288.42" r="2.2" fill="#000"/>
<polyline fill="none" stroke="#000" stroke-width="1.1" points="906.60,377.92 887.55,370.07 890.35,367.27 872.98,362.23 877.46,357.75 855.05,357.75 867.38,345.42 858.41,336.45 865.13,329.73 874.10,338.69 886.43,326.37 886.43,348.78 890.91,344.30 895.95,361.67 898.75,358.87 906.60,377.92"/>
<circle cx="870.74" cy="342.06" r="2.2" fill="#000"/>
<polyline fill="none" stroke="#000" stroke-width="1.1" points="744.12,355.24 763.17,363.08 760.37,365.89 777.74,370.93 773.25,375.41 795.67,375.41 783.34,387.74 792.31,396.71 785.58,403.43 776.62,394.46 764.29,406.79 764.29,384.38 759.81,388.86 754.76,371.49 751.96,374.29 744.12,355.24"/>
<circle cx="779.98" cy="391.10" r="2.2" fill="#000"/>
<rect x="1041.0" y="41.0" width="518.0" height="478.0" fill="none" stroke="#ddd"/>
<text x="1052.0" y="62.0" font-family="sans-serif" font-size="14" fill="#000">circle</text>
<rect x="1058.0" y="76.0" width="484.0" height="428.0" fill="none" stroke="#f2f2f2"/>
<rect x="1156.35" y="148.49" width="278.24" height="278.24" fill="none" stroke="#888" stroke-width="1.0"/>
<polyline fill="none" stroke="#000" stroke-width="1.1" points="1402.12,255.91 1410.04,274.93 1406.08,274.93 1414.80,290.78 1408.46,290.78 1424.31,306.63 1406.87,306.63 1406.87,319.31 1397.36,319.31 1397.36,306.63 1379.93,306.63 1395.78,290.78 1389.44,290.78 1398.16,274.93 1394.19,274.93 1402.12,255.91"/>
<circle cx="1402.12" cy="306.63" r="2.2" fill="#000"/>
<polyline fill="none" stroke="#000" stroke-width="1.1" points="1377.74,156.15 1385.67,175.16 1381.71,175.16 1390.42,191.01 1384.08,191.01 1399.93,206.86 1382.50,206.86 1382.50,219.54 1372.99,219.54 1372.99,206.86 1355.56,206.86 1371.41,191.01 1365.07,191.01 1373.78,175.16 1369.82,175.16 1377.74,156.15"/>
<circle cx="1377.74" cy="206.86" r="2.2" fill="#000"/>
<polyline fill="none" stroke="#000" stroke-width="1.1" points="1275.21,148.49 1283.14,167.51 1279.17,167.51 1287.89,183.36 1281.55,183.36 1297.40,199.21 1279.97,199.21 1279.97,211.89 1270.46,211.89 1270.46,199.21 1253.02,199.21 1268.87,183.36 1262.53,183.36 1271.25,167.51 1267.29,167.51 1275.21,148.49"/>
<circle cx="1275.21" cy="199.21" r="2.2" fill="#000"/>
<polyline fill="none" stroke="#000" stroke-width="1.1" points="1188.82,204.03 1196.75,223.05 1192.79,223.05 1201.50,238.90 1195.16,238.90 1211.01,254.75 1193.58,254.75 1193.58,267.43 1184.07,267.43 1184.07,254.75 1166.64,254.75 1182.49,238.90 1176.15,238.90 1184.86,223.05 1180.90,223.05 1188.82,204.03"/>
<circle cx="1188.82" cy="254.75" r="2.2" fill="#000"/>
<polyline fill="none" stroke="#000" stroke-width="1.1" points="1188.82,307.79 1196.75,326.81 1192.79,326.81 1201.50,342.66 1195.16,342.66 1211.01,358.51 1193.58,358.51 1193.58,371.19 1184.07,371.19 1184.07,358.51 1166.64,358.51 1182.49,342.66 1176.15,342.66 1184.86,326.81 1180.90,326.81 1188.82,307.79"/>
<circle cx="1188.82" cy="358.51" r="2.2" fill="#000"/>
<polyline fill="none" stroke="#000" stroke-width="1.1" points="1275.21,363.34 1283.14,382.35 1279.17,382.35 1287.89,398.20 1281.55,398.20 1297.40,414.05 1279.97,414.05 1279.97,426.73 1270.46,426.73 1270.46,414.05 1253.02,414.05 1268.87,398.20 1262.53,398.20 1271.25,382.35 1267.29,382.35 1275.21,363.34"/>
<circle cx="1275.21" cy="414.05" r="2.2" fill="#000"/>
<polyline fill="none" stroke="#000" stroke-width="1.1" points="1377.74,355.68 1385.67,374.70 1381.71,374.70 1390.42,390.55 1384.08,390.55 1399.93,406.40 1382.50,406.40 1382.50,419.08 1372.99,419.08 1372.99,406.40 1355.56,406.40 1371.41,390.55 1365.07,390.55 1373.78,374.70 1369.82,374.70 1377.74,355.68"/>
<circle cx="1377.74" cy="406.40" r="2.2" fill="#000"/>
<rect x="1.0" y="521.0" width="518.0" height="478.0" fill="none" stroke="#ddd"/>
<text x="12.0" y="542.0" font-family="sans-serif" font-size="14" fill="#000">spiral</text>
<rect x="18.0" y="556.0" width="484.0" height="428.0" fill="none" stroke="#f2f2f2"/>
<rect x="79.31" y="589.31" width="361.38" height="361.38" fill="none" stroke="#888" stroke-width="1.0"/>
<polyline fill="none" stroke="#000" stroke-width="1.1" points="265.28,765.03 273.20,784.05 269.24,784.05 277.96,799.90 271.62,799.90 287.47,815.75 270.03,815.75 270.03,828.43 260.53,828.43 260.53,815.75 243.09,815.75 258.94,799.90 252.60,799.90 261.32,784.05 257.36,784.05 265.28,765.03"/>
<circle cx="265.28" cy="815.75" r="2.2" fill="#000"/>
<polyline fill="none" stroke="#000" stroke-width="1.1" points="153.69,782.24 161.53,763.18 164.34,765.99 169.38,748.62 173.86,753.10 173.86,730.68 186.19,743.01 195.16,734.05 201.88,740.77 192.91,749.74 205.24,762.06 182.83,762.06 187.31,766.55 169.94,771.59 172.74,774.39 153.69,782.24"/>
<circle cx="189.55" cy="746.37" r="2.2" fill="#000"/>
<polyline fill="none" stroke="#000" stroke-width="1.1" points="316.86,918.45 297.84,926.37 297.84,922.41 281.99,931.13 281.99,924.79 266.14,940.63 266.14,923.20 253.46,923.20 253.46,913.69 266.14,913.69 266.14,896.26 281.99,912.11 281.99,905.77 297.84,914.48 297.84,910.52 316.86,918.45"/>
<circle cx="266.14" cy="918.45" r="2.2" fill="#000"/>
<polyline fill="none" stroke="#000" stroke-width="1.1" points="303.45,663.64 322.50,671.49 319.70,674.29 337.07,679.33 332.59,683.81 355.00,683.81 342.68,696.14 351.64,705.11 344.92,711.83 335.95,702.87 323.62,715.19 323.62,692.78 319.14,697.26 314.10,679.89 311.30,682.69 303.45,663.64"/>
<circle cx="339.31" cy="699.50" r="2.2" fill="#000"/>
<polyline fill="none" stroke="#000" stroke-width="1.1" points="101.50,885.75 93.57,866.73 97.54,866.73 88.82,850.88 95.16,850.88 79.31,835.03 96.74,835.03 96.74,822.35 106.25,822.35 106.25,835.03 123.69,835.03 107.84,850.88 114.18,850.88 105.46,866.73 109.42,866.73 101.50,885.75"/>
<circle cx="101.50" cy="835.03" r="2.2" fill="#000"/>
<polyline fill="none" stroke="#000" stroke-width="1.1" points="440.69,866.17 432.84,885.22 430.04,882.42 425.00,899.79 420.52,895.31 420.52,917.72 408.19,905.40 399.22,914.36 392.50,907.64 401.47,898.67 389.14,886.34 411.55,886.34 407.07,881.86 424.44,876.82 421.64,874.02 440.69,866.17"/>
<circle cx="404.83" cy="902.03" r="2.2" fill="#000"/>
<polyline fill="none" stroke="#000" stroke-width="1.1" points="155.68,621.55 174.70,613.63 174.70,617.59 190.55,608.87 190.55,615.21 206.40,599.37 206.40,616.80 219.08,616.80 219.08,626.31 206.40,626.31 206.40,643.74 190.55,627.89 190.55,634.23 174.70,625.52 174.70,629.48 155.68,621.55"/>
<circle cx="206.40" cy="621.55" r="2.2" fill="#000"/>
<rect x="521.0" y="521.0" width="518.0" height="478.0" fill="none" stroke="#ddd"/>
<text x="532.0" y="542.0" font-family="sans-serif" font-size="14" fill="#000">hex</text>
<rect x="538.0" y="556.0" width="484.0" height="428.0" fill="none" stroke="#f2f2f2"/>
<rect x="627.62" y="617.72" width="301.13" height="301.13" fill="none" stroke="#888" stroke-width="1.0"/>
<polyline fill="none" stroke="#000" stroke-width="1.1" points="649.81,647.50 657.73,666.51 653.77,666.51 662.48,682.36 656.14,682.36 671.99,698.21 654.56,698.21 654.56,710.89 645.05,710.89 645.05,698.21 627.62,698.21 643.47,682.36 637.13,682.36 645.84,666.51 641.88,666.51 649.81,647.50"/>
<circle cx="649.81" cy="698.21" r="2.2" fill="#000"/>
<polyline fill="none" stroke="#000" stroke-width="1.1" points="752.51,748.93 744.58,729.91 748.55,729.91 739.83,714.06 746.17,714.06 730.32,698.21 747.75,698.21 747.75,685.53 757.26,685.53 757.26,698.21 774.70,698.21 758.85,714.06 765.19,714.06 756.47,729.91 760.43,729.91 752.51,748.93"/>
<circle cx="752.51" cy="698.21" r="2.2" fill="#000"/>
<polyline fill="none" stroke="#000" stroke-width="1.1" points="855.21,647.50 863.13,666.51 859.17,666.51 867.89,682.36 861.55,682.36 877.40,698.21 859.96,698.21 859.96,710.89 850.45,710.89 850.45,698.21 833.02,698.21 848.87,682.36 842.53,682.36 851.25,666.51 847.28,666.51 855.21,647.50"/>
<circle cx="855.21" cy="698.21" r="2.2" fill="#000"/>
<polyline fill="none" stroke="#000" stroke-width="1.1" points="701.16,838.03 693.23,819.01 697.19,819.01 688.48,803.16 694.82,803.16 678.97,787.31 696.40,787.31 696.40,774.63 705.91,774.63 705.91,787.31 723.34,787.31 707.50,803.16 713.84,803.16 705.12,819.01 709.08,819.01 701.16,838.03"/>
<circle cx="701.16" cy="787.31" r="2.2" fill="#000"/>
<polyline fill="none" stroke="#000" stroke-width="1.1" points="803.86,736.59 811.78,755.61 807.82,755.61 816.54,771.46 810.20,771.46 826.05,787.31 808.61,787.31 808.61,799.99 799.10,799.99 799.10,787.31 781.67,787.31 797.52,771.46 791.18,771.46 799.90,755.61 795.93,755.61 803.86,736.59"/>
<circle cx="803.86" cy="787.31" r="2.2" fill="#000"/>
<polyline fill="none" stroke="#000" stroke-width="1.1" points="906.56,838.03 898.64,819.01 902.60,819.01 893.88,803.16 900.22,803.16 884.37,787.31 901.81,787.31 901.81,774.63 911.32,774.63 911.32,787.31 928.75,787.31 912.90,803.16 919.24,803.16 910.52,819.01 914.48,819.01 906.56,838.03"/>
<circle cx="906.56" cy="787.31" r="2.2" fill="#000"/>
<polyline fill="none" stroke="#000" stroke-width="1.1" points="649.81,825.69 657.73,844.71 653.77,844.71 662.48,860.56 656.14,860.56 671.99,876.41 654.56,876.41 654.56,889.09 645.05,889.09 645.05,876.41 627.62,876.41 643.47,860.56 637.13,860.56 645.84,844.71 641.88,844.71 649.81,825.69"/>
<circle cx="649.81" cy="876.41" r="2.2" fill="#000"/>
<rect x="1041.0" y="521.0" width="518.0" height="478.0" fill="none" stroke="#ddd"/>
<text x="1052.0" y="542.0" font-family="sans-serif" font-size="14" fill="#000">halton</text>
<rect x="1058.0" y="556.0" width="484.0" height="428.0" fill="none" stroke="#f2f2f2"/>
<rect x="1153.57" y="629.59" width="280.49" height="280.49" fill="none" stroke="#888" stroke-width="1.0"/>
<polyline fill="none" stroke="#000" stroke-width="1.1" points="1325.13,725.55 1333.05,744.57 1329.09,744.57 1337.81,760.42 1331.47,760.42 1347.32,776.27 1329.88,776.27 1329.88,788.95 1320.37,788.95 1320.37,776.27 1302.94,776.27 1318.79,760.42 1312.45,760.42 1321.17,744.57 1317.20,744.57 1325.13,725.55"/>
<circle cx="1325.13" cy="776.27" r="2.2" fill="#000"/>
<polyline fill="none" stroke="#000" stroke-width="1.1" points="1207.31,723.44 1215.15,704.38 1217.96,707.19 1223.00,689.81 1227.48,694.30 1227.48,671.88 1239.81,684.21 1248.78,675.25 1255.50,681.97 1246.53,690.94 1258.86,703.26 1236.45,703.26 1240.93,707.75 1223.56,712.79 1226.36,715.59 1207.31,723.44"/>
<circle cx="1243.17" cy="687.57" r="2.2" fill="#000"/>
<polyline fill="none" stroke="#000" stroke-width="1.1" points="1434.05,863.60 1415.04,871.53 1415.04,867.56 1399.19,876.28 1399.19,869.94 1383.34,885.79 1383.34,868.36 1370.66,868.36 1370.66,858.85 1383.34,858.85 1383.34,841.41 1399.19,857.26 1399.19,850.92 1415.04,859.64 1415.04,855.68 1434.05,863.60"/>
<circle cx="1383.34" cy="863.60" r="2.2" fill="#000"/>
<polyline fill="none" stroke="#000" stroke-width="1.1" points="1153.57,739.23 1172.62,747.07 1169.82,749.87 1187.19,754.92 1182.70,759.40 1205.12,759.40 1192.79,771.73 1201.76,780.69 1195.03,787.42 1186.07,778.45 1173.74,790.78 1173.74,768.37 1169.26,772.85 1164.21,755.48 1161.41,758.28 1153.57,739.23"/>
<circle cx="1189.43" cy="775.09" r="2.2" fill="#000"/>
<polyline fill="none" stroke="#000" stroke-width="1.1" points="1343.70,717.27 1335.77,698.25 1339.74,698.25 1331.02,682.41 1337.36,682.41 1321.51,666.56 1338.94,666.56 1338.94,653.88 1348.45,653.88 1348.45,666.56 1365.89,666.56 1350.04,682.41 1356.38,682.41 1347.66,698.25 1351.62,698.25 1343.70,717.27"/>
<circle cx="1343.70" cy="666.56" r="2.2" fill="#000"/>
<polyline fill="none" stroke="#000" stroke-width="1.1" points="1292.45,816.92 1284.61,835.97 1281.81,833.17 1276.76,850.54 1272.28,846.06 1272.28,868.47 1259.95,856.15 1250.99,865.11 1244.26,858.39 1253.23,849.42 1240.90,837.09 1263.32,837.09 1258.83,832.61 1276.20,827.57 1273.40,824.77 1292.45,816.92"/>
<circle cx="1256.59" cy="852.78" r="2.2" fill="#000"/>
<polyline fill="none" stroke="#000" stroke-width="1.1" points="1369.69,734.85 1388.71,726.92 1388.71,730.88 1404.56,722.17 1404.56,728.51 1420.41,712.66 1420.41,730.09 1433.08,730.09 1433.08,739.60 1420.41,739.60 1420.41,757.04 1404.56,741.19 1404.56,747.53 1388.71,738.81 1388.71,742.77 1369.69,734.85"/>
<circle cx="1420.41" cy="734.85" r="2.2" fill="#000"/>
</svg>
