<svg xmlns="http://www.w3.org/2000/svg" width="1420" height="2400" viewBox="0 0 1420 2400">
<rect x="0" y="0" width="1420" height="2400" fill="white" />
<text x="40" y="30" font-family="monospace" font-size="16">After compactification (corner shove) (n=7)</text>
<g transform="translate(40.000 520.000) scale(85.067137888 -85.067137888) translate(4.616362739 4.648393410)">
<path d="M -2.392307722 -0.742299451 -2.267307722 -1.042299451 -2.329807722 -1.042299451 -2.192307722 -1.292299451 -2.292307722 -1.292299451 -2.042307722 -1.542299451 -2.317307722 -1.542299451 -2.317307722 -1.742299451 -2.467307722 -1.742299451 -2.467307722 -1.542299451 -2.742307722 -1.542299451 -2.492307722 -1.292299451 -2.592307722 -1.292299451 -2.454807722 -1.042299451 -2.517307722 -1.042299451 Z" fill="none" stroke="#222" stroke-width="0.01" />
<path d="M -2.826988063 -0.282620515 -2.701988063 -0.582620515 -2.764488063 -0.582620515 -2.626988063 -0.832620515 -2.726988063 -0.832620515 -2.476988063 -1.082620515 -2.751988063 -1.082620515 -2.751988063 -1.282620515 -2.901988063 -1.282620515 -2.901988063 -1.082620515 -3.176988063 -1.082620515 -2.926988063 -0.832620515 -3.026988063 -0.832620515 -2.889488063 -0.582620515 -2.951988063 -0.582620515 Z" fill="none" stroke="#222" stroke-width="0.01" />
<path d="M -1.953388996 -1.330867607 -1.828388996 -1.630867607 -1.890888996 -1.630867607 -1.753388996 -1.880867607 -1.853388996 -1.880867607 -1.603388996 -2.130867607 -1.878388996 -2.130867607 -1.878388996 -2.330867607 -2.028388996 -2.330867607 -2.028388996 -2.130867607 -2.303388996 -2.130867607 -2.053388996 -1.880867607 -2.153388996 -1.880867607 -2.015888996 -1.630867607 -2.078388996 -1.630867607 Z" fill="none" stroke="#222" stroke-width="0.01" />
<path d="M -2.960243302 -1.142804593 -2.835243302 -1.442804593 -2.897743302 -1.442804593 -2.760243302 -1.692804593 -2.860243302 -1.692804593 -2.610243302 -1.942804593 -2.885243302 -1.942804593 -2.885243302 -2.142804593 -3.035243302 -2.142804593 -3.035243302 -1.942804593 -3.310243302 -1.942804593 -3.060243302 -1.692804593 -3.160243302 -1.692804593 -3.022743302 -1.442804593 -3.085243302 -1.442804593 Z" fill="none" stroke="#222" stroke-width="0.01" />
<path d="M -1.457635894 -0.482636264 -1.332635894 -0.782636264 -1.395135894 -0.782636264 -1.257635894 -1.032636264 -1.357635894 -1.032636264 -1.107635894 -1.282636264 -1.382635894 -1.282636264 -1.382635894 -1.482636264 -1.532635894 -1.482636264 -1.532635894 -1.282636264 -1.807635894 -1.282636264 -1.557635894 -1.032636264 -1.657635894 -1.032636264 -1.520135894 -0.782636264 -1.582635894 -0.782636264 Z" fill="none" stroke="#222" stroke-width="0.01" />
<path d="M -1.957635894 -0.282636264 -1.832635894 -0.582636264 -1.895135894 -0.582636264 -1.757635894 -0.832636264 -1.857635894 -0.832636264 -1.607635894 -1.082636264 -1.882635894 -1.082636264 -1.882635894 -1.282636264 -2.032635894 -1.282636264 -2.032635894 -1.082636264 -2.307635894 -1.082636264 -2.057635894 -0.832636264 -2.157635894 -0.832636264 -2.020135894 -0.582636264 -2.082635894 -0.582636264 Z" fill="none" stroke="#222" stroke-width="0.01" />
<path d="M -1.299822524 -1.283884717 -1.174822524 -1.583884717 -1.237322524 -1.583884717 -1.099822524 -1.833884717 -1.199822524 -1.833884717 -0.949822524 -2.083884717 -1.224822524 -2.083884717 -1.224822524 -2.283884717 -1.374822524 -2.283884717 -1.374822524 -2.083884717 -1.649822524 -2.083884717 -1.399822524 -1.833884717 -1.499822524 -1.833884717 -1.362322524 -1.583884717 -1.424822524 -1.583884717 Z" fill="none" stroke="#222" stroke-width="0.01" />
<rect x="-3.310243302" y="-2.486954450" width="2.360420778" height="2.360420778" fill="none" stroke="#000" stroke-width="0.01" />
</g>
<text x="40" y="92" font-family="monospace" font-size="12">centered</text>
<g transform="translate(500.000 520.000) scale(85.067137888 -85.067137888) translate(4.616362739 4.648393410)">
<path d="M -3.126113034 -1.795272171 -3.001113034 -2.095272171 -3.063613034 -2.095272171 -2.926113034 -2.345272171 -3.026113034 -2.345272171 -2.776113034 -2.595272171 -3.051113034 -2.595272171 -3.051113034 -2.795272171 -3.201113034 -2.795272171 -3.201113034 -2.595272171 -3.476113034 -2.595272171 -3.226113034 -2.345272171 -3.326113034 -2.345272171 -3.188613034 -2.095272171 -3.251113034 -2.095272171 Z" fill="none" stroke="#222" stroke-width="0.01" />
<path d="M -2.557828035 -1.625316425 -2.432828035 -1.925316425 -2.495328035 -1.925316425 -2.357828035 -2.175316425 -2.457828035 -2.175316425 -2.207828035 -2.425316425 -2.482828035 -2.425316425 -2.482828035 -2.625316425 -2.632828035 -2.625316425 -2.632828035 -2.425316425 -2.907828035 -2.425316425 -2.657828035 -2.175316425 -2.757828035 -2.175316425 -2.620328035 -1.925316425 -2.682828035 -1.925316425 Z" fill="none" stroke="#222" stroke-width="0.01" />
<path d="M -2.057828039 -1.825316423 -1.932828039 -2.125316423 -1.995328039 -2.125316423 -1.857828039 -2.375316423 -1.957828039 -2.375316423 -1.707828039 -2.625316423 -1.982828039 -2.625316423 -1.982828039 -2.825316423 -2.132828039 -2.825316423 -2.132828039 -2.625316423 -2.407828039 -2.625316423 -2.157828039 -2.375316423 -2.257828039 -2.375316423 -2.120328039 -2.125316423 -2.182828039 -2.125316423 Z" fill="none" stroke="#222" stroke-width="0.01" />
<path d="M -2.973211037 -0.982235630 -2.848211037 -1.282235630 -2.910711037 -1.282235630 -2.773211037 -1.532235630 -2.873211037 -1.532235630 -2.623211037 -1.782235630 -2.898211037 -1.782235630 -2.898211037 -1.982235630 -3.048211037 -1.982235630 -3.048211037 -1.782235630 -3.323211037 -1.782235630 -3.073211037 -1.532235630 -3.173211037 -1.532235630 -3.035711037 -1.282235630 -3.098211037 -1.282235630 Z" fill="none" stroke="#222" stroke-width="0.01" />
<path d="M -2.399699363 -0.824125020 -2.274699363 -1.124125020 -2.337199363 -1.124125020 -2.199699363 -1.374125020 -2.299699363 -1.374125020 -2.049699363 -1.624125020 -2.324699363 -1.624125020 -2.324699363 -1.824125020 -2.474699363 -1.824125020 -2.474699363 -1.624125020 -2.749699363 -1.624125020 -2.499699363 -1.374125020 -2.599699363 -1.374125020 -2.462199363 -1.124125020 -2.524699363 -1.124125020 Z" fill="none" stroke="#222" stroke-width="0.01" />
<path d="M -1.899699363 -1.024125020 -1.774699363 -1.324125020 -1.837199363 -1.324125020 -1.699699363 -1.574125020 -1.799699363 -1.574125020 -1.549699363 -1.824125020 -1.824699363 -1.824125020 -1.824699363 -2.024125020 -1.974699363 -2.024125020 -1.974699363 -1.824125020 -2.249699363 -1.824125020 -1.999699363 -1.574125020 -2.099699363 -1.574125020 -1.962199363 -1.324125020 -2.024699363 -1.324125020 Z" fill="none" stroke="#222" stroke-width="0.01" />
<path d="M -2.815034300 -0.180928873 -2.690034300 -0.480928873 -2.752534300 -0.480928873 -2.615034300 -0.730928873 -2.715034300 -0.730928873 -2.465034300 -0.980928873 -2.740034300 -0.980928873 -2.740034300 -1.180928873 -2.890034300 -1.180928873 -2.890034300 -0.980928873 -3.165034300 -0.980928873 -2.915034300 -0.730928873 -3.015034300 -0.730928873 -2.877534300 -0.480928873 -2.940034300 -0.480928873 Z" fill="none" stroke="#222" stroke-width="0.01" />
<rect x="-3.835099974" y="-2.825316423" width="2.644387550" height="2.644387550" fill="none" stroke="#000" stroke-width="0.01" />
</g>
<text x="500" y="92" font-family="monospace" font-size="12">grid</text>
<g transform="translate(960.000 520.000) scale(85.067137888 -85.067137888) translate(4.616362739 4.648393410)">
<path d="M -3.203292133 -2.183135104 -3.078292133 -2.483135104 -3.140792133 -2.483135104 -3.003292133 -2.733135104 -3.103292133 -2.733135104 -2.853292133 -2.983135104 -3.128292133 -2.983135104 -3.128292133 -3.183135104 -3.278292133 -3.183135104 -3.278292133 -2.983135104 -3.553292133 -2.983135104 -3.303292133 -2.733135104 -3.403292133 -2.733135104 -3.265792133 -2.483135104 -3.328292133 -2.483135104 Z" fill="none" stroke="#222" stroke-width="0.01" />
<path d="M -2.472224138 -3.623278471 -2.597224138 -3.323278471 -2.534724138 -3.323278471 -2.672224138 -3.073278471 -2.572224138 -3.073278471 -2.822224138 -2.823278471 -2.547224138 -2.823278471 -2.547224138 -2.623278471 -2.397224138 -2.623278471 -2.397224138 -2.823278471 -2.122224138 -2.823278471 -2.372224138 -3.073278471 -2.272224138 -3.073278471 -2.409724138 -3.323278471 -2.347224138 -3.323278471 Z" fill="none" stroke="#222" stroke-width="0.01" />
<path d="M -1.700479757 -2.189537748 -1.575479757 -2.489537748 -1.637979757 -2.489537748 -1.500479757 -2.739537748 -1.600479757 -2.739537748 -1.350479757 -2.989537748 -1.625479757 -2.989537748 -1.625479757 -3.189537748 -1.775479757 -3.189537748 -1.775479757 -2.989537748 -2.050479757 -2.989537748 -1.800479757 -2.739537748 -1.900479757 -2.739537748 -1.762979757 -2.489537748 -1.825479757 -2.489537748 Z" fill="none" stroke="#222" stroke-width="0.01" />
<path d="M -2.931335263 -2.903659990 -3.056335263 -2.603659990 -2.993835263 -2.603659990 -3.131335263 -2.353659990 -3.031335263 -2.353659990 -3.281335263 -2.103659990 -3.006335263 -2.103659990 -3.006335263 -1.903659990 -2.856335263 -1.903659990 -2.856335263 -2.103659990 -2.581335263 -2.103659990 -2.831335263 -2.353659990 -2.731335263 -2.353659990 -2.868835263 -2.603659990 -2.806335263 -2.603659990 Z" fill="none" stroke="#222" stroke-width="0.01" />
<path d="M -2.419399391 -1.622903149 -2.294399391 -1.922903149 -2.356899391 -1.922903149 -2.219399391 -2.172903149 -2.319399391 -2.172903149 -2.069399391 -2.422903149 -2.344399391 -2.422903149 -2.344399391 -2.622903149 -2.494399391 -2.622903149 -2.494399391 -2.422903149 -2.769399391 -2.422903149 -2.519399391 -2.172903149 -2.619399391 -2.172903149 -2.481899391 -1.922903149 -2.544399391 -1.922903149 Z" fill="none" stroke="#222" stroke-width="0.01" />
<path d="M -1.942420599 -2.839875267 -2.067420599 -2.539875267 -2.004920599 -2.539875267 -2.142420599 -2.289875267 -2.042420599 -2.289875267 -2.292420599 -2.039875267 -2.017420599 -2.039875267 -2.017420599 -1.839875267 -1.867420599 -1.839875267 -1.867420599 -2.039875267 -1.592420599 -2.039875267 -1.842420599 -2.289875267 -1.742420599 -2.289875267 -1.879920599 -2.539875267 -1.817420599 -2.539875267 Z" fill="none" stroke="#222" stroke-width="0.01" />
<path d="M -2.864960339 -0.899613033 -2.739960339 -1.199613033 -2.802460339 -1.199613033 -2.664960339 -1.449613033 -2.764960339 -1.449613033 -2.514960339 -1.699613033 -2.789960339 -1.699613033 -2.789960339 -1.899613033 -2.939960339 -1.899613033 -2.939960339 -1.699613033 -3.214960339 -1.699613033 -2.964960339 -1.449613033 -3.064960339 -1.449613033 -2.927460339 -1.199613033 -2.989960339 -1.199613033 Z" fill="none" stroke="#222" stroke-width="0.01" />
<rect x="-3.813718664" y="-3.623278471" width="2.723665438" height="2.723665438" fill="none" stroke="#000" stroke-width="0.01" />
</g>
<text x="960" y="92" font-family="monospace" font-size="12">grid_alt180</text>
<g transform="translate(40.000 980.000) scale(85.067137888 -85.067137888) translate(4.616362739 4.648393410)">
<path d="M -2.275052468 -1.818563611 -2.398796155 -2.119083993 -2.442990329 -2.074889819 -2.522539842 -2.348893696 -2.593250520 -2.278183018 -2.593250520 -2.631736409 -2.787704885 -2.437282044 -2.929126241 -2.578703400 -3.035192258 -2.472637383 -2.893770902 -2.331216027 -3.088225267 -2.136761662 -2.734671876 -2.136761662 -2.805382554 -2.066050984 -2.531378677 -1.986501471 -2.575572850 -1.942307297 Z" fill="none" stroke="#222" stroke-width="0.01" />
<path d="M -2.330504577 -1.676060394 -2.029984195 -1.799804081 -2.074178369 -1.843998255 -1.800174492 -1.923547768 -1.870885170 -1.994258446 -1.517331779 -1.994258446 -1.711786144 -2.188712811 -1.570364788 -2.330134167 -1.676430805 -2.436200184 -1.817852161 -2.294778828 -2.012306526 -2.489233193 -2.012306526 -2.135679802 -2.083017204 -2.206390480 -2.162566717 -1.932386603 -2.206760891 -1.976580776 Z" fill="none" stroke="#222" stroke-width="0.01" />
<path d="M -0.890384689 -1.865192609 -1.014128375 -2.165712991 -1.058322549 -2.121518818 -1.137872062 -2.395522695 -1.208582740 -2.324812017 -1.208582740 -2.678365408 -1.403037105 -2.483911043 -1.544458461 -2.625332399 -1.650524478 -2.519266382 -1.509103122 -2.377845026 -1.703557487 -2.183390661 -1.350004096 -2.183390661 -1.420714774 -2.112679983 -1.146710897 -2.033130470 -1.190905071 -1.988936296 Z" fill="none" stroke="#222" stroke-width="0.01" />
<path d="M -3.175886053 -1.159335539 -2.875365671 -1.283079226 -2.919559844 -1.327273399 -2.645555967 -1.406822912 -2.716266645 -1.477533590 -2.362713254 -1.477533590 -2.557167619 -1.671987955 -2.415746263 -1.813409312 -2.521812280 -1.919475329 -2.663233636 -1.778053972 -2.857688001 -1.972508337 -2.857688001 -1.618954947 -2.928398679 -1.689665625 -3.007948192 -1.415661747 -3.052142366 -1.459855921 Z" fill="none" stroke="#222" stroke-width="0.01" />
<path d="M -1.737340778 -0.971535217 -1.861084464 -1.272055599 -1.905278638 -1.227861425 -1.984828151 -1.501865303 -2.055538829 -1.431154625 -2.055538829 -1.784708016 -2.249993194 -1.590253651 -2.391414550 -1.731675007 -2.497480567 -1.625608990 -2.356059211 -1.484187634 -2.550513576 -1.289733269 -2.196960185 -1.289733269 -2.267670863 -1.219022591 -1.993666986 -1.139473078 -2.037861160 -1.095278904 Z" fill="none" stroke="#222" stroke-width="0.01" />
<path d="M -1.832433448 -1.220133493 -1.531913066 -1.343877180 -1.576107240 -1.388071353 -1.302103362 -1.467620866 -1.372814040 -1.538331544 -1.019260650 -1.538331544 -1.213715014 -1.732785909 -1.072293658 -1.874207266 -1.178359675 -1.980273283 -1.319781032 -1.838851926 -1.514235396 -2.033306291 -1.514235396 -1.679752901 -1.584946075 -1.750463579 -1.664495587 -1.476459701 -1.708689761 -1.520653875 Z" fill="none" stroke="#222" stroke-width="0.01" />
<path d="M -1.949901954 -0.476560470 -2.073645641 -0.777080852 -2.117839815 -0.732886679 -2.197389328 -1.006890556 -2.268100006 -0.936179878 -2.268100006 -1.289733269 -2.462554371 -1.095278904 -2.603975727 -1.236700260 -2.710041744 -1.130634243 -2.568620388 -0.989212887 -2.763074753 -0.794758522 -2.409521362 -0.794758522 -2.480232040 -0.724047844 -2.206228163 -0.644498331 -2.250422336 -0.600304157 Z" fill="none" stroke="#222" stroke-width="0.01" />
<rect x="-3.175886053" y="-2.720213621" width="2.285501364" height="2.285501364" fill="none" stroke="#000" stroke-width="0.01" />
</g>
<text x="40" y="552" font-family="monospace" font-size="12">grid_alt45</text>
<g transform="translate(500.000 980.000) scale(85.067137888 -85.067137888) translate(4.616362739 4.648393410)">
<path d="M -3.294002787 -2.159266651 -2.993482405 -2.283010337 -3.037676579 -2.327204511 -2.763672701 -2.406754024 -2.834383379 -2.477464702 -2.480829989 -2.477464702 -2.675284354 -2.671919067 -2.533862997 -2.813340423 -2.639929015 -2.919406440 -2.781350371 -2.777985084 -2.975804736 -2.972439449 -2.975804736 -2.618886058 -3.046515414 -2.689596737 -3.126064927 -2.415592859 -3.170259100 -2.459787033 Z" fill="none" stroke="#222" stroke-width="0.01" />
<path d="M -1.900692637 -3.312697786 -2.201213019 -3.188954099 -2.157018846 -3.144759926 -2.431022723 -3.065210413 -2.360312045 -2.994499735 -2.713865436 -2.994499735 -2.519411071 -2.800045370 -2.660832427 -2.658624014 -2.554766410 -2.552557996 -2.413345054 -2.693979353 -2.218890689 -2.499524988 -2.218890689 -2.853078378 -2.148180011 -2.782367700 -2.068630498 -3.056371578 -2.024436324 -3.012177404 Z" fill="none" stroke="#222" stroke-width="0.01" />
<path d="M -2.298573042 -2.305207947 -1.998052660 -2.428951634 -2.042246833 -2.473145808 -1.768242956 -2.552695321 -1.838953634 -2.623405999 -1.485400243 -2.623405999 -1.679854608 -2.817860364 -1.538433252 -2.959281720 -1.644499269 -3.065347737 -1.785920625 -2.923926381 -1.980374990 -3.118380746 -1.980374990 -2.764827355 -2.051085668 -2.835538033 -2.130635181 -2.561534156 -2.174829355 -2.605728329 Z" fill="none" stroke="#222" stroke-width="0.01" />
<path d="M -2.281047950 -2.558594996 -2.581568332 -2.434851310 -2.537374158 -2.390657136 -2.811378035 -2.311107623 -2.740667357 -2.240396945 -3.094220748 -2.240396945 -2.899766383 -2.045942580 -3.041187739 -1.904521224 -2.935121722 -1.798455207 -2.793700366 -1.939876563 -2.599246001 -1.745422198 -2.599246001 -2.098975589 -2.528535323 -2.028264910 -2.448985810 -2.302268788 -2.404791636 -2.258074614 Z" fill="none" stroke="#222" stroke-width="0.01" />
<path d="M -2.692454137 -1.495492167 -2.391933755 -1.619235853 -2.436127929 -1.663430027 -2.162124051 -1.742979540 -2.232834729 -1.813690218 -1.879281339 -1.813690218 -2.073735704 -2.008144583 -1.932314347 -2.149565939 -2.038380365 -2.255631956 -2.179801721 -2.114210600 -2.374256086 -2.308664965 -2.374256086 -1.955111574 -2.444966764 -2.025822253 -2.524516277 -1.751818375 -2.568710450 -1.796012549 Z" fill="none" stroke="#222" stroke-width="0.01" />
<path d="M -1.285794834 -2.682905018 -1.586315216 -2.559161332 -1.542121042 -2.514967158 -1.816124920 -2.435417645 -1.745414242 -2.364706967 -2.098967632 -2.364706967 -1.904513268 -2.170252602 -2.045934624 -2.028831246 -1.939868607 -1.922765228 -1.798447250 -2.064186585 -1.603992886 -1.869732220 -1.603992886 -2.223285610 -1.533282207 -2.152574932 -1.453732695 -2.426578810 -1.409538521 -2.382384636 Z" fill="none" stroke="#222" stroke-width="0.01" />
<path d="M -3.190896513 -0.797794777 -2.890376131 -0.921538463 -2.934570305 -0.965732637 -2.660566427 -1.045282150 -2.731277106 -1.115992828 -2.377723715 -1.115992828 -2.572178080 -1.310447193 -2.430756724 -1.451868549 -2.536822741 -1.557934566 -2.678244097 -1.416513210 -2.872698462 -1.610967575 -2.872698462 -1.257414184 -2.943409140 -1.328124863 -3.022958653 -1.054120985 -3.067152827 -1.098315159 Z" fill="none" stroke="#222" stroke-width="0.01" />
<rect x="-3.547350315" y="-3.312697786" width="2.514903009" height="2.514903009" fill="none" stroke="#000" stroke-width="0.01" />
</g>
<text x="500" y="552" font-family="monospace" font-size="12">alternating</text>
<g transform="translate(960.000 980.000) scale(85.067137888 -85.067137888) translate(4.616362739 4.648393410)">
<path d="M -2.922738590 -2.299471120 -2.797738590 -2.599471120 -2.860238590 -2.599471120 -2.722738590 -2.849471120 -2.822738590 -2.849471120 -2.572738590 -3.099471120 -2.847738590 -3.099471120 -2.847738590 -3.299471120 -2.997738590 -3.299471120 -2.997738590 -3.099471120 -3.272738590 -3.099471120 -3.022738590 -2.849471120 -3.122738590 -2.849471120 -2.985238590 -2.599471120 -3.047738590 -2.599471120 Z" fill="none" stroke="#222" stroke-width="0.01" />
<path d="M -2.620003676 -4.178581222 -2.745003676 -3.878581222 -2.682503676 -3.878581222 -2.820003676 -3.628581222 -2.720003676 -3.628581222 -2.970003676 -3.378581222 -2.695003676 -3.378581222 -2.695003676 -3.178581222 -2.545003676 -3.178581222 -2.545003676 -3.378581222 -2.270003676 -3.378581222 -2.520003676 -3.628581222 -2.420003676 -3.628581222 -2.557503676 -3.878581222 -2.495003676 -3.878581222 Z" fill="none" stroke="#222" stroke-width="0.01" />
<path d="M -2.188613170 -2.578581222 -2.063613170 -2.878581222 -2.126113170 -2.878581222 -1.988613170 -3.128581222 -2.088613170 -3.128581222 -1.838613170 -3.378581222 -2.113613170 -3.378581222 -2.113613170 -3.578581222 -2.263613170 -3.578581222 -2.263613170 -3.378581222 -2.538613170 -3.378581222 -2.288613170 -3.128581222 -2.388613170 -3.128581222 -2.251113170 -2.878581222 -2.313613170 -2.878581222 Z" fill="none" stroke="#222" stroke-width="0.01" />
<path d="M -2.481166077 -3.316824614 -2.606166077 -3.016824614 -2.543666077 -3.016824614 -2.681166077 -2.766824614 -2.581166077 -2.766824614 -2.831166077 -2.516824614 -2.556166077 -2.516824614 -2.556166077 -2.316824614 -2.406166077 -2.316824614 -2.406166077 -2.516824614 -2.131166077 -2.516824614 -2.381166077 -2.766824614 -2.281166077 -2.766824614 -2.418666077 -3.016824614 -2.356166077 -3.016824614 Z" fill="none" stroke="#222" stroke-width="0.01" />
<path d="M -2.052254651 -1.712390472 -1.927254651 -2.012390472 -1.989754651 -2.012390472 -1.852254651 -2.262390472 -1.952254651 -2.262390472 -1.702254651 -2.512390472 -1.977254651 -2.512390472 -1.977254651 -2.712390472 -2.127254651 -2.712390472 -2.127254651 -2.512390472 -2.402254651 -2.512390472 -2.152254651 -2.262390472 -2.252254651 -2.262390472 -2.114754651 -2.012390472 -2.177254651 -2.012390472 Z" fill="none" stroke="#222" stroke-width="0.01" />
<path d="M -1.781804751 -3.514104482 -1.906804751 -3.214104482 -1.844304751 -3.214104482 -1.981804751 -2.964104482 -1.881804751 -2.964104482 -2.131804751 -2.714104482 -1.856804751 -2.714104482 -1.856804751 -2.514104482 -1.706804751 -2.514104482 -1.706804751 -2.714104482 -1.431804751 -2.714104482 -1.681804751 -2.964104482 -1.581804751 -2.964104482 -1.719304751 -3.214104482 -1.656804751 -3.214104482 Z" fill="none" stroke="#222" stroke-width="0.01" />
<path d="M -2.517569028 -1.308416613 -2.392569028 -1.608416613 -2.455069028 -1.608416613 -2.317569028 -1.858416613 -2.417569028 -1.858416613 -2.167569028 -2.108416613 -2.442569028 -2.108416613 -2.442569028 -2.308416613 -2.592569028 -2.308416613 -2.592569028 -2.108416613 -2.867569028 -2.108416613 -2.617569028 -1.858416613 -2.717569028 -1.858416613 -2.580069028 -1.608416613 -2.642569028 -1.608416613 Z" fill="none" stroke="#222" stroke-width="0.01" />
<rect x="-3.787353975" y="-4.178581222" width="2.870164609" height="2.870164609" fill="none" stroke="#000" stroke-width="0.01" />
</g>
<text x="960" y="552" font-family="monospace" font-size="12">sheared_brick</text>
<g transform="translate(40.000 1440.000) scale(85.067137888 -85.067137888) translate(4.616362739 4.648393410)">
<path d="M -3.516862317 -1.635714362 -3.216341935 -1.759458049 -3.260536109 -1.803652223 -2.986532231 -1.883201736 -3.057242910 -1.953912414 -2.703689519 -1.953912414 -2.898143884 -2.148366778 -2.756722528 -2.289788135 -2.862788545 -2.395854152 -3.004209901 -2.254432796 -3.198664266 -2.448887160 -3.198664266 -2.095333770 -3.269374944 -2.166044448 -3.348924457 -1.892040570 -3.393118631 -1.936234744 Z" fill="none" stroke="#222" stroke-width="0.01" />
<path d="M -1.576359953 -2.524037364 -1.876880335 -2.400293677 -1.832686161 -2.356099504 -2.106690039 -2.276549991 -2.035979361 -2.205839313 -2.389532752 -2.205839313 -2.195078387 -2.011384948 -2.336499743 -1.869963592 -2.230433726 -1.763897574 -2.089012370 -1.905318931 -1.894558005 -1.710864566 -1.894558005 -2.064417956 -1.823847327 -1.993707278 -1.744297814 -2.267711156 -1.700103640 -2.223516982 Z" fill="none" stroke="#222" stroke-width="0.01" />
<path d="M -2.809170258 -0.928022311 -2.508649876 -1.051765998 -2.552844050 -1.095960172 -2.278840172 -1.175509684 -2.349550850 -1.246220363 -1.995997460 -1.246220363 -2.190451825 -1.440674727 -2.049030468 -1.582096084 -2.155096485 -1.688162101 -2.296517842 -1.546740745 -2.490972207 -1.741195109 -2.490972207 -1.387641719 -2.561682885 -1.458352397 -2.641232398 -1.184348519 -2.685426571 -1.228542693 Z" fill="none" stroke="#222" stroke-width="0.01" />
<path d="M -1.788572699 -3.019012107 -2.089093081 -2.895268421 -2.044898907 -2.851074247 -2.318902785 -2.771524734 -2.248192107 -2.700814056 -2.601745497 -2.700814056 -2.407291132 -2.506359691 -2.548712489 -2.364938335 -2.442646471 -2.258872318 -2.301225115 -2.400293674 -2.106770750 -2.205839309 -2.106770750 -2.559392700 -2.036060072 -2.488682021 -1.956510559 -2.762685899 -1.912316385 -2.718491725 Z" fill="none" stroke="#222" stroke-width="0.01" />
<path d="M -3.021887570 -1.422997058 -2.721367188 -1.546740745 -2.765561362 -1.590934918 -2.491557485 -1.670484431 -2.562268163 -1.741195109 -2.208714772 -1.741195109 -2.403169137 -1.935649474 -2.261747781 -2.077070830 -2.367813798 -2.183136848 -2.509235154 -2.041715491 -2.703689519 -2.236169856 -2.703689519 -1.882616466 -2.774400197 -1.953327144 -2.853949710 -1.679323266 -2.898143884 -1.723517440 Z" fill="none" stroke="#222" stroke-width="0.01" />
<path d="M -1.081385206 -2.311905330 -1.381905588 -2.188161644 -1.337711415 -2.143967470 -1.611715292 -2.064417957 -1.541004614 -1.993707279 -1.894558005 -1.993707279 -1.700103640 -1.799252914 -1.841524996 -1.657831558 -1.735458979 -1.551765540 -1.594037623 -1.693186897 -1.399583258 -1.498732532 -1.399583258 -1.852285922 -1.328872580 -1.781575244 -1.249323067 -2.055579122 -1.205128893 -2.011384948 Z" fill="none" stroke="#222" stroke-width="0.01" />
<path d="M -3.102828764 -2.461818525 -2.802308382 -2.585562212 -2.846502556 -2.629756385 -2.572498678 -2.709305898 -2.643209356 -2.780016576 -2.289655966 -2.780016576 -2.484110331 -2.974470941 -2.342688974 -3.115892297 -2.448754992 -3.221958315 -2.590176348 -3.080536958 -2.784630713 -3.274991323 -2.784630713 -2.921437933 -2.855341391 -2.992148611 -2.934890904 -2.718144733 -2.979085077 -2.762338907 Z" fill="none" stroke="#222" stroke-width="0.01" />
<rect x="-3.516862317" y="-3.319245373" width="2.435477111" height="2.435477111" fill="none" stroke="#000" stroke-width="0.01" />
</g>
<text x="40" y="1012" font-family="monospace" font-size="12">diamond_lattice</text>
<g transform="translate(500.000 1440.000) scale(85.067137888 -85.067137888) translate(4.616362739 4.648393410)">
<path d="M -2.930522181 -2.002064522 -2.805522181 -2.302064522 -2.868022181 -2.302064522 -2.730522181 -2.552064522 -2.830522181 -2.552064522 -2.580522181 -2.802064522 -2.855522181 -2.802064522 -2.855522181 -3.002064522 -3.005522181 -3.002064522 -3.005522181 -2.802064522 -3.280522181 -2.802064522 -3.030522181 -2.552064522 -3.130522181 -2.552064522 -2.993022181 -2.302064522 -3.055522181 -2.302064522 Z" fill="none" stroke="#222" stroke-width="0.01" />
<path d="M -2.387787508 -1.610627192 -2.262787508 -1.910627192 -2.325287508 -1.910627192 -2.187787508 -2.160627192 -2.287787508 -2.160627192 -2.037787508 -2.410627192 -2.312787508 -2.410627192 -2.312787508 -2.610627192 -2.462787508 -2.610627192 -2.462787508 -2.410627192 -2.737787508 -2.410627192 -2.487787508 -2.160627192 -2.587787508 -2.160627192 -2.450287508 -1.910627192 -2.512787508 -1.910627192 Z" fill="none" stroke="#222" stroke-width="0.01" />
<path d="M -1.886481011 -1.809320695 -1.761481011 -2.109320695 -1.823981011 -2.109320695 -1.686481011 -2.359320695 -1.786481011 -2.359320695 -1.536481011 -2.609320695 -1.811481011 -2.609320695 -1.811481011 -2.809320695 -1.961481011 -2.809320695 -1.961481011 -2.609320695 -2.236481011 -2.609320695 -1.986481011 -2.359320695 -2.086481011 -2.359320695 -1.948981011 -2.109320695 -2.011481011 -2.109320695 Z" fill="none" stroke="#222" stroke-width="0.01" />
<path d="M -3.512787508 -1.868622474 -3.212787508 -1.743622474 -3.212787508 -1.806122474 -2.962787508 -1.668622474 -2.962787508 -1.768622474 -2.712787508 -1.518622474 -2.712787508 -1.793622474 -2.512787508 -1.793622474 -2.512787508 -1.943622474 -2.712787508 -1.943622474 -2.712787508 -2.218622474 -2.962787508 -1.968622474 -2.962787508 -2.068622474 -3.212787508 -1.931122474 -3.212787508 -1.993622474 Z" fill="none" stroke="#222" stroke-width="0.01" />
<path d="M -2.827326772 -1.470606820 -2.527326772 -1.345606820 -2.527326772 -1.408106820 -2.277326772 -1.270606820 -2.277326772 -1.370606820 -2.027326772 -1.120606820 -2.027326772 -1.395606820 -1.827326772 -1.395606820 -1.827326772 -1.545606820 -2.027326772 -1.545606820 -2.027326772 -1.820606820 -2.277326772 -1.570606820 -2.277326772 -1.670606820 -2.527326772 -1.533106820 -2.527326772 -1.595606820 Z" fill="none" stroke="#222" stroke-width="0.01" />
<path d="M -2.027006194 -1.750028102 -1.727006194 -1.625028102 -1.727006194 -1.687528102 -1.477006194 -1.550028102 -1.477006194 -1.650028102 -1.227006194 -1.400028102 -1.227006194 -1.675028102 -1.027006194 -1.675028102 -1.027006194 -1.825028102 -1.227006194 -1.825028102 -1.227006194 -2.100028102 -1.477006194 -1.850028102 -1.477006194 -1.950028102 -1.727006194 -1.812528102 -1.727006194 -1.875028102 Z" fill="none" stroke="#222" stroke-width="0.01" />
<path d="M -2.686068242 -0.379537336 -2.561068242 -0.679537336 -2.623568242 -0.679537336 -2.486068242 -0.929537336 -2.586068242 -0.929537336 -2.336068242 -1.179537336 -2.611068242 -1.179537336 -2.611068242 -1.379537336 -2.761068242 -1.379537336 -2.761068242 -1.179537336 -3.036068242 -1.179537336 -2.786068242 -0.929537336 -2.886068242 -0.929537336 -2.748568242 -0.679537336 -2.811068242 -0.679537336 Z" fill="none" stroke="#222" stroke-width="0.01" />
<rect x="-3.581160443" y="-3.002064522" width="2.622527186" height="2.622527186" fill="none" stroke="#000" stroke-width="0.01" />
</g>
<text x="500" y="1012" font-family="monospace" font-size="12">herringbone</text>
<g transform="translate(960.000 1440.000) scale(85.067137888 -85.067137888) translate(4.616362739 4.648393410)">
<path d="M -1.497255926 -1.111574191 -1.372255926 -1.411574191 -1.434755926 -1.411574191 -1.297255926 -1.661574191 -1.397255926 -1.661574191 -1.147255926 -1.911574191 -1.422255926 -1.911574191 -1.422255926 -2.111574191 -1.572255926 -2.111574191 -1.572255926 -1.911574191 -1.847255926 -1.911574191 -1.597255926 -1.661574191 -1.697255926 -1.661574191 -1.559755926 -1.411574191 -1.622255926 -1.411574191 Z" fill="none" stroke="#222" stroke-width="0.01" />
<path d="M -2.510656690 -1.068856639 -2.198171020 -1.158174644 -2.237139133 -1.207039111 -1.955951414 -1.255409733 -2.018300394 -1.333592881 -1.666970073 -1.294007461 -1.838429769 -1.509011119 -1.682063472 -1.633709079 -1.775586943 -1.750983802 -1.931953239 -1.626285841 -2.103412935 -1.841289499 -2.142998355 -1.489959178 -2.205347335 -1.568142326 -2.315075358 -1.304768047 -2.354043470 -1.353632514 Z" fill="none" stroke="#222" stroke-width="0.01" />
<path d="M -3.175799698 -1.834518299 -2.911136442 -1.645896030 -2.897228883 -1.706829024 -2.684093534 -1.517146203 -2.661841440 -1.614638994 -2.473739696 -1.315276782 -2.412546439 -1.583381958 -2.217560856 -1.538877771 -2.184182716 -1.685116958 -2.379168299 -1.729621145 -2.317975042 -1.997726321 -2.617337253 -1.809624576 -2.595085160 -1.907117368 -2.869413766 -1.828695013 -2.855506208 -1.889628008 Z" fill="none" stroke="#222" stroke-width="0.01" />
<path d="M -2.991918333 -2.831913885 -2.974374319 -2.507387757 -2.918063765 -2.534505491 -2.933476050 -2.249604259 -2.843379163 -2.292992633 -2.960150445 -1.959279482 -2.712384006 -2.078597510 -2.625607259 -1.898403736 -2.490461928 -1.963486297 -2.577238676 -2.143680071 -2.329472238 -2.262998099 -2.663185389 -2.379769381 -2.573088503 -2.423157755 -2.805442657 -2.588740958 -2.749132102 -2.615858692 Z" fill="none" stroke="#222" stroke-width="0.01" />
<path d="M -2.097497941 -3.310028813 -2.340284171 -3.093973620 -2.283973617 -3.066855886 -2.516327771 -2.901272684 -2.426230884 -2.857884310 -2.759944036 -2.741113028 -2.512177597 -2.621794999 -2.598954345 -2.441601226 -2.463809015 -2.376518665 -2.377032267 -2.556712438 -2.129265828 -2.437394410 -2.246037111 -2.771107562 -2.155940224 -2.727719188 -2.171352508 -3.012620419 -2.115041954 -2.985502685 Z" fill="none" stroke="#222" stroke-width="0.01" />
<path d="M -1.165985410 -2.908862290 -1.486278901 -2.963971999 -1.472371342 -2.903039005 -1.746699949 -2.981461359 -1.724447855 -2.883968568 -2.023810067 -3.072070312 -1.962616810 -2.803965136 -2.157602392 -2.759460950 -2.124224252 -2.613221763 -1.929238670 -2.657725950 -1.868045413 -2.389620774 -1.679943668 -2.688982985 -1.657691575 -2.591490194 -1.444556225 -2.781173016 -1.430648667 -2.720240021 Z" fill="none" stroke="#222" stroke-width="0.01" />
<path d="M -0.898873467 -1.930472482 -1.055486686 -2.215248358 -1.094454799 -2.166383890 -1.204182822 -2.429758169 -1.266531802 -2.351575021 -1.306117222 -2.702905342 -1.477576918 -2.487901685 -1.633943214 -2.612599645 -1.727466684 -2.495324923 -1.571100388 -2.370626962 -1.742560083 -2.155623305 -1.391229762 -2.195208725 -1.453578742 -2.117025577 -1.172391024 -2.068654955 -1.211359137 -2.019790487 Z" fill="none" stroke="#222" stroke-width="0.01" />
<rect x="-3.175799698" y="-3.327905842" width="2.276926232" height="2.276926232" fill="none" stroke="#000" stroke-width="0.01" />
</g>
<text x="960" y="1012" font-family="monospace" font-size="12">circle_ring</text>
<g transform="translate(40.000 1900.000) scale(85.067137888 -85.067137888) translate(4.616362739 4.648393410)">
<path d="M -1.901837601 -1.464262565 -1.776837601 -1.764262565 -1.839337601 -1.764262565 -1.701837601 -2.014262565 -1.801837601 -2.014262565 -1.551837601 -2.264262565 -1.826837601 -2.264262565 -1.826837601 -2.464262565 -1.976837601 -2.464262565 -1.976837601 -2.264262565 -2.251837601 -2.264262565 -2.001837601 -2.014262565 -2.101837601 -2.014262565 -1.964337601 -1.764262565 -2.026837601 -1.764262565 Z" fill="none" stroke="#222" stroke-width="0.01" />
<path d="M -2.014407649 -1.223464113 -1.706525634 -1.327549006 -1.747774581 -1.374504031 -1.469206797 -1.436198762 -1.535205111 -1.511326802 -1.182389223 -1.488502488 -1.363884589 -1.695104599 -1.213628508 -1.827101228 -1.312625979 -1.939793289 -1.462882060 -1.807796660 -1.644377426 -2.014398771 -1.667201740 -1.661582883 -1.733200055 -1.736710924 -1.830272474 -1.468414082 -1.871521420 -1.515369107 Z" fill="none" stroke="#222" stroke-width="0.01" />
<path d="M -2.956197588 -1.632303459 -2.674803707 -1.469692010 -2.666750926 -1.531671060 -2.436550841 -1.363106025 -2.423666392 -1.462272506 -2.207961313 -1.182145180 -2.172529077 -1.454853003 -1.974196115 -1.429084104 -1.954869441 -1.577833826 -2.153202403 -1.603602725 -2.117770167 -1.876310547 -2.397897493 -1.660605468 -2.385013044 -1.759771949 -2.650645364 -1.655629162 -2.642592583 -1.717608212 Z" fill="none" stroke="#222" stroke-width="0.01" />
<path d="M -2.845574436 -2.582369913 -2.782026012 -2.263643388 -2.730147666 -2.298498620 -2.704859098 -2.014303725 -2.621853745 -2.070072097 -2.689946199 -1.723137784 -2.461681477 -1.876500806 -2.350144733 -1.710490099 -2.225636703 -1.794142657 -2.337173447 -1.960153364 -2.108908724 -2.113516386 -2.455843038 -2.181608841 -2.372837684 -2.237377212 -2.626390974 -2.368209085 -2.574512628 -2.403064317 Z" fill="none" stroke="#222" stroke-width="0.01" />
<path d="M -2.113677071 -3.222908272 -2.311189175 -2.964811451 -2.250764288 -2.948840133 -2.447584315 -2.742277486 -2.350904496 -2.716723376 -2.656489320 -2.538909103 -2.390619817 -2.468635300 -2.441728037 -2.275275662 -2.296708308 -2.236944496 -2.245600088 -2.430304135 -1.979730585 -2.360030332 -2.157544857 -2.665615155 -2.060865038 -2.640061045 -2.129914514 -2.916897495 -2.069489627 -2.900926176 Z" fill="none" stroke="#222" stroke-width="0.01" />
<path d="M -1.165049629 -2.955550985 -1.489307373 -2.933598408 -1.461426905 -2.877661573 -1.746511274 -2.889200738 -1.701902525 -2.799701802 -2.037171737 -2.911927269 -1.914497677 -2.665805195 -2.093495549 -2.576587697 -2.026582426 -2.442339294 -1.847584554 -2.531556792 -1.724910494 -2.285434718 -1.612685027 -2.620703930 -1.568076278 -2.531204994 -1.405665968 -2.765787904 -1.377785500 -2.709851069 Z" fill="none" stroke="#222" stroke-width="0.01" />
<path d="M -0.755613226 -2.020201743 -0.986110413 -2.249321901 -1.009734022 -2.191458483 -1.189215753 -2.413252438 -1.227013527 -2.320670970 -1.363972762 -2.646619076 -1.467916641 -2.392020038 -1.653079578 -2.467615587 -1.709776239 -2.328743384 -1.524613302 -2.253147836 -1.628557182 -1.998548798 -1.302609075 -2.135508033 -1.340406850 -2.042926565 -1.056981240 -2.075731648 -1.080604848 -2.017868230 Z" fill="none" stroke="#222" stroke-width="0.01" />
<rect x="-2.956197588" y="-3.302818907" width="2.200584362" height="2.200584362" fill="none" stroke="#000" stroke-width="0.01" />
</g>
<text x="40" y="1472" font-family="monospace" font-size="12">spiral</text>
<g transform="translate(500.000 1900.000) scale(85.067137888 -85.067137888) translate(4.616362739 4.648393410)">
<path d="M -3.312638555 -1.951564918 -3.012638555 -1.826564918 -3.012638555 -1.889064918 -2.762638555 -1.751564918 -2.762638555 -1.851564918 -2.512638555 -1.601564918 -2.512638555 -1.876564918 -2.312638555 -1.876564918 -2.312638555 -2.026564918 -2.512638555 -2.026564918 -2.512638555 -2.301564918 -2.762638555 -2.051564918 -2.762638555 -2.151564918 -3.012638555 -2.014064918 -3.012638555 -2.076564918 Z" fill="none" stroke="#222" stroke-width="0.01" />
<path d="M -1.971988001 -1.896390129 -2.277634952 -1.785914150 -2.235416808 -1.739828595 -2.512638943 -1.672344243 -2.445089914 -1.598607355 -2.798304707 -1.614077001 -2.612544876 -1.411300559 -2.760018651 -1.276202500 -2.658695107 -1.165597169 -2.511221332 -1.300695228 -2.325461501 -1.097918786 -2.309991855 -1.451133579 -2.242442825 -1.377396691 -2.150980521 -1.647657486 -2.108762378 -1.601571931 Z" fill="none" stroke="#222" stroke-width="0.01" />
<path d="M -2.127188964 -2.058456348 -1.976439867 -2.346379445 -2.038700557 -2.351843553 -1.879870607 -2.588865276 -1.979487711 -2.597607848 -1.708588520 -2.824794177 -1.982535556 -2.848836252 -1.965050411 -3.048070460 -2.114476067 -3.061184319 -2.131961212 -2.861950110 -2.405908249 -2.885992185 -2.178721920 -2.615092993 -2.278339024 -2.623835566 -2.163221937 -2.362771768 -2.225482627 -2.368235876 Z" fill="none" stroke="#222" stroke-width="0.01" />
<path d="M -1.948868574 -1.904338558 -1.865537009 -1.590203475 -1.815936962 -1.628230904 -1.772947350 -1.346170372 -1.693587275 -1.407014259 -1.739877748 -1.056504356 -1.521637541 -1.223825042 -1.399949769 -1.065104892 -1.280909656 -1.156370721 -1.402597428 -1.315090871 -1.184357222 -1.482411558 -1.534867125 -1.528702031 -1.455507050 -1.589545917 -1.716736868 -1.704285761 -1.667136821 -1.742313190 Z" fill="none" stroke="#222" stroke-width="0.01" />
<path d="M -2.298983657 -2.349277835 -2.572624959 -2.524621605 -2.583511331 -2.463077013 -2.805739684 -2.642020604 -2.823157879 -2.543549256 -3.025790763 -2.833273115 -3.073690799 -2.562476906 -3.270633496 -2.597313296 -3.296760789 -2.449606274 -3.099818092 -2.414769884 -3.147718128 -2.143973675 -2.857994269 -2.346606559 -2.875412464 -2.248135210 -2.605284075 -2.339987827 -2.616170446 -2.278443234 Z" fill="none" stroke="#222" stroke-width="0.01" />
<path d="M -2.113777402 -1.878312641 -1.793559807 -1.933861645 -1.827105310 -1.986596351 -1.542366379 -2.004762011 -1.596039185 -2.089137540 -1.250918348 -2.012380730 -1.398518562 -2.244413436 -1.229767503 -2.351759046 -1.310276711 -2.478322341 -1.479027770 -2.370976730 -1.626627984 -2.603009436 -1.703384795 -2.257888599 -1.757057600 -2.342264129 -1.894196317 -2.092065763 -1.927741820 -2.144800469 Z" fill="none" stroke="#222" stroke-width="0.01" />
<path d="M -1.898046039 -1.711476176 -2.096641715 -1.454212192 -2.036284523 -1.437986923 -2.233971422 -1.232253746 -2.137399914 -1.206293316 -2.443729759 -1.029765623 -2.178158114 -0.958374440 -2.230078975 -0.765231425 -2.085221713 -0.726290779 -2.033300852 -0.919433794 -1.767729207 -0.848042610 -1.944256899 -1.154372455 -1.847685392 -1.128412024 -1.915570138 -1.405536385 -1.855212946 -1.389311116 Z" fill="none" stroke="#222" stroke-width="0.01" />
<rect x="-3.415944658" y="-3.061184319" width="2.334893540" height="2.334893540" fill="none" stroke="#000" stroke-width="0.01" />
</g>
<text x="500" y="1472" font-family="monospace" font-size="12">sunflower</text>
<g transform="translate(960.000 1900.000) scale(85.067137888 -85.067137888) translate(4.616362739 4.648393410)">
<path d="M -2.577548579 -2.276050748 -2.452548579 -2.576050748 -2.515048579 -2.576050748 -2.377548579 -2.826050748 -2.477548579 -2.826050748 -2.227548579 -3.076050748 -2.502548579 -3.076050748 -2.502548579 -3.276050748 -2.652548579 -3.276050748 -2.652548579 -3.076050748 -2.927548579 -3.076050748 -2.677548579 -2.826050748 -2.777548579 -2.826050748 -2.640048579 -2.576050748 -2.702548579 -2.576050748 Z" fill="none" stroke="#222" stroke-width="0.01" />
<path d="M -2.125955072 -3.627644255 -2.250955072 -3.327644255 -2.188455072 -3.327644255 -2.325955072 -3.077644255 -2.225955072 -3.077644255 -2.475955072 -2.827644255 -2.200955072 -2.827644255 -2.200955072 -2.627644255 -2.050955072 -2.627644255 -2.050955072 -2.827644255 -1.775955072 -2.827644255 -2.025955072 -3.077644255 -1.925955072 -3.077644255 -2.063455072 -3.327644255 -2.000955072 -3.327644255 Z" fill="none" stroke="#222" stroke-width="0.01" />
<path d="M -1.976679522 -2.794562736 -2.101679522 -2.494562736 -2.039179522 -2.494562736 -2.176679522 -2.244562736 -2.076679522 -2.244562736 -2.326679522 -1.994562736 -2.051679522 -1.994562736 -2.051679522 -1.794562736 -1.901679522 -1.794562736 -1.901679522 -1.994562736 -1.626679522 -1.994562736 -1.876679522 -2.244562736 -1.776679522 -2.244562736 -1.914179522 -2.494562736 -1.851679522 -2.494562736 Z" fill="none" stroke="#222" stroke-width="0.01" />
<path d="M -1.464577184 -1.515499174 -1.339577184 -1.815499174 -1.402077184 -1.815499174 -1.264577184 -2.065499174 -1.364577184 -2.065499174 -1.114577184 -2.315499174 -1.389577184 -2.315499174 -1.389577184 -2.515499174 -1.539577184 -2.515499174 -1.539577184 -2.315499174 -1.814577184 -2.315499174 -1.564577184 -2.065499174 -1.664577184 -2.065499174 -1.527077184 -1.815499174 -1.589577184 -1.815499174 Z" fill="none" stroke="#222" stroke-width="0.01" />
<path d="M -1.920134172 -2.705415161 -1.620134172 -2.580415161 -1.620134172 -2.642915161 -1.370134172 -2.505415161 -1.370134172 -2.605415161 -1.120134172 -2.355415161 -1.120134172 -2.630415161 -0.920134172 -2.630415161 -0.920134172 -2.780415161 -1.120134172 -2.780415161 -1.120134172 -3.055415161 -1.370134172 -2.805415161 -1.370134172 -2.905415161 -1.620134172 -2.767915161 -1.620134172 -2.830415161 Z" fill="none" stroke="#222" stroke-width="0.01" />
<path d="M -2.063750884 -2.491317143 -2.369397835 -2.380841164 -2.327179691 -2.334755609 -2.604401826 -2.267271256 -2.536852797 -2.193534369 -2.890067590 -2.209004015 -2.704307759 -2.006227573 -2.851781535 -1.871129514 -2.750457990 -1.760524183 -2.602984215 -1.895622241 -2.417224384 -1.692845800 -2.401754738 -2.046060593 -2.334205708 -1.972323705 -2.242743404 -2.242584500 -2.200525261 -2.196498945 Z" fill="none" stroke="#222" stroke-width="0.01" />
<path d="M -1.758668326 -2.773163835 -1.607919229 -3.061086932 -1.670179919 -3.066551040 -1.511349970 -3.303572763 -1.610967074 -3.312315335 -1.340067882 -3.539501665 -1.614014919 -3.563543739 -1.596529774 -3.762777947 -1.745955430 -3.775891806 -1.763440575 -3.576657598 -2.037387611 -3.600699672 -1.810201282 -3.329800480 -1.909818386 -3.338543053 -1.794701299 -3.077479256 -1.856961989 -3.082943363 Z" fill="none" stroke="#222" stroke-width="0.01" />
<rect x="-3.054037692" y="-3.775891806" width="2.260392632" height="2.260392632" fill="none" stroke="#000" stroke-width="0.01" />
</g>
<text x="960" y="1472" font-family="monospace" font-size="12">core_plus_spiral</text>
<g transform="translate(40.000 2360.000) scale(85.067137888 -85.067137888) translate(4.616362739 4.648393410)">
<path d="M -2.410549830 -1.439289146 -2.285549830 -1.739289146 -2.348049830 -1.739289146 -2.210549830 -1.989289146 -2.310549830 -1.989289146 -2.060549830 -2.239289146 -2.335549830 -2.239289146 -2.335549830 -2.439289146 -2.485549830 -2.439289146 -2.485549830 -2.239289146 -2.760549830 -2.239289146 -2.510549830 -1.989289146 -2.610549830 -1.989289146 -2.473049830 -1.739289146 -2.535549830 -1.739289146 Z" fill="none" stroke="#222" stroke-width="0.01" />
<path d="M -3.747596347 -3.113747620 -3.447596347 -2.988747620 -3.447596347 -3.051247620 -3.197596347 -2.913747620 -3.197596347 -3.013747620 -2.947596347 -2.763747620 -2.947596347 -3.038747620 -2.747596347 -3.038747620 -2.747596347 -3.188747620 -2.947596347 -3.188747620 -2.947596347 -3.463747620 -3.197596347 -3.213747620 -3.197596347 -3.313747620 -3.447596347 -3.176247620 -3.447596347 -3.238747620 Z" fill="none" stroke="#222" stroke-width="0.01" />
<path d="M -2.995768796 -1.554070158 -2.870768796 -1.854070158 -2.933268796 -1.854070158 -2.795768796 -2.104070158 -2.895768796 -2.104070158 -2.645768796 -2.354070158 -2.920768796 -2.354070158 -2.920768796 -2.554070158 -3.070768796 -2.554070158 -3.070768796 -2.354070158 -3.345768796 -2.354070158 -3.095768796 -2.104070158 -3.195768796 -2.104070158 -3.058268796 -1.854070158 -3.120768796 -1.854070158 Z" fill="none" stroke="#222" stroke-width="0.01" />
<path d="M -3.287919046 -2.679070158 -2.987919046 -2.554070158 -2.987919046 -2.616570158 -2.737919046 -2.479070158 -2.737919046 -2.579070158 -2.487919046 -2.329070158 -2.487919046 -2.604070158 -2.287919046 -2.604070158 -2.287919046 -2.754070158 -2.487919046 -2.754070158 -2.487919046 -3.029070158 -2.737919046 -2.779070158 -2.737919046 -2.879070158 -2.987919046 -2.741570158 -2.987919046 -2.804070158 Z" fill="none" stroke="#222" stroke-width="0.01" />
<path d="M -3.153226058 -0.750551644 -3.028226058 -1.050551644 -3.090726058 -1.050551644 -2.953226058 -1.300551644 -3.053226058 -1.300551644 -2.803226058 -1.550551644 -3.078226058 -1.550551644 -3.078226058 -1.750551644 -3.228226058 -1.750551644 -3.228226058 -1.550551644 -3.503226058 -1.550551644 -3.253226058 -1.300551644 -3.353226058 -1.300551644 -3.215726058 -1.050551644 -3.278226058 -1.050551644 Z" fill="none" stroke="#222" stroke-width="0.01" />
<path d="M -4.146550551 -2.544593565 -3.846550551 -2.419593565 -3.846550551 -2.482093565 -3.596550551 -2.344593565 -3.596550551 -2.444593565 -3.346550551 -2.194593565 -3.346550551 -2.469593565 -3.146550551 -2.469593565 -3.146550551 -2.619593565 -3.346550551 -2.619593565 -3.346550551 -2.894593565 -3.596550551 -2.644593565 -3.596550551 -2.744593565 -3.846550551 -2.607093565 -3.846550551 -2.669593565 Z" fill="none" stroke="#222" stroke-width="0.01" />
<path d="M -3.589041925 -1.344593565 -3.464041925 -1.644593565 -3.526541925 -1.644593565 -3.389041925 -1.894593565 -3.489041925 -1.894593565 -3.239041925 -2.144593565 -3.514041925 -2.144593565 -3.514041925 -2.344593565 -3.664041925 -2.344593565 -3.664041925 -2.144593565 -3.939041925 -2.144593565 -3.689041925 -1.894593565 -3.789041925 -1.894593565 -3.651541925 -1.644593565 -3.714041925 -1.644593565 Z" fill="none" stroke="#222" stroke-width="0.01" />
<rect x="-4.460148178" y="-3.463747620" width="2.713195975" height="2.713195975" fill="none" stroke="#000" stroke-width="0.01" />
</g>
<text x="40" y="1932" font-family="monospace" font-size="12">random_box</text>
</svg>
