<svg xmlns="http://www.w3.org/2000/svg" width="1420" height="2400" viewBox="0 0 1420 2400">
<rect x="0" y="0" width="1420" height="2400" fill="white" />
<text x="40" y="30" font-family="monospace" font-size="16">After compactification (center attractor) (n=2)</text>
<g transform="translate(40.000 520.000) scale(184.246614616 -184.246614616) translate(1.097691481 1.086521136)">
<path d="M 0.249999866 0.900000344 0.374999866 0.600000344 0.312499866 0.600000344 0.449999866 0.350000344 0.349999866 0.350000344 0.599999866 0.100000344 0.324999866 0.100000344 0.324999866 -0.099999656 0.174999866 -0.099999656 0.174999866 0.100000344 -0.100000134 0.100000344 0.149999866 0.350000344 0.049999866 0.350000344 0.187499866 0.600000344 0.124999866 0.600000344 Z" fill="none" stroke="#222" stroke-width="0.01" />
<path d="M -0.250000134 0.700000344 -0.125000134 0.400000344 -0.187500134 0.400000344 -0.050000134 0.150000344 -0.150000134 0.150000344 0.099999866 -0.099999656 -0.175000134 -0.099999656 -0.175000134 -0.299999656 -0.325000134 -0.299999656 -0.325000134 -0.099999656 -0.600000134 -0.099999656 -0.350000134 0.150000344 -0.450000134 0.150000344 -0.312500134 0.400000344 -0.375000134 0.400000344 Z" fill="none" stroke="#222" stroke-width="0.01" />
<rect x="-0.600000134" y="-0.299999656" width="1.200000000" height="1.200000000" fill="none" stroke="#000" stroke-width="0.01" />
</g>
<text x="40" y="92" font-family="monospace" font-size="12">centered</text>
<g transform="translate(500.000 520.000) scale(184.246614616 -184.246614616) translate(1.097691481 1.086521136)">
<path d="M -0.249999822 0.700000091 -0.124999822 0.400000091 -0.187499822 0.400000091 -0.049999822 0.150000091 -0.149999822 0.150000091 0.100000178 -0.099999909 -0.174999822 -0.099999909 -0.174999822 -0.299999909 -0.324999822 -0.299999909 -0.324999822 -0.099999909 -0.599999822 -0.099999909 -0.349999822 0.150000091 -0.449999822 0.150000091 -0.312499822 0.400000091 -0.374999822 0.400000091 Z" fill="none" stroke="#222" stroke-width="0.01" />
<path d="M 0.250000178 0.900000091 0.375000178 0.600000091 0.312500178 0.600000091 0.450000178 0.350000091 0.350000178 0.350000091 0.600000178 0.100000091 0.325000178 0.100000091 0.325000178 -0.099999909 0.175000178 -0.099999909 0.175000178 0.100000091 -0.099999822 0.100000091 0.150000178 0.350000091 0.050000178 0.350000091 0.187500178 0.600000091 0.125000178 0.600000091 Z" fill="none" stroke="#222" stroke-width="0.01" />
<rect x="-0.599999822" y="-0.299999909" width="1.200000000" height="1.200000000" fill="none" stroke="#000" stroke-width="0.01" />
</g>
<text x="500" y="92" font-family="monospace" font-size="12">grid</text>
<g transform="translate(960.000 520.000) scale(184.246614616 -184.246614616) translate(1.097691481 1.086521136)">
<path d="M -0.212829847 0.799999789 -0.087829847 0.499999789 -0.150329847 0.499999789 -0.012829847 0.249999789 -0.112829847 0.249999789 0.137170153 -0.000000211 -0.137829847 -0.000000211 -0.137829847 -0.200000211 -0.287829847 -0.200000211 -0.287829847 -0.000000211 -0.562829847 -0.000000211 -0.312829847 0.249999789 -0.412829847 0.249999789 -0.275329847 0.499999789 -0.337829847 0.499999789 Z" fill="none" stroke="#222" stroke-width="0.01" />
<path d="M 0.212829679 -0.800000211 0.087829679 -0.500000211 0.150329679 -0.500000211 0.012829679 -0.250000211 0.112829679 -0.250000211 -0.137170321 -0.000000211 0.137829679 -0.000000211 0.137829679 0.199999789 0.287829679 0.199999789 0.287829679 -0.000000211 0.562829679 -0.000000211 0.312829679 -0.250000211 0.412829679 -0.250000211 0.275329679 -0.500000211 0.337829679 -0.500000211 Z" fill="none" stroke="#222" stroke-width="0.01" />
<rect x="-0.800000084" y="-0.800000211" width="1.600000000" height="1.600000000" fill="none" stroke="#000" stroke-width="0.01" />
</g>
<text x="960" y="92" font-family="monospace" font-size="12">grid_alt180</text>
<g transform="translate(40.000 980.000) scale(184.246614616 -184.246614616) translate(1.097691481 1.086521136)">
<path d="M 0.080927079 0.716226334 -0.042816607 0.415705952 -0.087010781 0.459900126 -0.166560294 0.185896248 -0.237270972 0.256606927 -0.237270972 -0.096946464 -0.431725337 0.097507901 -0.573146693 -0.043913455 -0.679212710 0.062152562 -0.537791354 0.203573918 -0.732245719 0.398028283 -0.378692328 0.398028283 -0.449403007 0.468738961 -0.175399129 0.548288474 -0.219593303 0.592482648 Z" fill="none" stroke="#222" stroke-width="0.01" />
<path d="M -0.080926989 0.415144367 0.219593393 0.291400680 0.175399219 0.247206506 0.449403097 0.167656993 0.378692419 0.096946315 0.732245809 0.096946315 0.537791445 -0.097508050 0.679212801 -0.238929406 0.573146784 -0.344995423 0.431725427 -0.203574067 0.237271063 -0.398028432 0.237271063 -0.044475041 0.166560385 -0.115185719 0.087010872 0.158818159 0.042816698 0.114623985 Z" fill="none" stroke="#222" stroke-width="0.01" />
<rect x="-0.732245719" y="-0.573146813" width="1.464491528" height="1.464491528" fill="none" stroke="#000" stroke-width="0.01" />
</g>
<text x="40" y="552" font-family="monospace" font-size="12">grid_alt45</text>
<g transform="translate(500.000 980.000) scale(184.246614616 -184.246614616) translate(1.097691481 1.086521136)">
<path d="M -0.690072379 0.583443105 -0.389551997 0.459699418 -0.433746171 0.415505244 -0.159742293 0.335955731 -0.230452971 0.265245053 0.123100420 0.265245053 -0.071353945 0.070790688 0.070067411 -0.070630668 -0.035998606 -0.176696685 -0.177419962 -0.035275329 -0.371874327 -0.229729694 -0.371874327 0.123823697 -0.442585005 0.053113019 -0.522134518 0.327116896 -0.566328692 0.282922723 Z" fill="none" stroke="#222" stroke-width="0.01" />
<path d="M 0.690073010 -0.583443330 0.389552628 -0.459699644 0.433746801 -0.415505470 0.159742924 -0.335955957 0.230453602 -0.265245279 -0.123099789 -0.265245279 0.071354576 -0.070790914 -0.070066780 0.070630442 0.035999237 0.176696459 0.177420593 0.035275103 0.371874958 0.229729468 0.371874958 -0.123823923 0.442585636 -0.053113245 0.522135149 -0.327117122 0.566329323 -0.282922948 Z" fill="none" stroke="#222" stroke-width="0.01" />
<rect x="-0.690072379" y="-0.690072807" width="1.380145388" height="1.380145388" fill="none" stroke="#000" stroke-width="0.01" />
</g>
<text x="500" y="552" font-family="monospace" font-size="12">alternating</text>
<g transform="translate(960.000 980.000) scale(184.246614616 -184.246614616) translate(1.097691481 1.086521136)">
<path d="M -0.212830081 0.799999971 -0.087830081 0.499999971 -0.150330081 0.499999971 -0.012830081 0.249999971 -0.112830081 0.249999971 0.137169919 -0.000000029 -0.137830081 -0.000000029 -0.137830081 -0.200000029 -0.287830081 -0.200000029 -0.287830081 -0.000000029 -0.562830081 -0.000000029 -0.312830081 0.249999971 -0.412830081 0.249999971 -0.275330081 0.499999971 -0.337830081 0.499999971 Z" fill="none" stroke="#222" stroke-width="0.01" />
<path d="M 0.212829483 -0.800000029 0.087829483 -0.500000029 0.150329483 -0.500000029 0.012829483 -0.250000029 0.112829483 -0.250000029 -0.137170517 -0.000000029 0.137829483 -0.000000029 0.137829483 0.199999971 0.287829483 0.199999971 0.287829483 -0.000000029 0.562829483 -0.000000029 0.312829483 -0.250000029 0.412829483 -0.250000029 0.275329483 -0.500000029 0.337829483 -0.500000029 Z" fill="none" stroke="#222" stroke-width="0.01" />
<rect x="-0.800000299" y="-0.800000029" width="1.600000000" height="1.600000000" fill="none" stroke="#000" stroke-width="0.01" />
</g>
<text x="960" y="552" font-family="monospace" font-size="12">sheared_brick</text>
<g transform="translate(40.000 1440.000) scale(184.246614616 -184.246614616) translate(1.097691481 1.086521136)">
<path d="M -0.636892093 0.318198116 -0.336371711 0.194454430 -0.380565885 0.150260256 -0.106562007 0.070710743 -0.177272686 0.000000065 0.176280705 0.000000065 -0.018173660 -0.194454300 0.123247696 -0.335875656 0.017181679 -0.441941673 -0.124239677 -0.300520317 -0.318694042 -0.494974682 -0.318694042 -0.141421291 -0.389404720 -0.212131970 -0.468954233 0.061871908 -0.513148407 0.017677734 Z" fill="none" stroke="#222" stroke-width="0.01" />
<path d="M 0.636892266 -0.318197987 0.336371884 -0.194454300 0.380566057 -0.150260126 0.106562180 -0.070710613 0.177272858 0.000000065 -0.176280533 0.000000065 0.018173832 0.194454430 -0.123247524 0.335875786 -0.017181507 0.441941803 0.124239849 0.300520447 0.318694214 0.494974812 0.318694214 0.141421421 0.389404892 0.212132099 0.468954405 -0.061871779 0.513148579 -0.017677605 Z" fill="none" stroke="#222" stroke-width="0.01" />
<rect x="-0.636892093" y="-0.636892115" width="1.273784359" height="1.273784359" fill="none" stroke="#000" stroke-width="0.01" />
</g>
<text x="40" y="1012" font-family="monospace" font-size="12">diamond_lattice</text>
<g transform="translate(500.000 1440.000) scale(184.246614616 -184.246614616) translate(1.097691481 1.086521136)">
<path d="M -0.250000176 0.706511356 -0.125000176 0.406511356 -0.187500176 0.406511356 -0.050000176 0.156511356 -0.150000176 0.156511356 0.099999824 -0.093488644 -0.175000176 -0.093488644 -0.175000176 -0.293488644 -0.325000176 -0.293488644 -0.325000176 -0.093488644 -0.600000176 -0.093488644 -0.350000176 0.156511356 -0.450000176 0.156511356 -0.312500176 0.406511356 -0.375000176 0.406511356 Z" fill="none" stroke="#222" stroke-width="0.01" />
<path d="M 0.249999824 0.906511356 0.374999824 0.606511356 0.312499824 0.606511356 0.449999824 0.356511356 0.349999824 0.356511356 0.599999824 0.106511356 0.324999824 0.106511356 0.324999824 -0.093488644 0.174999824 -0.093488644 0.174999824 0.106511356 -0.100000176 0.106511356 0.149999824 0.356511356 0.049999824 0.356511356 0.187499824 0.606511356 0.124999824 0.606511356 Z" fill="none" stroke="#222" stroke-width="0.01" />
<rect x="-0.600000176" y="-0.293488644" width="1.200000000" height="1.200000000" fill="none" stroke="#000" stroke-width="0.01" />
</g>
<text x="500" y="1012" font-family="monospace" font-size="12">herringbone</text>
<g transform="translate(960.000 1440.000) scale(184.246614616 -184.246614616) translate(1.097691481 1.086521136)">
<path d="M 0.212777198 0.800000110 0.337777198 0.500000110 0.275277198 0.500000110 0.412777198 0.250000110 0.312777198 0.250000110 0.562777198 0.000000110 0.287777198 0.000000110 0.287777198 -0.199999890 0.137777198 -0.199999890 0.137777198 0.000000110 -0.137222802 0.000000110 0.112777198 0.250000110 0.012777198 0.250000110 0.150277198 0.500000110 0.087777198 0.500000110 Z" fill="none" stroke="#222" stroke-width="0.01" />
<path d="M -0.212777068 -0.799999890 -0.337777068 -0.499999890 -0.275277068 -0.499999890 -0.412777068 -0.249999890 -0.312777068 -0.249999890 -0.562777068 0.000000110 -0.287777068 0.000000110 -0.287777068 0.200000110 -0.137777068 0.200000110 -0.137777068 0.000000110 0.137222932 0.000000110 -0.112777068 -0.249999890 -0.012777068 -0.249999890 -0.150277068 -0.499999890 -0.087777068 -0.499999890 Z" fill="none" stroke="#222" stroke-width="0.01" />
<rect x="-0.799999935" y="-0.799999890" width="1.600000000" height="1.600000000" fill="none" stroke="#000" stroke-width="0.01" />
</g>
<text x="960" y="1012" font-family="monospace" font-size="12">circle_ring</text>
<g transform="translate(40.000 1900.000) scale(184.246614616 -184.246614616) translate(1.097691481 1.086521136)">
<path d="M -0.264472700 0.654660284 -0.139472700 0.354660284 -0.201972700 0.354660284 -0.064472700 0.104660284 -0.164472700 0.104660284 0.085527300 -0.145339716 -0.189472700 -0.145339716 -0.189472700 -0.345339716 -0.339472700 -0.345339716 -0.339472700 -0.145339716 -0.614472700 -0.145339716 -0.364472700 0.104660284 -0.464472700 0.104660284 -0.326972700 0.354660284 -0.389472700 0.354660284 Z" fill="none" stroke="#222" stroke-width="0.01" />
<path d="M -0.295571434 0.719975241 0.012310581 0.615890348 -0.028938366 0.568935322 0.249629418 0.507240591 0.183631103 0.432112551 0.536446991 0.454936866 0.354951626 0.248334754 0.505207707 0.116338125 0.406210235 0.003646064 0.255954154 0.135642694 0.074458789 -0.070959418 0.051634474 0.281856470 -0.014363840 0.206728429 -0.111436259 0.475025272 -0.152685206 0.428070246 Z" fill="none" stroke="#222" stroke-width="0.01" />
<rect x="-0.614472700" y="-0.388142083" width="1.150919691" height="1.150919691" fill="none" stroke="#000" stroke-width="0.01" />
</g>
<text x="40" y="1472" font-family="monospace" font-size="12">spiral</text>
<g transform="translate(500.000 1900.000) scale(184.246614616 -184.246614616) translate(1.097691481 1.086521136)">
<path d="M -0.810762886 -0.273796317 -0.510762886 -0.148796317 -0.510762886 -0.211296317 -0.260762886 -0.073796317 -0.260762886 -0.173796317 -0.010762886 0.076203683 -0.010762886 -0.198796317 0.189237114 -0.198796317 0.189237114 -0.348796317 -0.010762886 -0.348796317 -0.010762886 -0.623796317 -0.260762886 -0.373796317 -0.260762886 -0.473796317 -0.510762886 -0.336296317 -0.510762886 -0.398796317 Z" fill="none" stroke="#222" stroke-width="0.01" />
<path d="M 0.547447607 -0.217851615 0.241800657 -0.107375637 0.284018801 -0.061290082 0.006796666 0.006194271 0.074345695 0.079931159 -0.278869098 0.064461513 -0.093109267 0.267237954 -0.240583043 0.402336013 -0.139259499 0.512941345 0.008214277 0.377843286 0.193974108 0.580619727 0.209443754 0.227404934 0.276992783 0.301141822 0.368455087 0.030881028 0.410673231 0.076966583 Z" fill="none" stroke="#222" stroke-width="0.01" />
<rect x="-0.810762886" y="-0.700693541" width="1.358210493" height="1.358210493" fill="none" stroke="#000" stroke-width="0.01" />
</g>
<text x="500" y="1472" font-family="monospace" font-size="12">sunflower</text>
<g transform="translate(960.000 1900.000) scale(184.246614616 -184.246614616) translate(1.097691481 1.086521136)">
<path d="M -0.811170556 -0.273814095 -0.511170556 -0.148814095 -0.511170556 -0.211314095 -0.261170556 -0.073814095 -0.261170556 -0.173814095 -0.011170556 0.076185905 -0.011170556 -0.198814095 0.188829444 -0.198814095 0.188829444 -0.348814095 -0.011170556 -0.348814095 -0.011170556 -0.623814095 -0.261170556 -0.373814095 -0.261170556 -0.473814095 -0.511170556 -0.336314095 -0.511170556 -0.398814095 Z" fill="none" stroke="#222" stroke-width="0.01" />
<path d="M 0.547856207 -0.217833643 0.242209257 -0.107357664 0.284427400 -0.061272109 0.007205265 0.006212243 0.074754295 0.079949131 -0.278460499 0.064479485 -0.092700668 0.267255927 -0.240174443 0.402353986 -0.138850899 0.512959317 0.008622877 0.377861258 0.194382707 0.580637700 0.209852353 0.227422907 0.277401383 0.301159795 0.368863687 0.030899000 0.411081830 0.076984555 Z" fill="none" stroke="#222" stroke-width="0.01" />
<rect x="-0.811170556" y="-0.701101579" width="1.359026763" height="1.359026763" fill="none" stroke="#000" stroke-width="0.01" />
</g>
<text x="960" y="1472" font-family="monospace" font-size="12">core_plus_spiral</text>
<g transform="translate(40.000 2360.000) scale(184.246614616 -184.246614616) translate(1.097691481 1.086521136)">
<path d="M 0.185354196 0.430121787 0.310354196 0.130121787 0.247854196 0.130121787 0.385354196 -0.119878213 0.285354196 -0.119878213 0.535354196 -0.369878213 0.260354196 -0.369878213 0.260354196 -0.569878213 0.110354196 -0.569878213 0.110354196 -0.369878213 -0.164645804 -0.369878213 0.085354196 -0.119878213 -0.014645804 -0.119878213 0.122854196 0.130121787 0.060354196 0.130121787 Z" fill="none" stroke="#222" stroke-width="0.01" />
<path d="M -0.728926157 0.505848941 -0.428926157 0.630848941 -0.428926157 0.568348941 -0.178926157 0.705848941 -0.178926157 0.605848941 0.071073843 0.855848941 0.071073843 0.580848941 0.271073843 0.580848941 0.271073843 0.430848941 0.071073843 0.430848941 0.071073843 0.155848941 -0.178926157 0.405848941 -0.178926157 0.305848941 -0.428926157 0.443348941 -0.428926157 0.380848941 Z" fill="none" stroke="#222" stroke-width="0.01" />
<rect x="-0.809649558" y="-0.569878213" width="1.425727154" height="1.425727154" fill="none" stroke="#000" stroke-width="0.01" />
</g>
<text x="40" y="1932" font-family="monospace" font-size="12">random_box</text>
</svg>
