<svg xmlns="http://www.w3.org/2000/svg" width="1420" height="2400" viewBox="0 0 1420 2400">
<rect x="0" y="0" width="1420" height="2400" fill="white" />
<text x="40" y="30" font-family="monospace" font-size="16">Warm starts (raw) (n=2)</text>
<g transform="translate(40.000 520.000) scale(133.485408879 -133.485408879) translate(1.573205654 1.146304228)">
<path d="M 0.000000000 0.800000000 0.125000000 0.500000000 0.062500000 0.500000000 0.200000000 0.250000000 0.100000000 0.250000000 0.350000000 0.000000000 0.075000000 0.000000000 0.075000000 -0.200000000 -0.075000000 -0.200000000 -0.075000000 0.000000000 -0.350000000 0.000000000 -0.100000000 0.250000000 -0.200000000 0.250000000 -0.062500000 0.500000000 -0.125000000 0.500000000 Z" fill="none" stroke="#222" stroke-width="0.01" />
<path d="M 0.000000000 0.800000000 0.125000000 0.500000000 0.062500000 0.500000000 0.200000000 0.250000000 0.100000000 0.250000000 0.350000000 0.000000000 0.075000000 0.000000000 0.075000000 -0.200000000 -0.075000000 -0.200000000 -0.075000000 0.000000000 -0.350000000 0.000000000 -0.100000000 0.250000000 -0.200000000 0.250000000 -0.062500000 0.500000000 -0.125000000 0.500000000 Z" fill="none" stroke="#222" stroke-width="0.01" />
<rect x="-0.500000000" y="-0.200000000" width="1.000000000" height="1.000000000" fill="none" stroke="#000" stroke-width="0.01" />
</g>
<text x="40" y="92" font-family="monospace" font-size="12">centered</text>
<g transform="translate(500.000 520.000) scale(133.485408879 -133.485408879) translate(1.573205654 1.146304228)">
<path d="M -0.360000000 0.800000000 -0.235000000 0.500000000 -0.297500000 0.500000000 -0.160000000 0.250000000 -0.260000000 0.250000000 -0.010000000 0.000000000 -0.285000000 0.000000000 -0.285000000 -0.200000000 -0.435000000 -0.200000000 -0.435000000 0.000000000 -0.710000000 0.000000000 -0.460000000 0.250000000 -0.560000000 0.250000000 -0.422500000 0.500000000 -0.485000000 0.500000000 Z" fill="none" stroke="#222" stroke-width="0.01" />
<path d="M 0.360000000 0.800000000 0.485000000 0.500000000 0.422500000 0.500000000 0.560000000 0.250000000 0.460000000 0.250000000 0.710000000 0.000000000 0.435000000 0.000000000 0.435000000 -0.200000000 0.285000000 -0.200000000 0.285000000 0.000000000 0.010000000 0.000000000 0.260000000 0.250000000 0.160000000 0.250000000 0.297500000 0.500000000 0.235000000 0.500000000 Z" fill="none" stroke="#222" stroke-width="0.01" />
<rect x="-0.710000000" y="-0.410000000" width="1.420000000" height="1.420000000" fill="none" stroke="#000" stroke-width="0.01" />
</g>
<text x="500" y="92" font-family="monospace" font-size="12">grid</text>
<g transform="translate(960.000 520.000) scale(133.485408879 -133.485408879) translate(1.573205654 1.146304228)">
<path d="M -0.360000000 0.800000000 -0.235000000 0.500000000 -0.297500000 0.500000000 -0.160000000 0.250000000 -0.260000000 0.250000000 -0.010000000 0.000000000 -0.285000000 0.000000000 -0.285000000 -0.200000000 -0.435000000 -0.200000000 -0.435000000 0.000000000 -0.710000000 0.000000000 -0.460000000 0.250000000 -0.560000000 0.250000000 -0.422500000 0.500000000 -0.485000000 0.500000000 Z" fill="none" stroke="#222" stroke-width="0.01" />
<path d="M 0.360000000 -0.800000000 0.235000000 -0.500000000 0.297500000 -0.500000000 0.160000000 -0.250000000 0.260000000 -0.250000000 0.010000000 0.000000000 0.285000000 0.000000000 0.285000000 0.200000000 0.435000000 0.200000000 0.435000000 -0.000000000 0.710000000 -0.000000000 0.460000000 -0.250000000 0.560000000 -0.250000000 0.422500000 -0.500000000 0.485000000 -0.500000000 Z" fill="none" stroke="#222" stroke-width="0.01" />
<rect x="-0.800000000" y="-0.800000000" width="1.600000000" height="1.600000000" fill="none" stroke="#000" stroke-width="0.01" />
</g>
<text x="960" y="92" font-family="monospace" font-size="12">grid_alt180</text>
<g transform="translate(40.000 980.000) scale(133.485408879 -133.485408879) translate(1.573205654 1.146304228)">
<path d="M 0.155685425 0.565685425 0.031941738 0.265165043 -0.012252436 0.309359217 -0.091801948 0.035355339 -0.162512627 0.106066017 -0.162512627 -0.247487373 -0.356966991 -0.053033009 -0.498388348 -0.194454365 -0.604454365 -0.088388348 -0.463033009 0.053033009 -0.657487373 0.247487373 -0.303933983 0.247487373 -0.374644661 0.318198052 -0.100640783 0.397747564 -0.144834957 0.441941738 Z" fill="none" stroke="#222" stroke-width="0.01" />
<path d="M -0.155685425 0.565685425 0.144834957 0.441941738 0.100640783 0.397747564 0.374644661 0.318198052 0.303933983 0.247487373 0.657487373 0.247487373 0.463033009 0.053033009 0.604454365 -0.088388348 0.498388348 -0.194454365 0.356966991 -0.053033009 0.162512627 -0.247487373 0.162512627 0.106066017 0.091801948 0.035355339 0.012252436 0.309359217 -0.031941738 0.265165043 Z" fill="none" stroke="#222" stroke-width="0.01" />
<rect x="-0.657487373" y="-0.498388348" width="1.314974747" height="1.314974747" fill="none" stroke="#000" stroke-width="0.01" />
</g>
<text x="40" y="552" font-family="monospace" font-size="12">grid_alt45</text>
<g transform="translate(500.000 980.000) scale(133.485408879 -133.485408879) translate(1.573205654 1.146304228)">
<path d="M -0.975685425 0.565685425 -0.675165043 0.441941738 -0.719359217 0.397747564 -0.445355339 0.318198052 -0.516066017 0.247487373 -0.162512627 0.247487373 -0.356966991 0.053033009 -0.215545635 -0.088388348 -0.321611652 -0.194454365 -0.463033009 -0.053033009 -0.657487373 -0.247487373 -0.657487373 0.106066017 -0.728198052 0.035355339 -0.807747564 0.309359217 -0.851941738 0.265165043 Z" fill="none" stroke="#222" stroke-width="0.01" />
<path d="M 0.975685425 -0.565685425 0.675165043 -0.441941738 0.719359217 -0.397747564 0.445355339 -0.318198052 0.516066017 -0.247487373 0.162512627 -0.247487373 0.356966991 -0.053033009 0.215545635 0.088388348 0.321611652 0.194454365 0.463033009 0.053033009 0.657487373 0.247487373 0.657487373 -0.106066017 0.728198052 -0.035355339 0.807747564 -0.309359217 0.851941738 -0.265165043 Z" fill="none" stroke="#222" stroke-width="0.01" />
<rect x="-0.975685425" y="-0.975685425" width="1.951370850" height="1.951370850" fill="none" stroke="#000" stroke-width="0.01" />
</g>
<text x="500" y="552" font-family="monospace" font-size="12">alternating</text>
<g transform="translate(960.000 980.000) scale(133.485408879 -133.485408879) translate(1.573205654 1.146304228)">
<path d="M -0.360000000 0.800000000 -0.235000000 0.500000000 -0.297500000 0.500000000 -0.160000000 0.250000000 -0.260000000 0.250000000 -0.010000000 0.000000000 -0.285000000 0.000000000 -0.285000000 -0.200000000 -0.435000000 -0.200000000 -0.435000000 0.000000000 -0.710000000 0.000000000 -0.460000000 0.250000000 -0.560000000 0.250000000 -0.422500000 0.500000000 -0.485000000 0.500000000 Z" fill="none" stroke="#222" stroke-width="0.01" />
<path d="M 0.360000000 -0.800000000 0.235000000 -0.500000000 0.297500000 -0.500000000 0.160000000 -0.250000000 0.260000000 -0.250000000 0.010000000 0.000000000 0.285000000 0.000000000 0.285000000 0.200000000 0.435000000 0.200000000 0.435000000 -0.000000000 0.710000000 -0.000000000 0.460000000 -0.250000000 0.560000000 -0.250000000 0.422500000 -0.500000000 0.485000000 -0.500000000 Z" fill="none" stroke="#222" stroke-width="0.01" />
<rect x="-0.800000000" y="-0.800000000" width="1.600000000" height="1.600000000" fill="none" stroke="#000" stroke-width="0.01" />
</g>
<text x="960" y="552" font-family="monospace" font-size="12">sheared_brick</text>
<g transform="translate(40.000 1440.000) scale(133.485408879 -133.485408879) translate(1.573205654 1.146304228)">
<path d="M -0.740626238 0.315844051 -0.440105856 0.192100365 -0.484300030 0.147906191 -0.210296152 0.068356678 -0.281006830 -0.002354000 0.072546560 -0.002354000 -0.121907804 -0.196808365 0.019513552 -0.338229721 -0.086552465 -0.444295738 -0.227973822 -0.302874382 -0.422428187 -0.497328747 -0.422428187 -0.143775356 -0.493138865 -0.214486034 -0.572688378 0.059517843 -0.616882551 0.015323669 Z" fill="none" stroke="#222" stroke-width="0.01" />
<path d="M 0.740626238 -0.315844051 0.440105856 -0.192100365 0.484300030 -0.147906191 0.210296152 -0.068356678 0.281006830 0.002354000 -0.072546560 0.002354000 0.121907804 0.196808365 -0.019513552 0.338229721 0.086552465 0.444295738 0.227973822 0.302874382 0.422428187 0.497328747 0.422428187 0.143775356 0.493138865 0.214486034 0.572688378 -0.059517843 0.616882551 -0.015323669 Z" fill="none" stroke="#222" stroke-width="0.01" />
<rect x="-0.740626238" y="-0.740626238" width="1.481252476" height="1.481252476" fill="none" stroke="#000" stroke-width="0.01" />
</g>
<text x="40" y="1012" font-family="monospace" font-size="12">diamond_lattice</text>
<g transform="translate(500.000 1440.000) scale(133.485408879 -133.485408879) translate(1.573205654 1.146304228)">
<path d="M -0.410000000 0.800000000 -0.285000000 0.500000000 -0.347500000 0.500000000 -0.210000000 0.250000000 -0.310000000 0.250000000 -0.060000000 0.000000000 -0.335000000 0.000000000 -0.335000000 -0.200000000 -0.485000000 -0.200000000 -0.485000000 0.000000000 -0.760000000 0.000000000 -0.510000000 0.250000000 -0.610000000 0.250000000 -0.472500000 0.500000000 -0.535000000 0.500000000 Z" fill="none" stroke="#222" stroke-width="0.01" />
<path d="M 0.410000000 0.877600000 0.535000000 0.577600000 0.472500000 0.577600000 0.610000000 0.327600000 0.510000000 0.327600000 0.760000000 0.077600000 0.485000000 0.077600000 0.485000000 -0.122400000 0.335000000 -0.122400000 0.335000000 0.077600000 0.060000000 0.077600000 0.310000000 0.327600000 0.210000000 0.327600000 0.347500000 0.577600000 0.285000000 0.577600000 Z" fill="none" stroke="#222" stroke-width="0.01" />
<rect x="-0.760000000" y="-0.421200000" width="1.520000000" height="1.520000000" fill="none" stroke="#000" stroke-width="0.01" />
</g>
<text x="500" y="1012" font-family="monospace" font-size="12">herringbone</text>
<g transform="translate(960.000 1440.000) scale(133.485408879 -133.485408879) translate(1.573205654 1.146304228)">
<path d="M 0.876901426 0.800000000 1.001901426 0.500000000 0.939401426 0.500000000 1.076901426 0.250000000 0.976901426 0.250000000 1.226901426 0.000000000 0.951901426 0.000000000 0.951901426 -0.200000000 0.801901426 -0.200000000 0.801901426 0.000000000 0.526901426 0.000000000 0.776901426 0.250000000 0.676901426 0.250000000 0.814401426 0.500000000 0.751901426 0.500000000 Z" fill="none" stroke="#222" stroke-width="0.01" />
<path d="M -0.876901426 -0.800000000 -1.001901426 -0.500000000 -0.939401426 -0.500000000 -1.076901426 -0.250000000 -0.976901426 -0.250000000 -1.226901426 0.000000000 -0.951901426 0.000000000 -0.951901426 0.200000000 -0.801901426 0.200000000 -0.801901426 0.000000000 -0.526901426 0.000000000 -0.776901426 -0.250000000 -0.676901426 -0.250000000 -0.814401426 -0.500000000 -0.751901426 -0.500000000 Z" fill="none" stroke="#222" stroke-width="0.01" />
<rect x="-1.226901426" y="-1.226901426" width="2.453802852" height="2.453802852" fill="none" stroke="#000" stroke-width="0.01" />
</g>
<text x="960" y="1012" font-family="monospace" font-size="12">circle_ring</text>
<g transform="translate(40.000 1900.000) scale(133.485408879 -133.485408879) translate(1.573205654 1.146304228)">
<path d="M 0.000000000 0.800000000 0.125000000 0.500000000 0.062500000 0.500000000 0.200000000 0.250000000 0.100000000 0.250000000 0.350000000 0.000000000 0.075000000 0.000000000 0.075000000 -0.200000000 -0.075000000 -0.200000000 -0.075000000 0.000000000 -0.350000000 0.000000000 -0.100000000 0.250000000 -0.200000000 0.250000000 -0.062500000 0.500000000 -0.125000000 0.500000000 Z" fill="none" stroke="#222" stroke-width="0.01" />
<path d="M -0.356830560 0.805960267 -0.048948545 0.701875373 -0.090197492 0.654920348 0.188370292 0.593225617 0.122371977 0.518097577 0.475187865 0.540921892 0.293692500 0.334319780 0.443948581 0.202323151 0.344951109 0.089631090 0.194695028 0.221627720 0.013199663 0.015025608 -0.009624652 0.367841496 -0.075622966 0.292713455 -0.172695385 0.561010298 -0.213944332 0.514055272 Z" fill="none" stroke="#222" stroke-width="0.01" />
<rect x="-0.443801481" y="-0.200000000" width="1.005960267" height="1.005960267" fill="none" stroke="#000" stroke-width="0.01" />
</g>
<text x="40" y="1472" font-family="monospace" font-size="12">spiral</text>
<g transform="translate(500.000 1900.000) scale(133.485408879 -133.485408879) translate(1.573205654 1.146304228)">
<path d="M -0.800000000 0.000000000 -0.500000000 0.125000000 -0.500000000 0.062500000 -0.250000000 0.200000000 -0.250000000 0.100000000 0.000000000 0.350000000 0.000000000 0.075000000 0.200000000 0.075000000 0.200000000 -0.075000000 -0.000000000 -0.075000000 -0.000000000 -0.350000000 -0.250000000 -0.100000000 -0.250000000 -0.200000000 -0.500000000 -0.062500000 -0.500000000 -0.125000000 Z" fill="none" stroke="#222" stroke-width="0.01" />
<path d="M 0.272826485 -0.249931409 -0.032820465 -0.139455430 0.009397678 -0.093369875 -0.267824457 -0.025885523 -0.200275427 0.047851365 -0.553490221 0.032381719 -0.367730390 0.235158161 -0.515204165 0.370256220 -0.413880621 0.480861551 -0.266406846 0.345763492 -0.080647015 0.548539934 -0.065177369 0.195325141 0.002371661 0.269062029 0.093833965 -0.001198766 0.136052108 0.044886789 Z" fill="none" stroke="#222" stroke-width="0.01" />
<rect x="-0.800000000" y="-0.437143276" width="1.072826485" height="1.072826485" fill="none" stroke="#000" stroke-width="0.01" />
</g>
<text x="500" y="1472" font-family="monospace" font-size="12">sunflower</text>
<g transform="translate(960.000 1900.000) scale(133.485408879 -133.485408879) translate(1.573205654 1.146304228)">
<path d="M -0.800000000 0.000000000 -0.500000000 0.125000000 -0.500000000 0.062500000 -0.250000000 0.200000000 -0.250000000 0.100000000 0.000000000 0.350000000 0.000000000 0.075000000 0.200000000 0.075000000 0.200000000 -0.075000000 -0.000000000 -0.075000000 -0.000000000 -0.350000000 -0.250000000 -0.100000000 -0.250000000 -0.200000000 -0.500000000 -0.062500000 -0.500000000 -0.125000000 Z" fill="none" stroke="#222" stroke-width="0.01" />
<path d="M 0.272826485 -0.249931409 -0.032820465 -0.139455430 0.009397678 -0.093369875 -0.267824457 -0.025885523 -0.200275427 0.047851365 -0.553490221 0.032381719 -0.367730390 0.235158161 -0.515204165 0.370256220 -0.413880621 0.480861551 -0.266406846 0.345763492 -0.080647015 0.548539934 -0.065177369 0.195325141 0.002371661 0.269062029 0.093833965 -0.001198766 0.136052108 0.044886789 Z" fill="none" stroke="#222" stroke-width="0.01" />
<rect x="-0.800000000" y="-0.437143276" width="1.072826485" height="1.072826485" fill="none" stroke="#000" stroke-width="0.01" />
</g>
<text x="960" y="1472" font-family="monospace" font-size="12">core_plus_spiral</text>
<g transform="translate(40.000 2360.000) scale(133.485408879 -133.485408879) translate(1.573205654 1.146304228)">
<path d="M 0.722140523 0.854180056 0.847140523 0.554180056 0.784640523 0.554180056 0.922140523 0.304180056 0.822140523 0.304180056 1.072140523 0.054180056 0.797140523 0.054180056 0.797140523 -0.145819944 0.647140523 -0.145819944 0.647140523 0.054180056 0.372140523 0.054180056 0.622140523 0.304180056 0.522140523 0.304180056 0.659640523 0.554180056 0.597140523 0.554180056 Z" fill="none" stroke="#222" stroke-width="0.01" />
<path d="M 0.005876198 0.756050736 0.305876198 0.881050736 0.305876198 0.818550736 0.555876198 0.956050736 0.555876198 0.856050736 0.805876198 1.106050736 0.805876198 0.831050736 1.005876198 0.831050736 1.005876198 0.681050736 0.805876198 0.681050736 0.805876198 0.406050736 0.555876198 0.656050736 0.555876198 0.556050736 0.305876198 0.693550736 0.305876198 0.631050736 Z" fill="none" stroke="#222" stroke-width="0.01" />
<rect x="-0.086926979" y="-0.145819944" width="1.251870679" height="1.251870679" fill="none" stroke="#000" stroke-width="0.01" />
</g>
<text x="40" y="1932" font-family="monospace" font-size="12">random_box</text>
</svg>
