<?xml version="1.0" encoding="UTF-8"?>
<svg xmlns="http://www.w3.org/2000/svg" width="1560" height="1000" viewBox="0 0 1560 1000">
<rect x="0" y="0" width="1560" height="1000" fill="white"/>
<text x="12" y="24" font-family="sans-serif" font-size="16" fill="#000">Warm-start comparison (N=2) — shared world scale</text>
<rect x="1.0" y="41.0" width="518.0" height="478.0" fill="none" stroke="#ddd"/>
<text x="12.0" y="62.0" font-family="sans-serif" font-size="14" fill="#000">grid0</text>
<rect x="18.0" y="76.0" width="484.0" height="428.0" fill="none" stroke="#f2f2f2"/>
<rect x="95.44" y="122.98" width="329.13" height="329.13" fill="none" stroke="#888" stroke-width="1.0"/>
<polyline fill="none" stroke="#000" stroke-width="1.1" points="145.09,216.61 162.82,259.17 153.96,259.17 173.46,294.64 159.28,294.64 194.74,330.10 155.73,330.10 155.73,358.48 134.45,358.48 134.45,330.10 95.44,330.10 130.90,294.64 116.72,294.64 136.22,259.17 127.36,259.17 145.09,216.61"/>
<circle cx="145.09" cy="330.10" r="2.2" fill="#000"/>
<polyline fill="none" stroke="#000" stroke-width="1.1" points="374.91,216.61 392.64,259.17 383.78,259.17 403.28,294.64 389.10,294.64 424.56,330.10 385.55,330.10 385.55,358.48 364.27,358.48 364.27,330.10 325.26,330.10 360.72,294.64 346.54,294.64 366.04,259.17 357.18,259.17 374.91,216.61"/>
<circle cx="374.91" cy="330.10" r="2.2" fill="#000"/>
<rect x="521.0" y="41.0" width="518.0" height="478.0" fill="none" stroke="#ddd"/>
<text x="532.0" y="62.0" font-family="sans-serif" font-size="14" fill="#000">alt45</text>
<rect x="538.0" y="76.0" width="484.0" height="428.0" fill="none" stroke="#f2f2f2"/>
<rect x="584.84" y="95.50" width="390.32" height="390.32" fill="none" stroke="#888" stroke-width="1.0"/>
<polyline fill="none" stroke="#000" stroke-width="1.1" points="584.84,210.41 627.47,227.97 621.20,234.23 660.07,245.52 650.04,255.55 700.20,255.55 672.61,283.14 692.68,303.20 677.63,318.25 657.57,298.18 629.98,325.77 629.98,275.61 619.95,285.65 608.66,246.77 602.39,253.04 584.84,210.41"/>
<circle cx="665.09" cy="290.66" r="2.2" fill="#000"/>
<polyline fill="none" stroke="#000" stroke-width="1.1" points="975.16,370.91 932.53,353.36 938.80,347.09 899.93,335.80 909.96,325.77 859.80,325.77 887.39,298.18 867.32,278.12 882.37,263.07 902.43,283.14 930.02,255.55 930.02,305.71 940.05,295.68 951.34,334.55 957.61,328.28 975.16,370.91"/>
<circle cx="894.91" cy="290.66" r="2.2" fill="#000"/>
<rect x="1041.0" y="41.0" width="518.0" height="478.0" fill="none" stroke="#ddd"/>
<text x="1052.0" y="62.0" font-family="sans-serif" font-size="14" fill="#000">circle</text>
<rect x="1058.0" y="76.0" width="484.0" height="428.0" fill="none" stroke="#f2f2f2"/>
<rect x="1135.44" y="118.54" width="329.13" height="329.13" fill="none" stroke="#888" stroke-width="1.0"/>
<polyline fill="none" stroke="#000" stroke-width="1.1" points="1414.91,212.17 1432.64,254.73 1423.78,254.73 1443.28,290.19 1429.10,290.19 1464.56,325.66 1425.55,325.66 1425.55,354.03 1404.27,354.03 1404.27,325.66 1365.26,325.66 1400.72,290.19 1386.54,290.19 1406.04,254.73 1397.18,254.73 1414.91,212.17"/>
<circle cx="1414.91" cy="325.66" r="2.2" fill="#000"/>
<polyline fill="none" stroke="#000" stroke-width="1.1" points="1185.09,212.17 1202.82,254.73 1193.96,254.73 1213.46,290.19 1199.28,290.19 1234.74,325.66 1195.73,325.66 1195.73,354.03 1174.45,354.03 1174.45,325.66 1135.44,325.66 1170.90,290.19 1156.72,290.19 1176.22,254.73 1167.36,254.73 1185.09,212.17"/>
<circle cx="1185.09" cy="325.66" r="2.2" fill="#000"/>
<rect x="1.0" y="521.0" width="518.0" height="478.0" fill="none" stroke="#ddd"/>
<text x="12.0" y="542.0" font-family="sans-serif" font-size="14" fill="#000">spiral</text>
<rect x="18.0" y="556.0" width="484.0" height="428.0" fill="none" stroke="#f2f2f2"/>
<rect x="107.09" y="620.27" width="299.37" height="299.37" fill="none" stroke="#888" stroke-width="1.0"/>
<polyline fill="none" stroke="#000" stroke-width="1.1" points="356.81,737.45 374.54,780.01 365.67,780.01 385.18,815.47 370.99,815.47 406.46,850.94 367.45,850.94 367.45,879.31 346.17,879.31 346.17,850.94 307.15,850.94 342.62,815.47 328.43,815.47 347.94,780.01 339.07,780.01 356.81,737.45"/>
<circle cx="356.81" cy="850.94" r="2.2" fill="#000"/>
<polyline fill="none" stroke="#000" stroke-width="1.1" points="107.09,775.95 124.65,733.32 130.92,739.59 142.20,700.71 152.23,710.75 152.23,660.59 179.82,688.18 199.88,668.11 214.93,683.16 194.87,703.22 222.45,730.81 172.30,730.81 182.33,740.84 143.46,752.13 149.73,758.39 107.09,775.95"/>
<circle cx="187.34" cy="695.70" r="2.2" fill="#000"/>
<rect x="521.0" y="521.0" width="518.0" height="478.0" fill="none" stroke="#ddd"/>
<text x="532.0" y="542.0" font-family="sans-serif" font-size="14" fill="#000">hex</text>
<rect x="538.0" y="556.0" width="484.0" height="428.0" fill="none" stroke="#f2f2f2"/>
<rect x="615.44" y="606.10" width="329.13" height="329.13" fill="none" stroke="#888" stroke-width="1.0"/>
<polyline fill="none" stroke="#000" stroke-width="1.1" points="665.09,657.17 682.82,699.73 673.96,699.73 693.46,735.19 679.28,735.19 714.74,770.66 675.73,770.66 675.73,799.03 654.45,799.03 654.45,770.66 615.44,770.66 650.90,735.19 636.72,735.19 656.22,699.73 647.36,699.73 665.09,657.17"/>
<circle cx="665.09" cy="770.66" r="2.2" fill="#000"/>
<polyline fill="none" stroke="#000" stroke-width="1.1" points="894.91,884.15 877.18,841.59 886.04,841.59 866.54,806.13 880.72,806.13 845.26,770.66 884.27,770.66 884.27,742.29 905.55,742.29 905.55,770.66 944.56,770.66 909.10,806.13 923.28,806.13 903.78,841.59 912.64,841.59 894.91,884.15"/>
<circle cx="894.91" cy="770.66" r="2.2" fill="#000"/>
<rect x="1041.0" y="521.0" width="518.0" height="478.0" fill="none" stroke="#ddd"/>
<text x="1052.0" y="542.0" font-family="sans-serif" font-size="14" fill="#000">halton</text>
<rect x="1058.0" y="556.0" width="484.0" height="428.0" fill="none" stroke="#f2f2f2"/>
<rect x="1163.10" y="636.10" width="267.80" height="267.80" fill="none" stroke="#888" stroke-width="1.0"/>
<polyline fill="none" stroke="#000" stroke-width="1.1" points="1381.24,751.80 1398.98,794.36 1390.11,794.36 1409.62,829.83 1395.43,829.83 1430.89,865.30 1391.88,865.30 1391.88,893.67 1370.60,893.67 1370.60,865.30 1331.59,865.30 1367.06,829.83 1352.87,829.83 1372.38,794.36 1363.51,794.36 1381.24,751.80"/>
<circle cx="1381.24" cy="865.30" r="2.2" fill="#000"/>
<polyline fill="none" stroke="#000" stroke-width="1.1" points="1163.10,761.69 1180.65,719.06 1186.92,725.33 1198.21,686.46 1208.24,696.49 1208.24,646.33 1235.83,673.92 1255.89,653.85 1270.94,668.90 1250.87,688.96 1278.46,716.55 1228.30,716.55 1238.33,726.58 1199.46,737.87 1205.73,744.14 1163.10,761.69"/>
<circle cx="1243.35" cy="681.44" r="2.2" fill="#000"/>
</svg>
