<?xml version="1.0" encoding="UTF-8"?>
<svg xmlns="http://www.w3.org/2000/svg" width="1100" height="1100" viewBox="0 0 1100 1100">
  <rect x="0" y="0" width="1100" height="1100" fill="white"/>
  <text x="10.0" y="18.0" font-family="monospace" font-size="12">prefix=DEMO_N6_job5048375_task6 run_id=6 L=1.80885230095 feas=0.000e+00 N=6</text>
  <rect x="40.000000" y="40.000000" width="1020.000000" height="1020.000000" fill="none" stroke="#000" stroke-width="2"/>
  <path d="M414.561100 858.867314 L293.911737 720.918302 L327.323497 709.704585 L208.962756 600.727724 L262.421572 582.785777 L83.919663 493.993607 L230.931406 444.653251 L195.047510 337.735620 L275.235733 310.822698 L311.119629 417.740329 L458.131372 368.399972 L369.339203 546.901881 L422.798018 528.959933 L394.147016 687.277150 L427.558776 676.063433 Z" fill="#888" fill-opacity="0.18" stroke="#000" stroke-width="1"/>
  <path d="M96.060538 176.468564 L273.929407 132.322621 L268.609983 167.162208 L419.671066 111.792809 L411.159989 167.536150 L571.796034 49.455492 L548.390571 202.749678 L659.877252 219.771833 L647.110635 303.386844 L535.623954 286.364689 L512.218491 439.658876 L394.137834 279.022831 L385.626756 334.766171 L257.971137 236.841384 L252.651713 271.680972 Z" fill="#888" fill-opacity="0.18" stroke="#000" stroke-width="1"/>
  <path d="M581.509882 41.992259 L756.359597 96.890127 L733.681742 123.868045 L891.484694 155.228045 L855.200126 198.392713 L1053.823216 181.192462 L954.040655 299.895300 L1040.369992 372.464435 L985.943140 437.211438 L899.613803 364.642302 L799.831242 483.345140 L782.630990 284.722050 L746.346423 327.886718 L688.326032 177.823880 L665.648178 204.801798 Z" fill="#888" fill-opacity="0.18" stroke="#000" stroke-width="1"/>
  <path d="M595.534940 1039.771646 L412.293246 1042.717867 L425.323628 1009.971840 L265.672679 1029.891572 L286.521290 977.497928 L103.415654 1056.360509 L160.749335 912.277990 L55.962048 870.580768 L87.234965 791.990302 L192.022251 833.687525 L249.355932 689.605005 L328.218513 872.710642 L349.067124 820.316998 L451.384392 944.479786 L464.414774 911.733759 Z" fill="#888" fill-opacity="0.18" stroke="#000" stroke-width="1"/>
  <path d="M583.305478 1017.062773 L665.762438 853.395280 L688.716951 880.138194 L745.188677 729.485728 L781.915899 772.274390 L797.069500 573.484680 L898.069360 691.153501 L983.646685 617.699057 L1038.737518 681.882051 L953.160193 755.336495 L1054.160053 873.005316 L855.370343 857.851715 L892.097565 900.640377 L734.625979 933.624021 L757.580493 960.366935 Z" fill="#888" fill-opacity="0.18" stroke="#000" stroke-width="1"/>
  <path d="M597.021866 959.859036 L538.513538 786.184127 L573.670942 788.643811 L506.163386 642.602888 L562.415233 646.538382 L431.624349 496.070029 L586.316929 506.892637 L594.187916 394.388942 L678.565687 400.292182 L670.694700 512.795877 L825.387281 523.618484 L674.918928 654.409369 L731.170776 658.344863 L643.985752 793.563178 L679.143156 796.022861 Z" fill="#888" fill-opacity="0.18" stroke="#000" stroke-width="1"/>
</svg>
