<?xml version="1.0" encoding="UTF-8"?>
<svg xmlns="http://www.w3.org/2000/svg" width="1100" height="1100" viewBox="0 0 1100 1100">
  <rect x="0" y="0" width="1100" height="1100" fill="white"/>
  <text x="10.0" y="18.0" font-family="monospace" font-size="12">prefix=DEMO_N10_job5048369_task10 run_id=10 L=2.35854308936 feas=0.000e+00 N=10</text>
  <rect x="40.000000" y="40.000000" width="1020.000000" height="1020.000000" fill="none" stroke="#000" stroke-width="2"/>
  <path d="M614.021933 209.333317 L743.824119 155.421336 L743.793540 182.450717 L851.978337 123.108396 L851.929410 166.355405 L960.169250 58.360199 L960.034702 177.289474 L1046.528720 177.387328 L1046.455330 242.257841 L959.961312 242.159988 L959.826763 361.089263 L851.831557 252.849423 L851.782630 296.096433 L743.732381 236.509478 L743.701802 263.538859 Z" fill="#888" fill-opacity="0.18" stroke="#000" stroke-width="1"/>
  <path d="M233.430923 173.323864 L373.981710 172.558718 L363.721767 197.565156 L486.319393 183.590768 L469.903483 223.601068 L610.969007 164.615093 L565.825255 274.643417 L645.845855 307.475237 L621.221990 367.490687 L541.201390 334.658867 L496.057638 444.687192 L437.071663 303.621668 L420.655753 343.631968 L343.201879 247.578031 L332.941936 272.584468 Z" fill="#888" fill-opacity="0.18" stroke="#000" stroke-width="1"/>
  <path d="M960.245551 1056.060101 L819.755377 1051.862451 L830.891807 1027.233844 L707.877233 1036.871058 L725.695521 997.465287 L582.635373 1051.433995 L631.635665 943.068124 L552.824123 907.431547 L579.551555 848.322891 L658.363098 883.959467 L707.363390 775.593596 L761.332098 918.653745 L779.150386 879.247974 L853.164668 977.976630 L864.301098 953.348023 Z" fill="#888" fill-opacity="0.18" stroke="#000" stroke-width="1"/>
  <path d="M1049.987499 554.763536 L1047.829466 695.299838 L1023.041812 684.522058 L1034.463533 807.383792 L994.803286 790.139345 L1050.842786 932.401082 L941.777106 884.978852 L907.288211 964.299347 L847.797839 938.432676 L882.286734 859.112181 L773.221054 811.689950 L915.482791 755.650450 L875.822543 738.406002 L973.466502 662.966499 L948.678847 652.188719 Z" fill="#888" fill-opacity="0.18" stroke="#000" stroke-width="1"/>
  <path d="M397.988202 591.974318 L270.529050 532.735194 L290.472323 514.490901 L173.619951 474.855254 L205.529187 445.664385 L52.778924 438.868465 L140.529325 358.593577 L82.147587 294.775103 L130.011442 250.988800 L188.393180 314.807273 L276.143581 234.532385 L269.347661 387.282648 L301.256897 358.091779 L330.358869 478.002315 L350.302142 459.758022 Z" fill="#888" fill-opacity="0.18" stroke="#000" stroke-width="1"/>
  <path d="M755.475265 739.197041 L722.974113 602.453542 L749.652038 606.798271 L708.339518 490.528167 L751.024198 497.479733 L661.691412 373.389118 L779.074283 392.505924 L792.977415 307.136563 L857.004435 317.563912 L843.101303 402.933273 L960.484174 422.050079 L836.393558 511.382865 L879.078239 518.334431 L803.007888 615.487729 L829.685814 619.832457 Z" fill="#888" fill-opacity="0.18" stroke="#000" stroke-width="1"/>
  <path d="M636.927715 730.967500 L561.749029 849.724707 L546.228421 827.595561 L491.857173 938.362112 L467.024202 902.955479 L440.590047 1053.554493 L372.299374 956.186250 L301.486107 1005.852194 L264.236649 952.742243 L335.049917 903.076299 L266.759244 805.708057 L417.358258 832.142211 L392.525286 796.735578 L515.187206 783.337269 L499.666599 761.208123 Z" fill="#888" fill-opacity="0.18" stroke="#000" stroke-width="1"/>
  <path d="M48.597227 648.060184 L149.927044 745.463355 L125.141731 756.246519 L222.802078 831.664807 L183.145578 848.917870 L325.419487 904.926461 L216.364113 952.372386 L250.870240 1031.685386 L191.385490 1057.564982 L156.879363 978.251982 L47.823988 1025.697907 L103.832578 883.423998 L64.176078 900.677062 L75.571106 777.812849 L50.785794 788.596014 Z" fill="#888" fill-opacity="0.18" stroke="#000" stroke-width="1"/>
  <path d="M87.051469 477.061553 L218.019043 528.077276 L199.276047 547.552605 L318.411956 579.678865 L288.423162 610.839392 L441.296464 607.910058 L358.827282 693.601508 L421.148336 753.579096 L376.165145 800.319886 L313.844091 740.342299 L231.374908 826.033748 L228.445575 673.160446 L198.456781 704.320973 L161.790055 586.503264 L143.047059 605.978594 Z" fill="#888" fill-opacity="0.18" stroke="#000" stroke-width="1"/>
  <path d="M332.412077 406.370065 L467.685241 444.531308 L450.905644 465.721719 L572.582398 486.221203 L545.735043 520.125860 L697.615072 502.482606 L623.784846 595.720411 L691.594159 649.415121 L651.323127 700.272106 L583.513814 646.577396 L509.683588 739.815201 L492.040334 587.935173 L465.192979 621.839829 L417.346450 508.102539 L400.566854 529.292950 Z" fill="#888" fill-opacity="0.18" stroke="#000" stroke-width="1"/>
</svg>
