<?xml version="1.0" encoding="UTF-8"?>
<svg xmlns="http://www.w3.org/2000/svg" width="1100" height="1100" viewBox="0 0 1100 1100">
  <rect x="0" y="0" width="1100" height="1100" fill="white"/>
  <text x="10.0" y="18.0" font-family="monospace" font-size="12">prefix=N100_job5048501_task100 run_id=100 L=8.44332018794 feas=0.000e+00 N=100</text>
  <rect x="40.000000" y="40.000000" width="1020.000000" height="1020.000000" fill="none" stroke="#000" stroke-width="2"/>
  <path d="M1046.861010 1053.198124 L1009.399774 1041.444605 L1014.256999 1035.664024 L980.448783 1028.952401 L988.220343 1019.703472 L945.669121 1023.396893 L967.040911 997.962340 L948.543054 982.419219 L960.200394 968.545827 L978.698252 984.088947 L1000.070042 958.654393 L1003.763463 1001.205615 L1011.535023 991.956686 L1023.971449 1024.102864 L1028.828675 1018.322283 Z" fill="#888" fill-opacity="0.18" stroke="#000" stroke-width="1"/>
  <path d="M174.304016 460.160707 L213.105094 454.163566 L211.299773 461.494907 L244.596844 452.587241 L241.708330 464.317387 L278.254978 442.213307 L270.311565 474.471208 L293.771856 480.248235 L289.439086 497.843454 L265.978795 492.066426 L258.035382 524.324326 L235.931302 487.777678 L233.042789 499.507824 L207.689131 476.157589 L205.883810 483.488930 Z" fill="#888" fill-opacity="0.18" stroke="#000" stroke-width="1"/>
  <path d="M891.055069 511.786372 L854.518498 497.413885 L859.772236 491.991157 L826.523100 482.906206 L834.929081 474.229841 L792.223216 474.905801 L815.339664 451.045797 L797.986934 434.233835 L810.595906 421.219288 L827.948636 438.031250 L851.065084 414.171246 L851.741043 456.877111 L860.147024 448.200747 L870.279713 481.145701 L875.533451 475.722973 Z" fill="#888" fill-opacity="0.18" stroke="#000" stroke-width="1"/>
  <path d="M372.099844 283.114500 L411.061122 278.265965 L409.040057 285.540788 L442.585689 277.620437 L439.351986 289.260153 L476.535534 268.245121 L467.642850 300.254340 L490.922282 306.721747 L486.071727 324.181321 L462.792295 317.713914 L453.899610 349.723133 L432.884579 312.539585 L429.650875 324.179301 L404.997928 300.090433 L402.976863 307.365255 Z" fill="#888" fill-opacity="0.18" stroke="#000" stroke-width="1"/>
  <path d="M956.689747 506.871172 L944.589470 544.221844 L938.854164 539.311242 L931.829430 573.055790 L922.652940 565.198827 L925.951757 607.782458 L900.716411 586.175810 L885.002485 604.528789 L871.237751 592.743345 L886.951676 574.390366 L861.716330 552.783718 L904.299961 549.484901 L895.123472 541.627938 L927.383552 529.490038 L921.648246 524.579437 Z" fill="#888" fill-opacity="0.18" stroke="#000" stroke-width="1"/>
  <path d="M667.109897 438.309658 L700.987684 418.465643 L702.004537 425.947204 L729.693704 405.420358 L731.320669 417.390856 L757.179502 383.397200 L761.653654 416.316069 L785.594649 413.062140 L788.035096 431.017886 L764.094101 434.271815 L768.568253 467.190684 L734.574598 441.331851 L736.201562 453.302349 L704.038242 440.910326 L705.055095 448.391887 Z" fill="#888" fill-opacity="0.18" stroke="#000" stroke-width="1"/>
  <path d="M398.214447 986.374927 L436.288596 976.791161 L435.173721 984.258744 L467.496779 972.289561 L465.712979 984.237695 L500.042812 958.826862 L495.137362 991.684228 L519.033628 995.251828 L516.357928 1013.174028 L492.461662 1009.606428 L487.556211 1042.463793 L462.145379 1008.133961 L460.361579 1020.082094 L432.943971 999.193911 L431.829096 1006.661494 Z" fill="#888" fill-opacity="0.18" stroke="#000" stroke-width="1"/>
  <path d="M638.662331 365.486732 L674.147895 348.686013 L674.505600 356.227882 L703.886127 338.204952 L704.458454 350.271943 L733.195114 318.673649 L734.769013 351.857873 L758.902995 350.713219 L759.761485 368.813706 L735.627503 369.958360 L737.201403 403.142585 L705.603108 374.405925 L706.175435 386.472916 L675.221008 371.311621 L675.578713 378.853490 Z" fill="#888" fill-opacity="0.18" stroke="#000" stroke-width="1"/>
  <path d="M407.741137 919.989056 L376.248199 943.434403 L374.415662 936.109817 L349.148900 959.554051 L346.216842 947.834714 L324.248645 984.463203 L316.185485 952.235026 L292.746811 958.099143 L288.348723 940.520137 L311.787397 934.656020 L303.724237 902.427844 L340.352725 924.396040 L337.420667 912.676703 L370.750590 921.460646 L368.918053 914.136060 Z" fill="#888" fill-opacity="0.18" stroke="#000" stroke-width="1"/>
  <path d="M494.071255 492.144421 L483.377134 529.921732 L477.462087 525.229187 L471.705011 559.212970 L462.240937 551.704899 L467.130944 594.135261 L441.104741 573.488066 L426.088599 592.416214 L411.892488 581.154107 L426.908630 562.225959 L400.882427 541.578763 L443.312790 536.688757 L433.848716 529.180685 L465.631995 515.844099 L459.716949 511.151554 Z" fill="#888" fill-opacity="0.18" stroke="#000" stroke-width="1"/>
  <path d="M533.124137 960.147439 L563.126982 934.823169 L565.403270 942.022215 L589.191621 917.079165 L592.833681 928.597639 L612.524715 890.696306 L622.540379 922.372108 L645.577326 915.087989 L651.040415 932.365699 L628.003468 939.649818 L638.019132 971.325620 L600.117800 951.634585 L603.759859 963.153059 L569.955844 956.420307 L572.232131 963.619353 Z" fill="#888" fill-opacity="0.18" stroke="#000" stroke-width="1"/>
  <path d="M180.325769 328.629295 L211.692403 352.243351 L205.180542 356.064791 L234.792396 373.705070 L224.373418 379.819374 L265.706624 390.581061 L237.054432 407.395396 L249.283040 428.233354 L233.654572 437.404809 L221.425964 416.566852 L192.773773 433.381187 L203.535460 392.047981 L193.116482 398.162285 L192.156818 363.707671 L185.644957 367.529110 Z" fill="#888" fill-opacity="0.18" stroke="#000" stroke-width="1"/>
  <path d="M384.228405 584.160128 L421.684249 595.930821 L416.824374 601.709174 L450.629510 608.436297 L442.853710 617.681661 L485.406621 614.007749 L464.023172 639.432502 L482.513901 654.984101 L470.850201 668.852148 L452.359472 653.300548 L430.976023 678.725301 L427.302111 636.172390 L419.526311 645.417755 L407.104624 613.265880 L402.244749 619.044232 Z" fill="#888" fill-opacity="0.18" stroke="#000" stroke-width="1"/>
  <path d="M331.395627 280.683783 L361.165677 306.281311 L354.419811 309.672628 L382.825982 329.195200 L372.032595 334.621305 L412.581327 348.039509 L382.899513 362.961299 L393.751724 384.548073 L377.561644 392.687232 L366.709432 371.100458 L337.027618 386.022249 L350.445821 345.473517 L339.652434 350.899623 L340.928077 316.455260 L334.182210 319.846576 Z" fill="#888" fill-opacity="0.18" stroke="#000" stroke-width="1"/>
  <path d="M58.423577 311.516354 L82.432517 342.581773 L75.142137 344.545977 L99.037790 369.386250 L87.373181 372.528976 L124.391519 393.833682 L92.313845 402.476179 L98.599298 425.805397 L81.102385 430.519487 L74.816932 407.190269 L42.739258 415.832767 L64.043964 378.814429 L52.379355 381.957155 L60.561376 348.474385 L53.270996 350.438589 Z" fill="#888" fill-opacity="0.18" stroke="#000" stroke-width="1"/>
  <path d="M670.331242 399.880946 L631.083734 400.940426 L633.798582 393.895049 L599.644406 398.535484 L603.988164 387.262880 L564.947260 404.584994 L576.892594 373.585334 L554.347387 364.897818 L560.863024 347.988913 L583.408231 356.676429 L595.353566 325.676769 L612.675680 364.717673 L617.019438 353.445069 L639.228280 379.804294 L641.943129 372.758917 Z" fill="#888" fill-opacity="0.18" stroke="#000" stroke-width="1"/>
  <path d="M484.505321 839.813061 L515.302710 864.164863 L508.701991 867.830687 L537.886865 886.168750 L527.325715 892.034067 L568.391882 903.773648 L539.348720 919.903270 L551.079355 941.025569 L535.237630 949.823545 L523.506996 928.701246 L494.463834 944.830868 L506.203416 903.764701 L495.642266 909.630018 L495.500554 875.162333 L488.899836 878.828156 Z" fill="#888" fill-opacity="0.18" stroke="#000" stroke-width="1"/>
  <path d="M654.086962 638.796985 L644.636342 600.689568 L652.099983 601.830539 L640.243858 569.465841 L652.185682 571.291395 L626.895004 536.872949 L659.735023 541.893221 L663.386130 518.009571 L681.298867 520.747902 L677.647760 544.631551 L710.487778 549.651824 L676.069332 574.942502 L688.011157 576.768055 L667.027264 604.112481 L674.490904 605.253452 Z" fill="#888" fill-opacity="0.18" stroke="#000" stroke-width="1"/>
  <path d="M390.539458 549.757935 L386.101794 510.747724 L393.354913 512.845343 L385.788530 479.218104 L397.393520 482.574295 L376.771523 445.171340 L408.685246 454.400867 L415.397629 431.190886 L432.805115 436.225173 L426.092732 459.435154 L458.006456 468.664680 L420.603501 489.286678 L432.208492 492.642870 L407.861151 517.040583 L415.114270 519.138202 Z" fill="#888" fill-opacity="0.18" stroke="#000" stroke-width="1"/>
  <path d="M133.442311 421.882758 L163.197593 447.497454 L156.449771 450.884879 L184.844677 470.423832 L174.048162 475.843711 L214.589148 489.285300 L184.898732 504.189968 L195.738491 525.782998 L179.543718 533.912817 L168.703960 512.319787 L139.013543 527.224456 L152.455133 486.683470 L141.658618 492.103349 L142.954127 457.659728 L136.206306 461.047152 Z" fill="#888" fill-opacity="0.18" stroke="#000" stroke-width="1"/>
  <path d="M62.685912 284.298752 L95.021130 262.029420 L96.582607 269.416539 L122.695834 246.918966 L125.194198 258.738357 L148.496765 222.943969 L155.367267 255.447294 L179.006049 250.450565 L182.753595 268.179652 L159.114813 273.176380 L165.985315 305.679705 L130.190927 282.377139 L132.689291 294.196530 L99.705563 284.190778 L101.267041 291.577897 Z" fill="#888" fill-opacity="0.18" stroke="#000" stroke-width="1"/>
  <path d="M171.369659 175.708211 L132.109697 176.088758 L134.945988 169.091387 L100.716665 173.140440 L105.254730 161.944647 L65.920084 178.588968 L78.399763 147.800536 L56.008176 138.724405 L62.815273 121.930715 L85.206860 131.006845 L97.686539 100.218413 L114.330860 139.553060 L118.868925 128.357266 L140.618570 155.096645 L143.454860 148.099274 Z" fill="#888" fill-opacity="0.18" stroke="#000" stroke-width="1"/>
  <path d="M784.846450 806.332171 L824.023302 808.913573 L820.667369 815.677111 L855.104577 814.221059 L849.735084 825.042721 L890.212972 811.412298 L875.446866 841.171869 L897.090190 851.910855 L889.035951 868.143348 L867.392626 857.404362 L852.626520 887.163933 L838.996098 846.686045 L833.626605 857.507707 L813.955503 829.204189 L810.599570 835.967728 Z" fill="#888" fill-opacity="0.18" stroke="#000" stroke-width="1"/>
  <path d="M389.133771 427.879434 L415.190981 398.510892 L418.477023 405.308662 L438.438809 377.209400 L443.696476 388.085832 L457.743386 347.750585 L472.201972 377.660771 L493.954834 367.145437 L501.841336 383.460084 L480.088473 393.975418 L494.547058 423.885605 L454.211811 409.838695 L459.469478 420.715126 L425.049107 418.904201 L428.335149 425.701971 Z" fill="#888" fill-opacity="0.18" stroke="#000" stroke-width="1"/>
  <path d="M922.247218 250.432851 L917.274814 211.487189 L924.556027 213.485110 L916.529044 179.964833 L928.178984 183.161507 L907.045818 146.044973 L939.083153 154.835825 L945.476500 131.535945 L962.951410 136.330955 L956.558063 159.630836 L988.595398 168.421688 L951.478864 189.554854 L963.128804 192.751528 L939.118452 217.480952 L946.399665 219.478873 Z" fill="#888" fill-opacity="0.18" stroke="#000" stroke-width="1"/>
  <path d="M476.253480 270.364988 L514.491107 261.455818 L513.244390 268.902525 L545.773995 257.506640 L543.779247 269.421370 L578.552943 244.621413 L573.067387 277.386922 L596.896848 281.376418 L593.904726 299.248514 L570.075265 295.259018 L564.589709 328.024528 L539.789751 293.250832 L537.795004 305.165562 L510.750955 283.795938 L509.504238 291.242645 Z" fill="#888" fill-opacity="0.18" stroke="#000" stroke-width="1"/>
  <path d="M388.763882 105.811756 L395.834342 144.431673 L388.455772 142.830282 L398.283060 175.867622 L386.477348 173.305395 L409.586061 209.225240 L377.120355 202.179117 L371.995902 225.790540 L354.287335 221.947201 L359.411787 198.335778 L326.946081 191.289655 L362.865925 168.180943 L351.060214 165.618716 L373.698633 139.627499 L366.320063 138.026108 Z" fill="#888" fill-opacity="0.18" stroke="#000" stroke-width="1"/>
  <path d="M192.172590 1016.503845 L153.594849 1023.800919 L155.152893 1016.413075 L122.173818 1026.434154 L124.666690 1014.613603 L88.883134 1037.932801 L95.738531 1005.426287 L72.097430 1000.440544 L75.836737 982.709718 L99.477838 987.695461 L106.333235 955.188946 L129.652433 990.972502 L132.145304 979.151951 L158.268983 1001.637387 L159.827027 994.249543 Z" fill="#888" fill-opacity="0.18" stroke="#000" stroke-width="1"/>
  <path d="M819.708871 489.798937 L831.490774 527.251256 L823.970991 526.572576 L837.799794 558.144804 L825.768141 557.058916 L853.132555 589.852768 L820.045509 586.866577 L817.873733 610.929883 L799.826254 609.301051 L801.998029 585.237745 L768.910984 582.251554 L801.704835 554.887141 L789.673182 553.801253 L808.931424 525.215216 L801.411641 524.536536 Z" fill="#888" fill-opacity="0.18" stroke="#000" stroke-width="1"/>
  <path d="M556.640806 374.576088 L549.411862 413.166653 L543.096151 409.029077 L540.440410 443.394589 L530.335272 436.774467 L539.047811 478.587617 L511.258682 460.382281 L498.018437 480.592557 L482.860731 470.662373 L496.100975 450.452098 L468.311847 432.246762 L510.124996 423.534223 L500.019859 416.914101 L530.464728 400.753924 L524.149017 396.616348 Z" fill="#888" fill-opacity="0.18" stroke="#000" stroke-width="1"/>
  <path d="M661.331823 1054.435418 L686.065560 1023.943917 L689.648834 1030.589809 L708.349202 1001.635748 L714.082440 1012.269177 L726.332915 971.352509 L742.099321 1000.594437 L763.366178 989.127960 L771.966036 1005.078102 L750.699179 1016.544580 L766.465586 1045.786508 L725.548918 1033.536034 L731.282157 1044.169462 L696.815382 1043.881595 L700.398656 1050.527488 Z" fill="#888" fill-opacity="0.18" stroke="#000" stroke-width="1"/>
  <path d="M997.208519 504.639815 L959.239571 494.647396 L963.821728 488.646430 L929.737121 483.519930 L937.068571 473.918385 L894.736084 479.593623 L914.897571 453.189374 L895.694481 438.526474 L906.691656 424.124156 L925.894746 438.787056 L946.056233 412.382807 L951.731471 454.715295 L959.062921 445.113750 L972.986040 476.644499 L977.568196 470.643533 Z" fill="#888" fill-opacity="0.18" stroke="#000" stroke-width="1"/>
  <path d="M906.917309 176.999250 L878.093887 150.340297 L884.958155 147.195529 L857.277694 126.656945 L868.260523 121.625316 L828.224379 106.747313 L858.427160 92.910336 L848.363903 70.944677 L864.838148 63.397234 L874.901404 85.362893 L905.104185 71.525915 L890.226182 111.562060 L901.209012 106.530431 L898.686692 140.905994 L905.550960 137.761226 Z" fill="#888" fill-opacity="0.18" stroke="#000" stroke-width="1"/>
  <path d="M483.904722 709.117661 L478.218202 747.965479 L471.742740 744.082678 L470.457553 778.526686 L460.096814 772.314205 L470.467457 813.747254 L441.975426 796.662931 L429.550464 817.384408 L414.009356 808.065686 L426.434318 787.344209 L397.942287 770.259886 L439.375337 759.889242 L429.014598 753.676761 L458.791817 736.317076 L452.316355 732.434276 Z" fill="#888" fill-opacity="0.18" stroke="#000" stroke-width="1"/>
  <path d="M934.937317 326.174995 L896.335141 319.008308 L900.462524 312.685931 L866.092773 310.085626 L872.696587 299.969823 L830.897545 308.749796 L849.058033 280.931338 L828.826427 267.723710 L838.732147 252.550006 L858.963753 265.757633 L877.124241 237.939175 L885.904214 279.738217 L892.508028 269.622414 L908.717292 300.041177 L912.844675 293.718800 Z" fill="#888" fill-opacity="0.18" stroke="#000" stroke-width="1"/>
  <path d="M675.004526 847.666650 L637.596403 859.588135 L638.247036 852.065873 L606.726597 866.012318 L607.767610 853.976699 L575.076031 881.463214 L577.938816 848.365263 L553.867578 846.283238 L555.429097 828.229809 L579.500335 830.311835 L582.363119 797.213883 L609.849635 829.905461 L610.890647 817.869843 L639.548302 837.021350 L640.198935 829.499088 Z" fill="#888" fill-opacity="0.18" stroke="#000" stroke-width="1"/>
  <path d="M503.204488 182.016632 L508.133250 143.065422 L514.683113 146.821357 L515.297155 112.358851 L525.776935 118.368347 L514.601225 77.145157 L543.420619 93.671271 L555.439611 72.711711 L571.159281 81.725955 L559.140289 102.685514 L587.959684 119.211628 L546.736495 130.387338 L557.216275 136.396834 L527.782838 154.333227 L534.332700 158.089162 Z" fill="#888" fill-opacity="0.18" stroke="#000" stroke-width="1"/>
  <path d="M791.003446 686.166584 L753.181685 696.702420 L754.108886 689.209220 L722.096245 701.985456 L723.579766 689.996337 L689.898164 716.260333 L693.977847 683.290254 L669.999608 680.323211 L672.224890 662.339532 L696.203129 665.306574 L700.282813 632.336495 L726.546809 666.018097 L728.030330 654.028978 L755.963287 674.222820 L756.890488 666.729621 Z" fill="#888" fill-opacity="0.18" stroke="#000" stroke-width="1"/>
  <path d="M510.693422 137.425429 L472.853639 126.954506 L477.511183 121.011861 L443.494007 115.455502 L450.946078 105.947271 L408.545322 111.087672 L429.038517 84.940035 L410.022054 70.035894 L421.200160 55.773546 L440.216623 70.677688 L460.709818 44.530052 L465.850220 86.930807 L473.302291 77.422576 L486.826272 109.126571 L491.483816 103.183927 Z" fill="#888" fill-opacity="0.18" stroke="#000" stroke-width="1"/>
  <path d="M866.483527 466.022049 L859.169890 427.447445 L866.558403 429.002317 L856.523165 396.027548 L868.344785 398.515344 L845.010225 362.741804 L877.519680 369.583243 L882.495272 345.940003 L900.227702 349.671697 L895.252110 373.314937 L927.761565 380.156376 L891.988025 403.490936 L903.809645 405.978732 L881.335428 432.112062 L888.723940 433.666935 Z" fill="#888" fill-opacity="0.18" stroke="#000" stroke-width="1"/>
  <path d="M543.172859 888.833304 L519.765161 857.312373 L527.091931 855.488590 L503.677906 830.193832 L515.400738 827.275779 L478.798526 805.263830 L511.036315 797.239186 L505.200210 773.793521 L522.784458 769.416442 L528.620563 792.862107 L560.858352 784.837463 L538.846402 821.439674 L550.569235 818.521622 L541.745471 851.841025 L549.072242 850.017242 Z" fill="#888" fill-opacity="0.18" stroke="#000" stroke-width="1"/>
  <path d="M729.409505 147.751204 L746.456223 112.383156 L751.473723 118.025181 L763.003321 85.542727 L771.031321 94.569967 L773.529420 51.931869 L795.606419 76.756777 L813.660897 60.700778 L825.702897 74.241637 L807.648418 90.297636 L829.725418 115.122544 L787.087320 112.624445 L795.115320 121.651684 L761.508723 129.309230 L766.526222 134.951254 Z" fill="#888" fill-opacity="0.18" stroke="#000" stroke-width="1"/>
  <path d="M654.098577 664.093045 L621.049006 642.898346 L627.255874 638.599213 L596.404235 623.229834 L606.335223 616.351223 L564.311223 608.720282 L591.621441 589.804099 L577.864217 569.942123 L592.760699 559.624205 L606.517923 579.486181 L633.828140 560.569999 L626.197200 602.593999 L636.128188 595.715387 L639.669609 630.000949 L645.876476 625.701816 Z" fill="#888" fill-opacity="0.18" stroke="#000" stroke-width="1"/>
  <path d="M961.815208 765.866525 L923.440731 774.166459 L924.805718 766.740521 L892.098994 777.617633 L894.282974 765.736133 L859.119272 789.979933 L865.125218 757.305806 L841.362217 752.937845 L844.638188 735.115595 L868.401189 739.483556 L874.407135 706.809429 L898.650935 741.973132 L900.834916 730.091631 L927.535694 751.888646 L928.900682 744.462708 Z" fill="#888" fill-opacity="0.18" stroke="#000" stroke-width="1"/>
  <path d="M187.337187 980.173196 L178.069213 942.020948 L185.527302 943.197657 L173.826343 910.776538 L185.759286 912.659273 L160.633765 878.120077 L193.449359 883.297599 L197.214830 859.431712 L215.114244 862.255815 L211.348774 886.121701 L244.164368 891.299223 L209.625173 916.424743 L221.558116 918.307478 L200.443481 945.551076 L207.901571 946.727785 Z" fill="#888" fill-opacity="0.18" stroke="#000" stroke-width="1"/>
  <path d="M248.018778 944.891289 L279.904105 967.800137 L273.479063 971.765813 L303.476858 988.741493 L293.196791 995.086574 L334.759661 1004.924038 L306.489477 1022.373011 L319.179640 1042.933145 L303.759539 1052.450767 L291.069377 1031.890633 L262.799194 1049.339606 L272.636658 1007.776737 L262.356591 1014.121818 L260.628980 979.697165 L254.203938 983.662840 Z" fill="#888" fill-opacity="0.18" stroke="#000" stroke-width="1"/>
  <path d="M252.421633 603.521762 L218.607887 623.474706 L217.566961 615.996456 L189.943999 636.612309 L188.278517 624.647109 L162.529222 658.723811 L157.949148 625.819513 L134.018750 629.150476 L131.520527 611.202677 L155.450926 607.871714 L150.870853 574.967415 L184.947555 600.716710 L183.282073 588.751511 L215.485109 601.039957 L214.444183 593.561707 Z" fill="#888" fill-opacity="0.18" stroke="#000" stroke-width="1"/>
  <path d="M751.811754 736.582874 L725.855532 766.040708 L722.546169 759.254260 L702.680978 787.421894 L697.385998 776.563578 L683.477659 816.946816 L668.916464 787.086449 L647.199833 797.676408 L639.257364 781.388935 L660.973995 770.798975 L646.412800 740.938608 L686.796038 754.846947 L681.501059 743.988632 L715.927445 745.681366 L712.618082 738.894919 Z" fill="#888" fill-opacity="0.18" stroke="#000" stroke-width="1"/>
  <path d="M705.759025 173.797309 L735.460914 199.473897 L728.706055 202.847266 L757.060221 222.445292 L746.252446 227.842683 L786.765360 241.368645 L757.043978 256.211468 L767.838758 277.827019 L751.627095 285.923104 L740.832315 264.307553 L711.110933 279.150377 L724.636896 238.637463 L713.829120 244.034853 L715.196336 209.594004 L708.441476 212.967372 Z" fill="#888" fill-opacity="0.18" stroke="#000" stroke-width="1"/>
  <path d="M624.823018 101.360388 L658.311013 80.865423 L659.472250 88.325938 L686.759587 67.267860 L688.617565 79.204683 L713.814676 44.717679 L718.924117 77.543942 L742.797763 73.827985 L745.584731 91.733220 L721.711085 95.449177 L726.820526 128.275440 L692.333522 103.078329 L694.191501 115.015152 L661.794723 103.246966 L662.955960 110.707481 Z" fill="#888" fill-opacity="0.18" stroke="#000" stroke-width="1"/>
  <path d="M940.066602 970.805541 L900.828554 972.171200 L903.488352 965.104856 L869.371420 970.011623 L873.627096 958.705472 L834.722528 976.331658 L846.425638 945.239743 L823.813337 936.728391 L830.196851 919.769164 L852.809153 928.280517 L864.512263 897.188603 L882.138449 936.093170 L886.394125 924.787020 L908.807947 950.972168 L911.467745 943.905824 Z" fill="#888" fill-opacity="0.18" stroke="#000" stroke-width="1"/>
  <path d="M850.119737 148.916135 L855.542166 187.801694 L848.238337 185.888104 L856.652404 219.313317 L844.966277 216.251575 L866.527237 253.121249 L834.390388 244.701455 L828.266903 268.073709 L810.737713 263.481094 L816.861198 240.108841 L784.724350 231.689048 L821.594024 210.128089 L809.907897 207.066346 L833.630679 182.060926 L826.326850 180.147336 Z" fill="#888" fill-opacity="0.18" stroke="#000" stroke-width="1"/>
  <path d="M707.247136 564.366741 L719.181779 526.962814 L724.938790 531.847953 L731.813920 498.072607 L741.025136 505.888828 L737.537648 463.320233 L762.868494 484.814842 L778.500936 466.392408 L792.317761 478.116740 L776.685319 496.539174 L802.016164 518.033782 L759.447570 521.521270 L768.658786 529.337492 L736.452810 541.618229 L742.209821 546.503367 Z" fill="#888" fill-opacity="0.18" stroke="#000" stroke-width="1"/>
  <path d="M490.063841 575.371855 L524.826459 593.621506 L519.015676 598.442559 L551.083609 611.079374 L541.786357 618.793058 L584.313698 622.751978 L558.746255 643.964610 L574.173623 662.559115 L560.227745 674.129641 L544.800376 655.535136 L519.232932 676.747768 L523.191852 634.220427 L513.894600 641.934111 L507.394111 608.084664 L501.583328 612.905717 Z" fill="#888" fill-opacity="0.18" stroke="#000" stroke-width="1"/>
  <path d="M942.551371 646.788695 L975.911034 667.491890 L969.768479 671.882422 L1000.844227 686.793468 L991.016141 693.818320 L1033.148486 700.826408 L1006.121248 720.144749 L1020.170951 739.800923 L1005.428821 750.338200 L991.379118 730.682027 L964.351880 750.000368 L971.359967 707.868023 L961.531881 714.892874 L957.483371 680.663487 L951.340817 685.054019 Z" fill="#888" fill-opacity="0.18" stroke="#000" stroke-width="1"/>
  <path d="M688.283386 893.268556 L702.332782 856.606533 L707.801677 861.812197 L716.592763 828.484158 L725.342994 836.813220 L724.290070 794.114986 L748.353207 817.019906 L765.011331 799.519442 L778.136678 812.013035 L761.478554 829.513499 L785.541692 852.418419 L742.843458 853.471343 L751.593689 861.800405 L718.739466 872.223524 L724.208361 877.429188 Z" fill="#888" fill-opacity="0.18" stroke="#000" stroke-width="1"/>
  <path d="M1051.716408 903.364272 L1013.787110 913.506154 L1014.792198 906.023003 L982.648403 918.465585 L984.256543 906.492544 L950.303590 932.404797 L954.725975 899.478934 L930.779893 896.262654 L933.192103 878.303093 L957.138185 881.519372 L961.560569 848.593509 L987.472822 882.546462 L989.080962 870.573421 L1016.802373 891.056702 L1017.807460 883.573551 Z" fill="#888" fill-opacity="0.18" stroke="#000" stroke-width="1"/>
  <path d="M871.686607 336.873469 L834.715593 350.088367 L835.104295 342.548032 L804.087809 357.581959 L804.709733 345.517422 L772.993582 374.123953 L774.703873 340.946478 L750.574800 339.702630 L751.507687 321.605825 L775.636759 322.849673 L777.347051 289.672198 L805.953581 321.388350 L806.575505 309.323813 L835.881701 327.467361 L836.270403 319.927026 Z" fill="#888" fill-opacity="0.18" stroke="#000" stroke-width="1"/>
  <path d="M1053.002690 776.174617 L1024.772069 803.460537 L1022.016478 796.430995 L999.960609 822.918351 L995.551664 811.671084 L978.455858 850.811616 L966.331258 819.881631 L943.836723 828.699521 L937.223305 811.828620 L959.717840 803.010729 L947.593241 772.080743 L986.733773 789.176549 L982.324827 777.929281 L1016.505296 782.371911 L1013.749705 775.342369 Z" fill="#888" fill-opacity="0.18" stroke="#000" stroke-width="1"/>
  <path d="M730.568980 888.121315 L768.752728 897.258642 L764.306476 903.360984 L798.497601 907.720841 L791.383597 917.484589 L833.577977 910.860228 L814.014467 937.710535 L833.541963 951.938543 L822.870957 966.584165 L803.343461 952.356157 L783.779950 979.206464 L777.155590 937.012085 L770.041586 946.775833 L755.413971 915.565669 L750.967719 921.668012 Z" fill="#888" fill-opacity="0.18" stroke="#000" stroke-width="1"/>
  <path d="M551.178885 993.518919 L589.826140 986.599451 L588.195923 993.971705 L621.271419 984.273612 L618.663072 996.069220 L654.672958 973.101068 L647.500004 1005.538989 L671.091218 1010.755682 L667.178698 1028.449093 L643.587483 1023.232400 L636.414529 1055.670320 L613.446378 1019.660434 L610.838031 1031.456042 L584.935490 1008.716214 L583.305273 1016.088469 Z" fill="#888" fill-opacity="0.18" stroke="#000" stroke-width="1"/>
  <path d="M162.911235 420.245413 L136.230301 391.442338 L143.316714 388.836483 L117.303182 366.223710 L128.641444 362.054341 L89.872366 344.132108 L121.052587 332.666343 L112.713849 309.989819 L129.721242 303.735765 L138.059980 326.412289 L169.240201 314.946525 L151.317968 353.715603 L162.656230 349.546234 L157.489542 383.624771 L164.575956 381.018916 Z" fill="#888" fill-opacity="0.18" stroke="#000" stroke-width="1"/>
  <path d="M236.723056 732.651269 L208.586587 760.034266 L205.806800 753.014257 L183.842295 779.577426 L179.394636 768.345412 L162.433748 807.544597 L150.202684 776.656557 L127.738655 785.551876 L121.067166 768.703854 L143.531195 759.808535 L131.300131 728.920495 L170.499316 745.881382 L166.051657 734.649368 L200.247225 738.974239 L197.467438 731.954230 Z" fill="#888" fill-opacity="0.18" stroke="#000" stroke-width="1"/>
  <path d="M246.235663 271.148521 L253.108269 232.492905 L259.461884 236.572037 L261.800460 202.183486 L271.966244 208.710097 L262.868314 166.979108 L290.824220 184.927290 L303.877443 164.595722 L319.126119 174.385640 L306.072896 194.717208 L334.028802 212.665390 L292.297812 221.763321 L302.463596 228.289933 L272.169114 244.730302 L278.522729 248.809434 Z" fill="#888" fill-opacity="0.18" stroke="#000" stroke-width="1"/>
  <path d="M136.965794 397.454127 L127.596717 435.581674 L121.521492 431.098439 L116.954048 465.262453 L107.233689 458.089278 L113.601648 500.323114 L86.870660 480.596882 L72.524309 500.037600 L57.943771 489.277837 L72.290122 469.837118 L45.559134 450.110886 L87.792970 443.742927 L78.072611 436.569751 L109.371044 422.131970 L103.295819 417.648735 Z" fill="#888" fill-opacity="0.18" stroke="#000" stroke-width="1"/>
  <path d="M945.287899 67.387977 L984.392615 70.896625 L980.877417 77.578775 L1015.339453 76.938834 L1009.715137 87.630275 L1050.504527 74.962464 L1035.037658 104.363925 L1056.420539 115.612557 L1047.984065 131.649717 L1026.601184 120.401085 L1011.134315 149.802546 L998.466505 109.013155 L992.842188 119.704596 L973.847022 90.943075 L970.331825 97.625225 Z" fill="#888" fill-opacity="0.18" stroke="#000" stroke-width="1"/>
  <path d="M292.696445 637.009072 L310.934226 671.777919 L303.413293 672.443735 L322.622608 701.062673 L310.589115 702.127978 L343.336110 729.548448 L310.244005 732.478036 L312.374615 756.545022 L294.324375 758.142980 L292.193765 734.075994 L259.101660 737.005583 L286.522129 704.258588 L274.488637 705.323893 L288.371427 673.775366 L280.850494 674.441182 Z" fill="#888" fill-opacity="0.18" stroke="#000" stroke-width="1"/>
  <path d="M88.775096 898.257911 L94.533186 859.420637 L101.001482 863.315363 L102.350133 828.873781 L112.699407 835.105342 L102.405124 793.653255 L130.865628 810.790047 L143.328749 790.091499 L158.852661 799.438840 L146.389539 820.137389 L174.850043 837.274181 L133.397955 847.568464 L143.747229 853.800025 L113.938075 871.104814 L120.406371 874.999540 Z" fill="#888" fill-opacity="0.18" stroke="#000" stroke-width="1"/>
  <path d="M395.268472 635.410744 L404.585558 673.551029 L397.125959 672.383923 L408.868650 704.789951 L396.933292 702.922580 L422.103259 737.429400 L389.281027 732.294131 L385.546286 756.164845 L367.643250 753.363790 L371.377991 729.493075 L338.555758 724.357806 L373.062578 699.187839 L361.127220 697.320469 L382.206763 670.049710 L374.747164 668.882603 Z" fill="#888" fill-opacity="0.18" stroke="#000" stroke-width="1"/>
  <path d="M222.853851 292.633506 L255.508394 270.835106 L256.962656 278.244078 L283.399169 256.127294 L285.725988 267.981649 L309.544830 232.528714 L315.943581 265.128192 L339.652292 260.474555 L343.142519 278.256088 L319.433808 282.909725 L325.832559 315.509202 L290.379625 291.690360 L292.706443 303.544715 L259.871179 293.062023 L261.325441 300.470995 Z" fill="#888" fill-opacity="0.18" stroke="#000" stroke-width="1"/>
  <path d="M251.116446 584.750226 L290.206262 588.421145 L286.663361 595.088648 L321.127756 594.591746 L315.459114 605.259751 L356.300730 592.761344 L340.711965 622.098357 L362.047975 633.435641 L353.545012 649.437648 L332.209003 638.100364 L316.620237 667.437377 L304.121830 626.595761 L298.453188 637.263766 L279.577559 608.423654 L276.034658 615.091157 Z" fill="#888" fill-opacity="0.18" stroke="#000" stroke-width="1"/>
  <path d="M998.345923 349.662334 L1020.578134 382.023085 L1013.189227 383.576085 L1035.656820 409.715111 L1023.834570 412.199910 L1059.602194 435.543537 L1027.091006 442.376736 L1032.060605 466.021236 L1014.327230 469.748435 L1009.357631 446.103935 L976.846443 452.937133 L1000.190070 417.169509 L988.367820 419.654309 L998.411415 386.682084 L991.022508 388.235084 Z" fill="#888" fill-opacity="0.18" stroke="#000" stroke-width="1"/>
  <path d="M1042.578775 611.181607 L1017.496428 580.976221 L1024.713534 578.757860 L999.962456 554.769831 L1011.509825 551.220453 L973.767956 531.225474 L1005.523222 521.464685 L998.424466 498.369946 L1015.745520 493.045878 L1022.844276 516.140617 L1054.599542 506.379827 L1034.604564 544.121696 L1046.151934 540.572318 L1039.147746 574.321137 L1046.364852 572.102775 Z" fill="#888" fill-opacity="0.18" stroke="#000" stroke-width="1"/>
  <path d="M985.291624 291.472351 L983.355198 252.258327 L990.459494 254.815029 L985.056848 220.773101 L996.423721 224.863823 L978.233342 186.219834 L1009.492245 197.469319 L1017.673689 174.735572 L1034.724000 180.871655 L1026.542556 203.605402 L1057.801459 214.854888 L1019.157469 233.045267 L1030.524343 237.135989 L1004.668086 259.928431 L1011.772383 262.485132 Z" fill="#888" fill-opacity="0.18" stroke="#000" stroke-width="1"/>
  <path d="M697.758053 517.801443 L661.081911 503.788949 L666.282068 498.314818 L632.945199 489.557276 L641.265451 480.798667 L598.568298 481.894560 L621.448991 457.808385 L603.931772 441.167881 L616.412150 428.029967 L633.929369 444.670471 L656.810061 420.584296 L657.905955 463.281448 L666.226206 454.522839 L676.682383 487.366556 L681.882541 481.892426 Z" fill="#888" fill-opacity="0.18" stroke="#000" stroke-width="1"/>
  <path d="M66.662304 641.060363 L61.234088 602.175612 L68.538202 604.088114 L60.119161 570.664153 L71.805743 573.724157 L50.239298 536.857692 L82.377399 545.272703 L88.497406 521.899538 L106.027280 526.489544 L99.907272 549.862708 L132.045373 558.277719 L95.178908 579.844165 L106.865490 582.904169 L83.146430 607.913119 L90.450544 609.825621 Z" fill="#888" fill-opacity="0.18" stroke="#000" stroke-width="1"/>
  <path d="M617.517502 255.149559 L616.315459 215.906158 L623.370652 218.595396 L618.606181 184.458302 L629.894489 188.761083 L612.430670 149.783360 L643.473518 161.616007 L652.079080 139.039391 L669.011542 145.493562 L660.405980 168.070179 L691.448828 179.902826 L652.471105 197.366644 L663.759414 201.669425 L637.481037 223.973872 L644.536230 226.663110 Z" fill="#888" fill-opacity="0.18" stroke="#000" stroke-width="1"/>
  <path d="M180.310883 160.466713 L189.647246 122.331143 L195.726315 126.809163 L200.264448 92.641244 L209.990957 99.806077 L203.586767 57.577719 L230.334668 77.281011 L244.664335 57.827992 L259.254100 68.575242 L244.924433 88.028262 L271.672334 107.731553 L229.443977 114.135744 L239.170486 121.300577 L207.884452 135.765205 L213.963520 140.243226 Z" fill="#888" fill-opacity="0.18" stroke="#000" stroke-width="1"/>
  <path d="M168.651827 863.843309 L183.413772 827.462347 L188.780071 832.773711 L198.219667 799.623515 L206.805745 808.121697 L206.586002 765.411047 L230.197718 788.781046 L247.194080 771.608889 L260.073198 784.356161 L243.076835 801.528318 L266.688551 824.898316 L223.977902 825.118059 L232.563980 833.616240 L199.512669 843.396437 L204.878968 848.707800 Z" fill="#888" fill-opacity="0.18" stroke="#000" stroke-width="1"/>
  <path d="M346.660624 586.346327 L328.119034 551.738541 L335.633847 551.006882 L316.174622 522.557279 L328.198323 521.386624 L295.212434 494.254007 L328.277612 491.034707 L325.936304 466.987304 L343.971856 465.231323 L346.313164 489.278726 L379.378343 486.059426 L352.245726 519.045315 L364.269427 517.874661 L350.663474 549.543564 L358.178287 548.811905 Z" fill="#888" fill-opacity="0.18" stroke="#000" stroke-width="1"/>
  <path d="M694.768952 615.586520 L732.556581 604.928918 L731.653521 612.425065 L763.624844 599.545784 L762.179947 611.539620 L795.776780 585.167274 L791.803312 618.150322 L815.790984 621.040117 L813.623638 639.030871 L789.635966 636.141076 L785.662498 669.124124 L759.290152 635.527292 L757.845255 647.521127 L729.847399 627.417360 L728.944338 634.913507 Z" fill="#888" fill-opacity="0.18" stroke="#000" stroke-width="1"/>
  <path d="M314.855050 412.552452 L284.554814 387.584771 L291.228088 384.052752 L262.418812 365.130094 L273.096051 359.478865 L232.274881 346.913839 L261.637289 331.372960 L250.334831 310.018481 L266.350690 301.541638 L277.653148 322.896116 L307.015555 307.355237 L294.450530 348.176407 L305.127769 342.525178 L304.574637 376.988716 L311.247912 373.456698 Z" fill="#888" fill-opacity="0.18" stroke="#000" stroke-width="1"/>
  <path d="M158.633103 881.823796 L136.740694 914.415388 L132.574466 908.118541 L116.552780 938.636519 L109.886815 928.561564 L101.364341 970.413867 L83.032935 942.707740 L62.883024 956.039672 L52.884075 940.927239 L73.033986 927.595307 L54.702580 899.889180 L96.554883 908.411653 L89.888917 898.336698 L124.242008 895.524846 L120.075779 889.227999 Z" fill="#888" fill-opacity="0.18" stroke="#000" stroke-width="1"/>
  <path d="M717.229734 282.377153 L687.746974 308.305057 L685.325065 301.153687 L662.047782 326.574338 L658.172728 315.132145 L639.254881 353.425264 L628.598482 321.959233 L605.714096 329.709342 L599.901514 312.546053 L622.785900 304.795944 L612.129500 273.329913 L650.422619 292.247759 L646.547564 280.805566 L680.481247 286.850946 L678.059338 279.699575 Z" fill="#888" fill-opacity="0.18" stroke="#000" stroke-width="1"/>
  <path d="M1007.045205 687.547853 L981.894225 657.399592 L989.106267 655.164822 L964.300695 631.233149 L975.839962 627.657517 L938.052714 607.748429 L969.785699 597.915441 L962.634435 574.836907 L979.943335 569.473459 L987.094599 592.551993 L1018.827583 582.719005 L998.918496 620.506253 L1010.457763 616.930621 L1003.530351 650.695282 L1010.742393 648.460512 Z" fill="#888" fill-opacity="0.18" stroke="#000" stroke-width="1"/>
  <path d="M580.473794 796.106603 L552.219720 768.844968 L559.148862 765.845845 L531.908258 744.727349 L542.994885 739.928752 L503.281825 724.208677 L533.770049 711.012536 L524.172855 688.839282 L540.802796 681.641387 L550.399989 703.814640 L580.888213 690.618499 L565.168138 730.331558 L576.254765 725.532961 L573.007145 759.847599 L579.936287 756.848476 Z" fill="#888" fill-opacity="0.18" stroke="#000" stroke-width="1"/>
  <path d="M612.491995 120.016756 L603.365103 158.203001 L597.261546 153.758416 L592.911032 187.950731 L583.145341 180.839396 L589.781231 223.031964 L562.925579 203.475791 L548.702908 223.007174 L534.054370 212.340170 L548.277041 192.808787 L521.421390 173.252614 L563.613958 166.616724 L553.848266 159.505389 L585.054431 144.869246 L578.950874 140.424662 Z" fill="#888" fill-opacity="0.18" stroke="#000" stroke-width="1"/>
  <path d="M798.282459 676.338165 L814.829053 711.942935 L807.284819 712.246711 L825.097239 741.755339 L813.026464 742.241381 L844.418505 771.203211 L811.223876 772.539827 L812.195960 796.681375 L794.089799 797.410438 L793.117715 773.268890 L759.923086 774.605505 L788.884916 743.213465 L776.814142 743.699507 L792.196351 712.854263 L784.652117 713.158040 Z" fill="#888" fill-opacity="0.18" stroke="#000" stroke-width="1"/>
  <path d="M915.975525 1019.627578 L879.133515 1033.197975 L879.449569 1025.654246 L848.579331 1040.986233 L849.085018 1028.916266 L817.645883 1057.826966 L819.036522 1024.634556 L794.896588 1023.623182 L795.655119 1005.518231 L819.795053 1006.529605 L821.185693 973.337196 L850.096393 1004.776331 L850.602080 992.706364 L880.081678 1010.566787 L880.397732 1003.023057 Z" fill="#888" fill-opacity="0.18" stroke="#000" stroke-width="1"/>
  <path d="M357.843527 970.873727 L384.943355 942.464420 L387.982002 949.376320 L408.944581 922.015551 L413.806416 933.074591 L429.299429 893.272401 L442.669477 923.684763 L464.787558 913.961092 L472.080311 930.549653 L449.962230 940.273324 L463.332277 970.685686 L423.530087 955.192673 L428.391922 966.251714 L394.059297 963.200121 L397.097944 970.112022 Z" fill="#888" fill-opacity="0.18" stroke="#000" stroke-width="1"/>
  <path d="M892.265669 731.412592 L879.894199 694.150866 L887.423756 694.710792 L873.098435 663.360728 L885.145726 664.256609 L857.267201 631.898678 L890.397252 634.362352 L892.189015 610.267769 L910.259951 611.611592 L908.468189 635.706174 L941.598239 638.169848 L909.240308 666.048372 L921.287599 666.944253 L902.482870 695.830644 L910.012427 696.390570 Z" fill="#888" fill-opacity="0.18" stroke="#000" stroke-width="1"/>
  <path d="M307.182918 165.348169 L290.987132 129.582460 L298.533987 129.352861 L281.012509 99.670557 L293.087478 99.303198 L261.981660 70.034172 L295.187824 69.023936 L294.453107 44.873998 L312.565561 44.322961 L313.300278 68.472899 L346.506442 67.462663 L317.237416 98.568481 L329.312385 98.201123 L313.627699 128.893663 L321.174554 128.664064 Z" fill="#888" fill-opacity="0.18" stroke="#000" stroke-width="1"/>
  <path d="M1043.244611 340.948778 L1003.994664 339.983857 L1007.069054 333.087780 L972.721090 335.961586 L977.640115 324.927864 L937.758248 340.214608 L951.285566 309.871872 L929.218122 300.033822 L936.596659 283.483239 L958.664103 293.321289 L972.191421 262.978553 L987.478164 302.860420 L992.397189 291.826698 L1013.217835 319.295628 L1016.292225 312.399551 Z" fill="#888" fill-opacity="0.18" stroke="#000" stroke-width="1"/>
  <path d="M641.396995 503.866554 L607.544039 523.752901 L606.517835 516.272617 L578.854347 536.834057 L577.212421 524.865603 L551.396100 558.891555 L546.880803 525.978304 L522.943894 529.262157 L520.481005 511.309475 L544.417914 508.025623 L539.902617 475.112372 L573.928569 500.928693 L572.286642 488.960239 L604.465427 501.312048 L603.439223 493.831764 Z" fill="#888" fill-opacity="0.18" stroke="#000" stroke-width="1"/>
  <path d="M353.647940 809.360397 L392.850469 811.517046 L389.568037 818.316559 L423.987442 816.487359 L418.735550 827.366580 L459.063333 813.298256 L444.620631 843.216115 L466.379074 853.719898 L458.501237 870.038730 L436.742794 859.534947 L422.300091 889.452806 L408.231767 849.125023 L402.979875 860.004245 L383.003173 831.915586 L379.720740 838.715099 Z" fill="#888" fill-opacity="0.18" stroke="#000" stroke-width="1"/>
  <path d="M447.259387 248.525911 L438.656564 210.218198 L446.093053 211.524480 L434.957907 178.904702 L446.856289 180.994754 L422.335462 146.023668 L455.056015 151.771311 L459.236118 127.974545 L477.083692 131.109623 L472.903589 154.906388 L505.624141 160.654031 L470.653055 185.174858 L482.551437 187.264910 L460.966032 214.137045 L468.402521 215.443327 Z" fill="#888" fill-opacity="0.18" stroke="#000" stroke-width="1"/>
  <path d="M222.060596 274.961198 L205.545698 239.341715 L213.090199 239.044654 L195.304050 209.520184 L207.375252 209.044886 L176.009000 180.055127 L209.204806 178.748056 L208.254208 154.605652 L226.361011 153.892704 L227.311609 178.035108 L260.507414 176.728037 L231.517656 208.094288 L243.588858 207.618990 L228.179202 238.450530 L235.723703 238.153469 Z" fill="#888" fill-opacity="0.18" stroke="#000" stroke-width="1"/>
  <path d="M232.951944 955.411975 L237.740841 916.443322 L244.304145 920.175719 L244.794463 885.711230 L255.295749 891.683065 L243.972121 850.500262 L272.850658 866.922808 L284.794328 845.920235 L300.546257 854.877987 L288.602588 875.880560 L317.481125 892.303106 L276.298322 903.626735 L286.799608 909.598569 L257.430753 927.640512 L263.994057 931.372909 Z" fill="#888" fill-opacity="0.18" stroke="#000" stroke-width="1"/>
  <path d="M166.414987 575.226039 L193.396962 546.704776 L196.464200 553.604037 L217.313319 526.156712 L222.220900 537.195529 L237.548991 497.329536 L251.044837 527.686282 L273.122471 517.871121 L280.483842 534.429347 L258.406208 544.244508 L271.902054 574.601254 L232.036061 559.273163 L236.943641 570.311980 L202.598675 567.402558 L205.665913 574.301819 Z" fill="#888" fill-opacity="0.18" stroke="#000" stroke-width="1"/>
  <path d="M140.408501 728.064229 L160.793216 694.509009 L165.242019 700.609492 L179.856587 669.393218 L186.974671 679.153991 L193.581394 636.956846 L213.156126 663.798973 L232.677673 649.562804 L243.354800 664.203965 L223.833253 678.440134 L243.407985 705.282261 L201.210840 698.675538 L208.328924 708.436312 L174.139624 712.810459 L178.588427 718.910943 Z" fill="#888" fill-opacity="0.18" stroke="#000" stroke-width="1"/>
</svg>
