<?xml version="1.0" encoding="UTF-8"?>
<svg xmlns="http://www.w3.org/2000/svg" width="1100" height="1100" viewBox="0 0 1100 1100">
  <rect x="0" y="0" width="1100" height="1100" fill="white"/>
  <text x="10.0" y="18.0" font-family="monospace" font-size="12">prefix=N102_job5048503_task102 run_id=102 L=8.21917170249 feas=0.000e+00 N=102</text>
  <rect x="40.000000" y="40.000000" width="1020.000000" height="1020.000000" fill="none" stroke="#000" stroke-width="2"/>
  <path d="M976.340458 478.352624 L963.155044 440.236250 L970.896517 440.714902 L955.779887 408.695976 L968.166243 409.461820 L939.114962 376.581320 L973.177442 378.687390 L974.709129 353.914678 L993.288664 355.063443 L991.756976 379.836156 L1025.819456 381.942227 L992.938956 410.993508 L1005.325312 411.759352 L986.379462 441.672207 L994.120935 442.150859 Z" fill="#888" fill-opacity="0.18" stroke="#000" stroke-width="1"/>
  <path d="M494.390544 477.440208 L461.578821 500.894502 L459.842239 493.335151 L433.425314 516.912050 L430.646783 504.817088 L407.355705 542.000819 L399.714745 508.739674 L375.524821 514.296735 L371.357026 496.154292 L395.546950 490.597231 L387.905990 457.336085 L425.089722 480.627164 L422.311191 468.532202 L456.369076 478.216448 L454.632495 470.657097 Z" fill="#888" fill-opacity="0.18" stroke="#000" stroke-width="1"/>
  <path d="M898.863576 680.164925 L938.097840 670.816896 L936.855311 678.472981 L970.213213 666.599712 L968.225166 678.849447 L1003.819621 653.195227 L998.352492 686.881998 L1022.851962 690.858092 L1019.869892 709.232694 L995.370422 705.256601 L989.903293 738.943372 L964.249072 703.348917 L962.261026 715.598652 L934.370252 693.785150 L933.127723 701.441234 Z" fill="#888" fill-opacity="0.18" stroke="#000" stroke-width="1"/>
  <path d="M595.669336 821.800911 L601.709455 781.923223 L608.341580 785.944966 L609.837879 750.568629 L620.449280 757.003419 L610.007753 714.387943 L639.189104 732.083615 L652.058684 710.860814 L667.975784 720.512999 L655.106205 741.735800 L684.287556 759.431472 L641.672081 769.872999 L652.283481 776.307788 L621.605831 793.988454 L628.237956 798.010197 Z" fill="#888" fill-opacity="0.18" stroke="#000" stroke-width="1"/>
  <path d="M477.041747 113.090969 L504.335761 142.785243 L497.045800 145.434012 L523.678791 168.766563 L512.014853 173.004594 L551.769774 191.569360 L519.693946 203.223945 L528.170007 226.551819 L510.674101 232.908866 L502.198040 209.580991 L470.122212 221.235576 L488.686979 181.480655 L477.023041 185.718686 L482.465878 150.731550 L475.175917 153.380320 Z" fill="#888" fill-opacity="0.18" stroke="#000" stroke-width="1"/>
  <path d="M866.435109 474.572304 L829.198457 490.068910 L829.201770 482.312655 L798.169460 499.363163 L798.174761 486.953154 L767.136486 517.964922 L767.151065 483.837399 L742.331048 483.826796 L742.339000 465.211783 L767.159017 465.222386 L767.173596 431.094862 L798.185364 462.133137 L798.190665 449.723129 L829.208397 466.800144 L829.211710 459.043889 Z" fill="#888" fill-opacity="0.18" stroke="#000" stroke-width="1"/>
  <path d="M311.729320 64.662454 L340.684455 92.739371 L333.558735 95.802641 L361.488398 117.566328 L350.087246 122.467559 L390.843204 138.717361 L359.490036 152.195748 L369.292499 174.998052 L352.190771 182.349899 L342.388308 159.547595 L311.035140 173.025981 L327.284941 132.270022 L315.883789 137.171254 L319.307295 101.929180 L312.181575 104.992450 Z" fill="#888" fill-opacity="0.18" stroke="#000" stroke-width="1"/>
  <path d="M327.814925 653.756280 L317.720863 692.805262 L311.535693 688.125178 L306.422732 723.162041 L296.526461 715.673907 L302.546805 759.134920 L275.332058 738.542552 L260.355790 758.335095 L245.511383 747.102894 L260.487651 727.310351 L233.272904 706.717983 L276.733917 700.697639 L266.837646 693.209505 L299.165354 678.765011 L292.980184 674.084927 Z" fill="#888" fill-opacity="0.18" stroke="#000" stroke-width="1"/>
  <path d="M638.656105 928.058272 L598.895070 934.823860 L600.634983 927.265275 L566.572834 936.934511 L569.356694 924.840775 L532.162702 948.115464 L539.818319 914.857689 L515.630846 909.289967 L519.806637 891.149363 L543.994110 896.717084 L551.649727 863.459309 L574.924416 900.653302 L577.708276 888.559566 L604.114809 912.148105 L605.854722 904.589519 Z" fill="#888" fill-opacity="0.18" stroke="#000" stroke-width="1"/>
  <path d="M602.256225 762.022937 L595.574697 801.798184 L589.008199 797.670158 L586.942391 833.017811 L576.435993 826.412969 L586.189884 869.191070 L557.297289 851.027754 L544.087605 872.040551 L528.328008 862.133288 L541.537692 841.120492 L512.645097 822.957176 L555.423197 813.203286 L544.916799 806.598444 L575.875201 789.414106 L569.308702 785.286080 Z" fill="#888" fill-opacity="0.18" stroke="#000" stroke-width="1"/>
  <path d="M288.698606 353.477675 L317.377654 381.836541 L310.222305 384.829947 L337.937699 406.865851 L326.489139 411.655301 L367.084162 428.303075 L335.600624 441.474062 L345.179524 464.371180 L328.006685 471.555355 L318.427785 448.658237 L286.944247 461.829224 L303.592021 421.234201 L292.143462 426.023651 L295.911606 390.816759 L288.756256 393.810165 Z" fill="#888" fill-opacity="0.18" stroke="#000" stroke-width="1"/>
  <path d="M204.547363 256.146291 L237.994594 278.685053 L231.519723 282.955363 L262.845680 299.460167 L252.485886 306.292663 L295.466612 315.110908 L266.977178 333.900272 L280.642170 354.619861 L265.102479 364.868605 L251.437487 344.149017 L222.948052 362.938381 L231.766298 319.957655 L221.406503 326.790151 L218.569980 291.495984 L212.095109 295.766294 Z" fill="#888" fill-opacity="0.18" stroke="#000" stroke-width="1"/>
  <path d="M217.477613 818.997794 L178.021692 810.634580 L182.424623 804.249151 L147.196459 800.685368 L154.241149 790.468682 L111.087708 798.398671 L130.460606 770.302784 L110.027234 756.213403 L120.594270 740.888374 L141.027642 754.977755 L160.400541 726.881868 L168.330530 770.035310 L175.375221 759.818624 L191.230486 791.478293 L195.633418 785.092865 Z" fill="#888" fill-opacity="0.18" stroke="#000" stroke-width="1"/>
  <path d="M723.374988 665.030642 L759.764782 647.638231 L760.160640 655.384378 L790.274344 636.759424 L790.907716 649.153260 L820.308877 616.585239 L822.050650 650.668289 L846.838322 649.401546 L847.788380 667.992300 L823.000708 669.259044 L824.742480 703.342094 L792.174460 673.940933 L792.807832 686.334769 L760.952354 670.876674 L761.348212 678.622822 Z" fill="#888" fill-opacity="0.18" stroke="#000" stroke-width="1"/>
  <path d="M456.779533 300.867190 L442.320886 338.519024 L436.706555 333.167501 L427.651992 367.398175 L418.669062 358.835739 L419.720295 402.699153 L395.017239 379.152453 L377.892366 397.118312 L364.417972 384.274658 L381.542845 366.308799 L356.839789 342.762099 L400.703203 341.710866 L391.720274 333.148430 L425.477893 322.464456 L419.863562 317.112933 Z" fill="#888" fill-opacity="0.18" stroke="#000" stroke-width="1"/>
  <path d="M623.382477 461.550717 L657.870874 440.639869 L659.031942 448.308730 L687.153037 426.792965 L689.010745 439.063142 L715.041918 403.743427 L720.150616 437.486415 L744.690971 433.770998 L747.477534 452.176264 L722.937179 455.891682 L728.045878 489.634670 L692.726162 463.603498 L694.583871 475.873675 L661.354078 463.646452 L662.515146 471.315313 Z" fill="#888" fill-opacity="0.18" stroke="#000" stroke-width="1"/>
  <path d="M622.937584 578.168748 L643.539219 543.494756 L648.170576 549.716495 L662.868548 517.503241 L670.278719 527.458024 L676.640249 484.045639 L697.018220 511.421292 L716.927786 496.600950 L728.043042 511.533125 L708.133476 526.353467 L728.511446 553.729120 L685.099061 547.367590 L692.509232 557.322373 L657.433290 562.159974 L662.064647 568.381713 Z" fill="#888" fill-opacity="0.18" stroke="#000" stroke-width="1"/>
  <path d="M174.298981 969.373373 L139.596910 989.927676 L138.514938 982.247256 L110.173598 1003.472066 L108.442443 991.183395 L82.048651 1026.232959 L77.287976 992.439113 L52.710633 995.901423 L50.113901 977.468416 L74.691244 974.006106 L69.930569 940.212260 L104.980134 966.606052 L103.248979 954.317381 L136.350995 966.886417 L135.269023 959.205997 Z" fill="#888" fill-opacity="0.18" stroke="#000" stroke-width="1"/>
  <path d="M841.052384 975.038437 L866.458255 943.713450 L870.139771 950.540304 L889.347854 920.795159 L895.238280 931.718127 L907.819634 889.684643 L924.018306 919.722804 L945.864241 907.941952 L954.699880 924.326403 L932.853945 936.107255 L949.052616 966.145416 L907.019132 953.564062 L912.909558 964.487029 L877.502803 964.194014 L881.184320 971.020869 Z" fill="#888" fill-opacity="0.18" stroke="#000" stroke-width="1"/>
  <path d="M650.678882 835.662919 L684.124306 813.121475 L685.651972 820.725799 L712.708403 797.885622 L715.152668 810.052541 L739.459301 773.524581 L746.181031 806.983607 L770.514868 802.095076 L774.181266 820.345453 L749.847429 825.233984 L756.569159 858.693010 L720.041199 834.386378 L722.485465 846.553296 L688.707304 835.934447 L690.234970 843.538771 Z" fill="#888" fill-opacity="0.18" stroke="#000" stroke-width="1"/>
  <path d="M908.297713 102.596495 L934.796974 133.002124 L927.439521 135.457198 L953.446213 159.485849 L941.674288 163.413967 L980.924397 183.023485 L948.551602 193.825810 L956.407838 217.369661 L938.749950 223.261838 L930.893714 199.717987 L898.520919 210.520312 L918.130437 171.270203 L906.358512 175.198321 L912.724614 140.367345 L905.367161 142.822419 Z" fill="#888" fill-opacity="0.18" stroke="#000" stroke-width="1"/>
  <path d="M346.262614 1042.235649 L311.849425 1021.201260 L318.128694 1016.648208 L286.102093 1001.547845 L296.148924 994.262962 L252.819638 987.358093 L280.448423 967.324664 L265.878656 947.231002 L280.948903 936.303677 L295.518670 956.397339 L323.147455 936.363909 L316.242586 979.693195 L326.289417 972.408312 L330.687233 1007.542104 L336.966502 1002.989052 Z" fill="#888" fill-opacity="0.18" stroke="#000" stroke-width="1"/>
  <path d="M221.367464 333.161524 L186.688286 312.568620 L192.908859 307.935696 L160.691905 293.245835 L170.644822 285.833158 L127.230837 279.482558 L154.601359 259.097696 L139.776004 239.191862 L154.705380 228.072846 L169.530734 247.978680 L196.901256 227.593818 L190.550656 271.007804 L200.503573 263.595126 L205.350005 298.669850 L211.570578 294.036927 Z" fill="#888" fill-opacity="0.18" stroke="#000" stroke-width="1"/>
  <path d="M915.427948 462.586654 L952.049635 479.485326 L946.341166 484.736316 L979.903755 496.018015 L970.770205 504.419598 L1014.608038 506.249516 L989.490775 529.353869 L1006.293941 547.620970 L992.593616 560.223344 L975.790449 541.956244 L950.673186 565.060597 L952.503104 521.222764 L943.369554 529.624347 L934.924228 495.238294 L929.215759 500.489284 Z" fill="#888" fill-opacity="0.18" stroke="#000" stroke-width="1"/>
  <path d="M395.150143 273.724085 L375.283295 308.824248 L370.521938 302.701423 L356.505621 335.217065 L348.887451 325.420544 L343.441576 368.957272 L322.491607 342.016841 L302.898565 357.253182 L291.471310 342.558401 L311.064351 327.322060 L290.114382 300.381628 L333.651110 305.827503 L326.032939 296.030983 L360.999225 290.455772 L356.237868 284.332946 Z" fill="#888" fill-opacity="0.18" stroke="#000" stroke-width="1"/>
  <path d="M429.079353 893.426646 L409.853917 928.882191 L404.982033 922.846940 L391.559175 955.612028 L383.764160 945.955627 L379.110693 989.584167 L357.674403 963.029063 L338.361600 978.619092 L326.669079 964.134490 L345.981881 948.544461 L324.545591 921.989357 L368.174131 926.642824 L360.379116 916.986423 L395.238265 910.776438 L390.366381 904.741188 Z" fill="#888" fill-opacity="0.18" stroke="#000" stroke-width="1"/>
  <path d="M779.318487 133.879484 L819.463947 137.759573 L815.805835 144.598997 L851.211379 144.184712 L845.358400 155.127791 L887.348545 142.402542 L871.252852 172.496009 L893.139009 184.201967 L884.359540 200.616585 L862.473383 188.910627 L846.377690 219.004094 L833.652441 177.013948 L827.799462 187.957027 L808.489611 158.277846 L804.831499 165.117270 Z" fill="#888" fill-opacity="0.18" stroke="#000" stroke-width="1"/>
  <path d="M493.796740 483.604636 L534.085890 481.734492 L531.437902 489.024736 L566.424454 483.578152 L562.187673 495.242543 L601.940604 476.673518 L590.289456 508.750594 L613.618238 517.224157 L607.263066 534.720744 L583.934284 526.247181 L572.283135 558.324257 L553.714110 518.571325 L549.477329 530.235717 L526.141925 503.605225 L523.493937 510.895470 Z" fill="#888" fill-opacity="0.18" stroke="#000" stroke-width="1"/>
  <path d="M420.304812 882.830490 L391.070948 855.043906 L398.165746 851.909683 L370.020300 830.425782 L381.371976 825.411026 L340.455895 809.568725 L371.673005 795.778145 L361.643492 773.074792 L378.671007 765.552658 L388.700519 788.256011 L419.917630 774.465431 L404.075329 815.381513 L415.427006 810.366757 L412.355341 845.641238 L419.450139 842.507015 Z" fill="#888" fill-opacity="0.18" stroke="#000" stroke-width="1"/>
  <path d="M92.272758 757.811269 L105.548354 795.896326 L97.805770 795.435999 L112.998146 827.419055 L100.610011 826.682531 L129.739038 859.494176 L95.671668 857.468736 L94.198621 882.245005 L75.616419 881.140219 L77.089467 856.363950 L43.022097 854.338510 L75.833743 825.209484 L63.445608 824.472960 L82.320602 794.515344 L74.578019 794.055017 Z" fill="#888" fill-opacity="0.18" stroke="#000" stroke-width="1"/>
  <path d="M857.007907 431.860042 L817.424149 424.124463 L821.725121 417.669919 L786.444804 414.666027 L793.326360 404.338756 L750.304292 412.953044 L769.228571 384.553048 L748.574029 370.789937 L758.896362 355.299030 L779.550905 369.062142 L798.475183 340.662146 L807.089471 383.684213 L813.971027 373.356942 L830.327066 404.760830 L834.628038 398.306285 Z" fill="#888" fill-opacity="0.18" stroke="#000" stroke-width="1"/>
  <path d="M579.198207 352.429019 L540.879056 339.845072 L545.947149 333.973621 L511.311540 326.618440 L519.420489 317.224118 L475.662312 320.437549 L497.961923 294.603164 L479.173280 278.385265 L491.336704 264.293783 L510.125347 280.511682 L532.424958 254.677298 L535.638388 298.435475 L543.747338 289.041154 L556.083336 322.230719 L561.151429 316.359268 Z" fill="#888" fill-opacity="0.18" stroke="#000" stroke-width="1"/>
  <path d="M629.301976 362.228392 L623.692097 402.168876 L617.017002 398.218862 L615.902153 433.609274 L605.222001 427.289251 L616.122323 469.789689 L586.751905 452.409625 L574.111859 473.769929 L558.091631 464.289894 L570.731677 442.929590 L541.361259 425.549527 L583.861697 414.649205 L573.181545 408.329181 L603.666812 390.318833 L596.991717 386.368819 Z" fill="#888" fill-opacity="0.18" stroke="#000" stroke-width="1"/>
  <path d="M699.806949 230.035710 L727.973097 201.167369 L731.014360 208.302509 L752.864144 180.440150 L757.730164 191.856374 L774.105675 151.150762 L787.487231 182.545380 L810.319680 172.813340 L817.618711 189.937677 L794.786261 199.669717 L808.167817 231.064335 L767.462205 214.688824 L772.328225 226.105049 L737.096885 222.572790 L740.138148 229.707931 Z" fill="#888" fill-opacity="0.18" stroke="#000" stroke-width="1"/>
  <path d="M82.260632 938.988426 L103.535883 904.723623 L108.044779 911.034674 L123.369410 879.114777 L130.583644 889.212458 L137.792262 845.932670 L157.631406 873.701293 L177.826769 859.272825 L188.648120 874.419347 L168.452757 888.847815 L188.291901 916.616439 L145.012112 909.407821 L152.226347 919.505502 L117.062572 923.656775 L121.571468 929.967826 Z" fill="#888" fill-opacity="0.18" stroke="#000" stroke-width="1"/>
  <path d="M933.840468 337.367392 L946.116028 375.786446 L938.388122 375.123894 L952.739306 407.493133 L940.374657 406.433049 L968.636071 439.994883 L934.633285 437.079653 L932.513117 461.808952 L913.966143 460.218826 L916.086310 435.489527 L882.083524 432.574297 L915.645357 404.312882 L903.280708 403.252798 L922.932310 373.798789 L915.204404 373.136237 Z" fill="#888" fill-opacity="0.18" stroke="#000" stroke-width="1"/>
  <path d="M104.786576 504.187685 L144.239179 495.808830 L142.808457 503.431988 L176.448678 492.383924 L174.159524 504.580978 L210.375042 479.811229 L204.079869 513.353126 L228.473976 517.931434 L225.040245 536.227014 L200.646138 531.648706 L194.350965 565.190603 L169.581216 528.975085 L167.292062 541.172138 L139.947015 518.678305 L138.516294 526.301464 Z" fill="#888" fill-opacity="0.18" stroke="#000" stroke-width="1"/>
  <path d="M532.238068 464.900570 L506.076374 434.204010 L513.460504 431.830377 L487.720889 407.515848 L499.535497 403.718036 L460.504448 383.676044 L492.994620 373.232063 L485.398997 349.602846 L503.120910 343.906129 L510.716533 367.535346 L543.206705 357.091364 L523.164713 396.122413 L534.979322 392.324602 L528.228764 427.083113 L535.612894 424.709481 Z" fill="#888" fill-opacity="0.18" stroke="#000" stroke-width="1"/>
  <path d="M54.271719 593.191047 L94.546122 591.026437 L91.951497 598.335843 L126.897300 592.633651 L122.745899 604.328702 L162.362028 585.469577 L150.945675 617.630966 L174.335777 625.933768 L168.108675 643.476344 L144.718574 635.173542 L133.302221 667.334932 L114.443097 627.718803 L110.291696 639.413853 L86.762246 612.954657 L84.167620 620.264063 Z" fill="#888" fill-opacity="0.18" stroke="#000" stroke-width="1"/>
  <path d="M1053.058084 582.199236 L1026.489675 612.544462 L1023.068067 605.583707 L1002.752584 634.583798 L997.278012 623.446590 L983.121423 664.976040 L968.066350 634.348718 L945.791934 645.297863 L937.580076 628.592051 L959.854491 617.642907 L944.799418 587.015585 L986.328868 601.172174 L980.854296 590.034966 L1016.224852 591.662197 L1012.803245 584.701442 Z" fill="#888" fill-opacity="0.18" stroke="#000" stroke-width="1"/>
  <path d="M181.216053 612.596703 L197.325304 649.572440 L189.570051 649.697179 L207.130562 680.443765 L194.722158 680.643347 L226.242124 711.165404 L192.119011 711.714254 L192.518174 736.531063 L173.905568 736.830436 L173.506404 712.013627 L139.383291 712.562477 L169.905348 681.042511 L157.496944 681.242092 L174.059545 649.946656 L166.304293 650.071394 Z" fill="#888" fill-opacity="0.18" stroke="#000" stroke-width="1"/>
  <path d="M550.058059 800.134848 L512.143654 813.890245 L512.506187 806.142466 L480.717498 821.737446 L481.297552 809.341000 L448.856303 838.881982 L450.451450 804.791755 L425.658557 803.631648 L426.528638 785.036978 L451.321530 786.197085 L452.916677 752.106858 L482.457659 784.548108 L483.037712 772.151661 L513.231254 790.646908 L513.593787 782.899130 Z" fill="#888" fill-opacity="0.18" stroke="#000" stroke-width="1"/>
  <path d="M360.237721 758.598830 L384.570891 726.433477 L388.480926 733.132069 L406.673216 702.755026 L412.929273 713.472773 L424.083499 671.038265 L441.287654 700.512069 L462.723148 687.999957 L472.107232 704.076577 L450.671738 716.588690 L467.875893 746.062494 L425.441385 734.908267 L431.697441 745.626014 L396.300997 746.529253 L400.211032 753.227844 Z" fill="#888" fill-opacity="0.18" stroke="#000" stroke-width="1"/>
  <path d="M45.419102 636.759486 L80.631983 656.425856 L74.536408 661.222050 L107.131449 675.052722 L97.378529 682.726633 L140.945604 687.924155 L114.125075 709.027409 L129.472896 728.533248 L114.843517 740.044113 L99.495696 720.538274 L72.675168 741.641528 L77.872690 698.074453 L68.119771 705.748364 L62.345259 670.814439 L56.249684 675.610633 Z" fill="#888" fill-opacity="0.18" stroke="#000" stroke-width="1"/>
  <path d="M113.620212 304.912161 L87.487630 274.190814 L94.874007 271.824183 L69.157453 247.485263 L80.975656 243.698653 L41.963624 223.619669 L74.463683 213.206493 L66.890464 189.570086 L84.617769 183.890172 L92.190988 207.526578 L124.691047 197.113402 L104.612063 236.125434 L116.430266 232.338824 L109.646761 267.090921 L117.033138 264.724290 Z" fill="#888" fill-opacity="0.18" stroke="#000" stroke-width="1"/>
  <path d="M682.265692 596.621948 L717.242991 576.539577 L718.220830 584.233947 L746.847065 563.394974 L748.411608 575.705967 L775.277732 541.017126 L779.580226 574.872356 L804.202212 571.743270 L806.549027 590.209759 L781.927041 593.338846 L786.229535 627.194076 L751.540695 600.327952 L753.105239 612.638945 L720.176509 599.622688 L721.154349 607.317059 Z" fill="#888" fill-opacity="0.18" stroke="#000" stroke-width="1"/>
  <path d="M997.563058 306.112691 L985.030637 267.776657 L992.762804 268.387472 L978.195296 236.115010 L990.566764 237.092314 L962.081355 203.720384 L996.102892 206.407970 L998.057500 181.665035 L1016.614702 183.130991 L1014.660094 207.873927 L1048.681630 210.561514 L1015.309700 239.046922 L1027.681168 240.024227 L1008.227139 269.609103 L1015.959306 270.219918 Z" fill="#888" fill-opacity="0.18" stroke="#000" stroke-width="1"/>
  <path d="M952.915488 319.290838 L921.847226 345.010017 L919.579639 337.592635 L894.898801 362.981221 L891.270662 351.113410 L870.671479 389.853284 L860.694099 357.216802 L836.958476 364.473079 L831.516268 346.671362 L855.251891 339.415085 L845.274511 306.778603 L884.014386 327.377787 L880.386248 315.509975 L915.044467 322.757870 L912.776880 315.340488 Z" fill="#888" fill-opacity="0.18" stroke="#000" stroke-width="1"/>
  <path d="M779.789708 242.540884 L817.356431 227.862519 L817.183454 235.616846 L848.581311 219.249234 L848.304548 231.656157 L880.013763 201.330756 L879.252665 235.449795 L904.066511 236.003320 L903.651367 254.613705 L878.837521 254.060179 L878.076423 288.179218 L847.751022 256.470003 L847.474259 268.876926 L816.837500 251.125500 L816.664524 258.879827 Z" fill="#888" fill-opacity="0.18" stroke="#000" stroke-width="1"/>
  <path d="M873.520257 314.090475 L897.999513 282.036160 L901.879032 288.752471 L920.209335 258.458509 L926.416565 269.204607 L937.763733 226.821285 L954.833618 256.373054 L976.325815 243.958592 L985.636661 260.077740 L964.144465 272.492201 L981.214350 302.043971 L938.831027 290.696803 L945.038258 301.442901 L909.638070 302.185094 L913.517590 308.901405 Z" fill="#888" fill-opacity="0.18" stroke="#000" stroke-width="1"/>
  <path d="M213.122172 678.174032 L220.070484 638.444522 L226.609132 642.616523 L228.912113 607.283530 L239.373949 613.958732 L229.907365 571.116136 L258.677414 589.472943 L272.027819 568.549271 L287.720573 578.562074 L274.370168 599.485746 L303.140217 617.842553 L260.297621 627.309137 L270.759457 633.984339 L239.686427 650.960526 L246.225074 655.132527 Z" fill="#888" fill-opacity="0.18" stroke="#000" stroke-width="1"/>
  <path d="M216.227842 791.206395 L246.571182 817.776958 L239.610184 821.198071 L268.608833 841.515613 L257.471237 846.989394 L298.999681 861.148932 L268.371291 876.201831 L279.318854 898.477024 L262.612459 906.687696 L251.664896 884.412503 L221.036506 899.465402 L235.196044 857.936957 L224.058447 863.410739 L225.688189 828.040298 L218.727191 831.461411 Z" fill="#888" fill-opacity="0.18" stroke="#000" stroke-width="1"/>
  <path d="M202.159698 567.061856 L229.539313 537.446492 L232.771358 544.497265 L253.863946 516.057383 L259.035219 527.338618 L274.310125 486.207347 L288.531126 517.230744 L311.093597 506.888198 L318.850507 523.810051 L296.288036 534.152597 L310.509037 565.175995 L269.377766 549.901089 L274.549039 561.182325 L239.235450 558.598809 L242.467496 565.649581 Z" fill="#888" fill-opacity="0.18" stroke="#000" stroke-width="1"/>
  <path d="M371.919721 719.324078 L357.946505 757.158749 L352.263813 751.879874 L343.650235 786.224166 L334.557928 777.777966 L336.173195 821.624234 L311.169351 798.397183 L294.276951 816.581797 L280.638491 803.912497 L297.530891 785.727883 L272.527047 762.500833 L316.373314 760.885566 L307.281007 752.439366 L340.898429 741.322124 L335.215737 736.043249 Z" fill="#888" fill-opacity="0.18" stroke="#000" stroke-width="1"/>
  <path d="M1055.129706 940.439557 L1017.134875 926.907894 L1022.347214 921.164113 L987.904941 912.951077 L996.244683 903.761026 L952.420200 905.886798 L975.354491 880.614158 L956.974389 863.934673 L969.484002 850.149597 L987.864104 866.829081 L1010.798395 841.556441 L1012.924167 885.380924 L1021.263910 876.190873 L1032.771892 909.676549 L1037.984231 903.932767 Z" fill="#888" fill-opacity="0.18" stroke="#000" stroke-width="1"/>
  <path d="M559.432906 770.163894 L523.732491 751.397076 L529.704442 746.447803 L496.769056 733.448400 L506.324178 725.529563 L462.639280 721.438853 L488.915864 699.662049 L473.078189 680.551806 L487.410871 668.673549 L503.248547 687.783793 L529.525131 666.006989 L525.434421 709.691887 L534.989543 701.773050 L541.648345 736.549255 L547.620296 731.599982 Z" fill="#888" fill-opacity="0.18" stroke="#000" stroke-width="1"/>
  <path d="M183.133699 134.192053 L143.097733 139.074109 L145.192336 131.606033 L110.711909 139.657387 L114.063273 127.708467 L75.812561 149.202355 L85.028814 116.342825 L61.130974 109.640095 L66.158021 91.716715 L90.055861 98.419444 L99.272114 65.559914 L120.766003 103.810626 L124.117368 91.861706 L149.381542 116.669883 L151.476144 109.201808 Z" fill="#888" fill-opacity="0.18" stroke="#000" stroke-width="1"/>
  <path d="M558.339349 51.276271 L572.727401 88.955138 L564.974640 88.722332 L581.099489 120.245551 L568.695071 119.873061 L598.774891 151.815332 L564.662741 150.790984 L563.917760 175.599820 L545.311133 175.041085 L546.056113 150.232249 L511.943963 149.207901 L543.886234 119.128081 L531.481816 118.755590 L549.469117 88.256719 L541.716355 88.023913 Z" fill="#888" fill-opacity="0.18" stroke="#000" stroke-width="1"/>
  <path d="M912.599071 890.283708 L910.215648 850.021661 L917.539046 852.576531 L911.647048 817.662228 L923.364484 821.750019 L904.290371 782.236952 L936.513320 793.478377 L944.688901 770.043505 L962.265055 776.175191 L954.089474 799.610063 L986.312423 810.851487 L946.799356 829.925600 L958.516792 834.013391 L932.185841 857.686269 L939.509238 860.241138 Z" fill="#888" fill-opacity="0.18" stroke="#000" stroke-width="1"/>
  <path d="M775.059761 100.421375 L808.973929 78.591527 L810.340605 86.226427 L837.873518 63.962940 L840.060200 76.178780 L865.133095 40.172472 L871.146472 73.766034 L895.578153 69.392668 L898.858177 87.716429 L874.426496 92.089794 L880.439874 125.683355 L844.433566 100.610461 L846.620248 112.826301 L813.073959 101.496228 L814.440635 109.131128 Z" fill="#888" fill-opacity="0.18" stroke="#000" stroke-width="1"/>
  <path d="M519.013522 449.489599 L478.908171 453.764401 L481.115703 446.328924 L446.517227 453.856846 L450.049278 441.960084 L411.477245 462.871864 L421.190384 430.155767 L397.396859 423.091666 L402.694935 405.246522 L426.488460 412.310623 L436.201599 379.594526 L457.113379 418.166559 L460.645429 406.269796 L485.530766 431.457971 L487.738298 424.022494 Z" fill="#888" fill-opacity="0.18" stroke="#000" stroke-width="1"/>
  <path d="M371.039476 644.448154 L376.394075 604.472645 L383.094269 608.379934 L383.982998 572.983122 L394.703308 579.234784 L383.531688 536.804852 L413.012542 553.996923 L425.515866 532.556302 L441.596332 541.933796 L429.093007 563.374417 L458.573861 580.566488 L416.143929 591.738109 L426.864240 597.989771 L396.494657 616.194511 L403.194851 620.101800 Z" fill="#888" fill-opacity="0.18" stroke="#000" stroke-width="1"/>
  <path d="M862.422258 763.382305 L855.837874 803.173748 L849.261315 799.061768 L847.281826 834.414360 L836.759331 827.835193 L846.617649 870.589348 L817.680789 852.496637 L804.522454 873.541627 L788.738712 863.672875 L801.897047 842.627886 L772.960186 824.535175 L815.714342 814.676857 L805.191847 808.097690 L836.108196 790.837809 L829.531637 786.725829 Z" fill="#888" fill-opacity="0.18" stroke="#000" stroke-width="1"/>
  <path d="M531.877490 252.562173 L570.704025 263.480653 L565.894048 269.565358 L600.814816 275.418916 L593.118852 285.154443 L636.697578 280.055534 L615.533679 306.828233 L635.004734 322.220160 L623.460789 336.823451 L603.989734 321.431524 L582.825835 348.204224 L577.726926 304.625498 L570.030962 314.361025 L556.274094 281.734767 L551.464117 287.819471 Z" fill="#888" fill-opacity="0.18" stroke="#000" stroke-width="1"/>
  <path d="M1044.179799 173.468807 L1005.323904 162.655273 L1010.117423 156.557594 L975.180967 150.798411 L982.850598 141.042125 L939.285808 146.258763 L960.377291 119.428978 L940.864720 104.089717 L952.369166 89.455289 L971.881737 104.794550 L992.973220 77.964764 L998.189858 121.529554 L1005.859489 111.773269 L1019.704461 144.362237 L1024.497980 138.264559 Z" fill="#888" fill-opacity="0.18" stroke="#000" stroke-width="1"/>
  <path d="M406.433199 1053.605243 L405.127723 1013.293845 L412.380152 1016.043716 L407.424294 980.984286 L419.028179 985.384080 L401.017950 945.374883 L432.928634 957.474315 L441.728222 934.266545 L459.134050 940.866235 L450.334462 964.074006 L482.245147 976.173438 L442.235950 994.183667 L453.839835 998.583461 L426.885008 1021.543458 L434.137437 1024.293329 Z" fill="#888" fill-opacity="0.18" stroke="#000" stroke-width="1"/>
  <path d="M421.213812 42.436982 L461.545344 42.720930 L458.511838 49.859371 L493.739318 46.288826 L488.885707 57.710332 L529.573499 41.290592 L516.226070 72.699734 L539.069083 82.406955 L531.788668 99.539215 L508.945655 89.831994 L495.598227 121.241136 L479.178487 80.553345 L474.324876 91.974851 L452.444825 64.136254 L449.411318 71.274695 Z" fill="#888" fill-opacity="0.18" stroke="#000" stroke-width="1"/>
  <path d="M723.495338 64.942333 L730.478702 104.665698 L722.910696 102.967229 L732.766435 136.975883 L720.657626 134.258334 L744.135776 171.324231 L710.836550 163.850970 L705.401451 188.068589 L687.238237 183.992265 L692.673336 159.774646 L659.374110 152.301385 L696.440007 128.823235 L684.331198 126.105686 L707.774684 99.570293 L700.206678 97.871824 Z" fill="#888" fill-opacity="0.18" stroke="#000" stroke-width="1"/>
  <path d="M1029.518256 251.678444 L1039.544674 290.744850 L1031.868210 289.635160 L1044.317672 322.782332 L1032.035330 321.006829 L1058.302427 356.151442 L1024.525986 351.268809 L1020.974980 375.833493 L1002.551467 373.170238 L1006.102473 348.605554 L972.326033 343.722920 L1007.470646 317.455823 L995.188304 315.680320 L1016.515282 287.415781 L1008.838818 286.306092 Z" fill="#888" fill-opacity="0.18" stroke="#000" stroke-width="1"/>
  <path d="M773.061090 915.035037 L776.406736 955.228565 L769.024331 952.849573 L775.749651 987.612976 L763.937803 983.806588 L783.951453 1022.852178 L751.468871 1012.384610 L743.856095 1036.008306 L726.138323 1030.298724 L733.751099 1006.675028 L701.268518 996.207461 L740.314108 976.193812 L728.502260 972.387423 L754.259521 948.091588 L746.877116 945.712595 Z" fill="#888" fill-opacity="0.18" stroke="#000" stroke-width="1"/>
  <path d="M957.877098 905.830789 L984.825555 935.839017 L977.505421 938.403223 L1003.866540 962.042503 L992.154327 966.145233 L1031.691685 985.168942 L999.483098 996.451450 L1007.688558 1019.875877 L990.120238 1026.029972 L981.914778 1002.605545 L949.706191 1013.888052 L968.729900 974.350693 L957.017686 978.453423 L962.865155 943.531636 L955.545021 946.095842 Z" fill="#888" fill-opacity="0.18" stroke="#000" stroke-width="1"/>
  <path d="M512.245143 253.803475 L474.435554 267.844418 L474.739646 260.094125 L443.069473 275.928400 L443.556020 263.527932 L411.338481 293.312734 L412.676487 259.211446 L387.875551 258.238351 L388.605372 239.637649 L413.406308 240.610744 L414.744314 206.509457 L444.529116 238.726996 L445.015663 226.326528 L475.347831 244.593540 L475.651923 236.843248 Z" fill="#888" fill-opacity="0.18" stroke="#000" stroke-width="1"/>
  <path d="M886.660527 619.895755 L869.260505 583.509599 L877.006570 583.112122 L858.375317 553.002314 L870.769021 552.366349 L838.194851 522.972001 L872.277536 521.223099 L871.005608 496.435692 L889.596163 495.481746 L890.868092 520.269153 L924.950776 518.520252 L895.556428 551.094421 L907.950132 550.458457 L892.498700 582.317167 L900.244764 581.919689 Z" fill="#888" fill-opacity="0.18" stroke="#000" stroke-width="1"/>
  <path d="M352.912523 670.938911 L329.332406 638.217493 L336.885034 636.451897 L313.206869 610.125700 L325.291073 607.300746 L288.018179 584.152622 L321.249739 576.383999 L315.599831 552.215592 L333.726136 547.978161 L339.376044 572.146568 L372.607604 564.377945 L349.459480 601.650838 L361.543683 598.825884 L351.990288 632.920705 L359.542915 631.155109 Z" fill="#888" fill-opacity="0.18" stroke="#000" stroke-width="1"/>
  <path d="M659.694222 668.952387 L624.362548 688.404531 L623.522795 680.693868 L594.527602 701.016342 L593.183996 688.679281 L565.700360 722.880948 L562.005443 688.954032 L537.331322 691.641244 L535.315913 673.135653 L559.990034 670.448441 L556.295117 636.521525 L590.496783 664.005160 L589.153177 651.668100 L621.843287 665.272542 L621.003533 657.561880 Z" fill="#888" fill-opacity="0.18" stroke="#000" stroke-width="1"/>
  <path d="M280.421383 474.797196 L251.451565 446.735430 L258.575682 443.668433 L230.634638 421.919360 L242.033224 417.012165 L201.268770 400.783685 L232.614884 387.288899 L222.800494 364.491726 L239.898374 357.130934 L249.712764 379.928107 L281.058877 366.433321 L264.830398 407.197775 L276.228984 402.290580 L272.823915 437.534439 L279.948032 434.467443 Z" fill="#888" fill-opacity="0.18" stroke="#000" stroke-width="1"/>
  <path d="M299.456002 41.423147 L298.700163 81.748595 L291.597705 78.631771 L294.755817 113.898617 L283.391883 108.911699 L299.334421 149.788829 L268.083604 136.074803 L258.109767 158.802670 L241.063867 151.322292 L251.037704 128.594425 L219.786887 114.880399 L260.664016 98.937862 L249.300083 93.950943 L277.392788 72.398123 L270.290329 69.281299 Z" fill="#888" fill-opacity="0.18" stroke="#000" stroke-width="1"/>
  <path d="M743.573510 907.367877 L705.517830 920.727454 L705.961077 912.983874 L674.011612 928.246764 L674.720807 915.857035 L641.973497 945.058370 L643.923783 910.986616 L619.144325 909.568226 L620.208117 890.983633 L644.987575 892.402022 L646.937861 858.330268 L676.139196 891.077577 L676.848391 878.687848 L706.847570 897.496712 L707.290817 889.753132 Z" fill="#888" fill-opacity="0.18" stroke="#000" stroke-width="1"/>
  <path d="M647.066357 535.769233 L624.113908 568.933945 L619.924348 562.406535 L603.031739 593.525081 L596.328442 583.081224 L586.977043 625.949110 L568.542976 597.228503 L547.655262 610.635098 L537.600316 594.969313 L558.488030 581.562718 L540.053962 552.842112 L582.921848 562.193511 L576.218550 551.749654 L611.545226 549.351714 L607.355665 542.824303 Z" fill="#888" fill-opacity="0.18" stroke="#000" stroke-width="1"/>
  <path d="M727.365533 237.941675 L741.359434 275.768700 L733.609526 275.454968 L749.404395 307.144812 L737.004542 306.642841 L766.749246 338.897404 L732.649649 337.516981 L731.645705 362.316688 L713.045925 361.563730 L714.049869 336.764024 L679.950272 335.383601 L712.204835 305.638897 L699.804981 305.136925 L718.109709 274.827503 L710.359801 274.513771 Z" fill="#888" fill-opacity="0.18" stroke="#000" stroke-width="1"/>
  <path d="M162.439708 382.673809 L146.712958 419.813846 L141.283273 414.275071 L131.073480 448.179116 L122.385984 439.317076 L121.949624 483.190916 L98.059010 458.820306 L80.334930 476.195298 L67.303686 462.902238 L85.027766 445.527246 L61.137152 421.156636 L105.010992 421.592996 L96.323496 412.730956 L130.423903 403.197521 L124.994218 397.658746 Z" fill="#888" fill-opacity="0.18" stroke="#000" stroke-width="1"/>
  <path d="M436.776325 69.163016 L442.676418 109.061662 L435.157421 107.157932 L444.084297 141.422127 L432.053901 138.376160 L454.514973 176.067067 L421.431384 167.690657 L415.339450 191.751449 L397.293856 187.182498 L403.385791 163.121707 L370.302202 154.745297 L407.993110 132.284225 L395.962714 129.238258 L420.119426 103.350473 L412.600429 101.446744 Z" fill="#888" fill-opacity="0.18" stroke="#000" stroke-width="1"/>
  <path d="M406.842841 897.828364 L367.598675 907.134733 L368.849332 899.479972 L335.478843 911.317820 L337.479894 899.070202 L301.858223 924.686619 L307.361113 891.005671 L282.865878 887.003569 L285.867454 868.632143 L310.362689 872.634244 L315.865579 838.953296 L341.481995 874.574967 L343.483046 862.327349 L371.350645 884.170451 L372.601302 876.515690 Z" fill="#888" fill-opacity="0.18" stroke="#000" stroke-width="1"/>
  <path d="M272.147860 297.805743 L282.420230 258.803288 L288.583952 263.511583 L293.856942 228.498446 L303.718897 236.031718 L297.897188 192.543651 L325.017565 213.260148 L340.084107 193.536237 L354.877040 204.836144 L339.810497 224.560055 L366.930874 245.276551 L323.442808 251.098261 L333.304763 258.631532 L300.911396 272.928172 L307.075118 277.636467 Z" fill="#888" fill-opacity="0.18" stroke="#000" stroke-width="1"/>
  <path d="M245.656799 941.150177 L236.240391 980.368085 L229.975112 975.795801 L225.469588 1010.915943 L215.445142 1003.600288 L222.217119 1046.950542 L194.649892 1026.832490 L180.018581 1046.881383 L164.981911 1035.907900 L179.613222 1015.859007 L152.045994 995.740955 L195.396249 988.968977 L185.371802 981.653322 L217.444554 966.651232 L211.179275 962.078947 Z" fill="#888" fill-opacity="0.18" stroke="#000" stroke-width="1"/>
  <path d="M506.215755 961.429525 L476.107029 934.593398 L483.097816 931.233575 L454.278792 910.662041 L465.464050 905.286323 L424.061610 890.762472 L454.821070 875.979249 L444.069635 853.608733 L460.847522 845.545156 L471.598957 867.915672 L502.358417 853.132449 L487.834566 894.534888 L499.019824 889.159171 L497.079388 924.513928 L504.070175 921.154104 Z" fill="#888" fill-opacity="0.18" stroke="#000" stroke-width="1"/>
  <path d="M225.660114 217.428265 L185.328759 217.120287 L188.366518 209.983655 L153.136917 213.533211 L157.997331 202.114598 L117.299764 218.510094 L130.665903 187.108909 L107.828678 177.388081 L115.119300 160.260162 L137.956525 169.980991 L151.322664 138.579806 L167.718160 179.277373 L172.578574 167.858761 L194.442035 195.710389 L197.479794 188.573756 Z" fill="#888" fill-opacity="0.18" stroke="#000" stroke-width="1"/>
  <path d="M862.136096 656.102237 L885.109783 689.252241 L877.525929 690.878487 L900.715390 717.636159 L888.581225 720.238153 L925.421622 744.068583 L892.052667 751.224065 L897.256654 775.492395 L879.055405 779.395385 L873.851419 755.127055 L840.482464 762.282536 L864.312894 725.442140 L852.178728 728.044133 L862.358222 694.130979 L854.774369 695.757224 Z" fill="#888" fill-opacity="0.18" stroke="#000" stroke-width="1"/>
  <path d="M675.142314 1014.645264 L635.938247 1024.119136 L637.156204 1016.459104 L603.836572 1028.439347 L605.785302 1016.183296 L570.273348 1041.951597 L575.632357 1008.247457 L551.120255 1004.349996 L554.043351 985.965919 L578.555453 989.863380 L583.914463 956.159240 L609.682764 991.671194 L611.631494 979.415143 L639.592117 1001.139040 L640.810074 993.479008 Z" fill="#888" fill-opacity="0.18" stroke="#000" stroke-width="1"/>
  <path d="M256.165085 460.440152 L218.273746 474.258962 L218.623317 466.510588 L186.860763 482.158729 L187.420076 469.761330 L155.028296 499.356546 L156.566407 465.263698 L131.771608 464.145072 L132.610577 445.548973 L157.405376 446.667599 L158.943487 412.574751 L188.538702 444.966532 L189.098015 432.569132 L219.322458 451.013839 L219.672029 443.265464 Z" fill="#888" fill-opacity="0.18" stroke="#000" stroke-width="1"/>
  <path d="M892.221184 873.692837 L866.558053 904.807412 L862.932917 897.950453 L843.480381 927.536311 L837.680162 916.565176 L824.752872 958.493560 L808.802270 928.322940 L786.860000 939.923378 L778.159672 923.466675 L800.101941 911.866237 L784.151339 881.695617 L826.079724 894.622906 L820.279505 883.651772 L855.682643 884.236535 L852.057506 877.379575 Z" fill="#888" fill-opacity="0.18" stroke="#000" stroke-width="1"/>
  <path d="M619.676914 459.242993 L623.768583 419.118545 L630.588628 422.812661 L630.360994 387.405426 L641.273066 393.316012 L628.769352 351.259367 L658.777549 367.513479 L670.598721 345.689335 L686.966829 354.555214 L675.145657 376.379358 L705.153854 392.633470 L663.097210 405.137184 L674.009281 411.047770 L644.228717 430.200894 L651.048762 433.895010 Z" fill="#888" fill-opacity="0.18" stroke="#000" stroke-width="1"/>
  <path d="M735.075816 237.066948 L773.249472 250.085590 L768.114975 255.899061 L802.664753 263.647412 L794.449558 272.948966 L838.241431 270.233069 L815.649645 295.812342 L834.252753 312.242733 L821.929961 326.195064 L803.326852 309.764674 L780.735066 335.343948 L778.019168 291.552075 L769.803973 300.853629 L757.845981 267.526004 L752.711484 273.339476 Z" fill="#888" fill-opacity="0.18" stroke="#000" stroke-width="1"/>
  <path d="M939.687890 749.185868 L980.016306 748.609702 L977.135713 755.811208 L1012.279042 751.490267 L1007.670093 763.012677 L1047.998490 745.729024 L1035.323881 777.415652 L1058.368701 786.633549 L1051.455277 803.917164 L1028.410457 794.699266 L1015.735848 826.385894 L998.452196 786.057497 L993.843247 797.579906 L971.374527 770.214221 L968.493934 777.415727 Z" fill="#888" fill-opacity="0.18" stroke="#000" stroke-width="1"/>
  <path d="M186.897954 142.987605 L224.689462 157.077139 L219.393131 162.743566 L253.710764 171.462751 L245.236635 180.529033 L289.087664 179.048650 L265.783808 203.980927 L283.916373 220.929185 L271.205179 234.528608 L253.072615 217.580350 L229.768759 242.512626 L228.288377 198.661597 L219.814248 207.727880 L208.800470 174.076419 L203.504139 179.742845 Z" fill="#888" fill-opacity="0.18" stroke="#000" stroke-width="1"/>
  <path d="M167.056193 362.075344 L131.181991 380.507781 L130.563379 372.776233 L100.998137 392.260089 L100.008357 379.889613 L71.556618 413.290254 L68.834722 379.271445 L44.093770 381.251006 L42.609099 362.695292 L67.350051 360.715731 L64.628155 326.696923 L98.028796 355.148661 L97.039015 342.778185 L129.326153 357.313138 L128.707540 349.581591 Z" fill="#888" fill-opacity="0.18" stroke="#000" stroke-width="1"/>
  <path d="M937.923352 982.923702 L908.552066 1010.564987 L905.817762 1003.306675 L882.799986 1030.212179 L878.425099 1018.598880 L860.329071 1058.569345 L848.298131 1026.632774 L825.071534 1035.382549 L818.509203 1017.962601 L841.735800 1009.212827 L829.704860 977.276256 L869.675324 995.372284 L865.300437 983.758985 L900.349153 988.790052 L897.614848 981.531741 Z" fill="#888" fill-opacity="0.18" stroke="#000" stroke-width="1"/>
  <path d="M645.890473 172.801494 L632.299083 134.827988 L640.045223 135.224006 L624.587790 103.368208 L636.981613 104.001837 L607.581130 71.433205 L641.664143 73.175687 L642.931403 48.388040 L661.522137 49.338485 L660.254878 74.126131 L694.337892 75.868613 L661.769260 105.269097 L674.163083 105.902726 L655.537502 136.016043 L663.283641 136.412062 Z" fill="#888" fill-opacity="0.18" stroke="#000" stroke-width="1"/>
  <path d="M431.598348 1043.289288 L454.845423 1010.330426 L458.976650 1016.894912 L476.145892 985.928135 L482.755856 996.431312 L492.488888 953.648461 L510.666288 982.532197 L531.672642 969.312269 L541.587587 985.067034 L520.581234 998.286962 L538.758634 1027.170697 L495.975783 1017.437665 L502.585746 1027.940842 L467.239105 1030.023883 L471.370332 1036.588368 Z" fill="#888" fill-opacity="0.18" stroke="#000" stroke-width="1"/>
  <path d="M555.662625 633.810597 L515.654148 638.913037 L517.707597 631.433541 L483.272027 639.674638 L486.557545 627.707445 L448.425768 649.411634 L457.460941 616.501853 L433.526554 609.930818 L438.454831 591.980028 L462.389217 598.551063 L471.424390 565.641282 L493.128579 603.773058 L496.414097 591.805865 L521.814494 616.474549 L523.867942 608.995054 Z" fill="#888" fill-opacity="0.18" stroke="#000" stroke-width="1"/>
  <path d="M544.060641 253.166366 L562.878353 217.492751 L567.819104 223.471754 L580.865463 190.554940 L588.770666 200.121345 L592.923671 156.442325 L614.662979 182.749939 L633.795789 166.939533 L645.653594 181.289140 L626.520784 197.099546 L648.260092 223.407160 L604.581072 219.254155 L612.486275 228.820560 L577.700608 235.429761 L582.641360 241.408764 Z" fill="#888" fill-opacity="0.18" stroke="#000" stroke-width="1"/>
  <path d="M642.574833 601.592755 L677.484662 621.792183 L671.316877 626.495154 L703.697887 640.819760 L693.829430 648.344513 L737.312453 654.203772 L710.174198 674.896842 L725.223704 694.633755 L710.421019 705.920884 L695.371513 686.183971 L668.233258 706.877042 L674.092517 663.394018 L664.224061 670.918771 L658.981306 635.901095 L652.813521 640.604065 Z" fill="#888" fill-opacity="0.18" stroke="#000" stroke-width="1"/>
</svg>
