<?xml version="1.0" encoding="UTF-8"?>
<svg xmlns="http://www.w3.org/2000/svg" width="1100" height="1100" viewBox="0 0 1100 1100">
  <rect x="0" y="0" width="1100" height="1100" fill="white"/>
  <text x="10.0" y="18.0" font-family="monospace" font-size="12">prefix=N107_job5048508_task107 run_id=107 L=8.64270663206 feas=0.000e+00 N=107</text>
  <rect x="40.000000" y="40.000000" width="1020.000000" height="1020.000000" fill="none" stroke="#000" stroke-width="2"/>
  <path d="M445.010921 956.581972 L443.224980 918.267534 L450.158456 920.784411 L444.972318 887.513378 L456.065880 891.540381 L438.399485 853.738969 L468.906779 864.813229 L476.960786 842.626106 L493.601128 848.666612 L485.547121 870.853734 L516.054415 881.927994 L478.253002 899.594389 L489.346564 903.621392 L464.025408 925.818166 L470.958883 928.335043 Z" fill="#888" fill-opacity="0.18" stroke="#000" stroke-width="1"/>
  <path d="M451.765336 241.628810 L417.799124 259.446841 L417.148453 252.099435 L389.190301 270.866411 L388.149228 259.110560 L361.362282 291.102868 L358.499333 258.774278 L334.987631 260.856423 L333.426023 243.222647 L356.937724 241.140502 L354.074775 208.811912 L386.067083 235.598858 L385.026011 223.843007 L415.847113 237.404621 L415.196443 230.057214 Z" fill="#888" fill-opacity="0.18" stroke="#000" stroke-width="1"/>
  <path d="M702.917664 311.180289 L736.772433 329.209165 L731.067990 333.885391 L762.322668 346.415467 L753.195559 353.897428 L794.718234 358.010298 L769.618684 378.585691 L784.582606 396.839910 L770.891942 408.062851 L755.928020 389.808633 L730.828470 410.384026 L734.941340 368.861350 L725.814231 376.343311 L719.659104 343.237842 L713.954661 347.914068 Z" fill="#888" fill-opacity="0.18" stroke="#000" stroke-width="1"/>
  <path d="M937.728873 578.181504 L921.457840 612.915339 L916.495549 607.457919 L905.582910 639.313405 L897.643245 630.581533 L895.662729 672.260375 L873.828650 648.247728 L856.364907 664.127059 L844.455409 651.029251 L861.919152 635.149921 L840.085073 611.137274 L881.763915 613.117790 L873.824250 604.385919 L906.570968 596.543080 L901.608677 591.085660 Z" fill="#888" fill-opacity="0.18" stroke="#000" stroke-width="1"/>
  <path d="M939.721271 113.148736 L968.659646 138.323252 L962.050385 141.598221 L989.690637 160.830334 L979.115819 166.070284 L1018.652741 179.407453 L989.571991 193.817317 L1000.051893 214.966954 L984.189666 222.826880 L973.709764 201.677244 L944.629014 216.087108 L957.966183 176.550186 L947.391365 181.790137 L948.831862 148.148159 L942.222601 151.423129 Z" fill="#888" fill-opacity="0.18" stroke="#000" stroke-width="1"/>
  <path d="M276.007139 136.218291 L238.064216 130.603987 L241.867268 124.283816 L208.219871 122.975987 L214.304753 112.863714 L173.811865 122.932192 L190.545290 95.123440 L170.320744 82.953676 L179.448067 67.785266 L199.672613 79.955030 L216.406039 52.146278 L226.474517 92.639167 L232.559399 82.526893 L249.473370 111.643474 L253.276421 105.323303 Z" fill="#888" fill-opacity="0.18" stroke="#000" stroke-width="1"/>
  <path d="M941.130598 612.637987 L974.130749 593.088669 L975.160203 600.392640 L1002.111287 580.206091 L1003.758412 591.892443 L1028.856480 558.558747 L1033.386076 590.696217 L1056.758781 587.401966 L1059.229469 604.931495 L1035.856764 608.225746 L1040.386360 640.363216 L1007.052664 615.265149 L1008.699789 626.951501 L977.219110 615.000580 L978.248563 622.304551 Z" fill="#888" fill-opacity="0.18" stroke="#000" stroke-width="1"/>
  <path d="M557.936621 383.282866 L559.035094 421.623174 L552.147874 418.982347 L556.736452 452.341044 L545.716900 448.115722 L562.702474 486.227906 L532.398707 474.608270 L523.948063 496.647373 L507.418736 490.309389 L515.869380 468.270286 L485.565613 456.650650 L523.677798 439.665077 L512.658246 435.439755 L538.373435 413.700694 L531.486215 411.059868 Z" fill="#888" fill-opacity="0.18" stroke="#000" stroke-width="1"/>
  <path d="M814.047636 301.122073 L852.311272 298.461257 L849.953456 305.450425 L883.097321 299.505522 L879.324815 310.688190 L916.712750 292.162786 L906.338358 322.915122 L928.703693 330.460135 L923.044934 347.234136 L900.679598 339.689124 L890.305206 370.441460 L871.779802 333.053525 L868.007296 344.236193 L845.237823 319.428759 L842.880006 326.417927 Z" fill="#888" fill-opacity="0.18" stroke="#000" stroke-width="1"/>
  <path d="M654.517744 617.066306 L647.392776 579.377838 L654.610031 580.900659 L644.823354 548.681432 L656.370963 551.117945 L633.593227 516.157639 L665.349150 522.858053 L670.222178 499.762836 L687.543591 503.417607 L682.670563 526.512824 L714.426486 533.213237 L679.466180 555.990973 L691.013788 558.427487 L669.044542 583.946302 L676.261797 585.469123 Z" fill="#888" fill-opacity="0.18" stroke="#000" stroke-width="1"/>
  <path d="M366.288152 43.837317 L348.581731 77.861844 L343.851521 72.202086 L331.618948 103.574396 L324.050612 94.518782 L320.332418 136.078658 L299.519493 111.175720 L281.408265 126.312393 L270.055760 112.728972 L288.166988 97.592299 L267.354063 72.689361 L308.913939 76.407554 L301.345602 67.351940 L334.391100 60.882568 L329.660890 55.222810 Z" fill="#888" fill-opacity="0.18" stroke="#000" stroke-width="1"/>
  <path d="M1015.510540 938.783496 L979.966422 953.198817 L980.036493 945.822988 L950.379024 961.769531 L950.491136 949.968205 L920.707540 979.191239 L921.015849 946.737593 L897.413197 946.513369 L897.581366 928.811380 L921.184017 929.035604 L921.492326 896.581958 L950.715360 926.365553 L950.827472 914.564227 L980.176633 931.071331 L980.246703 923.695502 Z" fill="#888" fill-opacity="0.18" stroke="#000" stroke-width="1"/>
  <path d="M84.835067 715.233605 L98.290296 751.152160 L90.919012 750.883964 L106.063055 780.959131 L94.269000 780.530018 L122.681355 811.087937 L90.247704 809.907876 L89.389478 833.495986 L71.698397 832.852316 L72.556622 809.264207 L40.122972 808.084146 L70.680891 779.671792 L58.886837 779.242679 L76.176444 750.347573 L68.805160 750.079377 Z" fill="#888" fill-opacity="0.18" stroke="#000" stroke-width="1"/>
  <path d="M765.097917 233.599016 L789.954290 204.386920 L793.301380 210.959952 L812.229909 183.110922 L817.585253 193.627773 L830.489020 153.947285 L845.216216 182.868625 L866.249918 172.157937 L874.282934 187.933213 L853.249232 198.643901 L867.976428 227.565241 L828.295941 214.661474 L833.651285 225.178325 L799.995560 224.106015 L803.342650 230.679047 Z" fill="#888" fill-opacity="0.18" stroke="#000" stroke-width="1"/>
  <path d="M1039.155135 913.025921 L1044.464220 951.012753 L1037.328312 949.145517 L1045.558368 981.797070 L1034.140914 978.809493 L1055.215605 1014.822069 L1023.817608 1006.606232 L1017.842454 1029.441139 L1000.716273 1024.959774 L1006.691428 1002.124866 L975.293430 993.909029 L1011.306007 972.834338 L999.888553 969.846761 L1023.056495 945.411046 L1015.920586 943.543810 Z" fill="#888" fill-opacity="0.18" stroke="#000" stroke-width="1"/>
  <path d="M406.319784 802.953846 L436.311996 779.044579 L438.337885 786.137077 L462.250920 762.430023 L465.492344 773.778020 L485.758778 737.304469 L494.672692 768.511460 L517.368686 762.028613 L522.230822 779.050609 L499.534828 785.533456 L508.448742 816.740448 L471.975191 796.474014 L475.216614 807.822011 L442.389665 800.322074 L444.415554 807.414572 Z" fill="#888" fill-opacity="0.18" stroke="#000" stroke-width="1"/>
  <path d="M361.956214 210.613226 L393.861478 189.323793 L395.280810 196.562112 L421.111552 174.960481 L423.382484 186.541791 L446.658428 151.911187 L452.903491 183.759788 L476.066110 179.217924 L479.472508 196.589888 L456.309889 201.131752 L462.554952 232.980353 L427.924349 209.704410 L430.195281 221.285719 L398.119475 211.038749 L399.538808 218.277067 Z" fill="#888" fill-opacity="0.18" stroke="#000" stroke-width="1"/>
  <path d="M629.884441 490.522545 L604.354293 519.147663 L601.161236 512.498441 L581.589076 539.898957 L576.480185 529.260203 L562.655528 568.629317 L548.606076 539.372743 L527.328568 549.590526 L519.665231 533.632394 L540.942739 523.414612 L526.893288 494.158038 L566.262402 507.982694 L561.153510 497.343940 L594.775121 499.199998 L591.582064 492.550777 Z" fill="#888" fill-opacity="0.18" stroke="#000" stroke-width="1"/>
  <path d="M542.098947 53.329870 L554.442986 89.645300 L547.083440 89.150497 L561.295231 119.677251 L549.519956 118.885566 L576.978931 150.302965 L544.596926 148.125832 L543.013556 171.676382 L525.350644 170.488855 L526.934013 146.938305 L494.552008 144.761172 L525.969406 117.302197 L514.194131 116.510512 L532.364346 88.160891 L525.004799 87.666088 Z" fill="#888" fill-opacity="0.18" stroke="#000" stroke-width="1"/>
  <path d="M183.033021 724.329944 L220.896693 718.203925 L219.183585 725.378395 L251.650303 716.446995 L248.909330 727.926146 L284.459643 706.080701 L276.921966 737.648368 L299.880269 743.130315 L295.768809 760.349043 L272.810505 754.867096 L265.272828 786.434763 L243.427383 750.884450 L240.686409 762.363602 L215.757368 739.727334 L214.044260 746.901804 Z" fill="#888" fill-opacity="0.18" stroke="#000" stroke-width="1"/>
  <path d="M360.204215 290.500885 L323.994723 303.152308 L324.427125 295.788831 L294.021934 310.258872 L294.713778 298.477309 L263.530263 326.201607 L265.432832 293.802311 L241.869707 292.418624 L242.907472 274.746280 L266.470597 276.129967 L268.373166 243.730670 L296.097464 274.914184 L296.789307 263.132622 L325.291929 281.061878 L325.724331 273.698402 Z" fill="#888" fill-opacity="0.18" stroke="#000" stroke-width="1"/>
  <path d="M852.222809 978.341989 L845.587088 940.564310 L852.783993 942.180579 L843.415876 909.837170 L854.930924 912.423199 L832.608379 877.170508 L864.274759 884.282089 L869.446818 861.251994 L886.719389 865.131038 L881.547330 888.161133 L913.213710 895.272714 L877.961018 917.595258 L889.476066 920.181288 L867.177802 945.413115 L874.374706 947.029384 Z" fill="#888" fill-opacity="0.18" stroke="#000" stroke-width="1"/>
  <path d="M713.107759 603.380287 L739.613772 575.656343 L742.574678 582.412140 L763.083872 555.705762 L767.821323 566.515037 L783.000885 527.648224 L796.028873 557.373730 L817.647423 547.898830 L824.753598 564.112743 L803.135048 573.587643 L816.163036 603.313150 L777.296223 588.133587 L782.033673 598.942862 L748.496491 595.923734 L751.457397 602.679531 Z" fill="#888" fill-opacity="0.18" stroke="#000" stroke-width="1"/>
  <path d="M227.561053 926.854250 L247.179671 959.813249 L239.877880 960.858048 L260.121018 987.766654 L248.438152 989.438333 L281.824514 1014.466300 L249.696633 1019.063417 L253.039991 1042.429148 L235.515692 1044.936666 L232.172334 1021.570935 L200.044453 1026.168052 L225.072421 992.781690 L213.389555 994.453369 L225.274298 962.947646 L217.972507 963.992446 Z" fill="#888" fill-opacity="0.18" stroke="#000" stroke-width="1"/>
  <path d="M121.720867 850.784463 L159.573171 856.980339 L155.673585 863.241408 L189.296951 865.065400 L183.057613 875.083111 L223.700234 865.637179 L206.542055 893.185883 L226.577476 905.664558 L217.218469 920.691124 L197.183048 908.212449 L180.024869 935.761153 L170.578937 895.118532 L164.339599 905.136243 L147.874412 875.763546 L143.974826 882.024615 Z" fill="#888" fill-opacity="0.18" stroke="#000" stroke-width="1"/>
  <path d="M550.684632 724.182822 L559.511012 686.856145 L565.484211 691.183807 L569.653822 657.770157 L579.210940 664.694416 L572.628794 623.490974 L598.910867 642.532687 L612.759386 623.418452 L627.095062 633.804841 L613.246544 652.919076 L639.528617 671.960789 L598.325175 678.542935 L607.882293 685.467194 L577.430608 699.839131 L583.403806 704.166793 Z" fill="#888" fill-opacity="0.18" stroke="#000" stroke-width="1"/>
  <path d="M791.956770 805.855102 L758.573085 786.968193 L764.394998 782.439056 L733.470239 769.115505 L742.785300 761.868886 L701.381098 756.697783 L726.997516 736.769578 L712.504276 718.139456 L726.476868 707.269526 L740.970108 725.899648 L766.586525 705.971444 L761.415422 747.375646 L770.730483 740.129026 L776.038824 773.380781 L781.860737 768.851644 Z" fill="#888" fill-opacity="0.18" stroke="#000" stroke-width="1"/>
  <path d="M508.195193 559.901752 L475.471862 539.892520 L481.444161 535.563617 L450.989492 521.198006 L460.545171 514.271761 L419.340362 507.698174 L445.618480 488.651003 L431.765991 469.539644 L446.099510 459.150278 L459.951999 478.261636 L486.230116 459.214464 L479.656529 500.419273 L489.212208 493.493029 L493.388760 526.905812 L499.361059 522.576909 Z" fill="#888" fill-opacity="0.18" stroke="#000" stroke-width="1"/>
  <path d="M410.893263 40.274381 L426.345590 75.380098 L418.970882 75.526538 L435.780999 104.703201 L423.981467 104.937505 L454.066057 133.850576 L421.617343 134.494912 L422.085951 158.093976 L404.386652 158.445432 L403.918045 134.846367 L371.469331 135.490703 L400.382402 105.406113 L388.582869 105.640416 L404.221467 75.819418 L396.846759 75.965858 Z" fill="#888" fill-opacity="0.18" stroke="#000" stroke-width="1"/>
  <path d="M835.918418 506.835419 L802.906880 487.305335 L808.815440 482.889832 L778.154593 468.969697 L787.608290 461.904892 L746.312034 455.932664 L772.309700 436.504448 L758.180089 417.597055 L772.360634 406.999846 L786.490245 425.907240 L812.487912 406.479024 L806.515684 447.775281 L815.969380 440.710475 L820.632561 474.058825 L826.541122 469.643321 Z" fill="#888" fill-opacity="0.18" stroke="#000" stroke-width="1"/>
  <path d="M801.489891 484.227393 L781.260395 516.815018 L776.971874 510.813655 L762.401171 541.170736 L755.539538 531.568556 L748.688173 572.728088 L729.818681 546.322095 L710.614322 560.045362 L700.321872 545.642093 L719.526231 531.918826 L700.656739 505.512833 L741.816271 512.364198 L734.954638 502.762018 L768.394832 498.810931 L764.106311 492.809569 Z" fill="#888" fill-opacity="0.18" stroke="#000" stroke-width="1"/>
  <path d="M546.200907 57.568384 L584.353911 53.627051 L582.231588 60.691292 L615.157663 53.639253 L611.761947 64.942039 L648.508203 45.174366 L639.169982 76.257027 L661.775554 83.048460 L656.681980 100.002639 L634.076408 93.211206 L624.738187 124.293868 L604.970513 87.547611 L601.574797 98.850397 L577.986942 74.819775 L575.864619 81.884016 Z" fill="#888" fill-opacity="0.18" stroke="#000" stroke-width="1"/>
  <path d="M45.562669 577.376427 L78.693697 596.703113 L72.812404 601.154872 L103.558283 614.886173 L94.148215 622.008987 L135.480420 627.727122 L109.602733 647.314861 L123.848361 666.134997 L109.733259 676.819218 L95.487631 657.999082 L69.609944 677.586821 L75.328079 636.254615 L65.918011 643.377429 L61.049819 610.058390 L55.168527 614.510149 Z" fill="#888" fill-opacity="0.18" stroke="#000" stroke-width="1"/>
  <path d="M168.800272 451.383324 L166.518443 413.095218 L173.483923 415.522120 L167.867477 382.321018 L179.012244 386.204061 L160.857935 348.634534 L191.506044 359.312904 L199.272131 337.023370 L215.989282 342.847935 L208.223195 365.137469 L238.871305 375.815839 L201.301778 393.970148 L212.446545 397.853192 L187.414882 420.375925 L194.380361 422.802827 Z" fill="#888" fill-opacity="0.18" stroke="#000" stroke-width="1"/>
  <path d="M727.557704 406.228867 L690.701064 395.609363 L695.312265 389.852231 L662.139091 384.073115 L669.517014 374.861703 L628.043676 379.445426 L648.332964 354.114042 L629.910140 339.358197 L640.977024 325.541078 L659.399849 340.296924 L679.689137 314.965541 L684.272860 356.438878 L691.650783 347.227466 L704.534669 378.337965 L709.145871 372.580833 Z" fill="#888" fill-opacity="0.18" stroke="#000" stroke-width="1"/>
  <path d="M663.766972 181.568703 L675.554758 218.068482 L668.203630 217.461301 L681.947387 248.201614 L670.185582 247.230124 L697.161371 279.063363 L664.816405 276.391765 L662.873425 299.915376 L645.230717 298.458141 L647.173697 274.934530 L614.828732 272.262932 L646.661971 245.287144 L634.900165 244.315653 L653.501373 216.246938 L646.150245 215.639757 Z" fill="#888" fill-opacity="0.18" stroke="#000" stroke-width="1"/>
  <path d="M385.033656 585.357441 L367.449351 619.445239 L362.698877 613.802478 L350.578876 645.218450 L342.978117 636.190032 L339.408970 677.762974 L318.506883 652.934825 L300.450047 668.136342 L289.048909 654.593716 L307.105745 639.392198 L286.203658 614.564049 L327.776599 618.133196 L320.175841 609.104779 L353.197928 602.516956 L348.447454 596.874195 Z" fill="#888" fill-opacity="0.18" stroke="#000" stroke-width="1"/>
  <path d="M611.202456 154.702973 L634.735600 124.414742 L638.371592 130.832477 L656.043349 102.169492 L661.860936 112.437868 L672.987908 72.222961 L688.986273 100.460995 L709.523024 88.825820 L718.249405 104.228384 L697.712653 115.863558 L713.711018 144.101592 L673.496110 132.974620 L679.313697 143.242996 L645.643576 143.667947 L649.279567 150.085682 Z" fill="#888" fill-opacity="0.18" stroke="#000" stroke-width="1"/>
  <path d="M169.238520 307.235258 L161.606678 344.824362 L155.498541 340.689338 L152.396345 374.218938 L142.623327 367.602899 L150.515777 408.575543 L123.639976 390.381437 L110.407899 409.927474 L95.748370 400.003416 L108.980447 380.457379 L82.104646 362.263273 L123.077289 354.370822 L113.304270 347.754784 L143.282268 332.419290 L137.174131 328.284266 Z" fill="#888" fill-opacity="0.18" stroke="#000" stroke-width="1"/>
  <path d="M433.855568 708.763011 L405.079534 683.403090 L411.709700 680.170652 L384.193582 660.761351 L394.801848 655.589450 L355.351432 641.998537 L384.524163 627.775810 L374.180361 606.559278 L390.092760 598.801427 L400.436562 620.017959 L429.609293 605.795232 L416.018380 645.245648 L426.626646 640.073748 L424.970032 673.705776 L431.600198 670.473338 Z" fill="#888" fill-opacity="0.18" stroke="#000" stroke-width="1"/>
  <path d="M987.542455 621.869903 L989.188553 660.190604 L982.264309 657.648440 L987.328988 690.938179 L976.250197 686.870715 L993.778516 724.736351 L963.311841 713.550826 L955.176914 735.708408 L938.558728 729.607213 L946.693655 707.449631 L916.226981 696.264107 L954.092616 678.735788 L943.013825 674.668325 L968.415821 652.564110 L961.491577 650.021946 Z" fill="#888" fill-opacity="0.18" stroke="#000" stroke-width="1"/>
  <path d="M1050.754574 125.408970 L1012.871570 119.403651 L1016.739601 113.123038 L983.107482 111.468265 L989.296330 101.419284 L948.701757 111.069616 L965.721090 83.434918 L945.623128 71.057221 L954.906401 55.983750 L975.004363 68.361447 L992.023696 40.726749 L1001.674027 81.321323 L1007.862875 71.272342 L1024.475661 100.561811 L1028.343691 94.281198 Z" fill="#888" fill-opacity="0.18" stroke="#000" stroke-width="1"/>
  <path d="M436.068018 865.980822 L398.756406 874.870668 L399.938061 867.589772 L368.214835 878.881122 L370.105483 867.231688 L336.255277 891.628651 L341.454561 859.592707 L318.155693 855.811410 L320.991666 838.337259 L344.290534 842.118557 L349.489818 810.082614 L373.886781 843.932820 L375.777430 832.283386 L402.301372 853.027980 L403.483028 845.747083 Z" fill="#888" fill-opacity="0.18" stroke="#000" stroke-width="1"/>
  <path d="M308.690348 517.010376 L293.144005 552.074560 L288.069471 546.721349 L277.820603 578.796548 L269.701349 570.231411 L268.586642 611.942390 L246.258693 588.388263 L229.128419 604.626772 L216.949537 591.779066 L234.079811 575.540557 L211.751862 551.986431 L253.462840 553.101137 L245.343586 544.536000 L277.920403 536.014928 L272.845869 530.661717 Z" fill="#888" fill-opacity="0.18" stroke="#000" stroke-width="1"/>
  <path d="M749.580784 104.419485 L748.729319 142.766072 L741.985211 139.778639 L744.872515 173.327427 L734.081941 168.547533 L749.108640 207.473701 L719.434563 194.328993 L709.874775 215.910140 L693.688915 208.740299 L703.248703 187.159152 L673.574626 174.014443 L712.500794 158.987745 L701.710221 154.207851 L728.496994 133.803771 L721.752886 130.816338 Z" fill="#888" fill-opacity="0.18" stroke="#000" stroke-width="1"/>
  <path d="M1038.955254 452.339860 L1039.148387 490.695414 L1032.325424 487.892749 L1036.125282 521.350465 L1025.208541 516.866200 L1041.289733 555.368714 L1011.268695 543.036987 L1002.300166 564.870469 L985.925054 558.144072 L994.893583 536.310590 L964.872545 523.978863 L1003.375059 507.897672 L992.458318 503.413407 L1018.679498 482.287418 L1011.856535 479.484753 Z" fill="#888" fill-opacity="0.18" stroke="#000" stroke-width="1"/>
  <path d="M1043.548806 178.358129 L1043.679116 216.713947 L1036.860752 213.900111 L1040.605804 247.364006 L1029.696423 242.861867 L1045.714529 281.390668 L1015.713730 269.009786 L1006.709452 290.828549 L990.345379 284.075340 L999.349657 262.256577 L969.348858 249.875695 L1007.877660 233.857589 L996.968278 229.355450 L1023.224025 208.272437 L1016.405662 205.458600 Z" fill="#888" fill-opacity="0.18" stroke="#000" stroke-width="1"/>
  <path d="M126.084863 186.611547 L157.248905 164.251129 L158.913178 171.437084 L183.995601 148.970893 L186.658436 160.468422 L208.745169 125.067511 L216.067967 156.685715 L239.063025 151.360044 L243.057278 168.606337 L220.062221 173.932008 L227.385019 205.550212 L191.984107 183.463479 L194.646943 194.961008 L162.241722 185.808995 L163.905994 192.994951 Z" fill="#888" fill-opacity="0.18" stroke="#000" stroke-width="1"/>
  <path d="M647.139915 854.388700 L643.749053 892.594562 L637.217751 889.166756 L637.875394 922.833137 L627.425310 917.348648 L639.839297 957.185079 L611.101568 942.102735 L600.132590 963.002902 L584.457465 954.776169 L595.426442 933.876002 L566.688713 918.793658 L606.525143 906.379671 L596.075060 900.895182 L624.155146 882.311145 L617.623844 878.883340 Z" fill="#888" fill-opacity="0.18" stroke="#000" stroke-width="1"/>
  <path d="M638.473321 235.230005 L600.277638 238.733656 L602.480813 231.694211 L569.476050 238.368290 L573.001130 227.105179 L536.030653 246.450259 L545.724621 215.476702 L523.198399 208.426543 L528.486018 191.531876 L551.012241 198.582035 L560.706209 167.608479 L580.051289 204.578956 L583.576368 193.315845 L606.887162 217.615322 L609.090337 210.575877 Z" fill="#888" fill-opacity="0.18" stroke="#000" stroke-width="1"/>
  <path d="M298.511808 684.307304 L260.329659 687.955493 L262.506175 680.907760 L229.526909 687.706708 L233.009334 676.430335 L196.112339 695.915202 L205.689010 664.905178 L183.136265 657.940327 L188.359904 641.025768 L210.912648 647.990620 L220.489319 616.980596 L239.974186 653.877591 L243.456611 642.601218 L266.859207 666.812294 L269.035723 659.764562 Z" fill="#888" fill-opacity="0.18" stroke="#000" stroke-width="1"/>
  <path d="M1012.783003 739.086345 L990.828207 770.537461 L986.869044 764.313894 L970.684934 793.842394 L964.350274 783.884686 L955.292657 824.615607 L937.872340 797.231912 L917.956926 809.901233 L908.454934 794.964672 L928.370349 782.295351 L910.950032 754.911656 L951.680952 763.969272 L945.346291 754.011565 L978.950718 751.866760 L974.991555 745.643193 Z" fill="#888" fill-opacity="0.18" stroke="#000" stroke-width="1"/>
  <path d="M449.565403 1003.511665 L416.340560 984.346707 L422.200083 979.866333 L391.387635 966.285067 L400.762871 959.116468 L359.403283 953.599877 L385.185182 933.886229 L370.847983 915.135757 L384.910837 904.382858 L399.248035 923.133330 L425.029934 903.419682 L419.513343 944.779269 L428.888578 937.610670 L433.919127 970.905583 L439.778650 966.425209 Z" fill="#888" fill-opacity="0.18" stroke="#000" stroke-width="1"/>
  <path d="M618.409880 842.452153 L618.331792 804.096193 L625.146318 806.919311 L621.446831 773.450348 L632.350073 777.967336 L616.384439 739.416761 L646.368354 751.838478 L655.402330 730.031995 L671.757192 736.807477 L662.723216 758.613960 L692.707131 771.035678 L654.156556 787.001312 L665.059798 791.518300 L638.775371 812.565546 L645.589897 815.388663 Z" fill="#888" fill-opacity="0.18" stroke="#000" stroke-width="1"/>
  <path d="M835.214659 1036.558632 L861.410104 1008.541059 L864.446105 1015.263443 L884.656442 988.330193 L889.514044 999.086009 L904.259579 960.052466 L917.617983 989.630960 L939.129615 979.915757 L946.416017 996.049480 L924.904385 1005.764683 L938.262789 1035.343176 L899.229246 1020.597640 L904.086848 1031.353456 L870.518107 1028.708213 L873.554108 1035.430598 Z" fill="#888" fill-opacity="0.18" stroke="#000" stroke-width="1"/>
  <path d="M611.296670 682.372783 L610.842817 720.726138 L604.068099 717.808786 L607.303071 751.325836 L596.463521 746.658072 L611.892988 785.426356 L582.084225 772.590007 L572.748698 794.269107 L556.489373 787.267462 L565.824900 765.588361 L536.016137 752.752012 L574.784421 737.322545 L563.944871 732.654782 L590.518661 711.974081 L583.743942 709.056729 Z" fill="#888" fill-opacity="0.18" stroke="#000" stroke-width="1"/>
  <path d="M782.187642 885.504598 L752.276100 909.514710 L750.226342 902.429073 L726.393262 926.216506 L723.113649 914.879487 L702.970133 951.421066 L693.951198 920.244263 L671.277160 926.803488 L666.357741 909.797960 L689.031779 903.238735 L680.012845 872.061932 L716.554424 892.205448 L713.274811 880.868429 L746.126827 888.257799 L744.077069 881.172162 Z" fill="#888" fill-opacity="0.18" stroke="#000" stroke-width="1"/>
  <path d="M322.405105 912.355139 L336.671030 947.959481 L329.295561 947.858436 L345.117415 977.582611 L333.316664 977.420940 L362.414364 1007.326996 L329.962299 1006.882400 L329.638956 1030.483902 L311.937830 1030.241395 L312.261172 1006.639893 L279.809107 1006.195298 L309.715162 977.097598 L297.914411 976.935927 L314.544622 947.656347 L307.169152 947.555303 Z" fill="#888" fill-opacity="0.18" stroke="#000" stroke-width="1"/>
  <path d="M502.343102 349.033689 L535.749004 330.186104 L536.623879 337.510198 L563.995531 317.897694 L565.395330 329.616245 L591.192209 296.820371 L595.041656 329.046385 L618.478757 326.246787 L620.578456 343.824613 L597.141355 346.624211 L600.990802 378.850224 L568.194928 353.053346 L569.594727 364.771896 L538.373627 352.158386 L539.248502 359.482480 Z" fill="#888" fill-opacity="0.18" stroke="#000" stroke-width="1"/>
  <path d="M384.977520 834.790574 L357.466942 808.063175 L364.246257 805.156519 L337.705140 784.433902 L348.552044 779.783253 L309.808161 764.292618 L339.637146 751.503331 L330.335847 729.809524 L346.606202 722.833549 L355.907501 744.527357 L385.736487 731.738070 L370.245851 770.481954 L381.092755 765.831304 L377.804886 799.343207 L384.584201 796.436551 Z" fill="#888" fill-opacity="0.18" stroke="#000" stroke-width="1"/>
  <path d="M120.033902 765.669389 L122.186361 727.373792 L128.825190 730.588400 L127.078197 696.960946 L137.700324 702.104318 L124.003439 662.690569 L153.214288 676.834844 L163.501033 655.590590 L179.434223 663.305649 L169.147478 684.549903 L198.358327 698.694178 L158.944578 712.391063 L169.566705 717.534436 L142.102849 737.017616 L148.741678 740.232224 Z" fill="#888" fill-opacity="0.18" stroke="#000" stroke-width="1"/>
  <path d="M694.082652 928.624838 L680.742458 964.586276 L675.345472 959.558324 L667.107036 992.207763 L658.471858 984.163041 L659.947998 1025.862792 L636.201257 1003.739806 L620.111813 1021.010163 L607.159045 1008.943079 L623.248490 991.672722 L599.501750 969.549736 L641.201501 968.073596 L632.566323 960.028874 L664.551499 949.502421 L659.154512 944.474470 Z" fill="#888" fill-opacity="0.18" stroke="#000" stroke-width="1"/>
  <path d="M279.049369 992.019289 L260.415381 958.493772 L267.744910 957.665661 L248.307505 930.169389 L260.034751 928.844413 L227.404194 902.838740 L259.654121 899.195054 L257.004167 875.740562 L274.595036 873.753096 L277.244990 897.207588 L309.494916 893.563902 L283.489243 926.194459 L295.216489 924.869483 L282.403967 956.009441 L289.733496 955.181330 Z" fill="#888" fill-opacity="0.18" stroke="#000" stroke-width="1"/>
  <path d="M865.323013 462.517820 L901.181073 476.133447 L896.111874 481.491710 L928.697164 489.980326 L920.586446 498.553547 L962.296293 497.397288 L939.991820 520.973646 L957.138262 537.195082 L944.972185 550.054913 L927.825743 533.833478 L905.521269 557.409836 L904.365011 515.699989 L896.254293 524.273210 L885.973477 492.208237 L880.904279 497.566500 Z" fill="#888" fill-opacity="0.18" stroke="#000" stroke-width="1"/>
  <path d="M808.688583 149.456604 L776.733724 128.241685 L782.863211 124.138376 L752.965102 108.647709 L762.772281 102.082414 L721.841095 93.977704 L748.810838 75.923143 L735.680247 56.308784 L750.391016 46.460842 L763.521606 66.075200 L790.491349 48.020638 L782.386639 88.951824 L792.193818 82.386528 L795.122185 115.931757 L801.251672 111.828448 Z" fill="#888" fill-opacity="0.18" stroke="#000" stroke-width="1"/>
  <path d="M984.161101 897.378945 L980.613749 859.187295 L987.655710 861.382414 L980.943870 828.385310 L992.211007 831.897499 L972.823638 794.949181 L1003.808266 804.607703 L1010.832646 782.073428 L1027.733352 787.341713 L1020.708972 809.875988 L1051.693600 819.534509 L1014.745282 838.921879 L1026.012420 842.434068 L1001.739631 865.772651 L1008.781592 867.967770 Z" fill="#888" fill-opacity="0.18" stroke="#000" stroke-width="1"/>
  <path d="M228.212351 550.437487 L238.636673 513.525168 L244.418126 518.105841 L250.021619 484.902549 L259.271944 492.231625 L254.468822 450.783124 L279.907215 470.938082 L294.565367 452.437433 L308.440854 463.431047 L293.782702 481.931696 L319.221095 502.086655 L277.772594 506.889777 L287.022918 514.218853 L255.981032 527.267186 L261.762485 531.847858 Z" fill="#888" fill-opacity="0.18" stroke="#000" stroke-width="1"/>
  <path d="M245.323007 477.488436 L212.281070 496.967045 L211.267259 489.660887 L184.273010 509.789679 L182.650913 498.099826 L157.481524 531.379702 L153.020756 499.232606 L129.641050 502.476801 L127.207904 484.942022 L150.587610 481.697827 L146.126842 449.550731 L179.406718 474.720120 L177.784620 463.030267 L209.239637 475.048571 L208.225826 467.742413 Z" fill="#888" fill-opacity="0.18" stroke="#000" stroke-width="1"/>
  <path d="M534.619308 911.367003 L541.915225 873.711254 L548.060039 877.791576 L550.862736 844.235614 L560.694438 850.764129 L552.436471 809.863588 L579.473650 827.817004 L592.530680 808.153601 L607.278232 817.946373 L594.221203 837.609776 L621.258382 855.563192 L580.357841 863.821159 L590.189542 870.349674 L560.349666 885.952220 L566.494479 890.032541 Z" fill="#888" fill-opacity="0.18" stroke="#000" stroke-width="1"/>
  <path d="M218.559530 200.260033 L213.528242 238.284656 L207.150446 234.579056 L206.359197 268.242561 L196.154723 262.313601 L206.843508 302.647187 L178.781204 286.342547 L166.923284 306.751495 L151.616573 297.858055 L163.474493 277.449107 L135.412189 261.144466 L175.745775 250.455681 L165.541301 244.526721 L194.394853 227.167856 L188.017057 223.462256 Z" fill="#888" fill-opacity="0.18" stroke="#000" stroke-width="1"/>
  <path d="M79.955390 146.913210 L95.725158 111.948940 L100.765430 117.334421 L111.218758 85.325272 L119.283194 93.942043 L120.664031 52.239027 L142.841229 75.935147 L160.074771 59.806275 L172.171425 72.731431 L154.937883 88.860303 L177.115081 112.556423 L135.412065 111.175585 L143.476501 119.792356 L110.845975 128.105385 L115.886247 133.490867 Z" fill="#888" fill-opacity="0.18" stroke="#000" stroke-width="1"/>
  <path d="M151.411537 761.686781 L183.152340 783.220642 L176.982069 787.262363 L206.723550 803.051663 L196.851115 809.518417 L237.699085 818.032619 L210.549890 835.816191 L223.483397 855.561060 L208.674745 865.261190 L195.741239 845.516321 L168.592044 863.299893 L177.106246 822.451923 L167.233812 828.918677 L164.641526 795.345805 L158.471254 799.387526 Z" fill="#888" fill-opacity="0.18" stroke="#000" stroke-width="1"/>
  <path d="M91.586774 996.149810 L127.264788 982.069146 L127.125408 989.443991 L156.931422 973.776854 L156.708414 985.576605 L186.765313 956.634748 L186.152040 989.084064 L209.751542 989.530080 L209.417030 1007.229707 L185.817527 1006.783690 L185.204254 1039.233006 L156.262397 1009.176107 L156.039389 1020.975859 L126.846647 1004.193680 L126.707267 1011.568524 Z" fill="#888" fill-opacity="0.18" stroke="#000" stroke-width="1"/>
  <path d="M986.314412 276.065911 L990.572905 314.184818 L983.491258 312.121317 L990.816880 344.987606 L979.486244 341.686006 L999.558831 378.266595 L968.399584 369.187194 L961.796383 391.848464 L944.800430 386.896063 L951.403631 364.234793 L920.244384 355.155391 L956.824974 335.082804 L945.494339 331.781204 L969.327964 307.994316 L962.246317 305.930816 Z" fill="#888" fill-opacity="0.18" stroke="#000" stroke-width="1"/>
  <path d="M970.309438 492.517416 L976.214347 454.618632 L982.505188 458.470005 L984.070831 424.833619 L994.136177 430.995816 L984.378305 390.426959 L1012.058006 407.373001 L1024.382401 387.242309 L1039.480419 396.485605 L1027.156025 416.616297 L1054.835726 433.562339 L1014.266869 443.320211 L1024.332214 449.482408 L995.086871 466.172751 L1001.377712 470.024125 Z" fill="#888" fill-opacity="0.18" stroke="#000" stroke-width="1"/>
  <path d="M426.279786 714.462818 L457.878739 692.721338 L459.400973 699.938717 L484.921575 677.971548 L487.357149 689.519354 L510.137731 654.560902 L516.835560 686.317371 L539.931173 681.446223 L543.584534 698.767933 L520.488921 703.639081 L527.186749 735.395550 L492.228297 712.614968 L494.663871 724.162775 L462.445440 714.373475 L463.967674 721.590855 Z" fill="#888" fill-opacity="0.18" stroke="#000" stroke-width="1"/>
  <path d="M905.216185 839.883480 L866.916224 837.810124 L870.117113 831.164669 L836.493338 832.981116 L841.614760 822.348388 L802.229386 836.126654 L816.313296 806.886652 L795.047840 796.643809 L802.729973 780.694717 L823.995428 790.937560 L838.079338 761.697559 L851.857603 801.082932 L856.979025 790.450205 L876.518890 817.873760 L879.719778 811.228305 Z" fill="#888" fill-opacity="0.18" stroke="#000" stroke-width="1"/>
  <path d="M487.173581 1036.564344 L482.248197 998.525858 L489.364895 1000.465027 L481.464837 967.732065 L492.851552 970.834736 L472.141439 934.611270 L503.454908 943.143614 L509.660248 920.370182 L526.740322 925.024188 L520.534981 947.797619 L551.848450 956.329963 L515.624984 977.040077 L527.011700 980.142747 L503.598290 1004.343365 L510.714987 1006.282534 Z" fill="#888" fill-opacity="0.18" stroke="#000" stroke-width="1"/>
  <path d="M478.929538 352.058174 L469.015066 315.005657 L476.325755 315.986262 L464.164661 284.586175 L475.861763 286.155144 L450.541429 252.989967 L482.708460 257.304630 L485.846398 233.910426 L503.392051 236.263879 L500.254114 259.658083 L532.421145 263.972747 L499.255967 289.293081 L510.953070 290.862050 L490.947132 317.947473 L498.257821 318.928079 Z" fill="#888" fill-opacity="0.18" stroke="#000" stroke-width="1"/>
  <path d="M42.511197 929.007960 L51.638999 891.753846 L57.577022 896.129648 L62.016579 862.750792 L71.517416 869.752075 L65.268531 828.496775 L91.395832 847.750303 L105.398398 828.748630 L119.649653 839.250554 L105.647087 858.252228 L131.774389 877.505755 L90.519089 883.754640 L100.019926 890.755923 L69.453069 904.881251 L75.391092 909.257053 Z" fill="#888" fill-opacity="0.18" stroke="#000" stroke-width="1"/>
  <path d="M48.100885 371.496762 L51.481150 333.289961 L58.013402 336.715955 L57.346421 303.049758 L67.798025 308.531348 L55.372989 268.698362 L84.114901 283.772734 L95.078081 262.869526 L110.755488 271.091910 L99.792308 291.995119 L128.534220 307.069491 L88.701234 319.494528 L99.152839 324.976118 L71.077908 343.567942 L77.610161 346.993936 Z" fill="#888" fill-opacity="0.18" stroke="#000" stroke-width="1"/>
  <path d="M619.504978 409.964901 L656.867212 418.639534 L652.563858 424.630268 L685.994175 428.664071 L679.108808 438.249246 L720.285163 431.499726 L701.350404 457.858957 L720.520754 471.629692 L710.192703 486.007454 L691.022353 472.236720 L672.087593 498.595951 L665.338074 457.419596 L658.452706 467.004771 L643.957149 436.611737 L639.653794 442.602472 Z" fill="#888" fill-opacity="0.18" stroke="#000" stroke-width="1"/>
  <path d="M425.223235 378.283066 L387.423145 371.776223 L391.374071 365.547424 L357.766836 363.447081 L364.088316 353.481002 L323.369415 362.592499 L340.753488 335.185780 L320.821328 322.542818 L330.303550 307.593699 L350.235709 320.236660 L367.619781 292.829941 L376.731278 333.548842 L383.052759 323.582763 L399.275922 353.089824 L403.226847 346.861024 Z" fill="#888" fill-opacity="0.18" stroke="#000" stroke-width="1"/>
  <path d="M82.165445 990.797843 L95.535162 954.847371 L100.928019 959.879752 L109.193260 927.237089 L117.821830 935.288899 L116.379930 893.587949 L140.108497 915.730427 L156.212117 898.473287 L169.154972 910.551002 L153.051352 927.808142 L176.779919 949.950619 L135.078970 951.392519 L143.707539 959.444329 L111.713731 969.944515 L117.106587 974.976896 Z" fill="#888" fill-opacity="0.18" stroke="#000" stroke-width="1"/>
  <path d="M856.609852 265.845804 L822.271546 282.935759 L821.777642 275.576151 L793.425803 293.742904 L792.635556 281.967533 L765.172745 313.381579 L762.999566 280.999307 L739.448823 282.579801 L738.263452 264.916744 L761.814195 263.336250 L759.641016 230.953979 L791.055062 258.416790 L790.264815 246.641419 L820.789833 260.856937 L820.295929 253.497330 Z" fill="#888" fill-opacity="0.18" stroke="#000" stroke-width="1"/>
  <path d="M625.675070 517.159464 L623.585258 555.458530 L616.941179 552.254786 L618.743177 585.879338 L608.112651 580.753348 L621.873991 620.144639 L592.640044 606.048166 L582.388064 627.309219 L566.442275 619.620233 L576.694255 598.359181 L547.460308 584.262708 L586.851598 570.501368 L576.221072 565.375378 L603.653021 545.847299 L597.008942 542.643555 Z" fill="#888" fill-opacity="0.18" stroke="#000" stroke-width="1"/>
  <path d="M456.420312 536.641466 L421.346046 552.165049 L421.184630 544.790654 L392.042164 561.659985 L391.783899 549.860953 L362.931980 580.004195 L362.221752 547.556856 L338.623688 548.073385 L338.236291 530.374837 L361.834356 529.858308 L361.124128 497.410969 L391.267370 526.262888 L391.009106 514.463856 L420.861800 530.041864 L420.700384 522.667469 Z" fill="#888" fill-opacity="0.18" stroke="#000" stroke-width="1"/>
  <path d="M205.402449 640.452499 L177.203747 614.452134 L183.904899 611.369551 L156.832033 591.346625 L167.553877 586.414492 L128.418936 571.940215 L157.904006 558.376850 L148.039741 536.933163 L164.122506 529.534964 L173.986772 550.978651 L203.471842 537.415287 L188.997564 576.550227 L199.719407 571.618094 L197.307204 605.204386 L204.008356 602.121803 Z" fill="#888" fill-opacity="0.18" stroke="#000" stroke-width="1"/>
  <path d="M632.069966 283.409283 L597.537392 300.103209 L597.128158 292.738409 L568.569272 310.577907 L567.914497 298.794226 L540.092233 329.890366 L538.291601 297.485244 L514.724240 298.794794 L513.742077 281.119273 L537.309438 279.809723 L535.508807 247.404601 L566.604947 275.226865 L565.950171 263.443184 L596.309689 278.008808 L595.900455 270.644007 Z" fill="#888" fill-opacity="0.18" stroke="#000" stroke-width="1"/>
  <path d="M570.246927 921.818222 L577.938864 959.395075 L570.699486 957.981154 L580.970435 990.049290 L569.387431 987.787017 L592.689259 1022.400209 L560.835997 1016.178959 L556.311452 1039.344967 L538.936946 1035.951558 L543.461491 1012.785550 L511.608230 1006.564299 L546.221423 983.262471 L534.638418 981.000198 L556.220731 955.153313 L548.981354 953.739393 Z" fill="#888" fill-opacity="0.18" stroke="#000" stroke-width="1"/>
  <path d="M660.940618 498.509851 L624.578890 486.302863 L629.435288 480.751002 L596.543770 473.539504 L604.314006 464.656527 L562.680972 467.438378 L584.049122 443.010191 L566.283168 427.469718 L577.938523 414.145252 L595.704477 429.685725 L617.072628 405.257538 L619.854480 446.890572 L627.624716 438.007595 L639.148084 469.647281 L644.004482 464.095420 Z" fill="#888" fill-opacity="0.18" stroke="#000" stroke-width="1"/>
  <path d="M439.966047 382.060804 L415.655476 352.392944 L422.720079 350.271827 L398.693482 326.679873 L409.996847 323.286084 L373.253963 303.512142 L404.338218 294.179225 L397.550641 271.572494 L414.505689 266.481812 L421.293265 289.088542 L452.377519 279.755625 L432.603577 316.498508 L443.906942 313.104720 L436.849286 346.029591 L443.913889 343.908474 Z" fill="#888" fill-opacity="0.18" stroke="#000" stroke-width="1"/>
  <path d="M920.526296 580.823191 L882.170280 580.780518 L885.014839 573.974914 L851.534394 577.569008 L856.085688 566.680042 L817.485037 582.524223 L830.001095 552.579566 L808.223163 543.476978 L815.050103 527.143529 L836.828036 536.246116 L849.344094 506.301459 L865.188275 544.902109 L869.739569 534.013143 L890.703956 560.363706 L893.548514 553.558102 Z" fill="#888" fill-opacity="0.18" stroke="#000" stroke-width="1"/>
  <path d="M778.310631 1038.269101 L739.980991 1036.846242 L743.068602 1030.147405 L709.480510 1032.534403 L714.420688 1021.816264 L675.274896 1036.261168 L688.860384 1006.786285 L667.424106 996.905930 L674.834372 980.828721 L696.270650 990.709076 L709.856139 961.234194 L724.301043 1000.379985 L729.241220 989.661846 L749.243824 1016.749731 L752.331435 1010.050894 Z" fill="#888" fill-opacity="0.18" stroke="#000" stroke-width="1"/>
  <path d="M782.599039 725.190295 L772.502564 688.186957 L779.817985 689.131617 L767.502698 657.791684 L779.207371 659.303139 L753.724327 626.262819 L785.912177 630.419321 L788.935088 607.009976 L806.492097 609.277159 L803.469186 632.686504 L835.657036 636.843006 L802.616716 662.326050 L814.321389 663.837505 L794.448826 691.020936 L801.764246 691.965596 Z" fill="#888" fill-opacity="0.18" stroke="#000" stroke-width="1"/>
  <path d="M815.612106 891.361174 L812.140871 929.559817 L805.616795 926.118278 L806.203606 959.785968 L795.765085 954.279506 L808.095233 994.141966 L779.389298 978.999194 L768.376374 999.876238 L752.718591 991.616544 L763.731516 970.739501 L735.025581 955.596729 L774.888041 943.266581 L764.449520 937.760119 L792.568643 919.235200 L786.044567 915.793661 Z" fill="#888" fill-opacity="0.18" stroke="#000" stroke-width="1"/>
  <path d="M866.039644 450.357663 L893.452473 423.530017 L896.187201 430.380493 L917.572704 404.370535 L921.948269 415.331296 L938.411261 376.990481 L950.444064 407.132575 L972.365587 398.381446 L978.928934 414.822588 L957.007411 423.573718 L969.040214 453.715812 L930.699398 437.252820 L935.074963 448.213581 L901.656657 444.081445 L904.391385 450.931922 Z" fill="#888" fill-opacity="0.18" stroke="#000" stroke-width="1"/>
  <path d="M60.813401 376.573699 L91.481711 399.609335 L85.124179 403.349595 L114.071788 420.551154 L103.899736 426.535569 L144.290903 437.004661 L116.317761 453.461802 L128.286591 473.805906 L113.028513 482.782528 L101.059683 462.438425 L73.086540 478.895566 L83.555632 438.504399 L73.383581 444.488814 L72.409114 410.830114 L66.051582 414.570373 Z" fill="#888" fill-opacity="0.18" stroke="#000" stroke-width="1"/>
  <path d="M357.372013 486.464271 L346.058178 449.814811 L353.400822 450.517197 L340.056550 419.601374 L351.804779 420.725191 L325.243749 388.545074 L357.551380 391.635572 L359.799015 368.139113 L377.421359 369.824839 L375.173724 393.321298 L407.481355 396.411796 L375.301238 422.972826 L387.049468 424.096644 L368.086109 451.921968 L375.428752 452.624354 Z" fill="#888" fill-opacity="0.18" stroke="#000" stroke-width="1"/>
  <path d="M872.472731 268.217471 L870.537382 229.910289 L877.480621 232.400107 L872.164769 199.149552 L883.273951 203.133261 L865.460270 165.401033 L896.010520 176.356234 L903.977939 154.137870 L920.641712 160.113434 L912.674293 182.331798 L943.224543 193.286999 L905.492315 211.100680 L916.601497 215.084390 L891.367098 237.379744 L898.310337 239.869562 Z" fill="#888" fill-opacity="0.18" stroke="#000" stroke-width="1"/>
  <path d="M837.677568 466.504924 L827.235280 429.597683 L834.559220 430.473848 L821.951212 399.250526 L833.669516 400.652390 L807.878417 367.851971 L840.103752 371.707097 L842.907480 348.270489 L860.484935 350.373285 L857.681207 373.809893 L889.906542 377.665019 L857.106123 403.456118 L868.824427 404.857982 L849.207099 432.226178 L856.531039 433.102343 Z" fill="#888" fill-opacity="0.18" stroke="#000" stroke-width="1"/>
  <path d="M890.072139 45.573173 L890.588758 83.925733 L883.742399 81.180713 L887.824306 114.605191 L876.870133 110.213158 L893.275485 148.578673 L863.151508 136.500583 L854.367443 158.408930 L837.936183 151.820881 L846.720248 129.912534 L816.596272 117.834445 L854.961786 101.429093 L844.007613 97.037060 L870.049683 75.690672 L863.203325 72.945652 Z" fill="#888" fill-opacity="0.18" stroke="#000" stroke-width="1"/>
  <path d="M766.342915 646.962650 L733.472837 666.729891 L732.395078 659.432892 L705.578151 679.797325 L703.853737 668.122126 L678.976776 701.621157 L674.234638 669.514362 L650.884241 672.963190 L648.297620 655.450392 L671.648017 652.001564 L666.905878 619.894768 L700.404909 644.771729 L698.680495 633.096531 L730.239560 644.838894 L729.161802 637.541895 Z" fill="#888" fill-opacity="0.18" stroke="#000" stroke-width="1"/>
  <path d="M426.026270 564.661601 L457.218340 586.982904 L450.948872 590.868974 L480.285980 607.397489 L470.254832 613.615201 L510.876980 623.148791 L483.291324 640.247498 L495.726748 660.309793 L480.680026 669.636361 L468.244603 649.574066 L440.658947 666.672773 L450.192537 626.050624 L440.161389 632.268336 L438.409938 598.641113 L432.140470 602.527183 Z" fill="#888" fill-opacity="0.18" stroke="#000" stroke-width="1"/>
  <path d="M387.743822 454.290997 L413.987337 426.318444 L417.011791 433.046032 L437.268344 406.147524 L442.107470 416.911664 L456.920007 377.903498 L470.227603 407.504885 L491.755884 397.826633 L499.014573 413.972844 L477.486292 423.651096 L490.793888 453.252483 L451.785722 438.439946 L456.624848 449.204086 L423.060698 446.501207 L426.085152 453.228795 Z" fill="#888" fill-opacity="0.18" stroke="#000" stroke-width="1"/>
  <path d="M200.659062 211.463338 L168.320515 232.088667 L167.051118 224.822554 L140.779341 245.885588 L138.748306 234.259808 L114.761443 268.401845 L109.176098 236.430950 L85.924538 240.493019 L82.877986 223.054349 L106.129546 218.992280 L100.544201 187.021385 L134.686237 211.008248 L132.655203 199.382468 L164.512325 210.290329 L163.242928 203.024217 Z" fill="#888" fill-opacity="0.18" stroke="#000" stroke-width="1"/>
  <path d="M365.680985 189.090890 L327.595941 193.642283 L329.604943 186.544983 L296.795938 194.123037 L300.010340 182.767356 L263.585133 203.120551 L272.424740 171.892429 L249.713379 165.463624 L254.534983 148.430104 L277.246344 154.858909 L286.085951 123.630788 L306.439146 160.055995 L309.653548 148.700315 L333.622946 172.350382 L335.631947 165.253082 Z" fill="#888" fill-opacity="0.18" stroke="#000" stroke-width="1"/>
</svg>
