<?xml version="1.0" encoding="UTF-8"?>
<svg xmlns="http://www.w3.org/2000/svg" width="1100" height="1100" viewBox="0 0 1100 1100">
  <rect x="0" y="0" width="1100" height="1100" fill="white"/>
  <text x="10.0" y="18.0" font-family="monospace" font-size="12">prefix=N112_job5048513_task112 run_id=112 L=9.07678109291 feas=0.000e+00 N=112</text>
  <rect x="40.000000" y="40.000000" width="1020.000000" height="1020.000000" fill="none" stroke="#000" stroke-width="2"/>
  <path d="M802.027210 622.482052 L831.592728 601.040995 L833.212034 607.875189 L856.986336 586.362738 L859.577225 597.297449 L880.436776 563.483449 L887.561723 593.553902 L909.431143 588.372122 L913.317478 604.774187 L891.448058 609.955967 L898.573005 640.026420 L864.759005 619.166869 L867.349895 630.101579 L836.450646 621.543577 L838.069952 628.377771 Z" fill="#888" fill-opacity="0.18" stroke="#000" stroke-width="1"/>
  <path d="M911.719945 556.361904 L878.289880 541.655799 L883.373069 536.809198 L852.803647 527.138964 L860.936750 519.384402 L821.217588 518.438051 L843.583620 497.113005 L828.074495 480.846800 L840.274149 469.214956 L855.783274 485.481161 L878.149306 464.156115 L877.202955 503.875278 L885.336058 496.120715 L893.539448 527.115995 L898.622637 522.269394 Z" fill="#888" fill-opacity="0.18" stroke="#000" stroke-width="1"/>
  <path d="M702.656079 251.611987 L730.063900 227.473839 L732.321572 234.124498 L753.957330 210.462357 L757.569607 221.103412 L775.141554 185.470083 L785.075314 214.732985 L806.357424 207.508433 L811.775838 223.470016 L790.493728 230.694568 L800.427488 259.957470 L764.794159 242.385522 L768.406435 253.026578 L736.836917 247.425817 L739.094590 254.076477 Z" fill="#888" fill-opacity="0.18" stroke="#000" stroke-width="1"/>
  <path d="M484.840861 420.418420 L459.482989 446.701819 L456.692879 440.256383 L437.049377 465.596782 L432.585201 455.284085 L417.963898 492.226268 L405.687414 463.866351 L385.062019 472.794703 L378.365755 457.325656 L398.991150 448.397304 L386.714666 420.037387 L423.656849 434.658690 L419.192673 424.345993 L451.112659 427.365512 L448.322549 420.920076 Z" fill="#888" fill-opacity="0.18" stroke="#000" stroke-width="1"/>
  <path d="M226.882450 901.970900 L246.525683 932.760220 L239.607221 933.969868 L259.666427 958.982489 L248.596889 960.917925 L281.109326 983.753180 L250.668095 989.075630 L254.538968 1011.214707 L237.934660 1014.117862 L234.063787 991.978785 L203.622557 997.301235 L226.457812 964.788798 L215.388273 966.724234 L225.770298 936.389163 L218.851836 937.598811 Z" fill="#888" fill-opacity="0.18" stroke="#000" stroke-width="1"/>
  <path d="M184.727525 525.499798 L195.353431 560.441592 L188.364806 559.743395 L200.946994 589.233928 L189.765194 588.116813 L214.926906 618.864100 L184.176957 615.792034 L181.942727 638.155634 L165.170027 636.479962 L167.404257 614.116362 L136.654307 611.044296 L167.401594 585.882583 L156.219794 584.765468 L174.387556 558.347001 L167.398931 557.648805 Z" fill="#888" fill-opacity="0.18" stroke="#000" stroke-width="1"/>
  <path d="M303.807935 530.413339 L292.444583 565.122315 L287.123711 560.537919 L280.492049 591.907077 L271.978654 584.572045 L274.924561 624.193113 L251.512724 604.021774 L236.842660 621.048565 L224.072567 610.046017 L238.742631 593.019226 L215.330795 572.847888 L254.951863 569.901980 L246.438468 562.566948 L276.481967 551.369129 L271.161095 546.784734 Z" fill="#888" fill-opacity="0.18" stroke="#000" stroke-width="1"/>
  <path d="M267.971320 288.932504 L255.259975 254.694214 L262.277966 254.970180 L247.942251 226.291090 L259.171037 226.732636 L232.202937 197.556806 L263.082098 198.771057 L263.965190 176.313486 L280.808368 176.975804 L279.925277 199.433376 L310.804438 200.647627 L281.628608 227.615727 L292.857394 228.057273 L276.313949 255.522112 L283.331940 255.798079 Z" fill="#888" fill-opacity="0.18" stroke="#000" stroke-width="1"/>
  <path d="M729.458171 519.650561 L699.977982 541.208789 L698.331565 534.381076 L674.642829 555.987713 L672.008562 545.063372 L651.283377 578.959893 L644.039142 548.917955 L622.190460 554.186490 L618.239059 537.799978 L640.087741 532.531443 L632.843506 502.489505 L666.740027 523.214690 L664.105760 512.290348 L695.038731 520.725649 L693.392314 513.897936 Z" fill="#888" fill-opacity="0.18" stroke="#000" stroke-width="1"/>
  <path d="M764.315501 50.072831 L743.412754 80.021353 L739.642509 74.095679 L724.234351 102.213140 L718.201960 92.732062 L709.580241 131.515736 L692.991165 105.442770 L674.029008 117.507552 L664.980421 103.285935 L683.942579 91.221152 L667.353503 65.148186 L706.137177 73.769904 L700.104786 64.288826 L732.102020 62.244331 L728.331776 56.318657 Z" fill="#888" fill-opacity="0.18" stroke="#000" stroke-width="1"/>
  <path d="M1029.408130 511.526495 L1024.426064 547.706846 L1018.372012 544.146394 L1017.449118 576.195594 L1007.762635 570.498871 L1017.737033 608.956885 L991.099207 593.290897 L979.705761 612.663861 L965.176037 604.118777 L976.569483 584.745812 L949.931657 569.079823 L988.389670 559.105425 L978.703188 553.408702 L1006.263909 537.025490 L1000.209858 533.465038 Z" fill="#888" fill-opacity="0.18" stroke="#000" stroke-width="1"/>
  <path d="M303.415409 214.618731 L323.197068 245.319297 L316.284123 246.560082 L336.455743 271.482135 L325.395031 273.467391 L358.009952 296.156031 L327.592993 301.615485 L331.563506 323.736910 L314.972438 326.714794 L311.001925 304.593370 L280.584967 310.052825 L303.273606 277.437904 L292.212894 279.423160 L302.458233 249.041652 L295.545288 250.282437 Z" fill="#888" fill-opacity="0.18" stroke="#000" stroke-width="1"/>
  <path d="M973.474471 252.776569 L941.202709 269.875463 L940.554367 262.882037 L914.007014 280.860942 L912.969667 269.671460 L887.589330 300.238532 L884.736625 269.467457 L862.357661 271.542151 L860.801641 254.757928 L883.180605 252.683234 L880.327900 221.912159 L910.894973 247.292496 L909.857626 236.103014 L939.257683 248.895184 L938.609341 241.901758 Z" fill="#888" fill-opacity="0.18" stroke="#000" stroke-width="1"/>
  <path d="M924.831815 398.066121 L926.411214 361.578530 L932.771482 364.557683 L930.695505 332.562475 L940.871933 337.329120 L927.347475 299.971438 L955.332652 313.079711 L964.865942 292.726854 L980.130585 299.876822 L970.597295 320.229678 L998.582472 333.337952 L961.224790 346.862410 L971.401218 351.629055 L945.492017 370.515989 L951.852284 373.495142 Z" fill="#888" fill-opacity="0.18" stroke="#000" stroke-width="1"/>
  <path d="M663.464943 689.256848 L698.674454 698.958864 L694.347949 704.491468 L725.996677 709.625759 L719.074269 718.477926 L758.510707 713.653529 L739.474084 737.996989 L757.178418 751.841805 L746.794806 765.120055 L729.090472 751.275239 L710.053850 775.618698 L705.229453 736.182260 L698.307045 745.034427 L685.694938 715.556677 L681.368433 721.089281 Z" fill="#888" fill-opacity="0.18" stroke="#000" stroke-width="1"/>
  <path d="M958.222124 784.227363 L923.263688 794.798387 L923.972858 787.810867 L894.462604 800.346731 L895.597276 789.166699 L864.810516 814.280099 L867.930864 783.535011 L845.570800 781.265667 L847.272808 764.495619 L869.632872 766.764963 L872.753220 736.019875 L897.866620 766.806635 L899.001292 755.626603 L925.391198 773.835827 L926.100368 766.848307 Z" fill="#888" fill-opacity="0.18" stroke="#000" stroke-width="1"/>
  <path d="M555.818378 946.401861 L585.127690 924.611885 L586.827885 931.426406 L610.345541 909.633682 L613.065852 920.536916 L633.523158 886.478054 L641.004014 916.461946 L662.810481 911.021324 L666.890948 927.376174 L645.084480 932.816796 L652.565336 962.800689 L618.506474 942.343383 L621.226785 953.246616 L590.228274 945.055448 L591.928468 951.869969 Z" fill="#888" fill-opacity="0.18" stroke="#000" stroke-width="1"/>
  <path d="M650.124514 429.747937 L683.599382 415.144101 L683.715827 422.166550 L711.549446 406.251381 L711.735758 417.487300 L739.359776 388.931721 L739.872134 419.830499 L762.343973 419.457874 L762.623442 436.311753 L740.151603 436.684378 L740.663962 467.583156 L712.108383 439.959139 L712.294695 451.195058 L683.948717 436.211450 L684.065162 443.233899 Z" fill="#888" fill-opacity="0.18" stroke="#000" stroke-width="1"/>
  <path d="M70.405564 830.396183 L89.293810 861.654349 L82.347963 862.695297 L101.792620 888.188596 L90.679266 889.854114 L122.626446 913.473706 L92.064722 918.053879 L95.395757 940.280588 L78.725726 942.778865 L75.394690 920.552156 L44.832965 925.132330 L68.452557 893.185150 L57.339203 894.850667 L68.456270 864.777194 L61.510424 865.818143 Z" fill="#888" fill-opacity="0.18" stroke="#000" stroke-width="1"/>
  <path d="M153.325732 239.382256 L118.664029 227.875513 L123.270382 222.573638 L91.928908 215.812352 L99.299072 207.329352 L59.666164 210.111440 L79.934116 186.783192 L62.968117 172.042864 L74.023363 159.318365 L90.989362 174.058693 L111.257313 150.730446 L114.039401 190.363354 L121.409565 181.880355 L132.483087 211.969889 L137.089440 206.668015 Z" fill="#888" fill-opacity="0.18" stroke="#000" stroke-width="1"/>
  <path d="M773.697770 280.238014 L743.645329 300.991076 L742.184167 294.121333 L717.919752 315.079414 L715.581893 304.087826 L693.947570 337.411444 L687.518458 307.184576 L665.535282 311.860294 L662.028494 295.372912 L684.011670 290.697194 L677.582558 260.470326 L710.906176 282.104650 L708.568317 271.113061 L739.261843 280.381848 L737.800681 273.512105 Z" fill="#888" fill-opacity="0.18" stroke="#000" stroke-width="1"/>
  <path d="M601.852944 491.211432 L573.546089 514.288710 L571.543233 507.556925 L549.022377 530.378275 L545.817808 519.607419 L526.902092 554.545982 L518.089526 524.926129 L496.547815 531.335268 L491.740961 515.178985 L513.282672 508.769846 L504.470106 479.149993 L539.408669 498.065708 L536.204099 487.294853 L567.537521 494.093355 L565.534665 487.361571 Z" fill="#888" fill-opacity="0.18" stroke="#000" stroke-width="1"/>
  <path d="M1029.665563 334.382229 L1001.864519 310.698041 L1008.125103 307.514734 L981.618588 289.475675 L991.635523 284.382382 L953.859957 272.073277 L981.406526 258.066724 L971.219942 238.032855 L986.245343 230.392917 L996.431927 250.426786 L1023.978496 236.420233 L1011.669391 274.195798 L1021.686325 269.102506 L1020.646271 301.148118 L1026.906855 297.964811 Z" fill="#888" fill-opacity="0.18" stroke="#000" stroke-width="1"/>
  <path d="M250.891044 158.172950 L215.793594 168.272843 L216.596679 161.295493 L186.920493 173.433324 L188.205429 162.269564 L157.083690 186.966625 L160.617263 156.266285 L138.289743 153.696414 L140.217146 136.950774 L162.544666 139.520645 L166.078239 108.820305 L190.775300 139.942044 L192.060235 128.778284 L218.202849 147.340793 L219.005934 140.363443 Z" fill="#888" fill-opacity="0.18" stroke="#000" stroke-width="1"/>
  <path d="M298.893961 1045.423410 L324.292563 1019.179368 L327.072674 1025.629123 L346.755451 1000.319218 L351.203628 1010.638827 L365.882206 973.719363 L378.114693 1002.098285 L398.753910 993.201931 L405.426176 1008.681343 L384.786959 1017.577698 L397.019447 1045.956620 L360.099983 1031.278043 L364.548160 1041.597651 L332.632896 1038.528633 L335.413007 1044.978388 Z" fill="#888" fill-opacity="0.18" stroke="#000" stroke-width="1"/>
  <path d="M993.280703 972.860469 L977.418468 939.963231 L984.431456 939.580677 L967.472666 912.370341 L978.693448 911.758255 L949.111279 885.236515 L979.968429 883.553279 L978.744257 861.111715 L995.575430 860.193586 L996.799602 882.635150 L1027.656752 880.951913 L1001.135012 910.534083 L1012.355794 909.921997 L998.457434 938.815570 L1005.470422 938.433016 Z" fill="#888" fill-opacity="0.18" stroke="#000" stroke-width="1"/>
  <path d="M239.197232 734.380267 L226.803674 700.025668 L233.818807 700.366648 L219.749438 671.555959 L230.973651 672.101528 L204.277042 642.677074 L235.143627 644.177389 L236.234766 621.728964 L253.071085 622.547318 L251.979946 644.995743 L282.846531 646.496059 L253.422076 673.192667 L264.646289 673.738236 L247.849073 701.048610 L254.864206 701.389591 Z" fill="#888" fill-opacity="0.18" stroke="#000" stroke-width="1"/>
  <path d="M405.200398 130.071531 L415.100265 165.225925 L408.127601 164.383121 L420.096244 194.127945 L408.939982 192.779458 L433.459420 224.041330 L402.779700 220.332991 L400.082726 242.645515 L383.348334 240.622785 L386.045307 218.310261 L355.365587 214.601922 L386.627459 190.082485 L375.471197 188.733998 L394.182274 162.697513 L387.209610 161.854708 Z" fill="#888" fill-opacity="0.18" stroke="#000" stroke-width="1"/>
  <path d="M219.697492 898.120003 L198.513873 927.870517 L194.799552 921.909629 L179.127508 949.880864 L173.184595 940.343444 L164.198327 979.044277 L147.855316 952.816372 L128.780476 964.702198 L119.866107 950.396068 L138.940947 938.510242 L122.597936 912.282337 L161.298769 921.268604 L155.355856 911.731184 L187.370911 909.987854 L183.656591 904.026967 Z" fill="#888" fill-opacity="0.18" stroke="#000" stroke-width="1"/>
  <path d="M724.935960 992.928433 L714.467015 957.939292 L721.452436 958.668854 L709.002758 929.122137 L720.179430 930.289436 L695.155996 899.429507 L725.891845 902.639579 L728.226443 880.286234 L744.991451 882.037182 L742.656854 904.390527 L773.392703 907.600598 L742.532775 932.624033 L753.709448 933.791332 L735.423276 960.127977 L742.408697 960.857539 Z" fill="#888" fill-opacity="0.18" stroke="#000" stroke-width="1"/>
  <path d="M394.369331 749.339487 L400.668472 713.365057 L406.588553 717.144078 L408.680461 685.149909 L418.152590 691.196343 L409.588352 652.399935 L435.636707 669.027629 L447.729576 650.083371 L461.937769 659.153022 L449.844901 678.097280 L475.893256 694.724974 L437.096848 703.289211 L446.568977 709.335645 L418.428714 724.702121 L424.348795 728.481142 Z" fill="#888" fill-opacity="0.18" stroke="#000" stroke-width="1"/>
  <path d="M874.000424 659.534779 L847.100795 684.237992 L844.705227 677.635749 L823.566505 701.742956 L819.733596 691.179368 L802.906898 727.170612 L792.366398 698.120743 L771.239221 705.786562 L765.489857 689.941179 L786.617034 682.275361 L776.076534 653.225492 L812.067778 670.052190 L808.234869 659.488602 L839.914090 664.431263 L837.518522 657.829020 Z" fill="#888" fill-opacity="0.18" stroke="#000" stroke-width="1"/>
  <path d="M549.635639 651.691593 L563.902505 685.311458 L556.879240 685.357361 L572.514036 713.349433 L561.276812 713.422879 L589.553485 741.332325 L558.651119 741.534300 L558.798010 764.008748 L541.942174 764.118916 L541.795283 741.644468 L510.892918 741.846442 L538.802364 713.569769 L527.565140 713.643215 L542.832710 685.449168 L535.809445 685.495071 Z" fill="#888" fill-opacity="0.18" stroke="#000" stroke-width="1"/>
  <path d="M107.454928 394.288890 L138.373011 374.848959 L139.537046 381.775241 L164.681296 361.881282 L166.543752 372.963333 L189.592740 340.602066 L194.714494 371.077706 L216.878596 367.352795 L219.672279 383.975871 L197.508177 387.700783 L202.629930 418.176423 L170.268664 395.127435 L172.131119 406.209486 L141.865115 395.627805 L143.029150 402.554087 Z" fill="#888" fill-opacity="0.18" stroke="#000" stroke-width="1"/>
  <path d="M910.812407 137.116359 L894.915687 169.996947 L890.254689 164.743048 L879.493288 194.945618 L872.035691 186.539379 L869.664086 226.198968 L849.155696 203.081811 L832.343218 217.997005 L821.156823 205.387647 L837.969301 190.472453 L817.460910 167.355297 L857.120498 169.726902 L849.662901 161.320664 L880.932693 154.235250 L876.271695 148.981351 Z" fill="#888" fill-opacity="0.18" stroke="#000" stroke-width="1"/>
  <path d="M708.161314 536.576890 L739.869801 518.454786 L740.741440 525.423904 L766.700305 506.605288 L768.094928 517.755876 L792.484842 486.392848 L796.320054 517.056967 L818.621231 514.267721 L820.713165 530.993604 L798.411989 533.782849 L802.247201 564.446967 L770.884173 540.057053 L772.278796 551.207642 L742.484719 539.362140 L743.356358 546.331257 Z" fill="#888" fill-opacity="0.18" stroke="#000" stroke-width="1"/>
  <path d="M782.344270 825.908190 L814.461525 843.295561 L808.999473 847.710800 L838.676947 859.845482 L829.937664 866.909865 L869.446832 871.097115 L845.413802 890.524170 L859.542570 908.002738 L846.433644 918.599313 L832.304877 901.120746 L808.271847 920.547801 L812.459097 881.038633 L803.719813 888.103017 L798.075369 856.541280 L792.613316 860.956520 Z" fill="#888" fill-opacity="0.18" stroke="#000" stroke-width="1"/>
  <path d="M81.664902 715.188367 L101.511978 745.846684 L94.601694 747.102206 L114.826409 771.981191 L103.769955 773.990028 L136.433180 796.609072 L106.027932 802.133371 L110.045604 824.246279 L93.460924 827.259533 L89.443251 805.146626 L59.038003 810.670925 L81.657047 778.007700 L70.600593 780.016536 L80.781127 749.613252 L73.870843 750.868774 Z" fill="#888" fill-opacity="0.18" stroke="#000" stroke-width="1"/>
  <path d="M340.204314 875.072008 L376.674222 877.017417 L373.631404 883.347474 L405.645830 881.592617 L400.777323 891.720708 L438.268819 878.571749 L424.880423 906.424000 L445.136606 916.161015 L437.833844 931.353152 L417.577662 921.616137 L404.189266 949.468387 L391.040307 911.976890 L386.171800 922.104982 L367.545770 896.007587 L364.502953 902.337644 Z" fill="#888" fill-opacity="0.18" stroke="#000" stroke-width="1"/>
  <path d="M261.651188 938.406209 L297.759404 932.925742 L296.061542 939.740844 L327.057248 931.539067 L324.340669 942.443231 L358.392527 921.974269 L350.921934 951.960720 L372.730262 957.393879 L368.655393 973.750125 L346.847065 968.316966 L339.376472 998.303417 L318.907511 964.251559 L316.190931 975.155723 L292.665818 953.371049 L290.967956 960.186151 Z" fill="#888" fill-opacity="0.18" stroke="#000" stroke-width="1"/>
  <path d="M874.479683 53.888732 L861.915991 88.181478 L856.757789 83.414791 L849.039086 114.534312 L840.785962 106.907613 L842.352025 146.607171 L819.655934 125.633749 L804.402535 142.139997 L792.022849 130.699948 L807.276247 114.193700 L784.580156 93.220277 L824.279714 91.654215 L816.026590 84.027516 L846.441384 73.881417 L841.283181 69.114730 Z" fill="#888" fill-opacity="0.18" stroke="#000" stroke-width="1"/>
  <path d="M821.082707 766.540025 L797.073452 794.060825 L793.963935 787.763265 L775.614631 814.055963 L770.639404 803.979867 L757.887230 841.608174 L744.205357 813.898909 L724.053164 823.849362 L716.590325 808.735218 L736.742517 798.784765 L723.060644 771.075500 L760.688951 783.827675 L755.713725 773.751578 L787.744902 775.168144 L784.635385 768.870584 Z" fill="#888" fill-opacity="0.18" stroke="#000" stroke-width="1"/>
  <path d="M583.504987 470.630693 L547.247272 475.014398 L549.150883 468.253879 L517.920861 475.512576 L520.966639 464.695745 L486.310117 484.123378 L494.686006 454.377093 L473.052344 448.285537 L477.621011 432.060291 L499.254673 438.151847 L507.630562 408.405561 L527.058195 443.062084 L530.103973 432.245253 L552.958105 454.732840 L554.861717 447.972320 Z" fill="#888" fill-opacity="0.18" stroke="#000" stroke-width="1"/>
  <path d="M952.701862 239.571835 L935.371734 207.423656 L942.360326 206.725125 L924.191303 180.307525 L935.373050 179.189877 L904.624562 154.029631 L935.374366 150.956098 L933.139069 128.592605 L949.911689 126.916133 L952.146986 149.279626 L982.896789 146.206093 L957.736543 176.954580 L968.918290 175.836932 L956.337509 205.328065 L963.326101 204.629535 Z" fill="#888" fill-opacity="0.18" stroke="#000" stroke-width="1"/>
  <path d="M1056.967062 80.037500 L1025.437605 98.469324 L1024.497744 91.509079 L998.724456 110.581064 L997.220679 99.444671 L973.139141 131.045098 L969.003752 100.420017 L946.730966 103.427573 L944.475299 86.722984 L966.748085 83.715428 L962.612696 53.090347 L994.213123 77.171885 L992.709345 66.035492 L1022.618022 77.588588 L1021.678161 70.628342 Z" fill="#888" fill-opacity="0.18" stroke="#000" stroke-width="1"/>
  <path d="M352.026985 199.237488 L319.476828 182.674696 L324.824525 178.121621 L294.847289 166.747601 L303.403603 159.462680 L263.800514 156.284197 L287.330379 136.250664 L272.760536 119.138035 L285.595008 108.210653 L300.164850 125.323282 L323.694715 105.289748 L320.516232 144.892837 L329.072547 137.607916 L335.519918 169.015469 L340.867614 164.462393 Z" fill="#888" fill-opacity="0.18" stroke="#000" stroke-width="1"/>
  <path d="M360.824347 874.521049 L377.667525 842.115091 L382.174265 847.501895 L393.806652 817.623967 L401.017436 826.242853 L404.537691 786.668679 L424.367346 810.370615 L441.605118 795.949048 L452.421294 808.877377 L435.183522 823.298944 L455.013177 847.000880 L415.439003 843.480625 L422.649787 852.099511 L391.187745 858.275502 L395.694485 863.662306 Z" fill="#888" fill-opacity="0.18" stroke="#000" stroke-width="1"/>
  <path d="M539.238513 818.875299 L540.210092 855.384131 L533.657372 852.856243 L537.961804 884.628476 L527.477452 880.583856 L543.576781 916.906288 L514.744813 905.783581 L506.655572 926.752285 L490.929043 920.685354 L499.018285 899.716650 L470.186316 888.593944 L506.508748 872.494615 L496.024396 868.449994 L520.551931 847.800467 L513.999211 845.272579 Z" fill="#888" fill-opacity="0.18" stroke="#000" stroke-width="1"/>
  <path d="M580.513580 1016.305336 L544.996008 1007.799991 L549.132872 1002.124190 L517.328568 998.063497 L523.947550 988.982216 L484.696892 995.137964 L502.899092 970.164440 L484.736530 956.926476 L494.665003 943.304554 L512.827565 956.542518 L531.029766 931.568994 L537.185514 970.819653 L543.804496 961.738372 L557.406599 990.772589 L561.543463 985.096788 Z" fill="#888" fill-opacity="0.18" stroke="#000" stroke-width="1"/>
  <path d="M260.369882 543.925201 L242.481092 512.084504 L249.456422 511.264060 L230.828921 485.167716 L241.989449 483.855006 L210.806354 459.235461 L241.497806 455.625508 L238.872387 433.304452 L255.613179 431.335387 L258.238599 453.656444 L288.930051 450.046491 L264.310505 481.229586 L275.471034 479.916876 L263.407082 509.623173 L270.382412 508.802729 Z" fill="#888" fill-opacity="0.18" stroke="#000" stroke-width="1"/>
  <path d="M508.097494 845.008201 L482.584889 818.874969 L489.110951 816.279036 L464.369880 795.885841 L474.811580 791.732347 L438.323597 776.011833 L467.038270 764.589726 L458.731283 743.706327 L474.393832 737.476086 L482.700820 758.359485 L511.415493 746.937378 L495.694978 783.425360 L506.136678 779.271867 L502.163075 811.087169 L508.689137 808.491235 Z" fill="#888" fill-opacity="0.18" stroke="#000" stroke-width="1"/>
  <path d="M571.984721 433.138720 L561.369919 398.193552 L568.358322 398.893970 L555.785506 369.399440 L566.966951 370.520108 L541.815010 339.764827 L572.563982 342.846664 L574.805318 320.483776 L591.577484 322.164778 L589.336148 344.527666 L620.085120 347.609503 L589.329839 372.761444 L600.511284 373.882112 L582.335128 400.294805 L589.323530 400.995222 Z" fill="#888" fill-opacity="0.18" stroke="#000" stroke-width="1"/>
  <path d="M406.684881 594.937290 L370.570495 589.497629 L374.207298 583.489133 L342.172348 582.160613 L347.991233 572.547019 L309.410038 582.033792 L325.411970 555.596410 L306.184783 543.958642 L314.913109 529.538251 L334.140296 541.176020 L350.142228 514.738638 L359.629001 553.319832 L365.447886 543.706239 L381.480903 571.472141 L385.117706 565.463645 Z" fill="#888" fill-opacity="0.18" stroke="#000" stroke-width="1"/>
  <path d="M1044.243551 782.939135 L1008.895888 773.753194 L1013.141001 768.157894 L981.420555 763.487103 L988.212735 754.534623 L948.851086 759.935371 L967.529582 735.316053 L949.624623 721.731693 L959.812894 708.302974 L977.717852 721.887334 L996.396347 697.268017 L1001.797095 736.629665 L1008.589275 727.677186 L1021.631226 756.967295 L1025.876338 751.371995 Z" fill="#888" fill-opacity="0.18" stroke="#000" stroke-width="1"/>
  <path d="M1049.156000 384.086555 L1025.320677 411.758132 L1022.171531 405.480296 L1003.988307 431.888123 L998.949672 421.843585 L986.434913 459.551518 L972.578667 431.929037 L952.489590 442.006306 L944.931638 426.939499 L965.020715 416.862229 L951.164469 389.239748 L988.872403 401.754507 L983.833768 391.709969 L1015.873237 392.924622 L1012.724091 386.646786 Z" fill="#888" fill-opacity="0.18" stroke="#000" stroke-width="1"/>
  <path d="M365.842387 313.395975 L371.573532 349.465253 L364.746801 347.814770 L373.163679 378.752758 L362.240909 376.111986 L382.945904 410.020843 L352.908285 402.758719 L347.626740 424.604260 L331.242584 420.643102 L336.524129 398.797560 L306.486510 391.535436 L340.395368 370.830441 L329.472597 368.189669 L351.093338 344.513804 L344.266606 342.863322 Z" fill="#888" fill-opacity="0.18" stroke="#000" stroke-width="1"/>
  <path d="M698.031842 780.861814 L697.479517 817.379395 L691.037959 814.580345 L694.013187 846.504489 L683.706693 842.026009 L698.276726 878.988443 L669.933869 866.672622 L660.976908 887.285609 L645.517168 880.567889 L654.474128 859.954902 L626.131271 847.639081 L663.093706 833.069048 L652.787213 828.590567 L678.154842 808.982244 L671.713284 806.183194 Z" fill="#888" fill-opacity="0.18" stroke="#000" stroke-width="1"/>
  <path d="M745.177204 339.554336 L723.032506 368.596567 L719.515002 362.517461 L702.937090 389.961509 L697.309083 380.234941 L687.062678 418.621379 L671.585660 391.873315 L652.132523 403.129328 L643.690513 388.539475 L663.143650 377.283462 L647.666632 350.535398 L686.053070 360.781804 L680.425063 351.055235 L712.479994 350.359250 L708.962490 344.280145 Z" fill="#888" fill-opacity="0.18" stroke="#000" stroke-width="1"/>
  <path d="M743.872613 981.043677 L780.393543 981.289542 L777.648646 987.754362 L809.546699 984.511346 L805.154864 994.855058 L841.993732 979.975365 L829.916186 1008.420573 L850.603610 1017.204243 L844.015858 1032.719812 L823.328433 1023.936142 L811.250887 1052.381350 L796.371194 1015.542482 L791.979359 1025.886194 L772.158852 1000.684002 L769.413955 1007.148823 Z" fill="#888" fill-opacity="0.18" stroke="#000" stroke-width="1"/>
  <path d="M855.084024 140.958543 L870.805875 107.993984 L875.494713 113.223052 L886.095542 82.963749 L893.597683 91.330258 L895.758603 51.658633 L916.389491 74.666533 L933.122509 59.662251 L944.375721 72.212014 L927.642702 87.216297 L948.273590 110.224197 L908.601965 108.063277 L916.104106 116.429786 L884.872389 123.681188 L889.561228 128.910257 Z" fill="#888" fill-opacity="0.18" stroke="#000" stroke-width="1"/>
  <path d="M695.498701 140.974490 L659.996231 149.542656 L661.101177 142.606702 L630.926482 153.446015 L632.694396 142.348490 L600.530797 165.672519 L605.392560 135.154324 L583.197509 131.618496 L585.849379 114.972208 L608.044431 118.508035 L612.906194 87.989840 L636.230223 120.153438 L637.998137 109.055913 L663.311070 128.734795 L664.416016 121.798842 Z" fill="#888" fill-opacity="0.18" stroke="#000" stroke-width="1"/>
  <path d="M739.556584 473.796970 L759.031904 442.901167 L763.075884 448.643517 L777.148529 419.834427 L783.618897 429.022187 L790.412377 389.876868 L808.205889 415.143208 L826.581409 402.202472 L836.286961 415.984113 L817.911441 428.924848 L835.704952 454.191188 L796.559632 447.397708 L803.030000 456.585468 L771.163844 460.128217 L775.207824 465.870567 Z" fill="#888" fill-opacity="0.18" stroke="#000" stroke-width="1"/>
  <path d="M666.716347 979.334105 L645.117415 1008.784485 L641.487090 1002.772073 L625.424153 1030.520677 L619.615635 1020.900816 L610.087281 1059.471763 L594.113855 1033.017148 L574.874135 1044.634184 L566.161357 1030.204394 L585.401077 1018.587357 L569.427651 992.132742 L607.998598 1001.661096 L602.190079 992.041236 L634.226442 990.747248 L630.596118 984.734835 Z" fill="#888" fill-opacity="0.18" stroke="#000" stroke-width="1"/>
  <path d="M580.440437 905.563399 L568.908346 870.910121 L575.912781 871.426116 L562.567007 842.273187 L573.774102 843.098780 L547.820346 813.017059 L578.639859 815.287439 L580.291044 792.873248 L597.101688 794.111638 L595.450502 816.525829 L626.270015 818.796209 L596.188293 844.749966 L607.395389 845.575559 L589.921650 872.458108 L596.926085 872.974103 Z" fill="#888" fill-opacity="0.18" stroke="#000" stroke-width="1"/>
  <path d="M657.070238 160.295817 L693.291764 155.622505 L691.442239 162.398021 L722.613257 154.889985 L719.654017 165.730811 L754.154180 146.026847 L746.016271 175.839117 L767.697921 181.757596 L763.259062 198.018834 L741.577411 192.100355 L733.439501 221.912625 L713.735537 187.412462 L710.776298 198.253287 L687.743189 175.949053 L685.893664 182.724568 Z" fill="#888" fill-opacity="0.18" stroke="#000" stroke-width="1"/>
  <path d="M462.461909 1056.503214 L444.533911 1024.684577 L451.508225 1023.855542 L432.848593 997.782162 L444.007496 996.455706 L412.794098 971.874590 L443.481080 968.226835 L440.828168 945.909030 L457.566522 943.919345 L460.219434 966.237151 L490.906417 962.589396 L466.325301 993.802793 L477.484204 992.476337 L465.456854 1022.197471 L472.431168 1021.368436 Z" fill="#888" fill-opacity="0.18" stroke="#000" stroke-width="1"/>
  <path d="M185.519420 293.451735 L168.857884 260.952012 L175.859428 260.398168 L158.240658 233.610449 L169.443128 232.724299 L139.221579 206.933498 L170.028371 204.496587 L168.256072 182.091647 L185.059777 180.762423 L186.832076 203.167363 L217.638869 200.730451 L191.848068 230.952000 L203.050538 230.065851 L189.862515 259.290481 L196.864059 258.736638 Z" fill="#888" fill-opacity="0.18" stroke="#000" stroke-width="1"/>
  <path d="M550.645245 260.102251 L543.893337 224.210044 L550.764136 225.666229 L541.473120 194.979424 L552.466399 197.309321 L530.807944 164.001382 L561.039460 170.408599 L565.699254 148.422041 L582.189172 151.916886 L577.529378 173.903444 L607.760895 180.310660 L574.452956 201.969115 L585.446235 204.299011 L564.505735 228.578600 L571.376534 230.034786 Z" fill="#888" fill-opacity="0.18" stroke="#000" stroke-width="1"/>
  <path d="M402.128269 360.257032 L422.504200 329.947624 L426.377473 335.806473 L441.291670 307.423913 L447.488907 316.798072 L455.431213 277.869584 L472.473613 303.648521 L491.221931 291.254048 L500.517786 305.315286 L481.769468 317.709759 L498.811868 343.488696 L459.883380 335.546390 L466.080616 344.920549 L434.124019 347.524172 L437.997292 353.383021 Z" fill="#888" fill-opacity="0.18" stroke="#000" stroke-width="1"/>
  <path d="M784.201144 278.288949 L818.573273 290.633806 L813.839562 295.822286 L845.007649 303.342477 L837.433710 311.644045 L877.122480 309.824971 L856.294147 332.654285 L872.897284 347.802163 L861.536376 360.254516 L844.933239 345.106638 L824.104906 367.935952 L822.285832 328.247183 L814.711893 336.548751 L804.372138 306.199247 L799.638426 311.387727 Z" fill="#888" fill-opacity="0.18" stroke="#000" stroke-width="1"/>
  <path d="M348.758640 240.108559 L383.650199 250.898270 L379.154129 256.293982 L410.628333 262.407695 L403.434621 271.040835 L443.001750 267.442266 L423.219042 291.183400 L440.485322 305.570824 L429.694754 318.520534 L412.428474 304.133110 L392.645766 327.874244 L389.047196 288.307115 L381.853484 296.940254 L370.161989 267.085407 L365.665919 272.481119 Z" fill="#888" fill-opacity="0.18" stroke="#000" stroke-width="1"/>
  <path d="M510.584792 288.538664 L539.381039 266.075028 L541.238767 272.848299 L564.244851 250.516191 L567.217215 261.353425 L586.879389 226.829428 L595.053392 256.631822 L616.727860 250.687093 L621.186407 266.942944 L599.511939 272.887673 L607.685941 302.690067 L573.161944 283.027893 L576.134309 293.865127 L544.954222 286.394842 L546.811950 293.168113 Z" fill="#888" fill-opacity="0.18" stroke="#000" stroke-width="1"/>
  <path d="M553.649361 48.422260 L563.658392 83.545729 L556.683144 82.724590 L568.744135 112.432088 L557.583738 111.118266 L582.200177 142.303814 L551.509084 138.690804 L548.881441 161.011599 L532.140845 159.040866 L534.768488 136.720071 L504.077396 133.107062 L535.262944 108.490623 L524.102546 107.176801 L542.732647 81.082313 L535.757399 80.261174 Z" fill="#888" fill-opacity="0.18" stroke="#000" stroke-width="1"/>
  <path d="M41.966555 342.428312 L68.320229 367.713143 L61.882561 370.521130 L87.277379 390.094229 L76.977110 394.587008 L113.959730 409.105730 L85.633992 421.460874 L94.619551 442.061411 L79.169148 448.800580 L70.183589 428.200043 L41.857851 440.555187 L56.376573 403.572567 L46.076305 408.065347 L49.007225 376.137104 L42.569558 378.945091 Z" fill="#888" fill-opacity="0.18" stroke="#000" stroke-width="1"/>
  <path d="M911.248358 318.404394 L909.426088 354.880662 L903.085794 351.859233 L904.948725 383.867552 L894.804255 379.033266 L908.079715 416.480156 L880.182422 403.185870 L870.513850 423.474810 L855.297145 416.223381 L864.965717 395.934441 L837.068424 382.640154 L874.515315 369.364694 L864.370845 364.530408 L890.405206 345.816376 L884.064912 342.794947 Z" fill="#888" fill-opacity="0.18" stroke="#000" stroke-width="1"/>
  <path d="M337.123920 874.389803 L332.284873 838.190046 L339.068783 840.008541 L331.418159 808.872213 L342.272415 811.781804 L322.410753 777.372186 L352.259957 785.373562 L358.079139 763.665050 L374.360524 768.029436 L368.541341 789.737948 L398.390545 797.739324 L363.980927 817.600986 L374.835184 820.510577 L352.636604 843.645530 L359.420514 845.464024 Z" fill="#888" fill-opacity="0.18" stroke="#000" stroke-width="1"/>
  <path d="M377.288633 747.014456 L341.028893 742.647527 L344.486021 736.533884 L312.425770 736.155386 L317.957174 726.373558 L279.674093 736.999616 L294.885456 710.099590 L275.321800 699.036780 L283.618907 684.364038 L303.182563 695.426848 L318.393925 668.526821 L329.019984 706.809902 L334.551388 697.028074 L351.400277 724.306599 L354.857405 718.192957 Z" fill="#888" fill-opacity="0.18" stroke="#000" stroke-width="1"/>
  <path d="M201.413083 706.193310 L166.588919 695.188022 L171.118272 689.820218 L139.682480 683.511973 L146.929445 674.923487 L107.340818 678.277289 L127.269972 654.658953 L110.093000 640.165022 L120.963448 627.282293 L138.140420 641.776224 L158.069574 618.157887 L161.423376 657.746515 L168.670341 649.158029 L180.176979 679.084610 L184.706332 673.716807 Z" fill="#888" fill-opacity="0.18" stroke="#000" stroke-width="1"/>
  <path d="M629.922549 706.670774 L639.355431 671.388206 L644.920910 675.672340 L649.813389 643.985329 L658.718156 650.839943 L653.592772 611.441493 L678.080880 630.291679 L691.790107 612.482145 L705.147257 622.764065 L691.438031 640.573599 L715.926139 659.423785 L676.527689 664.549169 L685.432456 671.403783 L656.051868 684.240606 L661.617348 688.524740 Z" fill="#888" fill-opacity="0.18" stroke="#000" stroke-width="1"/>
  <path d="M518.341748 710.179579 L494.757669 682.293561 L501.452234 680.169613 L478.228400 658.064037 L488.939704 654.665721 L453.665653 636.383251 L483.121740 627.037881 L476.325107 605.615272 L492.392064 600.517798 L499.188696 621.940407 L528.644783 612.595037 L510.362313 647.869089 L521.073617 644.470772 L514.841364 675.921718 L521.535930 673.797771 Z" fill="#888" fill-opacity="0.18" stroke="#000" stroke-width="1"/>
  <path d="M847.385856 711.477105 L876.217209 689.058545 L878.064339 695.834714 L901.105331 673.538624 L904.060738 684.380495 L923.776898 649.887300 L931.904267 679.702445 L953.588009 673.791631 L958.021120 690.054437 L936.337378 695.965251 L944.464747 725.780396 L909.971553 706.064237 L912.926960 716.906107 L881.758598 709.387053 L883.605727 716.163222 Z" fill="#888" fill-opacity="0.18" stroke="#000" stroke-width="1"/>
  <path d="M319.743352 804.293535 L325.765089 840.315437 L318.925274 838.720043 L327.591290 869.589172 L316.647585 867.036541 L337.625269 900.777380 L307.530081 893.757645 L302.424819 915.645054 L286.009262 911.816107 L291.114524 889.928698 L261.019337 882.908963 L294.760176 861.931279 L283.816471 859.378648 L305.245643 835.529254 L298.405828 833.933860 Z" fill="#888" fill-opacity="0.18" stroke="#000" stroke-width="1"/>
  <path d="M46.257462 1055.628494 L45.945659 1019.108067 L52.451637 1021.753932 L48.721947 989.909115 L59.131512 994.142500 L43.691061 957.535125 L72.317365 969.176933 L80.784134 948.357802 L96.398482 954.707879 L87.931713 975.527010 L116.558018 987.168818 L79.950643 1002.609269 L90.360208 1006.842654 L65.463594 1027.045663 L71.969572 1029.691528 Z" fill="#888" fill-opacity="0.18" stroke="#000" stroke-width="1"/>
  <path d="M859.239372 891.584537 L887.707541 914.462521 L881.540726 917.823883 L908.553168 935.096143 L898.686265 940.474323 L936.798973 951.696131 L909.664990 966.486126 L920.421350 986.219932 L905.620995 994.287202 L894.864635 974.553396 L867.730652 989.343391 L878.952459 951.230683 L869.085556 956.608863 L869.207098 924.546608 L863.040283 927.907971 Z" fill="#888" fill-opacity="0.18" stroke="#000" stroke-width="1"/>
  <path d="M424.862929 611.736588 L396.381060 634.597513 L394.429555 627.850663 L371.735467 650.499755 L368.613058 639.704795 L349.431680 674.498216 L340.845056 644.812076 L319.255136 651.056893 L314.571524 634.864454 L336.161443 628.619636 L327.574820 598.933497 L362.368241 618.114875 L359.245833 607.319915 L390.526544 614.356963 L388.575039 607.610113 Z" fill="#888" fill-opacity="0.18" stroke="#000" stroke-width="1"/>
  <path d="M360.389193 43.728657 L334.715667 69.703816 L332.003622 63.225146 L312.055442 88.326403 L307.716169 77.960530 L292.649671 114.723393 L280.716670 86.217245 L259.984926 94.895790 L253.476016 79.346982 L274.207761 70.668436 L262.274760 42.162288 L299.037623 57.228786 L294.698350 46.862914 L326.579531 50.267806 L323.867485 43.789136 Z" fill="#888" fill-opacity="0.18" stroke="#000" stroke-width="1"/>
  <path d="M54.174604 492.760547 L85.004877 512.339440 L79.248988 516.364127 L108.010689 530.533372 L98.801267 536.972870 L137.923569 543.897679 L112.597658 561.606300 L125.476655 580.025144 L111.662522 589.684392 L98.783525 571.265548 L73.457614 588.974168 L80.382423 549.851867 L71.173001 556.291365 L67.737210 524.413500 L61.981322 528.438186 Z" fill="#888" fill-opacity="0.18" stroke="#000" stroke-width="1"/>
  <path d="M633.271191 705.663799 L645.081599 740.223213 L638.073241 739.763565 L651.653039 768.808222 L640.439666 768.072786 L666.634508 797.944808 L635.797733 795.922359 L634.326861 818.349104 L617.506802 817.245950 L618.977674 794.819204 L588.140899 792.796755 L618.012921 766.601914 L606.799548 765.866478 L624.056525 738.844270 L617.048167 738.384623 Z" fill="#888" fill-opacity="0.18" stroke="#000" stroke-width="1"/>
  <path d="M502.025727 191.380244 L473.103864 169.078570 L479.201932 165.594044 L451.848077 148.867730 L461.604986 143.292488 L423.274608 132.838321 L450.106107 117.506405 L438.955623 97.992588 L453.590986 89.629724 L464.741471 109.143542 L491.572970 93.811625 L481.118804 132.142003 L490.875712 126.566761 L491.398068 158.624991 L497.496136 155.140464 Z" fill="#888" fill-opacity="0.18" stroke="#000" stroke-width="1"/>
  <path d="M689.361666 240.486889 L655.569223 226.633745 L660.527802 221.659727 L629.722857 212.768250 L637.656583 204.809822 L597.926197 204.871577 L619.743944 182.985899 L603.827087 167.118446 L615.727677 155.180804 L631.644534 171.048257 L653.462281 149.162579 L653.524036 188.892965 L661.457762 180.934537 L670.444959 211.711692 L675.403538 206.737674 Z" fill="#888" fill-opacity="0.18" stroke="#000" stroke-width="1"/>
  <path d="M445.049606 114.729300 L408.855224 119.608394 L410.666212 112.822476 L379.538368 120.507543 L382.435948 109.650074 L348.048325 129.549793 L356.016673 99.691755 L334.301736 93.896594 L338.648107 77.610391 L360.363044 83.405553 L368.331391 53.547514 L388.231110 87.935138 L391.128691 77.077669 L414.288188 99.250640 L416.099176 92.464722 Z" fill="#888" fill-opacity="0.18" stroke="#000" stroke-width="1"/>
  <path d="M173.011260 902.523851 L174.193600 866.021236 L180.585903 868.931017 L178.161958 836.960288 L188.389643 841.615937 L174.459553 804.407604 L202.585686 817.210638 L211.896983 796.755269 L227.238510 803.738742 L217.927213 824.194111 L246.053345 836.997145 L208.845012 850.927234 L219.072697 855.582883 L193.370509 874.750578 L199.762811 877.660358 Z" fill="#888" fill-opacity="0.18" stroke="#000" stroke-width="1"/>
  <path d="M161.004857 800.103473 L164.512988 836.456352 L157.800337 834.390275 L164.303859 865.786248 L153.563618 862.480525 L172.149912 897.595438 L142.614248 888.504697 L136.002800 909.985180 L119.892438 905.026594 L126.503886 883.546111 L96.968222 874.455371 L132.083135 855.869077 L121.342894 852.563353 L144.375035 830.258120 L137.662384 828.192042 Z" fill="#888" fill-opacity="0.18" stroke="#000" stroke-width="1"/>
  <path d="M546.098484 299.144397 L547.214029 335.649114 L540.651391 333.147086 L545.081086 364.902098 L534.580865 360.898855 L550.823309 397.157515 L521.947701 386.148596 L513.941215 407.149038 L498.190883 401.144172 L506.197370 380.143731 L477.321763 369.134811 L513.580424 352.892368 L503.080203 348.889124 L527.526115 328.143032 L520.963477 325.641005 Z" fill="#888" fill-opacity="0.18" stroke="#000" stroke-width="1"/>
  <path d="M461.843074 171.110957 L487.964055 196.636105 L481.500938 199.385010 L506.715417 219.189884 L496.374431 223.588133 L533.222520 238.444976 L504.784807 250.540161 L513.581306 271.222134 L498.069826 277.819508 L489.273328 257.137535 L460.835615 269.232720 L475.692458 232.384631 L465.351472 236.782880 L468.574705 204.882822 L462.111589 207.631727 Z" fill="#888" fill-opacity="0.18" stroke="#000" stroke-width="1"/>
  <path d="M936.522929 512.115158 L907.980109 489.330377 L914.135900 485.948870 L887.067128 468.765023 L896.916394 463.354611 L858.767199 452.257479 L885.852679 437.378844 L875.031853 417.680313 L889.805751 409.564694 L900.626577 429.263225 L927.712057 414.384590 L916.614925 452.533785 L926.464190 447.123373 L926.447482 479.185854 L932.603273 475.804346 Z" fill="#888" fill-opacity="0.18" stroke="#000" stroke-width="1"/>
  <path d="M126.909190 343.037902 L152.608274 317.088029 L155.313940 323.569365 L175.286821 298.487758 L179.615887 308.857897 L194.718568 272.109884 L206.623501 300.627766 L227.363778 291.969633 L233.857378 307.524841 L213.117101 316.182974 L225.022033 344.700856 L188.274020 329.598175 L192.603087 339.968314 L160.725273 336.532039 L163.430940 343.013376 Z" fill="#888" fill-opacity="0.18" stroke="#000" stroke-width="1"/>
  <path d="M70.748920 495.957573 L106.976209 491.329145 L105.118290 498.102364 L136.298587 490.632958 L133.325917 501.470109 L167.850469 481.808908 L159.675625 511.611072 L181.349926 517.556412 L176.890921 533.812138 L155.216620 527.866797 L147.041777 557.668961 L127.380577 523.144409 L124.407906 533.981559 L101.402452 511.648802 L99.544533 518.422021 Z" fill="#888" fill-opacity="0.18" stroke="#000" stroke-width="1"/>
  <path d="M46.025771 343.779677 L60.906832 310.427124 L65.726733 315.535637 L75.557003 285.017302 L83.268846 293.190923 L84.423293 253.477265 L105.630859 275.954723 L121.978102 260.531038 L133.545865 272.791470 L117.198623 288.215155 L138.406189 310.692613 L98.692530 309.538166 L106.404372 317.711787 L75.366536 325.752663 L80.186438 330.861177 Z" fill="#888" fill-opacity="0.18" stroke="#000" stroke-width="1"/>
  <path d="M265.647083 451.556187 L253.524101 417.105176 L260.536335 417.501319 L246.693993 388.580868 L257.913567 389.214697 L231.449203 359.581188 L262.303034 361.324217 L263.570692 338.885068 L280.400054 339.835812 L279.132396 362.274961 L309.986226 364.017991 L280.352717 390.482355 L291.572291 391.116184 L274.560804 418.293606 L281.573038 418.689749 Z" fill="#888" fill-opacity="0.18" stroke="#000" stroke-width="1"/>
  <path d="M107.793318 495.367695 L118.970535 460.598332 L124.315894 465.154151 L130.779383 433.749911 L139.331957 441.039223 L136.173800 401.434508 L159.693380 421.480114 L174.272003 404.374965 L187.100865 415.308933 L172.522242 432.414082 L196.041822 452.459689 L156.437106 455.617846 L164.989681 462.907158 L135.006612 474.265791 L140.351971 478.821610 Z" fill="#888" fill-opacity="0.18" stroke="#000" stroke-width="1"/>
  <path d="M531.501943 616.523920 L567.376059 623.371297 L563.507138 629.233021 L595.465659 631.812916 L589.275385 641.191674 L628.197965 633.220467 L611.174710 659.012050 L629.932225 671.392599 L620.646813 685.460736 L601.889298 673.080186 L584.866042 698.871770 L576.894835 659.949189 L570.704560 669.327946 L555.769294 640.956468 L551.900373 646.818191 Z" fill="#888" fill-opacity="0.18" stroke="#000" stroke-width="1"/>
  <path d="M879.493603 885.286682 L902.932116 857.278203 L906.170417 863.510518 L923.975417 836.846217 L929.156699 846.817922 L941.132756 808.935453 L955.381283 836.357642 L975.324694 825.995077 L983.096618 840.952635 L963.153207 851.315200 L977.401734 878.737389 L939.519265 866.761333 L944.700547 876.733038 L912.647021 875.975150 L915.885322 882.207466 Z" fill="#888" fill-opacity="0.18" stroke="#000" stroke-width="1"/>
  <path d="M62.578502 1040.845862 L89.308458 1015.959155 L91.749149 1022.544850 L112.722411 998.293556 L116.627517 1008.830669 L133.207534 972.725123 L143.946575 1001.702183 L165.020800 993.891972 L170.878459 1009.697641 L149.804233 1017.507852 L160.543274 1046.484912 L124.437728 1029.904894 L128.342833 1040.442007 L96.630531 1035.716241 L99.071222 1042.301936 Z" fill="#888" fill-opacity="0.18" stroke="#000" stroke-width="1"/>
  <path d="M302.022754 388.153767 L325.674243 415.982635 L318.984837 418.122776 L342.262094 440.172091 L331.559044 443.596316 L366.877232 461.793377 L337.443845 471.209997 L344.292296 492.616097 L328.237721 497.752435 L321.389270 476.346335 L291.955883 485.762955 L310.152944 450.444767 L299.449895 453.868992 L305.606025 422.403058 L298.916618 424.543199 Z" fill="#888" fill-opacity="0.18" stroke="#000" stroke-width="1"/>
  <path d="M327.048861 756.934046 L309.949569 789.205597 L305.485632 783.783271 L293.616988 813.568137 L286.474688 804.892415 L282.641131 844.437469 L262.999808 820.579233 L245.648364 834.863831 L234.934915 821.850248 L252.286359 807.565649 L232.645036 783.707413 L272.190090 787.540971 L265.047790 778.865248 L296.557758 772.938618 L292.093820 767.516292 Z" fill="#888" fill-opacity="0.18" stroke="#000" stroke-width="1"/>
  <path d="M53.657895 70.053698 L87.087959 84.759806 L82.004770 89.606407 L112.574191 99.276643 L104.441087 107.031205 L144.160250 107.977559 L121.794216 129.302603 L137.303339 145.568810 L125.103684 157.200652 L109.594561 140.934446 L87.228527 162.259490 L88.174881 122.540328 L80.041777 130.294890 L71.838390 99.299609 L66.755201 104.146210 Z" fill="#888" fill-opacity="0.18" stroke="#000" stroke-width="1"/>
  <path d="M754.764556 671.180107 L732.612624 642.143394 L739.405527 640.358784 L717.322702 617.113315 L728.191347 614.257940 L693.881297 594.224768 L723.770069 586.372486 L718.059318 564.635197 L734.362284 560.352134 L740.073035 582.089422 L769.961807 574.237140 L749.928635 608.547189 L760.797279 605.691813 L752.991332 636.789565 L759.784235 635.004955 Z" fill="#888" fill-opacity="0.18" stroke="#000" stroke-width="1"/>
  <path d="M600.987936 495.042264 L611.886344 529.900025 L604.892481 529.256417 L617.704548 558.647808 L606.514367 557.618035 L631.915388 588.167922 L601.142389 585.336046 L599.082843 607.716409 L582.297571 606.171750 L584.357116 583.791386 L553.584117 580.959511 L584.134004 555.558489 L572.943822 554.528716 L590.904754 527.969200 L583.910891 527.325592 Z" fill="#888" fill-opacity="0.18" stroke="#000" stroke-width="1"/>
  <path d="M947.668886 655.143613 L983.156227 646.513004 L982.063485 653.450891 L1012.219065 642.558510 L1010.470677 653.659129 L1042.593194 630.278552 L1037.785127 660.805253 L1059.986364 664.302029 L1057.363782 680.952957 L1035.162545 677.456181 L1030.354478 707.982883 L1006.973901 675.860366 L1005.225513 686.960985 L979.878000 667.326664 L978.785257 674.264551 Z" fill="#888" fill-opacity="0.18" stroke="#000" stroke-width="1"/>
  <path d="M223.775757 718.792318 L200.919012 747.277542 L197.553051 741.113236 L180.300943 768.138553 L174.915405 758.275664 L163.722027 796.396731 L148.911798 769.273786 L129.186020 780.044861 L121.107713 765.250528 L140.833491 754.479453 L126.023263 727.356508 L164.144329 738.549886 L158.758792 728.686997 L190.821129 728.784625 L187.455167 722.620320 Z" fill="#888" fill-opacity="0.18" stroke="#000" stroke-width="1"/>
  <path d="M436.201505 613.141807 L450.658589 579.603299 L455.542859 584.650305 L464.985485 554.009812 L472.800317 562.085020 L473.451257 522.359918 L494.942046 544.566741 L511.092462 528.937076 L522.814711 541.049888 L506.664295 556.679553 L528.155084 578.886376 L488.429982 578.235437 L496.244815 586.310645 L465.311400 594.744315 L470.195670 599.791320 Z" fill="#888" fill-opacity="0.18" stroke="#000" stroke-width="1"/>
</svg>
