<?xml version="1.0" encoding="UTF-8"?>
<svg xmlns="http://www.w3.org/2000/svg" width="1100" height="1100" viewBox="0 0 1100 1100">
  <rect x="0" y="0" width="1100" height="1100" fill="white"/>
  <text x="10.0" y="18.0" font-family="monospace" font-size="12">prefix=N119_job5048520_task119 run_id=119 L=9.52799913626 feas=0.000e+00 N=119</text>
  <rect x="40.000000" y="40.000000" width="1020.000000" height="1020.000000" fill="none" stroke="#000" stroke-width="2"/>
  <path d="M432.436933 160.527881 L466.991195 164.589877 L463.714342 170.423326 L494.257215 170.697151 L489.014250 180.030669 L525.455458 169.804285 L511.037305 195.471461 L529.704342 205.957390 L521.839895 219.957668 L503.172858 209.471738 L488.754705 235.138914 L478.528320 198.697706 L473.285355 208.031225 L457.160636 182.090225 L453.883783 187.923674 Z" fill="#888" fill-opacity="0.18" stroke="#000" stroke-width="1"/>
  <path d="M751.122900 916.771567 L785.897528 915.666107 L783.521676 921.920883 L813.767654 917.663786 L809.966290 927.671427 L844.488802 912.155733 L834.035052 939.676746 L854.050334 947.279474 L848.348289 962.290936 L828.333007 954.688208 L817.879256 982.209221 L802.363563 947.686709 L798.562199 957.694350 L778.769971 934.430434 L776.394119 940.685210 Z" fill="#888" fill-opacity="0.18" stroke="#000" stroke-width="1"/>
  <path d="M560.569130 1026.006829 L526.176531 1031.264767 L527.787000 1024.770671 L498.267584 1032.615803 L500.844335 1022.225250 L468.426073 1041.759755 L475.512140 1013.185733 L454.731033 1008.032230 L458.596160 992.446400 L479.377267 997.599903 L486.463333 969.025881 L505.997838 1001.444143 L508.574589 991.053590 L531.007940 1011.782479 L532.618409 1005.288383 Z" fill="#888" fill-opacity="0.18" stroke="#000" stroke-width="1"/>
  <path d="M548.273694 99.380586 L576.371877 78.862572 L577.935860 85.368020 L600.516888 64.800102 L603.019261 75.208819 L622.785120 42.931095 L629.666645 71.555065 L650.484078 66.550319 L654.237638 82.163394 L633.420205 87.168140 L640.301730 115.792110 L608.024007 96.026252 L610.526380 106.434968 L581.063826 98.378915 L582.627809 104.884363 Z" fill="#888" fill-opacity="0.18" stroke="#000" stroke-width="1"/>
  <path d="M637.495684 598.507493 L641.399211 633.080015 L634.973354 631.215809 L641.653416 661.020488 L631.372046 658.037759 L649.618649 691.198007 L621.344881 682.995502 L615.379423 703.558243 L599.957367 699.084149 L605.922825 678.521409 L577.649057 670.318904 L610.809305 652.072301 L600.527935 649.089572 L622.121641 627.487398 L615.695785 625.623193 Z" fill="#888" fill-opacity="0.18" stroke="#000" stroke-width="1"/>
  <path d="M501.907786 404.394635 L527.174751 428.312771 L521.060070 431.028938 L545.377038 449.512096 L535.593548 453.857964 L570.916943 467.452021 L544.012344 479.403157 L552.704079 498.970137 L538.028844 505.488939 L529.337109 485.921958 L502.432510 497.873094 L516.026567 462.549699 L506.243077 466.895567 L508.830707 436.461273 L502.716026 439.177440 Z" fill="#888" fill-opacity="0.18" stroke="#000" stroke-width="1"/>
  <path d="M44.984947 759.837124 L73.208879 780.181815 L67.509826 783.687196 L94.069264 798.771569 L84.950780 804.380178 L121.768513 813.154866 L96.692682 828.578540 L107.909900 846.815509 L94.232173 855.228422 L83.014955 836.991454 L57.939124 852.415129 L66.713812 815.597396 L57.595328 821.206005 L56.111721 790.697957 L50.412668 794.203338 Z" fill="#888" fill-opacity="0.18" stroke="#000" stroke-width="1"/>
  <path d="M804.406177 238.767837 L769.694023 241.126481 L771.842796 234.790104 L741.769989 240.135042 L745.208026 229.996839 L711.267428 246.747254 L720.722028 218.867197 L700.445623 211.991124 L705.602678 196.783820 L725.879083 203.659893 L735.333684 175.779836 L752.084099 209.720434 L755.522136 199.582231 L776.140342 222.117351 L778.289115 215.780974 Z" fill="#888" fill-opacity="0.18" stroke="#000" stroke-width="1"/>
  <path d="M386.004691 471.298609 L358.256317 492.287285 L356.582911 485.809122 L334.351749 506.754706 L331.674300 496.389644 L312.455268 528.995923 L305.092282 500.492002 L284.362158 505.846902 L280.345983 490.299309 L301.076108 484.944409 L293.713121 456.440489 L326.319400 475.659520 L323.641951 465.294458 L353.236099 472.852794 L351.562693 466.374630 Z" fill="#888" fill-opacity="0.18" stroke="#000" stroke-width="1"/>
  <path d="M767.150839 321.127300 L792.370789 297.159594 L794.760031 303.409268 L814.502394 280.103020 L818.325180 290.102498 L833.766909 255.546838 L844.279571 283.045402 L864.278526 275.399830 L870.012705 290.399046 L850.013750 298.044618 L860.526412 325.543182 L825.970752 310.101453 L829.793539 320.100931 L799.538513 315.908615 L801.927755 322.158288 Z" fill="#888" fill-opacity="0.18" stroke="#000" stroke-width="1"/>
  <path d="M285.921560 437.042515 L310.906251 412.829667 L313.356410 419.055711 L332.870235 395.557781 L336.790488 405.519451 L351.894028 370.814643 L362.674726 398.209234 L382.598065 390.368727 L388.478445 405.311231 L368.555106 413.151738 L379.335803 440.546329 L344.630996 425.442790 L348.551249 435.404459 L318.256727 431.507798 L320.706885 437.733841 Z" fill="#888" fill-opacity="0.18" stroke="#000" stroke-width="1"/>
  <path d="M1017.370305 930.168596 L990.459133 908.116711 L996.364140 904.970637 L970.788825 888.271973 L980.236837 883.238253 L944.032510 872.202524 L970.014541 858.359796 L959.947102 839.463773 L974.119119 831.913194 L984.186558 850.809216 L1010.168588 836.966488 L999.132859 873.170814 L1008.580870 868.137095 L1008.174154 898.678487 L1014.079161 895.532413 Z" fill="#888" fill-opacity="0.18" stroke="#000" stroke-width="1"/>
  <path d="M892.529496 421.489171 L865.446021 443.329093 L863.572327 436.905997 L842.002068 458.531583 L839.004158 448.254629 L820.806548 481.441789 L812.562296 453.180166 L792.008388 459.175985 L787.511523 443.760554 L808.065431 437.764734 L799.821179 409.503111 L833.008338 427.700721 L830.010429 417.423767 L859.824940 424.059804 L857.951246 417.636708 Z" fill="#888" fill-opacity="0.18" stroke="#000" stroke-width="1"/>
  <path d="M52.460655 240.851290 L77.670950 264.829152 L71.549858 267.530842 L95.823019 286.071492 L86.029272 290.394195 L121.320399 304.071804 L94.387594 315.959239 L103.033002 335.546733 L88.342381 342.030788 L79.696974 322.443294 L52.764169 334.330729 L66.441778 299.039603 L56.648031 303.362306 L59.307674 272.934221 L53.186582 275.635911 Z" fill="#888" fill-opacity="0.18" stroke="#000" stroke-width="1"/>
  <path d="M530.819669 345.962718 L496.106594 348.307765 L498.257848 341.972231 L468.182950 347.305388 L471.624958 337.168533 L437.677801 353.905653 L447.143321 326.029301 L426.869611 319.145286 L432.032622 303.940003 L452.306332 310.824018 L461.771853 282.947666 L478.508972 316.894823 L481.950980 306.757967 L502.560358 329.301162 L504.711612 322.965627 Z" fill="#888" fill-opacity="0.18" stroke="#000" stroke-width="1"/>
  <path d="M225.285339 492.619435 L192.536657 480.871215 L197.044380 475.926791 L167.349693 468.773634 L174.562049 460.862555 L136.753462 462.609362 L156.587441 440.853896 L140.765284 426.429183 L151.583818 414.562565 L167.405975 428.987277 L187.239954 407.231811 L188.986761 445.040398 L196.199117 437.129319 L206.059825 466.037942 L210.567547 461.093518 Z" fill="#888" fill-opacity="0.18" stroke="#000" stroke-width="1"/>
  <path d="M246.169054 85.099459 L216.819419 103.783564 L215.673545 97.191609 L191.826649 116.277405 L189.993251 105.730278 L168.208928 136.681592 L163.167083 107.676991 L142.072828 111.343788 L139.322730 95.523097 L160.416985 91.856300 L155.375140 62.851700 L186.326454 84.636023 L184.493056 74.088895 L213.381797 84.007700 L212.235923 77.415745 Z" fill="#888" fill-opacity="0.18" stroke="#000" stroke-width="1"/>
  <path d="M1008.810743 576.737823 L974.672674 583.452661 L976.005696 576.895989 L946.846360 585.988579 L948.979195 575.497904 L917.420419 596.392503 L923.285716 567.543147 L902.304366 563.277477 L905.503619 547.541464 L926.484969 551.807135 L932.350266 522.957778 L953.244865 554.516554 L955.377701 544.025879 L978.671740 563.782645 L980.004762 557.225973 Z" fill="#888" fill-opacity="0.18" stroke="#000" stroke-width="1"/>
  <path d="M716.507548 785.958294 L692.399680 811.044296 L689.729669 804.909319 L671.063785 829.086308 L666.791768 819.270345 L652.931902 854.490293 L641.183857 827.496395 L621.551932 836.040427 L615.143908 821.316483 L634.775833 812.772451 L623.027789 785.778553 L658.247736 799.638420 L653.975720 789.822457 L684.389649 792.639365 L681.719639 786.504389 Z" fill="#888" fill-opacity="0.18" stroke="#000" stroke-width="1"/>
  <path d="M378.213542 824.034313 L383.920390 858.355279 L377.405806 856.829796 L385.635957 886.244192 L375.212624 883.803419 L395.169024 915.963685 L366.504858 909.251559 L361.623311 930.098225 L345.988312 926.437065 L350.869858 905.590399 L322.205692 898.878273 L354.365957 878.921873 L343.942624 876.481100 L364.376640 853.778830 L357.862057 852.253347 Z" fill="#888" fill-opacity="0.18" stroke="#000" stroke-width="1"/>
  <path d="M953.377754 267.713293 L988.124317 265.931969 L985.870517 272.231753 L1016.028013 267.387432 L1012.421932 277.467086 L1046.636270 261.283153 L1036.719547 289.002202 L1056.878855 296.214364 L1051.469734 311.333845 L1031.310425 304.121683 L1021.393702 331.840732 L1005.209770 297.626394 L1001.603689 307.706048 L981.362915 284.831321 L979.109114 291.131104 Z" fill="#888" fill-opacity="0.18" stroke="#000" stroke-width="1"/>
  <path d="M405.446120 829.341844 L371.654394 821.058365 L375.624222 815.672517 L345.347208 811.642070 L351.698933 803.024713 L314.276229 808.688793 L331.743472 784.991062 L314.508759 772.287612 L324.036346 759.361576 L341.271060 772.065026 L358.738304 748.367295 L364.402383 785.790000 L370.754108 777.172643 L383.563878 804.900821 L387.533706 799.514973 Z" fill="#888" fill-opacity="0.18" stroke="#000" stroke-width="1"/>
  <path d="M113.650275 143.875486 L148.337338 141.172804 L146.251493 147.530173 L176.269829 141.887340 L172.932477 152.059131 L206.705334 134.973034 L197.527616 162.945459 L217.871198 169.620163 L212.865170 184.877849 L192.521588 178.203145 L183.343870 206.175570 L166.257773 172.402713 L162.920421 182.574504 L142.079803 160.244911 L139.993958 166.602281 Z" fill="#888" fill-opacity="0.18" stroke="#000" stroke-width="1"/>
  <path d="M826.967834 491.451978 L861.755337 492.023299 L859.080879 498.156338 L889.496843 495.361485 L885.217710 505.174347 L920.447698 491.340024 L908.680082 518.325395 L928.305807 526.883662 L921.887107 541.602955 L902.261383 533.044689 L890.493767 560.030061 L876.659444 524.800072 L872.380310 534.612934 L853.731963 510.422416 L851.057504 516.555455 Z" fill="#888" fill-opacity="0.18" stroke="#000" stroke-width="1"/>
  <path d="M335.476947 925.844767 L369.483848 933.195110 L365.663750 938.688174 L396.040219 941.883826 L389.928062 950.672728 L427.180707 943.980866 L410.372276 968.150345 L427.950079 980.374658 L418.781844 993.558010 L401.204041 981.333697 L384.395610 1005.503176 L377.703748 968.250530 L371.591591 977.039432 L358.023554 949.674300 L354.203456 955.167364 Z" fill="#888" fill-opacity="0.18" stroke="#000" stroke-width="1"/>
  <path d="M772.343561 790.744351 L805.864972 800.061639 L801.731621 805.323037 L831.870583 810.281364 L825.257222 818.699600 L862.836216 814.187412 L844.649473 837.337562 L861.485946 850.564284 L851.565905 863.191638 L834.729432 849.964916 L816.542689 873.115067 L812.030500 835.536073 L805.417139 843.954310 L793.464920 815.845832 L789.331569 821.107230 Z" fill="#888" fill-opacity="0.18" stroke="#000" stroke-width="1"/>
  <path d="M999.262191 683.377597 L975.008895 708.323025 L972.374595 702.172631 L953.568474 726.240698 L949.353595 716.400066 L935.289214 751.538845 L923.698295 724.477107 L904.017031 732.906866 L897.694712 718.145918 L917.375976 709.716159 L905.785057 682.654421 L940.923836 696.718802 L936.708956 686.878170 L967.105996 689.871841 L964.471696 683.721446 Z" fill="#888" fill-opacity="0.18" stroke="#000" stroke-width="1"/>
  <path d="M764.851185 738.284813 L785.873040 710.561566 L789.239456 716.343793 L804.962247 690.157233 L810.348512 699.408795 L820.011755 662.814228 L834.823983 688.256024 L853.327107 677.483494 L861.406504 691.360837 L842.903380 702.133367 L857.715608 727.575162 L821.121041 717.911919 L826.507306 727.163481 L795.972287 727.908245 L799.338702 733.690471 Z" fill="#888" fill-opacity="0.18" stroke="#000" stroke-width="1"/>
  <path d="M362.952144 511.475071 L387.674391 535.955825 L381.500127 538.533683 L405.394940 557.559454 L395.516117 561.684026 L430.524606 576.069653 L403.357842 587.412228 L411.606987 607.169874 L396.788752 613.356733 L388.539607 593.599087 L361.372843 604.941661 L375.758470 569.933172 L365.879647 574.057744 L369.151597 543.689399 L362.977333 546.267256 Z" fill="#888" fill-opacity="0.18" stroke="#000" stroke-width="1"/>
  <path d="M1051.450254 764.673496 L1023.478697 785.363804 L1021.874764 778.868090 L999.420564 799.574394 L996.854271 789.181252 L977.287152 821.579840 L970.229844 792.998701 L949.443562 798.131288 L945.594121 782.541577 L966.380404 777.408989 L959.323096 748.827851 L991.721683 768.394970 L989.155390 758.001829 L1018.666897 765.876664 L1017.062963 759.380951 Z" fill="#888" fill-opacity="0.18" stroke="#000" stroke-width="1"/>
  <path d="M490.755346 667.773283 L514.826057 692.894940 L508.586214 695.309737 L531.973056 714.956560 L521.989306 718.820234 L556.607868 734.120424 L529.152555 744.745528 L536.879903 764.713029 L521.904278 770.508540 L514.176929 750.541040 L486.721616 761.166145 L502.021806 726.547583 L492.038055 730.411258 L496.106526 700.139330 L489.866682 702.554126 Z" fill="#888" fill-opacity="0.18" stroke="#000" stroke-width="1"/>
  <path d="M902.997705 594.516096 L912.500500 627.985391 L905.856335 627.196738 L917.318885 655.508432 L906.688222 654.246587 L930.110268 683.977856 L900.875945 680.507783 L898.352255 701.769109 L882.406261 699.876342 L884.929950 678.615016 L855.695627 675.144943 L885.426896 651.722897 L874.796233 650.461053 L892.568007 625.619432 L885.923842 624.830779 Z" fill="#888" fill-opacity="0.18" stroke="#000" stroke-width="1"/>
  <path d="M815.600068 267.900608 L787.445890 288.341721 L785.899700 281.832022 L763.262521 302.338122 L760.788616 291.922603 L740.934579 324.146163 L734.131341 295.503485 L713.300303 300.451294 L709.589446 284.828015 L730.420484 279.880206 L723.617246 251.237528 L755.840806 271.091564 L753.366902 260.676045 L782.807319 268.812622 L781.261129 262.302923 Z" fill="#888" fill-opacity="0.18" stroke="#000" stroke-width="1"/>
  <path d="M131.845986 244.600792 L166.479222 247.922804 L163.327886 253.825005 L193.869629 253.445508 L188.827491 262.889029 L225.041639 251.885571 L211.175760 277.855254 L230.062802 287.939530 L222.499595 302.104812 L203.612553 292.020536 L189.746674 317.990219 L178.743215 281.776072 L173.701077 291.219593 L157.025214 265.629406 L153.873878 271.531607 Z" fill="#888" fill-opacity="0.18" stroke="#000" stroke-width="1"/>
  <path d="M627.325284 588.336944 L600.324248 610.278706 L598.426379 603.862711 L576.937713 625.569376 L573.901122 615.303784 L555.828621 648.559239 L547.477997 620.328863 L526.946814 626.402045 L522.391928 611.003658 L542.923110 604.930476 L534.572486 576.700100 L567.827941 594.772602 L564.791350 584.507011 L594.630641 591.030722 L592.732772 584.614727 Z" fill="#888" fill-opacity="0.18" stroke="#000" stroke-width="1"/>
  <path d="M266.180041 986.861143 L300.965806 987.530006 L298.274162 993.655522 L328.697843 990.945966 L324.391211 1000.746791 L359.659853 987.011306 L347.816616 1013.963576 L367.418267 1022.576838 L360.958320 1037.278076 L341.356669 1028.664813 L329.513433 1055.617083 L315.777948 1020.348441 L311.471317 1030.149266 L292.890872 1005.906553 L290.199228 1012.032069 Z" fill="#888" fill-opacity="0.18" stroke="#000" stroke-width="1"/>
  <path d="M240.649844 505.087312 L229.490594 472.133284 L236.165809 472.589780 L223.306319 444.884626 L233.986664 445.615020 L209.111785 417.088173 L238.482735 419.096755 L239.943522 397.736065 L255.964040 398.831656 L254.503252 420.192346 L283.874202 422.200929 L255.347354 447.075807 L266.027700 447.806201 L249.516241 473.502773 L256.191457 473.959269 Z" fill="#888" fill-opacity="0.18" stroke="#000" stroke-width="1"/>
  <path d="M931.639959 232.913882 L942.090595 199.728328 L947.208546 204.038024 L953.187836 174.084891 L961.376557 180.980404 L958.143536 143.269819 L980.662519 162.232479 L994.453544 145.855037 L1006.736626 156.198306 L992.945601 172.575748 L1015.464584 191.538408 L977.753999 194.771429 L985.942721 201.666942 L957.444447 212.657414 L962.562398 216.967110 Z" fill="#888" fill-opacity="0.18" stroke="#000" stroke-width="1"/>
  <path d="M1006.569475 133.822988 L972.618399 141.427020 L973.779745 134.837773 L944.867798 144.688731 L946.725952 134.145937 L915.723582 155.857538 L920.833505 126.864854 L899.747916 123.148546 L902.535147 107.334355 L923.620735 111.050662 L928.730658 82.057978 L950.442260 113.060348 L952.300413 102.517554 L976.102438 121.659280 L977.263784 115.070034 Z" fill="#888" fill-opacity="0.18" stroke="#000" stroke-width="1"/>
  <path d="M1023.534228 667.895275 L988.772753 669.357001 L991.084390 663.078209 L960.883621 667.645004 L964.582240 657.598937 L930.220524 673.467556 L940.391727 645.840872 L920.299593 638.443634 L925.847522 623.374533 L945.939656 630.771771 L956.110859 603.145087 L971.979478 637.506803 L975.678098 627.460735 L995.707664 650.520626 L998.019301 644.241834 Z" fill="#888" fill-opacity="0.18" stroke="#000" stroke-width="1"/>
  <path d="M636.469646 913.416311 L607.247602 932.299345 L606.056978 925.715326 L582.340275 944.962664 L580.435276 934.428233 L558.861696 965.526806 L553.622950 936.557121 L532.554089 940.367118 L529.696591 924.565472 L550.765453 920.755475 L545.526707 891.785791 L576.625280 913.359372 L574.720281 902.824941 L603.675731 912.547287 L602.485107 905.963268 Z" fill="#888" fill-opacity="0.18" stroke="#000" stroke-width="1"/>
  <path d="M73.280602 674.113253 L61.824959 641.261083 L68.504016 641.657431 L55.395482 614.069238 L66.081973 614.703395 L40.951137 586.401775 L70.338988 588.145706 L71.607301 566.772724 L87.637038 567.723959 L86.368725 589.096941 L115.756575 590.840872 L87.454956 615.971708 L98.141447 616.605865 L81.862130 642.450127 L88.541187 642.846475 Z" fill="#888" fill-opacity="0.18" stroke="#000" stroke-width="1"/>
  <path d="M307.459746 976.591648 L283.775427 951.105380 L290.051416 948.786142 L266.967290 928.784512 L277.008871 925.073732 L242.627966 909.246730 L270.242315 899.042083 L262.820753 878.958921 L277.883125 873.392750 L285.304687 893.475912 L312.919035 883.271265 L297.092034 917.652170 L307.133615 913.941390 L302.603392 944.147666 L308.879381 941.828428 Z" fill="#888" fill-opacity="0.18" stroke="#000" stroke-width="1"/>
  <path d="M502.349422 270.345873 L515.397242 238.092948 L520.157538 242.794701 L528.491897 213.409661 L536.108371 220.932465 L535.874197 183.084272 L556.819499 203.771983 L571.865107 188.539036 L583.289817 199.823242 L568.244209 215.056189 L589.189511 235.743900 L551.341318 235.978073 L558.957791 243.500877 L529.678130 252.198206 L534.438426 256.899958 Z" fill="#888" fill-opacity="0.18" stroke="#000" stroke-width="1"/>
  <path d="M786.879291 179.623419 L757.276502 161.343056 L762.711092 157.440221 L735.143653 144.288097 L743.838998 138.043560 L706.489296 131.916540 L730.401493 114.744065 L717.912421 97.353376 L730.955438 87.986572 L743.444510 105.377261 L767.356707 88.204786 L761.229687 125.554488 L769.925031 119.309952 L773.580273 149.634550 L779.014863 145.731715 Z" fill="#888" fill-opacity="0.18" stroke="#000" stroke-width="1"/>
  <path d="M516.147646 45.325695 L503.224398 77.628736 L498.445992 72.945390 L490.225102 102.362376 L482.579652 94.869022 L482.959894 132.716030 L461.934907 112.109309 L446.948200 127.400209 L435.480025 116.160179 L450.466732 100.869279 L429.441745 80.262557 L467.288753 79.882316 L459.643303 72.388962 L488.889180 63.578698 L484.110773 58.895353 Z" fill="#888" fill-opacity="0.18" stroke="#000" stroke-width="1"/>
  <path d="M76.454871 988.526833 L111.233407 987.552030 L108.834072 993.797836 L139.095831 989.654404 L135.256894 999.647693 L169.837456 984.261811 L159.280382 1011.743355 L179.266959 1019.421227 L173.508555 1034.411160 L153.521978 1026.733288 L142.964904 1054.214832 L127.579022 1019.634270 L123.740086 1029.627558 L104.035402 1006.289446 L101.636067 1012.535252 Z" fill="#888" fill-opacity="0.18" stroke="#000" stroke-width="1"/>
  <path d="M964.512785 346.652960 L998.088518 355.772552 L993.986243 361.058216 L1024.153900 365.838856 L1017.590261 374.295917 L1055.142013 369.562364 L1037.092003 392.819281 L1054.006126 405.946561 L1044.160666 418.632152 L1027.246544 405.504873 L1009.196535 428.761791 L1004.462981 391.210039 L997.899342 399.667100 L985.781694 371.629542 L981.679419 376.915205 Z" fill="#888" fill-opacity="0.18" stroke="#000" stroke-width="1"/>
  <path d="M781.396109 581.606642 L793.951320 614.054500 L787.262706 613.883246 L801.292643 641.014463 L790.590859 640.740457 L816.660303 668.179931 L787.230398 667.426414 L786.682386 688.829981 L770.629711 688.418972 L771.177723 667.015405 L741.747819 666.261888 L769.187292 640.192445 L758.485509 639.918439 L773.885476 613.540739 L767.196862 613.369485 Z" fill="#888" fill-opacity="0.18" stroke="#000" stroke-width="1"/>
  <path d="M393.968667 622.273372 L428.301151 616.636232 L426.762442 623.147704 L456.193490 614.977302 L453.731556 625.395658 L485.932280 605.504606 L479.161960 634.155083 L499.998671 639.078952 L496.305769 654.706485 L475.469058 649.782616 L468.698738 678.433093 L448.807686 646.232368 L446.345752 656.650723 L423.685024 636.170648 L422.146315 642.682120 Z" fill="#888" fill-opacity="0.18" stroke="#000" stroke-width="1"/>
  <path d="M198.109360 707.058346 L215.415373 676.875591 L219.493228 682.180116 L231.740051 654.198740 L238.264618 662.685982 L243.171302 625.156459 L261.113863 648.496372 L278.088346 635.447237 L287.875197 648.178099 L270.900715 661.227234 L288.843276 684.567148 L251.313754 679.660464 L257.838322 688.147705 L227.648938 692.789168 L231.726793 698.093694 Z" fill="#888" fill-opacity="0.18" stroke="#000" stroke-width="1"/>
  <path d="M200.686034 779.903740 L235.218428 775.659859 L233.417609 782.103766 L263.155042 775.130448 L260.273730 785.440700 L293.252638 766.868349 L285.329032 795.221541 L305.949536 800.984164 L301.627569 816.449542 L281.007065 810.686919 L273.083459 839.040112 L254.511108 806.061204 L251.629796 816.371456 L229.815970 794.991581 L228.015150 801.435489 Z" fill="#888" fill-opacity="0.18" stroke="#000" stroke-width="1"/>
  <path d="M160.112940 318.618782 L185.139931 342.787905 L178.998446 345.442909 L203.129731 364.167843 L193.303354 368.415849 L228.489313 382.361776 L201.466776 394.043794 L209.962789 413.696548 L195.223223 420.068558 L186.727210 400.415804 L159.704673 412.097822 L173.650599 376.911863 L163.824222 381.159869 L166.715474 350.752917 L160.573988 353.407922 Z" fill="#888" fill-opacity="0.18" stroke="#000" stroke-width="1"/>
  <path d="M479.562265 740.965726 L446.988454 728.741014 L451.567827 723.862875 L421.980651 716.277289 L429.307648 708.472267 L391.477601 709.667330 L411.626842 688.203520 L396.016798 673.549526 L407.007293 661.841993 L422.617337 676.495987 L442.766578 655.032176 L443.961641 692.862223 L451.288638 685.057201 L460.726572 714.106598 L465.305945 709.228459 Z" fill="#888" fill-opacity="0.18" stroke="#000" stroke-width="1"/>
  <path d="M1046.864924 1031.916079 L1019.772371 1010.087421 L1025.651167 1006.892637 L999.938681 990.405973 L1009.344756 985.294320 L973.050435 974.558266 L998.917141 960.501219 L988.693835 941.689069 L1002.802947 934.021589 L1013.026254 952.833739 L1038.892960 938.776692 L1028.156906 975.071013 L1037.562981 969.959360 L1037.408761 1000.503071 L1043.287558 997.308287 Z" fill="#888" fill-opacity="0.18" stroke="#000" stroke-width="1"/>
  <path d="M832.415140 186.289348 L862.319309 168.506280 L863.264219 175.130028 L887.680407 156.778139 L889.192265 167.376136 L911.907613 137.101500 L916.065221 166.245992 L937.261214 163.222277 L939.529000 179.119272 L918.333007 182.142987 L922.490615 211.287478 L892.215979 188.572129 L893.727837 199.170126 L865.154041 188.377524 L866.098952 195.001272 Z" fill="#888" fill-opacity="0.18" stroke="#000" stroke-width="1"/>
  <path d="M750.026038 699.427180 L719.744587 716.559914 L718.943026 709.917294 L694.135984 727.737303 L692.853485 717.109112 L669.489253 746.885835 L665.962383 717.658310 L644.706001 720.223307 L642.782253 704.281020 L664.038635 701.716023 L660.511765 672.488498 L690.288488 695.852730 L689.005990 685.224539 L717.339903 696.632055 L716.538342 689.989436 Z" fill="#888" fill-opacity="0.18" stroke="#000" stroke-width="1"/>
  <path d="M687.434794 783.309853 L653.158885 777.338348 L656.754116 771.695547 L626.273402 769.728787 L632.025771 760.700305 L595.073642 768.890588 L610.892657 744.062261 L592.835692 732.557523 L601.464246 719.014799 L619.521211 730.519537 L635.340226 705.691211 L643.530509 742.643340 L649.282879 733.614857 L663.944577 760.409944 L667.539808 754.767142 Z" fill="#888" fill-opacity="0.18" stroke="#000" stroke-width="1"/>
  <path d="M130.228346 772.646526 L162.117382 786.560053 L157.288869 791.191721 L186.438272 800.316103 L178.712651 807.726773 L216.553378 808.514152 L195.307920 828.893493 L210.129259 844.344736 L198.540827 855.460740 L183.719488 840.009498 L162.474030 860.388840 L163.261408 822.548112 L155.535787 829.958782 L147.631842 800.455058 L142.803329 805.086727 Z" fill="#888" fill-opacity="0.18" stroke="#000" stroke-width="1"/>
  <path d="M646.092135 287.336177 L675.515809 305.903466 L670.043533 309.753283 L697.481808 323.172789 L688.726167 329.332496 L726.014539 335.822331 L701.936525 352.761526 L714.255940 370.272808 L701.122478 379.512369 L688.803063 362.001087 L664.725050 378.940282 L671.214885 341.651911 L662.459244 347.811618 L659.098982 317.452918 L653.626706 321.302735 Z" fill="#888" fill-opacity="0.18" stroke="#000" stroke-width="1"/>
  <path d="M575.894157 187.741836 L542.889588 176.732965 L547.284991 171.688432 L517.436969 165.204791 L524.469614 157.133537 L486.709865 159.730057 L506.049641 137.534109 L489.907133 123.468817 L500.456102 111.361936 L516.598610 125.427228 L535.938386 103.231280 L538.534906 140.991029 L545.567552 132.919775 L556.075799 161.599364 L560.471203 156.554831 Z" fill="#888" fill-opacity="0.18" stroke="#000" stroke-width="1"/>
  <path d="M664.487865 974.167999 L635.190803 992.934431 L634.026426 986.345719 L610.233209 1005.498392 L608.370206 994.956454 L586.672867 1025.968808 L581.549609 996.978477 L560.465732 1000.704483 L557.671227 984.891575 L578.755104 981.165569 L573.631846 952.175238 L604.644200 973.872577 L602.781197 963.330638 L631.697672 973.168296 L630.533295 966.579585 Z" fill="#888" fill-opacity="0.18" stroke="#000" stroke-width="1"/>
  <path d="M499.050612 910.394186 L505.412464 876.188577 L511.013914 879.847901 L513.328017 849.391588 L522.290338 855.246505 L514.521830 818.203410 L539.168212 834.304433 L550.878047 816.379792 L564.321527 825.162169 L552.611692 843.086810 L577.258074 859.187833 L540.214979 866.956340 L549.177299 872.811258 L522.216815 887.166548 L527.818265 890.825871 Z" fill="#888" fill-opacity="0.18" stroke="#000" stroke-width="1"/>
  <path d="M129.219318 271.343479 L103.570062 247.835768 L109.640163 245.021381 L85.028396 226.932628 L94.740557 222.429610 L59.202609 209.406752 L85.911053 197.023452 L76.905017 177.599130 L91.473259 170.844603 L100.479295 190.268925 L127.187738 177.885626 L114.164880 213.423574 L123.877041 208.920556 L121.780364 239.392609 L127.850465 236.578223 Z" fill="#888" fill-opacity="0.18" stroke="#000" stroke-width="1"/>
  <path d="M841.379713 662.040909 L824.313493 631.721922 L830.957856 630.934944 L813.192346 606.088843 L823.823327 604.829679 L794.097964 581.400138 L823.333161 577.937436 L820.814832 556.675474 L836.761303 554.786728 L839.279632 576.048689 L868.514830 572.585987 L845.085289 602.311350 L855.716270 601.052185 L844.246582 629.360989 L850.890945 628.574011 Z" fill="#888" fill-opacity="0.18" stroke="#000" stroke-width="1"/>
  <path d="M59.960146 163.604023 L66.166177 129.369800 L71.784232 133.003580 L73.959629 102.537045 L82.948517 108.351092 L75.011414 71.343755 L99.730856 87.332384 L111.358950 69.354609 L124.842282 78.075679 L113.214188 96.053455 L137.933630 112.042084 L100.926292 119.979186 L109.915180 125.793233 L83.020342 140.271138 L88.638397 143.904918 Z" fill="#888" fill-opacity="0.18" stroke="#000" stroke-width="1"/>
  <path d="M268.913214 395.792157 L284.209926 364.543038 L288.625693 369.569756 L299.017877 340.847908 L306.083105 348.890657 L308.526908 311.120716 L327.956284 333.238275 L344.041781 319.107820 L354.639622 331.171943 L338.554125 345.302398 L357.983501 367.419957 L320.213560 364.976154 L327.278788 373.018903 L297.457228 379.623192 L301.872995 384.649910 Z" fill="#888" fill-opacity="0.18" stroke="#000" stroke-width="1"/>
  <path d="M947.380509 296.855549 L919.356858 276.235855 L925.089914 272.786368 L898.679241 257.443016 L907.852131 251.923837 L871.121958 242.789562 L896.347404 227.611818 L885.309045 209.266039 L899.068379 200.987269 L910.106738 219.333048 L935.332185 204.155304 L926.197910 240.885477 L935.370800 235.366297 L936.556026 265.887393 L942.289082 262.437906 Z" fill="#888" fill-opacity="0.18" stroke="#000" stroke-width="1"/>
  <path d="M477.306968 373.593694 L512.073322 374.934381 L509.263854 381.006760 L539.734198 378.885396 L535.239050 388.601202 L570.766436 375.549557 L558.404779 402.268024 L577.836392 411.258320 L571.093670 425.832030 L551.662057 416.841734 L539.300400 443.560201 L526.248754 408.032815 L521.753606 417.748621 L503.644919 393.151518 L500.835452 399.223896 Z" fill="#888" fill-opacity="0.18" stroke="#000" stroke-width="1"/>
  <path d="M108.378530 666.292502 L111.355736 700.957081 L104.982053 698.921631 L110.862355 728.894354 L100.664462 725.637633 L118.017393 759.274167 L89.973188 750.318186 L83.459747 770.713972 L68.162908 765.828891 L74.676348 745.433105 L46.632143 736.477124 L80.268676 719.124193 L70.070783 715.867473 L92.234686 694.850731 L85.861003 692.815280 Z" fill="#888" fill-opacity="0.18" stroke="#000" stroke-width="1"/>
  <path d="M598.459712 204.887181 L628.123085 186.705292 L629.156603 193.315794 L653.324871 174.638618 L654.978499 185.215421 L677.286435 154.639342 L681.833914 183.725550 L702.987519 180.418293 L705.467962 196.283498 L684.314356 199.590755 L688.861835 228.676963 L658.285756 206.369027 L659.939385 216.945830 L631.223638 206.536798 L632.257156 213.147299 Z" fill="#888" fill-opacity="0.18" stroke="#000" stroke-width="1"/>
  <path d="M690.389033 835.387072 L724.464505 828.361479 L723.191277 834.930024 L752.266559 825.572139 L750.229394 836.081811 L781.596487 814.900544 L775.994282 843.802142 L797.013626 847.876473 L793.957878 863.640981 L772.938534 859.566650 L767.336329 888.468248 L746.155063 857.101155 L744.117897 867.610827 L720.644820 848.067114 L719.371592 854.635659 Z" fill="#888" fill-opacity="0.18" stroke="#000" stroke-width="1"/>
  <path d="M717.252294 221.409771 L699.840030 251.531356 L695.780893 246.212493 L683.435546 274.150540 L676.940926 265.640361 L671.902026 303.152360 L654.041821 279.749365 L637.021462 292.738605 L627.279532 279.973336 L644.299891 266.984096 L626.439686 243.581101 L663.951686 248.620001 L657.457066 240.109821 L687.662618 235.574769 L683.603480 230.255906 Z" fill="#888" fill-opacity="0.18" stroke="#000" stroke-width="1"/>
  <path d="M342.736182 177.894677 L347.919480 143.490749 L353.643306 146.955530 L354.910014 116.437707 L364.068136 121.981357 L355.031956 85.226928 L380.216791 100.471966 L391.304091 82.155723 L405.041274 90.471198 L393.953973 108.787441 L419.138808 124.032478 L382.384379 133.068657 L391.542501 138.612308 L365.090958 153.885093 L370.814784 157.349874 Z" fill="#888" fill-opacity="0.18" stroke="#000" stroke-width="1"/>
  <path d="M458.851633 252.992702 L426.593422 239.957956 L431.293244 235.195755 L401.904830 226.873307 L409.424546 219.253785 L371.576450 219.503300 L392.255670 198.549614 L377.016626 183.510182 L388.296200 172.080899 L403.535244 187.120331 L424.214464 166.166646 L424.463978 204.014741 L431.983694 196.395219 L440.692890 225.671353 L445.392712 220.909151 Z" fill="#888" fill-opacity="0.18" stroke="#000" stroke-width="1"/>
  <path d="M182.730075 867.342940 L166.555105 898.146627 L162.283368 892.996952 L151.082486 921.413185 L144.247708 913.173704 L140.735952 950.859353 L121.940310 928.200780 L105.461348 941.870338 L95.209180 929.511116 L111.688142 915.841559 L92.892501 893.182986 L130.578150 896.694742 L123.743371 888.455261 L153.739895 882.697600 L149.468158 877.547925 Z" fill="#888" fill-opacity="0.18" stroke="#000" stroke-width="1"/>
  <path d="M482.577304 402.367873 L467.959673 433.940356 L463.436276 429.010267 L453.667395 457.950050 L446.429960 450.061908 L444.803194 487.875850 L424.900247 466.183461 L409.123964 480.658331 L398.267811 468.826118 L414.044094 454.351248 L394.141148 432.658858 L431.955090 434.285625 L424.717655 426.397483 L454.389482 419.150090 L449.866085 414.220001 Z" fill="#888" fill-opacity="0.18" stroke="#000" stroke-width="1"/>
  <path d="M273.357044 972.361213 L241.410721 986.142696 L241.327198 979.452411 L214.749808 994.505133 L214.616171 983.800676 L188.189123 1010.895912 L187.821620 981.458656 L166.412707 981.725932 L166.212251 965.669247 L187.621164 965.401972 L187.253660 935.964716 L214.348895 962.391763 L214.215258 951.687307 L241.160151 966.071841 L241.076627 959.381555 Z" fill="#888" fill-opacity="0.18" stroke="#000" stroke-width="1"/>
  <path d="M947.418693 907.946877 L930.462533 938.327552 L926.323667 933.070492 L914.400929 961.191487 L907.778744 952.780190 L903.305963 990.363894 L885.094955 967.232827 L868.272361 980.477197 L858.339084 967.860251 L875.161678 954.615882 L856.950670 931.484815 L894.534375 935.957596 L887.912190 927.546299 L918.045936 922.556371 L913.907071 917.299310 Z" fill="#888" fill-opacity="0.18" stroke="#000" stroke-width="1"/>
  <path d="M685.829523 455.171452 L651.192463 451.889547 L654.336962 445.983701 L623.795680 446.398564 L628.826879 436.949211 L592.625497 447.994597 L606.461294 422.008875 L587.562587 411.946477 L595.109386 397.772446 L614.008093 407.834844 L627.843890 381.849122 L638.889277 418.050504 L643.920476 408.601150 L660.625961 434.172009 L663.770461 428.266163 Z" fill="#888" fill-opacity="0.18" stroke="#000" stroke-width="1"/>
  <path d="M325.832393 177.263468 L334.542711 210.947695 L327.919008 210.002469 L338.710248 238.576779 L328.112323 237.064417 L350.826229 267.340135 L321.681936 263.181138 L318.657211 284.376987 L302.760324 282.108443 L305.785049 260.912594 L276.640756 256.753597 L306.916474 234.039691 L296.318549 232.527329 L314.671602 208.112016 L308.047899 207.166789 Z" fill="#888" fill-opacity="0.18" stroke="#000" stroke-width="1"/>
  <path d="M191.924425 766.343582 L215.172721 740.458963 L218.048075 746.500422 L235.888133 721.707794 L240.488700 731.374129 L253.153120 695.706875 L265.804679 722.289296 L285.137349 713.088162 L292.038200 727.587664 L272.705530 736.788798 L285.357089 763.371219 L249.689834 750.706799 L254.290401 760.373134 L223.798784 758.583341 L226.674138 764.624800 Z" fill="#888" fill-opacity="0.18" stroke="#000" stroke-width="1"/>
  <path d="M584.511786 448.633267 L593.100794 482.348631 L586.480537 481.379567 L597.168848 509.992537 L586.576436 508.442035 L609.181210 538.799321 L580.052077 534.535439 L576.951073 555.720263 L561.062455 553.394510 L564.163459 532.209686 L535.034326 527.945805 L565.391612 505.341031 L554.799200 503.790528 L573.240022 479.441439 L566.619765 478.472375 Z" fill="#888" fill-opacity="0.18" stroke="#000" stroke-width="1"/>
  <path d="M709.646568 501.322197 L706.223836 535.945624 L700.330827 532.777134 L700.621489 563.319851 L691.192673 558.250268 L702.090753 594.496267 L676.161510 580.554911 L666.022342 599.412543 L651.879119 591.808168 L662.018286 572.950536 L636.089042 559.009181 L672.335041 548.111100 L662.906226 543.041517 L688.544807 526.440155 L682.651797 523.271665 Z" fill="#888" fill-opacity="0.18" stroke="#000" stroke-width="1"/>
  <path d="M998.561646 403.234884 L1005.054115 437.415941 L998.506260 436.040265 L1007.408841 465.258173 L996.932272 463.057092 L1017.620993 494.751215 L988.810429 488.698244 L984.408268 509.651382 L968.693415 506.349761 L973.095576 485.396624 L944.285012 479.343652 L975.979135 458.654932 L965.502566 456.453851 L985.410549 433.288915 L978.862694 431.913240 Z" fill="#888" fill-opacity="0.18" stroke="#000" stroke-width="1"/>
  <path d="M309.289615 718.127186 L314.861507 683.784052 L320.545799 687.313318 L322.157419 656.811765 L331.252287 662.458590 L322.632181 625.604359 L347.643066 641.133128 L358.936717 622.943393 L372.579018 631.413631 L361.285368 649.603366 L386.296253 665.132135 L349.442021 673.752241 L358.536889 679.399066 L331.914383 694.371850 L337.598675 697.901115 Z" fill="#888" fill-opacity="0.18" stroke="#000" stroke-width="1"/>
  <path d="M138.600936 571.294172 L154.041949 540.116104 L158.434430 545.163182 L168.959284 516.489684 L175.987254 524.565009 L178.605641 486.806769 L197.932560 509.013914 L214.083210 494.957973 L224.625166 507.070960 L208.474516 521.126902 L227.801435 543.334046 L190.043195 540.715659 L197.071166 548.790985 L167.219393 555.257339 L171.611875 560.304417 Z" fill="#888" fill-opacity="0.18" stroke="#000" stroke-width="1"/>
  <path d="M41.636766 356.044924 L67.389045 379.439729 L61.331367 382.280755 L86.022361 400.261212 L76.330076 404.806853 L111.924891 417.673465 L85.271106 430.173977 L94.362388 449.558548 L79.823960 456.377009 L70.732678 436.992438 L44.078893 449.492950 L56.945505 413.898135 L47.253219 418.443776 L49.216010 387.962806 L43.158331 390.803831 Z" fill="#888" fill-opacity="0.18" stroke="#000" stroke-width="1"/>
  <path d="M660.225914 988.641955 L693.122061 977.313216 L692.699932 983.990693 L720.338523 970.988756 L719.663118 981.672720 L748.061539 956.651324 L746.204175 986.032223 L767.572102 987.383033 L766.558995 1003.408978 L745.191068 1002.058168 L743.333704 1031.439068 L718.312308 1003.040647 L717.636903 1013.724610 L691.855676 997.345648 L691.433548 1004.023125 Z" fill="#888" fill-opacity="0.18" stroke="#000" stroke-width="1"/>
  <path d="M315.962789 1058.892473 L281.354394 1055.320951 L284.548184 1049.441615 L254.004500 1049.600993 L259.114565 1040.194055 L222.822057 1050.936238 L236.874736 1025.067158 L218.060859 1014.847028 L225.725957 1000.736621 L244.539833 1010.956751 L258.592511 985.087671 L269.334694 1021.380178 L274.444759 1011.973240 L290.935765 1037.682942 L294.129556 1031.803606 Z" fill="#888" fill-opacity="0.18" stroke="#000" stroke-width="1"/>
  <path d="M267.035677 273.031987 L270.690848 307.631648 L264.278543 305.721348 L270.744415 335.573225 L260.484728 332.516746 L278.492748 365.807162 L250.278608 357.401844 L244.165650 377.921219 L228.776119 373.336500 L234.889077 352.817125 L206.674937 344.411808 L239.965354 326.403788 L229.705666 323.347308 L251.453934 301.900749 L245.041630 299.990450 Z" fill="#888" fill-opacity="0.18" stroke="#000" stroke-width="1"/>
  <path d="M68.972014 469.713091 L101.613990 481.754611 L97.062095 486.658399 L126.691419 494.077645 L119.408386 501.923707 L157.231122 500.516134 L137.202783 522.092804 L152.894907 536.658869 L141.970358 548.427961 L126.278234 533.861896 L106.249895 555.438567 L104.842321 517.615831 L97.559289 525.461893 L87.958304 496.465977 L83.406409 501.369765 Z" fill="#888" fill-opacity="0.18" stroke="#000" stroke-width="1"/>
  <path d="M771.109352 470.837839 L752.575933 441.392819 L759.173674 440.280749 L740.210363 416.336337 L750.766749 414.557025 L719.927503 392.614339 L748.957566 387.721231 L745.398941 366.608457 L761.233521 363.939489 L764.792145 385.052262 L793.822208 380.159154 L771.879522 410.998401 L782.435909 409.219088 L772.369158 438.056609 L778.966899 436.944539 Z" fill="#888" fill-opacity="0.18" stroke="#000" stroke-width="1"/>
  <path d="M629.539126 354.743427 L602.839672 332.435672 L608.774440 329.346106 L583.359685 312.404078 L592.855315 307.460772 L556.757977 296.079964 L582.870957 282.485873 L572.984345 263.494614 L587.227789 256.079655 L597.114401 275.070914 L623.227381 261.476823 L611.846573 297.574160 L621.342202 292.630855 L620.643977 323.166973 L626.578745 320.077407 Z" fill="#888" fill-opacity="0.18" stroke="#000" stroke-width="1"/>
  <path d="M818.875851 886.362809 L845.651751 864.146869 L847.614943 870.543178 L868.881157 848.618530 L872.022264 858.852624 L889.754733 825.414620 L898.392778 853.558380 L918.860967 847.276166 L923.572628 862.627308 L903.104438 868.909522 L911.742483 897.053282 L878.304479 879.320814 L881.445586 889.554908 L851.541327 883.335796 L853.504519 889.732105 Z" fill="#888" fill-opacity="0.18" stroke="#000" stroke-width="1"/>
  <path d="M789.779924 50.723359 L817.409671 71.867953 L811.612572 75.208693 L837.729148 91.047461 L828.453790 96.392644 L865.005142 106.218080 L839.497908 120.917334 L850.188275 139.468050 L836.275238 147.485825 L825.584871 128.935109 L800.077637 143.634363 L809.903074 107.083010 L800.627716 112.428194 L800.018375 81.890172 L794.221276 85.230911 Z" fill="#888" fill-opacity="0.18" stroke="#000" stroke-width="1"/>
  <path d="M803.404247 745.904738 L837.523200 739.093433 L836.208716 745.653846 L865.342235 736.478871 L863.239061 746.975533 L894.738650 725.991813 L888.954922 754.857633 L909.948245 759.063981 L906.793484 774.808973 L885.800161 770.602626 L880.016433 799.468445 L859.032713 767.968856 L856.929539 778.465518 L833.579749 758.774673 L832.265265 765.335087 Z" fill="#888" fill-opacity="0.18" stroke="#000" stroke-width="1"/>
  <path d="M272.913203 52.063080 L302.429249 70.483173 L296.976271 74.360275 L324.481231 87.642564 L315.756466 93.845927 L353.076787 100.149433 L329.083682 117.208682 L341.490408 134.658213 L328.403260 143.963258 L315.996534 126.513727 L292.003429 143.572975 L298.306934 106.252654 L289.582169 112.456017 L286.070314 82.114479 L280.617335 85.991581 Z" fill="#888" fill-opacity="0.18" stroke="#000" stroke-width="1"/>
  <path d="M474.765298 371.949295 L443.600626 387.417327 L443.159901 380.741051 L417.424394 397.191759 L416.719234 386.509718 L391.777032 414.977721 L389.837841 385.602108 L368.473760 387.012429 L367.416019 370.989368 L388.780101 369.579047 L386.840910 340.203435 L415.308913 365.145636 L414.603753 354.463595 L442.278450 367.388500 L441.837725 360.712225 Z" fill="#888" fill-opacity="0.18" stroke="#000" stroke-width="1"/>
  <path d="M682.107622 731.022092 L716.175514 738.084354 L712.402043 743.609552 L742.804471 746.547999 L736.766918 755.388316 L773.961592 748.381405 L757.358322 772.692277 L775.038956 784.767382 L765.982627 798.027858 L748.301993 785.952752 L731.698723 810.263624 L724.691812 773.068949 L718.654260 781.909266 L704.855102 754.659949 L701.081632 760.185147 Z" fill="#888" fill-opacity="0.18" stroke="#000" stroke-width="1"/>
  <path d="M894.675492 467.943516 L896.932451 433.224602 L902.928637 436.193213 L901.611470 405.677526 L911.205367 410.427303 L899.095065 374.568117 L925.478283 387.630003 L934.977837 368.442208 L949.368683 375.566874 L939.869130 394.754668 L966.252348 407.816555 L930.393162 419.926856 L939.987060 424.676633 L914.921009 442.130434 L920.917195 445.099044 Z" fill="#888" fill-opacity="0.18" stroke="#000" stroke-width="1"/>
  <path d="M418.590300 525.695879 L453.341804 524.013692 L451.070039 530.307020 L481.241234 525.548755 L477.606411 535.618081 L511.866782 519.531825 L501.871018 547.222469 L522.009668 554.492116 L516.557434 569.596103 L496.418784 562.326457 L486.423020 590.017101 L470.336765 555.756731 L466.701942 565.826056 L446.526511 542.893676 L444.254746 549.187005 Z" fill="#888" fill-opacity="0.18" stroke="#000" stroke-width="1"/>
  <path d="M392.118677 223.559113 L396.201041 258.110974 L389.765625 256.280043 L396.599817 286.049757 L386.303151 283.120268 L404.721093 316.185657 L376.405260 308.129561 L370.546281 328.722894 L355.101282 324.328660 L360.960261 303.735327 L332.644428 295.679231 L365.709818 277.261289 L355.413152 274.331799 L376.894792 252.618181 L370.459375 250.787250 Z" fill="#888" fill-opacity="0.18" stroke="#000" stroke-width="1"/>
  <path d="M819.331926 77.709269 L853.060249 69.171295 L852.081167 75.790078 L880.710281 65.145082 L879.143750 75.735135 L909.535210 53.176329 L905.227250 82.298975 L926.407357 85.432037 L924.057561 101.317117 L902.877454 98.184055 L898.569495 127.306702 L876.010688 96.915242 L874.444157 107.505295 L850.123004 89.027645 L849.143922 95.646428 Z" fill="#888" fill-opacity="0.18" stroke="#000" stroke-width="1"/>
  <path d="M755.891387 591.875511 L737.789245 621.587617 L733.853822 616.176578 L720.867596 643.822554 L714.570920 635.164891 L708.668454 672.550737 L691.352595 648.742166 L674.037270 661.335518 L664.592256 648.349024 L681.907581 635.755672 L664.591722 611.947100 L701.977568 617.849566 L695.680892 609.191904 L725.982977 605.354500 L722.047555 599.943461 Z" fill="#888" fill-opacity="0.18" stroke="#000" stroke-width="1"/>
  <path d="M885.277208 272.937053 L912.596928 294.480723 L906.751918 297.736911 L932.635689 313.953336 L923.283674 319.163236 L959.688462 329.518525 L933.970420 343.845750 L944.390220 362.549780 L930.362197 370.364630 L919.942397 351.660600 L894.224355 365.987825 L904.579643 329.583037 L895.227628 334.792937 L895.061899 304.249286 L889.216889 307.505473 Z" fill="#888" fill-opacity="0.18" stroke="#000" stroke-width="1"/>
  <path d="M880.893197 301.831625 L885.366824 336.335008 L878.911073 334.577118 L886.082163 364.267479 L875.752962 361.454854 L894.544402 394.309418 L866.139100 386.574700 L860.513850 407.233101 L845.020049 403.014164 L850.645299 382.355763 L822.239996 374.621045 L855.094560 355.829604 L844.765359 353.016980 L865.999572 331.061337 L859.543822 329.303446 Z" fill="#888" fill-opacity="0.18" stroke="#000" stroke-width="1"/>
  <path d="M703.989509 484.102141 L738.690053 486.625846 L735.675450 492.599041 L766.200358 491.516424 L761.376993 501.073537 L797.328186 489.239168 L784.063932 515.521227 L803.178157 525.167957 L795.943110 539.503626 L776.828885 529.856896 L763.564631 556.138955 L751.730263 520.187761 L746.906898 529.744874 L729.646244 504.545432 L726.631640 510.518627 Z" fill="#888" fill-opacity="0.18" stroke="#000" stroke-width="1"/>
  <path d="M179.092729 764.950905 L157.129423 737.967392 L163.543900 736.064403 L141.820090 714.593070 L152.083254 711.548286 L118.813384 693.502335 L147.037086 685.129180 L140.947518 664.602851 L156.342265 660.035675 L162.431832 680.562004 L190.655534 672.188848 L172.609583 705.458718 L182.872747 702.413935 L176.372855 732.258423 L182.787333 730.355433 Z" fill="#888" fill-opacity="0.18" stroke="#000" stroke-width="1"/>
  <path d="M234.779117 510.044687 L265.782673 525.833175 L260.686821 530.168977 L289.240905 541.013622 L281.087541 547.950906 L318.814160 550.991107 L296.392409 570.068637 L310.266976 586.375365 L298.036930 596.781290 L284.162363 580.474562 L261.740611 599.552091 L264.780813 561.825473 L256.627449 568.762756 L250.495115 538.840581 L245.399263 543.176383 Z" fill="#888" fill-opacity="0.18" stroke="#000" stroke-width="1"/>
  <path d="M196.674065 673.525294 L165.094036 658.923974 L170.021787 654.398031 L141.076961 644.644101 L148.961363 637.402592 L111.146586 635.795360 L132.828691 615.881210 L118.345673 600.112406 L130.172276 589.250143 L144.655294 605.018947 L166.337399 585.104797 L164.730167 622.919574 L172.614569 615.678065 L179.877289 645.346145 L184.805040 640.820202 Z" fill="#888" fill-opacity="0.18" stroke="#000" stroke-width="1"/>
  <path d="M221.914904 247.034998 L223.994277 212.304996 L230.005566 215.242903 L228.532355 184.734351 L238.150418 189.435001 L225.856887 153.638218 L252.306560 166.565007 L261.707860 147.328881 L276.134955 154.379856 L266.733654 173.615982 L293.183327 186.542771 L257.386544 198.836302 L267.004607 203.536952 L242.028145 221.118715 L248.039434 224.056622 Z" fill="#888" fill-opacity="0.18" stroke="#000" stroke-width="1"/>
  <path d="M520.762305 286.864801 L550.232398 305.358324 L544.769784 309.221838 L572.241589 322.572566 L563.501406 328.754188 L600.805918 335.150592 L576.770414 352.150051 L589.133657 369.630418 L576.023382 378.902850 L563.660139 361.422484 L539.624635 378.421943 L546.021040 341.117431 L537.280856 347.299052 L533.844555 316.948865 L528.381940 320.812378 Z" fill="#888" fill-opacity="0.18" stroke="#000" stroke-width="1"/>
  <path d="M244.570044 836.618430 L245.801629 871.388819 L239.538277 869.035670 L243.905052 899.266008 L233.883689 895.500968 L249.524498 929.966976 L221.965749 919.613116 L214.435670 939.655843 L199.403625 934.008284 L206.933704 913.965557 L179.374955 903.611698 L213.840962 887.970889 L203.819599 884.205849 L227.011573 864.329370 L220.748221 861.976220 Z" fill="#888" fill-opacity="0.18" stroke="#000" stroke-width="1"/>
  <path d="M441.155054 825.604154 L420.676386 797.477282 L427.184016 795.922405 L406.647723 773.312613 L417.059931 770.824810 L384.809904 751.013795 L413.443477 744.172338 L408.467872 723.347921 L424.086185 719.616217 L429.061790 740.440634 L457.695363 733.599177 L437.884348 765.849205 L448.296557 763.361402 L440.199277 792.812652 L446.706907 791.257776 Z" fill="#888" fill-opacity="0.18" stroke="#000" stroke-width="1"/>
  <path d="M489.446848 893.121436 L475.318791 861.326864 L482.007773 861.170594 L466.666935 834.758462 L477.369305 834.508430 L449.988301 808.377583 L479.419819 807.689996 L478.919757 786.285256 L494.973312 785.910209 L495.473375 807.314949 L524.904894 806.627363 L498.774046 834.008368 L509.476416 833.758336 L495.385736 860.858055 L502.074717 860.701786 Z" fill="#888" fill-opacity="0.18" stroke="#000" stroke-width="1"/>
  <path d="M589.441651 877.401463 L573.775963 846.335678 L580.449305 845.852552 L563.835450 820.222064 L574.512796 819.449062 L545.886927 794.688202 L575.249628 792.562447 L573.703625 771.207755 L589.719644 770.048253 L591.265647 791.402945 L620.628348 789.277190 L595.867488 817.903059 L606.544834 817.130058 L593.795987 844.886300 L600.469328 844.403174 Z" fill="#888" fill-opacity="0.18" stroke="#000" stroke-width="1"/>
  <path d="M880.295668 1050.390618 L905.913751 1026.848940 L908.197919 1033.137777 L928.328099 1010.165666 L931.982767 1020.227805 L948.001446 985.935787 L958.051783 1013.606670 L978.176061 1006.297334 L983.658063 1021.390543 L963.533785 1028.699879 L973.584121 1056.370762 L939.292103 1040.352084 L942.946771 1050.414223 L912.766254 1045.715452 L915.050421 1052.004289 Z" fill="#888" fill-opacity="0.18" stroke="#000" stroke-width="1"/>
  <path d="M423.946546 1004.392599 L435.037234 971.415434 L440.070852 975.823335 L446.628495 945.991483 L454.682283 953.044124 L452.179416 915.278051 L474.327333 934.672814 L488.432615 918.565238 L500.513297 929.144199 L486.408015 945.251775 L508.555932 964.646538 L470.789860 967.149406 L478.843648 974.202047 L450.138087 984.639136 L455.171704 989.047036 Z" fill="#888" fill-opacity="0.18" stroke="#000" stroke-width="1"/>
</svg>
