<?xml version="1.0" encoding="UTF-8"?>
<svg xmlns="http://www.w3.org/2000/svg" width="1100" height="1100" viewBox="0 0 1100 1100">
  <rect x="0" y="0" width="1100" height="1100" fill="white"/>
  <text x="10.0" y="18.0" font-family="monospace" font-size="12">prefix=N126_job5048528_task126 run_id=126 L=9.6822783487 feas=0.000e+00 N=126</text>
  <rect x="40.000000" y="40.000000" width="1020.000000" height="1020.000000" fill="none" stroke="#000" stroke-width="2"/>
  <path d="M836.476469 964.801248 L864.735205 984.131831 L859.213597 987.718398 L885.707401 1001.914382 L876.872829 1007.652888 L913.305526 1015.393052 L889.010452 1031.173946 L900.487466 1048.843090 L887.235607 1057.450850 L875.758594 1039.781706 L851.463520 1055.562599 L859.203684 1019.129902 L850.369112 1024.868409 L848.170382 994.891531 L842.648774 998.478098 Z" fill="#888" fill-opacity="0.18" stroke="#000" stroke-width="1"/>
  <path d="M645.070316 982.605075 L679.259435 984.430367 L676.406638 990.364435 L706.419063 988.720675 L701.854587 998.215184 L737.002047 985.890102 L724.449739 1012.000000 L743.438755 1021.128952 L736.592042 1035.370714 L717.603025 1026.241763 L705.050717 1052.351660 L692.725635 1017.204200 L688.161160 1026.698708 L670.701043 1002.232570 L667.848246 1008.166638 Z" fill="#888" fill-opacity="0.18" stroke="#000" stroke-width="1"/>
  <path d="M1040.006760 251.704954 L1005.772862 251.187413 L1008.396827 245.148669 L978.469131 247.938048 L982.667474 238.276058 L948.016643 251.935175 L959.562086 225.364704 L940.238106 216.968018 L946.535621 202.475033 L965.859600 210.871719 L977.405043 184.301248 L991.064160 218.952079 L995.262503 209.290089 L1013.644755 233.071182 L1016.268720 227.032439 Z" fill="#888" fill-opacity="0.18" stroke="#000" stroke-width="1"/>
  <path d="M629.048744 187.852566 L650.469070 214.562063 L644.143395 216.388934 L665.367360 237.672517 L655.246280 240.595509 L687.856459 258.590727 L660.023491 266.628955 L665.869476 286.871114 L650.687857 291.255602 L644.841872 271.013444 L617.008905 279.051672 L635.004122 246.441494 L624.883043 249.364486 L631.492046 220.042674 L625.166372 221.869544 Z" fill="#888" fill-opacity="0.18" stroke="#000" stroke-width="1"/>
  <path d="M983.437033 661.251236 L953.591614 644.473913 L958.777338 640.416836 L931.140436 628.599508 L939.437595 622.108185 L902.466389 617.593596 L925.283577 599.742456 L912.300930 583.148138 L924.746668 573.411153 L937.729315 590.005471 L960.546502 572.154332 L956.031913 609.125538 L964.329072 602.634215 L969.148787 632.302682 L974.334512 628.245605 Z" fill="#888" fill-opacity="0.18" stroke="#000" stroke-width="1"/>
  <path d="M470.053436 713.650054 L479.573534 746.537671 L473.031346 745.795113 L484.453927 773.597491 L473.986427 772.409398 L497.184946 801.548380 L468.399320 798.281126 L466.023135 819.216126 L450.321885 817.433987 L452.698070 796.498987 L423.912444 793.231732 L453.051426 770.033213 L442.583926 768.845120 L459.946971 744.309997 L453.404783 743.567439 Z" fill="#888" fill-opacity="0.18" stroke="#000" stroke-width="1"/>
  <path d="M182.750877 51.673496 L216.296553 58.522964 L212.599482 63.971200 L242.525983 66.773365 L236.610669 75.490543 L273.191898 68.485882 L256.924786 92.458121 L274.359142 104.288748 L265.486171 117.364515 L248.051815 105.533888 L231.784703 129.506127 L224.780042 92.924898 L218.864729 101.642076 L205.205340 74.867673 L201.508269 80.315909 Z" fill="#888" fill-opacity="0.18" stroke="#000" stroke-width="1"/>
  <path d="M58.475659 970.473750 L55.190871 936.393877 L61.483510 938.331479 L55.390113 908.898197 L65.458335 911.998361 L48.038187 879.077395 L75.725800 887.602844 L81.926127 867.466398 L97.028461 872.116644 L90.828134 892.253090 L118.515747 900.778539 L85.594781 918.198688 L95.663004 921.298851 L74.068789 942.206684 L80.361428 944.144286 Z" fill="#888" fill-opacity="0.18" stroke="#000" stroke-width="1"/>
  <path d="M1020.349374 375.767266 L1029.700623 408.703291 L1023.162331 407.927179 L1034.442128 435.787793 L1023.980860 434.546015 L1047.029583 463.803629 L1018.261098 460.388738 L1015.777541 481.311273 L1000.085640 479.448605 L1002.569197 458.526071 L973.800712 455.111180 L1003.058326 432.062458 L992.597059 430.820680 L1010.085747 406.374957 L1003.547455 405.598845 Z" fill="#888" fill-opacity="0.18" stroke="#000" stroke-width="1"/>
  <path d="M365.524109 421.357121 L383.439293 450.533718 L376.934928 451.555895 L395.333242 475.324564 L384.926258 476.960049 L415.032429 498.888798 L386.413223 503.386380 L389.684192 524.200348 L374.073716 526.653575 L370.802747 505.839607 L342.183541 510.337189 L364.112290 480.231018 L353.705306 481.866502 L363.926198 453.600251 L357.421833 454.622429 Z" fill="#888" fill-opacity="0.18" stroke="#000" stroke-width="1"/>
  <path d="M1007.848031 486.691870 L1026.613873 515.328748 L1020.142398 516.541850 L1039.232054 539.758926 L1028.877693 541.699890 L1059.616005 562.733382 L1031.141513 568.071033 L1035.023441 588.779755 L1019.491899 591.691200 L1015.609972 570.982479 L987.135480 576.320130 L1008.168972 545.581818 L997.814611 547.522782 L1007.199447 518.968055 L1000.727972 520.181157 Z" fill="#888" fill-opacity="0.18" stroke="#000" stroke-width="1"/>
  <path d="M503.762704 647.278666 L527.859458 622.956371 L530.394721 629.032887 L549.123209 605.523499 L553.179630 615.245926 L567.344644 580.798808 L578.499801 607.535481 L597.944654 599.422640 L604.029285 614.006279 L584.584432 622.119121 L595.739589 648.855794 L561.292471 634.690779 L565.348891 644.413206 L535.465247 641.185921 L538.000510 647.262437 Z" fill="#888" fill-opacity="0.18" stroke="#000" stroke-width="1"/>
  <path d="M69.510516 209.432582 L59.329000 176.743681 L65.884834 177.354129 L53.903792 149.787805 L64.393127 150.764522 L40.611583 122.099391 L69.457254 124.785364 L71.410689 103.806694 L87.144692 105.271770 L85.191257 126.250440 L114.036928 128.936413 L85.371797 152.717957 L95.861132 153.694675 L78.996503 178.575026 L85.552337 179.185474 Z" fill="#888" fill-opacity="0.18" stroke="#000" stroke-width="1"/>
  <path d="M41.663156 874.079201 L53.846001 842.082234 L58.624838 846.611509 L66.228496 817.531757 L73.874635 824.778597 L72.876386 787.546150 L93.903268 807.474959 L108.396948 792.182681 L119.866156 803.052940 L105.372477 818.345218 L126.399359 838.274027 L89.166913 839.272276 L96.813052 846.519115 L68.182512 855.670059 L72.961348 860.199333 Z" fill="#888" fill-opacity="0.18" stroke="#000" stroke-width="1"/>
  <path d="M802.582720 1042.530641 L783.269900 1014.259763 L789.716862 1012.922493 L770.184465 990.076638 L780.499605 987.937006 L749.362676 967.498238 L777.729310 961.614250 L773.450046 940.983971 L788.922755 937.774523 L793.202019 958.404802 L821.568652 952.520814 L801.129884 983.657742 L811.445023 981.518110 L802.610786 1010.247953 L809.057748 1008.910683 Z" fill="#888" fill-opacity="0.18" stroke="#000" stroke-width="1"/>
  <path d="M684.794669 352.518286 L710.743095 330.182065 L712.788842 336.440382 L733.321466 314.489096 L736.594661 324.502403 L753.444940 291.286146 L762.446228 318.822740 L782.472842 312.276349 L787.382635 327.296309 L767.356021 333.842701 L776.357310 361.379295 L743.141053 344.529017 L746.414249 354.542324 L716.880337 348.957016 L718.926084 355.215333 Z" fill="#888" fill-opacity="0.18" stroke="#000" stroke-width="1"/>
  <path d="M233.132912 460.324830 L228.959782 426.342297 L235.300848 428.115005 L228.441337 398.850783 L238.587042 401.687117 L220.313613 369.232019 L248.214303 377.031936 L253.886970 356.740526 L269.105528 360.995026 L263.432861 381.286437 L291.333551 389.086355 L258.878453 407.359784 L269.024158 410.196118 L247.982979 431.660422 L254.324045 433.433131 Z" fill="#888" fill-opacity="0.18" stroke="#000" stroke-width="1"/>
  <path d="M963.007006 463.983188 L930.354599 474.281143 L930.941678 467.723174 L903.418230 479.802387 L904.357557 469.309637 L875.777365 493.193193 L878.360515 464.338132 L857.375016 462.459478 L858.784007 446.720354 L879.769506 448.599008 L882.352656 419.743947 L906.236212 448.324139 L907.175539 437.831389 L932.115837 454.607238 L932.702917 448.049269 Z" fill="#888" fill-opacity="0.18" stroke="#000" stroke-width="1"/>
  <path d="M492.742535 621.658776 L464.615504 602.137053 L470.161300 598.588003 L443.764349 584.212726 L452.637624 578.534247 L416.258239 570.547260 L440.659744 554.931441 L429.302785 537.184892 L442.612696 528.667173 L453.969655 546.413722 L478.371160 530.797903 L470.384172 567.177288 L479.257447 561.498808 L481.252893 591.489903 L486.798690 587.940854 Z" fill="#888" fill-opacity="0.18" stroke="#000" stroke-width="1"/>
  <path d="M956.338602 228.617473 L940.862477 259.157891 L936.585785 254.151743 L925.969917 282.272037 L919.127209 274.262201 L916.209387 311.393561 L897.391941 289.366510 L881.372269 303.051926 L871.108207 291.037171 L887.127880 277.351756 L868.310434 255.324706 L905.441794 258.242528 L898.599087 250.232691 L928.032401 244.139448 L923.755708 239.133300 Z" fill="#888" fill-opacity="0.18" stroke="#000" stroke-width="1"/>
  <path d="M826.570704 604.773950 L802.663460 580.265355 L808.782385 577.834232 L785.596255 558.707001 L795.386535 554.817204 L761.186339 540.065996 L788.109611 529.369052 L780.330015 509.788490 L795.015437 503.953793 L802.795032 523.534355 L829.718305 512.837411 L814.967097 547.037608 L824.757378 543.147810 L821.020236 572.971984 L827.139162 570.540861 Z" fill="#888" fill-opacity="0.18" stroke="#000" stroke-width="1"/>
  <path d="M103.749263 596.753852 L126.298677 570.990477 L129.204201 576.898906 L146.445767 552.278264 L151.094605 561.731752 L163.106227 526.475936 L175.890534 552.473027 L194.797509 543.175349 L201.770767 557.355580 L182.863792 566.653258 L195.648098 592.650348 L160.392283 580.638726 L165.041122 590.092214 L135.015250 588.715766 L137.920774 594.624195 Z" fill="#888" fill-opacity="0.18" stroke="#000" stroke-width="1"/>
  <path d="M345.799523 832.417696 L342.483881 866.494581 L336.679969 863.385526 L337.012353 893.441093 L327.726095 888.466605 L338.505519 924.118471 L312.968309 910.438628 L303.019332 929.011144 L289.089945 921.549411 L299.038922 902.976895 L273.501712 889.297052 L309.153578 878.517628 L299.867320 873.543139 L325.072147 857.167415 L319.268235 854.058360 Z" fill="#888" fill-opacity="0.18" stroke="#000" stroke-width="1"/>
  <path d="M558.772977 171.125020 L572.682335 139.839923 L577.207104 144.623026 L586.385025 116.001123 L593.624655 123.654088 L594.657993 86.422599 L614.566976 107.468253 L629.872907 92.988992 L640.732353 104.468440 L625.426422 118.947701 L645.335406 139.993356 L608.103916 138.960019 L615.343547 146.612984 L586.256642 154.189233 L590.781411 158.972336 Z" fill="#888" fill-opacity="0.18" stroke="#000" stroke-width="1"/>
  <path d="M945.382417 442.959556 L945.364526 408.721752 L951.443566 411.250958 L948.186502 381.370544 L957.912966 385.417274 L943.713630 350.984289 L970.461407 362.112796 L978.554866 342.659867 L993.144563 348.729962 L985.051103 368.182890 L1011.798880 379.311397 L977.365895 393.510733 L987.092359 397.557463 L963.601646 416.309370 L969.680686 418.838576 Z" fill="#888" fill-opacity="0.18" stroke="#000" stroke-width="1"/>
  <path d="M332.165567 447.377746 L311.789537 474.892197 L308.412418 469.240058 L293.233524 495.183241 L287.830133 486.139818 L278.730053 522.256852 L263.870728 497.387439 L245.783883 508.194221 L237.678797 494.629087 L255.765642 483.822305 L240.906318 458.952893 L277.023351 468.052973 L271.619961 459.009550 L301.658180 457.935779 L298.281060 452.283640 Z" fill="#888" fill-opacity="0.18" stroke="#000" stroke-width="1"/>
  <path d="M973.442137 720.135956 L953.273481 747.802776 L949.853976 742.176179 L934.870499 768.232713 L929.399290 759.230158 L920.570922 795.414567 L905.525099 770.657540 L887.519988 781.599956 L879.313176 768.096123 L897.318287 757.153706 L882.272464 732.396679 L918.456874 741.225047 L912.985665 732.222491 L943.014966 730.922984 L939.595460 725.296387 Z" fill="#888" fill-opacity="0.18" stroke="#000" stroke-width="1"/>
  <path d="M456.884388 913.407261 L484.554519 933.571374 L478.928483 936.991803 L504.987477 951.971003 L495.985820 957.443689 L532.171679 966.266116 L507.417122 981.316003 L518.362494 999.319318 L504.860009 1007.528347 L493.914636 989.525033 L469.160079 1004.574920 L477.982506 968.389062 L468.980849 973.861748 L467.676411 943.832661 L462.050376 947.253090 Z" fill="#888" fill-opacity="0.18" stroke="#000" stroke-width="1"/>
  <path d="M794.601562 41.900332 L821.027059 63.670052 L815.208063 66.750782 L840.332776 83.249159 L831.022382 88.178328 L866.621287 99.131390 L841.017705 112.686603 L850.876042 131.307390 L836.910452 138.701143 L827.052115 120.080356 L801.448533 133.635569 L812.401595 98.036665 L803.091202 102.965833 L803.570072 72.912243 L797.751076 75.992973 Z" fill="#888" fill-opacity="0.18" stroke="#000" stroke-width="1"/>
  <path d="M452.213656 620.079461 L460.328667 653.341664 L453.823911 652.321977 L464.055624 680.584313 L453.648015 678.952813 L475.588288 709.050586 L446.967362 704.563961 L443.704362 725.379180 L428.092948 722.931930 L431.355948 702.116711 L402.735022 697.630086 L432.832796 675.689813 L422.425186 674.058313 L440.814400 650.282602 L434.309644 649.262914 Z" fill="#888" fill-opacity="0.18" stroke="#000" stroke-width="1"/>
  <path d="M523.532368 876.624511 L532.903446 843.694123 L538.055950 847.793307 L543.117180 818.165085 L551.361186 824.723781 L547.147909 787.717026 L569.818927 805.753439 L582.936318 789.265426 L595.302327 799.103469 L582.184936 815.591482 L604.855954 833.627894 L567.849199 837.841172 L576.093205 844.399867 L548.360958 855.991677 L553.513462 860.090861 Z" fill="#888" fill-opacity="0.18" stroke="#000" stroke-width="1"/>
  <path d="M301.571149 157.829394 L311.423413 190.619034 L304.874049 189.942687 L316.577262 217.628105 L306.098280 216.545950 L329.590349 245.448793 L300.773148 242.472867 L298.608838 263.430831 L282.890365 261.807599 L285.054674 240.849635 L256.237473 237.873709 L285.140316 214.381641 L274.661334 213.299486 L291.775321 188.589993 L285.225957 187.913647 Z" fill="#888" fill-opacity="0.18" stroke="#000" stroke-width="1"/>
  <path d="M388.676038 307.650216 L420.530991 320.199698 L415.947137 324.926207 L444.937654 332.863304 L437.603487 340.425719 L474.844942 339.855100 L454.675983 360.651741 L469.800813 375.320075 L458.799562 386.663697 L443.674732 371.995363 L423.505773 392.792005 L422.935153 355.550549 L415.600986 363.112964 L406.779428 334.379226 L402.195574 339.105736 Z" fill="#888" fill-opacity="0.18" stroke="#000" stroke-width="1"/>
  <path d="M561.872435 272.446587 L554.624118 238.984826 L561.100194 240.173125 L551.606024 211.654564 L561.967745 213.555842 L540.816638 182.898343 L569.311371 188.126859 L573.113928 167.403416 L588.656510 170.255334 L584.853953 190.978776 L613.348686 196.207292 L582.691187 217.358399 L593.052908 219.259677 L574.052346 242.549723 L580.528421 243.738022 Z" fill="#888" fill-opacity="0.18" stroke="#000" stroke-width="1"/>
  <path d="M66.776872 1037.607764 L81.505898 1006.700105 L85.903040 1011.600794 L95.832086 983.230711 L102.867513 991.071814 L104.881704 953.880490 L124.229127 975.443523 L139.911334 961.372670 L150.464474 973.134325 L134.782267 987.205178 L154.129691 1008.768212 L116.938366 1006.754020 L123.973793 1014.595124 L94.697323 1021.402173 L99.094465 1026.302863 Z" fill="#888" fill-opacity="0.18" stroke="#000" stroke-width="1"/>
  <path d="M932.279433 476.962898 L947.865492 507.447358 L941.301234 507.959347 L957.790554 533.090003 L947.287742 533.909185 L975.592726 558.118263 L946.709992 560.371011 L948.348354 581.376636 L932.594135 582.605408 L930.955773 561.599783 L902.073039 563.852531 L926.282117 535.547547 L915.779304 536.366728 L928.172719 508.983323 L921.608461 509.495311 Z" fill="#888" fill-opacity="0.18" stroke="#000" stroke-width="1"/>
  <path d="M497.653559 408.319749 L484.694973 376.629015 L491.279022 376.672663 L476.968707 350.240439 L487.503186 350.310277 L461.341582 323.799486 L490.311399 323.991538 L490.451074 302.922580 L506.252793 303.027336 L506.113118 324.096295 L535.082935 324.288347 L508.572144 350.449952 L519.106623 350.519789 L504.447121 376.759960 L511.031170 376.803609 Z" fill="#888" fill-opacity="0.18" stroke="#000" stroke-width="1"/>
  <path d="M89.558194 291.860432 L115.222602 269.198443 L117.347186 275.430438 L137.601081 253.221716 L141.000414 263.192908 L157.430060 229.766596 L166.778227 257.187373 L186.720610 250.388706 L191.819609 265.345494 L171.877226 272.144160 L181.225393 299.564937 L147.799081 283.135291 L151.198414 293.106482 L121.596352 287.894427 L123.720935 294.126422 Z" fill="#888" fill-opacity="0.18" stroke="#000" stroke-width="1"/>
  <path d="M139.352174 611.009030 L160.998659 637.535570 L154.688735 639.416119 L176.092765 660.518609 L165.996886 663.527487 L198.758781 681.244988 L170.995113 689.519405 L177.012870 709.711163 L161.869052 714.224481 L155.851294 694.032723 L128.087627 702.307139 L145.805128 669.545244 L135.709249 672.554123 L142.068886 643.177217 L135.758961 645.057766 Z" fill="#888" fill-opacity="0.18" stroke="#000" stroke-width="1"/>
  <path d="M328.285551 1009.531361 L294.835981 1016.835731 L296.013427 1010.357673 L267.510814 1019.899613 L269.394729 1009.534720 L238.772711 1030.737163 L243.953477 1002.233710 L223.223692 998.465880 L226.049565 982.918541 L246.779349 986.686371 L251.960116 958.182918 L273.162559 988.804936 L275.046474 978.440044 L298.368321 997.401558 L299.545768 990.923500 Z" fill="#888" fill-opacity="0.18" stroke="#000" stroke-width="1"/>
  <path d="M972.861745 335.300222 L941.965491 350.053157 L941.631853 343.477422 L916.062915 359.278594 L915.529094 348.757417 L890.560706 376.394913 L889.092696 347.461677 L868.050343 348.529320 L867.249610 332.747555 L888.291964 331.679911 L886.823955 302.746675 L914.461451 327.715063 L913.927629 317.193887 L940.964576 330.325951 L940.630937 323.750215 Z" fill="#888" fill-opacity="0.18" stroke="#000" stroke-width="1"/>
  <path d="M934.086194 892.217993 L923.986148 924.932159 L918.925945 920.719565 L913.208015 950.228087 L905.111689 943.487936 L908.502126 980.579128 L886.237230 962.043712 L872.756928 978.236364 L860.612440 968.126137 L874.092742 951.933486 L851.827846 933.398071 L888.919038 930.007634 L880.822712 923.267483 L908.805537 912.294376 L903.745334 908.081782 Z" fill="#888" fill-opacity="0.18" stroke="#000" stroke-width="1"/>
  <path d="M714.800731 227.359321 L745.872706 212.980173 L746.126995 219.559455 L771.884688 204.067882 L772.291549 214.594732 L797.591523 187.260451 L798.710392 216.209292 L819.764094 215.395569 L820.374386 231.185845 L799.320684 231.999568 L800.439553 260.948408 L773.105272 235.648434 L773.512134 246.175285 L746.635572 232.718019 L746.889860 239.297301 Z" fill="#888" fill-opacity="0.18" stroke="#000" stroke-width="1"/>
  <path d="M979.656079 700.506198 L946.730944 709.895718 L947.499457 703.356528 L919.651971 714.668696 L920.881591 704.205993 L891.650783 727.288702 L895.032237 698.516268 L874.106830 696.057028 L875.951260 680.362973 L896.876667 682.822212 L900.258121 654.049778 L923.340830 683.280586 L924.570450 672.817882 L949.036481 690.278149 L949.804994 683.738959 Z" fill="#888" fill-opacity="0.18" stroke="#000" stroke-width="1"/>
  <path d="M349.436546 842.720400 L375.084428 865.401090 L369.161237 868.276403 L393.693508 885.643479 L384.216402 890.243979 L419.410416 902.435492 L393.348376 915.086867 L402.549376 934.041078 L388.333718 940.941828 L379.132718 921.987617 L353.070679 934.638993 L365.262192 899.444979 L355.785086 904.045479 L357.314856 874.027028 L351.391665 876.902341 Z" fill="#888" fill-opacity="0.18" stroke="#000" stroke-width="1"/>
  <path d="M578.997300 702.782075 L590.595421 670.568550 L595.455949 675.010045 L602.528768 645.796644 L610.305612 652.903036 L608.629481 615.694943 L630.015804 635.237522 L644.228589 619.683832 L655.893856 630.343421 L641.681072 645.897110 L663.067395 665.439689 L625.859302 667.115821 L633.636147 674.222213 L605.177005 683.893036 L610.037533 688.334531 Z" fill="#888" fill-opacity="0.18" stroke="#000" stroke-width="1"/>
  <path d="M538.092887 505.700374 L529.829104 472.474820 L536.338358 473.465388 L525.980269 445.249123 L536.395075 446.834031 L514.320329 416.834745 L542.961047 421.193242 L546.130863 400.363629 L561.753073 402.740991 L558.583257 423.570604 L587.223975 427.929101 L557.224688 450.003847 L567.639495 451.588755 L549.356866 475.446523 L555.866120 476.437090 Z" fill="#888" fill-opacity="0.18" stroke="#000" stroke-width="1"/>
  <path d="M214.406021 398.902644 L185.753614 380.160521 L191.199879 376.460547 L164.418199 362.815430 L173.132224 356.895471 L136.547267 349.910308 L160.510833 333.630421 L148.670915 316.202373 L161.741951 307.322435 L173.581869 324.750483 L197.545435 308.470597 L190.560272 345.055553 L199.274296 339.135595 L202.092409 369.060598 L207.538674 365.360624 Z" fill="#888" fill-opacity="0.18" stroke="#000" stroke-width="1"/>
  <path d="M159.353286 857.460113 L192.316623 866.714623 L188.235694 871.881598 L217.881638 876.837970 L211.352151 885.105130 L248.343767 880.760946 L230.387679 903.495636 L246.921999 916.554609 L237.127769 928.955349 L220.593450 915.896376 L202.637362 938.631065 L198.293178 901.639449 L191.763692 909.906609 L180.073836 882.215548 L175.992907 887.382523 Z" fill="#888" fill-opacity="0.18" stroke="#000" stroke-width="1"/>
  <path d="M446.487450 910.917718 L448.878859 876.763527 L454.764853 879.714235 L453.618497 849.678698 L463.036088 854.399831 L451.294941 819.053020 L477.193318 832.036135 L486.635583 813.200952 L500.761971 820.282651 L491.319706 839.117834 L517.218083 852.100949 L481.871272 863.842097 L491.288863 868.563229 L466.536843 885.615651 L472.422838 888.566359 Z" fill="#888" fill-opacity="0.18" stroke="#000" stroke-width="1"/>
  <path d="M750.109941 724.100566 L749.549754 758.333792 L743.514284 755.702308 L746.266380 785.633455 L736.609628 781.423079 L750.225570 816.090899 L723.669501 804.512366 L715.248750 823.825871 L700.763621 817.510308 L709.184372 798.196803 L682.628304 786.618270 L717.296123 773.002328 L707.639371 768.791953 L731.443344 750.439338 L725.407874 747.807854 Z" fill="#888" fill-opacity="0.18" stroke="#000" stroke-width="1"/>
  <path d="M577.113004 351.630373 L604.699690 331.352249 L606.258922 337.749155 L628.416237 317.439035 L630.911008 327.674085 L650.261706 295.849533 L657.122325 323.995921 L677.592425 319.006379 L681.334581 334.358954 L660.864481 339.348495 L667.725100 367.494883 L635.900549 348.144184 L638.395320 358.379234 L609.377385 350.542967 L610.936617 356.939874 Z" fill="#888" fill-opacity="0.18" stroke="#000" stroke-width="1"/>
  <path d="M268.659742 352.907598 L243.954409 329.203715 L249.989516 326.571399 L226.183014 308.222065 L235.839186 304.010358 L201.169491 290.399194 L227.723964 278.817002 L219.300552 259.504658 L233.784810 253.187099 L242.208222 272.499443 L268.762695 260.917251 L255.151530 295.586946 L264.807703 291.375240 L262.059731 321.306766 L268.094839 318.674450 Z" fill="#888" fill-opacity="0.18" stroke="#000" stroke-width="1"/>
  <path d="M739.103568 200.953373 L704.891637 199.622446 L707.658364 193.647764 L677.672834 195.725155 L682.099598 186.165663 L647.133958 198.997483 L659.307559 172.708880 L640.188575 163.855352 L646.828721 149.516114 L665.947705 158.369642 L678.121306 132.081039 L690.953126 167.046679 L695.379890 157.487187 L713.191819 181.698399 L715.958547 175.723716 Z" fill="#888" fill-opacity="0.18" stroke="#000" stroke-width="1"/>
  <path d="M903.694214 799.451631 L932.339292 818.204954 L926.891581 821.902799 L953.667925 835.558384 L944.951588 841.474935 L981.533812 848.474399 L957.563884 864.744917 L969.396988 882.177592 L956.322481 891.052420 L944.489377 873.619745 L920.519449 889.890263 L927.518913 853.308039 L918.802575 859.224591 L915.996160 829.298489 L910.548449 832.996334 Z" fill="#888" fill-opacity="0.18" stroke="#000" stroke-width="1"/>
  <path d="M112.900191 175.235312 L125.161852 143.268466 L129.929513 147.809504 L137.604812 118.748579 L145.233068 126.014240 L144.326579 88.779446 L165.304285 108.760013 L179.835606 93.503500 L191.277991 104.401991 L176.746670 119.658504 L197.724376 139.639071 L160.489582 140.545561 L168.117839 147.811222 L139.464834 156.891580 L144.232494 161.432618 Z" fill="#888" fill-opacity="0.18" stroke="#000" stroke-width="1"/>
  <path d="M203.257720 242.381619 L210.223694 208.859943 L215.659052 212.575920 L218.565173 182.659335 L227.261747 188.604899 L220.384221 151.999555 L244.299799 168.349855 L256.190927 150.956707 L269.235788 159.875053 L257.344660 177.268200 L281.260239 193.618501 L244.654894 200.496026 L253.351468 206.441590 L226.529770 220.007875 L231.965129 223.723852 Z" fill="#888" fill-opacity="0.18" stroke="#000" stroke-width="1"/>
  <path d="M746.936098 657.760086 L776.793719 674.515684 L771.610948 678.576534 L799.256443 690.373746 L790.964010 696.871106 L827.938492 701.358788 L805.134302 719.226527 L818.129022 735.811393 L805.690373 745.557433 L792.695653 728.972567 L769.891463 746.840307 L774.379145 709.865826 L766.086712 716.363185 L761.245407 686.698234 L756.062637 690.759084 Z" fill="#888" fill-opacity="0.18" stroke="#000" stroke-width="1"/>
  <path d="M700.117192 695.685559 L687.857643 727.653215 L683.089683 723.112492 L675.416305 752.173925 L667.787568 744.908768 L668.696519 782.143502 L647.717492 762.164322 L633.187179 777.421795 L621.744074 766.524061 L636.274387 751.266587 L615.295360 731.287406 L652.530094 730.378455 L644.901357 723.113299 L673.553762 714.031047 L668.785801 709.490324 Z" fill="#888" fill-opacity="0.18" stroke="#000" stroke-width="1"/>
  <path d="M974.104159 1001.265584 L972.583118 967.061578 L978.767338 969.321453 L974.201553 939.612848 L984.096305 943.228648 L968.398924 909.452268 L995.609492 919.395717 L1002.841092 899.606213 L1017.683220 905.029913 L1010.451621 924.819417 L1037.662189 934.762866 L1003.885809 950.460247 L1013.780561 954.076047 L991.135778 973.841202 L997.319998 976.101077 Z" fill="#888" fill-opacity="0.18" stroke="#000" stroke-width="1"/>
  <path d="M762.509233 491.919904 L758.326736 525.901285 L752.603895 522.645415 L752.170663 552.699697 L743.014116 547.490304 L752.881999 583.405154 L727.701496 569.079322 L717.282709 587.392415 L703.547889 579.578325 L713.966676 561.265232 L688.786172 546.939400 L724.701023 537.071517 L715.544476 531.862123 L741.158211 516.133673 L735.435370 512.877802 Z" fill="#888" fill-opacity="0.18" stroke="#000" stroke-width="1"/>
  <path d="M774.321259 860.678125 L745.457328 879.092823 L744.323353 872.607014 L720.874864 891.411693 L719.060504 881.034400 L697.653170 911.513534 L692.663680 882.975977 L671.909092 886.604697 L669.187552 871.038756 L689.942139 867.410036 L684.952649 838.872478 L715.431783 860.279812 L713.617423 849.902519 L742.055403 859.635397 L740.921428 853.149589 Z" fill="#888" fill-opacity="0.18" stroke="#000" stroke-width="1"/>
  <path d="M1054.327404 932.974542 L1026.887836 912.497781 L1032.552318 909.141405 L1006.664955 893.867505 L1015.728126 888.497304 L979.644696 879.264880 L1004.568415 864.496827 L993.828013 846.370485 L1007.422769 838.315183 L1018.163172 856.441525 L1043.086891 841.673471 L1033.854467 877.756901 L1042.917638 872.386700 L1043.881281 902.428654 L1049.545763 899.072278 Z" fill="#888" fill-opacity="0.18" stroke="#000" stroke-width="1"/>
  <path d="M172.849108 804.455593 L149.443679 779.467326 L155.610637 777.160761 L132.817069 757.567373 L142.684201 753.876868 L108.790109 738.435298 L135.924724 728.286411 L128.543715 708.552146 L143.344414 703.016389 L150.725422 722.750654 L177.860037 712.601767 L162.418467 746.495860 L172.285599 742.805355 L167.944553 772.547630 L174.111511 770.241065 Z" fill="#888" fill-opacity="0.18" stroke="#000" stroke-width="1"/>
  <path d="M548.736987 116.245998 L541.706534 149.754210 L536.278335 146.027783 L533.314664 175.938722 L524.629545 169.976438 L531.436634 206.594946 L507.552555 190.198665 L495.627988 207.568904 L482.600309 198.625478 L494.524876 181.255239 L470.640798 164.858959 L507.259306 158.051870 L498.574187 152.089586 L525.421936 138.574928 L519.993736 134.848501 Z" fill="#888" fill-opacity="0.18" stroke="#000" stroke-width="1"/>
  <path d="M982.763771 746.688198 L985.791362 712.584514 L991.621336 715.644418 L991.035009 685.592732 L1000.362968 690.488579 L989.282687 654.929066 L1014.934573 668.392643 L1024.726266 649.736726 L1038.718204 657.080496 L1028.926511 675.736413 L1054.578398 689.199991 L1019.018885 700.280272 L1028.346844 705.176118 L1003.281285 721.764226 L1009.111259 724.824130 Z" fill="#888" fill-opacity="0.18" stroke="#000" stroke-width="1"/>
  <path d="M601.966952 777.570020 L633.537896 790.817777 L628.851095 795.442223 L657.659842 804.015650 L650.160959 811.414763 L687.405951 811.664187 L666.784022 832.011749 L681.582249 847.009515 L670.333925 858.108185 L655.535698 843.110419 L634.913770 863.457981 L635.163193 826.212990 L627.664310 833.612104 L619.477491 804.691115 L614.790689 809.315561 Z" fill="#888" fill-opacity="0.18" stroke="#000" stroke-width="1"/>
  <path d="M403.986865 204.777699 L398.872725 238.631401 L393.241457 235.219594 L391.983017 265.250643 L382.972988 259.791751 L391.850831 295.964054 L367.073251 280.952100 L356.155466 298.972159 L342.640423 290.783820 L353.558207 272.763762 L328.780627 257.751809 L364.952930 248.873967 L355.942901 243.415075 L381.978921 228.395978 L376.347653 224.984171 Z" fill="#888" fill-opacity="0.18" stroke="#000" stroke-width="1"/>
  <path d="M452.335665 87.722947 L435.413171 117.486293 L431.381400 112.280869 L419.429600 139.859884 L412.978767 131.531206 L408.284154 168.479984 L390.544363 145.576119 L373.887007 158.477784 L364.210757 145.984767 L380.868114 133.083101 L363.128323 110.179236 L400.077101 114.873849 L393.626268 106.545171 L423.317859 101.870021 L419.286089 96.664598 Z" fill="#888" fill-opacity="0.18" stroke="#000" stroke-width="1"/>
  <path d="M196.373402 667.293895 L228.118658 680.118335 L223.494109 684.805034 L252.414916 692.992495 L245.015636 700.491214 L282.260633 700.242616 L261.912614 720.864093 L276.910052 735.662652 L265.811132 746.910731 L250.813694 732.112171 L230.465675 752.733649 L230.217077 715.488652 L222.817797 722.987371 L214.245009 694.178433 L209.620459 698.865132 Z" fill="#888" fill-opacity="0.18" stroke="#000" stroke-width="1"/>
  <path d="M498.918282 455.830802 L520.450877 482.449873 L514.132951 484.303361 L535.446341 505.497393 L525.337658 508.462974 L558.023316 526.320727 L530.224440 534.476074 L536.155601 554.693439 L520.992578 559.141810 L515.061416 538.924446 L487.262540 547.079793 L505.120294 514.394135 L495.011612 517.359716 L501.497098 488.010337 L495.179171 489.863825 Z" fill="#888" fill-opacity="0.18" stroke="#000" stroke-width="1"/>
  <path d="M362.013075 842.829258 L350.690879 810.517721 L357.264095 810.897770 L344.323216 783.768796 L354.840363 784.376875 L330.067694 756.563812 L358.989846 758.236029 L360.206004 737.201736 L375.981723 738.113854 L374.765566 759.148147 L403.687718 760.820364 L375.874655 785.593032 L386.391801 786.201111 L370.410528 811.657869 L376.983745 812.037918 Z" fill="#888" fill-opacity="0.18" stroke="#000" stroke-width="1"/>
  <path d="M401.775436 710.904961 L367.562533 712.210675 L369.861290 706.040802 L340.124534 710.419495 L343.802545 700.547699 L309.928027 716.032163 L320.042557 688.884723 L300.298964 681.528701 L305.815980 666.721007 L325.559573 674.077028 L335.674102 646.929588 L351.158566 680.804106 L354.836577 670.932310 L374.458803 693.701057 L376.757560 687.531184 Z" fill="#888" fill-opacity="0.18" stroke="#000" stroke-width="1"/>
  <path d="M811.537212 953.957970 L792.225693 925.686202 L798.672717 924.349229 L779.141372 901.502475 L789.456610 899.363318 L758.320623 878.923116 L786.687527 873.040434 L782.409213 852.409958 L797.882070 849.201223 L802.160384 869.831699 L830.527288 863.949017 L810.087086 895.085004 L820.402324 892.945847 L811.566764 921.675283 L818.013788 920.338310 Z" fill="#888" fill-opacity="0.18" stroke="#000" stroke-width="1"/>
  <path d="M586.264857 368.467683 L615.773897 385.829830 L610.509238 389.783939 L637.907923 402.143537 L629.484468 408.470111 L666.359540 413.712313 L643.195039 431.110391 L655.848187 447.957301 L643.213004 457.447161 L630.559857 440.600252 L607.395356 457.998330 L612.637559 421.123258 L604.214104 427.449832 L599.979920 397.692156 L594.715260 401.646265 Z" fill="#888" fill-opacity="0.18" stroke="#000" stroke-width="1"/>
  <path d="M459.485948 645.227030 L493.374918 650.102000 L490.002958 655.757218 L520.042145 656.803576 L514.647009 665.851926 L550.755723 656.718891 L535.919100 681.601853 L554.015800 692.392124 L545.923096 705.964649 L527.826396 695.174378 L512.989773 720.057341 L503.856738 683.948626 L498.461602 692.996976 L483.259038 667.067656 L479.887079 672.722875 Z" fill="#888" fill-opacity="0.18" stroke="#000" stroke-width="1"/>
  <path d="M394.463566 780.943943 L415.646203 807.842334 L409.304577 809.613040 L430.338975 831.083990 L420.192374 833.917119 L452.641698 852.200799 L424.738546 859.991903 L430.404803 880.285105 L415.184902 884.534798 L409.518644 864.241596 L381.615492 872.032700 L399.899172 839.583376 L389.752572 842.416505 L396.621326 813.154451 L390.279701 814.925156 Z" fill="#888" fill-opacity="0.18" stroke="#000" stroke-width="1"/>
  <path d="M553.528160 1026.692905 L538.140813 996.107661 L544.708263 995.638402 L528.382834 970.400970 L538.890755 969.650155 L510.743914 945.257391 L539.640696 943.192649 L538.139065 922.176807 L553.900947 921.050584 L555.402578 942.066426 L584.299360 940.001683 L559.906596 968.148524 L570.414517 967.397709 L557.843165 994.699882 L564.410615 994.230623 Z" fill="#888" fill-opacity="0.18" stroke="#000" stroke-width="1"/>
  <path d="M968.342800 42.419864 L944.751645 67.232864 L942.091878 61.209804 L923.851124 85.099602 L919.595497 75.462706 L906.142323 110.194013 L894.439350 83.692548 L875.165558 92.203802 L868.782118 77.748457 L888.055910 69.237204 L876.352937 42.735739 L911.084244 56.188914 L906.828618 46.552017 L936.772345 49.163683 L934.112578 43.140623 Z" fill="#888" fill-opacity="0.18" stroke="#000" stroke-width="1"/>
  <path d="M67.066070 273.564260 L78.726635 241.373285 L83.578541 245.824197 L90.707995 216.624566 L98.471045 223.746025 L96.867067 186.534752 L118.215455 206.118764 L132.458373 190.592664 L144.102949 201.274853 L129.860030 216.800953 L151.208418 236.384966 L113.997145 237.988943 L121.760195 245.110402 L93.282354 254.726021 L98.134260 259.176933 Z" fill="#888" fill-opacity="0.18" stroke="#000" stroke-width="1"/>
  <path d="M430.475021 256.561590 L426.736071 222.528549 L433.053988 224.382067 L426.568641 195.032657 L436.677309 197.998286 L418.819709 165.312544 L446.618547 173.468022 L452.549804 153.250686 L467.712807 157.699128 L461.781550 177.916465 L489.580387 186.071943 L456.894645 203.929543 L467.003314 206.895171 L445.689824 228.089103 L452.007741 229.942621 Z" fill="#888" fill-opacity="0.18" stroke="#000" stroke-width="1"/>
  <path d="M454.288679 315.081061 L463.579685 282.127991 L468.742138 286.214640 L473.731335 256.574203 L481.991259 263.112840 L477.688041 226.116436 L500.402833 244.097688 L513.480108 227.577840 L525.869994 237.385796 L512.792720 253.905644 L535.507512 271.886897 L498.511108 276.190114 L506.771032 282.728752 L479.067043 294.387936 L484.229496 298.474584 Z" fill="#888" fill-opacity="0.18" stroke="#000" stroke-width="1"/>
  <path d="M336.105465 461.763064 L331.780424 427.799531 L338.129354 429.543868 L331.139057 400.310610 L341.297344 403.101549 L322.878976 370.728485 L350.814264 378.403568 L356.396142 358.086994 L371.633572 362.273403 L366.051693 382.589976 L393.986981 390.265059 L361.613917 408.683427 L371.772204 411.474367 L350.827212 433.032542 L357.176141 434.776878 Z" fill="#888" fill-opacity="0.18" stroke="#000" stroke-width="1"/>
  <path d="M115.928884 415.965650 L91.691921 391.783070 L97.777361 389.269303 L74.334324 370.457828 L84.071029 366.435800 L49.674198 352.149106 L76.450137 341.088531 L68.406082 321.615121 L83.011140 315.582080 L91.055194 335.055490 L117.831133 323.994915 L103.544439 358.391746 L113.281144 354.369719 L109.948242 384.241768 L116.033683 381.728001 Z" fill="#888" fill-opacity="0.18" stroke="#000" stroke-width="1"/>
  <path d="M621.470118 991.460705 L617.233565 957.486020 L623.577929 959.246890 L616.663807 929.995522 L626.814789 932.812913 L608.480813 900.391980 L636.396013 908.139807 L642.030795 887.837843 L657.257268 892.063930 L651.622485 912.365894 L679.537686 920.113720 L647.116753 938.447696 L657.267734 941.265087 L636.266656 962.768629 L642.611020 964.529499 Z" fill="#888" fill-opacity="0.18" stroke="#000" stroke-width="1"/>
  <path d="M828.305434 390.966986 L820.338789 357.668936 L826.838935 358.717612 L816.733320 330.409943 L827.133552 332.087825 L805.327676 301.892539 L833.928315 306.506714 L837.284079 285.706249 L852.884428 288.223072 L849.528664 309.023537 L878.129304 313.637712 L847.934018 335.443589 L858.334250 337.121471 L839.839226 360.814965 L846.339371 361.863641 Z" fill="#888" fill-opacity="0.18" stroke="#000" stroke-width="1"/>
  <path d="M838.972494 650.977071 L840.167949 616.760139 L846.153539 619.503188 L843.957436 589.526118 L853.534381 593.914997 L840.564216 559.000438 L866.900814 571.069854 L875.678571 551.915965 L890.043988 558.499282 L881.266231 577.653172 L907.602829 589.722588 L872.688271 602.692754 L882.265216 607.081632 L858.124720 624.989286 L864.110311 627.732335 Z" fill="#888" fill-opacity="0.18" stroke="#000" stroke-width="1"/>
  <path d="M934.490636 263.253213 L968.404550 267.951514 L965.062107 273.624228 L995.106338 274.514031 L989.758429 283.590373 L1025.819058 274.269291 L1011.112307 299.229232 L1029.264992 309.925051 L1021.243128 323.539565 L1003.090443 312.843746 L988.383692 337.803687 L979.062610 301.743058 L973.714700 310.819400 L958.377220 284.969656 L955.034777 290.642370 Z" fill="#888" fill-opacity="0.18" stroke="#000" stroke-width="1"/>
  <path d="M372.718941 334.853490 L339.482393 326.634033 L343.399793 321.342002 L313.613390 317.314871 L319.881229 308.847622 L283.043507 314.346146 L300.280066 291.061210 L283.345567 278.525531 L292.747326 265.824657 L309.681825 278.360336 L326.918384 255.075400 L332.416909 291.913123 L338.684748 283.445874 L351.234592 310.757941 L355.151992 305.465910 Z" fill="#888" fill-opacity="0.18" stroke="#000" stroke-width="1"/>
  <path d="M957.116508 1047.794606 L982.514887 1024.834861 L984.712003 1031.041656 L1004.705525 1008.598245 L1008.220910 1018.529115 L1024.259623 984.913475 L1033.926933 1012.223369 L1053.788674 1005.192598 L1059.061753 1020.088904 L1039.200012 1027.119675 L1048.867322 1054.429569 L1015.251681 1038.390856 L1018.767067 1048.321727 L989.106235 1043.455244 L991.303351 1049.662038 Z" fill="#888" fill-opacity="0.18" stroke="#000" stroke-width="1"/>
  <path d="M797.400464 97.692624 L787.294231 130.404879 L782.234824 126.191328 L776.511313 155.698768 L768.416262 148.957085 L771.799683 186.048918 L749.538294 167.509292 L736.054929 183.699393 L723.912353 173.586870 L737.395718 157.396768 L715.134328 138.857142 L752.226161 135.473721 L744.131110 128.732038 L772.116011 117.764225 L767.056604 113.550673 Z" fill="#888" fill-opacity="0.18" stroke="#000" stroke-width="1"/>
  <path d="M180.155032 1036.193700 L165.066645 1005.459872 L171.638359 1005.054672 L155.559789 979.659256 L166.074532 979.010936 L138.166877 954.344879 L167.082418 952.562000 L165.785779 931.532515 L181.557893 930.560036 L182.854532 951.589521 L211.770074 949.806642 L187.104017 977.714297 L197.618759 977.065977 L184.781787 1004.244273 L191.353501 1003.839073 Z" fill="#888" fill-opacity="0.18" stroke="#000" stroke-width="1"/>
  <path d="M210.171160 433.029574 L225.055264 463.862853 L218.481005 464.224433 L234.390696 489.725989 L223.871883 490.304518 L251.615238 515.155228 L222.688502 516.746183 L223.845559 537.783809 L208.067340 538.651603 L206.910282 517.613976 L177.983545 519.204931 L202.834256 491.461576 L192.315443 492.040104 L205.332489 464.947594 L198.758231 465.309175 Z" fill="#888" fill-opacity="0.18" stroke="#000" stroke-width="1"/>
  <path d="M651.987267 557.261691 L618.725003 565.376453 L619.744739 558.871705 L591.482327 569.103206 L593.113904 558.695609 L563.015967 580.635657 L567.502806 552.014765 L546.687611 548.751609 L549.134978 533.140213 L569.950173 536.403369 L574.437012 507.782477 L596.377060 537.880415 L598.008638 527.472817 L621.784212 545.862209 L622.803948 539.357460 Z" fill="#888" fill-opacity="0.18" stroke="#000" stroke-width="1"/>
  <path d="M666.137854 947.716591 L693.693841 927.396769 L695.262745 933.791309 L717.389318 913.447702 L719.899565 923.678967 L739.202111 891.825187 L746.105290 919.961166 L766.567820 914.940672 L770.333191 930.287570 L749.870660 935.308064 L756.773839 963.444043 L724.920059 944.141498 L727.430306 954.372763 L698.400554 946.580391 L699.969458 952.974931 Z" fill="#888" fill-opacity="0.18" stroke="#000" stroke-width="1"/>
  <path d="M920.476323 238.074338 L900.699301 210.126226 L907.123301 208.682680 L887.216315 186.162478 L897.494717 183.852804 L866.024529 163.930985 L894.290133 157.579382 L889.670786 137.022580 L905.088388 133.558069 L909.707735 154.114872 L937.973339 147.763269 L918.051519 179.233457 L928.329921 176.923783 L919.971303 205.795588 L926.395304 204.352042 Z" fill="#888" fill-opacity="0.18" stroke="#000" stroke-width="1"/>
  <path d="M471.866683 716.453788 L506.032248 718.676788 L503.110594 724.577259 L533.140114 723.282841 L528.465467 732.723594 L563.753965 720.808330 L550.898686 746.770399 L569.780191 756.119692 L562.768221 770.280821 L543.886716 760.931527 L531.031437 786.893596 L519.116174 751.605098 L514.441527 761.045850 L497.267286 736.378199 L494.345631 742.278669 Z" fill="#888" fill-opacity="0.18" stroke="#000" stroke-width="1"/>
  <path d="M896.665027 776.624895 L901.027236 810.583674 L894.676401 808.846287 L901.698687 838.071877 L891.537352 835.292057 L909.991139 867.644944 L882.047468 860.000439 L876.487828 880.323109 L861.245826 876.153379 L866.805466 855.830709 L838.861795 848.186204 L871.214682 829.732417 L861.053347 826.952597 L881.974733 805.371512 L875.623898 803.634124 Z" fill="#888" fill-opacity="0.18" stroke="#000" stroke-width="1"/>
  <path d="M833.788650 503.760773 L799.798885 499.646958 L803.043184 493.917549 L772.988087 493.545055 L778.178965 484.377999 L742.284131 494.318444 L756.559045 469.109040 L738.224934 458.727284 L746.011251 444.976701 L764.345362 455.358457 L778.620277 430.149053 L788.560721 466.043888 L793.751599 456.876832 L809.531782 482.458729 L812.776080 476.729319 Z" fill="#888" fill-opacity="0.18" stroke="#000" stroke-width="1"/>
  <path d="M654.639366 685.393350 L678.592948 660.930041 L681.163833 666.991572 L699.754012 643.372664 L703.867428 653.071115 L717.830015 618.541450 L729.141908 645.212189 L748.538809 636.985358 L754.708932 651.533034 L735.312031 659.759864 L746.623923 686.430603 L712.094259 672.468015 L716.207674 682.166466 L686.305602 679.114635 L688.876486 685.176167 Z" fill="#888" fill-opacity="0.18" stroke="#000" stroke-width="1"/>
  <path d="M1023.495096 144.647689 L989.751503 138.851353 L993.276266 133.290089 L963.276731 131.425817 L968.916352 122.527795 L932.572244 130.673798 L948.081202 106.204237 L930.285157 94.924995 L938.744589 81.577961 L956.540633 92.857203 L972.049591 68.387642 L980.195594 104.731751 L985.835216 95.833728 L1000.325792 122.167562 L1003.850556 116.606298 Z" fill="#888" fill-opacity="0.18" stroke="#000" stroke-width="1"/>
  <path d="M253.288454 48.241287 L287.437502 45.777518 L285.349040 52.021710 L314.920426 46.638333 L311.578887 56.629041 L344.909504 40.006118 L335.720272 67.480565 L355.701688 74.163642 L350.689380 89.149704 L330.707964 82.466627 L321.518733 109.941074 L304.895810 76.610457 L301.554271 86.601165 L281.172117 64.510095 L279.083655 70.754288 Z" fill="#888" fill-opacity="0.18" stroke="#000" stroke-width="1"/>
  <path d="M689.441923 209.761242 L711.998495 235.518350 L705.757842 237.617364 L727.883334 257.962147 L717.898289 261.320569 L751.256957 277.887127 L723.798083 287.122787 L730.514926 307.092878 L715.537359 312.130511 L708.820515 292.160420 L681.361640 301.396081 L697.928198 268.037413 L687.943153 271.395835 L693.276536 241.815391 L687.035882 243.914405 Z" fill="#888" fill-opacity="0.18" stroke="#000" stroke-width="1"/>
  <path d="M635.503581 119.686034 L658.772041 94.570175 L661.509438 100.558353 L679.439876 76.434776 L683.819710 86.015860 L696.822835 51.113563 L708.867380 77.461545 L728.029549 68.701876 L734.599300 83.073503 L715.437132 91.833172 L727.481676 118.181154 L692.579379 105.178029 L696.959214 114.759113 L666.984231 112.534708 L669.721627 118.522886 Z" fill="#888" fill-opacity="0.18" stroke="#000" stroke-width="1"/>
  <path d="M850.428291 836.583456 L839.238756 804.225738 L845.810358 804.632752 L832.980892 777.450913 L843.495455 778.102136 L818.837105 750.187671 L847.752153 751.978534 L849.054599 730.949408 L864.826443 731.926243 L863.523997 752.955369 L892.439046 754.746232 L864.524581 779.404582 L875.039144 780.055805 L858.953562 805.446781 L865.525164 805.853796 Z" fill="#888" fill-opacity="0.18" stroke="#000" stroke-width="1"/>
  <path d="M672.929467 394.779155 L705.166932 383.247745 L704.829500 389.823287 L731.874018 376.706823 L731.334127 387.227690 L758.986023 362.275251 L757.501322 391.207636 L778.543056 392.287419 L777.733219 408.068719 L756.691485 406.988936 L755.206783 435.921321 L730.254344 408.269425 L729.714453 418.790292 L704.154636 402.974371 L703.817204 409.549913 Z" fill="#888" fill-opacity="0.18" stroke="#000" stroke-width="1"/>
  <path d="M275.663109 874.236408 L264.857884 841.748338 L271.424200 842.233215 L258.917811 814.901222 L269.423917 815.677025 L245.098159 787.472254 L273.989949 789.605711 L275.541554 768.593499 L291.300713 769.757203 L289.749108 790.769414 L318.640899 792.902871 L290.436128 817.228629 L300.942234 818.004432 L284.556833 843.202968 L291.123149 843.687844 Z" fill="#888" fill-opacity="0.18" stroke="#000" stroke-width="1"/>
  <path d="M501.786253 910.007357 L529.710128 890.196129 L531.161539 896.618357 L553.657350 876.683812 L555.979607 886.959378 L575.862878 855.464821 L582.249085 883.722627 L602.800216 879.078113 L606.283602 894.491461 L585.732471 899.135975 L592.118677 927.393781 L560.624121 907.510509 L562.946378 917.786075 L534.064360 909.462814 L535.515771 915.885043 Z" fill="#888" fill-opacity="0.18" stroke="#000" stroke-width="1"/>
  <path d="M563.538351 151.230797 L552.753492 118.735960 L559.319503 119.224952 L546.830248 91.885126 L557.335865 92.667513 L533.027791 64.447501 L561.918239 66.599067 L563.483014 45.587832 L579.241440 46.761413 L577.676665 67.772648 L606.567112 69.924214 L578.347100 94.232289 L588.852718 95.014676 L572.451525 120.202937 L579.017536 120.691929 Z" fill="#888" fill-opacity="0.18" stroke="#000" stroke-width="1"/>
  <path d="M780.558430 554.089484 L792.040433 586.344579 L785.465416 585.997073 L798.540427 613.061656 L788.020400 612.505646 L812.930442 640.195741 L784.000367 638.666712 L782.888346 659.706767 L767.108304 658.872751 L768.220325 637.832696 L739.290250 636.303667 L766.980345 611.393624 L756.460317 610.837614 L772.315381 585.302060 L765.740364 584.954553 Z" fill="#888" fill-opacity="0.18" stroke="#000" stroke-width="1"/>
  <path d="M370.749034 527.421616 L352.606825 556.457591 L348.794389 551.089449 L335.709180 578.149104 L329.609283 569.560077 L323.386459 606.282387 L306.611742 582.662563 L289.433688 594.862358 L280.283843 581.978817 L297.461896 569.779023 L280.687179 546.159199 L317.409489 552.382024 L311.309592 543.792997 L341.169518 540.353166 L337.357082 534.985024 Z" fill="#888" fill-opacity="0.18" stroke="#000" stroke-width="1"/>
  <path d="M399.549657 676.083517 L387.919624 643.881499 L394.496168 644.198803 L381.296984 617.194560 L391.819455 617.702245 L366.782492 590.126856 L395.719285 591.522990 L396.734656 570.478049 L412.518361 571.239577 L411.502991 592.284518 L440.439784 593.680652 L412.864395 618.717615 L423.386866 619.225300 L407.649256 644.833409 L414.225800 645.150712 Z" fill="#888" fill-opacity="0.18" stroke="#000" stroke-width="1"/>
  <path d="M301.928434 611.156139 L267.695006 611.703823 L270.129842 605.586374 L240.303406 609.305417 L244.199144 599.517498 L209.990002 614.247949 L220.703282 587.331173 L201.127444 579.539697 L206.971052 564.857819 L226.546889 572.649295 L237.260169 545.732519 L251.990620 579.941661 L255.886358 570.153742 L274.999515 593.351475 L277.434351 587.234026 Z" fill="#888" fill-opacity="0.18" stroke="#000" stroke-width="1"/>
  <path d="M65.501754 435.804904 L99.271195 441.448703 L95.771598 447.025837 L125.779250 448.754531 L120.179894 457.677946 L156.486822 449.367797 L141.088594 473.907189 L158.935424 485.105901 L150.536391 498.491024 L132.689560 487.292312 L117.291331 511.831705 L108.981183 475.524777 L103.381827 484.448192 L88.772403 458.180106 L85.272805 463.757241 Z" fill="#888" fill-opacity="0.18" stroke="#000" stroke-width="1"/>
  <path d="M445.881024 140.209437 L448.262578 106.054557 L454.149423 109.003567 L452.994400 78.968362 L462.413354 83.686778 L450.662008 48.343356 L476.564130 61.318998 L486.000961 42.481091 L500.129391 49.558713 L490.692560 68.396620 L516.594683 81.372262 L481.251261 93.123608 L490.670214 97.842023 L465.923115 114.901586 L471.809961 117.850595 Z" fill="#888" fill-opacity="0.18" stroke="#000" stroke-width="1"/>
  <path d="M1031.072664 723.896712 L1028.896065 758.065265 L1022.991632 755.151627 L1024.326830 785.179361 L1014.879738 780.517540 L1026.842915 815.789824 L1000.863412 802.969815 L991.539769 821.863999 L977.369131 814.871267 L986.692774 795.977083 L960.713271 783.157074 L995.985554 771.193897 L986.538462 766.532076 L1011.182767 749.324350 L1005.278335 746.410712 Z" fill="#888" fill-opacity="0.18" stroke="#000" stroke-width="1"/>
  <path d="M532.653754 378.080944 L535.025515 343.925384 L540.913207 346.872705 L539.749573 316.837833 L549.169878 321.553548 L537.408400 286.213496 L563.314242 299.181712 L572.745671 280.341100 L586.876130 287.414672 L577.444700 306.255284 L603.350541 319.223499 L568.010490 330.984977 L577.430796 335.700692 L552.688589 352.767349 L558.576280 355.714670 Z" fill="#888" fill-opacity="0.18" stroke="#000" stroke-width="1"/>
  <path d="M222.146192 627.008315 L255.840780 620.933587 L254.426931 627.364189 L283.259807 618.872261 L280.997649 629.161224 L312.375453 609.094213 L306.154517 637.388862 L326.732443 641.913179 L323.339205 657.346624 L302.761279 652.822307 L296.540342 681.116956 L276.473331 649.739151 L274.211172 660.028114 L251.599233 640.225393 L250.185383 646.655995 Z" fill="#888" fill-opacity="0.18" stroke="#000" stroke-width="1"/>
  <path d="M500.452055 429.869308 L469.382232 444.253106 L469.126959 437.673862 L443.371585 453.169291 L442.963148 442.642501 L417.667266 469.980568 L416.544064 441.031896 L395.490484 441.848770 L394.877829 426.058585 L415.931408 425.241711 L414.808207 396.293039 L442.146274 421.588921 L441.737837 411.062131 L468.616413 424.515375 L468.361139 417.936131 Z" fill="#888" fill-opacity="0.18" stroke="#000" stroke-width="1"/>
  <path d="M99.375337 694.898054 L82.186253 665.287870 L88.713880 664.426656 L70.908242 640.210817 L81.352446 638.832874 L51.797078 616.167221 L80.518640 612.377878 L77.762754 591.489470 L93.429060 589.422555 L96.184946 610.310964 L124.906507 606.521620 L102.240854 636.076988 L112.685059 634.699045 L101.769136 662.704227 L108.296763 661.843013 Z" fill="#888" fill-opacity="0.18" stroke="#000" stroke-width="1"/>
  <path d="M214.246110 741.139003 L222.376082 774.397553 L215.870868 773.380791 L226.115293 801.638522 L215.706950 800.011704 L237.660759 830.099606 L209.037818 825.625855 L205.784181 846.442539 L190.171668 844.002311 L193.425305 823.185627 L164.802364 818.711876 L194.890266 796.758067 L184.481924 795.131248 L202.860441 771.347268 L196.355227 770.330506 Z" fill="#888" fill-opacity="0.18" stroke="#000" stroke-width="1"/>
  <path d="M942.905880 161.273824 L976.266259 153.572352 L975.165901 160.063948 L1003.553075 150.183870 L1001.792501 160.570424 L1032.160320 139.005472 L1027.318743 167.568496 L1048.091852 171.089643 L1045.450992 186.669474 L1024.677883 183.148327 L1019.836306 211.711351 L998.271355 181.343532 L996.510781 191.730087 L972.965184 173.047141 L971.864826 179.538737 Z" fill="#888" fill-opacity="0.18" stroke="#000" stroke-width="1"/>
  <path d="M455.051788 1016.901433 L429.874738 993.699198 L435.855686 990.946040 L411.684971 973.079195 L421.254488 968.674143 L386.318068 955.762981 L412.634238 943.649089 L403.824135 924.510056 L418.178410 917.902479 L426.988513 937.041512 L453.304683 924.927620 L440.393521 959.864040 L449.963038 955.458988 L447.817581 985.439726 L453.798529 982.686569 Z" fill="#888" fill-opacity="0.18" stroke="#000" stroke-width="1"/>
  <path d="M782.478094 410.849462 L813.849329 397.135482 L813.963406 403.718688 L840.045260 388.779329 L840.227783 399.312458 L866.104299 372.523328 L866.606237 401.489434 L887.672495 401.124388 L887.946279 416.924082 L866.880020 417.289128 L867.381958 446.255233 L840.592828 420.378717 L840.775351 430.911846 L814.191559 416.885100 L814.305635 423.468305 Z" fill="#888" fill-opacity="0.18" stroke="#000" stroke-width="1"/>
  <path d="M645.233698 506.382871 L662.894262 477.051453 L666.794768 482.355948 L679.431635 455.084036 L685.672444 463.571228 L691.288401 426.751225 L708.450626 450.091003 L725.425010 437.609384 L734.786224 450.340172 L717.811840 462.821791 L734.974066 486.161568 L698.154063 480.545612 L704.394872 489.032804 L674.595780 492.964938 L678.496285 498.269433 Z" fill="#888" fill-opacity="0.18" stroke="#000" stroke-width="1"/>
  <path d="M432.877393 1048.173718 L398.641424 1048.528652 L401.110664 1042.425009 L371.263761 1045.976064 L375.214546 1036.210234 L340.923011 1050.747848 L351.787667 1023.891816 L332.256008 1015.990247 L338.182184 1001.341503 L357.713844 1009.243071 L368.578500 982.387040 L383.116114 1016.678575 L387.066898 1006.912745 L406.049144 1030.217721 L408.518385 1024.114078 Z" fill="#888" fill-opacity="0.18" stroke="#000" stroke-width="1"/>
</svg>
