<?xml version="1.0" encoding="UTF-8"?>
<svg xmlns="http://www.w3.org/2000/svg" width="1100" height="1100" viewBox="0 0 1100 1100">
  <rect x="0" y="0" width="1100" height="1100" fill="white"/>
  <text x="10.0" y="18.0" font-family="monospace" font-size="12">prefix=N128_job5048530_task128 run_id=128 L=9.54386216301 feas=0.000e+00 N=128</text>
  <rect x="40.000000" y="40.000000" width="1020.000000" height="1020.000000" fill="none" stroke="#000" stroke-width="2"/>
  <path d="M189.509717 527.486555 L161.459614 547.972353 L159.897793 541.477823 L137.355679 562.013070 L134.856766 551.621823 L115.125928 583.847224 L108.253918 555.271292 L87.471423 560.269118 L83.723054 544.682246 L104.505549 539.684420 L97.633540 511.108489 L129.858941 530.839327 L127.360028 520.448079 L156.774153 528.488763 L155.212332 521.994233 Z" fill="#888" fill-opacity="0.18" stroke="#000" stroke-width="1"/>
  <path d="M154.121307 477.182978 L155.512945 442.476501 L161.570926 445.290585 L159.499702 414.867677 L169.192472 419.370210 L156.216881 383.881952 L182.871998 396.263919 L191.877065 376.878379 L206.416220 383.632179 L197.411153 403.017719 L224.066270 415.399686 L188.578011 428.375277 L198.270781 432.877811 L173.686889 450.918752 L179.744870 453.732835 Z" fill="#888" fill-opacity="0.18" stroke="#000" stroke-width="1"/>
  <path d="M423.593807 219.007513 L398.618906 194.867701 L404.751336 192.219776 L380.668290 173.515493 L390.480177 169.278812 L355.358757 155.340795 L382.341448 143.689924 L373.868087 124.066149 L388.585918 117.711128 L397.059279 137.334903 L424.041969 125.684032 L410.103952 160.805451 L419.915839 156.568771 L417.016195 186.923925 L423.148625 184.276000 Z" fill="#888" fill-opacity="0.18" stroke="#000" stroke-width="1"/>
  <path d="M227.174250 898.867410 L203.739270 873.229978 L210.023650 870.966182 L187.142832 850.809014 L197.197839 847.186940 L163.005137 831.104604 L190.656408 821.143903 L183.412262 801.033887 L198.494774 795.600777 L205.738920 815.710793 L233.390191 805.750091 L217.307855 839.942794 L227.362863 836.320721 L222.592410 866.438591 L228.876790 864.174795 Z" fill="#888" fill-opacity="0.18" stroke="#000" stroke-width="1"/>
  <path d="M318.008080 487.271822 L303.729090 518.935471 L299.164463 514.058753 L289.699773 543.046043 L282.396368 535.243294 L281.148009 573.008676 L261.063647 551.551118 L245.458150 566.157927 L234.503043 554.453804 L250.108540 539.846996 L230.024178 518.389438 L267.789560 519.637798 L260.486155 511.835049 L290.035207 504.305317 L285.470579 499.428600 Z" fill="#888" fill-opacity="0.18" stroke="#000" stroke-width="1"/>
  <path d="M981.017042 524.958540 L985.199080 490.476853 L991.010767 493.769647 L991.396232 463.278751 L1000.694931 468.547222 L990.619360 432.129296 L1016.190783 446.617591 L1026.727725 428.020192 L1040.675774 435.922898 L1030.138832 454.520297 L1055.710256 469.008592 L1019.292330 479.084164 L1028.591030 484.352634 L1002.634141 500.355236 L1008.445828 503.648030 Z" fill="#888" fill-opacity="0.18" stroke="#000" stroke-width="1"/>
  <path d="M902.629109 928.634992 L932.943135 945.591878 L927.690875 949.718858 L955.753770 961.648540 L947.350154 968.251709 L984.867116 972.752825 L961.757173 990.911540 L974.963511 1007.718771 L962.358088 1017.623525 L949.151749 1000.816294 L926.041807 1018.975009 L930.542923 981.458047 L922.139307 988.061216 L917.186356 957.972820 L911.934096 962.099800 Z" fill="#888" fill-opacity="0.18" stroke="#000" stroke-width="1"/>
  <path d="M869.031555 50.827427 L883.071898 82.597617 L876.393732 82.740119 L891.655706 109.139276 L880.970641 109.367280 L908.253313 135.509933 L878.869385 136.136943 L879.325392 157.507073 L863.297795 157.849078 L862.841787 136.478949 L833.457859 137.105959 L859.600512 109.823288 L848.915447 110.051292 L863.037401 83.025124 L856.359236 83.167627 Z" fill="#888" fill-opacity="0.18" stroke="#000" stroke-width="1"/>
  <path d="M42.265800 360.593229 L49.510467 326.622786 L55.004875 330.421429 L58.111747 300.086784 L66.902799 306.164612 L60.119737 268.992411 L84.295132 285.706437 L96.450787 268.124331 L109.637366 277.241073 L97.481711 294.823178 L121.657105 311.537204 L84.484905 318.320267 L93.275957 324.398094 L65.993691 338.018713 L71.488099 341.817355 Z" fill="#888" fill-opacity="0.18" stroke="#000" stroke-width="1"/>
  <path d="M133.160639 978.619263 L134.366624 943.905839 L140.439570 946.687480 L138.205654 916.276086 L147.922367 920.726711 L134.757148 885.308362 L161.478111 897.547584 L170.379362 878.114156 L184.954433 884.790095 L176.053181 904.223522 L202.774144 916.462744 L167.355795 929.627963 L177.072509 934.078589 L152.585463 952.250763 L158.658409 955.032404 Z" fill="#888" fill-opacity="0.18" stroke="#000" stroke-width="1"/>
  <path d="M189.368217 567.183132 L186.182458 532.595170 L192.557966 534.587932 L186.502895 504.701824 L196.703708 507.890243 L179.172724 474.417164 L207.224959 483.185316 L213.601797 462.783691 L228.903016 467.566319 L222.526178 487.967945 L250.578413 496.736097 L217.105334 514.267081 L227.306146 517.455500 L205.308982 538.573456 L211.684490 540.566218 Z" fill="#888" fill-opacity="0.18" stroke="#000" stroke-width="1"/>
  <path d="M686.555973 705.311880 L681.668791 739.700710 L675.925743 736.289610 L674.916050 766.766222 L665.727173 761.308462 L675.054967 797.925053 L649.785555 782.916215 L638.870037 801.293969 L625.086721 793.107330 L636.002240 774.729576 L610.732828 759.720738 L647.349419 750.392944 L638.160542 744.935184 L664.439646 729.467411 L658.696598 726.056312 Z" fill="#888" fill-opacity="0.18" stroke="#000" stroke-width="1"/>
  <path d="M636.187887 593.816948 L636.563109 628.549287 L630.369852 626.046935 L633.985606 656.325139 L624.076395 652.321375 L638.840013 687.103813 L611.589682 676.093462 L603.582153 695.911884 L588.718336 689.906238 L596.725865 670.087815 L569.475534 659.077463 L604.257973 644.313846 L594.348761 640.310082 L617.983338 621.042229 L611.790081 618.539877 Z" fill="#888" fill-opacity="0.18" stroke="#000" stroke-width="1"/>
  <path d="M931.460232 152.388812 L916.468554 121.056309 L923.139388 120.712557 L907.088545 94.785472 L917.761880 94.235469 L889.703534 68.927137 L919.055207 67.414629 L917.955201 46.067958 L933.965204 45.242954 L935.065210 66.589625 L964.416883 65.077117 L939.108551 93.135463 L949.781887 92.585460 L936.481058 120.025053 L943.151893 119.681301 Z" fill="#888" fill-opacity="0.18" stroke="#000" stroke-width="1"/>
  <path d="M68.880187 658.422531 L77.546238 624.786601 L82.876133 628.812818 L87.255230 598.635561 L95.783062 605.077508 L90.568349 567.653061 L114.019887 585.368415 L126.903781 568.312751 L139.695529 577.975671 L126.811635 595.031335 L150.263173 612.746689 L112.838726 617.961402 L121.366558 624.403348 L93.535922 636.865252 L98.865817 640.891468 Z" fill="#888" fill-opacity="0.18" stroke="#000" stroke-width="1"/>
  <path d="M355.708005 920.249256 L331.001964 944.664163 L328.495327 938.472639 L309.243832 962.120541 L305.233213 952.214103 L290.493666 987.006748 L279.464461 959.764042 L259.651584 967.785282 L253.635655 952.925624 L273.448532 944.904384 L262.419328 917.661678 L297.211973 932.401225 L293.201354 922.494787 L323.482052 926.089591 L320.975415 919.898067 Z" fill="#888" fill-opacity="0.18" stroke="#000" stroke-width="1"/>
  <path d="M940.049446 210.411964 L965.793761 187.094451 L968.028799 193.389116 L988.290375 170.600701 L991.866436 180.672165 L1008.104943 146.553353 L1017.939111 174.249879 L1038.082039 167.097757 L1043.446130 182.204953 L1023.303202 189.357075 L1033.137370 217.053600 L999.018558 200.815093 L1002.594619 210.886557 L972.498875 205.978446 L974.733913 212.273111 Z" fill="#888" fill-opacity="0.18" stroke="#000" stroke-width="1"/>
  <path d="M631.787900 485.455352 L656.842194 509.512753 L650.718521 512.180867 L674.863058 530.805707 L665.065181 535.074689 L700.232329 548.896924 L673.288169 560.636626 L681.826134 580.232379 L667.129320 586.635853 L658.591354 567.040100 L631.647194 578.779803 L645.469428 543.612655 L635.671552 547.881638 L638.471175 517.517095 L632.347503 520.185209 Z" fill="#888" fill-opacity="0.18" stroke="#000" stroke-width="1"/>
  <path d="M591.265002 620.500443 L572.482647 591.282310 L579.058525 590.109269 L559.899427 566.386446 L570.420833 564.509580 L539.425154 542.898233 L568.359018 537.736850 L564.605286 516.694040 L580.387394 513.878741 L584.141126 534.921551 L613.074991 529.760169 L591.463643 560.755848 L601.985048 558.878982 L592.210282 587.763186 L598.786160 586.590145 Z" fill="#888" fill-opacity="0.18" stroke="#000" stroke-width="1"/>
  <path d="M568.584934 951.462657 L542.674653 974.595611 L540.484653 968.285136 L520.060753 990.928184 L516.556752 980.831423 L500.074853 1014.833327 L490.438850 987.067236 L470.245329 994.075238 L464.989328 978.930097 L485.182849 971.922095 L475.546846 944.156004 L509.548750 960.637902 L506.044749 950.541142 L536.104651 955.664185 L533.914651 949.353710 Z" fill="#888" fill-opacity="0.18" stroke="#000" stroke-width="1"/>
  <path d="M835.362940 48.897279 L825.659561 82.248750 L820.456887 78.059432 L815.145498 108.086627 L806.821219 101.383719 L810.874643 138.951686 L787.982878 120.518687 L774.577060 137.167244 L762.090642 127.112880 L775.496460 110.464324 L752.604695 92.031324 L790.172663 87.977901 L781.848384 81.274992 L810.051539 69.680796 L804.848865 65.491478 Z" fill="#888" fill-opacity="0.18" stroke="#000" stroke-width="1"/>
  <path d="M758.769914 468.782843 L747.300917 435.996592 L753.969260 436.385694 L740.855313 408.856296 L751.524662 409.478859 L726.407697 381.249079 L755.748407 382.961127 L756.993534 361.622429 L772.997557 362.556274 L771.752431 383.894972 L801.093141 385.607021 L772.863360 410.723986 L783.532710 411.346549 L767.305946 437.163898 L773.974290 437.553000 Z" fill="#888" fill-opacity="0.18" stroke="#000" stroke-width="1"/>
  <path d="M629.537113 44.141828 L645.493998 74.993959 L638.837045 75.544579 L655.684824 100.961024 L645.033700 101.842017 L673.863994 126.267345 L644.573402 128.690076 L646.335389 149.992325 L630.358703 151.313815 L628.596716 130.011566 L599.306125 132.434298 L623.731452 103.604004 L613.080328 104.484997 L625.523140 76.645821 L618.866187 77.196442 Z" fill="#888" fill-opacity="0.18" stroke="#000" stroke-width="1"/>
  <path d="M370.755822 467.673219 L366.358473 433.218328 L372.799973 434.986173 L365.700049 405.330913 L376.006450 408.159464 L357.311824 375.322086 L385.654426 383.100600 L391.311528 362.487798 L406.771129 366.730624 L401.114028 387.343426 L429.456630 395.121940 L396.619251 413.816565 L406.925652 416.645116 L385.682974 438.521861 L392.124475 440.289705 Z" fill="#888" fill-opacity="0.18" stroke="#000" stroke-width="1"/>
  <path d="M264.796689 206.213055 L299.228310 210.789045 L295.869287 216.562706 L326.353783 217.296745 L320.979345 226.534603 L357.510084 216.876052 L342.730381 242.280161 L361.206096 253.029036 L353.144440 266.885823 L334.668725 256.136948 L319.889022 281.541057 L310.230470 245.010319 L304.856033 254.248177 L289.151240 228.110029 L285.792216 233.883690 Z" fill="#888" fill-opacity="0.18" stroke="#000" stroke-width="1"/>
  <path d="M957.898265 152.321444 L942.532067 183.471984 L938.138939 178.440223 L927.676776 207.082612 L920.647770 199.031794 L918.093239 236.731354 L898.763473 214.591603 L882.661836 228.649615 L872.118328 216.573387 L888.219965 202.515376 L868.890199 180.375626 L906.589759 182.930157 L899.560753 174.879339 L929.352682 168.376700 L924.959553 163.344938 Z" fill="#888" fill-opacity="0.18" stroke="#000" stroke-width="1"/>
  <path d="M941.409979 446.624886 L932.305341 413.105015 L938.929034 413.968088 L927.809199 385.574557 L938.407108 386.955473 L915.364626 357.008411 L944.508875 360.805930 L947.270707 339.610113 L963.167570 341.681487 L960.405738 362.877304 L989.549986 366.674823 L959.602925 389.717304 L970.200834 391.098220 L952.176419 415.694233 L958.800112 416.557305 Z" fill="#888" fill-opacity="0.18" stroke="#000" stroke-width="1"/>
  <path d="M254.701050 697.762448 L278.134596 672.123705 L280.952601 678.179863 L298.977619 653.584293 L303.486428 663.274145 L316.439036 627.777492 L328.838261 654.424585 L348.217966 645.406967 L354.981179 659.941745 L335.601475 668.959363 L348.000700 695.606457 L312.504047 682.653849 L317.012856 692.343702 L286.588613 690.292178 L289.406619 696.348336 Z" fill="#888" fill-opacity="0.18" stroke="#000" stroke-width="1"/>
  <path d="M557.732616 71.968885 L558.141231 106.700847 L551.945571 104.204450 L555.590436 134.479164 L545.677380 130.484929 L560.474433 165.253157 L533.213528 154.269011 L525.225058 174.095123 L510.355474 168.103770 L518.343944 148.277658 L491.083040 137.293512 L525.851267 122.496459 L515.938211 118.502224 L539.554251 99.211657 L533.358591 96.715260 Z" fill="#888" fill-opacity="0.18" stroke="#000" stroke-width="1"/>
  <path d="M651.499514 849.628220 L618.695823 838.209201 L623.149176 833.230663 L593.437645 826.370034 L600.563010 818.404373 L562.835443 820.505113 L582.430197 798.599544 L566.498874 784.348813 L577.186922 772.400321 L593.118245 786.651051 L612.713000 764.745482 L614.813741 802.473049 L621.939106 794.507388 L632.055883 823.273586 L636.509236 818.295047 Z" fill="#888" fill-opacity="0.18" stroke="#000" stroke-width="1"/>
  <path d="M647.282827 1026.734619 L637.637973 993.366177 L644.274742 994.122152 L632.697753 965.911930 L643.316583 967.121491 L619.793410 937.550512 L648.995194 940.876806 L651.414316 919.639145 L667.342562 921.453487 L664.923439 942.691147 L694.125223 946.017440 L664.554244 969.540613 L675.173074 970.750175 L657.548280 995.634104 L664.185049 996.390080 Z" fill="#888" fill-opacity="0.18" stroke="#000" stroke-width="1"/>
  <path d="M704.930141 486.106185 L670.914304 479.077743 L674.677921 473.559284 L644.324128 470.645426 L650.345915 461.815892 L613.217611 468.835261 L629.777525 444.554041 L612.118456 432.510467 L621.151137 419.266166 L638.810206 431.309739 L655.370120 407.028520 L662.389488 444.156823 L668.411275 435.327288 L682.205155 462.522366 L685.968771 457.003906 Z" fill="#888" fill-opacity="0.18" stroke="#000" stroke-width="1"/>
  <path d="M300.629752 134.114266 L268.995771 119.769673 L273.881940 115.215164 L244.914331 105.690407 L252.732202 98.403193 L214.969489 97.076553 L236.468633 77.036713 L221.894204 61.400971 L233.621010 50.470150 L248.195439 66.105891 L269.694583 46.066051 L268.367943 83.828764 L276.185814 76.541549 L283.654278 106.106145 L288.540447 101.551636 Z" fill="#888" fill-opacity="0.18" stroke="#000" stroke-width="1"/>
  <path d="M923.335884 593.932292 L899.597512 568.575520 L905.854511 566.237109 L882.735469 546.353618 L892.746667 542.612160 L858.365027 526.937810 L885.895821 516.648801 L878.412905 496.626404 L893.429703 491.014217 L900.912619 511.036614 L928.443413 500.747604 L912.769063 535.129244 L922.780261 531.387786 L918.368509 561.560287 L924.625508 559.221875 Z" fill="#888" fill-opacity="0.18" stroke="#000" stroke-width="1"/>
  <path d="M394.655588 679.217689 L429.306807 676.815775 L427.170222 683.144535 L457.185750 677.767601 L453.767214 687.893618 L487.628595 671.124915 L478.227622 698.971461 L498.479655 705.808532 L493.351852 720.997557 L473.099819 714.160486 L463.698846 742.007031 L446.930143 708.145651 L443.511608 718.271667 L422.897053 695.802056 L420.760468 702.130816 Z" fill="#888" fill-opacity="0.18" stroke="#000" stroke-width="1"/>
  <path d="M744.174765 236.275121 L725.927531 206.719840 L732.523678 205.666728 L713.799704 181.598987 L724.353539 179.914007 L693.756500 157.741869 L722.779547 153.108174 L719.409587 132.000504 L735.240340 129.473033 L738.610300 150.580704 L767.633347 145.947008 L745.461209 176.544047 L756.015045 174.859067 L745.715972 203.560502 L752.312119 202.507390 Z" fill="#888" fill-opacity="0.18" stroke="#000" stroke-width="1"/>
  <path d="M358.930780 314.228000 L362.710534 279.699901 L368.560214 282.924717 L368.590180 252.431399 L377.949669 257.591104 L367.450208 221.293118 L393.188804 235.482307 L403.508214 216.763329 L417.547448 224.502886 L407.228038 243.221865 L432.966633 257.411054 L396.668647 267.910514 L406.028137 273.070219 L380.259576 289.374348 L386.109257 292.599164 Z" fill="#888" fill-opacity="0.18" stroke="#000" stroke-width="1"/>
  <path d="M663.302139 333.473817 L644.073668 362.400312 L640.361012 356.847440 L626.317370 383.914384 L620.377119 375.029790 L613.016259 412.091902 L596.680570 387.659267 L578.911381 399.539768 L570.001005 386.212877 L587.770194 374.332376 L571.434506 349.899741 L608.496618 357.260601 L602.556368 348.376006 L632.935698 345.741697 L629.223042 340.188826 Z" fill="#888" fill-opacity="0.18" stroke="#000" stroke-width="1"/>
  <path d="M599.572504 199.404212 L627.742102 179.083042 L629.265860 185.586607 L651.927854 165.183731 L654.365867 175.589436 L674.285096 143.480142 L680.989631 172.095829 L701.801041 167.219803 L705.458060 182.828360 L684.646651 187.704386 L691.351187 216.320074 L659.241893 196.400845 L661.679906 206.806550 L632.313376 198.593738 L633.837134 205.097304 Z" fill="#888" fill-opacity="0.18" stroke="#000" stroke-width="1"/>
  <path d="M186.050208 226.247826 L154.764074 241.336032 L154.399757 234.666288 L128.522280 250.796989 L127.939374 240.125400 L102.717667 268.261639 L101.114674 238.914768 L79.771496 240.080581 L78.897137 224.073197 L100.240315 222.907385 L98.637323 193.560514 L126.773561 218.782222 L126.190655 208.110632 L153.671124 221.326802 L153.306808 214.657058 Z" fill="#888" fill-opacity="0.18" stroke="#000" stroke-width="1"/>
  <path d="M446.694423 944.875622 L416.041407 961.211741 L415.408739 954.562085 L390.201982 971.722001 L389.189713 961.082550 L365.121758 990.211848 L362.338019 960.953359 L341.059118 962.977896 L339.540715 947.018720 L360.819617 944.994183 L358.035878 915.735694 L387.165176 939.803649 L386.152907 929.164198 L414.143403 941.262772 L413.510735 934.613115 Z" fill="#888" fill-opacity="0.18" stroke="#000" stroke-width="1"/>
  <path d="M552.424701 601.272251 L533.213253 630.210054 L529.497330 624.659368 L515.469616 651.734570 L509.524139 642.853472 L502.185087 679.919909 L485.835025 655.496890 L468.072830 667.387844 L459.154614 654.066197 L476.916810 642.175243 L460.566749 617.752224 L497.633186 625.091276 L491.687709 616.210178 L522.065484 613.557995 L518.349561 608.007309 Z" fill="#888" fill-opacity="0.18" stroke="#000" stroke-width="1"/>
  <path d="M833.833647 540.048698 L805.041691 520.619353 L810.620270 516.945437 L783.651731 502.713738 L792.577457 496.835472 L755.567477 489.216823 L780.113223 473.051591 L768.356690 455.200139 L781.745279 446.382740 L793.501812 464.234191 L818.047558 448.068959 L810.428909 485.078939 L819.354635 479.200673 L821.777427 509.597604 L827.356006 505.923688 Z" fill="#888" fill-opacity="0.18" stroke="#000" stroke-width="1"/>
  <path d="M698.526115 699.374276 L720.949072 725.901378 L714.581616 727.919721 L736.663390 748.949191 L726.475460 752.178539 L760.018655 769.574992 L732.001849 778.455700 L738.460545 798.831558 L723.178651 803.675581 L716.719955 783.299722 L688.703149 792.180430 L706.099601 758.637236 L695.911672 761.866584 L701.846704 731.956407 L695.479248 733.974749 Z" fill="#888" fill-opacity="0.18" stroke="#000" stroke-width="1"/>
  <path d="M858.757938 338.013357 L824.032969 338.821264 L826.457969 332.597312 L796.227162 336.590008 L800.107161 326.631685 L765.511355 341.827495 L776.181353 314.442106 L756.264706 306.682108 L762.084705 291.744623 L782.001352 299.504621 L792.671349 272.119232 L807.867160 306.715038 L811.747159 296.756715 L831.307968 320.149408 L833.732967 313.925456 Z" fill="#888" fill-opacity="0.18" stroke="#000" stroke-width="1"/>
  <path d="M59.914898 823.627669 L91.573914 809.338412 L91.768825 816.015253 L118.047386 800.546556 L118.359244 811.229502 L144.286964 783.742491 L145.144574 813.120593 L166.510467 812.496876 L166.978254 828.521296 L145.612362 829.145012 L146.469972 858.523115 L118.982961 832.595395 L119.294819 843.278341 L92.158648 829.368936 L92.353560 836.045777 Z" fill="#888" fill-opacity="0.18" stroke="#000" stroke-width="1"/>
  <path d="M348.987460 777.357131 L383.585741 774.285473 L381.571962 780.654373 L411.477879 774.697911 L408.255831 784.888152 L441.786552 767.467669 L432.925921 795.490831 L453.306403 801.934926 L448.473331 817.220287 L428.092850 810.776192 L419.232219 838.799354 L401.811736 805.268633 L398.589689 815.458874 L377.544402 793.392174 L375.530623 799.761074 Z" fill="#888" fill-opacity="0.18" stroke="#000" stroke-width="1"/>
  <path d="M875.922971 828.537846 L887.935886 861.128735 L881.261992 860.850636 L894.832165 888.158029 L884.153934 887.713072 L909.737116 915.521043 L880.371982 914.297409 L879.482066 935.653870 L863.464720 934.986433 L864.354636 913.629972 L834.989502 912.406338 L862.797473 886.823156 L852.119242 886.378198 L867.914204 860.294439 L861.240310 860.016340 Z" fill="#888" fill-opacity="0.18" stroke="#000" stroke-width="1"/>
  <path d="M1019.707937 644.481885 L988.471374 629.291320 L993.478320 624.869931 L964.777479 614.569201 L972.788594 607.494978 L935.075248 605.152750 L957.105814 585.698635 L942.957367 569.676406 L954.974039 559.065071 L969.122486 575.087300 L991.153051 555.633185 L988.810823 593.346531 L996.821938 586.272307 L1003.492214 616.027151 L1008.499160 611.605762 Z" fill="#888" fill-opacity="0.18" stroke="#000" stroke-width="1"/>
  <path d="M784.631689 979.117675 L764.819813 950.587590 L771.349701 949.180902 L751.357198 926.156065 L761.805018 923.905365 L730.058717 903.412565 L758.790222 897.223139 L754.288822 876.327499 L769.960552 872.951449 L774.461952 893.847089 L803.193458 887.657663 L782.700658 919.403964 L793.148478 917.153264 L784.409476 946.367527 L790.939363 944.960839 Z" fill="#888" fill-opacity="0.18" stroke="#000" stroke-width="1"/>
  <path d="M392.937104 338.724465 L426.591776 330.131492 L425.627905 336.741270 L454.187530 326.055244 L452.645337 336.630888 L482.939930 314.047263 L478.698897 343.130283 L499.850184 346.214670 L497.536893 362.078136 L476.385606 358.993748 L472.144573 388.076768 L449.560949 357.782175 L448.018755 368.357818 L423.700163 349.960824 L422.736292 356.570601 Z" fill="#888" fill-opacity="0.18" stroke="#000" stroke-width="1"/>
  <path d="M262.983349 1035.991056 L287.657947 1011.544371 L290.172551 1017.732664 L309.393594 994.060004 L313.416960 1003.961273 L328.111716 969.149685 L339.175973 996.378174 L358.978510 988.331441 L365.013560 1003.183344 L345.211023 1011.230077 L356.275280 1038.458565 L321.463693 1023.763810 L325.487059 1033.665078 L295.201759 1030.109250 L297.716363 1036.297543 Z" fill="#888" fill-opacity="0.18" stroke="#000" stroke-width="1"/>
  <path d="M512.650163 497.640906 L490.188033 524.134846 L487.146367 518.187875 L470.050146 543.437876 L465.183480 533.922722 L453.562259 569.877272 L440.178928 543.710598 L421.148620 553.443929 L413.848621 539.171198 L432.878930 529.437866 L419.495599 503.271192 L455.450149 514.892413 L450.583483 505.377259 L481.063034 506.293932 L478.021368 500.346960 Z" fill="#888" fill-opacity="0.18" stroke="#000" stroke-width="1"/>
  <path d="M347.604392 157.541218 L332.454739 126.284792 L339.123753 125.907370 L322.942235 100.061640 L333.612658 99.457765 L305.426913 74.291394 L334.770577 72.630739 L333.562827 51.289892 L349.568462 50.384080 L350.776212 71.724926 L380.119875 70.064271 L354.953504 98.250016 L365.623927 97.646141 L352.461782 125.152527 L359.130797 124.775105 Z" fill="#888" fill-opacity="0.18" stroke="#000" stroke-width="1"/>
  <path d="M516.292321 187.342298 L496.753946 216.060377 L493.101208 210.467908 L478.767355 237.382291 L472.922975 228.434341 L465.164051 265.415168 L449.092004 240.808305 L431.196104 252.497066 L422.429533 239.075140 L440.325434 227.386379 L424.253387 202.779516 L461.234214 210.538441 L455.389833 201.590490 L485.795732 199.282971 L482.142994 193.690502 Z" fill="#888" fill-opacity="0.18" stroke="#000" stroke-width="1"/>
  <path d="M269.694131 606.418689 L300.410106 590.201258 L301.017048 596.853312 L326.289991 579.791024 L327.261099 590.434311 L351.441546 561.398325 L354.112092 590.667363 L375.398665 588.725148 L376.855326 604.690077 L355.568753 606.632293 L358.239299 635.901330 L329.203314 611.720884 L330.174422 622.364170 L302.230933 610.157420 L302.837875 616.809474 Z" fill="#888" fill-opacity="0.18" stroke="#000" stroke-width="1"/>
  <path d="M733.866232 911.629123 L737.571872 946.165255 L731.167112 944.268614 L737.671017 974.060266 L727.423401 971.025639 L745.455874 1004.231246 L717.274930 995.886023 L711.205676 1016.381255 L695.834252 1011.829315 L701.903506 991.334082 L673.722561 982.988859 L706.928169 964.956385 L696.680552 961.921759 L718.357591 940.475330 L711.952831 938.578688 Z" fill="#888" fill-opacity="0.18" stroke="#000" stroke-width="1"/>
  <path d="M909.799901 252.219958 L875.109228 253.961610 L877.365937 247.674681 L847.253464 252.479086 L850.864199 242.420001 L816.689650 258.540877 L826.619170 230.878393 L806.501000 223.656924 L811.917102 208.568296 L832.035272 215.789766 L841.964793 188.127282 L858.085669 222.301831 L861.696403 212.242747 L881.879355 235.100825 L884.136065 228.813897 Z" fill="#888" fill-opacity="0.18" stroke="#000" stroke-width="1"/>
  <path d="M453.146155 829.338409 L459.229002 863.535999 L452.708509 862.086386 L461.255145 891.357504 L450.822356 889.038125 L471.105878 920.918545 L442.415710 914.540251 L437.776951 935.405828 L422.127768 931.926759 L426.766527 911.061182 L398.076359 904.682888 L429.956779 884.399366 L419.523991 882.079986 L439.667524 859.187162 L433.147031 857.737550 Z" fill="#888" fill-opacity="0.18" stroke="#000" stroke-width="1"/>
  <path d="M736.609779 802.592981 L770.722253 809.136320 L767.037602 814.707814 L797.429811 817.189133 L791.534369 826.103523 L828.558950 818.556153 L812.346484 843.070727 L830.175265 854.861612 L821.332101 868.233197 L803.503320 856.442312 L787.290854 880.956886 L779.743484 843.932304 L773.848042 852.846695 L759.668299 825.850802 L755.983647 831.422296 Z" fill="#888" fill-opacity="0.18" stroke="#000" stroke-width="1"/>
  <path d="M658.180085 695.122962 L635.488451 721.420602 L632.498606 715.447410 L615.183494 740.547813 L610.399743 730.990705 L598.466352 766.842854 L585.311034 740.560807 L566.196818 750.128311 L559.021191 735.792649 L578.135407 726.225145 L564.980089 699.943098 L600.832239 711.876489 L596.048487 702.319381 L626.518916 703.501025 L623.529071 697.527832 Z" fill="#888" fill-opacity="0.18" stroke="#000" stroke-width="1"/>
  <path d="M367.695361 204.799306 L332.966060 204.206199 L335.640080 198.085103 L305.272851 200.855432 L309.551284 191.061679 L274.370818 204.849980 L286.136509 177.917158 L266.549002 169.360292 L272.966651 154.669662 L292.554158 163.226528 L304.319849 136.293706 L318.108150 171.474172 L322.386583 161.680418 L340.988121 185.842912 L343.662142 179.721816 Z" fill="#888" fill-opacity="0.18" stroke="#000" stroke-width="1"/>
  <path d="M1057.423502 431.185301 L1027.088991 414.265087 L1032.336256 410.131758 L1004.258956 398.236022 L1012.654581 391.622695 L975.132203 387.166951 L998.220170 368.980303 L984.993517 352.189054 L997.586953 342.269064 L1010.813606 359.060313 L1033.901573 340.873664 L1029.445829 378.396041 L1037.841453 371.782715 L1042.830787 401.865100 L1048.078052 397.731770 Z" fill="#888" fill-opacity="0.18" stroke="#000" stroke-width="1"/>
  <path d="M207.364740 682.393189 L208.706869 717.101615 L202.446340 714.772672 L206.903729 744.938464 L196.886883 741.212154 L212.613224 775.570044 L185.066897 765.322693 L177.614277 785.356385 L162.589008 779.766921 L170.041627 759.733228 L142.495300 749.485876 L176.853190 733.759534 L166.836344 730.033225 L189.925282 710.114785 L183.664753 707.785841 Z" fill="#888" fill-opacity="0.18" stroke="#000" stroke-width="1"/>
  <path d="M44.545676 370.444866 L76.505315 384.048457 L71.726597 388.715583 L100.908279 397.562775 L93.262331 405.030176 L131.045703 405.476541 L110.019348 426.011895 L124.954150 441.303790 L113.485229 452.504892 L98.550426 437.212997 L77.524071 457.748351 L77.970436 419.964979 L70.324489 427.432380 L62.169163 398.049834 L57.390446 402.716960 Z" fill="#888" fill-opacity="0.18" stroke="#000" stroke-width="1"/>
  <path d="M755.258223 733.477013 L788.829294 742.391011 L784.763860 747.691054 L814.907984 752.292697 L808.403289 760.772764 L845.865195 755.834332 L827.977285 779.154517 L844.937420 792.163906 L835.180378 804.884008 L818.220243 791.874619 L800.332333 815.194805 L795.393901 777.732900 L788.889206 786.212967 L776.632992 758.291138 L772.567558 763.591180 Z" fill="#888" fill-opacity="0.18" stroke="#000" stroke-width="1"/>
  <path d="M151.195146 124.127694 L125.747670 147.768806 L123.433233 141.502899 L103.461370 164.545642 L99.758270 154.520192 L83.952394 188.841567 L73.768870 161.271579 L53.717970 168.677778 L48.163320 153.639603 L68.214220 146.233404 L58.030696 118.663416 L92.352071 134.469292 L88.648971 124.443842 L118.804358 128.971087 L116.489921 122.705181 Z" fill="#888" fill-opacity="0.18" stroke="#000" stroke-width="1"/>
  <path d="M565.852836 884.299113 L542.321076 858.750484 L548.596851 856.462940 L525.639971 836.392439 L535.681210 832.732369 L501.427937 816.779447 L529.041344 806.714253 L521.721204 786.631775 L536.783062 781.141670 L544.103203 801.224148 L571.716610 791.158955 L555.763688 825.412228 L565.804927 821.752158 L561.148400 851.887852 L567.424174 849.600308 Z" fill="#888" fill-opacity="0.18" stroke="#000" stroke-width="1"/>
  <path d="M767.048041 344.123002 L735.779668 359.247983 L735.407510 352.578672 L709.549017 368.739789 L708.953563 358.068892 L683.764956 386.234767 L682.127459 356.889801 L660.785666 358.080708 L659.892486 342.074364 L681.234279 340.883457 L679.596782 311.538492 L707.762657 336.727099 L707.167203 326.056203 L734.663193 339.240052 L734.291034 332.570742 Z" fill="#888" fill-opacity="0.18" stroke="#000" stroke-width="1"/>
  <path d="M464.577714 942.748287 L463.632645 977.469793 L457.538965 974.733871 L460.001370 1005.127618 L450.251483 1000.750142 L463.682510 1036.068550 L436.870320 1024.030491 L428.115368 1043.530265 L413.490537 1036.964051 L422.245490 1017.464277 L395.433300 1005.426217 L430.751708 991.995190 L421.001821 987.617714 L445.351606 969.262026 L439.257927 966.526103 Z" fill="#888" fill-opacity="0.18" stroke="#000" stroke-width="1"/>
  <path d="M369.309725 569.757335 L402.751273 579.145573 L398.611235 584.387546 L428.687213 589.415358 L422.063151 597.802515 L459.591198 593.394775 L441.375029 616.459458 L458.149344 629.707580 L448.213252 642.288316 L431.438937 629.040194 L413.222769 652.104876 L408.815029 614.576830 L402.190968 622.963987 L390.331158 594.871493 L386.191120 600.113466 Z" fill="#888" fill-opacity="0.18" stroke="#000" stroke-width="1"/>
  <path d="M249.034118 327.868153 L218.710135 344.807225 L217.946097 338.171380 L193.083597 355.826391 L191.861137 345.209038 L168.373905 374.808572 L165.012139 345.610851 L143.777433 348.055772 L141.943742 332.129742 L163.178448 329.684821 L159.816682 300.487100 L189.416216 323.974332 L188.193755 313.356979 L216.418021 324.899688 L215.653984 318.263843 Z" fill="#888" fill-opacity="0.18" stroke="#000" stroke-width="1"/>
  <path d="M584.658024 151.612770 L590.387472 185.871339 L583.882293 184.354483 L592.126262 213.712281 L581.717976 211.285312 L601.671266 243.373451 L573.048480 236.699284 L568.194541 257.515855 L552.582112 253.875401 L557.436052 233.058829 L528.813266 226.384662 L560.901404 206.431372 L550.493119 204.004402 L570.871936 181.320771 L564.366757 179.803915 Z" fill="#888" fill-opacity="0.18" stroke="#000" stroke-width="1"/>
  <path d="M885.231763 589.779214 L862.136260 615.722882 L859.239122 609.704178 L841.538010 634.533877 L836.902589 624.903951 L824.416324 660.567316 L811.668919 634.085019 L792.409067 643.355860 L785.455937 628.910971 L804.715789 619.640130 L791.968384 593.157834 L827.631749 605.644099 L822.996329 596.014173 L853.444847 597.666771 L850.547710 591.648067 Z" fill="#888" fill-opacity="0.18" stroke="#000" stroke-width="1"/>
  <path d="M523.877146 334.342859 L546.789560 360.448365 L540.460742 362.584777 L562.929790 383.199946 L552.803680 386.618205 L586.664602 403.387832 L558.817800 412.788044 L565.654318 433.040264 L550.465153 438.167652 L543.628635 417.915433 L515.781833 427.315644 L532.551460 393.454722 L522.425350 396.872981 L527.803104 366.857600 L521.474286 368.994012 Z" fill="#888" fill-opacity="0.18" stroke="#000" stroke-width="1"/>
  <path d="M1004.329153 214.050630 L989.365371 245.396465 L984.907810 240.421694 L974.815358 269.196435 L967.683260 261.236800 L965.614417 298.966130 L946.001149 277.077135 L930.081880 291.341330 L919.383734 279.401878 L935.303003 265.137683 L915.689735 243.248688 L953.419065 245.317531 L946.286968 237.357896 L975.992688 230.472150 L971.535128 225.497379 Z" fill="#888" fill-opacity="0.18" stroke="#000" stroke-width="1"/>
  <path d="M358.339220 43.786349 L393.030491 45.516057 L390.157520 51.546334 L420.599164 49.771609 L416.002410 59.420052 L451.615402 46.790830 L438.974329 73.324048 L458.271215 82.517555 L451.376084 96.990220 L432.079198 87.796712 L419.438125 114.329930 L406.808902 78.716938 L402.212148 88.365381 L384.411578 63.606887 L381.538607 69.637164 Z" fill="#888" fill-opacity="0.18" stroke="#000" stroke-width="1"/>
  <path d="M301.964687 885.106599 L329.674498 864.162804 L331.342789 870.630803 L353.544544 849.728041 L356.213809 860.076839 L375.412639 827.531680 L382.753120 855.990874 L403.450716 850.652342 L407.454615 866.175539 L386.757019 871.514071 L394.097500 899.973265 L361.552341 880.774435 L364.221607 891.123232 L334.679372 883.566800 L336.347663 890.034798 Z" fill="#888" fill-opacity="0.18" stroke="#000" stroke-width="1"/>
  <path d="M742.260630 679.166046 L708.501481 670.993163 L712.449267 665.604918 L682.211157 661.667912 L688.527615 653.046720 L651.183490 658.808555 L668.553749 635.100277 L651.311365 622.467361 L660.786052 609.535573 L678.028436 622.168488 L695.398695 598.460210 L701.160531 635.804335 L707.476989 627.183143 L720.344840 654.828427 L724.292626 649.440182 Z" fill="#888" fill-opacity="0.18" stroke="#000" stroke-width="1"/>
  <path d="M664.615552 798.320880 L690.350219 821.649040 L684.305674 824.491869 L708.974987 842.415828 L699.303715 846.964353 L734.853210 859.771221 L708.257210 872.279666 L717.354261 891.622211 L702.847353 898.444999 L693.750302 879.102454 L667.154302 891.610899 L679.961170 856.061404 L670.289897 860.609929 L672.216583 830.177526 L666.172038 833.020354 Z" fill="#888" fill-opacity="0.18" stroke="#000" stroke-width="1"/>
  <path d="M1033.995116 804.968956 L1012.672517 832.388345 L1009.382285 826.575207 L993.368242 852.525038 L988.103871 843.224017 L978.012246 879.637497 L963.535225 854.059689 L944.933183 864.588431 L937.036627 850.636900 L955.638669 840.108158 L941.161649 814.530349 L977.575129 824.621975 L972.310758 815.320954 L1002.801821 814.948930 L999.511589 809.135792 Z" fill="#888" fill-opacity="0.18" stroke="#000" stroke-width="1"/>
  <path d="M716.077779 211.778796 L734.871808 240.989422 L728.296399 242.165091 L747.464974 265.880256 L736.944319 267.761326 L767.948630 289.360287 L739.016830 294.533230 L742.778970 315.574539 L726.997989 318.396144 L723.235849 297.354835 L694.304049 302.527777 L715.903010 271.523466 L705.382355 273.404536 L715.145580 244.516428 L708.570171 245.692097 Z" fill="#888" fill-opacity="0.18" stroke="#000" stroke-width="1"/>
  <path d="M224.531159 559.787964 L245.374868 587.573140 L238.900894 589.218090 L259.723438 611.495096 L249.365079 614.127016 L281.840776 633.443112 L253.355290 640.680893 L258.619130 661.397610 L243.081592 665.345490 L237.817752 644.628773 L209.332266 651.866554 L228.648362 619.390857 L218.290003 622.022777 L225.952946 592.507990 L219.478972 594.152940 Z" fill="#888" fill-opacity="0.18" stroke="#000" stroke-width="1"/>
  <path d="M594.235480 928.610609 L610.160931 959.478977 L603.503421 960.022817 L620.325303 985.456410 L609.673287 986.326553 L638.478686 1010.781234 L609.185642 1013.174129 L610.925930 1034.478162 L594.947906 1035.783377 L593.207618 1014.479345 L563.914574 1016.872241 L588.369255 988.066841 L577.717239 988.936985 L590.188401 961.110497 L583.530891 961.654337 Z" fill="#888" fill-opacity="0.18" stroke="#000" stroke-width="1"/>
  <path d="M391.231221 474.102018 L384.716488 508.219967 L379.141906 504.539988 L376.686072 534.934268 L367.766742 529.046302 L375.345155 566.064542 L350.816996 549.872638 L339.041065 567.711299 L325.662069 558.879351 L337.438000 541.040689 L312.909840 524.848785 L349.928080 517.270371 L341.008750 511.382406 L367.992743 497.180032 L362.418161 493.500053 Z" fill="#888" fill-opacity="0.18" stroke="#000" stroke-width="1"/>
  <path d="M561.845400 663.247369 L561.308029 697.977577 L555.182649 695.313384 L558.001709 725.676128 L548.201102 721.413417 L562.045844 756.571710 L535.094175 744.849258 L526.568754 764.450472 L511.867844 758.056406 L520.393264 738.455192 L493.441595 726.732739 L528.599888 712.887997 L518.799281 708.625287 L542.931891 689.984996 L536.806511 687.320802 Z" fill="#888" fill-opacity="0.18" stroke="#000" stroke-width="1"/>
  <path d="M42.741408 733.166524 L77.259131 729.293155 L75.393625 735.707054 L105.153330 729.058501 L102.168521 739.320738 L135.286137 721.127168 L127.077911 749.348320 L147.602386 755.317939 L143.125172 770.711294 L122.600698 764.741676 L114.392472 792.962828 L96.198903 759.845212 L93.214093 770.107449 L71.662613 748.534850 L69.797108 754.948748 Z" fill="#888" fill-opacity="0.18" stroke="#000" stroke-width="1"/>
  <path d="M320.180532 840.200879 L285.792600 835.307378 L289.204755 829.564957 L258.728330 828.549665 L264.187777 819.361791 L227.569473 828.682857 L242.582954 803.416203 L224.207207 792.497308 L232.396378 778.715497 L250.772126 789.634392 L265.785607 764.367739 L275.106673 800.986043 L280.566120 791.798169 L296.029065 818.080115 L299.441219 812.337694 Z" fill="#888" fill-opacity="0.18" stroke="#000" stroke-width="1"/>
  <path d="M647.298645 212.664314 L660.234995 244.899807 L653.555888 244.811919 L667.898370 271.721703 L657.211798 271.581082 L683.576675 298.649066 L654.188602 298.262356 L653.907359 319.635500 L637.877501 319.424568 L638.158744 298.051424 L608.770671 297.664715 L635.838654 271.299839 L625.152082 271.159217 L640.197673 244.636142 L633.518565 244.548253 Z" fill="#888" fill-opacity="0.18" stroke="#000" stroke-width="1"/>
  <path d="M819.939212 748.290182 L848.404294 728.385025 L849.832349 734.910274 L872.791622 714.842511 L875.076508 725.282908 L895.465284 693.469699 L901.748723 722.180791 L922.629517 717.611017 L926.056847 733.271613 L905.176053 737.841386 L911.459491 766.552478 L879.646282 746.163702 L881.931168 756.604099 L852.688457 747.960770 L854.116511 754.486018 Z" fill="#888" fill-opacity="0.18" stroke="#000" stroke-width="1"/>
  <path d="M509.623741 828.072318 L524.679585 859.374040 L518.009468 859.731458 L534.113400 885.625603 L523.441214 886.197473 L551.551355 911.448263 L522.202843 913.020906 L523.346583 934.365279 L507.338304 935.223084 L506.194563 913.878712 L476.846051 915.451355 L502.096841 887.341213 L491.424655 887.913084 L504.669235 860.446296 L497.999119 860.803715 Z" fill="#888" fill-opacity="0.18" stroke="#000" stroke-width="1"/>
  <path d="M681.937675 146.833701 L679.461924 112.187679 L685.795223 114.310772 L680.354339 84.306771 L690.487617 87.703720 L673.646794 53.878151 L701.513310 63.219761 L708.307208 42.953204 L723.507126 48.048628 L716.713228 68.315185 L744.579743 77.656796 L710.754174 94.497619 L720.887453 97.894568 L698.461822 118.556959 L704.795121 120.680052 Z" fill="#888" fill-opacity="0.18" stroke="#000" stroke-width="1"/>
  <path d="M1048.970875 669.151566 L1018.918022 686.567139 L1018.049344 679.944179 L993.468595 697.989403 L992.078710 687.392666 L969.061581 717.359218 L965.239399 688.218194 L944.045926 690.997963 L941.961100 675.102858 L963.154572 672.323089 L959.332390 643.182065 L989.298941 666.199194 L987.909057 655.602458 L1016.311988 666.698259 L1015.443311 660.075299 Z" fill="#888" fill-opacity="0.18" stroke="#000" stroke-width="1"/>
  <path d="M582.770310 823.566139 L614.654339 837.346012 L609.849921 841.986677 L638.982301 850.994884 L631.295233 858.419948 L669.075564 859.074957 L647.936127 879.493884 L662.786256 894.868020 L651.255654 906.005617 L636.405525 890.631481 L615.266089 911.050408 L615.921097 873.270077 L608.234029 880.695142 L600.241086 851.268008 L595.436669 855.908673 Z" fill="#888" fill-opacity="0.18" stroke="#000" stroke-width="1"/>
  <path d="M125.150233 845.990104 L117.995816 879.979669 L112.491338 876.195633 L109.465045 906.538422 L100.657881 900.483964 L107.539647 937.638019 L83.319946 920.988260 L71.211030 938.602588 L58.000284 929.520902 L70.109199 911.906574 L45.889498 895.256815 L83.043552 888.375049 L74.236388 882.320592 L101.482383 868.627561 L95.977905 864.843525 Z" fill="#888" fill-opacity="0.18" stroke="#000" stroke-width="1"/>
  <path d="M850.472662 684.350723 L863.834403 652.289219 L868.537500 657.032539 L877.163967 627.784849 L884.688922 635.374160 L884.849814 597.588494 L905.543440 618.459101 L920.722063 603.409192 L932.009495 614.793160 L916.830872 629.843069 L937.524497 650.713676 L899.738831 650.552784 L907.263786 658.142096 L877.943694 666.519179 L882.646790 671.262498 Z" fill="#888" fill-opacity="0.18" stroke="#000" stroke-width="1"/>
  <path d="M184.409260 987.638002 L193.020517 953.988003 L198.356963 958.005534 L202.686906 927.821185 L211.225218 934.249234 L205.949560 896.833330 L229.429920 914.510465 L242.286018 897.433840 L255.093487 907.075914 L242.237388 924.152539 L265.717748 941.829674 L228.301843 947.105332 L236.840156 953.533382 L209.029853 966.040595 L214.366299 970.058126 Z" fill="#888" fill-opacity="0.18" stroke="#000" stroke-width="1"/>
  <path d="M1016.775784 982.973272 L1003.340389 950.942563 L1010.020056 950.926717 L995.261404 924.242911 L1005.948872 924.217557 L979.166819 897.562273 L1008.557354 897.492551 L1008.506647 876.117616 L1024.537847 876.079586 L1024.588555 897.454520 L1053.979089 897.384797 L1027.323806 924.166849 L1038.011273 924.141496 L1023.379390 950.895025 L1030.059057 950.879179 Z" fill="#888" fill-opacity="0.18" stroke="#000" stroke-width="1"/>
  <path d="M180.483376 269.456287 L188.018072 235.548994 L193.479818 239.394449 L196.845800 209.087462 L205.584594 215.240191 L199.119433 178.011383 L223.151116 194.931389 L235.456575 177.453802 L248.564766 186.682896 L236.259307 204.160483 L260.290990 221.080489 L223.062182 227.545650 L231.800975 233.698380 L204.403311 247.085361 L209.865057 250.930817 Z" fill="#888" fill-opacity="0.18" stroke="#000" stroke-width="1"/>
  <path d="M167.429765 414.890636 L134.167592 404.885436 L138.403883 399.720938 L108.426050 394.137671 L115.204115 385.874474 L77.600959 389.587303 L96.240639 366.863511 L79.714245 353.307380 L89.881343 340.912585 L106.407737 354.468715 L125.047417 331.744923 L128.760246 369.348079 L135.538311 361.084882 L146.876464 389.391942 L151.112755 384.227444 Z" fill="#888" fill-opacity="0.18" stroke="#000" stroke-width="1"/>
  <path d="M904.256979 365.032701 L876.602199 344.016295 L882.378394 340.661630 L856.252106 324.937113 L865.494018 319.569650 L828.970580 309.883529 L854.385837 295.123005 L843.650910 276.639181 L857.513778 268.587986 L868.248705 287.071810 L893.663962 272.311285 L883.977841 308.834723 L893.219753 303.467260 L893.930783 333.952301 L899.706978 330.597636 Z" fill="#888" fill-opacity="0.18" stroke="#000" stroke-width="1"/>
  <path d="M167.947357 990.509436 L202.591796 988.011638 L200.472734 994.346287 L230.473266 988.886309 L227.082767 999.021747 L260.897612 982.159401 L251.573737 1010.031856 L271.844613 1016.812856 L266.758864 1032.016013 L246.487987 1025.235013 L237.164113 1053.107468 L220.301767 1019.292623 L216.911267 1029.428062 L196.234609 1007.015584 L194.115546 1013.350233 Z" fill="#888" fill-opacity="0.18" stroke="#000" stroke-width="1"/>
  <path d="M811.715023 1033.761012 L811.724287 999.026647 L817.889465 1001.597402 L814.609090 971.281029 L824.473375 975.394236 L810.095679 940.450505 L837.222464 951.761824 L845.448878 932.033253 L860.245306 938.203064 L852.018892 957.931634 L879.145677 969.242953 L844.201946 983.620649 L854.066231 987.733856 L830.219822 1006.738910 L836.385000 1009.309664 Z" fill="#888" fill-opacity="0.18" stroke="#000" stroke-width="1"/>
  <path d="M155.300346 200.518619 L167.017239 167.820140 L171.955069 172.318588 L179.085637 142.670682 L186.986165 149.868200 L185.228639 112.123087 L206.955090 131.916260 L221.350126 116.115205 L233.200917 126.911481 L218.805882 142.712536 L240.532333 162.505710 L202.787220 164.263235 L210.687748 171.460753 L181.830728 181.315485 L186.768558 185.813933 Z" fill="#888" fill-opacity="0.18" stroke="#000" stroke-width="1"/>
  <path d="M734.057279 665.146896 L725.328371 631.527224 L731.941989 632.464376 L721.140636 603.948169 L731.722425 605.447611 L709.016559 575.244531 L738.116480 579.367998 L741.115365 558.204420 L756.988049 560.453584 L753.989164 581.617163 L783.089085 585.740630 L752.886004 608.446497 L763.467793 609.945940 L745.169226 634.338679 L751.782844 635.275831 Z" fill="#888" fill-opacity="0.18" stroke="#000" stroke-width="1"/>
  <path d="M252.598262 335.324145 L237.631369 303.979795 L244.302474 303.641319 L228.272140 277.701548 L238.945908 277.159987 L210.907586 251.829472 L240.260446 250.340178 L239.177324 228.992644 L255.187975 228.180302 L256.271097 249.527836 L285.623957 248.038543 L260.293442 276.076864 L270.967209 275.535303 L257.644683 302.964368 L264.315787 302.625892 Z" fill="#888" fill-opacity="0.18" stroke="#000" stroke-width="1"/>
  <path d="M850.716256 574.086012 L816.011818 575.527594 L818.322812 569.260417 L788.169917 573.804230 L791.867508 563.776746 L757.554823 579.601478 L767.723197 552.025899 L747.668231 544.630718 L753.214617 529.589493 L773.269583 536.984674 L783.437958 509.409095 L799.262689 543.721780 L802.960280 533.694297 L822.944801 556.726063 L825.255795 550.458886 Z" fill="#888" fill-opacity="0.18" stroke="#000" stroke-width="1"/>
  <path d="M822.141954 441.697497 L853.094998 425.937254 L853.603248 432.597576 L879.126385 415.911869 L879.939585 426.568384 L904.547872 397.894098 L906.784171 427.199513 L928.097200 425.573114 L929.317000 441.557885 L908.003971 443.184285 L910.240270 472.489700 L881.565984 447.881413 L882.379184 458.537927 L854.619748 445.918219 L855.127998 452.578541 Z" fill="#888" fill-opacity="0.18" stroke="#000" stroke-width="1"/>
  <path d="M485.699381 854.948336 L474.552446 822.051193 L481.216653 822.505668 L468.373297 794.848996 L479.036028 795.576155 L454.197100 767.101428 L483.519610 769.101117 L484.973930 747.775655 L500.968026 748.866395 L499.513707 770.191857 L528.836217 772.191546 L500.361490 797.030475 L511.024222 797.757634 L494.545067 823.414617 L501.209274 823.869092 Z" fill="#888" fill-opacity="0.18" stroke="#000" stroke-width="1"/>
  <path d="M115.561833 662.003065 L137.350921 634.952893 L140.541108 640.821531 L156.997249 615.149780 L162.101547 624.539601 L172.815352 588.304303 L186.852173 614.126309 L205.631815 603.917712 L213.288263 618.002442 L194.508622 628.211040 L208.545443 654.033046 L172.310145 643.319242 L177.414444 652.709063 L146.921481 652.558806 L150.111668 658.427444 Z" fill="#888" fill-opacity="0.18" stroke="#000" stroke-width="1"/>
  <path d="M346.324184 269.084215 L338.677997 302.966541 L333.228929 299.103140 L329.763276 329.398892 L321.044768 323.217451 L327.387436 360.467324 L303.411538 343.468361 L291.048657 360.905378 L277.970894 351.633216 L290.333776 334.196200 L266.357879 317.197238 L303.607751 310.854569 L294.889243 304.673129 L322.330794 291.376339 L316.881726 287.512939 Z" fill="#888" fill-opacity="0.18" stroke="#000" stroke-width="1"/>
  <path d="M835.017693 827.843620 L862.707343 806.873178 L864.381856 813.339568 L886.563491 792.415458 L889.242711 802.761683 L908.410223 770.198069 L915.778079 798.650188 L936.470529 793.291747 L940.489360 808.811085 L919.796910 814.169526 L927.164766 842.621645 L894.601152 823.454133 L897.280372 833.800358 L867.730882 826.272350 L869.405394 832.738740 Z" fill="#888" fill-opacity="0.18" stroke="#000" stroke-width="1"/>
  <path d="M332.668760 463.042013 L305.300515 441.653808 L311.121516 438.377508 L285.210110 422.301364 L294.523712 417.059283 L258.134505 406.880481 L283.746910 392.464758 L273.262748 373.837554 L287.233151 365.974432 L297.717313 384.601636 L323.329719 370.185913 L313.150916 406.575121 L322.464518 401.333040 L322.763518 431.824906 L328.584520 428.548606 Z" fill="#888" fill-opacity="0.18" stroke="#000" stroke-width="1"/>
  <path d="M745.083570 517.550818 L720.381154 493.132242 L726.542914 490.553305 L702.671296 471.579925 L712.530112 467.453627 L677.567325 453.122332 L704.679070 441.775012 L696.426473 422.057379 L711.214697 415.867932 L719.467294 435.585564 L746.579039 424.238243 L732.247744 459.201030 L742.106561 455.074731 L738.866434 485.395432 L745.028195 482.816496 Z" fill="#888" fill-opacity="0.18" stroke="#000" stroke-width="1"/>
  <path d="M192.498830 1011.965613 L162.370890 1029.250964 L161.530882 1022.624306 L136.872269 1040.562983 L135.528257 1029.960331 L112.381657 1059.826990 L108.685624 1030.669697 L87.480320 1033.357721 L85.464302 1017.453743 L106.669606 1014.765720 L102.973573 985.608427 L132.840233 1008.755027 L131.496221 998.152375 L159.850867 1009.370991 L159.010860 1002.744334 Z" fill="#888" fill-opacity="0.18" stroke="#000" stroke-width="1"/>
  <path d="M822.685723 1050.427477 L844.331375 1023.262390 L847.552570 1029.114065 L863.872643 1003.355600 L869.026555 1012.718280 L879.548477 976.426799 L893.721734 1002.174171 L912.447096 991.866347 L920.177963 1005.910368 L901.452602 1016.218192 L915.625860 1041.965563 L879.334379 1031.443642 L884.488291 1040.806322 L853.994960 1040.817416 L857.216155 1046.669092 Z" fill="#888" fill-opacity="0.18" stroke="#000" stroke-width="1"/>
  <path d="M950.794550 138.757927 L954.816917 104.257250 L960.643785 107.523104 L960.888094 77.030751 L970.211083 82.256118 L959.967029 45.885226 L985.605250 60.254987 L996.055985 41.609009 L1010.040469 49.447060 L999.589733 68.093039 L1025.227954 82.462800 L988.857062 92.706854 L998.180051 97.932221 L972.297522 114.054814 L978.124390 117.320669 Z" fill="#888" fill-opacity="0.18" stroke="#000" stroke-width="1"/>
  <path d="M446.925077 739.613756 L412.749045 745.816582 L414.175765 739.291042 L384.934822 747.940351 L387.217573 737.499487 L355.408534 757.894769 L361.686101 729.182393 L340.804373 724.616890 L344.228500 708.955594 L365.110228 713.521097 L371.387794 684.808721 L391.783076 716.617759 L394.065827 706.176895 L417.029204 726.239962 L418.455924 719.714422 Z" fill="#888" fill-opacity="0.18" stroke="#000" stroke-width="1"/>
  <path d="M787.950605 251.591913 L778.448374 218.182576 L785.081854 218.966894 L773.625472 190.707477 L784.239039 191.962387 L760.842395 162.291197 L790.029704 165.742197 L792.539522 144.515064 L808.459872 146.397427 L805.950054 167.624561 L835.137362 171.075561 L805.466172 194.472205 L816.079739 195.727114 L798.348812 220.535531 L804.982291 221.319849 Z" fill="#888" fill-opacity="0.18" stroke="#000" stroke-width="1"/>
  <path d="M503.769107 359.941605 L507.605948 394.463407 L501.194027 392.591115 L507.811086 422.357839 L497.552013 419.362172 L515.710528 452.499021 L487.498078 444.260938 L481.506744 464.779084 L466.118135 460.285583 L472.109468 439.767438 L443.897018 431.529354 L477.033867 413.370839 L466.774794 410.375172 L488.370186 388.846531 L481.958266 386.974240 Z" fill="#888" fill-opacity="0.18" stroke="#000" stroke-width="1"/>
  <path d="M327.887737 694.153265 L333.934981 728.357168 L327.416001 726.900769 L335.932161 756.180768 L325.501793 753.850529 L345.752117 785.752047 L317.068604 779.343890 L312.408127 800.204627 L296.762574 796.709269 L301.423052 775.848533 L272.739539 769.440376 L304.641056 749.190052 L294.210688 746.859813 L314.378041 723.987971 L307.859061 722.531571 Z" fill="#888" fill-opacity="0.18" stroke="#000" stroke-width="1"/>
  <path d="M41.577745 487.176869 L73.547008 473.595912 L73.593239 480.275437 L100.209635 465.395559 L100.283604 476.082801 L126.816785 449.179776 L127.020199 478.569689 L148.394681 478.421752 L148.505634 494.452614 L127.131152 494.600551 L127.334565 523.990465 L100.431541 497.457283 L100.505509 508.144524 L73.685699 493.634489 L73.731930 500.314015 Z" fill="#888" fill-opacity="0.18" stroke="#000" stroke-width="1"/>
  <path d="M571.468654 582.702452 L537.201761 588.381903 L538.728108 581.878945 L509.358311 590.080065 L511.800466 579.675332 L479.683245 599.581776 L486.399172 570.968760 L465.589706 566.084450 L469.252938 550.477350 L490.062405 555.361660 L496.778332 526.748644 L516.684777 558.865865 L519.126932 548.461132 L541.780802 568.873028 L543.307149 562.370070 Z" fill="#888" fill-opacity="0.18" stroke="#000" stroke-width="1"/>
  <path d="M425.117774 317.626526 L448.954168 292.361877 L451.675970 298.461877 L470.088005 274.154670 L474.442888 283.914669 L487.955679 248.627463 L499.931607 275.467462 L519.451606 266.757696 L525.983931 281.397695 L506.463932 290.107461 L518.439860 316.947459 L483.152654 303.434668 L487.507537 313.194668 L457.119574 310.661876 L459.841376 316.761876 Z" fill="#888" fill-opacity="0.18" stroke="#000" stroke-width="1"/>
  <path d="M1040.893763 701.549425 L1026.100874 732.976270 L1021.616293 728.025843 L1011.680662 756.855108 L1004.505332 748.934424 L1002.641947 786.674460 L982.909790 764.892579 L967.068422 779.243239 L956.305427 767.362213 L972.146794 753.011553 L952.414636 731.229672 L990.154672 733.093057 L982.979341 725.172373 L1012.647130 718.124988 L1008.162549 713.174560 Z" fill="#888" fill-opacity="0.18" stroke="#000" stroke-width="1"/>
  <path d="M544.250281 535.599676 L542.977176 500.888649 L549.233061 503.230038 L544.835668 473.055441 L554.845085 476.801663 L539.187098 442.412568 L566.712993 452.714678 L574.205437 432.695845 L589.219562 438.315177 L581.727118 458.334010 L609.253013 468.636120 L574.863917 484.294107 L584.873334 488.040329 L561.744832 507.912815 L568.000717 510.254204 Z" fill="#888" fill-opacity="0.18" stroke="#000" stroke-width="1"/>
  <path d="M423.572342 151.446033 L439.994261 120.838898 L444.212842 126.017873 L455.647865 97.749807 L462.397594 106.036167 L466.239173 68.445946 L484.800926 91.233436 L501.373646 77.733979 L511.498239 90.163519 L494.925519 103.662976 L513.487271 126.450466 L475.897050 122.608887 L482.646779 130.895247 L452.650002 136.375823 L456.868582 141.554798 Z" fill="#888" fill-opacity="0.18" stroke="#000" stroke-width="1"/>
  <path d="M625.153014 345.329339 L594.540815 328.916861 L599.718489 324.696683 L571.446897 313.270379 L579.731175 306.518095 L542.139771 302.688111 L564.921534 284.119330 L551.416967 267.550774 L563.843383 257.422348 L577.347951 273.990904 L600.129715 255.422123 L596.299730 293.013528 L604.584008 286.261244 L610.073836 316.256328 L615.251509 312.036151 Z" fill="#888" fill-opacity="0.18" stroke="#000" stroke-width="1"/>
</svg>
