<?xml version="1.0" encoding="UTF-8"?>
<svg xmlns="http://www.w3.org/2000/svg" width="1100" height="1100" viewBox="0 0 1100 1100">
  <rect x="0" y="0" width="1100" height="1100" fill="white"/>
  <text x="10.0" y="18.0" font-family="monospace" font-size="12">prefix=N131_job5048533_task131 run_id=131 L=9.95788667977 feas=0.000e+00 N=131</text>
  <rect x="40.000000" y="40.000000" width="1020.000000" height="1020.000000" fill="none" stroke="#000" stroke-width="2"/>
  <path d="M826.713849 53.478167 L853.173059 73.680824 L847.629746 76.883446 L872.635521 92.010929 L863.766221 97.135124 L898.749958 106.497887 L874.359383 120.589423 L884.607772 138.328024 L871.303822 146.014316 L861.055432 128.275715 L836.664856 142.367251 L846.027620 107.383513 L837.158320 112.507708 L836.543121 83.288689 L830.999808 86.491311 Z" fill="#888" fill-opacity="0.18" stroke="#000" stroke-width="1"/>
  <path d="M351.816501 52.900185 L372.177131 79.238027 L365.995811 80.904275 L386.259706 101.963811 L376.369594 104.629807 L407.759866 122.690097 L380.562056 130.021587 L385.894049 149.801812 L371.058880 153.800807 L365.726888 134.020582 L338.529078 141.352072 L356.589369 109.961800 L346.699256 112.627796 L353.633170 84.236770 L347.451850 85.903018 Z" fill="#888" fill-opacity="0.18" stroke="#000" stroke-width="1"/>
  <path d="M865.235722 195.779524 L831.957155 194.899697 L834.574770 189.057335 L805.446569 191.440071 L809.634753 182.092292 L775.794845 194.991280 L787.312351 169.284887 L768.616792 160.908519 L774.899068 146.886850 L793.594627 155.263218 L805.112132 129.556826 L818.011121 163.396733 L822.199304 154.048954 L839.809999 177.372611 L842.427614 171.530249 Z" fill="#888" fill-opacity="0.18" stroke="#000" stroke-width="1"/>
  <path d="M664.168861 528.749752 L671.102400 496.189605 L676.369472 499.828705 L679.338315 470.754395 L687.765631 476.576956 L681.253744 440.952265 L704.428862 456.964308 L716.073983 440.109677 L728.714957 448.843518 L717.069835 465.698149 L740.244952 481.710192 L704.620261 488.222078 L713.047577 494.044639 L686.903616 507.106906 L692.170688 510.746007 Z" fill="#888" fill-opacity="0.18" stroke="#000" stroke-width="1"/>
  <path d="M93.484674 241.322268 L104.546845 272.720763 L98.154940 272.362088 L110.782432 298.718795 L100.555383 298.144915 L124.688305 325.147236 L96.563922 323.569066 L95.416162 344.023163 L80.075589 343.162344 L81.223349 322.708247 L53.098965 321.130077 L80.101286 296.997155 L69.874238 296.423275 L85.371129 271.644739 L78.979224 271.286064 Z" fill="#888" fill-opacity="0.18" stroke="#000" stroke-width="1"/>
  <path d="M831.787102 473.540487 L859.484959 492.008455 L854.157964 495.559261 L880.080576 509.055471 L871.557383 514.736760 L907.068587 521.841521 L883.629806 537.465065 L894.992383 554.511451 L882.207594 563.033384 L870.845016 545.986998 L847.406236 561.610542 L854.510997 526.099337 L845.987804 531.780626 L843.503972 502.660871 L838.176977 506.211677 Z" fill="#888" fill-opacity="0.18" stroke="#000" stroke-width="1"/>
  <path d="M1052.518939 850.121199 L1028.100129 827.494691 L1033.922794 824.833549 L1010.468364 807.397401 L1019.784628 803.139575 L985.849402 790.493482 L1011.469127 778.784458 L1002.953474 760.151931 L1016.927869 753.765191 L1025.443523 772.397718 L1051.063248 760.688694 L1038.417156 794.623921 L1047.733420 790.366094 L1045.568124 819.511266 L1051.390789 816.850124 Z" fill="#888" fill-opacity="0.18" stroke="#000" stroke-width="1"/>
  <path d="M1005.043491 621.188796 L975.523288 636.576933 L974.975113 630.198485 L950.667304 646.423772 L949.790224 636.218254 L926.469130 663.924749 L924.057159 635.859575 L903.646124 637.613736 L902.330504 622.305459 L922.741539 620.551299 L920.329569 592.486125 L948.036063 615.807219 L947.158983 605.601701 L973.878763 617.441588 L973.330587 611.063139 Z" fill="#888" fill-opacity="0.18" stroke="#000" stroke-width="1"/>
  <path d="M1034.405205 857.475097 L1002.324133 866.365649 L1003.118789 860.013199 L975.960745 870.809966 L977.232194 860.646046 L948.643770 882.877224 L952.140255 854.926443 L931.812415 852.383544 L933.719589 837.137663 L954.047429 839.680562 L957.543915 811.729781 L979.775093 840.318205 L981.046542 830.154285 L1004.708100 847.308299 L1005.502756 840.955848 Z" fill="#888" fill-opacity="0.18" stroke="#000" stroke-width="1"/>
  <path d="M914.062211 469.579530 L886.266818 451.258689 L891.574910 447.679687 L865.581100 434.321119 L874.074048 428.594717 L838.525670 421.678352 L861.881278 405.930745 L850.428473 388.944848 L863.167896 380.355244 L874.620701 397.341141 L897.976309 381.593534 L891.059945 417.141911 L899.552893 411.415509 L902.191096 440.521683 L907.499189 436.942682 Z" fill="#888" fill-opacity="0.18" stroke="#000" stroke-width="1"/>
  <path d="M90.157649 183.095507 L117.333193 163.867221 L118.736473 170.113493 L140.634344 150.758576 L142.879591 160.752611 L162.251559 130.154406 L168.425989 157.638001 L188.414058 153.147506 L191.781930 168.138557 L171.793861 172.629052 L177.968291 200.112647 L147.370086 180.740680 L149.615334 190.734714 L121.543032 182.606036 L122.946312 188.852307 Z" fill="#888" fill-opacity="0.18" stroke="#000" stroke-width="1"/>
  <path d="M906.481553 163.165654 L927.669524 188.842629 L921.544323 190.704622 L942.467739 211.109038 L932.667419 214.088228 L964.616196 231.141055 L937.665314 239.333828 L943.623694 258.934469 L928.923212 263.403254 L922.964832 243.802613 L896.013950 251.995385 L913.066777 220.046608 L903.266456 223.025798 L909.293922 194.428610 L903.168722 196.290604 Z" fill="#888" fill-opacity="0.18" stroke="#000" stroke-width="1"/>
  <path d="M846.600519 1005.842306 L813.317573 1005.147597 L815.902650 999.290766 L786.788153 1001.835486 L790.924277 992.464555 L757.156641 1005.551572 L768.530981 979.781513 L749.789120 971.509265 L755.993306 957.452870 L774.735167 965.725117 L786.109508 939.955058 L799.196525 973.722694 L803.332648 964.351763 L821.072805 987.577103 L823.657882 981.720271 Z" fill="#888" fill-opacity="0.18" stroke="#000" stroke-width="1"/>
  <path d="M446.482990 577.720141 L451.592635 544.824416 L457.054180 548.164570 L458.399394 518.970051 L467.137867 524.314296 L458.652299 489.107502 L482.683098 503.804176 L493.371589 486.327231 L506.479298 494.343599 L495.790807 511.820544 L519.821607 526.517219 L484.614812 535.002787 L493.353284 540.347032 L467.977271 554.844876 L473.438816 558.185030 Z" fill="#888" fill-opacity="0.18" stroke="#000" stroke-width="1"/>
  <path d="M722.571984 1006.765111 L715.484016 974.238232 L721.782276 975.385847 L712.516564 947.668053 L722.593780 949.504237 L701.991199 919.720737 L729.703544 924.770243 L733.375912 904.615810 L748.491737 907.370086 L744.819369 927.524519 L772.531714 932.574025 L742.748213 953.176605 L752.825429 955.012789 L734.378797 977.681077 L740.677057 978.828692 Z" fill="#888" fill-opacity="0.18" stroke="#000" stroke-width="1"/>
  <path d="M104.481252 816.128211 L114.658556 784.431845 L119.532371 788.582873 L125.414091 759.955353 L133.212194 766.596998 L130.321047 730.497627 L151.765831 748.762150 L165.049121 733.165943 L176.746276 743.128410 L163.462987 758.724617 L184.907771 776.989140 L148.808401 779.880287 L156.606504 786.521931 L129.280000 796.884929 L134.153815 801.035957 Z" fill="#888" fill-opacity="0.18" stroke="#000" stroke-width="1"/>
  <path d="M597.135475 127.665530 L614.912257 99.519070 L618.593819 104.756551 L631.444305 78.507845 L637.334804 86.887814 L643.558478 51.211644 L659.757351 74.256558 L676.517289 62.475559 L685.353038 75.045512 L668.593100 86.826511 L684.791973 109.871426 L649.115803 103.647752 L655.006302 112.027721 L625.956943 115.231512 L629.638505 120.468993 Z" fill="#888" fill-opacity="0.18" stroke="#000" stroke-width="1"/>
  <path d="M928.315503 452.962633 L930.398958 419.737697 L936.142774 422.565007 L934.815618 393.369662 L944.005723 397.893358 L932.339698 363.608855 L957.612488 376.049018 L966.659879 357.668807 L980.445038 364.454350 L971.397647 382.834561 L996.670437 395.274724 L962.385934 406.940749 L971.576040 411.464444 L947.630406 428.219627 L953.374222 431.046936 Z" fill="#888" fill-opacity="0.18" stroke="#000" stroke-width="1"/>
  <path d="M649.102255 223.236442 L644.295025 256.177719 L638.803025 252.887879 L637.726066 282.093524 L628.938867 276.829781 L637.747507 311.957137 L613.582710 297.481843 L603.055224 315.056242 L589.874425 307.160627 L600.401911 289.586229 L576.237113 275.110935 L611.364469 266.302295 L602.577270 261.038552 L627.819026 246.308200 L622.327027 243.018361 Z" fill="#888" fill-opacity="0.18" stroke="#000" stroke-width="1"/>
  <path d="M348.822461 97.240459 L316.774480 106.249571 L317.545642 99.894226 L290.427705 110.791335 L291.661565 100.622783 L263.155535 122.959514 L266.548649 94.995996 L246.211545 92.528277 L248.062335 77.275449 L268.399439 79.743168 L271.792553 51.779650 L294.129284 80.285679 L295.363143 70.117127 L319.087967 87.183535 L319.859129 80.828190 Z" fill="#888" fill-opacity="0.18" stroke="#000" stroke-width="1"/>
  <path d="M168.972669 840.167763 L174.704824 807.374782 L180.102087 810.817841 L182.000343 781.654060 L190.635964 787.162953 L182.819146 751.801666 L206.567104 766.951124 L217.584892 749.679882 L230.538323 757.943223 L219.520535 775.214465 L243.268493 790.363923 L207.907206 798.180741 L216.542827 803.689635 L190.896614 817.703958 L196.293877 821.147017 Z" fill="#888" fill-opacity="0.18" stroke="#000" stroke-width="1"/>
  <path d="M174.012727 881.399098 L140.857145 884.389845 L142.778580 878.283030 L114.124163 884.032287 L117.198458 874.261383 L85.085460 891.002908 L93.539770 864.132920 L73.997962 857.984331 L78.609403 843.327975 L98.151212 849.476564 L106.605522 822.606576 L123.347047 854.719574 L126.421342 844.948669 L146.621448 866.069399 L148.542882 859.962584 Z" fill="#888" fill-opacity="0.18" stroke="#000" stroke-width="1"/>
  <path d="M367.744613 721.967306 L350.864697 750.660608 L347.019726 745.541888 L335.003781 772.182957 L328.851827 763.993004 L323.756830 799.847771 L306.838957 777.325401 L290.459051 789.629308 L281.231121 777.344379 L297.611026 765.040472 L280.693153 742.518102 L316.547920 747.613099 L310.395966 739.423146 L339.329784 735.304447 L335.484813 730.185726 Z" fill="#888" fill-opacity="0.18" stroke="#000" stroke-width="1"/>
  <path d="M551.674080 598.762204 L534.741684 627.424568 L530.906086 622.298820 L518.841408 648.917855 L512.704452 640.716658 L507.543850 676.562041 L490.667221 654.008749 L474.264827 666.282661 L465.059393 653.980865 L481.461787 641.706953 L464.585158 619.153661 L500.430540 624.314264 L494.293585 616.113067 L523.234891 612.047323 L519.399294 606.921575 Z" fill="#888" fill-opacity="0.18" stroke="#000" stroke-width="1"/>
  <path d="M895.422863 937.947131 L865.816438 953.168721 L865.304205 946.787285 L840.905376 962.875375 L840.085803 952.665079 L816.608993 980.239753 L814.355168 952.161437 L793.934574 953.800582 L792.705215 938.485137 L813.125808 936.845991 L810.871983 908.767675 L838.446657 932.244485 L837.627084 922.034188 L864.279739 934.024414 L863.767506 927.642979 Z" fill="#888" fill-opacity="0.18" stroke="#000" stroke-width="1"/>
  <path d="M113.792790 104.684574 L145.371627 94.148246 L144.906268 100.533271 L171.470157 88.347650 L170.725583 98.563690 L198.127117 74.885025 L196.079539 102.979134 L216.511619 104.468282 L215.394758 119.792341 L194.962679 118.303194 L192.915101 146.397304 L169.236436 118.995770 L168.491862 129.211810 L143.975551 113.303320 L143.510192 119.688345 Z" fill="#888" fill-opacity="0.18" stroke="#000" stroke-width="1"/>
  <path d="M971.465990 241.388996 L996.565855 263.257556 L990.827363 266.095656 L1014.804446 282.805803 L1005.622859 287.346764 L1039.929227 298.948330 L1014.679863 311.435971 L1023.761784 329.799145 L1009.989404 336.610586 L1000.907483 318.247412 L975.658119 330.735053 L987.259685 296.428685 L978.078098 300.969645 L979.350379 271.771857 L973.611887 274.609957 Z" fill="#888" fill-opacity="0.18" stroke="#000" stroke-width="1"/>
  <path d="M843.756114 417.719324 L810.852824 412.658628 L814.184848 407.192119 L784.988360 405.890344 L790.319598 397.143930 L755.125467 405.681870 L769.786372 381.629231 L752.293543 370.966755 L760.290400 357.847134 L777.783229 368.509610 L792.444133 344.456971 L800.982074 379.651101 L806.313312 370.904687 L820.848895 396.259101 L824.180919 390.792592 Z" fill="#888" fill-opacity="0.18" stroke="#000" stroke-width="1"/>
  <path d="M427.874928 744.725442 L459.435693 755.315782 L455.221375 760.134975 L483.769648 766.390022 L477.026739 774.100731 L513.160785 771.681230 L494.617786 792.885681 L510.039205 806.371499 L499.924841 817.937563 L484.503422 804.451745 L465.960423 825.656196 L463.540921 789.522150 L456.798013 797.232860 L446.792738 769.773362 L442.578420 774.592556 Z" fill="#888" fill-opacity="0.18" stroke="#000" stroke-width="1"/>
  <path d="M194.979384 292.654323 L211.007183 321.832171 L204.642195 322.519217 L221.393354 346.467666 L211.209374 347.566941 L239.417510 370.278706 L211.411564 373.301710 L213.610113 393.669671 L198.334142 395.318582 L196.135594 374.950622 L168.129647 377.973626 L190.841413 349.765489 L180.657432 350.864763 L191.912220 323.893310 L185.547232 324.580357 Z" fill="#888" fill-opacity="0.18" stroke="#000" stroke-width="1"/>
  <path d="M450.591992 671.920937 L437.829510 702.667582 L433.315496 698.127893 L425.087568 726.171265 L417.865146 718.907762 L417.762443 755.122575 L397.900782 735.147941 L383.373776 749.592786 L372.540143 738.697531 L387.067149 724.252687 L367.205488 704.278053 L403.420302 704.380755 L396.197880 697.117252 L424.287468 689.048514 L419.773454 684.508824 Z" fill="#888" fill-opacity="0.18" stroke="#000" stroke-width="1"/>
  <path d="M1052.735865 1056.108230 L1028.140138 1033.674163 L1033.941728 1030.967382 L1010.351108 1013.715942 L1019.633651 1009.385093 L985.600170 997.005859 L1011.127163 985.096023 L1002.465464 966.530937 L1016.389279 960.034663 L1025.050977 978.599749 L1050.577971 966.689913 L1038.198737 1000.723394 L1047.481280 996.392545 L1045.544906 1025.553820 L1051.346496 1022.847039 Z" fill="#888" fill-opacity="0.18" stroke="#000" stroke-width="1"/>
  <path d="M733.677547 1020.358422 L701.638566 1029.399486 L702.403390 1023.043375 L675.296333 1033.967520 L676.520052 1023.797743 L648.036310 1046.162888 L651.401539 1018.196000 L631.061984 1015.748561 L632.897563 1000.493895 L653.237118 1002.941334 L656.602346 974.974446 L678.967491 1003.458188 L680.191210 993.288411 L703.933040 1010.331153 L704.697864 1003.975042 Z" fill="#888" fill-opacity="0.18" stroke="#000" stroke-width="1"/>
  <path d="M558.526178 709.516719 L528.965019 724.826030 L528.433866 718.446142 L504.082848 734.606509 L503.233003 724.398687 L479.838061 752.042853 L477.500988 723.971343 L457.085344 725.671033 L455.810577 710.359300 L476.226220 708.659611 L473.889147 680.588101 L501.533314 703.983043 L500.683469 693.775222 L527.371560 705.686365 L526.840407 699.306476 Z" fill="#888" fill-opacity="0.18" stroke="#000" stroke-width="1"/>
  <path d="M584.972648 544.119067 L555.203460 529.218309 L560.050428 525.035965 L532.657721 514.849251 L540.412870 508.157500 L504.295621 505.499005 L525.622280 487.096690 L512.238779 471.586393 L523.871502 461.548767 L537.255003 477.059064 L558.581662 458.656749 L555.923168 494.773998 L563.678316 488.082247 L569.744364 516.671277 L574.591332 512.488932 Z" fill="#888" fill-opacity="0.18" stroke="#000" stroke-width="1"/>
  <path d="M463.597323 566.432465 L491.988024 549.048413 L492.974046 555.373985 L516.107085 537.513636 L517.684721 547.634552 L539.042919 518.388173 L543.381418 546.220690 L563.623248 543.065418 L565.989702 558.246791 L545.747872 561.402063 L550.086371 589.234580 L520.839993 567.876382 L522.417629 577.997297 L494.946091 568.025129 L495.932114 574.350701 Z" fill="#888" fill-opacity="0.18" stroke="#000" stroke-width="1"/>
  <path d="M257.423575 406.079911 L260.861601 372.967721 L266.485213 376.027148 L266.350975 346.801962 L275.348754 351.697045 L265.092015 316.964890 L289.835906 330.426369 L299.626073 312.430812 L313.122741 319.773436 L303.332574 337.768994 L328.076466 351.230472 L293.344311 361.487211 L302.342090 366.382294 L277.732436 382.146002 L283.356048 385.205429 Z" fill="#888" fill-opacity="0.18" stroke="#000" stroke-width="1"/>
  <path d="M754.058262 357.673938 L746.152850 390.011866 L740.997109 386.216680 L737.158994 415.189053 L728.909809 409.116755 L734.352028 444.920463 L711.666768 428.221644 L699.522172 444.720015 L687.148394 435.611568 L699.292990 419.113197 L676.607730 402.414378 L712.411438 396.972159 L704.162253 390.899861 L730.685628 378.626308 L725.529887 374.831121 Z" fill="#888" fill-opacity="0.18" stroke="#000" stroke-width="1"/>
  <path d="M160.258517 647.774241 L182.332584 672.693565 L176.276338 674.768893 L197.901392 694.428155 L188.211398 697.748680 L220.737694 713.672352 L194.090212 722.803795 L200.731262 742.183782 L186.196272 747.164570 L179.555222 727.784583 L152.907740 736.916027 L168.831411 704.389730 L159.141418 707.710255 L164.163846 678.919550 L158.107600 680.994878 Z" fill="#888" fill-opacity="0.18" stroke="#000" stroke-width="1"/>
  <path d="M467.609332 971.094803 L496.534925 987.573491 L491.470247 991.489374 L518.276070 1003.133144 L510.172586 1009.398557 L546.094829 1013.993737 L523.810246 1031.223622 L536.341071 1047.430591 L524.185844 1056.828710 L511.655019 1040.621741 L489.370436 1057.851625 L493.965616 1021.929382 L485.862131 1028.194794 L481.340891 999.321140 L476.276213 1003.237023 Z" fill="#888" fill-opacity="0.18" stroke="#000" stroke-width="1"/>
  <path d="M428.603283 746.652637 L440.782217 777.635063 L434.381570 777.505404 L447.944360 803.393244 L437.703324 803.185790 L462.787280 829.307015 L434.624430 828.736517 L434.209522 849.218590 L418.847968 848.907409 L419.262876 828.425337 L391.100026 827.854839 L417.221251 802.770883 L406.980215 802.563429 L421.580274 777.246087 L415.179627 777.116428 Z" fill="#888" fill-opacity="0.18" stroke="#000" stroke-width="1"/>
  <path d="M828.432533 895.588580 L859.871987 884.643357 L859.489523 891.033883 L885.893049 878.504584 L885.281105 888.729425 L912.373067 864.697179 L910.690224 892.815493 L931.139907 894.039380 L930.221992 909.376642 L909.772309 908.152756 L908.089465 936.271070 L884.057219 909.179109 L883.445276 919.403950 L858.724594 903.814935 L858.342129 910.205461 Z" fill="#888" fill-opacity="0.18" stroke="#000" stroke-width="1"/>
  <path d="M216.478810 955.533426 L226.269132 987.351452 L219.896826 986.735975 L231.453991 1013.579250 L221.258301 1012.594487 L244.285618 1040.545621 L216.247470 1037.837522 L214.277943 1058.228903 L198.984407 1056.751757 L200.953934 1036.360377 L172.915786 1033.652277 L200.866920 1010.624960 L190.671230 1009.640196 L207.152213 985.505020 L200.779906 984.889543 Z" fill="#888" fill-opacity="0.18" stroke="#000" stroke-width="1"/>
  <path d="M309.894598 797.040502 L307.754242 830.261821 L302.015277 827.424678 L303.292427 856.622253 L294.110083 852.082824 L305.717371 886.387257 L280.465925 873.903828 L271.387066 892.268516 L257.613550 885.459373 L266.692408 867.094684 L241.440962 854.611254 L275.745395 843.003966 L266.563050 838.464537 L290.537346 821.750392 L284.798381 818.913249 Z" fill="#888" fill-opacity="0.18" stroke="#000" stroke-width="1"/>
  <path d="M64.728432 950.153506 L82.677530 978.190393 L76.372972 979.302889 L94.692984 1002.073631 L84.605691 1003.853624 L114.273908 1024.621873 L86.533852 1029.516856 L90.093839 1049.691442 L74.962900 1052.361433 L71.402912 1032.186846 L43.662856 1037.081829 L64.431105 1007.413612 L54.343811 1009.193606 L63.763855 981.527881 L57.459297 982.640377 Z" fill="#888" fill-opacity="0.18" stroke="#000" stroke-width="1"/>
  <path d="M898.248993 984.891237 L931.533044 984.251601 L929.184750 990.207323 L958.173882 986.497908 L954.416613 996.027063 L987.632673 981.597350 L977.300182 1007.802525 L996.358492 1015.317063 L990.722588 1029.610795 L971.664278 1022.096257 L961.331788 1048.301432 L946.902074 1015.085372 L943.144805 1024.614527 L924.488164 1002.118766 L922.139871 1008.074488 Z" fill="#888" fill-opacity="0.18" stroke="#000" stroke-width="1"/>
  <path d="M745.842451 209.800155 L778.947809 213.303351 L775.877319 218.920930 L805.102713 218.844218 L800.189928 227.832344 L834.942205 217.643991 L821.432047 242.361337 L839.408299 252.186906 L832.039122 265.669095 L814.062870 255.843526 L800.552713 280.560873 L790.364359 245.808596 L785.451575 254.796722 L769.736338 230.156088 L766.665848 235.773666 Z" fill="#888" fill-opacity="0.18" stroke="#000" stroke-width="1"/>
  <path d="M357.736110 255.585073 L370.355339 286.390790 L363.953494 286.352361 L377.883836 312.044287 L367.640883 311.982800 L393.094547 337.743900 L364.926427 337.574810 L364.803453 358.060715 L349.439024 357.968485 L349.561998 337.482579 L321.393878 337.313490 L347.154978 311.859826 L336.912025 311.798339 L351.149803 286.275502 L344.747958 286.237072 Z" fill="#888" fill-opacity="0.18" stroke="#000" stroke-width="1"/>
  <path d="M634.119026 768.710349 L666.442261 760.745070 L665.465444 767.072070 L692.922441 757.059938 L691.359534 767.183138 L720.574803 745.782405 L716.276808 773.621206 L736.523208 776.747020 L734.178848 791.931820 L713.932447 788.806006 L709.634453 816.644807 L688.233720 787.429539 L686.670813 797.552739 L663.511810 779.726071 L662.534993 786.053071 Z" fill="#888" fill-opacity="0.18" stroke="#000" stroke-width="1"/>
  <path d="M291.446539 662.566656 L258.538049 657.539883 L261.864435 652.069942 L232.666621 650.798266 L237.988839 642.046360 L202.803529 650.620579 L217.439630 626.552838 L199.935819 615.908401 L207.919146 602.780543 L225.422957 613.424980 L240.059058 589.357239 L248.633276 624.542549 L253.955494 615.790643 L268.517208 641.130060 L271.843595 635.660119 Z" fill="#888" fill-opacity="0.18" stroke="#000" stroke-width="1"/>
  <path d="M1047.967272 959.698513 L1015.055466 954.693498 L1018.378236 949.221359 L989.179587 947.968986 L994.496018 939.213564 L959.316385 947.811042 L973.936570 923.733630 L956.425726 913.100768 L964.400372 899.967635 L981.911217 910.600497 L996.531403 886.523086 L1005.128881 921.702719 L1010.445312 912.947297 L1025.023775 938.277081 L1028.346544 932.804942 Z" fill="#888" fill-opacity="0.18" stroke="#000" stroke-width="1"/>
  <path d="M783.721140 604.440748 L786.093504 637.646305 L780.023555 635.611403 L785.237831 664.367982 L775.525914 661.112138 L791.666096 693.531542 L764.958324 684.577970 L758.446635 704.001805 L743.878759 699.118038 L750.390447 679.694203 L723.682675 670.740632 L756.102079 654.600449 L746.390162 651.344605 L767.883659 631.541597 L761.813710 629.506695 Z" fill="#888" fill-opacity="0.18" stroke="#000" stroke-width="1"/>
  <path d="M954.588815 495.756156 L987.800594 493.472535 L985.749477 499.537024 L1014.519888 494.399614 L1011.238102 504.102796 L1043.700522 488.049305 L1034.675611 514.733056 L1054.081975 521.296627 L1049.159296 535.851401 L1029.752932 529.287829 L1020.728021 555.971580 L1004.674531 523.509160 L1001.392745 533.212342 L981.647245 511.666002 L979.596129 517.730491 Z" fill="#888" fill-opacity="0.18" stroke="#000" stroke-width="1"/>
  <path d="M811.182169 1025.491655 L841.314469 1011.339564 L841.597954 1017.735245 L866.557012 1002.530807 L867.010588 1012.763896 L891.459372 986.047231 L892.706707 1014.188229 L913.172886 1013.281077 L913.853251 1028.630711 L893.387071 1029.537864 L894.634405 1057.678861 L867.917740 1033.230076 L868.371316 1043.463166 L842.164924 1030.526608 L842.448409 1036.922289 Z" fill="#888" fill-opacity="0.18" stroke="#000" stroke-width="1"/>
  <path d="M215.571605 663.530840 L248.683172 666.974865 L245.622726 672.597922 L274.847936 672.468979 L269.951223 681.465870 L304.685235 671.215424 L291.219274 695.956876 L309.213058 705.750302 L301.867988 719.245640 L283.874204 709.452214 L270.408243 734.193666 L260.157797 699.459654 L255.261084 708.456546 L239.501835 683.844037 L236.441389 689.467094 Z" fill="#888" fill-opacity="0.18" stroke="#000" stroke-width="1"/>
  <path d="M212.305170 539.227864 L245.508325 541.633616 L242.625414 547.349727 L271.832263 546.305927 L267.219605 555.451705 L301.615694 544.118905 L288.930885 569.269793 L307.222440 578.495109 L300.303453 592.213776 L282.011898 582.988460 L269.327089 608.139348 L257.994289 573.743260 L253.381632 582.889038 L236.859592 558.781949 L233.976681 564.498060 Z" fill="#888" fill-opacity="0.18" stroke="#000" stroke-width="1"/>
  <path d="M786.485564 532.145983 L817.692153 543.738479 L813.326134 548.420677 L841.660168 555.583918 L834.674537 563.075435 L870.867406 561.810720 L851.656922 582.412391 L866.639955 596.383653 L856.161509 607.620928 L841.178476 593.649666 L821.967991 614.251338 L820.703276 578.058469 L813.717645 585.549986 L804.594095 557.785073 L800.228076 562.467271 Z" fill="#888" fill-opacity="0.18" stroke="#000" stroke-width="1"/>
  <path d="M832.563834 734.873930 L803.489807 751.089297 L802.761786 744.728866 L778.921708 761.633902 L777.756873 751.457212 L755.227235 779.811023 L752.023940 751.825126 L731.670559 754.154795 L729.923307 738.889760 L750.276688 736.560091 L747.073392 708.574193 L775.427204 731.103831 L774.262369 720.927141 L801.305742 732.008003 L800.577721 725.647572 Z" fill="#888" fill-opacity="0.18" stroke="#000" stroke-width="1"/>
  <path d="M602.677668 152.343601 L577.747391 174.405297 L575.675069 168.348022 L556.005076 189.963315 L552.689361 180.271675 L536.749548 212.790064 L527.631331 186.138053 L508.248050 192.769483 L503.274478 178.232022 L522.657758 171.600592 L513.539542 144.948581 L546.057931 160.888394 L542.742215 151.196754 L571.530425 156.233471 L569.458103 150.176196 Z" fill="#888" fill-opacity="0.18" stroke="#000" stroke-width="1"/>
  <path d="M388.040072 692.752491 L356.194889 683.050870 L360.272483 678.115454 L331.560114 672.662991 L338.084264 664.766326 L302.032225 668.197611 L319.973640 646.481783 L304.180310 633.433481 L313.966536 621.588484 L329.759866 634.636786 L347.701281 612.920957 L351.132566 648.972996 L357.656717 641.076332 L368.427672 668.244623 L372.505266 663.309207 Z" fill="#888" fill-opacity="0.18" stroke="#000" stroke-width="1"/>
  <path d="M869.615525 369.488128 L883.047617 339.028055 L887.461232 343.665414 L896.300714 315.808762 L903.362499 323.228536 L904.257472 287.024637 L923.677381 307.429017 L938.516930 293.305447 L949.109608 304.435108 L934.270059 318.558678 L953.689968 338.963058 L917.486069 338.068085 L924.547854 345.487859 L896.288464 352.940132 L900.702079 357.577491 Z" fill="#888" fill-opacity="0.18" stroke="#000" stroke-width="1"/>
  <path d="M764.126285 592.351390 L730.899898 590.291212 L733.723183 584.545417 L704.528774 585.893027 L709.046030 576.699754 L674.769709 588.389795 L687.192163 563.108296 L668.805618 554.073784 L675.581502 540.283875 L693.968047 549.318387 L706.390501 524.036888 L718.080542 558.313209 L722.597798 549.119937 L739.369753 573.053826 L742.193038 567.308031 Z" fill="#888" fill-opacity="0.18" stroke="#000" stroke-width="1"/>
  <path d="M903.390911 738.925278 L930.091453 719.042668 L931.646018 725.253016 L953.067369 705.371989 L955.554673 715.308546 L974.177806 684.248891 L981.017893 711.574425 L1000.891009 706.599816 L1004.621965 721.504652 L984.748850 726.479261 L991.588937 753.804795 L960.529282 735.181662 L963.016586 745.118219 L934.755149 737.673713 L936.309714 743.884062 Z" fill="#888" fill-opacity="0.18" stroke="#000" stroke-width="1"/>
  <path d="M942.079139 676.350442 L969.286273 657.166881 L970.679277 663.415453 L992.608954 644.096581 L994.837760 654.094295 L1014.260030 623.527996 L1020.389246 651.021709 L1040.384674 646.564097 L1043.727883 661.560668 L1023.732455 666.018280 L1029.861671 693.511993 L999.295372 674.089723 L1001.524177 684.087437 L973.465284 675.912595 L974.858288 682.161166 Z" fill="#888" fill-opacity="0.18" stroke="#000" stroke-width="1"/>
  <path d="M421.538696 600.305166 L388.999820 607.337855 L390.158135 601.041554 L362.424637 610.260154 L364.277941 600.186073 L334.459476 620.738016 L339.556063 593.034291 L319.407900 589.327682 L322.187857 574.216559 L342.336020 577.923168 L347.432608 550.219443 L367.984551 580.037909 L369.837855 569.963828 L392.474766 588.448951 L393.633081 582.152650 Z" fill="#888" fill-opacity="0.18" stroke="#000" stroke-width="1"/>
  <path d="M754.874785 143.038913 L740.326118 113.096077 L746.717499 112.728180 L731.184873 87.972028 L741.411083 87.383393 L714.373970 63.289456 L742.496048 61.670710 L741.318778 41.218290 L756.658092 40.335337 L757.835363 60.787757 L785.957440 59.169011 L761.863503 86.206123 L772.089713 85.617488 L759.500261 111.992386 L765.891643 111.624489 Z" fill="#888" fill-opacity="0.18" stroke="#000" stroke-width="1"/>
  <path d="M484.892556 392.255064 L474.239596 423.794747 L469.428777 419.570873 L463.117081 448.106675 L455.419769 441.348475 L457.767548 477.487252 L436.599943 458.902203 L423.083544 474.296826 L411.537577 464.159526 L425.053976 448.764904 L403.886370 430.179855 L440.025147 427.832076 L432.327836 421.073876 L459.807138 411.123123 L454.996318 406.899248 Z" fill="#888" fill-opacity="0.18" stroke="#000" stroke-width="1"/>
  <path d="M603.817327 490.080733 L625.100005 515.679263 L618.981725 517.563871 L639.980373 537.890855 L630.191125 540.906228 L662.202678 557.840918 L635.282244 566.133192 L641.312989 585.711690 L626.629116 590.234749 L620.598371 570.656251 L593.677937 578.948526 L610.612627 546.936973 L600.823379 549.952346 L606.745164 521.333087 L600.626884 523.217695 Z" fill="#888" fill-opacity="0.18" stroke="#000" stroke-width="1"/>
  <path d="M314.789438 940.237289 L342.377215 921.605281 L343.644156 927.880626 L365.958268 909.007102 L367.985373 919.047655 L388.018992 888.878508 L393.593532 916.490029 L413.674638 912.435818 L416.715297 927.496647 L396.634191 931.550858 L402.208731 959.162379 L372.039585 939.128761 L374.066690 949.169314 L346.178038 940.431318 L347.444979 946.706663 Z" fill="#888" fill-opacity="0.18" stroke="#000" stroke-width="1"/>
  <path d="M566.177489 685.322458 L582.118638 714.547737 L575.751639 715.215893 L592.431662 739.213942 L582.244465 740.282993 L610.385085 763.078360 L582.370292 766.018249 L584.508394 786.392644 L569.227598 787.996220 L567.089496 767.621825 L539.074703 770.561714 L561.870070 742.421094 L551.682873 743.490145 L563.017643 716.552207 L556.650644 717.220363 Z" fill="#888" fill-opacity="0.18" stroke="#000" stroke-width="1"/>
  <path d="M298.367256 295.384535 L265.227468 298.545486 L267.117520 292.428885 L238.493002 298.325198 L241.517086 288.538637 L209.490474 305.444832 L217.806704 278.531788 L198.233581 272.483622 L202.769706 257.803780 L222.342829 263.851947 L230.659058 236.938903 L247.565253 268.965515 L250.589336 259.178954 L270.897624 280.195684 L272.787676 274.079083 Z" fill="#888" fill-opacity="0.18" stroke="#000" stroke-width="1"/>
  <path d="M194.869381 622.731481 L162.086326 616.942834 L165.538679 611.551511 L136.378211 609.603010 L141.901975 600.976893 L106.527273 608.732774 L121.717625 585.010953 L104.465392 573.963425 L112.751038 561.024250 L130.003272 572.071778 L145.193624 548.349958 L152.949504 583.724660 L158.473269 575.098544 L172.443384 600.768865 L175.895737 595.377542 Z" fill="#888" fill-opacity="0.18" stroke="#000" stroke-width="1"/>
  <path d="M400.000735 650.420129 L411.634507 619.228904 L416.310925 623.601114 L423.511646 595.276581 L430.993914 602.272117 L429.777083 566.077607 L450.353321 585.315330 L464.344392 570.350794 L475.567795 580.844098 L461.576723 595.808634 L482.152961 615.046358 L445.958451 616.263189 L453.440719 623.258725 L425.663761 632.345534 L430.340178 636.717744 Z" fill="#888" fill-opacity="0.18" stroke="#000" stroke-width="1"/>
  <path d="M370.050618 373.331386 L386.481992 402.283884 L380.127157 403.059239 L397.209213 426.772798 L387.041477 428.013366 L415.562236 450.331286 L387.600963 453.742847 L390.082099 474.078319 L374.830495 475.939171 L372.349359 455.603699 L344.388086 459.015261 L366.706006 430.494501 L356.538270 431.735069 L367.417487 404.609949 L361.062652 405.385304 Z" fill="#888" fill-opacity="0.18" stroke="#000" stroke-width="1"/>
  <path d="M792.110885 776.227284 L790.670432 809.486301 L784.873007 806.770613 L786.764590 835.934828 L777.488709 831.589727 L789.815658 865.642181 L764.306986 853.693153 L755.616784 872.244913 L741.702964 865.727262 L750.393166 847.175501 L724.884495 835.226473 L758.936948 822.899525 L749.661068 818.554424 L773.278156 801.339237 L767.480731 798.623548 Z" fill="#888" fill-opacity="0.18" stroke="#000" stroke-width="1"/>
  <path d="M660.755228 523.728561 L635.003440 502.631581 L640.653184 499.620685 L616.180164 483.645680 L625.219754 478.828247 L590.577194 468.272854 L615.436068 455.024912 L605.801201 436.945731 L619.360587 429.719581 L628.995454 447.798762 L653.854328 434.550820 L643.298935 469.193380 L652.338526 464.375946 L651.952672 493.598893 L657.602416 490.587998 Z" fill="#888" fill-opacity="0.18" stroke="#000" stroke-width="1"/>
  <path d="M314.181261 215.431407 L281.497162 209.107893 L285.037142 203.773698 L255.912403 201.349007 L261.576371 192.814294 L226.079669 199.991156 L241.655581 176.520695 L224.586155 165.192759 L233.082108 152.390690 L250.151534 163.718626 L265.727446 140.248166 L272.904308 175.744868 L278.568276 167.210156 L292.117102 193.105306 L295.657082 187.771111 Z" fill="#888" fill-opacity="0.18" stroke="#000" stroke-width="1"/>
  <path d="M912.169027 63.654048 L931.007209 91.101453 L924.741532 92.415375 L943.781712 114.587454 L933.756629 116.689730 L964.075027 136.496748 L936.506048 142.278008 L940.710600 162.328174 L925.672975 165.481588 L921.468423 145.431422 L893.899444 151.212681 L913.706462 120.894282 L903.681379 122.996558 L912.210178 95.043220 L905.944501 96.357143 Z" fill="#888" fill-opacity="0.18" stroke="#000" stroke-width="1"/>
  <path d="M650.471424 219.253640 L683.212391 225.275781 L679.721703 230.642362 L708.867543 232.798636 L703.282442 241.385167 L738.711521 233.881594 L723.352493 257.494552 L740.525554 268.664755 L732.147902 281.544551 L714.974841 270.374348 L699.615812 293.987307 L692.112240 258.558227 L686.527138 267.144758 L672.740327 241.375525 L669.249638 246.742107 Z" fill="#888" fill-opacity="0.18" stroke="#000" stroke-width="1"/>
  <path d="M675.335807 206.134043 L678.444963 172.989355 L684.098668 175.992807 L683.674323 146.770393 L692.720251 151.575915 L682.119236 116.947289 L706.995539 130.162476 L716.606583 112.070619 L730.175475 119.278903 L720.564431 137.370759 L745.440733 150.585945 L710.812107 161.186960 L719.858036 165.992482 L695.406079 181.999710 L701.059784 185.003161 Z" fill="#888" fill-opacity="0.18" stroke="#000" stroke-width="1"/>
  <path d="M174.221502 975.980236 L141.580920 969.435803 L145.156898 964.125672 L116.049226 961.504048 L121.770790 953.007839 L86.226357 959.944449 L101.960660 936.579876 L84.968243 925.136746 L93.550590 912.392434 L110.543007 923.835563 L126.277309 900.470989 L133.213919 936.015422 L138.935484 927.519214 L152.308854 953.505412 L155.884832 948.195281 Z" fill="#888" fill-opacity="0.18" stroke="#000" stroke-width="1"/>
  <path d="M533.543104 923.957655 L565.840561 932.026820 L562.019300 937.163264 L590.971854 941.148131 L584.857836 949.366442 L620.688660 944.105708 L603.875110 966.706065 L620.311734 978.934101 L611.140707 991.261568 L594.704084 979.033532 L577.890534 1001.633889 L572.629800 965.803066 L566.515782 974.021377 L554.376778 947.436154 L550.555517 952.572599 Z" fill="#888" fill-opacity="0.18" stroke="#000" stroke-width="1"/>
  <path d="M421.144088 598.810944 L393.968308 579.582992 L399.391597 576.181075 L373.852692 561.972138 L382.529955 556.529070 L347.229131 548.443584 L371.091601 533.475148 L360.205466 516.120624 L373.221359 507.956023 L384.107494 525.310547 L407.969965 510.342111 L399.884479 545.642935 L408.561741 540.199868 L410.238174 569.377241 L415.661463 565.975324 Z" fill="#888" fill-opacity="0.18" stroke="#000" stroke-width="1"/>
  <path d="M262.947033 895.160024 L229.764220 897.831749 L231.744300 891.743696 L203.035914 897.217094 L206.204041 887.476210 L173.931512 903.908104 L182.643861 877.120671 L163.162092 870.784417 L167.914283 856.173090 L187.396052 862.509344 L196.108401 835.721912 L212.540295 867.994441 L215.708422 858.253556 L235.704459 879.567590 L237.684538 873.479537 Z" fill="#888" fill-opacity="0.18" stroke="#000" stroke-width="1"/>
  <path d="M87.529873 440.611388 L92.201443 407.650599 L97.706940 410.917800 L98.663649 381.707969 L107.472445 386.935490 L98.519260 351.844698 L122.743448 366.220382 L133.198490 348.602790 L146.411684 356.444072 L135.956641 374.061664 L160.180829 388.437348 L125.090036 397.390533 L133.898832 402.618055 L108.717934 417.452202 L114.223432 420.719403 Z" fill="#888" fill-opacity="0.18" stroke="#000" stroke-width="1"/>
  <path d="M838.912466 255.173741 L848.546909 287.039312 L842.177691 286.392648 L853.603310 313.292179 L843.412562 312.257515 L866.302771 340.321043 L838.278216 337.475717 L836.208888 357.857212 L820.922767 356.305216 L822.992095 335.923722 L794.967540 333.078396 L823.031068 310.188187 L812.840320 309.153523 L829.439257 285.099318 L823.070040 284.452653 Z" fill="#888" fill-opacity="0.18" stroke="#000" stroke-width="1"/>
  <path d="M660.983594 628.037067 L643.293445 656.238056 L639.595796 651.011921 L626.826085 677.300017 L620.909845 668.938201 L614.795903 704.633340 L598.526245 681.638346 L581.802612 693.470825 L572.928253 680.928100 L589.651885 669.095621 L573.382226 646.100627 L609.077366 652.214568 L603.161126 643.852752 L632.200496 640.559650 L628.502846 635.333515 Z" fill="#888" fill-opacity="0.18" stroke="#000" stroke-width="1"/>
  <path d="M692.343256 825.226656 L660.319987 834.323216 L661.073798 827.965790 L633.985709 838.936884 L635.191806 828.765002 L606.746856 851.179464 L610.063625 823.206788 L589.719860 820.794592 L591.529006 805.536769 L611.872771 807.948964 L615.189539 779.976288 L637.604001 808.421237 L638.810099 798.249355 L662.581420 815.250937 L663.335231 808.893511 Z" fill="#888" fill-opacity="0.18" stroke="#000" stroke-width="1"/>
  <path d="M612.358551 918.348062 L645.636963 917.462381 L643.332764 923.435301 L672.293680 919.511676 L668.606961 929.068347 L701.715437 914.393468 L691.576959 940.674313 L710.690301 948.047752 L705.160222 962.382759 L686.046880 955.009320 L675.908402 981.290165 L661.233522 948.181690 L657.546803 957.738361 L638.724364 935.381140 L636.420165 941.354059 Z" fill="#888" fill-opacity="0.18" stroke="#000" stroke-width="1"/>
  <path d="M40.010082 540.929267 L68.967359 557.352217 L63.910232 561.277846 L90.738430 572.869969 L82.647027 579.150976 L118.578054 583.676965 L96.326695 600.949736 L108.888710 617.132542 L96.751606 626.554054 L84.189591 610.371247 L61.938232 627.644018 L66.464221 591.712992 L58.372818 597.993999 L53.795978 569.129106 L48.738851 573.054736 Z" fill="#888" fill-opacity="0.18" stroke="#000" stroke-width="1"/>
  <path d="M388.806397 800.807402 L377.181799 832.002047 L372.504096 827.631213 L365.311706 855.957862 L357.827380 848.964527 L359.054856 885.158678 L338.472961 865.927006 L324.486291 880.895657 L313.259803 870.405655 L327.246473 855.437004 L306.664579 836.205333 L342.858730 834.977857 L335.374404 827.984522 L363.148689 818.889544 L358.470986 814.518709 Z" fill="#888" fill-opacity="0.18" stroke="#000" stroke-width="1"/>
  <path d="M466.404227 287.840172 L461.880727 320.821608 L456.360612 317.579165 L455.535090 346.792998 L446.702907 341.605088 L455.813590 376.655319 L431.525087 362.388568 L421.149268 380.052934 L407.900994 372.271069 L418.276813 354.606704 L393.988310 340.339952 L429.038541 331.229269 L420.206358 326.041359 L445.320384 311.094278 L439.800269 307.851834 Z" fill="#888" fill-opacity="0.18" stroke="#000" stroke-width="1"/>
  <path d="M922.412153 778.078072 L921.614360 811.358707 L915.765563 808.755501 L918.220094 837.877740 L908.862019 833.712611 L921.844384 867.520620 L896.109678 856.066516 L887.779421 874.782665 L873.742309 868.534972 L882.072566 849.818823 L856.337861 838.364718 L890.145870 825.382354 L880.787795 821.217225 L904.067970 803.549090 L898.219173 800.945885 Z" fill="#888" fill-opacity="0.18" stroke="#000" stroke-width="1"/>
  <path d="M468.358148 109.269318 L465.764476 142.458322 L460.064776 139.543099 L460.943222 168.755389 L451.823703 164.091032 L462.961609 198.550723 L437.882931 185.723741 L428.554216 203.962780 L414.874937 196.966244 L424.203651 178.727205 L399.124973 165.900223 L433.584664 154.762317 L424.465145 150.097960 L448.665377 133.712653 L442.965677 130.797430 Z" fill="#888" fill-opacity="0.18" stroke="#000" stroke-width="1"/>
  <path d="M576.040272 124.101166 L544.229683 133.915626 L544.840326 127.542855 L518.005826 139.120383 L518.982854 128.923948 L491.049198 151.972466 L493.736024 123.932271 L473.343155 121.978215 L474.808697 106.683563 L495.201566 108.637619 L497.888392 80.597424 L520.936909 108.531079 L521.913937 98.334645 L546.061610 114.797311 L546.672252 108.424540 Z" fill="#888" fill-opacity="0.18" stroke="#000" stroke-width="1"/>
  <path d="M102.790867 519.100609 L116.247937 488.651563 L120.657748 493.292540 L129.520074 465.443147 L136.575771 472.868711 L137.500438 436.665559 L156.903605 457.085859 L171.754733 442.974465 L182.338279 454.112811 L167.487151 468.224205 L186.890318 488.644506 L150.687165 487.719839 L157.742862 495.145403 L129.477369 502.574495 L133.887180 507.215472 Z" fill="#888" fill-opacity="0.18" stroke="#000" stroke-width="1"/>
  <path d="M360.628580 386.273838 L353.219999 418.729194 L348.006665 415.013517 L344.613292 444.041340 L336.271958 438.096258 L342.262586 473.812299 L319.323918 457.463322 L307.433752 474.145989 L294.921751 465.228365 L306.811917 448.545697 L283.873249 432.196720 L319.589290 426.206092 L311.247956 420.261009 L337.579998 407.582163 L332.366664 403.866487 Z" fill="#888" fill-opacity="0.18" stroke="#000" stroke-width="1"/>
  <path d="M650.376521 730.980231 L671.850157 705.541675 L674.777590 711.235113 L691.110989 686.999817 L695.794882 696.109318 L706.858901 661.625833 L719.739607 686.676960 L737.958609 677.309174 L744.984449 690.973425 L726.765447 700.341211 L739.646153 725.392338 L705.162668 714.328319 L709.846561 723.437820 L680.632456 722.621989 L683.559890 728.315427 Z" fill="#888" fill-opacity="0.18" stroke="#000" stroke-width="1"/>
  <path d="M658.899055 405.382742 L633.240921 384.171959 L638.903940 381.186106 L614.501885 365.102909 L623.562715 360.325543 L588.967226 349.616882 L613.884508 336.479127 L604.329777 318.357467 L617.921022 311.191419 L627.475753 329.313078 L652.393036 316.175323 L641.684375 350.770812 L650.745205 345.993446 L650.229977 375.214399 L655.892996 372.228545 Z" fill="#888" fill-opacity="0.18" stroke="#000" stroke-width="1"/>
  <path d="M985.897432 399.528610 L1012.007676 420.180300 L1006.410465 423.287763 L1031.154181 438.840191 L1022.198642 443.812132 L1057.017339 453.771127 L1032.389608 467.443963 L1042.333489 485.355040 L1028.900181 492.812951 L1018.956300 474.901873 L994.328569 488.574709 L1004.287565 453.756012 L995.332027 458.727952 L995.216041 429.502688 L989.618830 432.610151 Z" fill="#888" fill-opacity="0.18" stroke="#000" stroke-width="1"/>
  <path d="M412.024227 153.261615 L416.098458 120.221673 L421.662188 123.388692 L422.090059 94.166330 L430.992027 99.233560 L421.405183 64.310564 L445.885595 78.245448 L456.020056 60.441512 L469.373008 68.042358 L459.238547 85.846294 L483.718959 99.781178 L448.795963 109.368022 L457.697931 114.435252 L432.789648 129.722730 L438.353379 132.889749 Z" fill="#888" fill-opacity="0.18" stroke="#000" stroke-width="1"/>
  <path d="M186.961311 901.793153 L220.061126 898.237955 L218.244015 904.376620 L246.796320 898.140000 L243.888942 907.961865 L275.712046 890.675647 L267.716759 917.685774 L287.360487 923.500529 L282.999421 938.233325 L263.355692 932.418571 L255.360405 959.428697 L238.074188 927.605593 L235.166810 937.427457 L214.609793 916.653950 L212.792683 922.792616 Z" fill="#888" fill-opacity="0.18" stroke="#000" stroke-width="1"/>
  <path d="M507.691351 297.099605 L487.449920 270.670045 L493.638706 269.031741 L473.470161 247.880870 L483.372217 245.259583 L452.063860 227.057660 L479.294514 219.849121 L474.051940 200.045009 L488.905024 196.113078 L494.147598 215.917191 L521.378253 208.708652 L503.176329 240.017009 L513.078386 237.395722 L506.016276 265.755132 L512.205061 264.116828 Z" fill="#888" fill-opacity="0.18" stroke="#000" stroke-width="1"/>
  <path d="M974.920783 230.534397 L974.284132 197.250289 L980.239644 199.599116 L976.532829 170.609652 L986.061646 174.367776 L971.634911 141.150422 L997.839160 151.485262 L1005.355408 132.427627 L1019.648634 138.064812 L1012.132387 157.122448 L1038.336635 167.457288 L1005.119282 181.884023 L1014.648099 185.642147 L992.150666 204.296771 L998.106177 206.645598 Z" fill="#888" fill-opacity="0.18" stroke="#000" stroke-width="1"/>
  <path d="M355.832087 503.021968 L326.478137 518.724922 L325.861781 512.352700 L301.728879 528.837013 L300.742708 518.641459 L277.719248 546.595770 L275.007280 518.557996 L254.616171 520.530336 L253.136916 505.237005 L273.528025 503.264664 L270.816057 475.226890 L298.770368 498.250350 L297.784198 488.054796 L324.629068 499.608257 L324.012711 493.236036 Z" fill="#888" fill-opacity="0.18" stroke="#000" stroke-width="1"/>
  <path d="M276.456213 971.256816 L309.675973 973.421233 L306.834674 979.158142 L336.033167 977.902138 L331.487089 987.081192 L365.799920 975.498752 L353.298205 1000.741151 L371.656313 1009.833307 L364.837196 1023.601888 L346.479088 1014.509732 L333.977373 1039.752131 L322.394933 1005.439300 L317.848855 1014.618354 L301.152077 990.631960 L298.310778 996.368868 Z" fill="#888" fill-opacity="0.18" stroke="#000" stroke-width="1"/>
  <path d="M507.350348 864.311317 L504.407445 897.471180 L498.738749 894.496118 L499.309635 923.716036 L490.239722 918.955938 L501.014260 953.530967 L476.071998 940.440697 L466.551802 958.580524 L452.946932 951.440376 L462.467128 933.300550 L437.524867 920.210280 L472.099895 909.435742 L463.029982 904.675644 L487.401358 888.545996 L481.732662 885.570934 Z" fill="#888" fill-opacity="0.18" stroke="#000" stroke-width="1"/>
  <path d="M957.699255 81.131960 L990.930802 79.156757 L988.823475 85.201943 L1017.640338 80.331842 L1014.268615 90.004140 L1046.878668 74.252703 L1037.606429 100.851522 L1056.951024 107.594968 L1051.893440 122.103415 L1032.548844 115.359969 L1023.276605 141.958787 L1007.525169 109.348735 L1004.153446 119.021033 L984.608821 97.292316 L982.501494 103.337502 Z" fill="#888" fill-opacity="0.18" stroke="#000" stroke-width="1"/>
  <path d="M108.819801 265.262974 L128.588715 238.478143 L131.881221 243.968544 L146.599313 218.719637 L151.867322 227.504279 L160.658903 192.372650 L175.145930 216.530415 L192.715214 205.994396 L200.617228 219.171359 L183.047944 229.707379 L197.534971 253.865144 L162.403341 245.073563 L167.671351 253.858205 L138.466233 254.949346 L141.758739 260.439748 Z" fill="#888" fill-opacity="0.18" stroke="#000" stroke-width="1"/>
  <path d="M673.486656 192.267188 L649.689148 215.546272 L647.316937 209.600037 L628.750860 232.170599 L624.955322 222.656622 L610.659224 255.930409 L600.221496 229.766973 L581.193542 237.358048 L575.500235 223.087083 L594.528189 215.496007 L584.090460 189.332571 L617.364246 203.628669 L613.568709 194.114692 L642.572515 197.707566 L640.200304 191.761330 Z" fill="#888" fill-opacity="0.18" stroke="#000" stroke-width="1"/>
  <path d="M704.408218 342.644240 L722.295799 314.568065 L725.956689 319.820015 L738.910532 293.622163 L744.767957 302.025283 L751.132197 266.373920 L767.240115 289.482502 L784.046356 277.767653 L792.832493 290.372334 L776.026252 302.087183 L792.134170 325.195765 L756.482806 318.831525 L762.340231 327.234645 L733.278470 330.323916 L736.939361 335.575867 Z" fill="#888" fill-opacity="0.18" stroke="#000" stroke-width="1"/>
  <path d="M318.591494 199.545071 L350.633965 190.516383 L349.866685 196.872198 L376.977960 185.958524 L375.750313 196.127828 L404.242691 173.773686 L400.866661 201.739272 L421.205269 204.194567 L419.363798 219.448523 L399.025190 216.993228 L395.649160 244.958814 L373.295018 216.466436 L372.067371 226.635739 L348.332126 209.583828 L347.564847 215.939643 Z" fill="#888" fill-opacity="0.18" stroke="#000" stroke-width="1"/>
  <path d="M508.336668 294.446263 L515.634217 261.965762 L520.860227 265.663589 L524.154313 236.624330 L532.515928 242.540853 L526.403196 206.845507 L549.397640 223.115945 L561.230686 206.392713 L573.773109 215.267498 L561.940063 231.990729 L584.934506 248.261167 L549.239160 254.373899 L557.600776 260.290422 L531.312247 273.059242 L536.538257 276.757069 Z" fill="#888" fill-opacity="0.18" stroke="#000" stroke-width="1"/>
  <path d="M796.511135 636.633058 L823.541572 656.064801 L818.092857 659.425844 L843.524202 673.826407 L834.806259 679.204076 L870.045290 687.554761 L846.070946 702.343352 L856.826285 719.779238 L843.749370 727.845742 L832.994031 710.409856 L809.019687 725.198446 L817.370372 689.959415 L808.652429 695.337084 L807.195428 666.147931 L801.746714 669.508974 Z" fill="#888" fill-opacity="0.18" stroke="#000" stroke-width="1"/>
  <path d="M186.201027 255.347342 L180.208240 288.093695 L174.838531 284.607820 L172.708387 313.755581 L164.116854 308.178180 L171.652185 343.600518 L148.025467 328.262665 L136.870664 345.445733 L123.983363 337.079631 L135.138166 319.896563 L111.511448 304.558709 L146.933786 297.023377 L138.342252 291.445976 L164.099114 277.636068 L158.729405 274.150192 Z" fill="#888" fill-opacity="0.18" stroke="#000" stroke-width="1"/>
  <path d="M349.210735 1046.523314 L374.838193 1025.275478 L376.714477 1031.396317 L397.070007 1010.425339 L400.072061 1020.218681 L417.050282 988.230194 L425.305928 1015.161884 L444.892611 1009.157777 L449.395690 1023.847790 L429.809007 1029.851896 L438.064653 1056.783585 L406.076167 1039.805364 L409.078220 1049.598705 L380.467043 1043.637993 L382.343326 1049.758832 Z" fill="#888" fill-opacity="0.18" stroke="#000" stroke-width="1"/>
  <path d="M47.616361 203.082833 L55.777821 170.808575 L60.903321 174.644504 L64.970937 145.703461 L73.171737 151.840947 L68.013454 115.995231 L90.565654 132.873319 L102.840627 116.471719 L115.141827 125.677949 L102.866854 142.079549 L125.419053 158.957637 L89.573337 164.115920 L97.774137 170.253407 L71.154321 182.316363 L76.279821 186.152292 Z" fill="#888" fill-opacity="0.18" stroke="#000" stroke-width="1"/>
  <path d="M486.456303 277.388149 L501.439937 307.115710 L495.054598 307.576742 L510.946474 332.103825 L500.729932 332.841478 L528.115417 356.538702 L500.019927 358.567246 L501.495231 379.000330 L486.170418 380.106808 L484.695114 359.673724 L456.599623 361.702268 L480.296848 334.316782 L470.080306 335.054434 L482.283920 308.498808 L475.898582 308.959840 Z" fill="#888" fill-opacity="0.18" stroke="#000" stroke-width="1"/>
  <path d="M663.218519 689.450486 L663.762983 656.164743 L669.631424 658.723356 L666.955309 629.620643 L676.344814 633.714425 L663.105506 600.006207 L688.926645 611.264107 L697.114209 592.485097 L711.198467 598.625770 L703.010903 617.404780 L728.832043 628.662681 L695.123825 641.901989 L704.513330 645.995771 L681.368305 663.840584 L687.236746 666.399198 Z" fill="#888" fill-opacity="0.18" stroke="#000" stroke-width="1"/>
  <path d="M532.223726 378.038686 L535.659812 411.151077 L529.527725 409.311892 L535.661577 437.886450 L525.850237 434.943754 L543.021847 466.828845 L516.040661 458.736431 L510.155269 478.359111 L495.438258 473.945067 L501.323651 454.322386 L474.342465 446.229972 L506.227556 429.058361 L496.416216 426.115665 L517.263549 405.633522 L511.131462 403.794336 Z" fill="#888" fill-opacity="0.18" stroke="#000" stroke-width="1"/>
  <path d="M869.532651 635.228972 L896.774292 654.363500 L891.362716 657.784018 L916.950257 671.905182 L908.291736 677.378011 L943.620114 685.342241 L919.809180 700.392523 L930.754839 717.709566 L917.767057 725.918810 L906.821397 708.601767 L883.010463 723.652049 L890.974693 688.323671 L882.316171 693.796500 L880.539564 664.625056 L875.127988 668.045574 Z" fill="#888" fill-opacity="0.18" stroke="#000" stroke-width="1"/>
  <path d="M649.809631 862.459449 L632.621836 890.969392 L628.832186 885.809580 L616.530170 912.319766 L610.466730 904.064067 L604.986084 939.861913 L588.311624 917.158743 L571.800227 929.285623 L562.705067 916.902075 L579.216464 904.775195 L562.542004 882.072025 L598.339850 887.552671 L592.276410 879.296972 L621.252886 875.489957 L617.463236 870.330146 Z" fill="#888" fill-opacity="0.18" stroke="#000" stroke-width="1"/>
  <path d="M43.473181 652.677335 L72.356816 669.229458 L67.282206 673.132461 L94.058361 684.844295 L85.938984 691.089100 L121.849437 695.775529 L99.521152 712.948742 L112.010762 729.187495 L99.831697 738.554702 L87.342088 722.315950 L65.013803 739.489163 L69.700231 703.578710 L61.580855 709.823515 L57.132985 680.938467 L52.058375 684.841470 Z" fill="#888" fill-opacity="0.18" stroke="#000" stroke-width="1"/>
  <path d="M1003.903580 567.623645 L971.469262 575.123788 L972.536863 568.811473 L944.938877 578.428160 L946.647040 568.328455 L917.127371 589.307310 L921.824818 561.533122 L901.625408 558.116796 L904.187652 542.967239 L924.387062 546.383564 L929.084510 518.609376 L950.063366 548.129045 L951.771528 538.029340 L974.672067 556.186841 L975.739669 549.874526 Z" fill="#888" fill-opacity="0.18" stroke="#000" stroke-width="1"/>
  <path d="M515.447694 66.228117 L547.743808 58.153576 L546.788392 64.483844 L574.211375 54.378917 L572.682711 64.507345 L601.825441 43.007938 L597.621613 70.861113 L617.878469 73.918443 L615.585472 89.111084 L595.328616 86.053755 L591.124789 113.906931 L569.625381 84.764200 L568.096717 94.892628 L544.877562 77.144378 L543.922146 83.474645 Z" fill="#888" fill-opacity="0.18" stroke="#000" stroke-width="1"/>
  <path d="M531.619505 636.873646 L551.288096 610.015059 L554.601115 615.493107 L569.224665 590.189326 L574.525495 598.954202 L583.185610 563.789935 L597.762894 587.893346 L615.292646 577.291685 L623.243892 590.438999 L605.714139 601.040660 L620.291423 625.144070 L585.127156 616.483955 L590.427986 625.248832 L561.227153 626.449202 L564.540172 631.927250 Z" fill="#888" fill-opacity="0.18" stroke="#000" stroke-width="1"/>
  <path d="M741.298206 556.698290 L747.137460 523.924211 L752.523446 527.384883 L754.516965 498.227458 L763.134543 503.764534 L755.433286 468.377899 L779.131627 483.604857 L790.205778 466.369701 L803.132145 474.675314 L792.057994 491.910470 L815.756334 507.137428 L780.369700 514.838685 L788.987278 520.375760 L763.295419 534.306227 L768.681406 537.766900 Z" fill="#888" fill-opacity="0.18" stroke="#000" stroke-width="1"/>
  <path d="M847.744658 831.009999 L846.200742 797.755624 L852.218081 799.941199 L847.722237 771.063580 L857.349979 774.560500 L842.022926 741.748845 L868.499215 751.365376 L875.493056 732.109893 L889.934668 737.355274 L882.940828 756.610757 L909.417117 766.227288 L876.605462 781.554341 L886.233203 785.051261 L864.252758 804.312350 L870.270096 806.497925 Z" fill="#888" fill-opacity="0.18" stroke="#000" stroke-width="1"/>
  <path d="M276.839072 441.779552 L262.099139 471.628698 L257.890705 466.804365 L247.851926 494.251631 L241.118433 486.532698 L238.654833 522.663764 L220.137726 501.436698 L204.699860 514.903684 L194.599620 503.325285 L210.037486 489.858298 L191.520380 468.631232 L227.651446 471.094832 L220.917953 463.375899 L249.473839 457.155699 L245.265406 452.331365 Z" fill="#888" fill-opacity="0.18" stroke="#000" stroke-width="1"/>
  <path d="M428.107030 211.575474 L429.925732 244.815953 L423.890536 242.680185 L428.624892 271.519661 L418.968578 268.102431 L434.566287 300.786291 L408.011424 291.388908 L401.176963 310.701536 L386.692493 305.575690 L393.526953 286.263063 L366.972090 276.865679 L399.655950 261.267970 L389.999636 257.850740 L411.820143 238.408647 L405.784947 236.272878 Z" fill="#888" fill-opacity="0.18" stroke="#000" stroke-width="1"/>
  <path d="M560.762366 775.632554 L564.420172 808.721187 L558.275903 806.923117 L564.601018 835.455948 L554.770186 832.579037 L572.154987 864.348393 L545.120201 856.436887 L539.366379 876.098550 L524.620132 871.783183 L530.373954 852.121521 L503.339168 844.210015 L535.108524 826.825215 L525.277693 823.948304 L545.987364 803.326978 L539.843094 801.528909 Z" fill="#888" fill-opacity="0.18" stroke="#000" stroke-width="1"/>
</svg>
