<?xml version="1.0" encoding="UTF-8"?>
<svg xmlns="http://www.w3.org/2000/svg" width="1100" height="1100" viewBox="0 0 1100 1100">
  <rect x="0" y="0" width="1100" height="1100" fill="white"/>
  <text x="10.0" y="18.0" font-family="monospace" font-size="12">prefix=N135_job5048537_task135 run_id=135 L=9.97213652898 feas=0.000e+00 N=135</text>
  <rect x="40.000000" y="40.000000" width="1020.000000" height="1020.000000" fill="none" stroke="#000" stroke-width="2"/>
  <path d="M217.644843 689.947178 L191.972813 668.828015 L197.620595 665.832919 L173.215086 649.831002 L182.251538 645.038847 L147.680020 634.428104 L172.530263 621.249678 L162.945953 603.176774 L176.500631 595.988541 L186.084941 614.061445 L210.935184 600.883019 L200.324442 635.454536 L209.360894 630.662381 L208.916160 659.842725 L214.563943 656.847628 Z" fill="#888" fill-opacity="0.18" stroke="#000" stroke-width="1"/>
  <path d="M582.572751 521.374987 L615.459614 526.225387 L612.166136 531.704535 L641.328377 532.824323 L636.058812 541.590959 L671.149314 532.848282 L656.658010 556.956530 L674.191281 567.495660 L666.286934 580.645613 L648.753663 570.106483 L634.262359 594.214731 L625.519682 559.124230 L620.250117 567.890866 L605.579180 542.662829 L602.285702 548.141977 Z" fill="#888" fill-opacity="0.18" stroke="#000" stroke-width="1"/>
  <path d="M319.380820 992.864231 L289.094019 979.160880 L293.766715 974.798086 L266.035610 965.705450 L273.511923 958.724980 L237.369966 957.485372 L257.929826 938.289080 L243.968887 923.336454 L255.183356 912.865749 L269.144296 927.818375 L289.704157 908.622083 L288.464549 944.764040 L295.940862 937.783570 L303.112106 966.072499 L307.784802 961.709705 Z" fill="#888" fill-opacity="0.18" stroke="#000" stroke-width="1"/>
  <path d="M609.343115 670.778815 L621.888744 639.994414 L626.425500 644.498402 L634.460588 616.442607 L641.719397 623.648987 L641.588325 587.486016 L661.550049 607.303561 L675.962809 592.785944 L686.851022 603.595514 L672.438262 618.113131 L692.399985 637.930676 L656.237014 638.061747 L663.495822 645.268127 L635.499011 653.506377 L640.035766 658.010364 Z" fill="#888" fill-opacity="0.18" stroke="#000" stroke-width="1"/>
  <path d="M355.552502 433.994168 L379.394803 457.159159 L373.519191 459.678134 L396.521434 477.638841 L387.120454 481.669199 L420.698801 495.095753 L394.846106 506.179239 L402.906823 524.981199 L388.805353 531.026737 L380.744636 512.224777 L354.891941 523.308263 L368.318494 489.729916 L358.917514 493.760275 L361.767965 464.716082 L355.892353 467.235056 Z" fill="#888" fill-opacity="0.18" stroke="#000" stroke-width="1"/>
  <path d="M312.983276 622.546195 L345.955538 626.777284 L342.765680 632.317398 L371.943822 632.888579 L366.840050 641.752761 L401.759936 632.351737 L387.724562 656.728237 L405.452926 666.935782 L397.797267 680.232055 L380.068903 670.024510 L366.033529 694.401011 L356.632505 659.481125 L351.528733 668.345307 L336.385965 643.397626 L333.196107 648.937739 Z" fill="#888" fill-opacity="0.18" stroke="#000" stroke-width="1"/>
  <path d="M373.865646 435.631213 L406.964587 438.718644 L403.968376 444.365835 L433.148807 443.926858 L428.354869 452.962365 L462.928479 442.358443 L449.745151 467.206085 L467.816163 476.793961 L460.625257 490.347221 L442.554244 480.759345 L429.370915 505.606988 L418.766993 471.033377 L413.973056 480.068884 L397.975954 455.660218 L394.979743 461.307410 Z" fill="#888" fill-opacity="0.18" stroke="#000" stroke-width="1"/>
  <path d="M733.934861 1013.363847 L709.866513 990.433807 L715.717138 987.857328 L692.539848 970.123082 L701.900848 966.000716 L668.192434 952.904133 L693.935182 941.567626 L685.690450 922.845627 L699.731949 916.662077 L707.976682 935.384077 L733.719430 924.047570 L720.622847 957.755984 L729.983846 953.633618 L727.418388 982.704370 L733.269012 980.127891 Z" fill="#888" fill-opacity="0.18" stroke="#000" stroke-width="1"/>
  <path d="M311.778590 1052.905997 L278.720970 1049.403724 L281.787765 1043.794551 L252.604124 1043.867549 L257.510997 1034.892873 L222.807124 1045.062381 L236.301025 1020.382022 L218.351672 1010.568276 L225.711982 997.106261 L243.661334 1006.920007 L257.155235 982.239647 L267.324743 1016.943520 L272.231616 1007.968844 L287.921356 1032.576206 L290.988152 1026.967033 Z" fill="#888" fill-opacity="0.18" stroke="#000" stroke-width="1"/>
  <path d="M50.162425 355.545020 L80.627838 368.846551 L76.013261 373.270772 L103.862213 381.995797 L96.478889 389.074549 L132.634081 389.835977 L112.329940 409.302548 L126.487446 424.069196 L115.412460 434.687325 L101.254954 419.920677 L80.950813 439.387247 L81.712241 403.232055 L74.328917 410.310808 L66.784106 382.119213 L62.169528 386.543433 Z" fill="#888" fill-opacity="0.18" stroke="#000" stroke-width="1"/>
  <path d="M246.287171 106.631493 L271.184827 84.604716 L273.253363 90.653618 L292.898190 69.071890 L296.207848 78.750132 L312.129310 46.280381 L321.230869 72.895548 L340.587354 66.276233 L345.551841 80.793596 L326.195356 87.412912 L335.296915 114.028079 L302.827164 98.106618 L306.136821 107.784860 L277.390435 102.751421 L279.458972 108.800323 Z" fill="#888" fill-opacity="0.18" stroke="#000" stroke-width="1"/>
  <path d="M545.015760 949.610608 L516.597207 966.857579 L515.637579 960.537202 L492.467254 978.280546 L490.931848 968.167943 L469.488854 997.287965 L465.266488 969.478306 L445.041282 972.549118 L442.738173 957.380213 L462.963380 954.309401 L458.741014 926.499742 L487.861036 947.942736 L486.325631 937.830133 L513.718322 947.896448 L512.758693 941.576071 Z" fill="#888" fill-opacity="0.18" stroke="#000" stroke-width="1"/>
  <path d="M336.830955 849.879214 L304.515449 842.083049 L308.289584 836.923208 L279.347123 833.178319 L285.385739 824.922573 L249.649836 830.465398 L266.256029 807.762098 L249.744537 795.684866 L258.802461 783.301248 L275.313952 795.378479 L291.920145 772.675179 L297.462970 808.411082 L303.501586 800.155336 L315.837853 826.603526 L319.611988 821.443685 Z" fill="#888" fill-opacity="0.18" stroke="#000" stroke-width="1"/>
  <path d="M643.185673 101.110297 L669.686796 81.041351 L671.289189 87.230082 L692.518850 67.205304 L695.082677 77.107274 L713.428032 45.942780 L720.478558 73.173197 L740.282498 68.045541 L744.128239 82.898495 L724.324300 88.026151 L731.374827 115.256568 L700.210333 96.911213 L702.774161 106.813183 L674.493974 99.607544 L676.096366 105.796275 Z" fill="#888" fill-opacity="0.18" stroke="#000" stroke-width="1"/>
  <path d="M1036.663266 447.801715 L1016.555470 421.330056 L1022.741844 419.718588 L1002.685948 398.518322 L1012.584146 395.939973 L981.392777 377.640350 L1008.612823 370.549890 L1003.456124 350.753493 L1018.303422 346.885969 L1023.460120 366.682366 L1050.680166 359.591906 L1032.380543 390.783275 L1042.278741 388.204925 L1035.114592 416.495651 L1041.300966 414.884183 Z" fill="#888" fill-opacity="0.18" stroke="#000" stroke-width="1"/>
  <path d="M832.955779 1016.570971 L863.946382 1004.543725 L863.789192 1010.934604 L889.698530 997.503430 L889.447025 1007.728838 L915.639305 982.794080 L914.947668 1010.913950 L935.398484 1011.416959 L935.021227 1026.755071 L914.570412 1026.252062 L913.878775 1054.371933 L888.944017 1028.179653 L888.692512 1038.405060 L863.474812 1023.716364 L863.317621 1030.107244 Z" fill="#888" fill-opacity="0.18" stroke="#000" stroke-width="1"/>
  <path d="M643.747106 900.635560 L667.529309 877.408873 L669.893350 883.348516 L688.451030 860.825134 L692.233497 870.328563 L706.535902 837.113824 L716.937686 863.248253 L735.944544 855.683319 L741.618244 869.938462 L722.611387 877.503396 L733.013171 903.637825 L699.798431 889.335421 L703.580898 898.838850 L674.621434 895.227802 L676.985476 901.167445 Z" fill="#888" fill-opacity="0.18" stroke="#000" stroke-width="1"/>
  <path d="M740.736381 351.520728 L771.209513 338.236888 L771.313661 344.628852 L796.652391 330.149938 L796.819029 340.377081 L821.970292 314.392631 L822.428545 342.517273 L842.882830 342.183998 L843.132786 357.524712 L822.678501 357.857987 L823.136753 385.982629 L797.152303 360.831366 L797.318941 371.058509 L771.521958 357.412781 L771.626106 363.804745 Z" fill="#888" fill-opacity="0.18" stroke="#000" stroke-width="1"/>
  <path d="M520.677838 743.395119 L524.791044 776.382294 L518.631101 774.672569 L525.344076 803.073734 L515.488167 800.338174 L533.289039 831.816845 L506.185291 824.294055 L500.714172 844.005872 L485.930309 839.902532 L491.401429 820.190716 L464.297681 812.667926 L495.776351 794.867055 L485.920443 792.131495 L506.311216 771.253119 L500.151273 769.543394 Z" fill="#888" fill-opacity="0.18" stroke="#000" stroke-width="1"/>
  <path d="M1027.679728 146.603890 L1012.277983 117.144454 L1018.646651 116.589369 L1002.415241 92.335883 L1012.605110 91.447747 L984.910097 68.193415 L1012.932237 65.751041 L1011.155965 45.371303 L1026.440768 44.039099 L1028.217040 64.418837 L1056.239180 61.976462 L1032.984848 89.671475 L1043.174717 88.783339 L1031.383987 115.479198 L1037.752656 114.924113 Z" fill="#888" fill-opacity="0.18" stroke="#000" stroke-width="1"/>
  <path d="M164.216795 492.936963 L132.713395 503.548651 L133.159796 497.171443 L106.668882 509.415695 L107.383124 499.212162 L80.088687 522.935387 L82.052854 494.875673 L61.645789 493.447189 L62.717152 478.141890 L83.124217 479.570375 L85.088384 451.510661 L108.811609 478.805097 L109.525851 468.601565 L134.052599 484.417028 L134.499000 478.039820 Z" fill="#888" fill-opacity="0.18" stroke="#000" stroke-width="1"/>
  <path d="M157.877988 603.357425 L140.172827 575.222048 L146.476826 574.160139 L128.360392 551.280343 L138.446791 549.581289 L108.983159 528.612929 L136.720754 523.940530 L133.322645 503.767733 L148.452242 501.219151 L151.850351 521.391948 L179.587946 516.719548 L158.619587 546.183180 L168.705985 544.484125 L159.084824 572.036321 L165.388823 570.974412 Z" fill="#888" fill-opacity="0.18" stroke="#000" stroke-width="1"/>
  <path d="M891.557476 476.535436 L914.834384 452.802385 L917.325687 458.689784 L935.394416 435.772296 L939.380500 445.192134 L952.964884 411.677328 L963.926616 437.581882 L982.766292 429.609714 L988.745419 443.739470 L969.905743 451.711639 L980.867475 477.616193 L947.352669 464.031810 L951.338753 473.451647 L922.308292 470.464581 L924.799595 476.351980 Z" fill="#888" fill-opacity="0.18" stroke="#000" stroke-width="1"/>
  <path d="M679.324512 470.754208 L708.264247 454.396828 L709.027411 460.743925 L732.736836 443.727657 L733.957898 453.883011 L756.293628 425.441969 L759.651550 453.369194 L779.962259 450.927069 L781.793852 466.160101 L761.483143 468.602225 L764.841065 496.529450 L736.400023 474.193720 L737.621086 484.349074 L710.553739 473.438118 L711.316903 479.785214 Z" fill="#888" fill-opacity="0.18" stroke="#000" stroke-width="1"/>
  <path d="M929.622490 890.449403 L923.295700 923.084413 L917.970461 919.547482 L915.538263 948.629687 L907.017880 942.970597 L914.171113 978.419278 L890.740061 962.856782 L879.421882 979.897547 L866.641308 971.408913 L877.959487 954.368148 L854.528434 938.805651 L889.977115 931.652418 L881.456732 925.993329 L907.319982 912.473620 L901.994743 908.936689 Z" fill="#888" fill-opacity="0.18" stroke="#000" stroke-width="1"/>
  <path d="M699.049377 830.679043 L685.288243 800.418452 L691.677781 800.213856 L676.802416 775.105815 L687.025677 774.778462 L660.649144 750.038692 L688.763111 749.138473 L688.108405 728.691952 L703.443296 728.200923 L704.098001 748.647444 L732.211968 747.747224 L707.472198 774.123757 L717.695458 773.796404 L704.456857 799.804666 L710.846395 799.600070 Z" fill="#888" fill-opacity="0.18" stroke="#000" stroke-width="1"/>
  <path d="M480.469477 240.578063 L482.074826 273.781903 L476.061914 271.610971 L480.606591 300.438668 L470.985932 296.965176 L486.353850 329.700552 L459.897039 320.148450 L452.950056 339.389767 L438.519068 334.179530 L445.466051 314.938213 L419.009240 305.386111 L451.744615 290.018193 L442.123957 286.544702 L464.036091 267.269106 L458.023179 265.098174 Z" fill="#888" fill-opacity="0.18" stroke="#000" stroke-width="1"/>
  <path d="M85.355781 854.773659 L95.217931 886.519685 L88.853093 885.922283 L100.466132 912.695919 L90.282391 911.740077 L113.352138 939.589034 L85.346850 936.960469 L83.435166 957.327951 L68.159555 955.894188 L70.071239 935.526706 L42.065951 932.898140 L69.914908 909.828393 L59.731167 908.872551 L76.123416 884.727481 L69.758578 884.130080 Z" fill="#888" fill-opacity="0.18" stroke="#000" stroke-width="1"/>
  <path d="M191.180569 377.008607 L208.651232 348.727022 L212.379423 353.920156 L224.949940 327.582496 L230.915046 335.891511 L236.774820 300.206210 L253.178860 323.056001 L269.796890 311.125790 L278.744548 323.589313 L262.126518 335.519524 L278.530558 358.369315 L242.845257 352.509542 L248.810362 360.818557 L219.835805 364.306425 L223.563996 369.499559 Z" fill="#888" fill-opacity="0.18" stroke="#000" stroke-width="1"/>
  <path d="M546.494411 424.931178 L579.663053 427.147779 L576.816272 432.871754 L605.975090 431.666135 L601.420240 440.824495 L635.703265 429.315721 L623.177427 454.501211 L641.494146 463.610911 L634.661871 477.348451 L616.345151 468.238750 L603.819313 493.424240 L592.310539 459.141215 L587.755689 468.299574 L571.122709 444.319704 L568.275927 450.043679 Z" fill="#888" fill-opacity="0.18" stroke="#000" stroke-width="1"/>
  <path d="M548.638517 362.141605 L526.140758 337.668703 L532.149095 335.485143 L510.196515 316.255623 L519.809855 312.761928 L487.042268 297.462815 L513.478953 287.855154 L506.491564 268.628473 L520.911574 263.387931 L527.898964 282.614612 L554.335650 273.006951 L539.036536 305.774539 L548.649876 302.280844 L544.165771 331.118025 L550.174108 328.934466 Z" fill="#888" fill-opacity="0.18" stroke="#000" stroke-width="1"/>
  <path d="M952.140437 839.252395 L980.206049 821.436853 L981.292713 827.736632 L1004.101170 809.530465 L1005.839831 819.610111 L1026.692294 790.064342 L1031.473612 817.783370 L1051.632905 814.306047 L1054.240897 829.425517 L1034.081604 832.902839 L1038.862923 860.621867 L1009.317154 839.769404 L1011.055815 849.849051 L983.466039 840.336190 L984.552703 846.635969 Z" fill="#888" fill-opacity="0.18" stroke="#000" stroke-width="1"/>
  <path d="M1055.779685 527.595420 L1034.364915 553.021386 L1031.435363 547.339329 L1015.152149 571.558065 L1010.464865 562.466773 L999.454845 596.913212 L986.564815 571.912160 L968.382231 581.286728 L961.351305 567.649790 L979.533889 558.275222 L966.643858 533.274170 L1001.090297 544.284190 L996.403013 535.192898 L1025.576258 535.975215 L1022.646705 530.293157 Z" fill="#888" fill-opacity="0.18" stroke="#000" stroke-width="1"/>
  <path d="M902.888186 92.454049 L883.445508 119.417996 L880.097077 113.972259 L865.680676 139.346608 L860.323185 130.633428 L851.933961 165.810105 L837.200862 141.848859 L819.774501 152.563840 L811.738266 139.494070 L829.164626 128.779089 L814.431527 104.817843 L849.608204 113.207067 L844.250713 104.493887 L873.400214 103.080783 L870.051782 97.635046 Z" fill="#888" fill-opacity="0.18" stroke="#000" stroke-width="1"/>
  <path d="M589.668696 936.055468 L609.827962 962.487950 L603.644735 964.111453 L623.741845 985.272654 L613.848682 987.870258 L645.075600 1006.109154 L617.869402 1013.252566 L623.064611 1033.038891 L608.224867 1036.935297 L603.029658 1017.148972 L575.823461 1024.292384 L594.062357 993.065467 L584.169194 995.663071 L591.278282 967.358458 L585.095055 968.981961 Z" fill="#888" fill-opacity="0.18" stroke="#000" stroke-width="1"/>
  <path d="M616.186718 880.739892 L639.376728 904.557859 L633.433449 906.912745 L655.928206 925.505112 L646.418960 929.272929 L679.611620 943.626501 L653.461192 953.988000 L660.996827 973.006492 L646.732957 978.658219 L639.197323 959.639726 L613.046895 970.001224 L627.400467 936.808564 L617.891221 940.576382 L621.546891 911.622517 L615.603612 913.977403 Z" fill="#888" fill-opacity="0.18" stroke="#000" stroke-width="1"/>
  <path d="M89.623390 56.373367 L122.451195 51.138159 L120.952430 57.352799 L149.108275 49.675651 L146.710251 59.619076 L177.563873 40.755575 L170.969306 68.099993 L190.856156 72.896042 L187.259119 87.811179 L167.372270 83.015130 L160.777703 110.359548 L141.914202 79.505925 L139.516177 89.449350 L117.954899 69.782080 L116.456134 75.996721 Z" fill="#888" fill-opacity="0.18" stroke="#000" stroke-width="1"/>
  <path d="M183.420554 756.292076 L198.373837 726.602491 L202.538165 731.452895 L212.778259 704.124692 L219.441185 711.885339 L222.185488 675.826408 L240.508533 697.168186 L256.029827 683.842335 L266.024215 695.483305 L250.502922 708.809156 L268.825967 730.150935 L232.767036 727.406632 L239.429962 735.167279 L210.866823 741.153704 L215.031151 746.004108 Z" fill="#888" fill-opacity="0.18" stroke="#000" stroke-width="1"/>
  <path d="M302.236129 140.442961 L313.278930 171.797845 L306.896199 171.438957 L319.502656 197.759433 L309.290287 197.185213 L333.385660 224.151686 L305.301644 222.572581 L304.153204 242.997319 L288.834650 242.135989 L289.983090 221.711251 L261.899075 220.132145 L288.865548 196.036772 L278.653179 195.462552 L294.130737 170.721182 L287.748007 170.362294 Z" fill="#888" fill-opacity="0.18" stroke="#000" stroke-width="1"/>
  <path d="M796.405558 759.084190 L792.458503 792.091658 L786.891131 788.949617 L786.571184 818.131595 L777.663389 813.104329 L787.364711 847.941981 L762.868275 834.117000 L752.813743 851.932590 L739.452050 844.391690 L749.506583 826.576100 L725.010147 812.751119 L759.847799 803.049797 L750.940004 798.022530 L775.756388 782.665534 L770.189016 779.523493 Z" fill="#888" fill-opacity="0.18" stroke="#000" stroke-width="1"/>
  <path d="M473.087749 1023.910557 L501.913318 1007.352819 L502.720493 1013.694469 L526.311307 996.514140 L527.602787 1006.660780 L549.740687 978.065482 L553.292256 1005.968741 L573.585535 1003.385781 L575.522755 1018.605741 L555.229475 1021.188700 L558.781044 1049.091959 L530.185746 1026.954059 L531.477226 1037.100699 L504.334842 1026.377768 L505.142017 1032.719418 Z" fill="#888" fill-opacity="0.18" stroke="#000" stroke-width="1"/>
  <path d="M533.872614 666.886696 L567.111949 667.354426 L564.570389 673.220304 L593.625333 670.481611 L589.558838 679.867016 L623.188589 666.569743 L612.005726 692.379607 L630.776537 700.512598 L624.676793 714.590706 L605.905983 706.457714 L594.723120 732.267578 L581.425846 698.637827 L577.359351 708.023232 L559.487270 684.952061 L556.945710 690.817939 Z" fill="#888" fill-opacity="0.18" stroke="#000" stroke-width="1"/>
  <path d="M1058.561449 550.931415 L1056.944459 584.134690 L1051.169986 581.391787 L1052.902213 610.524065 L1043.663057 606.135420 L1055.789335 640.204923 L1030.381655 628.136149 L1021.604364 646.614462 L1007.745630 640.031494 L1016.522920 621.553181 L991.115241 609.484407 L1025.184744 597.358129 L1015.945588 592.969484 L1039.621041 575.905981 L1033.846568 573.163077 Z" fill="#888" fill-opacity="0.18" stroke="#000" stroke-width="1"/>
  <path d="M209.730825 651.241541 L242.277240 644.473745 L241.071345 650.751792 L268.836501 641.763671 L266.907068 651.808545 L296.842836 631.519940 L291.536897 659.143345 L311.626646 663.002210 L308.732497 678.069522 L288.642748 674.210657 L283.336808 701.834062 L263.048203 671.898294 L261.118771 681.943169 L238.659554 663.307885 L237.453659 669.585932 Z" fill="#888" fill-opacity="0.18" stroke="#000" stroke-width="1"/>
  <path d="M671.632887 317.926456 L693.656183 293.025722 L696.447490 298.776953 L713.311540 274.959018 L717.777631 284.160987 L729.617328 249.990836 L741.899078 275.296253 L760.303018 266.364072 L767.002154 280.167026 L748.598214 289.099208 L760.879963 314.404625 L726.709812 302.564927 L731.175903 311.766897 L702.030103 310.279415 L704.821410 316.030646 Z" fill="#888" fill-opacity="0.18" stroke="#000" stroke-width="1"/>
  <path d="M656.514175 163.186171 L624.091838 170.525393 L625.187119 164.227107 L597.584354 173.702211 L599.336805 163.624953 L569.762533 184.436973 L574.581772 156.724513 L554.427255 153.219613 L557.055930 138.103725 L577.210447 141.608626 L582.029685 113.896166 L602.841705 143.470437 L604.594155 133.393179 L627.377682 151.630534 L628.472963 145.332248 Z" fill="#888" fill-opacity="0.18" stroke="#000" stroke-width="1"/>
  <path d="M742.771653 664.512555 L769.620905 684.113316 L764.155588 687.429695 L789.444800 701.994927 L780.700294 707.301133 L815.827076 715.896883 L791.779683 730.488951 L802.392096 747.977963 L789.275337 755.937273 L778.662924 738.448260 L754.615532 753.040328 L763.211282 717.913546 L754.466775 723.219753 L753.224955 694.062453 L747.759639 697.378832 Z" fill="#888" fill-opacity="0.18" stroke="#000" stroke-width="1"/>
  <path d="M964.913618 800.611544 L948.352712 771.787795 L954.694273 770.979923 L937.511351 747.390997 L947.657849 746.098402 L919.060118 723.963645 L946.962986 720.409009 L944.377797 700.116014 L959.597543 698.177122 L962.182733 718.470117 L990.085601 714.915481 L967.950844 743.513212 L978.097342 742.220618 L967.377395 769.364179 L973.718956 768.556308 Z" fill="#888" fill-opacity="0.18" stroke="#000" stroke-width="1"/>
  <path d="M705.528317 433.919480 L722.593296 405.391272 L726.395272 410.530633 L738.588368 384.016134 L744.671530 392.239111 L750.021068 356.473763 L766.749764 379.086951 L783.195718 366.920627 L792.320461 379.255093 L775.874507 391.421417 L792.603202 414.034604 L756.837854 408.685066 L762.921016 416.908043 L733.999225 420.809354 L737.801201 425.948715 Z" fill="#888" fill-opacity="0.18" stroke="#000" stroke-width="1"/>
  <path d="M165.891080 488.376042 L194.657628 471.715974 L195.487333 478.054715 L219.016947 460.790662 L220.344475 470.932649 L242.380619 442.258862 L246.031323 470.149324 L266.315295 467.494266 L268.306588 482.707245 L248.022616 485.362303 L251.673320 513.252765 L222.999533 491.216621 L224.327061 501.358607 L197.146744 490.732198 L197.976449 497.070939 Z" fill="#888" fill-opacity="0.18" stroke="#000" stroke-width="1"/>
  <path d="M496.576498 331.640943 L498.604956 364.821622 L492.564860 362.727511 L497.476626 391.494937 L487.812473 388.144359 L503.596411 420.681185 L477.019991 411.467096 L470.318836 430.795402 L455.822607 425.769535 L462.523762 406.441230 L435.947343 397.227141 L468.484168 381.443204 L458.820016 378.092627 L480.484670 358.539289 L474.444574 356.445178 Z" fill="#888" fill-opacity="0.18" stroke="#000" stroke-width="1"/>
  <path d="M962.444460 631.142133 L938.636698 607.941645 L944.516057 605.431428 L921.540597 587.436471 L930.947572 583.420123 L897.389266 569.943557 L923.258445 558.898600 L915.225749 540.084652 L929.336210 534.060130 L937.368906 552.874078 L963.238085 541.829121 L949.761520 575.387427 L959.168494 571.371078 L956.274775 600.410993 L962.154134 597.900775 Z" fill="#888" fill-opacity="0.18" stroke="#000" stroke-width="1"/>
  <path d="M651.962368 344.263638 L665.593958 374.582806 L659.203603 374.760073 L673.971450 399.931503 L663.746883 400.215130 L690.017368 425.067480 L661.899809 425.847454 L662.467063 446.296589 L647.130212 446.722029 L646.562958 426.272895 L618.445399 427.052869 L643.297749 400.782384 L633.073182 401.066011 L646.422894 375.114606 L640.032540 375.291873 Z" fill="#888" fill-opacity="0.18" stroke="#000" stroke-width="1"/>
  <path d="M527.938471 801.275218 L555.255877 782.332370 L556.597995 788.582712 L578.646703 769.463490 L580.794092 779.464037 L600.426989 749.094199 L606.332306 776.595703 L626.333400 772.300927 L629.554482 787.301747 L609.553388 791.596524 L615.458705 819.098028 L585.088868 799.465131 L587.236256 809.465678 L559.282230 801.083396 L560.624347 807.333738 Z" fill="#888" fill-opacity="0.18" stroke="#000" stroke-width="1"/>
  <path d="M180.807691 577.080367 L210.253988 561.653516 L210.814502 568.021709 L235.054142 551.769630 L235.950964 561.958738 L259.181679 534.243912 L261.647940 562.263960 L282.026156 560.470316 L283.371389 575.753978 L262.993173 577.547622 L265.459433 605.567670 L237.744608 582.336954 L238.641430 592.526062 L211.935529 580.758094 L212.496043 587.126286 Z" fill="#888" fill-opacity="0.18" stroke="#000" stroke-width="1"/>
  <path d="M667.325863 255.934669 L667.359112 289.177278 L661.455598 286.724407 L664.631847 315.734779 L655.186224 311.810186 L668.988798 345.235725 L643.013336 334.443094 L635.164150 353.334339 L620.995716 347.447450 L628.844902 328.556205 L602.869440 317.763574 L636.294979 303.961000 L626.849356 300.036407 L649.648570 281.818666 L643.745056 279.365796 Z" fill="#888" fill-opacity="0.18" stroke="#000" stroke-width="1"/>
  <path d="M785.996107 167.555085 L817.065387 179.377607 L812.668690 184.018417 L840.904661 191.395420 L833.869947 198.820716 L870.019971 197.844261 L850.674508 218.263824 L865.525099 232.333252 L854.973029 243.471196 L840.122437 229.401768 L820.776974 249.821331 L819.800520 213.671307 L812.765806 221.096603 L803.875298 193.300037 L799.478602 197.940846 Z" fill="#888" fill-opacity="0.18" stroke="#000" stroke-width="1"/>
  <path d="M459.296209 820.569359 L427.765428 810.039305 L431.966827 805.220975 L403.450431 799.015706 L410.172669 791.306379 L374.093755 793.774103 L392.579909 772.573452 L377.161253 759.128976 L387.244610 747.564985 L402.663265 761.009460 L421.149419 739.808809 L423.617144 775.887723 L430.339382 768.178395 L440.369624 795.584316 L444.571023 790.765986 Z" fill="#888" fill-opacity="0.18" stroke="#000" stroke-width="1"/>
  <path d="M243.499103 831.265182 L274.925446 842.102945 L270.677149 846.879976 L299.131527 853.363695 L292.334252 861.006945 L328.435564 858.892009 L309.743057 879.910945 L325.029557 893.505495 L314.833644 904.970370 L299.547145 891.375820 L280.854638 912.394757 L278.739702 876.293445 L271.942427 883.936694 L262.180556 856.434038 L257.932259 861.211069 Z" fill="#888" fill-opacity="0.18" stroke="#000" stroke-width="1"/>
  <path d="M786.937133 913.585003 L814.730069 895.346997 L815.911894 901.629619 L838.442367 883.080549 L840.333288 893.132744 L860.736476 863.274954 L865.936507 890.918492 L886.040898 887.136651 L888.877279 902.214944 L868.772888 905.996785 L873.972919 933.640323 L844.115129 913.237135 L846.006050 923.289331 L818.275545 914.194863 L819.457370 920.477485 Z" fill="#888" fill-opacity="0.18" stroke="#000" stroke-width="1"/>
  <path d="M654.146324 130.477585 L621.763667 122.965215 L625.492391 117.772463 L596.518191 114.281623 L602.484149 105.973220 L566.798247 111.829334 L583.204631 88.981225 L566.587824 77.049309 L575.536761 64.586705 L592.153567 76.518620 L608.559951 53.670511 L614.416065 89.356414 L620.382022 81.048011 L632.949838 107.386959 L636.678562 102.194208 Z" fill="#888" fill-opacity="0.18" stroke="#000" stroke-width="1"/>
  <path d="M198.827658 938.114541 L198.083947 971.348847 L192.239375 968.758668 L194.736721 997.835351 L185.385405 993.691066 L198.402982 1027.430070 L172.686863 1016.033285 L164.398292 1034.735917 L150.371318 1028.519489 L158.659888 1009.816857 L132.943769 998.420073 L166.682773 985.402495 L157.331456 981.258210 L180.550229 963.578312 L174.705657 960.988133 Z" fill="#888" fill-opacity="0.18" stroke="#000" stroke-width="1"/>
  <path d="M398.376060 404.032849 L387.623794 372.577151 L394.002932 372.995070 L381.640503 346.559099 L391.847124 347.227768 L368.002247 320.039543 L396.070453 321.878385 L397.407793 301.465145 L412.717723 302.468149 L411.380383 322.881390 L439.448589 324.720232 L412.260364 348.565108 L422.466984 349.233778 L406.761207 373.830907 L413.140345 374.248826 Z" fill="#888" fill-opacity="0.18" stroke="#000" stroke-width="1"/>
  <path d="M377.811691 738.734683 L402.185130 716.129205 L404.395167 722.127854 L423.527680 700.090677 L427.063740 709.688515 L442.218184 676.853769 L451.942350 703.247824 L471.138026 696.175704 L476.442116 710.572461 L457.246440 717.644581 L466.970605 744.038636 L434.135860 728.884191 L437.671920 738.482029 L408.815242 734.125152 L411.025280 740.123800 Z" fill="#888" fill-opacity="0.18" stroke="#000" stroke-width="1"/>
  <path d="M690.368735 232.506621 L698.163740 200.190835 L703.323716 203.964785 L707.067566 175.022190 L715.323528 181.060509 L709.779421 145.324805 L732.483317 161.930183 L744.559956 145.418258 L756.943899 154.475737 L744.867261 170.987662 L767.571157 187.593040 L731.835453 193.137147 L740.091416 199.175467 L713.643669 211.512684 L718.803646 215.286633 Z" fill="#888" fill-opacity="0.18" stroke="#000" stroke-width="1"/>
  <path d="M914.830743 683.934594 L883.984466 671.541881 L888.465885 666.982832 L860.370563 659.087065 L867.540834 651.792585 L831.378958 652.103108 L851.097202 632.043288 L836.508243 617.702747 L847.263649 606.761028 L861.852608 621.101569 L881.570852 601.041750 L881.881375 637.203625 L889.051646 629.909146 L897.428723 657.864732 L901.910142 653.305682 Z" fill="#888" fill-opacity="0.18" stroke="#000" stroke-width="1"/>
  <path d="M1059.001003 1029.389984 L1026.583965 1036.752576 L1027.674705 1030.453502 L1000.078778 1039.948502 L1001.823964 1029.869983 L972.264703 1050.703317 L977.063963 1022.987390 L956.906925 1019.497019 L959.524703 1004.379241 L979.681741 1007.869611 L984.481001 980.153684 L1005.314334 1009.712945 L1007.059520 999.634426 L1029.856187 1017.855353 L1030.946928 1011.556279 Z" fill="#888" fill-opacity="0.18" stroke="#000" stroke-width="1"/>
  <path d="M45.047437 732.916717 L48.532164 699.857243 L54.142964 702.921061 L54.054476 673.737463 L63.031756 678.639571 L52.843829 643.941101 L77.531347 657.421900 L87.335565 639.467341 L100.801484 646.820504 L90.997266 664.775063 L115.684785 678.255862 L80.986314 688.443789 L89.963594 693.345897 L65.364563 709.048696 L70.975362 712.112514 Z" fill="#888" fill-opacity="0.18" stroke="#000" stroke-width="1"/>
  <path d="M776.485742 51.777913 L789.569548 82.337465 L783.177038 82.399712 L797.489548 107.832806 L787.261533 107.932402 L813.080560 133.253451 L784.953518 133.527339 L785.152710 153.983369 L769.810687 154.132763 L769.611495 133.676732 L741.484453 133.950620 L766.805503 108.131593 L756.577487 108.231189 L770.392019 82.524206 L763.999510 82.586454 Z" fill="#888" fill-opacity="0.18" stroke="#000" stroke-width="1"/>
  <path d="M753.448824 734.729082 L721.699910 724.876237 L725.797228 719.969096 L697.154562 714.375534 L703.710272 706.524108 L667.692433 709.763400 L685.720634 688.171978 L670.017781 675.060560 L679.851345 663.283421 L695.554197 676.394839 L713.582398 654.803417 L716.821690 690.821256 L723.377399 682.969830 L733.991864 710.154813 L738.089183 705.247672 Z" fill="#888" fill-opacity="0.18" stroke="#000" stroke-width="1"/>
  <path d="M572.558050 135.913998 L541.031839 125.370270 L545.235327 120.553763 L516.721625 114.336127 L523.447205 106.629716 L487.367225 109.081793 L505.862571 87.889161 L490.449748 74.438000 L500.538119 62.878382 L515.950942 76.329544 L534.446289 55.136912 L536.898367 91.216893 L543.623947 83.510481 L553.642303 110.920749 L557.845791 106.104241 Z" fill="#888" fill-opacity="0.18" stroke="#000" stroke-width="1"/>
  <path d="M856.856826 327.284135 L885.703509 343.805061 L880.637170 347.703812 L907.378121 359.391916 L899.271978 365.629918 L935.132339 370.300270 L912.840447 387.454775 L925.316451 403.667060 L913.157237 413.024063 L900.681233 396.811778 L878.389341 413.966283 L883.059693 378.105921 L874.953550 384.343923 L870.504492 355.501314 L865.438153 359.400065 Z" fill="#888" fill-opacity="0.18" stroke="#000" stroke-width="1"/>
  <path d="M633.634714 897.455231 L636.041605 864.299854 L641.749150 867.179434 L640.710868 838.014177 L649.842940 842.621504 L638.531076 808.273005 L663.644276 820.943154 L672.858931 802.679009 L686.557040 809.589999 L677.342385 827.854145 L702.455585 840.524294 L668.107086 851.836158 L677.239159 856.443485 L653.164241 872.938593 L658.871786 875.818172 Z" fill="#888" fill-opacity="0.18" stroke="#000" stroke-width="1"/>
  <path d="M449.463366 279.952064 L421.477376 262.011705 L426.732025 258.370727 L400.607887 245.362282 L409.015325 239.536718 L373.432819 233.082033 L396.553275 217.061731 L384.902146 200.246855 L397.513304 191.508509 L409.164432 208.323385 L432.284887 192.303084 L425.830202 227.885590 L434.237640 222.060026 L437.241323 251.088772 L442.495972 247.447794 Z" fill="#888" fill-opacity="0.18" stroke="#000" stroke-width="1"/>
  <path d="M53.779055 958.239150 L74.288318 984.400998 L68.127246 986.106648 L88.504204 1006.998507 L78.646489 1009.727547 L110.113377 1027.549237 L83.004659 1035.054096 L88.462739 1054.769527 L73.676165 1058.863087 L68.218086 1039.147655 L41.109368 1046.652515 L58.931057 1015.185626 L49.073342 1017.914666 L55.805102 989.517947 L49.644029 991.223597 Z" fill="#888" fill-opacity="0.18" stroke="#000" stroke-width="1"/>
  <path d="M582.131081 273.802479 L562.263520 247.150046 L568.464216 245.594594 L548.600878 224.213808 L558.521990 221.725084 L527.497400 203.144112 L554.780459 196.300123 L549.803012 176.457898 L564.684681 172.724813 L569.662128 192.567037 L596.945187 185.723048 L578.364215 216.747638 L588.285327 214.258914 L580.865606 242.483690 L587.066301 240.928238 Z" fill="#888" fill-opacity="0.18" stroke="#000" stroke-width="1"/>
  <path d="M891.901783 309.506413 L924.952326 313.074857 L921.874308 318.677879 L951.058036 318.663304 L946.133207 327.628140 L980.857368 317.528125 L967.314087 342.181422 L985.243758 352.031081 L977.856514 365.478333 L959.926843 355.628675 L946.383563 380.281972 L936.283548 345.557810 L931.358719 354.522645 L915.718271 329.883923 L912.640252 335.486945 Z" fill="#888" fill-opacity="0.18" stroke="#000" stroke-width="1"/>
  <path d="M222.981807 456.327375 L189.799490 454.325873 L192.609100 448.583561 L163.458711 449.978208 L167.954086 440.790509 L133.746400 452.521318 L146.108682 427.255146 L127.733284 418.264395 L134.476347 404.482846 L152.851745 413.473597 L165.214028 388.207425 L176.944837 422.415111 L181.440212 413.227412 L198.228319 437.098937 L201.037929 431.356625 Z" fill="#888" fill-opacity="0.18" stroke="#000" stroke-width="1"/>
  <path d="M464.672929 119.023872 L431.800308 123.969875 L433.353727 117.768670 L405.131386 125.197649 L407.616855 115.275720 L376.598362 133.866868 L383.433402 106.581566 L363.589545 101.610628 L367.317749 86.727736 L387.161605 91.698674 L393.996645 64.413371 L412.587793 95.431864 L415.073262 85.509936 L436.460563 105.366260 L438.013981 99.165054 Z" fill="#888" fill-opacity="0.18" stroke="#000" stroke-width="1"/>
  <path d="M246.651916 158.932169 L214.758047 168.305177 L215.453214 161.950274 L188.504234 173.150396 L189.616500 162.982551 L161.416222 185.621499 L164.474954 157.659925 L144.139263 155.435393 L145.807662 140.183625 L166.143353 142.408157 L169.202084 114.446582 L191.841032 142.646860 L192.953298 132.479015 L216.843546 149.240467 L217.538712 142.885564 Z" fill="#888" fill-opacity="0.18" stroke="#000" stroke-width="1"/>
  <path d="M908.510328 118.342470 L921.316523 149.019392 L914.923712 149.023678 L929.005040 174.585493 L918.776542 174.592351 L944.364931 200.146452 L916.236561 200.165310 L916.250276 220.622305 L900.907530 220.632592 L900.893815 200.175596 L872.765446 200.194454 L898.319546 174.606066 L888.091049 174.612923 L902.138089 149.032249 L895.745278 149.036535 Z" fill="#888" fill-opacity="0.18" stroke="#000" stroke-width="1"/>
  <path d="M661.930797 810.037452 L638.643945 786.314159 L644.577581 783.935080 L622.007264 765.434511 L631.501082 761.627984 L598.250221 747.409758 L624.358219 736.941809 L616.745165 717.954174 L630.985891 712.244384 L638.598945 731.232018 L664.706942 720.764069 L650.488717 754.014930 L659.982534 750.208403 L656.444852 779.176921 L662.378488 776.797842 Z" fill="#888" fill-opacity="0.18" stroke="#000" stroke-width="1"/>
  <path d="M1020.388355 264.721302 L993.721569 244.873010 L999.217330 241.607330 L974.063936 226.808783 L982.857153 221.583695 L947.811390 212.663372 L971.992737 198.294379 L961.542561 180.707945 L974.732387 172.870313 L985.182563 190.456747 L1009.363910 176.087755 L1000.443587 211.133518 L1009.236805 205.908430 L1010.208851 235.075970 L1015.704612 231.810290 Z" fill="#888" fill-opacity="0.18" stroke="#000" stroke-width="1"/>
  <path d="M683.609661 427.471992 L683.797594 460.714086 L677.882731 458.288713 L681.193936 487.283991 L671.730153 483.403392 L685.688114 516.764343 L659.662713 506.092698 L651.901516 525.020263 L637.705843 519.199365 L645.467039 500.271801 L619.441638 489.600156 L652.802589 475.642196 L643.338807 471.761598 L666.053003 453.437965 L660.138139 451.012591 Z" fill="#888" fill-opacity="0.18" stroke="#000" stroke-width="1"/>
  <path d="M428.846307 658.632515 L403.385259 637.259467 L409.062505 634.320601 L384.817100 618.077123 L393.900693 613.374938 L359.436246 602.421419 L384.416128 589.490408 L375.011756 571.323222 L388.637146 564.269943 L398.041517 582.437130 L423.021399 569.506119 L412.067880 603.970567 L421.151473 599.268381 L420.416996 628.442869 L426.094242 625.504003 Z" fill="#888" fill-opacity="0.18" stroke="#000" stroke-width="1"/>
  <path d="M737.512336 1002.531007 L770.352730 997.375365 L768.838910 1003.586355 L797.013276 995.977459 L794.591163 1005.915043 L825.490407 987.126364 L818.829596 1014.454721 L838.704765 1019.298947 L835.071596 1034.205324 L815.196427 1029.361098 L808.535617 1056.689455 L789.746938 1025.790212 L787.324825 1035.727797 L765.811269 1016.008336 L764.297448 1022.219326 Z" fill="#888" fill-opacity="0.18" stroke="#000" stroke-width="1"/>
  <path d="M690.083305 150.699328 L687.129747 183.810484 L681.470486 180.837134 L682.027460 210.015550 L672.972642 205.258190 L683.716287 239.788637 L658.815536 226.705896 L649.300816 244.815533 L635.718588 237.679493 L645.233309 219.569856 L620.332558 206.487115 L654.863005 195.743469 L645.808186 190.986109 L670.151963 174.890433 L664.492701 171.917083 Z" fill="#888" fill-opacity="0.18" stroke="#000" stroke-width="1"/>
  <path d="M53.317913 274.973144 L76.417707 251.067671 L78.952717 256.936382 L96.850540 233.885175 L100.906557 243.275113 L114.241361 209.660225 L125.395407 235.482556 L144.175284 227.370522 L150.259309 241.455430 L131.479432 249.567463 L142.633479 275.389794 L109.018591 262.054990 L113.074607 271.444928 L84.022738 268.673805 L86.557749 274.542517 Z" fill="#888" fill-opacity="0.18" stroke="#000" stroke-width="1"/>
  <path d="M112.553106 736.925495 L130.205685 765.093893 L123.899713 766.144025 L141.973380 789.057619 L131.883826 790.737831 L161.308241 811.761187 L133.561967 816.381769 L136.922391 836.560878 L121.788060 839.081196 L118.427636 818.902087 L90.681362 823.522670 L111.704718 794.098255 L101.615164 795.778467 L111.287771 768.244290 L104.981799 769.294422 Z" fill="#888" fill-opacity="0.18" stroke="#000" stroke-width="1"/>
  <path d="M349.297157 901.414229 L382.448134 898.947479 L380.434023 905.014719 L409.134030 899.723232 L405.911453 909.430818 L438.236859 893.218297 L429.374772 919.914157 L448.789943 926.359311 L443.956077 940.920689 L424.540906 934.475535 L415.678819 961.171394 L399.466299 928.845988 L396.243722 938.553574 L376.405802 917.149201 L374.391691 923.216442 Z" fill="#888" fill-opacity="0.18" stroke="#000" stroke-width="1"/>
  <path d="M361.976828 1024.196648 L343.128227 996.814128 L349.383157 995.493557 L330.340027 973.379094 L340.347915 971.266181 L310.045912 951.528746 L337.567602 945.718234 L333.341775 925.702459 L348.353606 922.533088 L352.579433 942.548863 L380.101124 936.738350 L360.363690 967.040353 L370.371577 964.927439 L361.893016 992.852414 L368.147946 991.531843 Z" fill="#888" fill-opacity="0.18" stroke="#000" stroke-width="1"/>
  <path d="M178.394221 662.473364 L178.560649 695.715573 L172.647356 693.286373 L175.939803 722.283787 L166.478533 718.397067 L180.414909 751.767041 L154.396417 741.078562 L146.622977 760.001102 L132.431073 754.171022 L140.204512 735.248483 L114.186020 724.560004 L147.555993 710.623628 L138.094724 706.736909 L160.820769 688.427974 L154.907475 685.998774 Z" fill="#888" fill-opacity="0.18" stroke="#000" stroke-width="1"/>
  <path d="M211.543246 328.367000 L193.000536 300.776421 L199.269774 299.525539 L180.473921 277.200527 L190.504702 275.199116 L160.424221 255.125692 L188.008869 249.621810 L184.006046 229.560248 L199.052217 226.558131 L203.055040 246.619693 L230.639688 241.115811 L210.566264 271.196293 L220.597045 269.194881 L211.808250 297.023774 L218.077488 295.772892 Z" fill="#888" fill-opacity="0.18" stroke="#000" stroke-width="1"/>
  <path d="M557.718686 370.076655 L556.007084 336.878122 L562.026913 339.029801 L557.390003 310.216795 L567.021728 313.659480 L551.549127 280.973454 L578.036372 290.440837 L584.921742 271.177387 L599.369330 276.341414 L592.483960 295.604865 L618.971205 305.072248 L586.285179 320.544850 L595.916904 323.987535 L574.066570 343.333157 L580.086398 345.484835 Z" fill="#888" fill-opacity="0.18" stroke="#000" stroke-width="1"/>
  <path d="M561.175204 503.380233 L579.306859 531.242667 L573.019766 532.400473 L591.482596 555.001672 L581.423247 556.854162 L611.202843 577.371309 L583.539634 582.465656 L587.244614 602.584353 L572.155591 605.363088 L568.450611 585.244391 L540.787402 590.338738 L561.304549 560.559141 L551.245201 562.411631 L560.445580 534.716086 L554.158487 535.873892 Z" fill="#888" fill-opacity="0.18" stroke="#000" stroke-width="1"/>
  <path d="M905.125901 447.531574 L872.743484 455.044975 L873.804893 448.740892 L846.253460 458.364238 L847.951715 448.277705 L818.489746 469.248400 L823.159947 441.510434 L802.986881 438.113925 L805.534263 422.984125 L825.707329 426.380635 L830.377530 398.642670 L851.348225 428.104639 L853.046480 418.018106 L875.927711 436.132726 L876.989121 429.828643 Z" fill="#888" fill-opacity="0.18" stroke="#000" stroke-width="1"/>
  <path d="M1001.958212 44.617955 L982.160696 71.322459 L978.884565 65.832922 L964.133905 91.014428 L958.892096 82.231169 L950.038472 117.293842 L935.623495 93.139879 L918.056976 103.623499 L910.194261 90.448610 L927.760780 79.964990 L913.345803 55.811027 L948.408476 64.664650 L943.166666 55.881391 L972.332303 54.853848 L969.056172 49.364311 Z" fill="#888" fill-opacity="0.18" stroke="#000" stroke-width="1"/>
  <path d="M178.732375 928.611858 L150.571534 910.947227 L155.790170 907.254817 L129.539530 894.503576 L137.889347 888.595720 L102.245163 882.490818 L125.207160 866.244213 L113.391448 849.544578 L125.916173 840.682793 L137.731886 857.382428 L160.693884 841.135823 L154.588982 876.780007 L162.938799 870.872150 L166.227441 899.869996 L171.446077 896.177586 Z" fill="#888" fill-opacity="0.18" stroke="#000" stroke-width="1"/>
  <path d="M465.199528 751.763125 L482.924397 723.640160 L486.605628 728.866688 L499.413029 702.643402 L505.302999 711.005846 L511.484184 675.374811 L527.681601 698.371532 L544.406489 686.591591 L553.241444 699.135257 L536.516557 710.915197 L552.713974 733.911918 L517.082940 727.730734 L522.972910 736.093177 L493.968091 739.319742 L497.649322 744.546270 Z" fill="#888" fill-opacity="0.18" stroke="#000" stroke-width="1"/>
  <path d="M865.980537 561.510004 L879.091737 530.962196 L883.544662 535.549082 L892.095769 507.646236 L899.220448 514.985252 L899.756291 478.826013 L919.349159 499.008309 L934.027192 484.758950 L944.714210 495.767475 L930.036178 510.016833 L949.629045 530.199128 L913.469806 529.663285 L920.594486 537.002302 L892.450511 544.722852 L896.903435 549.309737 Z" fill="#888" fill-opacity="0.18" stroke="#000" stroke-width="1"/>
  <path d="M755.745490 499.000314 L750.414793 531.812748 L744.984383 528.439516 L743.438355 557.582268 L734.749699 552.185096 L742.978409 587.399667 L719.084604 572.557443 L708.290260 589.934756 L695.257275 581.838998 L706.051620 564.461685 L682.157815 549.619462 L717.372386 541.390751 L708.683730 535.993579 L734.123563 521.693050 L728.693153 518.319818 Z" fill="#888" fill-opacity="0.18" stroke="#000" stroke-width="1"/>
  <path d="M443.317304 151.683582 L418.245373 173.511784 L416.224977 167.446633 L396.409245 188.871549 L393.176611 179.167308 L376.997592 211.509494 L368.107850 184.822831 L348.699368 191.288098 L343.850418 176.731736 L363.258900 170.266469 L354.369158 143.579806 L386.711344 159.758825 L383.478711 150.054584 L412.184185 155.316332 L410.163789 149.251181 Z" fill="#888" fill-opacity="0.18" stroke="#000" stroke-width="1"/>
  <path d="M436.821275 169.085523 L465.998916 185.014661 L461.013149 189.015933 L487.986925 200.156202 L480.009698 206.558238 L515.957855 210.496217 L494.020480 228.101815 L506.824551 244.056270 L494.858710 253.659323 L482.054639 237.704868 L460.117264 255.310466 L464.055243 219.362309 L456.078016 225.764345 L451.041615 197.018477 L446.055848 201.019750 Z" fill="#888" fill-opacity="0.18" stroke="#000" stroke-width="1"/>
  <path d="M1032.495043 914.009719 L999.290383 912.421418 L1002.028296 906.644578 L972.897526 908.401976 L977.278186 899.159031 L943.219173 911.314742 L955.265989 885.896644 L936.780100 877.135323 L943.351090 863.270906 L961.836980 872.032227 L973.883796 846.614128 L986.039507 880.673141 L990.420168 871.430197 L1007.504122 895.090897 L1010.242035 889.314056 Z" fill="#888" fill-opacity="0.18" stroke="#000" stroke-width="1"/>
  <path d="M816.345233 815.260588 L838.789085 790.738239 L841.482117 796.536138 L858.749044 773.008634 L863.057894 782.285272 L875.477365 748.321550 L887.326703 773.832306 L905.879981 765.214605 L912.343256 779.129563 L893.789979 787.747264 L905.639318 813.258020 L871.675595 800.838549 L875.984446 810.115188 L846.868180 808.131936 L849.561211 813.929835 Z" fill="#888" fill-opacity="0.18" stroke="#000" stroke-width="1"/>
  <path d="M391.345316 391.226898 L358.236231 394.203583 L360.156722 388.106062 L331.541556 393.838644 L334.614342 384.082610 L302.542292 400.790731 L310.992453 373.961637 L291.480385 367.816066 L296.089563 353.182014 L315.601632 359.327586 L324.051793 332.498492 L340.759914 364.570542 L343.832699 354.814508 L363.997704 375.911019 L365.918196 369.813498 Z" fill="#888" fill-opacity="0.18" stroke="#000" stroke-width="1"/>
  <path d="M255.110362 487.016624 L288.282277 484.849548 L286.213421 490.898340 L314.960073 485.866420 L311.649904 495.544488 L344.120496 479.624742 L335.017531 506.239428 L354.373666 512.859766 L349.408412 527.376868 L330.052277 520.756529 L320.949311 547.371216 L305.029565 514.900623 L301.719396 524.578691 L282.075709 502.995925 L280.006853 509.044717 Z" fill="#888" fill-opacity="0.18" stroke="#000" stroke-width="1"/>
  <path d="M1013.198568 269.688166 L981.612106 280.049999 L982.109005 273.676527 L955.521941 285.710572 L956.316978 275.513017 L928.835497 299.019312 L931.021849 270.976035 L910.626739 269.385961 L911.819295 254.089628 L932.214405 255.679702 L934.400757 227.636426 L957.907052 255.117907 L958.702089 244.920351 L983.102801 260.929583 L983.599699 254.556111 Z" fill="#888" fill-opacity="0.18" stroke="#000" stroke-width="1"/>
  <path d="M416.531367 541.201060 L449.359877 535.970276 L447.860274 542.184715 L476.017154 534.511361 L473.617790 544.454462 L504.473954 525.595119 L497.875702 552.938648 L517.761905 557.737376 L514.162859 572.652029 L494.276656 567.853300 L487.678404 595.196829 L468.819061 564.340665 L466.419697 574.283767 L444.861069 554.613591 L443.361466 560.828030 Z" fill="#888" fill-opacity="0.18" stroke="#000" stroke-width="1"/>
  <path d="M424.054252 572.546976 L454.197148 586.564035 L449.479409 590.878080 L477.114617 600.258138 L469.566234 607.160611 L505.693373 608.775387 L484.935320 627.757187 L498.740265 642.853953 L487.417690 653.207662 L473.612745 638.110895 L452.854691 657.092695 L454.469468 620.965556 L446.921085 627.868028 L440.043930 599.506171 L435.326190 603.820216 Z" fill="#888" fill-opacity="0.18" stroke="#000" stroke-width="1"/>
  <path d="M52.147038 174.198416 L60.906982 142.130745 L65.951543 146.057634 L70.561064 117.240234 L78.632362 123.523256 L74.161672 87.637456 L96.357741 104.915767 L108.923785 88.773171 L121.030732 98.197704 L108.464688 114.340300 L130.660757 131.618610 L94.774957 136.089300 L102.846255 142.372322 L76.040665 153.911411 L81.085227 157.838300 Z" fill="#888" fill-opacity="0.18" stroke="#000" stroke-width="1"/>
  <path d="M1054.543369 810.162186 L1027.051223 791.473845 L1032.402123 787.975856 L1006.638188 774.267833 L1015.199627 768.671051 L979.804073 761.259408 L1003.348032 745.868257 L992.154467 728.745379 L1004.996626 720.350205 L1016.190191 737.473084 L1039.734149 722.081933 L1032.322506 757.477487 L1040.883945 751.880705 L1043.103922 780.979879 L1048.454821 777.481890 Z" fill="#888" fill-opacity="0.18" stroke="#000" stroke-width="1"/>
  <path d="M903.365053 603.691838 L934.330503 615.783697 L929.893675 620.386154 L958.064525 628.008059 L950.965601 635.371991 L987.122741 634.709473 L967.600699 654.960285 L982.328562 669.158134 L971.680175 680.204031 L956.952312 666.006182 L937.430270 686.256994 L936.767752 650.099854 L929.668828 657.463785 L921.020020 629.591068 L916.583192 634.193526 Z" fill="#888" fill-opacity="0.18" stroke="#000" stroke-width="1"/>
  <path d="M459.084186 828.815145 L485.074727 849.541069 L479.473192 852.621792 L504.119461 868.250343 L495.157005 873.179500 L529.886038 883.262749 L505.239282 896.817930 L515.097596 914.742844 L501.653911 922.136579 L491.795597 904.211666 L467.148842 917.766847 L477.232091 883.037813 L468.269635 887.966970 L468.270121 858.783238 L462.668585 861.863961 Z" fill="#888" fill-opacity="0.18" stroke="#000" stroke-width="1"/>
  <path d="M682.920154 962.670516 L707.183378 985.394250 L701.354961 988.020582 L724.682803 1005.556317 L715.357338 1009.758447 L749.176329 1022.566786 L723.531298 1034.122645 L731.935559 1052.773577 L717.947360 1059.076772 L709.543099 1040.425841 L683.898068 1051.981700 L696.706406 1018.162709 L687.380940 1022.364839 L689.698129 993.273245 L683.869713 995.899576 Z" fill="#888" fill-opacity="0.18" stroke="#000" stroke-width="1"/>
  <path d="M963.901590 935.110417 L997.121090 936.350153 L994.443955 942.155410 L1023.554678 940.092387 L1019.271261 949.380797 L1053.200827 936.868313 L1041.421432 962.411440 L1059.998252 970.978273 L1053.573127 984.910888 L1034.996307 976.344055 L1023.216912 1001.887183 L1010.704428 967.957617 L1006.421012 977.246027 L989.089685 953.765922 L986.412549 959.571178 Z" fill="#888" fill-opacity="0.18" stroke="#000" stroke-width="1"/>
  <path d="M690.765710 424.889932 L685.157419 392.123803 L691.388706 393.551778 L683.391776 365.485084 L693.361836 367.769845 L674.148590 337.132794 L701.566253 343.415887 L706.135775 323.475768 L721.090864 326.902909 L716.521342 346.843028 L743.939005 353.126121 L713.301954 372.339366 L723.272014 374.624127 L703.851280 396.407729 L710.082567 397.835705 Z" fill="#888" fill-opacity="0.18" stroke="#000" stroke-width="1"/>
  <path d="M204.106776 801.735506 L225.134271 827.482673 L219.008480 829.310988 L239.798480 849.791860 L229.997214 852.717164 L261.813639 869.907068 L234.860158 877.951654 L240.710766 897.554186 L226.008867 901.942142 L220.158259 882.339610 L193.204778 890.384196 L210.394683 858.567772 L200.593417 861.493076 L206.756897 832.967618 L200.631106 834.795933 Z" fill="#888" fill-opacity="0.18" stroke="#000" stroke-width="1"/>
  <path d="M900.158508 236.182844 L889.269488 267.591464 L884.499394 263.335379 L877.969260 291.779140 L870.337111 284.969404 L872.393145 321.074119 L851.404733 302.347345 L837.785261 317.611645 L826.337036 307.397041 L839.956508 292.132741 L818.968096 273.405967 L855.072811 271.349932 L847.440661 264.540196 L874.959207 254.823209 L870.189113 250.567124 Z" fill="#888" fill-opacity="0.18" stroke="#000" stroke-width="1"/>
  <path d="M877.053115 683.358913 L872.202912 716.245806 L866.723745 712.952360 L865.604131 742.114608 L856.837464 736.845096 L865.580351 771.935545 L841.472016 757.444386 L830.932991 774.977720 L817.782991 767.073451 L828.322015 749.540117 L804.213681 735.048958 L839.304130 726.306071 L830.537462 721.036558 L855.765411 706.365470 L850.286244 703.072025 Z" fill="#888" fill-opacity="0.18" stroke="#000" stroke-width="1"/>
  <path d="M806.145721 447.893906 L812.159217 480.588096 L805.910729 479.237371 L814.254502 507.202915 L804.256922 505.041755 L823.847973 535.438604 L796.354628 529.495415 L792.032309 549.490575 L777.035939 546.248836 L781.358258 526.253676 L753.864914 520.310487 L784.261763 500.719436 L774.264183 498.558276 L793.413754 476.535921 L787.165267 475.185196 Z" fill="#888" fill-opacity="0.18" stroke="#000" stroke-width="1"/>
  <path d="M267.259819 726.865288 L293.725737 706.749937 L295.338971 712.935850 L316.533511 692.873904 L319.114685 702.771366 L337.405404 671.574774 L344.503634 698.792795 L364.298558 693.630445 L368.170320 708.476638 L348.375396 713.638988 L355.473626 740.857008 L324.277035 722.566290 L326.858209 732.463752 L298.565439 725.307678 L300.178673 731.493592 Z" fill="#888" fill-opacity="0.18" stroke="#000" stroke-width="1"/>
  <path d="M302.630910 306.350472 L324.128503 280.994493 L327.039506 286.686076 L343.401631 262.520583 L348.059236 271.627116 L359.181557 237.216773 L371.989968 262.259738 L390.203034 252.944530 L397.189440 266.604329 L378.976375 275.919537 L391.784787 300.962502 L357.374444 289.840181 L362.032049 298.946714 L332.861511 298.069242 L335.772514 303.760825 Z" fill="#888" fill-opacity="0.18" stroke="#000" stroke-width="1"/>
  <path d="M169.568969 205.669156 L199.931971 192.135484 L200.088614 198.526377 L225.307572 183.839841 L225.558201 194.065270 L250.495202 167.875126 L251.184431 195.995056 L271.635289 195.493799 L272.011232 210.831943 L251.560373 211.333200 L252.249602 239.453130 L226.059458 214.516128 L226.310086 224.741558 L200.401899 211.308164 L200.558542 217.699057 Z" fill="#888" fill-opacity="0.18" stroke="#000" stroke-width="1"/>
  <path d="M1049.664982 234.706797 L1051.977672 267.868878 L1045.919855 265.826598 L1051.077932 294.550882 L1041.385425 291.283234 L1057.447572 323.683621 L1030.793178 314.697589 L1024.257881 334.082603 L1009.719121 329.181131 L1016.254417 309.796117 L989.600023 300.810085 L1022.000411 284.747937 L1012.307904 281.480289 L1033.804221 261.742038 L1027.746404 259.699758 Z" fill="#888" fill-opacity="0.18" stroke="#000" stroke-width="1"/>
  <path d="M711.672640 229.139988 L744.622791 224.740023 L742.966708 230.914604 L771.308411 223.954856 L768.658679 233.834185 L799.981331 215.760193 L792.694568 242.928347 L812.453226 248.227811 L808.478628 263.046804 L788.719970 257.747340 L781.433208 284.915494 L763.359216 253.592843 L760.709484 263.472171 L739.654543 243.263764 L737.998461 249.438345 Z" fill="#888" fill-opacity="0.18" stroke="#000" stroke-width="1"/>
  <path d="M825.600775 630.516797 L795.289570 616.867510 L799.954473 612.496386 L772.207188 603.453247 L779.671033 596.459447 L743.526921 595.284332 L764.052496 576.051384 L750.064897 561.123694 L761.260665 550.632995 L775.248264 565.560685 L795.773838 546.327737 L794.598724 582.471849 L802.062569 575.478049 L809.284280 603.754137 L813.949183 599.383012 Z" fill="#888" fill-opacity="0.18" stroke="#000" stroke-width="1"/>
  <path d="M144.346233 388.432825 L137.532317 355.896035 L143.812066 357.093031 L134.784603 329.340642 L144.832202 331.255836 L124.501190 301.348853 L152.132087 306.615637 L155.962475 286.520439 L171.033874 289.393230 L167.203486 309.488428 L194.834383 314.755212 L164.927400 335.086224 L174.974999 337.001418 L156.371565 359.487024 L162.651315 360.684020 Z" fill="#888" fill-opacity="0.18" stroke="#000" stroke-width="1"/>
  <path d="M244.012775 42.964776 L248.093645 75.955966 L241.935381 74.240204 L248.620513 102.647936 L238.767291 99.902717 L256.537298 131.398820 L229.440937 123.849467 L223.950499 143.555912 L209.170665 139.438083 L214.661104 119.731638 L187.564743 112.182285 L219.060847 94.412278 L209.207624 91.667059 L229.618853 70.808680 L223.460589 69.092918 Z" fill="#888" fill-opacity="0.18" stroke="#000" stroke-width="1"/>
  <path d="M149.742482 610.744077 L118.394096 621.805311 L118.749231 615.422370 L92.436172 628.044300 L93.004388 617.831595 L66.052085 641.942818 L67.614679 613.857879 L47.189268 612.721448 L48.041592 597.402390 L68.467002 598.538822 L70.029596 570.453882 L94.140819 597.406185 L94.709035 587.193480 L119.459501 602.656489 L119.814636 596.273548 Z" fill="#888" fill-opacity="0.18" stroke="#000" stroke-width="1"/>
  <path d="M354.805198 793.220543 L372.160108 821.573307 L365.843425 822.556963 L383.674747 845.659650 L373.568055 847.233499 L402.769406 868.565607 L374.976003 872.893690 L378.123700 893.107073 L362.963663 895.467846 L359.815966 875.254462 L332.022564 879.582545 L353.354672 850.381195 L343.247980 851.955044 L353.210061 824.524273 L346.893378 825.507928 Z" fill="#888" fill-opacity="0.18" stroke="#000" stroke-width="1"/>
  <path d="M176.867086 212.378078 L143.693761 214.523463 L145.766572 208.476025 L117.016635 213.489146 L120.333132 203.813245 L87.852137 219.711754 L96.972504 193.103026 L77.620702 186.470032 L82.595448 171.956180 L101.947250 178.589175 L111.067617 151.980447 L126.966127 184.461442 L130.282624 174.785541 L149.912193 196.381148 L151.985004 190.333710 Z" fill="#888" fill-opacity="0.18" stroke="#000" stroke-width="1"/>
  <path d="M388.136063 1050.770975 L409.128130 1024.994914 L412.151094 1030.627830 L428.032235 1006.143558 L432.868978 1015.156223 L443.308783 980.532703 L456.609827 1005.317532 L474.635157 995.644046 L481.890272 1009.163043 L463.864941 1018.836529 L477.165985 1043.621358 L442.542464 1033.181553 L447.379207 1042.194218 L418.197023 1041.893661 L421.219987 1047.526577 Z" fill="#888" fill-opacity="0.18" stroke="#000" stroke-width="1"/>
  <path d="M515.490707 839.784163 L548.533107 843.427235 L545.442443 849.023292 L574.626130 849.074622 L569.681068 858.028313 L604.427950 848.006741 L590.829029 872.629391 L608.736410 882.519515 L601.318817 895.950051 L583.411436 886.059927 L569.812515 910.682576 L559.790944 875.935694 L554.845882 884.889385 L539.261115 860.215405 L536.170452 865.811462 Z" fill="#888" fill-opacity="0.18" stroke="#000" stroke-width="1"/>
  <path d="M279.050860 358.167830 L267.203866 389.227786 L262.566521 384.827436 L255.167277 413.057586 L247.747525 406.017025 L248.695502 442.167807 L228.291185 422.806264 L214.210063 437.645767 L203.080435 427.084926 L217.161557 412.245422 L196.757240 392.883879 L232.908022 391.935903 L225.488270 384.895342 L253.291832 376.026734 L248.654487 371.626383 Z" fill="#888" fill-opacity="0.18" stroke="#000" stroke-width="1"/>
</svg>
