<?xml version="1.0" encoding="UTF-8"?>
<svg xmlns="http://www.w3.org/2000/svg" width="1100" height="1100" viewBox="0 0 1100 1100">
  <rect x="0" y="0" width="1100" height="1100" fill="white"/>
  <text x="10.0" y="18.0" font-family="monospace" font-size="12">prefix=N139_job5048541_task139 run_id=139 L=10.1747894904 feas=0.000e+00 N=139</text>
  <rect x="40.000000" y="40.000000" width="1020.000000" height="1020.000000" fill="none" stroke="#000" stroke-width="2"/>
  <path d="M89.819582 470.775690 L76.727348 440.941412 L82.991734 440.824024 L68.740533 416.024733 L78.763550 415.836912 L53.236454 391.248920 L80.799753 390.732413 L80.424112 370.686377 L95.458638 370.404646 L95.834280 390.450682 L123.397579 389.934175 L98.809586 415.461271 L108.832604 415.273450 L95.520506 440.589248 L101.784892 440.471860 Z" fill="#888" fill-opacity="0.18" stroke="#000" stroke-width="1"/>
  <path d="M529.288807 1035.429550 L497.058714 1030.663854 L500.288578 1025.295028 L471.707574 1024.186989 L476.875356 1015.596867 L442.480597 1024.152715 L456.691999 1000.529881 L439.511756 990.194316 L447.263430 977.309134 L464.443672 987.644699 L478.655074 964.021865 L487.210922 998.416625 L492.378704 989.826503 L506.748307 1014.557377 L509.978171 1009.188551 Z" fill="#888" fill-opacity="0.18" stroke="#000" stroke-width="1"/>
  <path d="M141.868369 220.538206 L109.775870 226.156233 L111.152292 220.043805 L83.674451 227.985456 L85.876727 218.205571 L55.921326 237.149592 L61.977585 210.254910 L42.417816 205.850357 L45.721230 191.180530 L65.280999 195.585083 L71.337259 168.690400 L90.281280 198.645802 L92.483556 188.865918 L113.905138 207.818949 L115.281560 201.706521 Z" fill="#888" fill-opacity="0.18" stroke="#000" stroke-width="1"/>
  <path d="M245.906740 939.305046 L278.383512 936.706966 L276.442581 942.664240 L304.541721 937.321961 L301.436232 946.853598 L333.029046 930.788228 L324.488952 957.000229 L343.552225 963.211207 L338.893992 977.508662 L319.830718 971.297684 L311.290624 997.509686 L295.225254 965.916872 L292.119765 975.448508 L272.560720 954.578786 L270.619790 960.536059 Z" fill="#888" fill-opacity="0.18" stroke="#000" stroke-width="1"/>
  <path d="M432.207277 286.069261 L463.155885 275.887199 L462.674253 282.134146 L488.721630 270.317389 L487.951019 280.312504 L514.865333 257.251243 L512.746154 284.737809 L532.736384 286.279030 L531.580468 301.271702 L511.590238 299.730481 L509.471059 327.217047 L486.409798 300.302734 L485.639188 310.297849 L461.710990 294.628039 L461.229358 300.874986 Z" fill="#888" fill-opacity="0.18" stroke="#000" stroke-width="1"/>
  <path d="M859.028144 974.224110 L888.560031 987.984864 L883.932983 992.209404 L911.010648 1001.423612 L903.607370 1008.182875 L939.013722 1009.792912 L918.654708 1028.380885 L932.173235 1043.187441 L921.068318 1053.326336 L907.549791 1038.519780 L887.190777 1057.107754 L888.800814 1021.701401 L881.397536 1028.460664 L874.678885 1000.658483 L870.051837 1004.883022 Z" fill="#888" fill-opacity="0.18" stroke="#000" stroke-width="1"/>
  <path d="M634.370342 852.630829 L602.007303 848.872581 L605.068163 843.405640 L576.466505 843.189469 L581.363882 834.442363 L547.252675 844.066686 L560.720461 820.012144 L543.226249 810.217391 L550.572315 797.096732 L568.066527 806.891485 L581.534313 782.836944 L591.158636 816.948151 L596.056013 808.201045 L611.189884 832.471757 L614.250745 827.004816 Z" fill="#888" fill-opacity="0.18" stroke="#000" stroke-width="1"/>
  <path d="M833.309941 750.494158 L801.936013 759.278652 L802.697192 753.059575 L776.146290 763.696828 L777.364176 753.746305 L749.443151 775.577896 L752.792340 748.213957 L732.891293 745.778184 L734.718123 730.852399 L754.619170 733.288172 L757.968358 705.924233 L779.799950 733.845258 L781.017836 723.894735 L804.219550 740.621421 L804.980730 734.402344 Z" fill="#888" fill-opacity="0.18" stroke="#000" stroke-width="1"/>
  <path d="M458.136675 779.347570 L485.045051 760.978302 L486.315603 767.113610 L508.061622 748.533722 L510.094505 758.350215 L529.553530 728.726772 L535.143960 755.722129 L554.776947 751.656361 L557.826273 766.381102 L538.193286 770.446869 L543.783717 797.442227 L514.160273 777.983202 L516.193157 787.799696 L488.856708 779.384227 L490.127260 785.519536 Z" fill="#888" fill-opacity="0.18" stroke="#000" stroke-width="1"/>
  <path d="M1057.567806 132.981812 L1029.498862 116.440195 L1034.511349 112.681034 L1008.447236 100.901239 L1016.467215 94.886582 L981.380625 89.873276 L1003.435568 73.332970 L991.406255 57.293011 L1003.436224 48.271026 L1015.465537 64.310985 L1037.520480 47.770679 L1032.507173 82.857269 L1040.527153 76.842612 L1044.536323 105.162714 L1049.548810 101.403553 Z" fill="#888" fill-opacity="0.18" stroke="#000" stroke-width="1"/>
  <path d="M899.422354 141.600339 L928.437359 126.780752 L928.921975 133.027468 L952.842685 117.346230 L953.618070 127.340976 L976.666471 100.415649 L978.798780 127.901200 L998.788271 126.350430 L999.951349 141.342548 L979.961857 142.893318 L982.094166 170.378869 L955.168840 147.330467 L955.944225 157.325213 L929.891206 145.520900 L930.375822 151.767616 Z" fill="#888" fill-opacity="0.18" stroke="#000" stroke-width="1"/>
  <path d="M168.711286 777.735649 L200.752591 783.638658 L197.334800 788.889851 L225.858709 791.008389 L220.390245 799.410297 L255.066176 792.076689 L240.027898 815.181935 L256.831714 826.118865 L248.629017 838.721727 L231.825201 827.784797 L216.786923 850.890044 L209.453315 816.214113 L203.984851 824.616021 L190.499220 799.392235 L187.081429 804.643428 Z" fill="#888" fill-opacity="0.18" stroke="#000" stroke-width="1"/>
  <path d="M900.997730 594.311418 L913.520926 624.388989 L907.255441 624.387370 L921.033030 649.452876 L911.008253 649.450284 L936.063716 674.518706 L908.495579 674.511579 L908.490396 694.561133 L893.453230 694.557246 L893.458414 674.507691 L865.890277 674.500564 L890.958699 649.445101 L880.933922 649.442509 L894.724469 624.384130 L888.458984 624.382510 Z" fill="#888" fill-opacity="0.18" stroke="#000" stroke-width="1"/>
  <path d="M58.785070 1006.200229 L75.171694 978.040519 L78.958431 983.032206 L90.594358 956.903548 L96.653137 964.890247 L101.472938 929.776552 L118.134579 951.739975 L134.107977 939.622417 L143.196146 951.602466 L127.222747 963.720023 L143.884389 985.683446 L108.770694 980.863645 L114.829473 988.850344 L86.531904 993.015580 L90.318641 998.007267 Z" fill="#888" fill-opacity="0.18" stroke="#000" stroke-width="1"/>
  <path d="M247.725469 769.042730 L279.745360 775.060808 L276.308727 780.299688 L304.824841 782.520684 L299.326228 790.902893 L334.028281 783.693904 L318.907096 806.744977 L335.671512 817.742203 L327.423593 830.315516 L310.659176 819.318290 L295.537990 842.369363 L288.329002 807.667310 L282.830389 816.049518 L269.435461 790.777449 L265.998828 796.016329 Z" fill="#888" fill-opacity="0.18" stroke="#000" stroke-width="1"/>
  <path d="M204.852055 898.493306 L229.485064 877.169479 L231.448390 883.119408 L250.928790 862.176256 L254.070112 871.696144 L270.016524 840.043119 L278.655161 866.222809 L297.694936 859.940163 L302.406920 874.219994 L283.367145 880.502640 L292.005783 906.682330 L260.352758 890.735918 L263.494081 900.255805 L235.375044 895.019267 L237.338370 900.969197 Z" fill="#888" fill-opacity="0.18" stroke="#000" stroke-width="1"/>
  <path d="M526.860270 479.018667 L508.170193 452.332121 L514.289852 450.988213 L495.450970 429.466175 L505.242424 427.315922 L475.388156 408.212919 L502.314655 402.299724 L498.014149 382.716815 L512.701331 379.491436 L517.001837 399.074344 L543.928336 393.161149 L524.825333 423.015416 L534.616787 420.865164 L526.529170 448.300397 L532.648828 446.956489 Z" fill="#888" fill-opacity="0.18" stroke="#000" stroke-width="1"/>
  <path d="M472.004678 149.903090 L442.675601 164.090970 L442.326353 157.835225 L418.071721 172.994855 L417.512924 162.985664 L393.886938 189.405635 L392.350246 161.880359 L372.331864 162.997953 L371.493669 147.984166 L391.512051 146.866572 L389.975359 119.341296 L416.395330 142.967282 L415.836533 132.958091 L441.627857 145.323736 L441.278608 139.067992 Z" fill="#888" fill-opacity="0.18" stroke="#000" stroke-width="1"/>
  <path d="M233.556628 605.100910 L265.973499 608.362376 L262.996843 613.875618 L291.598453 613.653111 L286.835803 622.474297 L320.795393 612.327956 L307.698107 636.586218 L325.340479 646.111518 L318.196505 659.343297 L300.554132 649.817998 L287.456845 674.076260 L277.310503 640.116670 L272.547854 648.937856 L257.043531 624.902101 L254.066875 630.415342 Z" fill="#888" fill-opacity="0.18" stroke="#000" stroke-width="1"/>
  <path d="M787.202839 923.753194 L758.143527 909.020675 L762.908125 904.951901 L736.150913 894.844815 L743.774269 888.334776 L708.440782 885.551484 L729.405010 867.648877 L716.384932 852.402165 L727.819966 842.637106 L740.840044 857.883818 L761.804272 839.981211 L759.020980 875.314698 L766.644336 868.804659 L772.437320 896.814352 L777.201917 892.745578 Z" fill="#888" fill-opacity="0.18" stroke="#000" stroke-width="1"/>
  <path d="M393.660146 533.923938 L423.973762 545.864431 L419.612016 550.362374 L447.199628 557.913882 L440.220835 565.110590 L475.659588 564.565802 L456.467907 584.356750 L470.861324 598.314336 L460.393135 609.109398 L445.999718 595.151812 L426.808038 614.942760 L426.263249 579.504007 L419.284456 586.700715 L410.888525 559.358259 L406.526780 563.856202 Z" fill="#888" fill-opacity="0.18" stroke="#000" stroke-width="1"/>
  <path d="M584.834256 146.156725 L566.164280 119.456112 L572.284949 118.116813 L553.462280 96.580595 L563.255350 94.437716 L533.415476 75.312237 L560.346420 69.419320 L556.060662 49.833178 L570.750268 46.618860 L575.036026 66.205001 L601.966970 60.312084 L582.841491 90.151958 L592.634562 88.009079 L584.526288 115.438214 L590.646957 114.098914 Z" fill="#888" fill-opacity="0.18" stroke="#000" stroke-width="1"/>
  <path d="M577.176854 400.847833 L605.830914 416.353817 L600.958989 420.293444 L627.435733 431.113963 L619.640653 437.417367 L654.886861 441.146557 L633.450392 458.480917 L646.057199 474.071076 L634.364580 483.526181 L621.757773 467.936022 L600.321304 485.270382 L604.050494 450.024174 L596.255414 456.327578 L591.215140 428.172699 L586.343215 432.112326 Z" fill="#888" fill-opacity="0.18" stroke="#000" stroke-width="1"/>
  <path d="M306.776349 424.226092 L285.281488 448.709998 L282.525089 443.083403 L266.082784 466.487509 L261.672546 457.484956 L250.191759 491.016934 L238.063604 466.259913 L220.058498 475.080390 L213.443141 461.576560 L231.448247 452.756084 L219.320091 427.999063 L252.852070 439.479850 L248.441831 430.477297 L277.012291 431.830211 L274.255893 426.203616 Z" fill="#888" fill-opacity="0.18" stroke="#000" stroke-width="1"/>
  <path d="M487.746518 738.160237 L500.223748 708.063569 L504.643480 712.504547 L512.683981 685.055469 L519.755552 692.161033 L519.840537 656.718195 L539.287357 676.258497 L553.498486 662.115356 L564.105842 672.773703 L549.894713 686.916844 L569.341532 706.457147 L533.898694 706.372162 L540.970265 713.477727 L513.482943 721.386503 L517.902675 725.827481 Z" fill="#888" fill-opacity="0.18" stroke="#000" stroke-width="1"/>
  <path d="M492.340088 47.790981 L482.925779 78.981709 L478.085288 75.003523 L472.821627 103.117496 L465.076841 96.752399 L468.526063 132.027105 L447.227903 114.523089 L434.497709 130.012660 L422.880531 120.465015 L435.610724 104.975444 L414.312564 87.471427 L449.587270 84.022205 L441.842484 77.657108 L468.404306 67.047152 L463.563815 63.068967 Z" fill="#888" fill-opacity="0.18" stroke="#000" stroke-width="1"/>
  <path d="M953.366578 817.747318 L928.670897 796.496106 L934.269905 793.684092 L910.704033 777.474489 L919.662446 772.975267 L886.018359 761.827288 L910.653995 749.454429 L901.655552 731.537602 L915.093172 724.788770 L924.091615 742.705596 L948.727252 730.332737 L937.579272 763.976824 L946.537686 759.477602 L945.467921 788.060065 L951.066930 785.248052 Z" fill="#888" fill-opacity="0.18" stroke="#000" stroke-width="1"/>
  <path d="M990.091412 183.071881 L962.718345 200.741231 L961.606409 194.575203 L939.388553 212.588210 L937.609455 202.722564 L917.393084 231.834423 L912.500566 204.703896 L892.769273 208.262091 L890.100627 193.463622 L909.831919 189.905427 L904.939401 162.774900 L934.051260 182.991271 L932.272163 173.125625 L959.382537 182.243145 L958.270601 176.077116 Z" fill="#888" fill-opacity="0.18" stroke="#000" stroke-width="1"/>
  <path d="M706.693997 402.591044 L714.727011 434.165740 L708.527877 433.256312 L718.528260 460.053587 L708.609646 458.598502 L729.768469 487.032747 L702.492282 483.031265 L699.582113 502.868491 L684.704193 500.685865 L687.614362 480.848638 L660.338175 476.847156 L688.772420 455.688333 L678.853806 454.233249 L696.129611 431.437457 L689.930477 430.528029 Z" fill="#888" fill-opacity="0.18" stroke="#000" stroke-width="1"/>
  <path d="M1049.541432 1014.706243 L1026.480516 991.691360 L1032.271687 989.299990 L1009.965632 971.396318 L1019.231506 967.570127 L986.501342 953.970920 L1011.982496 943.448894 L1004.330113 924.917146 L1018.228924 919.177859 L1025.881307 937.709607 L1051.362460 927.187580 L1037.763254 959.917744 L1047.029128 956.091553 L1043.854030 984.517251 L1049.645201 982.125881 Z" fill="#888" fill-opacity="0.18" stroke="#000" stroke-width="1"/>
  <path d="M225.547319 218.698943 L199.981000 238.894340 L198.287019 232.862198 L177.885210 252.908838 L175.174839 243.257411 L157.822198 274.161906 L150.368678 247.620481 L131.065823 253.041223 L127.000266 238.564082 L146.303121 233.143340 L138.849601 206.601914 L169.754097 223.954556 L167.043726 214.303128 L194.899055 220.797914 L193.205073 214.765771 Z" fill="#888" fill-opacity="0.18" stroke="#000" stroke-width="1"/>
  <path d="M309.238472 461.453809 L301.496620 493.101154 L296.451370 489.386081 L292.690627 517.740241 L284.618228 511.796124 L289.938934 546.837415 L267.739835 530.491093 L255.851601 546.635892 L243.743001 537.719717 L255.631236 521.574918 L233.432137 505.228596 L268.473428 499.907889 L260.401029 493.963772 L286.360871 481.955935 L281.315621 478.240861 Z" fill="#888" fill-opacity="0.18" stroke="#000" stroke-width="1"/>
  <path d="M487.808616 789.128929 L511.586622 811.402167 L505.874065 813.975686 L528.735767 831.164175 L519.595675 835.281805 L552.739981 847.837959 L527.604728 859.161443 L535.839989 877.441627 L522.129851 883.618072 L513.894590 865.337888 L488.759337 876.661372 L501.315491 843.517066 L492.175399 847.634696 L494.448950 819.122724 L488.736392 821.696243 Z" fill="#888" fill-opacity="0.18" stroke="#000" stroke-width="1"/>
  <path d="M774.803724 154.859752 L760.825295 184.289230 L756.635035 179.631116 L747.221149 206.640009 L740.516732 199.187026 L738.645315 234.580526 L720.208170 214.084821 L705.302203 227.493654 L695.245578 216.314179 L710.151545 202.905346 L691.714399 182.409642 L727.107899 184.281059 L720.403483 176.828076 L748.254514 170.314887 L744.064254 165.656772 Z" fill="#888" fill-opacity="0.18" stroke="#000" stroke-width="1"/>
  <path d="M722.869282 947.185756 L727.571344 979.425194 L721.500581 977.875305 L728.656706 1005.568110 L718.943486 1003.088289 L737.026984 1033.570893 L710.315628 1026.751385 L705.355985 1046.177826 L690.786155 1042.458094 L695.745797 1023.031653 L669.034441 1016.212145 L699.517045 998.128647 L689.803825 995.648826 L709.359055 974.775529 L703.288293 973.225641 Z" fill="#888" fill-opacity="0.18" stroke="#000" stroke-width="1"/>
  <path d="M660.502852 1016.938945 L645.377828 988.081981 L651.619081 987.531456 L635.686226 963.777599 L645.672231 962.896760 L618.505121 940.133847 L645.966633 937.711539 L644.204955 917.739530 L659.183961 916.418271 L660.945640 936.390280 L688.407152 933.967971 L665.644240 961.135081 L675.630244 960.254242 L664.101586 986.430407 L670.342839 985.879882 Z" fill="#888" fill-opacity="0.18" stroke="#000" stroke-width="1"/>
  <path d="M931.094098 508.265508 L944.251086 538.071286 L937.986969 538.202277 L952.291987 562.970563 L942.269401 563.180148 L967.849829 587.712652 L940.287717 588.289010 L940.706886 608.334183 L925.673007 608.648560 L925.253837 588.603387 L897.691725 589.179746 L922.224228 563.599318 L912.201642 563.808903 L925.458736 538.464258 L919.194620 538.595248 Z" fill="#888" fill-opacity="0.18" stroke="#000" stroke-width="1"/>
  <path d="M672.704643 688.741227 L695.110226 712.394568 L689.254191 714.622383 L711.048729 733.145332 L701.679072 736.709836 L734.014475 751.222719 L708.247918 761.025105 L715.376927 779.764419 L701.322441 785.111175 L694.193433 766.371861 L668.426876 776.174247 L682.939758 743.838845 L673.570101 747.403349 L677.542119 719.078013 L671.686084 721.305828 Z" fill="#888" fill-opacity="0.18" stroke="#000" stroke-width="1"/>
  <path d="M754.551153 496.451995 L742.809187 526.843062 L738.282812 522.510830 L730.911907 550.147243 L723.669706 543.215671 L724.446277 578.650103 L704.530225 559.588279 L690.667081 574.072680 L679.803780 563.675322 L693.666925 549.190921 L673.750873 530.129097 L709.185305 529.352526 L701.943104 522.420954 L729.230061 513.846364 L724.703685 509.514132 Z" fill="#888" fill-opacity="0.18" stroke="#000" stroke-width="1"/>
  <path d="M748.800820 624.043955 L780.772811 630.311533 L777.295431 635.523456 L805.793359 637.966745 L800.229551 646.305822 L834.986763 639.367649 L819.686292 662.300111 L836.364446 673.427726 L828.018734 685.936342 L811.340580 674.808726 L796.040108 697.741188 L789.101936 662.983976 L783.538128 671.323053 L770.340671 645.947302 L766.863291 651.159225 Z" fill="#888" fill-opacity="0.18" stroke="#000" stroke-width="1"/>
  <path d="M71.619405 353.176695 L101.283249 339.702753 L101.481001 345.965117 L126.095403 331.396904 L126.411807 341.416687 L150.670253 315.576218 L151.540366 343.130621 L171.579932 342.497812 L172.054538 357.527487 L152.014972 358.160296 L152.885085 385.714699 L127.044616 361.456253 L127.361021 371.476036 L101.876507 358.489846 L102.074260 364.752210 Z" fill="#888" fill-opacity="0.18" stroke="#000" stroke-width="1"/>
  <path d="M188.117849 163.378201 L220.516987 166.811361 L217.511164 172.308755 L246.113551 172.237779 L241.304235 181.033610 L275.317102 171.067323 L262.091483 195.255858 L279.683144 204.874491 L272.469170 218.068237 L254.877508 208.449604 L241.651888 232.638139 L231.685602 198.625271 L226.876286 207.421102 L211.499519 183.303544 L208.493696 188.800938 Z" fill="#888" fill-opacity="0.18" stroke="#000" stroke-width="1"/>
  <path d="M374.696469 434.622081 L355.530970 408.274892 L361.625553 406.821489 L342.403860 385.640646 L352.155191 383.315201 L321.963250 364.750484 L348.779412 358.355511 L344.128523 338.852848 L358.755520 335.364681 L363.406410 354.867344 L390.222572 348.472371 L371.657855 378.664312 L381.409186 376.338867 L373.814717 403.914683 L379.909299 402.461280 Z" fill="#888" fill-opacity="0.18" stroke="#000" stroke-width="1"/>
  <path d="M866.725400 306.268792 L843.577940 283.340953 L849.360061 280.927782 L826.986713 263.108274 L836.238106 259.247201 L803.456941 245.771400 L828.898272 235.153450 L821.176127 216.650663 L835.053217 210.859054 L842.775362 229.361840 L868.216694 218.743890 L854.740893 251.525056 L863.992286 247.663983 L860.924302 276.101441 L866.706423 273.688271 Z" fill="#888" fill-opacity="0.18" stroke="#000" stroke-width="1"/>
  <path d="M380.780163 987.840474 L398.226334 960.324628 L401.820407 965.456777 L414.442044 939.789758 L420.192560 948.001197 L426.344867 913.096310 L442.158786 935.677767 L458.581664 924.176735 L467.207438 936.493893 L450.784560 947.994925 L466.598479 970.576382 L431.693592 964.424075 L437.444108 972.635514 L409.008552 975.721075 L412.602624 980.853225 Z" fill="#888" fill-opacity="0.18" stroke="#000" stroke-width="1"/>
  <path d="M694.481063 120.395279 L662.632264 113.529076 L666.206797 108.383299 L637.759714 105.405878 L643.478967 97.172634 L608.597724 103.457613 L624.325669 80.816191 L607.859181 69.377686 L616.438060 57.027819 L632.904548 68.466325 L648.632493 45.824903 L654.917472 80.706145 L660.636725 72.472901 L673.355863 98.091743 L676.930396 92.945966 Z" fill="#888" fill-opacity="0.18" stroke="#000" stroke-width="1"/>
  <path d="M1022.088253 876.707070 L989.816443 872.232586 L992.997698 866.834815 L964.407854 865.984889 L969.497863 857.348456 L935.181759 866.214517 L949.179282 842.464326 L931.906416 832.284309 L939.541429 819.329659 L956.814295 829.509677 L970.811819 805.759486 L979.677880 840.075590 L984.767888 831.439157 L999.360209 856.039274 L1002.541464 850.641503 Z" fill="#888" fill-opacity="0.18" stroke="#000" stroke-width="1"/>
  <path d="M795.261778 559.829491 L827.218583 553.484941 L825.981165 559.627018 L853.271792 551.064118 L851.291924 560.891442 L880.809903 541.272803 L875.365266 568.297943 L895.019913 572.257679 L892.050110 586.998664 L872.395464 583.038928 L866.950827 610.064067 L847.332188 580.546089 L845.352320 590.373412 L823.506330 571.911172 L822.268913 578.053249 Z" fill="#888" fill-opacity="0.18" stroke="#000" stroke-width="1"/>
  <path d="M376.429086 1058.037753 L344.257866 1052.889621 L347.551264 1047.559532 L318.985434 1046.112135 L324.254871 1037.583994 L289.760925 1045.730756 L304.251876 1022.278367 L287.195592 1011.739493 L295.099747 998.947281 L312.156031 1009.486154 L326.646981 986.033765 L334.793744 1020.527710 L340.063181 1011.999569 L354.138059 1036.899355 L357.431457 1031.569266 Z" fill="#888" fill-opacity="0.18" stroke="#000" stroke-width="1"/>
  <path d="M1047.589554 207.319766 L1023.804540 229.585519 L1021.611286 223.716452 L1002.960176 245.401416 L999.450969 236.010909 L984.747716 268.260194 L975.097399 242.436298 L956.316383 249.454711 L951.052574 235.368949 L969.833589 228.350537 L960.183271 202.526641 L992.432556 217.229893 L988.923350 207.839386 L1017.224778 211.978318 L1015.031523 206.109250 Z" fill="#888" fill-opacity="0.18" stroke="#000" stroke-width="1"/>
  <path d="M802.198392 96.818990 L775.661125 115.720423 L774.268657 109.611630 L752.896918 128.620848 L750.668968 118.846780 L731.803672 148.851823 L725.676811 121.973136 L706.128675 126.429035 L702.786751 111.767933 L722.334887 107.312034 L716.208026 80.433348 L746.213069 99.298644 L743.985120 89.524576 L771.483720 97.394046 L770.091252 91.285253 Z" fill="#888" fill-opacity="0.18" stroke="#000" stroke-width="1"/>
  <path d="M387.273771 825.652400 L419.834881 826.777041 L417.226875 832.473936 L445.752070 830.372793 L441.579260 839.487825 L474.798867 827.132270 L463.323638 852.198609 L481.553703 860.544230 L475.294487 874.216779 L457.064422 865.871158 L445.589194 890.937497 L433.233639 857.717890 L429.060828 866.832922 L412.010862 843.867727 L409.402855 849.564622 Z" fill="#888" fill-opacity="0.18" stroke="#000" stroke-width="1"/>
  <path d="M426.504636 336.117599 L442.255002 364.638060 L436.027230 365.324481 L452.474013 388.725441 L442.509578 389.823715 L470.166350 411.989116 L442.764155 415.009370 L444.960703 434.938239 L430.014051 436.585650 L427.817503 416.656781 L400.415308 419.677035 L422.580709 392.020263 L412.616275 393.118537 L423.571687 366.697324 L417.343915 367.383745 Z" fill="#888" fill-opacity="0.18" stroke="#000" stroke-width="1"/>
  <path d="M680.248970 228.018505 L648.772884 219.607396 L652.594093 214.642049 L624.326044 210.280977 L630.439978 202.336421 L595.293752 206.912975 L612.107072 185.065446 L596.217960 172.837577 L605.388862 160.920744 L621.277974 173.148612 L638.091293 151.301084 L642.667847 186.447310 L648.781782 178.502754 L660.236511 204.711354 L664.057720 199.746007 Z" fill="#888" fill-opacity="0.18" stroke="#000" stroke-width="1"/>
  <path d="M933.490324 380.263174 L931.304823 412.770316 L925.695974 409.977983 L926.866109 438.556513 L917.891951 434.088780 L929.158015 467.693509 L904.479078 455.407243 L895.543612 473.355560 L882.082374 466.653961 L891.017840 448.705643 L866.338904 436.419377 L899.943633 425.153313 L890.969475 420.685580 L914.478276 404.393317 L908.869426 401.600984 Z" fill="#888" fill-opacity="0.18" stroke="#000" stroke-width="1"/>
  <path d="M716.967411 469.164553 L722.764992 437.104004 L728.027399 440.504503 L730.052099 411.973780 L738.471950 417.414578 L731.024319 382.762957 L754.178907 397.725152 L765.060503 380.885451 L777.690279 389.046648 L766.808683 405.886349 L789.963271 420.848543 L755.311650 428.296174 L763.731501 433.736972 L738.552212 447.305501 L743.814618 450.705999 Z" fill="#888" fill-opacity="0.18" stroke="#000" stroke-width="1"/>
  <path d="M468.182348 716.607372 L465.357926 749.065243 L459.805081 746.163136 L460.412914 774.759152 L451.528362 770.115781 L462.131316 803.935589 L437.698797 791.166319 L428.412055 808.935424 L415.085227 801.970368 L424.371968 784.201263 L399.939449 771.431994 L433.759257 760.829040 L424.874704 756.185669 L448.699391 740.358923 L443.146545 737.456816 Z" fill="#888" fill-opacity="0.18" stroke="#000" stroke-width="1"/>
  <path d="M261.205413 922.671078 L232.054053 937.220611 L231.627461 930.969665 L207.562177 946.428114 L206.879630 936.426599 L183.582210 963.136752 L181.705207 935.632587 L161.702178 936.997680 L160.678358 921.995408 L180.681387 920.630315 L178.804384 893.126150 L205.514537 916.423570 L204.831990 906.422055 L230.774278 918.467771 L230.347687 912.216825 Z" fill="#888" fill-opacity="0.18" stroke="#000" stroke-width="1"/>
  <path d="M704.079939 359.784944 L684.678810 385.959108 L681.467503 380.579162 L667.012592 405.260270 L661.874501 396.652356 L653.199942 431.017368 L639.070193 407.345604 L621.854364 417.621785 L614.147228 404.709913 L631.363057 394.433732 L617.233308 370.761968 L651.598320 379.436527 L646.460230 370.828613 L675.044890 369.819269 L671.833583 364.439323 Z" fill="#888" fill-opacity="0.18" stroke="#000" stroke-width="1"/>
  <path d="M1032.386407 412.302471 L1001.996499 424.047437 L1002.159368 417.784068 L976.747582 430.912002 L977.008172 420.890613 L951.303221 445.292611 L952.019845 417.733788 L931.977065 417.212607 L932.367951 402.180522 L952.410731 402.701704 L953.127356 375.142882 L977.529354 400.847833 L977.789944 390.826443 L1002.485107 405.257331 L1002.647976 398.993962 Z" fill="#888" fill-opacity="0.18" stroke="#000" stroke-width="1"/>
  <path d="M51.977860 283.613926 L79.637789 266.397102 L80.648177 272.580582 L103.159245 254.935372 L104.775866 264.828941 L125.468234 236.053466 L129.913942 263.260780 L149.701079 260.027537 L152.126011 274.867890 L132.338874 278.101132 L136.784583 305.308446 L108.009108 284.616078 L109.625729 294.509646 L82.668954 284.947543 L83.679342 291.131023 Z" fill="#888" fill-opacity="0.18" stroke="#000" stroke-width="1"/>
  <path d="M1049.836288 881.381497 L1026.189343 903.793830 L1023.959856 897.938431 L1005.443128 919.738255 L1001.875950 910.369615 L987.372296 942.709159 L977.562557 916.945400 L958.825278 924.079756 L953.474511 910.026797 L972.211790 902.892441 L962.402051 877.128683 L994.741594 891.632337 L991.174416 882.263697 L1019.500884 886.227632 L1017.271398 880.372232 Z" fill="#888" fill-opacity="0.18" stroke="#000" stroke-width="1"/>
  <path d="M288.885774 337.559768 L278.301352 368.373089 L273.614403 364.215105 L267.293757 392.110463 L259.794639 385.457690 L261.910501 420.837418 L241.287927 402.542292 L227.982380 417.540528 L216.733703 407.561368 L230.039250 392.563132 L209.416675 374.268006 L244.796403 372.152144 L237.297285 365.499370 L264.240506 355.899139 L259.553557 351.741155 Z" fill="#888" fill-opacity="0.18" stroke="#000" stroke-width="1"/>
  <path d="M970.289716 266.667622 L977.015534 298.546362 L970.859114 297.382400 L979.747387 324.568797 L969.897115 322.706456 L989.866943 351.987986 L962.778696 346.866550 L959.054015 366.567093 L944.278607 363.773582 L948.003288 344.073039 L920.915041 338.951603 L950.196572 318.981775 L940.346300 317.119435 L958.546275 295.054474 L952.389855 293.890511 Z" fill="#888" fill-opacity="0.18" stroke="#000" stroke-width="1"/>
  <path d="M469.337943 1059.063749 L436.794928 1057.500768 L439.479408 1051.839507 L410.928506 1053.556363 L415.223674 1044.498344 L381.840709 1056.405471 L393.652420 1031.495920 L375.536383 1022.905585 L381.979135 1009.318557 L400.095172 1017.908893 L411.906883 992.999342 L423.814009 1026.382308 L428.109177 1017.324289 L444.848367 1040.516984 L447.532847 1034.855722 Z" fill="#888" fill-opacity="0.18" stroke="#000" stroke-width="1"/>
  <path d="M1027.654026 667.180881 L1013.942056 696.735451 L1009.709882 692.115385 L1000.540400 719.208228 L993.768921 711.816122 L992.217354 747.225085 L973.595786 726.896793 L958.811574 740.439752 L948.654355 729.351592 L963.438567 715.808634 L944.817000 695.480342 L980.225963 697.031910 L973.454484 689.639804 L1001.245533 682.875252 L997.013359 678.255186 Z" fill="#888" fill-opacity="0.18" stroke="#000" stroke-width="1"/>
  <path d="M881.929844 918.962392 L868.710280 889.184316 L874.974107 889.040168 L860.617095 864.301983 L870.639219 864.071347 L845.007318 839.592628 L872.568159 838.958377 L872.106886 818.914129 L887.140072 818.568175 L887.601345 838.612423 L915.162186 837.978172 L890.683467 863.610073 L900.705591 863.379437 L887.501762 888.751872 L893.765590 888.607724 Z" fill="#888" fill-opacity="0.18" stroke="#000" stroke-width="1"/>
  <path d="M876.712820 780.920240 L865.621716 750.285649 L871.880157 750.582687 L859.299736 724.895441 L869.313241 725.370701 L845.467627 699.148788 L873.004766 700.455752 L873.955285 680.428741 L888.975544 681.141630 L888.025025 701.168641 L915.562165 702.475605 L889.340252 726.321220 L899.353758 726.796479 L884.397039 751.176761 L890.655480 751.473798 Z" fill="#888" fill-opacity="0.18" stroke="#000" stroke-width="1"/>
  <path d="M112.519029 442.245266 L145.083359 441.218078 L142.857096 447.074704 L171.181378 443.095180 L167.619357 452.465781 L199.950913 437.944331 L190.155355 463.713484 L208.896558 470.837527 L203.553526 484.893429 L184.812323 477.769386 L175.016765 503.538540 L160.495315 471.206984 L156.933294 480.577585 L138.404570 458.787955 L136.178306 464.644581 Z" fill="#888" fill-opacity="0.18" stroke="#000" stroke-width="1"/>
  <path d="M425.067289 522.900509 L404.947386 497.274736 L410.984498 495.598553 L390.998119 475.137707 L400.657499 472.455814 L369.804318 455.012098 L396.367611 447.636892 L391.003826 428.318133 L405.492895 424.295294 L410.856681 443.614053 L437.419974 436.238847 L419.976258 467.092028 L429.635637 464.410136 L423.058723 492.246187 L429.095835 490.570004 Z" fill="#888" fill-opacity="0.18" stroke="#000" stroke-width="1"/>
  <path d="M197.686702 144.316811 L171.826470 164.134458 L170.221284 158.078082 L149.527190 177.822854 L146.958892 168.132653 L129.154133 198.778902 L122.091313 172.130848 L102.710910 177.267444 L98.858463 162.732142 L118.238866 157.595546 L111.176046 130.947491 L141.822295 148.752250 L139.253997 139.062048 L167.010911 145.965330 L165.405725 139.908954 Z" fill="#888" fill-opacity="0.18" stroke="#000" stroke-width="1"/>
  <path d="M223.497322 705.771625 L252.378857 690.693573 L252.919226 696.935713 L276.698975 681.041528 L277.563566 691.028952 L300.370650 663.898915 L302.748274 691.364332 L322.723123 689.635151 L324.020009 704.616288 L304.045160 706.345469 L306.422784 733.810886 L279.292747 711.003801 L280.157337 720.991226 L253.999964 709.419993 L254.540333 715.662134 Z" fill="#888" fill-opacity="0.18" stroke="#000" stroke-width="1"/>
  <path d="M447.395645 248.129057 L451.726842 215.837705 L457.138680 218.994970 L457.861698 190.401635 L466.520638 195.453259 L457.502348 161.176846 L481.314434 175.068813 L491.417683 157.750932 L504.406094 165.328368 L494.302846 182.646250 L518.114932 196.538217 L483.838520 205.556508 L492.497461 210.608132 L467.962356 225.309500 L473.374194 228.466765 Z" fill="#888" fill-opacity="0.18" stroke="#000" stroke-width="1"/>
  <path d="M345.330910 257.815907 L367.008952 233.494040 L369.723037 239.141168 L386.340560 215.861144 L390.683097 224.896548 L402.415265 191.451694 L414.357242 216.299056 L432.428051 207.613982 L438.941857 221.167089 L420.871048 229.852163 L432.813026 254.699525 L399.368171 242.967357 L403.710709 252.002762 L375.151209 250.435423 L377.865295 256.082551 Z" fill="#888" fill-opacity="0.18" stroke="#000" stroke-width="1"/>
  <path d="M719.614878 928.438209 L752.165013 929.845111 L749.507713 935.519180 L778.050053 933.665427 L773.798373 942.743939 L807.123853 930.676861 L795.431732 955.642768 L813.588756 964.146129 L807.211236 977.763896 L789.054212 969.260536 L777.362091 994.226443 L765.295012 960.900963 L761.043332 969.979475 L744.193113 946.867320 L741.535813 952.541390 Z" fill="#888" fill-opacity="0.18" stroke="#000" stroke-width="1"/>
  <path d="M210.160236 880.604534 L180.362782 867.428705 L184.905640 863.113760 L157.651571 854.435206 L164.920145 847.531294 L129.488931 846.619642 L149.477507 827.633883 L135.669682 813.096736 L146.572542 802.740868 L160.380367 817.278014 L180.368943 798.292255 L179.457291 833.723469 L186.725864 826.819557 L193.991357 854.483869 L198.534215 850.168924 Z" fill="#888" fill-opacity="0.18" stroke="#000" stroke-width="1"/>
  <path d="M812.895019 227.734776 L801.086884 197.369357 L807.350578 197.519202 L794.169829 172.134769 L804.191740 172.374520 L779.736342 146.720367 L807.296595 147.379682 L807.776097 127.335862 L822.808962 127.695489 L822.329460 147.739309 L849.889713 148.398624 L824.235560 172.854022 L834.257470 173.093773 L819.877966 197.818891 L826.141660 197.968735 Z" fill="#888" fill-opacity="0.18" stroke="#000" stroke-width="1"/>
  <path d="M571.823482 504.321906 L561.055919 535.071707 L556.393792 530.885912 L549.907290 558.743171 L542.447887 552.045898 L544.353214 587.437589 L523.839854 569.020089 L510.445309 583.938897 L499.256204 573.892988 L512.650749 558.974181 L492.137389 540.556681 L527.529079 538.651353 L520.069676 531.954081 L547.069537 522.514321 L542.407410 518.328526 Z" fill="#888" fill-opacity="0.18" stroke="#000" stroke-width="1"/>
  <path d="M779.046243 349.404862 L810.406291 358.238781 L806.518609 363.152257 L834.725412 367.893335 L828.505122 375.754897 L863.709752 371.651719 L846.603954 393.271013 L862.327077 405.711594 L852.996641 417.503936 L837.273518 405.063356 L820.167720 426.682650 L816.064542 391.478020 L809.844251 399.339582 L798.743246 372.979209 L794.855565 377.892685 Z" fill="#888" fill-opacity="0.18" stroke="#000" stroke-width="1"/>
  <path d="M972.918135 811.966233 L983.452333 781.135706 L988.146051 785.286047 L994.421233 757.380426 L1001.931181 764.020971 L999.757671 728.644737 L1020.410030 746.906235 L1033.691119 731.886337 L1044.956042 741.847154 L1031.674953 756.867052 L1052.327312 775.128549 L1016.951079 777.302060 L1024.461028 783.942604 L997.533487 793.586727 L1002.227205 797.737068 Z" fill="#888" fill-opacity="0.18" stroke="#000" stroke-width="1"/>
  <path d="M511.940654 610.383789 L494.328873 637.793931 L490.765814 632.640201 L477.989627 658.230642 L472.288733 649.984675 L465.926053 684.851828 L450.248593 662.175420 L433.756660 673.577209 L425.205318 661.208259 L441.697251 649.806470 L426.019791 627.130062 L460.886944 633.492742 L455.186049 625.246775 L483.639696 622.332743 L480.076637 617.179014 Z" fill="#888" fill-opacity="0.18" stroke="#000" stroke-width="1"/>
  <path d="M375.580693 643.903853 L405.662175 656.417652 L401.215829 660.831983 L428.655115 668.905840 L421.540961 675.968770 L456.983670 676.096831 L437.419746 695.519887 L451.545606 709.748195 L440.874375 720.342590 L426.748515 706.114282 L407.184592 725.537338 L407.312653 690.094629 L400.198499 697.157559 L392.323136 669.660645 L387.876790 674.074977 Z" fill="#888" fill-opacity="0.18" stroke="#000" stroke-width="1"/>
  <path d="M844.650658 958.053075 L874.928869 946.023085 L874.824858 952.287707 L900.112173 938.921584 L899.945755 948.944980 L925.420290 924.302536 L924.962640 951.866875 L945.009432 952.199711 L944.759804 967.234805 L924.713012 966.901969 L924.255362 994.466308 L899.612918 968.991772 L899.446500 979.015168 L874.616835 964.816952 L874.512823 971.081575 Z" fill="#888" fill-opacity="0.18" stroke="#000" stroke-width="1"/>
  <path d="M232.252714 708.912595 L208.857366 731.587437 L206.562671 725.757283 L188.290385 747.762399 L184.618874 738.434154 L170.477038 770.933546 L160.380382 745.280871 L141.723891 752.623894 L136.216624 738.631525 L154.873115 731.288502 L144.776459 705.635827 L177.275851 719.777662 L173.604340 710.449417 L201.973282 714.096976 L199.678587 708.266823 Z" fill="#888" fill-opacity="0.18" stroke="#000" stroke-width="1"/>
  <path d="M251.616646 288.709125 L282.934744 297.690631 L279.023966 302.585744 L307.208130 307.459605 L300.950886 315.291786 L336.174448 311.354443 L318.967027 332.892941 L334.631390 345.407429 L325.245524 357.155700 L309.581162 344.641212 L292.373741 366.179710 L288.436398 330.956148 L282.179154 338.788329 L271.202411 312.375970 L267.291634 317.271083 Z" fill="#888" fill-opacity="0.18" stroke="#000" stroke-width="1"/>
  <path d="M784.766011 50.749651 L816.660068 57.402460 L813.120068 62.572056 L841.586448 65.358946 L835.922448 73.630299 L870.760829 67.111918 L855.184829 89.858137 L871.727533 101.186137 L863.231533 113.593165 L846.688828 102.265165 L831.112828 125.011383 L824.594448 90.173003 L818.930448 98.444355 L806.040068 72.911246 L802.500068 78.080841 Z" fill="#888" fill-opacity="0.18" stroke="#000" stroke-width="1"/>
  <path d="M411.451292 894.175410 L381.000650 882.588817 L385.309708 878.040374 L357.636009 870.810717 L364.530501 863.533208 L329.100498 864.490748 L348.060353 844.477599 L333.505336 830.688614 L343.847075 819.772351 L358.402092 833.561336 L377.361947 813.548188 L378.319487 848.978191 L385.213980 841.700682 L393.927824 868.943489 L398.236882 864.395046 Z" fill="#888" fill-opacity="0.18" stroke="#000" stroke-width="1"/>
  <path d="M247.673080 568.864972 L219.323406 552.809235 L224.270406 548.964303 L198.007277 537.635153 L205.922478 531.483261 L170.754749 527.074989 L192.521550 510.157288 L180.217767 494.326887 L192.090568 485.099050 L204.394350 500.929451 L226.161151 484.011750 L221.752878 519.179479 L229.668079 513.027588 L234.164406 541.274439 L239.111406 537.429507 Z" fill="#888" fill-opacity="0.18" stroke="#000" stroke-width="1"/>
  <path d="M64.731441 572.409761 L74.384962 541.292238 L79.194765 545.307473 L84.674138 517.234745 L92.369822 523.659121 L89.191550 488.358971 L110.354683 506.026004 L123.203434 490.634635 L134.746961 500.271198 L121.898209 515.662567 L143.061342 533.329600 L107.761191 536.507872 L115.456876 542.932248 L88.814371 553.337943 L93.624173 557.353177 Z" fill="#888" fill-opacity="0.18" stroke="#000" stroke-width="1"/>
  <path d="M194.060964 978.410670 L224.442883 990.176285 L220.107129 994.699288 L247.737797 1002.091699 L240.800590 1009.328503 L276.235616 1008.579511 L257.158297 1028.480720 L271.631904 1042.355134 L261.226094 1053.210339 L246.752487 1039.335926 L227.675169 1059.237136 L226.926177 1023.802110 L219.988970 1031.038914 L211.435620 1003.745292 L207.099866 1008.268294 Z" fill="#888" fill-opacity="0.18" stroke="#000" stroke-width="1"/>
  <path d="M387.394934 474.489546 L391.604736 506.796949 L385.558318 505.154650 L392.291243 532.953379 L382.616974 530.325701 L400.233451 561.080567 L373.629212 553.854453 L368.373857 573.202990 L353.862454 569.261473 L359.117810 549.912936 L332.513571 542.686822 L363.268437 525.070345 L353.594169 522.442667 L373.465482 501.870053 L367.419065 500.227754 Z" fill="#888" fill-opacity="0.18" stroke="#000" stroke-width="1"/>
  <path d="M353.225464 148.566998 L351.005101 116.062219 L356.939409 118.072271 L351.924143 89.912927 L361.419034 93.129011 L345.722015 61.351572 L371.832967 70.195803 L378.265135 51.206020 L392.507473 56.030146 L386.075305 75.019929 L412.186256 83.864160 L380.408817 99.561179 L389.903709 102.777263 L368.808023 122.092376 L374.742330 124.102429 Z" fill="#888" fill-opacity="0.18" stroke="#000" stroke-width="1"/>
  <path d="M802.559835 613.011178 L776.389534 593.604838 L781.770119 590.394602 L757.091889 575.934778 L765.700826 570.798401 L731.337542 562.117000 L755.012119 547.991964 L744.739365 530.774090 L757.652771 523.069525 L767.925524 540.287399 L791.600101 526.162363 L782.918700 560.525648 L791.527637 555.389271 L792.531291 583.974131 L797.911876 580.763896 Z" fill="#888" fill-opacity="0.18" stroke="#000" stroke-width="1"/>
  <path d="M547.677063 1006.247102 L522.172180 985.974173 L527.657381 982.946156 L503.477871 967.666991 L512.254192 962.822163 L478.201322 952.993429 L502.336205 939.670154 L492.646550 922.117512 L505.811032 914.850271 L515.500686 932.402913 L539.635569 919.079638 L529.806835 953.132509 L538.583156 948.287682 L538.627782 976.890122 L544.112983 973.862105 Z" fill="#888" fill-opacity="0.18" stroke="#000" stroke-width="1"/>
  <path d="M714.935174 361.731364 L732.337870 334.188000 L735.940043 339.314467 L748.521130 313.627547 L754.284607 321.829895 L760.381783 286.915335 L776.231344 309.471790 L792.636038 297.944836 L801.281253 310.248357 L784.876559 321.775310 L800.726120 344.331765 L765.811561 338.234589 L771.575037 346.436936 L743.144389 349.567401 L746.746562 354.693867 Z" fill="#888" fill-opacity="0.18" stroke="#000" stroke-width="1"/>
  <path d="M417.577867 742.368958 L385.119411 745.186644 L387.020003 739.216379 L358.957641 744.748592 L361.998589 735.196168 L330.515160 751.474858 L338.877766 725.205693 L319.772919 719.123797 L324.334341 704.795161 L343.439188 710.877057 L351.801795 684.607892 L368.080485 716.091321 L371.121432 706.538897 L390.821188 727.275850 L392.721781 721.305585 Z" fill="#888" fill-opacity="0.18" stroke="#000" stroke-width="1"/>
  <path d="M839.364042 939.991694 L821.400276 912.810932 L827.553944 911.632509 L809.302183 889.610366 L819.148052 887.724890 L789.819688 867.823908 L816.895828 862.638847 L813.124875 842.947109 L827.893679 840.118894 L831.664632 859.810633 L858.740772 854.625572 L838.839791 883.953936 L848.685660 882.068460 L839.861281 909.275663 L846.014949 908.097240 Z" fill="#888" fill-opacity="0.18" stroke="#000" stroke-width="1"/>
  <path d="M64.585301 811.119711 L69.118968 778.856162 L74.510895 782.047312 L75.413256 753.459074 L84.040339 758.564915 L75.237232 724.232607 L98.961710 738.273667 L109.173390 721.019502 L122.114015 728.678262 L111.902334 745.932428 L135.626812 759.973488 L101.294505 768.776595 L109.921588 773.882435 L85.294748 788.429612 L90.686675 791.620762 Z" fill="#888" fill-opacity="0.18" stroke="#000" stroke-width="1"/>
  <path d="M637.959986 491.645701 L645.273803 523.394698 L639.096924 522.344710 L648.486107 549.362201 L638.603100 547.682221 L659.110666 576.589690 L631.932397 571.969743 L628.572436 591.735757 L613.747925 589.215786 L617.107886 569.449772 L589.929617 564.829826 L618.837086 544.322260 L608.954079 542.642279 L626.743165 520.244735 L620.566286 519.194747 Z" fill="#888" fill-opacity="0.18" stroke="#000" stroke-width="1"/>
  <path d="M900.450711 388.719038 L869.976759 377.193893 L874.276633 372.636767 L846.588407 365.462946 L853.468206 358.171545 L818.040206 359.200551 L836.959652 339.149198 L822.376850 325.389600 L832.696548 314.452499 L847.279351 328.212096 L866.198797 308.160743 L867.227803 343.588743 L874.107602 336.297342 L882.876381 363.522515 L887.176256 358.965390 Z" fill="#888" fill-opacity="0.18" stroke="#000" stroke-width="1"/>
  <path d="M881.030022 42.058487 L912.381578 50.922497 L908.489183 55.832240 L936.691423 60.600386 L930.463591 68.455975 L965.672142 64.386584 L948.545604 85.989452 L964.256781 98.445116 L954.915033 110.228499 L939.203856 97.772835 L922.077317 119.375703 L918.007927 84.167152 L911.780094 92.022740 L900.704392 65.651726 L896.811997 70.561469 Z" fill="#888" fill-opacity="0.18" stroke="#000" stroke-width="1"/>
  <path d="M667.662669 843.233303 L689.831175 867.108982 L683.953206 869.278267 L705.561878 888.017715 L696.157128 891.488571 L728.346143 906.323305 L702.483081 915.868159 L709.424793 934.677659 L695.317668 939.883943 L688.375956 921.074444 L662.512894 930.619298 L677.347628 898.430283 L667.942878 901.901139 L672.197269 873.616837 L666.319300 875.786122 Z" fill="#888" fill-opacity="0.18" stroke="#000" stroke-width="1"/>
  <path d="M344.516371 47.901955 L329.975611 77.057692 L325.875536 72.320003 L315.944942 99.143218 L309.384823 91.562915 L306.834364 126.913971 L288.794035 106.068138 L273.633429 119.188377 L263.793250 107.817922 L278.953856 94.697683 L260.913528 73.851849 L296.264584 76.402309 L289.704465 68.822006 L317.675387 62.844624 L313.575312 58.106935 Z" fill="#888" fill-opacity="0.18" stroke="#000" stroke-width="1"/>
  <path d="M101.507463 1014.126700 L129.878003 998.107862 L130.623171 1004.328878 L153.867865 987.661972 L155.060134 997.615597 L176.963526 969.750863 L180.242264 997.123332 L200.149515 994.738795 L201.937918 1009.669233 L182.030667 1012.053771 L185.309406 1039.426240 L157.444671 1017.522848 L158.636939 1027.476474 L132.113507 1016.770910 L132.858675 1022.991926 Z" fill="#888" fill-opacity="0.18" stroke="#000" stroke-width="1"/>
  <path d="M652.699472 910.438931 L623.371261 924.628602 L623.021631 918.372879 L598.767925 933.533990 L598.208517 923.524833 L574.584145 949.946246 L573.045772 922.421065 L553.027458 923.539881 L552.188346 908.526145 L572.206660 907.407329 L570.668287 879.882147 L597.089700 903.506519 L596.530292 893.497362 L622.322371 905.861432 L621.972741 899.605709 Z" fill="#888" fill-opacity="0.18" stroke="#000" stroke-width="1"/>
  <path d="M162.830327 130.466462 L135.179071 113.235711 L140.282995 109.601668 L114.518189 97.180865 L122.684469 91.366396 L87.732599 85.486871 L110.189866 69.497081 L98.560928 53.164523 L110.810347 44.442820 L122.439285 60.775378 L144.896552 44.785588 L139.017027 79.737458 L147.183306 73.922989 L150.490844 102.333582 L155.594769 98.699539 Z" fill="#888" fill-opacity="0.18" stroke="#000" stroke-width="1"/>
  <path d="M846.510261 510.411054 L814.151148 514.202953 L815.871455 508.178265 L787.988030 514.551347 L790.740522 504.911848 L759.760543 522.129366 L767.329897 495.620743 L748.050898 490.115758 L752.179636 475.656509 L771.458635 481.161493 L779.027988 454.652870 L796.245506 485.632849 L798.997998 475.993349 L819.312070 496.128891 L821.032378 490.104204 Z" fill="#888" fill-opacity="0.18" stroke="#000" stroke-width="1"/>
  <path d="M849.890869 433.986341 L873.210501 456.739043 L867.446735 459.195731 L889.953771 476.846083 L880.731745 480.776783 L913.613560 494.005097 L888.252989 504.814522 L896.114389 523.258574 L882.281350 529.154624 L874.419950 510.710572 L849.059379 521.519997 L862.287693 488.638183 L853.065668 492.568883 L855.919203 464.109106 L850.155437 466.565793 Z" fill="#888" fill-opacity="0.18" stroke="#000" stroke-width="1"/>
  <path d="M238.317242 171.662885 L214.084334 149.885445 L219.742526 147.194503 L196.530733 130.481805 L205.583842 126.176298 L172.187302 114.307296 L197.083350 102.467150 L188.472334 84.360934 L202.051997 77.902673 L210.663012 96.008889 L235.559059 84.168743 L223.690058 117.565282 L232.743166 113.259775 L231.058911 141.812618 L236.717104 139.121676 Z" fill="#888" fill-opacity="0.18" stroke="#000" stroke-width="1"/>
  <path d="M1036.447865 1004.848965 L1005.306272 1014.424552 L1005.909836 1008.188205 L979.636607 1019.493913 L980.602309 1009.515758 L953.242666 1032.046891 L955.898347 1004.606964 L935.942036 1002.675560 L937.390590 987.708327 L957.346900 989.639731 L960.002581 962.199804 L982.533714 989.559448 L983.499416 979.581293 L1007.116963 995.715511 L1007.720527 989.479164 Z" fill="#888" fill-opacity="0.18" stroke="#000" stroke-width="1"/>
  <path d="M1053.960692 621.471193 L1025.202350 606.159481 L1030.047502 602.186973 L1003.498136 591.545884 L1011.250379 585.189871 L975.979741 581.699297 L997.298408 564.220262 L984.586382 548.715777 L996.214746 539.181758 L1008.926771 554.686243 L1030.245438 537.207208 L1026.754864 572.477846 L1034.507107 566.121833 L1039.737805 594.241957 L1044.582957 590.269449 Z" fill="#888" fill-opacity="0.18" stroke="#000" stroke-width="1"/>
  <path d="M501.483042 667.951937 L507.754640 635.980735 L512.966126 639.458770 L515.412998 610.961149 L523.751375 616.526005 L516.817573 581.767921 L539.748110 597.071276 L550.877823 580.394522 L563.385389 588.741806 L552.255676 605.418561 L575.186214 620.721916 L540.428130 627.655718 L548.766507 633.220575 L523.389097 646.414840 L528.600583 649.892876 Z" fill="#888" fill-opacity="0.18" stroke="#000" stroke-width="1"/>
  <path d="M635.458230 239.131454 L639.548041 271.454266 L633.507763 269.789527 L640.137420 297.613064 L630.472975 294.949483 L647.975133 325.769549 L621.397910 318.444699 L616.070746 337.773589 L601.574079 333.778217 L606.901242 314.449327 L580.324019 307.124477 L611.144085 289.622319 L601.479640 286.958737 L621.427206 266.460050 L615.386928 264.795312 Z" fill="#888" fill-opacity="0.18" stroke="#000" stroke-width="1"/>
  <path d="M533.069032 489.039977 L501.030336 494.957129 L502.349680 488.832128 L474.947117 497.029755 L477.058067 487.229753 L447.280685 506.452383 L453.085798 479.502376 L433.485793 475.280475 L436.652219 460.580471 L456.252224 464.802372 L462.057338 437.852365 L481.279968 467.629748 L483.390919 457.829745 L504.988368 476.582125 L506.307712 470.457123 Z" fill="#888" fill-opacity="0.18" stroke="#000" stroke-width="1"/>
  <path d="M389.727288 589.133909 L358.002893 596.553714 L359.032247 590.373363 L332.046263 599.852721 L333.693229 589.964159 L304.854408 610.568150 L309.383564 583.374603 L289.606439 580.080671 L292.076888 565.247828 L311.854013 568.541760 L316.383169 541.348213 L336.987160 570.187034 L338.634126 560.298472 L361.090954 578.012660 L362.120308 571.832308 Z" fill="#888" fill-opacity="0.18" stroke="#000" stroke-width="1"/>
  <path d="M957.090254 272.493526 L924.556011 274.229539 L926.654222 268.325826 L898.423307 272.921150 L901.780444 263.475210 L869.772750 278.697217 L879.004878 252.720881 L860.112997 246.006606 L865.148703 231.837696 L884.040584 238.551971 L893.272712 212.575634 L908.494719 244.583329 L911.851857 235.137389 L930.850644 256.518401 L932.948855 250.614688 Z" fill="#888" fill-opacity="0.18" stroke="#000" stroke-width="1"/>
  <path d="M668.096453 667.808768 L667.726493 700.387194 L661.970704 697.911874 L664.732158 726.380733 L655.522896 722.420221 L668.644770 755.344656 L643.319300 744.453247 L635.398275 762.871771 L621.584382 756.931002 L629.505407 738.512478 L604.179937 727.621069 L637.104373 714.499196 L627.895111 710.538683 L650.459127 692.961233 L644.703338 690.485913 Z" fill="#888" fill-opacity="0.18" stroke="#000" stroke-width="1"/>
  <path d="M554.662934 192.565315 L569.686456 221.475253 L563.443307 222.003842 L579.292589 245.813543 L569.303550 246.659284 L596.390500 269.517526 L568.920645 271.843315 L570.612128 291.821391 L555.628570 293.090003 L553.937087 273.111927 L526.467232 275.437716 L549.325474 248.350767 L539.336436 249.196508 L550.957010 223.061018 L544.713861 223.589607 Z" fill="#888" fill-opacity="0.18" stroke="#000" stroke-width="1"/>
  <path d="M203.446748 436.894798 L185.989655 409.385879 L192.164100 408.321670 L174.323485 385.965149 L184.202597 384.262415 L155.247981 363.821470 L182.415540 359.138951 L179.010071 339.380726 L193.828739 336.826625 L197.234208 356.584849 L224.401767 351.902330 L203.960822 380.856946 L213.839934 379.154212 L204.512990 406.193252 L210.687436 405.129043 Z" fill="#888" fill-opacity="0.18" stroke="#000" stroke-width="1"/>
  <path d="M589.425041 406.481521 L561.439765 389.798743 L566.471122 386.064876 L540.466669 374.153957 L548.516839 368.179770 L513.455944 362.989812 L535.593914 346.560797 L523.645539 330.460455 L535.720795 321.499174 L547.669169 337.599515 L569.807139 321.170500 L564.617181 356.231395 L572.667351 350.257208 L576.533835 378.597142 L581.565192 374.863275 Z" fill="#888" fill-opacity="0.18" stroke="#000" stroke-width="1"/>
  <path d="M109.441554 593.265661 L131.700737 569.474497 L134.277632 575.185533 L151.452608 552.313678 L155.575638 561.451335 L168.112205 528.299616 L179.450539 553.428173 L197.725854 545.182112 L203.910400 558.888598 L185.635085 567.134659 L196.973419 592.263217 L163.821699 579.726650 L167.944730 588.864307 L139.431420 586.607605 L142.008314 592.318641 Z" fill="#888" fill-opacity="0.18" stroke="#000" stroke-width="1"/>
  <path d="M651.290136 369.049303 L662.163830 338.336871 L666.811474 342.538742 L673.394142 314.704050 L680.830372 321.427044 L679.047281 286.028985 L699.496914 304.517217 L712.942901 289.644757 L724.097246 299.729248 L710.651259 314.601708 L731.100891 333.089941 L695.702832 334.873032 L703.139062 341.596025 L676.106761 350.942484 L680.754405 355.144355 Z" fill="#888" fill-opacity="0.18" stroke="#000" stroke-width="1"/>
  <path d="M444.805745 292.634944 L471.197430 311.739124 L465.854108 315.011008 L490.696950 329.186153 L482.147635 334.421167 L516.608457 342.706922 L493.097840 357.103209 L503.567867 374.201840 L490.743893 382.054360 L480.273866 364.955729 L456.763249 379.352016 L465.049004 344.891193 L456.499688 350.126207 L455.167463 321.554775 L449.824141 324.826658 Z" fill="#888" fill-opacity="0.18" stroke="#000" stroke-width="1"/>
  <path d="M209.140161 622.270760 L198.152360 652.942554 L193.520370 648.723433 L186.834264 676.533459 L179.423080 669.782866 L181.074556 705.187310 L160.693800 686.623177 L147.192612 701.445545 L136.075836 691.319654 L149.577024 676.497286 L129.196268 657.933154 L164.600712 656.281678 L157.189528 649.531084 L184.256390 640.285191 L179.624400 636.066070 Z" fill="#888" fill-opacity="0.18" stroke="#000" stroke-width="1"/>
  <path d="M702.641881 597.163507 L718.170260 625.805437 L711.937345 626.443468 L728.201883 649.971460 L718.229219 650.992310 L745.713004 673.371845 L718.288178 676.179182 L720.329877 696.124510 L705.370881 697.655785 L703.329182 677.710457 L675.904355 680.517794 L698.283891 653.034009 L688.311227 654.054859 L699.471515 627.719531 L693.238600 628.357562 Z" fill="#888" fill-opacity="0.18" stroke="#000" stroke-width="1"/>
  <path d="M372.344076 991.133454 L363.250014 959.847854 L369.476309 960.547548 L358.577234 934.103045 L368.539305 935.222554 L346.432901 907.518603 L373.828596 910.597253 L376.067615 890.673111 L391.010722 892.352375 L388.771703 912.276517 L416.167399 915.355168 L388.463448 937.461572 L398.425519 938.581082 L381.928898 961.946934 L388.155192 962.646628 Z" fill="#888" fill-opacity="0.18" stroke="#000" stroke-width="1"/>
  <path d="M207.924295 267.500760 L229.280909 292.105347 L223.333600 294.076596 L244.302677 313.529087 L234.786982 316.683085 L266.461216 332.587327 L240.293054 341.260823 L246.601051 360.292213 L232.327508 365.023211 L226.019511 345.991821 L199.851349 354.665316 L215.755591 322.991082 L206.239896 326.145081 L211.438981 298.019095 L205.491671 299.990344 Z" fill="#888" fill-opacity="0.18" stroke="#000" stroke-width="1"/>
  <path d="M1034.859358 647.491933 L1003.095305 654.740080 L1004.158064 648.565386 L977.121215 657.898679 L978.821629 648.019167 L949.871814 668.466911 L954.547953 641.298254 L934.788929 637.897426 L937.339551 623.078158 L957.098574 626.478986 L961.774713 599.310329 L982.222457 628.260143 L983.922872 618.380632 L1006.283582 636.215996 L1007.346341 630.041301 Z" fill="#888" fill-opacity="0.18" stroke="#000" stroke-width="1"/>
  <path d="M341.789345 180.850944 L335.253851 212.769246 L330.071275 209.248278 L327.389071 237.724713 L319.096949 232.091165 L325.743382 266.905342 L302.940046 251.413083 L291.672949 267.997327 L279.234765 259.547004 L290.501863 242.962760 L267.698527 227.470500 L302.512704 220.824067 L294.220582 215.190518 L319.706122 202.206342 L314.523546 198.685374 Z" fill="#888" fill-opacity="0.18" stroke="#000" stroke-width="1"/>
  <path d="M614.388552 672.814585 L621.452904 641.009151 L626.576328 644.615651 L629.730795 616.187655 L637.928273 621.958055 L631.860578 587.038360 L654.403643 602.906960 L665.944443 586.512004 L678.240660 595.167604 L666.699860 611.562560 L689.242925 627.431160 L654.323230 633.498855 L662.520708 639.269255 L636.823176 651.828650 L641.946599 655.435150 Z" fill="#888" fill-opacity="0.18" stroke="#000" stroke-width="1"/>
  <path d="M304.020622 529.599244 L309.502550 497.483217 L314.798152 500.831786 L316.542104 472.282527 L325.015067 477.640237 L317.226936 443.063554 L340.527584 457.797258 L351.243005 440.851332 L363.952450 448.887898 L353.237028 465.833823 L376.537676 480.567527 L341.960993 488.355658 L350.433956 493.713369 L325.389355 507.528924 L330.684957 510.877493 Z" fill="#888" fill-opacity="0.18" stroke="#000" stroke-width="1"/>
  <path d="M840.980779 951.736401 L854.784956 981.248016 L848.525189 981.515650 L863.367213 1005.965924 L853.351586 1006.394138 L879.461190 1030.362671 L851.918215 1031.540261 L852.774644 1051.571516 L837.751202 1052.213838 L836.894773 1032.182583 L809.351798 1033.360172 L833.320330 1007.250567 L823.304703 1007.678782 L836.005655 982.050918 L829.745887 982.318552 Z" fill="#888" fill-opacity="0.18" stroke="#000" stroke-width="1"/>
  <path d="M788.055377 844.567768 L756.090196 838.265556 L759.573220 833.057403 L731.077956 830.583241 L736.650795 822.250197 L701.886086 829.150710 L717.211394 806.234838 L700.545305 795.089160 L708.904564 782.589594 L725.570652 793.735272 L740.895960 770.819400 L747.796473 805.584108 L753.369312 797.251064 L766.539269 822.641098 L770.022293 817.432945 Z" fill="#888" fill-opacity="0.18" stroke="#000" stroke-width="1"/>
  <path d="M529.056288 1015.982285 L559.678501 1004.857053 L559.388438 1011.115821 L585.061648 998.506784 L584.597547 1008.520812 L610.792872 984.645993 L609.516594 1012.184572 L629.544652 1013.112774 L628.848500 1028.133817 L608.820443 1027.205615 L607.544165 1054.744194 L583.669345 1028.548870 L583.205244 1038.562899 L558.808311 1023.633357 L558.518248 1029.892125 Z" fill="#888" fill-opacity="0.18" stroke="#000" stroke-width="1"/>
  <path d="M533.782889 191.466285 L517.556156 163.214138 L523.771533 162.423308 L506.934388 139.301627 L516.878990 138.036301 L488.854168 116.338112 L516.201824 112.858464 L513.671171 92.969260 L528.588074 91.071269 L531.118727 110.960474 L558.466383 107.480825 L536.768194 135.505647 L546.712797 134.240321 L536.202285 160.841650 L542.417662 160.050821 Z" fill="#888" fill-opacity="0.18" stroke="#000" stroke-width="1"/>
  <path d="M347.639694 127.586153 L322.744228 148.602969 L320.854813 142.629157 L301.116280 163.329203 L298.093216 153.771104 L281.755631 185.224011 L273.442204 158.939240 L254.326007 164.985368 L249.791411 150.648221 L268.907608 144.602092 L260.594182 118.317322 L292.047088 134.654908 L289.024024 125.096809 L317.075983 130.681534 L315.186568 124.707723 Z" fill="#888" fill-opacity="0.18" stroke="#000" stroke-width="1"/>
  <path d="M729.084908 279.652256 L738.307769 248.404384 L743.172565 252.352811 L748.263725 224.207089 L756.047398 230.524573 L752.381926 195.271682 L773.787026 212.644763 L786.421994 197.077418 L798.097502 206.553644 L785.462534 222.120989 L806.867634 239.494070 L771.614743 243.159541 L779.398415 249.477025 L752.902155 260.249666 L757.766951 264.198094 Z" fill="#888" fill-opacity="0.18" stroke="#000" stroke-width="1"/>
  <path d="M686.064312 848.009908 L657.367330 832.583504 L662.228302 828.630371 L635.721632 817.883372 L643.499188 811.558360 L608.242767 807.927000 L629.631047 790.533216 L616.981022 774.978104 L628.647357 765.490585 L641.297381 781.045698 L662.685661 763.651914 L659.054301 798.908336 L666.831857 792.583323 L671.950248 820.724106 L676.811221 816.770973 Z" fill="#888" fill-opacity="0.18" stroke="#000" stroke-width="1"/>
  <path d="M148.836808 958.751296 L133.150960 930.195300 L139.380268 929.522960 L122.986431 906.084878 L132.953323 905.009134 L105.346732 882.781264 L132.755685 879.822968 L130.604196 859.889184 L145.554534 858.275567 L147.706023 878.209351 L175.114976 875.251054 L152.887107 902.857645 L162.853999 901.781901 L151.838883 928.178279 L158.068190 927.505939 Z" fill="#888" fill-opacity="0.18" stroke="#000" stroke-width="1"/>
</svg>
