<?xml version="1.0" encoding="UTF-8"?>
<svg xmlns="http://www.w3.org/2000/svg" width="1100" height="1100" viewBox="0 0 1100 1100">
  <rect x="0" y="0" width="1100" height="1100" fill="white"/>
  <text x="10.0" y="18.0" font-family="monospace" font-size="12">prefix=N13_job5048410_task13 run_id=13 L=2.6517220648 feas=0.000e+00 N=13</text>
  <rect x="40.000000" y="40.000000" width="1020.000000" height="1020.000000" fill="none" stroke="#000" stroke-width="2"/>
  <path d="M633.851621 200.796858 L514.754102 238.797601 L516.817396 214.845324 L416.469040 259.287157 L419.770310 220.963514 L315.708024 308.519446 L324.786519 203.129426 L248.139231 196.526885 L253.091137 139.041419 L329.738425 145.643960 L338.816919 40.253940 L426.372851 144.316226 L429.674122 105.992582 L520.943984 166.940769 L523.007278 142.988492 Z" fill="#888" fill-opacity="0.18" stroke="#000" stroke-width="1"/>
  <path d="M1017.085317 699.633550 L894.673171 725.001679 L899.224106 701.395372 L794.786819 735.125510 L802.068314 697.355418 L689.439344 773.576910 L709.463457 669.709156 L633.923272 655.146166 L644.845515 598.491027 L720.385700 613.054018 L740.409812 509.186264 L816.631305 621.815233 L823.912800 584.045141 L908.325975 654.182756 L912.876909 630.576448 Z" fill="#888" fill-opacity="0.18" stroke="#000" stroke-width="1"/>
  <path d="M653.884127 442.945738 L630.258721 320.185338 L653.797949 325.071390 L621.555856 220.165162 L659.218622 227.982846 L584.605918 114.281724 L688.178522 135.780354 L703.813889 60.454824 L760.308037 72.181349 L744.672670 147.506880 L848.245274 169.005509 L734.544152 243.618213 L772.206917 251.435897 L700.876406 334.843495 L724.415634 339.729547 Z" fill="#888" fill-opacity="0.18" stroke="#000" stroke-width="1"/>
  <path d="M587.230141 639.847636 L665.034884 737.698019 L641.910205 744.272057 L719.080653 822.307889 L682.081167 832.826351 L800.876038 899.028913 L699.127449 927.954683 L720.164373 1001.953656 L664.665143 1017.731349 L643.628219 943.732376 L541.879631 972.658145 L608.082193 853.863274 L571.082707 864.381736 L595.660846 757.420134 L572.536167 763.994173 Z" fill="#888" fill-opacity="0.18" stroke="#000" stroke-width="1"/>
  <path d="M715.844436 429.914311 L770.788218 317.622475 L786.657791 335.681419 L823.980505 232.473453 L849.371821 261.367762 L858.129304 125.653698 L927.955423 205.113049 L985.744042 154.330416 L1023.831016 197.671880 L966.042398 248.454513 L1035.868517 327.913863 L900.154453 319.156381 L925.545770 348.050690 L818.396936 371.799305 L834.266509 389.858249 Z" fill="#888" fill-opacity="0.18" stroke="#000" stroke-width="1"/>
  <path d="M650.510237 579.622638 L547.998982 508.070433 L568.282751 495.165492 L472.038695 442.421289 L504.492724 421.773383 L371.737885 392.258075 L460.986466 335.476333 L419.690654 270.568274 L468.371698 239.596415 L509.667510 304.504473 L598.916091 247.722731 L569.400783 380.477570 L601.854812 359.829664 L608.850287 469.355609 L629.134056 456.450667 Z" fill="#888" fill-opacity="0.18" stroke="#000" stroke-width="1"/>
  <path d="M721.468735 1050.263332 L771.580698 935.733568 L788.204919 953.100319 L821.098636 848.396582 L847.697390 876.183384 L850.667510 740.219495 L923.814083 816.633200 L979.387686 763.435692 L1019.285817 805.115895 L963.712214 858.313402 L1036.858787 934.727107 L900.894898 931.756987 L927.493652 959.543789 L821.453361 987.833821 L838.077582 1005.200572 Z" fill="#888" fill-opacity="0.18" stroke="#000" stroke-width="1"/>
  <path d="M417.551925 531.571289 L302.947789 481.629647 L320.289806 464.979626 L215.537284 432.241602 L243.284512 405.601568 L107.316358 402.833582 L183.621235 329.573490 L130.341168 274.079033 L171.962010 234.118983 L225.242077 289.613439 L301.546954 216.353347 L298.778968 352.321501 L326.526196 325.681467 L354.973841 431.679584 L372.315859 415.029563 Z" fill="#888" fill-opacity="0.18" stroke="#000" stroke-width="1"/>
  <path d="M48.162606 458.661552 L169.836402 487.362824 L155.741960 506.838847 L264.653825 520.369361 L242.102719 551.530999 L376.384579 530.004671 L314.369037 615.699174 L376.692312 660.801387 L342.865652 707.543843 L280.542377 662.441631 L218.526835 748.136134 L197.000507 613.854274 L174.449400 645.015912 L127.553077 545.790894 L113.458636 565.266918 Z" fill="#888" fill-opacity="0.18" stroke="#000" stroke-width="1"/>
  <path d="M114.129621 596.070639 L184.156290 699.630000 L160.593484 704.401054 L231.515870 788.155960 L193.815381 795.789645 L307.150818 870.956655 L203.474473 891.949290 L218.741844 967.350269 L162.191110 978.800797 L146.923738 903.399818 L43.247393 924.392453 L118.414402 811.057016 L80.713913 818.690702 L113.467872 713.943161 L89.905066 718.714214 Z" fill="#888" fill-opacity="0.18" stroke="#000" stroke-width="1"/>
  <path d="M574.639682 1052.189337 L455.592331 1014.031721 L471.171149 995.721364 L363.656320 973.688875 L388.582430 944.392303 L253.025726 955.318457 L321.572529 874.752885 L262.979386 824.900665 L300.368551 780.955808 L358.961694 830.808028 L427.508496 750.242457 L438.434650 885.799160 L463.360760 856.502589 L502.328787 959.100650 L517.907606 940.790293 Z" fill="#888" fill-opacity="0.18" stroke="#000" stroke-width="1"/>
  <path d="M492.609634 891.559317 L444.594571 776.134756 L468.635548 776.148691 L415.801140 679.954125 L454.266704 679.976422 L358.158538 583.756771 L463.938837 583.818088 L463.983431 506.886961 L521.681776 506.920407 L521.637182 583.851533 L627.417481 583.912850 L531.197830 680.021016 L569.663394 680.043313 L516.717502 776.176563 L540.758479 776.190498 Z" fill="#888" fill-opacity="0.18" stroke="#000" stroke-width="1"/>
  <path d="M664.527842 476.741830 L779.333322 427.264792 L779.624699 451.304007 L875.140531 397.252227 L875.606734 435.714971 L970.598089 338.392604 L971.880146 444.165151 L1048.805635 443.232746 L1049.504938 500.926863 L972.579450 501.859268 L973.861507 607.631815 L876.539139 512.640460 L877.005342 551.103205 L780.207452 499.382437 L780.498829 523.421653 Z" fill="#888" fill-opacity="0.18" stroke="#000" stroke-width="1"/>
</svg>
