<?xml version="1.0" encoding="UTF-8"?>
<svg xmlns="http://www.w3.org/2000/svg" width="1100" height="1100" viewBox="0 0 1100 1100">
  <rect x="0" y="0" width="1100" height="1100" fill="white"/>
  <text x="10.0" y="18.0" font-family="monospace" font-size="12">prefix=N141_job5048543_task141 run_id=141 L=10.6294054067 feas=0.000e+00 N=141</text>
  <rect x="40.000000" y="40.000000" width="1020.000000" height="1020.000000" fill="none" stroke="#000" stroke-width="2"/>
  <path d="M432.865353 984.012789 L447.207804 956.319335 L451.062970 960.913665 L460.958924 935.385478 L467.127189 942.736405 L470.083846 908.938425 L487.046574 929.153475 L501.748429 916.816946 L511.000826 927.843337 L496.298971 940.179866 L513.261699 960.394917 L479.463718 957.438260 L485.631983 964.789188 L458.773301 970.102324 L462.628466 974.696654 Z" fill="#888" fill-opacity="0.18" stroke="#000" stroke-width="1"/>
  <path d="M538.255231 888.376184 L566.913413 876.074075 L566.977531 882.071246 L590.825153 868.620997 L590.927742 878.216470 L614.659951 853.971315 L614.942072 880.358865 L634.133017 880.153686 L634.286901 894.546895 L615.095956 894.752074 L615.378076 921.139624 L591.132921 897.407416 L591.235510 907.002889 L567.105768 894.065587 L567.169886 900.062757 Z" fill="#888" fill-opacity="0.18" stroke="#000" stroke-width="1"/>
  <path d="M848.273792 281.111022 L872.230960 301.078180 L866.914514 303.854071 L889.714258 319.012894 L881.207945 323.454319 L913.577292 333.616539 L890.184930 345.830459 L899.067781 362.843085 L886.308311 369.505223 L877.425460 352.492597 L854.033099 364.706516 L864.195319 332.337170 L855.689006 336.778595 L856.281623 309.405852 L850.965177 312.181743 Z" fill="#888" fill-opacity="0.18" stroke="#000" stroke-width="1"/>
  <path d="M1015.736073 584.562647 L1007.514419 614.646491 L1002.782202 610.961889 L998.454672 637.996880 L990.883125 632.101518 L995.073586 665.768792 L974.251832 649.556544 L962.461107 664.699638 L951.103786 655.856594 L962.894511 640.713500 L942.072757 624.501253 L975.740031 620.310792 L968.168484 614.415430 L993.317768 603.592686 L988.585551 599.908084 Z" fill="#888" fill-opacity="0.18" stroke="#000" stroke-width="1"/>
  <path d="M784.373884 58.764907 L762.389344 80.885333 L760.088716 75.346626 L742.995268 96.734292 L739.314264 87.872360 L726.361944 119.229699 L716.239183 94.859387 L698.515320 102.221395 L692.993814 88.928497 L710.717677 81.566489 L700.594917 57.196177 L731.952256 70.148497 L728.271252 61.286565 L755.487461 64.269211 L753.186834 58.730504 Z" fill="#888" fill-opacity="0.18" stroke="#000" stroke-width="1"/>
  <path d="M947.551962 40.022281 L953.021139 70.726049 L947.166241 69.425920 L954.846500 95.705796 L945.478664 93.625589 L963.697739 122.245697 L937.936188 116.525130 L933.775776 135.260803 L919.724020 132.140493 L923.884433 113.404820 L898.122882 107.684252 L926.742990 89.465177 L917.375154 87.384970 L935.456445 66.825662 L929.601547 65.525533 Z" fill="#888" fill-opacity="0.18" stroke="#000" stroke-width="1"/>
  <path d="M285.928318 209.524579 L315.484633 219.477344 L311.531752 223.987875 L338.270218 229.876229 L331.945608 237.093080 L365.799260 234.862475 L348.406584 254.708816 L362.840286 267.358035 L353.353372 278.183311 L338.919670 265.534093 L321.526994 285.380433 L319.296390 251.526782 L312.971780 258.743633 L303.625990 233.008939 L299.673110 237.519471 Z" fill="#888" fill-opacity="0.18" stroke="#000" stroke-width="1"/>
  <path d="M618.372180 77.619109 L640.253497 99.841647 L634.690228 102.082226 L655.891736 119.406032 L646.990504 122.990958 L678.205899 136.281723 L653.727512 146.140269 L660.897364 163.942733 L647.545516 169.320122 L640.375664 151.517658 L615.897276 161.376205 L629.188041 130.160810 L620.286809 133.745736 L623.563688 106.563383 L618.000418 108.803962 Z" fill="#888" fill-opacity="0.18" stroke="#000" stroke-width="1"/>
  <path d="M552.103878 327.245616 L579.307194 342.497266 L574.587721 346.198176 L599.774204 356.934066 L592.223047 362.855523 L625.904582 366.929773 L605.138900 383.213779 L616.981814 398.316093 L605.655078 407.198279 L593.812164 392.095965 L573.046483 408.379971 L577.120733 374.698436 L569.569576 380.619893 L565.148775 353.599997 L560.429302 357.300908 Z" fill="#888" fill-opacity="0.18" stroke="#000" stroke-width="1"/>
  <path d="M846.512620 262.607015 L844.924312 293.753613 L839.512809 291.167922 L841.075354 318.502456 L832.416949 314.365351 L843.720200 346.354127 L819.909585 334.977088 L811.635375 352.293899 L798.647767 346.088242 L806.921976 328.771431 L783.111361 317.394392 L815.100138 306.091141 L806.441732 301.954036 L828.689802 285.996541 L823.278299 283.410851 Z" fill="#888" fill-opacity="0.18" stroke="#000" stroke-width="1"/>
  <path d="M750.596604 496.953416 L767.862366 522.925069 L761.974960 524.069017 L779.503045 545.101955 L770.083195 546.932272 L798.208611 565.906104 L772.304025 570.939475 L775.964658 589.779174 L761.834884 592.524649 L758.174250 573.684950 L732.269664 578.718320 L751.243496 550.592905 L741.823647 552.423222 L750.200148 526.356913 L744.312742 527.500860 Z" fill="#888" fill-opacity="0.18" stroke="#000" stroke-width="1"/>
  <path d="M396.677751 839.300259 L407.379945 868.593540 L401.388372 868.326675 L413.502373 892.880071 L403.915856 892.453087 L426.814689 917.486839 L400.451767 916.312633 L399.597799 935.485667 L385.218024 934.845191 L386.071992 915.672157 L359.709070 914.497952 L384.742822 891.599119 L375.156305 891.172135 L389.405226 867.792945 L383.413653 867.526080 Z" fill="#888" fill-opacity="0.18" stroke="#000" stroke-width="1"/>
  <path d="M87.956932 1051.721563 L104.177577 1025.084672 L107.706267 1029.934261 L119.341503 1005.150404 L124.987407 1012.909746 L130.271000 979.396630 L145.797238 1000.734820 L161.315922 989.443011 L169.784778 1001.082024 L154.266095 1012.373833 L169.792332 1033.712023 L136.279216 1028.428430 L141.925121 1036.187771 L114.763648 1039.633438 L118.292338 1044.483027 Z" fill="#888" fill-opacity="0.18" stroke="#000" stroke-width="1"/>
  <path d="M980.387284 396.905772 L968.106468 425.573085 L963.925940 421.272695 L955.921542 447.455664 L949.232697 440.575040 L948.753249 474.498711 L930.358927 455.576996 L916.597679 468.954685 L906.564413 458.633749 L920.325660 445.256060 L901.931338 426.334345 L935.855008 426.813793 L929.166164 419.933169 L955.564885 412.671916 L951.384357 408.371526 Z" fill="#888" fill-opacity="0.18" stroke="#000" stroke-width="1"/>
  <path d="M953.281506 762.433405 L951.518356 793.570595 L946.121455 790.954563 L947.530510 818.297438 L938.895468 814.111787 L950.018946 846.163519 L926.272581 834.652979 L917.901279 851.923063 L904.948716 845.644587 L913.320018 828.374503 L889.573652 816.863963 L921.625384 805.740485 L912.990342 801.554834 L935.327652 785.722499 L929.930751 783.106467 Z" fill="#888" fill-opacity="0.18" stroke="#000" stroke-width="1"/>
  <path d="M244.121482 157.879162 L261.213871 131.793082 L264.580306 136.756678 L277.028531 112.371028 L282.414827 120.312781 L288.803470 86.992658 L303.615784 108.832479 L319.499289 98.059887 L327.578733 109.972516 L311.695228 120.745108 L326.507542 142.584929 L293.187419 136.196286 L298.573715 144.138039 L271.313176 146.683869 L274.679611 151.647465 Z" fill="#888" fill-opacity="0.18" stroke="#000" stroke-width="1"/>
  <path d="M349.055686 116.741577 L356.236997 147.090581 L350.318438 146.120621 L359.459429 171.928770 L349.989734 170.376834 L369.784131 197.930910 L343.742471 193.663087 L340.638599 212.602476 L326.434057 210.274572 L329.537929 191.335183 L303.496268 187.067359 L331.050344 167.272962 L321.580650 165.721026 L338.481320 144.180701 L332.562760 143.210741 Z" fill="#888" fill-opacity="0.18" stroke="#000" stroke-width="1"/>
  <path d="M238.784883 766.865246 L236.083365 797.935088 L230.767825 795.157463 L231.351515 822.530398 L222.846651 818.086199 L232.998313 850.458858 L209.609936 838.237309 L200.721537 855.247038 L187.964241 848.580738 L196.852640 831.571010 L173.464263 819.349462 L205.836922 809.197800 L197.332058 804.753600 L220.136745 789.602214 L214.821205 786.824589 Z" fill="#888" fill-opacity="0.18" stroke="#000" stroke-width="1"/>
  <path d="M531.514539 543.869955 L505.172493 560.565161 L504.157224 554.654205 L482.746996 571.719386 L481.122564 562.261858 L461.539822 589.966758 L457.072635 563.958554 L438.157578 567.207418 L435.720930 553.021125 L454.635988 549.772262 L450.168801 523.764058 L477.873701 543.346800 L476.249269 533.889272 L502.126684 542.832295 L501.111414 536.921339 Z" fill="#888" fill-opacity="0.18" stroke="#000" stroke-width="1"/>
  <path d="M976.650009 440.366306 L1004.137159 455.100277 L999.488588 458.889862 L1024.873783 469.147059 L1017.436070 475.210395 L1051.188693 478.646339 L1030.734981 495.320512 L1042.861652 510.195939 L1031.705082 519.290943 L1019.578410 504.415516 L999.124698 521.089690 L1002.560643 487.337066 L995.122929 493.400402 L990.191446 466.469031 L985.542875 470.258616 Z" fill="#888" fill-opacity="0.18" stroke="#000" stroke-width="1"/>
  <path d="M471.949755 174.939210 L462.811482 145.121006 L468.780562 145.704316 L457.981825 120.544715 L467.532353 121.478011 L445.989272 95.268452 L472.253224 97.835015 L474.119815 78.733959 L488.445607 80.133902 L486.579016 99.234958 L512.842967 101.801521 L486.633409 123.344602 L496.183937 124.277897 L480.718722 146.870936 L486.687802 147.454245 Z" fill="#888" fill-opacity="0.18" stroke="#000" stroke-width="1"/>
  <path d="M186.926848 1018.453093 L214.439786 1003.767334 L215.011745 1009.737512 L237.634149 994.315285 L238.549283 1003.867570 L260.142160 977.699021 L262.658779 1003.967805 L281.763350 1002.137537 L283.136051 1016.465965 L264.031481 1018.296233 L266.548100 1044.565018 L240.379551 1022.972140 L241.294685 1032.524425 L216.155663 1021.677869 L216.727622 1027.648047 Z" fill="#888" fill-opacity="0.18" stroke="#000" stroke-width="1"/>
  <path d="M792.199156 1014.174346 L800.110038 984.007291 L804.880012 987.642881 L808.928428 960.564687 L816.560387 966.381630 L812.022849 932.759375 L833.010735 948.755970 L844.644623 933.492053 L856.092560 942.217468 L844.458673 957.481385 L865.446559 973.477980 L831.824304 978.015518 L839.456262 983.832461 L814.419960 994.914060 L819.189934 998.549650 Z" fill="#888" fill-opacity="0.18" stroke="#000" stroke-width="1"/>
  <path d="M41.640165 658.635654 L50.395267 628.702705 L55.061242 632.470841 L59.868641 605.517044 L67.334200 611.546061 L63.742845 577.809620 L84.273133 594.389417 L96.331167 579.458299 L107.529506 588.501825 L95.471472 603.432943 L116.001760 620.012740 L82.265319 623.604096 L89.730878 629.633113 L64.393191 640.007112 L69.059166 643.775248 Z" fill="#888" fill-opacity="0.18" stroke="#000" stroke-width="1"/>
  <path d="M194.948241 264.195439 L206.770442 235.335973 L211.019001 239.569164 L218.604938 213.261906 L225.402632 220.035013 L225.341162 186.108010 L244.034822 204.734053 L257.581036 191.138664 L267.777577 201.298324 L254.231364 214.893713 L272.925024 233.519756 L238.998021 233.581226 L245.795716 240.354333 L219.516119 248.035548 L223.764678 252.268739 Z" fill="#888" fill-opacity="0.18" stroke="#000" stroke-width="1"/>
  <path d="M314.623632 48.486803 L295.426200 73.065083 L292.483120 67.839335 L278.054903 91.108302 L273.345975 82.747104 L264.215302 115.422418 L251.265750 92.429125 L234.543355 101.846981 L227.479963 89.305185 L244.202357 79.887329 L231.252805 56.894037 L263.928119 66.024710 L259.219191 57.663512 L286.596960 57.387838 L283.653880 52.162090 Z" fill="#888" fill-opacity="0.18" stroke="#000" stroke-width="1"/>
  <path d="M640.203880 501.046349 L612.103406 514.573974 L611.780490 508.585160 L588.535650 523.052214 L588.018984 513.470112 L565.355393 538.717031 L563.934563 512.366251 L544.770359 513.399582 L543.995360 499.026429 L563.159565 497.993098 L561.738734 471.642317 L586.985653 494.305908 L586.468988 484.723806 L611.134658 496.607532 L610.811742 490.618719 Z" fill="#888" fill-opacity="0.18" stroke="#000" stroke-width="1"/>
  <path d="M49.924447 912.155814 L80.732846 917.000999 L77.594026 922.111574 L104.941729 923.423589 L99.919617 931.600509 L132.917196 923.713489 L119.106389 946.200018 L135.460228 956.244242 L127.927061 968.509621 L111.573221 958.465398 L97.762414 980.951927 L89.875394 947.954348 L84.853282 956.131268 L71.316386 932.332724 L68.177566 937.443299 Z" fill="#888" fill-opacity="0.18" stroke="#000" stroke-width="1"/>
  <path d="M148.695829 312.014982 L140.748971 342.172580 L135.983337 338.531304 L131.902627 365.604650 L124.277612 359.778607 L128.775044 393.406251 L107.806253 377.384635 L96.154168 392.634665 L84.716646 383.895602 L96.368730 368.645571 L75.399939 352.623955 L109.027582 348.126523 L101.402567 342.300481 L126.452068 331.248751 L121.686434 327.607475 Z" fill="#888" fill-opacity="0.18" stroke="#000" stroke-width="1"/>
  <path d="M1049.003756 122.850355 L1019.897896 111.648473 L1024.039196 107.310294 L997.575618 100.289088 L1004.201698 93.348001 L970.283781 94.135519 L988.505501 75.047530 L974.623327 61.795370 L984.562447 51.383739 L998.444621 64.635899 L1016.666341 45.547910 L1017.453858 79.465828 L1024.079938 72.524741 L1032.321796 98.633935 L1036.463096 94.295756 Z" fill="#888" fill-opacity="0.18" stroke="#000" stroke-width="1"/>
  <path d="M858.621653 730.103412 L859.164609 698.921070 L864.659777 701.323839 L862.181485 674.057077 L870.973753 677.901507 L858.604159 646.309761 L882.782896 656.881945 L890.471758 639.297409 L903.660160 645.064055 L895.971298 662.648591 L920.150036 673.220775 L888.558289 685.590369 L897.350557 689.434799 L875.650112 706.129377 L881.145280 708.532146 Z" fill="#888" fill-opacity="0.18" stroke="#000" stroke-width="1"/>
  <path d="M149.121832 899.424649 L170.169010 922.438766 L164.526920 924.472724 L185.075349 942.566377 L176.048005 945.820710 L206.752196 960.253239 L181.927000 969.202653 L188.435665 987.257342 L174.894648 992.138840 L168.385983 974.084152 L143.560787 983.033566 L157.993316 952.329375 L148.965972 955.583707 L153.242739 928.540639 L147.600649 930.574597 Z" fill="#888" fill-opacity="0.18" stroke="#000" stroke-width="1"/>
  <path d="M264.333394 116.668525 L237.745943 132.970081 L236.818703 127.044679 L215.157022 143.789523 L213.673438 134.308879 L193.680788 161.719447 L189.600933 135.647677 L170.639646 138.614845 L168.414271 124.393879 L187.375558 121.426712 L183.295703 95.354942 L210.706271 115.347592 L209.222687 105.866948 L234.964224 115.193874 L234.036984 109.268472 Z" fill="#888" fill-opacity="0.18" stroke="#000" stroke-width="1"/>
  <path d="M708.077956 257.158071 L709.897021 226.024098 L715.289215 228.649818 L713.929265 201.304456 L722.556777 205.505608 L711.490877 173.433951 L735.216533 184.987117 L743.618835 167.732095 L756.560102 174.033821 L748.157800 191.288844 L771.883456 202.842010 L739.811799 213.907910 L748.439311 218.109061 L726.073604 233.901257 L731.465799 236.526976 Z" fill="#888" fill-opacity="0.18" stroke="#000" stroke-width="1"/>
  <path d="M535.635158 807.246087 L566.744464 805.045100 L564.834188 810.730257 L591.777423 805.864017 L588.720981 814.960268 L619.102715 799.860746 L610.697498 824.875436 L628.890001 830.988321 L624.305337 844.632697 L606.112835 838.519813 L597.707619 863.534504 L582.608097 833.152770 L579.551655 842.249021 L561.013635 822.100571 L559.103358 827.785728 Z" fill="#888" fill-opacity="0.18" stroke="#000" stroke-width="1"/>
  <path d="M421.266820 547.745043 L391.793346 557.940513 L392.163490 551.954433 L367.404852 563.643234 L367.997082 554.065506 L342.572185 576.529252 L344.200818 550.190498 L325.045361 549.006038 L325.933706 534.639445 L345.089163 535.823905 L346.717796 509.485151 L369.181543 534.910048 L369.773773 525.332320 L392.903778 539.982272 L393.273922 533.996192 Z" fill="#888" fill-opacity="0.18" stroke="#000" stroke-width="1"/>
  <path d="M304.437614 745.876056 L328.173806 725.646710 L330.009179 731.356489 L348.810474 711.453485 L351.747070 720.589131 L367.244695 690.408526 L375.320334 715.531552 L393.591626 709.658360 L397.996520 723.361829 L379.725228 729.235021 L387.800868 754.358047 L357.620263 738.860423 L360.556859 747.996069 L333.679924 742.776046 L335.515297 748.485825 Z" fill="#888" fill-opacity="0.18" stroke="#000" stroke-width="1"/>
  <path d="M453.274434 182.056986 L433.077959 205.821154 L430.353290 200.478276 L414.976051 223.131284 L410.616580 214.582679 L400.143745 246.852867 L388.155201 223.344205 L371.057992 232.063146 L364.518786 219.240239 L381.615995 210.521298 L369.627451 187.012636 L401.897639 197.485470 L397.538168 188.936866 L424.903951 189.792520 L422.179282 184.449642 Z" fill="#888" fill-opacity="0.18" stroke="#000" stroke-width="1"/>
  <path d="M167.188942 677.812872 L141.724997 695.819004 L140.412070 689.966963 L119.892343 708.093161 L117.791660 698.729895 L99.635202 727.389768 L93.858324 701.640786 L75.131792 705.842152 L71.980767 691.797253 L90.707299 687.595887 L84.930421 661.846905 L113.590294 680.003363 L111.489611 670.640096 L137.786216 678.262880 L136.473289 672.410839 Z" fill="#888" fill-opacity="0.18" stroke="#000" stroke-width="1"/>
  <path d="M405.293371 41.073899 L388.008203 67.032640 L384.678631 62.044242 L372.050096 86.337005 L366.722781 78.355568 L360.087475 111.627448 L345.437359 89.678496 L329.474485 100.333125 L321.483513 88.360969 L337.446387 77.706340 L322.796271 55.757387 L356.068152 62.392693 L350.740837 54.411256 L378.019488 52.067445 L374.689916 47.079047 Z" fill="#888" fill-opacity="0.18" stroke="#000" stroke-width="1"/>
  <path d="M724.399112 834.056391 L695.146865 823.242542 L699.230111 818.849676 L672.675508 812.180997 L679.208702 805.152412 L645.304255 806.390890 L663.270538 787.062282 L649.213368 773.995894 L659.013158 763.453017 L673.070328 776.519404 L691.036610 757.190796 L692.275089 791.095242 L698.808282 784.066657 L707.396603 810.063945 L711.479849 805.671079 Z" fill="#888" fill-opacity="0.18" stroke="#000" stroke-width="1"/>
  <path d="M237.321219 870.875017 L251.343874 898.731764 L245.361711 899.160583 L260.237745 922.145836 L250.666283 922.831946 L276.310211 945.045326 L249.988691 946.932127 L251.360911 966.075050 L237.003718 967.104215 L235.631499 947.961292 L209.309980 949.848093 L231.523360 924.204165 L221.951898 924.890274 L233.397384 900.018220 L227.415220 900.447038 Z" fill="#888" fill-opacity="0.18" stroke="#000" stroke-width="1"/>
  <path d="M432.410244 814.226832 L451.769166 838.678119 L445.996828 840.306087 L465.207843 859.813909 L455.972103 862.418658 L485.573326 878.996138 L460.175039 886.159197 L465.384537 904.630678 L451.530926 908.537802 L446.321428 890.066320 L420.923141 897.229379 L437.500621 867.628155 L428.264880 870.232904 L434.452152 843.562023 L428.679814 845.189991 Z" fill="#888" fill-opacity="0.18" stroke="#000" stroke-width="1"/>
  <path d="M588.909356 1052.455179 L609.459182 1028.995897 L612.103594 1034.378949 L627.818096 1011.958585 L632.049155 1020.571469 L643.003715 988.461612 L654.639128 1012.147041 L671.864895 1003.684922 L678.211484 1016.604247 L660.985718 1025.066366 L672.621131 1048.751795 L640.511274 1037.797235 L644.742334 1046.410119 L617.392418 1045.145053 L620.036831 1050.528105 Z" fill="#888" fill-opacity="0.18" stroke="#000" stroke-width="1"/>
  <path d="M594.489000 463.536946 L563.835840 469.282990 L565.083078 463.416598 L538.873584 471.333711 L540.869164 461.947482 L512.414642 480.424102 L517.902488 454.611974 L499.130032 450.620813 L502.123402 436.541471 L520.895859 440.532632 L526.383705 414.720504 L544.860325 443.175026 L546.855905 433.788797 L567.577553 451.683812 L568.824791 445.817420 Z" fill="#888" fill-opacity="0.18" stroke="#000" stroke-width="1"/>
  <path d="M615.940499 169.410465 L587.580065 156.436681 L591.980769 152.361884 L566.000032 143.723623 L573.041158 137.203947 L539.139154 135.900321 L558.502251 117.971214 L545.462900 103.888962 L556.024589 94.109448 L569.063940 108.191700 L588.427036 90.262593 L587.123410 124.164596 L594.164536 117.644921 L600.782177 144.212290 L605.182880 140.137492 Z" fill="#888" fill-opacity="0.18" stroke="#000" stroke-width="1"/>
  <path d="M216.715631 313.069733 L231.779868 285.762188 L235.513142 290.456102 L246.075593 265.196393 L252.048833 272.706655 L255.891389 238.997902 L272.317797 259.651123 L287.338322 247.704644 L296.298180 258.970037 L281.277656 270.916516 L297.704064 291.569736 L263.995311 287.727179 L269.968550 295.237441 L242.979691 299.843929 L246.712966 304.537843 Z" fill="#888" fill-opacity="0.18" stroke="#000" stroke-width="1"/>
  <path d="M576.854161 161.593940 L603.872825 177.170367 L599.109357 180.814477 L624.165426 191.851307 L616.543878 197.681883 L650.174190 202.159315 L629.214930 218.193399 L640.876082 233.436497 L629.443759 242.182361 L617.782607 226.939263 L596.823348 242.973347 L601.300780 209.343035 L593.679231 215.173611 L589.582421 188.102697 L584.818953 191.746807 Z" fill="#888" fill-opacity="0.18" stroke="#000" stroke-width="1"/>
  <path d="M808.217509 412.844484 L779.127079 401.602589 L783.274341 397.270109 L756.820444 390.212519 L763.456062 383.280551 L729.537094 384.021426 L747.785045 364.958512 L733.921107 351.687275 L743.874535 341.289322 L757.738473 354.560559 L775.986424 335.497645 L776.727299 369.416613 L783.362918 362.484645 L791.568864 388.605148 L795.716126 384.272667 Z" fill="#888" fill-opacity="0.18" stroke="#000" stroke-width="1"/>
  <path d="M269.499137 291.844691 L300.654614 293.248074 L298.101094 298.674832 L325.425869 296.950047 L321.340237 305.632859 L353.261349 294.139910 L342.025859 318.017644 L359.391483 326.188910 L353.263034 339.213128 L335.897410 331.041862 L324.661920 354.919596 L313.168971 322.998483 L309.083338 331.681296 L292.994053 309.528347 L290.440532 314.955105 Z" fill="#888" fill-opacity="0.18" stroke="#000" stroke-width="1"/>
  <path d="M372.207697 953.589738 L389.592217 979.482048 L383.710112 980.652946 L401.334335 1001.605392 L391.922966 1003.478829 L420.134979 1022.323659 L394.253716 1027.475609 L398.000589 1046.298347 L383.883536 1049.108501 L380.136663 1030.285764 L354.255399 1035.437715 L373.100229 1007.225702 L363.688861 1009.099138 L371.945901 982.994742 L366.063796 984.165639 Z" fill="#888" fill-opacity="0.18" stroke="#000" stroke-width="1"/>
  <path d="M854.168118 900.566355 L825.563443 888.140340 L829.884975 883.981671 L803.742929 875.844615 L810.657380 869.190745 L776.736576 868.539294 L795.751317 850.241150 L782.443576 836.412248 L792.815252 826.431442 L806.122993 840.260344 L825.137733 821.962201 L824.486282 855.883004 L831.400733 849.229134 L838.528039 875.664333 L842.849571 871.505664 Z" fill="#888" fill-opacity="0.18" stroke="#000" stroke-width="1"/>
  <path d="M1013.516083 961.326993 L985.933787 946.771918 L990.557639 942.952211 L965.106338 932.860159 L972.504501 926.748628 L938.730266 923.532048 L959.075214 906.725338 L946.852152 891.929012 L957.949397 882.761716 L970.172459 897.558042 L990.517406 880.751332 L987.300826 914.525566 L994.698989 908.414036 L999.805342 935.312798 L1004.429194 931.493091 Z" fill="#888" fill-opacity="0.18" stroke="#000" stroke-width="1"/>
  <path d="M174.313059 459.649213 L189.182089 432.234888 L192.948757 436.902047 L203.330726 411.567625 L209.357395 419.035080 L212.959362 385.299770 L229.532701 405.835273 L244.467611 393.781936 L253.507614 404.983119 L238.572703 417.036456 L255.146042 437.571958 L221.410732 433.969991 L227.437401 441.437446 L200.482093 446.236367 L204.248761 450.903526 Z" fill="#888" fill-opacity="0.18" stroke="#000" stroke-width="1"/>
  <path d="M334.202541 775.287260 L354.264521 799.165079 L348.541981 800.960266 L368.312319 819.901015 L359.156255 822.773315 L389.227166 838.482726 L364.047988 846.381551 L369.792588 864.693680 L356.058491 869.002130 L350.313892 850.690001 L325.134714 858.588826 L340.844126 828.517915 L331.688061 831.390214 L337.096900 804.550641 L331.374360 806.345828 Z" fill="#888" fill-opacity="0.18" stroke="#000" stroke-width="1"/>
  <path d="M691.581953 715.067801 L672.938660 740.069019 L669.879516 734.910356 L655.974982 758.495992 L651.080351 750.242131 L642.682277 783.113359 L629.222042 760.415243 L612.714321 770.204505 L605.372375 757.823714 L621.880096 748.034452 L608.419861 725.336336 L641.291090 733.734410 L636.396459 725.480550 L663.761227 724.593031 L660.702083 719.434368 Z" fill="#888" fill-opacity="0.18" stroke="#000" stroke-width="1"/>
  <path d="M258.371563 544.010008 L227.691471 549.610474 L228.966543 543.750068 L202.719761 551.542673 L204.759876 542.166024 L176.217965 560.507359 L181.828282 534.721573 L163.074983 530.641343 L166.135156 516.576369 L184.888455 520.656599 L190.498772 494.870814 L208.840107 523.412725 L210.880222 514.036076 L231.516687 532.029257 L232.791759 526.168851 Z" fill="#888" fill-opacity="0.18" stroke="#000" stroke-width="1"/>
  <path d="M553.237843 828.677082 L544.551851 858.630159 L539.877192 854.872802 L535.132017 881.837623 L527.652562 875.825853 L531.321774 909.553915 L510.753273 893.021548 L498.729733 907.980457 L487.510551 898.962802 L499.534091 884.003892 L478.965591 867.471525 L512.693653 863.802313 L505.214198 857.790543 L530.527874 847.358090 L525.853214 843.600734 Z" fill="#888" fill-opacity="0.18" stroke="#000" stroke-width="1"/>
  <path d="M567.662478 564.885147 L591.734187 545.056227 L593.473662 550.795948 L612.605700 531.210663 L615.388860 540.394216 L631.389843 510.477435 L639.043532 535.732206 L657.410638 530.165886 L661.585378 543.941216 L643.218272 549.507535 L650.871961 574.762306 L620.955179 558.761322 L623.738339 567.944875 L596.952612 562.275389 L598.692086 568.015110 Z" fill="#888" fill-opacity="0.18" stroke="#000" stroke-width="1"/>
  <path d="M524.818528 558.854321 L548.608174 579.020778 L543.268741 581.752190 L565.941144 597.100818 L557.398050 601.471078 L589.681434 611.903164 L566.187925 623.921378 L574.928445 641.007566 L562.113804 647.562955 L553.373284 630.476767 L529.879776 642.494981 L540.311862 610.211597 L531.768768 614.581857 L532.589873 587.215015 L527.250440 589.946427 Z" fill="#888" fill-opacity="0.18" stroke="#000" stroke-width="1"/>
  <path d="M490.530132 724.912356 L501.557724 695.740015 L505.920596 699.855293 L512.783390 673.350193 L519.763985 679.934638 L518.773610 646.022038 L537.970246 664.129262 L551.139136 650.168072 L561.610029 660.044740 L548.441139 674.005930 L567.637775 692.113153 L533.725175 693.103528 L540.705770 699.687974 L514.646339 708.085849 L519.009211 712.201127 Z" fill="#888" fill-opacity="0.18" stroke="#000" stroke-width="1"/>
  <path d="M622.981508 995.841768 L598.690305 1015.401184 L597.014906 1009.642434 L577.665784 1029.013281 L574.985145 1019.799280 L558.651741 1049.535877 L551.279985 1024.197377 L532.851985 1029.558654 L528.831027 1015.737654 L547.259027 1010.376376 L539.887271 985.037876 L569.623868 1001.371280 L566.943229 992.157280 L593.664108 998.124933 L591.988709 992.366183 Z" fill="#888" fill-opacity="0.18" stroke="#000" stroke-width="1"/>
  <path d="M593.583816 643.387110 L606.342920 614.929447 L610.450855 619.299234 L618.892543 593.253962 L625.465239 600.245620 L626.512643 566.334734 L644.587559 585.561794 L658.570875 572.416400 L668.429920 582.903888 L654.446603 596.049281 L672.521519 615.276341 L638.610632 614.228937 L645.183329 621.220595 L618.666726 628.038806 L622.774661 632.408593 Z" fill="#888" fill-opacity="0.18" stroke="#000" stroke-width="1"/>
  <path d="M401.919386 259.406353 L423.094265 236.509677 L425.592574 241.962072 L441.905875 219.973565 L445.903170 228.697397 L457.719514 196.894578 L468.712076 220.885117 L486.159741 212.890527 L492.155683 225.976276 L474.708018 233.970866 L485.700580 257.961406 L453.897761 246.145062 L457.895056 254.868895 L430.589193 252.866863 L433.087503 258.319258 Z" fill="#888" fill-opacity="0.18" stroke="#000" stroke-width="1"/>
  <path d="M420.082871 1000.817617 L447.662154 986.256831 L448.207021 992.229543 L470.899160 976.910109 L471.770947 986.466448 L493.482326 960.396133 L495.879741 986.676065 L514.992418 984.932490 L516.300099 999.266998 L497.187422 1001.010573 L499.584837 1027.290504 L473.514522 1005.579126 L474.386309 1015.135464 L449.296755 1004.174967 L449.841622 1010.147678 Z" fill="#888" fill-opacity="0.18" stroke="#000" stroke-width="1"/>
  <path d="M839.410588 374.071586 L848.843785 403.797804 L842.869220 403.273651 L853.916652 428.325048 L844.357348 427.486404 L866.158997 453.481276 L839.870910 451.175003 L838.193621 470.293612 L823.854665 469.035645 L825.531954 449.917037 L799.243867 447.610764 L825.238739 425.809115 L815.679435 424.970470 L830.920090 402.225346 L824.945524 401.701193 Z" fill="#888" fill-opacity="0.18" stroke="#000" stroke-width="1"/>
  <path d="M684.922915 427.948584 L715.927094 424.576022 L714.232565 430.329172 L740.973129 424.450357 L738.261883 433.655397 L768.052599 417.420911 L760.596673 442.734772 L779.006753 448.157264 L774.939884 461.964825 L756.529804 456.542333 L749.073877 481.856194 L732.839391 452.065478 L730.128145 461.270518 L710.843507 441.835473 L709.148979 447.588623 Z" fill="#888" fill-opacity="0.18" stroke="#000" stroke-width="1"/>
  <path d="M860.377611 542.846385 L878.655360 517.576696 L881.789200 522.690327 L895.349276 498.904983 L900.363419 507.086793 L908.282585 474.096914 L922.071477 496.596889 L938.435095 486.568604 L945.956309 498.841317 L929.592691 508.869602 L943.381582 531.369577 L910.391704 523.450411 L915.405846 531.632220 L888.056878 532.917588 L891.190717 538.031219 Z" fill="#888" fill-opacity="0.18" stroke="#000" stroke-width="1"/>
  <path d="M440.864886 329.459944 L439.088660 360.596390 L433.692857 357.978092 L435.090429 385.321556 L426.457146 381.132279 L437.567162 413.188680 L413.825633 401.668168 L405.447079 418.934735 L392.497154 412.650819 L400.875708 395.384253 L377.134178 383.863741 L409.190579 372.753725 L400.557296 368.564448 L422.901253 352.741496 L417.505451 350.123197 Z" fill="#888" fill-opacity="0.18" stroke="#000" stroke-width="1"/>
  <path d="M188.446154 625.705832 L198.180975 655.334644 L192.201391 654.871239 L203.502853 679.809066 L193.935519 679.067617 L216.000232 704.839574 L189.690063 702.800589 L188.207166 721.935257 L173.856165 720.823084 L175.339063 701.688416 L149.028895 699.649432 L174.800851 677.584719 L165.233518 676.843270 L180.242224 653.944428 L174.262640 653.481022 Z" fill="#888" fill-opacity="0.18" stroke="#000" stroke-width="1"/>
  <path d="M902.076546 961.705873 L892.189904 991.284371 L887.670543 987.341587 L881.842000 1014.093154 L874.611023 1007.784700 L876.917329 1041.633278 L857.032143 1024.285028 L844.415234 1038.746982 L833.568769 1029.284300 L846.185678 1014.822347 L826.300491 997.474097 L860.149070 995.167791 L852.918093 988.859336 L878.631822 979.456019 L874.112462 975.513235 Z" fill="#888" fill-opacity="0.18" stroke="#000" stroke-width="1"/>
  <path d="M432.078553 268.431460 L425.063742 298.819380 L420.188283 295.326520 L416.942851 322.512645 L409.142118 316.924069 L414.672511 350.397343 L393.220495 335.028759 L382.043342 350.630225 L370.342242 342.247361 L381.519395 326.645894 L360.067378 311.277310 L393.540651 305.746917 L385.739918 300.158341 L410.437367 288.340800 L405.561908 284.847940 Z" fill="#888" fill-opacity="0.18" stroke="#000" stroke-width="1"/>
  <path d="M837.737256 836.400669 L866.468300 848.531636 L862.189796 852.734561 L888.414202 860.602141 L881.568596 867.326820 L915.494307 867.629136 L896.668892 886.122003 L910.118251 899.813214 L899.849842 909.900233 L886.400484 896.209022 L867.575069 914.701889 L867.877385 880.776178 L861.031780 887.500857 L853.632789 861.140410 L849.354286 865.343334 Z" fill="#888" fill-opacity="0.18" stroke="#000" stroke-width="1"/>
  <path d="M341.236066 358.920640 L320.396402 382.122831 L317.819065 376.707344 L301.827258 398.930763 L297.703519 390.265983 L286.350917 422.237279 L275.010636 398.409136 L257.681077 406.656614 L251.495469 393.659445 L268.825027 385.411967 L257.484745 361.583824 L289.456041 372.936425 L285.332302 364.271645 L312.664391 365.876370 L310.087055 360.460883 Z" fill="#888" fill-opacity="0.18" stroke="#000" stroke-width="1"/>
  <path d="M771.533578 700.270615 L767.255501 669.378362 L773.055759 670.903870 L766.397224 644.346721 L775.677637 646.787534 L758.578638 617.484470 L784.099772 624.196706 L788.981398 605.635881 L802.902016 609.297100 L798.020391 627.857925 L823.541525 634.570160 L794.238462 651.669160 L803.518874 654.109972 L784.656275 673.954886 L790.456533 675.480394 Z" fill="#888" fill-opacity="0.18" stroke="#000" stroke-width="1"/>
  <path d="M654.907422 899.606803 L658.507609 930.585375 L652.742168 928.933147 L658.817226 955.629812 L649.592521 952.986247 L666.045372 982.656922 L640.677433 975.387119 L635.390303 993.836530 L621.553245 989.871183 L626.840375 971.421772 L601.472435 964.151969 L631.143110 947.699117 L621.918405 945.055553 L641.211287 925.628691 L635.445846 923.976463 Z" fill="#888" fill-opacity="0.18" stroke="#000" stroke-width="1"/>
  <path d="M548.482880 222.513922 L524.321156 202.794785 L529.608705 199.964238 L506.653909 185.041249 L515.113986 180.512373 L482.641604 170.684369 L505.906816 158.229961 L496.849065 141.309806 L509.539181 134.516492 L518.596932 151.436647 L541.862145 138.982239 L532.034141 171.454621 L540.494218 166.925746 L540.183801 194.303143 L545.471350 191.472596 Z" fill="#888" fill-opacity="0.18" stroke="#000" stroke-width="1"/>
  <path d="M108.510556 224.425272 L139.425525 228.535984 L136.409203 233.719802 L163.780382 234.380692 L158.954266 242.674800 L191.754826 234.004819 L178.483008 256.813616 L195.071224 266.465848 L187.832051 278.907010 L171.243835 269.254779 L157.972016 292.063576 L149.302035 259.263017 L144.475919 267.557125 L130.376558 244.087437 L127.360236 249.271254 Z" fill="#888" fill-opacity="0.18" stroke="#000" stroke-width="1"/>
  <path d="M352.842188 926.284480 L383.700705 930.799476 L380.616792 935.943370 L407.976977 936.962457 L403.042716 945.192687 L435.953944 936.952765 L422.384726 959.585898 L438.845186 969.454420 L431.443794 981.799766 L414.983334 971.931243 L401.414115 994.564376 L393.174193 961.653148 L388.239932 969.883378 L374.448966 946.231158 L371.365052 951.375052 Z" fill="#888" fill-opacity="0.18" stroke="#000" stroke-width="1"/>
  <path d="M860.857323 556.371404 L830.617210 548.744555 L834.207783 543.940604 L807.092716 540.147004 L812.837633 532.460682 L779.259535 537.314194 L795.058057 516.176808 L779.685413 504.686974 L788.302788 493.157490 L803.675433 504.647325 L819.473955 483.509939 L824.327468 517.088037 L830.072385 509.401715 L841.388930 534.332701 L844.979503 529.528750 Z" fill="#888" fill-opacity="0.18" stroke="#000" stroke-width="1"/>
  <path d="M736.269070 328.544390 L705.129685 330.268325 L707.126870 324.613114 L680.112217 329.065840 L683.307713 320.017501 L652.698127 334.649608 L661.485740 309.766677 L643.389063 303.375685 L648.182307 289.803177 L666.278984 296.194169 L675.066598 271.311238 L689.698704 301.920824 L692.894200 292.872485 L711.121240 313.302690 L713.118425 307.647479 Z" fill="#888" fill-opacity="0.18" stroke="#000" stroke-width="1"/>
  <path d="M309.377280 532.980904 L307.766067 501.835483 L313.414013 503.853124 L309.059098 476.822531 L318.095811 480.050757 L303.574593 449.388410 L328.425554 458.266031 L334.882006 440.192605 L348.437075 445.034945 L341.980623 463.108370 L366.831584 471.985992 L336.169236 486.507209 L345.205949 489.735435 L324.709904 507.888407 L330.357849 509.906048 Z" fill="#888" fill-opacity="0.18" stroke="#000" stroke-width="1"/>
  <path d="M401.057750 681.336589 L374.858469 664.418227 L379.799546 661.018825 L355.331571 648.733205 L363.237293 643.294162 L329.875382 637.127464 L351.616116 622.170097 L340.738031 606.358653 L352.596614 598.200089 L363.474699 614.011533 L385.215434 599.054165 L379.048737 632.416076 L386.954458 626.977034 L389.681698 654.220022 L394.622774 650.820620 Z" fill="#888" fill-opacity="0.18" stroke="#000" stroke-width="1"/>
  <path d="M174.298735 360.195460 L171.582512 391.264019 L166.268287 388.483879 L166.839021 415.857087 L158.336261 411.408863 L168.472600 443.786323 L145.090011 431.553706 L136.193562 448.559226 L123.439422 441.886889 L132.335871 424.881370 L108.953281 412.648753 L141.330742 402.512414 L132.827982 398.064190 L155.639837 382.923599 L150.325612 380.143459 Z" fill="#888" fill-opacity="0.18" stroke="#000" stroke-width="1"/>
  <path d="M1039.183143 175.557969 L1008.086896 173.179592 L1010.809111 167.835463 L983.443723 168.703684 L987.799268 160.153079 L955.533893 170.640731 L967.511641 147.126566 L950.410430 138.415476 L956.943747 125.589568 L974.044958 134.300657 L986.022706 110.786492 L996.510358 143.051868 L1000.865902 134.501262 L1016.253542 157.147206 L1018.975757 151.803078 Z" fill="#888" fill-opacity="0.18" stroke="#000" stroke-width="1"/>
  <path d="M508.429577 637.242456 L492.640043 664.137137 L489.033704 659.345010 L477.799140 684.313045 L472.028997 676.645641 L467.285843 710.239507 L451.417952 689.154146 L436.083144 700.694430 L427.427931 689.193324 L442.762739 677.653040 L426.894848 656.567679 L460.488713 661.310834 L454.718571 653.643430 L481.821026 649.760755 L478.214687 644.968627 Z" fill="#888" fill-opacity="0.18" stroke="#000" stroke-width="1"/>
  <path d="M151.617170 302.733162 L182.561270 306.618513 L179.582798 311.824171 L206.958066 312.285613 L202.192511 320.614665 L234.929029 311.705924 L221.823752 334.610816 L238.481855 344.141927 L231.333522 356.635505 L214.675419 347.104394 L201.570141 370.009287 L192.661400 337.272768 L187.895845 345.601820 L173.625854 322.235485 L170.647382 327.441143 Z" fill="#888" fill-opacity="0.18" stroke="#000" stroke-width="1"/>
  <path d="M463.436624 297.549383 L478.620428 270.308139 L482.333090 275.018374 L493.006174 249.805212 L498.946432 257.341587 L502.936725 223.650003 L519.272435 244.375036 L534.345186 232.494520 L543.255574 243.799083 L528.182823 255.679599 L544.518533 276.404632 L510.826948 272.414338 L516.767206 279.950714 L489.758413 284.438843 L493.471074 289.149078 Z" fill="#888" fill-opacity="0.18" stroke="#000" stroke-width="1"/>
  <path d="M966.777929 948.995377 L963.581535 980.018213 L958.310943 977.156217 L958.458264 1004.534978 L950.025315 999.955785 L959.659703 1032.486138 L936.469096 1019.893357 L927.310710 1036.759253 L914.661287 1029.890464 L923.819674 1013.024567 L900.629066 1000.431786 L933.159419 990.797399 L924.726471 986.218206 L947.769757 971.432226 L942.499165 968.570230 Z" fill="#888" fill-opacity="0.18" stroke="#000" stroke-width="1"/>
  <path d="M743.611008 630.859084 L714.397008 619.942330 L718.495692 615.563865 L691.964728 608.801751 L698.522622 601.796208 L664.614027 602.915331 L682.648237 583.650085 L668.637149 570.534296 L678.473991 560.025981 L692.485078 573.141770 L710.519288 553.876524 L711.638411 587.785120 L718.196306 580.779576 L726.693060 606.806935 L730.791744 602.428470 Z" fill="#888" fill-opacity="0.18" stroke="#000" stroke-width="1"/>
  <path d="M312.465925 877.533265 L282.927491 867.527556 L286.888448 863.024114 L260.160577 857.087858 L266.498108 849.882352 L232.640514 852.052291 L250.068724 832.237148 L235.657711 819.562086 L245.164007 808.753826 L259.575020 821.428888 L277.003230 801.613745 L279.173170 835.471339 L285.510700 828.265832 L294.810362 854.017231 L298.771319 849.513789 Z" fill="#888" fill-opacity="0.18" stroke="#000" stroke-width="1"/>
  <path d="M213.442964 170.376316 L189.408049 190.249820 L187.657939 184.513334 L168.562235 204.134046 L165.762058 194.955668 L149.816554 224.902056 L142.116068 199.661515 L123.759311 205.261869 L119.559045 191.494301 L137.915803 185.893947 L130.215316 160.653406 L160.161705 176.598911 L157.361528 167.420532 L184.157717 173.040360 L182.407607 167.303874 Z" fill="#888" fill-opacity="0.18" stroke="#000" stroke-width="1"/>
  <path d="M270.584845 918.915763 L289.619239 894.211004 L292.596829 899.417166 L306.870776 876.053247 L311.634921 884.383105 L320.549204 851.648096 L333.650604 874.555207 L350.310321 865.026916 L357.456539 877.521704 L340.796822 887.049994 L353.898222 909.957105 L321.163212 901.042822 L325.927357 909.372681 L298.552011 909.829489 L301.529602 915.035650 Z" fill="#888" fill-opacity="0.18" stroke="#000" stroke-width="1"/>
  <path d="M719.620520 840.320817 L694.880225 859.309000 L693.339445 853.512780 L673.544282 872.427583 L671.079034 863.153631 L654.057274 892.501629 L647.277843 866.998262 L628.729940 871.928758 L625.032069 858.017830 L643.579972 853.087335 L636.800540 827.583968 L666.148539 844.605728 L663.683291 835.331776 L690.257885 841.920340 L688.717106 836.124121 Z" fill="#888" fill-opacity="0.18" stroke="#000" stroke-width="1"/>
  <path d="M191.120390 869.279619 L160.010440 871.471490 L161.922382 865.786893 L134.977722 870.645236 L138.036829 861.549881 L107.650672 876.640499 L116.063219 851.628273 L97.872509 845.510058 L102.461170 831.867025 L120.651880 837.985241 L129.064427 812.973014 L144.155045 843.359171 L147.214153 834.263816 L165.746267 854.417699 L167.658209 848.733102 Z" fill="#888" fill-opacity="0.18" stroke="#000" stroke-width="1"/>
  <path d="M743.539706 1031.494217 L743.486638 1000.307193 L749.026721 1002.604505 L746.027787 975.390086 L754.891921 979.065785 L741.920837 947.716203 L766.297203 957.824377 L773.648602 940.096111 L786.944802 945.609661 L779.593403 963.337927 L803.969769 973.446101 L772.620187 986.417184 L781.484320 990.092884 L760.106888 1007.199130 L765.646971 1009.496442 Z" fill="#888" fill-opacity="0.18" stroke="#000" stroke-width="1"/>
  <path d="M692.979896 1042.687914 L683.697754 1012.914182 L689.669580 1013.468664 L678.749488 988.361497 L688.304410 989.248667 L666.635029 963.143434 L692.911067 965.583153 L694.685408 946.473307 L709.017793 947.804063 L707.243452 966.913908 L733.519490 969.353627 L707.414256 991.023008 L716.969179 991.910179 L701.613234 1014.577627 L707.585061 1015.132108 Z" fill="#888" fill-opacity="0.18" stroke="#000" stroke-width="1"/>
  <path d="M740.096204 748.377838 L758.761272 773.362803 L752.945519 774.828128 L771.601478 794.867426 L762.296272 797.211947 L791.420587 814.613659 L765.831272 821.061090 L770.520313 839.671501 L756.562505 843.188282 L751.873464 824.577871 L726.284149 831.025302 L743.685861 801.900988 L734.380656 804.245508 L741.314012 777.758779 L735.498259 779.224104 Z" fill="#888" fill-opacity="0.18" stroke="#000" stroke-width="1"/>
  <path d="M905.877964 275.267742 L935.260568 285.722208 L931.231476 290.164795 L957.865828 296.507470 L951.419281 303.615610 L985.305999 301.961628 L967.577995 321.509013 L981.794275 334.402107 L972.124455 345.064317 L957.908174 332.171223 L940.180170 351.718608 L938.526187 317.831891 L932.079640 324.940031 L923.173292 299.049971 L919.144201 303.492558 Z" fill="#888" fill-opacity="0.18" stroke="#000" stroke-width="1"/>
  <path d="M477.579267 473.464409 L461.924141 500.437550 L458.293933 495.663479 L447.184105 520.687267 L441.375773 513.048753 L436.800320 546.665870 L420.827405 525.659956 L405.550377 537.276622 L396.837878 525.818851 L412.114906 514.202185 L396.141991 493.196272 L429.759107 497.771725 L423.950775 490.133211 L451.033517 486.115336 L447.403309 481.341265 Z" fill="#888" fill-opacity="0.18" stroke="#000" stroke-width="1"/>
  <path d="M403.817950 461.365299 L427.979130 441.645496 L429.692618 447.393029 L448.913075 427.894509 L451.654654 437.090561 L467.790835 407.246483 L475.330178 432.535625 L493.722282 427.052466 L497.834651 440.846543 L479.442548 446.329702 L486.981891 471.618844 L457.137813 455.482664 L459.879393 464.678715 L433.119592 458.888093 L434.833079 464.635625 Z" fill="#888" fill-opacity="0.18" stroke="#000" stroke-width="1"/>
  <path d="M1036.841792 611.357304 L1040.240331 642.358646 L1034.485763 640.668939 L1040.386982 667.404568 L1031.179673 664.701035 L1047.439114 694.478138 L1022.119014 687.043424 L1016.711949 705.458042 L1002.900986 701.402743 L1008.308051 682.988126 L982.987952 675.553411 L1012.765055 659.293970 L1003.557746 656.590438 L1022.976627 637.289523 L1017.222059 635.599815 Z" fill="#888" fill-opacity="0.18" stroke="#000" stroke-width="1"/>
  <path d="M261.901496 973.079221 L292.937204 970.010326 L291.186437 975.746613 L317.983269 970.129848 L315.182043 979.307906 L345.130255 963.365826 L337.426882 988.605487 L355.782999 994.207939 L351.581160 1007.975027 L333.225043 1002.372574 L325.521671 1027.612235 L309.579591 997.664023 L306.778364 1006.842082 L287.684905 987.219186 L285.934138 992.955472 Z" fill="#888" fill-opacity="0.18" stroke="#000" stroke-width="1"/>
  <path d="M301.995593 454.066680 L278.222119 474.252200 L276.397284 468.539045 L257.559301 488.407327 L254.639564 479.266279 L239.086285 509.418241 L231.057010 484.280359 L212.774913 490.119832 L208.395308 476.408259 L226.677405 470.568786 L218.648129 445.430904 L248.800091 460.984183 L245.880355 451.843135 L272.747613 457.112735 L270.922778 451.399579 Z" fill="#888" fill-opacity="0.18" stroke="#000" stroke-width="1"/>
  <path d="M182.854434 631.090407 L154.862525 617.339542 L159.373914 613.387640 L133.641249 604.036267 L140.859472 597.713223 L107.006305 595.475274 L126.856419 578.086905 L114.210332 563.650459 L125.037666 554.165893 L137.683753 568.602340 L157.533867 551.213970 L155.295918 585.067136 L162.514141 578.744093 L168.396693 605.483835 L172.908082 601.531933 Z" fill="#888" fill-opacity="0.18" stroke="#000" stroke-width="1"/>
  <path d="M50.447192 187.954303 L70.582941 211.769948 L64.865981 213.582829 L84.694816 232.462329 L75.547681 235.362939 L105.667043 250.979254 L80.512421 258.955930 L86.313640 277.250201 L72.592937 281.601115 L66.791718 263.306844 L41.637095 271.283521 L57.253410 241.164158 L48.106274 244.064768 L53.432062 217.208591 L47.715102 219.021472 Z" fill="#888" fill-opacity="0.18" stroke="#000" stroke-width="1"/>
  <path d="M247.894976 724.667896 L275.313948 739.528353 L270.647967 743.296480 L295.985634 753.670527 L288.520064 759.699531 L322.256498 763.290949 L301.726179 779.870708 L313.784185 794.801849 L302.585830 803.845354 L290.527823 788.914213 L269.997504 805.493972 L273.588923 771.757537 L266.123352 777.786540 L261.316004 750.832734 L256.650022 754.600861 Z" fill="#888" fill-opacity="0.18" stroke="#000" stroke-width="1"/>
  <path d="M383.910385 686.114083 L413.102562 697.089058 L408.995157 701.459342 L435.512588 708.274336 L428.940739 715.266792 L462.851499 714.215273 L444.778916 733.444526 L458.763827 746.588223 L448.906055 757.076906 L434.921144 743.933210 L416.848562 763.162463 L415.797043 729.251703 L409.225195 736.244159 L400.780347 710.199912 L396.672942 714.570197 Z" fill="#888" fill-opacity="0.18" stroke="#000" stroke-width="1"/>
  <path d="M867.573277 727.233429 L894.617582 711.701565 L895.374399 717.651135 L917.507685 701.534811 L918.718592 711.054124 L939.489607 684.228571 L942.819603 710.406683 L961.858229 707.984868 L963.674591 722.263838 L944.635964 724.685653 L947.965960 750.863765 L921.140408 730.092751 L922.351315 739.612064 L896.888034 729.550277 L897.644851 735.499848 Z" fill="#888" fill-opacity="0.18" stroke="#000" stroke-width="1"/>
  <path d="M381.577246 457.592386 L353.762124 443.487343 L358.323309 439.593019 L332.711409 429.915789 L340.009305 423.684872 L306.187271 421.017423 L326.256486 403.882401 L313.794652 389.286608 L324.741497 379.940232 L337.203331 394.536025 L357.272547 377.401003 L354.605098 411.223037 L361.902995 404.992120 L367.445680 431.804373 L372.006865 427.910050 Z" fill="#888" fill-opacity="0.18" stroke="#000" stroke-width="1"/>
  <path d="M367.590217 686.496016 L336.826856 681.372654 L340.011725 676.290649 L312.676993 674.731583 L317.772784 666.600375 L284.705287 674.188918 L298.718712 651.828096 L282.456296 641.636515 L290.099982 629.439703 L306.362398 639.631285 L320.375822 617.270463 L327.964365 650.337960 L333.060156 642.206752 L346.381463 666.126639 L349.566332 661.044635 Z" fill="#888" fill-opacity="0.18" stroke="#000" stroke-width="1"/>
  <path d="M684.440375 492.612924 L658.761478 474.914689 L663.802503 471.665346 L639.714876 458.649799 L647.780516 453.450850 L614.619043 446.284121 L636.799554 431.987012 L626.401657 415.855731 L638.500117 408.057308 L648.898015 424.188589 L671.078526 409.891480 L663.911797 443.052953 L671.977437 437.854004 L673.884554 465.166660 L678.925579 461.917317 Z" fill="#888" fill-opacity="0.18" stroke="#000" stroke-width="1"/>
  <path d="M340.794587 574.152324 L311.131253 583.781439 L311.615976 577.803546 L286.638012 589.016019 L287.413569 579.451389 L261.563103 601.424070 L263.695885 575.121339 L244.566626 573.570225 L245.729962 559.223281 L264.859221 560.774395 L266.992003 534.471664 L288.964683 560.322131 L289.740240 550.757501 L312.585423 565.847759 L313.070146 559.869866 Z" fill="#888" fill-opacity="0.18" stroke="#000" stroke-width="1"/>
  <path d="M678.163663 624.558270 L703.916161 642.149236 L698.888734 645.419579 L723.030444 658.334535 L714.986560 663.567083 L748.177640 670.595422 L726.056959 684.984929 L736.522055 701.072696 L724.456230 708.921518 L713.991134 692.833751 L691.870454 707.223258 L698.898793 674.032179 L690.854909 679.264727 L688.833879 651.960264 L683.806452 655.230606 Z" fill="#888" fill-opacity="0.18" stroke="#000" stroke-width="1"/>
  <path d="M533.410993 409.378675 L507.161049 392.539028 L512.091900 389.124810 L487.587160 376.912686 L495.476521 371.449939 L462.096250 365.383406 L483.791992 350.360850 L472.866497 334.582128 L484.700538 326.388007 L495.626033 342.166729 L517.321775 327.144173 L511.255242 360.524444 L519.144603 355.061696 L521.953601 382.296376 L526.884451 378.882159 Z" fill="#888" fill-opacity="0.18" stroke="#000" stroke-width="1"/>
  <path d="M1058.561106 360.519228 L1048.874243 390.163754 L1044.328385 386.251550 L1038.680456 413.041831 L1031.407083 406.782304 L1033.941698 440.614553 L1013.939923 423.400855 L1001.420870 437.947600 L990.510811 428.558310 L1003.029864 414.011565 L983.028089 396.797867 L1016.860338 394.263251 L1009.586965 388.003725 L1035.236669 378.427142 L1030.690811 374.514938 Z" fill="#888" fill-opacity="0.18" stroke="#000" stroke-width="1"/>
  <path d="M714.712633 330.119747 L693.656079 353.125285 L691.129693 347.685842 L674.929970 369.758160 L670.887753 361.055052 L659.235525 392.918367 L648.119427 368.984818 L630.713209 377.069253 L624.649883 364.014590 L642.056100 355.930155 L630.940002 331.996606 L662.803318 343.648834 L658.761100 334.945725 L686.076921 336.806956 L683.550535 331.367513 Z" fill="#888" fill-opacity="0.18" stroke="#000" stroke-width="1"/>
  <path d="M781.706170 312.046370 L771.192790 282.684794 L777.182521 282.990228 L765.226848 258.359350 L774.810417 258.848044 L752.073229 233.667386 L778.428045 235.011295 L779.405433 215.844156 L793.780787 216.577197 L792.803399 235.744336 L819.158214 237.088244 L793.977556 259.825433 L803.561125 260.314127 L789.161982 283.601096 L795.151713 283.906529 Z" fill="#888" fill-opacity="0.18" stroke="#000" stroke-width="1"/>
  <path d="M981.554537 186.502101 L968.923322 215.016758 L964.795810 210.665459 L956.471138 236.748366 L949.867118 229.786287 L948.971967 263.701534 L930.810914 244.555815 L916.886755 257.763853 L906.980726 247.320734 L920.904885 234.112695 L902.743833 214.966976 L936.659080 215.862127 L930.055061 208.900048 L956.540786 201.962859 L952.413274 197.611559 Z" fill="#888" fill-opacity="0.18" stroke="#000" stroke-width="1"/>
  <path d="M969.162087 788.673789 L995.493180 805.386264 L990.578903 808.824292 L1015.142429 820.917739 L1007.279585 826.418585 L1040.688810 832.323580 L1019.065989 847.450907 L1030.067681 863.176595 L1018.273415 871.427864 L1007.271723 855.702176 L985.648902 870.829503 L991.553897 837.420277 L983.691053 842.921124 L980.750348 815.700350 L975.836070 819.138379 Z" fill="#888" fill-opacity="0.18" stroke="#000" stroke-width="1"/>
  <path d="M633.446615 629.740744 L624.984765 659.757912 L620.282150 656.035604 L615.738669 683.035141 L608.214486 677.079448 L612.135712 710.779141 L591.444207 694.400984 L579.532820 709.449352 L568.246544 700.515812 L580.157931 685.467444 L559.466426 669.089288 L593.166118 665.168062 L585.641934 659.212368 L610.876920 648.590987 L606.174305 644.868679 Z" fill="#888" fill-opacity="0.18" stroke="#000" stroke-width="1"/>
  <path d="M438.193006 45.600126 L432.971185 76.346929 L427.899403 73.145806 L426.252836 100.475407 L418.137983 95.353611 L425.620626 128.445232 L403.304781 114.360294 L393.061190 130.589999 L380.888911 122.907306 L391.132502 106.677601 L368.816657 92.592663 L401.908278 85.110020 L393.793425 79.988225 L417.755837 66.743562 L412.684054 63.542440 Z" fill="#888" fill-opacity="0.18" stroke="#000" stroke-width="1"/>
  <path d="M695.607090 245.435357 L674.786208 268.654404 L672.204489 263.241004 L656.230671 285.477357 L652.099922 276.815917 L640.773196 308.796389 L629.413636 284.977430 L612.090757 293.238929 L605.894633 280.246769 L623.217512 271.985271 L611.857951 248.166312 L643.838423 259.493038 L639.707674 250.831599 L667.041053 252.414205 L664.459335 247.000805 Z" fill="#888" fill-opacity="0.18" stroke="#000" stroke-width="1"/>
  <path d="M960.930784 681.431242 L987.101667 698.393499 L982.154899 701.784613 L1006.602244 714.111232 L998.687416 719.537015 L1032.038943 725.759630 L1010.273165 740.680531 L1021.124730 756.510188 L1009.252488 764.648862 L998.400923 748.819205 L976.635145 763.740107 L982.857759 730.388580 L974.942931 735.814363 L972.261364 708.566841 L967.314596 711.957955 Z" fill="#888" fill-opacity="0.18" stroke="#000" stroke-width="1"/>
  <path d="M1019.704120 290.107199 L1000.746008 265.343854 L1006.544095 263.810117 L987.653355 243.991990 L996.930295 241.538010 L967.602998 224.480609 L993.114582 217.732166 L988.206623 199.178287 L1002.122033 195.497318 L1007.029991 214.051198 L1032.541575 207.302755 L1015.484174 236.630052 L1024.761114 234.176073 L1018.140270 260.742643 L1023.938357 259.208906 Z" fill="#888" fill-opacity="0.18" stroke="#000" stroke-width="1"/>
  <path d="M632.587682 925.534027 L609.170119 946.131381 L607.245852 940.450944 L588.757492 960.644973 L585.678665 951.556274 L570.653985 981.975088 L562.187211 956.981166 L544.009813 963.138820 L539.391572 949.505772 L557.568970 943.348118 L549.102196 918.354196 L579.521011 933.378876 L576.442184 924.290177 L603.397318 929.090071 L601.473051 923.409634 Z" fill="#888" fill-opacity="0.18" stroke="#000" stroke-width="1"/>
  <path d="M536.773686 802.245618 L507.444936 812.850225 L507.731748 806.859574 L483.138157 818.891761 L483.597055 809.306719 L458.487203 832.122078 L459.749174 805.763212 L440.579089 804.845415 L441.267437 790.467852 L460.437522 791.385648 L461.699492 765.026782 L484.514852 790.136634 L484.973750 780.551592 L508.305371 794.878271 L508.592182 788.887620 Z" fill="#888" fill-opacity="0.18" stroke="#000" stroke-width="1"/>
  <path d="M109.494932 70.112242 L104.423015 100.884127 L99.335692 97.707760 L97.822333 125.045060 L89.682616 119.962873 L97.326438 153.017634 L74.942217 139.041618 L64.777841 155.321051 L52.568266 147.697770 L62.732642 131.418336 L40.348421 117.442319 L73.403182 109.798497 L65.263465 104.716309 L89.161046 91.355025 L84.073723 88.178658 Z" fill="#888" fill-opacity="0.18" stroke="#000" stroke-width="1"/>
  <path d="M855.270761 109.822707 L832.344547 130.965602 L830.287096 125.332036 L812.279226 145.955684 L808.987304 136.941979 L794.682845 167.706044 L785.630061 142.918355 L767.602651 149.502198 L762.664770 135.981640 L780.692180 129.397798 L771.639396 104.610109 L802.403462 118.914568 L799.111541 109.900863 L826.172195 114.064905 L824.114744 108.431339 Z" fill="#888" fill-opacity="0.18" stroke="#000" stroke-width="1"/>
  <path d="M521.341923 296.850010 L552.192035 292.277940 L550.721832 298.092463 L577.214368 291.181326 L574.862043 300.484561 L604.000944 283.107284 L597.532050 308.691182 L616.138522 313.395832 L612.610034 327.350685 L594.003563 322.646036 L587.534670 348.229933 L570.157393 319.091032 L567.805068 328.394268 L547.781426 309.721507 L546.311223 315.536029 Z" fill="#888" fill-opacity="0.18" stroke="#000" stroke-width="1"/>
  <path d="M616.301464 774.206182 L585.140542 772.929386 L587.671994 767.492299 L560.354451 769.328083 L564.404774 760.628743 L532.530617 772.251283 L543.669007 748.328100 L526.270328 740.227453 L532.345813 727.178444 L549.744492 735.279091 L560.882881 711.355908 L572.505421 743.230065 L576.555744 734.530725 L592.734898 756.618125 L595.266350 751.181038 Z" fill="#888" fill-opacity="0.18" stroke="#000" stroke-width="1"/>
  <path d="M142.813719 308.634342 L114.880583 322.504208 L114.484537 316.519785 L91.418148 331.269699 L90.784474 321.694623 L68.430968 347.216497 L66.688366 320.885038 L47.538213 322.152385 L46.587703 307.789771 L65.737855 306.522424 L63.995253 280.190965 L89.517127 302.544471 L88.883453 292.969395 L113.692445 304.550940 L113.296398 298.566517 Z" fill="#888" fill-opacity="0.18" stroke="#000" stroke-width="1"/>
  <path d="M863.572073 616.858922 L879.544144 590.072242 L883.117810 594.888784 L894.521914 569.997729 L900.239779 577.704196 L905.211286 544.143365 L920.935415 565.336150 L936.348350 553.900420 L944.925147 565.460122 L929.512212 576.895852 L945.236341 598.088638 L911.675510 593.117131 L917.393375 600.823599 L890.265141 604.521869 L893.838807 609.338411 Z" fill="#888" fill-opacity="0.18" stroke="#000" stroke-width="1"/>
  <path d="M404.655826 655.830977 L393.612484 626.664595 L399.606764 626.861515 L387.207030 602.451172 L396.797878 602.766244 L373.608441 578.001445 L399.983271 578.867894 L400.613416 559.686199 L414.999687 560.158808 L414.369542 579.340503 L440.744372 580.206952 L415.979572 603.396389 L425.570420 603.711462 L411.595323 627.255356 L417.589603 627.452276 Z" fill="#888" fill-opacity="0.18" stroke="#000" stroke-width="1"/>
  <path d="M972.148503 1057.489423 L975.248580 1026.456815 L980.528032 1029.302436 L980.295722 1001.924264 L988.742844 1006.477258 L979.007522 973.976968 L1002.237109 986.497700 L1011.343096 969.603456 L1024.013779 976.432946 L1014.907792 993.327191 L1038.137378 1005.847923 L1005.637089 1015.583245 L1014.084211 1020.136238 L991.086935 1034.993678 L996.366386 1037.839299 Z" fill="#888" fill-opacity="0.18" stroke="#000" stroke-width="1"/>
  <path d="M905.306695 164.235976 L893.749833 193.202719 L889.462605 189.008695 L882.118408 215.384461 L875.258844 208.674021 L875.631657 242.599031 L856.767854 224.145323 L843.346976 237.864453 L833.057629 227.798794 L846.478507 214.079664 L827.614704 195.625956 L861.539714 195.253143 L854.680150 188.542703 L880.888149 180.620646 L876.600921 176.426621 Z" fill="#888" fill-opacity="0.18" stroke="#000" stroke-width="1"/>
  <path d="M1029.027712 273.903482 L1038.045765 303.758264 L1032.079084 303.150908 L1042.776358 328.353816 L1033.229668 327.382046 L1054.666969 353.678195 L1028.413572 351.005829 L1026.470032 370.099208 L1012.149998 368.641554 L1014.093537 349.548174 L987.840140 346.875807 L1014.136289 325.438507 L1004.589599 324.466737 L1020.145722 301.936196 L1014.179040 301.328840 Z" fill="#888" fill-opacity="0.18" stroke="#000" stroke-width="1"/>
  <path d="M44.855776 514.990014 L71.476647 498.743091 L72.391716 504.670385 L94.087738 487.970059 L95.551850 497.453730 L115.600746 470.084275 L119.627053 496.164368 L138.594394 493.236144 L140.790561 507.461650 L121.823221 510.389873 L125.849528 536.469966 L98.480074 516.421070 L99.944185 525.904740 L74.221856 516.524973 L75.136926 522.452267 Z" fill="#888" fill-opacity="0.18" stroke="#000" stroke-width="1"/>
  <path d="M792.436566 906.682698 L768.180265 926.285379 L766.494604 920.529625 L747.180038 939.934928 L744.482981 930.725720 L728.202605 960.491383 L720.785698 935.166062 L702.367282 940.560176 L698.321697 926.746364 L716.740112 921.352250 L709.323205 896.026929 L739.088867 912.307305 L736.391810 903.098097 L763.123283 909.018115 L761.437622 903.262360 Z" fill="#888" fill-opacity="0.18" stroke="#000" stroke-width="1"/>
  <path d="M173.267486 581.366282 L202.318136 592.710577 L198.155639 597.028422 L224.584512 604.179151 L217.924517 611.087703 L251.845884 610.466310 L233.530898 629.464828 L247.348001 642.784818 L237.358009 653.147646 L223.540905 639.827656 L205.225919 658.826174 L204.604526 624.904806 L197.944531 631.813358 L189.830645 605.664112 L185.668148 609.981957 Z" fill="#888" fill-opacity="0.18" stroke="#000" stroke-width="1"/>
  <path d="M201.249024 773.344377 L176.745776 792.637487 L175.133334 786.860793 L155.573929 806.019288 L152.994022 796.776578 L136.337013 826.333123 L129.242268 800.915668 L110.756847 806.075482 L106.886986 792.211416 L125.372407 787.051602 L118.277663 761.634147 L147.834207 778.291156 L145.254300 769.048445 L171.908450 775.307405 L170.296008 769.530710 Z" fill="#888" fill-opacity="0.18" stroke="#000" stroke-width="1"/>
</svg>
