<?xml version="1.0" encoding="UTF-8"?>
<svg xmlns="http://www.w3.org/2000/svg" width="1100" height="1100" viewBox="0 0 1100 1100">
  <rect x="0" y="0" width="1100" height="1100" fill="white"/>
  <text x="10.0" y="18.0" font-family="monospace" font-size="12">prefix=N144_job5048547_task144 run_id=144 L=10.7746883301 feas=0.000e+00 N=144</text>
  <rect x="40.000000" y="40.000000" width="1020.000000" height="1020.000000" fill="none" stroke="#000" stroke-width="2"/>
  <path d="M354.711008 315.743599 L326.682814 328.432216 L326.503488 322.518290 L303.242300 336.246231 L302.955379 326.783949 L280.016977 351.156958 L279.227943 325.135683 L260.303379 325.709525 L259.872997 311.516102 L278.797561 310.942259 L278.008527 284.920984 L302.381536 307.859385 L302.094614 298.397103 L326.144836 310.690437 L325.965510 304.776511 Z" fill="#888" fill-opacity="0.18" stroke="#000" stroke-width="1"/>
  <path d="M936.842881 702.894111 L943.577814 672.873762 L948.408724 676.289753 L951.444683 649.450934 L959.174139 654.916518 L953.514460 621.928917 L974.770464 636.959274 L985.701633 621.500362 L997.295817 629.698738 L986.364648 645.157650 L1007.620653 660.188008 L974.633052 665.847687 L982.362508 671.313271 L958.070545 683.121733 L962.901455 686.537723 Z" fill="#888" fill-opacity="0.18" stroke="#000" stroke-width="1"/>
  <path d="M996.792586 791.472210 L995.135570 822.194107 L989.804539 819.627632 L991.266908 846.598000 L982.737259 842.491640 L993.795484 874.081662 L970.338948 862.789174 L962.126229 879.848472 L949.331755 873.688933 L957.544474 856.629635 L934.087938 845.337146 L965.677960 834.278922 L957.148311 830.172562 L979.142477 814.494683 L973.811446 811.928208 Z" fill="#888" fill-opacity="0.18" stroke="#000" stroke-width="1"/>
  <path d="M612.899811 266.279064 L623.178152 295.277967 L617.270185 294.957635 L628.986385 319.294231 L619.533638 318.781700 L641.884178 343.694894 L615.889125 342.285434 L614.864063 361.190927 L600.684943 360.422131 L601.710005 341.516638 L575.714952 340.107178 L600.628145 317.756639 L591.175399 317.244108 L605.454252 294.316971 L599.546285 293.996640 Z" fill="#888" fill-opacity="0.18" stroke="#000" stroke-width="1"/>
  <path d="M924.608416 671.658535 L893.855500 672.574426 L895.967540 667.047585 L869.213689 670.758476 L872.592953 661.915531 L842.037430 675.574735 L851.330405 651.256635 L833.644515 644.498108 L838.713410 631.233690 L856.399301 637.992217 L865.692276 613.674117 L879.351480 644.229640 L882.730744 635.386695 L900.191619 655.993904 L902.303659 650.467063 Z" fill="#888" fill-opacity="0.18" stroke="#000" stroke-width="1"/>
  <path d="M192.343049 884.153792 L182.321114 913.242303 L177.898740 909.311744 L171.905727 935.648468 L164.829929 929.359574 L166.797188 962.771304 L147.338744 945.476845 L134.760956 959.628441 L124.147259 950.195100 L136.725047 936.043504 L117.266603 918.749046 L150.678333 916.781786 L143.602535 910.492892 L169.053993 901.450627 L164.631619 897.520068 Z" fill="#888" fill-opacity="0.18" stroke="#000" stroke-width="1"/>
  <path d="M421.924760 989.548746 L413.057180 960.087810 L418.942818 960.692747 L408.414162 935.819335 L417.831182 936.787234 L396.708378 910.824935 L422.605184 913.486657 L424.540982 894.652615 L438.666513 896.104464 L436.730715 914.938505 L462.627522 917.600226 L436.665223 938.723031 L446.082244 939.690930 L430.714094 961.902620 L436.599732 962.507557 Z" fill="#888" fill-opacity="0.18" stroke="#000" stroke-width="1"/>
  <path d="M845.685939 199.458897 L861.032082 226.124916 L855.163400 226.876745 L871.081816 248.697452 L861.691924 249.900378 L888.173969 270.367794 L862.351766 273.675840 L864.757617 292.455624 L850.672779 294.260013 L848.266927 275.480229 L822.444724 278.788275 L842.912140 252.306230 L833.522248 253.509156 L843.426034 228.380402 L837.557352 229.132231 Z" fill="#888" fill-opacity="0.18" stroke="#000" stroke-width="1"/>
  <path d="M514.773570 1021.317026 L485.147408 1013.018157 L488.811864 1008.372897 L462.169020 1003.934645 L468.032150 996.502228 L434.793284 1000.425444 L450.916891 979.986299 L436.052059 968.260040 L444.846754 957.111415 L459.711586 968.837675 L475.835193 948.398530 L479.758410 981.637396 L485.621539 974.204979 L496.140777 999.082376 L499.805233 994.437116 Z" fill="#888" fill-opacity="0.18" stroke="#000" stroke-width="1"/>
  <path d="M828.981747 433.413395 L859.675563 435.527709 L857.029988 440.819931 L884.019142 439.759341 L879.786222 448.226897 L911.537410 437.640307 L899.896881 460.926085 L916.831992 469.391924 L910.482613 482.093257 L893.547502 473.627418 L881.906973 496.913196 L871.320383 465.162008 L867.087463 473.629563 L851.738839 451.404376 L849.093264 456.696598 Z" fill="#888" fill-opacity="0.18" stroke="#000" stroke-width="1"/>
  <path d="M49.702245 926.378543 L78.348470 937.602377 L74.237270 941.857341 L100.301765 948.941222 L93.723844 955.749163 L127.188499 955.174110 L109.099218 973.895949 L122.715102 987.051790 L112.848221 997.263703 L99.232338 984.107862 L81.143057 1002.829701 L80.568004 969.365047 L73.990083 976.172988 L66.014870 950.367268 L61.903670 954.622231 Z" fill="#888" fill-opacity="0.18" stroke="#000" stroke-width="1"/>
  <path d="M466.923539 621.235970 L471.648554 651.637531 L465.902344 650.227655 L472.904502 676.314223 L463.710566 674.058421 L481.055902 702.682766 L455.772577 696.479311 L451.260974 714.867184 L437.470069 711.483481 L441.981673 693.095608 L416.698348 686.892154 L445.322693 669.546817 L436.128757 667.291016 L454.409923 647.407902 L448.663713 645.998026 Z" fill="#888" fill-opacity="0.18" stroke="#000" stroke-width="1"/>
  <path d="M50.134996 636.632648 L52.107317 605.929380 L57.411719 608.550448 L56.226305 581.566489 L64.713349 585.760198 L53.980010 554.058317 L77.319380 565.591015 L85.706797 548.616927 L98.437363 554.907489 L90.049946 571.881577 L113.389317 583.414275 L81.687436 594.147614 L90.174480 598.341323 L68.020524 613.792584 L73.324926 616.413651 Z" fill="#888" fill-opacity="0.18" stroke="#000" stroke-width="1"/>
  <path d="M146.279734 302.863839 L142.461575 272.335125 L148.163281 273.915387 L141.940572 247.631986 L151.063302 250.160404 L134.577521 221.032534 L159.665030 227.985683 L164.721865 209.740222 L178.405961 213.532849 L173.349125 231.778310 L198.436633 238.731459 L169.308763 255.217240 L178.431493 257.745658 L159.566694 277.075909 L165.268401 278.656170 Z" fill="#888" fill-opacity="0.18" stroke="#000" stroke-width="1"/>
  <path d="M443.702368 327.009265 L470.769387 341.636538 L466.170831 345.359435 L491.179244 355.563285 L483.821555 361.519921 L517.107368 365.022554 L496.873722 381.403303 L508.786994 396.118682 L497.750460 405.053636 L485.837188 390.338257 L465.603542 406.719006 L469.106176 373.433192 L461.748486 379.389828 L456.973719 352.805230 L452.375164 356.528128 Z" fill="#888" fill-opacity="0.18" stroke="#000" stroke-width="1"/>
  <path d="M554.036135 259.949788 L538.193470 286.323841 L534.683481 281.560790 L523.353255 306.079461 L517.737271 298.458579 L512.725027 331.550742 L497.281072 310.593318 L482.039309 321.825286 L473.615334 310.393964 L488.857096 299.161996 L473.413141 278.204572 L506.505304 283.216817 L500.889320 275.595935 L527.663501 272.034688 L524.153511 267.271637 Z" fill="#888" fill-opacity="0.18" stroke="#000" stroke-width="1"/>
  <path d="M643.185834 175.242684 L672.410017 184.861823 L668.540925 189.338073 L694.957926 194.966688 L688.767380 202.128688 L722.148745 199.700054 L705.124743 219.395554 L719.448743 231.776646 L710.162923 242.519646 L695.838924 230.138554 L678.814922 249.834053 L676.386287 216.452688 L670.195741 223.614688 L660.802742 198.290573 L656.933651 202.766823 Z" fill="#888" fill-opacity="0.18" stroke="#000" stroke-width="1"/>
  <path d="M848.785356 286.521869 L841.889464 316.505654 L837.076950 313.063795 L833.897047 339.885940 L826.197024 334.378967 L831.679647 367.396457 L810.504585 352.252280 L799.490638 367.652325 L787.940604 359.391865 L798.954551 343.991820 L777.779489 328.847642 L810.796979 323.365020 L803.096957 317.858046 L827.451922 306.180079 L822.639407 302.738220 Z" fill="#888" fill-opacity="0.18" stroke="#000" stroke-width="1"/>
  <path d="M425.242304 1000.848046 L395.169907 994.349461 L398.547791 989.491831 L371.685922 986.667080 L377.090537 978.894870 L344.148475 984.813855 L359.011168 963.440279 L343.466750 952.631048 L351.573673 940.972735 L367.118091 951.781966 L381.980784 930.408390 L387.899768 963.350452 L393.304384 955.578243 L405.303561 979.776569 L408.681445 974.918938 Z" fill="#888" fill-opacity="0.18" stroke="#000" stroke-width="1"/>
  <path d="M41.483815 481.067540 L46.539368 450.719195 L51.552717 453.861330 L53.091891 426.895237 L61.113249 431.922654 L53.628396 399.300717 L75.687130 413.126113 L85.741964 397.083396 L97.774001 404.624521 L87.719168 420.667238 L109.777902 434.492634 L77.155965 441.977487 L85.177323 447.004904 L61.579414 460.145601 L66.592763 463.287737 Z" fill="#888" fill-opacity="0.18" stroke="#000" stroke-width="1"/>
  <path d="M752.098246 667.575942 L721.379943 669.298309 L723.346261 663.717962 L696.698973 668.129452 L699.845082 659.200897 L669.658420 673.657013 L678.310220 649.103485 L660.453110 642.811267 L665.172273 629.418434 L683.029384 635.710652 L691.681184 611.157125 L706.137300 641.343786 L709.283409 632.415231 L727.278898 652.557267 L729.245216 646.976920 Z" fill="#888" fill-opacity="0.18" stroke="#000" stroke-width="1"/>
  <path d="M336.609482 1029.645201 L306.215261 1034.417201 L307.616253 1028.668819 L281.540540 1035.711289 L283.782128 1026.513877 L255.184627 1043.903436 L261.348995 1018.610553 L242.954171 1014.127377 L246.316554 1000.331259 L264.711378 1004.814435 L270.875745 979.521553 L288.265305 1008.119053 L290.506893 998.921641 L310.418239 1017.172054 L311.819232 1011.423671 Z" fill="#888" fill-opacity="0.18" stroke="#000" stroke-width="1"/>
  <path d="M197.909965 393.514391 L202.265047 423.971146 L196.536401 422.491519 L203.220914 448.661283 L194.055080 446.293880 L211.051156 475.126972 L185.845114 468.616613 L181.110307 486.948280 L167.361556 483.397175 L172.096363 465.065508 L146.890321 458.555149 L175.723413 441.559073 L166.557579 439.191670 L185.079109 419.532265 L179.350463 418.052638 Z" fill="#888" fill-opacity="0.18" stroke="#000" stroke-width="1"/>
  <path d="M156.855286 345.060442 L169.940512 317.215200 L173.915612 321.597580 L182.699913 296.055942 L189.060074 303.067751 L190.689194 269.637827 L208.179636 288.920301 L222.203254 276.199980 L231.743494 286.717693 L217.719877 299.438015 L235.210318 318.720489 L201.780395 317.091368 L208.140556 324.103177 L181.865813 330.362341 L185.840913 334.744722 Z" fill="#888" fill-opacity="0.18" stroke="#000" stroke-width="1"/>
  <path d="M1039.627869 164.174491 L1019.143824 141.218347 L1024.733971 139.280066 L1004.682522 121.183696 L1013.626757 118.082446 L983.513042 103.474982 L1008.109691 94.946544 L1001.907190 77.058072 L1015.323544 72.406197 L1021.526044 90.294668 L1046.122692 81.766230 L1031.515229 111.879945 L1040.459464 108.778695 L1035.914266 135.403503 L1041.504413 133.465222 Z" fill="#888" fill-opacity="0.18" stroke="#000" stroke-width="1"/>
  <path d="M132.530326 557.442352 L150.896020 532.758714 L153.919321 537.844609 L167.611638 514.562434 L172.448921 522.699866 L180.699295 490.263079 L194.001822 512.641018 L210.276686 502.966452 L217.532610 515.172601 L201.257746 524.847166 L214.560273 547.225104 L182.123486 538.974730 L186.960768 547.112162 L159.965924 548.016400 L162.989226 553.102295 Z" fill="#888" fill-opacity="0.18" stroke="#000" stroke-width="1"/>
  <path d="M74.487289 42.288733 L92.732165 67.061806 L86.985105 68.468214 L105.254266 88.362358 L96.058970 90.612610 L124.672840 107.975221 L99.385775 114.163413 L103.886279 132.554006 L90.093335 135.929383 L85.592831 117.538791 L60.305767 123.726983 L77.668378 95.113113 L68.473082 97.363365 L75.490984 71.281029 L69.743924 72.687436 Z" fill="#888" fill-opacity="0.18" stroke="#000" stroke-width="1"/>
  <path d="M148.943620 842.452283 L179.690040 843.565097 L177.218355 848.940733 L204.158603 847.001072 L200.203908 855.602089 L231.593188 843.986285 L220.717776 867.639082 L237.919810 875.548472 L231.987767 888.449997 L214.785733 880.540607 L203.910322 904.193403 L192.294518 872.804123 L188.339822 881.405140 L172.274986 859.692004 L169.803302 865.067639 Z" fill="#888" fill-opacity="0.18" stroke="#000" stroke-width="1"/>
  <path d="M288.784933 125.767952 L315.376356 141.242994 L310.662485 144.818761 L335.336068 155.807554 L327.793876 161.528781 L360.952425 166.081193 L340.211397 181.814568 L351.653852 196.898952 L340.340564 205.480794 L328.898109 190.396409 L308.157081 206.129785 L312.709492 172.971236 L305.167300 178.692464 L301.234745 151.970296 L296.520875 155.546063 Z" fill="#888" fill-opacity="0.18" stroke="#000" stroke-width="1"/>
  <path d="M835.929478 223.537766 L805.181950 224.619522 L807.264148 219.081370 L780.530703 222.936515 L783.862219 214.075470 L753.380818 227.899290 L762.542487 203.531419 L744.820399 196.868386 L749.817673 183.576820 L767.539762 190.239852 L776.701432 165.871981 L790.525251 196.353382 L793.856768 187.492338 L811.428543 208.005064 L813.510741 202.466912 Z" fill="#888" fill-opacity="0.18" stroke="#000" stroke-width="1"/>
  <path d="M766.957699 984.057963 L786.110329 959.979810 L788.967943 965.160614 L803.404407 942.332391 L807.976589 950.621677 L817.269349 918.468008 L829.842849 941.263544 L846.421420 932.119180 L853.279693 944.553109 L836.701122 953.697472 L849.274622 976.493008 L817.120953 967.200248 L821.693135 975.489534 L794.683170 975.522221 L797.540784 980.703024 Z" fill="#888" fill-opacity="0.18" stroke="#000" stroke-width="1"/>
  <path d="M939.183311 158.854818 L932.808435 128.755954 L938.622943 129.850567 L930.209475 104.184386 L939.512688 105.935766 L920.633106 78.299284 L946.216942 83.115579 L949.719702 64.509153 L963.674522 67.136223 L960.171761 85.742649 L985.755597 90.558944 L958.119114 109.438527 L967.422327 111.189907 L950.251959 132.039792 L956.066467 133.134404 Z" fill="#888" fill-opacity="0.18" stroke="#000" stroke-width="1"/>
  <path d="M822.839992 607.551319 L830.859696 637.254265 L824.993810 636.480918 L834.805369 661.645825 L825.419952 660.408469 L845.790106 686.965402 L819.980208 683.562673 L817.505497 702.333507 L803.427371 700.477474 L805.902083 681.706639 L780.092185 678.303911 L806.649118 657.933757 L797.263701 656.696402 L813.262039 634.934223 L807.396153 634.160876 Z" fill="#888" fill-opacity="0.18" stroke="#000" stroke-width="1"/>
  <path d="M319.034629 217.079720 L347.376858 229.050466 L343.155555 233.196220 L369.025440 240.960773 L362.271355 247.593980 L395.739586 247.896174 L377.165852 266.137494 L390.432267 279.645664 L380.301140 289.595476 L367.034725 276.087306 L348.460991 294.328626 L348.763185 260.860395 L342.009100 267.493602 L334.712948 241.487730 L330.491645 245.633484 Z" fill="#888" fill-opacity="0.18" stroke="#000" stroke-width="1"/>
  <path d="M154.655214 790.775099 L134.130582 813.694963 L131.580061 808.356281 L115.836479 830.303464 L111.755646 821.761573 L100.603001 853.318384 L89.380710 829.828183 L72.296927 837.989850 L66.175677 825.177013 L83.259460 817.015347 L72.037168 793.525146 L103.593980 804.677791 L99.513146 796.135900 L126.479020 797.678917 L123.928499 792.340235 Z" fill="#888" fill-opacity="0.18" stroke="#000" stroke-width="1"/>
  <path d="M832.616781 1016.791162 L805.104360 1030.562414 L804.694701 1024.659969 L781.986169 1039.283983 L781.330715 1029.840070 L759.359568 1055.088486 L757.557070 1029.117727 L738.669245 1030.428634 L737.686064 1016.262765 L756.573889 1014.951858 L754.771392 988.981098 L780.019808 1010.952245 L779.364354 1001.508332 L803.875384 1012.855078 L803.465726 1006.952633 Z" fill="#888" fill-opacity="0.18" stroke="#000" stroke-width="1"/>
  <path d="M253.201687 56.631913 L280.516802 70.790485 L275.983097 74.592091 L301.163668 84.363378 L293.909741 90.445947 L327.250981 93.374345 L307.302680 110.101408 L319.467816 124.609264 L308.586925 133.733116 L296.421788 119.225261 L276.473487 135.952324 L279.401885 102.611083 L272.147958 108.693652 L266.915687 82.195301 L262.381983 85.996906 Z" fill="#888" fill-opacity="0.18" stroke="#000" stroke-width="1"/>
  <path d="M891.628852 828.810712 L874.199201 854.163974 L870.987797 849.194712 L858.175836 872.972704 L853.037590 865.021884 L846.006156 897.744549 L831.875979 875.879795 L815.974340 886.156287 L808.266971 874.230057 L824.168610 863.953565 L810.038434 842.088811 L842.761098 849.120245 L837.622852 841.169426 L864.564989 839.256188 L861.353586 834.286925 Z" fill="#888" fill-opacity="0.18" stroke="#000" stroke-width="1"/>
  <path d="M570.907669 263.420469 L547.487433 243.468698 L552.761433 240.786982 L530.431769 225.590754 L538.870170 221.300009 L507.047305 210.930869 L530.252908 199.131320 L521.671418 182.254518 L534.329019 175.818400 L542.910509 192.695202 L566.116112 180.895653 L555.746972 212.718519 L564.185373 208.427774 L563.309435 235.423551 L568.583435 232.741835 Z" fill="#888" fill-opacity="0.18" stroke="#000" stroke-width="1"/>
  <path d="M487.611436 67.768047 L468.813499 92.124119 L465.880316 86.985722 L451.779732 110.022927 L447.086639 101.801492 L438.265785 134.087810 L425.359780 111.478865 L408.916911 120.865051 L401.877272 108.532899 L418.320141 99.146714 L405.414136 76.537769 L437.700454 85.358623 L433.007361 77.137189 L460.013950 76.708929 L457.080767 71.570532 Z" fill="#888" fill-opacity="0.18" stroke="#000" stroke-width="1"/>
  <path d="M644.402701 223.920020 L665.957499 245.873866 L660.466077 248.076357 L681.357167 265.196567 L672.570891 268.720552 L703.346541 281.876280 L679.184283 291.567237 L686.232252 309.139788 L673.052839 314.425764 L666.004870 296.853213 L641.842612 306.544170 L654.998340 275.768520 L646.212064 279.292505 L649.483232 252.481337 L643.991810 254.683828 Z" fill="#888" fill-opacity="0.18" stroke="#000" stroke-width="1"/>
  <path d="M254.044144 857.847769 L247.077401 827.880367 L252.912349 828.860191 L243.994757 803.364783 L253.330675 804.932502 L233.910175 777.673411 L259.583950 781.984636 L262.719386 763.312800 L276.723263 765.664377 L273.587827 784.336213 L299.261601 788.647438 L272.002511 808.067938 L281.338429 809.635656 L264.582247 830.819838 L270.417196 831.799662 Z" fill="#888" fill-opacity="0.18" stroke="#000" stroke-width="1"/>
  <path d="M738.331447 788.328393 L752.206300 760.868074 L756.054666 765.362155 L765.564582 740.081713 L771.721968 747.272241 L774.304824 713.902454 L791.237636 733.676408 L805.618693 721.361636 L814.854772 732.147429 L800.473715 744.462201 L817.406527 764.236155 L784.036740 761.653298 L790.194126 768.843827 L763.751399 774.350315 L767.599765 778.844396 Z" fill="#888" fill-opacity="0.18" stroke="#000" stroke-width="1"/>
  <path d="M967.379947 152.428119 L973.471612 182.585577 L967.667650 181.436357 L975.839484 207.180490 L966.553145 205.341737 L985.172110 233.154467 L959.634677 228.097896 L955.957171 246.670574 L942.027663 243.912445 L945.705169 225.339767 L920.167737 220.283196 L947.980467 201.664231 L938.694128 199.825478 L956.059726 179.137916 L950.255764 177.988695 Z" fill="#888" fill-opacity="0.18" stroke="#000" stroke-width="1"/>
  <path d="M459.562632 136.393883 L483.092787 156.215903 L477.833689 158.926728 L500.247003 173.999304 L491.832447 178.336624 L523.712138 188.529716 L500.572107 200.457346 L509.246746 217.286459 L496.624912 223.792438 L487.950272 206.963325 L464.810241 218.890954 L475.003334 187.011264 L466.588777 191.348583 L467.315493 164.348377 L462.056395 167.059202 Z" fill="#888" fill-opacity="0.18" stroke="#000" stroke-width="1"/>
  <path d="M320.697273 295.339669 L292.833890 282.293114 L297.210748 278.311934 L271.656938 269.563101 L278.659911 263.193212 L245.227758 261.610504 L264.485931 244.093309 L251.746153 230.087365 L262.250611 220.532532 L274.990389 234.538476 L294.248562 217.021281 L292.665855 250.453434 L299.668827 244.083545 L305.964463 270.349572 L310.341320 266.368392 Z" fill="#888" fill-opacity="0.18" stroke="#000" stroke-width="1"/>
  <path d="M158.843050 569.833513 L186.660407 582.977915 L182.269585 586.943689 L207.792487 595.782278 L200.767171 602.127516 L234.193555 603.827714 L214.873935 621.277116 L227.564409 635.327749 L217.026435 644.845604 L204.335960 630.794972 L185.016340 648.244374 L186.716538 614.817990 L179.691222 621.163227 L173.487939 594.875235 L169.097116 598.841008 Z" fill="#888" fill-opacity="0.18" stroke="#000" stroke-width="1"/>
  <path d="M754.578351 925.894777 L740.135812 898.728737 L746.026422 898.174295 L730.849314 875.831631 L740.274289 874.944524 L714.494085 853.599854 L740.412765 851.160310 L738.638552 832.310361 L752.776013 830.979701 L754.550227 849.829650 L780.468907 847.390106 L759.124238 873.170310 L768.549213 872.283203 L757.807640 897.065412 L763.698249 896.510970 Z" fill="#888" fill-opacity="0.18" stroke="#000" stroke-width="1"/>
  <path d="M177.861211 624.229509 L153.668780 643.237586 L152.083946 637.537149 L132.768833 656.417446 L130.233098 647.296747 L113.770685 676.437831 L106.797416 651.355907 L88.556018 656.427376 L84.752416 642.746327 L102.993815 637.674858 L96.020546 612.592935 L125.161630 629.055348 L122.625896 619.934649 L148.914279 626.136275 L147.329445 620.435838 Z" fill="#888" fill-opacity="0.18" stroke="#000" stroke-width="1"/>
  <path d="M618.245457 515.619772 L640.660194 536.694880 L635.261156 539.115018 L656.819591 555.386869 L648.181130 559.259089 L679.457834 571.174692 L655.702065 581.823297 L663.446506 599.100220 L650.488814 604.908551 L642.744373 587.631628 L618.988604 598.280234 L630.904207 567.003529 L622.265746 570.875750 L624.463079 543.955293 L619.064041 546.375431 Z" fill="#888" fill-opacity="0.18" stroke="#000" stroke-width="1"/>
  <path d="M936.015247 468.415841 L960.869170 486.550426 L955.811705 489.621049 L979.220623 503.095537 L971.128679 508.008535 L1003.641034 515.955900 L981.388188 529.466644 L991.214184 545.650532 L979.076268 553.020029 L969.250272 536.836141 L946.997426 550.346886 L954.944791 517.834531 L946.852847 522.747529 L945.696775 495.762297 L940.639310 498.832921 Z" fill="#888" fill-opacity="0.18" stroke="#000" stroke-width="1"/>
  <path d="M373.747062 196.280653 L363.266555 167.354201 L369.176613 167.633286 L357.290825 143.379064 L366.746919 143.825600 L344.223026 119.069024 L370.227284 120.297000 L371.120357 101.384812 L385.304498 102.054617 L384.411425 120.966805 L410.415683 122.194780 L385.659107 144.718673 L395.115201 145.165210 L380.996730 168.191457 L386.906789 168.470542 Z" fill="#888" fill-opacity="0.18" stroke="#000" stroke-width="1"/>
  <path d="M688.497407 462.095225 L689.569727 431.347367 L694.948613 433.811970 L692.973474 406.874299 L701.579692 410.817664 L689.922558 379.443709 L713.589657 390.287960 L721.476385 373.075525 L734.385712 378.990571 L726.498983 396.203006 L750.166082 407.047258 L718.792127 418.704392 L727.398345 422.647756 L705.706385 438.741175 L711.085271 441.205777 Z" fill="#888" fill-opacity="0.18" stroke="#000" stroke-width="1"/>
  <path d="M69.094561 146.758622 L84.806125 173.210984 L78.948342 174.043483 L95.165463 195.643118 L85.793009 196.975117 L112.554140 217.076253 L86.779893 220.739251 L89.443891 239.484157 L75.385211 241.482156 L72.721213 222.737249 L46.946966 226.400246 L67.048102 199.639115 L57.675649 200.971114 L67.232775 175.708482 L61.374992 176.540981 Z" fill="#888" fill-opacity="0.18" stroke="#000" stroke-width="1"/>
  <path d="M889.337699 112.917876 L881.156377 142.576714 L876.496622 138.930707 L872.164057 165.590942 L864.708448 159.757331 L868.763442 192.980378 L848.260520 176.937949 L836.593299 191.849165 L825.409886 183.098749 L837.077108 168.187533 L816.574186 152.145104 L849.797232 148.090110 L842.341624 142.256499 L867.177112 131.638694 L862.517357 127.992687 Z" fill="#888" fill-opacity="0.18" stroke="#000" stroke-width="1"/>
  <path d="M313.290806 921.878754 L301.290620 893.548978 L307.207162 893.514165 L294.051518 869.924586 L303.517985 869.868885 L279.712565 846.341968 L305.745350 846.188792 L305.633949 827.255857 L319.833650 827.172306 L319.945051 846.105241 L345.977836 845.952064 L322.450920 869.757484 L331.917387 869.701783 L319.040246 893.444540 L324.956788 893.409727 Z" fill="#888" fill-opacity="0.18" stroke="#000" stroke-width="1"/>
  <path d="M674.278723 828.473162 L671.933936 797.796092 L677.553000 799.648871 L672.602177 773.096497 L681.592680 776.060944 L666.527540 746.173566 L691.251425 754.325797 L697.180320 736.344790 L710.666075 740.791461 L704.737180 758.772468 L729.461065 766.924699 L699.573688 781.989839 L708.564191 784.954287 L688.791130 803.354431 L694.410195 805.207210 Z" fill="#888" fill-opacity="0.18" stroke="#000" stroke-width="1"/>
  <path d="M558.738516 322.695110 L563.530948 353.086116 L557.781625 351.688988 L564.841624 377.759962 L555.642707 375.524557 L573.051487 404.110361 L547.754466 397.962998 L543.283657 416.360832 L529.485281 413.007725 L533.956091 394.609891 L508.659070 388.462528 L537.244873 371.053748 L528.045957 368.818343 L546.282979 348.894732 L540.533656 347.497604 Z" fill="#888" fill-opacity="0.18" stroke="#000" stroke-width="1"/>
  <path d="M770.256685 593.554008 L739.977108 588.101678 L743.184591 583.129884 L716.240953 581.237898 L721.372926 573.283028 L688.655818 580.340272 L702.768744 558.464379 L686.859003 548.200433 L694.556962 536.268128 L710.466703 546.532073 L724.579628 524.656180 L731.636872 557.373288 L736.768844 549.418417 L749.599557 573.186296 L752.807040 568.214502 Z" fill="#888" fill-opacity="0.18" stroke="#000" stroke-width="1"/>
  <path d="M723.783481 325.256854 L702.849691 347.803630 L700.395662 342.419912 L684.259654 364.080209 L680.333207 355.466260 L668.614451 386.817250 L657.816722 363.128890 L640.588824 370.981783 L634.699154 358.060860 L651.927052 350.207966 L641.129323 326.519606 L672.480313 338.238362 L668.553866 329.624413 L695.487604 331.652476 L693.033574 326.268757 Z" fill="#888" fill-opacity="0.18" stroke="#000" stroke-width="1"/>
  <path d="M93.514549 534.538936 L96.040087 503.876217 L101.296373 506.592490 L100.597635 479.591545 L109.007692 483.937582 L98.847640 452.047346 L121.975298 463.998947 L130.667371 447.178831 L143.282458 453.697886 L134.590385 470.518002 L157.718044 482.469602 L125.827808 492.629655 L134.237866 496.975692 L111.808945 512.025036 L117.065231 514.741309 Z" fill="#888" fill-opacity="0.18" stroke="#000" stroke-width="1"/>
  <path d="M567.415042 801.629217 L597.458362 794.997505 L596.413449 800.821150 L622.006836 792.188780 L620.334976 801.506612 L647.809205 782.391681 L643.211591 808.015718 L661.847255 811.359437 L659.339466 825.336185 L640.703802 821.992466 L636.106189 847.616504 L616.991258 820.142276 L615.319398 829.460108 L594.323625 812.468440 L593.278713 818.292085 Z" fill="#888" fill-opacity="0.18" stroke="#000" stroke-width="1"/>
  <path d="M508.812515 945.504005 L537.908323 935.503273 L537.531544 941.407908 L561.978999 929.924826 L561.376153 939.372243 L586.501810 917.260817 L584.843983 943.241213 L603.738816 944.446906 L602.834547 958.618031 L583.939713 957.412338 L582.281886 983.392734 L560.170460 958.267076 L559.567614 967.714493 L536.777986 953.217179 L536.401207 959.121815 Z" fill="#888" fill-opacity="0.18" stroke="#000" stroke-width="1"/>
  <path d="M880.005579 721.440612 L909.580786 712.961945 L908.898360 718.839102 L933.908327 708.639062 L932.816444 718.042513 L959.054779 697.263591 L956.052102 723.123082 L974.859005 725.306847 L973.221181 739.412024 L954.414279 737.228259 L951.411602 763.087751 L930.632680 736.849416 L929.540797 746.252868 L907.533507 730.593416 L906.851080 736.470573 Z" fill="#888" fill-opacity="0.18" stroke="#000" stroke-width="1"/>
  <path d="M586.514008 475.508920 L592.034937 445.241776 L596.999450 448.460517 L598.952483 421.521235 L606.895704 426.671220 L599.912613 393.938205 L621.756471 408.100663 L632.056441 392.214221 L643.971272 399.939198 L633.671303 415.825640 L655.515161 429.988099 L622.782146 436.971189 L630.725367 442.121174 L606.928476 454.897998 L611.892989 458.116738 Z" fill="#888" fill-opacity="0.18" stroke="#000" stroke-width="1"/>
  <path d="M354.437688 494.180375 L385.180502 495.388713 L382.692127 500.756643 L409.638272 498.900695 L405.656872 507.489383 L437.082091 495.971160 L426.133243 519.590053 L443.310620 527.552851 L437.338521 540.435884 L420.161144 532.473085 L409.212297 556.091978 L397.694074 524.666759 L393.712675 533.255448 L377.715378 511.492503 L375.227004 516.860433 Z" fill="#888" fill-opacity="0.18" stroke="#000" stroke-width="1"/>
  <path d="M975.848467 238.728416 L964.849140 267.461593 L960.562136 263.383815 L953.682432 289.502944 L946.823225 282.978499 L947.660129 316.437629 L928.797310 298.495405 L915.748420 312.213818 L905.459609 302.427150 L918.508500 288.708737 L899.645681 270.766512 L933.104811 269.929608 L926.245605 263.405163 L951.988127 255.228258 L947.701123 251.150480 Z" fill="#888" fill-opacity="0.18" stroke="#000" stroke-width="1"/>
  <path d="M159.023158 835.023834 L159.035361 804.257285 L164.495976 806.535084 L161.593816 779.681467 L170.330800 783.325945 L157.599534 752.372291 L181.626240 762.394604 L188.915195 744.920636 L202.020671 750.387352 L194.731716 767.861320 L218.758422 777.883633 L187.804768 790.614900 L196.541752 794.259377 L175.417206 811.090681 L180.877821 813.368479 Z" fill="#888" fill-opacity="0.18" stroke="#000" stroke-width="1"/>
  <path d="M964.654723 944.133020 L993.352047 933.040490 L993.198552 938.955143 L1017.194854 926.556886 L1016.949262 936.020331 L1041.221854 912.975699 L1040.546476 939.000172 L1059.473366 939.491356 L1059.104978 953.686524 L1040.178088 953.195340 L1039.502710 979.219813 L1016.458078 954.947221 L1016.212486 964.410666 L992.891562 950.784449 L992.738067 956.699102 Z" fill="#888" fill-opacity="0.18" stroke="#000" stroke-width="1"/>
  <path d="M80.343365 674.800808 L110.996004 677.445876 L108.259258 682.691531 L135.262722 682.098072 L130.883929 690.491121 L162.813535 680.455481 L150.771854 703.536366 L167.557952 712.293952 L160.989762 724.883526 L144.203664 716.125940 L132.161983 739.206825 L122.126343 707.277219 L117.747549 715.670268 L102.785767 693.182843 L100.049021 698.428499 Z" fill="#888" fill-opacity="0.18" stroke="#000" stroke-width="1"/>
  <path d="M623.458992 942.873227 L650.963492 956.660293 L646.481727 960.522996 L671.792417 969.952110 L664.621594 976.132433 L697.999461 978.608683 L678.279696 995.604572 L690.640343 1009.946219 L679.884107 1019.216704 L667.523461 1004.875057 L647.803696 1021.870946 L650.279947 988.493080 L643.109123 994.673403 L637.518198 968.248400 L633.036433 972.111102 Z" fill="#888" fill-opacity="0.18" stroke="#000" stroke-width="1"/>
  <path d="M1030.357146 1031.209196 L1001.210495 1041.060763 L1001.617513 1035.158135 L977.111561 1046.515843 L977.762790 1037.071638 L952.524204 1059.054077 L954.315085 1033.082513 L935.426676 1031.780054 L936.403520 1017.613747 L955.291930 1018.916206 L957.082811 992.944643 L979.065249 1018.183229 L979.716479 1008.739024 L1002.431550 1023.352879 L1002.838569 1017.450251 Z" fill="#888" fill-opacity="0.18" stroke="#000" stroke-width="1"/>
  <path d="M1003.168874 827.545543 L1020.421701 853.019464 L1014.623606 854.197930 L1032.093279 874.797682 L1022.816328 876.683228 L1050.722571 895.161740 L1025.210955 900.346992 L1028.982048 918.900894 L1015.066621 921.729213 L1011.295529 903.175311 L985.783913 908.360563 L1004.262426 880.454320 L994.985475 882.339866 L1003.027417 856.554862 L997.229323 857.733329 Z" fill="#888" fill-opacity="0.18" stroke="#000" stroke-width="1"/>
  <path d="M401.983679 401.527652 L410.965589 430.953933 L405.077646 430.371854 L415.702807 455.204196 L406.282099 454.272871 L427.505556 480.152954 L401.598609 477.591810 L399.735959 496.433226 L385.604897 495.036238 L387.467547 476.194822 L361.560600 473.633678 L387.440683 452.410221 L378.019975 451.478896 L393.301761 429.207698 L387.413819 428.625620 Z" fill="#888" fill-opacity="0.18" stroke="#000" stroke-width="1"/>
  <path d="M777.611014 936.983833 L754.692784 957.510289 L752.744170 951.923735 L734.684906 972.008610 L731.567123 963.070124 L717.015364 993.210796 L708.441462 968.629959 L690.564489 974.865525 L685.887815 961.457795 L703.764787 955.222230 L695.190885 930.641393 L725.331557 945.193151 L722.213775 936.254665 L748.846941 940.750627 L746.898327 935.164073 Z" fill="#888" fill-opacity="0.18" stroke="#000" stroke-width="1"/>
  <path d="M156.063645 224.557901 L143.355953 196.538351 L149.269755 196.354999 L135.525984 173.103161 L144.988068 172.809799 L120.599451 149.887993 L146.620184 149.081247 L146.033459 130.157078 L160.226586 129.717035 L160.813310 148.641204 L186.834043 147.834457 L163.912237 172.223074 L173.374322 171.929712 L161.097361 195.988296 L167.011164 195.804945 Z" fill="#888" fill-opacity="0.18" stroke="#000" stroke-width="1"/>
  <path d="M387.292806 287.681748 L406.462771 311.746101 L400.773096 313.369145 L419.782561 332.557149 L410.679080 335.154021 L439.929961 351.420544 L414.895389 358.561941 L420.089132 376.768902 L406.433911 380.664210 L401.240168 362.457248 L376.205595 369.598645 L392.472119 340.347764 L383.368638 342.944635 L389.393745 316.615235 L383.704069 318.238280 Z" fill="#888" fill-opacity="0.18" stroke="#000" stroke-width="1"/>
  <path d="M627.530675 784.492839 L599.845958 771.071322 L604.276162 767.149591 L578.842789 758.056584 L585.931115 751.781814 L552.523375 749.747923 L572.016272 732.492306 L559.466733 718.315653 L570.099222 708.903499 L582.648762 723.080151 L602.141659 705.824534 L600.107768 739.232274 L607.196094 732.957505 L613.136570 759.306129 L617.566774 755.384398 Z" fill="#888" fill-opacity="0.18" stroke="#000" stroke-width="1"/>
  <path d="M868.992203 532.280328 L838.602066 527.482387 L841.701563 522.442565 L814.723384 521.132186 L819.682578 513.068471 L787.125305 520.829770 L800.763091 498.654555 L784.635662 488.736166 L792.074454 476.640594 L808.201883 486.558984 L821.839668 464.383769 L829.600968 496.941042 L834.560163 488.877327 L847.900556 512.362922 L851.000053 507.323100 Z" fill="#888" fill-opacity="0.18" stroke="#000" stroke-width="1"/>
  <path d="M527.363935 887.945732 L551.466441 868.823758 L553.078144 874.516657 L572.303991 855.545466 L574.882716 864.654104 L591.207497 835.435696 L598.298992 860.484449 L616.516267 855.326998 L620.384355 868.989955 L602.167080 874.147406 L609.258575 899.196159 L580.040167 882.871379 L582.618893 891.980017 L556.301551 885.902454 L557.913255 891.595352 Z" fill="#888" fill-opacity="0.18" stroke="#000" stroke-width="1"/>
  <path d="M1038.598971 199.839020 L1041.395436 230.478218 L1035.749686 228.708419 L1041.091140 255.184977 L1032.057940 252.353299 L1047.561744 282.015495 L1022.720444 274.228379 L1017.057088 292.294779 L1003.507288 288.047262 L1009.170644 269.980862 L984.329344 262.193746 L1013.991540 246.689942 L1004.958340 243.858264 L1024.458186 225.168821 L1018.812436 223.399022 Z" fill="#888" fill-opacity="0.18" stroke="#000" stroke-width="1"/>
  <path d="M848.856734 98.915469 L824.634900 117.886063 L823.058895 112.183179 L803.714570 131.033546 L801.192961 121.908931 L784.685446 151.024490 L777.751022 125.931799 L759.501793 130.975017 L755.719379 117.288095 L773.968609 112.244877 L767.034185 87.152187 L796.149744 103.659702 L793.628135 94.535087 L819.906884 100.777410 L818.330878 95.074526 Z" fill="#888" fill-opacity="0.18" stroke="#000" stroke-width="1"/>
  <path d="M959.951060 471.962733 L958.166819 441.247962 L963.751116 443.203036 L959.285956 416.564688 L968.220831 419.692805 L953.703938 389.535325 L978.274843 398.137648 L984.531078 380.267898 L997.933390 384.960074 L991.677155 402.829824 L1016.248061 411.432146 L986.090580 425.949040 L995.025455 429.077157 L974.919709 447.113183 L980.504006 449.068256 Z" fill="#888" fill-opacity="0.18" stroke="#000" stroke-width="1"/>
  <path d="M740.126506 427.675233 L753.768725 455.251863 L747.864426 455.633867 L762.381902 478.410657 L752.935022 479.021863 L778.080237 501.111045 L752.101319 502.791864 L753.323732 521.685623 L739.153413 522.602433 L737.931000 503.708674 L711.952081 505.389492 L734.041263 480.244277 L724.594384 480.855483 L736.055826 456.397876 L730.151527 456.779880 Z" fill="#888" fill-opacity="0.18" stroke="#000" stroke-width="1"/>
  <path d="M710.163140 875.144953 L692.488956 900.328358 L689.325791 895.328251 L676.284326 918.981146 L671.223262 910.980975 L663.875494 943.634062 L649.957568 921.633591 L633.957226 931.755719 L626.365630 919.755462 L642.365973 909.633334 L628.448047 887.632864 L661.101135 894.980632 L656.040071 886.980461 L682.999461 885.328037 L679.836296 880.327930 Z" fill="#888" fill-opacity="0.18" stroke="#000" stroke-width="1"/>
  <path d="M461.097926 735.816909 L437.542765 755.609208 L435.771585 749.963891 L417.086914 769.468308 L414.253026 760.435801 L398.756479 790.101789 L390.963286 765.262395 L372.898272 770.930171 L368.647440 757.381411 L386.712454 751.713635 L378.919261 726.874240 L408.585249 742.370787 L405.751361 733.338280 L432.229225 738.673257 L430.458045 733.027940 Z" fill="#888" fill-opacity="0.18" stroke="#000" stroke-width="1"/>
  <path d="M551.705457 669.560446 L582.318157 666.487454 L580.599406 672.148953 L607.026656 666.568660 L604.276654 675.627059 L633.797657 659.856066 L626.235151 684.766664 L644.351949 690.266668 L640.226946 703.854267 L622.110148 698.354262 L614.547642 723.264860 L598.776650 693.743857 L596.026648 702.802256 L577.161903 683.471952 L575.443152 689.133451 Z" fill="#888" fill-opacity="0.18" stroke="#000" stroke-width="1"/>
  <path d="M873.524755 976.424223 L859.658521 948.959551 L865.559516 948.529500 L850.857124 925.871633 L860.298715 925.183552 L834.974532 903.299777 L860.938909 901.407553 L859.562746 882.524370 L873.725133 881.492248 L875.101296 900.375430 L901.065672 898.483206 L879.181898 923.807389 L888.623489 923.119307 L877.361505 947.669398 L883.262500 947.239347 Z" fill="#888" fill-opacity="0.18" stroke="#000" stroke-width="1"/>
  <path d="M521.040984 991.389895 L551.641637 988.199179 L549.944675 993.867248 L576.350266 988.185348 L573.635126 997.254258 L603.095250 981.369835 L595.628614 1006.309336 L613.766433 1011.739617 L609.693722 1025.342981 L591.555904 1019.912700 L584.089267 1044.852201 L568.204845 1015.392076 L565.489705 1024.460986 L546.550749 1005.203384 L544.853786 1010.871453 Z" fill="#888" fill-opacity="0.18" stroke="#000" stroke-width="1"/>
  <path d="M567.978158 787.941227 L539.792974 775.605261 L544.067494 771.514397 L518.300096 763.416219 L525.139328 756.870837 L491.677795 756.136213 L510.485681 738.136414 L497.394918 724.457951 L507.653765 714.639879 L520.744528 728.318341 L539.552414 710.318541 L538.817790 743.780074 L545.657021 737.234692 L552.616533 763.332670 L556.891052 759.241806 Z" fill="#888" fill-opacity="0.18" stroke="#000" stroke-width="1"/>
  <path d="M202.377256 995.895738 L215.338159 967.992411 L219.332766 972.357018 L228.003062 946.776455 L234.394432 953.759827 L235.874436 920.322970 L253.450705 939.527244 L267.417450 926.744503 L277.004506 937.219561 L263.037761 950.002302 L280.614030 969.206576 L247.177173 967.726572 L253.568544 974.709944 L227.321979 981.086234 L231.316586 985.450841 Z" fill="#888" fill-opacity="0.18" stroke="#000" stroke-width="1"/>
  <path d="M461.867499 938.616720 L482.209924 915.534986 L484.802656 920.853297 L500.371886 898.782087 L504.520257 907.291383 L515.422571 875.647215 L526.830591 899.047780 L543.849183 890.751038 L550.071740 903.514982 L533.053147 911.811724 L544.461167 935.212289 L512.816999 924.309976 L516.965370 932.819272 L489.988119 931.489917 L492.580851 936.808227 Z" fill="#888" fill-opacity="0.18" stroke="#000" stroke-width="1"/>
  <path d="M431.038666 1038.733525 L400.630784 1043.417689 L402.048379 1037.673378 L375.952427 1044.640481 L378.220579 1035.449584 L349.572955 1052.756445 L355.810375 1027.481478 L337.428581 1022.945173 L340.830809 1009.158827 L359.212603 1013.695132 L365.450023 988.420165 L382.756884 1017.067789 L385.025037 1007.876892 L404.883570 1026.184757 L406.301165 1020.440446 Z" fill="#888" fill-opacity="0.18" stroke="#000" stroke-width="1"/>
  <path d="M967.607096 792.197410 L983.023477 765.571936 L986.609628 770.277911 L997.543998 745.580163 L1003.281839 753.109723 L1007.761138 719.941219 L1023.540201 740.647511 L1038.599323 729.171829 L1047.206084 740.466170 L1032.146963 751.941852 L1047.926026 772.648144 L1014.757521 768.168845 L1020.495362 775.698406 L993.781929 779.689862 L997.368079 784.395838 Z" fill="#888" fill-opacity="0.18" stroke="#000" stroke-width="1"/>
  <path d="M445.015405 401.225501 L466.062165 423.666860 L460.521779 425.743107 L481.015618 443.336907 L472.151000 446.658903 L502.617534 460.515458 L478.239835 469.650947 L484.883827 487.380182 L471.586901 492.363176 L464.942909 474.633940 L440.565210 483.769429 L454.421765 453.302895 L445.557147 456.624891 L449.441007 429.895602 L443.900621 431.971849 Z" fill="#888" fill-opacity="0.18" stroke="#000" stroke-width="1"/>
  <path d="M512.440723 859.965995 L482.406734 866.639837 L483.443477 860.814732 L457.862223 869.482990 L459.521013 860.162822 L432.073621 879.316269 L436.635291 853.685808 L417.994956 850.368229 L420.483140 836.387978 L439.123475 839.705556 L443.685145 814.075096 L462.838591 841.522487 L464.497380 832.202320 L485.516964 849.164523 L486.553707 843.339418 Z" fill="#888" fill-opacity="0.18" stroke="#000" stroke-width="1"/>
  <path d="M64.848807 331.706464 L67.667871 301.069338 L72.897904 303.835823 L72.457773 276.829425 L80.825825 281.255801 L70.971636 249.269730 L93.983780 261.442265 L102.836533 244.706161 L115.388611 251.345726 L106.535858 268.081830 L129.548001 280.254365 L97.561930 290.108554 L105.929982 294.534931 L83.357969 309.368793 L88.588001 312.135279 Z" fill="#888" fill-opacity="0.18" stroke="#000" stroke-width="1"/>
  <path d="M326.303865 724.139222 L336.669246 753.107127 L330.760344 752.804539 L342.549576 777.105841 L333.095333 776.621700 L355.520589 801.467660 L329.521420 800.136273 L328.553139 819.044759 L314.371774 818.318547 L315.340056 799.410061 L289.340887 798.078674 L314.186847 775.653418 L304.732604 775.169277 L318.942540 752.199363 L313.033638 751.896775 Z" fill="#888" fill-opacity="0.18" stroke="#000" stroke-width="1"/>
  <path d="M627.676375 460.232744 L654.244363 475.747985 L649.525090 479.316619 L674.182025 490.342715 L666.631189 496.052529 L699.782815 500.655084 L679.018016 516.357073 L690.437644 531.458745 L679.111390 540.023466 L667.691762 524.921794 L646.926962 540.623783 L651.529517 507.472157 L643.978681 513.181972 L640.086545 486.453887 L635.367272 490.022521 Z" fill="#888" fill-opacity="0.18" stroke="#000" stroke-width="1"/>
  <path d="M927.226169 752.866258 L936.394475 782.234997 L930.502960 781.690263 L941.285357 806.454737 L931.858933 805.583163 L953.246056 831.328158 L927.323391 828.931328 L925.580242 847.784176 L911.440607 846.476814 L913.183756 827.623967 L887.261090 825.227137 L913.006086 803.840014 L903.579662 802.968439 L918.719931 780.600795 L912.828416 780.056061 Z" fill="#888" fill-opacity="0.18" stroke="#000" stroke-width="1"/>
  <path d="M271.026770 448.383629 L301.095765 441.869321 L300.028113 447.688840 L325.655023 439.156506 L323.946780 448.467736 L351.495463 429.460268 L346.797795 455.066151 L365.420255 458.482637 L362.857891 472.449483 L344.235430 469.032997 L339.537762 494.638880 L320.530294 467.090197 L318.822050 476.401427 L297.892809 459.327878 L296.825157 465.147397 Z" fill="#888" fill-opacity="0.18" stroke="#000" stroke-width="1"/>
  <path d="M873.755723 580.217045 L843.210226 583.898523 L844.815991 578.203947 L818.505002 584.308953 L821.074227 575.197631 L791.872860 591.552874 L798.938228 566.496739 L780.715584 561.358289 L784.569421 547.691306 L802.792065 552.829756 L809.857433 527.773620 L826.212676 556.974987 L828.781901 547.863665 L848.027522 566.814795 L849.633288 561.120218 Z" fill="#888" fill-opacity="0.18" stroke="#000" stroke-width="1"/>
  <path d="M893.854546 885.026073 L924.412660 888.601316 L921.517786 893.761392 L948.526813 893.988721 L943.895015 902.244843 L976.114815 893.184034 L963.377370 915.888369 L979.889613 925.151966 L972.941916 937.536149 L956.429672 928.272552 L943.692226 950.976887 L934.631418 918.757086 L929.999619 927.013208 L915.728038 904.081545 L912.833163 909.241621 Z" fill="#888" fill-opacity="0.18" stroke="#000" stroke-width="1"/>
  <path d="M584.237241 126.053063 L588.047915 95.523415 L593.185524 98.457976 L593.621027 71.451503 L601.841203 76.146801 L593.029008 43.858118 L615.634491 56.770187 L625.025086 40.329836 L637.355349 47.372782 L627.964754 63.813133 L650.570237 76.725202 L618.281554 85.537396 L626.501729 90.232694 L603.460744 104.327098 L608.598353 107.261659 Z" fill="#888" fill-opacity="0.18" stroke="#000" stroke-width="1"/>
  <path d="M331.939022 646.640416 L362.455915 650.551924 L359.504398 655.679811 L386.509285 656.204528 L381.786857 664.409148 L414.104475 655.703668 L401.117799 678.266372 L417.527039 687.711227 L410.443397 700.018157 L394.034158 690.573301 L381.047482 713.136005 L372.342002 680.818387 L367.619575 689.023007 L353.601364 665.935586 L350.649846 671.063473 Z" fill="#888" fill-opacity="0.18" stroke="#000" stroke-width="1"/>
  <path d="M200.836378 89.510046 L227.826798 104.278183 L223.208903 107.977064 L248.163798 118.311107 L240.775165 124.229317 L274.042272 127.905375 L253.723532 144.180452 L265.559952 158.957718 L254.477002 167.835033 L242.640582 153.057767 L222.321842 169.332844 L225.997899 136.065737 L218.609266 141.983947 L213.973112 115.374826 L209.355216 119.073708 Z" fill="#888" fill-opacity="0.18" stroke="#000" stroke-width="1"/>
  <path d="M944.414783 666.781167 L919.963990 648.106601 L925.087493 645.147479 L901.979298 631.163539 L910.176901 626.428943 L877.846402 617.771424 L900.389812 604.751285 L890.920620 588.356078 L903.217026 581.254184 L912.686218 597.649391 L935.229628 584.629252 L926.572108 616.959751 L934.769712 612.225155 L935.334497 639.229234 L940.457999 636.270111 Z" fill="#888" fill-opacity="0.18" stroke="#000" stroke-width="1"/>
  <path d="M897.837525 246.536116 L890.226901 216.725730 L896.081601 217.579642 L886.616908 192.282234 L895.984429 193.648493 L875.981275 166.814045 L901.741956 170.571257 L904.474474 151.836216 L918.525755 153.885604 L915.793237 172.620645 L941.553919 176.377858 L914.719470 196.381012 L924.086990 197.747271 L907.791002 219.287466 L913.645702 220.141378 Z" fill="#888" fill-opacity="0.18" stroke="#000" stroke-width="1"/>
  <path d="M850.967980 535.890303 L881.683093 534.111969 L879.726946 539.695889 L906.366152 535.235853 L903.236317 544.170126 L933.396588 529.659033 L924.789540 554.228284 L942.658086 560.487955 L937.963333 573.889365 L920.094787 567.629693 L911.487738 592.198944 L896.976645 562.038672 L893.846810 570.972945 L875.814651 550.863731 L873.858504 556.447651 Z" fill="#888" fill-opacity="0.18" stroke="#000" stroke-width="1"/>
  <path d="M254.417442 295.171422 L228.579367 278.468891 L233.455413 275.117645 L209.323126 262.986201 L217.124800 257.624207 L184.215629 251.525006 L205.670234 236.779522 L194.946246 221.176173 L206.648757 213.133182 L217.372745 228.736531 L238.827350 213.991047 L232.728149 246.900218 L240.529824 241.538224 L243.207507 268.415152 L248.083553 265.063906 Z" fill="#888" fill-opacity="0.18" stroke="#000" stroke-width="1"/>
  <path d="M842.714014 987.863244 L873.097295 992.704413 L869.990632 997.739820 L896.966920 999.088577 L891.996258 1007.145229 L924.564540 999.430253 L910.895222 1021.586045 L927.008525 1031.527367 L919.552533 1043.612344 L903.439230 1033.671022 L889.769912 1055.826813 L882.054936 1023.258532 L877.084275 1031.315183 L863.777305 1007.810635 L860.670642 1012.846042 Z" fill="#888" fill-opacity="0.18" stroke="#000" stroke-width="1"/>
  <path d="M619.036547 134.720778 L638.204803 110.655064 L641.059053 115.837721 L655.510334 93.018875 L660.077134 101.311127 L669.390764 69.163498 L681.949464 91.967191 L698.533968 82.833591 L705.384168 95.271969 L688.799663 104.405569 L701.358363 127.209262 L669.210733 117.895632 L673.777533 126.187884 L646.767553 126.203036 L649.621803 131.385694 Z" fill="#888" fill-opacity="0.18" stroke="#000" stroke-width="1"/>
  <path d="M469.359633 91.567760 L498.446422 101.594690 L494.515104 106.016388 L520.850799 112.013924 L514.560690 119.088642 L547.972757 117.127120 L530.674957 136.582594 L544.824393 149.162812 L535.389229 159.774889 L521.239793 147.194671 L503.941993 166.650145 L501.980472 133.238078 L495.690363 140.312796 L486.652468 114.859786 L482.721150 119.281484 Z" fill="#888" fill-opacity="0.18" stroke="#000" stroke-width="1"/>
  <path d="M502.866653 520.041453 L511.838050 549.470940 L505.950316 548.886758 L516.566605 573.722894 L507.146230 572.788204 L528.360441 598.675866 L502.454410 596.105468 L500.585030 614.946217 L486.454468 613.544182 L488.323848 594.703432 L462.417818 592.133034 L488.305481 570.918823 L478.885106 569.984133 L494.174847 547.718395 L488.287113 547.134214 Z" fill="#888" fill-opacity="0.18" stroke="#000" stroke-width="1"/>
  <path d="M219.726873 440.132524 L244.799560 457.963426 L239.779822 461.095345 L263.350921 474.284074 L255.319341 479.295144 L287.925967 486.846418 L265.839122 500.626862 L275.861262 516.690022 L263.813892 524.206628 L253.791752 508.143468 L231.704906 521.923911 L239.256181 489.317285 L231.224600 494.328355 L229.740347 467.359183 L224.720609 470.491102 Z" fill="#888" fill-opacity="0.18" stroke="#000" stroke-width="1"/>
  <path d="M440.569113 599.886794 L410.828464 607.765529 L411.629624 601.903377 L386.418464 611.595470 L387.700320 602.216027 L361.047072 622.459994 L364.572177 596.666526 L345.813291 594.102813 L347.736076 580.033649 L366.494962 582.597361 L370.020066 556.803893 L390.264033 583.457141 L391.545889 574.077698 L413.231944 590.179073 L414.033104 584.316921 Z" fill="#888" fill-opacity="0.18" stroke="#000" stroke-width="1"/>
  <path d="M813.450423 605.757078 L789.558531 625.141560 L787.884650 619.466633 L768.867476 638.646996 L766.189267 629.567112 L750.185078 658.962345 L742.820004 633.992663 L724.660235 639.349081 L720.642921 625.729254 L738.802690 620.372836 L731.437616 595.403154 L760.832849 611.407343 L758.154640 602.327458 L784.536889 608.116777 L782.863008 602.441849 Z" fill="#888" fill-opacity="0.18" stroke="#000" stroke-width="1"/>
  <path d="M592.585197 229.295178 L579.194192 201.595689 L585.101720 201.267367 L570.791868 178.359565 L580.243913 177.834249 L555.300510 155.517428 L581.293633 154.072808 L580.243001 135.168719 L594.421067 134.380744 L595.471700 153.284833 L621.464823 151.840214 L599.148002 176.783616 L608.600047 176.258300 L596.916776 200.610721 L602.824304 200.282398 Z" fill="#888" fill-opacity="0.18" stroke="#000" stroke-width="1"/>
  <path d="M871.269395 437.957552 L844.176478 423.378303 L848.768424 419.647256 L823.741955 409.487774 L831.089069 403.518099 L797.797096 400.074501 L818.001660 383.657895 L806.062310 368.963667 L817.082981 360.009154 L829.022331 374.703383 L849.226895 358.286776 L845.783297 391.578749 L853.130411 385.609074 L857.952317 412.185163 L862.544263 408.454116 Z" fill="#888" fill-opacity="0.18" stroke="#000" stroke-width="1"/>
  <path d="M249.505886 632.646076 L232.506473 607.002351 L238.315967 605.881429 L221.051393 585.109483 L230.346583 583.316008 L202.624921 564.561721 L228.186693 559.629664 L224.599743 541.039285 L238.542527 538.349072 L242.129478 556.939452 L267.691249 552.007395 L248.936963 579.729057 L258.232152 577.935582 L249.934954 603.639585 L255.744448 602.518663 Z" fill="#888" fill-opacity="0.18" stroke="#000" stroke-width="1"/>
  <path d="M963.884164 690.185616 L990.177422 674.209218 L991.068701 680.058347 L1012.504400 663.625147 L1013.930447 672.983753 L1033.761844 646.022122 L1037.683472 671.758287 L1056.400683 668.906193 L1058.539754 682.944101 L1039.822543 685.796195 L1043.744172 711.532360 L1016.782541 691.700963 L1018.208588 701.059569 L992.851260 691.756604 L993.742539 697.605732 Z" fill="#888" fill-opacity="0.18" stroke="#000" stroke-width="1"/>
  <path d="M460.588281 280.569579 L439.495520 258.171452 L445.031635 256.083841 L424.501740 238.532127 L433.359523 235.191950 L402.864622 221.397936 L427.223525 212.212448 L420.543171 194.496882 L433.829845 189.486616 L440.510200 207.202182 L464.869103 198.016695 L451.075089 228.511595 L459.932872 225.171418 L456.103863 251.908620 L461.639978 249.821009 Z" fill="#888" fill-opacity="0.18" stroke="#000" stroke-width="1"/>
  <path d="M794.962604 799.291316 L822.383817 785.339337 L822.832303 791.238959 L845.444122 776.465844 L846.161700 785.905239 L867.966242 760.512804 L869.939583 786.471142 L888.818374 785.035985 L889.894742 799.195078 L871.015951 800.630235 L872.989292 826.588573 L847.596857 804.784030 L848.314436 814.223426 L823.729277 803.038203 L824.177763 808.937825 Z" fill="#888" fill-opacity="0.18" stroke="#000" stroke-width="1"/>
  <path d="M545.131463 646.251232 L555.473792 617.275089 L559.852521 621.254211 L566.135807 594.985227 L573.141773 601.351822 L571.543347 567.920417 L590.809755 585.428556 L603.542946 571.416623 L614.051895 580.966517 L601.318704 594.978449 L620.585111 612.486588 L587.153706 614.085014 L594.159672 620.451610 L568.609979 629.212456 L572.988708 633.191578 Z" fill="#888" fill-opacity="0.18" stroke="#000" stroke-width="1"/>
  <path d="M850.088586 358.435450 L877.424346 372.554121 L872.896198 376.362342 L898.091011 386.096850 L890.845973 392.190004 L924.191454 395.069713 L904.267600 411.825888 L916.453909 426.315963 L905.586352 435.455695 L893.400043 420.965619 L873.476189 437.721794 L876.355897 404.376313 L869.110859 410.469468 L863.839900 383.978785 L859.311752 387.787007 Z" fill="#888" fill-opacity="0.18" stroke="#000" stroke-width="1"/>
  <path d="M65.610451 931.173776 L75.860241 902.164770 L80.251649 906.129896 L86.451057 879.840990 L93.477308 886.185191 L91.772184 852.759058 L111.094376 870.205613 L123.782779 856.153110 L134.322156 865.669412 L121.633753 879.721915 L140.955944 897.168470 L107.529811 898.873595 L114.556063 905.217796 L89.034463 914.060148 L93.425870 918.025274 Z" fill="#888" fill-opacity="0.18" stroke="#000" stroke-width="1"/>
  <path d="M953.804737 574.933866 L984.556043 575.902295 L982.109628 581.289477 L1009.040471 579.223337 L1005.126206 587.842829 L1036.460597 576.079761 L1025.696370 599.783363 L1042.935353 607.611892 L1037.063957 620.541130 L1019.824973 612.712601 L1009.060746 636.416203 L997.297677 605.081813 L993.383413 613.701305 L977.216797 592.063842 L974.770382 597.451025 Z" fill="#888" fill-opacity="0.18" stroke="#000" stroke-width="1"/>
  <path d="M782.708547 418.023997 L759.481641 397.847488 L764.781237 395.216714 L742.599032 379.806035 L751.078384 375.596797 L719.356907 364.921511 L742.675127 353.346106 L734.256651 336.387401 L746.975679 330.073544 L755.394156 347.032249 L778.712375 335.456844 L768.037089 367.178320 L776.516442 362.969082 L775.380427 389.955166 L780.680023 387.324392 Z" fill="#888" fill-opacity="0.18" stroke="#000" stroke-width="1"/>
  <path d="M539.647942 580.923491 L553.169089 553.287297 L557.074838 557.731598 L566.259395 532.331142 L572.508592 539.442023 L574.662802 506.041826 L591.848095 525.596750 L606.069858 513.098355 L615.443654 523.764677 L601.221892 536.263072 L618.407185 555.817996 L585.006987 553.663786 L591.256185 560.774668 L564.886335 566.620200 L568.792083 571.064500 Z" fill="#888" fill-opacity="0.18" stroke="#000" stroke-width="1"/>
  <path d="M718.110947 731.345362 L688.022126 737.767473 L689.107611 731.951254 L663.454668 740.404997 L665.191444 731.099047 L637.584628 750.021984 L642.360761 724.430620 L623.748860 720.957069 L626.354024 706.998143 L644.965925 710.471694 L649.742058 684.880330 L668.664995 712.487146 L670.401770 703.181195 L691.278580 720.318816 L692.364065 714.502597 Z" fill="#888" fill-opacity="0.18" stroke="#000" stroke-width="1"/>
  <path d="M1036.101598 360.583532 L1005.403667 362.637243 L1007.309660 357.036004 L980.711522 361.734757 L983.761110 352.772776 L953.732185 367.553758 L962.118554 342.908308 L944.194591 336.809131 L948.768974 323.366159 L966.692937 329.465336 L975.079306 304.819887 L989.860288 334.848812 L992.909877 325.886831 L1011.121646 345.833527 L1013.027639 340.232289 Z" fill="#888" fill-opacity="0.18" stroke="#000" stroke-width="1"/>
  <path d="M809.683210 271.751799 L780.191793 280.517469 L780.817075 274.633958 L755.907410 285.076556 L756.907861 275.662938 L730.872689 296.695856 L733.623929 270.808406 L714.796693 268.807505 L716.297369 254.687078 L735.124605 256.687979 L737.875845 230.800530 L758.908762 256.835702 L759.909213 247.422084 L782.067638 262.866936 L782.692920 256.983425 Z" fill="#888" fill-opacity="0.18" stroke="#000" stroke-width="1"/>
  <path d="M257.162469 610.567574 L283.591557 626.318256 L278.840764 629.844819 L303.398760 641.089554 L295.797491 646.732054 L328.906915 651.628976 L308.003424 667.145853 L319.288425 682.348391 L307.886522 690.812142 L296.601521 675.609603 L275.698030 691.126479 L280.594952 658.017055 L272.993683 663.659556 L269.339177 636.897945 L264.588384 640.424507 Z" fill="#888" fill-opacity="0.18" stroke="#000" stroke-width="1"/>
  <path d="M127.148964 434.817099 L118.306860 405.348508 L124.191973 405.958533 L113.684826 381.076027 L123.101007 382.052068 L102.000657 356.071516 L127.895153 358.755627 L129.847234 339.923267 L143.971504 341.387328 L142.019423 360.219688 L167.913919 362.903800 L141.933367 384.004149 L151.349547 384.980189 L135.962198 407.178584 L141.847311 407.788609 Z" fill="#888" fill-opacity="0.18" stroke="#000" stroke-width="1"/>
  <path d="M442.889025 811.925211 L414.392255 823.523261 L414.441179 817.606819 L390.667778 830.427297 L390.746056 820.960990 L366.884592 844.431063 L367.099857 818.398718 L348.167242 818.242162 L348.284659 804.042701 L367.217274 804.199257 L367.432538 778.166911 L390.902612 802.028375 L390.980890 792.562067 L414.539026 805.773935 L414.587950 799.857493 Z" fill="#888" fill-opacity="0.18" stroke="#000" stroke-width="1"/>
  <path d="M496.061991 468.474797 L526.717841 465.867204 L524.913283 471.501940 L551.422255 466.323753 L548.534962 475.339331 L578.292139 460.018619 L570.352083 484.811458 L588.383239 490.586044 L584.052300 504.109411 L566.021144 498.334825 L558.081088 523.127664 L542.760376 493.370487 L539.873083 502.386064 L521.304166 482.771412 L519.499608 488.406149 Z" fill="#888" fill-opacity="0.18" stroke="#000" stroke-width="1"/>
  <path d="M412.774045 94.673566 L382.841292 101.787703 L383.792389 95.948003 L358.341176 104.990957 L359.862930 95.647437 L332.699744 115.201852 L336.884569 89.507171 L318.197528 86.463662 L320.480160 72.448382 L339.167200 75.491891 L343.352025 49.797211 L362.906439 76.960397 L364.428193 67.616877 L385.694581 84.268603 L386.645678 78.428903 Z" fill="#888" fill-opacity="0.18" stroke="#000" stroke-width="1"/>
  <path d="M364.891199 946.508165 L356.973754 916.777797 L362.836944 917.571325 L353.112039 892.372804 L362.493142 893.642449 L342.214496 867.015577 L368.012531 870.507101 L370.551821 851.744894 L384.623476 853.649361 L382.084186 872.411569 L407.882222 875.903092 L381.255350 896.181739 L390.636454 897.451384 L374.563323 919.158382 L380.426513 919.951910 Z" fill="#888" fill-opacity="0.18" stroke="#000" stroke-width="1"/>
  <path d="M966.134221 136.955499 L994.675067 148.444658 L990.524562 152.661291 L1016.522203 159.986719 L1009.881395 166.733331 L1043.349946 166.468821 L1025.087724 185.022004 L1038.580948 198.303620 L1028.619736 208.423538 L1015.126512 195.141922 L996.864290 213.695105 L996.599780 180.226555 L989.958972 186.973167 L982.223552 161.094556 L978.073047 165.311188 Z" fill="#888" fill-opacity="0.18" stroke="#000" stroke-width="1"/>
  <path d="M213.325264 423.312294 L231.162668 398.244232 L234.293285 403.264782 L247.488125 379.697104 L252.497113 387.729983 L260.056842 355.125316 L273.831558 377.215734 L289.897316 367.197759 L297.410797 379.247078 L281.345039 389.265053 L295.119755 411.355471 L262.515088 403.795742 L267.524075 411.828621 L240.554519 413.305881 L243.685136 418.326430 Z" fill="#888" fill-opacity="0.18" stroke="#000" stroke-width="1"/>
  <path d="M381.359967 424.950775 L355.981306 407.558126 L360.945878 404.339476 L337.149223 391.562215 L345.092539 386.412376 L312.359653 379.428683 L334.203771 365.266627 L323.904094 349.379995 L335.819068 341.655237 L346.118745 357.541869 L367.962864 343.379813 L360.979171 376.112699 L368.922487 370.962860 L370.875023 397.902178 L375.839596 394.683529 Z" fill="#888" fill-opacity="0.18" stroke="#000" stroke-width="1"/>
  <path d="M345.415660 604.937098 L318.785031 589.529624 L323.489807 585.941899 L298.788402 575.015790 L306.316043 569.275431 L273.146042 564.807226 L293.847055 549.021238 L282.366337 533.965956 L293.657799 525.355417 L305.138517 540.410699 L325.839530 524.624712 L321.371325 557.794713 L328.898967 552.054353 L332.899358 578.766450 L337.604134 575.178726 Z" fill="#888" fill-opacity="0.18" stroke="#000" stroke-width="1"/>
  <path d="M828.248475 787.092215 L820.871432 757.223169 L826.719269 758.122884 L817.452887 732.752165 L826.809426 734.191708 L807.016937 707.201502 L832.747419 711.160247 L835.626506 692.447169 L849.661314 694.606484 L846.782227 713.319562 L872.512709 717.278307 L845.522503 737.070795 L854.879042 738.510339 L838.414942 759.922313 L844.262779 760.822028 Z" fill="#888" fill-opacity="0.18" stroke="#000" stroke-width="1"/>
  <path d="M263.659069 652.470963 L273.970131 681.458247 L268.061807 681.144583 L279.805465 705.467941 L270.352146 704.966079 L292.730788 729.854032 L266.734161 728.473911 L265.730437 747.380549 L251.550458 746.627756 L252.554182 727.721118 L226.557555 726.340997 L251.445508 703.962355 L241.992189 703.460493 L256.245158 680.517256 L250.336834 680.203592 Z" fill="#888" fill-opacity="0.18" stroke="#000" stroke-width="1"/>
</svg>
