<?xml version="1.0" encoding="UTF-8"?>
<svg xmlns="http://www.w3.org/2000/svg" width="1100" height="1100" viewBox="0 0 1100 1100">
  <rect x="0" y="0" width="1100" height="1100" fill="white"/>
  <text x="10.0" y="18.0" font-family="monospace" font-size="12">prefix=N156_job5048559_task156 run_id=156 L=10.8703157225 feas=0.000e+00 N=156</text>
  <rect x="40.000000" y="40.000000" width="1020.000000" height="1020.000000" fill="none" stroke="#000" stroke-width="2"/>
  <path d="M412.080892 764.050429 L432.452263 786.744190 L426.917026 788.681877 L446.845295 806.559912 L437.988916 809.660211 L467.880611 824.050410 L443.525570 832.576233 L449.726168 850.288990 L436.441601 854.939439 L430.241002 837.226682 L405.885961 845.752505 L420.276159 815.860810 L411.419781 818.961109 L415.846553 792.557251 L410.311316 794.494939 Z" fill="#888" fill-opacity="0.18" stroke="#000" stroke-width="1"/>
  <path d="M969.684920 486.973050 L999.276524 494.344385 L995.779275 499.052115 L1022.304144 502.684105 L1016.708545 510.216474 L1049.528462 505.374549 L1034.140566 526.088562 L1049.205303 537.279759 L1040.811905 548.578312 L1025.747169 537.387115 L1010.359273 558.101128 L1005.517348 525.281211 L999.921749 532.813579 L988.784776 508.467576 L985.287527 513.175306 Z" fill="#888" fill-opacity="0.18" stroke="#000" stroke-width="1"/>
  <path d="M688.872302 1011.848461 L658.927383 1017.619199 L660.117853 1011.876703 L634.528837 1019.748316 L636.433588 1010.560322 L608.701727 1028.768427 L613.939793 1003.501446 L595.563807 999.691943 L598.420933 985.909953 L616.796920 989.719456 L622.034986 964.452475 L640.243091 992.184336 L642.147842 982.996343 L662.498792 1000.391712 L663.689262 994.649216 Z" fill="#888" fill-opacity="0.18" stroke="#000" stroke-width="1"/>
  <path d="M883.403187 199.586640 L860.144149 219.310147 L858.363278 213.722485 L839.930544 233.138827 L837.081150 224.198567 L821.853985 253.672702 L814.018151 229.086987 L796.137631 234.785775 L791.863540 221.375385 L809.744061 215.676597 L801.908227 191.090882 L831.382362 206.318047 L828.532968 197.377787 L854.801535 202.547160 L853.020664 196.959497 Z" fill="#888" fill-opacity="0.18" stroke="#000" stroke-width="1"/>
  <path d="M157.030074 49.049536 L186.065476 58.373967 L182.262663 62.838504 L208.486998 68.227776 L202.402497 75.371035 L235.471896 72.724142 L218.739518 92.368103 L233.026034 104.537105 L223.899282 115.251993 L209.612766 103.082990 L192.880387 122.726951 L190.233494 89.657552 L184.148993 96.800810 L174.657036 71.767577 L170.854223 76.232113 Z" fill="#888" fill-opacity="0.18" stroke="#000" stroke-width="1"/>
  <path d="M134.421388 714.185447 L135.547952 683.710368 L140.874404 686.164424 L138.972434 659.459695 L147.494756 663.386184 L136.005173 632.264155 L159.441560 643.062001 L167.294538 626.017356 L180.078022 631.907090 L172.225043 648.951735 L195.661430 659.749580 L164.539401 671.239163 L173.061723 675.165652 L151.527307 691.072535 L156.853758 693.526591 Z" fill="#888" fill-opacity="0.18" stroke="#000" stroke-width="1"/>
  <path d="M710.949995 132.566583 L681.564074 140.719326 L682.290357 134.899877 L657.414739 144.797537 L658.576790 135.486418 L632.393864 155.859086 L635.589506 130.253509 L616.967269 127.929406 L618.710346 113.962728 L637.332584 116.286831 L640.528225 90.681254 L660.900893 116.864180 L662.062945 107.553061 L683.742921 123.260979 L684.469203 117.441529 Z" fill="#888" fill-opacity="0.18" stroke="#000" stroke-width="1"/>
  <path d="M368.351149 494.337987 L345.180832 514.165643 L343.374910 508.586026 L325.029471 528.084869 L322.139996 519.157482 L307.045215 548.699635 L299.099161 524.149321 L281.244387 529.928270 L276.910176 516.537190 L294.764949 510.758241 L286.818895 486.207927 L316.361048 501.302709 L313.471573 492.375322 L339.763068 497.426793 L337.957146 491.847176 Z" fill="#888" fill-opacity="0.18" stroke="#000" stroke-width="1"/>
  <path d="M504.426207 747.047250 L475.477596 756.637740 L475.916312 750.789578 L451.558488 761.900672 L452.260433 752.543612 L427.112920 774.181399 L429.043269 748.449485 L410.329149 747.045594 L411.382067 733.010005 L430.096187 734.413895 L432.026536 708.681980 L453.664323 733.829493 L454.366268 724.472433 L476.793743 739.093253 L477.232459 733.245090 Z" fill="#888" fill-opacity="0.18" stroke="#000" stroke-width="1"/>
  <path d="M829.310425 545.446603 L857.210506 533.134615 L857.332450 538.997942 L880.517481 525.610844 L880.712592 534.992168 L903.678122 511.051081 L904.214678 536.849720 L922.977325 536.459498 L923.269992 550.531483 L904.507345 550.921705 L905.043901 576.720345 L881.102815 553.754814 L881.297926 563.136138 L857.576339 550.724596 L857.698284 556.587924 Z" fill="#888" fill-opacity="0.18" stroke="#000" stroke-width="1"/>
  <path d="M687.389163 410.492992 L716.883319 418.245043 L713.325695 422.907315 L739.801559 426.880812 L734.109360 434.340448 L766.988947 429.921855 L751.335401 450.435854 L766.254673 461.820252 L757.716375 473.009706 L742.797103 461.625308 L727.143556 482.139308 L722.724963 449.259721 L717.032764 456.719357 L706.210447 432.231860 L702.652823 436.894133 Z" fill="#888" fill-opacity="0.18" stroke="#000" stroke-width="1"/>
  <path d="M721.767766 94.830091 L744.855508 74.906343 L746.684594 80.478409 L764.948866 60.903517 L767.875405 69.818822 L782.847321 40.214212 L790.895303 64.731301 L808.725913 58.878223 L813.115722 72.251181 L795.285111 78.104259 L803.333093 102.621348 L773.728483 87.649432 L776.655022 96.564737 L750.342768 91.622540 L752.171855 97.194606 Z" fill="#888" fill-opacity="0.18" stroke="#000" stroke-width="1"/>
  <path d="M640.271577 231.256632 L667.900333 244.165987 L663.565184 248.115666 L688.901226 256.766967 L681.964989 263.086453 L715.104298 264.628331 L696.029644 282.006918 L708.668617 295.879393 L698.264260 305.358623 L685.625288 291.486147 L666.550635 308.864734 L668.092513 275.725425 L661.156276 282.044911 L654.894887 256.015024 L650.559739 259.964703 Z" fill="#888" fill-opacity="0.18" stroke="#000" stroke-width="1"/>
  <path d="M210.302823 481.077248 L199.246646 509.498376 L195.019240 505.433586 L188.060375 531.285747 L181.296525 524.782084 L181.946991 557.950866 L163.346405 540.065793 L150.339079 553.593492 L140.193304 543.837997 L153.200630 530.310298 L134.600044 512.425224 L167.768826 511.774758 L161.004976 505.271095 L186.564427 497.304007 L182.337021 493.239218 Z" fill="#888" fill-opacity="0.18" stroke="#000" stroke-width="1"/>
  <path d="M390.357751 180.535421 L410.270378 157.438087 L412.897669 162.681255 L428.090303 140.637120 L432.293968 149.026190 L442.757479 117.544351 L454.317559 140.614293 L471.095699 132.206961 L477.401197 144.790566 L460.623058 153.197898 L472.183139 176.267839 L440.701300 165.804329 L444.904966 174.193399 L418.152251 173.167592 L420.779542 178.410761 Z" fill="#888" fill-opacity="0.18" stroke="#000" stroke-width="1"/>
  <path d="M896.749109 799.199219 L912.711102 825.184106 L906.917779 826.095637 L923.309212 847.263560 L914.039896 848.722009 L940.859309 868.249176 L915.368690 872.259912 L918.285588 890.798544 L904.381614 892.986218 L901.464715 874.447585 L875.974096 878.458321 L895.501263 851.638907 L886.231947 853.097356 L895.331134 827.918698 L889.537811 828.830229 Z" fill="#888" fill-opacity="0.18" stroke="#000" stroke-width="1"/>
  <path d="M649.099445 60.974673 L631.338934 85.765070 L628.251919 80.778708 L615.097901 104.096766 L610.158677 96.118585 L602.561286 128.412097 L588.978420 106.472100 L573.022059 116.350549 L565.613223 104.383278 L581.569583 94.504830 L567.986717 72.564834 L600.280228 80.162225 L595.341004 72.184044 L622.077888 70.805982 L618.990873 65.819619 Z" fill="#888" fill-opacity="0.18" stroke="#000" stroke-width="1"/>
  <path d="M185.575094 200.135054 L177.809807 229.625729 L173.149132 226.066013 L169.163753 252.540090 L161.706672 246.844544 L166.110509 279.726111 L145.603537 264.063359 L134.212445 278.977521 L123.026824 270.434202 L134.417916 255.520040 L113.910944 239.857289 L146.792511 235.453452 L139.335430 229.757906 L163.827781 218.946580 L159.167105 215.386864 Z" fill="#888" fill-opacity="0.18" stroke="#000" stroke-width="1"/>
  <path d="M131.929853 318.108599 L101.824825 313.241681 L104.915478 308.257572 L78.179607 306.859998 L83.124652 298.885424 L50.825605 306.459246 L64.424479 284.529168 L48.475332 274.639078 L55.892900 262.677217 L71.842047 272.567308 L85.440921 250.637230 L93.014743 282.936277 L97.959788 274.961703 L111.096785 298.289355 L114.187438 293.305246 Z" fill="#888" fill-opacity="0.18" stroke="#000" stroke-width="1"/>
  <path d="M822.221924 562.277921 L832.384693 591.030620 L826.528979 590.707983 L838.121000 614.840639 L828.751858 614.324419 L850.884164 639.037822 L825.119024 637.618218 L824.086585 656.356501 L810.032873 655.582172 L811.065312 636.843889 L785.300172 635.424285 L810.013575 613.291980 L800.644434 612.775760 L814.817552 590.062708 L808.961839 589.740071 Z" fill="#888" fill-opacity="0.18" stroke="#000" stroke-width="1"/>
  <path d="M421.023291 258.182210 L429.462560 287.487130 L423.636297 286.817701 L433.776362 311.595496 L424.454341 310.524411 L445.081679 336.507177 L419.446122 333.561691 L417.303950 352.205733 L403.320919 350.599104 L405.463090 331.955063 L379.827533 329.009577 L405.810299 308.382239 L396.488278 307.311154 L411.983771 285.478844 L406.157508 284.809416 Z" fill="#888" fill-opacity="0.18" stroke="#000" stroke-width="1"/>
  <path d="M776.226184 949.978307 L804.058317 962.443136 L799.787036 966.461797 L825.258496 974.705869 L818.424446 981.135726 L851.584213 982.146209 L832.790576 999.828315 L845.650289 1013.496415 L835.399214 1023.141200 L822.539501 1009.473100 L803.745863 1027.155206 L804.756346 993.995439 L797.922296 1000.425296 L791.244473 974.499118 L786.973192 978.517778 Z" fill="#888" fill-opacity="0.18" stroke="#000" stroke-width="1"/>
  <path d="M572.771939 1013.999813 L542.724231 1008.790704 L545.871389 1003.842080 L519.153148 1002.140421 L524.188600 994.222624 L491.805476 1001.428487 L505.652970 979.654544 L489.817375 969.583639 L497.370553 957.706943 L513.206148 967.777847 L527.053642 946.003904 L534.259505 978.387029 L539.294957 970.469231 L552.165704 993.944833 L555.312862 988.996210 Z" fill="#888" fill-opacity="0.18" stroke="#000" stroke-width="1"/>
  <path d="M269.356751 430.054496 L244.700438 448.000687 L243.338415 442.296446 L223.517899 460.293867 L221.338663 451.167081 L203.969788 479.432137 L197.976889 454.333475 L179.723316 458.691947 L176.454462 445.001768 L194.708034 440.643296 L188.715135 415.544634 L216.980191 432.913509 L214.800955 423.786723 L240.614370 430.887963 L239.252347 425.183722 Z" fill="#888" fill-opacity="0.18" stroke="#000" stroke-width="1"/>
  <path d="M354.763188 83.267950 L367.871777 110.802737 L362.014375 111.093108 L376.062146 133.883899 L366.690302 134.348494 L391.281397 156.616616 L365.508828 157.894251 L366.438017 176.637938 L352.380252 177.334830 L351.451063 158.591143 L325.678494 159.868778 L347.946616 135.277683 L338.574772 135.742278 L350.299570 111.673852 L344.442168 111.964223 Z" fill="#888" fill-opacity="0.18" stroke="#000" stroke-width="1"/>
  <path d="M591.915518 657.418059 L619.797419 645.064955 L619.928007 650.928096 L643.093278 637.506835 L643.302218 646.887861 L666.232431 622.912945 L666.807017 648.710766 L685.569068 648.292885 L685.882479 662.364423 L667.120428 662.782304 L667.695015 688.580124 L643.720099 665.649912 L643.929040 675.030937 L620.189183 662.654378 L620.319771 668.517519 Z" fill="#888" fill-opacity="0.18" stroke="#000" stroke-width="1"/>
  <path d="M767.896047 273.202647 L795.408476 260.047198 L795.708820 265.904097 L818.475660 251.817542 L818.956210 261.188581 L841.182431 236.559608 L842.503945 262.329965 L861.246022 261.368864 L861.966848 275.425422 L843.224770 276.386523 L844.546284 302.156880 L819.917311 279.930659 L820.397861 289.301698 L796.309508 277.617895 L796.609852 283.474795 Z" fill="#888" fill-opacity="0.18" stroke="#000" stroke-width="1"/>
  <path d="M606.392464 627.157314 L588.205159 651.636315 L585.204989 646.597222 L571.648991 669.683906 L566.848720 661.621357 L558.693028 693.778408 L545.492280 671.606399 L529.367183 681.206943 L522.166776 669.113120 L538.291873 659.512577 L525.091126 637.340568 L557.248176 645.496260 L552.447904 637.433712 L579.204649 636.519037 L576.204479 631.479944 Z" fill="#888" fill-opacity="0.18" stroke="#000" stroke-width="1"/>
  <path d="M790.878509 363.924856 L817.120088 379.461236 L812.421206 382.970364 L836.795259 394.045813 L829.277047 399.660417 L862.109089 404.419435 L841.434006 419.859598 L852.663215 434.896022 L841.385897 443.317929 L830.156688 428.281505 L809.481605 443.721668 L814.240623 410.889627 L806.722411 416.504231 L803.023441 389.988620 L798.324558 393.497748 Z" fill="#888" fill-opacity="0.18" stroke="#000" stroke-width="1"/>
  <path d="M455.297003 883.513604 L463.184627 912.971794 L457.371958 912.193104 L467.045067 937.156897 L457.744797 935.910993 L477.880710 962.276429 L452.304968 958.850191 L449.813159 977.450731 L435.862754 975.581874 L438.354563 956.981334 L412.778822 953.555096 L439.144258 933.419183 L429.843988 932.173279 L445.746621 910.635723 L439.933952 909.857033 Z" fill="#888" fill-opacity="0.18" stroke="#000" stroke-width="1"/>
  <path d="M605.714287 557.949697 L607.313785 527.495778 L612.601500 530.032222 L611.114300 503.301186 L619.574645 507.359495 L608.569558 476.062862 L631.835504 487.223212 L639.952122 470.302524 L652.642639 476.389988 L644.526020 493.310676 L667.791966 504.471027 L636.495333 515.476114 L644.955677 519.534423 L623.176930 535.105108 L628.464646 537.641552 Z" fill="#888" fill-opacity="0.18" stroke="#000" stroke-width="1"/>
  <path d="M477.847212 941.850915 L466.587493 913.509809 L472.451278 913.607278 L459.940826 889.937706 L469.322882 890.093656 L446.257618 866.248641 L472.058272 866.677504 L472.370173 847.913392 L486.443257 848.147317 L486.131356 866.911429 L511.932010 867.340293 L488.086994 890.405557 L497.469051 890.561507 L484.178848 913.802216 L490.042633 913.899685 Z" fill="#888" fill-opacity="0.18" stroke="#000" stroke-width="1"/>
  <path d="M912.331819 961.272517 L907.466213 991.377756 L902.481970 988.287321 L901.085562 1015.023253 L893.110772 1010.078555 L900.686002 1042.377272 L878.755332 1028.779354 L868.865937 1044.728933 L856.903753 1037.311887 L866.793148 1021.362308 L844.862477 1007.764390 L877.161194 1000.189161 L869.186405 995.244463 L892.513483 982.106449 L887.529240 979.016013 Z" fill="#888" fill-opacity="0.18" stroke="#000" stroke-width="1"/>
  <path d="M708.193867 608.964664 L679.175495 599.587369 L682.986433 595.129765 L656.771956 589.692741 L662.869457 582.560575 L629.795292 585.147237 L646.563419 565.533782 L632.299088 553.338781 L641.445340 542.640533 L655.709670 554.835534 L672.477797 535.222080 L675.064458 568.296245 L681.161959 561.164080 L690.608309 586.214559 L694.419247 581.756955 Z" fill="#888" fill-opacity="0.18" stroke="#000" stroke-width="1"/>
  <path d="M789.970441 385.202930 L760.021983 390.955267 L761.215980 385.213504 L735.622133 393.069393 L737.532529 383.882572 L709.789485 402.073634 L715.043075 376.809876 L696.669433 372.989083 L699.535027 359.208851 L717.908669 363.029644 L723.162259 337.765886 L741.353321 365.508929 L743.263717 356.322108 L763.603976 373.729978 L764.797973 367.988214 Z" fill="#888" fill-opacity="0.18" stroke="#000" stroke-width="1"/>
  <path d="M93.543969 138.161947 L74.834792 114.079459 L80.493605 112.539552 L61.884590 93.292095 L70.938690 90.828245 L42.143812 74.352620 L67.042589 67.577031 L62.114888 49.468829 L75.696039 45.773054 L80.623740 63.881255 L105.522516 57.105666 L89.046892 85.900543 L98.100992 83.436693 L91.811230 109.459739 L97.470043 107.919832 Z" fill="#888" fill-opacity="0.18" stroke="#000" stroke-width="1"/>
  <path d="M408.215364 929.562844 L403.762291 959.731863 L398.736213 956.709940 L397.705894 983.462481 L389.664170 978.627405 L397.680791 1010.819407 L375.566048 997.522948 L365.895896 1013.606397 L353.833309 1006.353783 L363.503461 990.270334 L341.388718 976.973874 L373.580720 968.957253 L365.538996 964.122177 L388.684058 950.666095 L383.657980 947.644172 Z" fill="#888" fill-opacity="0.18" stroke="#000" stroke-width="1"/>
  <path d="M677.963392 138.147934 L674.053936 168.392202 L668.974292 165.461214 L668.425557 192.227964 L660.298126 187.538383 L668.892750 219.580912 L646.542316 206.684564 L637.163154 222.939425 L624.972008 215.905053 L634.351170 199.650192 L612.000736 186.753844 L644.043265 178.159221 L635.915835 173.469640 L658.815004 159.599237 L653.735360 156.668249 Z" fill="#888" fill-opacity="0.18" stroke="#000" stroke-width="1"/>
  <path d="M356.870429 320.294027 L333.442139 339.816188 L331.709528 334.213374 L313.110012 353.470009 L310.337835 344.505506 L294.857018 373.847208 L287.233531 349.194823 L269.304523 354.739177 L265.146257 341.292421 L283.075265 335.748067 L275.451777 311.095681 L304.793480 326.576498 L302.021303 317.611994 L328.244306 323.007744 L326.511696 317.404929 Z" fill="#888" fill-opacity="0.18" stroke="#000" stroke-width="1"/>
  <path d="M948.282009 568.509537 L978.005450 561.689227 L977.017676 567.470038 L1002.314023 558.703346 L1000.733585 567.952645 L1027.807924 548.780493 L1023.461721 574.216062 L1041.960317 577.376937 L1039.589661 591.250884 L1021.091065 588.090010 L1016.744862 613.525579 L997.572711 586.451241 L995.992273 595.700539 L975.042129 579.031661 L974.054356 584.812472 Z" fill="#888" fill-opacity="0.18" stroke="#000" stroke-width="1"/>
  <path d="M942.368968 421.439714 L945.184805 391.074098 L950.366879 393.819928 L949.949638 367.050805 L958.240956 371.444134 L948.495982 339.732517 L971.297107 351.814170 L980.083764 335.231533 L992.520742 341.821526 L983.734085 358.404163 L1006.535211 370.485816 L974.823593 380.230791 L983.114912 384.624119 L960.731028 399.311589 L965.913102 402.057419 Z" fill="#888" fill-opacity="0.18" stroke="#000" stroke-width="1"/>
  <path d="M425.856150 514.434710 L439.525966 541.695225 L433.675740 542.105509 L448.187374 564.603787 L438.827012 565.260242 L463.869053 587.020008 L438.128059 588.825259 L439.440969 607.545982 L425.400427 608.530664 L424.087517 589.809941 L398.346523 591.615192 L420.106290 566.573152 L410.745928 567.229606 L421.975288 542.926078 L416.125062 543.336362 Z" fill="#888" fill-opacity="0.18" stroke="#000" stroke-width="1"/>
  <path d="M419.824733 629.683527 L446.345709 614.629046 L447.056491 620.450409 L468.778221 604.800281 L469.915473 614.114461 L490.357793 587.985880 L493.485236 613.599876 L512.113597 611.325372 L513.819475 625.296643 L495.191114 627.571147 L498.318557 653.185142 L472.189977 632.742822 L473.327229 642.057002 L448.478056 632.093134 L449.188839 637.914497 Z" fill="#888" fill-opacity="0.18" stroke="#000" stroke-width="1"/>
  <path d="M984.394000 801.472182 L953.898825 801.681650 L956.117202 796.252812 L929.521422 799.322748 L933.070824 790.636608 L902.481966 803.478452 L912.242824 779.591566 L894.870543 772.492761 L900.194647 759.463550 L917.566928 766.562355 L927.327785 742.675469 L940.169630 773.264327 L943.719032 764.578186 L960.553955 785.395136 L962.772332 779.966298 Z" fill="#888" fill-opacity="0.18" stroke="#000" stroke-width="1"/>
  <path d="M721.445309 135.172182 L723.643290 165.588764 L718.081324 163.729191 L722.879356 190.068115 L713.980211 187.092798 L728.789782 216.778953 L704.317132 208.596832 L698.366498 226.395122 L685.017781 221.932147 L690.968414 204.133856 L666.495765 195.951735 L696.181921 181.142164 L687.282775 178.166847 L706.957392 160.010045 L701.395427 158.150472 Z" fill="#888" fill-opacity="0.18" stroke="#000" stroke-width="1"/>
  <path d="M151.219341 975.472045 L150.808225 944.978922 L156.251613 947.161351 L153.005875 920.586453 L161.715297 924.078340 L148.671460 893.575069 L172.622369 903.177757 L179.606143 885.758914 L192.670275 890.996745 L185.686502 908.415588 L209.637411 918.018276 L179.134140 931.062113 L187.843562 934.554000 L167.138390 951.526210 L172.581779 953.708639 Z" fill="#888" fill-opacity="0.18" stroke="#000" stroke-width="1"/>
  <path d="M223.539535 141.773324 L238.646102 168.264667 L232.826147 168.986887 L248.518928 190.677821 L239.207001 191.833374 L265.375700 212.224312 L239.767899 215.402081 L242.079004 234.025936 L228.111113 235.759264 L225.800008 217.135409 L200.192207 220.313178 L220.583145 194.144478 L211.271218 195.300031 L221.186237 170.431327 L215.366283 171.153547 Z" fill="#888" fill-opacity="0.18" stroke="#000" stroke-width="1"/>
  <path d="M497.336825 120.856462 L504.584201 91.234256 L509.306533 94.711764 L512.827436 68.171921 L520.383166 73.735934 L515.403874 40.936576 L536.182131 56.237612 L547.310157 41.126152 L558.643752 49.472171 L547.515726 64.583631 L568.293984 79.884667 L535.494626 84.863960 L543.050357 90.427973 L518.751195 101.666780 L523.473527 105.144288 Z" fill="#888" fill-opacity="0.18" stroke="#000" stroke-width="1"/>
  <path d="M105.730971 243.615672 L87.994954 218.807744 L93.710564 217.494244 L75.882225 197.521504 L85.027201 195.419905 L56.910764 177.811463 L82.059447 172.032066 L77.856249 153.742115 L91.573713 150.589717 L95.776910 168.879668 L120.925593 163.100271 L103.317152 191.216707 L112.462127 189.115108 L105.141783 214.867246 L110.857393 213.553746 Z" fill="#888" fill-opacity="0.18" stroke="#000" stroke-width="1"/>
  <path d="M339.483439 566.694596 L311.272814 578.277349 L311.303289 572.412833 L287.778181 585.192870 L287.826940 575.809644 L264.246978 599.145809 L264.381067 573.341939 L245.614616 573.244420 L245.687755 559.169582 L264.454206 559.267101 L264.588294 533.463231 L287.924459 557.043193 L287.973219 547.659968 L311.364238 560.683802 L311.394713 554.819286 Z" fill="#888" fill-opacity="0.18" stroke="#000" stroke-width="1"/>
  <path d="M987.307368 441.213255 L976.021369 469.543906 L971.827022 465.445012 L964.659008 491.239965 L957.948054 484.681734 L958.329863 517.854697 L939.874739 499.819563 L926.758277 513.241471 L916.691846 503.404125 L929.808307 489.982217 L911.353183 471.947083 L944.526145 471.565273 L937.815191 465.007043 L963.438329 457.247224 L959.243983 453.148330 Z" fill="#888" fill-opacity="0.18" stroke="#000" stroke-width="1"/>
  <path d="M360.550444 606.415594 L346.917027 579.136856 L352.767796 578.734381 L338.286205 556.216753 L347.647435 555.572793 L322.634461 533.779620 L348.377842 532.008730 L347.089922 513.286272 L361.131766 512.320332 L362.419686 531.042790 L388.163066 529.271900 L366.369893 554.284873 L375.731122 553.640913 L364.469332 577.929431 L370.320100 577.526956 Z" fill="#888" fill-opacity="0.18" stroke="#000" stroke-width="1"/>
  <path d="M720.932188 844.718010 L737.211228 818.930562 L740.584810 823.727688 L752.351433 799.679682 L757.749164 807.355083 L763.443338 774.672250 L778.287101 795.779604 L793.637904 784.984140 L801.734502 796.497242 L786.383699 807.292706 L801.227461 828.400060 L768.544628 822.705886 L773.942360 830.381287 L747.331975 833.321940 L750.705557 838.119066 Z" fill="#888" fill-opacity="0.18" stroke="#000" stroke-width="1"/>
  <path d="M272.558579 622.566558 L300.485564 610.315719 L300.594664 616.179299 L323.808965 602.843024 L323.983524 612.224752 L347.001446 588.334032 L347.481485 614.133785 L366.244942 613.784666 L366.506781 627.857258 L347.743325 628.206377 L348.223364 654.006130 L324.332644 630.988209 L324.507203 640.369937 L300.812863 627.906460 L300.921963 633.770040 Z" fill="#888" fill-opacity="0.18" stroke="#000" stroke-width="1"/>
  <path d="M561.548425 905.405847 L580.480787 929.313278 L574.836542 930.905751 L593.623775 949.979291 L584.592982 952.527248 L613.539856 968.734336 L588.705177 975.741218 L593.801092 993.802803 L580.254903 997.624739 L575.158989 979.563154 L550.324310 986.570036 L566.531398 957.623162 L557.500605 960.171120 L563.548052 934.090697 L557.903806 935.683171 Z" fill="#888" fill-opacity="0.18" stroke="#000" stroke-width="1"/>
  <path d="M739.136695 708.712415 L737.394805 739.158522 L732.119009 736.597379 L733.481192 763.335077 L725.039918 759.237250 L735.898534 790.585004 L712.685030 779.315978 L704.489375 796.198526 L691.827464 790.051785 L700.023119 773.169237 L676.809616 761.900211 L708.157370 751.041595 L699.716096 746.943767 L721.567416 731.475095 L716.291620 728.913953 Z" fill="#888" fill-opacity="0.18" stroke="#000" stroke-width="1"/>
  <path d="M1026.604855 406.479433 L1036.104365 435.458027 L1030.257610 435.000943 L1041.292138 459.393549 L1031.937329 458.662215 L1053.496017 483.877571 L1027.770293 481.866404 L1026.307625 500.576021 L1012.275412 499.479021 L1013.738080 480.769403 L988.012355 478.758236 L1013.227711 457.199548 L1003.872903 456.468214 L1018.564099 434.086776 L1012.717343 433.629692 Z" fill="#888" fill-opacity="0.18" stroke="#000" stroke-width="1"/>
  <path d="M1056.176608 281.693837 L1053.347208 312.058192 L1048.166361 309.310048 L1048.571646 336.079354 L1040.282291 331.682323 L1050.013101 363.398289 L1027.217374 351.306453 L1018.423311 367.885164 L1005.989278 361.289617 L1014.783341 344.710906 L991.987613 332.619070 L1023.703580 322.888260 L1015.414225 318.491228 L1037.804667 303.813758 L1032.623820 301.065614 Z" fill="#888" fill-opacity="0.18" stroke="#000" stroke-width="1"/>
  <path d="M719.245868 134.229543 L698.020943 112.332006 L703.477971 110.183908 L682.880118 93.081613 L691.611363 89.644656 L661.190860 76.408937 L685.201782 66.957306 L678.327869 49.494818 L691.424735 44.339383 L698.298648 61.801871 L722.309570 52.350241 L709.073851 82.770743 L717.805095 79.333786 L714.392026 105.887712 L719.849054 103.739614 Z" fill="#888" fill-opacity="0.18" stroke="#000" stroke-width="1"/>
  <path d="M899.923560 252.968734 L927.572549 265.834695 L923.243607 269.791175 L948.593201 278.402686 L941.666894 284.733055 L974.808583 286.222902 L955.761238 303.631415 L968.421975 317.484029 L958.032514 326.979582 L945.371777 313.126968 L926.324433 330.535481 L927.814279 297.393792 L920.887972 303.724160 L914.585723 277.704136 L910.256781 281.660616 Z" fill="#888" fill-opacity="0.18" stroke="#000" stroke-width="1"/>
  <path d="M402.566227 616.502158 L422.645334 639.454915 L417.085739 641.321565 L436.783445 659.453316 L427.888093 662.439955 L457.593070 677.211737 L433.130852 685.424994 L439.104130 703.215698 L425.761102 707.695656 L419.787825 689.904952 L395.325607 698.118210 L410.097389 668.413233 L401.202037 671.399871 L405.966549 645.054863 L400.406954 646.921513 Z" fill="#888" fill-opacity="0.18" stroke="#000" stroke-width="1"/>
  <path d="M361.470718 810.910257 L361.850263 780.416725 L367.235243 782.739538 L364.679542 756.089427 L373.295510 759.805929 L361.046844 728.974754 L384.740757 739.195134 L392.173761 721.963197 L405.097713 727.537950 L397.664709 744.769887 L421.358622 754.990267 L390.527447 767.238933 L399.143415 770.955435 L378.005204 787.385166 L383.390184 789.707979 Z" fill="#888" fill-opacity="0.18" stroke="#000" stroke-width="1"/>
  <path d="M860.432887 951.057011 L831.521107 941.356054 L835.381616 936.941312 L809.229528 931.211710 L815.406342 924.148123 L782.305338 926.365057 L799.291576 906.940191 L785.164401 894.586564 L794.429622 883.991183 L808.556797 896.344810 L825.543035 876.919944 L827.759969 910.020948 L833.936783 902.957360 L843.102633 928.111827 L846.963141 923.697085 Z" fill="#888" fill-opacity="0.18" stroke="#000" stroke-width="1"/>
  <path d="M842.989599 394.735064 L853.062831 365.950875 L857.427389 369.868031 L863.493985 343.792056 L870.477278 350.059506 L868.687669 316.932651 L887.891724 334.168136 L900.426623 320.201551 L910.901562 329.602725 L898.366663 343.569310 L917.570718 360.804796 L884.443863 362.594404 L891.427156 368.861853 L866.156505 377.702342 L870.521063 381.619498 Z" fill="#888" fill-opacity="0.18" stroke="#000" stroke-width="1"/>
  <path d="M793.528895 595.914213 L766.627931 581.549754 L771.167551 577.836895 L746.328950 567.846704 L753.592342 561.906130 L720.582424 558.599085 L740.556753 542.262505 L728.675604 527.735720 L739.570693 518.824858 L751.451842 533.351643 L771.426171 517.015063 L768.119127 550.024980 L775.382519 544.084406 L780.246791 570.411177 L784.786412 566.698318 Z" fill="#888" fill-opacity="0.18" stroke="#000" stroke-width="1"/>
  <path d="M913.613291 1020.419559 L942.272073 1009.994889 L942.002874 1015.853302 L966.028766 1004.041590 L965.598047 1013.415051 L990.108497 991.058194 L988.924021 1016.835213 L1007.670944 1017.696651 L1007.024865 1031.756843 L988.277943 1030.895405 L987.093466 1056.672424 L964.736610 1032.161974 L964.305891 1041.535435 L941.464476 1027.570129 L941.195276 1033.428542 Z" fill="#888" fill-opacity="0.18" stroke="#000" stroke-width="1"/>
  <path d="M851.463232 504.906643 L821.002019 503.452656 L823.513172 498.152884 L796.789546 499.767774 L800.807390 491.288138 L769.563690 502.442618 L780.612761 479.123619 L763.653489 471.087931 L769.680254 458.368477 L786.639527 466.404165 L797.688597 443.085166 L808.843078 474.328866 L812.860921 465.849229 L828.535476 487.553339 L831.046629 482.253566 Z" fill="#888" fill-opacity="0.18" stroke="#000" stroke-width="1"/>
  <path d="M386.268108 1034.651864 L355.810390 1036.177312 L357.792391 1030.657787 L331.353892 1034.872740 L334.525093 1026.041501 L304.518994 1040.191597 L313.239795 1015.905690 L295.577317 1009.563289 L300.334118 996.316430 L317.996596 1002.658831 L326.717397 978.372923 L340.867494 1008.379023 L344.038694 999.547783 L361.756391 1019.618738 L363.738392 1014.099214 Z" fill="#888" fill-opacity="0.18" stroke="#000" stroke-width="1"/>
  <path d="M501.604819 743.736579 L481.526346 720.783268 L487.085992 718.916772 L467.388787 700.784477 L476.284221 697.798084 L446.579652 683.025481 L471.042096 674.812899 L465.069310 657.022031 L478.412461 652.542441 L484.385248 670.333309 L508.847692 662.120728 L494.075090 691.825297 L502.970524 688.838904 L498.205285 715.183780 L503.764932 713.317284 Z" fill="#888" fill-opacity="0.18" stroke="#000" stroke-width="1"/>
  <path d="M642.714918 443.716935 L671.865026 452.676331 L668.118527 457.188229 L694.408416 462.248046 L688.414019 469.467083 L721.447605 466.405485 L704.963012 486.257836 L719.401086 498.246631 L710.409490 509.075187 L695.971416 497.086392 L679.486823 516.938744 L676.425224 483.905158 L670.430826 491.124195 L660.625530 466.212025 L656.879032 470.723923 Z" fill="#888" fill-opacity="0.18" stroke="#000" stroke-width="1"/>
  <path d="M1055.928280 163.982089 L1033.913833 142.878446 L1039.288330 140.531477 L1018.076560 124.196825 L1026.675754 120.441674 L995.789891 108.331568 L1019.437674 98.004901 L1011.927371 80.806514 L1024.826162 75.173787 L1032.336465 92.372174 L1055.984248 82.045508 L1043.874141 112.931371 L1052.473335 109.176220 L1050.037322 135.837538 L1055.411818 133.490568 Z" fill="#888" fill-opacity="0.18" stroke="#000" stroke-width="1"/>
  <path d="M256.288862 710.738050 L263.138628 681.021383 L267.907137 684.435296 L271.072071 657.850654 L278.701685 663.312915 L273.283304 630.583229 L294.264741 645.604447 L305.189263 630.345220 L316.633683 638.538612 L305.709161 653.797839 L326.690598 668.819057 L293.960911 674.237437 L301.590525 679.699698 L277.444153 691.263123 L282.212662 694.677036 Z" fill="#888" fill-opacity="0.18" stroke="#000" stroke-width="1"/>
  <path d="M290.457133 700.558484 L314.339384 719.522599 L309.206534 722.359381 L331.845930 736.649860 L323.633370 741.188710 L355.511895 750.372982 L332.927357 762.854821 L342.005058 779.279940 L329.686219 786.088216 L320.608518 769.663097 L298.023979 782.144936 L307.208251 750.266411 L298.995692 754.805262 L298.940835 728.032944 L293.807985 730.869725 Z" fill="#888" fill-opacity="0.18" stroke="#000" stroke-width="1"/>
  <path d="M824.845868 847.504707 L822.365827 817.109823 L827.944803 818.917721 L822.902649 792.624439 L831.829011 795.517076 L816.744699 765.969576 L841.292196 773.924330 L847.077471 756.071605 L860.467014 760.410561 L854.681739 778.263286 L879.229236 786.218039 L849.681736 801.302351 L858.608098 804.194989 L839.102756 822.533518 L844.681733 824.341416 Z" fill="#888" fill-opacity="0.18" stroke="#000" stroke-width="1"/>
  <path d="M118.045657 510.227855 L106.710092 538.538710 L102.522926 534.432482 L95.309777 560.214850 L88.610311 553.644884 L88.934062 586.818464 L70.510530 568.751058 L57.370599 582.149991 L47.321399 572.295042 L60.461331 558.896110 L42.037799 540.828704 L75.211379 540.504953 L68.511913 533.934987 L94.148593 526.220025 L89.961427 522.113796 Z" fill="#888" fill-opacity="0.18" stroke="#000" stroke-width="1"/>
  <path d="M703.581308 854.043312 L675.861652 841.330319 L680.168666 837.349980 L654.771878 828.878666 L661.663102 822.510123 L628.513687 821.203420 L647.464552 803.689928 L634.727468 789.907481 L645.064303 780.354667 L657.801388 794.137115 L676.752254 776.623624 L675.445550 809.773039 L682.336773 803.404497 L688.782696 829.389302 L693.089711 825.408963 Z" fill="#888" fill-opacity="0.18" stroke="#000" stroke-width="1"/>
  <path d="M856.320307 729.556212 L845.871591 700.906187 L851.730228 701.170470 L839.898358 677.154499 L849.272178 677.577352 L826.894761 653.085671 L852.672764 654.248516 L853.518470 635.500877 L867.579199 636.135156 L866.733494 654.882795 L892.511497 656.045640 L868.019817 678.423057 L877.393636 678.845910 L863.447503 701.699036 L869.306140 701.963319 Z" fill="#888" fill-opacity="0.18" stroke="#000" stroke-width="1"/>
  <path d="M622.998262 624.605517 L595.052629 612.397275 L599.286757 608.339488 L573.740528 600.330106 L580.515133 593.837647 L547.347473 593.132281 L565.977638 575.278019 L552.992720 561.728809 L563.154628 551.990121 L576.139546 565.539331 L594.769710 547.685070 L594.064344 580.852730 L600.838949 574.360271 L607.755014 600.223915 L611.989142 596.166128 Z" fill="#888" fill-opacity="0.18" stroke="#000" stroke-width="1"/>
  <path d="M410.948023 231.535573 L390.545723 254.201533 L388.031225 248.903346 L372.370374 270.617346 L368.347179 262.140248 L357.212423 293.390982 L346.148634 270.078962 L329.194438 278.125354 L323.159644 265.409707 L340.113841 257.363315 L329.050052 234.051295 L360.300787 245.186051 L356.277591 236.708953 L383.002231 238.306974 L380.487733 233.008787 Z" fill="#888" fill-opacity="0.18" stroke="#000" stroke-width="1"/>
  <path d="M202.443672 726.749012 L204.428323 757.180258 L198.879533 755.281731 L203.492764 781.653651 L194.614700 778.616008 L209.215753 808.405275 L184.801076 800.051757 L178.725790 817.807885 L165.408694 813.251421 L171.483980 795.495293 L147.069304 787.141775 L176.858571 772.540722 L167.980507 769.503079 L187.781953 751.484678 L182.233163 749.586151 Z" fill="#888" fill-opacity="0.18" stroke="#000" stroke-width="1"/>
  <path d="M797.800815 671.512615 L770.846339 657.248821 L775.372048 653.519017 L750.496274 643.621750 L757.737408 637.654064 L724.715358 634.470444 L744.628476 618.059308 L732.693104 603.577040 L743.554805 594.625511 L755.490177 609.107779 L775.403295 592.696642 L772.219675 625.718692 L779.460809 619.751006 L784.423465 646.059409 L788.949174 642.329606 Z" fill="#888" fill-opacity="0.18" stroke="#000" stroke-width="1"/>
  <path d="M373.811963 367.298818 L403.216506 375.384138 L399.606350 380.005853 L426.035553 384.278705 L420.259303 391.673449 L453.186787 387.627215 L437.302100 407.962760 L452.091587 419.515259 L443.427212 430.607375 L428.637725 419.054875 L412.753038 439.390420 L408.706803 406.462936 L402.930553 413.857680 L392.386038 389.249283 L388.775882 393.870997 Z" fill="#888" fill-opacity="0.18" stroke="#000" stroke-width="1"/>
  <path d="M102.582701 604.814001 L124.413642 583.520585 L126.578824 588.970857 L143.616512 568.319532 L147.080803 577.039968 L160.221164 546.578153 L169.747963 570.559350 L187.188833 563.630768 L192.385269 576.711421 L174.944399 583.640002 L184.471198 607.621198 L154.009384 594.480838 L157.473675 603.201273 L130.909187 599.871401 L133.074369 605.321673 Z" fill="#888" fill-opacity="0.18" stroke="#000" stroke-width="1"/>
  <path d="M60.357661 814.726863 L57.828619 784.336017 L63.410503 786.134918 L58.325963 759.849799 L67.256977 762.728041 L52.125046 733.204900 L76.685336 741.120065 L82.441820 723.258036 L95.838342 727.575399 L90.081858 745.437428 L114.642147 753.352594 L85.119006 768.484525 L94.050021 771.362767 L74.574271 789.732720 L80.156155 791.531622 Z" fill="#888" fill-opacity="0.18" stroke="#000" stroke-width="1"/>
  <path d="M642.724420 254.024789 L645.923075 284.352469 L640.302876 282.677106 L645.965862 308.843700 L636.973544 306.163119 L652.752887 335.345366 L628.024012 327.973769 L622.662851 345.958405 L609.174374 341.937534 L614.535535 323.952898 L589.806661 316.581301 L618.988908 300.801957 L609.996590 298.121377 L629.062479 279.326380 L623.442280 277.651017 Z" fill="#888" fill-opacity="0.18" stroke="#000" stroke-width="1"/>
  <path d="M480.857921 502.009900 L474.654538 472.151608 L480.413657 473.258869 L472.172641 447.786419 L481.387231 449.558038 L462.779802 422.092518 L488.119924 426.964467 L491.663160 408.535288 L505.485045 411.192715 L501.941808 429.621895 L527.281931 434.493844 L499.816411 453.101274 L509.031001 454.872892 L491.931894 475.473392 L497.691013 476.580653 Z" fill="#888" fill-opacity="0.18" stroke="#000" stroke-width="1"/>
  <path d="M274.033313 700.607192 L279.957080 730.522214 L274.208573 729.361120 L282.210917 754.909555 L273.013305 753.051806 L291.362962 780.690209 L266.069529 775.581399 L262.354031 793.976623 L248.557613 791.189999 L252.273111 772.794775 L226.979678 767.685965 L254.618081 749.336308 L245.420469 747.478559 L262.711558 727.038934 L256.963051 725.877841 Z" fill="#888" fill-opacity="0.18" stroke="#000" stroke-width="1"/>
  <path d="M296.513280 427.120406 L309.244008 399.408890 L313.221590 403.718451 L321.709153 378.327088 L328.073284 385.222386 L329.401199 352.073813 L346.902561 371.035881 L360.693156 358.307618 L370.239353 368.650564 L356.448758 381.378827 L373.950120 400.340895 L340.801547 399.012981 L347.165679 405.908278 L321.176754 412.337573 L325.154337 416.647134 Z" fill="#888" fill-opacity="0.18" stroke="#000" stroke-width="1"/>
  <path d="M695.839703 634.487584 L723.694644 646.901360 L719.430738 650.927846 L744.917272 659.125200 L738.095023 665.567577 L771.256587 666.517258 L752.495402 684.233793 L765.380155 697.878291 L755.146782 707.541856 L742.262029 693.897358 L723.500844 711.613894 L724.450525 678.452330 L717.628276 684.894707 L710.902927 658.980816 L706.639021 663.007302 Z" fill="#888" fill-opacity="0.18" stroke="#000" stroke-width="1"/>
  <path d="M180.000993 650.192188 L196.391569 624.475489 L199.744342 629.287181 L211.615009 605.290362 L216.979447 612.989070 L222.815121 580.331206 L237.567326 601.502652 L252.964741 590.773775 L261.011399 602.321837 L245.613983 613.050713 L260.366188 634.222159 L227.708324 628.386486 L233.072762 636.085193 L206.449890 638.910566 L209.802664 643.722258 Z" fill="#888" fill-opacity="0.18" stroke="#000" stroke-width="1"/>
  <path d="M794.591187 594.075387 L792.853217 563.629057 L798.386439 565.572489 L793.987079 539.164050 L802.840234 542.273541 L788.481074 512.366925 L812.827251 520.918026 L819.046234 503.211715 L832.325967 507.875952 L826.106984 525.582263 L850.453162 534.133364 L820.546545 548.492524 L829.399700 551.602016 L809.452883 569.459353 L814.986105 571.402785 Z" fill="#888" fill-opacity="0.18" stroke="#000" stroke-width="1"/>
  <path d="M933.423970 454.014933 L909.708218 473.186858 L908.059042 467.558920 L889.175476 486.537091 L886.536794 477.532390 L870.621746 506.640850 L863.365369 481.877921 L845.355966 487.155286 L841.397942 473.648234 L859.407345 468.370869 L852.150968 443.607939 L881.259428 459.522987 L878.620746 450.518285 L904.760688 456.303043 L903.111512 450.675104 Z" fill="#888" fill-opacity="0.18" stroke="#000" stroke-width="1"/>
  <path d="M991.107209 713.903554 L960.818205 717.449799 L962.429006 711.810756 L936.329076 717.773449 L938.906356 708.750981 L909.906986 724.863950 L916.994507 700.052164 L898.949572 694.897603 L902.815492 681.363902 L920.860427 686.518462 L927.947948 661.706676 L944.060917 690.706046 L946.638197 681.683578 L965.650606 700.532672 L967.261406 694.893629 Z" fill="#888" fill-opacity="0.18" stroke="#000" stroke-width="1"/>
  <path d="M1022.983003 231.145180 L995.433450 218.067652 L999.792594 214.144472 L974.509757 205.338895 L981.484386 199.061806 L948.355091 197.317953 L967.535323 180.055960 L954.981146 166.106701 L965.443090 156.691068 L977.997267 170.640328 L997.177498 153.378334 L995.433646 186.507629 L1002.408275 180.230541 L1008.510881 206.298111 L1012.870024 202.374931 Z" fill="#888" fill-opacity="0.18" stroke="#000" stroke-width="1"/>
  <path d="M137.864891 957.590367 L124.051774 984.778552 L120.247150 980.315559 L110.765353 1005.352643 L104.677953 998.211854 L102.044481 1031.282325 L85.304131 1011.645156 L71.022554 1023.819956 L61.891455 1013.108773 L76.173032 1000.933973 L59.432683 981.296805 L92.503154 983.930277 L86.415754 976.789488 L112.637900 971.389574 L108.833275 966.926581 Z" fill="#888" fill-opacity="0.18" stroke="#000" stroke-width="1"/>
  <path d="M483.179132 146.285550 L468.809310 119.387450 L474.646977 118.826098 L459.558703 96.710402 L468.898971 95.812240 L443.302895 74.706977 L468.988632 72.237030 L467.192307 53.556494 L481.202708 52.209251 L482.999033 70.889786 L508.684769 68.419839 L487.579506 94.015915 L496.919774 93.117752 L486.322312 117.703395 L492.159979 117.142044 Z" fill="#888" fill-opacity="0.18" stroke="#000" stroke-width="1"/>
  <path d="M1056.014250 636.801254 L1049.768279 666.650666 L1044.931547 663.334117 L1042.306162 689.977454 L1034.567390 684.670975 L1040.648123 717.284100 L1019.366502 702.691284 L1008.753545 718.168827 L997.145388 710.209110 L1007.758344 694.731567 L986.476723 680.138751 L1019.089847 674.058018 L1011.351076 668.751540 L1035.258083 656.701019 L1030.421350 653.384470 Z" fill="#888" fill-opacity="0.18" stroke="#000" stroke-width="1"/>
  <path d="M428.999719 428.655100 L445.840350 454.079355 L440.081560 455.188324 L457.186774 475.783753 L447.972710 477.558103 L475.443745 496.157388 L450.105069 501.036851 L453.653769 519.464979 L439.832673 522.126505 L436.283973 503.698376 L410.945296 508.577839 L429.544581 481.106803 L420.330517 482.881154 L428.563980 457.406262 L422.805190 458.515231 Z" fill="#888" fill-opacity="0.18" stroke="#000" stroke-width="1"/>
  <path d="M622.830138 680.752561 L649.123893 696.200474 L644.436856 699.725407 L668.848072 710.718703 L661.348812 716.358597 L694.196695 721.007013 L673.573731 736.516720 L684.853518 751.515240 L673.604628 759.975080 L662.324841 744.976560 L641.701876 760.486267 L646.350292 727.638384 L638.851032 733.278277 L635.062781 706.775274 L630.375744 710.300207 Z" fill="#888" fill-opacity="0.18" stroke="#000" stroke-width="1"/>
  <path d="M755.259836 269.145909 L770.389282 295.624191 L764.569953 296.351439 L780.281467 318.028809 L770.970541 319.192405 L797.156847 339.560729 L771.551801 342.760619 L773.878993 361.382470 L759.912604 363.127865 L757.585412 344.506013 L731.980366 347.705903 L752.348690 321.519598 L743.037764 322.683194 L752.931296 297.805934 L747.111967 298.533182 Z" fill="#888" fill-opacity="0.18" stroke="#000" stroke-width="1"/>
  <path d="M207.045704 119.348534 L199.691832 148.944482 L194.982039 145.450011 L191.365702 171.977019 L183.830033 166.385866 L188.691323 199.202920 L167.968234 183.827250 L156.785928 198.898588 L145.482425 190.511859 L156.664730 175.440521 L135.941641 160.064851 L168.758695 155.203560 L161.223026 149.612408 L185.562453 138.461070 L180.852660 134.966600 Z" fill="#888" fill-opacity="0.18" stroke="#000" stroke-width="1"/>
  <path d="M252.682603 1040.124134 L229.285535 1020.564563 L234.488201 1017.857951 L212.215890 1003.001835 L220.540155 998.671256 L188.903046 988.687041 L211.794774 976.777949 L203.133616 960.129420 L215.620013 953.633552 L224.281171 970.282081 L247.172899 958.372990 L237.188684 990.010099 L245.512949 985.679520 L244.893532 1012.444728 L250.096197 1009.738116 Z" fill="#888" fill-opacity="0.18" stroke="#000" stroke-width="1"/>
  <path d="M178.136589 707.446294 L196.195630 682.872515 L199.222111 687.895849 L212.657188 664.738588 L217.499559 672.775922 L225.486969 640.576660 L238.803487 662.679330 L254.878156 652.994589 L262.141712 665.050591 L246.067043 674.735332 L259.383562 696.838001 L227.184299 688.850591 L232.026670 696.887926 L205.275074 697.942517 L208.301556 702.965851 Z" fill="#888" fill-opacity="0.18" stroke="#000" stroke-width="1"/>
  <path d="M641.608232 783.455477 L611.522879 778.468380 L614.633410 773.496653 L587.903333 771.992327 L592.880183 764.037564 L560.551150 771.482346 L574.237488 749.606747 L558.327961 739.653047 L565.793237 727.720902 L581.702763 737.674602 L595.389101 715.799003 L602.833884 748.128037 L607.810734 740.173274 L620.854473 763.553199 L623.965004 758.581472 Z" fill="#888" fill-opacity="0.18" stroke="#000" stroke-width="1"/>
  <path d="M195.639090 353.477743 L225.201578 360.964990 L221.685906 365.658979 L248.196338 369.394890 L242.571263 376.905272 L275.409904 372.192005 L259.940949 392.845554 L274.961712 404.095703 L266.524100 415.361276 L251.503337 404.111127 L236.034382 424.764676 L231.321114 391.926035 L225.696039 399.436417 L214.654563 375.046956 L211.138891 379.740944 Z" fill="#888" fill-opacity="0.18" stroke="#000" stroke-width="1"/>
  <path d="M154.544934 887.543162 L131.544179 867.519055 L136.799993 864.917154 L114.829596 849.618080 L123.238899 845.455038 L91.808036 834.839386 L114.933619 823.391020 L106.607534 806.572414 L119.221489 800.327850 L127.547573 817.146456 L150.673156 805.698090 L140.057505 837.128953 L148.466808 832.965911 L147.311622 859.713351 L152.567436 857.111450 Z" fill="#888" fill-opacity="0.18" stroke="#000" stroke-width="1"/>
  <path d="M440.910524 228.588277 L410.463722 230.317976 L412.408657 224.785282 L385.999024 229.177468 L389.110920 220.325158 L359.200404 234.676193 L367.758119 210.332340 L350.053498 204.108547 L354.721342 190.830082 L372.425963 197.053874 L380.983678 172.710021 L395.334713 202.620537 L398.446609 193.768227 L416.298528 213.719894 L418.243463 208.187200 Z" fill="#888" fill-opacity="0.18" stroke="#000" stroke-width="1"/>
  <path d="M568.388253 329.756528 L565.428583 299.404594 L571.035411 301.124174 L565.578712 274.913786 L574.549636 277.665115 L559.000647 248.359481 L583.670689 255.925635 L589.173347 237.983786 L602.629734 242.110779 L597.127076 260.052628 L621.797119 267.618783 L592.491485 283.167772 L601.462410 285.919101 L582.249067 304.563335 L587.855895 306.282916 Z" fill="#888" fill-opacity="0.18" stroke="#000" stroke-width="1"/>
  <path d="M884.666107 601.817407 L914.113756 593.890519 L913.342815 599.704221 L938.293691 589.997841 L937.060185 599.299763 L963.398755 579.128720 L960.006615 604.709007 L978.610460 607.176018 L976.760202 621.128901 L958.156357 618.661891 L954.764218 644.242177 L934.593175 617.903608 L933.359670 627.205531 L911.800933 611.331624 L911.029992 617.145326 Z" fill="#888" fill-opacity="0.18" stroke="#000" stroke-width="1"/>
  <path d="M556.568304 334.722271 L526.861598 341.615106 L527.835259 335.831901 L502.560385 344.660307 L504.118243 335.407179 L477.090778 354.645353 L481.374888 329.199251 L462.868632 326.083535 L465.205419 312.203843 L483.711675 315.319560 L487.995785 289.873458 L507.233959 316.900923 L508.791817 307.647795 L529.782582 324.265491 L530.756243 318.482286 Z" fill="#888" fill-opacity="0.18" stroke="#000" stroke-width="1"/>
  <path d="M518.122990 1055.856331 L489.554529 1045.186626 L493.561611 1040.904481 L467.617450 1034.296871 L474.028782 1027.445439 L440.871872 1028.545690 L458.503034 1009.704252 L444.800170 996.881589 L454.417167 986.604440 L468.120031 999.427104 L485.751193 980.585665 L486.851445 1013.742575 L493.262776 1006.891142 L501.575776 1032.340191 L505.582858 1028.058046 Z" fill="#888" fill-opacity="0.18" stroke="#000" stroke-width="1"/>
  <path d="M843.965334 905.557725 L874.326891 902.698452 L872.588777 908.299562 L898.817068 902.929576 L896.036086 911.891352 L925.392982 896.439368 L917.745281 921.084252 L935.668833 926.646217 L931.497359 940.088881 L913.573807 934.526917 L905.926105 959.171801 L890.474121 929.814905 L887.693138 938.776681 L869.112548 919.501782 L867.374434 925.102893 Z" fill="#888" fill-opacity="0.18" stroke="#000" stroke-width="1"/>
  <path d="M529.333201 404.721010 L542.480248 377.204565 L546.392409 381.573601 L555.261796 356.313078 L561.521254 363.303535 L563.348750 330.178748 L580.562260 349.402504 L594.543173 336.883588 L603.932360 347.369273 L589.951447 359.888189 L607.164956 379.111944 L574.040170 377.284448 L580.299628 384.274904 L554.216732 390.311671 L558.128893 394.680707 Z" fill="#888" fill-opacity="0.18" stroke="#000" stroke-width="1"/>
  <path d="M540.387727 360.365576 L519.740717 382.808849 L517.283849 377.483694 L501.388336 399.026504 L497.457349 390.506256 L485.984197 421.634346 L475.173981 398.203663 L458.133484 406.065638 L452.237002 393.285266 L469.277499 385.423290 L458.467283 361.992607 L489.595373 373.465759 L485.664386 364.945511 L512.370115 366.833383 L509.913248 361.508228 Z" fill="#888" fill-opacity="0.18" stroke="#000" stroke-width="1"/>
  <path d="M282.771446 467.690861 L309.427989 452.877751 L310.085898 458.705326 L331.948800 443.253027 L333.001453 452.577147 L353.680120 426.635213 L356.574917 452.276544 L375.223158 450.171237 L376.802138 464.157417 L358.153897 466.262724 L361.048694 491.904054 L335.106760 471.225387 L336.159413 480.549508 L311.401715 470.360476 L312.059623 476.188051 Z" fill="#888" fill-opacity="0.18" stroke="#000" stroke-width="1"/>
  <path d="M228.926869 255.233317 L220.572968 284.562686 L215.984463 280.910413 L211.470081 307.299434 L204.128474 301.455797 L207.873401 334.418908 L187.683979 318.348907 L175.996705 333.032122 L164.984294 324.266667 L176.671568 309.583451 L156.482146 293.513450 L189.445258 289.768523 L182.103650 283.924886 L206.807453 273.605867 L202.218949 269.953594 Z" fill="#888" fill-opacity="0.18" stroke="#000" stroke-width="1"/>
  <path d="M253.100722 557.408201 L241.450012 529.225573 L247.314584 529.241914 L234.477887 505.747676 L243.861203 505.773820 L220.468275 482.250169 L246.272393 482.322067 L246.324683 463.555436 L260.399656 463.594653 L260.347367 482.361284 L286.151485 482.433182 L262.627834 505.826110 L272.011150 505.852255 L259.043729 529.274595 L264.908301 529.290935 Z" fill="#888" fill-opacity="0.18" stroke="#000" stroke-width="1"/>
  <path d="M326.703931 800.126548 L356.123253 808.157926 L352.521580 812.786254 L378.958574 817.010627 L373.195896 824.415952 L406.115904 820.309334 L390.268540 840.673978 L405.079190 852.199334 L396.435173 863.307322 L381.624523 851.781966 L365.777158 872.146610 L361.670541 839.226602 L355.907863 846.631927 L345.318232 822.042910 L341.716558 826.671239 Z" fill="#888" fill-opacity="0.18" stroke="#000" stroke-width="1"/>
  <path d="M910.420970 1020.771565 L914.350122 990.529849 L919.427856 993.464145 L919.994025 966.697758 L928.118400 971.392632 L919.544647 939.344512 L941.886677 952.255414 L951.276424 936.006665 L963.462986 943.048976 L954.073239 959.297725 L976.415268 972.208627 L944.367148 980.782379 L952.491523 985.477252 L929.583324 999.332737 L934.661058 1002.267033 Z" fill="#888" fill-opacity="0.18" stroke="#000" stroke-width="1"/>
  <path d="M775.022673 988.190296 L747.654623 974.737065 L752.067034 970.873893 L726.907040 961.723226 L733.966898 955.542150 L700.864563 953.345193 L720.279174 936.347235 L707.917023 922.227519 L718.506810 912.955905 L730.868962 927.075622 L750.283572 910.077664 L748.086615 943.179999 L755.146474 936.998924 L760.891857 963.147549 L765.304269 959.284376 Z" fill="#888" fill-opacity="0.18" stroke="#000" stroke-width="1"/>
  <path d="M540.266747 287.298014 L509.902541 290.129019 L511.645869 284.529529 L485.412589 289.875094 L488.201914 280.915910 L458.830644 296.340556 L466.501287 271.702802 L448.582921 266.124153 L452.766908 252.685378 L470.685275 258.264028 L478.355918 233.626274 L493.780564 262.997544 L496.569889 254.038361 L515.132525 273.330550 L516.875853 267.731061 Z" fill="#888" fill-opacity="0.18" stroke="#000" stroke-width="1"/>
  <path d="M295.213785 958.643031 L266.031776 949.788092 L269.762092 945.262805 L243.454250 940.297175 L249.422754 933.056715 L216.400345 936.236602 L232.813732 916.325339 L218.332814 904.388330 L227.285571 893.527641 L241.766489 905.464650 L258.179877 885.553387 L261.359764 918.575797 L267.328268 911.335338 L277.222722 936.212231 L280.953038 931.686943 Z" fill="#888" fill-opacity="0.18" stroke="#000" stroke-width="1"/>
  <path d="M631.868508 465.112830 L608.359692 445.687714 L613.546755 442.951321 L591.189641 428.223134 L599.488942 423.844904 L567.795114 414.042227 L590.618192 402.002094 L581.861731 385.403492 L594.310683 378.836147 L603.067143 395.434749 L625.890221 383.394616 L616.087544 415.088444 L624.386845 410.710214 L623.920881 437.478533 L629.107944 434.742139 Z" fill="#888" fill-opacity="0.18" stroke="#000" stroke-width="1"/>
  <path d="M229.791062 808.651446 L260.127246 811.768420 L257.330136 816.922996 L284.102081 816.771366 L279.626706 825.018688 L311.433448 815.588822 L299.126166 838.268956 L315.620810 847.219706 L308.907747 859.590689 L292.413104 850.639939 L280.105822 873.320073 L270.675956 841.513331 L266.200581 849.760653 L251.735917 827.232148 L248.938808 832.386724 Z" fill="#888" fill-opacity="0.18" stroke="#000" stroke-width="1"/>
  <path d="M861.152885 443.783561 L875.469288 416.856990 L879.190247 421.389973 L889.136070 396.533573 L895.089605 403.786347 L898.337702 370.770577 L914.709922 390.715704 L929.215469 378.808635 L938.145771 389.687795 L923.640224 401.594864 L940.012444 421.539991 L906.996674 418.291894 L912.950209 425.544667 L886.632165 430.455940 L890.353124 434.988924 Z" fill="#888" fill-opacity="0.18" stroke="#000" stroke-width="1"/>
  <path d="M259.042179 842.652011 L233.482433 859.286282 L232.420118 853.518703 L211.686898 870.456637 L209.987193 861.228512 L191.166141 888.548087 L186.491953 863.170742 L168.035702 866.570151 L165.486145 852.727962 L183.942396 849.328553 L179.268209 823.951208 L206.587784 842.772261 L204.888080 833.544135 L230.295487 841.983546 L229.233172 836.215968 Z" fill="#888" fill-opacity="0.18" stroke="#000" stroke-width="1"/>
  <path d="M542.666999 217.723406 L560.888581 193.269908 L563.881688 198.313199 L577.470015 175.245529 L582.258987 183.314794 L590.459720 151.169201 L603.629393 173.359680 L619.767924 163.781736 L626.951382 175.885634 L610.812851 185.463578 L623.982525 207.654058 L591.836931 199.453325 L596.625903 207.522590 L569.867903 208.399780 L572.861011 213.443071 Z" fill="#888" fill-opacity="0.18" stroke="#000" stroke-width="1"/>
  <path d="M584.139066 155.357833 L567.384162 180.838664 L564.100206 175.979744 L551.889229 199.805194 L546.634899 192.030922 L540.335044 224.602428 L525.885635 203.223179 L510.337091 213.731840 L502.455595 202.070431 L518.004140 191.561771 L503.554732 170.182522 L536.126238 176.482377 L530.871908 168.708105 L557.532293 166.261903 L554.248336 161.402983 Z" fill="#888" fill-opacity="0.18" stroke="#000" stroke-width="1"/>
  <path d="M881.577977 47.181898 L876.755015 77.293999 L871.766400 74.210625 L870.407860 100.948508 L862.426075 96.015111 L870.047043 128.303066 L848.097135 114.736223 L838.230340 130.699792 L826.257663 123.299696 L836.124458 107.336126 L814.174550 93.769283 L846.462506 86.148316 L838.480721 81.214918 L861.789169 68.043878 L856.800554 64.960505 Z" fill="#888" fill-opacity="0.18" stroke="#000" stroke-width="1"/>
  <path d="M665.246777 960.872827 L694.264012 970.253639 L690.452534 974.710780 L716.666352 980.150981 L710.567987 987.282407 L743.642465 984.699753 L726.871962 1004.311176 L741.134815 1016.507906 L731.987268 1027.205046 L717.724415 1015.008316 L700.953911 1034.619739 L698.371257 1001.545260 L692.272893 1008.676687 L682.829578 983.625063 L679.018100 988.082205 Z" fill="#888" fill-opacity="0.18" stroke="#000" stroke-width="1"/>
  <path d="M979.153540 130.101318 L960.362317 154.119842 L957.488557 149.007604 L943.361876 171.749568 L938.763860 163.569987 L929.809948 195.513979 L917.165404 173.020132 L900.806242 182.216164 L893.909218 169.946792 L910.268380 160.750760 L897.623836 138.256913 L929.567828 147.210825 L924.969812 139.031244 L951.741037 138.783128 L948.867277 133.670889 Z" fill="#888" fill-opacity="0.18" stroke="#000" stroke-width="1"/>
  <path d="M231.574886 106.587455 L258.827767 120.272484 L254.382726 124.098068 L279.464149 133.461948 L272.352084 139.582881 L305.434580 142.060711 L285.876401 158.893277 L298.118267 173.117408 L287.450170 182.298808 L275.208303 168.074677 L255.650123 184.907244 L258.127953 151.824748 L251.015888 157.945681 L245.492645 131.749234 L241.047604 135.574818 Z" fill="#888" fill-opacity="0.18" stroke="#000" stroke-width="1"/>
  <path d="M265.105696 906.053101 L286.981502 884.805779 L289.135183 890.260606 L306.216392 869.645263 L309.662281 878.372986 L322.866864 847.938956 L332.343060 871.940193 L349.798505 865.048414 L354.967340 878.139998 L337.511895 885.031777 L346.988091 909.033014 L316.554060 895.828431 L319.999950 904.556154 L293.442545 901.170259 L295.596226 906.625086 Z" fill="#888" fill-opacity="0.18" stroke="#000" stroke-width="1"/>
  <path d="M73.331530 611.836145 L87.307361 638.941048 L81.462124 639.417164 L96.226109 661.750654 L86.873730 662.512440 L112.159140 683.988921 L86.440100 686.083832 L87.963672 704.788589 L73.935104 705.931267 L72.411533 687.226511 L46.692493 689.321422 L68.168974 664.036012 L58.816596 664.797797 L69.771651 640.369396 L63.926415 640.845512 Z" fill="#888" fill-opacity="0.18" stroke="#000" stroke-width="1"/>
  <path d="M1047.194494 741.146699 L1023.799211 760.708403 L1022.057139 755.108523 L1003.490175 774.396547 L1000.702860 765.436738 L985.271624 794.804546 L977.606509 770.165072 L959.686892 775.739701 L955.505920 762.299988 L973.425537 756.725359 L965.760422 732.085885 L995.128231 747.517120 L992.340916 738.557311 L1018.572996 743.908762 L1016.830924 738.308881 Z" fill="#888" fill-opacity="0.18" stroke="#000" stroke-width="1"/>
  <path d="M280.125056 923.551337 L309.578306 915.645283 L308.803252 921.458438 L333.760988 911.769710 L332.520903 921.070758 L358.873735 900.918351 L355.463501 926.496232 L374.065596 928.976403 L372.205468 942.927974 L353.603373 940.447804 L350.193139 966.025684 L330.040733 939.672853 L328.800648 948.973900 L307.253146 933.084747 L306.478093 938.897902 Z" fill="#888" fill-opacity="0.18" stroke="#000" stroke-width="1"/>
  <path d="M56.681225 474.078448 L80.571606 455.124576 L82.169158 460.767385 L101.225781 441.962993 L103.781865 450.991488 L119.962892 422.030038 L126.992125 446.858401 L145.049115 441.746232 L148.883242 455.288975 L130.826252 460.401144 L137.855484 485.229506 L108.894034 469.048479 L111.450119 478.076974 L85.364264 472.053004 L86.961817 477.695814 Z" fill="#888" fill-opacity="0.18" stroke="#000" stroke-width="1"/>
  <path d="M658.114173 872.303635 L641.442862 897.839237 L638.143000 892.991105 L626.010167 916.856443 L620.730388 909.099431 L614.537306 941.691408 L600.017914 920.359626 L584.503890 930.919184 L576.584222 919.283666 L592.098245 908.724108 L577.578853 887.392326 L610.170830 893.585408 L604.891051 885.828396 L631.543276 883.294840 L628.243414 878.446708 Z" fill="#888" fill-opacity="0.18" stroke="#000" stroke-width="1"/>
  <path d="M697.713145 351.883035 L689.229998 381.175283 L684.657643 377.502813 L680.026944 403.871670 L672.711174 397.995718 L676.310716 430.975022 L656.192351 414.816152 L644.440445 429.447691 L633.466792 420.633762 L645.218697 406.002223 L625.100332 389.843354 L658.079636 386.243812 L650.763867 380.367860 L675.512931 370.157872 L670.940575 366.485402 Z" fill="#888" fill-opacity="0.18" stroke="#000" stroke-width="1"/>
  <path d="M274.103534 187.822012 L290.479307 213.548139 L284.701313 214.552261 L301.429387 235.455169 L292.184596 237.061764 L319.313060 256.157253 L293.889886 260.575389 L297.103076 279.064970 L283.235890 281.474862 L280.022700 262.985281 L254.599527 267.403417 L273.695016 240.274954 L264.450225 241.881549 L273.145325 216.560505 L267.367331 217.564626 Z" fill="#888" fill-opacity="0.18" stroke="#000" stroke-width="1"/>
  <path d="M534.596691 714.576168 L546.425022 742.684710 L540.560463 742.705380 L553.545171 766.118141 L544.161877 766.151212 L567.702790 789.526769 L541.898732 789.617715 L541.964874 808.384303 L527.889933 808.433909 L527.823791 789.667322 L502.019733 789.758268 L525.395289 766.217355 L516.011995 766.250426 L528.831346 742.746719 L522.966787 742.767388 Z" fill="#888" fill-opacity="0.18" stroke="#000" stroke-width="1"/>
  <path d="M1021.032876 771.060234 L1032.655312 799.254534 L1026.790760 799.232311 L1039.603885 822.739413 L1030.220600 822.703857 L1053.589921 846.250959 L1027.785888 846.153179 L1027.714776 864.919749 L1013.639849 864.866414 L1013.710961 846.099845 L987.906928 846.002065 L1011.454031 822.632744 L1002.070746 822.597188 L1015.061654 799.187866 L1009.197101 799.165643 Z" fill="#888" fill-opacity="0.18" stroke="#000" stroke-width="1"/>
  <path d="M733.596960 124.557171 L760.134179 139.583001 L755.504060 143.182372 L780.087806 153.784233 L772.679615 159.543226 L805.597576 163.666220 L785.225051 179.503452 L796.743038 194.319833 L785.630752 202.958324 L774.112765 188.141942 L753.740241 203.979174 L757.863234 171.061213 L750.455043 176.820207 L746.243822 150.381114 L741.613702 153.980485 Z" fill="#888" fill-opacity="0.18" stroke="#000" stroke-width="1"/>
  <path d="M192.490852 959.787612 L181.317314 988.162806 L177.106743 984.080581 L170.041099 1009.903763 L163.304185 1003.372202 L163.817571 1036.543389 L145.291056 1018.581599 L132.227935 1032.055428 L122.122563 1022.258087 L135.185684 1008.784258 L116.659169 990.822468 L149.830356 990.309082 L143.093441 983.777522 L168.685599 975.916130 L164.475028 971.833905 Z" fill="#888" fill-opacity="0.18" stroke="#000" stroke-width="1"/>
  <path d="M1012.895455 914.240476 L985.225420 901.419839 L989.547873 897.456270 L964.184202 888.886309 L971.100127 882.544600 L937.956041 881.109062 L956.974834 863.669360 L944.291414 849.837511 L954.665301 840.324946 L967.348721 854.156796 L986.367514 836.717094 L984.931976 869.861180 L991.847901 863.519470 L998.192779 889.529133 L1002.515232 885.565565 Z" fill="#888" fill-opacity="0.18" stroke="#000" stroke-width="1"/>
  <path d="M96.335908 698.600107 L124.452017 710.410440 L120.275914 714.527920 L145.933260 722.173875 L139.251495 728.761843 L172.425826 728.996335 L154.050974 747.113246 L167.226910 760.476775 L157.204263 770.358727 L144.028327 756.995198 L125.653475 775.112110 L125.887967 741.937779 L119.206202 748.525747 L111.923708 722.762880 L107.747606 726.880360 Z" fill="#888" fill-opacity="0.18" stroke="#000" stroke-width="1"/>
  <path d="M774.317380 127.465296 L804.801879 128.298885 L802.399134 133.648679 L829.084348 131.490113 L825.239956 140.049783 L856.250110 128.261588 L845.678032 151.800680 L862.797372 159.489464 L857.030783 172.328969 L839.911444 164.640185 L829.339366 188.179277 L817.551171 157.169122 L813.706779 165.728792 L797.593644 144.348266 L795.190899 149.698060 Z" fill="#888" fill-opacity="0.18" stroke="#000" stroke-width="1"/>
  <path d="M262.412329 117.340307 L279.962105 92.400280 L283.091268 97.360301 L296.047194 73.931600 L301.053856 81.867635 L308.377287 49.510896 L322.145606 71.334990 L338.017675 61.321667 L345.527667 73.225718 L329.655598 83.239041 L343.423917 105.063135 L311.067178 97.739703 L316.073840 105.675737 L289.349595 107.280344 L292.478758 112.240365 Z" fill="#888" fill-opacity="0.18" stroke="#000" stroke-width="1"/>
  <path d="M682.938653 235.299350 L711.305658 224.105038 L711.194662 229.968583 L734.893030 217.512766 L734.715438 226.894437 L758.613597 203.884239 L758.125218 229.683836 L776.888561 230.039020 L776.622173 244.111528 L757.858830 243.756343 L757.370451 269.555939 L734.360253 245.657780 L734.182661 255.039451 L710.972672 241.695672 L710.861677 247.559217 Z" fill="#888" fill-opacity="0.18" stroke="#000" stroke-width="1"/>
  <path d="M1038.411552 199.481381 L1045.029516 229.250529 L1039.255558 228.223455 L1047.849972 253.578850 L1038.611638 251.935533 L1057.599177 279.139661 L1032.193761 274.620537 L1028.907125 293.097204 L1015.049625 290.632227 L1018.336260 272.155560 L992.930844 267.636436 L1020.134971 248.648897 L1010.896638 247.005580 L1027.707641 226.169308 L1021.933682 225.142234 Z" fill="#888" fill-opacity="0.18" stroke="#000" stroke-width="1"/>
  <path d="M883.883557 114.170647 L898.090326 87.186072 L901.829691 91.703884 L911.674337 66.807238 L917.657321 74.035738 L920.771111 41.007030 L937.224315 60.885404 L951.681314 48.919437 L960.655790 59.762186 L946.198791 71.728153 L962.651995 91.606527 L929.623288 88.492737 L935.606271 95.721237 L909.308420 100.739508 L913.047785 105.257321 Z" fill="#888" fill-opacity="0.18" stroke="#000" stroke-width="1"/>
  <path d="M387.873021 147.961742 L376.445066 119.688054 L382.309327 119.750672 L369.658426 96.155869 L379.041243 96.256058 L355.834672 72.548543 L381.637419 72.824063 L381.837797 54.058428 L395.912023 54.208712 L395.711645 72.974346 L421.514393 73.249866 L397.806877 96.456436 L407.189694 96.556625 L394.037848 119.875908 L399.902109 119.938527 Z" fill="#888" fill-opacity="0.18" stroke="#000" stroke-width="1"/>
  <path d="M1040.030748 894.158650 L1032.304144 923.659484 L1027.638804 920.105883 L1023.688150 946.585165 L1016.223606 940.899404 L1020.670563 973.775166 L1000.143067 958.139323 L988.771544 973.068411 L977.574728 964.539770 L988.946251 949.610682 L968.418755 933.974839 L1001.294518 929.527881 L993.829973 923.842120 L1018.308124 912.998682 L1013.642784 909.445081 Z" fill="#888" fill-opacity="0.18" stroke="#000" stroke-width="1"/>
  <path d="M541.386278 884.570226 L542.228533 854.085965 L547.577643 856.490231 L545.426663 829.804405 L553.985240 833.651230 L542.205861 802.637726 L565.741947 813.216495 L573.435597 796.099342 L586.273462 801.869579 L578.579812 818.986732 L602.115897 829.565502 L571.102393 841.344880 L579.660970 845.191705 L558.275864 861.298762 L563.624974 863.703028 Z" fill="#888" fill-opacity="0.18" stroke="#000" stroke-width="1"/>
  <path d="M103.226787 392.539918 L120.941265 367.716606 L124.037528 372.697232 L137.148253 349.354805 L142.102273 357.323806 L149.639726 325.016252 L163.263281 346.931006 L179.201284 337.022965 L186.632314 348.976467 L170.694312 358.884507 L184.317867 380.799261 L152.010314 373.261808 L156.964334 381.230809 L130.230053 382.658483 L133.326316 387.639109 Z" fill="#888" fill-opacity="0.18" stroke="#000" stroke-width="1"/>
  <path d="M950.043646 265.266239 L920.345478 258.336709 L923.772182 253.577384 L897.196133 250.341083 L902.678859 242.726163 L869.934743 248.056647 L885.012241 227.115617 L869.782401 216.150164 L878.006491 204.727784 L893.236331 215.693237 L908.313829 194.752207 L913.644312 227.496323 L919.127039 219.881403 L930.625590 244.058734 L934.052294 239.299409 Z" fill="#888" fill-opacity="0.18" stroke="#000" stroke-width="1"/>
</svg>
