<?xml version="1.0" encoding="UTF-8"?>
<svg xmlns="http://www.w3.org/2000/svg" width="1100" height="1100" viewBox="0 0 1100 1100">
  <rect x="0" y="0" width="1100" height="1100" fill="white"/>
  <text x="10.0" y="18.0" font-family="monospace" font-size="12">prefix=N158_job5048561_task158 run_id=158 L=11.3374470782 feas=0.000e+00 N=158</text>
  <rect x="40.000000" y="40.000000" width="1020.000000" height="1020.000000" fill="none" stroke="#000" stroke-width="2"/>
  <path d="M444.498322 161.015123 L415.261133 161.373586 L417.360014 156.157039 L391.876286 159.237916 L395.234497 150.891441 L365.972782 163.362103 L375.207861 140.409296 L358.514910 133.692875 L363.552225 121.173162 L380.245176 127.889583 L389.480255 104.936775 L401.950918 134.198490 L405.309128 125.852014 L421.557777 145.723944 L423.656659 140.507397 Z" fill="#888" fill-opacity="0.18" stroke="#000" stroke-width="1"/>
  <path d="M224.862892 1055.551564 L195.624074 1055.734013 L197.754321 1050.530195 L172.252508 1053.457605 L175.660904 1045.131497 L146.324646 1057.425778 L155.697733 1034.528982 L139.045518 1027.712191 L144.158111 1015.223029 L160.810326 1022.039820 L170.183414 999.143024 L182.477695 1028.479282 L185.886090 1020.153174 L202.014816 1040.122561 L204.145063 1034.918743 Z" fill="#888" fill-opacity="0.18" stroke="#000" stroke-width="1"/>
  <path d="M245.462648 831.750748 L227.755760 855.018920 L224.934997 850.154667 L211.683664 872.139080 L207.170442 864.356274 L198.996484 895.096343 L186.585124 873.693628 L171.019513 882.720073 L164.249680 871.045865 L179.815290 862.019421 L167.403930 840.616707 L198.143998 848.790664 L193.630776 841.007859 L219.293469 840.426161 L216.472705 835.561908 Z" fill="#888" fill-opacity="0.18" stroke="#000" stroke-width="1"/>
  <path d="M56.053463 274.116980 L76.317459 253.038266 L78.560426 258.194502 L94.250840 237.878914 L97.839588 246.128891 L109.492661 216.532079 L119.361717 239.219516 L135.861671 232.042020 L141.244793 244.416985 L124.744839 251.594481 L134.613895 274.281918 L105.017084 262.628845 L108.605832 270.878822 L83.046361 268.506973 L85.289328 273.663208 Z" fill="#888" fill-opacity="0.18" stroke="#000" stroke-width="1"/>
  <path d="M179.292460 712.048080 L159.845047 690.213706 L165.159389 688.376471 L146.118895 671.161019 L154.621843 668.221443 L126.015533 654.313014 L149.398640 646.229179 L143.519487 629.223283 L156.273909 624.813919 L162.153061 641.819815 L185.536168 633.735980 L171.627739 662.342290 L180.130687 659.402714 L175.788074 684.702001 L181.102416 682.864766 Z" fill="#888" fill-opacity="0.18" stroke="#000" stroke-width="1"/>
  <path d="M575.230344 253.371166 L601.348894 240.227228 L601.750292 245.835842 L623.301671 231.891300 L623.943908 240.865082 L644.772771 216.825035 L646.538922 241.502935 L664.486486 240.218462 L665.449841 253.679135 L647.502277 254.963608 L649.268428 279.641508 L625.228382 258.812646 L625.870618 267.786428 L602.553088 257.053070 L602.954486 262.661683 Z" fill="#888" fill-opacity="0.18" stroke="#000" stroke-width="1"/>
  <path d="M140.340781 572.312683 L128.272233 545.680149 L133.892546 545.507665 L120.837923 523.405877 L129.830424 523.129903 L106.659237 501.338587 L131.388614 500.579658 L130.836666 482.594657 L144.325417 482.180696 L144.877365 500.165697 L169.606742 499.406769 L147.815425 522.577956 L156.807926 522.301982 L145.133172 545.162697 L150.753485 544.990214 Z" fill="#888" fill-opacity="0.18" stroke="#000" stroke-width="1"/>
  <path d="M514.798027 676.942288 L542.798257 668.520362 L542.222251 674.113740 L565.862979 664.112333 L564.941369 673.061739 L589.618909 652.992250 L587.084481 677.603116 L604.983293 679.446336 L603.600877 692.870445 L585.702066 691.027225 L583.167637 715.638090 L563.098148 690.960550 L562.176538 699.909956 L541.070238 685.300497 L540.494231 690.893876 Z" fill="#888" fill-opacity="0.18" stroke="#000" stroke-width="1"/>
  <path d="M218.670142 1045.284418 L240.336391 1025.649873 L242.219280 1030.948212 L259.270280 1011.760310 L262.282903 1020.237652 L275.944702 991.512740 L284.229414 1014.825431 L301.184099 1008.800186 L305.703033 1021.516200 L288.748348 1027.541445 L297.033060 1050.854137 L268.308148 1037.192337 L271.320770 1045.669679 L245.985058 1041.544890 L247.867947 1046.843229 Z" fill="#888" fill-opacity="0.18" stroke="#000" stroke-width="1"/>
  <path d="M546.040006 450.834722 L555.567318 423.191059 L559.769794 426.926948 L565.467900 401.898089 L572.191862 407.875510 L570.325511 376.122052 L588.816406 392.559961 L600.771249 379.112037 L610.857191 388.078169 L598.902349 401.526093 L617.393244 417.964002 L585.639786 419.830353 L592.363748 425.807774 L568.174747 434.398724 L572.377223 438.134613 Z" fill="#888" fill-opacity="0.18" stroke="#000" stroke-width="1"/>
  <path d="M293.875933 143.986974 L323.105423 144.747652 L320.808447 149.880056 L346.391410 147.776672 L342.716248 155.988518 L372.433768 144.646808 L362.327072 167.229385 L378.750764 174.579708 L373.238022 186.897477 L356.814330 179.547154 L346.707634 202.129730 L335.365924 172.412210 L331.690762 180.624056 L316.214495 160.144863 L313.917519 165.277267 Z" fill="#888" fill-opacity="0.18" stroke="#000" stroke-width="1"/>
  <path d="M915.755835 988.540085 L943.380447 998.122491 L939.636188 1002.317511 L964.653637 1008.065505 L958.662822 1014.777537 L990.419938 1012.974496 L973.945197 1031.432582 L987.369259 1043.414212 L978.383037 1053.482259 L964.958974 1041.500629 L948.484233 1059.958715 L946.681192 1028.201599 L940.690377 1034.913631 L932.147669 1010.707550 L928.403410 1014.902570 Z" fill="#888" fill-opacity="0.18" stroke="#000" stroke-width="1"/>
  <path d="M182.092028 472.191084 L153.603679 465.606577 L156.879653 461.036494 L131.392176 457.986783 L136.633734 450.674649 L105.249505 455.851088 L119.663790 435.742721 L105.039522 425.259605 L112.901859 414.291404 L127.526127 424.774520 L141.940411 404.666152 L147.116850 436.050382 L152.358408 428.738248 L163.431600 451.896327 L166.707574 447.326243 Z" fill="#888" fill-opacity="0.18" stroke="#000" stroke-width="1"/>
  <path d="M145.163224 372.069321 L174.394973 371.401045 L172.351490 376.639542 L197.801139 373.288780 L194.531566 381.670375 L223.659483 368.890319 L214.668159 391.939704 L231.431348 398.478849 L226.526990 411.051241 L209.763801 404.512096 L200.772477 427.561481 L187.992422 398.433564 L184.722849 406.815158 L168.264525 387.116535 L166.221042 392.355031 Z" fill="#888" fill-opacity="0.18" stroke="#000" stroke-width="1"/>
  <path d="M866.168950 298.848646 L878.340618 272.263082 L882.159678 276.390121 L890.265903 252.034397 L896.376398 258.637659 L897.608316 226.853265 L914.412178 245.012237 L927.618704 232.791246 L936.784447 242.696140 L923.577922 254.917130 L940.381784 273.076102 L908.597389 271.844184 L914.707884 278.447447 L889.797797 284.644199 L893.616857 288.771238 Z" fill="#888" fill-opacity="0.18" stroke="#000" stroke-width="1"/>
  <path d="M642.318706 692.501623 L662.221371 713.921839 L656.946875 715.870521 L676.345494 732.681404 L667.906300 735.799295 L696.799012 749.102551 L673.591230 757.676752 L679.827012 774.555138 L667.168222 779.231975 L660.932440 762.353588 L637.724658 770.927789 L651.027914 742.035078 L642.588720 745.152969 L646.397883 719.767885 L641.123388 721.716567 Z" fill="#888" fill-opacity="0.18" stroke="#000" stroke-width="1"/>
  <path d="M913.809162 146.637829 L937.200495 164.181697 L932.356070 167.036381 L954.432541 180.133773 L946.681462 184.701267 L977.477896 192.660227 L956.162429 205.220838 L965.297419 220.722995 L953.670801 227.574237 L944.535811 212.072080 L923.220345 224.632691 L931.179305 193.836257 L923.428226 198.403752 L922.667222 172.745750 L917.822798 175.600434 Z" fill="#888" fill-opacity="0.18" stroke="#000" stroke-width="1"/>
  <path d="M153.934422 297.763457 L143.745224 325.170062 L139.633785 321.334213 L133.335554 346.218836 L126.757252 340.081477 L127.859611 371.870629 L109.769280 354.992893 L97.494563 368.149497 L87.627109 358.943459 L99.901827 345.786855 L81.811496 328.909119 L113.600648 327.806760 L107.022346 321.669401 L131.410908 313.662514 L127.299469 309.826665 Z" fill="#888" fill-opacity="0.18" stroke="#000" stroke-width="1"/>
  <path d="M228.101427 611.593177 L236.122006 639.711002 L230.537438 639.055053 L240.199690 662.836413 L231.264381 661.786894 L250.978855 686.748962 L226.406757 683.862785 L224.307719 701.733403 L210.904756 700.159124 L213.003794 682.288507 L188.431695 679.402330 L213.393764 659.687856 L204.458455 658.638337 L219.368302 637.743154 L213.783734 637.087205 Z" fill="#888" fill-opacity="0.18" stroke="#000" stroke-width="1"/>
  <path d="M1052.284606 969.190568 L1040.753075 996.059985 L1036.836280 992.025585 L1029.315629 1016.568445 L1023.048757 1010.113405 L1022.578337 1041.918186 L1005.344439 1024.166826 L992.434359 1036.700570 L983.034050 1027.018010 L995.944131 1014.484266 L978.710232 996.732905 L1010.515013 997.203325 L1004.248141 990.748285 L1029.002690 983.956785 L1025.085895 979.922385 Z" fill="#888" fill-opacity="0.18" stroke="#000" stroke-width="1"/>
  <path d="M923.383039 553.514763 L952.296605 549.161894 L950.930726 554.616438 L975.753833 548.079958 L973.568426 556.807227 L1000.850115 540.452569 L994.840248 564.452559 L1012.294787 568.823372 L1009.016678 581.914276 L991.562139 577.543463 L985.552272 601.543454 L969.197614 574.261766 L967.012208 582.989035 L948.198968 565.525524 L946.833089 570.980068 Z" fill="#888" fill-opacity="0.18" stroke="#000" stroke-width="1"/>
  <path d="M696.474195 1036.279896 L703.363066 1007.863612 L707.897845 1011.188285 L711.220022 985.734890 L718.475668 991.054366 L713.635243 959.616560 L733.588270 974.245119 L744.227223 959.733827 L755.110692 967.713041 L744.471739 982.224334 L764.424767 996.852893 L732.986960 1001.693318 L740.242607 1007.012795 L716.967402 1017.837630 L721.502181 1021.162303 Z" fill="#888" fill-opacity="0.18" stroke="#000" stroke-width="1"/>
  <path d="M964.725026 181.746280 L974.904134 154.335926 L979.016985 158.170261 L985.306054 133.283321 L991.886615 139.418257 L990.772553 107.629513 L1008.869096 124.500588 L1021.138969 111.339466 L1031.009811 120.541871 L1018.739938 133.702993 L1036.836481 150.574068 L1005.047737 151.688130 L1011.628299 157.823066 L987.242686 165.838932 L991.355537 169.673267 Z" fill="#888" fill-opacity="0.18" stroke="#000" stroke-width="1"/>
  <path d="M151.166608 595.900109 L123.021171 603.823248 L123.696460 598.240986 L99.881775 607.820808 L100.962237 598.889188 L75.932033 618.517082 L78.903303 593.955128 L61.040064 591.794204 L62.660757 578.396774 L80.523996 580.557698 L83.495267 555.995744 L103.123161 581.025949 L104.203623 572.094329 L125.047037 587.076461 L125.722326 581.494199 Z" fill="#888" fill-opacity="0.18" stroke="#000" stroke-width="1"/>
  <path d="M568.722816 841.443064 L539.989780 846.861031 L541.153235 841.359755 L516.588529 848.808742 L518.450057 840.006700 L491.791132 857.357984 L496.910335 833.152369 L479.306251 829.429312 L482.098543 816.226249 L499.702627 819.949306 L504.821830 795.743691 L522.173114 822.402616 L524.034642 813.600574 L543.480146 830.357203 L544.643601 824.855927 Z" fill="#888" fill-opacity="0.18" stroke="#000" stroke-width="1"/>
  <path d="M589.350066 518.839352 L617.201374 509.937309 L616.721611 515.539763 L640.186908 505.133418 L639.419286 514.097345 L663.748158 493.606582 L661.637198 518.257381 L679.565052 519.792624 L678.413619 533.238515 L660.485766 531.703271 L658.374806 556.354070 L637.884043 532.025199 L637.116421 540.989126 L615.762083 526.744672 L615.282320 532.347126 Z" fill="#888" fill-opacity="0.18" stroke="#000" stroke-width="1"/>
  <path d="M840.499829 300.928228 L812.692401 291.890048 L816.353574 287.622323 L791.228092 282.366626 L797.085969 275.538266 L765.370375 277.964475 L781.479537 259.186483 L767.822816 247.470730 L776.609631 237.228189 L790.266352 248.943943 L806.375514 230.165951 L808.801723 261.881545 L814.659600 255.053184 L823.675920 279.086872 L827.337093 274.819147 Z" fill="#888" fill-opacity="0.18" stroke="#000" stroke-width="1"/>
  <path d="M574.382057 330.560234 L595.887157 310.749317 L597.813274 316.032095 L614.706927 296.705516 L617.788714 305.157960 L631.215358 276.322381 L639.690272 299.566603 L656.595161 293.403029 L661.217842 306.081695 L644.312953 312.245270 L652.787868 335.489492 L623.952289 322.062849 L627.034076 330.515293 L601.665508 326.597650 L603.591625 331.880428 Z" fill="#888" fill-opacity="0.18" stroke="#000" stroke-width="1"/>
  <path d="M966.102524 423.405476 L951.784112 448.899099 L948.317671 444.471745 L938.234428 468.077686 L932.688123 460.993921 L928.844474 492.569097 L913.592134 473.088743 L899.424604 484.181354 L891.105146 473.555707 L905.272676 462.463096 L890.020336 442.982742 L921.595512 446.826391 L916.049207 439.742626 L941.384789 435.617039 L937.918348 431.189686 Z" fill="#888" fill-opacity="0.18" stroke="#000" stroke-width="1"/>
  <path d="M787.164018 701.368671 L767.097013 680.102334 L772.356349 678.113098 L752.828866 661.452077 L761.243803 658.269299 L732.249517 645.188903 L755.390592 636.436264 L749.025036 619.606391 L761.647441 614.832224 L768.012997 631.662097 L791.154072 622.909457 L778.073676 651.903743 L786.488612 648.720965 L782.875019 674.134626 L788.134354 672.145390 Z" fill="#888" fill-opacity="0.18" stroke="#000" stroke-width="1"/>
  <path d="M381.595933 675.659964 L375.243561 647.118956 L380.779862 648.102338 L372.533526 623.793695 L381.391607 625.367105 L363.179929 599.288375 L387.539653 603.615253 L390.686474 585.899090 L403.973596 588.259205 L400.826776 605.975369 L425.186500 610.302247 L399.107771 628.513925 L407.965852 630.087335 L391.852464 650.069100 L397.388766 651.052482 Z" fill="#888" fill-opacity="0.18" stroke="#000" stroke-width="1"/>
  <path d="M741.106446 71.977241 L769.890271 77.118558 L766.848630 81.847838 L792.457360 83.609986 L787.590734 91.176834 L818.674417 84.426278 L805.291197 105.235109 L820.424893 114.968360 L813.124955 126.318632 L797.991259 116.585381 L784.608039 137.394213 L777.857483 106.310529 L772.990858 113.877377 L760.765348 91.306398 L757.723707 96.035678 Z" fill="#888" fill-opacity="0.18" stroke="#000" stroke-width="1"/>
  <path d="M484.316843 390.379361 L472.401111 417.080617 L468.542584 412.990453 L460.670688 437.422920 L454.497045 430.878658 L453.570497 462.673420 L436.592979 444.676700 L423.504455 457.023985 L414.243991 447.207592 L427.332515 434.860307 L410.354998 416.863586 L442.149759 417.790134 L435.976117 411.245872 L460.825530 404.810126 L456.967004 400.719962 Z" fill="#888" fill-opacity="0.18" stroke="#000" stroke-width="1"/>
  <path d="M605.541024 872.666218 L599.464702 901.267268 L594.837025 898.073168 L592.241517 923.610896 L584.837234 918.500337 L590.571545 949.787444 L570.209765 935.733407 L559.988647 950.541974 L548.882222 942.876135 L559.103340 928.067568 L538.741560 914.013531 L570.028666 908.279219 L562.624383 903.168660 L585.581670 891.684970 L580.953993 888.490870 Z" fill="#888" fill-opacity="0.18" stroke="#000" stroke-width="1"/>
  <path d="M508.710345 518.632324 L529.219957 497.792517 L531.402348 502.974683 L547.329750 482.844356 L550.821575 491.135820 L562.820673 461.677595 L572.423193 484.479123 L589.006122 477.495473 L594.243860 489.932669 L577.660931 496.916320 L587.263450 519.717848 L557.805225 507.718750 L561.297051 516.010214 L535.767129 513.339014 L537.949520 518.521179 Z" fill="#888" fill-opacity="0.18" stroke="#000" stroke-width="1"/>
  <path d="M600.670549 340.522483 L628.126600 350.577678 L624.310881 354.707806 L649.225975 360.884401 L643.120824 367.492606 L674.904212 366.234971 L658.115048 384.407533 L671.331457 396.617834 L662.173731 406.530141 L648.957322 394.319840 L632.168158 412.492402 L630.910523 380.709015 L624.805373 387.317219 L616.679443 362.968062 L612.863724 367.098190 Z" fill="#888" fill-opacity="0.18" stroke="#000" stroke-width="1"/>
  <path d="M155.885778 1003.160192 L135.116156 1023.740876 L132.998995 1018.531721 L116.820130 1038.460507 L113.432672 1030.125859 L101.064696 1059.431124 L91.749187 1036.510841 L75.079891 1043.285757 L69.998704 1030.783785 L86.668000 1024.008869 L77.352491 1001.088587 L106.657756 1013.456563 L103.270298 1005.121915 L128.764673 1008.113411 L126.647512 1002.904256 Z" fill="#888" fill-opacity="0.18" stroke="#000" stroke-width="1"/>
  <path d="M67.099630 728.125284 L81.752357 702.822333 L85.160224 707.294929 L95.553301 683.823752 L101.005887 690.979905 L105.264805 659.458056 L120.259417 679.137478 L134.571724 668.232305 L142.750604 678.966535 L128.438297 689.871708 L143.432910 709.551130 L111.911060 705.292212 L117.363646 712.448366 L91.975957 716.240121 L95.383823 720.712717 Z" fill="#888" fill-opacity="0.18" stroke="#000" stroke-width="1"/>
  <path d="M64.821571 880.786179 L65.495071 851.554550 L70.634302 853.836208 L68.454628 828.259633 L76.677398 831.910287 L65.247107 802.226726 L87.859726 812.266024 L95.161034 795.820483 L107.495190 801.296464 L100.193882 817.742005 L122.806501 827.781304 L93.122939 839.211595 L101.345710 842.862249 L80.912765 858.399526 L86.051997 860.681185 Z" fill="#888" fill-opacity="0.18" stroke="#000" stroke-width="1"/>
  <path d="M1047.028706 915.604103 L1026.474440 894.808338 L1031.686282 892.697800 L1011.778077 876.493615 L1020.117024 873.116754 L990.827504 860.711539 L1013.759609 851.425171 L1007.005887 834.747277 L1019.514308 829.681985 L1026.268030 846.359880 L1049.200134 837.073513 L1036.794919 866.363033 L1045.133866 862.986172 L1042.109966 888.476723 L1047.321808 886.366185 Z" fill="#888" fill-opacity="0.18" stroke="#000" stroke-width="1"/>
  <path d="M431.050790 147.510745 L410.086588 127.128303 L415.255380 124.914424 L395.028522 109.109790 L403.298589 105.567584 L373.767906 93.747933 L396.510590 84.006866 L389.426178 67.466732 L401.831278 62.153423 L408.915690 78.693556 L431.658374 68.952489 L419.838723 98.483172 L428.108789 94.940965 L425.592963 120.486666 L430.761755 118.272787 Z" fill="#888" fill-opacity="0.18" stroke="#000" stroke-width="1"/>
  <path d="M337.624920 377.643204 L316.003249 397.326829 L314.108351 392.032773 L297.100904 411.259291 L294.069067 402.788801 L280.472438 431.544619 L272.134884 408.250774 L255.193905 414.314449 L250.646148 401.608715 L267.587127 395.545040 L259.249573 372.251194 L288.005391 385.847823 L284.973553 377.377333 L310.318553 381.444662 L308.423655 376.150606 Z" fill="#888" fill-opacity="0.18" stroke="#000" stroke-width="1"/>
  <path d="M374.980758 756.485567 L397.409539 737.726795 L399.080565 743.095718 L416.880002 724.599982 L419.553643 733.190260 L434.345233 705.030462 L441.697748 728.653725 L458.878303 723.306442 L462.888766 736.191858 L445.708210 741.539142 L453.060725 765.162405 L424.900927 750.370815 L427.574568 758.961093 L402.422617 753.833565 L404.093643 759.202489 Z" fill="#888" fill-opacity="0.18" stroke="#000" stroke-width="1"/>
  <path d="M468.430270 216.109138 L457.530132 243.240830 L453.520078 239.299112 L446.575325 264.011105 L440.159239 257.704357 L440.432582 289.511442 L422.788347 272.167884 L410.174850 285.000055 L400.550722 275.539933 L413.164219 262.707762 L395.519983 245.364204 L427.327068 245.090860 L420.910982 238.784112 L445.499971 231.415677 L441.489918 227.473959 Z" fill="#888" fill-opacity="0.18" stroke="#000" stroke-width="1"/>
  <path d="M1006.001074 918.527229 L999.075688 946.934636 L994.545186 943.604138 L991.190299 969.053242 L983.941495 963.724445 L988.741512 995.168447 L968.807302 980.514255 L958.149708 995.011863 L947.276503 987.018667 L957.934097 972.521060 L937.999887 957.866869 L969.443888 953.066852 L962.195084 947.738055 L985.484181 936.943142 L980.953679 933.612643 Z" fill="#888" fill-opacity="0.18" stroke="#000" stroke-width="1"/>
  <path d="M285.552783 111.227072 L305.174078 89.548822 L307.571009 94.635313 L322.643725 73.857309 L326.478814 81.995695 L337.237055 52.062007 L347.783550 74.442567 L364.060321 66.772389 L369.812956 78.979967 L353.536185 86.650146 L364.082680 109.030706 L334.148993 98.272466 L337.984082 106.410851 L312.364871 104.808295 L314.761802 109.894786 Z" fill="#888" fill-opacity="0.18" stroke="#000" stroke-width="1"/>
  <path d="M343.678244 482.157711 L315.976893 491.515965 L316.364581 485.906387 L293.073356 496.696707 L293.693656 487.721382 L269.704592 508.608942 L271.410419 483.926799 L253.459769 482.686197 L254.390221 469.223210 L272.340870 470.463811 L274.046697 445.781668 L294.934258 469.770732 L295.554558 460.795407 L317.139957 474.687231 L317.527645 469.077652 Z" fill="#888" fill-opacity="0.18" stroke="#000" stroke-width="1"/>
  <path d="M773.823610 954.776404 L793.219122 976.656894 L787.900432 978.481505 L806.899994 995.742121 L798.390090 998.661498 L826.963294 1012.637815 L803.561058 1020.666103 L809.399813 1037.685910 L796.634957 1042.064977 L790.796202 1025.045169 L767.393966 1033.073457 L781.370282 1004.500253 L772.860378 1007.419631 L777.263052 982.130727 L771.944363 983.955338 Z" fill="#888" fill-opacity="0.18" stroke="#000" stroke-width="1"/>
  <path d="M686.532243 214.587811 L657.483497 217.921290 L659.040331 212.518149 L634.002731 218.177723 L636.493665 209.532697 L608.653764 224.917926 L615.503834 201.144105 L598.213782 196.162236 L601.950183 183.194697 L619.240235 188.176566 L626.090305 164.402744 L641.475534 192.242645 L643.966469 183.597619 L662.153999 201.711866 L663.710833 196.308725 Z" fill="#888" fill-opacity="0.18" stroke="#000" stroke-width="1"/>
  <path d="M619.804377 154.143211 L602.672446 177.837908 L599.733441 173.044170 L587.024301 195.346411 L582.321894 187.676431 L574.902962 218.607400 L561.971342 197.514955 L546.631382 206.919770 L539.577770 195.414800 L554.917731 186.009985 L541.986110 164.917540 L572.917079 172.336471 L568.214672 164.666491 L593.855432 163.456695 L590.916427 158.662958 Z" fill="#888" fill-opacity="0.18" stroke="#000" stroke-width="1"/>
  <path d="M716.859130 175.302783 L744.905182 183.570836 L741.363068 187.937883 L766.623906 192.498836 L760.956523 199.486111 L792.593166 196.186380 L777.007865 215.401385 L790.982414 226.736150 L782.481341 237.217062 L768.506791 225.882297 L752.921490 245.097303 L749.621759 213.460660 L743.954377 220.447935 L734.278840 196.671977 L730.736727 201.039023 Z" fill="#888" fill-opacity="0.18" stroke="#000" stroke-width="1"/>
  <path d="M115.295530 122.417298 L91.980470 104.772193 L96.837224 101.938537 L74.817739 88.745566 L82.588545 84.211715 L51.826903 76.119327 L73.196620 63.651238 L64.128918 48.109625 L75.785127 41.308849 L84.852829 56.850461 L106.222546 44.382372 L98.130157 75.144014 L105.900963 70.610163 L106.550731 96.271223 L111.407485 93.437567 Z" fill="#888" fill-opacity="0.18" stroke="#000" stroke-width="1"/>
  <path d="M404.670361 486.194628 L411.839267 514.541560 L406.277023 513.717480 L415.217641 537.779432 L406.318050 536.460905 L425.270708 562.006201 L400.796833 558.380250 L398.159778 576.179431 L384.810392 574.201640 L387.447447 556.402458 L362.973573 552.776507 L388.518869 533.823850 L379.619278 532.505322 L395.152534 512.069321 L389.590290 511.245241 Z" fill="#888" fill-opacity="0.18" stroke="#000" stroke-width="1"/>
  <path d="M554.037112 723.854305 L581.613679 714.134495 L581.299402 719.748664 L604.447489 708.654599 L603.944646 717.637270 L627.658431 696.437700 L626.275613 721.140046 L644.240955 722.145732 L643.486690 735.619738 L625.521348 734.614052 L624.138530 759.316397 L602.938960 735.602612 L602.436117 744.585283 L580.670848 730.977003 L580.356572 736.591173 Z" fill="#888" fill-opacity="0.18" stroke="#000" stroke-width="1"/>
  <path d="M944.309746 501.886851 L962.682219 479.140556 L965.361112 484.084360 L979.242763 462.492418 L983.528993 470.402504 L992.588636 439.911715 L1004.375766 461.664453 L1020.195939 453.091995 L1026.625283 464.957125 L1010.805110 473.529583 L1022.592240 495.282321 L992.101451 486.222677 L996.387680 494.132764 L970.718899 493.971968 L973.397792 498.915772 Z" fill="#888" fill-opacity="0.18" stroke="#000" stroke-width="1"/>
  <path d="M369.463243 291.001429 L393.101127 308.211664 L388.297692 311.134791 L410.557761 323.917652 L402.872264 328.594657 L433.778517 336.115888 L412.643401 348.977650 L421.997409 364.348643 L410.469164 371.364149 L401.115156 355.993156 L379.980040 368.854918 L387.501271 337.948665 L379.815774 342.625670 L378.690821 316.981047 L373.887386 319.904174 Z" fill="#888" fill-opacity="0.18" stroke="#000" stroke-width="1"/>
  <path d="M115.829191 175.926723 L103.325881 202.357935 L99.558751 198.183441 L91.148462 222.435848 L85.121054 215.756658 L83.491599 247.523154 L66.916226 229.155381 L53.557846 241.210197 L44.516734 231.191412 L57.875114 219.136596 L41.299742 200.768823 L73.066237 202.398278 L67.038829 195.719088 L92.024490 189.834454 L88.257360 185.659960 Z" fill="#888" fill-opacity="0.18" stroke="#000" stroke-width="1"/>
  <path d="M418.515800 936.615576 L416.071246 965.752595 L411.079804 963.163546 L411.704778 988.825221 L403.718471 984.682742 L413.328040 1015.004707 L391.365696 1003.612889 L383.080738 1019.585503 L371.101278 1013.371784 L379.386236 997.399170 L357.423893 986.007352 L387.745858 976.397784 L379.759551 972.255304 L401.096921 957.985446 L396.105479 955.396397 Z" fill="#888" fill-opacity="0.18" stroke="#000" stroke-width="1"/>
  <path d="M930.279333 427.615611 L901.641144 421.716809 L904.806478 417.069409 L879.253142 414.632355 L884.317676 407.196514 L853.066739 413.124780 L866.994208 392.676219 L852.122527 382.547151 L859.719328 371.393390 L874.591009 381.522458 L888.518478 361.073896 L894.446744 392.324833 L899.511278 384.888992 L911.137145 407.774608 L914.302479 403.127208 Z" fill="#888" fill-opacity="0.18" stroke="#000" stroke-width="1"/>
  <path d="M560.115255 1047.452203 L530.891551 1048.409734 L532.883092 1043.151271 L507.467851 1046.753726 L510.654316 1038.340185 L481.654301 1051.407874 L490.417080 1028.270637 L473.589999 1021.897706 L478.369696 1009.277395 L495.196778 1015.650326 L503.959558 992.513089 L517.027246 1021.513104 L520.213712 1013.099563 L536.866174 1032.634345 L538.857715 1027.375882 Z" fill="#888" fill-opacity="0.18" stroke="#000" stroke-width="1"/>
  <path d="M567.772113 385.362133 L539.665629 393.422364 L540.313701 387.836877 L516.545993 397.532662 L517.582908 388.595882 L492.648671 408.345545 L495.500187 383.769400 L477.626627 381.695570 L479.181999 368.290400 L497.055559 370.364230 L499.907075 345.788085 L519.656738 370.722322 L520.693652 361.785542 L541.609845 376.665902 L542.257916 371.080414 Z" fill="#888" fill-opacity="0.18" stroke="#000" stroke-width="1"/>
  <path d="M877.944884 825.332241 L899.841592 805.955040 L901.661753 811.275255 L918.938258 792.290140 L921.850515 800.802483 L935.850730 772.240982 L943.859437 795.649926 L960.884124 789.825412 L965.252510 802.593926 L948.227823 808.418441 L956.236530 831.827385 L927.675029 817.827170 L930.587287 826.339513 L905.302075 821.915684 L907.122236 827.235899 Z" fill="#888" fill-opacity="0.18" stroke="#000" stroke-width="1"/>
  <path d="M808.061439 487.322437 L806.673591 458.116006 L811.960816 460.029882 L807.984423 434.670456 L816.443983 437.732656 L802.950584 408.928254 L826.214374 417.349306 L832.338776 400.430186 L845.028116 405.023487 L838.903715 421.942607 L862.167505 430.363659 L833.363103 443.857058 L841.822663 446.919258 L822.535266 463.857633 L827.822491 465.771508 Z" fill="#888" fill-opacity="0.18" stroke="#000" stroke-width="1"/>
  <path d="M360.620430 940.873256 L359.081536 970.072118 L354.012129 967.639263 L355.433400 993.269171 L347.322350 989.376601 L357.868553 1019.385650 L335.563165 1008.681085 L327.778027 1024.903185 L315.611451 1019.064331 L323.396590 1002.842231 L301.091202 992.137666 L331.100250 981.591463 L322.989200 977.698894 L343.873317 962.773551 L338.803910 960.340695 Z" fill="#888" fill-opacity="0.18" stroke="#000" stroke-width="1"/>
  <path d="M933.287294 763.162949 L960.283122 751.930541 L960.280308 757.553500 L982.778333 745.194248 L982.773830 754.190982 L1005.276920 731.710406 L1005.264537 756.451422 L1023.258004 756.460428 L1023.251249 769.955528 L1005.257783 769.946522 L1005.245400 794.687538 L982.764824 772.184448 L982.760321 781.181181 L960.274679 768.799416 L960.271865 774.422374 Z" fill="#888" fill-opacity="0.18" stroke="#000" stroke-width="1"/>
  <path d="M293.315644 708.525676 L318.575359 723.252813 L314.092752 726.647501 L337.533238 737.109615 L330.361067 742.541115 L361.870245 746.892791 L342.146775 761.829417 L353.009776 776.173759 L342.251519 784.321009 L331.388519 769.976668 L311.665049 784.913293 L316.016725 753.404116 L308.844554 758.835616 L305.127538 733.436876 L300.644932 736.831564 Z" fill="#888" fill-opacity="0.18" stroke="#000" stroke-width="1"/>
  <path d="M493.548144 248.802050 L521.998390 255.549288 L518.696348 260.100572 L544.165976 263.295919 L538.882707 270.577973 L570.296012 265.581010 L555.767024 285.606657 L570.331131 296.173194 L562.406229 307.096274 L547.842122 296.529738 L533.313133 316.555385 L528.316170 285.142080 L523.032902 292.424133 L512.092262 269.203139 L508.790219 273.754422 Z" fill="#888" fill-opacity="0.18" stroke="#000" stroke-width="1"/>
  <path d="M953.559334 931.729769 L946.311098 903.403018 L951.875628 904.211523 L942.867681 880.174695 L951.770929 881.468302 L932.746829 855.976166 L957.230759 859.533586 L959.817974 841.727092 L973.172845 843.667503 L970.585630 861.473998 L995.069559 865.031418 L969.577423 884.055517 L978.480670 885.349125 L963.004686 905.828532 L968.569216 906.637037 Z" fill="#888" fill-opacity="0.18" stroke="#000" stroke-width="1"/>
  <path d="M138.706266 811.036482 L164.376093 797.036420 L164.962655 802.628701 L186.041344 787.979432 L186.979843 796.927083 L207.002720 772.211707 L209.583594 796.817746 L227.478895 794.940746 L228.886645 808.362222 L210.991344 810.239221 L213.572219 834.845260 L188.856843 814.822384 L189.795343 823.770034 L166.135780 813.813264 L166.722342 819.405546 Z" fill="#888" fill-opacity="0.18" stroke="#000" stroke-width="1"/>
  <path d="M1031.809908 681.245372 L1004.406449 691.443026 L1004.623097 685.824242 L981.671335 697.318971 L982.017973 688.328917 L958.676243 709.937458 L959.629497 685.214809 L941.649389 684.521533 L942.169346 671.036452 L960.149454 671.729728 L961.102708 647.007079 L982.711249 670.348809 L983.057886 661.358755 L1005.056395 674.586674 L1005.273043 668.967890 Z" fill="#888" fill-opacity="0.18" stroke="#000" stroke-width="1"/>
  <path d="M121.769309 97.655982 L147.694516 111.177274 L143.376742 114.779287 L167.283895 124.125957 L160.375456 129.889176 L192.054603 132.752224 L173.056396 148.601079 L184.582835 162.417956 L174.220177 171.062786 L162.693737 157.245908 L143.695531 173.094763 L146.558578 141.415616 L139.650139 147.178836 L134.741194 121.983311 L130.423419 125.585324 Z" fill="#888" fill-opacity="0.18" stroke="#000" stroke-width="1"/>
  <path d="M519.066852 651.248724 L501.753998 674.811551 L498.851784 669.995451 L485.972253 692.199727 L481.328711 684.493966 L473.673165 715.367223 L460.903424 694.176382 L445.491903 703.463466 L438.526590 691.904825 L453.938111 682.617741 L441.168370 661.426899 L472.041627 669.082445 L467.398085 661.376685 L493.047356 660.363250 L490.145143 655.547150 Z" fill="#888" fill-opacity="0.18" stroke="#000" stroke-width="1"/>
  <path d="M813.806377 224.484660 L797.422015 200.267013 L802.932866 199.149792 L786.340110 179.564271 L795.157473 177.776718 L768.645184 160.202193 L792.892932 155.286423 L789.317826 137.651698 L802.543870 134.970368 L806.118976 152.605094 L830.366723 147.689323 L812.792198 174.201612 L821.609561 172.414059 L813.954570 196.915351 L819.465421 195.798131 Z" fill="#888" fill-opacity="0.18" stroke="#000" stroke-width="1"/>
  <path d="M663.709251 614.021248 L688.469775 598.469458 L689.399048 604.015098 L709.537206 588.097598 L711.024043 596.970621 L729.489509 571.070970 L733.578310 595.471785 L751.324357 592.498110 L753.554613 605.807646 L735.808566 608.781320 L739.897368 633.182134 L713.997717 614.716668 L715.484554 623.589692 L691.257594 615.106377 L692.186867 620.652017 Z" fill="#888" fill-opacity="0.18" stroke="#000" stroke-width="1"/>
  <path d="M308.722796 183.316674 L286.234484 202.004038 L284.580537 196.629828 L266.722382 215.068876 L264.076067 206.470141 L249.195016 234.582766 L241.917650 210.936244 L224.720180 216.228874 L220.750708 203.330771 L237.948178 198.038142 L230.670812 174.391620 L258.783437 189.272671 L256.137123 180.673935 L281.272644 185.881409 L279.618697 180.507200 Z" fill="#888" fill-opacity="0.18" stroke="#000" stroke-width="1"/>
  <path d="M43.573357 793.607719 L58.862404 768.684101 L62.155868 773.241595 L73.140227 750.041249 L78.409769 757.333241 L83.465892 725.929404 L97.957135 745.982382 L112.541119 735.443296 L120.445433 746.381284 L105.861450 756.920370 L120.352693 776.973347 L88.948855 771.917225 L94.218398 779.209217 L68.742797 782.356585 L72.036261 786.914080 Z" fill="#888" fill-opacity="0.18" stroke="#000" stroke-width="1"/>
  <path d="M449.448265 859.421610 L456.381085 887.827204 L450.825889 886.956876 L459.566010 911.092379 L450.677697 909.699855 L469.417170 935.401947 L444.974309 931.572507 L442.189261 949.349133 L428.856792 947.260347 L431.641840 929.483721 L407.198979 925.654280 L432.901071 906.914808 L424.012758 905.522284 L439.715498 885.216222 L434.160302 884.345894 Z" fill="#888" fill-opacity="0.18" stroke="#000" stroke-width="1"/>
  <path d="M965.572754 163.619706 L937.755191 154.612767 L941.411568 150.340932 L916.280198 145.113461 L922.130402 138.278525 L890.417553 140.740357 L906.505612 121.944283 L892.835740 110.243876 L901.611045 99.991472 L915.280917 111.691878 L931.368976 92.895804 L933.830808 124.608652 L939.681011 117.773716 L948.724322 141.797262 L952.380699 137.525427 Z" fill="#888" fill-opacity="0.18" stroke="#000" stroke-width="1"/>
  <path d="M194.369479 776.128428 L168.698359 790.126117 L168.112313 784.533781 L147.032270 799.181101 L146.094598 790.233364 L126.069436 814.946889 L123.490837 790.340612 L105.595362 792.215957 L104.188853 778.794351 L122.084328 776.919006 L119.505728 752.312729 L144.219252 772.337890 L143.281580 763.390153 L166.940222 773.349110 L166.354177 767.756774 Z" fill="#888" fill-opacity="0.18" stroke="#000" stroke-width="1"/>
  <path d="M876.316731 679.022007 L904.944605 684.970671 L901.771183 689.612552 L927.320236 692.094101 L922.242761 699.521111 L953.503973 693.647275 L939.540916 714.071552 L954.394936 724.226502 L946.778723 735.367017 L931.924704 725.212067 L917.961647 745.636344 L912.087810 714.375131 L907.010335 721.802141 L895.424339 698.896314 L892.250917 703.538195 Z" fill="#888" fill-opacity="0.18" stroke="#000" stroke-width="1"/>
  <path d="M71.280162 990.305796 L92.080850 969.756511 L94.190140 974.968859 L110.399092 955.064536 L113.773956 963.404292 L126.186187 934.117745 L135.467061 957.052073 L152.146573 950.302347 L157.208868 962.811981 L140.529356 969.561707 L149.810230 992.496036 L120.523682 980.083804 L123.898545 988.423560 L98.408719 985.393554 L100.518008 990.605901 Z" fill="#888" fill-opacity="0.18" stroke="#000" stroke-width="1"/>
  <path d="M902.731874 316.739628 L921.976187 294.726037 L924.460529 299.770412 L939.172474 278.735420 L943.147421 286.806419 L953.387550 256.691553 L964.318655 278.886801 L980.460653 270.936906 L986.423074 283.043404 L970.281076 290.993299 L981.212181 313.188546 L951.097315 302.948417 L955.072263 311.019416 L929.429213 309.859160 L931.913555 314.903535 Z" fill="#888" fill-opacity="0.18" stroke="#000" stroke-width="1"/>
  <path d="M808.882285 653.044639 L826.371185 676.477097 L820.918020 677.848466 L838.400458 696.644118 L829.675393 698.838307 L856.973530 715.165496 L832.979601 721.199518 L837.367980 738.649648 L824.280382 741.940932 L819.892003 724.490802 L795.898074 730.524823 L812.225263 703.226686 L803.500198 705.420876 L810.011688 680.591202 L804.558523 681.962571 Z" fill="#888" fill-opacity="0.18" stroke="#000" stroke-width="1"/>
  <path d="M849.415383 631.646883 L875.088690 617.653203 L875.673861 623.245631 L896.756192 608.601604 L897.692467 617.549487 L917.721488 592.839091 L920.296244 617.445771 L938.192011 615.573221 L939.596424 628.995046 L921.700657 630.867596 L924.275413 655.474275 L899.565017 635.445254 L900.501292 644.393138 L876.844205 634.430485 L877.429377 640.022912 Z" fill="#888" fill-opacity="0.18" stroke="#000" stroke-width="1"/>
  <path d="M925.296051 1039.696942 L896.059884 1040.130867 L898.145295 1034.908920 L872.669604 1038.055562 L876.006260 1029.700447 L846.776830 1042.246595 L855.952636 1019.270027 L839.242405 1012.596714 L844.247389 1000.064041 L860.957620 1006.737354 L870.133425 983.760787 L882.679573 1012.990216 L886.016229 1004.635101 L902.316115 1024.465025 L904.401525 1019.243078 Z" fill="#888" fill-opacity="0.18" stroke="#000" stroke-width="1"/>
  <path d="M678.182876 860.334619 L651.526158 872.349658 L651.364962 866.729010 L629.237002 879.739221 L628.979088 870.746184 L607.141282 893.873562 L606.432018 869.142711 L588.445944 869.658540 L588.059073 856.168984 L606.045146 855.653156 L605.335882 830.922305 L628.463260 852.760111 L628.205345 843.767074 L651.042569 855.487714 L650.881373 849.867066 Z" fill="#888" fill-opacity="0.18" stroke="#000" stroke-width="1"/>
  <path d="M418.639723 1023.112768 L432.810034 997.536528 L436.302095 1001.943702 L446.248255 978.279676 L451.835553 985.331154 L455.496003 953.734216 L470.861071 973.125780 L484.964027 961.951185 L493.344973 972.528402 L479.242017 983.702996 L494.607085 1003.094560 L463.010148 999.434109 L468.597445 1006.485587 L443.286217 1010.758049 L446.778278 1015.165222 Z" fill="#888" fill-opacity="0.18" stroke="#000" stroke-width="1"/>
  <path d="M49.102517 990.383339 L48.096002 961.161281 L53.357796 963.144004 L49.712744 937.734837 L58.131614 940.907195 L45.015332 911.929125 L68.167225 920.653108 L74.511941 903.815368 L87.140246 908.573904 L80.795531 925.411645 L103.947424 934.135628 L74.969354 947.251910 L83.388225 950.424267 L63.881384 967.109451 L69.143178 969.092175 Z" fill="#888" fill-opacity="0.18" stroke="#000" stroke-width="1"/>
  <path d="M776.768715 705.312541 L747.799032 701.350313 L750.645114 696.500830 L724.985802 695.785365 L729.539533 688.026192 L698.757273 696.039797 L711.280034 674.702072 L695.761688 665.594609 L702.592285 653.955850 L718.110630 663.063312 L730.633391 641.725587 L738.646995 672.507847 L743.200726 664.748674 L756.337278 686.801864 L759.183360 681.952381 Z" fill="#888" fill-opacity="0.18" stroke="#000" stroke-width="1"/>
  <path d="M445.632187 604.619475 L474.227224 598.514919 L473.195856 604.042481 L497.575116 596.007317 L495.924927 604.851417 L522.160650 586.866640 L517.622629 611.187915 L535.310829 614.488294 L532.835545 627.754444 L515.147345 624.454065 L510.609325 648.775340 L492.624548 622.539617 L490.974359 631.383717 L471.133119 615.097606 L470.101751 620.625168 Z" fill="#888" fill-opacity="0.18" stroke="#000" stroke-width="1"/>
  <path d="M563.649642 753.177388 L583.430601 774.710046 L578.145147 776.628807 L597.448188 793.549350 L588.991462 796.619367 L617.808321 810.086141 L594.552322 818.528688 L600.692356 835.442141 L588.007266 840.047167 L581.867232 823.133713 L558.611234 831.576260 L572.078008 802.759401 L563.621282 805.829418 L567.574238 780.466328 L562.288784 782.385089 Z" fill="#888" fill-opacity="0.18" stroke="#000" stroke-width="1"/>
  <path d="M836.891510 992.777422 L817.265397 971.103534 L822.564469 969.222707 L803.383203 952.164241 L811.861718 949.154917 L783.142124 935.481941 L806.458038 927.206301 L800.439391 910.249273 L813.157162 905.735288 L819.175809 922.692316 L842.491723 914.416677 L828.818746 943.136271 L837.297260 940.126947 L833.162612 965.461052 L838.461683 963.580225 Z" fill="#888" fill-opacity="0.18" stroke="#000" stroke-width="1"/>
  <path d="M291.448530 900.009987 L305.226697 925.799595 L299.629565 926.337908 L314.096509 947.542147 L305.141097 948.403448 L329.682878 968.638723 L305.055497 971.007301 L306.778100 988.918124 L293.344983 990.210075 L291.622380 972.299253 L266.995000 974.667831 L287.230275 950.126050 L278.274864 950.987351 L288.435301 927.414534 L282.838169 927.952847 Z" fill="#888" fill-opacity="0.18" stroke="#000" stroke-width="1"/>
  <path d="M595.919726 1031.423713 L586.675216 1003.684196 L592.283156 1004.094898 L581.588497 980.759593 L590.561201 981.416717 L569.772250 957.342148 L594.447186 959.149237 L595.761433 941.203829 L609.220489 942.189515 L607.906242 960.134923 L632.581179 961.942013 L608.506609 982.730964 L617.479313 983.388087 L603.499036 1004.916303 L609.106977 1005.327005 Z" fill="#888" fill-opacity="0.18" stroke="#000" stroke-width="1"/>
  <path d="M829.477207 597.550934 L821.683601 569.369354 L827.262699 570.070310 L817.792509 546.211817 L826.719065 547.333347 L807.206499 522.213132 L831.754528 525.297339 L833.997588 507.444228 L847.387422 509.126522 L845.144362 526.979634 L869.692391 530.063841 L844.572177 549.576406 L853.498732 550.697936 L838.420894 571.472222 L843.999991 572.173179 Z" fill="#888" fill-opacity="0.18" stroke="#000" stroke-width="1"/>
  <path d="M186.638517 456.403621 L209.269807 437.889668 L210.882395 443.276431 L228.881756 424.975196 L231.461898 433.594018 L246.558599 405.596608 L253.653989 429.298369 L270.891633 424.138085 L274.761846 437.066319 L257.524202 442.226603 L264.619592 465.928364 L236.622181 450.831663 L239.202323 459.450485 L214.107573 454.049959 L215.720161 459.436723 Z" fill="#888" fill-opacity="0.18" stroke="#000" stroke-width="1"/>
  <path d="M1036.455593 395.233873 L1007.862893 401.349364 L1008.892148 395.821407 L984.515962 403.865894 L986.162769 395.021163 L959.933925 413.015971 L964.462645 388.692963 L946.773184 385.399348 L949.243395 372.132253 L966.932856 375.425867 L971.461576 351.102859 L989.456384 377.331703 L991.103191 368.486972 L1010.950657 384.765494 L1011.979911 379.237538 Z" fill="#888" fill-opacity="0.18" stroke="#000" stroke-width="1"/>
  <path d="M727.428436 564.740802 L742.035836 539.411656 L745.451705 543.878143 L755.802742 520.388396 L761.268132 527.534775 L765.470605 496.005351 L780.500428 515.657895 L794.793187 504.727114 L802.991272 515.446683 L788.698514 526.377464 L803.728337 546.030007 L772.198913 541.827534 L777.664303 548.973914 L752.283443 552.811118 L755.699312 557.277605 Z" fill="#888" fill-opacity="0.18" stroke="#000" stroke-width="1"/>
  <path d="M422.592006 707.250743 L396.218739 719.875817 L395.928287 714.260365 L374.105472 727.776168 L373.640749 718.791444 L352.340747 742.415062 L351.062758 717.707071 L333.093311 718.636518 L332.396226 705.159432 L350.365673 704.229986 L349.087684 679.521995 L372.711302 700.821997 L372.246579 691.837273 L395.347383 703.029460 L395.056931 697.414008 Z" fill="#888" fill-opacity="0.18" stroke="#000" stroke-width="1"/>
  <path d="M228.209338 740.565191 L253.755003 754.790546 L249.340320 758.273108 L272.982872 768.270204 L265.919379 773.842303 L297.508361 777.570787 L278.083755 792.894061 L289.227954 807.021047 L278.632715 815.379197 L267.488515 801.252211 L248.063909 816.575485 L251.792393 784.986503 L244.728900 790.558603 L240.510954 765.238233 L236.096270 768.720795 Z" fill="#888" fill-opacity="0.18" stroke="#000" stroke-width="1"/>
  <path d="M226.172807 341.277996 L235.356316 313.518225 L239.604833 317.201671 L244.991882 292.104023 L251.789508 297.997538 L249.529227 266.269687 L268.222699 282.476851 L280.009728 268.881598 L290.206167 277.721869 L278.419139 291.317122 L297.112611 307.524285 L265.384760 309.784566 L272.182386 315.678080 L248.101865 324.568563 L252.350382 328.252010 Z" fill="#888" fill-opacity="0.18" stroke="#000" stroke-width="1"/>
  <path d="M249.844798 568.460261 L230.957083 546.139957 L236.316287 544.438018 L217.718282 526.745467 L226.293009 524.022364 L198.048435 509.393302 L221.628935 501.904771 L216.182730 484.755317 L229.044820 480.670664 L234.491025 497.820118 L258.071524 490.331586 L243.442463 518.576160 L252.017190 515.853057 L247.034696 541.034141 L252.393900 539.332202 Z" fill="#888" fill-opacity="0.18" stroke="#000" stroke-width="1"/>
  <path d="M985.081148 176.602563 L1000.876790 201.208242 L995.340601 202.192256 L1011.456270 222.172181 L1002.598368 223.746602 L1028.679177 241.955303 L1004.319947 246.284962 L1007.468790 264.000766 L994.181937 266.362399 L991.033094 248.646595 L966.673864 252.976254 L984.882564 226.895445 L976.024662 228.469867 L984.268224 204.160283 L978.732035 205.144296 Z" fill="#888" fill-opacity="0.18" stroke="#000" stroke-width="1"/>
  <path d="M805.815392 287.219798 L808.785748 316.307918 L803.402475 314.683712 L808.748850 339.790055 L800.135614 337.191326 L815.171880 365.221240 L791.485481 358.074733 L786.288022 375.301205 L773.368168 371.403110 L778.565627 354.176638 L754.879228 347.030132 L782.909142 331.993866 L774.295907 329.395136 L792.635930 311.435300 L787.252658 309.811094 Z" fill="#888" fill-opacity="0.18" stroke="#000" stroke-width="1"/>
  <path d="M677.474286 727.032529 L706.710240 727.480538 L704.468289 732.637215 L730.027291 730.260328 L726.440170 738.511013 L756.034684 726.852106 L746.170100 749.541487 L762.671468 756.715730 L757.290786 769.091757 L740.789418 761.917514 L730.924834 784.606895 L719.265927 755.012381 L715.678805 763.263065 L699.984387 742.950571 L697.742436 748.107248 Z" fill="#888" fill-opacity="0.18" stroke="#000" stroke-width="1"/>
  <path d="M702.111206 452.717910 L713.994957 426.002406 L717.858379 430.087946 L725.701014 405.646071 L731.882488 412.182936 L732.770964 380.387087 L749.770019 398.363465 L762.843749 386.000516 L772.115961 395.805814 L759.042231 408.168763 L776.041286 426.145141 L744.245437 425.256665 L750.426912 431.793530 L725.585222 438.259027 L729.448644 442.344568 Z" fill="#888" fill-opacity="0.18" stroke="#000" stroke-width="1"/>
  <path d="M187.066796 1001.040918 L169.806746 977.439384 L175.272998 976.121146 L157.974288 957.156261 L166.720292 955.047080 L139.582328 938.455025 L163.633838 932.654775 L159.415474 915.162767 L172.534480 911.998994 L176.752843 929.491002 L200.804354 923.690751 L184.212299 950.828716 L192.958303 948.719534 L186.205503 973.484668 L191.671755 972.166429 Z" fill="#888" fill-opacity="0.18" stroke="#000" stroke-width="1"/>
  <path d="M758.911336 793.820399 L739.867595 816.007730 L737.337576 810.986109 L722.817135 832.153749 L718.769105 824.119157 L708.802697 854.325714 L697.670615 832.230583 L681.601429 840.326643 L675.529384 828.274754 L691.598570 820.178694 L680.466488 798.083563 L710.673045 808.049971 L706.625015 800.015378 L732.277538 800.942868 L729.747520 795.921248 Z" fill="#888" fill-opacity="0.18" stroke="#000" stroke-width="1"/>
  <path d="M679.474919 240.328023 L694.742512 265.264790 L689.186608 266.130578 L704.872752 286.449463 L695.983304 287.834724 L721.670077 306.595190 L697.224095 310.404659 L699.994618 328.183554 L686.660447 330.261446 L683.889924 312.482551 L659.443943 316.292020 L678.204408 290.605247 L669.314961 291.990508 L678.074798 267.862155 L672.518893 268.727943 Z" fill="#888" fill-opacity="0.18" stroke="#000" stroke-width="1"/>
  <path d="M136.473763 846.422851 L135.851520 875.655616 L130.708296 873.382972 L132.932812 898.955686 L124.703654 895.319456 L136.185974 924.982930 L113.555787 914.983295 L106.283326 931.441613 L93.939587 925.987267 L101.212049 909.528949 L78.581862 899.529315 L108.245336 888.046994 L100.016177 884.410764 L120.421847 868.837684 L115.278623 866.565039 Z" fill="#888" fill-opacity="0.18" stroke="#000" stroke-width="1"/>
  <path d="M803.659209 421.606122 L798.834877 450.444769 L794.072420 447.455343 L792.592120 473.081909 L784.972189 468.298827 L792.064312 499.306361 L771.109500 486.152885 L761.543336 501.392748 L750.113439 494.218125 L759.679603 478.978262 L738.724792 465.824786 L769.732326 458.732663 L762.112395 453.949581 L784.547506 441.476490 L779.785049 438.487064 Z" fill="#888" fill-opacity="0.18" stroke="#000" stroke-width="1"/>
  <path d="M531.706451 95.856785 L560.003937 103.218443 L556.604124 107.697164 L581.998596 111.443228 L576.558896 118.609182 L608.073030 114.293548 L593.113855 133.999921 L607.445763 144.879321 L599.286212 155.628252 L584.954305 144.748851 L569.995130 164.455224 L565.679496 132.941089 L560.239796 140.107043 L549.804499 116.654607 L546.404686 121.133328 Z" fill="#888" fill-opacity="0.18" stroke="#000" stroke-width="1"/>
  <path d="M879.896416 877.961416 L857.191559 859.537757 L862.141384 856.870006 L840.580763 842.939758 L848.500483 838.671355 L818.030176 829.543060 L839.809408 817.804954 L831.272603 801.965513 L843.152184 795.562910 L851.688988 811.402350 L873.468219 799.664244 L864.339924 830.134551 L872.259644 825.866149 L872.041034 851.534503 L876.990860 848.866751 Z" fill="#888" fill-opacity="0.18" stroke="#000" stroke-width="1"/>
  <path d="M342.254208 525.459162 L320.807055 545.332797 L318.865519 540.055667 L302.028377 559.431499 L298.921919 550.988091 L285.579543 579.862757 L277.036783 556.643384 L260.149966 562.856300 L255.490279 550.191188 L272.377096 543.978271 L263.834336 520.758898 L292.709003 534.101274 L289.602544 525.657865 L314.982446 529.501406 L313.040909 524.224276 Z" fill="#888" fill-opacity="0.18" stroke="#000" stroke-width="1"/>
  <path d="M123.582872 728.452009 L151.402890 719.452658 L150.942715 725.056755 L174.371490 714.568444 L173.635209 723.534999 L197.892301 702.959313 L195.867528 727.617341 L213.800639 729.089903 L212.696217 742.539737 L194.763106 741.067174 L192.738333 765.725202 L172.162647 741.468111 L171.426366 750.434666 L150.022363 736.264949 L149.562187 741.869047 Z" fill="#888" fill-opacity="0.18" stroke="#000" stroke-width="1"/>
  <path d="M691.884375 941.788622 L691.207271 971.020167 L686.068321 968.737875 L688.244841 994.314719 L680.022521 990.663051 L691.449151 1020.348022 L668.837770 1010.305934 L661.534434 1026.750574 L649.200953 1021.273072 L656.504290 1004.828432 L633.892909 994.786344 L663.577880 983.359714 L655.355560 979.708046 L675.790421 964.173289 L670.651471 961.890997 Z" fill="#888" fill-opacity="0.18" stroke="#000" stroke-width="1"/>
  <path d="M861.112545 874.652222 L832.146106 878.638094 L833.581043 873.201310 L808.677045 879.422489 L810.972944 870.723634 L783.486059 886.731025 L789.799781 862.809174 L772.402071 858.217376 L775.845919 845.169094 L793.243629 849.760891 L799.557350 825.839040 L815.564741 853.325924 L817.860640 844.627069 L836.450916 862.327741 L837.885853 856.890957 Z" fill="#888" fill-opacity="0.18" stroke="#000" stroke-width="1"/>
  <path d="M683.128919 45.551651 L681.248636 74.730518 L676.208030 72.238540 L677.329450 97.883317 L669.264480 93.896152 L679.458992 124.026490 L657.280325 113.061786 L649.305994 129.191726 L637.208539 123.210978 L645.182869 107.081038 L623.004202 96.116334 L653.134540 85.921821 L645.069570 81.934656 L666.126817 67.254583 L661.086211 64.762605 Z" fill="#888" fill-opacity="0.18" stroke="#000" stroke-width="1"/>
  <path d="M405.036286 884.684169 L377.731876 895.144138 L377.894634 889.523535 L355.054156 901.237832 L355.314568 892.244867 L332.181126 914.076249 L332.897259 889.345596 L314.911329 888.824772 L315.301947 875.335325 L333.287877 875.856149 L334.004010 851.125496 L355.835392 874.258938 L356.095804 865.265973 L378.220149 878.282330 L378.382907 872.661727 Z" fill="#888" fill-opacity="0.18" stroke="#000" stroke-width="1"/>
  <path d="M386.604413 580.763222 L360.675903 594.278180 L360.194587 588.675859 L338.844197 602.926228 L338.074092 593.962514 L317.590069 618.297062 L315.472280 593.646848 L297.544853 595.187058 L296.389695 581.741488 L314.317123 580.201277 L312.199334 555.551064 L336.533881 576.035086 L335.763776 567.071372 L359.231956 577.471216 L358.750640 571.868895 Z" fill="#888" fill-opacity="0.18" stroke="#000" stroke-width="1"/>
  <path d="M361.452465 791.023574 L389.528016 799.190900 L386.001601 803.570633 L411.278647 808.040880 L405.636383 815.048453 L437.260977 811.635180 L421.744751 830.906007 L435.759898 842.190535 L427.296501 852.701896 L413.281355 841.417367 L397.765128 860.688194 L394.351855 829.063600 L388.709591 836.071174 L378.948771 812.330100 L375.422355 816.709833 Z" fill="#888" fill-opacity="0.18" stroke="#000" stroke-width="1"/>
  <path d="M698.860660 646.813030 L675.728058 664.696667 L674.264439 659.267533 L655.767868 677.066102 L653.426078 668.379489 L637.564020 695.950497 L631.124097 672.062311 L613.750871 676.745891 L610.238185 663.715971 L627.611412 659.032391 L621.171489 635.144205 L648.742497 651.006262 L646.400707 642.319649 L671.337202 648.409267 L669.873583 642.980134 Z" fill="#888" fill-opacity="0.18" stroke="#000" stroke-width="1"/>
  <path d="M676.676133 456.294397 L699.390830 474.705923 L694.442431 477.376318 L716.010491 491.295046 L708.093052 495.567678 L738.568231 504.679694 L716.795274 516.429434 L725.340539 532.264312 L713.464381 538.673261 L704.919115 522.838383 L683.146158 534.588123 L692.258174 504.112944 L684.340735 508.385576 L684.545632 482.717109 L679.597233 485.387504 Z" fill="#888" fill-opacity="0.18" stroke="#000" stroke-width="1"/>
  <path d="M862.203038 709.939589 L873.075816 737.082257 L867.453391 737.004742 L879.512666 759.664974 L870.516787 759.540950 L892.696426 782.340708 L867.957758 781.999643 L867.709710 799.991402 L854.215891 799.805366 L854.463938 781.813607 L829.725270 781.472542 L852.525028 759.292903 L843.529148 759.168879 L856.208542 736.849713 L850.586117 736.772198 Z" fill="#888" fill-opacity="0.18" stroke="#000" stroke-width="1"/>
  <path d="M419.818399 371.389289 L431.905702 344.765262 L435.737829 348.880170 L443.766781 324.498863 L449.898185 331.082715 L451.029307 299.294574 L467.890667 317.400169 L481.058373 305.137361 L490.255479 315.013140 L477.087773 327.275948 L493.949134 345.381543 L462.160992 344.250421 L468.292396 350.834273 L443.402084 357.109986 L447.234212 361.224893 Z" fill="#888" fill-opacity="0.18" stroke="#000" stroke-width="1"/>
  <path d="M300.126148 227.784825 L327.465506 217.416546 L327.283887 223.036571 L350.163550 211.398991 L349.872959 220.391032 L373.079536 198.637407 L372.280412 223.365518 L390.264493 223.946698 L389.828607 237.434758 L371.844527 236.853578 L371.045403 261.581688 L349.291779 238.375112 L349.001188 247.367152 L326.920650 234.276621 L326.739031 239.896646 Z" fill="#888" fill-opacity="0.18" stroke="#000" stroke-width="1"/>
  <path d="M333.675750 840.702385 L309.555369 857.229603 L308.405595 851.725452 L288.918490 868.433681 L287.078852 859.627038 L269.661340 886.242741 L264.602335 862.024473 L246.989049 865.703750 L244.229591 852.493785 L261.842877 848.814509 L256.783872 824.596240 L283.399575 842.013752 L281.559937 833.207109 L306.106047 840.717148 L304.956273 835.212996 Z" fill="#888" fill-opacity="0.18" stroke="#000" stroke-width="1"/>
  <path d="M854.795625 621.868061 L859.333929 592.983021 L864.125778 595.925104 L865.352045 570.285126 L873.019003 574.992460 L865.619943 544.056732 L886.704076 557.001899 L896.118744 541.667984 L907.619180 548.728984 L898.204513 564.062900 L919.288646 577.008067 L888.352918 584.407127 L896.019876 589.114461 L873.709475 601.809271 L878.501323 604.751355 Z" fill="#888" fill-opacity="0.18" stroke="#000" stroke-width="1"/>
  <path d="M631.895654 116.884315 L604.516243 106.622270 L608.363012 102.521046 L583.495226 96.156661 L589.650057 89.594704 L557.858086 90.612521 L574.783870 72.567137 L561.659955 60.257476 L570.892201 50.414539 L584.016117 62.724201 L600.941901 44.678817 L601.959718 76.470788 L608.114549 69.908831 L616.056551 94.318599 L619.903320 90.217376 Z" fill="#888" fill-opacity="0.18" stroke="#000" stroke-width="1"/>
  <path d="M724.949838 943.353122 L713.995113 916.243423 L719.617746 916.303953 L707.490071 893.680255 L716.486284 893.777102 L694.237869 871.044452 L718.977455 871.310781 L719.171150 853.318355 L732.665470 853.463626 L732.471775 871.456052 L757.211361 871.722382 L734.478710 893.970797 L743.474923 894.067644 L730.863012 916.425012 L736.485646 916.485541 Z" fill="#888" fill-opacity="0.18" stroke="#000" stroke-width="1"/>
  <path d="M856.250458 500.694079 L885.473389 499.713239 L883.486043 504.973289 L908.898403 501.350562 L905.718650 509.766642 L934.708233 496.675826 L925.963911 519.820045 L942.796071 526.179551 L938.026441 538.803671 L921.194282 532.444165 L912.449960 555.588384 L899.359144 526.598802 L896.179391 535.014881 L879.511352 515.493389 L877.524006 520.753439 Z" fill="#888" fill-opacity="0.18" stroke="#000" stroke-width="1"/>
  <path d="M917.628065 186.910220 L896.207091 206.812070 L894.258610 201.537500 L877.446989 220.935479 L874.329419 212.496167 L861.025065 241.388372 L852.451747 218.180265 L835.573123 224.415405 L830.896768 211.756437 L847.775391 205.521297 L839.202074 182.313189 L868.094279 195.617543 L864.976709 187.178231 L890.361647 190.988360 L888.413166 185.713790 Z" fill="#888" fill-opacity="0.18" stroke="#000" stroke-width="1"/>
  <path d="M359.607400 264.589957 L350.600947 292.407677 L346.329048 288.751374 L341.102016 313.882836 L334.266978 308.032752 L336.729364 339.745557 L317.933009 323.657827 L306.232841 337.327904 L295.980284 328.552778 L307.680451 314.882701 L288.884096 298.794971 L320.596901 296.332584 L313.761863 290.482500 L337.785250 281.438770 L333.513351 277.782467 Z" fill="#888" fill-opacity="0.18" stroke="#000" stroke-width="1"/>
  <path d="M622.098741 548.680596 L596.907478 563.524517 L596.135721 557.954772 L575.554606 573.295237 L574.319795 564.383644 L555.127841 589.749650 L551.732112 565.242772 L533.908928 567.712393 L532.056713 554.345005 L549.879897 551.875384 L546.484168 527.368506 L571.850175 546.560460 L570.615364 537.648868 L594.592209 546.815282 L593.820452 541.245536 Z" fill="#888" fill-opacity="0.18" stroke="#000" stroke-width="1"/>
  <path d="M217.763087 529.908712 L215.445383 559.056096 L210.442719 556.488798 L211.179387 582.147510 L203.175125 578.039833 L212.916588 608.319682 L190.904866 597.023570 L182.689512 613.032095 L170.683118 606.870579 L178.898472 590.862054 L156.886751 579.565942 L187.166600 569.824478 L179.162337 565.716801 L200.437391 551.354201 L195.434727 548.786903 Z" fill="#888" fill-opacity="0.18" stroke="#000" stroke-width="1"/>
  <path d="M658.949861 877.238281 L664.718804 905.902911 L659.203711 904.806819 L666.952546 929.278593 L658.128397 927.524846 L675.804400 953.969586 L651.537991 949.146780 L648.030496 966.795077 L634.794273 964.164456 L638.301768 946.516159 L614.035359 941.693353 L640.480100 924.017350 L631.655951 922.263603 L648.173525 902.614634 L642.658432 901.518542 Z" fill="#888" fill-opacity="0.18" stroke="#000" stroke-width="1"/>
  <path d="M217.717251 189.490615 L198.013852 211.094268 L195.636236 205.998720 L180.484798 226.719389 L176.680613 218.566512 L165.808884 248.459168 L155.347374 226.038756 L139.041620 233.647127 L133.335342 221.417811 L149.641096 213.809441 L139.179586 191.389029 L169.072242 202.260758 L165.268057 194.107881 L190.881004 195.807623 L188.503388 190.712075 Z" fill="#888" fill-opacity="0.18" stroke="#000" stroke-width="1"/>
  <path d="M935.514322 342.098201 L908.448106 353.159924 L908.486426 347.537095 L885.910809 359.754039 L885.972121 350.757514 L863.327528 373.095549 L863.496135 348.355104 L845.503084 348.232481 L845.595051 334.737693 L863.588102 334.860316 L863.756708 310.119871 L886.094744 332.764463 L886.156055 323.767937 L908.563065 336.291439 L908.601385 330.668610 Z" fill="#888" fill-opacity="0.18" stroke="#000" stroke-width="1"/>
  <path d="M372.870330 163.642384 L401.292845 170.505502 L397.972283 175.043292 L423.428679 178.342402 L418.115780 185.602866 L449.549186 180.733955 L434.938714 200.700230 L449.459641 211.326028 L441.490292 222.216723 L426.969365 211.590925 L412.358892 231.557200 L407.489981 200.123793 L402.177082 207.384257 L391.331159 184.118872 L388.010597 188.656661 Z" fill="#888" fill-opacity="0.18" stroke="#000" stroke-width="1"/>
  <path d="M925.668947 63.007472 L905.825875 84.482905 L903.481351 79.372046 L888.195870 99.994032 L884.444631 91.816658 L873.379294 121.638189 L863.063388 99.150411 L846.708640 106.652888 L841.081782 94.386828 L857.436530 86.884351 L847.120623 64.396573 L876.942154 75.461911 L873.190915 67.284537 L898.792302 69.150330 L896.447778 64.039471 Z" fill="#888" fill-opacity="0.18" stroke="#000" stroke-width="1"/>
  <path d="M266.513284 619.491460 L295.657083 621.853812 L293.082125 626.852538 L318.741935 626.155178 L314.622001 634.153138 L344.916738 624.458073 L333.586919 646.452464 L349.582839 654.692332 L343.402938 666.689273 L327.407017 658.449405 L316.077198 680.443796 L306.382133 650.149059 L302.262198 658.147020 L287.932207 636.849988 L285.357248 641.848714 Z" fill="#888" fill-opacity="0.18" stroke="#000" stroke-width="1"/>
  <path d="M487.927311 793.028636 L492.098379 764.088285 L496.927208 766.969269 L497.827722 741.315785 L505.553850 745.925360 L497.762471 715.086103 L519.009320 727.762436 L528.228472 712.310182 L539.817663 719.224545 L530.598511 734.676800 L551.845361 747.353133 L521.006104 755.144512 L528.732231 759.754087 L506.584867 772.731239 L511.413697 775.612224 Z" fill="#888" fill-opacity="0.18" stroke="#000" stroke-width="1"/>
  <path d="M868.008158 883.551223 L896.321108 890.853180 L892.930750 895.339062 L918.333066 899.031556 L912.908493 906.208967 L944.413455 901.826873 L929.495877 921.564754 L943.850699 932.413901 L935.713839 943.180018 L921.359017 932.330870 L906.441439 952.068751 L902.059345 920.563789 L896.634772 927.741200 L886.150033 904.310826 L882.759674 908.796708 Z" fill="#888" fill-opacity="0.18" stroke="#000" stroke-width="1"/>
  <path d="M463.803185 490.302199 L473.340303 462.661918 L477.541453 466.399297 L483.248438 441.372461 L489.970279 447.352268 L488.115193 415.598149 L506.600255 432.042617 L518.559868 418.598935 L528.642630 427.568645 L516.683017 441.012327 L535.168079 457.456794 L503.413961 459.311880 L510.135802 465.291687 L485.943754 473.874055 L490.144905 477.611434 Z" fill="#888" fill-opacity="0.18" stroke="#000" stroke-width="1"/>
  <path d="M218.543965 1012.190821 L218.456675 982.951565 L223.653532 985.098737 L220.809134 959.587531 L229.124105 963.023006 L216.925364 933.646892 L239.791535 943.094447 L246.662484 926.464505 L259.134941 931.617717 L252.263991 948.247659 L275.130161 957.695215 L245.754047 969.893955 L254.069018 973.329430 L234.047246 989.393080 L239.244103 991.540252 Z" fill="#888" fill-opacity="0.18" stroke="#000" stroke-width="1"/>
  <path d="M205.869221 209.912926 L215.648300 237.468531 L210.033468 237.166326 L221.177278 260.290506 L212.193546 259.806977 L233.444054 283.475127 L208.738793 282.145424 L207.771736 300.112887 L194.296139 299.387594 L195.263196 281.420131 L170.557934 280.090428 L194.226084 258.839921 L185.242352 258.356392 L198.803804 236.561915 L193.188972 236.259710 Z" fill="#888" fill-opacity="0.18" stroke="#000" stroke-width="1"/>
  <path d="M647.109495 413.703224 L650.404671 442.756340 L645.003587 441.192383 L650.630144 466.237424 L641.988410 463.735093 L657.336919 491.595255 L633.572150 484.713846 L628.567488 501.997314 L615.604887 498.243818 L620.609548 480.960349 L596.844779 474.078940 L624.704942 458.730431 L616.063208 456.228100 L634.201419 438.064470 L628.800335 436.500513 Z" fill="#888" fill-opacity="0.18" stroke="#000" stroke-width="1"/>
  <path d="M41.087110 330.639202 L64.369730 348.327088 L59.507781 351.151822 L81.503005 364.385203 L73.723887 368.904777 L104.470617 377.053636 L83.078043 389.482466 L92.117192 405.040702 L80.448515 411.820063 L71.409366 396.261827 L50.016791 408.690657 L58.165650 377.943926 L50.386532 382.463500 L49.783884 356.801290 L44.921935 359.626024 Z" fill="#888" fill-opacity="0.18" stroke="#000" stroke-width="1"/>
  <path d="M1052.071358 271.431121 L1046.098260 300.053907 L1041.459089 296.876523 L1038.955731 322.423449 L1031.533058 317.339635 L1037.380207 348.605851 L1016.967857 334.625364 L1006.800231 349.470710 L995.666221 341.844990 L1005.833848 326.999644 L985.421497 313.019158 L1016.687713 307.172009 L1009.265040 302.088196 L1032.180748 290.521757 L1027.541578 287.344374 Z" fill="#888" fill-opacity="0.18" stroke="#000" stroke-width="1"/>
  <path d="M578.552759 584.633967 L607.627262 581.533162 L606.027220 586.923665 L631.109329 581.464726 L628.549261 590.089532 L656.511446 574.927686 L649.471260 598.645903 L666.720873 603.766038 L662.880771 616.703248 L645.631159 611.583112 L638.590973 635.301330 L623.429126 607.339145 L620.869058 615.963951 L602.827136 597.704673 L601.227093 603.095177 Z" fill="#888" fill-opacity="0.18" stroke="#000" stroke-width="1"/>
  <path d="M734.652096 573.958477 L762.990878 566.757424 L762.173108 572.320599 L786.224904 563.352695 L784.916471 572.253775 L810.440254 553.272155 L806.842064 577.750127 L824.644225 580.366992 L822.681576 593.718613 L804.879415 591.101747 L801.281226 615.579719 L782.299606 590.055936 L780.991173 598.957017 L760.537567 583.446950 L759.719797 589.010125 Z" fill="#888" fill-opacity="0.18" stroke="#000" stroke-width="1"/>
  <path d="M299.976419 120.863897 L279.503454 141.739707 L277.311961 136.561384 L261.419953 156.719664 L257.913565 148.434347 L245.966243 177.913609 L236.323676 155.128988 L219.753043 162.141764 L214.493461 149.713789 L231.064094 142.701013 L221.421527 119.916392 L250.900789 131.863714 L247.394401 123.578397 L272.928976 126.204738 L270.737484 121.026415 Z" fill="#888" fill-opacity="0.18" stroke="#000" stroke-width="1"/>
  <path d="M764.807879 129.104971 L742.703608 148.245058 L740.940891 142.905536 L723.460780 161.703353 L720.640433 153.160118 L706.333213 181.569075 L698.577258 158.075178 L681.490787 163.715873 L677.260266 150.901020 L694.346736 145.260325 L686.590780 121.766428 L714.999738 136.073648 L712.179390 127.530412 L737.415456 132.226492 L735.652739 126.886970 Z" fill="#888" fill-opacity="0.18" stroke="#000" stroke-width="1"/>
  <path d="M513.074320 575.313337 L484.959400 567.282584 L488.464483 562.885760 L463.166005 558.538439 L468.774139 551.503521 L437.166511 555.070482 L452.588877 535.724458 L438.519042 524.508191 L446.931242 513.955814 L461.001077 525.172081 L476.423444 505.826057 L479.990405 537.433685 L485.598539 530.398767 L495.474650 554.092113 L498.979734 549.695289 Z" fill="#888" fill-opacity="0.18" stroke="#000" stroke-width="1"/>
  <path d="M423.685373 466.570728 L396.647154 477.700708 L396.671286 472.077801 L374.126566 484.351668 L374.165178 475.355016 L351.577020 497.750116 L351.683202 473.009324 L333.689899 472.932101 L333.747816 459.437124 L351.741119 459.514347 L351.847301 434.773555 L374.242401 457.361713 L374.281013 448.365062 L396.719550 460.831986 L396.743683 455.209079 Z" fill="#888" fill-opacity="0.18" stroke="#000" stroke-width="1"/>
  <path d="M431.252069 114.670409 L460.489894 114.972567 L458.273696 120.140364 L483.820523 117.636003 L480.274606 125.904479 L509.810590 114.098082 L500.059317 136.836392 L516.596269 143.928227 L511.277393 156.330941 L494.740440 149.239106 L484.989167 171.977416 L473.182771 142.441432 L469.636853 150.709908 L453.841299 130.475959 L451.625101 135.643757 Z" fill="#888" fill-opacity="0.18" stroke="#000" stroke-width="1"/>
  <path d="M615.266937 637.108982 L588.063388 647.828529 L588.172607 642.206630 L565.444733 654.137932 L565.619483 645.142895 L542.695016 667.193613 L543.175578 642.457261 L525.185504 642.107762 L525.447628 628.615206 L543.437703 628.964705 L543.918265 604.228353 L565.968983 627.152821 L566.143733 618.157784 L588.391044 630.962834 L588.500263 625.340936 Z" fill="#888" fill-opacity="0.18" stroke="#000" stroke-width="1"/>
  <path d="M196.022806 135.192151 L183.053346 108.986525 L188.664512 108.622540 L174.864007 86.978643 L183.841872 86.396267 L159.941268 65.407544 L184.630398 63.806010 L183.465646 45.850279 L196.932444 44.976715 L198.097196 62.932446 L222.786326 61.330911 L201.797603 85.231515 L210.775468 84.649139 L199.886844 107.894570 L205.498010 107.530585 Z" fill="#888" fill-opacity="0.18" stroke="#000" stroke-width="1"/>
</svg>
