<?xml version="1.0" encoding="UTF-8"?>
<svg xmlns="http://www.w3.org/2000/svg" width="1100" height="1100" viewBox="0 0 1100 1100">
  <rect x="0" y="0" width="1100" height="1100" fill="white"/>
  <text x="10.0" y="18.0" font-family="monospace" font-size="12">prefix=N164_job5048568_task164 run_id=164 L=11.6135162979 feas=0.000e+00 N=164</text>
  <rect x="40.000000" y="40.000000" width="1020.000000" height="1020.000000" fill="none" stroke="#000" stroke-width="2"/>
  <path d="M431.414999 129.723198 L414.660299 106.613491 L420.001867 105.348581 L403.190780 86.765110 L411.737288 84.741255 L385.311379 68.434621 L408.814278 62.869020 L404.766568 45.776002 L417.586331 42.740220 L421.634041 59.833237 L445.136940 54.267636 L428.830306 80.693545 L437.376814 78.669690 L430.685002 102.818762 L436.026570 101.553853 Z" fill="#888" fill-opacity="0.18" stroke="#000" stroke-width="1"/>
  <path d="M874.688546 285.774150 L852.787424 267.467883 L857.656963 264.934123 L836.808941 251.030239 L844.600203 246.976224 L814.987011 237.633106 L836.412982 226.484565 L828.304952 210.902041 L839.991845 204.821019 L848.099875 220.403543 L869.525846 209.255003 L860.182727 238.868194 L867.973989 234.814180 L867.396041 259.866605 L872.265579 257.332846 Z" fill="#888" fill-opacity="0.18" stroke="#000" stroke-width="1"/>
  <path d="M485.180531 238.068208 L456.654236 237.053758 L458.944249 232.064952 L433.950997 233.880274 L437.615018 225.898184 L408.499743 236.693356 L418.575800 214.742610 L402.611621 207.414569 L408.107652 195.441435 L424.071831 202.769476 L434.147887 180.818730 L444.943059 209.934005 L448.607080 201.951916 L463.524275 222.087340 L465.814288 217.098535 Z" fill="#888" fill-opacity="0.18" stroke="#000" stroke-width="1"/>
  <path d="M472.368604 82.550490 L500.305493 76.693115 L499.278926 82.085564 L523.107168 74.328445 L521.464661 82.956363 L547.140724 65.492837 L542.623829 89.219611 L559.879665 92.504626 L557.415904 105.446503 L540.160068 102.161488 L535.643172 125.888263 L518.179646 100.212199 L516.537138 108.840117 L497.225791 92.870461 L496.199224 98.262910 Z" fill="#888" fill-opacity="0.18" stroke="#000" stroke-width="1"/>
  <path d="M938.284281 1057.518976 L928.417816 1030.734065 L933.902302 1030.963754 L922.755189 1008.520494 L931.530366 1008.887997 L910.511178 986.031297 L934.642917 987.041928 L935.377921 969.491573 L948.540688 970.042827 L947.805683 987.593182 L971.937421 988.603813 L949.080722 1009.623001 L957.855899 1009.990504 L944.871274 1031.423132 L950.355760 1031.652821 Z" fill="#888" fill-opacity="0.18" stroke="#000" stroke-width="1"/>
  <path d="M639.241696 48.740418 L626.357106 74.211302 L622.788649 70.040155 L613.954668 93.490503 L608.245137 86.816668 L605.834377 117.775080 L590.133169 99.422035 L576.785500 110.841096 L568.221205 100.830344 L581.568874 89.411284 L565.867666 71.058239 L596.826077 73.469000 L591.116547 66.795165 L615.651737 61.697862 L612.083280 57.526716 Z" fill="#888" fill-opacity="0.18" stroke="#000" stroke-width="1"/>
  <path d="M596.482111 289.239289 L570.156179 278.206434 L574.061858 274.349231 L550.040553 267.212361 L556.289640 261.040836 L525.238111 260.846930 L542.423100 243.875238 L530.080051 231.377065 L539.453681 222.119778 L551.796730 234.617952 L568.981719 217.646259 L568.787813 248.697787 L575.036900 242.526263 L581.873217 266.634826 L585.778896 262.777623 Z" fill="#888" fill-opacity="0.18" stroke="#000" stroke-width="1"/>
  <path d="M725.457696 81.654653 L708.545895 104.649644 L705.714817 99.946736 L693.131559 121.617446 L688.601834 114.092793 L681.114516 144.228737 L668.657772 123.535943 L653.608468 132.595393 L646.813880 121.308415 L661.863184 112.248965 L649.406440 91.556171 L679.542384 99.043489 L675.012658 91.518837 L700.052661 90.540921 L697.221583 85.838013 Z" fill="#888" fill-opacity="0.18" stroke="#000" stroke-width="1"/>
  <path d="M100.180813 1022.815148 L79.380728 1003.266874 L84.389303 1001.020429 L64.384658 985.928305 L72.398379 982.333993 L43.378298 971.285469 L65.416031 961.401113 L58.227408 945.373671 L70.247990 939.982203 L77.436613 956.009646 L99.474346 946.125289 L88.425822 975.145370 L96.439543 971.551059 L94.406455 996.527540 L99.415030 994.281095 Z" fill="#888" fill-opacity="0.18" stroke="#000" stroke-width="1"/>
  <path d="M658.034972 802.644122 L650.125872 775.217407 L655.579512 775.842028 L646.079987 752.653301 L654.805812 753.652694 L635.489735 729.339649 L659.485752 732.087982 L661.484539 714.636333 L674.573276 716.135423 L672.574488 733.587072 L696.570506 736.335404 L672.257461 755.651481 L680.983285 756.650875 L666.486793 777.091270 L671.940433 777.715891 Z" fill="#888" fill-opacity="0.18" stroke="#000" stroke-width="1"/>
  <path d="M580.506595 638.350557 L579.852656 609.813723 L584.966734 611.808351 L581.694276 586.963854 L589.876802 590.155260 L577.399002 561.720431 L599.900948 570.496797 L606.283760 554.131745 L618.557548 558.918854 L612.174737 575.283906 L634.676683 584.060272 L606.241853 596.538071 L614.424379 599.729477 L595.194892 615.797609 L600.308970 617.792237 Z" fill="#888" fill-opacity="0.18" stroke="#000" stroke-width="1"/>
  <path d="M278.041073 695.067284 L257.451356 714.837011 L255.464845 709.719774 L239.366220 728.923739 L236.187802 720.736160 L223.664897 749.151153 L214.924249 726.635309 L198.549089 732.992144 L193.781463 720.710774 L210.156622 714.353939 L201.415974 691.838095 L229.830967 704.361000 L226.652550 696.173421 L251.491823 699.485299 L249.505312 694.368062 Z" fill="#888" fill-opacity="0.18" stroke="#000" stroke-width="1"/>
  <path d="M1034.814435 160.942066 L1011.043417 145.139621 L1015.606796 142.088734 L993.363812 130.547170 L1000.665218 125.665750 L970.208152 119.615784 L990.287020 106.191879 L980.524179 91.589066 L991.476289 84.266935 L1001.239129 98.869748 L1021.317997 85.445843 L1015.268031 115.902910 L1022.569438 111.021490 L1024.733554 135.986958 L1029.296933 132.936071 Z" fill="#888" fill-opacity="0.18" stroke="#000" stroke-width="1"/>
  <path d="M191.382953 191.782601 L165.440107 179.876833 L169.472406 176.152198 L145.702808 168.217196 L152.154488 162.257781 L121.126751 161.027121 L138.868869 144.638729 L126.950038 131.735370 L136.627557 122.796247 L148.546388 135.699605 L166.288506 119.311212 L165.057846 150.338950 L171.509526 144.379534 L177.537006 168.702929 L181.569305 164.978294 Z" fill="#888" fill-opacity="0.18" stroke="#000" stroke-width="1"/>
  <path d="M47.048495 325.447359 L46.398943 296.910425 L51.512714 298.905839 L48.244075 274.060839 L56.426111 277.253503 L43.952682 248.816756 L66.453279 257.596581 L72.838606 241.232511 L85.111659 246.021506 L78.726331 262.385577 L101.226928 271.165402 L72.790181 283.638830 L80.972216 286.831494 L61.740258 302.896669 L66.854030 304.892084 Z" fill="#888" fill-opacity="0.18" stroke="#000" stroke-width="1"/>
  <path d="M664.425905 919.224010 L646.354366 941.319214 L643.768792 936.476988 L630.088149 957.472179 L625.951232 949.724617 L616.924621 979.435815 L605.548098 958.130020 L590.052974 966.403855 L583.847598 954.782513 L599.342722 946.508678 L587.966199 925.202883 L617.677397 934.229494 L613.540480 926.481932 L638.597646 926.792536 L636.012072 921.950310 Z" fill="#888" fill-opacity="0.18" stroke="#000" stroke-width="1"/>
  <path d="M1006.057798 413.443156 L994.691000 439.626633 L990.883785 435.672211 L983.441968 459.600800 L977.350424 453.273724 L976.761593 484.320274 L960.009847 466.920815 L947.355695 479.103903 L938.218379 469.613289 L950.872532 457.430201 L934.120786 440.030742 L965.167336 440.619572 L959.075792 434.292496 L983.269355 427.763366 L979.462140 423.808943 Z" fill="#888" fill-opacity="0.18" stroke="#000" stroke-width="1"/>
  <path d="M464.436266 806.742491 L487.765849 823.189653 L483.120673 826.114493 L505.039419 838.260547 L497.607138 842.940291 L527.887200 849.821633 L507.448428 862.690929 L516.807916 877.555490 L505.659495 884.575106 L496.300007 869.710545 L475.861235 882.579841 L482.742577 852.299779 L475.310296 856.979523 L473.830322 831.964173 L469.185147 834.889013 Z" fill="#888" fill-opacity="0.18" stroke="#000" stroke-width="1"/>
  <path d="M756.478481 354.203545 L759.006925 325.771423 L763.867032 328.323227 L763.382011 303.268830 L771.158182 307.351716 L761.924969 277.704073 L783.309440 288.932009 L791.475212 273.379666 L803.139469 279.503995 L794.973697 295.056338 L816.358169 306.284275 L786.710525 315.517488 L794.486697 319.600374 L773.587246 333.426835 L778.447353 335.978638 Z" fill="#888" fill-opacity="0.18" stroke="#000" stroke-width="1"/>
  <path d="M624.831888 980.825381 L650.905682 969.209194 L651.039192 974.696864 L672.696149 962.089951 L672.909765 970.870222 L694.326404 948.385504 L694.913848 972.531251 L712.474391 972.104019 L712.794815 985.274427 L695.234272 985.701658 L695.821715 1009.847405 L673.336997 988.430765 L673.550613 997.211037 L651.306212 985.672203 L651.439722 991.159873 Z" fill="#888" fill-opacity="0.18" stroke="#000" stroke-width="1"/>
  <path d="M477.419009 449.122093 L498.096085 429.443751 L500.059912 434.569737 L516.243434 415.437260 L519.385557 423.638837 L532.034191 395.279587 L540.675030 417.833923 L557.078183 411.549676 L561.791368 423.852041 L545.388215 430.136288 L554.029054 452.690624 L525.669804 440.041990 L528.811928 448.243567 L503.987566 444.821708 L505.951393 449.947693 Z" fill="#888" fill-opacity="0.18" stroke="#000" stroke-width="1"/>
  <path d="M411.084215 951.113939 L414.861647 922.820661 L419.604726 925.583909 L420.222945 900.532445 L427.811872 904.953642 L419.892547 874.928331 L440.762096 887.086624 L449.604491 871.908769 L460.987881 878.540565 L452.145487 893.718419 L473.015037 905.876711 L442.989726 913.796036 L450.578653 918.217234 L429.090885 931.110405 L433.833965 933.873654 Z" fill="#888" fill-opacity="0.18" stroke="#000" stroke-width="1"/>
  <path d="M603.008228 426.433347 L602.667081 454.975635 L597.625636 452.803960 L600.030118 477.747426 L591.963805 474.272747 L603.442889 503.125228 L581.260528 493.569859 L574.311170 509.702485 L562.211700 504.490466 L569.161059 488.357840 L546.978699 478.802472 L575.831179 467.323388 L567.764866 463.848709 L587.542745 448.460611 L582.501299 446.288936 Z" fill="#888" fill-opacity="0.18" stroke="#000" stroke-width="1"/>
  <path d="M499.731080 668.329994 L487.525397 694.133092 L483.847753 690.057890 L475.637761 713.733913 L469.753530 707.213589 L468.163298 738.224977 L451.981663 720.294086 L438.941015 732.062549 L430.114668 722.282063 L443.155316 710.513601 L426.973680 692.582710 L457.985067 694.172942 L452.100836 687.652618 L476.492464 681.907485 L472.814819 677.832283 Z" fill="#888" fill-opacity="0.18" stroke="#000" stroke-width="1"/>
  <path d="M915.508974 606.994723 L902.651765 581.510007 L908.126656 581.112626 L894.492374 560.087299 L903.252199 559.451490 L879.763113 539.141448 L903.852633 537.392974 L902.581015 519.873322 L915.720754 518.919609 L916.992372 536.439260 L941.081893 534.690786 L920.771851 558.179872 L929.531676 557.544063 L919.076438 580.317865 L924.551330 579.920484 Z" fill="#888" fill-opacity="0.18" stroke="#000" stroke-width="1"/>
  <path d="M525.735685 1018.889369 L546.029226 998.815735 L548.091592 1003.902875 L563.902947 984.461705 L567.202732 992.601129 L579.301830 964.003108 L588.376238 986.386523 L604.655085 979.786954 L609.604762 991.996090 L593.325915 998.595659 L602.400323 1020.979075 L573.802301 1008.879977 L577.102086 1017.019401 L552.216322 1014.077155 L554.278688 1019.164295 Z" fill="#888" fill-opacity="0.18" stroke="#000" stroke-width="1"/>
  <path d="M812.780349 201.551345 L801.246342 227.661597 L797.464493 223.682908 L789.869806 247.563419 L783.818848 241.197517 L783.031489 272.239667 L766.391354 254.733437 L753.659550 266.835353 L744.583113 257.286500 L757.314917 245.184584 L740.674782 227.678354 L771.716931 228.465713 L765.665973 222.099812 L789.900795 215.725531 L786.118946 211.746842 Z" fill="#888" fill-opacity="0.18" stroke="#000" stroke-width="1"/>
  <path d="M285.825561 917.417423 L314.345791 916.244798 L312.444465 921.394293 L337.225364 917.670708 L334.183242 925.909901 L362.386528 912.917224 L354.020693 935.575003 L370.499078 941.659247 L365.935895 954.018036 L349.457510 947.933792 L341.091675 970.591572 L328.098998 942.388286 L325.056877 950.627478 L308.641812 931.693284 L306.740486 936.842780 Z" fill="#888" fill-opacity="0.18" stroke="#000" stroke-width="1"/>
  <path d="M213.601059 1008.926543 L239.273427 996.448238 L239.589667 1001.928414 L260.814645 988.607065 L261.320630 997.375348 L281.976375 974.189681 L283.367832 998.302458 L300.904397 997.290490 L301.663374 1010.442913 L284.126808 1011.454882 L285.518265 1035.567659 L262.332598 1014.911913 L262.838582 1023.680196 L240.222147 1012.888767 L240.538387 1018.368944 Z" fill="#888" fill-opacity="0.18" stroke="#000" stroke-width="1"/>
  <path d="M262.574844 216.781770 L234.554046 211.339948 L237.592594 206.768344 L212.621369 204.671681 L217.483046 197.357114 L187.042435 203.489340 L200.412047 183.374280 L185.782912 173.650926 L193.075428 162.679075 L207.704562 172.402429 L221.074174 152.287368 L227.206400 182.727979 L232.068077 175.413412 L243.669690 197.625134 L246.708238 193.053530 Z" fill="#888" fill-opacity="0.18" stroke="#000" stroke-width="1"/>
  <path d="M124.424274 1057.054391 L95.979649 1054.670718 L98.506679 1049.797683 L73.455076 1050.410241 L77.498323 1042.613385 L47.898067 1051.997405 L59.016997 1030.556053 L43.423287 1022.469558 L49.488158 1010.774275 L65.081868 1018.860770 L76.200799 997.419419 L85.584818 1027.019675 L89.628065 1019.222820 L103.560738 1040.051615 L106.087768 1035.178580 Z" fill="#888" fill-opacity="0.18" stroke="#000" stroke-width="1"/>
  <path d="M134.550999 540.512809 L160.921522 551.438654 L157.031540 555.311687 L181.081632 562.350941 L174.857662 568.547794 L205.909721 568.615588 L188.793802 585.656934 L201.187508 598.104875 L191.851552 607.400155 L179.457846 594.952214 L162.341926 611.993560 L162.409720 580.941500 L156.185750 587.138353 L149.251577 563.057754 L145.361595 566.930787 Z" fill="#888" fill-opacity="0.18" stroke="#000" stroke-width="1"/>
  <path d="M555.960248 646.681664 L562.653595 674.430135 L557.232761 673.565902 L565.701662 697.150552 L557.028327 695.767779 L575.254729 720.908050 L551.403059 717.105422 L548.637511 734.452092 L535.627509 732.377931 L538.393056 715.031262 L514.541386 711.228634 L539.681657 693.002231 L531.008322 691.619457 L546.391092 671.837434 L540.970258 670.973201 Z" fill="#888" fill-opacity="0.18" stroke="#000" stroke-width="1"/>
  <path d="M993.304394 701.879003 L968.521087 687.716860 L972.868162 684.364953 L949.896966 674.350851 L956.852286 668.987799 L926.056356 665.007132 L945.183484 650.258737 L934.457379 636.348099 L944.890358 628.303520 L955.616463 642.214159 L974.743592 627.465764 L970.762925 658.261694 L977.718244 652.898641 L981.562311 677.661137 L985.909386 674.309229 Z" fill="#888" fill-opacity="0.18" stroke="#000" stroke-width="1"/>
  <path d="M148.094925 427.057576 L176.470292 430.158720 L173.821023 434.966393 L198.880106 434.986588 L194.641276 442.678865 L224.469043 434.045248 L212.812260 455.199009 L228.196813 463.676669 L221.838568 475.215084 L206.454015 466.737424 L194.797232 487.891184 L186.163616 458.063418 L181.924786 465.755694 L168.522486 444.581739 L165.873217 449.389412 Z" fill="#888" fill-opacity="0.18" stroke="#000" stroke-width="1"/>
  <path d="M726.141770 313.030243 L697.777144 309.832341 L700.442795 305.033731 L675.383926 304.928071 L679.648967 297.250296 L649.791928 305.782134 L661.520789 284.668252 L646.165239 276.138171 L652.562799 264.621509 L667.918349 273.151589 L679.647210 252.037708 L688.179047 281.894746 L692.444087 274.216971 L705.774095 295.436512 L708.439745 290.637903 Z" fill="#888" fill-opacity="0.18" stroke="#000" stroke-width="1"/>
  <path d="M1016.558664 835.558348 L1009.937628 807.792534 L1015.356192 808.670886 L1006.948760 785.064253 L1015.618463 786.469617 L997.457616 761.281949 L1021.299299 765.146700 L1024.110027 747.807294 L1037.114582 749.915340 L1034.303854 767.254746 L1058.145537 771.119497 L1032.957870 789.280345 L1041.627573 790.685709 L1026.193321 810.427591 L1031.611885 811.305944 Z" fill="#888" fill-opacity="0.18" stroke="#000" stroke-width="1"/>
  <path d="M597.742602 731.693225 L587.017864 705.240275 L592.506903 705.293055 L580.642134 683.220781 L589.424597 683.305228 L567.679556 661.137951 L591.831331 661.370181 L592.000225 643.805253 L605.173921 643.931924 L605.005027 661.496851 L629.156802 661.729081 L606.989525 683.474122 L615.771988 683.558569 L603.484983 705.398614 L608.974023 705.451393 Z" fill="#888" fill-opacity="0.18" stroke="#000" stroke-width="1"/>
  <path d="M374.447888 845.870874 L360.229870 870.622167 L356.887777 866.267541 L346.821878 889.216086 L341.474530 882.248685 L337.424396 913.035556 L322.719191 893.875203 L308.784389 904.569898 L300.763368 894.118796 L314.698170 883.424102 L299.992965 864.263749 L330.779836 868.313883 L325.432488 861.346482 L350.203593 857.558290 L346.861501 853.203665 Z" fill="#888" fill-opacity="0.18" stroke="#000" stroke-width="1"/>
  <path d="M657.998293 965.292352 L666.802847 938.139849 L670.971593 941.711109 L676.085390 917.179351 L682.755384 922.893367 L680.365438 891.933342 L698.707922 907.646885 L710.135953 894.306896 L720.140945 902.877920 L708.712914 916.217908 L727.055398 931.931451 L696.095373 934.321398 L702.765367 940.035414 L679.309086 948.853628 L683.477833 952.424888 Z" fill="#888" fill-opacity="0.18" stroke="#000" stroke-width="1"/>
  <path d="M656.676713 827.584756 L637.639158 848.853278 L635.271783 843.900715 L620.669753 864.265851 L616.881955 856.341750 L606.541198 885.621499 L596.124752 863.830221 L580.276549 871.405818 L574.594851 859.519666 L590.443054 851.944069 L580.026608 830.152790 L609.306357 840.493547 L605.518559 832.569446 L630.537035 833.995588 L628.169661 829.043025 Z" fill="#888" fill-opacity="0.18" stroke="#000" stroke-width="1"/>
  <path d="M871.077448 225.314539 L888.725416 202.879571 L891.402631 207.671737 L904.681423 186.420108 L908.964968 194.087574 L917.424771 164.210046 L929.204520 185.295578 L944.539453 176.728488 L950.964770 188.229687 L935.629838 196.796778 L947.409587 217.882310 L917.532058 209.422507 L921.815603 217.089973 L896.757063 217.256070 L899.434279 222.048237 Z" fill="#888" fill-opacity="0.18" stroke="#000" stroke-width="1"/>
  <path d="M741.110444 386.391784 L764.150368 369.541251 L765.437451 374.877520 L783.950944 357.989399 L786.010276 366.527429 L802.207021 340.034025 L807.870183 363.513607 L824.946243 359.394943 L828.035240 372.201988 L810.959181 376.320652 L816.622343 399.800233 L790.128939 383.603489 L792.188271 392.141518 L768.011616 385.550057 L769.298698 390.886325 Z" fill="#888" fill-opacity="0.18" stroke="#000" stroke-width="1"/>
  <path d="M51.991172 809.570489 L55.012229 781.186483 L59.827359 783.822174 L59.776837 758.763134 L67.481045 762.980240 L58.763289 733.176956 L79.949861 744.773996 L88.384072 729.365580 L99.940384 735.691239 L91.506173 751.099655 L112.692745 762.696695 L82.889461 771.414451 L90.593669 775.631556 L69.457619 789.093556 L74.272749 791.729247 Z" fill="#888" fill-opacity="0.18" stroke="#000" stroke-width="1"/>
  <path d="M132.253292 334.098668 L153.472503 353.191170 L148.513833 355.545727 L168.841133 370.200382 L160.907261 373.967672 L190.160167 384.384126 L168.342019 394.744175 L175.876600 410.611918 L163.975792 416.262854 L156.441212 400.395110 L134.623064 410.755159 L145.039518 381.502253 L137.105646 385.269544 L138.596494 360.254840 L133.637824 362.609396 Z" fill="#888" fill-opacity="0.18" stroke="#000" stroke-width="1"/>
  <path d="M345.896790 990.183288 L365.049683 969.018571 L367.390099 973.983930 L382.102621 953.698474 L385.847287 961.643049 L396.347060 932.419946 L406.644892 954.267528 L422.534042 946.778196 L428.151042 958.695059 L412.261891 966.184391 L422.559723 988.031973 L393.336620 977.532200 L397.081286 985.476775 L372.070932 983.914649 L374.411348 988.880009 Z" fill="#888" fill-opacity="0.18" stroke="#000" stroke-width="1"/>
  <path d="M760.036586 815.508370 L744.270848 839.303750 L741.212921 834.745085 L729.705700 857.005855 L724.813017 849.711991 L718.810064 880.178359 L705.355186 860.120233 L690.767458 869.905599 L683.428434 858.964803 L698.016162 849.179437 L684.561283 829.121311 L715.027651 835.124263 L710.134968 827.830399 L735.097067 825.627754 L732.039140 821.069089 Z" fill="#888" fill-opacity="0.18" stroke="#000" stroke-width="1"/>
  <path d="M523.722065 303.096666 L495.244076 301.151752 L497.695687 296.240342 L472.656503 297.238999 L476.579081 289.380743 L447.126997 299.219937 L457.914086 277.609734 L442.197575 269.764578 L448.081442 257.977195 L463.797953 265.822351 L474.585043 244.212148 L484.424237 273.664232 L488.346815 265.805976 L502.598909 286.417523 L505.050520 281.506113 Z" fill="#888" fill-opacity="0.18" stroke="#000" stroke-width="1"/>
  <path d="M509.571850 1022.848980 L509.610029 994.304679 L514.674241 996.422721 L512.005144 971.506181 L520.107883 974.895049 L508.323204 946.166033 L530.605736 955.485419 L537.383471 939.279941 L549.537580 944.363242 L542.759844 960.568720 L565.042376 969.888106 L536.313360 981.672784 L544.416099 985.061651 L524.802665 1000.658806 L529.866876 1002.776848 Z" fill="#888" fill-opacity="0.18" stroke="#000" stroke-width="1"/>
  <path d="M516.293269 464.629752 L525.179133 491.755754 L519.706628 491.326765 L530.030184 514.160561 L521.274176 513.474179 L541.448242 537.080154 L517.369219 535.192604 L515.996455 552.704620 L502.862443 551.675047 L504.235207 534.163031 L480.156184 532.275480 L503.762160 512.101415 L495.006152 511.415033 L508.761618 490.468788 L503.289113 490.039799 Z" fill="#888" fill-opacity="0.18" stroke="#000" stroke-width="1"/>
  <path d="M823.449692 855.960054 L810.395012 881.344180 L806.854537 877.149257 L797.863889 900.539988 L792.199129 893.828111 L789.581337 924.769704 L774.003247 906.312042 L760.579493 917.641562 L752.082353 907.573747 L765.506107 896.244227 L749.928016 877.786565 L780.869609 880.404357 L775.204849 873.692480 L799.773586 868.759411 L796.233111 864.564488 Z" fill="#888" fill-opacity="0.18" stroke="#000" stroke-width="1"/>
  <path d="M851.826386 389.994305 L863.872127 364.116154 L867.574925 368.168516 L875.638217 344.442130 L881.562693 350.925909 L882.960950 319.905273 L899.253259 337.735664 L912.220816 325.886712 L921.107530 335.612380 L908.139972 347.461332 L924.432281 365.291723 L893.411645 363.893466 L899.336121 370.377245 L874.980520 376.273239 L878.683317 380.325601 Z" fill="#888" fill-opacity="0.18" stroke="#000" stroke-width="1"/>
  <path d="M898.647413 579.089670 L902.270201 607.403165 L896.976179 605.952070 L902.818648 630.320566 L894.348213 627.998814 L909.719920 654.979281 L886.426224 648.594463 L881.782720 665.535333 L869.077068 662.052705 L873.720572 645.111835 L850.426876 638.727018 L877.407343 623.355310 L868.936908 621.033558 L886.388136 603.049880 L881.094114 601.598785 Z" fill="#888" fill-opacity="0.18" stroke="#000" stroke-width="1"/>
  <path d="M47.414035 382.576650 L67.253914 403.098778 L62.143486 405.102741 L81.402280 421.135735 L73.225595 424.342076 L101.683160 436.767936 L79.197277 445.585374 L85.609959 461.938744 L73.344931 466.748255 L66.932249 450.394885 L44.446366 459.212323 L56.872225 430.754758 L48.695541 433.961099 L51.922630 409.110668 L46.812202 411.114631 Z" fill="#888" fill-opacity="0.18" stroke="#000" stroke-width="1"/>
  <path d="M135.166349 908.498156 L107.159992 902.982492 L110.210581 898.418913 L85.244970 896.256435 L90.125911 888.954708 L59.669241 895.006673 L73.091829 874.926924 L58.488375 865.165042 L65.809786 854.212452 L80.413240 863.974334 L93.835828 843.894585 L99.887792 874.351254 L104.768733 867.049527 L116.311757 889.291754 L119.362345 884.728175 Z" fill="#888" fill-opacity="0.18" stroke="#000" stroke-width="1"/>
  <path d="M823.570893 114.035641 L820.321635 142.394429 L815.527861 139.720094 L815.376826 164.778730 L807.706786 160.499794 L816.184546 190.372233 L795.091937 178.605160 L786.534065 193.945239 L775.029006 187.526835 L783.586877 172.186756 L762.494268 160.419683 L792.366707 151.941923 L784.696667 147.662987 L805.940311 134.371425 L801.146536 131.697090 Z" fill="#888" fill-opacity="0.18" stroke="#000" stroke-width="1"/>
  <path d="M715.407404 606.023962 L688.168008 614.555894 L688.668212 609.089438 L665.701939 619.114824 L666.502266 610.368495 L642.635626 630.233501 L644.836524 606.181096 L627.343866 604.580442 L628.544356 591.460948 L646.037015 593.061602 L648.237913 569.009196 L668.102920 592.875836 L668.903246 584.129507 L689.668620 598.156526 L690.168825 592.690071 Z" fill="#888" fill-opacity="0.18" stroke="#000" stroke-width="1"/>
  <path d="M991.754862 516.492192 L999.789713 489.102053 L1004.057574 492.554255 L1008.477090 467.887964 L1015.305668 473.411488 L1012.043033 442.531232 L1030.821623 457.720924 L1041.868672 444.063768 L1052.111539 452.349054 L1041.064490 466.006211 L1059.843080 481.195902 L1028.962824 484.458537 L1035.791402 489.982061 L1012.593297 499.458661 L1016.861158 502.910863 Z" fill="#888" fill-opacity="0.18" stroke="#000" stroke-width="1"/>
  <path d="M496.261255 462.177076 L485.809942 488.739242 L481.867790 484.919322 L475.260843 509.091750 L468.953402 502.979878 L469.442327 534.028162 L452.096862 517.220515 L439.873118 529.835399 L430.411955 520.667591 L442.635699 508.052707 L425.290234 491.245060 L456.338518 490.756135 L450.031076 484.644263 L473.983488 477.279482 L470.041337 473.459562 Z" fill="#888" fill-opacity="0.18" stroke="#000" stroke-width="1"/>
  <path d="M869.518478 414.369087 L889.483440 434.769549 L884.385358 436.804716 L903.741803 452.719679 L895.584872 455.975945 L924.117865 468.227609 L901.686304 477.182340 L908.198836 493.496203 L895.963438 498.380602 L889.450907 482.066739 L867.019345 491.021470 L879.271009 462.488477 L871.114077 465.744743 L874.189193 440.875048 L869.091111 442.910214 Z" fill="#888" fill-opacity="0.18" stroke="#000" stroke-width="1"/>
  <path d="M795.632693 449.910548 L823.058288 457.823532 L819.625096 462.106701 L844.310794 466.416497 L838.817686 473.269568 L869.683130 469.869660 L854.577085 488.715603 L868.283226 499.701818 L860.043565 509.981423 L846.337424 498.995209 L831.231380 517.841152 L827.831472 486.975708 L822.338365 493.828779 L812.758711 470.673039 L809.325519 474.956208 Z" fill="#888" fill-opacity="0.18" stroke="#000" stroke-width="1"/>
  <path d="M596.193221 108.948913 L607.313267 135.238134 L601.824053 135.267638 L614.018338 157.159587 L605.235596 157.206793 L627.310467 179.045635 L603.157924 179.175451 L603.252336 196.740937 L590.078222 196.811746 L589.983810 179.246260 L565.831267 179.376076 L587.670110 157.301204 L578.887367 157.348410 L590.845624 135.326645 L585.356410 135.356149 Z" fill="#888" fill-opacity="0.18" stroke="#000" stroke-width="1"/>
  <path d="M160.294860 989.470774 L174.294673 964.595409 L177.674929 968.920477 L187.538636 945.884302 L192.947046 952.804411 L196.726292 921.983115 L211.599420 941.013413 L225.439637 930.196593 L233.552252 940.576755 L219.712035 951.393575 L234.585163 970.423874 L203.763867 966.644628 L209.172277 973.564736 L184.435442 977.570612 L187.815698 981.895680 Z" fill="#888" fill-opacity="0.18" stroke="#000" stroke-width="1"/>
  <path d="M83.174565 486.668377 L90.781936 459.156444 L95.103036 462.541771 L99.137926 437.809652 L106.051685 443.226176 L102.308595 412.400468 L121.321434 427.295908 L132.154481 413.468388 L142.525121 421.593174 L131.692073 435.420693 L150.704912 450.316133 L119.879204 454.059223 L126.792964 459.475746 L103.745235 469.312426 L108.066335 472.697753 Z" fill="#888" fill-opacity="0.18" stroke="#000" stroke-width="1"/>
  <path d="M283.930656 585.360217 L285.867012 556.881645 L290.779158 559.331780 L289.772976 534.292897 L297.632410 538.213114 L287.784366 508.763988 L309.397809 519.544582 L317.238242 503.825714 L329.027393 509.706038 L321.186961 525.424906 L342.800404 536.205501 L313.351279 546.053546 L321.210713 549.973762 L300.603451 564.232050 L305.515597 566.682185 Z" fill="#888" fill-opacity="0.18" stroke="#000" stroke-width="1"/>
  <path d="M372.962646 533.585840 L363.111101 506.795439 L368.595458 507.028182 L357.460847 484.578717 L366.235818 484.951107 L345.229364 462.082704 L369.360536 463.106776 L370.105315 445.556833 L383.267773 446.115418 L382.522993 463.665361 L406.654165 464.689433 L383.785761 485.695887 L392.560733 486.068277 L379.564172 507.493670 L385.048530 507.726413 Z" fill="#888" fill-opacity="0.18" stroke="#000" stroke-width="1"/>
  <path d="M979.420293 398.000845 L954.638238 412.165176 L953.956851 406.718337 L933.668544 421.426928 L932.578327 412.711985 L913.516514 437.224886 L910.518416 413.258794 L893.088530 415.439229 L891.453204 402.366816 L908.883089 400.186380 L905.884990 376.220288 L930.397891 395.282100 L929.307673 386.567157 L952.594079 395.824659 L951.912693 390.377820 Z" fill="#888" fill-opacity="0.18" stroke="#000" stroke-width="1"/>
  <path d="M819.427720 739.625999 L816.708190 711.211518 L821.953329 712.830424 L816.889646 688.288274 L825.281869 690.878523 L810.776935 663.422342 L833.855548 670.545528 L839.036047 653.761082 L851.624382 657.646456 L846.443883 674.430902 L869.522496 681.554088 L842.066315 696.059022 L850.458538 698.649271 L832.443608 716.068236 L837.688747 717.687142 Z" fill="#888" fill-opacity="0.18" stroke="#000" stroke-width="1"/>
  <path d="M975.317797 256.800641 L982.617250 284.395868 L977.178789 283.650561 L986.162179 307.044080 L977.460641 305.851591 L996.233262 330.586661 L972.304032 327.307314 L969.919052 344.710390 L956.866745 342.921655 L959.251725 325.518579 L935.322494 322.239232 L960.057565 303.466611 L951.356026 302.274121 L966.301866 282.159949 L960.863405 281.414643 Z" fill="#888" fill-opacity="0.18" stroke="#000" stroke-width="1"/>
  <path d="M182.982286 132.802361 L177.155546 104.859068 L182.546865 105.891547 L174.815878 82.054813 L183.441990 83.706780 L166.006627 58.011584 L189.728434 62.554492 L193.032367 45.302268 L205.971535 47.780218 L202.667602 65.032441 L226.389410 69.575349 L200.694214 87.010713 L209.320325 88.662679 L193.329505 107.956505 L198.720825 108.988984 Z" fill="#888" fill-opacity="0.18" stroke="#000" stroke-width="1"/>
  <path d="M281.558859 392.611464 L278.901258 421.031804 L274.052796 418.457945 L274.423975 443.514286 L266.666435 439.396111 L275.764847 469.085400 L254.431612 457.760418 L246.195261 473.275498 L234.558950 467.098235 L242.795301 451.583155 L221.462065 440.258173 L251.151354 431.159760 L243.393814 427.041585 L264.355870 413.310225 L259.507408 410.736366 Z" fill="#888" fill-opacity="0.18" stroke="#000" stroke-width="1"/>
  <path d="M1019.978529 72.425145 L993.849966 83.917611 L993.742470 78.429370 L972.025999 90.933487 L971.854004 82.152301 L950.331027 104.535252 L949.858042 80.386992 L932.295671 80.730981 L932.037679 67.559203 L949.600050 67.215213 L949.127064 43.066954 L971.510015 64.589930 L971.338020 55.808745 L993.527476 67.452888 L993.419980 61.964647 Z" fill="#888" fill-opacity="0.18" stroke="#000" stroke-width="1"/>
  <path d="M982.301155 258.868252 L1009.966486 265.897335 L1006.672468 270.288438 L1031.483721 273.804085 L1026.213291 280.829850 L1056.953777 276.441511 L1042.460096 295.762365 L1056.511626 306.303224 L1048.605981 316.841871 L1034.554452 306.301012 L1020.060771 325.621865 L1015.672432 294.881379 L1010.402003 301.907144 L1000.084431 279.070644 L996.790412 283.461747 Z" fill="#888" fill-opacity="0.18" stroke="#000" stroke-width="1"/>
  <path d="M802.791290 1029.160396 L774.255999 1028.442272 L776.494075 1023.429951 L751.521024 1025.504753 L755.101946 1017.485039 L726.100359 1028.582018 L735.947894 1006.527807 L719.908467 999.365963 L725.279850 987.336394 L741.319276 994.498237 L751.166811 972.444026 L762.263790 1001.445613 L765.844711 993.425900 L780.970227 1013.405310 L783.208303 1008.392989 Z" fill="#888" fill-opacity="0.18" stroke="#000" stroke-width="1"/>
  <path d="M946.071773 545.872346 L960.560176 570.466344 L955.122750 571.219167 L970.096381 591.312659 L961.396499 592.517177 L986.157496 611.255587 L962.232822 614.568010 L964.641857 631.967773 L951.592035 633.774549 L949.183000 616.374786 L925.258326 619.687208 L943.996736 594.926211 L935.296855 596.130729 L944.247899 572.724814 L938.810473 573.477637 Z" fill="#888" fill-opacity="0.18" stroke="#000" stroke-width="1"/>
  <path d="M477.919837 300.103807 L471.380134 327.888890 L466.931576 324.672886 L463.854387 349.542324 L456.736696 344.396718 L461.666910 375.054963 L442.093257 360.904546 L431.802045 375.139930 L421.125507 367.421521 L431.416720 353.186137 L411.843067 339.035721 L442.501312 334.105506 L435.383620 328.959900 L458.034462 318.240879 L453.585904 315.024875 Z" fill="#888" fill-opacity="0.18" stroke="#000" stroke-width="1"/>
  <path d="M763.748368 296.776477 L753.508936 323.421037 L749.536487 319.632635 L743.122266 343.856917 L736.766347 337.795473 L737.502535 368.838879 L720.023759 352.169909 L707.900872 364.881746 L698.366994 355.789581 L710.489881 343.077744 L693.011104 326.408774 L724.054510 325.672586 L717.698591 319.611143 L741.591588 312.055831 L737.619139 308.267429 Z" fill="#888" fill-opacity="0.18" stroke="#000" stroke-width="1"/>
  <path d="M109.128558 131.713061 L112.414211 103.358466 L117.204550 106.038952 L117.387748 80.980530 L125.052289 85.269307 L116.612878 55.386012 L137.690366 67.180148 L146.267920 51.851065 L157.764732 58.284231 L149.187178 73.613313 L170.264667 85.407450 L140.381371 93.846861 L148.045913 98.135637 L126.785226 111.399923 L131.575565 114.080408 Z" fill="#888" fill-opacity="0.18" stroke="#000" stroke-width="1"/>
  <path d="M790.835099 511.420442 L771.937998 490.027029 L777.133360 488.254867 L758.614916 471.372175 L766.927495 468.536716 L739.057400 454.843916 L761.916992 447.046404 L756.246074 430.421246 L768.714943 426.168057 L774.385861 442.793215 L797.245454 434.995703 L783.552653 462.865798 L791.865233 460.030339 L787.524084 484.710543 L792.719446 482.938381 Z" fill="#888" fill-opacity="0.18" stroke="#000" stroke-width="1"/>
  <path d="M268.716866 368.444362 L249.647863 389.684694 L247.287819 384.728634 L232.655673 405.072142 L228.879603 397.142445 L218.495536 426.406863 L208.111343 404.600197 L192.251950 412.152337 L186.587844 400.257792 L202.447238 392.705651 L192.063045 370.898985 L221.327463 381.283052 L217.551393 373.353355 L242.567731 374.816512 L240.207688 369.860452 Z" fill="#888" fill-opacity="0.18" stroke="#000" stroke-width="1"/>
  <path d="M579.808973 787.447287 L551.472644 790.886917 L552.957942 785.602389 L528.552176 791.287162 L530.928651 782.831917 L503.849351 798.028841 L510.384658 774.776918 L493.474169 770.023967 L497.038882 757.341100 L513.949371 762.094050 L520.484679 738.842127 L535.681602 765.921428 L538.058078 757.466183 L555.928536 775.033333 L557.413833 769.748805 Z" fill="#888" fill-opacity="0.18" stroke="#000" stroke-width="1"/>
  <path d="M725.418015 639.733818 L753.492504 634.576141 L752.331553 639.941263 L776.346134 632.781799 L774.488612 641.365995 L800.592906 624.549311 L795.484720 648.155849 L812.653111 651.870893 L809.866828 664.747186 L792.698437 661.032142 L787.590251 684.638679 L770.773568 658.534386 L768.916046 667.118581 L750.009650 650.671507 L748.848699 656.036629 Z" fill="#888" fill-opacity="0.18" stroke="#000" stroke-width="1"/>
  <path d="M55.165538 834.299311 L75.575125 814.343676 L77.607960 819.442688 L93.531770 800.093520 L96.784307 808.251939 L109.049012 779.724549 L117.993489 802.160201 L134.310327 795.655127 L139.189132 807.892756 L122.872294 814.397830 L131.816771 836.833483 L103.289381 824.568777 L106.541918 832.727196 L81.673631 829.640712 L83.706467 834.739724 Z" fill="#888" fill-opacity="0.18" stroke="#000" stroke-width="1"/>
  <path d="M396.856668 434.976459 L381.002326 411.240022 L386.388553 410.181296 L370.303947 390.965586 L378.921911 389.271624 L353.142096 371.961622 L376.841495 367.303225 L373.453570 350.067298 L386.380515 347.526355 L389.768440 364.762281 L413.467839 360.103884 L396.157837 385.883699 L404.775800 384.189736 L397.161007 408.063843 L402.547234 407.005116 Z" fill="#888" fill-opacity="0.18" stroke="#000" stroke-width="1"/>
  <path d="M111.514044 719.107049 L136.032714 733.722568 L131.624732 736.993965 L154.407881 747.428819 L147.355110 752.663054 L178.072626 757.209393 L158.677506 771.603540 L169.145977 785.709083 L158.566820 793.560436 L148.098349 779.454894 L128.703229 793.849041 L133.249568 763.131525 L126.196797 768.365760 L122.808769 743.536759 L118.400787 746.808156 Z" fill="#888" fill-opacity="0.18" stroke="#000" stroke-width="1"/>
  <path d="M836.439376 655.769854 L814.381589 637.652663 L819.229151 635.077108 L798.262295 621.353079 L806.018395 617.232191 L776.325926 608.144160 L797.655201 596.811720 L789.413426 581.299520 L801.047576 575.118189 L809.289351 590.630388 L830.618626 579.297948 L821.530595 608.990416 L829.286695 604.869529 L828.924276 629.925999 L833.771838 627.350444 Z" fill="#888" fill-opacity="0.18" stroke="#000" stroke-width="1"/>
  <path d="M133.535786 655.090449 L105.141350 658.011841 L106.722940 652.755329 L82.217394 657.993296 L84.747938 649.582877 L57.395531 664.282565 L64.354527 641.153913 L47.533689 636.092825 L51.329504 623.477197 L68.150342 628.538284 L75.109338 605.409632 L89.809026 632.762039 L92.339570 624.351620 L109.886119 642.242305 L111.467709 636.985794 Z" fill="#888" fill-opacity="0.18" stroke="#000" stroke-width="1"/>
  <path d="M796.517035 705.333417 L776.054548 725.234804 L774.035255 720.130414 L758.060139 739.437244 L754.829270 731.270220 L742.488881 759.764952 L733.603992 737.305635 L717.269943 743.767373 L712.423640 731.516836 L728.757689 725.055099 L719.872800 702.595782 L748.367532 714.936171 L745.136664 706.769147 L769.996669 709.921633 L767.977376 704.817243 Z" fill="#888" fill-opacity="0.18" stroke="#000" stroke-width="1"/>
  <path d="M105.455293 512.951133 L130.440619 499.148523 L131.042760 504.604691 L151.542724 490.192560 L152.506148 498.922429 L171.922259 474.689195 L174.571677 498.696334 L192.031415 496.769485 L193.476552 509.864289 L176.016814 511.791138 L178.666231 535.798278 L154.432997 516.382167 L155.396422 525.112036 L132.247041 515.517027 L132.849181 520.973195 Z" fill="#888" fill-opacity="0.18" stroke="#000" stroke-width="1"/>
  <path d="M1030.227573 877.965915 L1002.236150 883.556871 L1003.314044 878.174447 L979.412981 885.704203 L981.137612 877.092324 L955.296339 894.310444 L960.039073 870.627778 L942.815317 867.178517 L945.402263 854.260699 L962.626019 857.709961 L967.368754 834.027295 L984.586873 859.868568 L986.311503 851.256689 L1005.469832 867.409599 L1006.547726 862.027175 Z" fill="#888" fill-opacity="0.18" stroke="#000" stroke-width="1"/>
  <path d="M926.876388 311.435919 L909.785522 288.573704 L915.108021 287.230815 L898.026967 268.895177 L906.542965 266.746554 L879.881413 250.828116 L903.300407 244.919403 L899.003161 227.887408 L911.777158 224.664473 L916.074404 241.696469 L939.493398 235.787756 L923.574960 262.449308 L932.090958 260.300685 L925.753018 284.545036 L931.075517 283.202147 Z" fill="#888" fill-opacity="0.18" stroke="#000" stroke-width="1"/>
  <path d="M349.451679 106.733852 L343.740750 134.701045 L339.198566 131.618692 L336.861957 156.568607 L329.594462 151.636842 L335.433786 182.134994 L315.448174 168.572638 L305.584642 183.107629 L294.683400 175.709980 L304.546931 161.174990 L284.561319 147.612634 L315.059472 141.773310 L307.791977 136.841544 L330.114197 125.453984 L325.572012 122.371631 Z" fill="#888" fill-opacity="0.18" stroke="#000" stroke-width="1"/>
  <path d="M871.821796 98.895828 L881.037676 125.911493 L875.560348 125.549248 L886.161489 148.255499 L877.397765 147.675907 L897.858096 171.034199 L873.757853 169.440321 L872.598669 186.967770 L859.453082 186.098382 L860.612266 168.570933 L836.512023 166.977054 L859.870315 146.516722 L851.106590 145.937130 L864.605692 124.824757 L859.128364 124.462512 Z" fill="#888" fill-opacity="0.18" stroke="#000" stroke-width="1"/>
  <path d="M1009.546583 809.480305 L985.626853 793.903878 L990.161110 790.809874 L967.809731 779.479654 L975.064543 774.529248 L944.551501 768.768234 L964.502232 755.154619 L954.601421 740.644996 L965.483638 733.219388 L975.384449 747.729011 L995.335180 734.115396 L989.574165 764.628438 L996.828976 759.678032 L999.229624 784.621868 L1003.763881 781.527864 Z" fill="#888" fill-opacity="0.18" stroke="#000" stroke-width="1"/>
  <path d="M232.740063 894.456085 L206.308854 905.234294 L206.350534 899.745159 L184.302298 911.654538 L184.368985 902.871921 L162.245725 924.661744 L162.429116 900.509549 L144.863883 900.376174 L144.963914 887.202249 L162.529147 887.335624 L162.712537 863.183429 L184.502360 885.306688 L184.569047 876.524072 L206.433893 888.766888 L206.475573 883.277753 Z" fill="#888" fill-opacity="0.18" stroke="#000" stroke-width="1"/>
  <path d="M127.414530 542.605940 L128.709406 571.120881 L123.551807 569.241647 L127.381590 594.006356 L119.129432 590.999582 L132.242892 619.146912 L109.549458 610.878284 L103.535910 627.382600 L91.157673 622.872439 L97.171221 606.368123 L74.477787 598.099495 L102.625116 584.986035 L94.372958 581.979261 L113.236610 565.483180 L108.079011 563.603946 Z" fill="#888" fill-opacity="0.18" stroke="#000" stroke-width="1"/>
  <path d="M777.077375 511.402887 L805.621462 511.519698 L803.489477 516.578056 L828.413275 513.977608 L825.002100 522.070981 L853.763470 510.365489 L844.382737 532.622263 L860.569482 539.444615 L855.452719 551.584673 L839.265974 544.762322 L829.885240 567.019097 L818.179748 538.257726 L814.768572 546.351098 L799.225508 526.694772 L797.093523 531.753130 Z" fill="#888" fill-opacity="0.18" stroke="#000" stroke-width="1"/>
  <path d="M930.499240 984.204408 L916.496289 959.330809 L921.947442 958.684841 L907.371035 938.301358 L916.092880 937.267810 L891.704397 918.047069 L915.689470 915.204811 L913.622373 897.761121 L926.705141 896.210798 L928.772237 913.654488 L952.757311 910.812230 L933.536569 935.200713 L942.258414 934.167165 L932.849748 957.392906 L938.300901 956.746938 Z" fill="#888" fill-opacity="0.18" stroke="#000" stroke-width="1"/>
  <path d="M229.824389 285.016195 L222.240221 312.534533 L217.916268 309.152851 L213.902236 333.888364 L206.983911 328.477673 L210.752995 359.300213 L191.727602 344.420812 L180.906219 358.257462 L170.528732 350.141425 L181.350115 336.304775 L162.324721 321.425374 L193.147262 317.656290 L186.228937 312.245599 L209.268362 302.389487 L204.944409 299.007805 Z" fill="#888" fill-opacity="0.18" stroke="#000" stroke-width="1"/>
  <path d="M897.453668 373.280632 L886.020971 399.435402 L882.223726 395.471404 L874.721676 419.381178 L868.646084 413.038782 L867.979075 444.083751 L851.271197 426.642163 L838.586406 438.793347 L829.473018 429.279754 L842.157809 417.128570 L825.449932 399.686982 L856.494900 400.353991 L850.419309 394.011595 L874.629237 387.543410 L870.831992 383.579413 Z" fill="#888" fill-opacity="0.18" stroke="#000" stroke-width="1"/>
  <path d="M710.625515 273.049833 L707.223045 244.709018 L712.505621 246.201244 L706.852855 221.788045 L715.304977 224.175605 L700.143575 197.076401 L723.386908 203.642192 L728.162029 186.737950 L740.840211 190.319290 L736.065090 207.223533 L759.308424 213.789324 L732.209219 228.950726 L740.661341 231.338287 L723.070772 249.185694 L728.353348 250.677920 Z" fill="#888" fill-opacity="0.18" stroke="#000" stroke-width="1"/>
  <path d="M579.301039 901.428491 L603.410633 886.147587 L604.339966 891.557641 L623.935650 875.938193 L625.422582 884.594279 L643.345469 859.236733 L647.434531 883.040971 L664.746704 880.067107 L666.977102 893.051237 L649.664929 896.025101 L653.753992 919.829338 L628.396446 901.906452 L629.883378 910.562539 L606.198630 902.377749 L607.127963 907.787804 Z" fill="#888" fill-opacity="0.18" stroke="#000" stroke-width="1"/>
  <path d="M277.593837 300.067564 L282.139920 271.887577 L286.806036 274.778892 L288.105843 249.753534 L295.571629 254.379639 L288.472428 224.149913 L309.003338 236.871702 L318.255548 221.940131 L329.454226 228.879288 L320.202016 243.810859 L340.732926 256.532648 L310.503200 263.631849 L317.968985 268.257954 L296.138268 280.561523 L300.804384 283.452839 Z" fill="#888" fill-opacity="0.18" stroke="#000" stroke-width="1"/>
  <path d="M521.679821 665.316775 L493.135501 665.297291 L495.250226 660.231693 L470.335440 662.917109 L473.719000 654.812152 L444.997709 666.615644 L454.302498 644.327014 L438.092585 637.559894 L443.167925 625.402459 L459.377838 632.169579 L468.682628 609.880948 L480.486120 638.602239 L483.869679 630.497282 L499.479676 650.100498 L501.594401 645.034900 Z" fill="#888" fill-opacity="0.18" stroke="#000" stroke-width="1"/>
  <path d="M262.303517 758.268702 L285.276588 741.327139 L286.584775 746.658273 L305.031302 729.697032 L307.124400 738.226847 L323.216191 711.669565 L328.972211 735.126555 L346.031841 730.940359 L349.171488 743.735081 L332.111858 747.921278 L337.867879 771.378268 L311.310596 755.286477 L313.403694 763.816291 L289.201147 757.320542 L290.509334 762.651676 Z" fill="#888" fill-opacity="0.18" stroke="#000" stroke-width="1"/>
  <path d="M291.476144 56.833131 L281.925460 83.732258 L277.856879 80.047290 L272.067885 104.428545 L265.558155 98.532596 L267.092608 129.546794 L249.190851 113.332934 L237.398953 126.352394 L227.634358 117.508471 L239.426255 104.489011 L221.524498 88.275151 L252.538695 86.740698 L246.028965 80.844749 L269.719716 72.677354 L265.651135 68.992386 Z" fill="#888" fill-opacity="0.18" stroke="#000" stroke-width="1"/>
  <path d="M429.626674 733.802836 L445.404001 757.590533 L440.014371 758.631797 L456.036613 777.899537 L447.413204 779.565559 L473.136780 796.959024 L449.422408 801.540585 L452.754452 818.787401 L439.819340 821.286435 L436.487295 804.039618 L412.772923 808.621179 L430.166388 782.897603 L421.542980 784.563625 L429.235110 760.714324 L423.845480 761.755588 Z" fill="#888" fill-opacity="0.18" stroke="#000" stroke-width="1"/>
  <path d="M42.005442 695.896076 L69.184073 687.172511 L68.722381 692.642355 L91.617476 682.455468 L90.878769 691.207217 L114.604910 671.174613 L112.573465 695.241922 L130.076963 696.719337 L128.968902 709.846961 L111.465404 708.369546 L109.433958 732.436856 L89.401354 708.710715 L88.662647 717.462464 L67.798997 703.582041 L67.337305 709.051884 Z" fill="#888" fill-opacity="0.18" stroke="#000" stroke-width="1"/>
  <path d="M255.933381 810.788620 L271.665412 834.606298 L266.273810 835.637303 L282.259357 854.935499 L273.632794 856.585108 L299.323224 874.027492 L275.600176 878.563917 L278.899394 895.817043 L265.959549 898.291457 L262.660331 881.038331 L238.937283 885.574756 L256.379668 859.884326 L247.753105 861.533935 L255.490606 837.699315 L250.099004 838.730320 Z" fill="#888" fill-opacity="0.18" stroke="#000" stroke-width="1"/>
  <path d="M721.764213 646.822960 L701.410726 666.835809 L699.363584 661.742523 L683.494154 681.136317 L680.218728 672.987060 L668.034151 701.548767 L659.026730 679.138311 L642.728216 685.689163 L637.815077 673.465278 L654.113590 666.914426 L645.106169 644.503971 L673.667875 656.688547 L670.392449 648.539290 L695.269302 651.555953 L693.222160 646.462667 Z" fill="#888" fill-opacity="0.18" stroke="#000" stroke-width="1"/>
  <path d="M832.937197 1005.920275 L806.632444 994.837019 L810.545504 990.987304 L786.537912 983.804439 L792.798807 977.644894 L761.747707 977.391517 L778.965170 960.452769 L766.646081 947.930979 L776.037424 938.691662 L788.356513 951.213453 L805.573975 934.274705 L805.320598 965.325805 L811.581493 959.166261 L818.371623 983.287873 L822.284683 979.438158 Z" fill="#888" fill-opacity="0.18" stroke="#000" stroke-width="1"/>
  <path d="M769.742859 831.379908 L768.930570 802.847142 L774.055639 804.813360 L770.645361 779.987405 L778.845471 783.133355 L766.210070 754.768206 L788.760372 763.419568 L795.052271 747.019348 L807.352436 751.738272 L801.060537 768.138492 L823.610839 776.789853 L795.245691 789.425254 L803.445801 792.571203 L784.305776 808.745797 L789.430845 810.712016 Z" fill="#888" fill-opacity="0.18" stroke="#000" stroke-width="1"/>
  <path d="M295.667365 495.579907 L300.221241 467.401178 L304.886557 470.293783 L306.193285 445.268786 L313.657791 449.896955 L306.566950 419.665267 L327.094341 432.392733 L336.350680 417.463722 L347.547439 424.405976 L338.291100 439.334987 L358.818491 452.062453 L328.586803 459.153294 L336.051309 463.781464 L314.217190 476.078995 L318.882506 478.971601 Z" fill="#888" fill-opacity="0.18" stroke="#000" stroke-width="1"/>
  <path d="M160.972570 300.413474 L140.407097 280.618527 L145.442108 278.431975 L125.618875 263.102348 L133.674892 259.603864 L104.788640 248.210031 L126.942687 238.589200 L119.945720 222.477166 L132.029745 217.229440 L139.026713 233.341475 L161.180760 223.720644 L149.786926 252.606896 L157.842944 249.108413 L155.512129 274.058870 L160.547140 271.872318 Z" fill="#888" fill-opacity="0.18" stroke="#000" stroke-width="1"/>
  <path d="M1004.866726 177.668196 L977.275922 170.352039 L980.615388 165.995399 L955.842004 162.222143 L961.185149 155.251519 L930.400726 159.320214 L945.094376 140.150999 L931.153129 129.464708 L939.167847 119.008772 L953.109095 129.695064 L967.802745 110.525848 L971.871441 141.310271 L977.214586 134.339648 L987.294320 157.282119 L990.633786 152.925479 Z" fill="#888" fill-opacity="0.18" stroke="#000" stroke-width="1"/>
  <path d="M811.085317 931.357673 L839.151229 936.561820 L836.151535 941.159012 L861.139632 943.043966 L856.340121 950.399474 L886.727668 944.009481 L873.529013 964.237128 L888.240029 973.836149 L881.040763 984.869411 L866.329747 975.270389 L853.131092 995.498036 L846.741100 965.110490 L841.941589 972.465997 L830.152146 950.353397 L827.152452 954.950590 Z" fill="#888" fill-opacity="0.18" stroke="#000" stroke-width="1"/>
  <path d="M236.779494 276.937681 L256.966912 297.118036 L251.891448 299.208971 L271.421210 314.910768 L263.300468 318.256265 L291.966065 330.194378 L269.634025 339.394494 L276.325018 355.635978 L264.143905 360.654224 L257.452912 344.412740 L235.120871 353.612856 L247.058984 324.947259 L238.938242 328.292755 L241.740521 303.390842 L236.665057 305.481778 Z" fill="#888" fill-opacity="0.18" stroke="#000" stroke-width="1"/>
  <path d="M430.766588 624.546614 L434.150935 596.203630 L438.931912 598.900776 L439.202347 573.843144 L446.851911 578.158578 L438.516586 548.246083 L459.552887 560.113527 L468.183755 544.814399 L479.658101 551.287550 L471.027233 566.586678 L492.063534 578.454121 L462.151039 586.789446 L469.800603 591.104880 L448.493867 604.295068 L453.274845 606.992215 Z" fill="#888" fill-opacity="0.18" stroke="#000" stroke-width="1"/>
  <path d="M740.839053 530.381639 L724.122037 553.518621 L721.251346 548.839788 L708.851535 570.615984 L704.258429 563.129852 L697.025861 593.327947 L684.394821 572.741082 L669.422556 581.927293 L662.532898 570.698094 L677.505163 561.511883 L664.874123 540.925019 L695.072218 548.157587 L690.479113 540.671454 L715.509964 539.482123 L712.639273 534.803290 Z" fill="#888" fill-opacity="0.18" stroke="#000" stroke-width="1"/>
  <path d="M207.636495 560.997288 L227.622426 540.617368 L229.761914 545.672557 L245.275796 525.993189 L248.698977 534.081492 L260.361780 505.302784 L269.775527 527.545615 L285.952132 520.699254 L291.086903 532.831707 L274.910298 539.678069 L284.324046 561.920900 L255.545338 550.258096 L258.968519 558.346398 L234.040890 555.782935 L236.180378 560.838124 Z" fill="#888" fill-opacity="0.18" stroke="#000" stroke-width="1"/>
  <path d="M650.474323 158.594598 L657.096464 186.360149 L651.677864 185.482012 L660.086235 209.088311 L651.416476 207.683292 L669.578325 232.870238 L645.736488 229.006435 L642.926449 246.345952 L629.921811 244.238424 L632.731849 226.898906 L608.890012 223.035103 L634.076958 204.873253 L625.407199 203.468234 L640.840666 183.725738 L635.422066 182.847601 Z" fill="#888" fill-opacity="0.18" stroke="#000" stroke-width="1"/>
  <path d="M247.045410 682.028399 L229.021913 659.893989 L234.284197 658.331712 L216.458064 640.719585 L224.877719 638.219942 L197.579474 623.419913 L220.733525 616.545895 L215.734239 599.706585 L228.363721 595.957121 L233.363007 612.796430 L256.517057 605.922412 L241.717028 633.220656 L250.136683 630.721013 L244.808765 655.207159 L250.071049 653.644882 Z" fill="#888" fill-opacity="0.18" stroke="#000" stroke-width="1"/>
  <path d="M310.925088 1006.338263 L339.096779 1001.741048 L337.829147 1007.081970 L361.981627 1000.402466 L359.953417 1008.947942 L386.387632 992.654777 L380.810055 1016.154836 L397.901007 1020.211256 L394.858692 1033.029471 L377.767740 1028.973050 L372.190162 1052.473110 L355.896997 1026.038894 L353.868787 1034.584371 L335.293885 1017.763816 L334.026254 1023.104738 Z" fill="#888" fill-opacity="0.18" stroke="#000" stroke-width="1"/>
  <path d="M227.015025 1040.442123 L198.798414 1044.755065 L200.119831 1039.427194 L175.901233 1045.862843 L178.015500 1037.338251 L151.418352 1053.364066 L157.232585 1029.921436 L140.183400 1025.692904 L143.354800 1012.906015 L160.403985 1017.134548 L166.218217 993.691918 L182.244032 1020.289066 L184.358299 1011.764473 L202.762664 1028.771454 L204.084080 1023.443584 Z" fill="#888" fill-opacity="0.18" stroke="#000" stroke-width="1"/>
  <path d="M199.697833 205.367932 L213.328428 230.447514 L207.868251 231.012148 L222.139174 251.610662 L213.402891 252.514075 L237.502133 272.096249 L213.477355 274.580637 L215.284182 292.053203 L202.179757 293.408323 L200.372930 275.935757 L176.348151 278.420145 L195.930325 254.320903 L187.194042 255.224316 L196.947897 232.141415 L191.487720 232.706048 Z" fill="#888" fill-opacity="0.18" stroke="#000" stroke-width="1"/>
  <path d="M254.856382 899.800261 L277.957775 916.566424 L273.272850 919.427162 L295.022638 931.873237 L287.526758 936.450418 L317.709410 943.747165 L297.095741 956.334413 L306.250103 971.326172 L295.006283 978.191944 L285.851921 963.200184 L265.238252 975.787433 L272.534999 945.604780 L265.039119 950.181962 L263.903001 925.148638 L259.218076 928.009376 Z" fill="#888" fill-opacity="0.18" stroke="#000" stroke-width="1"/>
  <path d="M449.367018 531.133978 L432.732766 554.330534 L429.845378 549.661987 L417.523441 571.482342 L412.903621 564.012666 L405.778982 594.236407 L393.074476 573.694798 L378.135124 582.934439 L371.205393 571.729925 L386.144745 562.490284 L373.440239 541.948675 L403.663980 549.073314 L399.044159 541.603638 L424.070602 540.324892 L421.183215 535.656344 Z" fill="#888" fill-opacity="0.18" stroke="#000" stroke-width="1"/>
  <path d="M78.107058 895.618911 L104.221116 907.144297 L100.243677 910.927459 L124.126693 918.514261 L117.762790 924.567320 L148.805198 925.344430 L131.304463 941.990344 L143.410582 954.718151 L133.864727 963.797741 L121.758607 951.069934 L104.257873 967.715848 L105.034982 936.673440 L98.671079 942.726499 L92.288797 918.493784 L88.311357 922.276946 Z" fill="#888" fill-opacity="0.18" stroke="#000" stroke-width="1"/>
  <path d="M844.088382 844.126420 L857.763323 869.181850 L852.304154 869.756142 L866.611495 890.329377 L857.876824 891.248245 L882.010670 910.787754 L857.990324 913.314640 L859.828059 930.783982 L846.726052 932.162283 L844.888317 914.692941 L820.867971 917.219826 L840.407481 893.085979 L831.672810 894.004847 L841.385815 870.904726 L835.926645 871.479018 Z" fill="#888" fill-opacity="0.18" stroke="#000" stroke-width="1"/>
  <path d="M173.384858 785.415891 L195.460271 803.511601 L190.615218 806.091873 L211.595424 819.795486 L203.843339 823.923922 L233.544640 832.983044 L212.226407 844.336242 L220.483279 859.840412 L208.855152 866.033065 L200.598280 850.528896 L179.280047 861.882094 L188.339170 832.180793 L180.587085 836.309229 L180.925112 811.252418 L176.080059 813.832690 Z" fill="#888" fill-opacity="0.18" stroke="#000" stroke-width="1"/>
  <path d="M519.277305 558.007667 L537.045108 580.347849 L531.765208 581.849517 L549.387658 599.665446 L540.939818 602.068114 L568.066087 617.181042 L544.834529 623.788379 L549.639865 640.684057 L536.968107 644.288059 L532.162770 627.392381 L508.931213 633.999718 L524.044140 606.873450 L515.596301 609.276119 L521.205410 584.852852 L515.925510 586.354520 Z" fill="#888" fill-opacity="0.18" stroke="#000" stroke-width="1"/>
  <path d="M54.044733 323.278823 L75.918292 304.939631 L77.555904 310.178960 L94.910477 292.101990 L97.530655 300.484918 L111.937527 272.977155 L119.143017 296.030204 L135.908871 290.789848 L139.839138 303.364239 L123.073284 308.604595 L130.278773 331.657645 L102.771011 317.250772 L105.391188 325.633699 L80.831126 320.657619 L82.468737 325.896948 Z" fill="#888" fill-opacity="0.18" stroke="#000" stroke-width="1"/>
  <path d="M397.611525 100.655377 L403.426683 128.601083 L398.035791 127.566370 L405.756899 151.406305 L397.131472 149.750764 L414.556184 175.453184 L390.836261 170.900445 L387.525178 188.151297 L374.587039 185.667985 L377.898122 168.417132 L354.178199 163.864393 L379.880619 146.439681 L371.255193 144.784139 L387.254008 125.496943 L381.863117 124.462229 Z" fill="#888" fill-opacity="0.18" stroke="#000" stroke-width="1"/>
  <path d="M663.046771 463.936996 L679.552556 440.648852 L682.465704 445.301369 L694.666846 423.413240 L699.327882 430.857267 L706.285358 400.594608 L719.103209 421.065682 L733.991262 411.743609 L740.982817 422.909649 L726.094764 432.231723 L738.912614 452.702797 L708.649956 445.745321 L713.310992 453.189348 L688.291999 454.606403 L691.205147 459.258919 Z" fill="#888" fill-opacity="0.18" stroke="#000" stroke-width="1"/>
  <path d="M836.858829 265.401781 L852.909842 289.005670 L847.532598 290.109112 L863.776305 309.190517 L855.172714 310.956024 L881.095462 328.051233 L857.435586 332.906379 L860.966602 350.113562 L848.061215 352.761824 L844.530199 335.554641 L820.870323 340.409788 L837.965532 314.487040 L829.361940 316.252548 L836.778109 292.315997 L831.400864 293.419439 Z" fill="#888" fill-opacity="0.18" stroke="#000" stroke-width="1"/>
  <path d="M474.957751 408.352970 L466.633441 435.656531 L462.402359 432.159348 L457.722012 456.777480 L450.952280 451.181988 L453.887881 482.095048 L435.271118 466.707446 L424.080135 480.246910 L413.925536 471.853673 L425.116519 458.314209 L406.499756 442.926607 L437.412815 439.991005 L430.643083 434.395514 L453.940194 425.164984 L449.709111 421.667802 Z" fill="#888" fill-opacity="0.18" stroke="#000" stroke-width="1"/>
  <path d="M577.836989 312.832714 L591.969371 288.032425 L595.326494 292.375473 L605.313013 269.392273 L610.684411 276.341149 L614.628108 245.540463 L629.399452 264.649873 L643.297205 253.907077 L651.354302 264.330392 L637.456549 275.073188 L652.227893 294.182598 L621.427207 290.238902 L626.798605 297.187778 L602.040742 301.061568 L605.397866 305.404616 Z" fill="#888" fill-opacity="0.18" stroke="#000" stroke-width="1"/>
  <path d="M366.269583 94.079894 L339.764785 104.675850 L339.844260 99.187132 L317.714542 110.944412 L317.841703 102.162463 L295.568929 123.799435 L295.918620 99.649075 L278.354722 99.394755 L278.545462 86.221831 L296.109360 86.476151 L296.459051 62.325791 L318.096023 84.598564 L318.223183 75.816615 L340.003211 88.209696 L340.082686 82.720978 Z" fill="#888" fill-opacity="0.18" stroke="#000" stroke-width="1"/>
  <path d="M125.143400 539.908911 L96.831932 536.270316 L99.571880 531.513739 L74.517685 531.018418 L78.901602 523.407894 L48.915500 531.474413 L60.971271 510.545472 L45.750223 501.777638 L52.326098 490.361853 L67.547146 499.129686 L79.602916 478.200745 L87.669435 508.186846 L92.053351 500.576322 L105.051776 522.000584 L107.791724 517.244006 Z" fill="#888" fill-opacity="0.18" stroke="#000" stroke-width="1"/>
  <path d="M378.475489 307.088440 L371.325666 279.454066 L376.760009 280.228829 L367.903507 256.786978 L376.598456 258.026599 L357.960137 233.190173 L381.871247 236.599131 L384.350489 219.209233 L397.392912 221.068665 L394.913670 238.458563 L418.824780 241.867521 L393.988354 260.505841 L402.683304 261.745462 L387.628696 281.778356 L393.063039 282.553119 Z" fill="#888" fill-opacity="0.18" stroke="#000" stroke-width="1"/>
  <path d="M688.726452 340.485773 L668.840604 360.963361 L666.676376 355.918715 L651.259091 375.673850 L647.796326 367.602415 L636.274652 396.437914 L626.752048 374.241469 L610.609179 381.166999 L605.415031 369.059847 L621.557901 362.134317 L612.035297 339.937872 L640.870796 351.459546 L637.408031 343.388111 L662.347920 345.829421 L660.183692 340.784774 Z" fill="#888" fill-opacity="0.18" stroke="#000" stroke-width="1"/>
  <path d="M974.588442 589.304843 L1002.604244 594.772326 L999.561510 599.341146 L1024.530804 601.460678 L1019.662430 608.770790 L1050.108644 602.666447 L1036.720615 622.769254 L1051.340838 632.506002 L1044.038277 643.471170 L1029.418053 633.734421 L1016.030024 653.837228 L1009.925681 623.391013 L1005.057307 630.701125 L993.476042 608.478785 L990.433308 613.047605 Z" fill="#888" fill-opacity="0.18" stroke="#000" stroke-width="1"/>
  <path d="M968.409159 953.725437 L989.413129 934.396396 L991.290772 939.554574 L1007.792670 920.696011 L1010.796899 928.949096 L1023.919040 900.805813 L1032.180668 923.501797 L1048.686838 917.493340 L1053.193181 929.872968 L1036.687011 935.881424 L1044.948638 958.577408 L1016.805355 945.455266 L1019.809583 953.708351 L995.046057 949.870930 L996.923700 955.029108 Z" fill="#888" fill-opacity="0.18" stroke="#000" stroke-width="1"/>
  <path d="M438.393009 420.962387 L450.968983 395.337722 L454.587564 399.465459 L463.137632 375.910112 L468.927363 382.514491 L470.963984 351.529217 L486.885743 369.691259 L500.094500 358.111799 L508.779096 368.018367 L495.570338 379.597828 L511.492097 397.759870 L480.506823 395.723249 L486.296554 402.327628 L461.824727 407.720933 L465.443309 411.848669 Z" fill="#888" fill-opacity="0.18" stroke="#000" stroke-width="1"/>
  <path d="M551.102321 154.790140 L532.159166 176.142785 L529.769876 171.200757 L515.258201 191.630376 L511.435338 183.723131 L501.224384 213.048401 L490.711511 191.303478 L474.897022 198.949204 L469.162727 187.088337 L484.977216 179.442611 L474.464343 157.697688 L503.789612 167.908642 L499.966749 160.001397 L524.991298 161.316701 L522.602008 156.374673 Z" fill="#888" fill-opacity="0.18" stroke="#000" stroke-width="1"/>
  <path d="M581.887816 538.937688 L600.126997 516.980665 L602.675642 521.842430 L616.515682 500.951970 L620.593513 508.730793 L629.845993 479.089157 L641.060029 500.480921 L656.617676 492.325258 L662.734422 503.993493 L647.176776 512.149156 L658.390812 533.540920 L628.749176 524.288440 L632.827007 532.067263 L607.772931 531.565959 L610.321575 536.427724 Z" fill="#888" fill-opacity="0.18" stroke="#000" stroke-width="1"/>
  <path d="M102.370346 134.069449 L106.490205 162.314897 L101.171497 160.957072 L107.441357 185.219119 L98.931424 183.046600 L114.774959 209.752730 L91.372643 203.778303 L87.027605 220.798169 L74.262705 217.539390 L78.607743 200.519524 L55.205428 194.545096 L81.911558 178.701561 L73.401625 176.529042 L90.534081 158.241424 L85.215373 156.883599 Z" fill="#888" fill-opacity="0.18" stroke="#000" stroke-width="1"/>
  <path d="M497.800996 308.244520 L525.669272 314.420100 L522.511752 318.910358 L547.419326 321.661870 L542.367294 328.846282 L572.958403 323.515331 L559.065316 343.272464 L573.434140 353.376528 L565.856092 364.153146 L551.487268 354.049082 L537.594181 373.806215 L532.263231 343.215106 L527.211199 350.399518 L516.196713 327.890872 L513.039193 332.381130 Z" fill="#888" fill-opacity="0.18" stroke="#000" stroke-width="1"/>
  <path d="M505.434308 801.010185 L533.764876 797.523425 L532.288371 802.810416 L556.684647 797.085053 L554.322240 805.544239 L581.376223 790.302292 L574.879603 813.565054 L591.797976 818.289869 L588.254365 830.978648 L571.335992 826.253834 L564.839372 849.516596 L549.597425 822.462612 L547.235018 830.921798 L529.335362 813.384399 L527.858858 818.671390 Z" fill="#888" fill-opacity="0.18" stroke="#000" stroke-width="1"/>
  <path d="M338.740989 658.207764 L327.663497 631.900583 L333.152752 631.879962 L320.993906 609.968310 L329.776714 609.935316 L307.737210 588.060782 L331.889931 587.970048 L331.823943 570.404432 L344.998154 570.354941 L345.064142 587.920557 L369.216863 587.829823 L347.342329 609.869327 L356.125137 609.836333 L344.131262 631.838719 L349.620516 631.818098 Z" fill="#888" fill-opacity="0.18" stroke="#000" stroke-width="1"/>
  <path d="M952.498010 694.082351 L948.051605 722.278238 L943.375294 719.403441 L942.163990 744.433239 L934.681892 739.833563 L941.887947 770.037996 L921.312179 757.388889 L912.112828 772.353084 L900.889681 765.453571 L910.089032 750.489375 L889.513264 737.840268 L919.717697 730.634212 L912.235599 726.034537 L934.022672 713.653847 L929.346361 710.779049 Z" fill="#888" fill-opacity="0.18" stroke="#000" stroke-width="1"/>
  <path d="M234.634447 760.733673 L263.118627 762.585705 L260.683046 767.505084 L285.718840 766.424775 L281.821910 774.295781 L311.241750 764.360590 L300.525193 786.005857 L316.267205 793.799717 L310.421811 805.606226 L294.679798 797.812366 L283.963241 819.457633 L274.028051 790.037793 L270.131121 797.908799 L255.811884 777.343841 L253.376303 782.263220 Z" fill="#888" fill-opacity="0.18" stroke="#000" stroke-width="1"/>
  <path d="M395.088756 1011.761319 L422.934588 1005.485320 L421.989068 1010.892568 L445.698206 1002.778704 L444.185374 1011.430301 L469.596449 993.583389 L465.436159 1017.375282 L482.739354 1020.400947 L480.470105 1033.378343 L463.166910 1030.352678 L459.006620 1054.144571 L441.159708 1028.733496 L439.646876 1037.385093 L420.098027 1021.707065 L419.152507 1027.114314 Z" fill="#888" fill-opacity="0.18" stroke="#000" stroke-width="1"/>
  <path d="M753.082755 541.078972 L756.265673 569.445283 L750.994810 567.912198 L756.458369 592.368436 L748.024989 589.915500 L762.976101 617.131291 L739.784305 610.385718 L734.878433 627.252479 L722.228362 623.573075 L727.134234 606.706314 L703.942438 599.960741 L731.158228 585.009629 L722.724848 582.556693 L740.453085 564.846029 L735.182222 563.312944 Z" fill="#888" fill-opacity="0.18" stroke="#000" stroke-width="1"/>
  <path d="M684.338541 160.169217 L707.267694 143.168260 L708.589672 148.495991 L726.992244 131.487070 L729.107409 140.011440 L745.130420 113.412603 L750.947124 136.854620 L767.995863 132.624290 L771.168611 145.410844 L754.119872 149.641174 L759.936576 173.083190 L733.337739 157.060179 L735.452904 165.584549 L711.233628 159.151453 L712.555606 164.479184 Z" fill="#888" fill-opacity="0.18" stroke="#000" stroke-width="1"/>
  <path d="M923.582604 876.131393 L896.840683 866.148996 L900.590659 862.140252 L876.305738 855.959584 L882.305700 849.545595 L851.270822 850.580665 L867.770716 832.942194 L854.942737 820.942271 L863.942679 811.321287 L876.770658 823.321209 L893.270552 805.682738 L894.305622 836.717616 L900.305584 830.303626 L908.090611 854.122765 L911.840587 850.114022 Z" fill="#888" fill-opacity="0.18" stroke="#000" stroke-width="1"/>
  <path d="M323.169128 311.038932 L329.474743 338.878074 L324.066492 337.938306 L332.205571 361.638800 L323.552370 360.135171 L341.426301 385.527247 L317.629997 381.392268 L314.622739 398.698671 L301.642936 396.443228 L304.650194 379.136824 L280.853890 375.001844 L306.245966 357.127913 L297.592765 355.624284 L313.249989 336.058769 L307.841738 335.119001 Z" fill="#888" fill-opacity="0.18" stroke="#000" stroke-width="1"/>
  <path d="M984.744500 336.365367 L1007.281885 353.882354 L1002.505394 356.587438 L1023.834010 369.742216 L1016.191625 374.070350 L1046.117925 382.355977 L1025.101365 394.258347 L1033.757635 409.543117 L1022.294057 416.035319 L1013.637788 400.750549 L992.621229 412.652919 L1000.906855 382.726620 L993.264470 387.054754 L992.952413 361.997606 L988.175922 364.702690 Z" fill="#888" fill-opacity="0.18" stroke="#000" stroke-width="1"/>
  <path d="M885.164268 72.523612 L858.613843 83.004713 L858.717081 77.516390 L836.536666 89.177747 L836.701848 80.396431 L814.335604 101.936768 L814.789852 77.788149 L797.227220 77.457786 L797.474992 64.285812 L815.037624 64.616174 L815.491873 40.467555 L837.032210 62.833798 L837.197391 54.052482 L858.923558 66.539745 L859.026796 61.051423 Z" fill="#888" fill-opacity="0.18" stroke="#000" stroke-width="1"/>
  <path d="M125.447908 640.303273 L153.991829 640.455398 L151.853588 645.511114 L176.780584 642.941503 L173.359398 651.030649 L202.135228 639.360748 L192.726967 661.605900 L208.905260 668.448272 L203.773481 680.581991 L187.595189 673.739619 L178.186928 695.984772 L166.517026 667.208941 L163.095841 675.298088 L147.577105 655.622547 L145.438864 660.678263 Z" fill="#888" fill-opacity="0.18" stroke="#000" stroke-width="1"/>
  <path d="M378.964031 694.762854 L352.320462 705.004864 L352.473032 699.517692 L330.188686 710.979192 L330.432798 702.199715 L307.873827 723.538127 L308.545135 699.394567 L290.986182 698.906343 L291.352350 685.737128 L308.911303 686.225352 L309.582611 662.081791 L330.921022 684.640762 L331.165134 675.861286 L352.778172 688.543346 L352.930742 683.056173 Z" fill="#888" fill-opacity="0.18" stroke="#000" stroke-width="1"/>
  <path d="M401.262873 839.727568 L386.475602 815.312098 L391.903443 814.493016 L376.685869 794.583634 L385.370414 793.273104 L360.382728 774.838068 L384.265225 771.234111 L381.644165 753.865022 L394.670981 751.899227 L397.292041 769.268316 L421.174538 765.664359 L402.739502 790.652044 L411.424047 789.341514 L402.759123 812.854854 L408.186963 812.035773 Z" fill="#888" fill-opacity="0.18" stroke="#000" stroke-width="1"/>
  <path d="M512.163550 900.367342 L500.884745 926.588843 L497.064272 922.647228 L489.702854 946.600674 L483.590097 940.294090 L483.105531 971.342443 L466.295448 953.999338 L453.682281 966.224852 L444.513145 956.764977 L457.126312 944.539462 L440.316230 927.196357 L471.364582 927.680923 L465.251825 921.374339 L489.423325 914.763999 L485.602852 910.822384 Z" fill="#888" fill-opacity="0.18" stroke="#000" stroke-width="1"/>
  <path d="M893.044462 781.922156 L873.543554 802.766656 L871.285721 797.763203 L856.239142 817.802127 L852.626610 809.796603 L841.644128 838.841742 L831.709667 816.826550 L815.698619 824.051613 L810.279822 812.043327 L826.290870 804.818264 L816.356409 782.803073 L845.401548 793.785555 L841.789016 785.780031 L866.770057 787.756298 L864.512225 782.752845 Z" fill="#888" fill-opacity="0.18" stroke="#000" stroke-width="1"/>
</svg>
