<?xml version="1.0" encoding="UTF-8"?>
<svg xmlns="http://www.w3.org/2000/svg" width="1100" height="1100" viewBox="0 0 1100 1100">
  <rect x="0" y="0" width="1100" height="1100" fill="white"/>
  <text x="10.0" y="18.0" font-family="monospace" font-size="12">prefix=N182_job5048586_task182 run_id=182 L=12.447833025 feas=0.000e+00 N=182</text>
  <rect x="40.000000" y="40.000000" width="1020.000000" height="1020.000000" fill="none" stroke="#000" stroke-width="2"/>
  <path d="M695.075437 192.479370 L669.174252 186.286928 L672.189271 182.147105 L648.996941 179.194643 L653.820970 172.570927 L625.201607 177.070144 L638.467687 158.854925 L625.220255 149.206867 L632.456298 139.271293 L645.703730 148.919351 L658.969810 130.704132 L663.469028 159.323494 L668.293057 152.699778 L678.219307 173.867460 L681.234325 169.727638 Z" fill="#888" fill-opacity="0.18" stroke="#000" stroke-width="1"/>
  <path d="M981.915976 407.348160 L956.371926 414.879372 L956.924377 409.787883 L935.343027 418.779354 L936.226949 410.632972 L913.651188 428.789124 L916.081973 406.386571 L899.789208 404.618727 L901.115090 392.399153 L917.407856 394.166997 L919.838641 371.764445 L937.994793 394.340206 L938.878715 386.193823 L958.029279 399.604905 L958.581731 394.513415 Z" fill="#888" fill-opacity="0.18" stroke="#000" stroke-width="1"/>
  <path d="M252.298992 512.216077 L278.531466 507.625326 L277.406120 512.621531 L299.866699 506.131262 L298.066147 514.125190 L322.552348 498.641752 L317.600828 520.625053 L333.588683 524.226159 L330.887854 536.217050 L314.899998 532.615945 L309.948478 554.599246 L294.465041 530.113045 L292.664488 538.106973 L275.155429 522.613940 L274.030084 527.610145 Z" fill="#888" fill-opacity="0.18" stroke="#000" stroke-width="1"/>
  <path d="M307.376122 740.049076 L331.335338 728.422655 L331.627069 733.535713 L351.437493 721.120065 L351.904261 729.300957 L371.189570 707.681806 L372.473184 730.179259 L388.834968 729.245722 L389.535121 741.517061 L373.173336 742.450598 L374.456949 764.948051 L352.837798 745.662742 L353.304566 753.843634 L332.210529 743.761828 L332.502259 748.874886 Z" fill="#888" fill-opacity="0.18" stroke="#000" stroke-width="1"/>
  <path d="M277.894278 310.555869 L269.869405 285.162581 L274.970645 285.616249 L265.562589 264.213219 L273.724573 264.939088 L255.134286 242.719455 L277.579742 244.715595 L279.031480 228.391627 L291.274456 229.480431 L289.822718 245.804399 L312.268174 247.800538 L290.048542 266.390826 L298.210526 267.116695 L285.173125 286.523585 L290.274365 286.977254 Z" fill="#888" fill-opacity="0.18" stroke="#000" stroke-width="1"/>
  <path d="M473.524363 893.406819 L490.581930 872.955484 L492.950690 877.496127 L505.901991 858.031672 L509.692007 865.296701 L518.379539 837.659088 L528.802083 857.637918 L543.332142 850.057886 L549.017166 860.955429 L534.487108 868.535461 L544.909652 888.514291 L517.272039 879.826759 L521.062055 887.091788 L497.688210 886.577413 L500.056970 891.118057 Z" fill="#888" fill-opacity="0.18" stroke="#000" stroke-width="1"/>
  <path d="M738.707910 59.891371 L719.852110 78.697659 L717.908376 73.959478 L703.231867 92.158415 L700.121892 84.577326 L688.944106 111.304989 L680.391674 90.456992 L665.229494 96.676943 L660.564531 85.305308 L675.726710 79.085357 L667.174278 58.237360 L693.901941 69.415146 L690.791966 61.834056 L714.020906 64.483116 L712.077172 59.744935 Z" fill="#888" fill-opacity="0.18" stroke="#000" stroke-width="1"/>
  <path d="M889.537244 977.466015 L895.741344 1003.364410 L890.685113 1002.550167 L898.551853 1024.566425 L890.461883 1023.263638 L907.429839 1046.745531 L885.182422 1043.162866 L882.576847 1059.342806 L870.441892 1057.388625 L873.047467 1041.208685 L850.800049 1037.626019 L874.281943 1020.658063 L866.191973 1019.355275 L880.572650 1000.921683 L875.516419 1000.107441 Z" fill="#888" fill-opacity="0.18" stroke="#000" stroke-width="1"/>
  <path d="M746.875013 483.332377 L729.252710 463.365602 L734.100533 461.714215 L716.829775 445.955975 L724.586291 443.313756 L698.589452 430.528012 L719.919873 423.261910 L714.635434 407.748877 L726.270209 403.785548 L731.554647 419.298581 L752.885068 412.032479 L740.099324 438.029317 L747.855841 435.387098 L743.796178 458.411441 L748.644001 456.760054 Z" fill="#888" fill-opacity="0.18" stroke="#000" stroke-width="1"/>
  <path d="M408.940026 519.707566 L382.657111 515.415008 L385.363106 511.066898 L362.017479 509.808759 L366.347071 502.851784 L338.130653 509.420240 L350.037032 490.288559 L336.123082 481.629375 L342.617470 471.193912 L356.531420 479.853097 L368.437799 460.721416 L375.006256 488.937834 L379.335848 481.980859 L390.775096 502.370680 L393.481091 498.022570 Z" fill="#888" fill-opacity="0.18" stroke="#000" stroke-width="1"/>
  <path d="M974.995848 196.834010 L955.172414 179.050615 L959.795460 176.847002 L940.810306 163.202767 L948.207180 159.676986 L920.900544 149.999254 L941.241946 140.303357 L934.190385 125.509609 L945.285695 120.220938 L952.337257 135.014685 L972.678659 125.318788 L963.000927 152.625424 L970.397801 149.099643 L969.041552 172.439776 L973.664598 170.236163 Z" fill="#888" fill-opacity="0.18" stroke="#000" stroke-width="1"/>
  <path d="M887.431851 721.246884 L885.135802 747.778862 L880.595809 745.408855 L881.103764 768.782840 L873.839776 764.990829 L882.519717 792.630827 L862.543751 782.202795 L854.959728 796.730771 L844.063746 791.042754 L851.647769 776.514778 L831.671802 766.086747 L859.311801 757.406806 L852.047813 753.614794 L871.515825 740.668841 L866.975832 738.298833 Z" fill="#888" fill-opacity="0.18" stroke="#000" stroke-width="1"/>
  <path d="M568.785947 137.387658 L546.765393 122.410579 L551.052785 119.609377 L530.415715 108.622452 L537.275543 104.140529 L508.921166 98.195767 L527.785692 85.870479 L518.821846 72.150823 L529.111588 65.427939 L538.075434 79.147594 L556.939960 66.822306 L550.995198 95.176683 L557.855026 90.694760 L559.627570 114.006973 L563.914962 111.205771 Z" fill="#888" fill-opacity="0.18" stroke="#000" stroke-width="1"/>
  <path d="M903.686450 958.673651 L930.196694 956.138959 L928.685823 961.032396 L951.583491 956.310319 L949.166096 964.139820 L974.783333 950.609555 L968.135498 972.140681 L983.794499 976.975470 L980.168407 988.719720 L964.509407 983.884931 L957.861572 1005.416057 L944.331307 979.798820 L941.913913 987.628320 L925.664080 970.819272 L924.153208 975.712709 Z" fill="#888" fill-opacity="0.18" stroke="#000" stroke-width="1"/>
  <path d="M966.879188 99.744655 L991.605020 89.852690 L991.532156 94.973545 L1012.175876 83.999119 L1012.059294 92.192487 L1032.834169 72.000522 L1032.513568 94.532284 L1048.900304 94.765448 L1048.725431 107.055500 L1032.338695 106.822336 L1032.018095 129.354098 L1011.826130 108.579223 L1011.709548 116.772591 L991.386428 105.215255 L991.313565 110.336110 Z" fill="#888" fill-opacity="0.18" stroke="#000" stroke-width="1"/>
  <path d="M954.832537 542.869565 L930.319035 532.462554 L933.979562 528.880794 L911.599362 522.118557 L917.456206 516.387741 L888.487057 516.072672 L904.593377 500.312928 L893.131745 488.599241 L901.917010 480.003017 L913.378642 491.716704 L929.484962 475.956960 L929.169893 504.926109 L935.026737 499.195293 L941.300617 521.717274 L944.961144 518.135514 Z" fill="#888" fill-opacity="0.18" stroke="#000" stroke-width="1"/>
  <path d="M658.648220 1052.711735 L657.475053 1026.106447 L662.284658 1027.866039 L658.741897 1004.756516 L666.437265 1007.571864 L654.237214 981.295075 L675.399476 989.037281 L681.030172 973.646546 L692.573223 977.869567 L686.942528 993.260303 L708.104790 1001.002509 L681.828000 1013.202560 L689.523368 1016.017907 L671.903868 1031.385224 L676.713473 1033.144816 Z" fill="#888" fill-opacity="0.18" stroke="#000" stroke-width="1"/>
  <path d="M706.132754 719.317541 L702.385081 745.683668 L697.981898 743.068243 L697.207202 766.434909 L690.162109 762.250229 L697.313142 790.324659 L677.939138 778.816790 L669.569779 792.906975 L659.002140 786.629956 L667.371499 772.539771 L647.997495 761.031903 L676.071925 753.880870 L669.026832 749.696191 L689.175533 737.837394 L684.772350 735.221969 Z" fill="#888" fill-opacity="0.18" stroke="#000" stroke-width="1"/>
  <path d="M986.308457 407.401702 L978.553003 432.878566 L974.604111 429.617475 L970.247307 452.587444 L963.929080 447.369697 L966.680282 476.209631 L949.305158 461.860829 L938.869665 474.497283 L929.392325 466.670663 L939.827817 454.034209 L922.452693 439.685407 L951.292626 436.934205 L944.974399 431.716459 L966.706327 423.095292 L962.757435 419.834200 Z" fill="#888" fill-opacity="0.18" stroke="#000" stroke-width="1"/>
  <path d="M841.172558 573.159424 L814.933696 568.605328 L817.682859 564.284383 L794.350920 562.793807 L798.749582 555.880296 L770.469148 562.167420 L782.565468 543.155263 L768.738445 534.357940 L775.336437 523.987672 L789.163461 532.784996 L801.259781 513.772838 L807.546906 542.053272 L811.945567 535.139761 L823.181187 555.642494 L825.930350 551.321549 Z" fill="#888" fill-opacity="0.18" stroke="#000" stroke-width="1"/>
  <path d="M269.823214 145.007917 L272.439206 171.510261 L267.541157 170.014406 L272.333443 192.897483 L264.496565 190.504114 L278.105339 216.079730 L256.553924 209.497967 L251.767187 225.171723 L240.011870 221.581670 L244.798607 205.907914 L223.247193 199.326151 L248.822809 185.717377 L240.985931 183.324008 L257.745060 167.022695 L252.847011 165.526840 Z" fill="#888" fill-opacity="0.18" stroke="#000" stroke-width="1"/>
  <path d="M687.960746 623.802398 L689.732456 650.374540 L684.884464 648.723649 L688.946485 671.747576 L681.189698 669.106151 L693.978105 695.101680 L672.646940 687.837763 L667.364091 703.351337 L655.728910 699.389200 L661.011759 683.875626 L639.680595 676.611708 L665.676124 663.823302 L657.919337 661.181878 L675.188481 645.421869 L670.340489 643.770978 Z" fill="#888" fill-opacity="0.18" stroke="#000" stroke-width="1"/>
  <path d="M126.295954 841.162982 L105.031119 825.130999 L109.449876 822.541974 L89.372510 810.562801 L96.442521 806.420361 L68.411392 799.101434 L87.853923 787.709723 L79.569042 773.569701 L90.174059 767.356040 L98.458940 781.496063 L117.901470 770.104352 L110.582543 798.135480 L117.652555 793.993040 L118.287390 817.363923 L122.706147 814.774898 Z" fill="#888" fill-opacity="0.18" stroke="#000" stroke-width="1"/>
  <path d="M742.489622 345.582610 L758.993322 366.483461 L754.062424 367.867191 L770.445320 384.546578 L762.555883 386.760546 L787.814395 400.949218 L766.118443 407.037630 L770.546379 422.816504 L758.712223 426.137456 L754.284288 410.358582 L732.588336 416.446993 L746.777009 391.188481 L738.887572 393.402449 L744.200628 370.634651 L739.269730 372.018381 Z" fill="#888" fill-opacity="0.18" stroke="#000" stroke-width="1"/>
  <path d="M497.535941 568.549563 L484.738268 591.904161 L481.539055 587.904974 L472.580574 609.500039 L467.461833 603.101339 L464.261936 631.894941 L450.185398 614.298517 L437.387998 624.535999 L429.709887 614.937949 L442.507286 604.700467 L428.430748 587.104042 L457.224351 590.303939 L452.105610 583.905239 L475.140628 579.906599 L471.941415 575.907411 Z" fill="#888" fill-opacity="0.18" stroke="#000" stroke-width="1"/>
  <path d="M921.010050 182.768115 L898.533137 168.485046 L902.731087 165.551501 L881.761419 155.213501 L888.478139 150.519829 L859.952162 145.462209 L878.423140 132.554613 L869.035798 119.121174 L879.110877 112.080667 L888.498219 125.514106 L906.969198 112.606510 L901.911577 141.132487 L908.628297 136.438816 L911.126986 159.684412 L915.324935 156.750868 Z" fill="#888" fill-opacity="0.18" stroke="#000" stroke-width="1"/>
  <path d="M823.379682 800.768631 L850.003117 800.127989 L848.147651 804.901428 L871.323428 801.821726 L868.354683 809.459227 L894.870298 797.787337 L886.706249 818.790465 L901.981252 824.727955 L897.528134 836.184207 L882.253132 830.246717 L874.089083 851.249845 L862.417193 824.734229 L859.448448 832.371731 L844.436720 814.448304 L842.581254 819.221742 Z" fill="#888" fill-opacity="0.18" stroke="#000" stroke-width="1"/>
  <path d="M232.240603 522.862530 L227.513808 549.070832 L223.211062 546.293272 L221.566864 569.614889 L214.682470 565.170794 L220.783215 593.492018 L201.851132 581.270755 L192.962940 595.039543 L182.636349 588.373399 L191.524541 574.604611 L172.592457 562.383347 L200.913682 556.282602 L194.029288 551.838506 L214.605569 540.738153 L210.302823 537.960593 Z" fill="#888" fill-opacity="0.18" stroke="#000" stroke-width="1"/>
  <path d="M924.166511 125.140534 L930.261290 99.216195 L934.412446 102.215589 L937.277478 79.012296 L943.919329 83.811327 L939.312279 55.209125 L957.577368 68.406458 L967.175429 55.122758 L977.138204 62.321304 L967.540143 75.605004 L985.805231 88.802338 L957.203029 93.409388 L963.844880 98.208418 L942.714759 108.214377 L946.865916 111.213771 Z" fill="#888" fill-opacity="0.18" stroke="#000" stroke-width="1"/>
  <path d="M515.986981 282.113802 L539.569489 269.741130 L540.021553 274.842513 L559.432543 261.811216 L560.155845 269.973428 L578.753119 247.759643 L580.742200 270.205725 L597.066624 268.759121 L598.151577 281.002439 L581.827153 282.449043 L583.816234 304.895126 L561.602449 286.297852 L562.325751 294.460064 L540.925681 285.045278 L541.377745 290.146660 Z" fill="#888" fill-opacity="0.18" stroke="#000" stroke-width="1"/>
  <path d="M938.322923 340.216552 L949.850073 316.209418 L953.259095 320.031333 L961.046908 297.987033 L966.501342 304.102097 L968.152916 275.178349 L983.152612 291.994776 L995.382740 281.085907 L1003.564392 290.258503 L991.334264 301.167373 L1006.333959 317.983799 L977.410212 316.332226 L982.864647 322.447290 L960.077138 327.675163 L963.486160 331.497079 Z" fill="#888" fill-opacity="0.18" stroke="#000" stroke-width="1"/>
  <path d="M988.731495 1000.207541 L972.131642 1021.032108 L969.662773 1016.545110 L957.146293 1036.291981 L953.196103 1029.112784 L945.123586 1056.936252 L934.260563 1037.193460 L919.902169 1045.093841 L913.976884 1034.325045 L928.335278 1026.424665 L917.472255 1006.681874 L945.295722 1014.754390 L941.345532 1007.575194 L964.725036 1007.571114 L962.256167 1003.084116 Z" fill="#888" fill-opacity="0.18" stroke="#000" stroke-width="1"/>
  <path d="M537.090272 328.030127 L517.197396 345.735809 L515.525742 340.894937 L499.839894 358.231470 L497.165248 350.486075 L484.488377 376.536177 L477.133100 355.236342 L461.642311 360.585634 L457.630341 348.967542 L473.121131 343.618250 L465.765854 322.318415 L491.815956 334.995286 L489.141310 327.249891 L512.182435 331.213194 L510.510781 326.372322 Z" fill="#888" fill-opacity="0.18" stroke="#000" stroke-width="1"/>
  <path d="M170.301552 601.219652 L162.658759 626.730540 L158.695494 623.486931 L154.440241 646.475929 L148.099018 641.286155 L150.977641 670.113648 L133.539277 655.841770 L123.159729 668.524217 L113.647893 660.739556 L124.027442 648.057109 L106.589077 633.785230 L135.416571 630.906607 L129.075347 625.716833 L150.768965 616.999713 L146.805700 613.756104 Z" fill="#888" fill-opacity="0.18" stroke="#000" stroke-width="1"/>
  <path d="M161.714682 336.377841 L147.512183 358.905750 L144.563626 354.718331 L134.300774 375.724879 L129.583083 369.025009 L124.627632 397.568911 L111.653984 379.144267 L98.254243 388.579648 L91.177707 378.529842 L104.577448 369.094461 L91.603800 350.669816 L120.147702 355.625267 L115.430012 348.925397 L138.666513 346.343493 L135.717957 342.156074 Z" fill="#888" fill-opacity="0.18" stroke="#000" stroke-width="1"/>
  <path d="M815.326991 327.953874 L841.381439 322.441758 L840.432817 327.474509 L862.650789 320.196946 L861.132994 328.249347 L885.058485 311.912832 L880.884548 334.056936 L896.989351 337.092526 L894.712658 349.171128 L878.607855 346.135538 L874.433918 368.279641 L858.097403 344.354150 L856.579608 352.406551 L838.535573 337.540011 L837.586951 342.572762 Z" fill="#888" fill-opacity="0.18" stroke="#000" stroke-width="1"/>
  <path d="M499.018283 933.870658 L473.078107 939.897680 L473.926874 934.847129 L451.857386 942.563275 L453.215412 934.482394 L429.618144 951.289530 L433.352717 929.067108 L417.190955 926.351055 L419.227994 914.229734 L435.389756 916.945787 L439.124328 894.723364 L455.931465 918.320632 L457.289491 910.239751 L475.624407 924.746028 L476.473173 919.695478 Z" fill="#888" fill-opacity="0.18" stroke="#000" stroke-width="1"/>
  <path d="M41.198289 790.743548 L62.439955 806.806217 L58.017464 809.388860 L78.077514 821.397008 L71.001529 825.529236 L99.022061 832.888628 L79.563103 844.252255 L87.827559 858.404225 L77.213582 864.602567 L68.949126 850.450597 L49.490167 861.814225 L56.849559 833.793692 L49.773574 837.925921 L49.172483 814.554145 L44.749993 817.136788 Z" fill="#888" fill-opacity="0.18" stroke="#000" stroke-width="1"/>
  <path d="M566.303683 87.832686 L587.103415 71.201726 L588.517215 76.124086 L605.096298 59.639693 L607.358377 67.515471 L621.392621 42.170828 L627.613340 63.829215 L643.364894 59.305056 L646.758014 71.118722 L631.006460 75.642881 L637.227179 97.301268 L611.882537 83.267025 L614.144617 91.142802 L591.344814 85.968808 L592.758614 90.891168 Z" fill="#888" fill-opacity="0.18" stroke="#000" stroke-width="1"/>
  <path d="M107.631554 742.916912 L134.218198 744.455748 L131.978564 749.061451 L155.328573 747.887440 L151.745159 755.256565 L179.126508 745.792287 L169.272119 766.057382 L184.010370 773.224211 L178.635248 784.277899 L163.896997 777.111071 L154.042608 797.376166 L144.578330 769.994816 L140.994916 777.363942 L127.499296 758.272858 L125.259662 762.878562 Z" fill="#888" fill-opacity="0.18" stroke="#000" stroke-width="1"/>
  <path d="M317.877050 917.889146 L291.273345 916.680612 L293.455607 912.047449 L270.121979 913.511358 L273.613599 906.098297 L246.351899 915.901898 L255.953854 895.515983 L241.127733 888.532743 L246.365163 877.413153 L261.191283 884.396393 L270.793237 864.010477 L280.596839 891.272177 L284.088458 883.859117 L297.820132 902.781124 L300.002394 898.147961 Z" fill="#888" fill-opacity="0.18" stroke="#000" stroke-width="1"/>
  <path d="M753.545800 337.850854 L726.929008 338.724981 L728.742535 333.935452 L705.594661 337.218306 L708.496305 329.555060 L682.084082 341.459066 L690.063601 320.385140 L674.737110 314.581853 L679.089575 303.086985 L694.416067 308.890272 L702.395586 287.816346 L714.299592 314.228569 L717.201235 306.565323 L732.369590 324.356395 L734.183117 319.566866 Z" fill="#888" fill-opacity="0.18" stroke="#000" stroke-width="1"/>
  <path d="M871.452433 973.222046 L859.431177 996.985612 L856.101938 993.094001 L847.859819 1014.972499 L842.533037 1008.745921 L840.283547 1037.629319 L825.634898 1020.506231 L813.181742 1031.159793 L805.191570 1021.819927 L817.644725 1011.166364 L802.996077 994.043276 L831.879474 996.292766 L826.552693 990.066188 L849.443461 985.310779 L846.114223 981.419168 Z" fill="#888" fill-opacity="0.18" stroke="#000" stroke-width="1"/>
  <path d="M90.789270 197.805654 L111.833660 181.485379 L113.174212 186.428191 L129.996242 170.191796 L132.141126 178.100294 L146.550161 152.966839 L152.448592 174.715208 L168.265588 170.425440 L171.482914 182.288188 L155.665918 186.577956 L161.564349 208.326325 L136.430894 193.917290 L138.575778 201.825788 L115.855317 196.313813 L117.195870 201.256625 Z" fill="#888" fill-opacity="0.18" stroke="#000" stroke-width="1"/>
  <path d="M843.317100 418.183679 L821.932394 402.311942 L826.331571 399.689785 L806.164755 387.861821 L813.203439 383.666370 L785.118104 376.558288 L804.474484 365.020799 L796.083583 350.943432 L806.641608 344.650256 L815.032509 358.727623 L834.388888 347.190134 L827.280806 375.275469 L834.319489 371.080019 L835.129926 394.445472 L839.529103 391.823315 Z" fill="#888" fill-opacity="0.18" stroke="#000" stroke-width="1"/>
  <path d="M434.097742 528.852982 L418.376103 550.348278 L415.723213 545.967565 L404.036722 566.216692 L399.792098 559.207552 L392.880809 587.341961 L381.208093 568.066827 L367.189814 576.556075 L360.822878 566.042365 L374.841157 557.553118 L363.168442 538.277984 L391.302851 545.189273 L387.058227 538.180133 L410.417434 537.206141 L407.764544 532.825429 Z" fill="#888" fill-opacity="0.18" stroke="#000" stroke-width="1"/>
  <path d="M831.850016 847.146659 L849.868254 866.756880 L845.054440 868.504924 L862.637007 883.914484 L854.934904 886.711354 L881.182336 898.974436 L860.001554 906.665829 L865.595294 922.070034 L854.042140 926.265340 L848.448400 910.861134 L827.267617 918.552527 L839.530699 892.305095 L831.828596 895.101965 L835.426812 872.001011 L830.612997 873.749055 Z" fill="#888" fill-opacity="0.18" stroke="#000" stroke-width="1"/>
  <path d="M337.297120 838.056040 L314.529607 824.240903 L318.665986 821.221162 L297.486989 811.319076 L304.105195 806.487491 L275.480716 802.020939 L293.680783 788.734079 L284.017613 775.497667 L293.944922 768.250289 L303.608093 781.486701 L321.808160 768.199842 L317.341608 796.824320 L323.959814 791.992735 L326.938743 815.181680 L331.075122 812.161940 Z" fill="#888" fill-opacity="0.18" stroke="#000" stroke-width="1"/>
  <path d="M659.317900 363.525649 L675.668066 384.546824 L670.727165 385.894399 L686.987450 402.693337 L679.082008 404.849459 L704.235916 419.222760 L682.495951 425.152094 L686.808193 440.962977 L674.950030 444.197159 L670.637788 428.386275 L648.897823 434.315608 L663.271125 409.161701 L655.365683 411.317822 L660.845362 388.589551 L655.904461 389.937126 Z" fill="#888" fill-opacity="0.18" stroke="#000" stroke-width="1"/>
  <path d="M47.525657 692.037846 L70.176818 706.042937 L66.015325 709.027974 L87.110755 719.106864 L80.452367 723.882923 L109.038484 728.588747 L90.727916 741.722908 L100.280033 755.039684 L90.292451 762.203772 L80.740334 748.886996 L62.429766 762.021157 L67.135590 733.435040 L60.477202 738.211098 L57.692340 714.998047 L53.530847 717.983084 Z" fill="#888" fill-opacity="0.18" stroke="#000" stroke-width="1"/>
  <path d="M168.179431 580.758627 L141.582003 582.098227 L143.311470 577.277707 L120.224565 580.964984 L122.991711 573.252153 L96.791766 585.616365 L104.401419 564.406078 L88.975756 558.871785 L93.126476 547.302538 L108.552139 552.836831 L116.161792 531.626545 L128.526004 557.826490 L131.293151 550.113658 L146.770403 567.636668 L148.499870 562.816148 Z" fill="#888" fill-opacity="0.18" stroke="#000" stroke-width="1"/>
  <path d="M41.234069 943.079466 L60.641380 961.316077 L55.968660 963.412300 L74.633536 977.491490 L67.157184 980.845447 L94.232957 991.151435 L73.672988 1000.374816 L80.380902 1015.327521 L69.166373 1020.358456 L62.458460 1005.405752 L41.898491 1014.629133 L52.204479 987.553360 L44.728127 990.907317 L46.623219 967.604746 L41.950499 969.700969 Z" fill="#888" fill-opacity="0.18" stroke="#000" stroke-width="1"/>
  <path d="M753.522199 481.182242 L757.247196 507.551582 L752.290730 506.262429 L758.038342 528.924427 L750.107997 526.861782 L764.777247 551.844256 L742.968799 546.171983 L738.843509 562.032672 L726.947992 558.938705 L731.073282 543.078015 L709.264834 537.405742 L734.247308 522.736493 L726.316963 520.673848 L742.377799 503.684123 L737.421334 502.394970 Z" fill="#888" fill-opacity="0.18" stroke="#000" stroke-width="1"/>
  <path d="M405.129563 839.279082 L381.460311 827.073173 L385.377725 823.774335 L363.564062 815.362124 L369.831924 810.083983 L340.966915 807.609681 L358.203536 793.094792 L347.647253 780.559068 L357.049046 772.641856 L367.605329 785.177580 L384.841949 770.662692 L382.367648 799.527700 L388.635509 794.249559 L393.212553 817.176658 L397.129966 813.877819 Z" fill="#888" fill-opacity="0.18" stroke="#000" stroke-width="1"/>
  <path d="M1050.246670 193.176730 L1026.083341 181.980693 L1029.858032 178.519454 L1007.708757 171.035417 L1013.748262 165.497434 L984.804543 164.243628 L1001.413182 149.014176 L990.337217 136.935166 L999.396475 128.628192 L1010.472440 140.707203 L1027.081078 125.477751 L1025.827272 154.421470 L1031.866777 148.883487 L1037.407413 171.596976 L1041.182104 168.135737 Z" fill="#888" fill-opacity="0.18" stroke="#000" stroke-width="1"/>
  <path d="M1058.591070 415.580122 L1047.972430 440.002697 L1044.422464 436.311328 L1037.466913 458.632204 L1031.786967 452.726014 L1031.221355 481.691354 L1015.601504 465.449330 L1003.789123 476.809222 L995.269205 467.949936 L1007.081586 456.590044 L991.461735 440.348020 L1020.427076 440.913633 L1014.747130 435.007442 L1037.322532 428.928590 L1033.772566 425.237221 Z" fill="#888" fill-opacity="0.18" stroke="#000" stroke-width="1"/>
  <path d="M435.176242 312.812946 L426.873461 338.116730 L422.995776 334.771282 L418.144890 357.642008 L411.940594 352.289291 L414.069542 381.181824 L397.007728 366.461852 L386.302294 378.870444 L376.995849 370.841368 L387.701284 358.432776 L370.639470 343.712804 L399.532002 341.583857 L393.327706 336.231140 L415.240406 328.080386 L411.362721 324.734938 Z" fill="#888" fill-opacity="0.18" stroke="#000" stroke-width="1"/>
  <path d="M203.124790 182.493331 L201.326919 155.922946 L206.176534 157.569062 L202.091847 134.549146 L209.851231 137.182933 L197.037237 111.200007 L218.375543 118.442919 L223.643116 102.924152 L235.282192 106.874831 L230.014619 122.393599 L251.352925 129.636512 L225.369999 142.450505 L233.129383 145.084292 L215.875764 160.861295 L220.725379 162.507412 Z" fill="#888" fill-opacity="0.18" stroke="#000" stroke-width="1"/>
  <path d="M431.841487 762.643922 L441.743462 787.365746 L436.622578 787.294956 L447.605362 807.934230 L439.411948 807.820966 L459.612323 828.587663 L437.080434 828.276186 L436.853905 844.663015 L424.563783 844.493119 L424.790312 828.106290 L402.258422 827.794813 L423.025119 807.594437 L414.831705 807.481173 L426.380810 787.153375 L421.259926 787.082585 Z" fill="#888" fill-opacity="0.18" stroke="#000" stroke-width="1"/>
  <path d="M531.268183 440.638500 L555.716293 430.078782 L555.782507 435.199727 L576.120617 423.668792 L576.226559 431.862305 L596.445485 411.113668 L596.736826 433.645827 L613.123851 433.433943 L613.282764 445.724211 L596.895739 445.936096 L597.187081 468.468255 L576.438444 448.249330 L576.544386 456.442842 L555.914934 445.441618 L555.981148 450.562563 Z" fill="#888" fill-opacity="0.18" stroke="#000" stroke-width="1"/>
  <path d="M360.277486 972.107255 L366.158278 998.080972 L361.112589 997.203766 L368.704283 1019.316373 L360.631181 1017.912845 L377.305115 1041.604421 L355.104084 1037.744718 L352.297027 1053.890922 L340.187374 1051.785629 L342.994431 1035.639425 L320.793401 1031.779722 L344.484977 1015.105788 L336.411875 1013.702259 L351.021212 995.449356 L345.975523 994.572150 Z" fill="#888" fill-opacity="0.18" stroke="#000" stroke-width="1"/>
  <path d="M40.733506 266.829806 L61.131571 283.951039 L56.583567 286.305634 L76.007557 299.317544 L68.730749 303.084896 L96.341148 311.858535 L76.329927 322.218753 L83.864631 336.772368 L72.949419 342.423396 L65.414715 327.869781 L45.403494 338.229999 L54.177134 310.619600 L46.900326 314.386952 L47.487557 291.014824 L42.939552 293.369419 Z" fill="#888" fill-opacity="0.18" stroke="#000" stroke-width="1"/>
  <path d="M457.790418 184.565545 L480.939061 171.398996 L481.564140 176.482080 L500.521300 162.798978 L501.521427 170.931912 L519.353445 148.099259 L522.103794 170.464828 L538.369662 168.464573 L539.869853 180.663974 L523.603985 182.664229 L526.354335 205.029797 L503.521682 187.197780 L504.521809 195.330714 L482.814299 186.648248 L483.439379 191.731331 Z" fill="#888" fill-opacity="0.18" stroke="#000" stroke-width="1"/>
  <path d="M352.894358 931.529308 L366.087989 908.396090 L369.218617 912.449191 L378.543640 891.009855 L383.552646 897.494817 L387.242538 868.759898 L401.017303 886.593544 L413.987227 876.575534 L421.500735 886.302977 L408.530811 896.320988 L422.305575 914.154634 L393.570656 910.464742 L398.579662 916.949704 L375.479874 920.555394 L378.610502 924.608495 Z" fill="#888" fill-opacity="0.18" stroke="#000" stroke-width="1"/>
  <path d="M632.637726 102.699786 L624.577779 128.081964 L620.668217 124.773824 L616.036695 147.689980 L609.781396 142.396957 L612.187086 171.267764 L594.985012 156.711949 L584.398965 169.222548 L575.016016 161.283013 L585.602063 148.772414 L568.399989 134.216599 L597.270797 131.810910 L591.015497 126.517886 L612.849093 118.157545 L608.939531 114.849405 Z" fill="#888" fill-opacity="0.18" stroke="#000" stroke-width="1"/>
  <path d="M444.134610 502.122494 L470.711347 503.823874 L468.443592 508.415796 L491.800343 507.384588 L488.171935 514.731663 L515.610645 505.434994 L505.632522 525.639453 L520.326674 532.896269 L514.884062 543.916883 L500.189910 536.660067 L490.211788 556.864525 L480.915118 529.425815 L477.286710 536.772891 L463.908082 517.599641 L461.640327 522.191564 Z" fill="#888" fill-opacity="0.18" stroke="#000" stroke-width="1"/>
  <path d="M545.432450 802.717250 L543.692328 776.143020 L548.538354 777.799672 L544.503706 754.770934 L552.257348 757.421577 L539.499852 731.410864 L560.822367 738.700134 L566.123654 723.192850 L577.754116 727.168816 L572.452829 742.676099 L593.775344 749.965369 L567.764631 762.722864 L575.518273 765.373507 L558.230407 781.112977 L563.076433 782.769629 Z" fill="#888" fill-opacity="0.18" stroke="#000" stroke-width="1"/>
  <path d="M892.521071 900.577753 L904.355091 876.720392 L907.714828 880.585704 L915.784652 858.643071 L921.160232 864.827569 L923.182529 835.927375 L937.965372 852.934745 L950.334368 842.183587 L958.397737 851.460334 L946.028741 862.211493 L960.811583 879.218863 L931.911390 877.196565 L937.286969 883.381063 L914.434302 888.316326 L917.794039 892.181638 Z" fill="#888" fill-opacity="0.18" stroke="#000" stroke-width="1"/>
  <path d="M973.551485 524.479437 L985.498840 548.280244 L980.390165 548.640661 L993.070921 568.282444 L984.897040 568.859112 L1006.773411 587.852143 L984.295240 589.437980 L985.448576 605.785742 L973.187755 606.650744 L972.034419 590.302982 L949.556247 591.888819 L968.549279 570.012448 L960.375398 570.589116 L970.172814 549.361496 L965.064139 549.721914 Z" fill="#888" fill-opacity="0.18" stroke="#000" stroke-width="1"/>
  <path d="M137.923405 969.621796 L154.814434 949.032701 L157.219967 953.553971 L170.012874 933.985049 L173.861726 941.219080 L182.324675 913.511872 L192.909017 933.405459 L207.377080 925.707756 L213.150358 936.558803 L198.682295 944.256506 L209.266637 964.150092 L181.559429 955.687143 L185.408281 962.921174 L162.031031 962.596510 L164.436563 967.117780 Z" fill="#888" fill-opacity="0.18" stroke="#000" stroke-width="1"/>
  <path d="M117.687733 494.170319 L91.071783 493.270949 L93.200070 488.612746 L69.885025 490.347646 L73.290284 482.894520 L46.144322 493.014187 L55.508784 472.518091 L40.602533 465.707573 L45.710422 454.527885 L60.616673 461.338403 L69.981135 440.842308 L80.100802 467.988269 L83.506061 460.535143 L97.456643 479.296339 L99.584930 474.638135 Z" fill="#888" fill-opacity="0.18" stroke="#000" stroke-width="1"/>
  <path d="M433.806688 672.150866 L432.899014 698.766535 L428.241475 696.636795 L429.969100 719.952380 L422.517037 716.544796 L432.628234 743.693913 L412.135061 734.323057 L405.319892 749.227182 L394.141798 744.115806 L400.956967 729.211680 L380.463794 719.840823 L407.612912 709.729627 L400.160849 706.322043 L418.926396 692.377314 L414.268857 690.247574 Z" fill="#888" fill-opacity="0.18" stroke="#000" stroke-width="1"/>
  <path d="M757.789126 264.611969 L780.945119 277.765588 L776.897435 280.903218 L798.352860 290.191165 L791.876567 295.211373 L820.617821 298.851585 L802.808015 312.657159 L812.848432 325.609746 L803.133992 333.140059 L793.093575 320.187472 L775.283768 333.993045 L778.923980 305.251791 L772.447687 310.271999 L768.802069 287.178479 L764.754385 290.316109 Z" fill="#888" fill-opacity="0.18" stroke="#000" stroke-width="1"/>
  <path d="M422.929494 189.409175 L421.029417 215.972447 L416.454581 213.670416 L417.311096 237.034225 L409.991359 233.350976 L419.082578 260.858441 L398.953302 250.729505 L391.586803 265.368978 L380.607198 259.844104 L387.973697 245.204631 L367.844421 235.075695 L395.351886 225.984477 L388.032149 222.301228 L407.304911 209.066354 L402.730075 206.764323 Z" fill="#888" fill-opacity="0.18" stroke="#000" stroke-width="1"/>
  <path d="M638.678128 822.277259 L620.028428 803.266568 L624.782523 801.362086 L606.705589 786.535567 L614.312140 783.488397 L587.677836 772.089944 L608.595853 763.710226 L602.501512 748.497123 L613.911339 743.926368 L620.005680 759.139471 L640.923696 750.759752 L629.525243 777.394056 L637.131794 774.346886 L634.290712 797.553124 L639.044807 795.648642 Z" fill="#888" fill-opacity="0.18" stroke="#000" stroke-width="1"/>
  <path d="M212.772677 362.242625 L199.597530 385.386375 L196.463665 381.335776 L187.155771 402.782554 L182.141587 396.301595 L178.474649 425.039452 L164.685644 407.216815 L151.723726 417.245183 L144.202450 407.523745 L157.164368 397.495377 L143.375362 379.672740 L172.113219 383.339677 L167.099035 376.858718 L190.195936 373.234577 L187.062071 369.183978 Z" fill="#888" fill-opacity="0.18" stroke="#000" stroke-width="1"/>
  <path d="M305.996927 51.863387 L287.266431 70.794478 L285.291274 66.069309 L270.735944 84.365308 L267.575693 76.805038 L256.575645 103.606340 L247.884955 82.815598 L232.764415 89.136100 L228.024038 77.795695 L243.144578 71.475193 L234.453888 50.684450 L261.255191 61.684497 L258.094940 54.124227 L281.340960 56.618971 L279.365803 51.893802 Z" fill="#888" fill-opacity="0.18" stroke="#000" stroke-width="1"/>
  <path d="M509.582034 300.417018 L490.526358 281.813284 L495.238239 279.806635 L476.845506 265.373737 L484.384516 262.163099 L457.510397 251.342167 L478.242675 242.512914 L471.821399 227.434893 L483.129915 222.618937 L489.551190 237.696957 L510.283468 228.867704 L499.462537 255.741824 L507.001547 252.531186 L504.662002 275.793338 L509.373884 273.786690 Z" fill="#888" fill-opacity="0.18" stroke="#000" stroke-width="1"/>
  <path d="M430.924855 524.576658 L413.108608 504.782744 L417.940090 503.084144 L400.516427 487.495136 L408.246799 484.777375 L382.126468 472.245848 L403.384990 464.772006 L397.949468 449.311262 L409.545026 445.234621 L414.980547 460.695364 L436.239069 453.221522 L423.707542 479.341853 L431.437914 476.624093 L427.603055 499.686943 L432.434537 497.988342 Z" fill="#888" fill-opacity="0.18" stroke="#000" stroke-width="1"/>
  <path d="M727.175151 736.118848 L751.184110 724.595498 L751.453864 729.709762 L771.317461 717.379363 L771.749068 725.562186 L791.127106 704.026111 L792.314026 726.528873 L808.679671 725.665659 L809.327082 737.939893 L792.961437 738.803107 L794.148357 761.305869 L772.612282 741.927831 L773.043889 750.110654 L751.993373 739.938291 L752.263128 745.052555 Z" fill="#888" fill-opacity="0.18" stroke="#000" stroke-width="1"/>
  <path d="M695.414723 717.751388 L671.199728 728.835236 L671.023231 723.716905 L650.938200 735.683223 L650.655805 727.493893 L630.888469 748.673206 L630.111882 726.152549 L613.733222 726.717340 L613.309629 714.433345 L629.688288 713.868554 L628.911701 691.347897 L650.091014 711.115233 L649.808618 702.925903 L670.670237 713.480243 L670.493739 708.361912 Z" fill="#888" fill-opacity="0.18" stroke="#000" stroke-width="1"/>
  <path d="M722.076511 459.670223 L698.479659 472.015516 L698.033516 466.913613 L678.607416 479.922373 L677.893587 471.759327 L659.270544 493.951513 L657.307515 471.503137 L640.981423 472.930794 L639.910680 460.686225 L656.236772 459.258568 L654.273743 436.810192 L676.465929 455.433235 L675.752101 447.270189 L697.141230 456.709805 L696.695087 451.607902 Z" fill="#888" fill-opacity="0.18" stroke="#000" stroke-width="1"/>
  <path d="M761.190714 44.565534 L767.087066 70.535724 L762.040852 69.661541 L769.645793 91.769596 L761.571851 90.370904 L778.259976 114.052487 L756.056637 110.206085 L753.259253 126.353968 L741.148341 124.255931 L743.945724 108.108048 L721.742385 104.261646 L745.423968 87.573521 L737.350027 86.174829 L751.948426 67.913177 L746.902212 67.038994 Z" fill="#888" fill-opacity="0.18" stroke="#000" stroke-width="1"/>
  <path d="M656.050857 846.566670 L682.664175 847.540823 L680.522808 852.193028 L703.842636 850.523645 L700.416449 857.967173 L727.590737 847.923822 L718.168722 868.393524 L733.055778 875.245898 L727.916497 886.411191 L713.029441 879.558816 L703.607425 900.028518 L693.564074 872.854229 L690.137886 880.297757 L676.240074 861.497438 L674.098707 866.149643 Z" fill="#888" fill-opacity="0.18" stroke="#000" stroke-width="1"/>
  <path d="M800.695460 644.320036 L827.207876 646.831912 L824.801003 651.352469 L848.178348 651.034736 L844.327352 658.267626 L872.037067 649.812891 L861.446828 669.703339 L875.912608 677.405331 L870.136113 688.254666 L855.670333 680.552674 L845.080094 700.443121 L836.625359 672.733406 L832.774363 679.966296 L819.987258 660.393581 L817.580385 664.914137 Z" fill="#888" fill-opacity="0.18" stroke="#000" stroke-width="1"/>
  <path d="M702.819704 677.230111 L695.055909 651.755787 L700.152223 652.261794 L690.964360 630.763320 L699.118463 631.572932 L680.757234 609.163645 L703.181018 611.390076 L704.800240 595.081870 L717.031395 596.296287 L715.412172 612.604493 L737.835956 614.830925 L715.426670 633.192154 L723.580773 634.001766 L710.344852 653.273808 L715.441167 653.779815 Z" fill="#888" fill-opacity="0.18" stroke="#000" stroke-width="1"/>
  <path d="M359.468186 86.595579 L344.116302 108.356493 L341.388913 104.021771 L330.050284 124.467717 L325.686460 117.532163 L319.257133 145.780608 L307.256619 126.707833 L293.385510 135.435480 L286.839775 125.032149 L300.710883 116.304502 L288.710369 97.231727 L316.958813 103.661054 L312.594990 96.725500 L335.934133 95.352328 L333.206743 91.017607 Z" fill="#888" fill-opacity="0.18" stroke="#000" stroke-width="1"/>
  <path d="M969.809580 236.837305 L943.449593 240.627921 L944.726406 235.668263 L922.078783 241.472261 L924.121684 233.536807 L899.175798 248.268191 L904.793774 226.445693 L888.922867 222.359892 L891.987217 210.456711 L907.858125 214.542512 L913.476101 192.720014 L928.207484 217.665899 L930.250385 209.730445 L947.280031 225.748945 L948.556844 220.789287 Z" fill="#888" fill-opacity="0.18" stroke="#000" stroke-width="1"/>
  <path d="M556.204286 980.444940 L580.956263 970.618583 L580.869819 975.739227 L601.542571 964.819587 L601.404261 973.012617 L622.232611 952.875817 L621.852258 975.406650 L638.238318 975.683270 L638.030853 987.972815 L621.644793 987.696195 L621.264440 1010.227027 L601.127640 989.398676 L600.989330 997.591706 L580.696932 985.980515 L580.610488 991.101158 Z" fill="#888" fill-opacity="0.18" stroke="#000" stroke-width="1"/>
  <path d="M557.606175 940.058783 L575.186166 920.054744 L577.436884 924.655041 L590.886494 905.531516 L594.487642 912.891992 L603.885961 885.487932 L613.789118 905.729240 L628.510070 898.526944 L633.911792 909.567657 L619.190841 916.769954 L629.093998 937.011262 L601.689939 927.612943 L605.291087 934.973419 L581.938319 933.855635 L584.189037 938.455933 Z" fill="#888" fill-opacity="0.18" stroke="#000" stroke-width="1"/>
  <path d="M977.754216 962.364719 L1004.379870 962.905315 L1002.314553 967.591777 L1025.604100 965.542827 L1022.299593 973.041167 L1049.306711 962.556585 L1040.219316 983.177020 L1055.215996 989.786034 L1050.259236 1001.033544 L1035.262556 994.424530 L1026.175161 1015.044965 L1015.690579 988.037847 L1012.386072 995.536187 L998.183919 976.964702 L996.118602 981.651165 Z" fill="#888" fill-opacity="0.18" stroke="#000" stroke-width="1"/>
  <path d="M104.761182 71.004783 L103.892511 97.621753 L99.231855 95.498840 L100.993645 118.811869 L93.536597 115.415208 L103.687566 142.549480 L83.180684 133.208663 L76.387363 148.122760 L65.201790 143.027769 L71.995112 128.113672 L51.488229 118.772856 L78.622501 108.621887 L71.165453 105.225226 L89.910545 91.253014 L85.249890 89.130101 Z" fill="#888" fill-opacity="0.18" stroke="#000" stroke-width="1"/>
  <path d="M94.100509 873.594690 L120.692683 872.154557 L118.981451 876.981580 L142.054252 873.207057 L139.316281 880.930294 L165.469301 868.467130 L157.939880 889.706031 L173.386353 895.181973 L169.279397 906.766828 L153.832924 901.290886 L146.303503 922.529786 L133.840339 896.376767 L131.102368 904.100004 L115.558987 886.635626 L113.847755 891.462649 Z" fill="#888" fill-opacity="0.18" stroke="#000" stroke-width="1"/>
  <path d="M518.692910 429.633749 L492.072184 430.378466 L493.908974 425.597811 L470.745414 428.768091 L473.684278 421.119043 L447.214495 432.894503 L455.296373 411.859619 L439.998276 405.981890 L444.406572 394.508317 L459.704670 400.386046 L467.786547 379.351163 L479.562007 405.820946 L482.500872 398.171897 L497.582555 416.036500 L499.419345 411.255845 Z" fill="#888" fill-opacity="0.18" stroke="#000" stroke-width="1"/>
  <path d="M788.204712 132.428725 L769.878801 151.751734 L767.804148 147.069397 L753.639037 165.669150 L750.319592 158.177411 L739.888856 185.205371 L730.760383 164.603089 L715.776905 171.241978 L710.797737 160.004370 L725.781215 153.365480 L716.652742 132.763197 L743.680702 143.193933 L740.361257 135.702194 L763.654842 137.704723 L761.580189 133.022386 Z" fill="#888" fill-opacity="0.18" stroke="#000" stroke-width="1"/>
  <path d="M974.280858 762.253259 L979.721780 736.183851 L983.947051 739.077906 L986.227676 715.809903 L992.988109 720.440391 L987.663247 691.963089 L1006.254437 704.696931 L1015.515413 691.176066 L1025.656062 698.121797 L1016.395086 711.642663 L1034.986276 724.376505 L1006.508974 729.701367 L1013.269407 734.331855 L992.397592 744.866016 L996.622862 747.760071 Z" fill="#888" fill-opacity="0.18" stroke="#000" stroke-width="1"/>
  <path d="M369.951718 47.282681 L395.636933 54.317409 L392.488371 58.356594 L415.571951 62.064635 L410.534251 68.527332 L439.285242 64.964839 L425.431568 82.737255 L438.356962 92.812655 L430.800413 102.506700 L417.875019 92.431301 L404.021345 110.203717 L400.458852 81.452726 L395.421152 87.915423 L386.191247 66.434966 L383.042684 70.474151 Z" fill="#888" fill-opacity="0.18" stroke="#000" stroke-width="1"/>
  <path d="M270.191406 333.271106 L284.869201 355.492268 L279.838981 356.454216 L294.753261 374.458812 L286.704908 375.997930 L310.673585 392.271018 L288.540614 396.503592 L291.618850 412.600298 L279.546320 414.908974 L276.468085 398.812268 L254.335114 403.044843 L270.608202 379.076165 L262.559849 380.615283 L269.778539 358.378114 L264.748319 359.340062 Z" fill="#888" fill-opacity="0.18" stroke="#000" stroke-width="1"/>
  <path d="M447.299118 989.503686 L421.194021 984.236660 L424.059846 979.992192 L400.777158 977.866720 L405.362479 971.075571 L376.921304 976.590142 L389.530936 957.914482 L375.948639 948.743841 L382.826620 938.557117 L396.408918 947.727759 L409.018550 929.052099 L414.533120 957.493273 L419.118441 950.702124 L429.791497 971.503256 L432.657322 967.258788 Z" fill="#888" fill-opacity="0.18" stroke="#000" stroke-width="1"/>
  <path d="M200.374232 1004.112669 L179.568323 1020.735901 L178.156352 1015.813015 L161.571145 1032.291247 L159.311992 1024.414630 L145.268333 1049.754056 L139.055661 1028.093360 L123.302427 1032.611666 L119.913697 1020.796741 L135.666931 1016.278434 L129.454259 994.617737 L154.793685 1008.661396 L152.534532 1000.784779 L175.332410 1005.967244 L173.920439 1001.044358 Z" fill="#888" fill-opacity="0.18" stroke="#000" stroke-width="1"/>
  <path d="M247.701669 672.545047 L222.503363 663.927446 L225.896895 660.091770 L203.088422 654.956129 L208.518073 648.819048 L179.601244 650.587624 L194.532784 633.710651 L182.258622 622.851350 L190.403098 613.645728 L202.677260 624.505030 L217.608800 607.628057 L219.377375 636.544887 L224.807026 630.407806 L232.683958 652.420419 L236.077490 648.584743 Z" fill="#888" fill-opacity="0.18" stroke="#000" stroke-width="1"/>
  <path d="M518.167243 1009.587770 L544.730829 1007.692099 L543.102577 1012.547741 L566.107300 1008.378340 L563.502096 1016.147367 L589.437674 1003.237811 L582.273362 1024.602635 L597.811416 1029.813044 L593.903609 1041.466585 L578.365555 1036.256176 L571.201243 1057.621000 L558.291687 1031.685421 L555.686482 1039.454448 L539.846071 1022.259025 L538.217818 1027.114667 Z" fill="#888" fill-opacity="0.18" stroke="#000" stroke-width="1"/>
  <path d="M897.204151 775.138723 L913.805469 754.315325 L916.274023 758.802497 L928.791893 739.056507 L932.741578 746.235981 L940.816052 718.413082 L951.677686 738.156638 L966.036635 730.257268 L971.961163 741.026480 L957.602213 748.925850 L968.463847 768.669405 L940.640948 760.594931 L944.590633 767.774406 L921.211129 767.776840 L923.679682 772.264012 Z" fill="#888" fill-opacity="0.18" stroke="#000" stroke-width="1"/>
  <path d="M583.656457 907.455443 L565.237675 926.689947 L563.185602 921.997670 L548.931055 940.528971 L545.647738 933.021328 L535.086924 959.998727 L526.057802 939.352709 L511.042517 945.919343 L506.117541 934.657879 L521.132827 928.091245 L512.103706 907.445227 L539.081105 918.006042 L535.797788 910.498400 L559.081456 912.613116 L557.029383 907.920840 Z" fill="#888" fill-opacity="0.18" stroke="#000" stroke-width="1"/>
  <path d="M291.271910 659.735802 L308.140744 639.128519 L310.551147 643.647194 L323.322961 624.064498 L327.179605 631.294378 L335.612695 603.578068 L346.218466 623.460238 L360.678226 615.746949 L366.463193 626.591769 L352.003433 634.305058 L362.609205 654.187228 L334.892894 645.754138 L338.749538 652.984018 L315.371952 652.684544 L317.782355 657.203219 Z" fill="#888" fill-opacity="0.18" stroke="#000" stroke-width="1"/>
  <path d="M624.456685 855.532285 L600.997375 842.927584 L604.970052 839.695510 L583.301866 830.915366 L589.658149 825.744047 L560.839145 822.781637 L578.318923 808.560510 L567.976285 795.847945 L577.510710 788.090967 L587.853347 800.803532 L605.333125 786.582406 L602.370715 815.401410 L608.726997 810.230091 L612.915405 833.231362 L616.888082 829.999288 Z" fill="#888" fill-opacity="0.18" stroke="#000" stroke-width="1"/>
  <path d="M756.360087 851.897735 L771.495753 829.985883 L774.265929 834.293386 L785.401557 813.736174 L789.833839 820.628180 L795.983150 792.317460 L808.171925 811.270477 L821.955937 802.405914 L828.604359 812.743923 L814.820347 821.608486 L827.009122 840.561503 L798.698402 834.412192 L803.130684 841.304198 L779.806281 842.908394 L782.576457 847.215898 Z" fill="#888" fill-opacity="0.18" stroke="#000" stroke-width="1"/>
  <path d="M111.228159 979.373233 L101.785017 954.472535 L106.903717 954.638005 L96.304459 933.799172 L104.494378 934.063925 L84.681461 912.927246 L107.203739 913.655315 L107.733243 897.275477 L120.018122 897.672605 L119.488617 914.052444 L142.010895 914.780513 L120.874216 934.593430 L129.064135 934.858182 L117.141116 954.968945 L122.259815 955.134416 Z" fill="#888" fill-opacity="0.18" stroke="#000" stroke-width="1"/>
  <path d="M740.162329 712.556128 L731.924037 687.231273 L737.028915 687.641995 L727.441071 666.318898 L735.608875 666.976053 L716.832252 644.913657 L739.293712 646.720832 L740.608021 630.385225 L752.859726 631.370956 L751.545417 647.706564 L774.006878 649.513739 L751.944482 668.290362 L760.112286 668.947516 L747.238669 688.463438 L752.343547 688.874160 Z" fill="#888" fill-opacity="0.18" stroke="#000" stroke-width="1"/>
  <path d="M908.756747 758.929859 L903.563855 732.809914 L908.584621 733.820047 L901.579469 711.514688 L909.612695 713.130902 L893.570163 689.007302 L915.661535 693.451889 L918.893963 677.385437 L930.943802 679.809757 L927.711375 695.876210 L949.802747 700.320797 L925.679147 716.363329 L933.712374 717.979542 L918.626154 735.840314 L923.646920 736.850448 Z" fill="#888" fill-opacity="0.18" stroke="#000" stroke-width="1"/>
  <path d="M458.513808 730.532470 L484.255744 723.708218 L483.563160 728.782545 L505.384151 720.389360 L504.276018 728.508283 L527.343659 710.981310 L524.296292 733.308348 L540.534138 735.524615 L538.871937 747.702999 L522.634091 745.486732 L519.586724 767.813770 L502.059750 744.746129 L500.951617 752.865052 L482.177993 738.931198 L481.485410 744.005525 Z" fill="#888" fill-opacity="0.18" stroke="#000" stroke-width="1"/>
  <path d="M593.089950 677.275768 L572.067979 693.624909 L570.720644 688.683942 L553.920914 704.943409 L551.765178 697.037862 L537.390650 722.191069 L531.462377 700.450815 L515.651283 704.762287 L512.417679 692.903966 L528.228773 688.592495 L522.300499 666.852240 L547.453706 681.226768 L545.297970 673.321221 L568.025975 678.802009 L566.678640 673.861042 Z" fill="#888" fill-opacity="0.18" stroke="#000" stroke-width="1"/>
  <path d="M235.978942 692.096973 L240.427853 718.353875 L235.437803 717.201544 L241.806588 739.696872 L233.822508 737.853142 L249.173383 762.422666 L227.217163 757.352409 L223.529704 773.320568 L211.553584 770.554974 L215.241044 754.586814 L193.284824 749.516557 L217.854348 734.165682 L209.870269 732.321952 L225.457703 714.896881 L220.467653 713.744550 Z" fill="#888" fill-opacity="0.18" stroke="#000" stroke-width="1"/>
  <path d="M979.477448 485.308292 L1004.882464 493.295959 L1001.585466 497.214922 L1024.514712 501.781198 L1019.239514 508.051538 L1048.103358 505.563681 L1033.596565 522.807116 L1046.137245 533.357511 L1038.224449 542.763021 L1025.683769 532.212626 L1011.176976 549.456061 L1008.689120 520.592218 L1003.413922 526.862557 L994.991469 505.052847 L991.694471 508.971809 Z" fill="#888" fill-opacity="0.18" stroke="#000" stroke-width="1"/>
  <path d="M1039.211930 865.333065 L1012.660177 867.387840 L1014.259311 862.522531 L991.279979 866.829675 L993.838593 859.045180 L967.980820 872.109882 L975.017009 850.702520 L959.448020 845.585291 L963.285941 833.908549 L978.854931 839.025778 L985.891121 817.618417 L998.955822 843.476191 L1001.514437 835.691696 L1017.457579 852.791912 L1019.056713 847.926603 Z" fill="#888" fill-opacity="0.18" stroke="#000" stroke-width="1"/>
  <path d="M992.464180 263.171630 L980.238916 239.512369 L985.343021 239.092150 L972.433112 219.600216 L980.599679 218.927865 L958.502382 200.192327 L980.960441 198.343360 L979.615738 182.010226 L991.865588 181.001699 L993.210291 197.334832 L1015.668350 195.485865 L996.932812 217.583161 L1005.099379 216.910809 L995.551229 238.251710 L1000.655333 237.831490 Z" fill="#888" fill-opacity="0.18" stroke="#000" stroke-width="1"/>
  <path d="M504.591654 708.215282 L481.176000 695.529667 L485.159812 692.311327 L463.522067 683.456429 L469.896165 678.307085 L441.087560 675.245199 L458.616331 661.084504 L448.317643 648.336307 L457.878791 640.612291 L468.177478 653.360488 L485.706248 639.199793 L482.644362 668.008398 L489.018460 662.859054 L493.127435 685.874647 L497.111246 682.656307 Z" fill="#888" fill-opacity="0.18" stroke="#000" stroke-width="1"/>
  <path d="M542.462552 672.545204 L525.612522 651.922542 L530.519654 650.456757 L513.860825 634.052958 L521.712236 631.707702 L496.220571 617.942315 L517.811949 611.492862 L513.121438 595.790041 L524.898554 592.272158 L529.589065 607.974979 L551.180444 601.525526 L537.415057 627.017191 L545.266467 624.671935 L540.333917 647.525188 L545.241049 646.059403 Z" fill="#888" fill-opacity="0.18" stroke="#000" stroke-width="1"/>
  <path d="M705.546356 1047.980254 L706.352618 1021.361321 L711.018238 1023.473300 L709.201792 1000.164466 L716.666784 1003.543634 L706.452223 976.433237 L726.980950 985.725947 L733.739284 970.795964 L744.936771 975.864714 L738.178437 990.794697 L758.707164 1000.087407 L731.596767 1010.301968 L739.061758 1013.681135 L720.349477 1027.697259 L725.015097 1029.809239 Z" fill="#888" fill-opacity="0.18" stroke="#000" stroke-width="1"/>
  <path d="M971.670463 270.587726 L951.829822 288.351922 L950.143917 283.515995 L934.509199 300.898652 L931.811752 293.161169 L919.211662 319.248496 L911.793682 297.970416 L896.318715 303.365311 L892.272544 291.759086 L907.747511 286.364192 L900.329531 265.086112 L926.416857 277.686202 L923.719410 269.948719 L946.772108 273.844141 L945.086204 269.008213 Z" fill="#888" fill-opacity="0.18" stroke="#000" stroke-width="1"/>
  <path d="M892.867194 92.269332 L868.161647 102.211847 L868.224037 97.090854 L847.602806 108.107479 L847.702630 99.913890 L826.969097 120.148304 L827.243612 97.615933 L810.856434 97.416285 L811.006170 85.125902 L827.393348 85.325549 L827.667864 62.793179 L847.902277 83.526712 L848.002101 75.333122 L868.348817 86.848867 L868.411206 81.727874 Z" fill="#888" fill-opacity="0.18" stroke="#000" stroke-width="1"/>
  <path d="M717.312579 472.786551 L713.777268 499.181991 L709.353174 496.602096 L708.766599 519.974240 L701.688049 515.846408 L709.064842 543.862364 L689.598830 532.510824 L681.343164 546.667923 L670.725340 540.476174 L678.981005 526.319075 L659.514993 514.967535 L687.530949 507.590742 L680.452399 503.462910 L700.504987 491.442305 L696.080893 488.862410 Z" fill="#888" fill-opacity="0.18" stroke="#000" stroke-width="1"/>
  <path d="M755.668015 640.567723 L773.564360 620.846198 L775.741528 625.481757 L789.493992 606.574855 L792.977461 613.991749 L802.811023 586.740842 L812.390563 607.137299 L827.224350 600.170361 L832.449554 611.295702 L817.615766 618.262640 L827.195307 638.659098 L799.944399 628.825536 L803.427869 636.242430 L780.095864 634.752874 L782.273032 639.388432 Z" fill="#888" fill-opacity="0.18" stroke="#000" stroke-width="1"/>
  <path d="M891.743258 479.477362 L887.011448 505.684759 L882.709234 502.906376 L881.060573 526.227678 L874.177030 521.782264 L880.272356 550.104656 L861.342611 537.879770 L852.451785 551.646857 L842.126469 544.978738 L851.017296 531.211650 L832.087551 518.986764 L860.409942 512.891438 L853.526399 508.446025 L874.104804 497.349609 L869.802589 494.571226 Z" fill="#888" fill-opacity="0.18" stroke="#000" stroke-width="1"/>
  <path d="M373.997902 72.073023 L378.211852 98.368656 L373.232306 97.171751 L379.399689 119.723128 L371.432414 117.808080 L386.562981 142.513885 L364.652976 137.247504 L360.822881 153.182053 L348.871969 150.309481 L352.702065 134.374932 L330.792060 129.108551 L355.497865 113.977984 L347.530591 112.062937 L363.273213 94.777941 L358.293666 93.581036 Z" fill="#888" fill-opacity="0.18" stroke="#000" stroke-width="1"/>
  <path d="M49.293106 389.754610 L74.884253 397.124198 L71.683206 401.121918 L94.716388 405.131125 L89.594712 411.527476 L118.389779 408.340788 L104.305171 425.930753 L117.097873 436.174105 L109.415359 445.768631 L96.622657 435.525280 L82.538048 453.115245 L79.351360 424.320178 L74.229685 430.716529 L65.281111 409.117356 L62.080064 413.115076 Z" fill="#888" fill-opacity="0.18" stroke="#000" stroke-width="1"/>
  <path d="M152.334293 859.045296 L178.565268 854.445985 L177.441553 859.442556 L199.900013 852.944959 L198.102069 860.939474 L222.583216 845.448047 L217.638870 867.432963 L233.627899 871.028851 L230.930983 883.020623 L214.941953 879.424735 L209.997607 901.409651 L194.506180 876.928503 L192.708236 884.923018 L175.194123 869.435700 L174.070407 874.432272 Z" fill="#888" fill-opacity="0.18" stroke="#000" stroke-width="1"/>
  <path d="M261.050373 436.206044 L242.936540 455.728000 L240.810885 451.068595 L226.849706 469.821906 L223.448658 462.366859 L213.313659 489.507099 L203.960776 469.005718 L189.050680 475.807814 L183.949108 464.625242 L198.859204 457.823146 L189.506320 437.321764 L216.646561 447.456763 L213.245513 440.001715 L236.559574 441.749785 L234.433919 437.090380 Z" fill="#888" fill-opacity="0.18" stroke="#000" stroke-width="1"/>
  <path d="M894.970314 847.025942 L908.046201 823.825966 L911.197388 827.863104 L920.413327 806.376651 L925.455227 812.836071 L928.999029 784.082770 L942.864254 801.846176 L955.783095 791.762376 L963.345945 801.451507 L950.427104 811.535307 L964.292329 829.298714 L935.539027 825.754912 L940.580927 832.214333 L917.499763 835.937380 L920.650951 839.974518 Z" fill="#888" fill-opacity="0.18" stroke="#000" stroke-width="1"/>
  <path d="M131.715322 150.543332 L124.857534 124.810309 L129.932759 125.496281 L121.511150 103.686244 L129.631510 104.783798 L112.074495 81.739013 L134.405485 84.757287 L136.600593 68.516567 L148.781133 70.162898 L146.586025 86.403618 L168.917014 89.421892 L145.872229 106.978906 L153.992589 108.076461 L140.083209 126.868223 L145.158434 127.554195 Z" fill="#888" fill-opacity="0.18" stroke="#000" stroke-width="1"/>
  <path d="M887.608114 166.086606 L888.789882 192.691514 L883.979709 190.933476 L887.529941 214.041853 L879.833663 211.228993 L892.042208 237.501836 L870.877445 229.766472 L865.251725 245.159027 L853.707309 240.939738 L859.333028 225.547182 L838.168265 217.811818 L864.441108 205.603273 L856.744830 202.790414 L874.359362 187.417402 L869.549188 185.659364 Z" fill="#888" fill-opacity="0.18" stroke="#000" stroke-width="1"/>
  <path d="M433.755945 232.038842 L447.491572 254.854412 L442.425522 255.605147 L456.573771 274.217730 L448.468091 275.418906 L471.735230 292.680167 L449.444610 295.983400 L451.846961 312.194759 L439.688441 313.996523 L437.286090 297.785163 L414.995470 301.088396 L432.256731 277.821257 L424.151051 279.022433 L432.293422 257.106616 L427.227372 257.857351 Z" fill="#888" fill-opacity="0.18" stroke="#000" stroke-width="1"/>
  <path d="M554.406932 624.261534 L550.811365 597.874235 L555.761445 599.187692 L550.125096 576.497765 L558.045225 578.599296 L543.498731 553.545147 L565.279085 559.324358 L569.482147 543.484100 L581.362340 546.636397 L577.159278 562.476654 L598.939631 568.255865 L573.885482 582.802358 L581.805610 584.903890 L565.661606 601.814606 L570.611686 603.128063 Z" fill="#888" fill-opacity="0.18" stroke="#000" stroke-width="1"/>
  <path d="M85.389644 638.287156 L105.860785 655.320949 L101.322897 657.694983 L120.802388 670.623658 L113.541768 674.422114 L141.189456 683.077527 L121.222750 693.523278 L128.819660 708.044519 L117.928730 713.742202 L110.331820 699.220961 L90.365114 709.666712 L99.020527 682.019024 L91.759907 685.817479 L92.247122 662.443052 L87.709234 664.817086 Z" fill="#888" fill-opacity="0.18" stroke="#000" stroke-width="1"/>
  <path d="M745.618691 802.966045 L724.257643 818.869608 L723.014484 813.901407 L705.876629 829.804083 L703.887575 821.854962 L688.987406 846.700400 L683.517508 824.840315 L667.619265 828.818423 L664.635684 816.894740 L680.533927 812.916633 L675.064030 791.056548 L699.909468 805.956718 L697.920414 798.007597 L720.528167 803.965005 L719.285009 798.996804 Z" fill="#888" fill-opacity="0.18" stroke="#000" stroke-width="1"/>
  <path d="M583.568641 522.043769 L557.261741 517.900741 L559.942966 513.537314 L536.590562 512.411952 L540.880523 505.430469 L512.701913 512.159276 L524.499305 492.960197 L510.536338 484.380276 L516.971279 473.908051 L530.934246 482.487972 L542.731637 463.288893 L549.460444 491.467503 L553.750404 484.486019 L565.305417 504.810460 L567.986642 500.447033 Z" fill="#888" fill-opacity="0.18" stroke="#000" stroke-width="1"/>
  <path d="M633.423741 955.147870 L656.749411 942.297548 L657.305262 947.388668 L676.446867 933.964802 L677.336229 942.110593 L695.477302 919.522713 L697.923046 941.923638 L714.214627 940.144916 L715.548669 952.363602 L699.257087 954.142324 L701.702831 976.543248 L679.114951 958.402175 L680.004312 966.547965 L658.416964 957.570906 L658.972814 962.662025 Z" fill="#888" fill-opacity="0.18" stroke="#000" stroke-width="1"/>
  <path d="M157.536967 517.862234 L138.135253 499.619669 L142.808616 497.524880 L124.148060 483.439964 L131.625441 480.088301 L104.552832 469.774005 L125.115630 460.556933 L118.412305 445.602171 L129.628376 440.574677 L136.331702 455.529439 L156.894499 446.312367 L146.580203 473.384976 L154.057585 470.033313 L152.155342 493.335302 L156.828705 491.240513 Z" fill="#888" fill-opacity="0.18" stroke="#000" stroke-width="1"/>
  <path d="M240.051912 859.315940 L258.229173 839.853029 L260.339655 844.519326 L274.361782 825.811542 L277.738554 833.277617 L287.961811 806.170499 L297.247935 826.702206 L312.180085 819.948661 L317.245244 831.147774 L302.313093 837.901318 L311.599217 858.433025 L284.492098 848.209768 L287.868870 855.675843 L264.560621 853.851920 L266.671103 858.518217 Z" fill="#888" fill-opacity="0.18" stroke="#000" stroke-width="1"/>
  <path d="M816.295756 510.177462 L801.102727 488.305343 L806.109097 487.226116 L790.778176 469.574939 L798.788367 467.848175 L774.445981 452.139607 L796.474006 447.391007 L793.020479 431.370626 L805.035765 428.780480 L808.489292 444.800862 L830.517317 440.052263 L814.808748 464.394649 L822.818939 462.667885 L816.121835 485.067662 L821.128205 483.988435 Z" fill="#888" fill-opacity="0.18" stroke="#000" stroke-width="1"/>
  <path d="M934.177044 608.208614 L960.796104 609.010680 L958.684860 613.676632 L981.993408 611.856512 L978.615417 619.322036 L1005.724203 609.103202 L996.434730 629.633393 L1011.365779 636.389374 L1006.298793 647.587660 L991.367745 640.831679 L982.078271 661.361871 L971.859437 634.253085 L968.481446 641.718609 L954.462373 623.008537 L952.351129 627.674490 Z" fill="#888" fill-opacity="0.18" stroke="#000" stroke-width="1"/>
  <path d="M803.767135 195.383233 L808.694059 221.554651 L803.683828 220.493497 L810.461722 242.868960 L802.445352 241.171114 L818.241661 265.456655 L796.196644 260.787578 L792.800952 276.820318 L780.776397 274.273549 L784.172089 258.240809 L762.127071 253.571732 L786.412612 237.775422 L778.396242 236.077576 L793.663366 218.371189 L788.653134 217.310035 Z" fill="#888" fill-opacity="0.18" stroke="#000" stroke-width="1"/>
  <path d="M132.658584 584.609882 L121.599393 608.836148 L118.116860 605.081095 L110.758219 627.272345 L105.186166 621.264260 L104.096084 650.214607 L88.772938 633.692371 L76.756767 644.836477 L68.398687 635.824349 L80.414859 624.680243 L65.091712 608.158007 L94.042059 609.248088 L88.470006 603.240003 L111.151794 597.570988 L107.669260 593.815934 Z" fill="#888" fill-opacity="0.18" stroke="#000" stroke-width="1"/>
  <path d="M1012.891847 349.303009 L1008.454030 323.044230 L1013.443592 324.198669 L1007.084311 301.700653 L1015.067611 303.547755 L999.727117 278.971748 L1021.681192 284.051280 L1025.375397 268.084680 L1037.350348 270.855334 L1033.656143 286.821934 L1055.610218 291.901466 L1031.034211 307.241960 L1039.017512 309.089063 L1023.422718 326.507547 L1028.412280 327.661986 Z" fill="#888" fill-opacity="0.18" stroke="#000" stroke-width="1"/>
  <path d="M553.034990 633.207675 L573.361382 616.001413 L574.912317 620.882301 L591.023812 603.940609 L593.505307 611.750029 L606.825120 586.022739 L613.649232 607.498645 L629.268074 602.535654 L632.990317 614.249785 L617.371476 619.212776 L624.195589 640.688683 L598.468298 627.368870 L600.949794 635.178291 L578.014186 630.644077 L579.565121 635.524964 Z" fill="#888" fill-opacity="0.18" stroke="#000" stroke-width="1"/>
  <path d="M522.934078 828.343419 L500.459203 814.057142 L504.657571 811.124197 L483.689379 800.783204 L490.406768 796.090491 L461.881513 791.028801 L480.354333 778.123840 L470.968908 764.689062 L481.044991 757.649993 L490.430417 771.084771 L508.903237 758.179811 L503.841546 786.705066 L510.558935 782.012353 L513.054307 805.258306 L517.252676 802.325360 Z" fill="#888" fill-opacity="0.18" stroke="#000" stroke-width="1"/>
  <path d="M499.359722 506.156150 L478.381846 489.750468 L482.845716 487.240023 L462.983422 474.907525 L470.125613 470.890812 L442.228355 463.077116 L461.869380 452.031157 L453.835955 437.746775 L464.549242 431.721706 L472.582666 446.006088 L492.223692 434.960129 L484.409995 462.857388 L491.552186 458.840675 L491.773454 482.219132 L496.237324 479.708687 Z" fill="#888" fill-opacity="0.18" stroke="#000" stroke-width="1"/>
  <path d="M844.203100 413.980491 L869.298403 422.893596 L865.860034 426.689130 L888.606583 432.092433 L883.105192 438.165288 L912.040807 436.736629 L896.911981 453.436980 L909.057690 464.439762 L900.805603 473.549044 L888.659894 462.546262 L873.531068 479.246612 L872.102409 450.310997 L866.601018 456.383852 L858.983294 434.280199 L855.544925 438.075733 Z" fill="#888" fill-opacity="0.18" stroke="#000" stroke-width="1"/>
  <path d="M572.661224 472.253556 L597.760633 481.155092 L594.324013 484.952211 L617.073051 490.345028 L611.574459 496.420418 L640.509413 494.978422 L625.388286 511.685744 L637.539066 522.682927 L629.291179 531.796012 L617.140399 520.798829 L602.019273 537.506151 L600.577277 508.571198 L595.078685 514.646588 L587.450774 492.546448 L584.014154 496.343567 Z" fill="#888" fill-opacity="0.18" stroke="#000" stroke-width="1"/>
  <path d="M999.093682 319.832762 L996.041428 346.288413 L991.570917 343.789814 L991.411645 367.168775 L984.258827 363.171016 L992.146474 391.047456 L972.476227 380.053620 L964.480709 394.359255 L953.751483 388.362617 L961.747001 374.056982 L942.076753 363.063146 L969.953193 355.175499 L962.800375 351.177741 L982.629896 338.792615 L978.159385 336.294016 Z" fill="#888" fill-opacity="0.18" stroke="#000" stroke-width="1"/>
  <path d="M705.026980 201.051600 L691.158838 223.786866 L688.148742 219.643463 L678.197341 240.799333 L673.381188 234.169888 L668.847960 262.783883 L655.603538 244.552910 L642.344649 254.185217 L635.120419 244.241050 L648.379308 234.608743 L635.134886 216.377770 L663.748881 220.910999 L658.932728 214.281554 L682.128551 211.356657 L679.118455 207.213254 Z" fill="#888" fill-opacity="0.18" stroke="#000" stroke-width="1"/>
  <path d="M185.835328 842.744549 L202.625942 822.073483 L205.053453 826.582990 L217.750958 806.952031 L221.634975 814.167242 L229.962961 786.419170 L240.644009 806.261002 L255.074432 798.492968 L260.900458 809.315785 L246.470035 817.083820 L257.151082 836.925652 L229.403010 828.597666 L233.287027 835.812877 L209.908474 835.602005 L212.335985 840.111512 Z" fill="#888" fill-opacity="0.18" stroke="#000" stroke-width="1"/>
  <path d="M301.880730 285.965388 L326.851975 295.220365 L323.362095 298.968591 L346.032735 304.682018 L340.448926 310.679179 L369.401353 309.645799 L354.045877 326.137993 L366.040199 337.305612 L357.664485 346.301353 L345.670163 335.133734 L330.314687 351.625928 L329.281307 322.673501 L323.697498 328.670662 L316.382333 306.465042 L312.892452 310.213268 Z" fill="#888" fill-opacity="0.18" stroke="#000" stroke-width="1"/>
  <path d="M387.460247 992.289061 L411.767521 1003.169047 L408.038287 1006.679215 L430.283274 1013.873781 L424.316500 1019.490050 L453.274107 1020.366314 L436.865478 1035.811053 L448.098016 1047.744601 L439.147854 1056.169005 L427.915317 1044.235456 L411.506688 1059.680195 L412.382951 1030.722588 L406.416177 1036.338857 L400.579820 1013.699551 L396.850586 1017.209719 Z" fill="#888" fill-opacity="0.18" stroke="#000" stroke-width="1"/>
  <path d="M315.472604 905.224521 L326.207607 880.852869 L329.739927 884.561128 L336.801858 862.273680 L342.453570 868.206894 L343.157326 839.244581 L358.699533 855.560919 L370.565961 844.257497 L379.043528 853.157318 L367.177100 864.460740 L382.719306 880.777079 L353.756993 880.073322 L359.408704 886.006536 L336.804566 891.977645 L340.336885 895.685904 Z" fill="#888" fill-opacity="0.18" stroke="#000" stroke-width="1"/>
  <path d="M587.693804 730.886900 L589.389872 704.309823 L593.982248 706.576660 L592.946370 683.220116 L600.294171 686.847055 L590.992018 659.410204 L611.198471 669.384288 L618.452350 654.688686 L629.474051 660.129095 L622.220172 674.824697 L642.426625 684.798781 L614.989773 694.100935 L622.337574 697.727874 L603.166999 711.110335 L607.759374 713.377172 Z" fill="#888" fill-opacity="0.18" stroke="#000" stroke-width="1"/>
  <path d="M154.559893 269.505203 L128.873813 276.536776 L129.525463 271.457030 L107.772850 280.025872 L108.815490 271.898278 L85.889908 289.610662 L88.757167 267.259781 L72.501980 265.174501 L74.065940 252.983112 L90.321126 255.068391 L93.188385 232.717509 L110.900769 255.643092 L111.943409 247.515499 L130.828763 261.297538 L131.480412 256.217793 Z" fill="#888" fill-opacity="0.18" stroke="#000" stroke-width="1"/>
  <path d="M634.240176 338.008770 L610.076274 349.203569 L609.876302 344.086101 L589.846368 356.144416 L589.526414 347.956468 L569.856429 369.226224 L568.976554 346.709366 L552.600658 347.349275 L552.120726 335.067352 L568.496623 334.427444 L567.616748 311.910586 L588.886505 331.580571 L588.566551 323.392622 L609.476359 333.851166 L609.276388 328.733698 Z" fill="#888" fill-opacity="0.18" stroke="#000" stroke-width="1"/>
  <path d="M639.876506 950.451501 L638.253686 923.869850 L643.092353 925.547874 L639.159381 902.501553 L646.901249 905.186391 L634.258675 879.119627 L655.548811 886.502932 L660.918488 871.019196 L672.531289 875.046454 L667.161612 890.530189 L688.451748 897.913494 L662.384984 910.556067 L670.126851 913.240906 L652.769688 928.903922 L657.608355 930.581946 Z" fill="#888" fill-opacity="0.18" stroke="#000" stroke-width="1"/>
  <path d="M642.794741 179.351418 L636.698620 205.275441 L632.547618 202.275832 L629.681385 225.478976 L623.039783 220.679602 L627.645351 249.282043 L609.380946 236.083763 L599.782197 249.366966 L589.819794 242.167904 L599.418543 228.884701 L581.154139 215.686421 L609.756579 211.080853 L603.114977 206.281478 L624.245616 196.276614 L620.094615 193.277005 Z" fill="#888" fill-opacity="0.18" stroke="#000" stroke-width="1"/>
  <path d="M918.547857 913.109549 L943.264197 903.193894 L943.196241 908.314816 L963.829434 897.320611 L963.720705 905.514087 L984.476219 885.302222 L984.177212 907.834280 L1000.564164 908.051740 L1000.401069 920.341954 L984.014117 920.124494 L983.715110 942.656553 L963.503245 921.901039 L963.394515 930.094515 L943.060329 918.556661 L942.992373 923.677583 Z" fill="#888" fill-opacity="0.18" stroke="#000" stroke-width="1"/>
  <path d="M331.615082 387.093465 L350.149536 406.216532 L345.384017 408.092244 L363.371005 423.027754 L355.746175 426.028893 L382.311097 437.588122 L361.342814 445.841253 L367.345091 461.090913 L355.907846 465.592621 L349.905568 450.342961 L328.937285 458.596092 L340.496514 432.031170 L332.871684 435.032308 L335.852979 411.843667 L331.087460 413.719379 Z" fill="#888" fill-opacity="0.18" stroke="#000" stroke-width="1"/>
  <path d="M1058.857798 826.416024 L1035.378871 813.847902 L1039.346506 810.609640 L1017.664662 801.863278 L1024.012877 796.682059 L995.189291 793.764569 L1012.646883 779.516216 L1002.284444 766.819786 L1011.806767 759.047957 L1022.169206 771.744387 L1039.626798 757.496034 L1036.709308 786.319621 L1043.057523 781.138401 L1047.281775 804.133116 L1051.249410 800.894854 Z" fill="#888" fill-opacity="0.18" stroke="#000" stroke-width="1"/>
  <path d="M774.698931 968.026674 L777.582576 941.552115 L782.068914 944.022182 L782.079237 920.642680 L789.257379 924.594787 L781.192293 896.769165 L800.932183 907.637460 L808.836397 893.281176 L819.603609 899.209337 L811.699395 913.565620 L831.439285 924.433915 L803.613663 932.499002 L810.791804 936.451109 L791.041591 948.962316 L795.527930 951.432383 Z" fill="#888" fill-opacity="0.18" stroke="#000" stroke-width="1"/>
  <path d="M901.483360 905.131516 L892.212278 930.096787 L888.466304 926.604489 L882.738255 949.271440 L876.744697 943.683763 L877.759400 972.636850 L861.277115 957.270739 L850.101762 969.257855 L841.111425 960.876340 L852.286778 948.889224 L835.804493 933.523113 L864.757580 932.508410 L858.764022 926.920733 L880.974356 919.619893 L877.228382 916.127595 Z" fill="#888" fill-opacity="0.18" stroke="#000" stroke-width="1"/>
  <path d="M600.612013 380.624343 L579.804366 397.245401 L578.392910 392.322367 L561.805982 408.798866 L559.547651 400.922013 L545.501345 426.259972 L539.290936 404.598626 L523.537230 409.115287 L520.149735 397.300007 L535.903441 392.783346 L529.693032 371.122000 L555.030991 385.168307 L552.772660 377.291454 L575.569997 382.476301 L574.158541 377.553268 Z" fill="#888" fill-opacity="0.18" stroke="#000" stroke-width="1"/>
  <path d="M323.001690 683.879947 L345.566620 669.736338 L346.408316 674.788072 L364.763519 660.307474 L366.110232 668.390248 L382.950383 644.816529 L386.653845 667.044157 L402.819393 664.350730 L404.839463 676.474890 L388.673916 679.168318 L392.377378 701.395945 L368.803660 684.555795 L370.150373 692.638569 L348.091708 684.891539 L348.933404 689.943273 Z" fill="#888" fill-opacity="0.18" stroke="#000" stroke-width="1"/>
  <path d="M256.180929 562.369585 L269.636123 585.351653 L264.561259 586.040292 L278.480514 604.824741 L270.360733 605.926563 L293.414742 623.471463 L271.085342 626.501473 L273.288986 642.741037 L261.109314 644.393770 L258.905670 628.154206 L236.576269 631.184217 L254.121169 608.130207 L246.001387 609.232029 L254.411532 587.417569 L249.336668 588.106208 Z" fill="#888" fill-opacity="0.18" stroke="#000" stroke-width="1"/>
  <path d="M646.768285 627.239324 L652.165760 601.160886 L656.395847 604.047896 L658.637696 580.776125 L665.405835 585.395342 L660.033528 556.926952 L678.645911 569.629797 L687.884344 556.093519 L698.036553 563.022343 L688.798120 576.558622 L707.410503 589.261466 L678.942114 594.633774 L685.710254 599.252990 L664.856021 609.821916 L669.086108 612.708927 Z" fill="#888" fill-opacity="0.18" stroke="#000" stroke-width="1"/>
  <path d="M601.998888 197.525882 L580.076018 212.645585 L579.013561 207.635630 L561.311146 222.907359 L559.611214 214.891431 L543.821222 239.181079 L539.146411 217.137277 L523.114555 220.537139 L520.564658 208.513247 L536.596515 205.113385 L531.921704 183.069582 L556.211352 198.859575 L554.511421 190.843647 L576.888647 197.615720 L575.826190 192.605765 Z" fill="#888" fill-opacity="0.18" stroke="#000" stroke-width="1"/>
  <path d="M239.507735 787.785115 L250.047234 763.328283 L253.609134 767.008137 L260.492370 744.664854 L266.191411 750.552621 L266.663225 721.585601 L282.335588 737.776960 L294.111122 726.378877 L302.659684 735.210527 L290.884150 746.608610 L306.556514 762.799968 L277.589494 762.328155 L283.288535 768.215922 L260.732936 774.367846 L264.294837 778.047700 Z" fill="#888" fill-opacity="0.18" stroke="#000" stroke-width="1"/>
  <path d="M200.738792 972.461108 L218.046772 992.700958 L213.173724 994.276350 L230.195999 1010.302683 L222.399121 1012.823310 L248.192885 1026.013937 L226.751470 1032.945662 L231.792725 1048.539418 L220.097408 1052.320359 L215.056153 1036.726603 L193.614739 1043.658329 L206.805365 1017.864565 L199.008487 1020.385192 L203.427626 997.427135 L198.554577 999.002527 Z" fill="#888" fill-opacity="0.18" stroke="#000" stroke-width="1"/>
  <path d="M750.836644 969.491146 L742.062206 944.347023 L747.174657 944.649203 L737.135985 923.534604 L745.315906 924.018092 L726.074824 902.359569 L748.569607 903.689161 L749.536583 887.329319 L761.806464 888.054551 L760.839488 904.414393 L783.334271 905.743985 L761.675749 924.985068 L769.855670 925.468556 L757.399558 945.253563 L762.512009 945.555743 Z" fill="#888" fill-opacity="0.18" stroke="#000" stroke-width="1"/>
  <path d="M166.257048 328.182730 L190.851182 317.967728 L190.845403 323.089098 L211.343597 311.845199 L211.334351 320.039391 L231.842947 299.577026 L231.817520 322.111055 L248.205904 322.129547 L248.192035 334.420835 L231.803650 334.402343 L231.778224 356.936371 L211.315859 336.427775 L211.306613 344.621968 L190.833846 333.331838 L190.828067 338.453208 Z" fill="#888" fill-opacity="0.18" stroke="#000" stroke-width="1"/>
  <path d="M103.265364 292.408269 L128.982403 285.490786 L128.308211 290.567589 L150.098646 282.095392 L149.019939 290.218277 L172.023920 272.607834 L169.057474 294.945768 L185.303244 297.103184 L183.685182 309.287511 L167.439412 307.130095 L164.472965 329.468029 L146.862523 306.464047 L145.783815 314.586932 L126.959826 300.721195 L126.285634 305.797998 Z" fill="#888" fill-opacity="0.18" stroke="#000" stroke-width="1"/>
  <path d="M488.625016 129.590868 L480.866689 104.114878 L485.962895 104.621979 L476.779646 83.121534 L484.933576 83.932895 L466.577156 61.519668 L489.000462 63.750912 L490.623185 47.443054 L502.854079 48.660096 L501.231356 64.967955 L523.654661 67.199199 L501.241434 85.555618 L509.395363 86.366980 L496.155307 105.636181 L501.251513 106.143282 Z" fill="#888" fill-opacity="0.18" stroke="#000" stroke-width="1"/>
  <path d="M494.587387 948.634679 L502.095940 974.185400 L497.004943 973.628433 L505.977269 995.217749 L497.831674 994.326602 L515.967795 1016.918458 L493.567407 1014.467804 L491.785113 1030.758995 L479.566720 1029.422274 L481.349014 1013.131083 L458.948626 1010.680429 L481.540482 992.544308 L473.394887 991.653161 L486.822948 972.514499 L481.731951 971.957532 Z" fill="#888" fill-opacity="0.18" stroke="#000" stroke-width="1"/>
  <path d="M374.484369 175.594950 L362.227018 199.237603 L358.936707 195.313025 L350.477081 217.108344 L345.212582 210.829019 L342.675517 239.688578 L328.198145 222.420435 L315.639495 232.949433 L307.742747 223.530446 L320.301396 213.001448 L305.824024 195.733305 L334.683584 198.270369 L329.419085 191.991044 L352.356083 187.463869 L349.065771 183.539291 Z" fill="#888" fill-opacity="0.18" stroke="#000" stroke-width="1"/>
  <path d="M338.655971 590.748586 L365.063566 587.305241 L363.721586 592.247665 L386.443637 586.742251 L384.296470 594.650130 L409.434085 580.248353 L403.529374 601.995019 L419.345130 606.289354 L416.124379 618.151172 L400.308622 613.856836 L394.403911 635.603502 L380.002134 610.465887 L377.854966 618.373765 L361.037626 602.132513 L359.695646 607.074937 Z" fill="#888" fill-opacity="0.18" stroke="#000" stroke-width="1"/>
  <path d="M506.523209 144.421640 L481.929323 154.637237 L481.934978 149.515867 L461.437056 160.760262 L461.446104 152.566070 L440.938004 173.028931 L440.962885 150.494902 L424.574500 150.476807 L424.588072 138.185518 L440.976457 138.203614 L441.001338 115.669585 L461.464199 136.177685 L461.473247 127.983493 L481.946287 139.273127 L481.951942 134.151756 Z" fill="#888" fill-opacity="0.18" stroke="#000" stroke-width="1"/>
  <path d="M56.496960 516.686511 L71.019886 539.009197 L65.983098 539.936145 L80.771823 558.044011 L72.712962 559.527128 L96.567906 575.966487 L74.406039 580.045058 L77.372273 596.162780 L65.283982 598.387455 L62.317748 582.269734 L40.155881 586.348305 L56.595241 562.493361 L48.536381 563.976478 L55.909522 541.790041 L50.872734 542.716989 Z" fill="#888" fill-opacity="0.18" stroke="#000" stroke-width="1"/>
  <path d="M274.040999 995.703743 L266.307737 970.220133 L271.403442 970.732247 L262.241348 949.222779 L270.394475 950.042161 L252.060113 927.610887 L274.481212 929.864189 L276.119977 913.557934 L288.349668 914.787008 L286.710903 931.093262 L309.132003 933.346564 L286.700729 951.680926 L294.853856 952.500308 L281.594851 971.756475 L286.690555 972.268589 Z" fill="#888" fill-opacity="0.18" stroke="#000" stroke-width="1"/>
</svg>
