<?xml version="1.0" encoding="UTF-8"?>
<svg xmlns="http://www.w3.org/2000/svg" width="1100" height="1100" viewBox="0 0 1100 1100">
  <rect x="0" y="0" width="1100" height="1100" fill="white"/>
  <text x="10.0" y="18.0" font-family="monospace" font-size="12">prefix=N188_job5048592_task188 run_id=188 L=12.1042666202 feas=0.000e+00 N=188</text>
  <rect x="40.000000" y="40.000000" width="1020.000000" height="1020.000000" fill="none" stroke="#000" stroke-width="2"/>
  <path d="M416.480930 954.723607 L443.862705 954.186745 L441.932727 959.087124 L465.780194 956.026204 L462.692229 963.866810 L490.013657 951.985209 L481.521752 973.546875 L497.202964 979.722806 L492.571016 991.483715 L476.889804 985.307784 L468.397900 1006.869451 L456.516298 979.548022 L453.428333 987.388628 L438.072770 968.887882 L436.142792 973.788260 Z" fill="#888" fill-opacity="0.18" stroke="#000" stroke-width="1"/>
  <path d="M263.265980 652.654716 L254.250631 626.794064 L259.508095 627.106477 L249.191323 605.389314 L257.603265 605.889174 L237.823058 583.609669 L260.955899 584.984283 L261.955619 568.160398 L274.573532 568.910187 L273.573813 585.734072 L296.706654 587.108686 L274.427150 606.888893 L282.839092 607.388752 L270.023022 627.731301 L275.280486 628.043713 Z" fill="#888" fill-opacity="0.18" stroke="#000" stroke-width="1"/>
  <path d="M579.424543 216.507942 L552.388528 220.878720 L553.612356 215.756145 L530.429635 222.130500 L532.387759 213.934380 L507.002149 229.529370 L512.386990 206.990040 L495.994750 203.073792 L498.931937 190.779612 L515.324177 194.695860 L520.709018 172.156530 L536.304007 197.542140 L538.262132 189.346020 L556.060011 205.510995 L557.283838 200.388420 Z" fill="#888" fill-opacity="0.18" stroke="#000" stroke-width="1"/>
  <path d="M369.929284 1052.311282 L349.343064 1034.248688 L354.072091 1031.930320 L334.394759 1018.114620 L341.961203 1014.405232 L313.771622 1004.762594 L334.579342 994.561775 L327.160565 979.428888 L338.510230 973.864805 L345.929007 988.997692 L366.736727 978.796874 L357.094090 1006.986454 L364.660534 1003.277065 L363.530145 1027.293584 L368.259173 1024.975216 Z" fill="#888" fill-opacity="0.18" stroke="#000" stroke-width="1"/>
  <path d="M829.136893 899.203519 L811.274643 878.443225 L816.281074 876.807936 L798.725768 860.379845 L806.736059 857.763382 L780.169176 844.278812 L802.197475 837.083540 L796.964550 821.062959 L808.979986 817.138265 L814.212911 833.158846 L836.241211 825.963574 L822.756640 852.530457 L830.766931 849.913995 L826.293938 873.537358 L831.300369 871.902068 Z" fill="#888" fill-opacity="0.18" stroke="#000" stroke-width="1"/>
  <path d="M722.242404 372.820815 L737.619481 350.158174 L740.505077 354.564063 L751.780323 333.328721 L756.397277 340.378144 L762.478450 311.212201 L775.175074 330.598115 L789.273920 321.364207 L796.199352 331.938341 L782.100505 341.172250 L794.797129 360.558163 L765.631186 354.476991 L770.248140 361.526414 L746.276270 363.375842 L749.161866 367.781732 Z" fill="#888" fill-opacity="0.18" stroke="#000" stroke-width="1"/>
  <path d="M271.776185 106.699104 L257.725704 130.207268 L254.591894 125.974330 L244.554524 147.822033 L239.540428 141.049333 L235.143916 170.516324 L221.355152 151.891398 L207.809751 161.919590 L200.288607 151.760539 L213.834008 141.732347 L200.045244 123.107420 L229.512236 127.503932 L224.498140 120.731231 L248.324274 117.508454 L245.190464 113.275516 Z" fill="#888" fill-opacity="0.18" stroke="#000" stroke-width="1"/>
  <path d="M265.422171 918.672202 L291.887246 925.718452 L288.678956 929.895222 L312.444273 933.539486 L307.311010 940.222318 L336.851247 936.348396 L322.734773 954.726184 L336.100437 964.992710 L328.400542 975.016958 L315.034879 964.750432 L300.918405 983.128219 L297.044483 953.587982 L291.911220 960.270813 L282.262377 938.248762 L279.054088 942.425532 Z" fill="#888" fill-opacity="0.18" stroke="#000" stroke-width="1"/>
  <path d="M492.072693 168.080441 L515.744124 154.306801 L516.438303 159.527591 L535.794267 145.265136 L536.904954 153.618399 L555.011394 129.958523 L558.065784 152.929997 L574.772310 150.708623 L576.438341 163.238518 L559.731814 165.459892 L562.786204 188.431366 L539.126328 170.324926 L540.237015 178.678189 L517.826662 169.969170 L518.520842 175.189959 Z" fill="#888" fill-opacity="0.18" stroke="#000" stroke-width="1"/>
  <path d="M377.552178 154.109333 L365.069704 178.486323 L361.665688 174.467467 L353.079101 196.925015 L347.632675 190.494846 L345.173318 220.186335 L330.195646 202.503370 L317.335308 213.396222 L309.165669 203.750969 L322.026007 192.858116 L307.048334 175.175152 L336.739823 177.634508 L331.293396 171.204339 L354.857655 166.429756 L351.453639 162.410901 Z" fill="#888" fill-opacity="0.18" stroke="#000" stroke-width="1"/>
  <path d="M835.805959 195.459246 L833.183551 222.720441 L828.538251 220.238564 L828.830404 244.279895 L821.397924 240.308892 L830.051618 268.817601 L809.612296 257.897343 L801.670291 272.762304 L790.521570 266.805800 L798.463575 251.940839 L778.024254 241.020581 L806.532962 232.366886 L799.100482 228.395883 L819.247650 215.274811 L814.602349 212.792934 Z" fill="#888" fill-opacity="0.18" stroke="#000" stroke-width="1"/>
  <path d="M346.769336 701.445504 L333.808828 677.319273 L339.050208 676.803076 L325.454383 656.973188 L333.840591 656.147272 L310.810281 637.246539 L333.872355 634.975272 L332.220524 618.202854 L344.799837 616.963981 L346.451668 633.736398 L369.513742 631.465131 L350.613009 654.495441 L358.999217 653.669526 L349.532969 675.770681 L354.774350 675.254484 Z" fill="#888" fill-opacity="0.18" stroke="#000" stroke-width="1"/>
  <path d="M335.139050 497.913927 L361.620735 490.930361 L360.901716 496.147788 L383.353263 487.545521 L382.202834 495.893404 L405.948613 477.899770 L402.784934 500.856447 L419.480699 503.157305 L417.755055 515.679129 L401.059290 513.378271 L397.895610 536.334949 L379.901976 512.589170 L378.751547 520.937052 L359.463680 506.582641 L358.744662 511.800068 Z" fill="#888" fill-opacity="0.18" stroke="#000" stroke-width="1"/>
  <path d="M927.681143 899.419411 L901.184606 906.346409 L901.914764 901.130530 L879.444898 909.684830 L880.613152 901.339423 L856.829001 919.282307 L860.041698 896.332438 L843.350884 893.995930 L845.103265 881.477820 L861.794079 883.814327 L865.006776 860.864458 L882.949659 884.648610 L884.117913 876.303203 L903.375081 890.698771 L904.105240 885.482892 Z" fill="#888" fill-opacity="0.18" stroke="#000" stroke-width="1"/>
  <path d="M340.608747 144.241317 L315.754269 155.743698 L315.550775 150.480892 L294.947241 162.873039 L294.621651 154.452551 L274.384405 176.317747 L273.489033 153.161404 L256.648056 153.812584 L256.159671 141.181852 L273.000647 140.530672 L272.105275 117.374329 L293.970471 137.611574 L293.644881 129.191086 L315.143788 139.955282 L314.940294 134.692477 Z" fill="#888" fill-opacity="0.18" stroke="#000" stroke-width="1"/>
  <path d="M200.164114 765.325007 L184.868365 788.042619 L181.966995 783.647100 L170.767936 804.922720 L166.125744 797.889891 L160.149150 827.077443 L147.383123 807.737163 L133.317464 817.021546 L126.354176 806.472302 L140.419835 797.187919 L127.653808 777.847638 L156.841360 783.824232 L152.199169 776.791403 L176.164256 774.856064 L173.262886 770.460545 Z" fill="#888" fill-opacity="0.18" stroke="#000" stroke-width="1"/>
  <path d="M550.035203 239.925009 L575.172691 250.794991 L571.383827 254.453274 L594.352461 261.560508 L588.290278 267.413761 L618.078868 267.936086 L601.407865 284.032532 L613.114371 296.156898 L604.021097 304.936777 L592.314591 292.812411 L575.643588 308.908857 L576.165912 279.120267 L570.103729 284.973520 L563.806098 261.769840 L560.017234 265.428124 Z" fill="#888" fill-opacity="0.18" stroke="#000" stroke-width="1"/>
  <path d="M990.352663 341.651962 L988.660216 368.986655 L983.933084 366.664423 L985.043848 390.681857 L977.480438 386.966287 L987.100038 415.163738 L966.300660 404.945920 L958.869520 420.072740 L947.524405 414.499385 L954.955545 399.372565 L934.156168 389.154747 L962.353618 379.535147 L954.790208 375.819577 L974.478822 362.019961 L969.751690 359.697730 Z" fill="#888" fill-opacity="0.18" stroke="#000" stroke-width="1"/>
  <path d="M667.228299 452.717238 L650.025563 431.407248 L655.080793 429.929690 L638.049056 412.959396 L646.137425 410.595304 L620.006274 396.284613 L642.249287 389.783360 L637.521103 373.606624 L649.653655 370.060486 L654.381839 386.237222 L676.624852 379.735969 L662.314161 405.867120 L670.402530 403.503028 L665.191253 426.974575 L670.246483 425.497018 Z" fill="#888" fill-opacity="0.18" stroke="#000" stroke-width="1"/>
  <path d="M715.871345 312.539355 L735.529561 293.470943 L737.460477 298.370953 L752.812502 279.867271 L755.901966 287.707286 L767.778344 260.383587 L776.274371 281.943629 L791.954402 275.764701 L796.588598 287.524724 L780.908567 293.703652 L789.404594 315.263695 L762.080895 303.387317 L765.170359 311.227333 L741.322307 308.170972 L743.253222 313.070982 Z" fill="#888" fill-opacity="0.18" stroke="#000" stroke-width="1"/>
  <path d="M239.025609 646.871122 L256.380679 668.057234 L251.336171 669.570995 L268.489134 686.418749 L260.417922 688.840768 L286.650997 702.963751 L264.455165 709.624302 L269.299202 725.766725 L257.192384 729.399753 L252.348347 713.257329 L230.152515 719.917880 L244.275498 693.684805 L236.204287 696.106823 L241.247157 672.598518 L236.202649 674.112280 Z" fill="#888" fill-opacity="0.18" stroke="#000" stroke-width="1"/>
  <path d="M126.629475 596.197473 L99.412630 599.245942 L100.884562 594.189070 L77.418828 599.426459 L79.773919 591.335465 L53.658707 605.675222 L60.135207 583.424989 L43.953220 578.714807 L47.485856 566.578317 L63.667844 571.288499 L70.144344 549.038266 L84.484101 575.153478 L86.839192 567.062484 L103.828426 584.075328 L105.300358 579.018457 Z" fill="#888" fill-opacity="0.18" stroke="#000" stroke-width="1"/>
  <path d="M684.298250 690.695198 L710.379787 699.050032 L706.967572 703.061930 L730.522034 707.884613 L725.062491 714.303649 L754.758938 711.904917 L739.745195 729.557266 L752.583266 740.476352 L744.393952 750.104906 L731.555880 739.185820 L716.542137 756.838168 L714.143405 727.141721 L708.683862 733.560757 L700.143144 711.085725 L696.730929 715.097622 Z" fill="#888" fill-opacity="0.18" stroke="#000" stroke-width="1"/>
  <path d="M600.307713 380.436888 L611.124770 355.276580 L614.791019 359.057737 L621.849901 336.074197 L627.715899 342.124049 L628.175533 312.334426 L644.307027 328.971517 L656.406730 317.239522 L665.205726 326.314299 L653.106023 338.046295 L669.237517 354.683386 L639.447894 354.223752 L645.313892 360.273603 L622.123516 366.620052 L625.789764 370.401209 Z" fill="#888" fill-opacity="0.18" stroke="#000" stroke-width="1"/>
  <path d="M306.981095 86.537538 L281.256702 95.934633 L281.491270 90.673122 L259.929172 101.310174 L260.304482 92.891755 L238.320161 112.999529 L239.352262 89.848877 L222.515424 89.098259 L223.078388 76.470630 L239.915226 77.221249 L240.947327 54.070597 L261.055100 76.054918 L261.430410 67.636499 L281.960407 80.150098 L282.194975 74.888586 Z" fill="#888" fill-opacity="0.18" stroke="#000" stroke-width="1"/>
  <path d="M931.585273 896.876042 L912.131651 877.598947 L916.992498 875.571462 L898.188695 860.588541 L905.966050 857.344565 L878.412722 846.011117 L899.800449 837.090183 L893.312497 821.535473 L904.978529 816.669509 L911.466481 832.224219 L932.854208 823.303285 L921.520760 850.856613 L929.298115 847.612637 L926.714192 871.516492 L931.575039 869.489007 Z" fill="#888" fill-opacity="0.18" stroke="#000" stroke-width="1"/>
  <path d="M559.482505 114.943316 L577.523997 94.338599 L579.847209 99.065248 L593.642739 79.373770 L597.359879 86.936409 L606.973626 58.736963 L617.195761 79.534220 L632.321038 72.099940 L637.896748 83.443898 L622.771470 90.878178 L632.993604 111.675434 L604.794158 102.061687 L608.511298 109.624325 L584.493634 108.518546 L586.816846 113.245196 Z" fill="#888" fill-opacity="0.18" stroke="#000" stroke-width="1"/>
  <path d="M295.671768 969.428941 L268.429645 966.615302 L270.944058 961.987532 L246.901269 962.110977 L250.924329 954.706544 L222.355598 963.159976 L233.419012 942.797787 L218.610147 934.751667 L224.644737 923.645018 L239.453602 931.691138 L250.517017 911.328948 L258.970448 939.897679 L262.993508 932.493247 L275.972882 952.731991 L278.487295 948.104221 Z" fill="#888" fill-opacity="0.18" stroke="#000" stroke-width="1"/>
  <path d="M461.509123 572.451011 L434.535985 577.194390 L435.689020 572.055418 L412.596453 578.749019 L414.441309 570.526663 L389.273280 586.470415 L394.346632 563.858936 L377.901920 560.169225 L380.669203 547.835691 L397.113915 551.525401 L402.187267 528.913922 L418.131019 554.081951 L419.975875 545.859594 L437.995089 561.777473 L439.148124 556.638500 Z" fill="#888" fill-opacity="0.18" stroke="#000" stroke-width="1"/>
  <path d="M516.367461 812.834076 L533.849251 791.752406 L536.298528 796.414977 L549.560405 776.360214 L553.479248 783.820328 L562.332427 755.372936 L573.109244 775.888251 L588.029473 768.050566 L593.907737 779.240737 L578.987508 787.078422 L589.764325 807.593736 L561.316933 798.740557 L565.235775 806.200671 L541.197081 805.740120 L543.646358 810.402692 Z" fill="#888" fill-opacity="0.18" stroke="#000" stroke-width="1"/>
  <path d="M53.097519 446.420743 L70.682342 467.416547 L65.654624 468.985169 L82.990093 485.645074 L74.945744 488.154870 L101.331106 501.991255 L79.209145 508.893192 L84.228736 524.981891 L72.162212 528.746585 L67.142621 512.657886 L45.020659 519.559823 L58.857045 493.174461 L50.812695 495.684256 L55.599187 472.122413 L50.571469 473.691036 Z" fill="#888" fill-opacity="0.18" stroke="#000" stroke-width="1"/>
  <path d="M984.893346 210.881483 L957.507936 210.582906 L959.586486 205.743675 L935.656752 208.075783 L938.982432 200.333014 L911.311307 211.375738 L920.456927 190.083121 L904.971387 183.431761 L909.959907 171.817607 L925.445447 178.468966 L934.591067 157.176349 L945.633791 184.847474 L948.959471 177.104704 L963.743586 196.065212 L965.822136 191.225981 Z" fill="#888" fill-opacity="0.18" stroke="#000" stroke-width="1"/>
  <path d="M516.424461 470.181200 L539.951893 484.199394 L535.723262 487.339012 L557.584725 497.346377 L550.818915 502.369767 L580.291915 506.725818 L561.685937 520.540140 L571.732716 534.071761 L561.584001 541.606845 L551.537221 528.075225 L532.931243 541.889546 L537.287294 512.416546 L530.521484 517.439936 L527.265999 493.618250 L523.037368 496.757868 Z" fill="#888" fill-opacity="0.18" stroke="#000" stroke-width="1"/>
  <path d="M417.177348 306.374428 L442.119937 295.064386 L442.282771 300.328606 L462.981417 288.095987 L463.241951 296.518740 L483.647497 274.810525 L484.363965 297.973093 L501.209469 297.452025 L501.600270 310.086154 L484.754766 310.607221 L485.471234 333.769790 L463.763018 313.364244 L464.023552 321.786996 L442.608438 310.857047 L442.771271 316.121267 Z" fill="#888" fill-opacity="0.18" stroke="#000" stroke-width="1"/>
  <path d="M396.792648 872.563615 L379.169675 893.527408 L376.751766 888.848493 L363.355507 908.813742 L359.486853 901.327479 L350.442830 929.714774 L339.804030 909.127549 L324.831502 916.864858 L319.028520 905.635463 L334.001048 897.898154 L323.362248 877.310928 L351.749543 886.354951 L347.880889 878.868687 L371.915948 879.490664 L369.498039 874.811749 Z" fill="#888" fill-opacity="0.18" stroke="#000" stroke-width="1"/>
  <path d="M247.111238 302.578580 L237.198433 328.108682 L233.399658 324.460691 L227.165000 347.681371 L221.086960 341.844586 L221.690098 371.631649 L204.975487 355.580490 L193.301917 367.736570 L184.184857 358.981393 L195.858427 346.825312 L179.143817 330.774153 L208.930880 330.171016 L202.852840 324.334230 L225.802108 317.164710 L222.003333 313.516719 Z" fill="#888" fill-opacity="0.18" stroke="#000" stroke-width="1"/>
  <path d="M331.593718 356.992213 L356.312055 368.784313 L352.390504 372.299987 L375.080612 380.251711 L368.806129 385.876789 L398.555031 387.500301 L381.300204 402.969265 L392.550359 415.518230 L383.138636 423.955847 L371.888480 411.406882 L354.633653 426.875846 L356.257164 397.126945 L349.982682 402.752023 L344.547401 379.331334 L340.625849 382.847008 Z" fill="#888" fill-opacity="0.18" stroke="#000" stroke-width="1"/>
  <path d="M974.252172 1024.758403 L996.626539 1008.964812 L997.775226 1014.104758 L1015.807899 998.202128 L1017.645798 1006.426042 L1033.610834 981.271508 L1038.665058 1003.887271 L1055.112885 1000.211472 L1057.869734 1012.547342 L1041.421907 1016.223142 L1046.476131 1038.838905 L1021.321597 1022.873869 L1023.159497 1031.097783 L1000.072601 1024.384651 L1001.221288 1029.524597 Z" fill="#888" fill-opacity="0.18" stroke="#000" stroke-width="1"/>
  <path d="M82.156222 765.163998 L89.710618 791.488529 L84.478868 790.882465 L93.564464 813.142808 L85.193663 812.173106 L103.696411 835.524363 L80.676708 832.857683 L78.737305 849.599285 L66.181103 848.144733 L68.120507 831.403130 L45.100804 828.736450 L68.452061 810.233702 L60.081260 809.264000 L74.015366 789.670338 L68.783615 789.064274 Z" fill="#888" fill-opacity="0.18" stroke="#000" stroke-width="1"/>
  <path d="M654.718550 152.686228 L628.427956 160.357892 L629.010692 155.123492 L606.791070 164.308225 L607.723449 155.933185 L584.454901 174.539839 L587.018943 151.508478 L570.268862 149.643720 L571.667430 137.081159 L588.417511 138.945917 L590.981553 115.914556 L609.588207 139.183104 L610.520586 130.808063 L630.176166 144.654691 L630.758903 139.420291 Z" fill="#888" fill-opacity="0.18" stroke="#000" stroke-width="1"/>
  <path d="M398.733799 348.412875 L418.447530 367.423888 L413.614677 369.517227 L432.620308 384.243290 L424.887744 387.592632 L452.592509 398.550686 L431.327959 407.761377 L438.026644 423.226504 L426.427798 428.250517 L419.729114 412.785390 L398.464564 421.996081 L409.422617 394.291317 L401.690054 397.640659 L403.948973 373.703905 L399.116121 375.797244 Z" fill="#888" fill-opacity="0.18" stroke="#000" stroke-width="1"/>
  <path d="M101.112011 1057.671174 L112.337135 1032.690254 L115.941357 1036.530580 L123.373375 1013.664972 L129.140131 1019.809495 L130.084549 990.031299 L145.943127 1006.928737 L158.232173 995.395225 L166.882306 1004.612010 L154.593261 1016.145521 L170.451839 1033.042959 L140.673642 1032.098541 L146.440398 1038.243064 L123.149802 1044.211234 L126.754024 1048.051561 Z" fill="#888" fill-opacity="0.18" stroke="#000" stroke-width="1"/>
  <path d="M538.949398 394.544406 L553.606855 417.678986 L548.415993 418.569764 L563.399000 437.373498 L555.093622 438.798743 L579.420179 455.999077 L556.580389 459.918500 L559.430878 476.529257 L546.972810 478.667124 L544.122321 462.056367 L521.282530 465.975790 L538.482865 441.649232 L530.177487 443.074477 L538.034270 420.351319 L532.843409 421.242097 Z" fill="#888" fill-opacity="0.18" stroke="#000" stroke-width="1"/>
  <path d="M792.239613 574.643366 L814.167005 591.051879 L809.632403 593.730668 L830.323684 605.975741 L823.068320 610.261804 L851.921885 617.685057 L831.969635 629.471728 L840.541760 643.982456 L829.658714 650.411549 L821.086589 635.900822 L801.134339 647.687493 L808.557593 618.833928 L801.302229 623.119991 L800.563198 599.088246 L796.028596 601.767035 Z" fill="#888" fill-opacity="0.18" stroke="#000" stroke-width="1"/>
  <path d="M457.108439 245.810222 L436.481626 227.793996 L441.205425 225.464992 L421.497056 211.693605 L429.055133 207.967200 L400.843927 198.388018 L421.628640 188.140405 L414.175830 173.024249 L425.512947 167.434642 L432.965757 182.550797 L453.750470 172.303183 L444.171289 200.514390 L451.729366 196.787985 L450.653022 220.806986 L455.376821 218.477983 Z" fill="#888" fill-opacity="0.18" stroke="#000" stroke-width="1"/>
  <path d="M602.868981 910.345899 L629.968374 906.387019 L628.666740 911.490378 L651.943772 905.469520 L649.861159 913.634895 L675.481130 898.427989 L669.753944 920.882771 L686.084695 925.047997 L682.960775 937.296061 L666.630025 933.130834 L660.902839 955.585617 L645.695933 929.965646 L643.613320 938.131021 L626.063474 921.697097 L624.761841 926.800457 Z" fill="#888" fill-opacity="0.18" stroke="#000" stroke-width="1"/>
  <path d="M943.182753 824.592412 L930.844091 800.142315 L936.096968 799.760459 L923.013216 779.589035 L931.417818 778.978066 L908.878888 759.493982 L931.991546 757.813816 L930.769607 741.004611 L943.376511 740.088157 L944.598450 756.897362 L967.711108 755.217197 L948.227024 777.756127 L956.631627 777.145158 L946.602721 798.996748 L951.855598 798.614892 Z" fill="#888" fill-opacity="0.18" stroke="#000" stroke-width="1"/>
  <path d="M1042.665792 965.515974 L1016.559642 973.793581 L1017.021173 968.547104 L995.019899 978.243231 L995.758348 969.848868 L972.926319 988.988653 L974.957053 965.904156 L958.168328 964.427258 L959.276001 951.835714 L976.064726 953.312612 L978.095460 930.228114 L997.235245 953.060143 L997.973694 944.665780 L1017.944234 958.054151 L1018.405764 952.807674 Z" fill="#888" fill-opacity="0.18" stroke="#000" stroke-width="1"/>
  <path d="M496.517153 350.859882 L509.583279 374.929077 L504.344212 375.468242 L518.026820 395.238350 L509.644312 396.101014 L532.757242 414.900624 L509.705344 417.272950 L511.430672 434.037966 L498.856910 435.331962 L497.131582 418.566946 L474.079685 420.939271 L492.879296 397.826341 L484.496787 398.689005 L493.866076 376.546572 L488.627009 377.085737 Z" fill="#888" fill-opacity="0.18" stroke="#000" stroke-width="1"/>
  <path d="M343.398946 141.087144 L363.292970 122.264880 L365.162749 127.188543 L380.743886 108.877370 L383.735532 116.755230 L395.951068 89.581464 L404.178095 111.245580 L419.933816 105.262288 L424.421285 117.079079 L408.665564 123.062371 L416.892591 144.726487 L389.718825 132.510951 L392.710471 140.388812 L368.902306 137.035869 L370.772085 141.959532 Z" fill="#888" fill-opacity="0.18" stroke="#000" stroke-width="1"/>
  <path d="M705.925427 1010.218891 L717.230233 985.273928 L720.822178 989.125740 L728.327145 966.283971 L734.074258 972.446870 L735.113722 942.671840 L750.918284 959.619812 L763.244081 948.125586 L771.864751 957.369934 L759.538953 968.864160 L775.343515 985.812132 L745.568485 984.772668 L751.315598 990.935567 L728.006070 996.829364 L731.598016 1000.681176 Z" fill="#888" fill-opacity="0.18" stroke="#000" stroke-width="1"/>
  <path d="M182.470460 443.586163 L166.069252 421.653307 L171.175765 420.364103 L154.784617 402.774299 L162.955039 400.711571 L137.372167 385.442335 L159.840826 379.769836 L155.715372 363.428992 L167.971004 360.334902 L172.096459 376.675745 L194.565118 371.003245 L179.295882 396.586117 L187.466304 394.523390 L181.388792 417.785694 L186.495306 416.496489 Z" fill="#888" fill-opacity="0.18" stroke="#000" stroke-width="1"/>
  <path d="M898.903135 612.901992 L900.478384 585.560295 L905.215427 587.862239 L904.001711 563.849788 L911.580980 567.532900 L901.840586 539.376948 L922.683576 549.505504 L930.049799 534.346966 L941.418703 539.871633 L934.052480 555.030172 L954.895470 565.158729 L926.739518 574.899123 L934.318788 578.582234 L914.689513 592.466129 L919.426557 594.768074 Z" fill="#888" fill-opacity="0.18" stroke="#000" stroke-width="1"/>
  <path d="M306.086408 531.553550 L288.498007 510.560743 L293.525458 508.991264 L276.187150 492.334313 L284.231072 489.823147 L257.843352 475.991259 L279.964137 469.085551 L274.941804 452.997708 L287.007686 449.230958 L292.030019 465.318802 L314.150804 458.413094 L300.318915 484.800814 L308.362837 482.289648 L303.580361 505.852306 L308.607812 504.282827 Z" fill="#888" fill-opacity="0.18" stroke="#000" stroke-width="1"/>
  <path d="M974.741122 748.593784 L997.973562 734.091939 L998.829479 739.288663 L1017.733357 724.432206 L1019.102823 732.746964 L1036.466052 708.536405 L1040.232084 731.401988 L1056.861599 728.663056 L1058.915798 741.135193 L1042.286283 743.874125 L1046.052314 766.739708 L1021.841755 749.376479 L1023.211221 757.691237 L1000.541311 749.682110 L1001.397227 754.878833 Z" fill="#888" fill-opacity="0.18" stroke="#000" stroke-width="1"/>
  <path d="M908.971698 730.320126 L908.149057 757.694805 L903.350493 755.524020 L905.224192 779.494005 L897.546490 776.020748 L908.057605 803.898147 L886.943922 794.346691 L879.997409 809.702097 L868.480855 804.492212 L875.427368 789.136806 L854.313685 779.585351 L882.191084 769.074235 L874.513381 765.600978 L893.753364 751.182449 L888.954800 749.011664 Z" fill="#888" fill-opacity="0.18" stroke="#000" stroke-width="1"/>
  <path d="M748.495706 495.375199 L760.669590 519.907757 L755.414263 520.254263 L768.362007 540.513257 L759.953484 541.067667 L782.360817 560.702950 L759.237378 562.227577 L760.346198 579.044624 L747.733413 579.876239 L746.624593 563.059192 L723.501154 564.583820 L743.136438 542.176487 L734.727914 542.730897 L744.903609 520.947275 L739.648282 521.293781 Z" fill="#888" fill-opacity="0.18" stroke="#000" stroke-width="1"/>
  <path d="M931.801954 874.702329 L947.725485 852.420252 L950.503107 856.894997 L962.291318 835.940069 L966.735514 843.099661 L973.524004 814.090192 L985.745543 833.779070 L1000.064727 824.890678 L1006.731020 835.630066 L992.411836 844.518458 L1004.633374 864.207336 L975.623905 857.418845 L980.068101 864.578437 L956.058352 865.844487 L958.835974 870.319232 Z" fill="#888" fill-opacity="0.18" stroke="#000" stroke-width="1"/>
  <path d="M609.389164 670.472950 L582.442993 675.367202 L583.567251 670.221857 L560.512505 677.044584 L562.311318 668.812032 L537.232907 684.896380 L542.179642 662.256863 L525.714539 658.659238 L528.412758 646.310410 L544.877861 649.908035 L549.824595 627.268519 L565.908943 652.346929 L567.707755 644.114378 L585.815767 659.931168 L586.940025 654.785823 Z" fill="#888" fill-opacity="0.18" stroke="#000" stroke-width="1"/>
  <path d="M1040.457688 911.386563 L1013.916279 918.139590 L1014.680638 912.928613 L992.155138 921.335324 L993.378114 912.997760 L969.476767 930.784230 L972.839950 907.855930 L956.164823 905.409979 L957.999286 892.903634 L974.674413 895.349585 L978.037596 872.421286 L995.824065 896.322634 L997.047041 887.985070 L1016.209358 902.506659 L1016.973718 897.295682 Z" fill="#888" fill-opacity="0.18" stroke="#000" stroke-width="1"/>
  <path d="M184.452371 205.956051 L179.885334 232.959606 L175.429602 230.151585 L174.000128 254.152158 L166.870957 249.659325 L173.461800 278.714336 L153.856580 266.359044 L144.870912 280.617385 L134.177156 273.878135 L143.162823 259.619793 L123.557603 247.264500 L152.612615 240.673657 L145.483444 236.180824 L166.518138 224.535543 L162.062406 221.727522 Z" fill="#888" fill-opacity="0.18" stroke="#000" stroke-width="1"/>
  <path d="M620.991869 839.426737 L612.753304 813.308241 L617.999084 813.777615 L608.335864 791.761869 L616.729113 792.512867 L597.623487 769.652247 L620.704922 771.717494 L622.206920 754.930995 L634.796794 756.057494 L633.294796 772.843992 L656.376232 774.909239 L633.515611 794.014865 L641.908861 794.765864 L628.490646 814.716364 L633.736427 815.185738 Z" fill="#888" fill-opacity="0.18" stroke="#000" stroke-width="1"/>
  <path d="M414.258263 490.831088 L440.219538 482.109734 L439.847495 487.363315 L461.680314 477.293611 L461.085044 485.699340 L483.587541 466.173190 L481.950550 489.288946 L498.762009 490.479485 L497.869105 503.088079 L481.057646 501.897540 L479.420655 525.013296 L459.894505 502.510799 L459.299236 510.916528 L439.103408 497.870477 L438.731364 503.124058 Z" fill="#888" fill-opacity="0.18" stroke="#000" stroke-width="1"/>
  <path d="M157.433167 561.451837 L182.858716 551.273857 L182.784870 556.540077 L204.012212 545.249777 L203.894058 553.675729 L225.254323 532.906232 L224.929400 556.077601 L241.781305 556.313908 L241.604075 568.952837 L224.752170 568.716530 L224.427248 591.887898 L203.657751 570.527634 L203.539597 578.953586 L182.637178 567.072518 L182.563332 572.338738 Z" fill="#888" fill-opacity="0.18" stroke="#000" stroke-width="1"/>
  <path d="M324.602807 603.340429 L302.091051 587.743294 L306.524844 584.900758 L285.400357 573.419164 L292.494426 568.871107 L263.389112 562.506077 L282.897801 549.998921 L273.801688 535.810784 L284.442791 528.988698 L293.538905 543.176836 L313.047594 530.669680 L306.682564 559.774994 L313.776632 555.226937 L315.392430 579.215687 L319.826223 576.373152 Z" fill="#888" fill-opacity="0.18" stroke="#000" stroke-width="1"/>
  <path d="M604.869918 612.271099 L621.198752 590.284308 L623.893979 594.809160 L636.063886 574.073580 L640.376249 581.313343 L647.694749 552.433030 L659.553746 572.342377 L674.033271 563.717652 L680.501815 574.577295 L666.022290 583.202021 L677.881287 603.111368 L649.000974 595.792868 L653.313337 603.032630 L629.284432 603.858863 L631.979658 608.383715 Z" fill="#888" fill-opacity="0.18" stroke="#000" stroke-width="1"/>
  <path d="M706.374928 830.231545 L711.402105 857.153233 L706.251274 856.054383 L713.187698 879.075176 L704.946369 877.317015 L721.154288 902.315740 L698.490634 897.480797 L694.974312 913.963455 L682.612318 911.326213 L686.128641 894.843555 L663.464986 890.008612 L688.463712 873.800693 L680.222383 872.042531 L695.949613 853.856681 L690.798783 852.757830 Z" fill="#888" fill-opacity="0.18" stroke="#000" stroke-width="1"/>
  <path d="M591.998118 448.630563 L618.107282 456.898658 L614.708422 460.921875 L638.278783 465.666238 L632.840607 472.103386 L662.528917 469.605958 L647.573932 487.308114 L660.448227 498.184467 L652.290963 507.840188 L639.416667 496.963835 L624.461682 514.665991 L621.964254 484.977681 L616.526078 491.414829 L607.910701 468.968310 L604.511841 472.991527 Z" fill="#888" fill-opacity="0.18" stroke="#000" stroke-width="1"/>
  <path d="M853.888132 48.257202 L863.252085 73.993678 L857.990880 73.752333 L868.600151 95.328113 L860.182222 94.941961 L880.261663 116.952163 L857.112359 115.890244 L856.340055 132.726101 L843.713162 132.146872 L844.485467 115.311016 L821.336164 114.249097 L843.346366 94.169656 L834.928437 93.783504 L847.468470 73.269642 L842.207264 73.028297 Z" fill="#888" fill-opacity="0.18" stroke="#000" stroke-width="1"/>
  <path d="M825.272324 916.701862 L797.962581 918.758003 L799.617537 913.758038 L775.976774 918.138137 L778.624704 910.138194 L752.005020 923.518230 L759.286826 901.518384 L743.286939 896.222525 L747.258833 884.222609 L763.258721 889.518468 L770.540527 867.518622 L783.920563 894.138306 L786.568492 886.138362 L802.927449 903.758109 L804.582405 898.758144 Z" fill="#888" fill-opacity="0.18" stroke="#000" stroke-width="1"/>
  <path d="M582.823469 315.922977 L576.138423 342.481591 L571.918332 339.330501 L568.598175 363.143260 L561.846030 358.101518 L566.122036 387.586237 L547.553637 373.721445 L537.470152 387.225735 L527.341934 379.663122 L537.425419 366.158831 L518.857020 352.294039 L548.341740 348.018033 L541.589594 342.976290 L563.478150 333.028323 L559.258060 329.877234 Z" fill="#888" fill-opacity="0.18" stroke="#000" stroke-width="1"/>
  <path d="M173.855834 177.414147 L201.111205 174.731887 L199.571416 179.768511 L223.105447 174.847095 L220.641784 182.905693 L246.947435 168.918355 L240.172363 191.079499 L256.289559 196.006824 L252.594065 208.094721 L236.476870 203.167396 L229.701797 225.328540 L215.714459 199.022889 L213.250797 207.081487 L196.491838 189.841758 L194.952049 194.878382 Z" fill="#888" fill-opacity="0.18" stroke="#000" stroke-width="1"/>
  <path d="M717.281767 191.179752 L739.094403 207.740509 L734.541263 210.387667 L755.146802 222.776480 L747.861778 227.011933 L776.662968 234.635863 L756.629152 246.283356 L765.100056 260.853404 L754.172520 267.206583 L745.701616 252.636534 L725.667799 264.284028 L733.291729 235.482837 L726.006705 239.718289 L725.434983 215.681982 L720.881843 218.329139 Z" fill="#888" fill-opacity="0.18" stroke="#000" stroke-width="1"/>
  <path d="M740.833958 82.515677 L767.961151 78.752005 L766.622809 83.845861 L789.942585 77.992745 L787.801239 86.142915 L813.530030 71.120857 L807.641326 93.533824 L823.941666 97.816518 L820.729645 110.041772 L804.429306 105.759079 L798.540602 128.172045 L783.518545 102.443254 L781.377198 110.593424 L763.946126 94.033573 L762.607784 99.127430 Z" fill="#888" fill-opacity="0.18" stroke="#000" stroke-width="1"/>
  <path d="M100.960097 954.371010 L124.372257 940.161133 L125.163052 945.368164 L144.251428 930.749518 L145.516699 939.080767 L163.181645 915.089464 L166.661141 938.000401 L183.323640 935.469858 L185.221547 947.966733 L168.559048 950.497275 L172.038545 973.408212 L148.047242 955.743266 L149.312513 964.074516 L126.744641 955.782226 L127.535436 960.989257 Z" fill="#888" fill-opacity="0.18" stroke="#000" stroke-width="1"/>
  <path d="M936.230993 83.719036 L957.601785 100.846180 L952.980784 103.373011 L973.254311 116.297988 L965.860709 120.340918 L994.452038 128.717599 L974.119633 139.835656 L982.205492 154.622860 L971.115089 160.687254 L963.029229 145.900050 L942.696824 157.018107 L951.073505 128.426777 L943.679903 132.469707 L943.738781 108.426673 L939.117780 110.953505 Z" fill="#888" fill-opacity="0.18" stroke="#000" stroke-width="1"/>
  <path d="M380.545201 999.434434 L366.048741 976.198633 L371.245663 975.343921 L356.393589 956.436599 L364.708664 955.069061 L340.502131 937.700219 L363.368587 933.939489 L360.633510 917.309339 L373.106122 915.258031 L375.841199 931.888181 L398.707655 928.127450 L381.338814 952.333984 L389.653889 950.966445 L381.639507 973.634498 L386.836429 972.779786 Z" fill="#888" fill-opacity="0.18" stroke="#000" stroke-width="1"/>
  <path d="M822.246309 1035.558253 L845.043941 1020.382029 L846.051730 1025.551448 L864.512269 1010.147572 L866.124731 1018.418642 L882.771251 993.709811 L887.205522 1016.455254 L903.747662 1013.230330 L906.166355 1025.636935 L889.624215 1028.861859 L894.058486 1051.607301 L869.349656 1034.960782 L870.962118 1043.231851 L848.067307 1035.890286 L849.075096 1041.059704 Z" fill="#888" fill-opacity="0.18" stroke="#000" stroke-width="1"/>
  <path d="M459.815225 94.486424 L471.096641 119.441974 L465.832237 119.598767 L478.041099 140.311436 L469.618053 140.562305 L491.302841 160.992745 L468.139466 161.682637 L468.641205 178.528728 L456.006637 178.905032 L455.504898 162.058941 L432.341522 162.748833 L452.771962 141.064045 L444.348917 141.314914 L455.303430 119.912354 L450.039027 120.069148 Z" fill="#888" fill-opacity="0.18" stroke="#000" stroke-width="1"/>
  <path d="M905.004039 312.692498 L891.016219 289.146995 L896.230496 288.405481 L881.793032 269.179703 L890.135875 267.993281 L866.312712 250.102227 L889.255531 246.839567 L886.882688 230.153880 L899.396953 228.374248 L901.769797 245.059934 L924.712616 241.797274 L906.821562 265.620437 L915.164406 264.434015 L906.659051 286.922454 L911.873328 286.180940 Z" fill="#888" fill-opacity="0.18" stroke="#000" stroke-width="1"/>
  <path d="M634.675888 253.765286 L653.501860 233.874771 L655.640267 238.687851 L670.188094 219.545446 L673.609545 227.246375 L684.308239 199.440425 L693.717230 220.617979 L709.119087 213.775077 L714.251264 225.326470 L698.849406 232.169372 L708.258397 253.346926 L680.452447 242.648233 L683.873899 250.349161 L659.917081 248.314012 L662.055488 253.127093 Z" fill="#888" fill-opacity="0.18" stroke="#000" stroke-width="1"/>
  <path d="M470.747216 777.221444 L458.676679 752.637873 L463.933418 752.313486 L451.071044 732.000183 L459.481826 731.481164 L437.157322 711.751758 L460.286972 710.324454 L459.248933 693.502890 L471.865105 692.724361 L472.903145 709.545925 L496.032795 708.118620 L476.303389 730.443124 L484.714171 729.924105 L474.446895 751.664711 L479.703634 751.340324 Z" fill="#888" fill-opacity="0.18" stroke="#000" stroke-width="1"/>
  <path d="M618.076982 876.886095 L592.488353 867.125361 L596.113678 863.304949 L572.856315 857.208558 L578.656834 851.095898 L548.873887 851.876249 L564.825315 835.066435 L552.599995 823.465397 L561.300774 814.296407 L573.526093 825.897446 L589.477521 809.087631 L590.257873 838.870579 L596.058392 832.757919 L603.364327 855.664124 L606.989652 851.843712 Z" fill="#888" fill-opacity="0.18" stroke="#000" stroke-width="1"/>
  <path d="M595.268136 55.859852 L575.826705 75.149242 L573.840528 70.271371 L558.698630 88.947394 L555.520748 81.142799 L543.953967 108.598991 L535.214791 87.136356 L519.605601 93.492121 L514.838778 81.785229 L530.447967 75.429464 L521.708791 53.966829 L549.164983 65.533610 L545.987101 57.729015 L569.868176 60.515627 L567.881999 55.637756 Z" fill="#888" fill-opacity="0.18" stroke="#000" stroke-width="1"/>
  <path d="M228.159597 359.602111 L236.465157 333.504842 L240.483492 336.909473 L245.261681 313.345945 L251.691016 318.793355 L249.236202 289.101491 L266.916875 304.081868 L277.811695 291.223197 L287.455699 299.394312 L276.560879 312.252984 L294.241552 327.233361 L264.549688 329.688175 L270.979023 335.135585 L248.520162 343.718735 L252.538497 347.123367 Z" fill="#888" fill-opacity="0.18" stroke="#000" stroke-width="1"/>
  <path d="M72.971148 901.453540 L97.057143 888.418410 L97.589563 893.658167 L117.377269 880.001021 L118.229141 888.384633 L137.058491 865.295924 L139.401138 888.350856 L156.168362 886.647113 L157.446170 899.222530 L140.678946 900.926274 L143.021594 923.981207 L119.932885 905.151857 L120.784756 913.535469 L98.654403 904.137682 L99.186823 909.377439 Z" fill="#888" fill-opacity="0.18" stroke="#000" stroke-width="1"/>
  <path d="M973.645322 776.860694 L1001.032359 776.867423 L999.005496 781.728530 L1022.909020 779.141547 L1019.666039 786.919318 L1047.217916 775.582344 L1038.299719 796.971212 L1053.855260 803.457173 L1048.990789 815.123828 L1033.435248 808.637867 L1024.517051 830.026735 L1013.180078 802.474858 L1009.937097 810.252628 L994.951770 791.450742 L992.924907 796.311849 Z" fill="#888" fill-opacity="0.18" stroke="#000" stroke-width="1"/>
  <path d="M479.951487 669.997931 L478.554231 642.646560 L483.512852 644.421557 L479.703875 620.682083 L487.637667 623.522078 L474.903174 596.587610 L496.721103 604.397596 L502.401093 588.530011 L514.301781 592.790004 L508.621791 608.657589 L530.439720 616.467575 L503.505252 629.202068 L511.439044 632.042063 L493.430092 647.971551 L498.388712 649.746548 Z" fill="#888" fill-opacity="0.18" stroke="#000" stroke-width="1"/>
  <path d="M397.912754 715.366188 L416.732221 735.262858 L411.808295 737.131944 L430.117278 752.715656 L422.238997 755.706195 L449.411046 767.925551 L427.745773 776.149532 L433.726850 791.906094 L421.909428 796.391902 L415.928351 780.635340 L394.263078 788.859321 L406.482435 761.687272 L398.604154 764.677810 L401.960444 740.870117 L397.036518 742.739204 Z" fill="#888" fill-opacity="0.18" stroke="#000" stroke-width="1"/>
  <path d="M140.184993 185.295014 L112.840162 186.814896 L114.592908 181.848366 L90.870751 185.763750 L93.675144 177.817303 L66.798046 190.672439 L74.510125 168.819711 L58.617231 163.210926 L62.823820 151.291256 L78.716713 156.900040 L86.428792 135.047312 L99.283928 161.924410 L102.088321 153.977963 L118.098398 171.915308 L119.851143 166.948779 Z" fill="#888" fill-opacity="0.18" stroke="#000" stroke-width="1"/>
  <path d="M157.532812 548.262944 L161.490155 521.163327 L166.008035 523.870224 L166.896285 499.843531 L174.124893 504.174566 L166.880959 475.275460 L186.759631 487.185804 L195.421699 472.728588 L206.264611 479.225140 L197.602543 493.682356 L217.481215 505.592700 L188.582109 512.836634 L195.810717 517.167669 L175.043795 529.284017 L179.561675 531.990913 Z" fill="#888" fill-opacity="0.18" stroke="#000" stroke-width="1"/>
  <path d="M726.540903 901.493989 L721.228240 874.627180 L726.390445 875.671293 L719.210050 852.725425 L727.469577 854.396007 L710.997214 829.570735 L733.710914 834.164835 L737.052078 817.645781 L749.441368 820.151654 L746.100204 836.670708 L768.813904 841.264809 L743.988631 857.737171 L752.248158 859.407753 L736.714853 877.759521 L741.877058 878.803635 Z" fill="#888" fill-opacity="0.18" stroke="#000" stroke-width="1"/>
  <path d="M505.885462 681.743675 L533.260524 680.933878 L531.379492 685.853253 L555.195261 682.554755 L552.185610 690.425755 L579.387236 678.272382 L571.110697 699.917631 L586.852696 705.936932 L582.338220 717.743432 L566.596221 711.724131 L558.319681 733.369380 L546.166309 706.167754 L543.156658 714.038753 L527.617429 695.692002 L525.736397 700.611377 Z" fill="#888" fill-opacity="0.18" stroke="#000" stroke-width="1"/>
  <path d="M994.943598 232.771689 L988.411190 206.175121 L993.615641 206.982724 L985.396261 184.388195 L993.723382 185.680360 L976.135990 161.632146 L999.035573 165.185598 L1001.619902 148.531356 L1014.110583 150.469603 L1011.526254 167.123845 L1034.425837 170.677297 L1010.377623 188.264688 L1018.704744 189.556853 L1004.024542 208.597929 L1009.228993 209.405532 Z" fill="#888" fill-opacity="0.18" stroke="#000" stroke-width="1"/>
  <path d="M1056.801129 272.456289 L1035.378013 255.394638 L1039.991258 252.853674 L1019.678265 239.990813 L1027.059457 235.925271 L998.442622 227.636144 L1018.740901 216.455904 L1010.609818 201.693519 L1021.681607 195.595207 L1029.812690 210.357592 L1050.110970 199.177352 L1041.821842 227.794188 L1049.203035 223.728646 L1049.217749 247.771747 L1053.830995 245.230784 Z" fill="#888" fill-opacity="0.18" stroke="#000" stroke-width="1"/>
  <path d="M431.461353 827.611741 L448.334053 806.039495 L450.915465 810.630229 L463.599296 790.204966 L467.729555 797.550141 L475.766844 768.861557 L487.125057 789.060787 L501.815406 780.800269 L508.010795 791.818032 L493.320445 800.078550 L504.678658 820.277780 L475.990073 812.240491 L480.120332 819.585666 L456.078289 819.811698 L458.659701 824.402432 Z" fill="#888" fill-opacity="0.18" stroke="#000" stroke-width="1"/>
  <path d="M825.317700 517.121500 L799.900741 506.922089 L803.591240 503.164597 L780.442174 496.669084 L786.346972 490.657097 L756.555009 490.925070 L772.793204 474.392105 L760.769229 462.582508 L769.626426 453.564528 L781.650401 465.374124 L797.888596 448.841159 L798.156569 478.633123 L804.061367 472.621135 L810.972237 495.649613 L814.662736 491.892121 Z" fill="#888" fill-opacity="0.18" stroke="#000" stroke-width="1"/>
  <path d="M581.997610 941.929101 L556.615073 931.644325 L560.318179 927.899257 L537.191075 921.325979 L543.116045 915.333872 L513.323349 915.501715 L529.617018 899.023418 L517.632802 887.173477 L526.520258 878.185316 L538.504474 890.035257 L554.798143 873.556960 L554.965986 903.349656 L560.890957 897.357548 L567.724392 920.409122 L571.427499 916.664055 Z" fill="#888" fill-opacity="0.18" stroke="#000" stroke-width="1"/>
  <path d="M820.371292 393.889929 L834.508605 417.345977 L829.299150 418.120645 L843.858620 437.254196 L835.523492 438.493663 L859.459980 456.232813 L836.538379 459.641349 L839.017315 476.311604 L826.514623 478.170806 L824.035688 461.500551 L801.114087 464.909087 L818.853237 440.972599 L810.518109 442.212066 L818.880240 419.669979 L813.670786 420.444647 Z" fill="#888" fill-opacity="0.18" stroke="#000" stroke-width="1"/>
  <path d="M299.360002 107.760452 L313.578371 84.353449 L316.681805 88.608707 L326.875281 66.833400 L331.840777 73.641813 L336.448069 44.207042 L350.103183 62.930177 L363.720008 52.999185 L371.168252 63.211805 L357.551426 73.142796 L371.206539 91.865931 L341.771768 87.258638 L346.737264 94.067051 L322.888675 97.119223 L325.992110 101.374481 Z" fill="#888" fill-opacity="0.18" stroke="#000" stroke-width="1"/>
  <path d="M707.039941 794.996187 L728.304795 777.737689 L729.795590 782.789031 L746.721211 765.712900 L749.106482 773.795047 L763.348674 747.626500 L769.908170 769.852406 L786.072465 765.081864 L789.650372 777.205085 L773.486077 781.975628 L780.045573 804.201534 L753.877025 789.959343 L756.262296 798.041491 L732.777179 792.891716 L734.267973 797.943058 Z" fill="#888" fill-opacity="0.18" stroke="#000" stroke-width="1"/>
  <path d="M159.351560 740.046487 L142.505600 718.453353 L147.584704 717.060071 L130.837548 699.808877 L138.964114 697.579626 L113.074572 682.836338 L135.422628 676.705898 L130.964126 660.452767 L143.153975 657.108890 L147.612477 673.362022 L169.960533 667.231582 L155.217246 693.121124 L163.343812 690.891873 L157.742911 714.273508 L162.822015 712.880226 Z" fill="#888" fill-opacity="0.18" stroke="#000" stroke-width="1"/>
  <path d="M448.897194 841.616521 L473.957462 830.569677 L474.064870 835.835319 L494.891143 823.821273 L495.062996 832.246301 L515.695934 810.754099 L516.168529 833.922926 L533.018586 833.579220 L533.276365 846.216762 L516.426309 846.560468 L516.898905 869.729295 L495.406702 849.096358 L495.578555 857.521386 L474.279687 846.366604 L474.387095 851.632247 Z" fill="#888" fill-opacity="0.18" stroke="#000" stroke-width="1"/>
  <path d="M413.381965 818.212170 L430.919365 839.247602 L425.888120 840.804875 L443.185950 857.503856 L435.135958 859.995493 L461.490030 873.891383 L439.352550 880.743383 L444.335823 896.843369 L432.260834 900.580823 L427.277561 884.480838 L405.140082 891.332838 L419.035972 864.978765 L410.985980 867.470402 L415.825629 843.919420 L410.794383 845.476693 Z" fill="#888" fill-opacity="0.18" stroke="#000" stroke-width="1"/>
  <path d="M705.780339 739.814347 L678.402837 739.091735 L680.556074 734.285271 L656.593095 736.246542 L660.038276 728.556199 L632.199469 739.169105 L641.673714 718.020663 L626.293030 711.130303 L631.460800 699.594790 L646.841485 706.485150 L656.315730 685.336708 L666.928636 713.175514 L670.373816 705.485172 L684.862549 724.672343 L687.015787 719.865879 Z" fill="#888" fill-opacity="0.18" stroke="#000" stroke-width="1"/>
  <path d="M833.185291 683.485820 L858.184622 694.669883 L854.350222 698.280411 L877.228011 705.674848 L871.092972 711.451692 L900.872680 712.347181 L884.001322 728.233501 L895.555010 740.503580 L886.352451 749.168846 L874.798763 736.898767 L857.927405 752.785088 L858.822893 723.005380 L852.687854 728.782224 L846.681423 705.501466 L842.847024 709.111993 Z" fill="#888" fill-opacity="0.18" stroke="#000" stroke-width="1"/>
  <path d="M441.947014 518.514540 L467.147363 529.237982 L463.379863 532.918263 L486.389487 539.891648 L480.361486 545.780097 L510.152612 546.128977 L493.575609 562.322212 L505.352508 574.378215 L496.310506 583.210888 L484.533607 571.154886 L467.956604 587.348122 L468.305484 557.556996 L462.277483 563.445445 L455.844861 540.278824 L452.077361 543.959105 Z" fill="#888" fill-opacity="0.18" stroke="#000" stroke-width="1"/>
  <path d="M235.077906 985.729616 L225.484728 1011.381531 L221.640688 1007.781269 L215.696528 1031.078004 L209.546064 1025.317585 L210.521175 1055.094792 L193.607400 1039.253639 L182.086561 1051.554566 L172.860866 1042.913938 L184.381704 1030.613010 L167.467930 1014.771857 L197.245137 1013.796747 L191.094673 1008.036327 L213.952609 1000.580745 L210.108569 996.980483 Z" fill="#888" fill-opacity="0.18" stroke="#000" stroke-width="1"/>
  <path d="M43.738004 1052.274237 L53.667904 1026.750779 L57.464235 1030.401313 L63.714442 1007.184813 L69.788572 1013.025668 L69.205382 983.238207 L85.909240 999.300556 L97.590948 987.152296 L106.702143 995.913577 L95.020435 1008.061837 L111.724292 1024.124186 L81.936832 1024.707376 L88.010962 1030.548230 L65.056898 1037.702380 L68.853229 1041.352914 Z" fill="#888" fill-opacity="0.18" stroke="#000" stroke-width="1"/>
  <path d="M425.158348 730.717717 L417.953701 704.295324 L423.176955 704.970711 L414.387347 682.591843 L422.744553 683.672464 L404.553088 660.077898 L427.535405 663.049603 L429.696645 646.335191 L442.232454 647.956122 L440.071214 664.670534 L463.053531 667.642239 L439.458965 685.833704 L447.816171 686.914324 L433.623463 706.321486 L438.846716 706.996874 Z" fill="#888" fill-opacity="0.18" stroke="#000" stroke-width="1"/>
  <path d="M120.284499 460.897983 L110.194356 435.437449 L115.460290 435.529475 L104.243339 414.263282 L112.668833 414.410523 L91.973202 392.978684 L115.143311 393.383598 L115.437794 376.532610 L128.076035 376.753472 L127.781552 393.604461 L150.951661 394.009375 L129.519822 414.705007 L137.945316 414.852248 L125.992157 435.713527 L131.258091 435.805553 Z" fill="#888" fill-opacity="0.18" stroke="#000" stroke-width="1"/>
  <path d="M1013.936153 373.627121 L1007.028985 347.125408 L1012.244316 347.859469 L1003.706833 325.383208 L1012.051363 326.557706 L994.126283 302.760135 L1017.073742 305.990005 L1019.422738 289.300944 L1031.939534 291.062692 L1029.590537 307.751753 L1052.537996 310.981623 L1028.740424 328.906703 L1037.084954 330.081201 L1022.674979 349.327592 L1027.890311 350.061653 Z" fill="#888" fill-opacity="0.18" stroke="#000" stroke-width="1"/>
  <path d="M326.001020 800.956237 L350.635133 812.923287 L346.688754 816.411070 L369.321917 824.523461 L363.007712 830.103913 L392.744355 831.938296 L375.380290 847.284539 L386.541195 859.912950 L377.069887 868.283628 L365.908983 855.655217 L348.544919 871.001461 L350.379301 841.264818 L344.065096 846.845270 L338.795998 823.386635 L334.849620 826.874418 Z" fill="#888" fill-opacity="0.18" stroke="#000" stroke-width="1"/>
  <path d="M445.667865 255.592433 L418.338834 253.810904 L420.676460 249.091366 L396.655533 250.123845 L400.395735 242.572585 L372.167081 252.100231 L382.452635 231.334267 L367.350115 223.853864 L372.960417 212.526974 L388.062937 220.007377 L398.348491 199.241412 L407.876137 227.470065 L411.616339 219.918806 L425.351712 239.652291 L427.689337 234.932754 Z" fill="#888" fill-opacity="0.18" stroke="#000" stroke-width="1"/>
  <path d="M411.025107 840.336979 L387.199973 826.830951 L391.359707 823.600604 L369.286904 814.068432 L375.942478 808.899877 L346.382154 805.182330 L364.684983 790.968803 L354.347872 777.657655 L364.331233 769.904821 L374.668344 783.215970 L392.971173 769.002442 L389.253626 798.562766 L395.909200 793.394210 L399.679175 817.139909 L403.838909 813.909562 Z" fill="#888" fill-opacity="0.18" stroke="#000" stroke-width="1"/>
  <path d="M510.351879 958.043054 L527.625113 979.295941 L522.574805 980.790236 L539.662664 997.704017 L531.582172 1000.094890 L557.760585 1014.318939 L535.539230 1020.893840 L540.320976 1037.054825 L528.200237 1040.641134 L523.418492 1024.480149 L501.197137 1031.055049 L515.421186 1004.876636 L507.340694 1007.267509 L512.474189 983.778827 L507.423881 985.273123 Z" fill="#888" fill-opacity="0.18" stroke="#000" stroke-width="1"/>
  <path d="M434.233301 261.338447 L424.187043 286.816330 L420.407409 283.148511 L414.051332 306.336250 L408.003917 300.467741 L408.451182 330.257552 L391.820790 314.119152 L380.083772 326.213983 L371.012649 317.411219 L382.749667 305.316389 L366.119274 289.177989 L395.909086 288.730723 L389.861670 282.862214 L412.848139 275.812875 L409.068505 272.145057 Z" fill="#888" fill-opacity="0.18" stroke="#000" stroke-width="1"/>
  <path d="M984.470805 58.810276 L961.629424 73.920575 L960.636573 68.748266 L942.131610 84.098746 L940.543049 75.823053 L923.825216 100.483688 L919.456674 77.725530 L902.905287 80.902651 L900.522446 68.489111 L917.073834 65.311990 L912.705292 42.553832 L937.365928 59.271665 L935.777368 50.995971 L958.650873 58.403649 L957.658023 53.231340 Z" fill="#888" fill-opacity="0.18" stroke="#000" stroke-width="1"/>
  <path d="M514.934160 696.977602 L530.205687 719.711503 L525.040533 720.740923 L540.521555 739.136817 L532.257307 740.783889 L557.035607 757.326826 L534.308927 761.856276 L537.603073 778.384770 L525.206702 780.855379 L521.912556 764.326885 L499.185876 768.856335 L515.728813 744.078035 L507.464565 745.725107 L514.710224 722.799764 L509.545069 723.829184 Z" fill="#888" fill-opacity="0.18" stroke="#000" stroke-width="1"/>
  <path d="M341.126027 470.050790 L322.015079 450.433923 L326.910895 448.492399 L308.374003 433.180490 L316.207308 430.074051 L288.857948 418.256885 L310.399537 409.714178 L304.186659 394.047568 L315.936617 389.387909 L322.149495 405.054520 L343.691084 396.511813 L331.873918 423.861173 L339.707223 420.754734 L336.702526 444.609350 L341.598342 442.667826 Z" fill="#888" fill-opacity="0.18" stroke="#000" stroke-width="1"/>
  <path d="M533.768785 349.434131 L518.501588 326.697322 L523.666939 325.668885 L508.189421 307.270043 L516.453982 305.624545 L491.678834 289.076889 L514.406376 284.551768 L511.115379 268.022646 L523.512221 265.554398 L526.803218 282.083520 L549.530760 277.558399 L532.983104 302.333548 L541.247665 300.688049 L533.997640 323.612012 L539.162991 322.583575 Z" fill="#888" fill-opacity="0.18" stroke="#000" stroke-width="1"/>
  <path d="M54.499111 49.373204 L80.544283 57.840718 L77.114756 61.837826 L100.648147 66.762298 L95.160903 73.157670 L124.867444 70.887348 L109.777524 88.474622 L122.568269 99.449110 L114.337404 109.042168 L101.546659 98.067681 L86.456739 115.654956 L84.186416 85.948416 L78.699173 92.343788 L70.255701 69.832042 L66.826174 73.829150 Z" fill="#888" fill-opacity="0.18" stroke="#000" stroke-width="1"/>
  <path d="M739.271599 475.847581 L719.813398 456.575108 L724.673763 454.546468 L705.866401 439.568015 L713.642985 436.322191 L686.086965 424.995290 L707.472572 416.069275 L700.980924 400.516107 L712.645801 395.647371 L719.137448 411.200539 L740.523054 402.274524 L729.196153 429.830544 L736.972737 426.584720 L734.394493 450.489188 L739.254858 448.460548 Z" fill="#888" fill-opacity="0.18" stroke="#000" stroke-width="1"/>
  <path d="M133.363001 709.952185 L138.624484 736.829063 L133.464277 735.775119 L140.600957 758.734622 L132.344626 757.048312 L148.769677 781.904913 L126.064769 777.267560 L122.692149 793.780221 L110.307653 791.250756 L113.680273 774.738095 L90.975365 770.100743 L115.831966 753.675692 L107.575635 751.989382 L123.143864 733.667232 L117.983658 732.613288 Z" fill="#888" fill-opacity="0.18" stroke="#000" stroke-width="1"/>
  <path d="M684.792035 363.037182 L678.189691 336.457889 L683.396248 337.251799 L675.117465 314.678968 L683.447956 315.949225 L665.797370 291.947356 L688.706221 295.440562 L691.246734 278.779580 L703.742471 280.684965 L701.201957 297.345947 L724.110807 300.839153 L700.108938 318.489739 L708.439429 319.759996 L693.809362 338.839620 L699.015919 339.633530 Z" fill="#888" fill-opacity="0.18" stroke="#000" stroke-width="1"/>
  <path d="M194.594682 130.164289 L179.870610 107.072050 L185.058883 106.166315 L170.021745 87.405841 L178.322981 85.956665 L153.946952 68.826513 L176.775351 64.841281 L173.877000 48.238808 L186.328854 46.065045 L189.227205 62.667517 L212.055605 58.682285 L194.925453 83.058314 L203.226689 81.609139 L195.435428 104.354846 L200.623701 103.449111 Z" fill="#888" fill-opacity="0.18" stroke="#000" stroke-width="1"/>
  <path d="M229.665792 598.870940 L225.178600 625.887877 L220.714587 623.093040 L219.356067 647.097735 L212.213646 642.625995 L218.890350 671.661397 L199.248692 659.364113 L190.305213 673.648955 L179.591581 666.941346 L188.535060 652.656504 L168.893402 640.359220 L197.928804 633.682516 L190.786383 629.210777 L211.786560 617.503366 L207.322547 614.708529 Z" fill="#888" fill-opacity="0.18" stroke="#000" stroke-width="1"/>
  <path d="M275.617262 382.050686 L261.857527 405.730203 L258.671795 401.536203 L248.904407 423.505933 L243.807234 416.795533 L239.774165 446.314464 L225.756941 427.860864 L212.336141 438.055208 L204.690383 427.989608 L218.111183 417.795264 L204.093959 399.341664 L233.612890 403.374733 L228.515718 396.664333 L252.300330 393.148203 L249.114597 388.954203 Z" fill="#888" fill-opacity="0.18" stroke="#000" stroke-width="1"/>
  <path d="M204.463019 762.597682 L189.301764 739.790092 L194.471844 738.785697 L179.080089 720.315049 L187.352216 718.708017 L162.654319 702.045280 L185.402667 697.625942 L182.188603 681.081689 L194.596793 678.671140 L197.810857 695.215394 L220.559206 690.796056 L203.896469 715.493953 L212.168596 713.886921 L204.812002 736.776906 L209.982081 735.772511 Z" fill="#888" fill-opacity="0.18" stroke="#000" stroke-width="1"/>
  <path d="M360.971181 528.328495 L369.444644 554.371732 L364.194849 553.949623 L374.055959 575.877446 L365.656287 575.202070 L384.967029 597.889691 L361.867929 596.032408 L360.517178 612.831753 L347.917669 611.818689 L349.268420 595.019344 L326.169321 593.162060 L348.856942 573.851318 L340.457269 573.175943 L353.695258 553.105403 L348.445463 552.683293 Z" fill="#888" fill-opacity="0.18" stroke="#000" stroke-width="1"/>
  <path d="M480.122077 642.693790 L452.876421 639.914569 L455.384985 635.283626 L431.342372 635.437445 L435.356074 628.027936 L406.798045 636.517453 L417.835727 616.141303 L403.016709 608.113898 L409.037262 596.999634 L423.856281 605.027039 L434.893962 584.650889 L443.383479 613.208918 L447.397181 605.799409 L460.402113 626.021740 L462.910677 621.390797 Z" fill="#888" fill-opacity="0.18" stroke="#000" stroke-width="1"/>
  <path d="M912.073810 543.444895 L887.655023 531.044384 L891.662421 527.626886 L869.176153 519.115793 L875.587989 513.647796 L845.888406 511.288199 L863.520955 496.251207 L852.584960 483.427535 L862.202713 475.225539 L873.138708 488.049211 L890.771256 473.012218 L888.411660 502.711801 L894.823496 497.243804 L899.677215 520.791889 L903.684613 517.374391 Z" fill="#888" fill-opacity="0.18" stroke="#000" stroke-width="1"/>
  <path d="M282.289743 722.285339 L282.546068 749.671177 L277.665717 747.691098 L280.482174 771.568671 L272.673614 768.400546 L284.274701 795.842260 L262.801161 787.129916 L256.464910 802.747036 L244.752069 797.994848 L251.088320 782.377727 L229.614779 773.665383 L257.056493 762.064295 L249.247933 758.896170 L267.905017 743.730942 L263.024667 741.750863 Z" fill="#888" fill-opacity="0.18" stroke="#000" stroke-width="1"/>
  <path d="M128.714745 635.638129 L141.654026 611.500507 L144.981764 615.582748 L153.989705 593.290868 L159.314085 599.822453 L162.332098 570.182539 L176.974144 588.144399 L190.037315 577.495639 L198.023885 587.293017 L184.960714 597.941777 L199.602759 615.903637 L169.962845 612.885624 L175.287225 619.417210 L151.637239 623.747230 L154.964977 627.829471 Z" fill="#888" fill-opacity="0.18" stroke="#000" stroke-width="1"/>
  <path d="M1022.906227 721.068933 L995.618856 723.403283 L997.222771 718.386712 L973.627874 723.007508 L976.194138 714.980994 L949.712194 728.631618 L956.769420 706.558706 L940.716393 701.426178 L944.565789 689.386407 L960.618816 694.518935 L967.676042 672.446023 L981.326666 698.927967 L983.892930 690.901453 L1000.430601 708.353570 L1002.034516 703.336999 Z" fill="#888" fill-opacity="0.18" stroke="#000" stroke-width="1"/>
  <path d="M955.639598 376.441209 L930.011857 386.098783 L930.193038 380.835162 L908.739958 391.690405 L909.029847 383.268612 L887.250642 403.598372 L888.047837 380.438441 L871.204251 379.858663 L871.639085 367.225974 L888.482671 367.805752 L889.279865 344.645821 L909.609625 366.425026 L909.899514 358.003233 L930.555399 370.307921 L930.736580 365.044301 Z" fill="#888" fill-opacity="0.18" stroke="#000" stroke-width="1"/>
  <path d="M293.782176 637.891640 L311.352559 658.899529 L306.323764 660.464694 L323.647774 677.136515 L315.601701 679.640779 L341.977544 693.495302 L319.850842 700.382028 L324.859370 716.474174 L312.790260 720.230570 L307.781733 704.138424 L285.655031 711.025149 L299.509554 684.649306 L291.463481 687.153570 L296.266172 663.595024 L291.237376 665.160189 Z" fill="#888" fill-opacity="0.18" stroke="#000" stroke-width="1"/>
  <path d="M710.035872 609.183843 L735.120545 598.192527 L735.216291 603.458395 L756.069120 591.490502 L756.222313 599.915890 L776.902800 578.469436 L777.324082 601.639254 L794.174858 601.332867 L794.404648 613.970949 L777.553872 614.277336 L777.975154 637.447153 L756.528700 616.766666 L756.681894 625.192054 L735.407782 613.990130 L735.503528 619.255997 Z" fill="#888" fill-opacity="0.18" stroke="#000" stroke-width="1"/>
  <path d="M491.451702 874.491943 L489.403772 901.802303 L484.707253 899.418768 L485.505455 923.448621 L477.991025 919.634965 L487.242961 947.955180 L466.578278 937.467627 L458.950966 952.496487 L447.679321 946.776003 L455.306632 931.747143 L434.641949 921.259589 L462.962164 912.007653 L455.447734 908.193997 L475.314215 894.651699 L470.617696 892.268164 Z" fill="#888" fill-opacity="0.18" stroke="#000" stroke-width="1"/>
  <path d="M43.151862 778.140807 L52.261263 752.313136 L56.172284 755.840520 L61.677573 732.436189 L67.935208 738.080003 L66.400658 708.326381 L83.609153 723.846871 L94.896782 711.331602 L104.283234 719.797324 L92.995605 732.312593 L110.204099 747.833083 L80.450477 749.367632 L86.708111 755.011447 L63.994327 762.895288 L67.905349 766.422672 Z" fill="#888" fill-opacity="0.18" stroke="#000" stroke-width="1"/>
  <path d="M278.296851 904.446661 L252.744678 914.302433 L252.885086 909.037567 L231.516724 920.058640 L231.741377 911.634854 L210.120280 932.132685 L210.738076 908.967275 L193.890505 908.517968 L194.227485 895.882290 L211.075056 896.331596 L211.692852 873.166186 L232.190683 894.787283 L232.415336 886.363497 L253.165902 898.507835 L253.306311 893.242969 Z" fill="#888" fill-opacity="0.18" stroke="#000" stroke-width="1"/>
  <path d="M374.193177 1044.694645 L390.607234 1022.771403 L393.284876 1027.306683 L405.535181 1006.618499 L409.819409 1013.874946 L417.249958 985.023259 L429.031584 1004.978489 L443.544478 996.410034 L449.970820 1007.294705 L435.457925 1015.863160 L447.239551 1035.818390 L418.387864 1028.387841 L422.672092 1035.644288 L398.640161 1036.377242 L401.317803 1040.912522 Z" fill="#888" fill-opacity="0.18" stroke="#000" stroke-width="1"/>
  <path d="M842.241977 775.389145 L818.293650 762.102782 L822.423502 758.834318 L800.263975 749.505530 L806.871738 744.275989 L777.278478 740.830433 L795.449827 726.449196 L784.990745 713.233669 L794.902389 705.389358 L805.361471 718.604884 L823.532820 704.223646 L820.087265 733.816907 L826.695028 728.587366 L830.683206 752.297392 L834.813058 749.028929 Z" fill="#888" fill-opacity="0.18" stroke="#000" stroke-width="1"/>
  <path d="M980.423940 1014.444770 L953.087839 1012.775226 L955.406108 1008.046151 L931.389613 1009.177038 L935.098845 1001.610517 L906.909465 1011.253740 L917.109851 990.445808 L901.976810 983.027345 L907.540658 971.677564 L922.673699 979.096027 L932.874085 958.288096 L942.517308 986.477476 L946.226540 978.910956 L960.042648 998.588000 L962.360917 993.858925 Z" fill="#888" fill-opacity="0.18" stroke="#000" stroke-width="1"/>
  <path d="M232.148462 462.488739 L244.632672 486.864840 L239.382165 487.278006 L252.585944 507.371068 L244.185133 508.032134 L266.839824 527.381498 L243.737593 529.199427 L245.059724 546.001049 L232.458508 546.992647 L231.136377 530.191026 L208.034147 532.008955 L227.383511 509.354264 L218.982700 510.015330 L228.881151 488.104337 L223.630644 488.517503 Z" fill="#888" fill-opacity="0.18" stroke="#000" stroke-width="1"/>
  <path d="M106.930621 113.298134 L134.196360 110.723395 L132.636718 115.753907 L156.189976 110.925352 L153.694548 118.974170 L180.055163 105.090694 L173.192737 127.224944 L189.290373 132.215800 L185.547231 144.289027 L169.449595 139.298171 L162.587168 161.432421 L148.703693 135.071806 L146.208265 143.120624 L129.517433 125.814929 L127.957791 130.845441 Z" fill="#888" fill-opacity="0.18" stroke="#000" stroke-width="1"/>
  <path d="M137.366998 861.708823 L161.938626 849.613993 L162.268209 854.870409 L182.568788 841.987962 L183.096121 850.398227 L202.803451 828.054233 L204.253616 851.182461 L221.074146 850.127795 L221.865145 862.743192 L205.044616 863.797858 L206.494781 886.926086 L184.150787 867.218756 L184.678120 875.629021 L162.927375 865.383239 L163.256958 870.639655 Z" fill="#888" fill-opacity="0.18" stroke="#000" stroke-width="1"/>
  <path d="M718.646237 560.450200 L691.988937 554.170220 L695.075420 549.902650 L671.214879 546.945370 L676.153252 540.117259 L646.737041 544.841604 L660.317567 526.064298 L646.661345 516.187552 L654.068905 505.945385 L667.725127 515.822131 L681.305653 497.044825 L686.029999 526.461036 L690.968372 519.632925 L701.248387 541.367511 L704.334870 537.099941 Z" fill="#888" fill-opacity="0.18" stroke="#000" stroke-width="1"/>
  <path d="M1047.727118 417.361557 L1045.185305 444.630385 L1040.532688 442.162250 L1040.895906 466.202612 L1033.451719 462.253597 L1042.189647 490.736601 L1021.718134 479.876809 L1013.820103 494.765181 L1002.653824 488.841658 L1010.551855 473.953285 L990.080342 463.093493 L1018.563347 454.355566 L1011.119161 450.406550 L1031.227455 437.225981 L1026.574839 434.757846 Z" fill="#888" fill-opacity="0.18" stroke="#000" stroke-width="1"/>
  <path d="M113.617985 289.581648 L137.900823 302.246306 L133.856591 305.620134 L156.249214 314.374641 L149.778442 319.772765 L179.450682 322.454382 L161.656061 337.299225 L172.452311 350.240767 L162.746154 358.337955 L151.949904 345.396412 L134.155283 360.241255 L136.836900 330.569015 L130.366128 335.967140 L125.768127 312.367790 L121.723895 315.741618 Z" fill="#888" fill-opacity="0.18" stroke="#000" stroke-width="1"/>
  <path d="M820.248740 598.025212 L803.002965 576.750037 L808.055199 575.262264 L790.989195 558.326430 L799.072769 555.945994 L772.912746 541.688151 L795.142572 535.141952 L790.381701 518.974806 L802.507061 515.404152 L807.267932 531.571298 L829.497759 525.025100 L815.239915 551.185123 L823.323489 548.804687 L818.159665 572.286719 L823.211898 570.798947 Z" fill="#888" fill-opacity="0.18" stroke="#000" stroke-width="1"/>
  <path d="M632.945647 626.947937 L606.184962 632.771639 L607.130509 627.590475 L584.325646 635.206848 L585.838522 626.916984 L561.331673 643.859454 L565.492081 621.062329 L548.912354 618.036578 L551.181667 605.601783 L567.761395 608.627534 L571.921803 585.830409 L588.864273 610.337257 L590.377149 602.047393 L609.021604 617.228145 L609.967151 612.046980 Z" fill="#888" fill-opacity="0.18" stroke="#000" stroke-width="1"/>
  <path d="M816.630581 366.704841 L804.681207 391.347533 L801.190594 387.403658 L793.094442 410.042635 L787.509461 403.732434 L785.696413 433.470386 L770.337716 416.117336 L757.717316 427.287297 L749.339845 417.821997 L761.960245 406.652036 L746.601549 389.298986 L776.339500 391.112034 L770.754520 384.801834 L794.209368 379.515908 L790.718755 375.572033 Z" fill="#888" fill-opacity="0.18" stroke="#000" stroke-width="1"/>
  <path d="M125.120361 920.816706 L102.711829 936.561784 L101.574280 931.419361 L83.507196 947.282885 L81.687118 939.055008 L65.667621 964.174893 L60.662408 941.548233 L44.206655 945.188388 L41.476539 932.846573 L57.932292 929.206418 L52.927079 906.579758 L78.046963 922.599255 L76.226886 914.371379 L99.299184 921.134516 L98.161635 915.992093 Z" fill="#888" fill-opacity="0.18" stroke="#000" stroke-width="1"/>
  <path d="M685.236963 438.359511 L705.860805 456.379137 L701.136623 458.707362 L720.842722 472.481997 L713.284030 476.207157 L741.493657 485.790988 L720.707255 496.035176 L728.157573 511.152560 L716.819535 516.740298 L709.369217 501.622915 L688.582815 511.867102 L698.166646 483.657475 L690.607955 487.382634 L691.688258 463.363811 L686.964076 465.692035 Z" fill="#888" fill-opacity="0.18" stroke="#000" stroke-width="1"/>
  <path d="M985.693021 118.651351 L990.373205 91.667176 L994.817127 94.493849 L996.347188 70.499478 L1003.457464 75.022154 L996.988464 45.939772 L1016.541724 58.377132 L1025.587077 44.156579 L1036.252492 50.940594 L1027.207139 65.161147 L1046.760399 77.598506 L1017.678017 84.067507 L1024.788294 88.590183 L1003.704973 100.147194 L1008.148896 102.973867 Z" fill="#888" fill-opacity="0.18" stroke="#000" stroke-width="1"/>
  <path d="M1000.825951 486.769829 L977.898887 501.749800 L976.935509 496.571921 L958.343424 511.816766 L956.802019 503.532159 L939.944014 528.097186 L935.705152 505.314518 L919.135939 508.397327 L916.823832 495.970417 L933.393045 492.887608 L929.154184 470.104941 L953.719211 486.962946 L952.177806 478.678340 L975.008754 486.216163 L974.045376 481.038284 Z" fill="#888" fill-opacity="0.18" stroke="#000" stroke-width="1"/>
  <path d="M710.013598 797.765010 L698.485174 822.607418 L694.927973 818.723496 L687.218127 841.496928 L681.526605 835.282653 L680.219721 865.047144 L664.568037 847.957887 L652.139486 859.340930 L643.602204 850.019517 L656.030755 838.636475 L640.379071 821.547218 L670.143563 822.854102 L664.452041 816.639827 L687.813571 810.955652 L684.256370 807.071730 Z" fill="#888" fill-opacity="0.18" stroke="#000" stroke-width="1"/>
  <path d="M140.033471 470.099113 L160.589007 452.001606 L162.281202 456.989091 L178.508311 439.247844 L181.215824 447.227819 L194.396981 420.509099 L201.842640 442.454032 L217.802591 437.039007 L221.863860 449.008970 L205.903909 454.423995 L213.349568 476.368928 L186.630849 463.187770 L189.338361 471.167746 L165.665593 466.964060 L167.357788 471.951545 Z" fill="#888" fill-opacity="0.18" stroke="#000" stroke-width="1"/>
  <path d="M85.639114 360.013954 L92.307962 386.576640 L87.099434 385.795763 L95.434689 408.347802 L87.101044 407.098400 L104.811649 431.056016 L81.894127 427.620160 L79.395322 444.287448 L66.894856 442.413344 L69.393661 425.746056 L46.476139 422.310199 L70.433756 404.599595 L62.100112 403.350192 L76.682379 384.234010 L71.473851 383.453134 Z" fill="#888" fill-opacity="0.18" stroke="#000" stroke-width="1"/>
  <path d="M799.601751 321.892508 L818.432959 302.006950 L820.570099 306.820593 L835.122964 287.682019 L838.542388 295.383848 L849.248402 267.580716 L858.651817 288.760746 L874.055476 281.921899 L879.184611 293.474642 L863.780953 300.313490 L873.184368 321.493520 L845.381236 310.787507 L848.800659 318.489336 L824.844379 316.447880 L826.981519 321.261523 Z" fill="#888" fill-opacity="0.18" stroke="#000" stroke-width="1"/>
  <path d="M623.031284 258.318897 L605.360745 237.395182 L610.382006 235.806012 L592.978551 219.217140 L601.012570 216.674468 L574.570844 202.946102 L596.664394 195.953754 L591.579050 179.885717 L603.630078 176.071709 L608.715422 192.139746 L630.808973 185.147398 L617.080607 211.589124 L625.114625 209.046452 L620.424530 232.627672 L625.445791 231.038502 Z" fill="#888" fill-opacity="0.18" stroke="#000" stroke-width="1"/>
  <path d="M1029.233827 587.354076 L1009.644702 568.214692 L1014.491126 566.152967 L995.582096 551.303067 L1003.336374 548.004308 L975.703782 536.865512 L997.028045 527.793925 L990.430527 512.285370 L1002.061943 507.337231 L1008.659461 522.845786 L1029.983725 513.774198 L1018.844929 541.406790 L1026.599206 538.108031 L1024.183972 562.029519 L1029.030396 559.967794 Z" fill="#888" fill-opacity="0.18" stroke="#000" stroke-width="1"/>
  <path d="M122.940947 666.316645 L97.551805 656.048185 L101.252503 652.300738 L78.121179 645.742326 L84.042297 639.746412 L54.249715 639.933404 L70.532789 623.444638 L58.540959 611.602403 L67.422636 602.608530 L79.414466 614.450766 L95.697540 597.962000 L95.884533 627.754582 L101.805650 621.758667 L108.653901 644.805844 L112.354599 641.058398 Z" fill="#888" fill-opacity="0.18" stroke="#000" stroke-width="1"/>
  <path d="M767.389662 725.540057 L769.794500 698.258808 L774.459453 700.703546 L773.975510 676.665311 L781.439434 680.576892 L772.558576 652.138129 L793.084368 662.894977 L800.907530 647.967128 L812.103417 653.834500 L804.280254 668.762349 L824.806046 679.519197 L796.367283 688.400055 L803.831207 692.311636 L783.789358 705.593022 L788.454311 708.037761 Z" fill="#888" fill-opacity="0.18" stroke="#000" stroke-width="1"/>
  <path d="M86.357464 474.699203 L113.180555 480.228362 L110.215091 484.580896 L134.149248 486.867177 L129.404505 493.831232 L158.676497 488.282952 L145.628455 507.434101 L159.556564 516.923586 L152.439451 527.369667 L138.511342 517.880183 L125.463300 537.031332 L119.915020 507.759340 L115.170278 514.723395 L104.284163 493.285964 L101.318699 497.638498 Z" fill="#888" fill-opacity="0.18" stroke="#000" stroke-width="1"/>
  <path d="M662.086753 1024.485716 L635.750044 1016.973887 L639.031486 1012.854340 L615.334127 1008.791574 L620.584434 1002.200299 L590.980478 1005.552717 L605.418824 987.426711 L592.236275 976.926096 L600.111736 967.039184 L613.294286 977.539799 L627.732632 959.413794 L631.085049 989.017750 L636.335357 982.426475 L645.594371 1004.615247 L648.875813 1000.495700 Z" fill="#888" fill-opacity="0.18" stroke="#000" stroke-width="1"/>
  <path d="M823.493614 795.106914 L848.190425 806.944032 L844.262474 810.452555 L866.938057 818.445607 L860.653336 824.059244 L890.399229 825.736955 L873.116246 841.174455 L884.343519 853.743897 L874.916438 862.164352 L863.689165 849.594910 L846.406182 865.032410 L848.083893 835.286517 L841.799172 840.900153 L836.406573 817.469600 L832.478622 820.978123 Z" fill="#888" fill-opacity="0.18" stroke="#000" stroke-width="1"/>
  <path d="M321.800748 255.121359 L298.585257 269.650324 L297.723273 264.454603 L278.836756 279.333125 L277.457581 271.019972 L260.122636 295.250790 L256.329906 272.389620 L239.703600 275.147969 L237.634838 262.678240 L254.261144 259.919891 L250.468414 237.058720 L274.699232 254.393666 L273.320058 246.080513 L295.999305 254.063162 L295.137321 248.867442 Z" fill="#888" fill-opacity="0.18" stroke="#000" stroke-width="1"/>
  <path d="M342.119008 445.768154 L367.717108 436.032287 L367.552018 441.296437 L388.971815 430.375667 L388.707671 438.798307 L410.424631 418.402068 L409.698234 441.564328 L426.543514 442.092616 L426.147298 454.726576 L409.302018 454.198287 L408.575622 477.360546 L388.179383 455.643587 L387.915239 464.066226 L367.221837 451.824736 L367.056747 457.088886 Z" fill="#888" fill-opacity="0.18" stroke="#000" stroke-width="1"/>
  <path d="M727.583951 110.694273 L744.547256 132.195344 L739.475815 133.616266 L756.316671 150.776001 L748.202366 153.049475 L774.171815 167.651551 L751.857477 173.903607 L756.404426 190.132216 L744.232969 193.542429 L739.686019 177.313819 L717.371681 183.565874 L731.973756 157.596425 L723.859451 159.869899 L729.332934 136.458109 L724.261493 137.879031 Z" fill="#888" fill-opacity="0.18" stroke="#000" stroke-width="1"/>
  <path d="M423.152389 310.508201 L447.538838 322.972187 L443.522565 326.379250 L465.986617 334.948804 L459.560580 340.400105 L489.253925 342.836946 L471.582323 357.828023 L482.484924 370.680097 L472.845868 378.857048 L461.943267 366.004974 L444.271665 380.996051 L446.708506 351.302706 L440.282469 356.754007 L435.490018 333.193376 L431.473745 336.600438 Z" fill="#888" fill-opacity="0.18" stroke="#000" stroke-width="1"/>
  <path d="M961.704455 642.200355 L947.200751 665.431635 L944.149614 661.138723 L933.690467 682.787676 L928.808648 675.919017 L923.841547 705.295212 L910.416546 686.406399 L896.679228 696.170037 L889.356499 685.867048 L903.093818 676.103410 L889.668816 657.214598 L919.045011 662.181699 L914.163192 655.313040 L938.047341 652.552899 L934.996204 648.259987 Z" fill="#888" fill-opacity="0.18" stroke="#000" stroke-width="1"/>
  <path d="M306.811676 741.726354 L327.529120 723.814421 L329.176397 728.816921 L345.562386 711.222310 L348.198030 719.226310 L361.618918 692.627200 L368.866940 714.638199 L384.874940 709.366911 L388.828406 721.372910 L372.820407 726.644199 L380.068429 748.655198 L353.469319 735.234310 L356.104963 743.238309 L332.470953 738.821921 L334.118230 743.824420 Z" fill="#888" fill-opacity="0.18" stroke="#000" stroke-width="1"/>
  <path d="M930.750739 952.816753 L908.007693 968.074658 L906.981367 962.908888 L888.576202 978.378886 L886.934081 970.113653 L870.376303 994.882038 L865.860469 972.152649 L849.330004 975.436891 L846.866822 963.039042 L863.397287 959.754800 L858.881453 937.025410 L883.649838 953.583188 L882.007717 945.317956 L904.928715 952.577347 L903.902389 947.411577 Z" fill="#888" fill-opacity="0.18" stroke="#000" stroke-width="1"/>
  <path d="M636.367437 573.496094 L611.362118 562.325427 L615.194582 558.712846 L592.312835 551.330666 L598.444778 545.550536 L568.664595 544.671003 L585.527439 528.775646 L573.967179 516.511759 L583.165094 507.841564 L594.725354 520.105450 L611.588198 504.210093 L610.708665 533.990276 L616.840608 528.210146 L622.859512 551.487683 L626.691976 547.875102 Z" fill="#888" fill-opacity="0.18" stroke="#000" stroke-width="1"/>
  <path d="M294.589483 221.825069 L321.736967 225.439478 L319.087406 229.991220 L343.123408 230.575631 L338.884110 237.858419 L367.689322 230.249695 L356.031254 250.277359 L370.596828 258.755954 L364.237882 269.680135 L349.672308 261.201540 L338.014240 281.229205 L330.405515 252.423993 L326.166218 259.706780 L313.788284 239.094704 L311.138723 243.646446 Z" fill="#888" fill-opacity="0.18" stroke="#000" stroke-width="1"/>
  <path d="M128.908556 255.016393 L104.708181 267.837924 L104.222138 262.593661 L84.314381 276.075210 L83.536713 267.684390 L64.503834 290.605612 L62.365245 267.530857 L45.583605 269.086194 L44.417102 256.499963 L61.198742 254.944626 L59.060154 231.869871 L81.981376 250.902750 L81.203707 242.511930 L103.250052 252.105136 L102.764009 246.860873 Z" fill="#888" fill-opacity="0.18" stroke="#000" stroke-width="1"/>
  <path d="M46.539963 320.779068 L73.809094 323.317624 L71.341515 327.970535 L95.381834 327.604447 L91.433707 335.049104 L119.915668 326.307775 L109.058321 346.780585 L123.947636 354.676837 L118.025447 365.843824 L103.136131 357.947572 L92.278784 378.420381 L83.537455 349.938420 L79.589328 357.383078 L66.406357 337.276358 L63.938778 341.929269 Z" fill="#888" fill-opacity="0.18" stroke="#000" stroke-width="1"/>
  <path d="M507.595250 66.634848 L483.397799 79.461896 L482.910560 74.217745 L463.005878 87.703832 L462.226296 79.313190 L443.198644 102.238750 L441.054794 79.164483 L424.273509 80.723646 L423.104136 68.137682 L439.885422 66.578519 L437.741572 43.504251 L460.667133 62.531904 L459.887552 54.141261 L481.936083 63.729441 L481.448845 58.485289 Z" fill="#888" fill-opacity="0.18" stroke="#000" stroke-width="1"/>
  <path d="M292.190981 917.434017 L278.418618 893.761843 L283.639445 893.067945 L269.378034 873.711213 L277.731358 872.600976 L254.072458 854.493260 L277.044097 851.440109 L274.823624 834.733463 L287.353609 833.068108 L289.574082 849.774754 L312.545720 846.721604 L294.438004 870.380503 L302.791327 869.270267 L294.081099 891.680150 L299.301926 890.986252 Z" fill="#888" fill-opacity="0.18" stroke="#000" stroke-width="1"/>
  <path d="M690.388593 680.285819 L663.028267 681.495104 L664.837294 676.548797 L641.072208 680.194565 L643.966651 672.280474 L616.945317 684.829594 L624.905035 663.065844 L609.076853 657.276959 L613.418517 645.405822 L629.246699 651.194708 L637.206417 629.430958 L649.755537 656.452293 L652.649980 648.538202 L668.455348 666.656184 L670.264374 661.709877 Z" fill="#888" fill-opacity="0.18" stroke="#000" stroke-width="1"/>
  <path d="M818.224187 987.502723 L803.387852 1010.522996 L800.398775 1006.186644 L789.629336 1027.682925 L784.846813 1020.744762 L779.457713 1050.046477 L766.305775 1030.966528 L752.429448 1040.531574 L745.255664 1030.124330 L759.131990 1020.559284 L745.980052 1001.479335 L775.281767 1006.868436 L770.499245 999.930273 L794.420621 997.513940 L791.431545 993.177588 Z" fill="#888" fill-opacity="0.18" stroke="#000" stroke-width="1"/>
  <path d="M743.063052 198.607264 L766.406538 184.284854 L767.222389 189.488018 L786.240174 174.777655 L787.545535 183.102718 L805.094789 159.026659 L808.684531 181.920581 L825.334656 179.309860 L827.292697 191.797454 L810.642572 194.408175 L814.232314 217.302097 L790.156256 199.752843 L791.461617 208.077905 L768.854090 199.894346 L769.669940 205.097510 Z" fill="#888" fill-opacity="0.18" stroke="#000" stroke-width="1"/>
  <path d="M514.080534 607.611002 L525.393006 582.669515 L528.983768 586.522430 L536.495755 563.682970 L542.240973 569.847635 L543.289590 540.072925 L559.088941 557.025754 L571.418271 545.535317 L580.036099 554.782315 L567.706769 566.272752 L583.506120 583.225581 L553.731411 582.176965 L559.476629 588.341630 L536.165291 594.228262 L539.756052 598.081178 Z" fill="#888" fill-opacity="0.18" stroke="#000" stroke-width="1"/>
  <path d="M744.014341 97.655020 L717.622368 104.970317 L718.275864 99.744280 L695.934022 108.627581 L696.979615 100.265920 L673.461481 118.556089 L676.336862 95.561523 L659.613540 93.470337 L661.181930 80.927846 L677.905251 83.019032 L680.780631 60.024465 L699.070801 83.542599 L700.116393 75.180938 L719.582855 89.292204 L720.236350 84.066166 Z" fill="#888" fill-opacity="0.18" stroke="#000" stroke-width="1"/>
  <path d="M996.945374 650.979525 L979.910038 629.535478 L984.976683 628.097552 L968.078359 610.994407 L976.184992 608.693726 L950.166705 594.178848 L972.459945 587.851973 L967.858582 571.638707 L980.018531 568.187685 L984.619895 584.400950 L1006.913135 578.074076 L992.398257 604.092362 L1000.504890 601.791680 L995.109974 625.221700 L1000.176620 623.783774 Z" fill="#888" fill-opacity="0.18" stroke="#000" stroke-width="1"/>
  <path d="M662.148443 607.752090 L687.820812 617.290394 L684.228778 621.142124 L707.538171 627.036455 L701.790917 633.199222 L731.565971 632.160440 L715.761021 649.108050 L728.086556 660.602558 L719.465674 669.846709 L707.140140 658.352200 L691.335190 675.299810 L690.296408 645.524756 L684.549154 651.687524 L677.044710 628.845583 L673.452676 632.697312 Z" fill="#888" fill-opacity="0.18" stroke="#000" stroke-width="1"/>
</svg>
