<?xml version="1.0" encoding="UTF-8"?>
<svg xmlns="http://www.w3.org/2000/svg" width="1100" height="1100" viewBox="0 0 1100 1100">
  <rect x="0" y="0" width="1100" height="1100" fill="white"/>
  <text x="10.0" y="18.0" font-family="monospace" font-size="12">prefix=N22_job5048419_task22 run_id=22 L=3.47202318805 feas=0.000e+00 N=22</text>
  <rect x="40.000000" y="40.000000" width="1020.000000" height="1020.000000" fill="none" stroke="#000" stroke-width="2"/>
  <path d="M576.785471 328.425658 L629.761540 248.993398 L639.943593 264.272601 L678.659888 189.930142 L694.951173 214.376867 L715.339773 112.531843 L760.140806 179.760336 L809.034256 147.177766 L833.471183 183.847854 L784.577734 216.430423 L829.378767 283.658916 L727.533743 263.270316 L743.825028 287.717041 L660.307699 294.831007 L670.489752 310.110210 Z" fill="#888" fill-opacity="0.18" stroke="#000" stroke-width="1"/>
  <path d="M1040.908768 795.059779 L1023.943381 889.017873 L1008.519266 879.056703 L1002.607638 962.667739 L977.929053 946.729866 L999.780833 1048.271009 L931.914726 1004.441860 L900.038980 1053.799029 L863.021104 1029.892220 L894.896849 980.535051 L827.030741 936.705901 L928.571884 914.854121 L903.893300 898.916249 L977.671035 859.134362 L962.246920 849.173192 Z" fill="#888" fill-opacity="0.18" stroke="#000" stroke-width="1"/>
  <path d="M254.959671 497.740380 L177.014543 442.599608 L192.568018 432.841654 L119.318557 392.095252 L144.204117 376.482526 L42.958402 353.300442 L111.393692 310.365445 L80.168240 260.594325 L117.496580 237.175235 L148.722032 286.946355 L217.157322 244.011359 L193.975237 345.257074 L218.860797 329.644348 L223.674968 413.325746 L239.228443 403.567793 Z" fill="#888" fill-opacity="0.18" stroke="#000" stroke-width="1"/>
  <path d="M546.831177 350.098308 L638.741898 324.245508 L636.533022 342.473210 L714.303356 311.207769 L710.769155 340.372092 L792.515465 276.296787 L782.796412 356.498676 L841.125058 363.567078 L835.823756 407.313563 L777.495110 400.245160 L767.776057 480.447049 L703.700752 398.700738 L700.166551 427.865061 L632.115270 378.928614 L629.906394 397.156315 Z" fill="#888" fill-opacity="0.18" stroke="#000" stroke-width="1"/>
  <path d="M398.733950 55.281707 L494.153308 51.950952 L487.686922 69.135657 L570.651793 57.194851 L560.305574 84.690380 L654.909941 41.817104 L626.457841 117.429808 L681.448898 138.122244 L665.929570 179.365537 L610.938513 158.673100 L582.486413 234.285803 L539.613138 139.681436 L529.266919 167.176965 L474.754149 103.505067 L468.287762 120.689773 Z" fill="#888" fill-opacity="0.18" stroke="#000" stroke-width="1"/>
  <path d="M672.781381 978.741701 L581.380526 1006.342999 L583.241306 988.076479 L506.081511 1020.819704 L509.058758 991.593272 L428.549561 1057.216233 L436.736991 976.843546 L378.284127 970.889051 L382.749998 927.049403 L441.202862 933.003898 L449.390292 852.631211 L515.013253 933.140409 L517.990501 903.913977 L586.962865 951.543439 L588.823645 933.276919 Z" fill="#888" fill-opacity="0.18" stroke="#000" stroke-width="1"/>
  <path d="M358.870148 1010.773864 L264.449973 1024.943491 L268.918395 1007.134463 L187.851757 1028.440633 L195.001233 999.946190 L105.891434 1053.308608 L125.552493 974.948889 L68.563606 960.649936 L79.287820 917.908271 L136.276707 932.207223 L155.937767 853.847504 L209.300185 942.957303 L216.449661 914.462859 L277.855240 971.516409 L282.323663 953.707382 Z" fill="#888" fill-opacity="0.18" stroke="#000" stroke-width="1"/>
  <path d="M707.858442 520.386863 L612.381478 520.698884 L619.387996 503.727232 L536.087051 513.038797 L547.297478 485.884154 L451.384802 525.744692 L482.213478 451.069424 L427.904192 428.648569 L444.719834 387.916604 L499.029120 410.337460 L529.857796 335.662192 L569.718334 431.574868 L580.928761 404.420225 L633.401030 469.783928 L640.407548 452.812277 Z" fill="#888" fill-opacity="0.18" stroke="#000" stroke-width="1"/>
  <path d="M52.628507 42.242027 L147.925328 48.112613 L139.834631 64.594993 L223.563687 60.696545 L210.618572 87.068353 L308.910882 53.501620 L273.311815 126.024094 L326.055433 151.914325 L306.637759 191.472038 L253.894142 165.581807 L218.295074 238.104282 L184.728341 139.811971 L171.783225 166.183780 L123.653237 97.559754 L115.562540 114.042135 Z" fill="#888" fill-opacity="0.18" stroke="#000" stroke-width="1"/>
  <path d="M815.360035 42.137886 L896.947064 91.731277 L882.108960 102.546032 L958.011807 138.105988 L934.270840 155.409596 L1036.882275 171.502994 L971.594617 219.087914 L1006.201831 266.569847 L970.590381 292.525258 L935.983167 245.043325 L870.695508 292.628244 L886.788907 190.016810 L863.047940 207.320417 L852.432752 124.175541 L837.594648 134.990295 Z" fill="#888" fill-opacity="0.18" stroke="#000" stroke-width="1"/>
  <path d="M85.328910 714.899166 L70.697590 620.549432 L88.528262 624.930687 L66.825804 543.969240 L95.354879 550.979247 L41.557212 462.131541 L120.012167 481.409063 L134.032183 424.350913 L176.825795 434.865925 L162.805779 491.924074 L241.260735 511.201596 L152.413028 564.999263 L180.942103 572.009271 L124.189605 633.693197 L142.020277 638.074452 Z" fill="#888" fill-opacity="0.18" stroke="#000" stroke-width="1"/>
  <path d="M309.916029 574.502561 L278.932288 484.192231 L297.255405 485.371917 L261.663292 409.484143 L290.980278 411.371640 L222.406556 333.360432 L303.028268 338.551049 L306.803262 279.917077 L350.778741 282.748323 L347.003747 341.382295 L427.625458 346.572913 L349.614250 415.146635 L378.931236 417.034132 L333.901637 487.731288 L352.224753 488.910974 Z" fill="#888" fill-opacity="0.18" stroke="#000" stroke-width="1"/>
  <path d="M244.056185 742.379436 L285.388305 656.312000 L297.609439 670.014997 L325.534934 590.983868 L345.088748 612.908664 L351.016203 509.212139 L404.789192 569.505328 L448.638784 530.397700 L477.969504 563.284894 L434.119913 602.392522 L487.892901 662.685710 L384.196376 656.758256 L403.750190 678.683051 L322.051706 697.420992 L334.272840 711.123989 Z" fill="#888" fill-opacity="0.18" stroke="#000" stroke-width="1"/>
  <path d="M523.897655 597.198941 L610.290785 556.551986 L611.116196 574.894476 L682.670252 531.239352 L683.990910 560.587337 L754.059225 483.915730 L757.691035 564.622687 L816.387004 561.981370 L818.367991 606.003347 L759.672022 608.644663 L763.303833 689.351620 L686.632226 619.283305 L687.952885 648.631289 L612.767019 611.579457 L613.592430 629.921947 Z" fill="#888" fill-opacity="0.18" stroke="#000" stroke-width="1"/>
  <path d="M302.343761 227.163828 L396.707814 212.625146 L392.309055 230.451507 L473.291771 208.828545 L466.253757 237.350724 L555.154238 183.640311 L535.799701 262.076303 L592.844058 276.152330 L582.287038 318.935598 L525.242680 304.859571 L505.888143 383.295563 L452.177730 294.395082 L445.139717 322.917261 L383.511538 266.104231 L379.112780 283.930593 Z" fill="#888" fill-opacity="0.18" stroke="#000" stroke-width="1"/>
  <path d="M559.262578 702.188097 L500.775274 777.654534 L491.704849 761.690335 L447.802989 833.093271 L433.290309 807.550553 L405.715214 907.689048 L365.805344 837.446573 L314.719908 866.471933 L292.950889 828.157856 L344.036325 799.132496 L304.126455 728.890022 L404.264950 756.465118 L389.752270 730.922400 L473.563999 729.761937 L464.493575 713.797739 Z" fill="#888" fill-opacity="0.18" stroke="#000" stroke-width="1"/>
  <path d="M537.020482 903.998655 L554.057523 810.053527 L569.474037 820.026457 L575.449430 736.419954 L600.115852 752.376644 L578.341520 650.818865 L646.174181 694.699761 L678.087559 645.366916 L715.087193 669.301950 L683.173814 718.634795 L751.006475 762.515690 L649.448696 784.290022 L674.115118 800.246712 L600.307064 839.972319 L615.723578 849.945250 Z" fill="#888" fill-opacity="0.18" stroke="#000" stroke-width="1"/>
  <path d="M884.041261 919.099599 L842.123130 833.316044 L860.451433 832.219894 L815.744563 761.318212 L845.069848 759.564371 L767.372031 690.635761 L848.016566 685.812697 L844.508883 627.162127 L888.496811 624.531365 L892.004494 683.181935 L972.649028 678.358871 L903.720419 756.056688 L933.045704 754.302847 L897.108040 830.027592 L915.436343 828.931441 Z" fill="#888" fill-opacity="0.18" stroke="#000" stroke-width="1"/>
  <path d="M562.070987 901.591008 L650.231830 864.935673 L650.217922 883.296720 L723.692709 842.958049 L723.670456 872.335725 L797.170278 798.947169 L797.109082 879.735777 L855.864433 879.780283 L855.831053 923.846796 L797.075702 923.802290 L797.014506 1004.590898 L723.625950 931.091076 L723.603697 960.468751 L650.190106 920.018815 L650.176198 938.379862 Z" fill="#888" fill-opacity="0.18" stroke="#000" stroke-width="1"/>
  <path d="M296.283602 915.571837 L214.332555 866.582308 L229.090389 855.658271 L152.927006 820.659818 L176.539540 803.181358 L73.812056 787.846171 L138.746525 739.780408 L103.789606 692.555339 L139.208408 666.337650 L174.165327 713.562719 L239.099796 665.496955 L223.764609 768.224439 L247.377143 750.745980 L258.606057 833.810197 L273.363891 822.886160 Z" fill="#888" fill-opacity="0.18" stroke="#000" stroke-width="1"/>
  <path d="M791.173484 496.985525 L846.502343 419.173795 L856.222705 434.750791 L897.145894 361.599952 L912.698473 386.523146 L936.125010 285.333714 L978.894603 353.872497 L1028.740991 322.767339 L1052.069859 360.152131 L1002.223471 391.257288 L1044.993063 459.796072 L943.803631 436.369534 L959.356210 461.292728 L875.663428 465.904784 L885.383790 481.481780 Z" fill="#888" fill-opacity="0.18" stroke="#000" stroke-width="1"/>
  <path d="M1056.157918 706.082636 L966.811293 672.420662 L979.395270 659.050106 L898.228295 638.129424 L918.362657 616.736534 L814.544525 619.882855 L869.914021 561.052405 L827.128240 520.783681 L857.329783 488.694345 L900.115564 528.963069 L955.485061 470.132620 L958.631382 573.950752 L978.765744 552.557862 L1004.563222 632.308992 L1017.147199 618.938436 Z" fill="#888" fill-opacity="0.18" stroke="#000" stroke-width="1"/>
</svg>
