<?xml version="1.0" encoding="UTF-8"?>
<svg xmlns="http://www.w3.org/2000/svg" width="1100" height="1100" viewBox="0 0 1100 1100">
  <rect x="0" y="0" width="1100" height="1100" fill="white"/>
  <text x="10.0" y="18.0" font-family="monospace" font-size="12">prefix=N33_job5048430_task33 run_id=33 L=4.44768350712 feas=0.000e+00 N=33</text>
  <rect x="40.000000" y="40.000000" width="1020.000000" height="1020.000000" fill="none" stroke="#000" stroke-width="2"/>
  <path d="M622.859258 916.502892 L568.119347 967.086854 L563.188755 953.628292 L520.201811 1002.959493 L512.312865 981.425795 L478.200985 1054.982406 L456.506383 995.764736 L413.438986 1011.542628 L401.605567 979.242081 L444.672963 963.464188 L422.978361 904.246518 L496.534972 938.358398 L488.646026 916.824700 L553.327572 926.711170 L548.396981 913.252608 Z" fill="#888" fill-opacity="0.18" stroke="#000" stroke-width="1"/>
  <path d="M552.158439 818.552253 L626.402873 811.997933 L622.074909 825.662205 L686.253518 812.912660 L679.328777 834.775495 L751.297720 797.430260 L732.254681 857.553058 L775.980352 871.402541 L765.593240 904.196794 L721.867568 890.347311 L702.824529 950.470109 L665.479294 878.501167 L658.554552 900.364002 L613.418983 852.990750 L609.091019 866.655022 Z" fill="#888" fill-opacity="0.18" stroke="#000" stroke-width="1"/>
  <path d="M996.915081 517.961146 L959.393357 453.561493 L973.600524 451.664120 L934.755265 399.009674 L957.486732 395.973877 L893.068573 346.734704 L955.580106 338.386262 L949.508512 292.923329 L983.605712 288.369634 L989.677306 333.832567 L1052.188838 325.484125 L1002.949664 389.902283 L1025.681131 386.866487 L1002.014857 447.869373 L1016.222023 445.972000 Z" fill="#888" fill-opacity="0.18" stroke="#000" stroke-width="1"/>
  <path d="M1007.164260 618.647985 L953.680354 670.558166 L948.421439 657.224471 L906.656273 707.594260 L898.242009 686.260348 L865.942889 760.630787 L842.803663 701.962530 L800.135840 718.791057 L787.514444 686.790190 L830.182267 669.961662 L807.043042 611.293405 L881.413481 643.592524 L872.999217 622.258613 L937.903609 630.557082 L932.644694 617.223387 Z" fill="#888" fill-opacity="0.18" stroke="#000" stroke-width="1"/>
  <path d="M616.849833 809.847836 L546.093269 786.423410 L555.484924 775.595649 L491.512238 761.850100 L506.538887 744.525683 L425.661220 750.270103 L466.984506 702.627955 L432.335671 672.574657 L454.875645 646.588031 L489.524480 676.641329 L530.847765 628.999181 L536.592186 709.876848 L551.618835 692.552430 L574.268236 753.940127 L583.659892 743.112366 Z" fill="#888" fill-opacity="0.18" stroke="#000" stroke-width="1"/>
  <path d="M905.572257 113.662196 L841.680916 152.043072 L839.593434 137.862591 L787.463973 177.409577 L784.124002 154.720809 L735.752009 219.792659 L726.567087 157.398546 L681.189550 164.078489 L676.179593 130.045336 L721.557130 123.365393 L712.372208 60.971279 L777.444058 109.343271 L774.104087 86.654503 L835.418469 109.501631 L833.330987 95.321150 Z" fill="#888" fill-opacity="0.18" stroke="#000" stroke-width="1"/>
  <path d="M704.320068 642.259845 L632.487601 622.377899 L641.329993 611.097132 L576.753662 600.545252 L590.901489 582.496024 L510.408852 592.249526 L549.315376 542.614150 L513.216921 514.318496 L534.438662 487.244654 L570.537117 515.540308 L609.443641 465.904932 L619.197143 546.397569 L633.344970 528.348341 L659.014777 588.535597 L667.857169 577.254830 Z" fill="#888" fill-opacity="0.18" stroke="#000" stroke-width="1"/>
  <path d="M453.102195 480.907230 L497.326831 420.912425 L504.705743 433.200438 L537.624187 376.651160 L549.430447 396.311981 L569.066848 317.644280 L601.534063 371.711536 L640.855704 348.099017 L658.565093 377.590247 L619.243453 401.202767 L651.710667 455.270023 L573.042967 435.633621 L584.849226 455.294442 L519.463568 457.776463 L526.842481 470.064476 Z" fill="#888" fill-opacity="0.18" stroke="#000" stroke-width="1"/>
  <path d="M943.140976 387.192422 L872.319886 410.421031 L873.434711 396.131147 L813.822563 423.109593 L815.606282 400.245779 L753.987450 452.946015 L758.892678 390.070527 L713.165051 386.503089 L715.840630 352.207368 L761.568257 355.774807 L766.473485 292.899319 L819.173721 354.518152 L820.957440 331.654338 L875.664360 367.551380 L876.779185 353.261497 Z" fill="#888" fill-opacity="0.18" stroke="#000" stroke-width="1"/>
  <path d="M339.554961 207.808053 L403.629449 245.882390 L392.131454 254.440410 L451.659124 281.604747 L433.262331 295.297579 L513.486393 307.057480 L462.895214 344.712769 L490.280878 381.506354 L462.685690 402.045602 L435.300025 365.252017 L384.708846 402.907306 L396.468746 322.683244 L378.071954 336.376076 L369.135463 271.556451 L357.637468 280.114471 Z" fill="#888" fill-opacity="0.18" stroke="#000" stroke-width="1"/>
  <path d="M62.026791 999.771353 L65.791162 925.333294 L78.726589 931.507299 L74.964670 866.182781 L95.661353 876.061189 L68.615667 799.623461 L125.531544 826.789084 L145.288361 785.395718 L176.333385 800.213331 L156.576569 841.606696 L213.492446 868.772319 L137.054719 895.818005 L157.751402 905.696414 L104.597442 943.855309 L117.532869 950.029314 Z" fill="#888" fill-opacity="0.18" stroke="#000" stroke-width="1"/>
  <path d="M641.271525 481.432615 L709.486802 511.463783 L699.110316 521.351764 L761.490506 541.104148 L744.888129 556.924917 L825.945992 558.878937 L780.289457 602.386051 L811.930994 635.590804 L787.027429 659.321957 L755.385892 626.117204 L709.729356 669.624317 L711.683376 588.566454 L695.080999 604.387223 L678.357346 541.127725 L667.980860 551.015705 Z" fill="#888" fill-opacity="0.18" stroke="#000" stroke-width="1"/>
  <path d="M460.513362 48.083121 L534.237827 59.032934 L526.841080 71.310220 L592.223065 73.887179 L580.388270 93.530836 L659.084400 74.008680 L626.538714 128.028737 L665.826028 151.698327 L648.073836 181.163812 L608.786522 157.494222 L576.240836 211.514279 L556.718681 132.818149 L544.883886 152.461806 L512.047586 95.864791 L504.650840 108.142076 Z" fill="#888" fill-opacity="0.18" stroke="#000" stroke-width="1"/>
  <path d="M106.292895 783.817293 L155.587404 727.913389 L161.865130 740.798797 L199.595767 687.339993 L209.640129 707.956647 L236.070858 631.304107 L263.692854 687.999905 L304.926162 667.911180 L319.992705 698.836161 L278.759398 718.924886 L306.381394 775.620684 L229.728853 749.189954 L239.773216 769.806608 L174.420583 766.569615 L180.698309 779.455023 Z" fill="#888" fill-opacity="0.18" stroke="#000" stroke-width="1"/>
  <path d="M345.572861 715.088569 L415.943213 739.648875 L406.378487 750.324063 L470.121634 765.097552 L454.818073 782.177852 L535.777726 777.736003 L493.692934 824.706829 L527.853534 855.313950 L504.898193 880.934401 L470.737593 850.327279 L428.652801 897.298105 L424.210952 816.338453 L408.907391 833.418753 L387.249036 771.674438 L377.684311 782.349626 Z" fill="#888" fill-opacity="0.18" stroke="#000" stroke-width="1"/>
  <path d="M48.931802 192.870002 L102.037826 245.166707 L88.826427 250.725712 L140.127526 291.341497 L118.989287 300.235905 L194.070905 330.845480 L135.940749 355.305104 L153.729566 397.581580 L122.022208 410.923193 L104.233391 368.646716 L46.103236 393.106340 L76.712810 318.024722 L55.574572 326.919131 L62.403628 261.843723 L49.192229 267.402728 Z" fill="#888" fill-opacity="0.18" stroke="#000" stroke-width="1"/>
  <path d="M281.168299 176.290688 L206.922449 182.828946 L211.253368 169.165611 L147.072003 181.901271 L154.001474 160.039934 L82.024453 197.369599 L101.080499 137.250922 L57.357825 123.391980 L67.752031 90.599974 L111.474705 104.458916 L130.530751 44.340240 L167.860416 116.317260 L174.789887 94.455923 L219.915207 141.838939 L224.246126 128.175604 Z" fill="#888" fill-opacity="0.18" stroke="#000" stroke-width="1"/>
  <path d="M940.113539 1042.931320 L865.665417 1046.491124 L870.540017 1033.012182 L805.900129 1043.167454 L813.699489 1021.601147 L740.285320 1056.018515 L761.733560 996.711170 L718.600946 981.112449 L730.299986 948.762988 L773.432601 964.361709 L794.880841 905.054364 L829.298209 978.468532 L837.097569 956.902225 L880.289217 1006.054298 L885.163817 992.575356 Z" fill="#888" fill-opacity="0.18" stroke="#000" stroke-width="1"/>
  <path d="M757.903676 695.969524 L819.294319 738.235161 L807.250816 746.006752 L864.832887 777.083267 L845.563281 789.517812 L924.823659 806.605464 L871.832242 840.800463 L896.701333 879.339675 L867.796924 897.991493 L842.927833 859.452281 L789.936417 893.647280 L807.024069 814.386902 L787.754463 826.821448 L783.163808 761.549933 L771.120304 769.321524 Z" fill="#888" fill-opacity="0.18" stroke="#000" stroke-width="1"/>
  <path d="M50.223608 552.499871 L91.662759 490.548342 L99.595046 502.486618 L129.897118 444.493264 L142.588777 463.594506 L158.612734 384.112255 L193.514795 436.640669 L231.717278 411.257351 L250.754767 439.909213 L212.552284 465.292531 L247.454346 517.820945 L167.972095 501.796988 L180.663754 520.898230 L115.459619 526.363170 L123.391906 538.301446 Z" fill="#888" fill-opacity="0.18" stroke="#000" stroke-width="1"/>
  <path d="M547.525567 652.524598 L621.042431 664.791049 L613.427316 676.934098 L678.752764 680.679848 L666.568581 700.108726 L745.601234 681.996988 L712.094731 735.426403 L750.952487 759.794769 L732.676213 788.938087 L693.818456 764.569721 L660.311953 817.999136 L642.200215 738.966483 L630.016032 758.395361 L598.197087 701.220196 L590.581973 713.363245 Z" fill="#888" fill-opacity="0.18" stroke="#000" stroke-width="1"/>
  <path d="M206.295407 406.889065 L205.262758 332.363038 L218.568609 337.692008 L210.611614 272.744868 L231.900976 281.271219 L199.993448 206.731934 L258.539195 230.179400 L275.591897 187.600675 L307.525941 200.390202 L290.473239 242.968927 L349.018986 266.416393 L274.479702 298.323922 L295.769064 306.850273 L245.180313 348.349947 L258.486164 353.678916 Z" fill="#888" fill-opacity="0.18" stroke="#000" stroke-width="1"/>
  <path d="M1049.214148 1039.322919 L987.318022 997.801061 L999.266882 989.884727 L941.314052 959.505224 L960.432228 946.839088 L880.971450 930.708988 L933.546433 895.877115 L908.214162 857.640764 L936.891425 838.641561 L962.223696 876.877912 L1014.798679 842.046040 L998.668579 921.506817 L1017.786755 908.840682 L1023.164602 974.052057 L1035.113462 966.135723 Z" fill="#888" fill-opacity="0.18" stroke="#000" stroke-width="1"/>
  <path d="M435.612814 730.369668 L368.516029 697.916371 L379.239749 688.406091 L317.606444 666.433826 L334.764396 651.217378 L253.828395 646.363618 L301.012763 604.518385 L270.579867 570.202481 L296.316795 547.377808 L326.749692 581.693713 L373.934061 539.848480 L369.080301 620.784481 L386.238253 605.568033 L400.687190 669.385530 L411.410910 659.875250 Z" fill="#888" fill-opacity="0.18" stroke="#000" stroke-width="1"/>
  <path d="M1039.877045 588.558670 L967.188359 572.079892 L975.489968 560.395420 L910.488539 552.894823 L923.771113 534.199667 L843.826788 547.731121 L880.353867 496.319443 L842.963556 469.754295 L862.887417 441.711561 L900.277729 468.276709 L936.804808 416.865031 L950.336262 496.809356 L963.618836 478.114200 L992.093186 537.026475 L1000.394795 525.342002 Z" fill="#888" fill-opacity="0.18" stroke="#000" stroke-width="1"/>
  <path d="M730.246979 338.912179 L656.035397 331.995808 L662.752177 319.333720 L597.326909 320.323191 L608.073758 300.063851 L530.558285 323.845080 L560.112119 268.131894 L519.593439 246.638197 L535.713712 216.249186 L576.232393 237.742884 L605.786227 182.029698 L629.567456 259.545170 L640.314304 239.285830 L676.185738 294.009545 L682.902519 281.347457 Z" fill="#888" fill-opacity="0.18" stroke="#000" stroke-width="1"/>
  <path d="M56.589257 759.699082 L65.661078 685.720050 L78.122458 692.802254 L79.036240 627.375886 L98.974448 638.707413 L77.457746 560.533076 L132.287817 591.694775 L154.950871 551.818360 L184.858183 568.815650 L162.195129 608.692066 L217.025200 639.853765 L138.850863 661.370467 L158.789071 672.701994 L103.045218 706.966663 L115.506598 714.048868 Z" fill="#888" fill-opacity="0.18" stroke="#000" stroke-width="1"/>
  <path d="M838.533843 44.270212 L912.886806 49.450169 L906.467808 62.265787 L971.852076 59.747420 L961.581679 80.252409 L1038.520144 54.665931 L1010.276552 111.054650 L1051.286529 131.595444 L1035.880933 162.352928 L994.870956 141.812133 L966.627363 198.200852 L941.040884 121.262387 L930.770487 141.767376 L893.629811 87.897023 L887.210813 100.712641 Z" fill="#888" fill-opacity="0.18" stroke="#000" stroke-width="1"/>
  <path d="M180.904263 805.929847 L254.766137 815.910761 L247.531221 828.284103 L312.941405 830.002415 L301.365539 849.799763 L379.798571 829.246059 L347.964940 883.688764 L387.559635 906.840496 L370.195836 936.536517 L330.601141 913.384785 L298.767510 967.827490 L278.213807 889.394457 L266.637941 909.191804 L233.061389 853.030787 L225.826472 865.404129 Z" fill="#888" fill-opacity="0.18" stroke="#000" stroke-width="1"/>
  <path d="M314.153889 76.244131 L386.501752 94.160097 L377.970230 105.677767 L442.810261 114.464981 L429.159825 132.893254 L509.356596 120.948661 L471.817899 171.626411 L508.674444 198.927282 L488.198791 226.569691 L451.342245 199.268820 L413.803548 249.946570 L401.858954 169.749799 L388.208519 188.178072 L360.907186 128.713108 L352.375663 140.230779 Z" fill="#888" fill-opacity="0.18" stroke="#000" stroke-width="1"/>
  <path d="M482.259465 413.293520 L430.473884 466.898079 L424.788577 453.740538 L384.666090 505.428358 L375.569598 484.376293 L345.680665 559.747687 L320.665311 501.854507 L278.561180 520.047491 L264.916442 488.469393 L307.020573 470.276409 L282.005219 412.383229 L357.376613 442.272162 L348.280121 421.220097 L413.417962 427.425456 L407.732654 414.267915 Z" fill="#888" fill-opacity="0.18" stroke="#000" stroke-width="1"/>
  <path d="M80.997693 1041.293325 L136.533268 991.584221 L141.249708 1005.119316 L185.013919 956.476346 L192.560223 978.132498 L227.834841 905.126356 L248.587179 964.680774 L291.899483 949.588165 L303.218940 982.072392 L259.906636 997.165002 L280.658974 1056.719419 L207.652833 1021.444801 L215.199137 1043.100953 L150.682589 1032.189506 L155.399029 1045.724601 Z" fill="#888" fill-opacity="0.18" stroke="#000" stroke-width="1"/>
  <path d="M969.507266 202.953032 L911.943365 250.298490 L907.796531 236.578163 L862.038258 283.350218 L855.403324 261.397695 L817.109352 332.866340 L798.863282 272.496901 L754.958236 285.766770 L745.005834 252.837986 L788.910880 239.568116 L770.664810 179.198678 L842.133454 217.492649 L835.498520 195.540126 L899.502863 209.137509 L895.356028 195.417182 Z" fill="#888" fill-opacity="0.18" stroke="#000" stroke-width="1"/>
</svg>
