<?xml version="1.0" encoding="UTF-8"?>
<svg xmlns="http://www.w3.org/2000/svg" width="1100" height="1100" viewBox="0 0 1100 1100">
  <rect x="0" y="0" width="1100" height="1100" fill="white"/>
  <text x="10.0" y="18.0" font-family="monospace" font-size="12">prefix=N36_job5048433_task36 run_id=36 L=4.65020254125 feas=0.000e+00 N=36</text>
  <rect x="40.000000" y="40.000000" width="1020.000000" height="1020.000000" fill="none" stroke="#000" stroke-width="2"/>
  <path d="M169.360215 401.449715 L232.537841 368.427676 L233.726840 382.085098 L285.740728 347.282774 L287.643127 369.134649 L337.516817 309.748966 L342.748413 369.841621 L386.452162 366.036824 L389.305759 398.814636 L345.602010 402.619433 L350.833606 462.712088 L291.447924 412.838398 L293.350322 434.690272 L236.104838 409.399941 L237.293837 423.057363 Z" fill="#888" fill-opacity="0.18" stroke="#000" stroke-width="1"/>
  <path d="M1024.312046 407.646887 L955.141644 424.889938 L957.196901 411.335795 L898.458762 432.933881 L901.747174 411.247252 L839.309571 457.242795 L848.352703 397.604565 L804.979445 391.027742 L809.912063 358.497798 L853.285321 365.074621 L862.328453 305.436391 L908.323997 367.873993 L911.612409 346.187364 L961.307416 384.227509 L963.362673 370.673365 Z" fill="#888" fill-opacity="0.18" stroke="#000" stroke-width="1"/>
  <path d="M76.339929 770.185217 L85.937274 699.546995 L97.766741 706.475387 L99.455480 643.915060 L118.382626 655.000486 L98.778325 579.969055 L150.827978 610.453977 L172.998830 572.599684 L201.389549 589.227823 L179.218697 627.082116 L231.268350 657.567037 L156.236919 677.171338 L175.164065 688.256764 L121.425674 720.332169 L133.255140 727.260560 Z" fill="#888" fill-opacity="0.18" stroke="#000" stroke-width="1"/>
  <path d="M840.224373 257.209178 L910.417311 244.766556 L907.434275 258.147153 L967.519343 240.641983 L962.746485 262.050939 L1028.201017 220.460694 L1015.075659 279.335321 L1057.893570 288.881036 L1050.734284 320.994469 L1007.916373 311.448754 L994.791015 370.323381 L953.200770 304.868849 L948.427913 326.277805 L901.468203 284.908347 L898.485168 298.288945 Z" fill="#888" fill-opacity="0.18" stroke="#000" stroke-width="1"/>
  <path d="M808.076558 403.001012 L834.738032 469.114801 L821.029854 468.957534 L850.558778 524.136235 L828.625693 523.884607 L882.829337 579.346388 L822.513353 578.654413 L822.010099 622.520584 L789.110471 622.143143 L789.613726 578.276972 L729.297742 577.584997 L784.759523 523.381353 L762.826437 523.129726 L793.613498 468.643000 L779.905319 468.485733 Z" fill="#888" fill-opacity="0.18" stroke="#000" stroke-width="1"/>
  <path d="M591.746534 491.331605 L520.510303 488.635909 L526.257781 476.189810 L463.828934 480.581316 L473.024899 460.667557 L400.250591 487.462041 L425.539494 432.699206 L385.711977 414.307277 L399.505924 384.436639 L439.333441 402.828568 L464.622344 348.065733 L491.416828 420.840041 L500.612793 400.926282 L537.752737 451.297612 L543.500215 438.851513 Z" fill="#888" fill-opacity="0.18" stroke="#000" stroke-width="1"/>
  <path d="M299.605144 268.844737 L262.278092 208.111232 L275.820064 205.977251 L237.491803 156.504120 L259.158959 153.089751 L196.455148 107.457785 L256.039825 98.068270 L249.211087 54.733959 L281.711820 49.612406 L288.540558 92.946717 L348.125235 83.557202 L302.493269 146.261013 L324.160425 142.846644 L302.904009 201.709290 L316.445981 199.575309 Z" fill="#888" fill-opacity="0.18" stroke="#000" stroke-width="1"/>
  <path d="M466.901447 466.564723 L449.526052 535.702000 L438.538325 527.503907 L429.918951 589.490621 L412.338588 576.373671 L423.497122 653.116953 L375.151123 617.045342 L348.917224 652.206069 L322.546679 632.530644 L348.780578 597.369918 L300.434579 561.298306 L377.177861 550.139772 L359.597498 537.022823 L416.562871 511.107720 L405.575144 502.909626 Z" fill="#888" fill-opacity="0.18" stroke="#000" stroke-width="1"/>
  <path d="M585.774083 294.076859 L556.815401 228.936532 L570.520687 228.614009 L539.078967 174.502416 L561.007424 173.986379 L504.896190 120.455327 L565.199448 119.036227 L564.167375 75.179312 L597.060061 74.405257 L598.092134 118.262172 L658.395392 116.843072 L604.864339 172.954306 L626.792797 172.438270 L597.931259 227.968964 L611.636545 227.646441 Z" fill="#888" fill-opacity="0.18" stroke="#000" stroke-width="1"/>
  <path d="M308.572515 663.374304 L378.745786 675.927371 L371.327100 687.455683 L433.761458 691.768140 L421.891560 710.213439 L497.679553 693.774934 L465.037335 744.499508 L501.927934 768.239302 L484.123088 795.907252 L447.232489 772.167457 L414.590271 822.892031 L398.151766 747.104039 L386.281868 765.549338 L356.489728 710.512308 L349.071042 722.040620 Z" fill="#888" fill-opacity="0.18" stroke="#000" stroke-width="1"/>
  <path d="M782.492516 415.244733 L729.730083 367.307347 L742.142225 361.486899 L691.553722 324.643316 L711.413149 315.330599 L638.482790 288.963822 L693.096215 263.353852 L674.470783 223.634997 L704.259924 209.665923 L722.885356 249.384777 L777.498782 223.774808 L751.132004 296.705167 L770.991431 287.392450 L766.966510 349.846004 L779.378652 344.025556 Z" fill="#888" fill-opacity="0.18" stroke="#000" stroke-width="1"/>
  <path d="M534.762990 342.028940 L463.561529 345.524555 L468.207386 332.626691 L406.395044 342.418564 L413.828415 321.781982 L343.653532 354.790010 L364.095302 298.039409 L322.822137 283.172667 L333.972194 252.217793 L375.245359 267.084535 L395.687129 210.333933 L428.695157 280.508817 L436.128528 259.872235 L477.499099 306.830963 L482.144956 293.933099 Z" fill="#888" fill-opacity="0.18" stroke="#000" stroke-width="1"/>
  <path d="M834.992114 483.899698 L905.994348 477.531804 L901.873099 490.606749 L963.239628 478.326866 L956.645629 499.246778 L1025.430406 463.431994 L1007.296910 520.961752 L1049.136734 534.149749 L1039.245736 565.529617 L997.405912 552.341620 L979.272416 609.871379 L943.457632 541.086602 L936.863634 562.006514 L893.630601 516.756639 L889.509352 529.831584 Z" fill="#888" fill-opacity="0.18" stroke="#000" stroke-width="1"/>
  <path d="M889.252734 68.088561 L846.708826 125.288939 L839.701651 113.505968 L807.985554 167.457201 L796.774075 148.604448 L777.670891 223.765027 L746.839324 171.919958 L709.133819 194.342916 L692.316600 166.063787 L730.022105 143.640829 L699.190538 91.795760 L774.351117 110.898943 L763.139637 92.046191 L825.687302 89.940028 L818.680128 78.157057 Z" fill="#888" fill-opacity="0.18" stroke="#000" stroke-width="1"/>
  <path d="M1020.284555 52.822174 L1000.457324 121.296610 L989.768610 112.712306 L978.946565 174.352631 L961.844622 160.617744 L970.262262 237.709816 L923.231920 199.938878 L895.762148 234.142763 L870.109234 213.540434 L897.579007 179.336549 L850.548665 141.565611 L927.640737 133.147971 L910.538795 119.413085 L968.391182 95.543698 L957.702468 86.959394 Z" fill="#888" fill-opacity="0.18" stroke="#000" stroke-width="1"/>
  <path d="M82.632781 1050.316517 L116.260330 987.459096 L124.931208 998.077701 L148.329697 940.033261 L162.203101 957.023029 L169.994011 879.865101 L208.145871 926.586962 L242.125407 898.840155 L262.935512 924.324807 L228.955977 952.071614 L267.107837 998.793475 L189.949908 991.002565 L203.823312 1007.992333 L142.272962 1019.314911 L150.943839 1029.933516 Z" fill="#888" fill-opacity="0.18" stroke="#000" stroke-width="1"/>
  <path d="M867.756361 1037.364630 L895.079378 971.521482 L904.746577 981.241777 L922.359918 921.188330 L937.827438 936.740802 L938.039819 859.190823 L980.575497 901.960121 L1011.680441 871.025083 L1034.881720 894.353791 L1003.776776 925.288829 L1046.312455 968.058127 L968.762476 967.845746 L984.229996 983.398218 L924.080977 1000.682367 L933.748176 1010.402662 Z" fill="#888" fill-opacity="0.18" stroke="#000" stroke-width="1"/>
  <path d="M750.847897 425.783368 L679.822894 419.674665 L686.160608 407.518503 L623.592991 408.911203 L633.733333 389.461345 L559.757831 412.735136 L587.643772 359.248025 L548.744054 338.967341 L563.954568 309.792553 L602.854285 330.073237 L630.740226 276.586126 L654.014017 350.561627 L664.154359 331.111769 L698.836035 383.206180 L705.173749 371.050018 Z" fill="#888" fill-opacity="0.18" stroke="#000" stroke-width="1"/>
  <path d="M1038.785733 860.566354 L967.692381 855.312537 L973.883395 843.081011 L911.337060 845.226310 L921.242683 825.655869 L847.552523 849.817914 L874.792986 795.999201 L835.652104 776.187955 L850.510538 746.832293 L889.651421 766.643539 L916.891884 712.824825 L941.053930 786.514986 L950.959553 766.944545 L986.265424 818.617959 L992.456438 806.386434 Z" fill="#888" fill-opacity="0.18" stroke="#000" stroke-width="1"/>
  <path d="M418.684149 817.043628 L467.299039 869.182480 L454.447845 873.955918 L501.814223 914.859128 L481.252314 922.496629 L551.750840 954.807650 L495.205589 975.810778 L510.480591 1016.934597 L479.637727 1028.390848 L464.362725 987.267029 L407.817474 1008.270157 L440.128495 937.771631 L419.566586 945.409132 L428.745459 883.502795 L415.894265 888.276233 Z" fill="#888" fill-opacity="0.18" stroke="#000" stroke-width="1"/>
  <path d="M652.864237 836.251714 L697.043840 780.305043 L703.707480 792.285644 L736.969875 739.273764 L747.631698 758.442725 L768.899542 683.865764 L798.219556 736.580407 L836.557478 715.256760 L852.550213 744.010201 L814.212291 765.333848 L843.532305 818.048490 L768.955345 796.780647 L779.617168 815.949608 L717.034759 816.246845 L723.698398 828.227445 Z" fill="#888" fill-opacity="0.18" stroke="#000" stroke-width="1"/>
  <path d="M96.520403 510.930909 L87.663442 440.196041 L100.875029 443.855668 L86.448049 382.958143 L107.586587 388.813547 L69.378753 321.328692 L127.509732 337.431053 L139.220540 295.153978 L170.928346 303.937084 L159.217538 346.214159 L217.348517 362.316521 L149.863663 400.524355 L171.002201 406.379759 L127.298201 451.174923 L140.509787 454.834551 Z" fill="#888" fill-opacity="0.18" stroke="#000" stroke-width="1"/>
  <path d="M300.154012 653.050478 L317.391213 722.222339 L303.837244 720.165935 L325.430362 778.905901 L303.744011 775.615655 L349.734273 838.057147 L290.096808 829.008971 L283.516316 872.381673 L250.986790 867.446304 L257.567282 824.073602 L197.929816 815.025426 L260.371309 769.035163 L238.684958 765.744917 L276.729305 716.053128 L263.175336 713.996724 Z" fill="#888" fill-opacity="0.18" stroke="#000" stroke-width="1"/>
  <path d="M248.878412 732.875385 L213.075147 794.519473 L204.780580 783.604389 L179.368295 840.795840 L166.096988 823.331707 L155.614923 900.170308 L119.118828 852.143942 L84.190562 878.686557 L64.283601 852.490357 L99.211867 825.947743 L62.715772 777.921377 L139.554373 788.403441 L126.283066 770.939308 L188.191446 761.774223 L179.896879 750.859140 Z" fill="#888" fill-opacity="0.18" stroke="#000" stroke-width="1"/>
  <path d="M299.855692 836.093924 L338.769506 895.823167 L325.288441 898.313102 L364.906520 946.759506 L343.336816 950.743401 L407.220812 994.707923 L347.904127 1005.663634 L355.871916 1048.803041 L323.517361 1054.778883 L315.549571 1011.639476 L256.232886 1022.595186 L300.197409 958.711190 L278.627705 962.695084 L298.326311 903.292970 L284.845246 905.782904 Z" fill="#888" fill-opacity="0.18" stroke="#000" stroke-width="1"/>
  <path d="M782.521815 1013.830376 L713.007426 1029.629653 L715.344417 1016.121235 L656.169365 1036.491789 L659.908551 1014.878320 L596.526914 1059.564026 L606.809676 1000.126987 L563.582739 992.648615 L569.191518 960.228412 L612.418455 967.706784 L622.701218 908.269746 L667.386924 971.651383 L671.126110 950.037914 L720.018400 989.104399 L722.355392 975.595981 Z" fill="#888" fill-opacity="0.18" stroke="#000" stroke-width="1"/>
  <path d="M293.510253 349.798581 L228.828628 319.829351 L238.932753 310.564064 L179.642532 290.531192 L195.809133 275.706734 L118.331485 272.351377 L162.789638 231.584117 L133.140722 199.250916 L157.390623 177.014229 L187.039539 209.347430 L231.497691 168.580171 L228.142334 246.057818 L244.308935 231.233360 L259.141004 292.033492 L269.245130 282.768205 Z" fill="#888" fill-opacity="0.18" stroke="#000" stroke-width="1"/>
  <path d="M807.905935 1039.110588 L774.529455 976.119493 L788.179981 974.853779 L753.085967 923.036248 L774.926808 921.011105 L715.261847 871.471860 L775.324160 865.902717 L771.273874 822.221035 L804.035135 819.183320 L808.085422 862.865002 L868.147734 857.295859 L818.608489 916.960819 L840.449330 914.935676 L815.481032 972.322350 L829.131557 971.056636 Z" fill="#888" fill-opacity="0.18" stroke="#000" stroke-width="1"/>
  <path d="M558.671078 797.619889 L528.984400 732.808095 L542.685212 732.332043 L510.639214 678.576110 L532.560513 677.814425 L475.853053 624.915388 L536.136627 622.820755 L534.613258 578.978156 L567.495207 577.835629 L569.018576 621.678228 L629.302150 619.583596 L576.403113 676.291056 L598.324412 675.529372 L570.086836 731.379937 L583.787649 730.903884 Z" fill="#888" fill-opacity="0.18" stroke="#000" stroke-width="1"/>
  <path d="M779.063710 636.455457 L708.595385 625.681295 L715.720113 613.969030 L653.196654 611.237102 L664.596218 592.497479 L589.248250 610.847627 L620.597051 559.313663 L583.117804 536.514535 L600.217150 508.405101 L637.696397 531.204228 L669.045197 479.670264 L687.395346 555.018232 L698.794910 536.278609 L729.969568 590.544501 L737.094295 578.832236 Z" fill="#888" fill-opacity="0.18" stroke="#000" stroke-width="1"/>
  <path d="M62.108910 223.697609 L87.361743 157.033062 L97.327873 166.446624 L113.056631 105.872269 L129.002439 120.933967 L126.792164 43.415202 L170.643136 84.834871 L200.766532 52.943254 L224.685244 75.535801 L194.561848 107.427417 L238.412821 148.847086 L160.894056 151.057362 L176.839864 166.119060 L117.260133 185.273746 L127.226263 194.687307 Z" fill="#888" fill-opacity="0.18" stroke="#000" stroke-width="1"/>
  <path d="M1022.933914 832.836911 L979.453352 776.345247 L992.697475 772.805182 L949.400141 727.616830 L970.590739 721.952726 L903.453982 683.136492 L961.728127 667.560204 L950.399917 625.179007 L982.185815 616.682850 L993.514024 659.064046 L1051.788170 643.487758 L1012.971936 710.624516 L1034.162534 704.960411 L1019.185723 765.725051 L1032.429847 762.184986 Z" fill="#888" fill-opacity="0.18" stroke="#000" stroke-width="1"/>
  <path d="M69.999307 524.359631 L137.222194 500.633045 L136.461907 514.321027 L192.886465 487.248614 L191.670006 509.149385 L249.463081 457.438606 L246.117819 517.665726 L289.919361 520.098644 L288.094672 552.949800 L244.293130 550.516882 L240.947868 610.744002 L189.237088 552.950927 L188.020629 574.851698 L134.941333 541.696990 L134.181046 555.384972 Z" fill="#888" fill-opacity="0.18" stroke="#000" stroke-width="1"/>
  <path d="M544.065547 205.937970 L474.060148 192.480204 L481.627014 181.048607 L419.253520 175.930654 L431.360506 157.640099 L355.366651 173.099021 L388.660864 122.799993 L352.079754 98.586020 L370.240234 71.150187 L406.821344 95.364160 L440.115558 45.065133 L455.574479 121.058988 L467.681466 102.768433 L496.760748 158.185413 L504.327614 146.753816 Z" fill="#888" fill-opacity="0.18" stroke="#000" stroke-width="1"/>
  <path d="M427.197819 806.174539 L497.478394 794.236862 L494.399241 807.595668 L554.608602 790.522907 L549.681957 811.896996 L615.433794 770.778384 L601.885520 829.557131 L644.633700 839.410421 L637.243732 871.471555 L594.495553 861.618265 L580.947280 920.397012 L539.828668 854.645176 L534.902023 876.019265 L488.240935 834.313280 L485.161782 847.672086 Z" fill="#888" fill-opacity="0.18" stroke="#000" stroke-width="1"/>
  <path d="M832.025251 644.994563 L777.423831 690.826345 L773.326578 677.743861 L730.010595 722.914337 L723.454991 701.982362 L687.514063 770.701311 L669.486152 713.138379 L627.622201 726.249587 L617.788795 694.851624 L659.652745 681.740416 L641.624834 624.177484 L710.343783 660.118411 L703.788178 639.186436 L765.132073 651.578892 L761.034820 638.496407 Z" fill="#888" fill-opacity="0.18" stroke="#000" stroke-width="1"/>
</svg>
