<?xml version="1.0" encoding="UTF-8"?>
<svg xmlns="http://www.w3.org/2000/svg" width="1100" height="1100" viewBox="0 0 1100 1100">
  <rect x="0" y="0" width="1100" height="1100" fill="white"/>
  <text x="10.0" y="18.0" font-family="monospace" font-size="12">prefix=N40_job5048437_task40 run_id=40 L=4.90807262352 feas=0.000e+00 N=40</text>
  <rect x="40.000000" y="40.000000" width="1020.000000" height="1020.000000" fill="none" stroke="#000" stroke-width="2"/>
  <path d="M55.267444 262.095062 L117.944104 236.925053 L117.776305 249.912775 L170.096349 222.010983 L169.827871 242.791337 L222.449952 191.511647 L221.711637 248.657621 L263.272345 249.194578 L262.869628 280.365109 L221.308919 279.828153 L220.570604 336.974127 L169.290914 284.352046 L169.022436 305.132400 L117.440708 275.888218 L117.272909 288.875939 Z" fill="#888" fill-opacity="0.18" stroke="#000" stroke-width="1"/>
  <path d="M841.429771 783.742860 L817.452725 846.885511 L808.017421 837.958916 L793.068712 895.338643 L777.972225 881.056091 L780.007063 954.503688 L738.491724 915.226671 L709.926620 945.419645 L687.281890 923.995818 L715.846993 893.802844 L674.331653 854.525827 L747.779250 852.490988 L732.682763 838.208436 L789.146812 820.105727 L779.711508 811.179132 Z" fill="#888" fill-opacity="0.18" stroke="#000" stroke-width="1"/>
  <path d="M640.506592 675.599830 L670.067778 736.328978 L657.100977 737.084725 L688.650925 787.289283 L667.904045 788.498478 L722.794234 837.342692 L665.740312 840.667978 L668.158702 882.161739 L637.038381 883.975532 L634.619991 842.481771 L577.566070 845.807057 L626.410284 790.916868 L605.663403 792.126063 L631.167376 738.596219 L618.200576 739.351965 Z" fill="#888" fill-opacity="0.18" stroke="#000" stroke-width="1"/>
  <path d="M671.269730 1036.505354 L721.784612 991.670770 L726.007106 1003.954077 L765.850843 960.040827 L772.606834 979.694117 L804.850082 913.670917 L823.429056 967.717464 L862.735635 954.205483 L872.869621 983.685418 L833.563041 997.197398 L852.142015 1051.243945 L786.118814 1019.000697 L792.874805 1038.653986 L734.452094 1028.520689 L738.674588 1040.803995 Z" fill="#888" fill-opacity="0.18" stroke="#000" stroke-width="1"/>
  <path d="M601.685157 466.392533 L537.463113 487.307173 L538.500606 474.359869 L484.428906 498.693965 L486.088895 477.978279 L430.149708 525.617521 L434.714678 468.649385 L393.283306 465.329407 L395.773289 434.255878 L437.204661 437.575856 L441.769631 380.607720 L489.408873 436.546907 L491.068862 415.831221 L540.575592 448.465262 L541.613085 435.517958 Z" fill="#888" fill-opacity="0.18" stroke="#000" stroke-width="1"/>
  <path d="M236.424549 849.300818 L250.147218 915.433877 L237.392631 912.978355 L255.630634 969.398849 L235.223296 965.470014 L276.419555 1026.310448 L220.299374 1015.506152 L212.441704 1056.320829 L181.830697 1050.427576 L189.688367 1009.612900 L133.568186 998.808604 L194.408619 957.612345 L174.001281 953.683510 L211.883458 908.067312 L199.128871 905.611790 Z" fill="#888" fill-opacity="0.18" stroke="#000" stroke-width="1"/>
  <path d="M132.920268 741.813685 L181.391047 694.776713 L186.155688 706.860060 L224.006862 661.218132 L231.630289 680.551486 L260.905108 613.159536 L281.869530 666.326259 L320.536238 651.079407 L331.971378 680.079438 L293.304670 695.326290 L314.269092 748.493014 L246.877141 719.218194 L254.500567 738.551548 L195.684971 731.026752 L200.449612 743.110098 Z" fill="#888" fill-opacity="0.18" stroke="#000" stroke-width="1"/>
  <path d="M1049.197713 124.632603 L1049.218671 192.174388 L1037.227455 187.182414 L1043.640234 246.129620 L1024.454288 238.142462 L1052.451257 306.075222 L999.689906 284.110536 L983.715590 322.482427 L954.936671 310.501690 L970.910988 272.129799 L918.149638 250.165114 L986.082397 222.168145 L966.896452 214.180987 L1013.245023 177.198466 L1001.253807 172.206492 Z" fill="#888" fill-opacity="0.18" stroke="#000" stroke-width="1"/>
  <path d="M221.341215 372.821283 L200.092657 436.933621 L190.283408 428.419651 L177.807876 486.387384 L162.113077 472.765031 L167.294194 546.057910 L124.133496 508.596441 L96.888792 539.986040 L73.346593 519.552512 L100.591297 488.162913 L57.430599 450.701444 L130.723478 445.520327 L115.028679 431.897975 L170.664909 411.391711 L160.855659 402.877741 Z" fill="#888" fill-opacity="0.18" stroke="#000" stroke-width="1"/>
  <path d="M173.656760 535.040108 L194.156792 470.684520 L204.064586 479.083607 L215.863789 420.974437 L231.716261 434.412977 L225.681433 361.185448 L269.275729 398.141434 L296.152810 366.436492 L319.931516 386.594302 L293.054436 418.299245 L336.648731 455.255230 L263.421203 461.290057 L279.273674 474.728598 L223.880175 495.881783 L233.787970 504.280870 Z" fill="#888" fill-opacity="0.18" stroke="#000" stroke-width="1"/>
  <path d="M1007.740955 710.435705 L940.207195 709.394396 L945.387143 697.483175 L886.346371 702.968069 L894.634288 683.910114 L826.269608 710.835207 L849.061381 658.425832 L810.945472 641.849997 L823.377348 613.263066 L861.493257 629.838900 L884.285030 577.429525 L911.210123 645.794205 L919.498040 626.736251 L955.747040 673.660732 L960.926988 661.749510 Z" fill="#888" fill-opacity="0.18" stroke="#000" stroke-width="1"/>
  <path d="M249.457227 780.432255 L189.693198 811.898968 L188.527808 798.962550 L139.345993 832.084234 L137.481367 811.385964 L90.397256 867.793202 L85.269536 810.872960 L43.872996 814.602211 L41.076058 783.554806 L82.472598 779.825555 L77.344878 722.905313 L133.752117 769.989424 L131.887491 749.291154 L186.197026 773.089712 L185.031635 760.153294 Z" fill="#888" fill-opacity="0.18" stroke="#000" stroke-width="1"/>
  <path d="M785.667621 605.377989 L754.899279 545.251436 L767.848397 544.236831 L735.301916 494.672494 L756.020504 493.049125 L700.165612 445.311078 L757.141729 440.846813 L753.894991 399.409638 L784.972873 396.974584 L788.219610 438.411760 L845.195727 433.947495 L797.457679 489.802387 L818.176267 488.179018 L793.746631 542.207620 L806.695749 541.193014 Z" fill="#888" fill-opacity="0.18" stroke="#000" stroke-width="1"/>
  <path d="M806.334187 883.238817 L829.972109 819.968431 L839.455172 828.844274 L854.095806 771.385169 L869.268706 785.586518 L866.839829 712.150896 L908.565304 751.204605 L936.968001 720.858805 L959.727351 742.160829 L931.324654 772.506629 L973.050129 811.560338 L899.614506 813.989216 L914.787406 828.190565 L858.421297 846.595960 L867.904359 855.471803 Z" fill="#888" fill-opacity="0.18" stroke="#000" stroke-width="1"/>
  <path d="M910.772534 421.800494 L861.234967 375.888376 L873.049068 370.490592 L825.466908 335.109312 L844.369470 326.472857 L775.521927 300.807590 L827.503973 277.057339 L810.231063 239.252215 L838.584906 226.297532 L855.857816 264.102656 L907.839861 240.352405 L882.174594 309.199948 L901.077156 300.563493 L896.677271 359.695023 L908.491372 354.297239 Z" fill="#888" fill-opacity="0.18" stroke="#000" stroke-width="1"/>
  <path d="M83.412211 45.575563 L150.141601 56.019776 L143.351993 67.092729 L202.580942 69.890664 L191.717570 87.607389 L263.167814 70.474009 L233.293538 119.195002 L268.726988 140.921748 L252.431928 167.496835 L216.998479 145.770090 L187.124204 194.491083 L169.990824 123.040839 L159.127451 140.757563 L129.772777 89.238635 L122.983169 100.311588 Z" fill="#888" fill-opacity="0.18" stroke="#000" stroke-width="1"/>
  <path d="M650.013512 300.743101 L584.542913 317.341106 L586.439021 304.491443 L530.868931 325.176268 L533.902705 304.616807 L474.919619 348.431025 L483.262496 291.892508 L442.143575 285.824961 L446.694235 254.985770 L487.813156 261.053317 L496.156033 204.514800 L539.970252 263.497886 L543.004025 242.938425 L590.231238 278.792117 L592.127347 265.942454 Z" fill="#888" fill-opacity="0.18" stroke="#000" stroke-width="1"/>
  <path d="M284.207170 1044.560581 L321.985720 988.572419 L329.130176 999.419807 L356.801925 946.977732 L368.233053 964.333552 L383.044783 892.366180 L414.480387 940.094686 L449.192027 917.232428 L466.338721 943.266159 L431.627080 966.128416 L463.062684 1013.856923 L391.095311 999.045193 L402.526439 1016.401014 L343.419086 1021.114582 L350.563542 1031.961970 Z" fill="#888" fill-opacity="0.18" stroke="#000" stroke-width="1"/>
  <path d="M907.112188 858.856819 L952.911168 908.499003 L940.711447 912.957241 L985.383782 951.948002 L965.864229 959.081181 L1032.496060 990.047115 L978.817289 1009.663359 L993.083649 1048.702465 L963.804319 1059.402235 L949.537960 1020.363128 L895.859189 1039.979372 L926.825122 973.347540 L907.305569 980.480720 L916.312006 921.873715 L904.112285 926.331952 Z" fill="#888" fill-opacity="0.18" stroke="#000" stroke-width="1"/>
  <path d="M786.991164 213.777875 L781.687302 281.111092 L770.126958 275.189311 L771.872590 334.458609 L753.376039 324.983758 L775.930291 394.912263 L725.064775 368.856425 L706.115074 405.849527 L678.370247 391.637252 L697.319948 354.644149 L646.454431 328.588310 L716.382936 306.034058 L697.886384 296.559207 L747.006269 263.345748 L735.445924 257.423966 Z" fill="#888" fill-opacity="0.18" stroke="#000" stroke-width="1"/>
  <path d="M635.530404 465.393837 L621.795042 531.524260 L611.071843 524.194727 L605.344747 583.212498 L588.187628 571.485244 L601.762291 643.696175 L554.580215 611.446228 L531.125707 645.760466 L505.390029 628.169585 L528.844536 593.855348 L481.662459 561.605400 L553.873391 548.030737 L536.716272 536.303483 L589.625444 509.535660 L578.902245 502.206126 Z" fill="#888" fill-opacity="0.18" stroke="#000" stroke-width="1"/>
  <path d="M43.135724 1038.483540 L52.520013 971.596858 L63.699284 978.209948 L65.557247 918.944065 L83.444081 929.525008 L65.179356 858.355564 L114.368149 887.453159 L135.530037 851.679491 L162.360288 867.550907 L141.198400 903.324575 L190.387194 932.422170 L119.217749 950.686896 L137.104583 961.267840 L86.057827 991.436127 L97.237098 998.049217 Z" fill="#888" fill-opacity="0.18" stroke="#000" stroke-width="1"/>
  <path d="M408.285196 759.620389 L463.484728 720.698612 L466.311114 733.376175 L510.803318 694.179993 L515.325535 714.464094 L554.730245 652.448299 L567.166342 708.229577 L607.734544 699.185143 L614.517870 729.611295 L573.949668 738.655729 L586.385764 794.437007 L524.369969 755.032297 L528.892186 775.316398 L471.963885 758.731301 L474.790271 771.408865 Z" fill="#888" fill-opacity="0.18" stroke="#000" stroke-width="1"/>
  <path d="M661.461236 53.066764 L728.383831 62.191416 L721.814175 73.396267 L781.086821 75.024223 L770.575371 92.951984 L841.673400 74.411209 L812.766910 123.712551 L848.622431 144.735453 L832.855254 171.627094 L796.999733 150.604192 L768.093243 199.905534 L749.552469 128.807505 L739.041018 146.735266 L708.674861 95.805967 L702.105204 107.010818 Z" fill="#888" fill-opacity="0.18" stroke="#000" stroke-width="1"/>
  <path d="M244.333169 591.425636 L195.971176 638.574450 L191.178634 626.502142 L153.432995 672.231385 L145.764929 652.915693 L116.645864 720.375089 L95.558682 667.256936 L56.927297 682.593068 L45.425198 653.619530 L84.056582 638.283397 L62.969400 585.165244 L130.428796 614.284308 L122.760730 594.968616 L181.593551 602.357527 L176.801010 590.285219 Z" fill="#888" fill-opacity="0.18" stroke="#000" stroke-width="1"/>
  <path d="M818.351304 222.962767 L852.747356 164.835280 L860.521758 175.240459 L885.038787 121.251458 L897.477830 137.899743 L908.000935 65.181421 L942.208304 110.964206 L975.504875 86.086119 L994.163440 111.058548 L960.866869 135.936634 L995.074239 181.719419 L922.355917 171.196314 L934.794960 187.844599 L876.070562 196.050815 L883.844964 206.455994 Z" fill="#888" fill-opacity="0.18" stroke="#000" stroke-width="1"/>
  <path d="M300.633722 259.948150 L366.569085 274.591273 L359.092838 285.212704 L418.026305 291.750543 L406.064310 308.744833 L478.455022 296.164096 L445.559536 342.898393 L479.548115 366.822383 L461.605123 392.313817 L427.616543 368.389827 L394.721057 415.124124 L382.140320 342.733412 L370.178325 359.727702 L344.140344 306.455566 L336.664097 317.076997 Z" fill="#888" fill-opacity="0.18" stroke="#000" stroke-width="1"/>
  <path d="M912.256791 484.631239 L919.860714 417.518845 L931.211737 423.832588 L931.494460 364.538263 L949.656096 374.640253 L929.506980 303.981190 L979.451478 331.761660 L999.655457 295.438389 L1026.897911 310.591373 L1006.693932 346.914644 L1056.638431 374.695115 L985.979368 394.844231 L1004.141004 404.946221 L953.913781 436.460075 L965.264804 442.773818 Z" fill="#888" fill-opacity="0.18" stroke="#000" stroke-width="1"/>
  <path d="M1032.265604 677.929834 L989.797068 625.410156 L1002.261252 621.755954 L960.223241 579.938463 L980.165935 574.091741 L915.692394 538.851813 L970.534802 522.773325 L958.841357 482.887938 L988.755398 474.117854 L1000.448843 514.003241 L1055.291251 497.924754 L1020.051323 562.398295 L1039.994017 556.551573 L1027.189619 614.447551 L1039.653803 610.793349 Z" fill="#888" fill-opacity="0.18" stroke="#000" stroke-width="1"/>
  <path d="M495.959206 531.462514 L450.061046 581.013013 L444.659933 569.200433 L409.292059 616.792559 L400.650280 597.892430 L375.004408 666.747200 L351.239514 614.771847 L313.439257 632.055406 L300.476588 603.705214 L338.276845 586.421655 L314.511951 534.446302 L383.366721 560.092174 L374.724941 541.192045 L433.857709 545.575273 L428.456597 533.762693 Z" fill="#888" fill-opacity="0.18" stroke="#000" stroke-width="1"/>
  <path d="M669.299388 567.075596 L723.602391 607.238726 L712.456347 613.907666 L763.653406 643.820173 L745.819736 654.490478 L817.079674 672.398891 L768.037081 701.742230 L789.377690 737.409571 L762.627185 753.415028 L741.286575 717.747687 L692.243982 747.091026 L710.152395 675.831088 L692.318725 686.501393 L690.164259 627.245547 L679.018215 633.914488 Z" fill="#888" fill-opacity="0.18" stroke="#000" stroke-width="1"/>
  <path d="M494.120846 187.741471 L430.104384 209.277155 L431.016427 196.320410 L377.182952 221.177076 L378.642221 200.446284 L323.167069 248.625092 L327.180058 191.615414 L285.718474 188.696876 L287.907377 157.600688 L329.368962 160.519226 L333.381951 103.509548 L381.560759 158.984700 L383.020028 138.253908 L432.840513 170.406919 L433.752556 157.450174 Z" fill="#888" fill-opacity="0.18" stroke="#000" stroke-width="1"/>
  <path d="M654.411244 81.904984 L686.566656 141.301302 L673.644572 142.616145 L707.332527 191.411827 L686.657192 193.515575 L743.604898 239.944541 L686.747729 245.729848 L690.955225 287.080516 L659.942223 290.236139 L655.734727 248.885470 L598.877558 254.670777 L645.306524 197.723071 L624.631189 199.826819 L647.800404 145.245830 L634.878320 146.560672 Z" fill="#888" fill-opacity="0.18" stroke="#000" stroke-width="1"/>
  <path d="M597.589137 854.907736 L639.200519 908.109109 L626.678723 911.560732 L668.033166 954.054343 L647.998293 959.576940 L711.891968 995.857629 L656.796068 1011.044771 L667.841262 1051.114517 L637.788952 1059.398412 L626.743758 1019.328667 L571.647858 1034.515808 L607.928548 970.622134 L587.893675 976.144731 L601.635132 918.463978 L589.113337 921.915601 Z" fill="#888" fill-opacity="0.18" stroke="#000" stroke-width="1"/>
  <path d="M250.811126 753.791855 L301.995641 797.860422 L290.386981 803.686921 L339.232028 837.303261 L320.658173 846.625659 L390.398807 869.754300 L339.320706 895.390896 L357.965503 932.538607 L330.104720 946.522204 L311.459923 909.374494 L260.381822 935.011090 L283.510463 865.270456 L264.936608 874.592855 L267.169663 815.339919 L255.561003 821.166418 Z" fill="#888" fill-opacity="0.18" stroke="#000" stroke-width="1"/>
  <path d="M472.242286 358.558138 L536.907601 339.057111 L535.586385 351.978545 L590.178797 328.836257 L588.064850 349.510551 L645.035452 303.109683 L639.222098 359.963992 L680.570686 364.191886 L677.399766 395.203327 L636.051178 390.975433 L630.237824 447.829742 L583.836956 390.859140 L581.723009 411.533434 L532.943951 377.821412 L531.622734 390.742846 Z" fill="#888" fill-opacity="0.18" stroke="#000" stroke-width="1"/>
  <path d="M549.649557 1026.676464 L509.619216 972.275499 L522.237016 969.193261 L482.148906 925.502984 L502.337386 920.571404 L439.537236 882.429154 L495.055556 868.867309 L485.192396 828.490349 L515.475116 821.092979 L525.338276 861.469939 L580.856596 847.908094 L542.714346 910.708244 L562.902826 905.776664 L547.472616 963.028786 L560.090416 959.946549 Z" fill="#888" fill-opacity="0.18" stroke="#000" stroke-width="1"/>
  <path d="M1047.885396 735.075926 L1050.210988 802.577665 L1038.056420 797.997760 L1046.476850 856.691825 L1027.029540 849.363976 L1057.328194 916.301871 L1003.848092 896.150288 L989.192396 935.044907 L960.021432 924.053135 L974.677128 885.158516 L921.197027 865.006933 L988.134921 834.708280 L968.687612 827.380432 L1013.747283 788.837949 L1001.592714 784.258044 Z" fill="#888" fill-opacity="0.18" stroke="#000" stroke-width="1"/>
  <path d="M472.473434 874.363751 L409.538581 849.846463 L418.545707 840.488005 L361.296196 825.048109 L375.707598 810.074576 L302.245259 811.479905 L341.876614 770.302688 L311.929547 741.479884 L333.546650 719.019584 L363.493717 747.842388 L403.125071 706.665170 L404.530401 780.127509 L418.941803 765.153975 L436.559959 821.771088 L445.567085 812.412629 Z" fill="#888" fill-opacity="0.18" stroke="#000" stroke-width="1"/>
  <path d="M586.554761 246.683679 L533.387644 205.028538 L544.714526 198.671590 L494.367591 167.349345 L512.490604 157.178228 L441.755280 137.298489 L491.593564 109.327917 L471.251330 73.081892 L498.435848 57.825217 L518.778083 94.071242 L568.616367 66.100669 L548.736629 136.835993 L566.859641 126.664876 L567.368292 185.957694 L578.695175 179.600745 Z" fill="#888" fill-opacity="0.18" stroke="#000" stroke-width="1"/>
</svg>
