<?xml version="1.0" encoding="UTF-8"?>
<svg xmlns="http://www.w3.org/2000/svg" width="1100" height="1100" viewBox="0 0 1100 1100">
  <rect x="0" y="0" width="1100" height="1100" fill="white"/>
  <text x="10.0" y="18.0" font-family="monospace" font-size="12">prefix=N41_job5048440_task41 run_id=41 L=5.00259638899 feas=0.000e+00 N=41</text>
  <rect x="40.000000" y="40.000000" width="1020.000000" height="1020.000000" fill="none" stroke="#000" stroke-width="2"/>
  <path d="M620.322885 603.691737 L674.403677 565.398182 L677.201291 577.830686 L720.776556 539.288721 L725.252738 559.180727 L763.792299 498.260255 L776.101800 552.963273 L815.885813 544.010908 L822.600087 573.848918 L782.816074 582.801283 L795.125576 637.504300 L734.205103 598.964740 L738.681286 618.856747 L682.796519 602.695694 L685.594133 615.128198 Z" fill="#888" fill-opacity="0.18" stroke="#000" stroke-width="1"/>
  <path d="M876.527909 569.425703 L821.550087 532.431548 L832.183503 525.408425 L780.697496 498.325628 L797.710963 487.088632 L727.084806 472.647455 L773.871839 441.745716 L751.397847 407.718783 L776.918047 390.863288 L799.392040 424.890222 L846.179073 393.988482 L831.737897 464.614640 L848.751363 453.377643 L853.450337 511.362180 L864.083754 504.339057 Z" fill="#888" fill-opacity="0.18" stroke="#000" stroke-width="1"/>
  <path d="M1056.490585 629.901140 L991.015543 619.695881 L997.669956 608.827919 L939.558402 606.119782 L950.205462 588.731044 L880.115964 605.585238 L909.395381 557.766207 L874.617904 536.472086 L890.588495 510.388978 L925.365972 531.683100 L954.645390 483.864069 L971.499584 553.953567 L982.146645 536.564828 L1010.978782 587.091996 L1017.633195 576.224034 Z" fill="#888" fill-opacity="0.18" stroke="#000" stroke-width="1"/>
  <path d="M470.251500 689.619086 L515.030466 738.465505 L503.047451 742.801533 L546.754198 781.194333 L527.581373 788.131978 L592.857547 818.719928 L540.132279 837.798451 L554.007569 876.144101 L525.248332 886.550569 L511.373042 848.204919 L458.647773 867.283443 L489.235723 802.007268 L470.062898 808.944913 L479.081420 751.473589 L467.098404 755.809617 Z" fill="#888" fill-opacity="0.18" stroke="#000" stroke-width="1"/>
  <path d="M142.251875 329.090509 L205.345693 308.834683 L204.274699 321.532981 L257.424078 297.880700 L255.710488 318.197977 L310.787655 271.688760 L306.075282 327.561271 L346.709836 330.988451 L344.139451 361.464367 L303.504897 358.037187 L298.792525 413.909698 L252.283307 358.832531 L250.569717 379.149808 L202.132712 346.929577 L201.061718 359.627875 Z" fill="#888" fill-opacity="0.18" stroke="#000" stroke-width="1"/>
  <path d="M541.925014 621.845053 L475.670459 620.635794 L480.785605 608.964072 L422.845398 614.181275 L431.029632 595.506520 L363.882161 621.732821 L386.388805 570.377247 L349.039296 554.008779 L361.315647 525.996648 L398.665155 542.365116 L421.171799 491.009541 L447.398100 558.157012 L455.582334 539.482258 L491.015897 585.620630 L496.131044 573.948908 Z" fill="#888" fill-opacity="0.18" stroke="#000" stroke-width="1"/>
  <path d="M493.586269 79.285079 L438.463838 116.063415 L436.012243 103.558077 L391.384401 140.876204 L387.461848 120.867663 L347.246879 180.695399 L336.459858 125.671911 L296.442776 133.517018 L290.558946 103.504207 L330.576027 95.659100 L319.789006 40.635613 L379.616741 80.850582 L375.694188 60.842041 L431.109051 78.547401 L428.657455 66.042063 Z" fill="#888" fill-opacity="0.18" stroke="#000" stroke-width="1"/>
  <path d="M681.913788 744.449948 L616.173716 736.121007 L622.514657 725.067218 L564.349428 724.021788 L574.494934 706.335725 L504.916010 725.187116 L532.816153 676.550443 L497.444027 656.259430 L512.662287 629.730335 L548.034413 650.021348 L575.934556 601.384675 L594.785948 670.963599 L604.931454 653.277536 L635.196540 702.959639 L641.537482 691.905849 Z" fill="#888" fill-opacity="0.18" stroke="#000" stroke-width="1"/>
  <path d="M1047.369540 1050.035151 L981.891020 1039.852230 L988.541725 1028.981999 L930.429249 1026.293689 L941.070377 1008.901319 L870.986633 1025.779425 L900.249734 977.950407 L865.464994 956.668152 L881.426686 930.579597 L916.211426 951.861852 L945.474527 904.032835 L962.352632 974.116579 L972.993760 956.724209 L1001.843134 1007.241537 L1008.493839 996.371305 Z" fill="#888" fill-opacity="0.18" stroke="#000" stroke-width="1"/>
  <path d="M927.924942 40.472266 L882.973033 89.159578 L877.655161 77.578816 L843.031435 124.327982 L834.522839 105.798764 L809.471285 173.393300 L786.072645 122.437950 L749.014209 139.455143 L736.251315 111.661316 L773.309751 94.644123 L749.911111 43.688773 L817.505647 68.740328 L808.997050 50.211110 L867.019415 54.417294 L861.701543 42.836533 Z" fill="#888" fill-opacity="0.18" stroke="#000" stroke-width="1"/>
  <path d="M288.793838 94.722452 L280.173002 160.424884 L269.147484 154.034911 L267.843731 212.194923 L250.202902 201.970966 L268.745080 271.632930 L220.232802 243.517048 L199.784888 278.798705 L173.323645 263.462769 L193.771559 228.181112 L145.259281 200.065230 L214.921245 181.523052 L197.280417 171.299094 L247.096449 141.254964 L236.070931 134.864991 Z" fill="#888" fill-opacity="0.18" stroke="#000" stroke-width="1"/>
  <path d="M900.074250 172.360369 L941.372258 224.183171 L929.118358 227.681131 L970.068779 269.001221 L950.462538 274.597957 L1013.469979 309.621720 L959.552817 325.012743 L970.746289 364.225225 L941.336928 372.620329 L930.143456 333.407847 L876.226294 348.798871 L911.250056 285.791429 L891.643815 291.388165 L904.610557 234.677051 L892.356656 238.175011 Z" fill="#888" fill-opacity="0.18" stroke="#000" stroke-width="1"/>
  <path d="M1008.607669 299.864986 L970.565525 245.607049 L983.010880 242.867167 L944.671571 199.113490 L964.584138 194.729678 L903.843191 155.907790 L958.602751 143.852308 L949.835128 104.027174 L979.703978 97.451456 L988.471602 137.276591 L1043.231161 125.221109 L1004.409272 185.962055 L1024.321839 181.578244 L1007.901588 237.387402 L1020.346943 234.647520 Z" fill="#888" fill-opacity="0.18" stroke="#000" stroke-width="1"/>
  <path d="M706.251748 169.574388 L663.642183 220.324297 L657.784918 209.006778 L625.400822 257.334380 L616.029199 239.226348 L594.188179 307.925486 L568.416214 258.128399 L532.200151 276.871646 L518.142716 249.709599 L554.358779 230.966352 L528.586814 181.169265 L597.285952 203.010285 L587.914328 184.902254 L646.070389 186.371738 L640.213124 175.054219 Z" fill="#888" fill-opacity="0.18" stroke="#000" stroke-width="1"/>
  <path d="M50.912168 724.105321 L49.589037 657.852942 L61.447679 662.518391 L54.020461 604.819836 L72.994288 612.284554 L44.221514 546.188191 L96.399539 566.716165 L111.328974 528.768510 L139.789715 539.965587 L124.860280 577.913241 L177.038305 598.441215 L110.941943 627.213989 L129.915770 634.678707 L85.164963 671.849288 L97.023605 676.514737 Z" fill="#888" fill-opacity="0.18" stroke="#000" stroke-width="1"/>
  <path d="M847.944433 649.357674 L846.699312 715.611565 L835.030361 710.490102 L840.216202 768.433125 L821.545880 760.238784 L847.735832 827.400440 L796.392447 804.866003 L780.003766 842.206646 L751.998283 829.915135 L768.386965 792.574491 L717.043581 770.040054 L784.205237 743.850102 L765.534915 735.655761 L811.692459 700.247176 L800.023508 695.125713 Z" fill="#888" fill-opacity="0.18" stroke="#000" stroke-width="1"/>
  <path d="M159.002803 773.261359 L169.546180 707.839913 L180.379619 714.550383 L183.387933 656.453594 L200.721435 667.190345 L184.229559 597.014711 L231.896689 626.540778 L253.370193 591.873774 L279.370446 607.978901 L257.896943 642.645905 L305.564073 672.171972 L235.388439 688.663849 L252.721941 699.400600 L202.046497 727.971322 L212.879936 734.681792 Z" fill="#888" fill-opacity="0.18" stroke="#000" stroke-width="1"/>
  <path d="M642.938136 856.251612 L695.557554 896.529711 L684.515627 902.891287 L734.254170 933.063529 L716.587086 943.242050 L786.201098 961.963455 L737.616619 989.954389 L757.973661 1025.288556 L731.473036 1040.556337 L711.115994 1005.222171 L662.531514 1033.213104 L681.252920 963.599092 L663.585836 973.777614 L662.431773 915.614438 L651.389846 921.976014 Z" fill="#888" fill-opacity="0.18" stroke="#000" stroke-width="1"/>
  <path d="M462.922799 187.635362 L507.217524 138.349404 L512.690274 149.857784 L546.683745 102.648349 L555.440145 121.061757 L579.582667 53.137239 L603.662765 103.774111 L640.489581 86.261313 L653.624180 113.881425 L616.797364 131.394224 L640.877462 182.031096 L572.952943 157.888574 L581.709343 176.301982 L523.635773 172.874544 L529.108522 184.382924 Z" fill="#888" fill-opacity="0.18" stroke="#000" stroke-width="1"/>
  <path d="M594.127047 636.676710 L660.299202 633.159007 L656.029257 645.165729 L713.450024 635.830725 L706.618110 655.041480 L771.724780 624.094377 L752.937018 676.923952 L791.358527 690.587779 L781.110657 719.403911 L742.689148 705.740084 L723.901386 758.569659 L692.954283 693.462989 L686.122370 712.673743 L647.489365 669.179172 L643.219419 681.185894 Z" fill="#888" fill-opacity="0.18" stroke="#000" stroke-width="1"/>
  <path d="M208.015326 502.996310 L146.563033 478.202279 L155.509628 469.127466 L99.527866 453.305673 L113.842419 438.785972 L41.756785 439.298843 L81.121805 399.369665 L52.082403 370.740560 L73.554232 348.961009 L102.593634 377.590114 L141.958653 337.660936 L142.471524 409.746570 L156.786077 395.226869 L173.402819 450.977839 L182.349415 441.903026 Z" fill="#888" fill-opacity="0.18" stroke="#000" stroke-width="1"/>
  <path d="M263.333127 232.273862 L317.686629 194.368385 L320.395183 206.820595 L364.245206 168.591519 L368.578891 188.515055 L407.553519 127.872001 L419.471154 182.661726 L459.318226 173.994354 L465.818755 203.879659 L425.971682 212.547030 L437.889317 267.336755 L377.246262 228.362128 L381.579948 248.285664 L325.812290 231.725016 L328.520843 244.177226 Z" fill="#888" fill-opacity="0.18" stroke="#000" stroke-width="1"/>
  <path d="M572.189123 833.569061 L605.187683 891.034037 L592.546077 892.641401 L626.787067 939.671620 L606.560498 942.243403 L663.556377 986.380366 L607.933314 993.452770 L613.076881 1033.905906 L582.737028 1037.763581 L577.593462 997.310444 L521.970399 1004.382848 L566.107362 947.386970 L545.880794 949.958753 L567.262867 895.856130 L554.621262 897.463495 Z" fill="#888" fill-opacity="0.18" stroke="#000" stroke-width="1"/>
  <path d="M808.697390 349.474481 L763.384872 397.826360 L758.153216 386.206395 L723.183001 432.696941 L714.812352 414.104998 L689.259118 481.511480 L666.239831 430.383636 L629.055945 447.124936 L616.499970 419.237021 L653.683857 402.495721 L630.664570 351.367877 L698.071052 376.921111 L689.700403 358.329168 L747.689904 362.966466 L742.458248 351.346501 Z" fill="#888" fill-opacity="0.18" stroke="#000" stroke-width="1"/>
  <path d="M228.202831 40.545025 L191.921664 95.995952 L184.761822 85.454108 L158.346098 137.285530 L146.890352 120.418580 L133.362343 191.225322 L101.859040 144.841209 L68.125140 167.752702 L50.941520 142.452276 L84.675421 119.540784 L53.172118 73.156671 L123.978859 86.684680 L112.523113 69.817730 L170.442140 64.370421 L163.282298 53.828577 Z" fill="#888" fill-opacity="0.18" stroke="#000" stroke-width="1"/>
  <path d="M362.369381 367.249938 L349.292976 432.212512 L338.728348 425.086333 L333.465813 483.022440 L316.562407 471.620553 L330.316203 542.383783 L283.831839 511.028594 L261.028065 544.835404 L235.672957 527.732573 L258.476731 493.925763 L211.992367 462.570574 L282.755597 448.816779 L265.852192 437.414892 L317.599092 410.833974 L307.034464 403.707794 Z" fill="#888" fill-opacity="0.18" stroke="#000" stroke-width="1"/>
  <path d="M774.495251 893.204718 L711.259847 873.395325 L719.453483 863.635297 L662.387374 852.332818 L675.497190 836.716773 L603.682538 842.982344 L639.734533 800.038221 L608.502444 773.818589 L628.167168 750.394522 L659.399257 776.614155 L695.451252 733.670032 L701.716823 805.484684 L714.826639 789.868640 L735.840753 844.115242 L744.034388 834.355214 Z" fill="#888" fill-opacity="0.18" stroke="#000" stroke-width="1"/>
  <path d="M477.446667 491.970633 L543.526933 487.018169 L539.518475 499.114700 L596.723207 488.536163 L590.309674 507.890613 L654.729631 475.538319 L637.092416 528.763057 L675.801316 541.590122 L666.181017 570.621797 L627.472117 557.794731 L609.834902 611.019469 L577.482609 546.599512 L571.069077 565.953962 L531.501559 523.307762 L527.493101 535.404293 Z" fill="#888" fill-opacity="0.18" stroke="#000" stroke-width="1"/>
  <path d="M297.664792 725.779520 L326.582027 785.402685 L313.859184 786.125925 L344.742396 835.426169 L324.385848 836.583352 L378.170177 884.581764 L322.189669 887.764018 L324.504035 928.477115 L293.969213 930.212890 L291.654847 889.499793 L235.674339 892.682047 L283.672751 838.897718 L263.316203 840.054902 L288.413499 787.572404 L275.690656 788.295643 Z" fill="#888" fill-opacity="0.18" stroke="#000" stroke-width="1"/>
  <path d="M346.777126 521.862758 L378.346245 463.600256 L386.353707 473.513598 L408.390660 419.674398 L421.202599 435.535745 L428.826121 363.852529 L464.058953 407.471235 L495.781648 381.847357 L514.999557 405.639378 L483.276862 431.263256 L518.509694 474.881962 L446.826477 467.258441 L459.638416 483.119788 L402.368631 493.340283 L410.376093 503.253625 Z" fill="#888" fill-opacity="0.18" stroke="#000" stroke-width="1"/>
  <path d="M451.522615 944.944672 L410.232185 893.115831 L422.486597 889.619663 L381.542219 848.293585 L401.149278 842.699716 L338.146959 807.666740 L392.066371 792.283602 L380.878634 753.069483 L410.289222 744.678680 L421.476960 783.892799 L475.396372 768.509660 L440.363396 831.511979 L459.970455 825.918110 L446.995421 882.627327 L459.249833 879.131159 Z" fill="#888" fill-opacity="0.18" stroke="#000" stroke-width="1"/>
  <path d="M534.211060 973.933738 L472.518346 998.123351 L472.787402 985.382809 L421.233310 1012.335776 L421.663800 991.950909 L369.625406 1041.836851 L370.809255 985.778466 L330.039521 984.917485 L330.685256 954.340185 L371.454990 955.201165 L372.638839 899.142781 L422.524781 951.181174 L422.955271 930.796307 L473.325515 959.901725 L473.594571 947.161183 Z" fill="#888" fill-opacity="0.18" stroke="#000" stroke-width="1"/>
  <path d="M702.089659 323.705696 L745.873058 273.964944 L751.464360 285.416195 L784.968498 237.858235 L793.914582 256.180236 L817.354376 188.010025 L841.956105 238.395527 L878.600107 220.503360 L892.019232 247.986362 L855.375230 265.878529 L879.976960 316.264032 L811.806749 292.824238 L820.752832 311.146239 L762.646965 308.318696 L768.238267 319.769947 Z" fill="#888" fill-opacity="0.18" stroke="#000" stroke-width="1"/>
  <path d="M313.138704 295.206533 L378.263603 282.964151 L375.619877 295.430286 L431.300613 278.579696 L427.070651 298.525511 L487.510095 259.235879 L475.877698 314.086871 L515.769329 322.546796 L509.424385 352.465519 L469.532755 344.005594 L457.900358 398.856586 L418.610726 338.417142 L414.380763 358.362957 L370.332423 320.362555 L367.688697 332.828689 Z" fill="#888" fill-opacity="0.18" stroke="#000" stroke-width="1"/>
  <path d="M318.751116 551.654238 L357.220176 605.610329 L344.796827 608.448322 L383.480164 651.898135 L363.602805 656.438923 L424.648170 694.780350 L369.985434 707.267516 L379.067009 747.022233 L349.250971 753.833414 L340.169397 714.078697 L285.506661 726.565862 L323.848088 665.520497 L303.970730 670.061285 L319.950129 614.124306 L307.526780 616.962298 Z" fill="#888" fill-opacity="0.18" stroke="#000" stroke-width="1"/>
  <path d="M839.595008 897.402018 L885.159949 849.287939 L890.330722 860.935124 L925.543760 814.628227 L933.816997 833.263722 L959.722644 765.991892 L982.474044 817.239505 L1019.745035 800.693032 L1032.154890 828.646275 L994.883899 845.192748 L1017.635299 896.440360 L950.363470 870.534713 L958.636706 889.170208 L900.672267 884.229493 L905.843040 895.876678 Z" fill="#888" fill-opacity="0.18" stroke="#000" stroke-width="1"/>
  <path d="M855.516461 760.379711 L904.416873 715.659715 L908.738440 727.647954 L947.183948 683.987563 L954.098454 703.168745 L984.765143 637.929524 L1003.780035 690.677774 L1042.142399 676.848762 L1052.514158 705.620534 L1014.151795 719.449547 L1033.166687 772.197797 L967.927467 741.531108 L974.841973 760.712290 L917.381573 751.624431 L921.703139 763.612669 Z" fill="#888" fill-opacity="0.18" stroke="#000" stroke-width="1"/>
  <path d="M58.465321 1005.112313 L78.278039 941.877951 L88.037637 950.072099 L99.343116 893.006585 L114.958472 906.117222 L108.696677 834.302241 L151.638904 870.356493 L177.860179 839.125783 L201.283211 858.791739 L175.061937 890.022449 L218.004164 926.076702 L146.189182 932.338497 L161.804537 945.449134 L107.556831 966.460396 L117.316428 974.654544 Z" fill="#888" fill-opacity="0.18" stroke="#000" stroke-width="1"/>
  <path d="M104.458555 1037.750910 L153.460823 993.142548 L157.755040 1005.140611 L196.300015 961.568008 L203.170761 980.764908 L233.986147 915.595793 L252.880698 968.387269 L291.274499 954.645778 L301.580618 983.441128 L263.186817 997.182620 L282.081368 1049.974096 L216.912252 1019.158709 L223.782998 1038.355610 L166.343472 1029.136736 L170.637688 1041.134799 Z" fill="#888" fill-opacity="0.18" stroke="#000" stroke-width="1"/>
  <path d="M644.000181 277.140089 L634.721254 342.752815 L623.760335 336.252656 L621.873719 394.396680 L604.336250 383.996425 L622.179287 453.840736 L573.951246 425.240035 L553.150737 460.314974 L526.844532 444.714592 L547.645042 409.639653 L499.417001 381.038953 L569.261311 363.195916 L551.723841 352.795662 L601.838498 323.252338 L590.877580 316.752179 Z" fill="#888" fill-opacity="0.18" stroke="#000" stroke-width="1"/>
  <path d="M1051.336655 558.432283 L1003.793364 512.272085 L1015.503998 507.246663 L969.638918 471.460056 L988.375931 463.419382 L921.431711 436.678534 L972.958498 414.566679 L956.877149 377.092651 L984.982670 365.031640 L1001.064019 402.505667 L1052.590807 380.393812 L1025.849959 447.338033 L1044.586973 439.297358 L1038.925265 497.195820 L1050.635899 492.170399 Z" fill="#888" fill-opacity="0.18" stroke="#000" stroke-width="1"/>
</svg>
