<?xml version="1.0" encoding="UTF-8"?>
<svg xmlns="http://www.w3.org/2000/svg" width="1100" height="1100" viewBox="0 0 1100 1100">
  <rect x="0" y="0" width="1100" height="1100" fill="white"/>
  <text x="10.0" y="18.0" font-family="monospace" font-size="12">prefix=N43_job5048442_task43 run_id=43 L=5.11758159634 feas=0.000e+00 N=43</text>
  <rect x="40.000000" y="40.000000" width="1020.000000" height="1020.000000" fill="none" stroke="#000" stroke-width="2"/>
  <path d="M1039.266710 932.581697 L990.045468 890.471259 L1001.161318 884.848438 L954.215163 852.755244 L972.000524 843.758730 L905.045838 821.786615 L953.955579 797.046201 L935.962551 761.475481 L962.640591 747.980710 L980.633619 783.551430 L1029.543359 758.811017 L1007.571244 825.765702 L1025.356604 816.769188 L1023.393019 873.602795 L1034.508869 867.979974 Z" fill="#888" fill-opacity="0.18" stroke="#000" stroke-width="1"/>
  <path d="M850.528407 246.747078 L844.654967 182.237216 L856.540848 185.966033 L845.307178 130.219111 L864.324587 136.185219 L831.696331 73.726427 L883.994207 90.133222 L895.926422 52.098403 L924.452536 61.047563 L912.520322 99.082382 L964.818198 115.489177 L902.359406 148.117433 L921.376816 154.083540 L880.312610 193.423666 L892.198490 197.152483 Z" fill="#888" fill-opacity="0.18" stroke="#000" stroke-width="1"/>
  <path d="M571.635056 695.363462 L508.274223 681.894074 L515.351691 671.642845 L458.776346 665.885677 L470.100295 649.483711 L400.785509 662.178755 L431.926367 617.073349 L399.122435 594.425452 L416.108358 569.822503 L448.912290 592.470400 L480.053148 547.364993 L492.748192 616.679779 L504.072140 600.277813 L529.506626 651.140388 L536.584094 640.889159 Z" fill="#888" fill-opacity="0.18" stroke="#000" stroke-width="1"/>
  <path d="M46.007200 831.648105 L81.960941 777.765379 L88.866621 788.133108 L115.145042 737.701381 L126.194131 754.289748 L140.042326 685.196107 L170.427322 730.814117 L203.604056 708.715939 L220.177690 733.598490 L187.000955 755.696668 L217.385950 801.314678 L148.292309 787.466482 L159.341398 804.054850 L102.677983 808.868567 L109.583663 819.236297 Z" fill="#888" fill-opacity="0.18" stroke="#000" stroke-width="1"/>
  <path d="M866.627358 541.026805 L894.387309 482.499847 L902.723459 491.756566 L921.410805 438.047184 L934.748645 452.857935 L938.430920 382.486459 L975.109980 423.216022 L1004.731481 396.540342 L1024.738241 418.756468 L995.116740 445.432148 L1031.795800 486.161711 L961.424325 482.479435 L974.762165 497.290185 L919.395759 510.270004 L927.731909 519.526723 Z" fill="#888" fill-opacity="0.18" stroke="#000" stroke-width="1"/>
  <path d="M851.185080 448.066327 L792.935060 419.729869 L802.273634 411.485520 L748.751379 392.268790 L763.693097 379.077833 L693.361408 374.700930 L734.451134 338.425798 L708.069220 308.542361 L730.481798 288.755925 L756.863712 318.639362 L797.953437 282.364230 L793.576534 352.695919 L808.518253 339.504962 L820.950782 394.996824 L830.289356 386.752476 Z" fill="#888" fill-opacity="0.18" stroke="#000" stroke-width="1"/>
  <path d="M69.687897 838.849820 L117.820769 882.200095 L106.565331 887.538010 L152.678958 920.816351 L134.670256 929.357016 L201.043673 953.027108 L151.519742 976.513937 L168.601072 1012.531340 L141.588019 1025.342338 L124.506690 989.324934 L74.982759 1012.811762 L98.652852 946.438345 L80.644150 954.979010 L84.054453 898.213841 L72.799015 903.551757 Z" fill="#888" fill-opacity="0.18" stroke="#000" stroke-width="1"/>
  <path d="M162.058654 532.039424 L118.767304 483.853547 L130.523033 479.732737 L88.177187 441.775605 L106.986353 435.182308 L43.480195 404.642635 L95.205402 386.511068 L82.018808 348.892736 L110.232557 339.002790 L123.419151 376.621122 L175.144358 358.489555 L144.604686 421.995713 L163.413852 415.402416 L154.034491 471.491115 L165.790220 467.370304 Z" fill="#888" fill-opacity="0.18" stroke="#000" stroke-width="1"/>
  <path d="M179.749482 567.252642 L234.481018 532.604718 L236.583346 544.883091 L281.071717 509.461355 L284.435443 529.106752 L325.139622 471.583944 L334.389868 525.608787 L373.680664 518.881335 L378.726252 548.349432 L339.435457 555.076884 L348.685703 609.101727 L291.162895 568.397548 L294.526621 588.042945 L240.788003 569.439838 L242.890332 581.718212 Z" fill="#888" fill-opacity="0.18" stroke="#000" stroke-width="1"/>
  <path d="M304.303980 48.796945 L368.530961 57.218020 L362.285579 67.996399 L419.138934 69.265493 L409.146323 86.510899 L477.241365 68.378912 L449.761685 115.803778 L484.252497 135.789000 L469.263580 161.657109 L434.772768 141.671887 L407.293088 189.096753 L389.161101 121.001711 L379.168490 138.247117 L349.794815 89.553156 L343.549433 100.331535 Z" fill="#888" fill-opacity="0.18" stroke="#000" stroke-width="1"/>
  <path d="M745.347582 782.302326 L719.104621 723.079639 L731.558572 722.801501 L703.047331 673.597602 L722.973652 673.152582 L672.045300 624.449330 L726.842682 623.225525 L725.952642 583.372884 L755.842123 582.705354 L756.732163 622.557996 L811.529545 621.334191 L762.826293 672.262542 L782.752614 671.817522 L756.466472 722.245226 L768.920423 721.967089 Z" fill="#888" fill-opacity="0.18" stroke="#000" stroke-width="1"/>
  <path d="M415.311283 835.756492 L445.605496 893.012761 L433.200965 894.155501 L465.061893 941.259597 L445.214643 943.087980 L499.403727 988.135144 L444.823791 993.163200 L448.480559 1032.857699 L418.709684 1035.600275 L415.052917 995.905776 L360.472981 1000.933832 L405.520145 946.744748 L385.672895 948.573132 L408.391903 896.440981 L395.987372 897.583721 Z" fill="#888" fill-opacity="0.18" stroke="#000" stroke-width="1"/>
  <path d="M1039.988649 332.296135 L976.038187 342.609141 L978.937540 330.494192 L924.099167 345.549670 L928.738131 326.165751 L868.680924 363.028138 L881.438075 309.722362 L842.670237 300.444433 L849.628683 271.368555 L888.396521 280.646483 L901.153672 227.340706 L938.016059 287.397914 L942.655023 268.013995 L984.736245 306.264293 L987.635597 294.149344 Z" fill="#888" fill-opacity="0.18" stroke="#000" stroke-width="1"/>
  <path d="M567.070229 1000.106090 L590.151209 939.580987 L599.188137 948.154911 L613.602592 893.144567 L628.061677 906.862845 L626.209662 836.419437 L665.972144 874.144703 L693.408702 845.226534 L715.097329 865.803952 L687.660771 894.722121 L727.423254 932.447387 L656.979846 934.299403 L671.438931 948.017681 L617.261993 965.302760 L626.298921 973.876684 Z" fill="#888" fill-opacity="0.18" stroke="#000" stroke-width="1"/>
  <path d="M591.733426 479.571632 L533.058597 507.017655 L532.526376 494.571974 L483.914537 524.081356 L483.062984 504.168266 L435.409142 556.079875 L433.067370 501.318878 L393.241190 503.021985 L391.963860 473.152350 L431.790040 471.449243 L429.448268 416.688245 L481.359877 464.342086 L480.508323 444.428996 L531.461934 469.680611 L530.929714 457.234930 Z" fill="#888" fill-opacity="0.18" stroke="#000" stroke-width="1"/>
  <path d="M613.915495 274.681673 L584.953231 332.623082 L576.809953 323.196245 L557.017814 376.508399 L543.988569 361.425459 L538.854331 431.705921 L503.023908 390.227836 L472.858028 416.286325 L453.314161 393.661915 L483.480041 367.603426 L447.649618 326.125340 L517.930080 331.259579 L504.900835 316.176639 L560.523397 304.342570 L552.380119 294.915732 Z" fill="#888" fill-opacity="0.18" stroke="#000" stroke-width="1"/>
  <path d="M860.003465 547.362798 L923.172946 533.022773 L921.046214 545.296943 L974.821705 526.800698 L971.418933 546.439371 L1029.022543 505.849620 L1019.664921 559.855968 L1058.942265 566.661512 L1053.838107 596.119520 L1014.560763 589.313976 L1005.203141 643.320325 L964.613390 585.716715 L961.210618 605.355387 L916.792749 569.845283 L914.666017 582.119453 Z" fill="#888" fill-opacity="0.18" stroke="#000" stroke-width="1"/>
  <path d="M683.941414 591.973018 L717.754067 536.721555 L725.061083 546.810447 L749.341218 495.386819 L761.032444 511.529047 L772.159949 441.945411 L804.310821 486.336539 L836.595277 462.954087 L854.132116 487.167429 L821.847660 510.549881 L853.998531 554.941009 L784.414896 543.813503 L796.106122 559.955732 L739.675115 566.988233 L746.982131 577.077125 Z" fill="#888" fill-opacity="0.18" stroke="#000" stroke-width="1"/>
  <path d="M212.357354 1040.134262 L237.169165 980.297871 L245.955816 989.128103 L261.946111 934.554987 L276.004753 948.683358 L276.179075 878.215824 L314.840342 917.068845 L343.097084 888.951560 L364.185048 910.144117 L335.928305 938.261402 L374.589572 977.114423 L304.122038 976.940100 L318.180680 991.068472 L263.529119 1006.788567 L272.315770 1015.618799 Z" fill="#888" fill-opacity="0.18" stroke="#000" stroke-width="1"/>
  <path d="M680.457240 56.711608 L633.812755 101.659485 L629.283878 90.054852 L592.828875 133.700554 L585.582672 115.133141 L557.279648 179.667183 L537.352588 128.606797 L500.217761 143.099205 L489.348456 115.248085 L526.483282 100.755678 L506.556222 49.695291 L571.090264 77.998315 L563.844060 59.430902 L620.226123 66.845586 L615.697246 55.240953 Z" fill="#888" fill-opacity="0.18" stroke="#000" stroke-width="1"/>
  <path d="M922.103256 1038.129082 L865.710270 1006.256667 L875.539174 998.603505 L823.302937 976.124846 L839.029183 963.879787 L769.100920 955.176819 L812.348097 921.502906 L787.857978 890.050414 L811.447348 871.682825 L835.937466 903.135317 L879.184643 869.461404 L870.481676 939.389668 L886.207922 927.144609 L895.196982 983.297181 L905.025886 975.644019 Z" fill="#888" fill-opacity="0.18" stroke="#000" stroke-width="1"/>
  <path d="M448.023363 878.970056 L458.508464 815.047585 L469.080123 821.636839 L472.179489 764.853844 L489.094143 775.396650 L473.164523 706.752999 L519.679823 735.745716 L540.765435 701.916407 L566.137417 717.730616 L545.051804 751.559925 L591.567104 780.552642 L522.923452 796.482263 L539.838107 807.025069 L490.223441 834.815347 L500.795100 841.404600 Z" fill="#888" fill-opacity="0.18" stroke="#000" stroke-width="1"/>
  <path d="M875.121801 220.982937 L914.261408 169.367913 L920.528897 180.133451 L949.802576 131.379310 L959.830558 148.604172 L977.822757 80.472061 L1005.399709 127.840431 L1039.849432 107.784466 L1054.891406 133.621759 L1020.441682 153.677724 L1048.018634 201.046094 L979.886524 183.053895 L989.914506 200.278757 L933.063875 201.664528 L939.331365 212.430067 Z" fill="#888" fill-opacity="0.18" stroke="#000" stroke-width="1"/>
  <path d="M932.647007 756.738147 L885.172541 712.667809 L896.507103 707.500029 L850.899947 673.530897 L869.035247 665.262449 L803.025880 640.595321 L852.897952 617.857090 L836.361057 581.586492 L863.564006 569.183820 L880.100901 605.454418 L929.972973 582.716188 L905.305845 648.725554 L923.441144 640.457107 L919.176227 697.164470 L930.510789 691.996690 Z" fill="#888" fill-opacity="0.18" stroke="#000" stroke-width="1"/>
  <path d="M320.990885 352.265668 L268.553899 314.234336 L279.183499 307.738964 L229.816891 279.510386 L246.824250 269.117790 L178.324364 252.580882 L225.094600 224.001244 L204.309409 189.986527 L229.820447 174.397633 L250.605639 208.412351 L297.375875 179.832712 L280.838967 248.332599 L297.846326 237.940003 L300.442697 294.748219 L311.072296 288.252847 Z" fill="#888" fill-opacity="0.18" stroke="#000" stroke-width="1"/>
  <path d="M412.488483 445.276002 L384.321051 386.944060 L396.759223 386.258417 L366.652671 338.014142 L386.553747 336.917113 L334.058484 289.906996 L388.786443 286.890166 L386.592384 247.088014 L416.443998 245.442470 L418.638057 285.244622 L473.366016 282.227792 L426.355899 334.723055 L446.256975 333.626026 L421.635568 384.887131 L434.073741 384.201487 Z" fill="#888" fill-opacity="0.18" stroke="#000" stroke-width="1"/>
  <path d="M377.504455 202.700001 L441.100920 190.391085 L438.582054 202.590821 L492.922502 185.826865 L488.892317 205.346443 L547.766724 166.622963 L536.683714 220.301801 L575.722869 228.362171 L569.677591 257.641537 L530.638436 249.581167 L519.555427 303.260005 L480.831946 244.385598 L476.801761 263.905175 L433.544322 226.990293 L431.025456 239.190029 Z" fill="#888" fill-opacity="0.18" stroke="#000" stroke-width="1"/>
  <path d="M665.640996 282.045664 L651.184409 218.902757 L663.462484 221.006832 L644.867022 167.265569 L664.511941 170.632090 L623.815946 113.103491 L677.839473 122.361423 L684.572514 83.071585 L714.039892 88.121366 L707.306851 127.411204 L761.330378 136.669136 L703.801779 177.365131 L723.446697 180.731652 L688.018632 225.214983 L700.296706 227.319059 Z" fill="#888" fill-opacity="0.18" stroke="#000" stroke-width="1"/>
  <path d="M660.015405 609.078855 L679.464606 670.866784 L667.057784 669.749192 L689.882424 721.835182 L670.031509 720.047035 L715.188427 774.144691 L660.598411 769.227285 L657.022116 808.929115 L627.245743 806.246894 L630.822038 766.545064 L576.232022 761.627658 L630.329679 716.470740 L610.478764 714.682592 L642.244141 667.514007 L629.837319 666.396415 Z" fill="#888" fill-opacity="0.18" stroke="#000" stroke-width="1"/>
  <path d="M796.874554 95.792991 L812.989905 158.533051 L800.660652 156.753227 L820.665712 209.985850 L800.938908 207.138132 L843.136623 263.574437 L788.887912 255.743212 L783.192476 295.196820 L753.602269 290.925243 L759.297706 251.471635 L705.048995 243.640410 L761.485300 201.442695 L741.758496 198.594977 L776.002147 153.193579 L763.672895 151.413755 Z" fill="#888" fill-opacity="0.18" stroke="#000" stroke-width="1"/>
  <path d="M276.637892 819.952566 L317.599027 769.770845 L323.477355 780.753718 L354.476526 733.078086 L363.881850 750.650683 L384.300031 683.205878 L410.164674 731.530520 L445.309868 712.719871 L459.417855 739.078766 L424.272661 757.889416 L450.137304 806.214057 L382.692500 785.795877 L392.097825 803.368474 L335.234011 802.719465 L341.112339 813.702338 Z" fill="#888" fill-opacity="0.18" stroke="#000" stroke-width="1"/>
  <path d="M195.135369 443.197239 L252.462415 413.037175 L253.576106 425.444347 L300.754676 393.693801 L302.536582 413.545278 L347.710507 359.461821 L352.610749 414.053381 L392.313702 410.489568 L394.986561 440.266782 L355.283609 443.830595 L360.183851 498.422155 L306.100395 453.248230 L307.882301 473.099706 L255.803489 450.258692 L256.917181 462.665865 Z" fill="#888" fill-opacity="0.18" stroke="#000" stroke-width="1"/>
  <path d="M585.267883 380.669279 L646.082281 402.976870 L637.624247 412.122356 L692.813864 425.834423 L679.281010 440.467200 L749.695087 437.717393 L712.479738 477.957529 L741.745292 505.023238 L721.446011 526.972403 L692.180457 499.906695 L654.965108 540.146831 L652.215301 469.732754 L638.682447 484.365530 L620.708180 430.413327 L612.250146 439.558812 Z" fill="#888" fill-opacity="0.18" stroke="#000" stroke-width="1"/>
  <path d="M110.559941 292.206516 L110.053478 227.431805 L121.589408 232.132930 L115.014860 175.646738 L133.472347 183.168536 L106.133125 118.220321 L156.891216 138.905268 L171.934813 101.990293 L199.621044 113.272991 L184.577447 150.187966 L235.335537 170.872912 L170.387322 198.212134 L188.844809 205.733933 L144.661267 241.535178 L156.197197 246.236302 Z" fill="#888" fill-opacity="0.18" stroke="#000" stroke-width="1"/>
  <path d="M534.653542 1054.600007 L511.201031 994.217896 L523.654403 994.520860 L497.468846 944.040853 L517.394240 944.525597 L468.792614 893.500252 L523.587448 894.833298 L524.556935 854.982510 L554.445026 855.709626 L553.475538 895.560414 L608.270372 896.893459 L557.245027 945.495084 L577.170421 945.979828 L548.561145 995.126790 L561.014516 995.429755 Z" fill="#888" fill-opacity="0.18" stroke="#000" stroke-width="1"/>
  <path d="M597.827388 707.001955 L572.152586 647.530750 L584.608629 647.371851 L556.569738 597.897260 L576.499406 597.643021 L526.039639 548.454448 L580.846226 547.755291 L580.337748 507.895956 L610.232250 507.514597 L610.740728 547.373933 L665.547314 546.674776 L616.358742 597.134543 L636.288410 596.880304 L609.520714 647.054052 L621.976756 646.895153 Z" fill="#888" fill-opacity="0.18" stroke="#000" stroke-width="1"/>
  <path d="M253.957035 593.505661 L285.140773 650.282365 L272.755579 651.618479 L305.347465 698.219805 L285.531154 700.357588 L340.416389 744.553907 L285.921534 750.432811 L290.197101 790.065433 L260.472634 793.272108 L256.197067 753.639486 L201.702212 759.518390 L245.898532 704.633155 L226.082221 706.770938 L247.985190 654.290708 L235.599996 655.626823 Z" fill="#888" fill-opacity="0.18" stroke="#000" stroke-width="1"/>
  <path d="M366.236825 214.931540 L306.110422 190.831013 L314.835842 181.940271 L260.076949 166.598228 L274.037620 152.373040 L203.572973 153.034333 L241.964818 113.915066 L213.514442 85.993725 L234.455448 64.655943 L262.905824 92.577284 L301.297668 53.458017 L301.958961 123.922664 L315.919632 109.697476 L332.286680 164.158786 L341.012099 155.268043 Z" fill="#888" fill-opacity="0.18" stroke="#000" stroke-width="1"/>
  <path d="M607.973335 996.337455 L666.563813 968.711822 L667.134156 981.155815 L715.655371 951.497658 L716.567920 971.408046 L764.062518 919.350703 L766.572028 974.104270 L806.392804 972.279172 L807.761628 1002.144754 L767.940852 1003.969853 L770.450362 1058.723420 L718.393019 1011.228822 L719.305568 1031.139211 L668.274843 1006.043800 L668.845186 1018.487792 Z" fill="#888" fill-opacity="0.18" stroke="#000" stroke-width="1"/>
  <path d="M208.774895 979.639175 L193.067906 916.795638 L205.385323 918.655606 L185.726876 865.294009 L205.434744 868.269957 L163.604946 811.560418 L217.801581 819.744276 L223.753478 780.328542 L253.315279 784.792464 L247.363382 824.208199 L301.560017 832.392057 L244.850478 874.221854 L264.558345 877.197802 L230.020157 922.375541 L242.337574 924.235509 Z" fill="#888" fill-opacity="0.18" stroke="#000" stroke-width="1"/>
  <path d="M49.376233 445.652191 L101.897324 483.567288 L91.282138 490.086188 L140.711147 518.205355 L123.726849 528.635595 L192.263194 545.020743 L145.556373 573.703901 L166.416852 607.672499 L140.940404 623.317858 L120.079925 589.349261 L73.373103 618.032419 L89.758251 549.496074 L72.773952 559.926313 L70.051764 503.123987 L59.436578 509.642887 Z" fill="#888" fill-opacity="0.18" stroke="#000" stroke-width="1"/>
  <path d="M904.402546 876.905201 L958.492135 912.546974 L948.164484 919.512451 L998.747222 945.499008 L982.222980 956.643770 L1051.395491 970.092469 L1005.953825 1000.740566 L1028.243350 1033.789050 L1003.456987 1050.506193 L981.167463 1017.457709 L935.725797 1048.105805 L949.174496 978.933294 L932.650254 990.078057 L927.509182 933.443404 L917.181530 940.408880 Z" fill="#888" fill-opacity="0.18" stroke="#000" stroke-width="1"/>
  <path d="M779.859838 881.971274 L781.095192 817.206364 L792.500549 822.215961 L787.447153 765.573418 L805.695725 773.588774 L780.112686 707.928955 L830.296258 729.971184 L846.326970 693.474041 L873.699828 705.497075 L857.669115 741.994218 L907.852687 764.036447 L842.192868 789.619486 L860.441440 797.634842 L815.311263 832.235157 L826.716621 837.244754 Z" fill="#888" fill-opacity="0.18" stroke="#000" stroke-width="1"/>
</svg>
