<?xml version="1.0" encoding="UTF-8"?>
<svg xmlns="http://www.w3.org/2000/svg" width="1100" height="1100" viewBox="0 0 1100 1100">
  <rect x="0" y="0" width="1100" height="1100" fill="white"/>
  <text x="10.0" y="18.0" font-family="monospace" font-size="12">prefix=N49_job5048448_task49 run_id=49 L=5.451604258 feas=0.000e+00 N=49</text>
  <rect x="40.000000" y="40.000000" width="1020.000000" height="1020.000000" fill="none" stroke="#000" stroke-width="2"/>
  <path d="M48.186385 1058.508352 L64.119156 999.825016 L73.357857 1006.993802 L81.707859 954.267669 L96.489780 965.737727 L88.210121 900.107779 L128.860405 931.650437 L151.800520 902.086594 L173.973402 919.291681 L151.033287 948.855524 L191.683571 980.398182 L126.053623 988.677842 L140.835545 1000.147900 L91.835259 1021.331374 L101.073960 1028.500160 Z" fill="#888" fill-opacity="0.18" stroke="#000" stroke-width="1"/>
  <path d="M695.017361 181.529742 L748.651683 210.181909 L739.598464 217.583551 L789.122116 237.512814 L774.636966 249.355442 L840.456412 255.961747 L800.622248 288.528975 L824.307505 317.499276 L802.579779 335.263218 L778.894523 306.292917 L739.060359 338.860144 L745.666665 273.040698 L731.181514 284.883326 L721.492026 232.386836 L712.438807 239.788479 Z" fill="#888" fill-opacity="0.18" stroke="#000" stroke-width="1"/>
  <path d="M913.038331 76.241329 L966.685563 104.869317 L957.635681 112.275040 L1007.168311 132.181978 L992.688500 144.031134 L1058.510917 150.607772 L1018.691436 183.192951 L1042.389748 212.152573 L1020.670032 229.926307 L996.971720 200.966685 L957.152239 233.551863 L963.728877 167.729446 L949.249066 179.578602 L939.535917 127.086485 L930.486035 134.492207 Z" fill="#888" fill-opacity="0.18" stroke="#000" stroke-width="1"/>
  <path d="M392.463864 465.471399 L415.594384 521.708097 L403.900701 521.654588 L429.412765 568.547041 L410.702872 568.461426 L457.263566 615.450197 L405.811361 615.214754 L405.640130 652.634540 L377.575290 652.506117 L377.746521 615.086331 L326.294315 614.850889 L373.283086 568.290195 L354.573193 568.204580 L380.513335 521.547568 L368.819652 521.494059 Z" fill="#888" fill-opacity="0.18" stroke="#000" stroke-width="1"/>
  <path d="M597.574817 160.343957 L554.471439 203.235517 L550.045672 192.411577 L516.486599 233.927312 L509.405372 216.609008 L483.812679 277.607835 L464.339306 229.982499 L429.702698 244.144952 L419.080858 218.167496 L453.717466 204.005043 L434.244092 156.379707 L495.242919 181.972400 L488.161692 164.654096 L541.194139 170.763697 L536.768372 159.939757 Z" fill="#888" fill-opacity="0.18" stroke="#000" stroke-width="1"/>
  <path d="M825.758177 877.342849 L774.065114 909.364941 L772.204170 897.820160 L730.119121 930.662454 L727.141611 912.190804 L688.406261 965.813704 L680.218108 915.016666 L643.274808 920.971686 L638.808543 893.264211 L675.751843 887.309191 L667.563691 836.512153 L721.186591 875.247503 L718.209081 856.775853 L768.482283 874.730597 L766.621339 863.185816 Z" fill="#888" fill-opacity="0.18" stroke="#000" stroke-width="1"/>
  <path d="M583.733663 442.341226 L545.540019 395.024921 L556.764337 391.744711 L518.949997 354.063902 L536.908905 348.815566 L478.890794 317.039136 L528.277792 302.606211 L517.781119 266.688394 L544.719482 258.815890 L555.216154 294.733706 L604.603152 280.300782 L572.826722 338.318893 L590.785630 333.070557 L579.212972 385.184290 L590.437290 381.904080 Z" fill="#888" fill-opacity="0.18" stroke="#000" stroke-width="1"/>
  <path d="M231.788673 231.855114 L179.984060 263.696428 L178.163458 252.145216 L135.963935 284.840290 L133.050972 266.358351 L94.128532 319.845606 L86.117883 269.020274 L49.154005 274.846200 L44.784561 247.123291 L81.748439 241.297365 L73.737790 190.472033 L127.225046 229.394473 L124.312082 210.912534 L174.522254 229.042792 L172.701652 217.491580 Z" fill="#888" fill-opacity="0.18" stroke="#000" stroke-width="1"/>
  <path d="M310.592334 1048.349636 L354.187075 1005.957588 L358.487828 1016.831806 L392.523044 975.705517 L399.404248 993.104266 L425.698110 932.404384 L444.621421 980.250943 L479.418918 966.488535 L489.740724 992.586659 L454.943227 1006.349066 L473.866537 1054.195625 L413.166656 1027.901763 L420.047860 1045.300512 L367.089333 1038.580242 L371.390085 1049.454460 Z" fill="#888" fill-opacity="0.18" stroke="#000" stroke-width="1"/>
  <path d="M1027.589228 390.922146 L1037.493653 450.917892 L1026.110945 448.238519 L1040.435410 499.663973 L1022.223077 495.376976 L1057.036417 551.625302 L1006.952501 539.836060 L998.378507 576.260726 L971.060007 569.830230 L979.634001 533.405564 L929.550085 521.616322 L985.798411 486.802982 L967.586077 482.515985 L1003.345528 442.879773 L991.962820 440.200399 Z" fill="#888" fill-opacity="0.18" stroke="#000" stroke-width="1"/>
  <path d="M395.481942 774.455703 L337.641000 755.693705 L345.249708 746.813803 L292.990945 735.914752 L305.164879 721.706911 L239.210441 726.791682 L272.688758 687.720117 L244.273074 663.372250 L262.533974 642.060487 L290.949658 666.408354 L324.427975 627.336789 L329.512746 693.291227 L341.686679 679.083385 L360.467125 729.054001 L368.075834 720.174100 Z" fill="#888" fill-opacity="0.18" stroke="#000" stroke-width="1"/>
  <path d="M249.949671 687.534842 L198.361780 719.726095 L196.463029 708.187471 L154.485788 741.167448 L151.447786 722.705650 L112.888297 776.455149 L104.533792 725.685205 L67.610197 731.761209 L63.053194 704.068513 L99.976789 697.992509 L91.622284 647.222566 L145.371782 685.782055 L142.333781 667.320257 L192.665527 685.110224 L190.766776 673.571601 Z" fill="#888" fill-opacity="0.18" stroke="#000" stroke-width="1"/>
  <path d="M517.323920 58.451281 L480.387629 106.755500 L474.544890 96.625964 L446.880775 142.281899 L437.532392 126.074643 L420.385208 189.963741 L394.677155 145.393786 L362.262642 164.090552 L348.240068 139.779667 L380.654581 121.082901 L354.946528 76.512946 L418.835626 93.660130 L409.487243 77.452873 L462.859411 76.366894 L457.016672 66.237359 Z" fill="#888" fill-opacity="0.18" stroke="#000" stroke-width="1"/>
  <path d="M331.797371 144.956357 L374.844985 187.903885 L364.037168 192.368881 L405.674348 225.777156 L388.381842 232.921150 L449.473091 258.292433 L401.918699 277.938415 L416.206685 312.523428 L390.267926 323.239418 L375.979939 288.654405 L328.425546 308.300387 L353.796828 247.209137 L336.504322 254.353130 L342.421535 201.298873 L331.613718 205.763869 Z" fill="#888" fill-opacity="0.18" stroke="#000" stroke-width="1"/>
  <path d="M983.026739 281.753257 L924.728430 264.464694 L932.109411 255.394622 L879.590964 245.824858 L891.400534 231.312742 L825.596322 238.069108 L858.072637 198.160790 L829.048406 174.541652 L846.762759 152.773478 L875.786991 176.392617 L908.263306 136.484299 L915.019672 202.288511 L926.829241 187.776395 L946.871373 237.254477 L954.252353 228.184405 Z" fill="#888" fill-opacity="0.18" stroke="#000" stroke-width="1"/>
  <path d="M668.884189 360.734576 L629.978798 314.001742 L641.152185 310.552030 L602.771886 273.447849 L620.649305 267.928310 L562.156910 237.033610 L611.319812 221.854877 L600.280734 186.100039 L627.096863 177.820731 L638.135941 213.575569 L687.298843 198.396836 L656.404143 256.889232 L674.281562 251.369693 L663.498959 303.652606 L674.672346 300.202895 Z" fill="#888" fill-opacity="0.18" stroke="#000" stroke-width="1"/>
  <path d="M842.414971 866.709311 L819.097924 810.549695 L830.791720 810.564392 L805.124156 763.756873 L823.834230 763.780388 L777.117833 716.946415 L828.570537 717.011082 L828.617568 679.590934 L856.682679 679.626207 L856.635648 717.046355 L908.088352 717.111022 L861.254379 763.827419 L879.964453 763.850934 L854.179313 810.593786 L865.873109 810.608483 Z" fill="#888" fill-opacity="0.18" stroke="#000" stroke-width="1"/>
  <path d="M741.638244 526.296708 L758.892017 584.605322 L747.265209 583.355355 L767.844318 632.612516 L749.241425 630.612568 L790.748788 682.119670 L739.590832 676.619814 L735.590937 713.825600 L707.686597 710.825678 L711.686492 673.619892 L660.528536 668.120036 L712.035638 626.612672 L693.432745 624.612725 L724.011593 580.855420 L712.384785 579.605453 Z" fill="#888" fill-opacity="0.18" stroke="#000" stroke-width="1"/>
  <path d="M844.142447 674.033577 L883.472154 627.657276 L888.795632 638.069080 L918.731200 593.869200 L927.248764 610.528088 L947.602073 547.586960 L971.025373 593.398900 L1004.343148 576.363772 L1017.119494 601.352103 L983.801719 618.387231 L1007.225020 664.199171 L944.283892 643.845863 L952.801456 660.504750 L899.442587 658.892690 L904.766064 669.304494 Z" fill="#888" fill-opacity="0.18" stroke="#000" stroke-width="1"/>
  <path d="M200.986448 43.720387 L176.780001 99.502419 L168.668283 91.079526 L152.822494 142.056763 L139.843745 128.580135 L138.599048 194.718577 L102.907488 157.657851 L75.954232 183.615349 L56.486109 163.400408 L83.439364 137.442909 L47.747804 100.382183 L113.886246 101.626879 L100.907497 88.150252 L152.444846 74.233742 L144.333128 65.810850 Z" fill="#888" fill-opacity="0.18" stroke="#000" stroke-width="1"/>
  <path d="M596.901484 627.827401 L584.677964 568.260860 L596.156013 570.496814 L579.848121 519.665522 L598.212998 523.243048 L561.244619 468.387039 L611.748032 478.225235 L618.903084 441.495479 L646.450401 446.861768 L639.295349 483.591524 L689.798763 493.429720 L634.942754 530.398099 L653.307632 533.975625 L619.112110 574.968721 L630.590159 577.204675 Z" fill="#888" fill-opacity="0.18" stroke="#000" stroke-width="1"/>
  <path d="M609.051312 675.569657 L631.379437 732.129732 L619.687698 731.909867 L644.530063 779.160524 L625.823281 778.808740 L671.710774 826.455154 L620.267125 825.487747 L619.563557 862.901310 L591.503385 862.373634 L592.206953 824.960071 L540.763304 823.992665 L588.409718 778.105171 L569.702937 777.753387 L596.304222 731.470137 L584.612483 731.250272 Z" fill="#888" fill-opacity="0.18" stroke="#000" stroke-width="1"/>
  <path d="M408.873635 810.305647 L414.525886 749.761125 L424.855369 755.242628 L424.056521 701.865391 L440.583693 710.635796 L421.191776 647.391853 L466.641499 671.510468 L484.182310 638.456124 L508.973068 651.611732 L491.432257 684.666076 L536.881980 708.784691 L473.638037 728.176607 L490.165209 736.947012 L445.514334 766.205635 L455.843816 771.687138 Z" fill="#888" fill-opacity="0.18" stroke="#000" stroke-width="1"/>
  <path d="M701.246435 1019.283432 L644.260039 998.066980 L652.241243 989.520316 L600.495938 976.398160 L613.265864 962.723498 L547.154391 964.985337 L582.271690 927.380015 L554.922365 901.840162 L574.077255 881.328168 L601.426580 906.868021 L636.543879 869.262699 L638.805718 935.374173 L651.575645 921.699510 L668.203652 972.426988 L676.184856 963.880324 Z" fill="#888" fill-opacity="0.18" stroke="#000" stroke-width="1"/>
  <path d="M856.180369 834.294137 L882.016395 779.247911 L889.876966 787.905654 L907.214683 737.416336 L919.791596 751.268725 L922.980285 685.195470 L957.566797 723.289540 L985.271575 698.135714 L1004.136944 718.914297 L976.432166 744.068123 L1011.018677 782.162193 L944.945422 778.973503 L957.522335 792.825892 L905.598107 805.221140 L913.458678 813.878883 Z" fill="#888" fill-opacity="0.18" stroke="#000" stroke-width="1"/>
  <path d="M352.504242 966.347428 L304.649723 928.830336 L314.849098 923.110384 L269.530666 894.896782 L285.849664 885.744858 L222.172359 867.827170 L267.049605 842.659381 L248.745758 810.021383 L273.224256 796.293498 L291.528103 828.931495 L336.405350 803.763706 L318.487662 867.441011 L334.806661 858.289088 L335.247846 911.670480 L345.447220 905.950527 Z" fill="#888" fill-opacity="0.18" stroke="#000" stroke-width="1"/>
  <path d="M796.219146 535.482288 L792.249811 474.804190 L803.314661 478.587600 L794.105629 426.004700 L811.809389 432.058155 L782.683627 372.665118 L831.368966 389.312120 L843.475876 353.904600 L870.031516 362.984783 L857.924606 398.392302 L906.609945 415.039303 L847.216908 444.165065 L864.920668 450.218520 L825.444361 486.154419 L836.509211 489.937828 Z" fill="#888" fill-opacity="0.18" stroke="#000" stroke-width="1"/>
  <path d="M329.593102 457.805993 L278.743877 424.460176 L288.424291 417.900093 L240.887050 393.610623 L256.375711 383.114490 L191.413726 370.633170 L234.007544 341.768804 L213.015278 310.791482 L236.248270 295.047283 L257.240536 326.024605 L299.834353 297.160240 L287.353033 362.122225 L302.841694 351.626092 L307.785117 404.779927 L317.465530 398.219844 Z" fill="#888" fill-opacity="0.18" stroke="#000" stroke-width="1"/>
  <path d="M524.641842 794.432792 L484.088039 839.742573 L479.044424 829.192358 L447.939517 872.577291 L439.869733 855.696946 L417.843332 918.072266 L395.651427 871.651320 L361.890739 887.790887 L349.786063 862.470371 L383.546751 846.330803 L361.354846 799.909857 L423.730166 821.936258 L415.660382 805.055914 L468.957195 808.091928 L463.913580 797.541713 Z" fill="#888" fill-opacity="0.18" stroke="#000" stroke-width="1"/>
  <path d="M563.819127 686.249660 L516.876291 647.597916 L527.209650 642.123725 L482.579495 612.833506 L499.112871 604.074801 L435.882668 584.638126 L481.349451 560.551686 L463.832039 527.484935 L488.632102 514.346877 L506.149514 547.413628 L551.616296 523.327187 L532.179621 586.557390 L548.712997 577.798684 L547.876370 631.175343 L558.209729 625.701152 Z" fill="#888" fill-opacity="0.18" stroke="#000" stroke-width="1"/>
  <path d="M643.548412 690.441700 L700.135276 712.701846 L691.998352 721.100390 L743.493764 735.171288 L730.474685 748.608959 L796.616561 747.562476 L760.814095 784.516073 L787.689439 810.554230 L768.160821 830.710738 L741.285478 804.672581 L705.483012 841.626178 L704.436529 775.484303 L691.417450 788.921975 L675.724504 737.897480 L667.587580 746.296025 Z" fill="#888" fill-opacity="0.18" stroke="#000" stroke-width="1"/>
  <path d="M423.144423 486.123296 L380.482191 442.792923 L391.329464 438.424655 L349.992392 404.645755 L367.348028 397.656526 L306.485866 371.740507 L354.213865 352.520128 L340.235407 317.808856 L366.268862 307.325013 L380.247319 342.036285 L427.975319 322.815906 L402.059300 383.678068 L419.414936 376.688839 L413.024009 429.688119 L423.871281 425.319851 Z" fill="#888" fill-opacity="0.18" stroke="#000" stroke-width="1"/>
  <path d="M770.875167 220.047478 L773.749032 159.307639 L784.318688 164.310384 L781.076425 111.025720 L797.987875 119.030113 L775.720232 56.740508 L822.226718 78.752587 L838.235503 44.929687 L863.602677 56.936276 L847.593893 90.759175 L894.100379 112.771254 L831.810774 135.038897 L848.722224 143.043290 L805.458000 174.315874 L816.027656 179.318619 Z" fill="#888" fill-opacity="0.18" stroke="#000" stroke-width="1"/>
  <path d="M877.782755 293.631982 L938.460780 297.602424 L933.267949 308.079999 L986.602480 305.800661 L978.293949 322.564781 L1040.975578 301.425807 L1018.127118 347.527139 L1051.655359 364.144200 L1039.192563 389.290381 L1005.664322 372.673319 L982.815862 418.774651 L961.676887 356.093022 L953.368356 372.857143 L922.882285 329.035150 L917.689453 339.512725 Z" fill="#888" fill-opacity="0.18" stroke="#000" stroke-width="1"/>
  <path d="M913.198856 1008.643963 L852.917106 1016.625059 L855.959053 1005.333839 L804.101891 1018.006737 L808.969005 999.940785 L751.636339 1032.937878 L765.020904 983.256510 L728.889000 973.522281 L736.189672 946.423353 L772.321576 956.157582 L785.706141 906.476214 L818.703235 963.808881 L823.570349 945.742929 L862.042946 982.751399 L865.084893 971.460180 Z" fill="#888" fill-opacity="0.18" stroke="#000" stroke-width="1"/>
  <path d="M535.815080 1036.494039 L499.786041 987.509394 L511.146410 984.736831 L475.063347 945.394993 L493.239938 940.958892 L436.708211 906.607667 L486.693835 894.408391 L477.821634 858.055211 L505.086520 851.401060 L513.958720 887.754241 L563.944344 875.554965 L529.593119 932.086692 L547.769709 927.650592 L533.867148 979.191706 L545.227517 976.419143 Z" fill="#888" fill-opacity="0.18" stroke="#000" stroke-width="1"/>
  <path d="M278.092059 276.176093 L230.136232 238.788585 L240.320096 233.041064 L194.925512 204.950152 L211.219695 195.754119 L147.494155 178.008743 L192.303159 152.719653 L173.911093 120.131287 L198.352367 106.337237 L216.744433 138.925603 L261.553437 113.636513 L243.808061 177.362053 L260.102244 168.166020 L260.687825 221.546023 L270.871689 215.798503 Z" fill="#888" fill-opacity="0.18" stroke="#000" stroke-width="1"/>
  <path d="M886.787079 909.858107 L945.128788 926.999640 L937.770697 936.088292 L990.313103 945.525622 L978.540158 960.067465 L1044.327127 953.145222 L1011.951527 993.135289 L1041.035212 1016.681180 L1023.375794 1038.493943 L994.292109 1014.948052 L961.916509 1054.938119 L954.994267 989.151149 L943.221321 1003.692992 L923.054515 954.265595 L915.696424 963.354246 Z" fill="#888" fill-opacity="0.18" stroke="#000" stroke-width="1"/>
  <path d="M854.094100 884.578917 L908.047376 856.531970 L909.035497 868.183953 L953.469562 838.597106 L955.050556 857.240279 L997.706003 806.679863 L1002.053735 857.948587 L1039.340081 854.786600 L1041.711571 882.751359 L1004.425226 885.913346 L1008.772959 937.182071 L958.212543 894.526624 L959.793537 913.169796 L911.011739 891.487919 L911.999860 903.139901 Z" fill="#888" fill-opacity="0.18" stroke="#000" stroke-width="1"/>
  <path d="M182.461743 275.142450 L169.827312 334.623189 L160.203101 327.980928 L154.807321 381.090750 L139.408582 370.463132 L151.336384 435.529024 L108.989853 406.303074 L87.734616 437.100552 L64.636508 421.159125 L85.891744 390.361647 L43.545212 361.135698 L108.611105 349.207896 L93.212366 338.580278 L140.954677 314.696405 L131.330465 308.054144 Z" fill="#888" fill-opacity="0.18" stroke="#000" stroke-width="1"/>
  <path d="M262.018305 406.934309 L295.827010 457.476951 L284.354299 459.740135 L318.646998 500.651972 L300.290661 504.273066 L355.234239 541.111172 L304.754313 551.069182 L311.996502 587.781856 L284.461997 593.213497 L277.219808 556.500824 L226.739882 566.458833 L263.577988 511.515255 L245.221651 515.136350 L261.408878 464.266503 L249.936168 466.529687 Z" fill="#888" fill-opacity="0.18" stroke="#000" stroke-width="1"/>
  <path d="M232.138080 493.489654 L179.262932 523.519736 L177.843032 511.912455 L134.537689 543.128074 L132.265848 524.556425 L91.516325 576.665149 L85.268765 525.593113 L48.125465 530.136794 L44.717705 502.279319 L81.861004 497.735639 L75.613443 446.663603 L127.722168 487.413126 L125.450328 468.841476 L175.003232 488.697894 L173.583332 477.090613 Z" fill="#888" fill-opacity="0.18" stroke="#000" stroke-width="1"/>
  <path d="M59.739925 900.145423 L90.882129 847.917555 L97.849931 857.308765 L120.085607 808.776896 L131.234090 823.802832 L140.927723 758.366784 L171.586051 799.688108 L201.637923 777.391143 L218.360647 799.930047 L188.308775 822.227012 L218.967103 863.548337 L153.531056 853.854704 L164.679539 868.880640 L111.785535 876.091185 L118.753336 885.482395 Z" fill="#888" fill-opacity="0.18" stroke="#000" stroke-width="1"/>
  <path d="M133.454903 1026.419051 L178.765644 985.866321 L182.612968 996.909110 L218.320013 957.225681 L224.475730 974.894143 L253.257593 915.333694 L270.185816 963.921966 L305.522741 951.610531 L314.756317 978.113225 L279.419392 990.424660 L296.347614 1039.012932 L236.787165 1010.231069 L242.942882 1027.899531 L190.307614 1018.994688 L194.154938 1030.037478 Z" fill="#888" fill-opacity="0.18" stroke="#000" stroke-width="1"/>
  <path d="M468.858587 336.156382 L504.513888 385.413734 L493.132753 388.099782 L528.915442 427.715017 L510.705626 432.012693 L566.974358 466.793042 L516.897364 478.611653 L525.492717 515.031285 L498.177993 521.477800 L489.582640 485.058168 L439.505646 496.876779 L474.285994 440.608047 L456.076178 444.905724 L470.370483 393.471878 L458.989348 396.157926 Z" fill="#888" fill-opacity="0.18" stroke="#000" stroke-width="1"/>
  <path d="M792.433478 507.613467 L742.201074 473.345511 L751.999558 466.963128 L704.913364 441.810435 L720.590938 431.598623 L655.867473 417.934219 L698.980801 389.851736 L678.557177 358.496588 L702.073537 343.178870 L722.497162 374.534018 L765.610489 346.451535 L751.946085 411.174999 L767.623659 400.963187 L771.596525 454.198363 L781.395009 447.815981 Z" fill="#888" fill-opacity="0.18" stroke="#000" stroke-width="1"/>
  <path d="M921.568939 476.526528 L899.024967 533.000916 L890.667381 524.821928 L876.338117 576.246045 L862.965980 563.159664 L863.680370 629.305959 L826.906992 593.318411 L800.734230 620.062685 L780.676024 600.433113 L806.848787 573.688839 L770.075410 537.701291 L836.221706 536.986901 L822.849568 523.900520 L873.952210 508.463951 L865.594624 500.284963 Z" fill="#888" fill-opacity="0.18" stroke="#000" stroke-width="1"/>
  <path d="M771.118076 63.376408 L728.177158 106.430616 L723.710503 95.623485 L690.308621 137.265794 L683.161973 119.974385 L657.800071 181.069530 L638.146787 133.518154 L603.563969 147.811451 L592.843996 121.874337 L627.426814 107.581040 L607.773531 60.029664 L668.868676 85.391566 L661.722027 68.100157 L714.777192 74.009223 L710.310537 63.202092 Z" fill="#888" fill-opacity="0.18" stroke="#000" stroke-width="1"/>
  <path d="M46.071195 586.842018 L105.651982 574.688130 L103.402614 586.163557 L154.252933 569.915089 L150.653944 588.275773 L205.553125 551.371536 L195.655906 601.863416 L232.377273 609.061393 L226.978790 636.602419 L190.257423 629.404441 L180.360204 679.896321 L143.455966 624.997140 L139.856978 643.357824 L98.903878 609.114412 L96.654510 620.589839 Z" fill="#888" fill-opacity="0.18" stroke="#000" stroke-width="1"/>
</svg>
