<?xml version="1.0" encoding="UTF-8"?>
<svg xmlns="http://www.w3.org/2000/svg" width="1100" height="1100" viewBox="0 0 1100 1100">
  <rect x="0" y="0" width="1100" height="1100" fill="white"/>
  <text x="10.0" y="18.0" font-family="monospace" font-size="12">prefix=N54_job5048454_task54 run_id=54 L=5.66770003638 feas=0.000e+00 N=54</text>
  <rect x="40.000000" y="40.000000" width="1020.000000" height="1020.000000" fill="none" stroke="#000" stroke-width="2"/>
  <path d="M253.765725 972.603486 L229.901043 919.204243 L241.145337 918.917557 L215.261145 874.571088 L233.252017 874.112390 L187.128094 830.281955 L236.602990 829.020537 L235.685595 793.038794 L262.671902 792.350747 L263.589298 828.332490 L313.064195 827.071072 L269.233760 873.194995 L287.224631 872.736297 L263.633927 918.344185 L274.878222 918.057499 Z" fill="#888" fill-opacity="0.18" stroke="#000" stroke-width="1"/>
  <path d="M149.700250 698.943007 L117.078087 650.396157 L128.108753 648.195984 L95.040595 608.913701 L112.689661 605.393424 L59.766304 570.071452 L108.301234 560.390691 L101.260680 525.092560 L127.734279 519.812144 L134.774833 555.110275 L183.309763 545.429513 L147.987792 598.352870 L165.636857 594.832593 L150.170085 643.795637 L161.200751 641.595464 Z" fill="#888" fill-opacity="0.18" stroke="#000" stroke-width="1"/>
  <path d="M476.418643 876.517719 L534.579756 870.330057 L531.376300 881.112182 L581.552403 870.205330 L576.426874 887.456730 L632.369198 857.142053 L618.273993 904.583403 L652.776793 914.834462 L645.088499 940.711563 L610.585699 930.460504 L596.490493 977.901855 L566.175816 921.959531 L561.050286 939.210931 L524.969388 902.676432 L521.765933 913.458558 Z" fill="#888" fill-opacity="0.18" stroke="#000" stroke-width="1"/>
  <path d="M1057.385543 794.495337 L1001.952484 775.835805 L1009.364905 767.375760 L959.217398 756.338174 L971.077272 742.802101 L907.587406 746.992596 L940.202060 709.768398 L913.129916 686.048650 L930.919727 665.744542 L957.991872 689.464290 L990.606526 652.240092 L994.797020 715.729957 L1006.656895 702.193885 L1024.189748 750.455670 L1031.602169 741.995625 Z" fill="#888" fill-opacity="0.18" stroke="#000" stroke-width="1"/>
  <path d="M438.796952 264.538552 L381.440141 275.992742 L383.649221 264.963856 L334.673703 280.391087 L338.208230 262.744870 L285.256369 298.024095 L294.976319 249.496998 L259.683885 242.427944 L264.985675 215.958618 L300.278110 223.027672 L309.998059 174.500575 L345.277284 227.452435 L348.811812 209.806218 L388.067380 242.906085 L390.276459 231.877199 Z" fill="#888" fill-opacity="0.18" stroke="#000" stroke-width="1"/>
  <path d="M345.723700 431.349549 L395.992979 461.249411 L386.967169 467.961424 L433.672000 489.298236 L419.230704 500.037456 L482.181993 509.292646 L442.468430 538.825500 L463.946869 567.708091 L442.284926 583.816921 L420.806486 554.934330 L381.092923 584.467184 L390.348113 521.515895 L375.906817 532.255115 L368.915549 481.385449 L359.889740 488.097461 Z" fill="#888" fill-opacity="0.18" stroke="#000" stroke-width="1"/>
  <path d="M778.079740 965.206712 L759.019802 909.910049 L770.245536 910.616618 L748.375195 864.159229 L766.336370 865.289739 L724.259707 817.560526 L773.652939 820.669429 L775.913959 784.747079 L802.855722 786.442844 L800.594702 822.365194 L849.987933 825.474096 L802.258720 867.550759 L820.219896 868.681269 L792.697005 912.029756 L803.922739 912.736324 Z" fill="#888" fill-opacity="0.18" stroke="#000" stroke-width="1"/>
  <path d="M74.469532 181.878810 L108.532303 134.331677 L114.453187 143.895123 L139.681025 99.172008 L149.154439 114.473521 L163.724686 52.536205 L189.776574 94.615365 L220.379600 75.668537 L234.589720 98.620806 L203.986695 117.567634 L230.038583 159.646794 L168.101266 145.076547 L177.574680 160.378060 L126.294954 163.022014 L132.215838 172.585459 Z" fill="#888" fill-opacity="0.18" stroke="#000" stroke-width="1"/>
  <path d="M76.448193 267.508020 L130.984137 288.646445 L123.198030 296.763889 L172.797240 310.049939 L160.339469 323.037849 L223.953672 321.712501 L189.694802 357.429254 L215.670622 382.344796 L196.983966 401.826661 L171.008146 376.911119 L136.749276 412.627872 L135.423928 349.013670 L122.966157 362.001580 L107.625817 312.998776 L99.839710 321.116220 Z" fill="#888" fill-opacity="0.18" stroke="#000" stroke-width="1"/>
  <path d="M845.968310 624.413548 L892.465763 588.931312 L895.325224 599.809724 L932.548056 564.439374 L937.123193 581.844833 L969.198995 526.893343 L981.780623 574.758354 L1016.591540 565.608079 L1023.454246 591.716266 L988.643330 600.866541 L1001.224958 648.731552 L946.273468 616.655750 L950.848606 634.061208 L901.044146 621.566546 L903.903607 632.444958 Z" fill="#888" fill-opacity="0.18" stroke="#000" stroke-width="1"/>
  <path d="M728.909206 1046.631834 L670.530197 1050.222576 L674.210761 1039.593851 L623.598619 1048.254789 L629.487522 1031.248829 L572.250364 1059.041473 L588.444847 1012.275082 L554.432926 1000.497276 L563.266280 974.988336 L597.278201 986.766141 L613.472684 939.999750 L641.265327 997.236908 L647.154230 980.230948 L681.571890 1018.336400 L685.252454 1007.707675 Z" fill="#888" fill-opacity="0.18" stroke="#000" stroke-width="1"/>
  <path d="M545.087955 304.605143 L497.067229 271.213346 L506.546595 265.158765 L461.473662 240.561378 L476.640648 230.874047 L414.504854 217.174907 L456.214068 190.534748 L436.839406 160.200774 L459.589886 145.669778 L478.964548 176.003751 L520.673761 149.363592 L506.974622 211.499385 L522.141608 201.812054 L525.505329 253.049601 L534.984695 246.995019 Z" fill="#888" fill-opacity="0.18" stroke="#000" stroke-width="1"/>
  <path d="M673.201722 779.406537 L704.605767 730.062965 L711.042197 739.287320 L733.779473 693.248020 L744.077760 708.006989 L755.229462 645.363850 L783.549752 685.951013 L813.067689 665.354438 L828.515120 687.492891 L798.997183 708.089465 L827.317473 748.676628 L764.674334 737.524925 L774.972622 752.283893 L723.915056 757.736030 L730.351485 766.960385 Z" fill="#888" fill-opacity="0.18" stroke="#000" stroke-width="1"/>
  <path d="M269.548436 302.158941 L278.482578 359.961911 L267.560886 357.272486 L280.830907 406.875987 L263.356200 402.572907 L296.285265 457.017374 L248.229823 445.183902 L239.623662 480.133315 L213.411602 473.678695 L222.017763 438.729282 L173.962321 426.895811 L228.406787 393.966746 L210.932081 389.663665 L245.717503 351.893635 L234.795812 349.204210 Z" fill="#888" fill-opacity="0.18" stroke="#000" stroke-width="1"/>
  <path d="M62.846906 566.492071 L55.482110 508.468266 L66.326927 511.452607 L54.405694 461.507787 L71.757401 466.282733 L40.315498 410.966099 L88.032693 424.097201 L97.582585 389.393786 L123.610147 396.556205 L114.060255 431.259620 L161.777450 444.390721 L106.460817 475.832625 L123.812524 480.607571 L88.016561 517.421289 L98.861378 520.405631 Z" fill="#888" fill-opacity="0.18" stroke="#000" stroke-width="1"/>
  <path d="M88.327970 1050.404424 L130.076907 1009.440678 L134.260639 1019.881595 L166.820096 980.176651 L173.514067 996.882118 L198.542807 938.383525 L216.951226 984.323558 L250.362160 970.935617 L260.403116 995.993817 L226.992182 1009.381758 L245.400602 1055.321792 L186.902008 1030.293052 L193.595979 1046.998518 L142.628102 1040.763428 L146.811834 1051.204345 Z" fill="#888" fill-opacity="0.18" stroke="#000" stroke-width="1"/>
  <path d="M61.917357 1042.813831 L57.230144 984.512611 L67.926160 987.992782 L58.315608 937.552341 L75.429234 943.120614 L46.565851 886.415866 L93.628323 901.728617 L104.764870 867.501365 L130.435309 875.853775 L119.298762 910.081027 L166.361234 925.393779 L109.656486 954.257161 L126.770112 959.825434 L89.318193 994.953123 L100.014209 998.433294 Z" fill="#888" fill-opacity="0.18" stroke="#000" stroke-width="1"/>
  <path d="M964.644545 1055.609437 L946.913464 999.872457 L958.119073 1000.847486 L937.366847 953.879987 L955.295821 955.440033 L914.373499 906.717483 L963.678179 911.007608 L966.798270 875.149660 L993.691731 877.489728 L990.571640 913.347677 L1039.876320 917.637802 L991.153770 958.560124 L1009.082744 960.120170 L980.530290 1002.797543 L991.735899 1003.772571 Z" fill="#888" fill-opacity="0.18" stroke="#000" stroke-width="1"/>
  <path d="M538.590194 791.978325 L504.510777 839.513528 L498.593242 829.948010 L473.349746 874.662289 L463.881691 859.357460 L449.289757 921.289671 L423.252604 879.201392 L392.642947 898.137503 L378.440863 875.180260 L409.050521 856.244148 L383.013368 814.155869 L444.945579 828.747802 L435.477524 813.442973 L486.758172 810.816974 L480.840638 801.251456 Z" fill="#888" fill-opacity="0.18" stroke="#000" stroke-width="1"/>
  <path d="M563.974570 293.358308 L589.535477 240.749923 L596.983644 249.178515 L614.312044 200.842945 L626.229111 214.328692 L630.150810 150.821656 L662.922745 187.907460 L689.894239 164.073326 L707.769840 184.301946 L680.798346 208.136081 L713.570281 245.221885 L650.063245 241.300186 L661.980313 254.785933 L611.879978 266.035699 L619.328145 274.464290 Z" fill="#888" fill-opacity="0.18" stroke="#000" stroke-width="1"/>
  <path d="M1054.315474 256.826639 L1046.238860 314.755652 L1036.552986 309.037243 L1034.988274 360.361238 L1019.490876 351.211784 L1035.360737 412.828915 L992.742891 387.667917 L974.443983 418.662713 L951.197886 404.938532 L969.496794 373.943736 L926.878948 348.782737 L988.496079 332.912876 L972.998681 323.763422 L1017.181238 297.600426 L1007.495364 291.882017 Z" fill="#888" fill-opacity="0.18" stroke="#000" stroke-width="1"/>
  <path d="M828.550554 70.479184 L818.740874 128.140023 L809.230790 122.133805 L806.128101 173.387821 L790.911967 163.777871 L804.927429 225.843080 L763.083060 199.415719 L743.863162 229.847988 L721.038960 215.433064 L740.258859 185.000796 L698.414490 158.573435 L760.479699 144.557973 L745.263565 134.948024 L790.210622 110.121369 L780.700539 104.115150 Z" fill="#888" fill-opacity="0.18" stroke="#000" stroke-width="1"/>
  <path d="M779.648045 518.047310 L743.014797 472.451177 L753.818345 469.320728 L717.528747 432.993523 L734.814424 427.984806 L679.078439 397.292408 L726.614050 383.518435 L716.596615 348.947082 L742.525130 341.434006 L752.542564 376.005359 L800.078175 362.231387 L769.385777 417.967371 L786.671453 412.958654 L775.425441 463.059832 L786.228989 459.929384 Z" fill="#888" fill-opacity="0.18" stroke="#000" stroke-width="1"/>
  <path d="M579.067729 568.537908 L624.743351 532.003819 L627.850318 542.814143 L664.256288 506.603562 L669.227435 523.900081 L700.040864 468.230916 L713.711519 515.796343 L748.304556 505.854049 L755.761277 531.798827 L721.168239 541.741121 L734.838894 589.306547 L679.169729 558.493118 L684.140876 575.789637 L634.064252 564.434791 L637.171219 575.245115 Z" fill="#888" fill-opacity="0.18" stroke="#000" stroke-width="1"/>
  <path d="M554.340492 355.276172 L603.874594 386.378824 L594.689648 392.871368 L640.866704 415.327555 L626.170791 425.715625 L688.880749 436.485233 L648.466987 465.052425 L669.243127 494.444252 L647.199258 510.026357 L626.423118 480.634530 L586.009356 509.201723 L596.778964 446.491765 L582.083051 456.879835 L576.319757 405.856456 L567.134811 412.349000 Z" fill="#888" fill-opacity="0.18" stroke="#000" stroke-width="1"/>
  <path d="M451.636068 280.260369 L423.460901 331.516219 L416.446191 322.723597 L396.708064 370.126204 L385.484529 356.058008 L378.372878 419.287335 L347.508156 380.599797 L319.371766 403.046868 L302.536463 381.944575 L330.672854 359.497504 L299.808132 320.809967 L363.037458 327.921618 L351.813923 313.853422 L402.416772 305.138353 L395.402063 296.345731 Z" fill="#888" fill-opacity="0.18" stroke="#000" stroke-width="1"/>
  <path d="M841.340517 330.972007 L875.618440 378.364266 L864.670264 380.943760 L899.074227 419.061578 L881.557145 423.188768 L935.667826 456.663498 L887.495850 468.013271 L895.750231 503.047435 L869.474608 509.238221 L861.220227 474.204056 L813.048251 485.553830 L846.522981 431.443149 L829.005899 435.570339 L842.773911 386.102747 L831.825735 388.682241 Z" fill="#888" fill-opacity="0.18" stroke="#000" stroke-width="1"/>
  <path d="M1050.153759 569.990123 L1001.089720 538.151118 L1010.370612 531.796481 L964.534104 508.653116 L979.383530 498.485697 L916.841418 486.780677 L957.677341 458.820276 L937.342503 429.121424 L959.616643 413.870296 L979.951480 443.569149 L1020.787403 415.608748 L1009.082383 478.150860 L1023.931809 467.983441 L1028.932395 519.087208 L1038.213286 512.732571 Z" fill="#888" fill-opacity="0.18" stroke="#000" stroke-width="1"/>
  <path d="M383.998176 48.651934 L442.415138 51.560651 L437.578017 61.715384 L488.838617 58.723458 L481.099223 74.971031 L541.066642 53.700584 L519.783307 98.381410 L552.278454 113.860200 L540.669362 138.231559 L508.174215 122.752770 L486.890880 167.433597 L465.620434 107.466177 L457.881039 123.713750 L427.903774 82.024851 L423.066652 92.179584 Z" fill="#888" fill-opacity="0.18" stroke="#000" stroke-width="1"/>
  <path d="M290.076731 630.775967 L346.023198 647.834541 L338.856997 656.504138 L389.301027 666.095832 L377.835104 679.967186 L441.178298 673.953606 L409.647010 712.099832 L437.389720 735.031677 L420.190836 755.838709 L392.448126 732.906864 L360.916839 771.053089 L354.903259 707.709896 L343.437336 721.581250 L324.524593 673.843331 L317.358392 682.512928 Z" fill="#888" fill-opacity="0.18" stroke="#000" stroke-width="1"/>
  <path d="M884.895151 889.256863 L922.011672 844.053256 L927.290676 853.985449 L955.405641 811.018607 L963.852048 826.910116 L982.464805 766.065326 L1005.692423 809.766977 L1037.475443 792.874164 L1050.145053 816.711428 L1018.362033 833.604242 L1041.589652 877.305893 L980.744861 858.693136 L989.191268 874.584645 L937.848684 873.849836 L943.127689 883.782030 Z" fill="#888" fill-opacity="0.18" stroke="#000" stroke-width="1"/>
  <path d="M71.973316 229.911139 L125.080098 205.402530 L125.502722 216.642537 L169.532974 190.224026 L170.209173 208.208036 L213.478701 161.557514 L215.338248 211.013541 L251.306268 209.661144 L252.320566 236.637159 L216.352546 237.989556 L218.212093 287.445584 L171.561571 244.176056 L172.237769 262.160066 L126.347971 239.122549 L126.770595 250.362555 Z" fill="#888" fill-opacity="0.18" stroke="#000" stroke-width="1"/>
  <path d="M186.534076 661.322827 L222.478405 615.181659 L228.010541 624.975117 L255.013675 581.300966 L263.865093 596.970499 L280.910383 535.668122 L305.251780 578.759339 L336.590847 561.056505 L349.867973 584.560805 L318.528906 602.263639 L342.870304 645.354856 L281.567927 628.309566 L290.419345 643.979099 L239.074812 644.562034 L244.606948 654.355492 Z" fill="#888" fill-opacity="0.18" stroke="#000" stroke-width="1"/>
  <path d="M924.534192 322.541579 L891.463104 274.299426 L902.472886 271.997026 L869.041762 233.023179 L886.657414 229.339337 L833.408682 194.509812 L881.851723 184.379248 L874.484041 149.147945 L900.907518 143.622183 L908.275201 178.853486 L956.718242 168.722923 L921.888717 221.971655 L939.504368 218.287813 L924.492451 267.392224 L935.502233 265.089823 Z" fill="#888" fill-opacity="0.18" stroke="#000" stroke-width="1"/>
  <path d="M304.700902 825.788395 L262.490978 785.299823 L272.800334 780.801654 L232.127074 749.460200 L248.622045 742.263130 L189.391943 719.018380 L234.753111 699.226437 L220.358970 666.236496 L245.101425 655.440891 L259.495566 688.430831 L304.856734 668.638887 L281.611985 727.868989 L298.106955 720.671919 L293.419047 771.805316 L303.728404 767.307147 Z" fill="#888" fill-opacity="0.18" stroke="#000" stroke-width="1"/>
  <path d="M173.567589 496.182193 L229.322024 478.506073 L228.335948 489.710715 L275.323884 469.004807 L273.746162 486.932234 L322.509035 446.057969 L318.170301 495.358395 L354.025156 498.513838 L351.658574 525.404979 L315.803718 522.249536 L311.464984 571.549962 L270.590719 522.787089 L269.012998 540.714517 L226.363796 512.120000 L225.377720 523.324642 Z" fill="#888" fill-opacity="0.18" stroke="#000" stroke-width="1"/>
  <path d="M407.372322 416.839894 L441.382800 369.255343 L447.314194 378.812273 L472.492849 334.061450 L481.983079 349.352539 L496.485225 287.399242 L522.583359 329.449735 L553.165536 310.469275 L567.400881 333.405908 L536.818704 352.386368 L562.916838 394.436862 L500.963540 379.934716 L510.453770 395.225805 L459.176982 397.926134 L465.108376 407.483064 Z" fill="#888" fill-opacity="0.18" stroke="#000" stroke-width="1"/>
  <path d="M583.506443 588.725574 L641.385642 597.151759 L635.608864 606.802934 L686.922477 608.677461 L677.679632 624.119341 L739.391447 608.621752 L713.973623 651.086924 L744.857384 669.572614 L730.993117 692.735435 L700.109355 674.249745 L674.691531 716.714917 L659.193942 655.003103 L649.951097 670.444983 L624.055307 626.105285 L618.278529 635.756460 Z" fill="#888" fill-opacity="0.18" stroke="#000" stroke-width="1"/>
  <path d="M722.903669 334.447024 L762.492978 291.392538 L767.207583 301.604730 L797.684219 260.279490 L805.227586 276.618996 L827.217933 216.911811 L847.962194 261.845454 L880.641207 246.758719 L891.956258 271.267978 L859.277245 286.354713 L880.021506 331.288356 L820.314321 309.298009 L827.857689 325.637515 L776.636792 322.029113 L781.351397 332.241304 Z" fill="#888" fill-opacity="0.18" stroke="#000" stroke-width="1"/>
  <path d="M905.495962 1050.515538 L863.376241 1009.933137 L873.695581 1005.457920 L833.092165 974.026035 L849.603110 966.865689 L790.424881 943.489194 L835.829979 923.798240 L821.509285 890.776350 L846.275702 880.035830 L860.596396 913.057720 L906.001494 893.366766 L882.624999 952.544995 L899.135944 945.384648 L894.334262 996.507487 L904.653602 992.032270 Z" fill="#888" fill-opacity="0.18" stroke="#000" stroke-width="1"/>
  <path d="M404.702106 806.998141 L424.165514 751.842199 L432.516908 759.376823 L444.282337 709.395072 L457.644569 721.450471 L454.377488 657.906396 L491.123623 691.058742 L515.234421 664.334280 L535.277768 682.417378 L511.166970 709.141840 L547.913106 742.294187 L484.369031 745.561268 L497.731262 757.616667 L449.219697 774.446072 L457.571092 781.980696 Z" fill="#888" fill-opacity="0.18" stroke="#000" stroke-width="1"/>
  <path d="M646.398850 427.961635 L638.450878 370.014833 L649.325161 372.889956 L636.902233 323.067555 L654.301085 327.667752 L622.304450 272.670129 L670.151292 285.320672 L679.351687 250.522969 L705.449965 257.423265 L696.249570 292.220969 L744.096413 304.871512 L689.098789 336.868148 L706.497641 341.468345 L671.073725 378.640203 L681.948008 381.515327 Z" fill="#888" fill-opacity="0.18" stroke="#000" stroke-width="1"/>
  <path d="M1037.285546 50.600163 L997.522852 93.494572 L992.849488 83.263443 L962.206370 124.465386 L954.728987 108.095579 L932.497926 167.713556 L911.935122 122.696585 L879.195507 137.651351 L867.979432 113.096639 L900.719047 98.141873 L880.156244 53.124902 L939.774221 75.355963 L932.296838 58.986155 L983.502759 62.801183 L978.829394 52.570053 Z" fill="#888" fill-opacity="0.18" stroke="#000" stroke-width="1"/>
  <path d="M1048.932471 98.537897 L1050.670237 157.001410 L1040.163566 152.985665 L1047.215262 203.846990 L1030.404588 197.421798 L1056.368293 255.511464 L1010.138939 237.842185 L997.288554 271.463534 L972.072543 261.825745 L984.922927 228.204397 L938.693573 210.535118 L996.783239 184.571413 L979.972565 178.146221 L1019.150223 144.954175 L1008.643551 140.938430 Z" fill="#888" fill-opacity="0.18" stroke="#000" stroke-width="1"/>
  <path d="M228.966389 171.851622 L271.189613 131.376920 L275.251452 141.865858 L308.271158 102.542839 L314.770100 119.325140 L340.478497 61.122033 L358.350588 107.273360 L391.915189 94.275476 L401.663602 119.448927 L368.099001 132.446811 L385.971091 178.598138 L327.767984 152.889742 L334.266926 169.672042 L283.375129 162.843734 L287.436968 173.332672 Z" fill="#888" fill-opacity="0.18" stroke="#000" stroke-width="1"/>
  <path d="M51.809777 694.171042 L108.094896 710.076625 L101.108319 718.891618 L151.738759 727.444942 L140.560236 741.548930 L203.766514 734.235266 L173.025576 773.021234 L201.233553 795.378280 L184.465768 816.534263 L156.257792 794.177217 L125.516853 832.963185 L118.203190 769.756907 L107.024667 783.860895 L87.135165 736.521604 L80.148588 745.336596 Z" fill="#888" fill-opacity="0.18" stroke="#000" stroke-width="1"/>
  <path d="M420.282967 641.911429 L454.390865 594.396657 L460.302666 603.965719 L485.572953 559.266576 L495.031835 574.577077 L509.660880 512.653621 L535.672806 554.757496 L566.293806 535.839732 L580.482129 558.805482 L549.861129 577.723246 L575.873055 619.827121 L513.949600 605.198077 L523.408482 620.508577 L472.126269 623.103845 L478.038070 632.672907 Z" fill="#888" fill-opacity="0.18" stroke="#000" stroke-width="1"/>
  <path d="M601.932655 648.362235 L611.987809 705.980774 L601.015941 703.503986 L615.246899 752.840389 L597.691911 748.877529 L631.672231 802.672149 L583.396014 791.774284 L575.470293 826.884260 L549.137811 820.939969 L557.063532 785.829993 L508.787315 774.932128 L562.581935 740.951808 L545.026947 736.988948 L579.072206 698.550411 L568.100339 696.073623 Z" fill="#888" fill-opacity="0.18" stroke="#000" stroke-width="1"/>
  <path d="M780.708311 672.572690 L772.294262 614.691727 L783.191330 617.479245 L770.367853 567.758432 L787.803162 572.218461 L755.364962 517.480115 L803.312062 529.745196 L812.232120 494.874577 L838.385084 501.564621 L829.465026 536.435239 L877.412126 548.700320 L822.673780 581.138519 L840.109089 585.598549 L804.985466 623.054281 L815.882534 625.841799 Z" fill="#888" fill-opacity="0.18" stroke="#000" stroke-width="1"/>
  <path d="M681.199893 804.949691 L710.810555 855.389863 L699.666541 856.915411 L730.285566 898.135262 L712.455144 900.576139 L763.133395 939.050002 L714.099732 945.762416 L718.981488 981.423262 L692.235854 985.084578 L687.354098 949.423733 L638.320435 956.136146 L676.794298 905.457895 L658.963875 907.898773 L677.378512 859.966509 L666.234498 861.492057 Z" fill="#888" fill-opacity="0.18" stroke="#000" stroke-width="1"/>
  <path d="M605.415705 222.924586 L580.101186 170.197199 L591.333453 169.603452 L564.247479 125.980628 L582.219105 125.030633 L534.915051 82.476554 L584.337025 79.864067 L582.437035 43.920814 L609.394475 42.495821 L611.294465 78.439075 L660.716439 75.826589 L618.162359 123.130643 L636.133986 122.180648 L613.797987 168.415959 L625.030253 167.822212 Z" fill="#888" fill-opacity="0.18" stroke="#000" stroke-width="1"/>
  <path d="M868.519128 654.305149 L891.926230 707.906546 L880.679894 708.097053 L906.183858 752.663280 L888.189721 752.968091 L933.937089 797.191407 L884.453213 798.029635 L885.062833 834.017908 L858.071628 834.475124 L857.462008 798.486850 L807.978132 799.325078 L852.201448 753.577711 L834.207311 753.882521 L858.187224 708.478066 L846.940888 708.668572 Z" fill="#888" fill-opacity="0.18" stroke="#000" stroke-width="1"/>
  <path d="M373.197999 920.823001 L430.319117 933.399967 L423.861585 942.609562 L474.906534 948.178583 L464.574482 962.913934 L527.242989 951.905685 L498.829847 992.427901 L528.300550 1013.092004 L512.802472 1035.195031 L483.331770 1014.530927 L454.918628 1055.053143 L443.910379 992.384636 L433.578328 1007.119987 L410.946521 961.028751 L404.488988 970.238345 Z" fill="#888" fill-opacity="0.18" stroke="#000" stroke-width="1"/>
  <path d="M413.583560 1050.817292 L362.020421 1023.208510 L370.735229 1016.097360 L323.118049 996.882655 L337.061743 985.504815 L273.757906 979.090181 L312.103065 947.801119 L289.347384 919.913731 L310.262925 902.846970 L333.018606 930.734358 L371.363765 899.445297 L364.949131 962.749133 L378.892825 951.371293 L388.164847 1001.875059 L396.879656 994.763909 Z" fill="#888" fill-opacity="0.18" stroke="#000" stroke-width="1"/>
</svg>
