<?xml version="1.0" encoding="UTF-8"?>
<svg xmlns="http://www.w3.org/2000/svg" width="1100" height="1100" viewBox="0 0 1100 1100">
  <rect x="0" y="0" width="1100" height="1100" fill="white"/>
  <text x="10.0" y="18.0" font-family="monospace" font-size="12">prefix=N56_job5048456_task56 run_id=56 L=5.87641025293 feas=0.000e+00 N=56</text>
  <rect x="40.000000" y="40.000000" width="1020.000000" height="1020.000000" fill="none" stroke="#000" stroke-width="2"/>
  <path d="M437.597552 997.568638 L489.794009 976.171380 L489.731654 987.019661 L533.261957 963.402863 L533.162189 980.760112 L576.804731 937.616410 L576.530369 985.348844 L611.244867 985.548380 L611.095215 1011.584253 L576.380717 1011.384717 L576.106356 1059.117151 L532.962653 1015.474610 L532.862885 1032.831859 L489.606944 1008.716222 L489.544589 1019.564502 Z" fill="#888" fill-opacity="0.18" stroke="#000" stroke-width="1"/>
  <path d="M791.826794 547.057473 L833.318916 585.276794 L823.465477 589.815386 L863.297413 619.244238 L847.531911 626.505986 L905.100036 647.765370 L861.744906 667.735178 L876.268402 699.266182 L852.620149 710.158804 L838.096652 678.627800 L794.741522 698.597608 L816.000907 641.029482 L800.235404 648.291230 L803.758599 598.892571 L793.905161 603.431164 Z" fill="#888" fill-opacity="0.18" stroke="#000" stroke-width="1"/>
  <path d="M744.791317 628.009285 L688.481009 631.394814 L692.044991 621.148492 L643.218943 629.434472 L648.921314 613.040357 L593.680099 639.769716 L609.361620 594.685900 L576.573390 583.281157 L585.126947 558.689985 L617.915177 570.094728 L633.596698 525.010912 L660.326057 580.252127 L666.028428 563.858012 L699.172955 600.655849 L702.736937 590.409527 Z" fill="#888" fill-opacity="0.18" stroke="#000" stroke-width="1"/>
  <path d="M885.311073 759.602330 L845.422206 799.492066 L841.291548 789.460778 L810.253844 828.052245 L803.644791 812.002184 L780.042271 868.649969 L761.867375 824.512301 L729.767253 837.730408 L719.853673 813.655316 L751.953795 800.437210 L733.778899 756.299542 L790.426684 779.902062 L783.817631 763.852001 L833.030232 769.398202 L828.899573 759.366914 Z" fill="#888" fill-opacity="0.18" stroke="#000" stroke-width="1"/>
  <path d="M443.408123 629.216309 L499.235057 621.112841 L496.544331 631.622317 L544.501829 619.264373 L540.196668 636.079534 L592.997473 604.804535 L581.158280 651.046227 L614.788601 659.656549 L608.330860 684.879290 L574.700538 676.268968 L562.861345 722.510660 L531.586346 669.709855 L527.281185 686.525016 L491.162880 652.641268 L488.472154 663.150743 Z" fill="#888" fill-opacity="0.18" stroke="#000" stroke-width="1"/>
  <path d="M510.506923 184.184281 L565.777462 195.474993 L559.685136 204.451220 L608.993160 209.072825 L599.245438 223.434788 L659.519648 211.899186 L632.713414 251.394582 L661.437339 270.890025 L646.815756 292.432969 L618.091831 272.937526 L591.285597 312.432923 L579.749995 252.158712 L570.002273 266.520675 L547.500484 222.403673 L541.408158 231.379899 Z" fill="#888" fill-opacity="0.18" stroke="#000" stroke-width="1"/>
  <path d="M398.583369 329.102087 L342.846846 320.398487 L348.514388 311.148187 L299.044596 308.828679 L308.112663 294.028199 L248.441296 308.359232 L273.378480 267.657912 L243.777520 249.521779 L257.379621 227.321059 L286.980580 245.457192 L311.917764 204.755873 L326.248797 264.427240 L335.316864 249.626760 L359.849471 292.647587 L365.517013 283.397287 Z" fill="#888" fill-opacity="0.18" stroke="#000" stroke-width="1"/>
  <path d="M775.198202 1027.702558 L739.122854 984.333423 L749.489812 981.137291 L713.897977 946.700948 L730.485110 941.587138 L676.232750 912.903832 L721.847366 898.840852 L711.619744 865.666587 L736.500443 857.995870 L746.728065 891.170136 L792.342681 877.107156 L763.659376 931.359516 L780.246509 926.245705 L770.223728 974.745027 L780.590686 971.548895 Z" fill="#888" fill-opacity="0.18" stroke="#000" stroke-width="1"/>
  <path d="M666.709499 724.377097 L694.617081 773.402392 L683.850196 774.730269 L712.848853 814.876480 L695.621836 817.001084 L744.000887 854.757116 L696.626592 860.599777 L700.875799 895.053810 L675.035274 898.240715 L670.786067 863.786682 L623.411771 869.629342 L661.167803 821.250292 L643.940787 823.374895 L662.316425 777.386024 L651.549540 778.713901 Z" fill="#888" fill-opacity="0.18" stroke="#000" stroke-width="1"/>
  <path d="M970.390637 405.933038 L913.983086 406.640782 L918.029607 396.575260 L868.865170 402.533325 L875.339604 386.428489 L818.891429 410.504495 L836.696122 366.216196 L804.486449 353.267328 L814.198100 329.110074 L846.407772 342.058941 L864.212465 297.770642 L888.288471 354.218816 L894.762905 338.113980 L926.122649 376.444214 L930.169170 366.378692 Z" fill="#888" fill-opacity="0.18" stroke="#000" stroke-width="1"/>
  <path d="M1054.401513 650.815037 L998.128947 654.778751 L1001.587501 644.496364 L952.849134 653.283399 L958.382821 636.831580 L903.419056 664.126912 L918.636694 618.884409 L885.733056 607.817036 L894.033586 583.139307 L926.937224 594.206680 L942.154862 548.964178 L969.450194 603.927942 L974.983880 587.476123 L1008.504609 623.931590 L1011.963163 613.649203 Z" fill="#888" fill-opacity="0.18" stroke="#000" stroke-width="1"/>
  <path d="M173.605225 937.687252 L127.881126 904.647587 L137.128115 898.974645 L94.092972 874.467160 L108.888154 865.390453 L49.208430 851.094263 L89.895183 826.133319 L71.741769 796.542954 L93.934544 782.927894 L112.087957 812.518259 L152.774710 787.557315 L138.478520 847.237040 L153.273703 838.160333 L155.622093 887.628762 L164.869083 881.955820 Z" fill="#888" fill-opacity="0.18" stroke="#000" stroke-width="1"/>
  <path d="M681.184057 242.536354 L737.595799 242.368798 L733.453077 252.395110 L782.672313 246.908114 L776.043957 262.950213 L832.720095 239.415855 L814.492116 283.531627 L846.576314 296.788339 L836.633780 320.851488 L804.549582 307.594776 L786.321603 351.710548 L762.787245 295.034411 L756.158889 311.076510 L725.167632 272.447734 L721.024909 282.474045 Z" fill="#888" fill-opacity="0.18" stroke="#000" stroke-width="1"/>
  <path d="M836.576734 1057.095248 L843.677880 1001.131989 L853.086954 1006.531841 L853.986403 957.015870 L869.040921 965.655635 L853.004037 906.419929 L894.403961 930.179281 L911.683490 900.070245 L934.265267 913.029892 L916.985738 943.138928 L958.385663 966.898280 L899.149957 982.935164 L914.204475 991.574928 L871.905101 1017.331547 L881.314175 1022.731400 Z" fill="#888" fill-opacity="0.18" stroke="#000" stroke-width="1"/>
  <path d="M333.290523 1042.623460 L284.089063 1015.027645 L292.626889 1008.334768 L247.072165 988.907790 L260.732687 978.199188 L199.809875 970.819388 L237.376312 941.370731 L215.959107 914.049686 L236.449891 897.986782 L257.867096 925.307827 L295.433533 895.859171 L288.053732 956.781983 L301.714255 946.073381 L309.702542 994.949015 L318.240369 988.256139 Z" fill="#888" fill-opacity="0.18" stroke="#000" stroke-width="1"/>
  <path d="M422.135632 431.297866 L365.731871 432.261380 L369.732708 422.177612 L320.595794 428.358550 L326.997134 412.224521 L270.658711 436.556241 L288.262398 392.187662 L255.994341 379.384981 L265.596352 355.183938 L297.864409 367.986619 L315.468096 323.618041 L339.799816 379.956464 L346.201156 363.822435 L377.734384 402.010076 L381.735222 391.926308 Z" fill="#888" fill-opacity="0.18" stroke="#000" stroke-width="1"/>
  <path d="M674.800697 383.619624 L721.508138 415.253904 L712.437893 421.205352 L756.198224 444.393147 L741.685832 453.915464 L801.772604 466.390652 L761.863526 492.577023 L780.908159 521.601807 L759.139571 535.885282 L740.094938 506.860498 L700.185859 533.046870 L712.661048 472.960097 L698.148655 482.482414 L694.297402 433.108248 L685.227157 439.059696 Z" fill="#888" fill-opacity="0.18" stroke="#000" stroke-width="1"/>
  <path d="M70.228882 513.854840 L109.711317 554.146900 L99.638582 558.175434 L137.912736 589.603599 L121.796360 596.049254 L178.201437 620.226056 L133.881403 637.951607 L146.772713 670.184359 L122.598149 679.852841 L109.706839 647.620089 L65.386805 665.345640 L89.563608 608.940563 L73.447232 615.386218 L79.493112 566.232503 L69.420377 570.261037 Z" fill="#888" fill-opacity="0.18" stroke="#000" stroke-width="1"/>
  <path d="M791.246368 682.699353 L751.845897 642.327141 L761.926798 638.319084 L723.716592 606.813204 L739.846033 600.400314 L683.490205 576.108934 L727.846169 558.473488 L715.020390 526.214604 L739.214552 516.595270 L752.040332 548.854153 L796.396296 531.218706 L772.104917 587.574535 L788.234358 581.161645 L782.088600 630.302972 L792.169501 626.294916 Z" fill="#888" fill-opacity="0.18" stroke="#000" stroke-width="1"/>
  <path d="M519.328014 209.309801 L507.985332 264.569699 L499.014839 258.468934 L494.346867 307.772590 L479.994077 298.011367 L491.472994 358.296398 L452.002822 331.453035 L432.480377 360.158614 L410.951192 345.516779 L430.473638 316.811200 L391.003467 289.967837 L451.288498 278.488921 L436.935709 268.727698 L481.073852 246.267405 L472.103358 240.166641 Z" fill="#888" fill-opacity="0.18" stroke="#000" stroke-width="1"/>
  <path d="M412.892940 203.154255 L370.353542 166.104124 L380.076894 161.293145 L339.441607 132.983891 L354.998970 125.286326 L296.861651 105.636832 L339.644398 84.468528 L324.249268 53.353802 L347.585312 41.807455 L362.980442 72.922180 L405.763189 51.753876 L386.113695 109.891196 L401.671058 102.193630 L399.523597 151.671189 L409.246949 146.860211 Z" fill="#888" fill-opacity="0.18" stroke="#000" stroke-width="1"/>
  <path d="M631.146821 874.361256 L668.177193 916.917857 L657.883834 920.343618 L694.232268 953.980379 L677.762894 959.461597 L732.639374 986.931989 L687.348595 1002.005338 L698.311030 1034.944086 L673.606969 1043.165913 L662.644533 1010.227164 L617.353754 1025.300513 L644.824145 970.424033 L628.354771 975.905251 L637.297116 927.195140 L627.003757 930.620901 Z" fill="#888" fill-opacity="0.18" stroke="#000" stroke-width="1"/>
  <path d="M792.876204 86.022954 L746.244398 117.768621 L744.058170 107.142733 L706.364320 139.264595 L702.866356 122.263175 L669.107715 173.511635 L659.488315 126.757729 L625.485474 133.753657 L620.238529 108.251526 L654.241369 101.255599 L644.621969 54.501693 L695.870429 88.260334 L692.372465 71.258914 L739.685716 85.890958 L737.499488 75.265070 Z" fill="#888" fill-opacity="0.18" stroke="#000" stroke-width="1"/>
  <path d="M274.727151 687.496784 L328.345329 705.029716 L321.267132 713.250921 L369.723985 723.477055 L358.398871 736.630984 L419.596477 732.058948 L388.452413 768.232251 L414.760270 790.882479 L397.772599 810.613372 L371.464742 787.963144 L340.320678 824.136446 L335.748643 762.938840 L324.423528 776.092769 L307.110740 729.693332 L300.032543 737.914537 Z" fill="#888" fill-opacity="0.18" stroke="#000" stroke-width="1"/>
  <path d="M919.577877 1058.880535 L939.599016 1006.140924 L947.480224 1013.595831 L959.961196 965.670204 L972.571128 977.598055 L970.865926 916.253595 L1005.543240 949.055187 L1029.398944 923.835322 L1048.313842 941.727099 L1024.458139 966.946964 L1059.135454 999.748556 L997.790993 1001.453758 L1010.400926 1013.381610 L963.242640 1028.505645 L971.123847 1035.960553 Z" fill="#888" fill-opacity="0.18" stroke="#000" stroke-width="1"/>
  <path d="M500.076152 697.683279 L549.306945 725.226730 L540.776244 731.928687 L586.351612 751.307186 L572.702491 762.030316 L633.633121 769.345293 L596.098037 798.833902 L617.544298 826.132145 L597.070616 842.216841 L575.624355 814.918598 L538.089271 844.407207 L545.404248 783.476577 L531.755127 794.199708 L523.714843 745.332600 L515.184142 752.034556 Z" fill="#888" fill-opacity="0.18" stroke="#000" stroke-width="1"/>
  <path d="M457.290623 43.954704 L511.996446 57.723714 L505.505954 66.416389 L554.555735 73.254471 L544.170948 87.162751 L604.903615 78.354018 L576.345451 116.601788 L604.162011 137.371361 L588.584831 158.233781 L560.768271 137.464207 L532.210108 175.711977 L523.401375 114.979310 L513.016588 128.887590 L492.524971 83.801739 L486.034479 92.494414 Z" fill="#888" fill-opacity="0.18" stroke="#000" stroke-width="1"/>
  <path d="M1040.929030 906.396907 L987.441820 888.468408 L994.580549 880.299709 L946.200552 869.715933 L957.622517 856.646015 L896.392810 860.765896 L927.803214 824.823623 L901.663379 801.979692 L918.796327 782.374815 L944.936162 805.218746 L976.346567 769.276472 L980.466448 830.506180 L991.888413 817.436262 L1008.858005 863.962312 L1015.996734 855.793614 Z" fill="#888" fill-opacity="0.18" stroke="#000" stroke-width="1"/>
  <path d="M414.691452 275.144609 L411.843078 218.804574 L422.054946 222.466108 L414.234972 173.563262 L430.573960 179.421716 L404.372624 123.928108 L449.304843 140.038857 L461.021751 107.360880 L485.530234 116.148561 L473.813326 148.826539 L518.745546 164.937287 L463.251938 191.138624 L479.590927 196.997078 L442.478682 229.789176 L452.690550 233.450710 Z" fill="#888" fill-opacity="0.18" stroke="#000" stroke-width="1"/>
  <path d="M342.447743 610.730025 L287.624867 624.025324 L289.319701 613.310072 L242.730060 630.104289 L245.441795 612.959886 L195.801452 649.041556 L203.258722 601.894449 L168.969917 596.470980 L173.037519 570.754376 L207.326324 576.177845 L214.783595 529.030739 L250.865264 578.671081 L253.576999 561.526679 L292.709370 591.879569 L294.404204 581.164317 Z" fill="#888" fill-opacity="0.18" stroke="#000" stroke-width="1"/>
  <path d="M1001.863834 55.930466 L1016.972094 110.281668 L1006.206476 108.943548 L1024.538355 154.949881 L1007.313367 152.808889 L1045.023357 201.223837 L997.654641 195.336110 L993.372658 229.786085 L967.535177 226.574597 L971.817160 192.124622 L924.448444 186.236895 L972.863392 148.526905 L955.638405 146.385914 L984.675242 106.267308 L973.909625 104.929189 Z" fill="#888" fill-opacity="0.18" stroke="#000" stroke-width="1"/>
  <path d="M927.047042 436.268687 L923.464752 492.566821 L913.735962 487.766848 L915.939408 537.241945 L900.373345 529.561989 L920.088612 587.677037 L877.281939 566.557157 L861.922026 597.689283 L838.572932 586.169348 L853.932845 555.037223 L811.126172 533.917343 L869.241220 514.202077 L853.675157 506.522120 L894.278384 478.166903 L884.549594 473.366930 Z" fill="#888" fill-opacity="0.18" stroke="#000" stroke-width="1"/>
  <path d="M441.503750 694.621004 L478.125900 737.529404 L467.800285 740.856679 L503.825738 774.839133 L487.304754 780.162773 L541.916314 808.156131 L496.483609 822.796142 L507.130889 855.838109 L482.349414 863.823569 L471.702134 830.781602 L426.269429 845.421613 L454.262787 790.810053 L437.741804 796.133694 L447.149056 747.511230 L436.823441 750.838505 Z" fill="#888" fill-opacity="0.18" stroke="#000" stroke-width="1"/>
  <path d="M57.388929 894.161366 L110.674554 912.680406 L103.445906 920.769641 L151.705872 931.887916 L140.140036 944.830692 L201.411569 941.388343 L169.605518 976.980978 L195.491070 1000.112652 L178.142315 1019.526816 L152.256762 996.395143 L120.450711 1031.987778 L117.008362 970.716245 L105.442525 983.659021 L88.988610 936.948112 L81.759962 945.037347 Z" fill="#888" fill-opacity="0.18" stroke="#000" stroke-width="1"/>
  <path d="M51.295398 46.014515 L100.884846 72.906881 L92.443195 79.720661 L138.269949 98.496949 L124.763307 109.398998 L185.785034 115.910481 L148.641768 145.891115 L170.445865 172.904399 L150.185902 189.257472 L128.381805 162.244188 L91.238540 192.224821 L97.750023 131.203095 L84.243381 142.105143 L75.559892 93.348222 L67.118241 100.162002 Z" fill="#888" fill-opacity="0.18" stroke="#000" stroke-width="1"/>
  <path d="M236.202603 661.284051 L285.297156 633.498488 L286.598251 644.268642 L326.816462 615.369924 L328.898213 632.602171 L366.774453 584.317174 L372.499269 631.705855 L406.963764 627.542352 L410.086391 653.390723 L375.621896 657.554226 L381.346713 704.942906 L333.061716 667.066666 L335.143467 684.298914 L289.200440 665.808952 L290.501535 676.579106 Z" fill="#888" fill-opacity="0.18" stroke="#000" stroke-width="1"/>
  <path d="M51.776543 183.514506 L94.033731 220.886190 L84.274173 225.623288 L124.693594 254.239905 L109.078301 261.819262 L167.064927 281.909102 L124.122870 302.752335 L139.281585 333.982921 L115.858645 345.351957 L100.699930 314.121371 L57.757874 334.964603 L77.847714 276.977977 L62.232421 284.557334 L64.755056 235.097484 L54.995498 239.834583 Z" fill="#888" fill-opacity="0.18" stroke="#000" stroke-width="1"/>
  <path d="M983.703086 568.275926 L965.100650 515.019358 L975.930399 515.656246 L954.652503 470.936099 L971.980100 471.955119 L931.208657 426.088574 L978.859551 428.890880 L980.897591 394.235685 L1006.888988 395.764215 L1004.850947 430.419410 L1052.501840 433.221716 L1006.635296 473.993160 L1023.962893 475.012180 L997.589896 516.930021 L1008.419644 517.566909 Z" fill="#888" fill-opacity="0.18" stroke="#000" stroke-width="1"/>
  <path d="M277.615829 569.545108 L323.424350 536.622592 L325.880380 547.189379 L362.744265 514.118329 L366.673912 531.025189 L399.116945 478.933922 L409.923474 525.427787 L443.737194 517.568493 L449.631664 542.928783 L415.817944 550.788077 L426.624473 597.281942 L374.533206 564.838910 L378.462853 581.745770 L330.792438 568.322954 L333.248468 578.889742 Z" fill="#888" fill-opacity="0.18" stroke="#000" stroke-width="1"/>
  <path d="M878.627533 666.641944 L935.038113 666.243075 L930.936538 676.286290 L980.132862 670.597518 L973.570342 686.666661 L1030.149501 662.900103 L1012.102571 707.090247 L1044.240857 720.215288 L1034.397077 744.319003 L1002.258790 731.193963 L984.211860 775.384107 L960.445302 718.804948 L953.882782 734.874092 L922.733388 696.372719 L918.631813 706.415934 Z" fill="#888" fill-opacity="0.18" stroke="#000" stroke-width="1"/>
  <path d="M429.273184 600.699505 L466.872574 558.644796 L471.556887 568.429799 L500.391412 528.165540 L507.886313 543.821545 L528.289074 485.944280 L548.900051 528.998295 L580.212062 514.008493 L591.454413 537.492501 L560.142402 552.482303 L580.753379 595.536318 L522.876114 575.133556 L530.371015 590.789561 L480.925513 587.999806 L485.609826 597.784809 Z" fill="#888" fill-opacity="0.18" stroke="#000" stroke-width="1"/>
  <path d="M544.784437 397.170033 L598.228313 415.227297 L591.069932 423.378779 L639.424298 434.079042 L627.970889 447.121414 L689.210341 443.149009 L657.713465 479.015530 L683.798208 501.922349 L666.618094 521.485906 L640.533351 498.579087 L609.036475 534.445609 L605.064070 473.206156 L593.610660 486.248528 L576.753170 439.681743 L569.594789 447.833226 Z" fill="#888" fill-opacity="0.18" stroke="#000" stroke-width="1"/>
  <path d="M1022.057623 386.220758 L970.093249 364.265883 L977.834083 356.665319 L930.401994 342.423223 L942.787328 330.262321 L881.421738 329.701240 L915.481407 296.258760 L891.159603 271.488092 L909.737604 253.246739 L934.059408 278.017407 L968.119078 244.574927 L967.557997 305.940518 L979.943331 293.779616 L993.315751 341.464191 L1001.056585 333.863628 Z" fill="#888" fill-opacity="0.18" stroke="#000" stroke-width="1"/>
  <path d="M756.909122 339.135454 L706.685220 364.823435 L705.840009 354.007951 L664.437537 381.182861 L663.085199 363.878086 L623.204107 410.520867 L619.485178 362.932737 L584.875629 365.637413 L582.847122 339.680251 L617.456671 336.975575 L613.737743 289.387445 L660.380524 329.268537 L659.028186 311.963762 L704.149587 332.376983 L703.304376 321.561499 Z" fill="#888" fill-opacity="0.18" stroke="#000" stroke-width="1"/>
  <path d="M251.206713 509.176087 L198.517474 529.329420 L198.837093 518.485670 L154.758931 541.063448 L155.270320 523.713447 L110.616846 565.809976 L112.023166 518.097474 L77.323164 517.074696 L78.090248 491.049695 L112.790249 492.072473 L114.196570 444.359972 L156.293098 489.013446 L156.804488 471.663445 L199.476329 496.798169 L199.795947 485.954419 Z" fill="#888" fill-opacity="0.18" stroke="#000" stroke-width="1"/>
  <path d="M778.686718 940.171504 L801.229810 888.459594 L808.742051 896.286172 L823.521433 849.018739 L835.541018 861.541263 L836.798367 800.185990 L869.852226 834.622932 L894.897275 810.583763 L912.926652 829.367549 L887.881603 853.406719 L920.935461 887.843662 L859.580188 886.586312 L871.599773 899.108837 L823.766532 911.939328 L831.278773 919.765906 Z" fill="#888" fill-opacity="0.18" stroke="#000" stroke-width="1"/>
  <path d="M202.672008 645.384193 L220.960504 698.749383 L210.134694 698.048733 L231.148873 742.893405 L213.827577 741.772364 L254.328214 787.878208 L206.694649 784.795344 L204.452567 819.437937 L178.470622 817.756375 L180.712705 783.113782 L133.079140 780.030919 L179.184984 739.530281 L161.863688 738.409240 L188.483074 696.647431 L177.657263 695.946780 Z" fill="#888" fill-opacity="0.18" stroke="#000" stroke-width="1"/>
  <path d="M861.020325 259.194669 L848.969048 204.084966 L859.643202 206.021847 L843.907589 159.064091 L860.986236 162.163101 L826.037145 111.718958 L873.003424 120.241237 L879.201445 86.083944 L904.819415 90.732459 L898.621394 124.889753 L945.587672 133.412032 L895.143529 168.361122 L912.222176 171.460133 L880.991510 209.895610 L891.665665 211.832492 Z" fill="#888" fill-opacity="0.18" stroke="#000" stroke-width="1"/>
  <path d="M820.377561 78.726364 L815.837417 134.955358 L806.191748 129.990466 L807.552651 179.495903 L792.119581 171.552076 L810.842688 229.994319 L768.401746 208.148794 L752.514091 239.014934 L729.364486 227.099193 L745.252141 196.233053 L702.811198 174.387528 L761.253441 155.664421 L745.820371 147.720594 L786.900411 120.060681 L777.254742 115.095789 Z" fill="#888" fill-opacity="0.18" stroke="#000" stroke-width="1"/>
  <path d="M201.881516 289.151238 L197.043459 345.355383 L187.424236 340.339445 L188.522773 389.851399 L173.132017 381.825898 L191.545155 440.366541 L149.220576 418.296413 L133.169574 449.077926 L110.083440 437.039674 L126.134441 406.258162 L83.809862 384.188034 L142.350505 365.774896 L126.959749 357.749395 L168.185791 330.307569 L158.566568 325.291631 Z" fill="#888" fill-opacity="0.18" stroke="#000" stroke-width="1"/>
  <path d="M302.130086 904.925248 L350.020969 934.737595 L341.186611 941.033880 L385.807337 962.519484 L371.672365 972.593540 L432.194935 982.745831 L393.323761 1010.449485 L413.471873 1038.719429 L392.269414 1053.830513 L372.121303 1025.560568 L333.250129 1053.264222 L343.402420 992.741652 L329.267448 1002.815707 L323.517896 953.626450 L314.683538 959.922735 Z" fill="#888" fill-opacity="0.18" stroke="#000" stroke-width="1"/>
  <path d="M563.925811 472.009981 L507.659974 467.951876 L512.542022 458.264014 L463.050065 460.049120 L470.861342 444.548539 L412.581699 463.771799 L434.062710 421.145202 L403.061549 405.522649 L414.778464 382.271778 L445.779625 397.894332 L467.260636 355.267735 L486.483895 413.547378 L494.295172 398.046798 L522.306118 438.888288 L527.188166 429.200425 Z" fill="#888" fill-opacity="0.18" stroke="#000" stroke-width="1"/>
  <path d="M278.575635 709.790284 L305.243328 759.500915 L294.446494 760.558003 L322.427883 801.419748 L305.152947 803.111089 L352.568639 842.070076 L305.062566 846.721264 L308.445248 881.271136 L282.532844 883.808147 L279.150162 849.258276 L231.644089 853.909464 L270.603076 806.493771 L253.328140 808.185113 L272.852824 762.672179 L262.055989 763.729267 Z" fill="#888" fill-opacity="0.18" stroke="#000" stroke-width="1"/>
  <path d="M851.848410 722.583892 L798.221657 740.090578 L799.080437 729.276163 L753.933460 749.632756 L755.307509 732.329691 L708.614727 772.152231 L712.393360 724.568805 L677.787232 721.820708 L679.848304 695.866112 L714.454433 698.614208 L718.233065 651.030782 L758.055605 697.723563 L759.429653 680.420499 L800.797998 707.647333 L801.656778 696.832917 Z" fill="#888" fill-opacity="0.18" stroke="#000" stroke-width="1"/>
  <path d="M251.643753 45.982656 L265.193473 100.743205 L254.470467 99.098145 L271.480838 145.609301 L254.324028 142.977204 L290.635809 192.449470 L243.454583 185.211203 L238.190389 219.524822 L212.455175 215.576676 L217.719369 181.263058 L170.538144 174.024791 L220.010410 137.713010 L202.853600 135.080913 L233.024456 95.808023 L222.301450 94.162963 Z" fill="#888" fill-opacity="0.18" stroke="#000" stroke-width="1"/>
  <path d="M553.306709 846.498285 L524.740893 895.142985 L518.218596 886.474150 L497.892308 931.634779 L487.456632 917.764642 L478.870480 978.529176 L450.172370 940.386299 L422.432096 961.257652 L406.778582 940.452446 L434.518856 919.581093 L405.820746 881.438217 L466.585279 890.024368 L456.149603 876.154231 L505.174000 869.136479 L498.651702 860.467643 Z" fill="#888" fill-opacity="0.18" stroke="#000" stroke-width="1"/>
</svg>
