<?xml version="1.0" encoding="UTF-8"?>
<svg xmlns="http://www.w3.org/2000/svg" width="1100" height="1100" viewBox="0 0 1100 1100">
  <rect x="0" y="0" width="1100" height="1100" fill="white"/>
  <text x="10.0" y="18.0" font-family="monospace" font-size="12">prefix=N5_job5048387_task5 run_id=5 L=1.58951843184 feas=0.000e+00 N=5</text>
  <rect x="40.000000" y="40.000000" width="1020.000000" height="1020.000000" fill="none" stroke="#000" stroke-width="2"/>
  <path d="M1042.049631 182.464984 L941.404186 365.126291 L916.423291 333.749784 L845.875231 502.701678 L805.905800 452.499266 L780.323349 677.928872 L670.407414 539.872241 L570.002591 619.811104 L510.048444 544.507487 L610.453267 464.568624 L500.537331 326.511993 L725.966937 352.094444 L685.997506 301.892032 L866.461502 270.996770 L841.480608 239.620263 Z" fill="#888" fill-opacity="0.18" stroke="#000" stroke-width="1"/>
  <path d="M812.878248 77.224289 L659.226086 218.240856 L645.558364 180.535104 L524.804348 318.158644 L502.935993 257.829442 L406.783876 463.323333 L346.645900 297.418029 L225.987497 341.154738 L193.184964 250.660936 L313.843368 206.924226 L253.705392 41.018921 L459.199284 137.171039 L437.330929 76.841837 L618.222921 105.123602 L604.555199 67.417851 Z" fill="#888" fill-opacity="0.18" stroke="#000" stroke-width="1"/>
  <path d="M1001.046130 395.879067 L1017.316125 603.797191 L979.204181 591.306796 L1013.088881 771.233443 L952.109769 751.248812 L1054.595970 953.658169 L886.903413 898.700433 L846.934151 1020.658656 L755.465484 990.681709 L795.434746 868.723486 L627.742189 813.765750 L830.151546 711.279549 L769.172435 691.294918 L902.980291 566.326007 L864.868347 553.835613 Z" fill="#888" fill-opacity="0.18" stroke="#000" stroke-width="1"/>
  <path d="M129.037190 991.341422 L257.367342 826.945465 L277.058181 861.885429 L373.498194 706.254150 L405.003537 762.158094 L466.000039 543.634878 L552.639731 697.370723 L664.447619 634.360038 L711.705633 718.215953 L599.897745 781.226638 L686.537438 934.962483 L468.014222 873.965981 L499.519565 929.869925 L316.439860 931.765359 L336.130699 966.705324 Z" fill="#888" fill-opacity="0.18" stroke="#000" stroke-width="1"/>
  <path d="M63.082709 165.197895 L208.470643 314.720493 L171.174625 329.469639 L312.222446 446.205593 L252.548816 469.804226 L460.729471 559.991719 L296.626990 624.887958 L343.824254 744.235217 L254.313810 779.633166 L207.116545 660.285906 L43.014064 725.182145 L133.201557 517.001490 L73.527927 540.600123 L96.582587 358.967929 L59.286569 373.717074 Z" fill="#888" fill-opacity="0.18" stroke="#000" stroke-width="1"/>
</svg>
