<?xml version="1.0" encoding="UTF-8"?>
<svg xmlns="http://www.w3.org/2000/svg" width="1100" height="1100" viewBox="0 0 1100 1100">
  <rect x="0" y="0" width="1100" height="1100" fill="white"/>
  <text x="10.0" y="18.0" font-family="monospace" font-size="12">prefix=N63_job5048463_task63 run_id=63 L=6.2739211159 feas=0.000e+00 N=63</text>
  <rect x="40.000000" y="40.000000" width="1020.000000" height="1020.000000" fill="none" stroke="#000" stroke-width="2"/>
  <path d="M824.142714 540.073685 L773.318621 554.521574 L774.513086 544.430915 L731.522627 561.852507 L733.433770 545.707452 L688.293276 581.292232 L693.548919 536.893331 L661.258810 533.071045 L664.125525 508.853463 L696.415634 512.675749 L701.671277 468.276849 L737.256057 513.417343 L739.167200 497.272288 L776.902015 524.249596 L778.096479 514.158937 Z" fill="#888" fill-opacity="0.18" stroke="#000" stroke-width="1"/>
  <path d="M388.773489 667.024533 L436.395246 689.915539 L428.809435 696.675984 L472.539999 712.146252 L460.402700 722.962963 L517.787725 726.264432 L484.410154 756.010388 L506.043576 780.284985 L487.837628 796.510052 L466.204206 772.235455 L432.826635 801.981411 L436.128103 744.596386 L423.990804 755.413097 L413.637812 710.196873 L406.052000 716.957317 Z" fill="#888" fill-opacity="0.18" stroke="#000" stroke-width="1"/>
  <path d="M662.015867 678.461420 L701.519696 713.550983 L692.368899 717.968115 L730.169182 744.853613 L715.527907 751.921024 L769.799625 770.855684 L729.536117 790.291066 L743.670940 819.573618 L721.709027 830.174735 L707.574203 800.892184 L667.310696 820.327566 L686.245355 766.055848 L671.604080 773.123259 L674.067305 726.802379 L664.916507 731.219512 Z" fill="#888" fill-opacity="0.18" stroke="#000" stroke-width="1"/>
  <path d="M252.025490 262.283038 L261.283292 314.303448 L251.364151 312.099181 L264.369194 356.625131 L248.498569 353.098305 L279.358066 401.591935 L235.713846 391.893162 L228.660192 423.634413 L204.854254 418.344172 L211.907907 386.602922 L168.263687 376.904148 L216.757318 346.044651 L200.886692 342.517824 L231.525869 307.690648 L221.606728 305.486381 Z" fill="#888" fill-opacity="0.18" stroke="#000" stroke-width="1"/>
  <path d="M1055.249386 200.692283 L1012.386083 169.796212 L1021.040956 164.472554 L980.705605 141.565112 L994.553401 133.047259 L938.639280 119.722401 L976.720718 96.298307 L959.685013 68.602715 L980.456707 55.825936 L997.492412 83.521528 L1035.573850 60.097433 L1022.248992 116.011554 L1036.096788 107.493702 L1038.350700 153.825238 L1047.005573 148.501580 Z" fill="#888" fill-opacity="0.18" stroke="#000" stroke-width="1"/>
  <path d="M387.019734 545.373791 L336.544478 529.750778 L343.051171 521.946222 L297.518222 513.089474 L307.928931 500.602184 L250.683935 505.793638 L279.313383 471.453591 L254.338804 450.632174 L269.954866 431.901239 L294.929446 452.722656 L323.558894 418.382609 L328.750348 475.627605 L339.161056 463.140315 L356.064557 506.337109 L362.571250 498.532553 Z" fill="#888" fill-opacity="0.18" stroke="#000" stroke-width="1"/>
  <path d="M836.244248 673.282270 L877.852308 705.849113 L868.993692 710.826369 L908.391670 735.310869 L894.217885 743.274478 L949.561371 758.799918 L910.583462 780.699844 L926.510681 809.047414 L905.250003 820.992828 L889.322784 792.645258 L850.344875 814.545183 L865.870315 759.201697 L851.696530 767.165306 L851.276461 720.780881 L842.417845 725.758137 Z" fill="#888" fill-opacity="0.18" stroke="#000" stroke-width="1"/>
  <path d="M421.410529 394.751957 L473.171339 384.138359 L471.226948 394.111698 L515.397965 379.947919 L512.286938 395.905261 L559.957861 363.789472 L551.402537 407.672163 L583.317222 413.894216 L578.650682 437.830230 L546.735998 431.608176 L538.180674 475.490868 L506.064885 427.819945 L502.953859 443.777288 L467.338164 414.058376 L465.393773 424.031715 Z" fill="#888" fill-opacity="0.18" stroke="#000" stroke-width="1"/>
  <path d="M466.500736 471.016094 L518.798885 478.548259 L513.593608 487.274841 L559.951547 488.897467 L551.623104 502.859999 L607.350541 488.774777 L584.447323 527.171740 L612.372386 543.828626 L599.879722 564.772423 L571.954658 548.115537 L549.051440 586.512500 L534.966218 530.785063 L526.637775 544.747595 L503.183054 504.728006 L497.977777 513.454588 Z" fill="#888" fill-opacity="0.18" stroke="#000" stroke-width="1"/>
  <path d="M418.653606 251.158245 L370.985692 228.363513 L378.557827 221.587754 L334.796093 206.205882 L346.911510 195.364667 L289.519931 192.179161 L322.837327 162.365821 L301.154898 138.134987 L319.328024 121.873166 L341.010453 146.103999 L374.327849 116.290659 L371.142343 173.682238 L383.257760 162.841023 L393.702098 208.036236 L401.274234 201.260477 Z" fill="#888" fill-opacity="0.18" stroke="#000" stroke-width="1"/>
  <path d="M1037.225121 1029.886672 L993.675196 999.966212 L1002.207668 994.448508 L961.365412 972.457567 L975.017368 963.629240 L918.816661 951.570167 L956.359540 927.292268 L938.702887 899.988356 L959.180821 886.745866 L976.837474 914.049778 L1014.380354 889.771879 L1002.321280 945.972586 L1015.973236 937.144260 L1019.272613 983.413099 L1027.805086 977.895395 Z" fill="#888" fill-opacity="0.18" stroke="#000" stroke-width="1"/>
  <path d="M750.503381 1057.567003 L697.832166 1053.374979 L702.472112 1044.335120 L656.104796 1045.663025 L663.528709 1031.199251 L608.809489 1048.798902 L629.225252 1009.023523 L600.297704 994.175696 L611.433575 972.480034 L640.361123 987.327862 L660.776886 947.552483 L678.376537 1002.271703 L685.800451 987.807929 L711.752005 1026.255403 L716.391951 1017.215544 Z" fill="#888" fill-opacity="0.18" stroke="#000" stroke-width="1"/>
  <path d="M537.634901 559.950172 L484.823383 561.615532 L488.433934 552.117528 L442.498708 558.570930 L448.275590 543.374125 L395.841371 566.923933 L411.727797 525.132718 L381.334186 513.578954 L389.999510 490.783746 L420.393120 502.337510 L436.279546 460.546296 L459.829354 512.980514 L465.606236 497.783709 L495.655037 533.121522 L499.265588 523.623518 Z" fill="#888" fill-opacity="0.18" stroke="#000" stroke-width="1"/>
  <path d="M764.950397 754.047441 L766.386390 701.229189 L775.656199 705.390774 L771.908962 659.156051 L786.740656 665.814588 L766.307764 612.089011 L807.094922 630.399988 L820.411996 600.736600 L842.659537 610.724405 L829.342463 640.387793 L870.129621 658.698770 L816.404044 679.131662 L831.235738 685.790199 L794.195816 713.713945 L803.465625 717.875531 Z" fill="#888" fill-opacity="0.18" stroke="#000" stroke-width="1"/>
  <path d="M898.536756 230.567640 L857.321568 263.630280 L854.500921 253.868513 L821.659275 286.626988 L817.146240 271.008161 L789.381759 321.337817 L776.970912 278.386041 L745.733257 287.412111 L738.963705 263.983870 L770.201360 254.957800 L757.790513 212.006024 L808.120170 239.770506 L803.607135 224.151678 L848.859627 234.344978 L846.038980 224.583211 Z" fill="#888" fill-opacity="0.18" stroke="#000" stroke-width="1"/>
  <path d="M705.738740 320.905446 L658.553445 344.683122 L657.822593 334.548331 L618.891302 359.768283 L617.721938 343.552616 L580.106182 387.015194 L576.890430 342.422110 L544.459096 344.760839 L542.705050 320.437339 L575.136383 318.098610 L571.920632 273.505527 L615.383209 311.121283 L614.213845 294.905616 L656.360887 314.278747 L655.630035 304.143956 Z" fill="#888" fill-opacity="0.18" stroke="#000" stroke-width="1"/>
  <path d="M681.348147 372.623543 L734.149496 370.662064 L730.592263 380.180164 L776.490579 373.469278 L770.799005 388.698239 L823.100341 364.854771 L807.448513 406.734413 L837.906435 418.117561 L829.369074 440.961002 L798.911153 429.577854 L783.259325 471.457497 L759.415857 419.156160 L753.724283 434.385121 L723.477796 399.216365 L719.920562 408.734466 Z" fill="#888" fill-opacity="0.18" stroke="#000" stroke-width="1"/>
  <path d="M71.262542 969.287699 L88.174968 919.229735 L95.810078 925.934453 L105.831709 880.643634 L118.047884 891.371183 L114.326317 834.011871 L147.920801 863.512630 L169.375898 839.080278 L187.700162 855.171601 L166.245064 879.603953 L199.839548 909.104713 L142.480236 912.826280 L154.696412 923.553829 L111.080298 939.343889 L118.715408 946.048607 Z" fill="#888" fill-opacity="0.18" stroke="#000" stroke-width="1"/>
  <path d="M378.473254 640.101634 L378.378281 692.939318 L369.005835 689.014346 L373.925329 735.139068 L358.929415 728.859113 L380.719311 782.048785 L339.480549 764.778908 L326.920639 794.770735 L304.426769 785.350803 L316.986679 755.358976 L275.747916 738.089099 L328.937588 716.299203 L313.941674 710.019248 L350.260943 681.164402 L340.888497 677.239430 Z" fill="#888" fill-opacity="0.18" stroke="#000" stroke-width="1"/>
  <path d="M448.427459 917.809520 L498.882012 933.499262 L492.365005 941.295207 L537.886203 950.212155 L527.458992 962.685668 L584.710802 957.569913 L556.035972 991.872074 L580.982998 1012.726496 L565.342181 1031.436765 L540.395155 1010.582343 L511.720324 1044.884504 L506.604570 987.632694 L496.177358 1000.106207 L479.330991 956.887099 L472.813984 964.683044 Z" fill="#888" fill-opacity="0.18" stroke="#000" stroke-width="1"/>
  <path d="M474.142444 806.344000 L433.669048 840.310662 L430.633058 830.613709 L398.524423 864.090969 L393.666838 848.575843 L367.022986 899.507620 L353.664627 856.841024 L322.634376 866.556195 L315.347998 843.283506 L346.378250 833.568336 L333.019891 790.901740 L383.951668 817.545592 L379.094083 802.030466 L424.561077 811.219802 L421.525086 801.522848 Z" fill="#888" fill-opacity="0.18" stroke="#000" stroke-width="1"/>
  <path d="M1011.604244 313.808703 L962.788363 334.028488 L962.809694 323.867401 L922.118417 346.136469 L922.152547 329.878730 L881.422874 370.437755 L881.516731 325.728971 L849.001252 325.660712 L849.052446 301.274103 L881.567925 301.342362 L881.661781 256.633578 L922.220806 297.363251 L922.254936 281.105511 L962.852356 303.545227 L962.873687 293.384140 Z" fill="#888" fill-opacity="0.18" stroke="#000" stroke-width="1"/>
  <path d="M992.955729 1037.721699 L940.389299 1043.069629 L943.328011 1033.342753 L897.955340 1042.987029 L902.657280 1027.424028 L851.994925 1054.576681 L864.925261 1011.778427 L833.799258 1002.374546 L840.852169 979.030044 L871.978172 988.433924 L884.908508 945.635670 L912.061161 996.298025 L916.763101 980.735023 L949.205437 1013.889001 L952.144150 1004.162126 Z" fill="#888" fill-opacity="0.18" stroke="#000" stroke-width="1"/>
  <path d="M275.414675 764.901922 L281.890939 817.341296 L272.103161 814.612276 L282.720196 859.767231 L267.059751 855.400801 L295.294786 905.467990 L252.228562 893.460306 L243.495700 924.781196 L220.005033 918.231549 L228.737894 886.910659 L185.671670 874.902974 L235.738860 846.667939 L220.078415 842.301508 L252.527604 809.154238 L242.739826 806.425218 Z" fill="#888" fill-opacity="0.18" stroke="#000" stroke-width="1"/>
  <path d="M839.896752 709.005853 L844.846434 761.611277 L835.142093 758.598985 L844.442477 804.043393 L828.915531 799.223726 L855.683730 850.090260 L812.984627 836.836176 L803.345293 867.890069 L780.054873 860.660569 L789.694207 829.606676 L746.995104 816.352592 L797.861637 789.584393 L782.334691 784.764726 L815.733409 752.574401 L806.029068 749.562110 Z" fill="#888" fill-opacity="0.18" stroke="#000" stroke-width="1"/>
  <path d="M531.694625 943.212230 L511.693275 894.306444 L521.854165 894.373200 L499.767232 853.582775 L516.024656 853.689585 L475.648121 812.778999 L520.356038 813.072727 L520.569658 780.557878 L544.955795 780.718093 L544.742175 813.232942 L589.450092 813.526670 L548.539505 853.903205 L564.796930 854.010016 L542.175946 894.506713 L552.336836 894.573469 Z" fill="#888" fill-opacity="0.18" stroke="#000" stroke-width="1"/>
  <path d="M589.592829 134.290872 L549.316230 168.490660 L546.224300 158.811398 L514.309497 192.473494 L509.362409 176.986675 L483.013080 228.071443 L469.408588 185.482689 L438.434949 195.376865 L431.014317 172.146636 L461.987957 162.252460 L448.383465 119.663706 L499.468234 146.013036 L494.521146 130.526216 L540.040441 139.452874 L536.948511 129.773611 Z" fill="#888" fill-opacity="0.18" stroke="#000" stroke-width="1"/>
  <path d="M681.601864 176.894583 L635.075944 151.851247 L642.962773 145.444526 L599.984864 127.991997 L612.603791 117.741243 L555.429590 111.820813 L590.131637 83.631239 L569.630129 58.393386 L588.558518 43.017255 L609.060026 68.255108 L643.762074 40.065534 L637.841643 97.239735 L650.460569 86.988981 L658.736431 132.631083 L666.623260 126.224362 Z" fill="#888" fill-opacity="0.18" stroke="#000" stroke-width="1"/>
  <path d="M962.383441 41.972716 L939.979057 89.825339 L933.141638 82.308835 L918.117942 126.194823 L907.178071 114.168416 L904.461730 171.584112 L874.377084 138.511492 L850.324269 160.391234 L833.914463 142.351623 L857.967278 120.471880 L827.882632 87.399260 L885.298328 90.115601 L874.358457 78.089193 L919.466799 67.275825 L912.629379 59.759321 Z" fill="#888" fill-opacity="0.18" stroke="#000" stroke-width="1"/>
  <path d="M897.264646 564.683783 L929.716789 522.986201 L934.718420 531.831077 L959.094336 492.365825 L967.096946 506.517627 L982.469926 451.131598 L1004.477103 490.049053 L1032.780707 474.043833 L1044.784621 495.271536 L1016.481018 511.276755 L1038.488195 550.194210 L983.102166 534.821230 L991.104776 548.973032 L944.721683 549.520829 L949.723314 558.365706 Z" fill="#888" fill-opacity="0.18" stroke="#000" stroke-width="1"/>
  <path d="M620.039592 585.837280 L672.794112 588.802157 L668.365841 597.947569 L714.689686 595.540746 L707.604453 610.173406 L761.899185 591.304841 L742.414793 631.544654 L771.680112 645.715122 L761.052262 667.664111 L731.786943 653.493644 L712.302550 693.733457 L693.433986 639.438725 L686.348752 654.071384 L659.509299 616.238393 L655.081028 625.383805 Z" fill="#888" fill-opacity="0.18" stroke="#000" stroke-width="1"/>
  <path d="M206.888249 420.846584 L158.305915 441.621251 L158.211473 431.460580 L117.776564 454.191827 L117.625456 437.934754 L77.360544 478.955208 L76.944996 434.248257 L44.430850 434.550474 L44.204187 410.164864 L76.718333 409.862647 L76.302785 365.155696 L117.323239 405.420608 L117.172130 389.163535 L158.022587 411.139239 L157.928144 400.978568 Z" fill="#888" fill-opacity="0.18" stroke="#000" stroke-width="1"/>
  <path d="M130.152196 680.884241 L181.449987 693.547835 L175.407796 701.717295 L221.378457 707.913244 L211.710952 720.984381 L268.557555 712.475301 L241.971917 748.420926 L268.114191 767.755936 L253.612933 787.362641 L227.470660 768.027631 L200.885022 803.973257 L192.375943 747.126654 L182.708438 760.197790 L163.323415 718.056216 L157.281225 726.225676 Z" fill="#888" fill-opacity="0.18" stroke="#000" stroke-width="1"/>
  <path d="M218.655042 676.432109 L166.136486 670.632864 L171.050447 661.738982 L124.664205 661.649682 L132.526541 647.419470 L77.295171 663.339158 L98.916596 624.206076 L70.456173 608.481403 L82.249678 587.136086 L110.710101 602.860758 L132.331526 563.727676 L148.251214 618.959047 L156.113551 604.728835 L180.878367 643.951217 L185.792328 635.057335 Z" fill="#888" fill-opacity="0.18" stroke="#000" stroke-width="1"/>
  <path d="M974.138555 475.123724 L923.937236 491.605759 L924.724546 481.475197 L882.470215 500.613193 L883.729911 484.404294 L840.058421 521.777302 L843.522586 477.202828 L811.104787 474.683435 L812.994332 450.370086 L845.412131 452.889479 L848.876296 408.315005 L886.249304 451.986495 L887.509000 435.777595 L926.299166 461.214073 L927.086477 451.083511 Z" fill="#888" fill-opacity="0.18" stroke="#000" stroke-width="1"/>
  <path d="M179.829947 596.390385 L230.763029 582.331543 L229.491442 592.412773 L272.613857 575.320415 L270.579317 591.450384 L315.990590 556.211811 L310.395606 600.569226 L342.655544 604.638306 L339.603734 628.833259 L307.343796 624.764180 L301.748812 669.121595 L266.510238 623.710323 L264.475698 639.840292 L226.948267 612.575235 L225.676680 622.656466 Z" fill="#888" fill-opacity="0.18" stroke="#000" stroke-width="1"/>
  <path d="M785.218702 42.709080 L786.451960 95.532456 L776.983812 91.844323 L783.061206 137.830807 L767.912170 131.929794 L791.032230 184.554917 L749.372379 168.327133 L737.570355 198.625206 L714.846800 189.773687 L726.648825 159.475614 L684.988974 143.247830 L737.614096 120.127769 L722.465060 114.226757 L758.047516 84.468058 L748.579368 80.779925 Z" fill="#888" fill-opacity="0.18" stroke="#000" stroke-width="1"/>
  <path d="M1029.221428 289.416941 L979.422557 271.756184 L986.240951 264.222417 L941.105415 253.523128 L952.014845 241.469100 L894.606200 244.330593 L924.607134 211.182017 L900.499079 189.363156 L916.863225 171.282114 L940.971280 193.100976 L970.972214 159.952400 L973.833707 217.361045 L984.743137 205.307018 L999.877739 249.154882 L1006.696133 241.621115 Z" fill="#888" fill-opacity="0.18" stroke="#000" stroke-width="1"/>
  <path d="M495.170389 44.457818 L459.871130 83.774383 L455.502750 74.600212 L428.416503 112.256906 L421.427096 97.578234 L402.203933 151.748435 L382.983061 111.382084 L353.625716 125.360900 L343.141604 103.342890 L372.498950 89.364075 L353.278079 48.997724 L407.448280 68.220888 L400.458873 53.542215 L446.765991 56.251871 L442.397611 47.077700 Z" fill="#888" fill-opacity="0.18" stroke="#000" stroke-width="1"/>
  <path d="M235.113889 77.398039 L193.888421 110.447860 L191.070809 100.685216 L158.218978 133.433477 L153.710801 117.813247 L125.930670 168.134267 L113.533181 125.178634 L82.292720 134.194990 L75.530453 110.764644 L106.770914 101.748289 L94.373425 58.792656 L144.694445 86.572787 L140.186267 70.952556 L185.435587 81.159928 L182.617976 71.397285 Z" fill="#888" fill-opacity="0.18" stroke="#000" stroke-width="1"/>
  <path d="M976.554342 908.540880 L963.242124 857.407576 L973.303674 858.826509 L956.843999 815.458658 L972.942478 817.728952 L938.372015 771.807020 L982.642832 778.050328 L987.183420 745.853370 L1011.331138 749.258810 L1006.790551 781.455768 L1051.061368 787.699076 L1005.139436 822.269539 L1021.237915 824.539833 L993.426773 861.664376 L1003.488322 863.083310 Z" fill="#888" fill-opacity="0.18" stroke="#000" stroke-width="1"/>
  <path d="M739.473651 879.847741 L791.562011 870.980235 L789.283435 880.882570 L833.905642 868.211735 L830.259921 884.055471 L878.983564 853.560434 L868.957831 897.130708 L900.645304 904.422150 L895.176722 928.187755 L863.489250 920.896312 L853.463517 964.466587 L822.968479 915.742944 L819.322758 931.586680 L784.726284 900.687240 L782.447708 910.589575 Z" fill="#888" fill-opacity="0.18" stroke="#000" stroke-width="1"/>
  <path d="M306.131918 174.046848 L268.571991 211.209757 L264.753126 201.793579 L235.489915 237.784631 L229.379731 222.718745 L206.990477 275.658919 L190.187471 234.227734 L160.055699 246.448102 L150.890424 223.849273 L181.022195 211.628905 L164.219189 170.197720 L217.159363 192.586974 L211.049179 177.521088 L257.115396 182.961221 L253.296531 173.545043 Z" fill="#888" fill-opacity="0.18" stroke="#000" stroke-width="1"/>
  <path d="M191.975318 840.885029 L139.593817 833.956230 L144.698153 825.170223 L98.324589 824.082094 L106.491527 810.024484 L50.930159 824.751166 L73.389236 786.092739 L45.274016 769.758865 L57.524422 748.672450 L85.639642 765.006324 L108.098719 726.347897 L122.825401 781.909265 L130.992338 767.851655 L154.906824 807.598211 L160.011160 798.812205 Z" fill="#888" fill-opacity="0.18" stroke="#000" stroke-width="1"/>
  <path d="M334.022437 555.621975 L386.760515 558.866215 L382.283869 567.988045 L428.619811 565.826603 L421.457178 580.421531 L475.851083 561.840794 L456.153841 601.976848 L485.343698 616.302115 L474.599747 638.194508 L445.409890 623.869240 L425.712648 664.005294 L407.131910 609.611388 L399.969277 624.206317 L373.330577 586.231706 L368.853931 595.353536 Z" fill="#888" fill-opacity="0.18" stroke="#000" stroke-width="1"/>
  <path d="M578.237933 151.868959 L630.295176 160.917349 L624.838565 169.489020 L671.129794 172.457786 L662.399217 186.172460 L718.512344 173.712219 L694.503257 211.427572 L721.932605 228.888726 L708.836739 249.460737 L681.407391 231.999583 L657.398304 269.714936 L644.938062 213.601808 L636.207485 227.316482 L613.925344 186.632362 L608.468733 195.204033 Z" fill="#888" fill-opacity="0.18" stroke="#000" stroke-width="1"/>
  <path d="M693.900946 511.661426 L646.527923 488.260002 L654.185944 481.581465 L610.624147 465.642165 L622.876980 454.956504 L565.530746 451.038572 L599.226038 421.653006 L577.854717 397.147340 L596.233966 381.118849 L617.605287 405.624516 L651.300578 376.238950 L647.382647 433.585183 L659.635480 422.899523 L669.501985 468.224389 L677.160006 461.545851 Z" fill="#888" fill-opacity="0.18" stroke="#000" stroke-width="1"/>
  <path d="M584.680547 959.456816 L599.729089 908.807321 L607.607065 915.224925 L615.945929 869.594291 L628.550692 879.862456 L622.709198 822.680136 L657.372295 850.917590 L677.908626 825.708064 L696.815770 841.110312 L676.279440 866.319838 L710.942537 894.557292 L653.760218 900.398786 L666.364980 910.666951 L623.363019 928.060131 L631.240996 934.477734 Z" fill="#888" fill-opacity="0.18" stroke="#000" stroke-width="1"/>
  <path d="M798.447956 550.464616 L850.368335 560.267885 L844.787845 568.759427 L891.031090 572.399995 L882.102306 585.986462 L938.390432 574.342255 L913.836276 611.705039 L941.009210 629.562607 L927.616033 649.942307 L900.443100 632.084738 L875.888944 669.447522 L864.244738 613.159395 L855.315954 626.745862 L833.626865 585.742510 L828.046375 594.234052 Z" fill="#888" fill-opacity="0.18" stroke="#000" stroke-width="1"/>
  <path d="M884.723151 369.605892 L937.324683 364.615026 L934.319989 374.321723 L979.757103 364.985764 L974.949593 380.516479 L1025.795155 353.708465 L1012.574503 396.417931 L1043.635934 406.032950 L1036.424669 429.329023 L1005.363239 419.714004 L992.142588 462.423471 L965.334574 411.577909 L960.527065 427.108624 L928.310602 393.735117 L925.305909 403.441814 Z" fill="#888" fill-opacity="0.18" stroke="#000" stroke-width="1"/>
  <path d="M346.509831 328.569811 L383.828813 365.974671 L374.428617 369.832711 L410.541206 398.945806 L395.500893 405.118669 L448.533835 427.287293 L407.172974 444.262668 L419.518701 474.343294 L396.958231 483.602589 L384.612504 453.521963 L343.251643 470.497338 L365.420267 417.464396 L350.379954 423.637260 L355.628226 377.548790 L346.228030 381.406830 Z" fill="#888" fill-opacity="0.18" stroke="#000" stroke-width="1"/>
  <path d="M311.833743 413.685873 L291.992149 364.715055 L302.152767 364.814980 L280.199109 323.952671 L296.456099 324.112552 L256.213328 283.070377 L300.920048 283.510049 L301.239810 250.996071 L325.625294 251.235892 L325.305532 283.749871 L370.012252 284.189543 L328.970077 324.432314 L345.227066 324.592195 L322.474004 365.014831 L332.634622 365.114757 Z" fill="#888" fill-opacity="0.18" stroke="#000" stroke-width="1"/>
  <path d="M468.153097 1056.557332 L415.542833 1051.659365 L420.303586 1042.682541 L373.922631 1043.388542 L381.539836 1029.025623 L326.589526 1045.889909 L347.536840 1006.391881 L318.811001 991.157471 L330.236809 969.613092 L358.962647 984.847502 L379.909961 945.349474 L396.774246 1000.299785 L404.391451 985.936866 L429.825092 1024.728892 L434.585845 1015.752068 Z" fill="#888" fill-opacity="0.18" stroke="#000" stroke-width="1"/>
  <path d="M646.654730 306.888577 L597.386477 287.797502 L604.419527 280.463720 L559.611689 268.465841 L570.864569 256.731790 L513.397242 257.934719 L544.342661 225.666078 L520.874559 203.160319 L537.753878 185.559242 L561.221980 208.065001 L592.167400 175.796361 L593.370328 233.263688 L604.623208 221.529637 L618.485626 265.796156 L625.518676 258.462374 Z" fill="#888" fill-opacity="0.18" stroke="#000" stroke-width="1"/>
  <path d="M64.105350 546.246172 L106.451187 514.644589 L108.928847 524.498997 L142.895626 492.908660 L146.859881 508.675712 L176.366872 459.347442 L187.268576 502.706836 L218.802680 494.778324 L224.749064 518.428902 L193.214960 526.357414 L204.116663 569.716807 L154.788393 540.209817 L158.752649 555.976869 L113.884167 544.207812 L116.361827 554.062219 Z" fill="#888" fill-opacity="0.18" stroke="#000" stroke-width="1"/>
  <path d="M69.625223 1055.547563 L107.219438 1018.419340 L111.029609 1027.839039 L140.326030 991.875014 L146.422305 1006.946533 L168.860416 954.027048 L185.625172 995.473726 L215.768210 983.281177 L224.912622 1005.888456 L194.769584 1018.081005 L211.534339 1059.527683 L158.614854 1037.089571 L164.711129 1052.161091 L118.649953 1046.678438 L122.460124 1056.098138 Z" fill="#888" fill-opacity="0.18" stroke="#000" stroke-width="1"/>
  <path d="M144.949109 328.444506 L113.030579 286.337055 L122.866112 283.785501 L91.021719 250.056788 L106.758573 245.974300 L57.210220 216.838386 L100.486567 205.611545 L92.321591 174.137838 L115.926871 168.014107 L124.091846 199.487813 L167.368193 188.260972 L138.232279 237.809325 L153.969133 233.726837 L142.537179 278.682391 L152.372712 276.130836 Z" fill="#888" fill-opacity="0.18" stroke="#000" stroke-width="1"/>
  <path d="M560.789114 264.938546 L524.740304 303.569017 L520.549156 294.312536 L492.743760 331.441384 L486.037923 316.631016 L465.776593 370.421528 L447.335543 329.693015 L417.714806 343.104687 L407.656051 320.889135 L437.276788 307.477462 L418.835738 266.748948 L472.626250 287.010278 L465.920414 272.199910 L512.166860 275.799575 L507.975713 266.543095 Z" fill="#888" fill-opacity="0.18" stroke="#000" stroke-width="1"/>
  <path d="M341.048526 885.220813 L329.734667 936.833084 L321.409549 931.007231 L316.421396 977.124579 L303.101208 967.803214 L313.098267 1024.407097 L276.467749 998.773344 L257.825020 1025.413720 L237.844737 1011.431673 L256.487467 984.791296 L219.856949 959.157543 L276.460831 949.160484 L263.140643 939.839120 L304.759314 919.355525 L296.434196 913.529672 Z" fill="#888" fill-opacity="0.18" stroke="#000" stroke-width="1"/>
  <path d="M433.047537 683.951243 L469.309792 645.521061 L473.449598 654.800617 L501.460247 617.826370 L508.083937 632.673659 L528.642934 578.996211 L546.858082 619.826256 L576.552659 606.578876 L586.488194 628.849809 L556.793617 642.097189 L575.008764 682.927234 L521.331317 662.368237 L527.955007 677.215526 L481.729210 673.359728 L485.869017 682.639284 Z" fill="#888" fill-opacity="0.18" stroke="#000" stroke-width="1"/>
  <path d="M493.279018 752.559619 L541.277337 730.469093 L541.648560 740.623420 L581.449173 716.799007 L582.043131 733.045929 L621.175542 690.943730 L622.808926 735.622765 L655.302769 734.434850 L656.193706 758.805233 L623.699862 759.993148 L625.333246 804.672184 L583.231047 765.539773 L583.825005 781.786695 L542.391008 760.932072 L542.762231 771.086398 Z" fill="#888" fill-opacity="0.18" stroke="#000" stroke-width="1"/>
  <path d="M668.059546 946.159610 L720.298414 938.226730 L717.842796 948.086654 L762.684849 936.217294 L758.755861 951.993172 L808.018026 922.375950 L797.213307 965.759613 L828.765061 973.617591 L822.871578 997.281407 L791.319823 989.423429 L780.515104 1032.807092 L750.897883 983.544926 L746.968894 999.320804 L712.931560 967.806500 L710.475942 977.666424 Z" fill="#888" fill-opacity="0.18" stroke="#000" stroke-width="1"/>
  <path d="M1050.706201 642.824755 L1014.202897 681.026047 L1010.121551 671.720631 L981.878849 708.517929 L975.348695 693.629264 L954.452416 747.176311 L936.494494 706.232482 L906.717163 719.292789 L896.921933 696.959791 L926.699263 683.899484 L908.741341 642.955654 L962.288388 663.851934 L955.758235 648.963268 L1001.958859 653.109799 L997.877513 643.804383 Z" fill="#888" fill-opacity="0.18" stroke="#000" stroke-width="1"/>
</svg>
