<?xml version="1.0" encoding="UTF-8"?>
<svg xmlns="http://www.w3.org/2000/svg" width="1100" height="1100" viewBox="0 0 1100 1100">
  <rect x="0" y="0" width="1100" height="1100" fill="white"/>
  <text x="10.0" y="18.0" font-family="monospace" font-size="12">prefix=N64_job5048464_task64 run_id=64 L=6.3387722635 feas=0.000e+00 N=64</text>
  <rect x="40.000000" y="40.000000" width="1020.000000" height="1020.000000" fill="none" stroke="#000" stroke-width="2"/>
  <path d="M61.559029 589.980851 L91.401781 547.034296 L96.818126 555.508346 L118.798368 515.200056 L127.464520 528.758537 L139.695342 473.196956 L163.527259 510.482778 L190.644220 493.150474 L203.643447 513.488195 L176.526486 530.820498 L200.358403 568.106319 L144.796823 555.875497 L153.462975 569.433978 L107.650815 572.456446 L113.067160 580.930497 Z" fill="#888" fill-opacity="0.18" stroke="#000" stroke-width="1"/>
  <path d="M510.463987 48.023958 L475.797083 87.180085 L471.410412 78.130034 L444.860884 115.586833 L437.842209 101.106751 L419.188690 154.853643 L399.887335 115.033417 L370.927170 129.070767 L360.399158 107.350643 L389.359323 93.313294 L370.057967 53.493068 L423.804860 72.146587 L416.786185 57.666504 L462.637068 60.029931 L458.250397 50.979879 Z" fill="#888" fill-opacity="0.18" stroke="#000" stroke-width="1"/>
  <path d="M627.687743 370.392352 L575.390713 370.523037 L579.235638 361.229874 L533.604152 366.295132 L539.756032 351.426072 L487.203682 373.219022 L504.121352 332.329107 L474.383232 320.025347 L483.611052 297.721757 L513.349172 310.025517 L530.266842 269.135601 L552.059793 321.687952 L558.211673 306.818892 L586.925488 342.643549 L590.770413 333.350387 Z" fill="#888" fill-opacity="0.18" stroke="#000" stroke-width="1"/>
  <path d="M362.975696 682.399828 L408.839267 707.530076 L400.986000 713.812792 L443.394051 731.403883 L430.828825 741.456229 L487.372756 747.738431 L452.818383 775.382382 L472.923074 800.512835 L454.075234 815.591353 L433.970543 790.460900 L399.416170 818.104851 L405.698372 761.560920 L393.133145 771.613266 L385.279467 726.378224 L377.426200 732.660940 Z" fill="#888" fill-opacity="0.18" stroke="#000" stroke-width="1"/>
  <path d="M70.109181 1003.721644 L61.350660 952.163087 L71.150886 954.421823 L58.625331 910.251700 L74.305693 913.865677 L44.139731 865.629830 L87.260726 875.568267 L94.488680 844.207543 L118.009223 849.628509 L110.781269 880.989232 L153.902264 890.927669 L105.666417 921.093631 L121.346778 924.707608 L90.751338 958.939294 L100.551565 961.198030 Z" fill="#888" fill-opacity="0.18" stroke="#000" stroke-width="1"/>
  <path d="M428.627372 234.902162 L387.971150 267.796965 L385.138953 258.146837 L352.769273 290.705907 L348.237757 275.265702 L320.966032 325.195004 L308.504365 282.734439 L277.623954 291.797470 L270.826681 268.637162 L301.707092 259.574131 L289.245424 217.113566 L339.174727 244.385291 L334.643211 228.945086 L379.474558 238.846580 L376.642361 229.196451 Z" fill="#888" fill-opacity="0.18" stroke="#000" stroke-width="1"/>
  <path d="M906.978466 80.570426 L908.458362 132.846677 L899.069095 129.242794 L905.309952 174.728407 L890.287123 168.962194 L913.428662 220.934796 L872.115884 205.077711 L860.583459 235.123367 L838.049217 226.474048 L849.581642 196.428392 L808.268865 180.571307 L860.241467 157.429768 L845.218639 151.663555 L880.290560 122.035028 L870.901292 118.431145 Z" fill="#888" fill-opacity="0.18" stroke="#000" stroke-width="1"/>
  <path d="M556.170808 916.310522 L601.247548 942.826252 L593.206536 948.866818 L635.059026 967.741625 L622.193405 977.406530 L678.519718 985.408319 L643.139262 1011.986807 L662.469071 1037.718049 L643.170641 1052.215406 L623.840831 1026.484165 L588.460375 1053.062653 L596.462164 996.736340 L583.596544 1006.401244 L577.124510 960.947949 L569.083497 966.988514 Z" fill="#888" fill-opacity="0.18" stroke="#000" stroke-width="1"/>
  <path d="M318.035757 206.466180 L298.372458 158.006391 L308.429174 158.100169 L286.679510 117.666997 L302.770255 117.817041 L262.918504 77.215069 L307.168051 77.627690 L307.468139 45.446201 L331.604256 45.671267 L331.304168 77.852756 L375.553716 78.265378 L334.951744 118.117129 L351.042489 118.267173 L328.542605 158.287724 L338.599320 158.381501 Z" fill="#888" fill-opacity="0.18" stroke="#000" stroke-width="1"/>
  <path d="M771.431568 1039.061648 L804.693360 998.705117 L809.397050 1007.594527 L834.606575 969.223065 L842.132479 983.446123 L858.875363 929.073721 L879.571597 968.187128 L908.017712 953.135322 L919.306567 974.469907 L890.860452 989.521714 L911.556687 1028.635121 L857.184285 1011.892237 L864.710189 1026.115294 L818.804429 1025.373349 L823.508118 1034.262760 Z" fill="#888" fill-opacity="0.18" stroke="#000" stroke-width="1"/>
  <path d="M847.705117 868.695346 L795.408510 868.943061 L799.232629 859.641317 L753.612593 864.808676 L759.731184 849.925887 L707.227734 871.836384 L724.053858 830.908713 L694.288279 818.671531 L703.466165 796.347347 L733.231744 808.584528 L750.057869 767.656857 L771.968365 820.160308 L778.086956 805.277518 L806.880868 841.037831 L810.704987 831.736087 Z" fill="#888" fill-opacity="0.18" stroke="#000" stroke-width="1"/>
  <path d="M304.417561 1053.837735 L282.754559 1006.238252 L292.806464 1005.913421 L269.392946 966.420429 L285.475995 965.900698 L243.969047 926.992402 L288.197431 925.563144 L287.157970 893.397046 L311.282543 892.617451 L312.322004 924.783548 L356.550388 923.354289 L317.642092 964.861237 L333.725141 964.341507 L312.910275 1005.263758 L322.962180 1004.938926 Z" fill="#888" fill-opacity="0.18" stroke="#000" stroke-width="1"/>
  <path d="M191.571496 326.834214 L143.026641 307.381873 L150.070315 300.203226 L105.859644 287.821554 L117.129522 276.335718 L60.240238 276.875612 L91.232403 245.289564 L68.260732 222.749807 L85.165549 205.521054 L108.137220 228.060810 L139.129386 196.474763 L139.669279 253.364047 L150.939157 241.878212 L164.157663 285.845931 L171.201337 278.667284 Z" fill="#888" fill-opacity="0.18" stroke="#000" stroke-width="1"/>
  <path d="M754.438806 499.821507 L702.146977 499.072436 L706.147687 489.845268 L660.437452 494.142198 L666.838588 479.378729 L613.927074 500.284563 L631.530198 459.685021 L602.003259 446.882749 L611.604963 424.737545 L641.131902 437.539817 L658.735026 396.940276 L679.640860 449.851790 L686.041996 435.088320 L714.149108 471.390931 L718.149818 462.163762 Z" fill="#888" fill-opacity="0.18" stroke="#000" stroke-width="1"/>
  <path d="M789.844866 180.521258 L737.581367 182.398261 L741.113815 172.981885 L695.676927 179.568121 L701.328843 164.501920 L649.533550 188.037632 L665.076319 146.605579 L634.943917 135.301746 L643.421791 112.702444 L673.554194 124.006277 L689.096963 82.574224 L712.632676 134.369517 L718.284592 119.303316 L748.178710 154.149133 L751.711158 144.732758 Z" fill="#888" fill-opacity="0.18" stroke="#000" stroke-width="1"/>
  <path d="M762.526098 1050.693227 L736.747305 1005.191026 L746.731334 1003.980457 L719.924191 966.707593 L735.898637 964.770682 L691.120241 929.676844 L735.049970 924.350337 L731.176146 892.401443 L755.137817 889.496076 L759.011640 921.444969 L802.941368 916.118462 L767.847531 960.896858 L783.821978 958.959947 L766.699392 1001.559317 L776.683422 1000.348747 Z" fill="#888" fill-opacity="0.18" stroke="#000" stroke-width="1"/>
  <path d="M80.015202 553.920838 L69.131162 502.768770 L79.016443 504.620129 L64.674260 461.006013 L80.490710 463.968188 L48.355020 417.021626 L91.850259 425.167606 L97.774607 393.534705 L121.499283 397.977966 L115.574934 429.610867 L159.070172 437.756846 L112.123611 469.892536 L127.940061 472.854711 L98.787006 508.322847 L108.672287 510.174205 Z" fill="#888" fill-opacity="0.18" stroke="#000" stroke-width="1"/>
  <path d="M765.589076 514.340890 L815.675878 529.384449 L809.300779 537.162908 L854.439834 545.550696 L844.239675 557.996231 L900.853909 552.382792 L872.803471 586.608012 L897.694541 607.008330 L882.394302 625.676632 L857.503233 605.276314 L829.452795 639.501534 L823.839357 582.887300 L813.639198 595.332834 L796.550580 552.719827 L790.175481 560.498286 Z" fill="#888" fill-opacity="0.18" stroke="#000" stroke-width="1"/>
  <path d="M51.529075 762.873831 L102.587962 751.560721 L100.819662 761.461198 L144.311828 746.753352 L141.482547 762.594114 L188.157655 730.065412 L180.377133 773.627507 L212.058657 779.286069 L207.814735 803.047213 L176.133211 797.388651 L168.352688 840.950746 L135.823985 794.275639 L132.994704 810.116401 L97.283061 781.262150 L95.514760 791.162627 Z" fill="#888" fill-opacity="0.18" stroke="#000" stroke-width="1"/>
  <path d="M527.143034 793.978509 L495.502632 752.338608 L505.234597 749.801843 L473.677214 716.454866 L489.248357 712.396042 L440.173438 683.615242 L482.994083 672.453476 L474.876435 641.311188 L498.233151 635.222952 L506.350799 666.365240 L549.171445 655.203474 L520.390645 704.278394 L535.961789 700.219570 L524.698526 744.728312 L534.430491 742.191547 Z" fill="#888" fill-opacity="0.18" stroke="#000" stroke-width="1"/>
  <path d="M433.061207 277.954199 L413.639360 326.511262 L406.456290 319.472098 L394.102389 363.690538 L382.609477 352.427875 L383.185101 409.316810 L351.579594 378.344489 L329.054270 401.330312 L311.814902 384.436319 L334.340226 361.450496 L302.734719 330.478175 L359.623654 329.902551 L348.130742 318.639889 L392.090151 305.393770 L384.907081 298.354607 Z" fill="#888" fill-opacity="0.18" stroke="#000" stroke-width="1"/>
  <path d="M617.134560 864.233663 L578.092600 899.029091 L574.803615 889.524939 L544.022774 923.590010 L538.760399 908.383367 L513.899729 959.555911 L499.428198 917.737643 L469.014912 928.262393 L461.121350 905.452429 L491.534636 894.927679 L477.063105 853.109411 L528.235649 877.970081 L522.973274 862.763439 L568.225647 870.516635 L564.936663 861.012484 Z" fill="#888" fill-opacity="0.18" stroke="#000" stroke-width="1"/>
  <path d="M694.690751 657.783687 L658.396244 620.131261 L667.764611 616.473392 L632.522726 587.047234 L647.512114 581.194643 L595.407167 558.352650 L636.627984 542.258025 L624.922802 512.279249 L647.406885 503.500363 L659.112066 533.479139 L700.332884 517.384514 L677.490890 569.489461 L692.480278 563.636871 L686.501347 609.157653 L695.869714 605.499784 Z" fill="#888" fill-opacity="0.18" stroke="#000" stroke-width="1"/>
  <path d="M804.943448 508.041897 L852.839450 487.042624 L853.024528 497.098074 L892.839154 474.235773 L893.135279 490.324492 L932.616765 449.362382 L933.431108 493.606360 L965.608546 493.014111 L966.052733 517.147190 L933.875295 517.739439 L934.689638 561.983417 L893.727528 522.501931 L894.023653 538.590650 L853.394683 517.208973 L853.579761 527.264422 Z" fill="#888" fill-opacity="0.18" stroke="#000" stroke-width="1"/>
  <path d="M302.181180 443.274416 L267.130610 404.461351 L276.613001 401.110145 L242.346917 370.553234 L257.518743 365.191305 L206.184356 340.666565 L247.906876 325.921259 L237.183017 295.577608 L259.940755 287.534714 L270.664614 317.878365 L312.387134 303.133059 L287.862394 354.467446 L303.034219 349.105517 L295.577783 394.407733 L305.060174 391.056527 Z" fill="#888" fill-opacity="0.18" stroke="#000" stroke-width="1"/>
  <path d="M912.792400 941.072774 L928.344844 891.141642 L936.058030 897.595562 L944.904701 852.544195 L957.245798 862.870467 L952.208735 806.202044 L986.146752 834.599291 L1006.799296 809.917096 L1025.310942 825.406504 L1004.658398 850.088699 L1038.596416 878.485947 L981.927993 883.523010 L994.269090 893.849282 L951.484402 910.503402 L959.197588 916.957322 Z" fill="#888" fill-opacity="0.18" stroke="#000" stroke-width="1"/>
  <path d="M560.625509 907.140280 L609.572566 888.723385 L609.221493 898.774408 L650.197947 878.066449 L649.636230 894.148086 L691.244615 855.348286 L689.699893 899.572788 L721.863167 900.696222 L721.020592 924.818677 L688.857318 923.695243 L687.312596 967.919745 L648.512796 926.311360 L647.951079 942.392997 L608.519347 918.876454 L608.168274 928.927477 Z" fill="#888" fill-opacity="0.18" stroke="#000" stroke-width="1"/>
  <path d="M166.103772 646.831532 L201.990232 608.789996 L206.088843 617.974097 L233.808300 581.374630 L240.366079 596.069190 L260.708035 542.938342 L278.741925 583.348385 L308.131047 570.232828 L317.967714 592.274669 L288.578593 605.390226 L306.612483 645.800268 L253.481635 625.458312 L260.039414 640.152873 L214.286066 636.342298 L218.384678 645.526398 Z" fill="#888" fill-opacity="0.18" stroke="#000" stroke-width="1"/>
  <path d="M93.788261 295.041634 L140.290133 318.970117 L132.602986 325.455029 L175.454358 341.936812 L163.154922 352.312671 L219.843160 357.121613 L186.019711 385.655226 L206.771430 410.254097 L188.322276 425.817886 L167.570557 401.219015 L133.747109 429.752627 L138.556050 373.064390 L126.256615 383.440249 L117.228691 338.424853 L109.541543 344.909765 Z" fill="#888" fill-opacity="0.18" stroke="#000" stroke-width="1"/>
  <path d="M839.110870 675.171714 L861.144563 722.600743 L851.095498 723.003986 L874.816410 762.313114 L858.737906 762.958302 L900.547136 801.541594 L856.331249 803.315860 L857.621624 835.472869 L833.503867 836.440650 L832.213492 804.283641 L787.997604 806.057907 L826.580897 764.248677 L810.502392 764.893864 L830.997367 723.810470 L820.948302 724.213712 Z" fill="#888" fill-opacity="0.18" stroke="#000" stroke-width="1"/>
  <path d="M669.555047 658.231877 L721.620944 663.145010 L716.897762 672.024079 L762.805039 671.382853 L755.247949 685.589364 L809.656953 668.965812 L788.874954 708.033718 L817.287976 723.147899 L805.952341 744.457665 L777.539318 729.343484 L756.757319 768.411390 L740.133768 714.002386 L732.576677 728.208897 L707.451399 689.782218 L702.728217 698.661288 Z" fill="#888" fill-opacity="0.18" stroke="#000" stroke-width="1"/>
  <path d="M677.303153 48.544317 L645.475566 90.041318 L640.463346 81.322146 L616.613540 120.553206 L608.593988 106.602530 L593.766179 161.528100 L571.712410 123.163741 L543.811058 139.202846 L531.781730 118.276832 L559.683082 102.237728 L537.629313 63.873369 L592.554883 78.701178 L584.535331 64.750502 L630.438905 63.883801 L625.426685 55.164629 Z" fill="#888" fill-opacity="0.18" stroke="#000" stroke-width="1"/>
  <path d="M347.188770 651.439360 L317.630101 694.581932 L312.157948 686.143812 L290.444206 726.596286 L281.688761 713.095295 L269.824893 768.736384 L245.747422 731.608658 L218.745439 749.119546 L205.612272 728.868059 L232.614255 711.357170 L208.536783 674.229444 L264.177873 686.093312 L255.422428 672.592320 L301.213643 669.267573 L295.741490 660.829453 Z" fill="#888" fill-opacity="0.18" stroke="#000" stroke-width="1"/>
  <path d="M270.781827 875.163284 L252.354391 924.106374 L245.029245 917.215181 L233.579794 961.676393 L221.859559 950.650483 L223.595372 1007.515843 L191.364727 977.194592 L169.312908 1000.635061 L151.732556 984.096197 L173.784375 960.655728 L141.553730 930.334477 L198.419090 928.598664 L186.698856 917.572755 L230.378952 903.432794 L223.053805 896.541601 Z" fill="#888" fill-opacity="0.18" stroke="#000" stroke-width="1"/>
  <path d="M572.868538 712.227213 L616.501254 741.057450 L608.156188 746.670488 L648.967486 767.702065 L635.615382 776.682927 L691.447798 787.611034 L654.729510 812.308404 L672.691233 839.012613 L652.663077 852.483906 L634.701353 825.779697 L597.983065 850.477066 L608.911173 794.644650 L595.559068 803.625512 L591.466057 757.896566 L583.120992 763.509604 Z" fill="#888" fill-opacity="0.18" stroke="#000" stroke-width="1"/>
  <path d="M463.765719 1046.950003 L419.025779 1019.869858 L427.142073 1013.930826 L385.530100 994.531523 L398.516169 985.029072 L342.294868 976.320026 L378.006559 950.188285 L359.001657 924.216146 L378.480761 909.962470 L397.485663 935.934609 L433.197354 909.802868 L424.488308 966.024170 L437.474377 956.521718 L443.374660 1002.052762 L451.490953 996.113730 Z" fill="#888" fill-opacity="0.18" stroke="#000" stroke-width="1"/>
  <path d="M169.361441 256.758043 L191.177386 209.228462 L198.000984 216.616616 L212.541685 173.068284 L223.459442 184.889330 L225.717666 128.042320 L255.741499 160.550199 L279.383593 138.714684 L295.760229 156.446255 L272.118135 178.281769 L302.141968 210.789648 L245.294957 208.531424 L256.212714 220.352471 L211.648181 231.392925 L218.471779 238.781079 Z" fill="#888" fill-opacity="0.18" stroke="#000" stroke-width="1"/>
  <path d="M1035.232413 530.023748 L1017.468707 579.211625 L1010.051015 572.420148 L999.204029 617.032166 L987.335721 606.165802 L989.840581 663.002479 L957.202736 633.119980 L935.470009 656.856595 L917.667548 640.557049 L939.400275 616.820435 L906.762429 586.937935 L963.599107 584.433075 L951.730799 573.566712 L995.215631 558.837193 L987.797939 552.045716 Z" fill="#888" fill-opacity="0.18" stroke="#000" stroke-width="1"/>
  <path d="M1023.378921 137.304015 L1033.403197 188.631496 L1023.550369 186.614542 L1037.158774 230.463152 L1021.394250 227.236026 L1052.737745 274.715153 L1009.385303 265.840555 L1002.931050 297.369604 L979.284264 292.528915 L985.738516 260.999866 L942.386074 252.125268 L989.865201 220.781773 L974.100677 217.554647 L1003.844714 182.580634 L993.991886 180.563680 Z" fill="#888" fill-opacity="0.18" stroke="#000" stroke-width="1"/>
  <path d="M107.771464 754.177632 L92.323782 704.213990 L102.335647 705.167333 L84.122917 663.022515 L100.141902 664.547864 L63.907813 620.687027 L107.960022 624.881739 L111.010721 592.843769 L135.039199 595.131793 L131.988500 627.169763 L176.040709 631.364474 L132.179872 667.598563 L148.198857 669.123913 L122.359379 707.074020 L132.371244 708.027363 Z" fill="#888" fill-opacity="0.18" stroke="#000" stroke-width="1"/>
  <path d="M435.113107 350.556268 L437.146473 298.298619 L446.272582 302.524782 L443.099796 256.722788 L457.701570 263.484649 L438.101787 210.075561 L478.256666 228.670679 L491.780389 199.467131 L513.683050 209.609923 L500.159328 238.813471 L540.314206 257.408589 L486.905118 277.008372 L501.506892 283.770233 L464.524800 310.977109 L473.650909 315.203272 Z" fill="#888" fill-opacity="0.18" stroke="#000" stroke-width="1"/>
  <path d="M893.936453 464.686000 L841.910187 470.002396 L844.814544 460.373740 L799.910332 469.939353 L804.557304 454.533503 L754.425247 481.430698 L767.204421 439.064610 L736.392721 429.770665 L743.363179 406.661890 L774.174880 415.955834 L786.954054 373.589746 L813.851249 423.721802 L818.498221 408.315952 L850.623260 441.116427 L853.527617 431.487771 Z" fill="#888" fill-opacity="0.18" stroke="#000" stroke-width="1"/>
  <path d="M316.773409 888.716880 L360.493461 860.019259 L362.353982 869.902820 L397.795081 840.716902 L400.771914 856.530600 L432.864076 809.554273 L441.050367 853.041942 L472.677763 847.088276 L477.143012 870.808823 L445.515617 876.762489 L453.701908 920.250158 L406.725580 888.157996 L409.702413 903.971694 L366.075023 889.669942 L367.935544 899.553503 Z" fill="#888" fill-opacity="0.18" stroke="#000" stroke-width="1"/>
  <path d="M699.686662 306.608952 L647.506610 303.110580 L651.987094 294.106604 L606.114126 295.993414 L613.282900 281.587052 L559.345061 299.681019 L579.059191 260.063525 L550.246469 245.725976 L560.999631 224.116434 L589.812353 238.453983 L609.526484 198.836490 L627.620450 252.774330 L634.789225 238.367969 L660.948063 276.098652 L665.428547 267.094676 Z" fill="#888" fill-opacity="0.18" stroke="#000" stroke-width="1"/>
  <path d="M1052.091952 56.236177 L1024.311698 100.544798 L1018.501015 92.336127 L998.449833 133.637935 L989.152740 120.504062 L979.560789 176.581478 L953.993783 140.463326 L927.726036 159.057512 L913.780396 139.356701 L940.048143 120.762515 L914.481138 84.644363 L970.558554 94.236314 L961.261461 81.102441 L1006.879648 75.918785 L1001.068965 67.710114 Z" fill="#888" fill-opacity="0.18" stroke="#000" stroke-width="1"/>
  <path d="M707.422326 41.879055 L759.088719 49.977225 L753.829695 58.549796 L799.689835 60.726233 L791.275397 74.442348 L846.601779 61.188154 L823.462075 98.907471 L850.894305 115.736346 L838.272649 136.310519 L810.840419 119.481644 L787.700715 157.200960 L774.446521 101.874578 L766.032084 115.590693 L743.311648 75.694940 L738.052624 84.267512 Z" fill="#888" fill-opacity="0.18" stroke="#000" stroke-width="1"/>
  <path d="M779.325828 284.844405 L754.216249 330.719294 L747.929995 322.868860 L730.358015 365.284833 L720.300008 352.724137 L714.043285 409.270893 L686.383767 374.728980 L661.262375 394.844993 L646.175365 376.003950 L671.296757 355.887936 L643.637239 321.346023 L700.183995 327.602746 L690.125988 315.042050 L735.357486 307.167990 L729.071232 299.317555 Z" fill="#888" fill-opacity="0.18" stroke="#000" stroke-width="1"/>
  <path d="M1048.293879 897.753793 L1031.380711 947.240571 L1023.847050 940.577969 L1013.770697 985.370339 L1001.716839 974.710176 L1005.201075 1031.495229 L972.052966 1002.179780 L950.732639 1026.287496 L932.651852 1010.297251 L953.972179 986.189535 L920.824069 956.874086 L977.609123 953.389849 L965.555265 942.729686 L1008.779728 927.252765 L1001.246066 920.590163 Z" fill="#888" fill-opacity="0.18" stroke="#000" stroke-width="1"/>
  <path d="M448.066259 499.388081 L491.769163 470.664353 L493.635586 480.546801 L529.059248 451.339721 L532.045525 467.151638 L564.109624 420.156152 L572.321887 463.638924 L603.945721 457.666369 L608.425138 481.384245 L576.801303 487.356800 L585.013566 530.839572 L538.018080 498.775473 L541.004358 514.587390 L497.368433 500.311697 L499.234857 510.194145 Z" fill="#888" fill-opacity="0.18" stroke="#000" stroke-width="1"/>
  <path d="M360.545577 544.860041 L394.959662 584.238553 L385.423974 587.434950 L419.188079 618.545631 L403.930976 623.659867 L454.859321 649.017033 L412.902290 663.081182 L423.130762 693.595386 L400.245109 701.266740 L390.016637 670.752535 L348.059606 684.816684 L373.416772 633.888339 L358.159670 639.002575 L366.352596 593.827745 L356.816907 597.024142 Z" fill="#888" fill-opacity="0.18" stroke="#000" stroke-width="1"/>
  <path d="M607.544546 180.625927 L556.128850 190.187444 L558.234475 180.353184 L514.265061 193.566053 L517.634062 177.831238 L469.874522 208.745774 L479.139274 165.475033 L447.669644 158.737031 L452.723145 135.134808 L484.192775 141.872810 L493.457527 98.602068 L524.372063 146.361608 L527.741064 130.626793 L562.445726 160.684665 L564.551352 150.850406 Z" fill="#888" fill-opacity="0.18" stroke="#000" stroke-width="1"/>
  <path d="M232.818780 579.510631 L214.037658 530.702170 L224.091018 530.978336 L203.078291 490.157330 L219.163667 490.599196 L180.054892 449.281090 L224.289677 450.496222 L225.173409 418.325469 L249.301474 418.988268 L248.417741 451.159021 L292.652526 452.374153 L251.334420 491.482928 L267.419796 491.924794 L244.197738 531.530669 L254.251099 531.806835 Z" fill="#888" fill-opacity="0.18" stroke="#000" stroke-width="1"/>
  <path d="M161.865714 895.951331 L191.949766 853.173460 L197.318320 861.677868 L219.525135 821.493957 L228.114820 835.101010 L240.658239 779.609166 L264.279873 817.028561 L291.493979 799.849191 L304.378506 820.259770 L277.164401 837.439140 L300.786034 874.858535 L245.294190 862.315116 L253.883875 875.922169 L208.055426 878.686684 L213.423979 887.191092 Z" fill="#888" fill-opacity="0.18" stroke="#000" stroke-width="1"/>
  <path d="M892.671682 431.360091 L847.862538 404.394610 L855.963596 398.434813 L814.302079 379.142138 L827.263771 369.606462 L771.020351 361.041423 L806.665003 334.818313 L787.593651 308.894930 L807.036189 294.591415 L826.107541 320.514799 L861.752193 294.291689 L853.187154 350.535109 L866.148846 340.999433 L872.165711 386.515217 L880.266768 380.555420 Z" fill="#888" fill-opacity="0.18" stroke="#000" stroke-width="1"/>
  <path d="M1028.904687 702.732947 L989.336483 736.928761 L986.192863 727.375543 L954.895957 760.967104 L949.866164 745.681955 L924.227775 796.469308 L910.395845 754.435150 L879.825548 764.494736 L872.280859 741.567013 L902.851156 731.507428 L889.019226 689.473270 L939.806578 715.111659 L934.776786 699.826510 L979.905622 708.269107 L976.762001 698.715890 Z" fill="#888" fill-opacity="0.18" stroke="#000" stroke-width="1"/>
  <path d="M796.227217 261.348860 L846.005492 245.313903 L845.170109 255.336301 L887.097542 236.628559 L885.760929 252.664395 L929.192052 215.916336 L925.516366 260.014886 L957.588038 262.688112 L955.583119 286.741866 L923.511447 284.068640 L919.835761 328.167190 L883.087703 284.736067 L881.751090 300.771903 L843.499343 275.381096 L842.663960 285.403494 Z" fill="#888" fill-opacity="0.18" stroke="#000" stroke-width="1"/>
  <path d="M943.005608 825.810662 L920.301322 872.922357 L913.617610 865.407418 L898.262019 908.675132 L887.568080 896.651229 L884.243169 953.445834 L854.834837 920.380100 L830.787031 941.767978 L814.746123 923.732123 L838.793929 902.344245 L809.385597 869.278512 L866.180202 872.603422 L855.486263 860.579519 L900.250187 850.377539 L893.566475 842.862599 Z" fill="#888" fill-opacity="0.18" stroke="#000" stroke-width="1"/>
  <path d="M842.534185 236.423754 L795.262900 258.793870 L794.788270 248.747923 L755.648669 272.747524 L754.889261 256.674009 L716.603993 298.756315 L714.515623 254.554149 L682.368593 256.072964 L681.229482 231.962692 L713.376512 230.443877 L711.288141 186.241712 L753.370447 224.526980 L752.611039 208.453465 L793.839011 228.656029 L793.364382 218.610083 Z" fill="#888" fill-opacity="0.18" stroke="#000" stroke-width="1"/>
  <path d="M688.390568 744.907964 L642.360106 720.084729 L650.171217 713.749679 L607.646572 696.442343 L620.144350 686.306263 L563.559705 680.402017 L597.928595 652.527798 L577.656436 627.532241 L596.403103 612.328121 L616.675263 637.323678 L651.044153 609.449458 L645.139907 666.034104 L657.637685 655.898024 L665.793440 701.079579 L673.604551 694.744529 Z" fill="#888" fill-opacity="0.18" stroke="#000" stroke-width="1"/>
  <path d="M197.883980 204.268489 L147.661578 189.684021 L153.965211 181.847534 L108.751271 173.873270 L118.837085 161.334892 L62.276604 167.466303 L90.012592 132.985763 L64.935835 112.814135 L80.064556 94.006567 L105.141313 114.178195 L132.877301 79.697654 L139.008712 136.258135 L149.094526 123.719756 L166.572479 166.174561 L172.876112 158.338074 Z" fill="#888" fill-opacity="0.18" stroke="#000" stroke-width="1"/>
  <path d="M404.371353 603.290048 L386.847402 554.016246 L396.890381 554.549998 L376.930832 513.203828 L392.999599 514.057831 L354.962688 471.750909 L399.151796 474.099415 L400.859801 441.961882 L424.962950 443.242886 L423.254946 475.380418 L467.444054 477.728925 L425.137132 515.765835 L441.205898 516.619837 L416.976339 555.617500 L427.019318 556.151252 Z" fill="#888" fill-opacity="0.18" stroke="#000" stroke-width="1"/>
  <path d="M1019.217389 503.486618 L975.643387 474.567719 L983.999848 468.971661 L943.231400 447.857142 L956.601738 438.903449 L900.791659 427.861836 L937.560090 403.239179 L919.652703 376.498502 L939.708211 363.067962 L957.615598 389.808640 L994.384029 365.185983 L983.342415 420.996063 L996.712754 412.042370 L1000.712771 457.779544 L1009.069233 452.183486 Z" fill="#888" fill-opacity="0.18" stroke="#000" stroke-width="1"/>
  <path d="M422.804611 577.945899 L469.133531 553.684250 L470.013637 563.702820 L508.151681 538.141542 L509.559851 554.171253 L546.113704 510.576551 L549.986171 554.658256 L582.045593 551.841917 L584.157848 575.886483 L552.098426 578.702823 L555.970893 622.784528 L512.376191 586.230675 L513.784361 602.260386 L471.773850 583.739958 L472.653956 593.758528 Z" fill="#888" fill-opacity="0.18" stroke="#000" stroke-width="1"/>
  <path d="M553.891780 398.133566 L505.591905 418.186460 L505.604696 408.129315 L465.347978 430.203870 L465.368443 414.112439 L425.088703 454.289854 L425.144982 410.038418 L392.962120 409.997488 L392.992817 385.860341 L425.175680 385.901271 L425.231959 341.649836 L465.409374 381.929577 L465.429839 365.838145 L505.630277 388.015026 L505.643068 377.957882 Z" fill="#888" fill-opacity="0.18" stroke="#000" stroke-width="1"/>
</svg>
