<?xml version="1.0" encoding="UTF-8"?>
<svg xmlns="http://www.w3.org/2000/svg" width="1100" height="1100" viewBox="0 0 1100 1100">
  <rect x="0" y="0" width="1100" height="1100" fill="white"/>
  <text x="10.0" y="18.0" font-family="monospace" font-size="12">prefix=N6_job5048388_task6 run_id=6 L=1.79944969285 feas=0.000e+00 N=6</text>
  <rect x="40.000000" y="40.000000" width="1020.000000" height="1020.000000" fill="none" stroke="#000" stroke-width="2"/>
  <path d="M94.925234 78.588919 L252.935860 173.302969 L224.435539 194.346716 L371.311233 262.051759 L325.710718 295.721754 L523.886991 325.548054 L398.485576 418.140539 L465.825565 509.341568 L397.424793 559.846560 L330.084804 468.645531 L204.683389 561.238015 L234.509689 363.061743 L188.909175 396.731737 L167.434896 236.434209 L138.934574 257.477955 Z" fill="#888" fill-opacity="0.18" stroke="#000" stroke-width="1"/>
  <path d="M1019.173030 336.069432 L921.274643 492.127163 L900.813092 463.206019 L830.143931 608.678738 L797.405449 562.404909 L763.567079 759.935686 L673.536255 632.682655 L580.988596 698.159617 L531.880874 628.748873 L624.428533 563.271911 L534.397710 436.018880 L731.928487 469.857250 L699.190005 423.583420 L859.889991 405.363732 L839.428440 376.442589 Z" fill="#888" fill-opacity="0.18" stroke="#000" stroke-width="1"/>
  <path d="M937.998266 478.639864 L972.593365 659.585405 L937.914046 652.343001 L985.238932 806.993567 L929.752021 795.405720 L1039.499681 963.092613 L886.910677 931.226035 L863.734984 1042.199857 L780.504617 1024.818087 L803.680311 913.844265 L651.091306 881.977687 L818.778199 772.230027 L763.291288 760.642180 L868.555407 637.858193 L833.876088 630.615788 Z" fill="#888" fill-opacity="0.18" stroke="#000" stroke-width="1"/>
  <path d="M155.303596 1027.778630 L282.434457 894.452513 L296.698645 926.881521 L395.033463 798.480953 L417.856163 850.367365 L490.515443 663.594583 L553.277870 806.282217 L657.050694 760.636816 L691.284745 838.466435 L587.511920 884.111836 L650.274347 1026.799470 L463.501564 954.140190 L486.324265 1006.026602 L325.227021 991.739537 L339.491209 1024.168544 Z" fill="#888" fill-opacity="0.18" stroke="#000" stroke-width="1"/>
  <path d="M234.095958 79.394774 L418.310618 81.146473 L404.374321 113.717737 L565.319230 97.806145 L543.021154 149.920167 L729.051398 75.380300 L667.731691 218.693861 L771.959735 263.290012 L738.512622 341.461045 L634.284578 296.864894 L572.964870 440.178454 L498.425004 254.148211 L476.126928 306.262233 L376.501727 178.860264 L362.565430 211.431528 Z" fill="#888" fill-opacity="0.18" stroke="#000" stroke-width="1"/>
  <path d="M77.453213 1034.262381 L86.439434 850.258693 L118.438150 865.463620 L108.860686 704.017919 L160.058630 728.345803 L92.883479 539.531232 L233.677826 606.432913 L282.333594 504.037024 L359.130511 540.528850 L310.474743 642.924739 L451.269090 709.826419 L262.454519 777.001571 L313.652464 801.329455 L182.435580 895.873475 L214.434296 911.078403 Z" fill="#888" fill-opacity="0.18" stroke="#000" stroke-width="1"/>
</svg>
