<?xml version="1.0" encoding="UTF-8"?>
<svg xmlns="http://www.w3.org/2000/svg" width="1100" height="1100" viewBox="0 0 1100 1100">
  <rect x="0" y="0" width="1100" height="1100" fill="white"/>
  <text x="10.0" y="18.0" font-family="monospace" font-size="12">prefix=N8_job5048390_task8 run_id=8 L=2.0508817478 feas=0.000e+00 N=8</text>
  <rect x="40.000000" y="40.000000" width="1020.000000" height="1020.000000" fill="none" stroke="#000" stroke-width="2"/>
  <path d="M520.713770 46.887715 L407.750504 162.499465 L395.582979 133.895649 L307.936271 245.494143 L288.468232 199.728038 L222.723068 362.813399 L169.185959 236.956610 L77.653749 275.892690 L48.451689 207.243532 L139.983899 168.307453 L86.446791 42.450664 L249.532152 108.195827 L230.064113 62.429722 L371.247930 76.688018 L359.080405 48.084202 Z" fill="#888" fill-opacity="0.18" stroke="#000" stroke-width="1"/>
  <path d="M746.308527 1020.902758 L585.054713 1032.037547 L595.005180 1002.589031 L455.320086 1027.573897 L471.240834 980.456271 L313.644897 1058.448467 L357.426954 928.874994 L263.191702 897.033498 L287.072824 826.357058 L381.308077 858.198554 L425.090134 728.625081 L503.082330 886.221018 L519.003078 839.103391 L614.906115 943.691998 L624.856583 914.243481 Z" fill="#888" fill-opacity="0.18" stroke="#000" stroke-width="1"/>
  <path d="M59.060816 1059.350528 L71.307234 898.177325 L99.012062 912.272340 L94.441502 770.443996 L138.769226 792.996020 L84.329977 625.796649 L206.231218 687.814716 L251.335267 599.159267 L317.826854 632.987304 L272.722805 721.642752 L394.624047 783.660820 L227.424675 838.100069 L271.752399 860.652094 L154.421717 940.462371 L182.126545 954.557386 Z" fill="#888" fill-opacity="0.18" stroke="#000" stroke-width="1"/>
  <path d="M1058.708780 581.389828 L1054.040354 742.960191 L1025.704522 730.181006 L1036.926611 871.638540 L991.589280 851.191843 L1053.815866 1015.651911 L929.138207 959.423496 L888.244814 1050.098157 L820.238818 1019.428113 L861.132211 928.753452 L736.454551 872.525037 L900.914619 810.298451 L855.577288 789.851754 L969.032859 704.622635 L940.697027 691.843450 Z" fill="#888" fill-opacity="0.18" stroke="#000" stroke-width="1"/>
  <path d="M714.373211 895.859244 L569.480115 824.215912 L592.914812 803.794307 L459.672060 754.983053 L497.167574 722.308485 L321.742370 710.256119 L424.855034 620.401058 L359.505898 545.410030 L415.749169 496.398179 L481.098304 571.389207 L584.210968 481.534145 L572.158602 656.959349 L609.654116 624.284782 L639.784204 762.951097 L663.218900 742.529492 Z" fill="#888" fill-opacity="0.18" stroke="#000" stroke-width="1"/>
  <path d="M1020.754636 52.216679 L906.550596 166.602926 L894.692390 137.869498 L805.846733 248.515865 L786.873603 202.542381 L719.372718 364.908918 L667.196609 238.481836 L575.249641 276.428097 L546.789945 207.467871 L638.736914 169.521610 L586.560805 43.094528 L748.927342 110.595412 L729.954211 64.621928 L870.975976 80.402643 L859.117770 51.669215 Z" fill="#888" fill-opacity="0.18" stroke="#000" stroke-width="1"/>
  <path d="M77.823891 510.152632 L191.095674 394.843137 L203.186724 423.479363 L291.131316 312.115464 L310.476997 357.933425 L376.657697 195.024319 L429.858320 321.023712 L521.494242 282.332350 L550.512764 351.059292 L458.876842 389.750654 L512.077465 515.750047 L349.168359 449.569347 L368.514040 495.387308 L227.368826 480.751814 L239.459876 509.388040 Z" fill="#888" fill-opacity="0.18" stroke="#000" stroke-width="1"/>
  <path d="M965.243140 242.833127 L957.755579 404.297404 L929.647095 391.025627 L938.398652 532.657472 L893.425078 511.422629 L952.771907 676.943672 L829.094577 618.547854 L786.624891 708.495003 L719.164530 676.642738 L761.634216 586.695590 L637.956886 528.299772 L803.477929 468.952943 L758.504355 447.718100 L873.430127 364.482073 L845.321643 351.210297 Z" fill="#888" fill-opacity="0.18" stroke="#000" stroke-width="1"/>
</svg>
