<?xml version="1.0" encoding="UTF-8"?>
<svg xmlns="http://www.w3.org/2000/svg" width="1100" height="1100" viewBox="0 0 1100 1100">
  <rect x="0" y="0" width="1100" height="1100" fill="white"/>
  <text x="10.0" y="18.0" font-family="monospace" font-size="12">prefix=N91_job5048492_task91 run_id=91 L=8.0448885392 feas=0.000e+00 N=91</text>
  <rect x="40.000000" y="40.000000" width="1020.000000" height="1020.000000" fill="none" stroke="#000" stroke-width="2"/>
  <path d="M402.856608 73.482547 L368.027941 95.503497 L366.694982 87.692125 L338.382005 110.208981 L336.249269 97.710786 L310.335619 134.288112 L304.470598 99.918075 L279.474207 104.183545 L276.275105 85.436252 L301.271495 81.170782 L295.406473 46.800745 L331.983799 72.714395 L329.851064 60.216200 L364.029063 72.069381 L362.696103 64.258009 Z" fill="#888" fill-opacity="0.18" stroke="#000" stroke-width="1"/>
  <path d="M930.571703 54.979121 L968.334292 71.469880 L962.613847 76.953568 L997.133575 87.771234 L987.980863 96.545134 L1032.797391 97.492163 L1007.627435 121.620387 L1025.175234 139.925810 L1011.446167 153.086659 L993.898368 134.781237 L968.728412 158.909461 L969.675441 114.092933 L960.522729 122.866833 L951.172958 87.920942 L945.452513 93.404630 Z" fill="#888" fill-opacity="0.18" stroke="#000" stroke-width="1"/>
  <path d="M772.551955 97.561627 L772.513119 138.767897 L765.201269 135.713202 L769.068559 171.680932 L757.369599 166.793420 L774.398220 208.259600 L742.226079 194.818942 L732.451055 218.216862 L714.902615 210.885594 L724.677639 187.487674 L692.505498 174.047016 L733.971679 157.018396 L722.272719 152.130884 L750.577569 129.603812 L743.265719 126.549117 Z" fill="#888" fill-opacity="0.18" stroke="#000" stroke-width="1"/>
  <path d="M762.401446 394.434096 L796.879148 371.867611 L798.334907 379.657032 L826.289921 356.697270 L828.619136 369.160343 L853.953784 332.179624 L860.359123 366.453076 L885.285270 361.794647 L888.779092 380.489257 L863.852945 385.147686 L870.258284 419.421138 L833.277564 394.086491 L835.606779 406.549564 L801.246425 395.235874 L802.702184 403.025295 Z" fill="#888" fill-opacity="0.18" stroke="#000" stroke-width="1"/>
  <path d="M683.630947 290.071319 L674.653237 330.287720 L668.178262 325.719458 L664.150157 361.669533 L653.790198 354.360313 L661.417047 398.533260 L632.927159 378.432906 L618.308720 399.152824 L602.768782 388.188995 L617.387221 367.469077 L588.897334 347.368723 L633.070280 339.741874 L622.710321 332.432655 L655.228314 316.582934 L648.753339 312.014672 Z" fill="#888" fill-opacity="0.18" stroke="#000" stroke-width="1"/>
  <path d="M606.360564 615.089724 L630.416012 648.545570 L622.697856 650.341223 L646.860413 677.263413 L634.511362 680.136458 L672.566602 703.826472 L638.606712 711.727346 L644.352803 736.425448 L625.829226 740.735015 L620.083136 716.036914 L586.123247 723.937788 L609.813261 685.882548 L597.464210 688.755593 L607.261542 653.932529 L599.543385 655.728183 Z" fill="#888" fill-opacity="0.18" stroke="#000" stroke-width="1"/>
  <path d="M744.056620 928.705366 L708.702782 949.872897 L707.560161 942.031422 L678.708027 963.853151 L676.879834 951.306791 L650.084418 987.243175 L645.056885 952.740685 L619.964165 956.397072 L617.221875 937.577532 L642.314595 933.921145 L637.287063 899.418655 L673.223447 926.214071 L671.395253 913.667711 L705.274919 926.348472 L704.132298 918.506997 Z" fill="#888" fill-opacity="0.18" stroke="#000" stroke-width="1"/>
  <path d="M323.242851 590.368805 L284.274119 576.974918 L289.534035 571.048064 L254.254804 563.047480 L262.670669 553.564513 L217.923590 556.232267 L241.067219 530.154109 L222.101286 513.322378 L234.725084 499.097928 L253.691017 515.929659 L276.834646 489.851501 L279.502400 534.598580 L287.918265 525.115614 L300.053867 559.194356 L305.313782 553.267502 Z" fill="#888" fill-opacity="0.18" stroke="#000" stroke-width="1"/>
  <path d="M939.924462 558.893328 L981.124420 559.615624 L977.948868 566.875802 L1013.975794 563.605621 L1008.894910 575.221905 L1050.637830 558.883404 L1036.665400 590.828186 L1059.897968 600.989954 L1052.276642 618.414380 L1029.044074 608.252612 L1015.071643 640.197394 L998.733142 598.454474 L993.652258 610.070758 L971.597763 581.396157 L968.422210 588.656335 Z" fill="#888" fill-opacity="0.18" stroke="#000" stroke-width="1"/>
  <path d="M741.094222 905.927799 L748.819839 865.452213 L755.433433 869.817381 L758.344198 833.759636 L768.925948 840.743905 L759.932244 796.828858 L789.032057 816.035596 L803.000593 794.872096 L818.873219 805.348499 L804.904682 826.511999 L834.004495 845.718737 L790.089448 854.712441 L800.671198 861.696710 L768.660621 878.547716 L775.274215 882.912884 Z" fill="#888" fill-opacity="0.18" stroke="#000" stroke-width="1"/>
  <path d="M765.274515 257.603452 L725.253603 267.415936 L726.471869 259.585857 L692.471367 271.938969 L694.420592 259.410842 L658.227213 285.858098 L663.587581 251.405749 L638.531327 247.507299 L641.455164 228.715108 L666.511418 232.613558 L671.871787 198.161209 L698.319042 234.354589 L700.268267 221.826462 L728.908400 243.925698 L730.126665 236.095619 Z" fill="#888" fill-opacity="0.18" stroke="#000" stroke-width="1"/>
  <path d="M822.962764 1001.864893 L786.202208 1020.482618 L785.616262 1012.580025 L755.294969 1032.309513 L754.357456 1019.665363 L725.090865 1053.619519 L722.512705 1018.848109 L697.224406 1020.723135 L695.818137 1001.756911 L721.106435 999.881885 L718.528275 965.110474 L752.482430 994.377065 L751.544917 981.732916 L784.444371 996.774838 L783.858425 988.872245 Z" fill="#888" fill-opacity="0.18" stroke="#000" stroke-width="1"/>
  <path d="M201.959082 1033.432043 L233.673084 1007.122723 L235.997667 1014.698383 L261.186224 988.733597 L264.905557 1000.854653 L285.909863 961.253679 L296.138031 994.586583 L320.380143 987.147916 L325.959143 1005.329500 L301.717031 1012.768167 L311.945198 1046.101071 L272.344224 1025.096765 L276.063558 1037.217821 L240.646834 1029.849703 L242.971418 1037.425363 Z" fill="#888" fill-opacity="0.18" stroke="#000" stroke-width="1"/>
  <path d="M220.465945 60.262669 L207.341528 99.322981 L201.378486 94.104126 L193.621761 129.437775 L184.080893 121.087608 L187.057644 165.815194 L160.820259 142.852235 L144.119925 161.933969 L129.808623 149.408719 L146.508958 130.326984 L120.271572 107.364025 L164.999158 104.387273 L155.458291 96.037106 L189.452401 83.666417 L183.489359 78.447563 Z" fill="#888" fill-opacity="0.18" stroke="#000" stroke-width="1"/>
  <path d="M490.134800 642.221128 L518.080998 672.502611 L510.638561 675.223720 L537.896359 699.007031 L525.988459 703.360806 L566.642646 722.246121 L533.895919 734.219000 L542.603468 758.034801 L524.741617 764.565462 L516.034069 740.749662 L483.287343 752.722541 L502.172658 712.068354 L490.264758 716.422128 L495.753685 680.665938 L488.311247 683.387047 Z" fill="#888" fill-opacity="0.18" stroke="#000" stroke-width="1"/>
  <path d="M488.243863 777.352044 L529.030288 783.219388 L524.972000 790.025607 L561.125109 791.285077 L554.631848 802.175027 L598.089874 791.183303 L580.233408 821.130666 L602.013308 834.117187 L592.273417 850.452112 L570.493517 837.465590 L552.637050 867.412953 L541.645327 823.954927 L535.152066 834.844876 L516.855425 803.638044 L512.797137 810.444263 Z" fill="#888" fill-opacity="0.18" stroke="#000" stroke-width="1"/>
  <path d="M252.698840 576.808050 L291.314501 591.188207 L285.905623 596.979437 L320.970076 605.874245 L312.315870 615.140213 L357.116305 613.610807 L333.317239 639.092219 L351.849176 656.400631 L338.867867 670.299583 L320.335931 652.991172 L296.536865 678.472584 L295.007459 633.672149 L286.353253 642.938117 L275.087866 608.561897 L269.678987 614.353127 Z" fill="#888" fill-opacity="0.18" stroke="#000" stroke-width="1"/>
  <path d="M52.123813 809.704015 L81.345669 838.756405 L74.027061 841.794871 L102.281865 864.384681 L90.572091 869.246227 L132.000392 886.366797 L99.798513 899.736049 L109.521606 923.155597 L91.956944 930.447916 L82.233852 907.028368 L50.031973 920.397620 L67.152543 878.969319 L55.442769 883.830865 L59.389843 847.871804 L52.071234 850.910270 Z" fill="#888" fill-opacity="0.18" stroke="#000" stroke-width="1"/>
  <path d="M724.949402 624.866696 L719.162781 584.068739 L726.833027 586.059129 L717.920046 550.999290 L730.192438 554.183914 L707.473016 515.541374 L741.222095 524.299089 L747.591342 499.754304 L765.999930 504.531239 L759.630683 529.076024 L793.379763 537.833738 L754.737223 560.553161 L767.009615 563.737784 L742.173517 590.039908 L749.843762 592.030298 Z" fill="#888" fill-opacity="0.18" stroke="#000" stroke-width="1"/>
  <path d="M309.981059 178.337276 L272.635151 160.923449 L278.488634 155.582003 L244.245186 143.919252 L253.610759 135.372938 L208.831041 133.324790 L234.586367 109.822427 L217.493739 91.091281 L231.542099 78.271810 L248.634727 97.002956 L274.390053 73.500592 L272.341905 118.280310 L281.707478 109.733996 L290.195600 144.899110 L296.049083 139.557664 Z" fill="#888" fill-opacity="0.18" stroke="#000" stroke-width="1"/>
  <path d="M286.217036 681.750397 L284.673775 722.927777 L277.478327 719.608161 L280.029848 755.693105 L268.517132 750.381720 L284.020458 792.441973 L252.360489 777.835663 L241.737719 800.861095 L224.468645 792.894017 L235.091416 769.868585 L203.431447 755.262275 L245.491700 739.758949 L233.978984 734.447564 L263.087432 712.968929 L255.891985 709.649313 Z" fill="#888" fill-opacity="0.18" stroke="#000" stroke-width="1"/>
  <path d="M385.455874 988.278500 L385.049544 947.074215 L392.393968 950.049740 L388.138333 914.125889 L399.889412 918.886728 L382.413814 877.606933 L414.729280 890.699241 L424.250959 867.197084 L441.877577 874.338343 L432.355898 897.840501 L464.671365 910.932809 L423.391569 928.408407 L435.142648 933.169247 L407.082816 956.000789 L414.427240 958.976314 Z" fill="#888" fill-opacity="0.18" stroke="#000" stroke-width="1"/>
  <path d="M841.787115 165.214088 L812.457340 136.270652 L819.764590 133.204969 L791.425910 110.720469 L803.117511 105.815378 L761.625781 88.849106 L793.777682 75.360104 L783.967499 51.976903 L801.504900 44.619266 L811.315083 68.002467 L843.466984 54.513465 L826.500712 96.005195 L838.192312 91.100103 L834.379090 127.073605 L841.686340 124.007923 Z" fill="#888" fill-opacity="0.18" stroke="#000" stroke-width="1"/>
  <path d="M1059.975348 907.029241 L1026.907741 882.442830 L1033.718022 878.391362 L1002.529533 860.063469 L1013.425982 853.581120 L969.978988 842.545869 L999.944223 824.719411 L986.979526 802.926513 L1003.324199 793.202990 L1016.288896 814.995888 L1046.254131 797.169430 L1035.218880 840.616423 L1046.115329 834.134075 L1047.338583 870.288426 L1054.148863 866.236958 Z" fill="#888" fill-opacity="0.18" stroke="#000" stroke-width="1"/>
  <path d="M286.170853 648.127587 L261.299408 680.981346 L257.306984 674.136285 L238.710073 705.165117 L232.322194 694.213019 L220.911648 737.562961 L203.344980 707.444692 L181.440785 720.220450 L171.858967 703.792304 L193.763162 691.016546 L176.196495 660.898277 L219.546437 672.308824 L213.158558 661.356726 L249.322135 660.446163 L245.329711 653.601102 Z" fill="#888" fill-opacity="0.18" stroke="#000" stroke-width="1"/>
  <path d="M903.032233 314.416488 L861.997720 318.175079 L864.365612 310.612844 L828.907309 317.778195 L832.695936 305.678619 L792.975428 326.455994 L803.394151 293.182158 L779.194998 285.604905 L784.877938 267.455541 L809.077091 275.032794 L819.495814 241.758958 L840.273189 281.479466 L844.061815 269.379889 L869.101395 295.488373 L871.469287 287.926138 Z" fill="#888" fill-opacity="0.18" stroke="#000" stroke-width="1"/>
  <path d="M260.685391 953.906912 L285.899741 921.315582 L289.820218 928.202104 L308.741255 897.369851 L315.014018 908.388285 L326.878198 865.160294 L344.128294 895.460988 L366.165163 882.915464 L375.574306 899.443115 L353.537437 911.988640 L370.787534 942.289334 L327.559542 930.425154 L333.832304 941.443589 L297.661170 941.975147 L301.581647 948.861668 Z" fill="#888" fill-opacity="0.18" stroke="#000" stroke-width="1"/>
  <path d="M46.449102 271.808333 L44.895270 230.631351 L52.319722 233.401158 L47.065154 197.609776 L58.944277 202.041466 L40.325696 161.264433 L72.993284 173.451582 L81.856665 149.693336 L99.675349 156.340872 L90.811968 180.099118 L123.479556 192.286266 L82.702523 210.904847 L94.581646 215.336538 L67.168626 238.940771 L74.593077 241.710577 Z" fill="#888" fill-opacity="0.18" stroke="#000" stroke-width="1"/>
  <path d="M1043.867066 1054.861479 L1005.647093 1039.460443 L1011.207925 1033.814962 L976.392171 1023.991689 L985.289503 1014.958920 L940.464249 1015.297511 L964.931913 990.457396 L946.866375 972.662731 L960.212374 959.113578 L978.277912 976.908243 L1002.745576 952.068128 L1003.084168 996.893381 L1011.981500 987.860612 L1022.329591 1022.524001 L1027.890424 1016.878520 Z" fill="#888" fill-opacity="0.18" stroke="#000" stroke-width="1"/>
  <path d="M951.549452 512.526134 L912.688894 498.821564 L917.995959 492.936891 L882.781726 484.654908 L891.273031 475.239432 L846.506079 477.549859 L869.857168 451.657301 L851.026216 434.674691 L863.763174 420.551478 L882.594125 437.534088 L905.945214 411.641529 L908.255641 456.408481 L916.746946 446.993005 L928.610091 481.167547 L933.917156 475.282874 Z" fill="#888" fill-opacity="0.18" stroke="#000" stroke-width="1"/>
  <path d="M299.183037 227.060592 L258.461405 220.759245 L262.591943 213.996629 L226.454297 212.352236 L233.063156 201.532051 L189.490543 212.060366 L207.664906 182.304856 L186.024535 169.087137 L195.937824 152.856858 L217.578196 166.074577 L235.752559 136.319066 L246.280875 179.891679 L252.889734 169.071493 L270.853017 200.471397 L274.983554 193.708781 Z" fill="#888" fill-opacity="0.18" stroke="#000" stroke-width="1"/>
  <path d="M613.265436 950.979720 L604.168093 991.169229 L597.706741 986.581719 L593.571676 1022.519648 L583.233513 1015.179632 L590.728881 1059.375078 L562.298933 1039.190035 L547.618902 1059.866361 L532.111658 1048.856338 L546.791689 1028.180012 L518.361741 1007.994969 L562.557187 1000.499601 L552.219024 993.159585 L584.784037 977.406699 L578.322686 972.819189 Z" fill="#888" fill-opacity="0.18" stroke="#000" stroke-width="1"/>
  <path d="M511.121268 73.788094 L476.897532 96.737912 L475.354941 88.965221 L447.657877 112.235506 L445.189732 99.799200 L420.269331 137.060328 L413.481931 102.860487 L388.609320 107.796778 L384.907101 89.142320 L409.779713 84.206029 L402.992313 50.006188 L440.253441 74.926588 L437.785295 62.490283 L472.269760 73.419839 L470.727169 65.647148 Z" fill="#888" fill-opacity="0.18" stroke="#000" stroke-width="1"/>
  <path d="M557.757614 165.854600 L571.189114 126.898816 L577.110887 132.164451 L585.145524 96.892960 L594.620362 105.317975 L591.995806 60.568341 L618.051611 83.737134 L634.901642 64.787458 L649.113899 77.424982 L632.263868 96.374658 L658.319672 119.543451 L613.570038 122.168006 L623.044876 130.593022 L588.954435 142.695720 L594.876209 147.961355 Z" fill="#888" fill-opacity="0.18" stroke="#000" stroke-width="1"/>
  <path d="M49.090287 695.631084 L83.367952 672.761892 L84.892241 680.538193 L112.644007 657.333172 L115.082871 669.775254 L140.090915 632.572892 L146.797790 666.788615 L171.681953 661.910888 L175.340248 680.574010 L150.456085 685.451737 L157.162960 719.667461 L119.960598 694.659416 L122.399461 707.101498 L87.940821 696.090795 L89.465110 703.867095 Z" fill="#888" fill-opacity="0.18" stroke="#000" stroke-width="1"/>
  <path d="M332.651951 1025.317356 L366.568378 1001.915770 L368.213894 1009.667324 L395.599974 986.031840 L398.232800 998.434326 L422.656951 960.846045 L429.897223 994.952883 L454.702195 989.687231 L458.651434 1008.290960 L433.846462 1013.556612 L441.086733 1047.663450 L403.498452 1023.239299 L406.131278 1035.641785 L371.504926 1025.170432 L373.150443 1032.921986 Z" fill="#888" fill-opacity="0.18" stroke="#000" stroke-width="1"/>
  <path d="M473.685544 234.244139 L439.993275 257.967319 L438.274092 250.231770 L411.114099 274.126712 L408.363405 261.749834 L384.297943 299.568765 L376.733535 265.532348 L351.979778 271.033736 L347.853737 252.468418 L372.607494 246.967030 L365.043087 212.930614 L402.862018 236.996076 L400.111324 224.619197 L434.835725 234.760671 L433.116541 227.025122 Z" fill="#888" fill-opacity="0.18" stroke="#000" stroke-width="1"/>
  <path d="M470.035402 456.146683 L492.334066 490.798202 L484.533599 492.193563 L507.276068 520.325637 L494.795321 522.558214 L531.578630 548.178639 L497.256576 554.318225 L501.721730 579.279719 L483.000610 582.628584 L478.535456 557.667091 L444.213402 563.806677 L469.833827 527.023368 L457.353080 529.255944 L468.932665 494.984284 L461.132199 496.379645 Z" fill="#888" fill-opacity="0.18" stroke="#000" stroke-width="1"/>
  <path d="M45.505094 408.599810 L86.709660 408.976662 L83.595088 416.263208 L119.593331 412.691093 L114.610016 424.349567 L156.214488 407.661669 L142.510372 439.722473 L165.827320 449.689102 L158.352348 467.176813 L135.035400 457.210184 L121.331284 489.270987 L104.643386 447.666515 L99.660072 459.324989 L77.365945 430.836301 L74.251373 438.122847 Z" fill="#888" fill-opacity="0.18" stroke="#000" stroke-width="1"/>
  <path d="M356.257477 845.963323 L335.154386 810.570982 L342.997930 809.442648 L321.228797 780.550809 L333.778467 778.745475 L297.890956 751.884637 L332.402548 746.919967 L328.791879 721.820627 L347.616383 719.112626 L351.227052 744.211965 L385.738644 739.247295 L358.877806 775.134805 L371.427476 773.329471 L358.685017 807.185980 L366.528561 806.057646 Z" fill="#888" fill-opacity="0.18" stroke="#000" stroke-width="1"/>
  <path d="M986.576683 563.576053 L976.700969 523.570697 L984.532964 524.776588 L972.126138 490.795650 L984.657329 492.725075 L958.152913 456.573533 L992.613690 461.879452 L996.472540 436.817069 L1015.269327 439.711207 L1011.410477 464.773590 L1045.871254 470.079509 L1009.719712 496.583925 L1022.250904 498.513350 L1000.196953 527.188369 L1008.028948 528.394260 Z" fill="#888" fill-opacity="0.18" stroke="#000" stroke-width="1"/>
  <path d="M722.355265 778.530530 L693.627620 808.071698 L690.508451 800.787118 L668.232303 829.289867 L663.241633 817.634540 L646.579989 859.249533 L632.855647 827.197382 L609.544992 837.178721 L602.058988 819.695730 L625.369643 809.714391 L611.645302 777.662240 L653.260294 794.323885 L648.269625 782.668557 L684.270114 786.217959 L681.150946 778.933379 Z" fill="#888" fill-opacity="0.18" stroke="#000" stroke-width="1"/>
  <path d="M904.070155 621.598711 L870.361110 645.298047 L868.647400 637.561283 L841.470508 661.437004 L838.728572 649.058182 L814.636358 686.860078 L807.096033 652.818318 L782.338390 658.302191 L778.225485 639.733958 L802.983129 634.250085 L795.442804 600.208326 L833.244699 624.300539 L830.502763 611.921717 L865.219979 622.087756 L863.506269 614.350993 Z" fill="#888" fill-opacity="0.18" stroke="#000" stroke-width="1"/>
  <path d="M178.916662 940.617417 L174.566477 981.593436 L167.614387 977.790443 L167.697014 1013.965388 L156.573670 1007.880600 L169.170060 1050.900932 L138.580863 1034.167764 L126.411286 1056.414453 L109.726269 1047.287270 L121.895846 1025.040581 L91.306649 1008.307413 L134.326981 995.711023 L123.203637 989.626234 L153.710207 970.184458 L146.758116 966.381465 Z" fill="#888" fill-opacity="0.18" stroke="#000" stroke-width="1"/>
  <path d="M354.471396 432.356596 L364.086275 472.425441 L356.262303 471.168553 L368.447487 505.229598 L355.929131 503.218575 L382.197465 539.542020 L347.771987 534.011710 L343.749943 559.048421 L324.972409 556.031888 L328.994453 530.995176 L294.568975 525.464866 L330.892419 499.196531 L318.374064 497.185509 L340.614358 468.654775 L332.790386 467.397886 Z" fill="#888" fill-opacity="0.18" stroke="#000" stroke-width="1"/>
  <path d="M900.516163 632.427049 L920.014869 668.727995 L912.128702 669.504323 L932.583580 699.341070 L919.965713 700.583194 L954.615690 729.022551 L919.916556 732.438393 L922.400804 757.674127 L903.474003 759.537313 L900.989755 734.301579 L866.290621 737.717420 L894.729979 703.067442 L882.112111 704.309566 L896.356369 671.056978 L888.470202 671.833305 Z" fill="#888" fill-opacity="0.18" stroke="#000" stroke-width="1"/>
  <path d="M181.063066 537.758290 L159.049373 572.591544 L154.494187 566.107364 L138.578876 598.593305 L131.290578 588.218616 L123.574601 632.376081 L103.531783 603.845689 L82.782406 618.422284 L71.849959 602.860251 L92.599336 588.283656 L72.556517 559.753263 L116.713983 567.469240 L109.425685 557.094551 L145.383815 553.139003 L140.828629 546.654823 Z" fill="#888" fill-opacity="0.18" stroke="#000" stroke-width="1"/>
  <path d="M981.040795 318.532712 L1009.838405 348.005681 L1002.476517 350.937729 L1030.400866 373.934777 L1018.621844 378.626055 L1059.797593 396.345415 L1027.405282 409.246429 L1036.787838 432.804472 L1019.119305 439.841389 L1009.736750 416.283345 L977.344439 429.184359 L995.063800 388.008610 L983.284778 392.699887 L987.752739 356.801826 L980.390851 359.733875 Z" fill="#888" fill-opacity="0.18" stroke="#000" stroke-width="1"/>
  <path d="M675.438882 384.434564 L686.247385 344.671082 L692.506546 349.530837 L698.175412 313.802733 L708.190069 321.578341 L702.592447 277.102677 L730.132754 298.485600 L745.683970 278.456285 L760.705956 290.119697 L745.154740 310.149012 L772.695048 331.531934 L728.219384 337.129557 L738.234041 344.905165 L705.024867 359.250347 L711.284028 364.110102 Z" fill="#888" fill-opacity="0.18" stroke="#000" stroke-width="1"/>
  <path d="M1049.768128 911.885177 L1013.082557 930.650226 L1012.464913 922.750047 L982.223014 942.601017 L981.234783 929.960731 L952.104643 964.032023 L949.387009 929.271235 L924.106436 931.247696 L922.624091 912.287267 L947.904664 910.310806 L945.187030 875.550018 L979.258322 904.680158 L978.270092 892.039871 L1011.229625 906.949689 L1010.611981 899.049510 Z" fill="#888" fill-opacity="0.18" stroke="#000" stroke-width="1"/>
  <path d="M669.200350 187.852589 L667.655261 146.675279 L675.079124 149.446661 L669.832156 113.654165 L681.710337 118.088377 L663.100414 77.307392 L695.765414 89.501476 L704.633839 65.745113 L722.451112 72.396432 L713.582687 96.152795 L746.247687 108.346880 L705.466701 126.956802 L717.344883 131.391015 L689.926851 154.989427 L697.350715 157.760810 Z" fill="#888" fill-opacity="0.18" stroke="#000" stroke-width="1"/>
  <path d="M754.628593 444.603663 L716.958471 461.304566 L716.780065 453.382288 L685.483447 471.524922 L685.197998 458.849278 L654.222510 491.252011 L653.437524 456.393989 L628.086236 456.964888 L627.658062 437.951421 L653.009351 437.380523 L652.224366 402.522501 L684.627099 433.497989 L684.341650 420.822344 L716.423254 437.537732 L716.244848 429.615455 Z" fill="#888" fill-opacity="0.18" stroke="#000" stroke-width="1"/>
  <path d="M1028.814065 277.438681 L998.097257 249.971685 L1005.245009 246.550579 L975.835534 225.486005 L987.271936 220.012236 L944.996509 205.105651 L976.446616 190.052788 L965.499079 167.179983 L982.653683 158.969331 L993.601220 181.842136 L1025.051326 166.789272 L1010.144741 209.064700 L1021.581144 203.590931 L1019.540512 239.708369 L1026.688263 236.287264 Z" fill="#888" fill-opacity="0.18" stroke="#000" stroke-width="1"/>
  <path d="M734.324954 798.559918 L728.404781 839.338709 L721.603825 835.271608 L720.297524 871.423054 L709.415994 864.915692 L720.351414 908.387921 L690.427208 890.492676 L677.412484 912.255735 L661.090190 902.494693 L674.104913 880.731633 L644.180707 862.836389 L687.652935 851.900969 L676.771406 845.393607 L708.001913 827.137406 L701.200957 823.070305 Z" fill="#888" fill-opacity="0.18" stroke="#000" stroke-width="1"/>
  <path d="M294.304701 401.521744 L268.188081 369.648865 L275.777692 367.370240 L249.966050 342.024774 L262.109426 338.378975 L222.636486 317.135034 L256.030770 307.109084 L248.739171 282.822332 L266.954235 277.353632 L274.245835 301.640384 L307.640119 291.614435 L286.396178 331.087375 L298.539555 327.441575 L290.956912 362.812990 L298.546522 360.534366 Z" fill="#888" fill-opacity="0.18" stroke="#000" stroke-width="1"/>
  <path d="M466.122075 396.110399 L450.994828 434.439561 L445.309714 428.919253 L435.735736 463.804385 L426.639554 454.971894 L427.298781 499.793579 L402.284279 475.504227 L384.619296 493.696592 L370.975023 480.447855 L388.640006 462.255490 L363.625504 437.966138 L408.447189 437.306911 L399.351006 428.474419 L433.939486 417.878639 L428.254372 412.358332 Z" fill="#888" fill-opacity="0.18" stroke="#000" stroke-width="1"/>
  <path d="M167.427405 1044.934508 L172.074971 1003.991153 L178.999268 1007.844519 L179.179282 971.669927 L190.258156 977.835314 L177.974437 934.724662 L208.441341 951.679475 L220.772113 929.521727 L237.390425 938.769807 L225.059652 960.927555 L255.526556 977.882367 L212.415904 990.166087 L223.494778 996.331473 L192.847860 1015.551252 L199.772157 1019.404619 Z" fill="#888" fill-opacity="0.18" stroke="#000" stroke-width="1"/>
  <path d="M444.042610 326.326452 L418.225605 358.442500 L414.434074 351.484152 L394.942054 381.958644 L388.875603 370.825288 L376.208341 413.824806 L359.525600 383.208077 L337.258888 395.340979 L328.159212 378.640945 L350.425924 366.508043 L333.743184 335.891314 L376.742701 348.558576 L370.676250 337.425220 L406.851010 337.567457 L403.059478 330.609110 Z" fill="#888" fill-opacity="0.18" stroke="#000" stroke-width="1"/>
  <path d="M933.200400 812.692538 L927.732472 853.534428 L920.886865 849.542940 L919.981249 885.706642 L909.028278 879.320262 L920.444755 922.668642 L890.324084 905.106095 L877.551322 927.012038 L861.121865 917.432467 L873.894626 895.526524 L843.773955 877.963978 L887.122335 866.547500 L876.169364 860.161120 L907.195651 841.559965 L900.350044 837.568477 Z" fill="#888" fill-opacity="0.18" stroke="#000" stroke-width="1"/>
  <path d="M756.547032 389.382213 L784.027426 420.087036 L776.544292 422.694146 L803.435625 446.891040 L791.462611 451.062415 L831.823585 470.566512 L798.897796 482.037795 L807.240547 505.983823 L789.281026 512.240886 L780.938275 488.294858 L748.012486 499.766140 L767.516583 459.405166 L755.543569 463.576542 L761.578024 427.908365 L754.094891 430.515475 Z" fill="#888" fill-opacity="0.18" stroke="#000" stroke-width="1"/>
  <path d="M947.259466 216.674173 L911.699453 237.493483 L910.633896 229.641164 L881.568848 251.178492 L879.863957 238.614783 L852.716912 274.286284 L848.028461 239.736084 L822.901043 243.145866 L820.343706 224.300302 L845.471125 220.890520 L840.782674 186.340320 L876.454175 213.487365 L874.749284 200.923656 L908.502782 213.936528 L907.437225 206.084210 Z" fill="#888" fill-opacity="0.18" stroke="#000" stroke-width="1"/>
  <path d="M169.166462 290.200450 L159.641027 330.290652 L153.228967 325.634495 L148.710870 361.526281 L138.451574 354.076429 L145.475185 398.349298 L117.262121 377.862206 L102.362418 398.380798 L86.973474 387.206021 L101.873177 366.687429 L73.660113 346.200337 L117.932982 339.176726 L107.673686 331.726874 L140.404847 316.322180 L133.992787 311.666023 Z" fill="#888" fill-opacity="0.18" stroke="#000" stroke-width="1"/>
  <path d="M639.839888 620.308240 L680.982621 622.595977 L677.533413 629.730209 L713.658602 627.831733 L708.139868 639.246505 L750.473632 624.506410 L735.297114 655.897033 L758.126658 666.934501 L749.848557 684.056659 L727.019013 673.019191 L711.842494 704.409813 L697.102400 662.076049 L691.583666 673.490820 L670.634995 643.998674 L667.185786 651.132907 Z" fill="#888" fill-opacity="0.18" stroke="#000" stroke-width="1"/>
  <path d="M585.390722 910.712686 L549.482816 930.926062 L548.550553 923.056805 L519.124506 944.098222 L517.632885 931.507412 L489.884911 966.713491 L485.782953 932.088762 L460.601332 935.072004 L458.363901 916.185788 L483.545522 913.202546 L479.443564 878.577817 L514.649643 906.325791 L513.158022 893.734980 L546.686027 907.318292 L545.753764 899.449036 Z" fill="#888" fill-opacity="0.18" stroke="#000" stroke-width="1"/>
  <path d="M1058.492464 645.808222 L1023.170866 667.029507 L1022.016319 659.189779 L993.197412 681.055371 L991.350136 668.511807 L964.609415 704.488909 L959.529405 669.994107 L934.442276 673.688660 L931.671362 654.873313 L956.758491 651.178760 L951.678480 616.683957 L987.655583 643.424678 L985.808307 630.881113 L1019.707223 643.510323 L1018.552675 635.670595 Z" fill="#888" fill-opacity="0.18" stroke="#000" stroke-width="1"/>
  <path d="M588.180510 234.301060 L557.824925 262.166751 L555.123589 254.717114 L531.267981 281.911662 L526.945842 269.992243 L507.952641 310.596138 L496.066759 277.817735 L472.227920 286.462012 L465.744712 268.582883 L489.583551 259.938606 L477.697669 227.160203 L518.301565 246.153404 L513.979426 234.233985 L549.720915 239.817840 L547.019579 232.368202 Z" fill="#888" fill-opacity="0.18" stroke="#000" stroke-width="1"/>
  <path d="M753.276721 798.307764 L742.922291 758.423632 L750.768174 759.535577 L737.955011 725.705763 L750.508425 727.484875 L723.572670 691.653560 L758.094559 696.546119 L761.652783 671.439291 L780.482904 674.107959 L776.924680 699.214787 L811.446568 704.107346 L775.615253 731.043100 L788.168667 732.822212 L766.459942 761.759468 L774.305826 762.871413 Z" fill="#888" fill-opacity="0.18" stroke="#000" stroke-width="1"/>
  <path d="M197.446110 895.472847 L226.625991 866.378297 L229.632428 873.710122 L252.345562 845.554357 L257.155862 857.285276 L274.457407 815.932228 L287.685734 848.192254 L311.147571 838.571653 L318.363022 856.168031 L294.901184 865.788632 L308.129511 898.048658 L266.776463 880.747113 L271.586764 892.478032 L235.645304 888.373770 L238.651742 895.705594 Z" fill="#888" fill-opacity="0.18" stroke="#000" stroke-width="1"/>
  <path d="M869.291764 87.057578 L899.709010 114.855948 L892.524592 118.199367 L921.703986 139.581519 L910.208917 144.930989 L952.320265 160.294987 L920.708824 175.006029 L931.407764 197.996167 L914.165160 206.020372 L903.466221 183.030234 L871.854780 197.741276 L887.218779 155.629928 L875.723710 160.979398 L878.155755 124.886204 L870.971337 128.229623 Z" fill="#888" fill-opacity="0.18" stroke="#000" stroke-width="1"/>
  <path d="M852.348846 1005.703043 L825.926639 974.083029 L833.493965 971.731455 L807.439552 946.635617 L819.547273 942.873098 L779.871675 922.010094 L813.167907 911.663167 L805.642869 887.447726 L823.804450 881.803949 L831.329487 906.019390 L864.625719 895.672463 L843.762714 935.348061 L855.870434 931.585543 L848.628615 967.028307 L856.195941 964.676733 Z" fill="#888" fill-opacity="0.18" stroke="#000" stroke-width="1"/>
  <path d="M958.645092 517.423150 L944.593526 556.159589 L938.756552 550.800107 L930.159966 585.938863 L920.820808 577.363692 L922.730775 622.149516 L897.048089 598.567795 L879.897747 617.246111 L865.889009 604.383354 L883.039352 585.705038 L857.356667 562.123316 L902.142491 560.213349 L892.803333 551.638178 L927.082604 540.081143 L921.245630 534.721661 Z" fill="#888" fill-opacity="0.18" stroke="#000" stroke-width="1"/>
  <path d="M495.268982 633.124943 L454.104542 634.981592 L456.819667 627.536968 L421.067901 633.054641 L425.412100 621.143244 L384.773110 640.061239 L396.719658 607.304897 L372.896864 598.616499 L379.413163 580.749403 L403.235956 589.437802 L415.182504 556.681460 L434.100498 597.320451 L438.444698 585.409054 L462.249916 612.647722 L464.965040 605.203099 Z" fill="#888" fill-opacity="0.18" stroke="#000" stroke-width="1"/>
  <path d="M567.719322 316.147979 L545.053436 350.560415 L540.621190 343.991587 L524.096816 376.171993 L517.005223 365.661867 L508.458890 409.666165 L488.957009 380.763318 L467.936757 394.946504 L457.299367 379.181315 L478.319619 364.998129 L458.817738 336.095282 L502.822036 344.641615 L495.730443 334.131489 L531.756699 330.853929 L527.324453 324.285100 Z" fill="#888" fill-opacity="0.18" stroke="#000" stroke-width="1"/>
  <path d="M930.982664 785.848255 L890.594165 794.016936 L892.131418 786.243187 L857.654467 797.196420 L860.114072 784.758423 L822.870065 809.704403 L829.633980 775.499909 L804.757985 770.580699 L808.447393 751.923702 L833.323388 756.842913 L840.087303 722.638420 L865.033283 759.882428 L867.492889 747.444430 L895.205925 770.695690 L896.743179 762.921942 Z" fill="#888" fill-opacity="0.18" stroke="#000" stroke-width="1"/>
  <path d="M335.256996 233.245474 L338.723737 192.185275 L345.756114 195.837670 L344.894463 159.672894 L356.146266 165.516725 L342.626337 122.777639 L373.568796 138.848175 L385.256459 116.344569 L402.134164 125.110316 L390.446501 147.613922 L421.388959 163.684459 L378.649873 177.204388 L389.901676 183.048220 L359.820868 203.142460 L366.853245 206.794854 Z" fill="#888" fill-opacity="0.18" stroke="#000" stroke-width="1"/>
  <path d="M388.496535 804.388437 L429.695638 803.618949 L426.784963 810.989314 L462.669909 806.417213 L458.012828 818.209797 L499.136991 800.371038 L486.330019 832.800645 L509.915187 842.114806 L502.929566 859.803683 L479.344398 850.489521 L466.537426 882.919128 L448.698667 841.794965 L444.041586 853.587550 L420.963612 825.730045 L418.052936 833.100410 Z" fill="#888" fill-opacity="0.18" stroke="#000" stroke-width="1"/>
  <path d="M114.742267 825.152533 L151.764403 843.244511 L145.814486 848.478324 L179.839555 860.763606 L170.319687 869.137706 L215.054608 872.002125 L188.874971 895.030901 L205.623172 914.070637 L191.343370 926.631788 L174.595169 907.592052 L148.415532 930.620828 L151.279951 885.885907 L141.760083 894.260007 L133.914651 858.945950 L127.964733 864.179762 Z" fill="#888" fill-opacity="0.18" stroke="#000" stroke-width="1"/>
  <path d="M775.626181 585.696103 L792.948617 548.307717 L798.304363 554.148119 L809.883328 519.876249 L818.452523 529.220892 L820.391144 484.436299 L843.956429 510.134067 L862.645714 492.995678 L875.499506 507.012642 L856.810220 524.151031 L880.375504 549.848799 L835.590911 547.910178 L844.160106 557.254820 L809.015856 565.828922 L814.371603 571.669324 Z" fill="#888" fill-opacity="0.18" stroke="#000" stroke-width="1"/>
  <path d="M940.338697 875.980485 L934.159688 835.240111 L941.848734 837.156587 L932.598735 802.184155 L944.901209 805.250516 L921.810927 766.828428 L955.642731 775.260921 L961.775453 750.655972 L980.229164 755.255514 L974.096442 779.860462 L1007.928246 788.292956 L969.506158 811.383238 L981.808632 814.449599 L957.226827 840.989538 L964.915873 842.906014 Z" fill="#888" fill-opacity="0.18" stroke="#000" stroke-width="1"/>
  <path d="M506.615514 500.961992 L521.045675 462.364988 L526.829894 467.781363 L535.770112 432.728461 L545.024863 441.394661 L543.553485 396.592283 L569.004051 420.424333 L586.336451 401.914830 L600.218577 414.914130 L582.886177 433.423633 L608.336743 457.255683 L563.534365 458.727061 L572.789116 467.393261 L538.398333 478.614114 L544.182553 484.030489 Z" fill="#888" fill-opacity="0.18" stroke="#000" stroke-width="1"/>
  <path d="M156.409716 329.205552 L195.470887 342.327411 L190.252423 348.290795 L225.586579 356.045207 L217.237036 365.586621 L261.964428 362.606942 L239.003186 388.845831 L258.086014 405.544916 L245.561701 419.857037 L226.478872 403.157952 L203.517631 429.396841 L200.537951 384.669449 L192.188409 394.210863 L179.815495 360.217563 L174.597031 366.180947 Z" fill="#888" fill-opacity="0.18" stroke="#000" stroke-width="1"/>
  <path d="M1030.575295 278.376913 L995.790871 300.467682 L994.442245 292.659000 L966.174492 315.232604 L964.016691 302.738712 L938.176464 339.367945 L932.242511 305.009742 L907.254727 309.325344 L904.018025 290.584507 L929.005809 286.268904 L923.071856 251.910701 L959.701089 277.750928 L957.543287 265.257036 L991.744994 277.041635 L990.396368 269.232952 Z" fill="#888" fill-opacity="0.18" stroke="#000" stroke-width="1"/>
  <path d="M858.702056 1050.647759 L858.210705 1009.444400 L865.561253 1012.404763 L861.231502 976.489770 L872.992379 981.226352 L855.431640 939.982704 L887.774053 953.008304 L897.247217 929.486550 L914.888533 936.591422 L905.415369 960.113177 L937.757781 973.138777 L896.514134 990.699516 L908.275011 995.436098 L880.262350 1018.325491 L887.612898 1021.285854 Z" fill="#888" fill-opacity="0.18" stroke="#000" stroke-width="1"/>
  <path d="M544.524543 692.357864 L528.869097 654.241395 L536.793281 654.281587 L519.520844 622.496427 L532.199539 622.560734 L500.663570 590.703228 L535.529981 590.880073 L535.658596 565.522683 L554.676639 565.619145 L554.548024 590.976534 L589.414435 591.153380 L557.556929 622.689349 L570.235624 622.753656 L552.641650 654.361971 L560.565834 654.402163 Z" fill="#888" fill-opacity="0.18" stroke="#000" stroke-width="1"/>
  <path d="M603.244706 606.569466 L582.618469 570.897116 L590.476448 569.874141 L569.096996 540.692769 L581.669762 539.056009 L546.145947 511.715992 L580.721055 507.214903 L577.447536 482.069370 L596.306686 479.614230 L599.580205 504.759764 L634.155313 500.258675 L606.815295 535.782490 L619.388062 534.145731 L606.192407 567.828192 L614.050386 566.805217 Z" fill="#888" fill-opacity="0.18" stroke="#000" stroke-width="1"/>
  <path d="M199.789370 250.490002 L165.275223 273.000708 L163.832061 265.208943 L135.839958 288.123473 L133.530899 275.656649 L108.136488 312.596356 L101.786576 278.312591 L76.852929 282.930709 L73.389340 264.230473 L98.322987 259.612356 L91.973076 225.328591 L128.912782 250.723002 L126.603723 238.256179 L160.945738 249.625414 L159.502576 241.833649 Z" fill="#888" fill-opacity="0.18" stroke="#000" stroke-width="1"/>
  <path d="M401.708839 147.220583 L440.333662 132.865051 L440.025115 140.783328 L472.377026 124.597304 L471.883352 137.266547 L504.790645 106.827624 L503.433042 141.668043 L528.771528 142.655391 L528.031017 161.659256 L502.692531 160.671908 L501.334927 195.512327 L470.896004 162.605034 L470.402329 175.274277 L439.408023 156.619882 L439.099477 164.538160 Z" fill="#888" fill-opacity="0.18" stroke="#000" stroke-width="1"/>
  <path d="M200.470340 742.277201 L174.728691 774.453679 L170.920858 767.504238 L151.500328 798.024338 L145.407796 786.905233 L132.841364 829.934326 L116.086900 799.356788 L93.848691 811.541852 L84.709892 794.863195 L106.948102 782.678130 L90.193638 752.100592 L133.222731 764.667024 L127.130199 753.547919 L163.305193 753.605357 L159.497360 746.655917 Z" fill="#888" fill-opacity="0.18" stroke="#000" stroke-width="1"/>
  <path d="M516.351036 210.258190 L553.838445 193.151103 L554.102468 201.070989 L585.201163 182.591144 L585.623601 195.262963 L616.247053 162.527322 L617.408757 197.374823 L642.752394 196.529948 L643.386051 215.537676 L618.042414 216.382551 L619.204118 251.230052 L586.468476 220.606600 L586.890914 233.278419 L554.630516 216.910763 L554.894539 224.830649 Z" fill="#888" fill-opacity="0.18" stroke="#000" stroke-width="1"/>
  <path d="M83.694874 515.819891 L118.783735 494.215954 L120.023423 502.042670 L148.602974 479.865141 L150.586475 492.387887 L176.934586 456.122269 L182.389215 490.559820 L207.434707 486.592817 L210.409959 505.376936 L185.364467 509.343938 L190.819096 543.781490 L154.553478 517.433379 L156.536979 529.956124 L122.502800 517.696102 L123.742489 525.522819 Z" fill="#888" fill-opacity="0.18" stroke="#000" stroke-width="1"/>
  <path d="M372.439884 629.665904 L401.364095 659.014639 L394.014895 661.978350 L422.037978 684.854983 L410.279259 689.596921 L451.530900 707.138874 L419.194423 720.179202 L428.678298 743.696640 L411.040219 750.809546 L401.556344 727.292109 L369.219867 740.332437 L386.761821 699.080796 L375.003102 703.822733 L379.316497 667.905772 L371.967297 670.869483 Z" fill="#888" fill-opacity="0.18" stroke="#000" stroke-width="1"/>
</svg>
