<?xml version="1.0" encoding="UTF-8"?>
<svg xmlns="http://www.w3.org/2000/svg" width="1100" height="1100" viewBox="0 0 1100 1100">
  <rect x="0" y="0" width="1100" height="1100" fill="white"/>
  <text x="10.0" y="18.0" font-family="monospace" font-size="12">prefix=N92_job5048493_task92 run_id=92 L=8.047573918 feas=0.000e+00 N=92</text>
  <rect x="40.000000" y="40.000000" width="1020.000000" height="1020.000000" fill="none" stroke="#000" stroke-width="2"/>
  <path d="M528.534064 464.537244 L488.209265 472.947704 L489.698887 465.167381 L455.300423 476.325603 L457.683819 463.877085 L420.604034 489.039891 L427.158373 454.806466 L402.261337 450.039674 L405.836431 431.366897 L430.733467 436.133689 L437.287805 401.900264 L462.450611 438.980049 L464.834006 426.531531 L492.678132 449.606733 L494.167755 441.826409 Z" fill="#888" fill-opacity="0.18" stroke="#000" stroke-width="1"/>
  <path d="M253.399699 520.697802 L217.423011 540.760285 L216.522621 532.889979 L187.022256 553.806210 L185.581633 541.213721 L157.701969 576.296503 L153.740254 541.667158 L128.555276 544.548405 L126.394341 525.659672 L151.579319 522.778425 L147.617604 488.149080 L182.700385 516.028743 L181.259762 503.436254 L214.721842 517.149368 L213.821452 509.279062 Z" fill="#888" fill-opacity="0.18" stroke="#000" stroke-width="1"/>
  <path d="M47.346569 955.561333 L45.713826 914.401166 L53.141129 917.155721 L47.819281 881.386485 L59.702967 885.793773 L41.011972 845.066338 L73.692108 857.186380 L82.506684 833.419008 L100.332213 840.029940 L91.517637 863.797312 L124.197773 875.917354 L83.470339 894.608349 L95.354025 899.015637 L67.995737 922.664830 L75.423041 925.419385 Z" fill="#888" fill-opacity="0.18" stroke="#000" stroke-width="1"/>
  <path d="M794.023794 635.498323 L831.979922 651.503248 L826.331405 657.057226 L860.974053 667.432542 L851.936426 676.318907 L896.746405 676.697063 L871.892931 701.134565 L889.665660 719.209819 L876.109220 732.539366 L858.336491 714.464112 L833.483017 738.901615 L833.861172 694.091636 L824.823546 702.978001 L815.034371 668.165182 L809.385854 673.719160 Z" fill="#888" fill-opacity="0.18" stroke="#000" stroke-width="1"/>
  <path d="M561.853672 880.647133 L562.471331 839.459226 L569.737109 842.615312 L566.376742 806.608809 L578.001987 811.658548 L561.563220 769.971090 L593.532644 783.857870 L603.632120 760.607380 L621.069988 768.181987 L610.970512 791.432477 L642.939935 805.319257 L601.252477 821.758024 L612.877722 826.807762 L584.268665 848.927485 L591.534443 852.083571 Z" fill="#888" fill-opacity="0.18" stroke="#000" stroke-width="1"/>
  <path d="M1054.661514 635.852432 L1054.539016 677.044788 L1047.235824 673.976271 L1051.028778 709.939778 L1039.343671 705.030150 L1056.282371 746.516987 L1024.148326 733.015512 L1014.329071 756.385727 L996.801410 749.021286 L1006.620664 725.651071 L974.486619 712.149596 L1015.973456 695.210896 L1004.288348 690.301268 L1032.629439 667.839237 L1025.326247 664.770720 Z" fill="#888" fill-opacity="0.18" stroke="#000" stroke-width="1"/>
  <path d="M330.954183 1033.837662 L361.430513 1006.124515 L364.095840 1013.584303 L388.071274 986.511460 L392.335797 998.447121 L411.513642 957.946658 L423.241082 990.769727 L447.112405 982.240680 L453.509190 1000.144172 L429.637867 1008.673220 L441.365307 1041.496289 L400.864845 1022.318444 L405.129368 1034.254105 L369.426494 1028.503880 L372.091822 1035.963668 Z" fill="#888" fill-opacity="0.18" stroke="#000" stroke-width="1"/>
  <path d="M213.009885 381.263835 L229.072622 419.195533 L221.151112 419.241308 L238.761532 450.826643 L226.087116 450.899882 L257.956254 482.402824 L223.101610 482.604231 L223.248089 507.953063 L204.236465 508.062922 L204.089987 482.714090 L169.235344 482.915498 L200.738285 451.046361 L188.063869 451.119600 L205.308093 419.332857 L197.386583 419.378631 Z" fill="#888" fill-opacity="0.18" stroke="#000" stroke-width="1"/>
  <path d="M229.560923 425.302094 L240.943513 385.713436 L247.129178 390.662169 L253.315648 355.032296 L263.212712 362.950269 L258.264986 318.412676 L285.481912 340.187103 L301.317858 320.392975 L316.163454 332.269935 L300.327508 352.064062 L327.544433 373.838489 L283.006840 378.786216 L292.903904 386.704189 L259.500508 400.559636 L265.686173 405.508369 Z" fill="#888" fill-opacity="0.18" stroke="#000" stroke-width="1"/>
  <path d="M798.448216 380.215800 L757.288738 381.865838 L760.040172 374.437377 L724.273175 379.774255 L728.675470 367.888718 L687.955892 386.596824 L700.062202 353.911598 L676.291128 345.107009 L682.894570 327.278704 L706.665643 336.083293 L718.771952 303.398067 L737.480058 344.117645 L741.882353 332.232108 L765.543040 359.580457 L768.294474 352.151996 Z" fill="#888" fill-opacity="0.18" stroke="#000" stroke-width="1"/>
  <path d="M170.944258 441.681666 L130.161439 435.886247 L134.206692 429.075348 L98.063541 427.878312 L104.535946 416.980874 L61.111339 428.043455 L78.910454 398.075502 L57.115578 385.130691 L66.824186 368.784535 L88.619061 381.729345 L106.418176 351.761392 L117.480757 395.185999 L123.953162 384.288561 L142.297199 415.453551 L146.342452 408.642653 Z" fill="#888" fill-opacity="0.18" stroke="#000" stroke-width="1"/>
  <path d="M750.584448 285.443912 L791.000374 293.404954 L786.597827 299.990544 L822.625790 303.112431 L815.581716 313.649376 L859.534262 304.917201 L840.163058 333.893797 L861.236947 347.981946 L850.670835 363.787362 L829.596947 349.699214 L810.225742 378.675811 L801.493567 334.723264 L794.449493 345.260209 L777.792734 313.161725 L773.390188 319.747315 Z" fill="#888" fill-opacity="0.18" stroke="#000" stroke-width="1"/>
  <path d="M612.254105 162.959524 L650.073741 179.284364 L644.378530 184.790450 L678.932339 195.457904 L669.820001 204.267642 L714.625190 205.024140 L689.566262 229.250920 L707.185738 247.475594 L693.517232 260.690201 L675.897756 242.465527 L650.838828 266.692306 L651.595326 221.887118 L642.482989 230.696856 L632.988108 195.802622 L627.292897 201.308709 Z" fill="#888" fill-opacity="0.18" stroke="#000" stroke-width="1"/>
  <path d="M849.413437 999.810699 L888.696174 987.413450 L887.991341 995.303673 L921.102866 980.764513 L919.975134 993.388870 L954.355358 964.647307 L951.254094 999.364290 L976.502809 1001.619755 L974.811210 1020.556291 L949.562496 1018.300826 L946.461232 1053.017808 L917.719669 1018.637584 L916.591937 1031.261942 L886.581676 1011.084120 L885.876843 1018.974343 Z" fill="#888" fill-opacity="0.18" stroke="#000" stroke-width="1"/>
  <path d="M929.193146 949.261642 L959.393373 921.247868 L962.132488 928.680880 L985.838482 901.371795 L990.221066 913.264614 L1008.996653 872.576108 L1021.048758 905.281359 L1044.834396 896.516192 L1051.408271 914.355420 L1027.622634 923.120587 L1039.674739 955.825839 L998.986233 937.050251 L1003.368817 948.943070 L967.610717 943.546903 L970.349832 950.979915 Z" fill="#888" fill-opacity="0.18" stroke="#000" stroke-width="1"/>
  <path d="M375.007228 785.164416 L365.236897 825.181486 L358.855933 820.487265 L354.117171 856.338408 L343.907629 848.827655 L350.654603 893.128394 L322.578360 872.473823 L307.556854 892.892909 L292.242540 881.626779 L307.264046 861.207693 L279.187803 840.553122 L323.488543 833.806148 L313.279000 826.295395 L346.094005 811.098824 L339.713040 806.404603 Z" fill="#888" fill-opacity="0.18" stroke="#000" stroke-width="1"/>
  <path d="M896.785764 558.162272 L915.941596 521.694761 L920.998267 527.792506 L934.264569 494.150783 L942.355243 503.907175 L946.519538 459.289512 L968.768890 486.119588 L988.281673 469.938241 L1000.417684 484.572828 L980.904901 500.754176 L1003.154254 527.584252 L958.536591 523.419958 L966.627264 533.176349 L931.111609 539.987996 L936.168280 546.085740 Z" fill="#888" fill-opacity="0.18" stroke="#000" stroke-width="1"/>
  <path d="M747.192702 209.183604 L733.082189 170.483233 L740.995754 170.840862 L725.016426 138.399818 L737.678130 138.972024 L707.454384 105.887248 L742.274071 107.460814 L743.418482 82.137406 L762.411039 82.995714 L761.266627 108.319123 L796.086314 109.892689 L763.001539 140.116435 L775.663243 140.688641 L756.822885 171.556119 L764.736450 171.913748 Z" fill="#888" fill-opacity="0.18" stroke="#000" stroke-width="1"/>
  <path d="M185.508322 447.604756 L156.957050 477.297350 L153.797955 470.032879 L131.690079 498.651091 L126.635528 487.027937 L110.214020 528.722197 L96.314007 496.758525 L73.067700 506.867626 L65.485874 489.432895 L88.732181 479.323795 L74.832168 447.360123 L116.526427 463.781630 L111.471877 452.158477 L147.479767 455.503937 L144.320673 448.239466 Z" fill="#888" fill-opacity="0.18" stroke="#000" stroke-width="1"/>
  <path d="M199.283950 571.720111 L229.706808 599.491949 L222.526685 602.838326 L251.708465 624.196790 L240.220268 629.550993 L282.326271 644.885978 L250.733728 659.610038 L261.442135 682.586433 L244.209839 690.617738 L233.501432 667.641343 L201.908889 682.365404 L217.243873 640.259401 L205.755676 645.613604 L208.166438 609.531081 L200.986315 612.877458 Z" fill="#888" fill-opacity="0.18" stroke="#000" stroke-width="1"/>
  <path d="M466.343111 234.793265 L507.529349 234.072807 L504.610921 241.437262 L540.489281 236.909171 L535.819797 248.692299 L576.951326 230.908190 L564.110245 263.311791 L587.676500 272.650759 L580.672274 290.325450 L557.106019 280.986482 L544.264938 313.390083 L526.480829 272.258554 L521.811345 284.041682 L498.774066 256.166171 L495.855639 263.530626 Z" fill="#888" fill-opacity="0.18" stroke="#000" stroke-width="1"/>
  <path d="M289.522972 480.941008 L293.117579 521.976408 L285.567315 519.579341 L292.589628 555.053943 L280.509206 551.218636 L301.121994 591.007959 L267.900834 580.460865 L260.230220 604.621709 L242.109587 598.868749 L249.780201 574.707905 L216.559040 564.160811 L256.348362 543.548023 L244.267940 539.712716 L270.466788 514.785208 L262.916524 512.388141 Z" fill="#888" fill-opacity="0.18" stroke="#000" stroke-width="1"/>
  <path d="M349.345650 120.516227 L369.491054 156.446548 L361.622846 157.365087 L382.607060 186.817133 L370.017927 188.286796 L405.164916 216.085472 L370.544801 220.127044 L373.484126 245.305310 L354.600427 247.509804 L351.661101 222.331538 L317.040986 226.373110 L344.839661 191.226121 L332.250528 192.695784 L345.886430 159.202165 L338.018221 160.120704 Z" fill="#888" fill-opacity="0.18" stroke="#000" stroke-width="1"/>
  <path d="M886.840208 99.840896 L919.813839 124.530264 L912.992233 128.557434 L944.108449 146.984083 L933.193880 153.427556 L976.588987 164.605297 L946.573920 182.324849 L959.460866 204.153988 L943.089012 213.819198 L930.202066 191.990058 L900.186999 209.709609 L911.364740 166.314502 L900.450171 172.757976 L899.349021 136.611776 L892.527415 140.638947 Z" fill="#888" fill-opacity="0.18" stroke="#000" stroke-width="1"/>
  <path d="M802.032783 942.616086 L760.860365 943.903418 L763.677141 936.499488 L727.864512 941.521028 L732.371354 929.674740 L691.488527 948.023354 L703.882344 915.446061 L680.189768 906.432376 L686.950032 888.662943 L710.642608 897.676629 L723.036425 865.099336 L741.385040 905.982163 L745.891882 894.135875 L769.310694 921.691628 L772.127471 914.287697 Z" fill="#888" fill-opacity="0.18" stroke="#000" stroke-width="1"/>
  <path d="M357.956244 526.972749 L321.724100 507.375378 L327.882816 502.393146 L294.404714 488.719193 L304.258659 480.747622 L259.694869 476.041687 L286.793218 454.119867 L270.850076 434.411977 L285.630993 422.454620 L301.574135 442.162510 L328.672484 420.240690 L323.966549 464.804480 L333.820494 456.832909 L340.200247 492.428682 L346.358963 487.446450 Z" fill="#888" fill-opacity="0.18" stroke="#000" stroke-width="1"/>
  <path d="M392.927342 824.656876 L394.335647 783.488418 L401.539492 786.783418 L398.871029 750.719036 L410.397182 755.991035 L394.761796 713.995655 L426.458717 728.493652 L437.002715 705.441346 L454.291945 713.349344 L443.747947 736.401650 L475.444868 750.899647 L433.449488 766.535033 L444.975641 771.807032 L415.947184 793.373416 L423.151030 796.668415 Z" fill="#888" fill-opacity="0.18" stroke="#000" stroke-width="1"/>
  <path d="M216.838509 275.522402 L224.530242 315.990445 L216.777651 314.362643 L227.322143 348.954173 L214.917997 346.349690 L239.417154 383.871264 L205.305752 376.708935 L200.096786 401.517227 L181.490566 397.610502 L186.699533 372.802210 L152.588131 365.639880 L190.109705 341.140723 L177.705558 338.536240 L201.272468 311.107039 L193.519876 309.479237 Z" fill="#888" fill-opacity="0.18" stroke="#000" stroke-width="1"/>
  <path d="M242.930197 897.184771 L205.044203 913.355011 L204.975964 905.433663 L173.440696 923.133583 L173.331515 910.459425 L141.919075 942.417771 L141.618827 907.563840 L116.270513 907.782202 L116.106741 888.770967 L141.455055 888.552604 L141.154806 853.698672 L173.113152 885.111111 L173.003971 872.436954 L204.839488 889.590967 L204.771249 881.669619 Z" fill="#888" fill-opacity="0.18" stroke="#000" stroke-width="1"/>
  <path d="M714.442385 834.298233 L755.591854 832.415023 L752.882552 839.858953 L788.618737 834.319516 L784.283853 846.229804 L824.896782 827.291293 L812.975852 860.044585 L836.796428 868.714352 L830.294103 886.579784 L806.473527 877.910017 L794.552597 910.663309 L775.614086 870.050380 L771.279202 881.960668 L747.463947 854.746813 L744.754645 862.190743 Z" fill="#888" fill-opacity="0.18" stroke="#000" stroke-width="1"/>
  <path d="M552.817374 592.707674 L516.558608 573.159603 L522.710541 568.168998 L489.213871 554.540594 L499.056965 546.555628 L454.486815 541.910310 L481.555322 519.951653 L465.585389 500.265466 L480.350029 488.288016 L496.319962 507.974203 L523.388468 486.015545 L518.743151 530.585694 L528.586245 522.600728 L535.014408 558.187790 L541.166341 553.197186 Z" fill="#888" fill-opacity="0.18" stroke="#000" stroke-width="1"/>
  <path d="M826.095118 889.237596 L846.491303 925.026154 L838.629711 925.999696 L859.819382 955.304271 L847.240835 956.861938 L882.581371 984.414138 L847.990366 988.697723 L851.105701 1013.854818 L832.237880 1016.191319 L829.122546 991.034224 L794.531541 995.317809 L822.083741 959.977273 L809.505193 961.534940 L822.906527 927.946780 L815.044935 928.920322 Z" fill="#888" fill-opacity="0.18" stroke="#000" stroke-width="1"/>
  <path d="M384.123674 791.477550 L353.094798 764.384486 L360.199253 760.880326 L330.552814 740.171659 L341.919941 734.565003 L299.485483 720.163823 L330.745085 704.745520 L319.531774 682.011265 L336.582465 673.601282 L347.795776 696.335537 L379.055377 680.917234 L364.654197 723.351692 L376.021324 717.745037 L374.408163 753.872007 L381.512617 750.367847 Z" fill="#888" fill-opacity="0.18" stroke="#000" stroke-width="1"/>
  <path d="M912.881087 340.155141 L902.437672 300.308431 L910.283494 301.401812 L897.396210 267.613083 L909.949526 269.362493 L882.939760 233.605679 L917.461379 238.416556 L920.960199 213.309924 L939.790173 215.934039 L936.291353 241.040670 L970.812972 245.851548 L935.056157 272.861313 L947.609473 274.610723 L925.975139 303.588574 L933.820962 304.681955 Z" fill="#888" fill-opacity="0.18" stroke="#000" stroke-width="1"/>
  <path d="M473.608599 919.734499 L454.579682 883.200603 L462.472453 882.524900 L442.405544 852.440361 L455.033978 851.359236 L420.760081 822.490963 L455.488275 819.517870 L453.326025 794.261002 L472.268676 792.639315 L474.430926 817.896183 L509.159119 814.923089 L480.290846 849.196987 L492.919280 848.115862 L478.257996 881.173493 L486.150767 880.497790 Z" fill="#888" fill-opacity="0.18" stroke="#000" stroke-width="1"/>
  <path d="M313.952957 166.188161 L317.319678 207.242886 L309.782839 204.803936 L316.608088 240.316980 L304.549146 236.414661 L324.940704 276.317813 L291.778613 265.586437 L283.973975 289.704321 L265.885562 283.850843 L273.690200 259.732958 L240.528109 249.001582 L280.431261 228.610023 L268.372319 224.707705 L294.709162 199.926038 L287.172323 197.487088 Z" fill="#888" fill-opacity="0.18" stroke="#000" stroke-width="1"/>
  <path d="M945.658326 590.265276 L907.369597 605.457329 L907.504790 597.536840 L875.525413 614.421144 L875.741721 601.748363 L843.518997 632.889546 L844.113844 598.039397 L818.768282 597.606781 L819.092744 578.597609 L844.438306 579.030225 L845.033154 544.180077 L876.174337 576.402800 L876.390645 563.730019 L907.775175 581.695863 L907.910367 573.775375 Z" fill="#888" fill-opacity="0.18" stroke="#000" stroke-width="1"/>
  <path d="M448.799854 92.187367 L468.861093 128.164748 L460.990756 129.064866 L481.905967 158.565954 L469.313428 160.006142 L504.395246 187.887019 L469.765764 191.847537 L472.646140 217.032614 L453.757332 219.192897 L450.876956 194.007819 L416.247474 197.968336 L444.128351 162.886519 L431.535812 164.326707 L445.250082 130.865101 L437.379745 131.765219 Z" fill="#888" fill-opacity="0.18" stroke="#000" stroke-width="1"/>
  <path d="M932.878305 54.029455 L970.846061 70.006774 L965.201585 75.564858 L999.851770 85.914978 L990.820607 94.807913 L1035.630850 95.153481 L1010.795154 119.609052 L1028.581023 137.671376 L1015.034280 151.010778 L997.248410 132.948454 L972.412714 157.404024 L972.758283 112.593782 L963.727121 121.486717 L953.912632 86.681026 L948.268156 92.239110 Z" fill="#888" fill-opacity="0.18" stroke="#000" stroke-width="1"/>
  <path d="M920.203800 331.468369 L960.560074 339.726478 L956.109206 346.279507 L992.113231 349.666316 L984.991842 360.151162 L1029.007429 351.742519 L1009.423610 380.575846 L1030.393302 394.818624 L1019.711218 410.545893 L998.741526 396.303115 L979.157706 425.136441 L970.749064 381.120854 L963.627675 391.605700 L947.207470 359.385564 L942.756602 365.938593 Z" fill="#888" fill-opacity="0.18" stroke="#000" stroke-width="1"/>
  <path d="M853.229796 456.040869 L842.364792 495.774695 L836.115075 490.907103 L830.394087 526.614673 L820.394539 518.826527 L825.923042 563.295762 L798.424286 541.878360 L782.847993 561.877455 L767.848672 550.195235 L783.424965 530.196140 L755.926209 508.778738 L800.395444 503.250234 L790.395896 495.462088 L823.615640 481.171920 L817.365923 476.304329 Z" fill="#888" fill-opacity="0.18" stroke="#000" stroke-width="1"/>
  <path d="M674.088729 961.154009 L637.866730 941.537893 L644.028022 936.558849 L610.557000 922.867576 L620.415068 914.901105 L575.853719 910.172113 L602.963407 888.264316 L587.030464 868.548180 L601.817567 856.598473 L617.750509 876.314609 L644.860197 854.406813 L640.131205 898.968162 L649.989273 891.001691 L656.350608 926.600760 L662.511900 921.621715 Z" fill="#888" fill-opacity="0.18" stroke="#000" stroke-width="1"/>
  <path d="M486.936975 97.089957 L522.838243 76.892824 L523.768114 84.759701 L553.189907 63.733090 L554.677700 76.320093 L582.425726 41.133103 L586.517156 75.747362 L611.691162 72.771777 L613.922851 91.652281 L588.748845 94.627867 L592.840275 129.242126 L557.653285 101.494100 L559.141078 114.081103 L525.627855 100.493455 L526.557725 108.360332 Z" fill="#888" fill-opacity="0.18" stroke="#000" stroke-width="1"/>
  <path d="M214.166715 173.904569 L183.859726 201.802807 L181.149017 194.359389 L157.338904 221.577743 L153.001771 209.668274 L134.070933 250.284781 L122.143815 217.533742 L98.324878 226.208009 L91.819177 208.343806 L115.638114 199.669538 L103.710996 166.918499 L144.327503 185.849337 L139.990369 173.939868 L175.727600 179.472553 L173.016891 172.029135 Z" fill="#888" fill-opacity="0.18" stroke="#000" stroke-width="1"/>
  <path d="M264.287011 920.134715 L304.828777 927.427892 L300.535479 934.085219 L336.610043 936.612291 L329.740766 947.264015 L373.543267 937.807898 L354.652756 967.100138 L375.956203 980.838691 L365.652287 996.816277 L344.348841 983.077723 L325.458329 1012.369962 L316.002213 968.567462 L309.132936 979.219185 L291.948883 947.399873 L287.655585 954.057200 Z" fill="#888" fill-opacity="0.18" stroke="#000" stroke-width="1"/>
  <path d="M819.483619 1056.314731 L780.033992 1044.459260 L785.056385 1038.333251 L749.503086 1031.720897 L757.538916 1021.919283 L712.945309 1026.333744 L735.043840 999.379307 L715.440613 983.307648 L727.494357 968.605228 L747.097583 984.676887 L769.196114 957.722450 L773.610574 1002.316056 L781.646403 992.514443 L795.101172 1026.081235 L800.123565 1019.955226 Z" fill="#888" fill-opacity="0.18" stroke="#000" stroke-width="1"/>
  <path d="M627.895121 646.719683 L629.069545 687.895477 L621.673367 685.058408 L626.596682 720.884672 L614.762797 716.345362 L632.999233 757.278351 L600.456049 744.795246 L591.377427 768.463016 L573.626600 761.654050 L582.705221 737.986280 L550.162038 725.503176 L591.095027 707.266740 L579.261142 702.727429 L606.881011 679.384269 L599.484833 676.547200 Z" fill="#888" fill-opacity="0.18" stroke="#000" stroke-width="1"/>
  <path d="M178.622847 760.865231 L215.837231 778.526342 L209.949579 783.826151 L244.101647 795.717179 L234.681404 804.196873 L279.431245 806.548246 L253.525577 829.867403 L270.484965 848.707889 L256.354600 861.427429 L239.395213 842.586943 L213.489546 865.906101 L215.840919 821.156260 L206.420676 829.635953 L198.174276 794.425768 L192.286624 799.725576 Z" fill="#888" fill-opacity="0.18" stroke="#000" stroke-width="1"/>
  <path d="M838.974211 536.525658 L851.830740 497.390828 L857.826825 502.567640 L865.342687 467.194316 L874.936422 475.477215 L871.659333 430.785629 L898.042105 453.563602 L914.607903 434.376132 L928.998506 446.800481 L912.432707 465.987951 L938.815479 488.765924 L894.123893 492.043014 L903.717628 500.325913 L869.818993 512.921264 L875.815078 518.098077 Z" fill="#888" fill-opacity="0.18" stroke="#000" stroke-width="1"/>
  <path d="M41.885578 773.304312 L81.959789 763.771064 L80.688013 771.589951 L114.761470 759.475504 L112.726628 771.985724 L149.089282 745.797280 L143.493466 780.200384 L168.513905 784.270068 L165.461642 803.035397 L140.441203 798.965713 L134.845387 833.368817 L108.656944 797.006163 L106.622101 809.516382 L78.144460 787.227725 L76.872684 795.046613 Z" fill="#888" fill-opacity="0.18" stroke="#000" stroke-width="1"/>
  <path d="M829.046967 776.276371 L864.282748 797.613310 L857.888929 802.290007 L890.662117 817.576551 L880.432006 825.059265 L924.714069 831.927756 L896.581265 852.505220 L911.546693 872.965442 L896.201527 884.189513 L881.236099 863.729292 L853.103295 884.306756 L859.971785 840.024694 L849.741675 847.507408 L845.101291 811.643400 L838.707472 816.320096 Z" fill="#888" fill-opacity="0.18" stroke="#000" stroke-width="1"/>
  <path d="M277.330805 710.765207 L282.991659 669.963492 L289.815865 673.986256 L290.893667 637.839352 L301.812397 644.275774 L290.606628 600.887896 L320.633134 618.588057 L333.505978 596.750598 L349.884072 606.405231 L337.011228 628.242689 L367.037733 645.942850 L323.649855 657.148618 L334.568584 663.585040 L303.464277 682.031783 L310.288483 686.054547 Z" fill="#888" fill-opacity="0.18" stroke="#000" stroke-width="1"/>
  <path d="M307.221507 392.570674 L342.611330 371.490216 L343.735832 379.331638 L372.627616 357.582498 L374.426821 370.128774 L401.294499 334.265073 L406.242312 368.767332 L431.334863 365.168923 L434.033670 383.988336 L408.941118 387.586745 L413.888931 422.089004 L378.025230 395.221326 L379.824434 407.767602 L345.984838 395.014483 L347.109341 402.855906 Z" fill="#888" fill-opacity="0.18" stroke="#000" stroke-width="1"/>
  <path d="M678.862165 1059.031852 L640.760026 1043.377707 L646.357074 1037.771865 L611.620199 1027.716527 L620.575476 1018.747179 L575.763915 1018.782358 L600.390925 994.116651 L582.452229 976.206098 L595.885144 962.752076 L613.823840 980.662629 L638.450850 955.996923 L638.486029 1000.808483 L647.441305 991.839135 L657.551169 1026.560180 L663.148217 1020.954337 Z" fill="#888" fill-opacity="0.18" stroke="#000" stroke-width="1"/>
  <path d="M66.013865 40.827070 L89.845816 74.425631 L82.118856 76.171054 L106.099861 103.238963 L93.736725 106.031640 L131.626258 129.957787 L97.627634 137.637649 L103.212989 162.363921 L84.668285 166.552937 L79.082931 141.826665 L45.084307 149.506528 L69.010453 111.616995 L56.647318 114.409672 L66.664936 79.661901 L58.937976 81.407324 Z" fill="#888" fill-opacity="0.18" stroke="#000" stroke-width="1"/>
  <path d="M496.384635 572.005014 L455.466202 576.749175 L457.650554 569.134648 L422.386872 577.149196 L425.881836 564.965954 L386.686319 586.686650 L396.297470 553.182732 L371.930985 546.192804 L377.173431 527.917940 L401.539917 534.907868 L411.151068 501.403951 L432.871764 540.599468 L436.366729 528.416225 L462.019260 553.905595 L464.203612 546.291068 Z" fill="#888" fill-opacity="0.18" stroke="#000" stroke-width="1"/>
  <path d="M484.237749 698.013631 L512.633198 727.855276 L505.235609 730.688666 L532.843863 754.045562 L521.007722 758.578986 L561.931635 776.835780 L529.382246 789.302696 L538.449093 812.974979 L520.694881 819.775114 L511.628033 796.102831 L479.078644 808.569747 L497.335439 767.645834 L485.499297 772.179257 L490.440432 736.355446 L483.042844 739.188836 Z" fill="#888" fill-opacity="0.18" stroke="#000" stroke-width="1"/>
  <path d="M451.253765 957.537315 L471.233544 921.514632 L476.150308 927.725738 L490.177850 894.394246 L498.044673 904.332015 L503.222038 859.820532 L524.855803 887.149398 L544.731342 871.415751 L556.531577 886.322405 L536.656038 902.056052 L558.289803 929.384919 L513.778321 924.207554 L521.645144 934.145323 L485.983838 940.147950 L490.900603 946.359056 Z" fill="#888" fill-opacity="0.18" stroke="#000" stroke-width="1"/>
  <path d="M585.793011 635.002430 L622.713991 616.735890 L623.225730 624.640986 L653.720286 605.202818 L654.539069 617.850971 L684.112494 584.183631 L686.364147 618.966051 L711.660453 617.328485 L712.888627 636.300715 L687.592322 637.938281 L689.843975 672.720701 L656.176635 643.147276 L656.995418 655.795429 L624.249209 640.451177 L624.760949 648.356272 Z" fill="#888" fill-opacity="0.18" stroke="#000" stroke-width="1"/>
  <path d="M880.227797 313.122153 L902.583876 347.720288 L894.788639 349.129789 L917.576164 377.209835 L905.103785 379.465037 L941.922737 405.007981 L907.623694 411.209785 L912.134097 436.154543 L893.425529 439.537346 L888.915125 414.592587 L854.616083 420.794392 L880.159027 383.975440 L867.686647 386.230641 L879.198165 351.948791 L871.402928 353.358292 Z" fill="#888" fill-opacity="0.18" stroke="#000" stroke-width="1"/>
  <path d="M439.983736 656.591698 L478.945685 643.220393 L478.437488 651.125717 L511.176817 635.766790 L510.363703 648.415308 L544.017785 618.826798 L541.781720 653.610224 L567.078758 655.236452 L565.859086 674.209230 L540.562049 672.583002 L538.325985 707.366428 L508.737474 673.712346 L507.924360 686.360864 L477.421095 666.936365 L476.912899 674.841689 Z" fill="#888" fill-opacity="0.18" stroke="#000" stroke-width="1"/>
  <path d="M593.929416 397.781827 L582.257860 358.277396 L590.133762 359.127448 L576.206984 325.753728 L588.808427 327.113810 L560.705027 292.209998 L595.358993 295.950225 L598.079158 270.747340 L616.981322 272.787463 L614.261157 297.990348 L648.915124 301.730575 L614.011312 329.833975 L626.612754 331.194058 L605.885565 360.827551 L613.761466 361.677602 Z" fill="#888" fill-opacity="0.18" stroke="#000" stroke-width="1"/>
  <path d="M170.548133 737.710742 L133.728600 719.240571 L139.730667 714.070696 L105.846621 701.436153 L115.449928 693.164353 L70.762161 689.835585 L97.171255 667.088136 L80.627656 647.881521 L95.032617 635.473822 L111.576216 654.680436 L137.985310 631.932987 L134.656542 676.620754 L144.259849 668.348954 L151.734801 703.730946 L157.736868 698.561072 Z" fill="#888" fill-opacity="0.18" stroke="#000" stroke-width="1"/>
  <path d="M44.393751 998.494949 L72.780105 968.644652 L75.979392 975.891512 L97.928399 947.151273 L103.047258 958.746249 L119.237550 916.961662 L133.314412 948.847845 L156.504364 938.610127 L164.182652 956.002591 L140.992701 966.240309 L155.069563 998.126492 L113.284976 981.936200 L118.403835 993.531176 L82.377965 990.385232 L85.577252 997.632092 Z" fill="#888" fill-opacity="0.18" stroke="#000" stroke-width="1"/>
  <path d="M1006.157972 764.906927 L1003.087234 805.984851 L996.022421 802.401441 L997.231374 838.544196 L985.927672 832.810741 L999.853289 875.403633 L968.768109 859.636632 L957.301200 882.244035 L940.345647 873.643853 L951.812557 851.036450 L920.727377 835.269449 L963.320268 821.343832 L952.016567 815.610377 L981.892794 795.234623 L974.827980 791.651214 Z" fill="#888" fill-opacity="0.18" stroke="#000" stroke-width="1"/>
  <path d="M158.865527 175.548774 L136.002692 141.283397 L143.776341 139.759327 L120.578032 112.017684 L133.015871 109.579172 L95.824994 84.580855 L130.029051 77.874947 L125.152026 52.999269 L143.808784 49.341501 L148.685809 74.217179 L182.889866 67.511270 L157.891549 104.702148 L170.329388 102.263636 L159.323640 136.711187 L167.097289 135.187117 Z" fill="#888" fill-opacity="0.18" stroke="#000" stroke-width="1"/>
  <path d="M279.060981 166.678422 L262.123322 204.227603 L256.710572 198.443612 L245.482656 232.819391 L236.822257 223.565005 L235.337290 268.351968 L211.521192 242.902406 L193.012420 260.223205 L180.021821 246.341626 L198.530593 229.020827 L174.714495 203.571266 L219.501458 205.056233 L210.841059 195.801847 L245.885073 186.875629 L240.472324 181.091638 Z" fill="#888" fill-opacity="0.18" stroke="#000" stroke-width="1"/>
  <path d="M919.373069 51.442570 L891.395114 81.675984 L888.097611 74.473283 L866.541317 103.509235 L861.265312 91.984915 L845.644523 133.985726 L831.135511 102.293846 L808.086871 112.845854 L800.172864 95.559374 L823.221504 85.007365 L808.712492 53.315485 L850.713304 68.936274 L845.437299 57.411954 L881.502605 60.067883 L878.205103 52.865183 Z" fill="#888" fill-opacity="0.18" stroke="#000" stroke-width="1"/>
  <path d="M178.509565 262.348998 L147.037727 288.926219 L144.647676 281.373731 L119.695838 307.549408 L115.871756 295.465428 L95.222011 335.235583 L84.705786 302.004637 L60.537825 309.652801 L54.801703 291.526831 L78.969663 283.878667 L68.453438 250.647722 L108.223593 271.297468 L104.399511 259.213488 L139.867574 266.268756 L137.477523 258.716268 Z" fill="#888" fill-opacity="0.18" stroke="#000" stroke-width="1"/>
  <path d="M726.268142 145.566316 L687.281669 132.266684 L692.526165 126.329709 L657.240373 118.413069 L665.631567 108.913909 L620.905682 111.683825 L643.981466 85.561135 L624.983145 68.778747 L637.569936 54.530007 L656.568256 71.312395 L679.644039 45.189704 L682.413955 89.915589 L690.805149 80.416429 L703.015158 114.455759 L708.259654 108.518784 Z" fill="#888" fill-opacity="0.18" stroke="#000" stroke-width="1"/>
  <path d="M664.507366 446.023933 L703.720081 458.640913 L698.580032 464.668542 L733.998654 471.967957 L725.774575 481.612162 L770.445287 478.061846 L747.829069 504.583411 L767.117480 521.031569 L754.781362 535.497878 L735.492951 519.049720 L712.876733 545.571285 L709.326417 500.900574 L701.102338 510.544779 L688.299933 476.723799 L683.159883 482.751427 Z" fill="#888" fill-opacity="0.18" stroke="#000" stroke-width="1"/>
  <path d="M334.244486 85.749585 L299.078404 107.201205 L297.871466 99.372047 L269.210098 121.423947 L267.278997 108.897294 L240.790119 145.041678 L235.479591 110.593384 L210.426285 114.455586 L207.529634 95.665607 L232.582939 91.803405 L227.272411 57.355110 L263.416795 83.843989 L261.485694 71.317336 L295.457590 83.713731 L294.250651 75.884573 Z" fill="#888" fill-opacity="0.18" stroke="#000" stroke-width="1"/>
  <path d="M896.949356 194.179633 L882.977875 232.930414 L877.132432 227.584087 L868.607101 262.727778 L859.254392 254.173655 L861.250858 298.940734 L835.530909 275.416897 L818.422664 294.122316 L804.393600 281.291132 L821.501845 262.585714 L795.781895 239.061877 L840.548974 237.065411 L831.196265 228.511288 L865.441546 216.891434 L859.596103 211.545107 Z" fill="#888" fill-opacity="0.18" stroke="#000" stroke-width="1"/>
  <path d="M371.682417 592.462195 L401.447283 620.938114 L394.190843 624.115611 L422.865000 646.150879 L411.254695 651.234874 L452.990445 667.550647 L421.062107 681.531634 L431.230098 704.752243 L413.814641 712.378236 L403.646651 689.157627 L371.718314 703.138614 L388.034086 661.402865 L376.423782 666.486860 L379.677962 630.470606 L372.421522 633.648103 Z" fill="#888" fill-opacity="0.18" stroke="#000" stroke-width="1"/>
  <path d="M989.285197 173.183570 L1012.168541 207.435254 L1004.395805 208.963977 L1027.610717 236.691728 L1015.174341 239.137685 L1052.380176 264.113733 L1018.180140 270.840117 L1023.072055 295.712870 L1004.417490 299.381806 L999.525575 274.509053 L965.325539 281.235436 L990.301587 244.029600 L977.865210 246.475558 L988.850334 212.021424 L981.077599 213.550147 Z" fill="#888" fill-opacity="0.18" stroke="#000" stroke-width="1"/>
  <path d="M446.529322 409.551719 L464.949886 372.707343 L470.127840 378.702441 L482.716734 344.801408 L491.001460 354.393566 L494.270037 309.701356 L517.053035 336.079788 L536.237350 319.510335 L548.664440 333.898571 L529.480125 350.468024 L552.263123 376.846457 L507.570914 373.577880 L515.855640 383.170037 L480.483748 390.692638 L485.661702 396.687736 Z" fill="#888" fill-opacity="0.18" stroke="#000" stroke-width="1"/>
  <path d="M571.519518 917.564697 L573.019152 958.729930 L565.600795 955.951371 L570.806947 991.737629 L558.937575 987.291936 L577.496771 1028.079599 L544.855998 1015.853942 L535.964611 1039.592685 L518.160554 1032.924145 L527.051941 1009.185401 L494.411168 996.959744 L535.198832 978.400549 L523.329460 973.954855 L550.764080 950.394254 L543.345723 947.615696 Z" fill="#888" fill-opacity="0.18" stroke="#000" stroke-width="1"/>
  <path d="M719.366601 465.677516 L747.864313 435.933514 L751.036494 443.192279 L773.092757 414.534269 L778.168247 426.148294 L794.514584 384.424506 L808.472182 416.363074 L831.700232 406.212094 L839.313468 423.633131 L816.085418 433.784112 L830.043016 465.722680 L788.319228 449.376344 L793.394719 460.990369 L757.380857 457.709811 L760.553039 464.968576 Z" fill="#888" fill-opacity="0.18" stroke="#000" stroke-width="1"/>
  <path d="M147.344864 979.436406 L179.388815 953.551845 L181.613593 961.154658 L207.130336 935.529357 L210.689981 947.693859 L232.202125 908.383493 L241.991147 941.835873 L266.320151 934.716585 L271.659617 952.963338 L247.330614 960.082626 L257.119636 993.535007 L217.809270 972.022863 L221.368914 984.187365 L186.063148 976.360286 L188.287926 983.963100 Z" fill="#888" fill-opacity="0.18" stroke="#000" stroke-width="1"/>
  <path d="M979.034074 589.204670 L988.221397 629.359599 L980.413768 628.020445 L992.233939 662.197102 L979.741732 660.054456 L1005.615636 696.641589 L971.262066 690.749313 L966.976775 715.733728 L948.238464 712.519760 L952.523755 687.535345 L918.170184 681.643070 L954.757317 655.769165 L942.265109 653.626520 L964.798508 625.342139 L956.990879 624.002985 Z" fill="#888" fill-opacity="0.18" stroke="#000" stroke-width="1"/>
  <path d="M714.407265 555.304451 L749.712304 576.526596 L743.333740 581.224078 L776.156506 596.403876 L765.950804 603.919846 L810.254986 610.644178 L782.189303 631.313096 L797.221243 651.724501 L781.912689 662.998456 L766.880749 642.587051 L738.815066 663.255969 L745.539398 618.951786 L735.333695 626.467756 L730.576611 590.619040 L724.198047 595.316522 Z" fill="#888" fill-opacity="0.18" stroke="#000" stroke-width="1"/>
  <path d="M670.833906 372.862957 L656.644327 411.534408 L650.829098 406.155234 L642.105905 441.250336 L632.801537 432.643656 L634.545757 477.421272 L608.958747 453.752905 L591.745389 472.361639 L577.788838 459.451620 L595.002197 440.842886 L569.415187 417.174518 L614.192803 415.430298 L604.888436 406.823619 L639.198639 395.396885 L633.383409 390.017710 Z" fill="#888" fill-opacity="0.18" stroke="#000" stroke-width="1"/>
  <path d="M771.007838 811.197061 L747.640387 777.273803 L755.390629 775.634851 L731.784290 748.239577 L744.184677 745.617254 L706.627903 721.172093 L740.728968 713.960706 L735.484322 689.159932 L754.084903 685.226448 L759.329548 710.027222 L793.430613 702.815835 L768.985451 740.372609 L781.385839 737.750287 L770.891113 772.356948 L778.641355 770.717997 Z" fill="#888" fill-opacity="0.18" stroke="#000" stroke-width="1"/>
  <path d="M40.207988 651.934217 L54.410737 613.267601 L60.224134 618.648756 L68.959280 583.556627 L78.260715 592.166474 L76.531746 547.388267 L102.110693 571.065348 L119.330389 552.462477 L133.282542 565.377249 L116.062846 583.980119 L141.641794 607.657201 L96.863586 609.386170 L106.165021 617.996017 L71.850929 629.411065 L77.664326 634.792220 Z" fill="#888" fill-opacity="0.18" stroke="#000" stroke-width="1"/>
  <path d="M358.535142 310.871868 L387.709630 281.791385 L390.713970 289.121211 L413.423728 260.978234 L418.230672 272.705957 L435.532619 231.369292 L448.751714 263.620529 L472.207158 254.006642 L479.417573 271.598226 L455.962129 281.212112 L469.181223 313.463349 L427.844558 296.161402 L432.651502 307.889124 L396.722649 303.780864 L399.726988 311.110691 Z" fill="#888" fill-opacity="0.18" stroke="#000" stroke-width="1"/>
  <path d="M429.464828 970.842891 L403.085969 939.204606 L410.653332 936.862078 L384.635023 911.746189 L396.742803 907.998145 L357.103242 887.098805 L390.399637 876.791683 L382.903548 852.576123 L401.065219 846.954056 L408.561307 871.169617 L441.857703 860.862494 L420.958363 900.502056 L433.066144 896.754011 L425.788057 932.177023 L433.355420 929.834495 Z" fill="#888" fill-opacity="0.18" stroke="#000" stroke-width="1"/>
  <path d="M709.782754 851.607203 L684.844829 818.821152 L692.509359 816.819305 L667.640005 790.565247 L679.903254 787.362292 L641.237746 764.711559 L674.961678 755.903433 L668.555769 731.376937 L686.950641 726.572504 L693.356551 751.099001 L727.080483 742.290875 L704.429750 780.956383 L716.692998 777.753428 L707.838419 812.815611 L715.502949 810.813764 Z" fill="#888" fill-opacity="0.18" stroke="#000" stroke-width="1"/>
  <path d="M329.376245 785.869082 L288.874374 778.357511 L293.203489 771.723419 L257.143069 769.001959 L264.069654 758.387413 L220.216825 767.607317 L239.264933 738.417314 L218.035840 724.564145 L228.425717 708.642325 L249.654810 722.495494 L268.702918 693.305491 L277.922823 737.158319 L284.849408 726.543773 L301.861720 758.455236 L306.190836 751.821144 Z" fill="#888" fill-opacity="0.18" stroke="#000" stroke-width="1"/>
  <path d="M425.142404 160.413972 L389.490670 139.779557 L395.790547 134.977061 L362.720834 120.343046 L372.800636 112.659053 L328.391146 106.669531 L356.110603 85.538548 L340.742615 65.378943 L355.862319 53.852953 L371.230307 74.012557 L398.949763 52.881575 L392.960241 97.291065 L403.040044 89.607072 L408.390300 125.372069 L414.690176 120.569573 Z" fill="#888" fill-opacity="0.18" stroke="#000" stroke-width="1"/>
  <path d="M760.946948 220.756491 L783.455373 186.257273 L787.914670 192.804569 L804.293399 160.563329 L811.428275 171.039003 L819.780269 127.012631 L839.401177 155.820732 L860.352523 141.550981 L871.054836 157.264491 L850.103490 171.534242 L869.724397 200.342343 L825.698026 191.990349 L832.832901 202.466022 L796.833264 205.899160 L801.292561 212.446456 Z" fill="#888" fill-opacity="0.18" stroke="#000" stroke-width="1"/>
  <path d="M1034.118373 491.084305 L1038.626827 532.029379 L1031.025005 529.801214 L1038.836356 565.110464 L1026.673440 561.545401 L1048.168070 600.865346 L1014.720054 591.061422 L1007.589928 615.387252 L989.345555 610.039658 L996.475681 585.713828 L963.027665 575.909904 L1002.347610 554.415274 L990.184695 550.850211 L1015.821361 525.344885 L1008.219540 523.116721 Z" fill="#888" fill-opacity="0.18" stroke="#000" stroke-width="1"/>
  <path d="M556.372545 472.543242 L597.562657 472.990310 L594.436690 480.269097 L630.428966 476.759634 L625.427419 488.405693 L667.046436 471.794413 L653.292181 503.821077 L676.584299 513.824172 L669.081978 531.293261 L645.789859 521.290166 L632.035604 553.316829 L615.424324 511.697812 L610.422776 523.343872 L588.184756 494.826671 L585.058789 502.105458 Z" fill="#888" fill-opacity="0.18" stroke="#000" stroke-width="1"/>
</svg>
