<?xml version="1.0" encoding="UTF-8"?>
<svg xmlns="http://www.w3.org/2000/svg" width="1100" height="1100" viewBox="0 0 1100 1100">
  <rect x="0" y="0" width="1100" height="1100" fill="white"/>
  <text x="10.0" y="18.0" font-family="monospace" font-size="12">prefix=N98_job5048499_task98 run_id=98 L=8.37519070568 feas=0.000e+00 N=98</text>
  <rect x="40.000000" y="40.000000" width="1020.000000" height="1020.000000" fill="none" stroke="#000" stroke-width="2"/>
  <path d="M405.415440 385.096471 L403.726403 424.641605 L396.831486 421.416840 L399.101244 456.090993 L388.069376 450.931369 L402.749986 491.410099 L372.412349 477.221133 L362.093101 499.284869 L345.545299 491.545433 L355.864547 469.481697 L325.526910 455.292731 L366.005640 440.612121 L354.973772 435.452497 L383.041651 414.967310 L376.146733 411.742545 Z" fill="#888" fill-opacity="0.18" stroke="#000" stroke-width="1"/>
  <path d="M44.329834 71.862658 L83.091771 63.851248 L81.646908 71.324625 L114.719116 60.662648 L112.407335 72.620051 L148.080297 48.505996 L141.722898 81.388855 L165.637705 86.012418 L162.170034 103.948523 L138.255227 99.324961 L131.897828 132.207820 L107.783772 96.534858 L105.471991 108.492262 L78.757182 86.271379 L77.312318 93.744756 Z" fill="#888" fill-opacity="0.18" stroke="#000" stroke-width="1"/>
  <path d="M184.670465 331.526014 L223.895579 326.228759 L221.934654 333.583606 L255.668075 325.246643 L252.530595 337.014397 L289.793682 315.438710 L281.165612 347.800035 L304.701122 354.074995 L299.994902 371.726627 L276.459393 365.451668 L267.831323 397.812993 L246.255636 360.549907 L243.118156 372.317662 L218.012804 348.293299 L216.051879 355.648146 Z" fill="#888" fill-opacity="0.18" stroke="#000" stroke-width="1"/>
  <path d="M599.302745 741.741785 L631.953564 764.115753 L625.566853 768.256877 L656.182115 784.693251 L645.963376 791.319049 L688.074720 800.301400 L659.973189 818.522346 L673.224786 838.959824 L657.896678 848.898522 L644.645080 828.461044 L616.543549 846.681991 L625.525899 804.570647 L615.307160 811.196446 L612.793429 776.539125 L606.406717 780.680250 Z" fill="#888" fill-opacity="0.18" stroke="#000" stroke-width="1"/>
  <path d="M395.732682 499.394312 L428.662106 521.356177 L422.327942 525.577238 L453.147350 541.627559 L443.012687 548.381258 L485.233590 556.833668 L457.363268 575.406339 L470.870665 595.675664 L455.668671 605.806212 L442.161274 585.536887 L414.290951 604.109558 L422.743362 561.888655 L412.608699 568.642353 L409.659614 534.019361 L403.325450 538.240423 Z" fill="#888" fill-opacity="0.18" stroke="#000" stroke-width="1"/>
  <path d="M251.866113 168.923485 L228.561948 200.917021 L224.606303 194.413801 L207.295843 224.543466 L200.966811 214.138314 L190.776512 255.973774 L173.371674 227.359607 L152.561370 240.017672 L143.067822 224.409944 L163.878125 211.751880 L146.473286 183.137713 L188.308746 193.328011 L181.979714 182.922859 L216.695012 181.407362 L212.739367 174.904142 Z" fill="#888" fill-opacity="0.18" stroke="#000" stroke-width="1"/>
  <path d="M307.660072 351.560800 L338.593894 326.867297 L340.689352 334.184951 L365.349960 309.704283 L368.702692 321.412529 L389.591476 283.760084 L398.811489 315.957760 L422.227981 309.252296 L427.257079 326.814665 L403.840587 333.520129 L413.060600 365.717805 L375.408156 344.829020 L378.760888 356.537266 L344.880267 348.820258 L346.975724 356.137912 Z" fill="#888" fill-opacity="0.18" stroke="#000" stroke-width="1"/>
  <path d="M221.517401 599.100162 L212.643416 637.673765 L206.452391 633.245424 L202.359284 667.751875 L192.453643 660.666530 L199.504381 703.143994 L172.263870 683.659295 L158.093179 703.470576 L143.234719 692.842558 L157.405409 673.031277 L130.164898 653.546578 L172.642362 646.495840 L162.736722 639.410494 L194.070340 624.388743 L187.879315 619.960402 Z" fill="#888" fill-opacity="0.18" stroke="#000" stroke-width="1"/>
  <path d="M568.974928 534.281502 L560.499089 572.944541 L554.262738 568.580262 L550.525592 603.127077 L540.547432 596.144231 L548.035716 638.546748 L520.595775 619.343920 L506.630082 639.300241 L491.662842 628.825971 L505.628535 608.869650 L478.188594 589.666822 L520.591111 582.178537 L510.612951 575.195691 L541.790038 559.851704 L535.553688 555.487425 Z" fill="#888" fill-opacity="0.18" stroke="#000" stroke-width="1"/>
  <path d="M394.046751 609.118687 L427.496360 630.279834 L421.265860 634.652460 L452.463468 649.954681 L442.494668 656.950884 L484.907176 664.382377 L457.492976 683.621935 L471.485382 703.559535 L456.532182 714.053840 L442.539776 694.116240 L415.125576 713.355798 L422.557068 670.943290 L412.588268 677.939494 L408.804860 643.397714 L402.574360 647.770341 Z" fill="#888" fill-opacity="0.18" stroke="#000" stroke-width="1"/>
  <path d="M881.940735 120.765037 L884.727216 160.248021 L877.512302 157.822323 L883.682324 192.018515 L872.138461 188.137399 L891.295329 226.699846 L859.549706 216.026777 L851.787474 239.114503 L834.471680 233.292829 L842.233911 210.205104 L810.488288 199.532035 L849.050735 180.375167 L837.506872 176.494051 L863.082474 152.970929 L855.867559 150.545231 Z" fill="#888" fill-opacity="0.18" stroke="#000" stroke-width="1"/>
  <path d="M450.468486 155.922623 L486.621218 172.036295 L481.086784 177.262100 L514.165759 187.903065 L505.310665 196.264353 L548.351620 197.498868 L524.000111 220.492410 L540.722687 238.202598 L527.440046 250.744531 L510.717470 233.034342 L486.365961 256.027885 L487.600476 212.986929 L478.745382 221.348217 L470.017916 187.713711 L464.483483 192.939516 Z" fill="#888" fill-opacity="0.18" stroke="#000" stroke-width="1"/>
  <path d="M429.503036 937.401736 L455.352654 967.376186 L448.119792 969.747831 L473.518668 993.461662 L461.946088 997.256293 L500.364116 1016.701165 L468.539521 1027.136401 L476.128784 1050.281560 L458.769914 1055.973507 L451.180652 1032.828348 L419.356057 1043.263584 L438.800928 1004.845556 L427.228348 1008.640187 L433.654067 974.491120 L426.421205 976.862764 Z" fill="#888" fill-opacity="0.18" stroke="#000" stroke-width="1"/>
  <path d="M406.005187 110.271200 L367.188601 118.013494 L368.685279 110.550321 L335.539896 120.982592 L337.934580 109.041515 L302.095177 132.907497 L308.680558 100.069535 L284.798404 95.280167 L288.390431 77.368552 L312.272584 82.157920 L318.857966 49.319958 L342.723948 85.159361 L345.118632 73.218284 L371.678634 95.623975 L373.175311 88.160802 Z" fill="#888" fill-opacity="0.18" stroke="#000" stroke-width="1"/>
  <path d="M813.139677 274.809262 L823.911459 312.896520 L816.353678 311.991566 L829.360981 344.213589 L817.268531 342.765662 L843.879839 376.616603 L810.625602 372.634805 L807.729749 396.819704 L789.591075 394.647815 L792.486928 370.462915 L759.232691 366.481117 L793.083631 339.869809 L780.991182 338.421883 L801.238116 310.181657 L793.680335 309.276703 Z" fill="#888" fill-opacity="0.18" stroke="#000" stroke-width="1"/>
  <path d="M839.263700 607.649782 L829.520640 569.286476 L837.051335 570.394462 L824.915748 537.834115 L836.964859 539.606891 L811.274022 505.052170 L844.409079 509.927306 L847.954632 485.829082 L866.028300 488.488247 L862.482747 512.586471 L895.617804 517.461607 L861.063083 543.152444 L873.112195 544.925221 L852.112724 572.610433 L859.643419 573.718418 Z" fill="#888" fill-opacity="0.18" stroke="#000" stroke-width="1"/>
  <path d="M701.603479 589.728890 L684.839669 625.584784 L679.714644 619.956896 L668.478149 652.838348 L660.278109 643.833728 L658.266659 686.845377 L635.716550 662.082673 L617.707310 678.482752 L605.407250 664.975822 L623.416490 648.575743 L600.866381 623.813038 L643.878030 625.824489 L635.677990 616.819869 L669.464594 608.701122 L664.339569 603.073234 Z" fill="#888" fill-opacity="0.18" stroke="#000" stroke-width="1"/>
  <path d="M1041.320195 869.833920 L1046.541627 909.069199 L1039.190584 907.094063 L1047.462334 940.843534 L1035.700666 937.683317 L1057.204293 974.988033 L1024.859704 966.297434 L1018.539268 989.820772 L1000.896765 985.080445 L1007.217200 961.557107 L974.872611 952.866508 L1012.177328 931.362881 L1000.415659 928.202663 L1024.488498 903.143790 L1017.137455 901.168654 Z" fill="#888" fill-opacity="0.18" stroke="#000" stroke-width="1"/>
  <path d="M966.644797 143.431334 L929.122646 130.831385 L934.134631 125.102597 L900.193114 117.657993 L908.212289 108.491932 L865.249200 111.359147 L887.301931 86.152480 L868.969810 70.114130 L880.998573 56.365040 L899.330694 72.403389 L921.383425 47.196723 L924.250639 90.159812 L932.269814 80.993751 L944.158599 113.645021 L949.170584 107.916234 Z" fill="#888" fill-opacity="0.18" stroke="#000" stroke-width="1"/>
  <path d="M1009.444213 675.257416 L987.416721 642.371857 L994.883646 640.894015 L972.545042 614.277564 L984.492123 611.913017 L948.713053 587.956682 L981.567526 581.454177 L976.838432 557.560015 L994.759053 554.013195 L999.488148 577.907357 L1032.342621 571.404852 L1008.386286 607.183923 L1020.333367 604.819376 L1009.817498 637.938331 L1017.284423 636.460489 Z" fill="#888" fill-opacity="0.18" stroke="#000" stroke-width="1"/>
  <path d="M1053.243819 1027.090023 L1015.210825 1038.051858 L1016.078029 1030.489652 L983.921358 1043.657691 L985.308884 1031.558161 L951.591247 1058.338170 L955.406943 1025.064465 L931.207884 1022.289414 L933.289173 1004.140121 L957.488231 1006.915172 L961.303926 973.641467 L988.083935 1007.359103 L989.471460 995.259574 L1017.812436 1015.365241 L1018.679639 1007.803035 Z" fill="#888" fill-opacity="0.18" stroke="#000" stroke-width="1"/>
  <path d="M244.085694 437.760898 L205.100712 430.916800 L209.199146 424.502609 L174.525830 422.220096 L181.083323 411.957391 L139.032828 421.220421 L157.065934 392.997982 L136.540524 379.882996 L146.376763 364.488938 L166.902173 377.603924 L184.935279 349.381485 L194.198309 391.431981 L200.755802 381.169276 L217.396012 411.674228 L221.494445 405.260037 Z" fill="#888" fill-opacity="0.18" stroke="#000" stroke-width="1"/>
  <path d="M801.924049 171.213823 L812.395437 209.384761 L804.845020 208.420293 L817.598065 240.743791 L805.517398 239.200642 L831.861194 273.260182 L798.639359 269.016523 L795.553061 293.177858 L777.432060 290.863134 L780.518358 266.701800 L747.296523 262.458141 L781.356063 236.114344 L769.275396 234.571196 L789.744186 206.491357 L782.193769 205.526889 Z" fill="#888" fill-opacity="0.18" stroke="#000" stroke-width="1"/>
  <path d="M954.413768 437.511755 L965.755187 475.433288 L958.184692 474.641711 L971.673473 506.665163 L959.560680 505.398639 L986.676352 538.846931 L953.366172 535.363990 L950.833125 559.589576 L932.663936 557.689790 L935.196983 533.464205 L901.886803 529.981264 L935.335094 502.865592 L923.222301 501.599068 L943.043701 473.058556 L935.473205 472.266979 Z" fill="#888" fill-opacity="0.18" stroke="#000" stroke-width="1"/>
  <path d="M428.090508 1009.153638 L390.656213 1022.012252 L391.142427 1014.416030 L359.687866 1029.182861 L360.465810 1017.028905 L328.136062 1045.468936 L330.275407 1012.045558 L305.967495 1010.489672 L307.134410 992.258738 L331.442321 993.814625 L333.581666 960.391247 L362.021696 992.720994 L362.799639 980.567039 L392.114856 999.223586 L392.601071 991.627364 Z" fill="#888" fill-opacity="0.18" stroke="#000" stroke-width="1"/>
  <path d="M341.999004 216.269924 L345.263792 255.716237 L338.020010 253.378159 L344.604018 287.497061 L333.013966 283.756136 L352.636782 322.083580 L320.764139 311.796035 L313.282288 334.976139 L295.897210 329.364751 L303.379061 306.184646 L271.506417 295.897101 L309.833861 276.274285 L298.243809 272.533359 L323.532445 248.702002 L316.288662 246.363923 Z" fill="#888" fill-opacity="0.18" stroke="#000" stroke-width="1"/>
  <path d="M204.638887 41.156400 L234.114939 67.572926 L227.245433 70.851476 L255.472546 91.116687 L244.481337 96.362368 L285.073560 110.726189 L254.847736 125.151809 L265.339096 147.134227 L248.852283 155.002747 L238.360923 133.020330 L208.135099 147.445951 L222.498920 106.853728 L211.507711 112.099408 L213.506422 77.408576 L206.636917 80.687126 Z" fill="#888" fill-opacity="0.18" stroke="#000" stroke-width="1"/>
  <path d="M840.417486 346.273950 L861.266349 312.628811 L865.696783 318.818338 L880.707937 287.479641 L887.796632 297.382884 L894.833005 254.903038 L914.326915 282.136958 L934.133403 267.959569 L944.766445 282.814434 L924.959958 296.991824 L944.453868 324.225744 L901.974022 317.189372 L909.062717 327.092616 L874.557652 331.197393 L878.988086 337.386920 Z" fill="#888" fill-opacity="0.18" stroke="#000" stroke-width="1"/>
  <path d="M462.705993 415.508513 L483.711269 449.056223 L476.202410 450.303630 L497.711531 477.594771 L485.697356 479.590624 L520.722425 504.636430 L487.683444 510.125024 L491.675149 534.153375 L473.653886 537.147153 L469.662181 513.118803 L436.623199 518.607397 L461.669006 483.582328 L449.654831 485.578181 L461.184691 452.798446 L453.675831 454.045854 Z" fill="#888" fill-opacity="0.18" stroke="#000" stroke-width="1"/>
  <path d="M560.822882 919.847885 L527.883339 941.794570 L526.423834 934.324039 L499.752618 956.597226 L497.417410 944.644376 L473.373302 980.364520 L466.951482 947.494181 L443.045781 952.164596 L439.542970 934.235320 L463.448671 929.564905 L457.026851 896.694566 L492.746996 920.738674 L490.411789 908.785824 L523.504825 919.382975 L522.045321 911.912444 Z" fill="#888" fill-opacity="0.18" stroke="#000" stroke-width="1"/>
  <path d="M998.850110 877.667989 L982.895580 913.891234 L977.645487 908.379835 L967.150096 941.505285 L958.749947 932.687047 L957.704723 975.733015 L934.604314 951.482859 L916.967837 968.283157 L904.367613 955.055799 L922.004090 938.255501 L898.903681 914.005346 L941.949649 915.050570 L933.549500 906.232331 L967.145301 897.357037 L961.895208 891.845638 Z" fill="#888" fill-opacity="0.18" stroke="#000" stroke-width="1"/>
  <path d="M412.709331 148.376053 L425.271553 185.910851 L417.679413 185.364588 L432.197072 216.934927 L420.049647 216.060907 L448.233159 248.614517 L414.827742 246.210963 L413.079703 270.505812 L394.858566 269.194782 L396.606605 244.899934 L363.201188 242.496379 L395.754799 214.312868 L383.607374 213.438848 L402.495132 184.272064 L394.902992 183.725802 Z" fill="#888" fill-opacity="0.18" stroke="#000" stroke-width="1"/>
  <path d="M311.704809 653.035747 L318.970019 614.127044 L325.339522 618.294589 L327.996796 583.647979 L338.188000 590.316051 L329.380169 548.167860 L357.405981 566.505058 L370.742125 546.122649 L386.028932 556.124757 L372.692788 576.507166 L400.718600 594.844364 L358.570409 603.652195 L368.761613 610.320267 L338.078527 626.629679 L344.448030 630.797224 Z" fill="#888" fill-opacity="0.18" stroke="#000" stroke-width="1"/>
  <path d="M42.548400 281.807145 L72.078821 308.162880 L65.216085 311.455577 L93.484894 331.662584 L82.504518 336.930900 L123.126251 351.211051 L92.930215 365.698921 L103.466848 387.659674 L86.996283 395.562149 L76.459650 373.601396 L46.263614 388.089266 L60.543764 347.467533 L49.563388 352.735850 L51.490614 318.040973 L44.627879 321.333671 Z" fill="#888" fill-opacity="0.18" stroke="#000" stroke-width="1"/>
  <path d="M145.802092 947.480603 L184.221632 937.961707 L183.069695 945.485804 L215.700345 933.540539 L213.857246 945.579095 L248.561383 920.090455 L243.492859 953.196482 L267.569970 956.882681 L264.805321 974.940514 L240.728210 971.254315 L235.659686 1004.360343 L210.171047 969.656205 L208.327947 981.694761 L180.765820 960.533999 L179.613883 968.058096 Z" fill="#888" fill-opacity="0.18" stroke="#000" stroke-width="1"/>
  <path d="M754.002882 646.679357 L778.971170 677.391815 L771.672487 679.552424 L796.372024 703.993814 L784.694132 707.450788 L822.531298 728.003083 L790.417095 737.509762 L797.331043 760.865546 L779.814205 766.051007 L772.900257 742.695223 L740.786054 752.201902 L761.338348 714.364737 L749.660456 717.821711 L757.075122 683.873642 L749.776440 686.034251 Z" fill="#888" fill-opacity="0.18" stroke="#000" stroke-width="1"/>
  <path d="M629.885026 858.478741 L667.407096 871.078930 L662.395075 876.807686 L696.336544 884.252507 L688.317310 893.418516 L731.280417 890.551576 L709.227525 915.758102 L727.559544 931.796569 L715.530694 945.545583 L697.198675 929.507116 L675.145783 954.713641 L672.278844 911.750534 L664.259610 920.916544 L652.371033 888.265197 L647.359012 893.993953 Z" fill="#888" fill-opacity="0.18" stroke="#000" stroke-width="1"/>
  <path d="M211.965304 267.055760 L183.711251 294.775409 L180.880400 287.709626 L158.845142 314.577750 L154.315781 303.272499 L137.376054 342.859031 L124.920311 311.769589 L102.309807 320.828311 L95.515766 303.870433 L118.126269 294.811711 L105.670526 263.722269 L145.257058 280.661995 L140.727697 269.356743 L175.218698 273.578061 L172.387848 266.512279 Z" fill="#888" fill-opacity="0.18" stroke="#000" stroke-width="1"/>
  <path d="M54.420119 122.989219 L80.758696 152.534943 L73.565773 155.025096 L99.350812 178.318452 L87.842136 182.302695 L126.574436 201.113777 L94.925576 212.070447 L102.894064 235.087800 L85.631049 241.064166 L77.662562 218.046813 L46.013701 229.003483 L64.824783 190.271183 L53.316107 194.255427 L59.179927 160.005400 L51.987005 162.495553 Z" fill="#888" fill-opacity="0.18" stroke="#000" stroke-width="1"/>
  <path d="M1045.385896 411.497804 L1042.331838 450.960992 L1035.552431 447.499976 L1036.623067 482.231841 L1025.776014 476.694217 L1039.049584 517.655909 L1009.220190 502.427442 L998.144941 524.121547 L981.874363 515.815110 L992.949611 494.121005 L963.120217 478.892538 L1004.081909 465.618968 L993.234857 460.081343 L1021.993615 440.577946 L1015.214207 437.116931 Z" fill="#888" fill-opacity="0.18" stroke="#000" stroke-width="1"/>
  <path d="M1004.826504 418.781739 L983.859579 385.210046 L991.369859 383.971221 L969.891939 356.655517 L981.908387 354.673396 L946.911963 329.587580 L979.957195 324.136745 L975.992952 300.103849 L994.017624 297.130667 L997.981868 321.163563 L1031.027100 315.712728 L1005.941284 350.709153 L1017.957732 348.727031 L1006.390420 381.493569 L1013.900700 380.254743 Z" fill="#888" fill-opacity="0.18" stroke="#000" stroke-width="1"/>
  <path d="M265.448296 738.540386 L304.891692 741.840233 L301.388509 748.597948 L336.126370 747.743707 L330.521278 758.556050 L371.564867 745.537922 L356.150863 775.271867 L377.775550 786.482051 L369.367911 802.700567 L347.743225 791.490382 L332.329221 821.224326 L319.311093 780.180737 L313.706000 790.993080 L294.382144 762.113377 L290.878961 768.871092 Z" fill="#888" fill-opacity="0.18" stroke="#000" stroke-width="1"/>
  <path d="M67.547657 910.660620 L97.805795 885.143654 L100.097406 892.402271 L124.090328 867.266870 L127.756906 878.880657 L147.624928 840.679747 L157.708017 872.617660 L180.935590 865.284505 L186.435456 882.705185 L163.207883 890.038340 L173.290971 921.976253 L135.090061 902.108230 L138.756638 913.722017 L104.680627 906.919504 L106.972238 914.178121 Z" fill="#888" fill-opacity="0.18" stroke="#000" stroke-width="1"/>
  <path d="M297.987961 740.155767 L326.407463 712.605770 L329.195961 719.688374 L351.391681 692.952654 L355.853278 704.284820 L373.029702 664.800414 L385.299092 695.963871 L407.963424 687.040678 L414.655819 704.038927 L391.991487 712.962120 L404.260877 744.125577 L364.776470 726.949153 L369.238067 738.281319 L334.772957 733.853581 L337.561454 740.936185 Z" fill="#888" fill-opacity="0.18" stroke="#000" stroke-width="1"/>
  <path d="M770.887643 48.659359 L805.647029 67.592281 L799.715195 72.362222 L831.844995 85.595689 L822.354060 93.227594 L865.161162 97.875167 L839.061091 118.862908 L854.324903 137.844778 L840.088501 149.292636 L824.824689 130.310767 L798.724618 151.298508 L803.372191 108.491406 L793.881256 116.123312 L787.851526 81.902105 L781.919692 86.672046 Z" fill="#888" fill-opacity="0.18" stroke="#000" stroke-width="1"/>
  <path d="M541.900663 367.219840 L505.432368 382.606001 L505.398456 374.994309 L475.026297 391.875678 L474.972037 379.696972 L444.660920 410.279386 L444.511707 376.787943 L420.154294 376.896462 L420.072906 358.628402 L444.430318 358.519884 L444.281105 325.028442 L474.863519 355.339559 L474.809260 343.160853 L505.330632 359.770926 L505.296720 352.159235 Z" fill="#888" fill-opacity="0.18" stroke="#000" stroke-width="1"/>
  <path d="M222.379522 886.071755 L245.007652 853.596562 L249.098801 860.015401 L265.773630 829.529360 L272.319469 839.799502 L281.630230 797.759550 L299.631285 826.002443 L320.171571 812.910766 L329.990328 828.315980 L309.450043 841.407657 L327.451098 869.650549 L285.411145 860.339788 L291.956983 870.609931 L257.281099 872.853080 L261.372248 879.271919 Z" fill="#888" fill-opacity="0.18" stroke="#000" stroke-width="1"/>
  <path d="M1019.532022 670.054300 L1033.929320 706.924183 L1026.319481 706.752854 L1042.375810 737.569132 L1030.200068 737.295005 L1059.954106 768.419676 L1026.470817 767.665828 L1025.922564 792.017311 L1007.658951 791.606122 L1008.207204 767.254638 L974.723915 766.500791 L1005.848585 736.746752 L993.672843 736.472626 L1011.099804 706.410196 L1003.489966 706.238867 Z" fill="#888" fill-opacity="0.18" stroke="#000" stroke-width="1"/>
  <path d="M621.399238 241.707505 L654.400021 263.561996 L648.079639 267.803667 L678.951162 283.753518 L668.838551 290.540191 L711.086761 298.855036 L683.277081 317.518387 L696.850427 337.743609 L681.681511 347.923618 L668.108164 327.698397 L640.298484 346.361748 L648.613329 304.113538 L638.500718 310.900211 L635.438875 276.287008 L629.118494 280.528679 Z" fill="#888" fill-opacity="0.18" stroke="#000" stroke-width="1"/>
  <path d="M343.196673 508.066588 L307.220454 524.570591 L306.951712 516.963569 L277.114858 534.773983 L276.684871 522.602749 L247.331753 554.105801 L246.149289 520.634907 L221.806821 521.494880 L221.161841 503.238029 L245.504309 502.378056 L244.321846 468.907161 L275.824898 498.260280 L275.394912 486.089046 L306.414229 501.749527 L306.145487 494.142505 Z" fill="#888" fill-opacity="0.18" stroke="#000" stroke-width="1"/>
  <path d="M512.471250 895.137032 L478.302700 875.157526 L484.376618 870.569877 L452.663403 856.367035 L462.381671 849.026797 L419.735405 843.081723 L446.460642 822.896067 L431.780166 803.459531 L446.357568 792.449174 L461.038044 811.885710 L487.763281 791.700054 L481.818207 834.346320 L491.536475 827.006082 L496.524452 861.394579 L502.598370 856.806930 Z" fill="#888" fill-opacity="0.18" stroke="#000" stroke-width="1"/>
  <path d="M327.723667 210.810210 L301.316828 240.294941 L298.036021 233.426513 L277.780086 261.660284 L272.530794 250.670800 L258.180313 291.267740 L243.744761 261.046658 L221.765792 271.545242 L213.891854 255.061015 L235.870823 244.562431 L221.435270 214.341350 L262.032211 228.691831 L256.782919 217.702346 L291.474406 219.689658 L288.193599 212.821230 Z" fill="#888" fill-opacity="0.18" stroke="#000" stroke-width="1"/>
  <path d="M824.089406 547.734581 L823.751815 587.314330 L816.750794 584.326906 L820.203346 618.903323 L809.001712 614.123445 L825.056102 654.077224 L794.251609 640.932560 L784.691853 663.335827 L767.889403 656.166011 L777.449158 633.762743 L746.644666 620.618079 L786.598444 604.563689 L775.396811 599.783811 L802.748752 578.352059 L795.747730 575.364635 Z" fill="#888" fill-opacity="0.18" stroke="#000" stroke-width="1"/>
  <path d="M667.805630 683.203467 L694.437333 712.485251 L687.269583 715.046959 L713.285468 738.082201 L701.817068 742.180935 L740.734904 760.605102 L709.196803 771.876620 L717.394271 794.813421 L700.191670 800.961522 L691.994202 778.024721 L660.456101 789.296240 L678.880267 750.378403 L667.411866 754.477138 L672.934082 720.170377 L665.766332 722.732086 Z" fill="#888" fill-opacity="0.18" stroke="#000" stroke-width="1"/>
  <path d="M562.735009 913.738355 L539.240467 881.884361 L546.632784 880.069797 L523.111430 854.492569 L534.939138 851.589267 L498.111612 829.278254 L530.637808 821.294172 L524.831203 797.638757 L542.572764 793.283803 L548.379369 816.939218 L580.905565 808.955136 L558.594553 845.782662 L570.422260 842.879359 L561.417419 876.440669 L568.809736 874.626105 Z" fill="#888" fill-opacity="0.18" stroke="#000" stroke-width="1"/>
  <path d="M672.200748 100.897304 L709.616511 113.809744 L704.556924 119.496533 L738.435173 127.223946 L730.339833 136.322809 L773.325340 133.814001 L751.063156 158.835874 L769.260881 175.026553 L757.117872 188.674848 L738.920146 172.484168 L716.657962 197.506041 L714.149154 154.520535 L706.053814 163.619398 L694.437749 130.870112 L689.378162 136.556901 Z" fill="#888" fill-opacity="0.18" stroke="#000" stroke-width="1"/>
  <path d="M101.279256 645.354064 L104.339358 605.891344 L111.118236 609.353398 L110.052920 574.621370 L120.899124 580.160655 L107.631828 539.196931 L137.458889 554.429966 L148.537461 532.737558 L164.806767 541.046487 L153.728196 562.738895 L183.555257 577.971931 L142.591532 591.239227 L153.437736 596.778513 L124.675991 616.277505 L131.454869 619.739559 Z" fill="#888" fill-opacity="0.18" stroke="#000" stroke-width="1"/>
  <path d="M200.488104 82.222963 L191.974751 120.877759 L185.742638 116.507430 L181.971971 151.050603 L172.000591 144.058077 L179.447725 186.467841 L152.026431 167.238394 L138.041379 187.181154 L123.084310 176.692365 L137.069362 156.749605 L109.648068 137.520159 L152.057832 130.073025 L142.086452 123.080499 L173.278414 107.766773 L167.046302 103.396444 Z" fill="#888" fill-opacity="0.18" stroke="#000" stroke-width="1"/>
  <path d="M639.326364 232.199843 L674.229286 213.532853 L674.961376 221.109333 L703.656696 201.512719 L704.828040 213.635086 L732.205599 180.400809 L735.426793 213.737319 L759.671528 211.394632 L761.428543 229.578183 L737.183809 231.920870 L740.405003 265.257379 L707.170727 237.879820 L708.342070 250.002187 L676.425555 236.262291 L677.157645 243.838771 Z" fill="#888" fill-opacity="0.18" stroke="#000" stroke-width="1"/>
  <path d="M878.570083 598.370248 L889.393875 636.442758 L881.834865 635.548127 L894.886164 667.752354 L882.791748 666.320945 L909.449265 700.135508 L876.189621 696.199133 L873.326803 720.387965 L855.185179 718.240851 L858.047997 694.052019 L824.788353 690.115644 L858.602916 663.458127 L846.508500 662.026718 L866.716845 633.758865 L859.157835 632.864235 Z" fill="#888" fill-opacity="0.18" stroke="#000" stroke-width="1"/>
  <path d="M612.541773 420.735461 L578.934137 441.644724 L577.708205 434.132328 L550.355672 455.563325 L548.394182 443.543492 L523.248325 478.496800 L517.854226 445.442260 L493.814560 449.365241 L490.872325 431.335491 L514.911991 427.412510 L509.517892 394.357969 L544.471201 419.503826 L542.509710 407.483993 L575.256342 419.107537 L574.030410 411.595141 Z" fill="#888" fill-opacity="0.18" stroke="#000" stroke-width="1"/>
  <path d="M939.282242 228.423196 L978.636291 232.657493 L974.973838 239.330231 L1009.722187 239.300018 L1003.862263 249.976399 L1045.203027 237.935257 L1029.088235 267.295306 L1050.440997 279.015155 L1041.651111 295.029726 L1020.298348 283.309878 L1004.183556 312.669926 L992.142414 271.329162 L986.282490 282.005543 L967.648933 252.675708 L963.986480 259.348446 Z" fill="#888" fill-opacity="0.18" stroke="#000" stroke-width="1"/>
  <path d="M581.950121 614.064866 L578.942138 653.531593 L572.158694 650.078495 L573.269878 684.809086 L562.416368 679.284129 L575.737751 720.230296 L545.890598 705.036664 L534.840684 726.743685 L518.560419 718.456249 L529.610333 696.749229 L499.763180 681.555597 L540.709348 668.234215 L529.855838 662.709258 L558.591807 643.172298 L551.808363 639.719200 Z" fill="#888" fill-opacity="0.18" stroke="#000" stroke-width="1"/>
  <path d="M710.056867 391.156647 L712.054665 351.625909 L718.924190 354.904419 L716.925276 320.213599 L727.916515 325.459215 L713.552457 284.867076 L743.778365 299.292520 L754.269597 277.310041 L770.756456 285.178465 L760.265224 307.160944 L790.491133 321.586388 L749.898994 335.950447 L760.890233 341.196063 L732.663239 361.461439 L739.532764 364.739949 Z" fill="#888" fill-opacity="0.18" stroke="#000" stroke-width="1"/>
  <path d="M183.021941 831.799277 L172.655893 793.599598 L180.203621 794.584891 L167.539792 762.226335 L179.616156 763.802804 L153.366418 729.670721 L186.576420 734.006010 L189.729358 709.853281 L207.843904 712.217985 L204.690966 736.370714 L237.900968 740.706003 L203.768885 766.955742 L215.845249 768.532211 L195.299076 796.555477 L202.846804 797.540770 Z" fill="#888" fill-opacity="0.18" stroke="#000" stroke-width="1"/>
  <path d="M462.495108 156.823382 L478.627600 120.679044 L483.850523 126.216198 L494.508707 93.142767 L502.865384 102.002213 L504.122306 58.961906 L527.103168 83.325382 L544.822059 66.612029 L557.357075 79.901197 L539.638183 96.614551 L562.619044 120.978027 L519.578737 119.721105 L527.935414 128.580551 L494.296369 137.290505 L499.519292 142.827659 Z" fill="#888" fill-opacity="0.18" stroke="#000" stroke-width="1"/>
  <path d="M1009.560605 867.987836 L971.878402 855.874947 L976.815765 850.081722 L942.780669 843.077369 L950.680449 833.808209 L907.758102 837.231660 L929.482495 811.741471 L910.944176 795.941912 L922.793845 782.038173 L941.332164 797.837732 L963.056557 772.347543 L966.480007 815.269890 L974.379786 806.000731 L986.690489 838.495273 L991.627851 832.702048 Z" fill="#888" fill-opacity="0.18" stroke="#000" stroke-width="1"/>
  <path d="M154.198946 723.874349 L115.300932 716.552124 L119.477807 710.188736 L84.835129 707.480688 L91.518130 697.299267 L49.357076 706.045318 L67.735327 678.046410 L47.372485 664.680409 L57.396986 649.408278 L77.759828 662.774279 L96.138079 634.775371 L104.884131 676.936425 L111.567131 666.755004 L127.831558 697.461959 L132.008433 691.098571 Z" fill="#888" fill-opacity="0.18" stroke="#000" stroke-width="1"/>
  <path d="M688.260330 178.383367 L656.029754 155.408153 L662.492113 151.386100 L632.186709 134.385183 L642.526482 127.949897 L600.588832 118.188678 L629.023211 100.491641 L616.152638 79.812094 L631.662299 70.159164 L644.532871 90.838712 L672.967249 73.141675 L663.206030 115.079325 L673.545804 108.644039 L675.416830 143.341992 L681.879189 139.319938 Z" fill="#888" fill-opacity="0.18" stroke="#000" stroke-width="1"/>
  <path d="M796.080542 847.272887 L759.004893 861.131699 L759.287030 853.525163 L728.240182 869.130992 L728.691602 856.960534 L697.136907 886.258129 L698.378312 852.789369 L674.037396 851.886529 L674.714526 833.630842 L699.055442 834.533682 L700.296848 801.064922 L729.594443 832.619618 L730.045863 820.449160 L759.851305 838.312090 L760.133443 830.705554 Z" fill="#888" fill-opacity="0.18" stroke="#000" stroke-width="1"/>
  <path d="M795.307167 870.342968 L799.708271 831.007224 L806.365422 834.697933 L806.482528 799.949768 L817.133969 805.854904 L805.268203 764.463462 L834.559668 780.702583 L846.369938 759.399700 L862.347101 768.257403 L850.536830 789.560286 L879.828295 805.799408 L838.436853 817.665174 L849.088294 823.570309 L819.679724 842.079352 L826.336875 845.770062 Z" fill="#888" fill-opacity="0.18" stroke="#000" stroke-width="1"/>
  <path d="M926.794906 68.954364 L965.610225 76.703008 L961.363771 83.020177 L995.974646 86.108224 L989.180318 96.215694 L1031.434811 87.932837 L1012.750411 115.728379 L1032.965351 129.317034 L1022.773861 144.478238 L1002.558921 130.889584 L983.874521 158.685127 L975.591664 116.430634 L968.797337 126.538104 L952.870862 95.654514 L948.624407 101.971683 Z" fill="#888" fill-opacity="0.18" stroke="#000" stroke-width="1"/>
  <path d="M707.352519 633.557237 L701.196392 594.457716 L708.592470 596.256889 L699.517789 562.714396 L711.351514 565.593072 L688.963892 528.812068 L721.506636 536.728428 L727.263989 513.060977 L745.014577 517.378992 L739.257224 541.046443 L771.799969 548.962802 L735.018965 571.350425 L746.852690 574.229101 L723.384627 599.855234 L730.780705 601.654407 Z" fill="#888" fill-opacity="0.18" stroke="#000" stroke-width="1"/>
  <path d="M1025.758836 211.625632 L986.436887 216.148324 L988.542470 208.833578 L954.651201 216.503685 L958.020135 204.800091 L920.338815 225.636742 L929.603383 193.451858 L906.196194 186.713991 L911.249595 169.158599 L934.656783 175.896467 L943.921351 143.711583 L964.758002 181.392903 L968.126936 169.689309 L992.753637 194.204085 L994.859221 186.889338 Z" fill="#888" fill-opacity="0.18" stroke="#000" stroke-width="1"/>
  <path d="M656.096530 362.460409 L658.207202 401.985281 L651.034838 399.436519 L656.618993 433.733252 L645.143210 429.655234 L663.637620 468.539738 L632.079217 457.325186 L623.923180 480.276752 L606.709505 474.159724 L614.865543 451.208158 L583.307140 439.993607 L622.191644 421.499196 L610.715861 417.421177 L636.690109 394.338996 L629.517745 391.790234 Z" fill="#888" fill-opacity="0.18" stroke="#000" stroke-width="1"/>
  <path d="M301.444532 463.092082 L305.830359 423.754632 L312.488943 427.442756 L312.592554 392.694548 L323.246288 398.595547 L311.364448 357.208716 L340.662217 373.436461 L352.464214 352.128993 L368.444815 360.980490 L356.642818 382.287958 L385.940587 398.515703 L344.553756 410.397543 L355.207490 416.298541 L325.806110 434.819004 L332.464694 438.507128 Z" fill="#888" fill-opacity="0.18" stroke="#000" stroke-width="1"/>
  <path d="M763.287757 916.900252 L760.204591 956.361177 L753.427738 952.895162 L754.472754 987.627807 L743.629790 982.082183 L756.873141 1023.053655 L727.054988 1007.803189 L715.963740 1029.489118 L699.699293 1021.170682 L710.790541 999.484753 L680.972388 984.234286 L721.943860 970.990935 L711.100895 965.445311 L739.874032 945.963132 L733.097179 942.497117 Z" fill="#888" fill-opacity="0.18" stroke="#000" stroke-width="1"/>
  <path d="M387.567254 811.348003 L409.647782 844.197976 L402.183250 845.687865 L424.564774 872.268235 L412.621524 874.652057 L448.439203 898.550628 L415.595265 905.106138 L420.362909 928.992638 L402.448034 932.568371 L397.680390 908.681870 L364.836452 915.237380 L388.735023 879.419700 L376.791773 881.803522 L387.254188 848.667642 L379.789656 850.157530 Z" fill="#888" fill-opacity="0.18" stroke="#000" stroke-width="1"/>
  <path d="M669.307443 1033.369852 L640.378950 1006.354806 L647.314202 1003.217725 L619.508323 982.378296 L630.604726 977.358966 L590.315394 962.166283 L620.830502 948.363126 L610.791843 926.170320 L627.436447 918.641325 L637.475107 940.834131 L667.990215 927.030974 L652.797532 967.320306 L663.893935 962.300976 L661.184706 996.943562 L668.119958 993.806481 Z" fill="#888" fill-opacity="0.18" stroke="#000" stroke-width="1"/>
  <path d="M367.064238 48.523852 L406.592656 46.480663 L404.031653 53.648666 L438.337870 48.123074 L434.240265 59.591878 L473.156288 41.163882 L461.887873 72.703092 L484.825480 80.898303 L478.679072 98.101509 L455.741465 89.906298 L444.473050 121.445509 L426.045054 82.529485 L421.947448 93.998289 L398.909646 67.984671 L396.348643 75.152673 Z" fill="#888" fill-opacity="0.18" stroke="#000" stroke-width="1"/>
  <path d="M312.311276 555.725634 L283.055129 582.385497 L280.486525 575.220215 L257.476324 601.258252 L253.366558 589.793800 L234.979845 628.729345 L223.677987 597.202103 L200.749084 605.421636 L194.584434 588.224959 L217.513338 580.005426 L206.211480 548.478184 L245.147025 566.864897 L241.037259 555.400445 L275.349317 560.889651 L272.780713 553.724368 Z" fill="#888" fill-opacity="0.18" stroke="#000" stroke-width="1"/>
  <path d="M371.093114 897.260978 L352.148563 932.014028 L347.380607 926.080598 L334.136391 958.205968 L326.507661 948.712481 L321.845766 991.518025 L300.866759 965.410933 L281.879783 980.668393 L270.436688 966.428161 L289.423664 951.170702 L268.444657 925.063610 L311.250201 929.725505 L303.621471 920.232017 L337.844694 914.213738 L333.076738 908.280308 Z" fill="#888" fill-opacity="0.18" stroke="#000" stroke-width="1"/>
  <path d="M791.819241 926.984793 L810.029094 962.128380 L802.443705 962.761521 L821.664123 991.710168 L809.527501 992.723193 L842.401620 1020.532188 L809.025908 1023.318006 L811.051958 1047.591252 L792.847023 1049.110789 L790.820973 1024.837544 L757.445261 1027.623363 L785.254255 994.749243 L773.117633 995.762268 L787.272926 964.027802 L779.687537 964.660943 Z" fill="#888" fill-opacity="0.18" stroke="#000" stroke-width="1"/>
  <path d="M849.072894 971.403603 L832.538600 935.441295 L840.145393 935.166147 L822.309859 905.344302 L834.480727 904.904066 L802.952967 875.577487 L836.422853 874.366838 L835.542381 850.025102 L853.798682 849.364748 L854.679155 873.706483 L888.149041 872.495834 L858.822462 904.023594 L870.993330 903.583357 L855.358978 934.615852 L862.965770 934.340704 Z" fill="#888" fill-opacity="0.18" stroke="#000" stroke-width="1"/>
  <path d="M754.250392 446.110566 L786.566534 423.255863 L788.233334 430.682893 L814.274493 407.676225 L816.941373 419.559473 L839.982291 383.184151 L847.316213 415.863082 L871.082709 410.529320 L875.083030 428.354192 L851.316534 433.687954 L858.650457 466.366885 L822.275135 443.325968 L824.942016 455.209216 L791.566936 445.536953 L793.233736 452.963983 Z" fill="#888" fill-opacity="0.18" stroke="#000" stroke-width="1"/>
  <path d="M413.952700 774.571698 L446.240555 751.677050 L447.916539 759.102013 L473.929227 736.063160 L476.610801 747.943101 L499.606718 711.539314 L506.981046 744.209151 L530.740927 738.846004 L534.763288 756.665915 L511.003407 762.029063 L518.377735 794.698900 L481.973948 771.702982 L484.655522 783.582923 L451.268506 773.951939 L452.944490 781.376902 Z" fill="#888" fill-opacity="0.18" stroke="#000" stroke-width="1"/>
  <path d="M70.938232 981.929397 L110.514673 981.316429 L107.696233 988.387170 L142.179769 984.105301 L137.670264 995.418488 L177.226994 978.409284 L164.825855 1009.520548 L187.452228 1018.539558 L180.687970 1035.509338 L158.061597 1026.490328 L145.660458 1057.601591 L128.651254 1018.044862 L124.141749 1029.358048 L102.059351 1002.528654 L99.240911 1009.599395 Z" fill="#888" fill-opacity="0.18" stroke="#000" stroke-width="1"/>
  <path d="M248.590405 754.544686 L245.318381 715.098973 L252.562592 717.435722 L245.972325 683.318028 L257.563064 687.056827 L237.933217 648.732983 L269.807747 659.014682 L277.285345 635.833205 L294.671452 641.441404 L287.193854 664.622881 L319.068384 674.904579 L280.744540 694.534426 L292.335278 698.273225 L267.051015 722.109221 L274.295226 724.445971 Z" fill="#888" fill-opacity="0.18" stroke="#000" stroke-width="1"/>
  <path d="M609.921979 187.174948 L610.066571 226.755872 L603.029677 223.853956 L606.903180 258.385748 L595.644150 253.742683 L612.184063 293.497924 L581.221728 280.729494 L571.935598 303.247555 L555.047051 296.282957 L564.333182 273.764895 L533.370848 260.996466 L573.126088 244.456552 L561.867057 239.813487 L588.955888 218.050125 L581.918994 215.148209 Z" fill="#888" fill-opacity="0.18" stroke="#000" stroke-width="1"/>
  <path d="M564.087733 340.805021 L525.585549 331.626115 L530.062736 325.470321 L495.589750 321.104324 L502.753248 311.255053 L460.221327 317.969485 L479.920946 290.883991 L460.222405 276.556995 L470.967652 261.783089 L490.666193 276.110085 L510.365812 249.024591 L517.080243 291.556512 L524.243741 281.707242 L539.017108 313.158733 L543.494294 307.002939 Z" fill="#888" fill-opacity="0.18" stroke="#000" stroke-width="1"/>
  <path d="M513.261560 192.458957 L539.759080 163.055694 L543.018718 169.934193 L563.361511 141.762941 L568.576933 152.768540 L583.052377 112.215989 L597.394786 142.481386 L619.405984 132.050543 L627.229116 148.558942 L605.217918 158.989785 L619.560327 189.255182 L579.007776 174.779738 L584.223197 185.785337 L549.537995 183.691192 L552.797634 190.569692 Z" fill="#888" fill-opacity="0.18" stroke="#000" stroke-width="1"/>
  <path d="M657.770165 375.750445 L691.644293 396.225159 L685.504246 400.723916 L717.007378 415.386840 L707.183302 422.584851 L749.738519 429.150014 L722.722311 448.944544 L737.118333 468.592696 L722.382219 479.389712 L707.986197 459.741561 L680.969988 479.536091 L687.535150 436.980874 L677.711074 444.178885 L673.224151 409.721430 L667.084104 414.220187 Z" fill="#888" fill-opacity="0.18" stroke="#000" stroke-width="1"/>
  <path d="M211.517276 475.141984 L172.358043 480.906089 L174.231222 473.528407 L140.599499 482.266592 L143.596585 470.462300 L106.593140 492.480314 L114.835127 460.018511 L91.226544 454.024339 L95.722173 436.317901 L119.330757 442.312074 L127.572744 409.850271 L149.590758 446.853717 L152.587844 435.049425 L177.977580 458.773042 L179.850759 451.395360 Z" fill="#888" fill-opacity="0.18" stroke="#000" stroke-width="1"/>
  <path d="M843.116970 360.560396 L882.657431 362.355490 L879.414185 369.241733 L914.094301 367.064982 L908.905107 378.082972 L949.423066 363.510981 L935.152783 393.810453 L957.188763 404.188841 L949.404972 420.715825 L927.368993 410.337438 L913.098710 440.636910 L898.526720 400.118951 L893.337526 411.136941 L872.927693 383.014221 L869.684447 389.900464 Z" fill="#888" fill-opacity="0.18" stroke="#000" stroke-width="1"/>
  <path d="M586.453476 600.809076 L593.424347 561.846563 L599.825172 565.965838 L602.220458 531.300130 L612.461779 537.890971 L603.335578 495.810568 L631.499210 513.935379 L644.680891 493.452738 L660.042873 503.338999 L646.861191 523.821640 L675.024823 541.946452 L632.944420 551.072652 L643.185741 557.663493 L612.626823 574.204389 L619.027649 578.323664 Z" fill="#888" fill-opacity="0.18" stroke="#000" stroke-width="1"/>
  <path d="M533.993143 395.583929 L553.335693 361.050812 L558.035171 367.038625 L571.647575 335.067527 L579.166738 344.648028 L584.320083 301.898865 L604.997783 328.245245 L624.158786 313.206918 L635.437532 327.577670 L616.276528 342.615997 L636.954228 368.962377 L594.205065 363.809031 L601.724229 373.389533 L567.434125 379.014252 L572.133602 385.002066 Z" fill="#888" fill-opacity="0.18" stroke="#000" stroke-width="1"/>
  <path d="M608.941552 1048.879672 L569.360677 1048.722224 L572.316206 1041.707679 L537.755861 1045.317563 L542.484707 1034.094290 L502.604411 1050.330356 L515.608738 1019.466357 L493.162193 1010.008664 L500.255462 993.173755 L522.702007 1002.631448 L535.706334 971.767449 L551.942400 1011.647745 L556.671246 1000.424473 L578.227263 1027.678588 L581.182792 1020.664043 Z" fill="#888" fill-opacity="0.18" stroke="#000" stroke-width="1"/>
  <path d="M103.977724 874.487019 L97.394713 835.457102 L104.810010 837.175348 L95.369344 803.734019 L107.233818 806.483214 L84.445618 769.949041 L117.072923 777.509325 L122.571312 753.780376 L140.368024 757.904168 L134.869635 781.633117 L167.496941 789.193402 L130.962768 811.981603 L142.827243 814.730797 L119.640604 840.611841 L127.055900 842.330088 Z" fill="#888" fill-opacity="0.18" stroke="#000" stroke-width="1"/>
</svg>
