<svg xmlns="http://www.w3.org/2000/svg" width="1420" height="2400" viewBox="0 0 1420 2400">
<rect x="0" y="0" width="1420" height="2400" fill="white" />
<text x="40" y="30" font-family="monospace" font-size="16">Warm starts (raw) (n=5)</text>
<g transform="translate(40.000 520.000) scale(82.870834043 -82.870834043) translate(2.040320872 2.403996069)">
<path d="M 0.000000000 0.800000000 0.125000000 0.500000000 0.062500000 0.500000000 0.200000000 0.250000000 0.100000000 0.250000000 0.350000000 0.000000000 0.075000000 0.000000000 0.075000000 -0.200000000 -0.075000000 -0.200000000 -0.075000000 0.000000000 -0.350000000 0.000000000 -0.100000000 0.250000000 -0.200000000 0.250000000 -0.062500000 0.500000000 -0.125000000 0.500000000 Z" fill="none" stroke="#222" stroke-width="0.01" />
<path d="M 0.000000000 0.800000000 0.125000000 0.500000000 0.062500000 0.500000000 0.200000000 0.250000000 0.100000000 0.250000000 0.350000000 0.000000000 0.075000000 0.000000000 0.075000000 -0.200000000 -0.075000000 -0.200000000 -0.075000000 0.000000000 -0.350000000 0.000000000 -0.100000000 0.250000000 -0.200000000 0.250000000 -0.062500000 0.500000000 -0.125000000 0.500000000 Z" fill="none" stroke="#222" stroke-width="0.01" />
<path d="M 0.000000000 0.800000000 0.125000000 0.500000000 0.062500000 0.500000000 0.200000000 0.250000000 0.100000000 0.250000000 0.350000000 0.000000000 0.075000000 0.000000000 0.075000000 -0.200000000 -0.075000000 -0.200000000 -0.075000000 0.000000000 -0.350000000 0.000000000 -0.100000000 0.250000000 -0.200000000 0.250000000 -0.062500000 0.500000000 -0.125000000 0.500000000 Z" fill="none" stroke="#222" stroke-width="0.01" />
<path d="M 0.000000000 0.800000000 0.125000000 0.500000000 0.062500000 0.500000000 0.200000000 0.250000000 0.100000000 0.250000000 0.350000000 0.000000000 0.075000000 0.000000000 0.075000000 -0.200000000 -0.075000000 -0.200000000 -0.075000000 0.000000000 -0.350000000 0.000000000 -0.100000000 0.250000000 -0.200000000 0.250000000 -0.062500000 0.500000000 -0.125000000 0.500000000 Z" fill="none" stroke="#222" stroke-width="0.01" />
<path d="M 0.000000000 0.800000000 0.125000000 0.500000000 0.062500000 0.500000000 0.200000000 0.250000000 0.100000000 0.250000000 0.350000000 0.000000000 0.075000000 0.000000000 0.075000000 -0.200000000 -0.075000000 -0.200000000 -0.075000000 0.000000000 -0.350000000 0.000000000 -0.100000000 0.250000000 -0.200000000 0.250000000 -0.062500000 0.500000000 -0.125000000 0.500000000 Z" fill="none" stroke="#222" stroke-width="0.01" />
<rect x="-0.500000000" y="-0.200000000" width="1.000000000" height="1.000000000" fill="none" stroke="#000" stroke-width="0.01" />
</g>
<text x="40" y="92" font-family="monospace" font-size="12">centered</text>
<g transform="translate(500.000 520.000) scale(82.870834043 -82.870834043) translate(2.040320872 2.403996069)">
<path d="M -0.720000000 0.290000000 -0.595000000 -0.010000000 -0.657500000 -0.010000000 -0.520000000 -0.260000000 -0.620000000 -0.260000000 -0.370000000 -0.510000000 -0.645000000 -0.510000000 -0.645000000 -0.710000000 -0.795000000 -0.710000000 -0.795000000 -0.510000000 -1.070000000 -0.510000000 -0.820000000 -0.260000000 -0.920000000 -0.260000000 -0.782500000 -0.010000000 -0.845000000 -0.010000000 Z" fill="none" stroke="#222" stroke-width="0.01" />
<path d="M 0.000000000 0.290000000 0.125000000 -0.010000000 0.062500000 -0.010000000 0.200000000 -0.260000000 0.100000000 -0.260000000 0.350000000 -0.510000000 0.075000000 -0.510000000 0.075000000 -0.710000000 -0.075000000 -0.710000000 -0.075000000 -0.510000000 -0.350000000 -0.510000000 -0.100000000 -0.260000000 -0.200000000 -0.260000000 -0.062500000 -0.010000000 -0.125000000 -0.010000000 Z" fill="none" stroke="#222" stroke-width="0.01" />
<path d="M 0.720000000 0.290000000 0.845000000 -0.010000000 0.782500000 -0.010000000 0.920000000 -0.260000000 0.820000000 -0.260000000 1.070000000 -0.510000000 0.795000000 -0.510000000 0.795000000 -0.710000000 0.645000000 -0.710000000 0.645000000 -0.510000000 0.370000000 -0.510000000 0.620000000 -0.260000000 0.520000000 -0.260000000 0.657500000 -0.010000000 0.595000000 -0.010000000 Z" fill="none" stroke="#222" stroke-width="0.01" />
<path d="M -0.720000000 1.310000000 -0.595000000 1.010000000 -0.657500000 1.010000000 -0.520000000 0.760000000 -0.620000000 0.760000000 -0.370000000 0.510000000 -0.645000000 0.510000000 -0.645000000 0.310000000 -0.795000000 0.310000000 -0.795000000 0.510000000 -1.070000000 0.510000000 -0.820000000 0.760000000 -0.920000000 0.760000000 -0.782500000 1.010000000 -0.845000000 1.010000000 Z" fill="none" stroke="#222" stroke-width="0.01" />
<path d="M 0.000000000 1.310000000 0.125000000 1.010000000 0.062500000 1.010000000 0.200000000 0.760000000 0.100000000 0.760000000 0.350000000 0.510000000 0.075000000 0.510000000 0.075000000 0.310000000 -0.075000000 0.310000000 -0.075000000 0.510000000 -0.350000000 0.510000000 -0.100000000 0.760000000 -0.200000000 0.760000000 -0.062500000 1.010000000 -0.125000000 1.010000000 Z" fill="none" stroke="#222" stroke-width="0.01" />
<rect x="-1.070000000" y="-0.770000000" width="2.140000000" height="2.140000000" fill="none" stroke="#000" stroke-width="0.01" />
</g>
<text x="500" y="92" font-family="monospace" font-size="12">grid</text>
<g transform="translate(960.000 520.000) scale(82.870834043 -82.870834043) translate(2.040320872 2.403996069)">
<path d="M -0.720000000 0.290000000 -0.595000000 -0.010000000 -0.657500000 -0.010000000 -0.520000000 -0.260000000 -0.620000000 -0.260000000 -0.370000000 -0.510000000 -0.645000000 -0.510000000 -0.645000000 -0.710000000 -0.795000000 -0.710000000 -0.795000000 -0.510000000 -1.070000000 -0.510000000 -0.820000000 -0.260000000 -0.920000000 -0.260000000 -0.782500000 -0.010000000 -0.845000000 -0.010000000 Z" fill="none" stroke="#222" stroke-width="0.01" />
<path d="M -0.000000000 -1.310000000 -0.125000000 -1.010000000 -0.062500000 -1.010000000 -0.200000000 -0.760000000 -0.100000000 -0.760000000 -0.350000000 -0.510000000 -0.075000000 -0.510000000 -0.075000000 -0.310000000 0.075000000 -0.310000000 0.075000000 -0.510000000 0.350000000 -0.510000000 0.100000000 -0.760000000 0.200000000 -0.760000000 0.062500000 -1.010000000 0.125000000 -1.010000000 Z" fill="none" stroke="#222" stroke-width="0.01" />
<path d="M 0.720000000 0.290000000 0.845000000 -0.010000000 0.782500000 -0.010000000 0.920000000 -0.260000000 0.820000000 -0.260000000 1.070000000 -0.510000000 0.795000000 -0.510000000 0.795000000 -0.710000000 0.645000000 -0.710000000 0.645000000 -0.510000000 0.370000000 -0.510000000 0.620000000 -0.260000000 0.520000000 -0.260000000 0.657500000 -0.010000000 0.595000000 -0.010000000 Z" fill="none" stroke="#222" stroke-width="0.01" />
<path d="M -0.720000000 -0.290000000 -0.845000000 0.010000000 -0.782500000 0.010000000 -0.920000000 0.260000000 -0.820000000 0.260000000 -1.070000000 0.510000000 -0.795000000 0.510000000 -0.795000000 0.710000000 -0.645000000 0.710000000 -0.645000000 0.510000000 -0.370000000 0.510000000 -0.620000000 0.260000000 -0.520000000 0.260000000 -0.657500000 0.010000000 -0.595000000 0.010000000 Z" fill="none" stroke="#222" stroke-width="0.01" />
<path d="M 0.000000000 1.310000000 0.125000000 1.010000000 0.062500000 1.010000000 0.200000000 0.760000000 0.100000000 0.760000000 0.350000000 0.510000000 0.075000000 0.510000000 0.075000000 0.310000000 -0.075000000 0.310000000 -0.075000000 0.510000000 -0.350000000 0.510000000 -0.100000000 0.760000000 -0.200000000 0.760000000 -0.062500000 1.010000000 -0.125000000 1.010000000 Z" fill="none" stroke="#222" stroke-width="0.01" />
<rect x="-1.310000000" y="-1.310000000" width="2.620000000" height="2.620000000" fill="none" stroke="#000" stroke-width="0.01" />
</g>
<text x="960" y="92" font-family="monospace" font-size="12">grid_alt180</text>
<g transform="translate(40.000 980.000) scale(82.870834043 -82.870834043) translate(2.040320872 2.403996069)">
<path d="M -0.254314575 0.005685425 -0.378058262 -0.294834957 -0.422252436 -0.250640783 -0.501801948 -0.524644661 -0.572512627 -0.453933983 -0.572512627 -0.807487373 -0.766966991 -0.613033009 -0.908388348 -0.754454365 -1.014454365 -0.648388348 -0.873033009 -0.506966991 -1.067487373 -0.312512627 -0.713933983 -0.312512627 -0.784644661 -0.241801948 -0.510640783 -0.162252436 -0.554834957 -0.118058262 Z" fill="none" stroke="#222" stroke-width="0.01" />
<path d="M -0.565685425 0.005685425 -0.265165043 -0.118058262 -0.309359217 -0.162252436 -0.035355339 -0.241801948 -0.106066017 -0.312512627 0.247487373 -0.312512627 0.053033009 -0.506966991 0.194454365 -0.648388348 0.088388348 -0.754454365 -0.053033009 -0.613033009 -0.247487373 -0.807487373 -0.247487373 -0.453933983 -0.318198052 -0.524644661 -0.397747564 -0.250640783 -0.441941738 -0.294834957 Z" fill="none" stroke="#222" stroke-width="0.01" />
<path d="M 1.385685425 0.005685425 1.261941738 -0.294834957 1.217747564 -0.250640783 1.138198052 -0.524644661 1.067487373 -0.453933983 1.067487373 -0.807487373 0.873033009 -0.613033009 0.731611652 -0.754454365 0.625545635 -0.648388348 0.766966991 -0.506966991 0.572512627 -0.312512627 0.926066017 -0.312512627 0.855355339 -0.241801948 1.129359217 -0.162252436 1.085165043 -0.118058262 Z" fill="none" stroke="#222" stroke-width="0.01" />
<path d="M -1.385685425 1.125685425 -1.085165043 1.001941738 -1.129359217 0.957747564 -0.855355339 0.878198052 -0.926066017 0.807487373 -0.572512627 0.807487373 -0.766966991 0.613033009 -0.625545635 0.471611652 -0.731611652 0.365545635 -0.873033009 0.506966991 -1.067487373 0.312512627 -1.067487373 0.666066017 -1.138198052 0.595355339 -1.217747564 0.869359217 -1.261941738 0.825165043 Z" fill="none" stroke="#222" stroke-width="0.01" />
<path d="M 0.565685425 1.125685425 0.441941738 0.825165043 0.397747564 0.869359217 0.318198052 0.595355339 0.247487373 0.666066017 0.247487373 0.312512627 0.053033009 0.506966991 -0.088388348 0.365545635 -0.194454365 0.471611652 -0.053033009 0.613033009 -0.247487373 0.807487373 0.106066017 0.807487373 0.035355339 0.878198052 0.309359217 0.957747564 0.265165043 1.001941738 Z" fill="none" stroke="#222" stroke-width="0.01" />
<rect x="-1.385685425" y="-1.226586399" width="2.771370850" height="2.771370850" fill="none" stroke="#000" stroke-width="0.01" />
</g>
<text x="40" y="552" font-family="monospace" font-size="12">grid_alt45</text>
<g transform="translate(500.000 980.000) scale(82.870834043 -82.870834043) translate(2.040320872 2.403996069)">
<path d="M -1.385685425 0.005685425 -1.085165043 -0.118058262 -1.129359217 -0.162252436 -0.855355339 -0.241801948 -0.926066017 -0.312512627 -0.572512627 -0.312512627 -0.766966991 -0.506966991 -0.625545635 -0.648388348 -0.731611652 -0.754454365 -0.873033009 -0.613033009 -1.067487373 -0.807487373 -1.067487373 -0.453933983 -1.138198052 -0.524644661 -1.217747564 -0.250640783 -1.261941738 -0.294834957 Z" fill="none" stroke="#222" stroke-width="0.01" />
<path d="M 0.565685425 -1.125685425 0.265165043 -1.001941738 0.309359217 -0.957747564 0.035355339 -0.878198052 0.106066017 -0.807487373 -0.247487373 -0.807487373 -0.053033009 -0.613033009 -0.194454365 -0.471611652 -0.088388348 -0.365545635 0.053033009 -0.506966991 0.247487373 -0.312512627 0.247487373 -0.666066017 0.318198052 -0.595355339 0.397747564 -0.869359217 0.441941738 -0.825165043 Z" fill="none" stroke="#222" stroke-width="0.01" />
<path d="M 0.254314575 0.005685425 0.554834957 -0.118058262 0.510640783 -0.162252436 0.784644661 -0.241801948 0.713933983 -0.312512627 1.067487373 -0.312512627 0.873033009 -0.506966991 1.014454365 -0.648388348 0.908388348 -0.754454365 0.766966991 -0.613033009 0.572512627 -0.807487373 0.572512627 -0.453933983 0.501801948 -0.524644661 0.422252436 -0.250640783 0.378058262 -0.294834957 Z" fill="none" stroke="#222" stroke-width="0.01" />
<path d="M -0.254314575 -0.005685425 -0.554834957 0.118058262 -0.510640783 0.162252436 -0.784644661 0.241801948 -0.713933983 0.312512627 -1.067487373 0.312512627 -0.873033009 0.506966991 -1.014454365 0.648388348 -0.908388348 0.754454365 -0.766966991 0.613033009 -0.572512627 0.807487373 -0.572512627 0.453933983 -0.501801948 0.524644661 -0.422252436 0.250640783 -0.378058262 0.294834957 Z" fill="none" stroke="#222" stroke-width="0.01" />
<path d="M -0.565685425 1.125685425 -0.265165043 1.001941738 -0.309359217 0.957747564 -0.035355339 0.878198052 -0.106066017 0.807487373 0.247487373 0.807487373 0.053033009 0.613033009 0.194454365 0.471611652 0.088388348 0.365545635 -0.053033009 0.506966991 -0.247487373 0.312512627 -0.247487373 0.666066017 -0.318198052 0.595355339 -0.397747564 0.869359217 -0.441941738 0.825165043 Z" fill="none" stroke="#222" stroke-width="0.01" />
<rect x="-1.385685425" y="-1.226586399" width="2.453172798" height="2.453172798" fill="none" stroke="#000" stroke-width="0.01" />
</g>
<text x="500" y="552" font-family="monospace" font-size="12">alternating</text>
<g transform="translate(960.000 980.000) scale(82.870834043 -82.870834043) translate(2.040320872 2.403996069)">
<path d="M -0.720000000 0.290000000 -0.595000000 -0.010000000 -0.657500000 -0.010000000 -0.520000000 -0.260000000 -0.620000000 -0.260000000 -0.370000000 -0.510000000 -0.645000000 -0.510000000 -0.645000000 -0.710000000 -0.795000000 -0.710000000 -0.795000000 -0.510000000 -1.070000000 -0.510000000 -0.820000000 -0.260000000 -0.920000000 -0.260000000 -0.782500000 -0.010000000 -0.845000000 -0.010000000 Z" fill="none" stroke="#222" stroke-width="0.01" />
<path d="M -0.000000000 -1.310000000 -0.125000000 -1.010000000 -0.062500000 -1.010000000 -0.200000000 -0.760000000 -0.100000000 -0.760000000 -0.350000000 -0.510000000 -0.075000000 -0.510000000 -0.075000000 -0.310000000 0.075000000 -0.310000000 0.075000000 -0.510000000 0.350000000 -0.510000000 0.100000000 -0.760000000 0.200000000 -0.760000000 0.062500000 -1.010000000 0.125000000 -1.010000000 Z" fill="none" stroke="#222" stroke-width="0.01" />
<path d="M 0.720000000 0.290000000 0.845000000 -0.010000000 0.782500000 -0.010000000 0.920000000 -0.260000000 0.820000000 -0.260000000 1.070000000 -0.510000000 0.795000000 -0.510000000 0.795000000 -0.710000000 0.645000000 -0.710000000 0.645000000 -0.510000000 0.370000000 -0.510000000 0.620000000 -0.260000000 0.520000000 -0.260000000 0.657500000 -0.010000000 0.595000000 -0.010000000 Z" fill="none" stroke="#222" stroke-width="0.01" />
<path d="M -0.036000000 -0.290000000 -0.161000000 0.010000000 -0.098500000 0.010000000 -0.236000000 0.260000000 -0.136000000 0.260000000 -0.386000000 0.510000000 -0.111000000 0.510000000 -0.111000000 0.710000000 0.039000000 0.710000000 0.039000000 0.510000000 0.314000000 0.510000000 0.064000000 0.260000000 0.164000000 0.260000000 0.026500000 0.010000000 0.089000000 0.010000000 Z" fill="none" stroke="#222" stroke-width="0.01" />
<path d="M 0.684000000 1.310000000 0.809000000 1.010000000 0.746500000 1.010000000 0.884000000 0.760000000 0.784000000 0.760000000 1.034000000 0.510000000 0.759000000 0.510000000 0.759000000 0.310000000 0.609000000 0.310000000 0.609000000 0.510000000 0.334000000 0.510000000 0.584000000 0.760000000 0.484000000 0.760000000 0.621500000 1.010000000 0.559000000 1.010000000 Z" fill="none" stroke="#222" stroke-width="0.01" />
<rect x="-1.310000000" y="-1.310000000" width="2.620000000" height="2.620000000" fill="none" stroke="#000" stroke-width="0.01" />
</g>
<text x="960" y="552" font-family="monospace" font-size="12">sheared_brick</text>
<g transform="translate(40.000 1440.000) scale(82.870834043 -82.870834043) translate(2.040320872 2.403996069)">
<path d="M -1.090507864 0.315844051 -0.789987482 0.192100365 -0.834181656 0.147906191 -0.560177778 0.068356678 -0.630888456 -0.002354000 -0.277335066 -0.002354000 -0.471789431 -0.196808365 -0.330368074 -0.338229721 -0.436434092 -0.444295738 -0.577855448 -0.302874382 -0.772309813 -0.497328747 -0.772309813 -0.143775356 -0.843020491 -0.214486034 -0.922570004 0.059517843 -0.966764178 0.015323669 Z" fill="none" stroke="#222" stroke-width="0.01" />
<path d="M 0.390744612 -0.315844051 0.090224230 -0.192100365 0.134418404 -0.147906191 -0.139585474 -0.068356678 -0.068874796 0.002354000 -0.422428187 0.002354000 -0.227973822 0.196808365 -0.369395178 0.338229721 -0.263329161 0.444295738 -0.121907804 0.302874382 0.072546560 0.497328747 0.072546560 0.143775356 0.143257238 0.214486034 0.222806751 -0.059517843 0.267000925 -0.015323669 Z" fill="none" stroke="#222" stroke-width="0.01" />
<path d="M -0.390744612 1.315209545 -0.090224230 1.191465859 -0.134418404 1.147271685 0.139585474 1.067722172 0.068874796 0.997011494 0.422428187 0.997011494 0.227973822 0.802557129 0.369395178 0.661135773 0.263329161 0.555069756 0.121907804 0.696491112 -0.072546560 0.502036747 -0.072546560 0.855590138 -0.143257238 0.784879460 -0.222806751 1.058883337 -0.267000925 1.014689163 Z" fill="none" stroke="#222" stroke-width="0.01" />
<path d="M 0.390744612 -1.315209545 0.090224230 -1.191465859 0.134418404 -1.147271685 -0.139585474 -1.067722172 -0.068874796 -0.997011494 -0.422428187 -0.997011494 -0.227973822 -0.802557129 -0.369395178 -0.661135773 -0.263329161 -0.555069756 -0.121907804 -0.696491112 0.072546560 -0.502036747 0.072546560 -0.855590138 0.143257238 -0.784879460 0.222806751 -1.058883337 0.267000925 -1.014689163 Z" fill="none" stroke="#222" stroke-width="0.01" />
<path d="M -0.390744612 0.315844051 -0.090224230 0.192100365 -0.134418404 0.147906191 0.139585474 0.068356678 0.068874796 -0.002354000 0.422428187 -0.002354000 0.227973822 -0.196808365 0.369395178 -0.338229721 0.263329161 -0.444295738 0.121907804 -0.302874382 -0.072546560 -0.497328747 -0.072546560 -0.143775356 -0.143257238 -0.214486034 -0.222806751 0.059517843 -0.267000925 0.015323669 Z" fill="none" stroke="#222" stroke-width="0.01" />
<rect x="-1.649249384" y="-1.315209545" width="2.630419091" height="2.630419091" fill="none" stroke="#000" stroke-width="0.01" />
</g>
<text x="40" y="1012" font-family="monospace" font-size="12">diamond_lattice</text>
<g transform="translate(500.000 1440.000) scale(82.870834043 -82.870834043) translate(2.040320872 2.403996069)">
<path d="M -0.820000000 0.315000000 -0.695000000 0.015000000 -0.757500000 0.015000000 -0.620000000 -0.235000000 -0.720000000 -0.235000000 -0.470000000 -0.485000000 -0.745000000 -0.485000000 -0.745000000 -0.685000000 -0.895000000 -0.685000000 -0.895000000 -0.485000000 -1.170000000 -0.485000000 -0.920000000 -0.235000000 -1.020000000 -0.235000000 -0.882500000 0.015000000 -0.945000000 0.015000000 Z" fill="none" stroke="#222" stroke-width="0.01" />
<path d="M 0.000000000 0.392600000 0.125000000 0.092600000 0.062500000 0.092600000 0.200000000 -0.157400000 0.100000000 -0.157400000 0.350000000 -0.407400000 0.075000000 -0.407400000 0.075000000 -0.607400000 -0.075000000 -0.607400000 -0.075000000 -0.407400000 -0.350000000 -0.407400000 -0.100000000 -0.157400000 -0.200000000 -0.157400000 -0.062500000 0.092600000 -0.125000000 0.092600000 Z" fill="none" stroke="#222" stroke-width="0.01" />
<path d="M 0.820000000 0.315000000 0.945000000 0.015000000 0.882500000 0.015000000 1.020000000 -0.235000000 0.920000000 -0.235000000 1.170000000 -0.485000000 0.895000000 -0.485000000 0.895000000 -0.685000000 0.745000000 -0.685000000 0.745000000 -0.485000000 0.470000000 -0.485000000 0.720000000 -0.235000000 0.620000000 -0.235000000 0.757500000 0.015000000 0.695000000 0.015000000 Z" fill="none" stroke="#222" stroke-width="0.01" />
<path d="M -1.210000000 0.485000000 -0.910000000 0.610000000 -0.910000000 0.547500000 -0.660000000 0.685000000 -0.660000000 0.585000000 -0.410000000 0.835000000 -0.410000000 0.560000000 -0.210000000 0.560000000 -0.210000000 0.410000000 -0.410000000 0.410000000 -0.410000000 0.135000000 -0.660000000 0.385000000 -0.660000000 0.285000000 -0.910000000 0.422500000 -0.910000000 0.360000000 Z" fill="none" stroke="#222" stroke-width="0.01" />
<path d="M -0.390000000 0.562600000 -0.090000000 0.687600000 -0.090000000 0.625100000 0.160000000 0.762600000 0.160000000 0.662600000 0.410000000 0.912600000 0.410000000 0.637600000 0.610000000 0.637600000 0.610000000 0.487600000 0.410000000 0.487600000 0.410000000 0.212600000 0.160000000 0.462600000 0.160000000 0.362600000 -0.090000000 0.500100000 -0.090000000 0.437600000 Z" fill="none" stroke="#222" stroke-width="0.01" />
<rect x="-1.210000000" y="-1.076200000" width="2.380000000" height="2.380000000" fill="none" stroke="#000" stroke-width="0.01" />
</g>
<text x="500" y="1012" font-family="monospace" font-size="12">herringbone</text>
<g transform="translate(960.000 1440.000) scale(82.870834043 -82.870834043) translate(2.040320872 2.403996069)">
<path d="M 1.187253565 0.800000000 1.312253565 0.500000000 1.249753565 0.500000000 1.387253565 0.250000000 1.287253565 0.250000000 1.537253565 0.000000000 1.262253565 0.000000000 1.262253565 -0.200000000 1.112253565 -0.200000000 1.112253565 0.000000000 0.837253565 0.000000000 1.087253565 0.250000000 0.987253565 0.250000000 1.124753565 0.500000000 1.062253565 0.500000000 Z" fill="none" stroke="#222" stroke-width="0.01" />
<path d="M -0.393963685 1.376358835 -0.070019606 1.402535801 -0.089333168 1.343094769 0.190920798 1.396610791 0.160019099 1.301505140 0.475037476 1.462015020 0.390057803 1.200474478 0.580269106 1.138671079 0.533916557 0.996012602 0.343705254 1.057816001 0.258725580 0.796275459 0.098215700 1.111293836 0.067314000 1.016188185 -0.127960292 1.224212704 -0.147273854 1.164771672 Z" fill="none" stroke="#222" stroke-width="0.01" />
<path d="M -1.430736513 0.050636541 -1.355528061 0.366814796 -1.304964499 0.330078217 -1.269258023 0.613152938 -1.188356323 0.554374413 -1.243664259 0.903574975 -1.021184585 0.741934030 -0.903627535 0.903737429 -0.782274986 0.815569641 -0.899832036 0.653766242 -0.677352363 0.492125298 -1.026552924 0.436817362 -0.945651225 0.378038837 -1.203837375 0.256605061 -1.153273813 0.219868483 Z" fill="none" stroke="#222" stroke-width="0.01" />
<path d="M -0.490280109 -1.345063732 -0.767742809 -1.175831790 -0.717179247 -1.139095212 -0.975365397 -1.017661435 -0.894463697 -0.958882910 -1.243664259 -0.903574975 -1.021184585 -0.741934030 -1.138741636 -0.580130631 -1.017389087 -0.491962843 -0.899832036 -0.653766242 -0.677352363 -0.492125298 -0.732660298 -0.841325860 -0.651758599 -0.782547334 -0.616052122 -1.065622055 -0.565488560 -1.028885477 Z" fill="none" stroke="#222" stroke-width="0.01" />
<path d="M 1.127726741 -0.881931644 0.881036911 -1.093518807 0.861723349 -1.034077775 0.666449056 -1.242102294 0.635547357 -1.146996643 0.475037476 -1.462015020 0.390057803 -1.200474478 0.199846500 -1.262277877 0.153493950 -1.119619400 0.343705254 -1.057816001 0.258725580 -0.796275459 0.573743958 -0.956785339 0.542842258 -0.861679688 0.823096224 -0.915195710 0.803782662 -0.855754678 Z" fill="none" stroke="#222" stroke-width="0.01" />
<rect x="-1.430736513" y="-1.483995039" width="2.967990078" height="2.967990078" fill="none" stroke="#000" stroke-width="0.01" />
</g>
<text x="960" y="1012" font-family="monospace" font-size="12">circle_ring</text>
<g transform="translate(40.000 1900.000) scale(82.870834043 -82.870834043) translate(2.040320872 2.403996069)">
<path d="M 0.000000000 0.800000000 0.125000000 0.500000000 0.062500000 0.500000000 0.200000000 0.250000000 0.100000000 0.250000000 0.350000000 0.000000000 0.075000000 0.000000000 0.075000000 -0.200000000 -0.075000000 -0.200000000 -0.075000000 0.000000000 -0.350000000 0.000000000 -0.100000000 0.250000000 -0.200000000 0.250000000 -0.062500000 0.500000000 -0.125000000 0.500000000 Z" fill="none" stroke="#222" stroke-width="0.01" />
<path d="M -0.356830560 0.805960267 -0.048948545 0.701875373 -0.090197492 0.654920348 0.188370292 0.593225617 0.122371977 0.518097577 0.475187865 0.540921892 0.293692500 0.334319780 0.443948581 0.202323151 0.344951109 0.089631090 0.194695028 0.221627720 0.013199663 0.015025608 -0.009624652 0.367841496 -0.075622966 0.292713455 -0.172695385 0.561010298 -0.213944332 0.514055272 Z" fill="none" stroke="#222" stroke-width="0.01" />
<path d="M -0.860750892 0.415821960 -0.579357011 0.578433409 -0.571304230 0.516454358 -0.341104145 0.685019393 -0.328219696 0.585852912 -0.112514617 0.865980239 -0.077082381 0.593272416 0.121250581 0.619041315 0.140577256 0.470291593 -0.057755706 0.444522694 -0.022323471 0.171814871 -0.302450797 0.387519950 -0.289566347 0.288353469 -0.555198668 0.392496257 -0.547145887 0.330517207 Z" fill="none" stroke="#222" stroke-width="0.01" />
<path d="M -0.978094085 -0.306646311 -0.914545662 0.012080214 -0.862667316 -0.022775018 -0.837378748 0.261419877 -0.754373394 0.205651505 -0.822465849 0.552585818 -0.594201127 0.399222796 -0.482664383 0.565233503 -0.358156353 0.481580945 -0.469693096 0.315570238 -0.241428374 0.162207216 -0.588362687 0.094114762 -0.505357334 0.038346390 -0.758910624 -0.092485483 -0.707032278 -0.127340715 Z" fill="none" stroke="#222" stroke-width="0.01" />
<path d="M -0.510997781 -0.962538970 -0.708509886 -0.704442150 -0.648084999 -0.688470831 -0.844905026 -0.481908184 -0.748225206 -0.456354074 -1.053810030 -0.278539801 -0.787940527 -0.208265998 -0.839048747 -0.014906360 -0.694029018 0.023424806 -0.642920798 -0.169934833 -0.377051295 -0.099661030 -0.554865568 -0.405245853 -0.458185748 -0.379691743 -0.527235224 -0.656528193 -0.466810337 -0.640556874 Z" fill="none" stroke="#222" stroke-width="0.01" />
<rect x="-1.203570687" y="-0.962538970" width="1.828519208" height="1.828519208" fill="none" stroke="#000" stroke-width="0.01" />
</g>
<text x="40" y="1472" font-family="monospace" font-size="12">spiral</text>
<g transform="translate(500.000 1900.000) scale(82.870834043 -82.870834043) translate(2.040320872 2.403996069)">
<path d="M -0.800000000 0.000000000 -0.500000000 0.125000000 -0.500000000 0.062500000 -0.250000000 0.200000000 -0.250000000 0.100000000 0.000000000 0.350000000 0.000000000 0.075000000 0.200000000 0.075000000 0.200000000 -0.075000000 -0.000000000 -0.075000000 -0.000000000 -0.350000000 -0.250000000 -0.100000000 -0.250000000 -0.200000000 -0.500000000 -0.062500000 -0.500000000 -0.125000000 Z" fill="none" stroke="#222" stroke-width="0.01" />
<path d="M 0.272826485 -0.249931409 -0.032820465 -0.139455430 0.009397678 -0.093369875 -0.267824457 -0.025885523 -0.200275427 0.047851365 -0.553490221 0.032381719 -0.367730390 0.235158161 -0.515204165 0.370256220 -0.413880621 0.480861551 -0.266406846 0.345763492 -0.080647015 0.548539934 -0.065177369 0.195325141 0.002371661 0.269062029 0.093833965 -0.001198766 0.136052108 0.044886789 Z" fill="none" stroke="#222" stroke-width="0.01" />
<path d="M -0.016775962 0.191153436 0.133973135 -0.096769660 0.071712445 -0.102233768 0.230542395 -0.339255491 0.130925291 -0.347998064 0.401824482 -0.575184393 0.127877446 -0.599226467 0.145362591 -0.798460675 -0.004063066 -0.811574534 -0.021548210 -0.612340326 -0.295495247 -0.636382400 -0.068308918 -0.365483209 -0.167926022 -0.374225781 -0.052808935 -0.113161984 -0.115069625 -0.118626092 Z" fill="none" stroke="#222" stroke-width="0.01" />
<path d="M -0.033596870 -0.043821168 0.049734694 0.270313916 0.099334741 0.232286487 0.142324353 0.514347018 0.221684428 0.453503132 0.175393956 0.804013035 0.393634162 0.636692348 0.515321935 0.795412498 0.634362047 0.704146669 0.512674275 0.545426519 0.730914482 0.378105832 0.380404579 0.331815360 0.459764654 0.270971474 0.198534835 0.156231629 0.248134882 0.118204200 Z" fill="none" stroke="#222" stroke-width="0.01" />
<path d="M -0.059082809 -0.010450917 -0.332724111 -0.185794688 -0.343610483 -0.124250095 -0.565838836 -0.303193687 -0.583257031 -0.204722338 -0.785889915 -0.494446197 -0.833789951 -0.223649989 -1.030732648 -0.258486379 -1.056859941 -0.110779356 -0.859917244 -0.075942966 -0.907817280 0.194853243 -0.618093421 -0.007779641 -0.635511616 0.090691707 -0.365383227 -0.001160909 -0.376269599 0.060383684 Z" fill="none" stroke="#222" stroke-width="0.01" />
<rect x="-1.056859941" y="-0.897667961" width="1.787774422" height="1.787774422" fill="none" stroke="#000" stroke-width="0.01" />
</g>
<text x="500" y="1472" font-family="monospace" font-size="12">sunflower</text>
<g transform="translate(960.000 1900.000) scale(82.870834043 -82.870834043) translate(2.040320872 2.403996069)">
<path d="M -0.360000000 0.290000000 -0.235000000 -0.010000000 -0.297500000 -0.010000000 -0.160000000 -0.260000000 -0.260000000 -0.260000000 -0.010000000 -0.510000000 -0.285000000 -0.510000000 -0.285000000 -0.710000000 -0.435000000 -0.710000000 -0.435000000 -0.510000000 -0.710000000 -0.510000000 -0.460000000 -0.260000000 -0.560000000 -0.260000000 -0.422500000 -0.010000000 -0.485000000 -0.010000000 Z" fill="none" stroke="#222" stroke-width="0.01" />
<path d="M 0.360000000 -1.310000000 0.235000000 -1.010000000 0.297500000 -1.010000000 0.160000000 -0.760000000 0.260000000 -0.760000000 0.010000000 -0.510000000 0.285000000 -0.510000000 0.285000000 -0.310000000 0.435000000 -0.310000000 0.435000000 -0.510000000 0.710000000 -0.510000000 0.460000000 -0.760000000 0.560000000 -0.760000000 0.422500000 -1.010000000 0.485000000 -1.010000000 Z" fill="none" stroke="#222" stroke-width="0.01" />
<path d="M 0.324000000 -0.290000000 0.199000000 0.010000000 0.261500000 0.010000000 0.124000000 0.260000000 0.224000000 0.260000000 -0.026000000 0.510000000 0.249000000 0.510000000 0.249000000 0.710000000 0.399000000 0.710000000 0.399000000 0.510000000 0.674000000 0.510000000 0.424000000 0.260000000 0.524000000 0.260000000 0.386500000 0.010000000 0.449000000 0.010000000 Z" fill="none" stroke="#222" stroke-width="0.01" />
<path d="M 0.861481605 -0.170000000 1.161481605 -0.045000000 1.161481605 -0.107500000 1.411481605 0.030000000 1.411481605 -0.070000000 1.661481605 0.180000000 1.661481605 -0.095000000 1.861481605 -0.095000000 1.861481605 -0.245000000 1.661481605 -0.245000000 1.661481605 -0.520000000 1.411481605 -0.270000000 1.411481605 -0.370000000 1.161481605 -0.232500000 1.161481605 -0.295000000 Z" fill="none" stroke="#222" stroke-width="0.01" />
<path d="M -0.735167748 0.602410726 -1.040814698 0.712886704 -0.998596555 0.758972259 -1.275818690 0.826456612 -1.208269660 0.900193500 -1.561484453 0.884723854 -1.375724622 1.087500295 -1.523198398 1.222598354 -1.421874854 1.333203686 -1.274401078 1.198105627 -1.088641247 1.400882068 -1.073171601 1.047667275 -1.005622572 1.121404163 -0.914160268 0.851143369 -0.871942124 0.897228924 Z" fill="none" stroke="#222" stroke-width="0.01" />
<rect x="-1.561484453" y="-1.666041995" width="3.422966058" height="3.422966058" fill="none" stroke="#000" stroke-width="0.01" />
</g>
<text x="960" y="1472" font-family="monospace" font-size="12">core_plus_spiral</text>
<g transform="translate(40.000 2360.000) scale(82.870834043 -82.870834043) translate(2.040320872 2.403996069)">
<path d="M 0.024942011 1.779039517 0.149942011 1.479039517 0.087442011 1.479039517 0.224942011 1.229039517 0.124942011 1.229039517 0.374942011 0.979039517 0.099942011 0.979039517 0.099942011 0.779039517 -0.050057989 0.779039517 -0.050057989 0.979039517 -0.325057989 0.979039517 -0.075057989 1.229039517 -0.175057989 1.229039517 -0.037557989 1.479039517 -0.100057989 1.479039517 Z" fill="none" stroke="#222" stroke-width="0.01" />
<path d="M -0.694844415 -0.490973000 -0.394844415 -0.365973000 -0.394844415 -0.428473000 -0.144844415 -0.290973000 -0.144844415 -0.390973000 0.105155585 -0.140973000 0.105155585 -0.415973000 0.305155585 -0.415973000 0.305155585 -0.565973000 0.105155585 -0.565973000 0.105155585 -0.840973000 -0.144844415 -0.590973000 -0.144844415 -0.690973000 -0.394844415 -0.553473000 -0.394844415 -0.615973000 Z" fill="none" stroke="#222" stroke-width="0.01" />
<path d="M 1.044466362 0.782907305 1.169466362 0.482907305 1.106966362 0.482907305 1.244466362 0.232907305 1.144466362 0.232907305 1.394466362 -0.017092695 1.119466362 -0.017092695 1.119466362 -0.217092695 0.969466362 -0.217092695 0.969466362 -0.017092695 0.694466362 -0.017092695 0.944466362 0.232907305 0.844466362 0.232907305 0.981966362 0.482907305 0.919466362 0.482907305 Z" fill="none" stroke="#222" stroke-width="0.01" />
<path d="M -1.065520781 1.835295581 -0.765520781 1.960295581 -0.765520781 1.897795581 -0.515520781 2.035295581 -0.515520781 1.935295581 -0.265520781 2.185295581 -0.265520781 1.910295581 -0.065520781 1.910295581 -0.065520781 1.760295581 -0.265520781 1.760295581 -0.265520781 1.485295581 -0.515520781 1.735295581 -0.515520781 1.635295581 -0.765520781 1.772795581 -0.765520781 1.710295581 Z" fill="none" stroke="#222" stroke-width="0.01" />
<path d="M -0.456383349 -0.925159650 -0.331383349 -1.225159650 -0.393883349 -1.225159650 -0.256383349 -1.475159650 -0.356383349 -1.475159650 -0.106383349 -1.725159650 -0.381383349 -1.725159650 -0.381383349 -1.925159650 -0.531383349 -1.925159650 -0.531383349 -1.725159650 -0.806383349 -1.725159650 -0.556383349 -1.475159650 -0.656383349 -1.475159650 -0.518883349 -1.225159650 -0.581383349 -1.225159650 Z" fill="none" stroke="#222" stroke-width="0.01" />
<rect x="-1.890754825" y="-1.925159650" width="4.110455231" height="4.110455231" fill="none" stroke="#000" stroke-width="0.01" />
</g>
<text x="40" y="1932" font-family="monospace" font-size="12">random_box</text>
</svg>
