<?xml version="1.0" encoding="UTF-8"?>
<svg xmlns="http://www.w3.org/2000/svg" width="1560" height="1000" viewBox="0 0 1560 1000">
<rect x="0" y="0" width="1560" height="1000" fill="white"/>
<text x="12" y="24" font-family="sans-serif" font-size="16" fill="#000">Warm-start comparison (N=5) — shared world scale</text>
<rect x="1.0" y="41.0" width="518.0" height="478.0" fill="none" stroke="#ddd"/>
<text x="12.0" y="62.0" font-family="sans-serif" font-size="14" fill="#000">grid0</text>
<rect x="18.0" y="76.0" width="484.0" height="428.0" fill="none" stroke="#f2f2f2"/>
<rect x="126.50" y="126.51" width="279.67" height="279.67" fill="none" stroke="#888" stroke-width="1.0"/>
<polyline fill="none" stroke="#000" stroke-width="1.1" points="166.63,190.14 176.50,213.84 171.57,213.84 182.43,233.59 174.53,233.59 194.28,253.34 172.55,253.34 172.55,269.14 160.71,269.14 160.71,253.34 138.98,253.34 158.73,233.59 150.83,233.59 161.69,213.84 156.76,213.84 166.63,190.14"/>
<circle cx="166.63" cy="253.34" r="2.2" fill="#000"/>
<polyline fill="none" stroke="#000" stroke-width="1.1" points="277.66,126.51 287.54,150.21 282.60,150.21 293.46,169.96 285.56,169.96 305.31,189.71 283.59,189.71 283.59,205.51 271.74,205.51 271.74,189.71 250.02,189.71 269.76,169.96 261.87,169.96 272.73,150.21 267.79,150.21 277.66,126.51"/>
<circle cx="277.66" cy="189.71" r="2.2" fill="#000"/>
<polyline fill="none" stroke="#000" stroke-width="1.1" points="366.05,219.06 375.92,242.76 370.99,242.76 381.85,262.51 373.95,262.51 393.70,282.26 371.97,282.26 371.97,298.06 360.12,298.06 360.12,282.26 338.40,282.26 358.15,262.51 350.25,262.51 361.11,242.76 356.17,242.76 366.05,219.06"/>
<circle cx="366.05" cy="282.26" r="2.2" fill="#000"/>
<polyline fill="none" stroke="#000" stroke-width="1.1" points="169.93,318.07 179.81,341.77 174.87,341.77 185.73,361.52 177.83,361.52 197.58,381.27 175.86,381.27 175.86,397.07 164.01,397.07 164.01,381.27 142.28,381.27 162.03,361.52 154.13,361.52 164.99,341.77 160.06,341.77 169.93,318.07"/>
<circle cx="169.93" cy="381.27" r="2.2" fill="#000"/>
<polyline fill="none" stroke="#000" stroke-width="1.1" points="297.58,327.18 307.46,350.88 302.52,350.88 313.38,370.63 305.48,370.63 325.23,390.38 303.51,390.38 303.51,406.18 291.66,406.18 291.66,390.38 269.93,390.38 289.68,370.63 281.78,370.63 292.64,350.88 287.71,350.88 297.58,327.18"/>
<circle cx="297.58" cy="390.38" r="2.2" fill="#000"/>
<rect x="521.0" y="41.0" width="518.0" height="478.0" fill="none" stroke="#ddd"/>
<text x="532.0" y="62.0" font-family="sans-serif" font-size="14" fill="#000">alt45</text>
<rect x="538.0" y="76.0" width="484.0" height="428.0" fill="none" stroke="#f2f2f2"/>
<rect x="638.95" y="173.36" width="262.15" height="262.15" fill="none" stroke="#888" stroke-width="1.0"/>
<polyline fill="none" stroke="#000" stroke-width="1.1" points="638.95,218.01 662.69,227.78 659.20,231.27 680.85,237.56 675.26,243.14 703.19,243.14 687.83,258.50 699.00,269.68 690.62,278.05 679.45,266.88 664.09,282.24 664.09,254.31 658.51,259.90 652.22,238.25 648.73,241.75 638.95,218.01"/>
<circle cx="683.64" cy="262.69" r="2.2" fill="#000"/>
<polyline fill="none" stroke="#000" stroke-width="1.1" points="835.71,237.76 811.97,227.98 815.46,224.49 793.81,218.21 799.40,212.62 771.47,212.62 786.83,197.26 775.66,186.09 784.04,177.71 795.21,188.88 810.57,173.52 810.57,201.45 816.16,195.86 822.44,217.51 825.93,214.02 835.71,237.76"/>
<circle cx="791.02" cy="193.07" r="2.2" fill="#000"/>
<polyline fill="none" stroke="#000" stroke-width="1.1" points="836.86,238.84 860.60,248.61 857.11,252.10 878.76,258.39 873.17,263.97 901.10,263.97 885.74,279.34 896.91,290.51 888.53,298.89 877.36,287.72 862.00,303.08 862.00,275.15 856.41,280.73 850.13,259.09 846.64,262.58 836.86,238.84"/>
<circle cx="881.55" cy="283.53" r="2.2" fill="#000"/>
<polyline fill="none" stroke="#000" stroke-width="1.1" points="728.71,435.36 704.97,425.58 708.46,422.09 686.81,415.80 692.40,410.22 664.47,410.22 679.83,394.86 668.66,383.69 677.04,375.31 688.21,386.48 703.57,371.12 703.57,399.05 709.16,393.46 715.44,415.11 718.93,411.62 728.71,435.36"/>
<circle cx="684.02" cy="390.67" r="2.2" fill="#000"/>
<polyline fill="none" stroke="#000" stroke-width="1.1" points="767.31,346.26 791.05,356.04 787.55,359.53 809.20,365.81 803.61,371.40 831.54,371.40 816.18,386.76 827.35,397.93 818.98,406.31 807.80,395.14 792.44,410.50 792.44,382.57 786.86,388.16 780.57,366.51 777.08,370.00 767.31,346.26"/>
<circle cx="811.99" cy="390.95" r="2.2" fill="#000"/>
<rect x="1041.0" y="41.0" width="518.0" height="478.0" fill="none" stroke="#ddd"/>
<text x="1052.0" y="62.0" font-family="sans-serif" font-size="14" fill="#000">circle</text>
<rect x="1058.0" y="76.0" width="484.0" height="428.0" fill="none" stroke="#f2f2f2"/>
<rect x="1157.59" y="140.81" width="298.12" height="298.12" fill="none" stroke="#888" stroke-width="1.0"/>
<polyline fill="none" stroke="#000" stroke-width="1.1" points="1412.92,250.44 1422.80,274.14 1417.86,274.14 1428.72,293.89 1420.82,293.89 1440.57,313.63 1418.85,313.63 1418.85,329.43 1407.00,329.43 1407.00,313.63 1385.27,313.63 1405.02,293.89 1397.12,293.89 1407.98,274.14 1403.05,274.14 1412.92,250.44"/>
<circle cx="1412.92" cy="313.63" r="2.2" fill="#000"/>
<polyline fill="none" stroke="#000" stroke-width="1.1" points="1346.90,140.81 1356.77,164.51 1351.83,164.51 1362.70,184.26 1354.80,184.26 1374.55,204.01 1352.82,204.01 1352.82,219.81 1340.97,219.81 1340.97,204.01 1319.25,204.01 1339.00,184.26 1331.10,184.26 1341.96,164.51 1337.02,164.51 1346.90,140.81"/>
<circle cx="1346.90" cy="204.01" r="2.2" fill="#000"/>
<polyline fill="none" stroke="#000" stroke-width="1.1" points="1200.38,157.90 1210.26,181.60 1205.32,181.60 1216.18,201.35 1208.28,201.35 1228.03,221.10 1206.31,221.10 1206.31,236.90 1194.46,236.90 1194.46,221.10 1172.73,221.10 1192.48,201.35 1184.58,201.35 1195.44,181.60 1190.51,181.60 1200.38,157.90"/>
<circle cx="1200.38" cy="221.10" r="2.2" fill="#000"/>
<polyline fill="none" stroke="#000" stroke-width="1.1" points="1200.38,342.88 1210.26,366.58 1205.32,366.58 1216.18,386.33 1208.28,386.33 1228.03,406.08 1206.31,406.08 1206.31,421.88 1194.46,421.88 1194.46,406.08 1172.73,406.08 1192.48,386.33 1184.58,386.33 1195.44,366.58 1190.51,366.58 1200.38,342.88"/>
<circle cx="1200.38" cy="406.08" r="2.2" fill="#000"/>
<polyline fill="none" stroke="#000" stroke-width="1.1" points="1346.67,359.93 1356.54,383.63 1351.60,383.63 1362.47,403.37 1354.57,403.37 1374.31,423.12 1352.59,423.12 1352.59,438.92 1340.74,438.92 1340.74,423.12 1319.02,423.12 1338.77,403.37 1330.87,403.37 1341.73,383.63 1336.79,383.63 1346.67,359.93"/>
<circle cx="1346.67" cy="423.12" r="2.2" fill="#000"/>
<rect x="1.0" y="521.0" width="518.0" height="478.0" fill="none" stroke="#ddd"/>
<text x="12.0" y="542.0" font-family="sans-serif" font-size="14" fill="#000">spiral</text>
<rect x="18.0" y="556.0" width="484.0" height="428.0" fill="none" stroke="#f2f2f2"/>
<rect x="87.42" y="597.42" width="345.16" height="345.16" fill="none" stroke="#888" stroke-width="1.0"/>
<polyline fill="none" stroke="#000" stroke-width="1.1" points="321.29,723.76 331.17,747.46 326.23,747.46 337.09,767.21 329.19,767.21 348.94,786.96 327.22,786.96 327.22,802.76 315.37,802.76 315.37,786.96 293.64,786.96 313.39,767.21 305.49,767.21 316.36,747.46 311.42,747.46 321.29,723.76"/>
<circle cx="321.29" cy="786.96" r="2.2" fill="#000"/>
<polyline fill="none" stroke="#000" stroke-width="1.1" points="182.24,745.20 192.02,721.46 195.51,724.95 201.79,703.31 207.38,708.89 207.38,680.96 222.74,696.32 233.91,685.15 242.29,693.53 231.12,704.70 246.48,720.06 218.55,720.06 224.13,725.65 202.49,731.93 205.98,735.42 182.24,745.20"/>
<circle cx="226.93" cy="700.51" r="2.2" fill="#000"/>
<polyline fill="none" stroke="#000" stroke-width="1.1" points="385.57,914.93 361.87,924.81 361.87,919.87 342.12,930.73 342.12,922.83 322.37,942.58 322.37,920.86 306.57,920.86 306.57,909.01 322.37,909.01 322.37,887.28 342.12,907.03 342.12,899.13 361.87,909.99 361.87,905.06 385.57,914.93"/>
<circle cx="322.37" cy="914.93" r="2.2" fill="#000"/>
<polyline fill="none" stroke="#000" stroke-width="1.1" points="366.21,597.42 389.95,607.19 386.45,610.69 408.10,616.97 402.51,622.56 430.44,622.56 415.08,637.92 426.25,649.09 417.88,657.47 406.70,646.30 391.34,661.66 391.34,633.73 385.76,639.31 379.47,617.67 375.98,621.16 366.21,597.42"/>
<circle cx="410.89" cy="642.11" r="2.2" fill="#000"/>
<polyline fill="none" stroke="#000" stroke-width="1.1" points="117.21,874.19 107.33,850.49 112.27,850.49 101.41,830.74 109.31,830.74 89.56,810.99 111.28,810.99 111.28,795.19 123.13,795.19 123.13,810.99 144.85,810.99 125.10,830.74 133.00,830.74 122.14,850.49 127.08,850.49 117.21,874.19"/>
<circle cx="117.21" cy="810.99" r="2.2" fill="#000"/>
<rect x="521.0" y="521.0" width="518.0" height="478.0" fill="none" stroke="#ddd"/>
<text x="532.0" y="542.0" font-family="sans-serif" font-size="14" fill="#000">hex</text>
<rect x="538.0" y="556.0" width="484.0" height="428.0" fill="none" stroke="#f2f2f2"/>
<rect x="626.78" y="616.64" width="311.25" height="311.25" fill="none" stroke="#888" stroke-width="1.0"/>
<polyline fill="none" stroke="#000" stroke-width="1.1" points="654.43,653.56 664.30,677.25 659.36,677.25 670.23,697.00 662.33,697.00 682.08,716.75 660.35,716.75 660.35,732.55 648.50,732.55 648.50,716.75 626.78,716.75 646.53,697.00 638.63,697.00 649.49,677.25 644.55,677.25 654.43,653.56"/>
<circle cx="654.43" cy="716.75" r="2.2" fill="#000"/>
<polyline fill="none" stroke="#000" stroke-width="1.1" points="782.40,779.95 772.53,756.25 777.47,756.25 766.60,736.50 774.50,736.50 754.75,716.75 776.48,716.75 776.48,700.95 788.33,700.95 788.33,716.75 810.05,716.75 790.30,736.50 798.20,736.50 787.34,756.25 792.28,756.25 782.40,779.95"/>
<circle cx="782.40" cy="716.75" r="2.2" fill="#000"/>
<polyline fill="none" stroke="#000" stroke-width="1.1" points="910.38,653.56 920.25,677.25 915.32,677.25 926.18,697.00 918.28,697.00 938.03,716.75 916.30,716.75 916.30,732.55 904.45,732.55 904.45,716.75 882.73,716.75 902.48,697.00 894.58,697.00 905.44,677.25 900.50,677.25 910.38,653.56"/>
<circle cx="910.38" cy="716.75" r="2.2" fill="#000"/>
<polyline fill="none" stroke="#000" stroke-width="1.1" points="718.42,890.97 708.54,867.27 713.48,867.27 702.62,847.53 710.52,847.53 690.77,827.78 712.49,827.78 712.49,811.98 724.34,811.98 724.34,827.78 746.06,827.78 726.31,847.53 734.21,847.53 723.35,867.27 728.29,867.27 718.42,890.97"/>
<circle cx="718.42" cy="827.78" r="2.2" fill="#000"/>
<polyline fill="none" stroke="#000" stroke-width="1.1" points="846.39,764.58 856.27,788.28 851.33,788.28 862.19,808.03 854.29,808.03 874.04,827.78 852.32,827.78 852.32,843.58 840.47,843.58 840.47,827.78 818.74,827.78 838.49,808.03 830.59,808.03 841.45,788.28 836.52,788.28 846.39,764.58"/>
<circle cx="846.39" cy="827.78" r="2.2" fill="#000"/>
<rect x="1041.0" y="521.0" width="518.0" height="478.0" fill="none" stroke="#ddd"/>
<text x="1052.0" y="542.0" font-family="sans-serif" font-size="14" fill="#000">halton</text>
<rect x="1058.0" y="556.0" width="484.0" height="428.0" fill="none" stroke="#f2f2f2"/>
<rect x="1133.15" y="613.25" width="331.11" height="331.11" fill="none" stroke="#888" stroke-width="1.0"/>
<polyline fill="none" stroke="#000" stroke-width="1.1" points="1309.61,725.75 1319.48,749.45 1314.54,749.45 1325.40,769.20 1317.51,769.20 1337.25,788.95 1315.53,788.95 1315.53,804.75 1303.68,804.75 1303.68,788.95 1281.96,788.95 1301.71,769.20 1293.81,769.20 1304.67,749.45 1299.73,749.45 1309.61,725.75"/>
<circle cx="1309.61" cy="788.95" r="2.2" fill="#000"/>
<polyline fill="none" stroke="#000" stroke-width="1.1" points="1193.59,723.09 1203.37,699.34 1206.86,702.84 1213.15,681.19 1218.73,686.78 1218.73,658.85 1234.09,674.21 1245.26,663.04 1253.64,671.42 1242.47,682.59 1257.83,697.95 1229.90,697.95 1235.49,703.53 1213.84,709.82 1217.33,713.31 1193.59,723.09"/>
<circle cx="1238.28" cy="678.40" r="2.2" fill="#000"/>
<polyline fill="none" stroke="#000" stroke-width="1.1" points="1464.26,878.47 1440.56,888.34 1440.56,883.40 1420.81,894.26 1420.81,886.36 1401.06,906.11 1401.06,884.39 1385.26,884.39 1385.26,872.54 1401.06,872.54 1401.06,850.82 1420.81,870.57 1420.81,862.67 1440.56,873.53 1440.56,868.59 1464.26,878.47"/>
<circle cx="1401.06" cy="878.47" r="2.2" fill="#000"/>
<polyline fill="none" stroke="#000" stroke-width="1.1" points="1133.15,746.51 1156.89,756.29 1153.40,759.78 1175.04,766.06 1169.46,771.65 1197.39,771.65 1182.03,787.01 1193.20,798.18 1184.82,806.56 1173.65,795.39 1158.29,810.75 1158.29,782.82 1152.70,788.41 1146.42,766.76 1142.92,770.25 1133.15,746.51"/>
<circle cx="1177.84" cy="791.20" r="2.2" fill="#000"/>
<polyline fill="none" stroke="#000" stroke-width="1.1" points="1365.77,730.49 1355.90,706.79 1360.84,706.79 1349.98,687.05 1357.88,687.05 1338.13,667.30 1359.85,667.30 1359.85,651.50 1371.70,651.50 1371.70,667.30 1393.42,667.30 1373.67,687.05 1381.57,687.05 1370.71,706.79 1375.65,706.79 1365.77,730.49"/>
<circle cx="1365.77" cy="667.30" r="2.2" fill="#000"/>
</svg>
