<?xml version="1.0" encoding="UTF-8"?>
<svg xmlns="http://www.w3.org/2000/svg" width="1100" height="1100" viewBox="0 0 1100 1100">
  <rect x="0" y="0" width="1100" height="1100" fill="white"/>
  <text x="10.0" y="18.0" font-family="monospace" font-size="12">L=1.48012 best_feas=0.000e+00 N=5</text>
  <rect x="40.000000" y="40.000000" width="1020.000000" height="1020.000000" fill="none" stroke="#000" stroke-width="2"/>
  <path d="M1041.784757 364.137184 L1039.678051 588.095607 L1000.077939 571.156663 L1019.442410 766.822786 L956.082231 739.720476 L1046.726903 965.876697 L872.486412 891.345345 L818.281792 1018.065702 L723.241524 977.412237 L777.446144 850.691880 L603.205653 776.160528 L829.361874 685.515856 L766.001696 658.413546 L920.877716 537.278776 L881.277604 520.339832 Z" fill="#888" fill-opacity="0.18" stroke="#000" stroke-width="1"/>
  <path d="M396.147368 81.586686 L620.031797 75.456759 L604.560450 115.652954 L799.382192 89.106711 L774.628038 153.420623 L997.298203 54.521229 L929.224279 231.384487 L1057.852103 280.892796 L1020.720871 377.363664 L892.093047 327.855355 L824.019123 504.718613 L725.119729 282.048447 L700.365575 346.362359 L573.617757 196.045344 L558.146411 236.241539 Z" fill="#888" fill-opacity="0.18" stroke="#000" stroke-width="1"/>
  <path d="M105.474541 642.715949 L265.000736 485.511604 L281.107558 525.457403 L405.455750 373.149355 L431.226665 437.062635 L526.582576 212.852147 L597.452593 388.613667 L725.279153 337.071836 L763.935526 432.941756 L636.108966 484.483587 L706.978983 660.245107 L482.768495 564.889195 L508.539411 628.802475 L313.321202 605.349003 L329.428024 645.294803 Z" fill="#888" fill-opacity="0.18" stroke="#000" stroke-width="1"/>
  <path d="M40.822847 689.594699 L50.313272 465.827532 L89.333300 484.063049 L76.431307 287.864800 L138.863351 317.041627 L55.725308 88.019448 L227.413430 168.255723 L285.767084 43.391634 L379.415151 87.156874 L321.061497 212.020963 L492.749620 292.257238 L263.727440 375.395282 L326.159485 404.572109 L167.373356 520.534083 L206.393384 538.769600 Z" fill="#888" fill-opacity="0.18" stroke="#000" stroke-width="1"/>
  <path d="M782.822495 1057.104560 L558.907765 1052.204893 L576.339268 1012.819117 L380.446857 1029.741808 L408.337264 966.724567 L181.068145 1054.541654 L257.766762 881.244241 L131.732280 825.463429 L173.567890 730.937567 L299.602372 786.718379 L376.300989 613.420967 L464.118076 840.690085 L492.008482 777.672844 L611.202276 934.047566 L628.633780 894.661790 Z" fill="#888" fill-opacity="0.18" stroke="#000" stroke-width="1"/>
</svg>
